<?xml version="1.0" standalone="no"?>
<!DOCTYPE svg PUBLIC "-//W3C//DTD SVG 1.1//EN" "http://www.w3.org/Graphics/SVG/1.1/DTD/svg11.dtd" >
<svg xmlns="http://www.w3.org/2000/svg" xmlns:xlink="http://www.w3.org/1999/xlink" version="1.1">
<metadata></metadata>
<defs>
<font id="indivisa_text_sansblack" horiz-adv-x="620" >
<font-face units-per-em="1000" ascent="750" descent="-250" />
<missing-glyph horiz-adv-x="250" />
<glyph unicode="&#x2f;symbol&#x31;&#x2f;" horiz-adv-x="5534" d="M1865 412q-25 0 -40.5 14.5t-15.5 37.5q0 24 15.5 45t39 34.5t48.5 13.5q24 0 39 -13.5t15 -37.5t-14.5 -45.5t-37.5 -35t-49 -13.5zM1284 412q-26 0 -41.5 14.5t-15.5 37.5q0 24 15.5 45t39.5 34.5t49 13.5q24 0 38.5 -13.5t14.5 -37.5t-14.5 -45.5t-37 -35t-48.5 -13.5 zM959 0q0 21 2.5 46.5t8.5 61.5q-16 -49 -51 -82t-79 -33q-41 0 -63 30t-22 82q0 45 15.5 91t46.5 85.5t76.5 63.5t104.5 24h12.5t12.5 -1l16 73l6 102l136 7q0 -40 -9.5 -95t-23 -116.5t-27 -123.5t-23 -117.5t-9.5 -97.5h-130zM100 0l78 364q8 38 13.5 72.5t7.5 63.5 l128 7l11 -15l-104 -492h-134zM3503 492l-57 -492h-131l20 175q3 30 9 69t12.5 78t11.5 68h-3q-16 -53 -37 -107.5t-44 -107.5l-76 -175h-149l-2 175q-1 56 1 109t8 106h-2q-15 -61 -30 -115.5t-29 -99.5l-53 -175h-109l154 500l184 6l1 -137q1 -50 -2.5 -121.5 t-12.5 -137.5h2q20 65 36 111t30.5 81t27.5 67l56 131l169 7zM5316 300q-15 -74 -23 -110.5t-11 -51t-3 -21.5q0 -34 36 -34q13 0 28 5t31 13l-9 -79q-20 -11 -50 -20t-64 -9q-50 0 -77.5 25t-27.5 75q0 11 1.5 23.5t6 33.5t12.5 57.5t20 95.5l-47 1l9 44l54 14l53 95l81 6 l13 -15l-20 -86h99l6 -14l-17 -51zM336 0q0 28 4 62t13 82t24 116l6 102l137 7q0 -18 -2 -41t-5 -48h2q29 49 65.5 69t68.5 20q35 0 53.5 -19.5t18.5 -51.5q0 -23 -8 -62.5t-18 -84.5q-7 -33 -11 -57t-5.5 -45.5t-1.5 -48.5h-131q0 38 4.5 69.5t14.5 80.5q7 35 11 55.5 t4 31.5q0 24 -17 24t-34 -22.5t-30.5 -60.5t-22 -84t-9.5 -94h-131zM1170 0q0 39 7 87.5t20 105.5l14 67l6 102l137 7q0 -36 -8 -81.5t-19 -95.5t-19 -99t-8 -93h-130zM1399 362l140 7q6 -59 4.5 -137.5t-9.5 -151.5h2q23 45 42 95t32 99t17 90q17 4 28.5 4.5t21.5 0.5 q28 0 46.5 -7t18.5 -35q0 -22 -13.5 -60.5t-36.5 -85t-53.5 -94t-63.5 -87.5h-149q-2 111 -9.5 207.5t-17.5 154.5zM1752 0q0 39 7 87.5t19 105.5l15 67l6 102l137 7q0 -36 -8 -81.5t-19 -95.5t-19 -99t-8 -93h-130zM4716 0q0 28 4 62t13 82t24 116l6 102l137 7 q0 -18 -2.5 -41t-4.5 -48h2q29 49 65 69t69 20q35 0 53.5 -19.5t18.5 -51.5q0 -23 -8 -62.5t-18 -84.5q-7 -33 -11 -57t-6 -45.5t-2 -48.5h-130q0 38 4.5 69.5t14.5 80.5q7 35 11 55.5t4 31.5q0 24 -17 24q-18 0 -34.5 -22.5t-30.5 -60.5t-22.5 -84t-9.5 -94h-130zM2245 256 q-25 14 -51.5 22t-45.5 8q-17 0 -29.5 -7t-12.5 -19q0 -13 13 -22t32 -17.5t38 -20.5t32 -30.5t13 -47.5q0 -39 -25 -68t-66.5 -45t-89.5 -16q-33 0 -66.5 7.5t-51.5 20.5l27 93q27 -18 58.5 -28t52.5 -10q20 0 30 8t10 18q0 13 -13 22t-32 18t-38 21t-32 30t-13 46 q0 39 25.5 68t67.5 45.5t90 16.5q20 0 48.5 -3.5t55.5 -14.5zM2525 369q32 0 73.5 -7.5t72.5 -24.5l-29 -128q-20 -94 -25.5 -140.5t-5.5 -68.5h-130q0 20 2.5 45t9.5 67q-15 -50 -50.5 -84.5t-81.5 -34.5q-41 0 -62.5 30t-21.5 83q0 44 15.5 90.5t46.5 85.5t77.5 63 t108.5 24zM4653 51q-32 -28 -74 -43t-85 -15q-62 0 -102 33.5t-40 103.5q0 46 17.5 88.5t49.5 76.5t75 54t94 20q53 0 86 -23t33 -65q0 -56 -59 -95.5t-162 -44.5v-1q0 -29 15 -46.5t48 -17.5q22 0 45 7.5t45 20.5zM3936 0q0 28 4 62t13.5 82t24.5 116l5 102l137 7 q0 -18 -2 -41t-5 -48h2q29 49 65.5 69t68.5 20q35 0 53.5 -19.5t18.5 -51.5q0 -23 -8 -62.5t-18 -84.5q-7 -33 -11 -57t-5.5 -45.5t-1.5 -48.5h-131q0 38 4.5 69.5t14.5 80.5q8 35 11.5 55.5t3.5 31.5q0 24 -17 24t-34 -22.5t-30.5 -60.5t-22 -84t-9.5 -94h-131zM3768 369 q32 0 73 -7.5t72 -24.5l-28 -128q-20 -94 -25.5 -140.5t-5.5 -68.5h-130q0 20 2.5 45t9.5 67q-15 -50 -50.5 -84.5t-81.5 -34.5q-41 0 -63 30t-22 83q0 44 15.5 90.5t47 85.5t78 63t108.5 24zM4490 177q46 10 72.5 33.5t26.5 59.5q0 17 -5.5 24t-16.5 7q-20 0 -36 -20 t-26 -48.5t-15 -55.5zM3677 101q17 0 33 21t30 54t22 69q2 11 4.5 22t4.5 22q-16 8 -27 8q-18 0 -34.5 -16t-29 -40.5t-20 -51.5t-7.5 -48q0 -40 24 -40zM913 101q16 0 31 19.5t28.5 50t22.5 64.5l4 20l4 20l3 14q-14 8 -27 8q-18 0 -34 -16t-28.5 -40.5t-20 -51.5t-7.5 -48 q0 -40 24 -40zM2435 101q16 0 32.5 21t30 54t21.5 69q2 11 4.5 22t4.5 22q-14 8 -27 8q-18 0 -34 -16t-29 -40.5t-20 -51.5t-7 -48q0 -40 24 -40z" />
<glyph unicode="&#x2f;symbol&#x32;&#x2f;" horiz-adv-x="932" d="M494 570l52 -90l-137 -240h-103l137 240l-52 90h103zM357 570l52 -90l-138 -240h-103l138 240l-52 90h103zM752 120h-103l-137 240l51 90l137 -240h103zM683 0h-103l-137 240l51 90l138 -240h103zM100 120l51 90h275l51 -90h-274l-52 -90zM168 0l52 90h274l52 -90h-275 l-51 -90zM789 88q18 0 30.5 -13t12.5 -31t-12.5 -31t-30.5 -13t-30.5 13t-12.5 31t12.5 31t30.5 13zM829 44q0 17 -11.5 28.5t-28.5 11.5q-16 0 -28 -11.5t-12 -28.5q0 -16 12 -28t28 -12q17 0 28.5 12t11.5 28zM771 69h18h5t6 -2q5 -4 5 -11q0 -5 -3 -8q-1 -2 -2.5 -2.5 t-3.5 -1.5q7 -1 8 -9q0 -8 3 -16h-8q-1 2 -1 6t-1 7q-1 5 -2.5 7.5t-8.5 2.5h-8v-23h-7v50zM778 47h10h3.5t3.5 1q3 3 3 7q0 6 -4 7t-6 1h-10v-16z" />
<glyph unicode="&#x2f;symbol&#x33;&#x2f;" horiz-adv-x="957" d="M505 638l68 -270h270l-203 -135l136 -270l-271 135l-270 -270l135 405l-270 203l338 -68zM814 87q18 0 30.5 -12.5t12.5 -31.5q0 -18 -12.5 -30.5t-30.5 -12.5t-30.5 12.5t-12.5 30.5q0 19 12.5 31.5t30.5 12.5zM854 43q0 17 -11.5 29t-28.5 12q-16 0 -28 -12t-12 -29 q0 -16 12 -28t28 -12q17 0 28.5 12t11.5 28zM796 68h18h5.5t5.5 -2q6 -3 6 -10q0 -5 -4 -9q-3 -3 -6 -3q7 -3 8 -10q1 -4 1.5 -7.5t1.5 -8.5h-7q-1 3 -1.5 7t-1.5 7q0 9 -10 9h-9v-23h-7v50zM803 47h10h3.5t3.5 1l2 2t1 4q0 7 -4 8t-6 1h-10v-16z" />
<glyph unicode="&#x2f;symbol&#x34;&#x2f;" horiz-adv-x="2607" d="M1684 406q0 32 -2.5 63t-8.5 65l126 14l15 -15v-533h-130v406zM1889 406q0 62 -10 128l126 14l14 -15v-533h-130v406zM427 101v-101h-320v362q0 38 -1.5 72t-5.5 63l126 7l14 -14v-396zM925 21l7 109q31 -18 72 -27t72 -9q50 0 50 36q0 19 -20.5 34t-50 31t-59.5 37 t-50.5 51t-20.5 74q0 48 26 80.5t70 49.5t97 17q81 0 127 -18l-14 -111q-28 14 -55 21.5t-56 7.5q-28 0 -43 -11t-15 -29q0 -22 20.5 -38.5t50.5 -32.5t59.5 -36.5t50 -49.5t20.5 -73q0 -67 -54 -104t-139 -37q-40 0 -82.5 8t-62.5 20zM795 0l-106 -7q-7 11 -12 24t-9 25h-4 q-15 -22 -42.5 -35.5t-61.5 -13.5q-41 0 -69 22t-28 67q0 61 53.5 88.5t137.5 29.5v20q0 54 -58 54q-55 0 -108 -29l-8 97q27 10 68.5 18t81.5 8q154 0 154 -135q0 -38 -2 -69.5t-2 -69.5q0 -24 4.5 -50.5t10.5 -43.5zM1626 0l-107 -7q-7 11 -12 24t-9 25h-3 q-15 -22 -42.5 -35.5t-62.5 -13.5q-40 0 -68 22t-28 67q0 61 53 88.5t138 29.5v20q0 54 -58 54q-54 0 -109 -29l-7 97q27 10 68.5 18t81.5 8q153 0 153 -135q0 -38 -1.5 -69.5t-1.5 -69.5q0 -24 4.5 -50.5t10.5 -43.5zM2405 213v-17t-1 -19l-11 -11h-191q8 -45 33.5 -64 t64.5 -19q24 0 45.5 6t38.5 15l7 -81q-17 -11 -49.5 -20.5t-77.5 -9.5q-88 0 -143 47t-55 135q0 58 24 101t66 67.5t94 24.5q73 0 114 -43.5t41 -111.5zM2199 207l78 4q1 5 1.5 11t0.5 15q0 23 -7.5 41t-26.5 18q-23 0 -34 -25.5t-12 -63.5zM654 74v88q-27 -3 -46 -17 t-19 -40q0 -18 10.5 -29t26.5 -11t28 9zM1485 74v88q-27 -3 -46 -17t-19 -40q0 -18 10 -29t27 -11q16 0 28 9zM2464 85q18 0 30.5 -13t12.5 -31t-12.5 -31t-30.5 -13t-31 13t-13 31t13 31t31 13zM2504 41q0 17 -11.5 28.5t-28.5 11.5q-16 0 -28 -11.5t-12 -28.5 q0 -16 12 -28t28 -12q17 0 28.5 12t11.5 28zM2446 66h18q2 0 5 -0.5t6 -2.5q5 -2 5 -10q0 -4 -3 -9q-3 -3 -6 -3q7 -1 8 -10q0 -7 3 -15h-8q-1 2 -1 6t-1 7q-1 5 -2.5 7t-8.5 2h-8v-22h-7v50zM2453 44h10h3.5t3.5 1q3 3 3 7q0 6 -4 7t-6 1h-10v-16z" />
<glyph unicode="&#x2f;symbol&#x35;&#x2f;" horiz-adv-x="705" d="M232 -6l-132 136l124 234l129 -136zM474 -6l-121 234l128 136l124 -234z" />
<glyph unicode=" "  horiz-adv-x="250" />
<glyph unicode="&#x09;" horiz-adv-x="250" />
<glyph unicode="&#xa0;" horiz-adv-x="250" />
<glyph unicode="!" horiz-adv-x="350" d="M232 232h-109q-6 73 -12.5 144t-12.5 133t-10.5 109t-7.5 72l170 10l20 -20q-2 -112 -12 -224t-26 -224zM269 90q0 -41 -29.5 -70.5t-72.5 -29.5q-39 0 -63 24t-24 57q0 27 15 49.5t39.5 36t52.5 13.5q35 0 58.5 -22t23.5 -58z" />
<glyph unicode="&#x22;" horiz-adv-x="427" d="M192 760l10 -30l-46 -287h-59l-42 317h137zM382 760l10 -30l-46 -287h-59l-42 317h137z" />
<glyph unicode="#" horiz-adv-x="716" d="M52 215h130l28 110h-119l-8 8l12 82h137l34 135l82 -15l8 -8l-28 -112h135l34 135l82 -15l8 -8l-28 -112h109l8 -8l-12 -82h-127l-28 -110h121l8 -8l-12 -82h-139l-34 -135l-82 15l-8 8l28 112h-135l-34 -135l-82 15l-8 8l28 112h-112l-8 8zM278 215h135l28 110h-135z " />
<glyph unicode="$" horiz-adv-x="516" d="M221 -140l-8 8v122q-52 2 -102 12.5t-71 26.5l9 151q23 -15 55.5 -26.5t66 -17.5t57.5 -6q58 0 58 54q0 30 -18.5 50t-47 36t-59.5 33q-30 18 -58 41t-45.5 58.5t-17.5 87.5q0 86 53.5 138t139.5 67v132l62 3l8 -8v-122q43 0 83.5 -7.5t64.5 -17.5l-19 -155 q-31 19 -66.5 29.5t-67.5 10.5q-34 0 -51 -15.5t-17 -42.5t17.5 -45.5t45 -33.5t57.5 -33q32 -17 60.5 -41t47 -60.5t18.5 -91.5q0 -89 -53.5 -140t-139.5 -63v-131z" />
<glyph unicode="%" horiz-adv-x="956" d="M738 700l-425 -710h-65l424 710h66zM445 499q0 -68 -29.5 -113.5t-77.5 -68.5t-104 -23t-101.5 22.5t-71.5 66t-26 106.5q0 66 28 113t76 72.5t108 25.5q89 0 143.5 -54.5t54.5 -146.5zM189 501q0 -59 11 -93t42 -34q32 0 40.5 33.5t8.5 83.5q0 62 -10.5 95.5t-41.5 33.5 q-28 0 -39 -29t-11 -90zM921 127q0 -68 -29.5 -113.5t-77.5 -68.5t-104 -23t-101.5 22.5t-71.5 66t-26 106.5q0 66 28 113t76 72.5t108 25.5q89 0 143.5 -54.5t54.5 -146.5zM665 129q0 -59 11 -93t42 -34q32 0 40.5 33.5t8.5 83.5q0 62 -10.5 95.5t-41.5 33.5q-28 0 -39 -29 t-11 -90z" />
<glyph unicode="&#x26;" horiz-adv-x="802" d="M372 570q-21 0 -34.5 -10t-13.5 -31q0 -22 13 -46.5t30 -46.5t28 -36l123 -149q7 37 7 79q0 21 -1.5 45t-6.5 49l175 19l20 -20q-9 -83 -37 -152t-70 -122q19 -18 37.5 -27t44.5 -9q16 0 30.5 3t24.5 7l10 -107q-16 -9 -48 -17.5t-68 -8.5q-44 0 -81 15t-69 40 q-95 -55 -206 -55q-106 0 -163 49t-57 127q0 50 21 88t55.5 63t75.5 35l-11 13q-6 8 -22 29.5t-29.5 53t-13.5 70.5q0 48 26.5 89.5t79 67t128.5 25.5q66 0 119.5 -20t84.5 -51l-82 -139q-34 40 -62 60t-58 20zM238 211q0 -32 15 -59.5t42 -44.5t63 -17q33 0 63 15 q-15 17 -30.5 35t-30.5 36l-99 117q-11 -17 -17 -39.5t-6 -42.5z" />
<glyph unicode="'" horiz-adv-x="237" d="M182 760l10 -30l-46 -287h-59l-42 317h137z" />
<glyph unicode="(" horiz-adv-x="459" d="M375 -198q-140 77 -217.5 198t-77.5 281t77.5 281t217.5 198l64 -90q-91 -80 -132 -175.5t-41 -213.5t41 -213.5t132 -175.5z" />
<glyph unicode=")" horiz-adv-x="459" d="M379 281q0 -160 -77.5 -281t-217.5 -198l-64 90q91 80 132 175.5t41 213.5t-41 213.5t-132 175.5l64 90q140 -77 217.5 -198t77.5 -281z" />
<glyph unicode="*" horiz-adv-x="505" d="M202 337l-7 24l35 149l-132 -117l-55 94l18 18l150 44l-171 56l54 94l24 -6l113 -106l-36 174h108l7 -24l-36 -152l133 120l55 -94l-18 -18l-147 -45l168 -55l-54 -94l-24 6l-114 108l37 -176h-108z" />
<glyph unicode="+" d="M530 303h-175v-178h-88l-1 178h-186v85q33 1 82 2t104 1l-1 174h90v-173q52 1 98.5 1h78.5l8 -8z" />
<glyph unicode="," horiz-adv-x="298" d="M35 -148q24 27 48.5 63.5t35.5 76.5q-31 6 -52.5 31t-21.5 61q0 29 14.5 54t39 40t54.5 15q40 0 70 -26.5t30 -82.5q0 -42 -17 -83t-43.5 -78.5t-55 -68t-51.5 -49.5z" />
<glyph unicode="-" horiz-adv-x="415" d="M30 251v50h355v-50h-355z" />
<glyph unicode="." horiz-adv-x="300" d="M254 93q0 -43 -30.5 -73t-75.5 -30q-46 0 -74 29.5t-28 69.5q0 29 15 52.5t40 37.5t55 14q42 0 70 -27.5t28 -72.5z" />
<glyph unicode="/" horiz-adv-x="366" d="M330 745l8 -8l-187 -747l-82 15l-8 8l187 747z" />
<glyph unicode="0" horiz-adv-x="665" d="M620 348q0 -118 -41 -198t-108 -120t-146 -40t-142.5 40t-100.5 117t-37 188q0 114 39 195.5t106.5 125.5t150.5 44t146 -43t98 -122t35 -187zM230 350q0 -115 22 -182.5t83 -67.5q42 0 63.5 30.5t29 85t7.5 125.5q0 117 -21 183t-83 66q-56 0 -78.5 -59t-22.5 -181z" />
<glyph unicode="1" horiz-adv-x="395" d="M138 519h-3l-95 -10l-25 110l280 80l20 -20v-679h-180v384q0 40 0.5 73.5t2.5 61.5z" />
<glyph unicode="2" horiz-adv-x="630" d="M106 0l-20 125q26 17 61.5 44.5t72.5 63t68.5 75.5t51 81t19.5 80q0 42 -23.5 71.5t-70.5 29.5q-34 0 -77 -18.5t-84 -48.5l-17 142q37 20 97.5 37.5t124.5 17.5q69 0 122 -24t83 -66.5t30 -98.5q0 -52 -25 -105t-67 -102t-93 -91t-103 -73h118q41 0 81.5 2.5t78.5 7.5 l-10 -150h-418z" />
<glyph unicode="3" horiz-adv-x="536" d="M41 647q25 14 60.5 26t76 19.5t78.5 7.5q61 0 108.5 -20t74.5 -54.5t27 -79.5q0 -53 -38 -102t-102 -69q79 -13 127 -60t48 -117q0 -61 -37 -108t-103 -73.5t-153 -26.5q-40 0 -87.5 6t-85.5 17l16 120q19 -7 46.5 -12t55 -8t47.5 -3q49 0 82.5 20.5t33.5 61.5 q0 44 -40 61.5t-102 17.5q-19 0 -41 -1.5t-45 -5.5v120q49 5 93 19t72 39.5t28 62.5q0 28 -19 46.5t-60 18.5q-33 0 -75.5 -12.5t-78.5 -32.5z" />
<glyph unicode="4" horiz-adv-x="645" d="M25 264l270 424l198 11l20 -20v-398q26 1 51.5 3.5t50.5 5.5l-10 -139h-92v-151h-170v151h-298zM170 281v-3q20 1 59.5 1.5t113.5 0.5v95q0 44 1 96t6 97h-3z" />
<glyph unicode="5" horiz-adv-x="571" d="M65 13l16 125q19 -6 46 -11.5t53.5 -8.5t45.5 -3q50 0 83.5 24t33.5 75q0 50 -30 70.5t-74 20.5q-36 0 -70.5 -8.5t-60.5 -19.5l-25 15v398h259q41 0 81.5 2.5t78.5 7.5l-10 -150h-264v-129q18 4 40.5 6.5t42.5 2.5q62 0 111 -23t77.5 -68t28.5 -112q0 -78 -39.5 -130.5 t-107 -79.5t-151.5 -27q-40 0 -83.5 6t-81.5 17z" />
<glyph unicode="6" horiz-adv-x="603" d="M316 -10q-73 0 -133.5 32.5t-96.5 99.5t-36 171q0 86 26 159.5t75.5 129.5t120 87t159.5 31q26 0 50 -2.5t35 -7.5l-15 -131q-14 5 -33.5 8t-37.5 3q-40 0 -80.5 -19t-71 -58.5t-40.5 -101.5h3q23 11 54 17.5t65 6.5q92 0 147.5 -51.5t55.5 -145.5q0 -74 -34 -125 t-90 -77t-123 -26zM304 305q-19 0 -38.5 -6.5t-30.5 -17.5q0 -100 14.5 -140.5t55.5 -40.5q40 0 56.5 29t16.5 72q0 48 -18 76t-56 28z" />
<glyph unicode="7" horiz-adv-x="545" d="M25 530l13 160h455l22 -20v-100q-124 -127 -182 -266.5t-63 -303.5h-185q7 108 44 210t95 189t128 148v3h-116q-58 0 -111.5 -4.5t-99.5 -15.5z" />
<glyph unicode="8" horiz-adv-x="624" d="M303 -10q-80 0 -138 23.5t-89 64.5t-31 95q0 49 23 86t58.5 61.5t72.5 34.5v3q-29 18 -58 40t-47.5 52.5t-18.5 71.5q0 50 30 90.5t85 64t129 23.5q81 0 131.5 -26t74.5 -65t24 -78q0 -49 -34 -92t-87 -69v-3q37 -16 71.5 -39.5t57 -57t22.5 -80.5q0 -50 -30.5 -96 t-92 -75t-153.5 -29zM313 600q-29 0 -51 -18t-22 -50q0 -31 23.5 -58t64.5 -47q26 22 41 50t15 54q0 32 -20 50.5t-51 18.5zM297 284q-35 -16 -58.5 -44.5t-23.5 -64.5q0 -37 25.5 -61t69.5 -24q40 0 69.5 21t29.5 60q0 37 -29.5 65t-82.5 48z" />
<glyph unicode="9" horiz-adv-x="603" d="M250 258q-93 0 -151.5 53.5t-58.5 152.5q0 76 34 128.5t91 80t126 27.5q71 0 130.5 -31.5t95.5 -97t36 -169.5q0 -80 -23.5 -154t-70.5 -132t-116.5 -92t-161.5 -34q-19 0 -39.5 2t-38.5 6l-2 128q36 -6 68 -6q89 0 135.5 42.5t62.5 122.5h-3q-19 -12 -48.5 -19.5 t-65.5 -7.5zM291 580q-34 0 -50 -30t-16 -75q0 -52 20.5 -80t59.5 -28q31 0 63 15q0 107 -19.5 152.5t-57.5 45.5z" />
<glyph unicode=":" horiz-adv-x="300" d="M254 410q0 -43 -30.5 -73t-75.5 -30q-46 0 -74 29.5t-28 69.5q0 29 15 52.5t40 37.5t55 14q42 0 70 -27.5t28 -72.5zM254 93q0 -43 -30.5 -73t-75.5 -30q-46 0 -74 29.5t-28 69.5q0 29 15 52.5t40 37.5t55 14q42 0 70 -27.5t28 -72.5z" />
<glyph unicode=";" horiz-adv-x="298" d="M253 410q0 -43 -30.5 -73t-75.5 -30q-46 0 -74 29.5t-28 69.5q0 29 15 52.5t40 37.5t55 14q42 0 70 -27.5t28 -72.5zM35 -148q24 27 48.5 63.5t35.5 76.5q-31 6 -52.5 31t-21.5 61q0 29 14.5 54t39 40t54.5 15q40 0 70 -26.5t30 -82.5q0 -42 -17 -83t-43.5 -78.5t-55 -68 t-51.5 -49.5z" />
<glyph unicode="&#x3c;" d="M530 93l-455 222v55l4 11q29 15 74 37t97 47t104.5 49.5t98 44.5t76.5 32v-95l-311 -148l312 -160v-95z" />
<glyph unicode="=" d="M530 403h-450v85q31 1 76 1.5t96.5 1.5t104 1.5t98 0.5h77.5l8 -8zM530 203h-450v85q31 1 76 1.5t96.5 1.5t104 1.5t98 0.5h77.5l8 -8z" />
<glyph unicode="&#x3e;" d="M90 93v95l312 160l-311 148v95q31 -12 76.5 -32t98 -44.5t104.5 -49.5t97 -47t74 -37l4 -11v-55z" />
<glyph unicode="?" horiz-adv-x="526" d="M267 226l-101 -5q-18 33 -18 66q0 32 15 55.5t37 42.5t44 37.5t37 38.5t15 46q0 29 -21.5 47t-56.5 18q-32 0 -70 -17.5t-65 -49.5l-63 96q36 40 93.5 69.5t142.5 29.5q71 0 121.5 -22.5t77 -60.5t26.5 -87q0 -46 -21 -79.5t-51.5 -59t-61 -45t-51.5 -36.5t-21 -34v-42z M318 90q0 -41 -29.5 -70.5t-72.5 -29.5q-39 0 -63 24t-24 57q0 27 15 49.5t39.5 36t52.5 13.5q35 0 58.5 -22t23.5 -58z" />
<glyph unicode="@" horiz-adv-x="1138" d="M803 -160q-51 -41 -129.5 -70.5t-174.5 -29.5t-176.5 32t-139 90t-91 138.5t-32.5 177.5t31.5 184.5t88 160t132 126t162.5 82.5t180 29q95 0 173 -31t134 -86.5t86.5 -129t30.5 -157.5q0 -76 -24 -142t-67.5 -116.5t-102.5 -79t-129 -28.5q-58 0 -90.5 18.5t-46 47 t-13.5 61t7 59.5h-6q-8 -30 -25.5 -62.5t-42.5 -60.5t-56 -45.5t-66 -17.5q-55 0 -86 45.5t-31 121.5q0 62 21.5 124.5t64.5 114t106.5 83t148.5 31.5q45 0 102.5 -10.5t100.5 -33.5l-39 -178q-9 -43 -16 -82.5t-6.5 -70t13.5 -48.5t43 -18t62.5 20.5t60 58t45 89.5 t17.5 116q0 78 -27.5 143.5t-77.5 113t-118 74t-148 26.5q-76 0 -152.5 -24.5t-145.5 -70.5t-123 -110.5t-85 -145t-31 -174.5q0 -85 28 -157t80 -125.5t125 -83t163 -29.5q91 0 156 26t117 56zM517 140q23 0 46 30t42.5 77.5t29.5 97.5l11 54q-20 11 -37 11 q-25 0 -47.5 -22t-40 -56t-27.5 -71t-10 -66q0 -55 33 -55z" />
<glyph unicode="A" horiz-adv-x="650" d="M180 0h-175l166 580q9 31 16 59.5t11 50.5l224 9l30 -25l193 -674h-185l-35 130h-210zM262 305l-12 -45h140l-12 44q-22 85 -35.5 144.5t-19.5 93.5h-5q-4 -22 -12.5 -59.5t-19.5 -83.5t-24 -94z" />
<glyph unicode="B" horiz-adv-x="643" d="M346 0h-281v511q0 45 -1 88.5t-9 90.5h297q73 0 125.5 -24.5t81 -66t28.5 -94.5t-28 -88.5t-77 -56.5q59 -19 95 -60.5t36 -109.5q0 -58 -35.5 -101t-95.5 -66t-136 -23zM320 560h-70v-154h70q42 0 62 22t20 54q0 36 -20.5 57t-61.5 21zM329 286h-79v-156h79 q45 0 69.5 21t24.5 55q0 35 -23.5 57.5t-70.5 22.5z" />
<glyph unicode="C" horiz-adv-x="574" d="M538 178l21 -148q-80 -40 -193 -40q-105 0 -180 41.5t-115.5 119.5t-40.5 186q0 107 44 189t121.5 128t178.5 46q57 0 103 -11t78 -29l-35 -155q-38 22 -72 33.5t-72 11.5q-71 0 -113.5 -57t-42.5 -152q0 -94 45.5 -147.5t125.5 -53.5q44 0 81.5 11t65.5 27z" />
<glyph unicode="D" horiz-adv-x="692" d="M662 351q0 -114 -48.5 -192t-130.5 -118.5t-182 -40.5h-236v511q0 45 -1 88.5t-9 90.5h266q108 0 184 -41t116.5 -117t40.5 -181zM311 560h-61v-430h67q59 0 92.5 28t48 76t14.5 108q0 58 -15 107.5t-50.5 80t-95.5 30.5z" />
<glyph unicode="E" horiz-adv-x="555" d="M530 140v-140h-465v511q0 45 -1 88.5t-9 90.5h449l20 -20l-4 -120l-270 10v-161l220 5l-5 -127l-215 7v-154z" />
<glyph unicode="F" horiz-adv-x="515" d="M250 0h-185v511q0 45 -1 88.5t-9 90.5h429l20 -20l-4 -120l-250 10v-181l200 5l-5 -127l-195 7v-264z" />
<glyph unicode="G" horiz-adv-x="637" d="M582 333l20 -20l-3 -283q-45 -17 -101 -28.5t-118 -11.5q-114 0 -192 41.5t-118 116.5t-40 177q0 110 45 194.5t127 132.5t194 48q56 0 107 -11.5t87 -28.5l-30 -155q-34 23 -73.5 36.5t-81.5 13.5q-82 0 -133.5 -55t-51.5 -163q0 -94 44.5 -150.5t133.5 -56.5q13 0 30 1 q-1 43 -2.5 72.5t-4.5 56.5t-8 63z" />
<glyph unicode="H" horiz-adv-x="715" d="M250 0h-185v503q0 52 -2.5 99.5t-7.5 87.5l175 10l20 -20v-273h215v96q0 52 -2.5 99.5t-7.5 87.5l175 10l20 -20v-680h-185v277h-215v-277z" />
<glyph unicode="I" horiz-adv-x="315" d="M250 0h-185v503q0 52 -2.5 99.5t-7.5 87.5l175 10l20 -20v-680z" />
<glyph unicode="J" horiz-adv-x="315" d="M50 -225l-57 75q39 59 55.5 130.5t16.5 159.5v363q0 45 -3.5 87.5t-11.5 90.5l181 19l19 -19v-541q0 -90 -16 -154.5t-59.5 -114t-124.5 -96.5z" />
<glyph unicode="K" horiz-adv-x="663" d="M65 503q0 47 -2 92t-8 95l175 10l20 -20v-297h60q20 45 43.5 98.5t47.5 110t45 108.5l175 -10l10 -19l-173 -308l197 -363l-214 -5q-34 59 -67.5 126t-63.5 132h-60v-253h-185v503z" />
<glyph unicode="L" horiz-adv-x="520" d="M510 140v-140h-445v503q0 52 -2.5 99.5t-7.5 87.5l175 10l20 -20v-550z" />
<glyph unicode="M" horiz-adv-x="902" d="M777 700l25 -20l65 -680h-181l-23 242q-4 40 -7.5 90.5t-6 101.5t-4.5 90h-3q-7 -70 -20 -141t-29 -141l-54 -242h-206l-54 242q-16 74 -28.5 143.5t-20.5 139.5h-3q-4 -81 -8.5 -152.5t-10.5 -130.5l-23 -242h-150l66 690l252 8l42 -188q10 -44 20.5 -101.5t20 -119.5 t14.5 -120h3q9 86 17.5 146t18 106t18.5 89l39 180z" />
<glyph unicode="N" horiz-adv-x="710" d="M384 441q55 -93 96 -195h3q-5 40 -8 71t-4 61t-1 68q0 67 -2.5 128t-7.5 116l165 8l20 -20v-678h-175q-45 75 -79 138t-66 115q-28 47 -51.5 92t-43.5 90h-3q9 -58 11 -103.5t2 -88.5v-243h-175v511q0 45 -2.5 92t-7.5 87l185 7q44 -79 78.5 -140.5t65.5 -115.5z" />
<glyph unicode="O" horiz-adv-x="715" d="M685 347q0 -116 -45 -195.5t-121 -120.5t-170 -41t-166 41t-112.5 118t-40.5 185q0 112 43 194t119.5 127t174.5 45q99 0 170 -44.5t109.5 -123.5t38.5 -185zM220 350q0 -60 14 -111.5t45 -82.5t80 -31q52 0 81.5 29t42 79t12.5 112q0 61 -12.5 111t-41.5 79.5t-81 29.5 q-48 0 -79 -27.5t-46 -76t-15 -111.5z" />
<glyph unicode="P" horiz-adv-x="607" d="M250 0h-185v511q0 45 -1 88.5t-9 90.5h274q82 0 140.5 -29.5t90.5 -82.5t32 -125q0 -79 -37.5 -134t-101.5 -83.5t-143 -28.5h-60v-207zM288 560h-38v-223h38q65 0 89.5 30t24.5 79q0 50 -25 82t-89 32z" />
<glyph unicode="Q" horiz-adv-x="695" d="M685 347q0 -99 -33.5 -172t-92 -117.5t-133.5 -59.5q47 -21 105.5 -31t117 -12.5t104.5 -2.5l-20 -156q-67 0 -130.5 17.5t-120 46t-103 63.5t-79.5 70q-81 10 -141.5 53.5t-94.5 116.5t-34 171q0 112 43 194t119.5 127t174.5 45q99 0 170 -44.5t109.5 -123.5t38.5 -185z M220 350q0 -60 14 -111.5t45 -82.5t80 -31q52 0 81.5 29t42 79t12.5 112q0 61 -12.5 111t-41.5 79.5t-81 29.5q-48 0 -79 -27.5t-46 -76t-15 -111.5z" />
<glyph unicode="R" horiz-adv-x="627" d="M250 0h-185v511q0 45 -1 88.5t-9 90.5h246q143 0 217 -59.5t74 -163.5q0 -73 -32.5 -120.5t-80.5 -71.5l148 -275l-215 -5q-25 54 -49 113t-46 119h-67v-227zM288 560h-38v-208h38q65 0 89.5 29t24.5 75q0 49 -25 76.5t-89 27.5z" />
<glyph unicode="S" horiz-adv-x="550" d="M510 197q0 -68 -34.5 -114.5t-94.5 -69.5t-139 -23q-37 0 -77 5t-73.5 14t-51.5 20l10 151q25 -15 60.5 -26.5t71.5 -17.5t62 -6q76 0 76 54q0 30 -20.5 50t-53 36t-67.5 33q-34 18 -66 41t-52 58.5t-20 87.5q0 69 36 115.5t99 70.5t144 24q47 0 92.5 -7t72.5 -18 l-20 -155q-34 19 -73.5 29.5t-74.5 10.5q-43 0 -64.5 -15.5t-21.5 -42.5t20 -45.5t51.5 -33.5t65.5 -33q35 -17 67.5 -41t53.5 -60.5t21 -91.5z" />
<glyph unicode="T" horiz-adv-x="585" d="M385 0h-185v554q-47 -1 -94.5 -3t-95.5 -5l10 144h545l10 -144q-48 3 -95.5 5t-94.5 3v-554z" />
<glyph unicode="U" horiz-adv-x="680" d="M55 503q0 47 -2 92.5t-8 94.5l175 10l20 -20v-424q0 -127 106 -127q104 0 104 127v287q0 44 -2.5 78t-7.5 69l185 8v-458q0 -83 -39.5 -139t-105 -83.5t-144.5 -27.5t-142.5 28t-101 83.5t-37.5 138.5v263z" />
<glyph unicode="V" horiz-adv-x="641" d="M218 0l-215 681l198 19l101 -368q11 -37 21 -76.5t15 -69.5q6 31 16 70t20 74l106 370l148 -10l10 -19l-215 -671h-205z" />
<glyph unicode="W" horiz-adv-x="960" d="M174 0l-171 681l198 19l70 -348q9 -44 16.5 -91.5t12.5 -77.5q6 30 16.5 78t19.5 89l74 340l178 10l73 -348q10 -43 19.5 -91t15.5 -78q5 32 13.5 80.5t17.5 90.5l72 346l148 -10l10 -19l-171 -671h-205l-53 223q-13 54 -23 108.5t-22 108.5h-3q-11 -55 -22.5 -110 t-25.5 -110l-53 -220h-205z" />
<glyph unicode="X" horiz-adv-x="606" d="M14 0l-11 20l185 305l-185 360l199 15l118 -258h3l111 258l158 -12l11 -20l-181 -332l181 -336h-206l-107 219h-2l-113 -219h-161z" />
<glyph unicode="Y" horiz-adv-x="584" d="M199 216l-196 465l198 19l61 -194q12 -37 26 -81t21 -70h3q6 18 15 44t18.5 54.5t16.5 50.5l61 196l148 -10l10 -19l-197 -455v-216h-185v216z" />
<glyph unicode="Z" horiz-adv-x="584" d="M60 0l-30 120l311 419l-296 -9l10 160h447l47 -120l-307 -418l300 8l-10 -160h-472z" />
<glyph unicode="[" horiz-adv-x="444" d="M120 760h274v-134h-104v-690h104v-134h-274v958z" />
<glyph unicode="\" horiz-adv-x="397" d="M247 -10l-187 747l8 8l82 15l187 -747l-8 -8z" />
<glyph unicode="]" horiz-adv-x="444" d="M324 760v-958h-274v134h104v690h-104v134h274z" />
<glyph unicode="^" horiz-adv-x="526" d="M175 210h-95l150 340h66l150 -340h-95l-90 208z" />
<glyph unicode="_" horiz-adv-x="470" d="M0 -240v50h470v-50h-470z" />
<glyph unicode="`" horiz-adv-x="276" d="M201 566q-94 73 -156 170l10 30l160 8q10 -49 24.5 -99t31.5 -99z" />
<glyph unicode="a" horiz-adv-x="526" d="M304 58q-21 -31 -59.5 -49.5t-85.5 -18.5q-57 0 -95.5 30.5t-38.5 92.5q0 56 34 91.5t93.5 53t137.5 19.5v28q0 75 -80 75q-36 0 -76 -10.5t-75 -29.5l-10 135q38 13 95.5 24t112.5 11q213 0 213 -187q0 -53 -2.5 -96.5t-2.5 -96.5q0 -34 6.5 -70t14.5 -60l-148 -10 q-10 16 -17 33.5t-12 34.5h-5zM200 145q0 -25 14 -40t37 -15q21 0 39 12v123q-38 -4 -64 -24t-26 -56z" />
<glyph unicode="b" horiz-adv-x="575" d="M540 255q0 -126 -61 -195.5t-174 -69.5q-59 0 -112 15l-143 -15v573q0 47 -3.5 89.5t-11.5 88.5l175 19l20 -20v-271q24 18 55 29.5t65 11.5q91 0 140.5 -70t49.5 -185zM271 400q-22 0 -41 -9v-306q17 -5 35 -5q47 0 68.5 41.5t21.5 123.5t-20 118.5t-64 36.5z" />
<glyph unicode="c" horiz-adv-x="492" d="M467 468l-38 -134q-63 46 -119 46q-41 0 -65.5 -32.5t-24.5 -87.5q0 -69 33.5 -107t93.5 -38q24 0 47.5 7.5t52.5 21.5l10 -113q-27 -18 -66.5 -29.5t-93.5 -11.5q-79 1 -138 32.5t-91.5 89t-32.5 133.5q0 78 34.5 137.5t94.5 93.5t138 34q51 0 92.5 -11t72.5 -31z" />
<glyph unicode="d" horiz-adv-x="587" d="M361 56q-51 -66 -135 -66q-85 0 -138 63t-53 175q0 91 35 153.5t97.5 95.5t143.5 33q18 0 35 -2v55q0 47 -3 89.5t-11 88.5l174 19l20 -20v-610q0 -31 6 -67t15 -63l-152 -10q-7 11 -14 26.5t-16 39.5h-4zM220 253q0 -71 22 -117t65 -46q21 0 39 11v319h-8 q-61 0 -89.5 -44t-28.5 -123z" />
<glyph unicode="e" horiz-adv-x="536" d="M505 245l-15 -15h-266q11 -62 46.5 -88.5t89.5 -26.5q34 0 63.5 8t53.5 21l10 -113q-24 -15 -69 -28t-108 -13q-82 0 -144 29t-96.5 85.5t-34.5 137.5q0 80 33.5 140.5t91.5 94t131 33.5q67 0 115 -27.5t74 -76t26 -110.5v-24.5t-1 -26.5zM284 410q-33 0 -48.5 -36.5 t-15.5 -86.5l109 6q1 7 1.5 15t0.5 21q0 32 -10.5 56.5t-36.5 24.5z" />
<glyph unicode="f" horiz-adv-x="397" d="M265 0h-180v395l-70 5v60l70 20q-3 38 -3 67q0 104 64 158.5t174 54.5q44 0 84 -10t63 -24l-35 -131q-25 14 -52 24.5t-55 10.5q-31 0 -48.5 -18t-17.5 -51q0 -27 1 -46.5t2 -34.5h123l12 -18l-5 -72l-127 4v-394z" />
<glyph unicode="g" horiz-adv-x="539" d="M93 50q0 31 18 55t48 42q-57 19 -92.5 61.5t-35.5 102.5q0 54 28.5 99t81 72.5t122.5 27.5q40 0 74.5 -9.5t57.5 -25.5q17 40 51 59t72 19l21 -18l-5 -106h-102l-2 -4q19 -14 34.5 -41.5t15.5 -68.5q0 -52 -28.5 -93.5t-79 -65.5t-118.5 -24q-15 0 -29 1q-1 -6 -1 -12 q0 -22 12 -27.5t32 -7.5l96 -6q73 -4 120.5 -38.5t47.5 -102.5q0 -58 -37 -103t-103.5 -70.5t-155.5 -25.5q-107 0 -171.5 35t-64.5 90q0 37 27.5 61.5t63.5 31.5l60 -25q-1 -3 -1 -6v-6q0 -40 29.5 -70.5t81.5 -30.5q38 0 64.5 18.5t26.5 52.5q0 56 -79 65l-87 10 q-43 5 -68 26t-25 58zM310 322q0 50 -11.5 76.5t-40.5 26.5q-30 0 -43.5 -27.5t-13.5 -77.5q0 -103 56 -103q53 0 53 105z" />
<glyph unicode="h" horiz-adv-x="580" d="M230 0h-180v563q0 45 -3.5 87.5t-11.5 90.5l175 19l20 -20v-293q71 63 150 63q65 0 102.5 -43t37.5 -117v-350h-180v317q0 73 -57 73q-25 0 -53 -16v-374z" />
<glyph unicode="i" horiz-adv-x="295" d="M253 675q0 -30 -15.5 -55.5t-41 -40.5t-57.5 -15q-43 0 -69.5 26.5t-26.5 63.5q0 30 16.5 55t43.5 40t58 15q40 0 66 -24t26 -65zM55 0v313q0 45 -3.5 87.5t-11.5 90.5l175 19l20 -20v-490h-180z" />
<glyph unicode="j" horiz-adv-x="298" d="M252 675q0 -30 -15.5 -55.5t-41 -40.5t-57.5 -15q-43 0 -69.5 26.5t-26.5 63.5q0 30 16.5 55t43.5 40t58 15q40 0 66 -24t26 -65zM70 -260l-70 60q29 48 43.5 106.5t14.5 138.5v268q0 45 -3.5 87.5t-11.5 90.5l175 19l20 -20v-440q0 -75 -14.5 -130.5t-50.5 -98 t-103 -81.5z" />
<glyph unicode="k" horiz-adv-x="559" d="M50 563q0 45 -3.5 87.5t-11.5 90.5l175 19l20 -20v-457h30q24 47 52.5 108.5t52.5 118.5l152 -10l10 -20l-118 -181q31 -68 68 -140.5t82 -158.5l-206 -10q-21 45 -44.5 99.5t-43.5 103.5h-35v-193h-180v563z" />
<glyph unicode="l" horiz-adv-x="295" d="M235 0h-180v563q0 45 -3.5 87.5t-11.5 90.5l175 19l20 -20v-740z" />
<glyph unicode="m" horiz-adv-x="875" d="M235 0h-180v313q0 43 -5 82.5t-15 85.5l170 29q6 -17 12 -34.5t10 -35.5q74 70 158 70q44 0 76 -20.5t48 -56.5q77 77 166 77q65 0 102.5 -43t37.5 -117v-350h-180v317q0 73 -57 73q-26 0 -54 -17q1 -11 1 -23v-350h-180v317q0 73 -57 73q-25 0 -53 -16v-374z" />
<glyph unicode="n" horiz-adv-x="585" d="M235 0h-180v313q0 43 -5 82.5t-15 85.5l170 29q6 -17 12 -34.5t10 -35.5q74 70 158 70q65 0 102.5 -43t37.5 -117v-350h-180v317q0 73 -57 73q-25 0 -53 -16v-374z" />
<glyph unicode="o" horiz-adv-x="568" d="M533 253q0 -87 -35.5 -145.5t-94 -88t-126.5 -29.5t-123 28.5t-87 84.5t-32 137q0 84 34 144.5t92.5 93t130.5 32.5t126.5 -31.5t84.5 -89t30 -136.5zM220 255q0 -76 14 -120.5t52 -44.5q39 0 50.5 43t11.5 110q0 80 -13.5 123.5t-51.5 43.5q-35 0 -49 -38t-14 -117z" />
<glyph unicode="p" horiz-adv-x="581" d="M55 -240v553q0 45 -5 83t-15 85l170 29q10 -25 17 -53q25 23 60 38t76 15q59 0 101 -32t64.5 -89t22.5 -134q0 -126 -60.5 -195.5t-176.5 -69.5q-37 0 -74 7v-60q0 -45 3.5 -87.5t10.5 -90.5l-174 -19zM277 400q-23 0 -42 -9v-306q17 -5 35 -5q48 0 69.5 41t21.5 124 q0 82 -20 118.5t-64 36.5z" />
<glyph unicode="q" horiz-adv-x="586" d="M346 -240v279q-49 -49 -119 -49q-58 0 -101 31t-67 86.5t-24 128.5q0 85 32 146.5t89 94.5t133 33q26 0 54 -4t52 -10l131 14v-573q0 -45 3.5 -87.5t10.5 -90.5l-174 -19zM220 250q0 -73 22 -116.5t63 -43.5q22 0 41 11v319h-9q-62 0 -89.5 -45.5t-27.5 -124.5z" />
<glyph unicode="r" horiz-adv-x="416" d="M235 0h-180v313q0 43 -5 82.5t-15 85.5l170 29q11 -28 18.5 -57t11.5 -63v0q20 52 47.5 86t73.5 34q32 0 50 -15l-12 -171q-16 4 -33 6t-35 2q-24 0 -48 -5t-43 -15v-312z" />
<glyph unicode="s" horiz-adv-x="452" d="M410 485l-10 -132q-40 20 -81 31t-67 11q-24 0 -38 -8.5t-14 -22.5q0 -16 16.5 -28t42 -22.5t55 -23t55 -30.5t42 -45.5t16.5 -67.5q0 -73 -59.5 -115t-160.5 -42q-51 0 -101.5 10.5t-80.5 28.5l10 129q45 -25 93.5 -39t79.5 -14q49 0 49 30q0 17 -16.5 29t-42 22.5 t-55 23t-55 31t-42 45t-16.5 65.5q0 73 61 116t162 43q32 0 73.5 -5.5t83.5 -19.5z" />
<glyph unicode="t" horiz-adv-x="419" d="M391 410l-141 4v-223q0 -40 16.5 -58t44.5 -18q20 0 39.5 6.5t38.5 17.5l10 -108q-25 -16 -63 -28.5t-85 -12.5q-85 0 -133 51t-48 149v228l-65 2v60l70 20l45 131l110 8l22 -21l-2 -118h137l12 -20z" />
<glyph unicode="u" horiz-adv-x="580" d="M55 312q0 47 -3 89.5t-11 88.5l174 20l20 -20v-299q0 -68 54 -68q25 0 51 13v364l180 10v-380q0 -29 4.5 -65t11.5 -65l-148 -10q-8 15 -15.5 33t-13.5 40h-6q-69 -73 -156 -73q-64 0 -103 39.5t-39 104.5v178z" />
<glyph unicode="v" horiz-adv-x="507" d="M502 480l-144 -480h-210l-143 495l190 15l55 -263q7 -31 13.5 -69t8.5 -68h3q3 30 10.5 68t14.5 69l54 263l138 -10z" />
<glyph unicode="w" horiz-adv-x="816" d="M121 0l-116 495l185 15l44 -253q5 -27 11 -59t8 -58h3q3 26 8.5 58t9.5 59l37 243h229l39 -243q5 -27 11 -59t8 -58h3q3 26 8.5 58t9.5 59l42 253l140 -10l10 -20l-116 -480h-230l-35 204q-7 39 -13.5 78t-9.5 78h-3q-3 -40 -9.5 -78.5t-13.5 -78.5l-35 -203h-225z" />
<glyph unicode="x" horiz-adv-x="501" d="M306 0l-81 162l-70 -162h-140l-10 20l134 230l-134 245l185 15l83 -183l73 183l140 -10l10 -20l-136 -231l136 -249h-190z" />
<glyph unicode="y" horiz-adv-x="507" d="M502 480l-125 -427q-18 -61 -41.5 -117t-59.5 -100t-92 -70t-138 -26l-25 150q78 0 133 26.5t79 83.5h-85l-143 495l190 15l55 -263q7 -31 13.5 -69t8.5 -68h3q3 30 10.5 67t14.5 70l54 263l138 -10z" />
<glyph unicode="z" horiz-adv-x="460" d="M23 355l10 145h377l20 -115l-211 -245h61q41 0 81.5 2.5t78.5 7.5l-10 -150h-390l-20 115l220 244z" />
<glyph unicode="{" horiz-adv-x="469" d="M182 122q0 48 -23 74.5t-79 33.5v100q56 7 79 33t23 75q0 30 -7.5 60.5t-15.5 60.5t-8 60q0 76 62 108.5t203 32.5l3 -100q-43 0 -66.5 -22.5t-23.5 -61.5q0 -40 12.5 -79t12.5 -78q0 -56 -35.5 -91t-90.5 -48q55 -13 90.5 -48t35.5 -91q0 -34 -12.5 -75.5t-12.5 -81.5 q0 -39 23.5 -61.5t66.5 -22.5l-3 -100q-141 0 -203 32.5t-62 108.5q0 30 8 62.5t15.5 63.5t7.5 55z" />
<glyph unicode="|" horiz-adv-x="325" d="M128 -260l-8 8v1009l77 3l8 -8v-1009z" />
<glyph unicode="}" horiz-adv-x="469" d="M389 230l-102 -108q0 -24 8 -55t15.5 -63.5t7.5 -62.5q0 -76 -62 -108.5t-203 -32.5l-3 100q43 0 66.5 22.5t23.5 61.5q0 40 -12.5 81.5t-12.5 75.5q0 56 35.5 91t90.5 48q-55 13 -90.5 48t-35.5 91q0 39 12.5 78t12.5 79q0 39 -23.5 61.5t-66.5 22.5l3 100 q141 0 203 -32.5t62 -108.5q0 -30 -7.5 -60t-15.5 -60.5t-8 -60.5q0 -49 23 -75t79 -33v-100z" />
<glyph unicode="~" d="M441 212q-14 0 -42.5 5t-62.5 12.5l-68 15t-59.5 12.5t-35.5 5q-8 0 -23 -17t-34 -40l-51 34q14 25 31.5 52.5t38.5 47t44 19.5q14 0 42 -5t62.5 -12.5t68.5 -15t59.5 -12.5t35.5 -5q8 0 23 17.5t34 39.5l51 -34q-13 -24 -31 -52t-38.5 -47.5t-44.5 -19.5z" />
<glyph unicode="&#xa1;" horiz-adv-x="350" d="M81 410q0 41 29.5 70.5t72.5 29.5q39 0 63 -24t24 -57q0 -27 -15 -49.5t-39 -36t-53 -13.5q-35 0 -58.5 22t-23.5 58zM118 268h109q6 -73 12.5 -144t12.5 -133t10.5 -109t7.5 -72l-170 -10l-20 20q2 112 12 224t26 224z" />
<glyph unicode="&#xa2;" horiz-adv-x="492" d="M248 -140l-8 8v127q-94 18 -149.5 90t-55.5 180q0 75 28.5 135t79 98t117.5 48v131l62 3l8 -8v-124q42 -3 76.5 -13.5t60.5 -27.5l-38 -134q-63 46 -119 46q-41 0 -65.5 -37.5t-24.5 -101.5q0 -79 33.5 -122t93.5 -43q24 0 47.5 7.5t52.5 21.5l10 -113q-25 -17 -61.5 -28 t-85.5 -13v-127z" />
<glyph unicode="&#xa3;" horiz-adv-x="617" d="M153 278l-116 5l13 60l107 20q5 102 36 178t92.5 117.5t154.5 41.5q60 0 105.5 -15.5t71.5 -38.5l-56 -131q-28 23 -59 39t-60 16q-47 0 -75 -47t-37 -160h178l8 -18l-19 -67h-179q-12 -73 -36.5 -131.5t-61.5 -96.5q37 -22 80 -42.5t94.5 -34.5t113.5 -14q19 0 48 2 t61 9l-40 -149q-15 -4 -35.5 -6t-37.5 -2q-61 0 -113 18.5t-96 48t-80 62t-64 61.5q-33 -13 -70 -13q-45 0 -68 17t-23 45t20.5 44.5t53.5 16.5q18 0 36 -5t36 -13q7 34 10 67.5t5 69.5l2 46v0z" />
<glyph unicode="&#xa4;" horiz-adv-x="550" d="M449 30l-69 72q-23 -15 -51 -23.5t-62 -8.5q-30 0 -55.5 6.5t-47.5 18.5l-65 -65l-64 64l63 63q-29 48 -29 106q0 67 35 120l-65 67l60 60q14 -13 31.5 -30t36.5 -37q22 13 48.5 20t57.5 7q32 0 59 -8t49 -22l70 70l64 -64l-71 -71q25 -46 25 -101q0 -58 -28 -107 q21 -22 40 -41l34 -34v-11zM269 380q-52 0 -78.5 -34t-26.5 -77q0 -26 12 -51.5t36 -41.5t58 -16q56 0 80 34t24 77q0 41 -26.5 75t-78.5 34z" />
<glyph unicode="&#xa5;" horiz-adv-x="555" d="M59 92v60h130v70h-130v60h130l-186 399l188 19l51 -140q6 -17 15.5 -45.5t19.5 -59.5t17 -58h2q11 40 25.5 82.5t24.5 70.5l58 150l138 -10l10 -19l-187 -389h130v-60h-130v-70h130v-60h-130v-92h-176v92h-130z" />
<glyph unicode="&#xa6;" horiz-adv-x="325" d="M205 348l-77 -3l-8 8v404l77 3l8 -8v-404zM205 -257l-77 -3l-8 8v400l77 3l8 -8v-400z" />
<glyph unicode="&#xa7;" horiz-adv-x="583" d="M366 560q-31 0 -45.5 -15t-14.5 -33q0 -26 24 -60t59.5 -76t70.5 -90.5t59 -103t24 -113.5q0 -68 -36.5 -122.5t-103.5 -86t-158 -31.5q-44 0 -89.5 7.5t-72.5 17.5l20 155q28 -19 59 -29.5t55 -10.5q31 0 45.5 15t14.5 33q0 26 -24 60t-59 76t-70.5 90.5t-59.5 103 t-24 113.5q0 69 36.5 123t103.5 85.5t158 31.5q44 0 89.5 -7t72.5 -18l-20 -155q-28 19 -59 29.5t-55 10.5zM334 -78q57 17 89 56t32 92q0 47 -24 93t-59 90t-70.5 87.5t-59.5 86.5t-24 86q0 26 9.5 48t28.5 35l-7 11q-57 -17 -89 -56t-32 -92q0 -47 24 -93t59.5 -90 t70.5 -87.5t59 -86.5t24 -86q0 -25 -9.5 -47t-28.5 -36z" />
<glyph unicode="&#xa8;" horiz-adv-x="519" d="M235 676q0 -42 -30 -72t-73 -30q-40 0 -63.5 24.5t-23.5 58.5q0 28 15 51t39.5 37t52.5 14q36 0 59.5 -22.5t23.5 -60.5zM474 676q0 -42 -30 -72t-73 -30q-40 0 -63.5 24.5t-23.5 58.5q0 28 15 51t39.5 37t52.5 14q36 0 59.5 -22.5t23.5 -60.5z" />
<glyph unicode="&#xa9;" horiz-adv-x="680" d="M340 -50q-85 0 -153 39.5t-107.5 107.5t-39.5 153q0 62 23.5 116.5t64.5 95.5t95.5 64.5t116.5 23.5q64 0 118.5 -23.5t95.5 -64.5t63.5 -95.5t22.5 -116.5t-23.5 -116.5t-64.5 -95.5t-95.5 -64.5t-116.5 -23.5zM340 0q69 0 126 34t90.5 91t33.5 125q0 69 -33.5 126 t-90.5 90.5t-126 33.5q-68 0 -125 -33.5t-91 -90.5t-34 -126q0 -71 33 -127.5t89.5 -89.5t127.5 -33zM474 394l-26 -89q-42 30 -81 30q-27 0 -43 -20t-16 -54q0 -43 23 -67t63 -24q27 0 66 18l7 -75q-18 -11 -44.5 -18.5t-63.5 -7.5q-80 0 -128.5 45.5t-48.5 118.5 q0 50 23 88t64 60t94 22q35 0 62.5 -7.5t48.5 -19.5z" />
<glyph unicode="&#xaa;" horiz-adv-x="440" d="M252 335q-17 -24 -48.5 -38.5t-69.5 -14.5q-46 0 -78 23.5t-32 72.5q0 66 60.5 96t156.5 32v20q0 57 -65 57q-62 0 -124 -30l-8 108q31 10 78 18.5t93 8.5q176 0 176 -148q0 -41 -2 -74t-2 -75q0 -26 5 -54.5t12 -46.5l-123 -8q-8 13 -13.5 26.5t-10.5 26.5h-5zM170 404 q0 -19 11 -30.5t30 -11.5q17 0 30 8v95q-30 -3 -50.5 -18.5t-20.5 -42.5z" />
<glyph unicode="&#xab;" horiz-adv-x="514" d="M37 269v48q46 37 88.5 82.5t84.5 100.5l46 -18q-12 -53 -35 -100.5t-51 -88.5q28 -41 51 -88.5t35 -100.5l-46 -18q-42 56 -84.5 101t-88.5 82zM256 269v48q46 37 88.5 82.5t84.5 100.5l46 -18q-12 -53 -35 -100.5t-51 -88.5q28 -41 51 -88.5t35 -100.5l-46 -18 q-42 56 -84.5 101t-88.5 82z" />
<glyph unicode="&#xac;" d="M525 339v-253h-90v171h-370v85q31 1 76 1.5t96.5 1.5t104 1.5t98 0.5h77.5z" />
<glyph unicode="&#xae;" horiz-adv-x="680" d="M340 -50q-85 0 -153 39.5t-107.5 107.5t-39.5 153q0 62 23.5 116.5t64.5 95.5t95.5 64.5t116.5 23.5q64 0 118.5 -23.5t95.5 -64.5t63.5 -95.5t22.5 -116.5t-23.5 -116.5t-64.5 -95.5t-95.5 -64.5t-116.5 -23.5zM340 0q69 0 126 34t90.5 91t33.5 125q0 69 -33.5 126 t-90.5 90.5t-126 33.5q-68 0 -125 -33.5t-91 -90.5t-34 -126q0 -71 33 -127.5t89.5 -89.5t127.5 -33zM314 92h-101v210q0 26 -1 56.5t-9 62.5h116q86 0 131 -31t45 -90q0 -37 -18 -62.5t-43 -39.5l63 -106l-105 -5q-11 19 -21.5 40.5t-20.5 42.5l-2 -1h-34v-77zM326 336h-12 v-82h12q63 0 63 41q0 18 -15 29.5t-48 11.5z" />
<glyph unicode="&#xaf;" horiz-adv-x="410" d="M45 618v96h298v-96h-298z" />
<glyph unicode="&#xb0;" horiz-adv-x="345" d="M169 295q-55 0 -89.5 34t-34.5 89q0 59 37 95.5t95 36.5q54 0 88.5 -34t34.5 -88q0 -58 -36.5 -95.5t-94.5 -37.5zM173 500q-34 0 -53.5 -23t-19.5 -57q0 -32 20.5 -53.5t51.5 -21.5q33 0 53 23.5t20 57.5q0 32 -19.5 53t-52.5 21z" />
<glyph unicode="&#xb1;" d="M510 398h-155v-143h-88l-1 143h-166v85q29 1 73 2t93 1l-1 139h90v-138q95 1 157 1l8 -8zM530 75h-450v85q31 1 76 1.5t96.5 1.5t104 1.5t98 0.5h77.5l8 -8z" />
<glyph unicode="&#xb2;" horiz-adv-x="389" d="M55 352l-15 83q16 7 43.5 26t55.5 45.5t47.5 56.5t19.5 59q0 23 -13 39.5t-39 16.5q-20 0 -47.5 -11t-53.5 -30l-12 96q24 11 63.5 22t82.5 11q69 0 113 -32t44 -83q0 -40 -26 -79t-67 -72t-84 -54h62q54 0 105 6l-7 -100h-272z" />
<glyph unicode="&#xb3;" horiz-adv-x="391" d="M43 734q25 12 65 22t78 10q62 0 102 -26.5t40 -66.5q0 -31 -23.5 -59t-61.5 -40q49 -9 78.5 -37.5t29.5 -67.5q0 -37 -25 -65t-69 -44t-102 -16q-25 0 -57 3.5t-58 10.5l12 80q18 -6 47.5 -10t48.5 -4q27 0 46.5 10t19.5 31q0 23 -23.5 31.5t-61.5 8.5q-13 0 -27.5 -1 t-30.5 -3v80q27 1 55 7.5t46.5 20.5t18.5 35q0 14 -10.5 24t-35.5 10q-19 0 -46.5 -7t-50.5 -18z" />
<glyph unicode="&#xb4;" horiz-adv-x="276" d="M261 766l10 -30q-62 -97 -156 -170l-70 10q17 49 31.5 99t24.5 99z" />
<glyph unicode="&#xb6;" horiz-adv-x="600" d="M228 -80q73 0 114 46t41 150v519h-70v-425h-22q-77 0 -138.5 29.5t-97 83.5t-35.5 127q0 77 38.5 130.5t104.5 81.5t147 28h183v-585q0 -82 -32.5 -144t-91.5 -96.5t-141 -34.5q-37 0 -71 7t-66 19l8 95q36 -15 66.5 -23t62.5 -8z" />
<glyph unicode="&#xb7;" horiz-adv-x="330" d="M269 270q0 -43 -30.5 -73t-75.5 -30q-46 0 -74 29.5t-28 69.5q0 29 15 52.5t40 37.5t55 14q42 0 70 -27.5t28 -72.5z" />
<glyph unicode="&#xb8;" horiz-adv-x="304" d="M264 -144q0 -35 -21.5 -58t-56 -35.5t-76 -17.5t-80.5 -5l5 60q49 3 77 17t28 37q0 17 -18 26.5t-58 9.5l-19 30l36 123h93l-30 -92q28 -3 55.5 -13t46 -29.5t18.5 -52.5z" />
<glyph unicode="&#xb9;" horiz-adv-x="306" d="M109 646h-2l-59 -4l-18 75l196 49l15 -14v-400h-134v215q0 23 0.5 42.5t1.5 36.5z" />
<glyph unicode="&#xba;" horiz-adv-x="474" d="M442 487q0 -68 -29.5 -113.5t-77.5 -68.5t-104 -23t-101.5 22.5t-71.5 66t-26 106.5q0 66 28 113t76 72.5t108 25.5q89 0 143.5 -54.5t54.5 -146.5zM186 489q0 -59 11 -93t42 -34q32 0 40.5 33.5t8.5 83.5q0 62 -10.5 95.5t-41.5 33.5q-28 0 -39 -29t-11 -90z" />
<glyph unicode="&#xbb;" horiz-adv-x="514" d="M477 269q-46 -37 -88.5 -82t-84.5 -101l-46 18q12 53 35 100.5t51 88.5q-28 41 -51 88.5t-35 100.5l46 18q42 -55 84.5 -100.5t88.5 -82.5v-48zM258 269q-46 -37 -88.5 -82t-84.5 -101l-46 18q12 53 35 100.5t51 88.5q-28 41 -51 88.5t-35 100.5l46 18 q42 -55 84.5 -100.5t88.5 -82.5v-48z" />
<glyph unicode="&#xbc;" horiz-adv-x="900" d="M139 586h-2l-59 -4l-18 75l196 49l15 -14v-400h-134v215q0 23 0.5 42.5t1.5 36.5zM660 700l-425 -710h-65l424 710h66zM468 150l151 248l148 6l15 -13v-229q28 2 53 5l-7 -93h-46v-84h-126v84h-174zM575 162v-2q5 0 23.5 0.5t56.5 0.5v40q0 23 1 57t5 62h-2z" />
<glyph unicode="&#xbd;" horiz-adv-x="911" d="M139 586h-2l-59 -4l-18 75l196 49l15 -14v-400h-134v215q0 23 0.5 42.5t1.5 36.5zM660 700l-425 -710h-65l424 710h66zM547 -10l-15 83q16 7 43.5 26t55.5 45.5t47.5 56.5t19.5 59q0 23 -13 39.5t-39 16.5q-20 0 -47.5 -11t-53.5 -30l-12 96q24 11 63.5 22t82.5 11 q69 0 113 -32t44 -83q0 -40 -26 -79t-67 -72t-84 -54h62q54 0 105 6l-7 -100h-272z" />
<glyph unicode="&#xbe;" horiz-adv-x="954" d="M73 672q25 12 65 22t78 10q62 0 102 -26.5t40 -66.5q0 -31 -23.5 -59t-61.5 -40q49 -9 78.5 -37.5t29.5 -67.5q0 -37 -25 -65t-69 -44t-102 -16q-25 0 -57 3.5t-58 10.5l12 80q18 -6 47.5 -10t48.5 -4q27 0 46.5 10t19.5 31q0 23 -23.5 31.5t-61.5 8.5q-13 0 -27.5 -1 t-30.5 -3v80q27 1 55 7.5t46.5 20.5t18.5 35q0 14 -10.5 24t-35.5 10q-19 0 -46.5 -7t-50.5 -18zM714 700l-425 -710h-65l424 710h66zM522 150l151 248l148 6l15 -13v-229q28 2 53 5l-7 -93h-46v-84h-126v84h-174zM629 162v-2q5 0 23.5 0.5t56.5 0.5v40q0 23 1 57t5 62h-2z " />
<glyph unicode="&#xbf;" horiz-adv-x="526" d="M208 410q0 41 29.5 70.5t72.5 29.5q39 0 63 -24t24 -57q0 -27 -15 -49.5t-39 -36t-53 -13.5q-35 0 -58.5 22t-23.5 58zM259 274l101 5q18 -33 18 -66q0 -31 -15 -55t-37 -43t-44 -37.5t-37 -38.5t-15 -46q0 -29 21.5 -47t56.5 -18q32 0 70 18t65 49l63 -96 q-36 -40 -93.5 -69.5t-142.5 -29.5q-71 0 -121.5 22.5t-77 61t-26.5 86.5q0 46 21 79.5t51.5 59t61 45t51.5 36.5t21 34v42z" />
<glyph unicode="&#xc0;" horiz-adv-x="650" d="M472 771q-77 1 -151.5 15t-144.5 48l-10 29l107 91q48 -38 102 -74t109 -68zM180 0h-175l166 580q9 31 16 59.5t11 50.5l224 9l30 -25l193 -674h-185l-35 130h-210zM262 305l-12 -45h140l-12 44q-22 85 -35.5 144.5t-19.5 93.5h-5q-4 -22 -12.5 -59.5t-19.5 -83.5 t-24 -94z" />
<glyph unicode="&#xc1;" horiz-adv-x="650" d="M484 863l-10 -29q-70 -34 -144.5 -48t-151.5 -15l-12 41q55 32 109 68t102 74zM180 0h-175l166 580q9 31 16 59.5t11 50.5l224 9l30 -25l193 -674h-185l-35 130h-210zM262 305l-12 -45h140l-12 44q-22 85 -35.5 144.5t-19.5 93.5h-5q-4 -22 -12.5 -59.5t-19.5 -83.5 t-24 -94z" />
<glyph unicode="&#xc2;" horiz-adv-x="650" d="M191 772l-47 40q36 32 65.5 62t56.5 59l117 10q27 -32 56.5 -64t65.5 -67l-47 -40q-37 13 -70 29t-63 31q-31 -15 -64 -31t-70 -29zM180 0h-175l166 580q9 31 16 59.5t11 50.5l224 9l30 -25l193 -674h-185l-35 130h-210zM262 305l-12 -45h140l-12 44q-22 85 -35.5 144.5 t-19.5 93.5h-5q-4 -22 -12.5 -59.5t-19.5 -83.5t-24 -94z" />
<glyph unicode="&#xc3;" horiz-adv-x="650" d="M251 943q34 0 59 -14.5t48 -28.5t49 -14q21 0 32.5 11.5t24.5 31.5l44 -7q0 -37 -11 -71.5t-34 -57t-61 -22.5q-30 0 -58.5 14t-54.5 28.5t-49 14.5q-16 0 -28.5 -10t-26.5 -33l-44 7q0 36 10 71t34 57.5t66 22.5zM180 0h-175l166 580q9 31 16 59.5t11 50.5l224 9l30 -25 l193 -674h-185l-35 130h-210zM262 305l-12 -45h140l-12 44q-22 85 -35.5 144.5t-19.5 93.5h-5q-4 -22 -12.5 -59.5t-19.5 -83.5t-24 -94z" />
<glyph unicode="&#xc4;" horiz-adv-x="650" d="M536 868q0 -39 -28.5 -65t-71.5 -26q-36 0 -58.5 21t-22.5 50q0 38 30 64.5t72 26.5q33 0 56 -19.5t23 -51.5zM295 868q0 -39 -28.5 -65t-71.5 -26q-36 0 -58.5 21t-22.5 50q0 38 30 64.5t72 26.5q33 0 56 -19.5t23 -51.5zM180 0h-175l166 580q9 31 16 59.5t11 50.5 l224 9l30 -25l193 -674h-185l-35 130h-210zM262 305l-12 -45h140l-12 44q-22 85 -35.5 144.5t-19.5 93.5h-5q-4 -22 -12.5 -59.5t-19.5 -83.5t-24 -94z" />
<glyph unicode="&#xc5;" horiz-adv-x="650" d="M452 876q0 -34 -18.5 -62t-49.5 -45t-69 -17q-53 0 -85 30t-32 71q0 34 19.5 62t52 45t70.5 17q49 0 80.5 -28t31.5 -73zM269 859q0 -21 14 -36t37 -15q25 0 43 18.5t18 43.5q0 24 -13 37.5t-34 13.5q-26 0 -45.5 -18.5t-19.5 -43.5zM180 0h-175l166 580q9 31 16 59.5 t11 50.5l224 9l30 -25l193 -674h-185l-35 130h-210zM262 305l-12 -45h140l-12 44q-22 85 -35.5 144.5t-19.5 93.5h-5q-4 -22 -12.5 -59.5t-19.5 -83.5t-24 -94z" />
<glyph unicode="&#xc6;" horiz-adv-x="909" d="M180 0h-175l242 580q13 31 25 59.5t19 50.5h511l20 -20l-4 -120l-263 8l19 -159l220 5l-5 -127l-202 6l18 -153l279 10v-140h-449l-13 130h-191zM300 305l-18 -45h127l-4 44q-8 85 -10 144.5t-3 93.5h-5q-13 -36 -32.5 -92.5t-54.5 -144.5z" />
<glyph unicode="&#xc7;" horiz-adv-x="574" d="M491 -151q0 -35 -21.5 -58t-56 -35.5t-76 -17.5t-80.5 -5l5 60q49 3 77 17t28 37q0 17 -18 26.5t-58 9.5l-19 30l24 82q-126 20 -196 109t-70 233q0 107 44 189t121.5 128t178.5 46q57 0 103 -11t78 -29l-35 -155q-38 22 -72 33.5t-72 11.5q-71 0 -113.5 -57t-42.5 -152 q0 -94 45.5 -147.5t125.5 -53.5q44 0 81.5 11t65.5 27l21 -148q-73 -37 -173 -40l-15 -46q28 -3 55.5 -13t46 -29.5t18.5 -52.5z" />
<glyph unicode="&#xc8;" horiz-adv-x="555" d="M446 771q-77 1 -151.5 15t-144.5 48l-10 29l107 91q48 -38 102 -74t109 -68zM530 140v-140h-465v511q0 45 -1 88.5t-9 90.5h449l20 -20l-4 -120l-270 10v-161l220 5l-5 -127l-215 7v-154z" />
<glyph unicode="&#xc9;" horiz-adv-x="555" d="M458 863l-10 -29q-70 -34 -144.5 -48t-151.5 -15l-12 41q55 32 109 68t102 74zM530 140v-140h-465v511q0 45 -1 88.5t-9 90.5h449l20 -20l-4 -120l-270 10v-161l220 5l-5 -127l-215 7v-154z" />
<glyph unicode="&#xca;" horiz-adv-x="555" d="M165 772l-47 40q36 32 65.5 62t56.5 59l117 10q27 -32 56.5 -64t65.5 -67l-47 -40q-37 13 -70 29t-63 31q-31 -15 -64 -31t-70 -29zM530 140v-140h-465v511q0 45 -1 88.5t-9 90.5h449l20 -20l-4 -120l-270 10v-161l220 5l-5 -127l-215 7v-154z" />
<glyph unicode="&#xcb;" horiz-adv-x="555" d="M510 868q0 -39 -28.5 -65t-71.5 -26q-36 0 -58.5 21t-22.5 50q0 38 30 64.5t72 26.5q33 0 56 -19.5t23 -51.5zM269 868q0 -39 -28.5 -65t-71.5 -26q-36 0 -58.5 21t-22.5 50q0 38 30 64.5t72 26.5q33 0 56 -19.5t23 -51.5zM530 140v-140h-465v511q0 45 -1 88.5t-9 90.5 h449l20 -20l-4 -120l-270 10v-161l220 5l-5 -127l-215 7v-154z" />
<glyph unicode="&#xcc;" horiz-adv-x="315" d="M297 771q-77 1 -151.5 15t-144.5 48l-10 29l107 91q48 -38 102 -74t109 -68zM250 0h-185v503q0 52 -2.5 99.5t-7.5 87.5l175 10l20 -20v-680z" />
<glyph unicode="&#xcd;" horiz-adv-x="315" d="M309 863l-10 -29q-70 -34 -144.5 -48t-151.5 -15l-12 41q55 32 109 68t102 74zM250 0h-185v503q0 52 -2.5 99.5t-7.5 87.5l175 10l20 -20v-680z" />
<glyph unicode="&#xce;" horiz-adv-x="315" d="M16 772l-47 40q36 32 65.5 62t56.5 59l117 10q27 -32 56.5 -64t65.5 -67l-47 -40q-37 13 -70 29t-63 31q-31 -15 -64 -31t-70 -29zM250 0h-185v503q0 52 -2.5 99.5t-7.5 87.5l175 10l20 -20v-680z" />
<glyph unicode="&#xcf;" horiz-adv-x="315" d="M361 868q0 -39 -28.5 -65t-71.5 -26q-36 0 -58.5 21t-22.5 50q0 38 30 64.5t72 26.5q33 0 56 -19.5t23 -51.5zM120 868q0 -39 -28.5 -65t-71.5 -26q-36 0 -58.5 21t-22.5 50q0 38 30 64.5t72 26.5q33 0 56 -19.5t23 -51.5zM250 0h-185v503q0 52 -2.5 99.5t-7.5 87.5 l175 10l20 -20v-680z" />
<glyph unicode="&#xd0;" horiz-adv-x="692" d="M662 351q0 -114 -48.5 -192t-130.5 -118.5t-182 -40.5h-236v300h-65v90h65v121q0 45 -1 88.5t-9 90.5h266q108 0 184 -41t116.5 -117t40.5 -181zM386 300h-136v-170h67q59 0 92.5 28t48 76t14.5 108q0 58 -15 107.5t-50.5 80t-95.5 30.5h-61v-170h136v-90z" />
<glyph unicode="&#xd1;" horiz-adv-x="710" d="M266 943q34 0 59 -14.5t48 -28.5t49 -14q21 0 32.5 11.5t24.5 31.5l44 -7q0 -37 -11 -71.5t-34 -57t-61 -22.5q-30 0 -58.5 14t-54.5 28.5t-49 14.5q-16 0 -28.5 -10t-26.5 -33l-44 7q0 36 10 71t34 57.5t66 22.5zM384 441q55 -93 96 -195h3q-5 40 -8 71t-4 61t-1 68 q0 67 -2.5 128t-7.5 116l165 8l20 -20v-678h-175q-45 75 -79 138t-66 115q-28 47 -51.5 92t-43.5 90h-3q9 -58 11 -103.5t2 -88.5v-243h-175v511q0 45 -2.5 92t-7.5 87l185 7q44 -79 78.5 -140.5t65.5 -115.5z" />
<glyph unicode="&#xd2;" horiz-adv-x="715" d="M507 761q-77 1 -151.5 15t-144.5 48l-10 29l107 91q48 -38 102 -74t109 -68zM685 347q0 -116 -45 -195.5t-121 -120.5t-170 -41t-166 41t-112.5 118t-40.5 185q0 112 43 194t119.5 127t174.5 45q99 0 170 -44.5t109.5 -123.5t38.5 -185zM220 350q0 -60 14 -111.5 t45 -82.5t80 -31q52 0 81.5 29t42 79t12.5 112q0 61 -12.5 111t-41.5 79.5t-81 29.5q-48 0 -79 -27.5t-46 -76t-15 -111.5z" />
<glyph unicode="&#xd3;" horiz-adv-x="715" d="M519 853l-10 -29q-70 -34 -144.5 -48t-151.5 -15l-12 41q55 32 109 68t102 74zM685 347q0 -116 -45 -195.5t-121 -120.5t-170 -41t-166 41t-112.5 118t-40.5 185q0 112 43 194t119.5 127t174.5 45q99 0 170 -44.5t109.5 -123.5t38.5 -185zM220 350q0 -60 14 -111.5 t45 -82.5t80 -31q52 0 81.5 29t42 79t12.5 112q0 61 -12.5 111t-41.5 79.5t-81 29.5q-48 0 -79 -27.5t-46 -76t-15 -111.5z" />
<glyph unicode="&#xd4;" horiz-adv-x="715" d="M226 762l-47 40q36 32 65.5 62t56.5 59l117 10q27 -32 56.5 -64t65.5 -67l-47 -40q-37 13 -70 29t-63 31q-31 -15 -64 -31t-70 -29zM685 347q0 -116 -45 -195.5t-121 -120.5t-170 -41t-166 41t-112.5 118t-40.5 185q0 112 43 194t119.5 127t174.5 45q99 0 170 -44.5 t109.5 -123.5t38.5 -185zM220 350q0 -60 14 -111.5t45 -82.5t80 -31q52 0 81.5 29t42 79t12.5 112q0 61 -12.5 111t-41.5 79.5t-81 29.5q-48 0 -79 -27.5t-46 -76t-15 -111.5z" />
<glyph unicode="&#xd5;" horiz-adv-x="715" d="M286 933q34 0 59 -14.5t48 -28.5t49 -14q21 0 32.5 11.5t24.5 31.5l44 -7q0 -37 -11 -71.5t-34 -57t-61 -22.5q-30 0 -58.5 14t-54.5 28.5t-49 14.5q-16 0 -28.5 -10t-26.5 -33l-44 7q0 36 10 71t34 57.5t66 22.5zM685 347q0 -116 -45 -195.5t-121 -120.5t-170 -41 t-166 41t-112.5 118t-40.5 185q0 112 43 194t119.5 127t174.5 45q99 0 170 -44.5t109.5 -123.5t38.5 -185zM220 350q0 -60 14 -111.5t45 -82.5t80 -31q52 0 81.5 29t42 79t12.5 112q0 61 -12.5 111t-41.5 79.5t-81 29.5q-48 0 -79 -27.5t-46 -76t-15 -111.5z" />
<glyph unicode="&#xd6;" horiz-adv-x="715" d="M571 858q0 -39 -28.5 -65t-71.5 -26q-36 0 -58.5 21t-22.5 50q0 38 30 64.5t72 26.5q33 0 56 -19.5t23 -51.5zM330 858q0 -39 -28.5 -65t-71.5 -26q-36 0 -58.5 21t-22.5 50q0 38 30 64.5t72 26.5q33 0 56 -19.5t23 -51.5zM685 347q0 -116 -45 -195.5t-121 -120.5 t-170 -41t-166 41t-112.5 118t-40.5 185q0 112 43 194t119.5 127t174.5 45q99 0 170 -44.5t109.5 -123.5t38.5 -185zM220 350q0 -60 14 -111.5t45 -82.5t80 -31q52 0 81.5 29t42 79t12.5 112q0 61 -12.5 111t-41.5 79.5t-81 29.5q-48 0 -79 -27.5t-46 -76t-15 -111.5z" />
<glyph unicode="&#xd7;" d="M459 130l-148 152l-152 -152l-64 64l153 153l-149 153l60 60q27 -26 67 -66t84 -85l151 151l64 -64l-151 -151q44 -45 84 -85.5t67 -67.5v-11z" />
<glyph unicode="&#xd8;" horiz-adv-x="715" d="M685 347q0 -116 -45 -195.5t-121 -120.5t-170 -41q-117 0 -198 63l-59 -68l-65 56l64 74q-29 42 -45 97t-16 122q0 112 43 194t119.5 127t174.5 45q55 0 101.5 -14t83.5 -41l52 60l66 -55l-56 -65q71 -93 71 -238zM220 350q0 -43 7 -79l222 255q-16 19 -38 29t-51 10 q-48 0 -79 -27.5t-46 -76t-15 -111.5zM495 345q0 25 -2 49t-6 45l-227 -260q17 -25 41.5 -39.5t57.5 -14.5q52 0 81.5 29t42 79t12.5 112z" />
<glyph unicode="&#xd9;" horiz-adv-x="680" d="M487 761q-77 1 -151.5 15t-144.5 48l-10 29l107 91q48 -38 102 -74t109 -68zM55 503q0 47 -2 92.5t-8 94.5l175 10l20 -20v-424q0 -127 106 -127q104 0 104 127v287q0 44 -2.5 78t-7.5 69l185 8v-458q0 -83 -39.5 -139t-105 -83.5t-144.5 -27.5t-142.5 28t-101 83.5 t-37.5 138.5v263z" />
<glyph unicode="&#xda;" horiz-adv-x="680" d="M499 853l-10 -29q-70 -34 -144.5 -48t-151.5 -15l-12 41q55 32 109 68t102 74zM55 503q0 47 -2 92.5t-8 94.5l175 10l20 -20v-424q0 -127 106 -127q104 0 104 127v287q0 44 -2.5 78t-7.5 69l185 8v-458q0 -83 -39.5 -139t-105 -83.5t-144.5 -27.5t-142.5 28t-101 83.5 t-37.5 138.5v263z" />
<glyph unicode="&#xdb;" horiz-adv-x="680" d="M206 762l-47 40q36 32 65.5 62t56.5 59l117 10q27 -32 56.5 -64t65.5 -67l-47 -40q-37 13 -70 29t-63 31q-31 -15 -64 -31t-70 -29zM55 503q0 47 -2 92.5t-8 94.5l175 10l20 -20v-424q0 -127 106 -127q104 0 104 127v287q0 44 -2.5 78t-7.5 69l185 8v-458 q0 -83 -39.5 -139t-105 -83.5t-144.5 -27.5t-142.5 28t-101 83.5t-37.5 138.5v263z" />
<glyph unicode="&#xdc;" horiz-adv-x="680" d="M551 858q0 -39 -28.5 -65t-71.5 -26q-36 0 -58.5 21t-22.5 50q0 38 30 64.5t72 26.5q33 0 56 -19.5t23 -51.5zM310 858q0 -39 -28.5 -65t-71.5 -26q-36 0 -58.5 21t-22.5 50q0 38 30 64.5t72 26.5q33 0 56 -19.5t23 -51.5zM55 503q0 47 -2 92.5t-8 94.5l175 10l20 -20 v-424q0 -127 106 -127q104 0 104 127v287q0 44 -2.5 78t-7.5 69l185 8v-458q0 -83 -39.5 -139t-105 -83.5t-144.5 -27.5t-142.5 28t-101 83.5t-37.5 138.5v263z" />
<glyph unicode="&#xdd;" horiz-adv-x="584" d="M474 853l-10 -29q-70 -34 -144.5 -48t-151.5 -15l-12 41q55 32 109 68t102 74zM199 216l-196 465l198 19l61 -194q12 -37 26 -81t21 -70h3q6 18 15 44t18.5 54.5t16.5 50.5l61 196l148 -10l10 -19l-197 -455v-216h-185v216z" />
<glyph unicode="&#xde;" horiz-adv-x="607" d="M250 0h-185v511q0 45 -1 88.5t-9 90.5h195v-93h79q82 0 140.5 -29.5t90.5 -82.5t32 -125q0 -79 -37.5 -134t-101.5 -83.5t-143 -28.5h-60v-114zM288 467h-38v-223h38q65 0 89.5 30t24.5 79q0 50 -25 82t-89 32z" />
<glyph unicode="&#xdf;" horiz-adv-x="690" d="M85 415l-70 5v60l70 20v7q0 123 70 188t195 65q109 0 171.5 -47t62.5 -124q0 -54 -30 -95t-75 -65q82 -28 129 -87.5t47 -142.5q0 -61 -26.5 -108.5t-76 -74t-119.5 -26.5q-34 0 -66.5 5.5t-46.5 11.5v110q43 -17 78 -17q47 0 67 30.5t20 68.5q0 52 -37 102t-123 79v74 q39 21 66.5 51t27.5 74q0 31 -17 56t-57 25q-41 0 -60.5 -30.5t-19.5 -88.5v-541h-180v415z" />
<glyph unicode="&#xe0;" horiz-adv-x="526" d="M302 566q-94 73 -156 170l10 30l160 8q10 -49 24.5 -99t31.5 -99zM304 58q-21 -31 -59.5 -49.5t-85.5 -18.5q-57 0 -95.5 30.5t-38.5 92.5q0 56 34 91.5t93.5 53t137.5 19.5v28q0 75 -80 75q-36 0 -76 -10.5t-75 -29.5l-10 135q38 13 95.5 24t112.5 11q213 0 213 -187 q0 -53 -2.5 -96.5t-2.5 -96.5q0 -34 6.5 -70t14.5 -60l-148 -10q-10 16 -17 33.5t-12 34.5h-5zM200 145q0 -25 14 -40t37 -15q21 0 39 12v123q-38 -4 -64 -24t-26 -56z" />
<glyph unicode="&#xe1;" horiz-adv-x="526" d="M362 766l10 -30q-62 -97 -156 -170l-70 10q17 49 31.5 99t24.5 99zM304 58q-21 -31 -59.5 -49.5t-85.5 -18.5q-57 0 -95.5 30.5t-38.5 92.5q0 56 34 91.5t93.5 53t137.5 19.5v28q0 75 -80 75q-36 0 -76 -10.5t-75 -29.5l-10 135q38 13 95.5 24t112.5 11q213 0 213 -187 q0 -53 -2.5 -96.5t-2.5 -96.5q0 -34 6.5 -70t14.5 -60l-148 -10q-10 16 -17 33.5t-12 34.5h-5zM200 145q0 -25 14 -40t37 -15q21 0 39 12v123q-38 -4 -64 -24t-26 -56z" />
<glyph unicode="&#xe2;" horiz-adv-x="526" d="M149 552l-57 40q34 43 62 83.5t53 80.5l117 10q26 -43 53.5 -85.5t61.5 -88.5l-57 -40q-32 20 -61 44.5t-56 48.5q-26 -24 -55 -48.5t-61 -44.5zM304 58q-21 -31 -59.5 -49.5t-85.5 -18.5q-57 0 -95.5 30.5t-38.5 92.5q0 56 34 91.5t93.5 53t137.5 19.5v28q0 75 -80 75 q-36 0 -76 -10.5t-75 -29.5l-10 135q38 13 95.5 24t112.5 11q213 0 213 -187q0 -53 -2.5 -96.5t-2.5 -96.5q0 -34 6.5 -70t14.5 -60l-148 -10q-10 16 -17 33.5t-12 34.5h-5zM200 145q0 -25 14 -40t37 -15q21 0 39 12v123q-38 -4 -64 -24t-26 -56z" />
<glyph unicode="&#xe3;" horiz-adv-x="526" d="M183 762q34 0 60.5 -14.5t50.5 -28.5t49 -14q20 0 30.5 11.5t21.5 31.5l49 -7q0 -42 -11 -81t-34 -64.5t-61 -25.5q-30 0 -60 14t-57 28.5t-49 14.5q-14 0 -26 -10t-24 -33l-48 7q0 41 10 80.5t34 65t65 25.5zM304 58q-21 -31 -59.5 -49.5t-85.5 -18.5q-57 0 -95.5 30.5 t-38.5 92.5q0 56 34 91.5t93.5 53t137.5 19.5v28q0 75 -80 75q-36 0 -76 -10.5t-75 -29.5l-10 135q38 13 95.5 24t112.5 11q213 0 213 -187q0 -53 -2.5 -96.5t-2.5 -96.5q0 -34 6.5 -70t14.5 -60l-148 -10q-10 16 -17 33.5t-12 34.5h-5zM200 145q0 -25 14 -40t37 -15 q21 0 39 12v123q-38 -4 -64 -24t-26 -56z" />
<glyph unicode="&#xe4;" horiz-adv-x="526" d="M234 676q0 -42 -30 -72t-73 -30q-40 0 -63.5 24.5t-23.5 58.5q0 28 15 51t39.5 37t52.5 14q36 0 59.5 -22.5t23.5 -60.5zM473 676q0 -42 -30 -72t-73 -30q-40 0 -63.5 24.5t-23.5 58.5q0 28 15 51t39.5 37t52.5 14q36 0 59.5 -22.5t23.5 -60.5zM304 58 q-21 -31 -59.5 -49.5t-85.5 -18.5q-57 0 -95.5 30.5t-38.5 92.5q0 56 34 91.5t93.5 53t137.5 19.5v28q0 75 -80 75q-36 0 -76 -10.5t-75 -29.5l-10 135q38 13 95.5 24t112.5 11q213 0 213 -187q0 -53 -2.5 -96.5t-2.5 -96.5q0 -34 6.5 -70t14.5 -60l-148 -10 q-10 16 -17 33.5t-12 34.5h-5zM200 145q0 -25 14 -40t37 -15q21 0 39 12v123q-38 -4 -64 -24t-26 -56z" />
<glyph unicode="&#xe5;" horiz-adv-x="526" d="M403 691q0 -34 -18.5 -62t-49.5 -45t-69 -17q-53 0 -85 30t-32 71q0 34 19.5 62t52 45t70.5 17q49 0 80.5 -28t31.5 -73zM220 674q0 -21 14 -36t37 -15q25 0 43 18.5t18 43.5q0 24 -13 37.5t-34 13.5q-26 0 -45.5 -18.5t-19.5 -43.5zM304 58q-21 -31 -59.5 -49.5 t-85.5 -18.5q-57 0 -95.5 30.5t-38.5 92.5q0 56 34 91.5t93.5 53t137.5 19.5v28q0 75 -80 75q-36 0 -76 -10.5t-75 -29.5l-10 135q38 13 95.5 24t112.5 11q213 0 213 -187q0 -53 -2.5 -96.5t-2.5 -96.5q0 -34 6.5 -70t14.5 -60l-148 -10q-10 16 -17 33.5t-12 34.5h-5z M200 145q0 -25 14 -40t37 -15q21 0 39 12v123q-38 -4 -64 -24t-26 -56z" />
<glyph unicode="&#xe6;" horiz-adv-x="790" d="M759 245l-15 -15h-266q11 -62 46.5 -88.5t89.5 -26.5q34 0 63.5 8t53.5 21l10 -113q-24 -15 -69 -28t-106 -13q-76 0 -135 24.5t-94 71.5q-29 -44 -75.5 -70t-102.5 -26q-57 0 -95.5 30.5t-38.5 92.5q0 56 34 91.5t93.5 53t137.5 19.5v28q0 10 -3.5 28t-21 32.5 t-59.5 14.5q-34 0 -74.5 -11.5t-72.5 -28.5l-10 135q38 13 95 24t115 11q97 0 147 -38q62 38 139 38q67 0 115 -27.5t74 -76t26 -110.5v-24.5t-1 -26.5zM538 410q-33 0 -48.5 -36.5t-15.5 -86.5l109 6q1 7 1.5 15t0.5 17q0 36 -10.5 60.5t-36.5 24.5zM200 145q0 -25 14 -40 t37 -15q34 0 62 34q-21 45 -24 101q-37 -5 -63 -24.5t-26 -55.5z" />
<glyph unicode="&#xe7;" horiz-adv-x="492" d="M427 -151q0 -35 -21.5 -58t-56 -35.5t-76 -17.5t-80.5 -5l5 60q49 3 77 17t28 37q0 17 -18 26.5t-58 9.5l-19 30l24 83q-90 19 -143.5 85t-53.5 164q0 78 34.5 137.5t94.5 93.5t138 34q51 0 92.5 -11t72.5 -31l-38 -134q-63 46 -119 46q-41 0 -65.5 -32.5t-24.5 -87.5 q0 -69 33.5 -107t93.5 -38q24 0 47.5 7.5t52.5 21.5l10 -113q-24 -16 -57 -27t-78 -13l-15 -47q28 -3 55.5 -13t46 -29.5t18.5 -52.5z" />
<glyph unicode="&#xe8;" horiz-adv-x="536" d="M311 566q-94 73 -156 170l10 30l160 8q10 -49 24.5 -99t31.5 -99zM505 245l-15 -15h-266q11 -62 46.5 -88.5t89.5 -26.5q34 0 63.5 8t53.5 21l10 -113q-24 -15 -69 -28t-108 -13q-82 0 -144 29t-96.5 85.5t-34.5 137.5q0 80 33.5 140.5t91.5 94t131 33.5q67 0 115 -27.5 t74 -76t26 -110.5v-24.5t-1 -26.5zM284 410q-33 0 -48.5 -36.5t-15.5 -86.5l109 6q1 7 1.5 15t0.5 21q0 32 -10.5 56.5t-36.5 24.5z" />
<glyph unicode="&#xe9;" horiz-adv-x="536" d="M371 766l10 -30q-62 -97 -156 -170l-70 10q17 49 31.5 99t24.5 99zM505 245l-15 -15h-266q11 -62 46.5 -88.5t89.5 -26.5q34 0 63.5 8t53.5 21l10 -113q-24 -15 -69 -28t-108 -13q-82 0 -144 29t-96.5 85.5t-34.5 137.5q0 80 33.5 140.5t91.5 94t131 33.5q67 0 115 -27.5 t74 -76t26 -110.5v-24.5t-1 -26.5zM284 410q-33 0 -48.5 -36.5t-15.5 -86.5l109 6q1 7 1.5 15t0.5 21q0 32 -10.5 56.5t-36.5 24.5z" />
<glyph unicode="&#xea;" horiz-adv-x="536" d="M158 552l-57 40q34 43 62 83.5t53 80.5l117 10q26 -43 53.5 -85.5t61.5 -88.5l-57 -40q-32 20 -61 44.5t-56 48.5q-26 -24 -55 -48.5t-61 -44.5zM505 245l-15 -15h-266q11 -62 46.5 -88.5t89.5 -26.5q34 0 63.5 8t53.5 21l10 -113q-24 -15 -69 -28t-108 -13 q-82 0 -144 29t-96.5 85.5t-34.5 137.5q0 80 33.5 140.5t91.5 94t131 33.5q67 0 115 -27.5t74 -76t26 -110.5v-24.5t-1 -26.5zM284 410q-33 0 -48.5 -36.5t-15.5 -86.5l109 6q1 7 1.5 15t0.5 21q0 32 -10.5 56.5t-36.5 24.5z" />
<glyph unicode="&#xeb;" horiz-adv-x="536" d="M243 676q0 -42 -30 -72t-73 -30q-40 0 -63.5 24.5t-23.5 58.5q0 28 15 51t39.5 37t52.5 14q36 0 59.5 -22.5t23.5 -60.5zM482 676q0 -42 -30 -72t-73 -30q-40 0 -63.5 24.5t-23.5 58.5q0 28 15 51t39.5 37t52.5 14q36 0 59.5 -22.5t23.5 -60.5zM505 245l-15 -15h-266 q11 -62 46.5 -88.5t89.5 -26.5q34 0 63.5 8t53.5 21l10 -113q-24 -15 -69 -28t-108 -13q-82 0 -144 29t-96.5 85.5t-34.5 137.5q0 80 33.5 140.5t91.5 94t131 33.5q67 0 115 -27.5t74 -76t26 -110.5v-24.5t-1 -26.5zM284 410q-33 0 -48.5 -36.5t-15.5 -86.5l109 6 q1 7 1.5 15t0.5 21q0 32 -10.5 56.5t-36.5 24.5z" />
<glyph unicode="&#xec;" horiz-adv-x="295" d="M191 566q-94 73 -156 170l10 30l160 8q10 -49 24.5 -99t31.5 -99zM55 0v313q0 45 -3.5 87.5t-11.5 90.5l175 19l20 -20v-490h-180z" />
<glyph unicode="&#xed;" horiz-adv-x="295" d="M251 766l10 -30q-62 -97 -156 -170l-70 10q17 49 31.5 99t24.5 99zM55 0v313q0 45 -3.5 87.5t-11.5 90.5l175 19l20 -20v-490h-180z" />
<glyph unicode="&#xee;" horiz-adv-x="295" d="M71 561l-64 24q17 44 31 88t26 88l167 10q12 -47 26 -93t31 -93l-64 -24q-22 22 -41 47t-35 53q-17 -28 -36 -53t-41 -47zM55 0v313q0 45 -3.5 87.5t-11.5 90.5l175 19l20 -20v-490h-180z" />
<glyph unicode="&#xef;" horiz-adv-x="295" d="M137 677q0 -42 -27 -72t-65 -30q-36 0 -58 24.5t-22 58.5q0 28 14 51t36.5 37t47.5 14q32 0 53 -22.5t21 -60.5zM330 677q0 -42 -27.5 -72t-65.5 -30q-35 0 -56 24.5t-21 58.5q0 41 28.5 71.5t66.5 30.5q32 0 53.5 -22.5t21.5 -60.5zM55 0v313q0 45 -3.5 87.5t-11.5 90.5 l175 19l20 -20v-490h-180z" />
<glyph unicode="&#xf0;" horiz-adv-x="597" d="M295 -10q-68 0 -123.5 29.5t-88.5 86.5t-33 139q0 106 55 166.5t146 60.5q32 0 59 -8.5t48 -26.5q-12 36 -30.5 66.5t-41.5 56.5l-79 -52l-46 71l62 41q-15 12 -30.5 22.5t-31.5 20.5l58 97q65 -25 120 -63l96 63l47 -71l-74 -49q70 -68 109.5 -158t39.5 -195 q0 -102 -36 -167.5t-95.5 -97.5t-130.5 -32zM303 363q-31 0 -49.5 -29.5t-18.5 -97.5q0 -56 15.5 -91t52.5 -35t52.5 35t15.5 91q0 68 -18.5 97.5t-49.5 29.5z" />
<glyph unicode="&#xf1;" horiz-adv-x="585" d="M210 762q34 0 60.5 -14.5t50.5 -28.5t49 -14q20 0 30.5 11.5t21.5 31.5l49 -7q0 -42 -11 -81t-34 -64.5t-61 -25.5q-30 0 -60 14t-57 28.5t-49 14.5q-14 0 -26 -10t-24 -33l-48 7q0 41 10 80.5t34 65t65 25.5zM235 0h-180v313q0 43 -5 82.5t-15 85.5l170 29 q6 -17 12 -34.5t10 -35.5q74 70 158 70q65 0 102.5 -43t37.5 -117v-350h-180v317q0 73 -57 73q-25 0 -53 -16v-374z" />
<glyph unicode="&#xf2;" horiz-adv-x="568" d="M327 566q-94 73 -156 170l10 30l160 8q10 -49 24.5 -99t31.5 -99zM533 253q0 -87 -35.5 -145.5t-94 -88t-126.5 -29.5t-123 28.5t-87 84.5t-32 137q0 84 34 144.5t92.5 93t130.5 32.5t126.5 -31.5t84.5 -89t30 -136.5zM220 255q0 -76 14 -120.5t52 -44.5q39 0 50.5 43 t11.5 110q0 80 -13.5 123.5t-51.5 43.5q-35 0 -49 -38t-14 -117z" />
<glyph unicode="&#xf3;" horiz-adv-x="568" d="M387 766l10 -30q-62 -97 -156 -170l-70 10q17 49 31.5 99t24.5 99zM533 253q0 -87 -35.5 -145.5t-94 -88t-126.5 -29.5t-123 28.5t-87 84.5t-32 137q0 84 34 144.5t92.5 93t130.5 32.5t126.5 -31.5t84.5 -89t30 -136.5zM220 255q0 -76 14 -120.5t52 -44.5q39 0 50.5 43 t11.5 110q0 80 -13.5 123.5t-51.5 43.5q-35 0 -49 -38t-14 -117z" />
<glyph unicode="&#xf4;" horiz-adv-x="568" d="M174 552l-57 40q34 43 62 83.5t53 80.5l117 10q26 -43 53.5 -85.5t61.5 -88.5l-57 -40q-32 20 -61 44.5t-56 48.5q-26 -24 -55 -48.5t-61 -44.5zM533 253q0 -87 -35.5 -145.5t-94 -88t-126.5 -29.5t-123 28.5t-87 84.5t-32 137q0 84 34 144.5t92.5 93t130.5 32.5 t126.5 -31.5t84.5 -89t30 -136.5zM220 255q0 -76 14 -120.5t52 -44.5q39 0 50.5 43t11.5 110q0 80 -13.5 123.5t-51.5 43.5q-35 0 -49 -38t-14 -117z" />
<glyph unicode="&#xf5;" horiz-adv-x="568" d="M208 762q34 0 60.5 -14.5t50.5 -28.5t49 -14q20 0 30.5 11.5t21.5 31.5l49 -7q0 -42 -11 -81t-34 -64.5t-61 -25.5q-30 0 -60 14t-57 28.5t-49 14.5q-14 0 -26 -10t-24 -33l-48 7q0 41 10 80.5t34 65t65 25.5zM533 253q0 -87 -35.5 -145.5t-94 -88t-126.5 -29.5 t-123 28.5t-87 84.5t-32 137q0 84 34 144.5t92.5 93t130.5 32.5t126.5 -31.5t84.5 -89t30 -136.5zM220 255q0 -76 14 -120.5t52 -44.5q39 0 50.5 43t11.5 110q0 80 -13.5 123.5t-51.5 43.5q-35 0 -49 -38t-14 -117z" />
<glyph unicode="&#xf6;" horiz-adv-x="568" d="M259 676q0 -42 -30 -72t-73 -30q-40 0 -63.5 24.5t-23.5 58.5q0 28 15 51t39.5 37t52.5 14q36 0 59.5 -22.5t23.5 -60.5zM498 676q0 -42 -30 -72t-73 -30q-40 0 -63.5 24.5t-23.5 58.5q0 28 15 51t39.5 37t52.5 14q36 0 59.5 -22.5t23.5 -60.5zM533 253 q0 -87 -35.5 -145.5t-94 -88t-126.5 -29.5t-123 28.5t-87 84.5t-32 137q0 84 34 144.5t92.5 93t130.5 32.5t126.5 -31.5t84.5 -89t30 -136.5zM220 255q0 -76 14 -120.5t52 -44.5q39 0 50.5 43t11.5 110q0 80 -13.5 123.5t-51.5 43.5q-35 0 -49 -38t-14 -117z" />
<glyph unicode="&#xf7;" d="M388 543q0 -37 -24.5 -62t-62.5 -25q-31 0 -50.5 20.5t-19.5 48.5q0 36 26 61.5t63 25.5q29 0 48.5 -19t19.5 -50zM530 303h-450v85q31 1 76 1.5t96.5 1.5t104 1.5t98 0.5h77.5l8 -8zM389 171q0 -37 -24.5 -62t-62.5 -25q-31 0 -50.5 20.5t-19.5 48.5q0 36 26 61.5 t63 25.5q29 0 48.5 -19t19.5 -50z" />
<glyph unicode="&#xf8;" horiz-adv-x="568" d="M533 253q0 -87 -35.5 -145.5t-94 -88t-126.5 -29.5q-83 0 -143 40l-55 -59l-59 56l57 61q-20 29 -31 67.5t-11 84.5q0 84 34 144.5t92.5 93t130.5 32.5q81 0 140 -41l56 60l60 -55l-58 -63q20 -31 31.5 -71t11.5 -87zM220 255v-1.5v-11.5l115 123q-15 45 -52 45 q-35 0 -49 -38t-14 -117zM348 243v16l-115 -123q16 -46 53 -46q39 0 50.5 43t11.5 110z" />
<glyph unicode="&#xf9;" horiz-adv-x="580" d="M335 566q-94 73 -156 170l10 30l160 8q10 -49 24.5 -99t31.5 -99zM55 312q0 47 -3 89.5t-11 88.5l174 20l20 -20v-299q0 -68 54 -68q25 0 51 13v364l180 10v-380q0 -29 4.5 -65t11.5 -65l-148 -10q-8 15 -15.5 33t-13.5 40h-6q-69 -73 -156 -73q-64 0 -103 39.5 t-39 104.5v178z" />
<glyph unicode="&#xfa;" horiz-adv-x="580" d="M395 766l10 -30q-62 -97 -156 -170l-70 10q17 49 31.5 99t24.5 99zM55 312q0 47 -3 89.5t-11 88.5l174 20l20 -20v-299q0 -68 54 -68q25 0 51 13v364l180 10v-380q0 -29 4.5 -65t11.5 -65l-148 -10q-8 15 -15.5 33t-13.5 40h-6q-69 -73 -156 -73q-64 0 -103 39.5 t-39 104.5v178z" />
<glyph unicode="&#xfb;" horiz-adv-x="580" d="M182 552l-57 40q34 43 62 83.5t53 80.5l117 10q26 -43 53.5 -85.5t61.5 -88.5l-57 -40q-32 20 -61 44.5t-56 48.5q-26 -24 -55 -48.5t-61 -44.5zM55 312q0 47 -3 89.5t-11 88.5l174 20l20 -20v-299q0 -68 54 -68q25 0 51 13v364l180 10v-380q0 -29 4.5 -65t11.5 -65 l-148 -10q-8 15 -15.5 33t-13.5 40h-6q-69 -73 -156 -73q-64 0 -103 39.5t-39 104.5v178z" />
<glyph unicode="&#xfc;" horiz-adv-x="580" d="M267 676q0 -42 -30 -72t-73 -30q-40 0 -63.5 24.5t-23.5 58.5q0 28 15 51t39.5 37t52.5 14q36 0 59.5 -22.5t23.5 -60.5zM506 676q0 -42 -30 -72t-73 -30q-40 0 -63.5 24.5t-23.5 58.5q0 28 15 51t39.5 37t52.5 14q36 0 59.5 -22.5t23.5 -60.5zM55 312q0 47 -3 89.5 t-11 88.5l174 20l20 -20v-299q0 -68 54 -68q25 0 51 13v364l180 10v-380q0 -29 4.5 -65t11.5 -65l-148 -10q-8 15 -15.5 33t-13.5 40h-6q-69 -73 -156 -73q-64 0 -103 39.5t-39 104.5v178z" />
<glyph unicode="&#xfd;" horiz-adv-x="507" d="M367 766l10 -30q-62 -97 -156 -170l-70 10q17 49 31.5 99t24.5 99zM502 480l-125 -427q-18 -61 -41.5 -117t-59.5 -100t-92 -70t-138 -26l-25 150q78 0 133 26.5t79 83.5h-85l-143 495l190 15l55 -263q7 -31 13.5 -69t8.5 -68h3q3 30 10.5 67t14.5 70l54 263l138 -10z " />
<glyph unicode="&#xfe;" horiz-adv-x="576" d="M50 563q0 47 -3.5 89.5t-11.5 88.5l175 19l20 -20v-272q24 19 55.5 30.5t67.5 11.5q59 0 101 -32t64.5 -89t22.5 -134q0 -126 -60.5 -195.5t-176.5 -69.5q-37 0 -74 7v-50q0 -45 3.5 -87.5t10.5 -90.5l-174 -19l-20 20v793zM272 400q-23 0 -42 -9v-306q17 -5 35 -5 q48 0 69.5 41t21.5 124q0 82 -20 118.5t-64 36.5z" />
<glyph unicode="&#xff;" horiz-adv-x="507" d="M239 676q0 -42 -30 -72t-73 -30q-40 0 -63.5 24.5t-23.5 58.5q0 28 15 51t39.5 37t52.5 14q36 0 59.5 -22.5t23.5 -60.5zM478 676q0 -42 -30 -72t-73 -30q-40 0 -63.5 24.5t-23.5 58.5q0 28 15 51t39.5 37t52.5 14q36 0 59.5 -22.5t23.5 -60.5zM502 480l-125 -427 q-18 -61 -41.5 -117t-59.5 -100t-92 -70t-138 -26l-25 150q78 0 133 26.5t79 83.5h-85l-143 495l190 15l55 -263q7 -31 13.5 -69t8.5 -68h3q3 30 10.5 67t14.5 70l54 263l138 -10z" />
<glyph unicode="&#x100;" horiz-adv-x="650" d="M176 809v96h298v-96h-298zM180 0h-175l166 580q9 31 16 59.5t11 50.5l224 9l30 -25l193 -674h-185l-35 130h-210zM262 305l-12 -45h140l-12 44q-22 85 -35.5 144.5t-19.5 93.5h-5q-4 -22 -12.5 -59.5t-19.5 -83.5t-24 -94z" />
<glyph unicode="&#x101;" horiz-adv-x="526" d="M110 618v96h298v-96h-298zM304 58q-21 -31 -59.5 -49.5t-85.5 -18.5q-57 0 -95.5 30.5t-38.5 92.5q0 56 34 91.5t93.5 53t137.5 19.5v28q0 75 -80 75q-36 0 -76 -10.5t-75 -29.5l-10 135q38 13 95.5 24t112.5 11q213 0 213 -187q0 -53 -2.5 -96.5t-2.5 -96.5 q0 -34 6.5 -70t14.5 -60l-148 -10q-10 16 -17 33.5t-12 34.5h-5zM200 145q0 -25 14 -40t37 -15q21 0 39 12v123q-38 -4 -64 -24t-26 -56z" />
<glyph unicode="&#x102;" horiz-adv-x="650" d="M413 933l69 9q-4 -72 -46.5 -119.5t-116.5 -47.5q-63 0 -105.5 40.5t-46.5 108.5l70 10q8 -22 32 -35.5t56 -13.5q34 0 57.5 14t30.5 34zM180 0h-175l166 580q9 31 16 59.5t11 50.5l224 9l30 -25l193 -674h-185l-35 130h-210zM262 305l-12 -45h140l-12 44 q-22 85 -35.5 144.5t-19.5 93.5h-5q-4 -22 -12.5 -59.5t-19.5 -83.5t-24 -94z" />
<glyph unicode="&#x103;" horiz-adv-x="526" d="M345 765l69 9q-2 -56 -22.5 -101t-56 -70.5t-84.5 -25.5q-63 0 -105.5 48.5t-46.5 130.5l70 10q8 -37 32 -58t56 -21q34 0 57.5 22.5t30.5 55.5zM304 58q-21 -31 -59.5 -49.5t-85.5 -18.5q-57 0 -95.5 30.5t-38.5 92.5q0 56 34 91.5t93.5 53t137.5 19.5v28q0 75 -80 75 q-36 0 -76 -10.5t-75 -29.5l-10 135q38 13 95.5 24t112.5 11q213 0 213 -187q0 -53 -2.5 -96.5t-2.5 -96.5q0 -34 6.5 -70t14.5 -60l-148 -10q-10 16 -17 33.5t-12 34.5h-5zM200 145q0 -25 14 -40t37 -15q21 0 39 12v123q-38 -4 -64 -24t-26 -56z" />
<glyph unicode="&#x104;" horiz-adv-x="650" d="M180 0h-175l166 580q9 31 16 59.5t11 50.5l224 9l30 -25l193 -674q-54 -25 -84.5 -57.5t-30.5 -63.5q0 -18 10.5 -29.5t32.5 -11.5q10 0 24 3t30 10l25 -59q-28 -25 -66 -41.5t-79 -16.5q-51 0 -85.5 29t-34.5 78q0 45 37.5 87.5t103.5 71.5h-68l-35 130h-210zM262 305 l-12 -45h140l-12 44q-22 85 -35.5 144.5t-19.5 93.5h-5q-4 -22 -12.5 -59.5t-19.5 -83.5t-24 -94z" />
<glyph unicode="&#x105;" horiz-adv-x="526" d="M304 58q-21 -31 -59.5 -49.5t-85.5 -18.5q-57 0 -95.5 30.5t-38.5 92.5q0 56 34 91.5t93.5 53t137.5 19.5v28q0 75 -80 75q-36 0 -76 -10.5t-75 -29.5l-10 135q38 13 95.5 24t112.5 11q213 0 213 -187q0 -53 -2.5 -96.5t-2.5 -96.5q0 -34 6.5 -70t14.5 -60 q-54 -25 -84.5 -57.5t-30.5 -63.5q0 -18 10.5 -29.5t32.5 -11.5q10 0 24 3t30 10l25 -59q-28 -25 -66 -41.5t-79 -16.5q-51 0 -85.5 29t-34.5 78q0 42 32.5 81.5t89.5 68.5l-12 -1q-10 16 -17 33.5t-12 34.5h-5zM200 145q0 -25 14 -40t37 -15q21 0 39 12v123q-38 -4 -64 -24 t-26 -56z" />
<glyph unicode="&#x106;" horiz-adv-x="574" d="M496 863l-10 -29q-70 -34 -144.5 -48t-151.5 -15l-12 41q55 32 109 68t102 74zM538 178l21 -148q-80 -40 -193 -40q-105 0 -180 41.5t-115.5 119.5t-40.5 186q0 107 44 189t121.5 128t178.5 46q57 0 103 -11t78 -29l-35 -155q-38 22 -72 33.5t-72 11.5q-71 0 -113.5 -57 t-42.5 -152q0 -94 45.5 -147.5t125.5 -53.5q44 0 81.5 11t65.5 27z" />
<glyph unicode="&#x107;" horiz-adv-x="492" d="M376 766l10 -30q-62 -97 -156 -170l-70 10q17 49 31.5 99t24.5 99zM467 468l-38 -134q-63 46 -119 46q-41 0 -65.5 -32.5t-24.5 -87.5q0 -69 33.5 -107t93.5 -38q24 0 47.5 7.5t52.5 21.5l10 -113q-27 -18 -66.5 -29.5t-93.5 -11.5q-79 1 -138 32.5t-91.5 89t-32.5 133.5 q0 78 34.5 137.5t94.5 93.5t138 34q51 0 92.5 -11t72.5 -31z" />
<glyph unicode="&#x108;" horiz-adv-x="574" d="M203 772l-47 40q36 32 65.5 62t56.5 59l117 10q27 -32 56.5 -64t65.5 -67l-47 -40q-37 13 -70 29t-63 31q-31 -15 -64 -31t-70 -29zM538 178l21 -148q-80 -40 -193 -40q-105 0 -180 41.5t-115.5 119.5t-40.5 186q0 107 44 189t121.5 128t178.5 46q57 0 103 -11t78 -29 l-35 -155q-38 22 -72 33.5t-72 11.5q-71 0 -113.5 -57t-42.5 -152q0 -94 45.5 -147.5t125.5 -53.5q44 0 81.5 11t65.5 27z" />
<glyph unicode="&#x109;" horiz-adv-x="492" d="M163 552l-57 40q34 43 62 83.5t53 80.5l117 10q26 -43 53.5 -85.5t61.5 -88.5l-57 -40q-32 20 -61 44.5t-56 48.5q-26 -24 -55 -48.5t-61 -44.5zM467 468l-38 -134q-63 46 -119 46q-41 0 -65.5 -32.5t-24.5 -87.5q0 -69 33.5 -107t93.5 -38q24 0 47.5 7.5t52.5 21.5 l10 -113q-27 -18 -66.5 -29.5t-93.5 -11.5q-79 1 -138 32.5t-91.5 89t-32.5 133.5q0 78 34.5 137.5t94.5 93.5t138 34q51 0 92.5 -11t72.5 -31z" />
<glyph unicode="&#x10a;" horiz-adv-x="574" d="M440 870q0 -45 -32.5 -74.5t-79.5 -29.5q-40 0 -67 24t-27 58q0 28 16 50.5t43 36.5t58 14q37 0 63 -21.5t26 -57.5zM538 178l21 -148q-80 -40 -193 -40q-105 0 -180 41.5t-115.5 119.5t-40.5 186q0 107 44 189t121.5 128t178.5 46q57 0 103 -11t78 -29l-35 -155 q-38 22 -72 33.5t-72 11.5q-71 0 -113.5 -57t-42.5 -152q0 -94 45.5 -147.5t125.5 -53.5q44 0 81.5 11t65.5 27z" />
<glyph unicode="&#x10b;" horiz-adv-x="492" d="M378 675q0 -30 -15.5 -55.5t-41 -40.5t-57.5 -15q-43 0 -69.5 26.5t-26.5 63.5q0 30 16.5 55t43.5 40t58 15q40 0 66 -24t26 -65zM467 468l-38 -134q-63 46 -119 46q-41 0 -65.5 -32.5t-24.5 -87.5q0 -69 33.5 -107t93.5 -38q24 0 47.5 7.5t52.5 21.5l10 -113 q-27 -18 -66.5 -29.5t-93.5 -11.5q-79 1 -138 32.5t-91.5 89t-32.5 133.5q0 78 34.5 137.5t94.5 93.5t138 34q51 0 92.5 -11t72.5 -31z" />
<glyph unicode="&#x10c;" horiz-adv-x="574" d="M470 947l47 -40q-36 -31 -65.5 -61.5t-56.5 -59.5l-117 -10q-27 32 -56.5 64.5t-65.5 66.5l47 40q37 -13 70 -29t63 -31q31 15 64 31t70 29zM538 178l21 -148q-80 -40 -193 -40q-105 0 -180 41.5t-115.5 119.5t-40.5 186q0 107 44 189t121.5 128t178.5 46q57 0 103 -11 t78 -29l-35 -155q-38 22 -72 33.5t-72 11.5q-71 0 -113.5 -57t-42.5 -152q0 -94 45.5 -147.5t125.5 -53.5q44 0 81.5 11t65.5 27z" />
<glyph unicode="&#x10d;" horiz-adv-x="492" d="M396 784l57 -40q-34 -43 -61.5 -83.5t-53.5 -80.5l-117 -10q-25 43 -53 85.5t-62 88.5l57 40q32 -20 61 -44.5t56 -48.5q26 24 55 48.5t61 44.5zM467 468l-38 -134q-63 46 -119 46q-41 0 -65.5 -32.5t-24.5 -87.5q0 -69 33.5 -107t93.5 -38q24 0 47.5 7.5t52.5 21.5 l10 -113q-27 -18 -66.5 -29.5t-93.5 -11.5q-79 1 -138 32.5t-91.5 89t-32.5 133.5q0 78 34.5 137.5t94.5 93.5t138 34q51 0 92.5 -11t72.5 -31z" />
<glyph unicode="&#x10e;" horiz-adv-x="692" d="M465 947l47 -40q-36 -31 -65.5 -61.5t-56.5 -59.5l-117 -10q-27 32 -56.5 64.5t-65.5 66.5l47 40q37 -13 70 -29t63 -31q31 15 64 31t70 29zM662 351q0 -114 -48.5 -192t-130.5 -118.5t-182 -40.5h-236v511q0 45 -1 88.5t-9 90.5h266q108 0 184 -41t116.5 -117t40.5 -181 zM311 560h-61v-430h67q59 0 92.5 28t48 76t14.5 108q0 58 -15 107.5t-50.5 80t-95.5 30.5z" />
<glyph unicode="&#x10f;" horiz-adv-x="587" d="M361 56q-51 -66 -135 -66q-85 0 -138 63t-53 175q0 91 35 153.5t97.5 95.5t143.5 33q18 0 35 -2v55q0 47 -3 89.5t-11 88.5l174 19l20 -20v-610q0 -31 6 -67t15 -63l-152 -10q-7 11 -14 26.5t-16 39.5h-4zM757 760l10 -30q-23 -61 -52 -113.5t-58 -96.5h-59 q6 59 12 119.5t10 120.5h137zM220 253q0 -71 22 -117t65 -46q21 0 39 11v319h-8q-61 0 -89.5 -44t-28.5 -123z" />
<glyph unicode="&#x110;" horiz-adv-x="692" d="M662 351q0 -114 -48.5 -192t-130.5 -118.5t-182 -40.5h-236v300h-65v90h65v121q0 45 -1 88.5t-9 90.5h266q108 0 184 -41t116.5 -117t40.5 -181zM386 300h-136v-170h67q59 0 92.5 28t48 76t14.5 108q0 58 -15 107.5t-50.5 80t-95.5 30.5h-61v-170h136v-90z" />
<glyph unicode="&#x111;" horiz-adv-x="587" d="M361 56q-51 -66 -135 -66q-85 0 -138 63t-53 175q0 91 35 153.5t97.5 95.5t143.5 33q18 0 35 -2v55v3h-125v90h121q-3 41 -10 85l174 19l20 -20v-84h81v-90h-81v-436q0 -31 6 -67t15 -63l-152 -10q-7 11 -14 26.5t-16 39.5h-4zM220 253q0 -71 22 -117t65 -46q21 0 39 11 v319h-8q-61 0 -89.5 -44t-28.5 -123z" />
<glyph unicode="&#x112;" horiz-adv-x="555" d="M150 809v96h298v-96h-298zM530 140v-140h-465v511q0 45 -1 88.5t-9 90.5h449l20 -20l-4 -120l-270 10v-161l220 5l-5 -127l-215 7v-154z" />
<glyph unicode="&#x113;" horiz-adv-x="536" d="M119 618v96h298v-96h-298zM505 245l-15 -15h-266q11 -62 46.5 -88.5t89.5 -26.5q34 0 63.5 8t53.5 21l10 -113q-24 -15 -69 -28t-108 -13q-82 0 -144 29t-96.5 85.5t-34.5 137.5q0 80 33.5 140.5t91.5 94t131 33.5q67 0 115 -27.5t74 -76t26 -110.5v-24.5t-1 -26.5z M284 410q-33 0 -48.5 -36.5t-15.5 -86.5l109 6q1 7 1.5 15t0.5 21q0 32 -10.5 56.5t-36.5 24.5z" />
<glyph unicode="&#x114;" horiz-adv-x="555" d="M387 933l69 9q-4 -72 -46.5 -119.5t-116.5 -47.5q-63 0 -105.5 40.5t-46.5 108.5l70 10q8 -22 32 -35.5t56 -13.5q34 0 57.5 14t30.5 34zM530 140v-140h-465v511q0 45 -1 88.5t-9 90.5h449l20 -20l-4 -120l-270 10v-161l220 5l-5 -127l-215 7v-154z" />
<glyph unicode="&#x115;" horiz-adv-x="536" d="M354 765l69 9q-2 -56 -22.5 -101t-56 -70.5t-84.5 -25.5q-63 0 -105.5 48.5t-46.5 130.5l70 10q8 -37 32 -58t56 -21q34 0 57.5 22.5t30.5 55.5zM505 245l-15 -15h-266q11 -62 46.5 -88.5t89.5 -26.5q34 0 63.5 8t53.5 21l10 -113q-24 -15 -69 -28t-108 -13 q-82 0 -144 29t-96.5 85.5t-34.5 137.5q0 80 33.5 140.5t91.5 94t131 33.5q67 0 115 -27.5t74 -76t26 -110.5v-24.5t-1 -26.5zM284 410q-33 0 -48.5 -36.5t-15.5 -86.5l109 6q1 7 1.5 15t0.5 21q0 32 -10.5 56.5t-36.5 24.5z" />
<glyph unicode="&#x116;" horiz-adv-x="555" d="M402 870q0 -45 -32.5 -74.5t-79.5 -29.5q-40 0 -67 24t-27 58q0 28 16 50.5t43 36.5t58 14q37 0 63 -21.5t26 -57.5zM530 140v-140h-465v511q0 45 -1 88.5t-9 90.5h449l20 -20l-4 -120l-270 10v-161l220 5l-5 -127l-215 7v-154z" />
<glyph unicode="&#x117;" horiz-adv-x="536" d="M373 675q0 -30 -15.5 -55.5t-41 -40.5t-57.5 -15q-43 0 -69.5 26.5t-26.5 63.5q0 30 16.5 55t43.5 40t58 15q40 0 66 -24t26 -65zM505 245l-15 -15h-266q11 -62 46.5 -88.5t89.5 -26.5q34 0 63.5 8t53.5 21l10 -113q-24 -15 -69 -28t-108 -13q-82 0 -144 29t-96.5 85.5 t-34.5 137.5q0 80 33.5 140.5t91.5 94t131 33.5q67 0 115 -27.5t74 -76t26 -110.5v-24.5t-1 -26.5zM284 410q-33 0 -48.5 -36.5t-15.5 -86.5l109 6q1 7 1.5 15t0.5 21q0 32 -10.5 56.5t-36.5 24.5z" />
<glyph unicode="&#x118;" horiz-adv-x="555" d="M530 0q-54 -25 -84.5 -57.5t-30.5 -63.5q0 -18 10.5 -29.5t32.5 -11.5q10 0 24 3t30 10l25 -59q-28 -25 -66 -41.5t-79 -16.5q-51 0 -85.5 29t-34.5 78q0 45 37.5 87.5t103.5 71.5h-348v511q0 45 -1 88.5t-9 90.5h449l20 -20l-4 -120l-270 10v-161l220 5l-5 -127l-215 7 v-154l280 10v-140z" />
<glyph unicode="&#x119;" horiz-adv-x="536" d="M505 245l-15 -15h-266q11 -62 46.5 -88.5t89.5 -26.5q34 0 63.5 8t53.5 21l10 -113q-2 -1 -4 -3q-65 -39 -101.5 -76t-36.5 -70q0 -16 10 -27t33 -11q10 0 24 3t30 10l25 -59q-28 -25 -66 -41.5t-79 -16.5q-51 0 -85.5 27.5t-34.5 73.5q0 40 34.5 77.5t96.5 72.5 q-12 -1 -23 -1q-82 0 -144 29t-96.5 85.5t-34.5 137.5q0 80 33.5 140.5t91.5 94t131 33.5q67 0 115 -27.5t74 -76t26 -110.5v-24.5t-1 -26.5zM284 410q-33 0 -48.5 -36.5t-15.5 -86.5l109 6q1 7 1.5 15t0.5 21q0 32 -10.5 56.5t-36.5 24.5z" />
<glyph unicode="&#x11a;" horiz-adv-x="555" d="M432 947l47 -40q-36 -31 -65.5 -61.5t-56.5 -59.5l-117 -10q-27 32 -56.5 64.5t-65.5 66.5l47 40q37 -13 70 -29t63 -31q31 15 64 31t70 29zM530 140v-140h-465v511q0 45 -1 88.5t-9 90.5h449l20 -20l-4 -120l-270 10v-161l220 5l-5 -127l-215 7v-154z" />
<glyph unicode="&#x11b;" horiz-adv-x="536" d="M391 784l57 -40q-34 -43 -61.5 -83.5t-53.5 -80.5l-117 -10q-25 43 -53 85.5t-62 88.5l57 40q32 -20 61 -44.5t56 -48.5q26 24 55 48.5t61 44.5zM505 245l-15 -15h-266q11 -62 46.5 -88.5t89.5 -26.5q34 0 63.5 8t53.5 21l10 -113q-24 -15 -69 -28t-108 -13 q-82 0 -144 29t-96.5 85.5t-34.5 137.5q0 80 33.5 140.5t91.5 94t131 33.5q67 0 115 -27.5t74 -76t26 -110.5v-24.5t-1 -26.5zM284 410q-33 0 -48.5 -36.5t-15.5 -86.5l109 6q1 7 1.5 15t0.5 21q0 32 -10.5 56.5t-36.5 24.5z" />
<glyph unicode="&#x11c;" horiz-adv-x="637" d="M213 772l-47 40q36 32 65.5 62t56.5 59l117 10q27 -32 56.5 -64t65.5 -67l-47 -40q-37 13 -70 29t-63 31q-31 -15 -64 -31t-70 -29zM582 333l20 -20l-3 -283q-45 -17 -101 -28.5t-118 -11.5q-114 0 -192 41.5t-118 116.5t-40 177q0 110 45 194.5t127 132.5t194 48 q56 0 107 -11.5t87 -28.5l-30 -155q-34 23 -73.5 36.5t-81.5 13.5q-82 0 -133.5 -55t-51.5 -163q0 -94 44.5 -150.5t133.5 -56.5q13 0 30 1q-1 43 -2.5 72.5t-4.5 56.5t-8 63z" />
<glyph unicode="&#x11d;" horiz-adv-x="539" d="M149 552l-57 40q34 43 62 83.5t53 80.5l117 10q26 -43 53.5 -85.5t61.5 -88.5l-57 -40q-32 20 -61 44.5t-56 48.5q-26 -24 -55 -48.5t-61 -44.5zM93 50q0 31 18 55t48 42q-57 19 -92.5 61.5t-35.5 102.5q0 54 28.5 99t81 72.5t122.5 27.5q40 0 74.5 -9.5t57.5 -25.5 q17 40 51 59t72 19l21 -18l-5 -106h-102l-2 -4q19 -14 34.5 -41.5t15.5 -68.5q0 -52 -28.5 -93.5t-79 -65.5t-118.5 -24q-15 0 -29 1q-1 -6 -1 -12q0 -22 12 -27.5t32 -7.5l96 -6q73 -4 120.5 -38.5t47.5 -102.5q0 -58 -37 -103t-103.5 -70.5t-155.5 -25.5q-107 0 -171.5 35 t-64.5 90q0 37 27.5 61.5t63.5 31.5l60 -25q-1 -3 -1 -6v-6q0 -40 29.5 -70.5t81.5 -30.5q38 0 64.5 18.5t26.5 52.5q0 56 -79 65l-87 10q-43 5 -68 26t-25 58zM310 322q0 50 -11.5 76.5t-40.5 26.5q-30 0 -43.5 -27.5t-13.5 -77.5q0 -103 56 -103q53 0 53 105z" />
<glyph unicode="&#x11e;" horiz-adv-x="637" d="M435 933l69 9q-4 -72 -46.5 -119.5t-116.5 -47.5q-63 0 -105.5 40.5t-46.5 108.5l70 10q8 -22 32 -35.5t56 -13.5q34 0 57.5 14t30.5 34zM582 333l20 -20l-3 -283q-45 -17 -101 -28.5t-118 -11.5q-114 0 -192 41.5t-118 116.5t-40 177q0 110 45 194.5t127 132.5t194 48 q56 0 107 -11.5t87 -28.5l-30 -155q-34 23 -73.5 36.5t-81.5 13.5q-82 0 -133.5 -55t-51.5 -163q0 -94 44.5 -150.5t133.5 -56.5q13 0 30 1q-1 43 -2.5 72.5t-4.5 56.5t-8 63z" />
<glyph unicode="&#x11f;" horiz-adv-x="539" d="M345 765l69 9q-2 -56 -22.5 -101t-56 -70.5t-84.5 -25.5q-63 0 -105.5 48.5t-46.5 130.5l70 10q8 -37 32 -58t56 -21q34 0 57.5 22.5t30.5 55.5zM93 50q0 31 18 55t48 42q-57 19 -92.5 61.5t-35.5 102.5q0 54 28.5 99t81 72.5t122.5 27.5q40 0 74.5 -9.5t57.5 -25.5 q17 40 51 59t72 19l21 -18l-5 -106h-102l-2 -4q19 -14 34.5 -41.5t15.5 -68.5q0 -52 -28.5 -93.5t-79 -65.5t-118.5 -24q-15 0 -29 1q-1 -6 -1 -12q0 -22 12 -27.5t32 -7.5l96 -6q73 -4 120.5 -38.5t47.5 -102.5q0 -58 -37 -103t-103.5 -70.5t-155.5 -25.5q-107 0 -171.5 35 t-64.5 90q0 37 27.5 61.5t63.5 31.5l60 -25q-1 -3 -1 -6v-6q0 -40 29.5 -70.5t81.5 -30.5q38 0 64.5 18.5t26.5 52.5q0 56 -79 65l-87 10q-43 5 -68 26t-25 58zM310 322q0 50 -11.5 76.5t-40.5 26.5q-30 0 -43.5 -27.5t-13.5 -77.5q0 -103 56 -103q53 0 53 105z" />
<glyph unicode="&#x120;" horiz-adv-x="637" d="M450 870q0 -45 -32.5 -74.5t-79.5 -29.5q-40 0 -67 24t-27 58q0 28 16 50.5t43 36.5t58 14q37 0 63 -21.5t26 -57.5zM582 333l20 -20l-3 -283q-45 -17 -101 -28.5t-118 -11.5q-114 0 -192 41.5t-118 116.5t-40 177q0 110 45 194.5t127 132.5t194 48q56 0 107 -11.5 t87 -28.5l-30 -155q-34 23 -73.5 36.5t-81.5 13.5q-82 0 -133.5 -55t-51.5 -163q0 -94 44.5 -150.5t133.5 -56.5q13 0 30 1q-1 43 -2.5 72.5t-4.5 56.5t-8 63z" />
<glyph unicode="&#x121;" horiz-adv-x="539" d="M364 675q0 -30 -15.5 -55.5t-41 -40.5t-57.5 -15q-43 0 -69.5 26.5t-26.5 63.5q0 30 16.5 55t43.5 40t58 15q40 0 66 -24t26 -65zM93 50q0 31 18 55t48 42q-57 19 -92.5 61.5t-35.5 102.5q0 54 28.5 99t81 72.5t122.5 27.5q40 0 74.5 -9.5t57.5 -25.5q17 40 51 59t72 19 l21 -18l-5 -106h-102l-2 -4q19 -14 34.5 -41.5t15.5 -68.5q0 -52 -28.5 -93.5t-79 -65.5t-118.5 -24q-15 0 -29 1q-1 -6 -1 -12q0 -22 12 -27.5t32 -7.5l96 -6q73 -4 120.5 -38.5t47.5 -102.5q0 -58 -37 -103t-103.5 -70.5t-155.5 -25.5q-107 0 -171.5 35t-64.5 90 q0 37 27.5 61.5t63.5 31.5l60 -25q-1 -3 -1 -6v-6q0 -40 29.5 -70.5t81.5 -30.5q38 0 64.5 18.5t26.5 52.5q0 56 -79 65l-87 10q-43 5 -68 26t-25 58zM310 322q0 50 -11.5 76.5t-40.5 26.5q-30 0 -43.5 -27.5t-13.5 -77.5q0 -103 56 -103q53 0 53 105z" />
<glyph unicode="&#x122;" horiz-adv-x="637" d="M582 333l20 -20l-3 -283q-45 -17 -101 -28.5t-118 -11.5q-114 0 -192 41.5t-118 116.5t-40 177q0 110 45 194.5t127 132.5t194 48q56 0 107 -11.5t87 -28.5l-30 -155q-34 23 -73.5 36.5t-81.5 13.5q-82 0 -133.5 -55t-51.5 -163q0 -94 44.5 -150.5t133.5 -56.5q13 0 30 1 q-1 43 -2.5 72.5t-4.5 56.5t-8 63zM278 -325q18 18 35 43.5t26 51.5q-26 5 -44 25.5t-18 50.5q0 35 26 61t64 26q33 0 59 -23.5t26 -71.5q0 -43 -20.5 -83t-49.5 -72t-53 -53z" />
<glyph unicode="&#x123;" horiz-adv-x="539" d="M340 829q-18 -18 -35 -43.5t-26 -51.5q26 -5 44 -25.5t18 -50.5q0 -34 -26 -60.5t-64 -26.5q-33 0 -59 23.5t-26 71.5q0 44 21 83.5t49.5 71.5t52.5 53zM93 50q0 31 18 55t48 42q-57 19 -92.5 61.5t-35.5 102.5q0 54 28.5 99t81 72.5t122.5 27.5q40 0 74.5 -9.5 t57.5 -25.5q17 40 51 59t72 19l21 -18l-5 -106h-102l-2 -4q19 -14 34.5 -41.5t15.5 -68.5q0 -52 -28.5 -93.5t-79 -65.5t-118.5 -24q-15 0 -29 1q-1 -6 -1 -12q0 -22 12 -27.5t32 -7.5l96 -6q73 -4 120.5 -38.5t47.5 -102.5q0 -58 -37 -103t-103.5 -70.5t-155.5 -25.5 q-107 0 -171.5 35t-64.5 90q0 37 27.5 61.5t63.5 31.5l60 -25q-1 -3 -1 -6v-6q0 -40 29.5 -70.5t81.5 -30.5q38 0 64.5 18.5t26.5 52.5q0 56 -79 65l-87 10q-43 5 -68 26t-25 58zM310 322q0 50 -11.5 76.5t-40.5 26.5q-30 0 -43.5 -27.5t-13.5 -77.5q0 -103 56 -103 q53 0 53 105z" />
<glyph unicode="&#x124;" horiz-adv-x="715" d="M224 772l-47 40q36 32 65.5 62t56.5 59l117 10q27 -32 56.5 -64t65.5 -67l-47 -40q-37 13 -70 29t-63 31q-31 -15 -64 -31t-70 -29zM250 0h-185v503q0 52 -2.5 99.5t-7.5 87.5l175 10l20 -20v-273h215v96q0 52 -2.5 99.5t-7.5 87.5l175 10l20 -20v-680h-185v277h-215 v-277z" />
<glyph unicode="&#x125;" horiz-adv-x="580" d="M-1 817l-47 40q36 32 65.5 62t56.5 59l117 10q27 -32 56.5 -64t65.5 -67l-47 -40q-37 13 -70 29t-63 31q-31 -15 -64 -31t-70 -29zM230 0h-180v563q0 45 -3.5 87.5t-11.5 90.5l175 19l20 -20v-293q71 63 150 63q65 0 102.5 -43t37.5 -117v-350h-180v317q0 73 -57 73 q-25 0 -53 -16v-374z" />
<glyph unicode="&#x126;" horiz-adv-x="715" d="M250 0h-185v490h-67v90h66q-3 62 -9 110l175 10l20 -20v-100h214q-3 62 -9 110l175 10l20 -20v-100h68v-90h-68v-490h-185v277h-215v-277zM250 407h215v83h-215v-83z" />
<glyph unicode="&#x127;" horiz-adv-x="580" d="M230 0h-180v562h-81v90h77q-3 43 -11 89l175 19l20 -20v-88h125v-90h-125v-115q71 63 150 63q65 0 102.5 -43t37.5 -117v-350h-180v317q0 73 -57 73q-25 0 -53 -16v-374z" />
<glyph unicode="&#x128;" horiz-adv-x="315" d="M76 943q34 0 59 -14.5t48 -28.5t49 -14q21 0 32.5 11.5t24.5 31.5l44 -7q0 -37 -11 -71.5t-34 -57t-61 -22.5q-30 0 -58.5 14t-54.5 28.5t-49 14.5q-16 0 -28.5 -10t-26.5 -33l-44 7q0 36 10 71t34 57.5t66 22.5zM250 0h-185v503q0 52 -2.5 99.5t-7.5 87.5l175 10l20 -20 v-680z" />
<glyph unicode="&#x129;" horiz-adv-x="295" d="M85 763q26 0 49 -14.5t43 -28.5t37 -14q14 0 24 10t18 33l44 -7q0 -41 -8.5 -80.5t-28 -65t-53.5 -25.5q-23 0 -48.5 14t-47 28.5t-33.5 14.5q-13 0 -23.5 -10t-18.5 -33l-44 7q0 41 8.5 80.5t28 65t53.5 25.5zM55 0v313q0 45 -3.5 87.5t-11.5 90.5l175 19l20 -20v-490 h-180z" />
<glyph unicode="&#x12a;" horiz-adv-x="315" d="M1 809v96h298v-96h-298zM250 0h-185v503q0 52 -2.5 99.5t-7.5 87.5l175 10l20 -20v-680z" />
<glyph unicode="&#x12b;" horiz-adv-x="295" d="M13 618v96h269v-96h-269zM55 0v313q0 45 -3.5 87.5t-11.5 90.5l175 19l20 -20v-490h-180z" />
<glyph unicode="&#x12c;" horiz-adv-x="315" d="M238 933l69 9q-4 -72 -46.5 -119.5t-116.5 -47.5q-63 0 -105.5 40.5t-46.5 108.5l70 10q8 -22 32 -35.5t56 -13.5q34 0 57.5 14t30.5 34zM250 0h-185v503q0 52 -2.5 99.5t-7.5 87.5l175 10l20 -20v-680z" />
<glyph unicode="&#x12d;" horiz-adv-x="295" d="M218 753l69 9q-2 -56 -20 -101t-49.5 -70.5t-75.5 -25.5q-55 0 -93 48.5t-41 130.5l70 10q3 -37 22.5 -58t47.5 -21q30 0 49 22.5t21 55.5zM55 0v313q0 45 -3.5 87.5t-11.5 90.5l175 19l20 -20v-490h-180z" />
<glyph unicode="&#x12e;" horiz-adv-x="315" d="M250 0q-34 -25 -53.5 -57t-19.5 -61q0 -44 43 -44q10 0 24 3t30 10l25 -59q-28 -25 -66 -41.5t-79 -16.5q-51 0 -85.5 29.5t-34.5 80.5q0 44 30 86t78 70h-77v503q0 52 -2.5 99.5t-7.5 87.5l175 10l20 -20v-680z" />
<glyph unicode="&#x12f;" horiz-adv-x="295" d="M253 675q0 -30 -15.5 -55.5t-41 -40.5t-57.5 -15q-43 0 -69.5 26.5t-26.5 63.5q0 30 16.5 55t43.5 40t58 15q40 0 66 -24t26 -65zM55 0v313q0 45 -3.5 87.5t-11.5 90.5l175 19l20 -20v-490q-37 -23 -57.5 -53t-20.5 -59q0 -19 12 -31.5t36 -12.5q11 0 24 3t25 10l25 -59 q-28 -25 -66 -41.5t-79 -16.5q-51 0 -85.5 27.5t-34.5 75.5q0 44 30.5 86t81.5 71h-71z" />
<glyph unicode="&#x130;" horiz-adv-x="315" d="M253 870q0 -45 -32.5 -74.5t-79.5 -29.5q-40 0 -67 24t-27 58q0 28 16 50.5t43 36.5t58 14q37 0 63 -21.5t26 -57.5zM250 0h-185v503q0 52 -2.5 99.5t-7.5 87.5l175 10l20 -20v-680z" />
<glyph unicode="&#x131;" horiz-adv-x="295" d="M55 0v313q0 45 -3.5 87.5t-11.5 90.5l175 19l20 -20v-490h-180z" />
<glyph unicode="&#x132;" horiz-adv-x="630" d="M250 0h-185v503q0 52 -2.5 99.5t-7.5 87.5l175 10l20 -20v-680zM365 -225l-57 75q39 59 55.5 130.5t16.5 159.5v363q0 45 -3.5 87.5t-11.5 90.5l181 19l19 -19v-541q0 -90 -16 -154.5t-59.5 -114t-124.5 -96.5z" />
<glyph unicode="&#x133;" horiz-adv-x="593" d="M253 675q0 -30 -15.5 -55.5t-41 -40.5t-57.5 -15q-43 0 -69.5 26.5t-26.5 63.5q0 30 16.5 55t43.5 40t58 15q40 0 66 -24t26 -65zM547 675q0 -30 -15.5 -55.5t-41 -40.5t-57.5 -15q-43 0 -69.5 26.5t-26.5 63.5q0 30 16.5 55t43.5 40t58 15q40 0 66 -24t26 -65zM55 0v313 q0 45 -3.5 87.5t-11.5 90.5l175 19l20 -20v-490h-180zM365 -260l-70 60q29 48 43.5 106.5t14.5 138.5v268q0 45 -3.5 87.5t-11.5 90.5l175 19l20 -20v-440q0 -75 -14.5 -130.5t-50.5 -98t-103 -81.5z" />
<glyph unicode="&#x134;" horiz-adv-x="315" d="M24 772l-47 40q36 32 65.5 62t56.5 59l117 10q27 -32 56.5 -64t65.5 -67l-47 -40q-37 13 -70 29t-63 31q-31 -15 -64 -31t-70 -29zM50 -225l-57 75q39 59 55.5 130.5t16.5 159.5v363q0 45 -3.5 87.5t-11.5 90.5l181 19l19 -19v-541q0 -90 -16 -154.5t-59.5 -114 t-124.5 -96.5z" />
<glyph unicode="&#x135;" horiz-adv-x="298" d="M70 561l-64 24q17 44 31 88t26 88l167 10q12 -47 26 -93t31 -93l-64 -24q-22 22 -41 47t-35 53q-17 -28 -36 -53t-41 -47zM70 -260l-70 60q29 48 43.5 106.5t14.5 138.5v268q0 45 -3.5 87.5t-11.5 90.5l175 19l20 -20v-440q0 -75 -14.5 -130.5t-50.5 -98t-103 -81.5z" />
<glyph unicode="&#x136;" horiz-adv-x="663" d="M65 503q0 47 -2 92t-8 95l175 10l20 -20v-297h60q20 45 43.5 98.5t47.5 110t45 108.5l175 -10l10 -19l-173 -308l197 -363l-214 -5q-34 59 -67.5 126t-63.5 132h-60v-253h-185v503zM245 -325q18 18 35 43.5t26 51.5q-26 5 -44 25.5t-18 50.5q0 35 26 61t64 26 q33 0 59 -23.5t26 -71.5q0 -43 -20.5 -83t-49.5 -72t-53 -53z" />
<glyph unicode="&#x137;" horiz-adv-x="559" d="M50 563q0 45 -3.5 87.5t-11.5 90.5l175 19l20 -20v-457h30q24 47 52.5 108.5t52.5 118.5l152 -10l10 -20l-118 -181q31 -68 68 -140.5t82 -158.5l-206 -10q-21 45 -44.5 99.5t-43.5 103.5h-35v-193h-180v563zM193 -325q18 18 35 43.5t26 51.5q-26 5 -44 25.5t-18 50.5 q0 35 26 61t64 26q33 0 59 -23.5t26 -71.5q0 -43 -20.5 -83t-49.5 -72t-53 -53z" />
<glyph unicode="&#x138;" horiz-adv-x="559" d="M50 313q0 45 -3.5 87.5t-11.5 90.5l175 19l20 -20v-207h30q24 47 52.5 108.5t52.5 118.5l152 -10l10 -20l-118 -181q31 -68 68 -140.5t82 -158.5l-206 -10q-21 45 -44.5 99.5t-43.5 103.5h-35v-193h-180v313z" />
<glyph unicode="&#x139;" horiz-adv-x="520" d="M386 863l-10 -29q-70 -34 -144.5 -48t-151.5 -15l-12 41q55 32 109 68t102 74zM510 140v-140h-445v503q0 52 -2.5 99.5t-7.5 87.5l175 10l20 -20v-550z" />
<glyph unicode="&#x13a;" horiz-adv-x="295" d="M307 922l-10 -29q-70 -34 -144.5 -48t-151.5 -15l-12 41q55 32 109 68t102 74zM235 0h-180v563q0 45 -3.5 87.5t-11.5 90.5l175 19l20 -20v-740z" />
<glyph unicode="&#x13b;" horiz-adv-x="520" d="M510 140v-140h-445v503q0 52 -2.5 99.5t-7.5 87.5l175 10l20 -20v-550zM207 -325q18 18 35 43.5t26 51.5q-26 5 -44 25.5t-18 50.5q0 35 26 61t64 26q33 0 59 -23.5t26 -71.5q0 -43 -20.5 -83t-49.5 -72t-53 -53z" />
<glyph unicode="&#x13c;" horiz-adv-x="295" d="M235 0h-180v563q0 45 -3.5 87.5t-11.5 90.5l175 19l20 -20v-740zM61 -325q18 18 35 43.5t26 51.5q-26 5 -44 25.5t-18 50.5q0 35 26 61t64 26q33 0 59 -23.5t26 -71.5q0 -43 -20.5 -83t-49.5 -72t-53 -53z" />
<glyph unicode="&#x13d;" horiz-adv-x="520" d="M489 786l10 -30q-23 -61 -52 -113.5t-58 -96.5h-59q6 59 12 119.5t10 120.5h137zM510 140v-140h-445v503q0 52 -2.5 99.5t-7.5 87.5l175 10l20 -20v-550z" />
<glyph unicode="&#x13e;" horiz-adv-x="295" d="M457 786l10 -30q-23 -61 -52 -113.5t-58 -96.5h-59q6 59 12 119.5t10 120.5h137zM235 0h-180v563q0 45 -3.5 87.5t-11.5 90.5l175 19l20 -20v-740z" />
<glyph unicode="&#x13f;" horiz-adv-x="520" d="M505 380q0 -43 -30.5 -73t-75.5 -30q-46 0 -74 29.5t-28 69.5q0 29 15 52.5t40 37.5t55 14q42 0 70 -27.5t28 -72.5zM510 140v-140h-445v503q0 52 -2.5 99.5t-7.5 87.5l175 10l20 -20v-550z" />
<glyph unicode="&#x140;" horiz-adv-x="562" d="M235 0h-180v563q0 45 -3.5 87.5t-11.5 90.5l175 19l20 -20v-740zM527 324q0 -43 -30.5 -73t-75.5 -30q-46 0 -74 29.5t-28 69.5q0 29 15 52.5t40 37.5t55 14q42 0 70 -27.5t28 -72.5z" />
<glyph unicode="&#x141;" horiz-adv-x="520" d="M510 140v-140h-445v246l-78 -43l-40 74l118 65v161q0 52 -2.5 99.5t-7.5 87.5l175 10l20 -20v-235l96 53l41 -74l-137 -76v-218z" />
<glyph unicode="&#x142;" horiz-adv-x="295" d="M235 0h-180v328l-90 -50l-40 74l130 72v139q0 45 -3.5 87.5t-11.5 90.5l175 19l20 -20v-216l89 49l41 -74l-130 -72v-427z" />
<glyph unicode="&#x143;" horiz-adv-x="710" d="M499 863l-10 -29q-70 -34 -144.5 -48t-151.5 -15l-12 41q55 32 109 68t102 74zM384 441q55 -93 96 -195h3q-5 40 -8 71t-4 61t-1 68q0 67 -2.5 128t-7.5 116l165 8l20 -20v-678h-175q-45 75 -79 138t-66 115q-28 47 -51.5 92t-43.5 90h-3q9 -58 11 -103.5t2 -88.5v-243 h-175v511q0 45 -2.5 92t-7.5 87l185 7q44 -79 78.5 -140.5t65.5 -115.5z" />
<glyph unicode="&#x144;" horiz-adv-x="585" d="M389 766l10 -30q-62 -97 -156 -170l-70 10q17 49 31.5 99t24.5 99zM235 0h-180v313q0 43 -5 82.5t-15 85.5l170 29q6 -17 12 -34.5t10 -35.5q74 70 158 70q65 0 102.5 -43t37.5 -117v-350h-180v317q0 73 -57 73q-25 0 -53 -16v-374z" />
<glyph unicode="&#x145;" horiz-adv-x="710" d="M384 441q55 -93 96 -195h3q-5 40 -8 71t-4 61t-1 68q0 67 -2.5 128t-7.5 116l165 8l20 -20v-678h-175q-45 75 -79 138t-66 115q-28 47 -51.5 92t-43.5 90h-3q9 -58 11 -103.5t2 -88.5v-243h-175v511q0 45 -2.5 92t-7.5 87l185 7q44 -79 78.5 -140.5t65.5 -115.5z M277 -325q18 18 35 43.5t26 51.5q-26 5 -44 25.5t-18 50.5q0 35 26 61t64 26q33 0 59 -23.5t26 -71.5q0 -43 -20.5 -83t-49.5 -72t-53 -53z" />
<glyph unicode="&#x146;" horiz-adv-x="585" d="M235 0h-180v313q0 43 -5 82.5t-15 85.5l170 29q6 -17 12 -34.5t10 -35.5q74 70 158 70q65 0 102.5 -43t37.5 -117v-350h-180v317q0 73 -57 73q-25 0 -53 -16v-374zM199 -325q18 18 35 43.5t26 51.5q-26 5 -44 25.5t-18 50.5q0 35 26 61t64 26q33 0 59 -23.5t26 -71.5 q0 -43 -20.5 -83t-49.5 -72t-53 -53z" />
<glyph unicode="&#x147;" horiz-adv-x="710" d="M473 947l47 -40q-36 -31 -65.5 -61.5t-56.5 -59.5l-117 -10q-27 32 -56.5 64.5t-65.5 66.5l47 40q37 -13 70 -29t63 -31q31 15 64 31t70 29zM384 441q55 -93 96 -195h3q-5 40 -8 71t-4 61t-1 68q0 67 -2.5 128t-7.5 116l165 8l20 -20v-678h-175q-45 75 -79 138t-66 115 q-28 47 -51.5 92t-43.5 90h-3q9 -58 11 -103.5t2 -88.5v-243h-175v511q0 45 -2.5 92t-7.5 87l185 7q44 -79 78.5 -140.5t65.5 -115.5z" />
<glyph unicode="&#x148;" horiz-adv-x="585" d="M409 784l57 -40q-34 -43 -61.5 -83.5t-53.5 -80.5l-117 -10q-25 43 -53 85.5t-62 88.5l57 40q32 -20 61 -44.5t56 -48.5q26 24 55 48.5t61 44.5zM235 0h-180v313q0 43 -5 82.5t-15 85.5l170 29q6 -17 12 -34.5t10 -35.5q74 70 158 70q65 0 102.5 -43t37.5 -117v-350h-180 v317q0 73 -57 73q-25 0 -53 -16v-374z" />
<glyph unicode="&#x14a;" horiz-adv-x="710" d="M439 -202l-51 62q31 41 48.5 75.5t21.5 83.5q-40 69 -72 127t-61 107q-28 47 -51.5 92t-43.5 90h-3q9 -58 11 -103.5t2 -88.5v-243h-175v511q0 45 -2.5 92t-7.5 87l185 7q44 -79 78.5 -140.5t65.5 -115.5q55 -93 96 -195h3q-5 40 -8 71t-4 61t-1 68q0 67 -2.5 128 t-7.5 116l165 8l20 -20v-538q0 -86 -16.5 -147.5t-61 -107.5t-128.5 -87z" />
<glyph unicode="&#x14b;" horiz-adv-x="585" d="M235 0h-180v313q0 43 -5 82.5t-15 85.5l170 29q6 -17 12 -34.5t10 -35.5q74 70 158 70q65 0 102.5 -43t37.5 -117v-290q0 -75 -13.5 -128.5t-47.5 -95.5t-96 -86l-70 60q23 52 35 111t12 139v257q0 73 -57 73q-25 0 -53 -16v-374z" />
<glyph unicode="&#x14c;" horiz-adv-x="715" d="M211 799v96h298v-96h-298zM685 347q0 -116 -45 -195.5t-121 -120.5t-170 -41t-166 41t-112.5 118t-40.5 185q0 112 43 194t119.5 127t174.5 45q99 0 170 -44.5t109.5 -123.5t38.5 -185zM220 350q0 -60 14 -111.5t45 -82.5t80 -31q52 0 81.5 29t42 79t12.5 112 q0 61 -12.5 111t-41.5 79.5t-81 29.5q-48 0 -79 -27.5t-46 -76t-15 -111.5z" />
<glyph unicode="&#x14d;" horiz-adv-x="568" d="M135 618v96h298v-96h-298zM533 253q0 -87 -35.5 -145.5t-94 -88t-126.5 -29.5t-123 28.5t-87 84.5t-32 137q0 84 34 144.5t92.5 93t130.5 32.5t126.5 -31.5t84.5 -89t30 -136.5zM220 255q0 -76 14 -120.5t52 -44.5q39 0 50.5 43t11.5 110q0 80 -13.5 123.5t-51.5 43.5 q-35 0 -49 -38t-14 -117z" />
<glyph unicode="&#x14e;" horiz-adv-x="715" d="M448 923l69 9q-4 -72 -46.5 -119.5t-116.5 -47.5q-63 0 -105.5 40.5t-46.5 108.5l70 10q8 -22 32 -35.5t56 -13.5q34 0 57.5 14t30.5 34zM685 347q0 -116 -45 -195.5t-121 -120.5t-170 -41t-166 41t-112.5 118t-40.5 185q0 112 43 194t119.5 127t174.5 45q99 0 170 -44.5 t109.5 -123.5t38.5 -185zM220 350q0 -60 14 -111.5t45 -82.5t80 -31q52 0 81.5 29t42 79t12.5 112q0 61 -12.5 111t-41.5 79.5t-81 29.5q-48 0 -79 -27.5t-46 -76t-15 -111.5z" />
<glyph unicode="&#x14f;" horiz-adv-x="568" d="M370 765l69 9q-2 -56 -22.5 -101t-56 -70.5t-84.5 -25.5q-63 0 -105.5 48.5t-46.5 130.5l70 10q8 -37 32 -58t56 -21q34 0 57.5 22.5t30.5 55.5zM533 253q0 -87 -35.5 -145.5t-94 -88t-126.5 -29.5t-123 28.5t-87 84.5t-32 137q0 84 34 144.5t92.5 93t130.5 32.5 t126.5 -31.5t84.5 -89t30 -136.5zM220 255q0 -76 14 -120.5t52 -44.5q39 0 50.5 43t11.5 110q0 80 -13.5 123.5t-51.5 43.5q-35 0 -49 -38t-14 -117z" />
<glyph unicode="&#x150;" horiz-adv-x="715" d="M360 856l-10 -29q-55 -35 -115.5 -50t-123.5 -16l-12 41q47 32 93 68t86 74zM620 856l-10 -29q-55 -35 -115.5 -50t-123.5 -16l-12 41q47 32 93 68t86 74zM685 347q0 -116 -45 -195.5t-121 -120.5t-170 -41t-166 41t-112.5 118t-40.5 185q0 112 43 194t119.5 127 t174.5 45q99 0 170 -44.5t109.5 -123.5t38.5 -185zM220 350q0 -60 14 -111.5t45 -82.5t80 -31q52 0 81.5 29t42 79t12.5 112q0 61 -12.5 111t-41.5 79.5t-81 29.5q-48 0 -79 -27.5t-46 -76t-15 -111.5z" />
<glyph unicode="&#x151;" horiz-adv-x="568" d="M274 766l10 -30q-25 -49 -56 -91.5t-68 -78.5l-70 10q17 49 31.5 99t24.5 99zM467 766l10 -30q-25 -49 -56 -91.5t-68 -78.5l-70 10q17 49 31.5 99t24.5 99zM533 253q0 -87 -35.5 -145.5t-94 -88t-126.5 -29.5t-123 28.5t-87 84.5t-32 137q0 84 34 144.5t92.5 93 t130.5 32.5t126.5 -31.5t84.5 -89t30 -136.5zM220 255q0 -76 14 -120.5t52 -44.5q39 0 50.5 43t11.5 110q0 80 -13.5 123.5t-51.5 43.5q-35 0 -49 -38t-14 -117z" />
<glyph unicode="&#x152;" horiz-adv-x="978" d="M953 140v-140h-516q-42 -10 -88 -10q-94 0 -166 41t-112.5 118t-40.5 185q0 112 43 194t119.5 127t174.5 45q45 0 86 -10h474l20 -20l-4 -120l-310 8q40 -68 49 -159l211 5l-5 -127l-207 6q-6 -44 -19.5 -81.5t-33.5 -69.5zM220 350q0 -60 14 -111.5t45 -82.5t80 -31 q52 0 81.5 29t42 79t12.5 112q0 61 -12.5 111t-41.5 79.5t-81 29.5q-48 0 -79 -27.5t-46 -76t-15 -111.5z" />
<glyph unicode="&#x153;" horiz-adv-x="849" d="M818 245l-15 -15h-266q11 -62 46.5 -88.5t89.5 -26.5q34 0 63.5 8t53.5 21l10 -113q-24 -16 -71 -28.5t-100 -12.5q-59 0 -107 18t-82 50q-33 -33 -77 -50.5t-94 -17.5q-63 0 -116.5 28.5t-85.5 84.5t-32 137q0 84 34.5 144.5t91.5 93t124 32.5q51 0 92 -18t71 -50 q31 31 72.5 49.5t91.5 18.5q61 0 107.5 -27.5t73 -76t26.5 -110.5v-24.5t-1 -26.5zM220 255q0 -76 14 -120.5t52 -44.5t50 43.5t12 111.5q0 78 -13.5 121.5t-51.5 43.5q-35 0 -49 -38t-14 -117zM597 410q-33 0 -48.5 -36.5t-15.5 -86.5l109 6q1 7 1.5 15t0.5 17 q0 36 -10.5 60.5t-36.5 24.5z" />
<glyph unicode="&#x154;" horiz-adv-x="627" d="M479 853l-10 -29q-70 -34 -144.5 -48t-151.5 -15l-12 41q55 32 109 68t102 74zM250 0h-185v511q0 45 -1 88.5t-9 90.5h246q143 0 217 -59.5t74 -163.5q0 -73 -32.5 -120.5t-80.5 -71.5l148 -275l-215 -5q-25 54 -49 113t-46 119h-67v-227zM288 560h-38v-208h38 q65 0 89.5 29t24.5 75q0 49 -25 76.5t-89 27.5z" />
<glyph unicode="&#x155;" horiz-adv-x="416" d="M311 766l10 -30q-62 -97 -156 -170l-70 10q17 49 31.5 99t24.5 99zM235 0h-180v313q0 43 -5 82.5t-15 85.5l170 29q11 -28 18.5 -57t11.5 -63v0q20 52 47.5 86t73.5 34q32 0 50 -15l-12 -171q-16 4 -33 6t-35 2q-24 0 -48 -5t-43 -15v-312z" />
<glyph unicode="&#x156;" horiz-adv-x="627" d="M250 0h-185v511q0 45 -1 88.5t-9 90.5h246q143 0 217 -59.5t74 -163.5q0 -73 -32.5 -120.5t-80.5 -71.5l148 -275l-215 -5q-25 54 -49 113t-46 119h-67v-227zM288 560h-38v-208h38q65 0 89.5 29t24.5 75q0 49 -25 76.5t-89 27.5zM233 -325q18 18 35 43.5t26 51.5 q-26 5 -44 25.5t-18 50.5q0 35 26 61t64 26q33 0 59 -23.5t26 -71.5q0 -43 -20.5 -83t-49.5 -72t-53 -53z" />
<glyph unicode="&#x157;" horiz-adv-x="416" d="M235 0h-180v313q0 43 -5 82.5t-15 85.5l170 29q11 -28 18.5 -57t11.5 -63v0q20 52 47.5 86t73.5 34q32 0 50 -15l-12 -171q-16 4 -33 6t-35 2q-24 0 -48 -5t-43 -15v-312zM60 -325q18 18 35 43.5t26 51.5q-26 5 -44 25.5t-18 50.5q0 35 26 61t64 26q33 0 59 -23.5 t26 -71.5q0 -43 -20.5 -83t-49.5 -72t-53 -53z" />
<glyph unicode="&#x158;" horiz-adv-x="627" d="M453 937l47 -40q-36 -31 -65.5 -61.5t-56.5 -59.5l-117 -10q-27 32 -56.5 64.5t-65.5 66.5l47 40q37 -13 70 -29t63 -31q31 15 64 31t70 29zM250 0h-185v511q0 45 -1 88.5t-9 90.5h246q143 0 217 -59.5t74 -163.5q0 -73 -32.5 -120.5t-80.5 -71.5l148 -275l-215 -5 q-25 54 -49 113t-46 119h-67v-227zM288 560h-38v-208h38q65 0 89.5 29t24.5 75q0 49 -25 76.5t-89 27.5z" />
<glyph unicode="&#x159;" horiz-adv-x="416" d="M331 784l57 -40q-34 -43 -61.5 -83.5t-53.5 -80.5l-117 -10q-25 43 -53 85.5t-62 88.5l57 40q32 -20 61 -44.5t56 -48.5q26 24 55 48.5t61 44.5zM235 0h-180v313q0 43 -5 82.5t-15 85.5l170 29q11 -28 18.5 -57t11.5 -63v0q20 52 47.5 86t73.5 34q32 0 50 -15l-12 -171 q-16 4 -33 6t-35 2q-24 0 -48 -5t-43 -15v-312z" />
<glyph unicode="&#x15a;" horiz-adv-x="550" d="M446 853l-10 -29q-70 -34 -144.5 -48t-151.5 -15l-12 41q55 32 109 68t102 74zM510 197q0 -68 -34.5 -114.5t-94.5 -69.5t-139 -23q-37 0 -77 5t-73.5 14t-51.5 20l10 151q25 -15 60.5 -26.5t71.5 -17.5t62 -6q76 0 76 54q0 30 -20.5 50t-53 36t-67.5 33q-34 18 -66 41 t-52 58.5t-20 87.5q0 69 36 115.5t99 70.5t144 24q47 0 92.5 -7t72.5 -18l-20 -155q-34 19 -73.5 29.5t-74.5 10.5q-43 0 -64.5 -15.5t-21.5 -42.5t20 -45.5t51.5 -33.5t65.5 -33q35 -17 67.5 -41t53.5 -60.5t21 -91.5z" />
<glyph unicode="&#x15b;" horiz-adv-x="452" d="M332 766l10 -30q-62 -97 -156 -170l-70 10q17 49 31.5 99t24.5 99zM410 485l-10 -132q-40 20 -81 31t-67 11q-24 0 -38 -8.5t-14 -22.5q0 -16 16.5 -28t42 -22.5t55 -23t55 -30.5t42 -45.5t16.5 -67.5q0 -73 -59.5 -115t-160.5 -42q-51 0 -101.5 10.5t-80.5 28.5l10 129 q45 -25 93.5 -39t79.5 -14q49 0 49 30q0 17 -16.5 29t-42 22.5t-55 23t-55 31t-42 45t-16.5 65.5q0 73 61 116t162 43q32 0 73.5 -5.5t83.5 -19.5z" />
<glyph unicode="&#x15c;" horiz-adv-x="550" d="M153 762l-47 40q36 32 65.5 62t56.5 59l117 10q27 -32 56.5 -64t65.5 -67l-47 -40q-37 13 -70 29t-63 31q-31 -15 -64 -31t-70 -29zM510 197q0 -68 -34.5 -114.5t-94.5 -69.5t-139 -23q-37 0 -77 5t-73.5 14t-51.5 20l10 151q25 -15 60.5 -26.5t71.5 -17.5t62 -6 q76 0 76 54q0 30 -20.5 50t-53 36t-67.5 33q-34 18 -66 41t-52 58.5t-20 87.5q0 69 36 115.5t99 70.5t144 24q47 0 92.5 -7t72.5 -18l-20 -155q-34 19 -73.5 29.5t-74.5 10.5q-43 0 -64.5 -15.5t-21.5 -42.5t20 -45.5t51.5 -33.5t65.5 -33q35 -17 67.5 -41t53.5 -60.5 t21 -91.5z" />
<glyph unicode="&#x15d;" horiz-adv-x="452" d="M119 552l-57 40q34 43 62 83.5t53 80.5l117 10q26 -43 53.5 -85.5t61.5 -88.5l-57 -40q-32 20 -61 44.5t-56 48.5q-26 -24 -55 -48.5t-61 -44.5zM410 485l-10 -132q-40 20 -81 31t-67 11q-24 0 -38 -8.5t-14 -22.5q0 -16 16.5 -28t42 -22.5t55 -23t55 -30.5t42 -45.5 t16.5 -67.5q0 -73 -59.5 -115t-160.5 -42q-51 0 -101.5 10.5t-80.5 28.5l10 129q45 -25 93.5 -39t79.5 -14q49 0 49 30q0 17 -16.5 29t-42 22.5t-55 23t-55 31t-42 45t-16.5 65.5q0 73 61 116t162 43q32 0 73.5 -5.5t83.5 -19.5z" />
<glyph unicode="&#x15e;" horiz-adv-x="550" d="M426 -151q0 -35 -21.5 -58t-56 -35.5t-76 -17.5t-80.5 -5l5 60q49 3 77 17t28 37q0 17 -18 26.5t-58 9.5l-19 30l23 77q-37 1 -74 6t-68 13.5t-48 19.5l10 151q25 -15 60.5 -26.5t71.5 -17.5t62 -6q76 0 76 54q0 30 -20.5 50t-53 36t-67.5 33q-34 18 -66 41t-52 58.5 t-20 87.5q0 69 36 115.5t99 70.5t144 24q47 0 92.5 -7t72.5 -18l-20 -155q-34 19 -73.5 29.5t-74.5 10.5q-43 0 -64.5 -15.5t-21.5 -42.5t20 -45.5t51.5 -33.5t65.5 -33q35 -17 67.5 -41t53.5 -60.5t21 -91.5q0 -84 -51 -134t-136 -66l-17 -53q28 -3 55.5 -13t46 -29.5 t18.5 -52.5z" />
<glyph unicode="&#x15f;" horiz-adv-x="452" d="M370 -151q0 -35 -21.5 -58t-56 -35.5t-76 -17.5t-80.5 -5l5 60q49 3 77 17t28 37q0 17 -18 26.5t-58 9.5l-19 30l23 78q-43 3 -83.5 13t-65.5 25l10 129q45 -25 93.5 -39t79.5 -14q49 0 49 30q0 17 -16.5 29t-42 22.5t-55 23t-55 31t-42 45t-16.5 65.5q0 73 61 116 t162 43q32 0 73.5 -5.5t83.5 -19.5l-10 -132q-40 20 -81 31t-67 11q-24 0 -38 -8.5t-14 -22.5q0 -16 16.5 -28t42 -22.5t55 -23t55 -30.5t42 -45.5t16.5 -67.5q0 -62 -43 -101.5t-118 -51.5l-16 -50q28 -3 55.5 -13t46 -29.5t18.5 -52.5z" />
<glyph unicode="&#x160;" horiz-adv-x="550" d="M420 937l47 -40q-36 -31 -65.5 -61.5t-56.5 -59.5l-117 -10q-27 32 -56.5 64.5t-65.5 66.5l47 40q37 -13 70 -29t63 -31q31 15 64 31t70 29zM510 197q0 -68 -34.5 -114.5t-94.5 -69.5t-139 -23q-37 0 -77 5t-73.5 14t-51.5 20l10 151q25 -15 60.5 -26.5t71.5 -17.5t62 -6 q76 0 76 54q0 30 -20.5 50t-53 36t-67.5 33q-34 18 -66 41t-52 58.5t-20 87.5q0 69 36 115.5t99 70.5t144 24q47 0 92.5 -7t72.5 -18l-20 -155q-34 19 -73.5 29.5t-74.5 10.5q-43 0 -64.5 -15.5t-21.5 -42.5t20 -45.5t51.5 -33.5t65.5 -33q35 -17 67.5 -41t53.5 -60.5 t21 -91.5z" />
<glyph unicode="&#x161;" horiz-adv-x="452" d="M352 784l57 -40q-34 -43 -61.5 -83.5t-53.5 -80.5l-117 -10q-25 43 -53 85.5t-62 88.5l57 40q32 -20 61 -44.5t56 -48.5q26 24 55 48.5t61 44.5zM410 485l-10 -132q-40 20 -81 31t-67 11q-24 0 -38 -8.5t-14 -22.5q0 -16 16.5 -28t42 -22.5t55 -23t55 -30.5t42 -45.5 t16.5 -67.5q0 -73 -59.5 -115t-160.5 -42q-51 0 -101.5 10.5t-80.5 28.5l10 129q45 -25 93.5 -39t79.5 -14q49 0 49 30q0 17 -16.5 29t-42 22.5t-55 23t-55 31t-42 45t-16.5 65.5q0 73 61 116t162 43q32 0 73.5 -5.5t83.5 -19.5z" />
<glyph unicode="&#x162;" horiz-adv-x="585" d="M385 0h-57l-18 -56q28 -3 55.5 -13t46 -29.5t18.5 -52.5q0 -35 -21.5 -58t-56 -35.5t-76 -17.5t-80.5 -5l5 60q49 3 77 17t28 37q0 17 -18 26.5t-58 9.5l-19 30l25 87h-36v554q-47 -1 -94.5 -3t-95.5 -5l10 144h545l10 -144q-48 3 -95.5 5t-94.5 3v-554z" />
<glyph unicode="&#x163;" horiz-adv-x="419" d="M356 -151q0 -35 -21.5 -58t-56 -35.5t-76 -17.5t-80.5 -5l5 60q49 3 77 17t28 37q0 17 -18 26.5t-58 9.5l-19 30l28 94q-46 21 -70.5 67t-24.5 116v228l-65 2v60l70 20l45 131l110 8l22 -21l-2 -118h137l12 -20l-8 -70l-141 4v-223q0 -40 16.5 -58t44.5 -18 q20 0 39.5 6.5t38.5 17.5l10 -108q-25 -16 -63 -28.5t-85 -12.5l-15 -46q28 -3 55.5 -13t46 -29.5t18.5 -52.5z" />
<glyph unicode="&#x164;" horiz-adv-x="585" d="M426 937l47 -40q-36 -31 -65.5 -61.5t-56.5 -59.5l-117 -10q-27 32 -56.5 64.5t-65.5 66.5l47 40q37 -13 70 -29t63 -31q31 15 64 31t70 29zM385 0h-185v554q-47 -1 -94.5 -3t-95.5 -5l10 144h545l10 -144q-48 3 -95.5 5t-94.5 3v-554z" />
<glyph unicode="&#x165;" horiz-adv-x="419" d="M467 786l10 -30q-23 -61 -52 -113.5t-58 -96.5h-59q6 59 12 119.5t10 120.5h137zM391 410l-141 4v-223q0 -40 16.5 -58t44.5 -18q20 0 39.5 6.5t38.5 17.5l10 -108q-25 -16 -63 -28.5t-85 -12.5q-85 0 -133 51t-48 149v228l-65 2v60l70 20l45 131l110 8l22 -21l-2 -118 h137l12 -20z" />
<glyph unicode="&#x166;" horiz-adv-x="585" d="M385 0h-185v300h-100v90h100v164q-47 -1 -94.5 -3t-95.5 -5l10 144h545l10 -144q-48 3 -95.5 5t-94.5 3v-164h101v-90h-101v-300z" />
<glyph unicode="&#x167;" horiz-adv-x="419" d="M395 248h-145v-57q0 -40 16.5 -58t44.5 -18q20 0 39.5 6.5t38.5 17.5l10 -108q-25 -16 -63 -28.5t-85 -12.5q-85 0 -133 51t-48 149v58h-61v90h61v80l-65 2v60l70 20l45 131l110 8l22 -21l-2 -118h137l12 -20l-8 -70l-141 4v-76h145v-90z" />
<glyph unicode="&#x168;" horiz-adv-x="680" d="M266 933q34 0 59 -14.5t48 -28.5t49 -14q21 0 32.5 11.5t24.5 31.5l44 -7q0 -37 -11 -71.5t-34 -57t-61 -22.5q-30 0 -58.5 14t-54.5 28.5t-49 14.5q-16 0 -28.5 -10t-26.5 -33l-44 7q0 36 10 71t34 57.5t66 22.5zM55 503q0 47 -2 92.5t-8 94.5l175 10l20 -20v-424 q0 -127 106 -127q104 0 104 127v287q0 44 -2.5 78t-7.5 69l185 8v-458q0 -83 -39.5 -139t-105 -83.5t-144.5 -27.5t-142.5 28t-101 83.5t-37.5 138.5v263z" />
<glyph unicode="&#x169;" horiz-adv-x="580" d="M216 762q34 0 60.5 -14.5t50.5 -28.5t49 -14q20 0 30.5 11.5t21.5 31.5l49 -7q0 -42 -11 -81t-34 -64.5t-61 -25.5q-30 0 -60 14t-57 28.5t-49 14.5q-14 0 -26 -10t-24 -33l-48 7q0 41 10 80.5t34 65t65 25.5zM55 312q0 47 -3 89.5t-11 88.5l174 20l20 -20v-299 q0 -68 54 -68q25 0 51 13v364l180 10v-380q0 -29 4.5 -65t11.5 -65l-148 -10q-8 15 -15.5 33t-13.5 40h-6q-69 -73 -156 -73q-64 0 -103 39.5t-39 104.5v178z" />
<glyph unicode="&#x16a;" horiz-adv-x="680" d="M191 799v96h298v-96h-298zM55 503q0 47 -2 92.5t-8 94.5l175 10l20 -20v-424q0 -127 106 -127q104 0 104 127v287q0 44 -2.5 78t-7.5 69l185 8v-458q0 -83 -39.5 -139t-105 -83.5t-144.5 -27.5t-142.5 28t-101 83.5t-37.5 138.5v263z" />
<glyph unicode="&#x16b;" horiz-adv-x="580" d="M143 618v96h298v-96h-298zM55 312q0 47 -3 89.5t-11 88.5l174 20l20 -20v-299q0 -68 54 -68q25 0 51 13v364l180 10v-380q0 -29 4.5 -65t11.5 -65l-148 -10q-8 15 -15.5 33t-13.5 40h-6q-69 -73 -156 -73q-64 0 -103 39.5t-39 104.5v178z" />
<glyph unicode="&#x16c;" horiz-adv-x="680" d="M428 923l69 9q-4 -72 -46.5 -119.5t-116.5 -47.5q-63 0 -105.5 40.5t-46.5 108.5l70 10q8 -22 32 -35.5t56 -13.5q34 0 57.5 14t30.5 34zM55 503q0 47 -2 92.5t-8 94.5l175 10l20 -20v-424q0 -127 106 -127q104 0 104 127v287q0 44 -2.5 78t-7.5 69l185 8v-458 q0 -83 -39.5 -139t-105 -83.5t-144.5 -27.5t-142.5 28t-101 83.5t-37.5 138.5v263z" />
<glyph unicode="&#x16d;" horiz-adv-x="580" d="M378 765l69 9q-2 -56 -22.5 -101t-56 -70.5t-84.5 -25.5q-63 0 -105.5 48.5t-46.5 130.5l70 10q8 -37 32 -58t56 -21q34 0 57.5 22.5t30.5 55.5zM55 312q0 47 -3 89.5t-11 88.5l174 20l20 -20v-299q0 -68 54 -68q25 0 51 13v364l180 10v-380q0 -29 4.5 -65t11.5 -65 l-148 -10q-8 15 -15.5 33t-13.5 40h-6q-69 -73 -156 -73q-64 0 -103 39.5t-39 104.5v178z" />
<glyph unicode="&#x16e;" horiz-adv-x="680" d="M484 881q0 -34 -18.5 -62t-49.5 -45t-69 -17q-53 0 -85 30t-32 71q0 34 19.5 62t52 45t70.5 17q49 0 80.5 -28t31.5 -73zM301 864q0 -21 14 -36t37 -15q25 0 43 18.5t18 43.5q0 24 -13 37.5t-34 13.5q-26 0 -45.5 -18.5t-19.5 -43.5zM55 503q0 47 -2 92.5t-8 94.5l175 10 l20 -20v-424q0 -127 106 -127q104 0 104 127v287q0 44 -2.5 78t-7.5 69l185 8v-458q0 -83 -39.5 -139t-105 -83.5t-144.5 -27.5t-142.5 28t-101 83.5t-37.5 138.5v263z" />
<glyph unicode="&#x16f;" horiz-adv-x="580" d="M436 691q0 -34 -18.5 -62t-49.5 -45t-69 -17q-53 0 -85 30t-32 71q0 34 19.5 62t52 45t70.5 17q49 0 80.5 -28t31.5 -73zM253 674q0 -21 14 -36t37 -15q25 0 43 18.5t18 43.5q0 24 -13 37.5t-34 13.5q-26 0 -45.5 -18.5t-19.5 -43.5zM55 312q0 47 -3 89.5t-11 88.5 l174 20l20 -20v-299q0 -68 54 -68q25 0 51 13v364l180 10v-380q0 -29 4.5 -65t11.5 -65l-148 -10q-8 15 -15.5 33t-13.5 40h-6q-69 -73 -156 -73q-64 0 -103 39.5t-39 104.5v178z" />
<glyph unicode="&#x170;" horiz-adv-x="680" d="M340 856l-10 -29q-55 -35 -115.5 -50t-123.5 -16l-12 41q47 32 93 68t86 74zM600 856l-10 -29q-55 -35 -115.5 -50t-123.5 -16l-12 41q47 32 93 68t86 74zM55 503q0 47 -2 92.5t-8 94.5l175 10l20 -20v-424q0 -127 106 -127q104 0 104 127v287q0 44 -2.5 78t-7.5 69 l185 8v-458q0 -83 -39.5 -139t-105 -83.5t-144.5 -27.5t-142.5 28t-101 83.5t-37.5 138.5v263z" />
<glyph unicode="&#x171;" horiz-adv-x="580" d="M282 766l10 -30q-25 -49 -56 -91.5t-68 -78.5l-70 10q17 49 31.5 99t24.5 99zM475 766l10 -30q-25 -49 -56 -91.5t-68 -78.5l-70 10q17 49 31.5 99t24.5 99zM55 312q0 47 -3 89.5t-11 88.5l174 20l20 -20v-299q0 -68 54 -68q25 0 51 13v364l180 10v-380q0 -29 4.5 -65 t11.5 -65l-148 -10q-8 15 -15.5 33t-13.5 40h-6q-69 -73 -156 -73q-64 0 -103 39.5t-39 104.5v178z" />
<glyph unicode="&#x172;" horiz-adv-x="680" d="M55 503q0 47 -2 92.5t-8 94.5l175 10l20 -20v-424q0 -127 106 -127q104 0 104 127v287q0 44 -2.5 78t-7.5 69l185 8v-458q0 -75 -33 -128t-87 -83q-56 -35 -81 -74.5t-25 -70.5q0 -46 41 -46q12 0 26 3t30 10l25 -59q-28 -25 -66.5 -41.5t-78.5 -16.5q-51 0 -85.5 29 t-34.5 78q0 40 25 78.5t69 70.5h-14q-79 0 -142.5 28t-101 83.5t-37.5 138.5v263z" />
<glyph unicode="&#x173;" horiz-adv-x="580" d="M55 312q0 47 -3 89.5t-11 88.5l174 20l20 -20v-299q0 -68 54 -68q25 0 51 13v364l180 10v-380q0 -29 4.5 -65t11.5 -65q-54 -25 -84.5 -57.5t-30.5 -63.5q0 -18 10.5 -29.5t32.5 -11.5q10 0 24 3t30 10l25 -59q-28 -25 -66 -41.5t-79 -16.5q-51 0 -85.5 29t-34.5 78 q0 42 32.5 81.5t89.5 68.5l-12 -1q-8 15 -15.5 33t-13.5 40h-6q-69 -73 -156 -73q-64 0 -103 39.5t-39 104.5v178z" />
<glyph unicode="&#x174;" horiz-adv-x="960" d="M346 762l-47 40q36 32 65.5 62t56.5 59l117 10q27 -32 56.5 -64t65.5 -67l-47 -40q-37 13 -70 29t-63 31q-31 -15 -64 -31t-70 -29zM174 0l-171 681l198 19l70 -348q9 -44 16.5 -91.5t12.5 -77.5q6 30 16.5 78t19.5 89l74 340l178 10l73 -348q10 -43 19.5 -91t15.5 -78 q5 32 13.5 80.5t17.5 90.5l72 346l148 -10l10 -19l-171 -671h-205l-53 223q-13 54 -23 108.5t-22 108.5h-3q-11 -55 -22.5 -110t-25.5 -110l-53 -220h-205z" />
<glyph unicode="&#x175;" horiz-adv-x="816" d="M312 552l-57 40q34 43 62 83.5t53 80.5l117 10q26 -43 53.5 -85.5t61.5 -88.5l-57 -40q-32 20 -61 44.5t-56 48.5q-26 -24 -55 -48.5t-61 -44.5zM121 0l-116 495l185 15l44 -253q5 -27 11 -59t8 -58h3q3 26 8.5 58t9.5 59l37 243h229l39 -243q5 -27 11 -59t8 -58h3 q3 26 8.5 58t9.5 59l42 253l140 -10l10 -20l-116 -480h-230l-35 204q-7 39 -13.5 78t-9.5 78h-3q-3 -40 -9.5 -78.5t-13.5 -78.5l-35 -203h-225z" />
<glyph unicode="&#x176;" horiz-adv-x="584" d="M181 762l-47 40q36 32 65.5 62t56.5 59l117 10q27 -32 56.5 -64t65.5 -67l-47 -40q-37 13 -70 29t-63 31q-31 -15 -64 -31t-70 -29zM199 216l-196 465l198 19l61 -194q12 -37 26 -81t21 -70h3q6 18 15 44t18.5 54.5t16.5 50.5l61 196l148 -10l10 -19l-197 -455v-216h-185 v216z" />
<glyph unicode="&#x177;" horiz-adv-x="507" d="M154 552l-57 40q34 43 62 83.5t53 80.5l117 10q26 -43 53.5 -85.5t61.5 -88.5l-57 -40q-32 20 -61 44.5t-56 48.5q-26 -24 -55 -48.5t-61 -44.5zM502 480l-125 -427q-18 -61 -41.5 -117t-59.5 -100t-92 -70t-138 -26l-25 150q78 0 133 26.5t79 83.5h-85l-143 495l190 15 l55 -263q7 -31 13.5 -69t8.5 -68h3q3 30 10.5 67t14.5 70l54 263l138 -10z" />
<glyph unicode="&#x178;" horiz-adv-x="584" d="M526 858q0 -39 -28.5 -65t-71.5 -26q-36 0 -58.5 21t-22.5 50q0 38 30 64.5t72 26.5q33 0 56 -19.5t23 -51.5zM285 858q0 -39 -28.5 -65t-71.5 -26q-36 0 -58.5 21t-22.5 50q0 38 30 64.5t72 26.5q33 0 56 -19.5t23 -51.5zM199 216l-196 465l198 19l61 -194 q12 -37 26 -81t21 -70h3q6 18 15 44t18.5 54.5t16.5 50.5l61 196l148 -10l10 -19l-197 -455v-216h-185v216z" />
<glyph unicode="&#x179;" horiz-adv-x="584" d="M451 853l-10 -29q-70 -34 -144.5 -48t-151.5 -15l-12 41q55 32 109 68t102 74zM60 0l-30 120l311 419l-296 -9l10 160h447l47 -120l-307 -418l300 8l-10 -160h-472z" />
<glyph unicode="&#x17a;" horiz-adv-x="460" d="M339 766l10 -30q-62 -97 -156 -170l-70 10q17 49 31.5 99t24.5 99zM23 355l10 145h377l20 -115l-211 -245h61q41 0 81.5 2.5t78.5 7.5l-10 -150h-390l-20 115l220 244z" />
<glyph unicode="&#x17b;" horiz-adv-x="584" d="M395 860q0 -45 -32.5 -74.5t-79.5 -29.5q-40 0 -67 24t-27 58q0 28 16 50.5t43 36.5t58 14q37 0 63 -21.5t26 -57.5zM60 0l-30 120l311 419l-296 -9l10 160h447l47 -120l-307 -418l300 8l-10 -160h-472z" />
<glyph unicode="&#x17c;" horiz-adv-x="460" d="M341 675q0 -30 -15.5 -55.5t-41 -40.5t-57.5 -15q-43 0 -69.5 26.5t-26.5 63.5q0 30 16.5 55t43.5 40t58 15q40 0 66 -24t26 -65zM23 355l10 145h377l20 -115l-211 -245h61q41 0 81.5 2.5t78.5 7.5l-10 -150h-390l-20 115l220 244z" />
<glyph unicode="&#x17d;" horiz-adv-x="584" d="M425 937l47 -40q-36 -31 -65.5 -61.5t-56.5 -59.5l-117 -10q-27 32 -56.5 64.5t-65.5 66.5l47 40q37 -13 70 -29t63 -31q31 15 64 31t70 29zM60 0l-30 120l311 419l-296 -9l10 160h447l47 -120l-307 -418l300 8l-10 -160h-472z" />
<glyph unicode="&#x17e;" horiz-adv-x="460" d="M359 784l57 -40q-34 -43 -61.5 -83.5t-53.5 -80.5l-117 -10q-25 43 -53 85.5t-62 88.5l57 40q32 -20 61 -44.5t56 -48.5q26 24 55 48.5t61 44.5zM23 355l10 145h377l20 -115l-211 -245h61q41 0 81.5 2.5t78.5 7.5l-10 -150h-390l-20 115l220 244z" />
<glyph unicode="&#x18f;" horiz-adv-x="659" d="M35 384l26 25h368q-18 81 -68.5 118t-126.5 37q-46 0 -88.5 -12.5t-77.5 -32.5l-3 135q14 9 46.5 19.5t77.5 18.5t95 8q106 0 183.5 -40.5t119.5 -118.5t42 -189q0 -109 -40.5 -190.5t-114.5 -126.5t-175 -45q-80 0 -140.5 31.5t-94.5 98t-34 171.5v33.5t0.5 14t1.5 13 t3 32.5zM215 268q0 -71 23 -111.5t79 -40.5q46 0 72.5 25.5t38 70t11.5 100.5v4l-223 -17q-1 -8 -1 -16v-15z" />
<glyph unicode="&#x192;" horiz-adv-x="593" d="M150 293l-116 5l13 60l107 20h4l4 42q11 128 75 204t193 76q50 0 88 -10t60 -24l-56 -136q-22 17 -48 28.5t-49 11.5q-25 0 -40.5 -14.5t-24 -37.5t-12.5 -49t-6 -49l-4 -42h167l8 -18l-19 -67h-165l-26 -247q-3 -26 -9 -64.5t-21 -80.5t-43 -78.5t-73.5 -59.5 t-114.5 -23q-51 0 -108 16l23 137q26 -11 47 -17t38 -6q43 0 60 32.5t21 75.5l28 315h-1z" />
<glyph unicode="&#x19d;" horiz-adv-x="710" d="M44 -202l-51 62q39 56 55.5 125.5t16.5 154.5v371q0 45 -2.5 92t-7.5 87l185 7q44 -79 78.5 -140.5t65.5 -115.5q55 -93 96 -195h3q-5 40 -8 71t-4 61t-1 68q0 67 -2.5 128t-7.5 116l165 8l20 -20v-678h-175q-45 75 -79 138t-66 115q-28 47 -51.5 92t-43.5 90h-3 q9 -58 11 -103.5t2 -88.5v-103q0 -86 -15.5 -147.5t-58 -107.5t-122.5 -87z" />
<glyph unicode="&#x1cd;" horiz-adv-x="650" d="M458 947l47 -40q-36 -31 -65.5 -61.5t-56.5 -59.5l-117 -10q-27 32 -56.5 64.5t-65.5 66.5l47 40q37 -13 70 -29t63 -31q31 15 64 31t70 29zM180 0h-175l166 580q9 31 16 59.5t11 50.5l224 9l30 -25l193 -674h-185l-35 130h-210zM262 305l-12 -45h140l-12 44 q-22 85 -35.5 144.5t-19.5 93.5h-5q-4 -22 -12.5 -59.5t-19.5 -83.5t-24 -94z" />
<glyph unicode="&#x1ce;" horiz-adv-x="526" d="M382 784l57 -40q-34 -43 -61.5 -83.5t-53.5 -80.5l-117 -10q-25 43 -53 85.5t-62 88.5l57 40q32 -20 61 -44.5t56 -48.5q26 24 55 48.5t61 44.5zM304 58q-21 -31 -59.5 -49.5t-85.5 -18.5q-57 0 -95.5 30.5t-38.5 92.5q0 56 34 91.5t93.5 53t137.5 19.5v28q0 75 -80 75 q-36 0 -76 -10.5t-75 -29.5l-10 135q38 13 95.5 24t112.5 11q213 0 213 -187q0 -53 -2.5 -96.5t-2.5 -96.5q0 -34 6.5 -70t14.5 -60l-148 -10q-10 16 -17 33.5t-12 34.5h-5zM200 145q0 -25 14 -40t37 -15q21 0 39 12v123q-38 -4 -64 -24t-26 -56z" />
<glyph unicode="&#x1cf;" horiz-adv-x="315" d="M283 947l47 -40q-36 -31 -65.5 -61.5t-56.5 -59.5l-117 -10q-27 32 -56.5 64.5t-65.5 66.5l47 40q37 -13 70 -29t63 -31q31 15 64 31t70 29zM250 0h-185v503q0 52 -2.5 99.5t-7.5 87.5l175 10l20 -20v-680z" />
<glyph unicode="&#x1d0;" horiz-adv-x="295" d="M224 776l64 -24q-17 -43 -31 -87.5t-26 -88.5l-167 -10q-12 47 -26 93.5t-31 92.5l64 24q22 -22 41 -47t35 -53q17 28 36 53t41 47zM55 0v313q0 45 -3.5 87.5t-11.5 90.5l175 19l20 -20v-490h-180z" />
<glyph unicode="&#x1d1;" horiz-adv-x="715" d="M493 937l47 -40q-36 -31 -65.5 -61.5t-56.5 -59.5l-117 -10q-27 32 -56.5 64.5t-65.5 66.5l47 40q37 -13 70 -29t63 -31q31 15 64 31t70 29zM685 347q0 -116 -45 -195.5t-121 -120.5t-170 -41t-166 41t-112.5 118t-40.5 185q0 112 43 194t119.5 127t174.5 45 q99 0 170 -44.5t109.5 -123.5t38.5 -185zM220 350q0 -60 14 -111.5t45 -82.5t80 -31q52 0 81.5 29t42 79t12.5 112q0 61 -12.5 111t-41.5 79.5t-81 29.5q-48 0 -79 -27.5t-46 -76t-15 -111.5z" />
<glyph unicode="&#x1d2;" horiz-adv-x="568" d="M407 784l57 -40q-34 -43 -61.5 -83.5t-53.5 -80.5l-117 -10q-25 43 -53 85.5t-62 88.5l57 40q32 -20 61 -44.5t56 -48.5q26 24 55 48.5t61 44.5zM533 253q0 -87 -35.5 -145.5t-94 -88t-126.5 -29.5t-123 28.5t-87 84.5t-32 137q0 84 34 144.5t92.5 93t130.5 32.5 t126.5 -31.5t84.5 -89t30 -136.5zM220 255q0 -76 14 -120.5t52 -44.5q39 0 50.5 43t11.5 110q0 80 -13.5 123.5t-51.5 43.5q-35 0 -49 -38t-14 -117z" />
<glyph unicode="&#x1d3;" horiz-adv-x="680" d="M473 937l47 -40q-36 -31 -65.5 -61.5t-56.5 -59.5l-117 -10q-27 32 -56.5 64.5t-65.5 66.5l47 40q37 -13 70 -29t63 -31q31 15 64 31t70 29zM55 503q0 47 -2 92.5t-8 94.5l175 10l20 -20v-424q0 -127 106 -127q104 0 104 127v287q0 44 -2.5 78t-7.5 69l185 8v-458 q0 -83 -39.5 -139t-105 -83.5t-144.5 -27.5t-142.5 28t-101 83.5t-37.5 138.5v263z" />
<glyph unicode="&#x1d4;" horiz-adv-x="580" d="M415 784l57 -40q-34 -43 -61.5 -83.5t-53.5 -80.5l-117 -10q-25 43 -53 85.5t-62 88.5l57 40q32 -20 61 -44.5t56 -48.5q26 24 55 48.5t61 44.5zM55 312q0 47 -3 89.5t-11 88.5l174 20l20 -20v-299q0 -68 54 -68q25 0 51 13v364l180 10v-380q0 -29 4.5 -65t11.5 -65 l-148 -10q-8 15 -15.5 33t-13.5 40h-6q-69 -73 -156 -73q-64 0 -103 39.5t-39 104.5v178z" />
<glyph unicode="&#x1d5;" horiz-adv-x="680" d="M191 1038v96h298v-96h-298zM551 858q0 -39 -28.5 -65t-71.5 -26q-36 0 -58.5 21t-22.5 50q0 38 30 64.5t72 26.5q33 0 56 -19.5t23 -51.5zM310 858q0 -39 -28.5 -65t-71.5 -26q-36 0 -58.5 21t-22.5 50q0 38 30 64.5t72 26.5q33 0 56 -19.5t23 -51.5zM55 503 q0 47 -2 92.5t-8 94.5l175 10l20 -20v-424q0 -127 106 -127q104 0 104 127v287q0 44 -2.5 78t-7.5 69l185 8v-458q0 -83 -39.5 -139t-105 -83.5t-144.5 -27.5t-142.5 28t-101 83.5t-37.5 138.5v263z" />
<glyph unicode="&#x1d6;" horiz-adv-x="580" d="M143 877v96h298v-96h-298zM267 676q0 -42 -30 -72t-73 -30q-40 0 -63.5 24.5t-23.5 58.5q0 28 15 51t39.5 37t52.5 14q36 0 59.5 -22.5t23.5 -60.5zM506 676q0 -42 -30 -72t-73 -30q-40 0 -63.5 24.5t-23.5 58.5q0 28 15 51t39.5 37t52.5 14q36 0 59.5 -22.5t23.5 -60.5z M55 312q0 47 -3 89.5t-11 88.5l174 20l20 -20v-299q0 -68 54 -68q25 0 51 13v364l180 10v-380q0 -29 4.5 -65t11.5 -65l-148 -10q-8 15 -15.5 33t-13.5 40h-6q-69 -73 -156 -73q-64 0 -103 39.5t-39 104.5v178z" />
<glyph unicode="&#x1d7;" horiz-adv-x="680" d="M499 1092l-10 -29q-70 -34 -144.5 -48t-151.5 -15l-12 41q55 32 109 68t102 74zM551 858q0 -39 -28.5 -65t-71.5 -26q-36 0 -58.5 21t-22.5 50q0 38 30 64.5t72 26.5q33 0 56 -19.5t23 -51.5zM310 858q0 -39 -28.5 -65t-71.5 -26q-36 0 -58.5 21t-22.5 50q0 38 30 64.5 t72 26.5q33 0 56 -19.5t23 -51.5zM55 503q0 47 -2 92.5t-8 94.5l175 10l20 -20v-424q0 -127 106 -127q104 0 104 127v287q0 44 -2.5 78t-7.5 69l185 8v-458q0 -83 -39.5 -139t-105 -83.5t-144.5 -27.5t-142.5 28t-101 83.5t-37.5 138.5v263z" />
<glyph unicode="&#x1d8;" horiz-adv-x="580" d="M395 1025l10 -30q-62 -97 -156 -170l-70 10q17 49 31.5 99t24.5 99zM267 676q0 -42 -30 -72t-73 -30q-40 0 -63.5 24.5t-23.5 58.5q0 28 15 51t39.5 37t52.5 14q36 0 59.5 -22.5t23.5 -60.5zM506 676q0 -42 -30 -72t-73 -30q-40 0 -63.5 24.5t-23.5 58.5q0 28 15 51 t39.5 37t52.5 14q36 0 59.5 -22.5t23.5 -60.5zM55 312q0 47 -3 89.5t-11 88.5l174 20l20 -20v-299q0 -68 54 -68q25 0 51 13v364l180 10v-380q0 -29 4.5 -65t11.5 -65l-148 -10q-8 15 -15.5 33t-13.5 40h-6q-69 -73 -156 -73q-64 0 -103 39.5t-39 104.5v178z" />
<glyph unicode="&#x1d9;" horiz-adv-x="680" d="M473 1176l47 -40q-36 -31 -65.5 -61.5t-56.5 -59.5l-117 -10q-27 32 -56.5 64.5t-65.5 66.5l47 40q37 -13 70 -29t63 -31q31 15 64 31t70 29zM551 858q0 -39 -28.5 -65t-71.5 -26q-36 0 -58.5 21t-22.5 50q0 38 30 64.5t72 26.5q33 0 56 -19.5t23 -51.5zM310 858 q0 -39 -28.5 -65t-71.5 -26q-36 0 -58.5 21t-22.5 50q0 38 30 64.5t72 26.5q33 0 56 -19.5t23 -51.5zM55 503q0 47 -2 92.5t-8 94.5l175 10l20 -20v-424q0 -127 106 -127q104 0 104 127v287q0 44 -2.5 78t-7.5 69l185 8v-458q0 -83 -39.5 -139t-105 -83.5t-144.5 -27.5 t-142.5 28t-101 83.5t-37.5 138.5v263z" />
<glyph unicode="&#x1da;" horiz-adv-x="580" d="M415 1043l57 -40q-34 -43 -61.5 -83.5t-53.5 -80.5l-117 -10q-25 43 -53 85.5t-62 88.5l57 40q32 -20 61 -44.5t56 -48.5q26 24 55 48.5t61 44.5zM267 676q0 -42 -30 -72t-73 -30q-40 0 -63.5 24.5t-23.5 58.5q0 28 15 51t39.5 37t52.5 14q36 0 59.5 -22.5t23.5 -60.5z M506 676q0 -42 -30 -72t-73 -30q-40 0 -63.5 24.5t-23.5 58.5q0 28 15 51t39.5 37t52.5 14q36 0 59.5 -22.5t23.5 -60.5zM55 312q0 47 -3 89.5t-11 88.5l174 20l20 -20v-299q0 -68 54 -68q25 0 51 13v364l180 10v-380q0 -29 4.5 -65t11.5 -65l-148 -10q-8 15 -15.5 33 t-13.5 40h-6q-69 -73 -156 -73q-64 0 -103 39.5t-39 104.5v178z" />
<glyph unicode="&#x1db;" horiz-adv-x="680" d="M487 1000q-77 1 -151.5 15t-144.5 48l-10 29l107 91q48 -38 102 -74t109 -68zM551 858q0 -39 -28.5 -65t-71.5 -26q-36 0 -58.5 21t-22.5 50q0 38 30 64.5t72 26.5q33 0 56 -19.5t23 -51.5zM310 858q0 -39 -28.5 -65t-71.5 -26q-36 0 -58.5 21t-22.5 50q0 38 30 64.5 t72 26.5q33 0 56 -19.5t23 -51.5zM55 503q0 47 -2 92.5t-8 94.5l175 10l20 -20v-424q0 -127 106 -127q104 0 104 127v287q0 44 -2.5 78t-7.5 69l185 8v-458q0 -83 -39.5 -139t-105 -83.5t-144.5 -27.5t-142.5 28t-101 83.5t-37.5 138.5v263z" />
<glyph unicode="&#x1dc;" horiz-adv-x="580" d="M335 825q-94 73 -156 170l10 30l160 8q10 -49 24.5 -99t31.5 -99zM267 676q0 -42 -30 -72t-73 -30q-40 0 -63.5 24.5t-23.5 58.5q0 28 15 51t39.5 37t52.5 14q36 0 59.5 -22.5t23.5 -60.5zM506 676q0 -42 -30 -72t-73 -30q-40 0 -63.5 24.5t-23.5 58.5q0 28 15 51 t39.5 37t52.5 14q36 0 59.5 -22.5t23.5 -60.5zM55 312q0 47 -3 89.5t-11 88.5l174 20l20 -20v-299q0 -68 54 -68q25 0 51 13v364l180 10v-380q0 -29 4.5 -65t11.5 -65l-148 -10q-8 15 -15.5 33t-13.5 40h-6q-69 -73 -156 -73q-64 0 -103 39.5t-39 104.5v178z" />
<glyph unicode="&#x1e6;" horiz-adv-x="637" d="M480 947l47 -40q-36 -31 -65.5 -61.5t-56.5 -59.5l-117 -10q-27 32 -56.5 64.5t-65.5 66.5l47 40q37 -13 70 -29t63 -31q31 15 64 31t70 29zM582 333l20 -20l-3 -283q-45 -17 -101 -28.5t-118 -11.5q-114 0 -192 41.5t-118 116.5t-40 177q0 110 45 194.5t127 132.5 t194 48q56 0 107 -11.5t87 -28.5l-30 -155q-34 23 -73.5 36.5t-81.5 13.5q-82 0 -133.5 -55t-51.5 -163q0 -94 44.5 -150.5t133.5 -56.5q13 0 30 1q-1 43 -2.5 72.5t-4.5 56.5t-8 63z" />
<glyph unicode="&#x1e7;" horiz-adv-x="539" d="M382 784l57 -40q-34 -43 -61.5 -83.5t-53.5 -80.5l-117 -10q-25 43 -53 85.5t-62 88.5l57 40q32 -20 61 -44.5t56 -48.5q26 24 55 48.5t61 44.5zM93 50q0 31 18 55t48 42q-57 19 -92.5 61.5t-35.5 102.5q0 54 28.5 99t81 72.5t122.5 27.5q40 0 74.5 -9.5t57.5 -25.5 q17 40 51 59t72 19l21 -18l-5 -106h-102l-2 -4q19 -14 34.5 -41.5t15.5 -68.5q0 -52 -28.5 -93.5t-79 -65.5t-118.5 -24q-15 0 -29 1q-1 -6 -1 -12q0 -22 12 -27.5t32 -7.5l96 -6q73 -4 120.5 -38.5t47.5 -102.5q0 -58 -37 -103t-103.5 -70.5t-155.5 -25.5q-107 0 -171.5 35 t-64.5 90q0 37 27.5 61.5t63.5 31.5l60 -25q-1 -3 -1 -6v-6q0 -40 29.5 -70.5t81.5 -30.5q38 0 64.5 18.5t26.5 52.5q0 56 -79 65l-87 10q-43 5 -68 26t-25 58zM310 322q0 50 -11.5 76.5t-40.5 26.5q-30 0 -43.5 -27.5t-13.5 -77.5q0 -103 56 -103q53 0 53 105z" />
<glyph unicode="&#x1ea;" horiz-adv-x="715" d="M685 347q0 -115 -45 -194.5t-118 -120.5q-57 -40 -78.5 -72t-21.5 -64q0 -58 48 -58q22 0 49 13l25 -59q-28 -25 -66 -41.5t-79 -16.5q-51 0 -85.5 29t-34.5 78q0 41 27 80.5t71 69.5q-14 -1 -28 -1q-94 0 -166 41t-112.5 118t-40.5 185q0 112 43 194t119.5 127t174.5 45 q99 0 170 -44.5t109.5 -123.5t38.5 -185zM220 350q0 -60 14 -111.5t45 -82.5t80 -31q52 0 81.5 29t42 79t12.5 112q0 61 -12.5 111t-41.5 79.5t-81 29.5q-48 0 -79 -27.5t-46 -76t-15 -111.5z" />
<glyph unicode="&#x1eb;" horiz-adv-x="568" d="M533 253q0 -77 -28.5 -132t-75.5 -87q-54 -40 -76.5 -75.5t-22.5 -64.5q0 -22 10 -36t33 -14q9 0 23.5 3t30.5 10l25 -59q-28 -25 -66 -41.5t-79 -16.5q-51 0 -85.5 28t-34.5 71q0 44 29.5 81t76.5 70h-16q-68 0 -123 28.5t-87 84.5t-32 137q0 84 34 144.5t92.5 93 t130.5 32.5t126.5 -31.5t84.5 -89t30 -136.5zM220 255q0 -76 14 -120.5t52 -44.5q39 0 50.5 43t11.5 110q0 80 -13.5 123.5t-51.5 43.5q-35 0 -49 -38t-14 -117z" />
<glyph unicode="&#x1f4;" horiz-adv-x="637" d="M506 863l-10 -29q-70 -34 -144.5 -48t-151.5 -15l-12 41q55 32 109 68t102 74zM582 333l20 -20l-3 -283q-45 -17 -101 -28.5t-118 -11.5q-114 0 -192 41.5t-118 116.5t-40 177q0 110 45 194.5t127 132.5t194 48q56 0 107 -11.5t87 -28.5l-30 -155q-34 23 -73.5 36.5 t-81.5 13.5q-82 0 -133.5 -55t-51.5 -163q0 -94 44.5 -150.5t133.5 -56.5q13 0 30 1q-1 43 -2.5 72.5t-4.5 56.5t-8 63z" />
<glyph unicode="&#x1f5;" horiz-adv-x="539" d="M362 766l10 -30q-62 -97 -156 -170l-70 10q17 49 31.5 99t24.5 99zM93 50q0 31 18 55t48 42q-57 19 -92.5 61.5t-35.5 102.5q0 54 28.5 99t81 72.5t122.5 27.5q40 0 74.5 -9.5t57.5 -25.5q17 40 51 59t72 19l21 -18l-5 -106h-102l-2 -4q19 -14 34.5 -41.5t15.5 -68.5 q0 -52 -28.5 -93.5t-79 -65.5t-118.5 -24q-15 0 -29 1q-1 -6 -1 -12q0 -22 12 -27.5t32 -7.5l96 -6q73 -4 120.5 -38.5t47.5 -102.5q0 -58 -37 -103t-103.5 -70.5t-155.5 -25.5q-107 0 -171.5 35t-64.5 90q0 37 27.5 61.5t63.5 31.5l60 -25q-1 -3 -1 -6v-6q0 -40 29.5 -70.5 t81.5 -30.5q38 0 64.5 18.5t26.5 52.5q0 56 -79 65l-87 10q-43 5 -68 26t-25 58zM310 322q0 50 -11.5 76.5t-40.5 26.5q-30 0 -43.5 -27.5t-13.5 -77.5q0 -103 56 -103q53 0 53 105z" />
<glyph unicode="&#x1fa;" horiz-adv-x="650" d="M484 1140l-10 -29q-70 -34 -144.5 -48t-151.5 -15l-12 41q55 32 109 68t102 74zM452 876q0 -34 -18.5 -62t-49.5 -45t-69 -17q-53 0 -85 30t-32 71q0 34 19.5 62t52 45t70.5 17q49 0 80.5 -28t31.5 -73zM269 859q0 -21 14 -36t37 -15q25 0 43 18.5t18 43.5q0 24 -13 37.5 t-34 13.5q-26 0 -45.5 -18.5t-19.5 -43.5zM180 0h-175l166 580q9 31 16 59.5t11 50.5l224 9l30 -25l193 -674h-185l-35 130h-210zM262 305l-12 -45h140l-12 44q-22 85 -35.5 144.5t-19.5 93.5h-5q-4 -22 -12.5 -59.5t-19.5 -83.5t-24 -94z" />
<glyph unicode="&#x1fb;" horiz-adv-x="526" d="M379 1058l10 -30q-62 -97 -156 -170l-70 10q17 49 31.5 99t24.5 99zM403 691q0 -34 -18.5 -62t-49.5 -45t-69 -17q-53 0 -85 30t-32 71q0 34 19.5 62t52 45t70.5 17q49 0 80.5 -28t31.5 -73zM220 674q0 -21 14 -36t37 -15q25 0 43 18.5t18 43.5q0 24 -13 37.5t-34 13.5 q-26 0 -45.5 -18.5t-19.5 -43.5zM304 58q-21 -31 -59.5 -49.5t-85.5 -18.5q-57 0 -95.5 30.5t-38.5 92.5q0 56 34 91.5t93.5 53t137.5 19.5v28q0 75 -80 75q-36 0 -76 -10.5t-75 -29.5l-10 135q38 13 95.5 24t112.5 11q213 0 213 -187q0 -53 -2.5 -96.5t-2.5 -96.5 q0 -34 6.5 -70t14.5 -60l-148 -10q-10 16 -17 33.5t-12 34.5h-5zM200 145q0 -25 14 -40t37 -15q21 0 39 12v123q-38 -4 -64 -24t-26 -56z" />
<glyph unicode="&#x1fc;" horiz-adv-x="909" d="M688 853l-10 -29q-70 -34 -144.5 -48t-151.5 -15l-12 41q55 32 109 68t102 74zM180 0h-175l242 580q13 31 25 59.5t19 50.5h511l20 -20l-4 -120l-263 8l19 -159l220 5l-5 -127l-202 6l18 -153l279 10v-140h-449l-13 130h-191zM300 305l-18 -45h127l-4 44q-8 85 -10 144.5 t-3 93.5h-5q-13 -36 -32.5 -92.5t-54.5 -144.5z" />
<glyph unicode="&#x1fd;" horiz-adv-x="790" d="M509 766l10 -30q-62 -97 -156 -170l-70 10q17 49 31.5 99t24.5 99zM759 245l-15 -15h-266q11 -62 46.5 -88.5t89.5 -26.5q34 0 63.5 8t53.5 21l10 -113q-24 -15 -69 -28t-106 -13q-76 0 -135 24.5t-94 71.5q-29 -44 -75.5 -70t-102.5 -26q-57 0 -95.5 30.5t-38.5 92.5 q0 56 34 91.5t93.5 53t137.5 19.5v28q0 10 -3.5 28t-21 32.5t-59.5 14.5q-34 0 -74.5 -11.5t-72.5 -28.5l-10 135q38 13 95 24t115 11q97 0 147 -38q62 38 139 38q67 0 115 -27.5t74 -76t26 -110.5v-24.5t-1 -26.5zM538 410q-33 0 -48.5 -36.5t-15.5 -86.5l109 6q1 7 1.5 15 t0.5 17q0 36 -10.5 60.5t-36.5 24.5zM200 145q0 -25 14 -40t37 -15q34 0 62 34q-21 45 -24 101q-37 -5 -63 -24.5t-26 -55.5z" />
<glyph unicode="&#x1fe;" horiz-adv-x="715" d="M519 853l-10 -29q-70 -34 -144.5 -48t-151.5 -15l-12 41q55 32 109 68t102 74zM685 347q0 -116 -45 -195.5t-121 -120.5t-170 -41q-117 0 -198 63l-59 -68l-65 56l64 74q-29 42 -45 97t-16 122q0 112 43 194t119.5 127t174.5 45q55 0 101.5 -14t83.5 -41l52 60l66 -55 l-56 -65q71 -93 71 -238zM220 350q0 -43 7 -79l222 255q-16 19 -38 29t-51 10q-48 0 -79 -27.5t-46 -76t-15 -111.5zM495 345q0 25 -2 49t-6 45l-227 -260q17 -25 41.5 -39.5t57.5 -14.5q52 0 81.5 29t42 79t12.5 112z" />
<glyph unicode="&#x1ff;" horiz-adv-x="568" d="M387 766l10 -30q-62 -97 -156 -170l-70 10q17 49 31.5 99t24.5 99zM533 253q0 -87 -35.5 -145.5t-94 -88t-126.5 -29.5q-83 0 -143 40l-55 -59l-59 56l57 61q-20 29 -31 67.5t-11 84.5q0 84 34 144.5t92.5 93t130.5 32.5q81 0 140 -41l56 60l60 -55l-58 -63 q20 -31 31.5 -71t11.5 -87zM220 255v-1.5v-11.5l115 123q-15 45 -52 45q-35 0 -49 -38t-14 -117zM348 243v16l-115 -123q16 -46 53 -46q39 0 50.5 43t11.5 110z" />
<glyph unicode="&#x218;" horiz-adv-x="550" d="M510 197q0 -68 -34.5 -114.5t-94.5 -69.5t-139 -23q-37 0 -77 5t-73.5 14t-51.5 20l10 151q25 -15 60.5 -26.5t71.5 -17.5t62 -6q76 0 76 54q0 30 -20.5 50t-53 36t-67.5 33q-34 18 -66 41t-52 58.5t-20 87.5q0 69 36 115.5t99 70.5t144 24q47 0 92.5 -7t72.5 -18 l-20 -155q-34 19 -73.5 29.5t-74.5 10.5q-43 0 -64.5 -15.5t-21.5 -42.5t20 -45.5t51.5 -33.5t65.5 -33q35 -17 67.5 -41t53.5 -60.5t21 -91.5zM202 -325q18 18 35 43.5t26 51.5q-26 5 -44 25.5t-18 50.5q0 35 26 61t64 26q33 0 59 -23.5t26 -71.5q0 -43 -20.5 -83 t-49.5 -72t-53 -53z" />
<glyph unicode="&#x219;" horiz-adv-x="452" d="M410 485l-10 -132q-40 20 -81 31t-67 11q-24 0 -38 -8.5t-14 -22.5q0 -16 16.5 -28t42 -22.5t55 -23t55 -30.5t42 -45.5t16.5 -67.5q0 -73 -59.5 -115t-160.5 -42q-51 0 -101.5 10.5t-80.5 28.5l10 129q45 -25 93.5 -39t79.5 -14q49 0 49 30q0 17 -16.5 29t-42 22.5 t-55 23t-55 31t-42 45t-16.5 65.5q0 73 61 116t162 43q32 0 73.5 -5.5t83.5 -19.5zM146 -325q18 18 35 43.5t26 51.5q-26 5 -44 25.5t-18 50.5q0 35 26 61t64 26q33 0 59 -23.5t26 -71.5q0 -43 -21 -83t-49.5 -72t-52.5 -53z" />
<glyph unicode="&#x21a;" horiz-adv-x="585" d="M385 0h-185v554q-47 -1 -94.5 -3t-95.5 -5l10 144h545l10 -144q-48 3 -95.5 5t-94.5 3v-554zM206 -325q18 18 35 43.5t26 51.5q-26 5 -44 25.5t-18 50.5q0 35 26 61t64 26q33 0 59 -23.5t26 -71.5q0 -43 -20.5 -83t-49.5 -72t-53 -53z" />
<glyph unicode="&#x21b;" horiz-adv-x="419" d="M391 410l-141 4v-223q0 -40 16.5 -58t44.5 -18q20 0 39.5 6.5t38.5 17.5l10 -108q-25 -16 -63 -28.5t-85 -12.5q-85 0 -133 51t-48 149v228l-65 2v60l70 20l45 131l110 8l22 -21l-2 -118h137l12 -20zM132 -325q18 18 35 43.5t26 51.5q-26 5 -44 25.5t-18 50.5q0 35 26 61 t64 26q33 0 59 -23.5t26 -71.5q0 -43 -20.5 -83t-49.5 -72t-53 -53z" />
<glyph unicode="&#x232;" horiz-adv-x="584" d="M166 799v96h298v-96h-298zM199 216l-196 465l198 19l61 -194q12 -37 26 -81t21 -70h3q6 18 15 44t18.5 54.5t16.5 50.5l61 196l148 -10l10 -19l-197 -455v-216h-185v216z" />
<glyph unicode="&#x233;" horiz-adv-x="507" d="M115 618v96h298v-96h-298zM502 480l-125 -427q-18 -61 -41.5 -117t-59.5 -100t-92 -70t-138 -26l-25 150q78 0 133 26.5t79 83.5h-85l-143 495l190 15l55 -263q7 -31 13.5 -69t8.5 -68h3q3 30 10.5 67t14.5 70l54 263l138 -10z" />
<glyph unicode="&#x237;" horiz-adv-x="298" d="M70 -260l-70 60q29 48 43.5 106.5t14.5 138.5v268q0 45 -3.5 87.5t-11.5 90.5l175 19l20 -20v-440q0 -75 -14.5 -130.5t-50.5 -98t-103 -81.5z" />
<glyph unicode="&#x259;" horiz-adv-x="536" d="M31 255l15 15h268q-6 67 -33.5 88.5t-70.5 21.5q-36 0 -76 -10.5t-75 -29.5l-10 126q35 20 92.5 32t112.5 12q74 0 129.5 -25t86.5 -77.5t31 -136.5q0 -89 -33.5 -152t-91 -96t-130.5 -33q-67 0 -115.5 27.5t-74.5 76t-26 110.5v24.5t1 26.5zM205 175q0 -36 10.5 -60.5 t37.5 -24.5q30 0 45.5 32.5t17.5 90.5l-109 -6q-1 -5 -1.5 -13.5t-0.5 -18.5z" />
<glyph unicode="&#x272;" horiz-adv-x="588" d="M70 -260l-70 60q29 48 43.5 106.5t14.5 138.5v268q0 43 -5 82.5t-15 85.5l170 29q6 -17 12 -34.5t10 -35.5q74 70 158 70q65 0 102.5 -43t37.5 -117v-350h-180v317q0 73 -57 73q-25 0 -53 -16v-324q0 -75 -14.5 -130.5t-50.5 -98t-103 -81.5z" />
<glyph unicode="&#x2c6;" horiz-adv-x="437" d="M102 553l-57 40q34 43 62 83.5t53 80.5l117 10q26 -43 53.5 -85.5t61.5 -88.5l-57 -40q-32 20 -61 44.5t-56 48.5q-26 -24 -55 -48.5t-61 -44.5z" />
<glyph unicode="&#x2c7;" horiz-adv-x="437" d="M335 779l57 -40q-34 -43 -61.5 -83.5t-53.5 -80.5l-117 -10q-25 43 -53 85.5t-62 88.5l57 40q32 -20 61 -44.5t56 -48.5q26 24 55 48.5t61 44.5z" />
<glyph unicode="&#x2d8;" horiz-adv-x="405" d="M291 765l69 9q-2 -56 -22.5 -101t-56 -70.5t-84.5 -25.5q-63 0 -105.5 48.5t-46.5 130.5l70 10q8 -37 32 -58t56 -21q34 0 57.5 22.5t30.5 55.5z" />
<glyph unicode="&#x2d9;" horiz-adv-x="300" d="M255 677q0 -30 -15.5 -55.5t-41 -40.5t-57.5 -15q-43 0 -69.5 26.5t-26.5 63.5q0 30 16.5 55t43.5 40t58 15q40 0 66 -24t26 -65z" />
<glyph unicode="&#x2da;" horiz-adv-x="344" d="M299 678q0 -34 -18.5 -62t-49.5 -45t-69 -17q-53 0 -85 30t-32 71q0 34 19.5 62t52 45t70.5 17q49 0 80.5 -28t31.5 -73zM116 661q0 -21 14 -36t37 -15q25 0 43 18.5t18 43.5q0 24 -13 37.5t-34 13.5q-26 0 -45.5 -18.5t-19.5 -43.5z" />
<glyph unicode="&#x2db;" horiz-adv-x="365" d="M308 0q-54 -25 -84.5 -57.5t-30.5 -63.5q0 -18 10.5 -29.5t32.5 -11.5q10 0 24 3t30 10l25 -59q-28 -25 -66 -41.5t-79 -16.5q-51 0 -85.5 29t-34.5 78q0 52 48.5 99t130.5 75z" />
<glyph unicode="&#x2dc;" horiz-adv-x="427" d="M152 762q34 0 60.5 -14.5t50.5 -28.5t49 -14q20 0 30.5 11.5t21.5 31.5l49 -7q0 -42 -11 -81t-34 -64.5t-61 -25.5q-30 0 -60 14t-57 28.5t-49 14.5q-14 0 -26 -10t-24 -33l-48 7q0 41 10 80.5t34 65t65 25.5z" />
<glyph unicode="&#x2dd;" horiz-adv-x="443" d="M228 766l10 -30q-25 -49 -56 -91.5t-68 -78.5l-70 10q17 49 31.5 99t24.5 99zM421 766l10 -30q-25 -49 -56 -91.5t-68 -78.5l-70 10q17 49 31.5 99t24.5 99z" />
<glyph unicode="&#x394;" horiz-adv-x="650" d="M222 690h210l213 -670l-2 -20h-636l-2 20zM204 134h207l-103 364z" />
<glyph unicode="&#x3a9;" horiz-adv-x="805" d="M342 0h-292l-25 125l20 20l210 -56q-51 27 -89 74t-59.5 104.5t-21.5 116.5q0 64 24 121t68 101t103.5 69t131.5 25t129 -25t97 -69t61 -100.5t21 -118.5q0 -63 -22 -121.5t-61 -104.5t-90 -73l213 57l20 -20l-25 -125h-292l-20 77q34 47 60.5 117t26.5 164 q0 52 -11.5 99.5t-38.5 77.5t-75 30q-45 0 -73.5 -28t-42.5 -75t-14 -105q0 -62 13.5 -113.5t33.5 -92.5t40 -74z" />
<glyph unicode="&#x3bc;" horiz-adv-x="580" d="M55 313q0 47 -3 89t-11 88l174 20l20 -20v-299q0 -68 54 -68q25 0 51 13v364l180 10v-380q0 -29 4.5 -65t11.5 -65l-148 -10q-8 15 -15.5 33t-13.5 40h-6q-31 -33 -68.5 -51.5t-76.5 -21.5h-13q20 -35 28.5 -74t13 -77t12.5 -70l-174 -19l-20 20v543z" />
<glyph unicode="&#x3c0;" horiz-adv-x="645" d="M80 0v371l-85 -1l23 130l597 10l10 -20l-33 -110l-52 -1v-164q0 -37 6.5 -56t26.5 -19q17 0 37 10l-10 -150q-24 -4 -50 -7t-50 -3q-61 0 -100.5 40t-39.5 130v216l-100 -2v-374h-180z" />
<glyph unicode="&#x1e0c;" horiz-adv-x="692" d="M662 351q0 -114 -48.5 -192t-130.5 -118.5t-182 -40.5h-236v511q0 45 -1 88.5t-9 90.5h266q108 0 184 -41t116.5 -117t40.5 -181zM311 560h-61v-430h67q59 0 92.5 28t48 76t14.5 108q0 58 -15 107.5t-50.5 80t-95.5 30.5zM466 -155q0 -30 -15.5 -55.5t-41 -40.5 t-57.5 -15q-43 0 -69.5 26.5t-26.5 63.5q0 30 16.5 55t43.5 40t58 15q40 0 66 -24t26 -65z" />
<glyph unicode="&#x1e0d;" horiz-adv-x="587" d="M361 56q-51 -66 -135 -66q-85 0 -138 63t-53 175q0 91 35 153.5t97.5 95.5t143.5 33q18 0 35 -2v55q0 47 -3 89.5t-11 88.5l174 19l20 -20v-610q0 -31 6 -67t15 -63l-152 -10q-7 11 -14 26.5t-16 39.5h-4zM220 253q0 -71 22 -117t65 -46q21 0 39 11v319h-8 q-61 0 -89.5 -44t-28.5 -123zM399 -155q0 -30 -15.5 -55.5t-41 -40.5t-57.5 -15q-43 0 -69.5 26.5t-26.5 63.5q0 30 16.5 55t43.5 40t58 15q40 0 66 -24t26 -65z" />
<glyph unicode="&#x1e24;" horiz-adv-x="715" d="M250 0h-185v503q0 52 -2.5 99.5t-7.5 87.5l175 10l20 -20v-273h215v96q0 52 -2.5 99.5t-7.5 87.5l175 10l20 -20v-680h-185v277h-215v-277zM463 -155q0 -30 -15.5 -55.5t-41 -40.5t-57.5 -15q-43 0 -69.5 26.5t-26.5 63.5q0 30 16.5 55t43.5 40t58 15q40 0 66 -24t26 -65 z" />
<glyph unicode="&#x1e25;" horiz-adv-x="580" d="M230 0h-180v563q0 45 -3.5 87.5t-11.5 90.5l175 19l20 -20v-293q71 63 150 63q65 0 102.5 -43t37.5 -117v-350h-180v317q0 73 -57 73q-25 0 -53 -16v-374zM395 -155q0 -30 -15.5 -55.5t-41 -40.5t-57.5 -15q-43 0 -69.5 26.5t-26.5 63.5q0 30 16.5 55t43.5 40t58 15 q40 0 66 -24t26 -65z" />
<glyph unicode="&#x1e44;" horiz-adv-x="710" d="M443 870q0 -45 -32.5 -74.5t-79.5 -29.5q-40 0 -67 24t-27 58q0 28 16 50.5t43 36.5t58 14q37 0 63 -21.5t26 -57.5zM384 441q55 -93 96 -195h3q-5 40 -8 71t-4 61t-1 68q0 67 -2.5 128t-7.5 116l165 8l20 -20v-678h-175q-45 75 -79 138t-66 115q-28 47 -51.5 92 t-43.5 90h-3q9 -58 11 -103.5t2 -88.5v-243h-175v511q0 45 -2.5 92t-7.5 87l185 7q44 -79 78.5 -140.5t65.5 -115.5z" />
<glyph unicode="&#x1e45;" horiz-adv-x="585" d="M391 675q0 -30 -15.5 -55.5t-41 -40.5t-57.5 -15q-43 0 -69.5 26.5t-26.5 63.5q0 30 16.5 55t43.5 40t58 15q40 0 66 -24t26 -65zM235 0h-180v313q0 43 -5 82.5t-15 85.5l170 29q6 -17 12 -34.5t10 -35.5q74 70 158 70q65 0 102.5 -43t37.5 -117v-350h-180v317 q0 73 -57 73q-25 0 -53 -16v-374z" />
<glyph unicode="&#x1e5a;" horiz-adv-x="627" d="M250 0h-185v511q0 45 -1 88.5t-9 90.5h246q143 0 217 -59.5t74 -163.5q0 -73 -32.5 -120.5t-80.5 -71.5l148 -275l-215 -5q-25 54 -49 113t-46 119h-67v-227zM288 560h-38v-208h38q65 0 89.5 29t24.5 75q0 49 -25 76.5t-89 27.5zM425 -155q0 -30 -15.5 -55.5t-41 -40.5 t-57.5 -15q-43 0 -69.5 26.5t-26.5 63.5q0 30 16.5 55t43.5 40t58 15q40 0 66 -24t26 -65z" />
<glyph unicode="&#x1e5b;" horiz-adv-x="416" d="M235 0h-180v313q0 43 -5 82.5t-15 85.5l170 29q11 -28 18.5 -57t11.5 -63v0q20 52 47.5 86t73.5 34q32 0 50 -15l-12 -171q-16 4 -33 6t-35 2q-24 0 -48 -5t-43 -15v-312zM252 -155q0 -30 -15.5 -55.5t-41 -40.5t-57.5 -15q-43 0 -69.5 26.5t-26.5 63.5q0 30 16.5 55 t43.5 40t58 15q40 0 66 -24t26 -65z" />
<glyph unicode="&#x1e62;" horiz-adv-x="550" d="M510 197q0 -68 -34.5 -114.5t-94.5 -69.5t-139 -23q-37 0 -77 5t-73.5 14t-51.5 20l10 151q25 -15 60.5 -26.5t71.5 -17.5t62 -6q76 0 76 54q0 30 -20.5 50t-53 36t-67.5 33q-34 18 -66 41t-52 58.5t-20 87.5q0 69 36 115.5t99 70.5t144 24q47 0 92.5 -7t72.5 -18 l-20 -155q-34 19 -73.5 29.5t-74.5 10.5q-43 0 -64.5 -15.5t-21.5 -42.5t20 -45.5t51.5 -33.5t65.5 -33q35 -17 67.5 -41t53.5 -60.5t21 -91.5zM394 -155q0 -30 -15.5 -55.5t-41 -40.5t-57.5 -15q-43 0 -69.5 26.5t-26.5 63.5q0 30 16.5 55t43.5 40t58 15q40 0 66 -24 t26 -65z" />
<glyph unicode="&#x1e63;" horiz-adv-x="452" d="M410 485l-10 -132q-40 20 -81 31t-67 11q-24 0 -38 -8.5t-14 -22.5q0 -16 16.5 -28t42 -22.5t55 -23t55 -30.5t42 -45.5t16.5 -67.5q0 -73 -59.5 -115t-160.5 -42q-51 0 -101.5 10.5t-80.5 28.5l10 129q45 -25 93.5 -39t79.5 -14q49 0 49 30q0 17 -16.5 29t-42 22.5 t-55 23t-55 31t-42 45t-16.5 65.5q0 73 61 116t162 43q32 0 73.5 -5.5t83.5 -19.5zM338 -155q0 -30 -15.5 -55.5t-41 -40.5t-57.5 -15q-43 0 -69.5 26.5t-26.5 63.5q0 30 16.5 55t43.5 40t58 15q40 0 66 -24t26 -65z" />
<glyph unicode="&#x1e6c;" horiz-adv-x="585" d="M385 0h-185v554q-47 -1 -94.5 -3t-95.5 -5l10 144h545l10 -144q-48 3 -95.5 5t-94.5 3v-554zM398 -155q0 -30 -15.5 -55.5t-41 -40.5t-57.5 -15q-43 0 -69.5 26.5t-26.5 63.5q0 30 16.5 55t43.5 40t58 15q40 0 66 -24t26 -65z" />
<glyph unicode="&#x1e6d;" horiz-adv-x="419" d="M391 410l-141 4v-223q0 -40 16.5 -58t44.5 -18q20 0 39.5 6.5t38.5 17.5l10 -108q-25 -16 -63 -28.5t-85 -12.5q-85 0 -133 51t-48 149v228l-65 2v60l70 20l45 131l110 8l22 -21l-2 -118h137l12 -20zM324 -155q0 -30 -15.5 -55.5t-41 -40.5t-57.5 -15q-43 0 -69.5 26.5 t-26.5 63.5q0 30 16.5 55t43.5 40t58 15q40 0 66 -24t26 -65z" />
<glyph unicode="&#x1e80;" horiz-adv-x="960" d="M627 761q-77 1 -151.5 15t-144.5 48l-10 29l107 91q48 -38 102 -74t109 -68zM174 0l-171 681l198 19l70 -348q9 -44 16.5 -91.5t12.5 -77.5q6 30 16.5 78t19.5 89l74 340l178 10l73 -348q10 -43 19.5 -91t15.5 -78q5 32 13.5 80.5t17.5 90.5l72 346l148 -10l10 -19 l-171 -671h-205l-53 223q-13 54 -23 108.5t-22 108.5h-3q-11 -55 -22.5 -110t-25.5 -110l-53 -220h-205z" />
<glyph unicode="&#x1e81;" horiz-adv-x="816" d="M465 566q-94 73 -156 170l10 30l160 8q10 -49 24.5 -99t31.5 -99zM121 0l-116 495l185 15l44 -253q5 -27 11 -59t8 -58h3q3 26 8.5 58t9.5 59l37 243h229l39 -243q5 -27 11 -59t8 -58h3q3 26 8.5 58t9.5 59l42 253l140 -10l10 -20l-116 -480h-230l-35 204q-7 39 -13.5 78 t-9.5 78h-3q-3 -40 -9.5 -78.5t-13.5 -78.5l-35 -203h-225z" />
<glyph unicode="&#x1e82;" horiz-adv-x="960" d="M639 853l-10 -29q-70 -34 -144.5 -48t-151.5 -15l-12 41q55 32 109 68t102 74zM174 0l-171 681l198 19l70 -348q9 -44 16.5 -91.5t12.5 -77.5q6 30 16.5 78t19.5 89l74 340l178 10l73 -348q10 -43 19.5 -91t15.5 -78q5 32 13.5 80.5t17.5 90.5l72 346l148 -10l10 -19 l-171 -671h-205l-53 223q-13 54 -23 108.5t-22 108.5h-3q-11 -55 -22.5 -110t-25.5 -110l-53 -220h-205z" />
<glyph unicode="&#x1e83;" horiz-adv-x="816" d="M525 766l10 -30q-62 -97 -156 -170l-70 10q17 49 31.5 99t24.5 99zM121 0l-116 495l185 15l44 -253q5 -27 11 -59t8 -58h3q3 26 8.5 58t9.5 59l37 243h229l39 -243q5 -27 11 -59t8 -58h3q3 26 8.5 58t9.5 59l42 253l140 -10l10 -20l-116 -480h-230l-35 204 q-7 39 -13.5 78t-9.5 78h-3q-3 -40 -9.5 -78.5t-13.5 -78.5l-35 -203h-225z" />
<glyph unicode="&#x1e84;" horiz-adv-x="960" d="M691 858q0 -39 -28.5 -65t-71.5 -26q-36 0 -58.5 21t-22.5 50q0 38 30 64.5t72 26.5q33 0 56 -19.5t23 -51.5zM450 858q0 -39 -28.5 -65t-71.5 -26q-36 0 -58.5 21t-22.5 50q0 38 30 64.5t72 26.5q33 0 56 -19.5t23 -51.5zM174 0l-171 681l198 19l70 -348 q9 -44 16.5 -91.5t12.5 -77.5q6 30 16.5 78t19.5 89l74 340l178 10l73 -348q10 -43 19.5 -91t15.5 -78q5 32 13.5 80.5t17.5 90.5l72 346l148 -10l10 -19l-171 -671h-205l-53 223q-13 54 -23 108.5t-22 108.5h-3q-11 -55 -22.5 -110t-25.5 -110l-53 -220h-205z" />
<glyph unicode="&#x1e85;" horiz-adv-x="816" d="M397 676q0 -42 -30 -72t-73 -30q-40 0 -63.5 24.5t-23.5 58.5q0 28 15 51t39.5 37t52.5 14q36 0 59.5 -22.5t23.5 -60.5zM636 676q0 -42 -30 -72t-73 -30q-40 0 -63.5 24.5t-23.5 58.5q0 28 15 51t39.5 37t52.5 14q36 0 59.5 -22.5t23.5 -60.5zM121 0l-116 495l185 15 l44 -253q5 -27 11 -59t8 -58h3q3 26 8.5 58t9.5 59l37 243h229l39 -243q5 -27 11 -59t8 -58h3q3 26 8.5 58t9.5 59l42 253l140 -10l10 -20l-116 -480h-230l-35 204q-7 39 -13.5 78t-9.5 78h-3q-3 -40 -9.5 -78.5t-13.5 -78.5l-35 -203h-225z" />
<glyph unicode="&#x1e92;" horiz-adv-x="584" d="M60 0l-30 120l311 419l-296 -9l10 160h447l47 -120l-307 -418l300 8l-10 -160h-472zM397 -155q0 -30 -15.5 -55.5t-41 -40.5t-57.5 -15q-43 0 -69.5 26.5t-26.5 63.5q0 30 16.5 55t43.5 40t58 15q40 0 66 -24t26 -65z" />
<glyph unicode="&#x1e93;" horiz-adv-x="460" d="M23 355l10 145h377l20 -115l-211 -245h61q41 0 81.5 2.5t78.5 7.5l-10 -150h-390l-20 115l220 244zM335 -155q0 -30 -15.5 -55.5t-41 -40.5t-57.5 -15q-43 0 -69.5 26.5t-26.5 63.5q0 30 16.5 55t43.5 40t58 15q40 0 66 -24t26 -65z" />
<glyph unicode="&#x1e9e;" horiz-adv-x="710" d="M67 187v263q0 79 35.5 135t98.5 85.5t147 29.5q69 0 125.5 -20.5t94.5 -61t49 -100.5l-124 -137q51 -22 91 -50t63 -66.5t23 -91.5q0 -61 -28.5 -102t-77 -61t-107.5 -20q-40 0 -81 8t-67 21v151q23 -16 53.5 -28t59.5 -12q26 0 42 10.5t16 36.5q0 19 -12 36.5t-48.5 41 t-110.5 61.5v39l117 153q-10 25 -32.5 39t-51.5 14q-40 0 -65 -32t-25 -95v-316q0 -21 -3.5 -47t-12 -48t-22.5 -33l-169 10q12 35 17 87.5t5 99.5z" />
<glyph unicode="&#x1ea0;" horiz-adv-x="650" d="M180 0h-175l166 580q9 31 16 59.5t11 50.5l224 9l30 -25l193 -674h-185l-35 130h-210zM262 305l-12 -45h140l-12 44q-22 85 -35.5 144.5t-19.5 93.5h-5q-4 -22 -12.5 -59.5t-19.5 -83.5t-24 -94zM430 -155q0 -30 -15.5 -55.5t-41 -40.5t-57.5 -15q-43 0 -69.5 26.5 t-26.5 63.5q0 30 16.5 55t43.5 40t58 15q40 0 66 -24t26 -65z" />
<glyph unicode="&#x1ea1;" horiz-adv-x="526" d="M304 58q-21 -31 -59.5 -49.5t-85.5 -18.5q-57 0 -95.5 30.5t-38.5 92.5q0 56 34 91.5t93.5 53t137.5 19.5v28q0 75 -80 75q-36 0 -76 -10.5t-75 -29.5l-10 135q38 13 95.5 24t112.5 11q213 0 213 -187q0 -53 -2.5 -96.5t-2.5 -96.5q0 -34 6.5 -70t14.5 -60l-148 -10 q-10 16 -17 33.5t-12 34.5h-5zM200 145q0 -25 14 -40t37 -15q21 0 39 12v123q-38 -4 -64 -24t-26 -56zM367 -155q0 -30 -15.5 -55.5t-41 -40.5t-57.5 -15q-43 0 -69.5 26.5t-26.5 63.5q0 30 16.5 55t43.5 40t58 15q40 0 66 -24t26 -65z" />
<glyph unicode="&#x1eb8;" horiz-adv-x="555" d="M530 140v-140h-465v511q0 45 -1 88.5t-9 90.5h449l20 -20l-4 -120l-270 10v-161l220 5l-5 -127l-215 7v-154zM423 -155q0 -30 -15.5 -55.5t-41 -40.5t-57.5 -15q-43 0 -69.5 26.5t-26.5 63.5q0 30 16.5 55t43.5 40t58 15q40 0 66 -24t26 -65z" />
<glyph unicode="&#x1eb9;" horiz-adv-x="536" d="M505 245l-15 -15h-266q11 -62 46.5 -88.5t89.5 -26.5q34 0 63.5 8t53.5 21l10 -113q-24 -15 -69 -28t-108 -13q-82 0 -144 29t-96.5 85.5t-34.5 137.5q0 80 33.5 140.5t91.5 94t131 33.5q67 0 115 -27.5t74 -76t26 -110.5v-24.5t-1 -26.5zM284 410q-33 0 -48.5 -36.5 t-15.5 -86.5l109 6q1 7 1.5 15t0.5 21q0 32 -10.5 56.5t-36.5 24.5zM395 -155q0 -30 -15.5 -55.5t-41 -40.5t-57.5 -15q-43 0 -69.5 26.5t-26.5 63.5q0 30 16.5 55t43.5 40t58 15q40 0 66 -24t26 -65z" />
<glyph unicode="&#x1ebc;" horiz-adv-x="555" d="M225 943q34 0 59 -14.5t48 -28.5t49 -14q21 0 32.5 11.5t24.5 31.5l44 -7q0 -37 -11 -71.5t-34 -57t-61 -22.5q-30 0 -58.5 14t-54.5 28.5t-49 14.5q-16 0 -28.5 -10t-26.5 -33l-44 7q0 36 10 71t34 57.5t66 22.5zM530 140v-140h-465v511q0 45 -1 88.5t-9 90.5h449 l20 -20l-4 -120l-270 10v-161l220 5l-5 -127l-215 7v-154z" />
<glyph unicode="&#x1ebd;" horiz-adv-x="536" d="M192 762q34 0 60.5 -14.5t50.5 -28.5t49 -14q20 0 30.5 11.5t21.5 31.5l49 -7q0 -42 -11 -81t-34 -64.5t-61 -25.5q-30 0 -60 14t-57 28.5t-49 14.5q-14 0 -26 -10t-24 -33l-48 7q0 41 10 80.5t34 65t65 25.5zM505 245l-15 -15h-266q11 -62 46.5 -88.5t89.5 -26.5 q34 0 63.5 8t53.5 21l10 -113q-24 -15 -69 -28t-108 -13q-82 0 -144 29t-96.5 85.5t-34.5 137.5q0 80 33.5 140.5t91.5 94t131 33.5q67 0 115 -27.5t74 -76t26 -110.5v-24.5t-1 -26.5zM284 410q-33 0 -48.5 -36.5t-15.5 -86.5l109 6q1 7 1.5 15t0.5 21q0 32 -10.5 56.5 t-36.5 24.5z" />
<glyph unicode="&#x1eca;" horiz-adv-x="315" d="M250 0h-185v503q0 52 -2.5 99.5t-7.5 87.5l175 10l20 -20v-680zM264 -155q0 -30 -15.5 -55.5t-41 -40.5t-57.5 -15q-43 0 -69.5 26.5t-26.5 63.5q0 30 16.5 55t43.5 40t58 15q40 0 66 -24t26 -65z" />
<glyph unicode="&#x1ecb;" horiz-adv-x="295" d="M253 675q0 -30 -15.5 -55.5t-41 -40.5t-57.5 -15q-43 0 -69.5 26.5t-26.5 63.5q0 30 16.5 55t43.5 40t58 15q40 0 66 -24t26 -65zM55 0v313q0 45 -3.5 87.5t-11.5 90.5l175 19l20 -20v-490h-180zM257 -155q0 -30 -15.5 -55.5t-41 -40.5t-57.5 -15q-43 0 -69.5 26.5 t-26.5 63.5q0 30 16.5 55t43.5 40t58 15q40 0 66 -24t26 -65z" />
<glyph unicode="&#x1ecc;" horiz-adv-x="715" d="M685 347q0 -116 -45 -195.5t-121 -120.5t-170 -41t-166 41t-112.5 118t-40.5 185q0 112 43 194t119.5 127t174.5 45q99 0 170 -44.5t109.5 -123.5t38.5 -185zM220 350q0 -60 14 -111.5t45 -82.5t80 -31q52 0 81.5 29t42 79t12.5 112q0 61 -12.5 111t-41.5 79.5t-81 29.5 q-48 0 -79 -27.5t-46 -76t-15 -111.5zM473 -155q0 -30 -15.5 -55.5t-41 -40.5t-57.5 -15q-43 0 -69.5 26.5t-26.5 63.5q0 30 16.5 55t43.5 40t58 15q40 0 66 -24t26 -65z" />
<glyph unicode="&#x1ecd;" horiz-adv-x="568" d="M533 253q0 -87 -35.5 -145.5t-94 -88t-126.5 -29.5t-123 28.5t-87 84.5t-32 137q0 84 34 144.5t92.5 93t130.5 32.5t126.5 -31.5t84.5 -89t30 -136.5zM220 255q0 -76 14 -120.5t52 -44.5q39 0 50.5 43t11.5 110q0 80 -13.5 123.5t-51.5 43.5q-35 0 -49 -38t-14 -117z M389 -155q0 -30 -15.5 -55.5t-41 -40.5t-57.5 -15q-43 0 -69.5 26.5t-26.5 63.5q0 30 16.5 55t43.5 40t58 15q40 0 66 -24t26 -65z" />
<glyph unicode="&#x1ee4;" horiz-adv-x="680" d="M55 503q0 47 -2 92.5t-8 94.5l175 10l20 -20v-424q0 -127 106 -127q104 0 104 127v287q0 44 -2.5 78t-7.5 69l185 8v-458q0 -83 -39.5 -139t-105 -83.5t-144.5 -27.5t-142.5 28t-101 83.5t-37.5 138.5v263zM445 -155q0 -30 -15.5 -55.5t-41 -40.5t-57.5 -15 q-43 0 -69.5 26.5t-26.5 63.5q0 30 16.5 55t43.5 40t58 15q40 0 66 -24t26 -65z" />
<glyph unicode="&#x1ee5;" horiz-adv-x="580" d="M55 312q0 47 -3 89.5t-11 88.5l174 20l20 -20v-299q0 -68 54 -68q25 0 51 13v364l180 10v-380q0 -29 4.5 -65t11.5 -65l-148 -10q-8 15 -15.5 33t-13.5 40h-6q-69 -73 -156 -73q-64 0 -103 39.5t-39 104.5v178zM397 -155q0 -30 -15.5 -55.5t-41 -40.5t-57.5 -15 q-43 0 -69.5 26.5t-26.5 63.5q0 30 16.5 55t43.5 40t58 15q40 0 66 -24t26 -65z" />
<glyph unicode="&#x1ef2;" horiz-adv-x="584" d="M462 761q-77 1 -151.5 15t-144.5 48l-10 29l107 91q48 -38 102 -74t109 -68zM199 216l-196 465l198 19l61 -194q12 -37 26 -81t21 -70h3q6 18 15 44t18.5 54.5t16.5 50.5l61 196l148 -10l10 -19l-197 -455v-216h-185v216z" />
<glyph unicode="&#x1ef3;" horiz-adv-x="507" d="M307 566q-94 73 -156 170l10 30l160 8q10 -49 24.5 -99t31.5 -99zM502 480l-125 -427q-18 -61 -41.5 -117t-59.5 -100t-92 -70t-138 -26l-25 150q78 0 133 26.5t79 83.5h-85l-143 495l190 15l55 -263q7 -31 13.5 -69t8.5 -68h3q3 30 10.5 67t14.5 70l54 263l138 -10z" />
<glyph unicode="&#x1ef8;" horiz-adv-x="584" d="M241 933q34 0 59 -14.5t48 -28.5t49 -14q21 0 32.5 11.5t24.5 31.5l44 -7q0 -37 -11 -71.5t-34 -57t-61 -22.5q-30 0 -58.5 14t-54.5 28.5t-49 14.5q-16 0 -28.5 -10t-26.5 -33l-44 7q0 36 10 71t34 57.5t66 22.5zM199 216l-196 465l198 19l61 -194q12 -37 26 -81t21 -70 h3q6 18 15 44t18.5 54.5t16.5 50.5l61 196l148 -10l10 -19l-197 -455v-216h-185v216z" />
<glyph unicode="&#x1ef9;" horiz-adv-x="507" d="M188 762q34 0 60.5 -14.5t50.5 -28.5t49 -14q20 0 30.5 11.5t21.5 31.5l49 -7q0 -42 -11 -81t-34 -64.5t-61 -25.5q-30 0 -60 14t-57 28.5t-49 14.5q-14 0 -26 -10t-24 -33l-48 7q0 41 10 80.5t34 65t65 25.5zM502 480l-125 -427q-18 -61 -41.5 -117t-59.5 -100t-92 -70 t-138 -26l-25 150q78 0 133 26.5t79 83.5h-85l-143 495l190 15l55 -263q7 -31 13.5 -69t8.5 -68h3q3 30 10.5 67t14.5 70l54 263l138 -10z" />
<glyph unicode="&#x2007;" />
<glyph unicode="&#x2013;" horiz-adv-x="595" d="M30 251v50h535v-50h-535z" />
<glyph unicode="&#x2014;" horiz-adv-x="924" d="M30 251v50h864v-50h-864z" />
<glyph unicode="&#x2018;" horiz-adv-x="298" d="M263 731q-24 -27 -48.5 -63.5t-35.5 -76.5q31 -6 52.5 -31t21.5 -61q0 -29 -14.5 -54t-39 -40t-54.5 -15q-40 0 -70 27t-30 82q0 42 17 83.5t43.5 79t55 67.5t51.5 49z" />
<glyph unicode="&#x2019;" horiz-adv-x="298" d="M35 419q24 27 48.5 63.5t35.5 76.5q-31 6 -52.5 31t-21.5 61q0 29 14.5 54t39 40t54.5 15q40 0 70 -26.5t30 -82.5q0 -42 -17 -83t-43.5 -78.5t-55 -68t-51.5 -49.5z" />
<glyph unicode="&#x201a;" horiz-adv-x="298" d="M35 -148q24 27 48.5 63.5t35.5 76.5q-31 6 -52.5 31t-21.5 61q0 29 14.5 54t39 40t54.5 15q40 0 70 -26.5t30 -82.5q0 -42 -17 -83t-43.5 -78.5t-55 -68t-51.5 -49.5z" />
<glyph unicode="&#x201c;" horiz-adv-x="568" d="M263 731q-24 -27 -48.5 -63.5t-35.5 -76.5q31 -6 52.5 -31t21.5 -61q0 -29 -14.5 -54t-39 -40t-54.5 -15q-40 0 -70 27t-30 82q0 42 17 83.5t43.5 79t55 67.5t51.5 49zM533 731q-24 -27 -48.5 -63.5t-35.5 -76.5q31 -6 52.5 -31t21.5 -61q0 -29 -14.5 -54t-39 -40 t-54.5 -15q-40 0 -70 27t-30 82q0 42 17 83.5t43.5 79t55 67.5t51.5 49z" />
<glyph unicode="&#x201d;" horiz-adv-x="568" d="M305 419q24 27 48.5 63.5t35.5 76.5q-31 6 -52.5 31t-21.5 61q0 29 14.5 54t39 40t54.5 15q40 0 70 -26.5t30 -82.5q0 -42 -17 -83t-43.5 -78.5t-55 -68t-51.5 -49.5zM35 419q24 27 48.5 63.5t35.5 76.5q-31 6 -52.5 31t-21.5 61q0 29 14.5 54t39 40t54.5 15 q40 0 70 -26.5t30 -82.5q0 -42 -17 -83t-43.5 -78.5t-55 -68t-51.5 -49.5z" />
<glyph unicode="&#x201e;" horiz-adv-x="562" d="M35 -148q24 27 48.5 63.5t35.5 76.5q-31 6 -52.5 31t-21.5 61q0 29 14.5 54t39 40t54.5 15q40 0 70 -26.5t30 -82.5q0 -42 -17 -83t-43.5 -78.5t-55 -68t-51.5 -49.5zM299 -148q24 27 48.5 63.5t35.5 76.5q-31 6 -52.5 31t-21.5 61q0 29 14.5 54t39 40t54.5 15 q40 0 70 -26.5t30 -82.5q0 -42 -17 -83t-43.5 -78.5t-55 -68t-51.5 -49.5z" />
<glyph unicode="&#x2020;" horiz-adv-x="506" d="M308 14l-8 -14h-94l-8 14l-43 134l55 294l-159 -22l-4 3q-3 23 -5 55.5t-2 61.5l14 8l153 -22l-42 163l3 4q33 3 78 5t87 2l8 -8l-42 -166l156 22l4 -3q2 -23 4.5 -55.5t2.5 -61.5l-14 -8l-156 22l55 -294z" />
<glyph unicode="&#x2021;" horiz-adv-x="506" d="M167 -10l-8 8l51 169l-156 -35l-14 8q0 20 1 46t2.5 51t3.5 40l4 3l161 -35q-7 27 -13.5 53t-6.5 47q0 20 6.5 46.5t13.5 53.5l-161 -35l-4 3q-2 16 -3.5 40.5t-2.5 51t-1 45.5l14 8l156 -35l-51 166l3 4q35 3 83.5 5t93.5 2l8 -8l-51 -169l159 35l4 -3q2 -15 3.5 -40 t2.5 -51t1 -46l-14 -8l-158 35q7 -27 13.5 -53.5t6.5 -46.5t-6.5 -46.5t-13.5 -53.5l158 35l14 -8q0 -19 -1 -45.5t-2.5 -51t-3.5 -40.5l-4 -3l-159 35l51 -166l-3 -4q-35 -3 -83.5 -5t-93.5 -2z" />
<glyph unicode="&#x2022;" horiz-adv-x="524" d="M256 88q-45 0 -79.5 19t-54.5 51t-22 70q-2 47 22 86t65.5 63t89.5 24q62 0 103.5 -39t43.5 -101q2 -48 -19.5 -87t-60.5 -62.5t-88 -23.5z" />
<glyph unicode="&#x2026;" horiz-adv-x="848" d="M254 93q0 -43 -30.5 -73t-75.5 -30q-46 0 -74 29.5t-28 69.5q0 29 15 52.5t40 37.5t55 14q42 0 70 -27.5t28 -72.5zM528 93q0 -43 -30.5 -73t-75.5 -30q-46 0 -74 29.5t-28 69.5q0 29 15 52.5t40 37.5t55 14q42 0 70 -27.5t28 -72.5zM802 93q0 -43 -30.5 -73t-75.5 -30 q-46 0 -74 29.5t-28 69.5q0 29 15 52.5t40 37.5t55 14q42 0 70 -27.5t28 -72.5z" />
<glyph unicode="&#x2030;" horiz-adv-x="1440" d="M738 700l-425 -710h-65l424 710h66zM445 499q0 -68 -29.5 -113.5t-77.5 -68.5t-104 -23t-101.5 22.5t-71.5 66t-26 106.5q0 66 28 113t76 72.5t108 25.5q89 0 143.5 -54.5t54.5 -146.5zM189 501q0 -59 11 -93t42 -34q32 0 40.5 33.5t8.5 83.5q0 62 -10.5 95.5t-41.5 33.5 q-28 0 -39 -29t-11 -90zM921 127q0 -68 -29.5 -113.5t-77.5 -68.5t-104 -23t-101.5 22.5t-71.5 66t-26 106.5q0 66 28 113t76 72.5t108 25.5q89 0 143.5 -54.5t54.5 -146.5zM1405 127q0 -68 -29.5 -113.5t-77.5 -68.5t-104 -23t-101.5 22.5t-71.5 66t-26 106.5q0 66 28 113 t76 72.5t108 25.5q89 0 143.5 -54.5t54.5 -146.5zM665 129q0 -59 11 -93t42 -34q32 0 40.5 33.5t8.5 83.5q0 62 -10.5 95.5t-41.5 33.5q-28 0 -39 -29t-11 -90zM1149 129q0 -59 11 -93t42 -34q32 0 40.5 33.5t8.5 83.5q0 62 -10.5 95.5t-41.5 33.5q-28 0 -39 -29t-11 -90z " />
<glyph unicode="&#x2039;" horiz-adv-x="295" d="M37 269v48q46 37 88.5 82.5t84.5 100.5l46 -18q-12 -53 -35 -100.5t-51 -88.5q28 -41 51 -88.5t35 -100.5l-46 -18q-42 56 -84.5 101t-88.5 82z" />
<glyph unicode="&#x203a;" horiz-adv-x="295" d="M258 269q-46 -37 -88.5 -82t-84.5 -101l-46 18q12 53 35 100.5t51 88.5q-28 41 -51 88.5t-35 100.5l46 18q42 -55 84.5 -100.5t88.5 -82.5v-48z" />
<glyph unicode="&#x2044;" horiz-adv-x="630" d="M560 700l-425 -710h-65l424 710h66z" />
<glyph unicode="&#x2070;" horiz-adv-x="454" d="M419 557q0 -70 -27.5 -117.5t-72 -71.5t-97.5 -24q-52 0 -94.5 23.5t-67.5 69t-25 111.5q0 67 26 116t71 75.5t101 26.5q83 0 134.5 -57t51.5 -152zM173 558q0 -65 10.5 -103t45.5 -38q25 0 36 17.5t13.5 48.5t2.5 69q0 67 -10 103.5t-46 36.5q-32 0 -42 -32.5 t-10 -101.5z" />
<glyph unicode="&#x2074;" horiz-adv-x="437" d="M35 512l151 248l148 6l15 -13v-229q28 2 53 5l-7 -93h-46v-84h-126v84h-174zM142 524v-2q5 0 23.5 0.5t56.5 0.5v40q0 23 1 57t5 62h-2z" />
<glyph unicode="&#x2075;" horiz-adv-x="414" d="M60 358l11 84q18 -6 47 -10t47 -4q28 0 47.5 11.5t19.5 38.5q0 26 -16.5 36t-41.5 10t-46.5 -5.5t-39.5 -12.5l-18 10v242h177q26 0 52.5 1t51.5 5l-7 -101h-167v-60q25 5 51 5q61 0 101 -31t40 -90q0 -48 -27 -79.5t-72 -47.5t-101 -16q-26 0 -54.5 3.5t-54.5 10.5z" />
<glyph unicode="&#x2076;" horiz-adv-x="419" d="M214 344q-47 0 -88 18.5t-66 58.5t-25 102q0 67 30.5 122t88 88t138.5 33q18 0 33.5 -2t22.5 -4l-11 -88q-10 2 -22.5 4t-23.5 2q-34 0 -69.5 -21t-46.5 -66h2q13 2 31 4.5t38 2.5q60 0 96.5 -30.5t36.5 -86.5q0 -44 -22.5 -75t-60 -46.5t-82.5 -15.5zM203 525 q-7 0 -15.5 -2t-15.5 -4q-1 -60 5.5 -81t27.5 -21q23 0 30 15.5t7 37.5q0 55 -39 55z" />
<glyph unicode="&#x2077;" horiz-adv-x="369" d="M30 651l9 107h304l16 -14v-67q-82 -75 -115.5 -152.5t-35.5 -172.5h-138q6 93 52.5 175t116.5 134v2h-66q-40 0 -76 -2.5t-67 -9.5z" />
<glyph unicode="&#x2078;" horiz-adv-x="441" d="M214 344q-82 0 -128 31t-46 80q0 30 15 52t37.5 36t46.5 19v2q-27 15 -52.5 36.5t-25.5 58.5q0 45 44 76t120 31q56 0 90 -16.5t49.5 -39.5t15.5 -45q0 -28 -21 -53t-54 -40v-2q23 -9 45 -22.5t36.5 -33.5t14.5 -48q0 -30 -20.5 -58t-61.5 -46t-105 -18zM221 699 q-15 0 -26.5 -8.5t-11.5 -25.5q0 -34 49 -55q26 26 26 55q0 16 -10.5 25t-26.5 9zM210 514q-20 -8 -32 -23t-12 -35q0 -19 14 -32.5t39 -13.5q22 0 39 10.5t17 32.5q0 20 -17 35.5t-48 25.5z" />
<glyph unicode="&#x2079;" horiz-adv-x="419" d="M40 625q0 46 22.5 77t61 47.5t84.5 16.5q47 0 87 -18t64.5 -57t24.5 -102q0 -62 -27.5 -118t-82.5 -91.5t-140 -35.5q-12 0 -25.5 1t-25.5 4l-2 86q13 -1 23.5 -2.5t24.5 -1.5q52 0 79 19.5t37 59.5q-16 -4 -31.5 -6t-31.5 -2q-64 0 -103 31.5t-39 91.5zM177 632 q0 -58 44 -58q11 0 24 3q-1 53 -7 80.5t-29 27.5q-18 0 -25 -15t-7 -38z" />
<glyph unicode="&#x207f;" horiz-adv-x="488" d="M198 290h-150v243q0 33 -4 64.5t-12 67.5l141 23q6 -13 10.5 -26.5t7.5 -28.5q61 55 130 55q53 0 84 -33.5t31 -91.5v-273h-150v246q0 56 -46 56q-20 0 -42 -12v-290z" />
<glyph unicode="&#x2080;" horiz-adv-x="454" d="M419 133q0 -70 -27.5 -117.5t-72 -71.5t-97.5 -24q-52 0 -94.5 23.5t-67.5 69t-25 111.5q0 67 26 116t71 75.5t101 26.5q83 0 134.5 -57t51.5 -152zM173 134q0 -65 10.5 -103t45.5 -38q25 0 36 17.5t13.5 48.5t2.5 69q0 67 -10 103.5t-46 36.5q-32 0 -42 -32.5 t-10 -101.5z" />
<glyph unicode="&#x2081;" horiz-adv-x="306" d="M109 224h-2l-59 -4l-18 75l196 49l15 -14v-400h-134v215q0 23 0.5 42.5t1.5 36.5z" />
<glyph unicode="&#x2082;" horiz-adv-x="389" d="M55 -70l-15 83q16 7 43.5 26t55.5 45.5t47.5 56.5t19.5 59q0 23 -13 39.5t-39 16.5q-20 0 -47.5 -11t-53.5 -30l-12 96q24 11 63.5 22t82.5 11q69 0 113 -32t44 -83q0 -40 -26 -79t-67 -72t-84 -54h62q54 0 105 6l-7 -100h-272z" />
<glyph unicode="&#x2083;" horiz-adv-x="391" d="M43 310q25 12 65 22t78 10q62 0 102 -26.5t40 -66.5q0 -31 -23.5 -59t-61.5 -40q49 -9 78.5 -37.5t29.5 -67.5q0 -37 -25 -65t-69 -44t-102 -16q-25 0 -57 3.5t-58 10.5l12 80q18 -6 47.5 -10t48.5 -4q27 0 46.5 10t19.5 31q0 23 -23.5 31.5t-61.5 8.5q-13 0 -27.5 -1 t-30.5 -3v80q27 1 55 7.5t46.5 20.5t18.5 35q0 14 -10.5 24t-35.5 10q-19 0 -46.5 -7t-50.5 -18z" />
<glyph unicode="&#x2084;" horiz-adv-x="437" d="M35 90l151 248l148 6l15 -13v-229q28 2 53 5l-7 -93h-46v-84h-126v84h-174zM142 102v-2q5 0 23.5 0.5t56.5 0.5v40q0 23 1 57t5 62h-2z" />
<glyph unicode="&#x2085;" horiz-adv-x="414" d="M60 -66l11 84q18 -6 47 -10t47 -4q28 0 47.5 11.5t19.5 38.5q0 26 -16.5 36t-41.5 10t-46.5 -5.5t-39.5 -12.5l-18 10v242h177q26 0 52.5 1t51.5 5l-7 -101h-167v-60q25 5 51 5q61 0 101 -31t40 -90q0 -48 -27 -79.5t-72 -47.5t-101 -16q-26 0 -54.5 3.5t-54.5 10.5z" />
<glyph unicode="&#x2086;" horiz-adv-x="419" d="M214 -80q-47 0 -88 18.5t-66 58.5t-25 102q0 67 30.5 122t88 88t138.5 33q18 0 33.5 -2t22.5 -4l-11 -88q-10 2 -22.5 4t-23.5 2q-34 0 -69.5 -21t-46.5 -66h2q13 2 31 4.5t38 2.5q60 0 96.5 -30.5t36.5 -86.5q0 -44 -22.5 -75t-60 -46.5t-82.5 -15.5zM203 101 q-7 0 -15.5 -2t-15.5 -4q-1 -60 5.5 -81t27.5 -21q23 0 30 15.5t7 37.5q0 55 -39 55z" />
<glyph unicode="&#x2087;" horiz-adv-x="369" d="M30 229l9 107h304l16 -14v-67q-82 -75 -115.5 -152.5t-35.5 -172.5h-138q6 93 52.5 175t116.5 134v2h-66q-40 0 -76 -2.5t-67 -9.5z" />
<glyph unicode="&#x2088;" horiz-adv-x="441" d="M214 -80q-82 0 -128 31t-46 80q0 30 15 52t37.5 36t46.5 19v2q-27 15 -52.5 36.5t-25.5 58.5q0 45 44 76t120 31q56 0 90 -16.5t49.5 -39.5t15.5 -45q0 -28 -21 -53t-54 -40v-2q23 -9 45 -22.5t36.5 -33.5t14.5 -48q0 -30 -20.5 -58t-61.5 -46t-105 -18zM221 275 q-15 0 -26.5 -8.5t-11.5 -25.5q0 -34 49 -55q26 26 26 55q0 16 -10.5 25t-26.5 9zM210 90q-20 -8 -32 -23t-12 -35q0 -19 14 -32.5t39 -13.5q22 0 39 10.5t17 32.5q0 20 -17 35.5t-48 25.5z" />
<glyph unicode="&#x2089;" horiz-adv-x="419" d="M40 201q0 46 22.5 77t61 47.5t84.5 16.5q47 0 87 -18t64.5 -57t24.5 -102q0 -62 -27.5 -118t-82.5 -91.5t-140 -35.5q-12 0 -25.5 1t-25.5 4l-2 86q13 -1 23.5 -2.5t24.5 -1.5q52 0 79 19.5t37 59.5q-16 -4 -31.5 -6t-31.5 -2q-64 0 -103 31.5t-39 91.5zM177 208 q0 -58 44 -58q11 0 24 3q-1 53 -7 80.5t-29 27.5q-18 0 -25 -15t-7 -38z" />
<glyph unicode="&#x20ac;" horiz-adv-x="570" d="M10 247l5 60h55q-1 12 -1 24q0 24 2 46h-50l5 60h54q17 82 60.5 141t108 90.5t143.5 31.5q48 0 89.5 -11t69.5 -29l-34 -155q-36 22 -66 33.5t-59 11.5q-45 0 -76 -30t-46 -83h173l-5 -60h-178q-1 -16 -1 -34q0 -19 2 -36h171l-5 -60h-155q15 -52 50 -79.5t86 -27.5 q35 0 68 11t58 27l21 -148q-74 -40 -170 -40q-129 0 -209 68t-100 189h-66z" />
<glyph unicode="&#x2122;" horiz-adv-x="569" d="M517 692l10 -7l22 -225h-72l-8 78q-1 18 -2 37t-2 51h-2q-1 -23 -7 -51t-8 -37l-18 -78h-81l-18 78q-4 21 -8.5 43.5t-6.5 45.5h-1q-1 -21 -1 -36.5t-4 -52.5l-8 -78h-60l23 229l102 3l10 -42q7 -30 11 -59t8 -64h1q4 43 9.5 77.5t8.5 45.5l10 39zM161 460h-74v175 q-17 0 -33.5 -1t-33.5 -1l4 56h201l4 -56q-18 0 -34.5 1t-33.5 1v-175z" />
<glyph unicode="&#x2202;" horiz-adv-x="713" d="M340 760q84 0 143.5 -30t97 -81.5t55 -118t17.5 -138.5q0 -53 -10 -109.5t-33 -108.5t-61 -93.5t-94.5 -66t-133.5 -24.5q-82 0 -140.5 28.5t-89.5 79.5t-31 118q0 72 35 131t102.5 94.5t163.5 35.5q29 0 52.5 -3.5t44.5 -9.5q-13 78 -54.5 119.5t-108.5 41.5 q-49 0 -91 -19t-71 -44l-57 113q43 33 113 59t151 26zM250 221q0 -46 23 -70.5t61 -24.5q55 0 90 50.5t39 152.5q-17 5 -36 8.5t-41 3.5q-70 0 -103 -34t-33 -86z" />
<glyph unicode="&#x220f;" horiz-adv-x="769" d="M729 670l-5 -114h-70v-696h-180v696h-179v-696h-180v696h-70l-5 134h669z" />
<glyph unicode="&#x2211;" horiz-adv-x="600" d="M35 -20l219 295l-219 295l30 120h495l20 -20l-4 -120l-346 9l195 -262v-44l-194 -262l349 9v-140h-515z" />
<glyph unicode="&#x2212;" d="M530 303h-450v85q31 1 76 1.5t96.5 1.5t104 1.5t98 0.5h77.5l8 -8z" />
<glyph unicode="&#x221a;" horiz-adv-x="656" d="M636 731l-208 -731h-189l-126 366h-108v134h237l101 -371l135 631l148 -10z" />
<glyph unicode="&#x221e;" horiz-adv-x="840" d="M780 271q0 -56 -23 -100.5t-64.5 -70t-96.5 -25.5q-61 0 -101.5 30t-71.5 72q-35 -48 -82 -75t-104 -27q-52 0 -92 25t-62.5 69t-22.5 100t23 100.5t64.5 70t96.5 25.5q61 0 102.5 -29.5t71.5 -70.5q36 48 81.5 74t103.5 26q53 0 92.5 -25t62 -68.5t22.5 -100.5zM587 375 q-38 0 -71 -25t-52 -60l2 -4q28 -52 59 -86.5t74 -34.5q38 0 62 29t24 78q0 47 -27.5 75t-70.5 28zM155 272q0 -49 27 -77.5t71 -28.5q25 0 48.5 12.5t43.5 32t31 39.5l-2 4q-32 53 -60.5 87t-72.5 34q-37 0 -61.5 -27t-24.5 -76z" />
<glyph unicode="&#x222b;" horiz-adv-x="432" d="M149 -145q19 0 26.5 11t7.5 42q0 8 -1 21t-5.5 45.5t-14.5 94.5t-27 167q-17 106 -29 183t-12 129q0 110 55.5 161t147.5 51q28 0 64 -5.5t73 -19.5l-10 -132q-34 20 -69.5 31t-55.5 11q-19 0 -27 -10.5t-8 -38.5q0 -5 0.5 -13t3 -25.5t8 -52.5t14.5 -93.5t23 -147.5 q17 -111 28.5 -182.5t11.5 -124.5q0 -115 -55.5 -166t-147.5 -51q-28 0 -64 5.5t-73 19.5l10 132q35 -20 70 -31t56 -11z" />
<glyph unicode="&#x2248;" d="M441 312q-14 0 -42.5 5t-62.5 12.5l-68 15t-59.5 12.5t-35.5 5q-8 0 -23 -17t-34 -40l-51 34q14 25 31.5 52.5t38.5 47t44 19.5q14 0 42 -5t62.5 -12.5t68.5 -15t59.5 -12.5t35.5 -5q8 0 23 17.5t34 39.5l51 -34q-13 -24 -31 -52t-38.5 -47.5t-44.5 -19.5zM441 88 q-14 0 -42.5 5t-62.5 12.5l-68 15t-59.5 12.5t-35.5 5q-8 0 -23 -17t-34 -40l-51 34q14 25 31.5 52.5t38.5 47t44 19.5q14 0 42 -5t62.5 -12.5t68.5 -15t59.5 -12.5t35.5 -5q8 0 23 17.5t34 39.5l51 -34q-13 -24 -31 -52t-38.5 -47.5t-44.5 -19.5z" />
<glyph unicode="&#x2260;" d="M147 125l37 78h-104v85q27 1 65 1.5t81 1.5l54 112h-200v85q41 1 107 2t135 2l53 110l11 3l73 -40l-35 -72h108l8 -8l-10 -82h-149l-53 -111q59 0 113.5 0.5t90.5 0.5l8 -8l-10 -82h-245l-55 -115l-10 -3z" />
<glyph unicode="&#x2264;" d="M223 431l312 -118v-90l-465 177v55l6 11q29 11 74.5 28t99 37t107.5 39.5t100.5 36.5t76.5 27v-90zM525 75h-450v85q31 1 76 1.5t96.5 1.5t104 1.5t98 0.5h77.5l8 -8z" />
<glyph unicode="&#x2265;" d="M85 223v90l312 118l-311 113v90q30 -11 76.5 -27.5t100.5 -36t107.5 -39.5t99 -37t74.5 -28l6 -11v-55zM535 75h-450v85q31 1 76 1.5t96.5 1.5t104 1.5t98 0.5h77.5l8 -8z" />
<glyph unicode="&#x25ca;" horiz-adv-x="643" d="M60 319v46l209 325l97 10l217 -336v-45l-213 -319l-96 -10zM320 62h1l174 280l-175 287h-1l-171 -288z" />
<glyph unicode="&#x25fc;" horiz-adv-x="510" d="M0 510h510v-510h-510v510z" />
<glyph unicode="&#xfb00;" horiz-adv-x="702" d="M265 0h-180v395l-70 5v60l70 20q-3 32 -3 55q0 67 30.5 112.5t84 69t124.5 23.5q44 0 78.5 -7.5t62.5 -18.5q61 46 163 46q44 0 84 -10t63 -24l-35 -131q-25 14 -52 24.5t-55 10.5q-31 0 -48.5 -18t-17.5 -51q0 -27 1 -46.5t2 -34.5h123l12 -18l-5 -72l-127 4v-394h-180 v395h-125v-395zM259 534q0 -10 1 -26t2 -28h128q-3 38 -3 67q0 33 7 61q-30 17 -65 17q-31 0 -50.5 -21t-19.5 -70z" />
<glyph unicode="&#xfb01;" horiz-adv-x="630" d="M265 0h-180v395l-70 5v60l70 20q-3 38 -3 63q0 107 63.5 162t169.5 55q71 0 128.5 -20.5t91.5 -49.5l-82 -106q-30 21 -62.5 33.5t-64.5 12.5q-35 0 -51 -19.5t-16 -60.5q0 -14 1 -34t2 -36h113l175 30l20 -20v-490h-180v313q0 41 -3 77l-122 4v-394z" />
<glyph unicode="&#xfb02;" horiz-adv-x="630" d="M265 0h-180v395l-70 5v60l70 20q-3 38 -3 67q0 104 64 158.5t174 54.5q28 0 54.5 -3.5t49.5 -10.5l126 14l20 -20v-740h-180v390l-125 4v-394zM259 561q0 -27 1 -46.5t2 -34.5h128v83q0 29 -1 55q-16 6 -32 9t-32 3q-31 0 -48.5 -18t-17.5 -51z" />
<glyph unicode="&#xfb03;" horiz-adv-x="935" d="M265 0h-180v395l-70 5v60l70 20q-3 32 -3 55q0 67 30.5 112.5t84.5 69t124 23.5q44 0 78.5 -7.5t62.5 -18.5q60 46 158 46q71 0 128.5 -20.5t91.5 -49.5l-82 -106q-30 21 -62.5 33.5t-64.5 12.5q-35 0 -51 -19.5t-16 -60.5q0 -14 1 -34t2 -36h113l175 30l20 -20v-490 h-180v313q0 41 -3 77l-122 4v-394h-180v395h-125v-395zM259 534q0 -10 1 -26t2 -28h128q-3 38 -3 63q0 27 4 51q-29 16 -62 16q-31 0 -50.5 -17.5t-19.5 -58.5z" />
<glyph unicode="&#xfb04;" horiz-adv-x="935" d="M265 0h-180v395l-70 5v60l70 20q-3 32 -3 55q0 67 30.5 112.5t84 69t124.5 23.5q44 0 78.5 -7.5t62.5 -18.5q61 46 163 46q28 0 54.5 -3.5t49.5 -10.5l126 14l20 -20v-740h-180v390l-125 4v-394h-180v395h-125v-395zM564 561q0 -27 1 -46.5t2 -34.5h128v83q0 29 -1 55 q-16 6 -32 9t-32 3q-31 0 -48.5 -18t-17.5 -51zM259 534q0 -10 1 -26t2 -28h128q-3 38 -3 67q0 25 4 47q-29 16 -62 16q-31 0 -50.5 -17.5t-19.5 -58.5z" />
<glyph unicode="&#xfb06;" horiz-adv-x="856" d="M410 485l-10 -132q-40 20 -81 31t-67 11q-24 0 -38 -8.5t-14 -22.5q0 -16 16.5 -28t42 -22.5t55 -23t55 -30.5t42 -45.5t16.5 -67.5q0 -73 -59.5 -115t-160.5 -42q-51 0 -101.5 10.5t-80.5 28.5l10 129q45 -25 93.5 -39t79.5 -14q49 0 49 30q0 17 -16.5 29t-42 22.5 t-55 23t-55 31t-42 45t-16.5 65.5q0 73 61 116t162 43q14 0 31 -1t36 -3q-7 16 -10.5 34t-3.5 37q0 52 25.5 90.5t70.5 60.5t105 22q86 0 138.5 -45.5t52.5 -124.5q0 -19 -3 -41t-8 -39h137l12 -20l-8 -70l-141 4v-223q0 -40 16.5 -58t44.5 -18q20 0 39.5 6.5t38.5 17.5 l10 -108q-25 -16 -63 -28.5t-85 -12.5q-85 0 -133 51t-48 149v229l-55 1v60l60 20q1 4 5.5 23t4.5 41q0 35 -15.5 57t-44.5 22q-30 0 -50.5 -23.5t-20.5 -59.5q0 -17 4.5 -36.5t14.5 -38.5z" />
<glyph horiz-adv-x="440" d="M252 -25q-17 -24 -48.5 -38.5t-69.5 -14.5q-46 0 -78 23.5t-32 72.5q0 66 60.5 96t156.5 32v20q0 57 -65 57q-62 0 -124 -30l-8 108q31 10 78 18.5t93 8.5q176 0 176 -148q0 -41 -2 -74t-2 -75q0 -26 5 -54.5t12 -46.5l-123 -8q-8 13 -13.5 26.5t-10.5 26.5h-5zM170 44 q0 -19 11 -30.5t30 -11.5q17 0 30 8v95q-30 -3 -50.5 -18.5t-20.5 -42.5z" />
<glyph horiz-adv-x="480" d="M448 129q0 -98 -50 -152.5t-143 -54.5q-49 0 -92 12l-119 -12v446q0 37 -3 70.5t-9 69.5l145 15l17 -16v-211q20 14 45 23t53 9q74 0 115 -55t41 -144zM226 240q-17 0 -32 -6v-236q13 -4 27 -4q38 0 55.5 31.5t17.5 95.5q0 63 -16.5 91t-51.5 28z" />
<glyph horiz-adv-x="412" d="M388 295l-32 -108q-51 36 -98 36q-33 0 -52.5 -24.5t-19.5 -65.5q0 -52 27.5 -81t76.5 -29q34 0 81 22l8 -91q-22 -14 -54.5 -23t-76.5 -9q-65 1 -113.5 25.5t-75.5 69t-27 104.5q0 61 28 107.5t78 73t114 26.5q42 0 76.5 -9t59.5 -24z" />
<glyph horiz-adv-x="490" d="M299 -27q-42 -51 -111 -51q-70 0 -113 49t-43 136q0 71 29 120.5t80 75t118 25.5q15 0 28 -1v41q0 36 -3 69.5t-9 70.5l145 15l17 -16v-476q0 -24 5 -52t12 -49l-127 -8q-6 9 -11.5 21t-13.5 31h-3v-1zM186 128q0 -55 18 -90.5t52 -35.5q17 0 31 8v246h-5q-50 0 -73 -34 t-23 -94z" />
<glyph horiz-adv-x="448" d="M419 121l-12 -12h-217q9 -46 37.5 -66t72.5 -20q28 0 52.5 6t43.5 16l8 -91q-19 -12 -56 -22t-89 -10q-102 0 -164.5 51t-62.5 146q0 62 27.5 109t75.5 73.5t108 26.5q83 0 130 -47.5t47 -120.5v-19t-1 -20zM237 248q-26 0 -38.5 -28t-12.5 -66l87 5q0 6 0.5 12t0.5 16 q0 23 -8 42t-29 19z" />
<glyph horiz-adv-x="360" d="M223 -70h-150v306l-57 4v48l57 16q-1 14 -1.5 26.5t-0.5 24.5q0 82 53 125t144 43q36 0 69 -8t52 -19l-29 -105q-20 11 -42.5 19t-45.5 8q-54 0 -54 -51q0 -22 1 -37t2 -26h100l10 -15l-4 -57l-104 3v-305z" />
<glyph horiz-adv-x="451" d="M80 -32q0 24 15 43.5t40 33.5q-47 14 -76.5 47t-29.5 80q0 42 23.5 77.5t66.5 57t100 21.5q34 0 62.5 -7.5t47.5 -19.5q14 31 42 46.5t59 15.5l18 -15l-4 -84h-83l-3 -4q16 -11 28.5 -32t12.5 -50q0 -64 -51 -104.5t-134 -40.5q-13 0 -25 1v-9q0 -16 10 -20.5t26 -5.5 l78 -5q60 -4 99.5 -30t39.5 -77q0 -43 -29.5 -77.5t-84 -54.5t-131.5 -20q-87 0 -140.5 25.5t-53.5 65.5q0 27 23 46t53 25l50 -20q-1 -3 -1 -8q0 -28 24.5 -49t66.5 -21q30 0 51.5 13t21.5 37q0 39 -65 45l-71 8q-35 5 -55.5 21.5t-20.5 44.5zM258 181q0 39 -9.5 59 t-32.5 20q-46 0 -46 -81q0 -79 45 -79q43 0 43 81z" />
<glyph horiz-adv-x="484" d="M194 -70h-150v438q0 35 -2.5 68.5t-9.5 71.5l145 15l17 -16v-228q58 49 123 49q53 0 84 -33.5t31 -91.5v-273h-150v246q0 56 -46 56q-20 0 -42 -12v-290z" />
<glyph horiz-adv-x="251" d="M213 459q0 -37 -27.5 -62.5t-67.5 -25.5q-36 0 -58 21t-22 50q0 36 29.5 62t69.5 26q33 0 54.5 -19.5t21.5 -51.5zM48 -70v243q0 35 -2.5 68.5t-9.5 71.5l146 15l16 -16v-382h-150z" />
<glyph horiz-adv-x="253" d="M212 459q0 -37 -27.5 -62.5t-67.5 -25.5q-36 0 -57.5 21t-21.5 50q0 36 29 62t69 26q33 0 54.5 -19.5t21.5 -51.5zM70 -267l-58 49q19 41 29 87.5t10 109.5v194q0 66 -13 140l146 15l17 -16v-333q0 -60 -11.5 -102t-39.5 -75.5t-80 -68.5z" />
<glyph horiz-adv-x="468" d="M44 368q0 35 -2.5 68.5t-9.5 71.5l145 15l17 -16v-356h23q20 36 43.5 84.5t42.5 92.5l126 -8l9 -16l-96 -140q25 -53 55 -110t67 -124l-172 -8q-16 35 -35.5 77t-34.5 80h-28v-149h-150v438z" />
<glyph horiz-adv-x="251" d="M198 -70h-150v438q0 35 -2.5 68.5t-9.5 71.5l146 15l16 -16v-577z" />
<glyph horiz-adv-x="726" d="M198 -70h-150v243q0 33 -4 64.5t-12 67.5l141 23q6 -13 10.5 -26.5t7.5 -28.5q61 55 130 55q74 0 102 -61q63 61 136 61q53 0 84 -33.5t31 -92.5v-272h-150v246q0 56 -46 56q-20 0 -43 -12q1 -9 1 -18v-272h-150v246q0 56 -46 56q-20 0 -42 -12v-290z" />
<glyph horiz-adv-x="488" d="M198 -70h-150v243q0 33 -4 64.5t-12 67.5l141 23q6 -13 10.5 -26.5t7.5 -28.5q61 55 130 55q53 0 84 -33.5t31 -91.5v-273h-150v246q0 56 -46 56q-20 0 -42 -12v-290z" />
<glyph horiz-adv-x="474" d="M442 127q0 -68 -29.5 -113.5t-77.5 -68.5t-104 -23t-101.5 22.5t-71.5 66t-26 106.5q0 66 28 113t76 72.5t108 25.5q89 0 143.5 -54.5t54.5 -146.5zM186 129q0 -59 11 -93t42 -34q32 0 40.5 33.5t8.5 83.5q0 62 -10.5 95.5t-41.5 33.5q-28 0 -39 -29t-11 -90z" />
<glyph horiz-adv-x="485" d="M48 -249v422q0 35 -4 65t-12 67l141 23q9 -19 15 -41q20 18 48.5 29.5t62.5 11.5q73 0 113.5 -55t40.5 -144q0 -99 -50 -153t-145 -54q-30 0 -60 5v-37q0 -35 2.5 -68.5t9.5 -71.5l-145 -15zM231 240q-17 0 -33 -7v-235q13 -4 27 -4q39 0 56.5 31.5t17.5 95.5 q0 63 -16.5 91t-51.5 28z" />
<glyph horiz-adv-x="489" d="M287 -249v210q-41 -39 -98 -39q-71 0 -114 53.5t-43 138.5q0 66 26 114t73 74t109 26q22 0 45 -3t43 -8l109 11v-438q0 -35 2.5 -68.5t8.5 -71.5l-145 -15zM186 125q0 -56 17.5 -89.5t51.5 -33.5q17 0 32 9v245h-6q-51 0 -73 -35t-22 -96z" />
<glyph horiz-adv-x="350" d="M198 -70h-150v243q0 33 -4 64.5t-12 67.5l141 23q9 -22 15.5 -45t9.5 -49v-1q16 41 38 68t61 27q26 0 41 -12l-10 -138q-13 3 -27 5t-29 2q-21 0 -41.5 -3.5t-32.5 -11.5v-240z" />
<glyph horiz-adv-x="379" d="M341 309l-8 -106q-33 16 -67 24.5t-55 8.5q-42 0 -42 -24q0 -16 19 -26.5t46.5 -20.5t55 -24.5t46.5 -37t19 -59.5q0 -56 -48.5 -89t-132.5 -33q-42 0 -83.5 8.5t-66.5 22.5l8 103q38 -19 78 -30.5t65 -11.5q39 0 39 23q0 16 -19 27t-46.5 21.5t-55 25t-46.5 37t-19 57.5 q0 56 50 89.5t134 33.5q26 0 60.5 -4t68.5 -15z" />
<glyph horiz-adv-x="353" d="M326 248l-115 3v-171q0 -57 49 -57q17 0 32.5 5t31.5 13l9 -86q-21 -13 -52.5 -23t-70.5 -10q-70 0 -109.5 40.5t-39.5 117.5v175l-53 1v48l57 16l37 103l92 6l18 -17l-1 -92h112l10 -16z" />
<glyph horiz-adv-x="484" d="M48 172q0 37 -2.5 70t-8.5 70l145 16l16 -16v-231q0 -52 44 -52q20 0 40 9v282l150 8v-297q0 -22 4 -50.5t9 -50.5l-123 -8q-7 12 -13 26t-11 31h-6q-56 -57 -127 -57q-52 0 -84.5 31t-32.5 82v137z" />
<glyph horiz-adv-x="425" d="M417 304l-117 -374h-176l-116 386l158 12l45 -206q5 -22 10 -51.5t7 -52.5h2q2 23 8.5 52.5t11.5 51.5l44 206l115 -8z" />
<glyph horiz-adv-x="678" d="M102 -70l-94 386l154 12l35 -198q4 -19 9 -43.5t6 -44.5h3q2 19 6.5 44t7.5 44l29 190h191l32 -190q3 -20 8 -44.5t7 -43.5h2q2 19 6 43.5t8 44.5l34 198l116 -8l9 -16l-94 -374h-193l-27 158q-5 29 -10.5 59.5t-8.5 60.5h-2q-2 -31 -7.5 -61t-10.5 -60l-28 -157h-188z " />
<glyph horiz-adv-x="420" d="M254 -70l-65 125l-57 -125h-116l-9 16l110 179l-110 191l155 12l66 -141l59 141l117 -8l8 -16l-111 -179l111 -195h-158z" />
<glyph horiz-adv-x="425" d="M417 304l-101 -323q-15 -48 -34.5 -92t-49.5 -78.5t-76 -55t-114 -20.5l-21 121q65 -1 110 17t64 56h-71l-116 387l158 12l45 -206q5 -22 10 -51.5t7 -52.5h2q2 23 8.5 52.5t11.5 51.5l44 206l115 -8z" />
<glyph horiz-adv-x="386" d="M23 204l8 116h310l16 -92l-169 -185h46q34 0 67.5 2t64.5 6l-9 -121h-320l-17 93l178 184z" />
<glyph horiz-adv-x="440" d="M252 335q-17 -24 -48.5 -38.5t-69.5 -14.5q-46 0 -78 23.5t-32 72.5q0 66 60.5 96t156.5 32v20q0 57 -65 57q-62 0 -124 -30l-8 108q31 10 78 18.5t93 8.5q176 0 176 -148q0 -41 -2 -74t-2 -75q0 -26 5 -54.5t12 -46.5l-123 -8q-8 13 -13.5 26.5t-10.5 26.5h-5zM170 404 q0 -19 11 -30.5t30 -11.5q17 0 30 8v95q-30 -3 -50.5 -18.5t-20.5 -42.5z" />
<glyph horiz-adv-x="480" d="M448 489q0 -98 -50 -152.5t-143 -54.5q-49 0 -92 12l-119 -12v446q0 37 -3 70.5t-9 69.5l145 15l17 -16v-211q20 14 45 23t53 9q74 0 115 -55t41 -144zM226 600q-17 0 -32 -6v-236q13 -4 27 -4q38 0 55.5 31.5t17.5 95.5q0 63 -16.5 91t-51.5 28z" />
<glyph horiz-adv-x="412" d="M388 655l-32 -108q-51 36 -98 36q-33 0 -52.5 -24.5t-19.5 -65.5q0 -52 27.5 -81t76.5 -29q34 0 81 22l8 -91q-22 -14 -54.5 -23t-76.5 -9q-65 1 -113.5 25.5t-75.5 69.5t-27 104q0 61 28 107.5t78 73t114 26.5q42 0 76.5 -9t59.5 -24z" />
<glyph horiz-adv-x="490" d="M299 333q-42 -51 -111 -51q-70 0 -113 49t-43 136q0 71 29 120.5t80 75t118 25.5q15 0 28 -1v41q0 36 -3 69.5t-9 70.5l145 15l17 -16v-476q0 -24 5 -52t12 -49l-127 -8q-6 9 -11.5 21t-13.5 31h-3v-1zM186 488q0 -55 18 -90.5t52 -35.5q17 0 31 8v246h-5q-50 0 -73 -34 t-23 -94z" />
<glyph horiz-adv-x="448" d="M419 481l-12 -12h-217q9 -46 37.5 -66t72.5 -20q28 0 52.5 6t43.5 16l8 -91q-19 -12 -56 -22t-89 -10q-102 0 -164.5 51t-62.5 146q0 62 27.5 109t75.5 73.5t108 26.5q83 0 130 -47.5t47 -120.5v-19t-1 -20zM237 608q-26 0 -38.5 -28t-12.5 -66l87 5q0 6 0.5 12t0.5 16 q0 23 -8 42t-29 19z" />
<glyph horiz-adv-x="360" d="M223 290h-150v306l-57 4v48l57 16q-1 14 -1.5 26.5t-0.5 24.5q0 82 53 125t144 43q36 0 69 -8t52 -19l-29 -105q-20 11 -42.5 19t-45.5 8q-54 0 -54 -51q0 -22 1 -37t2 -26h100l10 -15l-4 -57l-104 3v-305z" />
<glyph horiz-adv-x="451" d="M80 328q0 24 15 43.5t40 33.5q-47 14 -76.5 47t-29.5 80q0 42 23.5 77.5t66.5 57t100 21.5q34 0 62.5 -7.5t47.5 -19.5q14 31 42 46.5t59 15.5l18 -15l-4 -84h-83l-3 -4q16 -11 28.5 -32t12.5 -50q0 -64 -51 -104.5t-134 -40.5q-13 0 -25 1v-9q0 -16 10 -20.5t26 -5.5 l78 -5q60 -4 99.5 -30t39.5 -77q0 -43 -29.5 -77.5t-84 -54.5t-131.5 -20q-87 0 -140.5 25.5t-53.5 65.5q0 27 23 46t53 25l50 -20q-1 -3 -1 -8q0 -28 24.5 -49t66.5 -21q30 0 51.5 13t21.5 37q0 39 -65 45l-71 8q-35 5 -55.5 21.5t-20.5 44.5zM258 541q0 39 -9.5 59 t-32.5 20q-46 0 -46 -81q0 -79 45 -79q43 0 43 81z" />
<glyph horiz-adv-x="484" d="M194 290h-150v438q0 35 -2.5 68.5t-9.5 71.5l145 15l17 -16v-228q58 49 123 49q53 0 84 -33.5t31 -91.5v-273h-150v246q0 56 -46 56q-20 0 -42 -12v-290z" />
<glyph horiz-adv-x="251" d="M213 819q0 -37 -27.5 -62.5t-67.5 -25.5q-36 0 -58 21t-22 50q0 36 29.5 62t69.5 26q33 0 54.5 -19.5t21.5 -51.5zM48 290v243q0 35 -2.5 68.5t-9.5 71.5l146 15l16 -16v-382h-150z" />
<glyph horiz-adv-x="253" d="M212 819q0 -37 -27.5 -62.5t-67.5 -25.5q-36 0 -57.5 21t-21.5 50q0 36 29 62t69 26q33 0 54.5 -19.5t21.5 -51.5zM70 93l-58 49q19 41 29 87.5t10 109.5v194q0 66 -13 140l146 15l17 -16v-333q0 -60 -11.5 -102t-39.5 -75.5t-80 -68.5z" />
<glyph horiz-adv-x="468" d="M44 728q0 35 -2.5 68.5t-9.5 71.5l145 15l17 -16v-356h23q20 36 43.5 84.5t42.5 92.5l126 -8l9 -16l-96 -140q25 -53 55 -110t67 -124l-172 -8q-16 35 -35.5 77t-34.5 80h-28v-149h-150v438z" />
<glyph horiz-adv-x="251" d="M198 290h-150v438q0 35 -2.5 68.5t-9.5 71.5l146 15l16 -16v-577z" />
<glyph horiz-adv-x="726" d="M198 290h-150v243q0 33 -4 64.5t-12 67.5l141 23q6 -13 10.5 -26.5t7.5 -28.5q61 55 130 55q74 0 102 -61q63 61 136 61q53 0 84 -33.5t31 -92.5v-272h-150v246q0 56 -46 56q-20 0 -43 -12q1 -9 1 -18v-272h-150v246q0 56 -46 56q-20 0 -42 -12v-290z" />
<glyph horiz-adv-x="474" d="M442 487q0 -68 -29.5 -113.5t-77.5 -68.5t-104 -23t-101.5 22.5t-71.5 66t-26 106.5q0 66 28 113t76 72.5t108 25.5q89 0 143.5 -54.5t54.5 -146.5zM186 489q0 -59 11 -93t42 -34q32 0 40.5 33.5t8.5 83.5q0 62 -10.5 95.5t-41.5 33.5q-28 0 -39 -29t-11 -90z" />
<glyph horiz-adv-x="485" d="M48 111v422q0 35 -4 65t-12 67l141 23q9 -19 15 -41q20 18 48.5 29.5t62.5 11.5q73 0 113.5 -55t40.5 -144q0 -99 -50 -153t-145 -54q-30 0 -60 5v-37q0 -35 2.5 -68.5t9.5 -71.5l-145 -15zM231 600q-17 0 -33 -7v-235q13 -4 27 -4q39 0 56.5 31.5t17.5 95.5 q0 63 -16.5 91t-51.5 28z" />
<glyph horiz-adv-x="489" d="M287 111v210q-41 -39 -98 -39q-71 0 -114 53.5t-43 138.5q0 66 26 114t73 74t109 26q22 0 45 -3t43 -8l109 11v-438q0 -35 2.5 -68.5t8.5 -71.5l-145 -15zM186 485q0 -56 17.5 -89.5t51.5 -33.5q17 0 32 9v245h-6q-51 0 -73 -35t-22 -96z" />
<glyph horiz-adv-x="350" d="M198 290h-150v243q0 33 -4 64.5t-12 67.5l141 23q9 -22 15.5 -45t9.5 -49v-1q16 41 38 68t61 27q26 0 41 -12l-10 -138q-13 3 -27 5t-29 2q-21 0 -41.5 -3.5t-32.5 -11.5v-240z" />
<glyph horiz-adv-x="379" d="M341 669l-8 -106q-33 16 -67 24.5t-55 8.5q-42 0 -42 -24q0 -16 19 -26.5t46.5 -20.5t55 -24.5t46.5 -37t19 -59.5q0 -56 -48.5 -89t-132.5 -33q-42 0 -83.5 8.5t-66.5 22.5l8 103q38 -19 78 -30.5t65 -11.5q39 0 39 23q0 16 -19 27t-46.5 21.5t-55 25t-46.5 37t-19 57.5 q0 56 50 89.5t134 33.5q26 0 60.5 -4t68.5 -15z" />
<glyph horiz-adv-x="353" d="M326 608l-115 3v-171q0 -57 49 -57q17 0 32.5 5t31.5 13l9 -86q-21 -13 -52.5 -23t-70.5 -10q-70 0 -109.5 40.5t-39.5 117.5v175l-53 1v48l57 16l37 103l92 6l18 -17l-1 -92h112l10 -16z" />
<glyph horiz-adv-x="484" d="M48 532q0 37 -2.5 70t-8.5 70l145 16l16 -16v-231q0 -52 44 -52q20 0 40 9v282l150 8v-297q0 -22 4 -50.5t9 -50.5l-123 -8q-7 12 -13 26t-11 31h-6q-56 -57 -127 -57q-52 0 -84.5 31t-32.5 82v137z" />
<glyph horiz-adv-x="425" d="M417 664l-117 -374h-176l-116 386l158 12l45 -206q5 -22 10 -51.5t7 -52.5h2q2 23 8.5 52.5t11.5 51.5l44 206l115 -8z" />
<glyph horiz-adv-x="678" d="M102 290l-94 386l154 12l35 -198q4 -19 9 -43.5t6 -44.5h3q2 19 6.5 44t7.5 44l29 190h191l32 -190q3 -20 8 -44.5t7 -43.5h2q2 19 6 43.5t8 44.5l34 198l116 -8l9 -16l-94 -374h-193l-27 158q-5 29 -10.5 59.5t-8.5 60.5h-2q-2 -31 -7.5 -61t-10.5 -60l-28 -157h-188z " />
<glyph horiz-adv-x="420" d="M254 290l-65 125l-57 -125h-116l-9 16l110 179l-110 191l155 12l66 -141l59 141l117 -8l8 -16l-111 -179l111 -195h-158z" />
<glyph horiz-adv-x="425" d="M417 664l-101 -323q-15 -48 -34.5 -92t-49.5 -78.5t-76 -55t-114 -20.5l-21 121q65 -1 110 17t64 56h-71l-116 387l158 12l45 -206q5 -22 10 -51.5t7 -52.5h2q2 23 8.5 52.5t11.5 51.5l44 206l115 -8z" />
<glyph horiz-adv-x="386" d="M23 564l8 116h310l16 -92l-169 -185h46q34 0 67.5 2t64.5 6l-9 -121h-320l-17 93l178 184z" />
<glyph horiz-adv-x="1072" d="M722 0h-180v563q0 25 -1 48q-15 4 -29 4q-34 0 -57.5 -19.5t-23.5 -50.5q0 -17 8.5 -37t27.5 -40l-38 -134q-63 46 -119 46q-41 0 -65.5 -32.5t-24.5 -87.5q0 -69 33.5 -107t93.5 -38q24 0 47.5 7.5t52.5 21.5l10 -113q-27 -18 -66.5 -29.5t-93.5 -11.5q-79 1 -138 32.5 t-91.5 89t-32.5 133.5q0 78 34 137.5t94.5 93.5t138.5 34q21 0 41 -2q-24 42 -24 84q0 46 29 84t85 61t136 23q67 0 153 -20v-293q71 63 150 63q65 0 102.5 -43t37.5 -117v-350h-180v317q0 73 -57 73q-25 0 -53 -16v-374z" />
<glyph horiz-adv-x="901" d="M557 500q1 4 5.5 23t4.5 41q0 35 -15.5 57t-44.5 22q-30 0 -50.5 -23.5t-20.5 -59.5q0 -21 7.5 -45t23.5 -47l-38 -134q-63 46 -116 46q-44 0 -68.5 -33t-24.5 -89q0 -67 33.5 -105t91.5 -38q26 0 49.5 7.5t52.5 21.5l10 -113q-27 -18 -66.5 -29.5t-89.5 -11.5 q-81 0 -141 32t-92.5 89t-32.5 133q0 78 34 138t95.5 94t142.5 34q29 0 57 -5q-13 35 -13 72q0 52 25.5 90.5t70.5 60.5t105 22q86 0 138.5 -45.5t52.5 -124.5q0 -19 -3 -41t-8 -39h137l12 -20l-8 -70l-141 4v-223q0 -40 16.5 -58t44.5 -18q20 0 39.5 6.5t38.5 17.5l10 -108 q-25 -16 -63 -28.5t-85 -12.5q-85 0 -133 51t-48 149v229l-55 1v60z" />
<glyph horiz-adv-x="1032" d="M410 485l-10 -132q-40 20 -81 31t-67 11q-24 0 -38 -8.5t-14 -22.5q0 -16 16.5 -28t42 -22.5t55 -23t55 -30.5t42 -45.5t16.5 -67.5q0 -73 -59.5 -115t-160.5 -42q-51 0 -101.5 10.5t-80.5 28.5l10 129q45 -25 93.5 -39t79.5 -14q49 0 49 30q0 17 -16.5 29t-42 22.5 t-55 23t-55 31t-42 45t-16.5 65.5q0 73 61 116t162 43q25 0 51 -3q-25 43 -25 85q0 46 29 84t85 61t136 23q67 0 153 -20v-293q71 63 150 63q65 0 102.5 -43t37.5 -117v-350h-180v317q0 73 -57 73q-25 0 -53 -16v-374h-180v563q0 25 -1 48q-15 4 -29 4q-34 0 -57.5 -19.5 t-23.5 -50.5q0 -29 19 -60z" />
<glyph horiz-adv-x="570" d="M175 0h-170l133 451q8 25 13.5 47.5t8.5 39.5l222 9l29 -24l154 -523h-179l-22 83h-167zM232 212l-2 -9h101l-2 8q-20 74 -30.5 122.5t-15.5 71.5h-5q-4 -22 -16.5 -77t-29.5 -116z" />
<glyph horiz-adv-x="570" d="M389 806l10 -30q-62 -97 -156 -170l-70 10q17 49 31.5 99t24.5 99zM175 0h-170l133 451q8 25 13.5 47.5t8.5 39.5l222 9l29 -24l154 -523h-179l-22 83h-167zM232 212l-2 -9h101l-2 8q-20 74 -30.5 122.5t-15.5 71.5h-5q-4 -22 -16.5 -77t-29.5 -116z" />
<glyph horiz-adv-x="570" d="M372 805l69 9q-2 -56 -22.5 -101t-56 -70.5t-84.5 -25.5q-63 0 -105.5 48.5t-46.5 130.5l70 10q8 -37 32 -58t56 -21q34 0 57.5 22.5t30.5 55.5zM175 0h-170l133 451q8 25 13.5 47.5t8.5 39.5l222 9l29 -24l154 -523h-179l-22 83h-167zM232 212l-2 -9h101l-2 8 q-20 74 -30.5 122.5t-15.5 71.5h-5q-4 -22 -16.5 -77t-29.5 -116z" />
<glyph horiz-adv-x="570" d="M409 824l57 -40q-34 -43 -61.5 -83.5t-53.5 -80.5l-117 -10q-25 43 -53 85.5t-62 88.5l57 40q32 -20 61 -44.5t56 -48.5q26 24 55 48.5t61 44.5zM175 0h-170l133 451q8 25 13.5 47.5t8.5 39.5l222 9l29 -24l154 -523h-179l-22 83h-167zM232 212l-2 -9h101l-2 8 q-20 74 -30.5 122.5t-15.5 71.5h-5q-4 -22 -16.5 -77t-29.5 -116z" />
<glyph horiz-adv-x="570" d="M176 592l-57 40q34 43 62 83.5t53 80.5l117 10q26 -43 53.5 -85.5t61.5 -88.5l-57 -40q-32 20 -61 44.5t-56 48.5q-26 -24 -55 -48.5t-61 -44.5zM175 0h-170l133 451q8 25 13.5 47.5t8.5 39.5l222 9l29 -24l154 -523h-179l-22 83h-167zM232 212l-2 -9h101l-2 8 q-20 74 -30.5 122.5t-15.5 71.5h-5q-4 -22 -16.5 -77t-29.5 -116z" />
<glyph horiz-adv-x="570" d="M261 716q0 -42 -30 -72t-73 -30q-40 0 -63.5 24.5t-23.5 58.5q0 28 15 51t39.5 37t52.5 14q36 0 59.5 -22.5t23.5 -60.5zM500 716q0 -42 -30 -72t-73 -30q-40 0 -63.5 24.5t-23.5 58.5q0 28 15 51t39.5 37t52.5 14q36 0 59.5 -22.5t23.5 -60.5zM175 0h-170l133 451 q8 25 13.5 47.5t8.5 39.5l222 9l29 -24l154 -523h-179l-22 83h-167zM232 212l-2 -9h101l-2 8q-20 74 -30.5 122.5t-15.5 71.5h-5q-4 -22 -16.5 -77t-29.5 -116z" />
<glyph horiz-adv-x="570" d="M175 0h-170l133 451q8 25 13.5 47.5t8.5 39.5l222 9l29 -24l154 -523h-179l-22 83h-167zM232 212l-2 -9h101l-2 8q-20 74 -30.5 122.5t-15.5 71.5h-5q-4 -22 -16.5 -77t-29.5 -116zM391 -159q0 -30 -15.5 -55.5t-41 -40.5t-57.5 -15q-43 0 -69.5 26.5t-26.5 63.5 q0 30 16.5 55t43.5 40t58 15q40 0 66 -24t26 -65z" />
<glyph horiz-adv-x="570" d="M329 606q-94 73 -156 170l10 30l160 8q10 -49 24.5 -99t31.5 -99zM175 0h-170l133 451q8 25 13.5 47.5t8.5 39.5l222 9l29 -24l154 -523h-179l-22 83h-167zM232 212l-2 -9h101l-2 8q-20 74 -30.5 122.5t-15.5 71.5h-5q-4 -22 -16.5 -77t-29.5 -116z" />
<glyph horiz-adv-x="570" d="M137 658v96h298v-96h-298zM175 0h-170l133 451q8 25 13.5 47.5t8.5 39.5l222 9l29 -24l154 -523h-179l-22 83h-167zM232 212l-2 -9h101l-2 8q-20 74 -30.5 122.5t-15.5 71.5h-5q-4 -22 -16.5 -77t-29.5 -116z" />
<glyph horiz-adv-x="570" d="M175 0h-170l133 451q8 25 13.5 47.5t8.5 39.5l222 9l29 -24l154 -523q-54 -25 -84.5 -57.5t-30.5 -63.5q0 -18 10.5 -29.5t32.5 -11.5q10 0 24 3t30 10l25 -59q-28 -25 -66 -41.5t-79 -16.5q-51 0 -85.5 29t-34.5 78q0 45 37.5 87.5t103.5 71.5h-62l-22 83h-167zM232 212 l-2 -9h101l-2 8q-20 74 -30.5 122.5t-15.5 71.5h-5q-4 -22 -16.5 -77t-29.5 -116z" />
<glyph horiz-adv-x="570" d="M430 731q0 -34 -18.5 -62t-49.5 -45t-69 -17q-53 0 -85 30t-32 71q0 34 19.5 62t52 45t70.5 17q49 0 80.5 -28t31.5 -73zM247 714q0 -21 14 -36t37 -15q25 0 43 18.5t18 43.5q0 24 -13 37.5t-34 13.5q-26 0 -45.5 -18.5t-19.5 -43.5zM175 0h-170l133 451q8 25 13.5 47.5 t8.5 39.5l222 9l29 -24l154 -523h-179l-22 83h-167zM232 212l-2 -9h101l-2 8q-20 74 -30.5 122.5t-15.5 71.5h-5q-4 -22 -16.5 -77t-29.5 -116z" />
<glyph horiz-adv-x="570" d="M406 1098l10 -30q-62 -97 -156 -170l-70 10q17 49 31.5 99t24.5 99zM430 731q0 -34 -18.5 -62t-49.5 -45t-69 -17q-53 0 -85 30t-32 71q0 34 19.5 62t52 45t70.5 17q49 0 80.5 -28t31.5 -73zM247 714q0 -21 14 -36t37 -15q25 0 43 18.5t18 43.5q0 24 -13 37.5t-34 13.5 q-26 0 -45.5 -18.5t-19.5 -43.5zM175 0h-170l133 451q8 25 13.5 47.5t8.5 39.5l222 9l29 -24l154 -523h-179l-22 83h-167zM232 212l-2 -9h101l-2 8q-20 74 -30.5 122.5t-15.5 71.5h-5q-4 -22 -16.5 -77t-29.5 -116z" />
<glyph horiz-adv-x="570" d="M210 802q34 0 60.5 -14.5t50.5 -28.5t49 -14q20 0 30.5 11.5t21.5 31.5l49 -7q0 -42 -11 -81t-34 -64.5t-61 -25.5q-30 0 -60 14t-57 28.5t-49 14.5q-14 0 -26 -10t-24 -33l-48 7q0 41 10 80.5t34 65t65 25.5zM175 0h-170l133 451q8 25 13.5 47.5t8.5 39.5l222 9l29 -24 l154 -523h-179l-22 83h-167zM232 212l-2 -9h101l-2 8q-20 74 -30.5 122.5t-15.5 71.5h-5q-4 -22 -16.5 -77t-29.5 -116z" />
<glyph horiz-adv-x="724" d="M175 0h-170l158 450q9 26 14.5 49t7.5 41h458l20 -19l-4 -110l-194 7l14 -98l169 4l-5 -116l-149 5l12 -91l200 7v-129h-362q-3 45 -5 83h-136q-6 -19 -13 -40t-15 -43zM303 405q-10 -41 -24.5 -89.5t-35.5 -112.5h90q-4 70 -6.5 117t-3.5 85h-20z" />
<glyph horiz-adv-x="724" d="M518 806l10 -30q-62 -97 -156 -170l-70 10q17 49 31.5 99t24.5 99zM175 0h-170l158 450q9 26 14.5 49t7.5 41h458l20 -19l-4 -110l-194 7l14 -98l169 4l-5 -116l-149 5l12 -91l200 7v-129h-362q-3 45 -5 83h-136q-6 -19 -13 -40t-15 -43zM303 405q-10 -41 -24.5 -89.5 t-35.5 -112.5h90q-4 70 -6.5 117t-3.5 85h-20z" />
<glyph horiz-adv-x="561" d="M313 0h-263v394q0 35 -1 71t-8 75h277q63 0 108.5 -19.5t69.5 -53t24 -74.5q0 -40 -23 -67t-64 -44q48 -16 78 -47.5t30 -85.5q0 -45 -30.5 -78.5t-82 -52t-115.5 -18.5zM286 420h-56v-96h57q28 0 41 14.5t13 33.5q0 48 -55 48zM295 214h-65v-94h65q29 0 45.5 13t16.5 32 q0 21 -16 35t-46 14z" />
<glyph horiz-adv-x="482" d="M457 157l20 -137q-69 -28 -165 -28q-140 0 -218 72.5t-78 199.5q0 83 38.5 147t106.5 100.5t157 36.5q51 0 90 -8.5t66 -22.5l-34 -143q-34 17 -62 26t-58 9q-56 0 -87.5 -40t-31.5 -102q0 -66 36 -101t99 -35q36 0 66.5 8t54.5 18z" />
<glyph horiz-adv-x="482" d="M384 806l10 -30q-62 -97 -156 -170l-70 10q17 49 31.5 99t24.5 99zM457 157l20 -137q-69 -28 -165 -28q-140 0 -218 72.5t-78 199.5q0 83 38.5 147t106.5 100.5t157 36.5q51 0 90 -8.5t66 -22.5l-34 -143q-34 17 -62 26t-58 9q-56 0 -87.5 -40t-31.5 -102q0 -66 36 -101 t99 -35q36 0 66.5 8t54.5 18z" />
<glyph horiz-adv-x="482" d="M404 824l57 -40q-34 -43 -61.5 -83.5t-53.5 -80.5l-117 -10q-25 43 -53 85.5t-62 88.5l57 40q32 -20 61 -44.5t56 -48.5q26 24 55 48.5t61 44.5zM457 157l20 -137q-69 -28 -165 -28q-140 0 -218 72.5t-78 199.5q0 83 38.5 147t106.5 100.5t157 36.5q51 0 90 -8.5 t66 -22.5l-34 -143q-34 17 -62 26t-58 9q-56 0 -87.5 -40t-31.5 -102q0 -66 36 -101t99 -35q36 0 66.5 8t54.5 18z" />
<glyph horiz-adv-x="482" d="M424 -155q0 -35 -21.5 -58t-56 -35.5t-76 -17.5t-80.5 -5l5 60q49 3 77 17t28 37q0 17 -18 26.5t-58 9.5l-19 30l26 90q-103 20 -159 89t-56 176q0 83 38.5 147t106.5 100.5t157 36.5q51 0 90 -8.5t66 -22.5l-34 -143q-34 17 -62 26t-58 9q-56 0 -87.5 -40t-31.5 -102 q0 -66 36 -101t99 -35q36 0 66.5 8t54.5 18l20 -137q-66 -27 -156 -28l-17 -52q28 -3 55.5 -13t46 -29.5t18.5 -52.5z" />
<glyph horiz-adv-x="482" d="M171 592l-57 40q34 43 62 83.5t53 80.5l117 10q26 -43 53.5 -85.5t61.5 -88.5l-57 -40q-32 20 -61 44.5t-56 48.5q-26 -24 -55 -48.5t-61 -44.5zM457 157l20 -137q-69 -28 -165 -28q-140 0 -218 72.5t-78 199.5q0 83 38.5 147t106.5 100.5t157 36.5q51 0 90 -8.5 t66 -22.5l-34 -143q-34 17 -62 26t-58 9q-56 0 -87.5 -40t-31.5 -102q0 -66 36 -101t99 -35q36 0 66.5 8t54.5 18z" />
<glyph horiz-adv-x="482" d="M386 715q0 -30 -15.5 -55.5t-41 -40.5t-57.5 -15q-43 0 -69.5 26.5t-26.5 63.5q0 30 16.5 55t43.5 40t58 15q40 0 66 -24t26 -65zM457 157l20 -137q-69 -28 -165 -28q-140 0 -218 72.5t-78 199.5q0 83 38.5 147t106.5 100.5t157 36.5q51 0 90 -8.5t66 -22.5l-34 -143 q-34 17 -62 26t-58 9q-56 0 -87.5 -40t-31.5 -102q0 -66 36 -101t99 -35q36 0 66.5 8t54.5 18z" />
<glyph horiz-adv-x="590" d="M574 276q0 -90 -42 -151.5t-112.5 -93t-157.5 -31.5h-212v394q0 35 -1 71t-8 75h241q141 0 216.5 -71t75.5 -193zM273 420h-43v-300h48q46 0 70 20.5t32.5 54t8.5 72.5q0 38 -9.5 73t-34.5 57.5t-72 22.5z" />
<glyph horiz-adv-x="590" d="M574 276q0 -90 -42 -151.5t-112.5 -93t-157.5 -31.5h-212v223h-43v90h43v81q0 35 -1 71t-8 75h241q141 0 216.5 -71t75.5 -193zM335 223h-105v-103h48q46 0 70 20.5t32.5 54t8.5 72.5q0 38 -9.5 73t-34.5 57.5t-72 22.5h-43v-107h105v-90z" />
<glyph horiz-adv-x="590" d="M424 824l57 -40q-34 -43 -61.5 -83.5t-53.5 -80.5l-117 -10q-25 43 -53 85.5t-62 88.5l57 40q32 -20 61 -44.5t56 -48.5q26 24 55 48.5t61 44.5zM574 276q0 -90 -42 -151.5t-112.5 -93t-157.5 -31.5h-212v394q0 35 -1 71t-8 75h241q141 0 216.5 -71t75.5 -193zM273 420 h-43v-300h48q46 0 70 20.5t32.5 54t8.5 72.5q0 38 -9.5 73t-34.5 57.5t-72 22.5z" />
<glyph horiz-adv-x="590" d="M574 276q0 -90 -42 -151.5t-112.5 -93t-157.5 -31.5h-212v223h-43v90h43v81q0 35 -1 71t-8 75h241q141 0 216.5 -71t75.5 -193zM335 223h-105v-103h48q46 0 70 20.5t32.5 54t8.5 72.5q0 38 -9.5 73t-34.5 57.5t-72 22.5h-43v-107h105v-90z" />
<glyph horiz-adv-x="590" d="M574 276q0 -90 -42 -151.5t-112.5 -93t-157.5 -31.5h-212v394q0 35 -1 71t-8 75h241q141 0 216.5 -71t75.5 -193zM273 420h-43v-300h48q46 0 70 20.5t32.5 54t8.5 72.5q0 38 -9.5 73t-34.5 57.5t-72 22.5zM406 -159q0 -30 -15.5 -55.5t-41 -40.5t-57.5 -15 q-43 0 -69.5 26.5t-26.5 63.5q0 30 16.5 55t43.5 40t58 15q40 0 66 -24t26 -65z" />
<glyph horiz-adv-x="481" d="M463 129v-129h-413v394q0 35 -1 71t-8 75h398l20 -19l-4 -110l-225 9v-100l181 4l-5 -116l-176 6v-94z" />
<glyph horiz-adv-x="481" d="M358 806l10 -30q-62 -97 -156 -170l-70 10q17 49 31.5 99t24.5 99zM463 129v-129h-413v394q0 35 -1 71t-8 75h398l20 -19l-4 -110l-225 9v-100l181 4l-5 -116l-176 6v-94z" />
<glyph horiz-adv-x="481" d="M341 805l69 9q-2 -56 -22.5 -101t-56 -70.5t-84.5 -25.5q-63 0 -105.5 48.5t-46.5 130.5l70 10q8 -37 32 -58t56 -21q34 0 57.5 22.5t30.5 55.5zM463 129v-129h-413v394q0 35 -1 71t-8 75h398l20 -19l-4 -110l-225 9v-100l181 4l-5 -116l-176 6v-94z" />
<glyph horiz-adv-x="481" d="M378 824l57 -40q-34 -43 -61.5 -83.5t-53.5 -80.5l-117 -10q-25 43 -53 85.5t-62 88.5l57 40q32 -20 61 -44.5t56 -48.5q26 24 55 48.5t61 44.5zM463 129v-129h-413v394q0 35 -1 71t-8 75h398l20 -19l-4 -110l-225 9v-100l181 4l-5 -116l-176 6v-94z" />
<glyph horiz-adv-x="481" d="M145 592l-57 40q34 43 62 83.5t53 80.5l117 10q26 -43 53.5 -85.5t61.5 -88.5l-57 -40q-32 20 -61 44.5t-56 48.5q-26 -24 -55 -48.5t-61 -44.5zM463 129v-129h-413v394q0 35 -1 71t-8 75h398l20 -19l-4 -110l-225 9v-100l181 4l-5 -116l-176 6v-94z" />
<glyph horiz-adv-x="481" d="M230 716q0 -42 -30 -72t-73 -30q-40 0 -63.5 24.5t-23.5 58.5q0 28 15 51t39.5 37t52.5 14q36 0 59.5 -22.5t23.5 -60.5zM469 716q0 -42 -30 -72t-73 -30q-40 0 -63.5 24.5t-23.5 58.5q0 28 15 51t39.5 37t52.5 14q36 0 59.5 -22.5t23.5 -60.5zM463 129v-129h-413v394 q0 35 -1 71t-8 75h398l20 -19l-4 -110l-225 9v-100l181 4l-5 -116l-176 6v-94z" />
<glyph horiz-adv-x="481" d="M360 715q0 -30 -15.5 -55.5t-41 -40.5t-57.5 -15q-43 0 -69.5 26.5t-26.5 63.5q0 30 16.5 55t43.5 40t58 15q40 0 66 -24t26 -65zM463 129v-129h-413v394q0 35 -1 71t-8 75h398l20 -19l-4 -110l-225 9v-100l181 4l-5 -116l-176 6v-94z" />
<glyph horiz-adv-x="481" d="M463 129v-129h-413v394q0 35 -1 71t-8 75h398l20 -19l-4 -110l-225 9v-100l181 4l-5 -116l-176 6v-94zM368 -159q0 -30 -15.5 -55.5t-41 -40.5t-57.5 -15q-43 0 -69.5 26.5t-26.5 63.5q0 30 16.5 55t43.5 40t58 15q40 0 66 -24t26 -65z" />
<glyph horiz-adv-x="481" d="M298 606q-94 73 -156 170l10 30l160 8q10 -49 24.5 -99t31.5 -99zM463 129v-129h-413v394q0 35 -1 71t-8 75h398l20 -19l-4 -110l-225 9v-100l181 4l-5 -116l-176 6v-94z" />
<glyph horiz-adv-x="481" d="M106 658v96h298v-96h-298zM463 129v-129h-413v394q0 35 -1 71t-8 75h398l20 -19l-4 -110l-225 9v-100l181 4l-5 -116l-176 6v-94z" />
<glyph horiz-adv-x="481" d="M463 0q-54 -25 -84.5 -57.5t-30.5 -63.5q0 -18 10.5 -29.5t32.5 -11.5q10 0 24 3t30 10l25 -59q-28 -25 -66 -41.5t-79 -16.5q-51 0 -85.5 29t-34.5 78q0 45 37.5 87.5t103.5 71.5h-296v394q0 35 -1 71t-8 75h398l20 -19l-4 -110l-225 9v-100l181 4l-5 -116l-176 6v-94 l233 9v-129z" />
<glyph horiz-adv-x="481" d="M179 802q34 0 60.5 -14.5t50.5 -28.5t49 -14q20 0 30.5 11.5t21.5 31.5l49 -7q0 -42 -11 -81t-34 -64.5t-61 -25.5q-30 0 -60 14t-57 28.5t-49 14.5q-14 0 -26 -10t-24 -33l-48 7q0 41 10 80.5t34 65t65 25.5zM463 129v-129h-413v394q0 35 -1 71t-8 75h398l20 -19 l-4 -110l-225 9v-100l181 4l-5 -116l-176 6v-94z" />
<glyph horiz-adv-x="533" d="M17 255l15 15h299q-7 82 -49.5 118t-110.5 36q-36 0 -68 -8t-58 -21l-10 113q26 15 73 28t110 13q90 0 157.5 -31.5t104.5 -91.5t37 -148q0 -86 -36.5 -151t-98.5 -101t-141 -36q-70 0 -120.5 27.5t-77.5 76t-27 110.5v24.5t1 26.5zM191 176q0 -37 13 -61.5t45 -24.5 q38 0 58 35t24 89l-139 -7q0 -7 -0.5 -15t-0.5 -16z" />
<glyph horiz-adv-x="444" d="M230 0h-180v394q0 35 -1 71t-8 75h378l20 -19l-4 -110l-205 9v-118l161 5l-5 -117l-156 7v-197z" />
<glyph horiz-adv-x="538" d="M497 269l20 -19l-3 -229q-39 -12 -86.5 -20.5t-102.5 -8.5q-102 0 -170.5 32.5t-103.5 91.5t-35 136q0 86 39.5 152.5t111.5 105t171 38.5q49 0 94 -9t76 -23l-29 -143q-30 18 -64 29t-69 11q-64 0 -104.5 -37.5t-40.5 -112.5q0 -66 35 -103.5t106 -37.5h5q0 29 -2 50 t-4.5 41.5t-6.5 47.5z" />
<glyph horiz-adv-x="538" d="M392 806l10 -30q-62 -97 -156 -170l-70 10q17 49 31.5 99t24.5 99zM497 269l20 -19l-3 -229q-39 -12 -86.5 -20.5t-102.5 -8.5q-102 0 -170.5 32.5t-103.5 91.5t-35 136q0 86 39.5 152.5t111.5 105t171 38.5q49 0 94 -9t76 -23l-29 -143q-30 18 -64 29t-69 11 q-64 0 -104.5 -37.5t-40.5 -112.5q0 -66 35 -103.5t106 -37.5h5q0 29 -2 50t-4.5 41.5t-6.5 47.5z" />
<glyph horiz-adv-x="538" d="M375 805l69 9q-2 -56 -22.5 -101t-56 -70.5t-84.5 -25.5q-63 0 -105.5 48.5t-46.5 130.5l70 10q8 -37 32 -58t56 -21q34 0 57.5 22.5t30.5 55.5zM497 269l20 -19l-3 -229q-39 -12 -86.5 -20.5t-102.5 -8.5q-102 0 -170.5 32.5t-103.5 91.5t-35 136q0 86 39.5 152.5 t111.5 105t171 38.5q49 0 94 -9t76 -23l-29 -143q-30 18 -64 29t-69 11q-64 0 -104.5 -37.5t-40.5 -112.5q0 -66 35 -103.5t106 -37.5h5q0 29 -2 50t-4.5 41.5t-6.5 47.5z" />
<glyph horiz-adv-x="538" d="M412 824l57 -40q-34 -43 -61.5 -83.5t-53.5 -80.5l-117 -10q-25 43 -53 85.5t-62 88.5l57 40q32 -20 61 -44.5t56 -48.5q26 24 55 48.5t61 44.5zM497 269l20 -19l-3 -229q-39 -12 -86.5 -20.5t-102.5 -8.5q-102 0 -170.5 32.5t-103.5 91.5t-35 136q0 86 39.5 152.5 t111.5 105t171 38.5q49 0 94 -9t76 -23l-29 -143q-30 18 -64 29t-69 11q-64 0 -104.5 -37.5t-40.5 -112.5q0 -66 35 -103.5t106 -37.5h5q0 29 -2 50t-4.5 41.5t-6.5 47.5z" />
<glyph horiz-adv-x="538" d="M179 592l-57 40q34 43 62 83.5t53 80.5l117 10q26 -43 53.5 -85.5t61.5 -88.5l-57 -40q-32 20 -61 44.5t-56 48.5q-26 -24 -55 -48.5t-61 -44.5zM497 269l20 -19l-3 -229q-39 -12 -86.5 -20.5t-102.5 -8.5q-102 0 -170.5 32.5t-103.5 91.5t-35 136q0 86 39.5 152.5 t111.5 105t171 38.5q49 0 94 -9t76 -23l-29 -143q-30 18 -64 29t-69 11q-64 0 -104.5 -37.5t-40.5 -112.5q0 -66 35 -103.5t106 -37.5h5q0 29 -2 50t-4.5 41.5t-6.5 47.5z" />
<glyph horiz-adv-x="538" d="M497 269l20 -19l-3 -229q-39 -12 -86.5 -20.5t-102.5 -8.5q-102 0 -170.5 32.5t-103.5 91.5t-35 136q0 86 39.5 152.5t111.5 105t171 38.5q49 0 94 -9t76 -23l-29 -143q-30 18 -64 29t-69 11q-64 0 -104.5 -37.5t-40.5 -112.5q0 -66 35 -103.5t106 -37.5h5q0 29 -2 50 t-4.5 41.5t-6.5 47.5zM225 -329q18 18 35 43.5t26 51.5q-26 5 -44 25.5t-18 50.5q0 35 26 61t64 26q33 0 59 -23.5t26 -71.5q0 -43 -20.5 -83t-49.5 -72t-53 -53z" />
<glyph horiz-adv-x="538" d="M394 715q0 -30 -15.5 -55.5t-41 -40.5t-57.5 -15q-43 0 -69.5 26.5t-26.5 63.5q0 30 16.5 55t43.5 40t58 15q40 0 66 -24t26 -65zM497 269l20 -19l-3 -229q-39 -12 -86.5 -20.5t-102.5 -8.5q-102 0 -170.5 32.5t-103.5 91.5t-35 136q0 86 39.5 152.5t111.5 105t171 38.5 q49 0 94 -9t76 -23l-29 -143q-30 18 -64 29t-69 11q-64 0 -104.5 -37.5t-40.5 -112.5q0 -66 35 -103.5t106 -37.5h5q0 29 -2 50t-4.5 41.5t-6.5 47.5z" />
<glyph horiz-adv-x="615" d="M230 0h-180v386q0 42 -2 81.5t-7 72.5l169 8l20 -19v-202h155v59q0 42 -2 81.5t-7 72.5l170 8l19 -19v-529h-180v207h-155v-207z" />
<glyph horiz-adv-x="615" d="M230 0h-180v378h-66v90h64q-3 40 -7 72l169 8l20 -19v-61h153q-3 40 -7 72l170 8l19 -19v-61h67v-90h-67v-378h-180v207h-155v-207zM230 327h155v51h-155v-51z" />
<glyph horiz-adv-x="615" d="M198 592l-57 40q34 43 62 83.5t53 80.5l117 10q26 -43 53.5 -85.5t61.5 -88.5l-57 -40q-32 20 -61 44.5t-56 48.5q-26 -24 -55 -48.5t-61 -44.5zM230 0h-180v386q0 42 -2 81.5t-7 72.5l169 8l20 -19v-202h155v59q0 42 -2 81.5t-7 72.5l170 8l19 -19v-529h-180v207h-155 v-207z" />
<glyph horiz-adv-x="615" d="M230 0h-180v386q0 42 -2 81.5t-7 72.5l169 8l20 -19v-202h155v59q0 42 -2 81.5t-7 72.5l170 8l19 -19v-529h-180v207h-155v-207zM413 -159q0 -30 -15.5 -55.5t-41 -40.5t-57.5 -15q-43 0 -69.5 26.5t-26.5 63.5q0 30 16.5 55t43.5 40t58 15q40 0 66 -24t26 -65z" />
<glyph horiz-adv-x="279" d="M230 0h-180v386q0 42 -2 81.5t-7 72.5l169 8l20 -19v-529z" />
<glyph horiz-adv-x="279" d="M230 0h-180v386q0 42 -2 81.5t-7 72.5l169 8l20 -19v-529z" />
<glyph horiz-adv-x="279" d="M243 806l10 -30q-62 -97 -156 -170l-70 10q17 49 31.5 99t24.5 99zM230 0h-180v386q0 42 -2 81.5t-7 72.5l169 8l20 -19v-529z" />
<glyph horiz-adv-x="279" d="M210 793l69 9q-2 -56 -20 -101t-49.5 -70.5t-75.5 -25.5q-55 0 -93 48.5t-41 130.5l70 10q3 -37 22.5 -58t47.5 -21q30 0 49 22.5t21 55.5zM230 0h-180v386q0 42 -2 81.5t-7 72.5l169 8l20 -19v-529z" />
<glyph horiz-adv-x="279" d="M216 816l64 -24q-17 -43 -31 -87.5t-26 -88.5l-167 -10q-12 47 -26 93.5t-31 92.5l64 24q22 -22 41 -47t35 -53q17 28 36 53t41 47zM230 0h-180v386q0 42 -2 81.5t-7 72.5l169 8l20 -19v-529z" />
<glyph horiz-adv-x="279" d="M63 601l-64 24q17 44 31 88t26 88l167 10q12 -47 26 -93t31 -93l-64 -24q-22 22 -41 47t-35 53q-17 -28 -36 -53t-41 -47zM230 0h-180v386q0 42 -2 81.5t-7 72.5l169 8l20 -19v-529z" />
<glyph horiz-adv-x="279" d="M129 717q0 -42 -27 -72t-65 -30q-36 0 -58 24.5t-22 58.5q0 28 14 51t36.5 37t47.5 14q32 0 53 -22.5t21 -60.5zM322 717q0 -42 -27.5 -72t-65.5 -30q-35 0 -56 24.5t-21 58.5q0 41 28.5 71.5t66.5 30.5q32 0 53.5 -22.5t21.5 -60.5zM230 0h-180v386q0 42 -2 81.5 t-7 72.5l169 8l20 -19v-529z" />
<glyph horiz-adv-x="279" d="M245 715q0 -30 -15.5 -55.5t-41 -40.5t-57.5 -15q-43 0 -69.5 26.5t-26.5 63.5q0 30 16.5 55t43.5 40t58 15q40 0 66 -24t26 -65zM230 0h-180v386q0 42 -2 81.5t-7 72.5l169 8l20 -19v-529z" />
<glyph horiz-adv-x="279" d="M230 0h-180v386q0 42 -2 81.5t-7 72.5l169 8l20 -19v-529zM245 -159q0 -30 -15.5 -55.5t-41 -40.5t-57.5 -15q-43 0 -69.5 26.5t-26.5 63.5q0 30 16.5 55t43.5 40t58 15q40 0 66 -24t26 -65z" />
<glyph horiz-adv-x="279" d="M183 606q-94 73 -156 170l10 30l160 8q10 -49 24.5 -99t31.5 -99zM230 0h-180v386q0 42 -2 81.5t-7 72.5l169 8l20 -19v-529z" />
<glyph horiz-adv-x="558" d="M230 0h-180v386q0 42 -2 81.5t-7 72.5l169 8l20 -19v-529zM319 -162l-49 56q34 51 46 109t12 125v258q0 35 -3 70t-11 75l176 17l18 -18v-402q0 -72 -14.5 -123.5t-55 -91t-119.5 -75.5z" />
<glyph horiz-adv-x="279" d="M15 658v96h250v-96h-250zM230 0h-180v386q0 42 -2 81.5t-7 72.5l169 8l20 -19v-529z" />
<glyph horiz-adv-x="279" d="M230 0q-36 -25 -56.5 -55.5t-20.5 -57.5q0 -19 11 -31t32 -12q9 0 23.5 3t30.5 10l25 -59q-27 -25 -63 -41.5t-79 -16.5q-54 0 -88.5 28.5t-34.5 76.5q0 44 31 85t85 70h-76v386q0 42 -2 81.5t-7 72.5l169 8l20 -19v-529z" />
<glyph horiz-adv-x="279" d="M77 803q26 0 49 -14.5t43 -28.5t37 -14q14 0 24 10t18 33l44 -7q0 -41 -8.5 -80.5t-28 -65t-53.5 -25.5q-23 0 -48.5 14t-47 28.5t-33.5 14.5q-13 0 -23.5 -10t-18.5 -33l-44 7q0 41 8.5 80.5t28 65t53.5 25.5zM230 0h-180v386q0 42 -2 81.5t-7 72.5l169 8l20 -19v-529z " />
<glyph horiz-adv-x="279" d="M40 -162l-49 56q34 51 46 109t12 125v258q0 35 -3 70t-11 75l176 17l18 -18v-402q0 -72 -14.5 -123.5t-55 -91t-119.5 -75.5z" />
<glyph horiz-adv-x="279" d="M40 -162l-49 56q34 51 46 109t12 125v258q0 35 -3 70t-11 75l176 17l18 -18v-402q0 -72 -14.5 -123.5t-55 -91t-119.5 -75.5z" />
<glyph horiz-adv-x="279" d="M49 601l-64 24q17 44 31 88t26 88l167 10q12 -47 26 -93t31 -93l-64 -24q-22 22 -41 47t-35 53q-17 -28 -36 -53t-41 -47zM40 -162l-49 56q34 51 46 109t12 125v258q0 35 -3 70t-11 75l176 17l18 -18v-402q0 -72 -14.5 -123.5t-55 -91t-119.5 -75.5z" />
<glyph horiz-adv-x="581" d="M50 386q0 38 -2 75t-7 79l170 8l19 -19v-225h43q21 50 49 116.5t51 127.5l172 -8l9 -17l-136 -236l157 -287l-210 -3q-24 41 -48 90.5t-44 96.5h-43v-184h-180v386z" />
<glyph horiz-adv-x="581" d="M50 386q0 38 -2 75t-7 79l170 8l19 -19v-225h43q21 50 49 116.5t51 127.5l172 -8l9 -17l-136 -236l157 -287l-210 -3q-24 41 -48 90.5t-44 96.5h-43v-184h-180v386zM204 -329q18 18 35 43.5t26 51.5q-26 5 -44 25.5t-18 50.5q0 35 26 61t64 26q33 0 59 -23.5t26 -71.5 q0 -43 -20.5 -83t-49.5 -72t-53 -53z" />
<glyph horiz-adv-x="581" d="M50 386q0 38 -2 75t-7 79l170 8l19 -19v-225h43q21 50 49 116.5t51 127.5l172 -8l9 -17l-136 -236l157 -287l-210 -3q-24 41 -48 90.5t-44 96.5h-43v-184h-180v386z" />
<glyph horiz-adv-x="460" d="M444 129v-129h-394v386q0 42 -2 81.5t-7 72.5l169 8l20 -19v-409z" />
<glyph horiz-adv-x="460" d="M328 806l10 -30q-62 -97 -156 -170l-70 10q17 49 31.5 99t24.5 99zM444 129v-129h-394v386q0 42 -2 81.5t-7 72.5l169 8l20 -19v-409z" />
<glyph horiz-adv-x="460" d="M447 601l10 -30q-23 -61 -52 -113.5t-58 -96.5h-59q6 59 12 119.5t10 120.5h137zM444 129v-129h-394v386q0 42 -2 81.5t-7 72.5l169 8l20 -19v-409z" />
<glyph horiz-adv-x="460" d="M444 129v-129h-394v386q0 42 -2 81.5t-7 72.5l169 8l20 -19v-409zM138 -329q18 18 35 43.5t26 51.5q-26 5 -44 25.5t-18 50.5q0 35 26 61t64 26q33 0 59 -23.5t26 -71.5q0 -43 -21 -83t-49.5 -72t-52.5 -53z" />
<glyph horiz-adv-x="460" d="M489 339q0 -30 -15.5 -55.5t-41 -40.5t-57.5 -15q-43 0 -69.5 26.5t-26.5 63.5q0 30 16.5 55t43.5 40t58 15q40 0 66 -24t26 -65zM444 129v-129h-394v386q0 42 -2 81.5t-7 72.5l169 8l20 -19v-409z" />
<glyph horiz-adv-x="460" d="M444 129v-129h-394v174l-76 -42l-40 74l116 64v116q0 42 -2 81.5t-7 72.5l169 8l20 -19v-159l103 57l41 -74l-144 -80v-153z" />
<glyph horiz-adv-x="775" d="M676 548l24 -19l51 -529h-176l-17 183q-2 25 -4.5 63.5t-4 78.5t-3.5 67h-3q-4 -52 -12 -104.5t-19 -104.5l-39 -183h-201l-39 183q-10 49 -18.5 102.5t-12.5 107.5h-3q-2 -62 -5 -115.5t-8 -94.5l-17 -183h-145l52 539l249 7l18 -101q9 -37 17.5 -85.5t15.5 -101 t11 -101.5h3q5 49 12.5 102t15.5 101.5t14 84.5l16 94z" />
<glyph horiz-adv-x="610" d="M334 356q18 -26 34.5 -58.5t31.5 -67.5h3q-7 28 -10 53t-3 47q0 117 -9 210l160 6l19 -19v-527h-169q-38 58 -65 104t-51 82q-18 26 -34.5 56.5t-30.5 58.5h-3q9 -43 11 -76t2 -62v-163h-170v394q0 35 -2 74t-7 72l179 5q37 -62 63.5 -106.5t50.5 -82.5z" />
<glyph horiz-adv-x="610" d="M408 806l10 -30q-62 -97 -156 -170l-70 10q17 49 31.5 99t24.5 99zM334 356q18 -26 34.5 -58.5t31.5 -67.5h3q-7 28 -10 53t-3 47q0 117 -9 210l160 6l19 -19v-527h-169q-38 58 -65 104t-51 82q-18 26 -34.5 56.5t-30.5 58.5h-3q9 -43 11 -76t2 -62v-163h-170v394 q0 35 -2 74t-7 72l179 5q37 -62 63.5 -106.5t50.5 -82.5z" />
<glyph horiz-adv-x="610" d="M428 824l57 -40q-34 -43 -61.5 -83.5t-53.5 -80.5l-117 -10q-25 43 -53 85.5t-62 88.5l57 40q32 -20 61 -44.5t56 -48.5q26 24 55 48.5t61 44.5zM334 356q18 -26 34.5 -58.5t31.5 -67.5h3q-7 28 -10 53t-3 47q0 117 -9 210l160 6l19 -19v-527h-169q-38 58 -65 104t-51 82 q-18 26 -34.5 56.5t-30.5 58.5h-3q9 -43 11 -76t2 -62v-163h-170v394q0 35 -2 74t-7 72l179 5q37 -62 63.5 -106.5t50.5 -82.5z" />
<glyph horiz-adv-x="610" d="M334 356q18 -26 34.5 -58.5t31.5 -67.5h3q-7 28 -10 53t-3 47q0 117 -9 210l160 6l19 -19v-527h-169q-38 58 -65 104t-51 82q-18 26 -34.5 56.5t-30.5 58.5h-3q9 -43 11 -76t2 -62v-163h-170v394q0 35 -2 74t-7 72l179 5q37 -62 63.5 -106.5t50.5 -82.5zM218 -329 q18 18 35 43.5t26 51.5q-26 5 -44 25.5t-18 50.5q0 35 26 61t64 26q33 0 59 -23.5t26 -71.5q0 -43 -20.5 -83t-49.5 -72t-53 -53z" />
<glyph horiz-adv-x="610" d="M410 715q0 -30 -15.5 -55.5t-41 -40.5t-57.5 -15q-43 0 -69.5 26.5t-26.5 63.5q0 30 16.5 55t43.5 40t58 15q40 0 66 -24t26 -65zM334 356q18 -26 34.5 -58.5t31.5 -67.5h3q-7 28 -10 53t-3 47q0 117 -9 210l160 6l19 -19v-527h-169q-38 58 -65 104t-51 82 q-18 26 -34.5 56.5t-30.5 58.5h-3q9 -43 11 -76t2 -62v-163h-170v394q0 35 -2 74t-7 72l179 5q37 -62 63.5 -106.5t50.5 -82.5z" />
<glyph horiz-adv-x="610" d="M220 0h-170v394q0 35 -2 74t-7 72l179 5q37 -62 63.5 -106.5t50.5 -82.5q18 -26 34.5 -58.5t31.5 -67.5h3q-7 47 -10 73.5l-3 26.5q0 117 -9 210l160 6l19 -19v-399q0 -72 -14.5 -123.5t-55 -91t-119.5 -75.5l-49 56q20 28 35.5 59.5t20.5 66.5q-33 51 -57 92t-46 74 q-18 26 -34.5 56.5t-30.5 58.5h-3q9 -43 11 -76t2 -62v-163z" />
<glyph horiz-adv-x="609" d="M40 -162l-49 56q34 51 46 109t12 125v266q0 35 -2 74t-7 72l179 5q37 -62 63.5 -106.5t50.5 -82.5q18 -26 34.5 -58.5t31.5 -67.5h3q-7 47 -10 73.5l-3 26.5q0 117 -9 210l160 6l19 -19v-527h-169q-38 58 -65 104t-51 82q-18 26 -34.5 56.5t-30.5 58.5h-3q9 -43 11 -76 t2 -62v-35q0 -72 -13.5 -123.5t-52 -91t-113.5 -75.5z" />
<glyph horiz-adv-x="610" d="M229 802q34 0 60.5 -14.5t50.5 -28.5t49 -14q20 0 30.5 11.5t21.5 31.5l49 -7q0 -42 -11 -81t-34 -64.5t-61 -25.5q-30 0 -60 14t-57 28.5t-49 14.5q-14 0 -26 -10t-24 -33l-48 7q0 41 10 80.5t34 65t65 25.5zM334 356q18 -26 34.5 -58.5t31.5 -67.5h3q-7 28 -10 53 t-3 47q0 117 -9 210l160 6l19 -19v-527h-169q-38 58 -65 104t-51 82q-18 26 -34.5 56.5t-30.5 58.5h-3q9 -43 11 -76t2 -62v-163h-170v394q0 35 -2 74t-7 72l179 5q37 -62 63.5 -106.5t50.5 -82.5z" />
</font>
</defs>
</svg>
