<?xml version="1.0" standalone="no"?>
<!DOCTYPE svg PUBLIC "-//W3C//DTD SVG 1.1//EN" "http://www.w3.org/Graphics/SVG/1.1/DTD/svg11.dtd" >
<svg xmlns="http://www.w3.org/2000/svg" xmlns:xlink="http://www.w3.org/1999/xlink" version="1.1">
<metadata></metadata>
<defs>
<font id="indivisa_text_sansitalic" horiz-adv-x="574" >
<font-face units-per-em="1000" ascent="800" descent="-200" />
<missing-glyph horiz-adv-x="258" />
<glyph unicode="&#x2f;symbol&#x31;&#x2f;" horiz-adv-x="5534" d="M1865 412q-25 0 -40.5 14.5t-15.5 37.5q0 24 15.5 45t39 34.5t48.5 13.5q24 0 39 -13.5t15 -37.5t-14.5 -45.5t-37.5 -35t-49 -13.5zM1284 412q-26 0 -41.5 14.5t-15.5 37.5q0 24 15.5 45t39.5 34.5t49 13.5q24 0 38.5 -13.5t14.5 -37.5t-14.5 -45.5t-37 -35t-48.5 -13.5 zM959 0q0 21 2.5 46.5t8.5 61.5q-16 -49 -51 -82t-79 -33q-41 0 -63 30t-22 82q0 45 15.5 91t46.5 85.5t76.5 63.5t104.5 24h12.5t12.5 -1l16 73l6 102l136 7q0 -40 -9.5 -95t-23 -116.5t-27 -123.5t-23 -117.5t-9.5 -97.5h-130zM100 0l78 364q8 38 13.5 72.5t7.5 63.5 l128 7l11 -15l-104 -492h-134zM3503 492l-57 -492h-131l20 175q3 30 9 69t12.5 78t11.5 68h-3q-16 -53 -37 -107.5t-44 -107.5l-76 -175h-149l-2 175q-1 56 1 109t8 106h-2q-15 -61 -30 -115.5t-29 -99.5l-53 -175h-109l154 500l184 6l1 -137q1 -50 -2.5 -121.5 t-12.5 -137.5h2q20 65 36 111t30.5 81t27.5 67l56 131l169 7zM5316 300q-15 -74 -23 -110.5t-11 -51t-3 -21.5q0 -34 36 -34q13 0 28 5t31 13l-9 -79q-20 -11 -50 -20t-64 -9q-50 0 -77.5 25t-27.5 75q0 11 1.5 23.5t6 33.5t12.5 57.5t20 95.5l-47 1l9 44l54 14l53 95l81 6 l13 -15l-20 -86h99l6 -14l-17 -51zM336 0q0 28 4 62t13 82t24 116l6 102l137 7q0 -18 -2 -41t-5 -48h2q29 49 65.5 69t68.5 20q35 0 53.5 -19.5t18.5 -51.5q0 -23 -8 -62.5t-18 -84.5q-7 -33 -11 -57t-5.5 -45.5t-1.5 -48.5h-131q0 38 4.5 69.5t14.5 80.5q7 35 11 55.5 t4 31.5q0 24 -17 24t-34 -22.5t-30.5 -60.5t-22 -84t-9.5 -94h-131zM1170 0q0 39 7 87.5t20 105.5l14 67l6 102l137 7q0 -36 -8 -81.5t-19 -95.5t-19 -99t-8 -93h-130zM1399 362l140 7q6 -59 4.5 -137.5t-9.5 -151.5h2q23 45 42 95t32 99t17 90q17 4 28.5 4.5t21.5 0.5 q28 0 46.5 -7t18.5 -35q0 -22 -13.5 -60.5t-36.5 -85t-53.5 -94t-63.5 -87.5h-149q-2 111 -9.5 207.5t-17.5 154.5zM1752 0q0 39 7 87.5t19 105.5l15 67l6 102l137 7q0 -36 -8 -81.5t-19 -95.5t-19 -99t-8 -93h-130zM4716 0q0 28 4 62t13 82t24 116l6 102l137 7 q0 -18 -2.5 -41t-4.5 -48h2q29 49 65 69t69 20q35 0 53.5 -19.5t18.5 -51.5q0 -23 -8 -62.5t-18 -84.5q-7 -33 -11 -57t-6 -45.5t-2 -48.5h-130q0 38 4.5 69.5t14.5 80.5q7 35 11 55.5t4 31.5q0 24 -17 24q-18 0 -34.5 -22.5t-30.5 -60.5t-22.5 -84t-9.5 -94h-130zM2245 256 q-25 14 -51.5 22t-45.5 8q-17 0 -29.5 -7t-12.5 -19q0 -13 13 -22t32 -17.5t38 -20.5t32 -30.5t13 -47.5q0 -39 -25 -68t-66.5 -45t-89.5 -16q-33 0 -66.5 7.5t-51.5 20.5l27 93q27 -18 58.5 -28t52.5 -10q20 0 30 8t10 18q0 13 -13 22t-32 18t-38 21t-32 30t-13 46 q0 39 25.5 68t67.5 45.5t90 16.5q20 0 48.5 -3.5t55.5 -14.5zM2525 369q32 0 73.5 -7.5t72.5 -24.5l-29 -128q-20 -94 -25.5 -140.5t-5.5 -68.5h-130q0 20 2.5 45t9.5 67q-15 -50 -50.5 -84.5t-81.5 -34.5q-41 0 -62.5 30t-21.5 83q0 44 15.5 90.5t46.5 85.5t77.5 63 t108.5 24zM4653 51q-32 -28 -74 -43t-85 -15q-62 0 -102 33.5t-40 103.5q0 46 17.5 88.5t49.5 76.5t75 54t94 20q53 0 86 -23t33 -65q0 -56 -59 -95.5t-162 -44.5v-1q0 -29 15 -46.5t48 -17.5q22 0 45 7.5t45 20.5zM3936 0q0 28 4 62t13.5 82t24.5 116l5 102l137 7 q0 -18 -2 -41t-5 -48h2q29 49 65.5 69t68.5 20q35 0 53.5 -19.5t18.5 -51.5q0 -23 -8 -62.5t-18 -84.5q-7 -33 -11 -57t-5.5 -45.5t-1.5 -48.5h-131q0 38 4.5 69.5t14.5 80.5q8 35 11.5 55.5t3.5 31.5q0 24 -17 24t-34 -22.5t-30.5 -60.5t-22 -84t-9.5 -94h-131zM3768 369 q32 0 73 -7.5t72 -24.5l-28 -128q-20 -94 -25.5 -140.5t-5.5 -68.5h-130q0 20 2.5 45t9.5 67q-15 -50 -50.5 -84.5t-81.5 -34.5q-41 0 -63 30t-22 83q0 44 15.5 90.5t47 85.5t78 63t108.5 24zM4490 177q46 10 72.5 33.5t26.5 59.5q0 17 -5.5 24t-16.5 7q-20 0 -36 -20 t-26 -48.5t-15 -55.5zM3677 101q17 0 33 21t30 54t22 69q2 11 4.5 22t4.5 22q-16 8 -27 8q-18 0 -34.5 -16t-29 -40.5t-20 -51.5t-7.5 -48q0 -40 24 -40zM913 101q16 0 31 19.5t28.5 50t22.5 64.5l4 20l4 20l3 14q-14 8 -27 8q-18 0 -34 -16t-28.5 -40.5t-20 -51.5t-7.5 -48 q0 -40 24 -40zM2435 101q16 0 32.5 21t30 54t21.5 69q2 11 4.5 22t4.5 22q-14 8 -27 8q-18 0 -34 -16t-29 -40.5t-20 -51.5t-7 -48q0 -40 24 -40z" />
<glyph unicode="&#x2f;symbol&#x32;&#x2f;" horiz-adv-x="932" d="M494 570l52 -90l-137 -240h-103l137 240l-52 90h103zM357 570l52 -90l-138 -240h-103l138 240l-52 90h103zM752 120h-103l-137 240l51 90l137 -240h103zM683 0h-103l-137 240l51 90l138 -240h103zM100 120l51 90h275l51 -90h-274l-52 -90zM168 0l52 90h274l52 -90h-275 l-51 -90zM789 88q18 0 30.5 -13t12.5 -31t-12.5 -31t-30.5 -13t-30.5 13t-12.5 31t12.5 31t30.5 13zM829 44q0 17 -11.5 28.5t-28.5 11.5q-16 0 -28 -11.5t-12 -28.5q0 -16 12 -28t28 -12q17 0 28.5 12t11.5 28zM771 69h18h5t6 -2q5 -4 5 -11q0 -5 -3 -8q-1 -2 -2.5 -2.5 t-3.5 -1.5q7 -1 8 -9q0 -8 3 -16h-8q-1 2 -1 6t-1 7q-1 5 -2.5 7.5t-8.5 2.5h-8v-23h-7v50zM778 47h10h3.5t3.5 1q3 3 3 7q0 6 -4 7t-6 1h-10v-16z" />
<glyph unicode="&#x2f;symbol&#x33;&#x2f;" horiz-adv-x="957" d="M505 638l68 -270h270l-203 -135l136 -270l-271 135l-270 -270l135 405l-270 203l338 -68zM814 87q18 0 30.5 -12.5t12.5 -31.5q0 -18 -12.5 -30.5t-30.5 -12.5t-30.5 12.5t-12.5 30.5q0 19 12.5 31.5t30.5 12.5zM854 43q0 17 -11.5 29t-28.5 12q-16 0 -28 -12t-12 -29 q0 -16 12 -28t28 -12q17 0 28.5 12t11.5 28zM796 68h18h5.5t5.5 -2q6 -3 6 -10q0 -5 -4 -9q-3 -3 -6 -3q7 -3 8 -10q1 -4 1.5 -7.5t1.5 -8.5h-7q-1 3 -1.5 7t-1.5 7q0 9 -10 9h-9v-23h-7v50zM803 47h10h3.5t3.5 1l2 2t1 4q0 7 -4 8t-6 1h-10v-16z" />
<glyph unicode="&#x2f;symbol&#x34;&#x2f;" horiz-adv-x="2607" d="M1684 406q0 32 -2.5 63t-8.5 65l126 14l15 -15v-533h-130v406zM1889 406q0 62 -10 128l126 14l14 -15v-533h-130v406zM427 101v-101h-320v362q0 38 -1.5 72t-5.5 63l126 7l14 -14v-396zM925 21l7 109q31 -18 72 -27t72 -9q50 0 50 36q0 19 -20.5 34t-50 31t-59.5 37 t-50.5 51t-20.5 74q0 48 26 80.5t70 49.5t97 17q81 0 127 -18l-14 -111q-28 14 -55 21.5t-56 7.5q-28 0 -43 -11t-15 -29q0 -22 20.5 -38.5t50.5 -32.5t59.5 -36.5t50 -49.5t20.5 -73q0 -67 -54 -104t-139 -37q-40 0 -82.5 8t-62.5 20zM795 0l-106 -7q-7 11 -12 24t-9 25h-4 q-15 -22 -42.5 -35.5t-61.5 -13.5q-41 0 -69 22t-28 67q0 61 53.5 88.5t137.5 29.5v20q0 54 -58 54q-55 0 -108 -29l-8 97q27 10 68.5 18t81.5 8q154 0 154 -135q0 -38 -2 -69.5t-2 -69.5q0 -24 4.5 -50.5t10.5 -43.5zM1626 0l-107 -7q-7 11 -12 24t-9 25h-3 q-15 -22 -42.5 -35.5t-62.5 -13.5q-40 0 -68 22t-28 67q0 61 53 88.5t138 29.5v20q0 54 -58 54q-54 0 -109 -29l-7 97q27 10 68.5 18t81.5 8q153 0 153 -135q0 -38 -1.5 -69.5t-1.5 -69.5q0 -24 4.5 -50.5t10.5 -43.5zM2405 213v-17t-1 -19l-11 -11h-191q8 -45 33.5 -64 t64.5 -19q24 0 45.5 6t38.5 15l7 -81q-17 -11 -49.5 -20.5t-77.5 -9.5q-88 0 -143 47t-55 135q0 58 24 101t66 67.5t94 24.5q73 0 114 -43.5t41 -111.5zM2199 207l78 4q1 5 1.5 11t0.5 15q0 23 -7.5 41t-26.5 18q-23 0 -34 -25.5t-12 -63.5zM654 74v88q-27 -3 -46 -17 t-19 -40q0 -18 10.5 -29t26.5 -11t28 9zM1485 74v88q-27 -3 -46 -17t-19 -40q0 -18 10 -29t27 -11q16 0 28 9zM2464 85q18 0 30.5 -13t12.5 -31t-12.5 -31t-30.5 -13t-31 13t-13 31t13 31t31 13zM2504 41q0 17 -11.5 28.5t-28.5 11.5q-16 0 -28 -11.5t-12 -28.5 q0 -16 12 -28t28 -12q17 0 28.5 12t11.5 28zM2446 66h18q2 0 5 -0.5t6 -2.5q5 -2 5 -10q0 -4 -3 -9q-3 -3 -6 -3q7 -1 8 -10q0 -7 3 -15h-8q-1 2 -1 6t-1 7q-1 5 -2.5 7t-8.5 2h-8v-22h-7v50zM2453 44h10h3.5t3.5 1q3 3 3 7q0 6 -4 7t-6 1h-10v-16z" />
<glyph unicode="&#x2f;symbol&#x35;&#x2f;" horiz-adv-x="705" d="M232 -6l-132 136l124 234l129 -136zM474 -6l-121 234l128 136l124 -234z" />
<glyph unicode=" "  horiz-adv-x="258" />
<glyph unicode="&#x09;" horiz-adv-x="258" />
<glyph unicode="&#xa0;" horiz-adv-x="258" />
<glyph unicode="!" horiz-adv-x="279" d="M152 200h-49q32 175 55 301t33 185l74 10l7 -8q-27 -117 -57.5 -241.5t-62.5 -246.5zM147 65q0 -29 -20.5 -52t-46.5 -23q-18 0 -27.5 11.5t-9.5 27.5q0 27 21 49.5t46 22.5q18 0 27.5 -10t9.5 -26z" />
<glyph unicode="&#x22;" horiz-adv-x="274" d="M214 756l4 -11l-74 -242h-29l34 253h65zM335 756l4 -11l-74 -242h-29l34 253h65z" />
<glyph unicode="#" horiz-adv-x="718" d="M181 -10l-39 5l-7 8l67 145h-135l-6 8l15 41h148l68 146h-141l-6 8l15 41h154l71 154l40 -5l6 -8l-65 -141h169l71 154l40 -5l6 -8l-65 -141h130l6 -8l-14 -41h-144l-68 -146h141l6 -8l-14 -41h-155l-73 -158l-39 5l-7 8l67 145h-169zM276 197h169l68 146h-169z" />
<glyph unicode="$" horiz-adv-x="475" d="M138 -140l-6 8l26 122q-35 0 -76.5 8.5t-73.5 27.5l23 68q33 -24 73.5 -33t69.5 -9q64 0 106.5 33t42.5 91q0 42 -20.5 71.5t-51 54.5t-60.5 51t-51 59.5t-21 81.5q0 51 26.5 93t71.5 70t102 36l28 130l32 3l6 -8l-26 -122h5q37 0 73 -8.5t60 -22.5l-26 -69 q-28 22 -61 30t-59 8q-69 0 -110 -37.5t-41 -91.5q0 -40 20.5 -68.5t50.5 -53t60.5 -50.5t51 -60t20.5 -83q0 -55 -27.5 -97t-74 -68t-103.5 -33l-28 -129z" />
<glyph unicode="%" horiz-adv-x="959" d="M453 555q0 -47 -16 -93t-45 -84t-69.5 -61t-89.5 -23q-59 0 -92.5 36t-33.5 106q0 48 16.5 94.5t45.5 84t69.5 60t88.5 22.5q60 0 93 -36.5t33 -105.5zM748 696l-423 -706h-46l422 706h47zM173 436q0 -99 72 -99q34 0 60.5 21t45 54.5t28 72t9.5 73.5q0 97 -73 97 q-34 0 -60.5 -21t-45 -54t-27.5 -71.5t-9 -72.5zM878 183q0 -47 -15.5 -93t-45 -84t-70 -61t-89.5 -23q-58 0 -91.5 36t-33.5 106q0 48 16 94.5t45.5 84t69.5 60t89 22.5q59 0 92 -36.5t33 -105.5zM598 64q0 -99 72 -99q34 0 61 21t45 54.5t27.5 72t9.5 73.5q0 97 -72 97 q-34 0 -61 -21t-45 -54t-27.5 -71.5t-9.5 -72.5z" />
<glyph unicode="&#x26;" horiz-adv-x="764" d="M697 72q0 -30 -18 -52t-52 -30l-7 7q5 7 10 21t5 28q0 31 -28 56.5t-70 49.5q-47 -71 -116 -116.5t-155 -45.5q-60 0 -103 22.5t-66 60.5t-23 86q0 68 46 129.5t123 96.5q-10 22 -15.5 46.5t-5.5 52.5q0 67 30 114.5t79.5 72.5t106.5 25q61 0 94.5 -26.5t33.5 -68.5 q0 -32 -17.5 -61t-44.5 -44q20 0 54 1t73.5 2.5t77 3t64.5 3.5l6 -5q0 -13 -3 -32t-7 -31q-27 1 -63.5 3t-75.5 5q-1 -57 -16 -117t-42 -114q53 -30 89 -63.5t36 -79.5zM298 496q0 -50 21 -88.5t55.5 -69t76 -55t83.5 -47.5q44 100 47 214q-35 3 -66 6.5t-55 6.5l-3 18 q17 21 28.5 45t11.5 48q0 26 -15.5 47.5t-55.5 21.5q-52 0 -90 -39t-38 -108zM150 175q0 -60 40 -94.5t103 -34.5t115.5 35t90.5 93q-41 22 -86 47.5t-84.5 57.5t-67.5 73q-58 -34 -84.5 -83t-26.5 -94z" />
<glyph unicode="'" horiz-adv-x="153" d="M214 756l4 -11l-74 -242h-29l34 253h65z" />
<glyph unicode="(" horiz-adv-x="377" d="M96 127q0 90 23 180.5t65.5 174t102.5 154t134 120.5l21 -35q-87 -77 -147.5 -174.5t-92.5 -205.5t-32 -217q0 -80 20 -150.5t64 -133.5l-36 -36q-59 57 -90.5 138.5t-31.5 184.5z" />
<glyph unicode=")" horiz-adv-x="377" d="M294 434q0 -91 -23 -181.5t-65.5 -174t-102 -153.5t-133.5 -121l-21 36q86 76 147 173.5t92.5 206t31.5 216.5q0 80 -19.5 151t-64.5 134l36 35q59 -56 90.5 -137.5t31.5 -184.5z" />
<glyph unicode="*" horiz-adv-x="486" d="M247 367l-4 9l47 152l-151 -94l-15 42l6 10l155 63l-135 68l34 41l10 1l105 -89l20 161h48l4 -9l-48 -154l152 96l15 -42l-5 -10l-153 -63l132 -68l-34 -41l-9 -1l-107 90l-19 -162h-48z" />
<glyph unicode="+" d="M526 322h-194l-42 -197h-51l41 197h-204l9 47q36 1 90.5 2t115.5 1l39 193h54l-41 -192q56 0 107.5 0.5t86.5 0.5l3 -6z" />
<glyph unicode="," horiz-adv-x="228" d="M-42 -170q25 35 50.5 77.5t40.5 82.5q-17 2 -27 13.5t-10 28.5q0 28 22.5 51t51.5 23q41 0 41 -43q0 -24 -14 -57t-36 -69t-48 -69t-50 -57z" />
<glyph unicode="-" horiz-adv-x="365" d="M40 272l3 39h300l-3 -39h-300z" />
<glyph unicode="." horiz-adv-x="232" d="M133 66q0 -29 -23 -52.5t-51 -23.5q-19 0 -31.5 11.5t-12.5 30.5q0 28 24 51t52 23q18 0 30 -11t12 -29z" />
<glyph unicode="/" horiz-adv-x="353" d="M400 751l6 -8l-346 -747l-41 7l-6 8l346 747z" />
<glyph unicode="0" horiz-adv-x="691" d="M637 456q0 -91 -28.5 -174.5t-78 -149t-113.5 -104t-136 -38.5q-86 0 -137 60.5t-51 179.5q0 90 29 173.5t78.5 149.5t114 104.5t135.5 38.5q86 0 136.5 -60.5t50.5 -179.5zM169 230q0 -90 32 -138.5t94 -48.5q54 0 102.5 35.5t85.5 95.5t58 133.5t21 149.5q0 90 -32 138 t-94 48q-55 0 -103 -35.5t-85 -95t-58 -133t-21 -149.5z" />
<glyph unicode="1" horiz-adv-x="320" d="M206 611h-2l-122 -28l-2 44l206 69l7 -9l-146 -687h-73l99 466q7 35 15.5 72.5t17.5 72.5z" />
<glyph unicode="2" horiz-adv-x="539" d="M0 0l3 62q63 46 126 96t120 100.5t101.5 100t70 96t25.5 86.5q0 43 -31.5 70t-91.5 27q-48 0 -100 -16.5t-102 -41.5l6 61q28 14 65 26.5t78.5 20.5t80.5 8q81 0 127.5 -37.5t46.5 -97.5q0 -48 -28 -100.5t-75 -105.5t-105.5 -105t-120.5 -100t-119 -88h201 q40 0 81.5 2.5t80.5 7.5l-25 -72h-415z" />
<glyph unicode="3" horiz-adv-x="504" d="M145 642q39 20 96 37t111 17q67 0 108 -30t41 -85q0 -46 -28 -88t-78 -76.5t-117 -55.5q80 -5 129 -38.5t49 -102.5q0 -47 -23 -88.5t-64 -73.5t-96 -50t-118 -18q-41 0 -84.5 7t-72.5 17l20 55q31 -10 73 -16.5t75 -6.5q60 0 108 22t75.5 58.5t27.5 80.5q0 40 -23 63.5 t-61 33t-82 9.5q-38 0 -72 -7l11 55q80 16 141 46t95.5 70t34.5 84q0 37 -25 57t-74 20q-45 0 -92 -15t-92 -37z" />
<glyph unicode="4" horiz-adv-x="561" d="M42 242l387 442l78 10l7 -8l-93 -439q26 1 51.5 3t49.5 5l-25 -69h-89l-39 -186h-71l40 186h-297zM107 245v-2q55 2 103.5 2h114.5h26l46 212q10 47 16 76t10.5 48t9.5 38h-1z" />
<glyph unicode="5" horiz-adv-x="553" d="M24 14l20 57q29 -10 67 -17t71 -7q63 0 112.5 25.5t78 68.5t28.5 95q0 63 -40.5 90t-98.5 27q-29 0 -68 -6t-64 -16l-11 12l74 343h204q40 0 81.5 2.5t80.5 7.5l-20 -72h-297l-49 -228q24 6 54.5 9.5t55.5 3.5q48 0 88.5 -16t64 -50.5t23.5 -89.5q0 -53 -23 -100.5 t-65 -84t-98 -57.5t-122 -21q-40 0 -79.5 7t-67.5 17z" />
<glyph unicode="6" horiz-adv-x="595" d="M245 -10q-83 0 -128 51t-45 157q0 76 21.5 148.5t61 135.5t92.5 111.5t115.5 75.5t129.5 27q23 0 46 -3.5t34 -10.5l-20 -58q-11 6 -29.5 10t-41.5 4q-64 0 -126 -33.5t-111.5 -102.5t-76.5 -176h2q38 37 92.5 55t100.5 18q72 0 114 -39t42 -111q0 -51 -21.5 -98t-59 -83 t-87 -57t-105.5 -21zM333 346q-31 0 -65.5 -10.5t-64.5 -29t-48 -45.5q-4 -22 -6 -42t-2 -37q0 -62 26 -100.5t85 -38.5q50 0 91.5 27t66 71t24.5 95t-27 80.5t-80 29.5z" />
<glyph unicode="7" horiz-adv-x="517" d="M134 612l27 74h411l7 -8l-9 -45q-64 -60 -127.5 -133.5t-119.5 -155.5t-99.5 -169t-68.5 -175h-76q24 85 71 173.5t106.5 172t121.5 155t116 122.5l1 1h-186q-45 0 -89.5 -2.5t-85.5 -9.5z" />
<glyph unicode="8" horiz-adv-x="558" d="M207 -10q-87 0 -140 38t-53 100q0 43 26.5 84.5t73.5 75.5t109 58v1q-43 26 -75 64t-32 91t33 97t87.5 70.5t119.5 26.5q79 0 126 -39t47 -99q0 -65 -52 -119.5t-134 -86.5l-1 -2q34 -16 64 -39.5t48.5 -54.5t18.5 -69q0 -52 -35 -97t-95 -72.5t-136 -27.5zM343 645 q-43 0 -78 -17.5t-56 -47t-21 -66.5q0 -44 31.5 -78t79.5 -57q70 30 114.5 75t44.5 97q0 42 -31.5 68t-83.5 26zM265 315q-81 -32 -129 -81t-48 -99q0 -42 36 -68t95 -26q52 0 92.5 19t64 50t23.5 67q0 47 -38.5 79.5t-95.5 58.5z" />
<glyph unicode="9" horiz-adv-x="591" d="M271 267q-76 0 -120 42t-44 117q0 53 20 101.5t56 86.5t84.5 60t105.5 22q83 0 133.5 -52t50.5 -159q0 -70 -21 -141t-59.5 -134.5t-90.5 -113t-115 -78t-133 -28.5q-19 0 -40.5 2t-33.5 6l11 57q13 -3 31.5 -5t34.5 -2q74 0 138 38t111 105t69 155h-1q-35 -41 -86 -60 t-101 -19zM360 641q-49 0 -89 -29t-63 -75.5t-23 -99.5t28.5 -85t85.5 -32q44 0 91.5 20t80.5 67q4 24 6 45t2 38q0 70 -30 110.5t-89 40.5z" />
<glyph unicode=":" horiz-adv-x="233" d="M202 390q0 -28 -23 -51.5t-51 -23.5q-19 0 -31.5 11.5t-12.5 30.5q0 28 24 51t52 23q19 0 30.5 -11t11.5 -30zM133 66q0 -29 -23 -52.5t-51 -23.5q-19 0 -31.5 11.5t-12.5 30.5q0 28 24 51t52 23q18 0 30 -11t12 -29z" />
<glyph unicode=";" horiz-adv-x="239" d="M208 390q0 -28 -23 -51.5t-51 -23.5q-19 0 -31.5 11.5t-12.5 30.5q0 28 24 51t52 23q19 0 30.5 -11t11.5 -30zM-42 -170q25 35 50.5 77.5t40.5 82.5q-17 2 -27 13.5t-10 28.5q0 28 22.5 51t51.5 23q41 0 41 -43q0 -24 -14 -57t-36 -69t-48 -69t-50 -57z" />
<glyph unicode="&#x3c;" d="M548 566l-13 -56l-386 -175l314 -163l-12 -52q-34 15 -85 40.5t-107 54.5t-106 55.5t-81 43.5l-2 7l7 37z" />
<glyph unicode="=" d="M545 417h-450l11 47q30 1 75 1.5t96.5 1t103.5 1t98 1t77 0.5l5 -6zM505 229h-450l10 47q31 1 76 1.5t97 1.5t104 1.5t97.5 0.5h76.5l4 -6z" />
<glyph unicode="&#x3e;" d="M57 120l12 56l387 175l-314 162l11 53q34 -16 85.5 -41.5t107.5 -54t106 -55t81 -44.5l2 -7l-7 -36z" />
<glyph unicode="?" horiz-adv-x="447" d="M197 213l-45 -1q-2 9 -1 20.5t1 19.5q3 32 28 57.5t59.5 50t68 51.5t56.5 61t23 80q0 38 -25.5 62.5t-71.5 24.5q-38 0 -86 -20.5t-88 -65.5l-26 39q43 48 102.5 76t122.5 28q72 0 111.5 -33.5t40.5 -88.5q0 -55 -24.5 -97t-61.5 -74t-74.5 -57.5t-65 -48t-31.5 -45.5 q-1 -6 -2 -15.5t-1 -15.5zM193 65q0 -29 -20 -52t-47 -23q-18 0 -27.5 11.5t-9.5 27.5q0 27 21 49.5t47 22.5q17 0 26.5 -10t9.5 -26z" />
<glyph unicode="@" horiz-adv-x="1119" d="M815 -162q-51 -36 -129.5 -65t-174.5 -29q-95 0 -174.5 31.5t-138 89.5t-90.5 137.5t-32 175.5q0 97 32 184t88.5 159.5t131 125t160.5 81t176 28.5q95 0 172.5 -31t133.5 -85.5t86.5 -127t30.5 -156.5q0 -75 -24 -141.5t-66.5 -117t-98 -79t-119.5 -28.5q-53 0 -84 20 t-43.5 53t-10 73.5t15.5 81.5h-5q-14 -37 -36.5 -76.5t-51 -74t-61.5 -56t-67 -21.5q-41 0 -69 36t-28 110q0 66 23 131.5t65.5 119.5t100.5 86.5t128 32.5q26 0 60 -5.5t65 -16.5l-52 -216q-6 -23 -12 -53.5t-7.5 -61.5t5.5 -57.5t26.5 -43t56.5 -16.5q42 0 85 23t78.5 65 t57.5 100.5t22 129.5q0 79 -28.5 145.5t-79 115t-119 75.5t-149.5 27q-76 0 -154 -25t-147.5 -71.5t-124 -111.5t-86 -146.5t-31.5 -175.5q0 -88 28.5 -161.5t81 -128t126.5 -84.5t165 -30q92 0 158 25.5t119 55.5zM469 53q26 0 52.5 22t51.5 58t46.5 79t37.5 84t23 73 l18 74q-18 6 -35 9t-31 3q-43 0 -82 -27t-69.5 -72t-48 -99t-17.5 -106q0 -46 14 -72t40 -26z" />
<glyph unicode="A" horiz-adv-x="613" d="M44 0h-72l331 589q16 28 30.5 55t24.5 48l74 4l9 -10l94 -686h-77l-28 201h-273zM273 406l-83 -148h232l-21 148q-6 58 -11.5 110.5t-5.5 98.5h-2q-21 -46 -50 -100t-59 -109z" />
<glyph unicode="B" horiz-adv-x="607" d="M247 0h-180l113 532q10 43 16 82t9 72h175q90 0 140 -37.5t50 -104.5q0 -43 -19.5 -80.5t-54 -64.5t-77.5 -40q63 -12 92.5 -49t29.5 -88q0 -68 -39.5 -118t-106 -77t-148.5 -27zM358 630h-82l-54 -252h65q61 0 107 20.5t72 54.5t26 75q0 102 -134 102zM301 326h-90 l-58 -270h107q60 0 106 20t72 56.5t26 85.5q0 51 -36.5 79.5t-126.5 28.5z" />
<glyph unicode="C" horiz-adv-x="580" d="M505 107l-5 -63q-42 -27 -95.5 -40.5t-99.5 -13.5q-103 0 -160 63t-57 185q0 83 26.5 164.5t75.5 148t117 106t150 39.5q37 0 82 -10t80 -34l-30 -68q-28 24 -67.5 36t-76.5 12q-67 0 -119 -35t-87 -91.5t-53 -122.5t-18 -129q0 -93 40 -146.5t120 -53.5q45 0 92 15 t85 38z" />
<glyph unicode="D" horiz-adv-x="697" d="M648 432q0 -82 -28.5 -159t-83.5 -138.5t-132.5 -98t-175.5 -36.5h-161l113 532q10 45 16.5 83t8.5 71h176q124 0 195.5 -62t71.5 -192zM359 628h-83l-121 -570h88q80 0 141 31.5t102 84.5t62 118t21 132q0 110 -54.5 157t-155.5 47z" />
<glyph unicode="E" horiz-adv-x="543" d="M457 63l-13 -63h-377l113 532q10 44 16 80t9 74h367l7 -8l-12 -54l-291 5l-55 -261l248 2l-14 -59l-246 3l-55 -257z" />
<glyph unicode="F" horiz-adv-x="511" d="M142 0h-75l113 532q10 44 16 80t9 74h363l6 -8l-12 -54l-286 5l-58 -274l244 3l-15 -60l-240 4z" />
<glyph unicode="G" horiz-adv-x="646" d="M574 298l7 -8l-56 -252q-40 -23 -94.5 -35.5t-106.5 -12.5q-113 0 -174.5 62.5t-61.5 188.5q0 86 28 167.5t79 146.5t120 103t150 38q38 0 83 -10t82 -34l-29 -68q-28 24 -67.5 36.5t-78.5 12.5q-66 0 -119 -33t-90.5 -88t-57.5 -122.5t-20 -135.5q0 -98 43.5 -150 t135.5 -52q56 0 113 18l11 53q11 50 16.5 86t9.5 79z" />
<glyph unicode="H" horiz-adv-x="718" d="M142 0h-75l112 530q10 45 16.5 82.5t9.5 73.5l77 10l7 -8l-68 -318h335l34 160q10 45 16.5 82.5t9.5 73.5l77 10l6 -8l-146 -688h-75l66 312h-335z" />
<glyph unicode="I" horiz-adv-x="308" d="M142 0h-75l112 530q10 45 16.5 82.5t9.5 73.5l77 10l7 -8z" />
<glyph unicode="J" horiz-adv-x="284" d="M-59 -187l-17 35q45 29 81 81.5t54 136.5l98 464q9 42 14.5 76t9.5 78l78 12l7 -8l-132 -622q-20 -96 -64.5 -155.5t-128.5 -97.5z" />
<glyph unicode="K" horiz-adv-x="615" d="M180 530q9 44 15 80.5t10 75.5l75 10l7 -8l-68 -323h97q69 80 141 164t143 167l59 -12l5 -8l-289 -327l168 -349l-83 -9q-39 78 -77.5 157.5t-76.5 158.5h-100l-65 -307h-74z" />
<glyph unicode="L" horiz-adv-x="510" d="M142 0h-75l113 531q10 45 16 82t9 73l77 10l7 -8zM446 63l-13 -63h-291l13 57z" />
<glyph unicode="M" horiz-adv-x="851" d="M793 696l8 -8l-61 -688h-74l23 264q8 97 16.5 175t18.5 156h-1q-39 -83 -82.5 -165.5t-87.5 -165.5l-142 -264h-84l-29 264q-8 73 -14.5 129t-10.5 104t-6 98h-1q-24 -85 -52 -168t-54 -163l-90 -264h-65l232 691l87 5l47 -369q5 -52 10 -122.5t5 -137.5h2 q39 88 69.5 148t57.5 112l200 364z" />
<glyph unicode="N" horiz-adv-x="729" d="M406 397q24 -60 44 -109.5t36.5 -96t28.5 -98.5h2q4 25 7.5 47t8.5 49.5t13.5 69t21.5 104t32 154.5q11 48 18 88.5t11 80.5l74 10l7 -9l-146 -687h-76q-31 77 -60.5 151t-59.5 146q-24 60 -43.5 108t-35 92.5t-29.5 93.5h-1q-9 -65 -20.5 -124.5t-24.5 -116.5l-74 -350 h-73l113 532q19 85 25 154l81 9q31 -78 61 -152t59 -146z" />
<glyph unicode="O" horiz-adv-x="693" d="M645 445q0 -82 -25.5 -163t-73 -147t-112 -105.5t-142.5 -39.5q-94 0 -149.5 63t-55.5 183q0 67 17 133t48.5 125t75.5 104.5t98 71.5t115 26q94 0 149 -65t55 -186zM166 242q0 -89 35.5 -140t105.5 -51q60 0 108 35.5t82 93.5t51.5 127t17.5 136q0 90 -33.5 141.5 t-103.5 51.5q-60 0 -108.5 -36t-83 -94.5t-53 -127.5t-18.5 -136z" />
<glyph unicode="P" horiz-adv-x="556" d="M142 0h-75l113 532q10 46 16 81t9 73h169q94 0 146.5 -43.5t52.5 -121.5q0 -80 -41 -140.5t-111 -94t-155 -33.5h-70zM351 630h-74l-69 -321h70q66 0 114 26t75 72t27 106q0 53 -33.5 85t-109.5 32z" />
<glyph unicode="Q" horiz-adv-x="674" d="M752 -117q0 -30 -30.5 -44t-81.5 -14q-64 0 -133 20t-134 57.5t-115 90.5q-78 11 -124.5 73.5t-46.5 171.5q0 67 17 132.5t49 124t76 104t97.5 71.5t113.5 26q95 0 149.5 -66.5t54.5 -187.5q0 -80 -23.5 -156.5t-66.5 -139.5t-101 -104t-127 -50q38 -24 90 -46.5 t110.5 -37t113.5 -14.5q32 0 56.5 4.5t47.5 10.5q8 -9 8 -26zM305 51q61 0 109 35.5t81.5 93.5t51.5 127t18 136q0 90 -34 141.5t-103 51.5q-60 0 -108.5 -36t-83.5 -94.5t-53.5 -127.5t-18.5 -136q0 -89 35.5 -140t105.5 -51z" />
<glyph unicode="R" horiz-adv-x="589" d="M142 0h-75l113 532q10 44 16 80t9 74h162q99 0 153 -43.5t54 -118.5q0 -83 -51.5 -145t-137.5 -86l124 -293l-82 -10q-29 69 -57 140.5t-56 142.5h-114zM351 630h-74l-65 -302h71q96 0 153.5 50.5t57.5 135.5q0 51 -33 83.5t-110 32.5z" />
<glyph unicode="S" horiz-adv-x="508" d="M438 197q0 -60 -33 -106.5t-92.5 -73.5t-136.5 -27q-40 0 -86 8t-81 28l23 68q35 -24 81 -33t76 -9q50 0 88 18t60 48.5t22 68.5q0 36 -19 61t-47 43.5t-55 34.5q-30 17 -58.5 38t-46.5 50.5t-18 74.5q0 58 33.5 105t93 74.5t136.5 27.5q42 0 83 -8.5t66 -22.5l-26 -69 q-31 22 -68.5 30t-67.5 8q-49 0 -87.5 -17t-60.5 -47t-22 -67q0 -35 18.5 -59t47 -42t60.5 -37q27 -17 54 -38.5t45 -53t18 -76.5z" />
<glyph unicode="T" horiz-adv-x="511" d="M240 0h-75l134 628q-52 -1 -105 -2.5t-106 -3.5l18 64h484l-9 -64q-52 2 -103.5 3.5t-103.5 2.5z" />
<glyph unicode="U" horiz-adv-x="652" d="M82 160q0 27 8.5 73.5t21.5 104.5t27 120t24.5 121.5t13.5 108.5l83 8l4 -5q-30 -139 -49.5 -228.5t-30.5 -142.5t-16.5 -80t-7 -39.5t-1.5 -22.5q0 -62 37 -93.5t95 -31.5q69 0 125 43.5t74 129.5q23 108 38 179t24.5 116t14.5 73.5t7 49t4 44.5l85 8l-100 -471 q-17 -78 -60.5 -130.5t-104 -78.5t-126.5 -26q-83 0 -136.5 43t-53.5 127z" />
<glyph unicode="V" horiz-adv-x="600" d="M214 -4l-100 693l80 7l56 -405q8 -60 13.5 -112t4.5 -101q22 49 54.5 108t63.5 113l222 397l59 -6l5 -8l-391 -686h-67z" />
<glyph unicode="W" horiz-adv-x="958" d="M180 -4l-66 692l78 8l36 -408q6 -58 8.5 -109t0.5 -98q18 46 48.5 106.5t57.5 115.5l200 388l72 5l36 -408q6 -58 9 -109t2 -98q19 52 47.5 108.5t56.5 111.5l202 395l57 -6l5 -8l-356 -686h-67l-44 429q-3 39 -5.5 80t-3.5 87h-2q-22 -50 -41.5 -89t-39.5 -78l-224 -429 h-67z" />
<glyph unicode="X" horiz-adv-x="557" d="M-25 0l-2 8l278 335l-134 342l81 11l117 -305h2l242 305l64 -6l2 -9l-278 -337l133 -344h-84l-113 296h-2l-238 -296h-68z" />
<glyph unicode="Y" horiz-adv-x="539" d="M232 247l-118 442l80 7l62 -246q7 -34 17 -74.5t12 -76.5h2q19 36 47 77.5t49 74.5l164 245l59 -6l5 -8l-305 -438l-52 -244h-75z" />
<glyph unicode="Z" horiz-adv-x="514" d="M-15 0l-2 47l492 577l-359 -4l19 66h424l8 -47l-491 -577l373 5l-18 -67h-446z" />
<glyph unicode="[" horiz-adv-x="332" d="M198 756h211l-12 -59h-140l-178 -834h141l-13 -59h-212l190 893v0z" />
<glyph unicode="\" horiz-adv-x="360" d="M194 -4l-28 747l10 8l43 7l28 -747l-10 -8z" />
<glyph unicode="]" horiz-adv-x="332" d="M148 -196h-211l12 59h140l178 834h-141l13 59h212l-190 -893v0z" />
<glyph unicode="^" horiz-adv-x="511" d="M129 210h-57l216 336h58l76 -336h-56l-62 277z" />
<glyph unicode="_" horiz-adv-x="370" d="M-95 -196l9 38h370l-8 -38h-371z" />
<glyph unicode="`" horiz-adv-x="326" d="M280 577q-43 32 -75 70.5t-53 84.5l7 13l70 14q12 -43 32.5 -86t44.5 -84z" />
<glyph unicode="a" horiz-adv-x="523" d="M46 135q0 67 22.5 132.5t65 119.5t100.5 86.5t128 32.5q24 0 59 -5t67 -17l-42 -174q-21 -93 -33.5 -164.5t-12.5 -145.5h-73q0 32 2 62t7.5 65.5t15.5 82.5q-17 -36 -39.5 -74.5t-49.5 -71.5t-57.5 -53.5t-62.5 -20.5q-42 0 -69.5 35.5t-27.5 109.5zM122 151 q0 -46 13.5 -72t40.5 -26q24 0 50.5 22.5t51.5 60t47 81.5t38.5 86.5t25.5 74.5q4 15 7.5 31t7.5 33q-18 7 -36 10t-31 3q-43 0 -81.5 -27t-68.5 -72t-47.5 -99t-17.5 -106z" />
<glyph unicode="b" horiz-adv-x="528" d="M171 609l8 137l82 10q0 -55 -13 -131t-32.5 -163t-40.5 -176q23 54 54.5 104.5t70.5 83t84 32.5t72.5 -35t27.5 -110q0 -66 -23 -132t-65 -120t-100 -86.5t-128 -32.5q-26 0 -60.5 5t-64.5 17q6 30 12.5 60.5t15.5 70.5t21 97t30 140zM354 444q-26 0 -53.5 -24t-54 -62.5 t-49 -83.5t-39 -89t-24.5 -77q-6 -29 -11 -53q19 -7 37.5 -10.5t32.5 -3.5q42 0 81 27.5t69 72t47 98.5t17 107q0 45 -13.5 71.5t-39.5 26.5z" />
<glyph unicode="c" horiz-adv-x="454" d="M381 125l18 -27q-41 -57 -90.5 -82.5t-100.5 -25.5q-70 0 -113 46.5t-43 134.5q0 64 22.5 124t61.5 107.5t90.5 75.5t108.5 28q35 0 62.5 -11t48.5 -29l-24 -65q-20 23 -45.5 37t-54.5 14q-38 0 -73 -23.5t-62 -62.5t-42.5 -87t-15.5 -98q0 -61 25.5 -99t79.5 -38 q41 0 77.5 22.5t69.5 58.5z" />
<glyph unicode="d" horiz-adv-x="526" d="M402 0h-73q0 38 6 87t21 128q-16 -40 -38 -80t-49 -73t-59 -52.5t-67 -19.5q-42 0 -69.5 35.5t-27.5 109.5q0 66 23 132t65 120t99.5 86.5t126.5 32.5q12 0 26.5 -1t29.5 -4l23 108l8 137l82 10q0 -57 -13 -131.5t-32 -157.5t-37.5 -167t-31.5 -161t-13 -139zM122 151 q0 -46 13.5 -72t40.5 -26q24 0 51 23t52.5 60.5t47.5 81.5t38.5 86.5t24.5 74.5v1l14 62q-19 7 -36.5 10t-30.5 3q-43 0 -81.5 -27t-68.5 -72t-47.5 -99t-17.5 -106z" />
<glyph unicode="e" horiz-adv-x="463" d="M379 125l18 -27q-34 -52 -85 -80t-104 -28q-67 0 -111.5 46.5t-44.5 135.5q0 59 21 118.5t57.5 108t84.5 78t103 29.5q53 0 86 -28t33 -78q0 -44 -29 -83.5t-96.5 -66.5t-179.5 -32q-3 -22 -3 -41q0 -59 26.5 -96t76.5 -37q41 0 78.5 23.5t68.5 57.5zM305 456 q-39 0 -72.5 -30t-58 -77.5t-36.5 -97.5q90 8 139.5 31.5t69 54t19.5 58.5q0 29 -16.5 45t-44.5 16z" />
<glyph unicode="f" horiz-adv-x="338" d="M-12 -216l-25 30q27 34 52.5 82t40.5 116l92 434l-75 3l7 32l77 11q5 26 9.5 51.5t7.5 39.5q17 81 68.5 127t130.5 46q64 0 109 -28l-31 -61q-16 13 -39 22t-52 9q-49 0 -75.5 -30t-38.5 -84q-3 -15 -8.5 -43.5t-8.5 -48.5h132l5 -9l-11 -40l-135 3l-89 -421 q-18 -83 -52 -140.5t-91 -100.5z" />
<glyph unicode="g" horiz-adv-x="443" d="M128 -256q-85 0 -130 34t-45 85q0 40 25.5 68.5t63.5 48.5l19 -19q-17 -19 -27.5 -38.5t-10.5 -39.5q0 -39 30.5 -66t88.5 -27q63 0 101.5 29.5t38.5 65.5q0 25 -21.5 44.5t-64.5 40.5q-33 16 -59.5 32.5t-26.5 43.5q0 30 29.5 54.5t66.5 45.5v2q-9 -1 -14 -1 q-62 1 -95 38.5t-33 98.5q0 62 29.5 112t78.5 80t108 30q44 0 73.5 0.5t52 3t46.5 7.5q8 -10 8 -25q0 -12 -9 -23.5t-34 -11.5q-17 0 -37 5.5t-40 10.5v-2q26 -15 40.5 -40.5t14.5 -68.5q0 -55 -21.5 -96.5t-53.5 -72t-63.5 -53t-53.5 -39.5t-22 -33t19.5 -27t36.5 -19 q55 -26 87.5 -54.5t32.5 -69.5q0 -37 -27.5 -72.5t-79 -58.5t-122.5 -23zM325 367q0 43 -17 68t-48 25q-33 0 -62 -27t-46.5 -68t-17.5 -84q0 -45 19 -68.5t50 -23.5q36 0 63.5 27.5t43 68.5t15.5 82z" />
<glyph unicode="h" horiz-adv-x="550" d="M134 0h-73q0 36 5.5 82.5t18.5 117.5t37 180l49 229l8 137l82 10q0 -52 -10.5 -117t-26.5 -137.5t-33 -146.5h2q37 77 91.5 114t105.5 37q46 0 70.5 -26t24.5 -72q0 -13 -1 -24t-4.5 -30t-11 -54.5t-21.5 -97.5q-10 -46 -15 -79.5t-6.5 -62t-1.5 -60.5h-73q0 71 12 132 t22 110q13 58 18.5 89.5t5.5 51.5q0 29 -13 45t-43 16q-46 0 -85 -36.5t-68.5 -99.5t-46.5 -142.5t-19 -165.5z" />
<glyph unicode="i" horiz-adv-x="255" d="M252 685q0 -30 -21.5 -53.5t-48.5 -23.5q-19 0 -29 11.5t-10 28.5q0 28 22 51.5t49 23.5q18 0 28 -10.5t10 -27.5zM134 0h-73q0 54 10 121t27 146l20 92l8 137l82 10q0 -54 -11.5 -117t-26 -130t-25.5 -133t-11 -126z" />
<glyph unicode="j" horiz-adv-x="234" d="M242 685q0 -30 -21.5 -53.5t-48.5 -23.5q-19 0 -29 11.5t-10 28.5q0 28 22 51.5t49 23.5q18 0 28 -10.5t10 -27.5zM-61 -256l-25 30q44 34 72 82t43 116l83 387l8 137l81 10q0 -32 -5 -72t-16.5 -97.5t-30 -143t-44.5 -208.5q-18 -83 -55.5 -140.5t-110.5 -100.5z" />
<glyph unicode="k" horiz-adv-x="500" d="M480 425q0 -42 -27.5 -82t-69.5 -73.5t-86 -55.5q16 -32 39 -70t49 -75.5t53 -68.5h-92q-33 42 -65 98.5t-59 118.5q45 26 87 57t69 64.5t27 69.5q0 44 -42 44q-32 0 -64 -27t-61 -73.5t-52 -104.5t-36.5 -122t-15.5 -125h-73q0 36 5.5 82.5t18.5 117.5t37 180l49 229 l8 137l82 10q0 -56 -12.5 -129t-31.5 -155t-37 -164h2q40 98 98 148t116 50q42 0 63 -23t21 -58z" />
<glyph unicode="l" horiz-adv-x="254" d="M134 0h-73q0 36 5.5 82.5t18.5 117.5t37 180l49 229l8 137l82 10q0 -57 -13 -131.5t-32 -157.5t-38 -167t-31.5 -161t-12.5 -139z" />
<glyph unicode="m" horiz-adv-x="824" d="M191 355q36 76 88 113.5t104 37.5q57 0 80 -42t9 -109h2q35 76 87.5 113.5t103.5 37.5q57 0 80 -42.5t8 -113.5l-42 -199q-13 -59 -13 -151h-72q0 38 4.5 77t13.5 89t24 121q16 80 9 118.5t-50 38.5q-44 0 -82.5 -37t-67 -99.5t-45 -142t-16.5 -165.5h-73q0 38 4.5 77 t14 89t23.5 121q17 81 10 119t-50 38q-38 0 -70.5 -26.5t-58 -72t-43.5 -103t-28 -120t-11 -122.5h-73q0 40 5.5 85.5t17.5 110t34 163.5l8 137l82 10q0 -34 -5.5 -72.5t-14.5 -78.5h3z" />
<glyph unicode="n" horiz-adv-x="550" d="M134 0h-73q1 82 17 166.5t40 192.5l8 137l82 10q0 -34 -5.5 -73t-14.5 -78h3q38 77 92.5 114t106.5 37q46 0 70.5 -25.5t24.5 -69.5q0 -31 -10 -79.5t-23 -109.5q-12 -52 -18 -87t-8 -65.5t-2 -69.5h-73q0 56 8.5 109t23.5 127q10 49 16 84.5t6 58.5q0 30 -12.5 47.5 t-41.5 17.5q-43 0 -81.5 -36t-68.5 -98t-47.5 -142t-19.5 -168z" />
<glyph unicode="o" horiz-adv-x="512" d="M461 332q0 -61 -19 -121.5t-54.5 -110.5t-84 -80t-106.5 -30q-67 0 -106 43t-39 131q0 62 19.5 122.5t55 110.5t84 79.5t105.5 29.5q68 0 106.5 -44t38.5 -130zM129 163q0 -58 19.5 -90t63.5 -32q41 0 73 27.5t54 72t34 95.5t12 97q0 122 -83 122q-41 0 -73 -27.5 t-54.5 -71.5t-34 -95t-11.5 -98z" />
<glyph unicode="p" horiz-adv-x="523" d="M162 -10q-11 0 -25 1t-30 3q-14 -67 -23 -128.5t-9 -111.5h-73q0 34 5.5 79.5t19 116.5t36.5 180l49 229l8 137l82 10q0 -43 -8 -96t-20 -113q23 52 54 99.5t69.5 78.5t83.5 31q42 0 69.5 -36t27.5 -112q0 -66 -23 -131.5t-65 -119t-100 -85.5t-128 -32zM348 444 q-24 0 -49.5 -22t-50.5 -57.5t-47 -78t-38.5 -84.5t-25.5 -76q-5 -18 -9 -36l-8 -36q18 -7 36 -10t31 -3q43 0 81.5 27.5t68.5 72t47.5 98.5t17.5 107q0 45 -14 71.5t-40 26.5z" />
<glyph unicode="q" horiz-adv-x="519" d="M144 -10q-42 0 -70 36.5t-28 111.5q0 66 23 131.5t65 119t100 85.5t128 32q25 0 60 -5t66 -17l-99 -437q-12 -51 -21.5 -105t-15.5 -103t-6 -85h-73q0 36 6 87t20.5 124.5t37.5 176.5l14 61q-17 -36 -39.5 -73.5t-49 -69t-56.5 -51t-62 -19.5zM122 151q0 -46 14 -72 t40 -26q25 0 51 22.5t51.5 59t47.5 79.5t38.5 85t25.5 75l15 68q-18 7 -36.5 10t-31.5 3q-43 0 -81.5 -27t-68.5 -72t-47.5 -99t-17.5 -106z" />
<glyph unicode="r" horiz-adv-x="382" d="M134 0h-73q0 54 10 121t27 146l20 92l8 137l82 10q0 -41 -7.5 -86.5t-17.5 -93.5h2q37 98 84 139t93 41q20 0 37 -6.5t27 -16.5l-39 -65q-25 13 -51 13q-42 0 -78.5 -38t-63.5 -101t-43 -139.5t-17 -152.5z" />
<glyph unicode="s" horiz-adv-x="430" d="M393 480l-22 -62q-24 15 -52 24.5t-58 9.5q-48 0 -78 -24.5t-30 -60.5q0 -30 20 -49t49.5 -34t59 -32t50 -42.5t20.5 -65.5q0 -44 -26.5 -79t-71 -55t-100.5 -20q-34 0 -71 8t-65 26l22 61q29 -21 65 -31t63 -10q47 0 78.5 25t31.5 62q0 30 -20 48.5t-50 33t-59.5 31.5 t-50 42t-20.5 65q0 47 27.5 81.5t73 54t98.5 19.5q32 0 62 -7t54 -19z" />
<glyph unicode="t" horiz-adv-x="352" d="M350 450l-139 1q-22 -106 -35.5 -169t-20.5 -96.5t-9.5 -49t-2.5 -27.5q0 -34 15.5 -48t44.5 -14q21 0 43 6.5t42 18.5l-2 -51q-22 -13 -52.5 -22t-63.5 -9q-50 0 -76 24t-26 76q0 11 1.5 23t5.5 33.5t11.5 58.5t20.5 97t32 150h-73l7 34l76 10l43 117l49 5l7 -9 l-27 -113h135l5 -8z" />
<glyph unicode="u" horiz-adv-x="526" d="M67 146l44 213l8 137l82 10q0 -72 -16 -147t-30 -150q-14 -74 -10.5 -115t49.5 -41q39 0 72.5 28.5t59.5 79t44 114.5q10 46 17.5 88.5t11.5 81.5q2 26 3 51l75 10q-2 -74 -19 -152.5t-36 -178.5q-9 -43 -14.5 -86.5t-5.5 -88.5h-73q0 34 3.5 67t9.5 67 q-36 -74 -86.5 -109t-98.5 -35q-57 0 -81 42.5t-9 113.5z" />
<glyph unicode="v" horiz-adv-x="427" d="M118 0q-1 137 -14.5 263t-38.5 233l75 10q24 -97 35.5 -207.5t8.5 -226.5h1q45 69 84 143.5t65.5 148t33.5 137.5q9 3 17 4t14 1q34 0 34 -27q0 -33 -19 -88.5t-52 -123t-76 -137t-91 -130.5h-77z" />
<glyph unicode="w" horiz-adv-x="667" d="M639 506q35 0 35 -27q0 -33 -17 -88t-47.5 -122.5t-71 -137t-86.5 -131.5h-79q4 107 2.5 205t-7.5 190h-1q-16 -61 -44.5 -130t-66 -137t-80.5 -128h-78q1 150 -8.5 275.5t-24.5 220.5l76 8q14 -86 21.5 -196t2.5 -240h1q44 70 79 144t58 146.5t30 137.5h85 q14 -83 20.5 -192t1.5 -236h2q43 70 78 145.5t58 149t30 138.5q9 3 17 4t14 1z" />
<glyph unicode="x" horiz-adv-x="440" d="M-2 0q26 68 72 135.5t112 123.5q-17 62 -38.5 123t-56.5 114l74 10q29 -45 48.5 -98.5t35.5 -110.5q45 41 79.5 92.5t46.5 108.5q12 8 30 8q14 0 25 -5.5t11 -21.5q0 -27 -25.5 -67.5t-66 -85t-86.5 -81.5q17 -64 37.5 -126.5t53.5 -118.5h-79q-26 45 -43 97.5t-32 108.5 q-43 -42 -76 -97t-52 -109h-70z" />
<glyph unicode="y" horiz-adv-x="427" d="M399 506q34 0 34 -27q0 -34 -19.5 -90t-53.5 -125t-79 -141.5t-95 -140t-101.5 -121.5t-100 -85.5t-88.5 -31.5q-24 0 -37 11.5t-13 31.5q0 10 3.5 18.5t7.5 14.5q12 -2 24.5 -3t21.5 -1q43 0 87 28.5t83 71t67 84.5h-22q-1 137 -14.5 263t-38.5 233l75 10 q49 -204 44 -434h1q45 69 84 143.5t65.5 148t33.5 137.5q9 3 17 4t14 1z" />
<glyph unicode="z" horiz-adv-x="416" d="M10 -10l-27 37q76 83 136 150.5t108 125.5t88 112q-44 18 -81 24.5t-57 6.5q-30 0 -56.5 -13t-48.5 -45l-27 14q26 63 59 83.5t75 20.5q71 0 166 -49q17 25 32 49q15 0 26 -6.5t11 -19.5q0 -17 -26 -57.5t-71.5 -97.5t-105 -123.5t-127.5 -135.5q11 3 25 3q32 0 69 -9 t65 -9t53 14t50 48l29 -14q-29 -66 -62 -87.5t-79 -21.5q-47 0 -91 11.5t-79 11.5q-16 0 -27.5 -5t-26.5 -18z" />
<glyph unicode="{" horiz-adv-x="332" d="M142 171q0 33 -20 56t-63 30l12 56q61 4 98 52t37 145q0 14 -0.5 31t-0.5 31q0 76 26 116t72 54t106 14l-7 -46q-69 0 -98.5 -34t-29.5 -119q0 -4 0.5 -22.5t0.5 -31.5q0 -72 -20 -118.5t-51 -71t-65 -31.5q75 -28 75 -102q0 -35 -13 -69.5t-29.5 -68t-29 -65.5 t-12.5 -63q0 -33 21 -48.5t69 -15.5l-13 -46q-78 0 -115 19.5t-37 71.5q0 35 13 70.5t30.5 71t30.5 69.5t13 65z" />
<glyph unicode="|" horiz-adv-x="313" d="M31 -256l-6 7l214 1002l43 3l6 -7l-213 -1002z" />
<glyph unicode="}" horiz-adv-x="331" d="M203 389q0 -33 20 -56t63 -30l-12 -56q-62 -4 -99 -52t-37 -145q0 -14 1 -31t1 -31q0 -76 -26 -116t-72 -54t-106 -14l6 46q70 0 99 34t29 119v22.5v31.5q0 72 19.5 118.5t51 71t65.5 31.5q-75 28 -75 102q0 35 12.5 69.5t29.5 68t29.5 65.5t12.5 63q0 33 -21 48.5 t-69 15.5l13 46q77 0 114.5 -19.5t37.5 -71.5q0 -35 -13.5 -70.5t-30.5 -71t-30 -69.5t-13 -65z" />
<glyph unicode="~" d="M409 224q-14 0 -40 7t-57.5 17t-61.5 20.5t-53 17.5t-31 7q-14 0 -38 -24.5t-54 -56.5l-27 22q17 23 40 49t47 44.5t46 18.5q13 0 39 -7t57.5 -17t62 -20.5t53 -17.5t30.5 -7q14 0 38 24l56 56l26 -21q-18 -23 -40.5 -49t-46.5 -44.5t-46 -18.5z" />
<glyph unicode="&#xa1;" horiz-adv-x="279" d="M132 431q0 29 20.5 52t46.5 23q18 0 27.5 -11.5t9.5 -26.5q0 -28 -21 -50.5t-46 -22.5q-18 0 -27.5 10t-9.5 26zM127 296h49q-32 -175 -55 -301t-33 -185l-74 -10l-7 8q27 117 57.5 241.5t62.5 246.5z" />
<glyph unicode="&#xa2;" horiz-adv-x="458" d="M172 -140l-6 8l26 123q-61 6 -98.5 52t-37.5 138q0 69 21.5 131t59 111.5t87 80.5t104.5 36l30 136l31 3l7 -8l-28 -131q29 -2 51.5 -13t37.5 -26l-24 -68q-17 23 -41 37t-56 14q-41 0 -77.5 -23.5t-64.5 -64t-44 -92.5t-16 -110q0 -148 102 -148q46 0 84.5 26t63.5 53 l19 -27q-34 -46 -78 -74t-94 -33l-27 -128z" />
<glyph unicode="&#xa3;" horiz-adv-x="532" d="M471 -139q-10 -5 -28 -7.5t-34 -2.5q-44 0 -86 16t-82 40t-78 49.5t-73 45.5q-24 -13 -51 -13q-52 0 -48 35q1 17 15 26.5t34 9.5t47 -10q23 28 38.5 78t32.5 119l10 46l-110 3l10 35l111 10v0q18 74 37.5 138.5t46.5 113t66.5 75.5t96.5 27q36 0 66.5 -9.5t46.5 -22.5 l-33 -67q-19 20 -41 30.5t-48 10.5q-41 0 -68.5 -28.5t-50 -93.5t-48.5 -174h181l5 -8l-16 -40h-182l-11 -42q-9 -36 -22.5 -76.5t-32.5 -78t-44 -64.5q42 -20 90 -47t100 -46.5t105 -19.5q19 0 40.5 3.5t37.5 9.5z" />
<glyph unicode="&#xa4;" horiz-adv-x="572" d="M434 44l-65 85q-28 -19 -61 -30t-68 -11q-31 0 -55.5 8.5t-42.5 23.5l-91 -74l-26 33l90 74q-19 32 -19 75q0 45 20 86.5t54 72.5l-59 78l35 30q13 -16 30.5 -37.5t32.5 -40.5q26 16 56.5 25.5t62.5 9.5q33 0 59.5 -10.5t44.5 -28.5l97 82l27 -33l-100 -82q15 -31 15 -69 q0 -41 -17 -79.5t-46 -68.5q10 -13 25 -32t27 -35t14 -20v-6zM314 406q-44 0 -81.5 -23t-60 -61t-22.5 -82q0 -43 25.5 -74.5t80.5 -31.5q45 0 81.5 23t58 60.5t21.5 81.5q0 49 -27.5 78t-75.5 29z" />
<glyph unicode="&#xa5;" horiz-adv-x="546" d="M43 124l8 40h167l20 93h-167l8 39h168l-133 393l79 7l70 -214q11 -30 19.5 -63t16.5 -70h1q26 38 49.5 70.5t44.5 61.5l161 215l58 -6l5 -8l-297 -386h166l-8 -39h-168l-19 -93h167l-8 -40h-168l-26 -124h-74l27 124h-167z" />
<glyph unicode="&#xa6;" horiz-adv-x="313" d="M208 370l-37 -3l-13 7l81 379l43 3l6 -7zM75 -253l-36 -3l-14 7l81 378l44 3l5 -7z" />
<glyph unicode="&#xa7;" horiz-adv-x="544" d="M419 613q-54 0 -88.5 -34t-34.5 -88q0 -37 15.5 -72t39 -70t47 -72.5t39 -80t15.5 -91.5q0 -78 -42 -140t-115.5 -98.5t-166.5 -36.5q-40 0 -73.5 6.5t-53.5 16.5l32 89q19 -16 43.5 -22.5t46.5 -6.5q59 0 96.5 35.5t37.5 89.5q0 37 -16 71.5t-40 69t-47.5 72t-39.5 79.5 t-16 91q0 58 24 108t67.5 87.5t101.5 58.5t125 21q79 0 124 -23l-31 -89q-20 16 -44.5 22.5t-45.5 6.5zM153 -124q78 3 133 34.5t83.5 79.5t28.5 103q0 44 -16 83t-40 75.5t-47.5 72t-39.5 72t-16 77.5t19.5 79t55.5 63t84 29v6q-78 -3 -132.5 -34t-83.5 -79t-29 -104 q0 -45 16 -84t39.5 -75.5t47.5 -71.5t40 -72t16 -77q0 -41 -20 -79t-55.5 -63t-83.5 -29v-6z" />
<glyph unicode="&#xa8;" horiz-adv-x="397" d="M238 682q0 -29 -20.5 -52.5t-46.5 -23.5q-18 0 -27 11t-9 27q0 28 21.5 51t46.5 23q16 0 25.5 -9.5t9.5 -26.5zM437 682q0 -29 -20 -52.5t-46 -23.5q-18 0 -27.5 11t-9.5 27q0 28 21.5 51t47.5 23q16 0 25 -9.5t9 -26.5z" />
<glyph unicode="&#xa9;" horiz-adv-x="689" d="M281 -39q-70 0 -122 29t-81.5 79.5t-29.5 116.5q0 67 29.5 130.5t80 113.5t115 79.5t134.5 29.5t122.5 -29.5t82 -80.5t29.5 -117q0 -67 -29.5 -129.5t-80 -112.5t-115 -79.5t-135.5 -29.5zM289 0q61 0 116.5 25t99.5 68t70 97t26 111t-26 102t-71.5 71t-105.5 26 q-61 0 -116.5 -25.5t-99 -69t-68.5 -98t-25 -112.5q0 -57 25 -101t70 -69t105 -25zM466 384l-21 -48q-13 13 -30 22t-39 9q-30 0 -55.5 -18.5t-40 -49.5t-14.5 -70q0 -41 18 -65t51 -24q29 0 53 16.5t39 31.5l15 -23q-23 -32 -58.5 -50t-72.5 -18q-47 0 -76 31t-29 88 q0 55 25 99t66 70t89 26q51 0 80 -27z" />
<glyph unicode="&#xaa;" horiz-adv-x="435" d="M89 401q0 52 18.5 102.5t53 91.5t82 65.5t105.5 24.5q21 0 50.5 -4t55.5 -13l-32 -137q-17 -77 -27 -132t-9 -110h-62q0 36 3.5 70.5t14.5 88.5q-18 -37 -44 -75.5t-58 -64.5t-68 -26q-35 0 -59 29.5t-24 89.5zM154 412q0 -36 12 -57t33 -21q25 0 51.5 26t50.5 66t43 83 t28 76q5 21 11 48q-27 11 -53 11q-36 0 -67.5 -21t-56 -54.5t-38.5 -74.5t-14 -82z" />
<glyph unicode="&#xab;" horiz-adv-x="457" d="M62 283l5 20q50 38 101.5 87t107.5 107l18 -10q-34 -53 -74 -102.5t-81 -91.5q23 -43 42 -91t31 -103l-22 -10q-31 57 -61.5 106t-66.5 88zM236 283l5 20q50 38 101.5 87t107.5 107l18 -10q-34 -53 -74 -102.5t-82 -91.5q24 -43 43 -91t31 -103l-23 -10q-31 57 -61 106 t-66 88z" />
<glyph unicode="&#xac;" horiz-adv-x="543" d="M500 313l-48 -219h-52l38 175h-389l9 47q38 1 95.5 2t121.5 1.5t122.5 1t96.5 0.5z" />
<glyph unicode="&#xae;" horiz-adv-x="690" d="M281 -39q-69 0 -121 29t-81.5 80.5t-29.5 117.5q0 67 29.5 130t80 113t115 79t134.5 29q71 0 123.5 -30t81.5 -81.5t29 -116.5q0 -67 -29.5 -129.5t-80.5 -112.5t-116 -79t-135 -29zM290 0q61 0 117 25.5t100 68.5t69 96.5t25 110.5t-25.5 102t-71.5 71t-106 26 t-115.5 -25.5t-99 -69t-69 -98t-25.5 -112.5t26 -102t71.5 -68.5t103.5 -24.5zM265 92h-47l47 225q6 24 10.5 49t5.5 55h107q48 0 73 -22t25 -61q0 -41 -27.5 -73.5t-68.5 -42.5l43 -130l-51 -5q-9 25 -18.5 60.5t-17.5 62.5h-56zM378 380h-52l-27 -128h51q38 0 61 22.5 t23 55.5q0 50 -56 50z" />
<glyph unicode="&#xaf;" horiz-adv-x="344" d="M132 639l10 49h272l-10 -49h-272z" />
<glyph unicode="&#xb0;" horiz-adv-x="335" d="M174 307q-40 0 -65.5 23.5t-25.5 65.5q0 38 21.5 72.5t56.5 56t75 21.5q41 0 66 -23.5t25 -64.5q0 -39 -21.5 -73.5t-56.5 -56t-75 -21.5zM224 508q-26 0 -48.5 -14.5t-36 -37.5t-13.5 -49q0 -28 16.5 -45t43.5 -17q26 0 48.5 14.5t36 37.5t13.5 50q0 29 -17 45t-43 16z " />
<glyph unicode="&#xb1;" horiz-adv-x="581" d="M545 398h-178l-33 -160h-52l33 160h-183l9 47q32 1 81 2t104 1l32 160h54l-34 -159q52 0 99 0.5t79 0.5l3 -6zM518 75h-450l9 47q31 1 76 1.5t97 1l104 1t97.5 1t77.5 0.5l3 -6z" />
<glyph unicode="&#xb2;" horiz-adv-x="366" d="M118 352l3 45q49 29 97 60t86.5 63.5t61.5 66.5t23 69q0 31 -20 48.5t-55 17.5q-28 0 -61.5 -11t-65.5 -33l4 47q28 18 68.5 29.5t77.5 11.5q52 0 85 -25.5t33 -71.5q0 -40 -24.5 -78t-64.5 -72.5t-88 -64.5t-96 -56h119q54 0 105 6l-17 -52h-271z" />
<glyph unicode="&#xb3;" horiz-adv-x="356" d="M204 733q21 12 58.5 22.5t73.5 10.5q46 0 76 -20t30 -53q0 -28 -19 -53.5t-51 -45t-71 -30.5q53 -2 84.5 -24t31.5 -61q0 -38 -26.5 -68.5t-71 -48.5t-100.5 -18q-27 0 -55.5 4t-47.5 10l14 41q17 -6 42.5 -10t48.5 -4q55 0 93.5 24.5t38.5 60.5q0 34 -31 47t-72 13 q-25 0 -51 -4l10 41q76 13 121.5 43t45.5 67q0 21 -17 33t-49 12q-27 0 -57 -8.5t-54 -21.5z" />
<glyph unicode="&#xb4;" horiz-adv-x="246" d="M294 743l2 -13q-42 -48 -89.5 -85.5t-104.5 -70.5l-21 13q40 40 80 83.5t69 86.5z" />
<glyph unicode="&#xb6;" horiz-adv-x="604" d="M163 -119q80 0 136.5 50t81.5 170l101 471l15 75h-72l-90 -422h-29q-13 0 -36.5 3.5t-50.5 13t-51 29.5t-39.5 52.5t-15.5 81.5q0 58 23 109t63.5 89.5t95 60.5t117.5 22h151l-23 -114l-103 -482q-26 -124 -99.5 -192.5t-179.5 -68.5q-36 0 -73.5 7.5t-65.5 18.5l16 53 q34 -13 65 -20t63 -7z" />
<glyph unicode="&#xb7;" horiz-adv-x="295" d="M213 299q0 -29 -23 -52.5t-51 -23.5q-19 0 -31 11.5t-12 30.5q0 28 23.5 51t51.5 23q19 0 30.5 -11t11.5 -29z" />
<glyph unicode="&#xb8;" horiz-adv-x="301" d="M152 -117q0 -30 -25 -53t-64 -36.5t-83 -16.5l4 31q48 8 76.5 24t28.5 40q0 16 -17 23.5t-41 9.5l-7 15l48 91l44 -1l-37 -69q31 -5 52 -18.5t21 -39.5z" />
<glyph unicode="&#xb9;" horiz-adv-x="245" d="M252 704h-1l-76 -14l-2 35l145 41l5 -6l-87 -408h-60l57 267q5 27 9.5 47t9.5 38z" />
<glyph unicode="&#xba;" horiz-adv-x="425" d="M436 543q0 -47 -16 -93t-45 -84t-69.5 -61t-89.5 -23q-58 0 -91.5 36t-33.5 106q0 48 16 94.5t45.5 84t69.5 60t88 22.5q60 0 93 -36.5t33 -105.5zM156 424q0 -99 72 -99q34 0 60.5 21t45 54.5t28 72t9.5 73.5q0 97 -72 97q-35 0 -61.5 -21t-44.5 -54t-27.5 -71.5 t-9.5 -72.5z" />
<glyph unicode="&#xbb;" horiz-adv-x="457" d="M414 303l-5 -20q-50 -38 -101.5 -87t-107.5 -107l-18 10q34 53 74 102.5t82 91.5q-24 43 -43 91t-31 103l23 10q31 -57 61 -106t66 -88zM240 303l-5 -20q-50 -38 -101.5 -87t-107.5 -107l-18 10q34 53 74 102.5t82 91.5q-24 43 -43 91t-30 103l22 10q31 -57 61.5 -106 t65.5 -88z" />
<glyph unicode="&#xbc;" horiz-adv-x="811" d="M269 644h-1l-76 -14l-2 35l145 41l5 -6l-87 -408h-60l57 267q5 27 9.5 47t9.5 38zM748 700l-576 -710h-50l575 710h51zM448 136l236 262l67 6l5 -6l-55 -258q34 2 65 6l-17 -50h-57l-23 -106h-58l23 106h-187zM500 140v-1q30 0 59.5 0.5t71.5 0.5h13l24 111q8 36 12.5 57 t10.5 45h-1z" />
<glyph unicode="&#xbd;" horiz-adv-x="865" d="M269 644h-1l-76 -14l-2 35l145 41l5 -6l-87 -408h-60l57 267q5 27 9.5 47t9.5 38zM757 700l-576 -710h-49l575 710h50zM511 -10l2 45q50 29 97.5 60t86 63.5t61.5 66.5t23 69q0 31 -19.5 48.5t-54.5 17.5q-29 0 -62 -11t-66 -33l4 47q28 18 68.5 29.5t77.5 11.5 q53 0 85.5 -25.5t32.5 -71.5q0 -40 -24.5 -78t-64.5 -72.5t-88 -64.5t-95 -56h118q54 0 106 6l-18 -52h-270z" />
<glyph unicode="&#xbe;" horiz-adv-x="946" d="M221 671q21 12 58.5 22.5t73.5 10.5q46 0 76 -20t30 -53q0 -28 -19 -53.5t-51 -45t-71 -30.5q53 -2 84.5 -24t31.5 -61q0 -38 -26.5 -68.5t-71 -48.5t-100.5 -18q-27 0 -55.5 4t-47.5 10l14 41q17 -6 42.5 -10t48.5 -4q55 0 93.5 24.5t38.5 60.5q0 34 -31 47t-72 13 q-25 0 -51 -4l10 41q76 13 121.5 43t45.5 67q0 21 -17 33t-49 12q-27 0 -57 -8.5t-54 -21.5zM871 700l-576 -710h-50l575 710h51zM581 136l237 262l67 6l5 -6l-55 -258q34 2 65 6l-18 -50h-56l-23 -106h-58l23 106h-187v40zM634 140v-1q29 0 59 0.5t72 0.5h13l24 111 q8 36 12 57t11 45h-1z" />
<glyph unicode="&#xbf;" horiz-adv-x="446" d="M254 432q0 29 20.5 51.5t46.5 22.5q18 0 27.5 -11t9.5 -27q0 -27 -21 -50t-46 -23q-18 0 -27.5 10.5t-9.5 26.5zM250 284l46 1q1 -9 0.5 -20.5t-1.5 -19.5q-3 -32 -27.5 -57.5t-59 -50t-68.5 -51.5t-56.5 -61t-22.5 -80q0 -39 25 -63t71 -24q38 0 86.5 20.5t88.5 65.5 l26 -39q-43 -48 -102.5 -76t-123.5 -28q-71 0 -111 33.5t-41 88.5q0 55 25 97t61.5 74t74.5 57.5t65 48t31 45.5q1 6 2 15.5t1 15.5z" />
<glyph unicode="&#xc0;" horiz-adv-x="613" d="M535 777q-64 8 -120.5 25.5t-104.5 49.5v13l57 45q37 -32 84 -59.5t97 -50.5zM44 0h-72l331 589q16 28 30.5 55t24.5 48l74 4l9 -10l94 -686h-77l-28 201h-273zM273 406l-83 -148h232l-21 148q-6 58 -11.5 110.5t-5.5 98.5h-2q-21 -46 -50 -100t-59 -109z" />
<glyph unicode="&#xc1;" horiz-adv-x="613" d="M562 865l-6 -13q-61 -32 -124.5 -49.5t-132.5 -25.5l-3 23q60 23 119 50.5t108 59.5zM44 0h-72l331 589q16 28 30.5 55t24.5 48l74 4l9 -10l94 -686h-77l-28 201h-273zM273 406l-83 -148h232l-21 148q-6 58 -11.5 110.5t-5.5 98.5h-2q-21 -46 -50 -100t-59 -109z" />
<glyph unicode="&#xc2;" horiz-adv-x="613" d="M296 770l-17 20q41 31 74.5 59t65.5 59l62 7q20 -31 45 -63t53 -62l-26 -20q-30 20 -59 43t-55 45q-33 -22 -69 -44.5t-74 -43.5zM44 0h-72l331 589q16 28 30.5 55t24.5 48l74 4l9 -10l94 -686h-77l-28 201h-273zM273 406l-83 -148h232l-21 148q-6 58 -11.5 110.5 t-5.5 98.5h-2q-21 -46 -50 -100t-59 -109z" />
<glyph unicode="&#xc3;" horiz-adv-x="613" d="M373 902q29 0 49.5 -14t39.5 -28t43 -14t43 16t35 38l22 -4q-8 -26 -25 -50.5t-40 -40t-52 -15.5q-28 0 -49.5 14t-41.5 28t-43 14q-22 0 -41.5 -15.5t-36.5 -37.5l-22 4q8 23 24 47.5t40 41t55 16.5zM44 0h-72l331 589q16 28 30.5 55t24.5 48l74 4l9 -10l94 -686h-77 l-28 201h-273zM273 406l-83 -148h232l-21 148q-6 58 -11.5 110.5t-5.5 98.5h-2q-21 -46 -50 -100t-59 -109z" />
<glyph unicode="&#xc4;" horiz-adv-x="613" d="M582 857q0 -26 -20.5 -47t-46.5 -21q-18 0 -28 10.5t-10 25.5q0 25 21 45.5t47 20.5q17 0 27 -9.5t10 -24.5zM380 857q0 -26 -20 -47t-46 -21q-19 0 -29 10.5t-10 25.5q0 25 21 45.5t47 20.5q17 0 27 -9.5t10 -24.5zM44 0h-72l331 589q16 28 30.5 55t24.5 48l74 4l9 -10 l94 -686h-77l-28 201h-273zM273 406l-83 -148h232l-21 148q-6 58 -11.5 110.5t-5.5 98.5h-2q-21 -46 -50 -100t-59 -109z" />
<glyph unicode="&#xc5;" horiz-adv-x="613" d="M521 863q0 -27 -16.5 -51t-43 -39t-55.5 -15q-30 0 -50 17.5t-20 44.5q0 26 17 49.5t43.5 38.5t56.5 15q31 0 49.5 -17t18.5 -43zM380 827q0 -16 10 -25.5t26 -9.5q24 0 42.5 19t18.5 44q0 15 -9 24.5t-27 9.5q-24 0 -42.5 -19t-18.5 -43zM44 0h-72l331 589 q16 28 30.5 55t24.5 48l74 4l9 -10l94 -686h-77l-28 201h-273zM273 406l-83 -148h232l-21 148q-6 58 -11.5 110.5t-5.5 98.5h-2q-21 -46 -50 -100t-59 -109z" />
<glyph unicode="&#xc6;" horiz-adv-x="858" d="M44 0h-72l425 589q9 13 14 20.5l10 15t14.5 21.5t28.5 40h352l7 -8l-13 -54l-266 4l-26 -260l230 2l-14 -59l-221 3l-25 -256l283 5l-13 -63h-352l23 201h-240zM337 406l-106 -148h204l17 148q7 58 13.5 110t14.5 99h-2q-27 -45 -64.5 -99.5t-76.5 -109.5z" />
<glyph unicode="&#xc7;" horiz-adv-x="580" d="M379 -117q0 -30 -24.5 -53t-64 -36.5t-82.5 -16.5l3 31q49 8 77.5 24t28.5 40q0 16 -17.5 23.5t-40.5 9.5l-7 15l37 70q-96 5 -148.5 68t-52.5 180q0 83 26.5 164.5t75.5 148t117 106t150 39.5q37 0 82 -10t80 -34l-30 -68q-28 24 -67.5 36t-76.5 12q-67 0 -119 -35 t-87 -91.5t-53 -122.5t-18 -129q0 -93 40 -146.5t120 -53.5q45 0 92 15t85 38l-5 -63q-35 -23 -79.5 -36t-86.5 -17l-27 -50q30 -5 51 -18.5t21 -39.5z" />
<glyph unicode="&#xc8;" horiz-adv-x="543" d="M532 777q-64 8 -120.5 25.5t-103.5 49.5l-1 13l57 45q37 -32 84 -59.5t97 -50.5zM457 63l-13 -63h-377l113 532q10 44 16 80t9 74h367l7 -8l-12 -54l-291 5l-55 -261l248 2l-14 -59l-246 3l-55 -257z" />
<glyph unicode="&#xc9;" horiz-adv-x="543" d="M559 865l-6 -13q-61 -32 -124.5 -49.5t-132.5 -25.5l-3 23q60 23 119 50.5t109 59.5zM457 63l-13 -63h-377l113 532q10 44 16 80t9 74h367l7 -8l-12 -54l-291 5l-55 -261l248 2l-14 -59l-246 3l-55 -257z" />
<glyph unicode="&#xca;" horiz-adv-x="543" d="M293 770l-17 20q41 31 74.5 59t66.5 59l61 7q20 -31 45 -63t53 -62l-25 -20q-30 20 -59.5 43t-55.5 45q-33 -22 -69 -44.5t-74 -43.5zM457 63l-13 -63h-377l113 532q10 44 16 80t9 74h367l7 -8l-12 -54l-291 5l-55 -261l248 2l-14 -59l-246 3l-55 -257z" />
<glyph unicode="&#xcb;" horiz-adv-x="543" d="M579 857q0 -26 -20 -47t-46 -21q-19 0 -29 10.5t-10 25.5q0 25 21 45.5t47 20.5q18 0 27.5 -9.5t9.5 -24.5zM377 857q0 -26 -20 -47t-46 -21q-19 0 -29 10.5t-10 25.5q0 25 21 45.5t47 20.5q18 0 27.5 -9.5t9.5 -24.5zM457 63l-13 -63h-377l113 532q10 44 16 80t9 74h367 l7 -8l-12 -54l-291 5l-55 -261l248 2l-14 -59l-246 3l-55 -257z" />
<glyph unicode="&#xcc;" horiz-adv-x="308" d="M387 777q-63 8 -119.5 25.5t-104.5 49.5v13l57 45q37 -32 83.5 -59.5t97.5 -50.5zM142 0h-75l112 530q10 45 16.5 82.5t9.5 73.5l77 10l7 -8z" />
<glyph unicode="&#xcd;" horiz-adv-x="308" d="M415 865l-6 -13q-62 -32 -125.5 -49.5t-131.5 -25.5l-3 23q59 23 118.5 50.5t108.5 59.5zM142 0h-75l112 530q10 45 16.5 82.5t9.5 73.5l77 10l7 -8z" />
<glyph unicode="&#xce;" horiz-adv-x="308" d="M148 770l-16 20q40 31 73.5 59t66.5 59l62 7q20 -31 44.5 -63t52.5 -62l-25 -20q-30 20 -59.5 43t-55.5 45q-33 -22 -69 -44.5t-74 -43.5zM142 0h-75l112 530q10 45 16.5 82.5t9.5 73.5l77 10l7 -8z" />
<glyph unicode="&#xcf;" horiz-adv-x="308" d="M435 857q0 -26 -20.5 -47t-46.5 -21q-19 0 -28.5 10.5t-9.5 25.5q0 25 21 45.5t46 20.5q18 0 28 -9.5t10 -24.5zM233 857q0 -26 -20.5 -47t-46.5 -21q-19 0 -28.5 10.5t-9.5 25.5q0 25 21 45.5t46 20.5q18 0 28 -9.5t10 -24.5zM142 0h-75l112 530q10 45 16.5 82.5 t9.5 73.5l77 10l7 -8z" />
<glyph unicode="&#xd0;" horiz-adv-x="697" d="M648 432q0 -82 -28.5 -159t-83.5 -138.5t-132.5 -98t-175.5 -36.5h-161l69 321h-78l9 44h78l35 167q10 45 16.5 83t8.5 71h176q124 0 195.5 -62t71.5 -192zM424 321h-213l-56 -263h88q80 0 141 31.5t102 84.5t62 118t21 132q0 110 -54.5 157t-155.5 47h-83l-56 -263h213z " />
<glyph unicode="&#xd1;" horiz-adv-x="729" d="M426 902q30 0 50.5 -14t39.5 -28t43 -14t42.5 16t35.5 38l22 -4q-8 -26 -25 -50.5t-40.5 -40t-51.5 -15.5q-29 0 -50.5 14t-41 28t-42.5 14t-42 -15.5t-36 -37.5l-22 4q8 23 24 47.5t40 41t54 16.5zM406 397q24 -60 44 -109.5t36.5 -96t28.5 -98.5h2q4 25 7.5 47 t8.5 49.5t13.5 69t21.5 104t32 154.5q11 48 18 88.5t11 80.5l74 10l7 -9l-146 -687h-76q-31 77 -60.5 151t-59.5 146q-24 60 -43.5 108t-35 92.5t-29.5 93.5h-1q-9 -65 -20.5 -124.5t-24.5 -116.5l-74 -350h-73l113 532q19 85 25 154l81 9q31 -78 61 -152t59 -146z" />
<glyph unicode="&#xd2;" horiz-adv-x="693" d="M582 777q-64 8 -120.5 25.5t-103.5 49.5l-1 13l57 45q37 -32 84 -59.5t97 -50.5zM645 445q0 -82 -25.5 -163t-73 -147t-112 -105.5t-142.5 -39.5q-94 0 -149.5 63t-55.5 183q0 67 17 133t48.5 125t75.5 104.5t98 71.5t115 26q94 0 149 -65t55 -186zM166 242 q0 -89 35.5 -140t105.5 -51q60 0 108 35.5t82 93.5t51.5 127t17.5 136q0 90 -33.5 141.5t-103.5 51.5q-60 0 -108.5 -36t-83 -94.5t-53 -127.5t-18.5 -136z" />
<glyph unicode="&#xd3;" horiz-adv-x="693" d="M609 865l-6 -13q-61 -32 -124.5 -49.5t-132.5 -25.5l-3 23q60 23 119 50.5t108 59.5zM645 445q0 -82 -25.5 -163t-73 -147t-112 -105.5t-142.5 -39.5q-94 0 -149.5 63t-55.5 183q0 67 17 133t48.5 125t75.5 104.5t98 71.5t115 26q94 0 149 -65t55 -186zM166 242 q0 -89 35.5 -140t105.5 -51q60 0 108 35.5t82 93.5t51.5 127t17.5 136q0 90 -33.5 141.5t-103.5 51.5q-60 0 -108.5 -36t-83 -94.5t-53 -127.5t-18.5 -136z" />
<glyph unicode="&#xd4;" horiz-adv-x="693" d="M343 770l-17 20q41 31 74.5 59t66.5 59l61 7q20 -31 45 -63t53 -62l-25 -20q-31 20 -60 43t-55 45q-33 -22 -69 -44.5t-74 -43.5zM645 445q0 -82 -25.5 -163t-73 -147t-112 -105.5t-142.5 -39.5q-94 0 -149.5 63t-55.5 183q0 67 17 133t48.5 125t75.5 104.5t98 71.5 t115 26q94 0 149 -65t55 -186zM166 242q0 -89 35.5 -140t105.5 -51q60 0 108 35.5t82 93.5t51.5 127t17.5 136q0 90 -33.5 141.5t-103.5 51.5q-60 0 -108.5 -36t-83 -94.5t-53 -127.5t-18.5 -136z" />
<glyph unicode="&#xd5;" horiz-adv-x="693" d="M420 902q29 0 49.5 -14t39.5 -28t43 -14t43 16t36 38l21 -4q-8 -26 -24.5 -50.5t-40 -40t-51.5 -15.5q-29 0 -50.5 14t-41.5 28t-43 14q-22 0 -41.5 -15.5t-36.5 -37.5l-21 4q7 23 23 47.5t40 41t55 16.5zM645 445q0 -82 -25.5 -163t-73 -147t-112 -105.5t-142.5 -39.5 q-94 0 -149.5 63t-55.5 183q0 67 17 133t48.5 125t75.5 104.5t98 71.5t115 26q94 0 149 -65t55 -186zM166 242q0 -89 35.5 -140t105.5 -51q60 0 108 35.5t82 93.5t51.5 127t17.5 136q0 90 -33.5 141.5t-103.5 51.5q-60 0 -108.5 -36t-83 -94.5t-53 -127.5t-18.5 -136z" />
<glyph unicode="&#xd6;" horiz-adv-x="693" d="M629 857q0 -26 -20 -47t-46 -21q-19 0 -29 10.5t-10 25.5q0 25 21 45.5t47 20.5q17 0 27 -9.5t10 -24.5zM427 857q0 -26 -20 -47t-46 -21q-19 0 -29 10.5t-10 25.5q0 25 21 45.5t47 20.5q18 0 27.5 -9.5t9.5 -24.5zM645 445q0 -82 -25.5 -163t-73 -147t-112 -105.5 t-142.5 -39.5q-94 0 -149.5 63t-55.5 183q0 67 17 133t48.5 125t75.5 104.5t98 71.5t115 26q94 0 149 -65t55 -186zM166 242q0 -89 35.5 -140t105.5 -51q60 0 108 35.5t82 93.5t51.5 127t17.5 136q0 90 -33.5 141.5t-103.5 51.5q-60 0 -108.5 -36t-83 -94.5t-53 -127.5 t-18.5 -136z" />
<glyph unicode="&#xd7;" d="M430 149l-128 163l-199 -164l-27 34l199 164l-129 164l42 34q20 -25 33.5 -42.5t26 -33t28 -36t40.5 -52.5l198 164l26 -34l-197 -164q23 -29 54 -69t73 -93l-3 -8z" />
<glyph unicode="&#xd8;" horiz-adv-x="693" d="M645 445q0 -82 -25.5 -163t-73 -147t-112 -105.5t-142.5 -39.5q-120 0 -172 95l-96 -88l-28 29l107 99q-16 48 -16 111q0 67 17 133t48.5 125t75.5 104.5t98 71.5t115 26q120 0 172 -99l101 93l30 -28l-114 -106q15 -48 15 -111zM166 242q0 -30 4 -55l383 354 q-15 45 -45.5 70t-78.5 25q-60 0 -108.5 -36t-83 -94.5t-53 -127.5t-18.5 -136zM566 443q0 28 -3 52l-382 -354q15 -43 47 -66.5t79 -23.5q60 0 108 35.5t82 93.5t51.5 127t17.5 136z" />
<glyph unicode="&#xd9;" horiz-adv-x="652" d="M563 777q-64 8 -120.5 25.5t-104.5 49.5v13l57 45q37 -32 84 -59.5t97 -50.5zM82 160q0 27 8.5 73.5t21.5 104.5t27 120t24.5 121.5t13.5 108.5l83 8l4 -5q-30 -139 -49.5 -228.5t-30.5 -142.5t-16.5 -80t-7 -39.5t-1.5 -22.5q0 -62 37 -93.5t95 -31.5q69 0 125 43.5 t74 129.5q23 108 38 179t24.5 116t14.5 73.5t7 49t4 44.5l85 8l-100 -471q-17 -78 -60.5 -130.5t-104 -78.5t-126.5 -26q-83 0 -136.5 43t-53.5 127z" />
<glyph unicode="&#xda;" horiz-adv-x="652" d="M590 865l-6 -13q-61 -32 -124.5 -49.5t-132.5 -25.5l-3 23q60 23 119 50.5t108 59.5zM82 160q0 27 8.5 73.5t21.5 104.5t27 120t24.5 121.5t13.5 108.5l83 8l4 -5q-30 -139 -49.5 -228.5t-30.5 -142.5t-16.5 -80t-7 -39.5t-1.5 -22.5q0 -62 37 -93.5t95 -31.5 q69 0 125 43.5t74 129.5q23 108 38 179t24.5 116t14.5 73.5t7 49t4 44.5l85 8l-100 -471q-17 -78 -60.5 -130.5t-104 -78.5t-126.5 -26q-83 0 -136.5 43t-53.5 127z" />
<glyph unicode="&#xdb;" horiz-adv-x="652" d="M324 770l-17 20q41 31 74.5 59t65.5 59l62 7q20 -31 45 -63t53 -62l-26 -20q-30 20 -59 43t-55 45q-33 -22 -69 -44.5t-74 -43.5zM82 160q0 27 8.5 73.5t21.5 104.5t27 120t24.5 121.5t13.5 108.5l83 8l4 -5q-30 -139 -49.5 -228.5t-30.5 -142.5t-16.5 -80t-7 -39.5 t-1.5 -22.5q0 -62 37 -93.5t95 -31.5q69 0 125 43.5t74 129.5q23 108 38 179t24.5 116t14.5 73.5t7 49t4 44.5l85 8l-100 -471q-17 -78 -60.5 -130.5t-104 -78.5t-126.5 -26q-83 0 -136.5 43t-53.5 127z" />
<glyph unicode="&#xdc;" horiz-adv-x="652" d="M610 857q0 -26 -20.5 -47t-46.5 -21q-18 0 -28 10.5t-10 25.5q0 25 21 45.5t47 20.5q17 0 27 -9.5t10 -24.5zM408 857q0 -26 -20 -47t-46 -21q-19 0 -29 10.5t-10 25.5q0 25 21 45.5t47 20.5q17 0 27 -9.5t10 -24.5zM82 160q0 27 8.5 73.5t21.5 104.5t27 120t24.5 121.5 t13.5 108.5l83 8l4 -5q-30 -139 -49.5 -228.5t-30.5 -142.5t-16.5 -80t-7 -39.5t-1.5 -22.5q0 -62 37 -93.5t95 -31.5q69 0 125 43.5t74 129.5q23 108 38 179t24.5 116t14.5 73.5t7 49t4 44.5l85 8l-100 -471q-17 -78 -60.5 -130.5t-104 -78.5t-126.5 -26q-83 0 -136.5 43 t-53.5 127z" />
<glyph unicode="&#xdd;" horiz-adv-x="539" d="M534 865l-6 -13q-61 -32 -124.5 -49.5t-132.5 -25.5l-3 23q60 23 119 50.5t108 59.5zM232 247l-118 442l80 7l62 -246q7 -34 17 -74.5t12 -76.5h2q19 36 47 77.5t49 74.5l164 245l59 -6l5 -8l-305 -438l-52 -244h-75z" />
<glyph unicode="&#xde;" horiz-adv-x="570" d="M142 0h-75l113 532q8 42 14.5 74.5t10.5 79.5h83l-24 -116h98q94 0 147 -43t53 -126q0 -73 -40 -133t-109.5 -95.5t-157.5 -35.5h-84zM339 513h-87l-68 -319h85q63 0 111 26t75 70.5t27 100.5q0 64 -37 93t-106 29z" />
<glyph unicode="&#xdf;" horiz-adv-x="577" d="M-12 -214l-25 30q27 34 52.5 82t39.5 116l92 432l-74 3l7 32l76 10l5 24q20 92 56.5 144.5t82 74.5t91.5 22q64 0 101.5 -35t37.5 -95q0 -65 -44.5 -116.5t-123.5 -74.5q62 -34 100 -96.5t38 -141.5q0 -60 -23.5 -107t-67 -73.5t-103.5 -26.5q-26 0 -52.5 5t-44.5 12 l11 56q21 -10 43.5 -15t41.5 -5q42 0 69 21t40 55t13 74q0 73 -39.5 133.5t-104.5 94.5l7 36q81 15 124.5 60t43.5 104q0 38 -19.5 61t-58.5 23q-44 0 -83.5 -38.5t-59.5 -135.5l-106 -503q-18 -84 -52.5 -141.5t-90.5 -100.5z" />
<glyph unicode="&#xe0;" horiz-adv-x="523" d="M411 577q-42 32 -74.5 70.5t-53.5 84.5l8 13l70 14q12 -43 32 -86t45 -84zM46 135q0 67 22.5 132.5t65 119.5t100.5 86.5t128 32.5q24 0 59 -5t67 -17l-42 -174q-21 -93 -33.5 -164.5t-12.5 -145.5h-73q0 32 2 62t7.5 65.5t15.5 82.5q-17 -36 -39.5 -74.5t-49.5 -71.5 t-57.5 -53.5t-62.5 -20.5q-42 0 -69.5 35.5t-27.5 109.5zM122 151q0 -46 13.5 -72t40.5 -26q24 0 50.5 22.5t51.5 60t47 81.5t38.5 86.5t25.5 74.5q4 15 7.5 31t7.5 33q-18 7 -36 10t-31 3q-43 0 -81.5 -27t-68.5 -72t-47.5 -99t-17.5 -106z" />
<glyph unicode="&#xe1;" horiz-adv-x="523" d="M466 743l1 -13q-42 -48 -89.5 -85.5t-103.5 -70.5l-21 13q39 40 79 83.5t69 86.5zM46 135q0 67 22.5 132.5t65 119.5t100.5 86.5t128 32.5q24 0 59 -5t67 -17l-42 -174q-21 -93 -33.5 -164.5t-12.5 -145.5h-73q0 32 2 62t7.5 65.5t15.5 82.5q-17 -36 -39.5 -74.5 t-49.5 -71.5t-57.5 -53.5t-62.5 -20.5q-42 0 -69.5 35.5t-27.5 109.5zM122 151q0 -46 13.5 -72t40.5 -26q24 0 50.5 22.5t51.5 60t47 81.5t38.5 86.5t25.5 74.5q4 15 7.5 31t7.5 33q-18 7 -36 10t-31 3q-43 0 -81.5 -27t-68.5 -72t-47.5 -99t-17.5 -106z" />
<glyph unicode="&#xe2;" horiz-adv-x="523" d="M241 573l-19 17q36 38 70.5 77t66.5 80l61 6q34 -84 78 -163l-27 -17q-27 29 -50 58.5t-44 59.5q-31 -29 -66.5 -60.5t-69.5 -57.5zM46 135q0 67 22.5 132.5t65 119.5t100.5 86.5t128 32.5q24 0 59 -5t67 -17l-42 -174q-21 -93 -33.5 -164.5t-12.5 -145.5h-73q0 32 2 62 t7.5 65.5t15.5 82.5q-17 -36 -39.5 -74.5t-49.5 -71.5t-57.5 -53.5t-62.5 -20.5q-42 0 -69.5 35.5t-27.5 109.5zM122 151q0 -46 13.5 -72t40.5 -26q24 0 50.5 22.5t51.5 60t47 81.5t38.5 86.5t25.5 74.5q4 15 7.5 31t7.5 33q-18 7 -36 10t-31 3q-43 0 -81.5 -27t-68.5 -72 t-47.5 -99t-17.5 -106z" />
<glyph unicode="&#xe3;" horiz-adv-x="523" d="M307 722q27 0 47 -14t38 -28t39 -14t38.5 16t33.5 38l23 -4q-9 -26 -25.5 -51.5t-38.5 -42.5t-49 -17q-26 0 -47 14t-39.5 28.5t-39.5 14.5q-19 0 -37 -16t-34 -38l-23 4q9 24 25 49.5t38.5 43t50.5 17.5zM46 135q0 67 22.5 132.5t65 119.5t100.5 86.5t128 32.5 q24 0 59 -5t67 -17l-42 -174q-21 -93 -33.5 -164.5t-12.5 -145.5h-73q0 32 2 62t7.5 65.5t15.5 82.5q-17 -36 -39.5 -74.5t-49.5 -71.5t-57.5 -53.5t-62.5 -20.5q-42 0 -69.5 35.5t-27.5 109.5zM122 151q0 -46 13.5 -72t40.5 -26q24 0 50.5 22.5t51.5 60t47 81.5t38.5 86.5 t25.5 74.5q4 15 7.5 31t7.5 33q-18 7 -36 10t-31 3q-43 0 -81.5 -27t-68.5 -72t-47.5 -99t-17.5 -106z" />
<glyph unicode="&#xe4;" horiz-adv-x="523" d="M312 684q0 -30 -20 -53t-46 -23q-18 0 -27 11t-9 27q0 28 21 51t47 23q16 0 25 -10t9 -26zM512 684q0 -30 -20 -53t-46 -23q-18 0 -27.5 11t-9.5 27q0 28 21.5 51t47.5 23q16 0 25 -10t9 -26zM46 135q0 67 22.5 132.5t65 119.5t100.5 86.5t128 32.5q24 0 59 -5t67 -17 l-42 -174q-21 -93 -33.5 -164.5t-12.5 -145.5h-73q0 32 2 62t7.5 65.5t15.5 82.5q-17 -36 -39.5 -74.5t-49.5 -71.5t-57.5 -53.5t-62.5 -20.5q-42 0 -69.5 35.5t-27.5 109.5zM122 151q0 -46 13.5 -72t40.5 -26q24 0 50.5 22.5t51.5 60t47 81.5t38.5 86.5t25.5 74.5 q4 15 7.5 31t7.5 33q-18 7 -36 10t-31 3q-43 0 -81.5 -27t-68.5 -72t-47.5 -99t-17.5 -106z" />
<glyph unicode="&#xe5;" horiz-adv-x="523" d="M451 677q0 -27 -16.5 -51t-42.5 -39t-55 -15q-30 0 -50 17.5t-20 44.5q0 26 16.5 49.5t43.5 38.5t56 15q31 0 49.5 -17t18.5 -43zM310 641q0 -16 10 -25.5t27 -9.5q24 0 42 19.5t18 43.5q0 15 -9 24.5t-26 9.5q-24 0 -43 -19t-19 -43zM46 135q0 67 22.5 132.5t65 119.5 t100.5 86.5t128 32.5q24 0 59 -5t67 -17l-42 -174q-21 -93 -33.5 -164.5t-12.5 -145.5h-73q0 32 2 62t7.5 65.5t15.5 82.5q-17 -36 -39.5 -74.5t-49.5 -71.5t-57.5 -53.5t-62.5 -20.5q-42 0 -69.5 35.5t-27.5 109.5zM122 151q0 -46 13.5 -72t40.5 -26q24 0 50.5 22.5 t51.5 60t47 81.5t38.5 86.5t25.5 74.5q4 15 7.5 31t7.5 33q-18 7 -36 10t-31 3q-43 0 -81.5 -27t-68.5 -72t-47.5 -99t-17.5 -106z" />
<glyph unicode="&#xe6;" horiz-adv-x="750" d="M46 139q0 66 22.5 131t65 118.5t103 85.5t135.5 32q34 0 68.5 -7t66.5 -20q23 13 47.5 20t49.5 7q54 0 87 -29t33 -80q0 -43 -29.5 -81.5t-96.5 -65t-180 -32.5q-3 -22 -3 -41q0 -59 27 -96t77 -37q40 0 78 23.5t68 57.5l19 -27q-34 -52 -85.5 -80t-103.5 -28 q-68 0 -112 46.5t-44 135.5v11q-22 -45 -53 -89.5t-67 -74t-75 -29.5q-42 0 -70 36.5t-28 112.5zM591 456q-39 0 -72.5 -30t-58 -77.5t-35.5 -97.5q90 8 139.5 31.5t69 54t19.5 58.5q0 29 -16.5 45t-45.5 16zM122 151q0 -47 14 -72.5t39 -25.5q26 0 52.5 23.5t52 61.5 t48 82.5t38.5 86.5v0q29 72 79 124q-19 10 -43.5 17t-50.5 7q-51 0 -92.5 -27t-72 -72t-47.5 -99t-17 -106z" />
<glyph unicode="&#xe7;" horiz-adv-x="454" d="M285 -117q0 -30 -25 -53t-64 -36.5t-83 -16.5l4 31q48 8 76.5 24t28.5 40q0 16 -17 23.5t-41 9.5l-7 15l38 70q-65 5 -104 51t-39 130q0 64 22.5 124t61.5 107.5t90.5 75.5t108.5 28q35 0 62.5 -11t48.5 -29l-24 -65q-20 23 -45.5 37t-54.5 14q-38 0 -73 -23.5t-62 -62.5 t-42.5 -87t-15.5 -98q0 -61 25.5 -99t79.5 -38q41 0 77.5 22.5t69.5 58.5l18 -27q-34 -48 -75 -73.5t-84 -32.5l-28 -51q31 -5 52 -18.5t21 -39.5z" />
<glyph unicode="&#xe8;" horiz-adv-x="463" d="M370 577q-42 32 -74 70.5t-53 84.5l7 13l70 14q12 -43 32 -86t45 -84zM379 125l18 -27q-34 -52 -85 -80t-104 -28q-67 0 -111.5 46.5t-44.5 135.5q0 59 21 118.5t57.5 108t84.5 78t103 29.5q53 0 86 -28t33 -78q0 -44 -29 -83.5t-96.5 -66.5t-179.5 -32q-3 -22 -3 -41 q0 -59 26.5 -96t76.5 -37q41 0 78.5 23.5t68.5 57.5zM305 456q-39 0 -72.5 -30t-58 -77.5t-36.5 -97.5q90 8 139.5 31.5t69 54t19.5 58.5q0 29 -16.5 45t-44.5 16z" />
<glyph unicode="&#xe9;" horiz-adv-x="463" d="M425 743l1 -13q-42 -48 -89.5 -85.5t-103.5 -70.5l-21 13q39 40 79 83.5t69 86.5zM379 125l18 -27q-34 -52 -85 -80t-104 -28q-67 0 -111.5 46.5t-44.5 135.5q0 59 21 118.5t57.5 108t84.5 78t103 29.5q53 0 86 -28t33 -78q0 -44 -29 -83.5t-96.5 -66.5t-179.5 -32 q-3 -22 -3 -41q0 -59 26.5 -96t76.5 -37q41 0 78.5 23.5t68.5 57.5zM305 456q-39 0 -72.5 -30t-58 -77.5t-36.5 -97.5q90 8 139.5 31.5t69 54t19.5 58.5q0 29 -16.5 45t-44.5 16z" />
<glyph unicode="&#xea;" horiz-adv-x="463" d="M201 573l-20 17q36 38 70.5 77t66.5 80l61 6q34 -84 78 -163l-26 -17q-27 29 -50.5 58.5t-44.5 59.5q-31 -29 -66.5 -60.5t-68.5 -57.5zM379 125l18 -27q-34 -52 -85 -80t-104 -28q-67 0 -111.5 46.5t-44.5 135.5q0 59 21 118.5t57.5 108t84.5 78t103 29.5q53 0 86 -28 t33 -78q0 -44 -29 -83.5t-96.5 -66.5t-179.5 -32q-3 -22 -3 -41q0 -59 26.5 -96t76.5 -37q41 0 78.5 23.5t68.5 57.5zM305 456q-39 0 -72.5 -30t-58 -77.5t-36.5 -97.5q90 8 139.5 31.5t69 54t19.5 58.5q0 29 -16.5 45t-44.5 16z" />
<glyph unicode="&#xeb;" horiz-adv-x="463" d="M272 684q0 -30 -20.5 -53t-46.5 -23q-17 0 -26.5 11t-9.5 27q0 28 21.5 51t46.5 23q16 0 25.5 -10t9.5 -26zM471 684q0 -30 -20 -53t-46 -23q-18 0 -27 11t-9 27q0 28 21.5 51t46.5 23q16 0 25 -10t9 -26zM379 125l18 -27q-34 -52 -85 -80t-104 -28q-67 0 -111.5 46.5 t-44.5 135.5q0 59 21 118.5t57.5 108t84.5 78t103 29.5q53 0 86 -28t33 -78q0 -44 -29 -83.5t-96.5 -66.5t-179.5 -32q-3 -22 -3 -41q0 -59 26.5 -96t76.5 -37q41 0 78.5 23.5t68.5 57.5zM305 456q-39 0 -72.5 -30t-58 -77.5t-36.5 -97.5q90 8 139.5 31.5t69 54t19.5 58.5 q0 29 -16.5 45t-44.5 16z" />
<glyph unicode="&#xec;" horiz-adv-x="255" d="M248 577q-43 32 -75 70.5t-53 84.5l8 13l70 14q11 -43 31.5 -86t45.5 -84zM134 0h-73q0 54 10 121t27 146l20 92l8 137l82 10q0 -54 -11.5 -117t-26 -130t-25.5 -133t-11 -126z" />
<glyph unicode="&#xed;" horiz-adv-x="255" d="M302 743l2 -13q-42 -48 -89.5 -85.5t-103.5 -70.5l-22 13q40 40 80 83.5t69 86.5zM134 0h-73q0 54 10 121t27 146l20 92l8 137l82 10q0 -54 -11.5 -117t-26 -130t-25.5 -133t-11 -126z" />
<glyph unicode="&#xee;" horiz-adv-x="255" d="M100 580l-20 13q29 42 56 85.5t45 74.5l73 6q9 -40 19 -82.5t22 -83.5l-25 -13q-19 28 -34.5 57t-30.5 60q-25 -31 -51.5 -61t-53.5 -56zM134 0h-73q0 54 10 121t27 146l20 92l8 137l82 10q0 -54 -11.5 -117t-26 -130t-25.5 -133t-11 -126z" />
<glyph unicode="&#xef;" horiz-adv-x="255" d="M173 687q0 -30 -20 -53.5t-44 -23.5q-17 0 -26 11t-9 27q0 28 21 51t45 23q15 0 24 -9.5t9 -25.5zM322 687q0 -30 -20 -53.5t-44 -23.5q-17 0 -26 11t-9 27q0 28 21 51t45 23q15 0 24 -9.5t9 -25.5zM134 0h-73q0 54 10 121t27 146l20 92l8 137l82 10q0 -54 -11.5 -117 t-26 -130t-25.5 -133t-11 -126z" />
<glyph unicode="&#xf0;" horiz-adv-x="530" d="M204 -10q-66 0 -105.5 43.5t-39.5 130.5q0 61 18.5 120t52.5 107.5t80.5 77t101.5 28.5q60 0 93 -38q-14 85 -67 155l-145 -76l-17 38l134 71q-35 37 -80 66l34 43q63 -32 107 -77l134 70l18 -37l-124 -65q37 -49 56.5 -112t19.5 -143q0 -83 -20.5 -156t-57 -128 t-86 -86.5t-107.5 -31.5zM307 446q-39 0 -71 -25t-55 -66t-35 -90.5t-12 -97.5q0 -59 20.5 -92.5t65.5 -33.5q39 0 71 25.5t54.5 67t35 91t12.5 96.5q0 125 -86 125z" />
<glyph unicode="&#xf1;" horiz-adv-x="550" d="M299 722q27 0 46.5 -14t37.5 -28t40 -14q20 0 37.5 16t34.5 38l22 -4q-8 -26 -24.5 -51.5t-38.5 -42.5t-49 -17q-26 0 -47 14t-39.5 28.5t-39.5 14.5q-19 0 -37 -16t-35 -38l-22 4q9 24 24.5 49.5t38.5 43t51 17.5zM134 0h-73q1 82 17 166.5t40 192.5l8 137l82 10 q0 -34 -5.5 -73t-14.5 -78h3q38 77 92.5 114t106.5 37q46 0 70.5 -25.5t24.5 -69.5q0 -31 -10 -79.5t-23 -109.5q-12 -52 -18 -87t-8 -65.5t-2 -69.5h-73q0 56 8.5 109t23.5 127q10 49 16 84.5t6 58.5q0 30 -12.5 47.5t-41.5 17.5q-43 0 -81.5 -36t-68.5 -98t-47.5 -142 t-19.5 -168z" />
<glyph unicode="&#xf2;" horiz-adv-x="512" d="M390 577q-43 32 -75 70.5t-53 84.5l8 13l70 14q11 -43 31.5 -86t45.5 -84zM461 332q0 -61 -19 -121.5t-54.5 -110.5t-84 -80t-106.5 -30q-67 0 -106 43t-39 131q0 62 19.5 122.5t55 110.5t84 79.5t105.5 29.5q68 0 106.5 -44t38.5 -130zM129 163q0 -58 19.5 -90t63.5 -32 q41 0 73 27.5t54 72t34 95.5t12 97q0 122 -83 122q-41 0 -73 -27.5t-54.5 -71.5t-34 -95t-11.5 -98z" />
<glyph unicode="&#xf3;" horiz-adv-x="512" d="M444 743l2 -13q-42 -48 -89.5 -85.5t-104.5 -70.5l-21 13q40 40 80 83.5t69 86.5zM461 332q0 -61 -19 -121.5t-54.5 -110.5t-84 -80t-106.5 -30q-67 0 -106 43t-39 131q0 62 19.5 122.5t55 110.5t84 79.5t105.5 29.5q68 0 106.5 -44t38.5 -130zM129 163q0 -58 19.5 -90 t63.5 -32q41 0 73 27.5t54 72t34 95.5t12 97q0 122 -83 122q-41 0 -73 -27.5t-54.5 -71.5t-34 -95t-11.5 -98z" />
<glyph unicode="&#xf4;" horiz-adv-x="512" d="M220 573l-19 17q36 38 70.5 77t66.5 80l61 6q33 -84 78 -163l-27 -17q-27 29 -50 58.5t-44 59.5q-32 -29 -67 -60.5t-69 -57.5zM461 332q0 -61 -19 -121.5t-54.5 -110.5t-84 -80t-106.5 -30q-67 0 -106 43t-39 131q0 62 19.5 122.5t55 110.5t84 79.5t105.5 29.5 q68 0 106.5 -44t38.5 -130zM129 163q0 -58 19.5 -90t63.5 -32q41 0 73 27.5t54 72t34 95.5t12 97q0 122 -83 122q-41 0 -73 -27.5t-54.5 -71.5t-34 -95t-11.5 -98z" />
<glyph unicode="&#xf5;" horiz-adv-x="512" d="M286 722q27 0 46.5 -14t37.5 -28t40 -14q21 0 38 16t34 38l22 -4q-8 -26 -24.5 -51.5t-38.5 -42.5t-49 -17q-26 0 -47 14t-39.5 28.5t-39.5 14.5q-19 0 -37 -16t-34 -38l-23 4q9 24 25 49.5t38.5 43t50.5 17.5zM461 332q0 -61 -19 -121.5t-54.5 -110.5t-84 -80 t-106.5 -30q-67 0 -106 43t-39 131q0 62 19.5 122.5t55 110.5t84 79.5t105.5 29.5q68 0 106.5 -44t38.5 -130zM129 163q0 -58 19.5 -90t63.5 -32q41 0 73 27.5t54 72t34 95.5t12 97q0 122 -83 122q-41 0 -73 -27.5t-54.5 -71.5t-34 -95t-11.5 -98z" />
<glyph unicode="&#xf6;" horiz-adv-x="512" d="M291 684q0 -30 -20.5 -53t-45.5 -23q-18 0 -27.5 11t-9.5 27q0 28 21.5 51t46.5 23q17 0 26 -10t9 -26zM491 684q0 -30 -20.5 -53t-45.5 -23q-18 0 -27.5 11t-9.5 27q0 28 21.5 51t46.5 23q17 0 26 -10t9 -26zM461 332q0 -61 -19 -121.5t-54.5 -110.5t-84 -80t-106.5 -30 q-67 0 -106 43t-39 131q0 62 19.5 122.5t55 110.5t84 79.5t105.5 29.5q68 0 106.5 -44t38.5 -130zM129 163q0 -58 19.5 -90t63.5 -32q41 0 73 27.5t54 72t34 95.5t12 97q0 122 -83 122q-41 0 -73 -27.5t-54.5 -71.5t-34 -95t-11.5 -98z" />
<glyph unicode="&#xf7;" d="M403 550q0 -25 -21 -46.5t-48 -21.5q-17 0 -26.5 10.5t-9.5 25.5q0 25 21.5 46.5t47.5 21.5q16 0 26 -10t10 -26zM526 322h-450l9 47q31 1 76 1.5t97 1.5t104 1t97.5 0.5t77.5 0.5l3 -6zM325 178q0 -26 -21.5 -47t-47.5 -21q-17 0 -26.5 10.5t-9.5 25.5q0 25 22 46.5 t48 21.5q15 0 25 -10t10 -26z" />
<glyph unicode="&#xf8;" horiz-adv-x="512" d="M461 332q0 -61 -19 -121.5t-54.5 -110.5t-84 -80t-106.5 -30q-89 0 -124 71l-76 -66l-25 30l87 76q-7 28 -7 63q0 62 19.5 122.5t55 110.5t84 79.5t105.5 29.5q89 0 125 -72l78 68l26 -30l-90 -78q6 -28 6 -62zM129 163v-2l252 220q-15 74 -79 74q-41 0 -73 -27.5 t-54.5 -71.5t-34 -95t-11.5 -98zM212 41q41 0 73 27.5t54 72t34 95.5t12 97l-252 -219q15 -73 79 -73z" />
<glyph unicode="&#xf9;" horiz-adv-x="526" d="M384 577q-43 32 -75 70.5t-53 84.5l7 13l70 14q12 -43 32.5 -86t44.5 -84zM67 146l44 213l8 137l82 10q0 -72 -16 -147t-30 -150q-14 -74 -10.5 -115t49.5 -41q39 0 72.5 28.5t59.5 79t44 114.5q10 46 17.5 88.5t11.5 81.5q2 26 3 51l75 10q-2 -74 -19 -152.5t-36 -178.5 q-9 -43 -14.5 -86.5t-5.5 -88.5h-73q0 34 3.5 67t9.5 67q-36 -74 -86.5 -109t-98.5 -35q-57 0 -81 42.5t-9 113.5z" />
<glyph unicode="&#xfa;" horiz-adv-x="526" d="M438 743l2 -13q-42 -48 -90 -85.5t-104 -70.5l-21 13q40 40 80 83.5t69 86.5zM67 146l44 213l8 137l82 10q0 -72 -16 -147t-30 -150q-14 -74 -10.5 -115t49.5 -41q39 0 72.5 28.5t59.5 79t44 114.5q10 46 17.5 88.5t11.5 81.5q2 26 3 51l75 10q-2 -74 -19 -152.5 t-36 -178.5q-9 -43 -14.5 -86.5t-5.5 -88.5h-73q0 34 3.5 67t9.5 67q-36 -74 -86.5 -109t-98.5 -35q-57 0 -81 42.5t-9 113.5z" />
<glyph unicode="&#xfb;" horiz-adv-x="526" d="M214 573l-20 17q36 38 70.5 77t66.5 80l62 6q33 -84 78 -163l-27 -17q-27 29 -50 58.5t-45 59.5q-31 -29 -66 -60.5t-69 -57.5zM67 146l44 213l8 137l82 10q0 -72 -16 -147t-30 -150q-14 -74 -10.5 -115t49.5 -41q39 0 72.5 28.5t59.5 79t44 114.5q10 46 17.5 88.5 t11.5 81.5q2 26 3 51l75 10q-2 -74 -19 -152.5t-36 -178.5q-9 -43 -14.5 -86.5t-5.5 -88.5h-73q0 34 3.5 67t9.5 67q-36 -74 -86.5 -109t-98.5 -35q-57 0 -81 42.5t-9 113.5z" />
<glyph unicode="&#xfc;" horiz-adv-x="526" d="M285 684q0 -30 -20.5 -53t-46.5 -23q-17 0 -26.5 11t-9.5 27q0 28 21.5 51t46.5 23q16 0 25.5 -10t9.5 -26zM485 684q0 -30 -20.5 -53t-46.5 -23q-17 0 -26.5 11t-9.5 27q0 28 21.5 51t46.5 23q16 0 25.5 -10t9.5 -26zM67 146l44 213l8 137l82 10q0 -72 -16 -147 t-30 -150q-14 -74 -10.5 -115t49.5 -41q39 0 72.5 28.5t59.5 79t44 114.5q10 46 17.5 88.5t11.5 81.5q2 26 3 51l75 10q-2 -74 -19 -152.5t-36 -178.5q-9 -43 -14.5 -86.5t-5.5 -88.5h-73q0 34 3.5 67t9.5 67q-36 -74 -86.5 -109t-98.5 -35q-57 0 -81 42.5t-9 113.5z" />
<glyph unicode="&#xfd;" horiz-adv-x="427" d="M386 743l2 -13q-42 -48 -89.5 -85.5t-104.5 -70.5l-21 13q40 40 80 83.5t69 86.5zM399 506q34 0 34 -27q0 -34 -19.5 -90t-53.5 -125t-79 -141.5t-95 -140t-101.5 -121.5t-100 -85.5t-88.5 -31.5q-24 0 -37 11.5t-13 31.5q0 10 3.5 18.5t7.5 14.5q12 -2 24.5 -3t21.5 -1 q43 0 87 28.5t83 71t67 84.5h-22q-1 137 -14.5 263t-38.5 233l75 10q49 -204 44 -434h1q45 69 84 143.5t65.5 148t33.5 137.5q9 3 17 4t14 1z" />
<glyph unicode="&#xfe;" horiz-adv-x="523" d="M75 -244h-73q0 37 6.5 85.5t20 118.5t34.5 170l102 479l8 137l82 10q0 -55 -13 -131.5t-33 -164t-40 -177.5q16 40 38 79t48.5 72t57 52.5t65.5 19.5q44 0 71.5 -36t27.5 -112q0 -66 -22.5 -131.5t-64.5 -119t-100 -85.5t-128 -32q-12 0 -26 1t-29 3q-14 -69 -23 -132 t-9 -106zM119 55l1 1q-1 -1 -1 -2q18 -6 36 -9.5t32 -3.5q42 0 80.5 27.5t69 72t47.5 98.5t17 107q0 45 -13.5 71.5t-39.5 26.5q-31 0 -65 -35t-66 -92.5t-57.5 -126t-40.5 -135.5z" />
<glyph unicode="&#xff;" horiz-adv-x="427" d="M233 684q0 -30 -20.5 -53t-45.5 -23q-18 0 -27.5 11t-9.5 27q0 28 21.5 51t46.5 23q17 0 26 -10t9 -26zM433 684q0 -30 -20.5 -53t-46.5 -23q-17 0 -26.5 11t-9.5 27q0 28 21.5 51t46.5 23q17 0 26 -10t9 -26zM399 506q34 0 34 -27q0 -34 -19.5 -90t-53.5 -125 t-79 -141.5t-95 -140t-101.5 -121.5t-100 -85.5t-88.5 -31.5q-24 0 -37 11.5t-13 31.5q0 10 3.5 18.5t7.5 14.5q12 -2 24.5 -3t21.5 -1q43 0 87 28.5t83 71t67 84.5h-22q-1 137 -14.5 263t-38.5 233l75 10q49 -204 44 -434h1q45 69 84 143.5t65.5 148t33.5 137.5q9 3 17 4 t14 1z" />
<glyph unicode="&#x100;" horiz-adv-x="613" d="M291 815l11 52h264l-11 -52h-264zM44 0h-72l331 589q16 28 30.5 55t24.5 48l74 4l9 -10l94 -686h-77l-28 201h-273zM273 406l-83 -148h232l-21 148q-6 58 -11.5 110.5t-5.5 98.5h-2q-21 -46 -50 -100t-59 -109z" />
<glyph unicode="&#x101;" horiz-adv-x="523" d="M219 639l10 49h272l-10 -49h-272zM46 135q0 67 22.5 132.5t65 119.5t100.5 86.5t128 32.5q24 0 59 -5t67 -17l-42 -174q-21 -93 -33.5 -164.5t-12.5 -145.5h-73q0 32 2 62t7.5 65.5t15.5 82.5q-17 -36 -39.5 -74.5t-49.5 -71.5t-57.5 -53.5t-62.5 -20.5q-42 0 -69.5 35.5 t-27.5 109.5zM122 151q0 -46 13.5 -72t40.5 -26q24 0 50.5 22.5t51.5 60t47 81.5t38.5 86.5t25.5 74.5q4 15 7.5 31t7.5 33q-18 7 -36 10t-31 3q-43 0 -81.5 -27t-68.5 -72t-47.5 -99t-17.5 -106z" />
<glyph unicode="&#x102;" horiz-adv-x="613" d="M524 900h33q-21 -54 -62.5 -85.5t-94.5 -31.5q-48 0 -76 30t-24 83l35 4q3 -27 25.5 -43t57.5 -16q33 0 61.5 16t44.5 43zM44 0h-72l331 589q16 28 30.5 55t24.5 48l74 4l9 -10l94 -686h-77l-28 201h-273zM273 406l-83 -148h232l-21 148q-6 58 -11.5 110.5t-5.5 98.5h-2 q-21 -46 -50 -100t-59 -109z" />
<glyph unicode="&#x103;" horiz-adv-x="523" d="M462 736h33q-22 -64 -65.5 -102t-95.5 -38q-49 0 -75 36t-20 99l34 5q2 -38 22.5 -59.5t56.5 -21.5q33 0 62.5 22t47.5 59zM46 135q0 67 22.5 132.5t65 119.5t100.5 86.5t128 32.5q24 0 59 -5t67 -17l-42 -174q-21 -93 -33.5 -164.5t-12.5 -145.5h-73q0 32 2 62t7.5 65.5 t15.5 82.5q-17 -36 -39.5 -74.5t-49.5 -71.5t-57.5 -53.5t-62.5 -20.5q-42 0 -69.5 35.5t-27.5 109.5zM122 151q0 -46 13.5 -72t40.5 -26q24 0 50.5 22.5t51.5 60t47 81.5t38.5 86.5t25.5 74.5q4 15 7.5 31t7.5 33q-18 7 -36 10t-31 3q-43 0 -81.5 -27t-68.5 -72t-47.5 -99 t-17.5 -106z" />
<glyph unicode="&#x104;" horiz-adv-x="613" d="M44 0h-72l331 589q16 28 30.5 55t24.5 48l74 4l9 -10l94 -686h-3q-62 -31 -100.5 -67t-38.5 -73q0 -35 43 -35q11 0 25 2.5t34 9.5l5 -30q-44 -32 -97 -32q-37 0 -59 16.5t-22 46.5q0 43 40 85.5t112 76.5h-16l-28 201h-273zM273 406l-83 -148h232l-21 148 q-6 58 -11.5 110.5t-5.5 98.5h-2q-21 -46 -50 -100t-59 -109z" />
<glyph unicode="&#x105;" horiz-adv-x="523" d="M46 135q0 67 22.5 132.5t65 119.5t100.5 86.5t128 32.5q24 0 59 -5t67 -17l-42 -174q-21 -93 -33.5 -164.5t-12.5 -145.5q-63 -31 -101.5 -67t-38.5 -73q0 -35 43 -35q11 0 25.5 2.5t33.5 9.5l6 -30q-44 -32 -97 -32q-38 0 -59.5 16.5t-21.5 46.5q0 43 39.5 85.5 t111.5 76.5h-14q0 32 2 62t7.5 65.5t15.5 82.5q-17 -36 -39.5 -74.5t-49.5 -71.5t-57.5 -53.5t-62.5 -20.5q-42 0 -69.5 35.5t-27.5 109.5zM122 151q0 -46 13.5 -72t40.5 -26q24 0 50.5 22.5t51.5 60t47 81.5t38.5 86.5t25.5 74.5q4 15 7.5 31t7.5 33q-18 7 -36 10t-31 3 q-43 0 -81.5 -27t-68.5 -72t-47.5 -99t-17.5 -106z" />
<glyph unicode="&#x106;" horiz-adv-x="580" d="M598 865l-6 -13q-62 -32 -125.5 -49.5t-131.5 -25.5l-3 23q59 23 118.5 50.5t108.5 59.5zM505 107l-5 -63q-42 -27 -95.5 -40.5t-99.5 -13.5q-103 0 -160 63t-57 185q0 83 26.5 164.5t75.5 148t117 106t150 39.5q37 0 82 -10t80 -34l-30 -68q-28 24 -67.5 36t-76.5 12 q-67 0 -119 -35t-87 -91.5t-53 -122.5t-18 -129q0 -93 40 -146.5t120 -53.5q45 0 92 15t85 38z" />
<glyph unicode="&#x107;" horiz-adv-x="454" d="M435 743l1 -13q-42 -48 -89.5 -85.5t-103.5 -70.5l-22 13q40 40 80 83.5t69 86.5zM381 125l18 -27q-41 -57 -90.5 -82.5t-100.5 -25.5q-70 0 -113 46.5t-43 134.5q0 64 22.5 124t61.5 107.5t90.5 75.5t108.5 28q35 0 62.5 -11t48.5 -29l-24 -65q-20 23 -45.5 37t-54.5 14 q-38 0 -73 -23.5t-62 -62.5t-42.5 -87t-15.5 -98q0 -61 25.5 -99t79.5 -38q41 0 77.5 22.5t69.5 58.5z" />
<glyph unicode="&#x108;" horiz-adv-x="580" d="M331 770l-16 20q40 31 73.5 59t66.5 59l62 7q20 -31 44.5 -63t52.5 -62l-25 -20q-30 20 -59.5 43t-55.5 45q-33 -22 -69 -44.5t-74 -43.5zM505 107l-5 -63q-42 -27 -95.5 -40.5t-99.5 -13.5q-103 0 -160 63t-57 185q0 83 26.5 164.5t75.5 148t117 106t150 39.5 q37 0 82 -10t80 -34l-30 -68q-28 24 -67.5 36t-76.5 12q-67 0 -119 -35t-87 -91.5t-53 -122.5t-18 -129q0 -93 40 -146.5t120 -53.5q45 0 92 15t85 38z" />
<glyph unicode="&#x109;" horiz-adv-x="454" d="M210 573l-19 17q36 38 70.5 77t66.5 80l61 6q34 -84 78 -163l-27 -17q-27 29 -50 58.5t-44 59.5q-31 -29 -66.5 -60.5t-69.5 -57.5zM381 125l18 -27q-41 -57 -90.5 -82.5t-100.5 -25.5q-70 0 -113 46.5t-43 134.5q0 64 22.5 124t61.5 107.5t90.5 75.5t108.5 28 q35 0 62.5 -11t48.5 -29l-24 -65q-20 23 -45.5 37t-54.5 14q-38 0 -73 -23.5t-62 -62.5t-42.5 -87t-15.5 -98q0 -61 25.5 -99t79.5 -38q41 0 77.5 22.5t69.5 58.5z" />
<glyph unicode="&#x10a;" horiz-adv-x="580" d="M522 864q0 -28 -21.5 -49t-49.5 -21q-20 0 -31.5 11t-11.5 27q0 26 22.5 47t50.5 21q20 0 30.5 -10t10.5 -26zM505 107l-5 -63q-42 -27 -95.5 -40.5t-99.5 -13.5q-103 0 -160 63t-57 185q0 83 26.5 164.5t75.5 148t117 106t150 39.5q37 0 82 -10t80 -34l-30 -68 q-28 24 -67.5 36t-76.5 12q-67 0 -119 -35t-87 -91.5t-53 -122.5t-18 -129q0 -93 40 -146.5t120 -53.5q45 0 92 15t85 38z" />
<glyph unicode="&#x10b;" horiz-adv-x="454" d="M384 685q0 -30 -21 -53.5t-49 -23.5q-19 0 -29 11.5t-10 28.5q0 28 22 51.5t49 23.5q18 0 28 -10.5t10 -27.5zM381 125l18 -27q-41 -57 -90.5 -82.5t-100.5 -25.5q-70 0 -113 46.5t-43 134.5q0 64 22.5 124t61.5 107.5t90.5 75.5t108.5 28q35 0 62.5 -11t48.5 -29 l-24 -65q-20 23 -45.5 37t-54.5 14q-38 0 -73 -23.5t-62 -62.5t-42.5 -87t-15.5 -98q0 -61 25.5 -99t79.5 -38q41 0 77.5 22.5t69.5 58.5z" />
<glyph unicode="&#x10c;" horiz-adv-x="580" d="M598 916l17 -20q-41 -31 -74.5 -59t-66.5 -59l-61 -7q-20 31 -45 63t-53 62l25 20q30 -20 59.5 -42.5t55.5 -45.5q33 22 69 44.5t74 43.5zM505 107l-5 -63q-42 -27 -95.5 -40.5t-99.5 -13.5q-103 0 -160 63t-57 185q0 83 26.5 164.5t75.5 148t117 106t150 39.5 q37 0 82 -10t80 -34l-30 -68q-28 24 -67.5 36t-76.5 12q-67 0 -119 -35t-87 -91.5t-53 -122.5t-18 -129q0 -93 40 -146.5t120 -53.5q45 0 92 15t85 38z" />
<glyph unicode="&#x10d;" horiz-adv-x="454" d="M454 758l20 -18q-36 -38 -70.5 -76.5t-66.5 -79.5l-62 -6q-33 84 -78 162l27 18q27 -29 50 -58.5t45 -59.5q31 29 66 60t69 58zM381 125l18 -27q-41 -57 -90.5 -82.5t-100.5 -25.5q-70 0 -113 46.5t-43 134.5q0 64 22.5 124t61.5 107.5t90.5 75.5t108.5 28q35 0 62.5 -11 t48.5 -29l-24 -65q-20 23 -45.5 37t-54.5 14q-38 0 -73 -23.5t-62 -62.5t-42.5 -87t-15.5 -98q0 -61 25.5 -99t79.5 -38q41 0 77.5 22.5t69.5 58.5z" />
<glyph unicode="&#x10e;" horiz-adv-x="697" d="M599 916l17 -20q-41 -31 -74.5 -59t-65.5 -59l-62 -7q-20 31 -45 63t-53 62l26 20q30 -20 59 -42.5t55 -45.5q33 22 69 44.5t74 43.5zM648 432q0 -82 -28.5 -159t-83.5 -138.5t-132.5 -98t-175.5 -36.5h-161l113 532q10 45 16.5 83t8.5 71h176q124 0 195.5 -62t71.5 -192 zM359 628h-83l-121 -570h88q80 0 141 31.5t102 84.5t62 118t21 132q0 110 -54.5 157t-155.5 47z" />
<glyph unicode="&#x10f;" horiz-adv-x="526" d="M716 759l5 -12q-22 -58 -53.5 -110.5t-68.5 -100.5l-25 4q25 57 45 110.5t32 103.5zM402 0h-73q0 38 6 87t21 128q-16 -40 -38 -80t-49 -73t-59 -52.5t-67 -19.5q-42 0 -69.5 35.5t-27.5 109.5q0 66 23 132t65 120t99.5 86.5t126.5 32.5q12 0 26.5 -1t29.5 -4l23 108 l8 137l82 10q0 -57 -13 -131.5t-32 -157.5t-37.5 -167t-31.5 -161t-13 -139zM122 151q0 -46 13.5 -72t40.5 -26q24 0 51 23t52.5 60.5t47.5 81.5t38.5 86.5t24.5 74.5v1l14 62q-19 7 -36.5 10t-30.5 3q-43 0 -81.5 -27t-68.5 -72t-47.5 -99t-17.5 -106z" />
<glyph unicode="&#x110;" horiz-adv-x="697" d="M648 432q0 -82 -28.5 -159t-83.5 -138.5t-132.5 -98t-175.5 -36.5h-161l69 321h-78l9 44h78l35 167q10 45 16.5 83t8.5 71h176q124 0 195.5 -62t71.5 -192zM424 321h-213l-56 -263h88q80 0 141 31.5t102 84.5t62 118t21 132q0 110 -54.5 157t-155.5 47h-83l-56 -263h213z " />
<glyph unicode="&#x111;" horiz-adv-x="526" d="M402 0h-73q0 38 6 87t21 128q-16 -40 -38 -80t-49 -73t-59 -52.5t-67 -19.5q-42 0 -69.5 35.5t-27.5 109.5q0 66 23 132t65 120t99.5 86.5t126.5 32.5q12 0 26.5 -1t29.5 -4l20 92h-198l9 44h194l6 109l82 10q0 -26 -3 -56t-8 -63h95l-9 -44h-94q-13 -72 -31.5 -151.5 t-36 -159t-29 -152t-11.5 -130.5zM122 151q0 -46 13.5 -72t40.5 -26q24 0 51 23t52.5 60.5t47.5 81.5t38.5 86.5t24.5 74.5v1l14 62q-19 7 -36.5 10t-30.5 3q-43 0 -81.5 -27t-68.5 -72t-47.5 -99t-17.5 -106z" />
<glyph unicode="&#x112;" horiz-adv-x="543" d="M288 815l11 52h264l-11 -52h-264zM457 63l-13 -63h-377l113 532q10 44 16 80t9 74h367l7 -8l-12 -54l-291 5l-55 -261l248 2l-14 -59l-246 3l-55 -257z" />
<glyph unicode="&#x113;" horiz-adv-x="463" d="M179 639l10 49h272l-10 -49h-272zM379 125l18 -27q-34 -52 -85 -80t-104 -28q-67 0 -111.5 46.5t-44.5 135.5q0 59 21 118.5t57.5 108t84.5 78t103 29.5q53 0 86 -28t33 -78q0 -44 -29 -83.5t-96.5 -66.5t-179.5 -32q-3 -22 -3 -41q0 -59 26.5 -96t76.5 -37 q41 0 78.5 23.5t68.5 57.5zM305 456q-39 0 -72.5 -30t-58 -77.5t-36.5 -97.5q90 8 139.5 31.5t69 54t19.5 58.5q0 29 -16.5 45t-44.5 16z" />
<glyph unicode="&#x114;" horiz-adv-x="543" d="M521 900h33q-21 -54 -62.5 -85.5t-93.5 -31.5q-49 0 -77 30t-23 83l34 4q4 -27 26 -43t57 -16q33 0 61.5 16t44.5 43zM457 63l-13 -63h-377l113 532q10 44 16 80t9 74h367l7 -8l-12 -54l-291 5l-55 -261l248 2l-14 -59l-246 3l-55 -257z" />
<glyph unicode="&#x115;" horiz-adv-x="463" d="M421 736h34q-23 -64 -66.5 -102t-95.5 -38q-49 0 -75 36t-20 99l34 5q2 -38 22.5 -59.5t56.5 -21.5q33 0 62.5 22t47.5 59zM379 125l18 -27q-34 -52 -85 -80t-104 -28q-67 0 -111.5 46.5t-44.5 135.5q0 59 21 118.5t57.5 108t84.5 78t103 29.5q53 0 86 -28t33 -78 q0 -44 -29 -83.5t-96.5 -66.5t-179.5 -32q-3 -22 -3 -41q0 -59 26.5 -96t76.5 -37q41 0 78.5 23.5t68.5 57.5zM305 456q-39 0 -72.5 -30t-58 -77.5t-36.5 -97.5q90 8 139.5 31.5t69 54t19.5 58.5q0 29 -16.5 45t-44.5 16z" />
<glyph unicode="&#x116;" horiz-adv-x="543" d="M484 864q0 -28 -21.5 -49t-49.5 -21q-20 0 -31.5 11t-11.5 27q0 26 22.5 47t50.5 21q19 0 30 -10t11 -26zM457 63l-13 -63h-377l113 532q10 44 16 80t9 74h367l7 -8l-12 -54l-291 5l-55 -261l248 2l-14 -59l-246 3l-55 -257z" />
<glyph unicode="&#x117;" horiz-adv-x="463" d="M375 685q0 -30 -21.5 -53.5t-49.5 -23.5q-19 0 -29 11.5t-10 28.5q0 28 22 51.5t49 23.5q18 0 28.5 -10.5t10.5 -27.5zM379 125l18 -27q-34 -52 -85 -80t-104 -28q-67 0 -111.5 46.5t-44.5 135.5q0 59 21 118.5t57.5 108t84.5 78t103 29.5q53 0 86 -28t33 -78 q0 -44 -29 -83.5t-96.5 -66.5t-179.5 -32q-3 -22 -3 -41q0 -59 26.5 -96t76.5 -37q41 0 78.5 23.5t68.5 57.5zM305 456q-39 0 -72.5 -30t-58 -77.5t-36.5 -97.5q90 8 139.5 31.5t69 54t19.5 58.5q0 29 -16.5 45t-44.5 16z" />
<glyph unicode="&#x118;" horiz-adv-x="543" d="M444 0q-63 -31 -101.5 -67t-38.5 -73q0 -35 44 -35q11 0 25 2.5t33 9.5l6 -30q-44 -32 -97 -32q-37 0 -59 16.5t-22 46.5q0 43 40 85.5t112 76.5h-319l113 532q10 44 16 80t9 74h367l7 -8l-12 -54l-291 5l-55 -261l248 2l-14 -59l-246 3l-55 -257l303 6z" />
<glyph unicode="&#x119;" horiz-adv-x="463" d="M338 33q-66 -48 -106.5 -86t-40.5 -79q0 -43 44 -43q10 0 24.5 2.5t33.5 9.5l6 -30q-44 -32 -97 -32q-38 0 -59.5 18.5t-21.5 52.5q0 39 28.5 74t81.5 71q-11 -1 -23 -1q-67 0 -111.5 46.5t-44.5 135.5q0 59 21 118.5t57.5 108t84.5 78t103 29.5q53 0 86 -28t33 -78 q0 -44 -29 -83.5t-96.5 -66.5t-179.5 -32q-3 -22 -3 -41q0 -59 26.5 -96t76.5 -37q41 0 78.5 23.5t68.5 57.5l18 -27q-25 -38 -61 -64zM305 456q-39 0 -72.5 -30t-58 -77.5t-36.5 -97.5q90 8 139.5 31.5t69 54t19.5 58.5q0 29 -16.5 45t-44.5 16z" />
<glyph unicode="&#x11a;" horiz-adv-x="543" d="M560 916l16 -20q-40 -31 -73.5 -59t-66.5 -59l-62 -7q-20 31 -44.5 63t-52.5 62l25 20q30 -20 59.5 -42.5t55.5 -45.5q33 22 69 44.5t74 43.5zM457 63l-13 -63h-377l113 532q10 44 16 80t9 74h367l7 -8l-12 -54l-291 5l-55 -261l248 2l-14 -59l-246 3l-55 -257z" />
<glyph unicode="&#x11b;" horiz-adv-x="463" d="M444 758l20 -18q-36 -38 -70.5 -76.5t-66.5 -79.5l-62 -6q-33 84 -78 162l27 18q27 -29 50 -58.5t45 -59.5q31 29 66 60t69 58zM379 125l18 -27q-34 -52 -85 -80t-104 -28q-67 0 -111.5 46.5t-44.5 135.5q0 59 21 118.5t57.5 108t84.5 78t103 29.5q53 0 86 -28t33 -78 q0 -44 -29 -83.5t-96.5 -66.5t-179.5 -32q-3 -22 -3 -41q0 -59 26.5 -96t76.5 -37q41 0 78.5 23.5t68.5 57.5zM305 456q-39 0 -72.5 -30t-58 -77.5t-36.5 -97.5q90 8 139.5 31.5t69 54t19.5 58.5q0 29 -16.5 45t-44.5 16z" />
<glyph unicode="&#x11c;" horiz-adv-x="646" d="M331 770l-17 20q41 31 74.5 59t65.5 59l62 7q20 -31 45 -63t53 -62l-26 -20q-30 20 -59 43t-55 45q-33 -22 -69 -44.5t-74 -43.5zM574 298l7 -8l-56 -252q-40 -23 -94.5 -35.5t-106.5 -12.5q-113 0 -174.5 62.5t-61.5 188.5q0 86 28 167.5t79 146.5t120 103t150 38 q38 0 83 -10t82 -34l-29 -68q-28 24 -67.5 36.5t-78.5 12.5q-66 0 -119 -33t-90.5 -88t-57.5 -122.5t-20 -135.5q0 -98 43.5 -150t135.5 -52q56 0 113 18l11 53q11 50 16.5 86t9.5 79z" />
<glyph unicode="&#x11d;" horiz-adv-x="443" d="M190 573l-19 17q36 38 70.5 77t66.5 80l61 6q34 -84 78 -163l-27 -17q-27 29 -50 58.5t-44 59.5q-31 -29 -66.5 -60.5t-69.5 -57.5zM128 -256q-85 0 -130 34t-45 85q0 40 25.5 68.5t63.5 48.5l19 -19q-17 -19 -27.5 -38.5t-10.5 -39.5q0 -39 30.5 -66t88.5 -27 q63 0 101.5 29.5t38.5 65.5q0 25 -21.5 44.5t-64.5 40.5q-33 16 -59.5 32.5t-26.5 43.5q0 30 29.5 54.5t66.5 45.5v2q-9 -1 -14 -1q-62 1 -95 38.5t-33 98.5q0 62 29.5 112t78.5 80t108 30q44 0 73.5 0.5t52 3t46.5 7.5q8 -10 8 -25q0 -12 -9 -23.5t-34 -11.5q-17 0 -37 5.5 t-40 10.5v-2q26 -15 40.5 -40.5t14.5 -68.5q0 -55 -21.5 -96.5t-53.5 -72t-63.5 -53t-53.5 -39.5t-22 -33t19.5 -27t36.5 -19q55 -26 87.5 -54.5t32.5 -69.5q0 -37 -27.5 -72.5t-79 -58.5t-122.5 -23zM325 367q0 43 -17 68t-48 25q-33 0 -62 -27t-46.5 -68t-17.5 -84 q0 -45 19 -68.5t50 -23.5q36 0 63.5 27.5t43 68.5t15.5 82z" />
<glyph unicode="&#x11e;" horiz-adv-x="646" d="M559 900h33q-21 -54 -62.5 -85.5t-94.5 -31.5q-48 0 -76 30t-24 83l35 4q3 -27 25.5 -43t57.5 -16q33 0 61.5 16t44.5 43zM574 298l7 -8l-56 -252q-40 -23 -94.5 -35.5t-106.5 -12.5q-113 0 -174.5 62.5t-61.5 188.5q0 86 28 167.5t79 146.5t120 103t150 38q38 0 83 -10 t82 -34l-29 -68q-28 24 -67.5 36.5t-78.5 12.5q-66 0 -119 -33t-90.5 -88t-57.5 -122.5t-20 -135.5q0 -98 43.5 -150t135.5 -52q56 0 113 18l11 53q11 50 16.5 86t9.5 79z" />
<glyph unicode="&#x11f;" horiz-adv-x="443" d="M411 736h33q-22 -64 -65.5 -102t-95.5 -38q-49 0 -75 36t-20 99l34 5q2 -38 22.5 -59.5t56.5 -21.5q33 0 62.5 22t47.5 59zM128 -256q-85 0 -130 34t-45 85q0 40 25.5 68.5t63.5 48.5l19 -19q-17 -19 -27.5 -38.5t-10.5 -39.5q0 -39 30.5 -66t88.5 -27q63 0 101.5 29.5 t38.5 65.5q0 25 -21.5 44.5t-64.5 40.5q-33 16 -59.5 32.5t-26.5 43.5q0 30 29.5 54.5t66.5 45.5v2q-9 -1 -14 -1q-62 1 -95 38.5t-33 98.5q0 62 29.5 112t78.5 80t108 30q44 0 73.5 0.5t52 3t46.5 7.5q8 -10 8 -25q0 -12 -9 -23.5t-34 -11.5q-17 0 -37 5.5t-40 10.5v-2 q26 -15 40.5 -40.5t14.5 -68.5q0 -55 -21.5 -96.5t-53.5 -72t-63.5 -53t-53.5 -39.5t-22 -33t19.5 -27t36.5 -19q55 -26 87.5 -54.5t32.5 -69.5q0 -37 -27.5 -72.5t-79 -58.5t-122.5 -23zM325 367q0 43 -17 68t-48 25q-33 0 -62 -27t-46.5 -68t-17.5 -84q0 -45 19 -68.5 t50 -23.5q36 0 63.5 27.5t43 68.5t15.5 82z" />
<glyph unicode="&#x120;" horiz-adv-x="646" d="M521 864q0 -28 -21 -49t-50 -21q-20 0 -31 11t-11 27q0 26 22.5 47t49.5 21q20 0 30.5 -10t10.5 -26zM574 298l7 -8l-56 -252q-40 -23 -94.5 -35.5t-106.5 -12.5q-113 0 -174.5 62.5t-61.5 188.5q0 86 28 167.5t79 146.5t120 103t150 38q38 0 83 -10t82 -34l-29 -68 q-28 24 -67.5 36.5t-78.5 12.5q-66 0 -119 -33t-90.5 -88t-57.5 -122.5t-20 -135.5q0 -98 43.5 -150t135.5 -52q56 0 113 18l11 53q11 50 16.5 86t9.5 79z" />
<glyph unicode="&#x121;" horiz-adv-x="443" d="M364 685q0 -30 -21 -53.5t-49 -23.5q-19 0 -29 11.5t-10 28.5q0 28 22 51.5t49 23.5q18 0 28 -10.5t10 -27.5zM128 -256q-85 0 -130 34t-45 85q0 40 25.5 68.5t63.5 48.5l19 -19q-17 -19 -27.5 -38.5t-10.5 -39.5q0 -39 30.5 -66t88.5 -27q63 0 101.5 29.5t38.5 65.5 q0 25 -21.5 44.5t-64.5 40.5q-33 16 -59.5 32.5t-26.5 43.5q0 30 29.5 54.5t66.5 45.5v2q-9 -1 -14 -1q-62 1 -95 38.5t-33 98.5q0 62 29.5 112t78.5 80t108 30q44 0 73.5 0.5t52 3t46.5 7.5q8 -10 8 -25q0 -12 -9 -23.5t-34 -11.5q-17 0 -37 5.5t-40 10.5v-2 q26 -15 40.5 -40.5t14.5 -68.5q0 -55 -21.5 -96.5t-53.5 -72t-63.5 -53t-53.5 -39.5t-22 -33t19.5 -27t36.5 -19q55 -26 87.5 -54.5t32.5 -69.5q0 -37 -27.5 -72.5t-79 -58.5t-122.5 -23zM325 367q0 43 -17 68t-48 25q-33 0 -62 -27t-46.5 -68t-17.5 -84q0 -45 19 -68.5 t50 -23.5q36 0 63.5 27.5t43 68.5t15.5 82z" />
<glyph unicode="&#x122;" horiz-adv-x="646" d="M574 298l7 -8l-56 -252q-40 -23 -94.5 -35.5t-106.5 -12.5q-113 0 -174.5 62.5t-61.5 188.5q0 86 28 167.5t79 146.5t120 103t150 38q38 0 83 -10t82 -34l-29 -68q-28 24 -67.5 36.5t-78.5 12.5q-66 0 -119 -33t-90.5 -88t-57.5 -122.5t-20 -135.5q0 -98 43.5 -150 t135.5 -52q56 0 113 18l11 53q11 50 16.5 86t9.5 79zM232 -310q18 23 33.5 46.5t26.5 47.5q-17 0 -26 12t-8 30q2 22 20 44t45 22q20 0 30.5 -12t8.5 -35q-2 -29 -19 -60.5t-41 -61t-48 -52.5z" />
<glyph unicode="&#x123;" horiz-adv-x="443" d="M432 775q-18 -23 -34 -46.5t-27 -47.5q18 0 27 -12t7 -30q-1 -23 -19 -44.5t-46 -21.5q-19 0 -29.5 12t-8.5 35q2 29 19 60.5t41 61t47 52.5zM128 -256q-85 0 -130 34t-45 85q0 40 25.5 68.5t63.5 48.5l19 -19q-17 -19 -27.5 -38.5t-10.5 -39.5q0 -39 30.5 -66t88.5 -27 q63 0 101.5 29.5t38.5 65.5q0 25 -21.5 44.5t-64.5 40.5q-33 16 -59.5 32.5t-26.5 43.5q0 30 29.5 54.5t66.5 45.5v2q-9 -1 -14 -1q-62 1 -95 38.5t-33 98.5q0 62 29.5 112t78.5 80t108 30q44 0 73.5 0.5t52 3t46.5 7.5q8 -10 8 -25q0 -12 -9 -23.5t-34 -11.5q-17 0 -37 5.5 t-40 10.5v-2q26 -15 40.5 -40.5t14.5 -68.5q0 -55 -21.5 -96.5t-53.5 -72t-63.5 -53t-53.5 -39.5t-22 -33t19.5 -27t36.5 -19q55 -26 87.5 -54.5t32.5 -69.5q0 -37 -27.5 -72.5t-79 -58.5t-122.5 -23zM325 367q0 43 -17 68t-48 25q-33 0 -62 -27t-46.5 -68t-17.5 -84 q0 -45 19 -68.5t50 -23.5q36 0 63.5 27.5t43 68.5t15.5 82z" />
<glyph unicode="&#x124;" horiz-adv-x="718" d="M348 770l-16 20q40 31 73.5 59t66.5 59l61 7q21 -31 45.5 -63t52.5 -62l-25 -20q-30 20 -59.5 43t-55.5 45q-33 -22 -69 -44.5t-74 -43.5zM142 0h-75l112 530q10 45 16.5 82.5t9.5 73.5l77 10l7 -8l-68 -318h335l34 160q10 45 16.5 82.5t9.5 73.5l77 10l6 -8l-146 -688 h-75l66 312h-335z" />
<glyph unicode="&#x125;" horiz-adv-x="550" d="M152 827l-17 19q41 31 74.5 59.5t66.5 59.5l61 6q20 -30 45 -62.5t53 -62.5l-25 -19q-31 20 -60 42.5t-55 45.5q-33 -22 -69 -45t-74 -43zM134 0h-73q0 36 5.5 82.5t18.5 117.5t37 180l49 229l8 137l82 10q0 -52 -10.5 -117t-26.5 -137.5t-33 -146.5h2q37 77 91.5 114 t105.5 37q46 0 70.5 -26t24.5 -72q0 -13 -1 -24t-4.5 -30t-11 -54.5t-21.5 -97.5q-10 -46 -15 -79.5t-6.5 -62t-1.5 -60.5h-73q0 71 12 132t22 110q13 58 18.5 89.5t5.5 51.5q0 29 -13 45t-43 16q-46 0 -85 -36.5t-68.5 -99.5t-46.5 -142.5t-19 -165.5z" />
<glyph unicode="&#x126;" horiz-adv-x="718" d="M142 0h-75l105 496h-80l9 44h81q8 42 14 77t9 69l77 10l7 -8l-32 -148h335q18 81 24 146l77 10l6 -8l-31 -148h76l-9 -44h-76l-106 -496h-75l66 312h-335zM221 370h335l27 126h-335z" />
<glyph unicode="&#x127;" horiz-adv-x="550" d="M134 0h-73q0 36 5.5 82.5t18.5 117.5t37 180l44 204h-79l9 44h76l7 118l82 10q0 -28 -3.5 -60t-9.5 -68h214l-9 -44h-212q-10 -54 -23.5 -112t-26.5 -117h2q37 77 91.5 114t105.5 37q46 0 70.5 -26t24.5 -72q0 -13 -1 -24t-4.5 -30t-11 -54.5t-21.5 -97.5 q-10 -46 -15 -79.5t-6.5 -62t-1.5 -60.5h-73q0 71 12 132t22 110q13 58 18.5 89.5t5.5 51.5q0 29 -13 45t-43 16q-46 0 -85 -36.5t-68.5 -99.5t-46.5 -142.5t-19 -165.5z" />
<glyph unicode="&#x128;" horiz-adv-x="308" d="M225 902q30 0 50.5 -14t39.5 -28t43 -14t42.5 16t35.5 38l22 -4q-8 -26 -25 -50.5t-40.5 -40t-51.5 -15.5q-29 0 -50.5 14t-41 28t-43.5 14q-22 0 -41.5 -15.5t-35.5 -37.5l-22 4q8 23 24 47.5t40 41t54 16.5zM142 0h-75l112 530q10 45 16.5 82.5t9.5 73.5l77 10l7 -8z " />
<glyph unicode="&#x129;" horiz-adv-x="255" d="M162 725q21 0 35.5 -14t27 -28t28.5 -14t30.5 15.5t27.5 38.5l21 -4q-6 -24 -20 -49.5t-34 -43t-43 -17.5q-21 0 -36 14t-28 28t-27 14q-16 0 -31 -15.5t-27 -38.5l-22 4q7 24 21 49.5t34 43t43 17.5zM134 0h-73q0 54 10 121t27 146l20 92l8 137l82 10q0 -54 -11.5 -117 t-26 -130t-25.5 -133t-11 -126z" />
<glyph unicode="&#x12a;" horiz-adv-x="308" d="M144 815l10 52h265l-11 -52h-264zM142 0h-75l112 530q10 45 16.5 82.5t9.5 73.5l77 10l7 -8z" />
<glyph unicode="&#x12b;" horiz-adv-x="255" d="M78 639l9 49h215l-9 -49h-215zM134 0h-73q0 54 10 121t27 146l20 92l8 137l82 10q0 -54 -11.5 -117t-26 -130t-25.5 -133t-11 -126z" />
<glyph unicode="&#x12c;" horiz-adv-x="308" d="M376 900h34q-21 -54 -63 -85.5t-94 -31.5q-49 0 -76.5 30t-23.5 83l34 4q4 -27 26.5 -43t57.5 -16q33 0 61.5 16t43.5 43zM142 0h-75l112 530q10 45 16.5 82.5t9.5 73.5l77 10l7 -8z" />
<glyph unicode="&#x12d;" horiz-adv-x="255" d="M278 735h34q-22 -64 -61 -101.5t-85 -37.5q-43 0 -65 36t-15 99l34 5q-1 -38 16 -60t48 -22q28 0 53 22.5t41 58.5zM134 0h-73q0 54 10 121t27 146l20 92l8 137l82 10q0 -54 -11.5 -117t-26 -130t-25.5 -133t-11 -126z" />
<glyph unicode="&#x12e;" horiz-adv-x="308" d="M142 0q-39 -32 -63.5 -66.5t-24.5 -66.5q0 -42 44 -42q10 0 24 2.5t34 9.5l5 -30q-44 -32 -97 -32q-37 0 -59 18.5t-22 51.5q0 39 29 79.5t81 75.5h-26l112 530q10 45 16.5 82.5t9.5 73.5l77 10l7 -8z" />
<glyph unicode="&#x12f;" horiz-adv-x="255" d="M252 685q0 -30 -21.5 -53.5t-48.5 -23.5q-19 0 -29 11.5t-10 28.5q0 28 22 51.5t49 23.5q18 0 28 -10.5t10 -27.5zM134 0q-38 -33 -61.5 -66.5t-23.5 -64.5q0 -20 11 -32t34 -12q9 0 23.5 2.5t33.5 9.5l6 -30q-44 -32 -97 -32q-37 0 -59 19t-22 53q0 38 27.5 77.5 t78.5 75.5h-24q0 54 10 121t27 146l20 92l8 137l82 10q0 -54 -11.5 -117t-26 -130t-25.5 -133t-11 -126z" />
<glyph unicode="&#x130;" horiz-adv-x="308" d="M339 864q0 -28 -21 -49t-50 -21q-20 0 -31.5 11t-11.5 27q0 26 22.5 47t50.5 21q20 0 30.5 -10t10.5 -26zM142 0h-75l112 530q10 45 16.5 82.5t9.5 73.5l77 10l7 -8z" />
<glyph unicode="&#x131;" horiz-adv-x="255" d="M134 0h-73q0 54 10 121t27 146l20 92l8 137l82 10q0 -54 -11.5 -117t-26 -130t-25.5 -133t-11 -126z" />
<glyph unicode="&#x132;" horiz-adv-x="592" d="M142 0h-75l112 530q10 45 16.5 82.5t9.5 73.5l77 10l7 -8zM248 -187l-16 35q45 29 81 81.5t53 136.5l99 464q8 42 13.5 76t9.5 78l79 12l6 -8l-131 -622q-21 -96 -65 -155.5t-129 -97.5z" />
<glyph unicode="&#x133;" horiz-adv-x="489" d="M252 685q0 -30 -21.5 -53.5t-48.5 -23.5q-19 0 -29 11.5t-10 28.5q0 28 22 51.5t49 23.5q18 0 28 -10.5t10 -27.5zM497 685q0 -30 -21.5 -53.5t-48.5 -23.5q-19 0 -29 11.5t-10 28.5q0 28 22 51.5t49 23.5q18 0 28 -10.5t10 -27.5zM134 0h-73q0 54 10 121t27 146l20 92 l8 137l82 10q0 -54 -11.5 -117t-26 -130t-25.5 -133t-11 -126zM194 -256l-25 30q44 34 72 82t43 116l82 387l8 137l82 10q0 -32 -5 -72t-16.5 -97.5t-30 -143t-44.5 -208.5q-18 -83 -55.5 -140.5t-110.5 -100.5z" />
<glyph unicode="&#x134;" horiz-adv-x="284" d="M124 768l-17 19q41 31 74.5 59.5t66.5 59.5l61 6q20 -30 45 -62.5t53 -62.5l-25 -19q-31 20 -60 42.5t-55 45.5q-33 -22 -69 -44.5t-74 -43.5zM-59 -187l-17 35q45 29 81 81.5t54 136.5l98 464q9 42 14.5 76t9.5 78l78 12l7 -8l-132 -622q-20 -96 -64.5 -155.5 t-128.5 -97.5z" />
<glyph unicode="&#x135;" horiz-adv-x="234" d="M90 580l-20 13q29 42 56 85.5t45 74.5l73 6q9 -40 19 -82.5t22 -83.5l-25 -13q-19 28 -34.5 57t-30.5 60q-25 -31 -51.5 -61t-53.5 -56zM-61 -256l-25 30q44 34 72 82t43 116l83 387l8 137l81 10q0 -32 -5 -72t-16.5 -97.5t-30 -143t-44.5 -208.5q-18 -83 -55.5 -140.5 t-110.5 -100.5z" />
<glyph unicode="&#x136;" horiz-adv-x="615" d="M180 530q9 44 15 80.5t10 75.5l75 10l7 -8l-68 -323h97q69 80 141 164t143 167l59 -12l5 -8l-289 -327l168 -349l-83 -9q-39 78 -77.5 157.5t-76.5 158.5h-100l-65 -307h-74zM159 -310q18 23 33.5 46.5t26.5 47.5q-17 0 -26 12t-8 30q2 22 20 44t46 22q19 0 29.5 -12 t8.5 -35q-2 -29 -19 -60.5t-41 -61t-48 -52.5z" />
<glyph unicode="&#x137;" horiz-adv-x="500" d="M480 425q0 -42 -27.5 -82t-69.5 -73.5t-86 -55.5q16 -32 39 -70t49 -75.5t53 -68.5h-92q-33 42 -65 98.5t-59 118.5q45 26 87 57t69 64.5t27 69.5q0 44 -42 44q-32 0 -64 -27t-61 -73.5t-52 -104.5t-36.5 -122t-15.5 -125h-73q0 36 5.5 82.5t18.5 117.5t37 180l49 229 l8 137l82 10q0 -56 -12.5 -129t-31.5 -155t-37 -164h2q40 98 98 148t116 50q42 0 63 -23t21 -58zM127 -310q18 23 34 46.5t27 47.5q-18 0 -27 12t-7 30q1 22 19 44t46 22q19 0 29.5 -12t8.5 -35q-2 -29 -19 -60.5t-41 -61t-47 -52.5z" />
<glyph unicode="&#x138;" horiz-adv-x="500" d="M346 0q-32 41 -57.5 87.5t-42.5 92t-24 84.5q-26 -45 -46 -92.5t-31 -92t-11 -79.5h-73q0 54 10 121t27 146l20 92l8 137l82 10q0 -66 -16.5 -144t-32.5 -159h3q34 93 78.5 161t94.5 105t102 37q22 0 43 -5.5t35 -13.5l-40 -69q-10 6 -27 12t-36 6q-33 0 -68.5 -26 t-68.5 -68q8 -49 30 -108t56 -119.5t77 -114.5h-92z" />
<glyph unicode="&#x139;" horiz-adv-x="510" d="M526 865l-6 -13q-61 -32 -125 -49.5t-132 -25.5l-3 23q60 23 119 50.5t108 59.5zM142 0h-75l113 531q10 45 16 82t9 73l77 10l7 -8zM446 63l-13 -63h-291l13 57z" />
<glyph unicode="&#x13a;" horiz-adv-x="254" d="M428 913l-6 -13q-61 -31 -124.5 -48.5t-132.5 -25.5l-3 22q60 24 119 51t108 59zM134 0h-73q0 36 5.5 82.5t18.5 117.5t37 180l49 229l8 137l82 10q0 -57 -13 -131.5t-32 -157.5t-38 -167t-31.5 -161t-12.5 -139z" />
<glyph unicode="&#x13b;" horiz-adv-x="510" d="M142 0h-75l113 531q10 45 16 82t9 73l77 10l7 -8zM446 63l-13 -63h-291l13 57zM107 -310q18 23 34 46.5t27 47.5q-18 0 -27 12t-7 30q1 22 19 44t46 22q19 0 29.5 -12t8.5 -35q-2 -29 -19 -60.5t-41 -61t-47 -52.5z" />
<glyph unicode="&#x13c;" horiz-adv-x="254" d="M134 0h-73q0 36 5.5 82.5t18.5 117.5t37 180l49 229l8 137l82 10q0 -57 -13 -131.5t-32 -157.5t-38 -167t-31.5 -161t-12.5 -139zM-9 -310q18 23 34 46.5t27 47.5q-17 0 -26 12t-8 30q2 22 19.5 44t45.5 22q19 0 30 -12t8 -35q-2 -29 -18.5 -60.5t-40.5 -61t-48 -52.5z " />
<glyph unicode="&#x13d;" horiz-adv-x="510" d="M514 741l5 -12q-22 -58 -53.5 -110.5t-69.5 -100.5l-25 4q26 57 46 110.5t32 103.5zM142 0h-75l113 531q10 45 16 82t9 73l77 10l7 -8zM446 63l-13 -63h-291l13 57z" />
<glyph unicode="&#x13e;" horiz-adv-x="254" d="M448 762l5 -11q-22 -59 -53 -111t-69 -101l-25 5q26 57 46 110t32 104zM134 0h-73q0 36 5.5 82.5t18.5 117.5t37 180l49 229l8 137l82 10q0 -57 -13 -131.5t-32 -157.5t-38 -167t-31.5 -161t-12.5 -139z" />
<glyph unicode="&#x13f;" horiz-adv-x="600" d="M142 0h-75l113 531q10 45 16 82t9 73l77 10l7 -8zM446 370q0 -28 -23 -51.5t-51 -23.5q-19 0 -31 11.5t-12 29.5q0 29 23.5 52t51.5 23q19 0 30.5 -11t11.5 -30zM446 63l-13 -63h-291l13 57z" />
<glyph unicode="&#x140;" horiz-adv-x="439" d="M134 0h-73q0 36 5.5 82.5t18.5 117.5t37 180l49 229l8 137l82 10q0 -57 -13 -131.5t-32 -157.5t-38 -167t-31.5 -161t-12.5 -139zM389 334q0 -28 -23 -51.5t-51 -23.5q-19 0 -31.5 11.5t-12.5 29.5q0 29 24 52t52 23q19 0 30.5 -11t11.5 -30z" />
<glyph unicode="&#x141;" horiz-adv-x="510" d="M142 0h-75l64 298l-128 -63l-13 40l152 75l38 181q10 45 16 82t9 73l77 10l7 -8l-63 -296l126 62l14 -39l-151 -75zM446 63l-13 -63h-291l13 57z" />
<glyph unicode="&#x142;" horiz-adv-x="254" d="M134 0h-73q0 36 5.5 82t18.5 115t35 174l-128 -63l-13 39l152 76l40 186l8 137l82 10q0 -57 -13.5 -132.5t-31.5 -158.5l125 62l14 -40l-151 -74q-17 -75 -33 -149t-26.5 -141.5t-10.5 -122.5z" />
<glyph unicode="&#x143;" horiz-adv-x="729" d="M616 865l-6 -13q-61 -32 -125 -49.5t-132 -25.5l-3 23q60 23 119 50.5t108 59.5zM406 397q24 -60 44 -109.5t36.5 -96t28.5 -98.5h2q4 25 7.5 47t8.5 49.5t13.5 69t21.5 104t32 154.5q11 48 18 88.5t11 80.5l74 10l7 -9l-146 -687h-76q-31 77 -60.5 151t-59.5 146 q-24 60 -43.5 108t-35 92.5t-29.5 93.5h-1q-9 -65 -20.5 -124.5t-24.5 -116.5l-74 -350h-73l113 532q19 85 25 154l81 9q31 -78 61 -152t59 -146z" />
<glyph unicode="&#x144;" horiz-adv-x="550" d="M457 743l2 -13q-42 -48 -89.5 -85.5t-104.5 -70.5l-21 13q40 40 80 83.5t69 86.5zM134 0h-73q1 82 17 166.5t40 192.5l8 137l82 10q0 -34 -5.5 -73t-14.5 -78h3q38 77 92.5 114t106.5 37q46 0 70.5 -25.5t24.5 -69.5q0 -31 -10 -79.5t-23 -109.5q-12 -52 -18 -87 t-8 -65.5t-2 -69.5h-73q0 56 8.5 109t23.5 127q10 49 16 84.5t6 58.5q0 30 -12.5 47.5t-41.5 17.5q-43 0 -81.5 -36t-68.5 -98t-47.5 -142t-19.5 -168z" />
<glyph unicode="&#x145;" horiz-adv-x="729" d="M406 397q24 -60 44 -109.5t36.5 -96t28.5 -98.5h2q4 25 7.5 47t8.5 49.5t13.5 69t21.5 104t32 154.5q11 48 18 88.5t11 80.5l74 10l7 -9l-146 -687h-76q-31 77 -60.5 151t-59.5 146q-24 60 -43.5 108t-35 92.5t-29.5 93.5h-1q-9 -65 -20.5 -124.5t-24.5 -116.5l-74 -350 h-73l113 532q19 85 25 154l81 9q31 -78 61 -152t59 -146zM211 -310q19 23 34.5 46.5t26.5 47.5q-17 0 -26 12t-8 30q2 22 19.5 44t45.5 22q20 0 30.5 -12t7.5 -35q-2 -29 -18.5 -60.5t-40.5 -61t-48 -52.5z" />
<glyph unicode="&#x146;" horiz-adv-x="550" d="M134 0h-73q1 82 17 166.5t40 192.5l8 137l82 10q0 -34 -5.5 -73t-14.5 -78h3q38 77 92.5 114t106.5 37q46 0 70.5 -25.5t24.5 -69.5q0 -31 -10 -79.5t-23 -109.5q-12 -52 -18 -87t-8 -65.5t-2 -69.5h-73q0 56 8.5 109t23.5 127q10 49 16 84.5t6 58.5q0 30 -12.5 47.5 t-41.5 17.5q-43 0 -81.5 -36t-68.5 -98t-47.5 -142t-19.5 -168zM139 -310q18 23 34 46.5t27 47.5q-18 0 -26.5 12t-7.5 30q2 22 19.5 44t45.5 22q19 0 30 -12t8 -35q-2 -29 -18.5 -60.5t-40.5 -61t-48 -52.5z" />
<glyph unicode="&#x147;" horiz-adv-x="729" d="M616 916l17 -20q-41 -31 -74.5 -59t-66.5 -59l-61 -7q-20 31 -45 63t-53 62l25 20q31 -20 60 -42.5t55 -45.5q33 22 69 44.5t74 43.5zM406 397q24 -60 44 -109.5t36.5 -96t28.5 -98.5h2q4 25 7.5 47t8.5 49.5t13.5 69t21.5 104t32 154.5q11 48 18 88.5t11 80.5l74 10 l7 -9l-146 -687h-76q-31 77 -60.5 151t-59.5 146q-24 60 -43.5 108t-35 92.5t-29.5 93.5h-1q-9 -65 -20.5 -124.5t-24.5 -116.5l-74 -350h-73l113 532q19 85 25 154l81 9q31 -78 61 -152t59 -146z" />
<glyph unicode="&#x148;" horiz-adv-x="550" d="M477 758l19 -18q-36 -38 -70.5 -76.5t-66.5 -79.5l-61 -6q-33 84 -78 162l27 18q27 -29 50 -58.5t44 -59.5q32 29 67 60t69 58zM134 0h-73q1 82 17 166.5t40 192.5l8 137l82 10q0 -34 -5.5 -73t-14.5 -78h3q38 77 92.5 114t106.5 37q46 0 70.5 -25.5t24.5 -69.5 q0 -31 -10 -79.5t-23 -109.5q-12 -52 -18 -87t-8 -65.5t-2 -69.5h-73q0 56 8.5 109t23.5 127q10 49 16 84.5t6 58.5q0 30 -12.5 47.5t-41.5 17.5q-43 0 -81.5 -36t-68.5 -98t-47.5 -142t-19.5 -168z" />
<glyph unicode="&#x14a;" horiz-adv-x="728" d="M384 -187l-16 35q39 24 70.5 59.5t48.5 94.5q-30 74 -60 149t-59 146q-26 64 -45.5 111.5t-34.5 89t-28 90.5h-1q-10 -65 -21 -122t-24 -116l-74 -350h-73l113 532q9 44 15 79t10 75l81 9q18 -47 39.5 -99.5t42 -103.5t37.5 -95q25 -61 45.5 -111t36.5 -95.5t28 -94.5h2 q3 23 6.5 44.5t9 49t13.5 69t21 103.5t33 154q11 54 17.5 91.5t11.5 78.5l74 10l7 -9l-133 -621q-22 -101 -67.5 -159.5t-125.5 -93.5z" />
<glyph unicode="&#x14b;" horiz-adv-x="531" d="M134 0h-73q0 40 5.5 85.5t17.5 110.5t34 163l8 137l82 10q0 -34 -5.5 -73t-14.5 -78h3q38 77 92.5 114t105.5 37q58 0 81.5 -42t8.5 -114l-42 -199q-18 -85 -32.5 -141.5t-31.5 -94.5t-42 -67.5t-64 -61.5l-25 30q27 34 52.5 82t39.5 116l61 283q15 75 7 111t-50 36 q-46 0 -85 -37t-68 -100.5t-46 -142.5t-19 -164z" />
<glyph unicode="&#x14c;" horiz-adv-x="693" d="M338 815l11 52h264l-11 -52h-264zM645 445q0 -82 -25.5 -163t-73 -147t-112 -105.5t-142.5 -39.5q-94 0 -149.5 63t-55.5 183q0 67 17 133t48.5 125t75.5 104.5t98 71.5t115 26q94 0 149 -65t55 -186zM166 242q0 -89 35.5 -140t105.5 -51q60 0 108 35.5t82 93.5t51.5 127 t17.5 136q0 90 -33.5 141.5t-103.5 51.5q-60 0 -108.5 -36t-83 -94.5t-53 -127.5t-18.5 -136z" />
<glyph unicode="&#x14d;" horiz-adv-x="512" d="M198 639l10 49h272l-10 -49h-272zM461 332q0 -61 -19 -121.5t-54.5 -110.5t-84 -80t-106.5 -30q-67 0 -106 43t-39 131q0 62 19.5 122.5t55 110.5t84 79.5t105.5 29.5q68 0 106.5 -44t38.5 -130zM129 163q0 -58 19.5 -90t63.5 -32q41 0 73 27.5t54 72t34 95.5t12 97 q0 122 -83 122q-41 0 -73 -27.5t-54.5 -71.5t-34 -95t-11.5 -98z" />
<glyph unicode="&#x14e;" horiz-adv-x="693" d="M571 900h33q-21 -54 -62.5 -85.5t-93.5 -31.5q-49 0 -77 30t-23 83l34 4q4 -27 26 -43t57 -16q33 0 61.5 16t44.5 43zM645 445q0 -82 -25.5 -163t-73 -147t-112 -105.5t-142.5 -39.5q-94 0 -149.5 63t-55.5 183q0 67 17 133t48.5 125t75.5 104.5t98 71.5t115 26 q94 0 149 -65t55 -186zM166 242q0 -89 35.5 -140t105.5 -51q60 0 108 35.5t82 93.5t51.5 127t17.5 136q0 90 -33.5 141.5t-103.5 51.5q-60 0 -108.5 -36t-83 -94.5t-53 -127.5t-18.5 -136z" />
<glyph unicode="&#x14f;" horiz-adv-x="512" d="M441 736h33q-23 -64 -66.5 -102t-94.5 -38q-50 0 -76 36t-20 99l35 5q1 -38 22 -59.5t56 -21.5q33 0 63 22t48 59zM461 332q0 -61 -19 -121.5t-54.5 -110.5t-84 -80t-106.5 -30q-67 0 -106 43t-39 131q0 62 19.5 122.5t55 110.5t84 79.5t105.5 29.5q68 0 106.5 -44 t38.5 -130zM129 163q0 -58 19.5 -90t63.5 -32q41 0 73 27.5t54 72t34 95.5t12 97q0 122 -83 122q-41 0 -73 -27.5t-54.5 -71.5t-34 -95t-11.5 -98z" />
<glyph unicode="&#x150;" horiz-adv-x="693" d="M484 865l-6 -13q-50 -32 -101 -49.5t-104 -25.5l-3 23q47 23 94.5 50.5t86.5 59.5zM683 865l-6 -13q-50 -32 -101 -49.5t-104 -25.5l-3 23q47 23 94 50.5t87 59.5zM645 445q0 -82 -25.5 -163t-73 -147t-112 -105.5t-142.5 -39.5q-94 0 -149.5 63t-55.5 183q0 67 17 133 t48.5 125t75.5 104.5t98 71.5t115 26q94 0 149 -65t55 -186zM166 242q0 -89 35.5 -140t105.5 -51q60 0 108 35.5t82 93.5t51.5 127t17.5 136q0 90 -33.5 141.5t-103.5 51.5q-60 0 -108.5 -36t-83 -94.5t-53 -127.5t-18.5 -136z" />
<glyph unicode="&#x151;" horiz-adv-x="512" d="M389 748l2 -14q-79 -91 -183 -157l-21 12q40 38 79.5 82t69.5 88zM521 748l2 -14q-40 -47 -85.5 -86t-96.5 -71l-21 12q39 38 78.5 82t69.5 88zM461 332q0 -61 -19 -121.5t-54.5 -110.5t-84 -80t-106.5 -30q-67 0 -106 43t-39 131q0 62 19.5 122.5t55 110.5t84 79.5 t105.5 29.5q68 0 106.5 -44t38.5 -130zM129 163q0 -58 19.5 -90t63.5 -32q41 0 73 27.5t54 72t34 95.5t12 97q0 122 -83 122q-41 0 -73 -27.5t-54.5 -71.5t-34 -95t-11.5 -98z" />
<glyph unicode="&#x152;" horiz-adv-x="936" d="M660 458q0 -45 -7 -90l208 2l-14 -59l-206 3q-21 -80 -63 -146t-98 -110l369 5l-13 -63h-470q-36 -10 -74 -10q-93 0 -150 60.5t-57 173.5q0 93 30 178t82 151t119 104.5t140 38.5q37 0 68 -10h441l7 -8l-13 -54l-349 4q50 -63 50 -170zM165 234q0 -85 37.5 -134 t108.5 -49q54 0 103 32t86.5 88.5t59.5 129.5t22 154q0 83 -35.5 132t-104.5 49q-55 0 -105 -33t-88.5 -89t-61 -128.5t-22.5 -151.5z" />
<glyph unicode="&#x153;" horiz-adv-x="779" d="M694 125l18 -27q-34 -52 -85 -80t-103 -28q-51 0 -89 26t-55 76q-34 -46 -81 -74t-102 -28q-67 0 -106 43t-39 131q0 62 19.5 122.5t55 110.5t84 79.5t105.5 29.5q51 0 85.5 -25.5t48.5 -75.5q36 45 83 73t100 28q54 0 87 -29t33 -80q0 -43 -29.5 -81.5t-96.5 -65 t-180 -32.5q-3 -22 -3 -41q0 -59 26.5 -96t77.5 -37q40 0 77.5 23.5t68.5 57.5zM620 456q-39 0 -72.5 -30t-58 -77.5t-36.5 -97.5q90 8 140 31.5t69.5 54t19.5 58.5q0 29 -17 45t-45 16zM129 163q0 -58 19.5 -90t63.5 -32q41 0 73 27.5t54 72t34 95.5t12 97q0 122 -83 122 q-41 0 -73 -27.5t-54.5 -71.5t-34 -95t-11.5 -98z" />
<glyph unicode="&#x154;" horiz-adv-x="589" d="M566 865l-6 -13q-62 -32 -125.5 -49.5t-131.5 -25.5l-3 23q59 23 118.5 50.5t108.5 59.5zM142 0h-75l113 532q10 44 16 80t9 74h162q99 0 153 -43.5t54 -118.5q0 -83 -51.5 -145t-137.5 -86l124 -293l-82 -10q-29 69 -57 140.5t-56 142.5h-114zM351 630h-74l-65 -302h71 q96 0 153.5 50.5t57.5 135.5q0 51 -33 83.5t-110 32.5z" />
<glyph unicode="&#x155;" horiz-adv-x="382" d="M389 743l1 -13q-42 -48 -89.5 -85.5t-103.5 -70.5l-22 13q40 40 80 83.5t69 86.5zM134 0h-73q0 54 10 121t27 146l20 92l8 137l82 10q0 -41 -7.5 -86.5t-17.5 -93.5h2q37 98 84 139t93 41q20 0 37 -6.5t27 -16.5l-39 -65q-25 13 -51 13q-42 0 -78.5 -38t-63.5 -101 t-43 -139.5t-17 -152.5z" />
<glyph unicode="&#x156;" horiz-adv-x="589" d="M142 0h-75l113 532q10 44 16 80t9 74h162q99 0 153 -43.5t54 -118.5q0 -83 -51.5 -145t-137.5 -86l124 -293l-82 -10q-29 69 -57 140.5t-56 142.5h-114zM351 630h-74l-65 -302h71q96 0 153.5 50.5t57.5 135.5q0 51 -33 83.5t-110 32.5zM141 -310q19 23 34.5 46.5 t26.5 47.5q-17 0 -26 12t-8 30q2 22 19.5 44t45.5 22q20 0 30.5 -12t7.5 -35q-2 -29 -18.5 -60.5t-40.5 -61t-48 -52.5z" />
<glyph unicode="&#x157;" horiz-adv-x="382" d="M134 0h-73q0 54 10 121t27 146l20 92l8 137l82 10q0 -41 -7.5 -86.5t-17.5 -93.5h2q37 98 84 139t93 41q20 0 37 -6.5t27 -16.5l-39 -65q-25 13 -51 13q-42 0 -78.5 -38t-63.5 -101t-43 -139.5t-17 -152.5zM-11 -310q19 23 34.5 46.5t26.5 47.5q-17 0 -26 12t-8 30 q2 22 19.5 44t45.5 22q20 0 30.5 -12t7.5 -35q-2 -29 -18.5 -60.5t-40.5 -61t-48 -52.5z" />
<glyph unicode="&#x158;" horiz-adv-x="589" d="M566 916l17 -20q-41 -31 -74.5 -59t-66.5 -59l-61 -7q-20 31 -45 63t-53 62l25 20q30 -20 59.5 -42.5t55.5 -45.5q33 22 69 44.5t74 43.5zM142 0h-75l113 532q10 44 16 80t9 74h162q99 0 153 -43.5t54 -118.5q0 -83 -51.5 -145t-137.5 -86l124 -293l-82 -10 q-29 69 -57 140.5t-56 142.5h-114zM351 630h-74l-65 -302h71q96 0 153.5 50.5t57.5 135.5q0 51 -33 83.5t-110 32.5z" />
<glyph unicode="&#x159;" horiz-adv-x="382" d="M408 758l20 -18q-36 -38 -70.5 -76.5t-66.5 -79.5l-62 -6q-33 84 -78 162l27 18q27 -29 50 -58.5t45 -59.5q31 29 66 60t69 58zM134 0h-73q0 54 10 121t27 146l20 92l8 137l82 10q0 -41 -7.5 -86.5t-17.5 -93.5h2q37 98 84 139t93 41q20 0 37 -6.5t27 -16.5l-39 -65 q-25 13 -51 13q-42 0 -78.5 -38t-63.5 -101t-43 -139.5t-17 -152.5z" />
<glyph unicode="&#x15a;" horiz-adv-x="508" d="M514 865l-6 -13q-61 -32 -125 -49.5t-132 -25.5l-3 23q60 23 119 50.5t108 59.5zM438 197q0 -60 -33 -106.5t-92.5 -73.5t-136.5 -27q-40 0 -86 8t-81 28l23 68q35 -24 81 -33t76 -9q50 0 88 18t60 48.5t22 68.5q0 36 -19 61t-47 43.5t-55 34.5q-30 17 -58.5 38 t-46.5 50.5t-18 74.5q0 58 33.5 105t93 74.5t136.5 27.5q42 0 83 -8.5t66 -22.5l-26 -69q-31 22 -68.5 30t-67.5 8q-49 0 -87.5 -17t-60.5 -47t-22 -67q0 -35 18.5 -59t47 -42t60.5 -37q27 -17 54 -38.5t45 -53t18 -76.5z" />
<glyph unicode="&#x15b;" horiz-adv-x="430" d="M376 743l2 -13q-42 -48 -89.5 -85.5t-104.5 -70.5l-21 13q40 40 80 83.5t69 86.5zM393 480l-22 -62q-24 15 -52 24.5t-58 9.5q-48 0 -78 -24.5t-30 -60.5q0 -30 20 -49t49.5 -34t59 -32t50 -42.5t20.5 -65.5q0 -44 -26.5 -79t-71 -55t-100.5 -20q-34 0 -71 8t-65 26 l22 61q29 -21 65 -31t63 -10q47 0 78.5 25t31.5 62q0 30 -20 48.5t-50 33t-59.5 31.5t-50 42t-20.5 65q0 47 27.5 81.5t73 54t98.5 19.5q32 0 62 -7t54 -19z" />
<glyph unicode="&#x15c;" horiz-adv-x="508" d="M247 770l-16 20q40 31 74 59t66 59l62 7q20 -31 44.5 -63t52.5 -62l-25 -20q-30 20 -59 43t-56 45q-33 -22 -69 -44.5t-74 -43.5zM438 197q0 -60 -33 -106.5t-92.5 -73.5t-136.5 -27q-40 0 -86 8t-81 28l23 68q35 -24 81 -33t76 -9q50 0 88 18t60 48.5t22 68.5 q0 36 -19 61t-47 43.5t-55 34.5q-30 17 -58.5 38t-46.5 50.5t-18 74.5q0 58 33.5 105t93 74.5t136.5 27.5q42 0 83 -8.5t66 -22.5l-26 -69q-31 22 -68.5 30t-67.5 8q-49 0 -87.5 -17t-60.5 -47t-22 -67q0 -35 18.5 -59t47 -42t60.5 -37q27 -17 54 -38.5t45 -53t18 -76.5z " />
<glyph unicode="&#x15d;" horiz-adv-x="430" d="M152 573l-20 17q36 38 70.5 77t66.5 80l62 6q33 -84 78 -163l-27 -17q-27 29 -50 58.5t-45 59.5q-31 -29 -66 -60.5t-69 -57.5zM393 480l-22 -62q-24 15 -52 24.5t-58 9.5q-48 0 -78 -24.5t-30 -60.5q0 -30 20 -49t49.5 -34t59 -32t50 -42.5t20.5 -65.5q0 -44 -26.5 -79 t-71 -55t-100.5 -20q-34 0 -71 8t-65 26l22 61q29 -21 65 -31t63 -10q47 0 78.5 25t31.5 62q0 30 -20 48.5t-50 33t-59.5 31.5t-50 42t-20.5 65q0 47 27.5 81.5t73 54t98.5 19.5q32 0 62 -7t54 -19z" />
<glyph unicode="&#x15e;" horiz-adv-x="508" d="M270 -117q0 -30 -25 -53t-64 -36.5t-83 -16.5l4 31q48 8 76.5 24t28.5 40q0 16 -17 23.5t-41 9.5l-7 15l37 70h-3q-40 0 -86 8t-81 28l23 68q35 -24 81 -33t76 -9q50 0 88 18t60 48.5t22 68.5q0 36 -19 61t-47 43.5t-55 34.5q-30 17 -58.5 38t-46.5 50.5t-18 74.5 q0 58 33.5 105t93 74.5t136.5 27.5q42 0 83 -8.5t66 -22.5l-26 -69q-31 22 -68.5 30t-67.5 8q-49 0 -87.5 -17t-60.5 -47t-22 -67q0 -35 18.5 -59t47 -42t60.5 -37q27 -17 54 -38.5t45 -53t18 -76.5q0 -53 -26.5 -96t-74.5 -71.5t-112 -36.5l-28 -52q31 -5 52 -18.5 t21 -39.5z" />
<glyph unicode="&#x15f;" horiz-adv-x="430" d="M244 -117q0 -30 -25 -53t-64 -36.5t-83 -16.5l4 31q48 8 76.5 24t28.5 40q0 16 -17 23.5t-41 9.5l-7 15l37 70q-33 0 -70 8t-65 26l22 61q29 -21 65 -31t63 -10q47 0 78.5 25t31.5 62q0 30 -20 48.5t-50 33t-59.5 31.5t-50 42t-20.5 65q0 47 27.5 81.5t73 54t98.5 19.5 q32 0 62 -7t54 -19l-22 -62q-24 15 -52 24.5t-58 9.5q-48 0 -78 -24.5t-30 -60.5q0 -30 20 -49t49.5 -34t59 -32t50 -42.5t20.5 -65.5q0 -57 -43 -98t-110 -52l-28 -53q31 -5 52 -18.5t21 -39.5z" />
<glyph unicode="&#x160;" horiz-adv-x="508" d="M514 916l17 -20q-41 -31 -74.5 -59t-66.5 -59l-61 -7q-20 31 -45 63t-53 62l25 20q31 -20 60 -42.5t55 -45.5q33 22 69 44.5t74 43.5zM438 197q0 -60 -33 -106.5t-92.5 -73.5t-136.5 -27q-40 0 -86 8t-81 28l23 68q35 -24 81 -33t76 -9q50 0 88 18t60 48.5t22 68.5 q0 36 -19 61t-47 43.5t-55 34.5q-30 17 -58.5 38t-46.5 50.5t-18 74.5q0 58 33.5 105t93 74.5t136.5 27.5q42 0 83 -8.5t66 -22.5l-26 -69q-31 22 -68.5 30t-67.5 8q-49 0 -87.5 -17t-60.5 -47t-22 -67q0 -35 18.5 -59t47 -42t60.5 -37q27 -17 54 -38.5t45 -53t18 -76.5z " />
<glyph unicode="&#x161;" horiz-adv-x="430" d="M396 758l19 -18q-36 -38 -70.5 -76.5t-66.5 -79.5l-61 -6q-34 84 -78 162l27 18q27 -29 50 -58.5t44 -59.5q31 29 66.5 60t69.5 58zM393 480l-22 -62q-24 15 -52 24.5t-58 9.5q-48 0 -78 -24.5t-30 -60.5q0 -30 20 -49t49.5 -34t59 -32t50 -42.5t20.5 -65.5 q0 -44 -26.5 -79t-71 -55t-100.5 -20q-34 0 -71 8t-65 26l22 61q29 -21 65 -31t63 -10q47 0 78.5 25t31.5 62q0 30 -20 48.5t-50 33t-59.5 31.5t-50 42t-20.5 65q0 47 27.5 81.5t73 54t98.5 19.5q32 0 62 -7t54 -19z" />
<glyph unicode="&#x162;" horiz-adv-x="511" d="M240 0h-15l-31 -59q30 -5 51 -18.5t21 -39.5q0 -30 -24.5 -53t-64 -36.5t-82.5 -16.5l3 31q48 8 77 24t29 40q0 16 -17.5 23.5t-41.5 9.5l-6 15l42 80h-16l134 628q-52 -1 -105 -2.5t-106 -3.5l18 64h484l-9 -64q-52 2 -103.5 3.5t-103.5 2.5z" />
<glyph unicode="&#x163;" horiz-adv-x="352" d="M222 -117q0 -30 -24.5 -53t-64 -36.5t-82.5 -16.5l3 31q49 8 77.5 24t28.5 40q0 16 -17.5 23.5t-40.5 9.5l-7 15l39 74q-66 15 -66 96q0 11 1.5 23t5.5 33.5t11.5 58.5t20.5 97t32 150h-73l7 34l76 10l43 117l49 5l7 -9l-27 -113h135l5 -8l-11 -38l-139 1 q-22 -106 -35.5 -169t-20.5 -96.5t-9.5 -49t-2.5 -27.5q0 -34 15.5 -48t44.5 -14q21 0 43 6.5t42 18.5l-2 -51q-21 -12 -49.5 -21t-60.5 -10l-26 -49q30 -5 51 -18.5t21 -39.5z" />
<glyph unicode="&#x164;" horiz-adv-x="511" d="M515 916l17 -20q-41 -31 -74.5 -59t-66.5 -59l-61 -7q-20 31 -45 63t-53 62l25 20q31 -20 60 -42.5t55 -45.5q33 22 69 44.5t74 43.5zM240 0h-75l134 628q-52 -1 -105 -2.5t-106 -3.5l18 64h484l-9 -64q-52 2 -103.5 3.5t-103.5 2.5z" />
<glyph unicode="&#x165;" horiz-adv-x="352" d="M463 754l5 -12q-22 -58 -53.5 -110.5t-68.5 -100.5l-26 4q26 57 46 110.5t32 103.5zM350 450l-139 1q-22 -106 -35.5 -169t-20.5 -96.5t-9.5 -49t-2.5 -27.5q0 -34 15.5 -48t44.5 -14q21 0 43 6.5t42 18.5l-2 -51q-22 -13 -52.5 -22t-63.5 -9q-50 0 -76 24t-26 76 q0 11 1.5 23t5.5 33.5t11.5 58.5t20.5 97t32 150h-73l7 34l76 10l43 117l49 5l7 -9l-27 -113h135l5 -8z" />
<glyph unicode="&#x166;" horiz-adv-x="511" d="M240 0h-75l68 321h-145l9 44h146l56 263q-52 -1 -105 -2.5t-106 -3.5l18 64h484l-9 -64q-52 2 -103.5 3.5t-103.5 2.5l-56 -263h145l-9 -44h-145z" />
<glyph unicode="&#x167;" horiz-adv-x="352" d="M316 283h-141q-13 -65 -20 -98t-9.5 -48.5t-2.5 -27.5q0 -34 15.5 -48t44.5 -14q21 0 43 6.5t42 18.5l-2 -51q-22 -13 -52.5 -22t-63.5 -9q-50 0 -76 24t-26 76q0 10 1 21.5t4.5 31t10.5 53t19 87.5h-70l7 43h72q6 28 13 59t14 67h-73l7 34l76 10l43 117l49 5l7 -9 l-27 -113h135l5 -8l-11 -38l-139 1q-7 -36 -14 -67t-12 -58h138z" />
<glyph unicode="&#x168;" horiz-adv-x="652" d="M401 902q29 0 49.5 -14t39.5 -28t43 -14t43 16t35 38l22 -4q-8 -26 -25 -50.5t-40 -40t-52 -15.5t-50.5 14t-41 28t-42.5 14q-22 0 -41.5 -15.5t-36.5 -37.5l-22 4q8 23 24 47.5t40 41t55 16.5zM82 160q0 27 8.5 73.5t21.5 104.5t27 120t24.5 121.5t13.5 108.5l83 8l4 -5 q-30 -139 -49.5 -228.5t-30.5 -142.5t-16.5 -80t-7 -39.5t-1.5 -22.5q0 -62 37 -93.5t95 -31.5q69 0 125 43.5t74 129.5q23 108 38 179t24.5 116t14.5 73.5t7 49t4 44.5l85 8l-100 -471q-17 -78 -60.5 -130.5t-104 -78.5t-126.5 -26q-83 0 -136.5 43t-53.5 127z" />
<glyph unicode="&#x169;" horiz-adv-x="526" d="M279 722q27 0 47 -14t38 -28t40 -14q20 0 37.5 16t33.5 38l23 -4q-9 -26 -25 -51.5t-38.5 -42.5t-48.5 -17q-27 0 -47.5 14t-39.5 28.5t-39 14.5q-19 0 -37 -16t-35 -38l-22 4q8 24 24 49.5t38.5 43t50.5 17.5zM67 146l44 213l8 137l82 10q0 -72 -16 -147t-30 -150 q-14 -74 -10.5 -115t49.5 -41q39 0 72.5 28.5t59.5 79t44 114.5q10 46 17.5 88.5t11.5 81.5q2 26 3 51l75 10q-2 -74 -19 -152.5t-36 -178.5q-9 -43 -14.5 -86.5t-5.5 -88.5h-73q0 34 3.5 67t9.5 67q-36 -74 -86.5 -109t-98.5 -35q-57 0 -81 42.5t-9 113.5z" />
<glyph unicode="&#x16a;" horiz-adv-x="652" d="M319 815l11 52h264l-11 -52h-264zM82 160q0 27 8.5 73.5t21.5 104.5t27 120t24.5 121.5t13.5 108.5l83 8l4 -5q-30 -139 -49.5 -228.5t-30.5 -142.5t-16.5 -80t-7 -39.5t-1.5 -22.5q0 -62 37 -93.5t95 -31.5q69 0 125 43.5t74 129.5q23 108 38 179t24.5 116t14.5 73.5 t7 49t4 44.5l85 8l-100 -471q-17 -78 -60.5 -130.5t-104 -78.5t-126.5 -26q-83 0 -136.5 43t-53.5 127z" />
<glyph unicode="&#x16b;" horiz-adv-x="526" d="M192 639l10 49h272l-10 -49h-272zM67 146l44 213l8 137l82 10q0 -72 -16 -147t-30 -150q-14 -74 -10.5 -115t49.5 -41q39 0 72.5 28.5t59.5 79t44 114.5q10 46 17.5 88.5t11.5 81.5q2 26 3 51l75 10q-2 -74 -19 -152.5t-36 -178.5q-9 -43 -14.5 -86.5t-5.5 -88.5h-73 q0 34 3.5 67t9.5 67q-36 -74 -86.5 -109t-98.5 -35q-57 0 -81 42.5t-9 113.5z" />
<glyph unicode="&#x16c;" horiz-adv-x="652" d="M552 900h33q-21 -54 -62.5 -85.5t-94.5 -31.5q-49 0 -76.5 30t-23.5 83l35 4q3 -27 25.5 -43t57.5 -16q33 0 61.5 16t44.5 43zM82 160q0 27 8.5 73.5t21.5 104.5t27 120t24.5 121.5t13.5 108.5l83 8l4 -5q-30 -139 -49.5 -228.5t-30.5 -142.5t-16.5 -80t-7 -39.5 t-1.5 -22.5q0 -62 37 -93.5t95 -31.5q69 0 125 43.5t74 129.5q23 108 38 179t24.5 116t14.5 73.5t7 49t4 44.5l85 8l-100 -471q-17 -78 -60.5 -130.5t-104 -78.5t-126.5 -26q-83 0 -136.5 43t-53.5 127z" />
<glyph unicode="&#x16d;" horiz-adv-x="526" d="M434 736h34q-23 -64 -66.5 -102t-94.5 -38q-50 0 -76 36t-20 99l34 5q2 -38 23 -59.5t56 -21.5q33 0 62.5 22t47.5 59zM67 146l44 213l8 137l82 10q0 -72 -16 -147t-30 -150q-14 -74 -10.5 -115t49.5 -41q39 0 72.5 28.5t59.5 79t44 114.5q10 46 17.5 88.5t11.5 81.5 q2 26 3 51l75 10q-2 -74 -19 -152.5t-36 -178.5q-9 -43 -14.5 -86.5t-5.5 -88.5h-73q0 34 3.5 67t9.5 67q-36 -74 -86.5 -109t-98.5 -35q-57 0 -81 42.5t-9 113.5z" />
<glyph unicode="&#x16e;" horiz-adv-x="652" d="M549 863q0 -27 -16.5 -51t-43 -39t-55.5 -15q-30 0 -50 17.5t-20 44.5q0 26 17 49.5t43.5 38.5t55.5 15q32 0 50.5 -17t18.5 -43zM408 827q0 -16 10 -25.5t26 -9.5q24 0 42.5 19t18.5 44q0 15 -9 24.5t-27 9.5q-24 0 -42.5 -19t-18.5 -43zM82 160q0 27 8.5 73.5 t21.5 104.5t27 120t24.5 121.5t13.5 108.5l83 8l4 -5q-30 -139 -49.5 -228.5t-30.5 -142.5t-16.5 -80t-7 -39.5t-1.5 -22.5q0 -62 37 -93.5t95 -31.5q69 0 125 43.5t74 129.5q23 108 38 179t24.5 116t14.5 73.5t7 49t4 44.5l85 8l-100 -471q-17 -78 -60.5 -130.5t-104 -78.5 t-126.5 -26q-83 0 -136.5 43t-53.5 127z" />
<glyph unicode="&#x16f;" horiz-adv-x="526" d="M424 677q0 -27 -16.5 -51t-43 -39t-55.5 -15q-30 0 -50 17.5t-20 44.5q0 26 17 49.5t43.5 38.5t56.5 15q31 0 49.5 -17t18.5 -43zM283 641q0 -16 10 -25.5t26 -9.5q24 0 42.5 19.5t18.5 43.5q0 15 -9 24.5t-27 9.5q-24 0 -42.5 -19t-18.5 -43zM67 146l44 213l8 137l82 10 q0 -72 -16 -147t-30 -150q-14 -74 -10.5 -115t49.5 -41q39 0 72.5 28.5t59.5 79t44 114.5q10 46 17.5 88.5t11.5 81.5q2 26 3 51l75 10q-2 -74 -19 -152.5t-36 -178.5q-9 -43 -14.5 -86.5t-5.5 -88.5h-73q0 34 3.5 67t9.5 67q-36 -74 -86.5 -109t-98.5 -35q-57 0 -81 42.5 t-9 113.5z" />
<glyph unicode="&#x170;" horiz-adv-x="652" d="M465 865l-6 -13q-50 -32 -101 -49.5t-104 -25.5l-3 23q47 23 94 50.5t87 59.5zM664 865l-6 -13q-50 -32 -101 -49.5t-105 -25.5l-3 23q48 23 95 50.5t87 59.5zM82 160q0 27 8.5 73.5t21.5 104.5t27 120t24.5 121.5t13.5 108.5l83 8l4 -5q-30 -139 -49.5 -228.5 t-30.5 -142.5t-16.5 -80t-7 -39.5t-1.5 -22.5q0 -62 37 -93.5t95 -31.5q69 0 125 43.5t74 129.5q23 108 38 179t24.5 116t14.5 73.5t7 49t4 44.5l85 8l-100 -471q-17 -78 -60.5 -130.5t-104 -78.5t-126.5 -26q-83 0 -136.5 43t-53.5 127z" />
<glyph unicode="&#x171;" horiz-adv-x="526" d="M383 748l1 -14q-78 -91 -182 -157l-21 12q40 38 79.5 82t69.5 88zM515 748l2 -14q-40 -47 -85.5 -86t-96.5 -71l-22 12q40 38 79.5 82t69.5 88zM67 146l44 213l8 137l82 10q0 -72 -16 -147t-30 -150q-14 -74 -10.5 -115t49.5 -41q39 0 72.5 28.5t59.5 79t44 114.5 q10 46 17.5 88.5t11.5 81.5q2 26 3 51l75 10q-2 -74 -19 -152.5t-36 -178.5q-9 -43 -14.5 -86.5t-5.5 -88.5h-73q0 34 3.5 67t9.5 67q-36 -74 -86.5 -109t-98.5 -35q-57 0 -81 42.5t-9 113.5z" />
<glyph unicode="&#x172;" horiz-adv-x="652" d="M82 160q0 27 8.5 73.5t21.5 104.5t27 120t24.5 121.5t13.5 108.5l83 8l4 -5q-30 -139 -49.5 -228.5t-30.5 -142.5t-16.5 -80t-7 -39.5t-1.5 -22.5q0 -62 37 -93.5t95 -31.5q69 0 125 43.5t74 129.5q23 108 38 179t24.5 116t14.5 73.5t7 49t4 44.5l85 8l-100 -471 q-17 -80 -62.5 -132.5t-106.5 -78.5q-65 -35 -104 -73.5t-39 -77.5q0 -17 10.5 -27.5t32.5 -10.5q11 0 25.5 2.5t33.5 9.5l6 -30q-44 -32 -97 -32q-38 0 -59.5 17t-21.5 49q0 39 30.5 77.5t88.5 72.5q-14 -1 -28 -1q-83 0 -136.5 43t-53.5 127z" />
<glyph unicode="&#x173;" horiz-adv-x="526" d="M67 146l44 213l8 137l82 10q0 -72 -16 -147t-30 -150q-14 -74 -10.5 -115t49.5 -41q39 0 72.5 28.5t59.5 79t44 114.5q10 46 17.5 88.5t11.5 81.5q2 26 3 51l75 10q-2 -74 -19 -152.5t-36 -178.5q-9 -43 -14.5 -86.5t-5.5 -88.5q-63 -31 -101.5 -67t-38.5 -73 q0 -35 44 -35q11 0 25 2.5t33 9.5l6 -30q-44 -32 -97 -32q-37 0 -59 16.5t-22 46.5q0 43 40 85.5t112 76.5h-15q0 34 3.5 67t9.5 67q-36 -74 -86.5 -109t-98.5 -35q-57 0 -81 42.5t-9 113.5z" />
<glyph unicode="&#x174;" horiz-adv-x="958" d="M472 770l-17 20q41 31 74.5 59t66.5 59l61 7q20 -31 45 -63t53 -62l-25 -20q-31 20 -60 43t-55 45q-33 -22 -69 -44.5t-74 -43.5zM180 -4l-66 692l78 8l36 -408q6 -58 8.5 -109t0.5 -98q18 46 48.5 106.5t57.5 115.5l200 388l72 5l36 -408q6 -58 9 -109t2 -98 q19 52 47.5 108.5t56.5 111.5l202 395l57 -6l5 -8l-356 -686h-67l-44 429q-3 39 -5.5 80t-3.5 87h-2q-22 -50 -41.5 -89t-39.5 -78l-224 -429h-67z" />
<glyph unicode="&#x175;" horiz-adv-x="667" d="M279 573l-20 17q36 38 70.5 77t66.5 80l62 6q33 -84 78 -163l-27 -17q-27 29 -50 58.5t-45 59.5q-31 -29 -66 -60.5t-69 -57.5zM639 506q35 0 35 -27q0 -33 -17 -88t-47.5 -122.5t-71 -137t-86.5 -131.5h-79q4 107 2.5 205t-7.5 190h-1q-16 -61 -44.5 -130t-66 -137 t-80.5 -128h-78q1 150 -8.5 275.5t-24.5 220.5l76 8q14 -86 21.5 -196t2.5 -240h1q44 70 79 144t58 146.5t30 137.5h85q14 -83 20.5 -192t1.5 -236h2q43 70 78 145.5t58 149t30 138.5q9 3 17 4t14 1z" />
<glyph unicode="&#x176;" horiz-adv-x="539" d="M267 770l-16 20q41 31 74.5 59t65.5 59l62 7q20 -31 44.5 -63t53.5 -62l-26 -20q-30 20 -59 43t-55 45q-33 -22 -69 -44.5t-75 -43.5zM232 247l-118 442l80 7l62 -246q7 -34 17 -74.5t12 -76.5h2q19 36 47 77.5t49 74.5l164 245l59 -6l5 -8l-305 -438l-52 -244h-75z" />
<glyph unicode="&#x177;" horiz-adv-x="427" d="M162 573l-20 17q36 38 70.5 77t66.5 80l62 6q33 -84 78 -163l-27 -17q-27 29 -50 58.5t-44 59.5q-32 -29 -67 -60.5t-69 -57.5zM399 506q34 0 34 -27q0 -34 -19.5 -90t-53.5 -125t-79 -141.5t-95 -140t-101.5 -121.5t-100 -85.5t-88.5 -31.5q-24 0 -37 11.5t-13 31.5 q0 10 3.5 18.5t7.5 14.5q12 -2 24.5 -3t21.5 -1q43 0 87 28.5t83 71t67 84.5h-22q-1 137 -14.5 263t-38.5 233l75 10q49 -204 44 -434h1q45 69 84 143.5t65.5 148t33.5 137.5q9 3 17 4t14 1z" />
<glyph unicode="&#x178;" horiz-adv-x="539" d="M554 857q0 -26 -20.5 -47t-46.5 -21q-18 0 -28 10.5t-10 25.5q0 25 21 45.5t47 20.5q17 0 27 -9.5t10 -24.5zM352 857q0 -26 -20.5 -47t-46.5 -21q-18 0 -28 10.5t-10 25.5q0 25 21 45.5t47 20.5q17 0 27 -9.5t10 -24.5zM232 247l-118 442l80 7l62 -246q7 -34 17 -74.5 t12 -76.5h2q19 36 47 77.5t49 74.5l164 245l59 -6l5 -8l-305 -438l-52 -244h-75z" />
<glyph unicode="&#x179;" horiz-adv-x="514" d="M517 865l-6 -13q-61 -32 -125 -49.5t-132 -25.5l-3 23q60 23 119 50.5t108 59.5zM-15 0l-2 47l492 577l-359 -4l19 66h424l8 -47l-491 -577l373 5l-18 -67h-446z" />
<glyph unicode="&#x17a;" horiz-adv-x="416" d="M360 743l1 -13q-42 -48 -89.5 -85.5t-103.5 -70.5l-21 13q40 40 79.5 83.5t68.5 86.5zM10 -10l-27 37q76 83 136 150.5t108 125.5t88 112q-44 18 -81 24.5t-57 6.5q-30 0 -56.5 -13t-48.5 -45l-27 14q26 63 59 83.5t75 20.5q71 0 166 -49q17 25 32 49q15 0 26 -6.5 t11 -19.5q0 -17 -26 -57.5t-71.5 -97.5t-105 -123.5t-127.5 -135.5q11 3 25 3q32 0 69 -9t65 -9t53 14t50 48l29 -14q-29 -66 -62 -87.5t-79 -21.5q-47 0 -91 11.5t-79 11.5q-16 0 -27.5 -5t-26.5 -18z" />
<glyph unicode="&#x17b;" horiz-adv-x="514" d="M441 864q0 -28 -21 -49t-50 -21q-20 0 -31 11t-11 27q0 26 22 47t50 21q20 0 30.5 -10t10.5 -26zM-15 0l-2 47l492 577l-359 -4l19 66h424l8 -47l-491 -577l373 5l-18 -67h-446z" />
<glyph unicode="&#x17c;" horiz-adv-x="416" d="M310 685q0 -30 -21.5 -53.5t-49.5 -23.5q-19 0 -29 11.5t-10 28.5q0 28 22 51.5t49 23.5q19 0 29 -10.5t10 -27.5zM10 -10l-27 37q76 83 136 150.5t108 125.5t88 112q-44 18 -81 24.5t-57 6.5q-30 0 -56.5 -13t-48.5 -45l-27 14q26 63 59 83.5t75 20.5q71 0 166 -49 q17 25 32 49q15 0 26 -6.5t11 -19.5q0 -17 -26 -57.5t-71.5 -97.5t-105 -123.5t-127.5 -135.5q11 3 25 3q32 0 69 -9t65 -9t53 14t50 48l29 -14q-29 -66 -62 -87.5t-79 -21.5q-47 0 -91 11.5t-79 11.5q-16 0 -27.5 -5t-26.5 -18z" />
<glyph unicode="&#x17d;" horiz-adv-x="514" d="M517 916l17 -20q-41 -31 -74.5 -59t-66.5 -59l-61 -7q-20 31 -45 63t-53 62l25 20q31 -20 60 -42.5t55 -45.5q33 22 69 44.5t74 43.5zM-15 0l-2 47l492 577l-359 -4l19 66h424l8 -47l-491 -577l373 5l-18 -67h-446z" />
<glyph unicode="&#x17e;" horiz-adv-x="416" d="M379 758l20 -18q-36 -38 -70.5 -76.5t-66.5 -79.5l-62 -6q-33 84 -78 162l27 18q27 -29 50 -58.5t45 -59.5q31 29 66 60t69 58zM10 -10l-27 37q76 83 136 150.5t108 125.5t88 112q-44 18 -81 24.5t-57 6.5q-30 0 -56.5 -13t-48.5 -45l-27 14q26 63 59 83.5t75 20.5 q71 0 166 -49q17 25 32 49q15 0 26 -6.5t11 -19.5q0 -17 -26 -57.5t-71.5 -97.5t-105 -123.5t-127.5 -135.5q11 3 25 3q32 0 69 -9t65 -9t53 14t50 48l29 -14q-29 -66 -62 -87.5t-79 -21.5q-47 0 -91 11.5t-79 11.5q-16 0 -27.5 -5t-26.5 -18z" />
<glyph unicode="&#x18f;" horiz-adv-x="662" d="M113 370l22 20h394v27q0 117 -45.5 167.5t-121.5 50.5q-47 0 -91.5 -15t-81.5 -36l9 61q26 16 78 33.5t114 17.5q103 0 162.5 -64t59.5 -197q0 -91 -27 -171.5t-75.5 -142t-112.5 -96.5t-137 -35q-88 0 -137 52t-49 148q0 40 7.5 76t16.5 63.5t15 40.5zM152 201 q0 -74 32.5 -113t93.5 -39q62 0 114 39t86.5 106t45.5 150l-346 -11q-11 -28 -18.5 -61.5t-7.5 -70.5z" />
<glyph unicode="&#x192;" horiz-adv-x="460" d="M176 297l-113 3l11 34l112 10h1l20 87q18 78 47 138t73.5 93.5t111.5 33.5q64 0 107 -28l-35 -62q-16 13 -38 22.5t-43 9.5q-58 0 -91 -49.5t-60 -165.5l-18 -79h178l4 -8l-16 -39h-177l-76 -328q-7 -28 -19 -66t-35 -74.5t-60.5 -60.5t-95.5 -24q-54 0 -96 24l28 62 q15 -12 36 -20t45 -8q40 0 63 23t36 58t21 71l79 343v0z" />
<glyph unicode="&#x19d;" horiz-adv-x="705" d="M-60 -187l-16 35q45 29 80.5 81.5t53.5 136.5l99 466q9 40 15.5 79t9.5 75l81 9q19 -47 40.5 -100t42 -104.5t36.5 -93.5q36 -89 64 -158.5t46 -142.5h2q3 24 6.5 45t9 48t13.5 68.5t21 103.5t33 154q10 49 17 90t12 81l74 10l7 -9l-147 -687h-75q-32 77 -61.5 152 t-58.5 146q-24 59 -43.5 106.5t-35 91t-29.5 92.5h-1q-10 -65 -21.5 -123.5t-23.5 -114.5l-60 -284q-22 -102 -67.5 -160t-123.5 -93z" />
<glyph unicode="&#x1cd;" horiz-adv-x="613" d="M562 916l17 -20q-41 -31 -74.5 -59t-65.5 -59l-62 -7q-20 31 -45 63t-53 62l26 20q30 -20 59 -42.5t55 -45.5q33 22 69 44.5t74 43.5zM44 0h-72l331 589q16 28 30.5 55t24.5 48l74 4l9 -10l94 -686h-77l-28 201h-273zM273 406l-83 -148h232l-21 148q-6 58 -11.5 110.5 t-5.5 98.5h-2q-21 -46 -50 -100t-59 -109z" />
<glyph unicode="&#x1ce;" horiz-adv-x="523" d="M485 758l20 -18q-36 -38 -70.5 -76.5t-66.5 -79.5l-62 -6q-33 84 -78 162l27 18q27 -29 50 -58.5t45 -59.5q31 29 66 60t69 58zM46 135q0 67 22.5 132.5t65 119.5t100.5 86.5t128 32.5q24 0 59 -5t67 -17l-42 -174q-21 -93 -33.5 -164.5t-12.5 -145.5h-73q0 32 2 62 t7.5 65.5t15.5 82.5q-17 -36 -39.5 -74.5t-49.5 -71.5t-57.5 -53.5t-62.5 -20.5q-42 0 -69.5 35.5t-27.5 109.5zM122 151q0 -46 13.5 -72t40.5 -26q24 0 50.5 22.5t51.5 60t47 81.5t38.5 86.5t25.5 74.5q4 15 7.5 31t7.5 33q-18 7 -36 10t-31 3q-43 0 -81.5 -27t-68.5 -72 t-47.5 -99t-17.5 -106z" />
<glyph unicode="&#x1cf;" horiz-adv-x="308" d="M415 916l17 -20q-41 -31 -74.5 -59t-66.5 -59l-61 -7q-20 31 -45 63t-53 62l25 20q30 -20 59.5 -42.5t55.5 -45.5q33 22 69 44.5t74 43.5zM142 0h-75l112 530q10 45 16.5 82.5t9.5 73.5l77 10l7 -8z" />
<glyph unicode="&#x1d0;" horiz-adv-x="255" d="M296 760l20 -13q-29 -42 -56 -85t-45 -74l-73 -7q-9 40 -19 82.5t-22 83.5l25 13q19 -28 34.5 -57t30.5 -60q25 31 51.5 61t53.5 56zM134 0h-73q0 54 10 121t27 146l20 92l8 137l82 10q0 -54 -11.5 -117t-26 -130t-25.5 -133t-11 -126z" />
<glyph unicode="&#x1d1;" horiz-adv-x="693" d="M610 916l16 -20q-40 -31 -74 -59t-66 -59l-62 -7q-20 31 -44.5 63t-52.5 62l25 20q30 -20 59 -42.5t56 -45.5q33 22 69 44.5t74 43.5zM645 445q0 -82 -25.5 -163t-73 -147t-112 -105.5t-142.5 -39.5q-94 0 -149.5 63t-55.5 183q0 67 17 133t48.5 125t75.5 104.5t98 71.5 t115 26q94 0 149 -65t55 -186zM166 242q0 -89 35.5 -140t105.5 -51q60 0 108 35.5t82 93.5t51.5 127t17.5 136q0 90 -33.5 141.5t-103.5 51.5q-60 0 -108.5 -36t-83 -94.5t-53 -127.5t-18.5 -136z" />
<glyph unicode="&#x1d2;" horiz-adv-x="512" d="M464 758l19 -18q-36 -38 -70.5 -76.5t-66.5 -79.5l-61 -6q-33 84 -78 162l27 18q27 -29 50 -58.5t44 -59.5q32 29 67 60t69 58zM461 332q0 -61 -19 -121.5t-54.5 -110.5t-84 -80t-106.5 -30q-67 0 -106 43t-39 131q0 62 19.5 122.5t55 110.5t84 79.5t105.5 29.5 q68 0 106.5 -44t38.5 -130zM129 163q0 -58 19.5 -90t63.5 -32q41 0 73 27.5t54 72t34 95.5t12 97q0 122 -83 122q-41 0 -73 -27.5t-54.5 -71.5t-34 -95t-11.5 -98z" />
<glyph unicode="&#x1d3;" horiz-adv-x="652" d="M590 916l17 -20q-41 -31 -74.5 -59t-65.5 -59l-62 -7q-20 31 -45 63t-53 62l26 20q30 -20 59 -42.5t55 -45.5q33 22 69 44.5t74 43.5zM82 160q0 27 8.5 73.5t21.5 104.5t27 120t24.5 121.5t13.5 108.5l83 8l4 -5q-30 -139 -49.5 -228.5t-30.5 -142.5t-16.5 -80t-7 -39.5 t-1.5 -22.5q0 -62 37 -93.5t95 -31.5q69 0 125 43.5t74 129.5q23 108 38 179t24.5 116t14.5 73.5t7 49t4 44.5l85 8l-100 -471q-17 -78 -60.5 -130.5t-104 -78.5t-126.5 -26q-83 0 -136.5 43t-53.5 127z" />
<glyph unicode="&#x1d4;" horiz-adv-x="526" d="M457 758l20 -18q-36 -38 -70.5 -76.5t-66.5 -79.5l-61 -6q-34 84 -78 162l27 18q27 -29 50 -58.5t44 -59.5q31 29 66.5 60t68.5 58zM67 146l44 213l8 137l82 10q0 -72 -16 -147t-30 -150q-14 -74 -10.5 -115t49.5 -41q39 0 72.5 28.5t59.5 79t44 114.5q10 46 17.5 88.5 t11.5 81.5q2 26 3 51l75 10q-2 -74 -19 -152.5t-36 -178.5q-9 -43 -14.5 -86.5t-5.5 -88.5h-73q0 34 3.5 67t9.5 67q-36 -74 -86.5 -109t-98.5 -35q-57 0 -81 42.5t-9 113.5z" />
<glyph unicode="&#x1d5;" horiz-adv-x="652" d="M362 1018l11 52h264l-11 -52h-264zM610 857q0 -26 -20.5 -47t-46.5 -21q-18 0 -28 10.5t-10 25.5q0 25 21 45.5t47 20.5q17 0 27 -9.5t10 -24.5zM408 857q0 -26 -20 -47t-46 -21q-19 0 -29 10.5t-10 25.5q0 25 21 45.5t47 20.5q17 0 27 -9.5t10 -24.5zM82 160 q0 27 8.5 73.5t21.5 104.5t27 120t24.5 121.5t13.5 108.5l83 8l4 -5q-30 -139 -49.5 -228.5t-30.5 -142.5t-16.5 -80t-7 -39.5t-1.5 -22.5q0 -62 37 -93.5t95 -31.5q69 0 125 43.5t74 129.5q23 108 38 179t24.5 116t14.5 73.5t7 49t4 44.5l85 8l-100 -471 q-17 -78 -60.5 -130.5t-104 -78.5t-126.5 -26q-83 0 -136.5 43t-53.5 127z" />
<glyph unicode="&#x1d6;" horiz-adv-x="526" d="M240 863l10 49h272l-10 -49h-272zM285 684q0 -30 -20.5 -53t-46.5 -23q-17 0 -26.5 11t-9.5 27q0 28 21.5 51t46.5 23q16 0 25.5 -10t9.5 -26zM485 684q0 -30 -20.5 -53t-46.5 -23q-17 0 -26.5 11t-9.5 27q0 28 21.5 51t46.5 23q16 0 25.5 -10t9.5 -26zM67 146l44 213 l8 137l82 10q0 -72 -16 -147t-30 -150q-14 -74 -10.5 -115t49.5 -41q39 0 72.5 28.5t59.5 79t44 114.5q10 46 17.5 88.5t11.5 81.5q2 26 3 51l75 10q-2 -74 -19 -152.5t-36 -178.5q-9 -43 -14.5 -86.5t-5.5 -88.5h-73q0 34 3.5 67t9.5 67q-36 -74 -86.5 -109t-98.5 -35 q-57 0 -81 42.5t-9 113.5z" />
<glyph unicode="&#x1d7;" horiz-adv-x="652" d="M633 1067l-6 -12q-61 -32 -124.5 -49.5t-132.5 -25.5l-3 23q60 23 119 50.5t109 58.5zM610 857q0 -26 -20.5 -47t-46.5 -21q-18 0 -28 10.5t-10 25.5q0 25 21 45.5t47 20.5q17 0 27 -9.5t10 -24.5zM408 857q0 -26 -20 -47t-46 -21q-19 0 -29 10.5t-10 25.5q0 25 21 45.5 t47 20.5q17 0 27 -9.5t10 -24.5zM82 160q0 27 8.5 73.5t21.5 104.5t27 120t24.5 121.5t13.5 108.5l83 8l4 -5q-30 -139 -49.5 -228.5t-30.5 -142.5t-16.5 -80t-7 -39.5t-1.5 -22.5q0 -62 37 -93.5t95 -31.5q69 0 125 43.5t74 129.5q23 108 38 179t24.5 116t14.5 73.5t7 49 t4 44.5l85 8l-100 -471q-17 -78 -60.5 -130.5t-104 -78.5t-126.5 -26q-83 0 -136.5 43t-53.5 127z" />
<glyph unicode="&#x1d8;" horiz-adv-x="526" d="M486 967l2 -13q-42 -48 -89.5 -85.5t-104.5 -70.5l-21 12q40 40 80 84t69 87zM285 684q0 -30 -20.5 -53t-46.5 -23q-17 0 -26.5 11t-9.5 27q0 28 21.5 51t46.5 23q16 0 25.5 -10t9.5 -26zM485 684q0 -30 -20.5 -53t-46.5 -23q-17 0 -26.5 11t-9.5 27q0 28 21.5 51 t46.5 23q16 0 25.5 -10t9.5 -26zM67 146l44 213l8 137l82 10q0 -72 -16 -147t-30 -150q-14 -74 -10.5 -115t49.5 -41q39 0 72.5 28.5t59.5 79t44 114.5q10 46 17.5 88.5t11.5 81.5q2 26 3 51l75 10q-2 -74 -19 -152.5t-36 -178.5q-9 -43 -14.5 -86.5t-5.5 -88.5h-73 q0 34 3.5 67t9.5 67q-36 -74 -86.5 -109t-98.5 -35q-57 0 -81 42.5t-9 113.5z" />
<glyph unicode="&#x1d9;" horiz-adv-x="652" d="M627 1153l20 -18q-36 -37 -70.5 -76t-66.5 -80l-61 -6q-34 84 -78 162l26 18q28 -29 51 -58.5t44 -59.5q31 29 66.5 60t68.5 58zM610 857q0 -26 -20.5 -47t-46.5 -21q-18 0 -28 10.5t-10 25.5q0 25 21 45.5t47 20.5q17 0 27 -9.5t10 -24.5zM408 857q0 -26 -20 -47 t-46 -21q-19 0 -29 10.5t-10 25.5q0 25 21 45.5t47 20.5q17 0 27 -9.5t10 -24.5zM82 160q0 27 8.5 73.5t21.5 104.5t27 120t24.5 121.5t13.5 108.5l83 8l4 -5q-30 -139 -49.5 -228.5t-30.5 -142.5t-16.5 -80t-7 -39.5t-1.5 -22.5q0 -62 37 -93.5t95 -31.5q69 0 125 43.5 t74 129.5q23 108 38 179t24.5 116t14.5 73.5t7 49t4 44.5l85 8l-100 -471q-17 -78 -60.5 -130.5t-104 -78.5t-126.5 -26q-83 0 -136.5 43t-53.5 127z" />
<glyph unicode="&#x1da;" horiz-adv-x="526" d="M506 982l19 -18q-36 -38 -70.5 -77t-66.5 -79l-61 -7q-34 85 -78 163l27 18q27 -29 50 -58.5t44 -59.5q32 29 67 60t69 58zM285 684q0 -30 -20.5 -53t-46.5 -23q-17 0 -26.5 11t-9.5 27q0 28 21.5 51t46.5 23q16 0 25.5 -10t9.5 -26zM485 684q0 -30 -20.5 -53t-46.5 -23 q-17 0 -26.5 11t-9.5 27q0 28 21.5 51t46.5 23q16 0 25.5 -10t9.5 -26zM67 146l44 213l8 137l82 10q0 -72 -16 -147t-30 -150q-14 -74 -10.5 -115t49.5 -41q39 0 72.5 28.5t59.5 79t44 114.5q10 46 17.5 88.5t11.5 81.5q2 26 3 51l75 10q-2 -74 -19 -152.5t-36 -178.5 q-9 -43 -14.5 -86.5t-5.5 -88.5h-73q0 34 3.5 67t9.5 67q-36 -74 -86.5 -109t-98.5 -35q-57 0 -81 42.5t-9 113.5z" />
<glyph unicode="&#x1db;" horiz-adv-x="652" d="M606 980q-64 8 -120.5 25.5t-103.5 49.5l-1 12l57 45q37 -31 84 -58.5t97 -50.5zM610 857q0 -26 -20.5 -47t-46.5 -21q-18 0 -28 10.5t-10 25.5q0 25 21 45.5t47 20.5q17 0 27 -9.5t10 -24.5zM408 857q0 -26 -20 -47t-46 -21q-19 0 -29 10.5t-10 25.5q0 25 21 45.5 t47 20.5q17 0 27 -9.5t10 -24.5zM82 160q0 27 8.5 73.5t21.5 104.5t27 120t24.5 121.5t13.5 108.5l83 8l4 -5q-30 -139 -49.5 -228.5t-30.5 -142.5t-16.5 -80t-7 -39.5t-1.5 -22.5q0 -62 37 -93.5t95 -31.5q69 0 125 43.5t74 129.5q23 108 38 179t24.5 116t14.5 73.5t7 49 t4 44.5l85 8l-100 -471q-17 -78 -60.5 -130.5t-104 -78.5t-126.5 -26q-83 0 -136.5 43t-53.5 127z" />
<glyph unicode="&#x1dc;" horiz-adv-x="526" d="M432 800q-43 33 -75 71t-53 85l8 13l70 14q11 -43 31.5 -86t44.5 -84zM285 684q0 -30 -20.5 -53t-46.5 -23q-17 0 -26.5 11t-9.5 27q0 28 21.5 51t46.5 23q16 0 25.5 -10t9.5 -26zM485 684q0 -30 -20.5 -53t-46.5 -23q-17 0 -26.5 11t-9.5 27q0 28 21.5 51t46.5 23 q16 0 25.5 -10t9.5 -26zM67 146l44 213l8 137l82 10q0 -72 -16 -147t-30 -150q-14 -74 -10.5 -115t49.5 -41q39 0 72.5 28.5t59.5 79t44 114.5q10 46 17.5 88.5t11.5 81.5q2 26 3 51l75 10q-2 -74 -19 -152.5t-36 -178.5q-9 -43 -14.5 -86.5t-5.5 -88.5h-73q0 34 3.5 67 t9.5 67q-36 -74 -86.5 -109t-98.5 -35q-57 0 -81 42.5t-9 113.5z" />
<glyph unicode="&#x1e6;" horiz-adv-x="646" d="M597 916l17 -20q-41 -31 -74.5 -59t-65.5 -59l-62 -7q-20 31 -45 63t-53 62l26 20q30 -20 59 -42.5t55 -45.5q33 22 69 44.5t74 43.5zM574 298l7 -8l-56 -252q-40 -23 -94.5 -35.5t-106.5 -12.5q-113 0 -174.5 62.5t-61.5 188.5q0 86 28 167.5t79 146.5t120 103t150 38 q38 0 83 -10t82 -34l-29 -68q-28 24 -67.5 36.5t-78.5 12.5q-66 0 -119 -33t-90.5 -88t-57.5 -122.5t-20 -135.5q0 -98 43.5 -150t135.5 -52q56 0 113 18l11 53q11 50 16.5 86t9.5 79z" />
<glyph unicode="&#x1e7;" horiz-adv-x="443" d="M434 758l20 -18q-36 -38 -70.5 -76.5t-66.5 -79.5l-62 -6q-33 84 -78 162l27 18q27 -29 50 -58.5t45 -59.5q31 29 66 60t69 58zM128 -256q-85 0 -130 34t-45 85q0 40 25.5 68.5t63.5 48.5l19 -19q-17 -19 -27.5 -38.5t-10.5 -39.5q0 -39 30.5 -66t88.5 -27 q63 0 101.5 29.5t38.5 65.5q0 25 -21.5 44.5t-64.5 40.5q-33 16 -59.5 32.5t-26.5 43.5q0 30 29.5 54.5t66.5 45.5v2q-9 -1 -14 -1q-62 1 -95 38.5t-33 98.5q0 62 29.5 112t78.5 80t108 30q44 0 73.5 0.5t52 3t46.5 7.5q8 -10 8 -25q0 -12 -9 -23.5t-34 -11.5q-17 0 -37 5.5 t-40 10.5v-2q26 -15 40.5 -40.5t14.5 -68.5q0 -55 -21.5 -96.5t-53.5 -72t-63.5 -53t-53.5 -39.5t-22 -33t19.5 -27t36.5 -19q55 -26 87.5 -54.5t32.5 -69.5q0 -37 -27.5 -72.5t-79 -58.5t-122.5 -23zM325 367q0 43 -17 68t-48 25q-33 0 -62 -27t-46.5 -68t-17.5 -84 q0 -45 19 -68.5t50 -23.5q36 0 63.5 27.5t43 68.5t15.5 82z" />
<glyph unicode="&#x1ea;" horiz-adv-x="693" d="M427 26q-65 -35 -108.5 -77t-43.5 -84q0 -40 44 -40q10 0 24.5 2.5t33.5 9.5l6 -30q-44 -32 -100 -32q-35 0 -56.5 17.5t-21.5 52.5q0 37 29.5 75t80.5 71q-12 -1 -23 -1q-94 0 -149.5 63t-55.5 183q0 67 17 133t48.5 125t75.5 104.5t98 71.5t115 26q94 0 149 -65 t55 -186q0 -84 -26.5 -166.5t-75.5 -149t-116 -103.5v0zM166 242q0 -89 35.5 -140t105.5 -51q60 0 108 35.5t82 93.5t51.5 127t17.5 136q0 90 -33.5 141.5t-103.5 51.5q-60 0 -108.5 -36t-83 -94.5t-53 -127.5t-18.5 -136z" />
<glyph unicode="&#x1eb;" horiz-adv-x="512" d="M313 25q-36 -27 -68.5 -55.5t-53 -56t-20.5 -51.5q0 -17 10.5 -27t32.5 -10q10 0 25 2.5t34 9.5l6 -30q-45 -32 -98 -32q-37 0 -58.5 17t-21.5 47q0 36 31.5 75.5t82.5 76.5q-9 -1 -18 -1q-67 0 -106 43t-39 131q0 62 19.5 122.5t55 110.5t84 79.5t105.5 29.5 q68 0 106.5 -44t38.5 -130q0 -59 -18 -118.5t-52 -109t-80 -79.5h2zM129 163q0 -58 19.5 -90t63.5 -32q41 0 73 27.5t54 72t34 95.5t12 97q0 122 -83 122q-41 0 -73 -27.5t-54.5 -71.5t-34 -95t-11.5 -98z" />
<glyph unicode="&#x1f4;" horiz-adv-x="646" d="M597 865l-6 -13q-61 -32 -124.5 -49.5t-132.5 -25.5l-3 23q60 23 119 50.5t108 59.5zM574 298l7 -8l-56 -252q-40 -23 -94.5 -35.5t-106.5 -12.5q-113 0 -174.5 62.5t-61.5 188.5q0 86 28 167.5t79 146.5t120 103t150 38q38 0 83 -10t82 -34l-29 -68q-28 24 -67.5 36.5 t-78.5 12.5q-66 0 -119 -33t-90.5 -88t-57.5 -122.5t-20 -135.5q0 -98 43.5 -150t135.5 -52q56 0 113 18l11 53q11 50 16.5 86t9.5 79z" />
<glyph unicode="&#x1f5;" horiz-adv-x="443" d="M415 743l1 -13q-42 -48 -89.5 -85.5t-103.5 -70.5l-21 13q39 40 79 83.5t69 86.5zM128 -256q-85 0 -130 34t-45 85q0 40 25.5 68.5t63.5 48.5l19 -19q-17 -19 -27.5 -38.5t-10.5 -39.5q0 -39 30.5 -66t88.5 -27q63 0 101.5 29.5t38.5 65.5q0 25 -21.5 44.5t-64.5 40.5 q-33 16 -59.5 32.5t-26.5 43.5q0 30 29.5 54.5t66.5 45.5v2q-9 -1 -14 -1q-62 1 -95 38.5t-33 98.5q0 62 29.5 112t78.5 80t108 30q44 0 73.5 0.5t52 3t46.5 7.5q8 -10 8 -25q0 -12 -9 -23.5t-34 -11.5q-17 0 -37 5.5t-40 10.5v-2q26 -15 40.5 -40.5t14.5 -68.5 q0 -55 -21.5 -96.5t-53.5 -72t-63.5 -53t-53.5 -39.5t-22 -33t19.5 -27t36.5 -19q55 -26 87.5 -54.5t32.5 -69.5q0 -37 -27.5 -72.5t-79 -58.5t-122.5 -23zM325 367q0 43 -17 68t-48 25q-33 0 -62 -27t-46.5 -68t-17.5 -84q0 -45 19 -68.5t50 -23.5q36 0 63.5 27.5t43 68.5 t15.5 82z" />
<glyph unicode="&#x1fa;" horiz-adv-x="613" d="M612 1099l-6 -13q-62 -32 -125.5 -49.5t-131.5 -25.5l-3 23q59 23 118 50.5t109 59.5zM521 863q0 -27 -16.5 -51t-43 -39t-55.5 -15q-30 0 -50 17.5t-20 44.5q0 26 17 49.5t43.5 38.5t56.5 15q31 0 49.5 -17t18.5 -43zM380 827q0 -16 10 -25.5t26 -9.5q24 0 42.5 19 t18.5 44q0 15 -9 24.5t-27 9.5q-24 0 -42.5 -19t-18.5 -43zM44 0h-72l331 589q16 28 30.5 55t24.5 48l74 4l9 -10l94 -686h-77l-28 201h-273zM273 406l-83 -148h232l-21 148q-6 58 -11.5 110.5t-5.5 98.5h-2q-21 -46 -50 -100t-59 -109z" />
<glyph unicode="&#x1fb;" horiz-adv-x="523" d="M517 984l2 -14q-42 -47 -90 -84.5t-104 -70.5l-21 12q40 40 80 84t68 87zM451 677q0 -27 -16.5 -51t-42.5 -39t-55 -15q-30 0 -50 17.5t-20 44.5q0 26 16.5 49.5t43.5 38.5t56 15q31 0 49.5 -17t18.5 -43zM310 641q0 -16 10 -25.5t27 -9.5q24 0 42 19.5t18 43.5 q0 15 -9 24.5t-26 9.5q-24 0 -43 -19t-19 -43zM46 135q0 67 22.5 132.5t65 119.5t100.5 86.5t128 32.5q24 0 59 -5t67 -17l-42 -174q-21 -93 -33.5 -164.5t-12.5 -145.5h-73q0 32 2 62t7.5 65.5t15.5 82.5q-17 -36 -39.5 -74.5t-49.5 -71.5t-57.5 -53.5t-62.5 -20.5 q-42 0 -69.5 35.5t-27.5 109.5zM122 151q0 -46 13.5 -72t40.5 -26q24 0 50.5 22.5t51.5 60t47 81.5t38.5 86.5t25.5 74.5q4 15 7.5 31t7.5 33q-18 7 -36 10t-31 3q-43 0 -81.5 -27t-68.5 -72t-47.5 -99t-17.5 -106z" />
<glyph unicode="&#x1fc;" horiz-adv-x="858" d="M695 865l-6 -13q-61 -32 -124.5 -49.5t-132.5 -25.5l-3 23q60 23 119 50.5t108 59.5zM44 0h-72l425 589q9 13 14 20.5l10 15t14.5 21.5t28.5 40h352l7 -8l-13 -54l-266 4l-26 -260l230 2l-14 -59l-221 3l-25 -256l283 5l-13 -63h-352l23 201h-240zM337 406l-106 -148h204 l17 148q7 58 13.5 110t14.5 99h-2q-27 -45 -64.5 -99.5t-76.5 -109.5z" />
<glyph unicode="&#x1fd;" horiz-adv-x="750" d="M578 743l1 -13q-42 -48 -89.5 -85.5t-103.5 -70.5l-21 13q39 40 79 83.5t69 86.5zM46 139q0 66 22.5 131t65 118.5t103 85.5t135.5 32q34 0 68.5 -7t66.5 -20q23 13 47.5 20t49.5 7q54 0 87 -29t33 -80q0 -43 -29.5 -81.5t-96.5 -65t-180 -32.5q-3 -22 -3 -41 q0 -59 27 -96t77 -37q40 0 78 23.5t68 57.5l19 -27q-34 -52 -85.5 -80t-103.5 -28q-68 0 -112 46.5t-44 135.5v11q-22 -45 -53 -89.5t-67 -74t-75 -29.5q-42 0 -70 36.5t-28 112.5zM591 456q-39 0 -72.5 -30t-58 -77.5t-35.5 -97.5q90 8 139.5 31.5t69 54t19.5 58.5 q0 29 -16.5 45t-45.5 16zM122 151q0 -47 14 -72.5t39 -25.5q26 0 52.5 23.5t52 61.5t48 82.5t38.5 86.5v0q29 72 79 124q-19 10 -43.5 17t-50.5 7q-51 0 -92.5 -27t-72 -72t-47.5 -99t-17 -106z" />
<glyph unicode="&#x1fe;" horiz-adv-x="693" d="M609 865l-6 -13q-61 -32 -124.5 -49.5t-132.5 -25.5l-3 23q60 23 119 50.5t108 59.5zM645 445q0 -82 -25.5 -163t-73 -147t-112 -105.5t-142.5 -39.5q-120 0 -172 95l-96 -88l-28 29l107 99q-16 48 -16 111q0 67 17 133t48.5 125t75.5 104.5t98 71.5t115 26 q120 0 172 -99l101 93l30 -28l-114 -106q15 -48 15 -111zM166 242q0 -30 4 -55l383 354q-15 45 -45.5 70t-78.5 25q-60 0 -108.5 -36t-83 -94.5t-53 -127.5t-18.5 -136zM566 443q0 28 -3 52l-382 -354q15 -43 47 -66.5t79 -23.5q60 0 108 35.5t82 93.5t51.5 127t17.5 136z " />
<glyph unicode="&#x1ff;" horiz-adv-x="512" d="M444 743l2 -13q-42 -48 -89.5 -85.5t-104.5 -70.5l-21 13q40 40 80 83.5t69 86.5zM461 332q0 -61 -19 -121.5t-54.5 -110.5t-84 -80t-106.5 -30q-89 0 -124 71l-76 -66l-25 30l87 76q-7 28 -7 63q0 62 19.5 122.5t55 110.5t84 79.5t105.5 29.5q89 0 125 -72l78 68l26 -30 l-90 -78q6 -28 6 -62zM129 163v-2l252 220q-15 74 -79 74q-41 0 -73 -27.5t-54.5 -71.5t-34 -95t-11.5 -98zM212 41q41 0 73 27.5t54 72t34 95.5t12 97l-252 -219q15 -73 79 -73z" />
<glyph unicode="&#x218;" horiz-adv-x="508" d="M438 197q0 -60 -33 -106.5t-92.5 -73.5t-136.5 -27q-40 0 -86 8t-81 28l23 68q35 -24 81 -33t76 -9q50 0 88 18t60 48.5t22 68.5q0 36 -19 61t-47 43.5t-55 34.5q-30 17 -58.5 38t-46.5 50.5t-18 74.5q0 58 33.5 105t93 74.5t136.5 27.5q42 0 83 -8.5t66 -22.5l-26 -69 q-31 22 -68.5 30t-67.5 8q-49 0 -87.5 -17t-60.5 -47t-22 -67q0 -35 18.5 -59t47 -42t60.5 -37q27 -17 54 -38.5t45 -53t18 -76.5zM94 -310q18 23 34 46.5t27 47.5q-18 0 -27 12t-7 30q2 22 19.5 44t45.5 22q19 0 29.5 -12t8.5 -35q-2 -29 -19 -60.5t-40.5 -61t-47.5 -52.5z " />
<glyph unicode="&#x219;" horiz-adv-x="430" d="M393 480l-22 -62q-24 15 -52 24.5t-58 9.5q-48 0 -78 -24.5t-30 -60.5q0 -30 20 -49t49.5 -34t59 -32t50 -42.5t20.5 -65.5q0 -44 -26.5 -79t-71 -55t-100.5 -20q-34 0 -71 8t-65 26l22 61q29 -21 65 -31t63 -10q47 0 78.5 25t31.5 62q0 30 -20 48.5t-50 33t-59.5 31.5 t-50 42t-20.5 65q0 47 27.5 81.5t73 54t98.5 19.5q32 0 62 -7t54 -19zM68 -310q18 23 34 46.5t27 47.5q-18 0 -27 12t-7 30q2 22 19.5 44t45.5 22q19 0 29.5 -12t8.5 -35q-2 -29 -19 -60.5t-41 -61t-47 -52.5z" />
<glyph unicode="&#x21a;" horiz-adv-x="511" d="M240 0h-75l134 628q-52 -1 -105 -2.5t-106 -3.5l18 64h484l-9 -64q-52 2 -103.5 3.5t-103.5 2.5zM91 -310q18 23 33.5 46.5t26.5 47.5q-17 0 -26 12t-8 30q2 22 20 44t46 22q19 0 29.5 -12t8.5 -35q-2 -29 -19 -60.5t-41 -61t-48 -52.5z" />
<glyph unicode="&#x21b;" horiz-adv-x="352" d="M350 450l-139 1q-22 -106 -35.5 -169t-20.5 -96.5t-9.5 -49t-2.5 -27.5q0 -34 15.5 -48t44.5 -14q21 0 43 6.5t42 18.5l-2 -51q-22 -13 -52.5 -22t-63.5 -9q-50 0 -76 24t-26 76q0 11 1.5 23t5.5 33.5t11.5 58.5t20.5 97t32 150h-73l7 34l76 10l43 117l49 5l7 -9 l-27 -113h135l5 -8zM47 -310q18 23 33.5 46.5t26.5 47.5q-17 0 -26 12t-7 30q1 22 19 44t46 22q19 0 29.5 -12t8.5 -35q-2 -29 -19 -60.5t-41 -61t-47 -52.5z" />
<glyph unicode="&#x232;" horiz-adv-x="539" d="M263 815l11 52h264l-11 -52h-264zM232 247l-118 442l80 7l62 -246q7 -34 17 -74.5t12 -76.5h2q19 36 47 77.5t49 74.5l164 245l59 -6l5 -8l-305 -438l-52 -244h-75z" />
<glyph unicode="&#x233;" horiz-adv-x="427" d="M140 639l10 49h272l-10 -49h-272zM399 506q34 0 34 -27q0 -34 -19.5 -90t-53.5 -125t-79 -141.5t-95 -140t-101.5 -121.5t-100 -85.5t-88.5 -31.5q-24 0 -37 11.5t-13 31.5q0 10 3.5 18.5t7.5 14.5q12 -2 24.5 -3t21.5 -1q43 0 87 28.5t83 71t67 84.5h-22 q-1 137 -14.5 263t-38.5 233l75 10q49 -204 44 -434h1q45 69 84 143.5t65.5 148t33.5 137.5q9 3 17 4t14 1z" />
<glyph unicode="&#x237;" horiz-adv-x="234" d="M-61 -256l-25 30q44 34 72 82t43 116l83 387l8 137l81 10q0 -32 -5 -72t-16.5 -97.5t-30 -143t-44.5 -208.5q-18 -83 -55.5 -140.5t-110.5 -100.5z" />
<glyph unicode="&#x259;" horiz-adv-x="453" d="M78 403l5 58q30 19 72.5 32t81.5 13q74 0 119 -46t45 -134q0 -60 -21.5 -119.5t-59.5 -108.5t-86 -78.5t-102 -29.5q-50 0 -83 28t-33 78q0 42 28.5 82t95.5 67.5t182 33.5q3 21 3 41q0 58 -26.5 95t-81.5 37q-35 0 -71 -14.5t-68 -34.5zM87 101q0 -28 17 -44.5t45 -16.5 q39 0 72.5 30t58 77.5t36.5 97.5q-90 -8 -140 -31.5t-69.5 -54t-19.5 -58.5z" />
<glyph unicode="&#x272;" horiz-adv-x="579" d="M6 -214l-25 30q27 34 52.5 82t40.5 116l73 345l8 137l82 10q0 -34 -5.5 -73t-13.5 -78h2q38 77 93 114t106 37q57 0 80.5 -42t8.5 -114l-42 -199q-13 -59 -13 -151h-73q0 38 4.5 77t14 89t23.5 121q17 80 10 118.5t-51 38.5q-47 0 -86.5 -39.5t-69.5 -106t-46 -147.5 q-6 -29 -12.5 -59t-13.5 -64q-16 -84 -52.5 -141.5t-94.5 -100.5z" />
<glyph unicode="&#x2c6;" horiz-adv-x="374" d="M141 573l-19 18q36 38 70.5 76.5t66.5 79.5l61 6q34 -84 78 -162l-27 -18q-27 29 -50 58.5t-44 59.5q-31 -29 -66.5 -60t-69.5 -58z" />
<glyph unicode="&#x2c7;" horiz-adv-x="374" d="M412 766l20 -18q-36 -38 -70.5 -76.5t-66.5 -79.5l-62 -6q-33 84 -78 162l27 18q27 -29 50 -58.5t45 -59.5q31 29 66 60t69 58z" />
<glyph unicode="&#x2d8;" horiz-adv-x="354" d="M376 738h33q-23 -64 -66.5 -102t-94.5 -38q-50 0 -76 36t-20 100l35 4q1 -38 22 -59.5t56 -21.5q33 0 63 22.5t48 58.5z" />
<glyph unicode="&#x2d9;" horiz-adv-x="202" d="M244 683q0 -30 -21.5 -53.5t-49.5 -23.5q-18 0 -28.5 11.5t-10.5 28.5q0 28 22.5 52t48.5 24q19 0 29 -10.5t10 -28.5z" />
<glyph unicode="&#x2da;" horiz-adv-x="277" d="M319 686q0 -27 -16.5 -50.5t-42.5 -38.5t-55 -15q-31 0 -51 17t-20 44q0 26 17 49.5t43.5 38.5t56.5 15q31 0 49.5 -17t18.5 -43zM178 651q0 -16 10 -26t27 -10q24 0 42 19.5t18 43.5q0 15 -9 24.5t-26 9.5q-24 0 -43 -19t-19 -42z" />
<glyph unicode="&#x2db;" horiz-adv-x="365" d="M224 0q-62 -31 -100.5 -67t-38.5 -73q0 -35 43 -35q11 0 25 2.5t34 9.5l5 -30q-44 -32 -97 -32q-37 0 -59 16.5t-22 46.5q0 47 47 92.5t132 81.5z" />
<glyph unicode="&#x2dc;" horiz-adv-x="408" d="M239 722q27 0 47 -14t38 -28t40 -14q20 0 37.5 16t33.5 38l23 -4q-9 -26 -25 -51.5t-38.5 -42.5t-48.5 -17q-27 0 -47.5 14t-39.5 28.5t-40 14.5q-18 0 -36 -16t-35 -38l-22 4q8 24 24 49.5t38.5 43t50.5 17.5z" />
<glyph unicode="&#x2dd;" horiz-adv-x="382" d="M322 748l2 -14q-78 -91 -182 -157l-21 12q39 38 78.5 82t69.5 88zM455 748l2 -14q-40 -47 -86 -86t-97 -71l-21 12q40 38 79.5 82t69.5 88z" />
<glyph unicode="&#x394;" horiz-adv-x="598" d="M356 690h76l93 -670l-6 -20h-544l2 20zM65 57h376l-75 533z" />
<glyph unicode="&#x3a9;" horiz-adv-x="751" d="M257 0h-254l3 57l10 8l203 -26q-48 38 -77 109.5t-29 156.5q0 83 27.5 154t76 124.5t111.5 83t134 29.5q72 0 123.5 -30.5t78.5 -84.5t27 -123q0 -60 -19.5 -121.5t-53.5 -118t-78.5 -102.5t-94.5 -77l212 26l6 -8l-22 -57h-253v36q64 48 114 115.5t79 144t29 148.5 q0 86 -42.5 139t-118.5 53q-54 0 -101 -26.5t-83 -74t-56 -110.5t-20 -137q0 -77 22 -143.5t60 -108.5z" />
<glyph unicode="&#x3bc;" horiz-adv-x="526" d="M329 0q0 34 3.5 67t9.5 67q-36 -74 -86.5 -109t-98.5 -35q-40 0 -65 27q1 -69 -8.5 -136.5t-8.5 -122.5l-73 -2q0 34 5.5 79.5t19 115.5t36.5 179l49 229l8 137l81 10q0 -72 -16 -147t-30 -150q-14 -74 -10.5 -115t49.5 -41q39 0 72.5 28.5t59.5 79t44 114.5 q10 46 17.5 88.5t11.5 81.5q2 26 3 51l75 10q-2 -74 -18.5 -152.5t-36.5 -178.5q-9 -43 -14.5 -86.5t-5.5 -88.5h-73z" />
<glyph unicode="&#x3c0;" horiz-adv-x="624" d="M65 447l24 54l566 5l4 -8l-21 -45l-103 -1q-14 -58 -29 -125.5t-26.5 -130t-15.5 -106.5q-1 -16 2.5 -26.5t22.5 -10.5q8 0 20 2t23 5l-16 -60q-31 -10 -62 -10q-35 0 -51.5 18.5t-15.5 59.5q1 27 9 74.5t24 122.5t40 186l-203 -2q-18 -79 -36 -160t-30.5 -155 t-12.5 -134h-72q0 40 6 89.5t19.5 119.5t35.5 171l15 69z" />
<glyph unicode="&#x1e0c;" horiz-adv-x="697" d="M648 432q0 -82 -28.5 -159t-83.5 -138.5t-132.5 -98t-175.5 -36.5h-161l113 532q10 45 16.5 83t8.5 71h176q124 0 195.5 -62t71.5 -192zM359 628h-83l-121 -570h88q80 0 141 31.5t102 84.5t62 118t21 132q0 110 -54.5 157t-155.5 47zM316 -142q0 -30 -21.5 -53.5 t-49.5 -23.5q-19 0 -29 11.5t-10 28.5q0 28 22 51.5t49 23.5q19 0 29 -10.5t10 -27.5z" />
<glyph unicode="&#x1e0d;" horiz-adv-x="526" d="M402 0h-73q0 38 6 87t21 128q-16 -40 -38 -80t-49 -73t-59 -52.5t-67 -19.5q-42 0 -69.5 35.5t-27.5 109.5q0 66 23 132t65 120t99.5 86.5t126.5 32.5q12 0 26.5 -1t29.5 -4l23 108l8 137l82 10q0 -57 -13 -131.5t-32 -157.5t-37.5 -167t-31.5 -161t-13 -139zM122 151 q0 -46 13.5 -72t40.5 -26q24 0 51 23t52.5 60.5t47.5 81.5t38.5 86.5t24.5 74.5v1l14 62q-19 7 -36.5 10t-30.5 3q-43 0 -81.5 -27t-68.5 -72t-47.5 -99t-17.5 -106zM238 -142q0 -30 -21.5 -53.5t-49.5 -23.5q-19 0 -29 11.5t-10 28.5q0 28 22 51.5t49 23.5q19 0 29 -10.5 t10 -27.5z" />
<glyph unicode="&#x1e24;" horiz-adv-x="718" d="M142 0h-75l112 530q10 45 16.5 82.5t9.5 73.5l77 10l7 -8l-68 -318h335l34 160q10 45 16.5 82.5t9.5 73.5l77 10l6 -8l-146 -688h-75l66 312h-335zM327 -142q0 -30 -21.5 -53.5t-48.5 -23.5q-19 0 -29 11.5t-10 28.5q0 28 22 51.5t49 23.5q18 0 28 -10.5t10 -27.5z" />
<glyph unicode="&#x1e25;" horiz-adv-x="550" d="M134 0h-73q0 36 5.5 82.5t18.5 117.5t37 180l49 229l8 137l82 10q0 -52 -10.5 -117t-26.5 -137.5t-33 -146.5h2q37 77 91.5 114t105.5 37q46 0 70.5 -26t24.5 -72q0 -13 -1 -24t-4.5 -30t-11 -54.5t-21.5 -97.5q-10 -46 -15 -79.5t-6.5 -62t-1.5 -60.5h-73q0 71 12 132 t22 110q13 58 18.5 89.5t5.5 51.5q0 29 -13 45t-43 16q-46 0 -85 -36.5t-68.5 -99.5t-46.5 -142.5t-19 -165.5zM279 -142q0 -30 -21.5 -53.5t-48.5 -23.5q-19 0 -29 11.5t-10 28.5q0 28 22 51.5t48 23.5q19 0 29 -10.5t10 -27.5z" />
<glyph unicode="&#x1e44;" horiz-adv-x="729" d="M540 864q0 -28 -21 -49t-50 -21q-20 0 -31 11t-11 27q0 26 22 47t50 21q20 0 30.5 -10t10.5 -26zM406 397q24 -60 44 -109.5t36.5 -96t28.5 -98.5h2q4 25 7.5 47t8.5 49.5t13.5 69t21.5 104t32 154.5q11 48 18 88.5t11 80.5l74 10l7 -9l-146 -687h-76q-31 77 -60.5 151 t-59.5 146q-24 60 -43.5 108t-35 92.5t-29.5 93.5h-1q-9 -65 -20.5 -124.5t-24.5 -116.5l-74 -350h-73l113 532q19 85 25 154l81 9q31 -78 61 -152t59 -146z" />
<glyph unicode="&#x1e45;" horiz-adv-x="550" d="M407 685q0 -30 -21.5 -53.5t-48.5 -23.5q-19 0 -29 11.5t-10 28.5q0 28 22 51.5t49 23.5q18 0 28 -10.5t10 -27.5zM134 0h-73q1 82 17 166.5t40 192.5l8 137l82 10q0 -34 -5.5 -73t-14.5 -78h3q38 77 92.5 114t106.5 37q46 0 70.5 -25.5t24.5 -69.5q0 -31 -10 -79.5 t-23 -109.5q-12 -52 -18 -87t-8 -65.5t-2 -69.5h-73q0 56 8.5 109t23.5 127q10 49 16 84.5t6 58.5q0 30 -12.5 47.5t-41.5 17.5q-43 0 -81.5 -36t-68.5 -98t-47.5 -142t-19.5 -168z" />
<glyph unicode="&#x1e5a;" horiz-adv-x="589" d="M142 0h-75l113 532q10 44 16 80t9 74h162q99 0 153 -43.5t54 -118.5q0 -83 -51.5 -145t-137.5 -86l124 -293l-82 -10q-29 69 -57 140.5t-56 142.5h-114zM351 630h-74l-65 -302h71q96 0 153.5 50.5t57.5 135.5q0 51 -33 83.5t-110 32.5zM274 -142q0 -30 -21.5 -53.5 t-48.5 -23.5q-19 0 -29 11.5t-10 28.5q0 28 22 51.5t49 23.5q18 0 28 -10.5t10 -27.5z" />
<glyph unicode="&#x1e5b;" horiz-adv-x="382" d="M134 0h-73q0 54 10 121t27 146l20 92l8 137l82 10q0 -41 -7.5 -86.5t-17.5 -93.5h2q37 98 84 139t93 41q20 0 37 -6.5t27 -16.5l-39 -65q-25 13 -51 13q-42 0 -78.5 -38t-63.5 -101t-43 -139.5t-17 -152.5zM122 -142q0 -30 -21.5 -53.5t-48.5 -23.5q-19 0 -29 11.5 t-10 28.5q0 28 22 51.5t49 23.5q18 0 28 -10.5t10 -27.5z" />
<glyph unicode="&#x1e62;" horiz-adv-x="508" d="M438 197q0 -60 -33 -106.5t-92.5 -73.5t-136.5 -27q-40 0 -86 8t-81 28l23 68q35 -24 81 -33t76 -9q50 0 88 18t60 48.5t22 68.5q0 36 -19 61t-47 43.5t-55 34.5q-30 17 -58.5 38t-46.5 50.5t-18 74.5q0 58 33.5 105t93 74.5t136.5 27.5q42 0 83 -8.5t66 -22.5l-26 -69 q-31 22 -68.5 30t-67.5 8q-49 0 -87.5 -17t-60.5 -47t-22 -67q0 -35 18.5 -59t47 -42t60.5 -37q27 -17 54 -38.5t45 -53t18 -76.5zM227 -142q0 -30 -21.5 -53.5t-48.5 -23.5q-19 0 -29 11.5t-10 28.5q0 28 22 51.5t48 23.5q19 0 29 -10.5t10 -27.5z" />
<glyph unicode="&#x1e63;" horiz-adv-x="430" d="M393 480l-22 -62q-24 15 -52 24.5t-58 9.5q-48 0 -78 -24.5t-30 -60.5q0 -30 20 -49t49.5 -34t59 -32t50 -42.5t20.5 -65.5q0 -44 -26.5 -79t-71 -55t-100.5 -20q-34 0 -71 8t-65 26l22 61q29 -21 65 -31t63 -10q47 0 78.5 25t31.5 62q0 30 -20 48.5t-50 33t-59.5 31.5 t-50 42t-20.5 65q0 47 27.5 81.5t73 54t98.5 19.5q32 0 62 -7t54 -19zM201 -142q0 -30 -21.5 -53.5t-48.5 -23.5q-19 0 -29.5 11.5t-10.5 28.5q0 28 22.5 51.5t48.5 23.5q19 0 29 -10.5t10 -27.5z" />
<glyph unicode="&#x1e6c;" horiz-adv-x="511" d="M240 0h-75l134 628q-52 -1 -105 -2.5t-106 -3.5l18 64h484l-9 -64q-52 2 -103.5 3.5t-103.5 2.5zM223 -142q0 -30 -21 -53.5t-49 -23.5q-19 0 -29 11.5t-10 28.5q0 28 22 51.5t49 23.5q18 0 28 -10.5t10 -27.5z" />
<glyph unicode="&#x1e6d;" horiz-adv-x="352" d="M350 450l-139 1q-22 -106 -35.5 -169t-20.5 -96.5t-9.5 -49t-2.5 -27.5q0 -34 15.5 -48t44.5 -14q21 0 43 6.5t42 18.5l-2 -51q-22 -13 -52.5 -22t-63.5 -9q-50 0 -76 24t-26 76q0 11 1.5 23t5.5 33.5t11.5 58.5t20.5 97t32 150h-73l7 34l76 10l43 117l49 5l7 -9 l-27 -113h135l5 -8zM179 -142q0 -30 -21 -53.5t-49 -23.5q-19 0 -29 11.5t-10 28.5q0 28 22 51.5t49 23.5q18 0 28 -10.5t10 -27.5z" />
<glyph unicode="&#x1e80;" horiz-adv-x="958" d="M711 777q-64 8 -120.5 25.5t-103.5 49.5l-1 13l57 45q37 -32 84 -59.5t97 -50.5zM180 -4l-66 692l78 8l36 -408q6 -58 8.5 -109t0.5 -98q18 46 48.5 106.5t57.5 115.5l200 388l72 5l36 -408q6 -58 9 -109t2 -98q19 52 47.5 108.5t56.5 111.5l202 395l57 -6l5 -8 l-356 -686h-67l-44 429q-3 39 -5.5 80t-3.5 87h-2q-22 -50 -41.5 -89t-39.5 -78l-224 -429h-67z" />
<glyph unicode="&#x1e81;" horiz-adv-x="667" d="M448 577q-42 32 -74 70.5t-53 84.5l7 13l70 14q12 -43 32.5 -86t44.5 -84zM639 506q35 0 35 -27q0 -33 -17 -88t-47.5 -122.5t-71 -137t-86.5 -131.5h-79q4 107 2.5 205t-7.5 190h-1q-16 -61 -44.5 -130t-66 -137t-80.5 -128h-78q1 150 -8.5 275.5t-24.5 220.5l76 8 q14 -86 21.5 -196t2.5 -240h1q44 70 79 144t58 146.5t30 137.5h85q14 -83 20.5 -192t1.5 -236h2q43 70 78 145.5t58 149t30 138.5q9 3 17 4t14 1z" />
<glyph unicode="&#x1e82;" horiz-adv-x="958" d="M738 865l-6 -13q-61 -32 -124.5 -49.5t-132.5 -25.5l-3 23q60 23 119 50.5t109 59.5zM180 -4l-66 692l78 8l36 -408q6 -58 8.5 -109t0.5 -98q18 46 48.5 106.5t57.5 115.5l200 388l72 5l36 -408q6 -58 9 -109t2 -98q19 52 47.5 108.5t56.5 111.5l202 395l57 -6l5 -8 l-356 -686h-67l-44 429q-3 39 -5.5 80t-3.5 87h-2q-22 -50 -41.5 -89t-39.5 -78l-224 -429h-67z" />
<glyph unicode="&#x1e83;" horiz-adv-x="667" d="M503 743l2 -13q-42 -48 -90 -85.5t-104 -70.5l-21 13q40 40 80 83.5t68 86.5zM639 506q35 0 35 -27q0 -33 -17 -88t-47.5 -122.5t-71 -137t-86.5 -131.5h-79q4 107 2.5 205t-7.5 190h-1q-16 -61 -44.5 -130t-66 -137t-80.5 -128h-78q1 150 -8.5 275.5t-24.5 220.5l76 8 q14 -86 21.5 -196t2.5 -240h1q44 70 79 144t58 146.5t30 137.5h85q14 -83 20.5 -192t1.5 -236h2q43 70 78 145.5t58 149t30 138.5q9 3 17 4t14 1z" />
<glyph unicode="&#x1e84;" horiz-adv-x="958" d="M758 857q0 -26 -20 -47t-46 -21q-19 0 -29 10.5t-10 25.5q0 25 21 45.5t47 20.5q17 0 27 -9.5t10 -24.5zM556 857q0 -26 -20 -47t-46 -21q-19 0 -29 10.5t-10 25.5q0 25 21 45.5t47 20.5q18 0 27.5 -9.5t9.5 -24.5zM180 -4l-66 692l78 8l36 -408q6 -58 8.5 -109t0.5 -98 q18 46 48.5 106.5t57.5 115.5l200 388l72 5l36 -408q6 -58 9 -109t2 -98q19 52 47.5 108.5t56.5 111.5l202 395l57 -6l5 -8l-356 -686h-67l-44 429q-3 39 -5.5 80t-3.5 87h-2q-22 -50 -41.5 -89t-39.5 -78l-224 -429h-67z" />
<glyph unicode="&#x1e85;" horiz-adv-x="667" d="M350 684q0 -30 -20.5 -53t-46.5 -23q-17 0 -26.5 11t-9.5 27q0 28 21.5 51t46.5 23q16 0 25.5 -10t9.5 -26zM550 684q0 -30 -20.5 -53t-46.5 -23q-17 0 -26.5 11t-9.5 27q0 28 21.5 51t46.5 23q16 0 25.5 -10t9.5 -26zM639 506q35 0 35 -27q0 -33 -17 -88t-47.5 -122.5 t-71 -137t-86.5 -131.5h-79q4 107 2.5 205t-7.5 190h-1q-16 -61 -44.5 -130t-66 -137t-80.5 -128h-78q1 150 -8.5 275.5t-24.5 220.5l76 8q14 -86 21.5 -196t2.5 -240h1q44 70 79 144t58 146.5t30 137.5h85q14 -83 20.5 -192t1.5 -236h2q43 70 78 145.5t58 149t30 138.5 q9 3 17 4t14 1z" />
<glyph unicode="&#x1e92;" horiz-adv-x="514" d="M-15 0l-2 47l492 577l-359 -4l19 66h424l8 -47l-491 -577l373 5l-18 -67h-446zM219 -142q0 -30 -21.5 -53.5t-48.5 -23.5q-19 0 -29 11.5t-10 28.5q0 28 22 51.5t49 23.5q18 0 28 -10.5t10 -27.5z" />
<glyph unicode="&#x1e93;" horiz-adv-x="416" d="M10 -10l-27 37q76 83 136 150.5t108 125.5t88 112q-44 18 -81 24.5t-57 6.5q-30 0 -56.5 -13t-48.5 -45l-27 14q26 63 59 83.5t75 20.5q71 0 166 -49q17 25 32 49q15 0 26 -6.5t11 -19.5q0 -17 -26 -57.5t-71.5 -97.5t-105 -123.5t-127.5 -135.5q11 3 25 3q32 0 69 -9 t65 -9t53 14t50 48l29 -14q-29 -66 -62 -87.5t-79 -21.5q-47 0 -91 11.5t-79 11.5q-16 0 -27.5 -5t-26.5 -18zM166 -142q0 -30 -21.5 -53.5t-48.5 -23.5q-19 0 -29 11.5t-10 28.5q0 28 22 51.5t49 23.5q18 0 28 -10.5t10 -27.5z" />
<glyph unicode="&#x1e9e;" horiz-adv-x="633" d="M67 103l77 359q16 77 58 129t100.5 78.5t125.5 26.5q68 0 116 -28.5t63 -82.5l-211 -198q45 -21 82.5 -47t60 -62t22.5 -88q0 -54 -28 -99.5t-79 -73t-122 -27.5q-32 0 -66 6.5t-60 19.5l15 68q24 -17 56 -24.5t59 -7.5q73 0 109.5 38.5t36.5 92.5q0 61 -45 98.5 t-126 70.5l5 27l203 197q-15 34 -42 46.5t-59 12.5q-74 0 -128 -47.5t-71 -127.5l-79 -373q-5 -22 -16 -51t-25 -46l-68 10q12 24 21 50t15 53z" />
<glyph unicode="&#x1ea0;" horiz-adv-x="613" d="M44 0h-72l331 589q16 28 30.5 55t24.5 48l74 4l9 -10l94 -686h-77l-28 201h-273zM273 406l-83 -148h232l-21 148q-6 58 -11.5 110.5t-5.5 98.5h-2q-21 -46 -50 -100t-59 -109zM284 -142q0 -30 -21 -53.5t-49 -23.5q-19 0 -29 11.5t-10 28.5q0 28 22 51.5t49 23.5 q18 0 28 -10.5t10 -27.5z" />
<glyph unicode="&#x1ea1;" horiz-adv-x="523" d="M46 135q0 67 22.5 132.5t65 119.5t100.5 86.5t128 32.5q24 0 59 -5t67 -17l-42 -174q-21 -93 -33.5 -164.5t-12.5 -145.5h-73q0 32 2 62t7.5 65.5t15.5 82.5q-17 -36 -39.5 -74.5t-49.5 -71.5t-57.5 -53.5t-62.5 -20.5q-42 0 -69.5 35.5t-27.5 109.5zM122 151 q0 -46 13.5 -72t40.5 -26q24 0 50.5 22.5t51.5 60t47 81.5t38.5 86.5t25.5 74.5q4 15 7.5 31t7.5 33q-18 7 -36 10t-31 3q-43 0 -81.5 -27t-68.5 -72t-47.5 -99t-17.5 -106zM255 -142q0 -30 -21.5 -53.5t-48.5 -23.5q-19 0 -29 11.5t-10 28.5q0 28 22 51.5t49 23.5 q18 0 28 -10.5t10 -27.5z" />
<glyph unicode="&#x1eb8;" horiz-adv-x="543" d="M457 63l-13 -63h-377l113 532q10 44 16 80t9 74h367l7 -8l-12 -54l-291 5l-55 -261l248 2l-14 -59l-246 3l-55 -257zM278 -142q0 -30 -21.5 -53.5t-48.5 -23.5q-19 0 -29 11.5t-10 28.5q0 28 22 51.5t49 23.5q18 0 28 -10.5t10 -27.5z" />
<glyph unicode="&#x1eb9;" horiz-adv-x="463" d="M379 125l18 -27q-34 -52 -85 -80t-104 -28q-67 0 -111.5 46.5t-44.5 135.5q0 59 21 118.5t57.5 108t84.5 78t103 29.5q53 0 86 -28t33 -78q0 -44 -29 -83.5t-96.5 -66.5t-179.5 -32q-3 -22 -3 -41q0 -59 26.5 -96t76.5 -37q41 0 78.5 23.5t68.5 57.5zM305 456 q-39 0 -72.5 -30t-58 -77.5t-36.5 -97.5q90 8 139.5 31.5t69 54t19.5 58.5q0 29 -16.5 45t-44.5 16zM222 -142q0 -30 -21.5 -53.5t-48.5 -23.5q-19 0 -29 11.5t-10 28.5q0 28 22 51.5t49 23.5q18 0 28 -10.5t10 -27.5z" />
<glyph unicode="&#x1ebc;" horiz-adv-x="543" d="M370 902q29 0 50 -14t39.5 -28t42.5 -14t43 16t36 38l21 -4q-8 -26 -24.5 -50.5t-40 -40t-51.5 -15.5q-29 0 -50.5 14t-41.5 28t-43 14q-22 0 -41.5 -15.5t-36.5 -37.5l-21 4q7 23 23 47.5t40 41t55 16.5zM457 63l-13 -63h-377l113 532q10 44 16 80t9 74h367l7 -8 l-12 -54l-291 5l-55 -261l248 2l-14 -59l-246 3l-55 -257z" />
<glyph unicode="&#x1ebd;" horiz-adv-x="463" d="M266 722q27 0 47 -14t38 -28t39 -14t38.5 16t33.5 38l23 -4q-9 -26 -25.5 -51.5t-38.5 -42.5t-48 -17q-27 0 -47.5 14t-39.5 28.5t-40 14.5q-19 0 -37 -16t-34 -38l-23 4q9 24 25 49.5t38.5 43t50.5 17.5zM379 125l18 -27q-34 -52 -85 -80t-104 -28q-67 0 -111.5 46.5 t-44.5 135.5q0 59 21 118.5t57.5 108t84.5 78t103 29.5q53 0 86 -28t33 -78q0 -44 -29 -83.5t-96.5 -66.5t-179.5 -32q-3 -22 -3 -41q0 -59 26.5 -96t76.5 -37q41 0 78.5 23.5t68.5 57.5zM305 456q-39 0 -72.5 -30t-58 -77.5t-36.5 -97.5q90 8 139.5 31.5t69 54t19.5 58.5 q0 29 -16.5 45t-44.5 16z" />
<glyph unicode="&#x1eca;" horiz-adv-x="308" d="M142 0h-75l112 530q10 45 16.5 82.5t9.5 73.5l77 10l7 -8zM121 -142q0 -30 -21.5 -53.5t-48.5 -23.5q-19 0 -29 11.5t-10 28.5q0 28 22 51.5t49 23.5q18 0 28 -10.5t10 -27.5z" />
<glyph unicode="&#x1ecb;" horiz-adv-x="255" d="M252 685q0 -30 -21.5 -53.5t-48.5 -23.5q-19 0 -29 11.5t-10 28.5q0 28 22 51.5t49 23.5q18 0 28 -10.5t10 -27.5zM134 0h-73q0 54 10 121t27 146l20 92l8 137l82 10q0 -54 -11.5 -117t-26 -130t-25.5 -133t-11 -126zM128 -142q0 -30 -21.5 -53.5t-48.5 -23.5 q-19 0 -29 11.5t-10 28.5q0 28 22 51.5t49 23.5q18 0 28 -10.5t10 -27.5z" />
<glyph unicode="&#x1ecc;" horiz-adv-x="693" d="M645 445q0 -82 -25.5 -163t-73 -147t-112 -105.5t-142.5 -39.5q-94 0 -149.5 63t-55.5 183q0 67 17 133t48.5 125t75.5 104.5t98 71.5t115 26q94 0 149 -65t55 -186zM166 242q0 -89 35.5 -140t105.5 -51q60 0 108 35.5t82 93.5t51.5 127t17.5 136q0 90 -33.5 141.5 t-103.5 51.5q-60 0 -108.5 -36t-83 -94.5t-53 -127.5t-18.5 -136zM315 -142q0 -30 -21.5 -53.5t-48.5 -23.5q-19 0 -29.5 11.5t-10.5 28.5q0 28 22.5 51.5t48.5 23.5q19 0 29 -10.5t10 -27.5z" />
<glyph unicode="&#x1ecd;" horiz-adv-x="512" d="M461 332q0 -61 -19 -121.5t-54.5 -110.5t-84 -80t-106.5 -30q-67 0 -106 43t-39 131q0 62 19.5 122.5t55 110.5t84 79.5t105.5 29.5q68 0 106.5 -44t38.5 -130zM129 163q0 -58 19.5 -90t63.5 -32q41 0 73 27.5t54 72t34 95.5t12 97q0 122 -83 122q-41 0 -73 -27.5 t-54.5 -71.5t-34 -95t-11.5 -98zM232 -142q0 -30 -21.5 -53.5t-48.5 -23.5q-19 0 -29 11.5t-10 28.5q0 28 22 51.5t48 23.5q19 0 29 -10.5t10 -27.5z" />
<glyph unicode="&#x1ee4;" horiz-adv-x="652" d="M82 160q0 27 8.5 73.5t21.5 104.5t27 120t24.5 121.5t13.5 108.5l83 8l4 -5q-30 -139 -49.5 -228.5t-30.5 -142.5t-16.5 -80t-7 -39.5t-1.5 -22.5q0 -62 37 -93.5t95 -31.5q69 0 125 43.5t74 129.5q23 108 38 179t24.5 116t14.5 73.5t7 49t4 44.5l85 8l-100 -471 q-17 -78 -60.5 -130.5t-104 -78.5t-126.5 -26q-83 0 -136.5 43t-53.5 127zM299 -142q0 -30 -21.5 -53.5t-49.5 -23.5q-18 0 -28.5 11.5t-10.5 28.5q0 28 22 51.5t49 23.5q19 0 29 -10.5t10 -27.5z" />
<glyph unicode="&#x1ee5;" horiz-adv-x="526" d="M67 146l44 213l8 137l82 10q0 -72 -16 -147t-30 -150q-14 -74 -10.5 -115t49.5 -41q39 0 72.5 28.5t59.5 79t44 114.5q10 46 17.5 88.5t11.5 81.5q2 26 3 51l75 10q-2 -74 -19 -152.5t-36 -178.5q-9 -43 -14.5 -86.5t-5.5 -88.5h-73q0 34 3.5 67t9.5 67 q-36 -74 -86.5 -109t-98.5 -35q-57 0 -81 42.5t-9 113.5zM273 -142q0 -30 -21.5 -53.5t-48.5 -23.5q-19 0 -29 11.5t-10 28.5q0 28 22 51.5t49 23.5q18 0 28 -10.5t10 -27.5z" />
<glyph unicode="&#x1ef2;" horiz-adv-x="539" d="M507 777q-64 8 -120.5 25.5t-104.5 49.5v13l57 45q37 -32 84 -59.5t97 -50.5zM232 247l-118 442l80 7l62 -246q7 -34 17 -74.5t12 -76.5h2q19 36 47 77.5t49 74.5l164 245l59 -6l5 -8l-305 -438l-52 -244h-75z" />
<glyph unicode="&#x1ef3;" horiz-adv-x="427" d="M332 577q-43 32 -75 70.5t-53 84.5l8 13l70 14q11 -43 31.5 -86t44.5 -84zM399 506q34 0 34 -27q0 -34 -19.5 -90t-53.5 -125t-79 -141.5t-95 -140t-101.5 -121.5t-100 -85.5t-88.5 -31.5q-24 0 -37 11.5t-13 31.5q0 10 3.5 18.5t7.5 14.5q12 -2 24.5 -3t21.5 -1 q43 0 87 28.5t83 71t67 84.5h-22q-1 137 -14.5 263t-38.5 233l75 10q49 -204 44 -434h1q45 69 84 143.5t65.5 148t33.5 137.5q9 3 17 4t14 1z" />
<glyph unicode="&#x1ef8;" horiz-adv-x="539" d="M345 902q29 0 49.5 -14t39.5 -28t43 -14t43 16t35 38l22 -4q-8 -26 -25 -50.5t-40.5 -40t-51.5 -15.5q-29 0 -50.5 14t-41 28t-42.5 14q-22 0 -41.5 -15.5t-36.5 -37.5l-22 4q8 23 24 47.5t40 41t55 16.5zM232 247l-118 442l80 7l62 -246q7 -34 17 -74.5t12 -76.5h2 q19 36 47 77.5t49 74.5l164 245l59 -6l5 -8l-305 -438l-52 -244h-75z" />
<glyph unicode="&#x1ef9;" horiz-adv-x="427" d="M227 722q27 0 47 -14t38 -28t40 -14q20 0 37.5 16t33.5 38l23 -4q-8 -26 -24.5 -51.5t-39 -42.5t-48.5 -17t-47 14t-40 28.5t-39 14.5q-19 0 -37 -16t-35 -38l-22 4q8 24 24 49.5t38.5 43t50.5 17.5zM399 506q34 0 34 -27q0 -34 -19.5 -90t-53.5 -125t-79 -141.5 t-95 -140t-101.5 -121.5t-100 -85.5t-88.5 -31.5q-24 0 -37 11.5t-13 31.5q0 10 3.5 18.5t7.5 14.5q12 -2 24.5 -3t21.5 -1q43 0 87 28.5t83 71t67 84.5h-22q-1 137 -14.5 263t-38.5 233l75 10q49 -204 44 -434h1q45 69 84 143.5t65.5 148t33.5 137.5q9 3 17 4t14 1z" />
<glyph unicode="&#x2007;" />
<glyph unicode="&#x2013;" horiz-adv-x="517" d="M39 272l4 39h454l-5 -39h-453z" />
<glyph unicode="&#x2014;" horiz-adv-x="791" d="M36 272l7 39h732l-8 -39h-731z" />
<glyph unicode="&#x2018;" horiz-adv-x="228" d="M287 741q-26 -35 -51.5 -77.5t-40.5 -83.5q18 -1 28 -12.5t10 -28.5q0 -29 -23 -52t-51 -23q-42 0 -42 44q0 24 14 57t36.5 69t48 69t49.5 57z" />
<glyph unicode="&#x2019;" horiz-adv-x="228" d="M96 481q26 35 51.5 77.5t40.5 83.5q-17 1 -27.5 12.5t-10.5 28.5q0 29 23 52t51 23q42 0 42 -44q0 -24 -14 -57t-36.5 -69t-48 -69t-49.5 -57z" />
<glyph unicode="&#x201a;" horiz-adv-x="228" d="M-42 -170q25 35 50.5 77.5t40.5 82.5q-17 2 -27 13.5t-10 28.5q0 28 22.5 51t51.5 23q41 0 41 -43q0 -24 -14 -57t-36 -69t-48 -69t-50 -57z" />
<glyph unicode="&#x201c;" horiz-adv-x="412" d="M287 741q-26 -35 -51.5 -77.5t-40.5 -83.5q18 -1 28 -12.5t10 -28.5q0 -29 -23 -52t-51 -23q-42 0 -42 44q0 24 14 57t36.5 69t48 69t49.5 57zM470 741q-25 -35 -50.5 -77.5t-40.5 -83.5q17 -1 27 -12.5t10 -28.5q0 -29 -22.5 -52t-51.5 -23q-42 0 -42 44q0 24 14 57 t36.5 69t48.5 69t49 57z" />
<glyph unicode="&#x201d;" horiz-adv-x="412" d="M280 482q25 35 50.5 77.5t40.5 82.5q-17 2 -27 13.5t-10 28.5q0 28 22.5 51t51.5 23q41 0 41 -43q0 -24 -14 -57t-36 -69t-48 -69t-50 -57zM96 482q26 35 51.5 77.5t40.5 82.5q-17 2 -27.5 13.5t-10.5 28.5q0 28 23 51t51 23q42 0 42 -43q0 -24 -14 -57t-36.5 -69 t-48 -69t-49.5 -57z" />
<glyph unicode="&#x201e;" horiz-adv-x="410" d="M-42 -170q25 35 50.5 77.5t40.5 82.5q-17 2 -27 13.5t-10 28.5q0 28 22.5 51t51.5 23q41 0 41 -43q0 -24 -14 -57t-36 -69t-48 -69t-50 -57zM140 -170q25 35 50.5 77.5t40.5 82.5q-17 2 -27 13.5t-10 28.5q0 28 22.5 51t51.5 23q41 0 41 -43q0 -24 -14 -57t-36.5 -69 t-48 -69t-49.5 -57z" />
<glyph unicode="&#x2020;" horiz-adv-x="505" d="M218 0l-35 -2l-6 8l18 160l82 298l-168 -9l-2 3q1 22 7 48l9 7l162 -9l25 185l4 3q15 2 30 3t32 1l6 -7l-55 -185l168 9l3 -3q0 -10 -1.5 -23t-4.5 -25l-11 -7l-163 9l-43 -298l-51 -160z" />
<glyph unicode="&#x2021;" horiz-adv-x="505" d="M167 -5l-7 8l60 187l-168 -14l-7 7q2 12 7 29t9 27l4 3l162 -16q3 31 5.5 62.5t8.5 61.5q7 27 17.5 56.5t20.5 59.5l-170 -15l-2 3q0 11 2.5 28t5.5 29l10 7l162 -16l20 187l4 3q17 2 33 3t35 1l6 -7l-58 -187l169 16l3 -3q-1 -10 -3.5 -27t-4.5 -29l-10 -8l-162 15 q-3 -30 -5 -59.5t-8 -56.5q-6 -30 -17 -61t-21 -63l169 16l6 -7q-2 -12 -7 -29t-9 -27l-3 -3l-164 14l-21 -187l-4 -4q-33 -2 -68 -4z" />
<glyph unicode="&#x2022;" horiz-adv-x="425" d="M191 166q-42 0 -65 24.5t-23 60.5q0 39 22 73.5t56.5 56.5t73.5 22t60.5 -22.5t21.5 -59.5q0 -40 -20.5 -75.5t-54 -57.5t-71.5 -22z" />
<glyph unicode="&#x2026;" horiz-adv-x="622" d="M133 66q0 -29 -23 -52.5t-51 -23.5q-19 0 -31.5 11.5t-12.5 30.5q0 28 24 51t52 23q18 0 30 -11t12 -29zM328 66q0 -29 -23 -52.5t-51 -23.5q-19 0 -31.5 11.5t-12.5 30.5q0 28 24 51t52 23q18 0 30 -11t12 -29zM523 66q0 -29 -23 -52.5t-51 -23.5q-19 0 -31.5 11.5 t-12.5 30.5q0 28 24 51t52 23q19 0 30.5 -11t11.5 -29z" />
<glyph unicode="&#x2030;" horiz-adv-x="1371" d="M453 555q0 -47 -16 -93t-45 -84t-69.5 -61t-89.5 -23q-59 0 -92.5 36t-33.5 106q0 48 16.5 94.5t45.5 84t69.5 60t88.5 22.5q60 0 93 -36.5t33 -105.5zM748 696l-423 -706h-46l422 706h47zM173 436q0 -99 72 -99q34 0 60.5 21t45 54.5t28 72t9.5 73.5q0 97 -73 97 q-34 0 -60.5 -21t-45 -54t-27.5 -71.5t-9 -72.5zM878 183q0 -47 -15.5 -93t-45 -84t-70 -61t-89.5 -23q-58 0 -91.5 36t-33.5 106q0 48 16 94.5t45.5 84t69.5 60t89 22.5q59 0 92 -36.5t33 -105.5zM1290 183q0 -47 -15.5 -93t-45 -84t-69.5 -61t-90 -23q-58 0 -91.5 36 t-33.5 106q0 48 16 94.5t45.5 84t70 60t88.5 22.5q59 0 92 -36.5t33 -105.5zM598 64q0 -99 72 -99q34 0 61 21t45 54.5t27.5 72t9.5 73.5q0 97 -72 97q-34 0 -61 -21t-45 -54t-27.5 -71.5t-9.5 -72.5zM1010 64q0 -99 72 -99q35 0 61.5 21t44.5 54.5t27.5 72t9.5 73.5 q0 97 -72 97q-34 0 -60.5 -21t-45 -54t-28 -71.5t-9.5 -72.5z" />
<glyph unicode="&#x2039;" horiz-adv-x="284" d="M62 282l5 20q50 39 101.5 87.5t107.5 106.5l18 -10q-34 -53 -74 -102t-81 -92q23 -43 42 -91t31 -102l-22 -11q-31 58 -61.5 107t-66.5 87z" />
<glyph unicode="&#x203a;" horiz-adv-x="284" d="M240 302l-5 -20q-50 -38 -101.5 -86.5t-107.5 -107.5l-18 11q34 53 74 102t82 91q-24 43 -43 91t-30 103l22 10q31 -57 61.5 -106t65.5 -88z" />
<glyph unicode="&#x2044;" horiz-adv-x="510" d="M625 700l-576 -710h-50l575 710h51z" />
<glyph unicode="&#x2070;" horiz-adv-x="466" d="M530 615q0 -53 -18 -102t-49.5 -87t-73 -60t-88.5 -22q-59 0 -94 37t-35 111q0 54 18 103t50 87.5t73.5 61t88.5 22.5q59 0 93.5 -38.5t34.5 -112.5zM234 490q0 -52 19.5 -80t56.5 -28q33 0 62 21t50.5 55t33.5 76t12 85q0 52 -19 80t-57 28q-33 0 -61.5 -20.5 t-50.5 -54.5t-34 -76t-12 -86z" />
<glyph unicode="&#x2074;" horiz-adv-x="402" d="M145 498l237 262l66 6l5 -6l-55 -258q34 2 66 6l-18 -50h-57l-23 -106h-57l23 106h-188zM197 502v-1q30 0 59.5 0.5t71.5 0.5h13l24 111q8 36 12.5 57t10.5 45h-1z" />
<glyph unicode="&#x2075;" horiz-adv-x="377" d="M132 358l15 43q18 -7 43.5 -11t46.5 -4q55 0 93.5 28t38.5 70q0 37 -25.5 54t-62.5 17q-18 0 -43 -4t-41 -10l-9 7l45 210h139q27 0 53 1t52 5l-15 -53h-188l-26 -121q15 3 33 4.5t31 1.5q50 0 85.5 -25t35.5 -76q0 -43 -26.5 -77t-71.5 -54t-103 -20q-27 0 -54.5 4.5 t-45.5 9.5z" />
<glyph unicode="&#x2076;" horiz-adv-x="409" d="M295 344q-58 0 -92.5 32t-34.5 102q0 55 21.5 107t60 92.5t88 64.5t104.5 24q16 0 30.5 -2t22.5 -6l-15 -44q-8 4 -20 6t-27 2q-38 0 -75.5 -17.5t-68 -54.5t-46.5 -94h2q21 16 49 24.5t54 8.5q54 0 85.5 -26t31.5 -73q0 -40 -22.5 -73t-61 -53t-86.5 -20zM330 551 q-24 0 -52.5 -11t-42.5 -31q-5 -21 -5 -41q0 -39 17 -61.5t55 -22.5q43 0 71.5 29.5t28.5 70.5q0 30 -18 48.5t-54 18.5z" />
<glyph unicode="&#x2077;" horiz-adv-x="351" d="M187 703l19 55h269l6 -7l-7 -33q-57 -49 -108.5 -108.5t-90 -125t-56.5 -132.5h-63q14 50 42.5 101t65 98.5t75.5 88.5t75 70v1h-108q-30 0 -60.5 -1.5t-58.5 -6.5z" />
<glyph unicode="&#x2078;" horiz-adv-x="398" d="M275 344q-62 0 -98.5 24t-36.5 63q0 38 35.5 71.5t96.5 54.5v1q-28 17 -49 40t-21 55t22 58t57.5 40.5t77.5 14.5q56 0 88 -25t32 -61q0 -35 -31.5 -67.5t-82.5 -52.5v-2q31 -15 57 -40.5t26 -61.5q0 -31 -22.5 -56.5t-61.5 -40.5t-89 -15zM349 729q-35 0 -61.5 -19 t-26.5 -51q0 -24 18.5 -44.5t47.5 -34.5q42 17 68 43t26 52q0 25 -20.5 39.5t-51.5 14.5zM305 534q-25 -8 -49 -22.5t-40 -33.5t-16 -41q0 -25 21.5 -41t62.5 -16q47 0 75.5 21t28.5 49q0 27 -24 47t-59 37z" />
<glyph unicode="&#x2079;" horiz-adv-x="409" d="M290 510q-52 0 -82 26t-30 72q0 42 22.5 78t60.5 58t86 22q56 0 93.5 -35.5t37.5 -110.5q0 -55 -21.5 -105t-59 -88.5t-86.5 -60.5t-103 -22q-14 0 -29 1.5t-23 3.5l9 42q9 -1 21.5 -2.5t24.5 -1.5q46 0 86 22t68.5 59.5t37.5 83.5q-23 -22 -54 -32t-59 -10zM343 725 q-29 0 -51.5 -15.5t-35.5 -40.5t-13 -53q0 -31 17.5 -49.5t51.5 -18.5q25 0 51.5 9.5t45.5 31.5q5 25 5 46q0 41 -18 65.5t-53 24.5zM427 619l-7 -14q4 6 7 14z" />
<glyph unicode="&#x207f;" horiz-adv-x="458" d="M207 568q28 56 73 86.5t91 30.5q40 0 62.5 -22.5t22.5 -61.5q0 -23 -7.5 -56.5t-21.5 -92.5q-8 -36 -12 -62.5t-5 -49.5t0 -50h-62q-1 45 5 87t17 92q11 51 14.5 75t3.5 36q0 52 -49 52q-35 0 -66.5 -26.5t-56 -73.5t-38.5 -109t-15 -133h-62q0 33 3.5 68.5t13.5 85.5 t27 126l4 107l69 8q1 -25 -3 -54.5t-11 -62.5h3z" />
<glyph unicode="&#x2080;" horiz-adv-x="466" d="M440 191q0 -53 -18 -102t-49.5 -87t-73 -60t-88.5 -22q-59 0 -94 37t-35 111q0 54 18 103t50 87.5t73.5 61t88.5 22.5q59 0 93.5 -38.5t34.5 -112.5zM144 66q0 -52 19.5 -80t56.5 -28q33 0 62 21t50.5 55t33.5 76t12 85q0 52 -19 80t-57 28q-33 0 -61.5 -20.5 t-50.5 -54.5t-34 -76t-12 -86z" />
<glyph unicode="&#x2081;" horiz-adv-x="245" d="M162 282h-1l-76 -14l-2 35l145 41l5 -6l-87 -408h-60l57 267q5 27 9.5 47t9.5 38z" />
<glyph unicode="&#x2082;" horiz-adv-x="366" d="M28 -70l3 45q49 29 97 60t86.5 63.5t61.5 66.5t23 69q0 31 -20 48.5t-55 17.5q-28 0 -61.5 -11t-65.5 -33l4 47q28 18 68.5 29.5t77.5 11.5q52 0 85 -25.5t33 -71.5q0 -40 -24.5 -78t-64.5 -72.5t-88 -64.5t-96 -56h119q54 0 105 6l-17 -52h-271z" />
<glyph unicode="&#x2083;" horiz-adv-x="356" d="M114 309q21 12 58.5 22.5t73.5 10.5q46 0 76 -20t30 -53q0 -28 -19 -53.5t-51 -45t-71 -30.5q53 -2 84.5 -24t31.5 -61q0 -38 -26.5 -68.5t-71 -48.5t-100.5 -18q-27 0 -55.5 4t-47.5 10l14 41q17 -6 42.5 -10t48.5 -4q55 0 93.5 24.5t38.5 60.5q0 34 -31 47t-72 13 q-25 0 -51 -4l10 41q76 13 121.5 43t45.5 67q0 21 -17 33t-49 12q-27 0 -57 -8.5t-54 -21.5z" />
<glyph unicode="&#x2084;" horiz-adv-x="402" d="M55 76l237 262l66 6l5 -6l-55 -258q34 2 66 6l-18 -50h-57l-23 -106h-57l23 106h-188zM107 80v-1q30 0 59.5 0.5t71.5 0.5h13l24 111q8 36 12.5 57t10.5 45h-1z" />
<glyph unicode="&#x2085;" horiz-adv-x="377" d="M42 -66l15 43q18 -7 43.5 -11t46.5 -4q55 0 93.5 28t38.5 70q0 37 -25.5 54t-62.5 17q-18 0 -43 -4t-41 -10l-9 7l45 210h139q27 0 53 1t52 5l-15 -53h-188l-26 -121q15 3 33 4.5t31 1.5q50 0 85.5 -25t35.5 -76q0 -43 -26.5 -77t-71.5 -54t-103 -20q-27 0 -54.5 4.5 t-45.5 9.5z" />
<glyph unicode="&#x2086;" horiz-adv-x="409" d="M205 -80q-58 0 -92.5 32t-34.5 102q0 55 21.5 107t60 92.5t88 64.5t104.5 24q16 0 30.5 -2t22.5 -6l-15 -44q-8 4 -20 6t-27 2q-38 0 -75.5 -17.5t-68 -54.5t-46.5 -94h2q21 16 49 24.5t54 8.5q54 0 85.5 -26t31.5 -73q0 -40 -22.5 -73t-61 -53t-86.5 -20zM240 127 q-24 0 -52.5 -11t-42.5 -31q-5 -21 -5 -41q0 -39 17 -61.5t55 -22.5q43 0 71.5 29.5t28.5 70.5q0 30 -18 48.5t-54 18.5z" />
<glyph unicode="&#x2087;" horiz-adv-x="351" d="M97 281l19 55h269l6 -7l-7 -33q-57 -49 -108.5 -108.5t-90 -125t-56.5 -132.5h-63q14 50 42.5 101t65 98.5t75.5 88.5t75 70v1h-108q-30 0 -60.5 -1.5t-58.5 -6.5z" />
<glyph unicode="&#x2088;" horiz-adv-x="398" d="M185 -80q-62 0 -98.5 24t-36.5 63q0 38 35.5 71.5t96.5 54.5v1q-28 17 -49 40t-21 55t22 58t57.5 40.5t77.5 14.5q56 0 88 -25t32 -61q0 -35 -31.5 -67.5t-82.5 -52.5v-2q31 -15 57 -40.5t26 -61.5q0 -31 -22.5 -56.5t-61.5 -40.5t-89 -15zM259 305q-35 0 -61.5 -19 t-26.5 -51q0 -24 18.5 -44.5t47.5 -34.5q42 17 68 43t26 52q0 25 -20.5 39.5t-51.5 14.5zM215 110q-25 -8 -49 -22.5t-40 -33.5t-16 -41q0 -25 21.5 -41t62.5 -16q47 0 75.5 21t28.5 49q0 27 -24 47t-59 37z" />
<glyph unicode="&#x2089;" horiz-adv-x="409" d="M200 86q-52 0 -82 26t-30 72q0 42 22.5 78t60.5 58t86 22q56 0 93.5 -35.5t37.5 -110.5q0 -55 -21.5 -105t-59 -88.5t-86.5 -60.5t-103 -22q-14 0 -29 1.5t-23 3.5l9 42q9 -1 21.5 -2.5t24.5 -1.5q46 0 86 22t68.5 59.5t37.5 83.5q-23 -22 -54 -32t-59 -10zM253 301 q-29 0 -51.5 -15.5t-35.5 -40.5t-13 -53q0 -31 17.5 -49.5t51.5 -18.5q25 0 51.5 9.5t45.5 31.5q5 25 5 46q0 41 -18 65.5t-53 24.5zM337 195l-7 -14q4 6 7 14z" />
<glyph unicode="&#x20ac;" horiz-adv-x="605" d="M59 249l12 37h76q6 51 21 99h-66l13 37h66q30 78 80 140t114 98t134 36q38 0 76.5 -11t64.5 -33l-29 -68q-23 22 -56.5 35t-68.5 13q-49 0 -94.5 -27.5t-82 -75t-60.5 -107.5h231l-11 -37h-233q-15 -48 -19 -99h219l-11 -37h-210v-5q0 -93 36.5 -141.5t105.5 -48.5 q41 0 84 15t77 38l-5 -63q-39 -27 -87 -40.5t-93 -13.5q-94 0 -147 58.5t-53 178.5q0 11 1 22h-85z" />
<glyph unicode="&#x2122;" horiz-adv-x="590" d="M584 689l4 -4l-22 -225h-38l9 85q2 21 5 49t7 51h-1q-8 -17 -13.5 -29t-13 -28t-22.5 -44l-44 -84h-44l-7 84q-3 26 -4 40.5t-1.5 27.5t-0.5 34h-1q-5 -16 -7 -23.5t-4 -14.5t-6.5 -21t-14.5 -43l-28 -84h-33l75 227l52 2l10 -97q2 -20 2.5 -42t-0.5 -53h1q12 28 23 52.5 t20 42.5l51 95zM212 460h-40l42 197q-18 -1 -35.5 -1.5t-33.5 -1.5l9 32h172l-4 -32q-16 1 -33 1.5t-35 1.5z" />
<glyph unicode="&#x2202;" horiz-adv-x="625" d="M406 756q106 0 156.5 -70.5t50.5 -201.5q0 -99 -26 -188t-73.5 -158t-114.5 -108.5t-149 -39.5q-88 0 -132 45.5t-44 121.5q0 59 24 111.5t67 92.5t99.5 62.5t121.5 22.5q45 0 80.5 -11t63.5 -28q3 32 3 64q0 113 -38 169.5t-107 56.5q-39 0 -81 -14.5t-72 -35.5l-18 51 q35 23 85 40.5t104 17.5zM153 170q0 -121 115 -121q67 0 118.5 41t85 108.5t49.5 145.5q-26 19 -58 31t-78 12q-69 0 -121 -28.5t-81.5 -77.5t-29.5 -111z" />
<glyph unicode="&#x220f;" horiz-adv-x="741" d="M826 678l-15 -54h-117l-162 -764h-73l163 764h-241l-162 -764h-73l163 764h-116l11 58l615 4z" />
<glyph unicode="&#x2211;" horiz-adv-x="567" d="M43 -71l329 355l-178 355l25 47h454l7 -8l-15 -54l-393 6l172 -335l-5 -22l-314 -336l397 6l-15 -62h-459z" />
<glyph unicode="&#x2212;" d="M526 322h-450l9 47q31 1 76 1.5t97 1.5t104 1t97.5 0.5t77.5 0.5l3 -6z" />
<glyph unicode="&#x221a;" horiz-adv-x="601" d="M733 742l-382 -742h-83l-72 440h-86l12 56h138l64 -437l347 697l57 -6z" />
<glyph unicode="&#x221e;" horiz-adv-x="813" d="M776 382q0 -55 -27.5 -102.5t-74 -76t-102.5 -28.5q-46 0 -75.5 18t-48 45t-31.5 56q-47 -58 -97.5 -88.5t-106.5 -30.5q-60 0 -97 36t-37 99q0 55 27 102t71 75t98 28q44 0 74 -18t50.5 -46t35.5 -59q49 61 100 92t107 31q60 0 97 -35.5t37 -97.5zM627 467 q-46 0 -90 -31.5t-84 -86.5q15 -34 30.5 -62.5t38.5 -46t58 -17.5q37 0 69.5 21t52 54.5t19.5 72.5q0 44 -26 70t-68 26zM134 323q0 -46 27 -72.5t69 -26.5q45 0 88.5 31t81.5 80q-14 32 -31 62.5t-42.5 50t-62.5 19.5q-38 0 -67 -20.5t-46 -53t-17 -70.5z" />
<glyph unicode="&#x222b;" horiz-adv-x="495" d="M121 -256q-34 0 -63 8t-55 22l22 62q23 -17 49.5 -27.5t53.5 -10.5q51 0 76 34.5t33 92t9 128.5q3 48 3.5 113.5t1.5 151.5q1 96 7 176t25 139t60 91t113 32q34 0 63 -8t55 -22l-22 -62q-24 17 -50 27.5t-54 10.5q-42 0 -66.5 -23.5t-36 -66t-15.5 -100.5t-5 -127 q-2 -63 -2.5 -128t-2.5 -140q-3 -114 -19 -198t-57 -129.5t-123 -45.5z" />
<glyph unicode="&#x2248;" d="M453 364q-14 0 -40 7t-57.5 17.5t-62 21t-53 17.5t-30.5 7q-14 0 -38 -25t-54 -57l-28 22q18 23 40.5 49t46.5 45t46 19q14 0 40 -7t57.5 -17.5t61.5 -21t53 -17.5t31 -7q13 0 37.5 24t56.5 57l26 -21q-18 -23 -40.5 -49.5t-46.5 -45t-46 -18.5zM410 164q-14 0 -40 7 t-57.5 17t-62 20.5t-53 17.5t-31.5 7q-13 0 -37 -24.5t-55 -56.5l-27 22q18 23 40.5 49t46.5 45t46 19q14 0 40 -7.5t57.5 -17.5t61.5 -20.5t53 -17.5t31 -7q13 0 37.5 24t55.5 56l27 -21q-18 -23 -40.5 -49t-46.5 -44.5t-46 -18.5z" />
<glyph unicode="&#x2260;" d="M117 123l78 112h-138l9 47q30 1 72.5 1.5t90.5 1.5l96 138h-228l10 47q42 1 111.5 2t141.5 2l88 127l8 3l34 -20l-76 -110q87 1 144 1l4 -6l-15 -46h-168l-96 -137q67 0 130.5 0.5t104.5 0.5l3 -6l-14 -46h-258l-90 -129l-9 -2z" />
<glyph unicode="&#x2264;" d="M174 419l341 -139l-11 -51l-414 172l6 33l7 7q28 10 73.5 25.5t99.5 33.5t110 36.5t107 34.5t89 28l-11 -52zM476 79h-450l9 47q31 1 76 1.5t97 1l104 1t97.5 1t77.5 0.5l4 -6z" />
<glyph unicode="&#x2265;" d="M61 228l12 52l403 139l-345 128l10 52q37 -14 92.5 -34.5t115.5 -43.5t114.5 -44t90.5 -36l3 -7l-8 -38zM475 79h-450l10 47q31 1 76 1.5t96.5 1t103.5 1t98 1t77 0.5l4 -6z" />
<glyph unicode="&#x25ca;" horiz-adv-x="600" d="M69 327l6 30l286 333l61 10l149 -343l-7 -31l-287 -326l-60 -10zM380 649l-255 -308l128 -299l6 1l258 299l-130 307h-7z" />
<glyph unicode="&#x25fc;" horiz-adv-x="505" d="M0 505h505v-505h-505v505z" />
<glyph unicode="&#xfb00;" horiz-adv-x="606" d="M241 564q-4 -16 -6.5 -34t-6.5 -38h198q5 26 9 51.5t7 39.5q8 37 23 66q-18 14 -42 23.5t-56 9.5q-48 0 -80.5 -27t-45.5 -91zM-12 -214l-25 30q27 34 52.5 82t39.5 116l92 432l-74 3l7 32l77 11q3 20 6 39.5t6 34.5q14 61 45 98.5t74 54.5t91 17q41 0 72.5 -9.5 t53.5 -22.5q53 52 137 52q64 0 108 -28l-30 -61q-16 13 -39 22t-53 9q-49 0 -75.5 -30t-38.5 -84q-3 -15 -8 -43.5t-9 -48.5h133l5 -9l-12 -40l-134 3l-89 -421q-18 -83 -52.5 -140.5t-90.5 -100.5l-25 30q26 34 52 82t40 116l92 434h-196l-89 -418q-18 -84 -52.5 -141.5 t-90.5 -100.5z" />
<glyph unicode="&#xfb01;" horiz-adv-x="529" d="M-12 -214l-25 30q27 34 52.5 82t39.5 116l92 432l-74 3l7 32l77 11q5 25 9.5 52t6.5 38q16 81 71.5 127.5t139.5 46.5q47 0 85 -13.5t64 -37.5l-47 -51q-20 17 -47.5 30.5t-67.5 13.5q-55 0 -84.5 -30t-41.5 -85q-1 -7 -4.5 -24t-7 -36t-5.5 -31h172l82 14 q0 -54 -11 -117t-26 -130t-26 -133t-11 -126h-73q0 54 10 121t27 146l20 92l6 84l-178 3l-89 -418q-18 -84 -52.5 -141.5t-90.5 -100.5z" />
<glyph unicode="&#xfb02;" horiz-adv-x="534" d="M245 583q-1 -7 -4.5 -24t-7 -36t-5.5 -31h198l25 117l4 67q-16 10 -37 16t-47 6q-55 0 -84.5 -30t-41.5 -85zM-12 -214l-25 30q27 34 52.5 82t39.5 116l92 432l-74 3l7 32l77 11q5 25 9.5 52t6.5 38q16 81 71.5 127.5t139.5 46.5q40 0 75 -11v1l82 10q0 -57 -13 -131.5 t-32 -157.5t-37.5 -167t-31.5 -161t-13 -139h-73q0 36 5.5 82.5t19 117.5t36.5 180l14 63l-196 3l-89 -418q-18 -84 -52.5 -141.5t-90.5 -100.5z" />
<glyph unicode="&#xfb03;" horiz-adv-x="794" d="M241 564q-4 -16 -6.5 -34t-6.5 -38h193q5 25 9.5 52t6.5 38q8 39 26 71q-19 12 -42 20.5t-53 8.5q-49 0 -81.5 -26.5t-45.5 -91.5zM-12 -214l-25 30q27 34 52.5 82t39.5 116l92 432l-74 3l7 32l77 11q3 20 6 39t6 35q14 61 45 98.5t74 54.5t91 17q41 0 72.5 -9t53.5 -21 q56 50 143 50q47 0 85.5 -13.5t64.5 -37.5l-47 -51q-20 17 -48 30.5t-68 13.5q-55 0 -84 -30t-41 -85q-2 -7 -5 -24t-6.5 -36t-6.5 -31h173l82 14q0 -54 -11.5 -117t-26 -130t-25.5 -133t-11 -126h-73q0 54 10 121t27 146l20 92l5 84l-178 3l-89 -418q-17 -84 -51.5 -141.5 t-91.5 -100.5l-24 30q26 34 52 82t40 116l92 432h-192l-89 -418q-18 -84 -52.5 -141.5t-90.5 -100.5z" />
<glyph unicode="&#xfb04;" horiz-adv-x="803" d="M514 583q-1 -7 -4.5 -24t-7 -36t-5.5 -31h198l26 117l4 67q-17 10 -38 16t-47 6q-55 0 -84.5 -30t-41.5 -85zM241 564q-4 -16 -6.5 -34t-6.5 -38h198q5 25 9.5 52t6.5 38q7 37 23 67q-18 14 -42 23.5t-55 9.5q-49 0 -81 -26.5t-46 -91.5zM-12 -214l-25 30q27 34 52.5 82 t39.5 116l92 432l-74 3l7 32l77 11q3 20 6 39t6 35q22 92 80 131t130 39q42 0 74 -10t53 -23q58 53 147 53q40 0 76 -11v1l81 10q0 -57 -12.5 -131.5t-31.5 -157.5t-38 -167t-32 -161t-13 -139h-72q0 36 5.5 82.5t18.5 117.5t37 180l13 63l-196 3l-89 -418 q-18 -84 -52 -141.5t-91 -100.5l-25 30q27 34 52.5 82t40.5 116l91 432h-196l-89 -418q-18 -84 -52.5 -141.5t-90.5 -100.5z" />
<glyph unicode="&#xfb06;" horiz-adv-x="753" d="M393 480l-22 -62q-24 15 -52 24.5t-58 9.5q-48 0 -78 -24.5t-30 -60.5q0 -30 20 -49t49.5 -34t59 -32t50 -42.5t20.5 -65.5q0 -44 -26.5 -79t-71 -55t-100.5 -20q-34 0 -71 8t-65 26l22 61q29 -21 65 -31t63 -10q47 0 78.5 25t31.5 62q0 30 -20 48.5t-50 33t-59.5 31.5 t-50 42t-20.5 65q0 47 27.5 81.5t73 54t98.5 19.5q27 0 55 -6q-6 15 -8.5 30t-2.5 28q0 53 28.5 96t75.5 67.5t102 24.5q64 0 100 -32t36 -82q0 -38 -21.5 -75t-57.5 -61h173l5 -8l-11 -38l-139 1q-22 -106 -36 -169t-20.5 -96.5t-9 -48.5t-2.5 -26q0 -35 15.5 -49.5 t44.5 -14.5q21 0 43 6.5t42 18.5l-2 -51q-23 -13 -53 -22t-63 -9q-50 0 -76 24t-26 77q0 11 1.5 22.5t5.5 33t11.5 58.5t20.5 97t32 150h-71l7 32q54 17 84 55.5t30 80.5q0 36 -23 55t-60 19t-68 -19t-49.5 -51t-18.5 -72q0 -38 22 -72z" />
<glyph horiz-adv-x="435" d="M13 41q0 52 18.5 102.5t53 91.5t82 65.5t105.5 24.5q21 0 50.5 -4t55.5 -13l-32 -137q-17 -77 -27 -132t-9 -110h-62q0 36 3.5 70.5t14.5 88.5q-18 -37 -44 -75.5t-58 -64.5t-68 -26q-35 0 -59 29.5t-24 89.5zM78 52q0 -36 12 -57t33 -21q25 0 51.5 26t50.5 66t43 83 t28 76q5 21 11 48q-27 11 -53 11q-36 0 -67.5 -21t-56 -54.5t-38.5 -74.5t-14 -82z" />
<glyph horiz-adv-x="441" d="M107 405l4 107l70 8q1 -41 -8.5 -99t-24.5 -124t-31 -134q32 69 76.5 115.5t96.5 46.5q38 0 62.5 -29t24.5 -89q0 -50 -18.5 -100.5t-53 -92t-83 -67t-108.5 -25.5q-23 0 -54 4.5t-53 14.5q6 30 13.5 64t19 86t29.5 135zM81 -1l1 11q-4 -19 -8 -36q26 -10 53 -10 q39 0 72.5 20t58.5 53.5t39.5 74t14.5 81.5q0 37 -12.5 59t-35.5 22q-22 0 -45.5 -19t-45.5 -50t-41 -67.5t-32.5 -73t-18.5 -65.5z" />
<glyph horiz-adv-x="381" d="M283 29l15 -24q-28 -37 -72 -60t-88 -23q-57 0 -91 38.5t-34 104.5q0 51 18.5 97.5t51 83t75 58t90.5 21.5q23 0 46.5 -5t41.5 -14l-18 -53q-16 12 -35.5 19.5t-40.5 7.5q-34 0 -63.5 -18t-52 -49t-35.5 -68t-13 -75q0 -46 20.5 -74t60.5 -28q34 0 66.5 18t57.5 43z" />
<glyph horiz-adv-x="440" d="M315 -70h-62q-1 30 3.5 68.5t15.5 96.5q-19 -41 -46 -81t-60.5 -66t-72.5 -26q-34 0 -59 29.5t-25 91.5q0 52 19.5 102t56 91t86 65t109.5 24q19 0 39 -2l18 82l4 107l70 8q1 -44 -9 -102.5t-24.5 -123t-29.5 -130t-24.5 -126t-8.5 -108.5zM74 55q0 -38 12.5 -59.5 t34.5 -21.5t45 18.5t44.5 48.5t40 65t31.5 68.5t18 58.5v-3l9 44q-24 10 -46 10q-40 0 -74 -20.5t-60 -53.5t-40.5 -73.5t-14.5 -81.5z" />
<glyph horiz-adv-x="391" d="M292 29l16 -24q-27 -39 -71.5 -61t-89.5 -22q-60 0 -96.5 39t-36.5 108q0 49 18.5 95t51 82.5t73 57.5t84.5 21q45 0 71 -21.5t26 -58.5q0 -34 -26 -66t-83 -54.5t-149 -27.5q-1 -13 -1 -25q0 -47 23 -75.5t64 -28.5q33 0 66 17.5t60 43.5zM231 284q-32 0 -61.5 -23 t-52 -60t-32.5 -77q75 7 117 26.5t59 44.5t17 47q0 42 -47 42z" />
<glyph horiz-adv-x="276" d="M-35 -238l-22 25q22 27 43 65t33 92l71 332l-63 2l5 27l66 8q4 20 7 38.5t6 32.5q13 64 56 100t110 36q55 0 93 -21l-25 -51q-14 9 -33.5 16t-44.5 7q-41 0 -63.5 -22.5t-31.5 -62.5q-2 -13 -5.5 -31t-7.5 -42h112l5 -7l-9 -33l-116 3l-67 -319q-15 -68 -43 -114.5 t-76 -80.5z" />
<glyph horiz-adv-x="378" d="M92 -268q-73 0 -112.5 27t-39.5 67q0 31 21.5 52.5t52.5 36.5l17 -16q-14 -13 -22.5 -27t-8.5 -30q0 -30 27 -50.5t76 -20.5t83 20.5t34 50.5q0 19 -18.5 33t-57.5 32q-32 14 -52.5 27t-20.5 33q0 23 24.5 42t55.5 34v2q-5 -1 -10 -1t-11 1q-43 1 -72 30t-29 79 q0 47 24.5 86t66 62t90.5 23q37 0 62 0.5t44 2.5t39 6q7 -7 7 -20q0 -10 -7.5 -19.5t-27.5 -9.5q-15 0 -31.5 4t-34.5 9l-1 -1q22 -11 35.5 -33t13.5 -57q0 -42 -18 -73t-44.5 -54t-53 -40t-44 -30t-17.5 -25t18 -21.5t31 -14.5q43 -18 73 -41.5t30 -57.5q0 -29 -23.5 -56 t-66 -44.5t-102.5 -17.5zM250 213q0 34 -15.5 54.5t-42.5 20.5t-51 -20.5t-38.5 -51.5t-14.5 -64q0 -35 16.5 -54t43.5 -19q30 0 53 21t36 52t13 61z" />
<glyph horiz-adv-x="458" d="M86 -70h-61q-1 29 3.5 67.5t15 94t27.5 134.5l38 179l5 107l70 8q0 -61 -17 -143t-37 -169h1q31 58 76.5 87.5t91.5 29.5q39 0 59.5 -22t20.5 -60q0 -22 -7.5 -56t-22.5 -101q-11 -52 -13.5 -85t-1.5 -71h-63q-1 50 8 101.5t21 107.5q7 33 9 50.5t2 26.5q0 29 -10 42.5 t-35 13.5q-38 0 -70.5 -28.5t-57 -76.5t-38 -109t-14.5 -128z" />
<glyph horiz-adv-x="214" d="M172 490q0 -22 -16.5 -42t-41.5 -20q-15 0 -24 9.5t-9 23.5q0 23 18.5 42.5t40.5 19.5q15 0 23.5 -9t8.5 -24zM87 -70h-62q-1 47 6.5 97t21.5 111l16 72l4 107l69 8q1 -42 -7 -91t-19.5 -101t-20.5 -103.5t-8 -99.5z" />
<glyph horiz-adv-x="202" d="M172 490q0 -22 -16.5 -42t-41.5 -20q-15 0 -24 9.5t-9 23.5q0 23 18.5 42.5t40.5 19.5q15 0 23.5 -9t8.5 -24zM-50 -270l-22 25q22 29 43 66.5t33 90.5l64 298l5 107l70 8q0 -27 -4 -58.5t-13 -75.5t-23.5 -108.5t-34.5 -157.5q-14 -68 -42.5 -114t-75.5 -81z" />
<glyph horiz-adv-x="422" d="M375 259q0 -31 -22 -61t-57 -56t-74 -44q23 -38 56 -84.5t67 -83.5h-78q-26 32 -55 75.5t-54 92.5q39 21 74 45.5t57 50t22 51.5q0 35 -36 35q-35 0 -68 -31.5t-60 -83.5t-43.5 -113.5t-17.5 -121.5h-61q-1 29 3.5 67.5t15 94t27.5 134.5l38 179l5 107l70 8 q0 -43 -9.5 -99.5t-23.5 -119.5t-29 -126h1q31 72 81 111t99 39q36 0 54 -19t18 -47z" />
<glyph horiz-adv-x="212" d="M86 -70h-61q-1 29 3.5 67.5t15 94t27.5 134.5l38 179l5 107l70 8q0 -44 -9.5 -102.5t-24.5 -123t-30 -130t-24.5 -126t-9.5 -108.5z" />
<glyph horiz-adv-x="692" d="M130 208q28 56 73.5 86.5t88.5 30.5q39 0 60 -22.5t21 -61.5q0 -13 -3 -30q29 56 73.5 85t86.5 29q41 0 62 -22t21 -61q0 -25 -7.5 -59t-17.5 -79q-13 -55 -17 -93.5t-4 -80.5h-61q-1 55 5.5 94t15.5 82q7 35 12.5 65.5t5.5 49.5q0 23 -10 37t-35 14q-43 0 -83 -42 t-65.5 -119t-24.5 -181h-62q0 45 6 87t16 92q11 50 14.5 73t3.5 35q0 27 -10.5 41t-35.5 14q-33 0 -64 -27t-55 -74t-38.5 -109t-14.5 -132h-62q-1 33 3 68.5t14 85.5t26 126l5 107l69 8q1 -25 -3 -54.5t-11 -62.5h2z" />
<glyph horiz-adv-x="458" d="M130 208q28 56 73.5 86.5t91.5 30.5q39 0 61.5 -22.5t22.5 -61.5q0 -23 -7 -56.5t-21 -92.5q-8 -36 -12 -62.5t-5.5 -49.5t-0.5 -50h-61q-1 45 5 87t17 92q11 51 14.5 75t3.5 36q0 52 -49 52q-35 0 -67 -26.5t-56.5 -73.5t-38.5 -109t-14 -133h-62q-1 33 3 68.5t14 85.5 t26 126l5 107l69 8q1 -25 -3 -54.5t-11 -62.5h2z" />
<glyph horiz-adv-x="425" d="M359 183q0 -47 -16 -93t-45 -84t-69.5 -61t-89.5 -23q-58 0 -91.5 36t-33.5 106q0 48 16 94.5t45.5 84t69.5 60t88 22.5q60 0 93 -36.5t33 -105.5zM79 64q0 -99 72 -99q34 0 60.5 21t45 54.5t28 72t9.5 73.5q0 97 -72 97q-35 0 -61.5 -21t-44.5 -54t-27.5 -71.5 t-9.5 -72.5z" />
<glyph horiz-adv-x="447" d="M117 -78q-23 0 -47 4q-10 -52 -17 -99.5t-7 -86.5h-61q-1 27 3 62.5t14.5 90t28.5 138.5l38 179l5 107l70 8q0 -32 -5.5 -72t-14.5 -85q19 38 44.5 74.5t57 59.5t68.5 23t62 -29t25 -89q0 -51 -19 -101.5t-54 -92t-83.5 -66.5t-107.5 -25zM269 274q-26 0 -53.5 -25.5 t-52 -64.5t-43.5 -82.5t-28 -79.5l-6 -24t-5 -24q26 -10 51 -10q39 0 72 21t58.5 55t39.5 74.5t14 80.5q0 37 -12.5 58t-34.5 21z" />
<glyph horiz-adv-x="436" d="M100 -78q-37 0 -62 30t-25 91q0 51 19 101.5t54.5 91t85 65t110.5 24.5q21 0 48 -4t54 -14l-78 -340q-14 -62 -23.5 -123t-9.5 -104h-62q-1 44 10.5 113.5t38.5 186.5l9 38q-19 -36 -44.5 -72t-57 -60t-67.5 -24zM78 53q0 -36 12 -57.5t35 -21.5q26 0 53 24t51.5 61.5 t43 80t28.5 78.5l12 56q-25 10 -50 10q-39 0 -72.5 -21t-59 -54.5t-39.5 -74.5t-14 -81z" />
<glyph horiz-adv-x="323" d="M87 -70h-62q-1 45 6.5 96t20.5 112l16 72l5 107l69 8q1 -30 -4.5 -66t-13.5 -74h2q29 74 68 107t79 33q17 0 31.5 -5t23.5 -13l-32 -56q-21 10 -43 10q-37 0 -67 -29t-52 -77.5t-34.5 -107t-12.5 -117.5z" />
<glyph horiz-adv-x="369" d="M306 306l-17 -53q-21 12 -46 19.5t-51 7.5q-41 0 -64.5 -18t-23.5 -44q0 -24 17.5 -38.5t43 -26t51 -25t43 -34t17.5 -52.5q0 -35 -21.5 -62t-59 -42.5t-85.5 -15.5q-27 0 -59 6.5t-56 20.5l17 52q25 -17 55.5 -25t54.5 -8q39 0 65.5 18t26.5 45q0 23 -17.5 37.5 t-43.5 26t-52 25t-43.5 33.5t-17.5 53q0 35 22.5 62t59.5 42t82 15q28 0 55 -5t47 -14z" />
<glyph horiz-adv-x="307" d="M270 279l-118 1q-17 -78 -27 -126t-15.5 -74t-7.5 -38.5t-2 -20.5q0 -51 52 -51q18 0 36.5 5.5t34.5 13.5v-42q-20 -10 -44.5 -17.5t-54.5 -7.5q-89 0 -89 84q0 10 2.5 23.5t8 41t16.5 77.5t29 133l-63 1l6 27l65 8l35 92l41 4l6 -7l-21 -89h115l5 -6z" />
<glyph horiz-adv-x="445" d="M29 9q0 19 10 66.5t28 134.5l6 107l68 8q2 -55 -8 -102t-19 -90q-8 -39 -12.5 -66t-4.5 -42q0 -22 10.5 -35.5t35.5 -13.5q39 0 70.5 31t54.5 82t34.5 111t9.5 117l64 8q0 -56 -13 -117t-29 -143q-6 -33 -10.5 -66t-3.5 -69h-62q0 29 2.5 53.5t6.5 50.5h-1 q-28 -57 -71 -84.5t-83 -27.5q-39 0 -61 23t-22 64z" />
<glyph horiz-adv-x="366" d="M79 -70q-3 109 -16.5 207.5t-36.5 179.5l65 8q21 -74 32.5 -159.5t10.5 -177.5h2q37 55 69 112.5t53 113t26 104.5q11 7 27 7q12 0 21 -5.5t9 -21.5q0 -25 -15.5 -67t-42.5 -93.5t-62.5 -105.5t-75.5 -102h-66z" />
<glyph horiz-adv-x="572" d="M516 325q12 0 20.5 -5.5t8.5 -21.5q0 -25 -13.5 -67t-38.5 -93.5t-58 -105.5t-72 -102h-67q2 79 -0.5 156t-9.5 149h-1q-19 -72 -61 -153t-95 -152h-67q-1 116 -11 215t-25 172l66 7q13 -67 20.5 -152.5t5.5 -185.5h1q55 82 91.5 169t44.5 162h73q12 -64 19.5 -148.5 t5.5 -182.5h1q54 81 90.5 169.5t43.5 162.5q12 7 28 7z" />
<glyph horiz-adv-x="335" d="M-43 -70q23 56 61 108t92 95q-15 48 -34.5 95.5t-49.5 88.5l63 8q26 -34 43 -76t32 -87q34 31 58 71.5t33 84.5q10 7 28 7q13 0 21 -5.5t8 -18.5q0 -19 -18.5 -50.5t-49 -66t-67.5 -62.5q15 -49 33.5 -98t46.5 -94h-67q-22 36 -37.5 76.5t-29.5 83.5q-36 -32 -63 -74.5 t-43 -85.5h-60z" />
<glyph horiz-adv-x="367" d="M312 325q12 0 20.5 -5.5t8.5 -19.5q0 -27 -16 -70.5t-44 -96.5t-65 -108.5t-78.5 -108t-84 -94t-83 -66t-74.5 -24.5q-21 0 -32.5 10.5t-11.5 27.5q0 15 9 27q21 -4 40 -4q36 0 72.5 21t69 53t56.5 63h-20q-3 107 -16 206.5t-36 180.5l65 8q22 -80 32.5 -163.5 t10.5 -173.5h1q37 54 69 111.5t53 113.5t26 105q12 7 28 7z" />
<glyph horiz-adv-x="383" d="M-12 -78l-23 32q104 97 177 169t127 137q-45 4 -83.5 9.5t-62.5 5.5q-26 0 -47 -9t-41 -30l-23 12q21 46 48.5 61.5t68.5 15.5q37 0 81.5 -8t94.5 -13q8 11 16 21q30 0 30 -20q0 -13 -23.5 -45t-65 -76t-95 -95t-114.5 -103q10 2 21 2q19 0 44.5 -3.5t51 -6.5t42.5 -3 q25 0 45.5 11t40.5 37l25 -12q-23 -54 -51 -71.5t-68 -17.5q-43 0 -90 9.5t-80 9.5q-14 0 -24 -4t-22 -15z" />
<glyph horiz-adv-x="435" d="M89 401q0 52 18.5 102.5t53 91.5t82 65.5t105.5 24.5q21 0 50.5 -4t55.5 -13l-32 -137q-17 -77 -27 -132t-9 -110h-62q0 36 3.5 70.5t14.5 88.5q-18 -37 -44 -75.5t-58 -64.5t-68 -26q-35 0 -59 29.5t-24 89.5zM154 412q0 -36 12 -57t33 -21q25 0 51.5 26t50.5 66t43 83 t28 76q5 21 11 48q-27 11 -53 11q-36 0 -67.5 -21t-56 -54.5t-38.5 -74.5t-14 -82z" />
<glyph horiz-adv-x="442" d="M366 685q38 0 62.5 -29t24.5 -89q0 -50 -18.5 -100.5t-53 -92t-82.5 -67t-108 -25.5q-23 0 -54 4.5t-54 14.5q7 30 14.5 64t19 86t28.5 135l38 179l5 107l69 8q1 -41 -8 -99t-24 -124t-31 -134q32 69 76.5 115.5t95.5 46.5zM158 359v11q-4 -19 -7 -36q26 -10 53 -10 q39 0 72.5 20t58.5 53.5t39 74t14 81.5q0 37 -12 59t-35 22q-22 0 -45.5 -19t-46 -50t-41 -67.5t-32 -73t-18.5 -65.5z" />
<glyph horiz-adv-x="382" d="M360 389l15 -24q-28 -37 -72 -60t-88 -23q-57 0 -91 38.5t-34 104.5q0 51 18.5 97.5t51 83t75 58t90.5 21.5q23 0 46.5 -5t41.5 -14l-18 -53q-16 12 -35.5 19.5t-40.5 7.5q-34 0 -63.5 -18t-52 -49t-35.5 -68t-13 -75q0 -46 20.5 -74t60.5 -28q34 0 66.5 18t57.5 43z" />
<glyph horiz-adv-x="440" d="M391 290h-62q-1 30 3.5 68.5t15.5 96.5q-19 -41 -46 -81t-60.5 -66t-72.5 -26q-34 0 -59 29.5t-25 91.5q0 52 19.5 102t56 91t86 65t109.5 24q19 0 39 -2l18 82l4 107l70 8q1 -44 -9 -102.5t-24.5 -123t-29.5 -130t-24.5 -126t-8.5 -108.5zM150 415q0 -38 12.5 -59.5 t34.5 -21.5t45 18.5t44.5 48.5t40 65t31.5 68.5t18 58.5v-3l9 44q-24 10 -46 10q-40 0 -74 -20.5t-60 -53.5t-40.5 -73.5t-14.5 -81.5z" />
<glyph horiz-adv-x="392" d="M369 389l16 -24q-27 -39 -71.5 -61t-89.5 -22q-60 0 -96.5 39t-36.5 108q0 49 18.5 95t51 82.5t73 57.5t84.5 21q45 0 71 -21.5t26 -58.5q0 -34 -26 -66t-83 -54.5t-149 -27.5q-1 -13 -1 -25q0 -47 23 -75.5t64 -28.5q33 0 66 17.5t60 43.5zM308 644q-32 0 -61.5 -23 t-52 -60t-32.5 -77q75 7 117 26.5t59 44.5t17 47q0 42 -47 42z" />
<glyph horiz-adv-x="276" d="M42 122l-22 25q22 27 43 65t33 92l70 332l-62 2l5 27l66 8q3 20 6.5 38.5t5.5 32.5q14 64 57 100t110 36q55 0 93 -21l-25 -51q-14 9 -33.5 16t-44.5 7q-42 0 -64 -22.5t-31 -62.5q-3 -13 -6 -31l-7 -42h112l5 -7l-9 -33l-116 3l-68 -319q-14 -68 -42.5 -114.5 t-75.5 -80.5z" />
<glyph horiz-adv-x="378" d="M169 92q-73 0 -112.5 27t-39.5 67q0 31 21.5 52.5t52.5 36.5l17 -16q-14 -13 -22.5 -27t-8.5 -30q0 -30 27 -50.5t76 -20.5t83 20.5t34 50.5q0 19 -18.5 33t-57.5 32q-32 14 -52.5 27t-20.5 33q0 23 24.5 42t55.5 34v2q-5 -1 -10 -1t-11 1q-43 1 -72 30t-29 79 q0 47 24.5 86t66 62t90.5 23q37 0 62 0.5t44 2.5t39 6q7 -7 7 -20q0 -10 -7.5 -19.5t-27.5 -9.5q-15 0 -31.5 4t-34.5 9l-1 -1q22 -11 35.5 -33t13.5 -57q0 -42 -18 -73t-44.5 -54t-53 -40t-44 -30t-17.5 -25t18 -21.5t31 -14.5q43 -18 73 -41.5t30 -57.5q0 -29 -23.5 -56 t-66 -44.5t-102.5 -17.5zM327 573q0 34 -15.5 54.5t-42.5 20.5t-51 -20.5t-38.5 -51.5t-14.5 -64q0 -35 16.5 -54t43.5 -19q30 0 53 21t36 52t13 61z" />
<glyph horiz-adv-x="459" d="M163 290h-62q0 29 4.5 67.5t15 94t27.5 134.5l38 179l5 107l69 8q1 -61 -16 -143t-37 -169h1q31 58 76 87.5t92 29.5q38 0 59 -22t21 -60q0 -22 -7.5 -56t-22.5 -101q-11 -52 -13.5 -85t-2.5 -71h-62q-1 50 8 101.5t21 107.5q7 33 9 50.5t2 26.5q0 29 -10.5 42.5 t-34.5 13.5q-38 0 -70.5 -28.5t-57 -76.5t-38 -109t-14.5 -128z" />
<glyph horiz-adv-x="214" d="M249 850q0 -22 -16.5 -42t-41.5 -20q-16 0 -24.5 9.5t-8.5 23.5q0 23 18.5 42.5t40.5 19.5q15 0 23.5 -9t8.5 -24zM164 290h-62q-2 47 6 97t21 111l16 72l5 107l69 8q1 -42 -7.5 -91t-20 -101t-20 -103.5t-7.5 -99.5z" />
<glyph horiz-adv-x="201" d="M248 850q0 -22 -16.5 -42t-41.5 -20q-15 0 -24 9.5t-9 23.5q0 23 18.5 42.5t40.5 19.5q15 0 23.5 -9t8.5 -24zM26 90l-22 25q22 29 43 66.5t33 90.5l64 298l5 107l70 8q0 -27 -4 -58.5t-13 -75.5t-23.5 -108.5t-34.5 -157.5q-14 -68 -42.5 -114t-75.5 -81z" />
<glyph horiz-adv-x="422" d="M452 619q0 -31 -22 -61t-57 -56t-74 -44q23 -38 56 -84.5t67 -83.5h-79q-26 32 -55 75.5t-53 92.5q38 21 73 45.5t57.5 50t22.5 51.5q0 35 -37 35q-34 0 -67 -31.5t-60 -83.5t-43.5 -113.5t-17.5 -121.5h-62q0 29 4.5 67.5t15 94t27.5 134.5l38 179l5 107l69 8 q1 -43 -8.5 -99.5t-24 -119.5t-28.5 -126h1q31 72 80.5 111t99.5 39q36 0 54 -19t18 -47z" />
<glyph horiz-adv-x="213" d="M163 290h-62q0 29 4.5 67.5t15 94t27.5 134.5l38 179l5 107l69 8q1 -44 -9 -102.5t-24.5 -123t-29.5 -130t-25 -126t-9 -108.5z" />
<glyph horiz-adv-x="692" d="M207 568q28 56 73 86.5t88 30.5q39 0 60 -22.5t21 -61.5q0 -13 -2 -30q29 56 73 85t86 29q41 0 62 -22t21 -61q0 -25 -7.5 -59t-17.5 -79q-13 -55 -17 -93.5t-3 -80.5h-62q-1 55 5.5 94t15.5 82q8 35 13.5 65.5t5.5 49.5q0 23 -10.5 37t-35.5 14q-42 0 -82.5 -42 t-66 -119t-24.5 -181h-61q-1 45 5 87t17 92q10 50 13.5 73t3.5 35q0 27 -10.5 41t-35.5 14q-33 0 -64 -27t-55 -74t-38 -109t-15 -132h-62q0 33 3.5 68.5t13.5 85.5t27 126l4 107l69 8q1 -25 -3 -54.5t-11 -62.5h3z" />
<glyph horiz-adv-x="425" d="M436 543q0 -47 -16 -93t-45 -84t-69.5 -61t-89.5 -23q-58 0 -91.5 36t-33.5 106q0 48 16 94.5t45.5 84t69.5 60t88 22.5q60 0 93 -36.5t33 -105.5zM156 424q0 -99 72 -99q34 0 60.5 21t45 54.5t28 72t9.5 73.5q0 97 -72 97q-35 0 -61.5 -21t-44.5 -54t-27.5 -71.5 t-9.5 -72.5z" />
<glyph horiz-adv-x="446" d="M123 100h-62q-1 27 3 62.5t14.5 90t28.5 138.5l38 179l5 107l70 8q0 -32 -5.5 -72t-14.5 -85q19 38 44.5 74.5t57 59.5t68.5 23q38 0 62.5 -29t24.5 -89q0 -51 -19 -101.5t-54 -92t-83.5 -66.5t-107.5 -25q-22 0 -46 4q-11 -52 -18 -99.5t-6 -86.5zM345 634 q-26 0 -53.5 -25.5t-52 -64.5t-43.5 -82.5t-28 -79.5q-3 -12 -5.5 -24t-5.5 -24q26 -10 51 -10q39 0 72.5 21t58.5 55t39 74.5t14 80.5q0 37 -12.5 58t-34.5 21z" />
<glyph horiz-adv-x="436" d="M176 282q-37 0 -62 30t-25 91q0 51 19 101.5t54.5 91t85 65t110.5 24.5q22 0 48.5 -4t53.5 -14l-77 -340q-14 -62 -24 -123t-10 -104h-61q-2 44 9.5 113.5t38.5 186.5l9 38q-18 -36 -44 -72t-57.5 -60t-67.5 -24zM154 413q0 -36 12 -57.5t35 -21.5q26 0 53 24t51.5 61.5 t43 80t28.5 78.5l13 56q-26 10 -51 10q-39 0 -72.5 -21t-59 -54.5t-39.5 -74.5t-14 -81z" />
<glyph horiz-adv-x="322" d="M163 290h-62q0 45 7 96t21 112l16 72l4 107l69 8q1 -30 -4 -66t-14 -74h3q28 74 67 107t80 33q17 0 31.5 -5t23.5 -13l-33 -56q-21 10 -43 10q-36 0 -66.5 -29t-52.5 -77.5t-34.5 -107t-12.5 -117.5z" />
<glyph horiz-adv-x="369" d="M383 666l-17 -53q-21 12 -46 19.5t-51 7.5q-41 0 -64.5 -18t-23.5 -44q0 -24 17.5 -38.5t43 -26t51 -25t43 -34t17.5 -52.5q0 -35 -21.5 -62t-59 -42.5t-85.5 -15.5q-27 0 -59 6.5t-56 20.5l17 52q25 -17 55.5 -25t54.5 -8q39 0 65.5 18t26.5 45q0 23 -17.5 37.5 t-43.5 26t-52 25t-43.5 33.5t-17.5 53q0 35 22.5 62t59.5 42t82 15q28 0 55 -5t47 -14z" />
<glyph horiz-adv-x="306" d="M346 639l-118 1q-17 -78 -27 -126t-15.5 -74t-7.5 -38.5t-2 -20.5q0 -51 52 -51q18 0 36.5 5.5t34.5 13.5v-42q-20 -10 -44.5 -17.5t-54.5 -7.5q-89 0 -89 84q0 10 2.5 23.5t8 41t16.5 77.5t29 133l-63 1l6 27l65 8l35 92l41 4l6 -7l-21 -89h115l5 -6z" />
<glyph horiz-adv-x="445" d="M105 369q0 19 10 66.5t29 134.5l5 107l69 8q1 -55 -9 -102t-18 -90q-9 -39 -13.5 -66t-4.5 -42q0 -22 10.5 -35.5t35.5 -13.5q39 0 71 31t54.5 82t34 111t9.5 117l64 8q0 -56 -13 -117t-28 -143q-7 -33 -11 -66t-4 -69h-62q0 29 2.5 53.5t6.5 50.5v0q-29 -57 -71.5 -84.5 t-83.5 -27.5q-39 0 -61 23t-22 64z" />
<glyph horiz-adv-x="367" d="M155 290q-3 109 -16.5 207.5t-36.5 179.5l65 8q22 -74 33 -159.5t10 -177.5h2q37 55 69 112.5t53 113t26 104.5q11 7 27 7q13 0 21.5 -5.5t8.5 -21.5q0 -25 -15.5 -67t-42.5 -93.5t-62.5 -105.5t-75.5 -102h-66z" />
<glyph horiz-adv-x="571" d="M592 685q12 0 21 -5.5t9 -21.5q0 -25 -14 -67t-39 -93.5t-58 -105.5t-72 -102h-66q1 79 -1.5 156t-9.5 149h-1q-19 -72 -61 -153t-95 -152h-67q-1 116 -11 215t-25 172l66 7q13 -67 21 -152.5t5 -185.5h2q54 82 90.5 169t44.5 162h73q12 -64 19.5 -148.5t5.5 -182.5h1 q54 81 90.5 169.5t44.5 162.5q11 7 27 7z" />
<glyph horiz-adv-x="335" d="M34 290q22 56 60.5 108t91.5 95q-15 48 -34 95.5t-50 88.5l63 8q26 -34 43 -76t32 -87q34 31 58.5 71.5t33.5 84.5q9 7 27 7q13 0 21.5 -5.5t8.5 -18.5q0 -19 -18.5 -50.5t-49.5 -66t-68 -62.5q15 -49 33.5 -98t46.5 -94h-66q-23 36 -38.5 76.5t-28.5 83.5 q-37 -32 -64 -74.5t-42 -85.5h-60z" />
<glyph horiz-adv-x="367" d="M388 685q12 0 20.5 -5.5t8.5 -19.5q0 -27 -16 -70.5t-44 -96.5t-65 -108.5t-78.5 -108t-84 -94t-83 -66t-74.5 -24.5q-21 0 -32.5 10.5t-11.5 27.5q0 15 9 27q21 -4 40 -4q36 0 72.5 21t69 53t56.5 63h-20q-3 107 -16 206.5t-36 180.5l65 8q22 -80 32.5 -163.5 t10.5 -173.5h1q37 54 69 111.5t53 113.5t26 105q12 7 28 7z" />
<glyph horiz-adv-x="382" d="M65 282l-24 32q104 97 177 169t128 137q-46 4 -84 9.5t-63 5.5q-26 0 -47 -9t-41 -30l-23 12q21 46 49 61.5t68 15.5q38 0 82 -8t94 -13q9 11 17 21q29 0 29 -20q0 -13 -23.5 -45t-64.5 -76t-95 -95t-115 -103q10 2 22 2q18 0 43.5 -3.5t51 -6.5t43.5 -3q24 0 44.5 11 t40.5 37l25 -12q-23 -54 -51 -71.5t-68 -17.5q-43 0 -90 9.5t-79 9.5q-15 0 -24.5 -4t-21.5 -15z" />
<glyph horiz-adv-x="997" d="M381 125l18 -27q-41 -57 -90.5 -82.5t-99.5 -25.5q-71 0 -114 46.5t-43 134.5q0 64 22.5 124t61.5 107.5t90 75.5t107 28q18 0 34 -3q-9 17 -12.5 34t-3.5 32q0 54 35.5 96t97.5 66.5t140 24.5q23 0 42.5 -2t41.5 -6q0 -46 -10.5 -109.5t-26.5 -136.5t-33 -147h2 q38 77 92.5 114t106.5 37q45 0 69 -26t24 -76q0 -18 -3.5 -39t-11.5 -58.5t-22 -104.5q-11 -53 -16 -87t-6.5 -60t-1.5 -55h-73q0 71 12 132t23 110q12 58 17.5 89t5.5 52q0 29 -13 45t-42 16q-46 0 -85.5 -36.5t-69 -99.5t-46.5 -142.5t-19 -165.5h-73q0 39 6.5 89t20 120 t34.5 171l37 171q14 66 19 140q-20 4 -38 4q-42 0 -83 -14.5t-68 -43.5t-27 -73q0 -23 8 -48.5t29 -51.5v0v0l-25 -63q-20 23 -45 37t-55 14q-39 0 -74 -25.5t-61.5 -66t-41.5 -89t-15 -94.5q0 -58 25.5 -95.5t79.5 -37.5q41 0 77.5 22.5t69.5 58.5z" />
<glyph horiz-adv-x="807" d="M381 125l18 -27q-41 -57 -90.5 -82.5t-100.5 -25.5q-70 0 -113 46.5t-43 134.5q0 64 22.5 124t61.5 107.5t90.5 75.5t108.5 28q25 0 48 -6q-5 15 -6.5 30t-1.5 28q0 53 28 96t75 67.5t102 24.5q64 0 100 -32t36 -82q0 -38 -21 -75t-58 -61h174l5 -8l-12 -38l-138 1 q-23 -106 -36.5 -169t-20.5 -96.5t-9 -48.5t-2 -26q0 -35 15.5 -49.5t43.5 -14.5q22 0 43.5 6.5t41.5 18.5l-1 -51q-23 -13 -53 -22t-64 -9q-49 0 -75.5 24t-26.5 77q0 11 1.5 22.5t5.5 33t12 58.5t20.5 97t31.5 150h-71l8 32q53 17 83.5 55.5t30.5 80.5q0 36 -23 55t-61 19 q-37 0 -67.5 -19t-49 -51t-18.5 -72q0 -47 21 -86l-24 -65q-20 23 -45.5 37t-54.5 14q-38 0 -73 -23.5t-62 -62.5t-42.5 -87t-15.5 -98q0 -61 25.5 -99t79.5 -38q41 0 77.5 22.5t69.5 58.5z" />
<glyph horiz-adv-x="948" d="M532 0h-73q0 63 15.5 151t45.5 229l37 171q14 66 19 140q-20 4 -38 4q-42 0 -83.5 -14t-68.5 -43t-27 -73q0 -19 7.5 -40.5t26.5 -44.5l-22 -62q-24 15 -52 24.5t-58 9.5q-48 0 -78 -24.5t-30 -60.5q0 -30 20 -49t49.5 -34t59 -32t50 -42.5t20.5 -65.5q0 -44 -26.5 -79 t-71 -55t-100.5 -20q-34 0 -71 8t-65 26l22 61q29 -21 65 -31t63 -10q47 0 78.5 25t31.5 62q0 30 -20 48.5t-50 33t-59.5 31.5t-50 42t-20.5 65q0 47 27.5 81.5t73 54t98.5 19.5q23 0 46 -4q-12 17 -17 35t-5 35q0 52 36 94t97.5 66t140.5 24q22 0 42 -2t42 -6 q0 -46 -10.5 -109.5t-26.5 -136.5t-33 -147h2q38 77 92.5 114t106.5 37q45 0 69 -26t24 -76q0 -18 -3.5 -39t-11.5 -58.5t-22 -104.5q-11 -53 -16 -87t-6.5 -60t-1.5 -55h-73q0 70 12 131.5t23 110.5q12 58 17.5 89t5.5 52q0 29 -13 45t-42 16q-47 0 -86 -36.5t-68.5 -99.5 t-46.5 -142.5t-19 -165.5z" />
<glyph horiz-adv-x="571" d="M60 0h-70l270 462q12 20 23.5 40.5t21.5 40.5l75 4l8 -9l86 -538h-74l-24 149h-228zM241 307l-61 -104h187l-17 104q-6 47 -11.5 90.5t-6.5 76.5h-2q-15 -33 -38.5 -76t-50.5 -91z" />
<glyph horiz-adv-x="571" d="M486 774l2 -13q-42 -47 -89.5 -85t-104.5 -70l-21 12q40 40 80 83.5t69 87.5zM60 0h-70l270 462q12 20 23.5 40.5t21.5 40.5l75 4l8 -9l86 -538h-74l-24 149h-228zM241 307l-61 -104h187l-17 104q-6 47 -11.5 90.5t-6.5 76.5h-2q-15 -33 -38.5 -76t-50.5 -91z" />
<glyph horiz-adv-x="571" d="M482 767h34q-23 -64 -66.5 -101.5t-94.5 -37.5q-50 0 -76 36t-20 99l34 5q2 -38 23 -60t56 -22q33 0 62.5 22.5t47.5 58.5zM60 0h-70l270 462q12 20 23.5 40.5t21.5 40.5l75 4l8 -9l86 -538h-74l-24 149h-228zM241 307l-61 -104h187l-17 104q-6 47 -11.5 90.5t-6.5 76.5 h-2q-15 -33 -38.5 -76t-50.5 -91z" />
<glyph horiz-adv-x="600" d="M494 769l19 -18q-35 -38 -69.5 -77t-66.5 -80l-62 -6q-33 85 -78 163l27 18q27 -30 50 -59.5t44 -58.5q32 29 67 60t69 58zM60 0h-70l270 462q12 20 23.5 40.5t21.5 40.5l75 4l8 -9l86 -538h-74l-24 149h-228zM241 307l-61 -104h187l-17 104q-6 47 -11.5 90.5t-6.5 76.5 h-2q-15 -33 -38.5 -76t-50.5 -91z" />
<glyph horiz-adv-x="571" d="M262 604l-20 18q36 38 70.5 76.5t66.5 79.5l62 6q33 -84 78 -162l-27 -18q-27 29 -50 58.5t-45 59.5q-31 -29 -66 -60t-69 -58zM60 0h-70l270 462q12 20 23.5 40.5t21.5 40.5l75 4l8 -9l86 -538h-74l-24 149h-228zM241 307l-61 -104h187l-17 104q-6 47 -11.5 90.5 t-6.5 76.5h-2q-15 -33 -38.5 -76t-50.5 -91z" />
<glyph horiz-adv-x="571" d="M333 715q0 -29 -20.5 -52.5t-45.5 -23.5q-18 0 -27.5 11t-9.5 27q0 28 21.5 51t46.5 23q17 0 26 -9.5t9 -26.5zM533 715q0 -29 -20.5 -52.5t-46.5 -23.5q-17 0 -26.5 11t-9.5 27q0 28 21.5 51t46.5 23q16 0 25.5 -9.5t9.5 -26.5zM60 0h-70l270 462q12 20 23.5 40.5 t21.5 40.5l75 4l8 -9l86 -538h-74l-24 149h-228zM241 307l-61 -104h187l-17 104q-6 47 -11.5 90.5t-6.5 76.5h-2q-15 -33 -38.5 -76t-50.5 -91z" />
<glyph horiz-adv-x="571" d="M60 0h-70l270 462q12 20 23.5 40.5t21.5 40.5l75 4l8 -9l86 -538h-74l-24 149h-228zM241 307l-61 -104h187l-17 104q-6 47 -11.5 90.5t-6.5 76.5h-2q-15 -33 -38.5 -76t-50.5 -91zM263 -130q0 -30 -21.5 -54t-48.5 -24q-19 0 -29.5 12t-10.5 28q0 29 22.5 52.5t48.5 23.5 q19 0 29 -10.5t10 -27.5z" />
<glyph horiz-adv-x="571" d="M432 608q-43 33 -75 71t-53 85l8 13l69 14q12 -44 32.5 -86.5t44.5 -83.5zM60 0h-70l270 462q12 20 23.5 40.5t21.5 40.5l75 4l8 -9l86 -538h-74l-24 149h-228zM241 307l-61 -104h187l-17 104q-6 47 -11.5 90.5t-6.5 76.5h-2q-15 -33 -38.5 -76t-50.5 -91z" />
<glyph horiz-adv-x="571" d="M240 671l10 48h272l-10 -48h-272zM60 0h-70l270 462q12 20 23.5 40.5t21.5 40.5l75 4l8 -9l86 -538h-74l-24 149h-228zM241 307l-61 -104h187l-17 104q-6 47 -11.5 90.5t-6.5 76.5h-2q-15 -33 -38.5 -76t-50.5 -91z" />
<glyph horiz-adv-x="571" d="M60 0h-70l270 462q12 20 23.5 40.5t21.5 40.5l75 4l8 -9l86 -538q-62 -31 -100.5 -67t-38.5 -73q0 -35 43 -35q11 0 25.5 2.5t33.5 9.5l6 -30q-44 -32 -98 -32q-37 0 -58.5 16.5t-21.5 46.5q0 43 39.5 85.5t111.5 76.5h-16l-24 149h-228zM241 307l-61 -104h187l-17 104 q-6 47 -11.5 90.5t-6.5 76.5h-2q-15 -33 -38.5 -76t-50.5 -91z" />
<glyph horiz-adv-x="571" d="M472 708q0 -26 -16.5 -50t-43 -39t-55.5 -15q-30 0 -50 17.5t-20 44.5q0 25 17 48.5t43.5 38.5t56.5 15q31 0 49.5 -16.5t18.5 -43.5zM331 673q0 -16 10 -25.5t27 -9.5q23 0 41.5 19t18.5 44q0 15 -9 24.5t-27 9.5q-24 0 -42.5 -19t-18.5 -43zM60 0h-70l270 462 q12 20 23.5 40.5t21.5 40.5l75 4l8 -9l86 -538h-74l-24 149h-228zM241 307l-61 -104h187l-17 104q-6 47 -11.5 90.5t-6.5 76.5h-2q-15 -33 -38.5 -76t-50.5 -91z" />
</font>
</defs>
</svg>
