<?xml version="1.0" standalone="no"?>
<!DOCTYPE svg PUBLIC "-//W3C//DTD SVG 1.1//EN" "http://www.w3.org/Graphics/SVG/1.1/DTD/svg11.dtd" >
<svg xmlns="http://www.w3.org/2000/svg" xmlns:xlink="http://www.w3.org/1999/xlink" version="1.1">
<metadata></metadata>
<defs>
<font id="indivisa_display_serifThIt" horiz-adv-x="559" >
<font-face units-per-em="1000" ascent="800" descent="-200" />
<missing-glyph horiz-adv-x="250" />
<glyph unicode="ff" horiz-adv-x="511" d="M234 507l-7 -35h208l8 36q12 57 32 97q-16 31 -43 49t-66 18q-44 0 -70.5 -27.5t-43.5 -71.5q-10 -30 -18 -66zM125 -6q-19 -92 -58 -140.5t-92 -48.5q-36 0 -59 17t-23 39q0 15 12 21q14 -19 33 -34.5t44 -15.5q48 0 71.5 37t41.5 124l97 457h-86l1 7l89 15l6 26 q21 96 67.5 146.5t106.5 50.5q46 0 74.5 -21t39.5 -42q42 63 104 63q35 0 58.5 -17.5t23.5 -36.5q0 -15 -13 -21q-12 20 -34.5 36t-48.5 16q-34 0 -55.5 -28.5t-35.5 -69.5q-4 -14 -7.5 -28.5t-6.5 -28.5l-10 -45h146l-4 -22h-146l-97 -456q-19 -92 -58 -140.5t-92 -48.5 q-36 0 -59 17t-23 39q0 15 12 21q14 -19 33 -34.5t44 -15.5q48 0 71.5 37t41.5 124l97 457h-209z" />
<glyph unicode="ffi" horiz-adv-x="708" d="M234 507l-7 -35h208l8 36q11 54 34 94q-16 32 -43.5 51t-67.5 19q-44 0 -70.5 -27.5t-43.5 -71.5q-10 -30 -18 -66zM125 -6q-19 -92 -58 -140.5t-92 -48.5q-36 0 -59 17t-23 39q0 15 12 21q14 -19 33 -34.5t44 -15.5q48 0 71.5 37t41.5 124l97 457h-86l1 7l89 15l6 26 q21 96 67.5 146.5t106.5 50.5q34 0 58 -11.5t38.5 -27.5t20.5 -29q50 68 126 68q43 0 71.5 -20t28.5 -41q0 -15 -13 -21q-14 23 -41.5 41t-59.5 18q-57 0 -92 -55q-13 -19 -22 -44t-16 -56l-10 -45h158q27 0 47.5 -12.5t20.5 -51.5q0 -17 -8 -53t-19.5 -81.5t-23 -90 t-18.5 -78.5q-4 -22 -7 -39.5t-3 -30.5q0 -15 8 -15q10 0 27 16.5t37.5 42t38.5 52.5l6 -4q-13 -28 -33 -60t-43 -54.5t-44 -22.5q-10 0 -18.5 9t-8.5 33q0 14 3 32.5t7 40.5q8 35 19 80t22.5 89.5t19 80t8.5 50.5q1 24 -8.5 34.5t-35.5 10.5h-156l-97 -456 q-19 -92 -58 -140.5t-92 -48.5q-36 0 -59 17t-23 39q0 15 12 21q14 -19 33 -34.5t44 -15.5q48 0 71.5 37t41.5 124l97 457h-209z" />
<glyph unicode="ffl" horiz-adv-x="714" d="M234 507l-7 -35h208l8 36q11 54 34 94q-16 32 -43.5 51t-67.5 19q-44 0 -70.5 -27.5t-43.5 -71.5q-10 -30 -18 -66zM125 -6q-19 -92 -58 -140.5t-92 -48.5q-36 0 -59 17t-23 39q0 15 12 21q14 -19 33 -34.5t44 -15.5q48 0 71.5 37t41.5 124l97 457h-86l1 7l89 15l6 26 q21 96 67.5 146.5t106.5 50.5q34 0 58 -11.5t38.5 -27.5t20.5 -29q50 68 128 68q33 0 59.5 -12.5t36.5 -28.5q6 3 12 5t13 4l4 -4l-118 -554q-4 -22 -7 -39.5t-3 -30.5q0 -15 8 -15q10 0 27 16.5t37.5 42t38.5 52.5l6 -4q-13 -28 -33 -60t-43 -54.5t-44 -22.5q-10 0 -18.5 9 t-8.5 33q0 14 3 32.5t7 40.5l110 514q-15 21 -42 37t-59 16q-31 0 -53.5 -14.5t-39.5 -40.5q-13 -20 -22.5 -45.5t-16.5 -54.5l-10 -45h146l-4 -22h-146l-97 -456q-19 -92 -58 -140.5t-92 -48.5q-36 0 -59 17t-23 39q0 15 12 21q14 -19 33 -34.5t44 -15.5q48 0 71.5 37 t41.5 124l97 457h-209z" />
<glyph unicode="&#x2f;symbol&#x31;&#x2f;" horiz-adv-x="5534" d="M1865 412q-25 0 -40.5 14.5t-15.5 37.5q0 24 15.5 45t39 34.5t48.5 13.5q24 0 39 -13.5t15 -37.5t-14.5 -45.5t-37.5 -35t-49 -13.5zM1284 412q-26 0 -41.5 14.5t-15.5 37.5q0 24 15.5 45t39.5 34.5t49 13.5q24 0 38.5 -13.5t14.5 -37.5t-14.5 -45.5t-37 -35t-48.5 -13.5 zM959 0q0 21 2.5 46.5t8.5 61.5q-16 -49 -51 -82t-79 -33q-41 0 -63 30t-22 82q0 45 15.5 91t46.5 85.5t76.5 63.5t104.5 24h12.5t12.5 -1l16 73l6 102l136 7q0 -40 -9.5 -95t-23 -116.5t-27 -123.5t-23 -117.5t-9.5 -97.5h-130zM100 0l78 364q8 38 13.5 72.5t7.5 63.5 l128 7l11 -15l-104 -492h-134zM3503 492l-57 -492h-131l20 175q3 30 9 69t12.5 78t11.5 68h-3q-16 -53 -37 -107.5t-44 -107.5l-76 -175h-149l-2 175q-1 56 1 109t8 106h-2q-15 -61 -30 -115.5t-29 -99.5l-53 -175h-109l154 500l184 6l1 -137q1 -50 -2.5 -121.5 t-12.5 -137.5h2q20 65 36 111t30.5 81t27.5 67l56 131l169 7zM5316 300q-15 -74 -23 -110.5t-11 -51t-3 -21.5q0 -34 36 -34q13 0 28 5t31 13l-9 -79q-20 -11 -50 -20t-64 -9q-50 0 -77.5 25t-27.5 75q0 11 1.5 23.5t6 33.5t12.5 57.5t20 95.5l-47 1l9 44l54 14l53 95l81 6 l13 -15l-20 -86h99l6 -14l-17 -51zM336 0q0 28 4 62t13 82t24 116l6 102l137 7q0 -18 -2 -41t-5 -48h2q29 49 65.5 69t68.5 20q35 0 53.5 -19.5t18.5 -51.5q0 -23 -8 -62.5t-18 -84.5q-7 -33 -11 -57t-5.5 -45.5t-1.5 -48.5h-131q0 38 4.5 69.5t14.5 80.5q7 35 11 55.5 t4 31.5q0 24 -17 24t-34 -22.5t-30.5 -60.5t-22 -84t-9.5 -94h-131zM1170 0q0 39 7 87.5t20 105.5l14 67l6 102l137 7q0 -36 -8 -81.5t-19 -95.5t-19 -99t-8 -93h-130zM1399 362l140 7q6 -59 4.5 -137.5t-9.5 -151.5h2q23 45 42 95t32 99t17 90q17 4 28.5 4.5t21.5 0.5 q28 0 46.5 -7t18.5 -35q0 -22 -13.5 -60.5t-36.5 -85t-53.5 -94t-63.5 -87.5h-149q-2 111 -9.5 207.5t-17.5 154.5zM1752 0q0 39 7 87.5t19 105.5l15 67l6 102l137 7q0 -36 -8 -81.5t-19 -95.5t-19 -99t-8 -93h-130zM4716 0q0 28 4 62t13 82t24 116l6 102l137 7 q0 -18 -2.5 -41t-4.5 -48h2q29 49 65 69t69 20q35 0 53.5 -19.5t18.5 -51.5q0 -23 -8 -62.5t-18 -84.5q-7 -33 -11 -57t-6 -45.5t-2 -48.5h-130q0 38 4.5 69.5t14.5 80.5q7 35 11 55.5t4 31.5q0 24 -17 24q-18 0 -34.5 -22.5t-30.5 -60.5t-22.5 -84t-9.5 -94h-130zM2245 256 q-25 14 -51.5 22t-45.5 8q-17 0 -29.5 -7t-12.5 -19q0 -13 13 -22t32 -17.5t38 -20.5t32 -30.5t13 -47.5q0 -39 -25 -68t-66.5 -45t-89.5 -16q-33 0 -66.5 7.5t-51.5 20.5l27 93q27 -18 58.5 -28t52.5 -10q20 0 30 8t10 18q0 13 -13 22t-32 18t-38 21t-32 30t-13 46 q0 39 25.5 68t67.5 45.5t90 16.5q20 0 48.5 -3.5t55.5 -14.5zM2525 369q32 0 73.5 -7.5t72.5 -24.5l-29 -128q-20 -94 -25.5 -140.5t-5.5 -68.5h-130q0 20 2.5 45t9.5 67q-15 -50 -50.5 -84.5t-81.5 -34.5q-41 0 -62.5 30t-21.5 83q0 44 15.5 90.5t46.5 85.5t77.5 63 t108.5 24zM4653 51q-32 -28 -74 -43t-85 -15q-62 0 -102 33.5t-40 103.5q0 46 17.5 88.5t49.5 76.5t75 54t94 20q53 0 86 -23t33 -65q0 -56 -59 -95.5t-162 -44.5v-1q0 -29 15 -46.5t48 -17.5q22 0 45 7.5t45 20.5zM3936 0q0 28 4 62t13.5 82t24.5 116l5 102l137 7 q0 -18 -2 -41t-5 -48h2q29 49 65.5 69t68.5 20q35 0 53.5 -19.5t18.5 -51.5q0 -23 -8 -62.5t-18 -84.5q-7 -33 -11 -57t-5.5 -45.5t-1.5 -48.5h-131q0 38 4.5 69.5t14.5 80.5q8 35 11.5 55.5t3.5 31.5q0 24 -17 24t-34 -22.5t-30.5 -60.5t-22 -84t-9.5 -94h-131zM3768 369 q32 0 73 -7.5t72 -24.5l-28 -128q-20 -94 -25.5 -140.5t-5.5 -68.5h-130q0 20 2.5 45t9.5 67q-15 -50 -50.5 -84.5t-81.5 -34.5q-41 0 -63 30t-22 83q0 44 15.5 90.5t47 85.5t78 63t108.5 24zM4490 177q46 10 72.5 33.5t26.5 59.5q0 17 -5.5 24t-16.5 7q-20 0 -36 -20 t-26 -48.5t-15 -55.5zM3677 101q17 0 33 21t30 54t22 69q2 11 4.5 22t4.5 22q-16 8 -27 8q-18 0 -34.5 -16t-29 -40.5t-20 -51.5t-7.5 -48q0 -40 24 -40zM913 101q16 0 31 19.5t28.5 50t22.5 64.5l4 20l4 20l3 14q-14 8 -27 8q-18 0 -34 -16t-28.5 -40.5t-20 -51.5t-7.5 -48 q0 -40 24 -40zM2435 101q16 0 32.5 21t30 54t21.5 69q2 11 4.5 22t4.5 22q-14 8 -27 8q-18 0 -34 -16t-29 -40.5t-20 -51.5t-7 -48q0 -40 24 -40z" />
<glyph unicode="&#x2f;symbol&#x32;&#x2f;" horiz-adv-x="932" d="M494 570l52 -90l-137 -240h-103l137 240l-52 90h103zM357 570l52 -90l-138 -240h-103l138 240l-52 90h103zM752 120h-103l-137 240l51 90l137 -240h103zM683 0h-103l-137 240l51 90l138 -240h103zM100 120l51 90h275l51 -90h-274l-52 -90zM168 0l52 90h274l52 -90h-275 l-51 -90zM789 88q18 0 30.5 -13t12.5 -31t-12.5 -31t-30.5 -13t-30.5 13t-12.5 31t12.5 31t30.5 13zM829 44q0 17 -11.5 28.5t-28.5 11.5q-16 0 -28 -11.5t-12 -28.5q0 -16 12 -28t28 -12q17 0 28.5 12t11.5 28zM771 69h18h5t6 -2q5 -4 5 -11q0 -5 -3 -8q-1 -2 -2.5 -2.5 t-3.5 -1.5q7 -1 8 -9q0 -8 3 -16h-8q-1 2 -1 6t-1 7q-1 5 -2.5 7.5t-8.5 2.5h-8v-23h-7v50zM778 47h10h3.5t3.5 1q3 3 3 7q0 6 -4 7t-6 1h-10v-16z" />
<glyph unicode="&#x2f;symbol&#x33;&#x2f;" horiz-adv-x="957" d="M505 638l68 -270h270l-203 -135l136 -270l-271 135l-270 -270l135 405l-270 203l338 -68zM814 87q18 0 30.5 -12.5t12.5 -31.5q0 -18 -12.5 -30.5t-30.5 -12.5t-30.5 12.5t-12.5 30.5q0 19 12.5 31.5t30.5 12.5zM854 43q0 17 -11.5 29t-28.5 12q-16 0 -28 -12t-12 -29 q0 -16 12 -28t28 -12q17 0 28.5 12t11.5 28zM796 68h18h5.5t5.5 -2q6 -3 6 -10q0 -5 -4 -9q-3 -3 -6 -3q7 -3 8 -10q1 -4 1.5 -7.5t1.5 -8.5h-7q-1 3 -1.5 7t-1.5 7q0 9 -10 9h-9v-23h-7v50zM803 47h10h3.5t3.5 1l2 2t1 4q0 7 -4 8t-6 1h-10v-16z" />
<glyph unicode="&#x2f;symbol&#x34;&#x2f;" horiz-adv-x="2607" d="M1684 406q0 32 -2.5 63t-8.5 65l126 14l15 -15v-533h-130v406zM1889 406q0 62 -10 128l126 14l14 -15v-533h-130v406zM427 101v-101h-320v362q0 38 -1.5 72t-5.5 63l126 7l14 -14v-396zM925 21l7 109q31 -18 72 -27t72 -9q50 0 50 36q0 19 -20.5 34t-50 31t-59.5 37 t-50.5 51t-20.5 74q0 48 26 80.5t70 49.5t97 17q81 0 127 -18l-14 -111q-28 14 -55 21.5t-56 7.5q-28 0 -43 -11t-15 -29q0 -22 20.5 -38.5t50.5 -32.5t59.5 -36.5t50 -49.5t20.5 -73q0 -67 -54 -104t-139 -37q-40 0 -82.5 8t-62.5 20zM795 0l-106 -7q-7 11 -12 24t-9 25h-4 q-15 -22 -42.5 -35.5t-61.5 -13.5q-41 0 -69 22t-28 67q0 61 53.5 88.5t137.5 29.5v20q0 54 -58 54q-55 0 -108 -29l-8 97q27 10 68.5 18t81.5 8q154 0 154 -135q0 -38 -2 -69.5t-2 -69.5q0 -24 4.5 -50.5t10.5 -43.5zM1626 0l-107 -7q-7 11 -12 24t-9 25h-3 q-15 -22 -42.5 -35.5t-62.5 -13.5q-40 0 -68 22t-28 67q0 61 53 88.5t138 29.5v20q0 54 -58 54q-54 0 -109 -29l-7 97q27 10 68.5 18t81.5 8q153 0 153 -135q0 -38 -1.5 -69.5t-1.5 -69.5q0 -24 4.5 -50.5t10.5 -43.5zM2405 213v-17t-1 -19l-11 -11h-191q8 -45 33.5 -64 t64.5 -19q24 0 45.5 6t38.5 15l7 -81q-17 -11 -49.5 -20.5t-77.5 -9.5q-88 0 -143 47t-55 135q0 58 24 101t66 67.5t94 24.5q73 0 114 -43.5t41 -111.5zM2199 207l78 4q1 5 1.5 11t0.5 15q0 23 -7.5 41t-26.5 18q-23 0 -34 -25.5t-12 -63.5zM654 74v88q-27 -3 -46 -17 t-19 -40q0 -18 10.5 -29t26.5 -11t28 9zM1485 74v88q-27 -3 -46 -17t-19 -40q0 -18 10 -29t27 -11q16 0 28 9zM2464 85q18 0 30.5 -13t12.5 -31t-12.5 -31t-30.5 -13t-31 13t-13 31t13 31t31 13zM2504 41q0 17 -11.5 28.5t-28.5 11.5q-16 0 -28 -11.5t-12 -28.5 q0 -16 12 -28t28 -12q17 0 28.5 12t11.5 28zM2446 66h18q2 0 5 -0.5t6 -2.5q5 -2 5 -10q0 -4 -3 -9q-3 -3 -6 -3q7 -1 8 -10q0 -7 3 -15h-8q-1 2 -1 6t-1 7q-1 5 -2.5 7t-8.5 2h-8v-22h-7v50zM2453 44h10h3.5t3.5 1q3 3 3 7q0 6 -4 7t-6 1h-10v-16z" />
<glyph unicode="&#x2f;symbol&#x35;&#x2f;" horiz-adv-x="705" d="M232 -6l-132 136l124 234l129 -136zM474 -6l-121 234l128 136l124 -234z" />
<glyph unicode=" "  horiz-adv-x="250" />
<glyph unicode="&#x09;" horiz-adv-x="250" />
<glyph unicode="&#xa0;" horiz-adv-x="250" />
<glyph unicode="!" horiz-adv-x="264" d="M259 690l4 3q12 2 22 2q11 0 9 -10q-3 -13 -8.5 -38t-12.5 -55l-100 -438h-18zM170 35q0 -16 -11 -30.5t-29 -14.5q-26 0 -26 26q0 17 12.5 30.5t28.5 13.5q25 0 25 -25z" />
<glyph unicode="&#x22;" horiz-adv-x="296" d="M211 692l3 3q7 0 15 -0.5t12 -2.5l5 -6l-57 -217l-14 2l17 102zM343 692l3 3q7 0 15 -0.5t12 -2.5l5 -6l-57 -217l-14 2l17 102z" />
<glyph unicode="#" horiz-adv-x="711" d="M670 193h-167l-64 -203l-21 3l-6 7l61 193h-180l-64 -203l-21 3l-6 7l61 193h-143l-6 5l5 20h152l67 215h-157l-6 5l4 20h167l64 202l21 -3l6 -7l-61 -192h180l64 202l21 -3l6 -7l-61 -192h143l6 -5l-4 -20h-152l-68 -215h158l5 -5zM301 218h180l67 215h-179z" />
<glyph unicode="$" horiz-adv-x="449" d="M206 -120l-25 -2l-4 5l23 108q-42 2 -74.5 14t-45.5 27q-10 12 -10 22q0 14 5.5 40.5t13.5 53.5t13 42h8l-10 -143q15 -14 47.5 -24.5t73.5 -10.5q76 0 123 40t47 108q0 40 -16 69t-41 52.5t-53.5 45t-53.5 44.5t-41 52.5t-16 68.5q0 49 25 85.5t68 58t96 24.5l24 110 l25 2l4 -5l-23 -107q36 -2 66.5 -11t44.5 -23q8 -10 8 -19q0 -13 -6 -40t-13.5 -54t-13.5 -40h-8l10 141q-38 24 -108 24q-47 0 -85 -17.5t-59.5 -49t-21.5 -72.5q0 -36 16 -63.5t41 -50.5t53.5 -45t53.5 -47t41 -56.5t16 -73.5q0 -75 -53 -122.5t-141 -50.5z" />
<glyph unicode="%" horiz-adv-x="856" d="M756 660h38l-543 -670h-37zM425 525q0 -59 -19 -114t-54.5 -90.5t-84.5 -35.5q-47 0 -73 36.5t-26 95.5q0 44 11 86.5t31.5 77t49.5 55t66 20.5q47 0 73 -36t26 -95zM196 417q0 -49 18 -80t56 -31q32 0 56 19.5t39.5 51.5t23.5 70.5t8 76.5q0 50 -18 80.5t-56 30.5 q-32 0 -56 -19.5t-39.5 -51.5t-23.5 -70.5t-8 -76.5zM826 237q0 -59 -19 -114t-54.5 -90.5t-84.5 -35.5q-47 0 -73 36.5t-26 95.5q0 44 11 86.5t31.5 77t49.5 55t66 20.5q47 0 73 -36t26 -95zM597 129q0 -49 18 -80t56 -31q32 0 56 19.5t39.5 51.5t23.5 70.5t8 76.5 q0 50 -18 80.5t-56 30.5q-32 0 -56 -19.5t-39.5 -51.5t-23.5 -70.5t-8 -76.5z" />
<glyph unicode="&#x26;" horiz-adv-x="744" d="M439 660q57 0 85 -31.5t28 -71.5q0 -41 -22 -66t-39 -39q31 -2 69.5 -2t77.5 2t71.5 6t51.5 9h3q2 -2 4.5 -7.5t2.5 -11.5q0 -25 -53 -25h-36.5t-38.5 1q-3 -55 -18.5 -116.5t-44.5 -118.5q21 -9 41.5 -17.5t40.5 -16.5q18 -7 24.5 -22.5t6.5 -49.5q0 -21 -5 -42.5 t-14 -36t-23 -14.5q-9 0 -16 7l-1 5q16 19 23.5 44.5t7.5 55.5q0 5 -2.5 14t-3.5 14q-21 8 -40 15q-28 11 -52 21q-29 -50 -69 -89.5t-90 -63t-111 -23.5q-81 0 -129 43t-48 113q0 53 23.5 94t62 71t82.5 50q-30 51 -30 111q0 53 24 95.5t65.5 67.5t91.5 25zM289 471 q0 -52 23 -92.5t61.5 -73t86 -58.5t97.5 -48q25 52 38 110t15 116q-28 1 -60.5 3.5t-72.5 6.5l-10 17q20 16 36 41t16 59q0 38 -23 60.5t-64 22.5q-60 0 -101.5 -44.5t-41.5 -119.5zM152 147q0 -58 39 -95t109 -37q84 0 145 45t100 115q-86 37 -148.5 78.5t-97.5 90.5 q-39 -16 -72.5 -44t-54 -66.5t-20.5 -86.5z" />
<glyph unicode="'" horiz-adv-x="164" d="M211 692l3 3q7 0 15 -0.5t12 -2.5l5 -6l-57 -217l-14 2l17 102z" />
<glyph unicode="(" horiz-adv-x="336" d="M274 -85l-12 -12q-40 51 -72.5 120.5t-32.5 164.5q0 107 35 201.5t96.5 172.5t140.5 133l8 -14q-112 -94 -180 -217t-68 -274q0 -87 25 -153.5t60 -121.5z" />
<glyph unicode=")" horiz-adv-x="336" d="M189 683l12 12q40 -51 72.5 -120.5t32.5 -164.5q0 -106 -35 -201t-96.5 -173t-140.5 -133l-8 14q113 95 180.5 217.5t67.5 273.5q0 87 -25 153.5t-60 121.5z" />
<glyph unicode="*" horiz-adv-x="424" d="M326 464q-3 -15 -18 -15q-14 0 -14 14q0 12 10.5 35.5t22.5 65.5q-41 -23 -65.5 -41.5t-37.5 -18.5t-13 15q0 10 12 15q16 7 41 15.5t58 22.5q-27 14 -46 22t-29 14q-10 7 -10 15q0 17 17 17q12 0 31 -19.5t45 -40.5q6 39 6.5 63.5t3.5 36.5q3 15 18 15q14 0 14 -13 q0 -11 -9.5 -35.5t-22.5 -66.5q43 22 66.5 41t35.5 19q14 0 14 -15q0 -9 -15 -15q-16 -6 -41 -15.5t-56 -23.5q25 -13 44 -21t31 -14q12 -7 12 -15q0 -7 -4.5 -12.5t-12.5 -5.5q-11 0 -32 20t-46 40q-5 -39 -6 -63t-4 -36z" />
<glyph unicode="+" horiz-adv-x="539" d="M525 312h-174l-39 -182h-28l39 182h-182l5 23q31 1 80 1.5t102 0.5l39 183h28l-39 -183q51 1 98 1h78l3 -5z" />
<glyph unicode="," horiz-adv-x="208" d="M149 30q0 -23 -14.5 -55.5t-40 -67.5t-58.5 -66l-5 5q31 38 50 74t29 70v0q-12 0 -18 7.5t-6 17.5q0 17 12 30t26 13q25 0 25 -28z" />
<glyph unicode="-" horiz-adv-x="369" d="M101 249l5 25h273l-5 -25h-273z" />
<glyph unicode="." horiz-adv-x="189" d="M92 -10q-12 0 -18 7.5t-6 17.5q0 17 12 30t27 13q24 0 24 -23q0 -18 -11.5 -31.5t-27.5 -13.5z" />
<glyph unicode="/" horiz-adv-x="372" d="M110 -10l-25 12l319 692l3 1l25 -12l-319 -692z" />
<glyph unicode="0" horiz-adv-x="513" d="M537 438q0 -63 -13.5 -126.5t-38 -121.5t-58 -103t-75 -71t-88.5 -26q-74 0 -112 58t-38 157q0 65 13.5 130t38 123.5t59 104t76.5 71.5t90 26q74 0 110 -61t36 -161zM146 214q0 -91 30.5 -147.5t88.5 -56.5q41 0 77.5 26t66.5 70.5t51.5 100t33 115t11.5 114.5 q0 90 -27 147t-88 57q-42 0 -79 -26t-67.5 -70.5t-52 -100t-33.5 -115t-12 -114.5z" />
<glyph unicode="1" horiz-adv-x="348" d="M306 0h-262v10l103 12q18 3 22 17l128 592l-119 -15v7l150 37l6 -7l-133 -614l-3 -13l109 -16z" />
<glyph unicode="2" horiz-adv-x="470" d="M160 20q-31 0 -57.5 -7t-49.5 -23l-12 15q116 98 197 173t131 134t73 108t23 95q0 55 -31.5 86.5t-87.5 31.5t-106.5 -38.5t-82.5 -105.5l-7 3q23 77 79.5 122.5t123.5 45.5q65 0 104.5 -38.5t39.5 -104.5q0 -63 -41 -129t-109 -134.5t-149 -140.5q-23 -20 -46.5 -40 t-47.5 -40q21 8 39.5 10.5t34.5 2.5q33 0 74.5 -6t78 -12t53.5 -6q19 0 30.5 28.5t23.5 60.5l7 -2q-4 -19 -8 -39t-9 -35q-6 -21 -15.5 -33t-26.5 -12q-25 0 -64 7.5t-82 15t-80 7.5z" />
<glyph unicode="3" horiz-adv-x="419" d="M414 217q0 -62 -45.5 -110.5t-126 -79t-187.5 -37.5l-1 14q96 14 170 41.5t116 71t42 102.5t-43.5 86.5t-105.5 27.5q-15 0 -25.5 -0.5t-23.5 -1.5l-2 19q120 14 185 65t65 124q0 43 -26 69t-76 26q-54 0 -99.5 -33t-74.5 -92l-7 3q15 46 44 79t66.5 51t76.5 18 q57 0 92 -32.5t35 -88.5q0 -44 -25 -82.5t-69 -66.5t-100 -40q63 -6 104 -41t41 -92z" />
<glyph unicode="4" horiz-adv-x="502" d="M75 200l405 460l19 -5l-96 -451l107 1l-7 -30l-106 1l-37 -176h-30l38 176l-285 2zM460 608l-352 -407l265 3z" />
<glyph unicode="5" horiz-adv-x="441" d="M433 244q0 -51 -27 -96t-76 -79.5t-114 -55t-142 -23.5l-1 14q92 10 166 42t118 82.5t44 113.5q0 114 -139 114q-53 0 -98 -15l-13 12l68 300q60 -1 121.5 -3.5t107.5 -2.5q23 0 34 12t21 34l7 -2q-8 -37 -19.5 -56.5t-43.5 -19.5q-51 0 -103.5 2.5t-108.5 6.5l-58 -257 q21 5 44.5 9t46.5 4q80 0 122.5 -35t42.5 -101z" />
<glyph unicode="6" horiz-adv-x="489" d="M120 172q0 95 33 178.5t91 149t134.5 107t164.5 53.5l1 -14q-97 -18 -178.5 -73.5t-137 -136.5t-73.5 -177q30 62 83.5 98t108.5 36q64 0 102 -43.5t38 -123.5q0 -62 -28 -116t-74.5 -87t-104.5 -33q-76 0 -118 50t-42 132zM455 224q0 71 -30 110t-86 39q-31 0 -64 -15.5 t-60.5 -43.5t-45 -65t-17.5 -79q-1 -73 32.5 -116.5t97.5 -43.5q53 0 91.5 30t60 79t21.5 105z" />
<glyph unicode="7" horiz-adv-x="425" d="M181 -3q-4 -7 -15 -7q-6 0 -10.5 3t-6.5 6q90 151 175 296.5t151 281.5q-45 14 -94.5 26t-93 19t-70.5 7q-33 0 -48.5 -21.5t-28.5 -62.5l-8 1q11 52 24.5 83t52.5 31q42 0 89.5 -10t95.5 -25.5t89 -29.5q16 33 30 65q12 -5 12 -19q0 -9 -18 -47.5t-48 -97t-67 -127 t-76 -138t-74 -131t-61 -103.5z" />
<glyph unicode="8" horiz-adv-x="472" d="M447 165q0 -49 -26.5 -88.5t-71 -63t-100.5 -23.5q-44 0 -80.5 16.5t-59 47t-22.5 72.5q0 69 52.5 122t148.5 90q-40 32 -71 69.5t-31 91.5q0 44 23 80.5t63.5 58.5t90.5 22q66 0 103 -36t37 -91q0 -59 -44.5 -108.5t-126.5 -88.5q28 -23 54.5 -47.5t43.5 -54.5t17 -69z M216 500q0 -50 30.5 -85t69.5 -66q77 34 117.5 81t40.5 103q0 47 -29.5 77t-80.5 30q-41 0 -74.5 -18.5t-53.5 -50.5t-20 -71zM116 128q0 -38 19 -64.5t50 -40t66 -13.5q50 0 87 20t58 55t21 79q0 36 -16.5 64t-43 51.5t-54.5 46.5q-96 -40 -141.5 -89t-45.5 -109z" />
<glyph unicode="9" horiz-adv-x="489" d="M507 478q0 -95 -33 -178.5t-91 -149t-134.5 -107t-164.5 -53.5l-1 14q97 18 178.5 73.5t137 136.5t73.5 177q-30 -62 -83.5 -98t-108.5 -36q-64 0 -102 43.5t-38 123.5q0 63 28 116.5t75 86.5t104 33q77 0 118.5 -50t41.5 -132zM172 426q0 -70 30 -109.5t86 -39.5 q32 0 64.5 15.5t60 43.5t45 65t17.5 79q1 73 -32.5 116.5t-97.5 43.5q-52 0 -91 -30t-60.5 -79t-21.5 -105z" />
<glyph unicode=":" horiz-adv-x="190" d="M167 340q-12 0 -18 7.5t-6 17.5q0 17 12 30t27 13q24 0 24 -23q0 -18 -11.5 -31.5t-27.5 -13.5zM93 -10q-12 0 -18 7.5t-6 17.5q0 17 12 30t27 13q24 0 24 -23q0 -18 -11.5 -31.5t-27.5 -13.5z" />
<glyph unicode=";" horiz-adv-x="208" d="M184 340q-12 0 -18 7.5t-6 17.5q0 17 12 30t27 13q24 0 24 -23q0 -18 -11.5 -31.5t-27.5 -13.5zM149 30q0 -23 -14.5 -55.5t-40 -67.5t-58.5 -66l-5 5q31 38 50 74t29 70v0q-12 0 -18 7.5t-6 17.5q0 17 12 30t26 13q25 0 25 -28z" />
<glyph unicode="&#x3c;" horiz-adv-x="538" d="M557 518l-6 -32l-370 -165l300 -161l-7 -27q-30 15 -74.5 39t-93.5 50.5t-93.5 51t-74.5 41.5l2 16z" />
<glyph unicode="=" horiz-adv-x="540" d="M547 413h-384l5 23q33 1 84.5 1.5t108.5 1t108.5 0.5h84.5l3 -5zM504 211h-384l5 23q33 1 84.5 1.5t108.5 1t108.5 0.5h84.5l3 -5z" />
<glyph unicode="&#x3e;" horiz-adv-x="538" d="M119 133l6 32l370 165l-300 161l7 27q30 -15 74.5 -39t93.5 -50.5t93.5 -51t74.5 -41.5l-2 -16z" />
<glyph unicode="?" horiz-adv-x="408" d="M345 695q42 0 76.5 -17t55 -49t20.5 -77t-17.5 -80.5t-45 -65t-59 -54.5t-59 -48.5t-45 -47t-17.5 -49.5q0 -31 25 -47l-3 -6q-22 5 -36 20t-14 37q0 29 17.5 54t44.5 48.5t57.5 48.5t57.5 53t44.5 62t17.5 76q0 57 -36 88t-92 31q-48 0 -86.5 -25t-61 -64.5t-22.5 -84.5 q0 -12 3 -24q-5 -4 -14 -4q-21 0 -21 35q0 46 26.5 89.5t74 72t109.5 28.5zM252 35q0 -16 -11 -30.5t-29 -14.5q-26 0 -26 26q0 17 12.5 30.5t28.5 13.5q25 0 25 -25z" />
<glyph unicode="@" horiz-adv-x="995" d="M617 635q-69 0 -137.5 -22.5t-130 -65t-109 -103t-74.5 -136t-27 -163.5q0 -98 42.5 -168.5t117 -108.5t171.5 -38q89 0 165 25t128 59l9 -14q-54 -42 -132 -68.5t-173 -26.5q-104 0 -185.5 41t-128.5 115.5t-47 175.5q0 95 28.5 175.5t79 145t116.5 109.5t140.5 69 t151.5 24q109 0 191.5 -44.5t129 -122t46.5 -176.5q0 -72 -21.5 -131.5t-57.5 -103.5t-79.5 -68t-87.5 -24q-51 0 -79.5 26t-36.5 70t0 97l15 95q-12 -29 -29 -66.5t-38 -76.5t-44.5 -72t-48 -53t-48.5 -20q-32 0 -52.5 32.5t-20.5 93.5q0 76 22 146.5t60.5 126.5t88.5 88.5 t107 32.5q26 0 48.5 -6.5t37.5 -13.5l-10 -39l-46 -191q-28 -115 -10.5 -180t90.5 -65q35 0 71.5 22t67 63t49.5 97t19 123q0 91 -42 162t-118 112t-179 41zM439 16q20 0 44.5 24.5t51.5 66.5t53.5 94.5t48.5 109t37 109.5l15 54q-12 5 -26.5 8t-34.5 3q-45 0 -87 -30 t-75 -81.5t-52.5 -117.5t-19.5 -139q0 -42 11.5 -71.5t33.5 -29.5z" />
<glyph unicode="A" horiz-adv-x="685" d="M476 654h13l87 -590q4 -25 10.5 -32.5t27.5 -12.5l45 -9l-2 -10h-204v10l96 15l-29 204l-259 -2l1 5l-116 -206l90 -16l-2 -10h-204v10l53 10q23 5 33 13.5t23 30.5zM275 254l242 -3l-50 342z" />
<glyph unicode="B" horiz-adv-x="561" d="M386 627h-81l-3 -16l-57 -267h90q53 0 97 22.5t71 61t27 87.5q0 112 -144 112zM172 0h-122v10l78 12q11 2 15 6t5 11l122 572l3 13l-89 16l3 10h205q83 0 127 -34t44 -97q0 -47 -22 -84.5t-58.5 -63.5t-78.5 -37q65 -11 101 -50.5t36 -91.5q0 -94 -75 -143t-206 -49h-88 l5 23h92q110 0 174.5 44t64.5 123q0 55 -42.5 93t-137.5 38h-88l-60 -282z" />
<glyph unicode="C" d="M487 660q41 0 75 -9t56 -23q-2 -22 -8.5 -54.5t-15 -64.5t-15.5 -53h-8l12 159q-22 10 -46.5 15.5t-54.5 5.5q-73 0 -133 -31t-104 -84t-68 -120.5t-24 -140.5q0 -81 29 -135.5t78.5 -82.5t112.5 -28q64 0 102 20l57 168h8q-2 -23 -7 -51t-12 -64q-4 -20 -7.5 -34 t-8.5 -31q-27 -16 -61.5 -24t-72.5 -8q-74 0 -130.5 31t-88.5 90t-32 142q0 82 26.5 155.5t75 130t116 89t149.5 32.5z" />
<glyph unicode="D" horiz-adv-x="634" d="M302 611l-122 -572l-3 -17h94q86 0 151.5 31.5t109.5 85.5t66.5 122.5t22.5 142.5q0 107 -59.5 165.5t-182.5 58.5h-74zM269 0h-219v10l78 12q11 2 15 6t5 11l122 572l3 13l-89 16l3 10h201q131 0 198.5 -65t67.5 -178q0 -76 -24 -148.5t-72 -131t-120.5 -93 t-168.5 -34.5z" />
<glyph unicode="E" horiz-adv-x="515" d="M469 0h-419v10l78 12q11 2 15 6t5 11l122 572l3 13l-89 16l3 10h410q-2 -24 -8.5 -56.5t-14.5 -64t-16 -54.5h-7l11 150q-35 2 -70 2h-70h-117l-3 -16l-57 -269l216 4l-6 -30l-215 5l-60 -282l-3 -16h123h72.5t71.5 2l53 150h7q-1 -14 -3 -32t-6 -38q-5 -29 -12 -57.5 t-14 -47.5z" />
<glyph unicode="F" horiz-adv-x="490" d="M288 0h-237l-1 8l78 12q11 2 15 6t5 11l122 574l3 13l-89 16l3 10h409q-3 -34 -14 -85t-27 -98h-7l13 158q-35 2 -70 2h-70h-116l-3 -16l-59 -279l220 4l-6 -30l-219 5l-58 -274l-3 -14l113 -15z" />
<glyph unicode="G" horiz-adv-x="622" d="M515 22q-28 -16 -64 -24t-76 -8q-73 0 -131 29.5t-91 88t-33 145.5q0 82 26.5 155.5t76 130t118 89t151.5 32.5q43 0 78 -9t58 -23q-2 -22 -8.5 -54.5t-15 -64.5t-15.5 -53h-8l12 160q-24 10 -51.5 15t-54.5 5q-74 0 -135 -31t-105.5 -84t-69 -120.5t-24.5 -140.5 q0 -83 30 -137.5t81 -81.5t114 -27q32 0 60.5 6t47.5 15l47 223l2 12l-91 17l3 8h200l-1 -8l-62 -12q-16 -4 -19 -17z" />
<glyph unicode="H" horiz-adv-x="693" d="M264 0h-214v10l78 12q11 2 15 6t5 11l122 572l3 13l-89 16l2 10h214v-10l-78 -12q-10 -1 -14 -5.5t-6 -11.5l-57 -268h349l57 268l3 13l-89 16l2 10h214v-10l-78 -12q-10 -1 -14 -5.5t-6 -11.5l-122 -572l-3 -13l89 -16l-2 -10h-214v10l78 12q11 2 15 6t5 11l60 281h-349 l-60 -281l-3 -13l89 -16z" />
<glyph unicode="I" horiz-adv-x="312" d="M264 0h-214v10l78 12q11 2 15 6t5 11l122 572l3 13l-89 16l2 10h214v-10l-78 -12q-10 -1 -14 -5.5t-6 -11.5l-122 -572l-3 -13l89 -16z" />
<glyph unicode="J" horiz-adv-x="312" d="M196 111q-12 -57 -31.5 -96t-52 -69t-83.5 -61l-7 11q40 31 67.5 59.5t46 67.5t30.5 99l104 489l3 13l-89 16l2 10h214v-10l-78 -12q-10 -1 -14 -5.5t-6 -11.5z" />
<glyph unicode="K" horiz-adv-x="635" d="M264 0h-214v10l78 12q11 2 15 6t5 11l121 572l3 13l-89 16l2 10h214v-10l-78 -12q-10 -1 -14 -5.5t-6 -11.5l-56 -267h148l227 282l-93 14l2 10h204v-8l-58 -11q-24 -4 -43 -27l-216 -267l108 -276q8 -21 19 -29t32 -13l47 -11l-1 -8h-50q-33 0 -50.5 13.5t-28.5 40.5 l-103 267h-149l-60 -282l-3 -13l89 -16z" />
<glyph unicode="L" horiz-adv-x="506" d="M461 0h-411v10l78 12q11 2 15 6t5 11l122 572l3 13l-89 16l2 10h214v-10l-78 -12q-10 -1 -14 -5.5t-6 -11.5l-122 -572l-3 -16h117h70.5t70.5 2l52 151h8q-1 -23 -6 -50.5t-12 -62.5q-4 -19 -7.5 -32.5t-8.5 -30.5z" />
<glyph unicode="M" horiz-adv-x="872" d="M224 650h134l84 -586l343 586h120v-10l-86 -15l-63 -600l86 -15l-3 -10h-212l1 10l44 7q33 5 42.5 11t12.5 32l60 544l-338 -576l-18 -32h-13l-3 32l-83 582l-176 -586l78 -14l-3 -10h-199l1 10l52 8q31 5 39.5 12.5t16.5 33.5l170 560l-89 16z" />
<glyph unicode="N" horiz-adv-x="696" d="M258 0h-206v10l77 12q16 2 19 17l125 587l-88 16l2 8h128l223 -610l122 571l3 13l-89 16l2 10h206v-10l-77 -12q-16 -2 -19 -17l-130 -611h-37l-223 612l-122 -573l-3 -13l89 -16z" />
<glyph unicode="O" d="M581 428q0 -80 -21.5 -158t-60.5 -141.5t-92.5 -101t-117.5 -37.5q-85 0 -129 62t-44 168q0 81 22 159.5t62 141.5t94.5 101t118.5 38q84 0 126 -64t42 -168zM149 229q0 -103 39 -159.5t103 -56.5q57 0 104 37t81 98t53 133.5t19 144.5q0 93 -35 152t-104 59 q-45 0 -84.5 -24.5t-71.5 -66t-55.5 -94.5t-36 -110.5t-12.5 -112.5z" />
<glyph unicode="P" horiz-adv-x="518" d="M379 627h-74l-3 -16l-69 -323h71q74 0 131 25t89 71t32 109q0 74 -50 104t-127 30zM288 0h-237l-1 8l78 12q11 2 15 6t5 11l122 574l3 13l-89 16l3 10h201q56 0 102 -16t73 -49.5t27 -87.5q0 -73 -38.5 -125t-104 -79.5t-147.5 -27.5h-72l-48 -228l-3 -14l113 -15z" />
<glyph unicode="Q" d="M581 428q0 -77 -20 -152.5t-56.5 -138t-87 -102t-110.5 -44.5q39 -30 92.5 -56.5t116.5 -43t129 -16.5q22 0 46 3t41 7q3 -4 3 -11q0 -18 -25.5 -26t-68.5 -8q-64 0 -131 20t-130 54.5t-117 77.5q-72 9 -109.5 70t-37.5 158q0 81 22 159.5t62 141.5t94.5 101t118.5 38 q84 0 126 -64t42 -168zM149 229q0 -103 39 -159.5t103 -56.5q57 0 104 37t81 98t53 133.5t19 144.5q0 93 -35 152t-104 59q-45 0 -84.5 -24.5t-71.5 -66t-55.5 -94.5t-36 -110.5t-12.5 -112.5z" />
<glyph unicode="R" horiz-adv-x="606" d="M385 627h-80l-3 -16l-65 -303h86q71 0 121.5 26t77.5 69t27 95q0 67 -46.5 98t-117.5 31zM264 0h-214v10l78 12q11 2 15 6t5 11l122 572l3 13l-89 16l3 10h203q85 0 138 -37.5t53 -114.5q0 -54 -25.5 -96t-65.5 -69t-86 -38h-1l94 -237q8 -20 18.5 -27t29.5 -11l48 -10 l-1 -10h-52q-34 0 -49.5 12.5t-26.5 40.5l-91 235q-13 -2 -26.5 -2.5t-27.5 -0.5h-87l-52 -246l-3 -13l89 -16z" />
<glyph unicode="S" horiz-adv-x="463" d="M184 492q0 51 27.5 89t74 58.5t102.5 20.5q41 0 76 -9t50 -25q8 -10 8 -19q0 -13 -6 -40t-13.5 -54t-13.5 -40h-8l10 141q-38 24 -108 24q-47 0 -85 -17.5t-59.5 -49t-21.5 -72.5q0 -36 16 -63.5t41 -50.5t53.5 -45t53.5 -47t41 -56.5t16 -73.5q0 -77 -56 -125t-148 -48 q-48 0 -86.5 12.5t-53.5 29.5q-10 12 -10 22q0 14 5.5 40.5t13.5 53.5t13 42h8l-10 -143q15 -14 47.5 -24.5t73.5 -10.5q76 0 123 40t47 108q0 40 -16 69t-41 52.5t-53.5 45t-53.5 44.5t-41 52.5t-16 68.5z" />
<glyph unicode="T" horiz-adv-x="513" d="M364 0h-214v10l78 12q11 2 15 6t5 11l125 588h-93h-50t-50 -1l-54 -153h-7q2 12 3.5 27t4.5 30q5 32 13 64t15 56h478q-2 -24 -8.5 -57t-15 -65.5t-16.5 -54.5h-7l12 153q-25 1 -50 1h-50h-93l-125 -588l-3 -13l89 -16z" />
<glyph unicode="U" horiz-adv-x="656" d="M577 221q-25 -117 -92 -174t-151 -57q-73 0 -120.5 43t-47.5 129q0 16 2 33t6 35l81 381l3 13l-89 16l2 10h214v-10l-78 -12q-10 -1 -14 -5.5t-6 -11.5l-82 -385q-4 -16 -6 -31t-2 -29q0 -74 40.5 -112t103.5 -38q47 0 89.5 23.5t74.5 69.5t46 114l83 390l2 11l-89 16 l2 10h209v-10l-95 -16l-3 -11z" />
<glyph unicode="V" horiz-adv-x="654" d="M336 -4h-13l-88 590q-4 23 -10.5 32.5t-24.5 12.5l-50 9l2 10h198v-10l-88 -15l83 -565l319 565l-88 15l2 10h198v-10q-28 -4 -54 -10q-19 -4 -29.5 -14t-21.5 -30z" />
<glyph unicode="W" horiz-adv-x="974" d="M991 586l-330 -590h-13l-57 463l-260 -463h-13l-83 590q-3 22 -9 31.5t-23 12.5l-53 10l2 10h198v-10l-88 -15l78 -564l245 441l-10 84q-3 23 -9 32t-23 12l-53 10l2 10h198v-10l-88 -15l70 -563l312 562l-88 16l2 10h198v-10q-13 -2 -26.5 -4.5t-27.5 -5.5 q-21 -4 -30.5 -14t-20.5 -30z" />
<glyph unicode="X" horiz-adv-x="645" d="M143 58l230 270l-117 262q-10 23 -18 30.5t-24 10.5l-50 9l2 10h198v-10l-89 -15l123 -275l223 275l-84 15l2 10h198v-10q-15 -2 -27 -4.5t-27 -5.5t-26.5 -12.5t-25.5 -25.5l-224 -263l123 -276q8 -18 17 -25t22 -9l50 -9l-2 -10h-198v10l89 15l-126 282l-229 -282 l84 -15l-2 -10h-198v10q15 2 27.5 4.5t26.5 5.5q25 5 52 38z" />
<glyph unicode="Y" horiz-adv-x="584" d="M403 0h-214v10l78 12q11 2 15 6t5 11l22 104q10 48 12 111t-3.5 129t-17 122t-27.5 90.5t-36 34.5q-15 0 -33.5 -16.5t-36.5 -42t-34 -52.5l-8 4q12 29 31.5 60.5t43 54t46.5 22.5q25 0 46 -36t35 -96.5t19.5 -136t1.5 -155.5q31 80 68 155.5t74 136t70.5 96.5t58.5 36 q22 0 34.5 -19.5t19 -49t10.5 -58.5l-9 -4q-13 44 -24.5 72.5t-31.5 28.5q-15 0 -39 -25t-52.5 -67.5t-58 -94.5t-55.5 -106.5t-45 -104.5t-27 -87l-22 -106l-3 -13l89 -16z" />
<glyph unicode="Z" horiz-adv-x="527" d="M487 77q-4 -23 -9 -40.5t-11 -36.5h-406l-1 17l497 611h-327l-57 -163h-8q2 23 5.5 50t11.5 61q5 23 9.5 39.5t10.5 34.5h397l1 -17l-498 -611h337l57 163h8q-1 -22 -5.5 -48t-11.5 -60z" />
<glyph unicode="[" horiz-adv-x="366" d="M281 -96h-157l168 791h157l-5 -23h-127l-159 -745h128z" />
<glyph unicode="\" horiz-adv-x="448" d="M360 -6l-28 -4l-101 698l2 3l28 4l101 -698z" />
<glyph unicode="]" horiz-adv-x="365" d="M212 695h157l-168 -791h-157l5 23h127l159 745h-128z" />
<glyph unicode="^" horiz-adv-x="600" d="M217 210h-35l213 335h36l76 -335h-34l-68 299z" />
<glyph unicode="_" horiz-adv-x="512" d="M9 -185l5 25h416l-5 -25h-416z" />
<glyph unicode="`" horiz-adv-x="351" d="M240 585l-8 -8q-24 21 -51 45t-45.5 46t-18.5 37q0 18 17 18h3q15 -28 42.5 -64.5t60.5 -73.5z" />
<glyph unicode="a" horiz-adv-x="428" d="M78 94q0 54 13.5 111.5t38.5 112t59 98t75.5 69t87.5 25.5q24 0 43.5 -6t32.5 -14l-23 -93l-63 -292q-4 -22 -7 -39.5t-3 -30.5q0 -15 8 -15q10 0 27 16.5t37.5 42t38.5 52.5l6 -4q-13 -28 -33 -60t-43 -54.5t-44 -22.5q-10 0 -18.5 9t-8.5 33q0 14 3 32.5t7 40.5l45 197 q-35 -94 -74.5 -164.5t-77 -109t-67.5 -38.5q-31 0 -45.5 29t-14.5 75zM378 407l14 66q-14 7 -30 10t-31 3q-34 0 -67 -23.5t-61 -64t-49.5 -91t-33.5 -104.5t-12 -104q0 -36 9 -58.5t28 -22.5q26 0 67 48.5t85.5 136.5t80.5 204z" />
<glyph unicode="b" horiz-adv-x="407" d="M106 105l100 470l20 96l-85 8v5q31 3 57.5 6t58.5 5l4 -4l-25 -116q-19 -90 -33.5 -155t-27 -118.5t-25.5 -108.5q34 96 72.5 167t75.5 110.5t69 39.5q34 0 49.5 -31.5t15.5 -81.5q0 -52 -11.5 -108t-33 -109.5t-52 -96t-69 -68t-84.5 -25.5q-26 0 -54.5 7t-42.5 18z M360 482q-27 0 -67 -48.5t-82 -135.5t-77 -201l-15 -66q18 -9 41.5 -13t42.5 -4q34 0 64 23.5t55 63t42.5 89t27.5 102t10 100.5q0 40 -10 65t-32 25z" />
<glyph unicode="c" horiz-adv-x="341" d="M347 139q-14 -36 -39 -70.5t-55 -56.5t-61 -22q-49 0 -75.5 41.5t-26.5 115.5q0 64 17.5 128t47.5 117.5t68 85.5t79 32q38 0 56.5 -26.5t18.5 -65.5q0 -33 -9 -63t-27 -30q-8 0 -13 4q8 17 13 39.5t5 44.5q0 36 -11.5 56.5t-39.5 20.5q-33 0 -64 -32t-55.5 -83.5 t-39 -111t-14.5 -115.5q0 -61 19 -97.5t53 -36.5q25 0 51 18t51 47.5t45 63.5z" />
<glyph unicode="d" horiz-adv-x="428" d="M312 105l39 182q-35 -90 -73 -157t-74.5 -103.5t-65.5 -36.5q-31 0 -45.5 29t-14.5 75q0 54 13.5 111.5t38.5 112t59 98t75.5 69t87.5 25.5q25 0 45 -6l15 71l20 96l-85 8v5q31 3 57.5 6t58.5 5l4 -4l-25 -116l-100 -470q-4 -22 -7 -39.5t-3 -30.5q0 -15 8 -15 q10 0 27 16.5t37.5 42t38.5 52.5l6 -4q-13 -28 -33 -60t-43 -54.5t-44 -22.5q-10 0 -18.5 9t-8.5 33q0 14 3 32.5t7 40.5zM145 18q26 0 67 49t85 137t80 204l14 65q-26 13 -60 13t-67 -23.5t-61 -64t-49.5 -91t-33.5 -104.5t-12 -104q0 -36 9 -58.5t28 -22.5z" />
<glyph unicode="e" horiz-adv-x="329" d="M347 139q-14 -35 -38 -69.5t-55 -57t-66 -22.5q-46 0 -72 42t-26 115q0 63 17.5 127.5t47 117.5t68 85.5t80.5 32.5q35 0 53 -22t18 -55q0 -50 -21.5 -89.5t-57 -67.5t-79.5 -43.5t-89 -18.5q-5 -34 -5 -65q0 -61 18.5 -98t53.5 -37t75.5 38t71.5 91zM297 490 q-27 0 -53 -22t-48.5 -59t-39.5 -83t-26 -94q67 9 114.5 37.5t72.5 71t25 92.5q0 23 -10.5 40t-34.5 17z" />
<glyph unicode="f" horiz-adv-x="272" d="M125 -6q-19 -92 -58 -140.5t-92 -48.5q-36 0 -59 17t-23 39q0 15 12 21q14 -19 33 -34.5t44 -15.5q48 0 71.5 37t41.5 124l97 457h-86l1 7l89 15l8 36q19 92 58.5 139.5t92.5 47.5q35 0 58.5 -17.5t23.5 -36.5q0 -15 -13 -21q-12 20 -34.5 36t-48.5 16q-38 0 -64 -40 t-41 -115l-10 -45h146l-4 -22h-146z" />
<glyph unicode="g" horiz-adv-x="331" d="M319 -70q0 -28 -25 -57t-66.5 -48.5t-92.5 -19.5q-70 0 -107.5 27.5t-37.5 68.5q0 60 86 113l5 -5q-25 -22 -42 -47t-17 -52q0 -37 30.5 -59t87.5 -22q38 0 71.5 12.5t54.5 34.5t21 48q0 21 -15 37t-37.5 29t-45 24.5t-37.5 24.5t-15 29q0 20 27.5 43t68.5 54 q-14 -4 -30 -4q-42 0 -69 31.5t-27 91.5t23.5 111.5t64 83t90.5 31.5t96.5 2t77.5 6q3 -6 3 -13q0 -10 -6 -16t-22 -6q-17 0 -44.5 3t-67.5 8q21 -16 30.5 -42.5t9.5 -59.5q0 -61 -19.5 -106.5t-48 -79.5t-57.5 -58.5t-48.5 -42.5t-19.5 -32q0 -10 15 -21t37.5 -23.5t45 -27 t37.5 -32t15 -39.5zM137 290q0 -50 18.5 -79t52.5 -29q31 0 59 27t46.5 74t18.5 107q0 41 -15 68.5t-47 27.5q-35 0 -65.5 -28t-49 -73t-18.5 -95z" />
<glyph unicode="h" horiz-adv-x="466" d="M124 -3q-2 -1 -13 -4t-13 -3q-5 0 -4 6l23 109h1l100 470l20 96l-85 8v5q31 3 57.5 6t58.5 5l4 -4l-25 -116q-20 -93 -40 -185.5t-41 -184.5q38 92 79 160.5t81 106.5t76 38q28 0 39.5 -16.5t11.5 -42.5q0 -27 -8.5 -69.5t-20.5 -91.5t-24.5 -97t-20.5 -88 q-4 -22 -7 -39.5t-3 -30.5q0 -15 8 -15q10 0 27 16.5t37.5 42t38.5 52.5l6 -4q-13 -28 -33 -60t-43 -54.5t-44 -22.5q-10 0 -18.5 9t-8.5 33q0 14 3 32.5t7 40.5q8 41 20.5 89.5t24.5 96.5t20.5 89t8.5 66q0 16 -6 26t-22 10q-31 0 -74.5 -47.5t-89 -132t-84.5 -197.5h-1z " />
<glyph unicode="i" horiz-adv-x="246" d="M282 660q0 -16 -11 -30.5t-29 -14.5q-26 0 -26 26q0 17 12.5 30.5t28.5 13.5q25 0 25 -25zM130 105q9 44 22 96t26 103t21 91q5 22 7.5 39.5t2.5 30.5q0 15 -8 15q-10 0 -27 -16.5t-37 -42t-39 -52.5l-6 4q13 29 33 60.5t43 54t44 22.5q11 0 19 -9t8 -33q0 -13 -2.5 -32 t-7.5 -41q-8 -41 -21 -93t-26 -103.5t-22 -93.5q-4 -22 -7 -39.5t-3 -30.5q0 -15 8 -15q10 0 27 16.5t37.5 42t38.5 52.5l6 -4q-13 -28 -33 -60t-43 -54.5t-44 -22.5q-10 0 -18.5 9t-8.5 33q0 14 3 32.5t7 40.5z" />
<glyph unicode="j" horiz-adv-x="222" d="M289 660q0 -16 -11 -30.5t-29 -14.5q-26 0 -26 26q0 17 12.5 30.5t28.5 13.5q25 0 25 -25zM149 -6q-19 -92 -58 -140.5t-92 -48.5q-36 0 -59 17t-23 39q0 15 12 21q14 -19 33 -34.5t44 -15.5q48 0 71.5 37t41.5 124l85 402q5 22 7.5 39.5t2.5 30.5q0 15 -8 15 q-10 0 -27 -16.5t-37 -42t-39 -52.5l-6 4q13 29 33 60.5t43 54t44 22.5q11 0 19 -9t8 -33q0 -13 -2.5 -32t-7.5 -41z" />
<glyph unicode="k" horiz-adv-x="444" d="M125 -3q-2 -1 -13 -4t-13 -3q-5 0 -4 6l23 109l100 470l20 96l-85 8v5q31 3 57.5 6t58.5 5l4 -4l-25 -116q-20 -94 -35 -161.5t-28 -123.5t-27 -115q37 101 80.5 176.5t89 117t88.5 41.5q32 0 48 -20t16 -51q0 -50 -31.5 -93t-80 -76t-98.5 -53q37 -110 59.5 -154.5 t42.5 -44.5q13 0 30.5 17t37 43t37.5 53l6 -4q-13 -28 -32 -60t-41 -54.5t-45 -22.5q-31 0 -59 54.5t-66 173.5l1 4q57 23 104 55t75 72t28 86q0 21 -10.5 34t-31.5 13q-36 0 -82.5 -48.5t-93 -135.5t-84.5 -203v0z" />
<glyph unicode="l" horiz-adv-x="234" d="M118 105l100 470l20 96l-85 8v5q31 3 57.5 6t58.5 5l4 -4l-25 -116l-100 -470q-4 -22 -7 -39.5t-3 -30.5q0 -15 8 -15q10 0 27 16.5t37.5 42t38.5 52.5l6 -4q-13 -28 -33 -60t-43 -54.5t-44 -22.5q-10 0 -18.5 9t-8.5 33q0 14 3 32.5t7 40.5z" />
<glyph unicode="m" horiz-adv-x="694" d="M137 -3q-2 -1 -13 -4t-13 -3q-5 0 -4 6l23 109l6 28l37 174q14 67 20.5 102t6.5 51q0 20 -11 20q-12 0 -29 -16.5t-35 -42t-35 -52.5l-6 4q12 29 32 60.5t43.5 54t44.5 22.5q11 0 19 -8t8 -30t-7.5 -63.5t-20.5 -96t-27 -115.5q38 95 79 165.5t80.5 109t75.5 38.5 q26 0 37 -16.5t11 -42.5q0 -39 -13 -99t-31 -134q36 88 74 154t75 102t71 36q26 0 37 -16.5t11 -42.5q0 -27 -8.5 -69.5t-20.5 -91.5t-24.5 -97t-21.5 -88q-4 -22 -7 -39.5t-3 -30.5q0 -15 8 -15q10 0 27 16.5t37.5 42t38.5 52.5l6 -4q-13 -28 -33 -60t-43 -54.5t-44 -22.5 q-10 0 -18.5 9t-8.5 33q0 14 3 32.5t7 40.5q9 41 21.5 89.5t24.5 96.5t20.5 89t8.5 66q0 16 -5.5 26t-19.5 10q-30 0 -71 -47.5t-84 -132t-81 -197.5h-1l-23 -108q-2 -1 -13 -4t-13 -3q-5 0 -4 6l23 109h1q8 41 19 89.5t22 96.5t18.5 89t7.5 66q0 16 -5.5 26t-19.5 10 q-31 0 -73.5 -47.5t-87 -132t-83.5 -197.5z" />
<glyph unicode="n" horiz-adv-x="477" d="M137 -3q-2 -1 -13 -4t-13 -3q-5 0 -4 6l23 109l6 28l37 174q14 67 20.5 102t6.5 51q0 20 -11 20q-12 0 -29 -16.5t-35 -42t-35 -52.5l-6 4q12 29 32 60.5t43.5 54t44.5 22.5q11 0 19 -8t8 -30t-8 -64.5t-20.5 -97.5t-27.5 -116q38 95 79.5 166.5t82.5 110.5t77 39 q28 0 39.5 -16.5t11.5 -42.5q0 -27 -8.5 -69.5t-20.5 -91.5t-24.5 -97t-20.5 -88q-4 -22 -7 -39.5t-3 -30.5q0 -15 8 -15q10 0 27 16.5t37.5 42t38.5 52.5l6 -4q-13 -28 -33 -60t-43 -54.5t-44 -22.5q-10 0 -18.5 9t-8.5 33q0 14 3 32.5t7 40.5q8 41 20.5 89.5t24.5 96.5 t20.5 89t8.5 66q0 16 -6 26t-22 10q-31 0 -74 -47.5t-88.5 -132t-84.5 -197.5z" />
<glyph unicode="o" horiz-adv-x="396" d="M408 335q0 -68 -16.5 -130t-45 -110.5t-65 -76.5t-76.5 -28q-52 0 -81.5 49.5t-29.5 125.5q0 68 17 130t47 110.5t67.5 76.5t77.5 28q53 0 79 -47.5t26 -127.5zM126 169q0 -72 21.5 -113.5t60.5 -41.5q36 0 66.5 28t53.5 74.5t35.5 103.5t12.5 116q0 64 -18 107t-60 43 q-36 0 -67 -28t-55 -75t-37 -102.5t-13 -111.5z" />
<glyph unicode="p" horiz-adv-x="431" d="M97 -188q-2 -1 -13 -4t-13 -3q-5 0 -4 6l23 109l46 213l37 174q14 67 20.5 102t6.5 51q0 20 -11 20q-12 0 -29 -16.5t-35 -42t-35 -52.5l-6 4q12 29 32 60.5t43.5 54t44.5 22.5q11 0 19 -8t8 -30t-7.5 -63.5t-20.5 -96t-27 -114.5q34 94 72 164.5t74.5 109t68.5 38.5 q34 0 49.5 -31.5t15.5 -81.5q0 -52 -11.5 -108.5t-33 -109.5t-52.5 -96t-70 -68t-85 -25q-18 0 -35 3t-32 8l-17 -81zM157 95v0l-13 -63q18 -10 40.5 -14t43.5 -4q40 0 76 34.5t63.5 91t43 123t15.5 130.5q0 39 -10 64t-32 25q-27 0 -67 -48.5t-82 -135.5t-78 -203z" />
<glyph unicode="q" horiz-adv-x="394" d="M280 -188q-2 -1 -13 -4t-13 -3q-5 0 -4 6l23 109q20 97 41.5 193t43.5 192q-35 -95 -74.5 -166t-77.5 -110t-68 -39q-31 0 -45.5 29t-14.5 75q0 54 13.5 111.5t38.5 112t59 98t75.5 69t87.5 25.5q25 0 43 -5.5t31 -14.5l-22 -93l-101 -477zM108 99q0 -36 9 -58.5 t28 -22.5q26 0 67 49t85 136.5t80 203.5l14 66q-26 13 -60 13t-67 -23.5t-61 -64t-49.5 -91t-33.5 -104.5t-12 -104z" />
<glyph unicode="r" horiz-adv-x="348" d="M137 -3q-2 -1 -13 -4t-13 -3q-5 0 -4 6l23 109l6 28l37 174q14 67 20.5 102t6.5 51q0 20 -11 20q-12 0 -29 -16.5t-35 -42t-35 -52.5l-6 4q12 29 32 60.5t43.5 54t44.5 22.5q11 0 19 -8t8 -30q0 -21 -7 -60.5t-19 -91.5t-26 -110q34 91 71.5 158.5t75.5 104.5t74 37 q17 0 27 -9t10 -21q0 -7 -3.5 -13.5t-8.5 -11.5q-7 8 -17 14.5t-22 6.5q-30 0 -69.5 -46.5t-80 -130t-76.5 -194.5z" />
<glyph unicode="s" horiz-adv-x="336" d="M322 119q0 -55 -39 -92t-103 -37q-49 0 -80.5 27t-31.5 66q0 29 12.5 51.5t34.5 40.5l6 -3q-11 -22 -17 -40t-6 -38q0 -38 25 -60t63 -22q44 0 74.5 27t30.5 77q0 33 -16 59.5t-39 49.5t-46 47t-39 52t-16 64q0 35 17 62.5t46 43.5t64 16q44 0 74 -24t30 -67 q0 -25 -10.5 -47.5t-26.5 -42.5l-7 3q5 17 9.5 37t4.5 36q0 40 -21 61.5t-56 21.5q-39 0 -66 -26.5t-27 -70.5q0 -33 16 -60t39 -50.5t46 -47.5t39 -51.5t16 -62.5z" />
<glyph unicode="t" horiz-adv-x="290" d="M305 127q-15 -28 -38.5 -60t-51 -54.5t-56.5 -22.5q-18 0 -33.5 12t-15.5 43q0 14 3.5 33t7.5 41l71 331h-86l1 7l90 15l54 147l6 -1l-31 -146h146l-4 -22h-147l-70 -331q-4 -23 -7.5 -40.5t-3.5 -30.5q0 -11 6 -19.5t20 -8.5q17 0 39 16.5t46.5 42t47.5 52.5z" />
<glyph unicode="u" horiz-adv-x="484" d="M453 503q2 1 13.5 4t12.5 3q6 0 4 -6l-23 -109l-6 -28l-37 -174q-14 -67 -20.5 -101.5t-6.5 -51.5q0 -20 11 -20q13 0 29.5 16.5t35 42t34.5 52.5l6 -4q-12 -28 -32 -60t-43.5 -54.5t-44.5 -22.5q-10 0 -18.5 8t-8.5 30t8 64.5t20.5 97.5t27.5 116q-38 -95 -79.5 -166.5 t-82.5 -110.5t-77 -39q-28 0 -39.5 16.5t-11.5 42.5q0 27 8.5 69.5t20.5 91.5t24.5 97t20.5 88q5 22 7.5 39.5t2.5 30.5q0 15 -8 15q-10 0 -27 -16.5t-37 -42t-39 -52.5l-6 4q13 29 33 60.5t43 54t44 22.5q11 0 19 -9t8 -33q0 -13 -2.5 -32t-7.5 -41q-8 -41 -20.5 -89.5 t-24.5 -96.5t-20.5 -89t-8.5 -66q0 -16 6 -26t22 -10q31 0 74 47.5t88.5 132.5t84.5 197z" />
<glyph unicode="v" horiz-adv-x="343" d="M146 0q10 113 17 218.5t7 181.5q0 36 -6 58t-22 22q-19 0 -43 -31.5t-50 -79.5l-6 4q11 32 28.5 63.5t39 52.5t43.5 21q29 0 37.5 -29.5t8.5 -75.5q0 -56 -7 -151t-19 -204q37 50 72 107t63.5 115.5t45 112.5t16.5 98q0 8 -0.5 13.5t-1.5 9.5q6 4 14 4q20 0 20 -33 q0 -52 -31 -129t-86.5 -167t-130.5 -181h-9z" />
<glyph unicode="w" horiz-adv-x="560" d="M388 510q16 0 20 -15t4 -44q0 -42 -2.5 -104.5t-7.5 -139t-12 -158.5q37 50 72.5 107t63.5 115.5t45 113t17 98.5q0 8 -0.5 13.5t-1.5 9.5q6 4 14 4q20 0 20 -33q0 -52 -31 -129.5t-86.5 -167t-130.5 -180.5h-9q8 113 14.5 221t8.5 202q-25 -98 -78.5 -200t-152.5 -223 h-9q10 113 17 218.5t7 181.5q0 36 -5.5 58t-22.5 22q-19 0 -43 -33.5t-50 -77.5l-6 4q12 32 29 63.5t38 52.5t43 21q29 0 38 -29.5t9 -75.5q0 -56 -7 -150.5t-19 -203.5q38 50 74 107t65 116.5t46 117.5t17 111v4q5 3 12 3z" />
<glyph unicode="x" horiz-adv-x="402" d="M106 -13q-6 -2 -14 -2q-24 0 -24 28t26.5 68.5t67 85t82.5 84.5l-25 109q-10 47 -17 72t-13.5 34t-15.5 9q-10 0 -25 -17t-31.5 -42t-31.5 -51l-7 3q12 31 29 62.5t36.5 53t38.5 21.5q24 0 35.5 -28t28.5 -104l24 -107q35 37 67 74.5t53 76t21 78.5v8t-1 9q6 3 14 3 q24 0 24 -28q0 -29 -26 -69.5t-66 -85t-81 -85.5l25 -112q11 -47 17.5 -72t13 -34t15.5 -9q10 0 25 17t31.5 42.5t31.5 50.5l7 -3q-12 -30 -29 -62t-36 -53.5t-39 -21.5q-24 0 -35.5 28t-28.5 104l-25 110q-35 -36 -67.5 -73.5t-54 -75.5t-21.5 -78v-8.5t1 -9.5z" />
<glyph unicode="y" horiz-adv-x="359" d="M223 355q0 -43 -6 -99.5t-18.5 -118t-31.5 -118.5q66 61 114.5 139.5t75.5 161t27 155.5q0 11 -0.5 18t-1.5 13q6 4 14 4q10 0 15 -6.5t5 -26.5q0 -50 -16.5 -112.5t-49 -129.5t-81 -131t-113.5 -117q-19 -51 -43.5 -92.5t-54.5 -65.5t-66 -24q-33 0 -52.5 12t-19.5 28 q0 11 5 18.5t12 11.5q9 -20 25.5 -33t35.5 -13q36 0 66 34t53.5 90.5t40 125.5t25 140t8.5 133q0 52 -7.5 90t-27.5 38q-18 0 -40.5 -33.5t-45.5 -77.5l-6 4q11 32 26.5 63.5t35 52.5t39.5 21q24 0 36.5 -21.5t17 -56.5t4.5 -77z" />
<glyph unicode="z" horiz-adv-x="373" d="M147 24q-26 0 -47 -8.5t-44 -25.5l-12 12q57 74 106.5 141t96.5 134t98 142q-41 22 -85 38t-67 16q-24 0 -41.5 -28.5t-40.5 -81.5l-9 4q20 63 36.5 100.5t53.5 37.5q34 0 79 -21.5t86 -48.5q12 18 25 37l26 38q22 -2 22 -18q0 -8 -8 -19q-35 -48 -76.5 -106.5t-101 -139 t-146.5 -195.5q30 18 63 18q19 0 44.5 -7t49 -14t37.5 -7q17 0 37 28t51 82l8 -5q-22 -58 -43.5 -97.5t-48.5 -39.5q-19 0 -44.5 8.5t-52.5 17t-52 8.5z" />
<glyph unicode="{" horiz-adv-x="380" d="M169 308q47 5 70.5 21.5t32 45t8.5 69.5q0 23 -3.5 46t-3.5 47q0 84 51.5 121t135.5 37v-16q-75 -3 -114.5 -34.5t-39.5 -105.5q0 -25 2 -49.5t2 -50.5q0 -120 -102 -143q31 -9 44.5 -27t13.5 -44q0 -25 -11.5 -53.5t-26 -58t-26 -59t-11.5 -55.5q0 -76 105 -82l-3 -16 q-64 0 -99.5 25.5t-35.5 72.5q0 25 12 54.5t27 60t27 59t12 52.5q0 29 -16 45.5t-54 17.5z" />
<glyph unicode="|" horiz-adv-x="321" d="M136 -192l-29 -3l-3 5l189 882l28 3l3 -5z" />
<glyph unicode="}" horiz-adv-x="320" d="M337 288q-46 -5 -70 -21.5t-32.5 -44.5t-8.5 -70q0 -23 3.5 -46t3.5 -47q0 -84 -51.5 -121t-135.5 -37v16q75 3 114.5 35t39.5 105q0 25 -2 50t-2 50q0 120 102 143q-31 9 -44.5 27t-13.5 44q0 25 11.5 53.5t26 58t26 59t11.5 55.5q0 76 -105 82l3 16q65 0 100 -25.5 t35 -72.5q0 -25 -12 -54.5t-27 -60t-27 -59t-12 -52.5q0 -28 16.5 -44.5t53.5 -18.5z" />
<glyph unicode="~" horiz-adv-x="600" d="M228 279q-10 0 -28.5 -20t-38.5 -46l-14 8q10 18 22.5 38.5t27.5 34.5t32 14t51.5 -9t74.5 -21.5t75.5 -21.5t53.5 -9q10 0 28 19.5t39 46.5l14 -8q-9 -18 -21.5 -38t-27.5 -34.5t-33 -14.5q-13 0 -39 6t-58 15.5t-63.5 18.5t-57 15t-37.5 6z" />
<glyph unicode="&#xa1;" horiz-adv-x="264" d="M200 465q0 17 11 31t29 14q26 0 26 -26q0 -17 -12 -30.5t-29 -13.5q-25 0 -25 25zM111 -190l-4 -3q-12 -2 -22 -2q-11 0 -9 10q3 13 8.5 38t12.5 55l100 438h18z" />
<glyph unicode="&#xa2;" horiz-adv-x="397" d="M219 -120l-25 -2l-4 5l23 108q-44 4 -67.5 45t-23.5 111q0 63 17 126.5t46.5 116t66.5 85.5t77 35l24 110l25 2l4 -5l-24 -111q26 -8 38.5 -32t12.5 -56q0 -33 -9 -63t-27 -30q-8 0 -13 4q8 17 13 39.5t5 44.5q0 36 -11.5 56.5t-39.5 20.5q-33 0 -64 -32t-55.5 -83.5 t-39 -111t-14.5 -115.5q0 -61 19 -97.5t53 -36.5q25 0 51 18t51 47.5t45 63.5l6 -4q-13 -32 -34 -63.5t-47.5 -54t-54.5 -29.5z" />
<glyph unicode="&#xa3;" horiz-adv-x="451" d="M476 -85q0 -14 -12 -21.5t-30 -7.5q-37 0 -76 15.5t-77.5 37t-74.5 40t-68 24.5q-23 -13 -51 -13q-11 0 -18.5 4.5t-7.5 13.5q1 10 13 15.5t31 5.5q17 0 38 -5q17 23 31.5 59t30.5 101l31 130h-121l7 23h120l32 135q26 110 73 164t105 54q46 0 73.5 -28t27.5 -60 q0 -13 -7.5 -20.5t-18.5 -8.5q-6 49 -28 71t-55 22q-91 0 -138 -191l-34 -138h176l-7 -23h-174l-33 -134q-11 -47 -28 -90.5t-45 -70.5q43 -13 92 -36.5t98.5 -42.5t94.5 -19q9 0 16 0.5t12 1.5q2 -4 2 -8z" />
<glyph unicode="&#xa4;" horiz-adv-x="555" d="M488 117l-61 79q-24 -20 -53.5 -31.5t-63.5 -11.5q-32 0 -56.5 10t-42.5 27l-88 -74l-20 24l90 74q-20 33 -20 77q0 42 18 81t48 67l-58 75l25 21q14 -19 29 -38t30 -37q23 15 50 24t57 9q31 0 55 -10.5t41 -28.5l97 81l20 -24l-99 -81q19 -34 19 -79q0 -35 -14.5 -70.5 t-40.5 -63.5q18 -22 34.5 -41.5t28.5 -33.5l-2 -8zM367 466q-47 0 -84 -24.5t-58 -63.5t-21 -83q0 -51 28 -83t80 -32q47 0 83 24t57 62t21 79q0 58 -26.5 89.5t-79.5 31.5z" />
<glyph unicode="&#xa5;" horiz-adv-x="604" d="M413 0h-214v10l78 12q11 2 15 6t5 11l16 77h-182l3 23h184l1 4q7 32 10 73h-178l3 23h176q3 50 0 104.5t-10 105.5t-18 92t-25 65t-30 24q-15 0 -33.5 -16.5t-36.5 -42t-34 -52.5l-8 4q12 29 31.5 60.5t43 54t46.5 22.5q25 0 45.5 -35.5t35 -96t20 -135.5t1.5 -154h1 q31 79 68 154t74 135.5t70 96t58 35.5q22 0 34.5 -19.5t19 -49t10.5 -58.5l-9 -4q-13 44 -24.5 72.5t-31.5 28.5q-15 0 -38.5 -24.5t-52 -66t-57.5 -92.5t-55 -105t-45 -103h151l-3 -23h-156q-15 -41 -21 -71l-1 -6h161l-3 -23h-163l-16 -77l-3 -13l89 -16z" />
<glyph unicode="&#xa6;" horiz-adv-x="321" d="M246 325l-29 -3l-3 5l79 365l28 3l3 -5zM136 -192l-29 -3l-3 5l78 367l29 3l3 -5z" />
<glyph unicode="&#xa7;" horiz-adv-x="511" d="M461 95q0 -59 -23 -106t-62 -80.5t-86 -51t-95 -17.5q-64 0 -105.5 21.5t-41.5 48.5q0 11 7.5 20t18.5 16h7q21 -43 59.5 -62t89.5 -24q23 13 43.5 38t33 57t12.5 65q0 41 -16.5 79t-40.5 75t-48 74.5t-40.5 77.5t-16.5 85q0 56 22.5 101.5t60.5 78.5t85 51t95 18 q42 0 75.5 -11t53 -28.5t19.5 -37.5q0 -14 -8 -24t-19 -15h-7q-22 47 -61 70.5t-88 25.5q-22 -13 -42 -37.5t-32.5 -56.5t-12.5 -67q0 -42 16.5 -79.5t41 -73t48.5 -72t40.5 -75.5t16.5 -84zM287 -116l4 -4q61 27 99.5 84t38.5 126q0 43 -16.5 81.5t-40.5 75t-48.5 72.5 t-41 73.5t-16.5 78.5q0 38 14.5 76.5t47.5 68.5l-4 4q-60 -28 -97.5 -80.5t-37.5 -123.5q0 -43 16.5 -82t40.5 -76.5t48 -74.5t40.5 -75.5t16.5 -80.5q0 -40 -16 -78.5t-48 -64.5z" />
<glyph unicode="&#xa8;" horiz-adv-x="441" d="M163 662q0 -18 -12 -33t-29 -15q-22 0 -22 24q0 19 12.5 33.5t28.5 14.5q22 0 22 -24zM341 662q0 -18 -12 -33t-29 -15q-22 0 -22 24q0 19 12.5 33.5t28.5 14.5q22 0 22 -24z" />
<glyph unicode="&#xa9;" horiz-adv-x="642" d="M332 -10q-67 0 -116.5 26t-76 73.5t-26.5 109.5q0 63 24.5 119.5t67 99.5t97 67.5t114.5 24.5q66 0 115.5 -28t76.5 -75.5t27 -107.5q0 -61 -24 -117t-66.5 -99t-97 -68t-115.5 -25zM339 15q54 0 102.5 23t85 63t57.5 89.5t21 101.5q0 86 -51.5 139.5t-142.5 53.5 q-52 0 -100 -22.5t-86 -62t-60 -90t-22 -106.5q0 -85 52.5 -137t143.5 -52zM463 155q-16 -24 -43.5 -42.5t-60.5 -18.5q-46 0 -73 29t-27 86q0 52 22 97t58 72.5t77 27.5q35 0 56.5 -21t21.5 -55q0 -20 -6.5 -34t-20.5 -14q-7 0 -11 4q8 21 8 43q0 28 -13.5 43.5t-39.5 15.5 q-33 0 -60.5 -26t-44 -66.5t-16.5 -83.5q0 -45 21 -69.5t54 -24.5q26 0 48.5 12t44.5 32z" />
<glyph unicode="&#xaa;" horiz-adv-x="347" d="M132 365q0 48 16 99.5t45 96t68 72t84 27.5q20 0 36.5 -4.5t26.5 -10.5l-18 -66l-48 -205q-3 -16 -5 -28.5t-2 -21.5q0 -10 6 -10q11 0 34 24.5t44 52.5l5 -2q-10 -21 -26 -44.5t-34 -40t-35 -16.5q-9 0 -16 7.5t-7 26.5q0 18 8 52l33 132q-40 -100 -86 -159t-81 -59 q-25 0 -36.5 21.5t-11.5 55.5zM364 588l11 45q-11 5 -23 7t-23 2q-33 0 -63 -26t-54 -67.5t-38 -89t-14 -91.5q0 -25 6.5 -40.5t21.5 -15.5q20 0 51 35.5t64.5 97.5t60.5 143z" />
<glyph unicode="&#xab;" horiz-adv-x="487" d="M418 70l-13 -8q-17 36 -37.5 71.5t-39.5 65.5t-34 47l-1 4l3 17q38 29 88 76t101 96l9 -8q-34 -41 -77 -85.5t-87 -91.5q22 -34 46 -85t42 -99zM263 70l-13 -8q-17 36 -37.5 71.5t-39.5 65.5t-34 47l-1 4l3 17q38 29 88 76t101 96l9 -8q-34 -41 -77 -85.5t-87 -91.5 q22 -34 46 -85t42 -99z" />
<glyph unicode="&#xac;" horiz-adv-x="539" d="M523 325l-41 -193h-28l36 171h-360l5 25q33 1 83.5 2t107 1.5t107.5 1t84 0.5z" />
<glyph unicode="&#xae;" horiz-adv-x="642" d="M332 -10q-67 0 -116.5 26t-76 73.5t-26.5 109.5q0 63 24.5 119.5t67 99.5t97 67.5t114.5 24.5q67 0 116 -28t76 -75.5t27 -107.5q0 -61 -24 -117t-66.5 -99t-97 -68t-115.5 -25zM339 15q54 0 102.5 23t85 63t57.5 89.5t21 101.5q0 86 -51.5 139.5t-142.5 53.5 q-52 0 -100 -22.5t-86 -62t-60 -90t-22 -106.5q0 -85 52.5 -137t143.5 -52zM395 378h-30l-12 -58l-16 -76h41q38 0 64.5 22.5t26.5 56.5q0 31 -19.5 43t-54.5 12zM311 123l46 -12l-2 -7h-124v7l33 8q10 2 15 4.5t7 12.5l12 58l36 168q2 8 -0.5 11.5t-12.5 6.5l-31 9l3 7h114 q41 0 66.5 -17.5t25.5 -52.5q0 -34 -24 -59t-60 -36l22 -51q15 -34 22.5 -46t22.5 -17l15 -6l-2 -7q-16 -1 -20 -1h-6q-24 0 -33 12t-17 33l-32 78h-54l-7 -32z" />
<glyph unicode="&#xaf;" horiz-adv-x="446" d="M103 638l6 24h234l-6 -24h-234z" />
<glyph unicode="&#xb0;" horiz-adv-x="363" d="M280 435q-44 0 -68.5 25t-24.5 67q0 36 18 66.5t48 48.5t65 18q41 0 66 -24.5t25 -67.5q0 -34 -17.5 -64.5t-46.5 -49.5t-65 -19zM313 635q-28 0 -50.5 -15t-35 -39t-12.5 -50q0 -33 18.5 -52t51.5 -19q27 0 48.5 15.5t34 39.5t12.5 50q0 32 -17.5 51t-49.5 19z" />
<glyph unicode="&#xb1;" horiz-adv-x="540" d="M538 374h-173l-32 -149h-28l32 149h-183l5 23q32 1 81 1.5t102 0.5l31 146h28l-31 -146q51 1 97.5 1h77.5l3 -5zM484 115h-384l5 23q33 1 84 1.5t108.5 1t108.5 0.5h85l3 -5z" />
<glyph unicode="&#xb2;" horiz-adv-x="349" d="M215 387q-43 0 -69 -21l-8 14q89 67 143 113t79 82.5t25 72.5q0 32 -20 50t-56 18q-33 0 -63 -20.5t-48 -58.5l-6 2q14 45 49.5 71.5t78.5 26.5q42 0 67.5 -23t25.5 -62q0 -38 -23 -73t-61.5 -69.5t-83.5 -71.5q-12 -10 -24.5 -19t-26.5 -18q10 3 20 4.5t20 1.5 q18 0 40.5 -4t43 -8.5t30.5 -4.5q12 0 19 15.5t15 34.5l4 -1q-2 -13 -5.5 -25t-5.5 -21q-4 -13 -10 -20t-17 -7q-17 0 -40 5.5t-47.5 10.5t-45.5 5z" />
<glyph unicode="&#xb3;" horiz-adv-x="324" d="M370 489q0 -52 -61.5 -85t-162.5 -39l-2 13q88 11 142.5 38t54.5 72q0 33 -27 48.5t-65 15.5h-13t-17 -1l-2 13q71 8 110 34.5t39 65.5q0 23 -16 38.5t-47 15.5q-33 0 -60 -18t-44 -50l-4 2q11 40 42.5 63.5t70.5 23.5q40 0 63 -20.5t23 -54.5q0 -35 -29.5 -62t-76.5 -38 q36 -6 59 -25.5t23 -49.5z" />
<glyph unicode="&#xb4;" horiz-adv-x="390" d="M269 705q0 -11 -19 -28.5t-46.5 -36t-54.5 -34.5t-44 -25l-6 8q46 35 87.5 70t64.5 61q18 0 18 -15z" />
<glyph unicode="&#xb6;" horiz-adv-x="584" d="M378 190h-15q-61 0 -109.5 21t-76 62t-27.5 101q0 82 41.5 144t111 97t153.5 35h100l-5 -23h-80zM464 64q-23 -109 -78.5 -166.5t-127.5 -57.5q-58 0 -93 28.5t-37 78.5q-1 41 21.5 73.5t61.5 52.5l5 -5q-26 -27 -40 -54t-14 -57q0 -43 25.5 -68t71.5 -25q64 0 109 55.5 t65 149.5l115 544l8 37h101l-1 -8l-56 -12q-10 -2 -14 -5.5t-6 -11.5z" />
<glyph unicode="&#xb7;" horiz-adv-x="261" d="M176 216q-12 0 -18 7.5t-6 17.5q0 17 12 30t27 13q24 0 24 -23q0 -18 -11.5 -31.5t-27.5 -13.5z" />
<glyph unicode="&#xb8;" horiz-adv-x="330" d="M142 -71l-2 5l22 66h24l-17 -52q61 -7 61 -48q0 -22 -20.5 -38.5t-49.5 -25.5t-56 -10l-2 15q45 6 70.5 20t25.5 35q0 14 -12.5 23t-43.5 10z" />
<glyph unicode="&#xb9;" horiz-adv-x="278" d="M301 371h-165v6l60 7q12 1 15 11l69 321l-72 -8v6l101 25l4 -4l-73 -340l-2 -9l64 -9z" />
<glyph unicode="&#xba;" horiz-adv-x="334" d="M392 533q0 -65 -22.5 -121t-59 -90t-78.5 -34q-41 0 -65 35.5t-24 91.5q0 65 23.5 120.5t61 90t79.5 34.5t63.5 -34.5t21.5 -92.5zM174 414q0 -50 16 -79t45 -29q27 0 50 20.5t40 54.5t26.5 75t9.5 82q0 45 -13 74.5t-45 29.5q-27 0 -50.5 -20.5t-41 -54.5t-27.5 -74 t-10 -79z" />
<glyph unicode="&#xbb;" horiz-adv-x="487" d="M299 241q-37 -29 -87.5 -75.5t-101.5 -96.5l-9 8q34 41 77 85.5t87 91.5q-22 34 -46 85t-42 99l13 8q18 -35 38 -71t39.5 -65.5t33.5 -47.5l1 -4zM454 241q-37 -29 -87.5 -75.5t-101.5 -96.5l-9 8q34 41 77 85.5t87 91.5q-22 34 -46 85t-42 99l13 8q18 -35 38 -71 t39.5 -65.5t33.5 -47.5l1 -4z" />
<glyph unicode="&#xbc;" horiz-adv-x="920" d="M762 660h38l-543 -670h-37zM307 288h-165v6l60 7q12 1 15 11l69 321l-72 -8v6l101 25l4 -4l-73 -340l-2 -9l64 -9zM565 113l245 255l17 -4l-52 -248l63 1l-5 -22h-63l-20 -95h-28l20 96l-173 1zM792 327l-202 -213l157 2z" />
<glyph unicode="&#xbd;" horiz-adv-x="920" d="M762 660h38l-543 -670h-37zM307 288h-165v6l60 7q12 1 15 11l69 321l-72 -8v6l101 25l4 -4l-73 -340l-2 -9l64 -9zM653 16q-43 0 -69 -21l-8 14q89 67 143 113t79 82.5t25 72.5q0 32 -20 50t-56 18q-33 0 -63 -20.5t-48 -58.5l-6 2q14 45 49.5 71.5t78.5 26.5 q42 0 67.5 -23t25.5 -62q0 -38 -23 -73t-61.5 -69.5t-83.5 -71.5q-12 -10 -24.5 -19t-26.5 -18q10 3 20 4.5t20 1.5q18 0 40.5 -4t43 -8.5t30.5 -4.5q12 0 19 15.5t15 34.5l4 -1q-2 -13 -5.5 -25t-5.5 -21q-4 -13 -10 -20t-17 -7q-17 0 -40 5.5t-47.5 10.5t-45.5 5z" />
<glyph unicode="&#xbe;" horiz-adv-x="920" d="M762 660h38l-543 -670h-37zM366 406q0 -52 -61.5 -85t-162.5 -39l-2 13q88 11 142.5 38t54.5 72q0 33 -27 48.5t-65 15.5h-13t-17 -1l-2 13q71 8 110 34.5t39 65.5q0 23 -16 38.5t-47 15.5q-33 0 -60 -18t-44 -50l-4 2q11 40 42.5 63.5t70.5 23.5q40 0 63 -20.5t23 -54.5 q0 -35 -29.5 -62t-76.5 -38q36 -6 59 -25.5t23 -49.5zM565 113l245 255l17 -4l-52 -248l63 1l-5 -22h-63l-20 -95h-28l20 96l-173 1zM792 327l-202 -213l157 2z" />
<glyph unicode="&#xbf;" horiz-adv-x="407" d="M262 465q0 17 11 31t29 14q26 0 26 -26q0 -17 -12 -30.5t-29 -13.5q-25 0 -25 25zM169 -195q-41 0 -76 17t-55.5 49t-20.5 77t17.5 80.5t45 65t59 54.5t59 48.5t45 47t17.5 49.5q0 31 -25 47l3 6q22 -4 36 -19.5t14 -37.5q0 -29 -17.5 -54t-44.5 -48.5t-57.5 -48.5 t-57.5 -53t-44.5 -62t-17.5 -76q0 -57 36 -88t92 -31q49 0 87 25t60.5 65t22.5 84q0 12 -3 24q5 4 14 4q21 0 21 -35q0 -46 -26.5 -89.5t-74 -72t-109.5 -28.5z" />
<glyph unicode="&#xc0;" horiz-adv-x="685" d="M574 735l-8 -8q-24 21 -51 45t-45.5 46t-18.5 37q0 18 17 18h3q15 -28 42.5 -64.5t60.5 -73.5zM476 654h13l87 -590q4 -25 10.5 -32.5t27.5 -12.5l45 -9l-2 -10h-204v10l96 15l-29 204l-259 -2l1 5l-116 -206l90 -16l-2 -10h-204v10l53 10q23 5 33 13.5t23 30.5zM275 254 l242 -3l-50 342z" />
<glyph unicode="&#xc1;" horiz-adv-x="685" d="M597 855q0 -11 -19 -28.5t-46.5 -36t-54.5 -34.5t-44 -25l-6 8q46 35 87.5 70t64.5 61q18 0 18 -15zM476 654h13l87 -590q4 -25 10.5 -32.5t27.5 -12.5l45 -9l-2 -10h-204v10l96 15l-29 204l-259 -2l1 5l-116 -206l90 -16l-2 -10h-204v10l53 10q23 5 33 13.5t23 30.5z M275 254l242 -3l-50 342z" />
<glyph unicode="&#xc2;" horiz-adv-x="685" d="M613 736l-9 -6q-17 24 -39.5 52.5t-44.5 55.5q-16 -15 -38 -34t-45.5 -38.5t-41.5 -34.5l-6 7q21 20 46 45.5t46 48.5t31 35l5 3h18q15 -24 36 -60t42 -74zM476 654h13l87 -590q4 -25 10.5 -32.5t27.5 -12.5l45 -9l-2 -10h-204v10l96 15l-29 204l-259 -2l1 5l-116 -206 l90 -16l-2 -10h-204v10l53 10q23 5 33 13.5t23 30.5zM275 254l242 -3l-50 342z" />
<glyph unicode="&#xc3;" horiz-adv-x="685" d="M581 787q11 9 28 26t32 33l8 -5q-20 -37 -38 -57.5t-35 -20.5q-15 0 -36 7.5t-43.5 17t-41.5 17t-29 7.5q-11 -9 -28 -25.5t-32 -33.5l-8 5q20 38 38 58t35 20q15 0 36.5 -7.5t43.5 -17t41 -17t29 -7.5zM476 654h13l87 -590q4 -25 10.5 -32.5t27.5 -12.5l45 -9l-2 -10 h-204v10l96 15l-29 204l-259 -2l1 5l-116 -206l90 -16l-2 -10h-204v10l53 10q23 5 33 13.5t23 30.5zM275 254l242 -3l-50 342z" />
<glyph unicode="&#xc4;" horiz-adv-x="685" d="M455 812q0 -18 -12 -33t-29 -15q-22 0 -22 24q0 19 12.5 33.5t28.5 14.5q22 0 22 -24zM633 812q0 -18 -12 -33t-29 -15q-22 0 -22 24q0 19 12.5 33.5t28.5 14.5q22 0 22 -24zM476 654h13l87 -590q4 -25 10.5 -32.5t27.5 -12.5l45 -9l-2 -10h-204v10l96 15l-29 204 l-259 -2l1 5l-116 -206l90 -16l-2 -10h-204v10l53 10q23 5 33 13.5t23 30.5zM275 254l242 -3l-50 342z" />
<glyph unicode="&#xc5;" horiz-adv-x="685" d="M582 810q0 -32 -25 -54.5t-58 -22.5q-28 0 -43 14t-15 39q0 32 25 54.5t59 22.5q28 0 42.5 -14.5t14.5 -38.5zM470 786q2 -33 34 -33q21 0 35 16.5t14 40.5q-2 33 -33 33q-21 0 -35.5 -16.5t-14.5 -40.5zM476 654h13l87 -590q4 -25 10.5 -32.5t27.5 -12.5l45 -9l-2 -10 h-204v10l96 15l-29 204l-259 -2l1 5l-116 -206l90 -16l-2 -10h-204v10l53 10q23 5 33 13.5t23 30.5zM275 254l242 -3l-50 342z" />
<glyph unicode="&#xc6;" horiz-adv-x="834" d="M234 0h-204v10l53 10q23 5 33 13.5t23 30.5l321 561l-81 15l2 10h535q-2 -24 -8.5 -56.5t-14.5 -64t-16 -54.5h-7l11 150q-35 2 -70 2h-70h-117l-62 -293l216 4l-6 -30l-215 5l-58 -274l-3 -16h123h72.5t71.5 2l53 150h7q-1 -14 -3 -32t-6 -38q-5 -29 -12 -57.5 t-14 -47.5h-419v10l78 12q11 2 15 6t5 11l58 273l-218 -2l-161 -284l90 -16zM487 627l-165 -290l208 -3l62 293h-105z" />
<glyph unicode="&#xc7;" d="M328 -71l-2 5l19 57q-100 8 -162.5 76t-62.5 186q0 82 26.5 155.5t75 130t116 89t149.5 32.5q41 0 75 -9t56 -23q-2 -22 -8.5 -54.5t-15 -64.5t-15.5 -53h-8l12 159q-22 10 -46.5 15.5t-54.5 5.5q-73 0 -133 -31t-104 -84t-68 -120.5t-24 -140.5q0 -81 29 -135.5 t78.5 -82.5t112.5 -28q64 0 102 20l57 168h8q-2 -23 -7 -51t-12 -64q-4 -20 -7.5 -34t-8.5 -31q-27 -16 -61.5 -24t-72.5 -8h-2l-14 -42q61 -7 61 -48q0 -22 -20.5 -38.5t-49.5 -25.5t-56 -10l-2 15q45 6 70.5 20t25.5 35q0 14 -12.5 23t-43.5 10z" />
<glyph unicode="&#xc8;" horiz-adv-x="515" d="M517 735l-8 -8q-24 21 -51 45t-45.5 46t-18.5 37q0 18 17 18h3q15 -28 42.5 -64.5t60.5 -73.5zM469 0h-419v10l78 12q11 2 15 6t5 11l122 572l3 13l-89 16l3 10h410q-2 -24 -8.5 -56.5t-14.5 -64t-16 -54.5h-7l11 150q-35 2 -70 2h-70h-117l-3 -16l-57 -269l216 4l-6 -30 l-215 5l-60 -282l-3 -16h123h72.5t71.5 2l53 150h7q-1 -14 -3 -32t-6 -38q-5 -29 -12 -57.5t-14 -47.5z" />
<glyph unicode="&#xc9;" horiz-adv-x="515" d="M540 855q0 -11 -19 -28.5t-46.5 -36t-54.5 -34.5t-44 -25l-6 8q46 35 87.5 70t64.5 61q18 0 18 -15zM469 0h-419v10l78 12q11 2 15 6t5 11l122 573l3 13l-89 16l3 10h410q-2 -25 -8.5 -57.5t-14.5 -64t-16 -54.5h-7l11 151q-35 1 -70 1.5t-70 0.5h-117l-3 -16l-57 -270 l216 4l-6 -30l-215 5l-60 -282l-3 -16h123h72.5t71.5 2l53 150h7q-1 -14 -3 -32t-6 -38q-5 -29 -12 -57.5t-14 -47.5z" />
<glyph unicode="&#xca;" horiz-adv-x="515" d="M556 736l-9 -6q-17 24 -39.5 52.5t-44.5 55.5q-16 -15 -38 -34t-45.5 -38.5t-41.5 -34.5l-6 7q21 20 46 45.5t46 48.5t31 35l5 3h18q15 -24 36 -60t42 -74zM469 0h-419v10l78 12q11 2 15 6t5 11l122 572l3 13l-89 16l3 10h410q-2 -24 -8.5 -56.5t-14.5 -64t-16 -54.5h-7 l11 150q-35 2 -70 2h-70h-117l-3 -16l-57 -269l216 4l-6 -30l-215 5l-60 -282l-3 -16h123h72.5t71.5 2l53 150h7q-1 -14 -3 -32t-6 -38q-5 -29 -12 -57.5t-14 -47.5z" />
<glyph unicode="&#xcb;" horiz-adv-x="515" d="M398 812q0 -18 -12 -33t-29 -15q-22 0 -22 24q0 19 12.5 33.5t28.5 14.5q22 0 22 -24zM576 812q0 -18 -12 -33t-29 -15q-22 0 -22 24q0 19 12.5 33.5t28.5 14.5q22 0 22 -24zM469 0h-419v10l78 12q11 2 15 6t5 11l122 572l3 13l-89 16l3 10h410q-2 -24 -8.5 -56.5 t-14.5 -64t-16 -54.5h-7l11 150q-35 2 -70 2h-70h-117l-3 -16l-57 -269l216 4l-6 -30l-215 5l-60 -282l-3 -16h123h72.5t71.5 2l53 150h7q-1 -14 -3 -32t-6 -38q-5 -29 -12 -57.5t-14 -47.5z" />
<glyph unicode="&#xcc;" horiz-adv-x="312" d="M388 735l-8 -8q-24 21 -51 45t-45.5 46t-18.5 37q0 18 17 18h3q15 -28 42.5 -64.5t60.5 -73.5zM264 0h-214v10l78 12q11 2 15 6t5 11l122 572l3 13l-89 16l2 10h214v-10l-78 -12q-10 -1 -14 -5.5t-6 -11.5l-122 -572l-3 -13l89 -16z" />
<glyph unicode="&#xcd;" horiz-adv-x="312" d="M411 855q0 -11 -19 -28.5t-46.5 -36t-54.5 -34.5t-44 -25l-6 8q46 35 87.5 70t64.5 61q18 0 18 -15zM264 0h-214v10l78 12q11 2 15 6t5 11l122 572l3 13l-89 16l2 10h214v-10l-78 -12q-10 -1 -14 -5.5t-6 -11.5l-122 -572l-3 -13l89 -16z" />
<glyph unicode="&#xce;" horiz-adv-x="312" d="M427 736l-9 -6q-17 24 -39.5 52.5t-44.5 55.5q-16 -15 -38 -34t-45.5 -38.5t-41.5 -34.5l-6 7q21 20 46 45.5t46 48.5t31 35l5 3h18q15 -24 36 -60t42 -74zM264 0h-214v10l78 12q11 2 15 6t5 11l122 572l3 13l-89 16l2 10h214v-10l-78 -12q-10 -1 -14 -5.5t-6 -11.5 l-122 -572l-3 -13l89 -16z" />
<glyph unicode="&#xcf;" horiz-adv-x="312" d="M269 812q0 -18 -12 -33t-29 -15q-22 0 -22 24q0 19 12.5 33.5t28.5 14.5q22 0 22 -24zM447 812q0 -18 -12 -33t-29 -15q-22 0 -22 24q0 19 12.5 33.5t28.5 14.5q22 0 22 -24zM264 0h-214v10l78 12q11 2 15 6t5 11l122 572l3 13l-89 16l2 10h214v-10l-78 -12 q-10 -1 -14 -5.5t-6 -11.5l-122 -572l-3 -13l89 -16z" />
<glyph unicode="&#xd0;" horiz-adv-x="634" d="M422 312h-184l-58 -273l-3 -17h94q86 0 151.5 31.5t109.5 85.5t66.5 122.5t22.5 142.5q0 107 -59.5 165.5t-182.5 58.5h-74l-3 -17l-59 -277h183zM269 0h-219v10l78 12q11 2 15 6t5 11l58 273h-91l4 22h92l59 277l3 13l-89 16l3 10h201q131 0 198.5 -65t67.5 -178 q0 -76 -24 -148.5t-72 -131t-120.5 -93t-168.5 -34.5z" />
<glyph unicode="&#xd1;" horiz-adv-x="696" d="M586 787q11 9 28 26t32 33l8 -5q-20 -37 -38 -57.5t-35 -20.5q-15 0 -36 7.5t-43.5 17t-41.5 17t-29 7.5q-11 -9 -28 -25.5t-32 -33.5l-8 5q20 38 38 58t35 20q15 0 36.5 -7.5t43.5 -17t41 -17t29 -7.5zM258 0h-206v10l77 12q16 2 19 17l125 587l-88 16l2 8h128l223 -610 l122 571l3 13l-89 16l2 10h206v-10l-77 -12q-16 -2 -19 -17l-130 -611h-37l-223 612l-122 -573l-3 -13l89 -16z" />
<glyph unicode="&#xd2;" d="M512 735l-8 -8q-24 21 -51 45t-45.5 46t-18.5 37q0 18 17 18h3q15 -28 42.5 -64.5t60.5 -73.5zM581 428q0 -80 -21.5 -158t-60.5 -141.5t-92.5 -101t-117.5 -37.5q-85 0 -129 62t-44 168q0 81 22 159.5t62 141.5t94.5 101t118.5 38q84 0 126 -64t42 -168zM149 229 q0 -103 39 -159.5t103 -56.5q57 0 104 37t81 98t53 133.5t19 144.5q0 93 -35 152t-104 59q-45 0 -84.5 -24.5t-71.5 -66t-55.5 -94.5t-36 -110.5t-12.5 -112.5z" />
<glyph unicode="&#xd3;" d="M535 855q0 -11 -19 -28.5t-46.5 -36t-54.5 -34.5t-44 -25l-6 8q46 35 87.5 70t64.5 61q18 0 18 -15zM581 428q0 -80 -21.5 -158t-60.5 -141.5t-92.5 -101t-117.5 -37.5q-85 0 -129 62t-44 168q0 81 22 159.5t62 141.5t94.5 101t118.5 38q84 0 126 -64t42 -168zM149 229 q0 -103 39 -159.5t103 -56.5q57 0 104 37t81 98t53 133.5t19 144.5q0 93 -35 152t-104 59q-45 0 -84.5 -24.5t-71.5 -66t-55.5 -94.5t-36 -110.5t-12.5 -112.5z" />
<glyph unicode="&#xd4;" d="M551 736l-9 -6q-17 24 -39.5 52.5t-44.5 55.5q-16 -15 -38 -34t-45.5 -38.5t-41.5 -34.5l-6 7q21 20 46 45.5t46 48.5t31 35l5 3h18q15 -24 36 -60t42 -74zM581 428q0 -80 -21.5 -158t-60.5 -141.5t-92.5 -101t-117.5 -37.5q-85 0 -129 62t-44 168q0 81 22 159.5 t62 141.5t94.5 101t118.5 38q84 0 126 -64t42 -168zM149 229q0 -103 39 -159.5t103 -56.5q57 0 104 37t81 98t53 133.5t19 144.5q0 93 -35 152t-104 59q-45 0 -84.5 -24.5t-71.5 -66t-55.5 -94.5t-36 -110.5t-12.5 -112.5z" />
<glyph unicode="&#xd5;" d="M519 787q11 9 28 26t32 33l8 -5q-20 -37 -38 -57.5t-35 -20.5q-15 0 -36 7.5t-43.5 17t-41.5 17t-29 7.5q-11 -9 -28 -25.5t-32 -33.5l-8 5q20 38 38 58t35 20q15 0 36.5 -7.5t43.5 -17t41 -17t29 -7.5zM581 428q0 -80 -21.5 -158t-60.5 -141.5t-92.5 -101t-117.5 -37.5 q-85 0 -129 62t-44 168q0 81 22 159.5t62 141.5t94.5 101t118.5 38q84 0 126 -64t42 -168zM149 229q0 -103 39 -159.5t103 -56.5q57 0 104 37t81 98t53 133.5t19 144.5q0 93 -35 152t-104 59q-45 0 -84.5 -24.5t-71.5 -66t-55.5 -94.5t-36 -110.5t-12.5 -112.5z" />
<glyph unicode="&#xd6;" d="M393 812q0 -18 -12 -33t-29 -15q-22 0 -22 24q0 19 12.5 33.5t28.5 14.5q22 0 22 -24zM571 812q0 -18 -12 -33t-29 -15q-22 0 -22 24q0 19 12.5 33.5t28.5 14.5q22 0 22 -24zM581 428q0 -80 -21.5 -158t-60.5 -141.5t-92.5 -101t-117.5 -37.5q-85 0 -129 62t-44 168 q0 81 22 159.5t62 141.5t94.5 101t118.5 38q84 0 126 -64t42 -168zM149 229q0 -103 39 -159.5t103 -56.5q57 0 104 37t81 98t53 133.5t19 144.5q0 93 -35 152t-104 59q-45 0 -84.5 -24.5t-71.5 -66t-55.5 -94.5t-36 -110.5t-12.5 -112.5z" />
<glyph unicode="&#xd7;" horiz-adv-x="531" d="M461 141l-127 165l-193 -165l-16 19l194 166l-129 169l19 15q24 -29 58.5 -73.5t71.5 -93.5l195 167l16 -19l-196 -168q36 -47 69.5 -91t56.5 -73l-3 -6z" />
<glyph unicode="&#xd8;" d="M581 428q0 -80 -21.5 -158t-60.5 -141.5t-92.5 -101t-117.5 -37.5q-46 0 -80.5 19.5t-56.5 54.5l-60 -74l-18 16l66 81q-24 55 -24 133q0 81 22 159.5t62 141.5t94.5 101t118.5 38q45 0 78 -19.5t54 -54.5l60 74l19 -15l-67 -82q24 -55 24 -135zM149 229q0 -64 16 -111 l358 441q-17 37 -45.5 57.5t-68.5 20.5q-45 0 -84.5 -24.5t-71.5 -66t-55.5 -94.5t-36 -110.5t-12.5 -112.5zM548 426q0 61 -15 107l-358 -441q38 -79 116 -79q57 0 104 37t81 98t53 133.5t19 144.5z" />
<glyph unicode="&#xd9;" horiz-adv-x="656" d="M549 735l-8 -8q-24 21 -51 45t-45.5 46t-18.5 37q0 18 17 18h3q15 -28 42.5 -64.5t60.5 -73.5zM577 221q-25 -117 -92 -174t-151 -57q-73 0 -120.5 43t-47.5 129q0 16 2 33t6 35l81 381l3 13l-89 16l2 10h214v-10l-78 -12q-10 -1 -14 -5.5t-6 -11.5l-82 -385 q-4 -16 -6 -31t-2 -29q0 -74 40.5 -112t103.5 -38q47 0 89.5 23.5t74.5 69.5t46 114l83 390l2 11l-89 16l2 10h209v-10l-95 -16l-3 -11z" />
<glyph unicode="&#xda;" horiz-adv-x="656" d="M582 855q0 -11 -19 -28.5t-46.5 -36t-54.5 -34.5t-44 -25l-6 8q46 35 87.5 70t64.5 61q18 0 18 -15zM577 221q-25 -117 -92 -174t-151 -57q-73 0 -120.5 43t-47.5 129q0 16 2 33t6 35l81 381l3 13l-89 16l2 10h214v-10l-78 -12q-10 -1 -14 -5.5t-6 -11.5l-82 -385 q-4 -16 -6 -31t-2 -29q0 -74 40.5 -112t103.5 -38q47 0 89.5 23.5t74.5 69.5t46 114l83 390l2 11l-89 16l2 10h209v-10l-95 -16l-3 -11z" />
<glyph unicode="&#xdb;" horiz-adv-x="656" d="M598 736l-9 -6q-17 24 -39.5 52.5t-44.5 55.5q-16 -15 -38 -34t-45.5 -38.5t-41.5 -34.5l-6 7q21 20 46 45.5t46 48.5t31 35l5 3h18q15 -24 36 -60t42 -74zM577 221q-25 -117 -92 -174t-151 -57q-73 0 -120.5 43t-47.5 129q0 16 2 33t6 35l81 381l3 13l-89 16l2 10h214 v-10l-78 -12q-10 -1 -14 -5.5t-6 -11.5l-82 -385q-4 -16 -6 -31t-2 -29q0 -74 40.5 -112t103.5 -38q47 0 89.5 23.5t74.5 69.5t46 114l83 390l2 11l-89 16l2 10h209v-10l-95 -16l-3 -11z" />
<glyph unicode="&#xdc;" horiz-adv-x="656" d="M440 812q0 -18 -12 -33t-29 -15q-22 0 -22 24q0 19 12.5 33.5t28.5 14.5q22 0 22 -24zM618 812q0 -18 -12 -33t-29 -15q-22 0 -22 24q0 19 12.5 33.5t28.5 14.5q22 0 22 -24zM577 221q-25 -117 -92 -174t-151 -57q-73 0 -120.5 43t-47.5 129q0 16 2 33t6 35l81 381l3 13 l-89 16l2 10h214v-10l-78 -12q-10 -1 -14 -5.5t-6 -11.5l-82 -385q-4 -16 -6 -31t-2 -29q0 -74 40.5 -112t103.5 -38q47 0 89.5 23.5t74.5 69.5t46 114l83 390l2 11l-89 16l2 10h209v-10l-95 -16l-3 -11z" />
<glyph unicode="&#xdd;" horiz-adv-x="584" d="M549 855q0 -11 -19 -28.5t-46.5 -36t-54.5 -34.5t-44 -25l-6 8q46 35 87.5 70t64.5 61q18 0 18 -15zM403 0h-214v10l78 12q11 2 15 6t5 11l22 104q10 48 12 111t-3.5 129t-17 122t-27.5 90.5t-36 34.5q-15 0 -33.5 -16.5t-36.5 -42t-34 -52.5l-8 4q12 29 31.5 60.5t43 54 t46.5 22.5q25 0 46 -36t35 -96.5t19.5 -136t1.5 -155.5q31 80 68 155.5t74 136t70.5 96.5t58.5 36q22 0 34.5 -19.5t19 -49t10.5 -58.5l-9 -4q-13 44 -24.5 72.5t-31.5 28.5q-15 0 -39 -25t-52.5 -67.5t-58 -94.5t-55.5 -106.5t-45 -104.5t-27 -87l-22 -106l-3 -13l89 -16z " />
<glyph unicode="&#xde;" horiz-adv-x="518" d="M288 0h-237l-1 8l78 12q11 2 15 6t5 11l122 574l3 13l-89 16l2 10h214v-10l-78 -12q-10 -1 -14 -5.5t-6 -11.5l-20 -93h78q56 0 102 -16t73 -49.5t27 -87.5q0 -73 -38.5 -125t-104 -79.5t-147.5 -27.5h-72l-20 -96l-3 -14l113 -15zM351 495h-74l-72 -339h71q74 0 131 25 t89 71t32 109q0 74 -50 104t-127 30z" />
<glyph unicode="&#xdf;" horiz-adv-x="438" d="M125 -6q-19 -92 -58 -140.5t-92 -48.5q-36 0 -59 17t-23 39q0 15 12 21q14 -19 33 -34.5t44 -15.5q48 0 71.5 37t41.5 124l105 496q42 206 169 206q44 0 69.5 -28.5t25.5 -76.5q0 -66 -37 -119t-104 -69q52 -39 80 -95.5t27 -118.5q1 -54 -19 -98.5t-53.5 -70.5 t-74.5 -26q-33 0 -55 16.5t-22 38.5q0 20 16 27q11 -22 31.5 -37t42.5 -15q29 0 52 22t36.5 58.5t13.5 81.5q0 65 -29.5 120t-85.5 94l3 11q44 6 77 30t51 60t18 78q0 44 -19 69.5t-53 25.5q-45 0 -78.5 -47.5t-49.5 -127.5z" />
<glyph unicode="&#xe0;" horiz-adv-x="428" d="M412 585l-8 -8q-24 21 -51 45t-45.5 46t-18.5 37q0 18 17 18h3q15 -28 42.5 -64.5t60.5 -73.5zM78 94q0 54 13.5 111.5t38.5 112t59 98t75.5 69t87.5 25.5q24 0 43.5 -6t32.5 -14l-23 -93l-63 -292q-4 -22 -7 -39.5t-3 -30.5q0 -15 8 -15q10 0 27 16.5t37.5 42t38.5 52.5 l6 -4q-13 -28 -33 -60t-43 -54.5t-44 -22.5q-10 0 -18.5 9t-8.5 33q0 14 3 32.5t7 40.5l45 197q-35 -94 -74.5 -164.5t-77 -109t-67.5 -38.5q-31 0 -45.5 29t-14.5 75zM378 407l14 66q-14 7 -30 10t-31 3q-34 0 -67 -23.5t-61 -64t-49.5 -91t-33.5 -104.5t-12 -104 q0 -36 9 -58.5t28 -22.5q26 0 67 48.5t85.5 136.5t80.5 204z" />
<glyph unicode="&#xe1;" horiz-adv-x="428" d="M435 705q0 -11 -19 -28.5t-46.5 -36t-54.5 -34.5t-44 -25l-6 8q46 35 87.5 70t64.5 61q18 0 18 -15zM78 94q0 54 13.5 111.5t38.5 112t59 98t75.5 69t87.5 25.5q24 0 43.5 -6t32.5 -14l-23 -93l-63 -292q-4 -22 -7 -39.5t-3 -30.5q0 -15 8 -15q10 0 27 16.5t37.5 42 t38.5 52.5l6 -4q-13 -28 -33 -60t-43 -54.5t-44 -22.5q-10 0 -18.5 9t-8.5 33q0 14 3 32.5t7 40.5l45 197q-35 -94 -74.5 -164.5t-77 -109t-67.5 -38.5q-31 0 -45.5 29t-14.5 75zM378 407l14 66q-14 7 -30 10t-31 3q-34 0 -67 -23.5t-61 -64t-49.5 -91t-33.5 -104.5 t-12 -104q0 -36 9 -58.5t28 -22.5q26 0 67 48.5t85.5 136.5t80.5 204z" />
<glyph unicode="&#xe2;" horiz-adv-x="428" d="M452 586l-9 -6q-17 24 -39.5 52.5t-44.5 55.5q-16 -15 -38 -34t-45.5 -38.5t-41.5 -34.5l-6 7q21 20 46 45.5t46 48.5t31 35l5 3h18q15 -24 36 -60t42 -74zM78 94q0 54 13.5 111.5t38.5 112t59 98t75.5 69t87.5 25.5q24 0 43.5 -6t32.5 -14l-23 -93l-63 -292 q-4 -22 -7 -39.5t-3 -30.5q0 -15 8 -15q10 0 27 16.5t37.5 42t38.5 52.5l6 -4q-13 -28 -33 -60t-43 -54.5t-44 -22.5q-10 0 -18.5 9t-8.5 33q0 14 3 32.5t7 40.5l45 197q-35 -94 -74.5 -164.5t-77 -109t-67.5 -38.5q-31 0 -45.5 29t-14.5 75zM378 407l14 66q-14 7 -30 10 t-31 3q-34 0 -67 -23.5t-61 -64t-49.5 -91t-33.5 -104.5t-12 -104q0 -36 9 -58.5t28 -22.5q26 0 67 48.5t85.5 136.5t80.5 204z" />
<glyph unicode="&#xe3;" horiz-adv-x="428" d="M425 637q11 9 28 26t32 33l8 -5q-20 -37 -38 -57.5t-35 -20.5q-15 0 -36 7.5t-43.5 17t-41.5 17t-29 7.5q-11 -9 -28 -25.5t-32 -33.5l-8 5q20 38 38 58t35 20q15 0 36.5 -7.5t43.5 -17t41 -17t29 -7.5zM78 94q0 54 13.5 111.5t38.5 112t59 98t75.5 69t87.5 25.5 q24 0 43.5 -6t32.5 -14l-23 -93l-63 -292q-4 -22 -7 -39.5t-3 -30.5q0 -15 8 -15q10 0 27 16.5t37.5 42t38.5 52.5l6 -4q-13 -28 -33 -60t-43 -54.5t-44 -22.5q-10 0 -18.5 9t-8.5 33q0 14 3 32.5t7 40.5l45 197q-35 -94 -74.5 -164.5t-77 -109t-67.5 -38.5q-31 0 -45.5 29 t-14.5 75zM378 407l14 66q-14 7 -30 10t-31 3q-34 0 -67 -23.5t-61 -64t-49.5 -91t-33.5 -104.5t-12 -104q0 -36 9 -58.5t28 -22.5q26 0 67 48.5t85.5 136.5t80.5 204z" />
<glyph unicode="&#xe4;" horiz-adv-x="428" d="M293 662q0 -18 -12 -33t-29 -15q-22 0 -22 24q0 19 12.5 33.5t28.5 14.5q22 0 22 -24zM471 662q0 -18 -12 -33t-29 -15q-22 0 -22 24q0 19 12.5 33.5t28.5 14.5q22 0 22 -24zM78 94q0 54 13.5 111.5t38.5 112t59 98t75.5 69t87.5 25.5q24 0 43.5 -6t32.5 -14l-23 -93 l-63 -292q-4 -22 -7 -39.5t-3 -30.5q0 -15 8 -15q10 0 27 16.5t37.5 42t38.5 52.5l6 -4q-13 -28 -33 -60t-43 -54.5t-44 -22.5q-10 0 -18.5 9t-8.5 33q0 14 3 32.5t7 40.5l45 197q-35 -94 -74.5 -164.5t-77 -109t-67.5 -38.5q-31 0 -45.5 29t-14.5 75zM378 407l14 66 q-14 7 -30 10t-31 3q-34 0 -67 -23.5t-61 -64t-49.5 -91t-33.5 -104.5t-12 -104q0 -36 9 -58.5t28 -22.5q26 0 67 48.5t85.5 136.5t80.5 204z" />
<glyph unicode="&#xe5;" horiz-adv-x="428" d="M422 663q0 -32 -25 -54.5t-58 -22.5q-28 0 -43 14t-15 39q0 32 25 54.5t59 22.5q28 0 42.5 -14.5t14.5 -38.5zM310 639q2 -33 34 -33q21 0 35 16.5t14 40.5q-2 33 -33 33q-21 0 -35.5 -16.5t-14.5 -40.5zM78 94q0 54 13.5 111.5t38.5 112t59 98t75.5 69t87.5 25.5 q24 0 43.5 -6t32.5 -14l-23 -93l-63 -292q-4 -22 -7 -39.5t-3 -30.5q0 -15 8 -15q10 0 27 16.5t37.5 42t38.5 52.5l6 -4q-13 -28 -33 -60t-43 -54.5t-44 -22.5q-10 0 -18.5 9t-8.5 33q0 14 3 32.5t7 40.5l45 197q-35 -94 -74.5 -164.5t-77 -109t-67.5 -38.5q-31 0 -45.5 29 t-14.5 75zM378 407l14 66q-14 7 -30 10t-31 3q-34 0 -67 -23.5t-61 -64t-49.5 -91t-33.5 -104.5t-12 -104q0 -36 9 -58.5t28 -22.5q26 0 67 48.5t85.5 136.5t80.5 204z" />
<glyph unicode="&#xe6;" horiz-adv-x="572" d="M590 139q-14 -35 -38 -69.5t-55 -57t-66 -22.5q-46 0 -72 42t-26 115q0 40 7 81t20 80h-1q-35 -96 -75 -167.5t-78 -111t-68 -39.5q-31 0 -45.5 29t-14.5 75q0 54 13.5 111.5t38.5 112t59 98t75.5 69t87.5 25.5q24 0 43.5 -6t32.5 -14l-21 -83q28 46 64 74.5t75 28.5 q35 0 53 -22t18 -55q0 -50 -21.5 -89.5t-57 -67.5t-79.5 -43.5t-89 -18.5q-5 -34 -5 -65q0 -61 18.5 -98t53.5 -37t75.5 38t71.5 91zM540 490q-27 0 -53 -22t-48.5 -59t-39.5 -83t-26 -94q67 9 114.5 37.5t72.5 71t25 92.5q0 23 -10.5 40t-34.5 17zM108 99q0 -36 9 -58.5 t28 -22.5q26 0 67 48.5t85 135.5t80 201l15 70q-14 7 -30 10t-31 3q-34 0 -67 -23.5t-61 -64t-49.5 -91t-33.5 -104.5t-12 -104z" />
<glyph unicode="&#xe7;" horiz-adv-x="341" d="M158 -71l-2 5l19 57q-41 7 -63 47.5t-22 108.5q0 64 17.5 128t47.5 117.5t68 85.5t79 32q38 0 56.5 -26.5t18.5 -65.5q0 -33 -9 -63t-27 -30q-8 0 -13 4q8 17 13 39.5t5 44.5q0 36 -11.5 56.5t-39.5 20.5q-33 0 -64 -32t-55.5 -83.5t-39 -111t-14.5 -115.5 q0 -61 19 -97.5t53 -36.5q25 0 51 18t51 47.5t45 63.5l6 -4q-14 -35 -37.5 -68t-52 -55.5t-58.5 -25.5l-14 -42q61 -7 61 -48q0 -22 -20.5 -38.5t-49.5 -25.5t-56 -10l-2 15q45 6 70.5 20t25.5 35q0 14 -12.5 23t-43.5 10z" />
<glyph unicode="&#xe8;" horiz-adv-x="329" d="M392 585l-8 -8q-24 21 -51 45t-45.5 46t-18.5 37q0 18 17 18h3q15 -28 42.5 -64.5t60.5 -73.5zM347 139q-14 -35 -38 -69.5t-55 -57t-66 -22.5q-46 0 -72 42t-26 115q0 63 17.5 127.5t47 117.5t68 85.5t80.5 32.5q35 0 53 -22t18 -55q0 -50 -21.5 -89.5t-57 -67.5 t-79.5 -43.5t-89 -18.5q-5 -34 -5 -65q0 -61 18.5 -98t53.5 -37t75.5 38t71.5 91zM297 490q-27 0 -53 -22t-48.5 -59t-39.5 -83t-26 -94q67 9 114.5 37.5t72.5 71t25 92.5q0 23 -10.5 40t-34.5 17z" />
<glyph unicode="&#xe9;" horiz-adv-x="329" d="M415 705q0 -11 -19 -28.5t-46.5 -36t-54.5 -34.5t-44 -25l-6 8q46 35 87.5 70t64.5 61q18 0 18 -15zM347 139q-14 -35 -38 -69.5t-55 -57t-66 -22.5q-46 0 -72 42t-26 115q0 63 17.5 127.5t47 117.5t68 85.5t80.5 32.5q35 0 53 -22t18 -55q0 -50 -21.5 -89.5t-57 -67.5 t-79.5 -43.5t-89 -18.5q-5 -34 -5 -65q0 -61 18.5 -98t53.5 -37t75.5 38t71.5 91zM297 490q-27 0 -53 -22t-48.5 -59t-39.5 -83t-26 -94q67 9 114.5 37.5t72.5 71t25 92.5q0 23 -10.5 40t-34.5 17z" />
<glyph unicode="&#xea;" horiz-adv-x="329" d="M432 586l-9 -6q-17 24 -39.5 52.5t-44.5 55.5q-16 -15 -38 -34t-45.5 -38.5t-41.5 -34.5l-6 7q21 20 46 45.5t46 48.5t31 35l5 3h18q15 -24 36 -60t42 -74zM347 139q-14 -35 -38 -69.5t-55 -57t-66 -22.5q-46 0 -72 42t-26 115q0 63 17.5 127.5t47 117.5t68 85.5 t80.5 32.5q35 0 53 -22t18 -55q0 -50 -21.5 -89.5t-57 -67.5t-79.5 -43.5t-89 -18.5q-5 -34 -5 -65q0 -61 18.5 -98t53.5 -37t75.5 38t71.5 91zM297 490q-27 0 -53 -22t-48.5 -59t-39.5 -83t-26 -94q67 9 114.5 37.5t72.5 71t25 92.5q0 23 -10.5 40t-34.5 17z" />
<glyph unicode="&#xeb;" horiz-adv-x="329" d="M273 662q0 -18 -12 -33t-29 -15q-22 0 -22 24q0 19 12.5 33.5t28.5 14.5q22 0 22 -24zM451 662q0 -18 -12 -33t-29 -15q-22 0 -22 24q0 19 12.5 33.5t28.5 14.5q22 0 22 -24zM347 139q-14 -35 -38 -69.5t-55 -57t-66 -22.5q-46 0 -72 42t-26 115q0 63 17.5 127.5 t47 117.5t68 85.5t80.5 32.5q35 0 53 -22t18 -55q0 -50 -21.5 -89.5t-57 -67.5t-79.5 -43.5t-89 -18.5q-5 -34 -5 -65q0 -61 18.5 -98t53.5 -37t75.5 38t71.5 91zM297 490q-27 0 -53 -22t-48.5 -59t-39.5 -83t-26 -94q67 9 114.5 37.5t72.5 71t25 92.5q0 23 -10.5 40 t-34.5 17z" />
<glyph unicode="&#xec;" horiz-adv-x="246" d="M311 585l-8 -8q-24 21 -51 45t-45.5 46t-18.5 37q0 18 17 18h3q15 -28 42.5 -64.5t60.5 -73.5zM130 105q9 44 22 96t26 103t21 91q5 22 7.5 39.5t2.5 30.5q0 15 -8 15q-10 0 -27 -16.5t-37 -42t-39 -52.5l-6 4q13 29 33 60.5t43 54t44 22.5q11 0 19 -9t8 -33 q0 -13 -2.5 -32t-7.5 -41q-8 -41 -21 -93t-26 -103.5t-22 -93.5q-4 -22 -7 -39.5t-3 -30.5q0 -15 8 -15q10 0 27 16.5t37.5 42t38.5 52.5l6 -4q-13 -28 -33 -60t-43 -54.5t-44 -22.5q-10 0 -18.5 9t-8.5 33q0 14 3 32.5t7 40.5z" />
<glyph unicode="&#xed;" horiz-adv-x="246" d="M334 705q0 -11 -19 -28.5t-46.5 -36t-54.5 -34.5t-44 -25l-6 8q46 35 87.5 70t64.5 61q18 0 18 -15zM130 105q9 44 22 96t26 103t21 91q5 22 7.5 39.5t2.5 30.5q0 15 -8 15q-10 0 -27 -16.5t-37 -42t-39 -52.5l-6 4q13 29 33 60.5t43 54t44 22.5q11 0 19 -9t8 -33 q0 -13 -2.5 -32t-7.5 -41q-8 -41 -21 -93t-26 -103.5t-22 -93.5q-4 -22 -7 -39.5t-3 -30.5q0 -15 8 -15q10 0 27 16.5t37.5 42t38.5 52.5l6 -4q-13 -28 -33 -60t-43 -54.5t-44 -22.5q-10 0 -18.5 9t-8.5 33q0 14 3 32.5t7 40.5z" />
<glyph unicode="&#xee;" horiz-adv-x="246" d="M330 586l-9 -6q-14 24 -30.5 52t-33.5 54q-21 -22 -51.5 -53t-53.5 -52l-6 7q18 20 38.5 45.5t38.5 48.5t26 35l5 3h18q11 -24 26.5 -60t31.5 -74zM130 105q9 44 22 96t26 103t21 91q5 22 7.5 39.5t2.5 30.5q0 15 -8 15q-10 0 -27 -16.5t-37 -42t-39 -52.5l-6 4 q13 29 33 60.5t43 54t44 22.5q11 0 19 -9t8 -33q0 -13 -2.5 -32t-7.5 -41q-8 -41 -21 -93t-26 -103.5t-22 -93.5q-4 -22 -7 -39.5t-3 -30.5q0 -15 8 -15q10 0 27 16.5t37.5 42t38.5 52.5l6 -4q-13 -28 -33 -60t-43 -54.5t-44 -22.5q-10 0 -18.5 9t-8.5 33q0 14 3 32.5 t7 40.5z" />
<glyph unicode="&#xef;" horiz-adv-x="246" d="M209 662q0 -18 -12 -33t-29 -15q-22 0 -22 24q0 19 12.5 33.5t28.5 14.5q22 0 22 -24zM353 662q0 -18 -12 -33t-29 -15q-22 0 -22 24q0 19 12.5 33.5t28.5 14.5q22 0 22 -24zM130 105q9 44 22 96t26 103t21 91q5 22 7.5 39.5t2.5 30.5q0 15 -8 15q-10 0 -27 -16.5 t-37 -42t-39 -52.5l-6 4q13 29 33 60.5t43 54t44 22.5q11 0 19 -9t8 -33q0 -13 -2.5 -32t-7.5 -41q-8 -41 -21 -93t-26 -103.5t-22 -93.5q-4 -22 -7 -39.5t-3 -30.5q0 -15 8 -15q10 0 27 16.5t37.5 42t38.5 52.5l6 -4q-13 -28 -33 -60t-43 -54.5t-44 -22.5q-10 0 -18.5 9 t-8.5 33q0 14 3 32.5t7 40.5z" />
<glyph unicode="&#xf0;" horiz-adv-x="396" d="M445 633l-97 -39q59 -90 60 -260q0 -68 -16.5 -130t-45 -110t-65 -76t-76.5 -28q-52 0 -81.5 49.5t-29.5 125.5q0 68 17 130t46.5 110.5t66.5 76.5t77 28q26 0 44 -15.5t29 -42.5q-13 79 -48 133l-148 -59l-5 21l140 57q-36 47 -96 79l7 12q69 -30 111 -83l104 42z M126 169q0 -72 21.5 -113.5t60.5 -41.5q36 0 66.5 28t53.5 74.5t35.5 103.5t12.5 116q0 64 -18 107t-60 43q-36 0 -67 -28t-55 -75t-37 -102.5t-13 -111.5z" />
<glyph unicode="&#xf1;" horiz-adv-x="477" d="M437 637q11 9 28 26t32 33l8 -5q-20 -37 -38 -57.5t-35 -20.5q-15 0 -36 7.5t-43.5 17t-41.5 17t-29 7.5q-11 -9 -28 -25.5t-32 -33.5l-8 5q20 38 38 58t35 20q15 0 36.5 -7.5t43.5 -17t41 -17t29 -7.5zM137 -3q-2 -1 -13 -4t-13 -3q-5 0 -4 6l23 109l6 28l37 174 q14 67 20.5 102t6.5 51q0 20 -11 20q-12 0 -29 -16.5t-35 -42t-35 -52.5l-6 4q12 29 32 60.5t43.5 54t44.5 22.5q11 0 19 -8t8 -30t-8 -64.5t-20.5 -97.5t-27.5 -116q38 95 79.5 166.5t82.5 110.5t77 39q28 0 39.5 -16.5t11.5 -42.5q0 -27 -8.5 -69.5t-20.5 -91.5t-24.5 -97 t-20.5 -88q-4 -22 -7 -39.5t-3 -30.5q0 -15 8 -15q10 0 27 16.5t37.5 42t38.5 52.5l6 -4q-13 -28 -33 -60t-43 -54.5t-44 -22.5q-10 0 -18.5 9t-8.5 33q0 14 3 32.5t7 40.5q8 41 20.5 89.5t24.5 96.5t20.5 89t8.5 66q0 16 -6 26t-22 10q-31 0 -74 -47.5t-88.5 -132 t-84.5 -197.5z" />
<glyph unicode="&#xf2;" horiz-adv-x="396" d="M402 585l-8 -8q-24 21 -51 45t-45.5 46t-18.5 37q0 18 17 18h3q15 -28 42.5 -64.5t60.5 -73.5zM408 335q0 -68 -16.5 -130t-45 -110.5t-65 -76.5t-76.5 -28q-52 0 -81.5 49.5t-29.5 125.5q0 68 17 130t47 110.5t67.5 76.5t77.5 28q53 0 79 -47.5t26 -127.5zM126 169 q0 -72 21.5 -113.5t60.5 -41.5q36 0 66.5 28t53.5 74.5t35.5 103.5t12.5 116q0 64 -18 107t-60 43q-36 0 -67 -28t-55 -75t-37 -102.5t-13 -111.5z" />
<glyph unicode="&#xf3;" horiz-adv-x="396" d="M425 705q0 -11 -19 -28.5t-46.5 -36t-54.5 -34.5t-44 -25l-6 8q46 35 87.5 70t64.5 61q18 0 18 -15zM408 335q0 -68 -16.5 -130t-45 -110.5t-65 -76.5t-76.5 -28q-52 0 -81.5 49.5t-29.5 125.5q0 68 17 130t47 110.5t67.5 76.5t77.5 28q53 0 79 -47.5t26 -127.5zM126 169 q0 -72 21.5 -113.5t60.5 -41.5q36 0 66.5 28t53.5 74.5t35.5 103.5t12.5 116q0 64 -18 107t-60 43q-36 0 -67 -28t-55 -75t-37 -102.5t-13 -111.5z" />
<glyph unicode="&#xf4;" horiz-adv-x="396" d="M442 586l-9 -6q-17 24 -39.5 52.5t-44.5 55.5q-16 -15 -38 -34t-45.5 -38.5t-41.5 -34.5l-6 7q21 20 46 45.5t46 48.5t31 35l5 3h18q15 -24 36 -60t42 -74zM408 335q0 -68 -16.5 -130t-45 -110.5t-65 -76.5t-76.5 -28q-52 0 -81.5 49.5t-29.5 125.5q0 68 17 130t47 110.5 t67.5 76.5t77.5 28q53 0 79 -47.5t26 -127.5zM126 169q0 -72 21.5 -113.5t60.5 -41.5q36 0 66.5 28t53.5 74.5t35.5 103.5t12.5 116q0 64 -18 107t-60 43q-36 0 -67 -28t-55 -75t-37 -102.5t-13 -111.5z" />
<glyph unicode="&#xf5;" horiz-adv-x="396" d="M415 637q11 9 28 26t32 33l8 -5q-20 -37 -38 -57.5t-35 -20.5q-15 0 -36 7.5t-43.5 17t-41.5 17t-29 7.5q-11 -9 -28 -25.5t-32 -33.5l-8 5q20 38 38 58t35 20q15 0 36.5 -7.5t43.5 -17t41 -17t29 -7.5zM408 335q0 -68 -16.5 -130t-45 -110.5t-65 -76.5t-76.5 -28 q-52 0 -81.5 49.5t-29.5 125.5q0 68 17 130t47 110.5t67.5 76.5t77.5 28q53 0 79 -47.5t26 -127.5zM126 169q0 -72 21.5 -113.5t60.5 -41.5q36 0 66.5 28t53.5 74.5t35.5 103.5t12.5 116q0 64 -18 107t-60 43q-36 0 -67 -28t-55 -75t-37 -102.5t-13 -111.5z" />
<glyph unicode="&#xf6;" horiz-adv-x="396" d="M283 662q0 -18 -12 -33t-29 -15q-22 0 -22 24q0 19 12.5 33.5t28.5 14.5q22 0 22 -24zM461 662q0 -18 -12 -33t-29 -15q-22 0 -22 24q0 19 12.5 33.5t28.5 14.5q22 0 22 -24zM408 335q0 -68 -16.5 -130t-45 -110.5t-65 -76.5t-76.5 -28q-52 0 -81.5 49.5t-29.5 125.5 q0 68 17 130t47 110.5t67.5 76.5t77.5 28q53 0 79 -47.5t26 -127.5zM126 169q0 -72 21.5 -113.5t60.5 -41.5q36 0 66.5 28t53.5 74.5t35.5 103.5t12.5 116q0 64 -18 107t-60 43q-36 0 -67 -28t-55 -75t-37 -102.5t-13 -111.5z" />
<glyph unicode="&#xf7;" horiz-adv-x="539" d="M366 456q-12 0 -18 7.5t-6 17.5q0 17 12 30t27 13q24 0 24 -23q0 -18 -11.5 -31.5t-27.5 -13.5zM525 312h-384l5 23q33 1 84.5 1.5t108.5 1t108.5 0.5h84.5l3 -5zM296 127q-12 0 -18 7.5t-6 17.5q0 17 12 30t27 13q24 0 24 -23q0 -18 -11.5 -31.5t-27.5 -13.5z" />
<glyph unicode="&#xf8;" horiz-adv-x="396" d="M408 335q0 -68 -16.5 -130t-45 -110.5t-65 -76.5t-76.5 -28q-35 0 -60.5 24t-38.5 64l-62 -66l-16 18l71 76q-5 28 -5 59q0 68 17 130t47 110.5t67.5 76.5t77.5 28q36 0 59.5 -22.5t34.5 -63.5l60 64l17 -17l-70 -75q4 -28 4 -61zM126 169q0 -17 1 -33l244 261 q-6 40 -24 64.5t-49 24.5q-36 0 -67 -28t-55 -75t-37 -102.5t-13 -111.5zM376 336q0 15 -1 29l-244 -260q8 -43 28 -67t49 -24q36 0 66.5 28t53.5 74.5t35.5 103.5t12.5 116z" />
<glyph unicode="&#xf9;" horiz-adv-x="484" d="M439 585l-8 -8q-24 21 -51 45t-45.5 46t-18.5 37q0 18 17 18h3q15 -28 42.5 -64.5t60.5 -73.5zM453 503q2 1 13.5 4t12.5 3q6 0 4 -6l-23 -109l-6 -28l-37 -174q-14 -67 -20.5 -101.5t-6.5 -51.5q0 -20 11 -20q13 0 29.5 16.5t35 42t34.5 52.5l6 -4q-12 -28 -32 -60 t-43.5 -54.5t-44.5 -22.5q-10 0 -18.5 8t-8.5 30t8 64.5t20.5 97.5t27.5 116q-38 -95 -79.5 -166.5t-82.5 -110.5t-77 -39q-28 0 -39.5 16.5t-11.5 42.5q0 27 8.5 69.5t20.5 91.5t24.5 97t20.5 88q5 22 7.5 39.5t2.5 30.5q0 15 -8 15q-10 0 -27 -16.5t-37 -42t-39 -52.5 l-6 4q13 29 33 60.5t43 54t44 22.5q11 0 19 -9t8 -33q0 -13 -2.5 -32t-7.5 -41q-8 -41 -20.5 -89.5t-24.5 -96.5t-20.5 -89t-8.5 -66q0 -16 6 -26t22 -10q31 0 74 47.5t88.5 132.5t84.5 197z" />
<glyph unicode="&#xfa;" horiz-adv-x="484" d="M462 705q0 -11 -19 -28.5t-46.5 -36t-54.5 -34.5t-44 -25l-6 8q46 35 87.5 70t64.5 61q18 0 18 -15zM453 503q2 1 13.5 4t12.5 3q6 0 4 -6l-23 -109l-6 -28l-37 -174q-14 -67 -20.5 -101.5t-6.5 -51.5q0 -20 11 -20q13 0 29.5 16.5t35 42t34.5 52.5l6 -4q-12 -28 -32 -60 t-43.5 -54.5t-44.5 -22.5q-10 0 -18.5 8t-8.5 30t8 64.5t20.5 97.5t27.5 116q-38 -95 -79.5 -166.5t-82.5 -110.5t-77 -39q-28 0 -39.5 16.5t-11.5 42.5q0 27 8.5 69.5t20.5 91.5t24.5 97t20.5 88q5 22 7.5 39.5t2.5 30.5q0 15 -8 15q-10 0 -27 -16.5t-37 -42t-39 -52.5 l-6 4q13 29 33 60.5t43 54t44 22.5q11 0 19 -9t8 -33q0 -13 -2.5 -32t-7.5 -41q-8 -41 -20.5 -89.5t-24.5 -96.5t-20.5 -89t-8.5 -66q0 -16 6 -26t22 -10q31 0 74 47.5t88.5 132.5t84.5 197z" />
<glyph unicode="&#xfb;" horiz-adv-x="484" d="M479 586l-9 -6q-17 24 -39.5 52.5t-44.5 55.5q-16 -15 -38 -34t-45.5 -38.5t-41.5 -34.5l-6 7q21 20 46 45.5t46 48.5t31 35l5 3h18q15 -24 36 -60t42 -74zM453 503q2 1 13.5 4t12.5 3q6 0 4 -6l-23 -109l-6 -28l-37 -174q-14 -67 -20.5 -101.5t-6.5 -51.5q0 -20 11 -20 q13 0 29.5 16.5t35 42t34.5 52.5l6 -4q-12 -28 -32 -60t-43.5 -54.5t-44.5 -22.5q-10 0 -18.5 8t-8.5 30t8 64.5t20.5 97.5t27.5 116q-38 -95 -79.5 -166.5t-82.5 -110.5t-77 -39q-28 0 -39.5 16.5t-11.5 42.5q0 27 8.5 69.5t20.5 91.5t24.5 97t20.5 88q5 22 7.5 39.5 t2.5 30.5q0 15 -8 15q-10 0 -27 -16.5t-37 -42t-39 -52.5l-6 4q13 29 33 60.5t43 54t44 22.5q11 0 19 -9t8 -33q0 -13 -2.5 -32t-7.5 -41q-8 -41 -20.5 -89.5t-24.5 -96.5t-20.5 -89t-8.5 -66q0 -16 6 -26t22 -10q31 0 74 47.5t88.5 132.5t84.5 197z" />
<glyph unicode="&#xfc;" horiz-adv-x="484" d="M320 662q0 -18 -12 -33t-29 -15q-22 0 -22 24q0 19 12.5 33.5t28.5 14.5q22 0 22 -24zM498 662q0 -18 -12 -33t-29 -15q-22 0 -22 24q0 19 12.5 33.5t28.5 14.5q22 0 22 -24zM453 503q2 1 13.5 4t12.5 3q6 0 4 -6l-23 -109l-6 -28l-37 -174q-14 -67 -20.5 -101.5 t-6.5 -51.5q0 -20 11 -20q13 0 29.5 16.5t35 42t34.5 52.5l6 -4q-12 -28 -32 -60t-43.5 -54.5t-44.5 -22.5q-10 0 -18.5 8t-8.5 30t8 64.5t20.5 97.5t27.5 116q-38 -95 -79.5 -166.5t-82.5 -110.5t-77 -39q-28 0 -39.5 16.5t-11.5 42.5q0 27 8.5 69.5t20.5 91.5t24.5 97 t20.5 88q5 22 7.5 39.5t2.5 30.5q0 15 -8 15q-10 0 -27 -16.5t-37 -42t-39 -52.5l-6 4q13 29 33 60.5t43 54t44 22.5q11 0 19 -9t8 -33q0 -13 -2.5 -32t-7.5 -41q-8 -41 -20.5 -89.5t-24.5 -96.5t-20.5 -89t-8.5 -66q0 -16 6 -26t22 -10q31 0 74 47.5t88.5 132.5t84.5 197z " />
<glyph unicode="&#xfd;" horiz-adv-x="359" d="M402 705q0 -11 -19 -28.5t-46.5 -36t-54.5 -34.5t-44 -25l-6 8q46 35 87.5 70t64.5 61q18 0 18 -15zM223 355q0 -43 -6 -99.5t-18.5 -118t-31.5 -118.5q66 61 114.5 139.5t75.5 161t27 155.5q0 11 -0.5 18t-1.5 13q6 4 14 4q10 0 15 -6.5t5 -26.5q0 -50 -16.5 -112.5 t-49 -129.5t-81 -131t-113.5 -117q-19 -51 -43.5 -92.5t-54.5 -65.5t-66 -24q-33 0 -52.5 12t-19.5 28q0 11 5 18.5t12 11.5q9 -20 25.5 -33t35.5 -13q36 0 66 34t53.5 90.5t40 125.5t25 140t8.5 133q0 52 -7.5 90t-27.5 38q-18 0 -40.5 -33.5t-45.5 -77.5l-6 4 q11 32 26.5 63.5t35 52.5t39.5 21q24 0 36.5 -21.5t17 -56.5t4.5 -77z" />
<glyph unicode="&#xfe;" horiz-adv-x="420" d="M86 -188q-2 -1 -13 -4t-13 -3q-5 0 -4 6l23 109l139 655l20 96l-85 8v5q31 3 57.5 6t58.5 5l4 -4l-25 -116l-43 -204q-10 -47 -19.5 -88t-18.5 -79q34 93 71.5 161.5t74 106.5t67.5 38q34 0 49.5 -31.5t15.5 -81.5q0 -52 -11.5 -108.5t-33 -109.5t-52.5 -96t-70 -68 t-85 -25q-18 0 -35 3t-32 8l-17 -81zM146 95v0l-13 -63q18 -10 40.5 -14t43.5 -4q40 0 76 34.5t63.5 91t43 123t15.5 130.5q0 39 -10 64t-32 25q-27 0 -67 -48.5t-82 -135.5t-78 -203z" />
<glyph unicode="&#xff;" horiz-adv-x="359" d="M260 662q0 -18 -12 -33t-29 -15q-22 0 -22 24q0 19 12.5 33.5t28.5 14.5q22 0 22 -24zM438 662q0 -18 -12 -33t-29 -15q-22 0 -22 24q0 19 12.5 33.5t28.5 14.5q22 0 22 -24zM223 355q0 -43 -6 -99.5t-18.5 -118t-31.5 -118.5q66 61 114.5 139.5t75.5 161t27 155.5 q0 11 -0.5 18t-1.5 13q6 4 14 4q10 0 15 -6.5t5 -26.5q0 -50 -16.5 -112.5t-49 -129.5t-81 -131t-113.5 -117q-19 -51 -43.5 -92.5t-54.5 -65.5t-66 -24q-33 0 -52.5 12t-19.5 28q0 11 5 18.5t12 11.5q9 -20 25.5 -33t35.5 -13q36 0 66 34t53.5 90.5t40 125.5t25 140 t8.5 133q0 52 -7.5 90t-27.5 38q-18 0 -40.5 -33.5t-45.5 -77.5l-6 4q11 32 26.5 63.5t35 52.5t39.5 21q24 0 36.5 -21.5t17 -56.5t4.5 -77z" />
<glyph unicode="&#x100;" horiz-adv-x="685" d="M392 788l6 24h234l-6 -24h-234zM476 654h13l87 -590q4 -25 10.5 -32.5t27.5 -12.5l45 -9l-2 -10h-204v10l96 15l-29 204l-259 -2l1 5l-116 -206l90 -16l-2 -10h-204v10l53 10q23 5 33 13.5t23 30.5zM275 254l242 -3l-50 342z" />
<glyph unicode="&#x101;" horiz-adv-x="428" d="M232 638l6 24h234l-6 -24h-234zM78 94q0 54 13.5 111.5t38.5 112t59 98t75.5 69t87.5 25.5q24 0 43.5 -6t32.5 -14l-23 -93l-63 -292q-4 -22 -7 -39.5t-3 -30.5q0 -15 8 -15q10 0 27 16.5t37.5 42t38.5 52.5l6 -4q-13 -28 -33 -60t-43 -54.5t-44 -22.5q-10 0 -18.5 9 t-8.5 33q0 14 3 32.5t7 40.5l45 197q-35 -94 -74.5 -164.5t-77 -109t-67.5 -38.5q-31 0 -45.5 29t-14.5 75zM378 407l14 66q-14 7 -30 10t-31 3q-34 0 -67 -23.5t-61 -64t-49.5 -91t-33.5 -104.5t-12 -104q0 -36 9 -58.5t28 -22.5q26 0 67 48.5t85.5 136.5t80.5 204z" />
<glyph unicode="&#x102;" horiz-adv-x="685" d="M596 850l4 2l10 -4q-17 -47 -48.5 -73.5t-70.5 -26.5q-40 0 -61 26.5t-18 74.5l14 3q2 -37 20.5 -58t49.5 -21q32 0 58 20.5t42 56.5zM476 654h13l87 -590q4 -25 10.5 -32.5t27.5 -12.5l45 -9l-2 -10h-204v10l96 15l-29 204l-259 -2l1 5l-116 -206l90 -16l-2 -10h-204v10 l53 10q23 5 33 13.5t23 30.5zM275 254l242 -3l-50 342z" />
<glyph unicode="&#x103;" horiz-adv-x="428" d="M444 700l4 2l10 -4q-17 -47 -48.5 -73.5t-70.5 -26.5q-40 0 -61 26.5t-18 74.5l14 3q2 -37 20.5 -58t49.5 -21q32 0 58 20.5t42 56.5zM78 94q0 54 13.5 111.5t38.5 112t59 98t75.5 69t87.5 25.5q24 0 43.5 -6t32.5 -14l-23 -93l-63 -292q-4 -22 -7 -39.5t-3 -30.5 q0 -15 8 -15q10 0 27 16.5t37.5 42t38.5 52.5l6 -4q-13 -28 -33 -60t-43 -54.5t-44 -22.5q-10 0 -18.5 9t-8.5 33q0 14 3 32.5t7 40.5l45 197q-35 -94 -74.5 -164.5t-77 -109t-67.5 -38.5q-31 0 -45.5 29t-14.5 75zM378 407l14 66q-14 7 -30 10t-31 3q-34 0 -67 -23.5 t-61 -64t-49.5 -91t-33.5 -104.5t-12 -104q0 -36 9 -58.5t28 -22.5q26 0 67 48.5t85.5 136.5t80.5 204z" />
<glyph unicode="&#x104;" horiz-adv-x="685" d="M688 -77q-21 -41 -45 -69t-54 -28q-40 0 -40 44q0 37 25 73.5t60 56.5h-181v10l96 15l-29 204l-259 -2l1 5l-116 -206l90 -16l-2 -10h-204v10l53 10q23 5 33 13.5t23 30.5l337 590h13l87 -590q4 -25 10.5 -32.5t27.5 -12.5l45 -9l-2 -10q-20 -12 -38 -33.5t-29 -45 t-11 -42.5q0 -23 19 -23q16 0 36 18t48 53zM275 254l242 -3l-50 342z" />
<glyph unicode="&#x105;" horiz-adv-x="428" d="M78 94q0 54 13.5 111.5t38.5 112t59 98t75.5 69t87.5 25.5q24 0 43.5 -6t32.5 -14l-23 -93l-63 -292q-4 -22 -7 -39.5t-3 -30.5q0 -15 8 -15q10 0 27 16.5t37.5 42t38.5 52.5l6 -4q-12 -26 -27 -51l1 1q-3 -5 -6 -9q-13 -20 -26 -35q-42 -57 -72 -92t-30 -62 q0 -23 20 -23q28 0 83 71l6 -4q-21 -41 -45 -69t-54 -28q-18 0 -29 12t-11 32q0 22 14.5 44t34 41.5t34.5 36.5q-7 -2 -13 -2q-10 0 -18.5 9t-8.5 33q0 14 3 32.5t7 40.5l45 197q-35 -94 -74.5 -164.5t-77 -109t-67.5 -38.5q-31 0 -45.5 29t-14.5 75zM378 407l14 66 q-14 7 -30 10t-31 3q-34 0 -67 -23.5t-61 -64t-49.5 -91t-33.5 -104.5t-12 -104q0 -36 9 -58.5t28 -22.5q26 0 67 48.5t85.5 136.5t80.5 204z" />
<glyph unicode="&#x106;" d="M588 855q0 -11 -19 -28.5t-46.5 -36t-54.5 -34.5t-44 -25l-6 8q46 35 87.5 70t64.5 61q18 0 18 -15zM487 660q41 0 75 -9t56 -23q-2 -22 -8.5 -54.5t-15 -64.5t-15.5 -53h-8l12 159q-22 10 -46.5 15.5t-54.5 5.5q-73 0 -133 -31t-104 -84t-68 -120.5t-24 -140.5 q0 -81 29 -135.5t78.5 -82.5t112.5 -28q64 0 102 20l57 168h8q-2 -23 -7 -51t-12 -64q-4 -20 -7.5 -34t-8.5 -31q-27 -16 -61.5 -24t-72.5 -8q-74 0 -130.5 31t-88.5 90t-32 142q0 82 26.5 155.5t75 130t116 89t149.5 32.5z" />
<glyph unicode="&#x107;" horiz-adv-x="341" d="M415 705q0 -11 -19 -28.5t-46.5 -36t-54.5 -34.5t-44 -25l-6 8q46 35 87.5 70t64.5 61q18 0 18 -15zM347 139q-14 -36 -39 -70.5t-55 -56.5t-61 -22q-49 0 -75.5 41.5t-26.5 115.5q0 64 17.5 128t47.5 117.5t68 85.5t79 32q38 0 56.5 -26.5t18.5 -65.5q0 -33 -9 -63 t-27 -30q-8 0 -13 4q8 17 13 39.5t5 44.5q0 36 -11.5 56.5t-39.5 20.5q-33 0 -64 -32t-55.5 -83.5t-39 -111t-14.5 -115.5q0 -61 19 -97.5t53 -36.5q25 0 51 18t51 47.5t45 63.5z" />
<glyph unicode="&#x108;" d="M604 736l-9 -6q-17 24 -39.5 52.5t-44.5 55.5q-16 -15 -38 -34t-45.5 -38.5t-41.5 -34.5l-6 7q21 20 46 45.5t46 48.5t31 35l5 3h18q15 -24 36 -60t42 -74zM487 660q41 0 75 -9t56 -23q-2 -22 -8.5 -54.5t-15 -64.5t-15.5 -53h-8l12 159q-22 10 -46.5 15.5t-54.5 5.5 q-73 0 -133 -31t-104 -84t-68 -120.5t-24 -140.5q0 -81 29 -135.5t78.5 -82.5t112.5 -28q64 0 102 20l57 168h8q-2 -23 -7 -51t-12 -64q-4 -20 -7.5 -34t-8.5 -31q-27 -16 -61.5 -24t-72.5 -8q-74 0 -130.5 31t-88.5 90t-32 142q0 82 26.5 155.5t75 130t116 89t149.5 32.5z " />
<glyph unicode="&#x109;" horiz-adv-x="341" d="M432 586l-9 -6q-17 24 -39.5 52.5t-44.5 55.5q-16 -15 -38 -34t-45.5 -38.5t-41.5 -34.5l-6 7q21 20 46 45.5t46 48.5t31 35l5 3h18q15 -24 36 -60t42 -74zM347 139q-14 -36 -39 -70.5t-55 -56.5t-61 -22q-49 0 -75.5 41.5t-26.5 115.5q0 64 17.5 128t47.5 117.5t68 85.5 t79 32q38 0 56.5 -26.5t18.5 -65.5q0 -33 -9 -63t-27 -30q-8 0 -13 4q8 17 13 39.5t5 44.5q0 36 -11.5 56.5t-39.5 20.5q-33 0 -64 -32t-55.5 -83.5t-39 -111t-14.5 -115.5q0 -61 19 -97.5t53 -36.5q25 0 51 18t51 47.5t45 63.5z" />
<glyph unicode="&#x10a;" d="M536 810q0 -16 -11 -30.5t-29 -14.5q-26 0 -26 26q0 17 12.5 30.5t28.5 13.5q25 0 25 -25zM487 660q41 0 75 -9t56 -23q-2 -22 -8.5 -54.5t-15 -64.5t-15.5 -53h-8l12 159q-22 10 -46.5 15.5t-54.5 5.5q-73 0 -133 -31t-104 -84t-68 -120.5t-24 -140.5q0 -81 29 -135.5 t78.5 -82.5t112.5 -28q64 0 102 20l57 168h8q-2 -23 -7 -51t-12 -64q-4 -20 -7.5 -34t-8.5 -31q-27 -16 -61.5 -24t-72.5 -8q-74 0 -130.5 31t-88.5 90t-32 142q0 82 26.5 155.5t75 130t116 89t149.5 32.5z" />
<glyph unicode="&#x10b;" horiz-adv-x="341" d="M363 660q0 -16 -11 -30.5t-29 -14.5q-26 0 -26 26q0 17 12.5 30.5t28.5 13.5q25 0 25 -25zM347 139q-14 -36 -39 -70.5t-55 -56.5t-61 -22q-49 0 -75.5 41.5t-26.5 115.5q0 64 17.5 128t47.5 117.5t68 85.5t79 32q38 0 56.5 -26.5t18.5 -65.5q0 -33 -9 -63t-27 -30 q-8 0 -13 4q8 17 13 39.5t5 44.5q0 36 -11.5 56.5t-39.5 20.5q-33 0 -64 -32t-55.5 -83.5t-39 -111t-14.5 -115.5q0 -61 19 -97.5t53 -36.5q25 0 51 18t51 47.5t45 63.5z" />
<glyph unicode="&#x10c;" d="M499 733l-5 -3h-18q-15 24 -36 60.5t-42 73.5l9 6q17 -24 39.5 -52.5t44.5 -55.5q16 15 38 34t45.5 38.5t41.5 34.5l6 -7q-21 -20 -46 -45.5t-46 -48t-31 -35.5zM487 660q41 0 75 -9t56 -23q-2 -22 -8.5 -54.5t-15 -64.5t-15.5 -53h-8l12 159q-22 10 -46.5 15.5 t-54.5 5.5q-73 0 -133 -31t-104 -84t-68 -120.5t-24 -140.5q0 -81 29 -135.5t78.5 -82.5t112.5 -28q64 0 102 20l57 168h8q-2 -23 -7 -51t-12 -64q-4 -20 -7.5 -34t-8.5 -31q-27 -16 -61.5 -24t-72.5 -8q-74 0 -130.5 31t-88.5 90t-32 142q0 82 26.5 155.5t75 130t116 89 t149.5 32.5z" />
<glyph unicode="&#x10d;" horiz-adv-x="341" d="M327 583l-5 -3h-18q-15 24 -36 60.5t-42 73.5l9 6q17 -24 39.5 -52.5t44.5 -55.5q16 15 38 34t45.5 38.5t41.5 34.5l6 -7q-21 -20 -46 -45.5t-46 -48t-31 -35.5zM347 139q-14 -36 -39 -70.5t-55 -56.5t-61 -22q-49 0 -75.5 41.5t-26.5 115.5q0 64 17.5 128t47.5 117.5 t68 85.5t79 32q38 0 56.5 -26.5t18.5 -65.5q0 -33 -9 -63t-27 -30q-8 0 -13 4q8 17 13 39.5t5 44.5q0 36 -11.5 56.5t-39.5 20.5q-33 0 -64 -32t-55.5 -83.5t-39 -111t-14.5 -115.5q0 -61 19 -97.5t53 -36.5q25 0 51 18t51 47.5t45 63.5z" />
<glyph unicode="&#x10e;" horiz-adv-x="634" d="M471 733l-5 -3h-18q-15 24 -36 60.5t-42 73.5l9 6q17 -24 39.5 -52.5t44.5 -55.5q16 15 38 34t45.5 38.5t41.5 34.5l6 -7q-21 -20 -46 -45.5t-46 -48t-31 -35.5zM302 611l-122 -572l-3 -17h94q86 0 151.5 31.5t109.5 85.5t66.5 122.5t22.5 142.5q0 107 -59.5 165.5 t-182.5 58.5h-74zM269 0h-219v10l78 12q11 2 15 6t5 11l122 572l3 13l-89 16l3 10h201q131 0 198.5 -65t67.5 -178q0 -76 -24 -148.5t-72 -131t-120.5 -93t-168.5 -34.5z" />
<glyph unicode="&#x10f;" horiz-adv-x="528" d="M312 105l39 182q-35 -90 -73 -157t-74.5 -103.5t-65.5 -36.5q-31 0 -45.5 29t-14.5 75q0 54 13.5 111.5t38.5 112t59 98t75.5 69t87.5 25.5q25 0 45 -6l15 71l20 96l-85 8v5q31 3 57.5 6t58.5 5l4 -4l-25 -116l-100 -470q-4 -22 -7 -39.5t-3 -30.5q0 -15 8 -15 q10 0 27 16.5t37.5 42t38.5 52.5l6 -4q-13 -28 -33 -60t-43 -54.5t-44 -22.5q-10 0 -18.5 9t-8.5 33q0 14 3 32.5t7 40.5zM628 667q0 -27 -22 -69t-55 -78l-5 5q17 26 28 51.5t16 50.5h-1q-12 0 -18 7.5t-6 17.5q0 17 12 30t26 13q25 0 25 -28zM145 18q26 0 67 49t85 137 t80 204l14 65q-26 13 -60 13t-67 -23.5t-61 -64t-49.5 -91t-33.5 -104.5t-12 -104q0 -36 9 -58.5t28 -22.5z" />
<glyph unicode="&#x110;" horiz-adv-x="628" d="M422 312h-184l-58 -273l-3 -17h94q86 0 151.5 31.5t109.5 85.5t66.5 122.5t22.5 142.5q0 107 -59.5 165.5t-182.5 58.5h-74l-3 -17l-59 -277h183zM269 0h-219v10l78 12q11 2 15 6t5 11l58 273h-91l4 22h92l59 277l3 13l-89 16l3 10h201q131 0 198.5 -65t67.5 -178 q0 -76 -24 -148.5t-72 -131t-120.5 -93t-168.5 -34.5z" />
<glyph unicode="&#x111;" horiz-adv-x="428" d="M312 105l39 182q-35 -90 -73 -157t-74.5 -103.5t-65.5 -36.5q-31 0 -45.5 29t-14.5 75q0 54 13.5 111.5t38.5 112t59 98t75.5 69t87.5 25.5q25 0 45 -6l15 70h-147l4 22h147l16 75l-85 8v5q31 3 57.5 6t58.5 5l4 -4l-20 -95h101l-4 -22h-102l-100 -469q-4 -22 -7 -39.5 t-3 -30.5q0 -15 8 -15q10 0 27 16.5t37.5 42t38.5 52.5l6 -4q-13 -28 -33 -60t-43 -54.5t-44 -22.5q-10 0 -18.5 9t-8.5 33q0 14 3 32.5t7 40.5zM145 18q26 0 67 49t85 137t80 204l14 65q-26 13 -60 13t-67 -23.5t-61 -64t-49.5 -91t-33.5 -104.5t-12 -104q0 -36 9 -58.5 t28 -22.5z" />
<glyph unicode="&#x112;" horiz-adv-x="515" d="M335 788l6 24h234l-6 -24h-234zM469 0h-419v10l78 12q11 2 15 6t5 11l122 572l3 13l-89 16l3 10h410q-2 -24 -8.5 -56.5t-14.5 -64t-16 -54.5h-7l11 150q-35 2 -70 2h-70h-117l-3 -16l-57 -269l216 4l-6 -30l-215 5l-60 -282l-3 -16h123h72.5t71.5 2l53 150h7 q-1 -14 -3 -32t-6 -38q-5 -29 -12 -57.5t-14 -47.5z" />
<glyph unicode="&#x113;" horiz-adv-x="329" d="M212 638l6 24h234l-6 -24h-234zM347 139q-14 -35 -38 -69.5t-55 -57t-66 -22.5q-46 0 -72 42t-26 115q0 63 17.5 127.5t47 117.5t68 85.5t80.5 32.5q35 0 53 -22t18 -55q0 -50 -21.5 -89.5t-57 -67.5t-79.5 -43.5t-89 -18.5q-5 -34 -5 -65q0 -61 18.5 -98t53.5 -37 t75.5 38t71.5 91zM297 490q-27 0 -53 -22t-48.5 -59t-39.5 -83t-26 -94q67 9 114.5 37.5t72.5 71t25 92.5q0 23 -10.5 40t-34.5 17z" />
<glyph unicode="&#x114;" horiz-adv-x="515" d="M539 850l4 2l10 -4q-17 -47 -48.5 -73.5t-70.5 -26.5q-40 0 -61 26.5t-18 74.5l14 3q2 -37 20.5 -58t49.5 -21q32 0 58 20.5t42 56.5zM469 0h-419v10l78 12q11 2 15 6t5 11l122 572l3 13l-89 16l3 10h410q-2 -24 -8.5 -56.5t-14.5 -64t-16 -54.5h-7l11 150q-35 2 -70 2 h-70h-117l-3 -16l-57 -269l216 4l-6 -30l-215 5l-60 -282l-3 -16h123h72.5t71.5 2l53 150h7q-1 -14 -3 -32t-6 -38q-5 -29 -12 -57.5t-14 -47.5z" />
<glyph unicode="&#x115;" horiz-adv-x="329" d="M424 700l4 2l10 -4q-17 -47 -48.5 -73.5t-70.5 -26.5q-40 0 -61 26.5t-18 74.5l14 3q2 -37 20.5 -58t49.5 -21q32 0 58 20.5t42 56.5zM347 139q-14 -35 -38 -69.5t-55 -57t-66 -22.5q-46 0 -72 42t-26 115q0 63 17.5 127.5t47 117.5t68 85.5t80.5 32.5q35 0 53 -22 t18 -55q0 -50 -21.5 -89.5t-57 -67.5t-79.5 -43.5t-89 -18.5q-5 -34 -5 -65q0 -61 18.5 -98t53.5 -37t75.5 38t71.5 91zM297 490q-27 0 -53 -22t-48.5 -59t-39.5 -83t-26 -94q67 9 114.5 37.5t72.5 71t25 92.5q0 23 -10.5 40t-34.5 17z" />
<glyph unicode="&#x116;" horiz-adv-x="515" d="M488 810q0 -16 -11 -30.5t-29 -14.5q-26 0 -26 26q0 17 12.5 30.5t28.5 13.5q25 0 25 -25zM469 0h-419v10l78 12q11 2 15 6t5 11l122 572l3 13l-89 16l3 10h410q-2 -24 -8.5 -56.5t-14.5 -64t-16 -54.5h-7l11 150q-35 2 -70 2h-70h-117l-3 -16l-57 -269l216 4l-6 -30 l-215 5l-60 -282l-3 -16h123h72.5t71.5 2l53 150h7q-1 -14 -3 -32t-6 -38q-5 -29 -12 -57.5t-14 -47.5z" />
<glyph unicode="&#x117;" horiz-adv-x="329" d="M363 660q0 -16 -11 -30.5t-29 -14.5q-26 0 -26 26q0 17 12.5 30.5t28.5 13.5q25 0 25 -25zM347 139q-14 -35 -38 -69.5t-55 -57t-66 -22.5q-46 0 -72 42t-26 115q0 63 17.5 127.5t47 117.5t68 85.5t80.5 32.5q35 0 53 -22t18 -55q0 -50 -21.5 -89.5t-57 -67.5 t-79.5 -43.5t-89 -18.5q-5 -34 -5 -65q0 -61 18.5 -98t53.5 -37t75.5 38t71.5 91zM297 490q-27 0 -53 -22t-48.5 -59t-39.5 -83t-26 -94q67 9 114.5 37.5t72.5 71t25 92.5q0 23 -10.5 40t-34.5 17z" />
<glyph unicode="&#x118;" horiz-adv-x="515" d="M500 -77q-21 -41 -45 -69t-54 -28q-40 0 -40 44q0 37 25 73.5t60 56.5h-396v10l78 12q11 2 15 6t5 11l122 572l3 13l-89 16l3 10h410q-2 -24 -8.5 -56.5t-14.5 -64t-16 -54.5h-7l11 150q-35 2 -70 2h-70h-117l-3 -16l-57 -269l216 4l-6 -30l-215 5l-60 -282l-3 -16h123 h72.5t71.5 2l53 150h7q-1 -14 -3 -32t-6 -38q-5 -29 -12 -57.5t-14 -47.5q-20 -12 -38 -33.5t-29 -45t-11 -42.5q0 -23 19 -23q16 0 36 18t48 53z" />
<glyph unicode="&#x119;" horiz-adv-x="329" d="M263 -77q-21 -41 -45 -69t-54 -28q-19 0 -29.5 12.5t-10.5 34.5q0 21 16 42.5t39.5 42.5t46.5 40q-19 -8 -38 -8q-46 0 -72 42t-26 115q0 63 17.5 127.5t47 117.5t68 85.5t80.5 32.5q35 0 53 -22t18 -55q0 -50 -21.5 -89.5t-57 -67.5t-79.5 -43.5t-89 -18.5 q-5 -34 -5 -65q0 -61 18.5 -98t53.5 -37t75.5 38t71.5 91l6 -4q-11 -25 -26.5 -51t-34.5 -47q-27 -33 -58 -62t-52.5 -53.5t-21.5 -45.5q0 -24 20 -24q17 0 36.5 18t46.5 53zM297 490q-27 0 -53 -22t-48.5 -59t-39.5 -83t-26 -94q67 9 114.5 37.5t72.5 71t25 92.5 q0 23 -10.5 40t-34.5 17z" />
<glyph unicode="&#x11a;" horiz-adv-x="515" d="M451 733l-5 -3h-18q-15 24 -36 60.5t-42 73.5l9 6q17 -24 39.5 -52.5t44.5 -55.5q16 15 38 34t45.5 38.5t41.5 34.5l6 -7q-21 -20 -46 -45.5t-46 -48t-31 -35.5zM469 0h-419v10l78 12q11 2 15 6t5 11l122 572l3 13l-89 16l3 10h410q-2 -24 -8.5 -56.5t-14.5 -64 t-16 -54.5h-7l11 150q-35 2 -70 2h-70h-117l-3 -16l-57 -269l216 4l-6 -30l-215 5l-60 -282l-3 -16h123h72.5t71.5 2l53 150h7q-1 -14 -3 -32t-6 -38q-5 -29 -12 -57.5t-14 -47.5z" />
<glyph unicode="&#x11b;" horiz-adv-x="329" d="M327 583l-5 -3h-18q-15 24 -36 60.5t-42 73.5l9 6q17 -24 39.5 -52.5t44.5 -55.5q16 15 38 34t45.5 38.5t41.5 34.5l6 -7q-21 -20 -46 -45.5t-46 -48t-31 -35.5zM347 139q-14 -35 -38 -69.5t-55 -57t-66 -22.5q-46 0 -72 42t-26 115q0 63 17.5 127.5t47 117.5t68 85.5 t80.5 32.5q35 0 53 -22t18 -55q0 -50 -21.5 -89.5t-57 -67.5t-79.5 -43.5t-89 -18.5q-5 -34 -5 -65q0 -61 18.5 -98t53.5 -37t75.5 38t71.5 91zM297 490q-27 0 -53 -22t-48.5 -59t-39.5 -83t-26 -94q67 9 114.5 37.5t72.5 71t25 92.5q0 23 -10.5 40t-34.5 17z" />
<glyph unicode="&#x11c;" horiz-adv-x="622" d="M622 736l-9 -6q-17 24 -39.5 52.5t-44.5 55.5q-16 -15 -38 -34t-45.5 -38.5t-41.5 -34.5l-6 7q21 20 46 45.5t46 48.5t31 35l5 3h18q15 -24 36 -60t42 -74zM515 22q-28 -16 -64 -24t-76 -8q-73 0 -131 29.5t-91 88t-33 145.5q0 82 26.5 155.5t76 130t118 89t151.5 32.5 q43 0 78 -9t58 -23q-2 -22 -8.5 -54.5t-15 -64.5t-15.5 -53h-8l12 160q-24 10 -51.5 15t-54.5 5q-74 0 -135 -31t-105.5 -84t-69 -120.5t-24.5 -140.5q0 -83 30 -137.5t81 -81.5t114 -27q32 0 60.5 6t47.5 15l47 223l2 12l-91 17l3 8h200l-1 -8l-62 -12q-16 -4 -19 -17z" />
<glyph unicode="&#x11d;" horiz-adv-x="331" d="M399 586l-9 -6q-17 24 -39.5 52.5t-44.5 55.5q-16 -15 -38 -34t-45.5 -38.5t-41.5 -34.5l-6 7q21 20 46 45.5t46 48.5t31 35l5 3h18q15 -24 36 -60t42 -74zM319 -70q0 -28 -25 -57t-66.5 -48.5t-92.5 -19.5q-70 0 -107.5 27.5t-37.5 68.5q0 60 86 113l5 -5 q-25 -22 -42 -47t-17 -52q0 -37 30.5 -59t87.5 -22q38 0 71.5 12.5t54.5 34.5t21 48q0 21 -15 37t-37.5 29t-45 24.5t-37.5 24.5t-15 29q0 20 27.5 43t68.5 54q-14 -4 -30 -4q-42 0 -69 31.5t-27 91.5t23.5 111.5t64 83t90.5 31.5t96.5 2t77.5 6q3 -6 3 -13q0 -10 -6 -16 t-22 -6q-17 0 -44.5 3t-67.5 8q21 -16 30.5 -42.5t9.5 -59.5q0 -61 -19.5 -106.5t-48 -79.5t-57.5 -58.5t-48.5 -42.5t-19.5 -32q0 -10 15 -21t37.5 -23.5t45 -27t37.5 -32t15 -39.5zM137 290q0 -50 18.5 -79t52.5 -29q31 0 59 27t46.5 74t18.5 107q0 41 -15 68.5t-47 27.5 q-35 0 -65.5 -28t-49 -73t-18.5 -95z" />
<glyph unicode="&#x11e;" horiz-adv-x="622" d="M605 850l4 2l10 -4q-17 -47 -48.5 -73.5t-70.5 -26.5q-40 0 -61 26.5t-18 74.5l14 3q2 -37 20.5 -58t49.5 -21q32 0 58 20.5t42 56.5zM515 22q-28 -16 -64 -24t-76 -8q-73 0 -131 29.5t-91 88t-33 145.5q0 82 26.5 155.5t76 130t118 89t151.5 32.5q43 0 78 -9t58 -23 q-2 -22 -8.5 -54.5t-15 -64.5t-15.5 -53h-8l12 160q-24 10 -51.5 15t-54.5 5q-74 0 -135 -31t-105.5 -84t-69 -120.5t-24.5 -140.5q0 -83 30 -137.5t81 -81.5t114 -27q32 0 60.5 6t47.5 15l47 223l2 12l-91 17l3 8h200l-1 -8l-62 -12q-16 -4 -19 -17z" />
<glyph unicode="&#x11f;" horiz-adv-x="331" d="M404 700l4 2l10 -4q-17 -47 -48.5 -73.5t-70.5 -26.5q-40 0 -61 26.5t-18 74.5l14 3q2 -37 20.5 -58t49.5 -21q32 0 58 20.5t42 56.5zM319 -70q0 -28 -25 -57t-66.5 -48.5t-92.5 -19.5q-70 0 -107.5 27.5t-37.5 68.5q0 60 86 113l5 -5q-25 -22 -42 -47t-17 -52 q0 -37 30.5 -59t87.5 -22q38 0 71.5 12.5t54.5 34.5t21 48q0 21 -15 37t-37.5 29t-45 24.5t-37.5 24.5t-15 29q0 20 27.5 43t68.5 54q-14 -4 -30 -4q-42 0 -69 31.5t-27 91.5t23.5 111.5t64 83t90.5 31.5t96.5 2t77.5 6q3 -6 3 -13q0 -10 -6 -16t-22 -6q-17 0 -44.5 3 t-67.5 8q21 -16 30.5 -42.5t9.5 -59.5q0 -61 -19.5 -106.5t-48 -79.5t-57.5 -58.5t-48.5 -42.5t-19.5 -32q0 -10 15 -21t37.5 -23.5t45 -27t37.5 -32t15 -39.5zM137 290q0 -50 18.5 -79t52.5 -29q31 0 59 27t46.5 74t18.5 107q0 41 -15 68.5t-47 27.5q-35 0 -65.5 -28 t-49 -73t-18.5 -95z" />
<glyph unicode="&#x120;" horiz-adv-x="622" d="M554 810q0 -16 -11 -30.5t-29 -14.5q-26 0 -26 26q0 17 12.5 30.5t28.5 13.5q25 0 25 -25zM515 22q-28 -16 -64 -24t-76 -8q-73 0 -131 29.5t-91 88t-33 145.5q0 82 26.5 155.5t76 130t118 89t151.5 32.5q43 0 78 -9t58 -23q-2 -22 -8.5 -54.5t-15 -64.5t-15.5 -53h-8 l12 160q-24 10 -51.5 15t-54.5 5q-74 0 -135 -31t-105.5 -84t-69 -120.5t-24.5 -140.5q0 -83 30 -137.5t81 -81.5t114 -27q32 0 60.5 6t47.5 15l47 223l2 12l-91 17l3 8h200l-1 -8l-62 -12q-16 -4 -19 -17z" />
<glyph unicode="&#x121;" horiz-adv-x="331" d="M343 660q0 -16 -11 -30.5t-29 -14.5q-26 0 -26 26q0 17 12.5 30.5t28.5 13.5q25 0 25 -25zM319 -70q0 -28 -25 -57t-66.5 -48.5t-92.5 -19.5q-70 0 -107.5 27.5t-37.5 68.5q0 60 86 113l5 -5q-25 -22 -42 -47t-17 -52q0 -37 30.5 -59t87.5 -22q38 0 71.5 12.5t54.5 34.5 t21 48q0 21 -15 37t-37.5 29t-45 24.5t-37.5 24.5t-15 29q0 20 27.5 43t68.5 54q-14 -4 -30 -4q-42 0 -69 31.5t-27 91.5t23.5 111.5t64 83t90.5 31.5t96.5 2t77.5 6q3 -6 3 -13q0 -10 -6 -16t-22 -6q-17 0 -44.5 3t-67.5 8q21 -16 30.5 -42.5t9.5 -59.5q0 -61 -19.5 -106.5 t-48 -79.5t-57.5 -58.5t-48.5 -42.5t-19.5 -32q0 -10 15 -21t37.5 -23.5t45 -27t37.5 -32t15 -39.5zM137 290q0 -50 18.5 -79t52.5 -29q31 0 59 27t46.5 74t18.5 107q0 41 -15 68.5t-47 27.5q-35 0 -65.5 -28t-49 -73t-18.5 -95z" />
<glyph unicode="&#x122;" horiz-adv-x="622" d="M515 22q-28 -16 -64 -24t-76 -8q-73 0 -131 29.5t-91 88t-33 145.5q0 82 26.5 155.5t76 130t118 89t151.5 32.5q43 0 78 -9t58 -23q-2 -22 -8.5 -54.5t-15 -64.5t-15.5 -53h-8l12 160q-24 10 -51.5 15t-54.5 5q-74 0 -135 -31t-105.5 -84t-69 -120.5t-24.5 -140.5 q0 -83 30 -137.5t81 -81.5t114 -27q32 0 60.5 6t47.5 15l47 223l2 12l-91 17l3 8h200l-1 -8l-62 -12q-16 -4 -19 -17zM366 -130q0 -27 -22 -69t-55 -78l-5 5q17 26 28 51.5t16 50.5h-1q-12 0 -18 7.5t-6 17.5q0 17 12 30t26 13q25 0 25 -28z" />
<glyph unicode="&#x123;" horiz-adv-x="331" d="M277 643q0 27 22 69t55 78l5 -5q-17 -26 -28 -51.5t-16 -50.5h1q12 0 18 -7t6 -18q0 -17 -12 -30t-26 -13q-25 0 -25 28zM319 -70q0 -28 -25 -57t-66.5 -48.5t-92.5 -19.5q-70 0 -107.5 27.5t-37.5 68.5q0 60 86 113l5 -5q-25 -22 -42 -47t-17 -52q0 -37 30.5 -59 t87.5 -22q38 0 71.5 12.5t54.5 34.5t21 48q0 21 -15 37t-37.5 29t-45 24.5t-37.5 24.5t-15 29q0 20 27.5 43t68.5 54q-14 -4 -30 -4q-42 0 -69 31.5t-27 91.5t23.5 111.5t64 83t90.5 31.5t96.5 2t77.5 6q3 -6 3 -13q0 -10 -6 -16t-22 -6q-17 0 -44.5 3t-67.5 8 q21 -16 30.5 -42.5t9.5 -59.5q0 -61 -19.5 -106.5t-48 -79.5t-57.5 -58.5t-48.5 -42.5t-19.5 -32q0 -10 15 -21t37.5 -23.5t45 -27t37.5 -32t15 -39.5zM137 290q0 -50 18.5 -79t52.5 -29q31 0 59 27t46.5 74t18.5 107q0 41 -15 68.5t-47 27.5q-35 0 -65.5 -28t-49 -73 t-18.5 -95z" />
<glyph unicode="&#x124;" horiz-adv-x="693" d="M617 736l-9 -6q-17 24 -39.5 52.5t-44.5 55.5q-16 -15 -38 -34t-45.5 -38.5t-41.5 -34.5l-6 7q21 20 46 45.5t46 48.5t31 35l5 3h18q15 -24 36 -60t42 -74zM264 0h-214v10l78 12q11 2 15 6t5 11l122 572l3 13l-89 16l2 10h214v-10l-78 -12q-10 -1 -14 -5.5t-6 -11.5 l-57 -268h349l57 268l3 13l-89 16l2 10h214v-10l-78 -12q-10 -1 -14 -5.5t-6 -11.5l-122 -572l-3 -13l89 -16l-2 -10h-214v10l78 12q11 2 15 6t5 11l60 281h-349l-60 -281l-3 -13l89 -16z" />
<glyph unicode="&#x125;" horiz-adv-x="466" d="M354 736l-9 -6q-17 24 -39.5 52.5t-44.5 55.5q-16 -15 -38 -34t-45.5 -38.5t-41.5 -34.5l-6 7q21 20 46 45.5t46 48.5t31 35l5 3h18q15 -24 36 -60t42 -74zM124 -3q-2 -1 -13 -4t-13 -3q-5 0 -4 6l23 109h1l100 470l20 96l-85 8v5q31 3 57.5 6t58.5 5l4 -4l-25 -116 q-20 -93 -40 -185.5t-41 -184.5q38 92 79 160.5t81 106.5t76 38q28 0 39.5 -16.5t11.5 -42.5q0 -27 -8.5 -69.5t-20.5 -91.5t-24.5 -97t-20.5 -88q-4 -22 -7 -39.5t-3 -30.5q0 -15 8 -15q10 0 27 16.5t37.5 42t38.5 52.5l6 -4q-13 -28 -33 -60t-43 -54.5t-44 -22.5 q-10 0 -18.5 9t-8.5 33q0 14 3 32.5t7 40.5q8 41 20.5 89.5t24.5 96.5t20.5 89t8.5 66q0 16 -6 26t-22 10q-31 0 -74.5 -47.5t-89 -132t-84.5 -197.5h-1z" />
<glyph unicode="&#x126;" horiz-adv-x="693" d="M264 0h-214v10l78 12q11 2 15 6t5 11l89 417h-92l4 23h93l28 132l3 13l-89 16l2 10h214v-10l-78 -12q-10 -1 -14 -5.5t-6 -11.5l-28 -132h349l28 132l3 13l-89 16l2 10h214v-10l-78 -12q-10 -1 -14 -5.5t-6 -11.5l-28 -132h94l-4 -23h-95l-89 -417l-3 -13l89 -16l-2 -10 h-214v10l78 12q11 2 15 6t5 11l60 281h-349l-60 -281l-3 -13l89 -16zM245 343h349l24 113h-349z" />
<glyph unicode="&#x127;" horiz-adv-x="466" d="M124 -3q-2 -1 -13 -4t-13 -3q-5 0 -4 6l23 109h1l100 469h-89l4 22h89l16 75l-85 8v5q31 3 57.5 6t58.5 5l4 -4l-20 -95h159l-4 -22h-160q-21 -93 -40.5 -185t-40.5 -184q38 92 79 160.5t81 106.5t76 38q28 0 39.5 -16.5t11.5 -42.5q0 -27 -8.5 -69.5t-20.5 -91.5 t-24.5 -97t-20.5 -88q-4 -22 -7 -39.5t-3 -30.5q0 -15 8 -15q10 0 27 16.5t37.5 42t38.5 52.5l6 -4q-13 -28 -33 -60t-43 -54.5t-44 -22.5q-10 0 -18.5 9t-8.5 33q0 14 3 32.5t7 40.5q8 41 20.5 89.5t24.5 96.5t20.5 89t8.5 66q0 16 -6 26t-22 10q-31 0 -74.5 -47.5 t-89 -132t-84.5 -197.5h-1z" />
<glyph unicode="&#x128;" horiz-adv-x="312" d="M395 787q11 9 28 26t32 33l8 -5q-20 -37 -38 -57.5t-35 -20.5q-15 0 -36 7.5t-43.5 17t-41.5 17t-29 7.5q-11 -9 -28 -25.5t-32 -33.5l-8 5q20 38 38 58t35 20q15 0 36.5 -7.5t43.5 -17t41 -17t29 -7.5zM264 0h-214v10l78 12q11 2 15 6t5 11l122 572l3 13l-89 16l2 10 h214v-10l-78 -12q-10 -1 -14 -5.5t-6 -11.5l-122 -572l-3 -13l89 -16z" />
<glyph unicode="&#x129;" horiz-adv-x="246" d="M303 637q10 8 23 22t24 27l8 -6q-11 -22 -26.5 -44.5t-35.5 -22.5q-14 0 -36 9.5t-42 19.5t-28 10q-10 -8 -23 -21.5t-24 -27.5l-8 6q11 22 26.5 44.5t35.5 22.5q15 0 36.5 -9.5t41.5 -19t28 -10.5zM130 105q9 44 22 96t26 103t21 91q5 22 7.5 39.5t2.5 30.5q0 15 -8 15 q-10 0 -27 -16.5t-37 -42t-39 -52.5l-6 4q13 29 33 60.5t43 54t44 22.5q11 0 19 -9t8 -33q0 -13 -2.5 -32t-7.5 -41q-8 -41 -21 -93t-26 -103.5t-22 -93.5q-4 -22 -7 -39.5t-3 -30.5q0 -15 8 -15q10 0 27 16.5t37.5 42t38.5 52.5l6 -4q-13 -28 -33 -60t-43 -54.5t-44 -22.5 q-10 0 -18.5 9t-8.5 33q0 14 3 32.5t7 40.5z" />
<glyph unicode="&#x12a;" horiz-adv-x="312" d="M206 788l6 24h234l-6 -24h-234zM264 0h-214v10l78 12q11 2 15 6t5 11l122 572l3 13l-89 16l2 10h214v-10l-78 -12q-10 -1 -14 -5.5t-6 -11.5l-122 -572l-3 -13l89 -16z" />
<glyph unicode="&#x12b;" horiz-adv-x="246" d="M156 638l6 24h174l-6 -24h-174zM130 105q9 44 22 96t26 103t21 91q5 22 7.5 39.5t2.5 30.5q0 15 -8 15q-10 0 -27 -16.5t-37 -42t-39 -52.5l-6 4q13 29 33 60.5t43 54t44 22.5q11 0 19 -9t8 -33q0 -13 -2.5 -32t-7.5 -41q-8 -41 -21 -93t-26 -103.5t-22 -93.5 q-4 -22 -7 -39.5t-3 -30.5q0 -15 8 -15q10 0 27 16.5t37.5 42t38.5 52.5l6 -4q-13 -28 -33 -60t-43 -54.5t-44 -22.5q-10 0 -18.5 9t-8.5 33q0 14 3 32.5t7 40.5z" />
<glyph unicode="&#x12c;" horiz-adv-x="312" d="M410 850l4 2l10 -4q-17 -47 -48.5 -73.5t-70.5 -26.5q-40 0 -61 26.5t-18 74.5l14 3q2 -37 20.5 -58t49.5 -21q32 0 58 20.5t42 56.5zM264 0h-214v10l78 12q11 2 15 6t5 11l122 572l3 13l-89 16l2 10h214v-10l-78 -12q-10 -1 -14 -5.5t-6 -11.5l-122 -572l-3 -13l89 -16z " />
<glyph unicode="&#x12d;" horiz-adv-x="246" d="M320 700l4 2l10 -4q-10 -47 -36 -73.5t-61 -26.5q-31 0 -47.5 20.5t-16.5 51.5q0 14 3 29l14 3q-1 -4 -1 -8.5v-8.5q0 -26 12.5 -44t38.5 -18q28 0 49 20.5t31 56.5zM130 105q9 44 22 96t26 103t21 91q5 22 7.5 39.5t2.5 30.5q0 15 -8 15q-10 0 -27 -16.5t-37 -42 t-39 -52.5l-6 4q13 29 33 60.5t43 54t44 22.5q11 0 19 -9t8 -33q0 -13 -2.5 -32t-7.5 -41q-8 -41 -21 -93t-26 -103.5t-22 -93.5q-4 -22 -7 -39.5t-3 -30.5q0 -15 8 -15q10 0 27 16.5t37.5 42t38.5 52.5l6 -4q-13 -28 -33 -60t-43 -54.5t-44 -22.5q-10 0 -18.5 9t-8.5 33 q0 14 3 32.5t7 40.5z" />
<glyph unicode="&#x12e;" horiz-adv-x="312" d="M295 -77q-21 -41 -45 -69t-54 -28q-40 0 -40 44q0 37 25 73.5t60 56.5h-191v10l78 12q11 2 15 6t5 11l122 572l3 13l-89 16l2 10h214v-10l-78 -12q-10 -1 -14 -5.5t-6 -11.5l-122 -572l-3 -13l89 -16l-2 -10q-20 -12 -38 -33.5t-29 -45t-11 -42.5q0 -23 19 -23 q16 0 36 18t48 53z" />
<glyph unicode="&#x12f;" horiz-adv-x="246" d="M282 660q0 -16 -11 -30.5t-29 -14.5q-26 0 -26 26q0 17 12.5 30.5t28.5 13.5q25 0 25 -25zM215 -77q-21 -41 -45 -69t-54 -28q-18 0 -29 12t-11 32q0 21 15 42.5t35 42.5t35 38q-7 -3 -14 -3q-10 0 -18.5 9t-8.5 33q0 14 3 32.5t7 40.5q9 44 22 96t26 103t21 91 q5 22 7.5 39.5t2.5 30.5q0 15 -8 15q-10 0 -27 -16.5t-37 -42t-39 -52.5l-6 4q13 29 33 60.5t43 54t44 22.5q11 0 19 -9t8 -33q0 -13 -2.5 -32t-7.5 -41q-8 -41 -21 -93t-26 -103.5t-22 -93.5q-4 -22 -7 -39.5t-3 -30.5q0 -15 8 -15q10 0 27 16.5t37.5 42t38.5 52.5l6 -4 q-10 -22 -24.5 -46.5t-30.5 -44.5q-41 -57 -73.5 -93t-32.5 -64q0 -23 20 -23q28 0 83 71z" />
<glyph unicode="&#x130;" horiz-adv-x="312" d="M359 810q0 -16 -11 -30.5t-29 -14.5q-26 0 -26 26q0 17 12.5 30.5t28.5 13.5q25 0 25 -25zM264 0h-214v10l78 12q11 2 15 6t5 11l122 572l3 13l-89 16l2 10h214v-10l-78 -12q-10 -1 -14 -5.5t-6 -11.5l-122 -572l-3 -13l89 -16z" />
<glyph unicode="&#x131;" horiz-adv-x="246" d="M130 105q9 44 22 96t26 103t21 91q5 22 7.5 39.5t2.5 30.5q0 15 -8 15q-10 0 -27 -16.5t-37 -42t-39 -52.5l-6 4q13 29 33 60.5t43 54t44 22.5q11 0 19 -9t8 -33q0 -13 -2.5 -32t-7.5 -41q-8 -41 -21 -93t-26 -103.5t-22 -93.5q-4 -22 -7 -39.5t-3 -30.5q0 -15 8 -15 q10 0 27 16.5t37.5 42t38.5 52.5l6 -4q-13 -28 -33 -60t-43 -54.5t-44 -22.5q-10 0 -18.5 9t-8.5 33q0 14 3 32.5t7 40.5z" />
<glyph unicode="&#x132;" horiz-adv-x="624" d="M264 0h-214v10l78 12q11 2 15 6t5 11l122 572l3 13l-89 16l2 10h214v-10l-78 -12q-10 -1 -14 -5.5t-6 -11.5l-122 -572l-3 -13l89 -16zM508 111q-12 -57 -31.5 -96t-52 -69t-83.5 -61l-7 11q40 31 67.5 59.5t46 67.5t30.5 99l104 489l3 13l-89 16l2 10h214v-10l-78 -12 q-10 -1 -14 -5.5t-6 -11.5z" />
<glyph unicode="&#x133;" horiz-adv-x="468" d="M282 660q0 -16 -11 -30.5t-29 -14.5q-26 0 -26 26q0 17 12.5 30.5t28.5 13.5q25 0 25 -25zM535 660q0 -16 -11 -30.5t-29 -14.5q-26 0 -26 26q0 17 12.5 30.5t28.5 13.5q25 0 25 -25zM130 105q9 44 22 96t26 103t21 91q5 22 7.5 39.5t2.5 30.5q0 15 -8 15 q-10 0 -27 -16.5t-37 -42t-39 -52.5l-6 4q13 29 33 60.5t43 54t44 22.5q11 0 19 -9t8 -33q0 -13 -2.5 -32t-7.5 -41q-8 -41 -21 -93t-26 -103.5t-22 -93.5q-4 -22 -7 -39.5t-3 -30.5q0 -15 8 -15q10 0 27 16.5t37.5 42t38.5 52.5l6 -4q-13 -28 -33 -60t-43 -54.5t-44 -22.5 q-10 0 -18.5 9t-8.5 33q0 14 3 32.5t7 40.5zM395 -6q-19 -92 -58 -140.5t-92 -48.5q-36 0 -59 17t-23 39q0 15 12 21q14 -19 33 -34.5t44 -15.5q48 0 71.5 37t41.5 124l85 402q5 22 7.5 39.5t2.5 30.5q0 15 -8 15q-10 0 -27 -16.5t-37 -42t-39 -52.5l-6 4q13 29 33 60.5 t43 54t44 22.5q11 0 19 -9t8 -33q0 -13 -2.5 -32t-7.5 -41z" />
<glyph unicode="&#x134;" horiz-adv-x="312" d="M429 737l-9 -6q-17 24 -39.5 52.5t-44.5 55.5q-16 -15 -38 -34t-45.5 -38.5t-41.5 -34.5l-6 7q21 20 46 45.5t46 48.5t31 35l5 3h18q15 -24 36 -60t42 -74zM196 111q-12 -57 -31.5 -96t-52 -69t-83.5 -61l-7 11q40 31 67.5 59.5t46 67.5t30.5 99l104 489l3 13l-89 16 l2 10h214v-10l-78 -12q-10 -1 -14 -5.5t-6 -11.5z" />
<glyph unicode="&#x135;" horiz-adv-x="222" d="M335 586l-9 -6q-14 24 -30.5 52t-33.5 54q-21 -22 -51.5 -53t-53.5 -52l-6 7q18 20 38.5 45.5t38.5 48.5t26 35l5 3h18q11 -24 26.5 -60t31.5 -74zM149 -6q-19 -92 -58 -140.5t-92 -48.5q-36 0 -59 17t-23 39q0 15 12 21q14 -19 33 -34.5t44 -15.5q48 0 71.5 37t41.5 124 l85 402q5 22 7.5 39.5t2.5 30.5q0 15 -8 15q-10 0 -27 -16.5t-37 -42t-39 -52.5l-6 4q13 29 33 60.5t43 54t44 22.5q11 0 19 -9t8 -33q0 -13 -2.5 -32t-7.5 -41z" />
<glyph unicode="&#x136;" horiz-adv-x="635" d="M264 0h-214v10l78 12q11 2 15 6t5 11l121 572l3 13l-89 16l2 10h214v-10l-78 -12q-10 -1 -14 -5.5t-6 -11.5l-56 -267h148l227 282l-93 14l2 10h204v-8l-58 -11q-24 -4 -43 -27l-216 -267l108 -276q8 -21 19 -29t32 -13l47 -11l-1 -8h-50q-33 0 -50.5 13.5t-28.5 40.5 l-103 267h-149l-60 -282l-3 -13l89 -16zM389 -130q0 -27 -22 -69t-55 -78l-5 5q17 26 28 51.5t16 50.5h-1q-12 0 -18 7.5t-6 17.5q0 17 12 30t26 13q25 0 25 -28z" />
<glyph unicode="&#x137;" horiz-adv-x="444" d="M125 -3q-2 -1 -13 -4t-13 -3q-5 0 -4 6l23 109l100 470l20 96l-85 8v5q31 3 57.5 6t58.5 5l4 -4l-25 -116q-20 -94 -35 -161.5t-28 -123.5t-27 -115q37 101 80.5 176.5t89 117t88.5 41.5q32 0 48 -20t16 -51q0 -50 -31.5 -93t-80 -76t-98.5 -53q37 -110 59.5 -154.5 t42.5 -44.5q13 0 30.5 17t37 43t37.5 53l6 -4q-13 -28 -32 -60t-41 -54.5t-45 -22.5q-31 0 -59 54.5t-66 173.5l1 4q57 23 104 55t75 72t28 86q0 21 -10.5 34t-31.5 13q-36 0 -82.5 -48.5t-93 -135.5t-84.5 -203v0zM240 -130q0 -27 -22 -69t-55 -78l-5 5q17 26 28 51.5 t16 50.5h-1q-12 0 -18 7.5t-6 17.5q0 17 12 30t26 13q25 0 25 -28z" />
<glyph unicode="&#x138;" horiz-adv-x="485" d="M136 -3q-2 -1 -13 -4t-13 -3q-5 0 -4 6l23 109l62 290q5 22 7.5 39.5t2.5 30.5q0 15 -8 15q-10 0 -27 -16.5t-37 -42t-39 -52.5l-6 4q13 29 33 60.5t43 54t44 22.5q11 0 19 -9t8 -33q0 -13 -2.5 -32t-7.5 -41l-30 -141h97q52 117 110 186.5t112 69.5q17 0 27 -9t10 -21 q0 -7 -3.5 -13.5t-8.5 -11.5q-7 8 -17 14.5t-22 6.5q-37 0 -87 -59t-99 -166l8 -25q38 -115 61.5 -161.5t43.5 -46.5q13 0 30.5 17t36.5 43t38 53l6 -4q-13 -28 -32 -60t-41 -54.5t-45 -22.5q-32 0 -60.5 58.5t-69.5 183.5h-100l-27 -127z" />
<glyph unicode="&#x139;" horiz-adv-x="506" d="M411 855q0 -11 -19 -28.5t-46.5 -36t-54.5 -34.5t-44 -25l-6 8q46 35 87.5 70t64.5 61q18 0 18 -15zM461 0h-411v10l78 12q11 2 15 6t5 11l122 572l3 13l-89 16l2 10h214v-10l-78 -12q-10 -1 -14 -5.5t-6 -11.5l-122 -572l-3 -16h117h70.5t70.5 2l52 151h8 q-1 -23 -6 -50.5t-12 -62.5q-4 -19 -7.5 -32.5t-8.5 -30.5z" />
<glyph unicode="&#x13a;" horiz-adv-x="234" d="M372 890q0 -11 -19 -28.5t-46.5 -36t-54.5 -34.5t-44 -25l-6 8q46 35 87.5 70t64.5 61q18 0 18 -15zM118 105l100 470l20 96l-85 8v5q31 3 57.5 6t58.5 5l4 -4l-25 -116l-100 -470q-4 -22 -7 -39.5t-3 -30.5q0 -15 8 -15q10 0 27 16.5t37.5 42t38.5 52.5l6 -4 q-13 -28 -33 -60t-43 -54.5t-44 -22.5q-10 0 -18.5 9t-8.5 33q0 14 3 32.5t7 40.5z" />
<glyph unicode="&#x13b;" horiz-adv-x="506" d="M461 0h-411v10l78 12q11 2 15 6t5 11l122 572l3 13l-89 16l2 10h214v-10l-78 -12q-10 -1 -14 -5.5t-6 -11.5l-122 -572l-3 -16h117h70.5t70.5 2l52 151h8q-1 -23 -6 -50.5t-12 -62.5q-4 -19 -7.5 -32.5t-8.5 -30.5zM307 -130q0 -27 -22 -69t-55 -78l-5 5q17 26 28 51.5 t16 50.5h-1q-12 0 -18 7.5t-6 17.5q0 17 12 30t26 13q25 0 25 -28z" />
<glyph unicode="&#x13c;" horiz-adv-x="234" d="M118 105l100 470l20 96l-85 8v5q31 3 57.5 6t58.5 5l4 -4l-25 -116l-100 -470q-4 -22 -7 -39.5t-3 -30.5q0 -15 8 -15q10 0 27 16.5t37.5 42t38.5 52.5l6 -4q-13 -28 -33 -60t-43 -54.5t-44 -22.5q-10 0 -18.5 9t-8.5 33q0 14 3 32.5t7 40.5zM128 -130q0 -27 -22 -69 t-55 -78l-5 5q17 26 28 51.5t16 50.5h-1q-12 0 -18 7.5t-6 17.5q0 17 12 30t26 13q25 0 25 -28z" />
<glyph unicode="&#x13d;" horiz-adv-x="506" d="M551 632q0 -27 -22 -69t-55 -78l-5 5q17 26 28 51.5t16 50.5h-1q-12 0 -18 7.5t-6 17.5q0 17 12 30t26 13q25 0 25 -28zM461 0h-411v10l78 12q11 2 15 6t5 11l122 572l3 13l-89 16l2 10h214v-10l-78 -12q-10 -1 -14 -5.5t-6 -11.5l-122 -572l-3 -16h117h70.5t70.5 2 l52 151h8q-1 -23 -6 -50.5t-12 -62.5q-4 -19 -7.5 -32.5t-8.5 -30.5z" />
<glyph unicode="&#x13e;" horiz-adv-x="278" d="M118 105l100 470l20 96l-85 8v5q31 3 57.5 6t58.5 5l4 -4l-25 -116l-100 -470q-4 -22 -7 -39.5t-3 -30.5q0 -15 8 -15q10 0 27 16.5t37.5 42t38.5 52.5l6 -4q-13 -28 -33 -60t-43 -54.5t-44 -22.5q-10 0 -18.5 9t-8.5 33q0 14 3 32.5t7 40.5zM398 667q0 -27 -22 -69 t-55 -78l-5 5q17 26 28 51.5t16 50.5h-1q-12 0 -18 7.5t-6 17.5q0 17 12 30t26 13q25 0 25 -28z" />
<glyph unicode="&#x13f;" horiz-adv-x="506" d="M461 0h-411v10l78 12q11 2 15 6t5 11l122 572l3 13l-89 16l2 10h214v-10l-78 -12q-10 -1 -14 -5.5t-6 -11.5l-122 -572l-3 -16h117h70.5t70.5 2l52 151h8q-1 -23 -6 -50.5t-12 -62.5q-4 -19 -7.5 -32.5t-8.5 -30.5zM511 366q-12 0 -18 7.5t-6 17.5q0 17 12 30t27 13 q24 0 24 -23q0 -18 -11.5 -31.5t-27.5 -13.5z" />
<glyph unicode="&#x140;" horiz-adv-x="305" d="M118 105l100 470l20 96l-85 8v5q31 3 57.5 6t58.5 5l4 -4l-25 -116l-100 -470q-4 -22 -7 -39.5t-3 -30.5q0 -15 8 -15q10 0 27 16.5t37.5 42t38.5 52.5l6 -4q-13 -28 -33 -60t-43 -54.5t-44 -22.5q-10 0 -18.5 9t-8.5 33q0 14 3 32.5t7 40.5zM373 363q0 -16 -9.5 -30.5 t-26.5 -14.5q-23 0 -23 26q0 17 11 30.5t26 13.5q22 0 22 -25z" />
<glyph unicode="&#x141;" horiz-adv-x="506" d="M461 0h-411v10l78 12q11 2 15 6t5 11l57 267l-103 -54l-7 20l116 61l59 278l3 13l-89 16l2 10h214v-10l-78 -12q-10 -1 -14 -5.5t-6 -11.5l-55 -259l101 54l9 -20l-116 -61l-61 -286l-3 -16h117h70.5t70.5 2l52 151h8q-1 -23 -6 -50.5t-12 -62.5q-4 -19 -7.5 -32.5 t-8.5 -30.5z" />
<glyph unicode="&#x142;" horiz-adv-x="234" d="M118 105l48 225l-104 -55l-7 20l117 62l46 218l20 96l-85 8v5q31 3 57.5 6t58.5 5l4 -4l-25 -116l-43 -200l103 54l9 -20l-117 -62l-52 -242q-4 -22 -7 -39.5t-3 -30.5q0 -15 8 -15q10 0 27 16.5t37.5 42t38.5 52.5l6 -4q-13 -28 -33 -60t-43 -54.5t-44 -22.5 q-10 0 -18.5 9t-8.5 33q0 14 3 32.5t7 40.5z" />
<glyph unicode="&#x143;" horiz-adv-x="696" d="M602 855q0 -11 -19 -28.5t-46.5 -36t-54.5 -34.5t-44 -25l-6 8q46 35 87.5 70t64.5 61q18 0 18 -15zM258 0h-206v10l77 12q16 2 19 17l125 587l-88 16l2 8h128l223 -610l122 571l3 13l-89 16l2 10h206v-10l-77 -12q-16 -2 -19 -17l-130 -611h-37l-223 612l-122 -573 l-3 -13l89 -16z" />
<glyph unicode="&#x144;" horiz-adv-x="477" d="M447 705q0 -11 -19 -28.5t-46.5 -36t-54.5 -34.5t-44 -25l-6 8q46 35 87.5 70t64.5 61q18 0 18 -15zM137 -3q-2 -1 -13 -4t-13 -3q-5 0 -4 6l23 109l6 28l37 174q14 67 20.5 102t6.5 51q0 20 -11 20q-12 0 -29 -16.5t-35 -42t-35 -52.5l-6 4q12 29 32 60.5t43.5 54 t44.5 22.5q11 0 19 -8t8 -30t-8 -64.5t-20.5 -97.5t-27.5 -116q38 95 79.5 166.5t82.5 110.5t77 39q28 0 39.5 -16.5t11.5 -42.5q0 -27 -8.5 -69.5t-20.5 -91.5t-24.5 -97t-20.5 -88q-4 -22 -7 -39.5t-3 -30.5q0 -15 8 -15q10 0 27 16.5t37.5 42t38.5 52.5l6 -4 q-13 -28 -33 -60t-43 -54.5t-44 -22.5q-10 0 -18.5 9t-8.5 33q0 14 3 32.5t7 40.5q8 41 20.5 89.5t24.5 96.5t20.5 89t8.5 66q0 16 -6 26t-22 10q-31 0 -74 -47.5t-88.5 -132t-84.5 -197.5z" />
<glyph unicode="&#x145;" horiz-adv-x="696" d="M258 0h-206v10l77 12q16 2 19 17l125 587l-88 16l2 8h128l223 -610l122 571l3 13l-89 16l2 10h206v-10l-77 -12q-16 -2 -19 -17l-130 -611h-37l-223 612l-122 -573l-3 -13l89 -16zM380 -130q0 -27 -22 -69t-55 -78l-5 5q17 26 28 51.5t16 50.5h-1q-12 0 -18 7.5t-6 17.5 q0 17 12 30t26 13q25 0 25 -28z" />
<glyph unicode="&#x146;" horiz-adv-x="477" d="M137 -3q-2 -1 -13 -4t-13 -3q-5 0 -4 6l23 109l6 28l37 174q14 67 20.5 102t6.5 51q0 20 -11 20q-12 0 -29 -16.5t-35 -42t-35 -52.5l-6 4q12 29 32 60.5t43.5 54t44.5 22.5q11 0 19 -8t8 -30t-8 -64.5t-20.5 -97.5t-27.5 -116q38 95 79.5 166.5t82.5 110.5t77 39 q28 0 39.5 -16.5t11.5 -42.5q0 -27 -8.5 -69.5t-20.5 -91.5t-24.5 -97t-20.5 -88q-4 -22 -7 -39.5t-3 -30.5q0 -15 8 -15q10 0 27 16.5t37.5 42t38.5 52.5l6 -4q-13 -28 -33 -60t-43 -54.5t-44 -22.5q-10 0 -18.5 9t-8.5 33q0 14 3 32.5t7 40.5q8 41 20.5 89.5t24.5 96.5 t20.5 89t8.5 66q0 16 -6 26t-22 10q-31 0 -74 -47.5t-88.5 -132t-84.5 -197.5zM253 -130q0 -27 -22 -69t-55 -78l-5 5q17 26 28 51.5t16 50.5h-1q-12 0 -18 7.5t-6 17.5q0 17 12 30t26 13q25 0 25 -28z" />
<glyph unicode="&#x147;" horiz-adv-x="696" d="M513 733l-5 -3h-18q-15 24 -36 60.5t-42 73.5l9 6q17 -24 39.5 -52.5t44.5 -55.5q16 15 38 34t45.5 38.5t41.5 34.5l6 -7q-21 -20 -46 -45.5t-46 -48t-31 -35.5zM258 0h-206v10l77 12q16 2 19 17l125 587l-88 16l2 8h128l223 -610l122 571l3 13l-89 16l2 10h206v-10 l-77 -12q-16 -2 -19 -17l-130 -611h-37l-223 612l-122 -573l-3 -13l89 -16z" />
<glyph unicode="&#x148;" horiz-adv-x="477" d="M359 583l-5 -3h-18q-15 24 -36 60.5t-42 73.5l9 6q17 -24 39.5 -52.5t44.5 -55.5q16 15 38 34t45.5 38.5t41.5 34.5l6 -7q-21 -20 -46 -45.5t-46 -48t-31 -35.5zM137 -3q-2 -1 -13 -4t-13 -3q-5 0 -4 6l23 109l6 28l37 174q14 67 20.5 102t6.5 51q0 20 -11 20 q-12 0 -29 -16.5t-35 -42t-35 -52.5l-6 4q12 29 32 60.5t43.5 54t44.5 22.5q11 0 19 -8t8 -30t-8 -64.5t-20.5 -97.5t-27.5 -116q38 95 79.5 166.5t82.5 110.5t77 39q28 0 39.5 -16.5t11.5 -42.5q0 -27 -8.5 -69.5t-20.5 -91.5t-24.5 -97t-20.5 -88q-4 -22 -7 -39.5 t-3 -30.5q0 -15 8 -15q10 0 27 16.5t37.5 42t38.5 52.5l6 -4q-13 -28 -33 -60t-43 -54.5t-44 -22.5q-10 0 -18.5 9t-8.5 33q0 14 3 32.5t7 40.5q8 41 20.5 89.5t24.5 96.5t20.5 89t8.5 66q0 16 -6 26t-22 10q-31 0 -74 -47.5t-88.5 -132t-84.5 -197.5z" />
<glyph unicode="&#x14a;" horiz-adv-x="696" d="M258 0h-206v10l77 12q16 2 19 17l125 587l-88 16l2 8h128l223 -611l1 3l121 569l3 13l-89 16l2 10h206v-10l-77 -12q-16 -2 -19 -17l-123 -580q-11 -57 -30 -96t-50.5 -69t-80.5 -61l-7 11q33 25 57 48.5t42 52t30 68.5l-228 627l-122 -573l-3 -13l89 -16z" />
<glyph unicode="&#x14b;" horiz-adv-x="455" d="M142 -3q-2 -1 -13 -4t-13 -3q-5 0 -4 6l23 109l6 28l37 174q14 67 20.5 102t6.5 51q0 20 -11 20q-12 0 -29 -16.5t-35 -42t-35 -52.5l-6 4q12 29 32 60.5t43.5 54t44.5 22.5q11 0 19 -8t8 -30t-8 -64.5t-20.5 -97.5t-27.5 -116q38 95 79.5 166.5t82.5 110.5t77 39 q28 0 39.5 -16.5t11.5 -42.5q0 -20 -6.5 -59t-16.5 -90t-22.5 -106t-24 -107.5t-20.5 -94.5q-19 -92 -58 -140.5t-92 -48.5q-36 0 -59 17t-23 39q0 15 12 21q14 -19 33 -34.5t44 -15.5q48 0 71.5 37t41.5 124q9 43 20.5 96.5t24 108.5t22.5 105t16.5 87.5t6.5 55.5 q0 16 -6 26t-22 10q-31 0 -74 -47.5t-88.5 -132t-84.5 -197.5z" />
<glyph unicode="&#x14c;" d="M330 788l6 24h234l-6 -24h-234zM581 428q0 -80 -21.5 -158t-60.5 -141.5t-92.5 -101t-117.5 -37.5q-85 0 -129 62t-44 168q0 81 22 159.5t62 141.5t94.5 101t118.5 38q84 0 126 -64t42 -168zM149 229q0 -103 39 -159.5t103 -56.5q57 0 104 37t81 98t53 133.5t19 144.5 q0 93 -35 152t-104 59q-45 0 -84.5 -24.5t-71.5 -66t-55.5 -94.5t-36 -110.5t-12.5 -112.5z" />
<glyph unicode="&#x14d;" horiz-adv-x="396" d="M222 638l6 24h234l-6 -24h-234zM408 335q0 -68 -16.5 -130t-45 -110.5t-65 -76.5t-76.5 -28q-52 0 -81.5 49.5t-29.5 125.5q0 68 17 130t47 110.5t67.5 76.5t77.5 28q53 0 79 -47.5t26 -127.5zM126 169q0 -72 21.5 -113.5t60.5 -41.5q36 0 66.5 28t53.5 74.5t35.5 103.5 t12.5 116q0 64 -18 107t-60 43q-36 0 -67 -28t-55 -75t-37 -102.5t-13 -111.5z" />
<glyph unicode="&#x14e;" d="M534 850l4 2l10 -4q-17 -47 -48.5 -73.5t-70.5 -26.5q-40 0 -61 26.5t-18 74.5l14 3q2 -37 20.5 -58t49.5 -21q32 0 58 20.5t42 56.5zM581 428q0 -80 -21.5 -158t-60.5 -141.5t-92.5 -101t-117.5 -37.5q-85 0 -129 62t-44 168q0 81 22 159.5t62 141.5t94.5 101t118.5 38 q84 0 126 -64t42 -168zM149 229q0 -103 39 -159.5t103 -56.5q57 0 104 37t81 98t53 133.5t19 144.5q0 93 -35 152t-104 59q-45 0 -84.5 -24.5t-71.5 -66t-55.5 -94.5t-36 -110.5t-12.5 -112.5z" />
<glyph unicode="&#x14f;" horiz-adv-x="396" d="M434 700l4 2l10 -4q-17 -47 -48.5 -73.5t-70.5 -26.5q-40 0 -61 26.5t-18 74.5l14 3q2 -37 20.5 -58t49.5 -21q32 0 58 20.5t42 56.5zM408 335q0 -68 -16.5 -130t-45 -110.5t-65 -76.5t-76.5 -28q-52 0 -81.5 49.5t-29.5 125.5q0 68 17 130t47 110.5t67.5 76.5t77.5 28 q53 0 79 -47.5t26 -127.5zM126 169q0 -72 21.5 -113.5t60.5 -41.5q36 0 66.5 28t53.5 74.5t35.5 103.5t12.5 116q0 64 -18 107t-60 43q-36 0 -67 -28t-55 -75t-37 -102.5t-13 -111.5z" />
<glyph unicode="&#x150;" d="M460 856q0 -10 -17.5 -27.5t-43 -36.5t-51 -35.5t-40.5 -25.5l-6 8q43 35 81.5 70t60.5 61q16 0 16 -14zM598 856q0 -10 -17.5 -27.5t-43 -36.5t-51 -35.5t-40.5 -25.5l-6 8q43 35 81.5 70t60.5 61q16 0 16 -14zM581 428q0 -80 -21.5 -158t-60.5 -141.5t-92.5 -101 t-117.5 -37.5q-85 0 -129 62t-44 168q0 81 22 159.5t62 141.5t94.5 101t118.5 38q84 0 126 -64t42 -168zM149 229q0 -103 39 -159.5t103 -56.5q57 0 104 37t81 98t53 133.5t19 144.5q0 93 -35 152t-104 59q-45 0 -84.5 -24.5t-71.5 -66t-55.5 -94.5t-36 -110.5t-12.5 -112.5 z" />
<glyph unicode="&#x151;" horiz-adv-x="396" d="M361 706q0 -10 -17.5 -27.5t-43 -36.5t-51 -35.5t-40.5 -25.5l-6 8q43 35 81.5 70t60.5 61q16 0 16 -14zM499 706q0 -10 -17.5 -27.5t-43 -36.5t-51 -35.5t-40.5 -25.5l-6 8q43 35 81.5 70t60.5 61q16 0 16 -14zM408 335q0 -68 -16.5 -130t-45 -110.5t-65 -76.5 t-76.5 -28q-52 0 -81.5 49.5t-29.5 125.5q0 68 17 130t47 110.5t67.5 76.5t77.5 28q53 0 79 -47.5t26 -127.5zM126 169q0 -72 21.5 -113.5t60.5 -41.5q36 0 66.5 28t53.5 74.5t35.5 103.5t12.5 116q0 64 -18 107t-60 43q-36 0 -67 -28t-55 -75t-37 -102.5t-13 -111.5z" />
<glyph unicode="&#x152;" horiz-adv-x="784" d="M738 0h-328q-21 -5 -43.5 -7.5t-45.5 -2.5q-101 0 -154 65t-53 175q0 79 25.5 155.5t73 138.5t114 99t148.5 37q47 0 78 -10h313q-2 -24 -8.5 -56.5t-14.5 -64t-16 -54.5h-7l11 150q-35 2 -70 2h-70h-117l-60 -285l216 4l-6 -30l-215 5l-63 -298h123h72.5t71.5 2l53 150 h7q-1 -14 -3 -32t-6 -38q-5 -29 -12 -57.5t-14 -47.5zM147 239q0 -107 48.5 -166.5t128.5 -59.5q79 0 93 24l125 588q-31 12 -75 12q-73 0 -132 -36.5t-101 -95.5t-64.5 -129t-22.5 -137z" />
<glyph unicode="&#x153;" horiz-adv-x="585" d="M602 139q-14 -35 -38 -69.5t-55 -57t-66 -22.5q-42 0 -66.5 38t-27.5 105q-27 -64 -68.5 -103.5t-87.5 -39.5q-51 0 -80 49.5t-29 125.5q0 68 17 130t46.5 110.5t66.5 76.5t77 28q48 0 72.5 -44.5t26.5 -118.5q29 69 73 116t95 47q35 0 53 -22t18 -55q0 -50 -21.5 -89.5 t-57 -67.5t-79.5 -43.5t-89 -18.5q-5 -34 -5 -65q0 -61 18.5 -98t53.5 -37t75.5 38t71.5 91zM552 490q-27 0 -53 -22t-48.5 -59t-39.5 -83t-26 -94q67 9 114.5 37.5t72.5 71t25 92.5q0 23 -10.5 40t-34.5 17zM116 169q0 -72 21.5 -113.5t60.5 -41.5q36 0 66.5 28t53.5 74.5 t35.5 103.5t12.5 116q0 64 -18 107t-60 43q-36 0 -67 -28t-55 -75t-37 -102.5t-13 -111.5z" />
<glyph unicode="&#x154;" horiz-adv-x="606" d="M577 855q0 -11 -19 -28.5t-46.5 -36t-54.5 -34.5t-44 -25l-6 8q46 35 87.5 70t64.5 61q18 0 18 -15zM385 627h-80l-3 -16l-65 -303h86q71 0 121.5 26t77.5 69t27 95q0 67 -46.5 98t-117.5 31zM264 0h-214v10l78 12q11 2 15 6t5 11l122 572l3 13l-89 16l3 10h203 q85 0 138 -37.5t53 -114.5q0 -54 -25.5 -96t-65.5 -69t-86 -38h-1l94 -237q8 -20 18.5 -27t29.5 -11l48 -10l-1 -10h-52q-34 0 -49.5 12.5t-26.5 40.5l-91 235q-13 -2 -26.5 -2.5t-27.5 -0.5h-87l-52 -246l-3 -13l89 -16z" />
<glyph unicode="&#x155;" horiz-adv-x="348" d="M417 705q0 -11 -19 -28.5t-46.5 -36t-54.5 -34.5t-44 -25l-6 8q46 35 87.5 70t64.5 61q18 0 18 -15zM137 -3q-2 -1 -13 -4t-13 -3q-5 0 -4 6l23 109l6 28l37 174q14 67 20.5 102t6.5 51q0 20 -11 20q-12 0 -29 -16.5t-35 -42t-35 -52.5l-6 4q12 29 32 60.5t43.5 54 t44.5 22.5q11 0 19 -8t8 -30q0 -21 -7 -60.5t-19 -91.5t-26 -110q34 91 71.5 158.5t75.5 104.5t74 37q17 0 27 -9t10 -21q0 -7 -3.5 -13.5t-8.5 -11.5q-7 8 -17 14.5t-22 6.5q-30 0 -69.5 -46.5t-80 -130t-76.5 -194.5z" />
<glyph unicode="&#x156;" horiz-adv-x="606" d="M385 627h-80l-3 -16l-65 -303h86q71 0 121.5 26t77.5 69t27 95q0 67 -46.5 98t-117.5 31zM378 -130q0 -27 -22 -69t-55 -78l-5 5q17 26 28 51.5t16 50.5h-1q-12 0 -18 7.5t-6 17.5q0 17 12 30t26 13q25 0 25 -28zM264 0h-214v10l78 12q11 2 15 6t5 11l122 572l3 13 l-89 16l3 10h203q85 0 138 -37.5t53 -114.5q0 -54 -25.5 -96t-65.5 -69t-86 -38h-1l94 -237q8 -20 18.5 -27t29.5 -11l48 -10l-1 -10h-52q-34 0 -49.5 12.5t-26.5 40.5l-91 235q-13 -2 -26.5 -2.5t-27.5 -0.5h-87l-52 -246l-3 -13l89 -16z" />
<glyph unicode="&#x157;" horiz-adv-x="348" d="M137 -3q-2 -1 -13 -4t-13 -3q-5 0 -4 6l23 109l6 28l37 174q14 67 20.5 102t6.5 51q0 20 -11 20q-12 0 -29 -16.5t-35 -42t-35 -52.5l-6 4q12 29 32 60.5t43.5 54t44.5 22.5q11 0 19 -8t8 -30q0 -21 -7 -60.5t-19 -91.5t-26 -110q34 91 71.5 158.5t75.5 104.5t74 37 q17 0 27 -9t10 -21q0 -7 -3.5 -13.5t-8.5 -11.5q-7 8 -17 14.5t-22 6.5q-30 0 -69.5 -46.5t-80 -130t-76.5 -194.5zM126 -130q0 -27 -22 -69t-55 -78l-5 5q17 26 28 51.5t16 50.5h-1q-12 0 -18 7.5t-6 17.5q0 17 12 30t26 13q25 0 25 -28z" />
<glyph unicode="&#x158;" horiz-adv-x="606" d="M488 733l-5 -3h-18q-15 24 -36 60.5t-42 73.5l9 6q17 -24 39.5 -52.5t44.5 -55.5q16 15 38 34t45.5 38.5t41.5 34.5l6 -7q-21 -20 -46 -45.5t-46 -48t-31 -35.5zM385 627h-80l-3 -16l-65 -303h86q71 0 121.5 26t77.5 69t27 95q0 67 -46.5 98t-117.5 31zM264 0h-214v10 l78 12q11 2 15 6t5 11l122 572l3 13l-89 16l3 10h203q85 0 138 -37.5t53 -114.5q0 -54 -25.5 -96t-65.5 -69t-86 -38h-1l94 -237q8 -20 18.5 -27t29.5 -11l48 -10l-1 -10h-52q-34 0 -49.5 12.5t-26.5 40.5l-91 235q-13 -2 -26.5 -2.5t-27.5 -0.5h-87l-52 -246l-3 -13l89 -16 z" />
<glyph unicode="&#x159;" horiz-adv-x="348" d="M329 583l-5 -3h-18q-15 24 -36 60.5t-42 73.5l9 6q17 -24 39.5 -52.5t44.5 -55.5q16 15 38 34t45.5 38.5t41.5 34.5l6 -7q-21 -20 -46 -45.5t-46 -48t-31 -35.5zM137 -3q-2 -1 -13 -4t-13 -3q-5 0 -4 6l23 109l6 28l37 174q14 67 20.5 102t6.5 51q0 20 -11 20 q-12 0 -29 -16.5t-35 -42t-35 -52.5l-6 4q12 29 32 60.5t43.5 54t44.5 22.5q11 0 19 -8t8 -30q0 -21 -7 -60.5t-19 -91.5t-26 -110q34 91 71.5 158.5t75.5 104.5t74 37q17 0 27 -9t10 -21q0 -7 -3.5 -13.5t-8.5 -11.5q-7 8 -17 14.5t-22 6.5q-30 0 -69.5 -46.5t-80 -130 t-76.5 -194.5z" />
<glyph unicode="&#x15a;" horiz-adv-x="463" d="M523 855q0 -11 -19 -28.5t-46.5 -36t-54.5 -34.5t-44 -25l-6 8q46 35 87.5 70t64.5 61q18 0 18 -15zM184 492q0 51 27.5 89t74 58.5t102.5 20.5q41 0 76 -9t50 -25q8 -10 8 -19q0 -13 -6 -40t-13.5 -54t-13.5 -40h-8l10 141q-38 24 -108 24q-47 0 -85 -17.5t-59.5 -49 t-21.5 -72.5q0 -36 16 -63.5t41 -50.5t53.5 -45t53.5 -47t41 -56.5t16 -73.5q0 -77 -56 -125t-148 -48q-48 0 -86.5 12.5t-53.5 29.5q-10 12 -10 22q0 14 5.5 40.5t13.5 53.5t13 42h8l-10 -143q15 -14 47.5 -24.5t73.5 -10.5q76 0 123 40t47 108q0 40 -16 69t-41 52.5 t-53.5 45t-53.5 44.5t-41 52.5t-16 68.5z" />
<glyph unicode="&#x15b;" horiz-adv-x="336" d="M383 705q0 -11 -19 -28.5t-46.5 -36t-54.5 -34.5t-44 -25l-6 8q46 35 87.5 70t64.5 61q18 0 18 -15zM322 119q0 -55 -39 -92t-103 -37q-49 0 -80.5 27t-31.5 66q0 29 12.5 51.5t34.5 40.5l6 -3q-11 -22 -17 -40t-6 -38q0 -38 25 -60t63 -22q44 0 74.5 27t30.5 77 q0 33 -16 59.5t-39 49.5t-46 47t-39 52t-16 64q0 35 17 62.5t46 43.5t64 16q44 0 74 -24t30 -67q0 -25 -10.5 -47.5t-26.5 -42.5l-7 3q5 17 9.5 37t4.5 36q0 40 -21 61.5t-56 21.5q-39 0 -66 -26.5t-27 -70.5q0 -33 16 -60t39 -50.5t46 -47.5t39 -51.5t16 -62.5z" />
<glyph unicode="&#x15c;" horiz-adv-x="463" d="M539 736l-9 -6q-17 24 -39.5 52.5t-44.5 55.5q-16 -15 -38 -34t-45.5 -38.5t-41.5 -34.5l-6 7q21 20 46 45.5t46 48.5t31 35l5 3h18q15 -24 36 -60t42 -74zM184 492q0 51 27.5 89t74 58.5t102.5 20.5q41 0 76 -9t50 -25q8 -10 8 -19q0 -13 -6 -40t-13.5 -54t-13.5 -40h-8 l10 141q-38 24 -108 24q-47 0 -85 -17.5t-59.5 -49t-21.5 -72.5q0 -36 16 -63.5t41 -50.5t53.5 -45t53.5 -47t41 -56.5t16 -73.5q0 -77 -56 -125t-148 -48q-48 0 -86.5 12.5t-53.5 29.5q-10 12 -10 22q0 14 5.5 40.5t13.5 53.5t13 42h8l-10 -143q15 -14 47.5 -24.5 t73.5 -10.5q76 0 123 40t47 108q0 40 -16 69t-41 52.5t-53.5 45t-53.5 44.5t-41 52.5t-16 68.5z" />
<glyph unicode="&#x15d;" horiz-adv-x="336" d="M400 586l-9 -6q-17 24 -39.5 52.5t-44.5 55.5q-16 -15 -38 -34t-45.5 -38.5t-41.5 -34.5l-6 7q21 20 46 45.5t46 48.5t31 35l5 3h18q15 -24 36 -60t42 -74zM322 119q0 -55 -39 -92t-103 -37q-49 0 -80.5 27t-31.5 66q0 29 12.5 51.5t34.5 40.5l6 -3q-11 -22 -17 -40 t-6 -38q0 -38 25 -60t63 -22q44 0 74.5 27t30.5 77q0 33 -16 59.5t-39 49.5t-46 47t-39 52t-16 64q0 35 17 62.5t46 43.5t64 16q44 0 74 -24t30 -67q0 -25 -10.5 -47.5t-26.5 -42.5l-7 3q5 17 9.5 37t4.5 36q0 40 -21 61.5t-56 21.5q-39 0 -66 -26.5t-27 -70.5q0 -33 16 -60 t39 -50.5t46 -47.5t39 -51.5t16 -62.5z" />
<glyph unicode="&#x15e;" horiz-adv-x="463" d="M198 -71l-2 5l19 57q-42 2 -75 13.5t-46 27.5q-10 12 -10 22q0 14 5.5 40.5t13.5 53.5t13 42h8l-10 -143q15 -14 47.5 -24.5t73.5 -10.5q76 0 123 40t47 108q0 40 -16 69t-41 52.5t-53.5 45t-53.5 44.5t-41 52.5t-16 68.5q0 51 27.5 89t74 58.5t102.5 20.5q41 0 76 -9 t50 -25q8 -10 8 -19q0 -13 -6 -40t-13.5 -54t-13.5 -40h-8l10 141q-38 24 -108 24q-47 0 -85 -17.5t-59.5 -49t-21.5 -72.5q0 -36 16 -63.5t41 -50.5t53.5 -45t53.5 -47t41 -56.5t16 -73.5q0 -52 -25 -90.5t-70 -60.5t-104 -22l-14 -42q61 -7 61 -48q0 -22 -20.5 -38.5 t-49.5 -25.5t-56 -10l-2 15q45 6 70.5 20t25.5 35q0 14 -12.5 23t-43.5 10z" />
<glyph unicode="&#x15f;" horiz-adv-x="336" d="M150 -71l-2 5l19 57q-44 3 -71.5 29.5t-27.5 62.5q0 29 12.5 51.5t34.5 40.5l6 -3q-11 -22 -17 -40t-6 -38q0 -38 25 -60t63 -22q44 0 74.5 27t30.5 77q0 33 -16 59.5t-39 49.5t-46 47t-39 52t-16 64q0 35 17 62.5t46 43.5t64 16q44 0 74 -24t30 -67q0 -25 -10.5 -47.5 t-26.5 -42.5l-7 3q5 17 9.5 37t4.5 36q0 40 -21 61.5t-56 21.5q-39 0 -66 -26.5t-27 -70.5q0 -33 16 -60t39 -50.5t46 -47.5t39 -51.5t16 -62.5q0 -53 -36 -89t-95 -40l-14 -42q61 -7 61 -48q0 -22 -20.5 -38.5t-49.5 -25.5t-56 -10l-2 15q45 6 70.5 20t25.5 35 q0 14 -12.5 23t-43.5 10z" />
<glyph unicode="&#x160;" horiz-adv-x="463" d="M434 733l-5 -3h-18q-15 24 -36 60.5t-42 73.5l9 6q17 -24 39.5 -52.5t44.5 -55.5q16 15 38 34t45.5 38.5t41.5 34.5l6 -7q-21 -20 -46 -45.5t-46 -48t-31 -35.5zM184 492q0 51 27.5 89t74 58.5t102.5 20.5q41 0 76 -9t50 -25q8 -10 8 -19q0 -13 -6 -40t-13.5 -54 t-13.5 -40h-8l10 141q-38 24 -108 24q-47 0 -85 -17.5t-59.5 -49t-21.5 -72.5q0 -36 16 -63.5t41 -50.5t53.5 -45t53.5 -47t41 -56.5t16 -73.5q0 -77 -56 -125t-148 -48q-48 0 -86.5 12.5t-53.5 29.5q-10 12 -10 22q0 14 5.5 40.5t13.5 53.5t13 42h8l-10 -143 q15 -14 47.5 -24.5t73.5 -10.5q76 0 123 40t47 108q0 40 -16 69t-41 52.5t-53.5 45t-53.5 44.5t-41 52.5t-16 68.5z" />
<glyph unicode="&#x161;" horiz-adv-x="336" d="M295 583l-5 -3h-18q-15 24 -36 60.5t-42 73.5l9 6q17 -24 39.5 -52.5t44.5 -55.5q16 15 38 34t45.5 38.5t41.5 34.5l6 -7q-21 -20 -46 -45.5t-46 -48t-31 -35.5zM322 119q0 -55 -39 -92t-103 -37q-49 0 -80.5 27t-31.5 66q0 29 12.5 51.5t34.5 40.5l6 -3q-11 -22 -17 -40 t-6 -38q0 -38 25 -60t63 -22q44 0 74.5 27t30.5 77q0 33 -16 59.5t-39 49.5t-46 47t-39 52t-16 64q0 35 17 62.5t46 43.5t64 16q44 0 74 -24t30 -67q0 -25 -10.5 -47.5t-26.5 -42.5l-7 3q5 17 9.5 37t4.5 36q0 40 -21 61.5t-56 21.5q-39 0 -66 -26.5t-27 -70.5q0 -33 16 -60 t39 -50.5t46 -47.5t39 -51.5t16 -62.5z" />
<glyph unicode="&#x162;" horiz-adv-x="513" d="M223 -71l-2 5l22 66h-93v10l78 12q11 2 15 6t5 11l125 588h-93h-50t-50 -1l-54 -153h-7q2 12 3.5 27t4.5 30q5 32 13 64t15 56h478q-2 -24 -8.5 -57t-15 -65.5t-16.5 -54.5h-7l12 153q-25 1 -50 1h-50h-93l-125 -588l-3 -13l89 -16l-2 -10h-97l-17 -52q61 -7 61 -48 q0 -22 -20.5 -38.5t-49.5 -25.5t-56 -10l-2 15q45 6 70.5 20t25.5 35q0 14 -12.5 23t-43.5 10z" />
<glyph unicode="&#x163;" horiz-adv-x="290" d="M128 -71l-2 5l19 58q-14 3 -24.5 15.5t-10.5 37.5q0 14 3.5 33t7.5 41l71 331h-86l1 7l90 15l54 147l6 -1l-31 -146h146l-4 -22h-147l-70 -331q-4 -23 -7.5 -40.5t-3.5 -30.5q0 -11 6 -19.5t20 -8.5q17 0 39 16.5t46.5 42t47.5 52.5l6 -4q-15 -27 -36 -57t-47 -52.5 t-53 -26.5l-14 -43q61 -7 61 -48q0 -22 -20.5 -38.5t-49.5 -25.5t-56 -10l-2 15q45 6 70.5 20t25.5 35q0 14 -12.5 23t-43.5 10z" />
<glyph unicode="&#x164;" horiz-adv-x="513" d="M425 733l-5 -3h-18q-15 24 -36 60.5t-42 73.5l9 6q17 -24 39.5 -52.5t44.5 -55.5q16 15 38 34t45.5 38.5t41.5 34.5l6 -7q-21 -20 -46 -45.5t-46 -48t-31 -35.5zM364 0h-214v10l78 12q11 2 15 6t5 11l125 588h-93h-50t-50 -1l-54 -153h-7q2 12 3.5 27t4.5 30q5 32 13 64 t15 56h478q-2 -24 -8.5 -57t-15 -65.5t-16.5 -54.5h-7l12 153q-25 1 -50 1h-50h-93l-125 -588l-3 -13l89 -16z" />
<glyph unicode="&#x165;" horiz-adv-x="290" d="M403 647q0 -27 -22 -69t-55 -78l-5 5q17 26 28 51.5t16 50.5h-1q-12 0 -18 7.5t-6 17.5q0 17 12 30t26 13q25 0 25 -28zM305 127q-15 -28 -38.5 -60t-51 -54.5t-56.5 -22.5q-18 0 -33.5 12t-15.5 43q0 14 3.5 33t7.5 41l71 331h-86l1 7l90 15l54 147l6 -1l-31 -146h146 l-4 -22h-147l-70 -331q-4 -23 -7.5 -40.5t-3.5 -30.5q0 -11 6 -19.5t20 -8.5q17 0 39 16.5t46.5 42t47.5 52.5z" />
<glyph unicode="&#x166;" horiz-adv-x="513" d="M364 0h-214v10l78 12q11 2 15 6t5 11l52 244h-164l4 23h165l68 321h-93h-50t-50 -1l-54 -153h-7q2 12 3.5 27t4.5 30q5 32 13 64t15 56h478q-2 -24 -8.5 -57t-15 -65.5t-16.5 -54.5h-7l12 153q-25 1 -50 1h-50h-93l-68 -321h163l-4 -23h-164l-52 -244l-3 -13l89 -16z" />
<glyph unicode="&#x167;" horiz-adv-x="290" d="M305 127q-15 -28 -38.5 -60t-51 -54.5t-56.5 -22.5q-18 0 -33.5 12t-15.5 43q0 14 3.5 33t7.5 41l42 197h-85l4 22h86l24 112h-86l1 7l90 15l54 147l6 -1l-31 -146h146l-4 -22h-147l-23 -112h146l-3 -22h-148l-42 -197q-4 -23 -7.5 -40.5t-3.5 -30.5q0 -11 6 -19.5 t20 -8.5q17 0 39 16.5t46.5 42t47.5 52.5z" />
<glyph unicode="&#x168;" horiz-adv-x="656" d="M566 787q11 9 28 26t32 33l8 -5q-20 -37 -38 -57.5t-35 -20.5q-15 0 -36 7.5t-43.5 17t-41.5 17t-29 7.5q-11 -9 -28 -25.5t-32 -33.5l-8 5q20 38 38 58t35 20q15 0 36.5 -7.5t43.5 -17t41 -17t29 -7.5zM577 221q-25 -117 -92 -174t-151 -57q-73 0 -120.5 43t-47.5 129 q0 16 2 33t6 35l81 381l3 13l-89 16l2 10h214v-10l-78 -12q-10 -1 -14 -5.5t-6 -11.5l-82 -385q-4 -16 -6 -31t-2 -29q0 -74 40.5 -112t103.5 -38q47 0 89.5 23.5t74.5 69.5t46 114l83 390l2 11l-89 16l2 10h209v-10l-95 -16l-3 -11z" />
<glyph unicode="&#x169;" horiz-adv-x="484" d="M452 637q11 9 28 26t32 33l8 -5q-20 -37 -38 -57.5t-35 -20.5q-15 0 -36 7.5t-43.5 17t-41.5 17t-29 7.5q-11 -9 -28 -25.5t-32 -33.5l-8 5q20 38 38 58t35 20q15 0 36.5 -7.5t43.5 -17t41 -17t29 -7.5zM453 503q2 1 13.5 4t12.5 3q6 0 4 -6l-23 -109l-6 -28l-37 -174 q-14 -67 -20.5 -101.5t-6.5 -51.5q0 -20 11 -20q13 0 29.5 16.5t35 42t34.5 52.5l6 -4q-12 -28 -32 -60t-43.5 -54.5t-44.5 -22.5q-10 0 -18.5 8t-8.5 30t8 64.5t20.5 97.5t27.5 116q-38 -95 -79.5 -166.5t-82.5 -110.5t-77 -39q-28 0 -39.5 16.5t-11.5 42.5q0 27 8.5 69.5 t20.5 91.5t24.5 97t20.5 88q5 22 7.5 39.5t2.5 30.5q0 15 -8 15q-10 0 -27 -16.5t-37 -42t-39 -52.5l-6 4q13 29 33 60.5t43 54t44 22.5q11 0 19 -9t8 -33q0 -13 -2.5 -32t-7.5 -41q-8 -41 -20.5 -89.5t-24.5 -96.5t-20.5 -89t-8.5 -66q0 -16 6 -26t22 -10q31 0 74 47.5 t88.5 132.5t84.5 197z" />
<glyph unicode="&#x16a;" horiz-adv-x="656" d="M377 788l6 24h234l-6 -24h-234zM577 221q-25 -117 -92 -174t-151 -57q-73 0 -120.5 43t-47.5 129q0 16 2 33t6 35l81 381l3 13l-89 16l2 10h214v-10l-78 -12q-10 -1 -14 -5.5t-6 -11.5l-82 -385q-4 -16 -6 -31t-2 -29q0 -74 40.5 -112t103.5 -38q47 0 89.5 23.5 t74.5 69.5t46 114l83 390l2 11l-89 16l2 10h209v-10l-95 -16l-3 -11z" />
<glyph unicode="&#x16b;" horiz-adv-x="484" d="M259 638l6 24h234l-6 -24h-234zM453 503q2 1 13.5 4t12.5 3q6 0 4 -6l-23 -109l-6 -28l-37 -174q-14 -67 -20.5 -101.5t-6.5 -51.5q0 -20 11 -20q13 0 29.5 16.5t35 42t34.5 52.5l6 -4q-12 -28 -32 -60t-43.5 -54.5t-44.5 -22.5q-10 0 -18.5 8t-8.5 30t8 64.5t20.5 97.5 t27.5 116q-38 -95 -79.5 -166.5t-82.5 -110.5t-77 -39q-28 0 -39.5 16.5t-11.5 42.5q0 27 8.5 69.5t20.5 91.5t24.5 97t20.5 88q5 22 7.5 39.5t2.5 30.5q0 15 -8 15q-10 0 -27 -16.5t-37 -42t-39 -52.5l-6 4q13 29 33 60.5t43 54t44 22.5q11 0 19 -9t8 -33q0 -13 -2.5 -32 t-7.5 -41q-8 -41 -20.5 -89.5t-24.5 -96.5t-20.5 -89t-8.5 -66q0 -16 6 -26t22 -10q31 0 74 47.5t88.5 132.5t84.5 197z" />
<glyph unicode="&#x16c;" horiz-adv-x="656" d="M581 850l4 2l10 -4q-17 -47 -48.5 -73.5t-70.5 -26.5q-40 0 -61 26.5t-18 74.5l14 3q2 -37 20.5 -58t49.5 -21q32 0 58 20.5t42 56.5zM577 221q-25 -117 -92 -174t-151 -57q-73 0 -120.5 43t-47.5 129q0 16 2 33t6 35l81 381l3 13l-89 16l2 10h214v-10l-78 -12 q-10 -1 -14 -5.5t-6 -11.5l-82 -385q-4 -16 -6 -31t-2 -29q0 -74 40.5 -112t103.5 -38q47 0 89.5 23.5t74.5 69.5t46 114l83 390l2 11l-89 16l2 10h209v-10l-95 -16l-3 -11z" />
<glyph unicode="&#x16d;" horiz-adv-x="484" d="M471 700l4 2l10 -4q-17 -47 -48.5 -73.5t-70.5 -26.5q-40 0 -61 26.5t-18 74.5l14 3q2 -37 20.5 -58t49.5 -21q32 0 58 20.5t42 56.5zM453 503q2 1 13.5 4t12.5 3q6 0 4 -6l-23 -109l-6 -28l-37 -174q-14 -67 -20.5 -101.5t-6.5 -51.5q0 -20 11 -20q13 0 29.5 16.5t35 42 t34.5 52.5l6 -4q-12 -28 -32 -60t-43.5 -54.5t-44.5 -22.5q-10 0 -18.5 8t-8.5 30t8 64.5t20.5 97.5t27.5 116q-38 -95 -79.5 -166.5t-82.5 -110.5t-77 -39q-28 0 -39.5 16.5t-11.5 42.5q0 27 8.5 69.5t20.5 91.5t24.5 97t20.5 88q5 22 7.5 39.5t2.5 30.5q0 15 -8 15 q-10 0 -27 -16.5t-37 -42t-39 -52.5l-6 4q13 29 33 60.5t43 54t44 22.5q11 0 19 -9t8 -33q0 -13 -2.5 -32t-7.5 -41q-8 -41 -20.5 -89.5t-24.5 -96.5t-20.5 -89t-8.5 -66q0 -16 6 -26t22 -10q31 0 74 47.5t88.5 132.5t84.5 197z" />
<glyph unicode="&#x16e;" horiz-adv-x="656" d="M567 810q0 -32 -25 -54.5t-58 -22.5q-28 0 -43 14t-15 39q0 32 25 54.5t59 22.5q28 0 42.5 -14.5t14.5 -38.5zM455 786q2 -33 34 -33q21 0 35 16.5t14 40.5q-2 33 -33 33q-21 0 -35.5 -16.5t-14.5 -40.5zM577 221q-25 -117 -92 -174t-151 -57q-73 0 -120.5 43t-47.5 129 q0 16 2 33t6 35l81 381l3 13l-89 16l2 10h214v-10l-78 -12q-10 -1 -14 -5.5t-6 -11.5l-82 -385q-4 -16 -6 -31t-2 -29q0 -74 40.5 -112t103.5 -38q47 0 89.5 23.5t74.5 69.5t46 114l83 390l2 11l-89 16l2 10h209v-10l-95 -16l-3 -11z" />
<glyph unicode="&#x16f;" horiz-adv-x="484" d="M449 663q0 -32 -25 -54.5t-58 -22.5q-28 0 -43 14t-15 39q0 32 25 54.5t59 22.5q28 0 42.5 -14.5t14.5 -38.5zM337 639q2 -33 34 -33q21 0 35 16.5t14 40.5q-2 33 -33 33q-21 0 -35.5 -16.5t-14.5 -40.5zM453 503q2 1 13.5 4t12.5 3q6 0 4 -6l-23 -109l-6 -28l-37 -174 q-14 -67 -20.5 -101.5t-6.5 -51.5q0 -20 11 -20q13 0 29.5 16.5t35 42t34.5 52.5l6 -4q-12 -28 -32 -60t-43.5 -54.5t-44.5 -22.5q-10 0 -18.5 8t-8.5 30t8 64.5t20.5 97.5t27.5 116q-38 -95 -79.5 -166.5t-82.5 -110.5t-77 -39q-28 0 -39.5 16.5t-11.5 42.5q0 27 8.5 69.5 t20.5 91.5t24.5 97t20.5 88q5 22 7.5 39.5t2.5 30.5q0 15 -8 15q-10 0 -27 -16.5t-37 -42t-39 -52.5l-6 4q13 29 33 60.5t43 54t44 22.5q11 0 19 -9t8 -33q0 -13 -2.5 -32t-7.5 -41q-8 -41 -20.5 -89.5t-24.5 -96.5t-20.5 -89t-8.5 -66q0 -16 6 -26t22 -10q31 0 74 47.5 t88.5 132.5t84.5 197z" />
<glyph unicode="&#x170;" horiz-adv-x="656" d="M507 856q0 -10 -17.5 -27.5t-43 -36.5t-51 -35.5t-40.5 -25.5l-6 8q43 35 81.5 70t60.5 61q16 0 16 -14zM645 856q0 -10 -17.5 -27.5t-43 -36.5t-51 -35.5t-40.5 -25.5l-6 8q43 35 81.5 70t60.5 61q16 0 16 -14zM577 221q-25 -117 -92 -174t-151 -57q-73 0 -120.5 43 t-47.5 129q0 16 2 33t6 35l81 381l3 13l-89 16l2 10h214v-10l-78 -12q-10 -1 -14 -5.5t-6 -11.5l-82 -385q-4 -16 -6 -31t-2 -29q0 -74 40.5 -112t103.5 -38q47 0 89.5 23.5t74.5 69.5t46 114l83 390l2 11l-89 16l2 10h209v-10l-95 -16l-3 -11z" />
<glyph unicode="&#x171;" horiz-adv-x="484" d="M398 706q0 -10 -17.5 -27.5t-43 -36.5t-51 -35.5t-40.5 -25.5l-6 8q43 35 81.5 70t60.5 61q16 0 16 -14zM536 706q0 -10 -17.5 -27.5t-43 -36.5t-51 -35.5t-40.5 -25.5l-6 8q43 35 81.5 70t60.5 61q16 0 16 -14zM453 503q2 1 13.5 4t12.5 3q6 0 4 -6l-23 -109l-6 -28 l-37 -174q-14 -67 -20.5 -101.5t-6.5 -51.5q0 -20 11 -20q13 0 29.5 16.5t35 42t34.5 52.5l6 -4q-12 -28 -32 -60t-43.5 -54.5t-44.5 -22.5q-10 0 -18.5 8t-8.5 30t8 64.5t20.5 97.5t27.5 116q-38 -95 -79.5 -166.5t-82.5 -110.5t-77 -39q-28 0 -39.5 16.5t-11.5 42.5 q0 27 8.5 69.5t20.5 91.5t24.5 97t20.5 88q5 22 7.5 39.5t2.5 30.5q0 15 -8 15q-10 0 -27 -16.5t-37 -42t-39 -52.5l-6 4q13 29 33 60.5t43 54t44 22.5q11 0 19 -9t8 -33q0 -13 -2.5 -32t-7.5 -41q-8 -41 -20.5 -89.5t-24.5 -96.5t-20.5 -89t-8.5 -66q0 -16 6 -26t22 -10 q31 0 74 47.5t88.5 132.5t84.5 197z" />
<glyph unicode="&#x172;" horiz-adv-x="656" d="M413 -77q-21 -41 -45 -69t-54 -28q-19 0 -29.5 12.5t-10.5 34.5q0 35 31.5 65t73.5 56q-22 -4 -45 -4q-73 0 -120.5 43t-47.5 129q0 16 2 33t6 35l81 381l3 13l-89 16l2 10h214v-10l-78 -12q-10 -1 -14 -5.5t-6 -11.5l-82 -385q-4 -16 -6 -31t-2 -29q0 -74 40.5 -112 t103.5 -38q47 0 89.5 23.5t74.5 69.5t46 114l83 390l2 11l-89 16l2 10h209v-10l-95 -16l-3 -11l-83 -392q-17 -78 -53.5 -129.5t-84.5 -76.5q-58 -35 -96.5 -69t-38.5 -66q0 -24 20 -24q17 0 36.5 18t46.5 53z" />
<glyph unicode="&#x173;" horiz-adv-x="484" d="M455 -77q-21 -41 -45 -69t-54 -28q-18 0 -29 11.5t-11 31.5q0 21 14.5 43.5t34.5 43t34 36.5q-7 -2 -13 -2q-10 0 -18.5 8t-8.5 30t8 64.5t20.5 97.5t27.5 116q-38 -95 -79.5 -166.5t-82.5 -110.5t-77 -39q-28 0 -39.5 16.5t-11.5 42.5q0 27 8.5 69.5t20.5 91.5t24.5 97 t20.5 88q5 22 7.5 39.5t2.5 30.5q0 15 -8 15q-10 0 -27 -16.5t-37 -42t-39 -52.5l-6 4q13 29 33 60.5t43 54t44 22.5q11 0 19 -9t8 -33q0 -13 -2.5 -32t-7.5 -41q-8 -41 -20.5 -89.5t-24.5 -96.5t-20.5 -89t-8.5 -66q0 -16 6 -26t22 -10q31 0 74 47.5t88.5 132.5t84.5 197 l23 108q2 1 13.5 4t12.5 3q6 0 4 -6l-23 -109l-6 -28l-37 -174q-14 -67 -20.5 -101.5t-6.5 -51.5q0 -20 11 -20q13 0 29.5 16.5t35 42t34.5 52.5l6 -4q-8 -20 -21 -42t-27 -42q-29 -40 -54.5 -69.5t-41.5 -52t-16 -42.5q0 -23 20 -23q28 0 83 71z" />
<glyph unicode="&#x174;" horiz-adv-x="974" d="M762 736l-9 -6q-17 24 -39.5 52.5t-44.5 55.5q-16 -15 -38 -34t-45.5 -38.5t-41.5 -34.5l-6 7q21 20 46 45.5t46 48.5t31 35l5 3h18q15 -24 36 -60t42 -74zM991 586l-330 -590h-13l-57 463l-260 -463h-13l-83 590q-3 22 -9 31.5t-23 12.5l-53 10l2 10h198v-10l-88 -15 l78 -564l245 441l-10 84q-3 23 -9 32t-23 12l-53 10l2 10h198v-10l-88 -15l70 -563l312 562l-88 16l2 10h198v-10q-13 -2 -26.5 -4.5t-27.5 -5.5q-21 -4 -30.5 -14t-20.5 -30z" />
<glyph unicode="&#x175;" d="M520 586l-9 -6q-17 24 -39.5 52.5t-44.5 55.5q-16 -15 -38 -34t-45.5 -38.5t-41.5 -34.5l-6 7q21 20 46 45.5t46 48.5t31 35l5 3h18q15 -24 36 -60t42 -74zM388 510q16 0 20 -15t4 -44q0 -42 -2.5 -104.5t-7.5 -139t-12 -158.5q37 50 72.5 107t63.5 115.5t45 113t17 98.5 q0 8 -0.5 13.5t-1.5 9.5q6 4 14 4q20 0 20 -33q0 -52 -31 -129.5t-86.5 -167t-130.5 -180.5h-9q8 113 14.5 221t8.5 202q-25 -98 -78.5 -200t-152.5 -223h-9q10 113 17 218.5t7 181.5q0 36 -5.5 58t-22.5 22q-19 0 -43 -33.5t-50 -77.5l-6 4q12 32 29 63.5t38 52.5t43 21 q29 0 38 -29.5t9 -75.5q0 -56 -7 -150.5t-19 -203.5q38 50 74 107t65 116.5t46 117.5t17 111v4q5 3 12 3z" />
<glyph unicode="&#x176;" horiz-adv-x="584" d="M565 736l-9 -6q-17 24 -39.5 52.5t-44.5 55.5q-16 -15 -38 -34t-45.5 -38.5t-41.5 -34.5l-6 7q21 20 46 45.5t46 48.5t31 35l5 3h18q15 -24 36 -60t42 -74zM403 0h-214v10l78 12q11 2 15 6t5 11l22 104q10 48 12 111t-3.5 129t-17 122t-27.5 90.5t-36 34.5 q-15 0 -33.5 -16.5t-36.5 -42t-34 -52.5l-8 4q12 29 31.5 60.5t43 54t46.5 22.5q25 0 46 -36t35 -96.5t19.5 -136t1.5 -155.5q31 80 68 155.5t74 136t70.5 96.5t58.5 36q22 0 34.5 -19.5t19 -49t10.5 -58.5l-9 -4q-13 44 -24.5 72.5t-31.5 28.5q-15 0 -39 -25t-52.5 -67.5 t-58 -94.5t-55.5 -106.5t-45 -104.5t-27 -87l-22 -106l-3 -13l89 -16z" />
<glyph unicode="&#x177;" horiz-adv-x="359" d="M419 586l-9 -6q-17 24 -39.5 52.5t-44.5 55.5q-16 -15 -38 -34t-45.5 -38.5t-41.5 -34.5l-6 7q21 20 46 45.5t46 48.5t31 35l5 3h18q15 -24 36 -60t42 -74zM223 355q0 -43 -6 -99.5t-18.5 -118t-31.5 -118.5q66 61 114.5 139.5t75.5 161t27 155.5q0 11 -0.5 18t-1.5 13 q6 4 14 4q10 0 15 -6.5t5 -26.5q0 -50 -16.5 -112.5t-49 -129.5t-81 -131t-113.5 -117q-19 -51 -43.5 -92.5t-54.5 -65.5t-66 -24q-33 0 -52.5 12t-19.5 28q0 11 5 18.5t12 11.5q9 -20 25.5 -33t35.5 -13q36 0 66 34t53.5 90.5t40 125.5t25 140t8.5 133q0 52 -7.5 90 t-27.5 38q-18 0 -40.5 -33.5t-45.5 -77.5l-6 4q11 32 26.5 63.5t35 52.5t39.5 21q24 0 36.5 -21.5t17 -56.5t4.5 -77z" />
<glyph unicode="&#x178;" horiz-adv-x="584" d="M407 812q0 -18 -12 -33t-29 -15q-22 0 -22 24q0 19 12.5 33.5t28.5 14.5q22 0 22 -24zM585 812q0 -18 -12 -33t-29 -15q-22 0 -22 24q0 19 12.5 33.5t28.5 14.5q22 0 22 -24zM403 0h-214v10l78 12q11 2 15 6t5 11l22 104q10 48 12 111t-3.5 129t-17 122t-27.5 90.5 t-36 34.5q-15 0 -33.5 -16.5t-36.5 -42t-34 -52.5l-8 4q12 29 31.5 60.5t43 54t46.5 22.5q25 0 46 -36t35 -96.5t19.5 -136t1.5 -155.5q31 80 68 155.5t74 136t70.5 96.5t58.5 36q22 0 34.5 -19.5t19 -49t10.5 -58.5l-9 -4q-13 44 -24.5 72.5t-31.5 28.5q-15 0 -39 -25 t-52.5 -67.5t-58 -94.5t-55.5 -106.5t-45 -104.5t-27 -87l-22 -106l-3 -13l89 -16z" />
<glyph unicode="&#x179;" horiz-adv-x="527" d="M502 855q0 -11 -19 -28.5t-46.5 -36t-54.5 -34.5t-44 -25l-6 8q46 35 87.5 70t64.5 61q18 0 18 -15zM487 77q-4 -23 -9 -40.5t-11 -36.5h-406l-1 17l497 611h-327l-57 -163h-8q2 23 5.5 50t11.5 61q5 23 9.5 39.5t10.5 34.5h397l1 -17l-498 -611h337l57 163h8 q-1 -22 -5.5 -48t-11.5 -60z" />
<glyph unicode="&#x17a;" horiz-adv-x="373" d="M409 705q0 -11 -19 -28.5t-46.5 -36t-54.5 -34.5t-44 -25l-6 8q46 35 87.5 70t64.5 61q18 0 18 -15zM147 24q-26 0 -47 -8.5t-44 -25.5l-12 12q57 74 106.5 141t96.5 134t98 142q-41 22 -85 38t-67 16q-24 0 -41.5 -28.5t-40.5 -81.5l-9 4q20 63 36.5 100.5t53.5 37.5 q34 0 79 -21.5t86 -48.5q12 18 25 37l26 38q22 -2 22 -18q0 -8 -8 -19q-35 -48 -76.5 -106.5t-101 -139t-146.5 -195.5q30 18 63 18q19 0 44.5 -7t49 -14t37.5 -7q17 0 37 28t51 82l8 -5q-22 -58 -43.5 -97.5t-48.5 -39.5q-19 0 -44.5 8.5t-52.5 17t-52 8.5z" />
<glyph unicode="&#x17b;" horiz-adv-x="527" d="M450 810q0 -16 -11 -30.5t-29 -14.5q-26 0 -26 26q0 17 12.5 30.5t28.5 13.5q25 0 25 -25zM487 77q-4 -23 -9 -40.5t-11 -36.5h-406l-1 17l497 611h-327l-57 -163h-8q2 23 5.5 50t11.5 61q5 23 9.5 39.5t10.5 34.5h397l1 -17l-498 -611h337l57 163h8q-1 -22 -5.5 -48 t-11.5 -60z" />
<glyph unicode="&#x17c;" horiz-adv-x="373" d="M357 660q0 -16 -11 -30.5t-29 -14.5q-26 0 -26 26q0 17 12.5 30.5t28.5 13.5q25 0 25 -25zM147 24q-26 0 -47 -8.5t-44 -25.5l-12 12q57 74 106.5 141t96.5 134t98 142q-41 22 -85 38t-67 16q-24 0 -41.5 -28.5t-40.5 -81.5l-9 4q20 63 36.5 100.5t53.5 37.5 q34 0 79 -21.5t86 -48.5q12 18 25 37l26 38q22 -2 22 -18q0 -8 -8 -19q-35 -48 -76.5 -106.5t-101 -139t-146.5 -195.5q30 18 63 18q19 0 44.5 -7t49 -14t37.5 -7q17 0 37 28t51 82l8 -5q-22 -58 -43.5 -97.5t-48.5 -39.5q-19 0 -44.5 8.5t-52.5 17t-52 8.5z" />
<glyph unicode="&#x17d;" horiz-adv-x="527" d="M413 733l-5 -3h-18q-15 24 -36 60.5t-42 73.5l9 6q17 -24 39.5 -52.5t44.5 -55.5q16 15 38 34t45.5 38.5t41.5 34.5l6 -7q-21 -20 -46 -45.5t-46 -48t-31 -35.5zM487 77q-4 -23 -9 -40.5t-11 -36.5h-406l-1 17l497 611h-327l-57 -163h-8q2 23 5.5 50t11.5 61 q5 23 9.5 39.5t10.5 34.5h397l1 -17l-498 -611h337l57 163h8q-1 -22 -5.5 -48t-11.5 -60z" />
<glyph unicode="&#x17e;" horiz-adv-x="373" d="M321 583l-5 -3h-18q-15 24 -36 60.5t-42 73.5l9 6q17 -24 39.5 -52.5t44.5 -55.5q16 15 38 34t45.5 38.5t41.5 34.5l6 -7q-21 -20 -46 -45.5t-46 -48t-31 -35.5zM147 24q-26 0 -47 -8.5t-44 -25.5l-12 12q57 74 106.5 141t96.5 134t98 142q-41 22 -85 38t-67 16 q-24 0 -41.5 -28.5t-40.5 -81.5l-9 4q20 63 36.5 100.5t53.5 37.5q34 0 79 -21.5t86 -48.5q12 18 25 37l26 38q22 -2 22 -18q0 -8 -8 -19q-35 -48 -76.5 -106.5t-101 -139t-146.5 -195.5q30 18 63 18q19 0 44.5 -7t49 -14t37.5 -7q17 0 37 28t51 82l8 -5 q-22 -58 -43.5 -97.5t-48.5 -39.5q-19 0 -44.5 8.5t-52.5 17t-52 8.5z" />
<glyph unicode="&#x18f;" horiz-adv-x="548" d="M109 188q0 52 14 114l13 11h389q12 58 12 113q0 98 -35 153.5t-112 55.5q-55 0 -101.5 -27t-74.5 -70t-28 -91q0 -8 2 -14q-5 -4 -15 -4q-19 0 -19 19q0 37 18.5 74.5t51.5 68.5t76.5 50t94.5 19q89 0 132 -62.5t43 -169.5q0 -60 -13.5 -122t-38.5 -118.5t-61 -101 t-81 -70.5t-98 -26q-60 0 -97 25.5t-54.5 70.5t-17.5 102zM138 191q0 -49 15 -89.5t46.5 -64.5t80.5 -24q59 0 107 39.5t82 102.5t51 135l-371 -4q-5 -24 -8 -48t-3 -47z" />
<glyph unicode="&#x192;" horiz-adv-x="434" d="M213 91q-24 -99 -60 -153t-90 -54q-34 0 -54 19t-20 40q0 13 7.5 19.5t17.5 6.5q2 -30 17 -45.5t39 -15.5q41 0 64.5 45t45.5 135l54 226h-121l7 23h120l39 165q23 95 65.5 141.5t96.5 46.5q44 0 70 -27.5t26 -59.5q0 -15 -7.5 -22t-18.5 -8q-5 49 -26 71t-53 22 q-43 0 -73 -42t-48 -119l-40 -168h176l-7 -23h-174z" />
<glyph unicode="&#x19d;" horiz-adv-x="696" d="M173 31q-12 -57 -31 -96t-50 -69t-80 -61l-7 11q40 31 67 59.5t45.5 67.5t31.5 99l124 584l-88 16l2 8h128l223 -610l122 571l3 13l-89 16l2 10h206v-10l-77 -12q-16 -2 -19 -17l-130 -611h-37l-223 611z" />
<glyph unicode="&#x1cd;" horiz-adv-x="685" d="M508 733l-5 -3h-18q-15 24 -36 60.5t-42 73.5l9 6q17 -24 39.5 -52.5t44.5 -55.5q16 15 38 34t45.5 38.5t41.5 34.5l6 -7q-21 -20 -46 -45.5t-46 -48t-31 -35.5zM476 654h13l87 -590q4 -25 10.5 -32.5t27.5 -12.5l45 -9l-2 -10h-204v10l96 15l-29 204l-259 -2l1 5 l-116 -206l90 -16l-2 -10h-204v10l53 10q23 5 33 13.5t23 30.5zM275 254l242 -3l-50 342z" />
<glyph unicode="&#x1ce;" horiz-adv-x="428" d="M347 583l-5 -3h-18q-15 24 -36 60.5t-42 73.5l9 6q17 -24 39.5 -52.5t44.5 -55.5q16 15 38 34t45.5 38.5t41.5 34.5l6 -7q-21 -20 -46 -45.5t-46 -48t-31 -35.5zM78 94q0 54 13.5 111.5t38.5 112t59 98t75.5 69t87.5 25.5q24 0 43.5 -6t32.5 -14l-23 -93l-63 -292 q-4 -22 -7 -39.5t-3 -30.5q0 -15 8 -15q10 0 27 16.5t37.5 42t38.5 52.5l6 -4q-13 -28 -33 -60t-43 -54.5t-44 -22.5q-10 0 -18.5 9t-8.5 33q0 14 3 32.5t7 40.5l45 197q-35 -94 -74.5 -164.5t-77 -109t-67.5 -38.5q-31 0 -45.5 29t-14.5 75zM378 407l14 66q-14 7 -30 10 t-31 3q-34 0 -67 -23.5t-61 -64t-49.5 -91t-33.5 -104.5t-12 -104q0 -36 9 -58.5t28 -22.5q26 0 67 48.5t85.5 136.5t80.5 204z" />
<glyph unicode="&#x1cf;" horiz-adv-x="312" d="M322 733l-5 -3h-18q-15 24 -36 60.5t-42 73.5l9 6q17 -24 39.5 -52.5t44.5 -55.5q16 15 38 34t45.5 38.5t41.5 34.5l6 -7q-21 -20 -46 -45.5t-46 -48t-31 -35.5zM264 0h-214v10l78 12q11 2 15 6t5 11l122 572l3 13l-89 16l2 10h214v-10l-78 -12q-10 -1 -14 -5.5t-6 -11.5 l-122 -572l-3 -13l89 -16z" />
<glyph unicode="&#x1d0;" horiz-adv-x="246" d="M248 583l-5 -3h-18q-11 24 -26.5 60.5t-31.5 73.5l9 6q14 -24 30.5 -52t33.5 -54q21 22 51.5 53t53.5 52l6 -7q-17 -20 -38 -45.5t-38.5 -48t-26.5 -35.5zM130 105q9 44 22 96t26 103t21 91q5 22 7.5 39.5t2.5 30.5q0 15 -8 15q-10 0 -27 -16.5t-37 -42t-39 -52.5l-6 4 q13 29 33 60.5t43 54t44 22.5q11 0 19 -9t8 -33q0 -13 -2.5 -32t-7.5 -41q-8 -41 -21 -93t-26 -103.5t-22 -93.5q-4 -22 -7 -39.5t-3 -30.5q0 -15 8 -15q10 0 27 16.5t37.5 42t38.5 52.5l6 -4q-13 -28 -33 -60t-43 -54.5t-44 -22.5q-10 0 -18.5 9t-8.5 33q0 14 3 32.5 t7 40.5z" />
<glyph unicode="&#x1d1;" d="M446 733l-5 -3h-18q-15 24 -36 60.5t-42 73.5l9 6q17 -24 39.5 -52.5t44.5 -55.5q16 15 38 34t45.5 38.5t41.5 34.5l6 -7q-21 -20 -46 -45.5t-46 -48t-31 -35.5zM581 428q0 -80 -21.5 -158t-60.5 -141.5t-92.5 -101t-117.5 -37.5q-85 0 -129 62t-44 168q0 81 22 159.5 t62 141.5t94.5 101t118.5 38q84 0 126 -64t42 -168zM149 229q0 -103 39 -159.5t103 -56.5q57 0 104 37t81 98t53 133.5t19 144.5q0 93 -35 152t-104 59q-45 0 -84.5 -24.5t-71.5 -66t-55.5 -94.5t-36 -110.5t-12.5 -112.5z" />
<glyph unicode="&#x1d2;" horiz-adv-x="396" d="M337 583l-5 -3h-18q-15 24 -36 60.5t-42 73.5l9 6q17 -24 39.5 -52.5t44.5 -55.5q16 15 38 34t45.5 38.5t41.5 34.5l6 -7q-21 -20 -46 -45.5t-46 -48t-31 -35.5zM408 335q0 -68 -16.5 -130t-45 -110.5t-65 -76.5t-76.5 -28q-52 0 -81.5 49.5t-29.5 125.5q0 68 17 130 t47 110.5t67.5 76.5t77.5 28q53 0 79 -47.5t26 -127.5zM126 169q0 -72 21.5 -113.5t60.5 -41.5q36 0 66.5 28t53.5 74.5t35.5 103.5t12.5 116q0 64 -18 107t-60 43q-36 0 -67 -28t-55 -75t-37 -102.5t-13 -111.5z" />
<glyph unicode="&#x1d3;" horiz-adv-x="656" d="M493 733l-5 -3h-18q-15 24 -36 60.5t-42 73.5l9 6q17 -24 39.5 -52.5t44.5 -55.5q16 15 38 34t45.5 38.5t41.5 34.5l6 -7q-21 -20 -46 -45.5t-46 -48t-31 -35.5zM577 221q-25 -117 -92 -174t-151 -57q-73 0 -120.5 43t-47.5 129q0 16 2 33t6 35l81 381l3 13l-89 16l2 10 h214v-10l-78 -12q-10 -1 -14 -5.5t-6 -11.5l-82 -385q-4 -16 -6 -31t-2 -29q0 -74 40.5 -112t103.5 -38q47 0 89.5 23.5t74.5 69.5t46 114l83 390l2 11l-89 16l2 10h209v-10l-95 -16l-3 -11z" />
<glyph unicode="&#x1d4;" horiz-adv-x="484" d="M374 583l-5 -3h-18q-15 24 -36 60.5t-42 73.5l9 6q17 -24 39.5 -52.5t44.5 -55.5q16 15 38 34t45.5 38.5t41.5 34.5l6 -7q-21 -20 -46 -45.5t-46 -48t-31 -35.5zM453 503q2 1 13.5 4t12.5 3q6 0 4 -6l-23 -109l-6 -28l-37 -174q-14 -67 -20.5 -101.5t-6.5 -51.5 q0 -20 11 -20q13 0 29.5 16.5t35 42t34.5 52.5l6 -4q-12 -28 -32 -60t-43.5 -54.5t-44.5 -22.5q-10 0 -18.5 8t-8.5 30t8 64.5t20.5 97.5t27.5 116q-38 -95 -79.5 -166.5t-82.5 -110.5t-77 -39q-28 0 -39.5 16.5t-11.5 42.5q0 27 8.5 69.5t20.5 91.5t24.5 97t20.5 88 q5 22 7.5 39.5t2.5 30.5q0 15 -8 15q-10 0 -27 -16.5t-37 -42t-39 -52.5l-6 4q13 29 33 60.5t43 54t44 22.5q11 0 19 -9t8 -33q0 -13 -2.5 -32t-7.5 -41q-8 -41 -20.5 -89.5t-24.5 -96.5t-20.5 -89t-8.5 -66q0 -16 6 -26t22 -10q31 0 74 47.5t88.5 132.5t84.5 197z" />
<glyph unicode="&#x1d5;" horiz-adv-x="656" d="M420 989l6 24h234l-6 -24h-234zM440 812q0 -18 -12 -33t-29 -15q-22 0 -22 24q0 19 12.5 33.5t28.5 14.5q22 0 22 -24zM618 812q0 -18 -12 -33t-29 -15q-22 0 -22 24q0 19 12.5 33.5t28.5 14.5q22 0 22 -24zM577 221q-25 -117 -92 -174t-151 -57q-73 0 -120.5 43 t-47.5 129q0 16 2 33t6 35l81 381l3 13l-89 16l2 10h214v-10l-78 -12q-10 -1 -14 -5.5t-6 -11.5l-82 -385q-4 -16 -6 -31t-2 -29q0 -74 40.5 -112t103.5 -38q47 0 89.5 23.5t74.5 69.5t46 114l83 390l2 11l-89 16l2 10h209v-10l-95 -16l-3 -11z" />
<glyph unicode="&#x1d6;" horiz-adv-x="484" d="M299 823l6 24h234l-6 -24h-234zM320 662q0 -18 -12 -33t-29 -15q-22 0 -22 24q0 19 12.5 33.5t28.5 14.5q22 0 22 -24zM498 662q0 -18 -12 -33t-29 -15q-22 0 -22 24q0 19 12.5 33.5t28.5 14.5q22 0 22 -24zM453 503q2 1 13.5 4t12.5 3q6 0 4 -6l-23 -109l-6 -28 l-37 -174q-14 -67 -20.5 -101.5t-6.5 -51.5q0 -20 11 -20q13 0 29.5 16.5t35 42t34.5 52.5l6 -4q-12 -28 -32 -60t-43.5 -54.5t-44.5 -22.5q-10 0 -18.5 8t-8.5 30t8 64.5t20.5 97.5t27.5 116q-38 -95 -79.5 -166.5t-82.5 -110.5t-77 -39q-28 0 -39.5 16.5t-11.5 42.5 q0 27 8.5 69.5t20.5 91.5t24.5 97t20.5 88q5 22 7.5 39.5t2.5 30.5q0 15 -8 15q-10 0 -27 -16.5t-37 -42t-39 -52.5l-6 4q13 29 33 60.5t43 54t44 22.5q11 0 19 -9t8 -33q0 -13 -2.5 -32t-7.5 -41q-8 -41 -20.5 -89.5t-24.5 -96.5t-20.5 -89t-8.5 -66q0 -16 6 -26t22 -10 q31 0 74 47.5t88.5 132.5t84.5 197z" />
<glyph unicode="&#x1d7;" horiz-adv-x="656" d="M650 1056q0 -11 -19 -28.5t-46.5 -36t-54.5 -34.5t-44 -25l-6 8q46 35 87.5 70t64.5 61q18 0 18 -15zM440 812q0 -18 -12 -33t-29 -15q-22 0 -22 24q0 19 12.5 33.5t28.5 14.5q22 0 22 -24zM618 812q0 -18 -12 -33t-29 -15q-22 0 -22 24q0 19 12.5 33.5t28.5 14.5 q22 0 22 -24zM577 221q-25 -117 -92 -174t-151 -57q-73 0 -120.5 43t-47.5 129q0 16 2 33t6 35l81 381l3 13l-89 16l2 10h214v-10l-78 -12q-10 -1 -14 -5.5t-6 -11.5l-82 -385q-4 -16 -6 -31t-2 -29q0 -74 40.5 -112t103.5 -38q47 0 89.5 23.5t74.5 69.5t46 114l83 390l2 11 l-89 16l2 10h209v-10l-95 -16l-3 -11z" />
<glyph unicode="&#x1d8;" horiz-adv-x="484" d="M502 890q0 -11 -19 -28.5t-46.5 -36t-54.5 -34.5t-44 -25l-6 8q46 35 87.5 70t64.5 61q18 0 18 -15zM320 662q0 -18 -12 -33t-29 -15q-22 0 -22 24q0 19 12.5 33.5t28.5 14.5q22 0 22 -24zM498 662q0 -18 -12 -33t-29 -15q-22 0 -22 24q0 19 12.5 33.5t28.5 14.5 q22 0 22 -24zM453 503q2 1 13.5 4t12.5 3q6 0 4 -6l-23 -109l-6 -28l-37 -174q-14 -67 -20.5 -101.5t-6.5 -51.5q0 -20 11 -20q13 0 29.5 16.5t35 42t34.5 52.5l6 -4q-12 -28 -32 -60t-43.5 -54.5t-44.5 -22.5q-10 0 -18.5 8t-8.5 30t8 64.5t20.5 97.5t27.5 116 q-38 -95 -79.5 -166.5t-82.5 -110.5t-77 -39q-28 0 -39.5 16.5t-11.5 42.5q0 27 8.5 69.5t20.5 91.5t24.5 97t20.5 88q5 22 7.5 39.5t2.5 30.5q0 15 -8 15q-10 0 -27 -16.5t-37 -42t-39 -52.5l-6 4q13 29 33 60.5t43 54t44 22.5q11 0 19 -9t8 -33q0 -13 -2.5 -32t-7.5 -41 q-8 -41 -20.5 -89.5t-24.5 -96.5t-20.5 -89t-8.5 -66q0 -16 6 -26t22 -10q31 0 74 47.5t88.5 132.5t84.5 197z" />
<glyph unicode="&#x1d9;" horiz-adv-x="656" d="M534 934l-5 -3h-18q-15 24 -36 60.5t-42 73.5l9 6q17 -24 39.5 -52.5t44.5 -55.5q16 15 38 34t45.5 38.5t41.5 34.5l6 -7q-21 -20 -46 -45.5t-46 -48t-31 -35.5zM440 812q0 -18 -12 -33t-29 -15q-22 0 -22 24q0 19 12.5 33.5t28.5 14.5q22 0 22 -24zM618 812 q0 -18 -12 -33t-29 -15q-22 0 -22 24q0 19 12.5 33.5t28.5 14.5q22 0 22 -24zM577 221q-25 -117 -92 -174t-151 -57q-73 0 -120.5 43t-47.5 129q0 16 2 33t6 35l81 381l3 13l-89 16l2 10h214v-10l-78 -12q-10 -1 -14 -5.5t-6 -11.5l-82 -385q-4 -16 -6 -31t-2 -29 q0 -74 40.5 -112t103.5 -38q47 0 89.5 23.5t74.5 69.5t46 114l83 390l2 11l-89 16l2 10h209v-10l-95 -16l-3 -11z" />
<glyph unicode="&#x1da;" horiz-adv-x="484" d="M414 768l-5 -3h-18q-15 24 -36 60.5t-42 73.5l9 6q17 -24 39.5 -52.5t44.5 -55.5q16 15 38 34t45.5 38.5t41.5 34.5l6 -7q-21 -20 -46 -45.5t-46 -48t-31 -35.5zM320 662q0 -18 -12 -33t-29 -15q-22 0 -22 24q0 19 12.5 33.5t28.5 14.5q22 0 22 -24zM498 662 q0 -18 -12 -33t-29 -15q-22 0 -22 24q0 19 12.5 33.5t28.5 14.5q22 0 22 -24zM453 503q2 1 13.5 4t12.5 3q6 0 4 -6l-23 -109l-6 -28l-37 -174q-14 -67 -20.5 -101.5t-6.5 -51.5q0 -20 11 -20q13 0 29.5 16.5t35 42t34.5 52.5l6 -4q-12 -28 -32 -60t-43.5 -54.5t-44.5 -22.5 q-10 0 -18.5 8t-8.5 30t8 64.5t20.5 97.5t27.5 116q-38 -95 -79.5 -166.5t-82.5 -110.5t-77 -39q-28 0 -39.5 16.5t-11.5 42.5q0 27 8.5 69.5t20.5 91.5t24.5 97t20.5 88q5 22 7.5 39.5t2.5 30.5q0 15 -8 15q-10 0 -27 -16.5t-37 -42t-39 -52.5l-6 4q13 29 33 60.5t43 54 t44 22.5q11 0 19 -9t8 -33q0 -13 -2.5 -32t-7.5 -41q-8 -41 -20.5 -89.5t-24.5 -96.5t-20.5 -89t-8.5 -66q0 -16 6 -26t22 -10q31 0 74 47.5t88.5 132.5t84.5 197z" />
<glyph unicode="&#x1db;" horiz-adv-x="656" d="M593 936l-8 -8q-24 21 -51 45t-45.5 46t-18.5 37q0 18 17 18h3q15 -28 42.5 -64.5t60.5 -73.5zM440 812q0 -18 -12 -33t-29 -15q-22 0 -22 24q0 19 12.5 33.5t28.5 14.5q22 0 22 -24zM618 812q0 -18 -12 -33t-29 -15q-22 0 -22 24q0 19 12.5 33.5t28.5 14.5q22 0 22 -24z M577 221q-25 -117 -92 -174t-151 -57q-73 0 -120.5 43t-47.5 129q0 16 2 33t6 35l81 381l3 13l-89 16l2 10h214v-10l-78 -12q-10 -1 -14 -5.5t-6 -11.5l-82 -385q-4 -16 -6 -31t-2 -29q0 -74 40.5 -112t103.5 -38q47 0 89.5 23.5t74.5 69.5t46 114l83 390l2 11l-89 16l2 10 h209v-10l-95 -16l-3 -11z" />
<glyph unicode="&#x1dc;" horiz-adv-x="484" d="M479 770l-8 -8q-24 21 -51 45t-45.5 46t-18.5 37q0 18 17 18h3q15 -28 42.5 -64.5t60.5 -73.5zM320 662q0 -18 -12 -33t-29 -15q-22 0 -22 24q0 19 12.5 33.5t28.5 14.5q22 0 22 -24zM498 662q0 -18 -12 -33t-29 -15q-22 0 -22 24q0 19 12.5 33.5t28.5 14.5q22 0 22 -24z M453 503q2 1 13.5 4t12.5 3q6 0 4 -6l-23 -109l-6 -28l-37 -174q-14 -67 -20.5 -101.5t-6.5 -51.5q0 -20 11 -20q13 0 29.5 16.5t35 42t34.5 52.5l6 -4q-12 -28 -32 -60t-43.5 -54.5t-44.5 -22.5q-10 0 -18.5 8t-8.5 30t8 64.5t20.5 97.5t27.5 116q-38 -95 -79.5 -166.5 t-82.5 -110.5t-77 -39q-28 0 -39.5 16.5t-11.5 42.5q0 27 8.5 69.5t20.5 91.5t24.5 97t20.5 88q5 22 7.5 39.5t2.5 30.5q0 15 -8 15q-10 0 -27 -16.5t-37 -42t-39 -52.5l-6 4q13 29 33 60.5t43 54t44 22.5q11 0 19 -9t8 -33q0 -13 -2.5 -32t-7.5 -41q-8 -41 -20.5 -89.5 t-24.5 -96.5t-20.5 -89t-8.5 -66q0 -16 6 -26t22 -10q31 0 74 47.5t88.5 132.5t84.5 197z" />
<glyph unicode="&#x1e6;" horiz-adv-x="622" d="M517 733l-5 -3h-18q-15 24 -36 60.5t-42 73.5l9 6q17 -24 39.5 -52.5t44.5 -55.5q16 15 38 34t45.5 38.5t41.5 34.5l6 -7q-21 -20 -46 -45.5t-46 -48t-31 -35.5zM515 22q-28 -16 -64 -24t-76 -8q-73 0 -131 29.5t-91 88t-33 145.5q0 82 26.5 155.5t76 130t118 89 t151.5 32.5q43 0 78 -9t58 -23q-2 -22 -8.5 -54.5t-15 -64.5t-15.5 -53h-8l12 160q-24 10 -51.5 15t-54.5 5q-74 0 -135 -31t-105.5 -84t-69 -120.5t-24.5 -140.5q0 -83 30 -137.5t81 -81.5t114 -27q32 0 60.5 6t47.5 15l47 223l2 12l-91 17l3 8h200l-1 -8l-62 -12 q-16 -4 -19 -17z" />
<glyph unicode="&#x1e7;" horiz-adv-x="331" d="M307 583l-5 -3h-18q-15 24 -36 60.5t-42 73.5l9 6q17 -24 39.5 -52.5t44.5 -55.5q16 15 38 34t45.5 38.5t41.5 34.5l6 -7q-21 -20 -46 -45.5t-46 -48t-31 -35.5zM319 -70q0 -28 -25 -57t-66.5 -48.5t-92.5 -19.5q-70 0 -107.5 27.5t-37.5 68.5q0 60 86 113l5 -5 q-25 -22 -42 -47t-17 -52q0 -37 30.5 -59t87.5 -22q38 0 71.5 12.5t54.5 34.5t21 48q0 21 -15 37t-37.5 29t-45 24.5t-37.5 24.5t-15 29q0 20 27.5 43t68.5 54q-14 -4 -30 -4q-42 0 -69 31.5t-27 91.5t23.5 111.5t64 83t90.5 31.5t96.5 2t77.5 6q3 -6 3 -13q0 -10 -6 -16 t-22 -6q-17 0 -44.5 3t-67.5 8q21 -16 30.5 -42.5t9.5 -59.5q0 -61 -19.5 -106.5t-48 -79.5t-57.5 -58.5t-48.5 -42.5t-19.5 -32q0 -10 15 -21t37.5 -23.5t45 -27t37.5 -32t15 -39.5zM137 290q0 -50 18.5 -79t52.5 -29q31 0 59 27t46.5 74t18.5 107q0 41 -15 68.5t-47 27.5 q-35 0 -65.5 -28t-49 -73t-18.5 -95z" />
<glyph unicode="&#x1ea;" d="M381 -77q-21 -41 -45 -69t-54 -28q-19 0 -29.5 12.5t-10.5 34.5q0 21 15 44t38 43.5t48 37.5q-27 -8 -54 -8q-85 0 -129 62t-44 168q0 81 22 159.5t62 141.5t94.5 101t118.5 38q84 0 126 -64t42 -168q0 -81 -22 -159.5t-61.5 -142.5t-93.5 -100q-34 -23 -64 -49t-49 -51 t-19 -46q0 -24 20 -24q17 0 36.5 18t46.5 53zM149 229q0 -103 39 -159.5t103 -56.5q57 0 104 37t81 98t53 133.5t19 144.5q0 93 -35 152t-104 59q-45 0 -84.5 -24.5t-71.5 -66t-55.5 -94.5t-36 -110.5t-12.5 -112.5z" />
<glyph unicode="&#x1eb;" horiz-adv-x="396" d="M285 -77q-21 -41 -45 -69t-54 -28q-19 0 -29.5 12.5t-10.5 34.5q0 21 16.5 43t41 43.5t47.5 40.5q-23 -10 -46 -10q-52 0 -81.5 49.5t-29.5 125.5q0 68 17 130t47 110.5t67.5 76.5t77.5 28q53 0 79 -47.5t26 -127.5q0 -87 -26.5 -163.5t-68.5 -124.5q-27 -34 -59 -64 t-55 -56t-23 -47q0 -24 20 -24q17 0 36.5 18t46.5 53zM126 169q0 -72 21.5 -113.5t60.5 -41.5q36 0 66.5 28t53.5 74.5t35.5 103.5t12.5 116q0 64 -18 107t-60 43q-36 0 -67 -28t-55 -75t-37 -102.5t-13 -111.5z" />
<glyph unicode="&#x1f4;" horiz-adv-x="622" d="M606 855q0 -11 -19 -28.5t-46.5 -36t-54.5 -34.5t-44 -25l-6 8q46 35 87.5 70t64.5 61q18 0 18 -15zM515 22q-28 -16 -64 -24t-76 -8q-73 0 -131 29.5t-91 88t-33 145.5q0 82 26.5 155.5t76 130t118 89t151.5 32.5q43 0 78 -9t58 -23q-2 -22 -8.5 -54.5t-15 -64.5 t-15.5 -53h-8l12 160q-24 10 -51.5 15t-54.5 5q-74 0 -135 -31t-105.5 -84t-69 -120.5t-24.5 -140.5q0 -83 30 -137.5t81 -81.5t114 -27q32 0 60.5 6t47.5 15l47 223l2 12l-91 17l3 8h200l-1 -8l-62 -12q-16 -4 -19 -17z" />
<glyph unicode="&#x1f5;" horiz-adv-x="331" d="M395 705q0 -11 -19 -28.5t-46.5 -36t-54.5 -34.5t-44 -25l-6 8q46 35 87.5 70t64.5 61q18 0 18 -15zM319 -70q0 -28 -25 -57t-66.5 -48.5t-92.5 -19.5q-70 0 -107.5 27.5t-37.5 68.5q0 60 86 113l5 -5q-25 -22 -42 -47t-17 -52q0 -37 30.5 -59t87.5 -22q38 0 71.5 12.5 t54.5 34.5t21 48q0 21 -15 37t-37.5 29t-45 24.5t-37.5 24.5t-15 29q0 20 27.5 43t68.5 54q-14 -4 -30 -4q-42 0 -69 31.5t-27 91.5t23.5 111.5t64 83t90.5 31.5t96.5 2t77.5 6q3 -6 3 -13q0 -10 -6 -16t-22 -6q-17 0 -44.5 3t-67.5 8q21 -16 30.5 -42.5t9.5 -59.5 q0 -61 -19.5 -106.5t-48 -79.5t-57.5 -58.5t-48.5 -42.5t-19.5 -32q0 -10 15 -21t37.5 -23.5t45 -27t37.5 -32t15 -39.5zM137 290q0 -50 18.5 -79t52.5 -29q31 0 59 27t46.5 74t18.5 107q0 41 -15 68.5t-47 27.5q-35 0 -65.5 -28t-49 -73t-18.5 -95z" />
<glyph unicode="&#x1fa;" horiz-adv-x="685" d="M640 1056q0 -11 -19 -28.5t-46.5 -36t-54.5 -34.5t-44 -25l-6 8q46 35 87.5 70t64.5 61q18 0 18 -15zM582 810q0 -32 -25 -54.5t-58 -22.5q-28 0 -43 14t-15 39q0 32 25 54.5t59 22.5q28 0 42.5 -14.5t14.5 -38.5zM470 786q2 -33 34 -33q21 0 35 16.5t14 40.5 q-2 33 -33 33q-21 0 -35.5 -16.5t-14.5 -40.5zM476 654h13l87 -590q4 -25 10.5 -32.5t27.5 -12.5l45 -9l-2 -10h-204v10l96 15l-29 204l-259 -2l1 5l-116 -206l90 -16l-2 -10h-204v10l53 10q23 5 33 13.5t23 30.5zM275 254l242 -3l-50 342z" />
<glyph unicode="&#x1fb;" horiz-adv-x="428" d="M473 890q0 -11 -19 -28.5t-46.5 -36t-54.5 -34.5t-44 -25l-6 8q46 35 87.5 70t64.5 61q18 0 18 -15zM422 663q0 -32 -25 -54.5t-58 -22.5q-28 0 -43 14t-15 39q0 32 25 54.5t59 22.5q28 0 42.5 -14.5t14.5 -38.5zM310 639q2 -33 34 -33q21 0 35 16.5t14 40.5 q-2 33 -33 33q-21 0 -35.5 -16.5t-14.5 -40.5zM78 94q0 54 13.5 111.5t38.5 112t59 98t75.5 69t87.5 25.5q24 0 43.5 -6t32.5 -14l-23 -93l-63 -292q-4 -22 -7 -39.5t-3 -30.5q0 -15 8 -15q10 0 27 16.5t37.5 42t38.5 52.5l6 -4q-13 -28 -33 -60t-43 -54.5t-44 -22.5 q-10 0 -18.5 9t-8.5 33q0 14 3 32.5t7 40.5l45 197q-35 -94 -74.5 -164.5t-77 -109t-67.5 -38.5q-31 0 -45.5 29t-14.5 75zM378 407l14 66q-14 7 -30 10t-31 3q-34 0 -67 -23.5t-61 -64t-49.5 -91t-33.5 -104.5t-12 -104q0 -36 9 -58.5t28 -22.5q26 0 67 48.5t85.5 136.5 t80.5 204z" />
<glyph unicode="&#x1fc;" horiz-adv-x="834" d="M770 855q0 -11 -19 -28.5t-46.5 -36t-54.5 -34.5t-44 -25l-6 8q46 35 87.5 70t64.5 61q18 0 18 -15zM234 0h-204v10l53 10q23 5 33 13.5t23 30.5l321 561l-81 15l2 10h535q-2 -24 -8.5 -56.5t-14.5 -64t-16 -54.5h-7l11 150q-35 2 -70 2h-70h-117l-62 -293l216 4l-6 -30 l-215 5l-58 -274l-3 -16h123h72.5t71.5 2l53 150h7q-1 -14 -3 -32t-6 -38q-5 -29 -12 -57.5t-14 -47.5h-419v10l78 12q11 2 15 6t5 11l58 273l-218 -2l-161 -284l90 -16zM487 627l-165 -290l208 -3l62 293h-105z" />
<glyph unicode="&#x1fd;" horiz-adv-x="572" d="M521 705q0 -11 -19 -28.5t-46.5 -36t-54.5 -34.5t-44 -25l-6 8q46 35 87.5 70t64.5 61q18 0 18 -15zM590 139q-14 -35 -38 -69.5t-55 -57t-66 -22.5q-46 0 -72 42t-26 115q0 40 7 81t20 80h-1q-35 -96 -75 -167.5t-78 -111t-68 -39.5q-31 0 -45.5 29t-14.5 75 q0 54 13.5 111.5t38.5 112t59 98t75.5 69t87.5 25.5q24 0 43.5 -6t32.5 -14l-21 -83q28 46 64 74.5t75 28.5q35 0 53 -22t18 -55q0 -50 -21.5 -89.5t-57 -67.5t-79.5 -43.5t-89 -18.5q-5 -34 -5 -65q0 -61 18.5 -98t53.5 -37t75.5 38t71.5 91zM540 490q-27 0 -53 -22 t-48.5 -59t-39.5 -83t-26 -94q67 9 114.5 37.5t72.5 71t25 92.5q0 23 -10.5 40t-34.5 17zM108 99q0 -36 9 -58.5t28 -22.5q26 0 67 48.5t85 135.5t80 201l15 70q-14 7 -30 10t-31 3q-34 0 -67 -23.5t-61 -64t-49.5 -91t-33.5 -104.5t-12 -104z" />
<glyph unicode="&#x1fe;" d="M535 855q0 -11 -19 -28.5t-46.5 -36t-54.5 -34.5t-44 -25l-6 8q46 35 87.5 70t64.5 61q18 0 18 -15zM581 428q0 -80 -21.5 -158t-60.5 -141.5t-92.5 -101t-117.5 -37.5q-46 0 -80.5 19.5t-56.5 54.5l-60 -74l-18 16l66 81q-24 55 -24 133q0 81 22 159.5t62 141.5 t94.5 101t118.5 38q45 0 78 -19.5t54 -54.5l60 74l19 -15l-67 -82q24 -55 24 -135zM149 229q0 -64 16 -111l358 441q-17 37 -45.5 57.5t-68.5 20.5q-45 0 -84.5 -24.5t-71.5 -66t-55.5 -94.5t-36 -110.5t-12.5 -112.5zM548 426q0 61 -15 107l-358 -441q38 -79 116 -79 q57 0 104 37t81 98t53 133.5t19 144.5z" />
<glyph unicode="&#x1ff;" horiz-adv-x="396" d="M415 705q0 -11 -19 -28.5t-46.5 -36t-54.5 -34.5t-44 -25l-6 8q46 35 87.5 70t64.5 61q18 0 18 -15zM408 335q0 -68 -16.5 -130t-45 -110.5t-65 -76.5t-76.5 -28q-35 0 -60.5 24t-38.5 64l-62 -66l-16 18l71 76q-5 28 -5 59q0 68 17 130t47 110.5t67.5 76.5t77.5 28 q36 0 59.5 -22.5t34.5 -63.5l60 64l17 -17l-70 -75q4 -28 4 -61zM126 169q0 -17 1 -33l244 261q-6 40 -24 64.5t-49 24.5q-36 0 -67 -28t-55 -75t-37 -102.5t-13 -111.5zM376 336q0 15 -1 29l-244 -260q8 -43 28 -67t49 -24q36 0 66.5 28t53.5 74.5t35.5 103.5t12.5 116z " />
<glyph unicode="&#x218;" horiz-adv-x="463" d="M184 492q0 51 27.5 89t74 58.5t102.5 20.5q41 0 76 -9t50 -25q8 -10 8 -19q0 -13 -6 -40t-13.5 -54t-13.5 -40h-8l10 141q-38 24 -108 24q-47 0 -85 -17.5t-59.5 -49t-21.5 -72.5q0 -36 16 -63.5t41 -50.5t53.5 -45t53.5 -47t41 -56.5t16 -73.5q0 -77 -56 -125t-148 -48 q-48 0 -86.5 12.5t-53.5 29.5q-10 12 -10 22q0 14 5.5 40.5t13.5 53.5t13 42h8l-10 -143q15 -14 47.5 -24.5t73.5 -10.5q76 0 123 40t47 108q0 40 -16 69t-41 52.5t-53.5 45t-53.5 44.5t-41 52.5t-16 68.5zM271 -130q0 -27 -22 -69t-55 -78l-5 5q17 26 28 51.5t16 50.5h-1 q-12 0 -18 7.5t-6 17.5q0 17 12 30t26 13q25 0 25 -28z" />
<glyph unicode="&#x219;" horiz-adv-x="336" d="M322 119q0 -55 -39 -92t-103 -37q-49 0 -80.5 27t-31.5 66q0 29 12.5 51.5t34.5 40.5l6 -3q-11 -22 -17 -40t-6 -38q0 -38 25 -60t63 -22q44 0 74.5 27t30.5 77q0 33 -16 59.5t-39 49.5t-46 47t-39 52t-16 64q0 35 17 62.5t46 43.5t64 16q44 0 74 -24t30 -67 q0 -25 -10.5 -47.5t-26.5 -42.5l-7 3q5 17 9.5 37t4.5 36q0 40 -21 61.5t-56 21.5q-39 0 -66 -26.5t-27 -70.5q0 -33 16 -60t39 -50.5t46 -47.5t39 -51.5t16 -62.5zM182 -130q0 -27 -22 -69t-55 -78l-5 5q17 26 28 51.5t16 50.5h-1q-12 0 -18 7.5t-6 17.5q0 17 12 30t26 13 q25 0 25 -28z" />
<glyph unicode="&#x21a;" horiz-adv-x="513" d="M364 0h-214v10l78 12q11 2 15 6t5 11l125 588h-93h-50t-50 -1l-54 -153h-7q2 12 3.5 27t4.5 30q5 32 13 64t15 56h478q-2 -24 -8.5 -57t-15 -65.5t-16.5 -54.5h-7l12 153q-25 1 -50 1h-50h-93l-125 -588l-3 -13l89 -16zM255 -130q0 -27 -22 -69t-55 -78l-5 5 q17 26 28 51.5t16 50.5h-1q-12 0 -18 7.5t-6 17.5q0 17 12 30t26 13q25 0 25 -28z" />
<glyph unicode="&#x21b;" horiz-adv-x="290" d="M305 127q-15 -28 -38.5 -60t-51 -54.5t-56.5 -22.5q-18 0 -33.5 12t-15.5 43q0 14 3.5 33t7.5 41l71 331h-86l1 7l90 15l54 147l6 -1l-31 -146h146l-4 -22h-147l-70 -331q-4 -23 -7.5 -40.5t-3.5 -30.5q0 -11 6 -19.5t20 -8.5q17 0 39 16.5t46.5 42t47.5 52.5zM160 -130 q0 -27 -22 -69t-55 -78l-5 5q17 26 28 51.5t16 50.5h-1q-12 0 -18 7.5t-6 17.5q0 17 12 30t26 13q25 0 25 -28z" />
<glyph unicode="&#x232;" horiz-adv-x="584" d="M344 788l6 24h234l-6 -24h-234zM403 0h-214v10l78 12q11 2 15 6t5 11l22 104q10 48 12 111t-3.5 129t-17 122t-27.5 90.5t-36 34.5q-15 0 -33.5 -16.5t-36.5 -42t-34 -52.5l-8 4q12 29 31.5 60.5t43 54t46.5 22.5q25 0 46 -36t35 -96.5t19.5 -136t1.5 -155.5 q31 80 68 155.5t74 136t70.5 96.5t58.5 36q22 0 34.5 -19.5t19 -49t10.5 -58.5l-9 -4q-13 44 -24.5 72.5t-31.5 28.5q-15 0 -39 -25t-52.5 -67.5t-58 -94.5t-55.5 -106.5t-45 -104.5t-27 -87l-22 -106l-3 -13l89 -16z" />
<glyph unicode="&#x233;" horiz-adv-x="359" d="M199 638l6 24h234l-6 -24h-234zM223 355q0 -43 -6 -99.5t-18.5 -118t-31.5 -118.5q66 61 114.5 139.5t75.5 161t27 155.5q0 11 -0.5 18t-1.5 13q6 4 14 4q10 0 15 -6.5t5 -26.5q0 -50 -16.5 -112.5t-49 -129.5t-81 -131t-113.5 -117q-19 -51 -43.5 -92.5t-54.5 -65.5 t-66 -24q-33 0 -52.5 12t-19.5 28q0 11 5 18.5t12 11.5q9 -20 25.5 -33t35.5 -13q36 0 66 34t53.5 90.5t40 125.5t25 140t8.5 133q0 52 -7.5 90t-27.5 38q-18 0 -40.5 -33.5t-45.5 -77.5l-6 4q11 32 26.5 63.5t35 52.5t39.5 21q24 0 36.5 -21.5t17 -56.5t4.5 -77z" />
<glyph unicode="&#x237;" horiz-adv-x="222" d="M149 -6q-19 -92 -58 -140.5t-92 -48.5q-36 0 -59 17t-23 39q0 15 12 21q14 -19 33 -34.5t44 -15.5q48 0 71.5 37t41.5 124l85 402q5 22 7.5 39.5t2.5 30.5q0 15 -8 15q-10 0 -27 -16.5t-37 -42t-39 -52.5l-6 4q13 29 33 60.5t43 54t44 22.5q11 0 19 -9t8 -33 q0 -13 -2.5 -32t-7.5 -41z" />
<glyph unicode="&#x259;" horiz-adv-x="352" d="M369 353q0 -63 -17.5 -127.5t-47 -117.5t-68 -85.5t-80.5 -32.5q-35 0 -53 22t-18 55q0 50 21.5 89.5t57 67.5t79.5 43.5t89 18.5q5 34 5 65q0 139 -70 139q-32 0 -56 -24t-37 -57.5t-13 -62.5q-7 -4 -14 -4q-14 0 -14 20q0 31 18.5 65.5t50 58.5t69.5 24q98 0 98 -157z M117 67q0 -22 10.5 -39.5t34.5 -17.5q27 0 53 22t48.5 59t39.5 83t26 94q-67 -9 -114.5 -37.5t-72.5 -71t-25 -92.5z" />
<glyph unicode="&#x272;" horiz-adv-x="494" d="M149 -6q-19 -92 -58 -140.5t-92 -48.5q-36 0 -59 17t-23 39q0 15 12 21q14 -19 33 -34.5t44 -15.5q48 0 71.5 37t41.5 124l30 140l37 174q14 67 20.5 102t6.5 51q0 20 -11 20q-12 0 -29 -16.5t-35 -42t-35 -52.5l-6 4q12 29 32 60.5t43.5 54t44.5 22.5q11 0 19 -8t8 -30 t-8 -64.5t-20.5 -97.5t-27.5 -116q38 95 79.5 166.5t82.5 110.5t77 39q28 0 39.5 -16.5t11.5 -42.5q0 -27 -8.5 -69.5t-20.5 -91.5t-24.5 -97t-20.5 -88q-4 -22 -7 -39.5t-3 -30.5q0 -15 8 -15q10 0 27 16.5t37.5 42t38.5 52.5l6 -4q-13 -28 -33 -60t-43 -54.5t-44 -22.5 q-10 0 -18.5 9t-8.5 33q0 14 3 32.5t7 40.5q8 41 20.5 89.5t24.5 96.5t20.5 89t8.5 66q0 16 -6 26t-22 10q-31 0 -74 -47.5t-88.5 -132t-84.5 -197.5z" />
<glyph unicode="&#x2c6;" horiz-adv-x="424" d="M324 586l-9 -6q-17 24 -39.5 52.5t-44.5 55.5q-16 -15 -38 -34t-45.5 -38.5t-41.5 -34.5l-6 7q21 20 46 45.5t46 48.5t31 35l5 3h18q15 -24 36 -60t42 -74z" />
<glyph unicode="&#x2c7;" horiz-adv-x="398" d="M201 583l-5 -3h-18q-15 24 -36 60.5t-42 73.5l9 6q17 -24 39.5 -52.5t44.5 -55.5q16 15 38 34t45.5 38.5t41.5 34.5l6 -7q-21 -20 -46 -45.5t-46 -48t-31 -35.5z" />
<glyph unicode="&#x2d8;" horiz-adv-x="391" d="M281 700l4 2l10 -4q-17 -47 -48.5 -73.5t-70.5 -26.5q-40 0 -61 26.5t-18 74.5l14 3q2 -37 20.5 -58t49.5 -21q32 0 58 20.5t42 56.5z" />
<glyph unicode="&#x2d9;" horiz-adv-x="266" d="M166 660q0 -16 -11 -30.5t-29 -14.5q-26 0 -26 26q0 17 12.5 30.5t28.5 13.5q25 0 25 -25z" />
<glyph unicode="&#x2da;" horiz-adv-x="341" d="M241 663q0 -32 -25 -54.5t-58 -22.5q-28 0 -43 14t-15 39q0 32 25 54.5t59 22.5q28 0 42.5 -14.5t14.5 -38.5zM129 639q2 -33 34 -33q21 0 35 16.5t14 40.5q-2 33 -33 33q-21 0 -35.5 -16.5t-14.5 -40.5z" />
<glyph unicode="&#x2db;" horiz-adv-x="349" d="M249 -77q-21 -41 -45 -69t-54 -28q-40 0 -40 44q0 27 13.5 54t35.5 48.5t47 33.5l12 -6q-20 -12 -38 -33.5t-29 -45t-11 -42.5q0 -23 19 -23q16 0 36 18t48 53z" />
<glyph unicode="&#x2dc;" horiz-adv-x="491" d="M323 637q11 9 28 26t32 33l8 -5q-20 -37 -38 -57.5t-35 -20.5q-15 0 -36 7.5t-43.5 17t-41.5 17t-29 7.5q-11 -9 -28 -25.5t-32 -33.5l-8 5q20 38 38 58t35 20q15 0 36.5 -7.5t43.5 -17t41 -17t29 -7.5z" />
<glyph unicode="&#x2dd;" horiz-adv-x="496" d="M258 706q0 -10 -17.5 -27.5t-43 -36.5t-51 -35.5t-40.5 -25.5l-6 8q43 35 81.5 70t60.5 61q16 0 16 -14zM396 706q0 -10 -17.5 -27.5t-43 -36.5t-51 -35.5t-40.5 -25.5l-6 8q43 35 81.5 70t60.5 61q16 0 16 -14z" />
<glyph unicode="&#x326;" horiz-adv-x="282" d="M182 -130q0 -27 -22 -69t-55 -78l-5 5q17 26 28 51.5t16 50.5h-1q-12 0 -18 7.5t-6 17.5q0 17 12 30t26 13q25 0 25 -28z" />
<glyph unicode="&#x1e0c;" horiz-adv-x="634" d="M302 611l-122 -572l-3 -17h94q86 0 151.5 31.5t109.5 85.5t66.5 122.5t22.5 142.5q0 107 -59.5 165.5t-182.5 58.5h-74zM334 -127q0 -16 -11 -30.5t-29 -14.5q-26 0 -26 26q0 17 12.5 30.5t28.5 13.5q25 0 25 -25zM269 0h-219v10l78 12q11 2 15 6t5 11l122 572l3 13 l-89 16l3 10h201q131 0 198.5 -65t67.5 -178q0 -76 -24 -148.5t-72 -131t-120.5 -93t-168.5 -34.5z" />
<glyph unicode="&#x1e0d;" horiz-adv-x="428" d="M312 105l39 182q-35 -90 -73 -157t-74.5 -103.5t-65.5 -36.5q-31 0 -45.5 29t-14.5 75q0 54 13.5 111.5t38.5 112t59 98t75.5 69t87.5 25.5q25 0 45 -6l15 71l20 96l-85 8v5q31 3 57.5 6t58.5 5l4 -4l-25 -116l-100 -470q-4 -22 -7 -39.5t-3 -30.5q0 -15 8 -15 q10 0 27 16.5t37.5 42t38.5 52.5l6 -4q-13 -28 -33 -60t-43 -54.5t-44 -22.5q-10 0 -18.5 9t-8.5 33q0 14 3 32.5t7 40.5zM145 18q26 0 67 49t85 137t80 204l14 65q-26 13 -60 13t-67 -23.5t-61 -64t-49.5 -91t-33.5 -104.5t-12 -104q0 -36 9 -58.5t28 -22.5zM201 -127 q0 -16 -11 -30.5t-29 -14.5q-26 0 -26 26q0 17 12.5 30.5t28.5 13.5q25 0 25 -25z" />
<glyph unicode="&#x1e24;" horiz-adv-x="693" d="M264 0h-214v10l78 12q11 2 15 6t5 11l122 572l3 13l-89 16l2 10h214v-10l-78 -12q-10 -1 -14 -5.5t-6 -11.5l-57 -268h349l57 268l3 13l-89 16l2 10h214v-10l-78 -12q-10 -1 -14 -5.5t-6 -11.5l-122 -572l-3 -13l89 -16l-2 -10h-214v10l78 12q11 2 15 6t5 11l60 281h-349 l-60 -281l-3 -13l89 -16zM351 -127q0 -16 -11 -30.5t-29 -14.5q-26 0 -26 26q0 17 12.5 30.5t28.5 13.5q25 0 25 -25z" />
<glyph unicode="&#x1e25;" horiz-adv-x="466" d="M124 -3q-2 -1 -13 -4t-13 -3q-5 0 -4 6l23 109h1l100 470l20 96l-85 8v5q31 3 57.5 6t58.5 5l4 -4l-25 -116q-20 -93 -40 -185.5t-41 -184.5q38 92 79 160.5t81 106.5t76 38q28 0 39.5 -16.5t11.5 -42.5q0 -27 -8.5 -69.5t-20.5 -91.5t-24.5 -97t-20.5 -88 q-4 -22 -7 -39.5t-3 -30.5q0 -15 8 -15q10 0 27 16.5t37.5 42t38.5 52.5l6 -4q-13 -28 -33 -60t-43 -54.5t-44 -22.5q-10 0 -18.5 9t-8.5 33q0 14 3 32.5t7 40.5q8 41 20.5 89.5t24.5 96.5t20.5 89t8.5 66q0 16 -6 26t-22 10q-31 0 -74.5 -47.5t-89 -132t-84.5 -197.5h-1z M247 -127q0 -16 -11 -30.5t-29 -14.5q-26 0 -26 26q0 17 12.5 30.5t28.5 13.5q25 0 25 -25z" />
<glyph unicode="&#x1e44;" horiz-adv-x="696" d="M550 810q0 -16 -11 -30.5t-29 -14.5q-26 0 -26 26q0 17 12.5 30.5t28.5 13.5q25 0 25 -25zM258 0h-206v10l77 12q16 2 19 17l125 587l-88 16l2 8h128l223 -610l122 571l3 13l-89 16l2 10h206v-10l-77 -12q-16 -2 -19 -17l-130 -611h-37l-223 612l-122 -573l-3 -13l89 -16 z" />
<glyph unicode="&#x1e45;" horiz-adv-x="477" d="M395 660q0 -16 -11 -30.5t-29 -14.5q-26 0 -26 26q0 17 12.5 30.5t28.5 13.5q25 0 25 -25zM137 -3q-2 -1 -13 -4t-13 -3q-5 0 -4 6l23 109l6 28l37 174q14 67 20.5 102t6.5 51q0 20 -11 20q-12 0 -29 -16.5t-35 -42t-35 -52.5l-6 4q12 29 32 60.5t43.5 54t44.5 22.5 q11 0 19 -8t8 -30t-8 -64.5t-20.5 -97.5t-27.5 -116q38 95 79.5 166.5t82.5 110.5t77 39q28 0 39.5 -16.5t11.5 -42.5q0 -27 -8.5 -69.5t-20.5 -91.5t-24.5 -97t-20.5 -88q-4 -22 -7 -39.5t-3 -30.5q0 -15 8 -15q10 0 27 16.5t37.5 42t38.5 52.5l6 -4q-13 -28 -33 -60 t-43 -54.5t-44 -22.5q-10 0 -18.5 9t-8.5 33q0 14 3 32.5t7 40.5q8 41 20.5 89.5t24.5 96.5t20.5 89t8.5 66q0 16 -6 26t-22 10q-31 0 -74 -47.5t-88.5 -132t-84.5 -197.5z" />
<glyph unicode="&#x1e5a;" horiz-adv-x="606" d="M385 627h-80l-3 -16l-65 -303h86q71 0 121.5 26t77.5 69t27 95q0 67 -46.5 98t-117.5 31zM381 -127q0 -16 -11 -30.5t-29 -14.5q-26 0 -26 26q0 17 12.5 30.5t28.5 13.5q25 0 25 -25zM264 0h-214v10l78 12q11 2 15 6t5 11l122 572l3 13l-89 16l3 10h203q85 0 138 -37.5 t53 -114.5q0 -54 -25.5 -96t-65.5 -69t-86 -38h-1l94 -237q8 -20 18.5 -27t29.5 -11l48 -10l-1 -10h-52q-34 0 -49.5 12.5t-26.5 40.5l-91 235q-13 -2 -26.5 -2.5t-27.5 -0.5h-87l-52 -246l-3 -13l89 -16z" />
<glyph unicode="&#x1e5b;" horiz-adv-x="348" d="M137 -3q-2 -1 -13 -4t-13 -3q-5 0 -4 6l23 109l6 28l37 174q14 67 20.5 102t6.5 51q0 20 -11 20q-12 0 -29 -16.5t-35 -42t-35 -52.5l-6 4q12 29 32 60.5t43.5 54t44.5 22.5q11 0 19 -8t8 -30q0 -21 -7 -60.5t-19 -91.5t-26 -110q34 91 71.5 158.5t75.5 104.5t74 37 q17 0 27 -9t10 -21q0 -7 -3.5 -13.5t-8.5 -11.5q-7 8 -17 14.5t-22 6.5q-30 0 -69.5 -46.5t-80 -130t-76.5 -194.5zM129 -127q0 -16 -11 -30.5t-29 -14.5q-26 0 -26 26q0 17 12.5 30.5t28.5 13.5q25 0 25 -25z" />
<glyph unicode="&#x1e62;" horiz-adv-x="463" d="M184 492q0 51 27.5 89t74 58.5t102.5 20.5q41 0 76 -9t50 -25q8 -10 8 -19q0 -13 -6 -40t-13.5 -54t-13.5 -40h-8l10 141q-38 24 -108 24q-47 0 -85 -17.5t-59.5 -49t-21.5 -72.5q0 -36 16 -63.5t41 -50.5t53.5 -45t53.5 -47t41 -56.5t16 -73.5q0 -77 -56 -125t-148 -48 q-48 0 -86.5 12.5t-53.5 29.5q-10 12 -10 22q0 14 5.5 40.5t13.5 53.5t13 42h8l-10 -143q15 -14 47.5 -24.5t73.5 -10.5q76 0 123 40t47 108q0 40 -16 69t-41 52.5t-53.5 45t-53.5 44.5t-41 52.5t-16 68.5zM274 -127q0 -16 -11 -30.5t-29 -14.5q-26 0 -26 26q0 17 12.5 30.5 t28.5 13.5q25 0 25 -25z" />
<glyph unicode="&#x1e63;" horiz-adv-x="336" d="M322 119q0 -55 -39 -92t-103 -37q-49 0 -80.5 27t-31.5 66q0 29 12.5 51.5t34.5 40.5l6 -3q-11 -22 -17 -40t-6 -38q0 -38 25 -60t63 -22q44 0 74.5 27t30.5 77q0 33 -16 59.5t-39 49.5t-46 47t-39 52t-16 64q0 35 17 62.5t46 43.5t64 16q44 0 74 -24t30 -67 q0 -25 -10.5 -47.5t-26.5 -42.5l-7 3q5 17 9.5 37t4.5 36q0 40 -21 61.5t-56 21.5q-39 0 -66 -26.5t-27 -70.5q0 -33 16 -60t39 -50.5t46 -47.5t39 -51.5t16 -62.5zM185 -127q0 -16 -11 -30.5t-29 -14.5q-26 0 -26 26q0 17 12.5 30.5t28.5 13.5q25 0 25 -25z" />
<glyph unicode="&#x1e6c;" horiz-adv-x="513" d="M364 0h-214v10l78 12q11 2 15 6t5 11l125 588h-93h-50t-50 -1l-54 -153h-7q2 12 3.5 27t4.5 30q5 32 13 64t15 56h478q-2 -24 -8.5 -57t-15 -65.5t-16.5 -54.5h-7l12 153q-25 1 -50 1h-50h-93l-125 -588l-3 -13l89 -16zM258 -127q0 -16 -11 -30.5t-29 -14.5q-26 0 -26 26 q0 17 12.5 30.5t28.5 13.5q25 0 25 -25z" />
<glyph unicode="&#x1e6d;" horiz-adv-x="290" d="M305 127q-15 -28 -38.5 -60t-51 -54.5t-56.5 -22.5q-18 0 -33.5 12t-15.5 43q0 14 3.5 33t7.5 41l71 331h-86l1 7l90 15l54 147l6 -1l-31 -146h146l-4 -22h-147l-70 -331q-4 -23 -7.5 -40.5t-3.5 -30.5q0 -11 6 -19.5t20 -8.5q17 0 39 16.5t46.5 42t47.5 52.5zM163 -127 q0 -16 -11 -30.5t-29 -14.5q-26 0 -26 26q0 17 12.5 30.5t28.5 13.5q25 0 25 -25z" />
<glyph unicode="&#x1e80;" horiz-adv-x="974" d="M723 735l-8 -8q-24 21 -51 45t-45.5 46t-18.5 37q0 18 17 18h3q15 -28 42.5 -64.5t60.5 -73.5zM991 586l-330 -590h-13l-57 463l-260 -463h-13l-83 590q-3 22 -9 31.5t-23 12.5l-53 10l2 10h198v-10l-88 -15l78 -564l245 441l-10 84q-3 23 -9 32t-23 12l-53 10l2 10h198 v-10l-88 -15l70 -563l312 562l-88 16l2 10h198v-10q-13 -2 -26.5 -4.5t-27.5 -5.5q-21 -4 -30.5 -14t-20.5 -30z" />
<glyph unicode="&#x1e81;" d="M480 585l-8 -8q-24 21 -51 45t-45.5 46t-18.5 37q0 18 17 18h3q15 -28 42.5 -64.5t60.5 -73.5zM388 510q16 0 20 -15t4 -44q0 -42 -2.5 -104.5t-7.5 -139t-12 -158.5q37 50 72.5 107t63.5 115.5t45 113t17 98.5q0 8 -0.5 13.5t-1.5 9.5q6 4 14 4q20 0 20 -33 q0 -52 -31 -129.5t-86.5 -167t-130.5 -180.5h-9q8 113 14.5 221t8.5 202q-25 -98 -78.5 -200t-152.5 -223h-9q10 113 17 218.5t7 181.5q0 36 -5.5 58t-22.5 22q-19 0 -43 -33.5t-50 -77.5l-6 4q12 32 29 63.5t38 52.5t43 21q29 0 38 -29.5t9 -75.5q0 -56 -7 -150.5 t-19 -203.5q38 50 74 107t65 116.5t46 117.5t17 111v4q5 3 12 3z" />
<glyph unicode="&#x1e82;" horiz-adv-x="974" d="M746 855q0 -11 -19 -28.5t-46.5 -36t-54.5 -34.5t-44 -25l-6 8q46 35 87.5 70t64.5 61q18 0 18 -15zM991 586l-330 -590h-13l-57 463l-260 -463h-13l-83 590q-3 22 -9 31.5t-23 12.5l-53 10l2 10h198v-10l-88 -15l78 -564l245 441l-10 84q-3 23 -9 32t-23 12l-53 10l2 10 h198v-10l-88 -15l70 -563l312 562l-88 16l2 10h198v-10q-13 -2 -26.5 -4.5t-27.5 -5.5q-21 -4 -30.5 -14t-20.5 -30z" />
<glyph unicode="&#x1e83;" d="M503 705q0 -11 -19 -28.5t-46.5 -36t-54.5 -34.5t-44 -25l-6 8q46 35 87.5 70t64.5 61q18 0 18 -15zM388 510q16 0 20 -15t4 -44q0 -42 -2.5 -104.5t-7.5 -139t-12 -158.5q37 50 72.5 107t63.5 115.5t45 113t17 98.5q0 8 -0.5 13.5t-1.5 9.5q6 4 14 4q20 0 20 -33 q0 -52 -31 -129.5t-86.5 -167t-130.5 -180.5h-9q8 113 14.5 221t8.5 202q-25 -98 -78.5 -200t-152.5 -223h-9q10 113 17 218.5t7 181.5q0 36 -5.5 58t-22.5 22q-19 0 -43 -33.5t-50 -77.5l-6 4q12 32 29 63.5t38 52.5t43 21q29 0 38 -29.5t9 -75.5q0 -56 -7 -150.5 t-19 -203.5q38 50 74 107t65 116.5t46 117.5t17 111v4q5 3 12 3z" />
<glyph unicode="&#x1e84;" horiz-adv-x="974" d="M604 812q0 -18 -12 -33t-29 -15q-22 0 -22 24q0 19 12.5 33.5t28.5 14.5q22 0 22 -24zM782 812q0 -18 -12 -33t-29 -15q-22 0 -22 24q0 19 12.5 33.5t28.5 14.5q22 0 22 -24zM991 586l-330 -590h-13l-57 463l-260 -463h-13l-83 590q-3 22 -9 31.5t-23 12.5l-53 10l2 10 h198v-10l-88 -15l78 -564l245 441l-10 84q-3 23 -9 32t-23 12l-53 10l2 10h198v-10l-88 -15l70 -563l312 562l-88 16l2 10h198v-10q-13 -2 -26.5 -4.5t-27.5 -5.5q-21 -4 -30.5 -14t-20.5 -30z" />
<glyph unicode="&#x1e85;" d="M361 662q0 -18 -12 -33t-29 -15q-22 0 -22 24q0 19 12.5 33.5t28.5 14.5q22 0 22 -24zM539 662q0 -18 -12 -33t-29 -15q-22 0 -22 24q0 19 12.5 33.5t28.5 14.5q22 0 22 -24zM388 510q16 0 20 -15t4 -44q0 -42 -2.5 -104.5t-7.5 -139t-12 -158.5q37 50 72.5 107 t63.5 115.5t45 113t17 98.5q0 8 -0.5 13.5t-1.5 9.5q6 4 14 4q20 0 20 -33q0 -52 -31 -129.5t-86.5 -167t-130.5 -180.5h-9q8 113 14.5 221t8.5 202q-25 -98 -78.5 -200t-152.5 -223h-9q10 113 17 218.5t7 181.5q0 36 -5.5 58t-22.5 22q-19 0 -43 -33.5t-50 -77.5l-6 4 q12 32 29 63.5t38 52.5t43 21q29 0 38 -29.5t9 -75.5q0 -56 -7 -150.5t-19 -203.5q38 50 74 107t65 116.5t46 117.5t17 111v4q5 3 12 3z" />
<glyph unicode="&#x1e92;" horiz-adv-x="527" d="M487 77q-4 -23 -9 -40.5t-11 -36.5h-406l-1 17l497 611h-327l-57 -163h-8q2 23 5.5 50t11.5 61q5 23 9.5 39.5t10.5 34.5h397l1 -17l-498 -611h337l57 163h8q-1 -22 -5.5 -48t-11.5 -60zM275 -127q0 -16 -11 -30.5t-29 -14.5q-26 0 -26 26q0 17 12.5 30.5t28.5 13.5 q25 0 25 -25z" />
<glyph unicode="&#x1e93;" horiz-adv-x="373" d="M147 24q-26 0 -47 -8.5t-44 -25.5l-12 12q57 74 106.5 141t96.5 134t98 142q-41 22 -85 38t-67 16q-24 0 -41.5 -28.5t-40.5 -81.5l-9 4q20 63 36.5 100.5t53.5 37.5q34 0 79 -21.5t86 -48.5q12 18 25 37l26 38q22 -2 22 -18q0 -8 -8 -19q-35 -48 -76.5 -106.5t-101 -139 t-146.5 -195.5q30 18 63 18q19 0 44.5 -7t49 -14t37.5 -7q17 0 37 28t51 82l8 -5q-22 -58 -43.5 -97.5t-48.5 -39.5q-19 0 -44.5 8.5t-52.5 17t-52 8.5zM194 -127q0 -16 -11 -30.5t-29 -14.5q-26 0 -26 26q0 17 12.5 30.5t28.5 13.5q25 0 25 -25z" />
<glyph unicode="&#x1e9e;" horiz-adv-x="612" d="M609 155q0 -47 -25 -84.5t-69 -59t-101 -21.5q-23 0 -53.5 7t-53.5 21t-23 35q0 12 5.5 39t12.5 55t12 43h8q-1 -27 -3 -49t-2 -39q0 -47 21 -68.5t81 -21.5q74 0 115.5 41t41.5 99q0 48 -26.5 82t-67 63t-82.5 59l2 21l186 171q-15 42 -46 66t-74 24q-83 0 -134.5 -60.5 t-74.5 -166.5l-86 -404l-8 -7h-115v10l78 12q11 2 15 6t5 11l80 374q24 114 86.5 180.5t162.5 66.5q52 0 89.5 -30t52.5 -72l-1 -10l-189 -172q29 -23 61 -45t59 -47t43.5 -56.5t16.5 -72.5z" />
<glyph unicode="&#x1ea0;" horiz-adv-x="685" d="M476 654h13l87 -590q4 -25 10.5 -32.5t27.5 -12.5l45 -9l-2 -10h-204v10l96 15l-29 204l-259 -2l1 5l-116 -206l90 -16l-2 -10h-204v10l53 10q23 5 33 13.5t23 30.5zM275 254l242 -3l-50 342zM347 -127q0 -16 -11 -30.5t-29 -14.5q-26 0 -26 26q0 17 12.5 30.5t28.5 13.5 q25 0 25 -25z" />
<glyph unicode="&#x1ea1;" horiz-adv-x="428" d="M78 94q0 54 13.5 111.5t38.5 112t59 98t75.5 69t87.5 25.5q24 0 43.5 -6t32.5 -14l-23 -93l-63 -292q-4 -22 -7 -39.5t-3 -30.5q0 -15 8 -15q10 0 27 16.5t37.5 42t38.5 52.5l6 -4q-13 -28 -33 -60t-43 -54.5t-44 -22.5q-10 0 -18.5 9t-8.5 33q0 14 3 32.5t7 40.5l45 197 q-35 -94 -74.5 -164.5t-77 -109t-67.5 -38.5q-31 0 -45.5 29t-14.5 75zM378 407l14 66q-14 7 -30 10t-31 3q-34 0 -67 -23.5t-61 -64t-49.5 -91t-33.5 -104.5t-12 -104q0 -36 9 -58.5t28 -22.5q26 0 67 48.5t85.5 136.5t80.5 204zM202 -127q0 -16 -11 -30.5t-29 -14.5 q-26 0 -26 26q0 17 12.5 30.5t28.5 13.5q25 0 25 -25z" />
<glyph unicode="&#x1eb8;" horiz-adv-x="515" d="M469 0h-419v10l78 12q11 2 15 6t5 11l122 572l3 13l-89 16l3 10h410q-2 -24 -8.5 -56.5t-14.5 -64t-16 -54.5h-7l11 150q-35 2 -70 2h-70h-117l-3 -16l-57 -269l216 4l-6 -30l-215 5l-60 -282l-3 -16h123h72.5t71.5 2l53 150h7q-1 -14 -3 -32t-6 -38q-5 -29 -12 -57.5 t-14 -47.5zM301 -127q0 -16 -11 -30.5t-29 -14.5q-26 0 -26 26q0 17 12.5 30.5t28.5 13.5q25 0 25 -25z" />
<glyph unicode="&#x1eb9;" horiz-adv-x="329" d="M347 139q-14 -35 -38 -69.5t-55 -57t-66 -22.5q-46 0 -72 42t-26 115q0 63 17.5 127.5t47 117.5t68 85.5t80.5 32.5q35 0 53 -22t18 -55q0 -50 -21.5 -89.5t-57 -67.5t-79.5 -43.5t-89 -18.5q-5 -34 -5 -65q0 -61 18.5 -98t53.5 -37t75.5 38t71.5 91zM297 490 q-27 0 -53 -22t-48.5 -59t-39.5 -83t-26 -94q67 9 114.5 37.5t72.5 71t25 92.5q0 23 -10.5 40t-34.5 17zM196 -127q0 -16 -11 -30.5t-29 -14.5q-26 0 -26 26q0 17 12.5 30.5t28.5 13.5q25 0 25 -25z" />
<glyph unicode="&#x1ebc;" horiz-adv-x="515" d="M524 787q11 9 28 26t32 33l8 -5q-20 -37 -38 -57.5t-35 -20.5q-15 0 -36 7.5t-43.5 17t-41.5 17t-29 7.5q-11 -9 -28 -25.5t-32 -33.5l-8 5q20 38 38 58t35 20q15 0 36.5 -7.5t43.5 -17t41 -17t29 -7.5zM469 0h-419v10l78 12q11 2 15 6t5 11l122 572l3 13l-89 16l3 10 h410q-2 -24 -8.5 -56.5t-14.5 -64t-16 -54.5h-7l11 150q-35 2 -70 2h-70h-117l-3 -16l-57 -269l216 4l-6 -30l-215 5l-60 -282l-3 -16h123h72.5t71.5 2l53 150h7q-1 -14 -3 -32t-6 -38q-5 -29 -12 -57.5t-14 -47.5z" />
<glyph unicode="&#x1ebd;" horiz-adv-x="329" d="M405 637q11 9 28 26t32 33l8 -5q-20 -37 -38 -57.5t-35 -20.5q-15 0 -36 7.5t-43.5 17t-41.5 17t-29 7.5q-11 -9 -28 -25.5t-32 -33.5l-8 5q20 38 38 58t35 20q15 0 36.5 -7.5t43.5 -17t41 -17t29 -7.5zM347 139q-14 -35 -38 -69.5t-55 -57t-66 -22.5q-46 0 -72 42 t-26 115q0 63 17.5 127.5t47 117.5t68 85.5t80.5 32.5q35 0 53 -22t18 -55q0 -50 -21.5 -89.5t-57 -67.5t-79.5 -43.5t-89 -18.5q-5 -34 -5 -65q0 -61 18.5 -98t53.5 -37t75.5 38t71.5 91zM297 490q-27 0 -53 -22t-48.5 -59t-39.5 -83t-26 -94q67 9 114.5 37.5t72.5 71 t25 92.5q0 23 -10.5 40t-34.5 17z" />
<glyph unicode="&#x1eca;" horiz-adv-x="312" d="M264 0h-214v10l78 12q11 2 15 6t5 11l122 572l3 13l-89 16l2 10h214v-10l-78 -12q-10 -1 -14 -5.5t-6 -11.5l-122 -572l-3 -13l89 -16zM159 -127q0 -16 -11 -30.5t-29 -14.5q-26 0 -26 26q0 17 12.5 30.5t28.5 13.5q25 0 25 -25z" />
<glyph unicode="&#x1ecb;" horiz-adv-x="246" d="M282 660q0 -16 -11 -30.5t-29 -14.5q-26 0 -26 26q0 17 12.5 30.5t28.5 13.5q25 0 25 -25zM130 105q9 44 22 96t26 103t21 91q5 22 7.5 39.5t2.5 30.5q0 15 -8 15q-10 0 -27 -16.5t-37 -42t-39 -52.5l-6 4q13 29 33 60.5t43 54t44 22.5q11 0 19 -9t8 -33q0 -13 -2.5 -32 t-7.5 -41q-8 -41 -21 -93t-26 -103.5t-22 -93.5q-4 -22 -7 -39.5t-3 -30.5q0 -15 8 -15q10 0 27 16.5t37.5 42t38.5 52.5l6 -4q-13 -28 -33 -60t-43 -54.5t-44 -22.5q-10 0 -18.5 9t-8.5 33q0 14 3 32.5t7 40.5zM154 -127q0 -16 -11 -30.5t-29 -14.5q-26 0 -26 26 q0 17 12.5 30.5t28.5 13.5q25 0 25 -25z" />
<glyph unicode="&#x1ecc;" d="M581 428q0 -80 -21.5 -158t-60.5 -141.5t-92.5 -101t-117.5 -37.5q-85 0 -129 62t-44 168q0 81 22 159.5t62 141.5t94.5 101t118.5 38q84 0 126 -64t42 -168zM149 229q0 -103 39 -159.5t103 -56.5q57 0 104 37t81 98t53 133.5t19 144.5q0 93 -35 152t-104 59 q-45 0 -84.5 -24.5t-71.5 -66t-55.5 -94.5t-36 -110.5t-12.5 -112.5zM282 -127q0 -16 -11 -30.5t-29 -14.5q-26 0 -26 26q0 17 12.5 30.5t28.5 13.5q25 0 25 -25z" />
<glyph unicode="&#x1ecd;" horiz-adv-x="396" d="M408 335q0 -68 -16.5 -130t-45 -110.5t-65 -76.5t-76.5 -28q-52 0 -81.5 49.5t-29.5 125.5q0 68 17 130t47 110.5t67.5 76.5t77.5 28q53 0 79 -47.5t26 -127.5zM126 169q0 -72 21.5 -113.5t60.5 -41.5q36 0 66.5 28t53.5 74.5t35.5 103.5t12.5 116q0 64 -18 107t-60 43 q-36 0 -67 -28t-55 -75t-37 -102.5t-13 -111.5zM212 -127q0 -16 -11 -30.5t-29 -14.5q-26 0 -26 26q0 17 12.5 30.5t28.5 13.5q25 0 25 -25z" />
<glyph unicode="&#x1ee4;" horiz-adv-x="656" d="M577 221q-25 -117 -92 -174t-151 -57q-73 0 -120.5 43t-47.5 129q0 16 2 33t6 35l81 381l3 13l-89 16l2 10h214v-10l-78 -12q-10 -1 -14 -5.5t-6 -11.5l-82 -385q-4 -16 -6 -31t-2 -29q0 -74 40.5 -112t103.5 -38q47 0 89.5 23.5t74.5 69.5t46 114l83 390l2 11l-89 16 l2 10h209v-10l-95 -16l-3 -11zM340 -127q0 -16 -11 -30.5t-29 -14.5q-26 0 -26 26q0 17 12.5 30.5t28.5 13.5q25 0 25 -25z" />
<glyph unicode="&#x1ee5;" horiz-adv-x="484" d="M453 503q2 1 13.5 4t12.5 3q6 0 4 -6l-23 -109l-6 -28l-37 -174q-14 -67 -20.5 -101.5t-6.5 -51.5q0 -20 11 -20q13 0 29.5 16.5t35 42t34.5 52.5l6 -4q-12 -28 -32 -60t-43.5 -54.5t-44.5 -22.5q-10 0 -18.5 8t-8.5 30t8 64.5t20.5 97.5t27.5 116q-38 -95 -79.5 -166.5 t-82.5 -110.5t-77 -39q-28 0 -39.5 16.5t-11.5 42.5q0 27 8.5 69.5t20.5 91.5t24.5 97t20.5 88q5 22 7.5 39.5t2.5 30.5q0 15 -8 15q-10 0 -27 -16.5t-37 -42t-39 -52.5l-6 4q13 29 33 60.5t43 54t44 22.5q11 0 19 -9t8 -33q0 -13 -2.5 -32t-7.5 -41q-8 -41 -20.5 -89.5 t-24.5 -96.5t-20.5 -89t-8.5 -66q0 -16 6 -26t22 -10q31 0 74 47.5t88.5 132.5t84.5 197zM276 -127q0 -16 -11 -30.5t-29 -14.5q-26 0 -26 26q0 17 12.5 30.5t28.5 13.5q25 0 25 -25z" />
<glyph unicode="&#x1ef2;" horiz-adv-x="584" d="M526 735l-8 -8q-24 21 -51 45t-45.5 46t-18.5 37q0 18 17 18h3q15 -28 42.5 -64.5t60.5 -73.5zM403 0h-214v10l78 12q11 2 15 6t5 11l22 104q10 48 12 111t-3.5 129t-17 122t-27.5 90.5t-36 34.5q-15 0 -33.5 -16.5t-36.5 -42t-34 -52.5l-8 4q12 29 31.5 60.5t43 54 t46.5 22.5q25 0 46 -36t35 -96.5t19.5 -136t1.5 -155.5q31 80 68 155.5t74 136t70.5 96.5t58.5 36q22 0 34.5 -19.5t19 -49t10.5 -58.5l-9 -4q-13 44 -24.5 72.5t-31.5 28.5q-15 0 -39 -25t-52.5 -67.5t-58 -94.5t-55.5 -106.5t-45 -104.5t-27 -87l-22 -106l-3 -13l89 -16z " />
<glyph unicode="&#x1ef3;" horiz-adv-x="359" d="M379 585l-8 -8q-24 21 -51 45t-45.5 46t-18.5 37q0 18 17 18h3q15 -28 42.5 -64.5t60.5 -73.5zM223 355q0 -43 -6 -99.5t-18.5 -118t-31.5 -118.5q66 61 114.5 139.5t75.5 161t27 155.5q0 11 -0.5 18t-1.5 13q6 4 14 4q10 0 15 -6.5t5 -26.5q0 -50 -16.5 -112.5 t-49 -129.5t-81 -131t-113.5 -117q-19 -51 -43.5 -92.5t-54.5 -65.5t-66 -24q-33 0 -52.5 12t-19.5 28q0 11 5 18.5t12 11.5q9 -20 25.5 -33t35.5 -13q36 0 66 34t53.5 90.5t40 125.5t25 140t8.5 133q0 52 -7.5 90t-27.5 38q-18 0 -40.5 -33.5t-45.5 -77.5l-6 4 q11 32 26.5 63.5t35 52.5t39.5 21q24 0 36.5 -21.5t17 -56.5t4.5 -77z" />
<glyph unicode="&#x1ef8;" horiz-adv-x="584" d="M533 787q11 9 28 26t32 33l8 -5q-20 -37 -38 -57.5t-35 -20.5q-15 0 -36 7.5t-43.5 17t-41.5 17t-29 7.5q-11 -9 -28 -25.5t-32 -33.5l-8 5q20 38 38 58t35 20q15 0 36.5 -7.5t43.5 -17t41 -17t29 -7.5zM403 0h-214v10l78 12q11 2 15 6t5 11l22 104q10 48 12 111 t-3.5 129t-17 122t-27.5 90.5t-36 34.5q-15 0 -33.5 -16.5t-36.5 -42t-34 -52.5l-8 4q12 29 31.5 60.5t43 54t46.5 22.5q25 0 46 -36t35 -96.5t19.5 -136t1.5 -155.5q31 80 68 155.5t74 136t70.5 96.5t58.5 36q22 0 34.5 -19.5t19 -49t10.5 -58.5l-9 -4q-13 44 -24.5 72.5 t-31.5 28.5q-15 0 -39 -25t-52.5 -67.5t-58 -94.5t-55.5 -106.5t-45 -104.5t-27 -87l-22 -106l-3 -13l89 -16z" />
<glyph unicode="&#x1ef9;" horiz-adv-x="359" d="M392 637q11 9 28 26t32 33l8 -5q-20 -37 -38 -57.5t-35 -20.5q-15 0 -36 7.5t-43.5 17t-41.5 17t-29 7.5q-11 -9 -28 -25.5t-32 -33.5l-8 5q20 38 38 58t35 20q15 0 36.5 -7.5t43.5 -17t41 -17t29 -7.5zM223 355q0 -43 -6 -99.5t-18.5 -118t-31.5 -118.5 q66 61 114.5 139.5t75.5 161t27 155.5q0 11 -0.5 18t-1.5 13q6 4 14 4q10 0 15 -6.5t5 -26.5q0 -50 -16.5 -112.5t-49 -129.5t-81 -131t-113.5 -117q-19 -51 -43.5 -92.5t-54.5 -65.5t-66 -24q-33 0 -52.5 12t-19.5 28q0 11 5 18.5t12 11.5q9 -20 25.5 -33t35.5 -13 q36 0 66 34t53.5 90.5t40 125.5t25 140t8.5 133q0 52 -7.5 90t-27.5 38q-18 0 -40.5 -33.5t-45.5 -77.5l-6 4q11 32 26.5 63.5t35 52.5t39.5 21q24 0 36.5 -21.5t17 -56.5t4.5 -77z" />
<glyph unicode="&#x2013;" horiz-adv-x="508" d="M101 249l5 25h412l-5 -25h-412z" />
<glyph unicode="&#x2014;" horiz-adv-x="760" d="M101 249l5 25h664l-5 -25h-664z" />
<glyph unicode="&#x2018;" horiz-adv-x="208" d="M173 506q0 23 14.5 55.5t40 67.5t58.5 66l5 -5q-31 -38 -50 -74t-29 -70v0q12 0 18 -7t6 -18q0 -17 -12 -30t-26 -13q-25 0 -25 28z" />
<glyph unicode="&#x2019;" horiz-adv-x="209" d="M285 667q0 -23 -14.5 -55.5t-40 -67.5t-58.5 -66l-5 5q31 38 50 74t29 70v0q-12 0 -18 7.5t-6 17.5q0 17 12 30t26 13q25 0 25 -28z" />
<glyph unicode="&#x201a;" horiz-adv-x="208" d="M149 30q0 -23 -14.5 -55.5t-40 -67.5t-58.5 -66l-5 5q31 38 50 74t29 70v0q-12 0 -18 7.5t-6 17.5q0 17 12 30t26 13q25 0 25 -28z" />
<glyph unicode="&#x201c;" horiz-adv-x="325" d="M173 506q0 23 14.5 55.5t40 67.5t58.5 66l5 -5q-31 -38 -50 -74t-29 -70v0q12 0 18 -7t6 -18q0 -17 -12 -30t-26 -13q-25 0 -25 28zM290 506q0 23 14.5 55.5t40.5 67.5t58 66l5 -5q-31 -38 -50 -74t-29 -70v0q12 0 18 -7t6 -18q0 -17 -12 -30t-26 -13q-25 0 -25 28z" />
<glyph unicode="&#x201d;" horiz-adv-x="326" d="M402 667q0 -23 -14.5 -55.5t-40 -67.5t-58.5 -66l-5 5q31 38 50 74t29 70v0q-12 0 -18 7.5t-6 17.5q0 17 12 30t26 13q25 0 25 -28zM285 667q0 -23 -14.5 -55.5t-40 -67.5t-58.5 -66l-5 5q31 38 50 74t29 70v0q-12 0 -18 7.5t-6 17.5q0 17 12 30t26 13q25 0 25 -28z" />
<glyph unicode="&#x201e;" horiz-adv-x="325" d="M266 30q0 -23 -14.5 -55.5t-40 -67.5t-58.5 -66l-5 5q31 38 50 74t29 70v0q-12 0 -18 7.5t-6 17.5q0 17 12 30t26 13q25 0 25 -28zM149 30q0 -23 -14.5 -55.5t-40 -67.5t-58.5 -66l-5 5q31 38 50 74t29 70v0q-12 0 -18 7.5t-6 17.5q0 17 12 30t26 13q25 0 25 -28z" />
<glyph unicode="&#x2020;" horiz-adv-x="498" d="M252 -10h-10l12 125l74 317l-167 -7l-2 1v13t1 14l6 5l167 -7l35 199l1 2q7 2 16.5 3t16.5 2l4 -5l-49 -201l167 7l2 -1v-13t-1 -14l-6 -5l-166 7l-61 -317z" />
<glyph unicode="&#x2021;" horiz-adv-x="498" d="M109 210l6 5l169 -7q3 24 7.5 52t7.5 48l3 20l5.5 19t12.5 45.5t14 49.5l-170 -7l-2 1v13t1 14l6 5l169 -7l31 189l1 2q7 2 16.5 3t16.5 2l4 -5l-49 -191l169 7l2 -1v-13t-1 -14l-6 -5l-168 7q-3 -23 -7 -49.5t-7.5 -45.5l-3.5 -19l-5.5 -20t-13 -48t-13.5 -52l169 7 l2 -1q1 -5 0.5 -13t-1.5 -14l-6 -5l-168 7l-31 -189l-2 -2q-6 -1 -16 -2.5t-17 -2.5l-4 5l50 191l-170 -7l-1 1q-1 5 -0.5 13t0.5 14z" />
<glyph unicode="&#x2022;" horiz-adv-x="387" d="M233 147q-39 0 -60 25t-21 59q0 30 14.5 58t40 46t56.5 18q38 0 58.5 -22t20.5 -57q0 -30 -12.5 -59t-36.5 -48.5t-60 -19.5z" />
<glyph unicode="&#x2026;" horiz-adv-x="469" d="M372 -10q-12 0 -18 7.5t-6 17.5q0 17 12 30t27 13q24 0 24 -23q0 -18 -11.5 -31.5t-27.5 -13.5zM232 -10q-12 0 -18 7.5t-6 17.5q0 17 12 30t27 13q24 0 24 -23q0 -18 -11.5 -31.5t-27.5 -13.5zM92 -10q-12 0 -18 7.5t-6 17.5q0 17 12 30t27 13q24 0 24 -23 q0 -18 -11.5 -31.5t-27.5 -13.5z" />
<glyph unicode="&#x2030;" horiz-adv-x="1185" d="M756 660h38l-543 -670h-37zM425 525q0 -59 -19 -114t-54.5 -90.5t-84.5 -35.5q-47 0 -73 36.5t-26 95.5q0 44 11 86.5t31.5 77t49.5 55t66 20.5q47 0 73 -36t26 -95zM196 417q0 -49 18 -80t56 -31q32 0 56 19.5t39.5 51.5t23.5 70.5t8 76.5q0 50 -18 80.5t-56 30.5 q-32 0 -56 -19.5t-39.5 -51.5t-23.5 -70.5t-8 -76.5zM826 237q0 -59 -19 -114t-54.5 -90.5t-84.5 -35.5q-47 0 -73 36.5t-26 95.5q0 44 11 86.5t31.5 77t49.5 55t66 20.5q47 0 73 -36t26 -95zM1155 237q0 -59 -19 -114t-54.5 -90.5t-84.5 -35.5q-47 0 -73 36.5t-26 95.5 q0 44 11 86.5t31.5 77t49.5 55t66 20.5q47 0 73 -36t26 -95zM597 129q0 -49 18 -80t56 -31q32 0 56 19.5t39.5 51.5t23.5 70.5t8 76.5q0 50 -18 80.5t-56 30.5q-32 0 -56 -19.5t-39.5 -51.5t-23.5 -70.5t-8 -76.5zM926 129q0 -49 18 -80t56 -31q32 0 56 19.5t39.5 51.5 t23.5 70.5t8 76.5q0 50 -18 80.5t-56 30.5q-32 0 -56 -19.5t-39.5 -51.5t-23.5 -70.5t-8 -76.5z" />
<glyph unicode="&#x2039;" horiz-adv-x="332" d="M263 70l-13 -8q-17 36 -37.5 71.5t-39.5 65.5t-34 47l-1 4l3 17q38 29 88 76t101 96l9 -8q-34 -41 -77 -85.5t-87 -91.5q22 -34 46 -85t42 -99z" />
<glyph unicode="&#x203a;" horiz-adv-x="332" d="M299 241q-37 -29 -87.5 -75.5t-101.5 -96.5l-9 8q34 41 77 85.5t87 91.5q-22 34 -46 85t-42 99l13 8q18 -35 38 -71t39.5 -65.5t33.5 -47.5l1 -4z" />
<glyph unicode="&#x2044;" horiz-adv-x="246" d="M444 660h38l-543 -670h-37z" />
<glyph unicode="&#x2070;" horiz-adv-x="362" d="M427 608q0 -59 -19 -114t-54.5 -90.5t-84.5 -35.5q-47 0 -73 36.5t-26 95.5q0 44 11 86.5t31.5 77t49.5 55t66 20.5q47 0 73 -36t26 -95zM198 500q0 -49 18 -80t56 -31q32 0 56 19.5t39.5 51.5t23.5 70.5t8 76.5q0 50 -18 80.5t-56 30.5q-32 0 -56 -19.5t-39.5 -51.5 t-23.5 -70.5t-8 -76.5z" />
<glyph unicode="&#x2071;" horiz-adv-x="194" d="M257 767q-22 0 -22 21q0 14 10.5 25t23.5 11q21 0 21 -21q0 -13 -9 -24.5t-24 -11.5zM144 592l-5 2q11 22 26.5 45t33.5 39.5t35 16.5q9 0 16 -7.5t7 -26.5q0 -18 -7 -49.5t-17 -68.5t-19.5 -73t-16.5 -65.5t-7 -45.5q0 -10 6 -10q11 0 34 24.5t44 52.5l4 -2 q-10 -21 -25.5 -44.5t-33.5 -40t-35 -16.5q-9 0 -16 7.5t-7 26.5q0 18 7 48.5t17 67t19.5 72.5t16.5 66t7 48q0 10 -6 10q-11 0 -34 -24t-44 -53z" />
<glyph unicode="&#x2074;" horiz-adv-x="384" d="M159 484l245 255l17 -4l-52 -248l63 1l-5 -22h-63l-20 -95h-28l20 96l-173 1zM386 698l-202 -213l157 2z" />
<glyph unicode="&#x2075;" horiz-adv-x="314" d="M363 503q0 -58 -60.5 -96.5t-165.5 -41.5l-1 13q92 8 146.5 40.5t54.5 84.5q0 60 -84 60q-33 0 -62 -9l-9 9l39 172q38 -1 77 -2.5t69 -1.5q14 0 21 7t14 20l5 -1q-6 -25 -13.5 -37.5t-28.5 -12.5q-31 0 -64 2t-65 4l-31 -136q26 6 54 6q50 0 77 -20.5t27 -59.5z" />
<glyph unicode="&#x2076;" horiz-adv-x="351" d="M165 484q0 71 33 125.5t90.5 88t128.5 41.5l1 -13q-89 -17 -151.5 -71t-76.5 -131q17 32 47 49.5t63 17.5q44 0 70.5 -28t26.5 -71q0 -34 -16.5 -63t-45.5 -46.5t-66 -17.5q-50 0 -77 36t-27 83zM371 489q0 34 -19 58t-54 24q-25 0 -49.5 -13t-41 -34.5t-16.5 -48.5 q0 -34 20 -62.5t60 -28.5q45 0 72.5 31.5t27.5 73.5z" />
<glyph unicode="&#x2077;" horiz-adv-x="351" d="M242 372q-5 -7 -13 -7q-9 0 -13 8q53 81 101 158t88 151q-41 13 -85.5 23t-68.5 10q-21 0 -30.5 -12t-17.5 -36l-5 1q7 32 16 51.5t35 19.5q39 0 84 -14t81 -27q11 21 21 41q14 -3 14 -13q0 -6 -15 -35t-39.5 -71.5t-53 -89.5t-54.5 -89t-45 -69z" />
<glyph unicode="&#x2078;" horiz-adv-x="333" d="M374 465q0 -26 -16.5 -49t-44.5 -37t-62 -14q-43 0 -71 20.5t-28 56.5q0 38 31 68t85 47q-23 17 -41 37.5t-18 51.5q0 39 29.5 66t74.5 27q41 0 63.5 -21.5t22.5 -53.5q0 -33 -25 -60.5t-69 -44.5q26 -19 47.5 -40t21.5 -54zM235 648q0 -28 17.5 -46.5t39.5 -34.5 q80 36 80 94q0 27 -16 44t-43 17q-33 0 -55.5 -20.5t-22.5 -53.5zM178 445q0 -31 21 -47t55 -16q41 0 67.5 23t26.5 57q0 30 -21.5 49.5t-47.5 37.5q-101 -42 -101 -104z" />
<glyph unicode="&#x2079;" horiz-adv-x="351" d="M421 620q0 -71 -33 -125.5t-90 -88t-129 -41.5l-1 13q89 17 151.5 71t76.5 131q-17 -32 -47 -49.5t-63 -17.5q-43 0 -70 28t-27 71q0 34 16.5 63t45.5 46.5t66 17.5q50 0 77 -36t27 -83zM215 615q0 -34 19.5 -58t53.5 -24q25 0 49.5 13t41 35t16.5 48q0 35 -20 63t-60 28 q-45 0 -72.5 -31.5t-27.5 -73.5z" />
<glyph unicode="&#x207f;" horiz-adv-x="371" d="M177 328q-2 -1 -12.5 -3t-12.5 -2q-6 0 -4 5l18 81l5 24l28 117q11 47 15.5 70.5t4.5 35.5q0 13 -8 13q-14 0 -35 -24t-40 -53l-5 2q9 22 24.5 45t34 39.5t35.5 16.5q9 0 16 -6.5t7 -23.5q0 -23 -12.5 -75.5t-29.5 -114.5q44 100 92.5 160t90.5 60q22 0 31 -12t9 -32 q0 -26 -10.5 -69t-23.5 -89.5t-21 -83.5q-8 -34 -8 -50q0 -10 6 -10q11 0 34 24.5t44 52.5l5 -2q-10 -21 -26 -44.5t-34 -40t-35 -16.5q-9 0 -16 7.5t-7 26.5q0 10 2.5 23t5.5 29q9 38 22 84.5t23.5 87.5t10.5 64q0 25 -21 25q-23 0 -55.5 -33t-66.5 -91.5t-63 -136.5z" />
<glyph unicode="&#x2080;" horiz-adv-x="362" d="M327 136q0 -59 -19 -114t-54.5 -90.5t-84.5 -35.5q-47 0 -73 36.5t-26 95.5q0 44 11 86.5t31.5 77t49.5 55t66 20.5q47 0 73 -36t26 -95zM98 28q0 -49 18 -80t56 -31q32 0 56 19.5t39.5 51.5t23.5 70.5t8 76.5q0 50 -18 80.5t-56 30.5q-32 0 -56 -19.5t-39.5 -51.5 t-23.5 -70.5t-8 -76.5z" />
<glyph unicode="&#x2081;" horiz-adv-x="278" d="M201 -101h-165v6l60 7q12 1 15 11l69 321l-72 -8v6l101 25l4 -4l-73 -340l-2 -9l64 -9z" />
<glyph unicode="&#x2082;" horiz-adv-x="348" d="M114 -85q-43 0 -69 -21l-8 14q89 67 143 113t79 82.5t25 72.5q0 32 -20 50t-56 18q-33 0 -63 -20.5t-48 -58.5l-6 2q14 45 49.5 71.5t78.5 26.5q42 0 67.5 -23t25.5 -62q0 -38 -23.5 -73t-61.5 -69.5t-83 -71.5q-12 -10 -24.5 -19t-26.5 -18q10 3 20 4.5t20 1.5 q18 0 40.5 -4t43 -8.5t30.5 -4.5q12 0 19 15.5t15 34.5l4 -1q-2 -13 -5.5 -25t-5.5 -21q-4 -13 -10 -20t-17 -7q-17 0 -40 5.5t-47.5 10.5t-45.5 5z" />
<glyph unicode="&#x2083;" horiz-adv-x="323" d="M269 17q0 -52 -61.5 -85t-162.5 -39l-2 13q88 11 142.5 38t54.5 72q0 33 -27 48.5t-65 15.5h-13t-17 -1l-2 13q71 8 110 34.5t39 65.5q0 23 -16 38.5t-47 15.5q-33 0 -60 -18t-44 -50l-4 2q11 40 42.5 63.5t70.5 23.5q40 0 63 -20.5t23 -54.5q0 -35 -29.5 -62t-76.5 -38 q36 -6 59 -25.5t23 -49.5z" />
<glyph unicode="&#x2084;" horiz-adv-x="385" d="M59 12l245 255l17 -4l-52 -248l63 1l-5 -22h-63l-20 -95h-28l20 96l-173 1zM286 226l-202 -213l157 2z" />
<glyph unicode="&#x2085;" horiz-adv-x="315" d="M263 31q0 -58 -60.5 -96.5t-165.5 -41.5l-1 13q92 8 146.5 40.5t54.5 84.5q0 60 -84 60q-33 0 -62 -9l-9 9l39 172q38 -1 77 -2.5t69 -1.5q14 0 21 7t14 20l5 -1q-6 -25 -13.5 -37.5t-28.5 -12.5q-31 0 -64 2t-65 4l-31 -136q26 6 54 6q50 0 77 -20.5t27 -59.5z" />
<glyph unicode="&#x2086;" horiz-adv-x="351" d="M64 12q0 71 33 125.5t90 88t129 41.5l1 -13q-89 -17 -151.5 -71t-76.5 -131q17 32 47 49.5t63 17.5q44 0 70.5 -28t26.5 -71q0 -34 -16.5 -63t-45.5 -46.5t-66 -17.5q-50 0 -77 36t-27 83zM270 17q0 34 -19 58t-54 24q-25 0 -49.5 -13t-41 -34.5t-16.5 -48.5 q0 -34 20 -62.5t60 -28.5q45 0 72.5 31.5t27.5 73.5z" />
<glyph unicode="&#x2087;" horiz-adv-x="351" d="M142 -100q-5 -7 -13 -7q-9 0 -13 8q53 81 101 158t88 151q-41 13 -85.5 23t-68.5 10q-21 0 -30.5 -12t-17.5 -36l-5 1q7 32 16 51.5t35 19.5q39 0 84 -14t81 -27q11 21 21 41q14 -3 14 -13q0 -6 -15 -35t-39.5 -71.5t-53 -89.5t-54.5 -89t-45 -69z" />
<glyph unicode="&#x2088;" horiz-adv-x="333" d="M274 -7q0 -26 -16.5 -49t-44.5 -37t-62 -14q-43 0 -71 20.5t-28 56.5q0 38 31 68t85 47q-23 17 -41 37.5t-18 51.5q0 39 29.5 66t74.5 27q41 0 63.5 -21.5t22.5 -53.5q0 -33 -25 -60.5t-69 -44.5q26 -19 47.5 -40t21.5 -54zM135 176q0 -28 17.5 -46.5t39.5 -34.5 q80 36 80 94q0 27 -16 44t-43 17q-33 0 -55.5 -20.5t-22.5 -53.5zM78 -27q0 -31 21 -47t55 -16q41 0 67.5 23t26.5 57q0 30 -21.5 49.5t-47.5 37.5q-101 -42 -101 -104z" />
</font>
</defs>
</svg>
