<?xml version="1.0" standalone="no"?>
<!DOCTYPE svg PUBLIC "-//W3C//DTD SVG 1.1//EN" "http://www.w3.org/Graphics/SVG/1.1/DTD/svg11.dtd" >
<svg xmlns="http://www.w3.org/2000/svg" xmlns:xlink="http://www.w3.org/1999/xlink" version="1.1">
<metadata></metadata>
<defs>
<font id="indivisa_display_serifheavy" horiz-adv-x="615" >
<font-face units-per-em="1000" ascent="800" descent="-200" />
<missing-glyph horiz-adv-x="200" />
<glyph unicode="ff" horiz-adv-x="708" d="M308 0h-296l-2 14l18 10q17 9 22 18t5 28v365h-63l-2 14l65 25h1q5 60 36.5 110.5t88.5 80.5t138 30q41 0 81 -12.5t68 -33.5q30 22 68.5 34.5t86.5 12.5q47 0 83.5 -14t57.5 -37t21 -51q0 -35 -31 -50.5t-72 -15.5q-17 0 -37 3q0 59 -9 92t-32 33q-29 0 -29 -48 q0 -25 3.5 -57t5.5 -80h119v-35h-118v-396l65 -25l-2 -14h-316l-2 14l18 10q17 9 22 18t5 28v364h-110v-396l45 -25zM255 590q0 -24 4 -50.5t6 -69.5h98l13 5q2 24 8 47q-4 58 -18.5 95.5t-53.5 37.5q-25 0 -41 -17t-16 -48z" />
<glyph unicode="ffi" horiz-adv-x="955" d="M308 0h-296l-2 14l18 10q17 9 22 18t5 28v365h-63l-2 14l66 25v0q5 60 36.5 110.5t88.5 80.5t138 30q43 0 84.5 -14t69.5 -35q33 23 77 36t98 13q98 0 152.5 -29t54.5 -66q0 -33 -32.5 -48t-80.5 -15q-11 0 -23 0.5t-24 2.5q0 50 -12.5 82.5t-50.5 32.5q-25 0 -41 -17 t-16 -48q0 -24 4 -50.5t6 -69.5h110q26 11 63.5 20t75.5 14.5t63 5.5l8 -8v-463l45 -25l-2 -14h-296l-2 14l18 10q17 9 22 18t5 28v365h-110v-396l45 -25l-2 -14h-296l-2 14l18 10q17 9 22 18t5 28v365h-110v-396l45 -25zM255 590q0 -24 4 -50.5t6 -69.5h111q2 27 9 51 q-4 59 -19 96.5t-54 37.5q-25 0 -41 -17t-16 -48z" />
<glyph unicode="ffl" horiz-adv-x="955" d="M308 0h-296l-2 14l18 10q17 9 22 18t5 28v365h-63l-2 14l65 25h1q5 60 36.5 110.5t88.5 80.5t138 30q43 0 83.5 -13.5t69.5 -34.5q31 22 73 35t94 13q31 0 61 -6.5t55 -17.5q38 9 75 16.5t67 7.5l8 -8v-648l45 -25l-2 -14h-296l-2 14l18 10q17 9 22 18t5 28v365h-110 v-396l45 -25l-2 -14h-296l-2 14l18 10q17 9 22 18t5 28v365h-110v-396l45 -25zM255 590q0 -24 4 -50.5t6 -69.5h111q2 25 8 49q-4 59 -18 97.5t-54 38.5q-25 0 -41 -17t-16 -48zM575 590q0 -24 4 -50.5t6 -69.5h110v70q0 50 -12.5 82.5t-50.5 32.5q-25 0 -41 -17t-16 -48z " />
<glyph unicode="&#x2f;symbol&#x31;&#x2f;" horiz-adv-x="5534" d="M1865 412q-25 0 -40.5 14.5t-15.5 37.5q0 24 15.5 45t39 34.5t48.5 13.5q24 0 39 -13.5t15 -37.5t-14.5 -45.5t-37.5 -35t-49 -13.5zM1284 412q-26 0 -41.5 14.5t-15.5 37.5q0 24 15.5 45t39.5 34.5t49 13.5q24 0 38.5 -13.5t14.5 -37.5t-14.5 -45.5t-37 -35t-48.5 -13.5 zM959 0q0 21 2.5 46.5t8.5 61.5q-16 -49 -51 -82t-79 -33q-41 0 -63 30t-22 82q0 45 15.5 91t46.5 85.5t76.5 63.5t104.5 24h12.5t12.5 -1l16 73l6 102l136 7q0 -40 -9.5 -95t-23 -116.5t-27 -123.5t-23 -117.5t-9.5 -97.5h-130zM100 0l78 364q8 38 13.5 72.5t7.5 63.5 l128 7l11 -15l-104 -492h-134zM3503 492l-57 -492h-131l20 175q3 30 9 69t12.5 78t11.5 68h-3q-16 -53 -37 -107.5t-44 -107.5l-76 -175h-149l-2 175q-1 56 1 109t8 106h-2q-15 -61 -30 -115.5t-29 -99.5l-53 -175h-109l154 500l184 6l1 -137q1 -50 -2.5 -121.5 t-12.5 -137.5h2q20 65 36 111t30.5 81t27.5 67l56 131l169 7zM5316 300q-15 -74 -23 -110.5t-11 -51t-3 -21.5q0 -34 36 -34q13 0 28 5t31 13l-9 -79q-20 -11 -50 -20t-64 -9q-50 0 -77.5 25t-27.5 75q0 11 1.5 23.5t6 33.5t12.5 57.5t20 95.5l-47 1l9 44l54 14l53 95l81 6 l13 -15l-20 -86h99l6 -14l-17 -51zM336 0q0 28 4 62t13 82t24 116l6 102l137 7q0 -18 -2 -41t-5 -48h2q29 49 65.5 69t68.5 20q35 0 53.5 -19.5t18.5 -51.5q0 -23 -8 -62.5t-18 -84.5q-7 -33 -11 -57t-5.5 -45.5t-1.5 -48.5h-131q0 38 4.5 69.5t14.5 80.5q7 35 11 55.5 t4 31.5q0 24 -17 24t-34 -22.5t-30.5 -60.5t-22 -84t-9.5 -94h-131zM1170 0q0 39 7 87.5t20 105.5l14 67l6 102l137 7q0 -36 -8 -81.5t-19 -95.5t-19 -99t-8 -93h-130zM1399 362l140 7q6 -59 4.5 -137.5t-9.5 -151.5h2q23 45 42 95t32 99t17 90q17 4 28.5 4.5t21.5 0.5 q28 0 46.5 -7t18.5 -35q0 -22 -13.5 -60.5t-36.5 -85t-53.5 -94t-63.5 -87.5h-149q-2 111 -9.5 207.5t-17.5 154.5zM1752 0q0 39 7 87.5t19 105.5l15 67l6 102l137 7q0 -36 -8 -81.5t-19 -95.5t-19 -99t-8 -93h-130zM4716 0q0 28 4 62t13 82t24 116l6 102l137 7 q0 -18 -2.5 -41t-4.5 -48h2q29 49 65 69t69 20q35 0 53.5 -19.5t18.5 -51.5q0 -23 -8 -62.5t-18 -84.5q-7 -33 -11 -57t-6 -45.5t-2 -48.5h-130q0 38 4.5 69.5t14.5 80.5q7 35 11 55.5t4 31.5q0 24 -17 24q-18 0 -34.5 -22.5t-30.5 -60.5t-22.5 -84t-9.5 -94h-130zM2245 256 q-25 14 -51.5 22t-45.5 8q-17 0 -29.5 -7t-12.5 -19q0 -13 13 -22t32 -17.5t38 -20.5t32 -30.5t13 -47.5q0 -39 -25 -68t-66.5 -45t-89.5 -16q-33 0 -66.5 7.5t-51.5 20.5l27 93q27 -18 58.5 -28t52.5 -10q20 0 30 8t10 18q0 13 -13 22t-32 18t-38 21t-32 30t-13 46 q0 39 25.5 68t67.5 45.5t90 16.5q20 0 48.5 -3.5t55.5 -14.5zM2525 369q32 0 73.5 -7.5t72.5 -24.5l-29 -128q-20 -94 -25.5 -140.5t-5.5 -68.5h-130q0 20 2.5 45t9.5 67q-15 -50 -50.5 -84.5t-81.5 -34.5q-41 0 -62.5 30t-21.5 83q0 44 15.5 90.5t46.5 85.5t77.5 63 t108.5 24zM4653 51q-32 -28 -74 -43t-85 -15q-62 0 -102 33.5t-40 103.5q0 46 17.5 88.5t49.5 76.5t75 54t94 20q53 0 86 -23t33 -65q0 -56 -59 -95.5t-162 -44.5v-1q0 -29 15 -46.5t48 -17.5q22 0 45 7.5t45 20.5zM3936 0q0 28 4 62t13.5 82t24.5 116l5 102l137 7 q0 -18 -2 -41t-5 -48h2q29 49 65.5 69t68.5 20q35 0 53.5 -19.5t18.5 -51.5q0 -23 -8 -62.5t-18 -84.5q-7 -33 -11 -57t-5.5 -45.5t-1.5 -48.5h-131q0 38 4.5 69.5t14.5 80.5q8 35 11.5 55.5t3.5 31.5q0 24 -17 24t-34 -22.5t-30.5 -60.5t-22 -84t-9.5 -94h-131zM3768 369 q32 0 73 -7.5t72 -24.5l-28 -128q-20 -94 -25.5 -140.5t-5.5 -68.5h-130q0 20 2.5 45t9.5 67q-15 -50 -50.5 -84.5t-81.5 -34.5q-41 0 -63 30t-22 83q0 44 15.5 90.5t47 85.5t78 63t108.5 24zM4490 177q46 10 72.5 33.5t26.5 59.5q0 17 -5.5 24t-16.5 7q-20 0 -36 -20 t-26 -48.5t-15 -55.5zM3677 101q17 0 33 21t30 54t22 69q2 11 4.5 22t4.5 22q-16 8 -27 8q-18 0 -34.5 -16t-29 -40.5t-20 -51.5t-7.5 -48q0 -40 24 -40zM913 101q16 0 31 19.5t28.5 50t22.5 64.5l4 20l4 20l3 14q-14 8 -27 8q-18 0 -34 -16t-28.5 -40.5t-20 -51.5t-7.5 -48 q0 -40 24 -40zM2435 101q16 0 32.5 21t30 54t21.5 69q2 11 4.5 22t4.5 22q-14 8 -27 8q-18 0 -34 -16t-29 -40.5t-20 -51.5t-7 -48q0 -40 24 -40z" />
<glyph unicode="&#x2f;symbol&#x32;&#x2f;" horiz-adv-x="932" d="M494 570l52 -90l-137 -240h-103l137 240l-52 90h103zM357 570l52 -90l-138 -240h-103l138 240l-52 90h103zM752 120h-103l-137 240l51 90l137 -240h103zM683 0h-103l-137 240l51 90l138 -240h103zM100 120l51 90h275l51 -90h-274l-52 -90zM168 0l52 90h274l52 -90h-275 l-51 -90zM789 88q18 0 30.5 -13t12.5 -31t-12.5 -31t-30.5 -13t-30.5 13t-12.5 31t12.5 31t30.5 13zM829 44q0 17 -11.5 28.5t-28.5 11.5q-16 0 -28 -11.5t-12 -28.5q0 -16 12 -28t28 -12q17 0 28.5 12t11.5 28zM771 69h18h5t6 -2q5 -4 5 -11q0 -5 -3 -8q-1 -2 -2.5 -2.5 t-3.5 -1.5q7 -1 8 -9q0 -8 3 -16h-8q-1 2 -1 6t-1 7q-1 5 -2.5 7.5t-8.5 2.5h-8v-23h-7v50zM778 47h10h3.5t3.5 1q3 3 3 7q0 6 -4 7t-6 1h-10v-16z" />
<glyph unicode="&#x2f;symbol&#x33;&#x2f;" horiz-adv-x="957" d="M505 638l68 -270h270l-203 -135l136 -270l-271 135l-270 -270l135 405l-270 203l338 -68zM814 87q18 0 30.5 -12.5t12.5 -31.5q0 -18 -12.5 -30.5t-30.5 -12.5t-30.5 12.5t-12.5 30.5q0 19 12.5 31.5t30.5 12.5zM854 43q0 17 -11.5 29t-28.5 12q-16 0 -28 -12t-12 -29 q0 -16 12 -28t28 -12q17 0 28.5 12t11.5 28zM796 68h18h5.5t5.5 -2q6 -3 6 -10q0 -5 -4 -9q-3 -3 -6 -3q7 -3 8 -10q1 -4 1.5 -7.5t1.5 -8.5h-7q-1 3 -1.5 7t-1.5 7q0 9 -10 9h-9v-23h-7v50zM803 47h10h3.5t3.5 1l2 2t1 4q0 7 -4 8t-6 1h-10v-16z" />
<glyph unicode="&#x2f;symbol&#x34;&#x2f;" horiz-adv-x="2607" d="M1684 406q0 32 -2.5 63t-8.5 65l126 14l15 -15v-533h-130v406zM1889 406q0 62 -10 128l126 14l14 -15v-533h-130v406zM427 101v-101h-320v362q0 38 -1.5 72t-5.5 63l126 7l14 -14v-396zM925 21l7 109q31 -18 72 -27t72 -9q50 0 50 36q0 19 -20.5 34t-50 31t-59.5 37 t-50.5 51t-20.5 74q0 48 26 80.5t70 49.5t97 17q81 0 127 -18l-14 -111q-28 14 -55 21.5t-56 7.5q-28 0 -43 -11t-15 -29q0 -22 20.5 -38.5t50.5 -32.5t59.5 -36.5t50 -49.5t20.5 -73q0 -67 -54 -104t-139 -37q-40 0 -82.5 8t-62.5 20zM795 0l-106 -7q-7 11 -12 24t-9 25h-4 q-15 -22 -42.5 -35.5t-61.5 -13.5q-41 0 -69 22t-28 67q0 61 53.5 88.5t137.5 29.5v20q0 54 -58 54q-55 0 -108 -29l-8 97q27 10 68.5 18t81.5 8q154 0 154 -135q0 -38 -2 -69.5t-2 -69.5q0 -24 4.5 -50.5t10.5 -43.5zM1626 0l-107 -7q-7 11 -12 24t-9 25h-3 q-15 -22 -42.5 -35.5t-62.5 -13.5q-40 0 -68 22t-28 67q0 61 53 88.5t138 29.5v20q0 54 -58 54q-54 0 -109 -29l-7 97q27 10 68.5 18t81.5 8q153 0 153 -135q0 -38 -1.5 -69.5t-1.5 -69.5q0 -24 4.5 -50.5t10.5 -43.5zM2405 213v-17t-1 -19l-11 -11h-191q8 -45 33.5 -64 t64.5 -19q24 0 45.5 6t38.5 15l7 -81q-17 -11 -49.5 -20.5t-77.5 -9.5q-88 0 -143 47t-55 135q0 58 24 101t66 67.5t94 24.5q73 0 114 -43.5t41 -111.5zM2199 207l78 4q1 5 1.5 11t0.5 15q0 23 -7.5 41t-26.5 18q-23 0 -34 -25.5t-12 -63.5zM654 74v88q-27 -3 -46 -17 t-19 -40q0 -18 10.5 -29t26.5 -11t28 9zM1485 74v88q-27 -3 -46 -17t-19 -40q0 -18 10 -29t27 -11q16 0 28 9zM2464 85q18 0 30.5 -13t12.5 -31t-12.5 -31t-30.5 -13t-31 13t-13 31t13 31t31 13zM2504 41q0 17 -11.5 28.5t-28.5 11.5q-16 0 -28 -11.5t-12 -28.5 q0 -16 12 -28t28 -12q17 0 28.5 12t11.5 28zM2446 66h18q2 0 5 -0.5t6 -2.5q5 -2 5 -10q0 -4 -3 -9q-3 -3 -6 -3q7 -1 8 -10q0 -7 3 -15h-8q-1 2 -1 6t-1 7q-1 5 -2.5 7t-8.5 2h-8v-22h-7v50zM2453 44h10h3.5t3.5 1q3 3 3 7q0 6 -4 7t-6 1h-10v-16z" />
<glyph unicode="&#x2f;symbol&#x35;&#x2f;" horiz-adv-x="705" d="M232 -6l-132 136l124 234l129 -136zM474 -6l-121 234l128 136l124 -234z" />
<glyph unicode=" "  horiz-adv-x="200" />
<glyph unicode="&#x09;" horiz-adv-x="200" />
<glyph unicode="&#xa0;" horiz-adv-x="200" />
<glyph unicode="!" horiz-adv-x="433" d="M80 668l4 10q59 9 116.5 13t96.5 4q30 0 43 -10.5t13 -36.5q0 -17 -5 -37.5t-13 -52.5l-86 -324h-70zM312 81q0 -42 -32.5 -66.5t-79.5 -24.5q-42 0 -68.5 21.5t-26.5 56.5q0 41 33.5 66.5t79.5 25.5q42 0 68 -21.5t26 -57.5z" />
<glyph unicode="&#x22;" horiz-adv-x="446" d="M40 682l4 6q36 4 71 5.5t76 1.5l13 -17l-73 -269h-34l-23 130zM242 682l4 6q36 4 71 5.5t76 1.5l13 -17l-73 -269h-34l-23 130z" />
<glyph unicode="#" horiz-adv-x="686" d="M580 164h-113l-43 -174l-91 16l-6 6l38 152h-112l-43 -174l-91 16l-6 6l38 152h-105l-6 6l13 84h120l35 142h-109l-6 6l13 84h124l43 174l91 -16l6 -6l-38 -152h112l43 174l91 -16l6 -6l-38 -152h94l6 -6l-13 -84h-109l-35 -142h98l6 -6zM275 254h112l35 142h-112z" />
<glyph unicode="$" horiz-adv-x="614" d="M337 -120l-42 -3l-8 6v107h-6q-74 0 -123 6.5t-73 18.5q-12 6 -19.5 17.5t-7.5 30.5q0 32 9.5 64t23.5 59t27 42l10 -2l103 -194q6 -1 13 -1.5t13 -0.5q37 0 59.5 24.5t22.5 64.5q0 34 -20.5 58.5t-52.5 45t-67.5 41.5t-67.5 48t-52.5 63.5t-20.5 88.5q0 60 34 102.5 t90.5 66t124.5 26.5v111l42 3l8 -6v-107q77 -3 116.5 -14.5t56.5 -21.5q11 -7 16.5 -15.5t5.5 -23.5q0 -25 -12 -57t-28 -60t-30 -41l-10 2l-89 189q-15 2 -26 2q-34 0 -58 -21.5t-24 -61.5q0 -35 21 -62t54.5 -50t71 -45.5t71 -49.5t54.5 -62t21 -82q0 -63 -29.5 -103.5 t-81.5 -62.5t-120 -28v-112z" />
<glyph unicode="%" horiz-adv-x="1040" d="M668 660h101l-397 -670h-103zM445 475q0 -63 -29 -105.5t-76 -63.5t-101 -21q-53 0 -98.5 21t-73 62.5t-27.5 103.5q0 63 30 104t77 61t98 20q53 0 98.5 -19.5t73.5 -59.5t28 -103zM243 313q21 0 26.5 41.5t5.5 120.5q0 78 -5 116t-27 38t-27 -38.5t-6 -118.5 q-1 -82 6.5 -120.5t26.5 -38.5zM1000 183q0 -64 -29 -106t-76 -63t-101 -21q-53 0 -98.5 21t-73 62.5t-27.5 103.5q0 63 30 104t77 61t98 20q53 0 98.5 -19.5t73.5 -59.5t28 -103zM798 21q21 0 26.5 41.5t5.5 120.5q0 78 -5 116t-27 38t-27 -38.5t-6 -118.5 q-1 -82 6.5 -120.5t26.5 -38.5z" />
<glyph unicode="&#x26;" horiz-adv-x="860" d="M376 -10q-100 0 -171 23t-108 62.5t-37 86.5q0 54 52 91t138 48l-38 38q-27 27 -47 61t-20 77q0 52 35 94t96.5 67t141.5 25q67 0 113 -18.5t70 -48t24 -63.5q0 -38 -26.5 -60.5t-72.5 -22.5q-16 0 -30.5 1.5t-25.5 5.5q3 17 4 33t1 29q0 52 -15.5 76.5t-40.5 24.5 q-28 0 -43.5 -20t-15.5 -54q0 -39 21.5 -77.5t61.5 -79.5l173 -177q3 19 3 40q0 53 -9 86t-21 52q14 17 36.5 27t51.5 10q43 0 70 -28.5t27 -83.5q0 -48 -17.5 -96.5t-52.5 -90.5q29 -23 55.5 -33.5t56.5 -10.5q10 -1 20 0l4 -14q-22 -29 -60 -55t-99 -26q-36 0 -67.5 8.5 t-59.5 23.5q-38 -14 -82.5 -22.5t-95.5 -8.5zM270 200q0 -70 39 -112.5t113 -42.5q41 0 76 14q-20 15 -39.5 33.5t-39.5 38.5l-137 138q-7 -17 -9.5 -34.5t-2.5 -34.5z" />
<glyph unicode="'" horiz-adv-x="244" d="M40 682l4 6q36 4 71 5.5t76 1.5l13 -17l-73 -269h-34l-23 130z" />
<glyph unicode="(" horiz-adv-x="420" d="M400 -106l-12 -17q-148 60 -228 160.5t-80 248.5t80 248.5t228 160.5l12 -17q-102 -135 -102 -392q0 -252 102 -392z" />
<glyph unicode=")" horiz-adv-x="420" d="M20 678l12 17q148 -60 228 -160.5t80 -248.5t-80 -248.5t-228 -160.5l-12 17q102 135 102 392q0 252 -102 392z" />
<glyph unicode="*" horiz-adv-x="416" d="M240 441q0 -14 -9 -22t-23 -8t-23 8t-9 22q0 17 6.5 38.5t10.5 47.5q-20 -17 -36 -33.5t-30 -24.5q-12 -7 -23 -3t-19 16q-7 12 -4.5 24t14.5 19q14 8 36 13.5t47 14.5q-25 9 -47 14.5t-36 13.5q-12 8 -14.5 19.5t4.5 23.5q8 12 19 16t23 -3q14 -8 30 -24.5t36 -33.5 q-4 26 -10.5 48t-6.5 38q0 14 9 22t23 8t23 -8t9 -22q0 -16 -6 -38t-11 -48q20 17 36 33.5t30 24.5q12 7 23.5 3t18.5 -16t4.5 -23.5t-14.5 -19.5q-14 -8 -36 -13.5t-47 -14.5q25 -9 47 -14.5t36 -13.5q12 -7 14.5 -19t-4.5 -24t-18.5 -16t-23.5 3q-14 8 -30 24.5t-36 33.5 q5 -26 11 -47.5t6 -38.5z" />
<glyph unicode="+" horiz-adv-x="599" d="M510 256h-136v-144h-147l-1 144h-146v132q26 1 64 2t81 2l-1 147h150v-146q40 1 75.5 1h61.5l8 -8z" />
<glyph unicode="," horiz-adv-x="263" d="M223 72q0 -49 -26 -96t-65 -83t-79 -52l-13 12q20 24 40.5 61.5t28.5 77.5q-29 6 -47.5 25.5t-18.5 51.5q0 45 27 70t64 25q41 0 65 -26t24 -66z" />
<glyph unicode="-" horiz-adv-x="376" d="M24 250v45h328v-45h-328z" />
<glyph unicode="." horiz-adv-x="260" d="M128 -10q-38 0 -63 22.5t-25 59.5q0 40 28.5 66t68.5 26q35 0 59 -21.5t24 -56.5q0 -40 -26 -68t-66 -28z" />
<glyph unicode="/" horiz-adv-x="423" d="M146 -195l-83 20l-3 7l217 863l83 -20l3 -7z" />
<glyph unicode="0" horiz-adv-x="658" d="M626 330q0 -113 -42 -189t-110.5 -113.5t-148.5 -37.5q-81 0 -147.5 37.5t-106 112t-39.5 185.5q0 84 25.5 147t68 105t96.5 62.5t111 20.5q79 0 145.5 -35.5t107 -108.5t40.5 -186zM331 32q34 0 46.5 75t13.5 223q1 147 -12 218.5t-48 71.5q-36 0 -49.5 -73t-14.5 -222 t14.5 -221t49.5 -72z" />
<glyph unicode="1" horiz-adv-x="397" d="M376 0h-357l-2 16l48 15q18 5 22.5 13.5t4.5 27.5v488l-73 5l-2 14l285 81l8 -8v-611l68 -25z" />
<glyph unicode="2" horiz-adv-x="540" d="M51 0l-13 115q107 68 166.5 137t59.5 149q0 44 -27.5 74t-75.5 30q-38 0 -71 -21.5t-52 -62.5l-14 4q14 78 52 130.5t93 78.5t119 26q65 0 112.5 -24t73 -65.5t25.5 -95.5q0 -51 -26.5 -95t-71.5 -82t-103 -71t-121 -62h226q41 0 60 18.5t31 51.5l14 -1q0 -30 -4 -73 t-10 -86.5t-14 -74.5h-429z" />
<glyph unicode="3" horiz-adv-x="532" d="M500 165q0 -56 -39.5 -95.5t-103 -59.5t-135.5 -20q-57 0 -110 10t-86.5 32.5t-33.5 59.5q0 39 42.5 62.5t102.5 25.5l5 -3q0 -64 16 -105.5t51 -41.5q56 0 56 110q0 65 -35.5 100.5t-86.5 35.5q-16 0 -33 -3l-8 29q72 10 112.5 40.5t40.5 77.5q0 36 -23.5 58t-62.5 22 q-35 0 -69.5 -20.5t-55.5 -60.5l-13 6q14 73 51 125.5t90.5 81t116.5 28.5q60 0 105.5 -21t70.5 -57t25 -82q0 -44 -20.5 -74.5t-54 -51t-73 -32t-78.5 -17.5q67 -4 120 -23t84.5 -53.5t31.5 -83.5z" />
<glyph unicode="4" horiz-adv-x="565" d="M0 230l336 430l126 -10v-420h87l-8 -90h-79v-140h-218v140h-234zM64 230h180v243z" />
<glyph unicode="5" horiz-adv-x="542" d="M518 166q0 -59 -38 -98t-101.5 -58.5t-141.5 -19.5q-63 0 -113 12t-79 35t-29 55q0 26 19.5 45.5t52.5 31t73 11.5l5 -3q0 -64 15 -105.5t49 -41.5q26 0 40 27.5t14 69.5q0 62 -27.5 101.5t-76.5 59t-112 20.5l-12 13l9 329h423q1 -58 -6 -118.5t-19 -115.5h-14 q-7 41 -20.5 55t-51.5 14h-235l-5 -136q32 4 72 4q94 0 163.5 -23t107.5 -65t38 -99z" />
<glyph unicode="6" horiz-adv-x="622" d="M598 208q0 -64 -33 -113.5t-95 -77t-148 -27.5q-135 0 -212.5 70.5t-77.5 201.5q0 115 59 204.5t171.5 141.5t272.5 52l3 -14q-102 -37 -163.5 -101.5t-87.5 -155.5q20 7 42 10t44 3q66 0 116.5 -22t79.5 -65t29 -107zM267 230q0 -105 12.5 -152.5t37.5 -47.5t35.5 40 t10.5 95q0 93 -22 139t-61 46h-2q-11 -55 -11 -120z" />
<glyph unicode="7" horiz-adv-x="476" d="M332 0h-215q0 105 40 194t107.5 161.5t149.5 129.5h-324q-24 0 -36.5 -14.5t-23.5 -52.5h-14q1 30 4.5 73t9.5 86t14 73h419l13 -160q-72 -67 -110 -195.5t-34 -294.5z" />
<glyph unicode="8" horiz-adv-x="605" d="M581 178q0 -51 -34.5 -93.5t-98.5 -68.5t-155 -26q-75 0 -136 17.5t-97 51t-36 82.5q0 58 49.5 96.5t125.5 48.5q-37 24 -70.5 50.5t-55 60.5t-21.5 81q0 51 33 92t93.5 65.5t142.5 24.5q67 0 119.5 -19t82.5 -52t30 -74q0 -38 -19.5 -63t-50.5 -41t-65 -27 q40 -25 77.5 -53t61.5 -65t24 -88zM270 557q0 -47 28.5 -79.5t69.5 -60.5q14 54 15 108q1 45 -13.5 70t-43.5 25q-26 0 -41 -18.5t-15 -44.5zM229 145q0 -56 19 -85.5t50 -29.5q26 0 42 22t16 57q0 49 -31.5 83t-75.5 63q-20 -52 -20 -110z" />
<glyph unicode="9" horiz-adv-x="622" d="M24 442q0 65 33 114t95 76.5t148 27.5q135 0 212.5 -70.5t77.5 -201.5q0 -114 -59 -204t-171.5 -142t-272.5 -52l-3 14q102 37 163.5 101.5t87.5 155.5q-20 -7 -42 -10t-44 -3q-65 0 -116 22t-80 65.5t-29 106.5zM259 485q0 -93 22 -139t61 -46h2q11 55 11 120 q0 105 -12 152.5t-38 47.5q-25 0 -35.5 -39.5t-10.5 -95.5z" />
<glyph unicode=":" horiz-adv-x="260" d="M128 336q-38 0 -63 22.5t-25 59.5q0 40 28.5 66t68.5 26q35 0 59 -21.5t24 -56.5q0 -40 -26 -68t-66 -28zM128 -10q-38 0 -63 22.5t-25 59.5q0 40 28.5 66t68.5 26q35 0 59 -21.5t24 -56.5q0 -40 -26 -68t-66 -28z" />
<glyph unicode=";" horiz-adv-x="263" d="M128 336q-38 0 -63 22.5t-25 59.5q0 40 28.5 66t68.5 26q35 0 59 -21.5t24 -56.5q0 -40 -26 -68t-66 -28zM223 72q0 -49 -26 -96t-65 -83t-79 -52l-13 12q20 24 40.5 61.5t28.5 77.5q-29 6 -47.5 25.5t-18.5 51.5q0 45 27 70t64 25q41 0 65 -26t24 -66z" />
<glyph unicode="&#x3c;" horiz-adv-x="600" d="M510 566v-160l-243 -81l242 -77v-160q-29 10 -72.5 26.5t-94 37t-100.5 41t-92.5 39t-70.5 31.5l-4 11v115z" />
<glyph unicode="=" horiz-adv-x="599" d="M510 363h-430v132q36 2 93 3t121 1.5t121.5 1t95.5 0.5l8 -8zM510 149h-430v132q36 2 93 3t121 1.5t121.5 1t95.5 0.5l8 -8z" />
<glyph unicode="&#x3e;" horiz-adv-x="600" d="M90 85v160l243 81l-242 77v160q29 -10 72.5 -26.5t94 -37t100.5 -41t92.5 -39t70.5 -31.5l4 -11v-115z" />
<glyph unicode="?" horiz-adv-x="568" d="M329 233l-8 -8q-8 -1 -11.5 -1h-8.5q-35 0 -63.5 16t-28.5 48q0 14 3.5 26.5t9.5 24.5q12 24 31.5 46.5t38.5 47t32.5 54.5t13.5 70q0 39 -14 68.5t-47 29.5q-35 0 -51 -35t-16 -83q0 -20 2 -41.5t6 -49.5q-14 -7 -31 -11.5t-43 -4.5q-39 0 -71.5 12t-52.5 35t-20 54 q0 47 41 84t108 58.5t145 21.5q80 0 141.5 -22t97 -62t35.5 -94q0 -38 -21 -69t-53.5 -55t-65.5 -41t-58.5 -28t-32.5 -16q-8 -6 -8 -21v-54zM387 81q0 -42 -32.5 -66.5t-79.5 -24.5q-42 0 -68.5 21.5t-26.5 56.5q0 41 33.5 66.5t79.5 25.5q42 0 68 -21.5t26 -57.5z" />
<glyph unicode="@" horiz-adv-x="1038" d="M807 69q20 0 44 19.5t46 56t36.5 89t14.5 118.5q0 87 -46.5 154t-128 105.5t-187.5 38.5q-69 0 -139 -21.5t-134 -62.5t-114.5 -99t-79.5 -131t-29 -158q0 -70 26 -130t73.5 -104.5t112 -69t140.5 -24.5q68 0 119 11.5t91 30.5t75 39l16 -26q-55 -43 -132 -71.5 t-178 -28.5q-85 0 -157 27.5t-125 77.5t-82 116.5t-29 144.5q0 94 31.5 175t86.5 145.5t125.5 110t150 69.5t158.5 24q91 0 165.5 -26t128.5 -73t83 -109.5t29 -134.5q0 -75 -21.5 -140.5t-62 -115.5t-96.5 -78t-125 -28q-80 0 -118.5 50t-28.5 129q1 5 1.5 9t1.5 8h-6 q-34 -88 -88.5 -142t-120.5 -54q-53 0 -89 43.5t-36 116.5q0 68 23.5 132t70.5 115.5t117 82t162 30.5q66 0 131.5 -12.5t112.5 -35.5l-27 -80l-38 -182q-13 -66 -3 -98.5t49 -32.5zM429 182q0 -25 4.5 -40.5t16.5 -15.5t29 24.5t34.5 62.5t34 79.5t26.5 74.5l26 84 q-18 9 -36 9q-26 0 -50.5 -28t-43.5 -72t-30 -91.5t-11 -86.5z" />
<glyph unicode="A" horiz-adv-x="698" d="M291 650h115l218 -572q7 -19 18 -30t27 -19l29 -13l-2 -16h-353l-2 16l63 25l-42 122l-210 -2l-44 -119l69 -26l-2 -16h-173l-2 16l31 11q21 8 28.5 21.5t16.5 35.5zM168 203h180l-86 253z" />
<glyph unicode="B" horiz-adv-x="696" d="M326 610h-24v-256h24q50 0 78 33.5t28 94.5q0 62 -28 95t-78 33zM331 314h-29v-274h25q54 0 89.5 36t35.5 99q0 74 -35 106.5t-86 32.5zM376 0h-346l-2 16l29 10q18 6 22.5 16.5t4.5 29.5v537l-55 25l2 16h320q133 0 211 -42t78 -128q0 -35 -18.5 -63.5t-49.5 -48.5 t-66 -30q70 -16 118 -55t48 -103q0 -88 -76.5 -134t-219.5 -46z" />
<glyph unicode="C" horiz-adv-x="645" d="M605 16q-46 -12 -91.5 -19t-104.5 -7q-114 0 -200.5 38.5t-135 113t-48.5 180.5q0 80 30 142.5t83 106t123.5 66.5t151.5 23q52 0 100 -7t82 -19q2 -14 3 -30t1 -32q0 -43 -9 -84.5t-23 -73.5h-10l-122 206h-5q-42 0 -81 -36t-64 -102t-25 -157q0 -93 25 -159t63 -101 t78 -35q10 0 20 1l121 205h10q14 -28 23 -72t9 -94q0 -14 -1 -27.5t-3 -26.5z" />
<glyph unicode="D" horiz-adv-x="732" d="M327 610h-25v-570h26q74 0 113.5 75.5t40.5 214.5t-39.5 209.5t-115.5 70.5zM349 0h-319l-2 16l29 10q18 6 22.5 16.5t4.5 29.5v537l-55 25l2 16h320q100 0 179.5 -36.5t125.5 -107.5t46 -176t-47 -179t-126.5 -112.5t-179.5 -38.5z" />
<glyph unicode="E" horiz-adv-x="595" d="M558 0h-528l-2 16l29 10q18 6 22.5 16.5t4.5 29.5v537l-55 25l2 16h518q4 -19 5.5 -37.5t1.5 -37.5q0 -39 -6.5 -75.5t-18.5 -63.5h-10l-125 174h-94v-265l157 15l-3 -70l-154 15v-265h102l126 181h10q12 -28 18.5 -65.5t6.5 -77.5q0 -19 -1.5 -38.5t-5.5 -39.5z" />
<glyph unicode="F" horiz-adv-x="563" d="M384 0h-354l-2 16l29 10q18 6 22.5 16.5t4.5 29.5v537l-55 25l2 16h513q4 -19 5.5 -37.5t1.5 -37.5q0 -39 -6.5 -75.5t-18.5 -63.5h-10l-125 174h-89v-295l162 15l-3 -70l-159 15v-234l84 -25z" />
<glyph unicode="G" horiz-adv-x="664" d="M616 16q-47 -13 -97.5 -19.5t-113.5 -6.5q-112 0 -196.5 37t-131.5 110t-47 180q0 83 31 147t85.5 107.5t124 66t145.5 22.5q60 0 107 -7t82 -19q2 -14 3 -30t1 -32q0 -42 -8.5 -84.5t-23.5 -73.5h-10l-121 205q-7 1 -13 1q-28 0 -60 -19t-60 -56.5t-45.5 -93 t-17.5 -128.5q0 -72 17.5 -127t44.5 -91.5t56.5 -55.5t53.5 -19h6v248l-53 25l2 16h291l2 -16l-27 -10q-18 -7 -22.5 -16.5t-4.5 -29.5v-231z" />
<glyph unicode="H" horiz-adv-x="784" d="M356 0h-324l-2 16l27 10q18 7 22.5 17t4.5 29v537l-56 25l2 16h324l2 -16l-27 -10q-18 -7 -22.5 -16.5t-4.5 -29.5v-224h180v255l-56 25l2 16h324l2 -16l-27 -10q-18 -7 -22.5 -16.5t-4.5 -29.5v-537l56 -25l-2 -16h-324l-2 16l27 10q18 7 22.5 17t4.5 29v237h-180v-268 l56 -25z" />
<glyph unicode="I" horiz-adv-x="386" d="M356 0h-324l-2 16l27 10q18 7 22.5 17t4.5 29v537l-56 25l2 16h324l2 -16l-27 -10q-18 -7 -22.5 -16.5t-4.5 -29.5v-537l56 -25z" />
<glyph unicode="J" horiz-adv-x="375" d="M303 150q0 -79 -34 -143t-98 -103t-155 -44l-6 11q41 56 58 142t17 197v399l-56 25l2 16h324l2 -16l-27 -10q-18 -7 -22.5 -16.5t-4.5 -29.5v-428z" />
<glyph unicode="K" horiz-adv-x="773" d="M356 0h-324l-2 16l27 10q18 7 22.5 17t4.5 29v537l-56 25l2 16h324l2 -16l-27 -10q-18 -7 -22.5 -16.5t-4.5 -29.5v-253h46l176 286l-54 23l2 16h262l2 -16l-40 -19q-56 -26 -106.5 -65t-95.5 -87l201 -372q21 -40 57 -62l21 -13l-2 -16l-198 -3q-51 -1 -75 22t-47 65 l-106 201h-43v-244l56 -25z" />
<glyph unicode="L" horiz-adv-x="579" d="M548 0h-518l-2 16l29 10q18 6 22.5 16.5t4.5 29.5v537l-56 25l2 16h324l2 -16l-27 -10q-18 -7 -22.5 -16.5t-4.5 -29.5v-538h100l118 244h10q12 -31 18.5 -77t6.5 -96q0 -28 -1.5 -56.5t-5.5 -54.5z" />
<glyph unicode="M" horiz-adv-x="895" d="M52 650h284l118 -379l117 379h277l2 -16l-72 -25l44 -519q2 -28 11.5 -39.5t32.5 -21.5l31 -13l-2 -16h-358l-2 16l71 22l-37 454l-131 -417l-25 -75h-105l-23 75l-129 413l-42 -447l84 -25l-2 -16h-199l-2 16q13 4 23.5 8t18.5 8q17 8 25 19t10 33l50 523l-72 27z" />
<glyph unicode="N" horiz-adv-x="656" d="M211 0h-199l-2 16l47 15q18 6 22.5 14.5t4.5 26.5v537l-74 25l2 16h220l307 -412v371l-84 25l2 16h199l2 -16l-47 -15q-18 -6 -22.5 -14.5t-4.5 -26.5v-578h-148l-307 421v-380l84 -25z" />
<glyph unicode="O" horiz-adv-x="710" d="M672 330q0 -108 -43 -184t-116.5 -116t-166.5 -40q-94 0 -167.5 39.5t-115 114.5t-41.5 181q0 108 45 182.5t119 113.5t162 39q93 0 166.5 -37.5t115.5 -111t42 -181.5zM257 325q-1 -157 20.5 -226t71.5 -69t68.5 72t19.5 228q1 155 -18 222.5t-71 67.5t-71 -68.5 t-20 -226.5z" />
<glyph unicode="P" horiz-adv-x="651" d="M322 610h-20v-340h20q46 0 71.5 45t25.5 131q0 74 -25.5 119t-71.5 45zM384 0h-354l-2 16l29 10q18 6 22.5 16.5t4.5 29.5v537l-55 25l2 16h306q141 0 221.5 -53.5t80.5 -151.5q0 -70 -37.5 -118t-105 -72.5t-159.5 -24.5h-35v-189l84 -25z" />
<glyph unicode="Q" horiz-adv-x="710" d="M672 330q0 -98 -35.5 -170t-97.5 -114t-142 -53q50 -15 112.5 -24t137.5 -9q35 0 69 3.5t57 7.5l6 -1q2 -5 2 -11v-11q0 -64 -37 -103.5t-108 -39.5q-57 0 -110.5 26.5t-102.5 69t-93 89.5q-90 4 -159.5 44.5t-109 114t-39.5 176.5q0 108 45 182.5t119 113.5t162 39 q93 0 166.5 -37.5t115.5 -111t42 -181.5zM257 325q-1 -157 20.5 -226t71.5 -69t68.5 72t19.5 228q1 155 -18 222.5t-71 67.5t-71 -68.5t-20 -226.5z" />
<glyph unicode="R" horiz-adv-x="751" d="M328 610h-26v-310h33q47 0 75.5 41.5t28.5 111.5q0 72 -31 114.5t-80 42.5zM356 0h-324l-2 16l27 10q18 7 22.5 17t4.5 29v537l-55 25l2 16h322q92 0 160.5 -21.5t107 -63.5t38.5 -106q0 -52 -27.5 -87t-76.5 -62l120 -219q12 -22 26 -36.5t27 -23.5l23 -15l-2 -16 l-191 -3q-53 -1 -80.5 20t-46.5 67l-73 176h-56v-219l56 -25z" />
<glyph unicode="S" horiz-adv-x="578" d="M554 186q0 -71 -40 -114t-109.5 -62.5t-157.5 -19.5q-74 0 -123 6.5t-73 18.5q-12 6 -19.5 17.5t-7.5 30.5q0 32 9.5 64t23.5 59t27 42l10 -2l103 -194q6 -1 13 -1.5t13 -0.5q46 0 74 24.5t28 64.5q0 34 -21.5 58.5t-56 45t-73 41.5t-73 48t-56 63.5t-21.5 88.5 q0 64 40.5 107.5t107 66t145.5 22.5q90 0 135.5 -12.5t63.5 -23.5q11 -7 16.5 -15.5t5.5 -23.5q0 -25 -12 -57t-28 -60t-30 -41l-10 2l-89 189q-15 2 -26 2q-42 0 -72 -21.5t-30 -61.5q0 -35 22.5 -62t58.5 -50t75.5 -45.5t75.5 -49.5t58.5 -62t22.5 -82z" />
<glyph unicode="T" horiz-adv-x="634" d="M47 396h-10q-12 32 -18.5 75t-6.5 89q0 23 1.5 45.5t5.5 44.5h596q4 -22 5.5 -44.5t1.5 -45.5q0 -46 -6.5 -89t-18.5 -75h-10l-115 214h-46v-569l56 -25l-2 -16h-324l-2 16l27 10q18 7 22.5 17t4.5 29v538h-46z" />
<glyph unicode="U" horiz-adv-x="681" d="M607 226q0 -116 -62.5 -176t-191.5 -60q-77 0 -138 27t-96 80t-35 132v380l-56 25l2 16h324l2 -16l-27 -10q-18 -7 -22.5 -16.5t-4.5 -29.5v-340q0 -91 31 -138t98 -47q59 0 95 44t36 129v384l-74 24l2 16h189l2 -16l-74 -24v-384z" />
<glyph unicode="V" horiz-adv-x="688" d="M402 0h-115l-213 572q-7 19 -17.5 30.5t-27.5 18.5l-29 13l2 16h353l2 -16l-63 -25l135 -413l123 412l-71 26l2 16h203l2 -16q-15 -7 -27 -14.5t-22 -18.5q-16 -17 -30.5 -45.5t-31.5 -75.5z" />
<glyph unicode="W" horiz-adv-x="1047" d="M392 0h-115l-203 572q-7 19 -17.5 30.5t-27.5 18.5l-29 13l2 16h353l2 -16l-63 -25l125 -406l80 288l-26 81q-6 19 -17 30.5t-28 18.5l-29 13l2 16h353l2 -16l-65 -25l108 -409l112 407l-71 27l2 16h203l2 -16q-29 -12 -47 -30q-18 -17 -32.5 -46t-31.5 -78l-165 -480 h-115l-131 408z" />
<glyph unicode="X" horiz-adv-x="702" d="M146 140l111 131l-178 299q-13 23 -25 35.5t-28 19.5l-20 9l2 16h356l2 -16l-58 -23l113 -192l107 191l-56 24l2 16h220l2 -16l-16 -8q-24 -12 -50.5 -36t-73.5 -80l-110 -131l174 -294q16 -27 30 -41t28 -20l18 -8l-2 -16h-355l-2 16l58 23l-114 192l-107 -191l56 -24 l-2 -16h-220l-2 16l16 8q24 12 50.5 36.5t73.5 79.5z" />
<glyph unicode="Y" horiz-adv-x="688" d="M507 0h-324l-2 16l27 10q18 7 22.5 17t4.5 29v192l-161 308q-10 19 -19 30.5t-26 18.5l-29 13l2 16h353l2 -16l-61 -24l129 -314l128 312l-59 26l2 16h190l2 -16q-12 -7 -24 -18q-21 -18 -41.5 -46t-43.5 -70l-126 -236v-223l56 -25z" />
<glyph unicode="Z" horiz-adv-x="617" d="M581 101q0 -25 -1.5 -51t-5.5 -50h-522l-16 90l315 520h-145l-131 -214h-10q-12 31 -18.5 73t-6.5 86q0 24 1.5 47.5t5.5 47.5h515l16 -90l-309 -520h147l130 214h10q12 -28 18.5 -68.5t6.5 -84.5z" />
<glyph unicode="[" horiz-adv-x="460" d="M420 -118h-300v813h300v-40h-90v-733h90v-40z" />
<glyph unicode="\" horiz-adv-x="423" d="M277 -195l-217 863l3 7l83 20l217 -863l-3 -7z" />
<glyph unicode="]" horiz-adv-x="460" d="M40 695h300v-813h-300v40h90v733h-90v40z" />
<glyph unicode="^" horiz-adv-x="526" d="M195 200h-160l159 350h138l159 -350h-160l-70 180z" />
<glyph unicode="_" horiz-adv-x="600" d="M40 -185v45h520v-45h-520z" />
<glyph unicode="`" horiz-adv-x="387" d="M325 562l-9 -11q-120 14 -184 46.5t-64 78.5q0 38 30.5 54.5t75.5 16.5q13 0 23 -0.5t17 -1.5q18 -35 49 -86t62 -97z" />
<glyph unicode="a" horiz-adv-x="565" d="M579 77q-12 -20 -30.5 -40t-47 -33.5t-71.5 -13.5q-49 0 -81 24.5t-41 58.5q-18 -32 -54 -57.5t-95 -25.5q-35 0 -66 15t-49.5 42.5t-18.5 64.5q0 77 76 116t204 43v137q0 62 -33 62q-17 0 -27 -18t-10 -58q0 -13 1.5 -32.5t5.5 -39.5q-28 -10 -52 -15t-46 -5 q-41 0 -67.5 16.5t-26.5 50.5q0 37 33 69t89 52t124 20q104 0 164 -47t60 -153q0 -41 -2.5 -88t-2.5 -74q0 -36 8.5 -50t27.5 -14q13 0 22 3zM245 155q0 -32 12 -46t28 -14q12 0 20 6v140q-29 -4 -44.5 -27t-15.5 -59z" />
<glyph unicode="b" horiz-adv-x="585" d="M565 260q0 -100 -33.5 -159t-88 -85t-117.5 -26q-38 0 -77 6.5t-72 15.5l-124 -22l-8 8v623l-45 17l-1 14q32 11 76 21t90 16t82 6l8 -8v-268q22 35 59.5 63t88.5 28q76 0 119 -64t43 -186zM283 385q-10 0 -17 -2t-11 -4v-323q16 -6 33 -6q24 0 36 24t16.5 66t4.5 95 q0 80 -13.5 115t-48.5 35z" />
<glyph unicode="c" horiz-adv-x="515" d="M20 245q0 77 35 137t96 94t137 34q73 0 121 -23t72 -58.5t24 -73.5q0 -40 -27.5 -60t-67.5 -20q-25 0 -45.5 6.5t-34.5 13.5q0 87 -7.5 131t-35.5 44q-25 0 -36 -41t-11 -108q0 -96 42 -138.5t111 -42.5q29 0 56.5 8t52.5 20l8 -8q-12 -44 -40 -83t-75.5 -63t-117.5 -24 q-72 0 -130.5 31t-92.5 88t-34 136z" />
<glyph unicode="d" horiz-adv-x="590" d="M20 236q0 100 36 160t95 87t127 27q26 0 52 -3v114l-45 17l-1 14q32 11 76 21t90 16t82 6l8 -8v-539q0 -36 7.5 -50t25.5 -14q12 0 22 3l6 -10q-24 -38 -58 -62.5t-91 -24.5q-48 0 -79.5 24t-39.5 59q-17 -30 -51.5 -56.5t-89.5 -26.5q-78 0 -125 64.5t-47 181.5z M240 272q0 -88 15.5 -132.5t51.5 -44.5q14 0 23 6v347q-8 2 -16 2q-40 0 -57 -49.5t-17 -128.5z" />
<glyph unicode="e" horiz-adv-x="535" d="M510 160q-13 -47 -43.5 -85.5t-79.5 -61.5t-117 -23t-125 30.5t-91 87t-34 132.5q0 83 36 143.5t97 93.5t137 33q70 0 121.5 -27t80 -75t28.5 -110q0 -9 -1 -20t-3 -20l-8 -8h-260q15 -59 53 -84.5t91 -25.5q35 0 61.5 8.5t48.5 19.5zM240 324q0 -20 2 -39l67 6 q1 13 1 24.5v23.5q0 62 -4.5 96.5t-26.5 34.5t-30.5 -39t-8.5 -107z" />
<glyph unicode="f" horiz-adv-x="388" d="M328 0h-316l-2 14l18 10q17 9 22 18t5 28v365h-63l-2 14l66 25q5 60 34.5 110.5t83 80.5t129.5 30q47 0 83.5 -14t57.5 -37t21 -51q0 -35 -31 -50.5t-72 -15.5q-17 0 -37 3q0 59 -9 92t-32 33q-29 0 -29 -48q0 -25 3.5 -57t5.5 -80h119v-35h-118v-396l65 -25z" />
<glyph unicode="g" horiz-adv-x="551" d="M540 -5q0 -88 -72 -139t-215 -51q-47 0 -92 4.5t-81.5 15t-58 28.5t-21.5 45q0 30 35 46.5t84 16.5l1 4q-22 11 -39.5 34.5t-17.5 58.5q0 42 34.5 76t82.5 42q-75 13 -117.5 53t-42.5 104q0 55 34.5 93t91.5 58.5t124 20.5q98 0 158 4.5t103 15.5q8 -10 13.5 -22.5 t5.5 -31.5q0 -27 -13.5 -38.5t-41.5 -11.5q-18 0 -41 7t-48 15l-2 -3q36 -15 66 -45t30 -76q0 -48 -31 -81.5t-86 -50.5t-127 -17q-22 0 -43 2q-1 -7 -1 -11q0 -14 12 -19.5t36 -6.5l107 -2q77 -1 125 -34.5t48 -103.5zM220 329q0 -61 7 -90t33 -29q25 0 32.5 29t7.5 93 q0 56 -5.5 87t-32.5 31q-28 0 -35 -33t-7 -88zM170 -82q0 -73 107 -73q44 0 73.5 15t29.5 41q0 17 -13.5 25.5t-44.5 8.5h-79q-44 0 -70 4q-3 -10 -3 -21z" />
<glyph unicode="h" horiz-adv-x="610" d="M303 0h-296l-2 14l18 10q17 9 22 18t5 28v551l-45 17l-1 14q32 11 76 21t90 16t82 6l8 -8v-290q17 28 40.5 54t55 42.5t73.5 16.5q65 0 98 -39.5t33 -106.5v-325l45 -25l-2 -14h-239l-14 14v299q0 62 -51 62q-10 0 -21 -3t-18 -7v-326l45 -25z" />
<glyph unicode="i" horiz-adv-x="315" d="M274 657q0 -46 -36 -73.5t-89 -27.5q-46 0 -75.5 23.5t-29.5 62.5q0 46 37.5 74t87.5 28q47 0 76 -23.5t29 -63.5zM308 0h-296l-2 14l18 10q17 9 22 18t5 28v366l-45 17l-1 14q32 11 76 21t90 16t82 6l8 -8v-463l45 -25z" />
<glyph unicode="j" horiz-adv-x="305" d="M269 657q0 -46 -36 -73.5t-89 -27.5q-46 0 -75.5 23.5t-29.5 62.5q0 46 37.5 74t87.5 28q47 0 76 -23.5t29 -63.5zM-3 -181q25 53 39 121.5t14 174.5v321l-45 17l-1 14q32 11 76 21t90 16t82 6l8 -8v-407q0 -79 -23 -140.5t-78.5 -100.5t-153.5 -49z" />
<glyph unicode="k" horiz-adv-x="626" d="M303 0h-296l-2 14l18 10q17 9 22 18t5 28v551l-45 17l-1 14q32 11 76 21t90 16t82 6l8 -8v-409h37l97 190l-46 18l2 14h259l2 -14l-46 -23q-29 -14 -58.5 -35.5t-58.5 -47.5l125 -290q12 -27 23.5 -43t29.5 -31l-2 -16h-185q-34 0 -49 17t-29 53l-66 170h-35v-201l45 -25 z" />
<glyph unicode="l" horiz-adv-x="310" d="M303 0h-296l-2 14l18 10q17 9 22 18t5 28v551l-45 17l-1 14q32 11 76 21t90 16t82 6l8 -8v-648l45 -25z" />
<glyph unicode="m" horiz-adv-x="903" d="M308 0h-296l-2 14l18 10q17 9 22 18t5 28v366l-45 17l-1 14q32 11 76 21t90 16t82 6l8 -8v-95q25 39 64.5 71t98.5 32q57 0 89 -30.5t40 -82.5q22 44 65 78.5t106 34.5q61 0 93 -39.5t32 -105.5v-326l45 -25l-2 -14h-239l-14 14v299q0 31 -10.5 46.5t-38.5 15.5 q-20 0 -35 -9v-2v-325l45 -25l-2 -14h-239l-14 14v299q0 62 -51 62q-16 0 -33 -7v-329l45 -25z" />
<glyph unicode="n" d="M308 0h-296l-2 14l18 10q17 9 22 18t5 28v366l-45 17l-1 14q32 11 76 21t90 16t82 6l8 -8v-105q17 28 40.5 54t55 42.5t73.5 16.5q65 0 98 -39.5t33 -106.5v-325l45 -25l-2 -14h-239l-14 14v299q0 62 -51 62q-10 0 -21 -3t-18 -7v-326l45 -25z" />
<glyph unicode="o" horiz-adv-x="570" d="M550 263q0 -84 -35.5 -145.5t-96.5 -94.5t-139 -33q-74 0 -133 30t-92.5 85.5t-33.5 131.5q0 85 35 146t96.5 94t139.5 33q75 0 133.5 -30t92 -85t33.5 -132zM240 262q0 -86 3.5 -137t13 -73t28.5 -22t28.5 19t13 64.5t3.5 124.5q0 89 -3.5 139.5t-13 71.5t-28.5 21 q-18 0 -28 -19t-13.5 -64.5t-3.5 -124.5z" />
<glyph unicode="p" horiz-adv-x="590" d="M323 -185h-316l-2 14l18 10q17 9 22 18t5 28v559l-45 17l-1 14q32 11 76 21t90 16t82 6l8 -8v-91q22 35 59.5 63t88.5 28q76 0 119 -64t43 -186q0 -100 -33.5 -159t-88 -85t-117.5 -26q-18 0 -35.5 1.5t-35.5 4.5v-142l65 -25zM288 385q-10 0 -17 -2t-11 -4v-323 q16 -6 33 -6q24 0 36 24t16.5 66t4.5 95q0 80 -13.5 115t-48.5 35z" />
<glyph unicode="q" horiz-adv-x="585" d="M583 -185h-296l-2 14l18 10q17 9 22 18t5 28v183q-17 -29 -51.5 -53.5t-86.5 -24.5q-78 0 -125 64.5t-47 181.5q0 100 36 160t95 87t127 27q34 0 68.5 -5.5t63.5 -16.5l122 22l8 -8v-648l45 -25zM240 272q0 -88 15.5 -132.5t51.5 -44.5q14 0 23 6v347q-8 2 -16 2 q-40 0 -57 -49.5t-17 -128.5z" />
<glyph unicode="r" horiz-adv-x="455" d="M328 0h-316l-2 14l18 10q17 9 22 18t5 28v366l-45 17l-1 14q32 11 76 21t90 16t82 6l8 -8v-165q13 46 30.5 85.5t41.5 63.5t55 24q32 0 47.5 -24t15.5 -68q0 -34 -9.5 -68t-20.5 -52l-10 -3q-29 6 -72 9q-20 2 -40.5 2.5t-37.5 0.5v-268l65 -25z" />
<glyph unicode="s" horiz-adv-x="490" d="M213 -10q-63 0 -104.5 7.5t-61.5 17.5q-10 6 -18.5 18.5t-8.5 34.5q0 42 22.5 76t47.5 44l12 -6q10 -31 21.5 -58.5t24.5 -48.5q14 -21 30.5 -33t36.5 -12q22 0 34 13t12 34q0 25 -16.5 44t-42 35.5t-55 34t-55 39t-42 51.5t-16.5 71q0 51 32.5 86.5t88.5 53.5t124 18 q77 0 114.5 -13.5t53.5 -27.5q9 -7 15.5 -16t6.5 -23q0 -25 -12.5 -48t-30.5 -40t-37 -25l-12 6q-22 80 -45 114q-23 33 -56 33q-20 0 -32.5 -12.5t-12.5 -30.5q0 -25 17.5 -45.5t44.5 -38.5t57.5 -36.5t57.5 -40t44.5 -49.5t17.5 -65q0 -57 -33.5 -93t-91.5 -52.5 t-132 -16.5z" />
<glyph unicode="t" horiz-adv-x="394" d="M364 470v-35h-110v-218q0 -39 17.5 -58t46.5 -19q20 0 37.5 8.5t30.5 19.5l8 -8q-11 -40 -35 -79.5t-63.5 -65t-98.5 -25.5q-73 0 -113 44.5t-40 135.5v265h-58l-2 14l52 34l210 137l8 -2v-148h110z" />
<glyph unicode="u" d="M626 73q-19 -29 -55.5 -56t-95.5 -27q-57 0 -91 32t-34 75v6q-20 -44 -57.5 -78.5t-100.5 -34.5q-67 0 -104.5 41t-37.5 109v296l-45 17l-1 14q32 11 76 21t90 16t82 6l8 -8v-315q0 -31 11.5 -46.5t40.5 -15.5q21 0 38 10v301l-45 17l-1 14q32 11 76 21t90 16t82 6l8 -8 v-354q0 -36 8.5 -50t27.5 -14q13 0 22 3z" />
<glyph unicode="v" horiz-adv-x="538" d="M344 0h-154l-137 402q-10 32 -21 50t-28 31l-4 3l2 14h312l2 -14l-47 -27l82 -325l92 329l-47 23l2 14h138l2 -14q-9 -6 -16.5 -12t-12.5 -14q-16 -18 -29 -58z" />
<glyph unicode="w" horiz-adv-x="824" d="M434 500h120l83 -366l92 329l-47 23l2 14h138l2 -14q-20 -15 -33 -30q-7 -10 -13 -23t-12 -31l-136 -402h-154l-66 194l-66 -194h-154l-137 402q-10 32 -21 50t-28 31l-4 3l2 14h312l2 -14l-47 -27l82 -325z" />
<glyph unicode="x" horiz-adv-x="570" d="M54 423q-13 20 -26 36t-28 27l2 14h308l2 -14l-45 -18l87 -136l46 137l-42 17l2 14h208l2 -14l-9 -9t-14 -15l-20 -20t-26 -27q-22 -23 -51.5 -54.5t-68.5 -71.5l134 -211q12 -19 26 -36t29 -28l-2 -14h-308l-2 14l45 18l-87 136l-46 -137l42 -17l-2 -14h-208l-2 14l9 9 t14 15l20 20t26 27q43 44 120 126z" />
<glyph unicode="y" horiz-adv-x="538" d="M150 -195q-53 0 -84.5 29.5t-31.5 74.5q0 32 13 56q19 -5 48 -10t59 -5q45 0 86 13t64 37h-114l-137 402q-10 32 -21 50t-28 31l-4 3l2 14h312l2 -14l-47 -27l82 -325l92 329l-47 23l2 14h138l2 -14l-8 -5q-19 -12 -29 -30.5t-21 -48.5l-118 -350q-15 -44 -34.5 -88 t-45 -80t-58.5 -57.5t-74 -21.5z" />
<glyph unicode="z" horiz-adv-x="500" d="M478 81q0 -20 -1.5 -40.5t-5.5 -40.5h-437l-14 80l251 390h-91l-123 -184h-10q-12 27 -18.5 63.5t-6.5 75.5q0 19 1.5 37.5t5.5 37.5h437l14 -80l-246 -390h87l122 184h10q12 -24 18.5 -59.5t6.5 -73.5z" />
<glyph unicode="{" horiz-adv-x="468" d="M80 293q43 5 62.5 18.5t24.5 31.5t5 35q0 26 -11.5 57t-23 65t-11.5 67q0 41 26.5 69.5t92 43.5t182.5 15l1 -33q-46 0 -65 -24t-19 -65q0 -27 10 -54.5l20 -55t10 -54.5q0 -42 -25.5 -68t-69.5 -40.5t-98 -20.5q54 -6 97.5 -20.5t69.5 -40.5t26 -68q0 -25 -10 -52 t-20 -55.5t-10 -56.5q0 -41 19 -65t65 -24l-1 -33q-117 0 -182.5 15t-92 43.5t-26.5 69.5q0 33 11.5 69t23 67.5t11.5 52.5q0 17 -5 35t-24.5 31.5t-62.5 18.5v26z" />
<glyph unicode="|" horiz-adv-x="330" d="M210 -190l-82 -5l-8 8v877l82 5l8 -8v-877z" />
<glyph unicode="}" horiz-adv-x="428" d="M388 267q-43 -5 -62.5 -18.5t-24.5 -31t-5 -35.5q0 -25 11.5 -56.5t23 -65.5t11.5 -67q0 -41 -26.5 -69.5t-92 -43.5t-182.5 -15l-1 33q47 0 65.5 24t18.5 65q0 28 -10 55t-20 54.5t-10 54.5q0 42 25.5 68t69.5 40.5t98 20.5q-54 6 -97.5 20.5t-69.5 40.5t-26 68 q0 25 10 52.5t20 56t10 55.5q0 41 -18.5 65t-65.5 24l1 33q117 0 182.5 -15t92 -43.5t26.5 -69.5q0 -33 -11.5 -68.5t-23 -67.5t-11.5 -53q0 -17 5 -34.5t24.5 -31.5t62.5 -19v-26z" />
<glyph unicode="~" horiz-adv-x="554" d="M155 217q-7 0 -21 -14t-32 -35l-72 34q15 32 35 68t44.5 61.5t51.5 25.5q21 0 54.5 -6.5t69 -15.5t64.5 -15.5t40 -6.5q8 0 21.5 14t32.5 35l71 -34q-15 -32 -35 -68t-44 -61.5t-52 -25.5q-21 0 -54 6.5t-69 15.5t-64.5 15.5t-40.5 6.5z" />
<glyph unicode="&#xa1;" horiz-adv-x="433" d="M121 419q0 42 32.5 66.5t80.5 24.5q41 0 67.5 -21.5t26.5 -56.5q0 -41 -33.5 -66.5t-78.5 -25.5q-43 0 -69 21.5t-26 57.5zM353 -168l-4 -10q-59 -9 -116.5 -13t-96.5 -4q-30 0 -43 10.5t-13 36.5q0 17 5 38t13 52l86 324h70z" />
<glyph unicode="&#xa2;" horiz-adv-x="566" d="M42 245q0 73 31.5 130.5t86 92.5t124.5 41v111l42 3l8 -6v-108q65 -4 108 -27t64 -57t21 -70q0 -40 -27.5 -60t-67.5 -20q-25 0 -45.5 6.5t-34.5 13.5q0 87 -7.5 131t-35.5 44q-25 0 -36 -41t-11 -108q0 -96 42 -138.5t111 -42.5q29 0 56.5 8t52.5 20l8 -8 q-11 -41 -35.5 -77t-64.5 -60.5t-98 -30.5v-112l-42 -3l-8 6v107q-69 4 -123.5 35.5t-86.5 87.5t-32 132z" />
<glyph unicode="&#xa3;" horiz-adv-x="589" d="M487 275h-147q-20 -65 -51 -117t-67 -88q47 -18 114.5 -34t169.5 -16q15 0 30 1.5t30 3.5q1 -7 1.5 -13.5t0.5 -13.5q0 -32 -11.5 -63.5t-37.5 -51.5t-68 -20q-44 0 -79 19.5t-65.5 48t-61 56.5t-66.5 45q-58 -42 -108 -42q-31 0 -46 15t-15 36q0 24 21 45.5t63 21.5 q19 0 39 -5.5t42 -14.5q3 17 4 33.5t1 36.5q0 28 -2.5 57t-4.5 60h-107l6 45h98q-1 26 0 54t5 60q8 63 39 114.5t85.5 81.5t131.5 30q82 0 129 -29.5t47 -72.5q0 -40 -32.5 -64t-72.5 -29q-16 77 -29 115t-36 38q-22 0 -32.5 -33.5t-24.5 -110.5l-24 -133q-2 -11 -4 -21h141 z" />
<glyph unicode="&#xa4;" horiz-adv-x="510" d="M418 114l-61 64q-22 -17 -49 -26.5t-61 -9.5q-30 0 -55.5 7.5t-45.5 20.5l-56 -56l-40 40l56 56q-34 48 -34 114q0 61 40 111l-58 59l36 36q12 -12 27.5 -26.5t32.5 -32.5q21 15 46.5 23t54.5 8q33 0 60 -9t48 -24l61 61l40 -40l-63 -63q29 -43 29 -98q0 -62 -32 -110 q18 -18 33.5 -33t28.5 -28v-11zM250 417q-45 0 -66.5 -28t-21.5 -65q0 -23 9.5 -45.5t29.5 -37t49 -14.5q32 0 51 14.5t27 37.5t8 47q0 35 -21 63t-65 28z" />
<glyph unicode="&#xa5;" horiz-adv-x="632" d="M479 0h-324l-2 16l27 10q18 7 22.5 17t4.5 29v57h-123v45h123v45h-123v45h123v0l-161 308q-10 19 -19 30.5t-26 18.5l-29 13l2 16h353l2 -16l-61 -24l129 -314l128 312l-59 26l2 16h190l2 -16q-12 -7 -24 -18q-21 -18 -41.5 -46t-43.5 -70l-126 -236v0h123v-45h-123v-45 h123v-45h-123v-88l56 -25z" />
<glyph unicode="&#xa6;" horiz-adv-x="330" d="M210 325l-82 -5l-8 8v362l82 5l8 -8v-362zM210 -190l-82 -5l-8 8v362l82 5l8 -8v-362z" />
<glyph unicode="&#xa7;" horiz-adv-x="644" d="M584 92q0 -72 -37 -129t-104.5 -90t-159.5 -33q-62 0 -110 14t-75.5 40t-27.5 63q0 31 18.5 56t52.5 43l10 -1q27 -49 62.5 -89.5t82.5 -75.5q14 5 21 21.5t7 36.5q0 38 -19 72.5t-49 68.5t-64 69t-64 74t-49 83t-19 95q0 72 41 128.5t113.5 89t166.5 32.5 q84 0 138.5 -30t54.5 -84q0 -31 -18.5 -57.5t-52.5 -44.5l-10 1q-31 47 -69 89.5t-81 76.5q-8 -10 -15.5 -29t-7.5 -48q0 -38 19 -72t49.5 -67.5t64 -67t63.5 -70t49 -77t19 -88.5zM400 -86l5 -3q74 44 74 145q0 47 -18.5 85t-48 71.5t-62.5 65.5t-62.5 66t-48.5 73t-19 87 q0 20 7 39t17 35l-5 3q-74 -43 -74 -133q0 -48 18.5 -87t48 -73.5t62.5 -67t62.5 -66.5t48 -72t18.5 -85q0 -48 -23 -83z" />
<glyph unicode="&#xa8;" horiz-adv-x="576" d="M258 657q0 -43 -31 -68t-77 -25q-39 0 -63.5 21.5t-24.5 56.5q0 42 32.5 68t75.5 26q40 0 64 -21.5t24 -57.5zM514 657q0 -43 -31 -68t-77 -25q-39 0 -63.5 21.5t-24.5 56.5q0 42 32.5 68t75.5 26q40 0 64 -21.5t24 -57.5z" />
<glyph unicode="&#xa9;" horiz-adv-x="697" d="M348 -10q-75 0 -136 34t-96.5 93t-35.5 132q0 54 21 101.5t58 83t85.5 56t103.5 20.5q77 0 137.5 -35.5t96 -94.5t35.5 -131q0 -53 -21 -100t-58 -82.5t-85.5 -56t-104.5 -20.5zM348 29q63 0 115 30t82.5 80t30.5 110q0 62 -30.5 112t-82.5 80t-115 30q-62 0 -114 -30 t-82.5 -80t-30.5 -112t30 -112t81.5 -79t115.5 -29zM482 181q-16 -28 -46.5 -52.5t-81.5 -24.5q-36 0 -68 17.5t-51.5 50.5t-19.5 77q0 42 18.5 75t51.5 52.5t76 19.5q49 0 80 -22t31 -53q0 -19 -14 -30t-30 -11q-13 0 -24 2t-22 8v2q0 30 -5.5 45t-20.5 15q-16 0 -26 -21 t-10 -58q0 -42 19 -66.5t59 -24.5q22 0 37.5 5t28.5 11z" />
<glyph unicode="&#xaa;" horiz-adv-x="437" d="M451 349q-15 -21 -40 -41t-75 -20q-38 0 -63 17t-32 42q-14 -23 -41 -41t-72 -18q-41 0 -72 23.5t-31 63.5q0 56 58 83.5t156 30.5v97q0 46 -24 46q-28 0 -28 -55q0 -21 5 -51q-21 -7 -39.5 -10.5t-35.5 -3.5q-32 0 -52.5 11.5t-20.5 35.5q0 26 25.5 49t68.5 37.5 t95 14.5q80 0 126.5 -33.5t46.5 -108.5q0 -29 -2 -64t-2 -54q0 -25 6 -35.5t21 -10.5q5 0 9 0.5t8 1.5zM195 405q0 -23 9 -33t21 -10q8 0 14 4v101q-44 -7 -44 -62z" />
<glyph unicode="&#xab;" horiz-adv-x="565" d="M502 52l-11 -8q-51 50 -107 96.5t-104 82.5l-3 6v50q62 52 120 100t97 85l11 -8q-18 -53 -39 -106.5t-43 -99.5q22 -42 42 -93t37 -105zM285 52l-11 -8q-51 50 -107 96.5t-104 82.5l-3 6v50q62 52 120 100t97 85l11 -8q-18 -53 -39 -106.5t-43 -99.5q22 -42 42 -93 t37 -105z" />
<glyph unicode="&#xac;" horiz-adv-x="599" d="M509 425v-263h-145v133h-294v132q36 2 93 3t121 1.5t121.5 1t95.5 0.5z" />
<glyph unicode="&#xae;" horiz-adv-x="697" d="M348 -10q-75 0 -136 34t-96.5 93t-35.5 132q0 54 21 101.5t58 83t86 56t104 20.5q76 0 136.5 -35.5t96 -94.5t35.5 -131q0 -53 -21 -100t-58 -82.5t-85.5 -56t-104.5 -20.5zM348 29q63 0 115 30t82.5 80t30.5 110q0 62 -30.5 112t-82.5 80t-115 30q-62 0 -114 -30 t-82.5 -80t-30.5 -112t30 -112t81.5 -79t115.5 -29zM356 347h-23v-94h23q26 0 36.5 12.5t10.5 34.5q0 21 -10.5 34t-36.5 13zM333 142l26 -11l-1 -17h-145l-2 17l15 4q8 2 7.5 10.5t-0.5 22.5v165q0 21 -8 25l-14 7l2 22h159q61 0 93.5 -22.5t32.5 -59.5q0 -29 -15 -46.5 t-34 -26.5q17 -27 34.5 -57.5t31.5 -40.5l4 -3v-17l-74 -4q-17 -1 -25 5t-14 15l-51 83h-22v-71z" />
<glyph unicode="&#xaf;" horiz-adv-x="466" d="M62 591v106h342v-106h-342z" />
<glyph unicode="&#xb0;" horiz-adv-x="320" d="M157 420q-48 0 -82.5 30.5t-34.5 85.5t35.5 89.5t87.5 34.5q50 0 83.5 -31t33.5 -83q0 -53 -32 -89.5t-91 -36.5zM161 605q-30 0 -45.5 -19.5t-15.5 -46.5q0 -28 17.5 -46t42.5 -18q29 0 44.5 20t15.5 45q0 28 -15 46.5t-44 18.5z" />
<glyph unicode="&#xb1;" horiz-adv-x="599" d="M510 352h-136v-144h-147l-1 144h-146v132q26 1 64 2t81 2l-1 147h150v-146q40 1 75.5 1h61.5l8 -8zM510 15h-430v132q36 2 93 3t121 1.5t121.5 1t95.5 0.5l8 -8z" />
<glyph unicode="&#xb2;" horiz-adv-x="377" d="M51 372l-9 76q60 26 94 64t34 78q0 26 -15 41.5t-43 15.5q-47 0 -71 -45l-9 2q14 62 63 97.5t112 35.5q62 0 97.5 -30t35.5 -77q0 -39 -31 -68t-80 -52t-103 -43h149q27 0 40 10.5t20 27.5l10 -1q0 -16 -2.5 -40.5t-6.5 -49t-10 -42.5h-275z" />
<glyph unicode="&#xb3;" horiz-adv-x="394" d="M362 463q0 -31 -26 -53t-67 -33.5t-88 -11.5q-35 0 -69.5 5.5t-57 18.5t-22.5 33q0 22 29 35t69 14h5q0 -34 6.5 -56t25.5 -22q25 0 25 55q0 37 -18.5 56.5t-47.5 19.5q-5 0 -9 -0.5t-9 -1.5l-6 17q38 5 59 21t21 41q0 20 -13.5 31.5t-35.5 11.5q-19 0 -38 -11t-32 -32 l-8 3q12 62 60.5 97.5t110.5 35.5q56 0 91 -24.5t35 -65.5q0 -33 -22.5 -52.5t-55 -29.5t-61.5 -13q63 -3 106 -25.5t43 -63.5z" />
<glyph unicode="&#xb4;" horiz-adv-x="387" d="M319 676q0 -46 -64 -78.5t-184 -46.5l-9 11q32 46 62.5 97t48.5 86q8 1 17.5 1.5t22.5 0.5q45 0 75.5 -16.5t30.5 -54.5z" />
<glyph unicode="&#xb6;" horiz-adv-x="614" d="M350 190q-147 0 -228.5 59.5t-81.5 170.5t82 170.5t228 59.5h222l2 -16l-27 -10q-18 -7 -22.5 -16.5t-4.5 -29.5v-534q0 -102 -56.5 -153t-154.5 -51q-91 0 -143 28.5t-52 78.5q0 26 17.5 46.5t45 34.5t55.5 19l7 -5q8 -41 19.5 -77t32 -58t53.5 -22q39 0 62.5 35 t23.5 99v586h-80v-415z" />
<glyph unicode="&#xb7;" horiz-adv-x="340" d="M168 238q-38 0 -63 22.5t-25 59.5q0 40 28.5 66t68.5 26q35 0 59 -21.5t24 -56.5q0 -40 -26 -68t-66 -28z" />
<glyph unicode="&#xb8;" horiz-adv-x="366" d="M100 -106l-3 6l17 100h47l-6 -33q67 -4 105 -27t38 -60q0 -47 -56 -74.5t-169 -27.5l-5 15q17 7 34.5 17t30 23t12.5 27q0 29 -45 34z" />
<glyph unicode="&#xb9;" horiz-adv-x="301" d="M268 372h-234l-2 10l24 8q12 4 15 8.5t3 15.5v265l-40 3l-1 10l194 45l5 -5v-336l37 -14z" />
<glyph unicode="&#xba;" horiz-adv-x="447" d="M427 483q0 -60 -27 -104t-74 -67.5t-107 -23.5q-57 0 -102 21.5t-71 61t-26 94.5q0 61 27 104.5t74 67t107 23.5q58 0 102.5 -21.5t70.5 -61t26 -94.5zM190 482q0 -92 6 -129t28 -37q21 0 27 32.5t6 117.5q0 95 -6 130.5t-27 35.5t-27.5 -32.5t-6.5 -117.5z" />
<glyph unicode="&#xbb;" horiz-adv-x="565" d="M288 229q-62 -52 -120 -100t-97 -85l-11 8q18 53 39 106.5t43 99.5q-22 42 -42 93t-37 105l11 8q51 -49 107 -96t104 -83l3 -6v-50zM505 229q-62 -52 -120 -100t-97 -85l-11 8q18 53 39 106.5t43 99.5q-22 42 -42 93t-37 105l11 8q51 -49 107 -96t104 -83l3 -6v-50z" />
<glyph unicode="&#xbc;" horiz-adv-x="994" d="M621 660h101l-397 -670h-103zM326 292h-234l-2 10l24 8q12 4 15 8.5t3 15.5v265l-40 3l-1 10l194 45l5 -5v-336l37 -14zM541 128l210 237l91 -7v-230h52l-5 -50h-47v-78h-158v78h-137zM584 128h100v121z" />
<glyph unicode="&#xbd;" horiz-adv-x="998" d="M621 660h101l-397 -670h-103zM326 292h-234l-2 10l24 8q12 4 15 8.5t3 15.5v265l-40 3l-1 10l194 45l5 -5v-336l37 -14zM604 3l-9 76q60 26 94 64t34 78q0 26 -15 41.5t-43 15.5q-47 0 -71 -45l-9 2q14 62 63 97.5t112 35.5q62 0 97.5 -30t35.5 -77q0 -39 -31 -68 t-80 -52t-103 -43h149q27 0 40 10.5t20 27.5l10 -1q0 -16 -2.5 -40.5t-6.5 -49t-10 -42.5h-275z" />
<glyph unicode="&#xbe;" horiz-adv-x="999" d="M656 660h101l-397 -670h-103zM400 383q0 -31 -26 -53t-67 -33.5t-88 -11.5q-35 0 -69.5 5.5t-57 18.5t-22.5 33q0 22 29 35t69 14h5q0 -34 6.5 -56t25.5 -22q25 0 25 55q0 37 -18.5 56.5t-47.5 19.5q-5 0 -9 -0.5t-9 -1.5l-6 17q38 5 59 21t21 41q0 20 -13.5 31.5 t-35.5 11.5q-19 0 -38 -11t-32 -32l-8 3q12 62 60.5 97.5t110.5 35.5q56 0 91 -24.5t35 -65.5q0 -33 -22.5 -52.5t-55 -29.5t-61.5 -13q63 -3 106 -25.5t43 -63.5zM546 128l210 237l91 -7v-230h52l-5 -50h-47v-78h-158v78h-137zM589 128h100v121z" />
<glyph unicode="&#xbf;" horiz-adv-x="568" d="M181 420q0 42 32.5 66.5t80.5 24.5q41 0 67.5 -21.5t26.5 -56.5q0 -41 -33.5 -66.5t-78.5 -25.5q-43 0 -69 21.5t-26 57.5zM239 268l8 8q8 1 12 1h8q35 0 63.5 -16t28.5 -48q0 -14 -3.5 -26.5t-9.5 -24.5q-12 -24 -31.5 -46.5t-38.5 -47t-32.5 -54.5t-13.5 -70 q0 -39 14 -68.5t47 -29.5q35 0 51 35t16 83q0 20 -2 41.5t-6 49.5q14 8 31 12t43 4q39 0 72 -12t52.5 -34.5t19.5 -54.5q0 -47 -41 -84t-107.5 -58.5t-145.5 -21.5t-141 22t-97.5 62.5t-35.5 93.5q0 38 21 69t53.5 55t65.5 41t58.5 28t32.5 16q8 6 8 21v54z" />
<glyph unicode="&#xc0;" horiz-adv-x="698" d="M480 713l-9 -11q-120 14 -184 46.5t-64 78.5q0 38 30.5 54.5t75.5 16.5q13 0 23 -0.5t17 -1.5q18 -35 49 -86t62 -97zM291 650h115l218 -572q7 -19 18 -30t27 -19l29 -13l-2 -16h-353l-2 16l63 25l-42 122l-210 -2l-44 -119l69 -26l-2 -16h-173l-2 16l31 11 q21 8 28.5 21.5t16.5 35.5zM168 203h180l-86 253z" />
<glyph unicode="&#xc1;" horiz-adv-x="698" d="M487 832q0 -46 -64 -78.5t-184 -46.5l-9 11q32 46 62.5 97t48.5 86q8 1 17.5 1.5t22.5 0.5q45 0 75.5 -16.5t30.5 -54.5zM291 650h115l218 -572q7 -19 18 -30t27 -19l29 -13l-2 -16h-353l-2 16l63 25l-42 122l-210 -2l-44 -119l69 -26l-2 -16h-173l-2 16l31 11 q21 8 28.5 21.5t16.5 35.5zM168 203h180l-86 253z" />
<glyph unicode="&#xc2;" horiz-adv-x="698" d="M513 719l-9 -7q-35 16 -74.5 31.5t-78.5 28.5q-36 -13 -76.5 -28.5t-82.5 -31.5l-7 10q24 41 48 84t40 75l11 8h145q26 -44 47.5 -89.5t36.5 -80.5zM291 650h115l218 -572q7 -19 18 -30t27 -19l29 -13l-2 -16h-353l-2 16l63 25l-42 122l-210 -2l-44 -119l69 -26l-2 -16 h-173l-2 16l31 11q21 8 28.5 21.5t16.5 35.5zM168 203h180l-86 253z" />
<glyph unicode="&#xc3;" horiz-adv-x="698" d="M465 831q12 14 24.5 27t24.5 26l10 -3q2 -13 3 -25t1 -24q0 -51 -23 -84t-75 -33q-55 0 -106 18.5t-89 34.5q-12 -13 -24.5 -26t-24.5 -27l-10 3q-6 27 -6 51q0 50 25 82.5t75 32.5q53 0 102.5 -19.5t92.5 -33.5zM291 650h115l218 -572q7 -19 18 -30t27 -19l29 -13 l-2 -16h-353l-2 16l63 25l-42 122l-210 -2l-44 -119l69 -26l-2 -16h-173l-2 16l31 11q21 8 28.5 21.5t16.5 35.5zM168 203h180l-86 253z" />
<glyph unicode="&#xc4;" horiz-adv-x="698" d="M319 807q0 -43 -31 -68t-77 -25q-39 0 -63.5 21.5t-24.5 56.5q0 42 32.5 68t75.5 26q40 0 64 -21.5t24 -57.5zM575 807q0 -43 -31 -68t-77 -25q-39 0 -63.5 21.5t-24.5 56.5q0 42 32.5 68t75.5 26q40 0 64 -21.5t24 -57.5zM291 650h115l218 -572q7 -19 18 -30t27 -19 l29 -13l-2 -16h-353l-2 16l63 25l-42 122l-210 -2l-44 -119l69 -26l-2 -16h-173l-2 16l31 11q21 8 28.5 21.5t16.5 35.5zM168 203h180l-86 253z" />
<glyph unicode="&#xc5;" horiz-adv-x="698" d="M345 704q-46 0 -76 24t-30 67q0 46 32.5 73t81.5 27q45 0 75 -24.5t30 -65.5q0 -45 -32 -73t-81 -28zM349 848q-17 0 -27.5 -14t-10.5 -37q0 -21 10.5 -33t26.5 -12q17 0 27.5 14t10.5 37q0 20 -10 32.5t-27 12.5zM291 650h115l218 -572q7 -19 18 -30t27 -19l29 -13 l-2 -16h-353l-2 16l63 25l-42 122l-210 -2l-44 -119l69 -26l-2 -16h-173l-2 16l31 11q21 8 28.5 21.5t16.5 35.5zM168 203h180l-86 253z" />
<glyph unicode="&#xc6;" horiz-adv-x="927" d="M409 610h-65l-97 -263l162 -2v265zM27 0l-2 16q14 5 23 8.5t19 8.5q13 7 19.5 18t18.5 42l196 517l-74 24l2 16h645q4 -19 5.5 -37.5t1.5 -37.5q0 -39 -6.5 -75.5t-18.5 -63.5h-10l-125 174h-94v-265l157 15l-3 -70l-154 15v-265h102l126 181h10q12 -28 18.5 -65.5 t6.5 -77.5q0 -19 -1.5 -38.5t-5.5 -39.5h-528l-2 16l29 10q18 6 22.5 16.5t4.5 29.5v232l-179 -2l-96 -260l78 -26l-2 -16h-183z" />
<glyph unicode="&#xc7;" horiz-adv-x="645" d="M340 -106l-3 6l16 93q-99 9 -173 50t-114.5 111t-40.5 168q0 80 30 142.5t83 106t123.5 66.5t151.5 23q52 0 100 -7t82 -19q2 -14 3 -30t1 -32q0 -43 -9 -84.5t-23 -73.5h-10l-122 206h-5q-42 0 -81 -36t-64 -102t-25 -157q0 -93 25 -159t63 -101t78 -35q10 0 20 1 l121 205h10q14 -28 23 -72t9 -94q0 -14 -1 -27.5t-3 -26.5q-46 -12 -91.5 -19t-104.5 -7h-10l-4 -23q67 -4 105 -27t38 -60q0 -47 -56 -74.5t-169 -27.5l-5 15q17 7 34.5 17t30 23t12.5 27q0 29 -45 34z" />
<glyph unicode="&#xc8;" horiz-adv-x="595" d="M442 713l-9 -11q-120 14 -184 46.5t-64 78.5q0 38 30.5 54.5t75.5 16.5q13 0 23 -0.5t17 -1.5q18 -35 49 -86t62 -97zM558 0h-528l-2 16l29 10q18 6 22.5 16.5t4.5 29.5v537l-55 25l2 16h518q4 -19 5.5 -37.5t1.5 -37.5q0 -39 -6.5 -75.5t-18.5 -63.5h-10l-125 174h-94 v-265l157 15l-3 -70l-154 15v-265h102l126 181h10q12 -28 18.5 -65.5t6.5 -77.5q0 -19 -1.5 -38.5t-5.5 -39.5z" />
<glyph unicode="&#xc9;" horiz-adv-x="595" d="M449 833q0 -46 -64 -78.5t-184 -46.5l-9 11q32 46 62.5 97t48.5 86q8 1 17.5 1.5t22.5 0.5q45 0 75.5 -16.5t30.5 -54.5zM558 0h-528l-2 16l29 10q18 6 22.5 16.5t4.5 29.5v538l-55 25l2 16h518q4 -19 5.5 -38t1.5 -37q0 -39 -6.5 -76t-18.5 -64h-10l-125 175h-94v-266 l157 15l-3 -70l-154 15v-265h102l126 181h10q12 -28 18.5 -65.5t6.5 -77.5q0 -19 -1.5 -38.5t-5.5 -39.5z" />
<glyph unicode="&#xca;" horiz-adv-x="595" d="M475 719l-9 -7q-35 16 -74.5 31.5t-78.5 28.5q-36 -13 -76.5 -28.5t-82.5 -31.5l-7 10q24 41 48 84t40 75l11 8h145q26 -44 47.5 -89.5t36.5 -80.5zM558 0h-528l-2 16l29 10q18 6 22.5 16.5t4.5 29.5v537l-55 25l2 16h518q4 -19 5.5 -37.5t1.5 -37.5q0 -39 -6.5 -75.5 t-18.5 -63.5h-10l-125 174h-94v-265l157 15l-3 -70l-154 15v-265h102l126 181h10q12 -28 18.5 -65.5t6.5 -77.5q0 -19 -1.5 -38.5t-5.5 -39.5z" />
<glyph unicode="&#xcb;" horiz-adv-x="595" d="M281 807q0 -43 -31 -68t-77 -25q-39 0 -63.5 21.5t-24.5 56.5q0 42 32.5 68t75.5 26q40 0 64 -21.5t24 -57.5zM537 807q0 -43 -31 -68t-77 -25q-39 0 -63.5 21.5t-24.5 56.5q0 42 32.5 68t75.5 26q40 0 64 -21.5t24 -57.5zM558 0h-528l-2 16l29 10q18 6 22.5 16.5 t4.5 29.5v537l-55 25l2 16h518q4 -19 5.5 -37.5t1.5 -37.5q0 -39 -6.5 -75.5t-18.5 -63.5h-10l-125 174h-94v-265l157 15l-3 -70l-154 15v-265h102l126 181h10q12 -28 18.5 -65.5t6.5 -77.5q0 -19 -1.5 -38.5t-5.5 -39.5z" />
<glyph unicode="&#xcc;" horiz-adv-x="386" d="M324 713l-9 -11q-120 14 -184 46.5t-64 78.5q0 38 30.5 54.5t75.5 16.5q13 0 23 -0.5t17 -1.5q18 -35 49 -86t62 -97zM356 0h-324l-2 16l27 10q18 7 22.5 17t4.5 29v537l-56 25l2 16h324l2 -16l-27 -10q-18 -7 -22.5 -16.5t-4.5 -29.5v-537l56 -25z" />
<glyph unicode="&#xcd;" horiz-adv-x="386" d="M331 832q0 -46 -64 -78.5t-184 -46.5l-9 11q32 46 62.5 97t48.5 86q8 1 17.5 1.5t22.5 0.5q45 0 75.5 -16.5t30.5 -54.5zM356 0h-324l-2 16l27 10q18 7 22.5 17t4.5 29v537l-56 25l2 16h324l2 -16l-27 -10q-18 -7 -22.5 -16.5t-4.5 -29.5v-537l56 -25z" />
<glyph unicode="&#xce;" horiz-adv-x="386" d="M357 719l-9 -7q-35 16 -74.5 31.5t-78.5 28.5q-36 -13 -76.5 -28.5t-82.5 -31.5l-7 10q24 41 48 84t40 75l11 8h145q26 -44 47.5 -89.5t36.5 -80.5zM356 0h-324l-2 16l27 10q18 7 22.5 17t4.5 29v537l-56 25l2 16h324l2 -16l-27 -10q-18 -7 -22.5 -16.5t-4.5 -29.5v-537 l56 -25z" />
<glyph unicode="&#xcf;" horiz-adv-x="386" d="M163 807q0 -43 -31 -68t-77 -25q-39 0 -63.5 21.5t-24.5 56.5q0 42 32.5 68t75.5 26q40 0 64 -21.5t24 -57.5zM419 807q0 -43 -31 -68t-77 -25q-39 0 -63.5 21.5t-24.5 56.5q0 42 32.5 68t75.5 26q40 0 64 -21.5t24 -57.5zM356 0h-324l-2 16l27 10q18 7 22.5 17t4.5 29 v537l-56 25l2 16h324l2 -16l-27 -10q-18 -7 -22.5 -16.5t-4.5 -29.5v-537l56 -25z" />
<glyph unicode="&#xd0;" horiz-adv-x="732" d="M397 312h-95v-272h26q74 0 113.5 75.5t40.5 214.5t-39.5 209.5t-115.5 70.5h-25v-263h95v-35zM349 0h-319l-2 16l29 10q18 6 22.5 16.5t4.5 29.5v240h-56v35h56v262l-55 25l2 16h320q100 0 179.5 -36.5t125.5 -107.5t46 -176t-47 -179t-126.5 -112.5t-179.5 -38.5z" />
<glyph unicode="&#xd1;" horiz-adv-x="656" d="M460 831q12 14 24.5 27t24.5 26l10 -3q2 -13 3 -25t1 -24q0 -51 -23 -84t-75 -33q-55 0 -106 18.5t-89 34.5q-12 -13 -24.5 -26t-24.5 -27l-10 3q-6 27 -6 51q0 50 25 82.5t75 32.5q53 0 102.5 -19.5t92.5 -33.5zM211 0h-199l-2 16l47 15q18 6 22.5 14.5t4.5 26.5v537 l-74 25l2 16h220l307 -412v371l-84 25l2 16h199l2 -16l-47 -15q-18 -6 -22.5 -14.5t-4.5 -26.5v-578h-148l-307 421v-380l84 -25z" />
<glyph unicode="&#xd2;" horiz-adv-x="710" d="M478 713l-9 -11q-120 14 -184 46.5t-64 78.5q0 38 30.5 54.5t75.5 16.5q13 0 23 -0.5t17 -1.5q18 -35 49 -86t62 -97zM672 330q0 -108 -43 -184t-116.5 -116t-166.5 -40q-94 0 -167.5 39.5t-115 114.5t-41.5 181q0 108 45 182.5t119 113.5t162 39q93 0 166.5 -37.5 t115.5 -111t42 -181.5zM257 325q-1 -157 20.5 -226t71.5 -69t68.5 72t19.5 228q1 155 -18 222.5t-71 67.5t-71 -68.5t-20 -226.5z" />
<glyph unicode="&#xd3;" horiz-adv-x="710" d="M485 832q0 -46 -64 -78.5t-184 -46.5l-9 11q32 46 62.5 97t48.5 86q8 1 17.5 1.5t22.5 0.5q45 0 75.5 -16.5t30.5 -54.5zM672 330q0 -108 -43 -184t-116.5 -116t-166.5 -40q-94 0 -167.5 39.5t-115 114.5t-41.5 181q0 108 45 182.5t119 113.5t162 39q93 0 166.5 -37.5 t115.5 -111t42 -181.5zM257 325q-1 -157 20.5 -226t71.5 -69t68.5 72t19.5 228q1 155 -18 222.5t-71 67.5t-71 -68.5t-20 -226.5z" />
<glyph unicode="&#xd4;" horiz-adv-x="710" d="M511 719l-9 -7q-35 16 -74.5 31.5t-78.5 28.5q-36 -13 -76.5 -28.5t-82.5 -31.5l-7 10q24 41 48 84t40 75l11 8h145q26 -44 47.5 -89.5t36.5 -80.5zM672 330q0 -108 -43 -184t-116.5 -116t-166.5 -40q-94 0 -167.5 39.5t-115 114.5t-41.5 181q0 108 45 182.5t119 113.5 t162 39q93 0 166.5 -37.5t115.5 -111t42 -181.5zM257 325q-1 -157 20.5 -226t71.5 -69t68.5 72t19.5 228q1 155 -18 222.5t-71 67.5t-71 -68.5t-20 -226.5z" />
<glyph unicode="&#xd5;" horiz-adv-x="710" d="M463 831q12 14 24.5 27t24.5 26l10 -3q2 -13 3 -25t1 -24q0 -51 -23 -84t-75 -33q-55 0 -106 18.5t-89 34.5q-12 -13 -24.5 -26t-24.5 -27l-10 3q-6 27 -6 51q0 50 25 82.5t75 32.5q53 0 102.5 -19.5t92.5 -33.5zM672 330q0 -108 -43 -184t-116.5 -116t-166.5 -40 q-94 0 -167.5 39.5t-115 114.5t-41.5 181q0 108 45 182.5t119 113.5t162 39q93 0 166.5 -37.5t115.5 -111t42 -181.5zM257 325q-1 -157 20.5 -226t71.5 -69t68.5 72t19.5 228q1 155 -18 222.5t-71 67.5t-71 -68.5t-20 -226.5z" />
<glyph unicode="&#xd6;" horiz-adv-x="710" d="M317 807q0 -43 -31 -68t-77 -25q-39 0 -63.5 21.5t-24.5 56.5q0 42 32.5 68t75.5 26q40 0 64 -21.5t24 -57.5zM573 807q0 -43 -31 -68t-77 -25q-39 0 -63.5 21.5t-24.5 56.5q0 42 32.5 68t75.5 26q40 0 64 -21.5t24 -57.5zM672 330q0 -108 -43 -184t-116.5 -116 t-166.5 -40q-94 0 -167.5 39.5t-115 114.5t-41.5 181q0 108 45 182.5t119 113.5t162 39q93 0 166.5 -37.5t115.5 -111t42 -181.5zM257 325q-1 -157 20.5 -226t71.5 -69t68.5 72t19.5 228q1 155 -18 222.5t-71 67.5t-71 -68.5t-20 -226.5z" />
<glyph unicode="&#xd7;" horiz-adv-x="617" d="M421 114l-112 113l-115 -114l-98 98l114 115l-115 116l96 96q21 -20 52 -49.5t65 -62.5l111 112l101 -100l-111 -111l62.5 -62.5l50.5 -50.5v-12z" />
<glyph unicode="&#xd8;" horiz-adv-x="710" d="M672 330q0 -108 -43 -184t-116.5 -116t-166.5 -40q-113 0 -194 56l-45 -56l-38 32l45 55q-44 43 -68 105.5t-24 142.5q0 108 45 182.5t119 113.5t162 39q114 0 194 -54l44 54l39 -31l-44 -54q43 -42 67 -103.5t24 -141.5zM257 325q0 -38 1 -70l175 216q-7 78 -27 113.5 t-58 35.5q-52 0 -71 -68.5t-20 -226.5zM437 330q0 36 -1 66l-174 -214q8 -80 29 -116t58 -36q50 0 68.5 72t19.5 228z" />
<glyph unicode="&#xd9;" horiz-adv-x="681" d="M535 712l-9 -11q-120 14 -184 46.5t-64 78.5q0 38 30.5 54.5t75.5 16.5q13 0 23 -0.5t17 -1.5q18 -35 49 -86t62 -97zM607 226q0 -116 -62.5 -176t-191.5 -60q-77 0 -138 27t-96 80t-35 132v380l-56 25l2 16h324l2 -16l-27 -10q-18 -7 -22.5 -16.5t-4.5 -29.5v-340 q0 -91 31 -138t98 -47q59 0 95 44t36 129v384l-74 24l2 16h189l2 -16l-74 -24v-384z" />
<glyph unicode="&#xda;" horiz-adv-x="681" d="M542 831q0 -46 -64 -78.5t-184 -46.5l-9 11q32 46 62.5 97t48.5 86q8 1 17.5 1.5t22.5 0.5q45 0 75.5 -16.5t30.5 -54.5zM607 226q0 -116 -62.5 -176t-191.5 -60q-77 0 -138 27t-96 80t-35 132v380l-56 25l2 16h324l2 -16l-27 -10q-18 -7 -22.5 -16.5t-4.5 -29.5v-340 q0 -91 31 -138t98 -47q59 0 95 44t36 129v384l-74 24l2 16h189l2 -16l-74 -24v-384z" />
<glyph unicode="&#xdb;" horiz-adv-x="681" d="M568 718l-9 -7q-35 16 -74.5 31.5t-78.5 28.5q-36 -13 -76.5 -28.5t-82.5 -31.5l-7 10q24 41 48 84t40 75l11 8h145q26 -44 47.5 -89.5t36.5 -80.5zM607 226q0 -116 -62.5 -176t-191.5 -60q-77 0 -138 27t-96 80t-35 132v380l-56 25l2 16h324l2 -16l-27 -10 q-18 -7 -22.5 -16.5t-4.5 -29.5v-340q0 -91 31 -138t98 -47q59 0 95 44t36 129v384l-74 24l2 16h189l2 -16l-74 -24v-384z" />
<glyph unicode="&#xdc;" horiz-adv-x="681" d="M374 806q0 -43 -31 -68t-77 -25q-39 0 -63.5 21.5t-24.5 56.5q0 42 32.5 68t75.5 26q40 0 64 -21.5t24 -57.5zM630 806q0 -43 -31 -68t-77 -25q-39 0 -63.5 21.5t-24.5 56.5q0 42 32.5 68t75.5 26q40 0 64 -21.5t24 -57.5zM607 226q0 -116 -62.5 -176t-191.5 -60 q-77 0 -138 27t-96 80t-35 132v380l-56 25l2 16h324l2 -16l-27 -10q-18 -7 -22.5 -16.5t-4.5 -29.5v-340q0 -91 31 -138t98 -47q59 0 95 44t36 129v384l-74 24l2 16h189l2 -16l-74 -24v-384z" />
<glyph unicode="&#xdd;" horiz-adv-x="688" d="M504 832q0 -46 -64 -78.5t-184 -46.5l-9 11q32 46 62.5 97t48.5 86q8 1 17.5 1.5t22.5 0.5q45 0 75.5 -16.5t30.5 -54.5zM507 0h-324l-2 16l27 10q18 7 22.5 17t4.5 29v192l-161 308q-10 19 -19 30.5t-26 18.5l-29 13l2 16h353l2 -16l-61 -24l129 -314l128 312l-59 26 l2 16h190l2 -16q-12 -7 -24 -18q-21 -18 -41.5 -46t-43.5 -70l-126 -236v-223l56 -25z" />
<glyph unicode="&#xde;" horiz-adv-x="668" d="M337 125h-35v-84l84 -25l-2 -16h-354l-2 16l29 10q18 6 22.5 16.5t4.5 29.5v537l-56 25l2 16h324l2 -16l-27 -10q-18 -7 -22.5 -16.5t-4.5 -29.5v-33h35q141 0 221.5 -53.5t80.5 -151.5q0 -70 -37.5 -118t-105 -72.5t-159.5 -24.5zM322 505h-20v-340h20q46 0 71.5 45 t25.5 131q0 74 -25.5 119t-71.5 45z" />
<glyph unicode="&#xdf;" horiz-adv-x="639" d="M251 0h-239l-2 14l18 10q17 9 22 18t5 28v365h-63l-2 14l65 25l1 -1q7 61 39.5 111.5t89.5 80.5t136 30q70 0 121 -22t79.5 -60t28.5 -87q0 -60 -47 -99t-128 -55q79 -4 137.5 -30t90.5 -69t32 -100q0 -86 -62.5 -134.5t-169.5 -48.5q-42 0 -71.5 13t-29.5 41 q0 16 10.5 25t21.5 12q5 -6 12.5 -11.5t19.5 -5.5q20 0 32.5 22.5t12.5 65.5q0 49 -12 92.5t-35.5 73.5t-60.5 39v16q22 4 37.5 29t24.5 63.5t9 81.5q0 50 -13 79t-37 29q-28 0 -43.5 -32.5t-15.5 -97.5v-511z" />
<glyph unicode="&#xe0;" horiz-adv-x="565" d="M427 562l-9 -11q-120 14 -184 46.5t-64 78.5q0 38 30.5 54.5t75.5 16.5q13 0 23 -0.5t17 -1.5q18 -35 49 -86t62 -97zM579 77q-12 -20 -30.5 -40t-47 -33.5t-71.5 -13.5q-49 0 -81 24.5t-41 58.5q-18 -32 -54 -57.5t-95 -25.5q-35 0 -66 15t-49.5 42.5t-18.5 64.5 q0 77 76 116t204 43v137q0 62 -33 62q-17 0 -27 -18t-10 -58q0 -13 1.5 -32.5t5.5 -39.5q-28 -10 -52 -15t-46 -5q-41 0 -67.5 16.5t-26.5 50.5q0 37 33 69t89 52t124 20q104 0 164 -47t60 -153q0 -41 -2.5 -88t-2.5 -74q0 -36 8.5 -50t27.5 -14q13 0 22 3zM245 155 q0 -32 12 -46t28 -14q12 0 20 6v140q-29 -4 -44.5 -27t-15.5 -59z" />
<glyph unicode="&#xe1;" horiz-adv-x="565" d="M444 676q0 -46 -64 -78.5t-184 -46.5l-9 11q32 46 62.5 97t48.5 86q8 1 17.5 1.5t22.5 0.5q45 0 75.5 -16.5t30.5 -54.5zM579 77q-12 -20 -30.5 -40t-47 -33.5t-71.5 -13.5q-49 0 -81 24.5t-41 58.5q-18 -32 -54 -57.5t-95 -25.5q-35 0 -66 15t-49.5 42.5t-18.5 64.5 q0 77 76 116t204 43v137q0 62 -33 62q-17 0 -27 -18t-10 -58q0 -13 1.5 -32.5t5.5 -39.5q-28 -10 -52 -15t-46 -5q-41 0 -67.5 16.5t-26.5 50.5q0 37 33 69t89 52t124 20q104 0 164 -47t60 -153q0 -41 -2.5 -88t-2.5 -74q0 -36 8.5 -50t27.5 -14q13 0 22 3zM245 155 q0 -32 12 -46t28 -14q12 0 20 6v140q-29 -4 -44.5 -27t-15.5 -59z" />
<glyph unicode="&#xe2;" horiz-adv-x="565" d="M463 568l-9 -7q-35 16 -74.5 31.5t-78.5 28.5q-36 -13 -76.5 -28.5t-82.5 -31.5l-7 10q24 41 48 84t40 75l11 8h145q26 -44 47.5 -89.5t36.5 -80.5zM579 77q-12 -20 -30.5 -40t-47 -33.5t-71.5 -13.5q-49 0 -81 24.5t-41 58.5q-18 -32 -54 -57.5t-95 -25.5q-35 0 -66 15 t-49.5 42.5t-18.5 64.5q0 77 76 116t204 43v137q0 62 -33 62q-17 0 -27 -18t-10 -58q0 -13 1.5 -32.5t5.5 -39.5q-28 -10 -52 -15t-46 -5q-41 0 -67.5 16.5t-26.5 50.5q0 37 33 69t89 52t124 20q104 0 164 -47t60 -153q0 -41 -2.5 -88t-2.5 -74q0 -36 8.5 -50t27.5 -14 q13 0 22 3zM245 155q0 -32 12 -46t28 -14q12 0 20 6v140q-29 -4 -44.5 -27t-15.5 -59z" />
<glyph unicode="&#xe3;" horiz-adv-x="565" d="M412 681q12 14 24.5 27t24.5 26l10 -3q2 -13 3 -25t1 -24q0 -51 -23 -84t-75 -33q-55 0 -106 18.5t-89 34.5q-12 -13 -24.5 -26t-24.5 -27l-10 3q-6 27 -6 51q0 50 25 82.5t75 32.5q53 0 102.5 -19.5t92.5 -33.5zM579 77q-12 -20 -30.5 -40t-47 -33.5t-71.5 -13.5 q-49 0 -81 24.5t-41 58.5q-18 -32 -54 -57.5t-95 -25.5q-35 0 -66 15t-49.5 42.5t-18.5 64.5q0 77 76 116t204 43v137q0 62 -33 62q-17 0 -27 -18t-10 -58q0 -13 1.5 -32.5t5.5 -39.5q-28 -10 -52 -15t-46 -5q-41 0 -67.5 16.5t-26.5 50.5q0 37 33 69t89 52t124 20 q104 0 164 -47t60 -153q0 -41 -2.5 -88t-2.5 -74q0 -36 8.5 -50t27.5 -14q13 0 22 3zM245 155q0 -32 12 -46t28 -14q12 0 20 6v140q-29 -4 -44.5 -27t-15.5 -59z" />
<glyph unicode="&#xe4;" horiz-adv-x="565" d="M265 657q0 -43 -31 -68t-77 -25q-39 0 -63.5 21.5t-24.5 56.5q0 42 32.5 68t75.5 26q40 0 64 -21.5t24 -57.5zM521 657q0 -43 -31 -68t-77 -25q-39 0 -63.5 21.5t-24.5 56.5q0 42 32.5 68t75.5 26q40 0 64 -21.5t24 -57.5zM579 77q-12 -20 -30.5 -40t-47 -33.5 t-71.5 -13.5q-49 0 -81 24.5t-41 58.5q-18 -32 -54 -57.5t-95 -25.5q-35 0 -66 15t-49.5 42.5t-18.5 64.5q0 77 76 116t204 43v137q0 62 -33 62q-17 0 -27 -18t-10 -58q0 -13 1.5 -32.5t5.5 -39.5q-28 -10 -52 -15t-46 -5q-41 0 -67.5 16.5t-26.5 50.5q0 37 33 69t89 52 t124 20q104 0 164 -47t60 -153q0 -41 -2.5 -88t-2.5 -74q0 -36 8.5 -50t27.5 -14q13 0 22 3zM245 155q0 -32 12 -46t28 -14q12 0 20 6v140q-29 -4 -44.5 -27t-15.5 -59z" />
<glyph unicode="&#xe5;" horiz-adv-x="565" d="M292 554q-46 0 -76 24t-30 67q0 46 32.5 73t81.5 27q45 0 75 -24.5t30 -65.5q0 -45 -32 -73t-81 -28zM296 698q-17 0 -27.5 -14t-10.5 -37q0 -21 10.5 -33t26.5 -12q17 0 27.5 14t10.5 37q0 20 -10 32.5t-27 12.5zM579 77q-12 -20 -30.5 -40t-47 -33.5t-71.5 -13.5 q-49 0 -81 24.5t-41 58.5q-18 -32 -54 -57.5t-95 -25.5q-35 0 -66 15t-49.5 42.5t-18.5 64.5q0 77 76 116t204 43v137q0 62 -33 62q-17 0 -27 -18t-10 -58q0 -13 1.5 -32.5t5.5 -39.5q-28 -10 -52 -15t-46 -5q-41 0 -67.5 16.5t-26.5 50.5q0 37 33 69t89 52t124 20 q104 0 164 -47t60 -153q0 -41 -2.5 -88t-2.5 -74q0 -36 8.5 -50t27.5 -14q13 0 22 3zM245 155q0 -32 12 -46t28 -14q12 0 20 6v140q-29 -4 -44.5 -27t-15.5 -59z" />
<glyph unicode="&#xe6;" horiz-adv-x="820" d="M795 161q-13 -47 -43.5 -85.5t-79.5 -61.5t-117 -23q-72 0 -126.5 24t-85.5 74q-11 -23 -33.5 -46t-56.5 -38t-80 -15q-63 0 -105.5 33t-42.5 89q0 77 76 116t204 43v137q0 62 -33 62q-17 0 -27 -18t-10 -58q0 -13 1.5 -32.5t5.5 -39.5q-28 -10 -52 -15t-46 -5 q-41 0 -67.5 16.5t-26.5 50.5q0 37 33 69t89 52t124 20q88 0 142 -32q61 33 137 33q70 0 121.5 -27t80 -75t28.5 -110q0 -9 -1 -20t-3 -20l-8 -8h-260q15 -59 53 -84.5t91 -25.5q35 0 61.5 8.5t48.5 19.5zM525 325q0 -20 2 -39l67 6q1 13 1 24.5v23.5q0 62 -4.5 96.5 t-26.5 34.5t-30.5 -39t-8.5 -107zM245 173q0 -33 14 -53.5t36 -20.5q20 0 34 15q-24 53 -24 127q-60 -7 -60 -68z" />
<glyph unicode="&#xe7;" horiz-adv-x="515" d="M20 245q0 77 35 137t96 94t137 34q73 0 121 -23t72 -58.5t24 -73.5q0 -40 -27.5 -60t-67.5 -20q-25 0 -45.5 6.5t-34.5 13.5q0 87 -7.5 131t-35.5 44q-25 0 -36 -41t-11 -108q0 -96 42 -138.5t111 -42.5q29 0 56.5 8t52.5 20l8 -8q-11 -42 -37 -79.5t-69 -61.5t-106 -28 l-4 -24q67 -4 105 -27t38 -60q0 -47 -56 -74.5t-169 -27.5l-5 15q17 7 34.5 17t30 23t12.5 27q0 29 -45 34l-3 6l15 91q-66 5 -118 37.5t-82.5 87.5t-30.5 129z" />
<glyph unicode="&#xe8;" horiz-adv-x="535" d="M406 562l-9 -11q-120 14 -184 46.5t-64 78.5q0 38 30.5 54.5t75.5 16.5q13 0 23 -0.5t17 -1.5q18 -35 49 -86t62 -97zM510 160q-13 -47 -43.5 -85.5t-79.5 -61.5t-117 -23t-125 30.5t-91 87t-34 132.5q0 83 36 143.5t97 93.5t137 33q70 0 121.5 -27t80 -75t28.5 -110 q0 -9 -1 -20t-3 -20l-8 -8h-260q15 -59 53 -84.5t91 -25.5q35 0 61.5 8.5t48.5 19.5zM240 324q0 -20 2 -39l67 6q1 13 1 24.5v23.5q0 62 -4.5 96.5t-26.5 34.5t-30.5 -39t-8.5 -107z" />
<glyph unicode="&#xe9;" horiz-adv-x="535" d="M423 676q0 -46 -64 -78.5t-184 -46.5l-9 11q32 46 62.5 97t48.5 86q8 1 17.5 1.5t22.5 0.5q45 0 75.5 -16.5t30.5 -54.5zM510 160q-13 -47 -43.5 -85.5t-79.5 -61.5t-117 -23t-125 30.5t-91 87t-34 132.5q0 83 36 143.5t97 93.5t137 33q70 0 121.5 -27t80 -75t28.5 -110 q0 -9 -1 -20t-3 -20l-8 -8h-260q15 -59 53 -84.5t91 -25.5q35 0 61.5 8.5t48.5 19.5zM240 324q0 -20 2 -39l67 6q1 13 1 24.5v23.5q0 62 -4.5 96.5t-26.5 34.5t-30.5 -39t-8.5 -107z" />
<glyph unicode="&#xea;" horiz-adv-x="535" d="M442 568l-9 -7q-35 16 -74.5 31.5t-78.5 28.5q-36 -13 -76.5 -28.5t-82.5 -31.5l-7 10q24 41 48 84t40 75l11 8h145q26 -44 47.5 -89.5t36.5 -80.5zM510 160q-13 -47 -43.5 -85.5t-79.5 -61.5t-117 -23t-125 30.5t-91 87t-34 132.5q0 83 36 143.5t97 93.5t137 33 q70 0 121.5 -27t80 -75t28.5 -110q0 -9 -1 -20t-3 -20l-8 -8h-260q15 -59 53 -84.5t91 -25.5q35 0 61.5 8.5t48.5 19.5zM240 324q0 -20 2 -39l67 6q1 13 1 24.5v23.5q0 62 -4.5 96.5t-26.5 34.5t-30.5 -39t-8.5 -107z" />
<glyph unicode="&#xeb;" horiz-adv-x="535" d="M244 657q0 -43 -31 -68t-77 -25q-39 0 -63.5 21.5t-24.5 56.5q0 42 32.5 68t75.5 26q40 0 64 -21.5t24 -57.5zM500 657q0 -43 -31 -68t-77 -25q-39 0 -63.5 21.5t-24.5 56.5q0 42 32.5 68t75.5 26q40 0 64 -21.5t24 -57.5zM510 160q-13 -47 -43.5 -85.5t-79.5 -61.5 t-117 -23t-125 30.5t-91 87t-34 132.5q0 83 36 143.5t97 93.5t137 33q70 0 121.5 -27t80 -75t28.5 -110q0 -9 -1 -20t-3 -20l-8 -8h-260q15 -59 53 -84.5t91 -25.5q35 0 61.5 8.5t48.5 19.5zM240 324q0 -20 2 -39l67 6q1 13 1 24.5v23.5q0 62 -4.5 96.5t-26.5 34.5 t-30.5 -39t-8.5 -107z" />
<glyph unicode="&#xec;" horiz-adv-x="315" d="M291 562l-9 -11q-120 14 -184 46.5t-64 78.5q0 38 30.5 54.5t75.5 16.5q13 0 23 -0.5t17 -1.5q18 -35 49 -86t62 -97zM308 0h-296l-2 14l18 10q17 9 22 18t5 28v366l-45 17l-1 14q32 11 76 21t90 16t82 6l8 -8v-463l45 -25z" />
<glyph unicode="&#xed;" horiz-adv-x="315" d="M308 676q0 -46 -64 -78.5t-184 -46.5l-9 11q32 46 62.5 97t48.5 86q8 1 17.5 1.5t22.5 0.5q45 0 75.5 -16.5t30.5 -54.5zM308 0h-296l-2 14l18 10q17 9 22 18t5 28v366l-45 17l-1 14q32 11 76 21t90 16t82 6l8 -8v-463l45 -25z" />
<glyph unicode="&#xee;" horiz-adv-x="315" d="M301 568l-9 -7q-62 32 -129 58q-31 -13 -66 -28l-70 -30l-7 10q18 41 36 84t30 75l11 8h143q18 -44 34.5 -89.5t26.5 -80.5zM308 0h-296l-2 14l18 10q17 9 22 18t5 28v366l-45 17l-1 14q32 11 76 21t90 16t82 6l8 -8v-463l45 -25z" />
<glyph unicode="&#xef;" horiz-adv-x="315" d="M133 657q0 -43 -25.5 -68t-62.5 -25q-30 0 -49 21.5t-19 56.5q0 42 26 68t62 26q31 0 49.5 -21.5t18.5 -57.5zM343 657q0 -43 -25.5 -68t-62.5 -25q-30 0 -49 21.5t-19 56.5q0 42 26 68t62 26q31 0 49.5 -21.5t18.5 -57.5zM308 0h-296l-2 14l18 10q17 9 22 18t5 28v366 l-45 17l-1 14q32 11 76 21t90 16t82 6l8 -8v-463l45 -25z" />
<glyph unicode="&#xf0;" horiz-adv-x="570" d="M550 300q0 -93 -32.5 -163t-94 -108.5t-147.5 -38.5q-77 0 -134.5 32t-89.5 90t-32 136t30.5 137t85 92t126.5 33q22 0 42 -5q-22 52 -56 99l-173 -88l-18 36l165 84q-59 69 -137 112l4 12q67 -8 126 -26t109 -46l119 61l19 -36l-98 -50q89 -62 137.5 -155t48.5 -208z M240 250q0 -85 4 -133t14 -67.5t27 -19.5q16 0 25.5 19.5t14.5 68.5t5 137q0 97 -6.5 156t-34.5 59q-27 0 -38 -50.5t-11 -169.5z" />
<glyph unicode="&#xf1;" d="M423 681q12 14 24.5 27t24.5 26l10 -3q2 -13 3 -25t1 -24q0 -51 -23 -84t-75 -33q-55 0 -106 18.5t-89 34.5q-12 -13 -24.5 -26t-24.5 -27l-10 3q-6 27 -6 51q0 50 25 82.5t75 32.5q53 0 102.5 -19.5t92.5 -33.5zM308 0h-296l-2 14l18 10q17 9 22 18t5 28v366l-45 17 l-1 14q32 11 76 21t90 16t82 6l8 -8v-105q17 28 40.5 54t55 42.5t73.5 16.5q65 0 98 -39.5t33 -106.5v-325l45 -25l-2 -14h-239l-14 14v299q0 62 -51 62q-10 0 -21 -3t-18 -7v-326l45 -25z" />
<glyph unicode="&#xf2;" horiz-adv-x="570" d="M417 562l-9 -11q-120 14 -184 46.5t-64 78.5q0 38 30.5 54.5t75.5 16.5q13 0 23 -0.5t17 -1.5q18 -35 49 -86t62 -97zM550 263q0 -84 -35.5 -145.5t-96.5 -94.5t-139 -33q-74 0 -133 30t-92.5 85.5t-33.5 131.5q0 85 35 146t96.5 94t139.5 33q75 0 133.5 -30t92 -85 t33.5 -132zM240 262q0 -86 3.5 -137t13 -73t28.5 -22t28.5 19t13 64.5t3.5 124.5q0 89 -3.5 139.5t-13 71.5t-28.5 21q-18 0 -28 -19t-13.5 -64.5t-3.5 -124.5z" />
<glyph unicode="&#xf3;" horiz-adv-x="570" d="M434 676q0 -46 -64 -78.5t-184 -46.5l-9 11q32 46 62.5 97t48.5 86q8 1 17.5 1.5t22.5 0.5q45 0 75.5 -16.5t30.5 -54.5zM550 263q0 -84 -35.5 -145.5t-96.5 -94.5t-139 -33q-74 0 -133 30t-92.5 85.5t-33.5 131.5q0 85 35 146t96.5 94t139.5 33q75 0 133.5 -30t92 -85 t33.5 -132zM240 262q0 -86 3.5 -137t13 -73t28.5 -22t28.5 19t13 64.5t3.5 124.5q0 89 -3.5 139.5t-13 71.5t-28.5 21q-18 0 -28 -19t-13.5 -64.5t-3.5 -124.5z" />
<glyph unicode="&#xf4;" horiz-adv-x="570" d="M453 568l-9 -7q-35 16 -74.5 31.5t-78.5 28.5q-36 -13 -76.5 -28.5t-82.5 -31.5l-7 10q24 41 48 84t40 75l11 8h145q26 -44 47.5 -89.5t36.5 -80.5zM550 263q0 -84 -35.5 -145.5t-96.5 -94.5t-139 -33q-74 0 -133 30t-92.5 85.5t-33.5 131.5q0 85 35 146t96.5 94 t139.5 33q75 0 133.5 -30t92 -85t33.5 -132zM240 262q0 -86 3.5 -137t13 -73t28.5 -22t28.5 19t13 64.5t3.5 124.5q0 89 -3.5 139.5t-13 71.5t-28.5 21q-18 0 -28 -19t-13.5 -64.5t-3.5 -124.5z" />
<glyph unicode="&#xf5;" horiz-adv-x="570" d="M402 681q12 14 24.5 27t24.5 26l10 -3q2 -13 3 -25t1 -24q0 -51 -23 -84t-75 -33q-55 0 -106 18.5t-89 34.5q-12 -13 -24.5 -26t-24.5 -27l-10 3q-6 27 -6 51q0 50 25 82.5t75 32.5q53 0 102.5 -19.5t92.5 -33.5zM550 263q0 -84 -35.5 -145.5t-96.5 -94.5t-139 -33 q-74 0 -133 30t-92.5 85.5t-33.5 131.5q0 85 35 146t96.5 94t139.5 33q75 0 133.5 -30t92 -85t33.5 -132zM240 262q0 -86 3.5 -137t13 -73t28.5 -22t28.5 19t13 64.5t3.5 124.5q0 89 -3.5 139.5t-13 71.5t-28.5 21q-18 0 -28 -19t-13.5 -64.5t-3.5 -124.5z" />
<glyph unicode="&#xf6;" horiz-adv-x="570" d="M255 657q0 -43 -31 -68t-77 -25q-39 0 -63.5 21.5t-24.5 56.5q0 42 32.5 68t75.5 26q40 0 64 -21.5t24 -57.5zM511 657q0 -43 -31 -68t-77 -25q-39 0 -63.5 21.5t-24.5 56.5q0 42 32.5 68t75.5 26q40 0 64 -21.5t24 -57.5zM550 263q0 -84 -35.5 -145.5t-96.5 -94.5 t-139 -33q-74 0 -133 30t-92.5 85.5t-33.5 131.5q0 85 35 146t96.5 94t139.5 33q75 0 133.5 -30t92 -85t33.5 -132zM240 262q0 -86 3.5 -137t13 -73t28.5 -22t28.5 19t13 64.5t3.5 124.5q0 89 -3.5 139.5t-13 71.5t-28.5 21q-18 0 -28 -19t-13.5 -64.5t-3.5 -124.5z" />
<glyph unicode="&#xf7;" horiz-adv-x="599" d="M386 534q0 -40 -27.5 -68t-68.5 -28q-34 0 -55.5 22.5t-21.5 53.5q0 40 29 67.5t69 27.5q32 0 53.5 -20.5t21.5 -54.5zM510 256h-430v132q36 2 93 3t121 1.5t121.5 1t95.5 0.5l8 -8zM386 137q0 -40 -27.5 -67.5t-68.5 -27.5q-34 0 -55.5 22t-21.5 53q0 40 29 68t69 28 q32 0 53.5 -21t21.5 -55z" />
<glyph unicode="&#xf8;" horiz-adv-x="570" d="M550 263q0 -84 -35.5 -145.5t-96.5 -94.5t-139 -33q-109 0 -179 61l-39 -36l-27 30l37 35q-24 30 -37.5 70t-13.5 87q0 85 35 146t96.5 94t139.5 33q107 0 178 -59l39 36l29 -29l-39 -37q24 -30 38 -70t14 -88zM240 262v-25l89 83q-2 85 -11 117.5t-33 32.5 q-18 0 -28 -19t-13.5 -64.5t-3.5 -124.5zM330 238v27l-89 -83q2 -84 11 -118t33 -34q19 0 28.5 19t13 64.5t3.5 124.5z" />
<glyph unicode="&#xf9;" d="M429 562l-9 -11q-120 14 -184 46.5t-64 78.5q0 38 30.5 54.5t75.5 16.5q13 0 23 -0.5t17 -1.5q18 -35 49 -86t62 -97zM626 73q-19 -29 -55.5 -56t-95.5 -27q-57 0 -91 32t-34 75v6q-20 -44 -57.5 -78.5t-100.5 -34.5q-67 0 -104.5 41t-37.5 109v296l-45 17l-1 14 q32 11 76 21t90 16t82 6l8 -8v-315q0 -31 11.5 -46.5t40.5 -15.5q21 0 38 10v301l-45 17l-1 14q32 11 76 21t90 16t82 6l8 -8v-354q0 -36 8.5 -50t27.5 -14q13 0 22 3z" />
<glyph unicode="&#xfa;" d="M446 676q0 -46 -64 -78.5t-184 -46.5l-9 11q32 46 62.5 97t48.5 86q8 1 17.5 1.5t22.5 0.5q45 0 75.5 -16.5t30.5 -54.5zM626 73q-19 -29 -55.5 -56t-95.5 -27q-57 0 -91 32t-34 75v6q-20 -44 -57.5 -78.5t-100.5 -34.5q-67 0 -104.5 41t-37.5 109v296l-45 17l-1 14 q32 11 76 21t90 16t82 6l8 -8v-315q0 -31 11.5 -46.5t40.5 -15.5q21 0 38 10v301l-45 17l-1 14q32 11 76 21t90 16t82 6l8 -8v-354q0 -36 8.5 -50t27.5 -14q13 0 22 3z" />
<glyph unicode="&#xfb;" d="M465 568l-9 -7q-35 16 -74.5 31.5t-78.5 28.5q-36 -13 -76.5 -28.5t-82.5 -31.5l-7 10q24 41 48 84t40 75l11 8h145q26 -44 47.5 -89.5t36.5 -80.5zM626 73q-19 -29 -55.5 -56t-95.5 -27q-57 0 -91 32t-34 75v6q-20 -44 -57.5 -78.5t-100.5 -34.5q-67 0 -104.5 41 t-37.5 109v296l-45 17l-1 14q32 11 76 21t90 16t82 6l8 -8v-315q0 -31 11.5 -46.5t40.5 -15.5q21 0 38 10v301l-45 17l-1 14q32 11 76 21t90 16t82 6l8 -8v-354q0 -36 8.5 -50t27.5 -14q13 0 22 3z" />
<glyph unicode="&#xfc;" d="M267 657q0 -43 -31 -68t-77 -25q-39 0 -63.5 21.5t-24.5 56.5q0 42 32.5 68t75.5 26q40 0 64 -21.5t24 -57.5zM523 657q0 -43 -31 -68t-77 -25q-39 0 -63.5 21.5t-24.5 56.5q0 42 32.5 68t75.5 26q40 0 64 -21.5t24 -57.5zM626 73q-19 -29 -55.5 -56t-95.5 -27 q-57 0 -91 32t-34 75v6q-20 -44 -57.5 -78.5t-100.5 -34.5q-67 0 -104.5 41t-37.5 109v296l-45 17l-1 14q32 11 76 21t90 16t82 6l8 -8v-315q0 -31 11.5 -46.5t40.5 -15.5q21 0 38 10v301l-45 17l-1 14q32 11 76 21t90 16t82 6l8 -8v-354q0 -36 8.5 -50t27.5 -14q13 0 22 3z " />
<glyph unicode="&#xfd;" horiz-adv-x="538" d="M422 676q0 -46 -64 -78.5t-184 -46.5l-9 11q32 46 62.5 97t48.5 86q8 1 17.5 1.5t22.5 0.5q45 0 75.5 -16.5t30.5 -54.5zM150 -195q-53 0 -84.5 29.5t-31.5 74.5q0 32 13 56q19 -5 48 -10t59 -5q45 0 86 13t64 37h-114l-137 402q-10 32 -21 50t-28 31l-4 3l2 14h312 l2 -14l-47 -27l82 -325l92 329l-47 23l2 14h138l2 -14l-8 -5q-19 -12 -29 -30.5t-21 -48.5l-118 -350q-15 -44 -34.5 -88t-45 -80t-58.5 -57.5t-74 -21.5z" />
<glyph unicode="&#xfe;" horiz-adv-x="590" d="M323 -185h-316l-2 14l18 10q17 9 22 18t5 28v726l-45 17l-1 14q32 11 76 21t90 16t82 6l8 -8v-258q22 35 59.5 63t88.5 28q76 0 119 -64t43 -186q0 -100 -33.5 -159t-88 -85t-117.5 -26q-18 0 -35.5 1.5t-35.5 4.5v-142l65 -25zM288 385q-10 0 -17 -2t-11 -4v-323 q16 -6 33 -6q24 0 36 24t16.5 66t4.5 95q0 80 -13.5 115t-48.5 35z" />
<glyph unicode="&#xff;" horiz-adv-x="538" d="M243 657q0 -43 -31 -68t-77 -25q-39 0 -63.5 21.5t-24.5 56.5q0 42 32.5 68t75.5 26q40 0 64 -21.5t24 -57.5zM499 657q0 -43 -31 -68t-77 -25q-39 0 -63.5 21.5t-24.5 56.5q0 42 32.5 68t75.5 26q40 0 64 -21.5t24 -57.5zM150 -195q-53 0 -84.5 29.5t-31.5 74.5 q0 32 13 56q19 -5 48 -10t59 -5q45 0 86 13t64 37h-114l-137 402q-10 32 -21 50t-28 31l-4 3l2 14h312l2 -14l-47 -27l82 -325l92 329l-47 23l2 14h138l2 -14l-8 -5q-19 -12 -29 -30.5t-21 -48.5l-118 -350q-15 -44 -34.5 -88t-45 -80t-58.5 -57.5t-74 -21.5z" />
<glyph unicode="&#x100;" horiz-adv-x="698" d="M178 747v106h342v-106h-342zM291 650h115l218 -572q7 -19 18 -30t27 -19l29 -13l-2 -16h-353l-2 16l63 25l-42 122l-210 -2l-44 -119l69 -26l-2 -16h-173l-2 16l31 11q21 8 28.5 21.5t16.5 35.5zM168 203h180l-86 253z" />
<glyph unicode="&#x101;" horiz-adv-x="565" d="M126 597v106h342v-106h-342zM579 77q-12 -20 -30.5 -40t-47 -33.5t-71.5 -13.5q-49 0 -81 24.5t-41 58.5q-18 -32 -54 -57.5t-95 -25.5q-35 0 -66 15t-49.5 42.5t-18.5 64.5q0 77 76 116t204 43v137q0 62 -33 62q-17 0 -27 -18t-10 -58q0 -13 1.5 -32.5t5.5 -39.5 q-28 -10 -52 -15t-46 -5q-41 0 -67.5 16.5t-26.5 50.5q0 37 33 69t89 52t124 20q104 0 164 -47t60 -153q0 -41 -2.5 -88t-2.5 -74q0 -36 8.5 -50t27.5 -14q13 0 22 3zM245 155q0 -32 12 -46t28 -14q12 0 20 6v140q-29 -4 -44.5 -27t-15.5 -59z" />
<glyph unicode="&#x102;" horiz-adv-x="698" d="M483 893l4 1l10 -4q-4 -91 -43 -138t-110 -47q-68 0 -104.5 47.5t-38.5 138.5l14 4q18 -28 49 -43.5t86 -15.5q50 0 81 15.5t52 41.5zM291 650h115l218 -572q7 -19 18 -30t27 -19l29 -13l-2 -16h-353l-2 16l63 25l-42 122l-210 -2l-44 -119l69 -26l-2 -16h-173l-2 16 l31 11q21 8 28.5 21.5t16.5 35.5zM168 203h180l-86 253z" />
<glyph unicode="&#x103;" horiz-adv-x="565" d="M428 744l4 1l10 -4q-4 -91 -43 -138t-110 -47q-68 0 -104.5 47.5t-38.5 138.5l14 4q18 -28 49 -43.5t86 -15.5q50 0 81 15.5t52 41.5zM579 77q-12 -20 -30.5 -40t-47 -33.5t-71.5 -13.5q-49 0 -81 24.5t-41 58.5q-18 -32 -54 -57.5t-95 -25.5q-35 0 -66 15t-49.5 42.5 t-18.5 64.5q0 77 76 116t204 43v137q0 62 -33 62q-17 0 -27 -18t-10 -58q0 -13 1.5 -32.5t5.5 -39.5q-28 -10 -52 -15t-46 -5q-41 0 -67.5 16.5t-26.5 50.5q0 37 33 69t89 52t124 20q104 0 164 -47t60 -153q0 -41 -2.5 -88t-2.5 -74q0 -36 8.5 -50t27.5 -14q13 0 22 3z M245 155q0 -32 12 -46t28 -14q12 0 20 6v140q-29 -4 -44.5 -27t-15.5 -59z" />
<glyph unicode="&#x104;" horiz-adv-x="698" d="M291 650h115l218 -572q7 -19 18 -30t27 -19l29 -13l-2 -16q-27 -13 -46 -40.5t-19 -55.5q0 -21 11.5 -29.5t30.5 -8.5t36 7l5 -10q-19 -39 -56 -62t-80 -23q-40 0 -66 21.5t-26 57.5q0 25 16.5 53t53 52t95.5 38h-308l-2 16l63 25l-42 122l-210 -2l-44 -119l69 -26 l-2 -16h-173l-2 16l31 11q21 8 28.5 21.5t16.5 35.5zM168 203h180l-86 253z" />
<glyph unicode="&#x105;" horiz-adv-x="565" d="M550 -137q-19 -38 -50.5 -61.5t-74.5 -23.5q-35 0 -64 18.5t-29 55.5q0 41 36 72t106 71q-20 -5 -44 -5q-49 0 -81 24.5t-41 58.5q-18 -32 -54 -57.5t-95 -25.5q-35 0 -66 15t-49.5 42.5t-18.5 64.5q0 77 76 116t204 43v137q0 62 -33 62q-17 0 -27 -18t-10 -58 q0 -13 1.5 -32.5t5.5 -39.5q-28 -10 -52 -15t-46 -5q-41 0 -67.5 16.5t-26.5 50.5q0 37 33 69t89 52t124 20q104 0 164 -47t60 -153q0 -41 -2.5 -88t-2.5 -74q0 -36 8.5 -50t27.5 -14q13 0 22 3l6 -10q-23 -41 -47 -71.5t-39.5 -54.5t-15.5 -48q0 -18 10 -27.5t25 -9.5 q9 0 17.5 2t15.5 5zM245 155q0 -32 12 -46t28 -14q12 0 20 6v140q-29 -4 -44.5 -27t-15.5 -59z" />
<glyph unicode="&#x106;" horiz-adv-x="645" d="M523 832q0 -46 -64 -78.5t-184 -46.5l-9 11q32 46 62.5 97t48.5 86q8 1 17.5 1.5t22.5 0.5q45 0 75.5 -16.5t30.5 -54.5zM605 16q-46 -12 -91.5 -19t-104.5 -7q-114 0 -200.5 38.5t-135 113t-48.5 180.5q0 80 30 142.5t83 106t123.5 66.5t151.5 23q52 0 100 -7t82 -19 q2 -14 3 -30t1 -32q0 -43 -9 -84.5t-23 -73.5h-10l-122 206h-5q-42 0 -81 -36t-64 -102t-25 -157q0 -93 25 -159t63 -101t78 -35q10 0 20 1l121 205h10q14 -28 23 -72t9 -94q0 -14 -1 -27.5t-3 -26.5z" />
<glyph unicode="&#x107;" horiz-adv-x="515" d="M426 676q0 -46 -64 -78.5t-184 -46.5l-9 11q32 46 62.5 97t48.5 86q8 1 17.5 1.5t22.5 0.5q45 0 75.5 -16.5t30.5 -54.5zM20 245q0 77 35 137t96 94t137 34q73 0 121 -23t72 -58.5t24 -73.5q0 -40 -27.5 -60t-67.5 -20q-25 0 -45.5 6.5t-34.5 13.5q0 87 -7.5 131 t-35.5 44q-25 0 -36 -41t-11 -108q0 -96 42 -138.5t111 -42.5q29 0 56.5 8t52.5 20l8 -8q-12 -44 -40 -83t-75.5 -63t-117.5 -24q-72 0 -130.5 31t-92.5 88t-34 136z" />
<glyph unicode="&#x108;" horiz-adv-x="645" d="M549 719l-9 -7q-35 16 -74.5 31.5t-78.5 28.5q-36 -13 -76.5 -28.5t-82.5 -31.5l-7 10q24 41 48 84t40 75l11 8h145q26 -44 47.5 -89.5t36.5 -80.5zM605 16q-46 -12 -91.5 -19t-104.5 -7q-114 0 -200.5 38.5t-135 113t-48.5 180.5q0 80 30 142.5t83 106t123.5 66.5 t151.5 23q52 0 100 -7t82 -19q2 -14 3 -30t1 -32q0 -43 -9 -84.5t-23 -73.5h-10l-122 206h-5q-42 0 -81 -36t-64 -102t-25 -157q0 -93 25 -159t63 -101t78 -35q10 0 20 1l121 205h10q14 -28 23 -72t9 -94q0 -14 -1 -27.5t-3 -26.5z" />
<glyph unicode="&#x109;" horiz-adv-x="515" d="M445 568l-9 -7q-35 16 -74.5 31.5t-78.5 28.5q-36 -13 -76.5 -28.5t-82.5 -31.5l-7 10q24 41 48 84t40 75l11 8h145q26 -44 47.5 -89.5t36.5 -80.5zM20 245q0 77 35 137t96 94t137 34q73 0 121 -23t72 -58.5t24 -73.5q0 -40 -27.5 -60t-67.5 -20q-25 0 -45.5 6.5 t-34.5 13.5q0 87 -7.5 131t-35.5 44q-25 0 -36 -41t-11 -108q0 -96 42 -138.5t111 -42.5q29 0 56.5 8t52.5 20l8 -8q-12 -44 -40 -83t-75.5 -63t-117.5 -24q-72 0 -130.5 31t-92.5 88t-34 136z" />
<glyph unicode="&#x10a;" horiz-adv-x="645" d="M500 807q0 -46 -36 -73.5t-89 -27.5q-46 0 -75.5 23.5t-29.5 62.5q0 46 37.5 74t87.5 28q47 0 76 -23.5t29 -63.5zM605 16q-46 -12 -91.5 -19t-104.5 -7q-114 0 -200.5 38.5t-135 113t-48.5 180.5q0 80 30 142.5t83 106t123.5 66.5t151.5 23q52 0 100 -7t82 -19 q2 -14 3 -30t1 -32q0 -43 -9 -84.5t-23 -73.5h-10l-122 206h-5q-42 0 -81 -36t-64 -102t-25 -157q0 -93 25 -159t63 -101t78 -35q10 0 20 1l121 205h10q14 -28 23 -72t9 -94q0 -14 -1 -27.5t-3 -26.5z" />
<glyph unicode="&#x10b;" horiz-adv-x="515" d="M393 657q0 -46 -36 -73.5t-89 -27.5q-46 0 -75.5 23.5t-29.5 62.5q0 46 37.5 74t87.5 28q47 0 76 -23.5t29 -63.5zM20 245q0 77 35 137t96 94t137 34q73 0 121 -23t72 -58.5t24 -73.5q0 -40 -27.5 -60t-67.5 -20q-25 0 -45.5 6.5t-34.5 13.5q0 87 -7.5 131t-35.5 44 q-25 0 -36 -41t-11 -108q0 -96 42 -138.5t111 -42.5q29 0 56.5 8t52.5 20l8 -8q-12 -44 -40 -83t-75.5 -63t-117.5 -24q-72 0 -130.5 31t-92.5 88t-34 136z" />
<glyph unicode="&#x10c;" horiz-adv-x="645" d="M464 720l-11 -8h-145q-25 44 -47 90t-37 80l9 7q35 -16 74.5 -31.5t78.5 -28.5q36 13 76.5 28.5t82.5 31.5l7 -10q-24 -41 -47.5 -84t-40.5 -75zM605 16q-46 -12 -91.5 -19t-104.5 -7q-114 0 -200.5 38.5t-135 113t-48.5 180.5q0 80 30 142.5t83 106t123.5 66.5t151.5 23 q52 0 100 -7t82 -19q2 -14 3 -30t1 -32q0 -43 -9 -84.5t-23 -73.5h-10l-122 206h-5q-42 0 -81 -36t-64 -102t-25 -157q0 -93 25 -159t63 -101t78 -35q10 0 20 1l121 205h10q14 -28 23 -72t9 -94q0 -14 -1 -27.5t-3 -26.5z" />
<glyph unicode="&#x10d;" horiz-adv-x="515" d="M356 570l-11 -8h-145q-25 44 -47 90t-37 80l9 7q35 -16 74.5 -31.5t78.5 -28.5q36 13 76.5 28.5t82.5 31.5l7 -10q-24 -41 -47.5 -84t-40.5 -75zM20 245q0 77 35 137t96 94t137 34q73 0 121 -23t72 -58.5t24 -73.5q0 -40 -27.5 -60t-67.5 -20q-25 0 -45.5 6.5t-34.5 13.5 q0 87 -7.5 131t-35.5 44q-25 0 -36 -41t-11 -108q0 -96 42 -138.5t111 -42.5q29 0 56.5 8t52.5 20l8 -8q-12 -44 -40 -83t-75.5 -63t-117.5 -24q-72 0 -130.5 31t-92.5 88t-34 136z" />
<glyph unicode="&#x10e;" horiz-adv-x="732" d="M452 720l-11 -8h-145q-25 44 -47 90t-37 80l9 7q35 -16 74.5 -31.5t78.5 -28.5q36 13 76.5 28.5t82.5 31.5l7 -10q-24 -41 -47.5 -84t-40.5 -75zM327 610h-25v-570h26q74 0 113.5 75.5t40.5 214.5t-39.5 209.5t-115.5 70.5zM349 0h-319l-2 16l29 10q18 6 22.5 16.5 t4.5 29.5v537l-55 25l2 16h320q100 0 179.5 -36.5t125.5 -107.5t46 -176t-47 -179t-126.5 -112.5t-179.5 -38.5z" />
<glyph unicode="&#x10f;" horiz-adv-x="825" d="M805 603q0 -45 -26 -88.5t-65 -76.5t-79 -48l-13 12q18 20 35.5 51.5t25.5 65.5q-32 5 -52 26t-20 54q0 46 29 71.5t69 25.5q44 0 70 -26t26 -67zM20 236q0 100 36 160t95 87t127 27q26 0 52 -3v114l-45 17l-1 14q32 11 76 21t90 16t82 6l8 -8v-539q0 -36 7.5 -50 t25.5 -14q12 0 22 3l6 -10q-24 -38 -58 -62.5t-91 -24.5q-48 0 -79.5 24t-39.5 59q-17 -30 -51.5 -56.5t-89.5 -26.5q-78 0 -125 64.5t-47 181.5zM240 272q0 -88 15.5 -132.5t51.5 -44.5q14 0 23 6v347q-8 2 -16 2q-40 0 -57 -49.5t-17 -128.5z" />
<glyph unicode="&#x110;" horiz-adv-x="732" d="M397 312h-95v-272h26q74 0 113.5 75.5t40.5 214.5t-39.5 209.5t-115.5 70.5h-25v-263h95v-35zM349 0h-319l-2 16l29 10q18 6 22.5 16.5t4.5 29.5v240h-56v35h56v262l-55 25l2 16h320q100 0 179.5 -36.5t125.5 -107.5t46 -176t-47 -179t-126.5 -112.5t-179.5 -38.5z" />
<glyph unicode="&#x111;" horiz-adv-x="590" d="M20 236q0 100 36 160t95 87t127 27q26 0 52 -3v43h-121v35h121v36l-45 17l-1 14q32 11 76 21t90 16t82 6l8 -8v-102h61v-35h-61v-402q0 -36 7.5 -50t25.5 -14q12 0 22 3l6 -10q-24 -38 -58 -62.5t-91 -24.5q-48 0 -79.5 24t-39.5 59q-17 -30 -51.5 -56.5t-89.5 -26.5 q-78 0 -125 64.5t-47 181.5zM240 272q0 -88 15.5 -132.5t51.5 -44.5q14 0 23 6v347q-8 2 -16 2q-40 0 -57 -49.5t-17 -128.5z" />
<glyph unicode="&#x112;" horiz-adv-x="595" d="M140 747v106h342v-106h-342zM558 0h-528l-2 16l29 10q18 6 22.5 16.5t4.5 29.5v537l-55 25l2 16h518q4 -19 5.5 -37.5t1.5 -37.5q0 -39 -6.5 -75.5t-18.5 -63.5h-10l-125 174h-94v-265l157 15l-3 -70l-154 15v-265h102l126 181h10q12 -28 18.5 -65.5t6.5 -77.5 q0 -19 -1.5 -38.5t-5.5 -39.5z" />
<glyph unicode="&#x113;" horiz-adv-x="535" d="M105 597v106h342v-106h-342zM510 160q-13 -47 -43.5 -85.5t-79.5 -61.5t-117 -23t-125 30.5t-91 87t-34 132.5q0 83 36 143.5t97 93.5t137 33q70 0 121.5 -27t80 -75t28.5 -110q0 -9 -1 -20t-3 -20l-8 -8h-260q15 -59 53 -84.5t91 -25.5q35 0 61.5 8.5t48.5 19.5z M240 324q0 -20 2 -39l67 6q1 13 1 24.5v23.5q0 62 -4.5 96.5t-26.5 34.5t-30.5 -39t-8.5 -107z" />
<glyph unicode="&#x114;" horiz-adv-x="595" d="M445 893l4 1l10 -4q-4 -91 -43 -138t-110 -47q-68 0 -104.5 47.5t-38.5 138.5l14 4q18 -28 49 -43.5t86 -15.5q50 0 81 15.5t52 41.5zM558 0h-528l-2 16l29 10q18 6 22.5 16.5t4.5 29.5v537l-55 25l2 16h518q4 -19 5.5 -37.5t1.5 -37.5q0 -39 -6.5 -75.5t-18.5 -63.5h-10 l-125 174h-94v-265l157 15l-3 -70l-154 15v-265h102l126 181h10q12 -28 18.5 -65.5t6.5 -77.5q0 -19 -1.5 -38.5t-5.5 -39.5z" />
<glyph unicode="&#x115;" horiz-adv-x="535" d="M407 744l4 1l10 -4q-4 -91 -43 -138t-110 -47q-68 0 -104.5 47.5t-38.5 138.5l14 4q18 -28 49 -43.5t86 -15.5q50 0 81 15.5t52 41.5zM510 160q-13 -47 -43.5 -85.5t-79.5 -61.5t-117 -23t-125 30.5t-91 87t-34 132.5q0 83 36 143.5t97 93.5t137 33q70 0 121.5 -27 t80 -75t28.5 -110q0 -9 -1 -20t-3 -20l-8 -8h-260q15 -59 53 -84.5t91 -25.5q35 0 61.5 8.5t48.5 19.5zM240 324q0 -20 2 -39l67 6q1 13 1 24.5v23.5q0 62 -4.5 96.5t-26.5 34.5t-30.5 -39t-8.5 -107z" />
<glyph unicode="&#x116;" horiz-adv-x="595" d="M426 807q0 -46 -36 -73.5t-89 -27.5q-46 0 -75.5 23.5t-29.5 62.5q0 46 37.5 74t87.5 28q47 0 76 -23.5t29 -63.5zM558 0h-528l-2 16l29 10q18 6 22.5 16.5t4.5 29.5v537l-55 25l2 16h518q4 -19 5.5 -37.5t1.5 -37.5q0 -39 -6.5 -75.5t-18.5 -63.5h-10l-125 174h-94v-265 l157 15l-3 -70l-154 15v-265h102l126 181h10q12 -28 18.5 -65.5t6.5 -77.5q0 -19 -1.5 -38.5t-5.5 -39.5z" />
<glyph unicode="&#x117;" horiz-adv-x="535" d="M390 657q0 -46 -36 -73.5t-89 -27.5q-46 0 -75.5 23.5t-29.5 62.5q0 46 37.5 74t87.5 28q47 0 76 -23.5t29 -63.5zM510 160q-13 -47 -43.5 -85.5t-79.5 -61.5t-117 -23t-125 30.5t-91 87t-34 132.5q0 83 36 143.5t97 93.5t137 33q70 0 121.5 -27t80 -75t28.5 -110 q0 -9 -1 -20t-3 -20l-8 -8h-260q15 -59 53 -84.5t91 -25.5q35 0 61.5 8.5t48.5 19.5zM240 324q0 -20 2 -39l67 6q1 13 1 24.5v23.5q0 62 -4.5 96.5t-26.5 34.5t-30.5 -39t-8.5 -107z" />
<glyph unicode="&#x118;" horiz-adv-x="595" d="M459 360l-3 -70l-154 15v-265h102l126 181h10q12 -28 18.5 -65.5t6.5 -77.5q0 -19 -1.5 -38.5t-5.5 -39.5q-27 -13 -46 -40.5t-19 -55.5q0 -21 11.5 -29.5t30.5 -8.5t36 7l5 -10q-19 -39 -56 -62t-80 -23q-40 0 -66 21.5t-26 57.5q0 25 16.5 53t53 52t95.5 38h-483l-2 16 l29 10q18 6 22.5 16.5t4.5 29.5v537l-55 25l2 16h518q4 -19 5.5 -37.5t1.5 -37.5q0 -39 -6.5 -75.5t-18.5 -63.5h-10l-125 174h-94v-265z" />
<glyph unicode="&#x119;" horiz-adv-x="535" d="M405 -137q-19 -39 -56 -62t-80 -23q-40 0 -65.5 20t-25.5 54q0 42 41 74.5t112 69.5q-29 -6 -61 -6q-68 0 -125 30.5t-91 87t-34 132.5q0 83 36 143.5t97 93.5t137 33q70 0 121.5 -27t80 -75t28.5 -110q0 -9 -1 -20t-3 -20l-8 -8h-260q15 -59 53 -84.5t91 -25.5 q35 0 61.5 8.5t48.5 19.5l8 -8q-10 -38 -32 -70.5t-55 -56.5q-54 -45 -77.5 -74.5t-23.5 -54.5q0 -21 11.5 -29.5t30.5 -8.5t36 7zM240 324q0 -20 2 -39l67 6q1 13 1 24.5v23.5q0 62 -4.5 96.5t-26.5 34.5t-30.5 -39t-8.5 -107z" />
<glyph unicode="&#x11a;" horiz-adv-x="595" d="M390 720l-11 -8h-145q-25 44 -47 90t-37 80l9 7q35 -16 74.5 -31.5t78.5 -28.5q36 13 76.5 28.5t82.5 31.5l7 -10q-24 -41 -47.5 -84t-40.5 -75zM558 0h-528l-2 16l29 10q18 6 22.5 16.5t4.5 29.5v537l-55 25l2 16h518q4 -19 5.5 -37.5t1.5 -37.5q0 -39 -6.5 -75.5 t-18.5 -63.5h-10l-125 174h-94v-265l157 15l-3 -70l-154 15v-265h102l126 181h10q12 -28 18.5 -65.5t6.5 -77.5q0 -19 -1.5 -38.5t-5.5 -39.5z" />
<glyph unicode="&#x11b;" horiz-adv-x="535" d="M353 570l-11 -8h-145q-25 44 -47 90t-37 80l9 7q35 -16 74.5 -31.5t78.5 -28.5q36 13 76.5 28.5t82.5 31.5l7 -10q-24 -41 -47.5 -84t-40.5 -75zM510 160q-13 -47 -43.5 -85.5t-79.5 -61.5t-117 -23t-125 30.5t-91 87t-34 132.5q0 83 36 143.5t97 93.5t137 33 q70 0 121.5 -27t80 -75t28.5 -110q0 -9 -1 -20t-3 -20l-8 -8h-260q15 -59 53 -84.5t91 -25.5q35 0 61.5 8.5t48.5 19.5zM240 324q0 -20 2 -39l67 6q1 13 1 24.5v23.5q0 62 -4.5 96.5t-26.5 34.5t-30.5 -39t-8.5 -107z" />
<glyph unicode="&#x11c;" horiz-adv-x="664" d="M532 719l-9 -7q-35 16 -74.5 31.5t-78.5 28.5q-36 -13 -76.5 -28.5t-82.5 -31.5l-7 10q24 41 48 84t40 75l11 8h145q26 -44 47.5 -89.5t36.5 -80.5zM616 16q-47 -13 -97.5 -19.5t-113.5 -6.5q-112 0 -196.5 37t-131.5 110t-47 180q0 83 31 147t85.5 107.5t124 66 t145.5 22.5q60 0 107 -7t82 -19q2 -14 3 -30t1 -32q0 -42 -8.5 -84.5t-23.5 -73.5h-10l-121 205q-7 1 -13 1q-28 0 -60 -19t-60 -56.5t-45.5 -93t-17.5 -128.5q0 -72 17.5 -127t44.5 -91.5t56.5 -55.5t53.5 -19h6v248l-53 25l2 16h291l2 -16l-27 -10q-18 -7 -22.5 -16.5 t-4.5 -29.5v-231z" />
<glyph unicode="&#x11d;" horiz-adv-x="551" d="M434 568l-9 -7q-35 16 -74.5 31.5t-78.5 28.5q-36 -13 -76.5 -28.5t-82.5 -31.5l-7 10q24 41 48 84t40 75l11 8h145q26 -44 47.5 -89.5t36.5 -80.5zM540 -5q0 -88 -72 -139t-215 -51q-47 0 -92 4.5t-81.5 15t-58 28.5t-21.5 45q0 30 35 46.5t84 16.5l1 4 q-22 11 -39.5 34.5t-17.5 58.5q0 42 34.5 76t82.5 42q-75 13 -117.5 53t-42.5 104q0 55 34.5 93t91.5 58.5t124 20.5q98 0 158 4.5t103 15.5q8 -10 13.5 -22.5t5.5 -31.5q0 -27 -13.5 -38.5t-41.5 -11.5q-18 0 -41 7t-48 15l-2 -3q36 -15 66 -45t30 -76q0 -48 -31 -81.5 t-86 -50.5t-127 -17q-22 0 -43 2q-1 -7 -1 -11q0 -14 12 -19.5t36 -6.5l107 -2q77 -1 125 -34.5t48 -103.5zM220 329q0 -61 7 -90t33 -29q25 0 32.5 29t7.5 93q0 56 -5.5 87t-32.5 31q-28 0 -35 -33t-7 -88zM170 -82q0 -73 107 -73q44 0 73.5 15t29.5 41q0 17 -13.5 25.5 t-44.5 8.5h-79q-44 0 -70 4q-3 -10 -3 -21z" />
<glyph unicode="&#x11e;" horiz-adv-x="664" d="M502 893l4 1l10 -4q-4 -91 -43 -138t-110 -47q-68 0 -104.5 47.5t-38.5 138.5l14 4q18 -28 49 -43.5t86 -15.5q50 0 81 15.5t52 41.5zM616 16q-47 -13 -97.5 -19.5t-113.5 -6.5q-112 0 -196.5 37t-131.5 110t-47 180q0 83 31 147t85.5 107.5t124 66t145.5 22.5 q60 0 107 -7t82 -19q2 -14 3 -30t1 -32q0 -42 -8.5 -84.5t-23.5 -73.5h-10l-121 205q-7 1 -13 1q-28 0 -60 -19t-60 -56.5t-45.5 -93t-17.5 -128.5q0 -72 17.5 -127t44.5 -91.5t56.5 -55.5t53.5 -19h6v248l-53 25l2 16h291l2 -16l-27 -10q-18 -7 -22.5 -16.5t-4.5 -29.5 v-231z" />
<glyph unicode="&#x11f;" horiz-adv-x="551" d="M400 744l4 1l10 -4q-4 -91 -43 -138t-110 -47q-68 0 -104.5 47.5t-38.5 138.5l14 4q18 -28 49 -43.5t86 -15.5q50 0 81 15.5t52 41.5zM540 -5q0 -88 -72 -139t-215 -51q-47 0 -92 4.5t-81.5 15t-58 28.5t-21.5 45q0 30 35 46.5t84 16.5l1 4q-22 11 -39.5 34.5t-17.5 58.5 q0 42 34.5 76t82.5 42q-75 13 -117.5 53t-42.5 104q0 55 34.5 93t91.5 58.5t124 20.5q98 0 158 4.5t103 15.5q8 -10 13.5 -22.5t5.5 -31.5q0 -27 -13.5 -38.5t-41.5 -11.5q-18 0 -41 7t-48 15l-2 -3q36 -15 66 -45t30 -76q0 -48 -31 -81.5t-86 -50.5t-127 -17q-22 0 -43 2 q-1 -7 -1 -11q0 -14 12 -19.5t36 -6.5l107 -2q77 -1 125 -34.5t48 -103.5zM220 329q0 -61 7 -90t33 -29q25 0 32.5 29t7.5 93q0 56 -5.5 87t-32.5 31q-28 0 -35 -33t-7 -88zM170 -82q0 -73 107 -73q44 0 73.5 15t29.5 41q0 17 -13.5 25.5t-44.5 8.5h-79q-44 0 -70 4 q-3 -10 -3 -21z" />
<glyph unicode="&#x120;" horiz-adv-x="664" d="M483 807q0 -46 -36 -73.5t-89 -27.5q-46 0 -75.5 23.5t-29.5 62.5q0 46 37.5 74t87.5 28q47 0 76 -23.5t29 -63.5zM616 16q-47 -13 -97.5 -19.5t-113.5 -6.5q-112 0 -196.5 37t-131.5 110t-47 180q0 83 31 147t85.5 107.5t124 66t145.5 22.5q60 0 107 -7t82 -19 q2 -14 3 -30t1 -32q0 -42 -8.5 -84.5t-23.5 -73.5h-10l-121 205q-7 1 -13 1q-28 0 -60 -19t-60 -56.5t-45.5 -93t-17.5 -128.5q0 -72 17.5 -127t44.5 -91.5t56.5 -55.5t53.5 -19h6v248l-53 25l2 16h291l2 -16l-27 -10q-18 -7 -22.5 -16.5t-4.5 -29.5v-231z" />
<glyph unicode="&#x121;" horiz-adv-x="551" d="M383 657q0 -46 -36 -73.5t-89 -27.5q-46 0 -75.5 23.5t-29.5 62.5q0 46 37.5 74t87.5 28q47 0 76 -23.5t29 -63.5zM540 -5q0 -88 -72 -139t-215 -51q-47 0 -92 4.5t-81.5 15t-58 28.5t-21.5 45q0 30 35 46.5t84 16.5l1 4q-22 11 -39.5 34.5t-17.5 58.5q0 42 34.5 76 t82.5 42q-75 13 -117.5 53t-42.5 104q0 55 34.5 93t91.5 58.5t124 20.5q98 0 158 4.5t103 15.5q8 -10 13.5 -22.5t5.5 -31.5q0 -27 -13.5 -38.5t-41.5 -11.5q-18 0 -41 7t-48 15l-2 -3q36 -15 66 -45t30 -76q0 -48 -31 -81.5t-86 -50.5t-127 -17q-22 0 -43 2q-1 -7 -1 -11 q0 -14 12 -19.5t36 -6.5l107 -2q77 -1 125 -34.5t48 -103.5zM220 329q0 -61 7 -90t33 -29q25 0 32.5 29t7.5 93q0 56 -5.5 87t-32.5 31q-28 0 -35 -33t-7 -88zM170 -82q0 -73 107 -73q44 0 73.5 15t29.5 41q0 17 -13.5 25.5t-44.5 8.5h-79q-44 0 -70 4q-3 -10 -3 -21z" />
<glyph unicode="&#x122;" horiz-adv-x="664" d="M616 16q-47 -13 -97.5 -19.5t-113.5 -6.5q-112 0 -196.5 37t-131.5 110t-47 180q0 83 31 147t85.5 107.5t124 66t145.5 22.5q60 0 107 -7t82 -19q2 -14 3 -30t1 -32q0 -42 -8.5 -84.5t-23.5 -73.5h-10l-121 205q-7 1 -13 1q-28 0 -60 -19t-60 -56.5t-45.5 -93 t-17.5 -128.5q0 -72 17.5 -127t44.5 -91.5t56.5 -55.5t53.5 -19h6v248l-53 25l2 16h291l2 -16l-27 -10q-18 -7 -22.5 -16.5t-4.5 -29.5v-231zM482 -149q0 -45 -26 -88.5t-65 -76.5t-79 -48l-13 12q18 20 35.5 51.5t25.5 65.5q-32 5 -52 26t-20 54q0 46 29 71.5t69 25.5 q44 0 70 -26t26 -67z" />
<glyph unicode="&#x123;" horiz-adv-x="551" d="M170 649q0 46 26 89t65.5 76.5t78.5 47.5l13 -12q-18 -20 -35.5 -51.5t-25.5 -65.5q32 -5 52 -26t20 -54q0 -46 -28.5 -71.5t-69.5 -25.5q-43 0 -69.5 26.5t-26.5 66.5zM540 -5q0 -88 -72 -139t-215 -51q-47 0 -92 4.5t-81.5 15t-58 28.5t-21.5 45q0 30 35 46.5t84 16.5 l1 4q-22 11 -39.5 34.5t-17.5 58.5q0 42 34.5 76t82.5 42q-75 13 -117.5 53t-42.5 104q0 55 34.5 93t91.5 58.5t124 20.5q98 0 158 4.5t103 15.5q8 -10 13.5 -22.5t5.5 -31.5q0 -27 -13.5 -38.5t-41.5 -11.5q-18 0 -41 7t-48 15l-2 -3q36 -15 66 -45t30 -76q0 -48 -31 -81.5 t-86 -50.5t-127 -17q-22 0 -43 2q-1 -7 -1 -11q0 -14 12 -19.5t36 -6.5l107 -2q77 -1 125 -34.5t48 -103.5zM220 329q0 -61 7 -90t33 -29q25 0 32.5 29t7.5 93q0 56 -5.5 87t-32.5 31q-28 0 -35 -33t-7 -88zM170 -82q0 -73 107 -73q44 0 73.5 15t29.5 41q0 17 -13.5 25.5 t-44.5 8.5h-79q-44 0 -70 4q-3 -10 -3 -21z" />
<glyph unicode="&#x124;" horiz-adv-x="784" d="M555 719l-9 -7q-35 16 -74.5 31.5t-78.5 28.5q-36 -13 -76.5 -28.5t-82.5 -31.5l-7 10q24 41 48 84t40 75l11 8h145q26 -44 47.5 -89.5t36.5 -80.5zM356 0h-324l-2 16l27 10q18 7 22.5 17t4.5 29v537l-56 25l2 16h324l2 -16l-27 -10q-18 -7 -22.5 -16.5t-4.5 -29.5v-224 h180v255l-56 25l2 16h324l2 -16l-27 -10q-18 -7 -22.5 -16.5t-4.5 -29.5v-537l56 -25l-2 -16h-324l-2 16l27 10q18 7 22.5 17t4.5 29v237h-180v-268l56 -25z" />
<glyph unicode="&#x125;" horiz-adv-x="610" d="M314 754l-9 -7q-35 16 -74.5 31.5t-78.5 28.5q-36 -13 -76.5 -28.5t-82.5 -31.5l-7 10q24 41 48 84t40 75l11 8h145q26 -44 47.5 -89.5t36.5 -80.5zM303 0h-296l-2 14l18 10q17 9 22 18t5 28v551l-45 17l-1 14q32 11 76 21t90 16t82 6l8 -8v-290q17 28 40.5 54t55 42.5 t73.5 16.5q65 0 98 -39.5t33 -106.5v-325l45 -25l-2 -14h-239l-14 14v299q0 62 -51 62q-10 0 -21 -3t-18 -7v-326l45 -25z" />
<glyph unicode="&#x126;" horiz-adv-x="784" d="M356 0h-324l-2 16l27 10q18 7 22.5 17t4.5 29v384h-68v45h68v108l-56 25l2 16h324l2 -16l-27 -10q-18 -7 -22.5 -16.5t-4.5 -29.5v-77h180v108l-56 25l2 16h324l2 -16l-27 -10q-18 -7 -22.5 -16.5t-4.5 -29.5v-77h66v-45h-66v-415l56 -25l-2 -16h-324l-2 16l27 10 q18 7 22.5 17t4.5 29v237h-180v-268l56 -25zM302 354h180v102h-180v-102z" />
<glyph unicode="&#x127;" horiz-adv-x="610" d="M303 0h-296l-2 14l18 10q17 9 22 18t5 28v480h-61v35h61v36l-45 17l-1 14q32 11 76 21t90 16t82 6l8 -8v-102h121v-35h-121v-153q17 28 40.5 54t55 42.5t73.5 16.5q65 0 98 -39.5t33 -106.5v-325l45 -25l-2 -14h-239l-14 14v299q0 62 -51 62q-10 0 -21 -3t-18 -7v-326 l45 -25z" />
<glyph unicode="&#x128;" horiz-adv-x="386" d="M309 831q12 14 24.5 27t24.5 26l10 -3q2 -13 3 -25t1 -24q0 -51 -23 -84t-75 -33q-55 0 -106 18.5t-89 34.5q-12 -13 -24.5 -26t-24.5 -27l-10 3q-6 27 -6 51q0 50 25 82.5t75 32.5q53 0 102.5 -19.5t92.5 -33.5zM356 0h-324l-2 16l27 10q18 7 22.5 17t4.5 29v537l-56 25 l2 16h324l2 -16l-27 -10q-18 -7 -22.5 -16.5t-4.5 -29.5v-537l56 -25z" />
<glyph unicode="&#x129;" horiz-adv-x="315" d="M259 681q12 14 24.5 27t24.5 26l10 -3q2 -13 3 -25t1 -24q0 -51 -23 -84t-75 -33q-43 0 -83.5 18.5t-71.5 34.5q-12 -13 -24.5 -26t-24.5 -27l-10 3q-6 27 -6 51q0 50 25 82.5t75 32.5q42 0 81.5 -19.5t73.5 -33.5zM308 0h-296l-2 14l18 10q17 9 22 18t5 28v366l-45 17 l-1 14q32 11 76 21t90 16t82 6l8 -8v-463l45 -25z" />
<glyph unicode="&#x12a;" horiz-adv-x="386" d="M22 747v106h342v-106h-342zM356 0h-324l-2 16l27 10q18 7 22.5 17t4.5 29v537l-56 25l2 16h324l2 -16l-27 -10q-18 -7 -22.5 -16.5t-4.5 -29.5v-537l56 -25z" />
<glyph unicode="&#x12b;" horiz-adv-x="315" d="M30 591v106h262v-106h-262zM308 0h-296l-2 14l18 10q17 9 22 18t5 28v366l-45 17l-1 14q32 11 76 21t90 16t82 6l8 -8v-463l45 -25z" />
<glyph unicode="&#x12c;" horiz-adv-x="386" d="M327 893l4 1l10 -4q-4 -91 -43 -138t-110 -47q-68 0 -104.5 47.5t-38.5 138.5l14 4q18 -28 49 -43.5t86 -15.5q50 0 81 15.5t52 41.5zM356 0h-324l-2 16l27 10q18 7 22.5 17t4.5 29v537l-56 25l2 16h324l2 -16l-27 -10q-18 -7 -22.5 -16.5t-4.5 -29.5v-537l56 -25z" />
<glyph unicode="&#x12d;" horiz-adv-x="315" d="M272 744l4 1l10 -4q-3 -91 -37 -138t-96 -47q-58 0 -89.5 47.5t-33.5 138.5l14 4q15 -28 42 -43.5t73 -15.5q43 0 69 15.5t44 41.5zM308 0h-296l-2 14l18 10q17 9 22 18t5 28v366l-45 17l-1 14q32 11 76 21t90 16t82 6l8 -8v-463l45 -25z" />
<glyph unicode="&#x12e;" horiz-adv-x="386" d="M374 -137q-19 -39 -56 -62t-80 -23q-40 0 -66 21.5t-26 57.5q0 25 16.5 53t53 52t95.5 38h-279l-2 16l27 10q18 7 22.5 17t4.5 29v537l-56 25l2 16h324l2 -16l-27 -10q-18 -7 -22.5 -16.5t-4.5 -29.5v-537l56 -25l-2 -16q-27 -13 -46 -40.5t-19 -55.5q0 -21 11.5 -29.5 t30.5 -8.5t36 7z" />
<glyph unicode="&#x12f;" horiz-adv-x="315" d="M274 657q0 -46 -36 -73.5t-89 -27.5q-46 0 -75.5 23.5t-29.5 62.5q0 46 37.5 74t87.5 28q47 0 76 -23.5t29 -63.5zM326 -137q-19 -39 -56 -62t-80 -23q-40 0 -66 21.5t-26 57.5q0 25 16.5 53t53 52t95.5 38h-251l-2 14l18 10q17 9 22 18t5 28v366l-45 17l-1 14 q32 11 76 21t90 16t82 6l8 -8v-463l45 -25l-2 -14q-27 -13 -46 -40.5t-19 -55.5q0 -21 11.5 -29.5t30.5 -8.5t36 7z" />
<glyph unicode="&#x130;" horiz-adv-x="386" d="M308 807q0 -46 -36 -73.5t-89 -27.5q-46 0 -75.5 23.5t-29.5 62.5q0 46 37.5 74t87.5 28q47 0 76 -23.5t29 -63.5zM356 0h-324l-2 16l27 10q18 7 22.5 17t4.5 29v537l-56 25l2 16h324l2 -16l-27 -10q-18 -7 -22.5 -16.5t-4.5 -29.5v-537l56 -25z" />
<glyph unicode="&#x131;" horiz-adv-x="315" d="M308 0h-296l-2 14l18 10q17 9 22 18t5 28v366l-45 17l-1 14q32 11 76 21t90 16t82 6l8 -8v-463l45 -25z" />
<glyph unicode="&#x132;" horiz-adv-x="761" d="M356 0h-324l-2 16l27 10q18 7 22.5 17t4.5 29v537l-56 25l2 16h324l2 -16l-27 -10q-18 -7 -22.5 -16.5t-4.5 -29.5v-537l56 -25zM689 150q0 -79 -34 -143t-98 -103t-155 -44l-6 11q41 56 58 142t17 197v399l-56 25l2 16h324l2 -16l-27 -10q-18 -7 -22.5 -16.5t-4.5 -29.5 v-428z" />
<glyph unicode="&#x133;" horiz-adv-x="620" d="M274 657q0 -46 -36 -73.5t-89 -27.5q-46 0 -75.5 23.5t-29.5 62.5q0 46 37.5 74t87.5 28q47 0 76 -23.5t29 -63.5zM584 657q0 -46 -36 -73.5t-89 -27.5q-46 0 -75.5 23.5t-29.5 62.5q0 46 37.5 74t87.5 28q47 0 76 -23.5t29 -63.5zM308 0h-296l-2 14l18 10q17 9 22 18 t5 28v366l-45 17l-1 14q32 11 76 21t90 16t82 6l8 -8v-463l45 -25zM312 -181q25 53 39 121.5t14 174.5v321l-45 17l-1 14q32 11 76 21t90 16t82 6l8 -8v-407q0 -79 -23 -140.5t-78.5 -100.5t-153.5 -49z" />
<glyph unicode="&#x134;" horiz-adv-x="375" d="M358 720l-9 -7q-35 16 -74.5 31.5t-78.5 28.5q-36 -13 -76.5 -28.5t-82.5 -31.5l-7 10q24 41 48 84t40 75l11 8h145q26 -44 47.5 -89.5t36.5 -80.5zM303 150q0 -79 -34 -143t-98 -103t-155 -44l-6 11q41 56 58 142t17 197v399l-56 25l2 16h324l2 -16l-27 -10 q-18 -7 -22.5 -16.5t-4.5 -29.5v-428z" />
<glyph unicode="&#x135;" horiz-adv-x="305" d="M281 568l-9 -7q-62 32 -129 58q-31 -13 -66 -28l-70 -30l-7 10q18 41 36 84t30 75l11 8h143q18 -44 34.5 -89.5t26.5 -80.5zM-3 -181q25 53 39 121.5t14 174.5v321l-45 17l-1 14q32 11 76 21t90 16t82 6l8 -8v-407q0 -79 -23 -140.5t-78.5 -100.5t-153.5 -49z" />
<glyph unicode="&#x136;" horiz-adv-x="773" d="M356 0h-324l-2 16l27 10q18 7 22.5 17t4.5 29v537l-56 25l2 16h324l2 -16l-27 -10q-18 -7 -22.5 -16.5t-4.5 -29.5v-253h46l176 286l-54 23l2 16h262l2 -16l-40 -19q-56 -26 -106.5 -65t-95.5 -87l201 -372q21 -40 57 -62l21 -13l-2 -16l-198 -3q-51 -1 -75 22t-47 65 l-106 201h-43v-244l56 -25zM488 -149q0 -45 -26 -88.5t-65 -76.5t-79 -48l-13 12q18 20 35.5 51.5t25.5 65.5q-32 5 -52 26t-20 54q0 46 29 71.5t69 25.5q44 0 70 -26t26 -67z" />
<glyph unicode="&#x137;" horiz-adv-x="626" d="M303 0h-296l-2 14l18 10q17 9 22 18t5 28v551l-45 17l-1 14q32 11 76 21t90 16t82 6l8 -8v-409h37l97 190l-46 18l2 14h259l2 -14l-46 -23q-29 -14 -58.5 -35.5t-58.5 -47.5l125 -290q12 -27 23.5 -43t29.5 -31l-2 -16h-185q-34 0 -49 17t-29 53l-66 170h-35v-201l45 -25 zM423 -149q0 -45 -26 -88.5t-65 -76.5t-79 -48l-13 12q18 20 35.5 51.5t25.5 65.5q-32 5 -52 26t-20 54q0 46 29 71.5t69 25.5q44 0 70 -26t26 -67z" />
<glyph unicode="&#x138;" horiz-adv-x="626" d="M303 0h-296l-2 14l18 10q17 9 22 18t5 28v366l-45 17l-1 14q32 11 76 21t90 16t82 6l8 -8v-224h37l97 190l-46 18l2 14h259l2 -14l-46 -23q-29 -14 -58.5 -35.5t-58.5 -47.5l125 -290q12 -27 23.5 -43t29.5 -31l-2 -16h-185q-34 0 -49 17t-29 53l-66 170h-35v-201l45 -25 z" />
<glyph unicode="&#x139;" horiz-adv-x="579" d="M332 832q0 -46 -64 -78.5t-184 -46.5l-9 11q32 46 62.5 97t48.5 86q8 1 17.5 1.5t22.5 0.5q45 0 75.5 -16.5t30.5 -54.5zM548 0h-518l-2 16l29 10q18 6 22.5 16.5t4.5 29.5v537l-56 25l2 16h324l2 -16l-27 -10q-18 -7 -22.5 -16.5t-4.5 -29.5v-538h100l118 244h10 q12 -31 18.5 -77t6.5 -96q0 -28 -1.5 -56.5t-5.5 -54.5z" />
<glyph unicode="&#x13a;" horiz-adv-x="310" d="M293 867q0 -46 -64 -78.5t-184 -46.5l-9 11q32 46 62.5 97t48.5 86q8 1 17.5 1.5t22.5 0.5q45 0 75.5 -16.5t30.5 -54.5zM303 0h-296l-2 14l18 10q17 9 22 18t5 28v551l-45 17l-1 14q32 11 76 21t90 16t82 6l8 -8v-648l45 -25z" />
<glyph unicode="&#x13b;" horiz-adv-x="579" d="M548 0h-518l-2 16l29 10q18 6 22.5 16.5t4.5 29.5v537l-56 25l2 16h324l2 -16l-27 -10q-18 -7 -22.5 -16.5t-4.5 -29.5v-538h100l118 244h10q12 -31 18.5 -77t6.5 -96q0 -28 -1.5 -56.5t-5.5 -54.5zM423 -149q0 -45 -26 -88.5t-65 -76.5t-79 -48l-13 12q18 20 35.5 51.5 t25.5 65.5q-32 5 -52 26t-20 54q0 46 29 71.5t69 25.5q44 0 70 -26t26 -67z" />
<glyph unicode="&#x13c;" horiz-adv-x="310" d="M303 0h-296l-2 14l18 10q17 9 22 18t5 28v551l-45 17l-1 14q32 11 76 21t90 16t82 6l8 -8v-648l45 -25zM252 -149q0 -45 -26 -88.5t-65 -76.5t-79 -48l-13 12q18 20 35.5 51.5t25.5 65.5q-32 5 -52 26t-20 54q0 46 29 71.5t69 25.5q44 0 70 -26t26 -67z" />
<glyph unicode="&#x13d;" horiz-adv-x="579" d="M593 568q0 -45 -26 -88.5t-65 -76.5t-79 -48l-13 12q18 20 35.5 51.5t25.5 65.5q-32 5 -52 26t-20 54q0 46 29 71.5t69 25.5q44 0 70 -26t26 -67zM548 0h-518l-2 16l29 10q18 6 22.5 16.5t4.5 29.5v537l-56 25l2 16h324l2 -16l-27 -10q-18 -7 -22.5 -16.5t-4.5 -29.5 v-538h100l118 244h10q12 -31 18.5 -77t6.5 -96q0 -28 -1.5 -56.5t-5.5 -54.5z" />
<glyph unicode="&#x13e;" horiz-adv-x="538" d="M523 753q0 -45 -26 -88.5t-65 -76.5t-79 -48l-13 12q18 20 35.5 51.5t25.5 65.5q-32 5 -52 26t-20 54q0 46 29 71.5t69 25.5q44 0 70 -26t26 -67zM303 0h-296l-2 14l18 10q17 9 22 18t5 28v551l-45 17l-1 14q32 11 76 21t90 16t82 6l8 -8v-648l45 -25z" />
<glyph unicode="&#x13f;" horiz-adv-x="579" d="M480 336q-38 0 -63 22.5t-25 59.5q0 40 28.5 66t68.5 26q35 0 59 -21.5t24 -56.5q0 -40 -26 -68t-66 -28zM548 0h-518l-2 16l29 10q18 6 22.5 16.5t4.5 29.5v537l-56 25l2 16h324l2 -16l-27 -10q-18 -7 -22.5 -16.5t-4.5 -29.5v-538h100l118 244h10q12 -31 18.5 -77 t6.5 -96q0 -28 -1.5 -56.5t-5.5 -54.5z" />
<glyph unicode="&#x140;" horiz-adv-x="519" d="M303 0h-296l-2 14l18 10q17 9 22 18t5 28v551l-45 17l-1 14q32 11 76 21t90 16t82 6l8 -8v-648l45 -25zM514 360q0 -46 -32.5 -73.5t-79.5 -27.5q-42 0 -68.5 23.5t-26.5 62.5q0 46 33.5 74t79.5 28q42 0 68 -23.5t26 -63.5z" />
<glyph unicode="&#x141;" horiz-adv-x="579" d="M548 0h-518l-2 16l29 10q18 6 22.5 16.5t4.5 29.5v184l-66 -40l-20 35l86 52v306l-56 25l2 16h324l2 -16l-27 -10q-18 -7 -22.5 -16.5t-4.5 -29.5v-144l67 40l21 -35l-88 -53v-346h100l118 244h10q12 -31 18.5 -77t6.5 -96q0 -28 -1.5 -56.5t-5.5 -54.5z" />
<glyph unicode="&#x142;" horiz-adv-x="310" d="M303 0h-296l-2 14l18 10q17 9 22 18t5 28v195l-71 -43l-20 35l91 55v309l-45 17l-1 14q32 11 76 21t90 16t82 6l8 -8v-249l70 42l21 -35l-91 -55v-351l45 -25z" />
<glyph unicode="&#x143;" horiz-adv-x="656" d="M482 832q0 -46 -64 -78.5t-184 -46.5l-9 11q32 46 62.5 97t48.5 86q8 1 17.5 1.5t22.5 0.5q45 0 75.5 -16.5t30.5 -54.5zM211 0h-199l-2 16l47 15q18 6 22.5 14.5t4.5 26.5v537l-74 25l2 16h220l307 -412v371l-84 25l2 16h199l2 -16l-47 -15q-18 -6 -22.5 -14.5 t-4.5 -26.5v-578h-148l-307 421v-380l84 -25z" />
<glyph unicode="&#x144;" d="M455 676q0 -46 -64 -78.5t-184 -46.5l-9 11q32 46 62.5 97t48.5 86q8 1 17.5 1.5t22.5 0.5q45 0 75.5 -16.5t30.5 -54.5zM308 0h-296l-2 14l18 10q17 9 22 18t5 28v366l-45 17l-1 14q32 11 76 21t90 16t82 6l8 -8v-105q17 28 40.5 54t55 42.5t73.5 16.5q65 0 98 -39.5 t33 -106.5v-325l45 -25l-2 -14h-239l-14 14v299q0 62 -51 62q-10 0 -21 -3t-18 -7v-326l45 -25z" />
<glyph unicode="&#x145;" horiz-adv-x="656" d="M211 0h-199l-2 16l47 15q18 6 22.5 14.5t4.5 26.5v537l-74 25l2 16h220l307 -412v371l-84 25l2 16h199l2 -16l-47 -15q-18 -6 -22.5 -14.5t-4.5 -26.5v-578h-148l-307 421v-380l84 -25zM417 -149q0 -45 -26 -88.5t-65 -76.5t-79 -48l-13 12q18 20 35.5 51.5t25.5 65.5 q-32 5 -52 26t-20 54q0 46 29 71.5t69 25.5q44 0 70 -26t26 -67z" />
<glyph unicode="&#x146;" d="M308 0h-296l-2 14l18 10q17 9 22 18t5 28v366l-45 17l-1 14q32 11 76 21t90 16t82 6l8 -8v-105q17 28 40.5 54t55 42.5t73.5 16.5q65 0 98 -39.5t33 -106.5v-325l45 -25l-2 -14h-239l-14 14v299q0 62 -51 62q-10 0 -21 -3t-18 -7v-326l45 -25zM403 -149q0 -45 -26 -88.5 t-65 -76.5t-79 -48l-13 12q18 20 35.5 51.5t25.5 65.5q-32 5 -52 26t-20 54q0 46 29 71.5t69 25.5q44 0 70 -26t26 -67z" />
<glyph unicode="&#x147;" horiz-adv-x="656" d="M423 720l-11 -8h-145q-25 44 -47 90t-37 80l9 7q35 -16 74.5 -31.5t78.5 -28.5q36 13 76.5 28.5t82.5 31.5l7 -10q-24 -41 -47.5 -84t-40.5 -75zM211 0h-199l-2 16l47 15q18 6 22.5 14.5t4.5 26.5v537l-74 25l2 16h220l307 -412v371l-84 25l2 16h199l2 -16l-47 -15 q-18 -6 -22.5 -14.5t-4.5 -26.5v-578h-148l-307 421v-380l84 -25z" />
<glyph unicode="&#x148;" d="M385 570l-11 -8h-145q-25 44 -47 90t-37 80l9 7q35 -16 74.5 -31.5t78.5 -28.5q36 13 76.5 28.5t82.5 31.5l7 -10q-24 -41 -47.5 -84t-40.5 -75zM308 0h-296l-2 14l18 10q17 9 22 18t5 28v366l-45 17l-1 14q32 11 76 21t90 16t82 6l8 -8v-105q17 28 40.5 54t55 42.5 t73.5 16.5q65 0 98 -39.5t33 -106.5v-325l45 -25l-2 -14h-239l-14 14v299q0 62 -51 62q-10 0 -21 -3t-18 -7v-326l45 -25z" />
<glyph unicode="&#x14a;" horiz-adv-x="656" d="M211 0h-199l-2 16l47 15q18 6 22.5 14.5t4.5 26.5v537l-74 25l2 16h220l307 -412v371l-84 25l2 16h199l2 -16l-47 -15q-18 -6 -22.5 -14.5t-4.5 -26.5v-503q0 -63 -14 -105t-44 -74t-78 -66l-11 13q35 38 59 71.5t35 85.5h-95l-307 421v-380l84 -25z" />
<glyph unicode="&#x14b;" horiz-adv-x="610" d="M308 0h-296l-2 14l18 10q17 9 22 18t5 28v366l-45 17l-1 14q32 11 76 21t90 16t82 6l8 -8v-105q17 28 40.5 54t55 42.5t73.5 16.5q65 0 98 -39.5t33 -106.5v-269q0 -79 -23 -140.5t-78.5 -100.5t-153.5 -49l-8 14q25 53 39 121.5t14 174.5v198q0 62 -51 62q-10 0 -21 -3 t-18 -7v-326l45 -25z" />
<glyph unicode="&#x14c;" horiz-adv-x="710" d="M176 747v106h342v-106h-342zM672 330q0 -108 -43 -184t-116.5 -116t-166.5 -40q-94 0 -167.5 39.5t-115 114.5t-41.5 181q0 108 45 182.5t119 113.5t162 39q93 0 166.5 -37.5t115.5 -111t42 -181.5zM257 325q-1 -157 20.5 -226t71.5 -69t68.5 72t19.5 228 q1 155 -18 222.5t-71 67.5t-71 -68.5t-20 -226.5z" />
<glyph unicode="&#x14d;" horiz-adv-x="570" d="M116 597v106h342v-106h-342zM550 263q0 -84 -35.5 -145.5t-96.5 -94.5t-139 -33q-74 0 -133 30t-92.5 85.5t-33.5 131.5q0 85 35 146t96.5 94t139.5 33q75 0 133.5 -30t92 -85t33.5 -132zM240 262q0 -86 3.5 -137t13 -73t28.5 -22t28.5 19t13 64.5t3.5 124.5 q0 89 -3.5 139.5t-13 71.5t-28.5 21q-18 0 -28 -19t-13.5 -64.5t-3.5 -124.5z" />
<glyph unicode="&#x14e;" horiz-adv-x="710" d="M481 893l4 1l10 -4q-4 -91 -43 -138t-110 -47q-68 0 -104.5 47.5t-38.5 138.5l14 4q18 -28 49 -43.5t86 -15.5q50 0 81 15.5t52 41.5zM672 330q0 -108 -43 -184t-116.5 -116t-166.5 -40q-94 0 -167.5 39.5t-115 114.5t-41.5 181q0 108 45 182.5t119 113.5t162 39 q93 0 166.5 -37.5t115.5 -111t42 -181.5zM257 325q-1 -157 20.5 -226t71.5 -69t68.5 72t19.5 228q1 155 -18 222.5t-71 67.5t-71 -68.5t-20 -226.5z" />
<glyph unicode="&#x14f;" horiz-adv-x="570" d="M418 744l4 1l10 -4q-4 -91 -43 -138t-110 -47q-68 0 -104.5 47.5t-38.5 138.5l14 4q18 -28 49 -43.5t86 -15.5q50 0 81 15.5t52 41.5zM550 263q0 -84 -35.5 -145.5t-96.5 -94.5t-139 -33q-74 0 -133 30t-92.5 85.5t-33.5 131.5q0 85 35 146t96.5 94t139.5 33 q75 0 133.5 -30t92 -85t33.5 -132zM240 262q0 -86 3.5 -137t13 -73t28.5 -22t28.5 19t13 64.5t3.5 124.5q0 89 -3.5 139.5t-13 71.5t-28.5 21q-18 0 -28 -19t-13.5 -64.5t-3.5 -124.5z" />
<glyph unicode="&#x150;" horiz-adv-x="710" d="M351 827q0 -46 -57.5 -78.5t-166.5 -46.5l-9 11q32 46 62.5 97t48.5 86q6 1 14 1.5t18 0.5q38 0 64 -16.5t26 -54.5zM576 827q0 -46 -57.5 -78.5t-166.5 -46.5l-9 11q32 46 62.5 97t48.5 86q6 1 14 1.5t18 0.5q38 0 64 -16.5t26 -54.5zM672 330q0 -108 -43 -184 t-116.5 -116t-166.5 -40q-94 0 -167.5 39.5t-115 114.5t-41.5 181q0 108 45 182.5t119 113.5t162 39q93 0 166.5 -37.5t115.5 -111t42 -181.5zM257 325q-1 -157 20.5 -226t71.5 -69t68.5 72t19.5 228q1 155 -18 222.5t-71 67.5t-71 -68.5t-20 -226.5z" />
<glyph unicode="&#x151;" horiz-adv-x="570" d="M289 676q0 -46 -57.5 -78.5t-166.5 -46.5l-9 11q32 46 62.5 97t48.5 86q6 1 14 1.5t18 0.5q38 0 64 -16.5t26 -54.5zM514 676q0 -46 -57.5 -78.5t-166.5 -46.5l-9 11q32 46 62.5 97t48.5 86q6 1 14 1.5t18 0.5q38 0 64 -16.5t26 -54.5zM550 263q0 -84 -35.5 -145.5 t-96.5 -94.5t-139 -33q-74 0 -133 30t-92.5 85.5t-33.5 131.5q0 85 35 146t96.5 94t139.5 33q75 0 133.5 -30t92 -85t33.5 -132zM240 262q0 -86 3.5 -137t13 -73t28.5 -22t28.5 19t13 64.5t3.5 124.5q0 89 -3.5 139.5t-13 71.5t-28.5 21q-18 0 -28 -19t-13.5 -64.5 t-3.5 -124.5z" />
<glyph unicode="&#x152;" horiz-adv-x="935" d="M257 325q-1 -159 27.5 -227t90.5 -68q29 0 49 15v562q-20 13 -50 13q-64 0 -90 -68t-27 -227zM799 360l-3 -70l-154 15v-265h102l126 181h10q12 -28 18.5 -65.5t6.5 -77.5q0 -19 -1.5 -38.5t-5.5 -39.5h-470q-32 -10 -65 -10q-100 0 -177 39.5t-120.5 114.5t-43.5 181 q0 81 27 143t75 105t110 65t131 22q37 0 71 -10h453q4 -19 5.5 -37.5t1.5 -37.5q0 -39 -6.5 -75.5t-18.5 -63.5h-10l-125 174h-94v-265z" />
<glyph unicode="&#x153;" horiz-adv-x="845" d="M820 160q-13 -47 -43 -85.5t-78 -61.5t-115 -23q-43 0 -81 15t-68 42q-32 -27 -73 -42t-87 -15q-73 0 -131 30t-91 85.5t-33 131.5q0 85 34.5 146t95 94t137.5 33q47 0 87 -15t72 -42q32 27 72.5 42t85.5 15q69 0 120 -27t78.5 -75t27.5 -110q0 -9 -1 -20t-3 -20l-8 -8 h-260q15 -59 53 -84.5t91 -25.5q35 0 61.5 8.5t48.5 19.5zM240 262q0 -86 3.5 -137t13 -73t28.5 -22t28.5 19t13 64.5t3.5 124.5q0 89 -3.5 139.5t-13 71.5t-28.5 21q-18 0 -28 -19t-13.5 -64.5t-3.5 -124.5zM550 324q0 -20 2 -39l67 6q1 13 1 24.5v23.5q0 62 -4.5 96.5 t-26.5 34.5t-30.5 -39t-8.5 -107z" />
<glyph unicode="&#x154;" horiz-adv-x="751" d="M500 832q0 -46 -64 -78.5t-184 -46.5l-9 11q32 46 62.5 97t48.5 86q8 1 17.5 1.5t22.5 0.5q45 0 75.5 -16.5t30.5 -54.5zM328 610h-26v-310h33q47 0 75.5 41.5t28.5 111.5q0 72 -31 114.5t-80 42.5zM356 0h-324l-2 16l27 10q18 7 22.5 17t4.5 29v537l-55 25l2 16h322 q92 0 160.5 -21.5t107 -63.5t38.5 -106q0 -52 -27.5 -87t-76.5 -62l120 -219q12 -22 26 -36.5t27 -23.5l23 -15l-2 -16l-191 -3q-53 -1 -80.5 20t-46.5 67l-73 176h-56v-219l56 -25z" />
<glyph unicode="&#x155;" horiz-adv-x="455" d="M390 676q0 -46 -64 -78.5t-184 -46.5l-9 11q32 46 62.5 97t48.5 86q8 1 17.5 1.5t22.5 0.5q45 0 75.5 -16.5t30.5 -54.5zM328 0h-316l-2 14l18 10q17 9 22 18t5 28v366l-45 17l-1 14q32 11 76 21t90 16t82 6l8 -8v-165q13 46 30.5 85.5t41.5 63.5t55 24q32 0 47.5 -24 t15.5 -68q0 -34 -9.5 -68t-20.5 -52l-10 -3q-29 6 -72 9q-20 2 -40.5 2.5t-37.5 0.5v-268l65 -25z" />
<glyph unicode="&#x156;" horiz-adv-x="751" d="M328 610h-26v-310h33q47 0 75.5 41.5t28.5 111.5q0 72 -31 114.5t-80 42.5zM476 -149q0 -45 -26 -88.5t-65 -76.5t-79 -48l-13 12q18 20 35.5 51.5t25.5 65.5q-32 5 -52 26t-20 54q0 46 29 71.5t69 25.5q44 0 70 -26t26 -67zM356 0h-324l-2 16l27 10q18 7 22.5 17t4.5 29 v537l-55 25l2 16h322q92 0 160.5 -21.5t107 -63.5t38.5 -106q0 -52 -27.5 -87t-76.5 -62l120 -219q12 -22 26 -36.5t27 -23.5l23 -15l-2 -16l-191 -3q-53 -1 -80.5 20t-46.5 67l-73 176h-56v-219l56 -25z" />
<glyph unicode="&#x157;" horiz-adv-x="455" d="M328 0h-316l-2 14l18 10q17 9 22 18t5 28v366l-45 17l-1 14q32 11 76 21t90 16t82 6l8 -8v-165q13 46 30.5 85.5t41.5 63.5t55 24q32 0 47.5 -24t15.5 -68q0 -34 -9.5 -68t-20.5 -52l-10 -3q-29 6 -72 9q-20 2 -40.5 2.5t-37.5 0.5v-268l65 -25zM258 -149 q0 -45 -26 -88.5t-65 -76.5t-79 -48l-13 12q18 20 35.5 51.5t25.5 65.5q-32 5 -52 26t-20 54q0 46 29 71.5t69 25.5q44 0 70 -26t26 -67z" />
<glyph unicode="&#x158;" horiz-adv-x="751" d="M441 720l-11 -8h-145q-25 44 -47 90t-37 80l9 7q35 -16 74.5 -31.5t78.5 -28.5q36 13 76.5 28.5t82.5 31.5l7 -10q-24 -41 -47.5 -84t-40.5 -75zM328 610h-26v-310h33q47 0 75.5 41.5t28.5 111.5q0 72 -31 114.5t-80 42.5zM356 0h-324l-2 16l27 10q18 7 22.5 17t4.5 29 v537l-55 25l2 16h322q92 0 160.5 -21.5t107 -63.5t38.5 -106q0 -52 -27.5 -87t-76.5 -62l120 -219q12 -22 26 -36.5t27 -23.5l23 -15l-2 -16l-191 -3q-53 -1 -80.5 20t-46.5 67l-73 176h-56v-219l56 -25z" />
<glyph unicode="&#x159;" horiz-adv-x="455" d="M320 570l-11 -8h-145q-25 44 -47 90t-37 80l9 7q35 -16 74.5 -31.5t78.5 -28.5q36 13 76.5 28.5t82.5 31.5l7 -10q-24 -41 -47.5 -84t-40.5 -75zM328 0h-316l-2 14l18 10q17 9 22 18t5 28v366l-45 17l-1 14q32 11 76 21t90 16t82 6l8 -8v-165q13 46 30.5 85.5t41.5 63.5 t55 24q32 0 47.5 -24t15.5 -68q0 -34 -9.5 -68t-20.5 -52l-10 -3q-29 6 -72 9q-20 2 -40.5 2.5t-37.5 0.5v-268l65 -25z" />
<glyph unicode="&#x15a;" horiz-adv-x="578" d="M433 832q0 -46 -64 -78.5t-184 -46.5l-9 11q32 46 62.5 97t48.5 86q8 1 17.5 1.5t22.5 0.5q45 0 75.5 -16.5t30.5 -54.5zM554 186q0 -71 -40 -114t-109.5 -62.5t-157.5 -19.5q-74 0 -123 6.5t-73 18.5q-12 6 -19.5 17.5t-7.5 30.5q0 32 9.5 64t23.5 59t27 42l10 -2 l103 -194q6 -1 13 -1.5t13 -0.5q46 0 74 24.5t28 64.5q0 34 -21.5 58.5t-56 45t-73 41.5t-73 48t-56 63.5t-21.5 88.5q0 64 40.5 107.5t107 66t145.5 22.5q90 0 135.5 -12.5t63.5 -23.5q11 -7 16.5 -15.5t5.5 -23.5q0 -25 -12 -57t-28 -60t-30 -41l-10 2l-89 189 q-15 2 -26 2q-42 0 -72 -21.5t-30 -61.5q0 -35 22.5 -62t58.5 -50t75.5 -45.5t75.5 -49.5t58.5 -62t22.5 -82z" />
<glyph unicode="&#x15b;" horiz-adv-x="490" d="M399 676q0 -46 -64 -78.5t-184 -46.5l-9 11q32 46 62.5 97t48.5 86q8 1 17.5 1.5t22.5 0.5q45 0 75.5 -16.5t30.5 -54.5zM213 -10q-63 0 -104.5 7.5t-61.5 17.5q-10 6 -18.5 18.5t-8.5 34.5q0 42 22.5 76t47.5 44l12 -6q10 -31 21.5 -58.5t24.5 -48.5q14 -21 30.5 -33 t36.5 -12q22 0 34 13t12 34q0 25 -16.5 44t-42 35.5t-55 34t-55 39t-42 51.5t-16.5 71q0 51 32.5 86.5t88.5 53.5t124 18q77 0 114.5 -13.5t53.5 -27.5q9 -7 15.5 -16t6.5 -23q0 -25 -12.5 -48t-30.5 -40t-37 -25l-12 6q-22 80 -45 114q-23 33 -56 33q-20 0 -32.5 -12.5 t-12.5 -30.5q0 -25 17.5 -45.5t44.5 -38.5t57.5 -36.5t57.5 -40t44.5 -49.5t17.5 -65q0 -57 -33.5 -93t-91.5 -52.5t-132 -16.5z" />
<glyph unicode="&#x15c;" horiz-adv-x="578" d="M459 719l-9 -7q-35 16 -74.5 31.5t-78.5 28.5q-36 -13 -76.5 -28.5t-82.5 -31.5l-7 10q24 41 48 84t40 75l11 8h145q26 -44 47.5 -89.5t36.5 -80.5zM554 186q0 -71 -40 -114t-109.5 -62.5t-157.5 -19.5q-74 0 -123 6.5t-73 18.5q-12 6 -19.5 17.5t-7.5 30.5q0 32 9.5 64 t23.5 59t27 42l10 -2l103 -194q6 -1 13 -1.5t13 -0.5q46 0 74 24.5t28 64.5q0 34 -21.5 58.5t-56 45t-73 41.5t-73 48t-56 63.5t-21.5 88.5q0 64 40.5 107.5t107 66t145.5 22.5q90 0 135.5 -12.5t63.5 -23.5q11 -7 16.5 -15.5t5.5 -23.5q0 -25 -12 -57t-28 -60t-30 -41 l-10 2l-89 189q-15 2 -26 2q-42 0 -72 -21.5t-30 -61.5q0 -35 22.5 -62t58.5 -50t75.5 -45.5t75.5 -49.5t58.5 -62t22.5 -82z" />
<glyph unicode="&#x15d;" horiz-adv-x="490" d="M418 568l-9 -7q-35 16 -74.5 31.5t-78.5 28.5q-36 -13 -76.5 -28.5t-82.5 -31.5l-7 10q24 41 48 84t40 75l11 8h145q26 -44 47.5 -89.5t36.5 -80.5zM213 -10q-63 0 -104.5 7.5t-61.5 17.5q-10 6 -18.5 18.5t-8.5 34.5q0 42 22.5 76t47.5 44l12 -6q10 -31 21.5 -58.5 t24.5 -48.5q14 -21 30.5 -33t36.5 -12q22 0 34 13t12 34q0 25 -16.5 44t-42 35.5t-55 34t-55 39t-42 51.5t-16.5 71q0 51 32.5 86.5t88.5 53.5t124 18q77 0 114.5 -13.5t53.5 -27.5q9 -7 15.5 -16t6.5 -23q0 -25 -12.5 -48t-30.5 -40t-37 -25l-12 6q-22 80 -45 114 q-23 33 -56 33q-20 0 -32.5 -12.5t-12.5 -30.5q0 -25 17.5 -45.5t44.5 -38.5t57.5 -36.5t57.5 -40t44.5 -49.5t17.5 -65q0 -57 -33.5 -93t-91.5 -52.5t-132 -16.5z" />
<glyph unicode="&#x15e;" horiz-adv-x="578" d="M229 -106l-3 6l15 90q-72 0 -119 6.5t-71 18.5q-12 6 -19.5 17.5t-7.5 30.5q0 32 9.5 64t23.5 59t27 42l10 -2l103 -194q6 -1 13 -1.5t13 -0.5q46 0 74 24.5t28 64.5q0 34 -21.5 58.5t-56 45t-73 41.5t-73 48t-56 63.5t-21.5 88.5q0 64 40.5 107.5t107 66t145.5 22.5 q90 0 135.5 -12.5t63.5 -23.5q11 -7 16.5 -15.5t5.5 -23.5q0 -25 -12 -57t-28 -60t-30 -41l-10 2l-89 189q-15 2 -26 2q-42 0 -72 -21.5t-30 -61.5q0 -35 22.5 -62t58.5 -50t75.5 -45.5t75.5 -49.5t58.5 -62t22.5 -82q0 -65 -34 -107t-94 -63t-138 -25l-4 -24q67 -4 105 -27 t38 -60q0 -47 -56 -74.5t-169 -27.5l-5 15q17 7 34.5 17t30 23t12.5 27q0 29 -45 34z" />
<glyph unicode="&#x15f;" horiz-adv-x="490" d="M185 -106l-3 6l15 90q-56 1 -93.5 8t-56.5 17q-10 6 -18.5 18.5t-8.5 34.5q0 42 22.5 76t47.5 44l12 -6q10 -31 21.5 -58.5t24.5 -48.5q14 -21 30.5 -33t36.5 -12q22 0 34 13t12 34q0 25 -16.5 44t-42 35.5t-55 34t-55 39t-42 51.5t-16.5 71q0 51 32.5 86.5t88.5 53.5 t124 18q77 0 114.5 -13.5t53.5 -27.5q9 -7 15.5 -16t6.5 -23q0 -25 -12.5 -48t-30.5 -40t-37 -25l-12 6q-22 80 -45 114q-23 33 -56 33q-20 0 -32.5 -12.5t-12.5 -30.5q0 -25 17.5 -45.5t44.5 -38.5t57.5 -36.5t57.5 -40t44.5 -49.5t17.5 -65q0 -53 -29 -87.5t-80 -52.5 t-117 -21l-4 -24q67 -4 105 -27t38 -60q0 -47 -56 -74.5t-169 -27.5l-5 15q17 7 34.5 17t30 23t12.5 27q0 29 -45 34z" />
<glyph unicode="&#x160;" horiz-adv-x="578" d="M374 720l-11 -8h-145q-25 44 -47 90t-37 80l9 7q35 -16 74.5 -31.5t78.5 -28.5q36 13 76.5 28.5t82.5 31.5l7 -10q-24 -41 -47.5 -84t-40.5 -75zM554 186q0 -71 -40 -114t-109.5 -62.5t-157.5 -19.5q-74 0 -123 6.5t-73 18.5q-12 6 -19.5 17.5t-7.5 30.5q0 32 9.5 64 t23.5 59t27 42l10 -2l103 -194q6 -1 13 -1.5t13 -0.5q46 0 74 24.5t28 64.5q0 34 -21.5 58.5t-56 45t-73 41.5t-73 48t-56 63.5t-21.5 88.5q0 64 40.5 107.5t107 66t145.5 22.5q90 0 135.5 -12.5t63.5 -23.5q11 -7 16.5 -15.5t5.5 -23.5q0 -25 -12 -57t-28 -60t-30 -41 l-10 2l-89 189q-15 2 -26 2q-42 0 -72 -21.5t-30 -61.5q0 -35 22.5 -62t58.5 -50t75.5 -45.5t75.5 -49.5t58.5 -62t22.5 -82z" />
<glyph unicode="&#x161;" horiz-adv-x="490" d="M329 570l-11 -8h-145q-25 44 -47 90t-37 80l9 7q35 -16 74.5 -31.5t78.5 -28.5q36 13 76.5 28.5t82.5 31.5l7 -10q-24 -41 -47.5 -84t-40.5 -75zM213 -10q-63 0 -104.5 7.5t-61.5 17.5q-10 6 -18.5 18.5t-8.5 34.5q0 42 22.5 76t47.5 44l12 -6q10 -31 21.5 -58.5 t24.5 -48.5q14 -21 30.5 -33t36.5 -12q22 0 34 13t12 34q0 25 -16.5 44t-42 35.5t-55 34t-55 39t-42 51.5t-16.5 71q0 51 32.5 86.5t88.5 53.5t124 18q77 0 114.5 -13.5t53.5 -27.5q9 -7 15.5 -16t6.5 -23q0 -25 -12.5 -48t-30.5 -40t-37 -25l-12 6q-22 80 -45 114 q-23 33 -56 33q-20 0 -32.5 -12.5t-12.5 -30.5q0 -25 17.5 -45.5t44.5 -38.5t57.5 -36.5t57.5 -40t44.5 -49.5t17.5 -65q0 -57 -33.5 -93t-91.5 -52.5t-132 -16.5z" />
<glyph unicode="&#x162;" horiz-adv-x="634" d="M276 -106l-3 6l17 100h-134l-2 16l27 10q18 7 22.5 17t4.5 29v538h-46l-115 -214h-10q-12 32 -18.5 75t-6.5 89q0 23 1.5 45.5t5.5 44.5h596q4 -22 5.5 -44.5t1.5 -45.5q0 -46 -6.5 -89t-18.5 -75h-10l-115 214h-46v-569l56 -25l-2 -16h-143l-6 -33q67 -4 105 -27t38 -60 q0 -47 -56 -74.5t-169 -27.5l-5 15q17 7 34.5 17t30 23t12.5 27q0 29 -45 34z" />
<glyph unicode="&#x163;" horiz-adv-x="394" d="M158 -106l-3 6l16 92q-61 7 -94 51.5t-33 126.5v265h-58l-2 14l52 34l210 137l8 -2v-148h110v-35h-110v-218q0 -39 17.5 -58t46.5 -19q20 0 37.5 8.5t30.5 19.5l8 -8q-11 -38 -32.5 -75t-57 -63t-87.5 -31l-4 -24q67 -4 105 -27t38 -60q0 -47 -56 -74.5t-169 -27.5l-5 15 q17 7 34.5 17t30 23t12.5 27q0 29 -45 34z" />
<glyph unicode="&#x164;" horiz-adv-x="634" d="M396 720l-11 -8h-145q-25 44 -47 90t-37 80l9 7q35 -16 74.5 -31.5t78.5 -28.5q36 13 76.5 28.5t82.5 31.5l7 -10q-24 -41 -47.5 -84t-40.5 -75zM47 396h-10q-12 32 -18.5 75t-6.5 89q0 23 1.5 45.5t5.5 44.5h596q4 -22 5.5 -44.5t1.5 -45.5q0 -46 -6.5 -89t-18.5 -75 h-10l-115 214h-46v-569l56 -25l-2 -16h-324l-2 16l27 10q18 7 22.5 17t4.5 29v538h-46z" />
<glyph unicode="&#x165;" horiz-adv-x="394" d="M483 733q0 -45 -26 -88.5t-65 -76.5t-79 -48l-13 12q18 20 35.5 51.5t25.5 65.5q-32 5 -52 26t-20 54q0 46 29 71.5t69 25.5q44 0 70 -26t26 -67zM364 470v-35h-110v-218q0 -39 17.5 -58t46.5 -19q20 0 37.5 8.5t30.5 19.5l8 -8q-11 -40 -35 -79.5t-63.5 -65t-98.5 -25.5 q-73 0 -113 44.5t-40 135.5v265h-58l-2 14l52 34l210 137l8 -2v-148h110z" />
<glyph unicode="&#x166;" horiz-adv-x="634" d="M47 396h-10q-12 32 -18.5 75t-6.5 89q0 23 1.5 45.5t5.5 44.5h596q4 -22 5.5 -44.5t1.5 -45.5q0 -46 -6.5 -89t-18.5 -75h-10l-115 214h-46v-282h116v-45h-116v-242l56 -25l-2 -16h-324l-2 16l27 10q18 7 22.5 17t4.5 29v211h-116v45h116v282h-46z" />
<glyph unicode="&#x167;" horiz-adv-x="394" d="M364 305h-110v-88q0 -39 17.5 -58t46.5 -19q20 0 37.5 8.5t30.5 19.5l8 -8q-11 -40 -35 -79.5t-63.5 -65t-98.5 -25.5q-73 0 -113 44.5t-40 135.5v135h-60v35h60v95h-58l-2 14l52 34l210 137l8 -2v-148h110v-35h-110v-95h110v-35z" />
<glyph unicode="&#x168;" horiz-adv-x="681" d="M520 830q12 14 24.5 27t24.5 26l10 -3q2 -13 3 -25t1 -24q0 -51 -23 -84t-75 -33q-55 0 -106 18.5t-89 34.5q-12 -13 -24.5 -26t-24.5 -27l-10 3q-6 27 -6 51q0 50 25 82.5t75 32.5q53 0 102.5 -19.5t92.5 -33.5zM607 226q0 -116 -62.5 -176t-191.5 -60q-77 0 -138 27 t-96 80t-35 132v380l-56 25l2 16h324l2 -16l-27 -10q-18 -7 -22.5 -16.5t-4.5 -29.5v-340q0 -91 31 -138t98 -47q59 0 95 44t36 129v384l-74 24l2 16h189l2 -16l-74 -24v-384z" />
<glyph unicode="&#x169;" d="M414 681q12 14 24.5 27t24.5 26l10 -3q2 -13 3 -25t1 -24q0 -51 -23 -84t-75 -33q-55 0 -106 18.5t-89 34.5q-12 -13 -24.5 -26t-24.5 -27l-10 3q-6 27 -6 51q0 50 25 82.5t75 32.5q53 0 102.5 -19.5t92.5 -33.5zM626 73q-19 -29 -55.5 -56t-95.5 -27q-57 0 -91 32 t-34 75v6q-20 -44 -57.5 -78.5t-100.5 -34.5q-67 0 -104.5 41t-37.5 109v296l-45 17l-1 14q32 11 76 21t90 16t82 6l8 -8v-315q0 -31 11.5 -46.5t40.5 -15.5q21 0 38 10v301l-45 17l-1 14q32 11 76 21t90 16t82 6l8 -8v-354q0 -36 8.5 -50t27.5 -14q13 0 22 3z" />
<glyph unicode="&#x16a;" horiz-adv-x="681" d="M233 746v106h342v-106h-342zM607 226q0 -116 -62.5 -176t-191.5 -60q-77 0 -138 27t-96 80t-35 132v380l-56 25l2 16h324l2 -16l-27 -10q-18 -7 -22.5 -16.5t-4.5 -29.5v-340q0 -91 31 -138t98 -47q59 0 95 44t36 129v384l-74 24l2 16h189l2 -16l-74 -24v-384z" />
<glyph unicode="&#x16b;" d="M128 597v106h342v-106h-342zM626 73q-19 -29 -55.5 -56t-95.5 -27q-57 0 -91 32t-34 75v6q-20 -44 -57.5 -78.5t-100.5 -34.5q-67 0 -104.5 41t-37.5 109v296l-45 17l-1 14q32 11 76 21t90 16t82 6l8 -8v-315q0 -31 11.5 -46.5t40.5 -15.5q21 0 38 10v301l-45 17l-1 14 q32 11 76 21t90 16t82 6l8 -8v-354q0 -36 8.5 -50t27.5 -14q13 0 22 3z" />
<glyph unicode="&#x16c;" horiz-adv-x="681" d="M538 892l4 1l10 -4q-4 -91 -43 -138t-110 -47q-68 0 -104.5 47.5t-38.5 138.5l14 4q18 -28 49 -43.5t86 -15.5q50 0 81 15.5t52 41.5zM607 226q0 -116 -62.5 -176t-191.5 -60q-77 0 -138 27t-96 80t-35 132v380l-56 25l2 16h324l2 -16l-27 -10q-18 -7 -22.5 -16.5 t-4.5 -29.5v-340q0 -91 31 -138t98 -47q59 0 95 44t36 129v384l-74 24l2 16h189l2 -16l-74 -24v-384z" />
<glyph unicode="&#x16d;" d="M430 744l4 1l10 -4q-4 -91 -43 -138t-110 -47q-68 0 -104.5 47.5t-38.5 138.5l14 4q18 -28 49 -43.5t86 -15.5q50 0 81 15.5t52 41.5zM626 73q-19 -29 -55.5 -56t-95.5 -27q-57 0 -91 32t-34 75v6q-20 -44 -57.5 -78.5t-100.5 -34.5q-67 0 -104.5 41t-37.5 109v296 l-45 17l-1 14q32 11 76 21t90 16t82 6l8 -8v-315q0 -31 11.5 -46.5t40.5 -15.5q21 0 38 10v301l-45 17l-1 14q32 11 76 21t90 16t82 6l8 -8v-354q0 -36 8.5 -50t27.5 -14q13 0 22 3z" />
<glyph unicode="&#x16e;" horiz-adv-x="681" d="M400 703q-46 0 -76 24t-30 67q0 46 32.5 73t81.5 27q45 0 75 -24.5t30 -65.5q0 -45 -32 -73t-81 -28zM404 847q-17 0 -27.5 -14t-10.5 -37q0 -21 10.5 -33t26.5 -12q17 0 27.5 14t10.5 37q0 20 -10 32.5t-27 12.5zM607 226q0 -116 -62.5 -176t-191.5 -60q-77 0 -138 27 t-96 80t-35 132v380l-56 25l2 16h324l2 -16l-27 -10q-18 -7 -22.5 -16.5t-4.5 -29.5v-340q0 -91 31 -138t98 -47q59 0 95 44t36 129v384l-74 24l2 16h189l2 -16l-74 -24v-384z" />
<glyph unicode="&#x16f;" d="M294 554q-46 0 -76 24t-30 67q0 46 32.5 73t81.5 27q45 0 75 -24.5t30 -65.5q0 -45 -32 -73t-81 -28zM298 698q-17 0 -27.5 -14t-10.5 -37q0 -21 10.5 -33t26.5 -12q17 0 27.5 14t10.5 37q0 20 -10 32.5t-27 12.5zM626 73q-19 -29 -55.5 -56t-95.5 -27q-57 0 -91 32 t-34 75v6q-20 -44 -57.5 -78.5t-100.5 -34.5q-67 0 -104.5 41t-37.5 109v296l-45 17l-1 14q32 11 76 21t90 16t82 6l8 -8v-315q0 -31 11.5 -46.5t40.5 -15.5q21 0 38 10v301l-45 17l-1 14q32 11 76 21t90 16t82 6l8 -8v-354q0 -36 8.5 -50t27.5 -14q13 0 22 3z" />
<glyph unicode="&#x170;" horiz-adv-x="681" d="M408 826q0 -46 -57.5 -78.5t-166.5 -46.5l-9 11q32 46 62.5 97t48.5 86q6 1 14 1.5t18 0.5q38 0 64 -16.5t26 -54.5zM633 826q0 -46 -57.5 -78.5t-166.5 -46.5l-9 11q32 46 62.5 97t48.5 86q6 1 14 1.5t18 0.5q38 0 64 -16.5t26 -54.5zM607 226q0 -116 -62.5 -176 t-191.5 -60q-77 0 -138 27t-96 80t-35 132v380l-56 25l2 16h324l2 -16l-27 -10q-18 -7 -22.5 -16.5t-4.5 -29.5v-340q0 -91 31 -138t98 -47q59 0 95 44t36 129v384l-74 24l2 16h189l2 -16l-74 -24v-384z" />
<glyph unicode="&#x171;" d="M301 676q0 -46 -57.5 -78.5t-166.5 -46.5l-9 11q32 46 62.5 97t48.5 86q6 1 14 1.5t18 0.5q38 0 64 -16.5t26 -54.5zM526 676q0 -46 -57.5 -78.5t-166.5 -46.5l-9 11q32 46 62.5 97t48.5 86q6 1 14 1.5t18 0.5q38 0 64 -16.5t26 -54.5zM626 73q-19 -29 -55.5 -56 t-95.5 -27q-57 0 -91 32t-34 75v6q-20 -44 -57.5 -78.5t-100.5 -34.5q-67 0 -104.5 41t-37.5 109v296l-45 17l-1 14q32 11 76 21t90 16t82 6l8 -8v-315q0 -31 11.5 -46.5t40.5 -15.5q21 0 38 10v301l-45 17l-1 14q32 11 76 21t90 16t82 6l8 -8v-354q0 -36 8.5 -50t27.5 -14 q13 0 22 3z" />
<glyph unicode="&#x172;" horiz-adv-x="681" d="M511 -137q-19 -39 -56 -62t-80 -23q-40 0 -66 21.5t-26 57.5q0 41 37 75t121 67q-39 -9 -88 -9q-77 0 -138 27t-96 80t-35 132v380l-56 25l2 16h324l2 -16l-27 -10q-18 -7 -22.5 -16.5t-4.5 -29.5v-340q0 -91 31 -138t98 -47q59 0 95 44t36 129v384l-74 24l2 16h189 l2 -16l-74 -24v-384q0 -120 -66 -179q-24 -26 -50.5 -50.5t-44.5 -47.5t-18 -45q0 -21 11.5 -29.5t30.5 -8.5t36 7z" />
<glyph unicode="&#x173;" d="M599 -137q-19 -38 -50.5 -61.5t-74.5 -23.5q-35 0 -64 18.5t-29 55.5q0 42 37 73.5t110 72.5q-25 -8 -53 -8q-57 0 -91 32t-34 75v6q-20 -44 -57.5 -78.5t-100.5 -34.5q-67 0 -104.5 41t-37.5 109v296l-45 17l-1 14q32 11 76 21t90 16t82 6l8 -8v-315q0 -31 11.5 -46.5 t40.5 -15.5q21 0 38 10v301l-45 17l-1 14q32 11 76 21t90 16t82 6l8 -8v-354q0 -36 8.5 -50t27.5 -14q13 0 22 3l8 -14q-19 -31 -42.5 -60.5t-40.5 -56.5t-17 -53q0 -18 10 -27.5t25 -9.5q9 0 17.5 2t15.5 5z" />
<glyph unicode="&#x174;" horiz-adv-x="1047" d="M717 719l-9 -7q-35 16 -74.5 31.5t-78.5 28.5q-36 -13 -76.5 -28.5t-82.5 -31.5l-7 10q24 41 48 84t40 75l11 8h145q26 -44 47.5 -89.5t36.5 -80.5zM392 0h-115l-203 572q-7 19 -17.5 30.5t-27.5 18.5l-29 13l2 16h353l2 -16l-63 -25l125 -406l80 288l-26 81 q-6 19 -17 30.5t-28 18.5l-29 13l2 16h353l2 -16l-65 -25l108 -409l112 407l-71 27l2 16h203l2 -16q-29 -12 -47 -30q-18 -17 -32.5 -46t-31.5 -78l-165 -480h-115l-131 408z" />
<glyph unicode="&#x175;" horiz-adv-x="824" d="M607 568l-9 -7q-35 16 -74.5 31.5t-78.5 28.5q-36 -13 -76.5 -28.5t-82.5 -31.5l-7 10q24 41 48 84t40 75l11 8h145q26 -44 47.5 -89.5t36.5 -80.5zM434 500h120l83 -366l92 329l-47 23l2 14h138l2 -14q-20 -15 -33 -30q-7 -10 -13 -23t-12 -31l-136 -402h-154l-66 194 l-66 -194h-154l-137 402q-10 32 -21 50t-28 31l-4 3l2 14h312l2 -14l-47 -27l82 -325z" />
<glyph unicode="&#x176;" horiz-adv-x="688" d="M530 719l-9 -7q-35 16 -74.5 31.5t-78.5 28.5q-36 -13 -76.5 -28.5t-82.5 -31.5l-7 10q24 41 48 84t40 75l11 8h145q26 -44 47.5 -89.5t36.5 -80.5zM507 0h-324l-2 16l27 10q18 7 22.5 17t4.5 29v192l-161 308q-10 19 -19 30.5t-26 18.5l-29 13l2 16h353l2 -16l-61 -24 l129 -314l128 312l-59 26l2 16h190l2 -16q-12 -7 -24 -18q-21 -18 -41.5 -46t-43.5 -70l-126 -236v-223l56 -25z" />
<glyph unicode="&#x177;" horiz-adv-x="538" d="M441 568l-9 -7q-35 16 -74.5 31.5t-78.5 28.5q-36 -13 -76.5 -28.5t-82.5 -31.5l-7 10q24 41 48 84t40 75l11 8h145q26 -44 47.5 -89.5t36.5 -80.5zM150 -195q-53 0 -84.5 29.5t-31.5 74.5q0 32 13 56q19 -5 48 -10t59 -5q45 0 86 13t64 37h-114l-137 402q-10 32 -21 50 t-28 31l-4 3l2 14h312l2 -14l-47 -27l82 -325l92 329l-47 23l2 14h138l2 -14l-8 -5q-19 -12 -29 -30.5t-21 -48.5l-118 -350q-15 -44 -34.5 -88t-45 -80t-58.5 -57.5t-74 -21.5z" />
<glyph unicode="&#x178;" horiz-adv-x="688" d="M336 807q0 -43 -31 -68t-77 -25q-39 0 -63.5 21.5t-24.5 56.5q0 42 32.5 68t75.5 26q40 0 64 -21.5t24 -57.5zM592 807q0 -43 -31 -68t-77 -25q-39 0 -63.5 21.5t-24.5 56.5q0 42 32.5 68t75.5 26q40 0 64 -21.5t24 -57.5zM507 0h-324l-2 16l27 10q18 7 22.5 17t4.5 29 v192l-161 308q-10 19 -19 30.5t-26 18.5l-29 13l2 16h353l2 -16l-61 -24l129 -314l128 312l-59 26l2 16h190l2 -16q-12 -7 -24 -18q-21 -18 -41.5 -46t-43.5 -70l-126 -236v-223l56 -25z" />
<glyph unicode="&#x179;" horiz-adv-x="617" d="M449 832q0 -46 -64 -78.5t-184 -46.5l-9 11q32 46 62.5 97t48.5 86q8 1 17.5 1.5t22.5 0.5q45 0 75.5 -16.5t30.5 -54.5zM581 101q0 -25 -1.5 -51t-5.5 -50h-522l-16 90l315 520h-145l-131 -214h-10q-12 31 -18.5 73t-6.5 86q0 24 1.5 47.5t5.5 47.5h515l16 -90 l-309 -520h147l130 214h10q12 -28 18.5 -68.5t6.5 -84.5z" />
<glyph unicode="&#x17a;" horiz-adv-x="500" d="M399 676q0 -46 -64 -78.5t-184 -46.5l-9 11q32 46 62.5 97t48.5 86q8 1 17.5 1.5t22.5 0.5q45 0 75.5 -16.5t30.5 -54.5zM478 81q0 -20 -1.5 -40.5t-5.5 -40.5h-437l-14 80l251 390h-91l-123 -184h-10q-12 27 -18.5 63.5t-6.5 75.5q0 19 1.5 37.5t5.5 37.5h437l14 -80 l-246 -390h87l122 184h10q12 -24 18.5 -59.5t6.5 -73.5z" />
<glyph unicode="&#x17b;" horiz-adv-x="617" d="M426 807q0 -46 -36 -73.5t-89 -27.5q-46 0 -75.5 23.5t-29.5 62.5q0 46 37.5 74t87.5 28q47 0 76 -23.5t29 -63.5zM581 101q0 -25 -1.5 -51t-5.5 -50h-522l-16 90l315 520h-145l-131 -214h-10q-12 31 -18.5 73t-6.5 86q0 24 1.5 47.5t5.5 47.5h515l16 -90l-309 -520h147 l130 214h10q12 -28 18.5 -68.5t6.5 -84.5z" />
<glyph unicode="&#x17c;" horiz-adv-x="500" d="M366 657q0 -46 -36 -73.5t-89 -27.5q-46 0 -75.5 23.5t-29.5 62.5q0 46 37.5 74t87.5 28q47 0 76 -23.5t29 -63.5zM478 81q0 -20 -1.5 -40.5t-5.5 -40.5h-437l-14 80l251 390h-91l-123 -184h-10q-12 27 -18.5 63.5t-6.5 75.5q0 19 1.5 37.5t5.5 37.5h437l14 -80 l-246 -390h87l122 184h10q12 -24 18.5 -59.5t6.5 -73.5z" />
<glyph unicode="&#x17d;" horiz-adv-x="617" d="M390 720l-11 -8h-145q-25 44 -47 90t-37 80l9 7q35 -16 74.5 -31.5t78.5 -28.5q36 13 76.5 28.5t82.5 31.5l7 -10q-24 -41 -47.5 -84t-40.5 -75zM581 101q0 -25 -1.5 -51t-5.5 -50h-522l-16 90l315 520h-145l-131 -214h-10q-12 31 -18.5 73t-6.5 86q0 24 1.5 47.5 t5.5 47.5h515l16 -90l-309 -520h147l130 214h10q12 -28 18.5 -68.5t6.5 -84.5z" />
<glyph unicode="&#x17e;" horiz-adv-x="500" d="M329 570l-11 -8h-145q-25 44 -47 90t-37 80l9 7q35 -16 74.5 -31.5t78.5 -28.5q36 13 76.5 28.5t82.5 31.5l7 -10q-24 -41 -47.5 -84t-40.5 -75zM478 81q0 -20 -1.5 -40.5t-5.5 -40.5h-437l-14 80l251 390h-91l-123 -184h-10q-12 27 -18.5 63.5t-6.5 75.5q0 19 1.5 37.5 t5.5 37.5h437l14 -80l-246 -390h87l122 184h10q12 -24 18.5 -59.5t6.5 -73.5z" />
<glyph unicode="&#x18f;" horiz-adv-x="695" d="M336 -10q-89 0 -156 36t-104.5 102.5t-37.5 157.5v21t1 14l18 18h380q-1 153 -23 217t-72 64q-39 0 -63 -36.5t-24 -98.5q0 -9 1 -23.5t4 -29.5q-28 -15 -55 -19.5t-51 -4.5q-39 0 -66 17.5t-27 51.5q0 35 24 67.5t65 58.5t91.5 41.5t102.5 15.5q95 0 165.5 -38t109 -108 t38.5 -167q0 -113 -40 -193t-112 -122t-169 -42zM255 276q0 -110 21 -178t70 -68q50 0 70 70.5t21 198.5l-181 -8q-1 -8 -1 -15z" />
<glyph unicode="&#x192;" horiz-adv-x="586" d="M326 124q-12 -81 -57.5 -139.5t-109 -90t-130.5 -31.5q-47 0 -76 19.5t-29 50.5q0 30 25 54.5t75 39.5q3 -37 12.5 -68t33.5 -31q27 0 47.5 45t20.5 150v152h-103l6 45h97v48q0 80 26.5 135.5t71 90t98 50.5t107.5 16q83 0 128 -29t45 -71q0 -46 -31 -73t-69 -32 q-11 41 -22 78.5t-23 61t-28 23.5q-31 0 -43.5 -54.5t-27.5 -153.5l-14 -90h149l-6 -45h-150z" />
<glyph unicode="&#x19d;" horiz-adv-x="656" d="M12 650h220l307 -412v371l-84 25l2 16h199l2 -16l-47 -15q-18 -6 -22.5 -14.5t-4.5 -26.5v-578h-148l-307 421v-346q0 -63 -14 -105t-44 -74t-78 -66l-11 13q33 35 55.5 66.5t34.5 74t12 110.5v515l-74 25z" />
<glyph unicode="&#x1cd;" horiz-adv-x="698" d="M428 720l-11 -8h-145q-25 44 -47 90t-37 80l9 7q35 -16 74.5 -31.5t78.5 -28.5q36 13 76.5 28.5t82.5 31.5l7 -10q-24 -41 -47.5 -84t-40.5 -75zM291 650h115l218 -572q7 -19 18 -30t27 -19l29 -13l-2 -16h-353l-2 16l63 25l-42 122l-210 -2l-44 -119l69 -26l-2 -16h-173 l-2 16l31 11q21 8 28.5 21.5t16.5 35.5zM168 203h180l-86 253z" />
<glyph unicode="&#x1ce;" horiz-adv-x="565" d="M374 570l-11 -8h-145q-25 44 -47 90t-37 80l9 7q35 -16 74.5 -31.5t78.5 -28.5q36 13 76.5 28.5t82.5 31.5l7 -10q-24 -41 -47.5 -84t-40.5 -75zM579 77q-12 -20 -30.5 -40t-47 -33.5t-71.5 -13.5q-49 0 -81 24.5t-41 58.5q-18 -32 -54 -57.5t-95 -25.5q-35 0 -66 15 t-49.5 42.5t-18.5 64.5q0 77 76 116t204 43v137q0 62 -33 62q-17 0 -27 -18t-10 -58q0 -13 1.5 -32.5t5.5 -39.5q-28 -10 -52 -15t-46 -5q-41 0 -67.5 16.5t-26.5 50.5q0 37 33 69t89 52t124 20q104 0 164 -47t60 -153q0 -41 -2.5 -88t-2.5 -74q0 -36 8.5 -50t27.5 -14 q13 0 22 3zM245 155q0 -32 12 -46t28 -14q12 0 20 6v140q-29 -4 -44.5 -27t-15.5 -59z" />
<glyph unicode="&#x1cf;" horiz-adv-x="386" d="M272 720l-11 -8h-145q-25 44 -47 90t-37 80l9 7q35 -16 74.5 -31.5t78.5 -28.5q36 13 76.5 28.5t82.5 31.5l7 -10q-24 -41 -47.5 -84t-40.5 -75zM356 0h-324l-2 16l27 10q18 7 22.5 17t4.5 29v537l-56 25l2 16h324l2 -16l-27 -10q-18 -7 -22.5 -16.5t-4.5 -29.5v-537 l56 -25z" />
<glyph unicode="&#x1d0;" horiz-adv-x="315" d="M234 569l-11 -8h-143q-18 44 -34 90t-27 80l9 7q62 -32 129 -58q31 13 66 28l70 30l7 -10q-18 -41 -36 -84t-30 -75zM308 0h-296l-2 14l18 10q17 9 22 18t5 28v366l-45 17l-1 14q32 11 76 21t90 16t82 6l8 -8v-463l45 -25z" />
<glyph unicode="&#x1d1;" horiz-adv-x="710" d="M426 720l-11 -8h-145q-25 44 -47 90t-37 80l9 7q35 -16 74.5 -31.5t78.5 -28.5q36 13 76.5 28.5t82.5 31.5l7 -10q-24 -41 -47.5 -84t-40.5 -75zM672 330q0 -108 -43 -184t-116.5 -116t-166.5 -40q-94 0 -167.5 39.5t-115 114.5t-41.5 181q0 108 45 182.5t119 113.5 t162 39q93 0 166.5 -37.5t115.5 -111t42 -181.5zM257 325q-1 -157 20.5 -226t71.5 -69t68.5 72t19.5 228q1 155 -18 222.5t-71 67.5t-71 -68.5t-20 -226.5z" />
<glyph unicode="&#x1d2;" horiz-adv-x="570" d="M364 570l-11 -8h-145q-25 44 -47 90t-37 80l9 7q35 -16 74.5 -31.5t78.5 -28.5q36 13 76.5 28.5t82.5 31.5l7 -10q-24 -41 -47.5 -84t-40.5 -75zM550 263q0 -84 -35.5 -145.5t-96.5 -94.5t-139 -33q-74 0 -133 30t-92.5 85.5t-33.5 131.5q0 85 35 146t96.5 94t139.5 33 q75 0 133.5 -30t92 -85t33.5 -132zM240 262q0 -86 3.5 -137t13 -73t28.5 -22t28.5 19t13 64.5t3.5 124.5q0 89 -3.5 139.5t-13 71.5t-28.5 21q-18 0 -28 -19t-13.5 -64.5t-3.5 -124.5z" />
<glyph unicode="&#x1d3;" horiz-adv-x="681" d="M483 719l-11 -8h-145q-25 44 -47 90t-37 80l9 7q35 -16 74.5 -31.5t78.5 -28.5q36 13 76.5 28.5t82.5 31.5l7 -10q-24 -41 -47.5 -84t-40.5 -75zM607 226q0 -116 -62.5 -176t-191.5 -60q-77 0 -138 27t-96 80t-35 132v380l-56 25l2 16h324l2 -16l-27 -10 q-18 -7 -22.5 -16.5t-4.5 -29.5v-340q0 -91 31 -138t98 -47q59 0 95 44t36 129v384l-74 24l2 16h189l2 -16l-74 -24v-384z" />
<glyph unicode="&#x1d4;" d="M376 570l-11 -8h-145q-25 44 -47 90t-37 80l9 7q35 -16 74.5 -31.5t78.5 -28.5q36 13 76.5 28.5t82.5 31.5l7 -10q-24 -41 -47.5 -84t-40.5 -75zM626 73q-19 -29 -55.5 -56t-95.5 -27q-57 0 -91 32t-34 75v6q-20 -44 -57.5 -78.5t-100.5 -34.5q-67 0 -104.5 41t-37.5 109 v296l-45 17l-1 14q32 11 76 21t90 16t82 6l8 -8v-315q0 -31 11.5 -46.5t40.5 -15.5q21 0 38 10v301l-45 17l-1 14q32 11 76 21t90 16t82 6l8 -8v-354q0 -36 8.5 -50t27.5 -14q13 0 22 3z" />
<glyph unicode="&#x1d5;" horiz-adv-x="681" d="M233 987v106h342v-106h-342zM374 806q0 -43 -31 -68t-77 -25q-39 0 -63.5 21.5t-24.5 56.5q0 42 32.5 68t75.5 26q40 0 64 -21.5t24 -57.5zM630 806q0 -43 -31 -68t-77 -25q-39 0 -63.5 21.5t-24.5 56.5q0 42 32.5 68t75.5 26q40 0 64 -21.5t24 -57.5zM607 226 q0 -116 -62.5 -176t-191.5 -60q-77 0 -138 27t-96 80t-35 132v380l-56 25l2 16h324l2 -16l-27 -10q-18 -7 -22.5 -16.5t-4.5 -29.5v-340q0 -91 31 -138t98 -47q59 0 95 44t36 129v384l-74 24l2 16h189l2 -16l-74 -24v-384z" />
<glyph unicode="&#x1d6;" d="M128 828v106h342v-106h-342zM267 657q0 -43 -31 -68t-77 -25q-39 0 -63.5 21.5t-24.5 56.5q0 42 32.5 68t75.5 26q40 0 64 -21.5t24 -57.5zM523 657q0 -43 -31 -68t-77 -25q-39 0 -63.5 21.5t-24.5 56.5q0 42 32.5 68t75.5 26q40 0 64 -21.5t24 -57.5zM626 73 q-19 -29 -55.5 -56t-95.5 -27q-57 0 -91 32t-34 75v6q-20 -44 -57.5 -78.5t-100.5 -34.5q-67 0 -104.5 41t-37.5 109v296l-45 17l-1 14q32 11 76 21t90 16t82 6l8 -8v-315q0 -31 11.5 -46.5t40.5 -15.5q21 0 38 10v301l-45 17l-1 14q32 11 76 21t90 16t82 6l8 -8v-354 q0 -36 8.5 -50t27.5 -14q13 0 22 3z" />
<glyph unicode="&#x1d7;" horiz-adv-x="681" d="M547 1067q0 -46 -64 -78.5t-184 -46.5l-9 11q32 46 62.5 97t48.5 86q8 1 17.5 1.5t22.5 0.5q45 0 75.5 -16.5t30.5 -54.5zM374 806q0 -43 -31 -68t-77 -25q-39 0 -63.5 21.5t-24.5 56.5q0 42 32.5 68t75.5 26q40 0 64 -21.5t24 -57.5zM630 806q0 -43 -31 -68t-77 -25 q-39 0 -63.5 21.5t-24.5 56.5q0 42 32.5 68t75.5 26q40 0 64 -21.5t24 -57.5zM607 226q0 -116 -62.5 -176t-191.5 -60q-77 0 -138 27t-96 80t-35 132v380l-56 25l2 16h324l2 -16l-27 -10q-18 -7 -22.5 -16.5t-4.5 -29.5v-340q0 -91 31 -138t98 -47q59 0 95 44t36 129v384 l-74 24l2 16h189l2 -16l-74 -24v-384z" />
<glyph unicode="&#x1d8;" d="M446 907q0 -46 -64 -78.5t-184 -46.5l-9 11q32 46 62.5 97t48.5 86q8 1 17.5 1.5t22.5 0.5q45 0 75.5 -16.5t30.5 -54.5zM267 657q0 -43 -31 -68t-77 -25q-39 0 -63.5 21.5t-24.5 56.5q0 42 32.5 68t75.5 26q40 0 64 -21.5t24 -57.5zM523 657q0 -43 -31 -68t-77 -25 q-39 0 -63.5 21.5t-24.5 56.5q0 42 32.5 68t75.5 26q40 0 64 -21.5t24 -57.5zM626 73q-19 -29 -55.5 -56t-95.5 -27q-57 0 -91 32t-34 75v6q-20 -44 -57.5 -78.5t-100.5 -34.5q-67 0 -104.5 41t-37.5 109v296l-45 17l-1 14q32 11 76 21t90 16t82 6l8 -8v-315 q0 -31 11.5 -46.5t40.5 -15.5q21 0 38 10v301l-45 17l-1 14q32 11 76 21t90 16t82 6l8 -8v-354q0 -36 8.5 -50t27.5 -14q13 0 22 3z" />
<glyph unicode="&#x1d9;" horiz-adv-x="681" d="M483 960l-11 -8h-145q-25 44 -47 90t-37 80l9 7q35 -16 74.5 -31.5t78.5 -28.5q36 13 76.5 28.5t82.5 31.5l7 -10q-24 -41 -47.5 -84t-40.5 -75zM374 806q0 -43 -31 -68t-77 -25q-39 0 -63.5 21.5t-24.5 56.5q0 42 32.5 68t75.5 26q40 0 64 -21.5t24 -57.5zM630 806 q0 -43 -31 -68t-77 -25q-39 0 -63.5 21.5t-24.5 56.5q0 42 32.5 68t75.5 26q40 0 64 -21.5t24 -57.5zM607 226q0 -116 -62.5 -176t-191.5 -60q-77 0 -138 27t-96 80t-35 132v380l-56 25l2 16h324l2 -16l-27 -10q-18 -7 -22.5 -16.5t-4.5 -29.5v-340q0 -91 31 -138t98 -47 q59 0 95 44t36 129v384l-74 24l2 16h189l2 -16l-74 -24v-384z" />
<glyph unicode="&#x1da;" d="M376 801l-11 -8h-145q-25 44 -47 90t-37 80l9 7q35 -16 74.5 -31.5t78.5 -28.5q36 13 76.5 28.5t82.5 31.5l7 -10q-24 -41 -47.5 -84t-40.5 -75zM267 657q0 -43 -31 -68t-77 -25q-39 0 -63.5 21.5t-24.5 56.5q0 42 32.5 68t75.5 26q40 0 64 -21.5t24 -57.5zM523 657 q0 -43 -31 -68t-77 -25q-39 0 -63.5 21.5t-24.5 56.5q0 42 32.5 68t75.5 26q40 0 64 -21.5t24 -57.5zM626 73q-19 -29 -55.5 -56t-95.5 -27q-57 0 -91 32t-34 75v6q-20 -44 -57.5 -78.5t-100.5 -34.5q-67 0 -104.5 41t-37.5 109v296l-45 17l-1 14q32 11 76 21t90 16t82 6 l8 -8v-315q0 -31 11.5 -46.5t40.5 -15.5q21 0 38 10v301l-45 17l-1 14q32 11 76 21t90 16t82 6l8 -8v-354q0 -36 8.5 -50t27.5 -14q13 0 22 3z" />
<glyph unicode="&#x1db;" horiz-adv-x="681" d="M526 953l-9 -11q-120 14 -184 46.5t-64 78.5q0 38 30.5 54.5t75.5 16.5q13 0 23 -0.5t17 -1.5q18 -35 49 -86t62 -97zM374 806q0 -43 -31 -68t-77 -25q-39 0 -63.5 21.5t-24.5 56.5q0 42 32.5 68t75.5 26q40 0 64 -21.5t24 -57.5zM630 806q0 -43 -31 -68t-77 -25 q-39 0 -63.5 21.5t-24.5 56.5q0 42 32.5 68t75.5 26q40 0 64 -21.5t24 -57.5zM607 226q0 -116 -62.5 -176t-191.5 -60q-77 0 -138 27t-96 80t-35 132v380l-56 25l2 16h324l2 -16l-27 -10q-18 -7 -22.5 -16.5t-4.5 -29.5v-340q0 -91 31 -138t98 -47q59 0 95 44t36 129v384 l-74 24l2 16h189l2 -16l-74 -24v-384z" />
<glyph unicode="&#x1dc;" d="M429 793l-9 -11q-120 14 -184 46.5t-64 78.5q0 38 30.5 54.5t75.5 16.5q13 0 23 -0.5t17 -1.5q18 -35 49 -86t62 -97zM267 657q0 -43 -31 -68t-77 -25q-39 0 -63.5 21.5t-24.5 56.5q0 42 32.5 68t75.5 26q40 0 64 -21.5t24 -57.5zM523 657q0 -43 -31 -68t-77 -25 q-39 0 -63.5 21.5t-24.5 56.5q0 42 32.5 68t75.5 26q40 0 64 -21.5t24 -57.5zM626 73q-19 -29 -55.5 -56t-95.5 -27q-57 0 -91 32t-34 75v6q-20 -44 -57.5 -78.5t-100.5 -34.5q-67 0 -104.5 41t-37.5 109v296l-45 17l-1 14q32 11 76 21t90 16t82 6l8 -8v-315 q0 -31 11.5 -46.5t40.5 -15.5q21 0 38 10v301l-45 17l-1 14q32 11 76 21t90 16t82 6l8 -8v-354q0 -36 8.5 -50t27.5 -14q13 0 22 3z" />
<glyph unicode="&#x1e6;" horiz-adv-x="664" d="M447 720l-11 -8h-145q-25 44 -47 90t-37 80l9 7q35 -16 74.5 -31.5t78.5 -28.5q36 13 76.5 28.5t82.5 31.5l7 -10q-24 -41 -47.5 -84t-40.5 -75zM616 16q-47 -13 -97.5 -19.5t-113.5 -6.5q-112 0 -196.5 37t-131.5 110t-47 180q0 83 31 147t85.5 107.5t124 66t145.5 22.5 q60 0 107 -7t82 -19q2 -14 3 -30t1 -32q0 -42 -8.5 -84.5t-23.5 -73.5h-10l-121 205q-7 1 -13 1q-28 0 -60 -19t-60 -56.5t-45.5 -93t-17.5 -128.5q0 -72 17.5 -127t44.5 -91.5t56.5 -55.5t53.5 -19h6v248l-53 25l2 16h291l2 -16l-27 -10q-18 -7 -22.5 -16.5t-4.5 -29.5 v-231z" />
<glyph unicode="&#x1e7;" horiz-adv-x="551" d="M346 570l-11 -8h-145q-25 44 -47 90t-37 80l9 7q35 -16 74.5 -31.5t78.5 -28.5q36 13 76.5 28.5t82.5 31.5l7 -10q-24 -41 -47.5 -84t-40.5 -75zM540 -5q0 -88 -72 -139t-215 -51q-47 0 -92 4.5t-81.5 15t-58 28.5t-21.5 45q0 30 35 46.5t84 16.5l1 4q-22 11 -39.5 34.5 t-17.5 58.5q0 42 34.5 76t82.5 42q-75 13 -117.5 53t-42.5 104q0 55 34.5 93t91.5 58.5t124 20.5q98 0 158 4.5t103 15.5q8 -10 13.5 -22.5t5.5 -31.5q0 -27 -13.5 -38.5t-41.5 -11.5q-18 0 -41 7t-48 15l-2 -3q36 -15 66 -45t30 -76q0 -48 -31 -81.5t-86 -50.5t-127 -17 q-22 0 -43 2q-1 -7 -1 -11q0 -14 12 -19.5t36 -6.5l107 -2q77 -1 125 -34.5t48 -103.5zM220 329q0 -61 7 -90t33 -29q25 0 32.5 29t7.5 93q0 56 -5.5 87t-32.5 31q-28 0 -35 -33t-7 -88zM170 -82q0 -73 107 -73q44 0 73.5 15t29.5 41q0 17 -13.5 25.5t-44.5 8.5h-79 q-44 0 -70 4q-3 -10 -3 -21z" />
<glyph unicode="&#x1ea;" horiz-adv-x="710" d="M485 -137q-19 -39 -56 -62t-80 -23q-40 0 -66 21.5t-26 57.5q0 40 37 74t123 66q-34 -7 -71 -7q-94 0 -167.5 39.5t-115 114.5t-41.5 181q0 108 45 182.5t119 113.5t162 39q93 0 166.5 -37.5t115.5 -111t42 -181.5q0 -103 -39.5 -177t-105.5 -115l2 1 q-76 -44 -101.5 -75.5t-25.5 -59.5q0 -21 11.5 -29.5t30.5 -8.5t36 7zM257 325q-1 -157 20.5 -226t71.5 -69t68.5 72t19.5 228q1 155 -18 222.5t-71 67.5t-71 -68.5t-20 -226.5z" />
<glyph unicode="&#x1eb;" horiz-adv-x="570" d="M421 -137q-19 -39 -56 -62t-80 -23q-40 0 -65.5 20t-25.5 54q0 43 42.5 75.5t114.5 70.5q-34 -8 -72 -8q-74 0 -133 30t-92.5 85.5t-33.5 131.5q0 85 35 146t96.5 94t139.5 33q75 0 133.5 -30t92 -85t33.5 -132q0 -69 -24 -122.5t-66 -88.5h1q-66 -54 -94.5 -87 t-28.5 -61q0 -21 11.5 -29.5t30.5 -8.5t36 7zM240 262q0 -86 3.5 -137t13 -73t28.5 -22t28.5 19t13 64.5t3.5 124.5q0 89 -3.5 139.5t-13 71.5t-28.5 21q-18 0 -28 -19t-13.5 -64.5t-3.5 -124.5z" />
<glyph unicode="&#x1f4;" horiz-adv-x="664" d="M506 832q0 -46 -64 -78.5t-184 -46.5l-9 11q32 46 62.5 97t48.5 86q8 1 17.5 1.5t22.5 0.5q45 0 75.5 -16.5t30.5 -54.5zM616 16q-47 -13 -97.5 -19.5t-113.5 -6.5q-112 0 -196.5 37t-131.5 110t-47 180q0 83 31 147t85.5 107.5t124 66t145.5 22.5q60 0 107 -7t82 -19 q2 -14 3 -30t1 -32q0 -42 -8.5 -84.5t-23.5 -73.5h-10l-121 205q-7 1 -13 1q-28 0 -60 -19t-60 -56.5t-45.5 -93t-17.5 -128.5q0 -72 17.5 -127t44.5 -91.5t56.5 -55.5t53.5 -19h6v248l-53 25l2 16h291l2 -16l-27 -10q-18 -7 -22.5 -16.5t-4.5 -29.5v-231z" />
<glyph unicode="&#x1f5;" horiz-adv-x="551" d="M416 676q0 -46 -64 -78.5t-184 -46.5l-9 11q32 46 62.5 97t48.5 86q8 1 17.5 1.5t22.5 0.5q45 0 75.5 -16.5t30.5 -54.5zM540 -5q0 -88 -72 -139t-215 -51q-47 0 -92 4.5t-81.5 15t-58 28.5t-21.5 45q0 30 35 46.5t84 16.5l1 4q-22 11 -39.5 34.5t-17.5 58.5 q0 42 34.5 76t82.5 42q-75 13 -117.5 53t-42.5 104q0 55 34.5 93t91.5 58.5t124 20.5q98 0 158 4.5t103 15.5q8 -10 13.5 -22.5t5.5 -31.5q0 -27 -13.5 -38.5t-41.5 -11.5q-18 0 -41 7t-48 15l-2 -3q36 -15 66 -45t30 -76q0 -48 -31 -81.5t-86 -50.5t-127 -17q-22 0 -43 2 q-1 -7 -1 -11q0 -14 12 -19.5t36 -6.5l107 -2q77 -1 125 -34.5t48 -103.5zM220 329q0 -61 7 -90t33 -29q25 0 32.5 29t7.5 93q0 56 -5.5 87t-32.5 31q-28 0 -35 -33t-7 -88zM170 -82q0 -73 107 -73q44 0 73.5 15t29.5 41q0 17 -13.5 25.5t-44.5 8.5h-79q-44 0 -70 4 q-3 -10 -3 -21z" />
<glyph unicode="&#x1fa;" horiz-adv-x="698" d="M487 1067q0 -46 -64 -78.5t-184 -46.5l-9 11q32 46 62.5 97t48.5 86q8 1 17.5 1.5t22.5 0.5q45 0 75.5 -16.5t30.5 -54.5zM345 704q-46 0 -76 24t-30 67q0 46 32.5 73t81.5 27q45 0 75 -24.5t30 -65.5q0 -45 -32 -73t-81 -28zM349 848q-17 0 -27.5 -14t-10.5 -37 q0 -21 10.5 -33t26.5 -12q17 0 27.5 14t10.5 37q0 20 -10 32.5t-27 12.5zM291 650h115l218 -572q7 -19 18 -30t27 -19l29 -13l-2 -16h-353l-2 16l63 25l-42 122l-210 -2l-44 -119l69 -26l-2 -16h-173l-2 16l31 11q21 8 28.5 21.5t16.5 35.5zM168 203h180l-86 253z" />
<glyph unicode="&#x1fb;" horiz-adv-x="565" d="M434 913q0 -46 -64 -78.5t-184 -46.5l-9 11q32 46 62.5 97t48.5 86q8 1 17.5 1.5t22.5 0.5q45 0 75.5 -16.5t30.5 -54.5zM292 554q-46 0 -76 24t-30 67q0 46 32.5 73t81.5 27q45 0 75 -24.5t30 -65.5q0 -45 -32 -73t-81 -28zM296 698q-17 0 -27.5 -14t-10.5 -37 q0 -21 10.5 -33t26.5 -12q17 0 27.5 14t10.5 37q0 20 -10 32.5t-27 12.5zM579 77q-12 -20 -30.5 -40t-47 -33.5t-71.5 -13.5q-49 0 -81 24.5t-41 58.5q-18 -32 -54 -57.5t-95 -25.5q-35 0 -66 15t-49.5 42.5t-18.5 64.5q0 77 76 116t204 43v137q0 62 -33 62q-17 0 -27 -18 t-10 -58q0 -13 1.5 -32.5t5.5 -39.5q-28 -10 -52 -15t-46 -5q-41 0 -67.5 16.5t-26.5 50.5q0 37 33 69t89 52t124 20q104 0 164 -47t60 -153q0 -41 -2.5 -88t-2.5 -74q0 -36 8.5 -50t27.5 -14q13 0 22 3zM245 155q0 -32 12 -46t28 -14q12 0 20 6v140q-29 -4 -44.5 -27 t-15.5 -59z" />
<glyph unicode="&#x1fc;" horiz-adv-x="927" d="M688 832q0 -46 -64 -78.5t-184 -46.5l-9 11q32 46 62.5 97t48.5 86q8 1 17.5 1.5t22.5 0.5q45 0 75.5 -16.5t30.5 -54.5zM409 610h-65l-97 -263l162 -2v265zM27 0l-2 16q14 5 23 8.5t19 8.5q13 7 19.5 18t18.5 42l196 517l-74 24l2 16h645q4 -19 5.5 -37.5t1.5 -37.5 q0 -39 -6.5 -75.5t-18.5 -63.5h-10l-125 174h-94v-265l157 15l-3 -70l-154 15v-265h102l126 181h10q12 -28 18.5 -65.5t6.5 -77.5q0 -19 -1.5 -38.5t-5.5 -39.5h-528l-2 16l29 10q18 6 22.5 16.5t4.5 29.5v232l-179 -2l-96 -260l78 -26l-2 -16h-183z" />
<glyph unicode="&#x1fd;" horiz-adv-x="820" d="M582 676q0 -46 -64 -78.5t-184 -46.5l-9 11q32 46 62.5 97t48.5 86q8 1 17.5 1.5t22.5 0.5q45 0 75.5 -16.5t30.5 -54.5zM795 161q-13 -47 -43.5 -85.5t-79.5 -61.5t-117 -23q-72 0 -126.5 24t-85.5 74q-11 -23 -33.5 -46t-56.5 -38t-80 -15q-63 0 -105.5 33t-42.5 89 q0 77 76 116t204 43v137q0 62 -33 62q-17 0 -27 -18t-10 -58q0 -13 1.5 -32.5t5.5 -39.5q-28 -10 -52 -15t-46 -5q-41 0 -67.5 16.5t-26.5 50.5q0 37 33 69t89 52t124 20q88 0 142 -32q61 33 137 33q70 0 121.5 -27t80 -75t28.5 -110q0 -9 -1 -20t-3 -20l-8 -8h-260 q15 -59 53 -84.5t91 -25.5q35 0 61.5 8.5t48.5 19.5zM525 325q0 -20 2 -39l67 6q1 13 1 24.5v23.5q0 62 -4.5 96.5t-26.5 34.5t-30.5 -39t-8.5 -107zM245 173q0 -33 14 -53.5t36 -20.5q20 0 34 15q-24 53 -24 127q-60 -7 -60 -68z" />
<glyph unicode="&#x1fe;" horiz-adv-x="710" d="M485 832q0 -46 -64 -78.5t-184 -46.5l-9 11q32 46 62.5 97t48.5 86q8 1 17.5 1.5t22.5 0.5q45 0 75.5 -16.5t30.5 -54.5zM672 330q0 -108 -43 -184t-116.5 -116t-166.5 -40q-113 0 -194 56l-45 -56l-38 32l45 55q-44 43 -68 105.5t-24 142.5q0 108 45 182.5t119 113.5 t162 39q114 0 194 -54l44 54l39 -31l-44 -54q43 -42 67 -103.5t24 -141.5zM257 325q0 -38 1 -70l175 216q-7 78 -27 113.5t-58 35.5q-52 0 -71 -68.5t-20 -226.5zM437 330q0 36 -1 66l-174 -214q8 -80 29 -116t58 -36q50 0 68.5 72t19.5 228z" />
<glyph unicode="&#x1ff;" horiz-adv-x="570" d="M434 676q0 -46 -64 -78.5t-184 -46.5l-9 11q32 46 62.5 97t48.5 86q8 1 17.5 1.5t22.5 0.5q45 0 75.5 -16.5t30.5 -54.5zM550 263q0 -84 -35.5 -145.5t-96.5 -94.5t-139 -33q-109 0 -179 61l-39 -36l-27 30l37 35q-24 30 -37.5 70t-13.5 87q0 85 35 146t96.5 94t139.5 33 q107 0 178 -59l39 36l29 -29l-39 -37q24 -30 38 -70t14 -88zM240 262v-25l89 83q-2 85 -11 117.5t-33 32.5q-18 0 -28 -19t-13.5 -64.5t-3.5 -124.5zM330 238v27l-89 -83q2 -84 11 -118t33 -34q19 0 28.5 19t13 64.5t3.5 124.5z" />
<glyph unicode="&#x218;" horiz-adv-x="578" d="M554 186q0 -71 -40 -114t-109.5 -62.5t-157.5 -19.5q-74 0 -123 6.5t-73 18.5q-12 6 -19.5 17.5t-7.5 30.5q0 32 9.5 64t23.5 59t27 42l10 -2l103 -194q6 -1 13 -1.5t13 -0.5q46 0 74 24.5t28 64.5q0 34 -21.5 58.5t-56 45t-73 41.5t-73 48t-56 63.5t-21.5 88.5 q0 64 40.5 107.5t107 66t145.5 22.5q90 0 135.5 -12.5t63.5 -23.5q11 -7 16.5 -15.5t5.5 -23.5q0 -25 -12 -57t-28 -60t-30 -41l-10 2l-89 189q-15 2 -26 2q-42 0 -72 -21.5t-30 -61.5q0 -35 22.5 -62t58.5 -50t75.5 -45.5t75.5 -49.5t58.5 -62t22.5 -82zM366 -149 q0 -45 -26 -88.5t-65 -76.5t-79 -48l-13 12q18 20 35.5 51.5t25.5 65.5q-32 5 -52 26t-20 54q0 46 29 71.5t69 25.5q44 0 70 -26t26 -67z" />
<glyph unicode="&#x219;" horiz-adv-x="490" d="M213 -10q-63 0 -104.5 7.5t-61.5 17.5q-10 6 -18.5 18.5t-8.5 34.5q0 42 22.5 76t47.5 44l12 -6q10 -31 21.5 -58.5t24.5 -48.5q14 -21 30.5 -33t36.5 -12q22 0 34 13t12 34q0 25 -16.5 44t-42 35.5t-55 34t-55 39t-42 51.5t-16.5 71q0 51 32.5 86.5t88.5 53.5t124 18 q77 0 114.5 -13.5t53.5 -27.5q9 -7 15.5 -16t6.5 -23q0 -25 -12.5 -48t-30.5 -40t-37 -25l-12 6q-22 80 -45 114q-23 33 -56 33q-20 0 -32.5 -12.5t-12.5 -30.5q0 -25 17.5 -45.5t44.5 -38.5t57.5 -36.5t57.5 -40t44.5 -49.5t17.5 -65q0 -57 -33.5 -93t-91.5 -52.5 t-132 -16.5zM322 -149q0 -45 -26 -88.5t-65 -76.5t-79 -48l-13 12q18 20 35.5 51.5t25.5 65.5q-32 5 -52 26t-20 54q0 46 29 71.5t69 25.5q44 0 70 -26t26 -67z" />
<glyph unicode="&#x21a;" horiz-adv-x="634" d="M47 396h-10q-12 32 -18.5 75t-6.5 89q0 23 1.5 45.5t5.5 44.5h596q4 -22 5.5 -44.5t1.5 -45.5q0 -46 -6.5 -89t-18.5 -75h-10l-115 214h-46v-569l56 -25l-2 -16h-324l-2 16l27 10q18 7 22.5 17t4.5 29v538h-46zM413 -149q0 -45 -26 -88.5t-65 -76.5t-79 -48l-13 12 q18 20 35.5 51.5t25.5 65.5q-32 5 -52 26t-20 54q0 46 29 71.5t69 25.5q44 0 70 -26t26 -67z" />
<glyph unicode="&#x21b;" horiz-adv-x="394" d="M364 470v-35h-110v-218q0 -39 17.5 -58t46.5 -19q20 0 37.5 8.5t30.5 19.5l8 -8q-11 -40 -35 -79.5t-63.5 -65t-98.5 -25.5q-73 0 -113 44.5t-40 135.5v265h-58l-2 14l52 34l210 137l8 -2v-148h110zM295 -149q0 -45 -26 -88.5t-65 -76.5t-79 -48l-13 12q18 20 35.5 51.5 t25.5 65.5q-32 5 -52 26t-20 54q0 46 29 71.5t69 25.5q44 0 70 -26t26 -67z" />
<glyph unicode="&#x232;" horiz-adv-x="688" d="M195 747v106h342v-106h-342zM507 0h-324l-2 16l27 10q18 7 22.5 17t4.5 29v192l-161 308q-10 19 -19 30.5t-26 18.5l-29 13l2 16h353l2 -16l-61 -24l129 -314l128 312l-59 26l2 16h190l2 -16q-12 -7 -24 -18q-21 -18 -41.5 -46t-43.5 -70l-126 -236v-223l56 -25z" />
<glyph unicode="&#x233;" horiz-adv-x="538" d="M104 597v106h342v-106h-342zM150 -195q-53 0 -84.5 29.5t-31.5 74.5q0 32 13 56q19 -5 48 -10t59 -5q45 0 86 13t64 37h-114l-137 402q-10 32 -21 50t-28 31l-4 3l2 14h312l2 -14l-47 -27l82 -325l92 329l-47 23l2 14h138l2 -14l-8 -5q-19 -12 -29 -30.5t-21 -48.5 l-118 -350q-15 -44 -34.5 -88t-45 -80t-58.5 -57.5t-74 -21.5z" />
<glyph unicode="&#x237;" horiz-adv-x="305" d="M-3 -181q25 53 39 121.5t14 174.5v321l-45 17l-1 14q32 11 76 21t90 16t82 6l8 -8v-407q0 -79 -23 -140.5t-78.5 -100.5t-153.5 -49z" />
<glyph unicode="&#x259;" horiz-adv-x="535" d="M27 245h268v17q0 89 -3.5 133.5t-12 59.5t-23.5 15q-18 0 -27 -21.5t-9 -59.5q0 -12 1.5 -30.5t5.5 -36.5q-29 -10 -54.5 -15t-48.5 -5q-43 0 -71 16.5t-28 50.5q0 38 30 70t82.5 51.5t120.5 19.5q78 0 135.5 -31t89.5 -87t32 -132q0 -83 -36 -143.5t-97 -93.5t-137 -33 q-70 0 -121.5 27t-80 74t-28.5 108q0 9 1 19t3 19zM225 158q0 -60 4.5 -94t26.5 -34q13 0 21 15.5t12.5 54.5t5.5 110l-69 -6q-1 -12 -1 -23.5v-22.5z" />
<glyph unicode="&#x272;" horiz-adv-x="610" d="M603 0h-296l-2 14l18 10q17 9 22 18t5 28v243q0 62 -51 62q-10 0 -21 -3t-18 -7v-270q0 -79 -23 -140.5t-78.5 -100.5t-153.5 -49l-8 14q25 53 39 121.5t14 174.5v321l-45 17l-1 14q32 11 76 21t90 16t82 6l8 -8v-105q17 28 40.5 54t55 42.5t73.5 16.5q65 0 98 -39.5 t33 -106.5v-325l45 -25z" />
<glyph unicode="&#x2c6;" horiz-adv-x="438" d="M383 568l-9 -7q-35 16 -74.5 31.5t-78.5 28.5q-36 -13 -76.5 -28.5t-82.5 -31.5l-7 10q24 41 48 84t40 75l11 8h145q26 -44 47.5 -89.5t36.5 -80.5z" />
<glyph unicode="&#x2c7;" horiz-adv-x="458" d="M305 570l-11 -8h-145q-25 44 -47 90t-37 80l9 7q35 -16 74.5 -31.5t78.5 -28.5q36 13 76.5 28.5t82.5 31.5l7 -10q-24 -41 -47.5 -84t-40.5 -75z" />
<glyph unicode="&#x2d8;" horiz-adv-x="400" d="M334 744l4 1l10 -4q-4 -91 -43 -138t-110 -47q-68 0 -104.5 47.5t-38.5 138.5l14 4q18 -28 49 -43.5t86 -15.5q50 0 81 15.5t52 41.5z" />
<glyph unicode="&#x2d9;" horiz-adv-x="350" d="M290 657q0 -46 -36 -73.5t-89 -27.5q-46 0 -75.5 23.5t-29.5 62.5q0 46 37.5 74t87.5 28q47 0 76 -23.5t29 -63.5z" />
<glyph unicode="&#x2da;" horiz-adv-x="359" d="M176 554q-46 0 -76 24t-30 67q0 46 32.5 73t81.5 27q45 0 75 -24.5t30 -65.5q0 -45 -32 -73t-81 -28zM180 698q-17 0 -27.5 -14t-10.5 -37q0 -21 10.5 -33t26.5 -12q17 0 27.5 14t10.5 37q0 20 -10 32.5t-27 12.5z" />
<glyph unicode="&#x2db;" horiz-adv-x="358" d="M293 -137q-19 -39 -56 -62t-80 -23q-40 0 -66 21.5t-26 57.5q0 28 19.5 58t63 55t114.5 36l13 -6q-27 -13 -46 -40.5t-19 -55.5q0 -21 11.5 -29.5t30.5 -8.5t36 7z" />
<glyph unicode="&#x2dc;" horiz-adv-x="512" d="M372 681q12 14 24.5 27t24.5 26l10 -3q2 -13 3 -25t1 -24q0 -51 -23 -84t-75 -33q-55 0 -106 18.5t-89 34.5q-12 -13 -24.5 -26t-24.5 -27l-10 3q-6 27 -6 51q0 50 25 82.5t75 32.5q53 0 102.5 -19.5t92.5 -33.5z" />
<glyph unicode="&#x2dd;" horiz-adv-x="582" d="M295 676q0 -46 -57.5 -78.5t-166.5 -46.5l-9 11q32 46 62.5 97t48.5 86q6 1 14 1.5t18 0.5q38 0 64 -16.5t26 -54.5zM520 676q0 -46 -57.5 -78.5t-166.5 -46.5l-9 11q32 46 62.5 97t48.5 86q6 1 14 1.5t18 0.5q38 0 64 -16.5t26 -54.5z" />
<glyph unicode="&#x1e0c;" horiz-adv-x="732" d="M327 610h-25v-570h26q74 0 113.5 75.5t40.5 214.5t-39.5 209.5t-115.5 70.5zM473 -143q0 -46 -36 -73.5t-89 -27.5q-46 0 -75.5 23.5t-29.5 62.5q0 46 37.5 74t87.5 28q47 0 76 -23.5t29 -63.5zM349 0h-319l-2 16l29 10q18 6 22.5 16.5t4.5 29.5v537l-55 25l2 16h320 q100 0 179.5 -36.5t125.5 -107.5t46 -176t-47 -179t-126.5 -112.5t-179.5 -38.5z" />
<glyph unicode="&#x1e0d;" horiz-adv-x="590" d="M20 236q0 100 36 160t95 87t127 27q26 0 52 -3v114l-45 17l-1 14q32 11 76 21t90 16t82 6l8 -8v-539q0 -36 7.5 -50t25.5 -14q12 0 22 3l6 -10q-24 -38 -58 -62.5t-91 -24.5q-48 0 -79.5 24t-39.5 59q-17 -30 -51.5 -56.5t-89.5 -26.5q-78 0 -125 64.5t-47 181.5z M240 272q0 -88 15.5 -132.5t51.5 -44.5q14 0 23 6v347q-8 2 -16 2q-40 0 -57 -49.5t-17 -128.5zM408 -143q0 -46 -36 -73.5t-89 -27.5q-46 0 -75.5 23.5t-29.5 62.5q0 46 37.5 74t87.5 28q47 0 76 -23.5t29 -63.5z" />
<glyph unicode="&#x1e24;" horiz-adv-x="784" d="M356 0h-324l-2 16l27 10q18 7 22.5 17t4.5 29v537l-56 25l2 16h324l2 -16l-27 -10q-18 -7 -22.5 -16.5t-4.5 -29.5v-224h180v255l-56 25l2 16h324l2 -16l-27 -10q-18 -7 -22.5 -16.5t-4.5 -29.5v-537l56 -25l-2 -16h-324l-2 16l27 10q18 7 22.5 17t4.5 29v237h-180v-268 l56 -25zM506 -143q0 -46 -36 -73.5t-89 -27.5q-46 0 -75.5 23.5t-29.5 62.5q0 46 37.5 74t87.5 28q47 0 76 -23.5t29 -63.5z" />
<glyph unicode="&#x1e25;" horiz-adv-x="610" d="M303 0h-296l-2 14l18 10q17 9 22 18t5 28v551l-45 17l-1 14q32 11 76 21t90 16t82 6l8 -8v-290q17 28 40.5 54t55 42.5t73.5 16.5q65 0 98 -39.5t33 -106.5v-325l45 -25l-2 -14h-239l-14 14v299q0 62 -51 62q-10 0 -21 -3t-18 -7v-326l45 -25zM422 -143q0 -46 -36 -73.5 t-89 -27.5q-46 0 -75.5 23.5t-29.5 62.5q0 46 37.5 74t87.5 28q47 0 76 -23.5t29 -63.5z" />
<glyph unicode="&#x1e44;" horiz-adv-x="656" d="M459 807q0 -46 -36 -73.5t-89 -27.5q-46 0 -75.5 23.5t-29.5 62.5q0 46 37.5 74t87.5 28q47 0 76 -23.5t29 -63.5zM211 0h-199l-2 16l47 15q18 6 22.5 14.5t4.5 26.5v537l-74 25l2 16h220l307 -412v371l-84 25l2 16h199l2 -16l-47 -15q-18 -6 -22.5 -14.5t-4.5 -26.5 v-578h-148l-307 421v-380l84 -25z" />
<glyph unicode="&#x1e45;" d="M422 657q0 -46 -36 -73.5t-89 -27.5q-46 0 -75.5 23.5t-29.5 62.5q0 46 37.5 74t87.5 28q47 0 76 -23.5t29 -63.5zM308 0h-296l-2 14l18 10q17 9 22 18t5 28v366l-45 17l-1 14q32 11 76 21t90 16t82 6l8 -8v-105q17 28 40.5 54t55 42.5t73.5 16.5q65 0 98 -39.5 t33 -106.5v-325l45 -25l-2 -14h-239l-14 14v299q0 62 -51 62q-10 0 -21 -3t-18 -7v-326l45 -25z" />
<glyph unicode="&#x1e5a;" horiz-adv-x="751" d="M328 610h-26v-310h33q47 0 75.5 41.5t28.5 111.5q0 72 -31 114.5t-80 42.5zM495 -143q0 -46 -36 -73.5t-89 -27.5q-46 0 -75.5 23.5t-29.5 62.5q0 46 37.5 74t87.5 28q47 0 76 -23.5t29 -63.5zM356 0h-324l-2 16l27 10q18 7 22.5 17t4.5 29v537l-55 25l2 16h322 q92 0 160.5 -21.5t107 -63.5t38.5 -106q0 -52 -27.5 -87t-76.5 -62l120 -219q12 -22 26 -36.5t27 -23.5l23 -15l-2 -16l-191 -3q-53 -1 -80.5 20t-46.5 67l-73 176h-56v-219l56 -25z" />
<glyph unicode="&#x1e5b;" horiz-adv-x="455" d="M328 0h-316l-2 14l18 10q17 9 22 18t5 28v366l-45 17l-1 14q32 11 76 21t90 16t82 6l8 -8v-165q13 46 30.5 85.5t41.5 63.5t55 24q32 0 47.5 -24t15.5 -68q0 -34 -9.5 -68t-20.5 -52l-10 -3q-29 6 -72 9q-20 2 -40.5 2.5t-37.5 0.5v-268l65 -25zM277 -143 q0 -46 -36 -73.5t-89 -27.5q-46 0 -75.5 23.5t-29.5 62.5q0 46 37.5 74t87.5 28q47 0 76 -23.5t29 -63.5z" />
<glyph unicode="&#x1e62;" horiz-adv-x="578" d="M554 186q0 -71 -40 -114t-109.5 -62.5t-157.5 -19.5q-74 0 -123 6.5t-73 18.5q-12 6 -19.5 17.5t-7.5 30.5q0 32 9.5 64t23.5 59t27 42l10 -2l103 -194q6 -1 13 -1.5t13 -0.5q46 0 74 24.5t28 64.5q0 34 -21.5 58.5t-56 45t-73 41.5t-73 48t-56 63.5t-21.5 88.5 q0 64 40.5 107.5t107 66t145.5 22.5q90 0 135.5 -12.5t63.5 -23.5q11 -7 16.5 -15.5t5.5 -23.5q0 -25 -12 -57t-28 -60t-30 -41l-10 2l-89 189q-15 2 -26 2q-42 0 -72 -21.5t-30 -61.5q0 -35 22.5 -62t58.5 -50t75.5 -45.5t75.5 -49.5t58.5 -62t22.5 -82zM385 -143 q0 -46 -36 -73.5t-89 -27.5q-46 0 -75.5 23.5t-29.5 62.5q0 46 37.5 74t87.5 28q47 0 76 -23.5t29 -63.5z" />
<glyph unicode="&#x1e63;" horiz-adv-x="490" d="M213 -10q-63 0 -104.5 7.5t-61.5 17.5q-10 6 -18.5 18.5t-8.5 34.5q0 42 22.5 76t47.5 44l12 -6q10 -31 21.5 -58.5t24.5 -48.5q14 -21 30.5 -33t36.5 -12q22 0 34 13t12 34q0 25 -16.5 44t-42 35.5t-55 34t-55 39t-42 51.5t-16.5 71q0 51 32.5 86.5t88.5 53.5t124 18 q77 0 114.5 -13.5t53.5 -27.5q9 -7 15.5 -16t6.5 -23q0 -25 -12.5 -48t-30.5 -40t-37 -25l-12 6q-22 80 -45 114q-23 33 -56 33q-20 0 -32.5 -12.5t-12.5 -30.5q0 -25 17.5 -45.5t44.5 -38.5t57.5 -36.5t57.5 -40t44.5 -49.5t17.5 -65q0 -57 -33.5 -93t-91.5 -52.5 t-132 -16.5zM341 -143q0 -46 -36 -73.5t-89 -27.5q-46 0 -75.5 23.5t-29.5 62.5q0 46 37.5 74t87.5 28q47 0 76 -23.5t29 -63.5z" />
<glyph unicode="&#x1e6c;" horiz-adv-x="634" d="M47 396h-10q-12 32 -18.5 75t-6.5 89q0 23 1.5 45.5t5.5 44.5h596q4 -22 5.5 -44.5t1.5 -45.5q0 -46 -6.5 -89t-18.5 -75h-10l-115 214h-46v-569l56 -25l-2 -16h-324l-2 16l27 10q18 7 22.5 17t4.5 29v538h-46zM432 -143q0 -46 -36 -73.5t-89 -27.5q-46 0 -75.5 23.5 t-29.5 62.5q0 46 37.5 74t87.5 28q47 0 76 -23.5t29 -63.5z" />
<glyph unicode="&#x1e6d;" horiz-adv-x="394" d="M364 470v-35h-110v-218q0 -39 17.5 -58t46.5 -19q20 0 37.5 8.5t30.5 19.5l8 -8q-11 -40 -35 -79.5t-63.5 -65t-98.5 -25.5q-73 0 -113 44.5t-40 135.5v265h-58l-2 14l52 34l210 137l8 -2v-148h110zM314 -143q0 -46 -36 -73.5t-89 -27.5q-46 0 -75.5 23.5t-29.5 62.5 q0 46 37.5 74t87.5 28q47 0 76 -23.5t29 -63.5z" />
<glyph unicode="&#x1e80;" horiz-adv-x="1047" d="M684 713l-9 -11q-120 14 -184 46.5t-64 78.5q0 38 30.5 54.5t75.5 16.5q13 0 23 -0.5t17 -1.5q18 -35 49 -86t62 -97zM392 0h-115l-203 572q-7 19 -17.5 30.5t-27.5 18.5l-29 13l2 16h353l2 -16l-63 -25l125 -406l80 288l-26 81q-6 19 -17 30.5t-28 18.5l-29 13l2 16h353 l2 -16l-65 -25l108 -409l112 407l-71 27l2 16h203l2 -16q-29 -12 -47 -30q-18 -17 -32.5 -46t-31.5 -78l-165 -480h-115l-131 408z" />
<glyph unicode="&#x1e81;" horiz-adv-x="824" d="M571 562l-9 -11q-120 14 -184 46.5t-64 78.5q0 38 30.5 54.5t75.5 16.5q13 0 23 -0.5t17 -1.5q18 -35 49 -86t62 -97zM434 500h120l83 -366l92 329l-47 23l2 14h138l2 -14q-20 -15 -33 -30q-7 -10 -13 -23t-12 -31l-136 -402h-154l-66 194l-66 -194h-154l-137 402 q-10 32 -21 50t-28 31l-4 3l2 14h312l2 -14l-47 -27l82 -325z" />
<glyph unicode="&#x1e82;" horiz-adv-x="1047" d="M691 832q0 -46 -64 -78.5t-184 -46.5l-9 11q32 46 62.5 97t48.5 86q8 1 17.5 1.5t22.5 0.5q45 0 75.5 -16.5t30.5 -54.5zM392 0h-115l-203 572q-7 19 -17.5 30.5t-27.5 18.5l-29 13l2 16h353l2 -16l-63 -25l125 -406l80 288l-26 81q-6 19 -17 30.5t-28 18.5l-29 13l2 16 h353l2 -16l-65 -25l108 -409l112 407l-71 27l2 16h203l2 -16q-29 -12 -47 -30q-18 -17 -32.5 -46t-31.5 -78l-165 -480h-115l-131 408z" />
<glyph unicode="&#x1e83;" horiz-adv-x="824" d="M588 676q0 -46 -64 -78.5t-184 -46.5l-9 11q32 46 62.5 97t48.5 86q8 1 17.5 1.5t22.5 0.5q45 0 75.5 -16.5t30.5 -54.5zM434 500h120l83 -366l92 329l-47 23l2 14h138l2 -14q-20 -15 -33 -30q-7 -10 -13 -23t-12 -31l-136 -402h-154l-66 194l-66 -194h-154l-137 402 q-10 32 -21 50t-28 31l-4 3l2 14h312l2 -14l-47 -27l82 -325z" />
<glyph unicode="&#x1e84;" horiz-adv-x="1047" d="M523 807q0 -43 -31 -68t-77 -25q-39 0 -63.5 21.5t-24.5 56.5q0 42 32.5 68t75.5 26q40 0 64 -21.5t24 -57.5zM779 807q0 -43 -31 -68t-77 -25q-39 0 -63.5 21.5t-24.5 56.5q0 42 32.5 68t75.5 26q40 0 64 -21.5t24 -57.5zM392 0h-115l-203 572q-7 19 -17.5 30.5 t-27.5 18.5l-29 13l2 16h353l2 -16l-63 -25l125 -406l80 288l-26 81q-6 19 -17 30.5t-28 18.5l-29 13l2 16h353l2 -16l-65 -25l108 -409l112 407l-71 27l2 16h203l2 -16q-29 -12 -47 -30q-18 -17 -32.5 -46t-31.5 -78l-165 -480h-115l-131 408z" />
<glyph unicode="&#x1e85;" horiz-adv-x="824" d="M409 657q0 -43 -31 -68t-77 -25q-39 0 -63.5 21.5t-24.5 56.5q0 42 32.5 68t75.5 26q40 0 64 -21.5t24 -57.5zM665 657q0 -43 -31 -68t-77 -25q-39 0 -63.5 21.5t-24.5 56.5q0 42 32.5 68t75.5 26q40 0 64 -21.5t24 -57.5zM434 500h120l83 -366l92 329l-47 23l2 14h138 l2 -14q-20 -15 -33 -30q-7 -10 -13 -23t-12 -31l-136 -402h-154l-66 194l-66 -194h-154l-137 402q-10 32 -21 50t-28 31l-4 3l2 14h312l2 -14l-47 -27l82 -325z" />
<glyph unicode="&#x1e92;" horiz-adv-x="617" d="M581 101q0 -25 -1.5 -51t-5.5 -50h-522l-16 90l315 520h-145l-131 -214h-10q-12 31 -18.5 73t-6.5 86q0 24 1.5 47.5t5.5 47.5h515l16 -90l-309 -520h147l130 214h10q12 -28 18.5 -68.5t6.5 -84.5zM422 -143q0 -46 -36 -73.5t-89 -27.5q-46 0 -75.5 23.5t-29.5 62.5 q0 46 37.5 74t87.5 28q47 0 76 -23.5t29 -63.5z" />
<glyph unicode="&#x1e93;" horiz-adv-x="500" d="M478 81q0 -20 -1.5 -40.5t-5.5 -40.5h-437l-14 80l251 390h-91l-123 -184h-10q-12 27 -18.5 63.5t-6.5 75.5q0 19 1.5 37.5t5.5 37.5h437l14 -80l-246 -390h87l122 184h10q12 -24 18.5 -59.5t6.5 -73.5zM366 -143q0 -46 -36 -73.5t-89 -27.5q-46 0 -75.5 23.5t-29.5 62.5 q0 46 37.5 74t87.5 28q47 0 76 -23.5t29 -63.5z" />
<glyph unicode="&#x1e9e;" horiz-adv-x="799" d="M416 660q52 0 100 -10.5t86 -27t60 -36.5l1 -16l-137 -124q79 -28 138.5 -66t93 -87t33.5 -109q0 -62 -33.5 -105.5t-92 -66t-133.5 -22.5q-38 0 -74 2.5t-62 9t-34 17.5q-7 11 -13 29t-6 41q0 73 40 116l15 -2q15 -77 47 -125q33 -48 70 -48q21 0 33.5 16.5t12.5 48.5 q0 74 -47 133.5t-140 91.5l-3 16l159 172q-13 48 -40.5 80t-77.5 32q-56 0 -85 -48t-29 -122v-434l-16 -16h-256l-2 16l29 10q18 6 22.5 16.5t4.5 29.5v328q0 74 44 133t120.5 93t171.5 34z" />
<glyph unicode="&#x1ea0;" horiz-adv-x="698" d="M291 650h115l218 -572q7 -19 18 -30t27 -19l29 -13l-2 -16h-353l-2 16l63 25l-42 122l-210 -2l-44 -119l69 -26l-2 -16h-173l-2 16l31 11q21 8 28.5 21.5t16.5 35.5zM168 203h180l-86 253zM380 -143q0 -46 -36 -73.5t-89 -27.5q-46 0 -75.5 23.5t-29.5 62.5q0 46 37.5 74 t87.5 28q47 0 76 -23.5t29 -63.5z" />
<glyph unicode="&#x1ea1;" horiz-adv-x="565" d="M579 77q-12 -20 -30.5 -40t-47 -33.5t-71.5 -13.5q-49 0 -81 24.5t-41 58.5q-18 -32 -54 -57.5t-95 -25.5q-35 0 -66 15t-49.5 42.5t-18.5 64.5q0 77 76 116t204 43v137q0 62 -33 62q-17 0 -27 -18t-10 -58q0 -13 1.5 -32.5t5.5 -39.5q-28 -10 -52 -15t-46 -5 q-41 0 -67.5 16.5t-26.5 50.5q0 37 33 69t89 52t124 20q104 0 164 -47t60 -153q0 -41 -2.5 -88t-2.5 -74q0 -36 8.5 -50t27.5 -14q13 0 22 3zM245 155q0 -32 12 -46t28 -14q12 0 20 6v140q-29 -4 -44.5 -27t-15.5 -59zM408 -143q0 -46 -36 -73.5t-89 -27.5q-46 0 -75.5 23.5 t-29.5 62.5q0 46 37.5 74t87.5 28q47 0 76 -23.5t29 -63.5z" />
<glyph unicode="&#x1eb8;" horiz-adv-x="595" d="M558 0h-528l-2 16l29 10q18 6 22.5 16.5t4.5 29.5v537l-55 25l2 16h518q4 -19 5.5 -37.5t1.5 -37.5q0 -39 -6.5 -75.5t-18.5 -63.5h-10l-125 174h-94v-265l157 15l-3 -70l-154 15v-265h102l126 181h10q12 -28 18.5 -65.5t6.5 -77.5q0 -19 -1.5 -38.5t-5.5 -39.5z M422 -143q0 -46 -36 -73.5t-89 -27.5q-46 0 -75.5 23.5t-29.5 62.5q0 46 37.5 74t87.5 28q47 0 76 -23.5t29 -63.5z" />
<glyph unicode="&#x1eb9;" horiz-adv-x="535" d="M510 160q-13 -47 -43.5 -85.5t-79.5 -61.5t-117 -23t-125 30.5t-91 87t-34 132.5q0 83 36 143.5t97 93.5t137 33q70 0 121.5 -27t80 -75t28.5 -110q0 -9 -1 -20t-3 -20l-8 -8h-260q15 -59 53 -84.5t91 -25.5q35 0 61.5 8.5t48.5 19.5zM240 324q0 -20 2 -39l67 6 q1 13 1 24.5v23.5q0 62 -4.5 96.5t-26.5 34.5t-30.5 -39t-8.5 -107zM382 -143q0 -46 -36 -73.5t-89 -27.5q-46 0 -75.5 23.5t-29.5 62.5q0 46 37.5 74t87.5 28q47 0 76 -23.5t29 -63.5z" />
<glyph unicode="&#x1ebc;" horiz-adv-x="595" d="M427 831q12 14 24.5 27t24.5 26l10 -3q2 -13 3 -25t1 -24q0 -51 -23 -84t-75 -33q-55 0 -106 18.5t-89 34.5q-12 -13 -24.5 -26t-24.5 -27l-10 3q-6 27 -6 51q0 50 25 82.5t75 32.5q53 0 102.5 -19.5t92.5 -33.5zM558 0h-528l-2 16l29 10q18 6 22.5 16.5t4.5 29.5v537 l-55 25l2 16h518q4 -19 5.5 -37.5t1.5 -37.5q0 -39 -6.5 -75.5t-18.5 -63.5h-10l-125 174h-94v-265l157 15l-3 -70l-154 15v-265h102l126 181h10q12 -28 18.5 -65.5t6.5 -77.5q0 -19 -1.5 -38.5t-5.5 -39.5z" />
<glyph unicode="&#x1ebd;" horiz-adv-x="535" d="M391 681q12 14 24.5 27t24.5 26l10 -3q2 -13 3 -25t1 -24q0 -51 -23 -84t-75 -33q-55 0 -106 18.5t-89 34.5q-12 -13 -24.5 -26t-24.5 -27l-10 3q-6 27 -6 51q0 50 25 82.5t75 32.5q53 0 102.5 -19.5t92.5 -33.5zM510 160q-13 -47 -43.5 -85.5t-79.5 -61.5t-117 -23 t-125 30.5t-91 87t-34 132.5q0 83 36 143.5t97 93.5t137 33q70 0 121.5 -27t80 -75t28.5 -110q0 -9 -1 -20t-3 -20l-8 -8h-260q15 -59 53 -84.5t91 -25.5q35 0 61.5 8.5t48.5 19.5zM240 324q0 -20 2 -39l67 6q1 13 1 24.5v23.5q0 62 -4.5 96.5t-26.5 34.5t-30.5 -39 t-8.5 -107z" />
<glyph unicode="&#x1eca;" horiz-adv-x="386" d="M356 0h-324l-2 16l27 10q18 7 22.5 17t4.5 29v537l-56 25l2 16h324l2 -16l-27 -10q-18 -7 -22.5 -16.5t-4.5 -29.5v-537l56 -25zM309 -143q0 -46 -36 -73.5t-89 -27.5q-46 0 -75.5 23.5t-29.5 62.5q0 46 37.5 74t87.5 28q47 0 76 -23.5t29 -63.5z" />
<glyph unicode="&#x1ecb;" horiz-adv-x="315" d="M274 657q0 -46 -36 -73.5t-89 -27.5q-46 0 -75.5 23.5t-29.5 62.5q0 46 37.5 74t87.5 28q47 0 76 -23.5t29 -63.5zM308 0h-296l-2 14l18 10q17 9 22 18t5 28v366l-45 17l-1 14q32 11 76 21t90 16t82 6l8 -8v-463l45 -25zM275 -143q0 -46 -36 -73.5t-89 -27.5 q-46 0 -75.5 23.5t-29.5 62.5q0 46 37.5 74t87.5 28q47 0 76 -23.5t29 -63.5z" />
<glyph unicode="&#x1ecc;" horiz-adv-x="710" d="M672 330q0 -108 -43 -184t-116.5 -116t-166.5 -40q-94 0 -167.5 39.5t-115 114.5t-41.5 181q0 108 45 182.5t119 113.5t162 39q93 0 166.5 -37.5t115.5 -111t42 -181.5zM257 325q-1 -157 20.5 -226t71.5 -69t68.5 72t19.5 228q1 155 -18 222.5t-71 67.5t-71 -68.5 t-20 -226.5zM462 -143q0 -46 -36 -73.5t-89 -27.5q-46 0 -75.5 23.5t-29.5 62.5q0 46 37.5 74t87.5 28q47 0 76 -23.5t29 -63.5z" />
<glyph unicode="&#x1ecd;" horiz-adv-x="570" d="M550 263q0 -84 -35.5 -145.5t-96.5 -94.5t-139 -33q-74 0 -133 30t-92.5 85.5t-33.5 131.5q0 85 35 146t96.5 94t139.5 33q75 0 133.5 -30t92 -85t33.5 -132zM240 262q0 -86 3.5 -137t13 -73t28.5 -22t28.5 19t13 64.5t3.5 124.5q0 89 -3.5 139.5t-13 71.5t-28.5 21 q-18 0 -28 -19t-13.5 -64.5t-3.5 -124.5zM400 -143q0 -46 -36 -73.5t-89 -27.5q-46 0 -75.5 23.5t-29.5 62.5q0 46 37.5 74t87.5 28q47 0 76 -23.5t29 -63.5z" />
<glyph unicode="&#x1ee4;" horiz-adv-x="681" d="M607 226q0 -116 -62.5 -176t-191.5 -60q-77 0 -138 27t-96 80t-35 132v380l-56 25l2 16h324l2 -16l-27 -10q-18 -7 -22.5 -16.5t-4.5 -29.5v-340q0 -91 31 -138t98 -47q59 0 95 44t36 129v384l-74 24l2 16h189l2 -16l-74 -24v-384zM462 -143q0 -46 -36 -73.5t-89 -27.5 q-46 0 -75.5 23.5t-29.5 62.5q0 46 37.5 74t87.5 28q47 0 76 -23.5t29 -63.5z" />
<glyph unicode="&#x1ee5;" d="M626 73q-19 -29 -55.5 -56t-95.5 -27q-57 0 -91 32t-34 75v6q-20 -44 -57.5 -78.5t-100.5 -34.5q-67 0 -104.5 41t-37.5 109v296l-45 17l-1 14q32 11 76 21t90 16t82 6l8 -8v-315q0 -31 11.5 -46.5t40.5 -15.5q21 0 38 10v301l-45 17l-1 14q32 11 76 21t90 16t82 6l8 -8 v-354q0 -36 8.5 -50t27.5 -14q13 0 22 3zM436 -143q0 -46 -36 -73.5t-89 -27.5q-46 0 -75.5 23.5t-29.5 62.5q0 46 37.5 74t87.5 28q47 0 76 -23.5t29 -63.5z" />
<glyph unicode="&#x1ef2;" horiz-adv-x="688" d="M497 713l-9 -11q-120 14 -184 46.5t-64 78.5q0 38 30.5 54.5t75.5 16.5q13 0 23 -0.5t17 -1.5q18 -35 49 -86t62 -97zM507 0h-324l-2 16l27 10q18 7 22.5 17t4.5 29v192l-161 308q-10 19 -19 30.5t-26 18.5l-29 13l2 16h353l2 -16l-61 -24l129 -314l128 312l-59 26l2 16 h190l2 -16q-12 -7 -24 -18q-21 -18 -41.5 -46t-43.5 -70l-126 -236v-223l56 -25z" />
<glyph unicode="&#x1ef3;" horiz-adv-x="538" d="M405 562l-9 -11q-120 14 -184 46.5t-64 78.5q0 38 30.5 54.5t75.5 16.5q13 0 23 -0.5t17 -1.5q18 -35 49 -86t62 -97zM150 -195q-53 0 -84.5 29.5t-31.5 74.5q0 32 13 56q19 -5 48 -10t59 -5q45 0 86 13t64 37h-114l-137 402q-10 32 -21 50t-28 31l-4 3l2 14h312l2 -14 l-47 -27l82 -325l92 329l-47 23l2 14h138l2 -14l-8 -5q-19 -12 -29 -30.5t-21 -48.5l-118 -350q-15 -44 -34.5 -88t-45 -80t-58.5 -57.5t-74 -21.5z" />
<glyph unicode="&#x1ef8;" horiz-adv-x="688" d="M482 831q12 14 24.5 27t24.5 26l10 -3q2 -13 3 -25t1 -24q0 -51 -23 -84t-75 -33q-55 0 -106 18.5t-89 34.5q-12 -13 -24.5 -26t-24.5 -27l-10 3q-6 27 -6 51q0 50 25 82.5t75 32.5q53 0 102.5 -19.5t92.5 -33.5zM507 0h-324l-2 16l27 10q18 7 22.5 17t4.5 29v192 l-161 308q-10 19 -19 30.5t-26 18.5l-29 13l2 16h353l2 -16l-61 -24l129 -314l128 312l-59 26l2 16h190l2 -16q-12 -7 -24 -18q-21 -18 -41.5 -46t-43.5 -70l-126 -236v-223l56 -25z" />
<glyph unicode="&#x1ef9;" horiz-adv-x="538" d="M390 681q12 14 24.5 27t24.5 26l10 -3q2 -13 3 -25t1 -24q0 -51 -23 -84t-75 -33q-55 0 -106 18.5t-89 34.5q-12 -13 -24.5 -26t-24.5 -27l-10 3q-6 27 -6 51q0 50 25 82.5t75 32.5q53 0 102.5 -19.5t92.5 -33.5zM150 -195q-53 0 -84.5 29.5t-31.5 74.5q0 32 13 56 q19 -5 48 -10t59 -5q45 0 86 13t64 37h-114l-137 402q-10 32 -21 50t-28 31l-4 3l2 14h312l2 -14l-47 -27l82 -325l92 329l-47 23l2 14h138l2 -14l-8 -5q-19 -12 -29 -30.5t-21 -48.5l-118 -350q-15 -44 -34.5 -88t-45 -80t-58.5 -57.5t-74 -21.5z" />
<glyph unicode="&#x2013;" horiz-adv-x="544" d="M24 250v45h496v-45h-496z" />
<glyph unicode="&#x2014;" horiz-adv-x="848" d="M24 250v45h800v-45h-800z" />
<glyph unicode="&#x2018;" horiz-adv-x="263" d="M40 464q0 50 26 96.5t65.5 82.5t78.5 52l13 -12q-20 -24 -40.5 -61.5t-28.5 -77.5q29 -6 47.5 -25.5t18.5 -51.5q0 -45 -26.5 -70t-64.5 -25q-40 0 -64.5 26t-24.5 66z" />
<glyph unicode="&#x2019;" horiz-adv-x="263" d="M223 603q0 -49 -26 -96t-65 -83t-79 -52l-13 12q20 24 40.5 61.5t28.5 77.5q-29 6 -47.5 25.5t-18.5 51.5q0 45 27 70t64 25q41 0 65 -26t24 -66z" />
<glyph unicode="&#x201a;" horiz-adv-x="263" d="M223 72q0 -49 -26 -96t-65 -83t-79 -52l-13 12q20 24 40.5 61.5t28.5 77.5q-29 6 -47.5 25.5t-18.5 51.5q0 45 27 70t64 25q41 0 65 -26t24 -66z" />
<glyph unicode="&#x201c;" horiz-adv-x="481" d="M40 464q0 50 26 96.5t65.5 82.5t78.5 52l13 -12q-20 -24 -40.5 -61.5t-28.5 -77.5q29 -6 47.5 -25.5t18.5 -51.5q0 -45 -26.5 -70t-64.5 -25q-40 0 -64.5 26t-24.5 66zM258 464q0 50 26 96.5t65.5 82.5t78.5 52l13 -12q-20 -24 -40.5 -61.5t-28.5 -77.5q29 -6 47.5 -25.5 t18.5 -51.5q0 -45 -26.5 -70t-64.5 -25q-40 0 -64.5 26t-24.5 66z" />
<glyph unicode="&#x201d;" horiz-adv-x="481" d="M441 603q0 -49 -26 -96t-65 -83t-79 -52l-13 12q20 24 40.5 61.5t28.5 77.5q-29 6 -47.5 25.5t-18.5 51.5q0 45 27 70t64 25q41 0 65 -26t24 -66zM223 603q0 -49 -26 -96t-65 -83t-79 -52l-13 12q20 24 40.5 61.5t28.5 77.5q-29 6 -47.5 25.5t-18.5 51.5q0 45 27 70 t64 25q41 0 65 -26t24 -66z" />
<glyph unicode="&#x201e;" horiz-adv-x="481" d="M441 72q0 -49 -26 -96t-65 -83t-79 -52l-13 12q20 24 40.5 61.5t28.5 77.5q-29 6 -47.5 25.5t-18.5 51.5q0 45 27 70t64 25q41 0 65 -26t24 -66zM223 72q0 -49 -26 -96t-65 -83t-79 -52l-13 12q20 24 40.5 61.5t28.5 77.5q-29 6 -47.5 25.5t-18.5 51.5q0 45 27 70t64 25 q41 0 65 -26t24 -66z" />
<glyph unicode="&#x2020;" horiz-adv-x="506" d="M264 -10h-22l-124 124l121 293l-185 -94l-4 3q-5 44 -7.5 102t-2.5 107l11 6l187 -94l-110 203l3 4q52 5 112.5 7.5t126.5 2.5l8 -8l-110 -209l184 94l4 -3q5 -43 7.5 -99.5t2.5 -109.5l-11 -6l-188 94l121 -293z" />
<glyph unicode="&#x2021;" horiz-adv-x="546" d="M60 295l11 6l193 -104q-16 21 -33.5 46.5t-30 48t-12.5 33.5q0 14 11 34t27.5 43t31.5 43l-184 -96l-4 3q-5 44 -7.5 104t-2.5 115l11 6l194 -104l-127 167l3 4q52 5 122.5 7.5t136.5 2.5l8 -8l-127 -174l191 105l4 -3q5 -43 7.5 -103.5t2.5 -115.5l-11 -6l-188 97 q16 -21 32.5 -43.5t27.5 -43t11 -34.5q0 -11 -12.5 -33t-30.5 -47.5t-33 -47.5l190 104l4 -3q5 -43 7.5 -103.5t2.5 -115.5l-11 -6l-188 97l121 -160l-3 -4q-52 -5 -122.5 -7.5t-136.5 -2.5l-8 8l121 166l-185 -97l-4 3q-5 44 -7.5 104t-2.5 115z" />
<glyph unicode="&#x2022;" horiz-adv-x="460" d="M224 181q-41 0 -73 17.5t-50.5 47t-20.5 64.5q-1 44 21 80t60 58t82 22q56 0 95.5 -35t41.5 -94q2 -44 -18.5 -80.5t-56 -58t-81.5 -21.5z" />
<glyph unicode="&#x2026;" horiz-adv-x="700" d="M568 -10q-38 0 -63 22.5t-25 59.5q0 40 28.5 66t68.5 26q35 0 59 -21.5t24 -56.5q0 -40 -26 -68t-66 -28zM348 -10q-38 0 -63 22.5t-25 59.5q0 40 28.5 66t68.5 26q35 0 59 -21.5t24 -56.5q0 -40 -26 -68t-66 -28zM128 -10q-38 0 -63 22.5t-25 59.5q0 40 28.5 66t68.5 26 q35 0 59 -21.5t24 -56.5q0 -40 -26 -68t-66 -28z" />
<glyph unicode="&#x2030;" horiz-adv-x="1485" d="M668 660h101l-397 -670h-103zM445 475q0 -63 -29 -105.5t-76 -63.5t-101 -21q-53 0 -98.5 21t-73 62.5t-27.5 103.5q0 63 30 104t77 61t98 20q53 0 98.5 -19.5t73.5 -59.5t28 -103zM243 313q21 0 26.5 41.5t5.5 120.5q0 78 -5 116t-27 38t-27 -38.5t-6 -118.5 q-1 -82 6.5 -120.5t26.5 -38.5zM1000 183q0 -64 -29 -106t-76 -63t-101 -21q-53 0 -98.5 21t-73 62.5t-27.5 103.5q0 63 30 104t77 61t98 20q53 0 98.5 -19.5t73.5 -59.5t28 -103zM1445 183q0 -64 -29 -106t-76 -63t-101 -21q-53 0 -98.5 21t-73 62.5t-27.5 103.5 q0 63 30 104t77 61t98 20q53 0 98.5 -19.5t73.5 -59.5t28 -103zM798 21q21 0 26.5 41.5t5.5 120.5q0 78 -5 116t-27 38t-27 -38.5t-6 -118.5q-1 -82 6.5 -120.5t26.5 -38.5zM1243 21q21 0 26.5 41.5t5.5 120.5q0 78 -5 116t-27 38t-27 -38.5t-6 -118.5q-1 -82 6.5 -120.5 t26.5 -38.5z" />
<glyph unicode="&#x2039;" horiz-adv-x="348" d="M285 52l-11 -8q-51 50 -107 96.5t-104 82.5l-3 6v50q62 52 120 100t97 85l11 -8q-18 -53 -39 -106.5t-43 -99.5q22 -42 42 -93t37 -105z" />
<glyph unicode="&#x203a;" horiz-adv-x="348" d="M288 229q-62 -52 -120 -100t-97 -85l-11 8q18 53 39 106.5t43 99.5q-22 42 -42 93t-37 105l11 8q51 -49 107 -96t104 -83l3 -6v-50z" />
<glyph unicode="&#x2044;" horiz-adv-x="260" d="M279 660h101l-397 -670h-103z" />
<glyph unicode="&#x2070;" horiz-adv-x="469" d="M437 555q0 -64 -29 -106t-76 -63t-101 -21q-53 0 -98.5 21t-73 62.5t-27.5 103.5q0 63 30 104t77 61t98 20q53 0 98.5 -19.5t73.5 -59.5t28 -103zM235 393q21 0 26.5 41.5t5.5 120.5q0 78 -5 116t-27 38t-27 -38.5t-6 -118.5q-1 -82 6.5 -120.5t26.5 -38.5z" />
<glyph unicode="&#x2071;" horiz-adv-x="245" d="M116 760q-37 0 -61 17.5t-24 45.5q0 33 30.5 54t70.5 21q38 0 61.5 -17.5t23.5 -46.5q0 -34 -29 -54t-72 -20zM239 372h-228l-1 10l13 7q13 7 17 13t4 20v263l-35 12v10q24 8 58 14.5t69.5 11t63.5 4.5l6 -6v-331l34 -18z" />
<glyph unicode="&#x2074;" horiz-adv-x="417" d="M32 500l210 237l91 -7v-230h52l-5 -50h-47v-78h-158v78h-137zM75 500h100v121z" />
<glyph unicode="&#x2075;" horiz-adv-x="390" d="M358 463q0 -33 -24.5 -55t-66 -32.5t-92.5 -10.5q-61 0 -102 15t-41 42q0 22 29 36t69 13h4q0 -34 6.5 -56t22.5 -22q14 0 20 14t6 34q0 52 -35.5 76t-87.5 25l-8 7l6 181h275q1 -33 -4 -67t-13 -65h-10q-4 22 -13.5 29.5t-34.5 7.5h-146l-3 -70q21 2 49 2 q89 0 141.5 -28.5t52.5 -75.5z" />
<glyph unicode="&#x2076;" horiz-adv-x="454" d="M422 490q0 -55 -51 -90t-144 -35q-85 0 -140 40t-55 116q0 62 38.5 111t113 77t182.5 28l2 -8q-68 -22 -105.5 -60t-51.5 -91q37 18 82 18q56 0 92.5 -26t36.5 -80zM202 499q0 -106 32 -106q17 0 22.5 20.5t5.5 48.5q0 92 -41 92q-9 0 -15 -2q-4 -24 -4 -53z" />
<glyph unicode="&#x2077;" horiz-adv-x="358" d="M249 372h-158q0 59 26 107t70 86.5t98 69.5h-205q-14 0 -22 -8t-16 -28h-10q1 17 4 41.5t8 48.5t11 41h262l9 -92q-42 -36 -62 -105.5t-15 -160.5z" />
<glyph unicode="&#x2078;" horiz-adv-x="430" d="M398 471q0 -44 -49 -75t-140 -31q-46 0 -86.5 10t-65.5 29.5t-25 47.5q0 29 27.5 49t75.5 29q-33 19 -59.5 42.5t-26.5 62.5q0 43 48 72.5t130 29.5q69 0 111 -22.5t42 -58.5q0 -32 -27.5 -47.5t-57.5 -22.5q25 -14 48.5 -29t39 -35.5t15.5 -50.5zM207 678 q0 -23 13 -39.5t33 -29.5q9 26 9 58q0 42 -29 42q-12 0 -19 -9t-7 -22zM181 444q0 -51 29 -51q11 0 18 9t7 23q0 24 -13.5 41.5t-33.5 31.5q-3 -12 -5 -25.5t-2 -28.5z" />
<glyph unicode="&#x2079;" horiz-adv-x="454" d="M32 612q0 56 51 90.5t144 34.5q86 0 140.5 -40t54.5 -116q0 -62 -38.5 -111t-113 -77t-182.5 -28l-2 8q68 22 105.5 60t51.5 91q-37 -18 -82 -18q-56 0 -92.5 26t-36.5 80zM192 640q0 -92 41 -92q9 0 15 2q4 24 4 53q0 106 -32 106q-17 0 -22.5 -20.5t-5.5 -48.5z" />
<glyph unicode="&#x207f;" horiz-adv-x="475" d="M239 372h-228l-2 10l14 7q13 7 17 13t4 20v263l-35 12v10q24 8 58 14.5t69.5 11t63.5 4.5l6 -6v-74q19 30 50.5 55t78.5 25q50 0 75.5 -28.5t25.5 -76.5v-232l34 -18l-1 -10h-185l-10 10v215q0 45 -39 45q-8 0 -16 -2.5t-13 -5.5v-234l34 -18z" />
<glyph unicode="&#x2080;" horiz-adv-x="469" d="M437 83q0 -63 -29 -105.5t-76 -63.5t-101 -21q-53 0 -98.5 21t-73 62.5t-27.5 103.5q0 63 30 104t77 61t98 20q53 0 98.5 -19.5t73.5 -59.5t28 -103zM235 -79q21 0 26.5 41.5t5.5 120.5q0 78 -5 116t-27 38t-27 -38.5t-6 -118.5q-1 -82 6.5 -120.5t26.5 -38.5z" />
<glyph unicode="&#x2081;" horiz-adv-x="301" d="M268 -100h-234l-2 10l24 8q12 4 15 8.5t3 15.5v265l-40 3l-1 10l194 45l5 -5v-336l37 -14z" />
<glyph unicode="&#x2082;" horiz-adv-x="377" d="M51 -100l-9 76q60 26 94 64t34 78q0 26 -15 41.5t-43 15.5q-47 0 -71 -45l-9 2q14 62 63 97.5t112 35.5q62 0 97.5 -30t35.5 -77q0 -39 -31 -68t-80 -52t-103 -43h149q27 0 40 10.5t20 27.5l10 -1q0 -16 -2.5 -40.5t-6.5 -49t-10 -42.5h-275z" />
<glyph unicode="&#x2083;" horiz-adv-x="394" d="M362 -9q0 -31 -26 -53t-67 -33.5t-88 -11.5q-35 0 -69.5 5.5t-57 18.5t-22.5 33q0 22 29 35t69 14h5q0 -34 6.5 -56t25.5 -22q25 0 25 55q0 37 -18.5 56.5t-47.5 19.5q-5 0 -9 -0.5t-9 -1.5l-6 17q38 5 59 21t21 41q0 20 -13.5 31.5t-35.5 11.5q-19 0 -38 -11t-32 -32 l-8 3q12 62 60.5 97.5t110.5 35.5q56 0 91 -24.5t35 -65.5q0 -33 -22.5 -52.5t-55 -29.5t-61.5 -13q63 -3 106 -25.5t43 -63.5z" />
<glyph unicode="&#x2084;" horiz-adv-x="417" d="M32 28l210 237l91 -7v-230h52l-5 -50h-47v-78h-158v78h-137zM75 28h100v121z" />
<glyph unicode="&#x2085;" horiz-adv-x="390" d="M358 -9q0 -33 -24.5 -54.5t-66 -32.5t-92.5 -11q-61 0 -102 15t-41 42q0 22 29 36t69 13h4q0 -34 6.5 -56t22.5 -22q14 0 20 14t6 34q0 52 -35.5 76t-87.5 25l-8 7l6 181h275q1 -33 -4 -67t-13 -65h-10q-4 22 -13.5 29.5t-34.5 7.5h-146l-3 -70q21 2 49 2 q89 0 141.5 -28.5t52.5 -75.5z" />
<glyph unicode="&#x2086;" horiz-adv-x="454" d="M422 18q0 -55 -51 -90t-144 -35q-85 0 -140 40t-55 116q0 62 38.5 111t113 77t182.5 28l2 -8q-68 -22 -105.5 -60t-51.5 -91q37 18 82 18q56 0 92.5 -26t36.5 -80zM202 27q0 -106 32 -106q17 0 22.5 20.5t5.5 48.5q0 92 -41 92q-9 0 -15 -2q-4 -24 -4 -53z" />
<glyph unicode="&#x2087;" horiz-adv-x="358" d="M249 -100h-158q0 59 26 107t70 86.5t98 69.5h-205q-14 0 -22 -8t-16 -28h-10q1 17 4 41.5t8 48.5t11 41h262l9 -92q-42 -36 -62 -105.5t-15 -160.5z" />
<glyph unicode="&#x2088;" horiz-adv-x="430" d="M398 -1q0 -44 -49 -75t-140 -31q-46 0 -86.5 10t-65.5 29.5t-25 47.5q0 29 27.5 49t75.5 29q-33 19 -59.5 42.5t-26.5 62.5q0 43 48 72.5t130 29.5q69 0 111 -22.5t42 -58.5q0 -32 -27.5 -47.5t-57.5 -22.5q25 -14 48.5 -29t39 -35.5t15.5 -50.5zM207 206q0 -23 13 -39.5 t33 -29.5q9 26 9 58q0 42 -29 42q-12 0 -19 -9t-7 -22zM181 -28q0 -51 29 -51q11 0 18 9t7 23q0 24 -13.5 41.5t-33.5 31.5q-3 -12 -5 -25.5t-2 -28.5z" />
<glyph unicode="&#x2089;" horiz-adv-x="454" d="M32 140q0 56 51 90.5t144 34.5q86 0 140.5 -40t54.5 -116q0 -62 -38.5 -111t-113 -77t-182.5 -28l-2 8q68 22 105.5 60t51.5 91q-37 -18 -82 -18q-56 0 -92.5 26t-36.5 80zM192 168q0 -92 41 -92q9 0 15 2q4 24 4 53q0 106 -32 106q-17 0 -22.5 -20.5t-5.5 -48.5z" />
<glyph unicode="&#x2090;" horiz-adv-x="437" d="M451 -46q-15 -21 -40 -41t-75 -20q-38 0 -63 17t-32 42q-14 -23 -41 -41t-72 -18q-41 0 -72 23.5t-31 63.5q0 56 58 83.5t156 30.5v97q0 46 -24 46q-28 0 -28 -55q0 -21 5 -51q-21 -7 -39.5 -10.5t-35.5 -3.5q-32 0 -52.5 11.5t-20.5 35.5q0 26 25.5 49t68.5 37.5 t95 14.5q80 0 126.5 -33.5t46.5 -108.5q0 -29 -2 -64t-2 -54q0 -25 6 -35.5t21 -10.5q5 0 9 0.5t8 1.5zM195 10q0 -23 9 -33t21 -10q8 0 14 4v101q-44 -7 -44 -62z" />
<glyph unicode="&#x2091;" horiz-adv-x="419" d="M397 13q-15 -49 -60.5 -84.5t-124.5 -35.5q-52 0 -96 22t-70 62t-26 95q0 60 27.5 103t75 66.5t105.5 23.5q80 0 128 -42.5t48 -108.5q0 -7 -0.5 -15t-2.5 -14l-6 -6h-199q11 -43 40.5 -62t69.5 -19q27 0 47.5 6.5t37.5 14.5zM190 131q0 -14 1 -27l50 4q1 9 1 17.5v16.5 q0 44 -3 69.5t-20 25.5q-16 0 -22.5 -28t-6.5 -78z" />
<glyph unicode="&#x2092;" horiz-adv-x="447" d="M427 88q0 -60 -27 -104t-74 -67.5t-107 -23.5q-57 0 -102 21.5t-71 61t-26 94.5q0 61 27 104.5t74 67t107 23.5q58 0 102.5 -21.5t70.5 -61t26 -94.5zM190 87q0 -92 6 -129t28 -37q21 0 27 32.5t6 117.5q0 95 -6 130.5t-27 35.5t-27.5 -32.5t-6.5 -117.5z" />
<glyph unicode="&#x2093;" horiz-adv-x="437" d="M41 203q-10 14 -20 26t-21 19l2 10h236l2 -10l-34 -13l66 -97l35 98l-32 12l1 10h160l1 -10q-2 -2 -6 -6.5t-11 -10.5t-16 -14.5t-20 -19.5q-17 -16 -39.5 -38.5l-51.5 -51.5l102 -152q10 -13 20 -24.5t22 -20.5l-1 -10h-237l-2 10l34 13l-65 96l-35 -97l32 -12l-2 -10 h-159l-2 10q2 2 6.5 6t10.5 11q7 6 16 14.5t20 19.5q17 16 39.5 38.5l51.5 51.5z" />
<glyph unicode="&#x2095;" horiz-adv-x="470" d="M235 -90l-1 -10h-228l-1 10l13 7q13 7 17 13t4 20v395l-34 12l-1 10q24 8 58.5 14.5t70 11t62.5 4.5l6 -5v-207q20 30 51 55t79 25t74 -28.5t26 -76.5v-232l34 -18l-1 -10h-185l-10 10v215q0 45 -39 45q-16 0 -29 -8v-234z" />
<glyph unicode="&#x2096;" horiz-adv-x="482" d="M234 -100h-228l-1 10l13 7q13 7 17 13t4 20v395l-34 12l-1 10q24 8 58.5 14.5t70 11t62.5 4.5l6 -5v-293h28l74 137l-35 12l2 10h199l1 -10l-35 -16q-44 -21 -91 -59l97 -209q10 -19 19 -30.5t22 -22.5l-2 -11h-143q-25 0 -37 12.5t-23 37.5l-50 122h-26v-144l34 -18z " />
<glyph unicode="&#x2097;" horiz-adv-x="240" d="M234 -100h-228l-1 10l13 7q13 7 17 13t4 20v395l-34 12l-1 10q24 8 58.5 14.5t70 11t62.5 4.5l6 -5v-464l34 -18z" />
<glyph unicode="&#x2098;" horiz-adv-x="695" d="M239 -100h-228l-2 10l14 7q13 7 17 13t4 20v263l-35 12v10q24 8 58 14.5t69.5 11t63.5 4.5l6 -6v-68q19 29 49 51.5t76 22.5q44 0 68.5 -22t29.5 -59q18 32 50.5 56.5t81.5 24.5q47 0 71 -28.5t24 -75.5v-233l34 -18l-1 -10h-185l-10 10v215q0 23 -8 34t-29 11 q-13 0 -26 -8v-2v-232l34 -18l-1 -10h-185l-10 10v215q0 45 -39 45q-12 0 -24 -6v-236l34 -18z" />
<glyph unicode="&#x2099;" horiz-adv-x="475" d="M239 -100h-228l-2 10l14 7q13 7 17 13t4 20v263l-35 12v10q24 8 58 14.5t69.5 11t63.5 4.5l6 -6v-74q19 30 50.5 55t78.5 25q50 0 75.5 -28.5t25.5 -76.5v-232l34 -18l-1 -10h-185l-10 10v215q0 45 -39 45q-8 0 -16 -2.5t-13 -5.5v-234l34 -18z" />
<glyph unicode="&#x209a;" horiz-adv-x="459" d="M249 -232h-243l-1 10l13 7q13 6 17 12.5t4 19.5v401l-34 12l-1 10q24 8 58.5 15t70 11.5t62.5 4.5l6 -6v-65q17 25 45.5 45t67.5 20q59 0 92 -45.5t33 -133.5q0 -71 -26 -113.5t-67.5 -61t-90.5 -18.5q-26 0 -54 4v-102l50 -17zM222 177q-13 0 -21 -6v-232q12 -4 25 -4 q26 0 34.5 37.5t8.5 95.5t-10.5 83.5t-36.5 25.5z" />
<glyph unicode="&#x209b;" horiz-adv-x="386" d="M168 -107q-48 0 -79.5 5.5t-47.5 12.5q-8 4 -14.5 13t-6.5 25q0 29 17.5 53.5t36.5 31.5l9 -4q8 -22 17 -42t19 -35q11 -15 23 -23.5t28 -8.5q17 0 26 9.5t9 25.5q0 22 -17.5 37t-43.5 29t-52 30.5t-43.5 40.5t-17.5 59q0 37 25 62t68 38t95 13q59 0 88 -9.5t41 -19.5 q8 -5 12.5 -11.5t4.5 -16.5q0 -27 -20 -50t-41 -31l-10 5q-9 29 -17 48.5t-18 32.5q-18 24 -42 24q-15 0 -24.5 -9t-9.5 -23q0 -22 18.5 -38.5t46 -32t54.5 -32.5t45.5 -39.5t18.5 -54.5q0 -41 -25.5 -66.5t-70.5 -37t-102 -11.5z" />
<glyph unicode="&#x209c;" horiz-adv-x="298" d="M275 237v-25h-83v-158q0 -28 13 -42t35 -14q16 0 29 6.5t23 14.5l6 -6q-8 -28 -26.5 -56t-49 -46t-75.5 -18q-56 0 -87 32t-31 96v191h-44l-1 10l39 24l162 98l7 -1v-106h83z" />
<glyph unicode="&#x20ac;" horiz-adv-x="694" d="M506 255h-146q36 -124 163 -124q37 0 66.5 10.5t53.5 26.5l9 -7q-19 -76 -80 -123.5t-162 -47.5q-121 0 -200 67t-95 198h-73l5 45h64v20q0 13 1 25h-61l5 45h62q15 81 63 142t117 94.5t149 33.5q61 0 106.5 -17.5t70.5 -46.5t25 -64q0 -34 -24.5 -53t-64.5 -19 q-15 0 -28 1.5t-27 2.5q-4 65 -18.5 105.5t-49.5 40.5q-39 0 -63.5 -60.5t-27.5 -159.5h174l-5 -45h-168q1 -24 4 -45h160z" />
<glyph unicode="&#x2122;" horiz-adv-x="814" d="M345 650h171l44 -124l47 124h167v-16l-33 -5v-223l31 -8v-17h-178v17l37 8v201h-5l-82 -221h-38l-85 221h-5v-201l40 -8v-17h-114v17l39 8v223l-36 5v16zM228 406l40 -8v-17h-178v17l38 8v214h-43l-26 -79h-19v109h276v-109h-19l-20 79h-49v-214z" />
<glyph unicode="&#x2212;" horiz-adv-x="599" d="M510 256h-430v132q36 2 93 3t121 1.5t121.5 1t95.5 0.5l8 -8z" />
<glyph unicode="&#x221e;" horiz-adv-x="843" d="M783 326q0 -56 -23.5 -100.5t-65 -70t-96.5 -25.5q-61 0 -103.5 28t-74.5 67q-31 -44 -77 -69.5t-105 -25.5q-52 0 -92.5 25t-63 69t-22.5 100t23.5 100.5t65 70t96.5 25.5q61 0 103 -28t75 -67q31 44 77 69.5t105 25.5q53 0 93 -25t62.5 -68.5t22.5 -100.5zM572 401 q-25 0 -49 -17.5t-39 -39.5q26 -38 51 -65t54 -27q21 0 38 19.5t17 53.5q0 35 -20 55.5t-52 20.5zM199 325q0 -35 20 -55.5t52 -20.5q25 0 49 17.5t39 39.5q-26 38 -51 65t-54 27q-21 0 -38 -19t-17 -54z" />
<glyph unicode="&#x2248;" horiz-adv-x="614" d="M190 388q-7 0 -21 -14t-32 -35l-72 34q15 32 35 68t44.5 61.5t51.5 25.5q21 0 54.5 -6.5t69 -15.5t64.5 -15.5t40 -6.5q8 0 21.5 14t32.5 35l71 -34q-15 -32 -35 -68t-44 -61.5t-52 -25.5q-21 0 -54 6.5t-69 15.5t-64.5 15.5t-40.5 6.5zM190 164q-7 0 -21 -14t-32 -35 l-72 34q15 32 35 68t44.5 61.5t51.5 25.5q21 0 54.5 -6.5t69 -15.5t64.5 -15.5t40 -6.5q8 0 21.5 14t32.5 35l71 -34q-15 -32 -35 -68t-44 -61.5t-52 -25.5q-21 0 -54 6.5t-69 15.5t-64.5 15.5t-40.5 6.5z" />
<glyph unicode="&#x2260;" horiz-adv-x="599" d="M179 23l-69 39l46 87h-76v132q27 1 65.5 2t82.5 2l42 78h-190v132q29 1 72 2t92.5 2t98.5 1l66 125l11 3l69 -39l-47 -88h69l8 -8l-9 -130h-141l-41 -77q53 0 101.5 0.5t81.5 0.5l8 -8l-9 -130h-255l-65 -123z" />
<glyph unicode="&#x2264;" horiz-adv-x="594" d="M510 615v-147l-228 -53l227 -50v-152q-31 8 -74.5 21t-94 28.5t-99.5 31.5t-91.5 31t-70.5 25l-4 11v115zM505 36h-430v132q36 2 93 3t121 1.5t121.5 1t95.5 0.5l8 -8z" />
<glyph unicode="&#x2265;" horiz-adv-x="594" d="M80 213v147l227 53l-226 50v152q30 -8 74 -21t94.5 -28.5t100 -31.5t91.5 -30.5t70 -25.5l4 -11v-115zM510 36h-430v132q36 2 93 3t121 1.5t121.5 1t95.5 0.5l8 -8z" />
<glyph unicode="&#x25fc;" horiz-adv-x="500" d="M0 500h500v-500h-500v500z" />
<glyph unicode="&#x2c7c;" horiz-adv-x="224" d="M110 288q-38 0 -61.5 17.5t-23.5 45.5q0 33 30 54t70 21q38 0 61.5 -17.5t23.5 -46.5q0 -34 -29 -54t-71 -20zM-3 -230q19 38 29.5 87t10.5 124v232l-35 12v10q24 8 58 14.5t69.5 11t63.5 4.5l6 -6v-292q0 -56 -18 -100t-60.5 -71.5t-117.5 -35.5z" />
<glyph unicode="&#xfb01;" horiz-adv-x="641" d="M314 0h-296l-2 14l18 10q17 9 22 18t5 28v365h-63l-2 14l66 25q5 60 37.5 110.5t91.5 80.5t143 30q98 0 152.5 -29t54.5 -66q0 -33 -32.5 -48t-80.5 -15q-11 0 -23 0.5t-24 2.5q0 50 -12.5 82.5t-50.5 32.5q-25 0 -41 -17t-16 -48q0 -24 4 -50.5t6 -69.5h110 q26 11 63.5 20t75.5 14.5t63 5.5l8 -8v-463l45 -25l-2 -14h-296l-2 14l18 10q17 9 22 18t5 28v365h-110v-396l45 -25z" />
<glyph unicode="&#xfb02;" horiz-adv-x="635" d="M308 0h-296l-2 14l18 10q17 9 22 18t5 28v365h-63l-2 14l65 25h1q5 60 36.5 110.5t88.5 80.5t138 30q31 0 61 -6.5t55 -17.5q38 9 75 16.5t67 7.5l8 -8v-648l45 -25l-2 -14h-296l-2 14l18 10q17 9 22 18t5 28v365h-110v-396l45 -25zM255 590q0 -24 4 -50.5t6 -69.5h110 v70q0 50 -12.5 82.5t-50.5 32.5q-25 0 -41 -17t-16 -48z" />
<glyph unicode="&#xfb06;" horiz-adv-x="903" d="M312 444q0 11 1 23q-12 3 -26 3q-28 0 -42 -12.5t-14 -30.5q0 -25 17.5 -45.5t44.5 -38.5t57.5 -36.5t57.5 -40t44.5 -49.5t17.5 -65q0 -57 -33.5 -93t-91.5 -52.5t-132 -16.5q-63 0 -104.5 7t-61.5 18q-10 6 -18.5 18.5t-8.5 34.5q0 42 22.5 76t47.5 44l12 -6 q10 -31 21.5 -58.5t24.5 -48.5q14 -21 30.5 -33t36.5 -12q22 0 34 13t12 34q0 25 -16.5 44t-42 35.5t-55 34t-55 39t-42 51.5t-16.5 71q0 51 32.5 86.5t88.5 53.5t126 18q20 0 38 -2q20 81 88.5 134t176.5 53q87 0 135 -39t48 -106q0 -18 -4.5 -37t-12.5 -33h123v-45h-110 v-218q0 -39 17.5 -58t46.5 -19q20 0 37.5 8.5t30.5 19.5l8 -8q-11 -40 -35 -79.5t-63.5 -65t-98.5 -25.5q-73 0 -113 44.5t-40 135.5v265h-58l-2 14q78 39 78 106q0 35 -17.5 55t-49.5 20q-50 0 -90.5 -36.5t-57.5 -91.5q51 -12 82 -39.5t31 -64.5q0 -27 -18.5 -42.5 t-49.5 -15.5q-38 0 -63.5 30t-25.5 74z" />
<glyph horiz-adv-x="1125" d="M818 0h-296l-2 14l18 10q17 9 22 18t5 28v560q-70 -17 -121 -49t-77 -78q61 -13 99.5 -49.5t38.5 -85.5q0 -43 -25 -68t-67 -25q-49 0 -77 36.5t-28 100.5q0 29 6 56q-6 2 -13 2q-33 0 -47 -40t-14 -99q0 -101 42 -146t111 -45q29 0 56.5 8t52.5 20l8 -8q-12 -44 -40 -83 t-75.5 -63t-117.5 -24q-72 0 -130.5 31t-92.5 88t-34 136q0 77 37 137t101 94t144 34q13 0 26 -1q40 89 150 137.5t269 48.5h20l8 -8v-290q17 28 40.5 54t55 42.5t73.5 16.5q65 0 98 -39.5t33 -106.5v-325l45 -25l-2 -14h-239l-14 14v299q0 62 -51 62q-10 0 -21 -3t-18 -7 v-326l45 -25z" />
<glyph horiz-adv-x="919" d="M510 630q-50 0 -90.5 -34t-61.5 -91q65 -12 106 -49.5t41 -87.5q0 -43 -24.5 -68t-67.5 -25q-49 0 -77 36.5t-28 100.5q0 29 5 56q-6 2 -12 2q-33 0 -47 -40t-14 -99q0 -101 42 -146t111 -45q29 0 56.5 8t52.5 20l8 -8q-12 -44 -40 -83t-75.5 -63t-117.5 -24 q-72 0 -130.5 31t-92.5 88t-34 136q0 77 37 137t101 94t144 34q10 0 21 -1q25 82 94 134t173 52q92 0 142.5 -39t50.5 -106q0 -18 -4.5 -37t-12.5 -33h123v-45h-110v-218q0 -39 17.5 -58t46.5 -19q20 0 37.5 8.5t30.5 19.5l8 -8q-11 -40 -35 -79.5t-63.5 -65t-98.5 -25.5 q-73 0 -113 44.5t-40 135.5v265h-58l-2 14q78 39 78 106q0 35 -20.5 55t-56.5 20z" />
<glyph horiz-adv-x="1093" d="M401 340q-38 0 -63.5 27.5t-25.5 67.5q0 14 2 28q-12 7 -29 7q-28 0 -41 -12.5t-13 -30.5q0 -25 17.5 -45.5t44.5 -38.5t57.5 -36.5t57.5 -40t44.5 -49.5t17.5 -65q0 -57 -33.5 -93t-91.5 -52.5t-132 -16.5q-63 0 -104.5 7t-61.5 18q-10 6 -18.5 18.5t-8.5 34.5 q0 42 22.5 76t47.5 44l12 -6q10 -31 21.5 -58.5t24.5 -48.5q14 -21 30.5 -33t36.5 -12q22 0 34 13t12 34q0 25 -16.5 44t-42 35.5t-55 34t-55 39t-42 51.5t-16.5 71q0 51 32.5 86.5t88.5 53.5t126 18q24 0 45 -3q23 56 78.5 98t135.5 66t175 24h20l8 -8v-290q17 28 40.5 54 t55 42.5t73.5 16.5q65 0 98 -39.5t33 -106.5v-325l45 -25l-2 -14h-239l-14 14v299q0 62 -51 62q-10 0 -21 -3t-18 -7v-326l45 -25l-2 -14h-296l-2 14l18 10q17 9 22 18t5 28v556q-60 -18 -103.5 -49.5t-66.5 -76.5q49 -12 77.5 -39t28.5 -63q0 -27 -18.5 -42.5t-49.5 -15.5z " />
<glyph horiz-adv-x="437" d="M451 426q-15 -21 -40 -41t-75 -20q-38 0 -63 17t-32 42q-14 -23 -41 -41t-72 -18q-41 0 -72 23.5t-31 63.5q0 56 58 83.5t156 30.5v97q0 46 -24 46q-28 0 -28 -55q0 -21 5 -51q-21 -7 -39.5 -10.5t-35.5 -3.5q-32 0 -52.5 11.5t-20.5 35.5q0 26 25.5 49t68.5 37.5 t95 14.5q80 0 126.5 -33.5t46.5 -108.5q0 -29 -2 -64t-2 -54q0 -25 6 -35.5t21 -10.5q5 0 9 0.5t8 1.5zM195 482q0 -23 9 -33t21 -10q8 0 14 4v101q-44 -7 -44 -62z" />
<glyph horiz-adv-x="454" d="M434 558q0 -71 -26 -113.5t-68 -61t-90 -18.5q-29 0 -58 4.5t-55 11.5l-97 -16l-6 5v447l-34 12l-1 10q25 8 59 14.5t69.5 11t62.5 4.5l6 -5v-192q17 25 45.5 45t68.5 20q58 0 91 -46t33 -133zM217 649q-13 0 -21 -6v-231q12 -5 25 -5q26 0 34.5 37.5t8.5 95.5t-10 83.5 t-37 25.5z" />
<glyph horiz-adv-x="402" d="M20 547q0 56 27 98.5t73.5 67t105.5 24.5q56 0 93 -16.5t55.5 -41.5t18.5 -53t-21.5 -42t-52.5 -14q-19 0 -34.5 4.5t-26.5 9.5q0 62 -6 93.5t-27 31.5q-19 0 -27 -30t-8 -78q0 -69 32.5 -100t84.5 -31q23 0 44 6t40 15l6 -6q-9 -31 -31 -58.5t-58.5 -44.5t-90.5 -17 q-55 0 -100 22t-71 63t-26 97z" />
<glyph horiz-adv-x="455" d="M20 541q0 72 27.5 115t73 62t97.5 19q20 0 39 -2v82l-34 12l-1 10q25 8 59 14.5t69.5 11t63.5 4.5l6 -5v-387q0 -25 6 -35.5t19 -10.5q5 0 9 0.5t8 1.5l4 -7q-18 -27 -44.5 -44t-70.5 -17q-37 0 -61 17t-31 42q-13 -22 -39 -40.5t-68 -18.5q-60 0 -96 46t-36 130z M190 566q0 -63 11.5 -95t39.5 -32q16 0 16 4v251q-5 1 -11 1q-31 0 -43.5 -36t-12.5 -93z" />
<glyph horiz-adv-x="419" d="M397 485q-15 -49 -60.5 -84.5t-124.5 -35.5q-52 0 -96 22t-70 62t-26 95q0 60 27.5 103t75 66.5t105.5 23.5q80 0 128 -42.5t48 -108.5q0 -7 -0.5 -15t-2.5 -14l-6 -6h-199q11 -43 40.5 -62t69.5 -19q27 0 47.5 6.5t37.5 14.5zM190 603q0 -14 1 -27l50 4q1 9 1 17.5v16.5 q0 44 -3 69.5t-20 25.5q-16 0 -22.5 -28t-6.5 -78z" />
<glyph horiz-adv-x="278" d="M250 372h-243l-2 10l14 7q13 7 17 13t4 20v261h-49l-1 10l50 18h1q4 43 26.5 79t63.5 57.5t99 21.5q54 0 89.5 -21.5t35.5 -51.5q0 -25 -24 -35.5t-56 -10.5q-7 0 -13.5 0.5t-14.5 1.5q0 41 -7 65t-24 24q-9 0 -15.5 -7.5t-6.5 -22.5q0 -21 3 -44t4 -59h91v-25h-90v-283 l49 -18z" />
<glyph horiz-adv-x="423" d="M415 368q0 -63 -55.5 -99.5t-165.5 -36.5q-48 0 -92.5 6t-73 21t-28.5 40q0 22 27 34t64 12l1 3q-16 8 -30 24.5t-14 41.5q0 30 26.5 53.5t63.5 29.5q-58 10 -90.5 38.5t-32.5 74.5q0 39 26.5 66.5t70.5 42t95 14.5q75 0 121.5 3.5t79.5 11.5q5 -7 9.5 -16t4.5 -23 q0 -35 -42 -35q-13 0 -31 5t-37 11l-1 -2q27 -11 50 -33t23 -54q0 -52 -52 -80t-135 -28q-17 0 -33 1q0 -2 -0.5 -4t-0.5 -4q0 -18 37 -18l82 -2q59 -1 96 -24.5t37 -73.5zM170 607q0 -43 5 -64t25 -21q19 0 24.5 21t5.5 67q0 40 -4.5 62.5t-24.5 22.5q-21 0 -26 -24t-5 -64 zM131 313q0 -52 82 -52q33 0 55.5 11t22.5 30q0 25 -44 25h-60q-34 0 -54 2q-2 -7 -2 -16z" />
<glyph horiz-adv-x="470" d="M235 382l-1 -10h-228l-1 10l13 7q13 7 17 13t4 20v395l-34 12l-1 10q24 8 58.5 14.5t70 11t62.5 4.5l6 -5v-207q20 30 51 55t79 25t74 -28.5t26 -76.5v-232l34 -18l-1 -10h-185l-10 10v215q0 45 -39 45q-16 0 -29 -8v-234z" />
<glyph horiz-adv-x="224" d="M110 760q-38 0 -61.5 17.5t-23.5 45.5q0 33 30 54t70 21q38 0 61.5 -17.5t23.5 -46.5q0 -34 -29 -54t-71 -20zM-3 242q19 38 29.5 87t10.5 124v232l-35 12v10q24 8 58 14.5t69.5 11t63.5 4.5l6 -6v-292q0 -56 -18 -100t-60.5 -71.5t-117.5 -35.5z" />
<glyph horiz-adv-x="482" d="M234 372h-228l-1 10l13 7q13 7 17 13t4 20v395l-34 12l-1 10q24 8 58.5 14.5t70 11t62.5 4.5l6 -5v-293h28l74 137l-35 12l2 10h199l1 -10l-35 -16q-44 -21 -91 -59l97 -209q10 -19 19 -30.5t22 -22.5l-2 -11h-143q-25 0 -37 12.5t-23 37.5l-50 122h-26v-144l34 -18z" />
<glyph horiz-adv-x="240" d="M234 372h-228l-1 10l13 7q13 7 17 13t4 20v395l-34 12l-1 10q24 8 58.5 14.5t70 11t62.5 4.5l6 -5v-464l34 -18z" />
<glyph horiz-adv-x="695" d="M239 372h-228l-2 10l14 7q13 7 17 13t4 20v263l-35 12v10q24 8 58 14.5t69.5 11t63.5 4.5l6 -6v-68q19 29 49 51.5t76 22.5q44 0 68.5 -22t29.5 -59q18 32 50.5 56.5t81.5 24.5q47 0 71 -28.5t24 -75.5v-233l34 -18l-1 -10h-185l-10 10v215q0 23 -8 34t-29 11 q-13 0 -26 -8v-2v-232l34 -18l-1 -10h-185l-10 10v215q0 45 -39 45q-12 0 -24 -6v-236l34 -18z" />
<glyph horiz-adv-x="447" d="M427 560q0 -61 -27 -104.5t-74 -67t-107 -23.5q-57 0 -102 21.5t-71 61t-26 94.5q0 61 27 104.5t74 67t107 23.5q58 0 102.5 -21.5t70.5 -61t26 -94.5zM190 559q0 -92 6 -129t28 -37q21 0 27 32.5t6 117.5q0 95 -6 130.5t-27 35.5t-27.5 -32.5t-6.5 -117.5z" />
<glyph horiz-adv-x="459" d="M249 240h-243l-1 10l13 7q13 6 17 12.5t4 19.5v401l-34 12l-1 10q24 8 58.5 15t70 11.5t62.5 4.5l6 -6v-65q17 25 45.5 45t67.5 20q59 0 92 -45.5t33 -133.5q0 -71 -26 -113.5t-67.5 -61t-90.5 -18.5q-26 0 -54 4v-102l50 -17zM222 649q-13 0 -21 -6v-232q12 -4 25 -4 q26 0 34.5 37.5t8.5 95.5t-10.5 83.5t-36.5 25.5z" />
<glyph horiz-adv-x="454" d="M452 240h-227l-2 10l14 7q13 6 16.5 12.5t3.5 19.5v131q-13 -20 -39 -37.5t-66 -17.5q-60 0 -96 46t-36 130q0 72 27.5 115t73 62t97.5 19q26 0 52.5 -4t48.5 -12l95 16l6 -6v-464l34 -17zM190 566q0 -63 11.5 -95t39.5 -32q16 0 16 4v251q-5 1 -11 1q-31 0 -43.5 -36 t-12.5 -93z" />
<glyph horiz-adv-x="351" d="M254 372h-243l-2 10l14 7q13 7 17 13t4 20v263l-35 12v10q24 8 58 14.5t69.5 11t63.5 4.5l6 -6v-117q14 49 37.5 86t59.5 37q48 0 48 -66q0 -24 -7.5 -47.5t-15.5 -36.5l-7 -2q-12 2 -26 4t-30 3q-15 1 -30.5 1h-28.5v-193l49 -18z" />
<glyph horiz-adv-x="386" d="M168 365q-48 0 -79.5 5.5t-47.5 12.5q-8 4 -14.5 13t-6.5 25q0 29 17.5 53.5t36.5 31.5l9 -4q8 -22 17 -42t19 -35q11 -15 23 -23.5t28 -8.5q17 0 26 9.5t9 25.5q0 22 -17.5 37t-43.5 29t-52 30.5t-43.5 40.5t-17.5 59q0 37 25 62t68 38t95 13q59 0 88 -9.5t41 -19.5 q8 -5 12.5 -11.5t4.5 -16.5q0 -27 -20 -50t-41 -31l-10 5q-9 29 -17 48.5t-18 32.5q-18 24 -42 24q-15 0 -24.5 -9t-9.5 -23q0 -22 18.5 -38.5t46 -32t54.5 -32.5t45.5 -39.5t18.5 -54.5q0 -41 -25.5 -66.5t-70.5 -37t-102 -11.5z" />
<glyph horiz-adv-x="298" d="M275 709v-25h-83v-158q0 -28 13 -42t35 -14q16 0 29 6.5t23 14.5l6 -6q-8 -28 -26.5 -56t-49 -46t-75.5 -18q-56 0 -87 32t-31 96v191h-44l-1 10l39 24l162 98l7 -1v-106h83z" />
<glyph horiz-adv-x="470" d="M481 423q-15 -20 -43 -39t-73 -19q-44 0 -70 22.5t-26 53.5v6q-14 -31 -43 -56.5t-78 -25.5q-51 0 -80 29t-29 78v213l-34 12l-1 10q24 8 58.5 14.5t70 11t62.5 4.5l6 -6v-226q0 -22 9 -33.5t31 -11.5q16 0 28 8v217l-34 12l-1 10q24 8 58 14.5t69.5 11t63.5 4.5l6 -6 v-254q0 -25 6.5 -35.5t21.5 -10.5q8 0 16 2z" />
<glyph horiz-adv-x="412" d="M264 372h-119l-105 288q-7 23 -15.5 35.5t-21.5 22.5l-3 2l2 10h239l2 -10l-36 -19l63 -235l70 237l-36 17l2 10h105l1 -10q-12 -8 -22 -18q-7 -7 -12 -17.5t-10 -24.5z" />
<glyph horiz-adv-x="632" d="M333 730h93l63 -262l71 235l-37 17l2 10h105l2 -10q-15 -10 -25 -21q-11 -15 -19 -39l-105 -288h-119l-50 141l-50 -141h-119l-105 288q-7 23 -15.5 35.5t-21.5 22.5l-3 2l2 10h239l2 -10l-36 -19l62 -235z" />
<glyph horiz-adv-x="437" d="M41 675q-10 14 -20 26t-21 19l2 10h236l2 -10l-34 -13l66 -97l35 98l-32 12l1 10h160l1 -10q-2 -2 -6 -6.5t-11 -10.5t-16 -14.5t-20 -19.5q-17 -16 -39.5 -38.5l-51.5 -51.5l102 -152q10 -13 20 -24.5t22 -20.5l-1 -10h-237l-2 10l34 13l-65 96l-35 -97l32 -12l-2 -10 h-159l-2 10q2 2 6.5 6t10.5 11q7 6 16 14.5t20 19.5q17 16 39.5 38.5l51.5 51.5z" />
<glyph horiz-adv-x="412" d="M115 232q-40 0 -64.5 21t-24.5 53q0 22 10 39q14 -4 37 -7t45 -3q35 0 67 9.5t49 27.5h-89l-105 288q-7 23 -15.5 35.5t-21.5 22.5l-3 2l2 10h239l2 -10l-36 -19l63 -234l70 236l-36 17l2 10h105l1 -10l-5 -4q-15 -8 -23 -21t-16 -35l-90 -252q-15 -42 -37 -82.5 t-52.5 -67t-73.5 -26.5z" />
<glyph horiz-adv-x="394" d="M372 430q0 -15 -1.5 -29.5t-3.5 -28.5h-336l-11 56l192 280h-68l-95 -131h-8q-19 41 -19 99q0 14 1 27.5t4 26.5h336l11 -56l-189 -281h66l94 131h8q9 -16 14 -41.5t5 -52.5z" />
<glyph horiz-adv-x="454" d="M434 86q0 -71 -26 -113.5t-68 -61t-90 -18.5q-29 0 -58 4.5t-55 11.5l-97 -16l-6 5v447l-34 12l-1 10q25 8 59 14.5t69.5 11t62.5 4.5l6 -5v-192q17 25 45.5 45t68.5 20q58 0 91 -46t33 -133zM217 177q-13 0 -21 -6v-231q12 -5 25 -5q26 0 34.5 37.5t8.5 95.5t-10 83.5 t-37 25.5z" />
<glyph horiz-adv-x="402" d="M20 75q0 56 27 98.5t73.5 67t105.5 24.5q56 0 93 -16.5t55.5 -41.5t18.5 -53t-21.5 -42t-52.5 -14q-19 0 -34.5 4.5t-26.5 9.5q0 62 -6 93.5t-27 31.5q-19 0 -27 -30t-8 -78q0 -69 32.5 -100t84.5 -31q23 0 44 6t40 15l6 -6q-9 -31 -31 -58.5t-58.5 -44.5t-90.5 -17 q-55 0 -100 22t-71 63t-26 97z" />
<glyph horiz-adv-x="455" d="M20 69q0 72 27.5 115t73 62t97.5 19q20 0 39 -2v82l-34 12l-1 10q25 8 59 14.5t69.5 11t63.5 4.5l6 -5v-387q0 -25 6 -35.5t19 -10.5q5 0 9 0.5t8 1.5l4 -7q-18 -27 -44.5 -44t-70.5 -17q-37 0 -61 17t-31 42q-13 -22 -39 -40.5t-68 -18.5q-60 0 -96 46t-36 130zM190 94 q0 -63 11.5 -95t39.5 -32q16 0 16 4v251q-5 1 -11 1q-31 0 -43.5 -36t-12.5 -93z" />
<glyph horiz-adv-x="278" d="M250 -100h-243l-2 10l14 7q13 7 17 13t4 20v261h-49l-1 10l50 18h1q4 43 26.5 79t63.5 57.5t99 21.5q54 0 89.5 -21.5t35.5 -51.5q0 -25 -24 -35.5t-56 -10.5q-7 0 -13.5 0.5t-14.5 1.5q0 41 -7 65t-24 24q-9 0 -15.5 -7.5t-6.5 -22.5q0 -21 3 -44t4 -59h91v-25h-90v-283 l49 -18z" />
<glyph horiz-adv-x="423" d="M384 129q0 -52 -52 -80t-135 -28q-17 0 -33 1q0 -2 -0.5 -4t-0.5 -4q0 -18 37 -18l82 -2q59 -1 96 -24.5t37 -73.5q0 -63 -55.5 -99.5t-165.5 -36.5q-48 0 -92.5 6t-73 21t-28.5 40q0 22 27 34t64 12l1 3q-16 8 -30 24.5t-14 41.5q0 30 26.5 53.5t63.5 29.5 q-58 10 -90.5 38.5t-32.5 74.5q0 39 26.5 66.5t70.5 42t95 14.5q75 0 121.5 3.5t79.5 11.5q5 -7 9.5 -16t4.5 -23q0 -35 -42 -35q-13 0 -31 5t-37 11l-1 -2q27 -11 50 -33t23 -54zM170 135q0 -43 5 -64t25 -21q19 0 24.5 21t5.5 67q0 40 -4.5 62.5t-24.5 22.5q-21 0 -26 -24 t-5 -64zM131 -159q0 -52 82 -52q33 0 55.5 11t22.5 30q0 25 -44 25h-60q-34 0 -54 2q-2 -7 -2 -16z" />
<glyph horiz-adv-x="245" d="M116 288q-37 0 -61 17.5t-24 45.5q0 33 30.5 54t70.5 21q38 0 61.5 -17.5t23.5 -46.5q0 -34 -29 -54t-72 -20zM239 -100h-228l-1 10l13 7q13 7 17 13t4 20v263l-35 12v10q24 8 58 14.5t69.5 11t63.5 4.5l6 -6v-331l34 -18z" />
<glyph horiz-adv-x="454" d="M20 69q0 72 27.5 115t73 62t97.5 19q26 0 52.5 -4t48.5 -12l95 16l6 -6v-464l34 -17l-2 -10h-227l-2 10l14 7q13 6 16.5 12.5t3.5 19.5v131q-13 -20 -39 -37.5t-66 -17.5q-60 0 -96 46t-36 130zM190 94q0 -63 11.5 -95t39.5 -32q16 0 16 4v251q-5 1 -11 1 q-31 0 -43.5 -36t-12.5 -93z" />
<glyph horiz-adv-x="351" d="M254 -100h-243l-2 10l14 7q13 7 17 13t4 20v263l-35 12v10q24 8 58 14.5t69.5 11t63.5 4.5l6 -6v-117q14 49 37.5 86t59.5 37q48 0 48 -66q0 -24 -7.5 -47.5t-15.5 -36.5l-7 -2q-12 2 -26 4t-30 3q-15 1 -30.5 1h-28.5v-193l49 -18z" />
<glyph horiz-adv-x="470" d="M481 -49q-15 -20 -43 -39t-73 -19q-44 0 -70 22.5t-26 53.5v6q-14 -31 -43 -56.5t-78 -25.5q-51 0 -80 29t-29 78v213l-34 12l-1 10q24 8 58.5 14.5t70 11t62.5 4.5l6 -6v-226q0 -22 9 -33.5t31 -11.5q16 0 28 8v217l-34 12l-1 10q24 8 58 14.5t69.5 11t63.5 4.5l6 -6 v-254q0 -25 6.5 -35.5t21.5 -10.5q8 0 16 2z" />
<glyph horiz-adv-x="412" d="M264 -100h-119l-105 288q-7 23 -15.5 35.5t-21.5 22.5l-3 2l2 10h239l2 -10l-36 -19l63 -235l70 237l-36 17l2 10h105l1 -10q-12 -8 -22 -18q-7 -7 -12 -17.5t-10 -24.5z" />
<glyph horiz-adv-x="632" d="M333 258h93l63 -262l71 235l-37 17l2 10h105l2 -10q-15 -10 -25 -21q-11 -15 -19 -39l-105 -288h-119l-50 141l-50 -141h-119l-105 288q-7 23 -15.5 35.5t-21.5 22.5l-3 2l2 10h239l2 -10l-36 -19l62 -235z" />
<glyph horiz-adv-x="412" d="M115 -240q-40 0 -64.5 21t-24.5 53q0 22 10 39q14 -4 37 -7t45 -3q35 0 67 9.5t49 27.5h-89l-105 288q-7 23 -15.5 35.5t-21.5 22.5l-3 2l2 10h239l2 -10l-36 -19l63 -234l70 236l-36 17l2 10h105l1 -10l-5 -4q-15 -8 -23 -21t-16 -35l-90 -252q-15 -42 -37 -82.5 t-52.5 -67t-73.5 -26.5z" />
<glyph horiz-adv-x="394" d="M372 -42q0 -15 -1.5 -29.5t-3.5 -28.5h-336l-11 56l192 280h-68l-95 -131h-8q-19 41 -19 99q0 14 1 27.5t4 26.5h336l11 -56l-189 -281h66l94 131h8q9 -16 14 -41.5t5 -52.5z" />
<glyph horiz-adv-x="658" d="M626 330q0 -113 -42 -189t-110.5 -113.5t-148.5 -37.5q-81 0 -147.5 37.5t-106 112t-39.5 185.5q0 84 25.5 147t68 105t96.5 62.5t111 20.5q79 0 145.5 -35.5t107 -108.5t40.5 -186zM331 32q34 0 46.5 75t13.5 223q1 147 -12 218.5t-48 71.5q-36 0 -49.5 -73t-14.5 -222 t14.5 -221t49.5 -72z" />
<glyph horiz-adv-x="397" d="M376 0h-357l-2 16l48 15q18 5 22.5 13.5t4.5 27.5v488l-73 5l-2 14l285 81l8 -8v-611l68 -25z" />
<glyph horiz-adv-x="540" d="M51 0l-13 115q107 68 166.5 137t59.5 149q0 44 -27.5 74t-75.5 30q-38 0 -71 -21.5t-52 -62.5l-14 4q14 78 52 130.5t93 78.5t119 26q65 0 112.5 -24t73 -65.5t25.5 -95.5q0 -51 -26.5 -95t-71.5 -82t-103 -71t-121 -62h226q41 0 60 18.5t31 51.5l14 -1q0 -30 -4 -73 t-10 -86.5t-14 -74.5h-429z" />
<glyph horiz-adv-x="532" d="M500 165q0 -56 -39.5 -95.5t-103 -59.5t-135.5 -20q-57 0 -110 10t-86.5 32.5t-33.5 59.5q0 39 42.5 62.5t102.5 25.5l5 -3q0 -64 16 -105.5t51 -41.5q56 0 56 110q0 65 -35.5 100.5t-86.5 35.5q-16 0 -33 -3l-8 29q72 10 112.5 40.5t40.5 77.5q0 36 -23.5 58t-62.5 22 q-35 0 -69.5 -20.5t-55.5 -60.5l-13 6q14 73 51 125.5t90.5 81t116.5 28.5q60 0 105.5 -21t70.5 -57t25 -82q0 -44 -20.5 -74.5t-54 -51t-73 -32t-78.5 -17.5q67 -4 120 -23t84.5 -53.5t31.5 -83.5z" />
<glyph horiz-adv-x="565" d="M0 230l336 430l126 -10v-420h87l-8 -90h-79v-140h-218v140h-234zM64 230h180v243z" />
<glyph horiz-adv-x="542" d="M518 166q0 -59 -38 -98t-101.5 -58.5t-141.5 -19.5q-63 0 -113 12t-79 35t-29 55q0 26 19.5 45.5t52.5 31t73 11.5l5 -3q0 -64 15 -105.5t49 -41.5q26 0 40 27.5t14 69.5q0 62 -27.5 101.5t-76.5 59t-112 20.5l-12 13l9 329h423q1 -58 -6 -118.5t-19 -115.5h-14 q-7 41 -20.5 55t-51.5 14h-235l-5 -136q32 4 72 4q94 0 163.5 -23t107.5 -65t38 -99z" />
<glyph horiz-adv-x="622" d="M598 208q0 -64 -33 -113.5t-95 -77t-148 -27.5q-135 0 -212.5 70.5t-77.5 201.5q0 115 59 204.5t171.5 141.5t272.5 52l3 -14q-102 -37 -163.5 -101.5t-87.5 -155.5q20 7 42 10t44 3q66 0 116.5 -22t79.5 -65t29 -107zM267 230q0 -105 12.5 -152.5t37.5 -47.5t35.5 40 t10.5 95q0 93 -22 139t-61 46h-2q-11 -55 -11 -120z" />
<glyph horiz-adv-x="476" d="M332 0h-215q0 105 40 194t107.5 161.5t149.5 129.5h-324q-24 0 -36.5 -14.5t-23.5 -52.5h-14q1 30 4.5 73t9.5 86t14 73h419l13 -160q-72 -67 -110 -195.5t-34 -294.5z" />
<glyph horiz-adv-x="605" d="M581 178q0 -51 -34.5 -93.5t-98.5 -68.5t-155 -26q-75 0 -136 17.5t-97 51t-36 82.5q0 58 49.5 96.5t125.5 48.5q-37 24 -70.5 50.5t-55 60.5t-21.5 81q0 51 33 92t93.5 65.5t142.5 24.5q67 0 119.5 -19t82.5 -52t30 -74q0 -38 -19.5 -63t-50.5 -41t-65 -27 q40 -25 77.5 -53t61.5 -65t24 -88zM270 557q0 -47 28.5 -79.5t69.5 -60.5q14 54 15 108q1 45 -13.5 70t-43.5 25q-26 0 -41 -18.5t-15 -44.5zM229 145q0 -56 19 -85.5t50 -29.5q26 0 42 22t16 57q0 49 -31.5 83t-75.5 63q-20 -52 -20 -110z" />
</font>
</defs>
</svg>
