<?xml version="1.0" standalone="no"?>
<!DOCTYPE svg PUBLIC "-//W3C//DTD SVG 1.1//EN" "http://www.w3.org/Graphics/SVG/1.1/DTD/svg11.dtd" >
<svg xmlns="http://www.w3.org/2000/svg" xmlns:xlink="http://www.w3.org/1999/xlink" version="1.1">
<metadata></metadata>
<defs>
<font id="indivisa_text_seriflight" horiz-adv-x="560" >
<font-face units-per-em="1000" ascent="800" descent="-200" />
<missing-glyph horiz-adv-x="250" />
<glyph unicode="ff" horiz-adv-x="584" d="M162 35l95 -19l-2 -16h-206l-2 16l48 13q17 5 22 10.5t5 20.5v400h-73l-2 16l75 14v23q0 102 51.5 162t134.5 60q43 0 76.5 -24t45.5 -50q24 45 62 69.5t87 24.5t81 -26t32 -58q0 -27 -25 -27q-5 0 -7 1q-9 34 -31.5 55.5t-60.5 21.5q-61 0 -96 -53.5t-35 -148.5v-30h137 v-30h-137v-425l95 -19l-2 -16h-206l-2 16l48 13q17 5 22 10.5t5 20.5v400h-235v-425zM389 490v-1l8 1v18q0 56 13 103q-4 0 -6 1q-7 35 -34 62.5t-70 27.5q-64 0 -101 -47t-37 -130v-35h227z" />
<glyph unicode="ffi" horiz-adv-x="826" d="M162 35l95 -19l-2 -16h-206l-2 16l48 13q17 5 22 10.5t5 20.5v400h-73l-2 16l75 14v23q0 102 52 162t137 60q43 0 76.5 -22t47.5 -47q25 42 64.5 65.5t89.5 23.5q53 0 88 -26t35 -58q0 -27 -25 -27q-5 0 -7 1q-9 34 -35 55.5t-67 21.5q-65 0 -103 -53.5t-38 -148.5v-30 h235q4 3 13 8t17 7l10 -10v-460l75 -19l-2 -16h-186l-2 16l48 13q17 5 22 10.5t5 20.5v400h-235v-425l95 -19l-2 -16h-206l-2 16l48 13q17 5 22 10.5t5 20.5v400h-235v-425zM397 490v18q0 57 15 105q-8 34 -36.5 61.5t-72.5 27.5q-65 0 -103 -47t-38 -130v-35h235z" />
<glyph unicode="ffl" horiz-adv-x="826" d="M162 35l95 -19l-2 -16h-206l-2 16l48 13q17 5 22 10.5t5 20.5v400h-73l-2 16l75 14v23q0 102 52 162t137 60q40 0 72.5 -20t48.5 -43q24 39 62.5 61t86.5 22q28 0 51 -8.5t40 -21.5v26q8 2 15.5 3t14.5 2l10 -10v-711l75 -19l-2 -16h-186l-2 16l48 13q17 5 22 10.5 t5 20.5v400h-235v-425l95 -19l-2 -16h-206l-2 16l48 13q17 5 22 10.5t5 20.5v400h-235v-425zM437 545v-55h235v185q-14 21 -39 34t-55 13q-65 0 -103 -47t-38 -130zM397 490v43q0 48 12 89q-9 31 -37 55.5t-69 24.5q-65 0 -103 -47t-38 -130v-35h235z" />
<glyph unicode="&#x2f;symbol&#x31;&#x2f;" horiz-adv-x="5534" d="M1865 412q-25 0 -40.5 14.5t-15.5 37.5q0 24 15.5 45t39 34.5t48.5 13.5q24 0 39 -13.5t15 -37.5t-14.5 -45.5t-37.5 -35t-49 -13.5zM1284 412q-26 0 -41.5 14.5t-15.5 37.5q0 24 15.5 45t39.5 34.5t49 13.5q24 0 38.5 -13.5t14.5 -37.5t-14.5 -45.5t-37 -35t-48.5 -13.5 zM959 0q0 21 2.5 46.5t8.5 61.5q-16 -49 -51 -82t-79 -33q-41 0 -63 30t-22 82q0 45 15.5 91t46.5 85.5t76.5 63.5t104.5 24h12.5t12.5 -1l16 73l6 102l136 7q0 -40 -9.5 -95t-23 -116.5t-27 -123.5t-23 -117.5t-9.5 -97.5h-130zM100 0l78 364q8 38 13.5 72.5t7.5 63.5 l128 7l11 -15l-104 -492h-134zM3503 492l-57 -492h-131l20 175q3 30 9 69t12.5 78t11.5 68h-3q-16 -53 -37 -107.5t-44 -107.5l-76 -175h-149l-2 175q-1 56 1 109t8 106h-2q-15 -61 -30 -115.5t-29 -99.5l-53 -175h-109l154 500l184 6l1 -137q1 -50 -2.5 -121.5 t-12.5 -137.5h2q20 65 36 111t30.5 81t27.5 67l56 131l169 7zM5316 300q-15 -74 -23 -110.5t-11 -51t-3 -21.5q0 -34 36 -34q13 0 28 5t31 13l-9 -79q-20 -11 -50 -20t-64 -9q-50 0 -77.5 25t-27.5 75q0 11 1.5 23.5t6 33.5t12.5 57.5t20 95.5l-47 1l9 44l54 14l53 95l81 6 l13 -15l-20 -86h99l6 -14l-17 -51zM336 0q0 28 4 62t13 82t24 116l6 102l137 7q0 -18 -2 -41t-5 -48h2q29 49 65.5 69t68.5 20q35 0 53.5 -19.5t18.5 -51.5q0 -23 -8 -62.5t-18 -84.5q-7 -33 -11 -57t-5.5 -45.5t-1.5 -48.5h-131q0 38 4.5 69.5t14.5 80.5q7 35 11 55.5 t4 31.5q0 24 -17 24t-34 -22.5t-30.5 -60.5t-22 -84t-9.5 -94h-131zM1170 0q0 39 7 87.5t20 105.5l14 67l6 102l137 7q0 -36 -8 -81.5t-19 -95.5t-19 -99t-8 -93h-130zM1399 362l140 7q6 -59 4.5 -137.5t-9.5 -151.5h2q23 45 42 95t32 99t17 90q17 4 28.5 4.5t21.5 0.5 q28 0 46.5 -7t18.5 -35q0 -22 -13.5 -60.5t-36.5 -85t-53.5 -94t-63.5 -87.5h-149q-2 111 -9.5 207.5t-17.5 154.5zM1752 0q0 39 7 87.5t19 105.5l15 67l6 102l137 7q0 -36 -8 -81.5t-19 -95.5t-19 -99t-8 -93h-130zM4716 0q0 28 4 62t13 82t24 116l6 102l137 7 q0 -18 -2.5 -41t-4.5 -48h2q29 49 65 69t69 20q35 0 53.5 -19.5t18.5 -51.5q0 -23 -8 -62.5t-18 -84.5q-7 -33 -11 -57t-6 -45.5t-2 -48.5h-130q0 38 4.5 69.5t14.5 80.5q7 35 11 55.5t4 31.5q0 24 -17 24q-18 0 -34.5 -22.5t-30.5 -60.5t-22.5 -84t-9.5 -94h-130zM2245 256 q-25 14 -51.5 22t-45.5 8q-17 0 -29.5 -7t-12.5 -19q0 -13 13 -22t32 -17.5t38 -20.5t32 -30.5t13 -47.5q0 -39 -25 -68t-66.5 -45t-89.5 -16q-33 0 -66.5 7.5t-51.5 20.5l27 93q27 -18 58.5 -28t52.5 -10q20 0 30 8t10 18q0 13 -13 22t-32 18t-38 21t-32 30t-13 46 q0 39 25.5 68t67.5 45.5t90 16.5q20 0 48.5 -3.5t55.5 -14.5zM2525 369q32 0 73.5 -7.5t72.5 -24.5l-29 -128q-20 -94 -25.5 -140.5t-5.5 -68.5h-130q0 20 2.5 45t9.5 67q-15 -50 -50.5 -84.5t-81.5 -34.5q-41 0 -62.5 30t-21.5 83q0 44 15.5 90.5t46.5 85.5t77.5 63 t108.5 24zM4653 51q-32 -28 -74 -43t-85 -15q-62 0 -102 33.5t-40 103.5q0 46 17.5 88.5t49.5 76.5t75 54t94 20q53 0 86 -23t33 -65q0 -56 -59 -95.5t-162 -44.5v-1q0 -29 15 -46.5t48 -17.5q22 0 45 7.5t45 20.5zM3936 0q0 28 4 62t13.5 82t24.5 116l5 102l137 7 q0 -18 -2 -41t-5 -48h2q29 49 65.5 69t68.5 20q35 0 53.5 -19.5t18.5 -51.5q0 -23 -8 -62.5t-18 -84.5q-7 -33 -11 -57t-5.5 -45.5t-1.5 -48.5h-131q0 38 4.5 69.5t14.5 80.5q8 35 11.5 55.5t3.5 31.5q0 24 -17 24t-34 -22.5t-30.5 -60.5t-22 -84t-9.5 -94h-131zM3768 369 q32 0 73 -7.5t72 -24.5l-28 -128q-20 -94 -25.5 -140.5t-5.5 -68.5h-130q0 20 2.5 45t9.5 67q-15 -50 -50.5 -84.5t-81.5 -34.5q-41 0 -63 30t-22 83q0 44 15.5 90.5t47 85.5t78 63t108.5 24zM4490 177q46 10 72.5 33.5t26.5 59.5q0 17 -5.5 24t-16.5 7q-20 0 -36 -20 t-26 -48.5t-15 -55.5zM3677 101q17 0 33 21t30 54t22 69q2 11 4.5 22t4.5 22q-16 8 -27 8q-18 0 -34.5 -16t-29 -40.5t-20 -51.5t-7.5 -48q0 -40 24 -40zM913 101q16 0 31 19.5t28.5 50t22.5 64.5l4 20l4 20l3 14q-14 8 -27 8q-18 0 -34 -16t-28.5 -40.5t-20 -51.5t-7.5 -48 q0 -40 24 -40zM2435 101q16 0 32.5 21t30 54t21.5 69q2 11 4.5 22t4.5 22q-14 8 -27 8q-18 0 -34 -16t-29 -40.5t-20 -51.5t-7 -48q0 -40 24 -40z" />
<glyph unicode="&#x2f;symbol&#x32;&#x2f;" horiz-adv-x="932" d="M494 570l52 -90l-137 -240h-103l137 240l-52 90h103zM357 570l52 -90l-138 -240h-103l138 240l-52 90h103zM752 120h-103l-137 240l51 90l137 -240h103zM683 0h-103l-137 240l51 90l138 -240h103zM100 120l51 90h275l51 -90h-274l-52 -90zM168 0l52 90h274l52 -90h-275 l-51 -90zM789 88q18 0 30.5 -13t12.5 -31t-12.5 -31t-30.5 -13t-30.5 13t-12.5 31t12.5 31t30.5 13zM829 44q0 17 -11.5 28.5t-28.5 11.5q-16 0 -28 -11.5t-12 -28.5q0 -16 12 -28t28 -12q17 0 28.5 12t11.5 28zM771 69h18h5t6 -2q5 -4 5 -11q0 -5 -3 -8q-1 -2 -2.5 -2.5 t-3.5 -1.5q7 -1 8 -9q0 -8 3 -16h-8q-1 2 -1 6t-1 7q-1 5 -2.5 7.5t-8.5 2.5h-8v-23h-7v50zM778 47h10h3.5t3.5 1q3 3 3 7q0 6 -4 7t-6 1h-10v-16z" />
<glyph unicode="&#x2f;symbol&#x33;&#x2f;" horiz-adv-x="957" d="M505 638l68 -270h270l-203 -135l136 -270l-271 135l-270 -270l135 405l-270 203l338 -68zM814 87q18 0 30.5 -12.5t12.5 -31.5q0 -18 -12.5 -30.5t-30.5 -12.5t-30.5 12.5t-12.5 30.5q0 19 12.5 31.5t30.5 12.5zM854 43q0 17 -11.5 29t-28.5 12q-16 0 -28 -12t-12 -29 q0 -16 12 -28t28 -12q17 0 28.5 12t11.5 28zM796 68h18h5.5t5.5 -2q6 -3 6 -10q0 -5 -4 -9q-3 -3 -6 -3q7 -3 8 -10q1 -4 1.5 -7.5t1.5 -8.5h-7q-1 3 -1.5 7t-1.5 7q0 9 -10 9h-9v-23h-7v50zM803 47h10h3.5t3.5 1l2 2t1 4q0 7 -4 8t-6 1h-10v-16z" />
<glyph unicode="&#x2f;symbol&#x34;&#x2f;" horiz-adv-x="2607" d="M1684 406q0 32 -2.5 63t-8.5 65l126 14l15 -15v-533h-130v406zM1889 406q0 62 -10 128l126 14l14 -15v-533h-130v406zM427 101v-101h-320v362q0 38 -1.5 72t-5.5 63l126 7l14 -14v-396zM925 21l7 109q31 -18 72 -27t72 -9q50 0 50 36q0 19 -20.5 34t-50 31t-59.5 37 t-50.5 51t-20.5 74q0 48 26 80.5t70 49.5t97 17q81 0 127 -18l-14 -111q-28 14 -55 21.5t-56 7.5q-28 0 -43 -11t-15 -29q0 -22 20.5 -38.5t50.5 -32.5t59.5 -36.5t50 -49.5t20.5 -73q0 -67 -54 -104t-139 -37q-40 0 -82.5 8t-62.5 20zM795 0l-106 -7q-7 11 -12 24t-9 25h-4 q-15 -22 -42.5 -35.5t-61.5 -13.5q-41 0 -69 22t-28 67q0 61 53.5 88.5t137.5 29.5v20q0 54 -58 54q-55 0 -108 -29l-8 97q27 10 68.5 18t81.5 8q154 0 154 -135q0 -38 -2 -69.5t-2 -69.5q0 -24 4.5 -50.5t10.5 -43.5zM1626 0l-107 -7q-7 11 -12 24t-9 25h-3 q-15 -22 -42.5 -35.5t-62.5 -13.5q-40 0 -68 22t-28 67q0 61 53 88.5t138 29.5v20q0 54 -58 54q-54 0 -109 -29l-7 97q27 10 68.5 18t81.5 8q153 0 153 -135q0 -38 -1.5 -69.5t-1.5 -69.5q0 -24 4.5 -50.5t10.5 -43.5zM2405 213v-17t-1 -19l-11 -11h-191q8 -45 33.5 -64 t64.5 -19q24 0 45.5 6t38.5 15l7 -81q-17 -11 -49.5 -20.5t-77.5 -9.5q-88 0 -143 47t-55 135q0 58 24 101t66 67.5t94 24.5q73 0 114 -43.5t41 -111.5zM2199 207l78 4q1 5 1.5 11t0.5 15q0 23 -7.5 41t-26.5 18q-23 0 -34 -25.5t-12 -63.5zM654 74v88q-27 -3 -46 -17 t-19 -40q0 -18 10.5 -29t26.5 -11t28 9zM1485 74v88q-27 -3 -46 -17t-19 -40q0 -18 10 -29t27 -11q16 0 28 9zM2464 85q18 0 30.5 -13t12.5 -31t-12.5 -31t-30.5 -13t-31 13t-13 31t13 31t31 13zM2504 41q0 17 -11.5 28.5t-28.5 11.5q-16 0 -28 -11.5t-12 -28.5 q0 -16 12 -28t28 -12q17 0 28.5 12t11.5 28zM2446 66h18q2 0 5 -0.5t6 -2.5q5 -2 5 -10q0 -4 -3 -9q-3 -3 -6 -3q7 -1 8 -10q0 -7 3 -15h-8q-1 2 -1 6t-1 7q-1 5 -2.5 7t-8.5 2h-8v-22h-7v50zM2453 44h10h3.5t3.5 1q3 3 3 7q0 6 -4 7t-6 1h-10v-16z" />
<glyph unicode="&#x2f;symbol&#x35;&#x2f;" horiz-adv-x="705" d="M232 -6l-132 136l124 234l129 -136zM474 -6l-121 234l128 136l124 -234z" />
<glyph unicode=" "  horiz-adv-x="250" />
<glyph unicode="&#x09;" horiz-adv-x="250" />
<glyph unicode="&#xa0;" horiz-adv-x="250" />
<glyph unicode="!" horiz-adv-x="280" d="M111 685l3 3l15 3q6 2 14 3t15 1q14 0 14 -15q0 -7 -0.5 -15.5t-0.5 -16.5l-17 -458h-28zM176 37q0 -17 -8.5 -32t-28.5 -15q-16 0 -25.5 12.5t-9.5 30.5t10.5 32.5t27.5 14.5t25.5 -12t8.5 -31z" />
<glyph unicode="&#x22;" horiz-adv-x="335" d="M64 763l3 3q23 3 44 3l10 -11l-21 -245h-19l-6 123zM214 763l3 3q23 3 44 3l10 -11l-21 -245h-19l-6 123z" />
<glyph unicode="#" horiz-adv-x="760" d="M204 -10l-28 2l-8 8l48 195h-144l-8 8l5 28h156l56 224h-142l-8 8l5 28h154l50 204l28 -2l8 -8l-48 -194h180l50 204l28 -2l8 -8l-48 -194h142l8 -8l-4 -28h-155l-55 -224h144l8 -8l-4 -28h-157l-51 -205l-28 2l-8 8l48 195h-179zM264 231h179l56 224h-180z" />
<glyph unicode="$" horiz-adv-x="492" d="M259 -137l-28 -3l-7 7v123q-36 1 -68.5 7t-54 14t-26.5 16q-6 10 -7.5 22t-1.5 34q0 15 1.5 39.5t5.5 42.5h15q9 -53 17 -76t21 -37q17 -17 49 -22t67 -5q68 0 103.5 38.5t35.5 90.5q0 46 -22 78t-57 56.5t-74 47t-74 48.5t-57 61.5t-22 86.5q0 73 46 114.5t118 47.5v133 l28 3l7 -7v-128q51 -2 84 -14t43 -23q5 -5 5.5 -18t0.5 -28q0 -19 -1.5 -43.5t-4.5 -48.5h-16q-7 51 -15 76t-20 37q-15 14 -42.5 20.5t-56.5 6.5q-61 0 -96 -34t-35 -93q0 -45 22 -76.5t57 -55.5t74 -46.5t74 -48.5t57 -61.5t22 -86.5q0 -69 -43 -115t-124 -52v-128z" />
<glyph unicode="%" horiz-adv-x="928" d="M689 695l-422 -705h-39l421 705h40zM78 483q-1 58 16.5 103.5t52 72t83.5 26.5q50 0 83 -26t50 -71t17 -102q1 -58 -15.5 -105.5t-50.5 -76t-85 -28.5q-52 0 -85 27t-49 74t-17 106zM113 483q1 -79 28.5 -130t88.5 -51q41 0 66.5 25t37.5 66.5t11 92.5q-1 74 -28.5 123.5 t-86.5 49.5q-60 0 -89 -50t-28 -126zM548 197q-1 58 16.5 103.5t52 72t83.5 26.5q50 0 83 -26t50 -71t17 -102q1 -58 -15.5 -105.5t-50.5 -76t-85 -28.5q-52 0 -85 27t-49 74t-17 106zM583 197q1 -79 28.5 -130t88.5 -51q41 0 66.5 25t37.5 66.5t11 92.5q-1 74 -28.5 123.5 t-86.5 49.5q-60 0 -89 -50t-28 -126z" />
<glyph unicode="&#x26;" horiz-adv-x="762" d="M310 -10q-66 0 -117 25t-80 69t-29 100q0 59 33.5 110t86.5 75q-35 43 -50 80.5t-15 78.5q0 48 25 86t66 59.5t89 21.5q72 0 113.5 -38.5t41.5 -97.5q0 -20 -8.5 -32t-22.5 -12q-12 0 -20 4q3 18 3 30q-1 47 -30 79.5t-82 32.5q-35 0 -64.5 -17.5t-47.5 -47t-18 -66.5 q0 -46 21 -85.5t64 -84.5l228 -240q37 58 37 136q0 27 -7.5 52.5t-24.5 44.5q8 10 25 10q26 0 39 -30t13 -71q0 -98 -54 -170q49 -48 93 -62.5t96 0.5l4 -9q-11 -11 -30 -21t-49 -10q-38 0 -70.5 16.5t-71.5 53.5q-35 -33 -82 -51.5t-105 -18.5zM129 192q0 -49 24 -87 t65.5 -59t94.5 -21q49 0 88.5 16t68.5 45q-11 10 -22.5 22t-24.5 26l-185 196q-8 9 -16 17q-41 -21 -67 -63.5t-26 -91.5z" />
<glyph unicode="'" horiz-adv-x="185" d="M64 763l3 3q23 3 44 3l10 -11l-21 -245h-19l-6 123z" />
<glyph unicode="(" horiz-adv-x="344" d="M300 -180l-13 -13q-87 75 -135 199t-48 275q0 152 48 275.5t135 198.5l13 -13q-71 -74 -111.5 -194.5t-39.5 -266.5q-1 -145 39.5 -266t111.5 -195z" />
<glyph unicode=")" horiz-adv-x="344" d="M44 742l13 13q87 -75 135 -198.5t48 -275.5q0 -151 -48 -275t-135 -199l-13 13q71 74 111.5 195t39.5 266q1 146 -39.5 266.5t-111.5 194.5z" />
<glyph unicode="*" horiz-adv-x="448" d="M244 507q0 -22 -20 -22t-20 22q0 20 6 45.5t8 56.5q-26 -17 -45.5 -35t-36.5 -28q-19 -11 -29 7q-10 17 9 28q17 10 42.5 18t52.5 21q-27 14 -52.5 21.5t-42.5 17.5q-19 11 -9 29q10 17 29 6q17 -10 36.5 -28t45.5 -35q-2 31 -8 57t-6 45q0 22 20 22t20 -22q0 -19 -6 -45 t-8 -57q26 17 46 35t36 28q19 11 29 -6q10 -18 -9 -29q-16 -10 -42 -17.5t-53 -21.5q27 -13 53 -21t42 -18q19 -11 9 -28q-10 -18 -29 -7q-16 10 -36 28t-46 35q2 -31 8 -56.5t6 -45.5z" />
<glyph unicode="+" d="M480 322h-180v-175h-40v175h-185v35q32 1 81.5 2t103.5 1v177h40v-176q52 0 99 0.5t78 0.5l8 -8z" />
<glyph unicode="," horiz-adv-x="221" d="M64 -180q19 31 33 75t21 95h-4q-20 0 -32 12.5t-12 31.5q0 17 12.5 30.5t32.5 13.5t31 -15t11 -38q0 -29 -10.5 -67t-28.5 -76.5t-42 -70.5z" />
<glyph unicode="-" horiz-adv-x="380" d="M48 250v35h284v-35h-284z" />
<glyph unicode="." horiz-adv-x="208" d="M103 -10q-18 0 -28.5 12.5t-10.5 28.5q0 18 11.5 32.5t30.5 14.5q18 0 28 -11.5t10 -28.5q0 -18 -10 -33t-31 -15z" />
<glyph unicode="/" horiz-adv-x="394" d="M123 -10l-31 5l-8 8l188 752l30 -5l8 -8z" />
<glyph unicode="0" horiz-adv-x="562" d="M56 343q-1 101 25 180.5t77 125.5t125 46t123 -45.5t74 -124t26 -177.5t-23.5 -180t-74.5 -129.5t-126 -48.5q-78 0 -127.5 46t-73.5 126t-25 181zM101 343q1 -90 20.5 -162t59.5 -114t102 -42q63 0 102.5 44.5t58 118t17.5 160.5t-20 157.5t-58 112.5t-101 42 q-61 0 -102 -42t-60.5 -113.5t-18.5 -161.5z" />
<glyph unicode="1" horiz-adv-x="314" d="M176 35l95 -19l-2 -16h-226l-2 16l63 12q20 4 26 10t6 22v586l-93 5l-2 14l125 30l10 -10v-650z" />
<glyph unicode="2" horiz-adv-x="508" d="M55 0l-7 32q69 76 130 139t107.5 119t73 111t26.5 115q0 64 -37 103t-104 39q-52 0 -97.5 -28.5t-80.5 -75.5l-13 6q30 60 81.5 97.5t121.5 37.5q55 0 93.5 -23.5t59 -63t20.5 -89.5q0 -60 -25 -115t-70 -111.5t-106 -118.5t-133 -136h256q27 0 41.5 9.5t24.5 32.5t21 65 l14 -1q0 -35 -4.5 -72t-14.5 -72h-378z" />
<glyph unicode="3" horiz-adv-x="482" d="M121 319l-2 30q71 15 125.5 40.5t85.5 64t31 92.5q0 47 -35 79t-91 32q-57 0 -104 -31t-83 -82l-12 7q32 68 85.5 106t120.5 38q48 0 84.5 -19t57.5 -52t21 -76q0 -57 -29.5 -96.5t-73.5 -65t-90 -37.5q58 -2 106.5 -22.5t78 -59t29.5 -91.5q0 -51 -29.5 -93t-81.5 -67.5 t-122 -25.5q-80 0 -128.5 31t-48.5 80q0 46 41 70l9 -7q-3 -10 -5.5 -20.5t-2.5 -24.5q0 -99 139 -99q53 0 95.5 19t67.5 54t26 82q-1 51 -31 83.5t-76.5 48t-97.5 15.5q-30 0 -60 -3z" />
<glyph unicode="4" horiz-adv-x="557" d="M24 195l340 500l30 -5v-484h123l-8 -38h-115v-168h-40v168h-318zM73 206h281v424z" />
<glyph unicode="5" horiz-adv-x="498" d="M86 373v312h338q1 -36 -2.5 -76t-8.5 -69h-18q-3 44 -6.5 67t-13.5 31.5t-33 8.5h-218v-256q10 1 20.5 1h19.5q83 0 147.5 -23t101.5 -68.5t37 -112.5q0 -55 -29.5 -100t-80 -71.5t-115.5 -26.5q-81 0 -133 31t-52 81q0 45 41 69l9 -7q-3 -9 -5.5 -21t-2.5 -26 q0 -46 40 -71.5t109 -25.5q82 0 129.5 47t47.5 118q0 95 -81 139t-231 39z" />
<glyph unicode="6" horiz-adv-x="530" d="M482 199q0 -65 -29.5 -112t-77 -72t-102.5 -25q-63 0 -112 33t-77 94.5t-28 145.5q0 88 29.5 161.5t82 130t122 92.5t148.5 48l6 -26q-87 -19 -160.5 -64t-121.5 -117.5t-60 -170.5q38 35 83.5 56t99.5 21q58 0 102.5 -24t69.5 -68t25 -103zM98 255q0 -70 23 -122 t63 -80.5t91 -28.5q46 0 83.5 22t59.5 60.5t22 89.5q0 71 -42 117.5t-121 46.5q-46 0 -94 -22t-85 -63v-20z" />
<glyph unicode="7" horiz-adv-x="486" d="M457 685l5 -33q-49 -56 -91.5 -132.5t-76 -164t-55 -178.5t-27.5 -177h-41q6 81 28 170t55.5 176t75.5 164.5t89 136.5h-298q-23 0 -33.5 -8.5t-13.5 -31.5t-7 -67h-18q-5 29 -7 69t-1 76h416z" />
<glyph unicode="8" horiz-adv-x="511" d="M463 158q0 -49 -27 -87.5t-75 -60t-111 -21.5q-59 0 -104.5 21t-71.5 57.5t-26 82.5q0 43 22.5 82t61.5 70t88 50q-36 20 -67 44.5t-50 57.5t-19 79q0 45 23.5 81.5t64.5 58.5t94 22q79 0 125 -43t46 -110q0 -45 -19 -82.5t-49 -65.5t-63 -47q40 -22 76 -47t58.5 -59 t22.5 -83zM126 535q0 -45 22 -76t57 -54t75 -44q29 16 56 42.5t44 61t17 76.5q0 53 -35.5 87.5t-97.5 34.5q-61 0 -99.5 -36.5t-38.5 -91.5zM90 158q0 -40 21.5 -71t58.5 -48.5t83 -17.5q45 0 83 17t61.5 48t23.5 73q0 45 -25.5 76t-65.5 54.5t-83 47.5 q-68 -28 -112.5 -74.5t-44.5 -104.5z" />
<glyph unicode="9" horiz-adv-x="531" d="M475 427q0 -121 -49.5 -213.5t-136 -149.5t-197.5 -74l-5 27q83 18 156.5 61t123.5 114.5t62 174.5q-34 -36 -79.5 -56t-100.5 -20q-57 0 -102.5 23.5t-72 66.5t-26.5 101q0 67 30.5 114.5t79 73t101.5 25.5q67 0 115.5 -35t74.5 -95.5t26 -137.5zM90 485q0 -70 44 -115 t121 -45q45 0 93 22t85 64v17q0 65 -20.5 118t-59.5 84t-95 31q-48 0 -86 -22t-60 -61.5t-22 -92.5z" />
<glyph unicode=":" horiz-adv-x="208" d="M103 317q-18 0 -28.5 12.5t-10.5 28.5q0 18 11.5 32.5t30.5 14.5q18 0 28 -11.5t10 -28.5q0 -18 -10 -33t-31 -15zM103 -10q-18 0 -28.5 12.5t-10.5 28.5q0 18 11.5 32.5t30.5 14.5q18 0 28 -11.5t10 -28.5q0 -18 -10 -33t-31 -15z" />
<glyph unicode=";" horiz-adv-x="221" d="M104 317q-18 0 -28.5 12.5t-10.5 28.5q0 18 11.5 32.5t30.5 14.5q18 0 28 -11.5t10 -28.5q0 -18 -10 -33t-31 -15zM64 -180q19 31 33 75t21 95h-4q-20 0 -32 12.5t-12 31.5q0 17 12.5 30.5t32.5 13.5t31 -15t11 -38q0 -29 -10.5 -67t-28.5 -76.5t-42 -70.5z" />
<glyph unicode="&#x3c;" d="M470 117l-405 222l4 16q27 15 66.5 36.5t86 46l93 49t86.5 45t68 33.5v-45l-335 -175l336 -183v-45z" />
<glyph unicode="=" d="M480 419h-405v35q34 1 87 2t112.5 1.5t113.5 1t89 0.5l8 -8zM480 226h-405v35q34 1 87 2t112.5 1.5t113.5 1t89 0.5l8 -8z" />
<glyph unicode="&#x3e;" d="M90 117v45l336 183l-335 175v45q28 -13 68 -33.5t86.5 -45l93 -49t86 -46t66.5 -36.5l4 -16z" />
<glyph unicode="?" horiz-adv-x="416" d="M214 222l-8 -8q-17 1 -28.5 12t-11.5 30q0 26 18.5 45.5t45.5 38.5t53.5 42.5t45 57.5t18.5 84q0 63 -34.5 101t-96.5 38q-64 0 -104 -37t-40 -91q0 -12 2.5 -23.5t6.5 -25.5q-4 -2 -9.5 -4t-12.5 -2q-15 0 -25 13.5t-10 37.5q0 44 25.5 81t70 60t100.5 23q48 0 87 -21 t62 -60t23 -93q0 -51 -21 -89.5t-50.5 -66.5t-57 -47.5t-41.5 -31.5q-8 -7 -8 -31v-33zM234 37q0 -17 -8.5 -32t-28.5 -15q-16 0 -25.5 12.5t-9.5 30.5t10.5 32.5t27.5 14.5t25.5 -12t8.5 -31z" />
<glyph unicode="@" horiz-adv-x="1091" d="M758 30q41 0 81 23.5t72.5 67t52.5 103t20 131.5q0 79 -26.5 145t-74.5 114.5t-113.5 75.5t-144.5 27q-72 0 -145.5 -25t-140.5 -71.5t-119 -112.5t-82.5 -149t-30.5 -180q0 -84 27.5 -156.5t78 -126t119 -83.5t149.5 -30q68 0 119.5 12t91.5 31t75 39l15 -25 q-52 -42 -126 -68.5t-167 -26.5q-95 0 -173 32.5t-134.5 91t-87 135.5t-30.5 167q0 105 32.5 195t88.5 162t128.5 122.5t154 77.5t162.5 27q89 0 162 -30.5t125.5 -85t81 -128t28.5 -159.5q0 -73 -21.5 -138.5t-59.5 -115.5t-88 -79t-106 -29q-48 0 -78 24t-40.5 65t-3.5 91 l13 86q-18 -42 -42.5 -88t-54 -86.5t-60.5 -66t-63 -25.5q-33 0 -54.5 32.5t-21.5 93.5q0 75 24 144.5t65.5 125t95.5 87.5t114 32q29 0 53 -6t40 -14l-9 -39l-43 -186q-24 -105 -5.5 -167.5t76.5 -62.5zM392 117q0 -37 11.5 -62t33.5 -25q21 0 49 29.5t58 76t57.5 99.5 t47.5 101t28 79l11 44q-11 5 -24 8t-32 3q-43 0 -85.5 -28.5t-77.5 -78t-56 -113t-21 -133.5z" />
<glyph unicode="A" horiz-adv-x="711" d="M344 685h23l218 -616q6 -17 13.5 -25t22.5 -11l58 -13l-2 -20h-212l-2 20l86 19l-75 216l-247 -4l-73 -211l85 -20l-2 -20h-203l-2 20l56 13q17 4 25 12t13 24zM238 285h226l-113 325z" />
<glyph unicode="B" horiz-adv-x="577" d="M271 655h-83v-292h93q75 0 115 43t40 108q0 68 -43.5 104.5t-121.5 36.5zM276 333h-88v-303h108q83 0 133.5 39.5t50.5 111.5t-55.5 112t-148.5 40zM61 665l2 20h216q90 0 143.5 -45t53.5 -125q0 -46 -16 -78.5t-41 -53t-52 -31.5q71 -16 112.5 -60t41.5 -110 q0 -90 -62.5 -136t-162.5 -46h-233l-2 20l58 13q17 4 22 10t5 20v559q0 14 -5 20t-22 10z" />
<glyph unicode="C" horiz-adv-x="626" d="M399 -10q-162 0 -248.5 94.5t-86.5 258.5q0 109 43.5 188t117 121.5t164.5 42.5q51 0 88 -9t61 -21q3 -19 3 -46q0 -20 -1 -46.5t-5 -52.5h-15q-8 32 -16.5 64t-16.5 63q-20 6 -41.5 9.5t-55.5 3.5q-79 0 -142.5 -38t-101 -109t-37.5 -170q0 -98 35 -169.5t99.5 -110 t152.5 -38.5q43 0 64 4t40 9q8 32 16.5 64t16.5 63h15q3 -22 4.5 -45t1.5 -40t-0.5 -31.5t-2.5 -28.5q-25 -12 -64 -21t-88 -9z" />
<glyph unicode="D" horiz-adv-x="665" d="M266 653h-78v-621h78q95 0 159.5 38.5t97.5 108t33 163.5t-33 164t-97.5 108.5t-159.5 38.5zM601 342q0 -104 -39 -181t-113 -119t-179 -42h-207l-2 20l58 13q17 4 22 10t5 20v559q0 14 -5 20t-22 10l-58 13l2 20h207q105 0 179 -42.5t113 -119.5t39 -181z" />
<glyph unicode="E" horiz-adv-x="565" d="M188 360l222 5l-2 -39l-220 4v-300h148q31 0 62 1.5t51 3.5l34 130h15q3 -33 3 -75q0 -22 -1.5 -47t-4.5 -43h-432l-2 20l58 13q17 4 22 10t5 20v559q0 14 -5 20t-22 10l-58 13l2 20h422q3 -18 4.5 -42.5t1.5 -47.5q0 -37 -3 -75h-15l-34 130q-20 2 -51 3.5t-62 1.5h-138 v-295z" />
<glyph unicode="F" horiz-adv-x="531" d="M188 39l105 -19l-2 -20h-228l-2 20l58 13q17 4 22 10t5 20v559q0 14 -5 20t-22 10l-58 13l2 20h422q3 -18 4.5 -42.5t1.5 -47.5q0 -37 -3 -75h-15l-34 130q-20 2 -51 3.5t-62 1.5h-138v-310l222 5l-2 -39l-220 4v-276z" />
<glyph unicode="G" horiz-adv-x="683" d="M389 -10q-105 0 -177.5 44t-110 123.5t-37.5 185.5q0 107 43.5 186t117 122.5t164.5 43.5q55 0 94.5 -8.5t64.5 -21.5q3 -19 3 -46q0 -20 -1.5 -46.5t-4.5 -52.5h-15l-33 127q-22 7 -45.5 10t-61.5 3q-79 0 -142.5 -39.5t-101 -110.5t-37.5 -167t34 -167.5t96 -111 t147 -39.5q37 0 63 3t58 13v240l-85 19l2 20h208l2 -20l-58 -13q-16 -4 -21.5 -10t-5.5 -20v-237q-26 -13 -67.5 -21.5t-92.5 -8.5z" />
<glyph unicode="H" horiz-adv-x="742" d="M188 39l85 -19l-2 -20h-208l-2 20l58 13q17 4 22 10t5 20v583l-85 19l2 20h208l2 -20l-58 -13q-16 -4 -21.5 -10t-5.5 -20v-257h366v281l-85 19l2 20h208l2 -20l-58 -13q-16 -4 -21.5 -10t-5.5 -20v-583l85 -19l-2 -20h-208l-2 20l58 13q17 4 22 10t5 20v267h-366v-291z " />
<glyph unicode="I" horiz-adv-x="334" d="M188 39l85 -19l-2 -20h-208l-2 20l58 13q17 4 22 10t5 20v583l-85 19l2 20h208l2 -20l-58 -13q-16 -4 -21.5 -10t-5.5 -20v-583z" />
<glyph unicode="J" horiz-adv-x="319" d="M147 646l-85 19l2 20h208l2 -20l-58 -13q-16 -4 -21.5 -10t-5.5 -20v-547q0 -63 -12 -104t-36.5 -73t-62.5 -68l-17 17q20 28 36 52.5t27 52t17 64t6 88.5v542z" />
<glyph unicode="K" horiz-adv-x="669" d="M188 39l85 -19l-2 -20h-208l-2 20l58 13q17 4 22 10t5 20v583l-85 19l2 20h208l2 -20l-58 -13q-16 -4 -21.5 -10t-5.5 -20v-274l145 2l180 296l-85 19l2 20h205l2 -20l-59 -13q-14 -3 -23 -11t-20 -25l-169 -275l143 -241q23 -37 41.5 -51t49.5 -22l28 -7l-2 -20h-42 q-43 0 -65 18t-42 52l-144 245h-145v-276z" />
<glyph unicode="L" horiz-adv-x="548" d="M146 646l-85 19l2 20h208l2 -20l-58 -13q-16 -4 -21.5 -10t-5.5 -20v-592h139q33 0 65.5 3t54.5 8q5 16 9.5 33t10.5 46l7 35h15q3 -33 3 -75q0 -20 -1.5 -42t-4.5 -38h-423l-2 20l58 13q17 4 22 10t5 20v583z" />
<glyph unicode="M" horiz-adv-x="999" d="M175 39l85 -19l-2 -20h-200l-2 20l58 13q17 4 21 10t6 20l76 582l-86 20l2 20h132l241 -627l233 627h130l2 -20l-87 -20l77 -582q2 -14 6.5 -20t20.5 -10l58 -13l-2 -20h-205l-2 20l43 10l42 9l-75 561l-160 -415l-69 -185h-34l-69 185l-167 428z" />
<glyph unicode="N" horiz-adv-x="736" d="M181 39l105 -19l-2 -20h-221l-2 20l58 13q17 4 22 10t5 20v559q0 14 -5 20t-22 10l-58 13l2 20h118l390 -610v571l-85 19l2 20h201l2 -20l-58 -13q-16 -4 -21.5 -10t-5.5 -20v-622h-35l-390 606v-567z" />
<glyph unicode="O" horiz-adv-x="648" d="M64 343q0 109 34.5 188t95 121.5t138.5 42.5q75 0 131.5 -42.5t88.5 -120t32 -184.5t-32 -187.5t-90.5 -125.5t-138.5 -45q-79 0 -137.5 42.5t-90 122t-31.5 188.5zM109 343q0 -98 27 -169.5t76 -110t114 -38.5t113 40.5t74 113.5t26 169q0 95 -26 165t-72.5 108.5 t-108.5 38.5q-66 0 -116 -38.5t-78.5 -109.5t-28.5 -169z" />
<glyph unicode="P" horiz-adv-x="558" d="M283 650h-95v-345h90q91 0 143 41.5t52 125.5q0 85 -50.5 131.5t-139.5 46.5zM188 39l105 -19l-2 -20h-228l-2 20l58 13q17 4 22 10t5 20v559q0 14 -5 20t-22 10l-58 13l2 20h230q62 0 113 -24.5t81.5 -72t30.5 -116.5q0 -66 -31 -111t-83.5 -68t-115.5 -23h-100v-231z " />
<glyph unicode="Q" horiz-adv-x="648" d="M64 343q0 109 34.5 188t95 121.5t138.5 42.5q75 0 131.5 -42.5t88.5 -120t32 -184.5q0 -99 -28 -176t-79 -123.5t-120 -56.5q68 -42 147 -73.5t165 -31.5h10.5t8.5 1l1 -1q4 -6 4 -15q0 -17 -12 -26t-32 -9q-40 0 -100 20t-126 55t-124 79q-72 6 -125 50.5t-81.5 121 t-28.5 180.5zM109 343q0 -98 27 -169.5t76 -110t114 -38.5t113 40.5t74 113.5t26 169q0 95 -26 165t-72.5 108.5t-108.5 38.5q-66 0 -116 -38.5t-78.5 -109.5t-28.5 -169z" />
<glyph unicode="R" horiz-adv-x="628" d="M268 650h-80v-317h80q89 0 139.5 40t50.5 122q0 74 -50.5 114.5t-139.5 40.5zM188 39l85 -19l-2 -20h-208l-2 20l58 13q17 4 22 10t5 20v559q0 14 -5 20t-22 10l-58 13l2 20h215q62 0 113 -22t81.5 -64t30.5 -104q0 -71 -38.5 -116.5t-96.5 -64.5l114 -214 q14 -26 27 -39.5t28 -20t36 -13.5l23 -7l-2 -20h-37q-43 0 -65.5 17.5t-41.5 52.5l-124 234q-23 -4 -48 -4h-90v-261z" />
<glyph unicode="S" horiz-adv-x="482" d="M226 -10q-38 0 -73 5.5t-59 14.5t-29 17q-6 10 -7.5 22t-1.5 34q0 15 1.5 39.5t5.5 42.5h15q9 -53 17 -76t21 -37q17 -17 49 -22t67 -5q46 0 79 17.5t51.5 47t18.5 64.5q0 46 -23 78t-59 56.5t-76 47t-76 48.5t-59 61.5t-23 86.5q0 52 26.5 88.5t71 55.5t98.5 19 q56 0 93 -12.5t47 -24.5q5 -5 5.5 -18t0.5 -28q0 -19 -1.5 -43.5t-4.5 -48.5h-16q-7 51 -15 76t-20 37q-15 14 -42.5 20.5t-56.5 6.5q-61 0 -101 -34t-40 -93q0 -45 23 -76.5t59 -55.5t76 -46.5t76 -48.5t59 -61.5t23 -86.5q0 -74 -54 -121t-146 -47z" />
<glyph unicode="T" horiz-adv-x="584" d="M313 39l85 -19l-2 -20h-208l-2 20l58 13q17 4 22 10t5 20v590h-74q-33 0 -65.5 -2.5t-54.5 -7.5q-4 -16 -8.5 -34.5t-10.5 -49.5l-8 -39h-15q-1 20 -2 37.5t-1 37.5q0 23 1.5 47.5t4.5 42.5h508q3 -18 4.5 -42.5t1.5 -47.5q0 -20 -0.5 -37.5t-2.5 -37.5h-15l-8 39 q-6 31 -10 49.5t-9 34.5q-22 5 -54.5 7.5t-65.5 2.5h-74v-614z" />
<glyph unicode="U" horiz-adv-x="657" d="M109 220v426l-85 19l2 20h208l2 -20l-58 -13q-16 -4 -21.5 -10t-5.5 -20v-405q0 -62 24.5 -105t65.5 -65t90 -22q50 0 90.5 21.5t65 64.5t24.5 106v429l-85 19l2 20h201l2 -20l-85 -19v-426q0 -76 -29.5 -127.5t-79 -77t-111.5 -25.5q-60 0 -109.5 26t-78.5 77t-29 127z " />
<glyph unicode="V" horiz-adv-x="711" d="M367 0h-23l-218 616q-6 17 -13.5 25t-22.5 11l-58 13l2 20h211l2 -20l-85 -19l198 -571l197 571l-85 19l2 20h203l2 -20l-56 -13q-16 -4 -24.5 -12t-13.5 -24z" />
<glyph unicode="W" horiz-adv-x="1056" d="M362 0h-23l-213 616q-6 17 -13.5 25t-22.5 11l-58 13l2 20h211l2 -20l-85 -19l193 -571l155 460l-28 81q-6 17 -13.5 25t-22.5 11l-59 13l2 20h213l2 -20l-86 -19l192 -571l192 571l-85 19l2 20h203l2 -20l-56 -13q-16 -4 -24.5 -12t-13.5 -24l-213 -616h-23l-165 481z " />
<glyph unicode="X" horiz-adv-x="683" d="M124 69l193 276l-188 271q-12 17 -19 24.5t-22 11.5l-43 13l2 20h195l2 -20l-85 -19l188 -271l186 271l-85 19l2 20h186l2 -20l-44 -13q-13 -4 -20.5 -11.5t-19.5 -24.5l-187 -270l192 -277q11 -17 17.5 -24t22.5 -12l44 -13l-2 -20h-195l-2 20l85 19l-193 278l-191 -278 l85 -19l-2 -20h-186l-2 20l44 13q14 4 21.5 12t18.5 24z" />
<glyph unicode="Y" horiz-adv-x="671" d="M356 39l85 -19l-2 -20h-208l-2 20l58 13q17 4 22 10t5 20v203l-187 350q-9 17 -16 25t-21 11l-58 13l2 20h211l2 -20l-85 -19l178 -346h1l176 346l-85 19l2 20h203l2 -20l-56 -13q-17 -4 -25.5 -12t-16.5 -24l-185 -352v-225z" />
<glyph unicode="Z" horiz-adv-x="594" d="M516 0h-439l-5 30l387 625h-216q-66 0 -113 -5l-34 -130h-15q-3 33 -3 65q0 25 1.5 52.5t4.5 47.5h418l5 -30l-387 -625h237q66 0 113 5l34 130h15q3 -33 3 -65q0 -25 -1.5 -52.5t-4.5 -47.5z" />
<glyph unicode="[" horiz-adv-x="377" d="M313 -193h-169v953h169v-24h-127v-905h127v-24z" />
<glyph unicode="\" horiz-adv-x="394" d="M271 -10l-187 752l8 8l30 5l188 -752l-8 -8z" />
<glyph unicode="]" horiz-adv-x="377" d="M64 755h169v-953h-169v24h127v905h-127v24z" />
<glyph unicode="^" horiz-adv-x="526" d="M135 210h-45l142 335h56l147 -335h-44l-131 299z" />
<glyph unicode="_" horiz-adv-x="512" d="M48 -145v35h416v-35h-416z" />
<glyph unicode="`" horiz-adv-x="367" d="M267 593l-12 -12q-33 25 -69 53.5t-61 54.5t-25 43q0 10 8 16.5t24 6.5h4l5 -2q17 -31 51.5 -74t74.5 -86z" />
<glyph unicode="a" horiz-adv-x="496" d="M249 506q65 0 100 -34t35 -98q0 -22 -0.5 -57t-1.5 -75.5t-1.5 -80.5t-0.5 -73q0 -37 10.5 -51t38.5 -14q22 0 44 7l4 -9q-13 -13 -32 -22t-42 -9q-28 0 -45.5 18.5t-19.5 50.5q-28 -28 -66 -48.5t-84 -20.5q-58 0 -91 29.5t-33 80.5q0 48 35.5 85.5t98 60t142.5 24.5 q1 36 1.5 63t0.5 39q0 48 -27.5 74t-74.5 26q-35 0 -62 -15t-42 -37t-15 -45q0 -17 7 -32q-9 -6 -21 -6q-15 0 -24 9.5t-9 25.5q0 30 25.5 61t66 52t83.5 21zM107 102q0 -40 23.5 -58.5t63.5 -18.5q41 0 78.5 20.5t65.5 51.5q0 36 0.5 72.5t1.5 70.5q-70 -2 -122.5 -20 t-81.5 -48t-29 -70z" />
<glyph unicode="b" horiz-adv-x="540" d="M121 -10l-10 5v715l-73 6l-2 14q23 8 52.5 14.5t52.5 10.5l10 -10v-301q25 25 61.5 43t78.5 18q93 0 143 -69t50 -186q0 -77 -26.5 -136t-74.5 -91.5t-115 -32.5q-33 0 -64.5 7.5t-53.5 16.5zM270 23q82 0 126.5 62t44.5 165q0 101 -40.5 161.5t-111.5 60.5 q-43 0 -77 -18.5t-61 -50.5v-350q22 -13 53 -21.5t66 -8.5z" />
<glyph unicode="c" horiz-adv-x="443" d="M411 70q-25 -37 -66 -58.5t-88 -21.5q-92 0 -146.5 66.5t-54.5 178.5q0 79 25.5 140t71 95.5t104.5 34.5q41 0 73.5 -16.5t51.5 -44.5t19 -64q0 -19 -7.5 -31t-21.5 -12q-10 0 -18 3q3 18 3 30q0 46 -28.5 74t-75.5 28q-45 0 -79.5 -28t-54.5 -77t-20 -113 q0 -106 43.5 -167.5t122.5 -61.5q78 0 134 55z" />
<glyph unicode="d" horiz-adv-x="544" d="M525 21q-11 -11 -30.5 -21t-43.5 -10q-29 0 -45.5 17.5t-18.5 49.5q-22 -24 -60 -45.5t-86 -21.5q-52 0 -94 27t-66.5 82t-24.5 137q0 86 32 146t83.5 91.5t108.5 31.5q28 0 54.5 -5t51.5 -13v223l-93 6l-2 14q26 9 61.5 15t63.5 10l10 -10v-641q0 -41 10.5 -61t40.5 -20 q14 0 24 2t20 5zM99 235q0 -104 42 -157.5t103 -53.5q46 0 83 23t59 50v348q-24 14 -52 20.5t-56 6.5q-50 0 -90.5 -26t-64.5 -78.5t-24 -132.5z" />
<glyph unicode="e" horiz-adv-x="459" d="M411 70q-25 -37 -67 -58.5t-90 -21.5q-91 0 -144.5 66.5t-53.5 178.5q0 79 25.5 140t71 95.5t104.5 34.5q69 0 110.5 -48t41.5 -133q0 -13 -0.5 -27.5t-1.5 -28.5l-9 -10h-299v-4q0 -106 45 -167.5t121 -61.5q78 0 134 55zM253 472q-64 0 -105 -51.5t-48 -134.5l265 5 q1 11 1 20.5v14.5q0 71 -29.5 108.5t-83.5 37.5z" />
<glyph unicode="f" horiz-adv-x="309" d="M162 35l95 -19l-2 -16h-206l-2 16l48 13q17 5 22 10.5t5 20.5v400h-73l-2 16l75 14v18q0 76 23 131t64 85.5t95 30.5q49 0 81 -26t32 -58q0 -27 -25 -27q-5 0 -7 1q-9 34 -31.5 55.5t-60.5 21.5q-61 0 -96 -53.5t-35 -148.5v-30h137v-30h-137v-425z" />
<glyph unicode="g" horiz-adv-x="471" d="M76 317q0 55 21 97t58 66.5t84 24.5t84 -27q16 10 38 19t41 14.5t28 5.5q17 0 17 -23q0 -11 -2 -19q-1 -7 -6 -10.5t-16 -3.5q-22 0 -41.5 -0.5t-38.5 -1.5q20 -23 31.5 -55t11.5 -71q0 -82 -43 -132.5t-114 -50.5q-20 0 -38 5q-12 -13 -19.5 -27.5t-7.5 -32.5 q0 -22 12 -33t37 -13l88 -9q68 -7 104.5 -42t36.5 -92q0 -47 -28 -83.5t-76.5 -57t-112.5 -20.5q-82 0 -133 37.5t-51 98.5q0 59 53 102l12 -10q-22 -38 -22 -76q0 -55 40 -87t110 -32q74 0 119.5 34t45.5 87q0 44 -28.5 70t-81.5 31l-85 8q-37 4 -57 25t-20 50 q0 21 10.5 41t28.5 39q-41 19 -65.5 60t-24.5 94zM343 322q0 71 -28.5 110.5t-79.5 39.5t-83.5 -39.5t-32.5 -101.5q0 -64 31 -105.5t80 -42.5q53 -1 83 36.5t30 102.5z" />
<glyph unicode="h" horiz-adv-x="568" d="M154 35l75 -19l-2 -16h-186l-2 16l48 13q17 5 22 10.5t5 20.5v650l-73 6l-2 14q23 8 52.5 14.5t52.5 10.5l10 -10v-304q35 30 76 47t83 17q69 0 105 -39t36 -113v-318l75 -19l-2 -16h-186l-2 16l48 13q17 5 22 10.5t5 20.5v293q0 57 -27 88t-81 31q-82 0 -152 -67v-370z " />
<glyph unicode="i" horiz-adv-x="276" d="M167 665q0 -17 -8.5 -32t-28.5 -15q-16 0 -25.5 12.5t-9.5 30.5t10.5 32.5t27.5 14.5t25.5 -12t8.5 -31zM162 35l75 -19l-2 -16h-186l-2 16l48 13q17 5 22 10.5t5 20.5v400l-73 6l-2 14q23 8 52.5 14.5t52.5 10.5l10 -10v-460z" />
<glyph unicode="j" horiz-adv-x="256" d="M160 665q0 -17 -8.5 -32t-28.5 -15q-16 0 -25.5 12.5t-9.5 30.5t10.5 32.5t27.5 14.5t25.5 -12t8.5 -31zM29 -241q26 37 45.5 69.5t30 76.5t10.5 114v441l-73 6l-2 14q23 8 52.5 14.5t52.5 10.5l10 -10v-505q0 -63 -12 -104t-36.5 -73t-62.5 -68z" />
<glyph unicode="k" horiz-adv-x="528" d="M154 35l75 -19l-2 -16h-186l-2 16l48 13q17 5 22 10.5t5 20.5v651l-73 6l-2 14q23 8 52.5 14.5t52.5 10.5l10 -10v-466h114l113 180l-75 19l2 16h177l2 -16l-44 -13q-13 -4 -21 -11.5t-19 -24.5l-105 -155l108 -181q16 -26 30 -42t34 -22l34 -10l-2 -20h-36 q-34 0 -52 15.5t-36 46.5l-111 188h-113v-215z" />
<glyph unicode="l" horiz-adv-x="268" d="M154 35l75 -19l-2 -16h-186l-2 16l48 13q17 5 22 10.5t5 20.5v651l-73 6l-2 14q23 8 52.5 14.5t52.5 10.5l10 -10v-711z" />
<glyph unicode="m" horiz-adv-x="856" d="M162 35l75 -19l-2 -16h-186l-2 16l48 13q17 5 22 10.5t5 20.5v400l-73 6l-2 14q23 8 52.5 14.5t52.5 10.5l10 -10v-54q34 29 74 46.5t80 17.5q89 0 121 -69q71 69 159 69q71 0 108.5 -39t37.5 -113v-318l75 -19l-2 -16h-186l-2 16l48 13q17 5 22 10.5t5 20.5v293 q0 57 -27.5 88t-82.5 31q-80 0 -146 -64q6 -25 6 -55v-318l75 -19l-2 -16h-186l-2 16l48 13q17 5 22 10.5t5 20.5v293q0 57 -25.5 88t-77.5 31q-38 0 -76 -17.5t-71 -49.5v-370z" />
<glyph unicode="n" horiz-adv-x="576" d="M162 35l75 -19l-2 -16h-186l-2 16l48 13q17 5 22 10.5t5 20.5v400l-73 6l-2 14q23 8 52.5 14.5t52.5 10.5l10 -10v-54q35 30 76 47t83 17q69 0 105 -39t36 -113v-318l75 -19l-2 -16h-186l-2 16l48 13q17 5 22 10.5t5 20.5v293q0 57 -27 88t-81 31q-82 0 -152 -67v-370z " />
<glyph unicode="o" horiz-adv-x="498" d="M442 250q0 -84 -26 -142t-70 -87.5t-99 -30.5q-54 0 -97.5 30t-68.5 88.5t-25 142.5t29 140.5t75 85t96 28.5t92.5 -28.5t68 -85t25.5 -141.5zM99 249q0 -63 18 -114.5t51.5 -81.5t78.5 -30q70 0 111 55t41 167q0 67 -17.5 118t-50 80t-76.5 29q-67 0 -111.5 -55 t-44.5 -168z" />
<glyph unicode="p" horiz-adv-x="543" d="M273 23q78 0 124.5 62t46.5 166q0 100 -39 160.5t-113 60.5q-43 0 -77 -18.5t-61 -50.5v-350q22 -13 53 -21.5t66 -8.5zM154 -210l95 -19l-2 -16h-206l-2 16l48 13q17 5 22 10.5t5 20.5v645l-73 6l-2 14q23 8 52.5 14.5t52.5 10.5l10 -10v-51q24 24 61 42.5t79 18.5 q95 0 144 -69.5t49 -185.5q0 -77 -27 -136t-75.5 -91.5t-113.5 -32.5q-33 0 -64 7.5t-53 16.5v-224z" />
<glyph unicode="q" horiz-adv-x="532" d="M426 -210l75 -19l-2 -16h-186l-2 16l48 13q17 5 22 10.5t5 20.5v241q-21 -23 -59 -44.5t-86 -21.5q-52 0 -94 28t-66.5 83.5t-24.5 139.5t32 143t83.5 90t108.5 31q30 0 58 -5.5t54 -14.5l24 20l10 -5v-710zM278 472q-50 0 -90.5 -25.5t-64.5 -77t-24 -129.5 q0 -107 42 -162t103 -55q46 0 83 23.5t59 50.5v348q-24 14 -52 20.5t-56 6.5z" />
<glyph unicode="r" horiz-adv-x="388" d="M162 35l95 -19l-2 -16h-206l-2 16l48 13q17 5 22 10.5t5 20.5v400l-73 6l-2 14q23 8 52.5 14.5t52.5 10.5l10 -10v-71q31 39 65.5 60t69.5 21q32 0 49.5 -15.5t17.5 -33.5q0 -14 -7 -22t-13 -12q-2 -1 -5 -2q-10 20 -23 32.5t-37 12.5q-34 0 -64.5 -27t-52.5 -58v-345z " />
<glyph unicode="s" horiz-adv-x="404" d="M187 -10q-25 0 -51.5 4t-46 10.5t-25.5 12.5q-4 5 -6 16t-2 34q0 19 1.5 39.5t4.5 38.5h15q5 -46 12 -68.5t20 -36.5q17 -17 84 -17q51 0 81.5 24.5t30.5 66.5q0 33 -17.5 54t-45.5 37t-59 30t-59 32t-45.5 44.5t-17.5 65.5q0 37 21 66t56.5 45.5t78.5 16.5q38 0 71 -8 t42 -19q4 -4 5 -13.5t1 -30.5q0 -17 -1.5 -40.5t-4.5 -43.5h-15q-4 50 -10.5 72.5t-18.5 31.5q-27 18 -74 18q-48 0 -78 -25t-30 -70q0 -32 17.5 -54t45.5 -37.5t59 -30.5t59 -32.5t45.5 -42.5t17.5 -62q0 -57 -44.5 -92.5t-116.5 -35.5z" />
<glyph unicode="t" horiz-adv-x="405" d="M373 70q-25 -35 -62 -57.5t-77 -22.5q-55 0 -84 36t-29 104v330h-88l-2 16l90 14l20 150l20 -2v-148h185v-30h-185v-315q0 -61 19.5 -90.5t61.5 -29.5q30 0 60.5 14.5t58.5 40.5z" />
<glyph unicode="u" horiz-adv-x="590" d="M119 160v300l-73 6l-2 14q23 8 52.5 14.5t52.5 10.5l10 -10v-335q0 -66 31 -101t91 -35q39 0 77 20t66 53v363l-73 6l-2 14q23 8 52.5 14.5t52.5 10.5l10 -10v-391q0 -44 11.5 -62.5t39.5 -18.5q19 0 44 7l4 -9q-31 -31 -74 -31q-59 0 -64 67q-28 -29 -69 -48t-83 -19 q-75 0 -114.5 44t-39.5 126z" />
<glyph unicode="v" horiz-adv-x="545" d="M437 430l-147 -430h-35l-147 430q-6 17 -13.5 24.5t-22.5 11.5l-48 13l2 16h192l2 -16l-78 -19l136 -407h1l133 407l-77 19l2 16h182l2 -16l-46 -13q-16 -4 -24.5 -12t-13.5 -24z" />
<glyph unicode="w" horiz-adv-x="842" d="M439 495l157 -442h1l112 407l-77 19l2 16h182l2 -16l-46 -13q-30 -8 -38 -36l-125 -430h-35l-154 433l-151 -433h-35l-126 430q-5 17 -13 24.5t-23 11.5l-48 13l2 16h192l2 -16l-78 -19l116 -407h1l149 442h31z" />
<glyph unicode="x" horiz-adv-x="527" d="M140 460l129 -183l124 183l-75 19l2 16h176l2 -16l-44 -13q-13 -4 -20.5 -12t-19.5 -24l-129 -176l134 -189q11 -17 17.5 -24t22.5 -12l44 -13l-2 -16h-185l-2 16l78 19l-134 190l-129 -190l75 -19l-2 -16h-176l-2 16l44 13q14 4 21 12t19 24l134 183l-129 182 q-11 17 -17 24.5t-23 11.5l-44 13l2 16h185l2 -16z" />
<glyph unicode="y" horiz-adv-x="555" d="M36 495h192l2 -16l-78 -19l137 -406l133 406l-77 19l2 16h182l2 -16l-46 -13q-16 -4 -24.5 -12t-13.5 -24l-147 -430q-27 -78 -56 -135.5t-65 -88.5t-85 -31q-29 0 -49.5 14.5t-20.5 34.5q0 19 14 27l4 2q9 -13 25 -25.5t41 -12.5q35 0 63.5 27.5t52.5 74.5t44 105 l-150 438q-6 17 -13.5 24.5t-22.5 11.5l-48 13z" />
<glyph unicode="z" horiz-adv-x="458" d="M402 66q-1 -20 -2 -35t-4 -31h-334l-6 30l300 435h-244l-30 -115h-15q-3 17 -4.5 37t-1.5 45q1 20 2 34t4 29h329l6 -30l-300 -435h248l31 115h15q3 -16 4.5 -35t1.5 -44z" />
<glyph unicode="{" horiz-adv-x="403" d="M104 295q53 0 79 24.5t26 69.5q0 42 -9 79.5t-18.5 75.5t-9.5 81q0 63 43 97.5t121 34.5l3 -18q-67 -4 -95.5 -31t-28.5 -80q0 -42 9 -79.5t18 -75.5t9 -82q0 -34 -15.5 -64t-53.5 -45q38 -15 53.5 -45t15.5 -64q0 -43 -9 -81.5t-18 -76t-9 -79.5q0 -53 28.5 -79.5 t95.5 -31.5l-3 -18q-78 0 -121 34.5t-43 97.5q0 43 9.5 81t18.5 75.5t9 79.5q0 45 -26 69.5t-79 24.5v26z" />
<glyph unicode="|" horiz-adv-x="328" d="M151 -255l-7 7v1000l33 3l7 -7v-1000z" />
<glyph unicode="}" horiz-adv-x="403" d="M299 295v-26q-52 0 -78.5 -24.5t-26.5 -69.5q0 -42 9.5 -79.5t18.5 -75.5t9 -81q0 -63 -43 -97.5t-121 -34.5l-3 18q68 5 96 31.5t28 79.5q0 42 -9 79.5t-18 76t-9 81.5q0 34 15.5 64t53.5 45q-38 15 -53.5 45t-15.5 64q0 44 9 82t18 75.5t9 79.5q0 53 -28 80t-96 31 l3 18q78 0 121 -34.5t43 -97.5q0 -43 -9 -81t-18.5 -75.5t-9.5 -79.5q0 -45 26.5 -69.5t78.5 -24.5z" />
<glyph unicode="~" horiz-adv-x="520" d="M382 218q-11 0 -36 5.5t-57.5 13.5t-64.5 16.5t-56.5 14t-34.5 5.5q-9 0 -26 -19t-37 -43l-25 15q11 19 25 39t30 34.5t34 14.5q11 0 35.5 -5.5t56 -13.5t63 -16.5t57 -14t37.5 -5.5q9 0 26 18.5t37 43.5l25 -15q-10 -18 -24 -38.5t-30 -35t-35 -14.5z" />
<glyph unicode="&#xa1;" horiz-adv-x="280" d="M104 458q0 17 9 32t28 15q17 0 26 -12.5t9 -30.5t-10.5 -32.5t-27.5 -14.5q-16 0 -25 12t-9 31zM169 -190l-3 -3l-15 -3q-6 -1 -14 -2.5t-15 -1.5q-14 0 -14 15q0 8 0.5 16.5t0.5 15.5l17 458h28z" />
<glyph unicode="&#xa2;" horiz-adv-x="469" d="M279 -137l-28 -3l-7 7v124q-87 7 -137.5 79t-50.5 198q0 73 23.5 133t65.5 98t99 45v133l28 3l7 -7v-129q37 -2 66.5 -19t47.5 -44t18 -61q0 -19 -7.5 -31t-21.5 -12q-10 0 -18 3q3 18 3 30q0 47 -29 74.5t-75 27.5q-49 0 -86 -30t-57.5 -84t-20.5 -126q0 -113 45 -180 t126 -67q78 0 139 55l12 -10q-23 -34 -60.5 -55t-81.5 -24v-128z" />
<glyph unicode="&#xa3;" horiz-adv-x="581" d="M77 298l4 35h117q5 30 9.5 59.5t9.5 56.5q20 119 68 183t124 64q34 0 60 -15t40.5 -38t14.5 -46q0 -19 -8.5 -26.5t-18.5 -9.5q-15 53 -40.5 78t-63.5 25q-54 0 -85 -52.5t-48 -150.5l-22 -128h190l-4 -35h-192l-16 -89q-10 -55 -26.5 -103t-40.5 -79q32 -14 70.5 -33.5 t80 -39t82.5 -32.5t77 -13q21 0 36 3.5t27 9.5q3 -7 3 -17q0 -21 -20.5 -31t-51.5 -10q-39 0 -82 16t-86.5 39.5t-84 46.5t-74.5 37q-25 -19 -53 -19q-14 0 -23.5 6.5t-9.5 18.5q0 16 14.5 25t35.5 9q13 0 33 -6q24 39 40.5 110.5t29.5 150.5h-116z" />
<glyph unicode="&#xa4;" horiz-adv-x="542" d="M453 133l-73 73q-23 -20 -52.5 -31.5t-65.5 -11.5q-33 0 -60 9t-49 24l-63 -63l-26 26l62 62q-42 48 -42 116q0 72 48 126l-68 70l25 25l71 -70q22 16 49 25.5t59 9.5q33 0 60.5 -10t49.5 -28l73 73l26 -26l-73 -73q40 -49 40 -112q0 -62 -38 -113q21 -21 39.5 -39 t32.5 -32v-11zM264 488q-42 0 -73.5 -21t-49 -54t-17.5 -71q0 -35 16.5 -68t48 -54.5t76.5 -21.5t76 21t47 54.5t16 70.5t-17.5 69.5t-48.5 53.5t-74 21z" />
<glyph unicode="&#xa5;" horiz-adv-x="671" d="M136 132v35h178v98h-178v35h178v2l-187 314q-10 17 -16.5 25t-20.5 11l-58 13l2 20h211l2 -20l-84 -19l176 -308h2l175 308l-84 19l2 20h203l2 -20l-56 -13q-17 -4 -25 -12t-17 -24l-185 -316v0h180v-35h-180v-98h180v-35h-180v-12h-1v-81l85 -19l-2 -20h-208l-2 20 l58 13q17 4 22 10t5 20v57h1v12h-178z" />
<glyph unicode="&#xa6;" horiz-adv-x="328" d="M184 377l-23 -3l-17 7v371l33 3l7 -7v-371zM184 -252l-23 -3l-17 7v371l33 3l7 -7v-371z" />
<glyph unicode="&#xa7;" horiz-adv-x="521" d="M457 49q0 -51 -20.5 -92t-54 -69.5t-74 -43.5t-81.5 -15q-47 0 -84 11t-58 28t-21 36q0 15 8 25.5t21 19.5l11 -2q29 -37 74.5 -58.5t98.5 -24.5q17 17 28 49.5t11 72.5q0 41 -18.5 80t-47 76.5t-61 76t-61 79t-46.5 84.5t-18 93q0 51 20.5 92t54 69.5t74 43.5t81.5 15 q46 0 83 -11t58.5 -28t21.5 -36q0 -15 -7.5 -25.5t-21.5 -19.5l-11 2q-27 38 -72 59.5t-99 23.5q-16 -16 -28.5 -48.5t-12.5 -72.5q0 -42 18 -81t47 -76.5t61 -75t61 -77.5t47 -84.5t18 -95.5zM107 480q0 -46 18 -87.5t47 -80.5t61 -77.5t61 -78t47 -80.5t18 -87 q0 -25 -5 -48.5t-12 -37.5l7 -4q26 23 45.5 59.5t19.5 85.5q0 48 -18 90t-47 80.5t-61 76.5t-61 76t-47 79.5t-18 88.5q0 25 5 48.5t12 37.5l-7 4q-26 -23 -45.5 -59.5t-19.5 -85.5z" />
<glyph unicode="&#xa8;" horiz-adv-x="460" d="M360 670q0 -18 -8.5 -33.5t-27.5 -15.5q-16 0 -25 12.5t-9 29.5q0 19 10.5 33.5t26.5 14.5t24.5 -11.5t8.5 -29.5zM170 670q0 -18 -8.5 -33.5t-27.5 -15.5q-16 0 -25 12.5t-9 29.5q0 19 10.5 33.5t26.5 14.5t24.5 -11.5t8.5 -29.5z" />
<glyph unicode="&#xa9;" horiz-adv-x="728" d="M364 -47q-85 0 -153 39.5t-107.5 106.5t-39.5 151q0 61 23.5 114.5t64.5 94t95.5 63.5t116.5 23q64 0 118.5 -23t95.5 -63.5t63.5 -94t22.5 -114.5t-23.5 -115t-64.5 -95t-95.5 -64t-116.5 -23zM364 -9q54 0 101.5 20.5t83.5 56t56.5 82.5t20.5 100q0 71 -35.5 129.5 t-94.5 93t-132 34.5q-72 0 -131.5 -34.5t-95 -93t-35.5 -129.5q0 -73 34.5 -132t94 -93t133.5 -34zM479 135q-16 -25 -44 -40t-60 -15q-62 0 -102 44.5t-40 120.5q0 51 18 90.5t49.5 62t71.5 22.5q42 0 70 -24t28 -60q0 -29 -26 -29q-11 0 -19 4q1 6 1 10v8q0 26 -15.5 42 t-40.5 16q-42 0 -68 -39t-26 -98q0 -61 31 -98t72 -37q24 0 46.5 10t38.5 25z" />
<glyph unicode="&#xaa;" horiz-adv-x="441" d="M216 695q53 0 81.5 -27t28.5 -77q0 -22 -0.5 -61.5t-1.5 -82t-1 -75.5q0 -29 9 -40t31 -11q10 0 18 1t18 4l4 -7q-10 -11 -26.5 -18.5t-34.5 -7.5q-23 0 -37.5 14t-16.5 40q-23 -23 -54 -38.5t-69 -15.5q-47 0 -74 23t-27 63q0 37 29 66.5t80 47t117 19.5q1 28 1.5 49.5 t0.5 30.5q0 37 -22.5 57t-61.5 20q-43 0 -70 -24.5t-27 -50.5q0 -15 5 -26q-8 -5 -17 -5q-27 0 -27 28q0 24 21 48t54 40t69 16zM99 382q0 -31 19 -45.5t52 -14.5t63.5 15t54.5 39q0 28 0.5 56.5t1.5 55.5q-86 -2 -138.5 -31t-52.5 -75z" />
<glyph unicode="&#xab;" horiz-adv-x="538" d="M253 29l-16 -8q-25 42 -53.5 82.5t-53.5 72t-42 46.5l-4 6v40q33 36 74 92.5t81 117.5l15 -9q-25 -52 -60 -111.5t-67 -110.5q18 -24 40 -59.5t44 -76.5t42 -82zM453 29l-16 -8q-25 42 -53.5 82.5t-53.5 72t-42 46.5l-4 6v40q33 36 74 92.5t81 117.5l15 -9 q-25 -52 -60 -111.5t-67 -110.5q18 -24 40 -59.5t44 -76.5t42 -82z" />
<glyph unicode="&#xac;" d="M475 440v-203h-40v171h-370v35q34 1 87.5 2t112.5 1.5t113 1t89 0.5z" />
<glyph unicode="&#xae;" horiz-adv-x="728" d="M364 -47q-85 0 -153 39.5t-107.5 106.5t-39.5 151q0 61 23.5 114.5t64.5 94t95.5 63.5t116.5 23q64 0 118.5 -23t95.5 -63.5t63.5 -94t22.5 -114.5t-23.5 -115t-64.5 -95t-95.5 -64t-116.5 -23zM364 -9q54 0 101.5 20.5t83.5 56t56.5 82.5t20.5 100q0 71 -35.5 129.5 t-94.5 93t-132 34.5q-72 0 -131.5 -34.5t-95 -93t-35.5 -129.5q0 -73 34.5 -132t94 -93t133.5 -34zM357 385h-40v-139h51q36 0 60.5 17t24.5 53t-26 52.5t-70 16.5zM317 120l51 -13l-2 -22h-137l-1 22l33 8q10 2 13 6.5t3 12.5v232q0 8 -3 12.5t-13 6.5l-33 8l1 22h134 q57 0 95 -25t38 -75q-1 -32 -20 -54.5t-49 -34.5l37 -65q11 -19 22.5 -31.5t24.5 -16.5l20 -6l-1 -22l-25 -1q-28 -1 -41 10.5t-27 34.5l-50 87h-70v-96z" />
<glyph unicode="&#xaf;" horiz-adv-x="454" d="M100 653v34h254v-34h-254z" />
<glyph unicode="&#xb0;" horiz-adv-x="359" d="M190 460q-46 0 -79 30.5t-33 82.5q0 35 16.5 62.5t44 43.5t59.5 16q47 0 79 -30.5t32 -81.5q0 -34 -16.5 -62t-43.5 -44.5t-59 -16.5zM194 660q-36 0 -57 -25t-21 -60q0 -34 21.5 -57t55.5 -23q35 0 56.5 24.5t21.5 61.5q0 34 -21 56.5t-56 22.5z" />
<glyph unicode="&#xb1;" d="M475 409h-180v-178h-40v178h-185v35q32 1 81.5 2t103.5 1v174h40v-173q52 0 99 0.5t78 0.5l8 -8zM485 76h-405v35q34 1 87 2t112.5 1.5t113.5 1t89 0.5l8 -8z" />
<glyph unicode="&#xb2;" horiz-adv-x="382" d="M61 356l-5 21q60 55 108.5 98.5t77.5 84t29 84.5q0 38 -23 61.5t-63 23.5q-35 0 -63 -18.5t-49 -44.5l-9 4q18 38 51.5 61.5t78.5 23.5q53 0 82.5 -30.5t29.5 -76.5q0 -45 -28.5 -85.5t-77 -84t-110.5 -96.5h169q26 0 36 12.5t21 46.5l10 -1q0 -19 -3 -41.5t-10 -42.5 h-252z" />
<glyph unicode="&#xb3;" horiz-adv-x="382" d="M120 538l-1 18q69 13 113 36t44 69q0 29 -23 48.5t-59 19.5q-37 0 -65.5 -18t-52.5 -45l-8 4q21 39 55.5 62t77.5 23q48 0 78.5 -25t30.5 -65q0 -32 -19 -54t-47 -35.5t-54 -18.5q56 -3 96 -29t40 -72q0 -47 -42.5 -78.5t-108.5 -31.5q-54 0 -86.5 19t-32.5 49 q0 27 31 41l6 -5q-3 -7 -3 -21q0 -63 88 -63q48 0 81.5 22.5t33.5 65.5q0 29 -19.5 48t-49.5 28.5t-64 9.5q-10 0 -19.5 -0.5t-20.5 -1.5z" />
<glyph unicode="&#xb4;" horiz-adv-x="367" d="M267 732q0 -17 -25 -43t-61 -54.5t-69 -53.5l-12 12q40 43 75 86t51 74l5 2h4q17 0 24.5 -6.5t7.5 -16.5z" />
<glyph unicode="&#xb6;" horiz-adv-x="585" d="M252 -138q50 0 81.5 27.5t46 74.5t14.5 106v580h-74v-420h-31q-61 0 -112.5 27t-82 79t-30.5 127q0 73 31 122t83.5 74.5t115.5 25.5h225l2 -20l-58 -13q-16 -4 -21.5 -10t-5.5 -20v-557q0 -115 -52 -175.5t-138 -60.5q-64 0 -103 32t-39 84q0 57 53 100l12 -10 q-22 -40 -22 -78q0 -42 28 -68.5t77 -26.5z" />
<glyph unicode="&#xb7;" horiz-adv-x="288" d="M143 225q-18 0 -28.5 12.5t-10.5 28.5q0 18 11.5 32.5t30.5 14.5q18 0 28 -11.5t10 -28.5q0 -18 -10 -33t-31 -15z" />
<glyph unicode="&#xb8;" horiz-adv-x="326" d="M122 -91l-3 5l15 86h31l-12 -64q36 -10 54.5 -28.5t18.5 -40.5q0 -23 -18 -39.5t-46 -26t-58 -13.5l-4 15q39 10 61 24t22 35q0 14 -13 26.5t-48 20.5z" />
<glyph unicode="&#xb9;" horiz-adv-x="270" d="M151 377l63 -12l-2 -9h-155l-1 9l40 7q14 3 18 6.5t4 13.5v332l-61 3l-1 8l89 20l6 -6v-372z" />
<glyph unicode="&#xba;" horiz-adv-x="428" d="M372 496q0 -98 -46 -150t-114 -53q-67 -1 -111.5 52.5t-44.5 151.5q0 65 24 109t61.5 66.5t78.5 22.5t75.5 -22.5t55.5 -66.5t21 -110zM91 495q0 -50 15 -90t42 -63t64 -23q58 0 91.5 43t33.5 130q0 79 -32 128t-86 49q-55 0 -91.5 -42.5t-36.5 -131.5z" />
<glyph unicode="&#xbb;" horiz-adv-x="538" d="M454 227q-33 -36 -74 -92.5t-81 -117.5l-15 9q25 53 60 112t67 110q-18 24 -40 59.5t-44 76.5t-42 82l16 8q26 -42 54 -82.5t53 -71.5t42 -47l4 -6v-40zM254 227q-33 -36 -74 -92.5t-81 -117.5l-15 9q25 53 60 112t67 110q-18 24 -40 59.5t-44 76.5t-42 82l16 8 q26 -42 54 -82.5t53 -71.5t42 -47l4 -6v-40z" />
<glyph unicode="&#xbc;" horiz-adv-x="920" d="M673 695l-422 -705h-39l421 705h40zM175 307l63 -12l-2 -9h-155l-1 9l40 7q14 3 18 6.5t4 13.5v332l-61 3l-1 8l89 20l6 -6v-372zM541 113l226 286l24 -3v-277h79l-5 -24h-74v-95h-33v95h-209zM574 119h184v238z" />
<glyph unicode="&#xbd;" horiz-adv-x="920" d="M673 695l-422 -705h-39l421 705h40zM175 307l63 -12l-2 -9h-155l-1 9l40 7q14 3 18 6.5t4 13.5v332l-61 3l-1 8l89 20l6 -6v-372zM575 0l-5 21q60 55 108.5 98.5t77.5 84t29 84.5q0 38 -23 61.5t-63 23.5q-35 0 -63 -18.5t-49 -44.5l-9 4q18 38 51.5 61.5t78.5 23.5 q53 0 82.5 -30.5t29.5 -76.5q0 -45 -28.5 -85.5t-77 -84t-110.5 -96.5h169q26 0 36 12.5t21 46.5l10 -1q0 -19 -3 -41.5t-10 -42.5h-252z" />
<glyph unicode="&#xbe;" horiz-adv-x="920" d="M713 695l-422 -705h-39l421 705h40zM134 468l-1 18q69 13 113 36t44 69q0 29 -23 48.5t-59 19.5q-37 0 -65.5 -18t-52.5 -45l-8 4q21 39 55.5 62t77.5 23q48 0 78.5 -25t30.5 -65q0 -32 -19 -54t-47 -35.5t-54 -18.5q56 -3 96 -29t40 -72q0 -47 -42.5 -78.5t-108.5 -31.5 q-54 0 -86.5 19t-32.5 49q0 27 31 41l6 -5q-3 -7 -3 -21q0 -63 88 -63q48 0 81.5 22.5t33.5 65.5q0 29 -19.5 48t-49.5 28.5t-64 9.5q-10 0 -19.5 -0.5t-20.5 -1.5zM541 113l226 286l24 -3v-277h79l-5 -24h-74v-95h-33v95h-209zM574 119h184v238z" />
<glyph unicode="&#xbf;" horiz-adv-x="416" d="M182 458q0 17 9 32t28 15q17 0 26 -12.5t9 -30.5t-10.5 -32.5t-27.5 -14.5q-16 0 -25 12t-9 31zM202 273l8 8q17 -1 28.5 -11.5t11.5 -30.5q0 -26 -18.5 -45.5t-45 -38.5t-53.5 -42.5t-45.5 -57.5t-18.5 -84q0 -63 35 -101t96 -38q64 0 104 37t40 91q0 12 -2.5 24 t-6.5 25l10 4t12 2q15 0 25 -13.5t10 -37.5q0 -43 -25.5 -80.5t-69.5 -60.5t-101 -23q-48 0 -87 21t-62 60t-23 93q0 51 21 89.5t50.5 66.5t57 47.5t41.5 31.5q8 7 8 31v33z" />
<glyph unicode="&#xc0;" horiz-adv-x="711" d="M480 795l-7 -16q-25 3 -63 11.5t-76 21.5t-64 28.5t-26 31.5q0 19 21 26l7 -1q32 -23 83 -52t125 -50zM344 685h23l218 -616q6 -17 13.5 -25t22.5 -11l58 -13l-2 -20h-212l-2 20l86 19l-75 216l-247 -4l-73 -211l85 -20l-2 -20h-203l-2 20l56 13q17 4 25 12t13 24z M238 285h226l-113 325z" />
<glyph unicode="&#xc1;" horiz-adv-x="711" d="M443 896l7 1q21 -7 21 -26q0 -16 -26 -31.5t-64 -28.5t-76 -21.5t-63 -11.5l-7 16q74 21 125 50t83 52zM344 685h23l218 -616q6 -17 13.5 -25t22.5 -11l58 -13l-2 -20h-212l-2 20l86 19l-75 216l-247 -4l-73 -211l85 -20l-2 -20h-203l-2 20l56 13q17 4 25 12t13 24z M238 285h226l-113 325z" />
<glyph unicode="&#xc2;" horiz-adv-x="711" d="M496 781l-14 -10q-27 21 -59.5 46t-66.5 47q-15 -12 -37 -29t-45.5 -34t-42.5 -30l-12 12q21 19 44.5 42t43 44t27.5 32l6 4h37q23 -22 55 -55t64 -69zM344 685h23l218 -616q6 -17 13.5 -25t22.5 -11l58 -13l-2 -20h-212l-2 20l86 19l-75 216l-247 -4l-73 -211l85 -20 l-2 -20h-203l-2 20l56 13q17 4 25 12t13 24zM238 285h226l-113 325z" />
<glyph unicode="&#xc3;" horiz-adv-x="711" d="M191 776l-14 5q9 50 26.5 76.5t48.5 26.5q20 0 52 -10.5t66 -24t62.5 -24.5t42.5 -11q10 15 21 31t27 43l14 -6q-9 -49 -25 -75.5t-48 -26.5q-19 0 -51 10.5t-67 24t-63.5 24t-41.5 11.5q-8 -9 -21.5 -28.5t-28.5 -45.5zM344 685h23l218 -616q6 -17 13.5 -25t22.5 -11 l58 -13l-2 -20h-212l-2 20l86 19l-75 216l-247 -4l-73 -211l85 -20l-2 -20h-203l-2 20l56 13q17 4 25 12t13 24zM238 285h226l-113 325z" />
<glyph unicode="&#xc4;" horiz-adv-x="711" d="M491 839q0 -17 -9.5 -32t-29.5 -15q-17 0 -27 12t-10 28q0 17 11 31t29 14q17 0 26.5 -10.5t9.5 -27.5zM301 839q0 -17 -9.5 -32t-29.5 -15q-17 0 -27 12t-10 28q0 17 11 31t29 14q17 0 26.5 -10.5t9.5 -27.5zM344 685h23l218 -616q6 -17 13.5 -25t22.5 -11l58 -13 l-2 -20h-212l-2 20l86 19l-75 216l-247 -4l-73 -211l85 -20l-2 -20h-203l-2 20l56 13q17 4 25 12t13 24zM238 285h226l-113 325z" />
<glyph unicode="&#xc5;" horiz-adv-x="711" d="M354 766q-32 0 -52.5 19t-20.5 50q0 33 23 53.5t57 20.5q33 0 54.5 -19.5t19.5 -49.5q-1 -32 -24 -53t-57 -21zM358 886q-19 0 -31.5 -14.5t-12.5 -36.5q0 -20 12 -33t31 -13q20 0 32 15t12 37q0 20 -12 32.5t-31 12.5zM344 685h23l218 -616q6 -17 13.5 -25t22.5 -11 l58 -13l-2 -20h-212l-2 20l86 19l-75 216l-247 -4l-73 -211l85 -20l-2 -20h-203l-2 20l56 13q17 4 25 12t13 24zM238 285h226l-113 325z" />
<glyph unicode="&#xc6;" horiz-adv-x="885" d="M466 655h-100l-102 -296h202v296zM34 0l-2 20l56 13q17 4 25 12t13 24l204 577l-85 19l2 20h558q3 -18 4.5 -42.5t1.5 -47.5q0 -37 -3 -75h-15l-34 130q-20 2 -51 3.5t-62 1.5h-138v-295l222 5l-2 -39l-220 4v-300h148q31 0 62 1.5t51 3.5l34 130h15q3 -33 3 -75 q0 -22 -1.5 -47t-4.5 -43h-432l-2 20l58 13q17 4 22 10t5 20v266l-214 -4l-98 -285l85 -20l-2 -20h-203z" />
<glyph unicode="&#xc7;" horiz-adv-x="626" d="M344 -91l-3 5l14 78q-141 13 -216 105.5t-75 245.5q0 109 43.5 188t117 121.5t164.5 42.5q51 0 88 -9t61 -21q3 -19 3 -46q0 -20 -1 -46.5t-5 -52.5h-15q-8 32 -16.5 64t-16.5 63q-20 6 -41.5 9.5t-55.5 3.5q-79 0 -142.5 -38t-101 -109t-37.5 -170q0 -98 35 -169.5 t99.5 -110t152.5 -38.5q43 0 64 4t40 9q8 32 16.5 64t16.5 63h15q3 -22 4.5 -45t1.5 -40t-0.5 -31.5t-2.5 -28.5q-25 -12 -64 -21t-88 -9h-14l-10 -54q36 -10 54.5 -28.5t18.5 -40.5q0 -23 -18 -39.5t-46 -26t-58 -13.5l-4 15q39 10 61 24t22 35q0 14 -13 26.5t-48 20.5z " />
<glyph unicode="&#xc8;" horiz-adv-x="565" d="M427 794l-7 -16q-25 3 -63 11.5t-76 21.5t-64 28.5t-26 31.5q0 19 21 26l7 -1q32 -23 83 -52t125 -50zM188 360l222 5l-2 -39l-220 4v-300h148q31 0 62 1.5t51 3.5l34 130h15q3 -33 3 -75q0 -22 -1.5 -47t-4.5 -43h-432l-2 20l58 13q17 4 22 10t5 20v559q0 14 -5 20 t-22 10l-58 13l2 20h422q3 -18 4.5 -42.5t1.5 -47.5q0 -37 -3 -75h-15l-34 130q-20 2 -51 3.5t-62 1.5h-138v-295z" />
<glyph unicode="&#xc9;" horiz-adv-x="565" d="M409 895l7 1q21 -7 21 -26q0 -16 -26 -31.5t-64 -28.5t-76 -21.5t-63 -11.5l-7 16q74 21 125 50t83 52zM188 360l222 5l-2 -39l-220 4v-300h148q31 0 62 1.5t51 3.5l34 130h15q3 -33 3 -75q0 -22 -1.5 -47t-4.5 -43h-432l-2 20l58 13q17 4 22 10t5 20v560q0 14 -5 20 t-22 10l-58 13l2 20h422q3 -18 4.5 -42.5t1.5 -47.5q0 -37 -3 -75h-15l-34 130q-20 2 -51 3.5t-62 1.5h-138v-296z" />
<glyph unicode="&#xca;" horiz-adv-x="565" d="M457 780l-14 -10q-27 21 -59.5 46t-66.5 47q-15 -12 -37 -29t-45.5 -34t-42.5 -30l-12 12q21 19 44.5 42t43 44t27.5 32l6 4h37q23 -22 55 -55t64 -69zM188 360l222 5l-2 -39l-220 4v-300h148q31 0 62 1.5t51 3.5l34 130h15q3 -33 3 -75q0 -22 -1.5 -47t-4.5 -43h-432 l-2 20l58 13q17 4 22 10t5 20v559q0 14 -5 20t-22 10l-58 13l2 20h422q3 -18 4.5 -42.5t1.5 -47.5q0 -37 -3 -75h-15l-34 130q-20 2 -51 3.5t-62 1.5h-138v-295z" />
<glyph unicode="&#xcb;" horiz-adv-x="565" d="M452 838q0 -17 -9.5 -32t-29.5 -15q-17 0 -27 12t-10 28q0 17 11 31t29 14q17 0 26.5 -10.5t9.5 -27.5zM262 838q0 -17 -9.5 -32t-29.5 -15q-17 0 -27 12t-10 28q0 17 11 31t29 14q17 0 26.5 -10.5t9.5 -27.5zM188 360l222 5l-2 -39l-220 4v-300h148q31 0 62 1.5t51 3.5 l34 130h15q3 -33 3 -75q0 -22 -1.5 -47t-4.5 -43h-432l-2 20l58 13q17 4 22 10t5 20v559q0 14 -5 20t-22 10l-58 13l2 20h422q3 -18 4.5 -42.5t1.5 -47.5q0 -37 -3 -75h-15l-34 130q-20 2 -51 3.5t-62 1.5h-138v-295z" />
<glyph unicode="&#xcc;" horiz-adv-x="334" d="M286 795l-7 -16q-25 3 -63 11.5t-76 21.5t-64 28.5t-26 31.5q0 19 21 26l7 -1q32 -23 83 -52t125 -50zM188 39l85 -19l-2 -20h-208l-2 20l58 13q17 4 22 10t5 20v583l-85 19l2 20h208l2 -20l-58 -13q-16 -4 -21.5 -10t-5.5 -20v-583z" />
<glyph unicode="&#xcd;" horiz-adv-x="334" d="M258 896l7 1q21 -7 21 -26q0 -16 -26 -31.5t-64 -28.5t-76 -21.5t-63 -11.5l-7 16q74 21 125 50t83 52zM188 39l85 -19l-2 -20h-208l-2 20l58 13q17 4 22 10t5 20v583l-85 19l2 20h208l2 -20l-58 -13q-16 -4 -21.5 -10t-5.5 -20v-583z" />
<glyph unicode="&#xce;" horiz-adv-x="334" d="M306 781l-14 -10q-27 21 -59.5 46t-66.5 47q-15 -12 -37 -29t-45.5 -34t-42.5 -30l-12 12q21 19 44.5 42t43 44t27.5 32l6 4h37q23 -22 55 -55t64 -69zM188 39l85 -19l-2 -20h-208l-2 20l58 13q17 4 22 10t5 20v583l-85 19l2 20h208l2 -20l-58 -13q-16 -4 -21.5 -10 t-5.5 -20v-583z" />
<glyph unicode="&#xcf;" horiz-adv-x="334" d="M301 839q0 -17 -9.5 -32t-29.5 -15q-17 0 -27 12t-10 28q0 17 11 31t29 14q17 0 26.5 -10.5t9.5 -27.5zM111 839q0 -17 -9.5 -32t-29.5 -15q-17 0 -27 12t-10 28q0 17 11 31t29 14q17 0 26.5 -10.5t9.5 -27.5zM188 39l85 -19l-2 -20h-208l-2 20l58 13q17 4 22 10t5 20 v583l-85 19l2 20h208l2 -20l-58 -13q-16 -4 -21.5 -10t-5.5 -20v-583z" />
<glyph unicode="&#xd0;" horiz-adv-x="682" d="M398 337h-193v-305h78q95 0 159.5 38.5t97.5 108t33 163.5t-33 164t-97.5 108.5t-159.5 38.5h-78v-286h193v-30zM618 342q0 -104 -39 -181t-113 -119t-179 -42h-207l-2 20l58 13q17 4 22 10t5 20v274h-102v30h102v255q0 14 -5 20t-22 10l-58 13l2 20h207q105 0 179 -42.5 t113 -119.5t39 -181z" />
<glyph unicode="&#xd1;" horiz-adv-x="736" d="M199 776l-14 5q9 50 26.5 76.5t48.5 26.5q20 0 52 -10.5t66 -24t62.5 -24.5t42.5 -11q10 15 21 31t27 43l14 -6q-9 -49 -25 -75.5t-48 -26.5q-19 0 -51 10.5t-67 24t-63.5 24t-41.5 11.5q-8 -9 -21.5 -28.5t-28.5 -45.5zM181 39l105 -19l-2 -20h-221l-2 20l58 13 q17 4 22 10t5 20v559q0 14 -5 20t-22 10l-58 13l2 20h118l390 -610v571l-85 19l2 20h201l2 -20l-58 -13q-16 -4 -21.5 -10t-5.5 -20v-622h-35l-390 606v-567z" />
<glyph unicode="&#xd2;" horiz-adv-x="648" d="M448 795l-7 -16q-25 3 -63 11.5t-76 21.5t-64 28.5t-26 31.5q0 19 21 26l7 -1q32 -23 83 -52t125 -50zM64 343q0 109 34.5 188t95 121.5t138.5 42.5q75 0 131.5 -42.5t88.5 -120t32 -184.5t-32 -187.5t-90.5 -125.5t-138.5 -45q-79 0 -137.5 42.5t-90 122t-31.5 188.5z M109 343q0 -98 27 -169.5t76 -110t114 -38.5t113 40.5t74 113.5t26 169q0 95 -26 165t-72.5 108.5t-108.5 38.5q-66 0 -116 -38.5t-78.5 -109.5t-28.5 -169z" />
<glyph unicode="&#xd3;" horiz-adv-x="648" d="M420 896l7 1q21 -7 21 -26q0 -16 -26 -31.5t-64 -28.5t-76 -21.5t-63 -11.5l-7 16q74 21 125 50t83 52zM64 343q0 109 34.5 188t95 121.5t138.5 42.5q75 0 131.5 -42.5t88.5 -120t32 -184.5t-32 -187.5t-90.5 -125.5t-138.5 -45q-79 0 -137.5 42.5t-90 122t-31.5 188.5z M109 343q0 -98 27 -169.5t76 -110t114 -38.5t113 40.5t74 113.5t26 169q0 95 -26 165t-72.5 108.5t-108.5 38.5q-66 0 -116 -38.5t-78.5 -109.5t-28.5 -169z" />
<glyph unicode="&#xd4;" horiz-adv-x="648" d="M468 781l-14 -10q-27 21 -59.5 46t-66.5 47q-15 -12 -37 -29t-45.5 -34t-42.5 -30l-12 12q21 19 44.5 42t43 44t27.5 32l6 4h37q23 -22 55 -55t64 -69zM64 343q0 109 34.5 188t95 121.5t138.5 42.5q75 0 131.5 -42.5t88.5 -120t32 -184.5t-32 -187.5t-90.5 -125.5 t-138.5 -45q-79 0 -137.5 42.5t-90 122t-31.5 188.5zM109 343q0 -98 27 -169.5t76 -110t114 -38.5t113 40.5t74 113.5t26 169q0 95 -26 165t-72.5 108.5t-108.5 38.5q-66 0 -116 -38.5t-78.5 -109.5t-28.5 -169z" />
<glyph unicode="&#xd5;" horiz-adv-x="648" d="M158 776l-14 5q9 50 26.5 76.5t48.5 26.5q20 0 52 -10.5t66 -24t62.5 -24.5t42.5 -11q10 15 21 31t27 43l14 -6q-9 -49 -25 -75.5t-48 -26.5q-19 0 -51 10.5t-67 24t-63.5 24t-41.5 11.5q-8 -9 -21.5 -28.5t-28.5 -45.5zM64 343q0 109 34.5 188t95 121.5t138.5 42.5 q75 0 131.5 -42.5t88.5 -120t32 -184.5t-32 -187.5t-90.5 -125.5t-138.5 -45q-79 0 -137.5 42.5t-90 122t-31.5 188.5zM109 343q0 -98 27 -169.5t76 -110t114 -38.5t113 40.5t74 113.5t26 169q0 95 -26 165t-72.5 108.5t-108.5 38.5q-66 0 -116 -38.5t-78.5 -109.5 t-28.5 -169z" />
<glyph unicode="&#xd6;" horiz-adv-x="648" d="M463 839q0 -17 -9.5 -32t-29.5 -15q-17 0 -27 12t-10 28q0 17 11 31t29 14q17 0 26.5 -10.5t9.5 -27.5zM273 839q0 -17 -9.5 -32t-29.5 -15q-17 0 -27 12t-10 28q0 17 11 31t29 14q17 0 26.5 -10.5t9.5 -27.5zM64 343q0 109 34.5 188t95 121.5t138.5 42.5 q75 0 131.5 -42.5t88.5 -120t32 -184.5t-32 -187.5t-90.5 -125.5t-138.5 -45q-79 0 -137.5 42.5t-90 122t-31.5 188.5zM109 343q0 -98 27 -169.5t76 -110t114 -38.5t113 40.5t74 113.5t26 169q0 95 -26 165t-72.5 108.5t-108.5 38.5q-66 0 -116 -38.5t-78.5 -109.5 t-28.5 -169z" />
<glyph unicode="&#xd7;" d="M442 150l-162 164l-164 -164l-28 28l164 164l-163 166l27 26l72.5 -72.5l91.5 -91.5l164 164l28 -28l-164 -164q46 -47 88 -89.5t71 -71.5v-11z" />
<glyph unicode="&#xd8;" horiz-adv-x="648" d="M64 343q0 109 34.5 188t95 121.5t138.5 42.5q55 0 101 -24t79 -68l53 65l27 -22l-60 -73q25 -44 38.5 -100.5t13.5 -124.5q0 -107 -32 -187.5t-90.5 -125.5t-138.5 -45q-59 0 -107 24t-81 69l-53 -65l-26 22l59 73q-25 44 -38 102t-13 128zM109 343q0 -57 9.5 -105.5 t27.5 -86.5l339 419q-27 43 -66 66.5t-87 23.5q-66 0 -116 -38.5t-78.5 -109.5t-28.5 -169zM539 348q0 56 -9 103.5t-27 85.5l-339 -419q28 -45 69.5 -69t92.5 -24q65 0 113 40.5t74 113.5t26 169z" />
<glyph unicode="&#xd9;" horiz-adv-x="657" d="M449 795l-7 -16q-25 3 -63 11.5t-76 21.5t-64 28.5t-26 31.5q0 19 21 26l7 -1q32 -23 83 -52t125 -50zM109 220v426l-85 19l2 20h208l2 -20l-58 -13q-16 -4 -21.5 -10t-5.5 -20v-405q0 -62 24.5 -105t65.5 -65t90 -22q50 0 90.5 21.5t65 64.5t24.5 106v429l-85 19l2 20 h201l2 -20l-85 -19v-426q0 -76 -29.5 -127.5t-79 -77t-111.5 -25.5q-60 0 -109.5 26t-78.5 77t-29 127z" />
<glyph unicode="&#xda;" horiz-adv-x="657" d="M441 896l7 1q21 -7 21 -26q0 -16 -26 -31.5t-64 -28.5t-76 -21.5t-63 -11.5l-7 16q74 21 125 50t83 52zM109 220v426l-85 19l2 20h208l2 -20l-58 -13q-16 -4 -21.5 -10t-5.5 -20v-405q0 -62 24.5 -105t65.5 -65t90 -22q50 0 90.5 21.5t65 64.5t24.5 106v429l-85 19l2 20 h201l2 -20l-85 -19v-426q0 -76 -29.5 -127.5t-79 -77t-111.5 -25.5q-60 0 -109.5 26t-78.5 77t-29 127z" />
<glyph unicode="&#xdb;" horiz-adv-x="657" d="M474 781l-14 -10q-27 21 -59.5 46t-66.5 47q-15 -12 -37 -29t-45.5 -34t-42.5 -30l-12 12q21 19 44.5 42t43 44t27.5 32l6 4h37q23 -22 55 -55t64 -69zM109 220v426l-85 19l2 20h208l2 -20l-58 -13q-16 -4 -21.5 -10t-5.5 -20v-405q0 -62 24.5 -105t65.5 -65t90 -22 q50 0 90.5 21.5t65 64.5t24.5 106v429l-85 19l2 20h201l2 -20l-85 -19v-426q0 -76 -29.5 -127.5t-79 -77t-111.5 -25.5q-60 0 -109.5 26t-78.5 77t-29 127z" />
<glyph unicode="&#xdc;" horiz-adv-x="657" d="M464 839q0 -17 -9.5 -32t-29.5 -15q-17 0 -27 12t-10 28q0 17 11 31t29 14q17 0 26.5 -10.5t9.5 -27.5zM274 839q0 -17 -9.5 -32t-29.5 -15q-17 0 -27 12t-10 28q0 17 11 31t29 14q17 0 26.5 -10.5t9.5 -27.5zM109 220v426l-85 19l2 20h208l2 -20l-58 -13 q-16 -4 -21.5 -10t-5.5 -20v-405q0 -62 24.5 -105t65.5 -65t90 -22q50 0 90.5 21.5t65 64.5t24.5 106v429l-85 19l2 20h201l2 -20l-85 -19v-426q0 -76 -29.5 -127.5t-79 -77t-111.5 -25.5q-60 0 -109.5 26t-78.5 77t-29 127z" />
<glyph unicode="&#xdd;" horiz-adv-x="671" d="M441 896l7 1q21 -7 21 -26q0 -16 -26 -31.5t-64 -28.5t-76 -21.5t-63 -11.5l-7 16q74 21 125 50t83 52zM356 39l85 -19l-2 -20h-208l-2 20l58 13q17 4 22 10t5 20v203l-187 350q-9 17 -16 25t-21 11l-58 13l2 20h211l2 -20l-85 -19l178 -346h1l176 346l-85 19l2 20h203 l2 -20l-56 -13q-17 -4 -25.5 -12t-16.5 -24l-185 -352v-225z" />
<glyph unicode="&#xde;" horiz-adv-x="558" d="M188 39l105 -19l-2 -20h-228l-2 20l58 13q17 4 22 10t5 20v583l-85 19l2 20h208l2 -20l-58 -13q-16 -4 -21.5 -10t-5.5 -20v-68h105q62 0 113 -24.5t81.5 -72t30.5 -116.5q0 -66 -31 -111t-83.5 -68t-115.5 -23h-100v-100zM283 519h-95v-345h90q91 0 143 41.5t52 125.5 q0 85 -50.5 131.5t-139.5 46.5z" />
<glyph unicode="&#xdf;" horiz-adv-x="549" d="M142 0h-101l-2 16l48 13q17 5 22 10.5t5 20.5v400h-73l-2 16l75 14v18q0 118 47.5 182.5t134.5 64.5q67 0 108 -40.5t41 -107.5q0 -34 -13.5 -68t-41 -60t-71.5 -36q85 -25 129.5 -93t44.5 -168q0 -55 -21.5 -98t-58 -68.5t-83.5 -25.5q-49 0 -82 26.5t-33 57.5 q0 27 25 27q5 0 7 -1q9 -34 31.5 -55.5t59.5 -21.5q32 0 57.5 20.5t40 55.5t14.5 79q0 101 -49 168t-139 87v13q54 7 84.5 31.5t43 57t12.5 64.5q0 58 -32 93t-85 35q-62 0 -96.5 -54t-34.5 -153v-504z" />
<glyph unicode="&#xe0;" horiz-adv-x="496" d="M313 593l-12 -12q-33 25 -69 53.5t-61 54.5t-25 43q0 10 8 16.5t24 6.5h4l5 -2q17 -31 51.5 -74t74.5 -86zM249 506q65 0 100 -34t35 -98q0 -22 -0.5 -57t-1.5 -75.5t-1.5 -80.5t-0.5 -73q0 -37 10.5 -51t38.5 -14q22 0 44 7l4 -9q-13 -13 -32 -22t-42 -9 q-28 0 -45.5 18.5t-19.5 50.5q-28 -28 -66 -48.5t-84 -20.5q-58 0 -91 29.5t-33 80.5q0 48 35.5 85.5t98 60t142.5 24.5q1 36 1.5 63t0.5 39q0 48 -27.5 74t-74.5 26q-35 0 -62 -15t-42 -37t-15 -45q0 -17 7 -32q-9 -6 -21 -6q-15 0 -24 9.5t-9 25.5q0 30 25.5 61t66 52 t83.5 21zM107 102q0 -40 23.5 -58.5t63.5 -18.5q41 0 78.5 20.5t65.5 51.5q0 36 0.5 72.5t1.5 70.5q-70 -2 -122.5 -20t-81.5 -48t-29 -70z" />
<glyph unicode="&#xe1;" horiz-adv-x="496" d="M332 732q0 -17 -25 -43t-61 -54.5t-69 -53.5l-12 12q40 43 75 86t51 74l5 2h4q17 0 24.5 -6.5t7.5 -16.5zM249 506q65 0 100 -34t35 -98q0 -22 -0.5 -57t-1.5 -75.5t-1.5 -80.5t-0.5 -73q0 -37 10.5 -51t38.5 -14q22 0 44 7l4 -9q-13 -13 -32 -22t-42 -9 q-28 0 -45.5 18.5t-19.5 50.5q-28 -28 -66 -48.5t-84 -20.5q-58 0 -91 29.5t-33 80.5q0 48 35.5 85.5t98 60t142.5 24.5q1 36 1.5 63t0.5 39q0 48 -27.5 74t-74.5 26q-35 0 -62 -15t-42 -37t-15 -45q0 -17 7 -32q-9 -6 -21 -6q-15 0 -24 9.5t-9 25.5q0 30 25.5 61t66 52 t83.5 21zM107 102q0 -40 23.5 -58.5t63.5 -18.5q41 0 78.5 20.5t65.5 51.5q0 36 0.5 72.5t1.5 70.5q-70 -2 -122.5 -20t-81.5 -48t-29 -70z" />
<glyph unicode="&#xe2;" horiz-adv-x="496" d="M368 596l-14 -10q-24 27 -54 59t-62 61q-14 -16 -34 -38t-41.5 -44t-39.5 -38l-12 12q19 23 40 52t38.5 55.5t24.5 40.5l6 4h41q20 -27 49 -68t58 -86zM249 506q65 0 100 -34t35 -98q0 -22 -0.5 -57t-1.5 -75.5t-1.5 -80.5t-0.5 -73q0 -37 10.5 -51t38.5 -14q22 0 44 7 l4 -9q-13 -13 -32 -22t-42 -9q-28 0 -45.5 18.5t-19.5 50.5q-28 -28 -66 -48.5t-84 -20.5q-58 0 -91 29.5t-33 80.5q0 48 35.5 85.5t98 60t142.5 24.5q1 36 1.5 63t0.5 39q0 48 -27.5 74t-74.5 26q-35 0 -62 -15t-42 -37t-15 -45q0 -17 7 -32q-9 -6 -21 -6q-15 0 -24 9.5 t-9 25.5q0 30 25.5 61t66 52t83.5 21zM107 102q0 -40 23.5 -58.5t63.5 -18.5q41 0 78.5 20.5t65.5 51.5q0 36 0.5 72.5t1.5 70.5q-70 -2 -122.5 -20t-81.5 -48t-29 -70z" />
<glyph unicode="&#xe3;" horiz-adv-x="496" d="M89 614l-14 5q8 47 25.5 72t47.5 25q17 0 43.5 -8.5t55 -19.5t52.5 -20t36 -9q10 14 20.5 28t25.5 39l14 -6q-8 -46 -24 -71t-48 -25q-16 0 -43 8.5t-56 19.5t-53 19.5t-35 9.5q-7 -8 -20 -25.5t-27 -41.5zM249 506q65 0 100 -34t35 -98q0 -22 -0.5 -57t-1.5 -75.5 t-1.5 -80.5t-0.5 -73q0 -37 10.5 -51t38.5 -14q22 0 44 7l4 -9q-13 -13 -32 -22t-42 -9q-28 0 -45.5 18.5t-19.5 50.5q-28 -28 -66 -48.5t-84 -20.5q-58 0 -91 29.5t-33 80.5q0 48 35.5 85.5t98 60t142.5 24.5q1 36 1.5 63t0.5 39q0 48 -27.5 74t-74.5 26q-35 0 -62 -15 t-42 -37t-15 -45q0 -17 7 -32q-9 -6 -21 -6q-15 0 -24 9.5t-9 25.5q0 30 25.5 61t66 52t83.5 21zM107 102q0 -40 23.5 -58.5t63.5 -18.5q41 0 78.5 20.5t65.5 51.5q0 36 0.5 72.5t1.5 70.5q-70 -2 -122.5 -20t-81.5 -48t-29 -70z" />
<glyph unicode="&#xe4;" horiz-adv-x="496" d="M369 670q0 -18 -8.5 -33.5t-27.5 -15.5q-16 0 -25 12.5t-9 29.5q0 19 10.5 33.5t26.5 14.5t24.5 -11.5t8.5 -29.5zM179 670q0 -18 -8.5 -33.5t-27.5 -15.5q-16 0 -25 12.5t-9 29.5q0 19 10.5 33.5t26.5 14.5t24.5 -11.5t8.5 -29.5zM249 506q65 0 100 -34t35 -98 q0 -22 -0.5 -57t-1.5 -75.5t-1.5 -80.5t-0.5 -73q0 -37 10.5 -51t38.5 -14q22 0 44 7l4 -9q-13 -13 -32 -22t-42 -9q-28 0 -45.5 18.5t-19.5 50.5q-28 -28 -66 -48.5t-84 -20.5q-58 0 -91 29.5t-33 80.5q0 48 35.5 85.5t98 60t142.5 24.5q1 36 1.5 63t0.5 39q0 48 -27.5 74 t-74.5 26q-35 0 -62 -15t-42 -37t-15 -45q0 -17 7 -32q-9 -6 -21 -6q-15 0 -24 9.5t-9 25.5q0 30 25.5 61t66 52t83.5 21zM107 102q0 -40 23.5 -58.5t63.5 -18.5q41 0 78.5 20.5t65.5 51.5q0 36 0.5 72.5t1.5 70.5q-70 -2 -122.5 -20t-81.5 -48t-29 -70z" />
<glyph unicode="&#xe5;" horiz-adv-x="496" d="M236 596q-32 0 -52.5 19t-20.5 50q0 33 23 53.5t57 20.5q33 0 54.5 -19.5t19.5 -49.5q-1 -32 -24 -53t-57 -21zM240 716q-19 0 -31.5 -14.5t-12.5 -36.5q0 -20 12 -33t31 -13q20 0 32 15t12 37q0 20 -12 32.5t-31 12.5zM249 506q65 0 100 -34t35 -98q0 -22 -0.5 -57 t-1.5 -75.5t-1.5 -80.5t-0.5 -73q0 -37 10.5 -51t38.5 -14q22 0 44 7l4 -9q-13 -13 -32 -22t-42 -9q-28 0 -45.5 18.5t-19.5 50.5q-28 -28 -66 -48.5t-84 -20.5q-58 0 -91 29.5t-33 80.5q0 48 35.5 85.5t98 60t142.5 24.5q1 36 1.5 63t0.5 39q0 48 -27.5 74t-74.5 26 q-35 0 -62 -15t-42 -37t-15 -45q0 -17 7 -32q-9 -6 -21 -6q-15 0 -24 9.5t-9 25.5q0 30 25.5 61t66 52t83.5 21zM107 102q0 -40 23.5 -58.5t63.5 -18.5q41 0 78.5 20.5t65.5 51.5q0 36 0.5 72.5t1.5 70.5q-70 -2 -122.5 -20t-81.5 -48t-29 -70z" />
<glyph unicode="&#xe6;" horiz-adv-x="742" d="M342 372q0 48 -27.5 74t-74.5 26q-35 0 -62 -15t-42 -37t-15 -45q0 -17 7 -32q-9 -6 -21 -6q-15 0 -24 9.5t-9 25.5q0 30 25.5 61t66 51.5t83.5 20.5q55 0 89 -25t43 -72q27 45 67.5 71t91.5 26q69 0 110.5 -48t41.5 -133q0 -13 -0.5 -27.5t-1.5 -28.5l-9 -10h-299v-6 q1 -106 45.5 -166.5t120.5 -60.5q78 0 134 55l12 -10q-25 -37 -67 -58.5t-90 -21.5q-57 0 -99.5 26.5t-67.5 75.5q-32 -41 -78.5 -71.5t-103.5 -30.5q-58 0 -91 29.5t-33 80.5q0 48 35.5 85.5t98 60t142.5 24.5q1 36 1.5 63.5t0.5 38.5zM536 472q-64 0 -105 -51.5 t-48 -134.5l265 5q1 11 1 20.5v14.5q0 71 -29.5 108.5t-83.5 37.5zM107 102q0 -40 23.5 -58.5t63.5 -18.5q47 0 89.5 27.5t73.5 68.5q-18 50 -18 114v5q-104 -3 -168 -41t-64 -97z" />
<glyph unicode="&#xe7;" horiz-adv-x="443" d="M214 -91l-3 5l14 78q-78 12 -123.5 76.5t-45.5 166.5q0 79 25.5 140t71 95.5t104.5 34.5q41 0 73.5 -16.5t51.5 -44.5t19 -64q0 -19 -7.5 -31t-21.5 -12q-10 0 -18 3q3 18 3 30q0 46 -28.5 74t-75.5 28q-45 0 -79.5 -28t-54.5 -77t-20 -113q0 -106 43.5 -167.5 t122.5 -61.5q78 0 134 55l12 -10q-25 -37 -66 -58.5t-88 -21.5h-2l-10 -54q36 -10 54.5 -28.5t18.5 -40.5q0 -23 -18 -39.5t-46 -26t-58 -13.5l-4 15q39 10 61 24t22 35q0 14 -13 26.5t-48 20.5z" />
<glyph unicode="&#xe8;" horiz-adv-x="459" d="M311 593l-12 -12q-33 25 -69 53.5t-61 54.5t-25 43q0 10 8 16.5t24 6.5h4l5 -2q17 -31 51.5 -74t74.5 -86zM411 70q-25 -37 -67 -58.5t-90 -21.5q-91 0 -144.5 66.5t-53.5 178.5q0 79 25.5 140t71 95.5t104.5 34.5q69 0 110.5 -48t41.5 -133q0 -13 -0.5 -27.5t-1.5 -28.5 l-9 -10h-299v-4q0 -106 45 -167.5t121 -61.5q78 0 134 55zM253 472q-64 0 -105 -51.5t-48 -134.5l265 5q1 11 1 20.5v14.5q0 71 -29.5 108.5t-83.5 37.5z" />
<glyph unicode="&#xe9;" horiz-adv-x="459" d="M350 732q0 -17 -25 -43t-61 -54.5t-69 -53.5l-12 12q40 43 75 86t51 74l5 2h4q17 0 24.5 -6.5t7.5 -16.5zM411 70q-25 -37 -67 -58.5t-90 -21.5q-91 0 -144.5 66.5t-53.5 178.5q0 79 25.5 140t71 95.5t104.5 34.5q69 0 110.5 -48t41.5 -133q0 -13 -0.5 -27.5t-1.5 -28.5 l-9 -10h-299v-4q0 -106 45 -167.5t121 -61.5q78 0 134 55zM253 472q-64 0 -105 -51.5t-48 -134.5l265 5q1 11 1 20.5v14.5q0 71 -29.5 108.5t-83.5 37.5z" />
<glyph unicode="&#xea;" horiz-adv-x="459" d="M376 596l-14 -10q-24 27 -54 59t-62 61q-14 -16 -34 -38t-41.5 -44t-39.5 -38l-12 12q19 23 40 52t38.5 55.5t24.5 40.5l6 4h41q20 -27 49 -68t58 -86zM411 70q-25 -37 -67 -58.5t-90 -21.5q-91 0 -144.5 66.5t-53.5 178.5q0 79 25.5 140t71 95.5t104.5 34.5 q69 0 110.5 -48t41.5 -133q0 -13 -0.5 -27.5t-1.5 -28.5l-9 -10h-299v-4q0 -106 45 -167.5t121 -61.5q78 0 134 55zM253 472q-64 0 -105 -51.5t-48 -134.5l265 5q1 11 1 20.5v14.5q0 71 -29.5 108.5t-83.5 37.5z" />
<glyph unicode="&#xeb;" horiz-adv-x="459" d="M377 670q0 -18 -8.5 -33.5t-27.5 -15.5q-16 0 -25 12.5t-9 29.5q0 19 10.5 33.5t26.5 14.5t24.5 -11.5t8.5 -29.5zM187 670q0 -18 -8.5 -33.5t-27.5 -15.5q-16 0 -25 12.5t-9 29.5q0 19 10.5 33.5t26.5 14.5t24.5 -11.5t8.5 -29.5zM411 70q-25 -37 -67 -58.5t-90 -21.5 q-91 0 -144.5 66.5t-53.5 178.5q0 79 25.5 140t71 95.5t104.5 34.5q69 0 110.5 -48t41.5 -133q0 -13 -0.5 -27.5t-1.5 -28.5l-9 -10h-299v-4q0 -106 45 -167.5t121 -61.5q78 0 134 55zM253 472q-64 0 -105 -51.5t-48 -134.5l265 5q1 11 1 20.5v14.5q0 71 -29.5 108.5 t-83.5 37.5z" />
<glyph unicode="&#xec;" horiz-adv-x="276" d="M194 593l-12 -12q-33 25 -69 53.5t-61 54.5t-25 43q0 10 8 16.5t24 6.5h4l5 -2q17 -31 51.5 -74t74.5 -86zM162 35l75 -19l-2 -16h-186l-2 16l48 13q17 5 22 10.5t5 20.5v400l-73 6l-2 14q23 8 52.5 14.5t52.5 10.5l10 -10v-460z" />
<glyph unicode="&#xed;" horiz-adv-x="276" d="M233 732q0 -17 -25 -43t-61 -54.5t-69 -53.5l-12 12q40 43 75 86t51 74l5 2h4q17 0 24.5 -6.5t7.5 -16.5zM162 35l75 -19l-2 -16h-186l-2 16l48 13q17 5 22 10.5t5 20.5v400l-73 6l-2 14q23 8 52.5 14.5t52.5 10.5l10 -10v-460z" />
<glyph unicode="&#xee;" horiz-adv-x="276" d="M229 591l-14 -10q-18 27 -40 58.5t-46 60.5q-16 -26 -41 -61t-44 -58l-12 12q13 23 27.5 52t27 55.5t17.5 40.5l6 4h43q14 -27 34.5 -68t41.5 -86zM162 35l75 -19l-2 -16h-186l-2 16l48 13q17 5 22 10.5t5 20.5v400l-73 6l-2 14q23 8 52.5 14.5t52.5 10.5l10 -10v-460z " />
<glyph unicode="&#xef;" horiz-adv-x="276" d="M236 684q0 -18 -8.5 -33.5t-27.5 -15.5q-16 0 -25 12.5t-9 29.5q0 19 10.5 33.5t26.5 14.5t24.5 -11.5t8.5 -29.5zM96 684q0 -18 -8.5 -33.5t-27.5 -15.5q-16 0 -25 12.5t-9 29.5q0 19 10.5 33.5t26.5 14.5t24.5 -11.5t8.5 -29.5zM162 35l75 -19l-2 -16h-186l-2 16l48 13 q17 5 22 10.5t5 20.5v400l-73 6l-2 14q23 8 52.5 14.5t52.5 10.5l10 -10v-460z" />
<glyph unicode="&#xf0;" horiz-adv-x="524" d="M248 -10q-55 0 -98.5 30t-68.5 88.5t-25 142.5t27.5 140.5t71 85t90.5 28.5q90 0 135 -78q-27 106 -87 179l-153 -71l-14 32l142 67q-66 67 -160 95l6 26q52 -10 99 -37.5t87 -69.5l153 72l15 -32l-144 -67q54 -69 86 -160.5t32 -194.5q0 -132 -50.5 -204t-143.5 -72z M255 472q-67 0 -111.5 -55t-44.5 -168q0 -63 18 -114.5t51.5 -81.5t78.5 -30q153 0 153 230v1q0 64 -18 113.5t-50.5 77t-76.5 27.5z" />
<glyph unicode="&#xf1;" horiz-adv-x="576" d="M185 681q-7 -8 -20 -25.5t-27 -41.5l-14 5q8 47 25.5 72t47.5 25q17 0 43.5 -8.5t55 -19.5t52.5 -20t36 -9q10 14 20.5 28t25.5 39l14 -6q-8 -46 -24 -71t-48 -25q-16 0 -43 8.5t-56 19.5t-53 19.5t-35 9.5zM162 35l75 -19l-2 -16h-186l-2 16l48 13q17 5 22 10.5t5 20.5 v400l-73 6l-2 14q23 8 52.5 14.5t52.5 10.5l10 -10v-54q35 30 76 47t83 17q69 0 105 -39t36 -113v-318l75 -19l-2 -16h-186l-2 16l48 13q17 5 22 10.5t5 20.5v293q0 57 -27 88t-81 31q-82 0 -152 -67v-370z" />
<glyph unicode="&#xf2;" horiz-adv-x="498" d="M313 593l-12 -12q-33 25 -69 53.5t-61 54.5t-25 43q0 10 8 16.5t24 6.5h4l5 -2q17 -31 51.5 -74t74.5 -86zM442 250q0 -84 -26 -142t-70 -87.5t-99 -30.5q-54 0 -97.5 30t-68.5 88.5t-25 142.5t29 140.5t75 85t96 28.5t92.5 -28.5t68 -85t25.5 -141.5zM99 249 q0 -63 18 -114.5t51.5 -81.5t78.5 -30q70 0 111 55t41 167q0 67 -17.5 118t-50 80t-76.5 29q-67 0 -111.5 -55t-44.5 -168z" />
<glyph unicode="&#xf3;" horiz-adv-x="498" d="M352 732q0 -17 -25 -43t-61 -54.5t-69 -53.5l-12 12q40 43 75 86t51 74l5 2h4q17 0 24.5 -6.5t7.5 -16.5zM442 250q0 -84 -26 -142t-70 -87.5t-99 -30.5q-54 0 -97.5 30t-68.5 88.5t-25 142.5t29 140.5t75 85t96 28.5t92.5 -28.5t68 -85t25.5 -141.5zM99 249 q0 -63 18 -114.5t51.5 -81.5t78.5 -30q70 0 111 55t41 167q0 67 -17.5 118t-50 80t-76.5 29q-67 0 -111.5 -55t-44.5 -168z" />
<glyph unicode="&#xf4;" horiz-adv-x="498" d="M383 596l-14 -10q-24 27 -54 59t-62 61q-14 -16 -34 -38t-41.5 -44t-39.5 -38l-12 12q19 23 40 52t38.5 55.5t24.5 40.5l6 4h41q20 -27 49 -68t58 -86zM442 250q0 -84 -26 -142t-70 -87.5t-99 -30.5q-54 0 -97.5 30t-68.5 88.5t-25 142.5t29 140.5t75 85t96 28.5 t92.5 -28.5t68 -85t25.5 -141.5zM99 249q0 -63 18 -114.5t51.5 -81.5t78.5 -30q70 0 111 55t41 167q0 67 -17.5 118t-50 80t-76.5 29q-67 0 -111.5 -55t-44.5 -168z" />
<glyph unicode="&#xf5;" horiz-adv-x="498" d="M104 614l-14 5q8 47 25.5 72t47.5 25q17 0 43.5 -8.5t55 -19.5t52.5 -20t36 -9q10 14 20.5 28t25.5 39l14 -6q-8 -46 -24 -71t-48 -25q-16 0 -43 8.5t-56 19.5t-53 19.5t-35 9.5q-7 -8 -20 -25.5t-27 -41.5zM442 250q0 -84 -26 -142t-70 -87.5t-99 -30.5q-54 0 -97.5 30 t-68.5 88.5t-25 142.5t29 140.5t75 85t96 28.5t92.5 -28.5t68 -85t25.5 -141.5zM99 249q0 -63 18 -114.5t51.5 -81.5t78.5 -30q70 0 111 55t41 167q0 67 -17.5 118t-50 80t-76.5 29q-67 0 -111.5 -55t-44.5 -168z" />
<glyph unicode="&#xf6;" horiz-adv-x="498" d="M384 670q0 -18 -8.5 -33.5t-27.5 -15.5q-16 0 -25 12.5t-9 29.5q0 19 10.5 33.5t26.5 14.5t24.5 -11.5t8.5 -29.5zM194 670q0 -18 -8.5 -33.5t-27.5 -15.5q-16 0 -25 12.5t-9 29.5q0 19 10.5 33.5t26.5 14.5t24.5 -11.5t8.5 -29.5zM442 250q0 -84 -26 -142t-70 -87.5 t-99 -30.5q-54 0 -97.5 30t-68.5 88.5t-25 142.5t29 140.5t75 85t96 28.5t92.5 -28.5t68 -85t25.5 -141.5zM99 249q0 -63 18 -114.5t51.5 -81.5t78.5 -30q70 0 111 55t41 167q0 67 -17.5 118t-50 80t-76.5 29q-67 0 -111.5 -55t-44.5 -168z" />
<glyph unicode="&#xf7;" d="M316 530q0 -17 -8.5 -32t-28.5 -15q-16 0 -25.5 12.5t-9.5 30.5t10.5 32.5t27.5 14.5t25.5 -12t8.5 -31zM480 322h-405v35q34 1 87 2t112.5 1.5t113.5 1t89 0.5l8 -8zM316 158q0 -17 -8.5 -32t-28.5 -15q-16 0 -25.5 12.5t-9.5 30.5t10.5 32.5t27.5 14.5t25.5 -12 t8.5 -31z" />
<glyph unicode="&#xf8;" horiz-adv-x="498" d="M442 250q0 -84 -26 -142t-70 -87.5t-99 -30.5q-90 -1 -143 76l-51 -54l-25 24l58 62q-14 30 -22 68.5t-8 84.5q0 84 29 140.5t75 85t96 28.5q41 0 77 -19t62 -57l49 53l26 -24l-57 -61q14 -29 21.5 -65.5t7.5 -81.5zM99 249q0 -65 19 -117l248 266q-19 35 -47 54.5 t-64 19.5q-67 0 -111.5 -55t-44.5 -168zM399 245q0 67 -18 118l-248 -265q20 -35 48.5 -55t65.5 -20q70 0 111 55t41 167z" />
<glyph unicode="&#xf9;" horiz-adv-x="590" d="M354 593l-12 -12q-33 25 -69 53.5t-61 54.5t-25 43q0 10 8 16.5t24 6.5h4l5 -2q17 -31 51.5 -74t74.5 -86zM119 160v300l-73 6l-2 14q23 8 52.5 14.5t52.5 10.5l10 -10v-335q0 -66 31 -101t91 -35q39 0 77 20t66 53v363l-73 6l-2 14q23 8 52.5 14.5t52.5 10.5l10 -10 v-391q0 -44 11.5 -62.5t39.5 -18.5q19 0 44 7l4 -9q-31 -31 -74 -31q-59 0 -64 67q-28 -29 -69 -48t-83 -19q-75 0 -114.5 44t-39.5 126z" />
<glyph unicode="&#xfa;" horiz-adv-x="590" d="M393 732q0 -17 -25 -43t-61 -54.5t-69 -53.5l-12 12q40 43 75 86t51 74l5 2h4q17 0 24.5 -6.5t7.5 -16.5zM119 160v300l-73 6l-2 14q23 8 52.5 14.5t52.5 10.5l10 -10v-335q0 -66 31 -101t91 -35q39 0 77 20t66 53v363l-73 6l-2 14q23 8 52.5 14.5t52.5 10.5l10 -10v-391 q0 -44 11.5 -62.5t39.5 -18.5q19 0 44 7l4 -9q-31 -31 -74 -31q-59 0 -64 67q-28 -29 -69 -48t-83 -19q-75 0 -114.5 44t-39.5 126z" />
<glyph unicode="&#xfb;" horiz-adv-x="590" d="M419 596l-14 -10q-24 27 -54 59t-62 61q-14 -16 -34 -38t-41.5 -44t-39.5 -38l-12 12q19 23 40 52t38.5 55.5t24.5 40.5l6 4h41q20 -27 49 -68t58 -86zM119 160v300l-73 6l-2 14q23 8 52.5 14.5t52.5 10.5l10 -10v-335q0 -66 31 -101t91 -35q39 0 77 20t66 53v363l-73 6 l-2 14q23 8 52.5 14.5t52.5 10.5l10 -10v-391q0 -44 11.5 -62.5t39.5 -18.5q19 0 44 7l4 -9q-31 -31 -74 -31q-59 0 -64 67q-28 -29 -69 -48t-83 -19q-75 0 -114.5 44t-39.5 126z" />
<glyph unicode="&#xfc;" horiz-adv-x="590" d="M420 670q0 -18 -8.5 -33.5t-27.5 -15.5q-16 0 -25 12.5t-9 29.5q0 19 10.5 33.5t26.5 14.5t24.5 -11.5t8.5 -29.5zM230 670q0 -18 -8.5 -33.5t-27.5 -15.5q-16 0 -25 12.5t-9 29.5q0 19 10.5 33.5t26.5 14.5t24.5 -11.5t8.5 -29.5zM119 160v300l-73 6l-2 14 q23 8 52.5 14.5t52.5 10.5l10 -10v-335q0 -66 31 -101t91 -35q39 0 77 20t66 53v363l-73 6l-2 14q23 8 52.5 14.5t52.5 10.5l10 -10v-391q0 -44 11.5 -62.5t39.5 -18.5q19 0 44 7l4 -9q-31 -31 -74 -31q-59 0 -64 67q-28 -29 -69 -48t-83 -19q-75 0 -114.5 44t-39.5 126z " />
<glyph unicode="&#xfd;" horiz-adv-x="555" d="M391 732q0 -17 -25 -43t-61 -54.5t-69 -53.5l-12 12q40 43 75 86t51 74l5 2h4q17 0 24.5 -6.5t7.5 -16.5zM36 495h192l2 -16l-78 -19l137 -406l133 406l-77 19l2 16h182l2 -16l-46 -13q-16 -4 -24.5 -12t-13.5 -24l-147 -430q-27 -78 -56 -135.5t-65 -88.5t-85 -31 q-29 0 -49.5 14.5t-20.5 34.5q0 19 14 27l4 2q9 -13 25 -25.5t41 -12.5q35 0 63.5 27.5t52.5 74.5t44 105l-150 438q-6 17 -13.5 24.5t-22.5 11.5l-48 13z" />
<glyph unicode="&#xfe;" horiz-adv-x="543" d="M154 -210l95 -19l-2 -16h-206l-2 16l48 13q17 5 22 10.5t5 20.5v895l-73 6l-2 14q23 8 52.5 14.5t52.5 10.5l10 -10v-301q24 24 61 42.5t79 18.5q95 0 144 -69.5t49 -185.5q0 -77 -27 -136t-75.5 -91.5t-113.5 -32.5q-33 0 -64 7.5t-53 16.5v-224zM273 23q78 0 124.5 62 t46.5 166q0 100 -39 160.5t-113 60.5q-43 0 -77 -18.5t-61 -50.5v-350q22 -13 53 -21.5t66 -8.5z" />
<glyph unicode="&#xff;" horiz-adv-x="555" d="M418 670q0 -18 -8.5 -33.5t-27.5 -15.5q-16 0 -25 12.5t-9 29.5q0 19 10.5 33.5t26.5 14.5t24.5 -11.5t8.5 -29.5zM228 670q0 -18 -8.5 -33.5t-27.5 -15.5q-16 0 -25 12.5t-9 29.5q0 19 10.5 33.5t26.5 14.5t24.5 -11.5t8.5 -29.5zM36 495h192l2 -16l-78 -19l137 -406 l133 406l-77 19l2 16h182l2 -16l-46 -13q-16 -4 -24.5 -12t-13.5 -24l-147 -430q-27 -78 -56 -135.5t-65 -88.5t-85 -31q-29 0 -49.5 14.5t-20.5 34.5q0 19 14 27l4 2q9 -13 25 -25.5t41 -12.5q35 0 63.5 27.5t52.5 74.5t44 105l-150 438q-6 17 -13.5 24.5t-22.5 11.5 l-48 13z" />
<glyph unicode="&#x100;" horiz-adv-x="711" d="M226 817v39h254v-39h-254zM344 685h23l218 -616q6 -17 13.5 -25t22.5 -11l58 -13l-2 -20h-212l-2 20l86 19l-75 216l-247 -4l-73 -211l85 -20l-2 -20h-203l-2 20l56 13q17 4 25 12t13 24zM238 285h226l-113 325z" />
<glyph unicode="&#x101;" horiz-adv-x="496" d="M113 653v34h254v-34h-254zM249 506q65 0 100 -34t35 -98q0 -22 -0.5 -57t-1.5 -75.5t-1.5 -80.5t-0.5 -73q0 -37 10.5 -51t38.5 -14q22 0 44 7l4 -9q-13 -13 -32 -22t-42 -9q-28 0 -45.5 18.5t-19.5 50.5q-28 -28 -66 -48.5t-84 -20.5q-58 0 -91 29.5t-33 80.5 q0 48 35.5 85.5t98 60t142.5 24.5q1 36 1.5 63t0.5 39q0 48 -27.5 74t-74.5 26q-35 0 -62 -15t-42 -37t-15 -45q0 -17 7 -32q-9 -6 -21 -6q-15 0 -24 9.5t-9 25.5q0 30 25.5 61t66 52t83.5 21zM107 102q0 -40 23.5 -58.5t63.5 -18.5q41 0 78.5 20.5t65.5 51.5q0 36 0.5 72.5 t1.5 70.5q-70 -2 -122.5 -20t-81.5 -48t-29 -70z" />
<glyph unicode="&#x102;" horiz-adv-x="711" d="M459 888l4 2l14 -3q-11 -48 -43.5 -75t-78.5 -27q-45 0 -76.5 27t-39.5 75l17 3q11 -29 38.5 -45.5t65.5 -16.5q35 0 61 16t38 44zM344 685h23l218 -616q6 -17 13.5 -25t22.5 -11l58 -13l-2 -20h-212l-2 20l86 19l-75 216l-247 -4l-73 -211l85 -20l-2 -20h-203l-2 20 l56 13q17 4 25 12t13 24zM238 285h226l-113 325z" />
<glyph unicode="&#x103;" horiz-adv-x="496" d="M341 728l4 2l14 -3q-11 -58 -43.5 -90t-78.5 -32q-45 0 -76.5 32t-39.5 90l17 3q11 -38 38.5 -60t65.5 -22q35 0 61 21.5t38 58.5zM249 506q65 0 100 -34t35 -98q0 -22 -0.5 -57t-1.5 -75.5t-1.5 -80.5t-0.5 -73q0 -37 10.5 -51t38.5 -14q22 0 44 7l4 -9q-13 -13 -32 -22 t-42 -9q-28 0 -45.5 18.5t-19.5 50.5q-28 -28 -66 -48.5t-84 -20.5q-58 0 -91 29.5t-33 80.5q0 48 35.5 85.5t98 60t142.5 24.5q1 36 1.5 63t0.5 39q0 48 -27.5 74t-74.5 26q-35 0 -62 -15t-42 -37t-15 -45q0 -17 7 -32q-9 -6 -21 -6q-15 0 -24 9.5t-9 25.5q0 30 25.5 61 t66 52t83.5 21zM107 102q0 -40 23.5 -58.5t63.5 -18.5q41 0 78.5 20.5t65.5 51.5q0 36 0.5 72.5t1.5 70.5q-70 -2 -122.5 -20t-81.5 -48t-29 -70z" />
<glyph unicode="&#x104;" horiz-adv-x="713" d="M681 -181q-34 -31 -82 -31q-35 0 -55 19.5t-20 54.5q0 74 111 138h-170l-2 20l86 19l-75 216l-247 -4l-73 -211l85 -20l-2 -20h-203l-2 20l56 13q17 4 25 12t13 24l218 616h23l218 -616q6 -17 13.5 -25t22.5 -11l58 -13l-2 -20q-111 -64 -111 -127q0 -25 15.5 -38.5 t43.5 -13.5q14 0 25 1.5t27 5.5zM238 285h226l-113 325z" />
<glyph unicode="&#x105;" horiz-adv-x="496" d="M456 -181q-16 -14 -36 -22.5t-42 -8.5q-36 0 -57.5 20.5t-21.5 55.5q0 36 26 67t72 59q-26 2 -41.5 20t-17.5 49q-28 -28 -66 -48.5t-84 -20.5q-58 0 -91 29.5t-33 80.5q0 48 35.5 85.5t98 60t142.5 24.5q1 36 1.5 63t0.5 39q0 48 -27.5 74t-74.5 26q-35 0 -62 -15 t-42 -37t-15 -45q0 -17 7 -32q-9 -6 -21 -6q-15 0 -24 9.5t-9 25.5q0 30 25.5 61t66 52t83.5 21q65 0 100 -34t35 -98q0 -22 -0.5 -57t-1.5 -75.5t-1.5 -80.5t-0.5 -73q0 -37 10.5 -51t38.5 -14q22 0 44 7l4 -9q-4 -4 -9 -8q-24 -20 -54 -40.5t-51.5 -45t-21.5 -56.5 q0 -25 16 -37.5t43 -12.5q14 0 25 1.5t27 5.5zM107 102q0 -40 23.5 -58.5t63.5 -18.5q41 0 78.5 20.5t65.5 51.5q0 36 0.5 72.5t1.5 70.5q-70 -2 -122.5 -20t-81.5 -48t-29 -70z" />
<glyph unicode="&#x106;" horiz-adv-x="626" d="M472 896l7 1q21 -7 21 -26q0 -16 -26 -31.5t-64 -28.5t-76 -21.5t-63 -11.5l-7 16q74 21 125 50t83 52zM399 -10q-162 0 -248.5 94.5t-86.5 258.5q0 109 43.5 188t117 121.5t164.5 42.5q51 0 88 -9t61 -21q3 -19 3 -46q0 -20 -1 -46.5t-5 -52.5h-15q-8 32 -16.5 64 t-16.5 63q-20 6 -41.5 9.5t-55.5 3.5q-79 0 -142.5 -38t-101 -109t-37.5 -170q0 -98 35 -169.5t99.5 -110t152.5 -38.5q43 0 64 4t40 9q8 32 16.5 64t16.5 63h15q3 -22 4.5 -45t1.5 -40t-0.5 -31.5t-2.5 -28.5q-25 -12 -64 -21t-88 -9z" />
<glyph unicode="&#x107;" horiz-adv-x="443" d="M360 732q0 -17 -25 -43t-61 -54.5t-69 -53.5l-12 12q40 43 75 86t51 74l5 2h4q17 0 24.5 -6.5t7.5 -16.5zM411 70q-25 -37 -66 -58.5t-88 -21.5q-92 0 -146.5 66.5t-54.5 178.5q0 79 25.5 140t71 95.5t104.5 34.5q41 0 73.5 -16.5t51.5 -44.5t19 -64q0 -19 -7.5 -31 t-21.5 -12q-10 0 -18 3q3 18 3 30q0 46 -28.5 74t-75.5 28q-45 0 -79.5 -28t-54.5 -77t-20 -113q0 -106 43.5 -167.5t122.5 -61.5q78 0 134 55z" />
<glyph unicode="&#x108;" horiz-adv-x="626" d="M520 781l-14 -10q-27 21 -59.5 46t-66.5 47q-15 -12 -37 -29t-45.5 -34t-42.5 -30l-12 12q21 19 44.5 42t43 44t27.5 32l6 4h37q23 -22 55 -55t64 -69zM399 -10q-162 0 -248.5 94.5t-86.5 258.5q0 109 43.5 188t117 121.5t164.5 42.5q51 0 88 -9t61 -21q3 -19 3 -46 q0 -20 -1 -46.5t-5 -52.5h-15q-8 32 -16.5 64t-16.5 63q-20 6 -41.5 9.5t-55.5 3.5q-79 0 -142.5 -38t-101 -109t-37.5 -170q0 -98 35 -169.5t99.5 -110t152.5 -38.5q43 0 64 4t40 9q8 32 16.5 64t16.5 63h15q3 -22 4.5 -45t1.5 -40t-0.5 -31.5t-2.5 -28.5q-25 -12 -64 -21 t-88 -9z" />
<glyph unicode="&#x109;" horiz-adv-x="443" d="M386 596l-14 -10q-24 27 -54 59t-62 61q-14 -16 -34 -38t-41.5 -44t-39.5 -38l-12 12q19 23 40 52t38.5 55.5t24.5 40.5l6 4h41q20 -27 49 -68t58 -86zM411 70q-25 -37 -66 -58.5t-88 -21.5q-92 0 -146.5 66.5t-54.5 178.5q0 79 25.5 140t71 95.5t104.5 34.5 q41 0 73.5 -16.5t51.5 -44.5t19 -64q0 -19 -7.5 -31t-21.5 -12q-10 0 -18 3q3 18 3 30q0 46 -28.5 74t-75.5 28q-45 0 -79.5 -28t-54.5 -77t-20 -113q0 -106 43.5 -167.5t122.5 -61.5q78 0 134 55z" />
<glyph unicode="&#x10a;" horiz-adv-x="626" d="M422 835q0 -16 -9.5 -29.5t-31.5 -13.5q-19 0 -29 11.5t-10 27.5q0 17 11.5 30t30.5 13t28.5 -11t9.5 -28zM399 -10q-162 0 -248.5 94.5t-86.5 258.5q0 109 43.5 188t117 121.5t164.5 42.5q51 0 88 -9t61 -21q3 -19 3 -46q0 -20 -1 -46.5t-5 -52.5h-15q-8 32 -16.5 64 t-16.5 63q-20 6 -41.5 9.5t-55.5 3.5q-79 0 -142.5 -38t-101 -109t-37.5 -170q0 -98 35 -169.5t99.5 -110t152.5 -38.5q43 0 64 4t40 9q8 32 16.5 64t16.5 63h15q3 -22 4.5 -45t1.5 -40t-0.5 -31.5t-2.5 -28.5q-25 -12 -64 -21t-88 -9z" />
<glyph unicode="&#x10b;" horiz-adv-x="443" d="M294 665q0 -17 -8.5 -32t-28.5 -15q-16 0 -25.5 12.5t-9.5 30.5t10.5 32.5t27.5 14.5t25.5 -12t8.5 -31zM411 70q-25 -37 -66 -58.5t-88 -21.5q-92 0 -146.5 66.5t-54.5 178.5q0 79 25.5 140t71 95.5t104.5 34.5q41 0 73.5 -16.5t51.5 -44.5t19 -64q0 -19 -7.5 -31 t-21.5 -12q-10 0 -18 3q3 18 3 30q0 46 -28.5 74t-75.5 28q-45 0 -79.5 -28t-54.5 -77t-20 -113q0 -106 43.5 -167.5t122.5 -61.5q78 0 134 55z" />
<glyph unicode="&#x10c;" horiz-adv-x="626" d="M405 775l-6 -4h-37q-22 22 -54.5 55t-64.5 69l14 10q27 -21 59.5 -46t66.5 -47q15 12 37 29t45.5 34t42.5 30l12 -12q-20 -18 -44 -41.5t-43 -44t-28 -32.5zM399 -10q-162 0 -248.5 94.5t-86.5 258.5q0 109 43.5 188t117 121.5t164.5 42.5q51 0 88 -9t61 -21q3 -19 3 -46 q0 -20 -1 -46.5t-5 -52.5h-15q-8 32 -16.5 64t-16.5 63q-20 6 -41.5 9.5t-55.5 3.5q-79 0 -142.5 -38t-101 -109t-37.5 -170q0 -98 35 -169.5t99.5 -110t152.5 -38.5q43 0 64 4t40 9q8 32 16.5 64t16.5 63h15q3 -22 4.5 -45t1.5 -40t-0.5 -31.5t-2.5 -28.5q-25 -12 -64 -21 t-88 -9z" />
<glyph unicode="&#x10d;" horiz-adv-x="443" d="M283 592l-6 -4h-41q-20 27 -49 68t-58 86l14 10q24 -27 54 -59t62 -61q14 16 34 38t41.5 44t39.5 38l12 -12q-18 -23 -39.5 -52t-38.5 -55t-25 -41zM411 70q-25 -37 -66 -58.5t-88 -21.5q-92 0 -146.5 66.5t-54.5 178.5q0 79 25.5 140t71 95.5t104.5 34.5 q41 0 73.5 -16.5t51.5 -44.5t19 -64q0 -19 -7.5 -31t-21.5 -12q-10 0 -18 3q3 18 3 30q0 46 -28.5 74t-75.5 28q-45 0 -79.5 -28t-54.5 -77t-20 -113q0 -106 43.5 -167.5t122.5 -61.5q78 0 134 55z" />
<glyph unicode="&#x10e;" horiz-adv-x="665" d="M326 775l-6 -4h-37q-22 22 -54.5 55t-64.5 69l14 10q27 -21 59.5 -46t66.5 -47q15 12 37 29t45.5 34t42.5 30l12 -12q-20 -18 -44 -41.5t-43 -44t-28 -32.5zM266 653h-78v-621h78q95 0 159.5 38.5t97.5 108t33 163.5t-33 164t-97.5 108.5t-159.5 38.5zM601 342 q0 -104 -39 -181t-113 -119t-179 -42h-207l-2 20l58 13q17 4 22 10t5 20v559q0 14 -5 20t-22 10l-58 13l2 20h207q105 0 179 -42.5t113 -119.5t39 -181z" />
<glyph unicode="&#x10f;" horiz-adv-x="697" d="M525 21q-11 -11 -30.5 -21t-43.5 -10q-29 0 -45.5 17.5t-18.5 49.5q-22 -24 -60 -45.5t-86 -21.5q-52 0 -94 27t-66.5 82t-24.5 137q0 86 32 146t83.5 91.5t108.5 31.5q28 0 54.5 -5t51.5 -13v223l-93 6l-2 14q26 9 61.5 15t63.5 10l10 -10v-641q0 -41 10.5 -61t40.5 -20 q14 0 24 2t20 5zM641 702q0 -26 -10.5 -56t-27 -56.5t-35.5 -43.5l-11 9q12 19 22 48.5t15 57.5q-15 2 -24.5 12.5t-9.5 26.5q0 18 12.5 31.5t29.5 13.5q39 0 39 -43zM99 235q0 -104 42 -157.5t103 -53.5q46 0 83 23t59 50v348q-24 14 -52 20.5t-56 6.5q-50 0 -90.5 -26 t-64.5 -78.5t-24 -132.5z" />
<glyph unicode="&#x110;" horiz-adv-x="682" d="M398 337h-193v-305h78q95 0 159.5 38.5t97.5 108t33 163.5t-33 164t-97.5 108.5t-159.5 38.5h-78v-286h193v-30zM618 342q0 -104 -39 -181t-113 -119t-179 -42h-207l-2 20l58 13q17 4 22 10t5 20v274h-102v30h102v255q0 14 -5 20t-22 10l-58 13l2 20h207q105 0 179 -42.5 t113 -119.5t39 -181z" />
<glyph unicode="&#x111;" horiz-adv-x="544" d="M525 21q-11 -11 -30.5 -21t-43.5 -10q-29 0 -45.5 17.5t-18.5 49.5q-22 -24 -60 -45.5t-86 -21.5q-52 0 -94 27t-66.5 82t-24.5 137q0 86 32 146t83.5 91.5t108.5 31.5q28 0 54.5 -5t51.5 -13v93h-220v30h220v100l-93 6l-2 14q26 9 61.5 15t63.5 10l10 -10v-135h99v-30 h-99v-476q0 -41 10.5 -61t40.5 -20q14 0 24 2t20 5zM99 235q0 -104 42 -157.5t103 -53.5q46 0 83 23t59 50v348q-24 14 -52 20.5t-56 6.5q-50 0 -90.5 -26t-64.5 -78.5t-24 -132.5z" />
<glyph unicode="&#x112;" horiz-adv-x="565" d="M182 816v39h254v-39h-254zM188 360l222 5l-2 -39l-220 4v-300h148q31 0 62 1.5t51 3.5l34 130h15q3 -33 3 -75q0 -22 -1.5 -47t-4.5 -43h-432l-2 20l58 13q17 4 22 10t5 20v559q0 14 -5 20t-22 10l-58 13l2 20h422q3 -18 4.5 -42.5t1.5 -47.5q0 -37 -3 -75h-15l-34 130 q-20 2 -51 3.5t-62 1.5h-138v-295z" />
<glyph unicode="&#x113;" horiz-adv-x="459" d="M121 653v34h254v-34h-254zM411 70q-25 -37 -67 -58.5t-90 -21.5q-91 0 -144.5 66.5t-53.5 178.5q0 79 25.5 140t71 95.5t104.5 34.5q69 0 110.5 -48t41.5 -133q0 -13 -0.5 -27.5t-1.5 -28.5l-9 -10h-299v-4q0 -106 45 -167.5t121 -61.5q78 0 134 55zM253 472 q-64 0 -105 -51.5t-48 -134.5l265 5q1 11 1 20.5v14.5q0 71 -29.5 108.5t-83.5 37.5z" />
<glyph unicode="&#x114;" horiz-adv-x="565" d="M420 887l4 2l14 -3q-11 -48 -43.5 -75t-78.5 -27q-45 0 -76.5 27t-39.5 75l17 3q11 -29 38.5 -45.5t65.5 -16.5q35 0 61 16t38 44zM188 360l222 5l-2 -39l-220 4v-300h148q31 0 62 1.5t51 3.5l34 130h15q3 -33 3 -75q0 -22 -1.5 -47t-4.5 -43h-432l-2 20l58 13 q17 4 22 10t5 20v559q0 14 -5 20t-22 10l-58 13l2 20h422q3 -18 4.5 -42.5t1.5 -47.5q0 -37 -3 -75h-15l-34 130q-20 2 -51 3.5t-62 1.5h-138v-295z" />
<glyph unicode="&#x115;" horiz-adv-x="459" d="M349 728l4 2l14 -3q-11 -58 -43.5 -90t-78.5 -32q-45 0 -76.5 32t-39.5 90l17 3q11 -38 38.5 -60t65.5 -22q35 0 61 21.5t38 58.5zM411 70q-25 -37 -67 -58.5t-90 -21.5q-91 0 -144.5 66.5t-53.5 178.5q0 79 25.5 140t71 95.5t104.5 34.5q69 0 110.5 -48t41.5 -133 q0 -13 -0.5 -27.5t-1.5 -28.5l-9 -10h-299v-4q0 -106 45 -167.5t121 -61.5q78 0 134 55zM253 472q-64 0 -105 -51.5t-48 -134.5l265 5q1 11 1 20.5v14.5q0 71 -29.5 108.5t-83.5 37.5z" />
<glyph unicode="&#x116;" horiz-adv-x="565" d="M359 834q0 -16 -9.5 -29.5t-31.5 -13.5q-19 0 -29 11.5t-10 27.5q0 17 11.5 30t30.5 13t28.5 -11t9.5 -28zM188 360l222 5l-2 -39l-220 4v-300h148q31 0 62 1.5t51 3.5l34 130h15q3 -33 3 -75q0 -22 -1.5 -47t-4.5 -43h-432l-2 20l58 13q17 4 22 10t5 20v559q0 14 -5 20 t-22 10l-58 13l2 20h422q3 -18 4.5 -42.5t1.5 -47.5q0 -37 -3 -75h-15l-34 130q-20 2 -51 3.5t-62 1.5h-138v-295z" />
<glyph unicode="&#x117;" horiz-adv-x="459" d="M284 665q0 -17 -8.5 -32t-28.5 -15q-16 0 -25.5 12.5t-9.5 30.5t10.5 32.5t27.5 14.5t25.5 -12t8.5 -31zM411 70q-25 -37 -67 -58.5t-90 -21.5q-91 0 -144.5 66.5t-53.5 178.5q0 79 25.5 140t71 95.5t104.5 34.5q69 0 110.5 -48t41.5 -133q0 -13 -0.5 -27.5t-1.5 -28.5 l-9 -10h-299v-4q0 -106 45 -167.5t121 -61.5q78 0 134 55zM253 472q-64 0 -105 -51.5t-48 -134.5l265 5q1 11 1 20.5v14.5q0 71 -29.5 108.5t-83.5 37.5z" />
<glyph unicode="&#x118;" horiz-adv-x="565" d="M188 360l222 5l-2 -39l-220 4v-300h148q31 0 62 1.5t51 3.5l34 130h15q3 -33 3 -75q0 -22 -1.5 -47t-4.5 -43q-111 -64 -111 -127q0 -25 15.5 -38.5t43.5 -13.5q14 0 25 1.5t27 5.5l4 -9q-34 -31 -82 -31q-35 0 -55 19.5t-20 54.5q0 74 111 138h-390l-2 20l58 13 q17 4 22 10t5 20v559q0 14 -5 20t-22 10l-58 13l2 20h422q3 -18 4.5 -42.5t1.5 -47.5q0 -37 -3 -75h-15l-34 130q-20 2 -51 3.5t-62 1.5h-138v-295z" />
<glyph unicode="&#x119;" horiz-adv-x="459" d="M350 -181q-15 -13 -34.5 -22t-45.5 -9q-31 0 -54 18t-23 53q0 69 106 136q-22 -5 -45 -5q-91 0 -144.5 66.5t-53.5 178.5q0 79 25.5 140t71 95.5t104.5 34.5q69 0 110.5 -48t41.5 -133q0 -13 -0.5 -27.5t-1.5 -28.5l-9 -10h-299v-4q0 -106 45 -167.5t121 -61.5 q78 0 134 55l12 -10q-11 -17 -27 -31q-29 -31 -64 -58t-60 -54.5t-25 -58.5q0 -25 15.5 -36t43.5 -11q14 0 25 1.5t27 5.5zM253 472q-64 0 -105 -51.5t-48 -134.5l265 5q1 11 1 20.5v14.5q0 71 -29.5 108.5t-83.5 37.5z" />
<glyph unicode="&#x11a;" horiz-adv-x="565" d="M342 774l-6 -4h-37q-22 22 -54.5 55t-64.5 69l14 10q27 -21 59.5 -46t66.5 -47q15 12 37 29t45.5 34t42.5 30l12 -12q-20 -18 -44 -41.5t-43 -44t-28 -32.5zM188 360l222 5l-2 -39l-220 4v-300h148q31 0 62 1.5t51 3.5l34 130h15q3 -33 3 -75q0 -22 -1.5 -47t-4.5 -43 h-432l-2 20l58 13q17 4 22 10t5 20v559q0 14 -5 20t-22 10l-58 13l2 20h422q3 -18 4.5 -42.5t1.5 -47.5q0 -37 -3 -75h-15l-34 130q-20 2 -51 3.5t-62 1.5h-138v-295z" />
<glyph unicode="&#x11b;" horiz-adv-x="459" d="M273 592l-6 -4h-41q-20 27 -49 68t-58 86l14 10q24 -27 54 -59t62 -61q14 16 34 38t41.5 44t39.5 38l12 -12q-18 -23 -39.5 -52t-38.5 -55t-25 -41zM411 70q-25 -37 -67 -58.5t-90 -21.5q-91 0 -144.5 66.5t-53.5 178.5q0 79 25.5 140t71 95.5t104.5 34.5q69 0 110.5 -48 t41.5 -133q0 -13 -0.5 -27.5t-1.5 -28.5l-9 -10h-299v-4q0 -106 45 -167.5t121 -61.5q78 0 134 55zM253 472q-64 0 -105 -51.5t-48 -134.5l265 5q1 11 1 20.5v14.5q0 71 -29.5 108.5t-83.5 37.5z" />
<glyph unicode="&#x11c;" horiz-adv-x="683" d="M520 781l-14 -10q-27 21 -59.5 46t-66.5 47q-15 -12 -37 -29t-45.5 -34t-42.5 -30l-12 12q21 19 44.5 42t43 44t27.5 32l6 4h37q23 -22 55 -55t64 -69zM389 -10q-105 0 -177.5 44t-110 123.5t-37.5 185.5q0 107 43.5 186t117 122.5t164.5 43.5q55 0 94.5 -8.5t64.5 -21.5 q3 -19 3 -46q0 -20 -1.5 -46.5t-4.5 -52.5h-15l-33 127q-22 7 -45.5 10t-61.5 3q-79 0 -142.5 -39.5t-101 -110.5t-37.5 -167t34 -167.5t96 -111t147 -39.5q37 0 63 3t58 13v240l-85 19l2 20h208l2 -20l-58 -13q-16 -4 -21.5 -10t-5.5 -20v-237q-26 -13 -67.5 -21.5 t-92.5 -8.5z" />
<glyph unicode="&#x11d;" horiz-adv-x="471" d="M365 596l-14 -10q-24 27 -54 59t-62 61q-14 -16 -34 -38t-41.5 -44t-39.5 -38l-12 12q19 23 40 52t38.5 55.5t24.5 40.5l6 4h41q20 -27 49 -68t58 -86zM76 317q0 55 21 97t58 66.5t84 24.5t84 -27q16 10 38 19t41 14.5t28 5.5q17 0 17 -23q0 -11 -2 -19q-1 -7 -6 -10.5 t-16 -3.5q-22 0 -41.5 -0.5t-38.5 -1.5q20 -23 31.5 -55t11.5 -71q0 -82 -43 -132.5t-114 -50.5q-20 0 -38 5q-12 -13 -19.5 -27.5t-7.5 -32.5q0 -22 12 -33t37 -13l88 -9q68 -7 104.5 -42t36.5 -92q0 -47 -28 -83.5t-76.5 -57t-112.5 -20.5q-82 0 -133 37.5t-51 98.5 q0 59 53 102l12 -10q-22 -38 -22 -76q0 -55 40 -87t110 -32q74 0 119.5 34t45.5 87q0 44 -28.5 70t-81.5 31l-85 8q-37 4 -57 25t-20 50q0 21 10.5 41t28.5 39q-41 19 -65.5 60t-24.5 94zM343 322q0 71 -28.5 110.5t-79.5 39.5t-83.5 -39.5t-32.5 -101.5q0 -64 31 -105.5 t80 -42.5q53 -1 83 36.5t30 102.5z" />
<glyph unicode="&#x11e;" horiz-adv-x="683" d="M483 888l4 2l14 -3q-11 -48 -43.5 -75t-78.5 -27q-45 0 -76.5 27t-39.5 75l17 3q11 -29 38.5 -45.5t65.5 -16.5q35 0 61 16t38 44zM389 -10q-105 0 -177.5 44t-110 123.5t-37.5 185.5q0 107 43.5 186t117 122.5t164.5 43.5q55 0 94.5 -8.5t64.5 -21.5q3 -19 3 -46 q0 -20 -1.5 -46.5t-4.5 -52.5h-15l-33 127q-22 7 -45.5 10t-61.5 3q-79 0 -142.5 -39.5t-101 -110.5t-37.5 -167t34 -167.5t96 -111t147 -39.5q37 0 63 3t58 13v240l-85 19l2 20h208l2 -20l-58 -13q-16 -4 -21.5 -10t-5.5 -20v-237q-26 -13 -67.5 -21.5t-92.5 -8.5z" />
<glyph unicode="&#x11f;" horiz-adv-x="471" d="M338 728l4 2l14 -3q-11 -58 -43.5 -90t-78.5 -32q-45 0 -76.5 32t-39.5 90l17 3q11 -38 38.5 -60t65.5 -22q35 0 61 21.5t38 58.5zM76 317q0 55 21 97t58 66.5t84 24.5t84 -27q16 10 38 19t41 14.5t28 5.5q17 0 17 -23q0 -11 -2 -19q-1 -7 -6 -10.5t-16 -3.5 q-22 0 -41.5 -0.5t-38.5 -1.5q20 -23 31.5 -55t11.5 -71q0 -82 -43 -132.5t-114 -50.5q-20 0 -38 5q-12 -13 -19.5 -27.5t-7.5 -32.5q0 -22 12 -33t37 -13l88 -9q68 -7 104.5 -42t36.5 -92q0 -47 -28 -83.5t-76.5 -57t-112.5 -20.5q-82 0 -133 37.5t-51 98.5q0 59 53 102 l12 -10q-22 -38 -22 -76q0 -55 40 -87t110 -32q74 0 119.5 34t45.5 87q0 44 -28.5 70t-81.5 31l-85 8q-37 4 -57 25t-20 50q0 21 10.5 41t28.5 39q-41 19 -65.5 60t-24.5 94zM343 322q0 71 -28.5 110.5t-79.5 39.5t-83.5 -39.5t-32.5 -101.5q0 -64 31 -105.5t80 -42.5 q53 -1 83 36.5t30 102.5z" />
<glyph unicode="&#x120;" horiz-adv-x="683" d="M422 835q0 -16 -9.5 -29.5t-31.5 -13.5q-19 0 -29 11.5t-10 27.5q0 17 11.5 30t30.5 13t28.5 -11t9.5 -28zM389 -10q-105 0 -177.5 44t-110 123.5t-37.5 185.5q0 107 43.5 186t117 122.5t164.5 43.5q55 0 94.5 -8.5t64.5 -21.5q3 -19 3 -46q0 -20 -1.5 -46.5t-4.5 -52.5 h-15l-33 127q-22 7 -45.5 10t-61.5 3q-79 0 -142.5 -39.5t-101 -110.5t-37.5 -167t34 -167.5t96 -111t147 -39.5q37 0 63 3t58 13v240l-85 19l2 20h208l2 -20l-58 -13q-16 -4 -21.5 -10t-5.5 -20v-237q-26 -13 -67.5 -21.5t-92.5 -8.5z" />
<glyph unicode="&#x121;" horiz-adv-x="471" d="M273 665q0 -17 -8.5 -32t-28.5 -15q-16 0 -25.5 12.5t-9.5 30.5t10.5 32.5t27.5 14.5t25.5 -12t8.5 -31zM76 317q0 55 21 97t58 66.5t84 24.5t84 -27q16 10 38 19t41 14.5t28 5.5q17 0 17 -23q0 -11 -2 -19q-1 -7 -6 -10.5t-16 -3.5q-22 0 -41.5 -0.5t-38.5 -1.5 q20 -23 31.5 -55t11.5 -71q0 -82 -43 -132.5t-114 -50.5q-20 0 -38 5q-12 -13 -19.5 -27.5t-7.5 -32.5q0 -22 12 -33t37 -13l88 -9q68 -7 104.5 -42t36.5 -92q0 -47 -28 -83.5t-76.5 -57t-112.5 -20.5q-82 0 -133 37.5t-51 98.5q0 59 53 102l12 -10q-22 -38 -22 -76 q0 -55 40 -87t110 -32q74 0 119.5 34t45.5 87q0 44 -28.5 70t-81.5 31l-85 8q-37 4 -57 25t-20 50q0 21 10.5 41t28.5 39q-41 19 -65.5 60t-24.5 94zM343 322q0 71 -28.5 110.5t-79.5 39.5t-83.5 -39.5t-32.5 -101.5q0 -64 31 -105.5t80 -42.5q53 -1 83 36.5t30 102.5z" />
<glyph unicode="&#x122;" horiz-adv-x="683" d="M389 -10q-105 0 -177.5 44t-110 123.5t-37.5 185.5q0 107 43.5 186t117 122.5t164.5 43.5q55 0 94.5 -8.5t64.5 -21.5q3 -19 3 -46q0 -20 -1.5 -46.5t-4.5 -52.5h-15l-33 127q-22 7 -45.5 10t-61.5 3q-79 0 -142.5 -39.5t-101 -110.5t-37.5 -167t34 -167.5t96 -111 t147 -39.5q37 0 63 3t58 13v240l-85 19l2 20h208l2 -20l-58 -13q-16 -4 -21.5 -10t-5.5 -20v-237q-26 -13 -67.5 -21.5t-92.5 -8.5zM409 -165q0 -26 -10.5 -56t-27 -56.5t-35.5 -43.5l-11 9q12 19 22 48.5t15 57.5q-15 2 -24.5 12.5t-9.5 26.5q0 18 12.5 31.5t29.5 13.5 q39 0 39 -43z" />
<glyph unicode="&#x123;" horiz-adv-x="471" d="M195 661q0 26 10.5 56t27 57t35.5 43l11 -9q-12 -19 -22 -48.5t-15 -57.5q15 -2 24.5 -12.5t9.5 -26.5q0 -18 -12.5 -31.5t-29.5 -13.5q-39 0 -39 43zM76 317q0 55 21 97t58 66.5t84 24.5t84 -27q16 10 38 19t41 14.5t28 5.5q17 0 17 -23q0 -11 -2 -19q-1 -7 -6 -10.5 t-16 -3.5q-22 0 -41.5 -0.5t-38.5 -1.5q20 -23 31.5 -55t11.5 -71q0 -82 -43 -132.5t-114 -50.5q-20 0 -38 5q-12 -13 -19.5 -27.5t-7.5 -32.5q0 -22 12 -33t37 -13l88 -9q68 -7 104.5 -42t36.5 -92q0 -47 -28 -83.5t-76.5 -57t-112.5 -20.5q-82 0 -133 37.5t-51 98.5 q0 59 53 102l12 -10q-22 -38 -22 -76q0 -55 40 -87t110 -32q74 0 119.5 34t45.5 87q0 44 -28.5 70t-81.5 31l-85 8q-37 4 -57 25t-20 50q0 21 10.5 41t28.5 39q-41 19 -65.5 60t-24.5 94zM343 322q0 71 -28.5 110.5t-79.5 39.5t-83.5 -39.5t-32.5 -101.5q0 -64 31 -105.5 t80 -42.5q53 -1 83 36.5t30 102.5z" />
<glyph unicode="&#x124;" horiz-adv-x="742" d="M509 781l-14 -10q-27 21 -59.5 46t-66.5 47q-15 -12 -37 -29t-45.5 -34t-42.5 -30l-12 12q21 19 44.5 42t43 44t27.5 32l6 4h37q23 -22 55 -55t64 -69zM188 39l85 -19l-2 -20h-208l-2 20l58 13q17 4 22 10t5 20v583l-85 19l2 20h208l2 -20l-58 -13q-16 -4 -21.5 -10 t-5.5 -20v-257h366v281l-85 19l2 20h208l2 -20l-58 -13q-16 -4 -21.5 -10t-5.5 -20v-583l85 -19l-2 -20h-208l-2 20l58 13q17 4 22 10t5 20v267h-366v-291z" />
<glyph unicode="&#x125;" horiz-adv-x="568" d="M-5 797l-12 12q21 19 44.5 42t43 44t27.5 32l6 4h37q23 -22 55 -55t64 -69l-14 -10q-27 21 -59.5 46t-66.5 47q-15 -12 -37 -29t-45.5 -34t-42.5 -30zM154 35l75 -19l-2 -16h-186l-2 16l48 13q17 5 22 10.5t5 20.5v650l-73 6l-2 14q23 8 52.5 14.5t52.5 10.5l10 -10v-304 q35 30 76 47t83 17q69 0 105 -39t36 -113v-318l75 -19l-2 -16h-186l-2 16l48 13q17 5 22 10.5t5 20.5v293q0 57 -27 88t-81 31q-82 0 -152 -67v-370z" />
<glyph unicode="&#x126;" horiz-adv-x="742" d="M188 365h366v131h-366v-131zM188 39l85 -19l-2 -20h-208l-2 20l58 13q17 4 22 10t5 20v433h-76v30h76v120l-85 19l2 20h208l2 -20l-58 -13q-16 -4 -21.5 -10t-5.5 -20v-96h366v120l-85 19l2 20h208l2 -20l-58 -13q-16 -4 -21.5 -10t-5.5 -20v-96h74v-30h-74v-457l85 -19 l-2 -20h-208l-2 20l58 13q17 4 22 10t5 20v267h-366v-291z" />
<glyph unicode="&#x127;" horiz-adv-x="568" d="M154 35l75 -19l-2 -16h-186l-2 16l48 13q17 5 22 10.5t5 20.5v520h-112v30h112v100l-73 6l-2 14q23 8 52.5 14.5t52.5 10.5l10 -10v-135h207v-30h-207v-139q35 30 76 47t83 17q69 0 105 -39t36 -113v-318l75 -19l-2 -16h-186l-2 16l48 13q17 5 22 10.5t5 20.5v293 q0 57 -27 88t-81 31q-82 0 -152 -67v-370z" />
<glyph unicode="&#x128;" horiz-adv-x="334" d="M1 776l-14 5q9 50 26.5 76.5t48.5 26.5q20 0 52 -10.5t66 -24t62.5 -24.5t42.5 -11q10 15 21 31t27 43l14 -6q-9 -49 -25 -75.5t-48 -26.5q-19 0 -51 10.5t-67 24t-63.5 24t-41.5 11.5q-8 -9 -21.5 -28.5t-28.5 -45.5zM188 39l85 -19l-2 -20h-208l-2 20l58 13q17 4 22 10 t5 20v583l-85 19l2 20h208l2 -20l-58 -13q-16 -4 -21.5 -10t-5.5 -20v-583z" />
<glyph unicode="&#x129;" horiz-adv-x="276" d="M78 680q-7 -6 -20 -18t-27 -29l-14 5q7 37 22 57t41 20q13 0 34.5 -9t42 -18t28.5 -10q10 10 20.5 20t25.5 27l14 -6q-7 -36 -21 -56t-41 -20q-12 0 -34 9t-42.5 18.5t-28.5 9.5zM162 35l75 -19l-2 -16h-186l-2 16l48 13q17 5 22 10.5t5 20.5v400l-73 6l-2 14 q23 8 52.5 14.5t52.5 10.5l10 -10v-460z" />
<glyph unicode="&#x12a;" horiz-adv-x="334" d="M41 817v39h254v-39h-254zM188 39l85 -19l-2 -20h-208l-2 20l58 13q17 4 22 10t5 20v583l-85 19l2 20h208l2 -20l-58 -13q-16 -4 -21.5 -10t-5.5 -20v-583z" />
<glyph unicode="&#x12b;" horiz-adv-x="276" d="M56 653v34h150v-34h-150zM162 35l75 -19l-2 -16h-186l-2 16l48 13q17 5 22 10.5t5 20.5v400l-73 6l-2 14q23 8 52.5 14.5t52.5 10.5l10 -10v-460z" />
<glyph unicode="&#x12c;" horiz-adv-x="334" d="M269 888l4 2l14 -3q-11 -48 -43.5 -75t-78.5 -27q-45 0 -76.5 27t-39.5 75l17 3q11 -29 38.5 -45.5t65.5 -16.5q35 0 61 16t38 44zM188 39l85 -19l-2 -20h-208l-2 20l58 13q17 4 22 10t5 20v583l-85 19l2 20h208l2 -20l-58 -13q-16 -4 -21.5 -10t-5.5 -20v-583z" />
<glyph unicode="&#x12d;" horiz-adv-x="276" d="M235 721q-5 -55 -34 -88.5t-72 -33.5q-42 0 -69 33.5t-31 88.5l17 3q7 -37 31 -59.5t57 -22.5q32 0 55 22t28 58l4 2zM162 35l75 -19l-2 -16h-186l-2 16l48 13q17 5 22 10.5t5 20.5v400l-73 6l-2 14q23 8 52.5 14.5t52.5 10.5l10 -10v-460z" />
<glyph unicode="&#x12e;" horiz-adv-x="334" d="M188 39l85 -19l-2 -20q-111 -64 -111 -127q0 -25 15.5 -38.5t43.5 -13.5q14 0 25 1.5t27 5.5l4 -9q-34 -31 -82 -31q-35 0 -55 19.5t-20 54.5q0 74 111 138h-166l-2 20l58 13q17 4 22 10t5 20v583l-85 19l2 20h208l2 -20l-58 -13q-16 -4 -21.5 -10t-5.5 -20v-583z" />
<glyph unicode="&#x12f;" horiz-adv-x="276" d="M167 665q0 -17 -8.5 -32t-28.5 -15q-16 0 -25.5 12.5t-9.5 30.5t10.5 32.5t27.5 14.5t25.5 -12t8.5 -31zM162 35l75 -19l-2 -16q-111 -64 -111 -127q0 -25 15.5 -38.5t43.5 -13.5q14 0 25 1.5t27 5.5l4 -9q-34 -31 -82 -31q-35 0 -55 19.5t-20 54.5q0 74 111 138h-144 l-2 16l48 13q17 5 22 10.5t5 20.5v400l-73 6l-2 14q23 8 52.5 14.5t52.5 10.5l10 -10v-460z" />
<glyph unicode="&#x130;" horiz-adv-x="334" d="M208 835q0 -16 -9.5 -29.5t-31.5 -13.5q-19 0 -29 11.5t-10 27.5q0 17 11.5 30t30.5 13t28.5 -11t9.5 -28zM188 39l85 -19l-2 -20h-208l-2 20l58 13q17 4 22 10t5 20v583l-85 19l2 20h208l2 -20l-58 -13q-16 -4 -21.5 -10t-5.5 -20v-583z" />
<glyph unicode="&#x131;" horiz-adv-x="276" d="M162 35l75 -19l-2 -16h-186l-2 16l48 13q17 5 22 10.5t5 20.5v400l-73 6l-2 14q23 8 52.5 14.5t52.5 10.5l10 -10v-460z" />
<glyph unicode="&#x132;" horiz-adv-x="571" d="M188 39l85 -19l-2 -20h-208l-2 20l58 13q17 4 22 10t5 20v583l-85 19l2 20h208l2 -20l-58 -13q-16 -4 -21.5 -10t-5.5 -20v-583zM399 646l-85 19l2 20h208l2 -20l-58 -13q-16 -4 -21.5 -10t-5.5 -20v-547q0 -63 -12 -104t-36.5 -73t-62.5 -68l-17 17q20 28 36 52.5t27 52 t17 64t6 88.5v542z" />
<glyph unicode="&#x133;" horiz-adv-x="476" d="M167 665q0 -17 -8.5 -32t-28.5 -15q-16 0 -25.5 12.5t-9.5 30.5t10.5 32.5t27.5 14.5t25.5 -12t8.5 -31zM380 665q0 -17 -8.5 -32t-28.5 -15q-16 0 -25.5 12.5t-9.5 30.5t10.5 32.5t27.5 14.5t25.5 -12t8.5 -31zM162 35l75 -19l-2 -16h-186l-2 16l48 13q17 5 22 10.5 t5 20.5v400l-73 6l-2 14q23 8 52.5 14.5t52.5 10.5l10 -10v-460zM249 -241q26 37 45.5 69.5t30 76.5t10.5 114v441l-73 6l-2 14q23 8 52.5 14.5t52.5 10.5l10 -10v-505q0 -63 -12 -104t-36.5 -73t-62.5 -68z" />
<glyph unicode="&#x134;" horiz-adv-x="319" d="M306 781l-14 -10q-27 21 -59.5 46t-66.5 47q-15 -12 -37 -29t-45.5 -34t-42.5 -30l-12 12q21 19 44.5 42t43 44t27.5 32l6 4h37q23 -22 55 -55t64 -69zM147 646l-85 19l2 20h208l2 -20l-58 -13q-16 -4 -21.5 -10t-5.5 -20v-547q0 -63 -12 -104t-36.5 -73t-62.5 -68 l-17 17q20 28 36 52.5t27 52t17 64t6 88.5v542z" />
<glyph unicode="&#x135;" horiz-adv-x="256" d="M226 591l-14 -10q-18 27 -40 58.5t-46 60.5q-16 -26 -41 -61t-44 -58l-12 12q13 23 27.5 52t27 55.5t17.5 40.5l6 4h43q14 -27 34.5 -68t41.5 -86zM29 -241q26 37 45.5 69.5t30 76.5t10.5 114v441l-73 6l-2 14q23 8 52.5 14.5t52.5 10.5l10 -10v-505q0 -63 -12 -104 t-36.5 -73t-62.5 -68z" />
<glyph unicode="&#x136;" horiz-adv-x="669" d="M188 39l85 -19l-2 -20h-208l-2 20l58 13q17 4 22 10t5 20v583l-85 19l2 20h208l2 -20l-58 -13q-16 -4 -21.5 -10t-5.5 -20v-274l145 2l180 296l-85 19l2 20h205l2 -20l-59 -13q-14 -3 -23 -11t-20 -25l-169 -275l143 -241q23 -37 41.5 -51t49.5 -22l28 -7l-2 -20h-42 q-43 0 -65 18t-42 52l-144 245h-145v-276zM411 -165q0 -26 -10.5 -56t-27 -56.5t-35.5 -43.5l-11 9q12 19 22 48.5t15 57.5q-15 2 -24.5 12.5t-9.5 26.5q0 18 12.5 31.5t29.5 13.5q39 0 39 -43z" />
<glyph unicode="&#x137;" horiz-adv-x="528" d="M154 35l75 -19l-2 -16h-186l-2 16l48 13q17 5 22 10.5t5 20.5v651l-73 6l-2 14q23 8 52.5 14.5t52.5 10.5l10 -10v-466h114l113 180l-75 19l2 16h177l2 -16l-44 -13q-13 -4 -21 -11.5t-19 -24.5l-105 -155l108 -181q16 -26 30 -42t34 -22l34 -10l-2 -20h-36 q-34 0 -52 15.5t-36 46.5l-111 188h-113v-215zM328 -165q0 -26 -10.5 -56t-27 -56.5t-35.5 -43.5l-11 9q12 19 22 48.5t15 57.5q-15 2 -24.5 12.5t-9.5 26.5q0 18 12.5 31.5t29.5 13.5q39 0 39 -43z" />
<glyph unicode="&#x138;" horiz-adv-x="537" d="M162 35l75 -19l-2 -16h-186l-2 16l48 13q17 5 22 10.5t5 20.5v400l-73 6l-2 14q23 8 52.5 14.5t52.5 10.5l10 -10v-240h117l140 207l-72 16l2 17h175l2 -17q-13 -2 -24.5 -4.5t-25.5 -7.5q-10 -4 -19.5 -13.5t-17.5 -20.5l-128 -184l101 -138q28 -38 46 -57t46 -29l23 -8 l-2 -16l-38 -2q-31 -1 -46.5 13.5t-33.5 39.5l-127 172h-118v-188z" />
<glyph unicode="&#x139;" horiz-adv-x="548" d="M264 896l7 1q21 -7 21 -26q0 -16 -26 -31.5t-64 -28.5t-76 -21.5t-63 -11.5l-7 16q74 21 125 50t83 52zM146 646l-85 19l2 20h208l2 -20l-58 -13q-16 -4 -21.5 -10t-5.5 -20v-592h139q33 0 65.5 3t54.5 8q5 16 9.5 33t10.5 46l7 35h15q3 -33 3 -75q0 -20 -1.5 -42 t-4.5 -38h-423l-2 20l58 13q17 4 22 10t5 20v583z" />
<glyph unicode="&#x13a;" horiz-adv-x="268" d="M206 958l7 1q21 -7 21 -26q0 -16 -26 -31.5t-64 -28.5t-76 -21.5t-63 -11.5l-7 16q74 21 125 50t83 52zM154 35l75 -19l-2 -16h-186l-2 16l48 13q17 5 22 10.5t5 20.5v651l-73 6l-2 14q23 8 52.5 14.5t52.5 10.5l10 -10v-711z" />
<glyph unicode="&#x13b;" horiz-adv-x="548" d="M146 646l-85 19l2 20h208l2 -20l-58 -13q-16 -4 -21.5 -10t-5.5 -20v-592h139q33 0 65.5 3t54.5 8q5 16 9.5 33t10.5 46l7 35h15q3 -33 3 -75q0 -20 -1.5 -42t-4.5 -38h-423l-2 20l58 13q17 4 22 10t5 20v583zM339 -165q0 -26 -10.5 -56t-27 -56.5t-35.5 -43.5l-11 9 q12 19 22 48.5t15 57.5q-15 2 -24.5 12.5t-9.5 26.5q0 18 12.5 31.5t29.5 13.5q39 0 39 -43z" />
<glyph unicode="&#x13c;" horiz-adv-x="268" d="M154 35l75 -19l-2 -16h-186l-2 16l48 13q17 5 22 10.5t5 20.5v651l-73 6l-2 14q23 8 52.5 14.5t52.5 10.5l10 -10v-711zM171 -165q0 -26 -10.5 -56t-27 -56.5t-35.5 -43.5l-11 9q12 19 22 48.5t15 57.5q-15 2 -24.5 12.5t-9.5 26.5q0 18 12.5 31.5t29.5 13.5q39 0 39 -43 z" />
<glyph unicode="&#x13d;" horiz-adv-x="554" d="M498 657q0 -26 -10.5 -56t-27 -56.5t-35.5 -43.5l-11 9q12 19 22 48.5t15 57.5q-15 2 -24.5 12.5t-9.5 26.5q0 18 12.5 31.5t29.5 13.5q39 0 39 -43zM146 646l-85 19l2 20h208l2 -20l-58 -13q-16 -4 -21.5 -10t-5.5 -20v-592h139q33 0 65.5 3t54.5 8q5 16 9.5 33t10.5 46 l7 35h15q3 -33 3 -75q0 -20 -1.5 -42t-4.5 -38h-423l-2 20l58 13q17 4 22 10t5 20v583z" />
<glyph unicode="&#x13e;" horiz-adv-x="398" d="M154 35l75 -19l-2 -16h-186l-2 16l48 13q17 5 22 10.5t5 20.5v651l-73 6l-2 14q23 8 52.5 14.5t52.5 10.5l10 -10v-711zM342 712q0 -26 -10.5 -56t-27 -56.5t-35.5 -43.5l-11 9q12 19 22 48.5t15 57.5q-15 2 -24.5 12.5t-9.5 26.5q0 18 12.5 31.5t29.5 13.5q39 0 39 -43z " />
<glyph unicode="&#x13f;" horiz-adv-x="548" d="M146 646l-85 19l2 20h208l2 -20l-58 -13q-16 -4 -21.5 -10t-5.5 -20v-592h139q33 0 65.5 3t54.5 8q5 16 9.5 33t10.5 46l7 35h15q3 -33 3 -75q0 -20 -1.5 -42t-4.5 -38h-423l-2 20l58 13q17 4 22 10t5 20v583zM473 371q0 -17 -8.5 -32t-28.5 -15q-16 0 -25.5 12.5 t-9.5 30.5t10.5 32.5t27.5 14.5t25.5 -12t8.5 -31z" />
<glyph unicode="&#x140;" horiz-adv-x="315" d="M154 35l75 -19l-2 -16h-186l-2 16l48 13q17 5 22 10.5t5 20.5v651l-73 6l-2 14q23 8 52.5 14.5t52.5 10.5l10 -10v-711zM315 412q0 -17 -8.5 -32t-28.5 -15q-16 0 -25.5 12.5t-9.5 30.5t10.5 32.5t27.5 14.5t25.5 -12t8.5 -31z" />
<glyph unicode="&#x141;" horiz-adv-x="548" d="M336 417l-148 -82v-305h139q33 0 65.5 3t54.5 8q5 16 9.5 33t10.5 46l7 35h15q3 -33 3 -75q0 -20 -1.5 -42t-4.5 -38h-423l-2 20l58 13q17 4 22 10t5 20v249l-126 -70l-16 31l142 79v294l-85 19l2 20h208l2 -20l-58 -13q-16 -4 -21.5 -10t-5.5 -20v-247l131 73z" />
<glyph unicode="&#x142;" horiz-adv-x="268" d="M154 35l75 -19l-2 -16h-186l-2 16l48 13q17 5 22 10.5t5 20.5v303l-131 -73l-16 31l147 82v308l-73 6l-2 14q23 8 52.5 14.5t52.5 10.5l10 -10v-321l128 71l17 -31l-145 -80v-350z" />
<glyph unicode="&#x143;" horiz-adv-x="736" d="M456 896l7 1q21 -7 21 -26q0 -16 -26 -31.5t-64 -28.5t-76 -21.5t-63 -11.5l-7 16q74 21 125 50t83 52zM181 39l105 -19l-2 -20h-221l-2 20l58 13q17 4 22 10t5 20v559q0 14 -5 20t-22 10l-58 13l2 20h118l390 -610v571l-85 19l2 20h201l2 -20l-58 -13q-16 -4 -21.5 -10 t-5.5 -20v-622h-35l-390 606v-567z" />
<glyph unicode="&#x144;" horiz-adv-x="576" d="M386 732q0 -17 -25 -43t-61 -54.5t-69 -53.5l-12 12q40 43 75 86t51 74l5 2h4q17 0 24.5 -6.5t7.5 -16.5zM162 35l75 -19l-2 -16h-186l-2 16l48 13q17 5 22 10.5t5 20.5v400l-73 6l-2 14q23 8 52.5 14.5t52.5 10.5l10 -10v-54q35 30 76 47t83 17q69 0 105 -39t36 -113 v-318l75 -19l-2 -16h-186l-2 16l48 13q17 5 22 10.5t5 20.5v293q0 57 -27 88t-81 31q-82 0 -152 -67v-370z" />
<glyph unicode="&#x145;" horiz-adv-x="736" d="M181 39l105 -19l-2 -20h-221l-2 20l58 13q17 4 22 10t5 20v559q0 14 -5 20t-22 10l-58 13l2 20h118l390 -610v571l-85 19l2 20h201l2 -20l-58 -13q-16 -4 -21.5 -10t-5.5 -20v-622h-35l-390 606v-567zM418 -165q0 -26 -10.5 -56t-27 -56.5t-35.5 -43.5l-11 9 q12 19 22 48.5t15 57.5q-15 2 -24.5 12.5t-9.5 26.5q0 18 12.5 31.5t29.5 13.5q39 0 39 -43z" />
<glyph unicode="&#x146;" horiz-adv-x="576" d="M162 35l75 -19l-2 -16h-186l-2 16l48 13q17 5 22 10.5t5 20.5v400l-73 6l-2 14q23 8 52.5 14.5t52.5 10.5l10 -10v-54q35 30 76 47t83 17q69 0 105 -39t36 -113v-318l75 -19l-2 -16h-186l-2 16l48 13q17 5 22 10.5t5 20.5v293q0 57 -27 88t-81 31q-82 0 -152 -67v-370z M325 -165q0 -26 -10.5 -56t-27 -56.5t-35.5 -43.5l-11 9q12 19 22 48.5t15 57.5q-15 2 -24.5 12.5t-9.5 26.5q0 18 12.5 31.5t29.5 13.5q39 0 39 -43z" />
<glyph unicode="&#x147;" horiz-adv-x="736" d="M389 775l-6 -4h-37q-22 22 -54.5 55t-64.5 69l14 10q27 -21 59.5 -46t66.5 -47q15 12 37 29t45.5 34t42.5 30l12 -12q-20 -18 -44 -41.5t-43 -44t-28 -32.5zM181 39l105 -19l-2 -20h-221l-2 20l58 13q17 4 22 10t5 20v559q0 14 -5 20t-22 10l-58 13l2 20h118l390 -610 v571l-85 19l2 20h201l2 -20l-58 -13q-16 -4 -21.5 -10t-5.5 -20v-622h-35l-390 606v-567z" />
<glyph unicode="&#x148;" horiz-adv-x="576" d="M309 592l-6 -4h-41q-20 27 -49 68t-58 86l14 10q24 -27 54 -59t62 -61q14 16 34 38t41.5 44t39.5 38l12 -12q-18 -23 -39.5 -52t-38.5 -55t-25 -41zM162 35l75 -19l-2 -16h-186l-2 16l48 13q17 5 22 10.5t5 20.5v400l-73 6l-2 14q23 8 52.5 14.5t52.5 10.5l10 -10v-54 q35 30 76 47t83 17q69 0 105 -39t36 -113v-318l75 -19l-2 -16h-186l-2 16l48 13q17 5 22 10.5t5 20.5v293q0 57 -27 88t-81 31q-82 0 -152 -67v-370z" />
<glyph unicode="&#x14a;" horiz-adv-x="736" d="M181 39l105 -19l-2 -20h-221l-2 20l58 13q17 4 22 10t5 20v559q0 14 -5 20t-22 10l-58 13l2 20h118l389 -609q1 13 1 28v542l-85 19l2 20h201l2 -20l-58 -13q-16 -4 -21.5 -10t-5.5 -20v-547q0 -63 -12 -104t-36.5 -73t-62.5 -68l-15 15q31 42 52.5 77t31.5 89l-383 595 v-567z" />
<glyph unicode="&#x14b;" horiz-adv-x="563" d="M162 35l75 -19l-2 -16h-186l-2 16l48 13q17 5 22 10.5t5 20.5v400l-73 6l-2 14q23 8 52.5 14.5t52.5 10.5l10 -10v-54q35 30 76 47t83 17q69 0 105 -39t36 -113v-363q0 -63 -12 -104t-36.5 -73t-62.5 -68l-15 14q26 37 45.5 69.5t30 76.5t10.5 114v334q0 57 -27 88 t-81 31q-82 0 -152 -67v-370z" />
<glyph unicode="&#x14c;" horiz-adv-x="648" d="M203 817v39h254v-39h-254zM64 343q0 109 34.5 188t95 121.5t138.5 42.5q75 0 131.5 -42.5t88.5 -120t32 -184.5t-32 -187.5t-90.5 -125.5t-138.5 -45q-79 0 -137.5 42.5t-90 122t-31.5 188.5zM109 343q0 -98 27 -169.5t76 -110t114 -38.5t113 40.5t74 113.5t26 169 q0 95 -26 165t-72.5 108.5t-108.5 38.5q-66 0 -116 -38.5t-78.5 -109.5t-28.5 -169z" />
<glyph unicode="&#x14d;" horiz-adv-x="498" d="M128 653v34h254v-34h-254zM442 250q0 -84 -26 -142t-70 -87.5t-99 -30.5q-54 0 -97.5 30t-68.5 88.5t-25 142.5t29 140.5t75 85t96 28.5t92.5 -28.5t68 -85t25.5 -141.5zM99 249q0 -63 18 -114.5t51.5 -81.5t78.5 -30q70 0 111 55t41 167q0 67 -17.5 118t-50 80t-76.5 29 q-67 0 -111.5 -55t-44.5 -168z" />
<glyph unicode="&#x14e;" horiz-adv-x="648" d="M431 888l4 2l14 -3q-11 -48 -43.5 -75t-78.5 -27q-45 0 -76.5 27t-39.5 75l17 3q11 -29 38.5 -45.5t65.5 -16.5q35 0 61 16t38 44zM64 343q0 109 34.5 188t95 121.5t138.5 42.5q75 0 131.5 -42.5t88.5 -120t32 -184.5t-32 -187.5t-90.5 -125.5t-138.5 -45 q-79 0 -137.5 42.5t-90 122t-31.5 188.5zM109 343q0 -98 27 -169.5t76 -110t114 -38.5t113 40.5t74 113.5t26 169q0 95 -26 165t-72.5 108.5t-108.5 38.5q-66 0 -116 -38.5t-78.5 -109.5t-28.5 -169z" />
<glyph unicode="&#x14f;" horiz-adv-x="498" d="M356 728l4 2l14 -3q-11 -58 -43.5 -90t-78.5 -32q-45 0 -76.5 32t-39.5 90l17 3q11 -38 38.5 -60t65.5 -22q35 0 61 21.5t38 58.5zM442 250q0 -84 -26 -142t-70 -87.5t-99 -30.5q-54 0 -97.5 30t-68.5 88.5t-25 142.5t29 140.5t75 85t96 28.5t92.5 -28.5t68 -85 t25.5 -141.5zM99 249q0 -63 18 -114.5t51.5 -81.5t78.5 -30q70 0 111 55t41 167q0 67 -17.5 118t-50 80t-76.5 29q-67 0 -111.5 -55t-44.5 -168z" />
<glyph unicode="&#x150;" horiz-adv-x="648" d="M326 897l7 1q21 -7 21 -26q0 -14 -20 -29.5t-50 -29t-59.5 -22.5t-49.5 -12l-7 16q56 21 94.5 50t63.5 52zM506 897l7 1q21 -7 21 -26q0 -14 -20 -29.5t-50 -29t-59.5 -22.5t-49.5 -12l-7 16q56 21 94.5 50t63.5 52zM64 343q0 109 34.5 188t95 121.5t138.5 42.5 q75 0 131.5 -42.5t88.5 -120t32 -184.5t-32 -187.5t-90.5 -125.5t-138.5 -45q-79 0 -137.5 42.5t-90 122t-31.5 188.5zM109 343q0 -98 27 -169.5t76 -110t114 -38.5t113 40.5t74 113.5t26 169q0 95 -26 165t-72.5 108.5t-108.5 38.5q-66 0 -116 -38.5t-78.5 -109.5 t-28.5 -169z" />
<glyph unicode="&#x151;" horiz-adv-x="498" d="M280 732q0 -17 -24.5 -43t-59.5 -54.5t-67 -53.5l-12 12q40 43 74.5 86t50.5 74l5 2h4q15 0 22 -6.5t7 -16.5zM410 732q0 -17 -24.5 -43t-59.5 -54.5t-67 -53.5l-12 12q40 43 74.5 86t50.5 74l5 2h4q15 0 22 -6.5t7 -16.5zM442 250q0 -84 -26 -142t-70 -87.5t-99 -30.5 q-54 0 -97.5 30t-68.5 88.5t-25 142.5t29 140.5t75 85t96 28.5t92.5 -28.5t68 -85t25.5 -141.5zM99 249q0 -63 18 -114.5t51.5 -81.5t78.5 -30q70 0 111 55t41 167q0 67 -17.5 118t-50 80t-76.5 29q-67 0 -111.5 -55t-44.5 -168z" />
<glyph unicode="&#x152;" horiz-adv-x="857" d="M108 338q0 -96 34.5 -167t92.5 -109.5t129 -38.5q45 0 74 9v620q-30 10 -65 10q-76 0 -136 -39.5t-94.5 -112t-34.5 -172.5zM480 360l222 5l-2 -39l-220 4v-300h148q31 0 62 1.5t51 3.5l34 130h15q3 -33 3 -75q0 -22 -1.5 -47t-4.5 -43h-348q-34 -10 -76 -10 q-86 0 -154 42t-107 120t-39 186q0 109 41.5 189t112 124t155.5 44q35 0 68 -10h337q3 -18 4.5 -42.5t1.5 -47.5q0 -37 -3 -75h-15l-34 130q-20 2 -51 3.5t-62 1.5h-138v-295z" />
<glyph unicode="&#x153;" horiz-adv-x="807" d="M241 -10q-53 0 -95 30t-66.5 88.5t-24.5 142.5t28.5 140.5t73 85t93.5 28.5q60 0 104.5 -35.5t64.5 -106.5q24 65 71 103.5t109 38.5q69 0 110.5 -48t41.5 -133q0 -13 -0.5 -27.5t-1.5 -28.5l-9 -10h-299v-4q0 -106 45 -167.5t121 -61.5q78 0 134 55l12 -10 q-25 -37 -67 -58.5t-90 -21.5q-66 0 -112.5 35.5t-68.5 98.5q-22 -66 -67 -99.5t-107 -34.5zM98 249q0 -63 18 -114.5t51.5 -81.5t78.5 -30q70 0 111 55t41 167q0 67 -17.5 118t-50 80t-76.5 29q-67 0 -111.5 -55t-44.5 -168zM595 472q-64 0 -105 -51.5t-48 -134.5l265 5 q1 11 1 20.5v14.5q0 71 -29.5 108.5t-83.5 37.5z" />
<glyph unicode="&#x154;" horiz-adv-x="628" d="M383 896l7 1q21 -7 21 -26q0 -16 -26 -31.5t-64 -28.5t-76 -21.5t-63 -11.5l-7 16q74 21 125 50t83 52zM268 650h-80v-317h80q89 0 139.5 40t50.5 122q0 74 -50.5 114.5t-139.5 40.5zM188 39l85 -19l-2 -20h-208l-2 20l58 13q17 4 22 10t5 20v559q0 14 -5 20t-22 10 l-58 13l2 20h215q62 0 113 -22t81.5 -64t30.5 -104q0 -71 -38.5 -116.5t-96.5 -64.5l114 -214q14 -26 27 -39.5t28 -20t36 -13.5l23 -7l-2 -20h-37q-43 0 -65.5 17.5t-41.5 52.5l-124 234q-23 -4 -48 -4h-90v-261z" />
<glyph unicode="&#x155;" horiz-adv-x="388" d="M336 732q0 -17 -25 -43t-61 -54.5t-69 -53.5l-12 12q40 43 75 86t51 74l5 2h4q17 0 24.5 -6.5t7.5 -16.5zM162 35l95 -19l-2 -16h-206l-2 16l48 13q17 5 22 10.5t5 20.5v400l-73 6l-2 14q23 8 52.5 14.5t52.5 10.5l10 -10v-71q31 39 65.5 60t69.5 21q32 0 49.5 -15.5 t17.5 -33.5q0 -14 -7 -22t-13 -12q-2 -1 -5 -2q-10 20 -23 32.5t-37 12.5q-34 0 -64.5 -27t-52.5 -58v-345z" />
<glyph unicode="&#x156;" horiz-adv-x="628" d="M268 650h-80v-317h80q89 0 139.5 40t50.5 122q0 74 -50.5 114.5t-139.5 40.5zM393 -165q0 -26 -10.5 -56t-27 -56.5t-35.5 -43.5l-11 9q12 19 22 48.5t15 57.5q-15 2 -24.5 12.5t-9.5 26.5q0 18 12.5 31.5t29.5 13.5q39 0 39 -43zM188 39l85 -19l-2 -20h-208l-2 20l58 13 q17 4 22 10t5 20v559q0 14 -5 20t-22 10l-58 13l2 20h215q62 0 113 -22t81.5 -64t30.5 -104q0 -71 -38.5 -116.5t-96.5 -64.5l114 -214q14 -26 27 -39.5t28 -20t36 -13.5l23 -7l-2 -20h-37q-43 0 -65.5 17.5t-41.5 52.5l-124 234q-23 -4 -48 -4h-90v-261z" />
<glyph unicode="&#x157;" horiz-adv-x="388" d="M162 35l95 -19l-2 -16h-206l-2 16l48 13q17 5 22 10.5t5 20.5v400l-73 6l-2 14q23 8 52.5 14.5t52.5 10.5l10 -10v-71q31 39 65.5 60t69.5 21q32 0 49.5 -15.5t17.5 -33.5q0 -14 -7 -22t-13 -12q-2 -1 -5 -2q-10 20 -23 32.5t-37 12.5q-34 0 -64.5 -27t-52.5 -58v-345z M185 -165q0 -26 -10.5 -56t-27 -56.5t-35.5 -43.5l-11 9q12 19 22 48.5t15 57.5q-15 2 -24.5 12.5t-9.5 26.5q0 18 12.5 31.5t29.5 13.5q39 0 39 -43z" />
<glyph unicode="&#x158;" horiz-adv-x="628" d="M316 775l-6 -4h-37q-22 22 -54.5 55t-64.5 69l14 10q27 -21 59.5 -46t66.5 -47q15 12 37 29t45.5 34t42.5 30l12 -12q-20 -18 -44 -41.5t-43 -44t-28 -32.5zM268 650h-80v-317h80q89 0 139.5 40t50.5 122q0 74 -50.5 114.5t-139.5 40.5zM188 39l85 -19l-2 -20h-208l-2 20 l58 13q17 4 22 10t5 20v559q0 14 -5 20t-22 10l-58 13l2 20h215q62 0 113 -22t81.5 -64t30.5 -104q0 -71 -38.5 -116.5t-96.5 -64.5l114 -214q14 -26 27 -39.5t28 -20t36 -13.5l23 -7l-2 -20h-37q-43 0 -65.5 17.5t-41.5 52.5l-124 234q-23 -4 -48 -4h-90v-261z" />
<glyph unicode="&#x159;" horiz-adv-x="388" d="M259 592l-6 -4h-41q-20 27 -49 68t-58 86l14 10q24 -27 54 -59t62 -61q14 16 34 38t41.5 44t39.5 38l12 -12q-18 -23 -39.5 -52t-38.5 -55t-25 -41zM162 35l95 -19l-2 -16h-206l-2 16l48 13q17 5 22 10.5t5 20.5v400l-73 6l-2 14q23 8 52.5 14.5t52.5 10.5l10 -10v-71 q31 39 65.5 60t69.5 21q32 0 49.5 -15.5t17.5 -33.5q0 -14 -7 -22t-13 -12q-2 -1 -5 -2q-10 20 -23 32.5t-37 12.5q-34 0 -64.5 -27t-52.5 -58v-345z" />
<glyph unicode="&#x15a;" horiz-adv-x="482" d="M356 896l7 1q21 -7 21 -26q0 -16 -26 -31.5t-64 -28.5t-76 -21.5t-63 -11.5l-7 16q74 21 125 50t83 52zM226 -10q-38 0 -73 5.5t-59 14.5t-29 17q-6 10 -7.5 22t-1.5 34q0 15 1.5 39.5t5.5 42.5h15q9 -53 17 -76t21 -37q17 -17 49 -22t67 -5q46 0 79 17.5t51.5 47 t18.5 64.5q0 46 -23 78t-59 56.5t-76 47t-76 48.5t-59 61.5t-23 86.5q0 52 26.5 88.5t71 55.5t98.5 19q56 0 93 -12.5t47 -24.5q5 -5 5.5 -18t0.5 -28q0 -19 -1.5 -43.5t-4.5 -48.5h-16q-7 51 -15 76t-20 37q-15 14 -42.5 20.5t-56.5 6.5q-61 0 -101 -34t-40 -93 q0 -45 23 -76.5t59 -55.5t76 -46.5t76 -48.5t59 -61.5t23 -86.5q0 -74 -54 -121t-146 -47z" />
<glyph unicode="&#x15b;" horiz-adv-x="404" d="M304 732q0 -17 -25 -43t-61 -54.5t-69 -53.5l-12 12q40 43 75 86t51 74l5 2h4q17 0 24.5 -6.5t7.5 -16.5zM187 -10q-25 0 -51.5 4t-46 10.5t-25.5 12.5q-4 5 -6 16t-2 34q0 19 1.5 39.5t4.5 38.5h15q5 -46 12 -68.5t20 -36.5q17 -17 84 -17q51 0 81.5 24.5t30.5 66.5 q0 33 -17.5 54t-45.5 37t-59 30t-59 32t-45.5 44.5t-17.5 65.5q0 37 21 66t56.5 45.5t78.5 16.5q38 0 71 -8t42 -19q4 -4 5 -13.5t1 -30.5q0 -17 -1.5 -40.5t-4.5 -43.5h-15q-4 50 -10.5 72.5t-18.5 31.5q-27 18 -74 18q-48 0 -78 -25t-30 -70q0 -32 17.5 -54t45.5 -37.5 t59 -30.5t59 -32.5t45.5 -42.5t17.5 -62q0 -57 -44.5 -92.5t-116.5 -35.5z" />
<glyph unicode="&#x15c;" horiz-adv-x="482" d="M394 781l-14 -10q-27 21 -59.5 46t-66.5 47q-15 -12 -37 -29t-45.5 -34t-42.5 -30l-12 12q21 19 44 42t43 44t28 32l6 4h37q23 -22 55 -55t64 -69zM226 -10q-38 0 -73 5.5t-59 14.5t-29 17q-6 10 -7.5 22t-1.5 34q0 15 1.5 39.5t5.5 42.5h15q9 -53 17 -76t21 -37 q17 -17 49 -22t67 -5q46 0 79 17.5t51.5 47t18.5 64.5q0 46 -23 78t-59 56.5t-76 47t-76 48.5t-59 61.5t-23 86.5q0 52 26.5 88.5t71 55.5t98.5 19q56 0 93 -12.5t47 -24.5q5 -5 5.5 -18t0.5 -28q0 -19 -1.5 -43.5t-4.5 -48.5h-16q-7 51 -15 76t-20 37q-15 14 -42.5 20.5 t-56.5 6.5q-61 0 -101 -34t-40 -93q0 -45 23 -76.5t59 -55.5t76 -46.5t76 -48.5t59 -61.5t23 -86.5q0 -74 -54 -121t-146 -47z" />
<glyph unicode="&#x15d;" horiz-adv-x="404" d="M335 596l-14 -10q-24 27 -54 59t-62 61q-14 -16 -34 -38t-41.5 -44t-39.5 -38l-12 12q19 23 40 52t38.5 55.5t24.5 40.5l6 4h41q20 -27 49 -68t58 -86zM187 -10q-25 0 -51.5 4t-46 10.5t-25.5 12.5q-4 5 -6 16t-2 34q0 19 1.5 39.5t4.5 38.5h15q5 -46 12 -68.5t20 -36.5 q17 -17 84 -17q51 0 81.5 24.5t30.5 66.5q0 33 -17.5 54t-45.5 37t-59 30t-59 32t-45.5 44.5t-17.5 65.5q0 37 21 66t56.5 45.5t78.5 16.5q38 0 71 -8t42 -19q4 -4 5 -13.5t1 -30.5q0 -17 -1.5 -40.5t-4.5 -43.5h-15q-4 50 -10.5 72.5t-18.5 31.5q-27 18 -74 18 q-48 0 -78 -25t-30 -70q0 -32 17.5 -54t45.5 -37.5t59 -30.5t59 -32.5t45.5 -42.5t17.5 -62q0 -57 -44.5 -92.5t-116.5 -35.5z" />
<glyph unicode="&#x15e;" horiz-adv-x="482" d="M212 -91l-3 5l13 76q-38 0 -72 6t-57 14.5t-28 16.5q-6 10 -7.5 22t-1.5 34q0 15 1.5 39.5t5.5 42.5h15q9 -53 17 -76t21 -37q17 -17 49 -22t67 -5q46 0 79 17.5t51.5 47t18.5 64.5q0 46 -23 78t-59 56.5t-76 47t-76 48.5t-59 61.5t-23 86.5q0 52 26.5 88.5t71 55.5 t98.5 19q56 0 93 -12.5t47 -24.5q5 -5 5.5 -18t0.5 -28q0 -19 -1.5 -43.5t-4.5 -48.5h-16q-7 51 -15 76t-20 37q-15 14 -42.5 20.5t-56.5 6.5q-61 0 -101 -34t-40 -93q0 -45 23 -76.5t59 -55.5t76 -46.5t76 -48.5t59 -61.5t23 -86.5q0 -69 -46 -114.5t-127 -52.5l-10 -55 q36 -10 54.5 -28.5t18.5 -40.5q0 -23 -18 -39.5t-46 -26t-58 -13.5l-4 15q39 10 61 24t22 35q0 14 -13 26.5t-48 20.5z" />
<glyph unicode="&#x15f;" horiz-adv-x="404" d="M171 -91l-3 5l13 76q-24 1 -49 5t-44 10t-24 12q-4 5 -6 16t-2 34q0 19 1.5 39.5t4.5 38.5h15q5 -46 12 -68.5t20 -36.5q17 -17 84 -17q51 0 81.5 24.5t30.5 66.5q0 33 -17.5 54t-45.5 37t-59 30t-59 32t-45.5 44.5t-17.5 65.5q0 37 21 66t56.5 45.5t78.5 16.5 q38 0 71 -8t42 -19q4 -4 5 -13.5t1 -30.5q0 -17 -1.5 -40.5t-4.5 -43.5h-15q-4 50 -10.5 72.5t-18.5 31.5q-27 18 -74 18q-48 0 -78 -25t-30 -70q0 -32 17.5 -54t45.5 -37.5t59 -30.5t59 -32.5t45.5 -42.5t17.5 -62q0 -52 -37 -86t-99 -41l-10 -55q36 -10 54.5 -28.5 t18.5 -40.5q0 -23 -18 -39.5t-46 -26t-58 -13.5l-4 15q39 10 61 24t22 35q0 14 -13 26.5t-48 20.5z" />
<glyph unicode="&#x160;" horiz-adv-x="482" d="M289 775l-6 -4h-37q-22 22 -54.5 55t-64.5 69l14 10q27 -21 59.5 -46t66.5 -47q15 12 37 29t45.5 34t42.5 30l12 -12q-20 -18 -44 -41.5t-43 -44t-28 -32.5zM226 -10q-38 0 -73 5.5t-59 14.5t-29 17q-6 10 -7.5 22t-1.5 34q0 15 1.5 39.5t5.5 42.5h15q9 -53 17 -76 t21 -37q17 -17 49 -22t67 -5q46 0 79 17.5t51.5 47t18.5 64.5q0 46 -23 78t-59 56.5t-76 47t-76 48.5t-59 61.5t-23 86.5q0 52 26.5 88.5t71 55.5t98.5 19q56 0 93 -12.5t47 -24.5q5 -5 5.5 -18t0.5 -28q0 -19 -1.5 -43.5t-4.5 -48.5h-16q-7 51 -15 76t-20 37 q-15 14 -42.5 20.5t-56.5 6.5q-61 0 -101 -34t-40 -93q0 -45 23 -76.5t59 -55.5t76 -46.5t76 -48.5t59 -61.5t23 -86.5q0 -74 -54 -121t-146 -47z" />
<glyph unicode="&#x161;" horiz-adv-x="404" d="M237 592l-6 -4h-41q-20 27 -49 68t-58 86l14 10q24 -27 54 -59t62 -61q14 16 34 38t41.5 44t39.5 38l12 -12q-18 -23 -39.5 -52t-38.5 -55t-25 -41zM187 -10q-25 0 -51.5 4t-46 10.5t-25.5 12.5q-4 5 -6 16t-2 34q0 19 1.5 39.5t4.5 38.5h15q5 -46 12 -68.5t20 -36.5 q17 -17 84 -17q51 0 81.5 24.5t30.5 66.5q0 33 -17.5 54t-45.5 37t-59 30t-59 32t-45.5 44.5t-17.5 65.5q0 37 21 66t56.5 45.5t78.5 16.5q38 0 71 -8t42 -19q4 -4 5 -13.5t1 -30.5q0 -17 -1.5 -40.5t-4.5 -43.5h-15q-4 50 -10.5 72.5t-18.5 31.5q-27 18 -74 18 q-48 0 -78 -25t-30 -70q0 -32 17.5 -54t45.5 -37.5t59 -30.5t59 -32.5t45.5 -42.5t17.5 -62q0 -57 -44.5 -92.5t-116.5 -35.5z" />
<glyph unicode="&#x162;" horiz-adv-x="584" d="M266 -91l-3 5l15 86h-90l-2 20l58 13q17 4 22 10t5 20v590h-74q-33 0 -65.5 -2.5t-54.5 -7.5q-4 -16 -8.5 -34.5t-10.5 -49.5l-8 -39h-15q-1 20 -2 37.5t-1 37.5q0 23 1.5 47.5t4.5 42.5h508q3 -18 4.5 -42.5t1.5 -47.5q0 -20 -0.5 -37.5t-2.5 -37.5h-15l-8 39 q-6 31 -10 49.5t-9 34.5q-22 5 -54.5 7.5t-65.5 2.5h-74v-614l85 -19l-2 -20h-87l-12 -64q36 -10 54.5 -28.5t18.5 -40.5q0 -23 -18 -39.5t-46 -26t-58 -13.5l-4 15q39 10 61 24t22 35q0 14 -13 26.5t-48 20.5z" />
<glyph unicode="&#x163;" horiz-adv-x="405" d="M205 -91l-3 5l13 77q-94 12 -94 139v330h-88l-2 16l90 14l20 150l20 -2v-148h185v-30h-185v-315q0 -61 19.5 -90.5t61.5 -29.5q30 0 60.5 14.5t58.5 40.5l12 -10q-23 -33 -56.5 -54.5t-70.5 -24.5l-10 -55q36 -10 54.5 -28.5t18.5 -40.5q0 -23 -18 -39.5t-46 -26 t-58 -13.5l-4 15q39 10 61 24t22 35q0 14 -13 26.5t-48 20.5z" />
<glyph unicode="&#x164;" horiz-adv-x="584" d="M315 776l-6 -4h-37q-22 22 -54.5 55t-64.5 69l14 10q27 -21 59.5 -46t66.5 -47q15 12 37 29t45.5 34t42.5 30l12 -12q-20 -18 -44 -41.5t-43 -44t-28 -32.5zM313 39l85 -19l-2 -20h-208l-2 20l58 13q17 4 22 10t5 20v590h-74q-33 0 -65.5 -2.5t-54.5 -7.5 q-4 -16 -8.5 -34.5t-10.5 -49.5l-8 -39h-15q-1 20 -2 37.5t-1 37.5q0 23 1.5 47.5t4.5 42.5h508q3 -18 4.5 -42.5t1.5 -47.5q0 -20 -0.5 -37.5t-2.5 -37.5h-15l-8 39q-6 31 -10 49.5t-9 34.5q-22 5 -54.5 7.5t-65.5 2.5h-74v-614z" />
<glyph unicode="&#x165;" horiz-adv-x="373" d="M384 702q0 -26 -10.5 -56t-27 -56.5t-35.5 -43.5l-11 9q12 19 22 48.5t15 57.5q-15 2 -24.5 12.5t-9.5 26.5q0 18 12.5 31.5t29.5 13.5q39 0 39 -43zM373 70q-25 -35 -62 -57.5t-77 -22.5q-55 0 -84 36t-29 104v330h-88l-2 16l90 14l20 150l20 -2v-148h185v-30h-185v-315 q0 -61 19.5 -90.5t61.5 -29.5q30 0 60.5 14.5t58.5 40.5z" />
<glyph unicode="&#x166;" horiz-adv-x="584" d="M313 39l85 -19l-2 -20h-208l-2 20l58 13q17 4 22 10t5 20v271h-171v30h171v289h-74q-33 0 -65.5 -2.5t-54.5 -7.5q-4 -16 -8.5 -34.5t-10.5 -49.5l-8 -39h-15q-1 20 -2 37.5t-1 37.5q0 23 1.5 47.5t4.5 42.5h508q3 -18 4.5 -42.5t1.5 -47.5q0 -20 -0.5 -37.5t-2.5 -37.5 h-15l-8 39q-6 31 -10 49.5t-9 34.5q-22 5 -54.5 7.5t-65.5 2.5h-74v-289h171v-30h-171v-295z" />
<glyph unicode="&#x167;" horiz-adv-x="405" d="M345 316h-184v-171q0 -61 19.5 -90.5t61.5 -29.5q30 0 60.5 14.5t58.5 40.5l12 -10q-25 -35 -62 -57.5t-77 -22.5q-55 0 -84 36t-29 104v186h-88v30h88v114h-88l-2 16l90 14l20 150l20 -2v-148h185v-30h-185v-114h184v-30z" />
<glyph unicode="&#x168;" horiz-adv-x="657" d="M164 776l-14 5q9 50 26.5 76.5t48.5 26.5q20 0 52 -10.5t66 -24t62.5 -24.5t42.5 -11q10 15 21 31t27 43l14 -6q-9 -49 -25 -75.5t-48 -26.5q-19 0 -51 10.5t-67 24t-63.5 24t-41.5 11.5q-8 -9 -21.5 -28.5t-28.5 -45.5zM109 220v426l-85 19l2 20h208l2 -20l-58 -13 q-16 -4 -21.5 -10t-5.5 -20v-405q0 -62 24.5 -105t65.5 -65t90 -22q50 0 90.5 21.5t65 64.5t24.5 106v429l-85 19l2 20h201l2 -20l-85 -19v-426q0 -76 -29.5 -127.5t-79 -77t-111.5 -25.5q-60 0 -109.5 26t-78.5 77t-29 127z" />
<glyph unicode="&#x169;" horiz-adv-x="590" d="M145 614l-14 5q8 47 25.5 72t47.5 25q17 0 43.5 -8.5t55 -19.5t52.5 -20t36 -9q10 14 20.5 28t25.5 39l14 -6q-8 -46 -24 -71t-48 -25q-16 0 -43 8.5t-56 19.5t-53 19.5t-35 9.5q-7 -8 -20 -25.5t-27 -41.5zM119 160v300l-73 6l-2 14q23 8 52.5 14.5t52.5 10.5l10 -10 v-335q0 -66 31 -101t91 -35q39 0 77 20t66 53v363l-73 6l-2 14q23 8 52.5 14.5t52.5 10.5l10 -10v-391q0 -44 11.5 -62.5t39.5 -18.5q19 0 44 7l4 -9q-31 -31 -74 -31q-59 0 -64 67q-28 -29 -69 -48t-83 -19q-75 0 -114.5 44t-39.5 126z" />
<glyph unicode="&#x16a;" horiz-adv-x="657" d="M209 817v39h254v-39h-254zM109 220v426l-85 19l2 20h208l2 -20l-58 -13q-16 -4 -21.5 -10t-5.5 -20v-405q0 -62 24.5 -105t65.5 -65t90 -22q50 0 90.5 21.5t65 64.5t24.5 106v429l-85 19l2 20h201l2 -20l-85 -19v-426q0 -76 -29.5 -127.5t-79 -77t-111.5 -25.5 q-60 0 -109.5 26t-78.5 77t-29 127z" />
<glyph unicode="&#x16b;" horiz-adv-x="590" d="M164 653v34h254v-34h-254zM119 160v300l-73 6l-2 14q23 8 52.5 14.5t52.5 10.5l10 -10v-335q0 -66 31 -101t91 -35q39 0 77 20t66 53v363l-73 6l-2 14q23 8 52.5 14.5t52.5 10.5l10 -10v-391q0 -44 11.5 -62.5t39.5 -18.5q19 0 44 7l4 -9q-31 -31 -74 -31q-59 0 -64 67 q-28 -29 -69 -48t-83 -19q-75 0 -114.5 44t-39.5 126z" />
<glyph unicode="&#x16c;" horiz-adv-x="657" d="M442 888l4 2l14 -3q-11 -48 -43.5 -75t-78.5 -27q-45 0 -76.5 27t-39.5 75l17 3q11 -29 38.5 -45.5t65.5 -16.5q35 0 61 16t38 44zM109 220v426l-85 19l2 20h208l2 -20l-58 -13q-16 -4 -21.5 -10t-5.5 -20v-405q0 -62 24.5 -105t65.5 -65t90 -22q50 0 90.5 21.5t65 64.5 t24.5 106v429l-85 19l2 20h201l2 -20l-85 -19v-426q0 -76 -29.5 -127.5t-79 -77t-111.5 -25.5q-60 0 -109.5 26t-78.5 77t-29 127z" />
<glyph unicode="&#x16d;" horiz-adv-x="590" d="M392 728l4 2l14 -3q-11 -58 -43.5 -90t-78.5 -32q-45 0 -76.5 32t-39.5 90l17 3q11 -38 38.5 -60t65.5 -22q35 0 61 21.5t38 58.5zM119 160v300l-73 6l-2 14q23 8 52.5 14.5t52.5 10.5l10 -10v-335q0 -66 31 -101t91 -35q39 0 77 20t66 53v363l-73 6l-2 14 q23 8 52.5 14.5t52.5 10.5l10 -10v-391q0 -44 11.5 -62.5t39.5 -18.5q19 0 44 7l4 -9q-31 -31 -74 -31q-59 0 -64 67q-28 -29 -69 -48t-83 -19q-75 0 -114.5 44t-39.5 126z" />
<glyph unicode="&#x16e;" horiz-adv-x="657" d="M327 766q-32 0 -52.5 19t-20.5 50q0 33 23 53.5t57 20.5q33 0 54.5 -19.5t19.5 -49.5q-1 -32 -24 -53t-57 -21zM331 886q-19 0 -31.5 -14.5t-12.5 -36.5q0 -20 12 -33t31 -13q20 0 32 15t12 37q0 20 -12 32.5t-31 12.5zM109 220v426l-85 19l2 20h208l2 -20l-58 -13 q-16 -4 -21.5 -10t-5.5 -20v-405q0 -62 24.5 -105t65.5 -65t90 -22q50 0 90.5 21.5t65 64.5t24.5 106v429l-85 19l2 20h201l2 -20l-85 -19v-426q0 -76 -29.5 -127.5t-79 -77t-111.5 -25.5q-60 0 -109.5 26t-78.5 77t-29 127z" />
<glyph unicode="&#x16f;" horiz-adv-x="590" d="M287 596q-32 0 -52.5 19t-20.5 50q0 33 23 53.5t57 20.5q33 0 54.5 -19.5t19.5 -49.5q-1 -32 -24 -53t-57 -21zM291 716q-19 0 -31.5 -14.5t-12.5 -36.5q0 -20 12 -33t31 -13q20 0 32 15t12 37q0 20 -12 32.5t-31 12.5zM119 160v300l-73 6l-2 14q23 8 52.5 14.5 t52.5 10.5l10 -10v-335q0 -66 31 -101t91 -35q39 0 77 20t66 53v363l-73 6l-2 14q23 8 52.5 14.5t52.5 10.5l10 -10v-391q0 -44 11.5 -62.5t39.5 -18.5q19 0 44 7l4 -9q-31 -31 -74 -31q-59 0 -64 67q-28 -29 -69 -48t-83 -19q-75 0 -114.5 44t-39.5 126z" />
<glyph unicode="&#x170;" horiz-adv-x="657" d="M337 897l7 1q21 -7 21 -26q0 -14 -20 -29.5t-50 -29t-59.5 -22.5t-49.5 -12l-7 16q56 21 94.5 50t63.5 52zM517 897l7 1q21 -7 21 -26q0 -14 -20 -29.5t-50 -29t-59.5 -22.5t-49.5 -12l-7 16q56 21 94.5 50t63.5 52zM109 220v426l-85 19l2 20h208l2 -20l-58 -13 q-16 -4 -21.5 -10t-5.5 -20v-405q0 -62 24.5 -105t65.5 -65t90 -22q50 0 90.5 21.5t65 64.5t24.5 106v429l-85 19l2 20h201l2 -20l-85 -19v-426q0 -76 -29.5 -127.5t-79 -77t-111.5 -25.5q-60 0 -109.5 26t-78.5 77t-29 127z" />
<glyph unicode="&#x171;" horiz-adv-x="590" d="M321 732q0 -17 -24.5 -43t-59.5 -54.5t-67 -53.5l-12 12q40 43 74.5 86t50.5 74l5 2h4q15 0 22 -6.5t7 -16.5zM451 732q0 -17 -24.5 -43t-59.5 -54.5t-67 -53.5l-12 12q40 43 74.5 86t50.5 74l5 2h4q15 0 22 -6.5t7 -16.5zM119 160v300l-73 6l-2 14q23 8 52.5 14.5 t52.5 10.5l10 -10v-335q0 -66 31 -101t91 -35q39 0 77 20t66 53v363l-73 6l-2 14q23 8 52.5 14.5t52.5 10.5l10 -10v-391q0 -44 11.5 -62.5t39.5 -18.5q19 0 44 7l4 -9q-31 -31 -74 -31q-59 0 -64 67q-28 -29 -69 -48t-83 -19q-75 0 -114.5 44t-39.5 126z" />
<glyph unicode="&#x172;" horiz-adv-x="657" d="M109 220v426l-85 19l2 20h208l2 -20l-58 -13q-16 -4 -21.5 -10t-5.5 -20v-405q0 -62 24.5 -105t65.5 -65t90 -22q50 0 90.5 21.5t65 64.5t24.5 106v429l-85 19l2 20h201l2 -20l-85 -19v-426q0 -91 -41.5 -146.5t-107.5 -73.5q-110 -64 -110 -127q0 -25 15.5 -38.5 t43.5 -13.5q14 0 25 1.5t27 5.5l4 -9q-34 -31 -82 -31q-35 0 -55 19.5t-20 54.5q0 69 95 128h-14q-60 0 -109.5 26t-78.5 77t-29 127z" />
<glyph unicode="&#x173;" horiz-adv-x="590" d="M119 160v300l-73 6l-2 14q23 8 52.5 14.5t52.5 10.5l10 -10v-335q0 -66 31 -101t91 -35q39 0 77 20t66 53v363l-73 6l-2 14q23 8 52.5 14.5t52.5 10.5l10 -10v-391q0 -44 11.5 -62.5t39.5 -18.5q19 0 44 7l4 -9l-7 -7q-25 -21 -55 -41.5t-52 -45t-22 -56.5 q0 -25 16 -37.5t43 -12.5q14 0 26.5 2t25.5 5l4 -9q-16 -13 -36 -22t-42 -9q-36 0 -57.5 20.5t-21.5 55.5q0 36 25.5 67t72.5 59q-53 4 -58 67q-28 -29 -69 -48t-83 -19q-75 0 -114.5 44t-39.5 126z" />
<glyph unicode="&#x174;" horiz-adv-x="1056" d="M636 781l-14 -10q-27 21 -59.5 46t-66.5 47q-15 -12 -37 -29t-45.5 -34t-42.5 -30l-12 12q21 19 44.5 42t43 44t27.5 32l6 4h37q23 -22 55 -55t64 -69zM362 0h-23l-213 616q-6 17 -13.5 25t-22.5 11l-58 13l2 20h211l2 -20l-85 -19l193 -571l155 460l-28 81 q-6 17 -13.5 25t-22.5 11l-59 13l2 20h213l2 -20l-86 -19l192 -571l192 571l-85 19l2 20h203l2 -20l-56 -13q-16 -4 -24.5 -12t-13.5 -24l-213 -616h-23l-165 481z" />
<glyph unicode="&#x175;" horiz-adv-x="842" d="M555 597l-14 -10q-24 27 -54 59t-62 61q-14 -16 -34 -38t-41.5 -44t-39.5 -38l-12 12q19 23 40 52t38.5 55.5t24.5 40.5l6 4h41q20 -27 49 -68t58 -86zM439 495l157 -442h1l112 407l-77 19l2 16h182l2 -16l-46 -13q-30 -8 -38 -36l-125 -430h-35l-154 433l-151 -433h-35 l-126 430q-5 17 -13 24.5t-23 11.5l-48 13l2 16h192l2 -16l-78 -19l116 -407h1l149 442h31z" />
<glyph unicode="&#x176;" horiz-adv-x="671" d="M479 781l-14 -10q-27 21 -59.5 46t-66.5 47q-15 -12 -37 -29t-45.5 -34t-42.5 -30l-12 12q21 19 44.5 42t43 44t27.5 32l6 4h37q23 -22 55 -55t64 -69zM356 39l85 -19l-2 -20h-208l-2 20l58 13q17 4 22 10t5 20v203l-187 350q-9 17 -16 25t-21 11l-58 13l2 20h211l2 -20 l-85 -19l178 -346h1l176 346l-85 19l2 20h203l2 -20l-56 -13q-17 -4 -25.5 -12t-16.5 -24l-185 -352v-225z" />
<glyph unicode="&#x177;" horiz-adv-x="555" d="M417 596l-14 -10q-24 27 -54 59t-62 61q-14 -16 -34 -38t-41.5 -44t-39.5 -38l-12 12q19 23 40 52t38.5 55.5t24.5 40.5l6 4h41q20 -27 49 -68t58 -86zM36 495h192l2 -16l-78 -19l137 -406l133 406l-77 19l2 16h182l2 -16l-46 -13q-16 -4 -24.5 -12t-13.5 -24l-147 -430 q-27 -78 -56 -135.5t-65 -88.5t-85 -31q-29 0 -49.5 14.5t-20.5 34.5q0 19 14 27l4 2q9 -13 25 -25.5t41 -12.5q35 0 63.5 27.5t52.5 74.5t44 105l-150 438q-6 17 -13.5 24.5t-22.5 11.5l-48 13z" />
<glyph unicode="&#x178;" horiz-adv-x="671" d="M474 839q0 -17 -9.5 -32t-29.5 -15q-17 0 -27 12t-10 28q0 17 11 31t29 14q17 0 26.5 -10.5t9.5 -27.5zM284 839q0 -17 -9.5 -32t-29.5 -15q-17 0 -27 12t-10 28q0 17 11 31t29 14q17 0 26.5 -10.5t9.5 -27.5zM356 39l85 -19l-2 -20h-208l-2 20l58 13q17 4 22 10t5 20 v203l-187 350q-9 17 -16 25t-21 11l-58 13l2 20h211l2 -20l-85 -19l178 -346h1l176 346l-85 19l2 20h203l2 -20l-56 -13q-17 -4 -25.5 -12t-16.5 -24l-185 -352v-225z" />
<glyph unicode="&#x179;" horiz-adv-x="594" d="M394 896l7 1q21 -7 21 -26q0 -16 -26 -31.5t-64 -28.5t-76 -21.5t-63 -11.5l-7 16q74 21 125 50t83 52zM516 0h-439l-5 30l387 625h-216q-66 0 -113 -5l-34 -130h-15q-3 33 -3 65q0 25 1.5 52.5t4.5 47.5h418l5 -30l-387 -625h237q66 0 113 5l34 130h15q3 -33 3 -65 q0 -25 -1.5 -52.5t-4.5 -47.5z" />
<glyph unicode="&#x17a;" horiz-adv-x="458" d="M338 732q0 -17 -25 -43t-61 -54.5t-69 -53.5l-12 12q40 43 75 86t51 74l5 2h4q17 0 24.5 -6.5t7.5 -16.5zM402 66q-1 -20 -2 -35t-4 -31h-334l-6 30l300 435h-244l-30 -115h-15q-3 17 -4.5 37t-1.5 45q1 20 2 34t4 29h329l6 -30l-300 -435h248l31 115h15q3 -16 4.5 -35 t1.5 -44z" />
<glyph unicode="&#x17b;" horiz-adv-x="594" d="M344 835q0 -16 -9.5 -29.5t-31.5 -13.5q-19 0 -29 11.5t-10 27.5q0 17 11.5 30t30.5 13t28.5 -11t9.5 -28zM516 0h-439l-5 30l387 625h-216q-66 0 -113 -5l-34 -130h-15q-3 33 -3 65q0 25 1.5 52.5t4.5 47.5h418l5 -30l-387 -625h237q66 0 113 5l34 130h15q3 -33 3 -65 q0 -25 -1.5 -52.5t-4.5 -47.5z" />
<glyph unicode="&#x17c;" horiz-adv-x="458" d="M272 665q0 -17 -8.5 -32t-28.5 -15q-16 0 -25.5 12.5t-9.5 30.5t10.5 32.5t27.5 14.5t25.5 -12t8.5 -31zM402 66q-1 -20 -2 -35t-4 -31h-334l-6 30l300 435h-244l-30 -115h-15q-3 17 -4.5 37t-1.5 45q1 20 2 34t4 29h329l6 -30l-300 -435h248l31 115h15q3 -16 4.5 -35 t1.5 -44z" />
<glyph unicode="&#x17d;" horiz-adv-x="594" d="M327 775l-6 -4h-37q-22 22 -54.5 55t-64.5 69l14 10q27 -21 59.5 -46t66.5 -47q15 12 37 29t45.5 34t42.5 30l12 -12q-20 -18 -44 -41.5t-43 -44t-28 -32.5zM516 0h-439l-5 30l387 625h-216q-66 0 -113 -5l-34 -130h-15q-3 33 -3 65q0 25 1.5 52.5t4.5 47.5h418l5 -30 l-387 -625h237q66 0 113 5l34 130h15q3 -33 3 -65q0 -25 -1.5 -52.5t-4.5 -47.5z" />
<glyph unicode="&#x17e;" horiz-adv-x="458" d="M261 592l-6 -4h-41q-20 27 -49 68t-58 86l14 10q24 -27 54 -59t62 -61q14 16 34 38t41.5 44t39.5 38l12 -12q-18 -23 -39.5 -52t-38.5 -55t-25 -41zM402 66q-1 -20 -2 -35t-4 -31h-334l-6 30l300 435h-244l-30 -115h-15q-3 17 -4.5 37t-1.5 45q1 20 2 34t4 29h329l6 -30 l-300 -435h248l31 115h15q3 -16 4.5 -35t1.5 -44z" />
<glyph unicode="&#x18f;" horiz-adv-x="603" d="M295 -10q-65 0 -113.5 32t-75.5 91t-27 141q0 32 3 68l10 11h410v10q0 149 -53.5 234t-149.5 85q-46 0 -84 -22.5t-61 -59.5t-23 -82q0 -20 8 -37q-10 -7 -25 -7q-11 0 -19.5 11t-8.5 30q0 55 30 100t79.5 72.5t109.5 27.5q74 0 128.5 -42.5t84 -119.5t29.5 -182 q0 -109 -31.5 -190t-88 -126t-132.5 -45zM124 251q0 -110 45.5 -168t130.5 -58q56 0 99.5 34t69.5 96t32 146l-376 -6q-1 -14 -1 -25.5v-18.5z" />
<glyph unicode="&#x192;" horiz-adv-x="558" d="M89 298l4 35h121l15 116q16 120 67 183.5t121 63.5q35 0 61.5 -15t41 -38t14.5 -46q0 -16 -8 -24.5t-19 -11.5q-29 104 -106 104q-52 0 -84 -53t-45 -151l-17 -128h185l-4 -35h-185l-27 -207q-13 -103 -59 -165t-109 -62q-35 0 -57.5 18t-22.5 42q0 11 5 18.5t12 11.5 q15 -21 36 -39t49 -18q41 0 65.5 47t36.5 135l29 219h-120z" />
<glyph unicode="&#x19d;" horiz-adv-x="736" d="M70 -170l-15 15q21 29 38 53.5t28.5 52t18 64.5t6.5 89v518q0 14 -5 20t-22 10l-58 13l2 20h118l390 -610v571l-85 19l2 20h201l2 -20l-58 -13q-16 -4 -21.5 -10t-5.5 -20v-622h-35l-390 606v-531q0 -63 -12 -104t-36.5 -73t-62.5 -68z" />
<glyph unicode="&#x1cd;" horiz-adv-x="711" d="M381 775l-6 -4h-37q-22 22 -54.5 55t-64.5 69l14 10q27 -21 59.5 -46t66.5 -47q15 12 37 29t45.5 34t42.5 30l12 -12q-20 -18 -44 -41.5t-43 -44t-28 -32.5zM344 685h23l218 -616q6 -17 13.5 -25t22.5 -11l58 -13l-2 -20h-212l-2 20l86 19l-75 216l-247 -4l-73 -211 l85 -20l-2 -20h-203l-2 20l56 13q17 4 25 12t13 24zM238 285h226l-113 325z" />
<glyph unicode="&#x1ce;" horiz-adv-x="496" d="M265 592l-6 -4h-41q-20 27 -49 68t-58 86l14 10q24 -27 54 -59t62 -61q14 16 34 38t41.5 44t39.5 38l12 -12q-18 -23 -39.5 -52t-38.5 -55t-25 -41zM249 506q65 0 100 -34t35 -98q0 -22 -0.5 -57t-1.5 -75.5t-1.5 -80.5t-0.5 -73q0 -37 10.5 -51t38.5 -14q22 0 44 7l4 -9 q-13 -13 -32 -22t-42 -9q-28 0 -45.5 18.5t-19.5 50.5q-28 -28 -66 -48.5t-84 -20.5q-58 0 -91 29.5t-33 80.5q0 48 35.5 85.5t98 60t142.5 24.5q1 36 1.5 63t0.5 39q0 48 -27.5 74t-74.5 26q-35 0 -62 -15t-42 -37t-15 -45q0 -17 7 -32q-9 -6 -21 -6q-15 0 -24 9.5t-9 25.5 q0 30 25.5 61t66 52t83.5 21zM107 102q0 -40 23.5 -58.5t63.5 -18.5q41 0 78.5 20.5t65.5 51.5q0 36 0.5 72.5t1.5 70.5q-70 -2 -122.5 -20t-81.5 -48t-29 -70z" />
<glyph unicode="&#x1cf;" horiz-adv-x="334" d="M191 775l-6 -4h-37q-22 22 -54.5 55t-64.5 69l14 10q27 -21 59.5 -46t66.5 -47q15 12 37 29t45.5 34t42.5 30l12 -12q-20 -18 -44 -41.5t-43 -44t-28 -32.5zM188 39l85 -19l-2 -20h-208l-2 20l58 13q17 4 22 10t5 20v583l-85 19l2 20h208l2 -20l-58 -13q-16 -4 -21.5 -10 t-5.5 -20v-583z" />
<glyph unicode="&#x1d0;" horiz-adv-x="276" d="M164 580l-6 -4h-43q-14 27 -34.5 68t-41.5 86l14 10q18 -27 40 -58.5t46 -60.5q16 26 41 61t44 58l12 -12q-13 -23 -27.5 -52t-26.5 -55t-18 -41zM162 35l75 -19l-2 -16h-186l-2 16l48 13q17 5 22 10.5t5 20.5v400l-73 6l-2 14q23 8 52.5 14.5t52.5 10.5l10 -10v-460z " />
<glyph unicode="&#x1d1;" horiz-adv-x="648" d="M353 775l-6 -4h-37q-22 22 -54.5 55t-64.5 69l14 10q27 -21 59.5 -46t66.5 -47q15 12 37 29t45.5 34t42.5 30l12 -12q-20 -18 -44 -41.5t-43 -44t-28 -32.5zM64 343q0 109 34.5 188t95 121.5t138.5 42.5q75 0 131.5 -42.5t88.5 -120t32 -184.5t-32 -187.5t-90.5 -125.5 t-138.5 -45q-79 0 -137.5 42.5t-90 122t-31.5 188.5zM109 343q0 -98 27 -169.5t76 -110t114 -38.5t113 40.5t74 113.5t26 169q0 95 -26 165t-72.5 108.5t-108.5 38.5q-66 0 -116 -38.5t-78.5 -109.5t-28.5 -169z" />
<glyph unicode="&#x1d2;" horiz-adv-x="498" d="M280 592l-6 -4h-41q-20 27 -49 68t-58 86l14 10q24 -27 54 -59t62 -61q14 16 34 38t41.5 44t39.5 38l12 -12q-18 -23 -39.5 -52t-38.5 -55t-25 -41zM442 250q0 -84 -26 -142t-70 -87.5t-99 -30.5q-54 0 -97.5 30t-68.5 88.5t-25 142.5t29 140.5t75 85t96 28.5t92.5 -28.5 t68 -85t25.5 -141.5zM99 249q0 -63 18 -114.5t51.5 -81.5t78.5 -30q70 0 111 55t41 167q0 67 -17.5 118t-50 80t-76.5 29q-67 0 -111.5 -55t-44.5 -168z" />
<glyph unicode="&#x1d3;" horiz-adv-x="657" d="M364 775l-6 -4h-37q-22 22 -54.5 55t-64.5 69l14 10q27 -21 59.5 -46t66.5 -47q15 12 37 29t45.5 34t42.5 30l12 -12q-20 -18 -44 -41.5t-43 -44t-28 -32.5zM109 220v426l-85 19l2 20h208l2 -20l-58 -13q-16 -4 -21.5 -10t-5.5 -20v-405q0 -62 24.5 -105t65.5 -65t90 -22 q50 0 90.5 21.5t65 64.5t24.5 106v429l-85 19l2 20h201l2 -20l-85 -19v-426q0 -76 -29.5 -127.5t-79 -77t-111.5 -25.5q-60 0 -109.5 26t-78.5 77t-29 127z" />
<glyph unicode="&#x1d4;" horiz-adv-x="590" d="M316 592l-6 -4h-41q-20 27 -49 68t-58 86l14 10q24 -27 54 -59t62 -61q14 16 34 38t41.5 44t39.5 38l12 -12q-18 -23 -39.5 -52t-38.5 -55t-25 -41zM119 160v300l-73 6l-2 14q23 8 52.5 14.5t52.5 10.5l10 -10v-335q0 -66 31 -101t91 -35q39 0 77 20t66 53v363l-73 6 l-2 14q23 8 52.5 14.5t52.5 10.5l10 -10v-391q0 -44 11.5 -62.5t39.5 -18.5q19 0 44 7l4 -9q-31 -31 -74 -31q-59 0 -64 67q-28 -29 -69 -48t-83 -19q-75 0 -114.5 44t-39.5 126z" />
<glyph unicode="&#x1d5;" horiz-adv-x="657" d="M204 1007v39h254v-39h-254zM464 839q0 -17 -9.5 -32t-29.5 -15q-17 0 -27 12t-10 28q0 17 11 31t29 14q17 0 26.5 -10.5t9.5 -27.5zM274 839q0 -17 -9.5 -32t-29.5 -15q-17 0 -27 12t-10 28q0 17 11 31t29 14q17 0 26.5 -10.5t9.5 -27.5zM109 220v426l-85 19l2 20h208 l2 -20l-58 -13q-16 -4 -21.5 -10t-5.5 -20v-405q0 -62 24.5 -105t65.5 -65t90 -22q50 0 90.5 21.5t65 64.5t24.5 106v429l-85 19l2 20h201l2 -20l-85 -19v-426q0 -76 -29.5 -127.5t-79 -77t-111.5 -25.5q-60 0 -109.5 26t-78.5 77t-29 127z" />
<glyph unicode="&#x1d6;" horiz-adv-x="590" d="M164 873v34h254v-34h-254zM420 670q0 -18 -8.5 -33.5t-27.5 -15.5q-16 0 -25 12.5t-9 29.5q0 19 10.5 33.5t26.5 14.5t24.5 -11.5t8.5 -29.5zM230 670q0 -18 -8.5 -33.5t-27.5 -15.5q-16 0 -25 12.5t-9 29.5q0 19 10.5 33.5t26.5 14.5t24.5 -11.5t8.5 -29.5zM119 160v300 l-73 6l-2 14q23 8 52.5 14.5t52.5 10.5l10 -10v-335q0 -66 31 -101t91 -35q39 0 77 20t66 53v363l-73 6l-2 14q23 8 52.5 14.5t52.5 10.5l10 -10v-391q0 -44 11.5 -62.5t39.5 -18.5q19 0 44 7l4 -9q-31 -31 -74 -31q-59 0 -64 67q-28 -29 -69 -48t-83 -19q-75 0 -114.5 44 t-39.5 126z" />
<glyph unicode="&#x1d7;" horiz-adv-x="657" d="M427 1086l7 1q21 -7 21 -26q0 -16 -26 -31.5t-64 -28.5t-76 -21.5t-63 -11.5l-7 16q74 21 125 50t83 52zM464 839q0 -17 -9.5 -32t-29.5 -15q-17 0 -27 12t-10 28q0 17 11 31t29 14q17 0 26.5 -10.5t9.5 -27.5zM274 839q0 -17 -9.5 -32t-29.5 -15q-17 0 -27 12t-10 28 q0 17 11 31t29 14q17 0 26.5 -10.5t9.5 -27.5zM109 220v426l-85 19l2 20h208l2 -20l-58 -13q-16 -4 -21.5 -10t-5.5 -20v-405q0 -62 24.5 -105t65.5 -65t90 -22q50 0 90.5 21.5t65 64.5t24.5 106v429l-85 19l2 20h201l2 -20l-85 -19v-426q0 -76 -29.5 -127.5t-79 -77 t-111.5 -25.5q-60 0 -109.5 26t-78.5 77t-29 127z" />
<glyph unicode="&#x1d8;" horiz-adv-x="590" d="M393 952q0 -17 -25 -43t-61 -54.5t-69 -53.5l-12 12q40 43 75 86t51 74l5 2h4q17 0 24.5 -6.5t7.5 -16.5zM420 670q0 -18 -8.5 -33.5t-27.5 -15.5q-16 0 -25 12.5t-9 29.5q0 19 10.5 33.5t26.5 14.5t24.5 -11.5t8.5 -29.5zM230 670q0 -18 -8.5 -33.5t-27.5 -15.5 q-16 0 -25 12.5t-9 29.5q0 19 10.5 33.5t26.5 14.5t24.5 -11.5t8.5 -29.5zM119 160v300l-73 6l-2 14q23 8 52.5 14.5t52.5 10.5l10 -10v-335q0 -66 31 -101t91 -35q39 0 77 20t66 53v363l-73 6l-2 14q23 8 52.5 14.5t52.5 10.5l10 -10v-391q0 -44 11.5 -62.5t39.5 -18.5 q19 0 44 7l4 -9q-31 -31 -74 -31q-59 0 -64 67q-28 -29 -69 -48t-83 -19q-75 0 -114.5 44t-39.5 126z" />
<glyph unicode="&#x1d9;" horiz-adv-x="657" d="M357 965l-6 -4h-37q-22 22 -54.5 55t-64.5 69l14 10q27 -21 59.5 -46t66.5 -47q15 12 37 29t45.5 34t42.5 30l12 -12q-20 -18 -44 -41.5t-43 -44t-28 -32.5zM464 839q0 -17 -9.5 -32t-29.5 -15q-17 0 -27 12t-10 28q0 17 11 31t29 14q17 0 26.5 -10.5t9.5 -27.5zM274 839 q0 -17 -9.5 -32t-29.5 -15q-17 0 -27 12t-10 28q0 17 11 31t29 14q17 0 26.5 -10.5t9.5 -27.5zM109 220v426l-85 19l2 20h208l2 -20l-58 -13q-16 -4 -21.5 -10t-5.5 -20v-405q0 -62 24.5 -105t65.5 -65t90 -22q50 0 90.5 21.5t65 64.5t24.5 106v429l-85 19l2 20h201l2 -20 l-85 -19v-426q0 -76 -29.5 -127.5t-79 -77t-111.5 -25.5q-60 0 -109.5 26t-78.5 77t-29 127z" />
<glyph unicode="&#x1da;" horiz-adv-x="590" d="M321 812l-6 -4h-41q-20 27 -49 68t-58 86l14 10q24 -27 54 -59t62 -61q14 16 34 38t41.5 44t39.5 38l12 -12q-18 -23 -39.5 -52t-38.5 -55t-25 -41zM420 670q0 -18 -8.5 -33.5t-27.5 -15.5q-16 0 -25 12.5t-9 29.5q0 19 10.5 33.5t26.5 14.5t24.5 -11.5t8.5 -29.5z M230 670q0 -18 -8.5 -33.5t-27.5 -15.5q-16 0 -25 12.5t-9 29.5q0 19 10.5 33.5t26.5 14.5t24.5 -11.5t8.5 -29.5zM119 160v300l-73 6l-2 14q23 8 52.5 14.5t52.5 10.5l10 -10v-335q0 -66 31 -101t91 -35q39 0 77 20t66 53v363l-73 6l-2 14q23 8 52.5 14.5t52.5 10.5l10 -10 v-391q0 -44 11.5 -62.5t39.5 -18.5q19 0 44 7l4 -9q-31 -31 -74 -31q-59 0 -64 67q-28 -29 -69 -48t-83 -19q-75 0 -114.5 44t-39.5 126z" />
<glyph unicode="&#x1db;" horiz-adv-x="657" d="M449 985l-7 -16q-25 3 -63 11.5t-76 21.5t-64 28.5t-26 31.5q0 19 21 26l7 -1q32 -23 83 -52t125 -50zM464 839q0 -17 -9.5 -32t-29.5 -15q-17 0 -27 12t-10 28q0 17 11 31t29 14q17 0 26.5 -10.5t9.5 -27.5zM274 839q0 -17 -9.5 -32t-29.5 -15q-17 0 -27 12t-10 28 q0 17 11 31t29 14q17 0 26.5 -10.5t9.5 -27.5zM109 220v426l-85 19l2 20h208l2 -20l-58 -13q-16 -4 -21.5 -10t-5.5 -20v-405q0 -62 24.5 -105t65.5 -65t90 -22q50 0 90.5 21.5t65 64.5t24.5 106v429l-85 19l2 20h201l2 -20l-85 -19v-426q0 -76 -29.5 -127.5t-79 -77 t-111.5 -25.5q-60 0 -109.5 26t-78.5 77t-29 127z" />
<glyph unicode="&#x1dc;" horiz-adv-x="590" d="M364 813l-12 -12q-33 25 -69 53.5t-61 54.5t-25 43q0 10 8 16.5t24 6.5h4l5 -2q17 -31 51.5 -74t74.5 -86zM420 670q0 -18 -8.5 -33.5t-27.5 -15.5q-16 0 -25 12.5t-9 29.5q0 19 10.5 33.5t26.5 14.5t24.5 -11.5t8.5 -29.5zM230 670q0 -18 -8.5 -33.5t-27.5 -15.5 q-16 0 -25 12.5t-9 29.5q0 19 10.5 33.5t26.5 14.5t24.5 -11.5t8.5 -29.5zM119 160v300l-73 6l-2 14q23 8 52.5 14.5t52.5 10.5l10 -10v-335q0 -66 31 -101t91 -35q39 0 77 20t66 53v363l-73 6l-2 14q23 8 52.5 14.5t52.5 10.5l10 -10v-391q0 -44 11.5 -62.5t39.5 -18.5 q19 0 44 7l4 -9q-31 -31 -74 -31q-59 0 -64 67q-28 -29 -69 -48t-83 -19q-75 0 -114.5 44t-39.5 126z" />
<glyph unicode="&#x1e6;" horiz-adv-x="683" d="M405 775l-6 -4h-37q-22 22 -54.5 55t-64.5 69l14 10q27 -21 59.5 -46t66.5 -47q15 12 37 29t45.5 34t42.5 30l12 -12q-20 -18 -44 -41.5t-43 -44t-28 -32.5zM389 -10q-105 0 -177.5 44t-110 123.5t-37.5 185.5q0 107 43.5 186t117 122.5t164.5 43.5q55 0 94.5 -8.5 t64.5 -21.5q3 -19 3 -46q0 -20 -1.5 -46.5t-4.5 -52.5h-15l-33 127q-22 7 -45.5 10t-61.5 3q-79 0 -142.5 -39.5t-101 -110.5t-37.5 -167t34 -167.5t96 -111t147 -39.5q37 0 63 3t58 13v240l-85 19l2 20h208l2 -20l-58 -13q-16 -4 -21.5 -10t-5.5 -20v-237 q-26 -13 -67.5 -21.5t-92.5 -8.5z" />
<glyph unicode="&#x1e7;" horiz-adv-x="471" d="M262 592l-6 -4h-41q-20 27 -49 68t-58 86l14 10q24 -27 54 -59t62 -61q14 16 34 38t41.5 44t39.5 38l12 -12q-18 -23 -39.5 -52t-38.5 -55t-25 -41zM76 317q0 55 21 97t58 66.5t84 24.5t84 -27q16 10 38 19t41 14.5t28 5.5q17 0 17 -23q0 -11 -2 -19q-1 -7 -6 -10.5 t-16 -3.5q-22 0 -41.5 -0.5t-38.5 -1.5q20 -23 31.5 -55t11.5 -71q0 -82 -43 -132.5t-114 -50.5q-20 0 -38 5q-12 -13 -19.5 -27.5t-7.5 -32.5q0 -22 12 -33t37 -13l88 -9q68 -7 104.5 -42t36.5 -92q0 -47 -28 -83.5t-76.5 -57t-112.5 -20.5q-82 0 -133 37.5t-51 98.5 q0 59 53 102l12 -10q-22 -38 -22 -76q0 -55 40 -87t110 -32q74 0 119.5 34t45.5 87q0 44 -28.5 70t-81.5 31l-85 8q-37 4 -57 25t-20 50q0 21 10.5 41t28.5 39q-41 19 -65.5 60t-24.5 94zM343 322q0 71 -28.5 110.5t-79.5 39.5t-83.5 -39.5t-32.5 -101.5q0 -64 31 -105.5 t80 -42.5q53 -1 83 36.5t30 102.5z" />
<glyph unicode="&#x1ea;" horiz-adv-x="648" d="M64 343q0 109 34.5 188t95 121.5t138.5 42.5q75 0 131.5 -42.5t88.5 -120t32 -184.5q0 -136 -51.5 -228.5t-140.5 -119.5q-111 -64 -111 -127q0 -25 15.5 -38.5t43.5 -13.5q14 0 25 1.5t27 5.5l4 -9q-34 -31 -82 -31q-35 0 -55 19.5t-20 54.5q0 69 95 128h-11 q-79 0 -137.5 42.5t-90 122t-31.5 188.5zM109 343q0 -98 27 -169.5t76 -110t114 -38.5t113 40.5t74 113.5t26 169q0 95 -26 165t-72.5 108.5t-108.5 38.5q-66 0 -116 -38.5t-78.5 -109.5t-28.5 -169z" />
<glyph unicode="&#x1eb;" horiz-adv-x="498" d="M340 -181q-15 -13 -34.5 -22t-45.5 -9q-31 0 -54 18t-23 53q0 69 106 136q-20 -5 -42 -5q-54 0 -97.5 30t-68.5 88.5t-25 142.5t29 140.5t75 85t96 28.5t92.5 -28.5t68 -85t25.5 -141.5q0 -70 -18.5 -122t-50.5 -85q-21 -24 -46.5 -46t-48.5 -42.5t-38 -42t-15 -44.5 q0 -25 15.5 -36t43.5 -11q14 0 25 1.5t27 5.5zM99 249q0 -63 18 -114.5t51.5 -81.5t78.5 -30q70 0 111 55t41 167q0 67 -17.5 118t-50 80t-76.5 29q-67 0 -111.5 -55t-44.5 -168z" />
<glyph unicode="&#x1f4;" horiz-adv-x="683" d="M472 896l7 1q21 -7 21 -26q0 -16 -26 -31.5t-64 -28.5t-76 -21.5t-63 -11.5l-7 16q74 21 125 50t83 52zM389 -10q-105 0 -177.5 44t-110 123.5t-37.5 185.5q0 107 43.5 186t117 122.5t164.5 43.5q55 0 94.5 -8.5t64.5 -21.5q3 -19 3 -46q0 -20 -1.5 -46.5t-4.5 -52.5h-15 l-33 127q-22 7 -45.5 10t-61.5 3q-79 0 -142.5 -39.5t-101 -110.5t-37.5 -167t34 -167.5t96 -111t147 -39.5q37 0 63 3t58 13v240l-85 19l2 20h208l2 -20l-58 -13q-16 -4 -21.5 -10t-5.5 -20v-237q-26 -13 -67.5 -21.5t-92.5 -8.5z" />
<glyph unicode="&#x1f5;" horiz-adv-x="471" d="M339 732q0 -17 -25 -43t-61 -54.5t-69 -53.5l-12 12q40 43 75 86t51 74l5 2h4q17 0 24.5 -6.5t7.5 -16.5zM76 317q0 55 21 97t58 66.5t84 24.5t84 -27q16 10 38 19t41 14.5t28 5.5q17 0 17 -23q0 -11 -2 -19q-1 -7 -6 -10.5t-16 -3.5q-22 0 -41.5 -0.5t-38.5 -1.5 q20 -23 31.5 -55t11.5 -71q0 -82 -43 -132.5t-114 -50.5q-20 0 -38 5q-12 -13 -19.5 -27.5t-7.5 -32.5q0 -22 12 -33t37 -13l88 -9q68 -7 104.5 -42t36.5 -92q0 -47 -28 -83.5t-76.5 -57t-112.5 -20.5q-82 0 -133 37.5t-51 98.5q0 59 53 102l12 -10q-22 -38 -22 -76 q0 -55 40 -87t110 -32q74 0 119.5 34t45.5 87q0 44 -28.5 70t-81.5 31l-85 8q-37 4 -57 25t-20 50q0 21 10.5 41t28.5 39q-41 19 -65.5 60t-24.5 94zM343 322q0 71 -28.5 110.5t-79.5 39.5t-83.5 -39.5t-32.5 -101.5q0 -64 31 -105.5t80 -42.5q53 -1 83 36.5t30 102.5z" />
<glyph unicode="&#x1fa;" horiz-adv-x="711" d="M451 1086l7 1q21 -7 21 -26q0 -16 -26 -31.5t-64 -28.5t-76 -21.5t-63 -11.5l-7 16q74 21 125 50t83 52zM353 766q-32 0 -52.5 19t-20.5 50q0 33 23 53.5t57 20.5q33 0 54.5 -19.5t19.5 -49.5q-1 -32 -24 -53t-57 -21zM357 886q-19 0 -31.5 -14.5t-12.5 -36.5 q0 -20 12 -33t31 -13q20 0 32 15t12 37q0 20 -12 32.5t-31 12.5zM344 685h23l218 -616q6 -17 13.5 -25t22.5 -11l58 -13l-2 -20h-212l-2 20l86 19l-75 216l-247 -4l-73 -211l85 -20l-2 -20h-203l-2 20l56 13q17 4 25 12t13 24zM238 285h226l-113 325z" />
<glyph unicode="&#x1fb;" horiz-adv-x="496" d="M327 952q0 -17 -25 -43t-61 -54.5t-69 -53.5l-12 12q40 43 75 86t51 74l5 2h4q17 0 24.5 -6.5t7.5 -16.5zM236 596q-32 0 -52.5 19t-20.5 50q0 33 23 53.5t57 20.5q33 0 54.5 -19.5t19.5 -49.5q-1 -32 -24 -53t-57 -21zM240 716q-19 0 -31.5 -14.5t-12.5 -36.5 q0 -20 12 -33t31 -13q20 0 32 15t12 37q0 20 -12 32.5t-31 12.5zM249 506q65 0 100 -34t35 -98q0 -22 -0.5 -57t-1.5 -75.5t-1.5 -80.5t-0.5 -73q0 -37 10.5 -51t38.5 -14q22 0 44 7l4 -9q-13 -13 -32 -22t-42 -9q-28 0 -45.5 18.5t-19.5 50.5q-28 -28 -66 -48.5t-84 -20.5 q-58 0 -91 29.5t-33 80.5q0 48 35.5 85.5t98 60t142.5 24.5q1 36 1.5 63t0.5 39q0 48 -27.5 74t-74.5 26q-35 0 -62 -15t-42 -37t-15 -45q0 -17 7 -32q-9 -6 -21 -6q-15 0 -24 9.5t-9 25.5q0 30 25.5 61t66 52t83.5 21zM107 102q0 -40 23.5 -58.5t63.5 -18.5q41 0 78.5 20.5 t65.5 51.5q0 36 0.5 72.5t1.5 70.5q-70 -2 -122.5 -20t-81.5 -48t-29 -70z" />
<glyph unicode="&#x1fc;" horiz-adv-x="885" d="M622 896l7 1q21 -7 21 -26q0 -16 -26 -31.5t-64 -28.5t-76 -21.5t-63 -11.5l-7 16q74 21 125 50t83 52zM466 655h-100l-102 -296h202v296zM34 0l-2 20l56 13q17 4 25 12t13 24l204 577l-85 19l2 20h558q3 -18 4.5 -42.5t1.5 -47.5q0 -37 -3 -75h-15l-34 130 q-20 2 -51 3.5t-62 1.5h-138v-295l222 5l-2 -39l-220 4v-300h148q31 0 62 1.5t51 3.5l34 130h15q3 -33 3 -75q0 -22 -1.5 -47t-4.5 -43h-432l-2 20l58 13q17 4 22 10t5 20v266l-214 -4l-98 -285l85 -20l-2 -20h-203z" />
<glyph unicode="&#x1fd;" horiz-adv-x="742" d="M486 732q0 -17 -25 -43t-61 -54.5t-69 -53.5l-12 12q40 43 75 86t51 74l5 2h4q17 0 24.5 -6.5t7.5 -16.5zM342 372q0 48 -27.5 74t-74.5 26q-35 0 -62 -15t-42 -37t-15 -45q0 -17 7 -32q-9 -6 -21 -6q-15 0 -24 9.5t-9 25.5q0 30 25.5 61t66 51.5t83.5 20.5q55 0 89 -25 t43 -72q27 45 67.5 71t91.5 26q69 0 110.5 -48t41.5 -133q0 -13 -0.5 -27.5t-1.5 -28.5l-9 -10h-299v-6q1 -106 45.5 -166.5t120.5 -60.5q78 0 134 55l12 -10q-25 -37 -67 -58.5t-90 -21.5q-57 0 -99.5 26.5t-67.5 75.5q-32 -41 -78.5 -71.5t-103.5 -30.5q-58 0 -91 29.5 t-33 80.5q0 48 35.5 85.5t98 60t142.5 24.5q1 36 1.5 63.5t0.5 38.5zM536 472q-64 0 -105 -51.5t-48 -134.5l265 5q1 11 1 20.5v14.5q0 71 -29.5 108.5t-83.5 37.5zM107 102q0 -40 23.5 -58.5t63.5 -18.5q47 0 89.5 27.5t73.5 68.5q-18 50 -18 114v5q-104 -3 -168 -41 t-64 -97z" />
<glyph unicode="&#x1fe;" horiz-adv-x="648" d="M415 896l7 1q21 -7 21 -26q0 -16 -26 -31.5t-64 -28.5t-76 -21.5t-63 -11.5l-7 16q74 21 125 50t83 52zM64 343q0 109 34.5 188t95 121.5t138.5 42.5q55 0 101 -24t79 -68l53 65l27 -22l-60 -73q25 -44 38.5 -100.5t13.5 -124.5q0 -107 -32 -187.5t-90.5 -125.5 t-138.5 -45q-59 0 -107 24t-81 69l-53 -65l-26 22l59 73q-25 44 -38 102t-13 128zM109 343q0 -57 9.5 -105.5t27.5 -86.5l339 419q-27 43 -66 66.5t-87 23.5q-66 0 -116 -38.5t-78.5 -109.5t-28.5 -169zM539 348q0 56 -9 103.5t-27 85.5l-339 -419q28 -45 69.5 -69t92.5 -24 q65 0 113 40.5t74 113.5t26 169z" />
<glyph unicode="&#x1ff;" horiz-adv-x="498" d="M352 732q0 -17 -25 -43t-61 -54.5t-69 -53.5l-12 12q40 43 75 86t51 74l5 2h4q17 0 24.5 -6.5t7.5 -16.5zM442 250q0 -84 -26 -142t-70 -87.5t-99 -30.5q-90 -1 -143 76l-51 -54l-25 24l58 62q-14 30 -22 68.5t-8 84.5q0 84 29 140.5t75 85t96 28.5q41 0 77 -19t62 -57 l49 53l26 -24l-57 -61q14 -29 21.5 -65.5t7.5 -81.5zM99 249q0 -65 19 -117l248 266q-19 35 -47 54.5t-64 19.5q-67 0 -111.5 -55t-44.5 -168zM399 245q0 67 -18 118l-248 -265q20 -35 48.5 -55t65.5 -20q70 0 111 55t41 167z" />
<glyph unicode="&#x218;" horiz-adv-x="482" d="M226 -10q-38 0 -73 5.5t-59 14.5t-29 17q-6 10 -7.5 22t-1.5 34q0 15 1.5 39.5t5.5 42.5h15q9 -53 17 -76t21 -37q17 -17 49 -22t67 -5q46 0 79 17.5t51.5 47t18.5 64.5q0 46 -23 78t-59 56.5t-76 47t-76 48.5t-59 61.5t-23 86.5q0 52 26.5 88.5t71 55.5t98.5 19 q56 0 93 -12.5t47 -24.5q5 -5 5.5 -18t0.5 -28q0 -19 -1.5 -43.5t-4.5 -48.5h-16q-7 51 -15 76t-20 37q-15 14 -42.5 20.5t-56.5 6.5q-61 0 -101 -34t-40 -93q0 -45 23 -76.5t59 -55.5t76 -46.5t76 -48.5t59 -61.5t23 -86.5q0 -74 -54 -121t-146 -47zM277 -165 q0 -26 -10.5 -56t-27 -56.5t-35.5 -43.5l-11 9q12 19 22 48.5t15 57.5q-15 2 -24.5 12.5t-9.5 26.5q0 18 12.5 31.5t29.5 13.5q39 0 39 -43z" />
<glyph unicode="&#x219;" horiz-adv-x="404" d="M187 -10q-25 0 -51.5 4t-46 10.5t-25.5 12.5q-4 5 -6 16t-2 34q0 19 1.5 39.5t4.5 38.5h15q5 -46 12 -68.5t20 -36.5q17 -17 84 -17q51 0 81.5 24.5t30.5 66.5q0 33 -17.5 54t-45.5 37t-59 30t-59 32t-45.5 44.5t-17.5 65.5q0 37 21 66t56.5 45.5t78.5 16.5q38 0 71 -8 t42 -19q4 -4 5 -13.5t1 -30.5q0 -17 -1.5 -40.5t-4.5 -43.5h-15q-4 50 -10.5 72.5t-18.5 31.5q-27 18 -74 18q-48 0 -78 -25t-30 -70q0 -32 17.5 -54t45.5 -37.5t59 -30.5t59 -32.5t45.5 -42.5t17.5 -62q0 -57 -44.5 -92.5t-116.5 -35.5zM236 -165q0 -26 -10.5 -56 t-27 -56.5t-35.5 -43.5l-11 9q12 19 22 48.5t15 57.5q-15 2 -24.5 12.5t-9.5 26.5q0 18 12.5 31.5t29.5 13.5q39 0 39 -43z" />
<glyph unicode="&#x21a;" horiz-adv-x="584" d="M313 39l85 -19l-2 -20h-208l-2 20l58 13q17 4 22 10t5 20v590h-74q-33 0 -65.5 -2.5t-54.5 -7.5q-4 -16 -8.5 -34.5t-10.5 -49.5l-8 -39h-15q-1 20 -2 37.5t-1 37.5q0 23 1.5 47.5t4.5 42.5h508q3 -18 4.5 -42.5t1.5 -47.5q0 -20 -0.5 -37.5t-2.5 -37.5h-15l-8 39 q-6 31 -10 49.5t-9 34.5q-22 5 -54.5 7.5t-65.5 2.5h-74v-614zM331 -165q0 -26 -10.5 -56t-27 -56.5t-35.5 -43.5l-11 9q12 19 22 48.5t15 57.5q-15 2 -24.5 12.5t-9.5 26.5q0 18 12.5 31.5t29.5 13.5q39 0 39 -43z" />
<glyph unicode="&#x21b;" horiz-adv-x="405" d="M373 70q-25 -35 -62 -57.5t-77 -22.5q-55 0 -84 36t-29 104v330h-88l-2 16l90 14l20 150l20 -2v-148h185v-30h-185v-315q0 -61 19.5 -90.5t61.5 -29.5q30 0 60.5 14.5t58.5 40.5zM270 -165q0 -26 -10.5 -56t-27 -56.5t-35.5 -43.5l-11 9q12 19 22 48.5t15 57.5 q-15 2 -24.5 12.5t-9.5 26.5q0 18 12.5 31.5t29.5 13.5q39 0 39 -43z" />
<glyph unicode="&#x232;" horiz-adv-x="671" d="M214 817v39h254v-39h-254zM356 39l85 -19l-2 -20h-208l-2 20l58 13q17 4 22 10t5 20v203l-187 350q-9 17 -16 25t-21 11l-58 13l2 20h211l2 -20l-85 -19l178 -346h1l176 346l-85 19l2 20h203l2 -20l-56 -13q-17 -4 -25.5 -12t-16.5 -24l-185 -352v-225z" />
<glyph unicode="&#x233;" horiz-adv-x="555" d="M162 653v34h254v-34h-254zM36 495h192l2 -16l-78 -19l137 -406l133 406l-77 19l2 16h182l2 -16l-46 -13q-16 -4 -24.5 -12t-13.5 -24l-147 -430q-27 -78 -56 -135.5t-65 -88.5t-85 -31q-29 0 -49.5 14.5t-20.5 34.5q0 19 14 27l4 2q9 -13 25 -25.5t41 -12.5 q35 0 63.5 27.5t52.5 74.5t44 105l-150 438q-6 17 -13.5 24.5t-22.5 11.5l-48 13z" />
<glyph unicode="&#x237;" horiz-adv-x="256" d="M29 -241q26 37 45.5 69.5t30 76.5t10.5 114v441l-73 6l-2 14q23 8 52.5 14.5t52.5 10.5l10 -10v-505q0 -63 -12 -104t-36.5 -73t-62.5 -68z" />
<glyph unicode="&#x259;" horiz-adv-x="461" d="M216 -10q-73 0 -116.5 48t-43.5 133q0 14 0.5 28.5t1.5 29.5l9 10h299v2q0 107 -39 169t-109 62q-52 0 -82.5 -28.5t-30.5 -68.5q0 -17 7 -32q-9 -6 -23 -6q-11 0 -19 9t-8 24q0 37 22 67.5t58.5 49t79.5 18.5q86 0 136.5 -66t50.5 -179q0 -79 -24.5 -140t-68 -95.5 t-100.5 -34.5zM99 169q0 -70 31.5 -108t89.5 -38q61 0 100 52t45 136l-265 -5q-1 -12 -1 -22v-15z" />
<glyph unicode="&#x272;" horiz-adv-x="569" d="M455 35l75 -19l-2 -16h-186l-2 16l48 13q17 5 22 10.5t5 20.5v293q0 57 -27 88t-81 31q-82 0 -152 -67v-415q0 -63 -12 -104t-36.5 -73t-62.5 -68l-15 14q26 37 45.5 69.5t30 76.5t10.5 114v441l-73 6l-2 14q23 8 52.5 14.5t52.5 10.5l10 -10v-54q35 30 76 47t83 17 q69 0 105 -39t36 -113v-318z" />
<glyph unicode="&#x2c6;" horiz-adv-x="457" d="M357 596l-14 -10q-24 27 -54 59t-62 61q-14 -16 -34 -38t-41.5 -44t-39.5 -38l-12 12q19 23 40 52t38.5 55.5t24.5 40.5l6 4h41q20 -27 49 -68t58 -86z" />
<glyph unicode="&#x2c7;" horiz-adv-x="457" d="M254 592l-6 -4h-41q-20 27 -49 68t-58 86l14 10q24 -27 54 -59t62 -61q14 16 34 38t41.5 44t39.5 38l12 -12q-18 -23 -39.5 -52t-38.5 -55t-25 -41z" />
<glyph unicode="&#x2d8;" horiz-adv-x="438" d="M320 728l4 2l14 -3q-11 -58 -43.5 -90t-78.5 -32q-45 0 -76.5 32t-39.5 90l17 3q11 -38 38.5 -60t65.5 -22q35 0 61 21.5t38 58.5z" />
<glyph unicode="&#x2d9;" horiz-adv-x="272" d="M172 665q0 -17 -8.5 -32t-28.5 -15q-16 0 -25.5 12.5t-9.5 30.5t10.5 32.5t27.5 14.5t25.5 -12t8.5 -31z" />
<glyph unicode="&#x2da;" horiz-adv-x="354" d="M173 596q-32 0 -52.5 19t-20.5 50q0 33 23 53.5t57 20.5q33 0 54.5 -19.5t19.5 -49.5q-1 -32 -24 -53t-57 -21zM177 716q-19 0 -31.5 -14.5t-12.5 -36.5q0 -20 12 -33t31 -13q20 0 32 15t12 37q0 20 -12 32.5t-31 12.5z" />
<glyph unicode="&#x2db;" horiz-adv-x="357" d="M257 -181q-34 -31 -82 -31q-35 0 -55 19.5t-20 54.5q0 85 143 155l10 -17q-111 -64 -111 -127q0 -25 15.5 -38.5t43.5 -13.5q14 0 25 1.5t27 5.5z" />
<glyph unicode="&#x2dc;" horiz-adv-x="520" d="M114 614l-14 5q8 47 25.5 72t47.5 25q17 0 43.5 -8.5t55 -19.5t52.5 -20t36 -9q10 14 20.5 28t25.5 39l14 -6q-8 -46 -24 -71t-48 -25q-16 0 -43 8.5t-56 19.5t-53 19.5t-35 9.5q-7 -8 -20 -25.5t-27 -41.5z" />
<glyph unicode="&#x2dd;" horiz-adv-x="493" d="M263 732q0 -17 -24.5 -43t-59.5 -54.5t-67 -53.5l-12 12q40 43 74.5 86t50.5 74l5 2h4q15 0 22 -6.5t7 -16.5zM393 732q0 -17 -24.5 -43t-59.5 -54.5t-67 -53.5l-12 12q40 43 74.5 86t50.5 74l5 2h4q15 0 22 -6.5t7 -16.5z" />
<glyph unicode="&#x326;" horiz-adv-x="284" d="M184 -165q0 -26 -10.5 -56t-27 -56.5t-35.5 -43.5l-11 9q12 19 22 48.5t15 57.5q-15 2 -24.5 12.5t-9.5 26.5q0 18 12.5 31.5t29.5 13.5q39 0 39 -43z" />
<glyph unicode="&#x394;" horiz-adv-x="599" d="M288 685h23l256 -669l-2 -16h-531l-2 16zM515 35l-220 575l-219 -575h439z" />
<glyph unicode="&#x3bc;" horiz-adv-x="585" d="M155 -235q0 -14 -16.5 -17t-27.5 -3l-7 7q3 128 5 242t3.5 229t1.5 247q0 27 14 31q7 2 14 3t14 1l7 -7q-1 -22 -3 -60t-3 -85t-2 -96.5t-1 -93.5q0 -67 31 -103t91 -36q39 0 77 20t66 53v152q0 53 0.5 108t0.5 113q0 27 14 31q7 2 13.5 3t13.5 1l7 -7q-1 -22 -3.5 -62 t-4 -88.5t-1.5 -98.5q0 -76 2 -121.5t8 -68t17 -29.5t29 -7t39 7l4 -9q-14 -14 -34.5 -22.5t-40.5 -8.5q-26 0 -43.5 17t-20.5 51q-27 -28 -65 -48t-82 -20q-83 0 -121 63l-3 -1l2 -109q1 -29 2 -65.5t2 -67.5t1 -45z" />
<glyph unicode="&#x3c0;" horiz-adv-x="646" d="M200 47q-8 -31 -16 -44t-22 -13q-13 0 -25 4l-8 8q32 68 50 188t30 277q-41 1 -82 1q-31 0 -45.5 -13.5t-29.5 -47.5l-20 2q6 26 12.5 50t14.5 46q28 3 59 4t62 1q17 0 54.5 -1t84 -3t92 -4t80 -3t45.5 -1q26 0 37 8.5t21 28.5l20 -2q-7 -20 -14.5 -42t-15.5 -39 q-63 4 -120 7q-3 -50 -6.5 -113.5t-3.5 -124.5q0 -100 17 -149t57 -49q14 0 23.5 3.5t22.5 8.5l4 -9q-12 -14 -30.5 -25t-42.5 -11q-37 0 -57.5 27t-28 75.5t-7.5 111.5q0 59 3.5 128.5t8.5 128.5q-48 2 -91.5 3.5t-83.5 2.5q-6 -110 -15.5 -197.5t-19 -145t-14.5 -77.5z " />
<glyph unicode="&#x1e0c;" horiz-adv-x="665" d="M266 653h-78v-621h78q95 0 159.5 38.5t97.5 108t33 163.5t-33 164t-97.5 108.5t-159.5 38.5zM376 -165q0 -17 -8.5 -32t-28.5 -15q-16 0 -25.5 12.5t-9.5 30.5t10.5 32.5t27.5 14.5t25.5 -12t8.5 -31zM601 342q0 -104 -39 -181t-113 -119t-179 -42h-207l-2 20l58 13 q17 4 22 10t5 20v559q0 14 -5 20t-22 10l-58 13l2 20h207q105 0 179 -42.5t113 -119.5t39 -181z" />
<glyph unicode="&#x1e0d;" horiz-adv-x="544" d="M525 21q-11 -11 -30.5 -21t-43.5 -10q-29 0 -45.5 17.5t-18.5 49.5q-22 -24 -60 -45.5t-86 -21.5q-52 0 -94 27t-66.5 82t-24.5 137q0 86 32 146t83.5 91.5t108.5 31.5q28 0 54.5 -5t51.5 -13v223l-93 6l-2 14q26 9 61.5 15t63.5 10l10 -10v-641q0 -41 10.5 -61t40.5 -20 q14 0 24 2t20 5zM99 235q0 -104 42 -157.5t103 -53.5q46 0 83 23t59 50v348q-24 14 -52 20.5t-56 6.5q-50 0 -90.5 -26t-64.5 -78.5t-24 -132.5zM295 -165q0 -17 -8.5 -32t-28.5 -15q-16 0 -25.5 12.5t-9.5 30.5t10.5 32.5t27.5 14.5t25.5 -12t8.5 -31z" />
<glyph unicode="&#x1e24;" horiz-adv-x="742" d="M188 39l85 -19l-2 -20h-208l-2 20l58 13q17 4 22 10t5 20v583l-85 19l2 20h208l2 -20l-58 -13q-16 -4 -21.5 -10t-5.5 -20v-257h366v281l-85 19l2 20h208l2 -20l-58 -13q-16 -4 -21.5 -10t-5.5 -20v-583l85 -19l-2 -20h-208l-2 20l58 13q17 4 22 10t5 20v267h-366v-291z M407 -165q0 -17 -8.5 -32t-28.5 -15q-16 0 -25.5 12.5t-9.5 30.5t10.5 32.5t27.5 14.5t25.5 -12t8.5 -31z" />
<glyph unicode="&#x1e25;" horiz-adv-x="568" d="M154 35l75 -19l-2 -16h-186l-2 16l48 13q17 5 22 10.5t5 20.5v650l-73 6l-2 14q23 8 52.5 14.5t52.5 10.5l10 -10v-304q35 30 76 47t83 17q69 0 105 -39t36 -113v-318l75 -19l-2 -16h-186l-2 16l48 13q17 5 22 10.5t5 20.5v293q0 57 -27 88t-81 31q-82 0 -152 -67v-370z M320 -165q0 -17 -8.5 -32t-28.5 -15q-16 0 -25.5 12.5t-9.5 30.5t10.5 32.5t27.5 14.5t25.5 -12t8.5 -31z" />
<glyph unicode="&#x1e44;" horiz-adv-x="736" d="M406 835q0 -16 -9.5 -29.5t-31.5 -13.5q-19 0 -29 11.5t-10 27.5q0 17 11.5 30t30.5 13t28.5 -11t9.5 -28zM181 39l105 -19l-2 -20h-221l-2 20l58 13q17 4 22 10t5 20v559q0 14 -5 20t-22 10l-58 13l2 20h118l390 -610v571l-85 19l2 20h201l2 -20l-58 -13 q-16 -4 -21.5 -10t-5.5 -20v-622h-35l-390 606v-567z" />
<glyph unicode="&#x1e45;" horiz-adv-x="576" d="M320 665q0 -17 -8.5 -32t-28.5 -15q-16 0 -25.5 12.5t-9.5 30.5t10.5 32.5t27.5 14.5t25.5 -12t8.5 -31zM162 35l75 -19l-2 -16h-186l-2 16l48 13q17 5 22 10.5t5 20.5v400l-73 6l-2 14q23 8 52.5 14.5t52.5 10.5l10 -10v-54q35 30 76 47t83 17q69 0 105 -39t36 -113 v-318l75 -19l-2 -16h-186l-2 16l48 13q17 5 22 10.5t5 20.5v293q0 57 -27 88t-81 31q-82 0 -152 -67v-370z" />
<glyph unicode="&#x1e5a;" horiz-adv-x="628" d="M268 650h-80v-317h80q89 0 139.5 40t50.5 122q0 74 -50.5 114.5t-139.5 40.5zM390 -165q0 -17 -8.5 -32t-28.5 -15q-16 0 -25.5 12.5t-9.5 30.5t10.5 32.5t27.5 14.5t25.5 -12t8.5 -31zM188 39l85 -19l-2 -20h-208l-2 20l58 13q17 4 22 10t5 20v559q0 14 -5 20t-22 10 l-58 13l2 20h215q62 0 113 -22t81.5 -64t30.5 -104q0 -71 -38.5 -116.5t-96.5 -64.5l114 -214q14 -26 27 -39.5t28 -20t36 -13.5l23 -7l-2 -20h-37q-43 0 -65.5 17.5t-41.5 52.5l-124 234q-23 -4 -48 -4h-90v-261z" />
<glyph unicode="&#x1e5b;" horiz-adv-x="388" d="M162 35l95 -19l-2 -16h-206l-2 16l48 13q17 5 22 10.5t5 20.5v400l-73 6l-2 14q23 8 52.5 14.5t52.5 10.5l10 -10v-71q31 39 65.5 60t69.5 21q32 0 49.5 -15.5t17.5 -33.5q0 -14 -7 -22t-13 -12q-2 -1 -5 -2q-10 20 -23 32.5t-37 12.5q-34 0 -64.5 -27t-52.5 -58v-345z M181 -165q0 -17 -8.5 -32t-28.5 -15q-16 0 -25.5 12.5t-9.5 30.5t10.5 32.5t27.5 14.5t25.5 -12t8.5 -31z" />
<glyph unicode="&#x1e62;" horiz-adv-x="482" d="M226 -10q-38 0 -73 5.5t-59 14.5t-29 17q-6 10 -7.5 22t-1.5 34q0 15 1.5 39.5t5.5 42.5h15q9 -53 17 -76t21 -37q17 -17 49 -22t67 -5q46 0 79 17.5t51.5 47t18.5 64.5q0 46 -23 78t-59 56.5t-76 47t-76 48.5t-59 61.5t-23 86.5q0 52 26.5 88.5t71 55.5t98.5 19 q56 0 93 -12.5t47 -24.5q5 -5 5.5 -18t0.5 -28q0 -19 -1.5 -43.5t-4.5 -48.5h-16q-7 51 -15 76t-20 37q-15 14 -42.5 20.5t-56.5 6.5q-61 0 -101 -34t-40 -93q0 -45 23 -76.5t59 -55.5t76 -46.5t76 -48.5t59 -61.5t23 -86.5q0 -74 -54 -121t-146 -47zM274 -165 q0 -17 -8.5 -32t-28.5 -15q-16 0 -25.5 12.5t-9.5 30.5t10.5 32.5t27.5 14.5t25.5 -12t8.5 -31z" />
<glyph unicode="&#x1e63;" horiz-adv-x="404" d="M187 -10q-25 0 -51.5 4t-46 10.5t-25.5 12.5q-4 5 -6 16t-2 34q0 19 1.5 39.5t4.5 38.5h15q5 -46 12 -68.5t20 -36.5q17 -17 84 -17q51 0 81.5 24.5t30.5 66.5q0 33 -17.5 54t-45.5 37t-59 30t-59 32t-45.5 44.5t-17.5 65.5q0 37 21 66t56.5 45.5t78.5 16.5q38 0 71 -8 t42 -19q4 -4 5 -13.5t1 -30.5q0 -17 -1.5 -40.5t-4.5 -43.5h-15q-4 50 -10.5 72.5t-18.5 31.5q-27 18 -74 18q-48 0 -78 -25t-30 -70q0 -32 17.5 -54t45.5 -37.5t59 -30.5t59 -32.5t45.5 -42.5t17.5 -62q0 -57 -44.5 -92.5t-116.5 -35.5zM233 -165q0 -17 -8.5 -32t-28.5 -15 q-16 0 -25.5 12.5t-9.5 30.5t10.5 32.5t27.5 14.5t25.5 -12t8.5 -31z" />
<glyph unicode="&#x1e6c;" horiz-adv-x="584" d="M313 39l85 -19l-2 -20h-208l-2 20l58 13q17 4 22 10t5 20v590h-74q-33 0 -65.5 -2.5t-54.5 -7.5q-4 -16 -8.5 -34.5t-10.5 -49.5l-8 -39h-15q-1 20 -2 37.5t-1 37.5q0 23 1.5 47.5t4.5 42.5h508q3 -18 4.5 -42.5t1.5 -47.5q0 -20 -0.5 -37.5t-2.5 -37.5h-15l-8 39 q-6 31 -10 49.5t-9 34.5q-22 5 -54.5 7.5t-65.5 2.5h-74v-614zM328 -165q0 -17 -8.5 -32t-28.5 -15q-16 0 -25.5 12.5t-9.5 30.5t10.5 32.5t27.5 14.5t25.5 -12t8.5 -31z" />
<glyph unicode="&#x1e6d;" horiz-adv-x="405" d="M373 70q-25 -35 -62 -57.5t-77 -22.5q-55 0 -84 36t-29 104v330h-88l-2 16l90 14l20 150l20 -2v-148h185v-30h-185v-315q0 -61 19.5 -90.5t61.5 -29.5q30 0 60.5 14.5t58.5 40.5zM267 -165q0 -17 -8.5 -32t-28.5 -15q-16 0 -25.5 12.5t-9.5 30.5t10.5 32.5t27.5 14.5 t25.5 -12t8.5 -31z" />
<glyph unicode="&#x1e80;" horiz-adv-x="1056" d="M621 795l-7 -16q-25 3 -63 11.5t-76 21.5t-64 28.5t-26 31.5q0 19 21 26l7 -1q32 -23 83 -52t125 -50zM362 0h-23l-213 616q-6 17 -13.5 25t-22.5 11l-58 13l2 20h211l2 -20l-85 -19l193 -571l155 460l-28 81q-6 17 -13.5 25t-22.5 11l-59 13l2 20h213l2 -20l-86 -19 l192 -571l192 571l-85 19l2 20h203l2 -20l-56 -13q-16 -4 -24.5 -12t-13.5 -24l-213 -616h-23l-165 481z" />
<glyph unicode="&#x1e81;" horiz-adv-x="842" d="M495 594l-12 -12q-33 25 -69 53.5t-61 54.5t-25 43q0 10 8 16.5t24 6.5h4l5 -2q17 -31 51.5 -74t74.5 -86zM439 495l157 -442h1l112 407l-77 19l2 16h182l2 -16l-46 -13q-30 -8 -38 -36l-125 -430h-35l-154 433l-151 -433h-35l-126 430q-5 17 -13 24.5t-23 11.5l-48 13 l2 16h192l2 -16l-78 -19l116 -407h1l149 442h31z" />
<glyph unicode="&#x1e82;" horiz-adv-x="1056" d="M618 896l7 1q21 -7 21 -26q0 -16 -26 -31.5t-64 -28.5t-76 -21.5t-63 -11.5l-7 16q74 21 125 50t83 52zM362 0h-23l-213 616q-6 17 -13.5 25t-22.5 11l-58 13l2 20h211l2 -20l-85 -19l193 -571l155 460l-28 81q-6 17 -13.5 25t-22.5 11l-59 13l2 20h213l2 -20l-86 -19 l192 -571l192 571l-85 19l2 20h203l2 -20l-56 -13q-16 -4 -24.5 -12t-13.5 -24l-213 -616h-23l-165 481z" />
<glyph unicode="&#x1e83;" horiz-adv-x="842" d="M534 733q0 -17 -25 -43t-61 -54.5t-69 -53.5l-12 12q40 43 75 86t51 74l5 2h4q17 0 24.5 -6.5t7.5 -16.5zM439 495l157 -442h1l112 407l-77 19l2 16h182l2 -16l-46 -13q-30 -8 -38 -36l-125 -430h-35l-154 433l-151 -433h-35l-126 430q-5 17 -13 24.5t-23 11.5l-48 13 l2 16h192l2 -16l-78 -19l116 -407h1l149 442h31z" />
<glyph unicode="&#x1e84;" horiz-adv-x="1056" d="M636 839q0 -17 -9.5 -32t-29.5 -15q-17 0 -27 12t-10 28q0 17 11 31t29 14q17 0 26.5 -10.5t9.5 -27.5zM446 839q0 -17 -9.5 -32t-29.5 -15q-17 0 -27 12t-10 28q0 17 11 31t29 14q17 0 26.5 -10.5t9.5 -27.5zM362 0h-23l-213 616q-6 17 -13.5 25t-22.5 11l-58 13l2 20 h211l2 -20l-85 -19l193 -571l155 460l-28 81q-6 17 -13.5 25t-22.5 11l-59 13l2 20h213l2 -20l-86 -19l192 -571l192 571l-85 19l2 20h203l2 -20l-56 -13q-16 -4 -24.5 -12t-13.5 -24l-213 -616h-23l-165 481z" />
<glyph unicode="&#x1e85;" horiz-adv-x="842" d="M556 671q0 -18 -8.5 -33.5t-27.5 -15.5q-16 0 -25 12.5t-9 29.5q0 19 10.5 33.5t26.5 14.5t24.5 -11.5t8.5 -29.5zM366 671q0 -18 -8.5 -33.5t-27.5 -15.5q-16 0 -25 12.5t-9 29.5q0 19 10.5 33.5t26.5 14.5t24.5 -11.5t8.5 -29.5zM439 495l157 -442h1l112 407l-77 19 l2 16h182l2 -16l-46 -13q-30 -8 -38 -36l-125 -430h-35l-154 433l-151 -433h-35l-126 430q-5 17 -13 24.5t-23 11.5l-48 13l2 16h192l2 -16l-78 -19l116 -407h1l149 442h31z" />
<glyph unicode="&#x1e92;" horiz-adv-x="594" d="M516 0h-439l-5 30l387 625h-216q-66 0 -113 -5l-34 -130h-15q-3 33 -3 65q0 25 1.5 52.5t4.5 47.5h418l5 -30l-387 -625h237q66 0 113 5l34 130h15q3 -33 3 -65q0 -25 -1.5 -52.5t-4.5 -47.5zM342 -165q0 -17 -8.5 -32t-28.5 -15q-16 0 -25.5 12.5t-9.5 30.5t10.5 32.5 t27.5 14.5t25.5 -12t8.5 -31z" />
<glyph unicode="&#x1e93;" horiz-adv-x="458" d="M402 66q-1 -20 -2 -35t-4 -31h-334l-6 30l300 435h-244l-30 -115h-15q-3 17 -4.5 37t-1.5 45q1 20 2 34t4 29h329l6 -30l-300 -435h248l31 115h15q3 -16 4.5 -35t1.5 -44zM271 -165q0 -17 -8.5 -32t-28.5 -15q-16 0 -25.5 12.5t-9.5 30.5t10.5 32.5t27.5 14.5t25.5 -12 t8.5 -31z" />
<glyph unicode="&#x1e9e;" horiz-adv-x="687" d="M631 150q0 -70 -48.5 -115t-131.5 -45q-47 0 -84.5 12.5t-46.5 24.5q-6 10 -7.5 22t-1.5 34q0 15 1.5 39.5t5.5 42.5h15q7 -40 14.5 -68t23.5 -45q26 -27 86 -27q59 0 94 36t35 85q0 42 -20.5 73.5t-54.5 56.5t-76 46l-86 43l-3 22l176 219q-64 56 -158 56 q-50 0 -90 -21.5t-63 -58t-23 -82.5v-483l-14 -17h-111l-2 20l58 13q17 4 22 10t5 20v425q0 59 30 106t82 74t117 27q120 0 188 -62l4 -22l-178 -221q41 -22 83.5 -45t78.5 -50.5t58 -63t22 -81.5z" />
<glyph unicode="&#x1ea0;" horiz-adv-x="711" d="M344 685h23l218 -616q6 -17 13.5 -25t22.5 -11l58 -13l-2 -20h-212l-2 20l86 19l-75 216l-247 -4l-73 -211l85 -20l-2 -20h-203l-2 20l56 13q17 4 25 12t13 24zM238 285h226l-113 325zM387 -165q0 -17 -8.5 -32t-28.5 -15q-16 0 -25.5 12.5t-9.5 30.5t10.5 32.5 t27.5 14.5t25.5 -12t8.5 -31z" />
<glyph unicode="&#x1ea1;" horiz-adv-x="496" d="M249 506q65 0 100 -34t35 -98q0 -22 -0.5 -57t-1.5 -75.5t-1.5 -80.5t-0.5 -73q0 -37 10.5 -51t38.5 -14q22 0 44 7l4 -9q-13 -13 -32 -22t-42 -9q-28 0 -45.5 18.5t-19.5 50.5q-28 -28 -66 -48.5t-84 -20.5q-58 0 -91 29.5t-33 80.5q0 48 35.5 85.5t98 60t142.5 24.5 q1 36 1.5 63t0.5 39q0 48 -27.5 74t-74.5 26q-35 0 -62 -15t-42 -37t-15 -45q0 -17 7 -32q-9 -6 -21 -6q-15 0 -24 9.5t-9 25.5q0 30 25.5 61t66 52t83.5 21zM107 102q0 -40 23.5 -58.5t63.5 -18.5q41 0 78.5 20.5t65.5 51.5q0 36 0.5 72.5t1.5 70.5q-70 -2 -122.5 -20 t-81.5 -48t-29 -70zM272 -165q0 -17 -8.5 -32t-28.5 -15q-16 0 -25.5 12.5t-9.5 30.5t10.5 32.5t27.5 14.5t25.5 -12t8.5 -31z" />
<glyph unicode="&#x1eb8;" horiz-adv-x="565" d="M188 360l222 5l-2 -39l-220 4v-300h148q31 0 62 1.5t51 3.5l34 130h15q3 -33 3 -75q0 -22 -1.5 -47t-4.5 -43h-432l-2 20l58 13q17 4 22 10t5 20v559q0 14 -5 20t-22 10l-58 13l2 20h422q3 -18 4.5 -42.5t1.5 -47.5q0 -37 -3 -75h-15l-34 130q-20 2 -51 3.5t-62 1.5h-138 v-295zM348 -165q0 -17 -8.5 -32t-28.5 -15q-16 0 -25.5 12.5t-9.5 30.5t10.5 32.5t27.5 14.5t25.5 -12t8.5 -31z" />
<glyph unicode="&#x1eb9;" horiz-adv-x="459" d="M411 70q-25 -37 -67 -58.5t-90 -21.5q-91 0 -144.5 66.5t-53.5 178.5q0 79 25.5 140t71 95.5t104.5 34.5q69 0 110.5 -48t41.5 -133q0 -13 -0.5 -27.5t-1.5 -28.5l-9 -10h-299v-4q0 -106 45 -167.5t121 -61.5q78 0 134 55zM253 472q-64 0 -105 -51.5t-48 -134.5l265 5 q1 11 1 20.5v14.5q0 71 -29.5 108.5t-83.5 37.5zM273 -165q0 -17 -8.5 -32t-28.5 -15q-16 0 -25.5 12.5t-9.5 30.5t10.5 32.5t27.5 14.5t25.5 -12t8.5 -31z" />
<glyph unicode="&#x1ebc;" horiz-adv-x="565" d="M132 775l-14 5q9 50 26.5 76.5t48.5 26.5q20 0 52 -10.5t66 -24t62.5 -24.5t42.5 -11q10 15 21 31t27 43l14 -6q-9 -49 -25 -75.5t-48 -26.5q-19 0 -51 10.5t-67 24t-63.5 24t-41.5 11.5q-8 -9 -21.5 -28.5t-28.5 -45.5zM188 360l222 5l-2 -39l-220 4v-300h148 q31 0 62 1.5t51 3.5l34 130h15q3 -33 3 -75q0 -22 -1.5 -47t-4.5 -43h-432l-2 20l58 13q17 4 22 10t5 20v559q0 14 -5 20t-22 10l-58 13l2 20h422q3 -18 4.5 -42.5t1.5 -47.5q0 -37 -3 -75h-15l-34 130q-20 2 -51 3.5t-62 1.5h-138v-295z" />
<glyph unicode="&#x1ebd;" horiz-adv-x="459" d="M102 614l-14 5q8 47 25.5 72t47.5 25q17 0 43.5 -8.5t55 -19.5t52.5 -20t36 -9q10 14 20.5 28t25.5 39l14 -6q-8 -46 -24 -71t-48 -25q-16 0 -43 8.5t-56 19.5t-53 19.5t-35 9.5q-7 -8 -20 -25.5t-27 -41.5zM411 70q-25 -37 -67 -58.5t-90 -21.5q-91 0 -144.5 66.5 t-53.5 178.5q0 79 25.5 140t71 95.5t104.5 34.5q69 0 110.5 -48t41.5 -133q0 -13 -0.5 -27.5t-1.5 -28.5l-9 -10h-299v-4q0 -106 45 -167.5t121 -61.5q78 0 134 55zM253 472q-64 0 -105 -51.5t-48 -134.5l265 5q1 11 1 20.5v14.5q0 71 -29.5 108.5t-83.5 37.5z" />
<glyph unicode="&#x1eca;" horiz-adv-x="334" d="M188 39l85 -19l-2 -20h-208l-2 20l58 13q17 4 22 10t5 20v583l-85 19l2 20h208l2 -20l-58 -13q-16 -4 -21.5 -10t-5.5 -20v-583zM203 -165q0 -17 -8.5 -32t-28.5 -15q-16 0 -25.5 12.5t-9.5 30.5t10.5 32.5t27.5 14.5t25.5 -12t8.5 -31z" />
<glyph unicode="&#x1ecb;" horiz-adv-x="276" d="M167 665q0 -17 -8.5 -32t-28.5 -15q-16 0 -25.5 12.5t-9.5 30.5t10.5 32.5t27.5 14.5t25.5 -12t8.5 -31zM162 35l75 -19l-2 -16h-186l-2 16l48 13q17 5 22 10.5t5 20.5v400l-73 6l-2 14q23 8 52.5 14.5t52.5 10.5l10 -10v-460zM174 -166q0 -17 -8.5 -32t-28.5 -15 q-16 0 -25.5 12.5t-9.5 30.5t10.5 32.5t27.5 14.5t25.5 -12t8.5 -31z" />
<glyph unicode="&#x1ecc;" horiz-adv-x="648" d="M64 343q0 109 34.5 188t95 121.5t138.5 42.5q75 0 131.5 -42.5t88.5 -120t32 -184.5t-32 -187.5t-90.5 -125.5t-138.5 -45q-79 0 -137.5 42.5t-90 122t-31.5 188.5zM109 343q0 -98 27 -169.5t76 -110t114 -38.5t113 40.5t74 113.5t26 169q0 95 -26 165t-72.5 108.5 t-108.5 38.5q-66 0 -116 -38.5t-78.5 -109.5t-28.5 -169zM359 -165q0 -17 -8.5 -32t-28.5 -15q-16 0 -25.5 12.5t-9.5 30.5t10.5 32.5t27.5 14.5t25.5 -12t8.5 -31z" />
<glyph unicode="&#x1ecd;" horiz-adv-x="498" d="M442 250q0 -84 -26 -142t-70 -87.5t-99 -30.5q-54 0 -97.5 30t-68.5 88.5t-25 142.5t29 140.5t75 85t96 28.5t92.5 -28.5t68 -85t25.5 -141.5zM99 249q0 -63 18 -114.5t51.5 -81.5t78.5 -30q70 0 111 55t41 167q0 67 -17.5 118t-50 80t-76.5 29q-67 0 -111.5 -55 t-44.5 -168zM291 -165q0 -17 -8.5 -32t-28.5 -15q-16 0 -25.5 12.5t-9.5 30.5t10.5 32.5t27.5 14.5t25.5 -12t8.5 -31z" />
<glyph unicode="&#x1ee4;" horiz-adv-x="657" d="M109 220v426l-85 19l2 20h208l2 -20l-58 -13q-16 -4 -21.5 -10t-5.5 -20v-405q0 -62 24.5 -105t65.5 -65t90 -22q50 0 90.5 21.5t65 64.5t24.5 106v429l-85 19l2 20h201l2 -20l-85 -19v-426q0 -76 -29.5 -127.5t-79 -77t-111.5 -25.5q-60 0 -109.5 26t-78.5 77t-29 127z M363 -165q0 -17 -8.5 -32t-28.5 -15q-16 0 -25.5 12.5t-9.5 30.5t10.5 32.5t27.5 14.5t25.5 -12t8.5 -31z" />
<glyph unicode="&#x1ee5;" horiz-adv-x="590" d="M119 160v300l-73 6l-2 14q23 8 52.5 14.5t52.5 10.5l10 -10v-335q0 -66 31 -101t91 -35q39 0 77 20t66 53v363l-73 6l-2 14q23 8 52.5 14.5t52.5 10.5l10 -10v-391q0 -44 11.5 -62.5t39.5 -18.5q19 0 44 7l4 -9q-31 -31 -74 -31q-59 0 -64 67q-28 -29 -69 -48t-83 -19 q-75 0 -114.5 44t-39.5 126zM335 -165q0 -17 -8.5 -32t-28.5 -15q-16 0 -25.5 12.5t-9.5 30.5t10.5 32.5t27.5 14.5t25.5 -12t8.5 -31z" />
<glyph unicode="&#x1ef2;" horiz-adv-x="671" d="M454 795l-7 -16q-25 3 -63 11.5t-76 21.5t-64 28.5t-26 31.5q0 19 21 26l7 -1q32 -23 83 -52t125 -50zM356 39l85 -19l-2 -20h-208l-2 20l58 13q17 4 22 10t5 20v203l-187 350q-9 17 -16 25t-21 11l-58 13l2 20h211l2 -20l-85 -19l178 -346h1l176 346l-85 19l2 20h203 l2 -20l-56 -13q-17 -4 -25.5 -12t-16.5 -24l-185 -352v-225z" />
<glyph unicode="&#x1ef3;" horiz-adv-x="555" d="M352 593l-12 -12q-33 25 -69 53.5t-61 54.5t-25 43q0 10 8 16.5t24 6.5h4l5 -2q17 -31 51.5 -74t74.5 -86zM36 495h192l2 -16l-78 -19l137 -406l133 406l-77 19l2 16h182l2 -16l-46 -13q-16 -4 -24.5 -12t-13.5 -24l-147 -430q-27 -78 -56 -135.5t-65 -88.5t-85 -31 q-29 0 -49.5 14.5t-20.5 34.5q0 19 14 27l4 2q9 -13 25 -25.5t41 -12.5q35 0 63.5 27.5t52.5 74.5t44 105l-150 438q-6 17 -13.5 24.5t-22.5 11.5l-48 13z" />
<glyph unicode="&#x1ef8;" horiz-adv-x="671" d="M164 776l-14 5q9 50 26.5 76.5t48.5 26.5q20 0 52 -10.5t66 -24t62.5 -24.5t42.5 -11q10 15 21 31t27 43l14 -6q-9 -49 -25 -75.5t-48 -26.5q-19 0 -51 10.5t-67 24t-63.5 24t-41.5 11.5q-8 -9 -21.5 -28.5t-28.5 -45.5zM356 39l85 -19l-2 -20h-208l-2 20l58 13 q17 4 22 10t5 20v203l-187 350q-9 17 -16 25t-21 11l-58 13l2 20h211l2 -20l-85 -19l178 -346h1l176 346l-85 19l2 20h203l2 -20l-56 -13q-17 -4 -25.5 -12t-16.5 -24l-185 -352v-225z" />
<glyph unicode="&#x1ef9;" horiz-adv-x="555" d="M143 614l-14 5q8 47 25.5 72t47.5 25q17 0 43.5 -8.5t55 -19.5t52.5 -20t36 -9q10 14 20.5 28t25.5 39l14 -6q-8 -46 -24 -71t-48 -25q-16 0 -43 8.5t-56 19.5t-53 19.5t-35 9.5q-7 -8 -20 -25.5t-27 -41.5zM36 495h192l2 -16l-78 -19l137 -406l133 406l-77 19l2 16h182 l2 -16l-46 -13q-16 -4 -24.5 -12t-13.5 -24l-147 -430q-27 -78 -56 -135.5t-65 -88.5t-85 -31q-29 0 -49.5 14.5t-20.5 34.5q0 19 14 27l4 2q9 -13 25 -25.5t41 -12.5q35 0 63.5 27.5t52.5 74.5t44 105l-150 438q-6 17 -13.5 24.5t-22.5 11.5l-48 13z" />
<glyph unicode="&#x2007;" />
<glyph unicode="&#x2013;" horiz-adv-x="526" d="M48 250v35h430v-35h-430z" />
<glyph unicode="&#x2014;" horiz-adv-x="790" d="M48 250v35h694v-35h-694z" />
<glyph unicode="&#x2018;" horiz-adv-x="221" d="M157 746q-19 -31 -33 -75t-21 -95h4q20 0 32 -12t12 -32q0 -17 -12.5 -30.5t-32.5 -13.5t-31 15t-11 38q0 30 10.5 67.5t29 76t41.5 70.5z" />
<glyph unicode="&#x2019;" horiz-adv-x="221" d="M64 497q19 31 33 75t21 95h-4q-20 0 -32 12.5t-12 31.5q0 17 12.5 30.5t32.5 13.5t31 -15t11 -38q0 -29 -10.5 -67t-28.5 -76.5t-42 -70.5z" />
<glyph unicode="&#x201a;" horiz-adv-x="221" d="M64 -180q19 31 33 75t21 95h-4q-20 0 -32 12.5t-12 31.5q0 17 12.5 30.5t32.5 13.5t31 -15t11 -38q0 -29 -10.5 -67t-28.5 -76.5t-42 -70.5z" />
<glyph unicode="&#x201c;" horiz-adv-x="378" d="M157 746q-19 -31 -33 -75t-21 -95h4q20 0 32 -12t12 -32q0 -17 -12.5 -30.5t-32.5 -13.5t-31 15t-11 38q0 30 10.5 67.5t29 76t41.5 70.5zM314 746q-19 -31 -33 -75t-21 -95h4q20 0 32 -12t12 -32q0 -17 -12.5 -30.5t-32.5 -13.5t-31 15t-11 38q0 30 10.5 67.5t29 76 t41.5 70.5z" />
<glyph unicode="&#x201d;" horiz-adv-x="378" d="M221 497q19 31 33 75t21 95h-4q-20 0 -32 12.5t-12 31.5q0 17 12.5 30.5t32.5 13.5t31 -15t11 -38q0 -29 -10.5 -67t-28.5 -76.5t-42 -70.5zM64 497q19 31 33 75t21 95h-4q-20 0 -32 12.5t-12 31.5q0 17 12.5 30.5t32.5 13.5t31 -15t11 -38q0 -29 -10.5 -67t-28.5 -76.5 t-42 -70.5z" />
<glyph unicode="&#x201e;" horiz-adv-x="378" d="M221 -180q19 31 33 75t21 95h-4q-20 0 -32 12.5t-12 31.5q0 17 12.5 30.5t32.5 13.5t31 -15t11 -38q0 -29 -10.5 -67t-28.5 -76.5t-42 -70.5zM64 -180q19 31 33 75t21 95h-4q-20 0 -32 12.5t-12 31.5q0 17 12.5 30.5t32.5 13.5t31 -15t11 -38q0 -29 -10.5 -67 t-28.5 -76.5t-42 -70.5z" />
<glyph unicode="&#x2020;" horiz-adv-x="504" d="M277 150l-15 -150h-20l-15 150l9 322l-161 -7l-4 3q-1 7 -3 16t-4 16l14 8l159 -12l-10 189l3 4q8 2 19 3.5t20 2.5l8 -8l-10 -191l162 12l4 -3q2 -7 4 -15.5t3 -16.5l-14 -8l-158 7z" />
<glyph unicode="&#x2021;" horiz-adv-x="504" d="M230 689q8 2 19 3.5t20 2.5l8 -8l-10 -191l162 12l4 -3q2 -7 4 -15.5t3 -16.5l-14 -8l-157 7l8 -124l-8 -125l157 7l14 -8q-1 -8 -3 -16.5t-4 -15.5l-4 -3l-162 12l10 -191l-8 -8q-9 1 -20 3t-19 3l-3 4l10 189l-159 -12l-14 8q2 8 4 16.5t3 15.5l4 3l160 -7l-8 125 l8 124l-160 -7l-4 3q-1 7 -3 16t-4 16l14 8l159 -12l-10 189z" />
<glyph unicode="&#x2022;" horiz-adv-x="402" d="M198 160q-43 0 -68.5 29.5t-25.5 69.5q0 30 13 56t36 42.5t53 16.5q44 0 68 -28t24 -69q0 -29 -11 -56t-33 -44t-56 -17z" />
<glyph unicode="&#x2026;" horiz-adv-x="580" d="M103 -10q-18 0 -28.5 12.5t-10.5 28.5q0 18 11.5 32.5t30.5 14.5q18 0 28 -11.5t10 -28.5q0 -18 -10 -33t-31 -15zM289 -10q-18 0 -28.5 12.5t-10.5 28.5q0 18 11.5 32.5t30.5 14.5q18 0 28 -11.5t10 -28.5q0 -18 -10 -33t-31 -15zM475 -10q-18 0 -28.5 12.5t-10.5 28.5 q0 18 11.5 32.5t30.5 14.5q18 0 28 -11.5t10 -28.5q0 -18 -10 -33t-31 -15z" />
<glyph unicode="&#x2030;" horiz-adv-x="1310" d="M689 695l-422 -705h-39l421 705h40zM78 483q-1 58 16.5 103.5t52 72t83.5 26.5q50 0 83 -26t50 -71t17 -102q1 -58 -15.5 -105.5t-50.5 -76t-85 -28.5q-52 0 -85 27t-49 74t-17 106zM113 483q1 -79 28.5 -130t88.5 -51q41 0 66.5 25t37.5 66.5t11 92.5q-1 74 -28.5 123.5 t-86.5 49.5q-60 0 -89 -50t-28 -126zM548 197q-1 58 16.5 103.5t52 72t83.5 26.5q50 0 83 -26t50 -71t17 -102q1 -58 -15.5 -105.5t-50.5 -76t-85 -28.5q-52 0 -85 27t-49 74t-17 106zM930 197q-1 58 16.5 103.5t52 72t83.5 26.5q50 0 83 -26t50 -71t17 -102 q1 -58 -15.5 -105.5t-50.5 -76t-85 -28.5q-52 0 -85 27t-49 74t-17 106zM583 197q1 -79 28.5 -130t88.5 -51q41 0 66.5 25t37.5 66.5t11 92.5q-1 74 -28.5 123.5t-86.5 49.5q-60 0 -89 -50t-28 -126zM965 197q1 -79 28.5 -130t88.5 -51q41 0 66.5 25t37.5 66.5t11 92.5 q-1 74 -28.5 123.5t-86.5 49.5q-60 0 -89 -50t-28 -126z" />
<glyph unicode="&#x2039;" horiz-adv-x="338" d="M253 28l-16 -8q-25 42 -53.5 82.5t-53.5 72t-42 46.5l-4 6v40q33 36 74 92.5t81 117.5l15 -9q-25 -52 -60 -111.5t-67 -110.5q18 -24 40 -59.5t44 -76.5t42 -82z" />
<glyph unicode="&#x203a;" horiz-adv-x="338" d="M254 226q-33 -36 -74 -92.5t-81 -117.5l-15 9q25 53 60 112t67 110q-18 24 -40 59.5t-44 76.5t-42 82l16 8q26 -42 54 -82.5t53 -71.5t42 -47l4 -6v-40z" />
<glyph unicode="&#x2044;" horiz-adv-x="269" d="M365 695l-422 -705h-39l421 705h40z" />
<glyph unicode="&#x2070;" horiz-adv-x="414" d="M56 553q-1 58 16.5 103.5t52 72t83.5 26.5q50 0 83 -26t50 -71t17 -102q1 -58 -15.5 -105.5t-50.5 -76t-85 -28.5q-52 0 -85 27t-49 74t-17 106zM91 553q1 -79 28.5 -130t88.5 -51q41 0 66.5 25t37.5 66.5t11 92.5q-1 74 -28.5 123.5t-86.5 49.5q-60 0 -89 -50t-28 -126z " />
<glyph unicode="&#x2071;" horiz-adv-x="237" d="M121 885q-13 0 -20.5 10t-7.5 24q0 16 8.5 27.5t21.5 11.5q14 0 21 -9.5t7 -23.5q0 -15 -7.5 -27.5t-22.5 -12.5zM140 397l61 -15l-1 -13h-153l-2 13l40 10q14 4 18 8.5t4 16.5v309l-60 6l-2 11q19 6 43.5 11.5t43.5 8.5l8 -8v-358z" />
<glyph unicode="&#x2074;" horiz-adv-x="441" d="M56 469l226 286l24 -3v-277h79l-5 -24h-74v-95h-33v95h-209zM89 475h184v238z" />
<glyph unicode="&#x2075;" horiz-adv-x="383" d="M87 745h226q1 -21 -1.5 -44.5t-6.5 -41.5h-13q-2 37 -6.5 48.5t-27.5 11.5h-141l-1 -142h12.5h11.5q81 0 134 -28.5t53 -88.5q0 -50 -42 -82t-106 -32q-54 0 -88.5 18t-34.5 47q0 28 31 40l6 -5l-2.5 -10t-1.5 -14q0 -27 24.5 -41.5t67.5 -14.5q50 0 81.5 25.5t31.5 65.5 q0 53 -52.5 78.5t-148.5 23.5l-7 6z" />
<glyph unicode="&#x2076;" horiz-adv-x="392" d="M336 474q0 -37 -19.5 -66t-51 -45.5t-69.5 -16.5q-61 0 -100.5 42.5t-39.5 114.5q0 69 33.5 124.5t90.5 89.5t127 38l4 -15q-53 -7 -99 -33t-77 -68.5t-41 -98.5q23 19 50.5 31t60.5 12q58 0 94.5 -29.5t36.5 -79.5zM91 497q0 -58 30.5 -93.5t76.5 -35.5q44 0 73.5 28.5 t29.5 74.5q0 39 -25.5 64.5t-72.5 25.5q-30 0 -58.5 -12.5t-53.5 -35.5v-16z" />
<glyph unicode="&#x2077;" horiz-adv-x="393" d="M333 745l4 -22q-43 -43 -78.5 -104.5t-58 -129.5t-28.5 -133h-32q5 62 29 129t60 128.5t77 105.5h-197q-23 0 -27.5 -11.5t-8.5 -47.5h-12q-4 17 -4.5 40.5t0.5 44.5h276z" />
<glyph unicode="&#x2078;" horiz-adv-x="391" d="M335 448q0 -45 -39.5 -73.5t-103.5 -28.5q-59 0 -97.5 27t-38.5 70q0 41 32.5 71.5t78.5 41.5q-35 17 -61 40.5t-26 61.5q0 40 33 68.5t85 28.5q53 0 83 -25.5t30 -65.5q0 -39 -25.5 -66t-57.5 -42q27 -12 51.5 -26.5t40 -34t15.5 -47.5zM113 661q0 -36 29.5 -57.5 t66.5 -38.5q30 15 49.5 39.5t19.5 59.5q0 30 -20.5 49.5t-58.5 19.5t-62 -20.5t-24 -51.5zM89 446q0 -36 30.5 -57t74.5 -21q43 0 75.5 21t32.5 57q0 24 -17 41.5t-43 31t-54 27.5q-43 -13 -71 -39.5t-28 -60.5z" />
<glyph unicode="&#x2079;" horiz-adv-x="392" d="M336 598q0 -68 -33.5 -124t-90 -90t-127.5 -38l-4 15q53 7 99 33t77 68.5t41 98.5q-24 -20 -53 -31.5t-63 -11.5q-55 0 -90.5 29.5t-35.5 80.5q0 37 19.5 65.5t51.5 45t69 16.5q62 0 101 -42.5t39 -114.5zM91 631q0 -40 24 -65.5t69 -25.5q64 0 117 48v16q0 58 -30 93.5 t-77 35.5q-44 0 -73.5 -28t-29.5 -74z" />
<glyph unicode="&#x207f;" horiz-adv-x="484" d="M140 397l61 -15l-1 -13h-153l-2 13l40 10q14 4 18 8.5t4 16.5v309l-60 6l-2 11q19 6 43.5 11.5t43.5 8.5l8 -8v-42q29 23 62.5 36.5t67.5 13.5q57 0 86.5 -30.5t29.5 -87.5v-248l61 -15l-1 -13h-153l-2 13l40 10q14 4 18 8.5t4 16.5v227q0 44 -22.5 67.5t-66.5 23.5 q-67 0 -124 -51v-287z" />
<glyph unicode="&#x2080;" horiz-adv-x="414" d="M56 121q-1 58 16.5 103.5t52 72t83.5 26.5q50 0 83 -26t50 -71t17 -102q1 -58 -15.5 -105.5t-50.5 -76t-85 -28.5q-52 0 -85 27t-49 73.5t-17 106.5zM91 121q1 -79 28.5 -130t88.5 -51q41 0 66.5 25t37.5 66.5t11 92.5q-1 74 -28.5 123.5t-86.5 49.5q-60 0 -89 -50 t-28 -126z" />
<glyph unicode="&#x2081;" horiz-adv-x="270" d="M151 -55l63 -12l-2 -9h-155l-1 9l40 7q14 3 18 6.5t4 13.5v332l-61 3l-1 8l89 20l6 -6v-372z" />
<glyph unicode="&#x2082;" horiz-adv-x="382" d="M61 -76l-5 21q60 54 108.5 98t77.5 84.5t29 84.5q0 38 -23 61.5t-63 23.5q-35 0 -63 -18.5t-49 -44.5l-9 4q18 38 51.5 61.5t78.5 23.5q53 0 82.5 -30.5t29.5 -76.5q0 -45 -28.5 -85.5t-77 -84t-110.5 -96.5h169q26 0 36 12.5t21 46.5l10 -1q0 -19 -3 -41.5t-10 -42.5 h-252z" />
<glyph unicode="&#x2083;" horiz-adv-x="382" d="M120 106l-1 18q69 13 113 36t44 69q0 29 -23 48.5t-59 19.5q-37 0 -65.5 -18t-52.5 -45l-8 4q21 39 55.5 62t77.5 23q48 0 78.5 -25t30.5 -65q0 -32 -19 -54t-47 -35.5t-54 -18.5q56 -3 96 -29t40 -72q0 -47 -42.5 -78.5t-108.5 -31.5q-54 0 -86.5 19t-32.5 49 q0 27 31 41l6 -5q-3 -7 -3 -21q0 -63 88 -63q48 0 81.5 22.5t33.5 65.5q0 29 -19.5 48t-49.5 28.5t-64 9.5q-10 0 -19.5 -0.5t-20.5 -1.5z" />
<glyph unicode="&#x2084;" horiz-adv-x="441" d="M56 37l226 286l24 -3v-277h79l-5 -24h-74v-95h-33v95h-209zM89 43h184v238z" />
<glyph unicode="&#x2085;" horiz-adv-x="383" d="M87 313h226q1 -21 -1.5 -44.5t-6.5 -41.5h-13q-2 37 -6.5 48.5t-27.5 11.5h-141l-1 -142h12.5h11.5q81 0 134 -28.5t53 -88.5q0 -50 -42 -82t-106 -32q-54 0 -88.5 18t-34.5 47q0 28 31 40l6 -5l-2.5 -10t-1.5 -14q0 -27 24.5 -41.5t67.5 -14.5q50 0 81.5 25.5t31.5 65.5 q0 53 -52.5 78.5t-148.5 23.5l-7 6z" />
<glyph unicode="&#x2086;" horiz-adv-x="392" d="M336 42q0 -37 -19.5 -66t-51 -45.5t-69.5 -16.5q-61 0 -100.5 42.5t-39.5 114.5q0 69 33.5 124.5t90.5 89.5t127 38l4 -15q-53 -7 -99 -33t-77 -68.5t-41 -98.5q23 19 50.5 31t60.5 12q58 0 94.5 -29.5t36.5 -79.5zM91 65q0 -58 30.5 -93.5t76.5 -35.5q44 0 73.5 28.5 t29.5 74.5q0 39 -25.5 64.5t-72.5 25.5q-30 0 -58.5 -12.5t-53.5 -35.5v-16z" />
<glyph unicode="&#x2087;" horiz-adv-x="393" d="M333 313l4 -22q-43 -43 -78.5 -104.5t-58 -129.5t-28.5 -133h-32q5 62 29 129t60 128.5t77 105.5h-197q-23 0 -27.5 -11.5t-8.5 -47.5h-12q-4 17 -4.5 40.5t0.5 44.5h276z" />
<glyph unicode="&#x2088;" horiz-adv-x="391" d="M335 16q0 -45 -39.5 -73.5t-103.5 -28.5q-59 0 -97.5 27t-38.5 70q0 41 32.5 71.5t78.5 41.5q-35 17 -61 40.5t-26 61.5q0 40 33 68.5t85 28.5q53 0 83 -25.5t30 -65.5q0 -39 -25.5 -66t-57.5 -42q27 -12 51.5 -26.5t40 -34t15.5 -47.5zM113 229q0 -36 29.5 -57.5 t66.5 -38.5q30 15 49.5 39.5t19.5 59.5q0 30 -20.5 49.5t-58.5 19.5t-62 -20.5t-24 -51.5zM89 14q0 -36 30.5 -57t74.5 -21q43 0 75.5 21t32.5 57q0 24 -17 41.5t-43 31t-54 27.5q-43 -13 -71 -39.5t-28 -60.5z" />
<glyph unicode="&#x2089;" horiz-adv-x="392" d="M336 166q0 -68 -33.5 -124t-90 -90t-127.5 -38l-4 15q53 7 99 33t77 68.5t41 98.5q-24 -20 -53 -31.5t-63 -11.5q-55 0 -90.5 29.5t-35.5 80.5q0 37 19.5 65.5t51.5 45t69 16.5q62 0 101 -42.5t39 -114.5zM91 199q0 -40 24 -65.5t69 -25.5q64 0 117 48v16q0 58 -30 93.5 t-77 35.5q-44 0 -73.5 -28t-29.5 -74z" />
<glyph unicode="&#x2090;" horiz-adv-x="411" d="M202 324q53 0 81.5 -27t28.5 -77q0 -22 -0.5 -61.5t-1.5 -82t-1 -75.5q0 -29 9 -40t31 -11q10 0 18 1t18 4l4 -7q-10 -11 -26.5 -18.5t-34.5 -7.5q-23 0 -37.5 14t-16.5 40q-23 -23 -54 -38.5t-69 -15.5q-47 0 -74 23t-27 63q0 37 29 66.5t80 47t117 19.5q1 28 1.5 49.5 t0.5 30.5q0 37 -22.5 57t-61.5 20q-43 0 -70 -24.5t-27 -50.5q0 -15 5 -26q-8 -5 -17 -5q-27 0 -27 28q0 24 21 48t54 40t69 16zM85 11q0 -31 19 -45.5t52 -14.5t63.5 15t54.5 39q0 28 0.5 56.5t1.5 55.5q-86 -2 -138.5 -31t-52.5 -75z" />
<glyph unicode="&#x2091;" horiz-adv-x="367" d="M333 -14q-20 -29 -54.5 -46.5t-74.5 -17.5q-74 0 -118 51.5t-44 139.5q0 62 21 109.5t58.5 74.5t85.5 27q56 0 90 -37.5t34 -104.5v-21t-1 -22l-8 -8h-245v-1q0 -83 37 -130.5t99 -47.5q64 0 110 42zM203 298q-52 0 -86 -40.5t-39 -104.5l217 4q1 9 1 16.5v11.5 q0 55 -24.5 84t-68.5 29z" />
<glyph unicode="&#x2092;" horiz-adv-x="400" d="M358 125q0 -98 -46 -150t-114 -53q-67 -1 -111.5 52.5t-44.5 151.5q0 65 24 109t61.5 66.5t78.5 22.5t75.5 -22.5t55.5 -66.5t21 -110zM77 124q0 -50 15 -90t42 -63t64 -23q58 0 91.5 43t33.5 130q0 79 -32 128t-86 49q-55 0 -91.5 -42.5t-36.5 -131.5z" />
<glyph unicode="&#x2093;" horiz-adv-x="413" d="M105 288l106 -142l101 142l-61 16l2 12h144l2 -12l-9 -3t-18 -5.5t-10 -2.5q-10 -3 -16 -9.5t-16 -19.5l-106 -135l110 -147q9 -13 14.5 -19t18.5 -10l36 -10l-2 -13h-152l-2 13l64 15l-110 148l-105 -148l61 -15l-1 -13h-145l-1 13l36 10q11 4 17 10.5t16 18.5l109 141 l-105 142q-10 13 -14.5 18.5t-18.5 9.5l-9 2.5t-18 5.5l-9 3l1 12h152l2 -12z" />
<glyph unicode="&#x2095;" horiz-adv-x="476" d="M132 -42l61 -15l-1 -13h-153l-2 13l40 10q14 4 18 8.5t4 16.5v504l-60 6l-2 11q19 6 43.5 11.5t43.5 8.5l8 -8v-237q29 23 62.5 36.5t67.5 13.5q57 0 86.5 -30.5t29.5 -87.5v-248l61 -15l-1 -13h-153l-2 13l40 10q14 4 18 8.5t4 16.5v227q0 44 -22.5 67.5t-66.5 23.5 q-67 0 -124 -51v-287z" />
<glyph unicode="&#x2096;" horiz-adv-x="429" d="M132 -42l61 -15l-1 -13h-153l-2 13l40 10q14 4 18 8.5t4 16.5v505l-60 5l-2 11q19 7 43.5 12.5t43.5 8.5l8 -8v-364h92l94 140l-62 16l2 12h145l2 -12l-9 -3t-18 -5.5l-9 -2.5q-11 -3 -17.5 -9.5t-15.5 -19.5l-85 -118l88 -143q13 -20 24.5 -32t27.5 -17l28 -8l-2 -16 h-29q-28 0 -43 12t-30 36l-91 146h-92v-166z" />
<glyph unicode="&#x2097;" horiz-adv-x="229" d="M132 -42l61 -15l-1 -13h-153l-2 13l40 10q14 4 18 8.5t4 16.5v505l-60 5l-2 11q19 7 43.5 12.5t43.5 8.5l8 -8v-554z" />
<glyph unicode="&#x2098;" horiz-adv-x="714" d="M140 -42l61 -15l-1 -13h-153l-2 13l40 10q14 4 18 8.5t4 16.5v309l-60 6l-2 11q19 6 43.5 11.5t43.5 8.5l8 -8v-42q28 23 60.5 36.5t65.5 13.5q74 0 100 -55q57 55 130 55q59 0 89.5 -30.5t30.5 -87.5v-248l61 -15l-2 -13h-152l-2 13l39 10q14 4 18 8.5t4 16.5v227 q0 44 -22.5 67.5t-67.5 23.5q-31 0 -62 -12.5t-57 -36.5q5 -18 5 -41v-248l61 -15l-1 -13h-153l-2 13l39 10q14 4 18.5 8.5t4.5 16.5v227q0 44 -21 67.5t-64 23.5q-31 0 -62 -13.5t-58 -37.5v-287z" />
<glyph unicode="&#x2099;" horiz-adv-x="484" d="M140 -42l61 -15l-1 -13h-153l-2 13l40 10q14 4 18 8.5t4 16.5v309l-60 6l-2 11q19 6 43.5 11.5t43.5 8.5l8 -8v-42q29 23 62.5 36.5t67.5 13.5q57 0 86.5 -30.5t29.5 -87.5v-248l61 -15l-1 -13h-153l-2 13l40 10q14 4 18 8.5t4 16.5v227q0 44 -22.5 67.5t-66.5 23.5 q-67 0 -124 -51v-287z" />
<glyph unicode="&#x209a;" horiz-adv-x="447" d="M229 -52q64 0 102 48t38 129q0 77 -31.5 124t-92.5 47q-35 0 -63 -14t-50 -38v-272q18 -11 43 -17.5t54 -6.5zM132 -233l78 -16l-2 -12h-169l-2 12l39 11q14 3 18.5 8t4.5 17v500l-60 6l-2 11q19 6 43.5 11.5t43.5 8.5l8 -8v-39q20 19 50 33t65 14q78 0 118 -54t40 -145 q0 -60 -22 -106t-62 -71.5t-94 -25.5q-26 0 -51.5 5.5t-43.5 13.5v-174z" />
<glyph unicode="&#x209b;" horiz-adv-x="323" d="M149 -78q-31 0 -62.5 7t-38.5 14q-6 7 -6 40q0 15 1 31.5t4 29.5h12q4 -36 9.5 -53.5t16.5 -28.5q14 -14 69 -14q42 0 67 19t25 51q0 30 -20 48.5t-50 32t-60 28t-50 37t-20 59.5q0 44 37 72.5t91 28.5q31 0 58.5 -6.5t34.5 -14.5q5 -5 5 -34q0 -32 -5 -67h-13 q-3 38 -8 56t-16 25q-21 15 -60 15q-40 0 -64.5 -19t-24.5 -54q0 -30 20 -48.5t50 -32.5t60 -28.5t50 -36t20 -56.5q0 -45 -36.5 -73t-95.5 -28z" />
<glyph unicode="&#x209c;" horiz-adv-x="326" d="M308 -14q-20 -28 -51 -46t-63 -18q-45 0 -69 28.5t-24 81.5v256h-72l-2 12l74 13l17 116l16 -1v-116h152v-24h-152v-244q0 -92 66 -92q50 0 98 42z" />
<glyph unicode="&#x20ac;" horiz-adv-x="622" d="M56 232l5 35h94q-4 38 -4 81v17h-81l5 35h78q8 84 40.5 151t84 105.5t118.5 38.5q44 0 80 -20.5t58 -55.5t22 -79q0 -19 -7.5 -31t-21.5 -12q-10 0 -18 3q3 18 3 30q0 60 -34 96t-87 36q-54 0 -95.5 -32.5t-67.5 -91.5t-32 -138h276l-5 -35h-273v-13q0 -45 5 -85h258 l-4 -35h-249q19 -97 68 -152t123 -55q52 0 89 17t71 49l11 -11q-25 -38 -70.5 -64t-108.5 -26q-89 0 -148 62.5t-79 179.5h-104z" />
<glyph unicode="&#x2122;" horiz-adv-x="691" d="M186 486l32 -8l-1 -18h-92l-1 18l22 5q10 3 10 13v166h-21q-26 0 -43 -3q-2 -5 -4 -12t-4 -17l-4 -18h-13q-3 14 -3 31q0 12 1 22.5t4 19.5h206q2 -9 3 -19.5t1 -22.5q0 -9 -0.5 -16.5t-1.5 -14.5h-15l-4 18q-2 10 -4 17t-3 12q-18 3 -44 3h-21v-176zM322 685h67l70 -189 l68 189h71v-17l-32 -9l32 -173l29 -8v-18h-89l-2 18l17 4q16 3 13 18l-28 138l-65 -178h-31l-68 180l-29 -154l31 -8v-18h-84l-1 18l20 5q11 2 12 12l30 164l-33 9z" />
<glyph unicode="&#x2202;" horiz-adv-x="581" d="M281 755q73 0 126 -47t81.5 -130.5t28.5 -194.5q0 -82 -17 -153t-50 -124.5t-80.5 -83.5t-108.5 -30q-57 0 -101.5 27.5t-70 78t-25.5 118.5t33 125t91.5 91.5t137.5 34.5q45 0 79 -8t66 -24q-6 83 -32.5 146t-69.5 98.5t-98 35.5t-100.5 -25.5t-73.5 -57.5l-17 18 q18 23 46.5 47t67.5 41t87 17zM114 215q0 -84 42.5 -134.5t108.5 -50.5q65 0 111.5 43.5t71 116t24.5 157.5v42q-29 17 -65.5 27.5t-80.5 10.5q-67 0 -114.5 -27t-72.5 -75t-25 -110z" />
<glyph unicode="&#x220f;" horiz-adv-x="702" d="M191 -119l-8 -16h-117l-2 20l58 13q17 4 22 10t5 20v718l-85 19l2 20h570l2 -20l-58 -13q-16 -4 -21.5 -10t-5.5 -20v-718l85 -19l-2 -20h-117l-8 16v765h-320v-765z" />
<glyph unicode="&#x2211;" horiz-adv-x="576" d="M45 -135l-5 30l296 352l-282 408l5 30h447q3 -16 4.5 -38t1.5 -42q0 -42 -3 -75h-15q-7 37 -12 58t-8 33.5t-7 22.5q-22 5 -54.5 8t-65.5 3h-243l282 -407l-303 -353h264q33 0 65.5 3t54.5 8q4 11 7 23t8 33t12 58h15q3 -33 3 -75q0 -20 -1.5 -42t-4.5 -38h-461z" />
<glyph unicode="&#x2212;" d="M480 322h-405v35q34 1 87 2t112.5 1.5t113.5 1t89 0.5l8 -8z" />
<glyph unicode="&#x221a;" horiz-adv-x="582" d="M24 495h110l180 -465h2l203 725l39 -10l-210 -745h-66l-178 455h-80v40z" />
<glyph unicode="&#x221e;" horiz-adv-x="870" d="M770 343q0 -48 -19.5 -87t-55 -61.5t-82.5 -22.5q-41 0 -73 18t-56.5 47t-44.5 62q-31 -58 -76.5 -92.5t-110.5 -34.5q-45 0 -79.5 22t-53.5 60.5t-19 86.5q0 49 20 87.5t55.5 61t83.5 22.5q44 0 76 -19t56 -48.5t44 -61.5q30 55 77 92t106 37q46 0 80 -22t53 -60t19 -87 zM612 476q-47 0 -89 -37t-68 -89l2 -4q37 -61 73.5 -99.5t85.5 -38.5q47 0 79.5 34.5t32.5 99.5q0 61 -33 97.5t-83 36.5zM142 344q0 -62 32 -99t84 -37q56 0 96 37t65 87q-2 3 -4 7q-34 61 -71.5 99t-87.5 38q-48 0 -81 -34.5t-33 -97.5z" />
<glyph unicode="&#x222b;" horiz-adv-x="420" d="M258 724q-49 0 -75 -36t-26 -101q0 -41 13.5 -124.5t33.5 -202.5q20 -118 35.5 -204.5t15.5 -140.5q0 -79 -46 -124.5t-115 -45.5q-40 0 -65 18t-25 42q0 11 5 18.5t12 11.5q16 -22 42 -39.5t58 -17.5q45 0 67.5 31.5t22.5 90.5q0 36 -8 93t-20 126t-24 141 q-17 110 -31 191t-14 124q0 87 44.5 133.5t110.5 46.5q38 0 66.5 -15t44.5 -38t16 -46q0 -16 -8 -24.5t-19 -11.5q-29 104 -111 104z" />
<glyph unicode="&#x2248;" d="M404 391q-11 0 -36 5.5t-57.5 14t-64.5 16.5t-56.5 13.5t-34.5 5.5q-9 0 -26 -19t-37 -43l-25 15q11 19 25 39t30 34.5t34 14.5q11 0 35.5 -5.5t56 -13.5t63 -16.5t57 -14t37.5 -5.5q9 0 26 18.5t37 43.5l25 -15q-10 -18 -24 -38.5t-30 -35t-35 -14.5zM404 197 q-11 0 -36 5.5t-57.5 13.5t-64.5 16.5t-56.5 14t-34.5 5.5q-9 0 -26 -19t-37 -43l-25 15q11 19 25 39t30 34.5t34 14.5q11 0 35.5 -5.5t56 -13.5t63 -16.5t57 -14t37.5 -5.5q9 0 26 18.5t37 43.5l25 -15q-10 -18 -24 -38.5t-30 -35t-35 -14.5z" />
<glyph unicode="&#x2260;" d="M135 111l54 115h-114v35q24 1 58 1.5t74 1.5l73 155h-205v35q37 1 98 2t125 2l60 127l11 3l30 -12l-56 -118q81 1 134 1l8 -8l-5 -32h-156l-74 -155q64 1 126 1.5t101 0.5l8 -8l-5 -32h-249l-62 -130z" />
<glyph unicode="&#x2264;" d="M470 611v-46l-341 -164l341 -154v-46q-29 14 -70.5 33t-89 41t-94 43.5t-86.5 40.5t-66 33l-4 16zM475 76h-405v35q34 1 87 2t112.5 1.5t113.5 1t89 0.5l8 -8z" />
<glyph unicode="&#x2265;" d="M80 196v46l341 164l-341 154v46q29 -14 70.5 -33t89 -41t94 -43.5t86.5 -40.5t66 -33l4 -16zM495 76h-405v35q34 1 87 2t112.5 1.5t113.5 1t89 0.5l8 -8z" />
<glyph unicode="&#x25ca;" horiz-adv-x="615" d="M64 330v25l216 335l48 10l223 -345v-27l-219 -328l-47 -10zM302 655l-196 -313l197 -306l8 1l200 305l-200 313h-9z" />
<glyph unicode="&#x25fc;" horiz-adv-x="495" d="M0 495h495v-495h-495v495z" />
<glyph unicode="&#x2c7c;" horiz-adv-x="212" d="M114 449q-13 0 -20.5 10.5t-7.5 24.5q0 15 8.5 27t21.5 12q14 0 20.5 -9.5t6.5 -23.5q0 -15 -7 -28t-22 -13zM29 -258q22 29 37.5 54.5t24.5 60t9 88.5v342l-60 6l-2 11q19 6 43.5 11.5t43.5 8.5l8 -8v-394q0 -49 -10 -81.5t-30 -57.5t-52 -52z" />
<glyph unicode="&#xa7b6;" horiz-adv-x="760" d="M314 0h-268q-3 16 -4.5 38t-1.5 42q0 42 3 75h15l7 -35q6 -29 10.5 -46t9.5 -33q22 -5 54.5 -8t65.5 -3h68q-36 30 -71 75.5t-58 108.5t-23 144q0 99 33.5 175t93.5 119t139 43q74 0 131 -43t89 -119t32 -175q0 -81 -23 -144t-58 -108.5t-71 -75.5h68q33 0 65.5 3t54.5 8 q5 16 9.5 33t10.5 46l7 35h15q3 -33 3 -75q0 -20 -1.5 -42t-4.5 -38h-268l-10 30q43 33 78.5 80t57.5 109t22 139q0 87 -26 155.5t-72.5 107.5t-108.5 39q-66 0 -116 -39t-77.5 -107.5t-27.5 -155.5q0 -77 22 -139t58 -109t78 -80z" />
<glyph unicode="&#xfb01;" horiz-adv-x="551" d="M162 35l95 -19l-2 -16h-206l-2 16l48 13q17 5 22 10.5t5 20.5v400h-73l-2 16l75 14v18q0 76 25 131t68.5 85.5t98.5 30.5q53 0 88 -26t35 -58q0 -27 -25 -27q-5 0 -7 1q-9 34 -34.5 55.5t-67.5 21.5q-61 0 -101 -53.5t-40 -148.5v-30h235q4 3 13 8t17 7l10 -10v-460 l75 -19l-2 -16h-186l-2 16l48 13q17 5 22 10.5t5 20.5v400h-235v-425z" />
<glyph unicode="&#xfb02;" horiz-adv-x="551" d="M162 35l95 -19l-2 -16h-206l-2 16l48 13q17 5 22 10.5t5 20.5v400h-73l-2 16l75 14v43q0 68 23.5 118t65 77t95.5 27q28 0 51 -8.5t40 -21.5v26q8 2 15.5 3t14.5 2l10 -10v-711l75 -19l-2 -16h-186l-2 16l48 13q17 5 22 10.5t5 20.5v400h-235v-425zM162 545v-55h235v185 q-14 21 -39 34t-55 13q-65 0 -103 -47t-38 -130z" />
<glyph unicode="&#xfb06;" horiz-adv-x="775" d="M557 598q0 -39 -18 -67t-34 -41h211v-30h-185v-315q0 -61 19.5 -90.5t61.5 -29.5q30 0 60.5 14.5t58.5 40.5l12 -10q-25 -35 -62 -57.5t-77 -22.5q-55 0 -84 36t-29 104v330h-68l-2 20q50 11 74 45t24 74q0 44 -31.5 71.5t-80.5 27.5q-68 0 -109.5 -44t-41.5 -109 q0 -29 6 -50q32 -11 53 -32.5t21 -47.5q0 -14 -8 -21.5t-19 -7.5q-18 0 -38 22.5t-32 59.5q-8 2 -16.5 3.5t-18.5 1.5q-43 0 -73.5 -24.5t-30.5 -68.5q0 -33 18 -55t46 -38.5t59 -31t59 -32t46 -42.5t18 -63q0 -57 -44.5 -92.5t-116.5 -35.5q-25 0 -51.5 4t-46 10.5 t-25.5 12.5q-4 5 -6 16t-2 34q0 19 1.5 39.5t4.5 38.5h15q5 -46 12 -68.5t20 -36.5q17 -17 84 -17q51 0 81.5 24.5t30.5 66.5q0 33 -17.5 54t-45 37t-59 30t-59 32t-45 44.5t-17.5 65.5q0 37 20.5 66t54 45.5t71.5 16.5q12 0 24 -2q-4 21 -4 43q0 51 23 92.5t65 66.5t97 25 q43 0 76 -17.5t51.5 -47.5t18.5 -67z" />
<glyph horiz-adv-x="443" d="M103 -78l-9 4v556l-59 6l-2 11q19 6 43 11.5t43 8.5l9 -8v-234q20 19 50 33t64 14q77 0 118 -53.5t41 -145.5q0 -91 -47.5 -147t-130.5 -56q-27 0 -52 6t-43 14zM225 -52q67 0 103.5 48t36.5 128q0 78 -33 125t-91 47q-35 0 -63 -14t-50 -38v-272q18 -11 43 -17.5 t54 -6.5z" />
<glyph horiz-adv-x="351" d="M325 226q0 -34 -24 -34q-4 0 -8 0.5t-7 1.5q2 7 2 12.5v10.5q0 37 -23 59t-62 22q-55 0 -90.5 -47.5t-35.5 -121.5q0 -82 36 -129.5t100 -47.5t110 42l10 -8q-20 -29 -54 -46.5t-72 -17.5q-76 0 -120.5 51.5t-44.5 139.5q0 62 21 109.5t58.5 74.5t85.5 27q50 0 84 -28 t34 -70z" />
<glyph horiz-adv-x="449" d="M225 324q24 0 45.5 -3.5t41.5 -10.5v172l-76 6l-2 11q22 7 51.5 11.5t51.5 8.5l8 -8v-499q0 -31 8.5 -46.5t33.5 -15.5q11 0 19.5 1.5t16.5 3.5l4 -7q-10 -10 -25.5 -18t-35.5 -8q-24 0 -37.5 14t-16.5 38q-17 -19 -48.5 -35.5t-70.5 -16.5q-64 0 -107.5 48t-43.5 144 q0 67 26 113.5t68 71.5t89 25zM224 298q-61 0 -104 -46t-43 -138q0 -80 35 -122t84 -42q37 0 67.5 17.5t48.5 37.5v271q-20 11 -43 16.5t-45 5.5z" />
<glyph horiz-adv-x="239" d="M140 -42l78 -15l-2 -13h-169l-2 13l40 10q14 4 18 8.5t4 16.5v310h-60l-2 12l62 12v14q0 89 41 141t108 52q41 0 67 -20.5t26 -46.5q0 -22 -21 -22q-4 0 -5 1q-7 28 -26 45t-50 17q-49 0 -78 -41t-29 -115v-25h112v-24h-112v-330z" />
<glyph horiz-adv-x="385" d="M71 177q0 64 38 105.5t96 41.5q39 0 68 -21q21 13 49 22.5t39 9.5q14 0 14 -19v-8.5t-1 -7.5q-3 -11 -18 -11h-33.5t-32.5 -1q35 -38 35 -98q0 -64 -35 -103.5t-94 -39.5q-16 0 -31 4q-9 -10 -15.5 -21.5t-6.5 -24.5q0 -32 40 -35l73 -7q55 -5 85 -32.5t30 -72.5 q0 -37 -23 -65.5t-63 -45t-92 -16.5q-67 0 -109 29t-42 76t44 79l10 -8q-10 -14 -14 -28t-4 -28q0 -43 32.5 -68.5t90.5 -25.5q60 0 97.5 26.5t37.5 66.5q0 69 -90 78l-70 6q-31 3 -47 20t-16 39q0 34 32 64q-33 15 -53.5 46.5t-20.5 73.5zM290 181q0 56 -23.5 86.5 t-65.5 30.5q-41 0 -68 -30.5t-27 -79.5q0 -50 25.5 -82t65.5 -33q44 -1 68.5 28t24.5 80z" />
<glyph horiz-adv-x="237" d="M121 446q-13 0 -20.5 10t-7.5 24q0 16 8.5 27.5t21.5 11.5q14 0 21 -9.5t7 -23.5q0 -15 -7.5 -27.5t-22.5 -12.5zM140 -42l61 -15l-1 -13h-153l-2 13l40 10q14 4 18 8.5t4 16.5v309l-60 6l-2 11q19 6 43.5 11.5t43.5 8.5l8 -8v-358z" />
<glyph horiz-adv-x="436" d="M345 -233l62 -16l-2 -12h-153l-1 12l39 11q14 3 18 8t4 17v186q-18 -18 -49 -34.5t-70 -16.5q-64 0 -107.5 49t-43.5 147q0 66 26 112t68 70t89 24q25 0 47.5 -4.5t43.5 -12.5l21 17l8 -4v-553zM224 298q-61 0 -104 -44.5t-43 -135.5q0 -83 35 -125.5t84 -42.5 q37 0 67.5 17.5t48.5 37.5v271q-20 11 -43 16.5t-45 5.5z" />
<glyph horiz-adv-x="316" d="M140 -42l78 -15l-2 -13h-169l-2 13l40 10q14 4 18 8.5t4 16.5v309l-60 6l-2 11q19 6 43.5 11.5t43.5 8.5l8 -8v-56q26 31 54 47.5t57 16.5q26 0 40.5 -12t14.5 -27q0 -12 -6 -18.5t-11 -10.5q-2 0 -4 -1q-9 15 -19 25t-30 10q-28 0 -53 -20.5t-43 -43.5v-268z" />
<glyph horiz-adv-x="496" d="M102 54v233l-60 6l-2 11q19 6 43.5 11.5t43.5 8.5l8 -8v-261q0 -104 100 -104q33 0 65 15.5t52 40.5v280l-60 6l-2 11q19 6 43.5 11.5t43.5 8.5l8 -8v-304q0 -34 9.5 -48t32.5 -14q9 0 17 1t19 4l3 -7q-26 -26 -61 -26q-48 0 -53 53q-22 -23 -56 -38t-68 -15 q-61 0 -93.5 34t-32.5 98z" />
<glyph horiz-adv-x="427" d="M348 265l-120 -335h-29l-121 335q-4 14 -10.5 19.5t-18.5 8.5q0 1 -9.5 3.5t-19.5 5l-10 2.5l1 12h158l2 -12l-64 -16l111 -314h1l108 315l-62 15l1 12h150l1 -12l-9 -3t-18.5 -5.5l-9.5 -2.5q-24 -7 -32 -28z" />
<glyph horiz-adv-x="671" d="M350 316l129 -342h1l92 315l-64 15l2 12h149l2 -12l-9.5 -3t-19 -5.5l-9.5 -2.5q-24 -7 -31 -28l-103 -335h-29l-126 334l-123 -334h-29l-104 335q-4 14 -10.5 19.5t-18.5 8.5l-9.5 2.5t-19.5 5.5l-10 3l1 12h158l2 -12l-64 -16l95 -314l123 342h25z" />
<glyph horiz-adv-x="435" d="M19 316h158l2 -12l-64 -16l112 -313l108 314l-62 15l2 12h149l1 -12l-9 -3t-18.5 -5.5l-9.5 -2.5q-24 -7 -31 -28l-121 -337q-33 -91 -71 -144t-98 -53q-24 0 -40.5 12t-16.5 28q0 14 11 22l4 1q7 -10 20.5 -19t33.5 -9q42 0 74.5 45.5t56.5 112.5l-123 341q-5 13 -11 19 t-19 9l-10 2.5t-19.5 5.5l-9.5 3z" />
<glyph horiz-adv-x="368" d="M326 -18q-1 -16 -2 -27.5t-3 -24.5h-274l-5 24l245 338h-199l-25 -90h-12q-3 14 -4 29.5t-1 35.5q1 15 1.5 26t3.5 23h270l5 -24l-247 -338h204l25 90h13q2 -13 3.5 -27.5t1.5 -34.5z" />
<glyph horiz-adv-x="412" d="M202 763q53 0 81.5 -27t28.5 -77q0 -22 -0.5 -61.5t-1.5 -82t-1 -75.5q0 -29 9 -40t31 -11q10 0 18 1t18 4l4 -7q-10 -11 -26.5 -18.5t-34.5 -7.5q-23 0 -37.5 14t-16.5 40q-23 -23 -54 -38.5t-69 -15.5q-47 0 -74 23t-27 63q0 37 29 66.5t80 47t117 19.5q1 28 1.5 49.5 t0.5 30.5q0 37 -22.5 57t-61.5 20q-43 0 -70 -24.5t-27 -50.5q0 -15 5 -26q-8 -5 -17 -5q-27 0 -27 28q0 24 21 48t54 40t69 16zM85 450q0 -31 19 -45.5t52 -14.5t63.5 15t54.5 39q0 28 0.5 56.5t1.5 55.5q-86 -2 -138.5 -31t-52.5 -75z" />
<glyph horiz-adv-x="443" d="M103 361l-9 4v556l-59 6l-2 11q19 6 43 11.5t43 8.5l9 -8v-234q20 19 50 33t64 14q77 0 118 -53.5t41 -145.5q0 -91 -47.5 -147t-130.5 -56q-27 0 -52 6t-43 14zM225 387q67 0 103.5 48t36.5 128q0 78 -33 125t-91 47q-35 0 -63 -14t-50 -38v-272q18 -11 43 -17.5 t54 -6.5z" />
<glyph horiz-adv-x="351" d="M325 665q0 -34 -24 -34q-4 0 -8 0.5t-7 1.5q2 7 2 12.5v10.5q0 37 -23 59t-62 22q-55 0 -90.5 -47.5t-35.5 -121.5q0 -82 36 -129.5t100 -47.5t110 42l10 -8q-20 -29 -54 -46.5t-72 -17.5q-76 0 -120.5 51.5t-44.5 139.5q0 62 21 109.5t58.5 74.5t85.5 27q50 0 84 -28 t34 -70z" />
<glyph horiz-adv-x="447" d="M225 763q24 0 45.5 -3.5t41.5 -10.5v172l-76 6l-2 11q22 7 51.5 11.5t51.5 8.5l8 -8v-499q0 -31 8.5 -46.5t33.5 -15.5q11 0 19.5 1.5t16.5 3.5l4 -7q-10 -10 -25.5 -18t-35.5 -8q-24 0 -37.5 14t-16.5 38q-17 -19 -48.5 -35.5t-70.5 -16.5q-64 0 -107.5 48t-43.5 144 q0 67 26 113.5t68 71.5t89 25zM224 737q-61 0 -104 -46t-43 -138q0 -80 35 -122t84 -42q37 0 67.5 17.5t48.5 37.5v271q-20 11 -43 16.5t-45 5.5z" />
<glyph horiz-adv-x="367" d="M333 425q-20 -29 -54.5 -46.5t-74.5 -17.5q-74 0 -118 51.5t-44 139.5q0 62 21 109.5t58.5 74.5t85.5 27q56 0 90 -37.5t34 -104.5v-21t-1 -22l-8 -8h-245v-1q0 -83 37 -130.5t99 -47.5q64 0 110 42zM203 737q-52 0 -86 -40.5t-39 -104.5l217 4q1 9 1 16.5v11.5 q0 55 -24.5 84t-68.5 29z" />
<glyph horiz-adv-x="239" d="M140 397l78 -15l-2 -13h-169l-2 13l40 10q14 4 18 8.5t4 16.5v310h-60l-2 12l62 12v14q0 89 41 141t108 52q41 0 67 -20.5t26 -46.5q0 -22 -21 -22q-4 0 -5 1q-7 28 -26 45t-50 17q-49 0 -78 -41t-29 -115v-25h112v-24h-112v-330z" />
<glyph horiz-adv-x="385" d="M71 616q0 64 38 105.5t96 41.5q39 0 68 -21q21 13 49 22.5t39 9.5q14 0 14 -19v-8.5t-1 -7.5q-3 -11 -18 -11h-33.5t-32.5 -1q35 -38 35 -98q0 -64 -35 -103.5t-94 -39.5q-16 0 -31 4q-9 -10 -15.5 -21.5t-6.5 -24.5q0 -32 40 -35l73 -7q55 -5 85 -32.5t30 -72.5 q0 -37 -23 -65.5t-63 -45t-92 -16.5q-67 0 -109 29t-42 76t44 79l10 -8q-10 -14 -14 -28t-4 -28q0 -43 32.5 -68.5t90.5 -25.5q60 0 97.5 26.5t37.5 66.5q0 69 -90 78l-70 6q-31 3 -47 20t-16 39q0 34 32 64q-33 15 -53.5 46.5t-20.5 73.5zM290 620q0 56 -23.5 86.5 t-65.5 30.5q-41 0 -68 -30.5t-27 -79.5q0 -50 25.5 -82t65.5 -33q44 -1 68.5 28t24.5 80z" />
<glyph horiz-adv-x="476" d="M132 397l61 -15l-1 -13h-153l-2 13l40 10q14 4 18 8.5t4 16.5v504l-60 6l-2 11q19 6 43.5 11.5t43.5 8.5l8 -8v-237q29 23 62.5 36.5t67.5 13.5q57 0 86.5 -30.5t29.5 -87.5v-248l61 -15l-1 -13h-153l-2 13l40 10q14 4 18 8.5t4 16.5v227q0 44 -22.5 67.5t-66.5 23.5 q-67 0 -124 -51v-287z" />
<glyph horiz-adv-x="212" d="M114 888q-13 0 -20.5 10.5t-7.5 24.5q0 15 8.5 27t21.5 12q14 0 20.5 -9.5t6.5 -23.5q0 -15 -7 -28t-22 -13zM29 181q22 29 37.5 54.5t24.5 60t9 88.5v342l-60 6l-2 11q19 6 43.5 11.5t43.5 8.5l8 -8v-394q0 -49 -10 -81.5t-30 -57.5t-52 -52z" />
<glyph horiz-adv-x="429" d="M132 397l61 -15l-1 -13h-153l-2 13l40 10q14 4 18 8.5t4 16.5v505l-60 5l-2 11q19 7 43.5 12.5t43.5 8.5l8 -8v-364h92l94 140l-62 16l2 12h145l2 -12l-9 -3t-18 -5.5l-9 -2.5q-11 -3 -17.5 -9.5t-15.5 -19.5l-85 -118l88 -143q13 -20 24.5 -32t27.5 -17l28 -8l-2 -16 h-29q-28 0 -43 12t-30 36l-91 146h-92v-166z" />
<glyph horiz-adv-x="229" d="M132 397l61 -15l-1 -13h-153l-2 13l40 10q14 4 18 8.5t4 16.5v505l-60 5l-2 11q19 7 43.5 12.5t43.5 8.5l8 -8v-554z" />
<glyph horiz-adv-x="714" d="M140 397l61 -15l-1 -13h-153l-2 13l40 10q14 4 18 8.5t4 16.5v309l-60 6l-2 11q19 6 43.5 11.5t43.5 8.5l8 -8v-42q28 23 60.5 36.5t65.5 13.5q74 0 100 -55q57 55 130 55q59 0 89.5 -30.5t30.5 -87.5v-248l61 -15l-2 -13h-152l-2 13l39 10q14 4 18 8.5t4 16.5v227 q0 44 -22.5 67.5t-67.5 23.5q-31 0 -62 -12.5t-57 -36.5q5 -18 5 -41v-248l61 -15l-1 -13h-153l-2 13l39 10q14 4 18.5 8.5t4.5 16.5v227q0 44 -21 67.5t-64 23.5q-31 0 -62 -13.5t-58 -37.5v-287z" />
<glyph horiz-adv-x="400" d="M358 564q0 -98 -46 -150t-114 -53q-67 -1 -111.5 52.5t-44.5 151.5q0 65 24 109t61.5 66.5t78.5 22.5t75.5 -22.5t55.5 -66.5t21 -110zM77 563q0 -50 15 -90t42 -63t64 -23q58 0 91.5 43t33.5 130q0 79 -32 128t-86 49q-55 0 -91.5 -42.5t-36.5 -131.5z" />
</font>
</defs>
</svg>
