<?xml version="1.0" standalone="no"?>
<!DOCTYPE svg PUBLIC "-//W3C//DTD SVG 1.1//EN" "http://www.w3.org/Graphics/SVG/1.1/DTD/svg11.dtd" >
<svg xmlns="http://www.w3.org/2000/svg" xmlns:xlink="http://www.w3.org/1999/xlink" version="1.1">
<metadata></metadata>
<defs>
<font id="indivisa_display_serifitalic" horiz-adv-x="561" >
<font-face units-per-em="1000" ascent="800" descent="-200" />
<missing-glyph horiz-adv-x="225" />
<glyph unicode="ff" horiz-adv-x="606" d="M299 494l-4 -18h168l5 21q7 37 26 72q-19 32 -44 54.5t-61 22.5q-37 0 -54.5 -25t-25.5 -61q-5 -42 -10 -66zM202 34q-24 -115 -85.5 -172t-138.5 -57q-48 0 -77.5 20t-29.5 48q0 19 14.5 30.5t35.5 15.5q8 -20 22 -42t38 -22q36 0 57.5 39t40.5 127l90 427h-76l1 8 l82 22l3 14q12 55 46 101t83 74t106 28q52 0 83 -20.5t43 -43.5q29 29 66.5 46.5t80.5 17.5q45 0 73.5 -19t28.5 -49q0 -20 -15 -31.5t-30 -15.5q-17 25 -39 45.5t-46 20.5q-29 0 -43 -24.5t-20 -57.5q-3 -15 -4 -34t-4 -31l-5 -23h120l-6 -28h-120l-87 -414 q-24 -115 -81.5 -172t-125.5 -57q-46 0 -74 20t-28 48q0 19 14 30.5t35 15.5q7 -23 19.5 -43.5t30.5 -20.5q31 0 50.5 39t36.5 127l90 427h-168z" />
<glyph unicode="ffi" horiz-adv-x="841" d="M299 494l-4 -18h168l5 21q7 37 26 70q-18 33 -43.5 56t-61.5 23q-37 0 -54.5 -25t-25.5 -61q-5 -42 -10 -66zM202 34q-24 -115 -85.5 -172t-138.5 -57q-48 0 -77.5 20t-29.5 48q0 19 14.5 30.5t35.5 15.5q8 -20 22 -42t38 -22q36 0 57.5 39t40.5 127l90 427h-76l1 8 l82 22l3 14q12 55 46 101t83 74t106 28q54 0 85 -22t42 -46q33 31 76.5 49.5t95.5 18.5q58 0 98 -22.5t40 -55.5q0 -45 -86 -45q-11 28 -35 51t-56 23q-27 0 -42 -17t-24 -44q-6 -26 -10.5 -44.5t-9.5 -41.5l-5 -23h152q54 0 79.5 -21t25.5 -66q0 -18 -8.5 -55.5t-21 -86.5 t-25.5 -104q-6 -23 -9 -40.5t-3 -27.5q0 -14 9 -14q12 0 37.5 30t51.5 66l7 -5q-15 -38 -39 -75.5t-55 -62t-66 -24.5q-63 0 -63 78q0 15 2.5 34t7.5 41q14 64 27.5 117.5t22.5 90.5t10 53q0 44 -43 44h-105l-87 -414q-24 -115 -81.5 -172t-125.5 -57q-46 0 -74 20t-28 48 q0 19 14 30.5t35 15.5q7 -23 19.5 -43.5t30.5 -20.5q31 0 50.5 39t36.5 127l90 427h-168z" />
<glyph unicode="ffl" horiz-adv-x="843" d="M299 494l-4 -18h168l5 21q7 37 26 71q-18 32 -43.5 55t-61.5 23q-37 0 -54.5 -25t-25.5 -61q-5 -42 -10 -66zM202 34q-24 -115 -85.5 -172t-138.5 -57q-48 0 -77.5 20t-29.5 48q0 19 14.5 30.5t35.5 15.5q8 -20 22 -42t38 -22q36 0 57.5 39t40.5 127l90 427h-76l1 8 l82 22l3 14q12 55 46 101t83 74t106 28q53 0 84.5 -21.5t42.5 -45.5q32 31 72.5 49t86.5 18q68 0 101 -32q50 11 93 16l6 -7l-112 -529q-6 -23 -9 -40.5t-3 -27.5q0 -14 9 -14q12 0 37.5 30t51.5 66l7 -5q-15 -38 -39 -75.5t-55 -62t-66 -24.5q-63 0 -63 78q0 15 2.5 34 t7.5 41l95 447q-16 23 -40 39.5t-51 16.5t-41.5 -17.5t-22.5 -43.5q-7 -18 -11 -42.5t-9 -43.5l-5 -23h109l-6 -28h-109l-87 -414q-24 -115 -85.5 -172t-138.5 -57q-48 0 -77.5 20t-29.5 48q0 19 14.5 30.5t35.5 15.5q8 -20 22 -42t38 -22q36 0 57.5 39t40.5 127l90 427 h-168z" />
<glyph unicode="&#x2f;symbol&#x31;&#x2f;" horiz-adv-x="5534" d="M1865 412q-25 0 -40.5 14.5t-15.5 37.5q0 24 15.5 45t39 34.5t48.5 13.5q24 0 39 -13.5t15 -37.5t-14.5 -45.5t-37.5 -35t-49 -13.5zM1284 412q-26 0 -41.5 14.5t-15.5 37.5q0 24 15.5 45t39.5 34.5t49 13.5q24 0 38.5 -13.5t14.5 -37.5t-14.5 -45.5t-37 -35t-48.5 -13.5 zM959 0q0 21 2.5 46.5t8.5 61.5q-16 -49 -51 -82t-79 -33q-41 0 -63 30t-22 82q0 45 15.5 91t46.5 85.5t76.5 63.5t104.5 24h12.5t12.5 -1l16 73l6 102l136 7q0 -40 -9.5 -95t-23 -116.5t-27 -123.5t-23 -117.5t-9.5 -97.5h-130zM100 0l78 364q8 38 13.5 72.5t7.5 63.5 l128 7l11 -15l-104 -492h-134zM3503 492l-57 -492h-131l20 175q3 30 9 69t12.5 78t11.5 68h-3q-16 -53 -37 -107.5t-44 -107.5l-76 -175h-149l-2 175q-1 56 1 109t8 106h-2q-15 -61 -30 -115.5t-29 -99.5l-53 -175h-109l154 500l184 6l1 -137q1 -50 -2.5 -121.5 t-12.5 -137.5h2q20 65 36 111t30.5 81t27.5 67l56 131l169 7zM5316 300q-15 -74 -23 -110.5t-11 -51t-3 -21.5q0 -34 36 -34q13 0 28 5t31 13l-9 -79q-20 -11 -50 -20t-64 -9q-50 0 -77.5 25t-27.5 75q0 11 1.5 23.5t6 33.5t12.5 57.5t20 95.5l-47 1l9 44l54 14l53 95l81 6 l13 -15l-20 -86h99l6 -14l-17 -51zM336 0q0 28 4 62t13 82t24 116l6 102l137 7q0 -18 -2 -41t-5 -48h2q29 49 65.5 69t68.5 20q35 0 53.5 -19.5t18.5 -51.5q0 -23 -8 -62.5t-18 -84.5q-7 -33 -11 -57t-5.5 -45.5t-1.5 -48.5h-131q0 38 4.5 69.5t14.5 80.5q7 35 11 55.5 t4 31.5q0 24 -17 24t-34 -22.5t-30.5 -60.5t-22 -84t-9.5 -94h-131zM1170 0q0 39 7 87.5t20 105.5l14 67l6 102l137 7q0 -36 -8 -81.5t-19 -95.5t-19 -99t-8 -93h-130zM1399 362l140 7q6 -59 4.5 -137.5t-9.5 -151.5h2q23 45 42 95t32 99t17 90q17 4 28.5 4.5t21.5 0.5 q28 0 46.5 -7t18.5 -35q0 -22 -13.5 -60.5t-36.5 -85t-53.5 -94t-63.5 -87.5h-149q-2 111 -9.5 207.5t-17.5 154.5zM1752 0q0 39 7 87.5t19 105.5l15 67l6 102l137 7q0 -36 -8 -81.5t-19 -95.5t-19 -99t-8 -93h-130zM4716 0q0 28 4 62t13 82t24 116l6 102l137 7 q0 -18 -2.5 -41t-4.5 -48h2q29 49 65 69t69 20q35 0 53.5 -19.5t18.5 -51.5q0 -23 -8 -62.5t-18 -84.5q-7 -33 -11 -57t-6 -45.5t-2 -48.5h-130q0 38 4.5 69.5t14.5 80.5q7 35 11 55.5t4 31.5q0 24 -17 24q-18 0 -34.5 -22.5t-30.5 -60.5t-22.5 -84t-9.5 -94h-130zM2245 256 q-25 14 -51.5 22t-45.5 8q-17 0 -29.5 -7t-12.5 -19q0 -13 13 -22t32 -17.5t38 -20.5t32 -30.5t13 -47.5q0 -39 -25 -68t-66.5 -45t-89.5 -16q-33 0 -66.5 7.5t-51.5 20.5l27 93q27 -18 58.5 -28t52.5 -10q20 0 30 8t10 18q0 13 -13 22t-32 18t-38 21t-32 30t-13 46 q0 39 25.5 68t67.5 45.5t90 16.5q20 0 48.5 -3.5t55.5 -14.5zM2525 369q32 0 73.5 -7.5t72.5 -24.5l-29 -128q-20 -94 -25.5 -140.5t-5.5 -68.5h-130q0 20 2.5 45t9.5 67q-15 -50 -50.5 -84.5t-81.5 -34.5q-41 0 -62.5 30t-21.5 83q0 44 15.5 90.5t46.5 85.5t77.5 63 t108.5 24zM4653 51q-32 -28 -74 -43t-85 -15q-62 0 -102 33.5t-40 103.5q0 46 17.5 88.5t49.5 76.5t75 54t94 20q53 0 86 -23t33 -65q0 -56 -59 -95.5t-162 -44.5v-1q0 -29 15 -46.5t48 -17.5q22 0 45 7.5t45 20.5zM3936 0q0 28 4 62t13.5 82t24.5 116l5 102l137 7 q0 -18 -2 -41t-5 -48h2q29 49 65.5 69t68.5 20q35 0 53.5 -19.5t18.5 -51.5q0 -23 -8 -62.5t-18 -84.5q-7 -33 -11 -57t-5.5 -45.5t-1.5 -48.5h-131q0 38 4.5 69.5t14.5 80.5q8 35 11.5 55.5t3.5 31.5q0 24 -17 24t-34 -22.5t-30.5 -60.5t-22 -84t-9.5 -94h-131zM3768 369 q32 0 73 -7.5t72 -24.5l-28 -128q-20 -94 -25.5 -140.5t-5.5 -68.5h-130q0 20 2.5 45t9.5 67q-15 -50 -50.5 -84.5t-81.5 -34.5q-41 0 -63 30t-22 83q0 44 15.5 90.5t47 85.5t78 63t108.5 24zM4490 177q46 10 72.5 33.5t26.5 59.5q0 17 -5.5 24t-16.5 7q-20 0 -36 -20 t-26 -48.5t-15 -55.5zM3677 101q17 0 33 21t30 54t22 69q2 11 4.5 22t4.5 22q-16 8 -27 8q-18 0 -34.5 -16t-29 -40.5t-20 -51.5t-7.5 -48q0 -40 24 -40zM913 101q16 0 31 19.5t28.5 50t22.5 64.5l4 20l4 20l3 14q-14 8 -27 8q-18 0 -34 -16t-28.5 -40.5t-20 -51.5t-7.5 -48 q0 -40 24 -40zM2435 101q16 0 32.5 21t30 54t21.5 69q2 11 4.5 22t4.5 22q-14 8 -27 8q-18 0 -34 -16t-29 -40.5t-20 -51.5t-7 -48q0 -40 24 -40z" />
<glyph unicode="&#x2f;symbol&#x32;&#x2f;" horiz-adv-x="932" d="M494 570l52 -90l-137 -240h-103l137 240l-52 90h103zM357 570l52 -90l-138 -240h-103l138 240l-52 90h103zM752 120h-103l-137 240l51 90l137 -240h103zM683 0h-103l-137 240l51 90l138 -240h103zM100 120l51 90h275l51 -90h-274l-52 -90zM168 0l52 90h274l52 -90h-275 l-51 -90zM789 88q18 0 30.5 -13t12.5 -31t-12.5 -31t-30.5 -13t-30.5 13t-12.5 31t12.5 31t30.5 13zM829 44q0 17 -11.5 28.5t-28.5 11.5q-16 0 -28 -11.5t-12 -28.5q0 -16 12 -28t28 -12q17 0 28.5 12t11.5 28zM771 69h18h5t6 -2q5 -4 5 -11q0 -5 -3 -8q-1 -2 -2.5 -2.5 t-3.5 -1.5q7 -1 8 -9q0 -8 3 -16h-8q-1 2 -1 6t-1 7q-1 5 -2.5 7.5t-8.5 2.5h-8v-23h-7v50zM778 47h10h3.5t3.5 1q3 3 3 7q0 6 -4 7t-6 1h-10v-16z" />
<glyph unicode="&#x2f;symbol&#x33;&#x2f;" horiz-adv-x="957" d="M505 638l68 -270h270l-203 -135l136 -270l-271 135l-270 -270l135 405l-270 203l338 -68zM814 87q18 0 30.5 -12.5t12.5 -31.5q0 -18 -12.5 -30.5t-30.5 -12.5t-30.5 12.5t-12.5 30.5q0 19 12.5 31.5t30.5 12.5zM854 43q0 17 -11.5 29t-28.5 12q-16 0 -28 -12t-12 -29 q0 -16 12 -28t28 -12q17 0 28.5 12t11.5 28zM796 68h18h5.5t5.5 -2q6 -3 6 -10q0 -5 -4 -9q-3 -3 -6 -3q7 -3 8 -10q1 -4 1.5 -7.5t1.5 -8.5h-7q-1 3 -1.5 7t-1.5 7q0 9 -10 9h-9v-23h-7v50zM803 47h10h3.5t3.5 1l2 2t1 4q0 7 -4 8t-6 1h-10v-16z" />
<glyph unicode="&#x2f;symbol&#x34;&#x2f;" horiz-adv-x="2607" d="M1684 406q0 32 -2.5 63t-8.5 65l126 14l15 -15v-533h-130v406zM1889 406q0 62 -10 128l126 14l14 -15v-533h-130v406zM427 101v-101h-320v362q0 38 -1.5 72t-5.5 63l126 7l14 -14v-396zM925 21l7 109q31 -18 72 -27t72 -9q50 0 50 36q0 19 -20.5 34t-50 31t-59.5 37 t-50.5 51t-20.5 74q0 48 26 80.5t70 49.5t97 17q81 0 127 -18l-14 -111q-28 14 -55 21.5t-56 7.5q-28 0 -43 -11t-15 -29q0 -22 20.5 -38.5t50.5 -32.5t59.5 -36.5t50 -49.5t20.5 -73q0 -67 -54 -104t-139 -37q-40 0 -82.5 8t-62.5 20zM795 0l-106 -7q-7 11 -12 24t-9 25h-4 q-15 -22 -42.5 -35.5t-61.5 -13.5q-41 0 -69 22t-28 67q0 61 53.5 88.5t137.5 29.5v20q0 54 -58 54q-55 0 -108 -29l-8 97q27 10 68.5 18t81.5 8q154 0 154 -135q0 -38 -2 -69.5t-2 -69.5q0 -24 4.5 -50.5t10.5 -43.5zM1626 0l-107 -7q-7 11 -12 24t-9 25h-3 q-15 -22 -42.5 -35.5t-62.5 -13.5q-40 0 -68 22t-28 67q0 61 53 88.5t138 29.5v20q0 54 -58 54q-54 0 -109 -29l-7 97q27 10 68.5 18t81.5 8q153 0 153 -135q0 -38 -1.5 -69.5t-1.5 -69.5q0 -24 4.5 -50.5t10.5 -43.5zM2405 213v-17t-1 -19l-11 -11h-191q8 -45 33.5 -64 t64.5 -19q24 0 45.5 6t38.5 15l7 -81q-17 -11 -49.5 -20.5t-77.5 -9.5q-88 0 -143 47t-55 135q0 58 24 101t66 67.5t94 24.5q73 0 114 -43.5t41 -111.5zM2199 207l78 4q1 5 1.5 11t0.5 15q0 23 -7.5 41t-26.5 18q-23 0 -34 -25.5t-12 -63.5zM654 74v88q-27 -3 -46 -17 t-19 -40q0 -18 10.5 -29t26.5 -11t28 9zM1485 74v88q-27 -3 -46 -17t-19 -40q0 -18 10 -29t27 -11q16 0 28 9zM2464 85q18 0 30.5 -13t12.5 -31t-12.5 -31t-30.5 -13t-31 13t-13 31t13 31t31 13zM2504 41q0 17 -11.5 28.5t-28.5 11.5q-16 0 -28 -11.5t-12 -28.5 q0 -16 12 -28t28 -12q17 0 28.5 12t11.5 28zM2446 66h18q2 0 5 -0.5t6 -2.5q5 -2 5 -10q0 -4 -3 -9q-3 -3 -6 -3q7 -1 8 -10q0 -7 3 -15h-8q-1 2 -1 6t-1 7q-1 5 -2.5 7t-8.5 2h-8v-22h-7v50zM2453 44h10h3.5t3.5 1q3 3 3 7q0 6 -4 7t-6 1h-10v-16z" />
<glyph unicode="&#x2f;symbol&#x35;&#x2f;" horiz-adv-x="705" d="M232 -6l-132 136l124 234l129 -136zM474 -6l-121 234l128 136l124 -234z" />
<glyph unicode=" "  horiz-adv-x="225" />
<glyph unicode="&#x09;" horiz-adv-x="225" />
<glyph unicode="&#xa0;" horiz-adv-x="225" />
<glyph unicode="!" horiz-adv-x="308" d="M221 681l5 7q25 3 60.5 5t55.5 2q31 0 30 -23q-1 -16 -9 -41t-19 -56l-127 -381h-44zM241 69q0 -34 -26.5 -56.5t-62.5 -22.5q-28 0 -44.5 13.5t-16.5 37.5q0 33 27.5 55.5t61.5 22.5q28 0 44.5 -13.5t16.5 -36.5z" />
<glyph unicode="&#x22;" horiz-adv-x="367" d="M199 691l4 4q51 0 83 -13l7 -11l-95 -234l-23 3l12 114zM363 691l4 4q52 0 83 -13l7 -11l-94 -234l-23 3l11 114z" />
<glyph unicode="#" horiz-adv-x="675" d="M643 179h-143l-59 -189l-56 10l-6 7l54 172h-145l-60 -189l-56 10l-6 7l54 172h-119l-6 6l12 51h132l56 179h-131l-6 6l12 51h143l60 188l56 -10l6 -6l-55 -172h146l59 188l56 -10l6 -6l-54 -172h119l6 -6l-12 -51h-131l-57 -179h131l6 -6zM306 236h145l56 179h-145z" />
<glyph unicode="$" horiz-adv-x="519" d="M252 -120l-34 -2l-6 5l23 107q-49 2 -91 11t-63 26q-15 12 -15 30q0 19 10.5 48t25.5 57.5t28 46.5l9 -1l24 -168q15 -8 37.5 -13.5t50.5 -5.5q58 0 95.5 32t37.5 86q0 34 -16.5 61t-42 49.5t-54.5 45t-54.5 47t-41.5 55t-16 71.5q0 59 32 101.5t86 65.5t119 25l24 110 l33 3l6 -6l-23 -108q43 -2 78 -11.5t56 -25.5q11 -10 11 -22q0 -18 -12 -47.5t-28 -58.5t-29 -44l-9 1l-19 167q-27 11 -69 11q-55 0 -95 -32t-40 -86q0 -34 16 -61t42 -49.5t54.5 -45t54 -48t42 -57.5t15.5 -74q1 -56 -29.5 -96t-82 -63t-117.5 -27z" />
<glyph unicode="%" horiz-adv-x="954" d="M485 521q0 -62 -26 -115t-70.5 -85t-101.5 -32q-63 -1 -98 38.5t-35 100.5q0 62 25.5 115t69.5 85.5t100 32.5q64 0 100 -38.5t36 -101.5zM788 660h69l-541 -670h-70zM244 385q0 -35 11 -54.5t34 -19.5q22 0 41 23t32.5 61t21 82.5t7.5 87.5q0 34 -11 54t-34 20 q-22 0 -41 -23t-32.5 -61t-21 -82.5t-7.5 -87.5zM940 228q0 -62 -26 -115t-70.5 -85t-101.5 -32q-63 -1 -98 38.5t-35 100.5q0 62 25.5 115t69.5 85.5t100 32.5q64 0 100 -38.5t36 -101.5zM699 92q0 -35 11 -54.5t34 -19.5q22 0 41 23t32.5 61t21 82.5t7.5 87.5q0 34 -11 54 t-34 20q-22 0 -41 -23t-32.5 -61t-21 -82.5t-7.5 -87.5z" />
<glyph unicode="&#x26;" horiz-adv-x="799" d="M470 660q66 0 106.5 -29t40.5 -74q0 -40 -26.5 -66.5t-68.5 -42.5q76 0 152.5 12t129.5 29l8 -2q7 -7 12.5 -19.5t5.5 -24.5q0 -24 -17 -36.5t-56 -13.5q-38 0 -85 6q-5 -45 -17 -89.5t-31 -86.5q20 -9 39 -18t37 -17q31 -16 49 -39t18 -61q0 -41 -21 -69.5t-53 -28.5 q-28 0 -47 15l-2 11q31 40 43 92q3 9 4.5 20.5t3.5 20.5q-31 -3 -70 1q-18 3 -36 7q-47 -72 -119 -119.5t-170 -47.5q-92 0 -147.5 42t-56.5 113q1 70 52 118t131 71q-40 58 -40 126q0 59 31 104t83.5 70.5t116.5 25.5zM363 492q0 -66 33 -112.5t85.5 -80.5t109.5 -61 q39 76 48 165q-33 4 -69.5 10.5t-76.5 14.5l-10 17q19 19 35 49.5t16 64.5q0 31 -16.5 50t-48.5 19q-45 0 -75.5 -39t-30.5 -97zM222 179q0 -52 35 -83t92 -31q61 0 111 28.5t87 74.5q-82 23 -147 60t-105 85q-32 -23 -52.5 -57t-20.5 -77z" />
<glyph unicode="'" horiz-adv-x="202" d="M199 691l4 4q51 0 83 -13l7 -11l-95 -234l-23 3l12 114z" />
<glyph unicode="(" horiz-adv-x="361" d="M308 -96l-13 -14q-74 45 -122 121.5t-48 183.5q0 106 42 201t118 172t179 127l10 -15q-108 -97 -169 -229t-61 -284q0 -76 17.5 -139.5t46.5 -123.5z" />
<glyph unicode=")" horiz-adv-x="361" d="M178 682l13 13q73 -45 121 -121.5t48 -182.5q0 -107 -42 -202t-118 -171.5t-179 -127.5l-9 16q108 96 168.5 228.5t60.5 283.5q0 76 -17.5 140t-45.5 124z" />
<glyph unicode="*" horiz-adv-x="423" d="M333 465q-1 -15 -7 -25t-22 -10q-21 0 -21 20q0 16 11.5 37t22.5 58q-41 -26 -62 -43t-36 -17q-9 0 -14.5 6.5t-5.5 16.5q0 17 21 25q15 6 37.5 12.5t51.5 17.5q-23 11 -42 17t-27 12q-16 8 -16 22q0 12 8 19.5t19 7.5q15 0 32 -19t42 -42q4 29 3.5 48.5t1.5 34.5 q1 32 28 32q21 0 21 -19q0 -15 -11 -36.5t-22 -59.5q43 27 62.5 44t34.5 17q10 0 15.5 -7t5.5 -16q0 -17 -18 -24q-16 -7 -39 -13.5t-54 -19.5q22 -10 40.5 -16t30.5 -12q15 -8 15 -20q0 -11 -8 -20t-19 -9q-15 0 -31 17.5t-43 43.5q-4 -28 -4 -47t-1 -33z" />
<glyph unicode="+" horiz-adv-x="529" d="M525 284h-157l-34 -163h-88l34 163h-162l16 78q29 0 72 1t91 1l35 166h89l-35 -165q46 1 87.5 1h70.5l4 -6z" />
<glyph unicode="," horiz-adv-x="220" d="M186 57q0 -34 -22 -73.5t-59.5 -77t-84.5 -65.5l-8 9q28 30 52 67t37 74q-38 8 -38 48q0 30 22 51t50 21q22 0 36.5 -14.5t14.5 -39.5z" />
<glyph unicode="-" horiz-adv-x="373" d="M90 250l7 35h300l-7 -35h-300z" />
<glyph unicode="." horiz-adv-x="208" d="M105 -10q-24 0 -37.5 13.5t-13.5 35.5q0 30 22 51t51 21q22 0 35.5 -12.5t13.5 -33.5q0 -30 -21 -52.5t-50 -22.5z" />
<glyph unicode="/" horiz-adv-x="374" d="M127 -10l-51 24l312 679l5 2l51 -24l-312 -679z" />
<glyph unicode="0" horiz-adv-x="584" d="M622 424q0 -84 -24.5 -162t-68.5 -139t-102 -97t-125 -36q-98 0 -150 63.5t-52 166.5q0 86 25 165.5t69.5 141t103.5 97.5t127 36q96 0 146.5 -64t50.5 -172zM226 160q0 -65 19.5 -102t57.5 -37q31 0 60 32t53 85t42 116t28 125.5t10 114.5q0 62 -17 98.5t-55 36.5 q-33 0 -62.5 -30.5t-54.5 -81.5t-43 -113t-28 -125.5t-10 -118.5z" />
<glyph unicode="1" horiz-adv-x="369" d="M335 0h-290v13l68 12q14 3 19.5 10t8.5 21l117 540l-96 -5l1 10l223 59l7 -7l-130 -597l-5 -22l80 -21z" />
<glyph unicode="2" horiz-adv-x="488" d="M163 15q-62 0 -111 -25l-15 60q125 91 203 163.5t115 133.5t37 120q0 46 -26 73t-72 27q-48 0 -89.5 -29.5t-71.5 -82.5l-8 5q29 90 91.5 145t149.5 55q73 0 119 -44t46 -116q0 -49 -25.5 -95.5t-70 -90t-100 -85.5t-115.5 -82q-38 -26 -76 -50q20 5 39.5 7t36.5 2 q33 0 69.5 -4.5t69 -8.5t54.5 -4q20 0 33 20.5t28 54.5l8 -3q-6 -33 -13 -61.5t-14 -50.5q-10 -29 -23.5 -44t-33.5 -15q-30 0 -69.5 6t-82 12.5t-83.5 6.5z" />
<glyph unicode="3" horiz-adv-x="448" d="M453 206q0 -62 -51.5 -109.5t-146 -75t-225.5 -31.5l-2 17q135 22 213 73.5t78 129.5q0 48 -33 72t-84 24q-12 0 -22 -1l-20 -2l-4 29q102 16 157.5 60.5t55.5 102.5q0 35 -21.5 56t-61.5 21q-45 0 -84 -26.5t-66 -72.5l-8 5q18 55 53 96t81 63.5t97 22.5q66 0 104.5 -35 t38.5 -90q0 -51 -30.5 -91t-83 -67.5t-119.5 -39.5q79 -3 131.5 -38t52.5 -93z" />
<glyph unicode="4" horiz-adv-x="537" d="M65 210l417 450l71 -12l-90 -420l93 2l-16 -72l-91 1l-34 -159h-120l34 160l-262 4zM411 545l-288 -325l220 5z" />
<glyph unicode="5" horiz-adv-x="464" d="M470 233q0 -68 -50 -122.5t-143 -86.5t-222 -34l-1 17q84 12 147.5 40t99.5 69t36 93q0 46 -32 70t-90 24q-41 0 -74 -10l-13 13l78 348q62 -3 133 -5t131 -2q24 0 37.5 12t28.5 42l9 -3q-11 -50 -21 -83.5t-27 -50.5t-48 -17q-52 0 -112.5 4.5t-115.5 10.5l-43 -194 q23 5 49 7.5t51 2.5q90 0 141 -39t51 -106z" />
<glyph unicode="6" horiz-adv-x="547" d="M100 200q0 93 37.5 173.5t105 142.5t158.5 99.5t198 44.5l1 -19q-87 -23 -161 -74t-127 -124.5t-77 -162.5q28 58 77.5 91t108.5 33q64 0 103.5 -41t39.5 -116q0 -54 -21 -100.5t-56.5 -81.5t-82.5 -55t-99 -20q-97 0 -151 57t-54 153zM438 238q0 56 -18 88.5t-53 32.5 q-33 0 -65.5 -32t-54 -84t-21.5 -114q0 -50 19.5 -79.5t59.5 -29.5q37 0 66.5 30.5t47.5 80.5t19 107z" />
<glyph unicode="7" horiz-adv-x="438" d="M254 22q-19 -32 -57 -32q-26 0 -47 16t-31 38q94 131 177 247.5t153 232.5q-42 9 -87 16.5t-85 12.5t-68 5q-34 0 -50.5 -16.5t-32.5 -56.5l-9 2q13 78 36.5 125.5t77.5 47.5q45 0 88 -17.5t80 -43.5t65 -50l-2 -4q17 29 33 57.5t31 57.5q21 -3 21 -24q0 -9 -16 -48 t-42.5 -97.5t-58.5 -125.5t-65 -133.5t-62 -121.5t-49 -88z" />
<glyph unicode="8" horiz-adv-x="527" d="M521 178q0 -57 -33 -99t-88 -65.5t-123 -23.5q-58 0 -104.5 17t-73.5 48.5t-27 75.5q-1 67 55 112.5t146 67.5q-41 35 -72.5 76.5t-31.5 98.5q0 53 30 92t80 60.5t109 21.5q85 0 134.5 -38.5t49.5 -95.5q0 -62 -48 -104t-122 -67q29 -24 56.5 -50.5t45 -57.5t17.5 -69z M281 527q0 -49 30 -85t70 -70q91 72 91 160q0 43 -22.5 70.5t-64.5 27.5q-45 0 -74.5 -30t-29.5 -73zM187 125q0 -51 30.5 -78t71.5 -27q50 0 83.5 32.5t32.5 84.5q1 31 -15.5 57.5t-42 50.5t-54.5 49q-54 -40 -80 -82.5t-26 -86.5z" />
<glyph unicode="9" horiz-adv-x="547" d="M585 451q0 -94 -37.5 -174.5t-105 -142.5t-158.5 -99.5t-197 -44.5l-1 19q86 23 160 74t127 124.5t77 162.5q-28 -58 -77.5 -90.5t-108.5 -32.5q-64 0 -103 41t-39 116q0 53 20.5 99.5t56 81.5t82.5 55t99 20q97 0 151 -56.5t54 -152.5zM248 412q-1 -56 17 -88.5 t54 -32.5q33 0 65 32t53.5 84t21.5 114q0 50 -19.5 79.5t-58.5 29.5q-38 0 -67.5 -30.5t-47 -80.5t-18.5 -107z" />
<glyph unicode=":" horiz-adv-x="209" d="M180 338q-24 0 -38 13.5t-14 35.5q0 30 22.5 51t50.5 21q23 0 36.5 -12.5t13.5 -33.5q0 -30 -21.5 -52.5t-49.5 -22.5zM106 -10q-24 0 -37.5 13.5t-13.5 35.5q0 30 22 51t51 21q22 0 35.5 -12.5t13.5 -33.5q0 -30 -21 -52.5t-50 -22.5z" />
<glyph unicode=";" horiz-adv-x="220" d="M188 338q-24 0 -37.5 13.5t-13.5 35.5q0 30 22 51t51 21q22 0 35.5 -12.5t13.5 -33.5q0 -30 -21 -52.5t-50 -22.5zM186 57q0 -34 -22 -73.5t-59.5 -77t-84.5 -65.5l-8 9q28 30 52 67t37 74q-38 8 -38 48q0 30 22 51t50 21q22 0 36.5 -14.5t14.5 -39.5z" />
<glyph unicode="&#x3c;" horiz-adv-x="537" d="M582 542l-22 -98l-325 -122l274 -120l-20 -91q-33 13 -81.5 36.5t-102.5 49.5t-102 50.5t-78 41.5l-1 6l13 65z" />
<glyph unicode="=" horiz-adv-x="540" d="M552 388h-407l17 78q34 1 88.5 1.5t115 1t115 1t90.5 0.5l5 -6zM508 180h-407l17 78q34 1 88.5 1.5t115 1t115 1t90.5 0.5l5 -6z" />
<glyph unicode="&#x3e;" horiz-adv-x="537" d="M94 109l21 99l325 121l-273 121l20 91q32 -14 80.5 -37.5t102.5 -49.5t102 -50.5t79 -41.5l1 -5l-13 -66z" />
<glyph unicode="?" horiz-adv-x="496" d="M391 695q88 0 145 -39t57 -111q0 -44 -19.5 -78t-49.5 -61t-64 -49t-64 -41.5t-49 -38.5t-19 -40q0 -25 25 -37l-3 -8q-12 -2 -22 -2q-33 2 -53.5 18t-20.5 43q0 32 21.5 60t53 55.5t63.5 58t53.5 67t21.5 82.5q0 41 -24.5 65.5t-65.5 24.5t-71 -25t-46.5 -64t-16.5 -82 q0 -9 0.5 -17t1.5 -16q-10 -5 -22 -7.5t-28 -2.5q-68 0 -68 57q0 36 20.5 69.5t56.5 60t84 42.5t103 16zM342 69q0 -34 -26.5 -56.5t-61.5 -22.5q-29 0 -45.5 13.5t-16.5 37.5q0 33 27.5 55.5t61.5 22.5q28 0 44.5 -13.5t16.5 -36.5z" />
<glyph unicode="@" horiz-adv-x="1008" d="M632 648q-71 0 -142 -22.5t-135 -65t-114 -102t-79 -134.5t-29 -162q0 -103 44 -176t121 -112t177 -39q96 0 168 27.5t126 60.5l12 -20q-55 -44 -134 -71t-178 -27q-108 0 -192 42.5t-132 121t-48 185.5q-1 95 29.5 175.5t84 145t122.5 109.5t147 69.5t158 24.5 q84 0 154 -26.5t120 -73t77.5 -109.5t27.5 -137q0 -73 -21.5 -135t-59.5 -108.5t-87 -72.5t-103 -26q-83 0 -115 54.5t-18 137.5l11 67h-2q-19 -46 -43 -92t-51.5 -83.5t-57 -60.5t-58.5 -23q-46 0 -71.5 38t-25.5 100q0 73 23.5 141t66.5 122.5t102.5 86.5t132.5 32 q46 0 88.5 -9.5t73.5 -22.5l-18 -54l-47 -204q-20 -85 -6 -131.5t68 -46.5q30 0 62 20.5t59 59t44 92t17 120.5q0 91 -44 161.5t-122.5 111.5t-182.5 41zM465 59q15 -1 35.5 22t43 61.5t45 86.5t42 98.5t32.5 97.5l13 43q-10 5 -22.5 8.5t-27.5 3.5q-29 0 -57 -22 t-52.5 -59.5t-43 -83t-29 -94t-10.5 -91.5q0 -31 7 -51t24 -20z" />
<glyph unicode="A" horiz-adv-x="691" d="M450 652h64l94 -581q3 -22 11 -31.5t26 -15.5l35 -11l-3 -13h-279l1 13l81 22l-23 161l-233 -1l-92 -162l76 -20l-3 -13h-189l1 13l43 11q23 6 33.5 17t24.5 33zM243 228l210 -2l-42 296z" />
<glyph unicode="B" horiz-adv-x="624" d="M419 619h-52l-5 -24l-52 -246h57q47 0 84 22t58.5 60t21.5 84q0 50 -29 77t-83 27zM361 318h-58l-56 -262l-5 -24h62q87 0 140.5 46.5t53.5 126.5q0 50 -33.5 81.5t-103.5 31.5zM312 0h-272l-1 13l59 13q12 3 17 10.5t7 19.5l115 539l5 22l-70 20l3 13h259 q105 0 162 -35.5t57 -101.5q0 -65 -47 -111.5t-124 -64.5q65 -13 106.5 -51.5t41.5 -91.5q0 -90 -81 -142t-237 -52z" />
<glyph unicode="C" horiz-adv-x="602" d="M509 660q104 0 158 -33q-3 -28 -12 -63.5t-20.5 -70.5t-24.5 -60h-9l-34 186q-11 4 -24 6.5t-29 2.5q-58 0 -108 -29.5t-88 -81.5t-59 -118.5t-20 -140.5q0 -112 48.5 -174t123.5 -62q29 0 53 8l113 189h9q1 -34 -5 -91q-2 -28 -8 -57.5t-14 -51.5q-65 -29 -169 -29 q-84 0 -148.5 31t-100.5 91t-36 147q0 84 29.5 157t83.5 128t128 85.5t163 30.5z" />
<glyph unicode="D" horiz-adv-x="680" d="M362 595l-115 -539l-5 -25h62q71 0 124.5 35.5t90.5 93.5t55.5 126.5t18.5 134.5q0 198 -176 198h-50zM303 0h-263l-1 13l59 13q12 3 17 10.5t7 19.5l115 539l5 22l-70 20l3 13h254q136 0 211.5 -62t75.5 -181q0 -82 -28 -155.5t-81.5 -130t-130 -89t-173.5 -32.5z" />
<glyph unicode="E" horiz-adv-x="555" d="M513 0h-473v13l59 13q11 3 16.5 10.5t7.5 19.5l114 539l5 22l-70 20l3 13h466q-1 -28 -8.5 -64t-18.5 -70.5t-24 -59.5h-8l-39 162q-21 0 -43 0.5t-43 0.5h-90l-5 -24l-54 -252l189 8l-10 -48l-185 9l-54 -256l-5 -24l96 -1q21 0 44 0.5t45 0.5l108 166h9q1 -29 -2 -60 q-3 -37 -11.5 -73.5t-18.5 -64.5z" />
<glyph unicode="F" horiz-adv-x="527" d="M247 55h-7l-2 -23l99 -20l-2 -12h-296l-1 12l53 11q14 4 18.5 11t5.5 21h7l115 540l5 22l-70 20l3 13h463q-3 -45 -17 -101t-36 -102h-9l-35 168q-21 1 -42.5 1h-41.5h-90l-5 -21l-57 -270l193 8l-10 -47l-190 8z" />
<glyph unicode="G" horiz-adv-x="661" d="M572 19q-40 -15 -84 -22t-96 -7q-85 0 -150 30.5t-101 90.5t-36 148q0 85 30.5 158.5t85.5 128t129 84.5t161 30q53 0 98.5 -9t75.5 -24q-4 -28 -14.5 -64t-24 -70.5t-26.5 -59.5h-9l-34 187q-27 8 -61 8q-59 0 -109 -30t-88 -82t-59 -118.5t-21 -140.5t22.5 -126.5 t61.5 -80.5t89 -28q24 0 46 5l51 226l5 21l-70 21l5 12h250l-1 -12l-46 -11q-15 -4 -20 -11t-8 -20z" />
<glyph unicode="H" horiz-adv-x="732" d="M309 0h-270v13l56 12q14 3 19 10.5t8 20.5l115 539l5 22l-70 20l3 13h270v-13l-56 -11q-14 -4 -19 -11.5t-8 -19.5l-53 -251h260l54 251l5 22l-71 20l4 13h270v-13l-56 -11q-14 -4 -19.5 -11.5t-7.5 -19.5l-115 -539l-5 -22l71 -21l-4 -13h-270v13l56 12q14 3 19 10.5 t8 20.5l54 254h-261l-54 -254l-5 -22l71 -21z" />
<glyph unicode="I" horiz-adv-x="347" d="M310 0h-270v13l56 12q13 3 18.5 10.5t8.5 20.5l114 539l5 22l-70 20l3 13h270v-13l-56 -11q-14 -4 -19 -11.5t-8 -19.5l-114 -539l-5 -22l70 -21z" />
<glyph unicode="J" horiz-adv-x="344" d="M260 116q-21 -99 -86 -158.5t-169 -84.5l-5 11q38 32 64 67t44.5 81.5t32.5 115.5l95 447l5 22l-70 20l3 13h270v-13l-56 -11q-14 -4 -19 -11.5t-8 -19.5z" />
<glyph unicode="K" horiz-adv-x="701" d="M310 0h-270v13l56 12q13 3 18.5 10.5t8.5 20.5l114 539l5 22l-71 20l4 13h270v-13l-56 -11q-14 -4 -19.5 -11.5t-7.5 -19.5l-55 -260h95l232 283l-74 19l3 13h238v-12l-61 -19q-22 -9 -49.5 -25t-53 -34t-40.5 -34l-109 -125l8 7l122 -332q9 -25 21 -36t29 -17l33 -11 l-4 -12l-126 -1q-43 -1 -61.5 17t-30.5 53l-83 234h-96l-52 -247l-5 -22l70 -21z" />
<glyph unicode="L" horiz-adv-x="537" d="M503 0h-463l-1 13l59 13q12 3 17 10.5t7 19.5l115 539l5 22l-70 20l3 13h270v-13l-56 -11q-14 -4 -19 -11.5t-8 -19.5l-115 -539l-5 -24h99h40h41l105 188h9q0 -17 -2 -39.5t-5 -49.5q-2 -35 -9.5 -69.5t-16.5 -61.5z" />
<glyph unicode="M" horiz-adv-x="887" d="M211 650h207l60 -482l270 482h195v-13l-82 -20l-62 -581l75 -23l-4 -13h-278l1 13l39 9q24 5 32.5 13t11.5 31l53 480l-277 -494l-27 -54h-55l-5 54l-66 498l-159 -517l82 -20l-4 -13h-200v13l49 12q25 6 34.5 15.5t16.5 33.5l167 542l-77 21z" />
<glyph unicode="N" horiz-adv-x="686" d="M238 1h-202v13l64 13q14 4 19 10t8 19l120 562l-78 20l3 12h168l223 -516l99 461l5 22l-84 20l4 13h201v-13l-63 -13q-15 -4 -20 -10.5t-8 -18.5l-126 -595h-86l-224 520l-98 -464l-5 -22l83 -20z" />
<glyph unicode="O" horiz-adv-x="643" d="M680 414q0 -84 -27 -160t-74.5 -135.5t-111 -94t-137.5 -34.5q-111 0 -170 67t-59 176q0 85 27.5 162t76 136.5t112.5 94t138 34.5q108 0 166.5 -67t58.5 -179zM235 177q0 -76 25.5 -115.5t70.5 -39.5q35 0 67 28.5t59 77t47 108t31 123t11 121.5q0 69 -23.5 109 t-70.5 40q-36 0 -68.5 -28.5t-59.5 -76t-47 -107t-31 -121.5t-11 -119z" />
<glyph unicode="P" horiz-adv-x="584" d="M415 619h-48l-5 -24l-67 -316h47q61 0 105.5 30.5t69 81t24.5 108.5q0 62 -34.5 91t-91.5 29zM247 55h-7l-2 -23l99 -20l-2 -12h-296l-1 12l53 11q14 4 18.5 11t5.5 21h7l115 540l5 22l-70 20l3 13h256q105 0 171 -40.5t66 -126.5q0 -71 -41.5 -124t-113 -82t-162.5 -29 h-63z" />
<glyph unicode="Q" horiz-adv-x="643" d="M680 414q0 -80 -24.5 -153.5t-68.5 -132t-103.5 -95t-128.5 -42.5q38 -25 96.5 -45t129 -32t143.5 -12q37 0 72.5 4t60.5 10q4 -5 6.5 -14t2.5 -22q0 -39 -38 -59.5t-103 -20.5q-78 0 -157.5 25.5t-150 69t-121.5 97.5q-94 11 -144.5 76t-50.5 165q0 85 27.5 162 t76 136.5t112.5 94t138 34.5q108 0 166.5 -66.5t58.5 -179.5zM235 177q0 -76 25.5 -115.5t70.5 -39.5q35 0 67.5 28.5t59.5 77t46.5 108.5t30.5 123t11 121q0 69 -23.5 109t-70.5 40q-36 0 -68.5 -28.5t-59.5 -76t-47 -106.5t-31 -121.5t-11 -119.5z" />
<glyph unicode="R" horiz-adv-x="673" d="M418 619h-51l-5 -24l-62 -291h58q57 0 97.5 28t62.5 72.5t22 94.5q0 59 -33.5 89.5t-88.5 30.5zM310 0h-270v13l56 12q13 3 18.5 10.5t8.5 20.5l114 539l5 22l-70 20l3 13h259q110 0 171 -40t61 -118q0 -46 -21.5 -83.5t-57 -65t-78.5 -43.5l53 -146q19 -64 32.5 -91.5 t39.5 -37.5l38 -12l-3 -13l-128 -2q-38 -1 -56 13t-27 44l-69 218h-22h-73l-46 -217l-5 -22l70 -21z" />
<glyph unicode="S" horiz-adv-x="506" d="M152 468q0 61 35.5 104t94 65.5t127.5 22.5q53 0 95.5 -10t66.5 -28q11 -10 11 -22q0 -18 -12 -47.5t-28 -58.5t-29 -44l-9 1l-19 167q-27 11 -69 11q-39 0 -71.5 -14.5t-51.5 -41t-19 -62.5q0 -34 16.5 -61t42.5 -49.5t55.5 -45t55.5 -48t42.5 -57.5t16.5 -74 q0 -60 -34 -101.5t-92.5 -63t-130.5 -21.5q-55 0 -103 9t-71 28q-15 12 -15 30q0 19 10.5 48t25.5 57.5t28 46.5l9 -1l24 -168q15 -8 37.5 -13.5t50.5 -5.5q61 0 100.5 32.5t39.5 85.5q0 35 -16.5 61.5t-43 49t-55.5 44.5t-55.5 46.5t-43 55.5t-16.5 72z" />
<glyph unicode="T" horiz-adv-x="587" d="M430 0h-270v13l56 12q13 3 18.5 10.5t8.5 20.5l119 563h-61q-16 0 -32 -0.5t-32 -0.5l-107 -183h-8q0 11 0.5 24.5t1.5 27.5q3 40 12.5 84t21.5 79h547q-2 -31 -10.5 -71t-20.5 -78.5t-25 -65.5h-9l-29 183q-16 0 -32 0.5t-31 0.5h-61l-119 -563l-5 -22l70 -21z" />
<glyph unicode="U" horiz-adv-x="670" d="M616 231q-27 -125 -93.5 -183t-167.5 -58q-98 0 -153 50t-55 139q0 28 7 61l76 355l5 22l-71 20l4 13h270v-13l-56 -11q-14 -4 -19.5 -11.5t-7.5 -19.5l-77 -362q-4 -18 -6 -34t-2 -30q0 -67 34 -100.5t91 -33.5q65 0 115 49t71 148l77 364l5 21l-79 20l3 13h198v-13 l-87 -20l-5 -21z" />
<glyph unicode="V" horiz-adv-x="675" d="M377 -2h-68l-94 581q-4 24 -11 33t-24 14l-37 11l2 13h276v-13l-78 -22l68 -492l267 493l-73 21l4 13h195v-13q-23 -6 -44 -14q-33 -18 -56.5 -50t-56.5 -92z" />
<glyph unicode="W" horiz-adv-x="1009" d="M1015 533l-297 -535h-64l-52 441l-238 -441h-64l-82 581q-3 20 -10.5 31t-23.5 16l-41 11l3 13h270v-13l-75 -21l59 -483l195 367l-9 79q-3 21 -10.5 31t-22.5 16l-40 11l3 13h275l-1 -13l-80 -21l48 -481l254 481l-78 21l4 13h200v-13q-30 -8 -54 -20q-22 -11 -36.5 -30 t-32.5 -54z" />
<glyph unicode="X" horiz-adv-x="667" d="M168 99l178 201l-118 280q-10 23 -18 33t-25 15l-35 9l3 13h266v-13l-73 -19l100 -237l177 237l-68 19l4 13h214l-1 -13q-12 -3 -21.5 -5t-21.5 -5q-23 -8 -44 -23.5t-54 -52.5l-174 -196l121 -286q11 -25 20 -34t23 -13l35 -9l-3 -13h-269v13l75 19l-102 244l-182 -244 l68 -19l-3 -13h-214v13l22 5.5t21 5.5q23 7 43.5 22t55.5 53z" />
<glyph unicode="Y" horiz-adv-x="594" d="M434 0h-270v13l56 12q14 3 19 10.5t8 20.5l24 114q9 40 10.5 94.5t-3 111t-14 105t-24 79t-32.5 30.5q-14 0 -30 -14.5t-32 -36.5t-31 -45l-10 4q13 37 37 74.5t55.5 62.5t68.5 25t63.5 -31.5t43.5 -86t23 -124.5t2 -148q43 112 89.5 200t88.5 139t75 51q26 0 39 -23 t18.5 -57.5t7.5 -70.5l-10 -5q-11 37 -21.5 62.5t-30.5 25.5q-21 0 -50.5 -31t-62.5 -81.5t-63.5 -110.5t-54 -120t-33.5 -107l-18 -86l-5 -22l71 -21z" />
<glyph unicode="Z" horiz-adv-x="582" d="M563 143q-2 -37 -10.5 -75t-19.5 -68h-466l-5 51l456 568h-236l-116 -188h-9q0 16 1.5 35.5t5.5 43.5q3 36 10.5 72.5t19.5 67.5h459l5 -48l-454 -571h240l117 189h9q0 -16 -2 -35t-5 -42z" />
<glyph unicode="[" horiz-adv-x="383" d="M318 -107h-228l170 802h229l-7 -31h-109l-157 -739h109z" />
<glyph unicode="\" horiz-adv-x="450" d="M375 -2l-57 -8l-100 693l3 5l57 7l100 -692z" />
<glyph unicode="]" horiz-adv-x="383" d="M190 695h229l-171 -802h-228l7 32h108l157 739h-109z" />
<glyph unicode="^" horiz-adv-x="563" d="M227 205h-97l223 343h87l80 -343h-97l-49 242z" />
<glyph unicode="_" horiz-adv-x="540" d="M-3 -185l7 35h468l-7 -35h-468z" />
<glyph unicode="`" horiz-adv-x="366" d="M278 574l-9 -10q-51 15 -91 35.5t-63 43.5t-23 45q0 24 19 35.5t48 11.5q6 0 11.5 -0.5t9.5 -0.5q15 -32 41.5 -75.5t56.5 -84.5z" />
<glyph unicode="a" horiz-adv-x="526" d="M70 117q0 68 23 137.5t65.5 127.5t102 93t132.5 35q44 0 86 -9t71 -23l-24 -81l-56 -254q-5 -23 -8 -40.5t-3 -27.5q0 -14 9 -14q12 0 37 30t51 66l8 -5q-15 -38 -39.5 -75.5t-55 -62t-65.5 -24.5q-64 0 -64 78q0 15 3 34t7 41l30 131q-50 -133 -108.5 -208.5 t-110.5 -75.5q-46 0 -68.5 36.5t-22.5 90.5zM412 418l12 49q-23 14 -50 14q-28 -1 -55 -25t-51 -64t-42 -88t-28.5 -96t-10.5 -87q0 -28 6 -44.5t22 -16.5t41 29.5t53 80.5t55 115.5t48 132.5z" />
<glyph unicode="b" horiz-adv-x="500" d="M88 108l98 457l16 74l-78 22v9q46 9 101 15.5t102 9.5l6 -7l-27 -123q-24 -105 -44 -186t-42 -161v0q49 136 107.5 214t114.5 78q47 0 69.5 -38.5t22.5 -93.5q0 -67 -20 -135t-59 -125.5t-94 -92.5t-124 -35q-45 0 -92 10t-81 28zM388 441q-20 0 -51.5 -39t-64.5 -107.5 t-58 -157.5l-23 -102q13 -8 29 -11.5t31 -3.5q28 -1 53 23.5t45.5 64t35.5 86.5t23.5 94t8.5 86q0 30 -6.5 48.5t-22.5 18.5z" />
<glyph unicode="c" horiz-adv-x="430" d="M443 155q-17 -42 -48.5 -80t-73 -61.5t-88.5 -23.5q-63 0 -107.5 45t-44.5 133q0 65 21.5 126.5t59 110t86 77t101.5 28.5q59 0 91.5 -31.5t32.5 -79.5q0 -38 -21.5 -67t-55.5 -29q-13 0 -24.5 2t-20.5 6q9 27 16.5 58t7.5 55q0 27 -8 41.5t-28 14.5q-25 0 -48.5 -26.5 t-42.5 -69.5t-30 -91.5t-11 -92.5q0 -66 23 -100.5t63 -34.5q39 0 76.5 29t66.5 66z" />
<glyph unicode="d" horiz-adv-x="526" d="M350 143l26 119q-49 -127 -106.5 -199.5t-108.5 -72.5q-46 0 -68.5 37t-22.5 90q0 68 23 137t65.5 127t102 93.5t132.5 35.5q19 0 37 -2l13 57l15 74l-77 22v9q45 9 100.5 15.5t101.5 9.5l6 -7l-26 -123l-93 -422q-6 -23 -9 -40.5t-3 -27.5q0 -14 9 -14q12 0 37.5 30 t51.5 66l7 -5q-15 -38 -39 -75.5t-55 -62t-66 -24.5q-63 0 -63 78q0 15 2.5 34t7.5 41zM215 60q16 0 41 29.5t52.5 81t54.5 115.5t48 133l11 48q-22 14 -48 14q-28 -1 -55 -25t-51 -64t-42 -88t-28.5 -96t-10.5 -87q0 -28 6 -44.5t22 -16.5z" />
<glyph unicode="e" horiz-adv-x="425" d="M443 155q-18 -45 -50 -82.5t-73 -60t-86 -22.5q-70 0 -111.5 48t-41.5 130q0 64 20.5 125.5t57.5 110t85.5 77.5t103.5 29q53 0 88 -27t35 -77q0 -56 -33 -98.5t-92.5 -67.5t-138.5 -28v-17q0 -63 22 -96.5t63 -33.5q36 0 74 27t70 68zM339 480q-22 0 -43 -21t-39 -56.5 t-31 -79t-17 -86.5q49 6 86 36t57.5 73t20.5 92q0 17 -8 29.5t-26 12.5z" />
<glyph unicode="f" horiz-adv-x="318" d="M202 34q-24 -115 -85.5 -172t-138.5 -57q-48 0 -77.5 20t-29.5 48q0 19 14.5 30.5t35.5 15.5q8 -20 22 -42t38 -22q36 0 57.5 39t40.5 127l90 427h-76l1 8l82 22l4 19q11 53 42.5 98.5t77 72.5t99.5 27q45 0 73.5 -19t28.5 -49q0 -20 -15 -31.5t-30 -15.5 q-17 25 -39 45.5t-46 20.5q-26 0 -38.5 -22t-19 -56t-13.5 -69l-5 -23h125l-6 -28h-125z" />
<glyph unicode="g" horiz-adv-x="437" d="M432 -60q0 -38 -32.5 -68.5t-87.5 -48.5t-124 -18q-59 0 -106.5 13t-75 36.5t-27.5 53.5q0 31 30 57.5t84 41.5l7 -5q-13 -12 -21.5 -24t-8.5 -26q2 -51 33.5 -84.5t93.5 -33.5q41 0 73.5 19.5t32.5 49.5q0 18 -16.5 32t-41 26.5t-48.5 25.5t-40.5 28.5t-16.5 34.5 q0 26 32.5 51t94.5 52q-9 -1 -17 -1q-72 0 -117.5 37t-45.5 102q0 59 30 109t82.5 80t120.5 30q69 0 126 1t99 10q4 -10 4 -24q0 -25 -9 -37.5t-30 -12.5q-17 0 -45.5 5.5t-63.5 14.5q26 -16 43.5 -45t17.5 -66q0 -52 -21 -90t-52.5 -65t-63 -46.5t-52.5 -34t-21 -27.5 q0 -12 18 -22.5t45 -22t54 -26t45 -34.5t18 -48zM204 277q0 -42 12 -68t39 -26q24 0 44.5 32t33 82t12.5 102q0 36 -10 60t-35 24q-26 0 -48 -31.5t-35 -78.5t-13 -96z" />
<glyph unicode="h" horiz-adv-x="541" d="M191 -1q-4 -1 -20 -2t-35.5 -2.5t-35 -2t-18.5 -0.5q-13 0 -10 11l30 140v0l90 422l16 74l-78 22v9q46 9 101 15.5t102 9.5l6 -7l-27 -123q-15 -69 -35 -155t-43 -171q52 126 113.5 198.5t121.5 72.5q37 0 57 -22t20 -58q0 -24 -6.5 -59t-16.5 -75.5t-20 -80t-18 -72.5 q-5 -23 -8 -40.5t-3 -27.5q0 -14 9 -14q12 0 37 30t51 66l8 -5q-15 -38 -39.5 -75.5t-55 -62t-65.5 -24.5q-64 0 -64 78q0 15 3 34t7 41q9 46 23 97.5t25 96.5t11 71q0 11 -4.5 19t-16.5 8q-23 0 -55 -38.5t-65.5 -104.5t-60.5 -149v0z" />
<glyph unicode="i" horiz-adv-x="290" d="M349 665q0 -34 -26.5 -56.5t-61.5 -22.5q-29 0 -45.5 13.5t-16.5 37.5q0 33 27.5 55.5t61.5 22.5q28 0 44.5 -13.5t16.5 -36.5zM114 143q11 51 26.5 110.5t25.5 104.5q5 22 8.5 39.5t3.5 27.5q0 15 -9 15q-13 0 -38 -30t-51 -66l-7 4q14 38 38.5 75.5t55.5 62t66 24.5 q63 0 63 -77q0 -16 -2.5 -35t-7.5 -40q-10 -49 -25.5 -109t-26.5 -106q-5 -23 -8 -40.5t-3 -27.5q0 -14 9 -14q12 0 37 30t51 66l8 -5q-15 -38 -39.5 -75.5t-55 -62t-65.5 -24.5q-64 0 -64 78q0 15 3 34t7 41z" />
<glyph unicode="j" horiz-adv-x="270" d="M354 665q0 -34 -26.5 -56.5t-61.5 -22.5q-29 0 -45.5 13.5t-16.5 37.5q0 33 27.5 55.5t61.5 22.5q28 0 44.5 -13.5t16.5 -36.5zM222 34q-24 -115 -85.5 -172t-138.5 -57q-48 0 -77.5 20t-29.5 48q0 19 14.5 30.5t35.5 15.5q8 -20 22 -42t38 -22q36 0 57.5 39t40.5 127 l71 337q5 22 8.5 39.5t3.5 27.5q0 15 -9 15q-13 0 -38 -30t-51 -66l-7 4q14 38 38.5 75.5t55.5 62t66 24.5q63 0 63 -77q0 -16 -2.5 -35t-7.5 -40z" />
<glyph unicode="k" horiz-adv-x="534" d="M192 -1q-5 -1 -21 -2t-35.5 -2.5t-35 -2t-17.5 -0.5q-14 0 -10 11l29 140l90 422l16 74l-78 22v9q46 9 101 15.5t102 9.5l6 -7l-27 -123q-22 -105 -42.5 -186t-42.5 -161v0q54 140 120.5 216t136.5 76q41 0 63.5 -26t22.5 -62q0 -45 -25.5 -81t-65 -63.5t-81.5 -45.5 q29 -82 50.5 -124.5t42.5 -42.5q17 0 43 28t53 64l7 -5q-16 -38 -42 -75t-58 -62t-67 -25q-36 0 -59 25.5t-40.5 72.5t-38.5 114l1 4q45 23 81 53t57 65t21 71q0 41 -33 41q-27 0 -62.5 -38.5t-70.5 -105.5t-62 -154v0z" />
<glyph unicode="l" horiz-adv-x="275" d="M99 143l93 422l16 74l-78 22v9q46 9 101 15.5t102 9.5l6 -7l-27 -123l-93 -422q-5 -23 -8 -40.5t-3 -27.5q0 -14 9 -14q12 0 37 30t51 66l8 -5q-15 -38 -39.5 -75.5t-55 -62t-65.5 -24.5q-64 0 -64 78q0 15 3 34t7 41z" />
<glyph unicode="m" horiz-adv-x="808" d="M207 -1q-5 -1 -21 -2t-35.5 -2.5t-35 -2t-17.5 -0.5q-14 0 -10 11l29 140l14 64l22 104q20 95 20 112t-9 17q-15 0 -39 -30t-48 -66l-8 4q13 38 36 75.5t54 62t66 24.5q27 0 44.5 -16t17.5 -50q0 -33 -13 -92t-29 -123q52 131 114.5 206t122.5 75q33 0 50.5 -20t17.5 -52 q0 -34 -11.5 -87t-26.5 -115q52 127 112 200.5t116 73.5q35 0 54 -22t19 -58q0 -24 -6.5 -59t-16.5 -75.5t-20.5 -80t-17.5 -72.5q-6 -23 -9 -40.5t-3 -27.5q0 -14 9 -14q12 0 37.5 30t51.5 66l7 -5q-15 -38 -39 -75.5t-55 -62t-66 -24.5q-63 0 -63 78q0 15 2.5 34t7.5 41 q9 46 23 98t25 97.5t11 71.5q0 10 -4 17.5t-13 7.5q-21 0 -51.5 -38.5t-62.5 -104.5t-58 -149v0l-31 -144q-4 -1 -20 -2t-35.5 -2.5t-35 -2t-18.5 -0.5q-13 0 -10 11l30 140v0q19 90 36 161.5t17 103.5q0 11 -4 19t-14 8q-23 0 -55 -38.5t-65 -104.5t-60 -149z" />
<glyph unicode="n" horiz-adv-x="556" d="M207 -1q-5 -1 -21 -2t-35.5 -2.5t-35 -2t-17.5 -0.5q-14 0 -10 11l29 140l14 64l22 104q20 95 20 112t-9 17q-15 0 -39 -30t-48 -66l-8 4q13 38 36 75.5t54 62t66 24.5q27 0 44.5 -16t17.5 -50q0 -33 -13.5 -93.5t-29.5 -124.5q53 132 115.5 208t123.5 76q37 0 57 -22 t20 -58q0 -24 -6.5 -59t-16 -75.5t-20 -80t-17.5 -72.5q-6 -23 -9 -40.5t-3 -27.5q0 -14 9 -14q12 0 37.5 30t51.5 66l7 -5q-15 -38 -39 -75.5t-55 -62t-66 -24.5q-63 0 -63 78q0 15 2.5 34t7.5 41q9 46 22.5 97.5t24.5 96.5t11 71q0 11 -4.5 19t-15.5 8q-23 0 -55 -38.5 t-65.5 -104.5t-60.5 -149z" />
<glyph unicode="o" horiz-adv-x="502" d="M524 319q0 -69 -21.5 -129t-58.5 -105t-84.5 -70t-100.5 -25q-82 0 -128.5 52t-46.5 140q0 67 21.5 126.5t59 104.5t86 71t102.5 26q83 0 127 -54t44 -137zM209 150q0 -59 13.5 -93.5t41.5 -34.5q23 0 43 22.5t37 59.5t29 82t18.5 90t6.5 84q0 54 -12.5 86t-40.5 32 q-29 0 -53.5 -32t-43.5 -83t-29 -107.5t-10 -105.5z" />
<glyph unicode="p" horiz-adv-x="520" d="M165 -188q-5 0 -21 -1.5t-35.5 -2.5t-35 -2t-17.5 -1q-14 0 -10 12l29 139l54 251l22 104q20 95 20 112t-9 17q-15 0 -39 -30t-48 -66l-8 4q13 38 36 75.5t54 62t66 24.5q27 0 44.5 -16t17.5 -51q0 -33 -14 -94.5t-30 -127.5q49 135 107 212t114 77q47 0 69.5 -38.5 t22.5 -93.5q0 -67 -20.5 -135.5t-60 -125.5t-96.5 -92t-131 -35q-21 0 -43 2l-8 -36zM408 441q-20 0 -51.5 -39t-64.5 -107t-58 -156l-23 -110q20 -9 50 -9q29 0 55.5 23t48.5 61.5t38 85.5t25 95t9 90q0 29 -6.5 47.5t-22.5 18.5z" />
<glyph unicode="q" horiz-adv-x="502" d="M400 -188q-4 0 -20 -1.5t-35.5 -2.5t-35 -2t-18.5 -1q-13 0 -10 12l30 139q17 81 34.5 161t36.5 159q-51 -133 -110 -209.5t-111 -76.5q-46 0 -68.5 37t-22.5 90q0 68 23 137t65.5 127t102 93.5t132.5 35.5q44 0 85 -8.5t70 -23.5l-24 -81l-93 -441zM187 121q0 -28 6 -45 t21 -17q17 0 40.5 28.5t50.5 77t53.5 110t47.5 127.5l15 66q-21 13 -47 13q-28 -1 -55 -25t-51 -64t-42 -88t-28.5 -96t-10.5 -87z" />
<glyph unicode="r" horiz-adv-x="431" d="M207 -1q-5 -1 -21 -2t-35.5 -2.5t-35 -2t-17.5 -0.5q-14 0 -10 11l29 140l14 64l22 104q20 95 20 112t-9 17q-15 0 -39 -30t-48 -66l-8 4q13 38 36 75.5t54 62t66 24.5q27 0 44.5 -16t17.5 -50q0 -33 -13 -92t-29 -122q31 84 66 147t72 98t73 35q24 0 36 -15.5t12 -37.5 q0 -25 -11 -49.5t-27 -43.5q-13 9 -31.5 17t-37.5 8q-30 0 -58.5 -31.5t-54 -87t-47.5 -127.5z" />
<glyph unicode="s" horiz-adv-x="418" d="M419 131q0 -62 -51 -101.5t-148 -39.5q-46 0 -83.5 12t-60 33.5t-22.5 52.5q0 28 25.5 50t73.5 31l7 -4q-4 -21 -5.5 -39.5t1.5 -35.5q4 -32 23 -50.5t50 -18.5q30 0 51 19.5t21 52.5q0 29 -19 54.5t-46.5 49.5t-55.5 50t-46.5 55.5t-18.5 67.5q0 61 50 100.5t135 39.5 q69 0 114.5 -27t45.5 -70q0 -29 -24.5 -50.5t-63.5 -28.5l-8 3q1 18 2 37.5t-1 35.5q-4 32 -21 50.5t-44 18.5q-30 0 -48.5 -19.5t-18.5 -50.5q0 -30 18.5 -55.5t46.5 -50t55.5 -50.5t46.5 -55.5t19 -66.5z" />
<glyph unicode="t" horiz-adv-x="332" d="M359 152q-17 -38 -44 -75.5t-61.5 -62t-75.5 -24.5q-37 0 -59 22t-22 64q0 17 2.5 35.5t7.5 38.5l63 298h-77l1 8l85 29l138 131l8 -2l-29 -138h116l-6 -28h-116l-63 -298q-5 -26 -8 -41t-3 -25q0 -23 21 -23q20 0 51 28.5t63 67.5z" />
<glyph unicode="u" d="M459 502q4 0 20 1t35.5 2.5t35 2.5t18.5 1q13 0 10 -12l-29 -139l-14 -65l-22 -103q-20 -95 -20 -113q0 -16 9 -16q15 0 39 30t48 66l8 -5q-13 -38 -36.5 -75.5t-54 -62t-65.5 -24.5q-27 0 -44.5 16t-17.5 51q0 32 13 92.5t30 124.5q-53 -132 -116 -208t-123 -76 q-38 0 -57.5 22t-19.5 58q0 24 6 59t16 75.5t20 80.5t18 73q5 22 8.5 39.5t3.5 27.5q0 15 -9 15q-13 0 -38 -30t-51 -66l-7 4q14 38 38.5 75.5t55.5 62t66 24.5q63 0 63 -77q0 -16 -2.5 -35t-7.5 -40q-9 -46 -23 -98t-24.5 -97t-10.5 -71q0 -11 4 -18.5t16 -7.5q23 0 55 38 t65.5 104t60.5 150z" />
<glyph unicode="v" horiz-adv-x="467" d="M147 0q5 79 9 153.5t4 131.5q0 64 -2.5 97.5t-8 45.5t-15.5 12q-17 0 -40 -28.5t-46 -67.5l-8 4q13 39 36 76t55 61.5t71 24.5q80 0 80 -133q0 -60 -8.5 -143t-26.5 -182q48 64 83 133.5t54 135t19 119.5q0 18 -2 33t-4 26q8 4 23.5 7.5t29.5 3.5q34 0 54 -19.5t20 -57.5 q0 -60 -37.5 -132.5t-106 -151t-161.5 -154.5z" />
<glyph unicode="w" horiz-adv-x="718" d="M452 510q39 0 59 -24.5t20 -80.5q0 -65 -8.5 -155.5t-24.5 -198.5q48 64 83 133.5t54.5 135.5t19.5 120q0 18 -2 33t-5 26q8 4 23.5 7.5t29.5 3.5q35 0 55 -19.5t20 -57.5q0 -60 -37.5 -132.5t-106 -151t-162.5 -154.5l-72 4q4 77 7 143.5t4 130.5q-55 -135 -190 -278 l-72 5q5 79 9 153.5t4 131.5q0 64 -2.5 97.5t-8 45.5t-15.5 12q-17 0 -40 -30t-46 -66l-8 4q13 39 36 76t55 61.5t71 24.5q80 0 80 -133q0 -59 -8.5 -139.5t-24.5 -177.5q45 60 81 126.5t57 133.5t21 130q0 15 -2 27.5t-4 21.5q8 4 22.5 7.5t27.5 3.5z" />
<glyph unicode="x" horiz-adv-x="486" d="M173 -4q-24 -8 -52 -8t-46 14t-18 42q0 34 26 69.5t67.5 69t86.5 61.5l-29 98q-16 54 -24.5 73.5t-20.5 19.5q-10 0 -23.5 -14t-28.5 -35t-29 -42l-8 5q17 42 40 78t51 58.5t59 22.5q30 0 46 -15t28.5 -48t31.5 -89l23 -79q28 44 50 93t22 98q0 22 -3 36q20 9 50 9 q29 0 47.5 -14.5t18.5 -40.5q0 -35 -25.5 -71t-66.5 -69.5t-86 -62.5l30 -99q16 -55 24.5 -74t20.5 -19q9 0 23 14t29 34.5t29 42.5l8 -5q-17 -42 -40 -78.5t-51.5 -58.5t-58.5 -22t-46 14.5t-28.5 48t-31.5 89.5l-25 81q-28 -43 -50 -92.5t-22 -97.5q0 -24 2 -37z" />
<glyph unicode="y" horiz-adv-x="481" d="M298 348q0 -44 -7.5 -99.5t-23 -115t-38.5 -115.5q64 61 105 133t60.5 146t19.5 139q0 20 -2 35.5t-4 27.5q8 4 22.5 7.5t31.5 3.5q73 0 73 -82q0 -72 -36.5 -153.5t-107.5 -157t-176 -130.5q-24 -52 -54.5 -93t-68.5 -64.5t-83 -23.5q-42 0 -67 17t-25 42q0 19 15 32.5 t37 17.5q6 -21 18.5 -43.5t32.5 -22.5q26 0 49 33t41.5 88t32.5 120.5t21.5 131t7.5 120.5q0 39 -5.5 68.5t-20.5 29.5q-17 0 -39 -30t-43 -66l-8 4q12 39 34 76t52.5 61.5t67.5 24.5q46 0 67 -42.5t21 -119.5z" />
<glyph unicode="z" horiz-adv-x="413" d="M141 25q-32 0 -57 -9t-47 -26l-14 16q79 89 150.5 173t139.5 173q-35 16 -74 28t-65 12q-27 0 -44 -19.5t-38 -63.5l-9 4q19 99 44 147t76 48q25 0 53 -13.5t55.5 -34t51.5 -41.5q33 45 65 91q23 -1 36.5 -12t13.5 -28t-11 -30.5t-31 -29.5q-51 -55 -120 -128.5 t-173 -183.5q32 17 66 17q25 0 51.5 -5t50.5 -10t40 -5q19 0 37.5 22.5t43.5 67.5l9 -5q-14 -51 -29 -94t-35 -69.5t-50 -26.5q-25 0 -55.5 8.5t-63.5 17.5t-67 9z" />
<glyph unicode="{" horiz-adv-x="404" d="M136 301q61 6 86 36t25 88q0 26 -5 53.5t-5 55.5q0 63 33 98t91.5 49t134.5 14l-2 -24q-130 -5 -130 -129q0 -27 4 -53.5t4 -52.5q0 -68 -47.5 -102.5t-118.5 -45.5q52 -8 84.5 -29t32.5 -59q0 -25 -12 -52.5t-27.5 -56.5t-27 -57.5t-11.5 -53.5q0 -68 86 -72l-6 -25 q-110 0 -157 28t-47 80q0 26 12.5 54.5t29 57t29 56t12.5 51.5q0 26 -15.5 44.5t-56.5 23.5z" />
<glyph unicode="|" horiz-adv-x="326" d="M153 -191l-56 -4l-4 7l187 879l56 4l4 -6z" />
<glyph unicode="}" horiz-adv-x="374" d="M391 278q-62 -7 -86.5 -37t-24.5 -87q0 -27 5 -54t5 -56q0 -63 -33.5 -98t-91.5 -49t-134 -14l2 25q130 4 130 128q0 27 -4 53.5t-4 52.5q0 68 47 102.5t119 45.5q-53 8 -85 29t-32 59q0 25 11.5 52.5t27 56.5t27.5 57.5t12 54.5q0 67 -86 72l6 24q110 0 157 -28t47 -79 q0 -27 -12.5 -55.5t-29 -57t-29 -56t-12.5 -50.5q0 -27 15 -45.5t57 -22.5z" />
<glyph unicode="~" horiz-adv-x="577" d="M214 248q-9 0 -26.5 -16.5t-38.5 -40.5l-40 21q16 25 36 53t42.5 48t46.5 20q18 0 50.5 -8t69 -18.5t68 -18.5t47.5 -8q11 0 28 17t38 41l39 -21q-16 -25 -36 -53.5t-42.5 -48t-45.5 -19.5q-20 0 -54 7.5t-71 18t-67.5 18.5t-43.5 8z" />
<glyph unicode="&#xa1;" horiz-adv-x="296" d="M174 431q0 34 26 56.5t62 22.5q28 0 45 -13.5t17 -37.5q0 -33 -28 -55.5t-61 -22.5q-29 0 -45 13.5t-16 36.5zM193 -181l-5 -6q-25 -3 -60.5 -5.5t-54.5 -2.5q-32 0 -31 24q2 15 9.5 40t18.5 56l128 381h44z" />
<glyph unicode="&#xa2;" horiz-adv-x="466" d="M250 -120l-34 -2l-5 5l23 108q-56 6 -95 51t-39 126q0 63 20.5 122t55.5 107t80.5 78t96.5 34l24 111l34 3l5 -6l-23 -109q48 -6 74 -36t26 -73q0 -38 -21.5 -67t-55.5 -29q-13 0 -24.5 2t-20.5 6q9 27 16.5 58t7.5 55q0 27 -8 41.5t-28 14.5q-25 0 -48.5 -26.5 t-42.5 -69.5t-30 -91.5t-11 -92.5q0 -66 23 -100.5t63 -34.5q39 0 76.5 29t66.5 66l7 -5q-15 -39 -43.5 -74.5t-66 -59.5t-79.5 -30z" />
<glyph unicode="&#xa3;" horiz-adv-x="523" d="M527 -36q-1 -33 -21.5 -61t-64.5 -28q-41 0 -76 17.5t-67 42.5t-64 48.5t-67 35.5q-42 -29 -83 -29q-20 0 -30.5 9t-10.5 23q0 18 18 32.5t49 14.5q21 0 47 -8q12 13 23.5 29t16.5 37q7 22 14.5 68.5t15.5 99.5h-117l9 34h113q5 36 10 69t11 55q24 102 83 162t146 60 q58 0 95.5 -27.5t37.5 -66.5q0 -26 -21 -43t-50 -19q-13 123 -66 123q-35 0 -58.5 -41t-46.5 -126l-38 -146h158l-9 -34h-157l-9 -34q-19 -68 -50 -123.5t-68 -91.5q36 -15 77.5 -32.5t92.5 -30t113 -12.5q25 0 44 3v-10z" />
<glyph unicode="&#xa4;" horiz-adv-x="522" d="M461 119l-52 66q-23 -17 -52 -27t-60 -10q-33 0 -59 9.5t-45 26.5l-79 -66l-25 32l79 66q-19 33 -18 76q0 40 17 78.5t48 68.5l-50 65l34 29q12 -15 25 -31.5t27 -34.5q23 14 50 22.5t57 8.5q31 0 55.5 -10.5t42.5 -27.5l88 73l26 -32l-90 -74q17 -32 17 -71 q0 -38 -14 -74t-39 -65q15 -19 28.5 -35t24.5 -29l-2 -9zM347 442q-41 0 -71.5 -21t-47.5 -53.5t-17 -67.5q0 -41 22.5 -68.5t68.5 -27.5q40 0 70 20.5t47 53t17 67.5q0 44 -22.5 70.5t-66.5 26.5z" />
<glyph unicode="&#xa5;" horiz-adv-x="640" d="M451 0h-270v13l56 12q14 3 19 10.5t8 20.5l14 67h-152l6 34h153l3 13q5 21 7 48h-150l7 34h146q3 53 -1 112t-14 110t-25 83.5t-33 32.5q-14 0 -30 -14.5t-32 -36.5t-31 -45l-10 4q13 37 37 74.5t55.5 62.5t68.5 25t63.5 -31.5t43.5 -86t23 -124.5t2 -148 q43 112 89.5 200t88.5 139t75 51q26 0 39 -23t18.5 -57.5t7.5 -70.5l-10 -5q-11 37 -21.5 62.5t-31.5 25.5q-20 0 -49 -30.5t-62 -81t-64 -110.5t-53 -118h130l-6 -34h-137q-12 -33 -19 -61h143l-7 -34h-143l-14 -67l-5 -22l71 -21z" />
<glyph unicode="&#xa6;" horiz-adv-x="326" d="M263 325l-56 -4l-5 7l78 363l56 4l4 -6zM153 -191l-56 -4l-4 7l77 364l56 4l5 -6z" />
<glyph unicode="&#xa7;" horiz-adv-x="558" d="M525 115q0 -56 -24.5 -106t-67.5 -88t-99.5 -59.5t-121.5 -21.5q-75 0 -121.5 23.5t-46.5 61.5q0 24 16 43t44 33h8q18 -45 49.5 -76t75.5 -51q29 11 50 47.5t21 76.5q0 39 -17 75.5t-42 72.5t-50.5 73.5t-42 78.5t-16.5 88q0 57 25 107t69 87.5t102 58.5t123 21 q69 0 115 -24.5t46 -61.5q0 -24 -16.5 -45.5t-44.5 -34.5h-8q-42 93 -129 133q-26 -18 -46.5 -54t-20.5 -80q0 -40 17 -76t42.5 -71t51 -71t42.5 -75.5t17 -84.5zM325 -101l4 -3q56 26 89.5 80.5t33.5 116.5q0 43 -17 80.5t-42 72.5t-50 69.5t-41.5 71.5t-16.5 80 q0 38 12.5 70.5t40.5 59.5l-4 4q-56 -27 -88.5 -76.5t-32.5 -113.5q-1 -44 16 -82t42 -73.5t49.5 -70.5t41.5 -72.5t17 -79.5q0 -36 -14 -72t-40 -62z" />
<glyph unicode="&#xa8;" horiz-adv-x="513" d="M215 664q0 -32 -24 -53.5t-56 -21.5q-25 0 -39 13t-14 35q0 30 24.5 52t55.5 22q24 0 38.5 -12.5t14.5 -34.5zM432 664q0 -32 -24 -53.5t-56 -21.5q-25 0 -39 13t-14 35q0 30 24.5 52t55.5 22q24 0 38.5 -12.5t14.5 -34.5z" />
<glyph unicode="&#xa9;" horiz-adv-x="630" d="M320 -10q-67 0 -116 26t-76 72.5t-27 108.5q0 63 25.5 119.5t69.5 100t101 68.5t119 25q66 0 115.5 -27.5t77 -75t27.5 -105.5q0 -62 -25.5 -118t-69.5 -99.5t-101 -69t-120 -25.5zM327 22q55 0 104 23t87 61.5t60 87.5t22 100q0 83 -50.5 133.5t-138.5 50.5 q-54 0 -103 -22t-88 -61t-61 -88.5t-22 -103.5q0 -82 50 -131.5t140 -49.5zM473 168q-18 -25 -51 -47t-75 -22q-46 0 -75.5 30t-29.5 85q0 50 23.5 92.5t62 68.5t85.5 26q37 0 60.5 -20.5t23.5 -51.5q0 -21 -12.5 -34.5t-28.5 -13.5q-15 0 -25 7q1 5 3.5 19t2.5 24 q0 42 -35 42q-24 0 -44.5 -20t-32.5 -52.5t-12 -69.5q0 -39 18 -60t51 -21q24 0 44 8t38 21z" />
<glyph unicode="&#xaa;" horiz-adv-x="422" d="M123 380q0 49 17.5 98.5t50 90.5t78.5 66t103 25q35 0 67.5 -6.5t55.5 -16.5l-19 -58l-42 -180q-4 -16 -6.5 -28.5t-2.5 -19.5q0 -10 7 -10q9 0 28.5 21t38.5 46l6 -2q-11 -28 -30 -55.5t-43 -45t-51 -17.5q-50 0 -50 58q0 20 8 53l22 89q-38 -94 -83 -147t-84 -53 q-36 0 -53.5 26.5t-17.5 65.5zM386 595l9 34q-17 10 -37 10q-27 0 -52.5 -26.5t-46 -67t-32.5 -84.5t-12 -78q0 -20 4.5 -31.5t16.5 -11.5q13 0 31.5 21.5t40 58t42 82t36.5 93.5z" />
<glyph unicode="&#xab;" horiz-adv-x="506" d="M455 61l-13 -8q-34 53 -71.5 104.5t-67.5 84.5l-2 5l7 33q54 39 113 84.5t107 87.5l10 -8q-31 -48 -69 -96t-75 -95q16 -39 32.5 -90t28.5 -102zM269 61l-13 -8q-34 53 -71.5 104.5t-67.5 84.5l-2 5l7 33q54 39 113 84.5t107 87.5l10 -8q-31 -48 -69 -96t-75 -95 q16 -39 32.5 -90t28.5 -102z" />
<glyph unicode="&#xac;" horiz-adv-x="534" d="M546 375l-48 -228h-87l33 152h-327l16 79q35 1 89 2t114 1.5t114 1t90 0.5z" />
<glyph unicode="&#xae;" horiz-adv-x="630" d="M320 -10q-67 0 -116 26t-76 72.5t-27 108.5q0 63 25.5 119.5t69.5 100t101 68.5t119 25q67 0 116.5 -27.5t76.5 -75t27 -105.5q0 -62 -25.5 -118t-69.5 -99.5t-101 -69t-120 -25.5zM327 22q55 0 104 23t87 61.5t60 87.5t22 100q0 83 -50.5 133.5t-138.5 50.5 q-54 0 -103 -22t-88 -61t-61 -88.5t-22 -103.5q0 -82 50 -131.5t140 -49.5zM394 365h-27l-7 -38l-17 -78h32q34 0 54.5 20.5t20.5 50.5q0 45 -56 45zM318 133l35 -12l-3 -12h-135l1 12l22 6q10 3 14 8t7 17l6 29l31 146l4 21q2 10 0.5 14.5t-9.5 7.5l-20 7l4 15h137 q47 0 74 -18t27 -51q0 -34 -22.5 -57.5t-53.5 -34.5l11 -23q14 -31 23.5 -53t22.5 -29l9 -5l-3 -12q-5 0 -17 -0.5t-22 -1t-11 -0.5q-21 -1 -28.5 8t-13.5 24l-34 82q-10 -1 -13 -1h-24l-8 -39z" />
<glyph unicode="&#xaf;" horiz-adv-x="490" d="M94 615l14 65h288l-14 -65h-288z" />
<glyph unicode="&#xb0;" horiz-adv-x="343" d="M268 428q-45 0 -71.5 25.5t-26.5 69.5q0 38 19 69t50.5 49.5t68.5 18.5q44 0 70.5 -25t26.5 -68q0 -35 -17.5 -67t-48.5 -52t-71 -20zM300 620q-38 0 -61.5 -28.5t-23.5 -61.5q0 -30 17.5 -46t45.5 -16q35 0 58 28.5t23 61.5q0 28 -16 45t-43 17z" />
<glyph unicode="&#xb1;" horiz-adv-x="545" d="M547 363h-156l-31 -146h-88l31 146h-163l16 77q29 1 72 2t91 1l31 147h89l-31 -146q46 1 87.5 1h70.5l4 -6zM488 65h-407l17 78q35 1 89 1.5t114.5 1t115.5 1t90 0.5l5 -6z" />
<glyph unicode="&#xb2;" horiz-adv-x="346" d="M202 382q-40 0 -71 -16l-10 37q104 71 153.5 121t49.5 100q0 27 -16 42.5t-45 15.5q-57 0 -92 -61l-6 3q18 51 57.5 82.5t96.5 31.5q47 0 77 -25.5t30 -66.5q0 -54 -50 -100t-134 -91q-10 -6 -20.5 -12t-21.5 -12q21 6 45 6q29 0 60 -6t52 -6q12 0 20.5 11.5t18.5 30.5 l5 -1q-8 -39 -18 -66q-14 -34 -37 -34q-30 0 -68 8t-76 8z" />
<glyph unicode="&#xb3;" horiz-adv-x="322" d="M383 483q0 -52 -71.5 -83.5t-197.5 -34.5l-2 13q81 11 126 38t45 68q0 26 -19.5 40t-49.5 14q-11 0 -26 -2l-3 18q59 9 91 32.5t32 55.5q0 19 -13 31t-37 12q-27 0 -49 -14t-38 -40l-5 3q15 47 54.5 76t90.5 29q45 0 70.5 -21t25.5 -54q0 -40 -36 -67t-93 -39 q45 -2 75 -22t30 -53z" />
<glyph unicode="&#xb4;" horiz-adv-x="406" d="M313 688q0 -18 -19.5 -37t-51.5 -35.5t-72 -29t-81 -18.5l-6 11q44 38 86.5 80.5t67.5 73.5q35 0 55.5 -12t20.5 -33z" />
<glyph unicode="&#xb6;" horiz-adv-x="598" d="M363 190q-84 0 -142 26.5t-82.5 78t-9.5 125.5q16 75 62 126t115 77.5t153 26.5h211l-1 -12l-43 -11q-14 -4 -19.5 -10.5t-8.5 -20.5l-115 -542q-22 -106 -86.5 -160t-152.5 -54q-81 0 -122 32.5t-29 87.5q8 36 40 62t69 38l6 -5q-10 -10 -15.5 -20.5t-10.5 -24.5 q-19 -56 2 -96t80 -40q56 0 97.5 45.5t58.5 124.5l117 552l4 20h-80l-90 -426h-8z" />
<glyph unicode="&#xb7;" horiz-adv-x="300" d="M202 227q-24 0 -38 13.5t-14 35.5q0 30 22.5 51t50.5 21q23 0 36.5 -12.5t13.5 -33.5q0 -30 -21.5 -52.5t-49.5 -22.5z" />
<glyph unicode="&#xb8;" horiz-adv-x="356" d="M131 -88l-2 5l29 83h35l-15 -43q46 -3 70.5 -19.5t24.5 -42.5q0 -32 -29 -52.5t-72 -30t-86 -10.5l-2 15q38 9 67 25.5t29 39.5q0 27 -49 30z" />
<glyph unicode="&#xb9;" horiz-adv-x="271" d="M309 371h-185v8l37 6q14 3 18 19l66 295l-56 -2l1 7l151 35l5 -4l-76 -331l-3 -14l44 -11z" />
<glyph unicode="&#xba;" horiz-adv-x="405" d="M474 522q0 -65 -28.5 -118.5t-75.5 -84.5t-102 -31q-63 0 -99.5 37t-36.5 101t29 117t76.5 85t103.5 32q64 0 98.5 -39t34.5 -99zM231 402q0 -42 10.5 -66.5t31.5 -24.5t39.5 24.5t32.5 63t21.5 80t7.5 75.5q0 38 -9.5 60.5t-30.5 22.5q-22 0 -40.5 -23.5t-32.5 -60 t-22 -77t-8 -74.5z" />
<glyph unicode="&#xbb;" horiz-adv-x="506" d="M306 228q-55 -39 -113.5 -84.5t-106.5 -86.5l-10 7q31 48 68.5 96t75.5 95q-16 39 -32.5 90t-28.5 102l13 8q33 -53 71 -104.5t68 -83.5l2 -5zM492 228q-55 -39 -113.5 -84.5t-106.5 -86.5l-10 7q31 48 68.5 96t75.5 95q-16 39 -32.5 90t-28.5 102l13 8q33 -53 71 -104.5 t68 -83.5l2 -5z" />
<glyph unicode="&#xbc;" horiz-adv-x="960" d="M753 660h70l-541 -670h-70zM333 288h-185v8l36 6q15 3 19 19l65 295l-55 -2v7l152 35l4 -4l-75 -331l-4 -14l45 -11zM546 118l252 250l53 -8l-49 -231l56 1l-11 -43h-54l-18 -87h-90l18 88l-158 2zM744 287l-158 -163l125 3z" />
<glyph unicode="&#xbd;" horiz-adv-x="960" d="M753 660h70l-541 -670h-70zM333 288h-185v8l36 6q15 3 19 19l65 295l-55 -2v7l152 35l4 -4l-75 -331l-4 -14l45 -11zM657 11q-40 0 -71 -16l-10 37q104 71 153.5 121t49.5 100q0 27 -16 42.5t-45 15.5q-57 0 -92 -61l-6 3q18 51 57.5 82.5t96.5 31.5q47 0 77 -25.5 t30 -66.5q0 -54 -50 -100t-134 -90q-10 -7 -20.5 -13t-21.5 -12q21 6 45 6q29 0 60 -6t52 -6q12 0 20.5 11.5t18.5 30.5l5 -1q-8 -39 -18 -66q-14 -34 -37 -34q-30 0 -68 8t-76 8z" />
<glyph unicode="&#xbe;" horiz-adv-x="960" d="M753 660h70l-541 -670h-70zM391 400q0 -52 -71.5 -83.5t-197.5 -34.5l-2 13q81 11 126 38t45 68q0 26 -19.5 40t-49.5 14q-11 0 -26 -2l-3 18q59 9 91 32.5t32 55.5q0 19 -13 31t-37 12q-27 0 -49 -14t-38 -40l-5 3q15 47 54.5 76t90.5 29q45 0 70.5 -21t25.5 -54 q0 -40 -36 -67t-93 -39q45 -2 75 -22t30 -53zM546 118l252 250l53 -8l-49 -231l56 1l-11 -43h-54l-18 -87h-90l18 88l-158 2zM744 287l-158 -163l125 3z" />
<glyph unicode="&#xbf;" horiz-adv-x="508" d="M273 431q0 34 26 56.5t62 22.5q28 0 45 -13.5t17 -37.5q0 -33 -28 -55.5t-61 -22.5q-29 0 -45 13.5t-16 36.5zM224 -195q-88 0 -145 39t-57 112q0 43 19 77t49 61t64 49t64 41.5t49.5 38.5t19.5 40q0 25 -25 38l3 8q12 1 22 1q33 -2 53.5 -17.5t20.5 -42.5 q0 -33 -21.5 -61t-53.5 -55.5t-63.5 -58t-53 -67t-21.5 -82.5q0 -41 24 -65t66 -24q41 0 71 24.5t46.5 63.5t16.5 83q0 8 -0.5 16t-1.5 16q10 5 21.5 7.5t28.5 2.5q68 0 68 -57q0 -36 -20.5 -69.5t-57 -60t-84 -42.5t-102.5 -16z" />
<glyph unicode="&#xc0;" horiz-adv-x="691" d="M606 724l-9 -9q-51 15 -91 35.5t-63 43.5t-23 45q0 24 19 35.5t48 11.5q7 0 12 -0.5t10 -0.5q14 -32 40.5 -76t56.5 -85zM450 652h64l94 -581q3 -22 11 -31.5t26 -15.5l35 -11l-3 -13h-279l1 13l81 22l-23 161l-233 -1l-92 -162l76 -20l-3 -13h-189l1 13l43 11 q23 6 33.5 17t24.5 33zM243 228l210 -2l-42 296z" />
<glyph unicode="&#xc1;" horiz-adv-x="691" d="M628 838q0 -18 -19 -36.5t-51.5 -35.5t-72 -29.5t-80.5 -17.5l-7 10q45 39 87 81t68 73q34 0 54.5 -12t20.5 -33zM450 652h64l94 -581q3 -22 11 -31.5t26 -15.5l35 -11l-3 -13h-279l1 13l81 22l-23 161l-233 -1l-92 -162l76 -20l-3 -13h-189l1 13l43 11q23 6 33.5 17 t24.5 33zM243 228l210 -2l-42 296z" />
<glyph unicode="&#xc2;" horiz-adv-x="691" d="M638 727l-10 -6q-26 19 -56 39.5t-60 39.5q-32 -18 -71 -39.5t-74 -39.5l-6 8q21 23 44.5 50t44 52t33.5 43l9 5h80q16 -34 33.5 -75t32.5 -77zM450 652h64l94 -581q3 -22 11 -31.5t26 -15.5l35 -11l-3 -13h-279l1 13l81 22l-23 161l-233 -1l-92 -162l76 -20l-3 -13h-189 l1 13l43 11q23 6 33.5 17t24.5 33zM243 228l210 -2l-42 296z" />
<glyph unicode="&#xc3;" horiz-adv-x="691" d="M609 809q14 11 31 26l34 30l8 -4q-12 -52 -40.5 -87t-70.5 -35q-27 0 -58 10.5t-58.5 23t-45.5 17.5q-14 -11 -31.5 -26t-33.5 -30l-8 4q12 54 40.5 88t70.5 34q26 0 56 -11t58 -23t48 -17zM450 652h64l94 -581q3 -22 11 -31.5t26 -15.5l35 -11l-3 -13h-279l1 13l81 22 l-23 161l-233 -1l-92 -162l76 -20l-3 -13h-189l1 13l43 11q23 6 33.5 17t24.5 33zM243 228l210 -2l-42 296z" />
<glyph unicode="&#xc4;" horiz-adv-x="691" d="M471 814q0 -32 -24 -53.5t-55 -21.5q-25 0 -39.5 13t-14.5 35q0 30 25 52t55 22q24 0 38.5 -12.5t14.5 -34.5zM688 814q0 -32 -24 -53.5t-55 -21.5q-25 0 -39.5 13t-14.5 35q0 30 25 52t55 22q24 0 38.5 -12.5t14.5 -34.5zM450 652h64l94 -581q3 -22 11 -31.5t26 -15.5 l35 -11l-3 -13h-279l1 13l81 22l-23 161l-233 -1l-92 -162l76 -20l-3 -13h-189l1 13l43 11q23 6 33.5 17t24.5 33zM243 228l210 -2l-42 296z" />
<glyph unicode="&#xc5;" horiz-adv-x="691" d="M605 813q0 -40 -32.5 -67t-76.5 -27q-35 0 -54.5 17.5t-19.5 48.5q0 39 32 66.5t77 27.5q34 0 54 -18t20 -48zM473 786q0 -34 31 -34q21 0 35.5 17.5t14.5 42.5q-1 34 -31 34q-21 0 -35.5 -17.5t-14.5 -42.5zM450 652h64l94 -581q3 -22 11 -31.5t26 -15.5l35 -11l-3 -13 h-279l1 13l81 22l-23 161l-233 -1l-92 -162l76 -20l-3 -13h-189l1 13l43 11q23 6 33.5 17t24.5 33zM243 228l210 -2l-42 296z" />
<glyph unicode="&#xc6;" horiz-adv-x="866" d="M207 8l-104 -8l-87 5l27 13q11 2 25 9.5t20 18.5q4 1 19 23t36 57t44.5 74t44 74.5t34.5 59.5t16 28l153 255l-78 20l4 13h592q-1 -28 -8.5 -64t-19 -70.5t-23.5 -59.5h-9l-38 162q-22 0 -43.5 0.5t-42.5 0.5h-91l-60 -282l188 8l-10 -47l-184 8l-53 -250l-5 -24l96 -1 q21 0 44 0.5t45 0.5l108 166h9q1 -29 -2 -60q-3 -37 -11.5 -73.5t-18.5 -64.5h-473v13l59 13q11 3 16.5 10.5t7.5 19.5l53 250l-198 -1l-168 -284l44 8zM462 619l-154 -281l185 -2l61 283h-92z" />
<glyph unicode="&#xc7;" horiz-adv-x="602" d="M340 -88l-2 5l25 74q-77 5 -135 37.5t-90.5 90.5t-32.5 140q0 84 29.5 157t83.5 128t128 85.5t163 30.5q104 0 158 -33q-3 -28 -12 -63.5t-20.5 -70.5t-24.5 -60h-9l-34 186q-11 4 -24 6.5t-29 2.5q-58 0 -108 -29.5t-88 -81.5t-59 -118.5t-20 -140.5q0 -112 48.5 -174 t123.5 -62q29 0 53 8l113 189h9q1 -34 -5 -91q-2 -28 -8 -57.5t-14 -51.5q-63 -28 -160 -29l-12 -33q46 -3 70.5 -19.5t24.5 -42.5q0 -32 -29 -52.5t-72 -30t-86 -10.5l-2 15q38 9 67 25.5t29 39.5q0 27 -49 30z" />
<glyph unicode="&#xc8;" horiz-adv-x="555" d="M567 724l-9 -9q-51 15 -91 35.5t-63 43.5t-23 45q0 24 19 35.5t48 11.5q6 0 11.5 -0.5t9.5 -0.5q15 -32 41.5 -76t56.5 -85zM513 0h-473v13l59 13q11 3 16.5 10.5t7.5 19.5l114 539l5 22l-70 20l3 13h466q-1 -28 -8.5 -64t-18.5 -70.5t-24 -59.5h-8l-39 162 q-21 0 -43 0.5t-43 0.5h-90l-5 -24l-54 -252l189 8l-10 -48l-185 9l-54 -256l-5 -24l96 -1q21 0 44 0.5t45 0.5l108 166h9q1 -29 -2 -60q-3 -37 -11.5 -73.5t-18.5 -64.5z" />
<glyph unicode="&#xc9;" horiz-adv-x="555" d="M589 838q0 -18 -19.5 -36.5t-51.5 -35.5t-72 -29.5t-81 -17.5l-6 10q44 39 86.5 81t67.5 73q35 0 55.5 -12t20.5 -33zM513 0h-473v13l59 13q11 3 16.5 10.5t7.5 19.5l114 539l5 22l-70 21l3 13h466q-1 -29 -8.5 -65t-18.5 -70.5t-24 -59.5h-8l-39 162q-21 1 -43 1h-43 h-90l-5 -24l-54 -252l189 8l-10 -48l-185 9l-54 -256l-5 -24h96h44h45l108 166h9q1 -29 -2 -60q-3 -37 -11.5 -73.5t-18.5 -64.5z" />
<glyph unicode="&#xca;" horiz-adv-x="555" d="M598 727l-10 -6q-25 19 -55 39.5t-60 39.5q-32 -18 -71 -39.5t-74 -39.5l-7 8q22 23 45.5 50t44 52t33.5 43l9 5h79q17 -34 34 -75t32 -77zM513 0h-473v13l59 13q11 3 16.5 10.5t7.5 19.5l114 539l5 22l-70 20l3 13h466q-1 -28 -8.5 -64t-18.5 -70.5t-24 -59.5h-8 l-39 162q-21 0 -43 0.5t-43 0.5h-90l-5 -24l-54 -252l189 8l-10 -48l-185 9l-54 -256l-5 -24l96 -1q21 0 44 0.5t45 0.5l108 166h9q1 -29 -2 -60q-3 -37 -11.5 -73.5t-18.5 -64.5z" />
<glyph unicode="&#xcb;" horiz-adv-x="555" d="M432 814q0 -32 -24 -53.5t-56 -21.5q-25 0 -39 13t-14 35q0 30 24.5 52t55.5 22q24 0 38.5 -12.5t14.5 -34.5zM649 814q0 -32 -24 -53.5t-56 -21.5q-25 0 -39 13t-14 35q0 30 24.5 52t55.5 22q24 0 38.5 -12.5t14.5 -34.5zM513 0h-473v13l59 13q11 3 16.5 10.5t7.5 19.5 l114 539l5 22l-70 20l3 13h466q-1 -28 -8.5 -64t-18.5 -70.5t-24 -59.5h-8l-39 162q-21 0 -43 0.5t-43 0.5h-90l-5 -24l-54 -252l189 8l-10 -48l-185 9l-54 -256l-5 -24l96 -1q21 0 44 0.5t45 0.5l108 166h9q1 -29 -2 -60q-3 -37 -11.5 -73.5t-18.5 -64.5z" />
<glyph unicode="&#xcc;" horiz-adv-x="346" d="M437 724l-9 -9q-51 15 -91 35.5t-63 43.5t-23 45q0 24 19 35.5t48 11.5q6 0 11.5 -0.5t9.5 -0.5q15 -32 41.5 -76t56.5 -85zM310 0h-270v13l56 12q13 3 18.5 10.5t8.5 20.5l114 539l5 22l-70 20l3 13h270v-13l-56 -11q-14 -4 -19 -11.5t-8 -19.5l-114 -539l-5 -22l70 -21 z" />
<glyph unicode="&#xcd;" horiz-adv-x="346" d="M459 838q0 -18 -19.5 -36.5t-51.5 -35.5t-72 -29.5t-81 -17.5l-6 10q44 39 86.5 81t67.5 73q35 0 55.5 -12t20.5 -33zM310 0h-270v13l56 12q13 3 18.5 10.5t8.5 20.5l114 539l5 22l-70 20l3 13h270v-13l-56 -11q-14 -4 -19 -11.5t-8 -19.5l-114 -539l-5 -22l70 -21z" />
<glyph unicode="&#xce;" horiz-adv-x="346" d="M468 727l-10 -6q-25 19 -55 39.5t-60 39.5q-32 -18 -71 -39.5t-74 -39.5l-7 8q22 23 45.5 50t44 52t33.5 43l9 5h79q17 -34 34 -75t32 -77zM310 0h-270v13l56 12q13 3 18.5 10.5t8.5 20.5l114 539l5 22l-70 20l3 13h270v-13l-56 -11q-14 -4 -19 -11.5t-8 -19.5l-114 -539 l-5 -22l70 -21z" />
<glyph unicode="&#xcf;" horiz-adv-x="346" d="M302 814q0 -32 -24 -53.5t-56 -21.5q-25 0 -39 13t-14 35q0 30 24.5 52t55.5 22q24 0 38.5 -12.5t14.5 -34.5zM519 814q0 -32 -24 -53.5t-56 -21.5q-25 0 -39 13t-14 35q0 30 24.5 52t55.5 22q24 0 38.5 -12.5t14.5 -34.5zM310 0h-270v13l56 12q13 3 18.5 10.5t8.5 20.5 l114 539l5 22l-70 20l3 13h270v-13l-56 -11q-14 -4 -19 -11.5t-8 -19.5l-114 -539l-5 -22l70 -21z" />
<glyph unicode="&#xd0;" horiz-adv-x="680" d="M442 312h-140l-55 -256l-5 -25h62q71 0 124.5 35.5t90.5 93.5t55.5 126.5t18.5 134.5q0 198 -176 198h-50l-5 -24l-54 -254h140zM303 0h-263l-1 13l59 13q12 3 17 10.5t7 19.5l55 256h-74l6 29h74l54 254l5 22l-70 20l3 13h254q136 0 211.5 -62t75.5 -181 q0 -82 -28 -155.5t-81.5 -130t-130 -89t-173.5 -32.5z" />
<glyph unicode="&#xd1;" horiz-adv-x="686" d="M608 809q14 11 31 26l34 30l8 -4q-12 -52 -40.5 -87t-70.5 -35q-27 0 -58 10.5t-58.5 23t-45.5 17.5q-14 -11 -31.5 -26t-33.5 -30l-8 4q12 54 40.5 88t70.5 34q26 0 56 -11t58 -23t48 -17zM238 1h-202v13l64 13q14 4 19 10t8 19l120 562l-78 20l3 12h168l223 -516 l99 461l5 22l-84 20l4 13h201v-13l-63 -13q-15 -4 -20 -10.5t-8 -18.5l-126 -595h-86l-224 520l-98 -464l-5 -22l83 -20z" />
<glyph unicode="&#xd2;" horiz-adv-x="643" d="M585 724l-9 -9q-51 15 -91 35.5t-63 43.5t-23 45q0 24 19 35.5t48 11.5q7 0 12 -0.5t10 -0.5q14 -32 40.5 -76t56.5 -85zM680 414q0 -84 -27 -160t-74.5 -135.5t-111 -94t-137.5 -34.5q-111 0 -170 67t-59 176q0 85 27.5 162t76 136.5t112.5 94t138 34.5q108 0 166.5 -67 t58.5 -179zM235 177q0 -76 25.5 -115.5t70.5 -39.5q35 0 67 28.5t59 77t47 108t31 123t11 121.5q0 69 -23.5 109t-70.5 40q-36 0 -68.5 -28.5t-59.5 -76t-47 -107t-31 -121.5t-11 -119z" />
<glyph unicode="&#xd3;" horiz-adv-x="643" d="M606 838q0 -18 -19 -36.5t-51.5 -35.5t-72 -29.5t-80.5 -17.5l-7 10q45 39 87 81t68 73q34 0 54.5 -12t20.5 -33zM680 414q0 -84 -27 -160t-74.5 -135.5t-111 -94t-137.5 -34.5q-111 0 -170 67t-59 176q0 85 27.5 162t76 136.5t112.5 94t138 34.5q108 0 166.5 -67 t58.5 -179zM235 177q0 -76 25.5 -115.5t70.5 -39.5q35 0 67 28.5t59 77t47 108t31 123t11 121.5q0 69 -23.5 109t-70.5 40q-36 0 -68.5 -28.5t-59.5 -76t-47 -107t-31 -121.5t-11 -119z" />
<glyph unicode="&#xd4;" horiz-adv-x="643" d="M616 727l-10 -6q-26 19 -56 39.5t-60 39.5q-32 -18 -71 -39.5t-74 -39.5l-6 8q21 23 44.5 50t44 52t33.5 43l9 5h80q16 -34 33.5 -75t32.5 -77zM680 414q0 -84 -27 -160t-74.5 -135.5t-111 -94t-137.5 -34.5q-111 0 -170 67t-59 176q0 85 27.5 162t76 136.5t112.5 94 t138 34.5q108 0 166.5 -67t58.5 -179zM235 177q0 -76 25.5 -115.5t70.5 -39.5q35 0 67 28.5t59 77t47 108t31 123t11 121.5q0 69 -23.5 109t-70.5 40q-36 0 -68.5 -28.5t-59.5 -76t-47 -107t-31 -121.5t-11 -119z" />
<glyph unicode="&#xd5;" horiz-adv-x="643" d="M587 809q14 11 31 26l34 30l8 -4q-12 -52 -40.5 -87t-70.5 -35q-27 0 -58 10.5t-58.5 23t-45.5 17.5q-14 -11 -31.5 -26t-33.5 -30l-8 4q12 54 40.5 88t70.5 34q26 0 56 -11t58 -23t48 -17zM680 414q0 -84 -27 -160t-74.5 -135.5t-111 -94t-137.5 -34.5q-111 0 -170 67 t-59 176q0 85 27.5 162t76 136.5t112.5 94t138 34.5q108 0 166.5 -67t58.5 -179zM235 177q0 -76 25.5 -115.5t70.5 -39.5q35 0 67 28.5t59 77t47 108t31 123t11 121.5q0 69 -23.5 109t-70.5 40q-36 0 -68.5 -28.5t-59.5 -76t-47 -107t-31 -121.5t-11 -119z" />
<glyph unicode="&#xd6;" horiz-adv-x="643" d="M449 814q0 -32 -24 -53.5t-55 -21.5q-25 0 -39.5 13t-14.5 35q0 30 25 52t55 22q24 0 38.5 -12.5t14.5 -34.5zM666 814q0 -32 -24 -53.5t-55 -21.5q-25 0 -39.5 13t-14.5 35q0 30 25 52t55 22q24 0 38.5 -12.5t14.5 -34.5zM680 414q0 -84 -27 -160t-74.5 -135.5t-111 -94 t-137.5 -34.5q-111 0 -170 67t-59 176q0 85 27.5 162t76 136.5t112.5 94t138 34.5q108 0 166.5 -67t58.5 -179zM235 177q0 -76 25.5 -115.5t70.5 -39.5q35 0 67 28.5t59 77t47 108t31 123t11 121.5q0 69 -23.5 109t-70.5 40q-36 0 -68.5 -28.5t-59.5 -76t-47 -107 t-31 -121.5t-11 -119z" />
<glyph unicode="&#xd7;" horiz-adv-x="499" d="M416 128l-108 138l-166 -139l-46 59l166 140l-110 143l68 55q20 -24 49.5 -61t61.5 -78l165 139l48 -59l-166 -140q32 -40 60 -76.5t48 -61.5l-2 -9z" />
<glyph unicode="&#xd8;" horiz-adv-x="643" d="M680 414q0 -84 -27 -160t-74.5 -135.5t-111 -94t-137.5 -34.5q-55 0 -97.5 17.5t-71.5 48.5l-62 -66l-26 26l66 70q-38 60 -38 147q0 85 27.5 162t76 136.5t112.5 94t138 34.5q52 0 93 -16.5t70 -47.5l60 64l27 -25l-64 -69q39 -61 39 -152zM452 628q-35 0 -67 -27 t-58.5 -73t-46.5 -103t-32 -118.5t-13 -117.5l309 328q-6 52 -29 82t-63 29zM331 21q34 0 65.5 27.5t58 74t46.5 104t31.5 119.5t12.5 119l-308 -328q13 -115 94 -116z" />
<glyph unicode="&#xd9;" horiz-adv-x="670" d="M617 724l-9 -9q-51 15 -91 35.5t-63 43.5t-23 45q0 24 19 35.5t48 11.5q6 0 11.5 -0.5t9.5 -0.5q15 -32 41.5 -76t56.5 -85zM616 231q-27 -125 -93.5 -183t-167.5 -58q-98 0 -153 50t-55 139q0 28 7 61l76 355l5 22l-71 20l4 13h270v-13l-56 -11q-14 -4 -19.5 -11.5 t-7.5 -19.5l-77 -362q-4 -18 -6 -34t-2 -30q0 -67 34 -100.5t91 -33.5q65 0 115 49t71 148l77 364l5 21l-79 20l3 13h198v-13l-87 -20l-5 -21z" />
<glyph unicode="&#xda;" horiz-adv-x="670" d="M644 838q0 -18 -19.5 -36.5t-51.5 -35.5t-72 -29.5t-81 -17.5l-6 10q44 39 86.5 81t67.5 73q35 0 55.5 -12t20.5 -33zM616 231q-27 -125 -93.5 -183t-167.5 -58q-98 0 -153 50t-55 139q0 28 7 61l76 355l5 22l-71 20l4 13h270v-13l-56 -11q-14 -4 -19.5 -11.5t-7.5 -19.5 l-77 -362q-4 -18 -6 -34t-2 -30q0 -67 34 -100.5t91 -33.5q65 0 115 49t71 148l77 364l5 21l-79 20l3 13h198v-13l-87 -20l-5 -21z" />
<glyph unicode="&#xdb;" horiz-adv-x="670" d="M653 727l-10 -6q-25 19 -55 39.5t-60 39.5q-32 -18 -71 -39.5t-74 -39.5l-7 8q22 23 45.5 50t44 52t33.5 43l9 5h79q17 -34 34 -75t32 -77zM616 231q-27 -125 -93.5 -183t-167.5 -58q-98 0 -153 50t-55 139q0 28 7 61l76 355l5 22l-71 20l4 13h270v-13l-56 -11 q-14 -4 -19.5 -11.5t-7.5 -19.5l-77 -362q-4 -18 -6 -34t-2 -30q0 -67 34 -100.5t91 -33.5q65 0 115 49t71 148l77 364l5 21l-79 20l3 13h198v-13l-87 -20l-5 -21z" />
<glyph unicode="&#xdc;" horiz-adv-x="670" d="M487 814q0 -32 -24 -53.5t-56 -21.5q-25 0 -39 13t-14 35q0 30 24.5 52t55.5 22q24 0 38.5 -12.5t14.5 -34.5zM704 814q0 -32 -24 -53.5t-56 -21.5q-25 0 -39 13t-14 35q0 30 24.5 52t55.5 22q24 0 38.5 -12.5t14.5 -34.5zM616 231q-27 -125 -93.5 -183t-167.5 -58 q-98 0 -153 50t-55 139q0 28 7 61l76 355l5 22l-71 20l4 13h270v-13l-56 -11q-14 -4 -19.5 -11.5t-7.5 -19.5l-77 -362q-4 -18 -6 -34t-2 -30q0 -67 34 -100.5t91 -33.5q65 0 115 49t71 148l77 364l5 21l-79 20l3 13h198v-13l-87 -20l-5 -21z" />
<glyph unicode="&#xdd;" horiz-adv-x="594" d="M593 838q0 -18 -19.5 -36.5t-51.5 -35.5t-72 -29.5t-81 -17.5l-6 10q44 39 86.5 81t67.5 73q35 0 55.5 -12t20.5 -33zM434 0h-270v13l56 12q14 3 19 10.5t8 20.5l24 114q9 40 10.5 94.5t-3 111t-14 105t-24 79t-32.5 30.5q-14 0 -30 -14.5t-32 -36.5t-31 -45l-10 4 q13 37 37 74.5t55.5 62.5t68.5 25t63.5 -31.5t43.5 -86t23 -124.5t2 -148q43 112 89.5 200t88.5 139t75 51q26 0 39 -23t18.5 -57.5t7.5 -70.5l-10 -5q-11 37 -21.5 62.5t-30.5 25.5q-21 0 -50.5 -31t-62.5 -81.5t-63.5 -110.5t-54 -120t-33.5 -107l-18 -86l-5 -22l71 -21z " />
<glyph unicode="&#xde;" horiz-adv-x="591" d="M247 55h-7l-2 -23l99 -20l-2 -12h-296l-1 12l53 11q14 4 18.5 11t5.5 21h7l115 540l5 22l-70 20l3 13h270v-13l-56 -11q-14 -4 -19 -11.5t-8 -19.5l-14 -67h57q105 0 170.5 -40.5t65.5 -126.5q0 -71 -41 -124t-112.5 -82t-163.5 -29h-62zM388 497h-47l-72 -340h46 q61 0 105.5 30.5t69 81t24.5 108.5q0 62 -34.5 91t-91.5 29z" />
<glyph unicode="&#xdf;" horiz-adv-x="532" d="M202 34q-24 -115 -85.5 -172t-138.5 -57q-48 0 -77.5 20t-29.5 48q0 19 14.5 30.5t35.5 15.5q8 -20 22 -42t38 -22q36 0 57.5 39t40.5 127l89 421q24 124 88 188.5t169 64.5q63 0 100.5 -32.5t37.5 -89.5q0 -63 -42.5 -110.5t-116.5 -64.5q74 -35 107.5 -88t33.5 -117 q0 -59 -24.5 -104.5t-66 -71t-92.5 -25.5q-45 0 -72.5 18.5t-27.5 48.5q0 33 32 43q7 -27 22 -42.5t33 -15.5q33 0 55.5 42t22.5 108t-23 115t-67 82l4 20q36 6 62.5 30.5t42 60.5t15.5 77q0 39 -14 60.5t-40 21.5q-34 0 -63.5 -46t-46.5 -133z" />
<glyph unicode="&#xe0;" horiz-adv-x="526" d="M491 574l-9 -10q-51 15 -91 35.5t-63 43.5t-23 45q0 24 19 35.5t48 11.5q7 0 12 -0.5t10 -0.5q14 -32 40.5 -75.5t56.5 -84.5zM70 117q0 68 23 137.5t65.5 127.5t102 93t132.5 35q44 0 86 -9t71 -23l-24 -81l-56 -254q-5 -23 -8 -40.5t-3 -27.5q0 -14 9 -14q12 0 37 30 t51 66l8 -5q-15 -38 -39.5 -75.5t-55 -62t-65.5 -24.5q-64 0 -64 78q0 15 3 34t7 41l30 131q-50 -133 -108.5 -208.5t-110.5 -75.5q-46 0 -68.5 36.5t-22.5 90.5zM412 418l12 49q-23 14 -50 14q-28 -1 -55 -25t-51 -64t-42 -88t-28.5 -96t-10.5 -87q0 -28 6 -44.5t22 -16.5 t41 29.5t53 80.5t55 115.5t48 132.5z" />
<glyph unicode="&#xe1;" horiz-adv-x="526" d="M515 688q0 -18 -19 -37t-51.5 -35.5t-72 -29t-80.5 -18.5l-7 11q45 38 87 80.5t68 73.5q34 0 54.5 -12t20.5 -33zM70 117q0 68 23 137.5t65.5 127.5t102 93t132.5 35q44 0 86 -9t71 -23l-24 -81l-56 -254q-5 -23 -8 -40.5t-3 -27.5q0 -14 9 -14q12 0 37 30t51 66l8 -5 q-15 -38 -39.5 -75.5t-55 -62t-65.5 -24.5q-64 0 -64 78q0 15 3 34t7 41l30 131q-50 -133 -108.5 -208.5t-110.5 -75.5q-46 0 -68.5 36.5t-22.5 90.5zM412 418l12 49q-23 14 -50 14q-28 -1 -55 -25t-51 -64t-42 -88t-28.5 -96t-10.5 -87q0 -28 6 -44.5t22 -16.5t41 29.5 t53 80.5t55 115.5t48 132.5z" />
<glyph unicode="&#xe2;" horiz-adv-x="526" d="M527 577l-10 -6q-25 19 -55 39.5t-60 39.5q-32 -18 -71 -39.5t-74 -39.5l-7 8q22 23 45.5 50t44 52t33.5 43l9 5h79q17 -34 34 -75t32 -77zM70 117q0 68 23 137.5t65.5 127.5t102 93t132.5 35q44 0 86 -9t71 -23l-24 -81l-56 -254q-5 -23 -8 -40.5t-3 -27.5q0 -14 9 -14 q12 0 37 30t51 66l8 -5q-15 -38 -39.5 -75.5t-55 -62t-65.5 -24.5q-64 0 -64 78q0 15 3 34t7 41l30 131q-50 -133 -108.5 -208.5t-110.5 -75.5q-46 0 -68.5 36.5t-22.5 90.5zM412 418l12 49q-23 14 -50 14q-28 -1 -55 -25t-51 -64t-42 -88t-28.5 -96t-10.5 -87 q0 -28 6 -44.5t22 -16.5t41 29.5t53 80.5t55 115.5t48 132.5z" />
<glyph unicode="&#xe3;" horiz-adv-x="526" d="M497 659q14 11 31 26l34 30l8 -4q-12 -52 -40.5 -87t-70.5 -35q-27 0 -58 10.5t-58.5 23t-45.5 17.5q-14 -11 -31.5 -26t-33.5 -30l-8 4q12 54 40.5 88t70.5 34q26 0 56 -11t58 -23t48 -17zM70 117q0 68 23 137.5t65.5 127.5t102 93t132.5 35q44 0 86 -9t71 -23l-24 -81 l-56 -254q-5 -23 -8 -40.5t-3 -27.5q0 -14 9 -14q12 0 37 30t51 66l8 -5q-15 -38 -39.5 -75.5t-55 -62t-65.5 -24.5q-64 0 -64 78q0 15 3 34t7 41l30 131q-50 -133 -108.5 -208.5t-110.5 -75.5q-46 0 -68.5 36.5t-22.5 90.5zM412 418l12 49q-23 14 -50 14q-28 -1 -55 -25 t-51 -64t-42 -88t-28.5 -96t-10.5 -87q0 -28 6 -44.5t22 -16.5t41 29.5t53 80.5t55 115.5t48 132.5z" />
<glyph unicode="&#xe4;" horiz-adv-x="526" d="M357 664q0 -32 -24 -53.5t-55 -21.5q-25 0 -39.5 13t-14.5 35q0 30 25 52t55 22q24 0 38.5 -12.5t14.5 -34.5zM574 664q0 -32 -24 -53.5t-55 -21.5q-25 0 -39.5 13t-14.5 35q0 30 25 52t55 22q24 0 38.5 -12.5t14.5 -34.5zM70 117q0 68 23 137.5t65.5 127.5t102 93 t132.5 35q44 0 86 -9t71 -23l-24 -81l-56 -254q-5 -23 -8 -40.5t-3 -27.5q0 -14 9 -14q12 0 37 30t51 66l8 -5q-15 -38 -39.5 -75.5t-55 -62t-65.5 -24.5q-64 0 -64 78q0 15 3 34t7 41l30 131q-50 -133 -108.5 -208.5t-110.5 -75.5q-46 0 -68.5 36.5t-22.5 90.5zM412 418 l12 49q-23 14 -50 14q-28 -1 -55 -25t-51 -64t-42 -88t-28.5 -96t-10.5 -87q0 -28 6 -44.5t22 -16.5t41 29.5t53 80.5t55 115.5t48 132.5z" />
<glyph unicode="&#xe5;" horiz-adv-x="526" d="M490 665q0 -40 -32 -67.5t-76 -27.5q-35 0 -55 17.5t-20 48.5q0 40 32 67.5t77 27.5q35 0 54.5 -18t19.5 -48zM358 638q1 -34 32 -34q21 0 35 17t14 43q-1 33 -31 33q-21 0 -35.5 -17t-14.5 -42zM70 117q0 68 23 137.5t65.5 127.5t102 93t132.5 35q44 0 86 -9t71 -23 l-24 -81l-56 -254q-5 -23 -8 -40.5t-3 -27.5q0 -14 9 -14q12 0 37 30t51 66l8 -5q-15 -38 -39.5 -75.5t-55 -62t-65.5 -24.5q-64 0 -64 78q0 15 3 34t7 41l30 131q-50 -133 -108.5 -208.5t-110.5 -75.5q-46 0 -68.5 36.5t-22.5 90.5zM412 418l12 49q-23 14 -50 14 q-28 -1 -55 -25t-51 -64t-42 -88t-28.5 -96t-10.5 -87q0 -28 6 -44.5t22 -16.5t41 29.5t53 80.5t55 115.5t48 132.5z" />
<glyph unicode="&#xe6;" horiz-adv-x="692" d="M725 155q-18 -45 -50 -82.5t-73 -60t-86 -22.5q-70 0 -111.5 48t-42.5 130q1 42 10 85q-49 -123 -105 -193t-106 -70q-46 0 -68.5 36.5t-22.5 90.5q0 68 23 137.5t65.5 127.5t102 93t132.5 35q39 0 75.5 -7t65.5 -18q46 25 96 25q53 0 88 -27t35 -77q0 -56 -33 -98.5 t-92.5 -67.5t-138.5 -28v-17q0 -63 22 -96.5t63 -33.5q36 0 74 27t70 68zM187 121q0 -28 6 -44.5t22 -16.5t41 29.5t53 80.5t55 115.5t48 132.5h-1l13 49q-23 14 -50 14q-28 -1 -55 -25t-51 -64t-42 -88t-28.5 -96t-10.5 -87zM621 480q-22 0 -43 -21t-39 -56.5t-31 -79 t-17 -86.5q49 6 86 36t57.5 73t20.5 92q0 17 -8 29.5t-26 12.5z" />
<glyph unicode="&#xe7;" horiz-adv-x="430" d="M187 -88l-2 5l26 74q-55 8 -92.5 52.5t-37.5 124.5q0 65 21.5 126.5t59 110t86 77t101.5 28.5q59 0 91.5 -31.5t32.5 -79.5q0 -38 -21.5 -67t-55.5 -29q-13 0 -24.5 2t-20.5 6q9 27 16.5 58t7.5 55q0 27 -8 41.5t-28 14.5q-25 0 -48.5 -26.5t-42.5 -69.5t-30 -91.5 t-11 -92.5q0 -66 23 -100.5t63 -34.5q39 0 76.5 29t66.5 66l7 -5q-16 -40 -45.5 -76.5t-68.5 -60.5t-83 -27l-12 -34q46 -3 70.5 -19.5t24.5 -42.5q0 -32 -29 -52.5t-72 -30t-86 -10.5l-2 15q38 9 67 25.5t29 39.5q0 27 -49 30z" />
<glyph unicode="&#xe8;" horiz-adv-x="425" d="M466 574l-9 -10q-51 15 -91 35.5t-63 43.5t-23 45q0 24 19 35.5t48 11.5q6 0 11.5 -0.5t9.5 -0.5q15 -32 41.5 -75.5t56.5 -84.5zM443 155q-18 -45 -50 -82.5t-73 -60t-86 -22.5q-70 0 -111.5 48t-41.5 130q0 64 20.5 125.5t57.5 110t85.5 77.5t103.5 29q53 0 88 -27 t35 -77q0 -56 -33 -98.5t-92.5 -67.5t-138.5 -28v-17q0 -63 22 -96.5t63 -33.5q36 0 74 27t70 68zM339 480q-22 0 -43 -21t-39 -56.5t-31 -79t-17 -86.5q49 6 86 36t57.5 73t20.5 92q0 17 -8 29.5t-26 12.5z" />
<glyph unicode="&#xe9;" horiz-adv-x="425" d="M490 688q0 -18 -19.5 -37t-51.5 -35.5t-72 -29t-81 -18.5l-6 11q44 38 86.5 80.5t67.5 73.5q35 0 55.5 -12t20.5 -33zM443 155q-18 -45 -50 -82.5t-73 -60t-86 -22.5q-70 0 -111.5 48t-41.5 130q0 64 20.5 125.5t57.5 110t85.5 77.5t103.5 29q53 0 88 -27t35 -77 q0 -56 -33 -98.5t-92.5 -67.5t-138.5 -28v-17q0 -63 22 -96.5t63 -33.5q36 0 74 27t70 68zM339 480q-22 0 -43 -21t-39 -56.5t-31 -79t-17 -86.5q49 6 86 36t57.5 73t20.5 92q0 17 -8 29.5t-26 12.5z" />
<glyph unicode="&#xea;" horiz-adv-x="425" d="M502 577l-10 -6q-26 19 -56 39.5t-60 39.5q-32 -18 -71 -39.5t-74 -39.5l-6 8q21 23 44.5 50t44 52t33.5 43l9 5h80q16 -34 33.5 -75t32.5 -77zM443 155q-18 -45 -50 -82.5t-73 -60t-86 -22.5q-70 0 -111.5 48t-41.5 130q0 64 20.5 125.5t57.5 110t85.5 77.5t103.5 29 q53 0 88 -27t35 -77q0 -56 -33 -98.5t-92.5 -67.5t-138.5 -28v-17q0 -63 22 -96.5t63 -33.5q36 0 74 27t70 68zM339 480q-22 0 -43 -21t-39 -56.5t-31 -79t-17 -86.5q49 6 86 36t57.5 73t20.5 92q0 17 -8 29.5t-26 12.5z" />
<glyph unicode="&#xeb;" horiz-adv-x="424" d="M332 664q0 -32 -24 -53.5t-56 -21.5q-25 0 -39 13t-14 35q0 30 24.5 52t55.5 22q24 0 38.5 -12.5t14.5 -34.5zM549 664q0 -32 -24 -53.5t-56 -21.5q-25 0 -39 13t-14 35q0 30 24.5 52t55.5 22q24 0 38.5 -12.5t14.5 -34.5zM443 155q-18 -45 -50 -82.5t-73 -60t-86 -22.5 q-70 0 -111.5 48t-41.5 130q0 64 20.5 125.5t57.5 110t85.5 77.5t103.5 29q53 0 88 -27t35 -77q0 -56 -33 -98.5t-92.5 -67.5t-138.5 -28v-17q0 -63 22 -96.5t63 -33.5q36 0 74 27t70 68zM339 480q-22 0 -43 -21t-39 -56.5t-31 -79t-17 -86.5q49 6 86 36t57.5 73t20.5 92 q0 17 -8 29.5t-26 12.5z" />
<glyph unicode="&#xec;" horiz-adv-x="290" d="M367 574l-9 -10q-51 15 -91 35.5t-63 43.5t-23 45q0 24 19 35.5t48 11.5q6 0 11.5 -0.5t9.5 -0.5q15 -32 41.5 -75.5t56.5 -84.5zM114 143q11 51 26.5 110.5t25.5 104.5q5 22 8.5 39.5t3.5 27.5q0 15 -9 15q-13 0 -38 -30t-51 -66l-7 4q14 38 38.5 75.5t55.5 62t66 24.5 q63 0 63 -77q0 -16 -2.5 -35t-7.5 -40q-10 -49 -25.5 -109t-26.5 -106q-5 -23 -8 -40.5t-3 -27.5q0 -14 9 -14q12 0 37 30t51 66l8 -5q-15 -38 -39.5 -75.5t-55 -62t-65.5 -24.5q-64 0 -64 78q0 15 3 34t7 41z" />
<glyph unicode="&#xed;" horiz-adv-x="290" d="M391 688q0 -18 -19.5 -37t-51.5 -35.5t-72 -29t-81 -18.5l-6 11q44 38 86.5 80.5t67.5 73.5q35 0 55.5 -12t20.5 -33zM114 143q11 51 26.5 110.5t25.5 104.5q5 22 8.5 39.5t3.5 27.5q0 15 -9 15q-13 0 -38 -30t-51 -66l-7 4q14 38 38.5 75.5t55.5 62t66 24.5q63 0 63 -77 q0 -16 -2.5 -35t-7.5 -40q-10 -49 -25.5 -109t-26.5 -106q-5 -23 -8 -40.5t-3 -27.5q0 -14 9 -14q12 0 37 30t51 66l8 -5q-15 -38 -39.5 -75.5t-55 -62t-65.5 -24.5q-64 0 -64 78q0 15 3 34t7 41z" />
<glyph unicode="&#xee;" horiz-adv-x="290" d="M379 577l-10 -6q-22 18 -46.5 38t-49.5 38q-28 -17 -61.5 -38t-63.5 -38l-6 8q18 23 37.5 50t36.5 52t28 43l9 5h80q11 -34 23 -75t23 -77zM114 143q11 51 26.5 110.5t25.5 104.5q5 22 8.5 39.5t3.5 27.5q0 15 -9 15q-13 0 -38 -30t-51 -66l-7 4q14 38 38.5 75.5t55.5 62 t66 24.5q63 0 63 -77q0 -16 -2.5 -35t-7.5 -40q-10 -49 -25.5 -109t-26.5 -106q-5 -23 -8 -40.5t-3 -27.5q0 -14 9 -14q12 0 37 30t51 66l8 -5q-15 -38 -39.5 -75.5t-55 -62t-65.5 -24.5q-64 0 -64 78q0 15 3 34t7 41z" />
<glyph unicode="&#xef;" horiz-adv-x="290" d="M241 663q0 -28 -20 -50.5t-47 -22.5q-21 0 -32.5 12.5t-11.5 35.5q0 28 20.5 50.5t47.5 22.5q20 0 31.5 -13t11.5 -35zM419 663q0 -28 -20.5 -50.5t-47.5 -22.5q-20 0 -31.5 12.5t-11.5 35.5q0 28 20 50.5t48 22.5q19 0 31 -13t12 -35zM114 143q11 51 26.5 110.5 t25.5 104.5q5 22 8.5 39.5t3.5 27.5q0 15 -9 15q-13 0 -38 -30t-51 -66l-7 4q14 38 38.5 75.5t55.5 62t66 24.5q63 0 63 -77q0 -16 -2.5 -35t-7.5 -40q-10 -49 -25.5 -109t-26.5 -106q-5 -23 -8 -40.5t-3 -27.5q0 -14 9 -14q12 0 37 30t51 66l8 -5q-15 -38 -39.5 -75.5 t-55 -62t-65.5 -24.5q-64 0 -64 78q0 15 3 34t7 41z" />
<glyph unicode="&#xf0;" horiz-adv-x="500" d="M501 697l-100 -48q124 -101 125 -311q0 -73 -21 -136t-57.5 -111t-85 -74.5t-103.5 -26.5q-82 0 -128.5 51t-46.5 141q0 67 21 126.5t57 104.5t82.5 71t97.5 26q29 0 52 -10q-15 71 -52 122l-175 -84l-11 27l167 80q-34 38 -88 71l6 12q78 -22 133 -59l115 55zM209 150 q0 -59 14 -93.5t42 -34.5q22 0 42.5 22.5t37 59.5t28.5 82t19 90t7 84q0 54 -12.5 86t-41.5 32q-28 0 -53 -32t-43.5 -83t-29 -107.5t-10.5 -105.5z" />
<glyph unicode="&#xf1;" horiz-adv-x="556" d="M502 659q14 11 31.5 26t33.5 30l9 -4q-13 -52 -41 -87t-70 -35q-27 0 -58 10.5t-59 23t-45 17.5q-15 -11 -32 -26t-33 -30l-9 4q12 54 41 88t70 34q27 0 57 -11t57.5 -23t47.5 -17zM207 -1q-5 -1 -21 -2t-35.5 -2.5t-35 -2t-17.5 -0.5q-14 0 -10 11l29 140l14 64l22 104 q20 95 20 112t-9 17q-15 0 -39 -30t-48 -66l-8 4q13 38 36 75.5t54 62t66 24.5q27 0 44.5 -16t17.5 -50q0 -33 -13.5 -93.5t-29.5 -124.5q53 132 115.5 208t123.5 76q37 0 57 -22t20 -58q0 -24 -6.5 -59t-16 -75.5t-20 -80t-17.5 -72.5q-6 -23 -9 -40.5t-3 -27.5 q0 -14 9 -14q12 0 37.5 30t51.5 66l7 -5q-15 -38 -39 -75.5t-55 -62t-66 -24.5q-63 0 -63 78q0 15 2.5 34t7.5 41q9 46 22.5 97.5t24.5 96.5t11 71q0 11 -4.5 19t-15.5 8q-23 0 -55 -38.5t-65.5 -104.5t-60.5 -149z" />
<glyph unicode="&#xf2;" horiz-adv-x="502" d="M483 574l-9 -10q-51 15 -91 35.5t-63 43.5t-23 45q0 24 19 35.5t48 11.5q7 0 12 -0.5t10 -0.5q14 -32 40.5 -75.5t56.5 -84.5zM524 319q0 -69 -21.5 -129t-58.5 -105t-84.5 -70t-100.5 -25q-82 0 -128.5 52t-46.5 140q0 67 21.5 126.5t59 104.5t86 71t102.5 26 q83 0 127 -54t44 -137zM209 150q0 -59 13.5 -93.5t41.5 -34.5q23 0 43 22.5t37 59.5t29 82t18.5 90t6.5 84q0 54 -12.5 86t-40.5 32q-29 0 -53.5 -32t-43.5 -83t-29 -107.5t-10 -105.5z" />
<glyph unicode="&#xf3;" horiz-adv-x="502" d="M507 688q0 -18 -19 -37t-51.5 -35.5t-72 -29t-80.5 -18.5l-7 11q45 38 87 80.5t68 73.5q34 0 54.5 -12t20.5 -33zM524 319q0 -69 -21.5 -129t-58.5 -105t-84.5 -70t-100.5 -25q-82 0 -128.5 52t-46.5 140q0 67 21.5 126.5t59 104.5t86 71t102.5 26q83 0 127 -54t44 -137z M209 150q0 -59 13.5 -93.5t41.5 -34.5q23 0 43 22.5t37 59.5t29 82t18.5 90t6.5 84q0 54 -12.5 86t-40.5 32q-29 0 -53.5 -32t-43.5 -83t-29 -107.5t-10 -105.5z" />
<glyph unicode="&#xf4;" horiz-adv-x="502" d="M519 577l-10 -6q-25 19 -55 39.5t-60 39.5q-32 -18 -71 -39.5t-74 -39.5l-7 8q22 23 45.5 50t44 52t33.5 43l9 5h79q17 -34 34 -75t32 -77zM524 319q0 -69 -21.5 -129t-58.5 -105t-84.5 -70t-100.5 -25q-82 0 -128.5 52t-46.5 140q0 67 21.5 126.5t59 104.5t86 71 t102.5 26q83 0 127 -54t44 -137zM209 150q0 -59 13.5 -93.5t41.5 -34.5q23 0 43 22.5t37 59.5t29 82t18.5 90t6.5 84q0 54 -12.5 86t-40.5 32q-29 0 -53.5 -32t-43.5 -83t-29 -107.5t-10 -105.5z" />
<glyph unicode="&#xf5;" horiz-adv-x="502" d="M489 659q14 11 31 26l34 30l8 -4q-12 -52 -40.5 -87t-70.5 -35q-27 0 -58 10.5t-58.5 23t-45.5 17.5q-14 -11 -31.5 -26t-33.5 -30l-8 4q12 54 40.5 88t70.5 34q26 0 56 -11t58 -23t48 -17zM524 319q0 -69 -21.5 -129t-58.5 -105t-84.5 -70t-100.5 -25q-82 0 -128.5 52 t-46.5 140q0 67 21.5 126.5t59 104.5t86 71t102.5 26q83 0 127 -54t44 -137zM209 150q0 -59 13.5 -93.5t41.5 -34.5q23 0 43 22.5t37 59.5t29 82t18.5 90t6.5 84q0 54 -12.5 86t-40.5 32q-29 0 -53.5 -32t-43.5 -83t-29 -107.5t-10 -105.5z" />
<glyph unicode="&#xf6;" horiz-adv-x="502" d="M349 664q0 -32 -24 -53.5t-55 -21.5q-25 0 -39.5 13t-14.5 35q0 30 25 52t55 22q24 0 38.5 -12.5t14.5 -34.5zM566 664q0 -32 -24 -53.5t-55 -21.5q-25 0 -39.5 13t-14.5 35q0 30 25 52t55 22q24 0 38.5 -12.5t14.5 -34.5zM524 319q0 -69 -21.5 -129t-58.5 -105 t-84.5 -70t-100.5 -25q-82 0 -128.5 52t-46.5 140q0 67 21.5 126.5t59 104.5t86 71t102.5 26q83 0 127 -54t44 -137zM209 150q0 -59 13.5 -93.5t41.5 -34.5q23 0 43 22.5t37 59.5t29 82t18.5 90t6.5 84q0 54 -12.5 86t-40.5 32q-29 0 -53.5 -32t-43.5 -83t-29 -107.5 t-10 -105.5z" />
<glyph unicode="&#xf7;" horiz-adv-x="539" d="M367 447q-24 0 -37.5 13.5t-13.5 35.5q0 30 22 51t51 21q22 0 35.5 -12.5t13.5 -33.5q0 -30 -21 -52.5t-50 -22.5zM530 284h-407l16 78q35 1 89.5 1.5t114.5 1t115 1t91 0.5l4 -6zM290 82q-24 0 -37.5 13.5t-13.5 35.5q0 30 22 51t51 21q22 0 35.5 -12.5t13.5 -33.5 q0 -30 -21 -52.5t-50 -22.5z" />
<glyph unicode="&#xf8;" horiz-adv-x="502" d="M524 319q0 -69 -21.5 -129t-58.5 -105t-84.5 -70t-100.5 -25q-46 0 -80.5 16t-57.5 46l-52 -49l-21 25l56 53q-20 43 -20 101q0 67 21.5 126.5t59 104.5t86 71t102.5 26q45 0 79 -17t56 -47l54 52l21 -25l-59 -56q20 -43 20 -98zM345 478q-27 0 -50 -27.5t-41 -72.5 t-29.5 -96.5t-14.5 -100.5l188 180q0 54 -12.5 85.5t-40.5 31.5zM264 22q25 0 47.5 27.5t40 71t29 94.5t15.5 99l-187 -178q1 -53 15 -83.5t40 -30.5z" />
<glyph unicode="&#xf9;" d="M504 574l-9 -10q-51 15 -91 35.5t-63 43.5t-23 45q0 24 19 35.5t48 11.5q7 0 12 -0.5t10 -0.5q14 -32 40.5 -75.5t56.5 -84.5zM459 502q4 0 20 1t35.5 2.5t35 2.5t18.5 1q13 0 10 -12l-29 -139l-14 -65l-22 -103q-20 -95 -20 -113q0 -16 9 -16q15 0 39 30t48 66l8 -5 q-13 -38 -36.5 -75.5t-54 -62t-65.5 -24.5q-27 0 -44.5 16t-17.5 51q0 32 13 92.5t30 124.5q-53 -132 -116 -208t-123 -76q-38 0 -57.5 22t-19.5 58q0 24 6 59t16 75.5t20 80.5t18 73q5 22 8.5 39.5t3.5 27.5q0 15 -9 15q-13 0 -38 -30t-51 -66l-7 4q14 38 38.5 75.5 t55.5 62t66 24.5q63 0 63 -77q0 -16 -2.5 -35t-7.5 -40q-9 -46 -23 -98t-24.5 -97t-10.5 -71q0 -11 4 -18.5t16 -7.5q23 0 55 38t65.5 104t60.5 150z" />
<glyph unicode="&#xfa;" d="M528 688q0 -18 -19 -37t-51.5 -35.5t-72 -29t-80.5 -18.5l-7 11q45 38 87 80.5t68 73.5q34 0 54.5 -12t20.5 -33zM459 502q4 0 20 1t35.5 2.5t35 2.5t18.5 1q13 0 10 -12l-29 -139l-14 -65l-22 -103q-20 -95 -20 -113q0 -16 9 -16q15 0 39 30t48 66l8 -5 q-13 -38 -36.5 -75.5t-54 -62t-65.5 -24.5q-27 0 -44.5 16t-17.5 51q0 32 13 92.5t30 124.5q-53 -132 -116 -208t-123 -76q-38 0 -57.5 22t-19.5 58q0 24 6 59t16 75.5t20 80.5t18 73q5 22 8.5 39.5t3.5 27.5q0 15 -9 15q-13 0 -38 -30t-51 -66l-7 4q14 38 38.5 75.5 t55.5 62t66 24.5q63 0 63 -77q0 -16 -2.5 -35t-7.5 -40q-9 -46 -23 -98t-24.5 -97t-10.5 -71q0 -11 4 -18.5t16 -7.5q23 0 55 38t65.5 104t60.5 150z" />
<glyph unicode="&#xfb;" d="M540 577l-10 -6q-25 19 -55 39.5t-60 39.5q-32 -18 -71 -39.5t-74 -39.5l-7 8q22 23 45.5 50t44 52t33.5 43l9 5h79q17 -34 34 -75t32 -77zM459 502q4 0 20 1t35.5 2.5t35 2.5t18.5 1q13 0 10 -12l-29 -139l-14 -65l-22 -103q-20 -95 -20 -113q0 -16 9 -16q15 0 39 30 t48 66l8 -5q-13 -38 -36.5 -75.5t-54 -62t-65.5 -24.5q-27 0 -44.5 16t-17.5 51q0 32 13 92.5t30 124.5q-53 -132 -116 -208t-123 -76q-38 0 -57.5 22t-19.5 58q0 24 6 59t16 75.5t20 80.5t18 73q5 22 8.5 39.5t3.5 27.5q0 15 -9 15q-13 0 -38 -30t-51 -66l-7 4 q14 38 38.5 75.5t55.5 62t66 24.5q63 0 63 -77q0 -16 -2.5 -35t-7.5 -40q-9 -46 -23 -98t-24.5 -97t-10.5 -71q0 -11 4 -18.5t16 -7.5q23 0 55 38t65.5 104t60.5 150z" />
<glyph unicode="&#xfc;" d="M370 664q0 -32 -24 -53.5t-55 -21.5q-25 0 -39.5 13t-14.5 35q0 30 25 52t55 22q24 0 38.5 -12.5t14.5 -34.5zM587 664q0 -32 -24 -53.5t-55 -21.5q-25 0 -39.5 13t-14.5 35q0 30 25 52t55 22q24 0 38.5 -12.5t14.5 -34.5zM459 502q4 0 20 1t35.5 2.5t35 2.5t18.5 1 q13 0 10 -12l-29 -139l-14 -65l-22 -103q-20 -95 -20 -113q0 -16 9 -16q15 0 39 30t48 66l8 -5q-13 -38 -36.5 -75.5t-54 -62t-65.5 -24.5q-27 0 -44.5 16t-17.5 51q0 32 13 92.5t30 124.5q-53 -132 -116 -208t-123 -76q-38 0 -57.5 22t-19.5 58q0 24 6 59t16 75.5t20 80.5 t18 73q5 22 8.5 39.5t3.5 27.5q0 15 -9 15q-13 0 -38 -30t-51 -66l-7 4q14 38 38.5 75.5t55.5 62t66 24.5q63 0 63 -77q0 -16 -2.5 -35t-7.5 -40q-9 -46 -23 -98t-24.5 -97t-10.5 -71q0 -11 4 -18.5t16 -7.5q23 0 55 38t65.5 104t60.5 150z" />
<glyph unicode="&#xfd;" horiz-adv-x="481" d="M478 688q0 -18 -19 -37t-51.5 -35.5t-72 -29t-80.5 -18.5l-7 11q45 38 87 80.5t68 73.5q34 0 54.5 -12t20.5 -33zM298 348q0 -44 -7.5 -99.5t-23 -115t-38.5 -115.5q64 61 105 133t60.5 146t19.5 139q0 20 -2 35.5t-4 27.5q8 4 22.5 7.5t31.5 3.5q73 0 73 -82 q0 -72 -36.5 -153.5t-107.5 -157t-176 -130.5q-24 -52 -54.5 -93t-68.5 -64.5t-83 -23.5q-42 0 -67 17t-25 42q0 19 15 32.5t37 17.5q6 -21 18.5 -43.5t32.5 -22.5q26 0 49 33t41.5 88t32.5 120.5t21.5 131t7.5 120.5q0 39 -5.5 68.5t-20.5 29.5q-17 0 -39 -30t-43 -66l-8 4 q12 39 34 76t52.5 61.5t67.5 24.5q46 0 67 -42.5t21 -119.5z" />
<glyph unicode="&#xfe;" horiz-adv-x="504" d="M149 -188q-5 0 -21 -1.5t-35.5 -2.5t-35 -2t-17.5 -1q-14 0 -10 12l29 139l129 609l16 74l-78 22v9q46 9 101 15.5t102 9.5l6 -7l-27 -123l-27 -130q-10 -44 -19 -86t-20 -82q47 115 100 179t104 64q47 0 69.5 -38.5t22.5 -93.5q0 -67 -20.5 -135.5t-60 -125.5t-96.5 -92 t-131 -35q-21 0 -43 2l-8 -36zM392 441q-20 0 -51.5 -39t-64.5 -107t-58 -156l-23 -110q20 -9 50 -9q29 0 55.5 23t48.5 61.5t38 85.5t25 95t9 90q0 29 -6.5 47.5t-22.5 18.5z" />
<glyph unicode="&#xff;" horiz-adv-x="481" d="M320 664q0 -32 -24 -53.5t-55 -21.5q-25 0 -39.5 13t-14.5 35q0 30 25 52t55 22q24 0 38.5 -12.5t14.5 -34.5zM537 664q0 -32 -24 -53.5t-55 -21.5q-25 0 -39.5 13t-14.5 35q0 30 25 52t55 22q24 0 38.5 -12.5t14.5 -34.5zM298 348q0 -44 -7.5 -99.5t-23 -115 t-38.5 -115.5q64 61 105 133t60.5 146t19.5 139q0 20 -2 35.5t-4 27.5q8 4 22.5 7.5t31.5 3.5q73 0 73 -82q0 -72 -36.5 -153.5t-107.5 -157t-176 -130.5q-24 -52 -54.5 -93t-68.5 -64.5t-83 -23.5q-42 0 -67 17t-25 42q0 19 15 32.5t37 17.5q6 -21 18.5 -43.5t32.5 -22.5 q26 0 49 33t41.5 88t32.5 120.5t21.5 131t7.5 120.5q0 39 -5.5 68.5t-20.5 29.5q-17 0 -39 -30t-43 -66l-8 4q12 39 34 76t52.5 61.5t67.5 24.5q46 0 67 -42.5t21 -119.5z" />
<glyph unicode="&#x100;" horiz-adv-x="691" d="M362 768l14 65h288l-14 -65h-288zM450 652h64l94 -581q3 -22 11 -31.5t26 -15.5l35 -11l-3 -13h-279l1 13l81 22l-23 161l-233 -1l-92 -162l76 -20l-3 -13h-189l1 13l43 11q23 6 33.5 17t24.5 33zM243 228l210 -2l-42 296z" />
<glyph unicode="&#x101;" horiz-adv-x="526" d="M249 618l14 65h288l-14 -65h-288zM70 117q0 68 23 137.5t65.5 127.5t102 93t132.5 35q44 0 86 -9t71 -23l-24 -81l-56 -254q-5 -23 -8 -40.5t-3 -27.5q0 -14 9 -14q12 0 37 30t51 66l8 -5q-15 -38 -39.5 -75.5t-55 -62t-65.5 -24.5q-64 0 -64 78q0 15 3 34t7 41l30 131 q-50 -133 -108.5 -208.5t-110.5 -75.5q-46 0 -68.5 36.5t-22.5 90.5zM412 418l12 49q-23 14 -50 14q-28 -1 -55 -25t-51 -64t-42 -88t-28.5 -96t-10.5 -87q0 -28 6 -44.5t22 -16.5t41 29.5t53 80.5t55 115.5t48 132.5z" />
<glyph unicode="&#x102;" horiz-adv-x="691" d="M633 873l4 1l11 -5q-23 -69 -63 -105.5t-92 -36.5q-51 0 -75.5 36.5t-16.5 106.5l14 4q8 -33 30.5 -51t64.5 -18q40 0 70 18t53 50zM450 652h64l94 -581q3 -22 11 -31.5t26 -15.5l35 -11l-3 -13h-279l1 13l81 22l-23 161l-233 -1l-92 -162l76 -20l-3 -13h-189l1 13l43 11 q23 6 33.5 17t24.5 33zM243 228l210 -2l-42 296z" />
<glyph unicode="&#x103;" horiz-adv-x="526" d="M522 723l3 1l11 -4q-23 -70 -63 -106.5t-92 -36.5q-51 0 -75 37t-17 107l15 3q8 -33 30.5 -51t63.5 -18q40 0 70 18t54 50zM70 117q0 68 23 137.5t65.5 127.5t102 93t132.5 35q44 0 86 -9t71 -23l-24 -81l-56 -254q-5 -23 -8 -40.5t-3 -27.5q0 -14 9 -14q12 0 37 30 t51 66l8 -5q-15 -38 -39.5 -75.5t-55 -62t-65.5 -24.5q-64 0 -64 78q0 15 3 34t7 41l30 131q-50 -133 -108.5 -208.5t-110.5 -75.5q-46 0 -68.5 36.5t-22.5 90.5zM412 418l12 49q-23 14 -50 14q-28 -1 -55 -25t-51 -64t-42 -88t-28.5 -96t-10.5 -87q0 -28 6 -44.5t22 -16.5 t41 29.5t53 80.5t55 115.5t48 132.5z" />
<glyph unicode="&#x104;" horiz-adv-x="691" d="M708 -70q-27 -56 -61.5 -90.5t-72.5 -34.5q-25 0 -39.5 13t-15.5 38q0 41 34 81t84 63h-239l1 13l81 22l-23 161l-233 -1l-92 -162l76 -20l-3 -13h-189l1 13l43 11q23 6 33.5 17t24.5 33l332 578h64l94 -581q3 -22 11 -31.5t26 -15.5l35 -11l-3 -13q-29 -15 -49.5 -46 t-20.5 -57q0 -21 18 -21q24 0 76 59zM243 228l210 -2l-42 296z" />
<glyph unicode="&#x105;" horiz-adv-x="526" d="M70 117q0 68 23 137.5t65.5 127.5t102 93t132.5 35q44 0 86 -9t71 -23l-24 -81l-56 -254q-5 -23 -8 -40.5t-3 -27.5q0 -14 9 -14q12 0 37 30t51 66l8 -5q-14 -35 -33 -66l1 1q-27 -41 -54.5 -77.5t-47 -65t-19.5 -47.5q0 -21 19 -21q25 0 75 59l7 -5q-27 -56 -61.5 -90.5 t-72.5 -34.5q-25 0 -38.5 14t-14.5 38q1 26 18.5 50.5t43.5 47t50 42.5q-17 -7 -33 -7q-64 0 -64 78q0 15 3 34t7 41l30 131q-50 -133 -108.5 -208.5t-110.5 -75.5q-46 0 -68.5 36.5t-22.5 90.5zM412 418l12 49q-23 14 -50 14q-28 -1 -55 -25t-51 -64t-42 -88t-28.5 -96 t-10.5 -87q0 -28 6 -44.5t22 -16.5t41 29.5t53 80.5t55 115.5t48 132.5z" />
<glyph unicode="&#x106;" horiz-adv-x="602" d="M636 838q0 -18 -19.5 -36.5t-51.5 -35.5t-72 -29.5t-81 -17.5l-6 10q44 39 86.5 81t67.5 73q35 0 55.5 -12t20.5 -33zM509 660q104 0 158 -33q-3 -28 -12 -63.5t-20.5 -70.5t-24.5 -60h-9l-34 186q-11 4 -24 6.5t-29 2.5q-58 0 -108 -29.5t-88 -81.5t-59 -118.5 t-20 -140.5q0 -112 48.5 -174t123.5 -62q29 0 53 8l113 189h9q1 -34 -5 -91q-2 -28 -8 -57.5t-14 -51.5q-65 -29 -169 -29q-84 0 -148.5 31t-100.5 91t-36 147q0 84 29.5 157t83.5 128t128 85.5t163 30.5z" />
<glyph unicode="&#x107;" horiz-adv-x="430" d="M490 688q0 -18 -19.5 -37t-51.5 -35.5t-72 -29t-81 -18.5l-6 11q44 38 86.5 80.5t67.5 73.5q35 0 55.5 -12t20.5 -33zM443 155q-17 -42 -48.5 -80t-73 -61.5t-88.5 -23.5q-63 0 -107.5 45t-44.5 133q0 65 21.5 126.5t59 110t86 77t101.5 28.5q59 0 91.5 -31.5t32.5 -79.5 q0 -38 -21.5 -67t-55.5 -29q-13 0 -24.5 2t-20.5 6q9 27 16.5 58t7.5 55q0 27 -8 41.5t-28 14.5q-25 0 -48.5 -26.5t-42.5 -69.5t-30 -91.5t-11 -92.5q0 -66 23 -100.5t63 -34.5q39 0 76.5 29t66.5 66z" />
<glyph unicode="&#x108;" horiz-adv-x="602" d="M645 727l-10 -6q-25 19 -55 39.5t-60 39.5q-32 -18 -71 -39.5t-74 -39.5l-7 8q22 23 45.5 50t44 52t33.5 43l9 5h79q17 -34 34 -75t32 -77zM509 660q104 0 158 -33q-3 -28 -12 -63.5t-20.5 -70.5t-24.5 -60h-9l-34 186q-11 4 -24 6.5t-29 2.5q-58 0 -108 -29.5t-88 -81.5 t-59 -118.5t-20 -140.5q0 -112 48.5 -174t123.5 -62q29 0 53 8l113 189h9q1 -34 -5 -91q-2 -28 -8 -57.5t-14 -51.5q-65 -29 -169 -29q-84 0 -148.5 31t-100.5 91t-36 147q0 84 29.5 157t83.5 128t128 85.5t163 30.5z" />
<glyph unicode="&#x109;" horiz-adv-x="430" d="M502 577l-10 -6q-26 19 -56 39.5t-60 39.5q-32 -18 -71 -39.5t-74 -39.5l-6 8q21 23 44.5 50t44 52t33.5 43l9 5h80q16 -34 33.5 -75t32.5 -77zM443 155q-17 -42 -48.5 -80t-73 -61.5t-88.5 -23.5q-63 0 -107.5 45t-44.5 133q0 65 21.5 126.5t59 110t86 77t101.5 28.5 q59 0 91.5 -31.5t32.5 -79.5q0 -38 -21.5 -67t-55.5 -29q-13 0 -24.5 2t-20.5 6q9 27 16.5 58t7.5 55q0 27 -8 41.5t-28 14.5q-25 0 -48.5 -26.5t-42.5 -69.5t-30 -91.5t-11 -92.5q0 -66 23 -100.5t63 -34.5q39 0 76.5 29t66.5 66z" />
<glyph unicode="&#x10a;" horiz-adv-x="602" d="M596 815q0 -34 -26.5 -56.5t-62.5 -22.5q-28 0 -44.5 13.5t-16.5 37.5q0 33 27.5 55.5t61.5 22.5q28 0 44.5 -13.5t16.5 -36.5zM509 660q104 0 158 -33q-3 -28 -12 -63.5t-20.5 -70.5t-24.5 -60h-9l-34 186q-11 4 -24 6.5t-29 2.5q-58 0 -108 -29.5t-88 -81.5t-59 -118.5 t-20 -140.5q0 -112 48.5 -174t123.5 -62q29 0 53 8l113 189h9q1 -34 -5 -91q-2 -28 -8 -57.5t-14 -51.5q-65 -29 -169 -29q-84 0 -148.5 31t-100.5 91t-36 147q0 84 29.5 157t83.5 128t128 85.5t163 30.5z" />
<glyph unicode="&#x10b;" horiz-adv-x="430" d="M448 665q0 -34 -26.5 -56.5t-61.5 -22.5q-29 0 -45.5 13.5t-16.5 37.5q0 33 27.5 55.5t61.5 22.5q28 0 44.5 -13.5t16.5 -36.5zM443 155q-17 -42 -48.5 -80t-73 -61.5t-88.5 -23.5q-63 0 -107.5 45t-44.5 133q0 65 21.5 126.5t59 110t86 77t101.5 28.5q59 0 91.5 -31.5 t32.5 -79.5q0 -38 -21.5 -67t-55.5 -29q-13 0 -24.5 2t-20.5 6q9 27 16.5 58t7.5 55q0 27 -8 41.5t-28 14.5q-25 0 -48.5 -26.5t-42.5 -69.5t-30 -91.5t-11 -92.5q0 -66 23 -100.5t63 -34.5q39 0 76.5 29t66.5 66z" />
<glyph unicode="&#x10c;" horiz-adv-x="602" d="M550 726l-9 -5h-80q-16 34 -33.5 75t-32.5 77l10 6q25 -19 55 -40t60 -39q32 18 71 39.5t75 39.5l6 -8q-21 -24 -45 -51t-44.5 -52t-32.5 -42zM509 660q104 0 158 -33q-3 -28 -12 -63.5t-20.5 -70.5t-24.5 -60h-9l-34 186q-11 4 -24 6.5t-29 2.5q-58 0 -108 -29.5 t-88 -81.5t-59 -118.5t-20 -140.5q0 -112 48.5 -174t123.5 -62q29 0 53 8l113 189h9q1 -34 -5 -91q-2 -28 -8 -57.5t-14 -51.5q-65 -29 -169 -29q-84 0 -148.5 31t-100.5 91t-36 147q0 84 29.5 157t83.5 128t128 85.5t163 30.5z" />
<glyph unicode="&#x10d;" horiz-adv-x="430" d="M400 577l-9 -6h-79q-17 34 -34 75t-32 77l9 7q26 -20 56 -40.5t60 -39.5q32 18 71 39.5t74 39.5l7 -7q-22 -24 -45.5 -51t-44 -52t-33.5 -42zM443 155q-17 -42 -48.5 -80t-73 -61.5t-88.5 -23.5q-63 0 -107.5 45t-44.5 133q0 65 21.5 126.5t59 110t86 77t101.5 28.5 q59 0 91.5 -31.5t32.5 -79.5q0 -38 -21.5 -67t-55.5 -29q-13 0 -24.5 2t-20.5 6q9 27 16.5 58t7.5 55q0 27 -8 41.5t-28 14.5q-25 0 -48.5 -26.5t-42.5 -69.5t-30 -91.5t-11 -92.5q0 -66 23 -100.5t63 -34.5q39 0 76.5 29t66.5 66z" />
<glyph unicode="&#x10e;" horiz-adv-x="680" d="M527 726l-9 -5h-79q-17 34 -34 75t-32 77l9 6q26 -19 56 -40t60 -39q32 18 71 39.5t74 39.5l7 -8q-22 -24 -45.5 -51t-44 -52t-33.5 -42zM362 595l-115 -539l-5 -25h62q71 0 124.5 35.5t90.5 93.5t55.5 126.5t18.5 134.5q0 198 -176 198h-50zM303 0h-263l-1 13l59 13 q12 3 17 10.5t7 19.5l115 539l5 22l-70 20l3 13h254q136 0 211.5 -62t75.5 -181q0 -82 -28 -155.5t-81.5 -130t-130 -89t-173.5 -32.5z" />
<glyph unicode="&#x10f;" horiz-adv-x="628" d="M782 641q0 -30 -17.5 -64.5t-47.5 -66.5t-68 -55l-7 8q17 24 32 53t24 59q-39 7 -39 48q0 30 22 51t50 21q22 0 36.5 -14.5t14.5 -39.5zM350 143l26 119q-49 -127 -106.5 -199.5t-108.5 -72.5q-46 0 -68.5 37t-22.5 90q0 68 23 137t65.5 127t102 93.5t132.5 35.5 q19 0 37 -2l13 57l15 74l-77 22v9q45 9 100.5 15.5t101.5 9.5l6 -7l-26 -123l-93 -422q-6 -23 -9 -40.5t-3 -27.5q0 -14 9 -14q12 0 37.5 30t51.5 66l7 -5q-15 -38 -39 -75.5t-55 -62t-66 -24.5q-63 0 -63 78q0 15 2.5 34t7.5 41zM215 60q16 0 41 29.5t52.5 81t54.5 115.5 t48 133l11 48q-22 14 -48 14q-28 -1 -55 -25t-51 -64t-42 -88t-28.5 -96t-10.5 -87q0 -28 6 -44.5t22 -16.5z" />
<glyph unicode="&#x110;" horiz-adv-x="677" d="M442 312h-140l-55 -256l-5 -25h62q71 0 124.5 35.5t90.5 93.5t55.5 126.5t18.5 134.5q0 198 -176 198h-50l-5 -24l-54 -254h140zM303 0h-263l-1 13l59 13q12 3 17 10.5t7 19.5l55 256h-74l6 29h74l54 254l5 22l-70 20l3 13h254q136 0 211.5 -62t75.5 -181 q0 -82 -28 -155.5t-81.5 -130t-130 -89t-173.5 -32.5z" />
<glyph unicode="&#x111;" horiz-adv-x="526" d="M350 143l26 119q-49 -127 -106.5 -199.5t-108.5 -72.5q-46 0 -68.5 37t-22.5 90q0 68 23 137t65.5 127t102 93.5t132.5 35.5q19 0 37 -2l12 54h-129l6 29h129l10 48l-77 22v9q45 9 100.5 15.5t101.5 9.5l6 -7l-21 -97h81l-6 -29h-81l-92 -419q-6 -23 -9 -40.5t-3 -27.5 q0 -14 9 -14q12 0 37.5 30t51.5 66l7 -5q-15 -38 -39 -75.5t-55 -62t-66 -24.5q-63 0 -63 78q0 15 2.5 34t7.5 41zM215 60q16 0 41 29.5t52.5 81t54.5 115.5t48 133l11 48q-22 14 -48 14q-28 -1 -55 -25t-51 -64t-42 -88t-28.5 -96t-10.5 -87q0 -28 6 -44.5t22 -16.5z" />
<glyph unicode="&#x112;" horiz-adv-x="555" d="M322 768l15 65h288l-15 -65h-288zM513 0h-473v13l59 13q11 3 16.5 10.5t7.5 19.5l114 539l5 22l-70 20l3 13h466q-1 -28 -8.5 -64t-18.5 -70.5t-24 -59.5h-8l-39 162q-21 0 -43 0.5t-43 0.5h-90l-5 -24l-54 -252l189 8l-10 -48l-185 9l-54 -256l-5 -24l96 -1q21 0 44 0.5 t45 0.5l108 166h9q1 -29 -2 -60q-3 -37 -11.5 -73.5t-18.5 -64.5z" />
<glyph unicode="&#x113;" horiz-adv-x="425" d="M223 618l15 65h288l-15 -65h-288zM443 155q-18 -45 -50 -82.5t-73 -60t-86 -22.5q-70 0 -111.5 48t-41.5 130q0 64 20.5 125.5t57.5 110t85.5 77.5t103.5 29q53 0 88 -27t35 -77q0 -56 -33 -98.5t-92.5 -67.5t-138.5 -28v-17q0 -63 22 -96.5t63 -33.5q36 0 74 27t70 68z M339 480q-22 0 -43 -21t-39 -56.5t-31 -79t-17 -86.5q49 6 86 36t57.5 73t20.5 92q0 17 -8 29.5t-26 12.5z" />
<glyph unicode="&#x114;" horiz-adv-x="555" d="M594 873l3 1l11 -5q-23 -69 -63 -105.5t-92 -36.5q-51 0 -75 36.5t-17 106.5l15 4q8 -33 30.5 -51t63.5 -18q40 0 70 18t54 50zM513 0h-473v13l59 13q11 3 16.5 10.5t7.5 19.5l114 539l5 22l-70 20l3 13h466q-1 -28 -8.5 -64t-18.5 -70.5t-24 -59.5h-8l-39 162 q-21 0 -43 0.5t-43 0.5h-90l-5 -24l-54 -252l189 8l-10 -48l-185 9l-54 -256l-5 -24l96 -1q21 0 44 0.5t45 0.5l108 166h9q1 -29 -2 -60q-3 -37 -11.5 -73.5t-18.5 -64.5z" />
<glyph unicode="&#x115;" horiz-adv-x="425" d="M496 723l4 1l11 -4q-23 -70 -63 -106.5t-92 -36.5q-51 0 -75.5 37t-16.5 107l14 3q8 -33 30.5 -51t64.5 -18q40 0 70 18t53 50zM443 155q-18 -45 -50 -82.5t-73 -60t-86 -22.5q-70 0 -111.5 48t-41.5 130q0 64 20.5 125.5t57.5 110t85.5 77.5t103.5 29q53 0 88 -27 t35 -77q0 -56 -33 -98.5t-92.5 -67.5t-138.5 -28v-17q0 -63 22 -96.5t63 -33.5q36 0 74 27t70 68zM339 480q-22 0 -43 -21t-39 -56.5t-31 -79t-17 -86.5q49 6 86 36t57.5 73t20.5 92q0 17 -8 29.5t-26 12.5z" />
<glyph unicode="&#x116;" horiz-adv-x="555" d="M549 815q0 -34 -26.5 -56.5t-62.5 -22.5q-28 0 -44.5 13.5t-16.5 37.5q0 33 27.5 55.5t61.5 22.5q28 0 44.5 -13.5t16.5 -36.5zM513 0h-473v13l59 13q11 3 16.5 10.5t7.5 19.5l114 539l5 22l-70 20l3 13h466q-1 -28 -8.5 -64t-18.5 -70.5t-24 -59.5h-8l-39 162 q-21 0 -43 0.5t-43 0.5h-90l-5 -24l-54 -252l189 8l-10 -48l-185 9l-54 -256l-5 -24l96 -1q21 0 44 0.5t45 0.5l108 166h9q1 -29 -2 -60q-3 -37 -11.5 -73.5t-18.5 -64.5z" />
<glyph unicode="&#x117;" horiz-adv-x="425" d="M448 665q0 -34 -26.5 -56.5t-61.5 -22.5q-29 0 -45.5 13.5t-16.5 37.5q0 33 27.5 55.5t61.5 22.5q28 0 44.5 -13.5t16.5 -36.5zM443 155q-18 -45 -50 -82.5t-73 -60t-86 -22.5q-70 0 -111.5 48t-41.5 130q0 64 20.5 125.5t57.5 110t85.5 77.5t103.5 29q53 0 88 -27 t35 -77q0 -56 -33 -98.5t-92.5 -67.5t-138.5 -28v-17q0 -63 22 -96.5t63 -33.5q36 0 74 27t70 68zM339 480q-22 0 -43 -21t-39 -56.5t-31 -79t-17 -86.5q49 6 86 36t57.5 73t20.5 92q0 17 -8 29.5t-26 12.5z" />
<glyph unicode="&#x118;" horiz-adv-x="555" d="M544 -70q-27 -56 -61.5 -90.5t-72.5 -34.5q-25 0 -39.5 13t-15.5 38q0 41 34 81t84 63h-433v13l59 13q11 3 16.5 10.5t7.5 19.5l114 539l5 22l-70 20l3 13h466q-1 -28 -8.5 -64t-18.5 -70.5t-24 -59.5h-8l-39 162q-21 0 -43 0.5t-43 0.5h-90l-5 -24l-54 -252l189 8 l-10 -48l-185 9l-54 -256l-5 -24l96 -1q21 0 44 0.5t45 0.5l108 166h9q1 -29 -2 -60q-3 -37 -11.5 -73.5t-18.5 -64.5q-29 -15 -49.5 -46t-20.5 -57q0 -21 18 -21q24 0 76 59z" />
<glyph unicode="&#x119;" horiz-adv-x="425" d="M335 -70q-26 -56 -61 -90.5t-74 -34.5q-25 0 -39 14.5t-14 38.5q0 26 19.5 50t51 46.5t65.5 42.5q-25 -7 -49 -7q-70 0 -111.5 48t-41.5 130q0 64 20.5 125.5t57.5 110t85.5 77.5t103.5 29q53 0 88 -27t35 -77q0 -56 -33 -98.5t-92.5 -67.5t-138.5 -28v-17 q0 -63 22 -96.5t63 -33.5q36 0 74 27t70 68l7 -5q-21 -55 -63 -97l2 1q-34 -40 -68 -68t-56.5 -50t-22.5 -44q0 -21 18 -21q25 0 75 59zM339 480q-22 0 -43 -21t-39 -56.5t-31 -79t-17 -86.5q49 6 86 36t57.5 73t20.5 92q0 17 -8 29.5t-26 12.5z" />
<glyph unicode="&#x11a;" horiz-adv-x="555" d="M503 726l-9 -5h-80q-16 34 -33.5 75t-32.5 77l10 6q25 -19 55 -40t60 -39q32 18 71 39.5t75 39.5l6 -8q-21 -24 -45 -51t-44.5 -52t-32.5 -42zM513 0h-473v13l59 13q11 3 16.5 10.5t7.5 19.5l114 539l5 22l-70 20l3 13h466q-1 -28 -8.5 -64t-18.5 -70.5t-24 -59.5h-8 l-39 162q-21 0 -43 0.5t-43 0.5h-90l-5 -24l-54 -252l189 8l-10 -48l-185 9l-54 -256l-5 -24l96 -1q21 0 44 0.5t45 0.5l108 166h9q1 -29 -2 -60q-3 -37 -11.5 -73.5t-18.5 -64.5z" />
<glyph unicode="&#x11b;" horiz-adv-x="425" d="M400 577l-9 -6h-79q-17 34 -34 75t-32 77l9 7q26 -20 56 -40.5t60 -39.5q32 18 71 39.5t74 39.5l7 -7q-22 -24 -45.5 -51t-44 -52t-33.5 -42zM443 155q-18 -45 -50 -82.5t-73 -60t-86 -22.5q-70 0 -111.5 48t-41.5 130q0 64 20.5 125.5t57.5 110t85.5 77.5t103.5 29 q53 0 88 -27t35 -77q0 -56 -33 -98.5t-92.5 -67.5t-138.5 -28v-17q0 -63 22 -96.5t63 -33.5q36 0 74 27t70 68zM339 480q-22 0 -43 -21t-39 -56.5t-31 -79t-17 -86.5q49 6 86 36t57.5 73t20.5 92q0 17 -8 29.5t-26 12.5z" />
<glyph unicode="&#x11c;" horiz-adv-x="661" d="M662 727l-10 -6q-25 19 -55 39.5t-60 39.5q-32 -18 -71 -39.5t-74 -39.5l-7 8q22 23 45.5 50t44 52t33.5 43l9 5h79q17 -34 34 -75t32 -77zM572 19q-40 -15 -84 -22t-96 -7q-85 0 -150 30.5t-101 90.5t-36 148q0 85 30.5 158.5t85.5 128t129 84.5t161 30q53 0 98.5 -9 t75.5 -24q-4 -28 -14.5 -64t-24 -70.5t-26.5 -59.5h-9l-34 187q-27 8 -61 8q-59 0 -109 -30t-88 -82t-59 -118.5t-21 -140.5t22.5 -126.5t61.5 -80.5t89 -28q24 0 46 5l51 226l5 21l-70 21l5 12h250l-1 -12l-46 -11q-15 -4 -20 -11t-8 -20z" />
<glyph unicode="&#x11d;" horiz-adv-x="437" d="M470 577l-10 -6q-25 19 -55.5 40t-60.5 39q-32 -18 -71 -39.5t-74 -39.5l-6 8q22 24 45.5 51t44 52t32.5 42l9 5h80q17 -34 34 -75t32 -77zM432 -60q0 -38 -32.5 -68.5t-87.5 -48.5t-124 -18q-59 0 -106.5 13t-75 36.5t-27.5 53.5q0 31 30 57.5t84 41.5l7 -5 q-13 -12 -21.5 -24t-8.5 -26q2 -51 33.5 -84.5t93.5 -33.5q41 0 73.5 19.5t32.5 49.5q0 18 -16.5 32t-41 26.5t-48.5 25.5t-40.5 28.5t-16.5 34.5q0 26 32.5 51t94.5 52q-9 -1 -17 -1q-72 0 -117.5 37t-45.5 102q0 59 30 109t82.5 80t120.5 30q69 0 126 1t99 10q4 -10 4 -24 q0 -25 -9 -37.5t-30 -12.5q-17 0 -45.5 5.5t-63.5 14.5q26 -16 43.5 -45t17.5 -66q0 -52 -21 -90t-52.5 -65t-63 -46.5t-52.5 -34t-21 -27.5q0 -12 18 -22.5t45 -22t54 -26t45 -34.5t18 -48zM204 277q0 -42 12 -68t39 -26q24 0 44.5 32t33 82t12.5 102q0 36 -10 60t-35 24 q-26 0 -48 -31.5t-35 -78.5t-13 -96z" />
<glyph unicode="&#x11e;" horiz-adv-x="661" d="M658 873l3 1l11 -5q-23 -69 -63 -105.5t-92 -36.5q-51 0 -75 36.5t-17 106.5l15 4q8 -33 30.5 -51t63.5 -18q40 0 70 18t54 50zM572 19q-40 -15 -84 -22t-96 -7q-85 0 -150 30.5t-101 90.5t-36 148q0 85 30.5 158.5t85.5 128t129 84.5t161 30q53 0 98.5 -9t75.5 -24 q-4 -28 -14.5 -64t-24 -70.5t-26.5 -59.5h-9l-34 187q-27 8 -61 8q-59 0 -109 -30t-88 -82t-59 -118.5t-21 -140.5t22.5 -126.5t61.5 -80.5t89 -28q24 0 46 5l51 226l5 21l-70 21l5 12h250l-1 -12l-46 -11q-15 -4 -20 -11t-8 -20z" />
<glyph unicode="&#x11f;" horiz-adv-x="437" d="M470 723l3 1l11 -4q-23 -70 -63 -106.5t-92 -36.5q-51 0 -75 37t-17 107l15 3q8 -33 30.5 -51t63.5 -18q40 0 70 18t54 50zM432 -60q0 -38 -32.5 -68.5t-87.5 -48.5t-124 -18q-59 0 -106.5 13t-75 36.5t-27.5 53.5q0 31 30 57.5t84 41.5l7 -5q-13 -12 -21.5 -24t-8.5 -26 q2 -51 33.5 -84.5t93.5 -33.5q41 0 73.5 19.5t32.5 49.5q0 18 -16.5 32t-41 26.5t-48.5 25.5t-40.5 28.5t-16.5 34.5q0 26 32.5 51t94.5 52q-9 -1 -17 -1q-72 0 -117.5 37t-45.5 102q0 59 30 109t82.5 80t120.5 30q69 0 126 1t99 10q4 -10 4 -24q0 -25 -9 -37.5t-30 -12.5 q-17 0 -45.5 5.5t-63.5 14.5q26 -16 43.5 -45t17.5 -66q0 -52 -21 -90t-52.5 -65t-63 -46.5t-52.5 -34t-21 -27.5q0 -12 18 -22.5t45 -22t54 -26t45 -34.5t18 -48zM204 277q0 -42 12 -68t39 -26q24 0 44.5 32t33 82t12.5 102q0 36 -10 60t-35 24q-26 0 -48 -31.5t-35 -78.5 t-13 -96z" />
<glyph unicode="&#x120;" horiz-adv-x="661" d="M613 815q0 -34 -26.5 -56.5t-62.5 -22.5q-28 0 -44.5 13.5t-16.5 37.5q0 33 27.5 55.5t61.5 22.5q28 0 44.5 -13.5t16.5 -36.5zM572 19q-40 -15 -84 -22t-96 -7q-85 0 -150 30.5t-101 90.5t-36 148q0 85 30.5 158.5t85.5 128t129 84.5t161 30q53 0 98.5 -9t75.5 -24 q-4 -28 -14.5 -64t-24 -70.5t-26.5 -59.5h-9l-34 187q-27 8 -61 8q-59 0 -109 -30t-88 -82t-59 -118.5t-21 -140.5t22.5 -126.5t61.5 -80.5t89 -28q24 0 46 5l51 226l5 21l-70 21l5 12h250l-1 -12l-46 -11q-15 -4 -20 -11t-8 -20z" />
<glyph unicode="&#x121;" horiz-adv-x="437" d="M422 665q0 -34 -26.5 -56.5t-62.5 -22.5q-28 0 -44.5 13.5t-16.5 37.5q0 33 27.5 55.5t61.5 22.5q28 0 44.5 -13.5t16.5 -36.5zM432 -60q0 -38 -32.5 -68.5t-87.5 -48.5t-124 -18q-59 0 -106.5 13t-75 36.5t-27.5 53.5q0 31 30 57.5t84 41.5l7 -5q-13 -12 -21.5 -24 t-8.5 -26q2 -51 33.5 -84.5t93.5 -33.5q41 0 73.5 19.5t32.5 49.5q0 18 -16.5 32t-41 26.5t-48.5 25.5t-40.5 28.5t-16.5 34.5q0 26 32.5 51t94.5 52q-9 -1 -17 -1q-72 0 -117.5 37t-45.5 102q0 59 30 109t82.5 80t120.5 30q69 0 126 1t99 10q4 -10 4 -24q0 -25 -9 -37.5 t-30 -12.5q-17 0 -45.5 5.5t-63.5 14.5q26 -16 43.5 -45t17.5 -66q0 -52 -21 -90t-52.5 -65t-63 -46.5t-52.5 -34t-21 -27.5q0 -12 18 -22.5t45 -22t54 -26t45 -34.5t18 -48zM204 277q0 -42 12 -68t39 -26q24 0 44.5 32t33 82t12.5 102q0 36 -10 60t-35 24q-26 0 -48 -31.5 t-35 -78.5t-13 -96z" />
<glyph unicode="&#x122;" horiz-adv-x="661" d="M572 19q-40 -15 -84 -22t-96 -7q-85 0 -150 30.5t-101 90.5t-36 148q0 85 30.5 158.5t85.5 128t129 84.5t161 30q53 0 98.5 -9t75.5 -24q-4 -28 -14.5 -64t-24 -70.5t-26.5 -59.5h-9l-34 187q-27 8 -61 8q-59 0 -109 -30t-88 -82t-59 -118.5t-21 -140.5t22.5 -126.5 t61.5 -80.5t89 -28q24 0 46 5l51 226l5 21l-70 21l5 12h250l-1 -12l-46 -11q-15 -4 -20 -11t-8 -20zM413 -133q0 -30 -17.5 -64.5t-47.5 -66.5t-67 -55l-8 8q17 24 32.5 53t24.5 59q-39 7 -39 48q0 30 21.5 51t49.5 21q23 0 37 -14.5t14 -39.5z" />
<glyph unicode="&#x123;" horiz-adv-x="437" d="M284 641q0 30 17.5 64t47.5 66.5t68 55.5l7 -9q-17 -23 -32.5 -52.5t-24.5 -59.5q19 -3 29.5 -16t10.5 -31q0 -31 -22 -52t-50 -21q-22 0 -36.5 15t-14.5 40zM432 -60q0 -38 -32.5 -68.5t-87.5 -48.5t-124 -18q-59 0 -106.5 13t-75 36.5t-27.5 53.5q0 31 30 57.5t84 41.5 l7 -5q-13 -12 -21.5 -24t-8.5 -26q2 -51 33.5 -84.5t93.5 -33.5q41 0 73.5 19.5t32.5 49.5q0 18 -16.5 32t-41 26.5t-48.5 25.5t-40.5 28.5t-16.5 34.5q0 26 32.5 51t94.5 52q-9 -1 -17 -1q-72 0 -117.5 37t-45.5 102q0 59 30 109t82.5 80t120.5 30q69 0 126 1t99 10 q4 -10 4 -24q0 -25 -9 -37.5t-30 -12.5q-17 0 -45.5 5.5t-63.5 14.5q26 -16 43.5 -45t17.5 -66q0 -52 -21 -90t-52.5 -65t-63 -46.5t-52.5 -34t-21 -27.5q0 -12 18 -22.5t45 -22t54 -26t45 -34.5t18 -48zM204 277q0 -42 12 -68t39 -26q24 0 44.5 32t33 82t12.5 102 q0 36 -10 60t-35 24q-26 0 -48 -31.5t-35 -78.5t-13 -96z" />
<glyph unicode="&#x124;" horiz-adv-x="732" d="M658 727l-10 -6q-25 19 -55 39.5t-60 39.5q-32 -18 -71 -39.5t-74 -39.5l-7 8q22 23 45.5 50t44 52t33.5 43l9 5h79q17 -34 34 -75t32 -77zM309 0h-270v13l56 12q14 3 19 10.5t8 20.5l115 539l5 22l-70 20l3 13h270v-13l-56 -11q-14 -4 -19 -11.5t-8 -19.5l-53 -251h260 l54 251l5 22l-71 20l4 13h270v-13l-56 -11q-14 -4 -19.5 -11.5t-7.5 -19.5l-115 -539l-5 -22l71 -21l-4 -13h-270v13l56 12q14 3 19 10.5t8 20.5l54 254h-261l-54 -254l-5 -22l71 -21z" />
<glyph unicode="&#x125;" horiz-adv-x="541" d="M405 727l-10 -6q-26 19 -56 39.5t-60 39.5q-32 -18 -71 -39.5t-74 -39.5l-6 8q21 23 44.5 50t44 52t33.5 43l9 5h80q16 -34 33.5 -75t32.5 -77zM191 -1q-4 -1 -20 -2t-35.5 -2.5t-35 -2t-18.5 -0.5q-13 0 -10 11l30 140v0l90 422l16 74l-78 22v9q46 9 101 15.5t102 9.5 l6 -7l-27 -123q-15 -69 -35 -155t-43 -171q52 126 113.5 198.5t121.5 72.5q37 0 57 -22t20 -58q0 -24 -6.5 -59t-16.5 -75.5t-20 -80t-18 -72.5q-5 -23 -8 -40.5t-3 -27.5q0 -14 9 -14q12 0 37 30t51 66l8 -5q-15 -38 -39.5 -75.5t-55 -62t-65.5 -24.5q-64 0 -64 78 q0 15 3 34t7 41q9 46 23 97.5t25 96.5t11 71q0 11 -4.5 19t-16.5 8q-23 0 -55 -38.5t-65.5 -104.5t-60.5 -149v0z" />
<glyph unicode="&#x126;" horiz-adv-x="732" d="M309 0h-270v13l56 12q14 3 19 10.5t8 20.5l85 400h-85l6 34h87l22 105l5 22l-70 20l3 13h270v-13l-56 -11q-14 -4 -19 -11.5t-8 -19.5l-22 -105h260l23 105l5 22l-71 20l4 13h270v-13l-56 -11q-14 -4 -19.5 -11.5t-7.5 -19.5l-23 -105h78l-6 -34h-79l-85 -400l-5 -22 l71 -21l-4 -13h-270v13l56 12q14 3 19 10.5t8 20.5l54 254h-261l-54 -254l-5 -22l71 -21zM309 344h260l24 112h-261z" />
<glyph unicode="&#x127;" horiz-adv-x="541" d="M191 -1q-4 -1 -20 -2t-35.5 -2.5t-35 -2t-18.5 -0.5q-13 0 -10 11l30 140v0l89 419h-77l6 29h78l10 48l-78 22v9q46 9 101 15.5t102 9.5l6 -7l-21 -97h132l-6 -29h-133q-15 -68 -35 -153.5t-42 -169.5q52 126 113.5 198.5t121.5 72.5q37 0 57 -22t20 -58q0 -24 -6.5 -59 t-16.5 -75.5t-20 -80t-18 -72.5q-5 -23 -8 -40.5t-3 -27.5q0 -14 9 -14q12 0 37 30t51 66l8 -5q-15 -38 -39.5 -75.5t-55 -62t-65.5 -24.5q-64 0 -64 78q0 15 3 34t7 41q9 46 23 97.5t25 96.5t11 71q0 11 -4.5 19t-16.5 8q-23 0 -55 -38.5t-65.5 -104.5t-60.5 -149v0z" />
<glyph unicode="&#x128;" horiz-adv-x="347" d="M439 809q14 11 31.5 26t33.5 30l9 -4q-13 -52 -41 -87t-70 -35q-27 0 -58 10.5t-59 23t-45 17.5q-15 -11 -32 -26t-33 -30l-9 4q12 54 41 88t70 34q27 0 57 -11t57.5 -23t47.5 -17zM310 0h-270v13l56 12q13 3 18.5 10.5t8.5 20.5l114 539l5 22l-70 20l3 13h270v-13 l-56 -11q-14 -4 -19 -11.5t-8 -19.5l-114 -539l-5 -22l70 -21z" />
<glyph unicode="&#x129;" horiz-adv-x="290" d="M346 659q14 11 29 24.5t30 26.5l8 -4q-5 -30 -17.5 -56.5t-31.5 -43.5t-44 -17q-21 0 -45 9t-44.5 20.5t-32.5 16.5q-14 -11 -29.5 -24t-29.5 -27l-8 5q7 46 31.5 81t61.5 35q21 0 44 -9.5t43.5 -20.5t34.5 -16zM114 143q11 51 26.5 110.5t25.5 104.5q5 22 8.5 39.5 t3.5 27.5q0 15 -9 15q-13 0 -38 -30t-51 -66l-7 4q14 38 38.5 75.5t55.5 62t66 24.5q63 0 63 -77q0 -16 -2.5 -35t-7.5 -40q-10 -49 -25.5 -109t-26.5 -106q-5 -23 -8 -40.5t-3 -27.5q0 -14 9 -14q12 0 37 30t51 66l8 -5q-15 -38 -39.5 -75.5t-55 -62t-65.5 -24.5 q-64 0 -64 78q0 15 3 34t7 41z" />
<glyph unicode="&#x12a;" horiz-adv-x="347" d="M192 768l15 65h288l-15 -65h-288zM310 0h-270v13l56 12q13 3 18.5 10.5t8.5 20.5l114 539l5 22l-70 20l3 13h270v-13l-56 -11q-14 -4 -19 -11.5t-8 -19.5l-114 -539l-5 -22l70 -21z" />
<glyph unicode="&#x12b;" horiz-adv-x="290" d="M151 615l15 65h218l-15 -65h-218zM114 143q11 51 26.5 110.5t25.5 104.5q5 22 8.5 39.5t3.5 27.5q0 15 -9 15q-13 0 -38 -30t-51 -66l-7 4q14 38 38.5 75.5t55.5 62t66 24.5q63 0 63 -77q0 -16 -2.5 -35t-7.5 -40q-10 -49 -25.5 -109t-26.5 -106q-5 -23 -8 -40.5 t-3 -27.5q0 -14 9 -14q12 0 37 30t51 66l8 -5q-15 -38 -39.5 -75.5t-55 -62t-65.5 -24.5q-64 0 -64 78q0 15 3 34t7 41z" />
<glyph unicode="&#x12c;" horiz-adv-x="346" d="M464 873l3 1l11 -5q-23 -69 -63 -105.5t-92 -36.5q-51 0 -75 36.5t-17 106.5l15 4q8 -33 30.5 -51t63.5 -18q40 0 70 18t54 50zM310 0h-270v13l56 12q13 3 18.5 10.5t8.5 20.5l114 539l5 22l-70 20l3 13h270v-13l-56 -11q-14 -4 -19 -11.5t-8 -19.5l-114 -539l-5 -22 l70 -21z" />
<glyph unicode="&#x12d;" horiz-adv-x="290" d="M371 723l3 1l11 -4q-14 -70 -47.5 -106.5t-82.5 -36.5q-40 0 -62 24.5t-22 67.5q0 22 7 52l15 3q-1 -3 -1 -8q5 -28 22 -44.5t53 -16.5t61.5 18t42.5 50zM114 143q11 51 26.5 110.5t25.5 104.5q5 22 8.5 39.5t3.5 27.5q0 15 -9 15q-13 0 -38 -30t-51 -66l-7 4 q14 38 38.5 75.5t55.5 62t66 24.5q63 0 63 -77q0 -16 -2.5 -35t-7.5 -40q-10 -49 -25.5 -109t-26.5 -106q-5 -23 -8 -40.5t-3 -27.5q0 -14 9 -14q12 0 37 30t51 66l8 -5q-15 -38 -39.5 -75.5t-55 -62t-65.5 -24.5q-64 0 -64 78q0 15 3 34t7 41z" />
<glyph unicode="&#x12e;" horiz-adv-x="346" d="M310 0h-1q-28 -15 -48.5 -46t-20.5 -57q0 -21 18 -21q24 0 75 59l7 -5q-26 -56 -60.5 -90.5t-72.5 -34.5q-26 0 -40.5 13t-14.5 38q0 41 34 81t84 63h-230v13l56 12q13 3 18.5 10.5t8.5 20.5l114 539l5 22l-70 20l3 13h270v-13l-56 -11q-14 -4 -19 -11.5t-8 -19.5 l-114 -539l-5 -22l70 -21z" />
<glyph unicode="&#x12f;" horiz-adv-x="290" d="M349 665q0 -34 -26.5 -56.5t-61.5 -22.5q-29 0 -45.5 13.5t-16.5 37.5q0 33 27.5 55.5t61.5 22.5q28 0 44.5 -13.5t16.5 -36.5zM275 -70q-27 -56 -61.5 -90.5t-72.5 -34.5q-25 0 -38.5 14t-14.5 38q1 25 19 50t45 47.5l51 42.5q-18 -7 -35 -7q-64 0 -64 78q0 15 3 34 t7 41q11 51 26.5 110.5t25.5 104.5q5 22 8.5 39.5t3.5 27.5q0 15 -9 15q-13 0 -38 -30t-51 -66l-7 4q14 38 38.5 75.5t55.5 62t66 24.5q63 0 63 -77q0 -16 -2.5 -35t-7.5 -40q-10 -49 -25.5 -109t-26.5 -106q-5 -23 -8 -40.5t-3 -27.5q0 -14 9 -14q12 0 37 30t51 66l8 -5 q-9 -23 -21.5 -46t-27.5 -43q-23 -35 -47.5 -66.5t-41 -57t-16.5 -42.5q0 -21 19 -21q25 0 75 59z" />
<glyph unicode="&#x130;" horiz-adv-x="346" d="M419 815q0 -34 -26.5 -56.5t-62.5 -22.5q-28 0 -44.5 13.5t-16.5 37.5q0 33 27.5 55.5t61.5 22.5q28 0 44.5 -13.5t16.5 -36.5zM310 0h-270v13l56 12q13 3 18.5 10.5t8.5 20.5l114 539l5 22l-70 20l3 13h270v-13l-56 -11q-14 -4 -19 -11.5t-8 -19.5l-114 -539l-5 -22 l70 -21z" />
<glyph unicode="&#x131;" horiz-adv-x="290" d="M114 143q11 51 26.5 110.5t25.5 104.5q5 22 8.5 39.5t3.5 27.5q0 15 -9 15q-13 0 -38 -30t-51 -66l-7 4q14 38 38.5 75.5t55.5 62t66 24.5q63 0 63 -77q0 -16 -2.5 -35t-7.5 -40q-10 -49 -25.5 -109t-26.5 -106q-5 -23 -8 -40.5t-3 -27.5q0 -14 9 -14q12 0 37 30t51 66 l8 -5q-15 -38 -39.5 -75.5t-55 -62t-65.5 -24.5q-64 0 -64 78q0 15 3 34t7 41z" />
<glyph unicode="&#x132;" horiz-adv-x="691" d="M310 0h-270v13l56 12q13 3 18.5 10.5t8.5 20.5l114 539l5 22l-70 20l3 13h270v-13l-56 -11q-14 -4 -19 -11.5t-8 -19.5l-114 -539l-5 -22l70 -21zM606 116q-21 -99 -86 -158.5t-168 -84.5l-6 11q38 32 64.5 67t44.5 81.5t33 115.5l95 447l5 22l-71 20l4 13h270v-13 l-56 -11q-14 -4 -19.5 -11.5t-7.5 -19.5z" />
<glyph unicode="&#x133;" horiz-adv-x="555" d="M349 665q0 -34 -26.5 -56.5t-61.5 -22.5q-29 0 -45.5 13.5t-16.5 37.5q0 33 27.5 55.5t61.5 22.5q28 0 44.5 -13.5t16.5 -36.5zM639 665q0 -34 -26.5 -56.5t-61.5 -22.5q-29 0 -45.5 13.5t-16.5 37.5q0 33 27.5 55.5t61.5 22.5q28 0 44.5 -13.5t16.5 -36.5zM114 143 q11 51 26.5 110.5t25.5 104.5q5 22 8.5 39.5t3.5 27.5q0 15 -9 15q-13 0 -38 -30t-51 -66l-7 4q14 38 38.5 75.5t55.5 62t66 24.5q63 0 63 -77q0 -16 -2.5 -35t-7.5 -40q-10 -49 -25.5 -109t-26.5 -106q-5 -23 -8 -40.5t-3 -27.5q0 -14 9 -14q12 0 37 30t51 66l8 -5 q-15 -38 -39.5 -75.5t-55 -62t-65.5 -24.5q-64 0 -64 78q0 15 3 34t7 41zM507 34q-24 -115 -85.5 -172t-138.5 -57q-48 0 -77.5 20t-29.5 48q0 19 14.5 30.5t35.5 15.5q8 -20 22 -42t38 -22q36 0 57.5 39t40.5 127l71 337q5 22 8.5 39.5t3.5 27.5q0 15 -9 15q-13 0 -38 -30 t-51 -66l-7 4q14 38 38.5 75.5t55.5 62t66 24.5q63 0 63 -77q0 -16 -2.5 -35t-7.5 -40z" />
<glyph unicode="&#x134;" horiz-adv-x="344" d="M470 728l-10 -6q-26 19 -56 39.5t-60 39.5q-32 -18 -71 -39.5t-74 -39.5l-6 8q21 23 44.5 50t44 52t33.5 43l9 5h80q16 -34 33.5 -75t32.5 -77zM260 116q-21 -99 -86 -158.5t-169 -84.5l-5 11q38 32 64 67t44.5 81.5t32.5 115.5l95 447l5 22l-70 20l3 13h270v-13l-56 -11 q-14 -4 -19 -11.5t-8 -19.5z" />
<glyph unicode="&#x135;" horiz-adv-x="270" d="M383 577l-10 -6q-22 18 -46.5 38t-49.5 38q-28 -17 -61.5 -38t-63.5 -38l-6 8q18 23 37.5 50t36.5 52t28 43l9 5h80q11 -34 23 -75t23 -77zM222 34q-24 -115 -85.5 -172t-138.5 -57q-48 0 -77.5 20t-29.5 48q0 19 14.5 30.5t35.5 15.5q8 -20 22 -42t38 -22q36 0 57.5 39 t40.5 127l71 337q5 22 8.5 39.5t3.5 27.5q0 15 -9 15q-13 0 -38 -30t-51 -66l-7 4q14 38 38.5 75.5t55.5 62t66 24.5q63 0 63 -77q0 -16 -2.5 -35t-7.5 -40z" />
<glyph unicode="&#x136;" horiz-adv-x="701" d="M310 0h-270v13l56 12q13 3 18.5 10.5t8.5 20.5l114 539l5 22l-71 20l4 13h270v-13l-56 -11q-14 -4 -19.5 -11.5t-7.5 -19.5l-55 -260h95l232 283l-74 19l3 13h238v-12l-61 -19q-22 -9 -49.5 -25t-53 -34t-40.5 -34l-109 -125l8 7l122 -332q9 -25 21 -36t29 -17l33 -11 l-4 -12l-126 -1q-43 -1 -61.5 17t-30.5 53l-83 234h-96l-52 -247l-5 -22l70 -21zM433 -133q0 -30 -17.5 -64.5t-47.5 -66.5t-68 -55l-7 8q17 24 32 53t24 59q-39 7 -39 48q0 30 22 51t50 21q22 0 36.5 -14.5t14.5 -39.5z" />
<glyph unicode="&#x137;" horiz-adv-x="534" d="M192 -1q-5 -1 -21 -2t-35.5 -2.5t-35 -2t-17.5 -0.5q-14 0 -10 11l29 140l90 422l16 74l-78 22v9q46 9 101 15.5t102 9.5l6 -7l-27 -123q-22 -105 -42.5 -186t-42.5 -161v0q54 140 120.5 216t136.5 76q41 0 63.5 -26t22.5 -62q0 -45 -25.5 -81t-65 -63.5t-81.5 -45.5 q29 -82 50.5 -124.5t42.5 -42.5q17 0 43 28t53 64l7 -5q-16 -38 -42 -75t-58 -62t-67 -25q-36 0 -59 25.5t-40.5 72.5t-38.5 114l1 4q45 23 81 53t57 65t21 71q0 41 -33 41q-27 0 -62.5 -38.5t-70.5 -105.5t-62 -154v0zM316 -133q0 -30 -17.5 -64.5t-47.5 -66.5t-67 -55 l-8 8q17 24 32.5 53t24.5 59q-39 7 -39 48q0 30 21.5 51t49.5 21q23 0 37 -14.5t14 -39.5z" />
<glyph unicode="&#x138;" horiz-adv-x="565" d="M206 -1q-5 -1 -21 -2t-35.5 -2.5t-35 -2t-17.5 -0.5q-14 0 -10 11l29 140l46 215q5 22 8.5 39.5t3.5 27.5q0 15 -9 15q-13 0 -38 -30t-51 -66l-7 4q14 38 38.5 75.5t55.5 62t66 24.5q63 0 63 -77q0 -16 -2.5 -35t-7.5 -40l-23 -106h62q59 116 123.5 187t126.5 71 q23 0 35 -15.5t12 -37.5q0 -17 -5 -32.5t-13 -29.5q-11 9 -26 15.5t-31 6.5q-30 0 -65 -25.5t-71 -73.5l23 -71q28 -87 51 -134.5t46 -47.5q17 0 43 28t53 64l7 -5q-16 -38 -42 -75t-58 -62t-67 -25q-38 0 -61.5 28.5t-41.5 80.5t-40 124h-67l-17 -80z" />
<glyph unicode="&#x139;" horiz-adv-x="537" d="M459 838q0 -18 -19.5 -36.5t-51.5 -35.5t-72 -29.5t-81 -17.5l-6 10q44 39 86.5 81t67.5 73q35 0 55.5 -12t20.5 -33zM503 0h-463l-1 13l59 13q12 3 17 10.5t7 19.5l115 539l5 22l-70 20l3 13h270v-13l-56 -11q-14 -4 -19 -11.5t-8 -19.5l-115 -539l-5 -24h99h40h41 l105 188h9q0 -17 -2 -39.5t-5 -49.5q-2 -35 -9.5 -69.5t-16.5 -61.5z" />
<glyph unicode="&#x13a;" horiz-adv-x="275" d="M430 873q0 -18 -19.5 -36.5t-51.5 -35.5t-72 -29.5t-81 -17.5l-6 10q44 39 86.5 81t67.5 73q35 0 55.5 -12t20.5 -33zM99 143l93 422l16 74l-78 22v9q46 9 101 15.5t102 9.5l6 -7l-27 -123l-93 -422q-5 -23 -8 -40.5t-3 -27.5q0 -14 9 -14q12 0 37 30t51 66l8 -5 q-15 -38 -39.5 -75.5t-55 -62t-65.5 -24.5q-64 0 -64 78q0 15 3 34t7 41z" />
<glyph unicode="&#x13b;" horiz-adv-x="537" d="M503 0h-463l-1 13l59 13q12 3 17 10.5t7 19.5l115 539l5 22l-70 20l3 13h270v-13l-56 -11q-14 -4 -19 -11.5t-8 -19.5l-115 -539l-5 -24h99h40h41l105 188h9q0 -17 -2 -39.5t-5 -49.5q-2 -35 -9.5 -69.5t-16.5 -61.5zM341 -133q0 -30 -17.5 -64.5t-47.5 -66.5t-67 -55 l-8 8q17 24 32.5 53t24.5 59q-39 7 -39 48q0 30 21.5 51t49.5 21q23 0 37 -14.5t14 -39.5z" />
<glyph unicode="&#x13c;" horiz-adv-x="275" d="M99 143l93 422l16 74l-78 22v9q46 9 101 15.5t102 9.5l6 -7l-27 -123l-93 -422q-5 -23 -8 -40.5t-3 -27.5q0 -14 9 -14q12 0 37 30t51 66l8 -5q-15 -38 -39.5 -75.5t-55 -62t-65.5 -24.5q-64 0 -64 78q0 15 3 34t7 41zM184 -133q0 -30 -17.5 -64.5t-47.5 -66.5t-67 -55 l-8 8q17 24 32.5 53t24.5 59q-39 7 -39 48q0 30 21.5 51t49.5 21q23 0 37 -14.5t14 -39.5z" />
<glyph unicode="&#x13d;" horiz-adv-x="537" d="M624 606q0 -30 -17.5 -64.5t-47.5 -66.5t-67 -55l-8 8q17 24 32.5 53t24.5 59q-39 7 -39 48q0 30 21.5 51t49.5 21q23 0 37 -14.5t14 -39.5zM503 0h-463l-1 13l59 13q12 3 17 10.5t7 19.5l115 539l5 22l-70 20l3 13h270v-13l-56 -11q-14 -4 -19 -11.5t-8 -19.5l-115 -539 l-5 -24h99h40h41l105 188h9q0 -17 -2 -39.5t-5 -49.5q-2 -35 -9.5 -69.5t-16.5 -61.5z" />
<glyph unicode="&#x13e;" horiz-adv-x="421" d="M517 641q0 -30 -17.5 -64.5t-47.5 -66.5t-68 -55l-7 8q17 24 32 53t24 59q-39 7 -39 48q0 30 22 51t50 21q22 0 36.5 -14.5t14.5 -39.5zM99 143l93 422l16 74l-78 22v9q46 9 101 15.5t102 9.5l6 -7l-27 -123l-93 -422q-5 -23 -8 -40.5t-3 -27.5q0 -14 9 -14q12 0 37 30 t51 66l8 -5q-15 -38 -39.5 -75.5t-55 -62t-65.5 -24.5q-64 0 -64 78q0 15 3 34t7 41z" />
<glyph unicode="&#x13f;" horiz-adv-x="537" d="M503 0h-463l-1 13l59 13q12 3 17 10.5t7 19.5l115 539l5 22l-70 20l3 13h270v-13l-56 -11q-14 -4 -19 -11.5t-8 -19.5l-115 -539l-5 -24h99h40h41l105 188h9q0 -17 -2 -39.5t-5 -49.5q-2 -35 -9.5 -69.5t-16.5 -61.5zM560 351q-24 0 -37.5 13.5t-13.5 35.5q0 30 22 51 t51 21q22 0 35.5 -12.5t13.5 -33.5q0 -30 -21 -52.5t-50 -22.5z" />
<glyph unicode="&#x140;" horiz-adv-x="418" d="M99 143l93 422l16 74l-78 22v9q46 9 101 15.5t102 9.5l6 -7l-27 -123l-93 -422q-5 -23 -8 -40.5t-3 -27.5q0 -14 9 -14q12 0 37 30t51 66l8 -5q-15 -38 -39.5 -75.5t-55 -62t-65.5 -24.5q-64 0 -64 78q0 15 3 34t7 41zM489 383q0 -34 -23.5 -56.5t-55.5 -22.5 q-26 0 -41 13.5t-15 37.5q0 33 25 55.5t55 22.5q26 0 40.5 -13.5t14.5 -36.5z" />
<glyph unicode="&#x141;" horiz-adv-x="537" d="M503 0h-463l-1 13l59 13q12 3 17 10.5t7 19.5l48 223l-90 -43l-11 27l108 52l60 280l5 22l-70 20l3 13h270v-13l-56 -11q-14 -4 -19 -11.5t-8 -19.5l-46 -214l88 42l12 -27l-107 -51l-62 -289l-5 -24h99h40h41l105 188h9q0 -17 -2 -39.5t-5 -49.5q-2 -35 -9.5 -69.5 t-16.5 -61.5z" />
<glyph unicode="&#x142;" horiz-adv-x="275" d="M99 143l34 156l-83 -40l-11 27l102 49l51 230l16 74l-78 22v9q46 9 101 15.5t102 9.5l6 -7l-27 -123l-37 -166l99 47l12 -27l-119 -57l-48 -219q-5 -23 -8 -40.5t-3 -27.5q0 -14 9 -14q12 0 37 30t51 66l8 -5q-15 -38 -39.5 -75.5t-55 -62t-65.5 -24.5q-64 0 -64 78 q0 15 3 34t7 41z" />
<glyph unicode="&#x143;" horiz-adv-x="686" d="M627 838q0 -18 -19 -36.5t-51.5 -35.5t-72 -29.5t-80.5 -17.5l-7 10q45 39 87 81t68 73q34 0 54.5 -12t20.5 -33zM238 1h-202v13l64 13q14 4 19 10t8 19l120 562l-78 20l3 12h168l223 -516l99 461l5 22l-84 20l4 13h201v-13l-63 -13q-15 -4 -20 -10.5t-8 -18.5l-126 -595 h-86l-224 520l-98 -464l-5 -22l83 -20z" />
<glyph unicode="&#x144;" horiz-adv-x="556" d="M521 688q0 -18 -19.5 -37t-51.5 -35.5t-72 -29t-81 -18.5l-6 11q44 38 86.5 80.5t67.5 73.5q35 0 55.5 -12t20.5 -33zM207 -1q-5 -1 -21 -2t-35.5 -2.5t-35 -2t-17.5 -0.5q-14 0 -10 11l29 140l14 64l22 104q20 95 20 112t-9 17q-15 0 -39 -30t-48 -66l-8 4 q13 38 36 75.5t54 62t66 24.5q27 0 44.5 -16t17.5 -50q0 -33 -13.5 -93.5t-29.5 -124.5q53 132 115.5 208t123.5 76q37 0 57 -22t20 -58q0 -24 -6.5 -59t-16 -75.5t-20 -80t-17.5 -72.5q-6 -23 -9 -40.5t-3 -27.5q0 -14 9 -14q12 0 37.5 30t51.5 66l7 -5q-15 -38 -39 -75.5 t-55 -62t-66 -24.5q-63 0 -63 78q0 15 2.5 34t7.5 41q9 46 22.5 97.5t24.5 96.5t11 71q0 11 -4.5 19t-15.5 8q-23 0 -55 -38.5t-65.5 -104.5t-60.5 -149z" />
<glyph unicode="&#x145;" horiz-adv-x="686" d="M238 1h-202v13l64 13q14 4 19 10t8 19l120 562l-78 20l3 12h168l223 -516l99 461l5 22l-84 20l4 13h201v-13l-63 -13q-15 -4 -20 -10.5t-8 -18.5l-126 -595h-86l-224 520l-98 -464l-5 -22l83 -20zM388 -133q0 -30 -17.5 -64.5t-47.5 -66.5t-68 -55l-7 8q17 24 32 53 t24 59q-39 7 -39 48q0 30 22 51t50 21q22 0 36.5 -14.5t14.5 -39.5z" />
<glyph unicode="&#x146;" horiz-adv-x="556" d="M207 -1q-5 -1 -21 -2t-35.5 -2.5t-35 -2t-17.5 -0.5q-14 0 -10 11l29 140l14 64l22 104q20 95 20 112t-9 17q-15 0 -39 -30t-48 -66l-8 4q13 38 36 75.5t54 62t66 24.5q27 0 44.5 -16t17.5 -50q0 -33 -13.5 -93.5t-29.5 -124.5q53 132 115.5 208t123.5 76q37 0 57 -22 t20 -58q0 -24 -6.5 -59t-16 -75.5t-20 -80t-17.5 -72.5q-6 -23 -9 -40.5t-3 -27.5q0 -14 9 -14q12 0 37.5 30t51.5 66l7 -5q-15 -38 -39 -75.5t-55 -62t-66 -24.5q-63 0 -63 78q0 15 2.5 34t7.5 41q9 46 22.5 97.5t24.5 96.5t11 71q0 11 -4.5 19t-15.5 8q-23 0 -55 -38.5 t-65.5 -104.5t-60.5 -149zM330 -133q0 -30 -17.5 -64.5t-47.5 -66.5t-68 -55l-7 8q17 24 32 53t24 59q-39 7 -39 48q0 30 22 51t50 21q22 0 36.5 -14.5t14.5 -39.5z" />
<glyph unicode="&#x147;" horiz-adv-x="686" d="M541 726l-9 -5h-79q-17 34 -34 75t-32 77l10 6q25 -19 55 -40t60 -39q32 18 71 39.5t74 39.5l7 -8q-22 -24 -45.5 -51t-44 -52t-33.5 -42zM238 1h-202v13l64 13q14 4 19 10t8 19l120 562l-78 20l3 12h168l223 -516l99 461l5 22l-84 20l4 13h201v-13l-63 -13 q-15 -4 -20 -10.5t-8 -18.5l-126 -595h-86l-224 520l-98 -464l-5 -22l83 -20z" />
<glyph unicode="&#x148;" horiz-adv-x="556" d="M431 577l-9 -6h-79q-17 34 -34 75t-32 77l9 7q26 -20 56 -40.5t60 -39.5q32 18 71 39.5t74 39.5l7 -7q-22 -24 -45.5 -51t-44 -52t-33.5 -42zM207 -1q-5 -1 -21 -2t-35.5 -2.5t-35 -2t-17.5 -0.5q-14 0 -10 11l29 140l14 64l22 104q20 95 20 112t-9 17q-15 0 -39 -30 t-48 -66l-8 4q13 38 36 75.5t54 62t66 24.5q27 0 44.5 -16t17.5 -50q0 -33 -13.5 -93.5t-29.5 -124.5q53 132 115.5 208t123.5 76q37 0 57 -22t20 -58q0 -24 -6.5 -59t-16 -75.5t-20 -80t-17.5 -72.5q-6 -23 -9 -40.5t-3 -27.5q0 -14 9 -14q12 0 37.5 30t51.5 66l7 -5 q-15 -38 -39 -75.5t-55 -62t-66 -24.5q-63 0 -63 78q0 15 2.5 34t7.5 41q9 46 22.5 97.5t24.5 96.5t11 71q0 11 -4.5 19t-15.5 8q-23 0 -55 -38.5t-65.5 -104.5t-60.5 -149z" />
<glyph unicode="&#x14a;" horiz-adv-x="690" d="M242 1h-202v13l64 13q14 4 19 10t8 19l120 562l-78 20l3 12h168l223 -517l99 462l5 22l-84 20l4 13h201v-13l-63 -13q-15 -4 -20 -10.5t-8 -18.5l-120 -566q-12 -57 -33 -96t-55 -68.5t-87 -59.5l-8 11q35 26 61 50t44.5 54t31.5 72h-43l-227 528l-98 -464l-5 -22l83 -20 z" />
<glyph unicode="&#x14b;" horiz-adv-x="536" d="M209 -1q-4 -1 -20 -2t-35.5 -2.5t-35 -2t-18.5 -0.5q-13 0 -10 11l30 140l14 64l22 104q20 95 20 112t-10 17q-15 0 -39 -30t-48 -66l-8 4q13 38 36.5 75.5t54 62t65.5 24.5q27 0 44.5 -16t17.5 -50q0 -33 -13 -93.5t-30 -124.5q53 132 116 208t124 76q42 0 59 -24 t17 -62q0 -41 -22 -142t-53 -248q-24 -115 -85.5 -172t-138.5 -57q-48 0 -77.5 20t-29.5 48q0 19 14.5 30.5t35.5 15.5q8 -20 22 -42t38 -22q36 0 57.5 39t40.5 127q11 54 24.5 115t25.5 117t19.5 96.5t7.5 54.5q0 31 -21 31q-23 0 -55 -38.5t-65.5 -104.5t-59.5 -149z" />
<glyph unicode="&#x14c;" horiz-adv-x="643" d="M340 768l14 65h288l-14 -65h-288zM680 414q0 -84 -27 -160t-74.5 -135.5t-111 -94t-137.5 -34.5q-111 0 -170 67t-59 176q0 85 27.5 162t76 136.5t112.5 94t138 34.5q108 0 166.5 -67t58.5 -179zM235 177q0 -76 25.5 -115.5t70.5 -39.5q35 0 67 28.5t59 77t47 108t31 123 t11 121.5q0 69 -23.5 109t-70.5 40q-36 0 -68.5 -28.5t-59.5 -76t-47 -107t-31 -121.5t-11 -119z" />
<glyph unicode="&#x14d;" horiz-adv-x="502" d="M241 618l14 65h288l-14 -65h-288zM524 319q0 -69 -21.5 -129t-58.5 -105t-84.5 -70t-100.5 -25q-82 0 -128.5 52t-46.5 140q0 67 21.5 126.5t59 104.5t86 71t102.5 26q83 0 127 -54t44 -137zM209 150q0 -59 13.5 -93.5t41.5 -34.5q23 0 43 22.5t37 59.5t29 82t18.5 90 t6.5 84q0 54 -12.5 86t-40.5 32q-29 0 -53.5 -32t-43.5 -83t-29 -107.5t-10 -105.5z" />
<glyph unicode="&#x14e;" horiz-adv-x="643" d="M611 873l4 1l11 -5q-23 -69 -63 -105.5t-92 -36.5q-51 0 -75.5 36.5t-16.5 106.5l14 4q8 -33 30.5 -51t64.5 -18q40 0 70 18t53 50zM680 414q0 -84 -27 -160t-74.5 -135.5t-111 -94t-137.5 -34.5q-111 0 -170 67t-59 176q0 85 27.5 162t76 136.5t112.5 94t138 34.5 q108 0 166.5 -67t58.5 -179zM235 177q0 -76 25.5 -115.5t70.5 -39.5q35 0 67 28.5t59 77t47 108t31 123t11 121.5q0 69 -23.5 109t-70.5 40q-36 0 -68.5 -28.5t-59.5 -76t-47 -107t-31 -121.5t-11 -119z" />
<glyph unicode="&#x14f;" horiz-adv-x="502" d="M514 723l3 1l11 -4q-23 -70 -63 -106.5t-92 -36.5q-51 0 -75 37t-17 107l15 3q8 -33 30.5 -51t63.5 -18q40 0 70 18t54 50zM524 319q0 -69 -21.5 -129t-58.5 -105t-84.5 -70t-100.5 -25q-82 0 -128.5 52t-46.5 140q0 67 21.5 126.5t59 104.5t86 71t102.5 26q83 0 127 -54 t44 -137zM209 150q0 -59 13.5 -93.5t41.5 -34.5q23 0 43 22.5t37 59.5t29 82t18.5 90t6.5 84q0 54 -12.5 86t-40.5 32q-29 0 -53.5 -32t-43.5 -83t-29 -107.5t-10 -105.5z" />
<glyph unicode="&#x150;" horiz-adv-x="643" d="M503 839q0 -24 -30 -49t-76 -44.5t-95 -26.5l-6 10q43 39 84 81t65 73q27 0 42.5 -11.5t15.5 -32.5zM687 839q0 -24 -30 -49t-76 -44.5t-95 -26.5l-6 10q43 39 84 81t65 73q27 0 42.5 -11.5t15.5 -32.5zM680 414q0 -84 -27 -160t-74.5 -135.5t-111 -94t-137.5 -34.5 q-111 0 -170 67t-59 176q0 85 27.5 162t76 136.5t112.5 94t138 34.5q108 0 166.5 -67t58.5 -179zM235 177q0 -76 25.5 -115.5t70.5 -39.5q35 0 67 28.5t59 77t47 108t31 123t11 121.5q0 69 -23.5 109t-70.5 40q-36 0 -68.5 -28.5t-59.5 -76t-47 -107t-31 -121.5t-11 -119z " />
<glyph unicode="&#x151;" horiz-adv-x="502" d="M410 688q0 -23 -30 -48t-76 -44.5t-94 -27.5l-7 11q43 38 84 80.5t66 73.5q26 0 41.5 -12t15.5 -33zM594 688q0 -23 -30 -48t-76 -44.5t-94 -27.5l-7 11q43 38 84 80.5t66 73.5q27 0 42 -12t15 -33zM524 319q0 -69 -21.5 -129t-58.5 -105t-84.5 -70t-100.5 -25 q-82 0 -128.5 52t-46.5 140q0 67 21.5 126.5t59 104.5t86 71t102.5 26q83 0 127 -54t44 -137zM209 150q0 -59 13.5 -93.5t41.5 -34.5q23 0 43 22.5t37 59.5t29 82t18.5 90t6.5 84q0 54 -12.5 86t-40.5 32q-29 0 -53.5 -32t-43.5 -83t-29 -107.5t-10 -105.5z" />
<glyph unicode="&#x152;" horiz-adv-x="885" d="M843 0h-394q-41 -10 -84 -10q-127 0 -195 68t-68 184q0 85 27.5 160.5t79.5 133.5t124 91t161 33q52 0 92 -10h385q-1 -28 -8.5 -64t-18.5 -70.5t-24 -59.5h-8l-39 162q-21 0 -43 0.5t-43 0.5h-90l-58 -276l188 8l-10 -48l-185 9l-59 -280l96 -1q21 0 44 0.5t45 0.5 l108 166h9q1 -29 -2 -60q-3 -37 -11.5 -73.5t-18.5 -64.5zM237 217q0 -97 34 -146t96 -49q26 -1 48 8.5t38 26.5l115 541q-21 31 -68 31q-48 -1 -88.5 -27.5t-73 -71t-55 -98.5t-34.5 -110t-12 -105z" />
<glyph unicode="&#x153;" horiz-adv-x="715" d="M733 155q-17 -45 -47.5 -82.5t-69.5 -60t-82 -22.5q-45 0 -78 22t-51 63q-34 -40 -77 -62.5t-90 -22.5q-74 0 -116.5 52t-42.5 140q0 67 21 126.5t57 104.5t82.5 71t98.5 26q50 0 84.5 -25t51.5 -68q34 42 79 67.5t95 25.5q49 0 81 -27t32 -77q0 -56 -33 -98.5 t-92.5 -67.5t-138.5 -28v-17q0 -63 22 -96.5t63 -33.5q36 0 74 27t70 68zM629 480q-22 0 -43 -21t-39 -56.5t-31 -79t-17 -86.5q49 6 86 36t57.5 73t20.5 92q0 17 -8 29.5t-26 12.5zM204 150q0 -59 14 -93.5t42 -34.5q22 0 42.5 22.5t37 59.5t28.5 82t19 90t7 84 q0 54 -12.5 86t-41.5 32q-28 0 -53 -32t-43.5 -83t-29 -107.5t-10.5 -105.5z" />
<glyph unicode="&#x154;" horiz-adv-x="673" d="M620 838q0 -18 -19.5 -36.5t-51.5 -35.5t-72 -29.5t-81 -17.5l-6 10q44 39 86.5 81t67.5 73q35 0 55.5 -12t20.5 -33zM418 619h-51l-5 -24l-62 -291h58q57 0 97.5 28t62.5 72.5t22 94.5q0 59 -33.5 89.5t-88.5 30.5zM310 0h-270v13l56 12q13 3 18.5 10.5t8.5 20.5 l114 539l5 22l-70 20l3 13h259q110 0 171 -40t61 -118q0 -46 -21.5 -83.5t-57 -65t-78.5 -43.5l53 -146q19 -64 32.5 -91.5t39.5 -37.5l38 -12l-3 -13l-128 -2q-38 -1 -56 13t-27 44l-69 218h-22h-73l-46 -217l-5 -22l70 -21z" />
<glyph unicode="&#x155;" horiz-adv-x="431" d="M477 688q0 -18 -19 -37t-51.5 -35.5t-72 -29t-80.5 -18.5l-7 11q45 38 87 80.5t68 73.5q34 0 54.5 -12t20.5 -33zM207 -1q-5 -1 -21 -2t-35.5 -2.5t-35 -2t-17.5 -0.5q-14 0 -10 11l29 140l14 64l22 104q20 95 20 112t-9 17q-15 0 -39 -30t-48 -66l-8 4q13 38 36 75.5 t54 62t66 24.5q27 0 44.5 -16t17.5 -50q0 -33 -13 -92t-29 -122q31 84 66 147t72 98t73 35q24 0 36 -15.5t12 -37.5q0 -25 -11 -49.5t-27 -43.5q-13 9 -31.5 17t-37.5 8q-30 0 -58.5 -31.5t-54 -87t-47.5 -127.5z" />
<glyph unicode="&#x156;" horiz-adv-x="673" d="M418 619h-51l-5 -24l-62 -291h58q57 0 97.5 28t62.5 72.5t22 94.5q0 59 -33.5 89.5t-88.5 30.5zM417 -133q0 -30 -17.5 -64.5t-47.5 -66.5t-68 -55l-7 8q17 24 32 53t24 59q-39 7 -39 48q0 30 22 51t50 21q22 0 36.5 -14.5t14.5 -39.5zM310 0h-270v13l56 12 q13 3 18.5 10.5t8.5 20.5l114 539l5 22l-70 20l3 13h259q110 0 171 -40t61 -118q0 -46 -21.5 -83.5t-57 -65t-78.5 -43.5l53 -146q19 -64 32.5 -91.5t39.5 -37.5l38 -12l-3 -13l-128 -2q-38 -1 -56 13t-27 44l-69 218h-22h-73l-46 -217l-5 -22l70 -21z" />
<glyph unicode="&#x157;" horiz-adv-x="431" d="M207 -1q-5 -1 -21 -2t-35.5 -2.5t-35 -2t-17.5 -0.5q-14 0 -10 11l29 140l14 64l22 104q20 95 20 112t-9 17q-15 0 -39 -30t-48 -66l-8 4q13 38 36 75.5t54 62t66 24.5q27 0 44.5 -16t17.5 -50q0 -33 -13 -92t-29 -122q31 84 66 147t72 98t73 35q24 0 36 -15.5t12 -37.5 q0 -25 -11 -49.5t-27 -43.5q-13 9 -31.5 17t-37.5 8q-30 0 -58.5 -31.5t-54 -87t-47.5 -127.5zM182 -133q0 -30 -17.5 -64.5t-47.5 -66.5t-68 -55l-7 8q17 24 32 53t24 59q-39 7 -39 48q0 30 22 51t50 21q22 0 36.5 -14.5t14.5 -39.5z" />
<glyph unicode="&#x158;" horiz-adv-x="673" d="M534 726l-9 -5h-80q-16 34 -33.5 75t-32.5 77l10 6q25 -19 55 -40t60 -39q32 18 71 39.5t75 39.5l6 -8q-21 -24 -45 -51t-44.5 -52t-32.5 -42zM418 619h-51l-5 -24l-62 -291h58q57 0 97.5 28t62.5 72.5t22 94.5q0 59 -33.5 89.5t-88.5 30.5zM310 0h-270v13l56 12 q13 3 18.5 10.5t8.5 20.5l114 539l5 22l-70 20l3 13h259q110 0 171 -40t61 -118q0 -46 -21.5 -83.5t-57 -65t-78.5 -43.5l53 -146q19 -64 32.5 -91.5t39.5 -37.5l38 -12l-3 -13l-128 -2q-38 -1 -56 13t-27 44l-69 218h-22h-73l-46 -217l-5 -22l70 -21z" />
<glyph unicode="&#x159;" horiz-adv-x="431" d="M388 577l-9 -6h-80q-16 34 -33.5 75t-32.5 77l10 7q25 -20 55 -40.5t60 -39.5q32 18 71 39.5t75 39.5l6 -7q-21 -24 -45 -51t-44.5 -52t-32.5 -42zM207 -1q-5 -1 -21 -2t-35.5 -2.5t-35 -2t-17.5 -0.5q-14 0 -10 11l29 140l14 64l22 104q20 95 20 112t-9 17 q-15 0 -39 -30t-48 -66l-8 4q13 38 36 75.5t54 62t66 24.5q27 0 44.5 -16t17.5 -50q0 -33 -13 -92t-29 -122q31 84 66 147t72 98t73 35q24 0 36 -15.5t12 -37.5q0 -25 -11 -49.5t-27 -43.5q-13 9 -31.5 17t-37.5 8q-30 0 -58.5 -31.5t-54 -87t-47.5 -127.5z" />
<glyph unicode="&#x15a;" horiz-adv-x="506" d="M559 838q0 -18 -19 -36.5t-51.5 -35.5t-72 -29.5t-80.5 -17.5l-7 10q45 39 87 81t68 73q34 0 54.5 -12t20.5 -33zM152 468q0 61 35.5 104t94 65.5t127.5 22.5q53 0 95.5 -10t66.5 -28q11 -10 11 -22q0 -18 -12 -47.5t-28 -58.5t-29 -44l-9 1l-19 167q-27 11 -69 11 q-39 0 -71.5 -14.5t-51.5 -41t-19 -62.5q0 -34 16.5 -61t42.5 -49.5t55.5 -45t55.5 -48t42.5 -57.5t16.5 -74q0 -60 -34 -101.5t-92.5 -63t-130.5 -21.5q-55 0 -103 9t-71 28q-15 12 -15 30q0 19 10.5 48t25.5 57.5t28 46.5l9 -1l24 -168q15 -8 37.5 -13.5t50.5 -5.5 q61 0 100.5 32.5t39.5 85.5q0 35 -16.5 61.5t-43 49t-55.5 44.5t-55.5 46.5t-43 55.5t-16.5 72z" />
<glyph unicode="&#x15b;" horiz-adv-x="418" d="M461 688q0 -18 -19 -37t-51.5 -35.5t-72 -29t-80.5 -18.5l-7 11q45 38 87 80.5t68 73.5q34 0 54.5 -12t20.5 -33zM419 131q0 -62 -51 -101.5t-148 -39.5q-46 0 -83.5 12t-60 33.5t-22.5 52.5q0 28 25.5 50t73.5 31l7 -4q-4 -21 -5.5 -39.5t1.5 -35.5q4 -32 23 -50.5 t50 -18.5q30 0 51 19.5t21 52.5q0 29 -19 54.5t-46.5 49.5t-55.5 50t-46.5 55.5t-18.5 67.5q0 61 50 100.5t135 39.5q69 0 114.5 -27t45.5 -70q0 -29 -24.5 -50.5t-63.5 -28.5l-8 3q1 18 2 37.5t-1 35.5q-4 32 -21 50.5t-44 18.5q-30 0 -48.5 -19.5t-18.5 -50.5 q0 -30 18.5 -55.5t46.5 -50t55.5 -50.5t46.5 -55.5t19 -66.5z" />
<glyph unicode="&#x15c;" horiz-adv-x="506" d="M569 727l-10 -6q-26 19 -56 39.5t-60 39.5q-32 -18 -71 -39.5t-74 -39.5l-6 8q21 23 44.5 50t44 52t33.5 43l9 5h80q16 -34 33.5 -75t32.5 -77zM152 468q0 61 35.5 104t94 65.5t127.5 22.5q53 0 95.5 -10t66.5 -28q11 -10 11 -22q0 -18 -12 -47.5t-28 -58.5t-29 -44l-9 1 l-19 167q-27 11 -69 11q-39 0 -71.5 -14.5t-51.5 -41t-19 -62.5q0 -34 16.5 -61t42.5 -49.5t55.5 -45t55.5 -48t42.5 -57.5t16.5 -74q0 -60 -34 -101.5t-92.5 -63t-130.5 -21.5q-55 0 -103 9t-71 28q-15 12 -15 30q0 19 10.5 48t25.5 57.5t28 46.5l9 -1l24 -168 q15 -8 37.5 -13.5t50.5 -5.5q61 0 100.5 32.5t39.5 85.5q0 35 -16.5 61.5t-43 49t-55.5 44.5t-55.5 46.5t-43 55.5t-16.5 72z" />
<glyph unicode="&#x15d;" horiz-adv-x="418" d="M473 577l-10 -6q-25 19 -55 39.5t-60 39.5q-32 -18 -71 -39.5t-74 -39.5l-7 8q22 23 45.5 50t44 52t33.5 43l9 5h79q17 -34 34 -75t32 -77zM419 131q0 -62 -51 -101.5t-148 -39.5q-46 0 -83.5 12t-60 33.5t-22.5 52.5q0 28 25.5 50t73.5 31l7 -4q-4 -21 -5.5 -39.5 t1.5 -35.5q4 -32 23 -50.5t50 -18.5q30 0 51 19.5t21 52.5q0 29 -19 54.5t-46.5 49.5t-55.5 50t-46.5 55.5t-18.5 67.5q0 61 50 100.5t135 39.5q69 0 114.5 -27t45.5 -70q0 -29 -24.5 -50.5t-63.5 -28.5l-8 3q1 18 2 37.5t-1 35.5q-4 32 -21 50.5t-44 18.5 q-30 0 -48.5 -19.5t-18.5 -50.5q0 -30 18.5 -55.5t46.5 -50t55.5 -50.5t46.5 -55.5t19 -66.5z" />
<glyph unicode="&#x15e;" horiz-adv-x="506" d="M226 -88l-2 5l25 73h-3q-55 0 -103 9t-71 28q-15 12 -15 30q0 19 10.5 48t25.5 57.5t28 46.5l9 -1l24 -168q15 -8 37.5 -13.5t50.5 -5.5q61 0 100.5 32.5t39.5 85.5q0 35 -16.5 61.5t-43 49t-55.5 44.5t-55.5 46.5t-43 55.5t-16.5 72q0 61 35.5 104t94 65.5t127.5 22.5 q53 0 95.5 -10t66.5 -28q11 -10 11 -22q0 -18 -12 -47.5t-28 -58.5t-29 -44l-9 1l-19 167q-27 11 -69 11q-39 0 -71.5 -14.5t-51.5 -41t-19 -62.5q0 -34 16.5 -61t42.5 -49.5t55.5 -45t55.5 -48t42.5 -57.5t16.5 -74q0 -54 -28.5 -93.5t-77.5 -62.5t-112 -28l-12 -35 q46 -3 70.5 -19.5t24.5 -42.5q0 -32 -29 -52.5t-72 -30t-86 -10.5l-2 15q38 9 67 25.5t29 39.5q0 27 -49 30z" />
<glyph unicode="&#x15f;" horiz-adv-x="418" d="M174 -89l-2 6l26 74q-61 4 -102.5 29.5t-41.5 67.5q0 28 25.5 50t73.5 31l7 -4q-4 -21 -5.5 -39.5t1.5 -35.5q4 -32 23 -50.5t50 -18.5q30 0 51 19.5t21 52.5q0 29 -19 54.5t-46.5 49.5t-55.5 50t-46.5 55.5t-18.5 67.5q0 61 50 100.5t135 39.5q69 0 114.5 -27t45.5 -70 q0 -29 -24.5 -50.5t-63.5 -28.5l-8 3q1 18 2 37.5t-1 35.5q-4 32 -21 50.5t-44 18.5q-30 0 -48.5 -19.5t-18.5 -50.5q-1 -30 18 -55.5t47 -50t55.5 -50.5t46.5 -55.5t19 -66.5q0 -60 -47.5 -99t-137.5 -42l-12 -33q45 -3 69.5 -19.5t24.5 -43.5q0 -31 -28.5 -51.5t-71.5 -30 t-87 -10.5l-1 15q38 8 66.5 25t28.5 39q0 27 -49 30z" />
<glyph unicode="&#x160;" horiz-adv-x="506" d="M473 726l-9 -5h-79q-17 34 -34 75t-32 77l9 6q26 -19 56 -40t60 -39q32 18 71 39.5t74 39.5l7 -8q-22 -24 -45.5 -51t-44 -52t-33.5 -42zM152 468q0 61 35.5 104t94 65.5t127.5 22.5q53 0 95.5 -10t66.5 -28q11 -10 11 -22q0 -18 -12 -47.5t-28 -58.5t-29 -44l-9 1 l-19 167q-27 11 -69 11q-39 0 -71.5 -14.5t-51.5 -41t-19 -62.5q0 -34 16.5 -61t42.5 -49.5t55.5 -45t55.5 -48t42.5 -57.5t16.5 -74q0 -60 -34 -101.5t-92.5 -63t-130.5 -21.5q-55 0 -103 9t-71 28q-15 12 -15 30q0 19 10.5 48t25.5 57.5t28 46.5l9 -1l24 -168 q15 -8 37.5 -13.5t50.5 -5.5q61 0 100.5 32.5t39.5 85.5q0 35 -16.5 61.5t-43 49t-55.5 44.5t-55.5 46.5t-43 55.5t-16.5 72z" />
<glyph unicode="&#x161;" horiz-adv-x="418" d="M372 577l-9 -6h-80q-16 34 -33.5 75t-32.5 77l10 7q25 -20 55 -40.5t60 -39.5q32 18 71 39.5t75 39.5l6 -7q-21 -24 -45 -51t-44.5 -52t-32.5 -42zM419 131q0 -62 -51 -101.5t-148 -39.5q-46 0 -83.5 12t-60 33.5t-22.5 52.5q0 28 25.5 50t73.5 31l7 -4 q-4 -21 -5.5 -39.5t1.5 -35.5q4 -32 23 -50.5t50 -18.5q30 0 51 19.5t21 52.5q0 29 -19 54.5t-46.5 49.5t-55.5 50t-46.5 55.5t-18.5 67.5q0 61 50 100.5t135 39.5q69 0 114.5 -27t45.5 -70q0 -29 -24.5 -50.5t-63.5 -28.5l-8 3q1 18 2 37.5t-1 35.5q-4 32 -21 50.5 t-44 18.5q-30 0 -48.5 -19.5t-18.5 -50.5q0 -30 18.5 -55.5t46.5 -50t55.5 -50.5t46.5 -55.5t19 -66.5z" />
<glyph unicode="&#x162;" horiz-adv-x="587" d="M251 -88l-2 5l29 83h-118v13l56 12q13 3 18.5 10.5t8.5 20.5l119 563h-61q-16 0 -32 -0.5t-32 -0.5l-107 -183h-8q0 11 0.5 24.5t1.5 27.5q3 40 12.5 84t21.5 79h547q-2 -31 -10.5 -71t-20.5 -78.5t-25 -65.5h-9l-29 183q-16 0 -32 0.5t-31 0.5h-61l-119 -563l-5 -22 l70 -21l-3 -13h-116l-15 -43q45 -3 69.5 -19.5t24.5 -42.5q0 -32 -28.5 -52.5t-72 -30t-86.5 -10.5l-1 15q37 9 66 25.5t29 39.5q0 27 -49 30z" />
<glyph unicode="&#x163;" horiz-adv-x="332" d="M134 -88l-2 5l26 75q-29 5 -45 26.5t-16 57.5q0 17 2.5 35.5t7.5 38.5l63 298h-77l1 8l85 29l138 131l8 -2l-29 -138h116l-6 -28h-116l-63 -298q-5 -26 -8 -41t-3 -25q0 -23 21 -23q20 0 51 28.5t63 67.5l8 -5q-16 -36 -40.5 -71t-56 -60t-69.5 -30l-11 -34 q45 -3 69.5 -19.5t24.5 -42.5q0 -32 -28.5 -52.5t-72 -30t-86.5 -10.5l-1 15q37 9 66 25.5t29 39.5q0 27 -49 30z" />
<glyph unicode="&#x164;" horiz-adv-x="587" d="M494 726l-9 -5h-80q-16 34 -33.5 75t-32.5 77l10 6q25 -19 55 -40t60 -39q32 18 71 39.5t75 39.5l6 -8q-21 -24 -45 -51t-44.5 -52t-32.5 -42zM430 0h-270v13l56 12q13 3 18.5 10.5t8.5 20.5l119 563h-61q-16 0 -32 -0.5t-32 -0.5l-107 -183h-8q0 11 0.5 24.5t1.5 27.5 q3 40 12.5 84t21.5 79h547q-2 -31 -10.5 -71t-20.5 -78.5t-25 -65.5h-9l-29 183q-16 0 -32 0.5t-31 0.5h-61l-119 -563l-5 -22l70 -21z" />
<glyph unicode="&#x165;" horiz-adv-x="346" d="M495 674q0 -28 -16 -59t-43 -60.5t-62 -51.5l-7 8q16 21 30 48t22 55q-36 6 -36 43q0 28 20 47t46 19q21 0 33.5 -13t12.5 -36zM359 152q-17 -38 -44 -75.5t-61.5 -62t-75.5 -24.5q-37 0 -59 22t-22 64q0 17 2.5 35.5t7.5 38.5l63 298h-77l1 8l85 29l138 131l8 -2 l-29 -138h116l-6 -28h-116l-63 -298q-5 -26 -8 -41t-3 -25q0 -23 21 -23q20 0 51 28.5t63 67.5z" />
<glyph unicode="&#x166;" horiz-adv-x="587" d="M430 0h-270v13l56 12q13 3 18.5 10.5t8.5 20.5l48 227h-139l6 34h140l64 302h-61q-16 0 -32 -0.5t-32 -0.5l-107 -183h-8q0 11 0.5 24.5t1.5 27.5q3 40 12.5 84t21.5 79h547q-2 -31 -10.5 -71t-20.5 -78.5t-25 -65.5h-9l-29 183q-16 0 -32 0.5t-31 0.5h-61l-64 -302h140 l-6 -34h-141l-48 -227l-5 -22l70 -21z" />
<glyph unicode="&#x167;" horiz-adv-x="332" d="M359 152q-17 -38 -44 -75.5t-61.5 -62t-75.5 -24.5q-37 0 -59 22t-22 64q0 17 2.5 35.5t7.5 38.5l34 161h-76l6 28h76l23 109h-77l1 8l85 29l138 131l8 -2l-29 -138h116l-6 -28h-116l-23 -109h117l-5 -28h-118l-34 -161q-5 -26 -8 -41t-3 -25q0 -23 21 -23q20 0 51 28.5 t63 67.5z" />
<glyph unicode="&#x168;" horiz-adv-x="670" d="M624 809q14 11 31.5 26t33.5 30l9 -4q-13 -52 -41 -87t-70 -35q-27 0 -58 10.5t-59 23t-45 17.5q-15 -11 -32 -26t-33 -30l-9 4q12 54 41 88t70 34q27 0 57 -11t57.5 -23t47.5 -17zM616 231q-27 -125 -93.5 -183t-167.5 -58q-98 0 -153 50t-55 139q0 28 7 61l76 355l5 22 l-71 20l4 13h270v-13l-56 -11q-14 -4 -19.5 -11.5t-7.5 -19.5l-77 -362q-4 -18 -6 -34t-2 -30q0 -67 34 -100.5t91 -33.5q65 0 115 49t71 148l77 364l5 21l-79 20l3 13h198v-13l-87 -20l-5 -21z" />
<glyph unicode="&#x169;" d="M510 659q14 11 31 26l34 30l8 -4q-12 -52 -40.5 -87t-70.5 -35q-27 0 -58 10.5t-58.5 23t-45.5 17.5q-14 -11 -31.5 -26t-33.5 -30l-8 4q12 54 40.5 88t70.5 34q26 0 56 -11t58 -23t48 -17zM459 502q4 0 20 1t35.5 2.5t35 2.5t18.5 1q13 0 10 -12l-29 -139l-14 -65 l-22 -103q-20 -95 -20 -113q0 -16 9 -16q15 0 39 30t48 66l8 -5q-13 -38 -36.5 -75.5t-54 -62t-65.5 -24.5q-27 0 -44.5 16t-17.5 51q0 32 13 92.5t30 124.5q-53 -132 -116 -208t-123 -76q-38 0 -57.5 22t-19.5 58q0 24 6 59t16 75.5t20 80.5t18 73q5 22 8.5 39.5t3.5 27.5 q0 15 -9 15q-13 0 -38 -30t-51 -66l-7 4q14 38 38.5 75.5t55.5 62t66 24.5q63 0 63 -77q0 -16 -2.5 -35t-7.5 -40q-9 -46 -23 -98t-24.5 -97t-10.5 -71q0 -11 4 -18.5t16 -7.5q23 0 55 38t65.5 104t60.5 150z" />
<glyph unicode="&#x16a;" horiz-adv-x="670" d="M377 768l15 65h288l-15 -65h-288zM616 231q-27 -125 -93.5 -183t-167.5 -58q-98 0 -153 50t-55 139q0 28 7 61l76 355l5 22l-71 20l4 13h270v-13l-56 -11q-14 -4 -19.5 -11.5t-7.5 -19.5l-77 -362q-4 -18 -6 -34t-2 -30q0 -67 34 -100.5t91 -33.5q65 0 115 49t71 148 l77 364l5 21l-79 20l3 13h198v-13l-87 -20l-5 -21z" />
<glyph unicode="&#x16b;" d="M262 618l14 65h288l-14 -65h-288zM459 502q4 0 20 1t35.5 2.5t35 2.5t18.5 1q13 0 10 -12l-29 -139l-14 -65l-22 -103q-20 -95 -20 -113q0 -16 9 -16q15 0 39 30t48 66l8 -5q-13 -38 -36.5 -75.5t-54 -62t-65.5 -24.5q-27 0 -44.5 16t-17.5 51q0 32 13 92.5t30 124.5 q-53 -132 -116 -208t-123 -76q-38 0 -57.5 22t-19.5 58q0 24 6 59t16 75.5t20 80.5t18 73q5 22 8.5 39.5t3.5 27.5q0 15 -9 15q-13 0 -38 -30t-51 -66l-7 4q14 38 38.5 75.5t55.5 62t66 24.5q63 0 63 -77q0 -16 -2.5 -35t-7.5 -40q-9 -46 -23 -98t-24.5 -97t-10.5 -71 q0 -11 4 -18.5t16 -7.5q23 0 55 38t65.5 104t60.5 150z" />
<glyph unicode="&#x16c;" horiz-adv-x="670" d="M649 873l3 1l11 -5q-23 -69 -63 -105.5t-92 -36.5q-51 0 -75 36.5t-17 106.5l15 4q8 -33 30.5 -51t63.5 -18q40 0 70 18t54 50zM616 231q-27 -125 -93.5 -183t-167.5 -58q-98 0 -153 50t-55 139q0 28 7 61l76 355l5 22l-71 20l4 13h270v-13l-56 -11q-14 -4 -19.5 -11.5 t-7.5 -19.5l-77 -362q-4 -18 -6 -34t-2 -30q0 -67 34 -100.5t91 -33.5q65 0 115 49t71 148l77 364l5 21l-79 20l3 13h198v-13l-87 -20l-5 -21z" />
<glyph unicode="&#x16d;" d="M535 723l3 1l11 -4q-23 -70 -63 -106.5t-92 -36.5q-51 0 -75 37t-17 107l15 3q8 -33 30.5 -51t63.5 -18q40 0 70 18t54 50zM459 502q4 0 20 1t35.5 2.5t35 2.5t18.5 1q13 0 10 -12l-29 -139l-14 -65l-22 -103q-20 -95 -20 -113q0 -16 9 -16q15 0 39 30t48 66l8 -5 q-13 -38 -36.5 -75.5t-54 -62t-65.5 -24.5q-27 0 -44.5 16t-17.5 51q0 32 13 92.5t30 124.5q-53 -132 -116 -208t-123 -76q-38 0 -57.5 22t-19.5 58q0 24 6 59t16 75.5t20 80.5t18 73q5 22 8.5 39.5t3.5 27.5q0 15 -9 15q-13 0 -38 -30t-51 -66l-7 4q14 38 38.5 75.5 t55.5 62t66 24.5q63 0 63 -77q0 -16 -2.5 -35t-7.5 -40q-9 -46 -23 -98t-24.5 -97t-10.5 -71q0 -11 4 -18.5t16 -7.5q23 0 55 38t65.5 104t60.5 150z" />
<glyph unicode="&#x16e;" horiz-adv-x="670" d="M620 813q0 -40 -32 -67t-76 -27q-35 0 -55 17.5t-20 48.5q0 39 32 66.5t77 27.5q35 0 54.5 -18t19.5 -48zM488 786q1 -34 32 -34q21 0 35 17.5t14 42.5q-1 34 -31 34q-21 0 -35.5 -17.5t-14.5 -42.5zM616 231q-27 -125 -93.5 -183t-167.5 -58q-98 0 -153 50t-55 139 q0 28 7 61l76 355l5 22l-71 20l4 13h270v-13l-56 -11q-14 -4 -19.5 -11.5t-7.5 -19.5l-77 -362q-4 -18 -6 -34t-2 -30q0 -67 34 -100.5t91 -33.5q65 0 115 49t71 148l77 364l5 21l-79 20l3 13h198v-13l-87 -20l-5 -21z" />
<glyph unicode="&#x16f;" d="M503 665q0 -40 -32 -67.5t-76 -27.5q-35 0 -55 17.5t-20 48.5q0 40 32 67.5t77 27.5q35 0 54.5 -18t19.5 -48zM371 638q1 -34 32 -34q21 0 35 17t14 43q-1 33 -31 33q-21 0 -35.5 -17t-14.5 -42zM459 502q4 0 20 1t35.5 2.5t35 2.5t18.5 1q13 0 10 -12l-29 -139l-14 -65 l-22 -103q-20 -95 -20 -113q0 -16 9 -16q15 0 39 30t48 66l8 -5q-13 -38 -36.5 -75.5t-54 -62t-65.5 -24.5q-27 0 -44.5 16t-17.5 51q0 32 13 92.5t30 124.5q-53 -132 -116 -208t-123 -76q-38 0 -57.5 22t-19.5 58q0 24 6 59t16 75.5t20 80.5t18 73q5 22 8.5 39.5t3.5 27.5 q0 15 -9 15q-13 0 -38 -30t-51 -66l-7 4q14 38 38.5 75.5t55.5 62t66 24.5q63 0 63 -77q0 -16 -2.5 -35t-7.5 -40q-9 -46 -23 -98t-24.5 -97t-10.5 -71q0 -11 4 -18.5t16 -7.5q23 0 55 38t65.5 104t60.5 150z" />
<glyph unicode="&#x170;" horiz-adv-x="670" d="M540 839q0 -24 -30 -49t-76 -44.5t-94 -26.5l-7 10q43 39 84 81t66 73q26 0 41.5 -11.5t15.5 -32.5zM724 839q0 -24 -30 -49t-76 -44.5t-94 -26.5l-7 10q43 39 84 81t66 73q27 0 42 -11.5t15 -32.5zM616 231q-27 -125 -93.5 -183t-167.5 -58q-98 0 -153 50t-55 139 q0 28 7 61l76 355l5 22l-71 20l4 13h270v-13l-56 -11q-14 -4 -19.5 -11.5t-7.5 -19.5l-77 -362q-4 -18 -6 -34t-2 -30q0 -67 34 -100.5t91 -33.5q65 0 115 49t71 148l77 364l5 21l-79 20l3 13h198v-13l-87 -20l-5 -21z" />
<glyph unicode="&#x171;" d="M431 688q0 -23 -30 -48t-76 -44.5t-94 -27.5l-7 11q43 38 84 80.5t66 73.5q26 0 41.5 -12t15.5 -33zM615 688q0 -23 -30 -48t-76 -44.5t-94 -27.5l-7 11q43 38 84 80.5t66 73.5q27 0 42 -12t15 -33zM459 502q4 0 20 1t35.5 2.5t35 2.5t18.5 1q13 0 10 -12l-29 -139 l-14 -65l-22 -103q-20 -95 -20 -113q0 -16 9 -16q15 0 39 30t48 66l8 -5q-13 -38 -36.5 -75.5t-54 -62t-65.5 -24.5q-27 0 -44.5 16t-17.5 51q0 32 13 92.5t30 124.5q-53 -132 -116 -208t-123 -76q-38 0 -57.5 22t-19.5 58q0 24 6 59t16 75.5t20 80.5t18 73q5 22 8.5 39.5 t3.5 27.5q0 15 -9 15q-13 0 -38 -30t-51 -66l-7 4q14 38 38.5 75.5t55.5 62t66 24.5q63 0 63 -77q0 -16 -2.5 -35t-7.5 -40q-9 -46 -23 -98t-24.5 -97t-10.5 -71q0 -11 4 -18.5t16 -7.5q23 0 55 38t65.5 104t60.5 150z" />
<glyph unicode="&#x172;" horiz-adv-x="670" d="M454 -70q-26 -56 -61 -90.5t-74 -34.5q-25 0 -39 14.5t-14 38.5q0 39 38.5 74t91.5 61q-20 -3 -41 -3q-98 0 -153 50t-55 139q0 28 7 61l76 355l5 22l-71 20l4 13h270v-13l-56 -11q-14 -4 -19.5 -11.5t-7.5 -19.5l-77 -362q-4 -18 -6 -34t-2 -30q0 -67 34 -100.5 t91 -33.5q65 0 115 49t71 148l77 364l5 21l-79 20l3 13h198v-13l-87 -20l-5 -21l-77 -366q-18 -82 -53.5 -135t-87.5 -79q-57 -33 -89 -62.5t-32 -56.5q0 -21 18 -21q25 0 75 59z" />
<glyph unicode="&#x173;" d="M546 -70q-27 -56 -61.5 -90.5t-72.5 -34.5q-25 0 -38.5 14t-13.5 38q0 25 17 49t42.5 46.5t49.5 41.5q-14 -4 -28 -4q-27 0 -44.5 16t-17.5 51q0 32 13 92.5t30 124.5q-53 -132 -116 -208t-123 -76q-38 0 -57.5 22t-19.5 58q0 24 6 59t16 75.5t20 80.5t18 73 q5 22 8.5 39.5t3.5 27.5q0 15 -9 15q-13 0 -38 -30t-51 -66l-7 4q14 38 38.5 75.5t55.5 62t66 24.5q63 0 63 -77q0 -16 -2.5 -35t-7.5 -40q-9 -46 -23 -98t-24.5 -97t-10.5 -71q0 -11 4 -18.5t16 -7.5q23 0 55 38t65.5 104t60.5 150l30 144q4 0 20 1t35.5 2.5t35 2.5t18.5 1 q13 0 10 -12l-29 -139l-14 -65l-22 -103q-20 -95 -20 -113q0 -16 9 -16q15 0 39 30t48 66l8 -5q-8 -23 -20 -47t-27 -44q-24 -35 -48 -66t-40.5 -56t-16.5 -42q0 -21 19 -21q25 0 75 59z" />
<glyph unicode="&#x174;" horiz-adv-x="1009" d="M805 727l-10 -6q-25 19 -55 39.5t-60 39.5q-32 -18 -71 -39.5t-74 -39.5l-7 8q22 23 45.5 50t44 52t33.5 43l9 5h79q17 -34 34 -75t32 -77zM1015 533l-297 -535h-64l-52 441l-238 -441h-64l-82 581q-3 20 -10.5 31t-23.5 16l-41 11l3 13h270v-13l-75 -21l59 -483l195 367 l-9 79q-3 21 -10.5 31t-22.5 16l-40 11l3 13h275l-1 -13l-80 -21l48 -481l254 481l-78 21l4 13h200v-13q-30 -8 -54 -20q-22 -11 -36.5 -30t-32.5 -54z" />
<glyph unicode="&#x175;" horiz-adv-x="718" d="M616 577l-10 -6q-25 19 -55 39.5t-60 39.5q-32 -18 -71 -39.5t-74 -39.5l-7 8q22 23 45.5 50t44 52t33.5 43l9 5h79q17 -34 34 -75t32 -77zM452 510q39 0 59 -24.5t20 -80.5q0 -65 -8.5 -155.5t-24.5 -198.5q48 64 83 133.5t54.5 135.5t19.5 120q0 18 -2 33t-5 26 q8 4 23.5 7.5t29.5 3.5q35 0 55 -19.5t20 -57.5q0 -60 -37.5 -132.5t-106 -151t-162.5 -154.5l-72 4q4 77 7 143.5t4 130.5q-55 -135 -190 -278l-72 5q5 79 9 153.5t4 131.5q0 64 -2.5 97.5t-8 45.5t-15.5 12q-17 0 -40 -30t-46 -66l-8 4q13 39 36 76t55 61.5t71 24.5 q80 0 80 -133q0 -59 -8.5 -139.5t-24.5 -177.5q45 60 81 126.5t57 133.5t21 130q0 15 -2 27.5t-4 21.5q8 4 22.5 7.5t27.5 3.5z" />
<glyph unicode="&#x176;" horiz-adv-x="594" d="M602 727l-10 -6q-25 19 -55 39.5t-60 39.5q-32 -18 -71 -39.5t-74 -39.5l-7 8q22 23 45.5 50t44 52t33.5 43l9 5h79q17 -34 34 -75t32 -77zM434 0h-270v13l56 12q14 3 19 10.5t8 20.5l24 114q9 40 10.5 94.5t-3 111t-14 105t-24 79t-32.5 30.5q-14 0 -30 -14.5t-32 -36.5 t-31 -45l-10 4q13 37 37 74.5t55.5 62.5t68.5 25t63.5 -31.5t43.5 -86t23 -124.5t2 -148q43 112 89.5 200t88.5 139t75 51q26 0 39 -23t18.5 -57.5t7.5 -70.5l-10 -5q-11 37 -21.5 62.5t-30.5 25.5q-21 0 -50.5 -31t-62.5 -81.5t-63.5 -110.5t-54 -120t-33.5 -107l-18 -86 l-5 -22l71 -21z" />
<glyph unicode="&#x177;" horiz-adv-x="481" d="M490 577l-10 -6q-25 19 -55 39.5t-60 39.5q-32 -18 -71 -39.5t-74 -39.5l-7 8q22 23 45.5 50t44 52t33.5 43l9 5h79q17 -34 34 -75t32 -77zM298 348q0 -44 -7.5 -99.5t-23 -115t-38.5 -115.5q64 61 105 133t60.5 146t19.5 139q0 20 -2 35.5t-4 27.5q8 4 22.5 7.5 t31.5 3.5q73 0 73 -82q0 -72 -36.5 -153.5t-107.5 -157t-176 -130.5q-24 -52 -54.5 -93t-68.5 -64.5t-83 -23.5q-42 0 -67 17t-25 42q0 19 15 32.5t37 17.5q6 -21 18.5 -43.5t32.5 -22.5q26 0 49 33t41.5 88t32.5 120.5t21.5 131t7.5 120.5q0 39 -5.5 68.5t-20.5 29.5 q-17 0 -39 -30t-43 -66l-8 4q12 39 34 76t52.5 61.5t67.5 24.5q46 0 67 -42.5t21 -119.5z" />
<glyph unicode="&#x178;" horiz-adv-x="594" d="M436 814q0 -32 -24 -53.5t-56 -21.5q-25 0 -39 13t-14 35q0 30 24.5 52t55.5 22q24 0 38.5 -12.5t14.5 -34.5zM653 814q0 -32 -24 -53.5t-56 -21.5q-25 0 -39 13t-14 35q0 30 24.5 52t55.5 22q24 0 38.5 -12.5t14.5 -34.5zM434 0h-270v13l56 12q14 3 19 10.5t8 20.5 l24 114q9 40 10.5 94.5t-3 111t-14 105t-24 79t-32.5 30.5q-14 0 -30 -14.5t-32 -36.5t-31 -45l-10 4q13 37 37 74.5t55.5 62.5t68.5 25t63.5 -31.5t43.5 -86t23 -124.5t2 -148q43 112 89.5 200t88.5 139t75 51q26 0 39 -23t18.5 -57.5t7.5 -70.5l-10 -5q-11 37 -21.5 62.5 t-30.5 25.5q-21 0 -50.5 -31t-62.5 -81.5t-63.5 -110.5t-54 -120t-33.5 -107l-18 -86l-5 -22l71 -21z" />
<glyph unicode="&#x179;" horiz-adv-x="582" d="M569 838q0 -18 -19 -36.5t-51.5 -35.5t-72 -29.5t-80.5 -17.5l-7 10q45 39 87 81t68 73q34 0 54.5 -12t20.5 -33zM563 143q-2 -37 -10.5 -75t-19.5 -68h-466l-5 51l456 568h-236l-116 -188h-9q0 16 1.5 35.5t5.5 43.5q3 36 10.5 72.5t19.5 67.5h459l5 -48l-454 -571h240 l117 189h9q0 -16 -2 -35t-5 -42z" />
<glyph unicode="&#x17a;" horiz-adv-x="413" d="M458 688q0 -18 -19 -37t-51.5 -35.5t-72 -29t-80.5 -18.5l-7 11q45 38 87 80.5t68 73.5q34 0 54.5 -12t20.5 -33zM141 25q-32 0 -57 -9t-47 -26l-14 16q79 89 150.5 173t139.5 173q-35 16 -74 28t-65 12q-27 0 -44 -19.5t-38 -63.5l-9 4q19 99 44 147t76 48 q25 0 53 -13.5t55.5 -34t51.5 -41.5q33 45 65 91q23 -1 36.5 -12t13.5 -28t-11 -30.5t-31 -29.5q-51 -55 -120 -128.5t-173 -183.5q32 17 66 17q25 0 51.5 -5t50.5 -10t40 -5q19 0 37.5 22.5t43.5 67.5l9 -5q-14 -51 -29 -94t-35 -69.5t-50 -26.5q-25 0 -55.5 8.5 t-63.5 17.5t-67 9z" />
<glyph unicode="&#x17b;" horiz-adv-x="582" d="M529 815q0 -34 -26.5 -56.5t-61.5 -22.5q-29 0 -45.5 13.5t-16.5 37.5q0 33 27.5 55.5t61.5 22.5q28 0 44.5 -13.5t16.5 -36.5zM563 143q-2 -37 -10.5 -75t-19.5 -68h-466l-5 51l456 568h-236l-116 -188h-9q0 16 1.5 35.5t5.5 43.5q3 36 10.5 72.5t19.5 67.5h459l5 -48 l-454 -571h240l117 189h9q0 -16 -2 -35t-5 -42z" />
<glyph unicode="&#x17c;" horiz-adv-x="413" d="M417 665q0 -34 -26.5 -56.5t-62.5 -22.5q-28 0 -44.5 13.5t-16.5 37.5q0 33 27.5 55.5t61.5 22.5q28 0 44.5 -13.5t16.5 -36.5zM141 25q-32 0 -57 -9t-47 -26l-14 16q79 89 150.5 173t139.5 173q-35 16 -74 28t-65 12q-27 0 -44 -19.5t-38 -63.5l-9 4q19 99 44 147t76 48 q25 0 53 -13.5t55.5 -34t51.5 -41.5q33 45 65 91q23 -1 36.5 -12t13.5 -28t-11 -30.5t-31 -29.5q-51 -55 -120 -128.5t-173 -183.5q32 17 66 17q25 0 51.5 -5t50.5 -10t40 -5q19 0 37.5 22.5t43.5 67.5l9 -5q-14 -51 -29 -94t-35 -69.5t-50 -26.5q-25 0 -55.5 8.5 t-63.5 17.5t-67 9z" />
<glyph unicode="&#x17d;" horiz-adv-x="582" d="M483 726l-9 -5h-79q-17 34 -34 75t-32 77l9 6q26 -19 56 -40t60 -39q32 18 71 39.5t74 39.5l7 -8q-22 -24 -45.5 -51t-44 -52t-33.5 -42zM563 143q-2 -37 -10.5 -75t-19.5 -68h-466l-5 51l456 568h-236l-116 -188h-9q0 16 1.5 35.5t5.5 43.5q3 36 10.5 72.5t19.5 67.5 h459l5 -48l-454 -571h240l117 189h9q0 -16 -2 -35t-5 -42z" />
<glyph unicode="&#x17e;" horiz-adv-x="413" d="M369 577l-9 -6h-80q-16 34 -33.5 75t-32.5 77l10 7q25 -20 55 -40.5t60 -39.5q32 18 71 39.5t75 39.5l6 -7q-21 -24 -45 -51t-44.5 -52t-32.5 -42zM141 25q-32 0 -57 -9t-47 -26l-14 16q79 89 150.5 173t139.5 173q-35 16 -74 28t-65 12q-27 0 -44 -19.5t-38 -63.5l-9 4 q19 99 44 147t76 48q25 0 53 -13.5t55.5 -34t51.5 -41.5q33 45 65 91q23 -1 36.5 -12t13.5 -28t-11 -30.5t-31 -29.5q-51 -55 -120 -128.5t-173 -183.5q32 17 66 17q25 0 51.5 -5t50.5 -10t40 -5q19 0 37.5 22.5t43.5 67.5l9 -5q-14 -51 -29 -94t-35 -69.5t-50 -26.5 q-25 0 -55.5 8.5t-63.5 17.5t-67 9z" />
<glyph unicode="&#x18f;" horiz-adv-x="622" d="M94 200q0 56 15 114l15 12h384q18 83 18 154t-23.5 109.5t-74.5 38.5q-44 0 -81 -28t-59.5 -70t-22.5 -85q0 -4 1 -7q-29 -19 -75 -19q-24 0 -37.5 9.5t-13.5 26.5q0 38 24.5 75t66 66t93.5 46.5t106 17.5q111 0 170.5 -65.5t59.5 -179.5q0 -80 -26 -155.5t-73.5 -136.5 t-112 -97t-140.5 -36q-109 0 -161.5 56.5t-52.5 153.5zM218 166q0 -61 23 -102.5t72 -41.5q43 0 79 39t63.5 101t45.5 132l-269 -6q-6 -28 -10 -59t-4 -63z" />
<glyph unicode="&#x192;" horiz-adv-x="521" d="M295 108q-18 -72 -54 -124.5t-83.5 -81.5t-99.5 -28q-40 0 -63 18t-23 43q0 21 16.5 38t50.5 25q1 -29 10.5 -54.5t35.5 -25.5q33 0 57.5 43.5t41.5 144.5l36 189h-113l9 34h110l21 106q13 85 50.5 138t89 77.5t107.5 24.5q54 0 92 -26t38 -67q0 -27 -21 -45.5t-48 -22.5 q-7 57 -24 92.5t-45 35.5q-36 0 -60 -48.5t-45 -135.5l-32 -129h163l-9 -34h-163z" />
<glyph unicode="&#x19d;" horiz-adv-x="690" d="M162 29q-12 -58 -33 -96.5t-55 -68t-88 -59.5l-7 11q41 31 69.5 59.5t48 67.5t32.5 99l122 575l-78 21l4 12h167l224 -516l98 461l5 22l-83 20l3 13h202v-13l-64 -13q-15 -4 -20 -10.5t-7 -18.5l-127 -595h-86l-223 521z" />
<glyph unicode="&#x1cd;" horiz-adv-x="691" d="M542 726l-9 -5h-79q-17 34 -34 75t-32 77l10 6q25 -19 55 -40t60 -39q32 18 71 39.5t74 39.5l7 -8q-22 -24 -45.5 -51t-44 -52t-33.5 -42zM450 652h64l94 -581q3 -22 11 -31.5t26 -15.5l35 -11l-3 -13h-279l1 13l81 22l-23 161l-233 -1l-92 -162l76 -20l-3 -13h-189l1 13 l43 11q23 6 33.5 17t24.5 33zM243 228l210 -2l-42 296z" />
<glyph unicode="&#x1ce;" horiz-adv-x="526" d="M426 577l-9 -6h-80q-16 34 -33.5 75t-32.5 77l10 7q25 -20 55 -40.5t60 -39.5q32 18 71 39.5t75 39.5l6 -7q-21 -24 -45 -51t-44.5 -52t-32.5 -42zM70 117q0 68 23 137.5t65.5 127.5t102 93t132.5 35q44 0 86 -9t71 -23l-24 -81l-56 -254q-5 -23 -8 -40.5t-3 -27.5 q0 -14 9 -14q12 0 37 30t51 66l8 -5q-15 -38 -39.5 -75.5t-55 -62t-65.5 -24.5q-64 0 -64 78q0 15 3 34t7 41l30 131q-50 -133 -108.5 -208.5t-110.5 -75.5q-46 0 -68.5 36.5t-22.5 90.5zM412 418l12 49q-23 14 -50 14q-28 -1 -55 -25t-51 -64t-42 -88t-28.5 -96t-10.5 -87 q0 -28 6 -44.5t22 -16.5t41 29.5t53 80.5t55 115.5t48 132.5z" />
<glyph unicode="&#x1cf;" horiz-adv-x="347" d="M373 726l-9 -5h-80q-16 34 -33.5 75t-32.5 77l10 6q25 -19 55 -40t60 -39q32 18 71 39.5t75 39.5l6 -8q-21 -24 -45 -51t-44.5 -52t-32.5 -42zM310 0h-270v13l56 12q13 3 18.5 10.5t8.5 20.5l114 539l5 22l-70 20l3 13h270v-13l-56 -11q-14 -4 -19 -11.5t-8 -19.5 l-114 -539l-5 -22l70 -21z" />
<glyph unicode="&#x1d0;" horiz-adv-x="290" d="M295 576l-9 -5h-79q-12 34 -24 75t-22 77l9 6q22 -19 46.5 -38.5t49.5 -37.5q28 17 61.5 37.5t63.5 38.5l7 -8q-18 -24 -38 -51t-37 -52t-28 -42zM114 143q11 51 26.5 110.5t25.5 104.5q5 22 8.5 39.5t3.5 27.5q0 15 -9 15q-13 0 -38 -30t-51 -66l-7 4q14 38 38.5 75.5 t55.5 62t66 24.5q63 0 63 -77q0 -16 -2.5 -35t-7.5 -40q-10 -49 -25.5 -109t-26.5 -106q-5 -23 -8 -40.5t-3 -27.5q0 -14 9 -14q12 0 37 30t51 66l8 -5q-15 -38 -39.5 -75.5t-55 -62t-65.5 -24.5q-64 0 -64 78q0 15 3 34t7 41z" />
<glyph unicode="&#x1d1;" horiz-adv-x="643" d="M520 726l-9 -5h-79q-17 34 -34 75t-32 77l9 6q26 -19 56 -40t60 -39q32 18 71 39.5t74 39.5l7 -8q-22 -24 -45.5 -51t-44 -52t-33.5 -42zM680 414q0 -84 -27 -160t-74.5 -135.5t-111 -94t-137.5 -34.5q-111 0 -170 67t-59 176q0 85 27.5 162t76 136.5t112.5 94t138 34.5 q108 0 166.5 -67t58.5 -179zM235 177q0 -76 25.5 -115.5t70.5 -39.5q35 0 67 28.5t59 77t47 108t31 123t11 121.5q0 69 -23.5 109t-70.5 40q-36 0 -68.5 -28.5t-59.5 -76t-47 -107t-31 -121.5t-11 -119z" />
<glyph unicode="&#x1d2;" horiz-adv-x="502" d="M418 577l-9 -6h-80q-16 34 -33.5 75t-32.5 77l10 7q25 -20 55 -40.5t60 -39.5q32 18 71 39.5t75 39.5l6 -7q-21 -24 -45 -51t-44.5 -52t-32.5 -42zM524 319q0 -69 -21.5 -129t-58.5 -105t-84.5 -70t-100.5 -25q-82 0 -128.5 52t-46.5 140q0 67 21.5 126.5t59 104.5t86 71 t102.5 26q83 0 127 -54t44 -137zM209 150q0 -59 13.5 -93.5t41.5 -34.5q23 0 43 22.5t37 59.5t29 82t18.5 90t6.5 84q0 54 -12.5 86t-40.5 32q-29 0 -53.5 -32t-43.5 -83t-29 -107.5t-10 -105.5z" />
<glyph unicode="&#x1d3;" horiz-adv-x="670" d="M558 726l-9 -5h-80q-16 34 -33.5 75t-32.5 77l10 6q25 -19 55 -40t60 -39q32 18 71 39.5t75 39.5l6 -8q-21 -24 -45 -51t-44.5 -52t-32.5 -42zM616 231q-27 -125 -93.5 -183t-167.5 -58q-98 0 -153 50t-55 139q0 28 7 61l76 355l5 22l-71 20l4 13h270v-13l-56 -11 q-14 -4 -19.5 -11.5t-7.5 -19.5l-77 -362q-4 -18 -6 -34t-2 -30q0 -67 34 -100.5t91 -33.5q65 0 115 49t71 148l77 364l5 21l-79 20l3 13h198v-13l-87 -20l-5 -21z" />
<glyph unicode="&#x1d4;" d="M439 577l-9 -6h-80q-16 34 -33.5 75t-32.5 77l10 7q25 -20 55 -40.5t60 -39.5q32 18 71 39.5t75 39.5l6 -7q-21 -24 -45 -51t-44.5 -52t-32.5 -42zM459 502q4 0 20 1t35.5 2.5t35 2.5t18.5 1q13 0 10 -12l-29 -139l-14 -65l-22 -103q-20 -95 -20 -113q0 -16 9 -16 q15 0 39 30t48 66l8 -5q-13 -38 -36.5 -75.5t-54 -62t-65.5 -24.5q-27 0 -44.5 16t-17.5 51q0 32 13 92.5t30 124.5q-53 -132 -116 -208t-123 -76q-38 0 -57.5 22t-19.5 58q0 24 6 59t16 75.5t20 80.5t18 73q5 22 8.5 39.5t3.5 27.5q0 15 -9 15q-13 0 -38 -30t-51 -66l-7 4 q14 38 38.5 75.5t55.5 62t66 24.5q63 0 63 -77q0 -16 -2.5 -35t-7.5 -40q-9 -46 -23 -98t-24.5 -97t-10.5 -71q0 -11 4 -18.5t16 -7.5q23 0 55 38t65.5 104t60.5 150z" />
<glyph unicode="&#x1d5;" horiz-adv-x="671" d="M425 986l14 65h288l-14 -65h-288zM487 814q0 -32 -24 -53.5t-56 -21.5q-25 0 -39 13t-14 35q0 30 24.5 52t55.5 22q24 0 38.5 -12.5t14.5 -34.5zM704 814q0 -32 -24 -53.5t-56 -21.5q-25 0 -39 13t-14 35q0 30 24.5 52t55.5 22q24 0 38.5 -12.5t14.5 -34.5zM616 231 q-27 -125 -93.5 -183t-167.5 -58q-98 0 -153 50t-55 139q0 28 7 61l76 355l5 22l-71 20l4 13h270v-13l-56 -11q-14 -4 -19.5 -11.5t-7.5 -19.5l-77 -362q-4 -18 -6 -34t-2 -30q0 -67 34 -100.5t91 -33.5q65 0 115 49t71 148l77 364l5 21l-79 20l3 13h198v-13l-87 -20l-5 -21 z" />
<glyph unicode="&#x1d6;" d="M306 826l15 65h288l-15 -65h-288zM370 664q0 -32 -24 -53.5t-55 -21.5q-25 0 -39.5 13t-14.5 35q0 30 25 52t55 22q24 0 38.5 -12.5t14.5 -34.5zM587 664q0 -32 -24 -53.5t-55 -21.5q-25 0 -39.5 13t-14.5 35q0 30 25 52t55 22q24 0 38.5 -12.5t14.5 -34.5zM459 502 q4 0 20 1t35.5 2.5t35 2.5t18.5 1q13 0 10 -12l-29 -139l-14 -65l-22 -103q-20 -95 -20 -113q0 -16 9 -16q15 0 39 30t48 66l8 -5q-13 -38 -36.5 -75.5t-54 -62t-65.5 -24.5q-27 0 -44.5 16t-17.5 51q0 32 13 92.5t30 124.5q-53 -132 -116 -208t-123 -76q-38 0 -57.5 22 t-19.5 58q0 24 6 59t16 75.5t20 80.5t18 73q5 22 8.5 39.5t3.5 27.5q0 15 -9 15q-13 0 -38 -30t-51 -66l-7 4q14 38 38.5 75.5t55.5 62t66 24.5q63 0 63 -77q0 -16 -2.5 -35t-7.5 -40q-9 -46 -23 -98t-24.5 -97t-10.5 -71q0 -11 4 -18.5t16 -7.5q23 0 55 38t65.5 104 t60.5 150z" />
<glyph unicode="&#x1d7;" horiz-adv-x="671" d="M704 1056q0 -18 -19.5 -36.5t-51.5 -35.5t-72 -29.5t-81 -17.5l-6 10q44 39 86.5 81t67.5 73q35 0 55.5 -12t20.5 -33zM487 814q0 -32 -24 -53.5t-56 -21.5q-25 0 -39 13t-14 35q0 30 24.5 52t55.5 22q24 0 38.5 -12.5t14.5 -34.5zM704 814q0 -32 -24 -53.5t-56 -21.5 q-25 0 -39 13t-14 35q0 30 24.5 52t55.5 22q24 0 38.5 -12.5t14.5 -34.5zM616 231q-27 -125 -93.5 -183t-167.5 -58q-98 0 -153 50t-55 139q0 28 7 61l76 355l5 22l-71 20l4 13h270v-13l-56 -11q-14 -4 -19.5 -11.5t-7.5 -19.5l-77 -362q-4 -18 -6 -34t-2 -30 q0 -67 34 -100.5t91 -33.5q65 0 115 49t71 148l77 364l5 21l-79 20l3 13h198v-13l-87 -20l-5 -21z" />
<glyph unicode="&#x1d8;" d="M573 896q0 -18 -19.5 -37t-51.5 -35.5t-72 -29t-81 -18.5l-6 11q44 38 86.5 80.5t67.5 73.5q35 0 55.5 -12t20.5 -33zM370 664q0 -32 -24 -53.5t-55 -21.5q-25 0 -39.5 13t-14.5 35q0 30 25 52t55 22q24 0 38.5 -12.5t14.5 -34.5zM587 664q0 -32 -24 -53.5t-55 -21.5 q-25 0 -39.5 13t-14.5 35q0 30 25 52t55 22q24 0 38.5 -12.5t14.5 -34.5zM459 502q4 0 20 1t35.5 2.5t35 2.5t18.5 1q13 0 10 -12l-29 -139l-14 -65l-22 -103q-20 -95 -20 -113q0 -16 9 -16q15 0 39 30t48 66l8 -5q-13 -38 -36.5 -75.5t-54 -62t-65.5 -24.5q-27 0 -44.5 16 t-17.5 51q0 32 13 92.5t30 124.5q-53 -132 -116 -208t-123 -76q-38 0 -57.5 22t-19.5 58q0 24 6 59t16 75.5t20 80.5t18 73q5 22 8.5 39.5t3.5 27.5q0 15 -9 15q-13 0 -38 -30t-51 -66l-7 4q14 38 38.5 75.5t55.5 62t66 24.5q63 0 63 -77q0 -16 -2.5 -35t-7.5 -40 q-9 -46 -23 -98t-24.5 -97t-10.5 -71q0 -11 4 -18.5t16 -7.5q23 0 55 38t65.5 104t60.5 150z" />
<glyph unicode="&#x1d9;" horiz-adv-x="671" d="M603 944l-9 -5h-79q-17 34 -34 75t-32 77l10 6q25 -19 55 -40t60 -39q32 18 71 39.5t74 39.5l7 -8q-22 -24 -45.5 -51t-44 -52t-33.5 -42zM487 814q0 -32 -24 -53.5t-56 -21.5q-25 0 -39 13t-14 35q0 30 24.5 52t55.5 22q24 0 38.5 -12.5t14.5 -34.5zM704 814 q0 -32 -24 -53.5t-56 -21.5q-25 0 -39 13t-14 35q0 30 24.5 52t55.5 22q24 0 38.5 -12.5t14.5 -34.5zM616 231q-27 -125 -93.5 -183t-167.5 -58q-98 0 -153 50t-55 139q0 28 7 61l76 355l5 22l-71 20l4 13h270v-13l-56 -11q-14 -4 -19.5 -11.5t-7.5 -19.5l-77 -362 q-4 -18 -6 -34t-2 -30q0 -67 34 -100.5t91 -33.5q65 0 115 49t71 148l77 364l5 21l-79 20l3 13h198v-13l-87 -20l-5 -21z" />
<glyph unicode="&#x1da;" d="M483 785l-9 -6h-79q-17 34 -34 75t-32 77l9 7q26 -20 56 -40.5t60 -39.5q32 18 71 39.5t74 39.5l7 -7q-22 -24 -45.5 -51t-44 -52t-33.5 -42zM370 664q0 -32 -24 -53.5t-55 -21.5q-25 0 -39.5 13t-14.5 35q0 30 25 52t55 22q24 0 38.5 -12.5t14.5 -34.5zM587 664 q0 -32 -24 -53.5t-55 -21.5q-25 0 -39.5 13t-14.5 35q0 30 25 52t55 22q24 0 38.5 -12.5t14.5 -34.5zM459 502q4 0 20 1t35.5 2.5t35 2.5t18.5 1q13 0 10 -12l-29 -139l-14 -65l-22 -103q-20 -95 -20 -113q0 -16 9 -16q15 0 39 30t48 66l8 -5q-13 -38 -36.5 -75.5t-54 -62 t-65.5 -24.5q-27 0 -44.5 16t-17.5 51q0 32 13 92.5t30 124.5q-53 -132 -116 -208t-123 -76q-38 0 -57.5 22t-19.5 58q0 24 6 59t16 75.5t20 80.5t18 73q5 22 8.5 39.5t3.5 27.5q0 15 -9 15q-13 0 -38 -30t-51 -66l-7 4q14 38 38.5 75.5t55.5 62t66 24.5q63 0 63 -77 q0 -16 -2.5 -35t-7.5 -40q-9 -46 -23 -98t-24.5 -97t-10.5 -71q0 -11 4 -18.5t16 -7.5q23 0 55 38t65.5 104t60.5 150z" />
<glyph unicode="&#x1db;" horiz-adv-x="671" d="M665 942l-9 -9q-51 15 -91 35.5t-63 43.5t-23 45q0 24 19 35.5t48 11.5q6 0 11.5 -0.5t9.5 -0.5q15 -32 41.5 -76t56.5 -85zM487 814q0 -32 -24 -53.5t-56 -21.5q-25 0 -39 13t-14 35q0 30 24.5 52t55.5 22q24 0 38.5 -12.5t14.5 -34.5zM704 814q0 -32 -24 -53.5 t-56 -21.5q-25 0 -39 13t-14 35q0 30 24.5 52t55.5 22q24 0 38.5 -12.5t14.5 -34.5zM616 231q-27 -125 -93.5 -183t-167.5 -58q-98 0 -153 50t-55 139q0 28 7 61l76 355l5 22l-71 20l4 13h270v-13l-56 -11q-14 -4 -19.5 -11.5t-7.5 -19.5l-77 -362q-4 -18 -6 -34t-2 -30 q0 -67 34 -100.5t91 -33.5q65 0 115 49t71 148l77 364l5 21l-79 20l3 13h198v-13l-87 -20l-5 -21z" />
<glyph unicode="&#x1dc;" d="M549 782l-9 -10q-51 15 -91 35.5t-63 43.5t-23 45q0 24 19 35.5t48 11.5q6 0 11.5 -0.5t9.5 -0.5q15 -32 41.5 -75.5t56.5 -84.5zM370 664q0 -32 -24 -53.5t-55 -21.5q-25 0 -39.5 13t-14.5 35q0 30 25 52t55 22q24 0 38.5 -12.5t14.5 -34.5zM587 664q0 -32 -24 -53.5 t-55 -21.5q-25 0 -39.5 13t-14.5 35q0 30 25 52t55 22q24 0 38.5 -12.5t14.5 -34.5zM459 502q4 0 20 1t35.5 2.5t35 2.5t18.5 1q13 0 10 -12l-29 -139l-14 -65l-22 -103q-20 -95 -20 -113q0 -16 9 -16q15 0 39 30t48 66l8 -5q-13 -38 -36.5 -75.5t-54 -62t-65.5 -24.5 q-27 0 -44.5 16t-17.5 51q0 32 13 92.5t30 124.5q-53 -132 -116 -208t-123 -76q-38 0 -57.5 22t-19.5 58q0 24 6 59t16 75.5t20 80.5t18 73q5 22 8.5 39.5t3.5 27.5q0 15 -9 15q-13 0 -38 -30t-51 -66l-7 4q14 38 38.5 75.5t55.5 62t66 24.5q63 0 63 -77q0 -16 -2.5 -35 t-7.5 -40q-9 -46 -23 -98t-24.5 -97t-10.5 -71q0 -11 4 -18.5t16 -7.5q23 0 55 38t65.5 104t60.5 150z" />
<glyph unicode="&#x1e6;" horiz-adv-x="661" d="M567 726l-9 -5h-80q-16 34 -33.5 75t-32.5 77l10 6q25 -19 55 -40t60 -39q32 18 71 39.5t75 39.5l6 -8q-21 -24 -45 -51t-44.5 -52t-32.5 -42zM572 19q-40 -15 -84 -22t-96 -7q-85 0 -150 30.5t-101 90.5t-36 148q0 85 30.5 158.5t85.5 128t129 84.5t161 30q53 0 98.5 -9 t75.5 -24q-4 -28 -14.5 -64t-24 -70.5t-26.5 -59.5h-9l-34 187q-27 8 -61 8q-59 0 -109 -30t-88 -82t-59 -118.5t-21 -140.5t22.5 -126.5t61.5 -80.5t89 -28q24 0 46 5l51 226l5 21l-70 21l5 12h250l-1 -12l-46 -11q-15 -4 -20 -11t-8 -20z" />
<glyph unicode="&#x1e7;" horiz-adv-x="437" d="M374 577l-9 -6h-80q-16 34 -33.5 75t-32.5 77l10 7q25 -20 55 -40.5t60 -39.5q32 18 71 39.5t75 39.5l6 -7q-21 -24 -45 -51t-44.5 -52t-32.5 -42zM432 -60q0 -38 -32.5 -68.5t-87.5 -48.5t-124 -18q-59 0 -106.5 13t-75 36.5t-27.5 53.5q0 31 30 57.5t84 41.5l7 -5 q-13 -12 -21.5 -24t-8.5 -26q2 -51 33.5 -84.5t93.5 -33.5q41 0 73.5 19.5t32.5 49.5q0 18 -16.5 32t-41 26.5t-48.5 25.5t-40.5 28.5t-16.5 34.5q0 26 32.5 51t94.5 52q-9 -1 -17 -1q-72 0 -117.5 37t-45.5 102q0 59 30 109t82.5 80t120.5 30q69 0 126 1t99 10q4 -10 4 -24 q0 -25 -9 -37.5t-30 -12.5q-17 0 -45.5 5.5t-63.5 14.5q26 -16 43.5 -45t17.5 -66q0 -52 -21 -90t-52.5 -65t-63 -46.5t-52.5 -34t-21 -27.5q0 -12 18 -22.5t45 -22t54 -26t45 -34.5t18 -48zM204 277q0 -42 12 -68t39 -26q24 0 44.5 32t33 82t12.5 102q0 36 -10 60t-35 24 q-26 0 -48 -31.5t-35 -78.5t-13 -96z" />
<glyph unicode="&#x1ea;" horiz-adv-x="643" d="M438 -70q-26 -56 -61 -90.5t-74 -34.5q-25 0 -39 14.5t-14 38.5q0 25 17.5 50t46 47t62.5 39q-23 -4 -46 -4q-111 0 -170 67t-59 176q0 85 27.5 162t76 136.5t112.5 94t138 34.5q108 0 166.5 -67t58.5 -179q0 -86 -28 -163.5t-77.5 -137.5t-115.5 -93q-53 -30 -87 -63 t-34 -60q0 -21 18 -21q25 0 75 59zM235 177q0 -76 25.5 -115.5t70.5 -39.5q35 0 67 28.5t59 77t47 108t31 123t11 121.5q0 69 -23.5 109t-70.5 40q-36 0 -68.5 -28.5t-59.5 -76t-47 -107t-31 -121.5t-11 -119z" />
<glyph unicode="&#x1eb;" horiz-adv-x="502" d="M354 -70q-26 -56 -61 -90.5t-74 -34.5q-25 0 -39 14.5t-14 38.5t17.5 48t46 46t60.5 40q-16 -2 -31 -2q-82 0 -128.5 52t-46.5 140q0 67 21.5 126.5t59 104.5t86 71t102.5 26q83 0 127 -54t44 -137q0 -70 -22 -130.5t-60 -106t-86 -69.5q-42 -33 -72 -62.5t-30 -53.5 q0 -21 18 -21q25 0 75 59zM209 150q0 -59 13.5 -93.5t41.5 -34.5q23 0 43 22.5t37 59.5t29 82t18.5 90t6.5 84q0 54 -12.5 86t-40.5 32q-29 0 -53.5 -32t-43.5 -83t-29 -107.5t-10 -105.5z" />
<glyph unicode="&#x1f4;" horiz-adv-x="661" d="M653 838q0 -18 -19.5 -36.5t-51.5 -35.5t-72 -29.5t-81 -17.5l-6 10q44 39 86.5 81t67.5 73q35 0 55.5 -12t20.5 -33zM572 19q-40 -15 -84 -22t-96 -7q-85 0 -150 30.5t-101 90.5t-36 148q0 85 30.5 158.5t85.5 128t129 84.5t161 30q53 0 98.5 -9t75.5 -24 q-4 -28 -14.5 -64t-24 -70.5t-26.5 -59.5h-9l-34 187q-27 8 -61 8q-59 0 -109 -30t-88 -82t-59 -118.5t-21 -140.5t22.5 -126.5t61.5 -80.5t89 -28q24 0 46 5l51 226l5 21l-70 21l5 12h250l-1 -12l-46 -11q-15 -4 -20 -11t-8 -20z" />
<glyph unicode="&#x1f5;" horiz-adv-x="437" d="M463 688q0 -18 -19 -37t-51.5 -35.5t-72 -29t-80.5 -18.5l-7 11q45 38 87 80.5t68 73.5q34 0 54.5 -12t20.5 -33zM432 -60q0 -38 -32.5 -68.5t-87.5 -48.5t-124 -18q-59 0 -106.5 13t-75 36.5t-27.5 53.5q0 31 30 57.5t84 41.5l7 -5q-13 -12 -21.5 -24t-8.5 -26 q2 -51 33.5 -84.5t93.5 -33.5q41 0 73.5 19.5t32.5 49.5q0 18 -16.5 32t-41 26.5t-48.5 25.5t-40.5 28.5t-16.5 34.5q0 26 32.5 51t94.5 52q-9 -1 -17 -1q-72 0 -117.5 37t-45.5 102q0 59 30 109t82.5 80t120.5 30q69 0 126 1t99 10q4 -10 4 -24q0 -25 -9 -37.5t-30 -12.5 q-17 0 -45.5 5.5t-63.5 14.5q26 -16 43.5 -45t17.5 -66q0 -52 -21 -90t-52.5 -65t-63 -46.5t-52.5 -34t-21 -27.5q0 -12 18 -22.5t45 -22t54 -26t45 -34.5t18 -48zM204 277q0 -42 12 -68t39 -26q24 0 44.5 32t33 82t12.5 102q0 36 -10 60t-35 24q-26 0 -48 -31.5t-35 -78.5 t-13 -96z" />
<glyph unicode="&#x1fa;" horiz-adv-x="691" d="M676 1056q0 -18 -19.5 -36.5t-51.5 -35.5t-72 -29.5t-81 -17.5l-6 10q44 39 86.5 81t67.5 73q35 0 55.5 -12t20.5 -33zM605 813q0 -40 -32.5 -67t-76.5 -27q-35 0 -54.5 17.5t-19.5 48.5q0 39 32 66.5t77 27.5q34 0 54 -18t20 -48zM473 786q0 -34 31 -34q21 0 35.5 17.5 t14.5 42.5q-1 34 -31 34q-21 0 -35.5 -17.5t-14.5 -42.5zM450 652h64l94 -581q3 -22 11 -31.5t26 -15.5l35 -11l-3 -13h-279l1 13l81 22l-23 161l-233 -1l-92 -162l76 -20l-3 -13h-189l1 13l43 11q23 6 33.5 17t24.5 33zM243 228l210 -2l-42 296z" />
<glyph unicode="&#x1fb;" horiz-adv-x="526" d="M558 896q0 -18 -19.5 -37t-51.5 -35.5t-72 -29t-81 -18.5l-6 11q44 38 86.5 80.5t67.5 73.5q35 0 55.5 -12t20.5 -33zM490 665q0 -40 -32 -67.5t-76 -27.5q-35 0 -55 17.5t-20 48.5q0 40 32 67.5t77 27.5q35 0 54.5 -18t19.5 -48zM358 638q1 -34 32 -34q21 0 35 17t14 43 q-1 33 -31 33q-21 0 -35.5 -17t-14.5 -42zM70 117q0 68 23 137.5t65.5 127.5t102 93t132.5 35q44 0 86 -9t71 -23l-24 -81l-56 -254q-5 -23 -8 -40.5t-3 -27.5q0 -14 9 -14q12 0 37 30t51 66l8 -5q-15 -38 -39.5 -75.5t-55 -62t-65.5 -24.5q-64 0 -64 78q0 15 3 34t7 41 l30 131q-50 -133 -108.5 -208.5t-110.5 -75.5q-46 0 -68.5 36.5t-22.5 90.5zM412 418l12 49q-23 14 -50 14q-28 -1 -55 -25t-51 -64t-42 -88t-28.5 -96t-10.5 -87q0 -28 6 -44.5t22 -16.5t41 29.5t53 80.5t55 115.5t48 132.5z" />
<glyph unicode="&#x1fc;" horiz-adv-x="866" d="M839 838q0 -18 -19 -36.5t-51.5 -35.5t-72 -29.5t-80.5 -17.5l-7 10q45 39 87 81t68 73q34 0 54.5 -12t20.5 -33zM207 8l-104 -8l-87 5l27 13q11 2 25 9.5t20 18.5q4 1 19 23t36 57t44.5 74t44 74.5t34.5 59.5t16 28l153 255l-78 20l4 13h592q-1 -28 -8.5 -64t-19 -70.5 t-23.5 -59.5h-9l-38 162q-22 0 -43.5 0.5t-42.5 0.5h-91l-60 -282l188 8l-10 -47l-184 8l-53 -250l-5 -24l96 -1q21 0 44 0.5t45 0.5l108 166h9q1 -29 -2 -60q-3 -37 -11.5 -73.5t-18.5 -64.5h-473v13l59 13q11 3 16.5 10.5t7.5 19.5l53 250l-198 -1l-168 -284l44 8z M462 619l-154 -281l185 -2l61 283h-92z" />
<glyph unicode="&#x1fd;" horiz-adv-x="692" d="M613 688q0 -18 -19 -37t-51.5 -35.5t-72 -29t-80.5 -18.5l-7 11q45 38 87 80.5t68 73.5q34 0 54.5 -12t20.5 -33zM725 155q-18 -45 -50 -82.5t-73 -60t-86 -22.5q-70 0 -111.5 48t-42.5 130q1 42 10 85q-49 -123 -105 -193t-106 -70q-46 0 -68.5 36.5t-22.5 90.5 q0 68 23 137.5t65.5 127.5t102 93t132.5 35q39 0 75.5 -7t65.5 -18q46 25 96 25q53 0 88 -27t35 -77q0 -56 -33 -98.5t-92.5 -67.5t-138.5 -28v-17q0 -63 22 -96.5t63 -33.5q36 0 74 27t70 68zM187 121q0 -28 6 -44.5t22 -16.5t41 29.5t53 80.5t55 115.5t48 132.5h-1l13 49 q-23 14 -50 14q-28 -1 -55 -25t-51 -64t-42 -88t-28.5 -96t-10.5 -87zM621 480q-22 0 -43 -21t-39 -56.5t-31 -79t-17 -86.5q49 6 86 36t57.5 73t20.5 92q0 17 -8 29.5t-26 12.5z" />
<glyph unicode="&#x1fe;" horiz-adv-x="643" d="M606 838q0 -18 -19 -36.5t-51.5 -35.5t-72 -29.5t-80.5 -17.5l-7 10q45 39 87 81t68 73q34 0 54.5 -12t20.5 -33zM680 414q0 -84 -27 -160t-74.5 -135.5t-111 -94t-137.5 -34.5q-55 0 -97.5 17.5t-71.5 48.5l-62 -66l-26 26l66 70q-38 60 -38 147q0 85 27.5 162t76 136.5 t112.5 94t138 34.5q52 0 93 -16.5t70 -47.5l60 64l27 -25l-64 -69q39 -61 39 -152zM452 628q-35 0 -67 -27t-58.5 -73t-46.5 -103t-32 -118.5t-13 -117.5l309 328q-6 52 -29 82t-63 29zM331 21q34 0 65.5 27.5t58 74t46.5 104t31.5 119.5t12.5 119l-308 -328 q13 -115 94 -116z" />
<glyph unicode="&#x1ff;" horiz-adv-x="502" d="M507 688q0 -18 -19 -37t-51.5 -35.5t-72 -29t-80.5 -18.5l-7 11q45 38 87.5 80.5t67.5 73.5q35 0 55 -12t20 -33zM524 319q0 -69 -21.5 -128.5t-58.5 -105t-84.5 -71t-100.5 -25.5q-45 0 -80 16.5t-57 47.5l-53 -50l-21 25l57 53q-21 44 -21 101q0 67 21.5 126.5 t59 104.5t86 71t102.5 26q45 0 79 -17t56 -47l54 52l21 -25l-58 -56q19 -42 19 -98zM345 478q-26 0 -49 -27.5t-41.5 -72t-30 -96.5t-14.5 -100l188 179q0 54 -12.5 85.5t-40.5 31.5zM264 22q25 0 47 27t39.5 71t29.5 95t16 99l-187 -178q2 -52 15.5 -83t39.5 -31z" />
<glyph unicode="&#x218;" horiz-adv-x="506" d="M152 468q0 61 35.5 104t94 65.5t127.5 22.5q53 0 95.5 -10t66.5 -28q11 -10 11 -22q0 -18 -12 -47.5t-28 -58.5t-29 -44l-9 1l-19 167q-27 11 -69 11q-39 0 -71.5 -14.5t-51.5 -41t-19 -62.5q0 -34 16.5 -61t42.5 -49.5t55.5 -45t55.5 -48t42.5 -57.5t16.5 -74 q0 -60 -34 -101.5t-92.5 -63t-130.5 -21.5q-55 0 -103 9t-71 28q-15 12 -15 30q0 19 10.5 48t25.5 57.5t28 46.5l9 -1l24 -168q15 -8 37.5 -13.5t50.5 -5.5q61 0 100.5 32.5t39.5 85.5q0 35 -16.5 61.5t-43 49t-55.5 44.5t-55.5 46.5t-43 55.5t-16.5 72zM298 -133 q0 -30 -17.5 -64.5t-47.5 -66.5t-67 -55l-8 8q17 24 32.5 53t24.5 59q-39 7 -39 48q0 30 21.5 51t49.5 21q23 0 37 -14.5t14 -39.5z" />
<glyph unicode="&#x219;" horiz-adv-x="418" d="M419 131q0 -62 -51 -101.5t-148 -39.5q-46 0 -83.5 12t-60 33.5t-22.5 52.5q0 28 25.5 50t73.5 31l7 -4q-4 -21 -5.5 -39.5t1.5 -35.5q4 -32 23 -50.5t50 -18.5q30 0 51 19.5t21 52.5q0 29 -19 54.5t-46.5 49.5t-55.5 50t-46.5 55.5t-18.5 67.5q0 61 50 100.5t135 39.5 q69 0 114.5 -27t45.5 -70q0 -29 -24.5 -50.5t-63.5 -28.5l-8 3q1 18 2 37.5t-1 35.5q-4 32 -21 50.5t-44 18.5q-30 0 -48.5 -19.5t-18.5 -50.5q0 -30 18.5 -55.5t46.5 -50t55.5 -50.5t46.5 -55.5t19 -66.5zM257 -133q0 -30 -17.5 -64.5t-47.5 -66.5t-68 -55l-7 8 q17 24 32 53t24 59q-39 7 -39 48q0 30 22 51t50 21q22 0 36.5 -14.5t14.5 -39.5z" />
<glyph unicode="&#x21a;" horiz-adv-x="587" d="M430 0h-270v13l56 12q13 3 18.5 10.5t8.5 20.5l119 563h-61q-16 0 -32 -0.5t-32 -0.5l-107 -183h-8q0 11 0.5 24.5t1.5 27.5q3 40 12.5 84t21.5 79h547q-2 -31 -10.5 -71t-20.5 -78.5t-25 -65.5h-9l-29 183q-16 0 -32 0.5t-31 0.5h-61l-119 -563l-5 -22l70 -21zM324 -133 q0 -30 -17.5 -64.5t-47.5 -66.5t-68 -55l-7 8q17 24 32 53t24 59q-39 7 -39 48q0 30 22 51t50 21q22 0 36.5 -14.5t14.5 -39.5z" />
<glyph unicode="&#x21b;" horiz-adv-x="332" d="M359 152q-17 -38 -44 -75.5t-61.5 -62t-75.5 -24.5q-37 0 -59 22t-22 64q0 17 2.5 35.5t7.5 38.5l63 298h-77l1 8l85 29l138 131l8 -2l-29 -138h116l-6 -28h-116l-63 -298q-5 -26 -8 -41t-3 -25q0 -23 21 -23q20 0 51 28.5t63 67.5zM207 -133q0 -30 -17.5 -64.5 t-47.5 -66.5t-68 -55l-7 8q17 24 32 53t24 59q-39 7 -39 48q0 30 22 51t50 21q22 0 36.5 -14.5t14.5 -39.5z" />
<glyph unicode="&#x232;" horiz-adv-x="594" d="M326 768l15 65h288l-15 -65h-288zM434 0h-270v13l56 12q14 3 19 10.5t8 20.5l24 114q9 40 10.5 94.5t-3 111t-14 105t-24 79t-32.5 30.5q-14 0 -30 -14.5t-32 -36.5t-31 -45l-10 4q13 37 37 74.5t55.5 62.5t68.5 25t63.5 -31.5t43.5 -86t23 -124.5t2 -148 q43 112 89.5 200t88.5 139t75 51q26 0 39 -23t18.5 -57.5t7.5 -70.5l-10 -5q-11 37 -21.5 62.5t-30.5 25.5q-21 0 -50.5 -31t-62.5 -81.5t-63.5 -110.5t-54 -120t-33.5 -107l-18 -86l-5 -22l71 -21z" />
<glyph unicode="&#x233;" horiz-adv-x="481" d="M212 618l14 65h288l-14 -65h-288zM298 348q0 -44 -7.5 -99.5t-23 -115t-38.5 -115.5q64 61 105 133t60.5 146t19.5 139q0 20 -2 35.5t-4 27.5q8 4 22.5 7.5t31.5 3.5q73 0 73 -82q0 -72 -36.5 -153.5t-107.5 -157t-176 -130.5q-24 -52 -54.5 -93t-68.5 -64.5t-83 -23.5 q-42 0 -67 17t-25 42q0 19 15 32.5t37 17.5q6 -21 18.5 -43.5t32.5 -22.5q26 0 49 33t41.5 88t32.5 120.5t21.5 131t7.5 120.5q0 39 -5.5 68.5t-20.5 29.5q-17 0 -39 -30t-43 -66l-8 4q12 39 34 76t52.5 61.5t67.5 24.5q46 0 67 -42.5t21 -119.5z" />
<glyph unicode="&#x237;" horiz-adv-x="270" d="M222 34q-24 -115 -85.5 -172t-138.5 -57q-48 0 -77.5 20t-29.5 48q0 19 14.5 30.5t35.5 15.5q8 -20 22 -42t38 -22q36 0 57.5 39t40.5 127l71 337q5 22 8.5 39.5t3.5 27.5q0 15 -9 15q-13 0 -38 -30t-51 -66l-7 4q14 38 38.5 75.5t55.5 62t66 24.5q63 0 63 -77 q0 -16 -2.5 -35t-7.5 -40z" />
<glyph unicode="&#x259;" horiz-adv-x="450" d="M466 333q0 -64 -21 -125.5t-57.5 -110.5t-85 -78t-103.5 -29q-54 0 -88.5 27t-34.5 76q0 55 34 96.5t94.5 65.5t139.5 25q7 48 7 90q0 52 -11.5 81t-37.5 29q-25 0 -43 -25t-27.5 -59t-9.5 -62q-18 -6 -28 -9t-22 -3q-23 0 -37 9t-14 28q0 33 24.5 68t68 59t99.5 24 q72 0 112.5 -46t40.5 -131zM174 67q0 -20 8.5 -33.5t27.5 -13.5q26 0 51.5 34t46 88t31.5 114q-50 -6 -87 -34.5t-57.5 -69t-20.5 -85.5z" />
<glyph unicode="&#x272;" horiz-adv-x="565" d="M222 34q-24 -115 -85.5 -172t-138.5 -57q-48 0 -77.5 20t-29.5 48q0 19 14.5 30.5t35.5 15.5q8 -20 22 -42t38 -22q36 0 57.5 39t40.5 127l40 186l22 104q20 95 20 112t-10 17q-15 0 -39 -30t-48 -66l-8 4q13 38 36.5 75.5t54 62t65.5 24.5q27 0 44.5 -16t17.5 -50 q0 -33 -13 -93.5t-30 -124.5q53 132 116 208t124 76q37 0 57 -22t20 -58q0 -24 -6.5 -59t-16.5 -75.5t-20 -80t-18 -72.5q-5 -23 -8 -40.5t-3 -27.5q0 -14 9 -14q12 0 37 30t51 66l8 -5q-15 -38 -39.5 -75.5t-55 -62t-65.5 -24.5q-64 0 -64 78q0 15 3 34t7 41q9 46 23 97.5 t25 96.5t11 71q0 11 -4.5 19t-16.5 8q-23 0 -55 -38.5t-65.5 -104.5t-59.5 -149z" />
<glyph unicode="&#x2c6;" horiz-adv-x="448" d="M365 577l-10 -6q-25 19 -55 39.5t-60 39.5q-32 -18 -71 -39.5t-74 -39.5l-7 8q22 23 45.5 50t44 52t33.5 43l9 5h79q17 -34 34 -75t32 -77z" />
<glyph unicode="&#x2c7;" horiz-adv-x="402" d="M238 577l-9 -6h-80q-16 34 -33.5 75t-32.5 77l10 7q25 -20 55 -40.5t60 -39.5q32 18 71 39.5t75 39.5l6 -7q-21 -24 -45 -51t-44.5 -52t-32.5 -42z" />
<glyph unicode="&#x2d8;" horiz-adv-x="411" d="M316 723l3 1l11 -4q-23 -70 -63 -106.5t-92 -36.5q-51 0 -75 37t-17 107l15 3q8 -33 30.5 -51t63.5 -18q40 0 70 18t54 50z" />
<glyph unicode="&#x2d9;" horiz-adv-x="316" d="M233 665q0 -34 -26.5 -56.5t-61.5 -22.5q-29 0 -45.5 13.5t-16.5 37.5q0 33 27.5 55.5t61.5 22.5q28 0 44.5 -13.5t16.5 -36.5z" />
<glyph unicode="&#x2da;" horiz-adv-x="464" d="M266 665q0 -40 -32 -67.5t-76 -27.5q-35 0 -55 17.5t-20 48.5q0 40 32 67.5t77 27.5q35 0 54.5 -18t19.5 -48zM134 638q1 -34 32 -34q21 0 35 17t14 43q-1 33 -31 33q-21 0 -35.5 -17t-14.5 -42z" />
<glyph unicode="&#x2db;" horiz-adv-x="378" d="M295 -70q-26 -56 -60.5 -90.5t-72.5 -34.5q-26 0 -40.5 13t-14.5 38q0 30 18.5 60t50 54.5t69.5 38.5l19 -9q-28 -15 -48.5 -46t-20.5 -57q0 -21 18 -21q24 0 75 59z" />
<glyph unicode="&#x2dc;" horiz-adv-x="528" d="M366 659q14 11 31.5 26t33.5 30l9 -4q-13 -52 -41 -87t-70 -35q-27 0 -58 10.5t-59 23t-45 17.5q-15 -11 -32 -26t-33 -30l-9 4q12 54 41 88t70 34q27 0 57 -11t57.5 -23t47.5 -17z" />
<glyph unicode="&#x2dd;" horiz-adv-x="557" d="M290 688q0 -23 -30 -48t-76 -44.5t-94 -27.5l-7 11q43 38 84 80.5t66 73.5q26 0 41.5 -12t15.5 -33zM474 688q0 -23 -30 -48t-76 -44.5t-94 -27.5l-7 11q43 38 84 80.5t66 73.5q27 0 42 -12t15 -33z" />
<glyph unicode="&#x326;" horiz-adv-x="306" d="M225 -133q0 -30 -17.5 -64.5t-47.5 -66.5t-67 -55l-8 8q17 24 32.5 53t24.5 59q-39 7 -39 48q0 30 21.5 51t49.5 21q23 0 37 -14.5t14 -39.5z" />
<glyph unicode="&#x1e0c;" horiz-adv-x="680" d="M362 595l-115 -539l-5 -25h62q71 0 124.5 35.5t90.5 93.5t55.5 126.5t18.5 134.5q0 198 -176 198h-50zM392 -129q0 -34 -26.5 -56.5t-61.5 -22.5q-29 0 -45.5 13.5t-16.5 37.5q0 33 27.5 55.5t61.5 22.5q28 0 44.5 -13.5t16.5 -36.5zM303 0h-263l-1 13l59 13 q12 3 17 10.5t7 19.5l115 539l5 22l-70 20l3 13h254q136 0 211.5 -62t75.5 -181q0 -82 -28 -155.5t-81.5 -130t-130 -89t-173.5 -32.5z" />
<glyph unicode="&#x1e0d;" horiz-adv-x="526" d="M350 143l26 119q-49 -127 -106.5 -199.5t-108.5 -72.5q-46 0 -68.5 37t-22.5 90q0 68 23 137t65.5 127t102 93.5t132.5 35.5q19 0 37 -2l13 57l15 74l-77 22v9q45 9 100.5 15.5t101.5 9.5l6 -7l-26 -123l-93 -422q-6 -23 -9 -40.5t-3 -27.5q0 -14 9 -14q12 0 37.5 30 t51.5 66l7 -5q-15 -38 -39 -75.5t-55 -62t-66 -24.5q-63 0 -63 78q0 15 2.5 34t7.5 41zM215 60q16 0 41 29.5t52.5 81t54.5 115.5t48 133l11 48q-22 14 -48 14q-28 -1 -55 -25t-51 -64t-42 -88t-28.5 -96t-10.5 -87q0 -28 6 -44.5t22 -16.5zM298 -129q0 -34 -26.5 -56.5 t-61.5 -22.5q-29 0 -45.5 13.5t-16.5 37.5q0 33 27.5 55.5t61.5 22.5q28 0 44.5 -13.5t16.5 -36.5z" />
<glyph unicode="&#x1e24;" horiz-adv-x="732" d="M309 0h-270v13l56 12q14 3 19 10.5t8 20.5l115 539l5 22l-70 20l3 13h270v-13l-56 -11q-14 -4 -19 -11.5t-8 -19.5l-53 -251h260l54 251l5 22l-71 20l4 13h270v-13l-56 -11q-14 -4 -19.5 -11.5t-7.5 -19.5l-115 -539l-5 -22l71 -21l-4 -13h-270v13l56 12q14 3 19 10.5 t8 20.5l54 254h-261l-54 -254l-5 -22l71 -21zM407 -129q0 -34 -26.5 -56.5t-62.5 -22.5q-28 0 -44.5 13.5t-16.5 37.5q0 33 27.5 55.5t61.5 22.5q28 0 44.5 -13.5t16.5 -36.5z" />
<glyph unicode="&#x1e25;" horiz-adv-x="541" d="M191 -1q-4 -1 -20 -2t-35.5 -2.5t-35 -2t-18.5 -0.5q-13 0 -10 11l30 140v0l90 422l16 74l-78 22v9q46 9 101 15.5t102 9.5l6 -7l-27 -123q-15 -69 -35 -155t-43 -171q52 126 113.5 198.5t121.5 72.5q37 0 57 -22t20 -58q0 -24 -6.5 -59t-16.5 -75.5t-20 -80t-18 -72.5 q-5 -23 -8 -40.5t-3 -27.5q0 -14 9 -14q12 0 37 30t51 66l8 -5q-15 -38 -39.5 -75.5t-55 -62t-65.5 -24.5q-64 0 -64 78q0 15 3 34t7 41q9 46 23 97.5t25 96.5t11 71q0 11 -4.5 19t-16.5 8q-23 0 -55 -38.5t-65.5 -104.5t-60.5 -149v0zM326 -129q0 -34 -26.5 -56.5 t-62.5 -22.5q-28 0 -44.5 13.5t-16.5 37.5q0 33 27.5 55.5t61.5 22.5q28 0 44.5 -13.5t16.5 -36.5z" />
<glyph unicode="&#x1e44;" horiz-adv-x="686" d="M587 815q0 -34 -26.5 -56.5t-61.5 -22.5q-29 0 -45.5 13.5t-16.5 37.5q0 33 27.5 55.5t61.5 22.5q28 0 44.5 -13.5t16.5 -36.5zM238 1h-202v13l64 13q14 4 19 10t8 19l120 562l-78 20l3 12h168l223 -516l99 461l5 22l-84 20l4 13h201v-13l-63 -13q-15 -4 -20 -10.5 t-8 -18.5l-126 -595h-86l-224 520l-98 -464l-5 -22l83 -20z" />
<glyph unicode="&#x1e45;" horiz-adv-x="556" d="M479 665q0 -34 -26.5 -56.5t-61.5 -22.5q-29 0 -45.5 13.5t-16.5 37.5q0 33 27.5 55.5t61.5 22.5q28 0 44.5 -13.5t16.5 -36.5zM207 -1q-5 -1 -21 -2t-35.5 -2.5t-35 -2t-17.5 -0.5q-14 0 -10 11l29 140l14 64l22 104q20 95 20 112t-9 17q-15 0 -39 -30t-48 -66l-8 4 q13 38 36 75.5t54 62t66 24.5q27 0 44.5 -16t17.5 -50q0 -33 -13.5 -93.5t-29.5 -124.5q53 132 115.5 208t123.5 76q37 0 57 -22t20 -58q0 -24 -6.5 -59t-16 -75.5t-20 -80t-17.5 -72.5q-6 -23 -9 -40.5t-3 -27.5q0 -14 9 -14q12 0 37.5 30t51.5 66l7 -5q-15 -38 -39 -75.5 t-55 -62t-66 -24.5q-63 0 -63 78q0 15 2.5 34t7.5 41q9 46 22.5 97.5t24.5 96.5t11 71q0 11 -4.5 19t-15.5 8q-23 0 -55 -38.5t-65.5 -104.5t-60.5 -149z" />
<glyph unicode="&#x1e5a;" horiz-adv-x="673" d="M418 619h-51l-5 -24l-62 -291h58q57 0 97.5 28t62.5 72.5t22 94.5q0 59 -33.5 89.5t-88.5 30.5zM433 -129q0 -34 -26.5 -56.5t-62.5 -22.5q-28 0 -44.5 13.5t-16.5 37.5q0 33 27.5 55.5t61.5 22.5q28 0 44.5 -13.5t16.5 -36.5zM310 0h-270v13l56 12q13 3 18.5 10.5 t8.5 20.5l114 539l5 22l-70 20l3 13h259q110 0 171 -40t61 -118q0 -46 -21.5 -83.5t-57 -65t-78.5 -43.5l53 -146q19 -64 32.5 -91.5t39.5 -37.5l38 -12l-3 -13l-128 -2q-38 -1 -56 13t-27 44l-69 218h-22h-73l-46 -217l-5 -22l70 -21z" />
<glyph unicode="&#x1e5b;" horiz-adv-x="431" d="M207 -1q-5 -1 -21 -2t-35.5 -2.5t-35 -2t-17.5 -0.5q-14 0 -10 11l29 140l14 64l22 104q20 95 20 112t-9 17q-15 0 -39 -30t-48 -66l-8 4q13 38 36 75.5t54 62t66 24.5q27 0 44.5 -16t17.5 -50q0 -33 -13 -92t-29 -122q31 84 66 147t72 98t73 35q24 0 36 -15.5t12 -37.5 q0 -25 -11 -49.5t-27 -43.5q-13 9 -31.5 17t-37.5 8q-30 0 -58.5 -31.5t-54 -87t-47.5 -127.5zM198 -129q0 -34 -26.5 -56.5t-62.5 -22.5q-28 0 -44.5 13.5t-16.5 37.5q0 33 27.5 55.5t61.5 22.5q28 0 44.5 -13.5t16.5 -36.5z" />
<glyph unicode="&#x1e62;" horiz-adv-x="506" d="M152 468q0 61 35.5 104t94 65.5t127.5 22.5q53 0 95.5 -10t66.5 -28q11 -10 11 -22q0 -18 -12 -47.5t-28 -58.5t-29 -44l-9 1l-19 167q-27 11 -69 11q-39 0 -71.5 -14.5t-51.5 -41t-19 -62.5q0 -34 16.5 -61t42.5 -49.5t55.5 -45t55.5 -48t42.5 -57.5t16.5 -74 q0 -60 -34 -101.5t-92.5 -63t-130.5 -21.5q-55 0 -103 9t-71 28q-15 12 -15 30q0 19 10.5 48t25.5 57.5t28 46.5l9 -1l24 -168q15 -8 37.5 -13.5t50.5 -5.5q61 0 100.5 32.5t39.5 85.5q0 35 -16.5 61.5t-43 49t-55.5 44.5t-55.5 46.5t-43 55.5t-16.5 72zM314 -129 q0 -34 -26.5 -56.5t-61.5 -22.5q-29 0 -45.5 13.5t-16.5 37.5q0 33 27.5 55.5t61.5 22.5q28 0 44.5 -13.5t16.5 -36.5z" />
<glyph unicode="&#x1e63;" horiz-adv-x="418" d="M419 131q0 -62 -51 -101.5t-148 -39.5q-46 0 -83.5 12t-60 33.5t-22.5 52.5q0 28 25.5 50t73.5 31l7 -4q-4 -21 -5.5 -39.5t1.5 -35.5q4 -32 23 -50.5t50 -18.5q30 0 51 19.5t21 52.5q0 29 -19 54.5t-46.5 49.5t-55.5 50t-46.5 55.5t-18.5 67.5q0 61 50 100.5t135 39.5 q69 0 114.5 -27t45.5 -70q0 -29 -24.5 -50.5t-63.5 -28.5l-8 3q1 18 2 37.5t-1 35.5q-4 32 -21 50.5t-44 18.5q-30 0 -48.5 -19.5t-18.5 -50.5q0 -30 18.5 -55.5t46.5 -50t55.5 -50.5t46.5 -55.5t19 -66.5zM273 -129q0 -34 -26.5 -56.5t-62.5 -22.5q-28 0 -44.5 13.5 t-16.5 37.5q0 33 27.5 55.5t61.5 22.5q28 0 44.5 -13.5t16.5 -36.5z" />
<glyph unicode="&#x1e6c;" horiz-adv-x="587" d="M430 0h-270v13l56 12q13 3 18.5 10.5t8.5 20.5l119 563h-61q-16 0 -32 -0.5t-32 -0.5l-107 -183h-8q0 11 0.5 24.5t1.5 27.5q3 40 12.5 84t21.5 79h547q-2 -31 -10.5 -71t-20.5 -78.5t-25 -65.5h-9l-29 183q-16 0 -32 0.5t-31 0.5h-61l-119 -563l-5 -22l70 -21zM340 -129 q0 -34 -26.5 -56.5t-62.5 -22.5q-28 0 -44.5 13.5t-16.5 37.5q0 33 27.5 55.5t61.5 22.5q28 0 44.5 -13.5t16.5 -36.5z" />
<glyph unicode="&#x1e6d;" horiz-adv-x="332" d="M359 152q-17 -38 -44 -75.5t-61.5 -62t-75.5 -24.5q-37 0 -59 22t-22 64q0 17 2.5 35.5t7.5 38.5l63 298h-77l1 8l85 29l138 131l8 -2l-29 -138h116l-6 -28h-116l-63 -298q-5 -26 -8 -41t-3 -25q0 -23 21 -23q20 0 51 28.5t63 67.5zM223 -129q0 -34 -26.5 -56.5 t-62.5 -22.5q-28 0 -44.5 13.5t-16.5 37.5q0 33 27.5 55.5t61.5 22.5q28 0 44.5 -13.5t16.5 -36.5z" />
<glyph unicode="&#x1e80;" horiz-adv-x="1009" d="M774 724l-9 -9q-51 15 -91 35.5t-63 43.5t-23 45q0 24 19 35.5t48 11.5q6 0 11.5 -0.5t9.5 -0.5q15 -32 41.5 -76t56.5 -85zM1015 533l-297 -535h-64l-52 441l-238 -441h-64l-82 581q-3 20 -10.5 31t-23.5 16l-41 11l3 13h270v-13l-75 -21l59 -483l195 367l-9 79 q-3 21 -10.5 31t-22.5 16l-40 11l3 13h275l-1 -13l-80 -21l48 -481l254 481l-78 21l4 13h200v-13q-30 -8 -54 -20q-22 -11 -36.5 -30t-32.5 -54z" />
<glyph unicode="&#x1e81;" horiz-adv-x="718" d="M580 574l-9 -10q-51 15 -91 35.5t-63 43.5t-23 45q0 24 19 35.5t48 11.5q7 0 12 -0.5t10 -0.5q14 -32 40.5 -75.5t56.5 -84.5zM452 510q39 0 59 -24.5t20 -80.5q0 -65 -8.5 -155.5t-24.5 -198.5q48 64 83 133.5t54.5 135.5t19.5 120q0 18 -2 33t-5 26q8 4 23.5 7.5 t29.5 3.5q35 0 55 -19.5t20 -57.5q0 -60 -37.5 -132.5t-106 -151t-162.5 -154.5l-72 4q4 77 7 143.5t4 130.5q-55 -135 -190 -278l-72 5q5 79 9 153.5t4 131.5q0 64 -2.5 97.5t-8 45.5t-15.5 12q-17 0 -40 -30t-46 -66l-8 4q13 39 36 76t55 61.5t71 24.5q80 0 80 -133 q0 -59 -8.5 -139.5t-24.5 -177.5q45 60 81 126.5t57 133.5t21 130q0 15 -2 27.5t-4 21.5q8 4 22.5 7.5t27.5 3.5z" />
<glyph unicode="&#x1e82;" horiz-adv-x="1009" d="M796 838q0 -18 -19.5 -36.5t-51.5 -35.5t-72 -29.5t-81 -17.5l-6 10q44 39 86.5 81t67.5 73q35 0 55.5 -12t20.5 -33zM1015 533l-297 -535h-64l-52 441l-238 -441h-64l-82 581q-3 20 -10.5 31t-23.5 16l-41 11l3 13h270v-13l-75 -21l59 -483l195 367l-9 79 q-3 21 -10.5 31t-22.5 16l-40 11l3 13h275l-1 -13l-80 -21l48 -481l254 481l-78 21l4 13h200v-13q-30 -8 -54 -20q-22 -11 -36.5 -30t-32.5 -54z" />
<glyph unicode="&#x1e83;" horiz-adv-x="718" d="M604 688q0 -18 -19 -37t-51.5 -35.5t-72 -29t-80.5 -18.5l-7 11q45 38 87 80.5t68 73.5q34 0 54.5 -12t20.5 -33zM452 510q39 0 59 -24.5t20 -80.5q0 -65 -8.5 -155.5t-24.5 -198.5q48 64 83 133.5t54.5 135.5t19.5 120q0 18 -2 33t-5 26q8 4 23.5 7.5t29.5 3.5 q35 0 55 -19.5t20 -57.5q0 -60 -37.5 -132.5t-106 -151t-162.5 -154.5l-72 4q4 77 7 143.5t4 130.5q-55 -135 -190 -278l-72 5q5 79 9 153.5t4 131.5q0 64 -2.5 97.5t-8 45.5t-15.5 12q-17 0 -40 -30t-46 -66l-8 4q13 39 36 76t55 61.5t71 24.5q80 0 80 -133 q0 -59 -8.5 -139.5t-24.5 -177.5q45 60 81 126.5t57 133.5t21 130q0 15 -2 27.5t-4 21.5q8 4 22.5 7.5t27.5 3.5z" />
<glyph unicode="&#x1e84;" horiz-adv-x="1009" d="M639 814q0 -32 -24 -53.5t-56 -21.5q-25 0 -39 13t-14 35q0 30 24.5 52t55.5 22q24 0 38.5 -12.5t14.5 -34.5zM856 814q0 -32 -24 -53.5t-56 -21.5q-25 0 -39 13t-14 35q0 30 24.5 52t55.5 22q24 0 38.5 -12.5t14.5 -34.5zM1015 533l-297 -535h-64l-52 441l-238 -441h-64 l-82 581q-3 20 -10.5 31t-23.5 16l-41 11l3 13h270v-13l-75 -21l59 -483l195 367l-9 79q-3 21 -10.5 31t-22.5 16l-40 11l3 13h275l-1 -13l-80 -21l48 -481l254 481l-78 21l4 13h200v-13q-30 -8 -54 -20q-22 -11 -36.5 -30t-32.5 -54z" />
<glyph unicode="&#x1e85;" horiz-adv-x="718" d="M446 664q0 -32 -24 -53.5t-55 -21.5q-25 0 -39.5 13t-14.5 35q0 30 25 52t55 22q24 0 38.5 -12.5t14.5 -34.5zM663 664q0 -32 -24 -53.5t-55 -21.5q-25 0 -39.5 13t-14.5 35q0 30 25 52t55 22q24 0 38.5 -12.5t14.5 -34.5zM452 510q39 0 59 -24.5t20 -80.5 q0 -65 -8.5 -155.5t-24.5 -198.5q48 64 83 133.5t54.5 135.5t19.5 120q0 18 -2 33t-5 26q8 4 23.5 7.5t29.5 3.5q35 0 55 -19.5t20 -57.5q0 -60 -37.5 -132.5t-106 -151t-162.5 -154.5l-72 4q4 77 7 143.5t4 130.5q-55 -135 -190 -278l-72 5q5 79 9 153.5t4 131.5 q0 64 -2.5 97.5t-8 45.5t-15.5 12q-17 0 -40 -30t-46 -66l-8 4q13 39 36 76t55 61.5t71 24.5q80 0 80 -133q0 -59 -8.5 -139.5t-24.5 -177.5q45 60 81 126.5t57 133.5t21 130q0 15 -2 27.5t-4 21.5q8 4 22.5 7.5t27.5 3.5z" />
<glyph unicode="&#x1e92;" horiz-adv-x="582" d="M563 143q-2 -37 -10.5 -75t-19.5 -68h-466l-5 51l456 568h-236l-116 -188h-9q0 16 1.5 35.5t5.5 43.5q3 36 10.5 72.5t19.5 67.5h459l5 -48l-454 -571h240l117 189h9q0 -16 -2 -35t-5 -42zM345 -129q0 -34 -26.5 -56.5t-62.5 -22.5q-28 0 -44.5 13.5t-16.5 37.5 q0 33 27.5 55.5t61.5 22.5q28 0 44.5 -13.5t16.5 -36.5z" />
<glyph unicode="&#x1e93;" horiz-adv-x="413" d="M141 25q-32 0 -57 -9t-47 -26l-14 16q79 89 150.5 173t139.5 173q-35 16 -74 28t-65 12q-27 0 -44 -19.5t-38 -63.5l-9 4q19 99 44 147t76 48q25 0 53 -13.5t55.5 -34t51.5 -41.5q33 45 65 91q23 -1 36.5 -12t13.5 -28t-11 -30.5t-31 -29.5q-51 -55 -120 -128.5 t-173 -183.5q32 17 66 17q25 0 51.5 -5t50.5 -10t40 -5q19 0 37.5 22.5t43.5 67.5l9 -5q-14 -51 -29 -94t-35 -69.5t-50 -26.5q-25 0 -55.5 8.5t-63.5 17.5t-67 9zM244 -129q0 -34 -26.5 -56.5t-62.5 -22.5q-28 0 -44.5 13.5t-16.5 37.5q0 33 27.5 55.5t61.5 22.5 q28 0 44.5 -13.5t16.5 -36.5z" />
<glyph unicode="&#x1e9e;" horiz-adv-x="673" d="M689 168q0 -53 -29 -93t-81.5 -62.5t-122.5 -22.5q-34 0 -66 6t-53 20t-21 38q0 17 7 44t18 54t23 44h12q-1 -29 -1 -55.5t4 -47.5q4 -37 21.5 -54.5t57.5 -17.5q49 0 75.5 34t26.5 79q0 65 -42.5 112.5t-105.5 92.5l1 20l187 170q-13 47 -39.5 73.5t-66.5 26.5 q-67 0 -111.5 -54t-64.5 -148l-89 -415l-13 -12h-185v13l56 12q13 3 18.5 10.5t8.5 20.5l72 339q17 78 59 138t107 93.5t149 33.5q64 0 111 -25t68 -64v-9l-174 -155q47 -34 89 -69.5t68 -77t26 -92.5z" />
<glyph unicode="&#x1ea0;" horiz-adv-x="691" d="M450 652h64l94 -581q3 -22 11 -31.5t26 -15.5l35 -11l-3 -13h-279l1 13l81 22l-23 161l-233 -1l-92 -162l76 -20l-3 -13h-189l1 13l43 11q23 6 33.5 17t24.5 33zM243 228l210 -2l-42 296zM352 -129q0 -34 -26.5 -56.5t-62.5 -22.5q-28 0 -44.5 13.5t-16.5 37.5 q0 33 27.5 55.5t61.5 22.5q28 0 44.5 -13.5t16.5 -36.5z" />
<glyph unicode="&#x1ea1;" horiz-adv-x="526" d="M70 117q0 68 23 137.5t65.5 127.5t102 93t132.5 35q44 0 86 -9t71 -23l-24 -81l-56 -254q-5 -23 -8 -40.5t-3 -27.5q0 -14 9 -14q12 0 37 30t51 66l8 -5q-15 -38 -39.5 -75.5t-55 -62t-65.5 -24.5q-64 0 -64 78q0 15 3 34t7 41l30 131q-50 -133 -108.5 -208.5 t-110.5 -75.5q-46 0 -68.5 36.5t-22.5 90.5zM412 418l12 49q-23 14 -50 14q-28 -1 -55 -25t-51 -64t-42 -88t-28.5 -96t-10.5 -87q0 -28 6 -44.5t22 -16.5t41 29.5t53 80.5t55 115.5t48 132.5zM302 -129q0 -34 -26.5 -56.5t-61.5 -22.5q-29 0 -45.5 13.5t-16.5 37.5 q0 33 27.5 55.5t61.5 22.5q28 0 44.5 -13.5t16.5 -36.5z" />
<glyph unicode="&#x1eb8;" horiz-adv-x="555" d="M513 0h-473v13l59 13q11 3 16.5 10.5t7.5 19.5l114 539l5 22l-70 20l3 13h466q-1 -28 -8.5 -64t-18.5 -70.5t-24 -59.5h-8l-39 162q-21 0 -43 0.5t-43 0.5h-90l-5 -24l-54 -252l189 8l-10 -48l-185 9l-54 -256l-5 -24l96 -1q21 0 44 0.5t45 0.5l108 166h9q1 -29 -2 -60 q-3 -37 -11.5 -73.5t-18.5 -64.5zM350 -129q0 -34 -26.5 -56.5t-61.5 -22.5q-29 0 -45.5 13.5t-16.5 37.5q0 33 27.5 55.5t61.5 22.5q28 0 44.5 -13.5t16.5 -36.5z" />
<glyph unicode="&#x1eb9;" horiz-adv-x="425" d="M443 155q-18 -45 -50 -82.5t-73 -60t-86 -22.5q-70 0 -111.5 48t-41.5 130q0 64 20.5 125.5t57.5 110t85.5 77.5t103.5 29q53 0 88 -27t35 -77q0 -56 -33 -98.5t-92.5 -67.5t-138.5 -28v-17q0 -63 22 -96.5t63 -33.5q36 0 74 27t70 68zM339 480q-22 0 -43 -21t-39 -56.5 t-31 -79t-17 -86.5q49 6 86 36t57.5 73t20.5 92q0 17 -8 29.5t-26 12.5zM285 -129q0 -34 -26.5 -56.5t-62.5 -22.5q-28 0 -44.5 13.5t-16.5 37.5q0 33 27.5 55.5t61.5 22.5q28 0 44.5 -13.5t16.5 -36.5z" />
<glyph unicode="&#x1ebc;" horiz-adv-x="555" d="M569 809q14 11 31.5 26t33.5 30l9 -4q-13 -52 -41 -87t-70 -35q-27 0 -58 10.5t-59 23t-45 17.5q-15 -11 -32 -26t-33 -30l-9 4q12 54 41 88t70 34q27 0 57 -11t57.5 -23t47.5 -17zM513 0h-473v13l59 13q11 3 16.5 10.5t7.5 19.5l114 539l5 22l-70 20l3 13h466 q-1 -28 -8.5 -64t-18.5 -70.5t-24 -59.5h-8l-39 162q-21 0 -43 0.5t-43 0.5h-90l-5 -24l-54 -252l189 8l-10 -48l-185 9l-54 -256l-5 -24l96 -1q21 0 44 0.5t45 0.5l108 166h9q1 -29 -2 -60q-3 -37 -11.5 -73.5t-18.5 -64.5z" />
<glyph unicode="&#x1ebd;" horiz-adv-x="425" d="M471 659q14 11 31.5 26t33.5 30l9 -4q-13 -52 -41 -87t-70 -35q-27 0 -58 10.5t-59 23t-45 17.5q-15 -11 -32 -26t-33 -30l-9 4q12 54 41 88t70 34q27 0 57 -11t57.5 -23t47.5 -17zM443 155q-18 -45 -50 -82.5t-73 -60t-86 -22.5q-70 0 -111.5 48t-41.5 130 q0 64 20.5 125.5t57.5 110t85.5 77.5t103.5 29q53 0 88 -27t35 -77q0 -56 -33 -98.5t-92.5 -67.5t-138.5 -28v-17q0 -63 22 -96.5t63 -33.5q36 0 74 27t70 68zM339 480q-22 0 -43 -21t-39 -56.5t-31 -79t-17 -86.5q49 6 86 36t57.5 73t20.5 92q0 17 -8 29.5t-26 12.5z" />
<glyph unicode="&#x1eca;" horiz-adv-x="346" d="M310 0h-270v13l56 12q13 3 18.5 10.5t8.5 20.5l114 539l5 22l-70 20l3 13h270v-13l-56 -11q-14 -4 -19 -11.5t-8 -19.5l-114 -539l-5 -22l70 -21zM217 -129q0 -34 -26.5 -56.5t-62.5 -22.5q-28 0 -44.5 13.5t-16.5 37.5q0 33 27.5 55.5t61.5 22.5q28 0 44.5 -13.5 t16.5 -36.5z" />
<glyph unicode="&#x1ecb;" horiz-adv-x="290" d="M349 665q0 -34 -26.5 -56.5t-61.5 -22.5q-29 0 -45.5 13.5t-16.5 37.5q0 33 27.5 55.5t61.5 22.5q28 0 44.5 -13.5t16.5 -36.5zM114 143q11 51 26.5 110.5t25.5 104.5q5 22 8.5 39.5t3.5 27.5q0 15 -9 15q-13 0 -38 -30t-51 -66l-7 4q14 38 38.5 75.5t55.5 62t66 24.5 q63 0 63 -77q0 -16 -2.5 -35t-7.5 -40q-10 -49 -25.5 -109t-26.5 -106q-5 -23 -8 -40.5t-3 -27.5q0 -14 9 -14q12 0 37 30t51 66l8 -5q-15 -38 -39.5 -75.5t-55 -62t-65.5 -24.5q-64 0 -64 78q0 15 3 34t7 41zM227 -129q0 -34 -26.5 -56.5t-61.5 -22.5q-29 0 -45.5 13.5 t-16.5 37.5q0 33 27.5 55.5t61.5 22.5q28 0 44.5 -13.5t16.5 -36.5z" />
<glyph unicode="&#x1ecc;" horiz-adv-x="643" d="M680 414q0 -84 -27 -160t-74.5 -135.5t-111 -94t-137.5 -34.5q-111 0 -170 67t-59 176q0 85 27.5 162t76 136.5t112.5 94t138 34.5q108 0 166.5 -67t58.5 -179zM235 177q0 -76 25.5 -115.5t70.5 -39.5q35 0 67 28.5t59 77t47 108t31 123t11 121.5q0 69 -23.5 109 t-70.5 40q-36 0 -68.5 -28.5t-59.5 -76t-47 -107t-31 -121.5t-11 -119zM365 -129q0 -34 -26.5 -56.5t-61.5 -22.5q-29 0 -45.5 13.5t-16.5 37.5q0 33 27.5 55.5t61.5 22.5q28 0 44.5 -13.5t16.5 -36.5z" />
<glyph unicode="&#x1ecd;" horiz-adv-x="502" d="M524 319q0 -69 -21.5 -129t-58.5 -105t-84.5 -70t-100.5 -25q-82 0 -128.5 52t-46.5 140q0 67 21.5 126.5t59 104.5t86 71t102.5 26q83 0 127 -54t44 -137zM209 150q0 -59 13.5 -93.5t41.5 -34.5q23 0 43 22.5t37 59.5t29 82t18.5 90t6.5 84q0 54 -12.5 86t-40.5 32 q-29 0 -53.5 -32t-43.5 -83t-29 -107.5t-10 -105.5zM300 -129q0 -34 -26.5 -56.5t-61.5 -22.5q-29 0 -45.5 13.5t-16.5 37.5q0 33 27.5 55.5t61.5 22.5q28 0 44.5 -13.5t16.5 -36.5z" />
<glyph unicode="&#x1ee4;" horiz-adv-x="670" d="M616 231q-27 -125 -93.5 -183t-167.5 -58q-98 0 -153 50t-55 139q0 28 7 61l76 355l5 22l-71 20l4 13h270v-13l-56 -11q-14 -4 -19.5 -11.5t-7.5 -19.5l-77 -362q-4 -18 -6 -34t-2 -30q0 -67 34 -100.5t91 -33.5q65 0 115 49t71 148l77 364l5 21l-79 20l3 13h198v-13 l-87 -20l-5 -21zM396 -129q0 -34 -26.5 -56.5t-62.5 -22.5q-28 0 -44.5 13.5t-16.5 37.5q0 33 27.5 55.5t61.5 22.5q28 0 44.5 -13.5t16.5 -36.5z" />
<glyph unicode="&#x1ee5;" d="M459 502q4 0 20 1t35.5 2.5t35 2.5t18.5 1q13 0 10 -12l-29 -139l-14 -65l-22 -103q-20 -95 -20 -113q0 -16 9 -16q15 0 39 30t48 66l8 -5q-13 -38 -36.5 -75.5t-54 -62t-65.5 -24.5q-27 0 -44.5 16t-17.5 51q0 32 13 92.5t30 124.5q-53 -132 -116 -208t-123 -76 q-38 0 -57.5 22t-19.5 58q0 24 6 59t16 75.5t20 80.5t18 73q5 22 8.5 39.5t3.5 27.5q0 15 -9 15q-13 0 -38 -30t-51 -66l-7 4q14 38 38.5 75.5t55.5 62t66 24.5q63 0 63 -77q0 -16 -2.5 -35t-7.5 -40q-9 -46 -23 -98t-24.5 -97t-10.5 -71q0 -11 4 -18.5t16 -7.5q23 0 55 38 t65.5 104t60.5 150zM344 -129q0 -34 -26.5 -56.5t-61.5 -22.5q-29 0 -45.5 13.5t-16.5 37.5q0 33 27.5 55.5t61.5 22.5q28 0 44.5 -13.5t16.5 -36.5z" />
<glyph unicode="&#x1ef2;" horiz-adv-x="594" d="M571 724l-9 -9q-51 15 -91 35.5t-63 43.5t-23 45q0 24 19 35.5t48 11.5q6 0 11.5 -0.5t9.5 -0.5q15 -32 41.5 -76t56.5 -85zM434 0h-270v13l56 12q14 3 19 10.5t8 20.5l24 114q9 40 10.5 94.5t-3 111t-14 105t-24 79t-32.5 30.5q-14 0 -30 -14.5t-32 -36.5t-31 -45l-10 4 q13 37 37 74.5t55.5 62.5t68.5 25t63.5 -31.5t43.5 -86t23 -124.5t2 -148q43 112 89.5 200t88.5 139t75 51q26 0 39 -23t18.5 -57.5t7.5 -70.5l-10 -5q-11 37 -21.5 62.5t-30.5 25.5q-21 0 -50.5 -31t-62.5 -81.5t-63.5 -110.5t-54 -120t-33.5 -107l-18 -86l-5 -22l71 -21z " />
<glyph unicode="&#x1ef3;" horiz-adv-x="481" d="M454 574l-9 -10q-51 15 -91 35.5t-63 43.5t-23 45q0 24 19 35.5t48 11.5q7 0 12 -0.5t10 -0.5q14 -32 40.5 -75.5t56.5 -84.5zM298 348q0 -44 -7.5 -99.5t-23 -115t-38.5 -115.5q64 61 105 133t60.5 146t19.5 139q0 20 -2 35.5t-4 27.5q8 4 22.5 7.5t31.5 3.5 q73 0 73 -82q0 -72 -36.5 -153.5t-107.5 -157t-176 -130.5q-24 -52 -54.5 -93t-68.5 -64.5t-83 -23.5q-42 0 -67 17t-25 42q0 19 15 32.5t37 17.5q6 -21 18.5 -43.5t32.5 -22.5q26 0 49 33t41.5 88t32.5 120.5t21.5 131t7.5 120.5q0 39 -5.5 68.5t-20.5 29.5q-17 0 -39 -30 t-43 -66l-8 4q12 39 34 76t52.5 61.5t67.5 24.5q46 0 67 -42.5t21 -119.5z" />
<glyph unicode="&#x1ef8;" horiz-adv-x="594" d="M573 809q14 11 31.5 26t33.5 30l9 -4q-13 -52 -41 -87t-70 -35q-27 0 -58 10.5t-59 23t-45 17.5q-15 -11 -32 -26t-33 -30l-9 4q12 54 41 88t70 34q27 0 57 -11t57.5 -23t47.5 -17zM434 0h-270v13l56 12q14 3 19 10.5t8 20.5l24 114q9 40 10.5 94.5t-3 111t-14 105 t-24 79t-32.5 30.5q-14 0 -30 -14.5t-32 -36.5t-31 -45l-10 4q13 37 37 74.5t55.5 62.5t68.5 25t63.5 -31.5t43.5 -86t23 -124.5t2 -148q43 112 89.5 200t88.5 139t75 51q26 0 39 -23t18.5 -57.5t7.5 -70.5l-10 -5q-11 37 -21.5 62.5t-30.5 25.5q-21 0 -50.5 -31 t-62.5 -81.5t-63.5 -110.5t-54 -120t-33.5 -107l-18 -86l-5 -22l71 -21z" />
<glyph unicode="&#x1ef9;" horiz-adv-x="481" d="M460 659q14 11 31 26l34 30l8 -4q-12 -52 -40.5 -87t-70.5 -35q-27 0 -58 10.5t-58.5 23t-45.5 17.5q-14 -11 -31.5 -26t-33.5 -30l-8 4q12 54 40.5 88t70.5 34q26 0 56 -11t58 -23t48 -17zM298 348q0 -44 -7.5 -99.5t-23 -115t-38.5 -115.5q64 61 105 133t60.5 146 t19.5 139q0 20 -2 35.5t-4 27.5q8 4 22.5 7.5t31.5 3.5q73 0 73 -82q0 -72 -36.5 -153.5t-107.5 -157t-176 -130.5q-24 -52 -54.5 -93t-68.5 -64.5t-83 -23.5q-42 0 -67 17t-25 42q0 19 15 32.5t37 17.5q6 -21 18.5 -43.5t32.5 -22.5q26 0 49 33t41.5 88t32.5 120.5 t21.5 131t7.5 120.5q0 39 -5.5 68.5t-20.5 29.5q-17 0 -39 -30t-43 -66l-8 4q12 39 34 76t52.5 61.5t67.5 24.5q46 0 67 -42.5t21 -119.5z" />
<glyph unicode="&#x2013;" horiz-adv-x="526" d="M90 250l7 35h454l-7 -35h-454z" />
<glyph unicode="&#x2014;" horiz-adv-x="804" d="M90 250l7 35h732l-7 -35h-732z" />
<glyph unicode="&#x2018;" horiz-adv-x="236" d="M156 480q0 33 21.5 72.5t59.5 77t85 65.5l7 -8q-27 -31 -51 -68t-37 -74q38 -8 38 -47q0 -31 -22 -52t-50 -21q-23 0 -37 14.5t-14 40.5z" />
<glyph unicode="&#x2019;" horiz-adv-x="236" d="M318 641q0 -34 -21.5 -73.5t-59 -77t-85.5 -65.5l-7 9q27 30 51 67t37 74q-37 8 -37 48q0 30 21.5 51t49.5 21q23 0 37 -14.5t14 -39.5z" />
<glyph unicode="&#x201a;" horiz-adv-x="236" d="M194 57q0 -34 -22 -73.5t-59.5 -77t-84.5 -65.5l-8 9q28 30 52 67t37 74q-38 8 -38 48q0 30 22 51t50 21q22 0 36.5 -14.5t14.5 -39.5z" />
<glyph unicode="&#x201c;" horiz-adv-x="406" d="M156 480q0 33 21.5 72.5t59.5 77t85 65.5l7 -8q-27 -31 -51 -68t-37 -74q38 -8 38 -47q0 -31 -22 -52t-50 -21q-23 0 -37 14.5t-14 40.5zM326 480q0 33 21.5 72.5t59.5 77t85 65.5l7 -8q-27 -31 -51 -68t-37 -74q38 -8 38 -47q0 -31 -22 -52t-50 -21q-23 0 -37 14.5 t-14 40.5z" />
<glyph unicode="&#x201d;" horiz-adv-x="406" d="M488 641q0 -34 -21.5 -73.5t-59 -77t-85.5 -65.5l-7 9q27 30 51 67t37 74q-37 8 -37 48q0 30 21.5 51t49.5 21q23 0 37 -14.5t14 -39.5zM318 641q0 -34 -21.5 -73.5t-59 -77t-85.5 -65.5l-7 9q27 30 51 67t37 74q-37 8 -37 48q0 30 21.5 51t49.5 21q23 0 37 -14.5 t14 -39.5z" />
<glyph unicode="&#x201e;" horiz-adv-x="406" d="M364 57q0 -34 -22 -73.5t-59.5 -77t-84.5 -65.5l-8 9q28 30 52 67t37 74q-38 8 -38 48q0 30 22 51t50 21q22 0 36.5 -14.5t14.5 -39.5zM194 57q0 -34 -22 -73.5t-59.5 -77t-84.5 -65.5l-8 9q28 30 52 67t37 74q-38 8 -38 48q0 30 22 51t50 21q22 0 36.5 -14.5t14.5 -39.5 z" />
<glyph unicode="&#x2020;" horiz-adv-x="502" d="M257 -10h-16l-43 125l129 304l-186 -50l-3 2q2 24 7 57t11 61l9 6l168 -51l-17 201l3 3q29 3 64.5 5t72.5 3l5 -7l-104 -205l188 51l2 -2q-2 -25 -6.5 -57t-10.5 -61l-9 -6l-168 50l-1 -304z" />
<glyph unicode="&#x2021;" horiz-adv-x="502" d="M106 253l9 5l169 -55q-4 23 -7.5 49.5t-6 47.5t-0.5 27q1 7 11.5 26.5t25 44t27.5 46.5l-188 -52l-2 2q1 24 6.5 58.5t11.5 64.5l9 6l171 -56l-30 178l2 3q30 3 70.5 5t76.5 3l5 -7l-107 -182l192 56l3 -2q-2 -25 -7.5 -59t-11.5 -64l-9 -6l-169 52q4 -22 8 -46.5t6 -44 t1 -26.5q-2 -6 -13 -27t-26 -47.5t-28 -49.5l190 55l2 -2q-1 -24 -6.5 -58.5t-11.5 -64.5l-10 -5l-170 52l31 -175l-3 -3q-30 -3 -70.5 -5t-76.5 -2l-5 6l105 179l-190 -52l-2 2q1 24 6.5 58t11.5 65z" />
<glyph unicode="&#x2022;" horiz-adv-x="423" d="M255 164q-49 0 -77 30t-28 72q0 38 20 71t53 54t72 21q45 0 73 -27t28 -71q0 -39 -18 -73.5t-49.5 -55.5t-73.5 -21z" />
<glyph unicode="&#x2026;" horiz-adv-x="588" d="M485 -10q-24 0 -37.5 13.5t-13.5 35.5q0 30 22 51t51 21q22 0 35.5 -12.5t13.5 -33.5q0 -30 -21 -52.5t-50 -22.5zM295 -10q-24 0 -37.5 13.5t-13.5 35.5q0 30 22 51t51 21q22 0 35.5 -12.5t13.5 -33.5q0 -30 -21 -52.5t-50 -22.5zM105 -10q-24 0 -37.5 13.5t-13.5 35.5 q0 30 22 51t51 21q22 0 35.5 -12.5t13.5 -33.5q0 -30 -21 -52.5t-50 -22.5z" />
<glyph unicode="&#x2030;" horiz-adv-x="1335" d="M789 660h69l-541 -670h-70zM483 516q0 -62 -25.5 -115t-70 -85t-101.5 -32q-64 -1 -99 38.5t-35 100.5q0 62 25.5 115t70 85.5t100.5 32.5q63 0 99 -38.5t36 -101.5zM243 380q0 -35 10.5 -54.5t34.5 -19.5q22 0 40.5 23t32 61t21.5 82.5t8 87.5q0 34 -11 54t-34 20 t-41.5 -23t-32 -61t-21 -82.5t-7.5 -87.5zM937 228q0 -62 -25.5 -115t-70 -85t-101.5 -32q-64 -1 -99 38.5t-35 100.5q0 62 25.5 115t70 85.5t100.5 32.5q63 0 99 -38.5t36 -101.5zM1321 228q0 -62 -25.5 -115t-70 -85t-101.5 -32q-64 -1 -99 38.5t-35 100.5q0 62 25.5 115 t70 85.5t100.5 32.5q63 0 99 -38.5t36 -101.5zM697 92q0 -35 10.5 -54.5t34.5 -19.5q22 0 40.5 23t32 61t21.5 82.5t8 87.5q0 34 -11 54t-34 20t-41.5 -23t-32 -61t-21 -82.5t-7.5 -87.5zM1081 92q0 -35 10.5 -54.5t34.5 -19.5q22 0 40.5 23t32 61t21.5 82.5t8 87.5 q0 34 -11 54t-34 20t-41.5 -23t-32 -61t-21 -82.5t-7.5 -87.5z" />
<glyph unicode="&#x2039;" horiz-adv-x="320" d="M269 61l-13 -8q-34 53 -71.5 104.5t-67.5 84.5l-2 5l7 33q54 39 113 84.5t107 87.5l10 -8q-31 -48 -69 -96t-75 -95q16 -39 32.5 -90t28.5 -102z" />
<glyph unicode="&#x203a;" horiz-adv-x="320" d="M306 228q-55 -39 -113.5 -84.5t-106.5 -86.5l-10 7q31 48 68.5 96t75.5 95q-16 39 -32.5 90t-28.5 102l13 8q33 -53 71 -104.5t68 -83.5l2 -5z" />
<glyph unicode="&#x2044;" horiz-adv-x="253" d="M432 660h69l-541 -670h-70z" />
<glyph unicode="&#x2070;" horiz-adv-x="404" d="M485 599q0 -62 -25.5 -115t-70 -85t-101.5 -32q-64 -1 -99 38.5t-35 100.5q0 62 25.5 115t70 85.5t100.5 32.5q63 0 99 -38.5t36 -101.5zM245 463q0 -35 10.5 -54.5t34.5 -19.5q22 0 40.5 23t32 61t21.5 82.5t8 87.5q0 34 -11 54t-34 20t-41.5 -23t-32 -61t-21 -82.5 t-7.5 -87.5z" />
<glyph unicode="&#x2071;" horiz-adv-x="236" d="M275 748q-22 0 -35 10t-13 27q0 25 21.5 41.5t47.5 16.5q22 0 35 -10t13 -27q0 -25 -20.5 -41.5t-48.5 -16.5zM135 575l-6 3q12 28 30.5 55t42.5 44.5t52 17.5q49 0 49 -57q0 -21 -8.5 -57.5t-19.5 -76t-19 -72.5t-8 -46q0 -10 6 -10q9 0 28.5 21t39.5 46l5 -2 q-11 -28 -29.5 -55.5t-42.5 -45t-51 -17.5q-50 0 -50 58q0 21 8 55t19.5 72t20 71.5t8.5 53.5q0 10 -7 10q-10 0 -29 -21t-39 -47z" />
<glyph unicode="&#x2074;" horiz-adv-x="382" d="M136 489l253 250l53 -8l-50 -231l57 1l-11 -43h-55l-18 -87h-90l18 88l-157 2v28zM334 658l-158 -163l125 3z" />
<glyph unicode="&#x2075;" horiz-adv-x="327" d="M391 499q0 -58 -67.5 -95t-198.5 -39l-1 13q80 10 124.5 37.5t44.5 69.5q0 50 -67 50q-15 0 -27 -2t-22 -5l-9 8l45 199q40 -1 86.5 -2.5t86.5 -1.5q15 0 24 6.5t18 24.5l6 -1q-11 -45 -22 -67.5t-43 -22.5q-31 0 -69 2.5t-72 5.5l-23 -101q14 3 28.5 5t29.5 2 q60 0 94 -23t34 -63z" />
<glyph unicode="&#x2076;" horiz-adv-x="369" d="M149 488q0 71 39.5 125.5t108 87.5t155.5 38l1 -13q-80 -20 -139.5 -71t-80.5 -123q17 31 46 48t65 17q42 0 68 -25t26 -66q0 -39 -22.5 -71t-60 -51t-81.5 -19q-60 0 -92.5 35t-32.5 88zM356 505q0 26 -12 44t-33 18q-20 0 -39.5 -18t-31.5 -45.5t-11 -57.5 q0 -24 12.5 -42t37.5 -18q22 0 39 16.5t27.5 43.5t10.5 59z" />
<glyph unicode="&#x2077;" horiz-adv-x="320" d="M273 380q-10 -15 -33 -15q-15 0 -27 8t-18 19q51 73 94 136t80 127q-38 9 -78 15.5t-65 6.5q-21 0 -31.5 -9.5t-20.5 -31.5l-6 1q10 46 21.5 74t44.5 28q31 0 59 -10t51 -24t39 -25q17 30 32 59q22 -2 22 -18q0 -7 -12.5 -37t-32.5 -73t-42.5 -88.5t-43 -84t-33.5 -58.5z " />
<glyph unicode="&#x2078;" horiz-adv-x="366" d="M424 471q0 -46 -44.5 -76t-113.5 -30q-58 0 -93.5 21.5t-35.5 59.5q0 35 34.5 59t86.5 34q-26 20 -46.5 43.5t-20.5 56.5q0 45 40.5 72.5t100.5 27.5q52 0 83.5 -22t31.5 -56q0 -33 -27.5 -56t-71.5 -35q29 -20 52.5 -42.5t23.5 -56.5zM272 659q0 -24 17.5 -42t40.5 -35 q44 41 44 84q0 24 -11.5 38.5t-32.5 14.5q-26 0 -42 -16.5t-16 -43.5zM219 441q0 -26 14.5 -41t39.5 -15q29 0 47.5 17t18.5 44q0 25 -20.5 44t-46.5 39q-53 -41 -53 -88z" />
<glyph unicode="&#x2079;" horiz-adv-x="369" d="M455 616q0 -70 -39.5 -125t-108 -88t-155.5 -38l-1 14q80 19 139 70t80 123q-16 -31 -45.5 -47.5t-64.5 -16.5q-42 0 -68 25t-26 65q0 39 22.5 71t59.5 51t82 19q60 0 92.5 -35t32.5 -88zM248 600q0 -27 11.5 -44.5t33.5 -17.5q20 0 39 17.5t31.5 45t11.5 57.5 q-1 24 -13.5 42t-36.5 18q-22 0 -39.5 -16.5t-27.5 -43.5t-10 -58z" />
<glyph unicode="&#x207f;" horiz-adv-x="440" d="M234 329q-5 0 -25 -1.5t-39 -2.5t-22 -1q-12 0 -9 9l23 101l11 48l17 71q15 66 15 78t-7 12q-12 0 -30 -21t-36 -47l-7 3q10 28 28 55t41.5 44.5t51.5 17.5q21 0 34.5 -12t13.5 -37q0 -23 -10 -64.5t-22 -86.5q41 94 89 147t94 53q29 0 44.5 -16t15.5 -42q0 -23 -8.5 -59 t-19 -74.5t-18.5 -69.5q-4 -16 -6.5 -28.5t-2.5 -19.5q0 -10 7 -10q9 0 28.5 21t39.5 46l6 -2q-12 -28 -31 -55.5t-43 -45t-51 -17.5q-49 0 -49 58q0 10 2 24t5 29q7 32 17.5 68.5t19 68t8.5 49.5q0 19 -16 19q-17 0 -41.5 -27t-49.5 -73t-45 -105z" />
<glyph unicode="&#x2080;" horiz-adv-x="405" d="M385 127q0 -62 -25.5 -115t-70 -85t-101.5 -32q-64 -1 -99 38.5t-35 100.5q0 62 25.5 115t70 85.5t100.5 32.5q63 0 99 -38.5t36 -101.5zM145 -9q0 -35 10.5 -54.5t34.5 -19.5q22 0 40.5 23t32 61t21.5 82.5t8 87.5q0 34 -11 54t-34 20t-41.5 -23t-32 -61t-21 -82.5 t-7.5 -87.5z" />
<glyph unicode="&#x2081;" horiz-adv-x="271" d="M209 -101h-185v8l37 6q14 3 18 19l66 295l-56 -2l1 7l151 35l5 -4l-76 -331l-3 -14l44 -11z" />
<glyph unicode="&#x2082;" horiz-adv-x="346" d="M101 -90q-39 0 -70 -16l-11 37q105 71 154 121t49 100q0 27 -16 42.5t-44 15.5q-57 0 -93 -61l-6 3q18 51 57.5 82.5t96.5 31.5q47 0 77.5 -25.5t30.5 -66.5q0 -54 -50.5 -100t-133.5 -90q-11 -7 -21.5 -13t-21.5 -12q21 6 46 6q28 0 59.5 -6t52.5 -6q12 0 20.5 11.5 t17.5 30.5l6 -1q-9 -39 -18 -66q-14 -34 -38 -34q-30 0 -68 8t-76 8z" />
<glyph unicode="&#x2083;" horiz-adv-x="321" d="M282 11q0 -52 -71.5 -83.5t-197.5 -34.5l-1 13q80 11 125.5 38t45.5 68q0 26 -20 40t-50 14q-10 0 -25 -2l-3 18q58 9 90.5 32.5t32.5 55.5q0 19 -13 31t-37 12q-27 0 -49.5 -14t-37.5 -40l-5 3q15 47 54.5 76t89.5 29q45 0 70.5 -21t25.5 -54q0 -40 -36 -67t-93 -39 q46 -2 75.5 -22t29.5 -53z" />
<glyph unicode="&#x2084;" horiz-adv-x="382" d="M36 17l253 250l53 -8l-50 -231l57 1l-11 -43h-55l-18 -87h-90l18 88l-157 2v28zM234 186l-158 -163l125 3z" />
<glyph unicode="&#x2085;" horiz-adv-x="327" d="M291 27q0 -58 -67.5 -95t-198.5 -39l-1 13q80 10 124.5 37.5t44.5 69.5q0 50 -67 50q-15 0 -27 -2t-22 -5l-9 8l45 199q40 -1 86.5 -2.5t86.5 -1.5q15 0 24 6.5t18 24.5l6 -1q-11 -45 -22 -67.5t-43 -23.5q-31 0 -69 3t-72 6l-23 -101q14 3 28.5 5t29.5 2q60 0 94 -23 t34 -63z" />
<glyph unicode="&#x2086;" horiz-adv-x="369" d="M49 16q0 71 39 125.5t107.5 87.5t156.5 38v-13q-80 -20 -139 -71t-80 -123q16 31 45.5 48t65.5 17q41 0 67 -25t26 -66q0 -39 -22.5 -71t-59.5 -51t-82 -19q-60 0 -92 35t-32 88zM256 33q0 26 -12 44t-34 18q-20 0 -39 -18t-31 -45.5t-11 -57.5q0 -24 12.5 -42t37.5 -18 q21 0 38.5 16.5t28 43.5t10.5 59z" />
<glyph unicode="&#x2087;" horiz-adv-x="319" d="M172 -92q-9 -15 -33 -15q-14 0 -26 8t-18 19q50 73 93 136t81 127q-39 9 -78.5 15.5t-64.5 6.5q-22 0 -32.5 -9.5t-20.5 -31.5l-6 1q10 46 22 74t45 28q31 0 59 -10t51 -24t39 -25q16 30 31 59q22 -2 22 -18q0 -7 -12.5 -37t-32 -73t-42 -88.5t-43 -84t-34.5 -58.5z" />
</font>
</defs>
</svg>
