<?xml version="1.0" standalone="no"?>
<!DOCTYPE svg PUBLIC "-//W3C//DTD SVG 1.1//EN" "http://www.w3.org/Graphics/SVG/1.1/DTD/svg11.dtd" >
<svg xmlns="http://www.w3.org/2000/svg" xmlns:xlink="http://www.w3.org/1999/xlink" version="1.1">
<metadata></metadata>
<defs>
<font id="indivisa_text_serifbold" horiz-adv-x="596" >
<font-face units-per-em="1000" ascent="800" descent="-200" />
<missing-glyph horiz-adv-x="250" />
<glyph unicode="ff" horiz-adv-x="679" d="M226 47l71 -29l-2 -18h-261l-2 18l37 15q18 8 25 18.5t7 30.5v360h-67l-2 18l69 27v24q0 64 32 115.5t87 81.5t125 30q45 0 83 -14t63 -36q31 33 73 51.5t90 18.5q43 0 76 -15.5t52 -40t19 -52.5q0 -27 -17.5 -41.5t-43.5 -14.5q-19 0 -40 8q-3 56 -18 84.5t-47 28.5 q-42 0 -66 -41.5t-24 -117.5v-72h125v-42h-125v-395l89 -29l-2 -18h-279l-2 18l37 15q18 8 25 18.5t7 30.5v360h-194v-395zM420 509q0 44 13 84q-11 40 -35 71t-66 31q-50 0 -78 -37t-28 -101v-73h186l8 3v22z" />
<glyph unicode="ffi" horiz-adv-x="964" d="M226 47l71 -29l-2 -18h-261l-2 18l37 15q18 8 25 18.5t7 30.5v360h-67l-2 18l69 27v24q0 64 32 115.5t87.5 81.5t125.5 30q46 0 84 -14t63 -36q33 33 77.5 51.5t96.5 18.5t94 -15t66.5 -40t24.5 -55q0 -25 -15.5 -39.5t-40.5 -14.5q-30 0 -50 10q-7 29 -18 54t-29.5 41 t-48.5 16q-50 0 -77 -40t-27 -112v-79h208q25 8 54 15t54 9l8 -9v-452l69 -29l-2 -18h-258l-2 18l37 15q17 8 24 18.5t7 30.5v360h-199v-395l76 -29l-2 -18h-266l-2 18l37 15q17 8 24.5 18.5t7.5 30.5v360h-195v-395zM421 509q0 46 14 87q-12 40 -36 69.5t-66 29.5 q-51 0 -79 -37t-28 -101v-73h195v25z" />
<glyph unicode="ffl" horiz-adv-x="963" d="M226 47l77 -29l-2 -18h-267l-2 18l37 15q18 8 25 18.5t7 30.5v360h-67l-2 18l69 27v24q0 64 32 115.5t87.5 81.5t125.5 30q45 0 82.5 -13.5t62.5 -34.5q32 32 76 50t96 18q28 0 53 -4.5t46 -13.5q52 15 99 18l9 -8v-703l69 -29l-2 -18h-259l-2 18l37 15q17 8 24.5 18.5 t7.5 30.5v360h-200v-395l77 -29l-2 -18h-267l-2 18l37 15q18 8 25 18.5t7 30.5v360h-194v-395zM545 577v-93h200v163q-13 29 -36 48.5t-59 19.5q-50 0 -77.5 -36t-27.5 -102zM420 519q0 43 14 82q-12 38 -36 66t-65 28q-51 0 -79 -37t-28 -101v-73h194v35z" />
<glyph unicode="&#x2f;symbol&#x31;&#x2f;" horiz-adv-x="5534" d="M1865 412q-25 0 -40.5 14.5t-15.5 37.5q0 24 15.5 45t39 34.5t48.5 13.5q24 0 39 -13.5t15 -37.5t-14.5 -45.5t-37.5 -35t-49 -13.5zM1284 412q-26 0 -41.5 14.5t-15.5 37.5q0 24 15.5 45t39.5 34.5t49 13.5q24 0 38.5 -13.5t14.5 -37.5t-14.5 -45.5t-37 -35t-48.5 -13.5 zM959 0q0 21 2.5 46.5t8.5 61.5q-16 -49 -51 -82t-79 -33q-41 0 -63 30t-22 82q0 45 15.5 91t46.5 85.5t76.5 63.5t104.5 24h12.5t12.5 -1l16 73l6 102l136 7q0 -40 -9.5 -95t-23 -116.5t-27 -123.5t-23 -117.5t-9.5 -97.5h-130zM100 0l78 364q8 38 13.5 72.5t7.5 63.5 l128 7l11 -15l-104 -492h-134zM3503 492l-57 -492h-131l20 175q3 30 9 69t12.5 78t11.5 68h-3q-16 -53 -37 -107.5t-44 -107.5l-76 -175h-149l-2 175q-1 56 1 109t8 106h-2q-15 -61 -30 -115.5t-29 -99.5l-53 -175h-109l154 500l184 6l1 -137q1 -50 -2.5 -121.5 t-12.5 -137.5h2q20 65 36 111t30.5 81t27.5 67l56 131l169 7zM5316 300q-15 -74 -23 -110.5t-11 -51t-3 -21.5q0 -34 36 -34q13 0 28 5t31 13l-9 -79q-20 -11 -50 -20t-64 -9q-50 0 -77.5 25t-27.5 75q0 11 1.5 23.5t6 33.5t12.5 57.5t20 95.5l-47 1l9 44l54 14l53 95l81 6 l13 -15l-20 -86h99l6 -14l-17 -51zM336 0q0 28 4 62t13 82t24 116l6 102l137 7q0 -18 -2 -41t-5 -48h2q29 49 65.5 69t68.5 20q35 0 53.5 -19.5t18.5 -51.5q0 -23 -8 -62.5t-18 -84.5q-7 -33 -11 -57t-5.5 -45.5t-1.5 -48.5h-131q0 38 4.5 69.5t14.5 80.5q7 35 11 55.5 t4 31.5q0 24 -17 24t-34 -22.5t-30.5 -60.5t-22 -84t-9.5 -94h-131zM1170 0q0 39 7 87.5t20 105.5l14 67l6 102l137 7q0 -36 -8 -81.5t-19 -95.5t-19 -99t-8 -93h-130zM1399 362l140 7q6 -59 4.5 -137.5t-9.5 -151.5h2q23 45 42 95t32 99t17 90q17 4 28.5 4.5t21.5 0.5 q28 0 46.5 -7t18.5 -35q0 -22 -13.5 -60.5t-36.5 -85t-53.5 -94t-63.5 -87.5h-149q-2 111 -9.5 207.5t-17.5 154.5zM1752 0q0 39 7 87.5t19 105.5l15 67l6 102l137 7q0 -36 -8 -81.5t-19 -95.5t-19 -99t-8 -93h-130zM4716 0q0 28 4 62t13 82t24 116l6 102l137 7 q0 -18 -2.5 -41t-4.5 -48h2q29 49 65 69t69 20q35 0 53.5 -19.5t18.5 -51.5q0 -23 -8 -62.5t-18 -84.5q-7 -33 -11 -57t-6 -45.5t-2 -48.5h-130q0 38 4.5 69.5t14.5 80.5q7 35 11 55.5t4 31.5q0 24 -17 24q-18 0 -34.5 -22.5t-30.5 -60.5t-22.5 -84t-9.5 -94h-130zM2245 256 q-25 14 -51.5 22t-45.5 8q-17 0 -29.5 -7t-12.5 -19q0 -13 13 -22t32 -17.5t38 -20.5t32 -30.5t13 -47.5q0 -39 -25 -68t-66.5 -45t-89.5 -16q-33 0 -66.5 7.5t-51.5 20.5l27 93q27 -18 58.5 -28t52.5 -10q20 0 30 8t10 18q0 13 -13 22t-32 18t-38 21t-32 30t-13 46 q0 39 25.5 68t67.5 45.5t90 16.5q20 0 48.5 -3.5t55.5 -14.5zM2525 369q32 0 73.5 -7.5t72.5 -24.5l-29 -128q-20 -94 -25.5 -140.5t-5.5 -68.5h-130q0 20 2.5 45t9.5 67q-15 -50 -50.5 -84.5t-81.5 -34.5q-41 0 -62.5 30t-21.5 83q0 44 15.5 90.5t46.5 85.5t77.5 63 t108.5 24zM4653 51q-32 -28 -74 -43t-85 -15q-62 0 -102 33.5t-40 103.5q0 46 17.5 88.5t49.5 76.5t75 54t94 20q53 0 86 -23t33 -65q0 -56 -59 -95.5t-162 -44.5v-1q0 -29 15 -46.5t48 -17.5q22 0 45 7.5t45 20.5zM3936 0q0 28 4 62t13.5 82t24.5 116l5 102l137 7 q0 -18 -2 -41t-5 -48h2q29 49 65.5 69t68.5 20q35 0 53.5 -19.5t18.5 -51.5q0 -23 -8 -62.5t-18 -84.5q-7 -33 -11 -57t-5.5 -45.5t-1.5 -48.5h-131q0 38 4.5 69.5t14.5 80.5q8 35 11.5 55.5t3.5 31.5q0 24 -17 24t-34 -22.5t-30.5 -60.5t-22 -84t-9.5 -94h-131zM3768 369 q32 0 73 -7.5t72 -24.5l-28 -128q-20 -94 -25.5 -140.5t-5.5 -68.5h-130q0 20 2.5 45t9.5 67q-15 -50 -50.5 -84.5t-81.5 -34.5q-41 0 -63 30t-22 83q0 44 15.5 90.5t47 85.5t78 63t108.5 24zM4490 177q46 10 72.5 33.5t26.5 59.5q0 17 -5.5 24t-16.5 7q-20 0 -36 -20 t-26 -48.5t-15 -55.5zM3677 101q17 0 33 21t30 54t22 69q2 11 4.5 22t4.5 22q-16 8 -27 8q-18 0 -34.5 -16t-29 -40.5t-20 -51.5t-7.5 -48q0 -40 24 -40zM913 101q16 0 31 19.5t28.5 50t22.5 64.5l4 20l4 20l3 14q-14 8 -27 8q-18 0 -34 -16t-28.5 -40.5t-20 -51.5t-7.5 -48 q0 -40 24 -40zM2435 101q16 0 32.5 21t30 54t21.5 69q2 11 4.5 22t4.5 22q-14 8 -27 8q-18 0 -34 -16t-29 -40.5t-20 -51.5t-7 -48q0 -40 24 -40z" />
<glyph unicode="&#x2f;symbol&#x32;&#x2f;" horiz-adv-x="932" d="M494 570l52 -90l-137 -240h-103l137 240l-52 90h103zM357 570l52 -90l-138 -240h-103l138 240l-52 90h103zM752 120h-103l-137 240l51 90l137 -240h103zM683 0h-103l-137 240l51 90l138 -240h103zM100 120l51 90h275l51 -90h-274l-52 -90zM168 0l52 90h274l52 -90h-275 l-51 -90zM789 88q18 0 30.5 -13t12.5 -31t-12.5 -31t-30.5 -13t-30.5 13t-12.5 31t12.5 31t30.5 13zM829 44q0 17 -11.5 28.5t-28.5 11.5q-16 0 -28 -11.5t-12 -28.5q0 -16 12 -28t28 -12q17 0 28.5 12t11.5 28zM771 69h18h5t6 -2q5 -4 5 -11q0 -5 -3 -8q-1 -2 -2.5 -2.5 t-3.5 -1.5q7 -1 8 -9q0 -8 3 -16h-8q-1 2 -1 6t-1 7q-1 5 -2.5 7.5t-8.5 2.5h-8v-23h-7v50zM778 47h10h3.5t3.5 1q3 3 3 7q0 6 -4 7t-6 1h-10v-16z" />
<glyph unicode="&#x2f;symbol&#x33;&#x2f;" horiz-adv-x="957" d="M505 638l68 -270h270l-203 -135l136 -270l-271 135l-270 -270l135 405l-270 203l338 -68zM814 87q18 0 30.5 -12.5t12.5 -31.5q0 -18 -12.5 -30.5t-30.5 -12.5t-30.5 12.5t-12.5 30.5q0 19 12.5 31.5t30.5 12.5zM854 43q0 17 -11.5 29t-28.5 12q-16 0 -28 -12t-12 -29 q0 -16 12 -28t28 -12q17 0 28.5 12t11.5 28zM796 68h18h5.5t5.5 -2q6 -3 6 -10q0 -5 -4 -9q-3 -3 -6 -3q7 -3 8 -10q1 -4 1.5 -7.5t1.5 -8.5h-7q-1 3 -1.5 7t-1.5 7q0 9 -10 9h-9v-23h-7v50zM803 47h10h3.5t3.5 1l2 2t1 4q0 7 -4 8t-6 1h-10v-16z" />
<glyph unicode="&#x2f;symbol&#x34;&#x2f;" horiz-adv-x="2607" d="M1684 406q0 32 -2.5 63t-8.5 65l126 14l15 -15v-533h-130v406zM1889 406q0 62 -10 128l126 14l14 -15v-533h-130v406zM427 101v-101h-320v362q0 38 -1.5 72t-5.5 63l126 7l14 -14v-396zM925 21l7 109q31 -18 72 -27t72 -9q50 0 50 36q0 19 -20.5 34t-50 31t-59.5 37 t-50.5 51t-20.5 74q0 48 26 80.5t70 49.5t97 17q81 0 127 -18l-14 -111q-28 14 -55 21.5t-56 7.5q-28 0 -43 -11t-15 -29q0 -22 20.5 -38.5t50.5 -32.5t59.5 -36.5t50 -49.5t20.5 -73q0 -67 -54 -104t-139 -37q-40 0 -82.5 8t-62.5 20zM795 0l-106 -7q-7 11 -12 24t-9 25h-4 q-15 -22 -42.5 -35.5t-61.5 -13.5q-41 0 -69 22t-28 67q0 61 53.5 88.5t137.5 29.5v20q0 54 -58 54q-55 0 -108 -29l-8 97q27 10 68.5 18t81.5 8q154 0 154 -135q0 -38 -2 -69.5t-2 -69.5q0 -24 4.5 -50.5t10.5 -43.5zM1626 0l-107 -7q-7 11 -12 24t-9 25h-3 q-15 -22 -42.5 -35.5t-62.5 -13.5q-40 0 -68 22t-28 67q0 61 53 88.5t138 29.5v20q0 54 -58 54q-54 0 -109 -29l-7 97q27 10 68.5 18t81.5 8q153 0 153 -135q0 -38 -1.5 -69.5t-1.5 -69.5q0 -24 4.5 -50.5t10.5 -43.5zM2405 213v-17t-1 -19l-11 -11h-191q8 -45 33.5 -64 t64.5 -19q24 0 45.5 6t38.5 15l7 -81q-17 -11 -49.5 -20.5t-77.5 -9.5q-88 0 -143 47t-55 135q0 58 24 101t66 67.5t94 24.5q73 0 114 -43.5t41 -111.5zM2199 207l78 4q1 5 1.5 11t0.5 15q0 23 -7.5 41t-26.5 18q-23 0 -34 -25.5t-12 -63.5zM654 74v88q-27 -3 -46 -17 t-19 -40q0 -18 10.5 -29t26.5 -11t28 9zM1485 74v88q-27 -3 -46 -17t-19 -40q0 -18 10 -29t27 -11q16 0 28 9zM2464 85q18 0 30.5 -13t12.5 -31t-12.5 -31t-30.5 -13t-31 13t-13 31t13 31t31 13zM2504 41q0 17 -11.5 28.5t-28.5 11.5q-16 0 -28 -11.5t-12 -28.5 q0 -16 12 -28t28 -12q17 0 28.5 12t11.5 28zM2446 66h18q2 0 5 -0.5t6 -2.5q5 -2 5 -10q0 -4 -3 -9q-3 -3 -6 -3q7 -1 8 -10q0 -7 3 -15h-8q-1 2 -1 6t-1 7q-1 5 -2.5 7t-8.5 2h-8v-22h-7v50zM2453 44h10h3.5t3.5 1q3 3 3 7q0 6 -4 7t-6 1h-10v-16z" />
<glyph unicode="&#x2f;symbol&#x35;&#x2f;" horiz-adv-x="705" d="M232 -6l-132 136l124 234l129 -136zM474 -6l-121 234l128 136l124 -234z" />
<glyph unicode=" "  horiz-adv-x="250" />
<glyph unicode="&#x09;" horiz-adv-x="250" />
<glyph unicode="&#xa0;" horiz-adv-x="250" />
<glyph unicode="!" horiz-adv-x="320" d="M92 683l6 6l23 3q15 2 35 4t34 2q21 0 30 -9t9 -31q0 -7 -0.5 -15t-1.5 -16l-40 -419h-49zM227 67q0 -32 -20.5 -54.5t-52.5 -22.5q-28 0 -45.5 18.5t-17.5 45.5q0 30 22.5 53t54.5 23q25 0 42 -17.5t17 -45.5z" />
<glyph unicode="&#x22;" horiz-adv-x="438" d="M52 763l4 5q52 5 113 5l12 -14l-51 -302h-35l-16 142zM263 763l4 5q52 5 112 5l12 -14l-50 -302h-35l-16 142z" />
<glyph unicode="#" horiz-adv-x="760" d="M214 -10l-61 10l-8 8l43 172h-131l-8 8l10 61h146l48 191h-129l-8 8l10 61h144l47 189l61 -10l8 -8l-43 -171h159l47 189l61 -10l8 -8l-43 -171h128l8 -8l-9 -61h-144l-48 -191h131l8 -8l-9 -61h-147l-47 -190l-61 10l-8 8l43 172h-159zM278 249h159l48 191h-159z" />
<glyph unicode="$" horiz-adv-x="531" d="M286 -137l-48 -3l-8 8v122q-57 1 -104.5 11t-59.5 24q-15 18 -15 65q0 28 7 61t20 57l25 -2q9 -51 20 -83t29 -52q19 -21 46 -29t55 -8q50 0 75 28.5t25 69.5q0 44 -21.5 75.5t-55 56.5t-71 48t-71 50t-55 63t-21.5 87q0 54 25.5 93t68.5 62t96 29v131l49 3l7 -8v-124 q54 -2 95.5 -13.5t53.5 -23.5q7 -7 9 -21.5t2 -27.5q0 -25 -6.5 -63.5t-20.5 -67.5l-24 1q-9 52 -20 82.5t-22 46.5q-13 18 -35 30.5t-53 12.5q-46 0 -72 -28.5t-26 -74.5q0 -44 21.5 -75.5t55 -56.5t71 -47.5t71 -49.5t55 -63t21.5 -86q0 -80 -53.5 -125.5t-140.5 -55.5 v-129z" />
<glyph unicode="%" horiz-adv-x="991" d="M733 698l-423 -708h-55l423 708h55zM55 483q0 61 21.5 109t62 75t95.5 27q54 0 93 -27t60 -74.5t22 -109.5q0 -58 -21.5 -105t-62 -74.5t-95.5 -27.5q-83 0 -129 58t-46 149zM152 482q1 -95 18 -133t62 -38t62.5 40.5t17.5 132.5q-1 94 -19 135t-60 41q-43 0 -62 -42.5 t-19 -135.5zM582 197q0 61 22 109t62 75t95 27q54 0 93 -27t60 -74.5t22 -109.5q0 -58 -21.5 -105t-62 -74.5t-95.5 -27.5q-83 0 -129 58t-46 149zM680 196q0 -95 17 -133t62 -38t62.5 40.5t17.5 132.5q-1 94 -18.5 135t-60.5 41t-62 -42.5t-18 -135.5z" />
<glyph unicode="&#x26;" horiz-adv-x="791" d="M330 -10q-78 0 -136.5 23.5t-91.5 65.5t-33 99q0 63 41.5 109.5t105.5 65.5l-6 7q-32 35 -52.5 73.5t-20.5 87.5q0 50 28 90t77 63.5t110 23.5q82 0 129.5 -38t47.5 -92q0 -29 -17.5 -45.5t-48.5 -16.5q-22 0 -36 6q4 26 4 43q-1 47 -22.5 73t-59.5 26t-63 -26t-25 -67 t20 -79t57 -80l206 -236q14 41 14 89q0 52 -9.5 84.5t-24.5 51.5q10 10 25 16.5t31 6.5q36 0 55.5 -29.5t19.5 -78.5q0 -105 -64 -190q41 -38 80.5 -48t86.5 -5l4 -12q-20 -25 -51.5 -43.5t-76.5 -18.5q-36 0 -67.5 12.5t-61.5 35.5q-36 -22 -80 -34.5t-95 -12.5zM196 196 q0 -72 43 -117t117 -45q66 0 115 33q-15 14 -30.5 30.5t-32.5 34.5l-161 185q-23 -21 -37 -53.5t-14 -67.5z" />
<glyph unicode="'" horiz-adv-x="227" d="M49 763l4 5q52 5 113 5l11 -14l-50 -302h-35l-16 142z" />
<glyph unicode="(" horiz-adv-x="390" d="M360 -179l-13 -17q-123 71 -190.5 191.5t-67.5 285.5t67.5 285.5t190.5 191.5l13 -17q-68 -79 -104 -195.5t-36 -264.5t36 -264.5t104 -195.5z" />
<glyph unicode=")" horiz-adv-x="390" d="M29 741l14 17q123 -71 190 -191.5t67 -285.5t-67 -285.5t-190 -191.5l-14 17q68 79 104 195.5t36 264.5t-36 264.5t-104 195.5z" />
<glyph unicode="*" horiz-adv-x="429" d="M242 506q0 -26 -28 -26q-27 0 -27 26q0 18 6 41.5t10 51.5q-23 -18 -40 -34.5t-32 -25.5q-23 -13 -37 10t9 37q15 9 38.5 15.5t49.5 17.5q-26 11 -49.5 17t-38.5 15q-23 14 -9 38q14 23 37 10q15 -9 32 -26t40 -34q-4 28 -10 51.5t-6 40.5q0 27 27 27q28 0 28 -27 q0 -17 -6.5 -40.5t-9.5 -51.5q22 17 39.5 34t32.5 26q23 13 37 -10q13 -24 -10 -38q-15 -9 -38.5 -15t-48.5 -17q25 -11 48.5 -17.5t38.5 -15.5q23 -14 10 -37q-14 -23 -37 -10q-15 9 -32.5 25.5t-39.5 34.5q3 -28 9.5 -51.5t6.5 -41.5z" />
<glyph unicode="+" d="M510 310h-177v-176h-69v176h-186v66q32 1 81.5 1.5t104.5 1.5l-1 175h70v-174q52 0 99 0.5t78 0.5l8 -8z" />
<glyph unicode="," horiz-adv-x="267" d="M55 -170q21 27 41 70t28 90q-32 2 -52 22.5t-20 50.5q0 34 26 59.5t63 25.5q35 0 55.5 -22.5t20.5 -59.5q0 -47 -22 -95.5t-55.5 -88.5t-70.5 -64z" />
<glyph unicode="-" horiz-adv-x="393" d="M33 251v44h327v-44h-327z" />
<glyph unicode="." horiz-adv-x="258" d="M126 -10q-33 0 -54.5 21t-22.5 50q0 35 25.5 61t60.5 26q31 0 51.5 -19.5t21.5 -51.5q1 -35 -22 -61t-60 -26z" />
<glyph unicode="/" horiz-adv-x="396" d="M139 -10l-62 14l-8 8l188 746l61 -14l8 -8z" />
<glyph unicode="0" horiz-adv-x="606" d="M41 341q0 105 32.5 185.5t92 126t141.5 45.5q80 0 137.5 -45t88.5 -125t31 -185q1 -101 -31 -181t-91.5 -126t-141.5 -46t-139.5 44.5t-88 123.5t-31.5 183zM171 341q1 -157 30.5 -230.5t100.5 -73.5q72 0 102.5 77.5t29.5 228.5q0 154 -30 231t-100 77q-69 0 -101 -78.5 t-32 -231.5z" />
<glyph unicode="1" horiz-adv-x="364" d="M246 47l89 -29l-2 -18h-305l-2 18l43 12q28 9 40 19.5t12 32.5v527l-93 14l-2 18l212 57l8 -9v-642z" />
<glyph unicode="2" horiz-adv-x="519" d="M48 0l-11 70q85 70 151.5 136t104.5 131t38 133q0 60 -33.5 94t-92.5 34q-45 0 -84 -23t-68 -58l-18 11q30 79 93 124.5t138 45.5q60 0 103.5 -24t67.5 -66.5t24 -97.5q0 -62 -30 -117.5t-78.5 -106t-107 -98t-116.5 -94.5h247q36 0 52.5 17t31.5 61l18 -1 q-1 -36 -7.5 -85t-17.5 -86h-405z" />
<glyph unicode="3" horiz-adv-x="501" d="M104 304l-5 41q97 15 155.5 53.5t58.5 104.5q0 42 -28.5 68.5t-79.5 26.5q-45 0 -85 -24.5t-70 -60.5l-16 11q19 54 54.5 93t81 60t95.5 21q54 0 94 -19.5t62 -53.5t22 -77q0 -56 -30 -94.5t-75 -61.5t-91 -34q58 -4 106.5 -25.5t77.5 -60t29 -94.5q0 -59 -37 -101 t-97 -64.5t-128 -22.5q-55 0 -99.5 12.5t-71 36t-26.5 56.5q0 29 26.5 48.5t62.5 23.5l8 -7l-2 -8t-1 -10q4 -50 31 -80t83 -30t92 33.5t37 91.5q0 49 -26 82.5t-67 50t-86 16.5q-13 0 -27 -0.5t-28 -1.5z" />
<glyph unicode="4" horiz-adv-x="568" d="M9 210l344 482l84 -8v-457h106l-8 -70h-98v-157h-126v157h-291zM86 227h225v338z" />
<glyph unicode="5" horiz-adv-x="512" d="M70 351l6 337h381q1 -42 -5 -89.5t-16 -91.5l-21 1q-3 49 -12.5 64.5t-44.5 15.5h-215l-4 -199q10 0 21.5 0.5t25.5 0.5q88 0 153.5 -23.5t102.5 -68t37 -109.5q0 -59 -32.5 -104t-90 -70t-133.5 -25q-89 0 -143.5 29t-54.5 76q0 28 25.5 48t63.5 24l8 -7q-1 -4 -2 -8.5 t-1 -10.5q9 -109 116 -109q56 0 88.5 36t32.5 96q0 82 -73 128.5t-202 46.5z" />
<glyph unicode="6" horiz-adv-x="566" d="M532 204q0 -64 -31.5 -112t-86.5 -75t-126 -27q-74 0 -129.5 34t-86.5 96.5t-31 146.5q0 91 33.5 166.5t93.5 132.5t143 91t182 41l6 -28q-123 -40 -208 -120.5t-111 -201.5q32 21 69 34t78 13q93 0 149 -52t56 -139zM170 249q0 -59 15 -108t43 -78t68 -29 q48 0 79.5 39.5t31.5 104.5q0 69 -38 114.5t-103 45.5q-24 0 -48.5 -8t-43.5 -23q-4 -29 -4 -58z" />
<glyph unicode="7" horiz-adv-x="492" d="M473 688l10 -71q-71 -81 -118.5 -182t-74.5 -212t-35 -223h-128q6 80 33 162t66 160t85 146t90 120h-283q-33 0 -46 -15.5t-24 -62.5l-19 1q-1 23 0.5 55t5 64.5t8.5 57.5h430z" />
<glyph unicode="8" horiz-adv-x="555" d="M521 176q0 -50 -30 -92.5t-85.5 -68t-131.5 -25.5q-70 0 -124 20.5t-85.5 57t-31.5 85.5q0 45 23.5 80t61.5 59.5t83 39.5q-35 21 -64.5 47t-47.5 60t-18 79q0 50 27.5 91t78 65t117.5 24q58 0 102.5 -20t70 -55t25.5 -80q0 -60 -37.5 -103t-90.5 -69q40 -23 76 -49 t58.5 -61t22.5 -85zM187 553q0 -40 20.5 -69t53.5 -51.5t70 -43.5q26 29 43 70t17 84q0 49 -26 80.5t-75 31.5q-45 0 -74 -28.5t-29 -73.5zM153 160q0 -58 35 -92.5t90 -34.5q50 0 85.5 30.5t35.5 80.5q0 40 -24.5 69t-62.5 52.5t-79 47.5q-36 -30 -58 -68.5t-22 -84.5z" />
<glyph unicode="9" horiz-adv-x="566" d="M525 417q0 -120 -57 -213t-159 -148.5t-236 -65.5l-6 29q120 38 205.5 115.5t112.5 198.5q-30 -20 -67 -33t-78 -13q-93 0 -150 52.5t-57 140.5q0 65 32 114t87.5 76.5t126.5 27.5q75 0 130 -35.5t85.5 -99t30.5 -146.5zM159 500q0 -68 38.5 -112t103.5 -44q23 0 47.5 8 t43.5 23q4 30 4 62q0 59 -13.5 108.5t-40 79t-65.5 29.5q-52 0 -85 -42.5t-33 -111.5z" />
<glyph unicode=":" horiz-adv-x="258" d="M126 311q-33 0 -54.5 21t-22.5 50q0 35 25.5 61t60.5 26q31 0 51.5 -19.5t21.5 -51.5q1 -36 -22 -61.5t-60 -25.5zM126 -10q-33 0 -54.5 21t-22.5 50q0 35 25.5 61t60.5 26q31 0 51.5 -19.5t21.5 -51.5q1 -35 -22 -61t-60 -26z" />
<glyph unicode=";" horiz-adv-x="267" d="M131 311q-34 0 -55 21t-22 50q-1 35 24.5 61t61.5 26q31 0 51.5 -19.5t21.5 -51.5q1 -36 -22 -61.5t-60 -25.5zM55 -170q21 27 41 70t28 90q-32 2 -52 22.5t-20 50.5q0 34 26 59.5t63 25.5q35 0 55.5 -22.5t20.5 -59.5q0 -47 -22 -95.5t-55.5 -88.5t-70.5 -64z" />
<glyph unicode="&#x3c;" d="M506 102l-435 222l2 40l2 7q28 15 71 37t93 46.5l100 49t93.5 44.5t72.5 33v-76l-320 -158l321 -169v-76z" />
<glyph unicode="=" d="M510 409h-432v66q37 1 94 2t121 1.5t121.5 1t95.5 0.5l8 -8zM510 212h-432v65q37 2 94 2.5t121 1.5t121.5 1h95.5l8 -8z" />
<glyph unicode="&#x3e;" d="M90 102v76l321 169l-320 158v76q29 -13 72.5 -33t94 -44.5t100 -49t92.5 -46.5t71 -37l3 -7l1 -40z" />
<glyph unicode="?" horiz-adv-x="448" d="M236 225l-8 -8q-32 -2 -51.5 15.5t-19.5 44.5q0 28 15.5 48.5t39 39.5t46.5 42t38.5 55t15.5 78q0 49 -23.5 82t-68.5 33q-46 0 -72.5 -32t-26.5 -82q0 -27 8 -58q-22 -12 -52 -12q-29 0 -48.5 19t-19.5 53q0 43 30.5 78.5t80.5 56t110 20.5q58 0 105.5 -20t75.5 -58.5 t28 -93.5q0 -40 -17.5 -73t-43.5 -59.5t-53.5 -46t-49.5 -32.5t-31 -20q-8 -6 -8 -25v-45zM275 67q0 -32 -20.5 -54.5t-53.5 -22.5q-27 0 -44.5 18.5t-17.5 45.5q0 30 22 53t54 23q26 0 43 -17.5t17 -45.5z" />
<glyph unicode="@" horiz-adv-x="1095" d="M797 54q32 0 66.5 21t64.5 60.5t49 95t19 124.5q0 78 -27.5 143.5t-77 113.5t-117 74.5t-148.5 26.5q-73 0 -148 -24.5t-142.5 -71t-121 -112t-84 -148t-30.5 -178.5q0 -83 28 -154.5t79.5 -125t121 -83t153.5 -29.5q67 0 117.5 12.5t90.5 31t75 38.5l18 -29 q-54 -43 -130 -70.5t-174 -27.5q-94 0 -172.5 32.5t-136 91t-89.5 136.5t-32 169q0 106 33.5 196.5t91.5 162.5t132.5 123t158 78t166.5 27q93 0 169 -30.5t131 -85.5t85 -129t30 -161q0 -73 -23 -138.5t-64.5 -115.5t-96.5 -79t-119 -29q-56 0 -90 24.5t-47 66t-6 91.5 q1 2 2.5 12t3 20.5t1.5 12.5h-3q-23 -56 -55 -108t-70 -85.5t-79 -33.5q-46 0 -74.5 39t-28.5 108q0 70 23 136.5t66 119.5t102 84t131 31q49 0 95.5 -10t80.5 -27l-20 -64l-40 -183q-16 -74 -3 -122t65 -48zM427 156q0 -30 8 -50t26 -20q17 0 38 21.5t42.5 56.5t41 75.5 t34.5 79t22 67.5l16 62q-22 16 -52 16q-33 0 -64.5 -28.5t-56.5 -74.5t-40 -99.5t-15 -105.5z" />
<glyph unicode="A" horiz-adv-x="714" d="M317 688h80l214 -604q7 -21 17.5 -30t27.5 -16l41 -15l-2 -23h-288l-2 23l79 25l-58 172l-228 -3l-57 -168l79 -26l-2 -23h-199l-2 23q10 4 28 10t24 10q24 12 34 41zM213 261l200 -1l-100 296z" />
<glyph unicode="B" horiz-adv-x="663" d="M317 643h-63v-271h67q62 0 96.5 37.5t34.5 102.5q0 63 -35.5 97t-99.5 34zM322 330h-68v-285h76q73 0 116.5 38.5t43.5 105.5q0 64 -45.5 102.5t-122.5 38.5zM46 665l2 23h287q114 0 178 -45t64 -125q0 -62 -35 -101.5t-93 -55.5q84 -19 128.5 -62.5t44.5 -108.5 q0 -62 -33.5 -104t-93 -64t-138.5 -22h-309l-2 23l41 14q21 9 29.5 18t8.5 29v542q0 9 -10 11z" />
<glyph unicode="C" horiz-adv-x="670" d="M412 -10q-106 0 -188 40.5t-128.5 118t-46.5 189.5q0 83 27.5 150t76.5 113.5t114 71.5t139 25q108 0 186 -31q7 -29 7 -74q0 -24 -3 -57.5t-9 -62.5l-24 -2q-21 47 -41.5 90t-41.5 79q-15 4 -26.5 5.5t-33.5 1.5q-66 0 -120.5 -38.5t-86 -108t-31.5 -162.5 q1 -90 31.5 -157t84.5 -104t125 -37q25 0 38.5 2t26.5 5q25 36 48 78.5t44 85.5h24q4 -19 6 -43t2 -47q0 -28 -2 -55t-6 -51q-41 -11 -89 -18t-103 -7z" />
<glyph unicode="D" horiz-adv-x="724" d="M321 642h-67v-596h67q106 0 163 77t57 221q1 144 -56.5 221t-163.5 77zM674 344q0 -110 -43.5 -187t-122 -117t-182.5 -40h-278l-2 23l41 14q21 9 29.5 18t8.5 29v542q0 9 -10 11l-69 28l2 23h278q105 0 183.5 -40.5t121.5 -117t43 -186.5z" />
<glyph unicode="E" horiz-adv-x="603" d="M254 363l197 8l-3 -58l-194 8v-276h112q21 0 43.5 1t39.5 4q5 6 12 21t14 31.5t12 27.5l32 81h24q10 -50 10 -111q0 -31 -2 -54.5t-6 -45.5h-497l-2 23l41 14q21 9 29.5 18t8.5 29v542q0 9 -10 11l-69 28l2 23h487q4 -22 6 -45.5t2 -54.5q0 -32 -2.5 -58.5t-7.5 -52.5 h-24l-32 81q-5 11 -12 27.5t-14 31.5t-12 21q-38 5 -83 5h-102v-280z" />
<glyph unicode="F" horiz-adv-x="563" d="M254 53l99 -30l-2 -23h-303l-2 23l41 14q21 9 29.5 18t8.5 29v542q0 9 -10 11l-69 28l2 23h481q4 -22 6 -45.5t2 -54.5q0 -32 -2.5 -58.5t-7.5 -52.5h-24l-32 81q-5 11 -12 27.5t-14 31.5t-12 21q-38 5 -83 5h-96v-298l197 8l-3 -58l-194 8v-250z" />
<glyph unicode="G" horiz-adv-x="721" d="M405 -10q-102 0 -182.5 40t-127 117.5t-46.5 190.5q0 85 29 152t79.5 113t117 70.5t142.5 24.5q112 0 191 -31q7 -29 7 -74q0 -24 -3 -57.5t-9 -62.5l-24 -2q-13 23 -27.5 57t-29.5 65t-26 47q-16 5 -32 6.5t-40 1.5q-64 0 -119 -37.5t-89 -106.5t-34 -163t32 -161.5 t86.5 -103.5t121.5 -36q41 0 75 10v217l-79 30l2 23h264l2 -23l-41 -14q-15 -6 -20.5 -16t-5.5 -31v-215q-48 -15 -95 -23t-119 -8z" />
<glyph unicode="H" horiz-adv-x="798" d="M254 53l79 -30l-2 -23h-283l-2 23l41 14q21 9 29.5 18t8.5 29v551l-79 30l2 23h283l2 -23l-41 -14q-20 -9 -29 -18t-9 -29v-232h290v263l-79 30l2 23h282l2 -23l-41 -14q-20 -9 -28.5 -18t-8.5 -29v-551l78 -30l-2 -23h-282l-2 23l41 14q20 9 29 18t9 29v240h-290v-271z " />
<glyph unicode="I" horiz-adv-x="380" d="M254 53l79 -30l-2 -23h-283l-2 23l41 14q21 9 29.5 18t8.5 29v551l-79 30l2 23h283l2 -23l-41 -14q-20 -9 -29 -18t-9 -29v-551z" />
<glyph unicode="J" horiz-adv-x="364" d="M126 635l-79 30l2 23h283l2 -23l-41 -14q-21 -9 -29.5 -18t-8.5 -29v-526q0 -66 -28 -115t-72 -82.5t-93 -50.5l-16 19q39 51 59.5 111.5t20.5 153.5v521z" />
<glyph unicode="K" horiz-adv-x="724" d="M254 53l79 -30l-2 -23h-283l-2 23l41 14q21 9 29.5 18t8.5 29v551l-79 30l2 23h283l2 -23l-41 -14q-20 -9 -29 -18t-9 -29v-249l85 1v0l195 283l-85 26l2 23h233l2 -23l-33 -11t-30 -12q-14 -7 -26 -17.5t-25 -27.5l-153 -193l7 4l127 -217q33 -56 56.5 -94.5t64.5 -61.5 l29 -15l-2 -20l-129 -3q-40 0 -60 16.5t-38 48.5l-136 247h-84v-256z" />
<glyph unicode="L" horiz-adv-x="591" d="M125 635l-79 30l2 23h283l2 -23l-41 -14q-20 -9 -29 -18t-9 -29v-559h109q21 0 44.5 2t40.5 5q10 16 20 37t20 49l27 69h24q11 -50 11 -111q0 -30 -2.5 -52.5t-5.5 -43.5h-494l-2 23l41 14q21 9 29.5 18t8.5 29v551z" />
<glyph unicode="M" horiz-adv-x="1003" d="M168 53l81 -30l-2 -23h-204l-2 23l41 14q21 9 28.5 18t9.5 29l61 551l-80 30l2 23h212l192 -514l189 514h204l2 -23l-80 -30l63 -573q1 -5 14 -13t20 -9l45 -17l-2 -23h-284l-2 23l35 13q15 7 30.5 16t13.5 22l-54 482l-157 -420l-48 -136h-65l-45 136l-162 427z" />
<glyph unicode="N" horiz-adv-x="743" d="M176 53l98 -30l-2 -23h-224l-2 23l41 14q21 9 29.5 18t8.5 29v542q0 5 -13 13t-20 10l-46 16l2 23h188l348 -526v473l-79 30l2 23h204l2 -23l-41 -14q-21 -9 -29.5 -18t-8.5 -29v-604h-87l-371 549v-496z" />
<glyph unicode="O" horiz-adv-x="716" d="M49 344q0 112 42.5 191t113 121t157.5 42q88 0 156.5 -41t108.5 -118.5t40 -189.5t-40.5 -192.5t-110 -123.5t-159.5 -43q-91 0 -160.5 42t-108.5 121.5t-39 190.5zM182 344q0 -94 21.5 -163t61.5 -106.5t95 -37.5t94 39.5t59 110t21 162.5q0 92 -20.5 160t-59 105 t-92.5 37q-55 0 -95.5 -37.5t-62 -106.5t-22.5 -163z" />
<glyph unicode="P" horiz-adv-x="628" d="M325 641h-71v-330h69q69 0 107.5 43t38.5 120t-38 122t-106 45zM254 53l99 -30l-2 -23h-303l-2 23l41 14q21 9 29.5 18t8.5 29v542q0 9 -10 11l-69 28l2 23h290q74 0 134 -25t95 -72.5t35 -116.5q0 -68 -35.5 -115t-96 -71t-134.5 -24h-82v-211z" />
<glyph unicode="Q" horiz-adv-x="716" d="M49 344q0 112 42.5 191t113 121t157.5 42q88 0 156.5 -41t108.5 -118.5t40 -189.5q0 -102 -34.5 -178.5t-94.5 -122t-138 -55.5q42 -18 93 -33t103.5 -24.5t99.5 -9.5q19 0 39 4l7 -4q5 -7 8.5 -16.5t3.5 -21.5q0 -35 -22.5 -52.5t-57.5 -17.5t-79 14t-92.5 38.5t-95 56 t-86.5 65.5q-81 8 -142 52t-95.5 120t-34.5 180zM182 344q0 -94 21.5 -163t61.5 -106.5t95 -37.5t94 39.5t59 110t21 162.5q0 92 -20.5 160t-59 105t-92.5 37q-55 0 -95.5 -37.5t-62 -106.5t-22.5 -163z" />
<glyph unicode="R" horiz-adv-x="708" d="M319 641h-65v-307h65q68 0 106 41t38 115q0 70 -38 110.5t-106 40.5zM254 53l79 -30l-2 -23h-283l-2 23l41 14q21 9 29.5 18t8.5 29v542q0 9 -10 11l-69 28l2 23h290q78 0 136 -23.5t90.5 -66.5t32.5 -102q0 -46 -18 -81t-47.5 -59.5t-62.5 -38.5l70 -126 q33 -57 58 -94.5t66 -61.5l27 -15l-2 -20l-127 -3q-39 0 -59.5 16t-38.5 49l-118 227q-11 -1 -13 -1h-78v-235z" />
<glyph unicode="S" horiz-adv-x="531" d="M234 -10q-41 0 -78.5 4.5t-64 12.5t-35.5 18q-15 18 -15 65q0 28 7 61t20 57l25 -2q9 -51 20 -83t29 -52q20 -22 49 -29.5t58 -7.5q55 0 84 30t29 74q0 42 -22.5 72.5t-58 55t-75 47.5t-75 50t-58 63t-22.5 86q0 61 34 102.5t90 62.5t124 21q59 0 106.5 -12t59.5 -25 q8 -7 9.5 -21.5t1.5 -27.5q0 -25 -6 -63.5t-20 -67.5l-25 1q-8 52 -19.5 82.5t-22.5 46.5q-13 18 -36 30.5t-55 12.5q-52 0 -83 -30.5t-31 -78.5q0 -41 22.5 -71t58 -54t75 -47t75 -50.5t58 -64.5t22.5 -90q0 -89 -69 -133.5t-186 -44.5z" />
<glyph unicode="T" horiz-adv-x="635" d="M382 53l79 -30l-2 -23h-283l-2 23l41 14q21 9 29.5 18t8.5 29v558h-39q-22 0 -45 -1.5t-40 -4.5q-9 -16 -19 -38t-20 -51l-28 -70h-25q-5 26 -7.5 52.5t-2.5 58.5q0 31 2.5 54.5t5.5 45.5h565q3 -22 5.5 -45.5t2.5 -54.5q0 -32 -2.5 -58.5t-7.5 -52.5h-25l-28 70 q-10 29 -20 51t-19 38q-17 3 -40 4.5t-45 1.5h-39v-589z" />
<glyph unicode="U" horiz-adv-x="672" d="M88 235v400l-79 30l2 23h283l2 -23l-41 -14q-20 -9 -29 -18t-9 -29v-372q0 -95 44 -143.5t113 -48.5t113.5 47.5t44.5 144.5v403l-79 30l2 23h204l2 -23l-79 -30v-400q0 -122 -63.5 -183.5t-177.5 -61.5t-183.5 61.5t-69.5 183.5z" />
<glyph unicode="V" horiz-adv-x="714" d="M397 0h-80l-214 604q-7 21 -17 30t-28 16l-41 15l2 23h288l2 -23l-79 -24l171 -509l172 508l-79 25l2 23h199l2 -23q-9 -5 -27.5 -10t-24.5 -9q-23 -10 -34 -42z" />
<glyph unicode="W" horiz-adv-x="1063" d="M383 0h-80l-200 604q-7 21 -17 30t-28 16l-41 15l2 23h288l2 -23l-79 -24l157 -507l121 385l-28 85q-7 21 -14 30t-24 16l-42 15l2 23h283l2 -23l-80 -24l157 -505l159 504l-80 25l2 23h198l2 -23q-8 -5 -26.5 -10t-24.5 -9q-24 -11 -34 -42l-200 -604h-81l-147 448z" />
<glyph unicode="X" horiz-adv-x="712" d="M133 91l164 234l-185 279q-11 16 -18 25t-18 15q-5 5 -20 11t-26 10l2 23h284l2 -23l-79 -24l154 -234l147 232l-79 26l2 23h220l2 -23q-13 -4 -31.5 -11t-27.5 -12q-25 -13 -48 -45l-161 -227l188 -286q11 -16 19 -25.5t20 -15.5q5 -5 20 -10.5t23 -9.5l-2 -23h-281 l-2 23l79 25l-159 239l-152 -238l79 -26l-2 -23h-220l-2 23q13 5 31.5 11.5t28.5 11.5q25 13 48 45z" />
<glyph unicode="Y" horiz-adv-x="689" d="M409 53l79 -30l-2 -23h-283l-2 23l41 14q21 9 29.5 18t8.5 29v203l-175 317q-13 24 -24.5 33.5t-28.5 16.5l-35 11l2 23h291l2 -23l-80 -25l157 -309l157 310l-78 24l2 23h200l2 -23q-10 -5 -28 -11t-23 -11q-13 -5 -21 -14t-16 -25l-175 -318v-233z" />
<glyph unicode="Z" horiz-adv-x="635" d="M563 0h-498l-8 42l369 601h-167q-21 0 -43 -1t-40 -4l-76 -161h-24q-5 25 -7.5 53t-2.5 54q0 30 2 55.5t6 48.5h489l8 -42l-368 -601h175q21 0 43.5 1t39.5 4l76 161h24q10 -48 10 -105q0 -28 -2 -55.5t-6 -50.5z" />
<glyph unicode="[" horiz-adv-x="412" d="M362 -196h-233v956h233v-29h-113v-898h113v-29z" />
<glyph unicode="\" horiz-adv-x="396" d="M256 -10l-187 746l8 8l62 14l187 -746l-8 -8z" />
<glyph unicode="]" horiz-adv-x="412" d="M49 758h233v-956h-233v29h113v898h-113v29z" />
<glyph unicode="^" horiz-adv-x="526" d="M159 210h-75l147 338h62l149 -338h-75l-107 244z" />
<glyph unicode="_" horiz-adv-x="556" d="M33 -148v56h489v-56h-489z" />
<glyph unicode="`" horiz-adv-x="376" d="M296 584l-11 -15q-55 21 -102 47t-75.5 53t-28.5 50q0 24 21 34t50 10h11t11 -1l8 -5q17 -33 49 -81t67 -92z" />
<glyph unicode="a" horiz-adv-x="544" d="M288 508q79 0 122.5 -40.5t43.5 -118.5q0 -16 -0.5 -45.5t-1.5 -63.5t-1.5 -65t-0.5 -51q0 -32 9.5 -49t37.5 -17q17 0 39 5l4 -12q-20 -30 -51 -45.5t-65 -15.5q-37 0 -62.5 18.5t-32.5 48.5q-25 -29 -64 -48t-85 -19q-58 0 -94.5 30.5t-36.5 83.5q0 50 35 86.5t98 57 t146 21.5q0 45 0.5 78.5t0.5 37.5q0 80 -69 80q-36 0 -58 -23.5t-22 -60.5q0 -9 1 -20t4 -23q-15 -8 -29.5 -11t-27.5 -3q-27 0 -44 11.5t-17 34.5t18.5 47.5t50 45t71 33t81.5 12.5zM176 126q0 -34 18 -51t49 -17q25 0 47.5 11t36.5 26q0 24 0.5 62.5t0.5 79.5 q-70 -5 -111 -33.5t-41 -77.5z" />
<glyph unicode="b" horiz-adv-x="582" d="M96 -10l-9 7v679l-64 23l-2 14q37 16 88.5 28.5t94.5 16.5l8 -9v-305q25 28 61.5 46t78.5 18q58 0 100.5 -31t65 -87.5t22.5 -131.5q0 -82 -29 -142.5t-83 -93t-127 -32.5q-63 0 -116 24zM282 33q64 0 96.5 55t32.5 152q0 91 -29 142.5t-84 51.5q-25 0 -45.5 -9 t-40.5 -27v-345q16 -10 33.5 -15t36.5 -5z" />
<glyph unicode="c" horiz-adv-x="478" d="M461 103q-25 -46 -72 -79.5t-121 -33.5q-69 0 -120 30.5t-79 85.5t-28 130q0 80 31 141t85.5 96t125.5 35q50 0 88 -17t59.5 -46t21.5 -64q0 -29 -18 -46t-47 -17q-14 0 -24.5 2.5t-23.5 8.5q2 8 2 14q0 122 -68 122q-46 0 -74 -51t-28 -133q0 -101 39.5 -154t117.5 -53 q36 0 65.5 11t53.5 30z" />
<glyph unicode="d" horiz-adv-x="588" d="M584 51q-18 -27 -48 -44t-68 -17t-61.5 18t-33.5 50q-21 -28 -57.5 -48t-83.5 -20q-56 0 -99 29.5t-67.5 84.5t-24.5 131q0 86 33.5 147t91.5 93.5t131 32.5q38 0 71 -8v176l-84 23l-2 14q41 17 98 29t105 16l8 -9v-620q0 -36 11 -53.5t38 -17.5q12 0 21 1.5t17 3.5z M171 256q0 -94 31.5 -146t84.5 -52q24 0 45.5 11t35.5 25v351q-27 20 -63 20q-61 0 -97.5 -53.5t-36.5 -155.5z" />
<glyph unicode="e" horiz-adv-x="500" d="M464 103q-25 -48 -73 -80.5t-121 -32.5q-69 0 -120.5 30.5t-80 86t-28.5 131.5q0 81 31 141.5t84 94.5t119 34q55 0 98 -23.5t67.5 -66.5t24.5 -102q0 -30 -1 -49l-13 -13h-279q10 -180 152 -180q36 0 68.5 11t57.5 30zM269 465q-31 0 -53 -23.5t-33.5 -63.5t-11.5 -89 l167 7q1 17 1 38q0 69 -17.5 100t-52.5 31z" />
<glyph unicode="f" horiz-adv-x="360" d="M226 47l89 -29l-2 -18h-279l-2 18l37 15q18 8 25 18.5t7 30.5v360h-67l-2 18l69 27v22q0 71 32 127t85 89t117 33q43 0 76 -15.5t52.5 -40t19.5 -52.5q0 -27 -18 -41.5t-43 -14.5q-20 0 -41 8q-3 56 -17.5 84.5t-46.5 28.5q-42 0 -66.5 -41.5t-24.5 -117.5v-72h125v-42 h-125v-395z" />
<glyph unicode="g" horiz-adv-x="512" d="M49 318q0 54 27 97t74 68t107 25q68 0 117 -34q20 36 47 57t50 21q32 0 32 -43q0 -22 -5 -39q-3 -14 -23 -14q-16 -1 -37 -1t-39 -2q21 -23 33 -53.5t12 -66.5q0 -55 -25 -97t-70.5 -66t-105.5 -24q-24 0 -46 4q-11 -18 -11 -36q0 -21 13 -29t42 -10l92 -7 q77 -6 120.5 -41.5t43.5 -98.5q0 -53 -33 -95.5t-93 -66.5t-141 -24q-60 0 -105.5 14.5t-72 40.5t-26.5 61t28.5 60t68.5 34l9 -9q-9 -15 -9 -30q2 -59 45.5 -93.5t109.5 -34.5q60 0 96.5 26.5t36.5 66.5q0 33 -23.5 52t-66.5 24l-113 13q-58 7 -83.5 31t-25.5 60 q0 29 16 55.5t48 45.5q-52 19 -83 61t-31 98zM318 324q0 75 -17 109.5t-52 34.5t-54.5 -34.5t-19.5 -103.5q0 -143 73 -144q35 0 52.5 33.5t17.5 104.5z" />
<glyph unicode="h" horiz-adv-x="615" d="M218 47l69 -29l-2 -18h-259l-2 18l37 15q18 8 25 18.5t7 30.5v594l-64 23l-2 14q37 16 88.5 28.5t94.5 16.5l8 -9v-307q40 34 81 50t82 16q67 0 103.5 -39t36.5 -112v-310l69 -29l-2 -18h-259l-2 18l38 15q17 8 24 18.5t7 30.5v261q0 91 -78 91q-48 0 -100 -34v-353z" />
<glyph unicode="i" horiz-adv-x="320" d="M229 673q0 -35 -22.5 -59.5t-57.5 -24.5q-30 0 -49.5 20t-19.5 49q0 33 24.5 57.5t59.5 24.5q28 0 46.5 -18.5t18.5 -48.5zM226 47l69 -29l-2 -18h-259l-2 18l37 15q18 8 25 18.5t7 30.5v344l-64 23l-2 14q37 16 88.5 28.5t94.5 16.5l8 -9v-452z" />
<glyph unicode="j" horiz-adv-x="302" d="M220 670q0 -35 -22.5 -59.5t-57.5 -24.5q-30 0 -49 20t-19 49q0 33 24.5 57.5t58.5 24.5q28 0 46.5 -18.5t18.5 -48.5zM14 -240q39 51 59.5 111.5t20.5 154.5v400l-64 23l-2 14q36 16 88 28.5t94 16.5l9 -9v-509q0 -66 -27.5 -115t-70.5 -82.5t-92 -50.5z" />
<glyph unicode="k" horiz-adv-x="593" d="M218 47l69 -29l-2 -18h-259l-2 18l37 15q18 8 25 18.5t7 30.5v594l-64 23l-2 14q37 17 88.5 29.5t94.5 15.5l8 -8v-470h70l124 171l-81 29l2 18h222l2 -18q-12 -5 -30.5 -12.5t-28.5 -13.5q-15 -8 -27 -18t-27 -27l-75 -83l3 3l128 -235q12 -22 24 -36.5t29 -22.5l31 -15 l-2 -20h-112q-37 0 -55.5 15t-34.5 47l-92 176h-70v-191z" />
<glyph unicode="l" horiz-adv-x="312" d="M218 47l69 -29l-2 -18h-259l-2 18l37 15q18 8 25 18.5t7 30.5v594l-64 23l-2 14q37 17 88.5 29.5t94.5 15.5l8 -8v-703z" />
<glyph unicode="m" horiz-adv-x="918" d="M226 47l69 -29l-2 -18h-259l-2 18l37 15q18 8 25 18.5t7 30.5v344l-64 23l-2 14q37 16 88.5 28.5t94.5 16.5l8 -9v-57q78 66 161 66q94 0 125 -75q80 75 170 75q68 0 105.5 -39t37.5 -112v-310l69 -29l-2 -18h-259l-2 18l37 15q17 8 24.5 18.5t7.5 30.5v261q0 91 -79 91 q-26 0 -50.5 -8.5t-48.5 -24.5q3 -20 3 -44v-310l69 -29l-2 -18h-258l-2 18l37 15q17 8 24 18.5t7 30.5v261q0 91 -76 91q-25 0 -49.5 -8.5t-48.5 -24.5v-354z" />
<glyph unicode="n" horiz-adv-x="623" d="M226 47l69 -29l-2 -18h-259l-2 18l37 15q18 8 25 18.5t7 30.5v344l-64 23l-2 14q37 16 88.5 28.5t94.5 16.5l8 -9v-57q78 66 163 66q67 0 103.5 -39t36.5 -112v-310l69 -29l-2 -18h-259l-2 18l38 15q17 8 24 18.5t7 30.5v261q0 91 -78 91q-25 0 -50 -8.5t-50 -24.5v-354z " />
<glyph unicode="o" horiz-adv-x="538" d="M497 250q0 -80 -30 -138t-82.5 -90t-119.5 -32q-66 0 -116.5 31.5t-79 90t-28.5 138.5t31.5 138t84 89t118.5 31q64 0 114.5 -31t79 -88.5t28.5 -138.5zM171 250q0 -112 23.5 -164.5t72.5 -52.5q50 0 75 50t25 165q0 111 -23.5 164t-70.5 53q-49 0 -75.5 -51t-26.5 -164z " />
<glyph unicode="p" horiz-adv-x="588" d="M292 33q57 0 91 55t34 149q0 93 -28 145t-85 52q-25 0 -45.5 -9t-40.5 -27v-344q30 -21 74 -21zM218 -201l89 -29l-2 -18h-279l-2 18l37 15q18 8 25 18.5t7 30.5v592l-64 23l-2 14q37 16 88.5 28.5t94.5 16.5l8 -9v-55q25 27 61.5 45.5t78.5 18.5q59 0 101 -31t65 -87 t23 -131q0 -83 -31.5 -143.5t-88.5 -93t-135 -32.5q-37 0 -74 6v-197z" />
<glyph unicode="q" horiz-adv-x="579" d="M493 -201l69 -29l-2 -18h-259l-2 18l38 15q17 8 24 18.5t7 30.5v218q-22 -26 -57.5 -44t-78.5 -18q-83 0 -137 63.5t-54 180.5q0 89 34 150t89.5 92.5t122.5 31.5q33 0 60 -6.5t49 -17.5l89 24l8 -7v-702zM305 465q-61 0 -97.5 -54t-36.5 -156q0 -95 31.5 -146t81.5 -51 q27 0 48.5 10.5t35.5 25.5v351q-28 20 -63 20z" />
<glyph unicode="r" horiz-adv-x="431" d="M226 47l89 -29l-2 -18h-279l-2 18l37 15q18 8 25 18.5t7 30.5v344l-64 23l-2 14q37 16 88.5 28.5t94.5 16.5l8 -9v-76q31 41 63 63t64 22q30 0 49 -17t19 -46q0 -27 -13 -46.5t-23 -30.5q-1 0 -7.5 -0.5l-6.5 -0.5q-19 17 -41 29t-52 16q-11 0 -26.5 -10t-25.5 -21v-334z " />
<glyph unicode="s" horiz-adv-x="452" d="M198 -10q-46 0 -88 8t-54 20q-15 16 -15 58q0 25 7 49t20 43l15 -2q7 -39 18 -62.5t25 -39.5q13 -14 33 -22.5t47 -8.5q37 0 57.5 18.5t20.5 48.5q0 29 -16.5 49.5t-43.5 37t-57 32t-56.5 35t-43.5 46t-17 64.5q0 46 28 78t74.5 49t102.5 17q45 0 83 -8.5t48 -18.5 q11 -10 11 -46q0 -21 -6 -49t-20 -50l-15 1q-8 41 -16.5 62.5t-20.5 35.5q-11 11 -27 20.5t-41 9.5q-33 0 -54 -18.5t-21 -50.5q0 -28 17 -48.5t43.5 -37t56.5 -32.5t57 -35.5t44 -46t17 -64.5q0 -68 -59 -105t-154 -37z" />
<glyph unicode="t" horiz-adv-x="411" d="M394 103q-23 -43 -65 -78t-105 -35q-64 0 -98.5 39.5t-34.5 118.5v294h-73l-2 18l76 39l104 141l20 -2v-154h149v-42h-149v-273q0 -46 16.5 -70.5t54.5 -24.5q25 0 48.5 11t44.5 30z" />
<glyph unicode="u" horiz-adv-x="628" d="M95 151v275l-64 23l-2 14q37 16 88.5 28.5t94.5 16.5l8 -9v-335q0 -103 88 -103q47 0 92 34v331l-64 23l-2 14q37 16 88.5 28.5t94.5 16.5l8 -9v-370q0 -71 46 -71q20 0 41 5l4 -12q-19 -29 -49.5 -45t-67.5 -16t-60 17.5t-33 48.5q-30 -30 -70 -48t-86 -18 q-72 0 -113.5 41.5t-41.5 119.5z" />
<glyph unicode="v" horiz-adv-x="547" d="M457 416l-147 -416h-79l-147 415q-6 19 -13 27.5t-18 14.5q-7 8 -21 13.5t-23 9.5l2 18h266l2 -18l-71 -28l107 -338l109 338l-70 28l2 18h179l2 -18q-7 -3 -23 -9.5t-23 -11.5q-23 -13 -34 -43z" />
<glyph unicode="w" horiz-adv-x="808" d="M477 498l124 -363l84 317l-72 28l2 18h182l2 -18q-8 -3 -24.5 -9.5t-22.5 -11.5q-25 -14 -34 -43l-120 -416h-79l-116 333l-119 -333h-80l-120 415q-4 17 -12.5 27t-18.5 15q-6 6 -21.5 13t-22.5 10l2 18h263l2 -18l-68 -28l82 -317l127 363h60z" />
<glyph unicode="x" horiz-adv-x="554" d="M214 452l106 -157l97 156l-69 29l2 18h187l2 -18q-9 -4 -25.5 -12t-23.5 -14q-12 -8 -21 -19t-20 -26l-108 -146l122 -180q11 -17 19 -27t20 -17q5 -5 20 -11t22 -10l-2 -18h-258l-2 18l64 28l-109 159l-98 -158l69 -29l-2 -18h-195l-2 18q11 5 28.5 12.5t25.5 13.5 q13 8 23 19t21 26l109 148l-122 178q-10 15 -17.5 25t-19.5 17q-6 6 -21 12.5t-22 10.5l2 18h260l2 -18z" />
<glyph unicode="y" horiz-adv-x="551" d="M15 498h263l2 -18l-68 -28l105 -332l111 332l-73 28l2 18h182l2 -18q-9 -4 -25.5 -10.5t-21.5 -11.5q-12 -7 -19.5 -17t-12.5 -25l-159 -446q-42 -119 -86 -173.5t-102 -54.5q-34 0 -55 21.5t-21 53.5q0 27 14 49l7 3q13 -8 29 -14.5t33 -6.5q46 0 89 41.5t65 108.5 l-39 -5l-149 422q-10 30 -31 42q-4 5 -19 12t-25 11z" />
<glyph unicode="z" horiz-adv-x="491" d="M448 73q-1 -40 -8 -73h-390l-9 42l274 414h-169l-68 -127h-18q-12 47 -12 97q0 39 7 72h386l8 -42l-274 -414h174l68 127h18q13 -46 13 -96z" />
<glyph unicode="{" horiz-adv-x="437" d="M89 294q55 5 79.5 31t24.5 76q0 37 -8.5 73.5t-17 72.5t-8.5 74q0 71 54.5 104.5t171.5 33.5l3 -27q-104 -3 -104 -99q0 -39 7.5 -75.5t15 -73.5t7.5 -76q0 -48 -33.5 -81t-90.5 -46q56 -13 90 -46t34 -81q0 -37 -7.5 -74t-15 -75t-7.5 -76q0 -96 104 -100l-3 -26 q-117 0 -171.5 33t-54.5 104q0 38 8.5 76t17 74.5t8.5 70.5q0 49 -24.5 75.5t-79.5 30.5v27z" />
<glyph unicode="|" horiz-adv-x="326" d="M137 -258l-8 8v1005l60 3l8 -8v-1005z" />
<glyph unicode="}" horiz-adv-x="437" d="M348 294v-27q-55 -4 -79.5 -30.5t-24.5 -75.5q0 -34 8.5 -70.5t17 -74.5t8.5 -76q0 -71 -54.5 -104t-171.5 -33l-3 26q104 4 104 100q0 38 -7.5 76t-15 75t-7.5 74q0 48 34 81t90 46q-57 13 -90.5 46t-33.5 81q0 39 7.5 76t15 73.5t7.5 75.5q0 96 -104 99l3 27 q117 0 171.5 -33.5t54.5 -104.5q0 -38 -8.5 -74t-17 -72.5t-8.5 -73.5q0 -50 24.5 -76t79.5 -31z" />
<glyph unicode="~" horiz-adv-x="581" d="M418 214q-13 0 -40 5.5t-60.5 13t-66.5 15.5t-58.5 13t-35.5 5q-8 0 -24 -18t-35 -41l-41 27q13 22 29 47t35 42.5t40 17.5q13 0 40 -5.5t60 -13t66 -15.5t58.5 -13t36.5 -5q8 0 24 17.5t35 41.5l41 -27q-12 -22 -28 -47t-35.5 -42.5t-40.5 -17.5z" />
<glyph unicode="&#xa1;" horiz-adv-x="320" d="M93 431q0 32 20.5 54.5t52.5 22.5q28 0 45.5 -18.5t17.5 -45.5q0 -30 -22.5 -53t-53.5 -23q-26 0 -43 17.5t-17 45.5zM228 -185l-6 -6l-23 -3q-15 -2 -35 -4t-33 -2q-22 0 -31 9t-9 32q0 6 0.5 14t1.5 16l40 419h50z" />
<glyph unicode="&#xa2;" horiz-adv-x="498" d="M305 -137l-49 -3l-7 8v123q-96 7 -152 79t-56 191q0 75 26 136t73 100t109 48v132l49 3l7 -8v-125q67 -5 109 -41t42 -85q0 -29 -18 -46t-47 -17q-14 0 -24.5 2.5t-23.5 8.5q2 8 2 14q0 122 -68 122q-48 0 -77 -56.5t-29 -148.5q0 -109 40 -167.5t119 -58.5q37 0 66.5 11 t54.5 30l14 -12q-22 -40 -61 -71.5t-99 -39.5v-129z" />
<glyph unicode="&#xa3;" horiz-adv-x="631" d="M78 294l7 57h116q2 25 4.5 50t6.5 49q10 86 45.5 141t87.5 81t113 26t96.5 -28.5t35.5 -64.5q0 -33 -20 -50t-40 -22q-16 51 -37.5 85t-52.5 34q-43 0 -64.5 -54t-37.5 -144l-19 -103h163l-6 -57h-167l-12 -62q-10 -59 -36.5 -105.5t-59.5 -78.5q41 -16 90.5 -34.5 t106 -31.5t117.5 -13q18 0 32.5 2t29.5 6q8 -16 8 -36q0 -40 -25.5 -59.5t-67.5 -19.5q-40 0 -85.5 14.5t-91 37.5t-86.5 49t-73 49q-46 -30 -84 -30q-23 0 -35 11.5t-12 29.5q0 22 18.5 39t48.5 17q13 0 29.5 -4t36.5 -10q14 41 22.5 101.5t14.5 127.5h-117z" />
<glyph unicode="&#xa4;" horiz-adv-x="553" d="M454 116l-71 72q-23 -17 -51.5 -26.5t-63.5 -9.5q-31 0 -57.5 7.5t-47.5 20.5l-64 -64l-50 49l63 63q-34 48 -34 110q0 69 40 122l-66 68l46 46q5 -5 17.5 -17t26.5 -26t25 -24q22 14 49 21.5t58 7.5q32 0 59.5 -8.5t49.5 -23.5l71 70l49 -49l-71 -71q30 -48 30 -106 q0 -60 -32 -110q21 -21 40 -39.5t34 -33.5v-11zM270 468q-38 0 -64.5 -18t-40.5 -46.5t-14 -60.5q0 -30 14 -58t40.5 -46.5t65.5 -18.5q40 0 66 18t39 46.5t13 60.5q0 31 -14 59t-40.5 46t-64.5 18z" />
<glyph unicode="&#xa5;" horiz-adv-x="689" d="M125 128v50h155v81h-155v50h155v3l-175 292q-14 24 -25 33.5t-28 16.5l-35 11l2 23h291l2 -23l-79 -24l155 -283l157 283l-77 24l2 23h200l2 -23q-10 -5 -28 -11t-23 -11q-13 -5 -20.5 -14t-16.5 -25l-175 -294v-1h156v-50h-156v-81h156v-50h-156v-22h-1v-53l79 -30 l-2 -23h-282l-2 23l41 14q20 9 29 18t9 29v22v0v22h-155z" />
<glyph unicode="&#xa6;" horiz-adv-x="326" d="M197 359l-56 -3l-12 8v391l60 3l8 -8v-391zM197 -255l-56 -3l-12 8v388l60 3l8 -7v-389z" />
<glyph unicode="&#xa7;" horiz-adv-x="559" d="M510 75q0 -55 -22 -100t-59.5 -77.5t-85.5 -50.5t-100 -18q-85 0 -139.5 26t-54.5 68q0 23 12 41t31 31l19 -2q36 -45 76.5 -73.5t88.5 -46.5q14 10 23.5 32.5t9.5 50.5q0 40 -19 79t-48.5 77.5t-62.5 78.5t-62.5 82t-48.5 87.5t-19 95.5q1 53 23 97.5t60 77t86 50 t98 17.5q56 0 100 -11.5t69 -32.5t25 -49q0 -22 -12 -41t-31 -32l-19 2q-34 44 -73.5 73t-90.5 47q-12 -12 -22.5 -36.5t-10.5 -57.5q0 -39 18.5 -75.5t48 -73.5t62.5 -75t62.5 -79t48.5 -86t19 -96zM121 473q0 -49 18 -91.5t46.5 -81.5t60.5 -76.5t60 -75.5t46.5 -78.5 t18.5 -86.5q0 -21 -4 -40.5t-9 -33.5l9 -5q31 23 51 61.5t20 88.5q0 52 -18 96t-46.5 82t-60.5 74t-60 72t-46 75.5t-18 85.5q0 23 3.5 42.5t7.5 35.5l-9 4q-29 -22 -49.5 -60t-20.5 -88z" />
<glyph unicode="&#xa8;" horiz-adv-x="513" d="M434 674q0 -32 -20.5 -55t-52.5 -23q-27 0 -44 18.5t-17 44.5q0 32 22 55t53 23q25 0 42 -17.5t17 -45.5zM213 674q0 -32 -20.5 -55t-52.5 -23q-27 0 -44 18.5t-17 44.5q0 32 22 55t53 23q25 0 42 -17.5t17 -45.5z" />
<glyph unicode="&#xa9;" horiz-adv-x="699" d="M349 -49q-85 0 -152.5 39.5t-107.5 107t-40 152.5q0 61 23.5 115t65 95.5t96 64.5t115.5 23q65 0 119.5 -23t95 -64.5t63 -95.5t22.5 -115q0 -62 -23 -116t-64.5 -95t-96 -64.5t-116.5 -23.5zM349 -4q71 0 128.5 34.5t92 92.5t34.5 127q0 70 -34.5 127.5t-92 91.5 t-128.5 34q-69 0 -127 -34t-92.5 -91.5t-34.5 -127.5q0 -72 33.5 -129.5t91 -91t129.5 -33.5zM485 156q-17 -30 -48.5 -53t-78.5 -23q-41 0 -75.5 20.5t-55.5 58t-21 88.5q0 50 20 89t55 61.5t81 22.5q48 0 80.5 -25t32.5 -61q0 -19 -12 -29.5t-28 -10.5q-10 0 -20 2t-19 6 q1 4 1 9q0 66 -40 66q-28 0 -45 -30.5t-17 -80.5q0 -54 25.5 -86t68.5 -32q24 0 43 7.5t35 18.5z" />
<glyph unicode="&#xaa;" horiz-adv-x="476" d="M246 698q65 0 100.5 -32t35.5 -94q0 -12 -0.5 -34.5t-1 -48.5t-1 -50t-0.5 -38q0 -30 9 -41t30 -11q14 0 31 4l4 -10q-17 -24 -42.5 -36.5t-53.5 -12.5q-30 0 -51 14t-27 38q-21 -23 -53 -37.5t-70 -14.5q-47 0 -77 23.5t-30 65.5q0 58 63 92.5t165 36.5q1 35 1 61.5 v29.5q0 61 -55 61q-30 0 -47.5 -17.5t-17.5 -47.5q0 -7 0.5 -16t3.5 -18q-13 -6 -25 -9t-23 -3q-22 0 -36 9.5t-14 27.5q0 25 26 50t67.5 41.5t88.5 16.5zM154 402q0 -27 15 -40t40 -13q20 0 38 8t29 19q1 17 1 47.5v63.5q-56 -4 -89.5 -26t-33.5 -59z" />
<glyph unicode="&#xab;" horiz-adv-x="548" d="M263 30l-17 -10q-42 55 -88.5 106.5t-82.5 82.5l-6 7v71q48 46 95.5 98t84.5 99l15 -10q-22 -53 -48.5 -111t-52.5 -112q23 -46 50 -104.5t50 -116.5zM478 30l-17 -10q-43 55 -89.5 106.5t-82.5 82.5l-5 7v71q47 46 94.5 98t84.5 99l16 -10q-22 -53 -48.5 -111 t-52.5 -112q23 -46 50 -104.5t50 -116.5z" />
<glyph unicode="&#xac;" d="M508 424v-233h-70v171h-370v65q37 1 94 2t121 2t121.5 1h95.5z" />
<glyph unicode="&#xae;" horiz-adv-x="699" d="M349 -49q-85 0 -152.5 39.5t-107.5 107t-40 152.5q0 61 23.5 115t65 95.5t96 64.5t115.5 23q65 0 119.5 -23t95 -64.5t63 -95.5t22.5 -115q0 -62 -23 -116t-64.5 -95t-96 -64.5t-116.5 -23.5zM349 -4q71 0 128.5 34.5t92 92.5t34.5 127q0 70 -34.5 127.5t-92 91.5 t-128.5 34q-69 0 -127 -34t-92.5 -91.5t-34.5 -127.5q0 -72 33.5 -129.5t91 -91t129.5 -33.5zM353 373h-31v-123h36q30 0 47.5 16t17.5 46q0 61 -70 61zM322 125l39 -14l-2 -23h-161l-2 23l23 8q10 4 12.5 10t2.5 20v207q0 20 -16 25l-22 8l2 23h169q65 0 103.5 -25.5 t38.5 -71.5q0 -33 -19 -53.5t-45 -32.5l14 -22q17 -29 33.5 -56t34.5 -34l16 -6v-23l-70 -3q-22 -1 -32.5 7.5t-21.5 26.5l-56 92h-5h-36v-86z" />
<glyph unicode="&#xaf;" horiz-adv-x="472" d="M79 628v63h314v-63h-314z" />
<glyph unicode="&#xb0;" horiz-adv-x="344" d="M174 451q-52 0 -85.5 33t-33.5 87q0 55 36.5 91.5t90.5 36.5q52 0 85 -33t33 -85q0 -56 -36 -93t-90 -37zM178 655q-34 0 -54.5 -24t-20.5 -58t21 -55.5t53 -21.5q34 0 54.5 23.5t20.5 59.5q0 32 -20 54t-54 22z" />
<glyph unicode="&#xb1;" d="M496 402h-165v-156h-69v156h-174v66q30 1 76 1.5t98 1.5l-1 152h70v-151q102 1 165 1l8 -8zM512 75h-432v66q36 1 93.5 2t121.5 1.5t121.5 1t95.5 0.5l8 -8z" />
<glyph unicode="&#xb2;" horiz-adv-x="381" d="M52 347l-8 55q82 43 134.5 96.5t52.5 107.5q0 33 -21 52t-58 19q-30 0 -54 -13t-41 -28l-12 8q18 54 60.5 84t92.5 30q60 0 95 -32.5t35 -82.5q0 -36 -19 -68t-49.5 -59t-65.5 -50.5t-68 -43.5h147q23 0 34 8.5t21 27.5l12 -1q0 -21 -4.5 -54t-12.5 -56h-271z" />
<glyph unicode="&#xb3;" horiz-adv-x="391" d="M107 520l-4 28q62 6 99.5 23.5t37.5 53.5q0 22 -18.5 37t-49.5 15q-29 0 -53.5 -12.5t-43.5 -27.5l-11 8q18 52 61 82.5t92 30.5q55 0 87.5 -27t32.5 -65q0 -35 -19.5 -57t-49 -33.5t-57.5 -15.5q57 -5 97.5 -32t40.5 -76q0 -38 -25.5 -63t-65.5 -37t-84 -12 q-55 0 -94 15.5t-39 45.5q0 19 20 31t45 13l8 -6q-2 -3 -2 -8q3 -24 19 -42.5t51 -18.5q32 0 53.5 16t21.5 46q0 29 -16.5 49t-43 30t-55.5 10h-17t-18 -1z" />
<glyph unicode="&#xb4;" horiz-adv-x="376" d="M296 719q0 -23 -28.5 -50t-75 -53t-101.5 -47l-12 15q36 44 68 92t48 81l9 5q5 1 11 1h11q29 0 49.5 -10t20.5 -34z" />
<glyph unicode="&#xb6;" horiz-adv-x="611" d="M290 -128q61 0 91.5 49t30.5 122v598h-84v-423h-12q-75 0 -135.5 27.5t-96 80.5t-35.5 129q0 75 36 127t96.5 79t134.5 27h244l2 -23l-41 -14q-21 -9 -29.5 -18t-8.5 -29v-533q0 -120 -58.5 -181t-149.5 -61q-47 0 -87 12.5t-64.5 38t-24.5 64.5q0 30 17.5 57t55.5 45 l16 -10q-9 -16 -9 -31q4 -56 30 -94.5t81 -38.5z" />
<glyph unicode="&#xb7;" horiz-adv-x="338" d="M166 190q-33 0 -54.5 21t-22.5 50q0 35 25.5 61t60.5 26q31 0 51.5 -19.5t21.5 -51.5q1 -36 -22 -61.5t-60 -25.5z" />
<glyph unicode="&#xb8;" horiz-adv-x="350" d="M111 -110l-5 8l18 102h50l-12 -61q52 -7 80.5 -28t28.5 -52q0 -46 -50 -72.5t-137 -28.5l-5 15q32 12 57 30.5t25 42.5q0 32 -50 44z" />
<glyph unicode="&#xb9;" horiz-adv-x="298" d="M198 379l59 -20l-2 -12h-212l-2 12l26 6q19 7 28 15t9 24v288l-61 11l-2 11l152 44l5 -5v-374z" />
<glyph unicode="&#xba;" horiz-adv-x="457" d="M416 497q0 -62 -24.5 -107.5t-68 -70.5t-98.5 -25q-82 -1 -133 54t-51 149q0 62 25.5 107t69 69.5t97.5 24.5q80 0 131.5 -53.5t51.5 -147.5zM149 496q0 -88 19 -128t59 -40t60.5 38.5t20.5 128.5q0 87 -19 128t-58 41t-60.5 -39.5t-21.5 -128.5z" />
<glyph unicode="&#xbb;" horiz-adv-x="548" d="M479 216q-47 -46 -94.5 -98.5t-84.5 -98.5l-16 10q22 53 48.5 111t52.5 112q-23 46 -50 104t-50 117l17 10q43 -55 89.5 -106.5t82.5 -82.5l5 -8v-70zM264 216q-47 -46 -94.5 -98.5t-84.5 -98.5l-16 10q22 53 48.5 111t53.5 112q-24 46 -50.5 104t-50.5 117l18 10 q42 -55 88.5 -106.5t82.5 -82.5l5 -8v-70z" />
<glyph unicode="&#xbc;" horiz-adv-x="969" d="M699 698l-424 -708h-55l423 708h56zM243 316l58 -21l-1 -11h-212l-2 11l26 6q19 7 28 15t9 24v288l-61 11l-2 11l152 44l5 -5v-373zM531 125l227 279l63 -6v-262h67l-5 -52h-62v-84h-94v84h-190zM586 136h141v175z" />
<glyph unicode="&#xbd;" horiz-adv-x="969" d="M699 698l-424 -708h-55l423 708h56zM243 316l58 -21l-1 -11h-212l-2 11l26 6q19 7 28 15t9 24v288l-61 11l-2 11l152 44l5 -5v-373zM588 0l-7 54q81 44 133.5 97.5t52.5 106.5q0 34 -21 53t-58 19q-29 0 -53.5 -13t-41.5 -29l-12 8q18 55 60.5 85t93.5 30q59 0 94 -32.5 t35 -82.5q0 -37 -18.5 -68.5t-49 -58.5t-66 -50.5t-67.5 -43.5h146q23 0 34.5 8t21.5 28l11 -1q0 -21 -4.5 -54.5t-11.5 -55.5h-272z" />
<glyph unicode="&#xbe;" horiz-adv-x="969" d="M732 698l-423 -708h-55l423 708h55zM135 456l-3 28q61 6 99 23.5t38 53.5q0 23 -18.5 37.5t-50.5 14.5q-28 0 -52.5 -12t-43.5 -28l-12 8q19 52 62 82.5t92 30.5q54 0 87 -27t33 -65q0 -35 -20 -57t-49 -33.5t-57 -15.5q56 -4 97 -31.5t41 -76.5q0 -38 -25.5 -63 t-65.5 -37t-84 -12q-56 0 -94.5 15.5t-38.5 45.5q0 19 19.5 31t45.5 13l7 -6q-1 -3 -1 -8q3 -24 19 -42.5t51 -18.5q31 0 53 16t22 46q0 29 -17 49t-43 30t-55 10h-17.5t-18.5 -1zM531 125l227 279l63 -6v-262h67l-5 -52h-62v-84h-94v84h-190zM586 136h141v175z" />
<glyph unicode="&#xbf;" horiz-adv-x="448" d="M173 431q0 32 20.5 54.5t53.5 22.5q27 0 45 -18.5t18 -45.5q0 -30 -22.5 -53t-54.5 -23q-26 0 -43 17.5t-17 45.5zM212 273l8 8q32 2 51.5 -15.5t19.5 -44.5q0 -28 -15.5 -48.5t-38.5 -39.5t-46.5 -42t-39 -55t-15.5 -78q0 -49 23.5 -82t68.5 -33q46 0 73 32t27 82 q0 27 -9 58q22 12 52 12t49 -19t19 -53q0 -43 -30.5 -78.5t-80.5 -56t-110 -20.5q-58 0 -105.5 20t-75.5 58.5t-28 93.5q0 40 17.5 73t43.5 59.5t53.5 46t50 32.5t30.5 20q8 6 8 25v45z" />
<glyph unicode="&#xc0;" horiz-adv-x="714" d="M492 791l-6 -17q-44 1 -92.5 6.5t-89.5 16.5t-67 28.5t-26 42.5q0 18 17 33.5t39 23.5l10 -2q34 -28 91 -65t124 -67zM317 688h80l214 -604q7 -21 17.5 -30t27.5 -16l41 -15l-2 -23h-288l-2 23l79 25l-58 172l-228 -3l-57 -168l79 -26l-2 -23h-199l-2 23q10 4 28 10 t24 10q24 12 34 41zM213 261l200 -1l-100 296z" />
<glyph unicode="&#xc1;" horiz-adv-x="714" d="M438 923l11 1q21 -7 38 -22.5t17 -33.5q0 -25 -25.5 -42.5t-67 -28.5t-89.5 -17t-93 -7l-6 18q68 29 125 66.5t90 65.5zM317 688h80l214 -604q7 -21 17.5 -30t27.5 -16l41 -15l-2 -23h-288l-2 23l79 25l-58 172l-228 -3l-57 -168l79 -26l-2 -23h-199l-2 23q10 4 28 10 t24 10q24 12 34 41zM213 261l200 -1l-100 296z" />
<glyph unicode="&#xc2;" horiz-adv-x="714" d="M520 782l-15 -10q-33 18 -70.5 37.5t-74.5 37.5q-31 -17 -70.5 -38t-76.5 -37l-13 13q34 35 67.5 73t52.5 64l9 6h72q31 -34 62.5 -72.5t56.5 -73.5zM317 688h80l214 -604q7 -21 17.5 -30t27.5 -16l41 -15l-2 -23h-288l-2 23l79 25l-58 172l-228 -3l-57 -168l79 -26 l-2 -23h-199l-2 23q10 4 28 10t24 10q24 12 34 41zM213 261l200 -1l-100 296z" />
<glyph unicode="&#xc3;" horiz-adv-x="714" d="M184 771l-18 6q0 4 -0.5 9t-0.5 10q3 51 26 87t70 36q34 0 75.5 -13t80.5 -28.5t66 -20.5q2 3 12.5 17t21 28.5t15.5 21.5l17 -6q1 -6 1 -11.5v-12.5q-3 -49 -25.5 -83.5t-69.5 -34.5q-33 0 -75 13t-81 28t-66 21q-2 -2 -12.5 -15.5t-21.5 -29t-15 -22.5zM317 688h80 l214 -604q7 -21 17.5 -30t27.5 -16l41 -15l-2 -23h-288l-2 23l79 25l-58 172l-228 -3l-57 -168l79 -26l-2 -23h-199l-2 23q10 4 28 10t24 10q24 12 34 41zM213 261l200 -1l-100 296z" />
<glyph unicode="&#xc4;" horiz-adv-x="714" d="M544 857q0 -30 -21 -52t-55 -22q-29 0 -46.5 17.5t-17.5 41.5q0 30 22.5 51.5t55.5 21.5q27 0 44.5 -16t17.5 -42zM323 857q0 -30 -21 -52t-55 -22q-29 0 -46.5 17.5t-17.5 41.5q0 30 22.5 51.5t55.5 21.5q27 0 44.5 -16t17.5 -42zM317 688h80l214 -604q7 -21 17.5 -30 t27.5 -16l41 -15l-2 -23h-288l-2 23l79 25l-58 172l-228 -3l-57 -168l79 -26l-2 -23h-199l-2 23q10 4 28 10t24 10q24 12 34 41zM213 261l200 -1l-100 296z" />
<glyph unicode="&#xc5;" horiz-adv-x="714" d="M355 766q-44 0 -71 23t-27 61q0 40 29.5 65.5t75.5 25.5q43 0 70.5 -23.5t27.5 -59.5q-1 -40 -30.5 -66t-74.5 -26zM359 908q-22 0 -35.5 -16.5t-13.5 -40.5q0 -23 13.5 -37.5t34.5 -14.5t34.5 16.5t13.5 41.5q0 22 -13 36.5t-34 14.5zM317 688h80l214 -604 q7 -21 17.5 -30t27.5 -16l41 -15l-2 -23h-288l-2 23l79 25l-58 172l-228 -3l-57 -168l79 -26l-2 -23h-199l-2 23q10 4 28 10t24 10q24 12 34 41zM213 261l200 -1l-100 296z" />
<glyph unicode="&#xc6;" horiz-adv-x="911" d="M433 643h-91l-95 -280l186 -1v281zM19 0l-2 23q10 4 28 10t24 10q24 12 34 41l195 551l-79 30l2 23h622q4 -22 6 -45.5t2 -54.5q0 -32 -2.5 -58.5t-7.5 -52.5h-24l-32 81q-5 11 -12 27.5t-14 31.5t-12 21q-38 5 -83 5h-102v-280l197 8l-3 -58l-194 8v-276h112 q21 0 43.5 1t39.5 4q5 6 12 21t14 31.5t12 27.5l32 81h24q10 -50 10 -111q0 -31 -2 -54.5t-6 -45.5h-497l-2 23l41 14q21 9 29.5 18t8.5 29v238l-201 -3l-91 -270l79 -26l-2 -23h-199z" />
<glyph unicode="&#xc7;" horiz-adv-x="670" d="M350 -110l-5 8l17 94q-93 9 -163 52t-110 117t-40 177q0 83 27.5 150t76.5 113.5t114 71.5t139 25q108 0 186 -31q7 -29 7 -74q0 -24 -3 -57.5t-9 -62.5l-24 -2q-21 47 -41.5 90t-41.5 79q-15 4 -26.5 5.5t-33.5 1.5q-66 0 -120.5 -38.5t-86 -108t-31.5 -162.5 q1 -90 31.5 -157t84.5 -104t125 -37q25 0 38.5 2t26.5 5q25 36 48 78.5t44 85.5h24q4 -19 6 -43t2 -47q0 -28 -2 -55t-6 -51q-41 -11 -89 -18t-103 -7h-1l-10 -51q52 -7 80.5 -28t28.5 -52q0 -46 -50 -72.5t-137 -28.5l-5 15q32 12 57 30.5t25 42.5q0 32 -50 44z" />
<glyph unicode="&#xc8;" horiz-adv-x="603" d="M456 791l-6 -18q-45 1 -93 7t-89.5 17t-67 28.5t-25.5 42.5q0 18 17 33.5t38 22.5l11 -1q33 -28 90 -65.5t125 -66.5zM254 363l197 8l-3 -58l-194 8v-276h112q21 0 43.5 1t39.5 4q5 6 12 21t14 31.5t12 27.5l32 81h24q10 -50 10 -111q0 -31 -2 -54.5t-6 -45.5h-497l-2 23 l41 14q21 9 29.5 18t8.5 29v542q0 9 -10 11l-69 28l2 23h487q4 -22 6 -45.5t2 -54.5q0 -32 -2.5 -58.5t-7.5 -52.5h-24l-32 81q-5 11 -12 27.5t-14 31.5t-12 21q-38 5 -83 5h-102v-280z" />
<glyph unicode="&#xc9;" horiz-adv-x="603" d="M409 922l11 2q21 -7 38 -22.5t17 -33.5q0 -25 -25.5 -42.5t-67 -29t-89.5 -17t-93 -6.5l-6 18q68 29 125 66.5t90 64.5zM254 363l197 8l-3 -58l-194 8v-276h112q21 0 43.5 1t39.5 4q5 6 12 21t14 31.5t12 27.5l32 81h24q10 -50 10 -111q0 -31 -2 -54.5t-6 -45.5h-497 l-2 23l41 14q21 9 29.5 18t8.5 29v542q0 9 -10 12l-69 27l2 23h487q4 -22 6 -45.5t2 -53.5q0 -32 -2.5 -59t-7.5 -52h-24l-32 80q-5 11 -12 27.5t-14 31.5t-12 22q-38 4 -83 4h-102v-280z" />
<glyph unicode="&#xca;" horiz-adv-x="603" d="M487 782l-15 -11q-33 18 -70 38t-75 37q-31 -17 -70.5 -37.5t-76.5 -37.5l-13 13q34 35 67.5 73.5t52.5 63.5l9 7h72q31 -34 62.5 -73t56.5 -73zM254 363l197 8l-3 -58l-194 8v-276h112q21 0 43.5 1t39.5 4q5 6 12 21t14 31.5t12 27.5l32 81h24q10 -50 10 -111 q0 -31 -2 -54.5t-6 -45.5h-497l-2 23l41 14q21 9 29.5 18t8.5 29v542q0 9 -10 11l-69 28l2 23h487q4 -22 6 -45.5t2 -54.5q0 -32 -2.5 -58.5t-7.5 -52.5h-24l-32 81q-5 11 -12 27.5t-14 31.5t-12 21q-38 5 -83 5h-102v-280z" />
<glyph unicode="&#xcb;" horiz-adv-x="603" d="M508 857q0 -31 -21 -52.5t-55 -21.5q-28 0 -45.5 17.5t-17.5 41.5q0 29 22.5 51t54.5 22q27 0 44.5 -16.5t17.5 -41.5zM288 857q0 -31 -21.5 -52.5t-55.5 -21.5q-28 0 -45.5 17.5t-17.5 41.5q0 29 22.5 51t54.5 22q27 0 45 -16.5t18 -41.5zM254 363l197 8l-3 -58l-194 8 v-276h112q21 0 43.5 1t39.5 4q5 6 12 21t14 31.5t12 27.5l32 81h24q10 -50 10 -111q0 -31 -2 -54.5t-6 -45.5h-497l-2 23l41 14q21 9 29.5 18t8.5 29v542q0 9 -10 11l-69 28l2 23h487q4 -22 6 -45.5t2 -54.5q0 -32 -2.5 -58.5t-7.5 -52.5h-24l-32 81q-5 11 -12 27.5 t-14 31.5t-12 21q-38 5 -83 5h-102v-280z" />
<glyph unicode="&#xcc;" horiz-adv-x="380" d="M323 791l-6 -17q-45 1 -93 6.5t-89.5 16.5t-67 28.5t-25.5 42.5q0 18 17 33.5t39 23.5l10 -2q34 -28 91 -65t124 -67zM254 53l79 -30l-2 -23h-283l-2 23l41 14q21 9 29.5 18t8.5 29v551l-79 30l2 23h283l2 -23l-41 -14q-20 -9 -29 -18t-9 -29v-551z" />
<glyph unicode="&#xcd;" horiz-adv-x="380" d="M273 923l10 1q22 -7 39 -22.5t17 -33.5q0 -25 -26 -42.5t-67 -28.5t-89.5 -17t-92.5 -7l-6 18q67 29 124 66.5t91 65.5zM254 53l79 -30l-2 -23h-283l-2 23l41 14q21 9 29.5 18t8.5 29v551l-79 30l2 23h283l2 -23l-41 -14q-20 -9 -29 -18t-9 -29v-551z" />
<glyph unicode="&#xce;" horiz-adv-x="380" d="M351 782l-15 -10q-33 18 -70.5 37.5t-74.5 37.5q-32 -17 -71 -38t-76 -37l-13 13q33 35 67 73t53 64l9 6h72q31 -34 62.5 -72.5t56.5 -73.5zM254 53l79 -30l-2 -23h-283l-2 23l41 14q21 9 29.5 18t8.5 29v551l-79 30l2 23h283l2 -23l-41 -14q-20 -9 -29 -18t-9 -29v-551z " />
<glyph unicode="&#xcf;" horiz-adv-x="380" d="M371 857q0 -30 -21 -52t-55 -22q-29 0 -46.5 17.5t-17.5 41.5q0 30 22.5 51.5t55.5 21.5q27 0 44.5 -16t17.5 -42zM150 857q0 -30 -21 -52t-55 -22q-29 0 -46.5 17.5t-17.5 41.5q0 30 22.5 51.5t55.5 21.5q27 0 44.5 -16t17.5 -42zM254 53l79 -30l-2 -23h-283l-2 23 l41 14q21 9 29.5 18t8.5 29v551l-79 30l2 23h283l2 -23l-41 -14q-20 -9 -29 -18t-9 -29v-551z" />
<glyph unicode="&#xd0;" horiz-adv-x="731" d="M436 328h-175v-282h67q106 0 163 77t57 221q1 144 -56.5 221t-163.5 77h-67v-271h175v-43zM681 344q0 -110 -43.5 -187t-122 -117t-182.5 -40h-278l-2 23l41 14q21 9 29.5 18t8.5 29v244h-83v43h83v255q0 9 -11 11l-68 28l2 23h278q105 0 183.5 -40.5t121.5 -117 t43 -186.5z" />
<glyph unicode="&#xd1;" horiz-adv-x="743" d="M218 768l-17 6q-1 4 -1 9v10q3 51 26 87t69 36q35 0 76 -13.5t80 -28.5t67 -21q2 4 12.5 18t21 28.5t14.5 21.5l18 -6q0 -6 0.5 -11.5t0.5 -12.5q-3 -49 -25.5 -83.5t-69.5 -34.5q-33 0 -75 13t-81 28t-66 21q-2 -2 -12.5 -15.5t-22 -29t-15.5 -22.5zM176 53l98 -30 l-2 -23h-224l-2 23l41 14q21 9 29.5 18t8.5 29v542q0 5 -13 13t-20 10l-46 16l2 23h188l348 -526v473l-79 30l2 23h204l2 -23l-41 -14q-21 -9 -29.5 -18t-8.5 -29v-604h-87l-371 549v-496z" />
<glyph unicode="&#xd2;" horiz-adv-x="716" d="M499 791l-6 -17q-45 1 -93 6.5t-89.5 16.5t-67 28.5t-25.5 42.5q0 18 17 33.5t39 23.5l10 -2q33 -28 90.5 -65t124.5 -67zM49 344q0 112 42.5 191t113 121t157.5 42q88 0 156.5 -41t108.5 -118.5t40 -189.5t-40.5 -192.5t-110 -123.5t-159.5 -43q-91 0 -160.5 42 t-108.5 121.5t-39 190.5zM182 344q0 -94 21.5 -163t61.5 -106.5t95 -37.5t94 39.5t59 110t21 162.5q0 92 -20.5 160t-59 105t-92.5 37q-55 0 -95.5 -37.5t-62 -106.5t-22.5 -163z" />
<glyph unicode="&#xd3;" horiz-adv-x="716" d="M442 923l11 1q22 -7 39 -22.5t17 -33.5q0 -25 -26 -42.5t-67 -28.5t-89.5 -17t-92.5 -7l-6 18q67 29 124 66.5t90 65.5zM49 344q0 112 42.5 191t113 121t157.5 42q88 0 156.5 -41t108.5 -118.5t40 -189.5t-40.5 -192.5t-110 -123.5t-159.5 -43q-91 0 -160.5 42 t-108.5 121.5t-39 190.5zM182 344q0 -94 21.5 -163t61.5 -106.5t95 -37.5t94 39.5t59 110t21 162.5q0 92 -20.5 160t-59 105t-92.5 37q-55 0 -95.5 -37.5t-62 -106.5t-22.5 -163z" />
<glyph unicode="&#xd4;" horiz-adv-x="716" d="M521 782l-15 -10q-33 18 -70.5 37.5t-74.5 37.5q-32 -17 -71 -38t-76 -37l-13 13q33 35 67 73t53 64l9 6h72q31 -34 62.5 -72.5t56.5 -73.5zM49 344q0 112 42.5 191t113 121t157.5 42q88 0 156.5 -41t108.5 -118.5t40 -189.5t-40.5 -192.5t-110 -123.5t-159.5 -43 q-91 0 -160.5 42t-108.5 121.5t-39 190.5zM182 344q0 -94 21.5 -163t61.5 -106.5t95 -37.5t94 39.5t59 110t21 162.5q0 92 -20.5 160t-59 105t-92.5 37q-55 0 -95.5 -37.5t-62 -106.5t-22.5 -163z" />
<glyph unicode="&#xd5;" horiz-adv-x="716" d="M184 771l-18 6q0 4 -0.5 9t-0.5 10q4 51 27 87t69 36q34 0 75.5 -13t80.5 -28.5t66 -20.5q3 3 13 17t21 28.5t15 21.5l18 -6q0 -6 0.5 -11.5t0.5 -12.5q-4 -49 -26.5 -83.5t-68.5 -34.5q-34 0 -75.5 13t-81 28t-65.5 21q-3 -2 -13.5 -15.5t-21.5 -29t-15 -22.5zM49 344 q0 112 42.5 191t113 121t157.5 42q88 0 156.5 -41t108.5 -118.5t40 -189.5t-40.5 -192.5t-110 -123.5t-159.5 -43q-91 0 -160.5 42t-108.5 121.5t-39 190.5zM182 344q0 -94 21.5 -163t61.5 -106.5t95 -37.5t94 39.5t59 110t21 162.5q0 92 -20.5 160t-59 105t-92.5 37 q-55 0 -95.5 -37.5t-62 -106.5t-22.5 -163z" />
<glyph unicode="&#xd6;" horiz-adv-x="716" d="M544 857q0 -30 -21 -52t-55 -22q-29 0 -46.5 17.5t-17.5 41.5q0 30 22.5 51.5t55.5 21.5q26 0 44 -16t18 -42zM323 857q0 -30 -21 -52t-55 -22q-29 0 -46.5 17.5t-17.5 41.5q0 30 22.5 51.5t55.5 21.5q26 0 44 -16t18 -42zM49 344q0 112 42.5 191t113 121t157.5 42 q88 0 156.5 -41t108.5 -118.5t40 -189.5t-40.5 -192.5t-110 -123.5t-159.5 -43q-91 0 -160.5 42t-108.5 121.5t-39 190.5zM182 344q0 -94 21.5 -163t61.5 -106.5t95 -37.5t94 39.5t59 110t21 162.5q0 92 -20.5 160t-59 105t-92.5 37q-55 0 -95.5 -37.5t-62 -106.5 t-22.5 -163z" />
<glyph unicode="&#xd7;" d="M452 138l-153 157l-157 -157l-50 50l158 157l-155 158l47 47q28 -27 69.5 -68.5t86.5 -87.5l156 156l50 -50l-156 -156q45 -46 85.5 -87t68.5 -69v-11z" />
<glyph unicode="&#xd8;" horiz-adv-x="716" d="M49 344q0 112 42.5 191t113 121t157.5 42q121 0 201 -74l52 60l37 -29l-56 -66q33 -44 52 -104.5t19 -135.5q0 -112 -40.5 -192.5t-110 -123.5t-159.5 -43q-124 0 -205 76l-52 -62l-35 31l56 66q-34 45 -53 106t-19 137zM182 344q0 -84 18 -150l299 354q-21 49 -56 76 t-81 27q-55 0 -95.5 -37.5t-62 -106.5t-22.5 -163zM534 349q0 83 -17 147l-299 -353q23 -51 59 -78.5t83 -27.5q55 0 94 39.5t59 110t21 162.5z" />
<glyph unicode="&#xd9;" horiz-adv-x="672" d="M499 791l-5 -17q-45 1 -93 6.5t-89.5 16.5t-67.5 28.5t-26 42.5q0 18 17.5 33.5t38.5 23.5l11 -2q33 -28 90 -65t124 -67zM88 235v400l-79 30l2 23h283l2 -23l-41 -14q-20 -9 -29 -18t-9 -29v-372q0 -95 44 -143.5t113 -48.5t113.5 47.5t44.5 144.5v403l-79 30l2 23h204 l2 -23l-79 -30v-400q0 -122 -63.5 -183.5t-177.5 -61.5t-183.5 61.5t-69.5 183.5z" />
<glyph unicode="&#xda;" horiz-adv-x="672" d="M457 923l10 1q22 -7 39 -22.5t17 -33.5q0 -25 -25.5 -42.5t-67 -28.5t-89.5 -17t-93 -7l-6 18q68 29 125 66.5t90 65.5zM88 235v400l-79 30l2 23h283l2 -23l-41 -14q-20 -9 -29 -18t-9 -29v-372q0 -95 44 -143.5t113 -48.5t113.5 47.5t44.5 144.5v403l-79 30l2 23h204 l2 -23l-79 -30v-400q0 -122 -63.5 -183.5t-177.5 -61.5t-183.5 61.5t-69.5 183.5z" />
<glyph unicode="&#xdb;" horiz-adv-x="672" d="M535 782l-15 -10q-33 18 -70 37.5t-75 37.5q-31 -17 -70.5 -38t-76.5 -37l-13 13q34 35 67.5 73t52.5 64l9 6h72q31 -34 62.5 -72.5t56.5 -73.5zM88 235v400l-79 30l2 23h283l2 -23l-41 -14q-20 -9 -29 -18t-9 -29v-372q0 -95 44 -143.5t113 -48.5t113.5 47.5t44.5 144.5 v403l-79 30l2 23h204l2 -23l-79 -30v-400q0 -122 -63.5 -183.5t-177.5 -61.5t-183.5 61.5t-69.5 183.5z" />
<glyph unicode="&#xdc;" horiz-adv-x="672" d="M553 857q0 -30 -21 -52t-55 -22q-28 0 -45.5 17.5t-17.5 41.5q0 30 22.5 51.5t54.5 21.5q27 0 44.5 -16t17.5 -42zM332 857q0 -30 -21 -52t-55 -22q-28 0 -45.5 17.5t-17.5 41.5q0 30 22.5 51.5t54.5 21.5q27 0 44.5 -16t17.5 -42zM88 235v400l-79 30l2 23h283l2 -23 l-41 -14q-20 -9 -29 -18t-9 -29v-372q0 -95 44 -143.5t113 -48.5t113.5 47.5t44.5 144.5v403l-79 30l2 23h204l2 -23l-79 -30v-400q0 -122 -63.5 -183.5t-177.5 -61.5t-183.5 61.5t-69.5 183.5z" />
<glyph unicode="&#xdd;" horiz-adv-x="689" d="M462 923l10 1q22 -7 39 -22.5t17 -33.5q0 -25 -25.5 -42.5t-67 -28.5t-89.5 -17t-93 -7l-6 18q67 29 124 66.5t91 65.5zM409 53l79 -30l-2 -23h-283l-2 23l41 14q21 9 29.5 18t8.5 29v203l-175 317q-13 24 -24.5 33.5t-28.5 16.5l-35 11l2 23h291l2 -23l-80 -25l157 -309 l157 310l-78 24l2 23h200l2 -23q-10 -5 -28 -11t-23 -11q-13 -5 -21 -14t-16 -25l-175 -318v-233z" />
<glyph unicode="&#xde;" horiz-adv-x="628" d="M254 53l99 -30l-2 -23h-303l-2 23l41 14q21 9 29.5 18t8.5 29v551l-79 30l2 23h283l2 -23l-41 -14q-20 -9 -29 -18t-9 -29v-45h84q74 0 134 -24.5t95 -72.5t35 -117q0 -68 -35.5 -114.5t-96 -71t-134.5 -24.5h-82v-82zM325 512h-71v-329h69q69 0 107.5 42.5t38.5 119.5 q0 78 -38 122.5t-106 44.5z" />
<glyph unicode="&#xdf;" horiz-adv-x="630" d="M200 0h-174l-2 18l37 15q18 8 25 18.5t7 30.5v360h-67l-2 18l69 27v10q0 75 28 134t81 93t127 34q92 0 143.5 -43t51.5 -118q0 -55 -33 -99.5t-97 -61.5q91 -22 142.5 -87.5t51.5 -161.5q0 -59 -26 -103.5t-72.5 -69t-107.5 -24.5q-54 0 -88.5 29t-34.5 66q0 26 15 40.5 t37 14.5q15 0 31 -9q3 -48 15.5 -73t36.5 -25q30 0 47.5 39t17.5 104q0 97 -41 159t-122 79v30q40 5 65.5 27.5t38 53t12.5 62.5q0 61 -25 95.5t-70 34.5q-99 0 -99 -185v-503z" />
<glyph unicode="&#xe0;" horiz-adv-x="544" d="M375 584l-11 -15q-56 21 -102.5 47t-75 53t-28.5 50q0 24 21 34t49 10h11.5t11.5 -1l8 -5q17 -33 49 -81t67 -92zM288 508q79 0 122.5 -40.5t43.5 -118.5q0 -16 -0.5 -45.5t-1.5 -63.5t-1.5 -65t-0.5 -51q0 -32 9.5 -49t37.5 -17q17 0 39 5l4 -12q-20 -30 -51 -45.5 t-65 -15.5q-37 0 -62.5 18.5t-32.5 48.5q-25 -29 -64 -48t-85 -19q-58 0 -94.5 30.5t-36.5 83.5q0 50 35 86.5t98 57t146 21.5q0 45 0.5 78.5t0.5 37.5q0 80 -69 80q-36 0 -58 -23.5t-22 -60.5q0 -9 1 -20t4 -23q-15 -8 -29.5 -11t-27.5 -3q-27 0 -44 11.5t-17 34.5 t18.5 47.5t50 45t71 33t81.5 12.5zM176 126q0 -34 18 -51t49 -17q25 0 47.5 11t36.5 26q0 24 0.5 62.5t0.5 79.5q-70 -5 -111 -33.5t-41 -77.5z" />
<glyph unicode="&#xe1;" horiz-adv-x="544" d="M398 719q0 -23 -28.5 -50t-75 -53t-101.5 -47l-12 15q36 44 68 92t48 81l9 5q5 1 11 1h11q29 0 49.5 -10t20.5 -34zM288 508q79 0 122.5 -40.5t43.5 -118.5q0 -16 -0.5 -45.5t-1.5 -63.5t-1.5 -65t-0.5 -51q0 -32 9.5 -49t37.5 -17q17 0 39 5l4 -12q-20 -30 -51 -45.5 t-65 -15.5q-37 0 -62.5 18.5t-32.5 48.5q-25 -29 -64 -48t-85 -19q-58 0 -94.5 30.5t-36.5 83.5q0 50 35 86.5t98 57t146 21.5q0 45 0.5 78.5t0.5 37.5q0 80 -69 80q-36 0 -58 -23.5t-22 -60.5q0 -9 1 -20t4 -23q-15 -8 -29.5 -11t-27.5 -3q-27 0 -44 11.5t-17 34.5 t18.5 47.5t50 45t71 33t81.5 12.5zM176 126q0 -34 18 -51t49 -17q25 0 47.5 11t36.5 26q0 24 0.5 62.5t0.5 79.5q-70 -5 -111 -33.5t-41 -77.5z" />
<glyph unicode="&#xe2;" horiz-adv-x="544" d="M426 584l-16 -10q-30 24 -64.5 49.5t-69.5 48.5q-30 -22 -66.5 -49t-70.5 -49l-13 13q30 42 60.5 88t48.5 76l9 7h73q28 -40 57 -86t52 -88zM288 508q79 0 122.5 -40.5t43.5 -118.5q0 -16 -0.5 -45.5t-1.5 -63.5t-1.5 -65t-0.5 -51q0 -32 9.5 -49t37.5 -17q17 0 39 5 l4 -12q-20 -30 -51 -45.5t-65 -15.5q-37 0 -62.5 18.5t-32.5 48.5q-25 -29 -64 -48t-85 -19q-58 0 -94.5 30.5t-36.5 83.5q0 50 35 86.5t98 57t146 21.5q0 45 0.5 78.5t0.5 37.5q0 80 -69 80q-36 0 -58 -23.5t-22 -60.5q0 -9 1 -20t4 -23q-15 -8 -29.5 -11t-27.5 -3 q-27 0 -44 11.5t-17 34.5t18.5 47.5t50 45t71 33t81.5 12.5zM176 126q0 -34 18 -51t49 -17q25 0 47.5 11t36.5 26q0 24 0.5 62.5t0.5 79.5q-70 -5 -111 -33.5t-41 -77.5z" />
<glyph unicode="&#xe3;" horiz-adv-x="544" d="M115 602l-18 5q-1 5 -1 9v8q3 49 26 83.5t69 34.5q30 0 66.5 -11.5t70.5 -25.5t59 -20q2 4 12 16t21 24.5t14 19.5l18 -6q1 -5 1 -10v-11q-3 -47 -25.5 -80t-68.5 -33q-30 0 -66.5 11.5t-71.5 25t-58 20.5q-2 -3 -12.5 -15t-21.5 -25.5t-14 -19.5zM288 508 q79 0 122.5 -40.5t43.5 -118.5q0 -16 -0.5 -45.5t-1.5 -63.5t-1.5 -65t-0.5 -51q0 -32 9.5 -49t37.5 -17q17 0 39 5l4 -12q-20 -30 -51 -45.5t-65 -15.5q-37 0 -62.5 18.5t-32.5 48.5q-25 -29 -64 -48t-85 -19q-58 0 -94.5 30.5t-36.5 83.5q0 50 35 86.5t98 57t146 21.5 q0 45 0.5 78.5t0.5 37.5q0 80 -69 80q-36 0 -58 -23.5t-22 -60.5q0 -9 1 -20t4 -23q-15 -8 -29.5 -11t-27.5 -3q-27 0 -44 11.5t-17 34.5t18.5 47.5t50 45t71 33t81.5 12.5zM176 126q0 -34 18 -51t49 -17q25 0 47.5 11t36.5 26q0 24 0.5 62.5t0.5 79.5q-70 -5 -111 -33.5 t-41 -77.5z" />
<glyph unicode="&#xe4;" horiz-adv-x="544" d="M455 674q0 -32 -20.5 -55t-52.5 -23q-28 0 -44.5 18.5t-16.5 44.5q0 32 21.5 55t53.5 23q25 0 42 -17.5t17 -45.5zM234 674q0 -32 -20.5 -55t-52.5 -23q-28 0 -44.5 18.5t-16.5 44.5q0 32 21.5 55t53.5 23q25 0 42 -17.5t17 -45.5zM288 508q79 0 122.5 -40.5t43.5 -118.5 q0 -16 -0.5 -45.5t-1.5 -63.5t-1.5 -65t-0.5 -51q0 -32 9.5 -49t37.5 -17q17 0 39 5l4 -12q-20 -30 -51 -45.5t-65 -15.5q-37 0 -62.5 18.5t-32.5 48.5q-25 -29 -64 -48t-85 -19q-58 0 -94.5 30.5t-36.5 83.5q0 50 35 86.5t98 57t146 21.5q0 45 0.5 78.5t0.5 37.5 q0 80 -69 80q-36 0 -58 -23.5t-22 -60.5q0 -9 1 -20t4 -23q-15 -8 -29.5 -11t-27.5 -3q-27 0 -44 11.5t-17 34.5t18.5 47.5t50 45t71 33t81.5 12.5zM176 126q0 -34 18 -51t49 -17q25 0 47.5 11t36.5 26q0 24 0.5 62.5t0.5 79.5q-70 -5 -111 -33.5t-41 -77.5z" />
<glyph unicode="&#xe5;" horiz-adv-x="544" d="M271 579q-43 0 -70.5 23t-27.5 61q0 40 29.5 65.5t76.5 25.5q43 0 70.5 -23.5t27.5 -59.5q-1 -40 -30.5 -66t-75.5 -26zM275 721q-22 0 -35.5 -16.5t-13.5 -40.5q0 -23 13.5 -37.5t34.5 -14.5q22 0 35.5 16.5t13.5 41.5q0 22 -13.5 36.5t-34.5 14.5zM288 508 q79 0 122.5 -40.5t43.5 -118.5q0 -16 -0.5 -45.5t-1.5 -63.5t-1.5 -65t-0.5 -51q0 -32 9.5 -49t37.5 -17q17 0 39 5l4 -12q-20 -30 -51 -45.5t-65 -15.5q-37 0 -62.5 18.5t-32.5 48.5q-25 -29 -64 -48t-85 -19q-58 0 -94.5 30.5t-36.5 83.5q0 50 35 86.5t98 57t146 21.5 q0 45 0.5 78.5t0.5 37.5q0 80 -69 80q-36 0 -58 -23.5t-22 -60.5q0 -9 1 -20t4 -23q-15 -8 -29.5 -11t-27.5 -3q-27 0 -44 11.5t-17 34.5t18.5 47.5t50 45t71 33t81.5 12.5zM176 126q0 -34 18 -51t49 -17q25 0 47.5 11t36.5 26q0 24 0.5 62.5t0.5 79.5q-70 -5 -111 -33.5 t-41 -77.5z" />
<glyph unicode="&#xe6;" horiz-adv-x="777" d="M329 385q0 80 -69 80q-36 0 -58 -23.5t-22 -60.5q0 -9 1 -20t4 -23q-15 -8 -29.5 -11t-27.5 -3q-27 0 -44 11.5t-17 34.5t17.5 47.5t48 45t68.5 33t78 12.5q91 0 130 -58q30 28 68 43t81 15q53 0 94.5 -23.5t65.5 -66.5t24 -102q0 -30 -1 -49l-13 -13h-280 q11 -180 153 -180q36 0 68.5 11t57.5 30l14 -12q-25 -48 -71 -80.5t-117 -32.5q-61 0 -108 24.5t-77 68.5q-31 -40 -79 -66.5t-105 -26.5q-61 0 -98 30t-37 84q0 50 35 86.5t98 57t146 21.5q0 33 0.5 63t0.5 53zM546 465q-31 0 -53 -23.5t-33.5 -63.5t-11.5 -89l167 7 q1 17 1 38q0 69 -17.5 100t-52.5 31zM176 126q0 -34 18.5 -51t51.5 -17q29 0 56 16.5t48 43.5q-23 53 -23 119q-70 -5 -110.5 -33.5t-40.5 -77.5z" />
<glyph unicode="&#xe7;" horiz-adv-x="478" d="M223 -110l-5 8l16 94q-89 11 -141 76t-52 168q0 80 31 141t85.5 96t125.5 35q50 0 88 -17t59.5 -46t21.5 -64q0 -29 -18 -46t-47 -17q-14 0 -24.5 2.5t-23.5 8.5q2 8 2 14q0 122 -68 122q-46 0 -74 -51t-28 -133q0 -101 39.5 -154t117.5 -53q36 0 65.5 11t53.5 30l14 -12 q-23 -43 -66.5 -76t-111.5 -37l-9 -51q52 -7 80 -28t28 -52q0 -46 -49.5 -72.5t-137.5 -28.5l-4 15q31 12 56.5 30.5t25.5 42.5q0 32 -50 44z" />
<glyph unicode="&#xe8;" horiz-adv-x="500" d="M361 584l-11 -15q-55 21 -102 47t-75 53t-28 50q0 24 20.5 34t49.5 10h11t11 -1l9 -5q16 -33 48 -81t67 -92zM464 103q-25 -48 -73 -80.5t-121 -32.5q-69 0 -120.5 30.5t-80 86t-28.5 131.5q0 81 31 141.5t84 94.5t119 34q55 0 98 -23.5t67.5 -66.5t24.5 -102 q0 -30 -1 -49l-13 -13h-279q10 -180 152 -180q36 0 68.5 11t57.5 30zM269 465q-31 0 -53 -23.5t-33.5 -63.5t-11.5 -89l167 7q1 17 1 38q0 69 -17.5 100t-52.5 31z" />
<glyph unicode="&#xe9;" horiz-adv-x="500" d="M386 719q0 -23 -28 -50t-75 -53t-102 -47l-11 15q35 44 67 92t48 81l9 5q5 1 11 1h11q29 0 49.5 -10t20.5 -34zM464 103q-25 -48 -73 -80.5t-121 -32.5q-69 0 -120.5 30.5t-80 86t-28.5 131.5q0 81 31 141.5t84 94.5t119 34q55 0 98 -23.5t67.5 -66.5t24.5 -102 q0 -30 -1 -49l-13 -13h-279q10 -180 152 -180q36 0 68.5 11t57.5 30zM269 465q-31 0 -53 -23.5t-33.5 -63.5t-11.5 -89l167 7q1 17 1 38q0 69 -17.5 100t-52.5 31z" />
<glyph unicode="&#xea;" horiz-adv-x="500" d="M416 584l-15 -10q-30 24 -65 49.5t-70 48.5q-29 -22 -65.5 -49t-71.5 -49l-13 13q30 42 61 88t48 76l9 7h74q28 -40 56.5 -86t51.5 -88zM464 103q-25 -48 -73 -80.5t-121 -32.5q-69 0 -120.5 30.5t-80 86t-28.5 131.5q0 81 31 141.5t84 94.5t119 34q55 0 98 -23.5 t67.5 -66.5t24.5 -102q0 -30 -1 -49l-13 -13h-279q10 -180 152 -180q36 0 68.5 11t57.5 30zM269 465q-31 0 -53 -23.5t-33.5 -63.5t-11.5 -89l167 7q1 17 1 38q0 69 -17.5 100t-52.5 31z" />
<glyph unicode="&#xeb;" horiz-adv-x="500" d="M445 674q0 -32 -20.5 -55t-52.5 -23q-27 0 -44 18.5t-17 44.5q0 32 22 55t53 23q25 0 42 -17.5t17 -45.5zM224 674q0 -32 -20.5 -55t-52.5 -23q-27 0 -44 18.5t-17 44.5q0 32 22 55t53 23q25 0 42 -17.5t17 -45.5zM464 103q-25 -48 -73 -80.5t-121 -32.5 q-69 0 -120.5 30.5t-80 86t-28.5 131.5q0 81 31 141.5t84 94.5t119 34q55 0 98 -23.5t67.5 -66.5t24.5 -102q0 -30 -1 -49l-13 -13h-279q10 -180 152 -180q36 0 68.5 11t57.5 30zM269 465q-31 0 -53 -23.5t-33.5 -63.5t-11.5 -89l167 7q1 17 1 38q0 69 -17.5 100t-52.5 31z " />
<glyph unicode="&#xec;" horiz-adv-x="320" d="M250 584l-12 -15q-55 21 -101.5 47t-75 53t-28.5 50q0 24 21 34t49 10h11.5t11.5 -1l8 -5q17 -33 49 -81t67 -92zM226 47l69 -29l-2 -18h-259l-2 18l37 15q18 8 25 18.5t7 30.5v344l-64 23l-2 14q37 16 88.5 28.5t94.5 16.5l8 -9v-452z" />
<glyph unicode="&#xed;" horiz-adv-x="320" d="M281 719q0 -23 -28.5 -50t-75 -53t-101.5 -47l-12 15q35 44 67 92t49 81l8 5q6 1 11.5 1h11.5q29 0 49.5 -10t20.5 -34zM226 47l69 -29l-2 -18h-259l-2 18l37 15q18 8 25 18.5t7 30.5v344l-64 23l-2 14q37 16 88.5 28.5t94.5 16.5l8 -9v-452z" />
<glyph unicode="&#xee;" horiz-adv-x="320" d="M267 575l-16 -10q-22 22 -47.5 46t-50.5 46q-23 -22 -49.5 -47t-51.5 -45l-13 13q20 43 40.5 90t31.5 78l9 6h75q18 -41 37 -88t35 -89zM226 47l69 -29l-2 -18h-259l-2 18l37 15q18 8 25 18.5t7 30.5v344l-64 23l-2 14q37 16 88.5 28.5t94.5 16.5l8 -9v-452z" />
<glyph unicode="&#xef;" horiz-adv-x="320" d="M301 675q0 -32 -17.5 -55t-47.5 -23q-25 0 -39 18.5t-14 44.5q0 31 19 54.5t48 23.5q22 0 36.5 -17.5t14.5 -45.5zM125 675q0 -32 -17.5 -55t-47.5 -23q-24 0 -38.5 18.5t-14.5 44.5q0 31 19 54.5t48 23.5q23 0 37 -17.5t14 -45.5zM226 47l69 -29l-2 -18h-259l-2 18 l37 15q18 8 25 18.5t7 30.5v344l-64 23l-2 14q37 16 88.5 28.5t94.5 16.5l8 -9v-452z" />
<glyph unicode="&#xf0;" horiz-adv-x="548" d="M265 -10q-66 0 -116.5 31.5t-79 90t-28.5 138.5t28.5 138t76 89t106.5 31q51 0 88 -28q-23 60 -62 111l-145 -67l-20 42l132 62q-65 66 -153 102l7 28q64 -6 121.5 -30t104.5 -63l155 73l21 -43l-139 -65q63 -65 99 -156.5t36 -197.5q0 -136 -61 -211t-171 -75zM273 465 q-49 0 -75.5 -51t-26.5 -164q0 -112 23 -164.5t71 -52.5q53 0 78 49.5t25 171.5q0 54 -9.5 102.5t-30.5 78.5t-55 30z" />
<glyph unicode="&#xf1;" horiz-adv-x="623" d="M134 607q0 5 -0.5 9t-0.5 8q3 49 26 83.5t69 34.5q30 0 66.5 -11.5t71 -25.5t58.5 -20q3 4 13 16t20.5 24.5t14.5 19.5l18 -6q0 -5 0.5 -10t0.5 -11q-3 -47 -25.5 -80t-69.5 -33q-30 0 -66.5 11.5t-71 25t-58.5 20.5q-2 -3 -12 -15t-21 -25.5t-15 -19.5zM226 47l69 -29 l-2 -18h-259l-2 18l37 15q18 8 25 18.5t7 30.5v344l-64 23l-2 14q37 16 88.5 28.5t94.5 16.5l8 -9v-57q78 66 163 66q67 0 103.5 -39t36.5 -112v-310l69 -29l-2 -18h-259l-2 18l38 15q17 8 24 18.5t7 30.5v261q0 91 -78 91q-25 0 -50 -8.5t-50 -24.5v-354z" />
<glyph unicode="&#xf2;" horiz-adv-x="538" d="M365 584l-11 -15q-55 21 -102 47t-75.5 53t-28.5 50q0 24 21 34t50 10h11t11 -1l9 -5q16 -33 48 -81t67 -92zM497 250q0 -80 -30 -138t-82.5 -90t-119.5 -32q-66 0 -116.5 31.5t-79 90t-28.5 138.5t31.5 138t84 89t118.5 31q64 0 114.5 -31t79 -88.5t28.5 -138.5z M171 250q0 -112 23.5 -164.5t72.5 -52.5q50 0 75 50t25 165q0 111 -23.5 164t-70.5 53q-49 0 -75.5 -51t-26.5 -164z" />
<glyph unicode="&#xf3;" horiz-adv-x="538" d="M399 719q0 -23 -28 -50t-75 -53t-102 -47l-11 15q35 44 67 92t48 81l9 5q5 1 11 1h11q29 0 49.5 -10t20.5 -34zM497 250q0 -80 -30 -138t-82.5 -90t-119.5 -32q-66 0 -116.5 31.5t-79 90t-28.5 138.5t31.5 138t84 89t118.5 31q64 0 114.5 -31t79 -88.5t28.5 -138.5z M171 250q0 -112 23.5 -164.5t72.5 -52.5q50 0 75 50t25 165q0 111 -23.5 164t-70.5 53q-49 0 -75.5 -51t-26.5 -164z" />
<glyph unicode="&#xf4;" horiz-adv-x="538" d="M425 584l-15 -10q-31 24 -65.5 49.5t-69.5 48.5q-29 -22 -66 -49t-71 -49l-13 13q30 42 61 88t48 76l9 7h74q28 -40 56.5 -86t51.5 -88zM497 250q0 -80 -30 -138t-82.5 -90t-119.5 -32q-66 0 -116.5 31.5t-79 90t-28.5 138.5t31.5 138t84 89t118.5 31q64 0 114.5 -31 t79 -88.5t28.5 -138.5zM171 250q0 -112 23.5 -164.5t72.5 -52.5q50 0 75 50t25 165q0 111 -23.5 164t-70.5 53q-49 0 -75.5 -51t-26.5 -164z" />
<glyph unicode="&#xf5;" horiz-adv-x="538" d="M111 602l-18 5q0 5 -0.5 9t-0.5 8q3 49 26 83.5t69 34.5q30 0 66.5 -11.5t70.5 -25.5t59 -20q2 4 12.5 16t21 24.5t14.5 19.5l17 -6q1 -5 1 -10v-11q-3 -47 -25 -80t-69 -33q-30 0 -66.5 11.5t-71 25t-58.5 20.5q-2 -3 -12.5 -15t-21.5 -25.5t-14 -19.5zM497 250 q0 -80 -30 -138t-82.5 -90t-119.5 -32q-66 0 -116.5 31.5t-79 90t-28.5 138.5t31.5 138t84 89t118.5 31q64 0 114.5 -31t79 -88.5t28.5 -138.5zM171 250q0 -112 23.5 -164.5t72.5 -52.5q50 0 75 50t25 165q0 111 -23.5 164t-70.5 53q-49 0 -75.5 -51t-26.5 -164z" />
<glyph unicode="&#xf6;" horiz-adv-x="538" d="M454 674q0 -32 -20.5 -55t-52.5 -23q-27 0 -44 18.5t-17 44.5q0 32 22 55t53 23q25 0 42 -17.5t17 -45.5zM233 674q0 -32 -20.5 -55t-52.5 -23q-27 0 -44 18.5t-17 44.5q0 32 22 55t53 23q25 0 42 -17.5t17 -45.5zM497 250q0 -80 -30 -138t-82.5 -90t-119.5 -32 q-66 0 -116.5 31.5t-79 90t-28.5 138.5t31.5 138t84 89t118.5 31q64 0 114.5 -31t79 -88.5t28.5 -138.5zM171 250q0 -112 23.5 -164.5t72.5 -52.5q50 0 75 50t25 165q0 111 -23.5 164t-70.5 53q-49 0 -75.5 -51t-26.5 -164z" />
<glyph unicode="&#xf7;" d="M360 538q0 -29 -18.5 -50t-49.5 -21q-25 0 -40.5 17t-15.5 41q0 29 20 50.5t49 21.5q24 0 39.5 -16.5t15.5 -42.5zM510 310h-432v66q37 1 94 2t121 1.5t121.5 1t95.5 0.5l8 -8zM360 166q0 -29 -18.5 -50t-48.5 -21q-25 0 -40.5 17t-15.5 41q0 29 20 50.5t49 21.5 q23 0 38.5 -16.5t15.5 -42.5z" />
<glyph unicode="&#xf8;" horiz-adv-x="538" d="M497 250q0 -80 -30 -138t-82.5 -90t-119.5 -32q-91 0 -151 59l-43 -47l-34 33l47 51q-20 32 -31.5 73.5t-11.5 90.5q0 80 31.5 138t84 89t118.5 31q90 0 149 -58l42 45l36 -32l-48 -50q21 -32 32 -73t11 -90zM171 250q0 -38 2 -69l182 195q-21 89 -82 89q-49 0 -75.5 -51 t-26.5 -164zM367 248q0 38 -2 69l-183 -195q21 -89 85 -89q50 0 75 50t25 165z" />
<glyph unicode="&#xf9;" horiz-adv-x="628" d="M410 584l-11 -15q-55 21 -102 47t-75 53t-28 50q0 24 20.5 34t49.5 10h11t11 -1l9 -5q16 -33 48 -81t67 -92zM95 151v275l-64 23l-2 14q37 16 88.5 28.5t94.5 16.5l8 -9v-335q0 -103 88 -103q47 0 92 34v331l-64 23l-2 14q37 16 88.5 28.5t94.5 16.5l8 -9v-370 q0 -71 46 -71q20 0 41 5l4 -12q-19 -29 -49.5 -45t-67.5 -16t-60 17.5t-33 48.5q-30 -30 -70 -48t-86 -18q-72 0 -113.5 41.5t-41.5 119.5z" />
<glyph unicode="&#xfa;" horiz-adv-x="628" d="M454 719q0 -23 -28.5 -50t-75.5 -53t-102 -47l-11 15q35 44 67 92t49 81l8 5q6 1 11.5 1h10.5q29 0 50 -10t21 -34zM95 151v275l-64 23l-2 14q37 16 88.5 28.5t94.5 16.5l8 -9v-335q0 -103 88 -103q47 0 92 34v331l-64 23l-2 14q37 16 88.5 28.5t94.5 16.5l8 -9v-370 q0 -71 46 -71q20 0 41 5l4 -12q-19 -29 -49.5 -45t-67.5 -16t-60 17.5t-33 48.5q-30 -30 -70 -48t-86 -18q-72 0 -113.5 41.5t-41.5 119.5z" />
<glyph unicode="&#xfb;" horiz-adv-x="628" d="M471 584l-15 -10q-30 24 -65 49.5t-70 48.5q-29 -22 -65.5 -49t-71.5 -49l-13 13q31 42 61.5 88t47.5 76l9 7h74q28 -40 56.5 -86t51.5 -88zM95 151v275l-64 23l-2 14q37 16 88.5 28.5t94.5 16.5l8 -9v-335q0 -103 88 -103q47 0 92 34v331l-64 23l-2 14q37 16 88.5 28.5 t94.5 16.5l8 -9v-370q0 -71 46 -71q20 0 41 5l4 -12q-19 -29 -49.5 -45t-67.5 -16t-60 17.5t-33 48.5q-30 -30 -70 -48t-86 -18q-72 0 -113.5 41.5t-41.5 119.5z" />
<glyph unicode="&#xfc;" horiz-adv-x="628" d="M494 674q0 -32 -20.5 -55t-52.5 -23q-27 0 -44 18.5t-17 44.5q0 32 22 55t53 23q25 0 42 -17.5t17 -45.5zM273 674q0 -32 -20.5 -55t-52.5 -23q-27 0 -44 18.5t-17 44.5q0 32 22 55t53 23q25 0 42 -17.5t17 -45.5zM95 151v275l-64 23l-2 14q37 16 88.5 28.5t94.5 16.5 l8 -9v-335q0 -103 88 -103q47 0 92 34v331l-64 23l-2 14q37 16 88.5 28.5t94.5 16.5l8 -9v-370q0 -71 46 -71q20 0 41 5l4 -12q-19 -29 -49.5 -45t-67.5 -16t-60 17.5t-33 48.5q-30 -30 -70 -48t-86 -18q-72 0 -113.5 41.5t-41.5 119.5z" />
<glyph unicode="&#xfd;" horiz-adv-x="551" d="M419 719q0 -23 -28.5 -50t-75 -53t-101.5 -47l-12 15q35 44 67 92t49 81l8 5q6 1 11.5 1h11.5q28 0 49 -10t21 -34zM15 498h263l2 -18l-68 -28l105 -332l111 332l-73 28l2 18h182l2 -18q-9 -4 -25.5 -10.5t-21.5 -11.5q-12 -7 -19.5 -17t-12.5 -25l-159 -446 q-42 -119 -86 -173.5t-102 -54.5q-34 0 -55 21.5t-21 53.5q0 27 14 49l7 3q13 -8 29 -14.5t33 -6.5q46 0 89 41.5t65 108.5l-39 -5l-149 422q-10 30 -31 42q-4 5 -19 12t-25 11z" />
<glyph unicode="&#xfe;" horiz-adv-x="588" d="M218 -201l89 -29l-2 -18h-279l-2 18l37 15q18 8 25 18.5t7 30.5v842l-64 23l-2 14q37 16 88.5 28.5t94.5 16.5l8 -9v-305q25 27 61.5 45.5t78.5 18.5q59 0 101 -31t65 -87t23 -131q0 -83 -31.5 -143.5t-88.5 -93t-135 -32.5q-37 0 -74 6v-197zM292 33q57 0 91 55t34 149 q0 93 -28 145t-85 52q-25 0 -45.5 -9t-40.5 -27v-344q30 -21 74 -21z" />
<glyph unicode="&#xff;" horiz-adv-x="551" d="M471 674q0 -32 -20 -55t-53 -23q-27 0 -43.5 18.5t-16.5 44.5q0 32 21.5 55t52.5 23q26 0 42.5 -17.5t16.5 -45.5zM250 674q0 -32 -20 -55t-53 -23q-27 0 -43.5 18.5t-16.5 44.5q0 32 21.5 55t52.5 23q26 0 42.5 -17.5t16.5 -45.5zM15 498h263l2 -18l-68 -28l105 -332 l111 332l-73 28l2 18h182l2 -18q-9 -4 -25.5 -10.5t-21.5 -11.5q-12 -7 -19.5 -17t-12.5 -25l-159 -446q-42 -119 -86 -173.5t-102 -54.5q-34 0 -55 21.5t-21 53.5q0 27 14 49l7 3q13 -8 29 -14.5t33 -6.5q46 0 89 41.5t65 108.5l-39 -5l-149 422q-10 30 -31 42q-4 5 -19 12 t-25 11z" />
<glyph unicode="&#x100;" horiz-adv-x="714" d="M199 816v67h314v-67h-314zM317 688h80l214 -604q7 -21 17.5 -30t27.5 -16l41 -15l-2 -23h-288l-2 23l79 25l-58 172l-228 -3l-57 -168l79 -26l-2 -23h-199l-2 23q10 4 28 10t24 10q24 12 34 41zM213 261l200 -1l-100 296z" />
<glyph unicode="&#x101;" horiz-adv-x="544" d="M118 628v63h314v-63h-314zM288 508q79 0 122.5 -40.5t43.5 -118.5q0 -16 -0.5 -45.5t-1.5 -63.5t-1.5 -65t-0.5 -51q0 -32 9.5 -49t37.5 -17q17 0 39 5l4 -12q-20 -30 -51 -45.5t-65 -15.5q-37 0 -62.5 18.5t-32.5 48.5q-25 -29 -64 -48t-85 -19q-58 0 -94.5 30.5 t-36.5 83.5q0 50 35 86.5t98 57t146 21.5q0 45 0.5 78.5t0.5 37.5q0 80 -69 80q-36 0 -58 -23.5t-22 -60.5q0 -9 1 -20t4 -23q-15 -8 -29.5 -11t-27.5 -3q-27 0 -44 11.5t-17 34.5t18.5 47.5t50 45t71 33t81.5 12.5zM176 126q0 -34 18 -51t49 -17q25 0 47.5 11t36.5 26 q0 24 0.5 62.5t0.5 79.5q-70 -5 -111 -33.5t-41 -77.5z" />
<glyph unicode="&#x102;" horiz-adv-x="714" d="M477 918l5 2l17 -4q-10 -64 -47.5 -99.5t-93.5 -35.5q-54 0 -88.5 36t-40.5 100l21 4q9 -28 39 -44t75 -16q41 0 71.5 15.5t41.5 41.5zM317 688h80l214 -604q7 -21 17.5 -30t27.5 -16l41 -15l-2 -23h-288l-2 23l79 25l-58 172l-228 -3l-57 -168l79 -26l-2 -23h-199l-2 23 q10 4 28 10t24 10q24 12 34 41zM213 261l200 -1l-100 296z" />
<glyph unicode="&#x103;" horiz-adv-x="544" d="M392 744l5 2l17 -4q-8 -71 -46 -112.5t-95 -41.5t-93 42t-40 113l21 3q9 -35 40 -55.5t77 -20.5q42 0 72.5 19.5t41.5 54.5zM288 508q79 0 122.5 -40.5t43.5 -118.5q0 -16 -0.5 -45.5t-1.5 -63.5t-1.5 -65t-0.5 -51q0 -32 9.5 -49t37.5 -17q17 0 39 5l4 -12 q-20 -30 -51 -45.5t-65 -15.5q-37 0 -62.5 18.5t-32.5 48.5q-25 -29 -64 -48t-85 -19q-58 0 -94.5 30.5t-36.5 83.5q0 50 35 86.5t98 57t146 21.5q0 45 0.5 78.5t0.5 37.5q0 80 -69 80q-36 0 -58 -23.5t-22 -60.5q0 -9 1 -20t4 -23q-15 -8 -29.5 -11t-27.5 -3 q-27 0 -44 11.5t-17 34.5t18.5 47.5t50 45t71 33t81.5 12.5zM176 126q0 -34 18 -51t49 -17q25 0 47.5 11t36.5 26q0 24 0.5 62.5t0.5 79.5q-70 -5 -111 -33.5t-41 -77.5z" />
<glyph unicode="&#x104;" horiz-adv-x="715" d="M682 -182q-18 -28 -47.5 -43.5t-63.5 -15.5q-42 0 -68 24.5t-26 65.5q0 50 41.5 88.5t119.5 62.5h-231l-2 23l79 25l-58 172l-228 -3l-57 -168l79 -26l-2 -23h-199l-2 23q10 4 28 10t24 10q24 12 34 41l214 604h80l214 -604q7 -21 17.5 -30t27.5 -16l41 -15l-2 -23 q-57 -24 -86.5 -57.5t-29.5 -68.5q0 -23 13.5 -36t37.5 -13q23 0 48 5zM213 261l200 -1l-100 296z" />
<glyph unicode="&#x105;" horiz-adv-x="544" d="M508 -182q-18 -27 -45 -43t-62 -16q-43 0 -70.5 24t-27.5 64q0 47 38.5 81.5t95.5 62.5q-6 -1 -13 -1q-37 0 -62.5 18.5t-32.5 48.5q-25 -29 -64 -48t-85 -19q-58 0 -94.5 30.5t-36.5 83.5q0 50 35 86.5t98 57t146 21.5q0 45 0.5 78.5t0.5 37.5q0 80 -69 80 q-36 0 -58 -23.5t-22 -60.5q0 -9 1 -20t4 -23q-15 -8 -29.5 -11t-27.5 -3q-27 0 -44 11.5t-17 34.5t18.5 47.5t50 45t71 33t81.5 12.5q79 0 122.5 -40.5t43.5 -118.5q0 -16 -0.5 -45.5t-1.5 -63.5t-1.5 -65t-0.5 -51q0 -32 9.5 -49t37.5 -17q17 0 39 5l4 -12q-8 -12 -18 -22 q-25 -27 -52 -51t-46 -49t-19 -56q0 -23 15 -35.5t41 -12.5q22 0 43 5zM176 126q0 -34 18 -51t49 -17q25 0 47.5 11t36.5 26q0 24 0.5 62.5t0.5 79.5q-70 -5 -111 -33.5t-41 -77.5z" />
<glyph unicode="&#x106;" horiz-adv-x="670" d="M479 923l11 1q21 -7 38.5 -22.5t17.5 -33.5q0 -25 -26 -42.5t-67.5 -28.5t-89.5 -17t-93 -7l-5 18q67 29 124 66.5t90 65.5zM412 -10q-106 0 -188 40.5t-128.5 118t-46.5 189.5q0 83 27.5 150t76.5 113.5t114 71.5t139 25q108 0 186 -31q7 -29 7 -74q0 -24 -3 -57.5 t-9 -62.5l-24 -2q-21 47 -41.5 90t-41.5 79q-15 4 -26.5 5.5t-33.5 1.5q-66 0 -120.5 -38.5t-86 -108t-31.5 -162.5q1 -90 31.5 -157t84.5 -104t125 -37q25 0 38.5 2t26.5 5q25 36 48 78.5t44 85.5h24q4 -19 6 -43t2 -47q0 -28 -2 -55t-6 -51q-41 -11 -89 -18t-103 -7z" />
<glyph unicode="&#x107;" horiz-adv-x="478" d="M395 719q0 -23 -28.5 -50t-75 -53t-101.5 -47l-12 15q36 44 68 92t48 81l9 5q5 1 11 1h11q29 0 49.5 -10t20.5 -34zM461 103q-25 -46 -72 -79.5t-121 -33.5q-69 0 -120 30.5t-79 85.5t-28 130q0 80 31 141t85.5 96t125.5 35q50 0 88 -17t59.5 -46t21.5 -64q0 -29 -18 -46 t-47 -17q-14 0 -24.5 2.5t-23.5 8.5q2 8 2 14q0 122 -68 122q-46 0 -74 -51t-28 -133q0 -101 39.5 -154t117.5 -53q36 0 65.5 11t53.5 30z" />
<glyph unicode="&#x108;" horiz-adv-x="670" d="M558 782l-16 -10q-32 18 -69.5 37.5t-74.5 37.5q-32 -17 -71 -38t-76 -37l-13 13q33 35 67 73t52 64l9 6h73q30 -34 62 -72.5t57 -73.5zM412 -10q-106 0 -188 40.5t-128.5 118t-46.5 189.5q0 83 27.5 150t76.5 113.5t114 71.5t139 25q108 0 186 -31q7 -29 7 -74 q0 -24 -3 -57.5t-9 -62.5l-24 -2q-21 47 -41.5 90t-41.5 79q-15 4 -26.5 5.5t-33.5 1.5q-66 0 -120.5 -38.5t-86 -108t-31.5 -162.5q1 -90 31.5 -157t84.5 -104t125 -37q25 0 38.5 2t26.5 5q25 36 48 78.5t44 85.5h24q4 -19 6 -43t2 -47q0 -28 -2 -55t-6 -51 q-41 -11 -89 -18t-103 -7z" />
<glyph unicode="&#x109;" horiz-adv-x="478" d="M425 584l-15 -10q-31 24 -65.5 49.5t-69.5 48.5q-29 -22 -66 -49t-71 -49l-13 13q30 42 61 88t48 76l9 7h74q28 -40 56.5 -86t51.5 -88zM461 103q-25 -46 -72 -79.5t-121 -33.5q-69 0 -120 30.5t-79 85.5t-28 130q0 80 31 141t85.5 96t125.5 35q50 0 88 -17t59.5 -46 t21.5 -64q0 -29 -18 -46t-47 -17q-14 0 -24.5 2.5t-23.5 8.5q2 8 2 14q0 122 -68 122q-46 0 -74 -51t-28 -133q0 -101 39.5 -154t117.5 -53q36 0 65.5 11t53.5 30z" />
<glyph unicode="&#x10a;" horiz-adv-x="670" d="M476 856q0 -33 -23.5 -56.5t-60.5 -23.5q-32 0 -52 19t-20 46q0 32 25.5 55.5t61.5 23.5q30 0 49.5 -17.5t19.5 -46.5zM412 -10q-106 0 -188 40.5t-128.5 118t-46.5 189.5q0 83 27.5 150t76.5 113.5t114 71.5t139 25q108 0 186 -31q7 -29 7 -74q0 -24 -3 -57.5t-9 -62.5 l-24 -2q-21 47 -41.5 90t-41.5 79q-15 4 -26.5 5.5t-33.5 1.5q-66 0 -120.5 -38.5t-86 -108t-31.5 -162.5q1 -90 31.5 -157t84.5 -104t125 -37q25 0 38.5 2t26.5 5q25 36 48 78.5t44 85.5h24q4 -19 6 -43t2 -47q0 -28 -2 -55t-6 -51q-41 -11 -89 -18t-103 -7z" />
<glyph unicode="&#x10b;" horiz-adv-x="478" d="M349 673q0 -35 -22 -59.5t-58 -24.5q-30 0 -49 20t-19 49q0 33 24.5 57.5t58.5 24.5q28 0 46.5 -18.5t18.5 -48.5zM461 103q-25 -46 -72 -79.5t-121 -33.5q-69 0 -120 30.5t-79 85.5t-28 130q0 80 31 141t85.5 96t125.5 35q50 0 88 -17t59.5 -46t21.5 -64q0 -29 -18 -46 t-47 -17q-14 0 -24.5 2.5t-23.5 8.5q2 8 2 14q0 122 -68 122q-46 0 -74 -51t-28 -133q0 -101 39.5 -154t117.5 -53q36 0 65.5 11t53.5 30z" />
<glyph unicode="&#x10c;" horiz-adv-x="670" d="M437 778l-9 -6h-72q-31 34 -62.5 72.5t-56.5 72.5l15 11q33 -18 70.5 -38t74.5 -37q31 17 70.5 37.5t76.5 37.5l13 -13q-33 -35 -67 -73.5t-53 -63.5zM412 -10q-106 0 -188 40.5t-128.5 118t-46.5 189.5q0 83 27.5 150t76.5 113.5t114 71.5t139 25q108 0 186 -31 q7 -29 7 -74q0 -24 -3 -57.5t-9 -62.5l-24 -2q-21 47 -41.5 90t-41.5 79q-15 4 -26.5 5.5t-33.5 1.5q-66 0 -120.5 -38.5t-86 -108t-31.5 -162.5q1 -90 31.5 -157t84.5 -104t125 -37q25 0 38.5 2t26.5 5q25 36 48 78.5t44 85.5h24q4 -19 6 -43t2 -47q0 -28 -2 -55t-6 -51 q-41 -11 -89 -18t-103 -7z" />
<glyph unicode="&#x10d;" horiz-adv-x="478" d="M316 582l-9 -7h-73q-28 40 -57 86t-52 88l16 10q30 -24 64.5 -49.5t69.5 -48.5q30 23 66.5 49.5t70.5 48.5l13 -13q-30 -42 -60.5 -88t-48.5 -76zM461 103q-25 -46 -72 -79.5t-121 -33.5q-69 0 -120 30.5t-79 85.5t-28 130q0 80 31 141t85.5 96t125.5 35q50 0 88 -17 t59.5 -46t21.5 -64q0 -29 -18 -46t-47 -17q-14 0 -24.5 2.5t-23.5 8.5q2 8 2 14q0 122 -68 122q-46 0 -74 -51t-28 -133q0 -101 39.5 -154t117.5 -53q36 0 65.5 11t53.5 30z" />
<glyph unicode="&#x10e;" horiz-adv-x="724" d="M396 778l-9 -6h-72q-31 34 -62.5 72.5t-56.5 72.5l15 11q33 -18 70.5 -38t74.5 -37q32 17 71 37.5t76 37.5l13 -13q-33 -35 -67 -73.5t-53 -63.5zM321 642h-67v-596h67q106 0 163 77t57 221q1 144 -56.5 221t-163.5 77zM674 344q0 -110 -43.5 -187t-122 -117t-182.5 -40 h-278l-2 23l41 14q21 9 29.5 18t8.5 29v542q0 9 -10 11l-69 28l2 23h278q105 0 183.5 -40.5t121.5 -117t43 -186.5z" />
<glyph unicode="&#x10f;" horiz-adv-x="754" d="M584 51q-18 -27 -48 -44t-68 -17t-61.5 18t-33.5 50q-21 -28 -57.5 -48t-83.5 -20q-56 0 -99 29.5t-67.5 84.5t-24.5 131q0 86 33.5 147t91.5 93.5t131 32.5q38 0 71 -8v176l-84 23l-2 14q41 17 98 29t105 16l8 -9v-620q0 -36 11 -53.5t38 -17.5q12 0 21 1.5t17 3.5z M713 693q0 -31 -15 -62t-38.5 -56t-47.5 -38l-11 9q12 16 22.5 42t15.5 53q-20 4 -32 18t-12 34q0 26 17 43.5t42 17.5q27 0 43 -16.5t16 -44.5zM171 256q0 -94 31.5 -146t84.5 -52q24 0 45.5 11t35.5 25v351q-27 20 -63 20q-61 0 -97.5 -53.5t-36.5 -155.5z" />
<glyph unicode="&#x110;" horiz-adv-x="731" d="M436 328h-175v-282h67q106 0 163 77t57 221q1 144 -56.5 221t-163.5 77h-67v-271h175v-43zM681 344q0 -110 -43.5 -187t-122 -117t-182.5 -40h-278l-2 23l41 14q21 9 29.5 18t8.5 29v244h-83v43h83v255q0 9 -11 11l-68 28l2 23h278q105 0 183.5 -40.5t121.5 -117 t43 -186.5z" />
<glyph unicode="&#x111;" horiz-adv-x="588" d="M584 51q-18 -27 -48 -44t-68 -17t-61.5 18t-33.5 50q-21 -28 -57.5 -48t-83.5 -20q-56 0 -99 29.5t-67.5 84.5t-24.5 131q0 86 33.5 147t91.5 93.5t131 32.5q38 0 71 -8v64h-180v42h180v70l-84 23l-2 14q41 17 98 29t105 16l8 -9v-143h91v-42h-91v-435q0 -36 11 -53.5 t38 -17.5q12 0 21 1.5t17 3.5zM171 256q0 -94 31.5 -146t84.5 -52q24 0 45.5 11t35.5 25v351q-27 20 -63 20q-61 0 -97.5 -53.5t-36.5 -155.5z" />
<glyph unicode="&#x112;" horiz-adv-x="603" d="M166 815v68h314v-68h-314zM254 363l197 8l-3 -58l-194 8v-276h112q21 0 43.5 1t39.5 4q5 6 12 21t14 31.5t12 27.5l32 81h24q10 -50 10 -111q0 -31 -2 -54.5t-6 -45.5h-497l-2 23l41 14q21 9 29.5 18t8.5 29v542q0 9 -10 11l-69 28l2 23h487q4 -22 6 -45.5t2 -54.5 q0 -32 -2.5 -58.5t-7.5 -52.5h-24l-32 81q-5 11 -12 27.5t-14 31.5t-12 21q-38 5 -83 5h-102v-280z" />
<glyph unicode="&#x113;" horiz-adv-x="500" d="M109 628v63h313v-63h-313zM464 103q-25 -48 -73 -80.5t-121 -32.5q-69 0 -120.5 30.5t-80 86t-28.5 131.5q0 81 31 141.5t84 94.5t119 34q55 0 98 -23.5t67.5 -66.5t24.5 -102q0 -30 -1 -49l-13 -13h-279q10 -180 152 -180q36 0 68.5 11t57.5 30zM269 465 q-31 0 -53 -23.5t-33.5 -63.5t-11.5 -89l167 7q1 17 1 38q0 69 -17.5 100t-52.5 31z" />
<glyph unicode="&#x114;" horiz-adv-x="603" d="M440 918l5 2l17 -5q-10 -63 -47.5 -98.5t-93.5 -35.5q-54 0 -88.5 36t-40.5 99l21 5q9 -28 39 -44.5t74 -16.5q42 0 72.5 15.5t41.5 42.5zM254 363l197 8l-3 -58l-194 8v-276h112q21 0 43.5 1t39.5 4q5 6 12 21t14 31.5t12 27.5l32 81h24q10 -50 10 -111q0 -31 -2 -54.5 t-6 -45.5h-497l-2 23l41 14q21 9 29.5 18t8.5 29v542q0 9 -10 11l-69 28l2 23h487q4 -22 6 -45.5t2 -54.5q0 -32 -2.5 -58.5t-7.5 -52.5h-24l-32 81q-5 11 -12 27.5t-14 31.5t-12 21q-38 5 -83 5h-102v-280z" />
<glyph unicode="&#x115;" horiz-adv-x="500" d="M382 744l5 2l17 -4q-8 -71 -46 -112.5t-95 -41.5q-56 0 -92 42t-40 113l20 3q9 -35 40 -55.5t78 -20.5q42 0 72 19.5t41 54.5zM464 103q-25 -48 -73 -80.5t-121 -32.5q-69 0 -120.5 30.5t-80 86t-28.5 131.5q0 81 31 141.5t84 94.5t119 34q55 0 98 -23.5t67.5 -66.5 t24.5 -102q0 -30 -1 -49l-13 -13h-279q10 -180 152 -180q36 0 68.5 11t57.5 30zM269 465q-31 0 -53 -23.5t-33.5 -63.5t-11.5 -89l167 7q1 17 1 38q0 69 -17.5 100t-52.5 31z" />
<glyph unicode="&#x116;" horiz-adv-x="603" d="M406 856q0 -34 -23.5 -57t-60.5 -23q-32 0 -52.5 19t-20.5 46q0 31 26 54.5t62 23.5q29 0 49 -17.5t20 -45.5zM254 363l197 8l-3 -58l-194 8v-276h112q21 0 43.5 1t39.5 4q5 6 12 21t14 31.5t12 27.5l32 81h24q10 -50 10 -111q0 -31 -2 -54.5t-6 -45.5h-497l-2 23l41 14 q21 9 29.5 18t8.5 29v542q0 9 -10 11l-69 28l2 23h487q4 -22 6 -45.5t2 -54.5q0 -32 -2.5 -58.5t-7.5 -52.5h-24l-32 81q-5 11 -12 27.5t-14 31.5t-12 21q-38 5 -83 5h-102v-280z" />
<glyph unicode="&#x117;" horiz-adv-x="500" d="M344 673q0 -35 -22.5 -59.5t-58.5 -24.5q-30 0 -49 20t-19 49q0 33 24.5 57.5t59.5 24.5q27 0 46 -18.5t19 -48.5zM464 103q-25 -48 -73 -80.5t-121 -32.5q-69 0 -120.5 30.5t-80 86t-28.5 131.5q0 81 31 141.5t84 94.5t119 34q55 0 98 -23.5t67.5 -66.5t24.5 -102 q0 -30 -1 -49l-13 -13h-279q10 -180 152 -180q36 0 68.5 11t57.5 30zM269 465q-31 0 -53 -23.5t-33.5 -63.5t-11.5 -89l167 7q1 17 1 38q0 69 -17.5 100t-52.5 31z" />
<glyph unicode="&#x118;" horiz-adv-x="603" d="M254 363l197 8l-3 -58l-194 8v-276h112q21 0 43.5 1t39.5 4q5 6 12 21t14 31.5t12 27.5l32 81h24q10 -50 10 -111q0 -31 -2 -54.5t-6 -45.5q-56 -24 -85.5 -57.5t-29.5 -68.5q0 -23 13.5 -36t37.5 -13q23 0 47 5l4 -12q-18 -28 -47 -43.5t-63 -15.5q-42 0 -68 24.5 t-26 65.5q0 50 41.5 88.5t118.5 62.5h-440l-2 23l41 14q21 9 29.5 18t8.5 29v542q0 9 -10 11l-69 28l2 23h487q4 -22 6 -45.5t2 -54.5q0 -32 -2.5 -58.5t-7.5 -52.5h-24l-32 81q-5 11 -12 27.5t-14 31.5t-12 21q-38 5 -83 5h-102v-280z" />
<glyph unicode="&#x119;" horiz-adv-x="500" d="M383 -182q-16 -24 -43.5 -41.5t-63.5 -17.5q-41 0 -69 23t-28 63q0 47 38.5 83t98.5 66q-22 -4 -46 -4q-69 0 -120.5 30.5t-80 86t-28.5 131.5q0 81 31 141.5t84 94.5t119 34q55 0 98 -23.5t67.5 -66.5t24.5 -102q0 -30 -1 -49l-13 -13h-279q10 -180 152 -180 q36 0 68.5 11t57.5 30l14 -12q-15 -27 -34 -48v0q-32 -35 -66.5 -64t-58.5 -57t-24 -61q0 -48 56 -48q22 0 42 5zM269 465q-31 0 -53 -23.5t-33.5 -63.5t-11.5 -89l167 7q1 17 1 38q0 69 -17.5 100t-52.5 31z" />
<glyph unicode="&#x11a;" horiz-adv-x="603" d="M367 778l-9 -7h-72q-31 34 -62.5 72.5t-56.5 73.5l15 11q33 -18 70 -38t75 -38q31 18 70.5 38.5t76.5 37.5l13 -14q-34 -35 -67.5 -73t-52.5 -63zM254 363l197 8l-3 -58l-194 8v-276h112q21 0 43.5 1t39.5 4q5 6 12 21t14 31.5t12 27.5l32 81h24q10 -50 10 -111 q0 -31 -2 -54.5t-6 -45.5h-497l-2 23l41 14q21 9 29.5 18t8.5 29v542q0 9 -10 11l-69 28l2 23h487q4 -22 6 -45.5t2 -54.5q0 -32 -2.5 -58.5t-7.5 -52.5h-24l-32 81q-5 11 -12 27.5t-14 31.5t-12 21q-38 5 -83 5h-102v-280z" />
<glyph unicode="&#x11b;" horiz-adv-x="500" d="M311 582l-9 -7h-74q-28 40 -57 86t-51 88l15 10q30 -24 65 -49.5t69 -48.5q30 23 66.5 49.5t71.5 48.5l13 -13q-31 -42 -61.5 -88t-47.5 -76zM464 103q-25 -48 -73 -80.5t-121 -32.5q-69 0 -120.5 30.5t-80 86t-28.5 131.5q0 81 31 141.5t84 94.5t119 34q55 0 98 -23.5 t67.5 -66.5t24.5 -102q0 -30 -1 -49l-13 -13h-279q10 -180 152 -180q36 0 68.5 11t57.5 30zM269 465q-31 0 -53 -23.5t-33.5 -63.5t-11.5 -89l167 7q1 17 1 38q0 69 -17.5 100t-52.5 31z" />
<glyph unicode="&#x11c;" horiz-adv-x="721" d="M569 782l-16 -10q-32 18 -69.5 37.5t-75.5 37.5q-31 -17 -70 -38t-76 -37l-14 13q34 35 68 73t52 64l9 6h73q30 -34 62 -72.5t57 -73.5zM405 -10q-102 0 -182.5 40t-127 117.5t-46.5 190.5q0 85 29 152t79.5 113t117 70.5t142.5 24.5q112 0 191 -31q7 -29 7 -74 q0 -24 -3 -57.5t-9 -62.5l-24 -2q-13 23 -27.5 57t-29.5 65t-26 47q-16 5 -32 6.5t-40 1.5q-64 0 -119 -37.5t-89 -106.5t-34 -163t32 -161.5t86.5 -103.5t121.5 -36q41 0 75 10v217l-79 30l2 23h264l2 -23l-41 -14q-15 -6 -20.5 -16t-5.5 -31v-215q-48 -15 -95 -23t-119 -8 z" />
<glyph unicode="&#x11d;" horiz-adv-x="512" d="M404 584l-15 -10q-31 24 -65.5 49.5t-69.5 48.5q-29 -22 -66 -49t-71 -49l-13 13q30 42 61 88t48 76l9 7h74q28 -40 56.5 -86t51.5 -88zM49 318q0 54 27 97t74 68t107 25q68 0 117 -34q20 36 47 57t50 21q32 0 32 -43q0 -22 -5 -39q-3 -14 -23 -14q-16 -1 -37 -1t-39 -2 q21 -23 33 -53.5t12 -66.5q0 -55 -25 -97t-70.5 -66t-105.5 -24q-24 0 -46 4q-11 -18 -11 -36q0 -21 13 -29t42 -10l92 -7q77 -6 120.5 -41.5t43.5 -98.5q0 -53 -33 -95.5t-93 -66.5t-141 -24q-60 0 -105.5 14.5t-72 40.5t-26.5 61t28.5 60t68.5 34l9 -9q-9 -15 -9 -30 q2 -59 45.5 -93.5t109.5 -34.5q60 0 96.5 26.5t36.5 66.5q0 33 -23.5 52t-66.5 24l-113 13q-58 7 -83.5 31t-25.5 60q0 29 16 55.5t48 45.5q-52 19 -83 61t-31 98zM318 324q0 75 -17 109.5t-52 34.5t-54.5 -34.5t-19.5 -103.5q0 -143 73 -144q35 0 52.5 33.5t17.5 104.5z " />
<glyph unicode="&#x11e;" horiz-adv-x="721" d="M521 918l5 2l17 -4q-10 -64 -47.5 -99.5t-93.5 -35.5q-54 0 -88.5 36t-40.5 100l21 4q9 -28 39 -44t75 -16q41 0 71.5 15.5t41.5 41.5zM405 -10q-102 0 -182.5 40t-127 117.5t-46.5 190.5q0 85 29 152t79.5 113t117 70.5t142.5 24.5q112 0 191 -31q7 -29 7 -74 q0 -24 -3 -57.5t-9 -62.5l-24 -2q-13 23 -27.5 57t-29.5 65t-26 47q-16 5 -32 6.5t-40 1.5q-64 0 -119 -37.5t-89 -106.5t-34 -163t32 -161.5t86.5 -103.5t121.5 -36q41 0 75 10v217l-79 30l2 23h264l2 -23l-41 -14q-15 -6 -20.5 -16t-5.5 -31v-215q-48 -15 -95 -23t-119 -8 z" />
<glyph unicode="&#x11f;" horiz-adv-x="512" d="M370 744l5 2l17 -4q-8 -71 -46 -112.5t-95 -41.5q-56 0 -92.5 42t-39.5 113l20 3q9 -35 40 -55.5t78 -20.5q41 0 71.5 19.5t41.5 54.5zM49 318q0 54 27 97t74 68t107 25q68 0 117 -34q20 36 47 57t50 21q32 0 32 -43q0 -22 -5 -39q-3 -14 -23 -14q-16 -1 -37 -1t-39 -2 q21 -23 33 -53.5t12 -66.5q0 -55 -25 -97t-70.5 -66t-105.5 -24q-24 0 -46 4q-11 -18 -11 -36q0 -21 13 -29t42 -10l92 -7q77 -6 120.5 -41.5t43.5 -98.5q0 -53 -33 -95.5t-93 -66.5t-141 -24q-60 0 -105.5 14.5t-72 40.5t-26.5 61t28.5 60t68.5 34l9 -9q-9 -15 -9 -30 q2 -59 45.5 -93.5t109.5 -34.5q60 0 96.5 26.5t36.5 66.5q0 33 -23.5 52t-66.5 24l-113 13q-58 7 -83.5 31t-25.5 60q0 29 16 55.5t48 45.5q-52 19 -83 61t-31 98zM318 324q0 75 -17 109.5t-52 34.5t-54.5 -34.5t-19.5 -103.5q0 -143 73 -144q35 0 52.5 33.5t17.5 104.5z " />
<glyph unicode="&#x120;" horiz-adv-x="721" d="M487 856q0 -33 -23.5 -56.5t-60.5 -23.5q-32 0 -52.5 19t-20.5 46q0 32 26 55.5t62 23.5q30 0 49.5 -17.5t19.5 -46.5zM405 -10q-102 0 -182.5 40t-127 117.5t-46.5 190.5q0 85 29 152t79.5 113t117 70.5t142.5 24.5q112 0 191 -31q7 -29 7 -74q0 -24 -3 -57.5t-9 -62.5 l-24 -2q-13 23 -27.5 57t-29.5 65t-26 47q-16 5 -32 6.5t-40 1.5q-64 0 -119 -37.5t-89 -106.5t-34 -163t32 -161.5t86.5 -103.5t121.5 -36q41 0 75 10v217l-79 30l2 23h264l2 -23l-41 -14q-15 -6 -20.5 -16t-5.5 -31v-215q-48 -15 -95 -23t-119 -8z" />
<glyph unicode="&#x121;" horiz-adv-x="512" d="M328 673q0 -35 -22 -59.5t-58 -24.5q-30 0 -49 20t-19 49q0 33 24.5 57.5t58.5 24.5q28 0 46.5 -18.5t18.5 -48.5zM49 318q0 54 27 97t74 68t107 25q68 0 117 -34q20 36 47 57t50 21q32 0 32 -43q0 -22 -5 -39q-3 -14 -23 -14q-16 -1 -37 -1t-39 -2q21 -23 33 -53.5 t12 -66.5q0 -55 -25 -97t-70.5 -66t-105.5 -24q-24 0 -46 4q-11 -18 -11 -36q0 -21 13 -29t42 -10l92 -7q77 -6 120.5 -41.5t43.5 -98.5q0 -53 -33 -95.5t-93 -66.5t-141 -24q-60 0 -105.5 14.5t-72 40.5t-26.5 61t28.5 60t68.5 34l9 -9q-9 -15 -9 -30q2 -59 45.5 -93.5 t109.5 -34.5q60 0 96.5 26.5t36.5 66.5q0 33 -23.5 52t-66.5 24l-113 13q-58 7 -83.5 31t-25.5 60q0 29 16 55.5t48 45.5q-52 19 -83 61t-31 98zM318 324q0 75 -17 109.5t-52 34.5t-54.5 -34.5t-19.5 -103.5q0 -143 73 -144q35 0 52.5 33.5t17.5 104.5z" />
<glyph unicode="&#x122;" horiz-adv-x="721" d="M405 -10q-102 0 -182.5 40t-127 117.5t-46.5 190.5q0 85 29 152t79.5 113t117 70.5t142.5 24.5q112 0 191 -31q7 -29 7 -74q0 -24 -3 -57.5t-9 -62.5l-24 -2q-13 23 -27.5 57t-29.5 65t-26 47q-16 5 -32 6.5t-40 1.5q-64 0 -119 -37.5t-89 -106.5t-34 -163t32 -161.5 t86.5 -103.5t121.5 -36q41 0 75 10v217l-79 30l2 23h264l2 -23l-41 -14q-15 -6 -20.5 -16t-5.5 -31v-215q-48 -15 -95 -23t-119 -8zM465 -162q0 -36 -17 -72.5t-44 -65t-55 -43.5l-11 10q12 19 24.5 49t18.5 61q-23 4 -37.5 21t-14.5 40q0 31 20 51.5t48 20.5q32 0 50 -19.5 t18 -52.5z" />
<glyph unicode="&#x123;" horiz-adv-x="512" d="M185 662q0 36 17.5 72t44 65t54.5 44l12 -11q-13 -18 -25.5 -48t-17.5 -61q23 -5 37.5 -21.5t14.5 -39.5q0 -31 -20 -52t-49 -21q-31 0 -49.5 19.5t-18.5 53.5zM49 318q0 54 27 97t74 68t107 25q68 0 117 -34q20 36 47 57t50 21q32 0 32 -43q0 -22 -5 -39q-3 -14 -23 -14 q-16 -1 -37 -1t-39 -2q21 -23 33 -53.5t12 -66.5q0 -55 -25 -97t-70.5 -66t-105.5 -24q-24 0 -46 4q-11 -18 -11 -36q0 -21 13 -29t42 -10l92 -7q77 -6 120.5 -41.5t43.5 -98.5q0 -53 -33 -95.5t-93 -66.5t-141 -24q-60 0 -105.5 14.5t-72 40.5t-26.5 61t28.5 60t68.5 34 l9 -9q-9 -15 -9 -30q2 -59 45.5 -93.5t109.5 -34.5q60 0 96.5 26.5t36.5 66.5q0 33 -23.5 52t-66.5 24l-113 13q-58 7 -83.5 31t-25.5 60q0 29 16 55.5t48 45.5q-52 19 -83 61t-31 98zM318 324q0 75 -17 109.5t-52 34.5t-54.5 -34.5t-19.5 -103.5q0 -143 73 -144 q35 0 52.5 33.5t17.5 104.5z" />
<glyph unicode="&#x124;" horiz-adv-x="798" d="M559 782l-15 -10q-32 18 -69.5 37.5t-75.5 37.5q-31 -17 -70 -38t-76 -37l-14 13q34 35 67.5 73t52.5 64l9 6h72q31 -34 62.5 -72.5t56.5 -73.5zM254 53l79 -30l-2 -23h-283l-2 23l41 14q21 9 29.5 18t8.5 29v551l-79 30l2 23h283l2 -23l-41 -14q-20 -9 -29 -18t-9 -29 v-232h290v263l-79 30l2 23h282l2 -23l-41 -14q-20 -9 -28.5 -18t-8.5 -29v-551l78 -30l-2 -23h-282l-2 23l41 14q20 9 29 18t9 29v240h-290v-271z" />
<glyph unicode="&#x125;" horiz-adv-x="615" d="M4 795l-13 13q33 35 67 73t53 64l9 6h72q31 -34 62.5 -72.5t56.5 -73.5l-15 -10q-33 18 -70.5 37.5t-74.5 37.5q-32 -17 -71 -38t-76 -37zM218 47l69 -29l-2 -18h-259l-2 18l37 15q18 8 25 18.5t7 30.5v594l-64 23l-2 14q37 16 88.5 28.5t94.5 16.5l8 -9v-307 q40 34 81 50t82 16q67 0 103.5 -39t36.5 -112v-310l69 -29l-2 -18h-259l-2 18l38 15q17 8 24 18.5t7 30.5v261q0 91 -78 91q-48 0 -100 -34v-353z" />
<glyph unicode="&#x126;" horiz-adv-x="798" d="M254 372h290v116h-290v-116zM254 53l79 -30l-2 -23h-283l-2 23l41 14q21 9 29.5 18t8.5 29v404h-72v42h72v105l-79 30l2 23h283l2 -23l-41 -14q-20 -9 -29 -18t-9 -29v-74h290v105l-79 30l2 23h282l2 -23l-41 -14q-20 -9 -28.5 -18t-8.5 -29v-74h71v-42h-71v-435l78 -30 l-2 -23h-282l-2 23l41 14q20 9 29 18t9 29v240h-290v-271z" />
<glyph unicode="&#x127;" horiz-adv-x="615" d="M218 47l69 -29l-2 -18h-259l-2 18l37 15q18 8 25 18.5t7 30.5v482h-94v42h94v70l-64 23l-2 14q37 16 88.5 28.5t94.5 16.5l8 -9v-143h177v-42h-177v-122q40 34 81 50t82 16q67 0 103.5 -39t36.5 -112v-310l69 -29l-2 -18h-259l-2 18l38 15q17 8 24 18.5t7 30.5v261 q0 91 -78 91q-48 0 -100 -34v-353z" />
<glyph unicode="&#x128;" horiz-adv-x="380" d="M16 771l-17 6q-1 4 -1.5 9t-0.5 10q4 51 27 87t69 36q34 0 75.5 -13t80.5 -28.5t66 -20.5q3 3 13 17t21 28.5t15 21.5l18 -6q0 -6 0.5 -11.5t0.5 -12.5q-4 -49 -26.5 -83.5t-68.5 -34.5q-34 0 -75.5 13t-81 28t-65.5 21q-3 -2 -13.5 -15.5t-21.5 -29t-15 -22.5zM254 53 l79 -30l-2 -23h-283l-2 23l41 14q21 9 29.5 18t8.5 29v551l-79 30l2 23h283l2 -23l-41 -14q-20 -9 -29 -18t-9 -29v-551z" />
<glyph unicode="&#x129;" horiz-adv-x="320" d="M85 656q-2 -1 -12.5 -10.5t-21.5 -20t-15 -14.5l-17 5q-1 9 -1 13q2 42 24 72t67 30q18 0 39 -9t41.5 -19t34.5 -15q2 2 12.5 11.5t21 19.5t14.5 15l17 -6q1 -5 1.5 -9t0.5 -10q-3 -39 -24.5 -67.5t-66.5 -28.5q-18 0 -39.5 9t-41.5 19t-34 15zM226 47l69 -29l-2 -18 h-259l-2 18l37 15q18 8 25 18.5t7 30.5v344l-64 23l-2 14q37 16 88.5 28.5t94.5 16.5l8 -9v-452z" />
<glyph unicode="&#x12a;" horiz-adv-x="380" d="M34 816v67h313v-67h-313zM254 53l79 -30l-2 -23h-283l-2 23l41 14q21 9 29.5 18t8.5 29v551l-79 30l2 23h283l2 -23l-41 -14q-20 -9 -29 -18t-9 -29v-551z" />
<glyph unicode="&#x12b;" horiz-adv-x="320" d="M38 623v63h232v-63h-232zM226 47l69 -29l-2 -18h-259l-2 18l37 15q18 8 25 18.5t7 30.5v344l-64 23l-2 14q37 16 88.5 28.5t94.5 16.5l8 -9v-452z" />
<glyph unicode="&#x12c;" horiz-adv-x="380" d="M304 918l4 2l17 -4q-10 -64 -47.5 -99.5t-93.5 -35.5q-53 0 -88 36t-40 100l20 4q9 -28 39 -44t75 -16q42 0 72.5 15.5t41.5 41.5zM254 53l79 -30l-2 -23h-283l-2 23l41 14q21 9 29.5 18t8.5 29v551l-79 30l2 23h283l2 -23l-41 -14q-20 -9 -29 -18t-9 -29v-551z" />
<glyph unicode="&#x12d;" horiz-adv-x="320" d="M276 734q-7 -70 -41.5 -110t-86.5 -40q-49 0 -80.5 40.5t-34.5 111.5l20 4q7 -33 34 -52.5t67 -19.5q39 0 66 18.5t35 50.5l4 2zM226 47l69 -29l-2 -18h-259l-2 18l37 15q18 8 25 18.5t7 30.5v344l-64 23l-2 14q37 16 88.5 28.5t94.5 16.5l8 -9v-452z" />
<glyph unicode="&#x12e;" horiz-adv-x="380" d="M254 53l79 -30l-2 -23q-56 -24 -86 -57.5t-30 -68.5q0 -23 13.5 -36t38.5 -13q23 0 47 5l4 -12q-18 -28 -47 -43.5t-63 -15.5q-43 0 -68.5 24.5t-25.5 65.5q0 50 41 88.5t119 62.5h-226l-2 23l41 14q21 9 29.5 18t8.5 29v551l-79 30l2 23h283l2 -23l-41 -14 q-20 -9 -29 -18t-9 -29v-551z" />
<glyph unicode="&#x12f;" horiz-adv-x="320" d="M229 673q0 -35 -22.5 -59.5t-57.5 -24.5q-30 0 -49.5 20t-19.5 49q0 33 24.5 57.5t59.5 24.5q28 0 46.5 -18.5t18.5 -48.5zM226 47l69 -29l-2 -18q-56 -24 -86 -57.5t-30 -68.5q0 -23 14 -36t38 -13q23 0 47 5l4 -12q-18 -28 -47 -43.5t-63 -15.5q-42 0 -68 24.5 t-26 65.5q0 50 41.5 88.5t118.5 62.5h-202l-2 18l37 15q18 8 25 18.5t7 30.5v344l-64 23l-2 14q37 16 88.5 28.5t94.5 16.5l8 -9v-452z" />
<glyph unicode="&#x130;" horiz-adv-x="380" d="M275 856q0 -33 -23 -56.5t-61 -23.5q-32 0 -52 19t-20 46q0 32 25.5 55.5t61.5 23.5q30 0 49.5 -17.5t19.5 -46.5zM254 53l79 -30l-2 -23h-283l-2 23l41 14q21 9 29.5 18t8.5 29v551l-79 30l2 23h283l2 -23l-41 -14q-20 -9 -29 -18t-9 -29v-551z" />
<glyph unicode="&#x131;" horiz-adv-x="320" d="M226 47l69 -29l-2 -18h-259l-2 18l37 15q18 8 25 18.5t7 30.5v344l-64 23l-2 14q37 16 88.5 28.5t94.5 16.5l8 -9v-452z" />
<glyph unicode="&#x132;" horiz-adv-x="711" d="M254 53l79 -30l-2 -23h-283l-2 23l41 14q21 9 29.5 18t8.5 29v551l-79 30l2 23h283l2 -23l-41 -14q-20 -9 -29 -18t-9 -29v-551zM473 635l-79 30l2 23h283l2 -23l-41 -14q-21 -9 -29.5 -18t-8.5 -29v-526q0 -66 -28 -115t-72 -82.5t-92 -50.5l-16 19q38 51 58.5 111.5 t20.5 153.5v521z" />
<glyph unicode="&#x133;" horiz-adv-x="600" d="M229 673q0 -35 -22.5 -59.5t-57.5 -24.5q-30 0 -49.5 20t-19.5 49q0 33 24.5 57.5t59.5 24.5q28 0 46.5 -18.5t18.5 -48.5zM518 670q0 -35 -22.5 -59.5t-57.5 -24.5q-30 0 -49.5 20t-19.5 49q0 33 24.5 57.5t59.5 24.5q28 0 46.5 -18.5t18.5 -48.5zM226 47l69 -29l-2 -18 h-259l-2 18l37 15q18 8 25 18.5t7 30.5v344l-64 23l-2 14q37 16 88.5 28.5t94.5 16.5l8 -9v-452zM312 -240q38 51 58.5 111.5t20.5 154.5v400l-63 23l-2 14q36 16 87.5 28.5t94.5 16.5l8 -9v-509q0 -66 -27 -115t-70.5 -82.5t-91.5 -50.5z" />
<glyph unicode="&#x134;" horiz-adv-x="364" d="M349 779l-16 -10q-32 18 -69.5 37.5t-75.5 37.5q-31 -17 -70 -38t-76 -37l-14 13q34 35 68 73t52 64l9 6h73q30 -34 62 -72.5t57 -73.5zM126 635l-79 30l2 23h283l2 -23l-41 -14q-21 -9 -29.5 -18t-8.5 -29v-526q0 -66 -28 -115t-72 -82.5t-93 -50.5l-16 19 q39 51 59.5 111.5t20.5 153.5v521z" />
<glyph unicode="&#x135;" horiz-adv-x="302" d="M260 572l-15 -10q-23 22 -48 46t-51 46q-22 -22 -49 -47t-52 -45l-13 13q20 42 40.5 89.5t32.5 78.5l9 6h74q19 -41 37.5 -88t34.5 -89zM14 -240q39 51 59.5 111.5t20.5 154.5v400l-64 23l-2 14q36 16 88 28.5t94 16.5l9 -9v-509q0 -66 -27.5 -115t-70.5 -82.5t-92 -50.5 z" />
<glyph unicode="&#x136;" horiz-adv-x="724" d="M254 53l79 -30l-2 -23h-283l-2 23l41 14q21 9 29.5 18t8.5 29v551l-79 30l2 23h283l2 -23l-41 -14q-20 -9 -29 -18t-9 -29v-249l85 1v0l195 283l-85 26l2 23h233l2 -23l-33 -11t-30 -12q-14 -7 -26 -17.5t-25 -27.5l-153 -193l7 4l127 -217q33 -56 56.5 -94.5t64.5 -61.5 l29 -15l-2 -20l-129 -3q-40 0 -60 16.5t-38 48.5l-136 247h-84v-256zM453 -162q0 -36 -17.5 -72.5t-44 -65t-54.5 -43.5l-12 10q13 19 25.5 49t17.5 61q-23 4 -37 21t-14 40q0 31 19.5 51.5t48.5 20.5q31 0 49.5 -19.5t18.5 -52.5z" />
<glyph unicode="&#x137;" horiz-adv-x="593" d="M218 47l69 -29l-2 -18h-259l-2 18l37 15q18 8 25 18.5t7 30.5v594l-64 23l-2 14q37 17 88.5 29.5t94.5 15.5l8 -8v-470h70l124 171l-81 29l2 18h222l2 -18q-12 -5 -30.5 -12.5t-28.5 -13.5q-15 -8 -27 -18t-27 -27l-75 -83l3 3l128 -235q12 -22 24 -36.5t29 -22.5l31 -15 l-2 -20h-112q-37 0 -55.5 15t-34.5 47l-92 176h-70v-191zM394 -162q0 -36 -17.5 -72.5t-44 -65t-55.5 -43.5l-11 10q13 19 25 49t18 61q-23 4 -37.5 21t-14.5 40q0 31 20 51.5t48 20.5q32 0 50.5 -19.5t18.5 -52.5z" />
<glyph unicode="&#x138;" horiz-adv-x="594" d="M226 47l69 -29l-2 -18h-259l-2 18l37 15q18 8 25 18.5t7 30.5v344l-64 23l-2 14q37 16 88.5 28.5t94.5 16.5l8 -9v-238h60v0l151 195l-72 22l2 20h200l2 -20q-18 -5 -31 -10.5t-26 -13.5q-10 -6 -21 -16t-22 -22l-97 -108l101 -155q28 -43 49.5 -73.5t51.5 -46.5l25 -13 l-2 -20l-124 -4q-31 -1 -46.5 11.5t-31.5 36.5l-109 174h-60v-171z" />
<glyph unicode="&#x139;" horiz-adv-x="591" d="M282 923l10 1q22 -7 39 -22.5t17 -33.5q0 -25 -26 -42.5t-67 -28.5t-89 -17t-93 -7l-6 18q67 29 124 66.5t91 65.5zM125 635l-79 30l2 23h283l2 -23l-41 -14q-20 -9 -29 -18t-9 -29v-559h109q21 0 44.5 2t40.5 5q10 16 20 37t20 49l27 69h24q11 -50 11 -111 q0 -30 -2.5 -52.5t-5.5 -43.5h-494l-2 23l41 14q21 9 29.5 18t8.5 29v551z" />
<glyph unicode="&#x13a;" horiz-adv-x="312" d="M228 978l11 2q22 -8 39 -23.5t17 -33.5q0 -25 -26 -42.5t-67 -28.5t-89.5 -17t-92.5 -7l-6 18q67 29 124 66.5t90 65.5zM218 47l69 -29l-2 -18h-259l-2 18l37 15q18 8 25 18.5t7 30.5v594l-64 23l-2 14q37 17 88.5 29.5t94.5 15.5l8 -8v-703z" />
<glyph unicode="&#x13b;" horiz-adv-x="591" d="M125 635l-79 30l2 23h283l2 -23l-41 -14q-20 -9 -29 -18t-9 -29v-559h109q21 0 44.5 2t40.5 5q10 16 20 37t20 49l27 69h24q11 -50 11 -111q0 -30 -2.5 -52.5t-5.5 -43.5h-494l-2 23l41 14q21 9 29.5 18t8.5 29v551zM386 -162q0 -36 -17.5 -72.5t-44 -65t-54.5 -43.5 l-12 10q13 19 25.5 49t17.5 61q-23 4 -37.5 21t-14.5 40q0 31 20 51.5t49 20.5q31 0 49.5 -19.5t18.5 -52.5z" />
<glyph unicode="&#x13c;" horiz-adv-x="312" d="M218 47l69 -29l-2 -18h-259l-2 18l37 15q18 8 25 18.5t7 30.5v594l-64 23l-2 14q37 17 88.5 29.5t94.5 15.5l8 -8v-703zM221 -162q0 -36 -17 -72.5t-44 -65t-55 -43.5l-11 10q12 19 24.5 49t18.5 61q-23 4 -37.5 21t-14.5 40q0 31 20 51.5t48 20.5q31 0 49.5 -19.5 t18.5 -52.5z" />
<glyph unicode="&#x13d;" horiz-adv-x="593" d="M551 676q0 -31 -15 -62.5t-38 -56.5t-47 -38l-11 9q11 16 22 42.5t16 53.5q-20 3 -32.5 17t-12.5 34q0 27 17 44t42 17q28 0 43.5 -16t15.5 -44zM125 635l-79 30l2 23h283l2 -23l-41 -14q-20 -9 -29 -18t-9 -29v-559h109q21 0 44.5 2t40.5 5q10 16 20 37t20 49l27 69h24 q11 -50 11 -111q0 -30 -2.5 -52.5t-5.5 -43.5h-494l-2 23l41 14q21 9 29.5 18t8.5 29v551z" />
<glyph unicode="&#x13e;" horiz-adv-x="467" d="M218 47l69 -29l-2 -18h-259l-2 18l37 15q18 8 25 18.5t7 30.5v594l-64 23l-2 14q37 17 88.5 29.5t94.5 15.5l8 -8v-703zM425 697q0 -31 -15 -62t-38 -56t-48 -38l-10 9q11 16 22 42t16 53q-20 4 -32.5 18t-12.5 34q0 26 17 43.5t42 17.5q27 0 43 -16.5t16 -44.5z" />
<glyph unicode="&#x13f;" horiz-adv-x="591" d="M125 635l-79 30l2 23h283l2 -23l-41 -14q-20 -9 -29 -18t-9 -29v-559h109q21 0 44.5 2t40.5 5q10 16 20 37t20 49l27 69h24q11 -50 11 -111q0 -30 -2.5 -52.5t-5.5 -43.5h-494l-2 23l41 14q21 9 29.5 18t8.5 29v551zM553 407q0 -35 -22.5 -59.5t-58.5 -24.5 q-30 0 -49 20.5t-19 49.5q0 33 24.5 57.5t59.5 24.5q27 0 46 -18.5t19 -49.5z" />
<glyph unicode="&#x140;" horiz-adv-x="421" d="M218 47l69 -29l-2 -18h-259l-2 18l37 15q18 8 25 18.5t7 30.5v594l-64 23l-2 14q37 17 88.5 29.5t94.5 15.5l8 -8v-703zM436 403q0 -35 -22.5 -59.5t-57.5 -24.5q-30 0 -49.5 20.5t-19.5 49.5q0 33 24.5 57.5t59.5 24.5q28 0 46.5 -18.5t18.5 -49.5z" />
<glyph unicode="&#x141;" horiz-adv-x="591" d="M380 422l-126 -69v-308h109q21 0 44.5 2t40.5 5q10 16 20 37t20 49l27 69h24q11 -50 11 -111q0 -30 -2.5 -52.5t-5.5 -43.5h-494l-2 23l41 14q21 9 29.5 18t8.5 29v198l-100 -56l-22 42l122 68v299l-79 30l2 23h283l2 -23l-41 -14q-20 -9 -29 -18t-9 -29v-197l103 57z " />
<glyph unicode="&#x142;" horiz-adv-x="312" d="M218 47l69 -29l-2 -18h-259l-2 18l37 15q18 8 25 18.5t7 30.5v242l-105 -58l-22 41l127 70v299l-64 23l-2 14q37 17 88.5 29.5t94.5 15.5l8 -8v-303l102 56l23 -41l-125 -69v-346z" />
<glyph unicode="&#x143;" horiz-adv-x="743" d="M475 920l10 1q22 -7 39 -22.5t17 -33.5q0 -25 -25.5 -42.5t-67 -29t-89.5 -17t-93 -6.5l-6 18q68 29 125 66.5t90 65.5zM176 53l98 -30l-2 -23h-224l-2 23l41 14q21 9 29.5 18t8.5 29v542q0 5 -13 13t-20 10l-46 16l2 23h188l348 -526v473l-79 30l2 23h204l2 -23l-41 -14 q-21 -9 -29.5 -18t-8.5 -29v-604h-87l-371 549v-496z" />
<glyph unicode="&#x144;" horiz-adv-x="623" d="M438 719q0 -23 -28.5 -50t-75.5 -53t-102 -47l-11 15q35 44 67 92t48 81l9 5q5 1 11 1h11q29 0 50 -10t21 -34zM226 47l69 -29l-2 -18h-259l-2 18l37 15q18 8 25 18.5t7 30.5v344l-64 23l-2 14q37 16 88.5 28.5t94.5 16.5l8 -9v-57q78 66 163 66q67 0 103.5 -39 t36.5 -112v-310l69 -29l-2 -18h-259l-2 18l38 15q17 8 24 18.5t7 30.5v261q0 91 -78 91q-25 0 -50 -8.5t-50 -24.5v-354z" />
<glyph unicode="&#x145;" horiz-adv-x="743" d="M176 53l98 -30l-2 -23h-224l-2 23l41 14q21 9 29.5 18t8.5 29v542q0 5 -13 13t-20 10l-46 16l2 23h188l348 -526v473l-79 30l2 23h204l2 -23l-41 -14q-21 -9 -29.5 -18t-8.5 -29v-604h-87l-371 549v-496zM445 -162q0 -36 -17.5 -72.5t-44 -65t-54.5 -43.5l-12 10 q13 19 25.5 49t17.5 61q-23 4 -37.5 21t-14.5 40q0 31 20 51.5t49 20.5q31 0 49.5 -19.5t18.5 -52.5z" />
<glyph unicode="&#x146;" horiz-adv-x="623" d="M226 47l69 -29l-2 -18h-259l-2 18l37 15q18 8 25 18.5t7 30.5v344l-64 23l-2 14q37 16 88.5 28.5t94.5 16.5l8 -9v-57q78 66 163 66q67 0 103.5 -39t36.5 -112v-310l69 -29l-2 -18h-259l-2 18l38 15q17 8 24 18.5t7 30.5v261q0 91 -78 91q-25 0 -50 -8.5t-50 -24.5v-354z M379 -162q0 -36 -17.5 -72.5t-44 -65t-54.5 -43.5l-12 10q13 19 25.5 49t18.5 61q-24 4 -38 21t-14 40q0 31 19.5 51.5t48.5 20.5q31 0 49.5 -19.5t18.5 -52.5z" />
<glyph unicode="&#x147;" horiz-adv-x="743" d="M433 775l-9 -6h-73q-30 34 -62 72.5t-57 72.5l16 11q32 -18 69.5 -38t75.5 -37q31 17 70 37.5t76 37.5l14 -13q-34 -35 -68 -73.5t-52 -63.5zM176 53l98 -30l-2 -23h-224l-2 23l41 14q21 9 29.5 18t8.5 29v542q0 5 -13 13t-20 10l-46 16l2 23h188l348 -526v473l-79 30 l2 23h204l2 -23l-41 -14q-21 -9 -29.5 -18t-8.5 -29v-604h-87l-371 549v-496z" />
<glyph unicode="&#x148;" horiz-adv-x="623" d="M353 582l-9 -7h-74q-28 40 -56.5 86t-51.5 88l15 10q30 -24 65 -49.5t69 -48.5q30 23 66.5 49.5t71.5 48.5l13 -13q-31 -42 -61.5 -88t-47.5 -76zM226 47l69 -29l-2 -18h-259l-2 18l37 15q18 8 25 18.5t7 30.5v344l-64 23l-2 14q37 16 88.5 28.5t94.5 16.5l8 -9v-57 q78 66 163 66q67 0 103.5 -39t36.5 -112v-310l69 -29l-2 -18h-259l-2 18l38 15q17 8 24 18.5t7 30.5v261q0 91 -78 91q-25 0 -50 -8.5t-50 -24.5v-354z" />
<glyph unicode="&#x14a;" horiz-adv-x="743" d="M176 53l98 -30l-2 -23h-224l-2 23l41 14q21 9 29.5 18t8.5 29v542q0 5 -13 13t-20 10l-46 16l2 23h188l348 -526v473l-79 30l2 23h204l2 -23l-41 -14q-21 -9 -29.5 -18t-8.5 -29v-529q0 -63 -14.5 -104t-44.5 -73t-76 -68l-17 16q33 40 56.5 73t34.5 81h-26l-371 549 v-496z" />
<glyph unicode="&#x14b;" horiz-adv-x="613" d="M226 47l69 -29l-2 -18h-259l-2 18l37 15q18 8 25 18.5t7 30.5v344l-64 23l-2 14q37 16 88.5 28.5t94.5 16.5l8 -9v-57q78 66 163 66q67 0 103.5 -39t36.5 -112v-367q0 -66 -27 -115t-70.5 -82.5t-91.5 -50.5l-15 18q38 51 58.5 111.5t20.5 154.5v317q0 91 -78 91 q-25 0 -50 -8.5t-50 -24.5v-354z" />
<glyph unicode="&#x14c;" horiz-adv-x="716" d="M204 816v67h313v-67h-313zM49 344q0 112 42.5 191t113 121t157.5 42q88 0 156.5 -41t108.5 -118.5t40 -189.5t-40.5 -192.5t-110 -123.5t-159.5 -43q-91 0 -160.5 42t-108.5 121.5t-39 190.5zM182 344q0 -94 21.5 -163t61.5 -106.5t95 -37.5t94 39.5t59 110t21 162.5 q0 92 -20.5 160t-59 105t-92.5 37q-55 0 -95.5 -37.5t-62 -106.5t-22.5 -163z" />
<glyph unicode="&#x14d;" horiz-adv-x="538" d="M118 628v63h313v-63h-313zM497 250q0 -80 -30 -138t-82.5 -90t-119.5 -32q-66 0 -116.5 31.5t-79 90t-28.5 138.5t31.5 138t84 89t118.5 31q64 0 114.5 -31t79 -88.5t28.5 -138.5zM171 250q0 -112 23.5 -164.5t72.5 -52.5q50 0 75 50t25 165q0 111 -23.5 164t-70.5 53 q-49 0 -75.5 -51t-26.5 -164z" />
<glyph unicode="&#x14e;" horiz-adv-x="716" d="M477 918l4 2l17 -4q-10 -64 -47.5 -99.5t-93.5 -35.5q-53 0 -88 36t-40 100l20 4q9 -28 39 -44t75 -16q42 0 72 15.5t42 41.5zM49 344q0 112 42.5 191t113 121t157.5 42q88 0 156.5 -41t108.5 -118.5t40 -189.5t-40.5 -192.5t-110 -123.5t-159.5 -43q-91 0 -160.5 42 t-108.5 121.5t-39 190.5zM182 344q0 -94 21.5 -163t61.5 -106.5t95 -37.5t94 39.5t59 110t21 162.5q0 92 -20.5 160t-59 105t-92.5 37q-55 0 -95.5 -37.5t-62 -106.5t-22.5 -163z" />
<glyph unicode="&#x14f;" horiz-adv-x="538" d="M391 744l5 2l17 -4q-8 -71 -46 -112.5t-95 -41.5q-56 0 -92.5 42t-39.5 113l20 3q9 -35 40 -55.5t78 -20.5q41 0 71.5 19.5t41.5 54.5zM497 250q0 -80 -30 -138t-82.5 -90t-119.5 -32q-66 0 -116.5 31.5t-79 90t-28.5 138.5t31.5 138t84 89t118.5 31q64 0 114.5 -31 t79 -88.5t28.5 -138.5zM171 250q0 -112 23.5 -164.5t72.5 -52.5q50 0 75 50t25 165q0 111 -23.5 164t-70.5 53q-49 0 -75.5 -51t-26.5 -164z" />
<glyph unicode="&#x150;" horiz-adv-x="716" d="M319 926l10 1q20 -7 35 -22.5t15 -33.5q0 -24 -20.5 -41.5t-53.5 -29t-71 -17.5t-74 -7l-6 18q52 29 95.5 66.5t69.5 65.5zM535 926l11 1q19 -7 34 -22.5t15 -33.5q0 -24 -20 -41.5t-53 -29t-71.5 -17.5t-74.5 -7l-6 18q52 29 95.5 66.5t69.5 65.5zM49 344 q0 112 42.5 191t113 121t157.5 42q88 0 156.5 -41t108.5 -118.5t40 -189.5t-40.5 -192.5t-110 -123.5t-159.5 -43q-91 0 -160.5 42t-108.5 121.5t-39 190.5zM182 344q0 -94 21.5 -163t61.5 -106.5t95 -37.5t94 39.5t59 110t21 162.5q0 92 -20.5 160t-59 105t-92.5 37 q-55 0 -95.5 -37.5t-62 -106.5t-22.5 -163z" />
<glyph unicode="&#x151;" horiz-adv-x="538" d="M305 719q0 -23 -25.5 -50t-67.5 -53t-91 -47l-11 15q34 44 65.5 92t47.5 81l9 5q5 1 11 1h11q21 0 36 -10t15 -34zM471 719q0 -23 -25.5 -50t-67.5 -53t-90 -47l-12 15q35 44 66.5 92t47.5 81l8 5q6 1 11.5 1h10.5q22 0 36.5 -10t14.5 -34zM497 250q0 -80 -30 -138 t-82.5 -90t-119.5 -32q-66 0 -116.5 31.5t-79 90t-28.5 138.5t31.5 138t84 89t118.5 31q64 0 114.5 -31t79 -88.5t28.5 -138.5zM171 250q0 -112 23.5 -164.5t72.5 -52.5q50 0 75 50t25 165q0 111 -23.5 164t-70.5 53q-49 0 -75.5 -51t-26.5 -164z" />
<glyph unicode="&#x152;" horiz-adv-x="938" d="M182 342q0 -93 27 -162t76 -106.5t114 -37.5q35 0 62 16v585q-26 15 -59 15q-66 0 -115.5 -38t-77 -107.5t-27.5 -164.5zM590 363l196 8l-2 -58l-194 8v-276h112q21 0 43.5 1t39.5 4q5 6 12 21t14 31.5t12 27.5l32 81h24q10 -50 10 -111q0 -31 -2 -54.5t-6 -45.5h-420v1 q-34 -11 -73 -11q-98 0 -174.5 42t-120.5 120.5t-44 189.5q0 84 27 150t75 112t110 70t132 24q36 0 68 -11v1h410q4 -22 6 -45.5t2 -54.5q0 -32 -2.5 -58.5t-7.5 -52.5h-24l-32 81q-5 11 -12 27.5t-14 31.5t-12 21q-39 5 -83 5h-102v-280z" />
<glyph unicode="&#x153;" horiz-adv-x="831" d="M789 103q-24 -48 -70.5 -80.5t-117.5 -32.5q-58 0 -104.5 22.5t-75.5 64.5q-29 -42 -72.5 -64.5t-98.5 -22.5q-62 0 -109 31.5t-74 90t-27 138.5t29.5 138t79 89t111.5 31q111 0 168 -92q31 44 77 68t101 24q53 0 94.5 -23.5t65.5 -66.5t24 -102q0 -30 -1 -49l-13 -13 h-279q10 -180 152 -180q36 0 68.5 11t57.5 30zM170 250q0 -112 23.5 -164.5t72.5 -52.5q50 0 75 50t25 165q0 111 -23.5 164t-70.5 53q-49 0 -75.5 -51t-26.5 -164zM594 465q-31 0 -53 -23.5t-33.5 -63.5t-11.5 -89l167 7q1 17 1 38q0 69 -17.5 100t-52.5 31z" />
<glyph unicode="&#x154;" horiz-adv-x="708" d="M420 923l11 1q21 -7 38 -22.5t17 -33.5q0 -25 -25.5 -42.5t-67 -28.5t-89.5 -17t-93 -7l-6 18q68 29 125 66.5t90 65.5zM319 641h-65v-307h65q68 0 106 41t38 115q0 70 -38 110.5t-106 40.5zM254 53l79 -30l-2 -23h-283l-2 23l41 14q21 9 29.5 18t8.5 29v542q0 9 -10 11 l-69 28l2 23h290q78 0 136 -23.5t90.5 -66.5t32.5 -102q0 -46 -18 -81t-47.5 -59.5t-62.5 -38.5l70 -126q33 -57 58 -94.5t66 -61.5l27 -15l-2 -20l-127 -3q-39 0 -59.5 16t-38.5 49l-118 227q-11 -1 -13 -1h-78v-235z" />
<glyph unicode="&#x155;" horiz-adv-x="431" d="M368 719q0 -23 -28.5 -50t-75 -53t-101.5 -47l-12 15q36 44 68 92t48 81l9 5q5 1 11 1h11q29 0 49.5 -10t20.5 -34zM226 47l89 -29l-2 -18h-279l-2 18l37 15q18 8 25 18.5t7 30.5v344l-64 23l-2 14q37 16 88.5 28.5t94.5 16.5l8 -9v-76q31 41 63 63t64 22q30 0 49 -17 t19 -46q0 -27 -13 -46.5t-23 -30.5q-1 0 -7.5 -0.5l-6.5 -0.5q-19 17 -41 29t-52 16q-11 0 -26.5 -10t-25.5 -21v-334z" />
<glyph unicode="&#x156;" horiz-adv-x="708" d="M319 641h-65v-307h65q68 0 106 41t38 115q0 70 -38 110.5t-106 40.5zM448 -162q0 -36 -17.5 -72.5t-44 -65t-54.5 -43.5l-12 10q13 19 25 49t18 61q-23 4 -37.5 21t-14.5 40q0 31 20 51.5t49 20.5q31 0 49.5 -19.5t18.5 -52.5zM254 53l79 -30l-2 -23h-283l-2 23l41 14 q21 9 29.5 18t8.5 29v542q0 9 -10 11l-69 28l2 23h290q78 0 136 -23.5t90.5 -66.5t32.5 -102q0 -46 -18 -81t-47.5 -59.5t-62.5 -38.5l70 -126q33 -57 58 -94.5t66 -61.5l27 -15l-2 -20l-127 -3q-39 0 -59.5 16t-38.5 49l-118 227q-11 -1 -13 -1h-78v-235z" />
<glyph unicode="&#x157;" horiz-adv-x="431" d="M226 47l89 -29l-2 -18h-279l-2 18l37 15q18 8 25 18.5t7 30.5v344l-64 23l-2 14q37 16 88.5 28.5t94.5 16.5l8 -9v-76q31 41 63 63t64 22q30 0 49 -17t19 -46q0 -27 -13 -46.5t-23 -30.5q-1 0 -7.5 -0.5l-6.5 -0.5q-19 17 -41 29t-52 16q-11 0 -26.5 -10t-25.5 -21v-334z M232 -162q0 -36 -17 -72.5t-44 -65t-55 -43.5l-11 10q12 19 24.5 49t18.5 61q-23 4 -37.5 21t-14.5 40q0 31 20 51.5t48 20.5q31 0 49.5 -19.5t18.5 -52.5z" />
<glyph unicode="&#x158;" horiz-adv-x="708" d="M384 778l-9 -6h-72q-31 34 -62.5 72.5t-56.5 72.5l15 11q33 -18 70.5 -38t74.5 -37q31 17 70.5 37.5t76.5 37.5l13 -13q-34 -35 -67.5 -73.5t-52.5 -63.5zM319 641h-65v-307h65q68 0 106 41t38 115q0 70 -38 110.5t-106 40.5zM254 53l79 -30l-2 -23h-283l-2 23l41 14 q21 9 29.5 18t8.5 29v542q0 9 -10 11l-69 28l2 23h290q78 0 136 -23.5t90.5 -66.5t32.5 -102q0 -46 -18 -81t-47.5 -59.5t-62.5 -38.5l70 -126q33 -57 58 -94.5t66 -61.5l27 -15l-2 -20l-127 -3q-39 0 -59.5 16t-38.5 49l-118 227q-11 -1 -13 -1h-78v-235z" />
<glyph unicode="&#x159;" horiz-adv-x="431" d="M283 582l-9 -7h-74q-28 40 -56.5 86t-51.5 88l15 10q31 -24 65.5 -49.5t69.5 -48.5q30 23 66.5 49.5t70.5 48.5l13 -13q-30 -42 -61 -88t-48 -76zM226 47l89 -29l-2 -18h-279l-2 18l37 15q18 8 25 18.5t7 30.5v344l-64 23l-2 14q37 16 88.5 28.5t94.5 16.5l8 -9v-76 q31 41 63 63t64 22q30 0 49 -17t19 -46q0 -27 -13 -46.5t-23 -30.5q-1 0 -7.5 -0.5l-6.5 -0.5q-19 17 -41 29t-52 16q-11 0 -26.5 -10t-25.5 -21v-334z" />
<glyph unicode="&#x15a;" horiz-adv-x="531" d="M369 923l11 1q21 -7 38.5 -22.5t17.5 -33.5q0 -25 -26 -42.5t-67.5 -28.5t-89.5 -17t-93 -7l-5 18q67 29 124 66.5t90 65.5zM234 -10q-41 0 -78.5 4.5t-64 12.5t-35.5 18q-15 18 -15 65q0 28 7 61t20 57l25 -2q9 -51 20 -83t29 -52q20 -22 49 -29.5t58 -7.5q55 0 84 30 t29 74q0 42 -22.5 72.5t-58 55t-75 47.5t-75 50t-58 63t-22.5 86q0 61 34 102.5t90 62.5t124 21q59 0 106.5 -12t59.5 -25q8 -7 9.5 -21.5t1.5 -27.5q0 -25 -6 -63.5t-20 -67.5l-25 1q-8 52 -19.5 82.5t-22.5 46.5q-13 18 -36 30.5t-55 12.5q-52 0 -83 -30.5t-31 -78.5 q0 -41 22.5 -71t58 -54t75 -47t75 -50.5t58 -64.5t22.5 -90q0 -89 -69 -133.5t-186 -44.5z" />
<glyph unicode="&#x15b;" horiz-adv-x="452" d="M360 719q0 -23 -28 -50t-75 -53t-102 -47l-11 15q35 44 67 92t48 81l9 5q5 1 11 1h11q29 0 49.5 -10t20.5 -34zM198 -10q-46 0 -88 8t-54 20q-15 16 -15 58q0 25 7 49t20 43l15 -2q7 -39 18 -62.5t25 -39.5q13 -14 33 -22.5t47 -8.5q37 0 57.5 18.5t20.5 48.5 q0 29 -16.5 49.5t-43.5 37t-57 32t-56.5 35t-43.5 46t-17 64.5q0 46 28 78t74.5 49t102.5 17q45 0 83 -8.5t48 -18.5q11 -10 11 -46q0 -21 -6 -49t-20 -50l-15 1q-8 41 -16.5 62.5t-20.5 35.5q-11 11 -27 20.5t-41 9.5q-33 0 -54 -18.5t-21 -50.5q0 -28 17 -48.5t43.5 -37 t56.5 -32.5t57 -35.5t44 -46t17 -64.5q0 -68 -59 -105t-154 -37z" />
<glyph unicode="&#x15c;" horiz-adv-x="531" d="M450 782l-15 -10q-33 18 -70.5 37.5t-74.5 37.5q-32 -17 -71 -38t-76 -37l-13 13q33 35 67 73t53 64l9 6h72q31 -34 62.5 -72.5t56.5 -73.5zM234 -10q-41 0 -78.5 4.5t-64 12.5t-35.5 18q-15 18 -15 65q0 28 7 61t20 57l25 -2q9 -51 20 -83t29 -52q20 -22 49 -29.5 t58 -7.5q55 0 84 30t29 74q0 42 -22.5 72.5t-58 55t-75 47.5t-75 50t-58 63t-22.5 86q0 61 34 102.5t90 62.5t124 21q59 0 106.5 -12t59.5 -25q8 -7 9.5 -21.5t1.5 -27.5q0 -25 -6 -63.5t-20 -67.5l-25 1q-8 52 -19.5 82.5t-22.5 46.5q-13 18 -36 30.5t-55 12.5 q-52 0 -83 -30.5t-31 -78.5q0 -41 22.5 -71t58 -54t75 -47t75 -50.5t58 -64.5t22.5 -90q0 -89 -69 -133.5t-186 -44.5z" />
<glyph unicode="&#x15d;" horiz-adv-x="452" d="M386 584l-15 -10q-31 24 -65.5 49.5t-69.5 48.5q-29 -22 -65.5 -49t-71.5 -49l-13 13q30 42 61 88t48 76l9 7h74q28 -40 56.5 -86t51.5 -88zM198 -10q-46 0 -88 8t-54 20q-15 16 -15 58q0 25 7 49t20 43l15 -2q7 -39 18 -62.5t25 -39.5q13 -14 33 -22.5t47 -8.5 q37 0 57.5 18.5t20.5 48.5q0 29 -16.5 49.5t-43.5 37t-57 32t-56.5 35t-43.5 46t-17 64.5q0 46 28 78t74.5 49t102.5 17q45 0 83 -8.5t48 -18.5q11 -10 11 -46q0 -21 -6 -49t-20 -50l-15 1q-8 41 -16.5 62.5t-20.5 35.5q-11 11 -27 20.5t-41 9.5q-33 0 -54 -18.5t-21 -50.5 q0 -28 17 -48.5t43.5 -37t56.5 -32.5t57 -35.5t44 -46t17 -64.5q0 -68 -59 -105t-154 -37z" />
<glyph unicode="&#x15e;" horiz-adv-x="531" d="M234 -10q-41 0 -78.5 4.5t-64 12.5t-35.5 18q-15 18 -15 65q0 28 7 61t20 57l25 -2q9 -51 20 -83t29 -52q20 -22 49 -29.5t58 -7.5q55 0 84 30t29 74q0 42 -22.5 72.5t-58 55t-75 47.5t-75 50t-58 63t-22.5 86q0 61 34 102.5t90 62.5t124 21q59 0 106.5 -12t59.5 -25 q8 -7 9.5 -21.5t1.5 -27.5q0 -25 -6 -63.5t-20 -67.5l-25 1q-8 52 -19.5 82.5t-22.5 46.5q-13 18 -36 30.5t-55 12.5q-52 0 -83 -30.5t-31 -78.5q0 -41 22.5 -71t58 -54t75 -47t75 -50.5t58 -64.5t22.5 -90q0 -79 -54 -122.5t-148 -53.5l-10 -53q52 -7 80.5 -28t28.5 -52 q0 -46 -50 -72.5t-137 -28.5l-5 15q32 12 57 30.5t25 42.5q0 32 -50 44l-5 8l16 92h-3z" />
<glyph unicode="&#x15f;" horiz-adv-x="452" d="M175 -110l-5 8l16 92q-43 1 -81 9t-49 19q-15 16 -15 58q0 25 7 49t20 43l15 -2q7 -39 18 -62.5t25 -39.5q13 -14 33 -22.5t47 -8.5q37 0 57.5 18.5t20.5 48.5q0 29 -16.5 49.5t-43.5 37t-57 32t-56.5 35t-43.5 46t-17 64.5q0 46 28 78t74.5 49t102.5 17q45 0 83 -8.5 t48 -18.5q11 -10 11 -46q0 -21 -6 -49t-20 -50l-15 1q-8 41 -16.5 62.5t-20.5 35.5q-11 11 -27 20.5t-41 9.5q-33 0 -54 -18.5t-21 -50.5q0 -28 17 -48.5t43.5 -37t56.5 -32.5t57 -35.5t44 -46t17 -64.5q0 -61 -48 -97t-127 -43l-10 -53q52 -7 80.5 -28t28.5 -52 q0 -46 -50 -72.5t-137 -28.5l-5 15q31 12 56.5 30.5t25.5 42.5q0 32 -50 44z" />
<glyph unicode="&#x160;" horiz-adv-x="531" d="M333 778l-9 -6h-72q-31 34 -62.5 72.5t-56.5 72.5l15 11q33 -18 70.5 -38t74.5 -37q32 17 71 37.5t76 37.5l13 -13q-33 -35 -67 -73.5t-53 -63.5zM234 -10q-41 0 -78.5 4.5t-64 12.5t-35.5 18q-15 18 -15 65q0 28 7 61t20 57l25 -2q9 -51 20 -83t29 -52q20 -22 49 -29.5 t58 -7.5q55 0 84 30t29 74q0 42 -22.5 72.5t-58 55t-75 47.5t-75 50t-58 63t-22.5 86q0 61 34 102.5t90 62.5t124 21q59 0 106.5 -12t59.5 -25q8 -7 9.5 -21.5t1.5 -27.5q0 -25 -6 -63.5t-20 -67.5l-25 1q-8 52 -19.5 82.5t-22.5 46.5q-13 18 -36 30.5t-55 12.5 q-52 0 -83 -30.5t-31 -78.5q0 -41 22.5 -71t58 -54t75 -47t75 -50.5t58 -64.5t22.5 -90q0 -89 -69 -133.5t-186 -44.5z" />
<glyph unicode="&#x161;" horiz-adv-x="452" d="M286 582l-9 -7h-74q-28 40 -57 86t-51 88l15 10q30 -24 65 -49.5t69 -48.5q30 23 66.5 49.5t70.5 48.5l14 -13q-31 -42 -61.5 -88t-47.5 -76zM198 -10q-46 0 -88 8t-54 20q-15 16 -15 58q0 25 7 49t20 43l15 -2q7 -39 18 -62.5t25 -39.5q13 -14 33 -22.5t47 -8.5 q37 0 57.5 18.5t20.5 48.5q0 29 -16.5 49.5t-43.5 37t-57 32t-56.5 35t-43.5 46t-17 64.5q0 46 28 78t74.5 49t102.5 17q45 0 83 -8.5t48 -18.5q11 -10 11 -46q0 -21 -6 -49t-20 -50l-15 1q-8 41 -16.5 62.5t-20.5 35.5q-11 11 -27 20.5t-41 9.5q-33 0 -54 -18.5t-21 -50.5 q0 -28 17 -48.5t43.5 -37t56.5 -32.5t57 -35.5t44 -46t17 -64.5q0 -68 -59 -105t-154 -37z" />
<glyph unicode="&#x162;" horiz-adv-x="635" d="M270 -110l-5 8l18 102h-107l-2 23l41 14q21 9 29.5 18t8.5 29v558h-39q-22 0 -45 -1.5t-40 -4.5q-9 -16 -19 -38t-20 -51l-28 -70h-25q-5 26 -7.5 52.5t-2.5 58.5q0 31 2.5 54.5t5.5 45.5h565q3 -22 5.5 -45.5t2.5 -54.5q0 -32 -2.5 -58.5t-7.5 -52.5h-25l-28 70 q-10 29 -20 51t-19 38q-17 3 -40 4.5t-45 1.5h-39v-589l79 -30l-2 -23h-127l-11 -61q52 -7 80.5 -28t28.5 -52q0 -46 -50 -72.5t-137 -28.5l-5 15q31 12 56.5 30.5t25.5 42.5q0 32 -50 44z" />
<glyph unicode="&#x163;" horiz-adv-x="411" d="M189 -110l-5 8l16 93q-52 7 -80.5 46.5t-28.5 110.5v294h-73l-2 18l76 39l104 141l20 -2v-154h149v-42h-149v-273q0 -46 16.5 -70.5t54.5 -24.5q25 0 48.5 11t44.5 30l14 -12q-20 -38 -56 -71t-88 -40l-10 -53q52 -7 80 -28t28 -52q0 -46 -49.5 -72.5t-137.5 -28.5l-4 15 q31 12 56.5 30.5t25.5 42.5q0 32 -50 44z" />
<glyph unicode="&#x164;" horiz-adv-x="635" d="M360 778l-9 -6h-72q-31 34 -62.5 72.5t-56.5 73.5l15 10q33 -18 70 -37.5t75 -37.5q31 17 70.5 38t76.5 37l13 -13q-34 -35 -67.5 -73t-52.5 -64zM382 53l79 -30l-2 -23h-283l-2 23l41 14q21 9 29.5 18t8.5 29v558h-39q-22 0 -45 -1.5t-40 -4.5q-9 -16 -19 -38t-20 -51 l-28 -70h-25q-5 26 -7.5 52.5t-2.5 58.5q0 31 2.5 54.5t5.5 45.5h565q3 -22 5.5 -45.5t2.5 -54.5q0 -32 -2.5 -58.5t-7.5 -52.5h-25l-28 70q-10 29 -20 51t-19 38q-17 3 -40 4.5t-45 1.5h-39v-589z" />
<glyph unicode="&#x165;" horiz-adv-x="399" d="M424 693q0 -31 -15 -62t-38 -56t-48 -38l-10 9q11 16 22 42t16 53q-20 4 -32.5 18t-12.5 34q0 26 17 43.5t42 17.5q27 0 43 -16.5t16 -44.5zM394 103q-23 -43 -65 -78t-105 -35q-64 0 -98.5 39.5t-34.5 118.5v294h-73l-2 18l76 39l104 141l20 -2v-154h149v-42h-149v-273 q0 -46 16.5 -70.5t54.5 -24.5q25 0 48.5 11t44.5 30z" />
<glyph unicode="&#x166;" horiz-adv-x="635" d="M382 53l79 -30l-2 -23h-283l-2 23l41 14q21 9 29.5 18t8.5 29v241h-155v43h155v274h-39q-22 0 -45 -1.5t-40 -4.5q-9 -16 -19 -38t-20 -51l-28 -70h-25q-5 26 -7.5 52.5t-2.5 58.5q0 31 2.5 54.5t5.5 45.5h565q3 -22 5.5 -45.5t2.5 -54.5q0 -32 -2.5 -58.5t-7.5 -52.5 h-25l-28 70q-10 29 -20 51t-19 38q-17 3 -40 4.5t-45 1.5h-39v-274h140v-43h-140v-272z" />
<glyph unicode="&#x167;" horiz-adv-x="411" d="M364 310h-148v-141q0 -46 16.5 -70.5t54.5 -24.5q25 0 48.5 11t44.5 30l14 -12q-23 -43 -65 -78t-105 -35q-64 0 -98.5 39.5t-34.5 118.5v162h-74v42h74v90h-73l-2 18l76 39l104 141l20 -2v-154h149v-42h-149v-90h148v-42z" />
<glyph unicode="&#x168;" horiz-adv-x="672" d="M199 771l-18 6q0 4 -0.5 9t-0.5 10q3 51 26 87t69 36q35 0 76 -13t80 -28.5t67 -20.5q2 3 12.5 17t21 28.5t14.5 21.5l18 -6q0 -6 0.5 -11.5t0.5 -12.5q-3 -49 -25.5 -83.5t-69.5 -34.5q-33 0 -75 13t-81 28t-66 21q-2 -2 -12.5 -15.5t-21.5 -29t-15 -22.5zM88 235v400 l-79 30l2 23h283l2 -23l-41 -14q-20 -9 -29 -18t-9 -29v-372q0 -95 44 -143.5t113 -48.5t113.5 47.5t44.5 144.5v403l-79 30l2 23h204l2 -23l-79 -30v-400q0 -122 -63.5 -183.5t-177.5 -61.5t-183.5 61.5t-69.5 183.5z" />
<glyph unicode="&#x169;" horiz-adv-x="628" d="M156 602l-18 5q0 5 -0.5 9t-0.5 8q3 49 26 83.5t69 34.5q30 0 66.5 -11.5t71 -25.5t58.5 -20q3 4 13 16t20.5 24.5t14.5 19.5l18 -6q0 -5 0.5 -10t0.5 -11q-4 -47 -26 -80t-69 -33q-30 0 -66.5 11.5t-71 25t-58.5 20.5q-2 -3 -12 -15t-21 -25.5t-15 -19.5zM95 151v275 l-64 23l-2 14q37 16 88.5 28.5t94.5 16.5l8 -9v-335q0 -103 88 -103q47 0 92 34v331l-64 23l-2 14q37 16 88.5 28.5t94.5 16.5l8 -9v-370q0 -71 46 -71q20 0 41 5l4 -12q-19 -29 -49.5 -45t-67.5 -16t-60 17.5t-33 48.5q-30 -30 -70 -48t-86 -18q-72 0 -113.5 41.5 t-41.5 119.5z" />
<glyph unicode="&#x16a;" horiz-adv-x="672" d="M212 816v67h314v-67h-314zM88 235v400l-79 30l2 23h283l2 -23l-41 -14q-20 -9 -29 -18t-9 -29v-372q0 -95 44 -143.5t113 -48.5t113.5 47.5t44.5 144.5v403l-79 30l2 23h204l2 -23l-79 -30v-400q0 -122 -63.5 -183.5t-177.5 -61.5t-183.5 61.5t-69.5 183.5z" />
<glyph unicode="&#x16b;" horiz-adv-x="628" d="M158 628v63h313v-63h-313zM95 151v275l-64 23l-2 14q37 16 88.5 28.5t94.5 16.5l8 -9v-335q0 -103 88 -103q47 0 92 34v331l-64 23l-2 14q37 16 88.5 28.5t94.5 16.5l8 -9v-370q0 -71 46 -71q20 0 41 5l4 -12q-19 -29 -49.5 -45t-67.5 -16t-60 17.5t-33 48.5 q-30 -30 -70 -48t-86 -18q-72 0 -113.5 41.5t-41.5 119.5z" />
<glyph unicode="&#x16c;" horiz-adv-x="672" d="M496 918l5 2l17 -4q-10 -64 -47.5 -99.5t-93.5 -35.5q-54 0 -88.5 36t-40.5 100l21 4q9 -28 39 -44t74 -16q42 0 72.5 15.5t41.5 41.5zM88 235v400l-79 30l2 23h283l2 -23l-41 -14q-20 -9 -29 -18t-9 -29v-372q0 -95 44 -143.5t113 -48.5t113.5 47.5t44.5 144.5v403 l-79 30l2 23h204l2 -23l-79 -30v-400q0 -122 -63.5 -183.5t-177.5 -61.5t-183.5 61.5t-69.5 183.5z" />
<glyph unicode="&#x16d;" horiz-adv-x="628" d="M438 744l4 2l17 -4q-7 -71 -45.5 -112.5t-95.5 -41.5q-56 0 -92 42t-40 113l21 3q9 -35 40 -55.5t77 -20.5q42 0 72 19.5t42 54.5zM95 151v275l-64 23l-2 14q37 16 88.5 28.5t94.5 16.5l8 -9v-335q0 -103 88 -103q47 0 92 34v331l-64 23l-2 14q37 16 88.5 28.5t94.5 16.5 l8 -9v-370q0 -71 46 -71q20 0 41 5l4 -12q-19 -29 -49.5 -45t-67.5 -16t-60 17.5t-33 48.5q-30 -30 -70 -48t-86 -18q-72 0 -113.5 41.5t-41.5 119.5z" />
<glyph unicode="&#x16e;" horiz-adv-x="672" d="M370 766q-44 0 -71 23t-27 61q0 40 29.5 65.5t75.5 25.5q43 0 70.5 -23.5t27.5 -59.5q-1 -40 -30.5 -66t-74.5 -26zM374 908q-22 0 -35.5 -16.5t-13.5 -40.5q0 -23 13 -37.5t35 -14.5q21 0 34.5 16.5t13.5 41.5q0 22 -13 36.5t-34 14.5zM88 235v400l-79 30l2 23h283 l2 -23l-41 -14q-20 -9 -29 -18t-9 -29v-372q0 -95 44 -143.5t113 -48.5t113.5 47.5t44.5 144.5v403l-79 30l2 23h204l2 -23l-79 -30v-400q0 -122 -63.5 -183.5t-177.5 -61.5t-183.5 61.5t-69.5 183.5z" />
<glyph unicode="&#x16f;" horiz-adv-x="628" d="M317 579q-44 0 -71 23t-27 61q0 40 29.5 65.5t75.5 25.5q43 0 71 -23.5t27 -59.5q-1 -40 -30.5 -66t-74.5 -26zM321 721q-22 0 -35.5 -16.5t-13.5 -40.5q0 -23 13.5 -37.5t34.5 -14.5q22 0 35.5 16.5t13.5 41.5q0 22 -13.5 36.5t-34.5 14.5zM95 151v275l-64 23l-2 14 q37 16 88.5 28.5t94.5 16.5l8 -9v-335q0 -103 88 -103q47 0 92 34v331l-64 23l-2 14q37 16 88.5 28.5t94.5 16.5l8 -9v-370q0 -71 46 -71q20 0 41 5l4 -12q-19 -29 -49.5 -45t-67.5 -16t-60 17.5t-33 48.5q-30 -30 -70 -48t-86 -18q-72 0 -113.5 41.5t-41.5 119.5z" />
<glyph unicode="&#x170;" horiz-adv-x="672" d="M323 926l11 1q19 -7 34 -22.5t15 -33.5q0 -24 -20.5 -41.5t-53 -29t-71 -17.5t-74.5 -7l-6 18q52 29 95.5 66.5t69.5 65.5zM539 926l11 1q19 -7 34.5 -22.5t15.5 -33.5q0 -24 -20.5 -41.5t-53.5 -29t-71.5 -17.5t-73.5 -7l-6 18q51 29 95 66.5t69 65.5zM88 235v400 l-79 30l2 23h283l2 -23l-41 -14q-20 -9 -29 -18t-9 -29v-372q0 -95 44 -143.5t113 -48.5t113.5 47.5t44.5 144.5v403l-79 30l2 23h204l2 -23l-79 -30v-400q0 -122 -63.5 -183.5t-177.5 -61.5t-183.5 61.5t-69.5 183.5z" />
<glyph unicode="&#x171;" horiz-adv-x="628" d="M344 719q0 -23 -25.5 -50t-67.5 -53t-91 -47l-11 15q35 44 66 92t47 81l9 5q5 1 11 1h11q22 0 36.5 -10t14.5 -34zM511 719q0 -23 -26 -50t-68 -53t-90 -47l-12 15q35 44 66.5 92t47.5 81l8 5q6 1 11.5 1h11.5q21 0 36 -10t15 -34zM95 151v275l-64 23l-2 14 q37 16 88.5 28.5t94.5 16.5l8 -9v-335q0 -103 88 -103q47 0 92 34v331l-64 23l-2 14q37 16 88.5 28.5t94.5 16.5l8 -9v-370q0 -71 46 -71q20 0 41 5l4 -12q-19 -29 -49.5 -45t-67.5 -16t-60 17.5t-33 48.5q-30 -30 -70 -48t-86 -18q-72 0 -113.5 41.5t-41.5 119.5z" />
<glyph unicode="&#x172;" horiz-adv-x="672" d="M88 235v400l-79 30l2 23h283l2 -23l-41 -14q-20 -9 -29 -18t-9 -29v-372q0 -95 44 -143.5t113 -48.5t113.5 47.5t44.5 144.5v403l-79 30l2 23h204l2 -23l-79 -30v-400q0 -85 -31.5 -140.5t-88.5 -81.5q-41 -37 -71 -70.5t-30 -68.5q0 -25 16 -37t41 -12q12 0 20 1.5 t22 3.5l4 -12q-18 -28 -47.5 -43.5t-63.5 -15.5q-38 0 -65.5 22t-27.5 63q0 44 33.5 80.5t96.5 68.5q-24 -3 -49 -3q-114 0 -183.5 61.5t-69.5 183.5z" />
<glyph unicode="&#x173;" horiz-adv-x="628" d="M95 151v275l-64 23l-2 14q37 16 88.5 28.5t94.5 16.5l8 -9v-335q0 -103 88 -103q47 0 92 34v331l-64 23l-2 14q37 16 88.5 28.5t94.5 16.5l8 -9v-370q0 -71 46 -71q20 0 41 5l4 -12q-7 -11 -16 -20q-24 -27 -52 -51.5t-47.5 -50t-19.5 -56.5q0 -23 15 -35.5t41 -12.5 q22 0 43 5l4 -12q-18 -26 -45 -42.5t-62 -16.5q-43 0 -70 24t-27 64q0 47 38 81.5t95 62.5q-6 -1 -14 -1q-37 0 -60 17.5t-33 48.5q-30 -30 -70 -48t-86 -18q-72 0 -113.5 41.5t-41.5 119.5z" />
<glyph unicode="&#x174;" horiz-adv-x="1063" d="M704 782l-15 -10q-33 18 -70.5 37.5t-74.5 37.5q-32 -17 -71 -38t-76 -37l-13 13q33 35 67 73t53 64l9 6h72q31 -34 62.5 -72.5t56.5 -73.5zM383 0h-80l-200 604q-7 21 -17 30t-28 16l-41 15l2 23h288l2 -23l-79 -24l157 -507l121 385l-28 85q-7 21 -14 30t-24 16l-42 15 l2 23h283l2 -23l-80 -24l157 -505l159 504l-80 25l2 23h198l2 -23q-8 -5 -26.5 -10t-24.5 -9q-24 -11 -34 -42l-200 -604h-81l-147 448z" />
<glyph unicode="&#x175;" horiz-adv-x="808" d="M587 585l-15 -11q-30 24 -65 50t-70 48q-29 -22 -65.5 -48.5t-71.5 -49.5l-13 13q31 42 61.5 88t47.5 77l9 6h74q28 -40 56.5 -86t51.5 -87zM477 498l124 -363l84 317l-72 28l2 18h182l2 -18q-8 -3 -24.5 -9.5t-22.5 -11.5q-25 -14 -34 -43l-120 -416h-79l-116 333 l-119 -333h-80l-120 415q-4 17 -12.5 27t-18.5 15q-6 6 -21.5 13t-22.5 10l2 18h263l2 -18l-68 -28l82 -317l127 363h60z" />
<glyph unicode="&#x176;" horiz-adv-x="689" d="M536 782l-15 -10q-33 18 -70.5 37.5t-74.5 37.5q-31 -17 -70.5 -38t-76.5 -37l-13 13q33 35 67 73t53 64l9 6h72q31 -34 62.5 -72.5t56.5 -73.5zM409 53l79 -30l-2 -23h-283l-2 23l41 14q21 9 29.5 18t8.5 29v203l-175 317q-13 24 -24.5 33.5t-28.5 16.5l-35 11l2 23h291 l2 -23l-80 -25l157 -309l157 310l-78 24l2 23h200l2 -23q-10 -5 -28 -11t-23 -11q-13 -5 -21 -14t-16 -25l-175 -318v-233z" />
<glyph unicode="&#x177;" horiz-adv-x="551" d="M443 584l-16 -10q-30 24 -65 49.5t-69 48.5q-30 -22 -66.5 -49t-70.5 -49l-14 13q31 42 61.5 88t47.5 76l9 7h74q28 -40 57 -86t52 -88zM15 498h263l2 -18l-68 -28l105 -332l111 332l-73 28l2 18h182l2 -18q-9 -4 -25.5 -10.5t-21.5 -11.5q-12 -7 -19.5 -17t-12.5 -25 l-159 -446q-42 -119 -86 -173.5t-102 -54.5q-34 0 -55 21.5t-21 53.5q0 27 14 49l7 3q13 -8 29 -14.5t33 -6.5q46 0 89 41.5t65 108.5l-39 -5l-149 422q-10 30 -31 42q-4 5 -19 12t-25 11z" />
<glyph unicode="&#x178;" horiz-adv-x="689" d="M562 857q0 -30 -21 -52t-55 -22q-29 0 -46.5 17.5t-17.5 41.5q0 30 22.5 51.5t55.5 21.5q27 0 44.5 -16t17.5 -42zM341 857q0 -30 -21 -52t-55 -22q-29 0 -46.5 17.5t-17.5 41.5q0 30 22.5 51.5t55.5 21.5q27 0 44.5 -16t17.5 -42zM409 53l79 -30l-2 -23h-283l-2 23 l41 14q21 9 29.5 18t8.5 29v203l-175 317q-13 24 -24.5 33.5t-28.5 16.5l-35 11l2 23h291l2 -23l-80 -25l157 -309l157 310l-78 24l2 23h200l2 -23q-10 -5 -28 -11t-23 -11q-13 -5 -21 -14t-16 -25l-175 -318v-233z" />
<glyph unicode="&#x179;" horiz-adv-x="635" d="M409 923l10 1q22 -7 39 -22.5t17 -33.5q0 -25 -26 -42.5t-67 -28.5t-89.5 -17t-92.5 -7l-6 18q67 29 124 66.5t91 65.5zM563 0h-498l-8 42l369 601h-167q-21 0 -43 -1t-40 -4l-76 -161h-24q-5 25 -7.5 53t-2.5 54q0 30 2 55.5t6 48.5h489l8 -42l-368 -601h175 q21 0 43.5 1t39.5 4l76 161h24q10 -48 10 -105q0 -28 -2 -55.5t-6 -50.5z" />
<glyph unicode="&#x17a;" horiz-adv-x="491" d="M381 719q0 -23 -28.5 -50t-75 -53t-101.5 -47l-12 15q36 44 67.5 92t48.5 81l9 5q5 1 11 1h11q29 0 49.5 -10t20.5 -34zM448 73q-1 -40 -8 -73h-390l-9 42l274 414h-169l-68 -127h-18q-12 47 -12 97q0 39 7 72h386l8 -42l-274 -414h174l68 127h18q13 -46 13 -96z" />
<glyph unicode="&#x17b;" horiz-adv-x="635" d="M405 856q0 -33 -23.5 -56.5t-60.5 -23.5q-32 0 -52 19t-20 46q0 32 25.5 55.5t61.5 23.5q30 0 49.5 -17.5t19.5 -46.5zM563 0h-498l-8 42l369 601h-167q-21 0 -43 -1t-40 -4l-76 -161h-24q-5 25 -7.5 53t-2.5 54q0 30 2 55.5t6 48.5h489l8 -42l-368 -601h175q21 0 43.5 1 t39.5 4l76 161h24q10 -48 10 -105q0 -28 -2 -55.5t-6 -50.5z" />
<glyph unicode="&#x17c;" horiz-adv-x="491" d="M329 673q0 -35 -22.5 -59.5t-57.5 -24.5q-30 0 -49 20t-19 49q0 33 24.5 57.5t58.5 24.5q28 0 46.5 -18.5t18.5 -48.5zM448 73q-1 -40 -8 -73h-390l-9 42l274 414h-169l-68 -127h-18q-12 47 -12 97q0 39 7 72h386l8 -42l-274 -414h174l68 127h18q13 -46 13 -96z" />
<glyph unicode="&#x17d;" horiz-adv-x="635" d="M366 778l-9 -6h-72q-30 34 -62 72.5t-57 72.5l15 11q33 -18 70.5 -38t74.5 -37q32 17 71 37.5t76 37.5l13 -13q-33 -35 -67 -73.5t-53 -63.5zM563 0h-498l-8 42l369 601h-167q-21 0 -43 -1t-40 -4l-76 -161h-24q-5 25 -7.5 53t-2.5 54q0 30 2 55.5t6 48.5h489l8 -42 l-368 -601h175q21 0 43.5 1t39.5 4l76 161h24q10 -48 10 -105q0 -28 -2 -55.5t-6 -50.5z" />
<glyph unicode="&#x17e;" horiz-adv-x="491" d="M296 582l-9 -7h-74q-28 40 -56.5 86t-51.5 88l15 10q31 -24 65.5 -49.5t69.5 -48.5q29 23 66 49.5t71 48.5l13 -13q-30 -42 -61 -88t-48 -76zM448 73q-1 -40 -8 -73h-390l-9 42l274 414h-169l-68 -127h-18q-12 47 -12 97q0 39 7 72h386l8 -42l-274 -414h174l68 127h18 q13 -46 13 -96z" />
<glyph unicode="&#x18f;" horiz-adv-x="683" d="M334 -10q-77 0 -138 33.5t-96.5 96t-35.5 147.5q0 19 0.5 33t1.5 27l15 16h426q-3 307 -170 307q-62 0 -103.5 -38.5t-41.5 -109.5q0 -9 1.5 -21.5t5.5 -24.5q-18 -10 -34 -14t-31 -4q-27 0 -45 14t-18 40q0 40 22.5 77t60.5 66t86.5 46t100.5 17q91 0 158.5 -42 t104.5 -119.5t37 -181.5q0 -111 -40 -193t-109.5 -127t-157.5 -45zM198 252q0 -103 37 -158.5t106 -55.5q51 0 86.5 34t55.5 94t23 137l-307 -10q-1 -19 -1 -41z" />
<glyph unicode="&#x192;" horiz-adv-x="604" d="M83 294l6 57h118l9 99q8 84 44 139.5t89 82t112 26.5q62 0 97.5 -28.5t35.5 -64.5q0 -32 -19.5 -49t-39.5 -23q-17 51 -39 85t-52 34q-43 0 -65 -54t-37 -144l-16 -103h173l-7 -57h-176l-31 -191q-11 -70 -47 -124.5t-86 -85.5t-106 -31q-38 0 -62 19.5t-24 49.5 q0 21 12.5 37.5t30.5 28.5q18 -31 41.5 -56.5t51.5 -25.5q27 0 44.5 26t27.5 67.5t15 89.5l19 196h-119z" />
<glyph unicode="&#x19d;" horiz-adv-x="743" d="M40 -170l-16 16q24 28 42.5 53t31.5 52.5t20 64t7 88.5v522q0 5 -13 13t-20 10l-46 16l2 23h188l348 -526v473l-79 30l2 23h204l2 -23l-41 -14q-21 -9 -29.5 -18t-8.5 -29v-604h-87l-371 549v-474q0 -63 -15 -104t-45 -73t-76 -68z" />
<glyph unicode="&#x1cd;" horiz-adv-x="714" d="M404 778l-9 -6h-72q-31 34 -62.5 72.5t-56.5 72.5l15 11q33 -18 70.5 -38t74.5 -37q31 17 70.5 37.5t76.5 37.5l13 -13q-34 -35 -67.5 -73.5t-52.5 -63.5zM317 688h80l214 -604q7 -21 17.5 -30t27.5 -16l41 -15l-2 -23h-288l-2 23l79 25l-58 172l-228 -3l-57 -168l79 -26 l-2 -23h-199l-2 23q10 4 28 10t24 10q24 12 34 41zM213 261l200 -1l-100 296z" />
<glyph unicode="&#x1ce;" horiz-adv-x="544" d="M317 582l-9 -7h-74q-28 40 -56.5 86t-51.5 88l15 10q31 -24 65.5 -49.5t69.5 -48.5q29 23 66 49.5t71 48.5l13 -13q-30 -42 -61 -88t-48 -76zM288 508q79 0 122.5 -40.5t43.5 -118.5q0 -16 -0.5 -45.5t-1.5 -63.5t-1.5 -65t-0.5 -51q0 -32 9.5 -49t37.5 -17q17 0 39 5 l4 -12q-20 -30 -51 -45.5t-65 -15.5q-37 0 -62.5 18.5t-32.5 48.5q-25 -29 -64 -48t-85 -19q-58 0 -94.5 30.5t-36.5 83.5q0 50 35 86.5t98 57t146 21.5q0 45 0.5 78.5t0.5 37.5q0 80 -69 80q-36 0 -58 -23.5t-22 -60.5q0 -9 1 -20t4 -23q-15 -8 -29.5 -11t-27.5 -3 q-27 0 -44 11.5t-17 34.5t18.5 47.5t50 45t71 33t81.5 12.5zM176 126q0 -34 18 -51t49 -17q25 0 47.5 11t36.5 26q0 24 0.5 62.5t0.5 79.5q-70 -5 -111 -33.5t-41 -77.5z" />
<glyph unicode="&#x1cf;" horiz-adv-x="380" d="M230 778l-9 -6h-72q-30 34 -62 72.5t-57 72.5l15 11q33 -18 70.5 -38t74.5 -37q32 17 71 37.5t76 37.5l13 -13q-33 -35 -67 -73.5t-53 -63.5zM254 53l79 -30l-2 -23h-283l-2 23l41 14q21 9 29.5 18t8.5 29v551l-79 30l2 23h283l2 -23l-41 -14q-20 -9 -29 -18t-9 -29v-551 z" />
<glyph unicode="&#x1d0;" horiz-adv-x="320" d="M199 570l-9 -7h-75q-18 41 -37 88t-35 89l15 11q23 -23 48.5 -47t50.5 -46q23 22 49.5 47t51.5 46l13 -13q-20 -43 -40.5 -90t-31.5 -78zM226 47l69 -29l-2 -18h-259l-2 18l37 15q18 8 25 18.5t7 30.5v344l-64 23l-2 14q37 16 88.5 28.5t94.5 16.5l8 -9v-452z" />
<glyph unicode="&#x1d1;" horiz-adv-x="716" d="M403 778l-9 -6h-72q-31 34 -62.5 72.5t-56.5 72.5l15 11q33 -18 70.5 -38t74.5 -37q32 17 71 37.5t76 37.5l13 -13q-33 -35 -67 -73.5t-53 -63.5zM49 344q0 112 42.5 191t113 121t157.5 42q88 0 156.5 -41t108.5 -118.5t40 -189.5t-40.5 -192.5t-110 -123.5t-159.5 -43 q-91 0 -160.5 42t-108.5 121.5t-39 190.5zM182 344q0 -94 21.5 -163t61.5 -106.5t95 -37.5t94 39.5t59 110t21 162.5q0 92 -20.5 160t-59 105t-92.5 37q-55 0 -95.5 -37.5t-62 -106.5t-22.5 -163z" />
<glyph unicode="&#x1d2;" horiz-adv-x="538" d="M316 582l-9 -7h-73q-28 40 -57 86t-52 88l16 10q30 -24 64.5 -49.5t69.5 -48.5q30 23 66.5 49.5t70.5 48.5l14 -13q-31 -42 -61.5 -88t-48.5 -76zM497 250q0 -80 -30 -138t-82.5 -90t-119.5 -32q-66 0 -116.5 31.5t-79 90t-28.5 138.5t31.5 138t84 89t118.5 31 q64 0 114.5 -31t79 -88.5t28.5 -138.5zM171 250q0 -112 23.5 -164.5t72.5 -52.5q50 0 75 50t25 165q0 111 -23.5 164t-70.5 53q-49 0 -75.5 -51t-26.5 -164z" />
<glyph unicode="&#x1d3;" horiz-adv-x="672" d="M423 778l-9 -6h-72q-31 34 -62.5 72.5t-56.5 72.5l15 11q33 -18 70 -38t75 -37q31 17 70.5 37.5t76.5 37.5l13 -13q-34 -35 -67.5 -73.5t-52.5 -63.5zM88 235v400l-79 30l2 23h283l2 -23l-41 -14q-20 -9 -29 -18t-9 -29v-372q0 -95 44 -143.5t113 -48.5t113.5 47.5 t44.5 144.5v403l-79 30l2 23h204l2 -23l-79 -30v-400q0 -122 -63.5 -183.5t-177.5 -61.5t-183.5 61.5t-69.5 183.5z" />
<glyph unicode="&#x1d4;" horiz-adv-x="628" d="M363 582l-9 -7h-74q-28 40 -56.5 86t-51.5 88l15 10q30 -24 65 -49.5t70 -48.5q29 23 65.5 49.5t71.5 48.5l13 -13q-31 -42 -61.5 -88t-47.5 -76zM95 151v275l-64 23l-2 14q37 16 88.5 28.5t94.5 16.5l8 -9v-335q0 -103 88 -103q47 0 92 34v331l-64 23l-2 14 q37 16 88.5 28.5t94.5 16.5l8 -9v-370q0 -71 46 -71q20 0 41 5l4 -12q-19 -29 -49.5 -45t-67.5 -16t-60 17.5t-33 48.5q-30 -30 -70 -48t-86 -18q-72 0 -113.5 41.5t-41.5 119.5z" />
<glyph unicode="&#x1d5;" horiz-adv-x="672" d="M214 1030v68h313v-68h-313zM553 857q0 -30 -21 -52t-55 -22q-28 0 -45.5 17.5t-17.5 41.5q0 30 22.5 51.5t54.5 21.5q27 0 44.5 -16t17.5 -42zM332 857q0 -30 -21 -52t-55 -22q-28 0 -45.5 17.5t-17.5 41.5q0 30 22.5 51.5t54.5 21.5q27 0 44.5 -16t17.5 -42zM88 235v400 l-79 30l2 23h283l2 -23l-41 -14q-20 -9 -29 -18t-9 -29v-372q0 -95 44 -143.5t113 -48.5t113.5 47.5t44.5 144.5v403l-79 30l2 23h204l2 -23l-79 -30v-400q0 -122 -63.5 -183.5t-177.5 -61.5t-183.5 61.5t-69.5 183.5z" />
<glyph unicode="&#x1d6;" horiz-adv-x="628" d="M160 860v63h313v-63h-313zM494 674q0 -32 -20.5 -55t-52.5 -23q-27 0 -44 18.5t-17 44.5q0 32 22 55t53 23q25 0 42 -17.5t17 -45.5zM273 674q0 -32 -20.5 -55t-52.5 -23q-27 0 -44 18.5t-17 44.5q0 32 22 55t53 23q25 0 42 -17.5t17 -45.5zM95 151v275l-64 23l-2 14 q37 16 88.5 28.5t94.5 16.5l8 -9v-335q0 -103 88 -103q47 0 92 34v331l-64 23l-2 14q37 16 88.5 28.5t94.5 16.5l8 -9v-370q0 -71 46 -71q20 0 41 5l4 -12q-19 -29 -49.5 -45t-67.5 -16t-60 17.5t-33 48.5q-30 -30 -70 -48t-86 -18q-72 0 -113.5 41.5t-41.5 119.5z" />
<glyph unicode="&#x1d7;" horiz-adv-x="672" d="M449 1143l11 2q21 -8 38 -23.5t17 -33.5q0 -25 -25.5 -42.5t-67 -28.5t-89.5 -16.5t-93 -6.5l-6 17q68 30 125 67t90 65zM553 857q0 -30 -21 -52t-55 -22q-28 0 -45.5 17.5t-17.5 41.5q0 30 22.5 51.5t54.5 21.5q27 0 44.5 -16t17.5 -42zM332 857q0 -30 -21 -52t-55 -22 q-28 0 -45.5 17.5t-17.5 41.5q0 30 22.5 51.5t54.5 21.5q27 0 44.5 -16t17.5 -42zM88 235v400l-79 30l2 23h283l2 -23l-41 -14q-20 -9 -29 -18t-9 -29v-372q0 -95 44 -143.5t113 -48.5t113.5 47.5t44.5 144.5v403l-79 30l2 23h204l2 -23l-79 -30v-400q0 -122 -63.5 -183.5 t-177.5 -61.5t-183.5 61.5t-69.5 183.5z" />
<glyph unicode="&#x1d8;" horiz-adv-x="628" d="M443 951q0 -23 -28 -50t-75 -53t-102 -46l-11 14q35 45 67 92.5t48 80.5l9 5q5 1 11 1h11q29 0 49.5 -10t20.5 -34zM494 674q0 -32 -20.5 -55t-52.5 -23q-27 0 -44 18.5t-17 44.5q0 32 22 55t53 23q25 0 42 -17.5t17 -45.5zM273 674q0 -32 -20.5 -55t-52.5 -23 q-27 0 -44 18.5t-17 44.5q0 32 22 55t53 23q25 0 42 -17.5t17 -45.5zM95 151v275l-64 23l-2 14q37 16 88.5 28.5t94.5 16.5l8 -9v-335q0 -103 88 -103q47 0 92 34v331l-64 23l-2 14q37 16 88.5 28.5t94.5 16.5l8 -9v-370q0 -71 46 -71q20 0 41 5l4 -12q-19 -29 -49.5 -45 t-67.5 -16t-60 17.5t-33 48.5q-30 -30 -70 -48t-86 -18q-72 0 -113.5 41.5t-41.5 119.5z" />
<glyph unicode="&#x1d9;" horiz-adv-x="672" d="M417 998l-9 -6h-72q-31 34 -62.5 72.5t-56.5 73.5l15 10q33 -18 70.5 -37.5t74.5 -37.5q31 17 70.5 38t76.5 37l13 -13q-34 -35 -67.5 -73t-52.5 -64zM553 857q0 -30 -21 -52t-55 -22q-28 0 -45.5 17.5t-17.5 41.5q0 30 22.5 51.5t54.5 21.5q27 0 44.5 -16t17.5 -42z M332 857q0 -30 -21 -52t-55 -22q-28 0 -45.5 17.5t-17.5 41.5q0 30 22.5 51.5t54.5 21.5q27 0 44.5 -16t17.5 -42zM88 235v400l-79 30l2 23h283l2 -23l-41 -14q-20 -9 -29 -18t-9 -29v-372q0 -95 44 -143.5t113 -48.5t113.5 47.5t44.5 144.5v403l-79 30l2 23h204l2 -23 l-79 -30v-400q0 -122 -63.5 -183.5t-177.5 -61.5t-183.5 61.5t-69.5 183.5z" />
<glyph unicode="&#x1da;" horiz-adv-x="628" d="M360 814l-9 -7h-73q-28 41 -57 86.5t-52 87.5l16 10q30 -24 65 -49.5t69 -48.5q30 23 66.5 49.5t70.5 48.5l14 -13q-31 -42 -61.5 -88t-48.5 -76zM494 674q0 -32 -20.5 -55t-52.5 -23q-27 0 -44 18.5t-17 44.5q0 32 22 55t53 23q25 0 42 -17.5t17 -45.5zM273 674 q0 -32 -20.5 -55t-52.5 -23q-27 0 -44 18.5t-17 44.5q0 32 22 55t53 23q25 0 42 -17.5t17 -45.5zM95 151v275l-64 23l-2 14q37 16 88.5 28.5t94.5 16.5l8 -9v-335q0 -103 88 -103q47 0 92 34v331l-64 23l-2 14q37 16 88.5 28.5t94.5 16.5l8 -9v-370q0 -71 46 -71q20 0 41 5 l4 -12q-19 -29 -49.5 -45t-67.5 -16t-60 17.5t-33 48.5q-30 -30 -70 -48t-86 -18q-72 0 -113.5 41.5t-41.5 119.5z" />
<glyph unicode="&#x1db;" horiz-adv-x="672" d="M509 1012l-6 -18q-44 1 -92.5 6.5t-89.5 17t-67 29t-26 42.5q0 18 17 33.5t39 22.5l10 -2q34 -27 91 -64.5t124 -66.5zM553 857q0 -30 -21 -52t-55 -22q-28 0 -45.5 17.5t-17.5 41.5q0 30 22.5 51.5t54.5 21.5q27 0 44.5 -16t17.5 -42zM332 857q0 -30 -21 -52t-55 -22 q-28 0 -45.5 17.5t-17.5 41.5q0 30 22.5 51.5t54.5 21.5q27 0 44.5 -16t17.5 -42zM88 235v400l-79 30l2 23h283l2 -23l-41 -14q-20 -9 -29 -18t-9 -29v-372q0 -95 44 -143.5t113 -48.5t113.5 47.5t44.5 144.5v403l-79 30l2 23h204l2 -23l-79 -30v-400q0 -122 -63.5 -183.5 t-177.5 -61.5t-183.5 61.5t-69.5 183.5z" />
<glyph unicode="&#x1dc;" horiz-adv-x="628" d="M416 816l-11 -14q-55 20 -102 46t-75.5 53t-28.5 50q0 24 21 34t50 10h11t11 -1l9 -5q16 -33 48 -80.5t67 -92.5zM494 674q0 -32 -20.5 -55t-52.5 -23q-27 0 -44 18.5t-17 44.5q0 32 22 55t53 23q25 0 42 -17.5t17 -45.5zM273 674q0 -32 -20.5 -55t-52.5 -23 q-27 0 -44 18.5t-17 44.5q0 32 22 55t53 23q25 0 42 -17.5t17 -45.5zM95 151v275l-64 23l-2 14q37 16 88.5 28.5t94.5 16.5l8 -9v-335q0 -103 88 -103q47 0 92 34v331l-64 23l-2 14q37 16 88.5 28.5t94.5 16.5l8 -9v-370q0 -71 46 -71q20 0 41 5l4 -12q-19 -29 -49.5 -45 t-67.5 -16t-60 17.5t-33 48.5q-30 -30 -70 -48t-86 -18q-72 0 -113.5 41.5t-41.5 119.5z" />
<glyph unicode="&#x1e6;" horiz-adv-x="721" d="M448 778l-9 -6h-72q-31 34 -62.5 72.5t-56.5 72.5l15 11q33 -18 70.5 -38t74.5 -37q31 17 70.5 37.5t76.5 37.5l13 -13q-34 -35 -67.5 -73.5t-52.5 -63.5zM405 -10q-102 0 -182.5 40t-127 117.5t-46.5 190.5q0 85 29 152t79.5 113t117 70.5t142.5 24.5q112 0 191 -31 q7 -29 7 -74q0 -24 -3 -57.5t-9 -62.5l-24 -2q-13 23 -27.5 57t-29.5 65t-26 47q-16 5 -32 6.5t-40 1.5q-64 0 -119 -37.5t-89 -106.5t-34 -163t32 -161.5t86.5 -103.5t121.5 -36q41 0 75 10v217l-79 30l2 23h264l2 -23l-41 -14q-15 -6 -20.5 -16t-5.5 -31v-215 q-48 -15 -95 -23t-119 -8z" />
<glyph unicode="&#x1e7;" horiz-adv-x="512" d="M295 582l-9 -7h-73q-28 40 -57 86t-52 88l16 10q30 -24 64.5 -49.5t69.5 -48.5q30 23 66.5 49.5t70.5 48.5l13 -13q-30 -42 -60.5 -88t-48.5 -76zM49 318q0 54 27 97t74 68t107 25q68 0 117 -34q20 36 47 57t50 21q32 0 32 -43q0 -22 -5 -39q-3 -14 -23 -14 q-16 -1 -37 -1t-39 -2q21 -23 33 -53.5t12 -66.5q0 -55 -25 -97t-70.5 -66t-105.5 -24q-24 0 -46 4q-11 -18 -11 -36q0 -21 13 -29t42 -10l92 -7q77 -6 120.5 -41.5t43.5 -98.5q0 -53 -33 -95.5t-93 -66.5t-141 -24q-60 0 -105.5 14.5t-72 40.5t-26.5 61t28.5 60t68.5 34 l9 -9q-9 -15 -9 -30q2 -59 45.5 -93.5t109.5 -34.5q60 0 96.5 26.5t36.5 66.5q0 33 -23.5 52t-66.5 24l-113 13q-58 7 -83.5 31t-25.5 60q0 29 16 55.5t48 45.5q-52 19 -83 61t-31 98zM318 324q0 75 -17 109.5t-52 34.5t-54.5 -34.5t-19.5 -103.5q0 -143 73 -144 q35 0 52.5 33.5t17.5 104.5z" />
<glyph unicode="&#x1ea;" horiz-adv-x="716" d="M49 344q0 112 42.5 191t113 121t157.5 42q88 0 156.5 -41t108.5 -118.5t40 -189.5q0 -126 -51.5 -212.5t-136.5 -122.5q-51 -30 -85.5 -68.5t-34.5 -71.5q0 -25 16 -37t40 -12q13 0 21 1.5t22 3.5l4 -12q-18 -28 -47.5 -43.5t-63.5 -15.5q-39 0 -66.5 22t-27.5 63 q0 45 36 80t100 68q-18 -2 -36 -2q-91 0 -160.5 42t-108.5 121.5t-39 190.5zM182 344q0 -94 21.5 -163t61.5 -106.5t95 -37.5t94 39.5t59 110t21 162.5q0 92 -20.5 160t-59 105t-92.5 37q-55 0 -95.5 -37.5t-62 -106.5t-22.5 -163z" />
<glyph unicode="&#x1eb;" horiz-adv-x="538" d="M382 -182q-17 -26 -44 -42.5t-63 -16.5q-42 0 -69.5 23t-27.5 63q0 48 39 84t101 67q-26 -6 -53 -6q-66 0 -116.5 31.5t-79 90t-28.5 138.5t31.5 138t84 89t118.5 31q64 0 114.5 -31t79 -88.5t28.5 -138.5q0 -62 -18.5 -110.5t-50.5 -82.5v0q-33 -36 -67.5 -65.5 t-58 -57.5t-23.5 -61q0 -48 56 -48q22 0 43 5zM171 250q0 -112 23.5 -164.5t72.5 -52.5q50 0 75 50t25 165q0 111 -23.5 164t-70.5 53q-49 0 -75.5 -51t-26.5 -164z" />
<glyph unicode="&#x1f4;" horiz-adv-x="721" d="M484 923l11 1q21 -7 38 -22.5t17 -33.5q0 -25 -25.5 -42.5t-67 -28.5t-89.5 -17t-93 -7l-6 18q68 29 125 66.5t90 65.5zM405 -10q-102 0 -182.5 40t-127 117.5t-46.5 190.5q0 85 29 152t79.5 113t117 70.5t142.5 24.5q112 0 191 -31q7 -29 7 -74q0 -24 -3 -57.5t-9 -62.5 l-24 -2q-13 23 -27.5 57t-29.5 65t-26 47q-16 5 -32 6.5t-40 1.5q-64 0 -119 -37.5t-89 -106.5t-34 -163t32 -161.5t86.5 -103.5t121.5 -36q41 0 75 10v217l-79 30l2 23h264l2 -23l-41 -14q-15 -6 -20.5 -16t-5.5 -31v-215q-48 -15 -95 -23t-119 -8z" />
<glyph unicode="&#x1f5;" horiz-adv-x="512" d="M380 719q0 -23 -28 -50t-75 -53t-102 -47l-12 15q36 44 68 92t48 81l9 5q5 1 11 1h11q29 0 49.5 -10t20.5 -34zM49 318q0 54 27 97t74 68t107 25q68 0 117 -34q20 36 47 57t50 21q32 0 32 -43q0 -22 -5 -39q-3 -14 -23 -14q-16 -1 -37 -1t-39 -2q21 -23 33 -53.5 t12 -66.5q0 -55 -25 -97t-70.5 -66t-105.5 -24q-24 0 -46 4q-11 -18 -11 -36q0 -21 13 -29t42 -10l92 -7q77 -6 120.5 -41.5t43.5 -98.5q0 -53 -33 -95.5t-93 -66.5t-141 -24q-60 0 -105.5 14.5t-72 40.5t-26.5 61t28.5 60t68.5 34l9 -9q-9 -15 -9 -30q2 -59 45.5 -93.5 t109.5 -34.5q60 0 96.5 26.5t36.5 66.5q0 33 -23.5 52t-66.5 24l-113 13q-58 7 -83.5 31t-25.5 60q0 29 16 55.5t48 45.5q-52 19 -83 61t-31 98zM318 324q0 75 -17 109.5t-52 34.5t-54.5 -34.5t-19.5 -103.5q0 -143 73 -144q35 0 52.5 33.5t17.5 104.5z" />
<glyph unicode="&#x1fa;" horiz-adv-x="714" d="M444 1149l11 2q21 -8 38.5 -23.5t17.5 -33.5q0 -24 -26 -42t-67.5 -29t-89.5 -16.5t-93 -6.5l-5 17q67 30 124 67t90 65zM354 766q-43 0 -70.5 23t-27.5 61q0 40 29.5 65.5t76.5 25.5q43 0 70.5 -23.5t27.5 -59.5q-1 -40 -30.5 -66t-75.5 -26zM358 908q-22 0 -35.5 -16.5 t-13.5 -40.5q0 -23 13.5 -37.5t34.5 -14.5q22 0 35.5 16.5t13.5 41.5q0 22 -13.5 36.5t-34.5 14.5zM317 688h80l214 -604q7 -21 17.5 -30t27.5 -16l41 -15l-2 -23h-288l-2 23l79 25l-58 172l-228 -3l-57 -168l79 -26l-2 -23h-199l-2 23q10 4 28 10t24 10q24 12 34 41z M213 261l200 -1l-100 296z" />
<glyph unicode="&#x1fb;" horiz-adv-x="544" d="M390 951q0 -23 -28.5 -50t-75.5 -53t-102 -46l-11 14q35 45 67 92.5t48 80.5l9 5q5 1 11 1h11q29 0 50 -10t21 -34zM271 579q-43 0 -70.5 23t-27.5 61q0 40 29.5 65.5t76.5 25.5q43 0 70.5 -23.5t27.5 -59.5q-1 -40 -30.5 -66t-75.5 -26zM275 721q-22 0 -35.5 -16.5 t-13.5 -40.5q0 -23 13.5 -37.5t34.5 -14.5q22 0 35.5 16.5t13.5 41.5q0 22 -13.5 36.5t-34.5 14.5zM288 508q79 0 122.5 -40.5t43.5 -118.5q0 -16 -0.5 -45.5t-1.5 -63.5t-1.5 -65t-0.5 -51q0 -32 9.5 -49t37.5 -17q17 0 39 5l4 -12q-20 -30 -51 -45.5t-65 -15.5 q-37 0 -62.5 18.5t-32.5 48.5q-25 -29 -64 -48t-85 -19q-58 0 -94.5 30.5t-36.5 83.5q0 50 35 86.5t98 57t146 21.5q0 45 0.5 78.5t0.5 37.5q0 80 -69 80q-36 0 -58 -23.5t-22 -60.5q0 -9 1 -20t4 -23q-15 -8 -29.5 -11t-27.5 -3q-27 0 -44 11.5t-17 34.5t18.5 47.5t50 45 t71 33t81.5 12.5zM176 126q0 -34 18 -51t49 -17q25 0 47.5 11t36.5 26q0 24 0.5 62.5t0.5 79.5q-70 -5 -111 -33.5t-41 -77.5z" />
<glyph unicode="&#x1fc;" horiz-adv-x="911" d="M613 923l11 1q21 -7 38 -22.5t17 -33.5q0 -25 -25.5 -42.5t-67 -28.5t-89.5 -17t-93 -7l-6 18q68 29 125 66.5t90 65.5zM433 643h-91l-95 -280l186 -1v281zM19 0l-2 23q10 4 28 10t24 10q24 12 34 41l195 551l-79 30l2 23h622q4 -22 6 -45.5t2 -54.5q0 -32 -2.5 -58.5 t-7.5 -52.5h-24l-32 81q-5 11 -12 27.5t-14 31.5t-12 21q-38 5 -83 5h-102v-280l197 8l-3 -58l-194 8v-276h112q21 0 43.5 1t39.5 4q5 6 12 21t14 31.5t12 27.5l32 81h24q10 -50 10 -111q0 -31 -2 -54.5t-6 -45.5h-497l-2 23l41 14q21 9 29.5 18t8.5 29v238l-201 -3 l-91 -270l79 -26l-2 -23h-199z" />
<glyph unicode="&#x1fd;" horiz-adv-x="777" d="M546 719q0 -23 -28.5 -50t-75.5 -53t-102 -47l-11 15q35 44 67 92t48 81l9 5q5 1 11 1h11q29 0 50 -10t21 -34zM329 385q0 80 -69 80q-36 0 -58 -23.5t-22 -60.5q0 -9 1 -20t4 -23q-15 -8 -29.5 -11t-27.5 -3q-27 0 -44 11.5t-17 34.5t17.5 47.5t48 45t68.5 33t78 12.5 q91 0 130 -58q30 28 68 43t81 15q53 0 94.5 -23.5t65.5 -66.5t24 -102q0 -30 -1 -49l-13 -13h-280q11 -180 153 -180q36 0 68.5 11t57.5 30l14 -12q-25 -48 -71 -80.5t-117 -32.5q-61 0 -108 24.5t-77 68.5q-31 -40 -79 -66.5t-105 -26.5q-61 0 -98 30t-37 84q0 50 35 86.5 t98 57t146 21.5q0 33 0.5 63t0.5 53zM546 465q-31 0 -53 -23.5t-33.5 -63.5t-11.5 -89l167 7q1 17 1 38q0 69 -17.5 100t-52.5 31zM176 126q0 -34 18.5 -51t51.5 -17q29 0 56 16.5t48 43.5q-23 53 -23 119q-70 -5 -110.5 -33.5t-40.5 -77.5z" />
<glyph unicode="&#x1fe;" horiz-adv-x="716" d="M441 923l10 1q22 -7 39 -22.5t17 -33.5q0 -25 -26 -42.5t-67 -28.5t-89.5 -17t-92.5 -7l-6 18q67 29 124 66.5t91 65.5zM49 344q0 112 42.5 191t113 121t157.5 42q121 0 201 -74l52 60l37 -29l-56 -66q33 -44 52 -104.5t19 -135.5q0 -112 -40.5 -192.5t-110 -123.5 t-159.5 -43q-124 0 -205 76l-52 -62l-35 31l56 66q-34 45 -53 106t-19 137zM182 344q0 -84 18 -150l299 354q-21 49 -56 76t-81 27q-55 0 -95.5 -37.5t-62 -106.5t-22.5 -163zM534 349q0 83 -17 147l-299 -353q23 -51 59 -78.5t83 -27.5q55 0 94 39.5t59 110t21 162.5z" />
<glyph unicode="&#x1ff;" horiz-adv-x="538" d="M396 719q0 -23 -28 -50t-75 -53t-102 -47l-11 15q35 44 67 92t48 81l9 5q5 1 11 1h11q29 0 49.5 -10t20.5 -34zM497 250q0 -80 -30 -138t-82.5 -90t-119.5 -32q-91 0 -151 59l-43 -47l-34 33l47 51q-20 32 -31.5 73.5t-11.5 90.5q0 80 31.5 138t84 89t118.5 31 q90 0 149 -58l42 45l36 -32l-48 -50q21 -32 32 -73t11 -90zM171 250q0 -38 2 -69l182 195q-21 89 -82 89q-49 0 -75.5 -51t-26.5 -164zM367 248q0 38 -2 69l-183 -195q21 -89 85 -89q50 0 75 50t25 165z" />
<glyph unicode="&#x218;" horiz-adv-x="531" d="M234 -10q-41 0 -78.5 4.5t-64 12.5t-35.5 18q-15 18 -15 65q0 28 7 61t20 57l25 -2q9 -51 20 -83t29 -52q20 -22 49 -29.5t58 -7.5q55 0 84 30t29 74q0 42 -22.5 72.5t-58 55t-75 47.5t-75 50t-58 63t-22.5 86q0 61 34 102.5t90 62.5t124 21q59 0 106.5 -12t59.5 -25 q8 -7 9.5 -21.5t1.5 -27.5q0 -25 -6 -63.5t-20 -67.5l-25 1q-8 52 -19.5 82.5t-22.5 46.5q-13 18 -36 30.5t-55 12.5q-52 0 -83 -30.5t-31 -78.5q0 -41 22.5 -71t58 -54t75 -47t75 -50.5t58 -64.5t22.5 -90q0 -89 -69 -133.5t-186 -44.5zM332 -162q0 -36 -17 -72.5t-44 -65 t-55 -43.5l-11 10q12 19 24.5 49t18.5 61q-24 4 -38 21t-14 40q0 31 19.5 51.5t48.5 20.5q31 0 49.5 -19.5t18.5 -52.5z" />
<glyph unicode="&#x219;" horiz-adv-x="452" d="M198 -10q-46 0 -88 8t-54 20q-15 16 -15 58q0 25 7 49t20 43l15 -2q7 -39 18 -62.5t25 -39.5q13 -14 33 -22.5t47 -8.5q37 0 57.5 18.5t20.5 48.5q0 29 -16.5 49.5t-43.5 37t-57 32t-56.5 35t-43.5 46t-17 64.5q0 46 28 78t74.5 49t102.5 17q45 0 83 -8.5t48 -18.5 q11 -10 11 -46q0 -21 -6 -49t-20 -50l-15 1q-8 41 -16.5 62.5t-20.5 35.5q-11 11 -27 20.5t-41 9.5q-33 0 -54 -18.5t-21 -50.5q0 -28 17 -48.5t43.5 -37t56.5 -32.5t57 -35.5t44 -46t17 -64.5q0 -68 -59 -105t-154 -37zM293 -162q0 -36 -17.5 -72.5t-44 -65t-54.5 -43.5 l-12 10q13 19 25.5 49t18.5 61q-24 4 -38 21t-14 40q0 31 19.5 51.5t48.5 20.5q31 0 49.5 -19.5t18.5 -52.5z" />
<glyph unicode="&#x21a;" horiz-adv-x="635" d="M382 53l79 -30l-2 -23h-283l-2 23l41 14q21 9 29.5 18t8.5 29v558h-39q-22 0 -45 -1.5t-40 -4.5q-9 -16 -19 -38t-20 -51l-28 -70h-25q-5 26 -7.5 52.5t-2.5 58.5q0 31 2.5 54.5t5.5 45.5h565q3 -22 5.5 -45.5t2.5 -54.5q0 -32 -2.5 -58.5t-7.5 -52.5h-25l-28 70 q-10 29 -20 51t-19 38q-17 3 -40 4.5t-45 1.5h-39v-589zM376 -162q0 -36 -17.5 -72.5t-44 -65t-54.5 -43.5l-12 10q13 19 25.5 49t17.5 61q-23 4 -37 21t-14 40q0 31 19.5 51.5t48.5 20.5q31 0 49.5 -19.5t18.5 -52.5z" />
<glyph unicode="&#x21b;" horiz-adv-x="411" d="M394 103q-23 -43 -65 -78t-105 -35q-64 0 -98.5 39.5t-34.5 118.5v294h-73l-2 18l76 39l104 141l20 -2v-154h149v-42h-149v-273q0 -46 16.5 -70.5t54.5 -24.5q25 0 48.5 11t44.5 30zM295 -162q0 -36 -17.5 -72.5t-44 -65t-54.5 -43.5l-12 10q13 19 25.5 49t17.5 61 q-23 4 -37 21t-14 40q0 31 19.5 51.5t48.5 20.5q31 0 49.5 -19.5t18.5 -52.5z" />
<glyph unicode="&#x232;" horiz-adv-x="689" d="M219 816v67h313v-67h-313zM409 53l79 -30l-2 -23h-283l-2 23l41 14q21 9 29.5 18t8.5 29v203l-175 317q-13 24 -24.5 33.5t-28.5 16.5l-35 11l2 23h291l2 -23l-80 -25l157 -309l157 310l-78 24l2 23h200l2 -23q-10 -5 -28 -11t-23 -11q-13 -5 -21 -14t-16 -25l-175 -318 v-233z" />
<glyph unicode="&#x233;" horiz-adv-x="551" d="M135 628v63h314v-63h-314zM15 498h263l2 -18l-68 -28l105 -332l111 332l-73 28l2 18h182l2 -18q-9 -4 -25.5 -10.5t-21.5 -11.5q-12 -7 -19.5 -17t-12.5 -25l-159 -446q-42 -119 -86 -173.5t-102 -54.5q-34 0 -55 21.5t-21 53.5q0 27 14 49l7 3q13 -8 29 -14.5t33 -6.5 q46 0 89 41.5t65 108.5l-39 -5l-149 422q-10 30 -31 42q-4 5 -19 12t-25 11z" />
<glyph unicode="&#x237;" horiz-adv-x="302" d="M14 -240q39 51 59.5 111.5t20.5 154.5v400l-64 23l-2 14q36 16 88 28.5t94 16.5l9 -9v-509q0 -66 -27.5 -115t-70.5 -82.5t-92 -50.5z" />
<glyph unicode="&#x259;" horiz-adv-x="503" d="M235 -10q-56 0 -99.5 23.5t-69 67t-25.5 102.5q0 31 2 51l12 14h281q-5 217 -100 217q-36 0 -57 -21.5t-21 -61.5q0 -8 1 -18.5t4 -21.5q-15 -8 -30 -11.5t-28 -3.5q-25 0 -41.5 12t-16.5 33q0 34 27 65t71 51t95 20q68 0 119 -30.5t78.5 -86t27.5 -131.5 q0 -81 -30 -141.5t-82.5 -94.5t-117.5 -34zM168 165q0 -70 18.5 -101t54.5 -31q44 0 68.5 51t26.5 128l-167 -6q-1 -19 -1 -41z" />
<glyph unicode="&#x272;" horiz-adv-x="615" d="M522 47l69 -29l-2 -18h-259l-2 18l37 15q17 8 24.5 18.5t7.5 30.5v261q0 91 -78 91q-26 0 -51 -8.5t-49 -24.5v-411q0 -66 -27.5 -115t-70.5 -82.5t-92 -50.5l-15 18q39 51 59.5 111.5t20.5 154.5v400l-64 23l-2 14q36 16 88 28.5t94 16.5l9 -9v-57q78 66 162 66 q68 0 104.5 -39t36.5 -112v-310z" />
<glyph unicode="&#x2c6;" horiz-adv-x="459" d="M379 584l-15 -10q-30 24 -65 49.5t-69 48.5q-30 -22 -66.5 -49t-70.5 -49l-14 13q31 42 61.5 88t47.5 76l9 7h74q28 -40 57 -86t51 -88z" />
<glyph unicode="&#x2c7;" horiz-adv-x="459" d="M270 582l-9 -7h-73q-28 40 -57 86t-52 88l16 10q30 -24 64.5 -49.5t69.5 -48.5q30 23 66.5 49.5t70.5 48.5l13 -13q-30 -42 -60.5 -88t-48.5 -76z" />
<glyph unicode="&#x2d8;" horiz-adv-x="432" d="M331 744l5 2l17 -4q-8 -71 -46.5 -112.5t-94.5 -41.5q-57 0 -93 42t-40 113l21 3q9 -35 40 -55.5t77 -20.5q42 0 72.5 19.5t41.5 54.5z" />
<glyph unicode="&#x2d9;" horiz-adv-x="307" d="M228 672q0 -35 -22.5 -59.5t-57.5 -24.5q-30 0 -49.5 20t-19.5 49q0 33 24.5 58t59.5 25q28 0 46.5 -19t18.5 -49z" />
<glyph unicode="&#x2da;" horiz-adv-x="362" d="M177 579q-43 0 -70.5 23t-27.5 61q0 40 30 65.5t76 25.5q43 0 70.5 -23.5t27.5 -59.5q-1 -40 -30.5 -66t-75.5 -26zM181 721q-22 0 -35.5 -16.5t-13.5 -40.5q0 -23 13.5 -37.5t34.5 -14.5q22 0 35.5 16.5t13.5 41.5q0 22 -13.5 36.5t-34.5 14.5z" />
<glyph unicode="&#x2db;" horiz-adv-x="378" d="M284 -182q-18 -28 -47.5 -43.5t-63.5 -15.5q-42 0 -68 24.5t-26 65.5q0 58 55 100t156 64l7 -13q-57 -24 -86.5 -57.5t-29.5 -68.5q0 -23 13.5 -36t38.5 -13q22 0 47 5z" />
<glyph unicode="&#x2dc;" horiz-adv-x="516" d="M98 602l-17 5q-1 5 -1.5 9t-0.5 8q4 49 26.5 83.5t68.5 34.5q31 0 67 -11.5t70.5 -25.5t58.5 -20q3 4 13 16t20.5 24.5t14.5 19.5l18 -6q0 -5 0.5 -10t0.5 -11q-3 -47 -25.5 -80t-68.5 -33q-30 0 -67 11.5t-71.5 25t-58.5 20.5q-2 -3 -12 -15t-21 -25.5t-15 -19.5z" />
<glyph unicode="&#x2dd;" horiz-adv-x="520" d="M275 719q0 -23 -26 -50t-67.5 -53t-90.5 -47l-12 15q35 44 66.5 92t47.5 81l8 5q6 1 11.5 1h11.5q21 0 36 -10t15 -34zM441 719q0 -23 -25.5 -50t-67.5 -53t-91 -47l-11 15q35 44 66.5 92t46.5 81l9 5q5 1 11 1h11q21 0 36 -10t15 -34z" />
<glyph unicode="&#x326;" horiz-adv-x="296" d="M217 -162q0 -36 -17.5 -72.5t-44 -65t-54.5 -43.5l-12 10q13 19 25.5 49t17.5 61q-23 4 -37 21t-14 40q0 31 19.5 51.5t48.5 20.5q31 0 49.5 -19.5t18.5 -52.5z" />
<glyph unicode="&#x394;" horiz-adv-x="604" d="M262 688h81l244 -670l-2 -18h-566l-2 18zM438 44l-179 512l-183 -512h362z" />
<glyph unicode="&#x3bc;" horiz-adv-x="628" d="M218 -223q0 -22 -30.5 -26t-89.5 -9l-7 8q0 121 0.5 236t2 232.5t4.5 248.5q1 15 4.5 22t14.5 9q19 3 50.5 6t53.5 4l8 -8q-6 -49 -7.5 -126.5t-1.5 -178.5q0 -60 22 -85t68 -25q47 0 90 33q-1 30 -0.5 62.5t0.5 56.5q0 69 1.5 132.5t1.5 97.5q0 26 19 31q18 4 50 6.5 t54 3.5l8 -8q-4 -41 -6.5 -103t-2.5 -160q0 -73 3.5 -111.5t14 -53t33.5 -14.5q11 0 20 1.5t16 3.5l4 -12q-18 -27 -49 -44t-68 -17q-41 0 -65.5 23.5t-29.5 59.5v3q-18 -39 -47.5 -62.5t-66.5 -23.5q-33 0 -59 19.5t-40 61.5l-4 -1l9 -91q3 -23 6.5 -54l7 -62t6 -54.5 t2.5 -31.5z" />
<glyph unicode="&#x3c0;" horiz-adv-x="620" d="M213 47q-7 -33 -22 -45t-43 -12q-24 0 -46 8l-8 8q29 82 52 185t32 211h-33h-34q-29 0 -44.5 -14t-29.5 -46l-20 2q4 42 10.5 84t17.5 77q27 3 56.5 4t59.5 1q22 0 59.5 -1t82 -3t87.5 -3.5t77.5 -2.5t51.5 -1q32 0 44 8t20 28l20 -2q-3 -34 -11.5 -73t-19.5 -73 q-53 4 -102 7q-3 -32 -5.5 -69.5t-2.5 -79.5q0 -100 18 -143.5t61 -43.5q11 0 19.5 2t17.5 5l4 -12q-15 -24 -42 -43.5t-62 -19.5q-59 0 -80 50.5t-21 146.5q0 46 3 100t8 111q-35 1 -68.5 2t-65.5 2q-4 -82 -11.5 -152.5t-15 -123t-14.5 -79.5z" />
<glyph unicode="&#x1e0c;" horiz-adv-x="724" d="M321 642h-67v-596h67q106 0 163 77t57 221q1 144 -56.5 221t-163.5 77zM439 -157q0 -35 -22.5 -59.5t-58.5 -24.5q-30 0 -49 20t-19 49q0 33 24.5 57.5t59.5 24.5q27 0 46 -18.5t19 -48.5zM674 344q0 -110 -43.5 -187t-122 -117t-182.5 -40h-278l-2 23l41 14 q21 9 29.5 18t8.5 29v542q0 9 -10 11l-69 28l2 23h278q105 0 183.5 -40.5t121.5 -117t43 -186.5z" />
<glyph unicode="&#x1e0d;" horiz-adv-x="588" d="M584 51q-18 -27 -48 -44t-68 -17t-61.5 18t-33.5 50q-21 -28 -57.5 -48t-83.5 -20q-56 0 -99 29.5t-67.5 84.5t-24.5 131q0 86 33.5 147t91.5 93.5t131 32.5q38 0 71 -8v176l-84 23l-2 14q41 17 98 29t105 16l8 -9v-620q0 -36 11 -53.5t38 -17.5q12 0 21 1.5t17 3.5z M171 256q0 -94 31.5 -146t84.5 -52q24 0 45.5 11t35.5 25v351q-27 20 -63 20q-61 0 -97.5 -53.5t-36.5 -155.5zM372 -157q0 -35 -22.5 -59.5t-57.5 -24.5q-30 0 -49 20t-19 49q0 33 24.5 57.5t58.5 24.5q28 0 46.5 -18.5t18.5 -48.5z" />
<glyph unicode="&#x1e24;" horiz-adv-x="798" d="M254 53l79 -30l-2 -23h-283l-2 23l41 14q21 9 29.5 18t8.5 29v551l-79 30l2 23h283l2 -23l-41 -14q-20 -9 -29 -18t-9 -29v-232h290v263l-79 30l2 23h282l2 -23l-41 -14q-20 -9 -28.5 -18t-8.5 -29v-551l78 -30l-2 -23h-282l-2 23l41 14q20 9 29 18t9 29v240h-290v-271z M467 -157q0 -35 -22.5 -59.5t-58.5 -24.5q-30 0 -49 20t-19 49q0 33 24.5 57.5t59.5 24.5q27 0 46 -18.5t19 -48.5z" />
<glyph unicode="&#x1e25;" horiz-adv-x="615" d="M218 47l69 -29l-2 -18h-259l-2 18l37 15q18 8 25 18.5t7 30.5v594l-64 23l-2 14q37 16 88.5 28.5t94.5 16.5l8 -9v-307q40 34 81 50t82 16q67 0 103.5 -39t36.5 -112v-310l69 -29l-2 -18h-259l-2 18l38 15q17 8 24 18.5t7 30.5v261q0 91 -78 91q-48 0 -100 -34v-353z M373 -157q0 -35 -22 -59.5t-58 -24.5q-30 0 -49 20t-19 49q0 33 24.5 57.5t58.5 24.5q28 0 46.5 -18.5t18.5 -48.5z" />
<glyph unicode="&#x1e44;" horiz-adv-x="743" d="M472 853q0 -33 -23.5 -56.5t-61.5 -23.5q-31 0 -51.5 19t-20.5 46q0 32 26 55.5t62 23.5q29 0 49 -17.5t20 -46.5zM176 53l98 -30l-2 -23h-224l-2 23l41 14q21 9 29.5 18t8.5 29v542q0 5 -13 13t-20 10l-46 16l2 23h188l348 -526v473l-79 30l2 23h204l2 -23l-41 -14 q-21 -9 -29.5 -18t-8.5 -29v-604h-87l-371 549v-496z" />
<glyph unicode="&#x1e45;" horiz-adv-x="623" d="M386 673q0 -35 -22.5 -59.5t-58.5 -24.5q-30 0 -49 20t-19 49q0 33 24.5 57.5t59.5 24.5q27 0 46 -18.5t19 -48.5zM226 47l69 -29l-2 -18h-259l-2 18l37 15q18 8 25 18.5t7 30.5v344l-64 23l-2 14q37 16 88.5 28.5t94.5 16.5l8 -9v-57q78 66 163 66q67 0 103.5 -39 t36.5 -112v-310l69 -29l-2 -18h-259l-2 18l38 15q17 8 24 18.5t7 30.5v261q0 91 -78 91q-25 0 -50 -8.5t-50 -24.5v-354z" />
<glyph unicode="&#x1e5a;" horiz-adv-x="708" d="M319 641h-65v-307h65q68 0 106 41t38 115q0 70 -38 110.5t-106 40.5zM454 -157q0 -35 -22.5 -59.5t-57.5 -24.5q-31 0 -50 20t-19 49q0 33 24.5 57.5t59.5 24.5q28 0 46.5 -18.5t18.5 -48.5zM254 53l79 -30l-2 -23h-283l-2 23l41 14q21 9 29.5 18t8.5 29v542q0 9 -10 11 l-69 28l2 23h290q78 0 136 -23.5t90.5 -66.5t32.5 -102q0 -46 -18 -81t-47.5 -59.5t-62.5 -38.5l70 -126q33 -57 58 -94.5t66 -61.5l27 -15l-2 -20l-127 -3q-39 0 -59.5 16t-38.5 49l-118 227q-11 -1 -13 -1h-78v-235z" />
<glyph unicode="&#x1e5b;" horiz-adv-x="431" d="M226 47l89 -29l-2 -18h-279l-2 18l37 15q18 8 25 18.5t7 30.5v344l-64 23l-2 14q37 16 88.5 28.5t94.5 16.5l8 -9v-76q31 41 63 63t64 22q30 0 49 -17t19 -46q0 -27 -13 -46.5t-23 -30.5q-1 0 -7.5 -0.5l-6.5 -0.5q-19 17 -41 29t-52 16q-11 0 -26.5 -10t-25.5 -21v-334z M238 -157q0 -35 -22.5 -59.5t-57.5 -24.5q-30 0 -49 20t-19 49q0 33 24.5 57.5t58.5 24.5q28 0 46.5 -18.5t18.5 -48.5z" />
<glyph unicode="&#x1e62;" horiz-adv-x="531" d="M234 -10q-41 0 -78.5 4.5t-64 12.5t-35.5 18q-15 18 -15 65q0 28 7 61t20 57l25 -2q9 -51 20 -83t29 -52q20 -22 49 -29.5t58 -7.5q55 0 84 30t29 74q0 42 -22.5 72.5t-58 55t-75 47.5t-75 50t-58 63t-22.5 86q0 61 34 102.5t90 62.5t124 21q59 0 106.5 -12t59.5 -25 q8 -7 9.5 -21.5t1.5 -27.5q0 -25 -6 -63.5t-20 -67.5l-25 1q-8 52 -19.5 82.5t-22.5 46.5q-13 18 -36 30.5t-55 12.5q-52 0 -83 -30.5t-31 -78.5q0 -41 22.5 -71t58 -54t75 -47t75 -50.5t58 -64.5t22.5 -90q0 -89 -69 -133.5t-186 -44.5zM338 -157q0 -35 -22 -59.5 t-58 -24.5q-30 0 -49 20t-19 49q0 33 24.5 57.5t58.5 24.5q28 0 46.5 -18.5t18.5 -48.5z" />
<glyph unicode="&#x1e63;" horiz-adv-x="452" d="M198 -10q-46 0 -88 8t-54 20q-15 16 -15 58q0 25 7 49t20 43l15 -2q7 -39 18 -62.5t25 -39.5q13 -14 33 -22.5t47 -8.5q37 0 57.5 18.5t20.5 48.5q0 29 -16.5 49.5t-43.5 37t-57 32t-56.5 35t-43.5 46t-17 64.5q0 46 28 78t74.5 49t102.5 17q45 0 83 -8.5t48 -18.5 q11 -10 11 -46q0 -21 -6 -49t-20 -50l-15 1q-8 41 -16.5 62.5t-20.5 35.5q-11 11 -27 20.5t-41 9.5q-33 0 -54 -18.5t-21 -50.5q0 -28 17 -48.5t43.5 -37t56.5 -32.5t57 -35.5t44 -46t17 -64.5q0 -68 -59 -105t-154 -37zM299 -157q0 -35 -22 -59.5t-58 -24.5q-30 0 -49 20 t-19 49q0 33 24.5 57.5t58.5 24.5q28 0 46.5 -18.5t18.5 -48.5z" />
<glyph unicode="&#x1e6c;" horiz-adv-x="635" d="M382 53l79 -30l-2 -23h-283l-2 23l41 14q21 9 29.5 18t8.5 29v558h-39q-22 0 -45 -1.5t-40 -4.5q-9 -16 -19 -38t-20 -51l-28 -70h-25q-5 26 -7.5 52.5t-2.5 58.5q0 31 2.5 54.5t5.5 45.5h565q3 -22 5.5 -45.5t2.5 -54.5q0 -32 -2.5 -58.5t-7.5 -52.5h-25l-28 70 q-10 29 -20 51t-19 38q-17 3 -40 4.5t-45 1.5h-39v-589zM382 -157q0 -35 -22.5 -59.5t-57.5 -24.5q-30 0 -49 20t-19 49q0 33 24.5 57.5t58.5 24.5q28 0 46.5 -18.5t18.5 -48.5z" />
<glyph unicode="&#x1e6d;" horiz-adv-x="411" d="M394 103q-23 -43 -65 -78t-105 -35q-64 0 -98.5 39.5t-34.5 118.5v294h-73l-2 18l76 39l104 141l20 -2v-154h149v-42h-149v-273q0 -46 16.5 -70.5t54.5 -24.5q25 0 48.5 11t44.5 30zM301 -157q0 -35 -22.5 -59.5t-57.5 -24.5q-30 0 -49.5 20t-19.5 49q0 33 24.5 57.5 t59.5 24.5q28 0 46.5 -18.5t18.5 -48.5z" />
<glyph unicode="&#x1e80;" horiz-adv-x="1063" d="M684 791l-6 -17q-44 1 -92.5 6.5t-89.5 16.5t-67 28.5t-26 42.5q0 18 17 33.5t39 23.5l10 -2q34 -28 91 -65t124 -67zM383 0h-80l-200 604q-7 21 -17 30t-28 16l-41 15l2 23h288l2 -23l-79 -24l157 -507l121 385l-28 85q-7 21 -14 30t-24 16l-42 15l2 23h283l2 -23 l-80 -24l157 -505l159 504l-80 25l2 23h198l2 -23q-8 -5 -26.5 -10t-24.5 -9q-24 -11 -34 -42l-200 -604h-81l-147 448z" />
<glyph unicode="&#x1e81;" horiz-adv-x="808" d="M528 584l-11 -14q-55 20 -102 46.5t-75 53.5t-28 50t20.5 33t49.5 10h11h11l9 -6q16 -33 48 -80.5t67 -92.5zM477 498l124 -363l84 317l-72 28l2 18h182l2 -18q-8 -3 -24.5 -9.5t-22.5 -11.5q-25 -14 -34 -43l-120 -416h-79l-116 333l-119 -333h-80l-120 415 q-4 17 -12.5 27t-18.5 15q-6 6 -21.5 13t-22.5 10l2 18h263l2 -18l-68 -28l82 -317l127 363h60z" />
<glyph unicode="&#x1e82;" horiz-adv-x="1063" d="M637 923l11 1q22 -7 39 -22.5t17 -33.5q0 -25 -26 -42.5t-67 -28.5t-89.5 -17t-92.5 -7l-6 18q67 29 124 66.5t90 65.5zM383 0h-80l-200 604q-7 21 -17 30t-28 16l-41 15l2 23h288l2 -23l-79 -24l157 -507l121 385l-28 85q-7 21 -14 30t-24 16l-42 15l2 23h283l2 -23 l-80 -24l157 -505l159 504l-80 25l2 23h198l2 -23q-8 -5 -26.5 -10t-24.5 -9q-24 -11 -34 -42l-200 -604h-81l-147 448z" />
<glyph unicode="&#x1e83;" horiz-adv-x="808" d="M566 720q0 -23 -28.5 -50t-75.5 -53.5t-102 -46.5l-11 14q35 45 67 92.5t48 80.5l9 6h11h11q29 0 50 -10t21 -33zM477 498l124 -363l84 317l-72 28l2 18h182l2 -18q-8 -3 -24.5 -9.5t-22.5 -11.5q-25 -14 -34 -43l-120 -416h-79l-116 333l-119 -333h-80l-120 415 q-4 17 -12.5 27t-18.5 15q-6 6 -21.5 13t-22.5 10l2 18h263l2 -18l-68 -28l82 -317l127 363h60z" />
<glyph unicode="&#x1e84;" horiz-adv-x="1063" d="M726 857q0 -30 -21 -52t-55 -22q-29 0 -46.5 17.5t-17.5 41.5q0 30 22.5 51.5t55.5 21.5q27 0 44.5 -16t17.5 -42zM505 857q0 -30 -21 -52t-55 -22q-29 0 -46.5 17.5t-17.5 41.5q0 30 22.5 51.5t55.5 21.5q27 0 44.5 -16t17.5 -42zM383 0h-80l-200 604q-7 21 -17 30 t-28 16l-41 15l2 23h288l2 -23l-79 -24l157 -507l121 385l-28 85q-7 21 -14 30t-24 16l-42 15l2 23h283l2 -23l-80 -24l157 -505l159 504l-80 25l2 23h198l2 -23q-8 -5 -26.5 -10t-24.5 -9q-24 -11 -34 -42l-200 -604h-81l-147 448z" />
<glyph unicode="&#x1e85;" horiz-adv-x="808" d="M616 675q0 -32 -20.5 -55.5t-52.5 -23.5q-27 0 -44 19t-17 45q0 31 22 54.5t53 23.5q25 0 42 -17.5t17 -45.5zM395 675q0 -32 -20 -55.5t-53 -23.5q-27 0 -44 19t-17 45q0 31 22 54.5t53 23.5q25 0 42 -17.5t17 -45.5zM477 498l124 -363l84 317l-72 28l2 18h182l2 -18 q-8 -3 -24.5 -9.5t-22.5 -11.5q-25 -14 -34 -43l-120 -416h-79l-116 333l-119 -333h-80l-120 415q-4 17 -12.5 27t-18.5 15q-6 6 -21.5 13t-22.5 10l2 18h263l2 -18l-68 -28l82 -317l127 363h60z" />
<glyph unicode="&#x1e92;" horiz-adv-x="635" d="M563 0h-498l-8 42l369 601h-167q-21 0 -43 -1t-40 -4l-76 -161h-24q-5 25 -7.5 53t-2.5 54q0 30 2 55.5t6 48.5h489l8 -42l-368 -601h175q21 0 43.5 1t39.5 4l76 161h24q10 -48 10 -105q0 -28 -2 -55.5t-6 -50.5zM395 -157q0 -35 -22 -59.5t-58 -24.5q-30 0 -49 20 t-19 49q0 33 24.5 57.5t58.5 24.5q28 0 46.5 -18.5t18.5 -48.5z" />
<glyph unicode="&#x1e93;" horiz-adv-x="491" d="M448 73q-1 -40 -8 -73h-390l-9 42l274 414h-169l-68 -127h-18q-12 47 -12 97q0 39 7 72h386l8 -42l-274 -414h174l68 127h18q13 -46 13 -96zM322 -157q0 -35 -22.5 -59.5t-57.5 -24.5q-30 0 -49.5 20t-19.5 49q0 33 24.5 57.5t59.5 24.5q28 0 46.5 -18.5t18.5 -48.5z" />
<glyph unicode="&#x1e9e;" horiz-adv-x="763" d="M721 162q0 -80 -60 -126t-167 -46q-50 0 -91 10t-52 25q-15 18 -15 65q0 25 7 54.5t20 50.5l24 -1q6 -42 15 -72t22 -49q27 -39 79 -39q43 0 67.5 26.5t24.5 64.5q0 79 -59 132.5t-166 92.5l-3 32l155 198q-21 32 -53.5 53.5t-75.5 21.5q-40 0 -71.5 -23t-49.5 -62 t-18 -88v-453l-25 -29h-181l-2 23l41 14q21 9 29.5 18t8.5 29v375q0 68 37 122t100.5 85.5t142.5 31.5q71 0 127 -18t91 -51l4 -29l-146 -179q71 -32 125.5 -69.5t84.5 -84t30 -105.5z" />
<glyph unicode="&#x1ea0;" horiz-adv-x="714" d="M317 688h80l214 -604q7 -21 17.5 -30t27.5 -16l41 -15l-2 -23h-288l-2 23l79 25l-58 172l-228 -3l-57 -168l79 -26l-2 -23h-199l-2 23q10 4 28 10t24 10q24 12 34 41zM213 261l200 -1l-100 296zM383 -157q0 -35 -22 -59.5t-58 -24.5q-30 0 -49 20t-19 49q0 33 24.5 57.5 t58.5 24.5q28 0 46.5 -18.5t18.5 -48.5z" />
<glyph unicode="&#x1ea1;" horiz-adv-x="544" d="M288 508q79 0 122.5 -40.5t43.5 -118.5q0 -16 -0.5 -45.5t-1.5 -63.5t-1.5 -65t-0.5 -51q0 -32 9.5 -49t37.5 -17q17 0 39 5l4 -12q-20 -30 -51 -45.5t-65 -15.5q-37 0 -62.5 18.5t-32.5 48.5q-25 -29 -64 -48t-85 -19q-58 0 -94.5 30.5t-36.5 83.5q0 50 35 86.5t98 57 t146 21.5q0 45 0.5 78.5t0.5 37.5q0 80 -69 80q-36 0 -58 -23.5t-22 -60.5q0 -9 1 -20t4 -23q-15 -8 -29.5 -11t-27.5 -3q-27 0 -44 11.5t-17 34.5t18.5 47.5t50 45t71 33t81.5 12.5zM176 126q0 -34 18 -51t49 -17q25 0 47.5 11t36.5 26q0 24 0.5 62.5t0.5 79.5 q-70 -5 -111 -33.5t-41 -77.5zM348 -157q0 -35 -22.5 -59.5t-57.5 -24.5q-30 0 -49.5 20t-19.5 49q0 33 24.5 57.5t59.5 24.5q28 0 46.5 -18.5t18.5 -48.5z" />
<glyph unicode="&#x1eb8;" horiz-adv-x="603" d="M254 363l197 8l-3 -58l-194 8v-276h112q21 0 43.5 1t39.5 4q5 6 12 21t14 31.5t12 27.5l32 81h24q10 -50 10 -111q0 -31 -2 -54.5t-6 -45.5h-497l-2 23l41 14q21 9 29.5 18t8.5 29v542q0 9 -10 11l-69 28l2 23h487q4 -22 6 -45.5t2 -54.5q0 -32 -2.5 -58.5t-7.5 -52.5 h-24l-32 81q-5 11 -12 27.5t-14 31.5t-12 21q-38 5 -83 5h-102v-280zM386 -157q0 -35 -22 -59.5t-58 -24.5q-30 0 -49 20t-19 49q0 33 24.5 57.5t58.5 24.5q28 0 46.5 -18.5t18.5 -48.5z" />
<glyph unicode="&#x1eb9;" horiz-adv-x="500" d="M464 103q-25 -48 -73 -80.5t-121 -32.5q-69 0 -120.5 30.5t-80 86t-28.5 131.5q0 81 31 141.5t84 94.5t119 34q55 0 98 -23.5t67.5 -66.5t24.5 -102q0 -30 -1 -49l-13 -13h-279q10 -180 152 -180q36 0 68.5 11t57.5 30zM269 465q-31 0 -53 -23.5t-33.5 -63.5t-11.5 -89 l167 7q1 17 1 38q0 69 -17.5 100t-52.5 31zM329 -157q0 -35 -22 -59.5t-58 -24.5q-30 0 -49 20t-19 49q0 33 24.5 57.5t59.5 24.5q27 0 45.5 -18.5t18.5 -48.5z" />
<glyph unicode="&#x1ebc;" horiz-adv-x="603" d="M145 771l-18 5q0 5 -0.5 10t-0.5 9q3 52 26 87.5t70 35.5q34 0 75.5 -13t80.5 -28t66 -21q2 4 12.5 17.5t21 28t15.5 21.5l17 -6q1 -5 1 -10.5v-12.5q-3 -49 -25.5 -83.5t-68.5 -34.5q-34 0 -75.5 13t-81 28t-66.5 21q-2 -2 -12.5 -16t-21.5 -29t-15 -22zM254 363l197 8 l-3 -58l-194 8v-276h112q21 0 43.5 1t39.5 4q5 6 12 21t14 31.5t12 27.5l32 81h24q10 -50 10 -111q0 -31 -2 -54.5t-6 -45.5h-497l-2 23l41 14q21 9 29.5 18t8.5 29v542q0 9 -10 11l-69 28l2 23h487q4 -22 6 -45.5t2 -54.5q0 -32 -2.5 -58.5t-7.5 -52.5h-24l-32 81 q-5 11 -12 27.5t-14 31.5t-12 21q-38 5 -83 5h-102v-280z" />
<glyph unicode="&#x1ebd;" horiz-adv-x="500" d="M107 602l-18 5q0 5 -0.5 9t-0.5 8q3 49 26 83.5t69 34.5q30 0 66.5 -11.5t71 -25.5t58.5 -20q3 4 13 16t20.5 24.5t14.5 19.5l17 -6q1 -5 1.5 -10t0.5 -11q-4 -47 -26 -80t-69 -33q-30 0 -66.5 11.5t-71 25t-58.5 20.5q-2 -3 -12.5 -15t-21 -25.5t-14.5 -19.5zM464 103 q-25 -48 -73 -80.5t-121 -32.5q-69 0 -120.5 30.5t-80 86t-28.5 131.5q0 81 31 141.5t84 94.5t119 34q55 0 98 -23.5t67.5 -66.5t24.5 -102q0 -30 -1 -49l-13 -13h-279q10 -180 152 -180q36 0 68.5 11t57.5 30zM269 465q-31 0 -53 -23.5t-33.5 -63.5t-11.5 -89l167 7 q1 17 1 38q0 69 -17.5 100t-52.5 31z" />
<glyph unicode="&#x1eca;" horiz-adv-x="380" d="M254 53l79 -30l-2 -23h-283l-2 23l41 14q21 9 29.5 18t8.5 29v551l-79 30l2 23h283l2 -23l-41 -14q-20 -9 -29 -18t-9 -29v-551zM258 -157q0 -35 -22 -59.5t-58 -24.5q-30 0 -49 20t-19 49q0 33 24.5 57.5t58.5 24.5q28 0 46.5 -18.5t18.5 -48.5z" />
<glyph unicode="&#x1ecb;" horiz-adv-x="320" d="M229 673q0 -35 -22.5 -59.5t-57.5 -24.5q-30 0 -49.5 20t-19.5 49q0 33 24.5 57.5t59.5 24.5q28 0 46.5 -18.5t18.5 -48.5zM226 47l69 -29l-2 -18h-259l-2 18l37 15q18 8 25 18.5t7 30.5v344l-64 23l-2 14q37 16 88.5 28.5t94.5 16.5l8 -9v-452zM229 -157 q0 -36 -22.5 -60.5t-57.5 -24.5q-31 0 -50 20.5t-19 49.5q0 33 24.5 57.5t59.5 24.5q28 0 46.5 -18.5t18.5 -48.5z" />
<glyph unicode="&#x1ecc;" horiz-adv-x="716" d="M49 344q0 112 42.5 191t113 121t157.5 42q88 0 156.5 -41t108.5 -118.5t40 -189.5t-40.5 -192.5t-110 -123.5t-159.5 -43q-91 0 -160.5 42t-108.5 121.5t-39 190.5zM182 344q0 -94 21.5 -163t61.5 -106.5t95 -37.5t94 39.5t59 110t21 162.5q0 92 -20.5 160t-59 105 t-92.5 37q-55 0 -95.5 -37.5t-62 -106.5t-22.5 -163zM429 -157q0 -35 -22.5 -59.5t-57.5 -24.5q-30 0 -49.5 20t-19.5 49q0 33 24.5 57.5t59.5 24.5q28 0 46.5 -18.5t18.5 -48.5z" />
<glyph unicode="&#x1ecd;" horiz-adv-x="538" d="M497 250q0 -80 -30 -138t-82.5 -90t-119.5 -32q-66 0 -116.5 31.5t-79 90t-28.5 138.5t31.5 138t84 89t118.5 31q64 0 114.5 -31t79 -88.5t28.5 -138.5zM171 250q0 -112 23.5 -164.5t72.5 -52.5q50 0 75 50t25 165q0 111 -23.5 164t-70.5 53q-49 0 -75.5 -51t-26.5 -164z M343 -157q0 -35 -22.5 -59.5t-57.5 -24.5q-31 0 -50 20t-19 49q0 33 24.5 57.5t59.5 24.5q28 0 46.5 -18.5t18.5 -48.5z" />
<glyph unicode="&#x1ee4;" horiz-adv-x="672" d="M88 235v400l-79 30l2 23h283l2 -23l-41 -14q-20 -9 -29 -18t-9 -29v-372q0 -95 44 -143.5t113 -48.5t113.5 47.5t44.5 144.5v403l-79 30l2 23h204l2 -23l-79 -30v-400q0 -122 -63.5 -183.5t-177.5 -61.5t-183.5 61.5t-69.5 183.5zM419 -157q0 -35 -22.5 -59.5 t-57.5 -24.5q-30 0 -49.5 20t-19.5 49q0 33 24.5 57.5t59.5 24.5q28 0 46.5 -18.5t18.5 -48.5z" />
<glyph unicode="&#x1ee5;" horiz-adv-x="628" d="M95 151v275l-64 23l-2 14q37 16 88.5 28.5t94.5 16.5l8 -9v-335q0 -103 88 -103q47 0 92 34v331l-64 23l-2 14q37 16 88.5 28.5t94.5 16.5l8 -9v-370q0 -71 46 -71q20 0 41 5l4 -12q-19 -29 -49.5 -45t-67.5 -16t-60 17.5t-33 48.5q-30 -30 -70 -48t-86 -18 q-72 0 -113.5 41.5t-41.5 119.5zM400 -157q0 -35 -22.5 -59.5t-57.5 -24.5q-30 0 -49.5 20t-19.5 49q0 33 24.5 57.5t59.5 24.5q28 0 46.5 -18.5t18.5 -48.5z" />
<glyph unicode="&#x1ef2;" horiz-adv-x="689" d="M506 791l-6 -17q-44 1 -92.5 6.5t-89.5 16.5t-67 28.5t-26 42.5q0 18 17 33.5t39 23.5l11 -2q33 -28 90 -65t124 -67zM409 53l79 -30l-2 -23h-283l-2 23l41 14q21 9 29.5 18t8.5 29v203l-175 317q-13 24 -24.5 33.5t-28.5 16.5l-35 11l2 23h291l2 -23l-80 -25l157 -309 l157 310l-78 24l2 23h200l2 -23q-10 -5 -28 -11t-23 -11q-13 -5 -21 -14t-16 -25l-175 -318v-233z" />
<glyph unicode="&#x1ef3;" horiz-adv-x="551" d="M388 584l-12 -15q-55 21 -101.5 47t-75 53t-28.5 50q0 24 20.5 34t49.5 10h11.5t11.5 -1l8 -5q17 -33 49 -81t67 -92zM15 498h263l2 -18l-68 -28l105 -332l111 332l-73 28l2 18h182l2 -18q-9 -4 -25.5 -10.5t-21.5 -11.5q-12 -7 -19.5 -17t-12.5 -25l-159 -446 q-42 -119 -86 -173.5t-102 -54.5q-34 0 -55 21.5t-21 53.5q0 27 14 49l7 3q13 -8 29 -14.5t33 -6.5q46 0 89 41.5t65 108.5l-39 -5l-149 422q-10 30 -31 42q-4 5 -19 12t-25 11z" />
<glyph unicode="&#x1ef8;" horiz-adv-x="689" d="M197 771l-17 6q-1 4 -1 9v10q3 51 26 87t69 36q34 0 75.5 -13t80.5 -28.5t67 -20.5q2 3 12.5 17t21 28.5t14.5 21.5l18 -6q0 -6 0.5 -11.5t0.5 -12.5q-3 -49 -25.5 -83.5t-69.5 -34.5q-34 0 -75.5 13t-80.5 28t-66 21q-2 -2 -12.5 -15.5t-22 -29t-15.5 -22.5zM409 53 l79 -30l-2 -23h-283l-2 23l41 14q21 9 29.5 18t8.5 29v203l-175 317q-13 24 -24.5 33.5t-28.5 16.5l-35 11l2 23h291l2 -23l-80 -25l157 -309l157 310l-78 24l2 23h200l2 -23q-10 -5 -28 -11t-23 -11q-13 -5 -21 -14t-16 -25l-175 -318v-233z" />
<glyph unicode="&#x1ef9;" horiz-adv-x="551" d="M127 602l-17 5q-1 5 -1.5 9t-0.5 8q4 49 26.5 83.5t68.5 34.5q31 0 67 -11.5t70.5 -25.5t58.5 -20q3 4 13 16t20.5 24.5t14.5 19.5l18 -6q0 -5 0.5 -10t0.5 -11q-3 -47 -25.5 -80t-68.5 -33q-30 0 -67 11.5t-71.5 25t-58.5 20.5q-2 -3 -12 -15t-21 -25.5t-15 -19.5z M15 498h263l2 -18l-68 -28l105 -332l111 332l-73 28l2 18h182l2 -18q-9 -4 -25.5 -10.5t-21.5 -11.5q-12 -7 -19.5 -17t-12.5 -25l-159 -446q-42 -119 -86 -173.5t-102 -54.5q-34 0 -55 21.5t-21 53.5q0 27 14 49l7 3q13 -8 29 -14.5t33 -6.5q46 0 89 41.5t65 108.5l-39 -5 l-149 422q-10 30 -31 42q-4 5 -19 12t-25 11z" />
<glyph unicode="&#x2007;" />
<glyph unicode="&#x2013;" horiz-adv-x="561" d="M33 251v44h495v-44h-495z" />
<glyph unicode="&#x2014;" horiz-adv-x="864" d="M33 251v44h798v-44h-798z" />
<glyph unicode="&#x2018;" horiz-adv-x="267" d="M211 747q-21 -28 -40.5 -70.5t-27.5 -90.5q32 -2 52 -22.5t20 -49.5q0 -34 -26 -60t-63 -26q-35 0 -56 23t-21 59q0 48 22 96t56 88.5t70 63.5z" />
<glyph unicode="&#x2019;" horiz-adv-x="267" d="M55 440q21 27 41 70t28 90q-32 3 -52 23t-20 50q0 34 26 59.5t63 25.5q35 0 55.5 -22.5t20.5 -59.5q0 -47 -22 -95.5t-55.5 -88.5t-70.5 -64z" />
<glyph unicode="&#x201a;" horiz-adv-x="267" d="M55 -170q21 27 41 70t28 90q-32 2 -52 22.5t-20 50.5q0 34 26 59.5t63 25.5q35 0 55.5 -22.5t20.5 -59.5q0 -47 -22 -95.5t-55.5 -88.5t-70.5 -64z" />
<glyph unicode="&#x201c;" horiz-adv-x="492" d="M211 747q-21 -28 -40.5 -70.5t-27.5 -90.5q32 -2 52 -22.5t20 -49.5q0 -34 -26 -60t-63 -26q-35 0 -56 23t-21 59q0 48 22 96t56 88.5t70 63.5zM437 747q-21 -28 -41 -70.5t-28 -90.5q33 -2 52.5 -22.5t19.5 -49.5q0 -34 -26 -60t-62 -26t-56.5 23t-20.5 59q0 48 22 96 t56 88.5t70 63.5z" />
<glyph unicode="&#x201d;" horiz-adv-x="492" d="M281 440q21 27 40.5 70t27.5 90q-32 3 -52 23t-20 50q0 34 26 59.5t63 25.5q35 0 56 -22.5t21 -59.5q0 -47 -22 -95.5t-56 -88.5t-70 -64zM55 440q21 27 41 70t28 90q-32 3 -52 23t-20 50q0 34 26 59.5t63 25.5q35 0 55.5 -22.5t20.5 -59.5q0 -47 -22 -95.5t-55.5 -88.5 t-70.5 -64z" />
<glyph unicode="&#x201e;" horiz-adv-x="492" d="M281 -170q21 27 40.5 70t27.5 90q-32 2 -52 22.5t-20 50.5q0 34 26 59.5t63 25.5q35 0 56 -22.5t21 -59.5q0 -47 -22 -95.5t-56 -88.5t-70 -64zM55 -170q21 27 41 70t28 90q-32 2 -52 22.5t-20 50.5q0 34 26 59.5t63 25.5q35 0 55.5 -22.5t20.5 -59.5q0 -47 -22 -95.5 t-55.5 -88.5t-70.5 -64z" />
<glyph unicode="&#x2020;" horiz-adv-x="505" d="M326 134l-54 -134h-39l-54 134l48 325l-167 -33l-4 3q-2 21 -4 50.5t-3 56.5l14 8l163 -34l-47 177l3 4q27 3 64.5 5t71.5 2l8 -8l-47 -180l166 34l4 -3q2 -21 4 -50.5t3 -56.5l-14 -8l-164 33z" />
<glyph unicode="&#x2021;" horiz-adv-x="505" d="M182 691q27 3 64.5 5t71.5 2l8 -8l-47 -180l166 34l4 -3q2 -21 4 -50.5t3 -56.5l-14 -8l-160 32q4 -19 8 -42t6.5 -42.5t2.5 -29.5q0 -15 -5.5 -48.5t-11.5 -61.5l162 32l8 -5q1 -22 1.5 -51.5t-0.5 -55.5l-10 -6l-164 34l47 -178l-5 -6q-27 -1 -64.5 -1.5t-71.5 -0.5 l-6 7l47 179l-164 -34l-8 4q-1 23 -1.5 52.5t-0.5 55.5l10 6l161 -32q-6 28 -11.5 61.5t-5.5 48.5q0 9 3 29t6.5 43t8.5 42l-164 -32l-4 3q-2 21 -4 50.5t-3 56.5l14 8l163 -34l-47 177z" />
<glyph unicode="&#x2022;" horiz-adv-x="452" d="M221 116q-58 0 -94 36.5t-38 87.5q0 40 19.5 74.5t53 55t74.5 20.5q54 0 89.5 -33.5t36.5 -89.5q2 -40 -15.5 -74.5t-50 -55.5t-75.5 -21z" />
<glyph unicode="&#x2026;" horiz-adv-x="732" d="M126 -10q-33 0 -54.5 21t-22.5 50q0 35 25.5 61t60.5 26q31 0 51.5 -19.5t21.5 -51.5q1 -35 -22 -61t-60 -26zM363 -10q-33 0 -54.5 21t-22.5 50q0 35 25.5 61t60.5 26q31 0 51.5 -19.5t21.5 -51.5q1 -35 -22 -61t-60 -26zM600 -10q-33 0 -54.5 21t-22.5 50q0 35 25.5 61 t60.5 26q31 0 51.5 -19.5t21.5 -51.5q1 -35 -22 -61t-60 -26z" />
<glyph unicode="&#x2030;" horiz-adv-x="1424" d="M733 698l-423 -708h-55l423 708h55zM55 483q0 61 21.5 109t62 75t95.5 27q54 0 93 -27t60 -74.5t22 -109.5q0 -58 -21.5 -105t-62 -74.5t-95.5 -27.5q-83 0 -129 58t-46 149zM152 482q1 -95 18 -133t62 -38t62.5 40.5t17.5 132.5q-1 94 -19 135t-60 41q-43 0 -62 -42.5 t-19 -135.5zM582 197q0 61 22 109t62 75t95 27q54 0 93 -27t60 -74.5t22 -109.5q0 -58 -21.5 -105t-62 -74.5t-95.5 -27.5q-83 0 -129 58t-46 149zM1016 197q-1 61 21 109t62.5 75t95.5 27q54 0 93 -27t60 -74.5t21 -109.5q1 -58 -21 -105t-62 -74.5t-96 -27.5 q-82 0 -128 58t-46 149zM680 196q0 -95 17 -133t62 -38t62.5 40.5t17.5 132.5q-1 94 -18.5 135t-60.5 41t-62 -42.5t-18 -135.5zM1113 196q0 -95 17 -133t63 -38q44 0 62 40.5t17 132.5q0 94 -18 135t-60 41q-43 0 -62 -42.5t-19 -135.5z" />
<glyph unicode="&#x2039;" horiz-adv-x="334" d="M263 30l-17 -10q-42 55 -88.5 106t-82.5 82l-6 8v70q48 46 95.5 98.5t84.5 99.5l15 -11q-22 -53 -48.5 -110.5t-52.5 -112.5q23 -45 50 -103.5t50 -116.5z" />
<glyph unicode="&#x203a;" horiz-adv-x="334" d="M264 216q-47 -46 -94.5 -98.5t-84.5 -99.5l-16 11q22 53 48.5 111t53.5 112q-24 45 -50.5 103.5t-50.5 116.5l18 10q42 -55 88.5 -106t82.5 -82l5 -8v-70z" />
<glyph unicode="&#x2044;" horiz-adv-x="257" d="M368 698l-424 -708h-55l423 708h56z" />
<glyph unicode="&#x2070;" horiz-adv-x="436" d="M41 547q0 61 22 109t62.5 75t95.5 27q54 0 93 -27t60 -74.5t21 -109.5q0 -58 -21.5 -105t-61.5 -74.5t-96 -27.5q-82 0 -128 58t-47 149zM139 546q0 -95 17 -133.5t62 -38.5t63 41t17 132q0 95 -18 136t-60 41q-44 0 -63 -43t-18 -135z" />
<glyph unicode="&#x2071;" horiz-adv-x="286" d="M142 837q-26 0 -42.5 17.5t-16.5 40.5q0 29 21 50t51 21q24 0 40.5 -16t16.5 -41q0 -30 -20 -51t-50 -21zM200 407l56 -23l-1 -14h-214l-2 14l31 12q14 6 19.5 14.5t5.5 25.5v263l-52 20l-2 11q30 13 73 23t79 13l7 -7v-352z" />
<glyph unicode="&#x2074;" horiz-adv-x="440" d="M41 478l228 280l63 -6v-262h67l-5 -52h-62v-84h-94v84h-190zM96 490h142v175z" />
<glyph unicode="&#x2075;" horiz-adv-x="387" d="M75 748h258q0 -26 -4 -57t-11 -62l-15 1q-1 22 -7.5 29.5t-30.5 7.5h-140l-3 -95h31q87 0 139.5 -29.5t52.5 -85.5q0 -54 -47.5 -85.5t-124.5 -31.5q-59 0 -95.5 16t-36.5 43q0 19 18.5 31.5t46.5 12.5l8 -6q-2 -4 -2 -9q3 -25 20.5 -41.5t48.5 -16.5q33 0 52.5 17 t19.5 47q0 43 -47 71t-128 30l-7 8z" />
<glyph unicode="&#x2076;" horiz-adv-x="414" d="M372 470q0 -37 -21 -66t-58.5 -46.5t-86.5 -17.5q-74 0 -119.5 45.5t-45.5 117.5t39 129t107.5 91t158.5 35l5 -17q-74 -24 -126.5 -69.5t-73.5 -107.5q18 6 39.5 10.5t44.5 4.5q63 0 100 -29.5t37 -79.5zM139 488q0 -29 8.5 -56t25 -44.5t40.5 -17.5q28 0 46 21.5 t18 55.5q0 40 -23.5 65t-62.5 25q-26 0 -48 -5q-4 -21 -4 -44z" />
<glyph unicode="&#x2077;" horiz-adv-x="390" d="M342 748l7 -55q-72 -75 -106 -162t-42 -184h-96q6 61 35.5 120.5t70 111t79.5 88.5h-186q-22 0 -31 -7t-17 -28l-13 1q-1 22 2.5 57t9.5 58h287z" />
<glyph unicode="&#x2078;" horiz-adv-x="415" d="M373 457q0 -46 -44.5 -81.5t-123.5 -35.5q-71 0 -117.5 26.5t-46.5 71.5q0 42 33 65.5t75 31.5q-33 20 -58 45.5t-25 64.5q0 48 41 80.5t110 32.5q59 0 96 -26t37 -67q0 -33 -23 -55.5t-58 -36.5q26 -14 50 -30t39 -36.5t15 -49.5zM153 677q0 -32 28 -53t64 -39 q15 18 22.5 39.5t7.5 41.5q0 28 -15 45t-45 17q-27 0 -44.5 -14t-17.5 -37zM131 441q0 -33 21.5 -52t55.5 -19q31 0 52 15.5t21 41.5q0 21 -15.5 37t-40.5 29.5t-52 28.5q-19 -17 -30.5 -37t-11.5 -44z" />
<glyph unicode="&#x2079;" horiz-adv-x="414" d="M372 585q0 -69 -39 -124.5t-108 -88t-159 -32.5l-4 17q74 23 126.5 66.5t73.5 104.5q-19 -6 -40.5 -10.5t-44.5 -4.5q-62 0 -99 30.5t-37 83.5q1 55 47 93t120 38t119 -47.5t45 -125.5zM137 645q0 -40 23 -65t62 -25q27 0 48 5q5 22 5 45q0 49 -18 86t-51 37 q-31 0 -50 -22.5t-19 -60.5z" />
<glyph unicode="&#x207f;" horiz-adv-x="536" d="M200 407l56 -23l-1 -14h-214l-2 14l31 12q14 6 19.5 14.5t5.5 25.5v263l-52 20l-2 11q30 13 73 23t79 13l7 -7v-45q64 52 133 52q55 0 85.5 -30t30.5 -87v-242l56 -23l-1 -14h-214l-2 14l31 12q14 6 19.5 14.5t5.5 25.5v201q0 69 -64 69q-20 0 -40.5 -7t-39.5 -19v-273z " />
<glyph unicode="&#x2080;" horiz-adv-x="436" d="M41 121q0 61 22 109t62.5 75t95.5 27q54 0 93 -27t60 -74.5t21 -109.5q0 -58 -21.5 -105t-61.5 -74.5t-96 -27.5q-82 0 -128 58t-47 149zM139 120q0 -95 17 -133t62 -38t63 40.5t17 132.5q0 94 -18 135t-60 41q-44 0 -63 -42.5t-18 -135.5z" />
<glyph unicode="&#x2081;" horiz-adv-x="298" d="M198 -46l59 -21l-2 -11h-212l-2 11l26 6q19 7 28 15t9 24v288l-61 11l-2 11l152 44l5 -5v-373z" />
<glyph unicode="&#x2082;" horiz-adv-x="381" d="M52 -78l-8 54q82 43 134.5 97t52.5 107q0 34 -21 52.5t-58 18.5q-30 0 -54 -13t-41 -28l-12 8q18 54 60.5 84t92.5 30q60 0 95 -32t35 -83q0 -36 -19 -67.5t-49.5 -59t-65.5 -51t-68 -43.5h147q23 0 34 8.5t21 27.5l12 -1q0 -21 -4.5 -54t-12.5 -55h-271z" />
<glyph unicode="&#x2083;" horiz-adv-x="391" d="M107 94l-4 28q62 6 99.5 23.5t37.5 53.5q0 23 -18.5 37.5t-49.5 14.5q-29 0 -53.5 -12t-43.5 -28l-11 8q18 52 61 82.5t92 30.5q55 0 87.5 -27t32.5 -65q0 -35 -19.5 -57t-49 -33.5t-57.5 -15.5q57 -4 97.5 -31.5t40.5 -76.5q0 -38 -25.5 -63t-65.5 -37t-84 -12 q-55 0 -94 15.5t-39 45.5q0 19 20 31t45 13l8 -6q-2 -3 -2 -8q3 -24 19 -42.5t51 -18.5q32 0 53.5 16t21.5 46q0 29 -16.5 49t-43 30t-55.5 10h-17t-18 -1z" />
<glyph unicode="&#x2084;" horiz-adv-x="440" d="M41 52l228 280l63 -6v-262h67l-5 -52h-62v-84h-94v84h-190zM96 64h142v175z" />
<glyph unicode="&#x2085;" horiz-adv-x="387" d="M75 322h258q0 -26 -4 -57t-11 -62l-15 1q-1 22 -7.5 29.5t-30.5 7.5h-140l-3 -95h31q87 0 139.5 -29.5t52.5 -85.5q0 -54 -47.5 -85.5t-124.5 -31.5q-59 0 -95.5 16.5t-36.5 43.5q0 18 18.5 30.5t46.5 12.5l8 -5q-2 -5 -2 -10q3 -25 20.5 -41.5t48.5 -16.5q33 0 52.5 17 t19.5 47q0 43 -47 71t-128 30l-7 8z" />
<glyph unicode="&#x2086;" horiz-adv-x="414" d="M372 44q0 -37 -21 -66t-58.5 -46.5t-86.5 -17.5q-74 0 -119.5 45.5t-45.5 117.5t39 129t107.5 91t158.5 35l5 -17q-74 -24 -126.5 -69.5t-73.5 -107.5q18 6 39.5 10.5t44.5 4.5q63 0 100 -29t37 -80zM139 63q0 -30 8.5 -57t25 -44.5t40.5 -17.5q28 0 46 21.5t18 55.5 q0 40 -23.5 65t-62.5 25q-26 0 -48 -5q-4 -21 -4 -43z" />
<glyph unicode="&#x2087;" horiz-adv-x="390" d="M342 322l7 -55q-72 -74 -106 -161.5t-42 -183.5h-96q6 60 35.5 119.5t70 111t79.5 88.5h-186q-22 0 -31 -7t-17 -28l-13 1q-1 22 2.5 57t9.5 58h287z" />
<glyph unicode="&#x2088;" horiz-adv-x="415" d="M373 31q0 -46 -44.5 -81.5t-123.5 -35.5q-71 0 -117.5 26.5t-46.5 71.5q0 42 33 65.5t75 31.5q-33 20 -58 45.5t-25 64.5q0 48 41 80.5t110 32.5q59 0 96 -26t37 -67q0 -33 -23 -55.5t-58 -36.5q26 -14 50 -29.5t39 -36.5t15 -50zM153 251q0 -32 28 -53t64 -39 q15 18 22.5 39.5t7.5 41.5q0 28 -15 45t-45 17q-27 0 -44.5 -14t-17.5 -37zM131 15q0 -33 21.5 -52t55.5 -19q31 0 52 16t21 41q0 21 -15.5 37t-40.5 29.5t-52 28.5q-19 -17 -30.5 -37t-11.5 -44z" />
<glyph unicode="&#x2089;" horiz-adv-x="414" d="M372 159q0 -69 -39 -124.5t-108 -88t-159 -32.5l-4 17q74 23 126.5 66.5t73.5 104.5q-19 -6 -40.5 -10.5t-44.5 -4.5q-62 0 -99 30.5t-37 83.5q1 56 47 93.5t120 37.5t119 -47.5t45 -125.5zM137 219q0 -40 23 -65t62 -25q27 0 48 5q5 22 5 45q0 49 -18 86t-51 37 q-31 0 -50 -22.5t-19 -60.5z" />
<glyph unicode="&#x2090;" horiz-adv-x="463" d="M241 326q64 0 100 -31.5t36 -93.5q0 -13 -0.5 -35.5t-1.5 -48.5t-1.5 -49.5t-0.5 -37.5q0 -30 9.5 -41.5t29.5 -11.5q14 0 31 4l4 -9q-16 -25 -41.5 -37.5t-53.5 -12.5q-31 0 -52 14.5t-27 37.5q-20 -23 -52.5 -37.5t-70.5 -14.5q-47 0 -76.5 24t-29.5 66q0 58 62.5 92 t165.5 36q0 35 0.5 61.5t0.5 29.5q0 61 -56 61q-29 0 -47 -17.5t-18 -46.5q0 -8 0.5 -17t3.5 -18q-13 -6 -25 -8.5t-23 -2.5q-21 0 -35 9t-14 27q0 25 26 50t67.5 41.5t88.5 16.5zM149 30q0 -26 14.5 -39t39.5 -13q20 0 38.5 7.5t29.5 18.5v47.5t1 63.5q-57 -4 -90 -25.5 t-33 -59.5z" />
<glyph unicode="&#x2091;" horiz-adv-x="413" d="M383 13q-20 -38 -59.5 -64.5t-99.5 -26.5q-86 0 -137 52.5t-51 140.5q0 64 25.5 111.5t69 73.5t97.5 26q67 0 111.5 -40t44.5 -110v-21t-1 -17l-10 -11h-229q10 -136 124 -136q30 0 56.5 8.5t47.5 22.5zM223 292q-38 0 -59 -39.5t-21 -96.5l136 5q1 13 1 30 q0 54 -14.5 77.5t-42.5 23.5z" />
<glyph unicode="&#x2092;" horiz-adv-x="446" d="M410 125q0 -62 -24.5 -107.5t-67.5 -70.5t-99 -25q-82 0 -132.5 54.5t-50.5 148.5q0 62 25.5 107t69 69.5t97.5 24.5q80 0 131 -53.5t51 -147.5zM143 125q0 -89 19.5 -128.5t58.5 -39.5q41 0 61 38t20 128q0 87 -19 128t-57 41q-39 0 -61 -39.5t-22 -127.5z" />
<glyph unicode="&#x2093;" horiz-adv-x="447" d="M173 282l86 -122l79 121l-56 23l1 14h155l1 -14q-8 -3 -21.5 -9.5t-19.5 -11.5q-10 -7 -17.5 -15.5t-15.5 -19.5l-88 -112l100 -140q8 -13 14.5 -21t16.5 -13q5 -5 17 -9.5t18 -7.5l-1 -15h-214l-2 15l53 22l-89 123l-79 -122l56 -23l-1 -15h-161l-1 15q9 3 23 9t21 11 q11 7 18.5 15.5t17.5 20.5l89 114l-100 138q-8 11 -14.5 19t-16.5 14q-4 4 -16.5 9.5t-17.5 8.5l1 14h214l2 -14z" />
<glyph unicode="&#x2095;" horiz-adv-x="528" d="M192 -32l56 -23l-1 -15h-214l-2 15l31 11q14 7 19.5 15.5t5.5 24.5v459l-52 19l-2 11q30 13 73 23t79 13l7 -6v-241q32 27 66 39.5t67 12.5q55 0 85.5 -30t30.5 -87v-241l56 -23l-1 -15h-214l-2 15l31 11q14 7 19.5 15.5t5.5 24.5v201q0 69 -64 69q-39 0 -80 -25v-273z " />
<glyph unicode="&#x2096;" horiz-adv-x="495" d="M192 -32l56 -23l-1 -15h-214l-2 15l31 11q14 7 19.5 15.5t5.5 24.5v459l-52 19l-2 11q30 14 73 24t79 13l7 -7v-367h56l102 133l-67 23l2 14h182l2 -14q-9 -4 -24.5 -10t-23.5 -11q-12 -5 -22 -14t-23 -21l-57 -60l104 -185q10 -17 20 -28t23 -17l25 -12l-1 -16h-93 q-30 0 -45.5 12t-28.5 36l-75 136h-56v-146z" />
<glyph unicode="&#x2097;" horiz-adv-x="278" d="M192 -32l56 -23l-1 -15h-214l-2 15l31 11q14 7 19.5 15.5t5.5 24.5v459l-52 19l-2 11q30 14 73 24t79 13l7 -7v-547z" />
<glyph unicode="&#x2098;" horiz-adv-x="778" d="M200 -32l56 -23l-1 -15h-214l-2 15l31 11q14 7 19.5 15.5t5.5 24.5v264l-52 19l-2 11q30 13 73 23t79 13l7 -6v-46q63 52 132 52q77 0 103 -59q64 59 139 59q56 0 86.5 -30t30.5 -87v-241l56 -23l-2 -15h-213l-2 15l31 11q14 7 19.5 15.5t5.5 24.5v201q0 69 -64 69 q-38 0 -79 -25q2 -15 2 -32v-241l57 -23l-1 -15h-214l-2 15l30 11q14 7 20 15.5t6 24.5v201q0 69 -62 69q-21 0 -40.5 -6.5t-38.5 -18.5v-273z" />
<glyph unicode="&#x2099;" horiz-adv-x="536" d="M200 -32l56 -23l-1 -15h-214l-2 15l31 11q14 7 19.5 15.5t5.5 24.5v264l-52 19l-2 11q30 13 73 23t79 13l7 -6v-46q64 52 133 52q55 0 85.5 -30t30.5 -87v-241l56 -23l-1 -15h-214l-2 15l31 11q14 7 19.5 15.5t5.5 24.5v201q0 69 -64 69q-20 0 -40.5 -6.5t-39.5 -18.5 v-273z" />
<glyph unicode="&#x209a;" horiz-adv-x="497" d="M251 -43q47 0 74.5 42t27.5 115q0 72 -23 112t-69 40q-20 0 -36.5 -6.5t-32.5 -19.5v-267q23 -16 59 -16zM192 -226l73 -23l-2 -14h-230l-2 14l30 12q14 6 20 14.5t6 24.5v458l-52 19l-2 11q30 13 73 23t79 13l7 -6v-44q19 22 49 36t66 14q71 0 112.5 -53.5t41.5 -140.5 q0 -98 -57 -154t-153 -56q-30 0 -59 4v-152z" />
<glyph unicode="&#x209b;" horiz-adv-x="375" d="M164 -78q-38 0 -72.5 6.5t-44.5 15.5q-11 12 -11 46q0 20 5.5 39t16.5 34l12 -2q6 -30 14.5 -48t21.5 -32q23 -24 65 -24q30 0 46.5 13.5t16.5 36.5q0 27 -19 44.5t-47.5 32.5t-57 31.5t-48 39.5t-19.5 58q0 36 22.5 61.5t61 38.5t85.5 13q37 0 68 -6.5t40 -14.5t9 -36 q0 -16 -5 -38.5t-18 -39.5l-12 1q-6 31 -13 48t-17 28q-9 9 -22 16.5t-33 7.5q-28 0 -44.5 -14t-16.5 -37q0 -27 19 -44.5t48 -32.5t57.5 -31.5t47.5 -39.5t19 -59q0 -54 -48 -83t-127 -29z" />
<glyph unicode="&#x209c;" horiz-adv-x="343" d="M331 13q-18 -34 -53 -62.5t-87 -28.5t-80.5 31.5t-28.5 93.5v226h-59l-2 15l61 32l88 109l16 -1v-121h121v-34h-121v-210q0 -35 13.5 -53.5t44.5 -18.5q21 0 40 8.5t36 22.5z" />
<glyph unicode="&#x20ac;" horiz-adv-x="645" d="M41 231l7 50h79q-3 26 -3 54q0 13 1 27h-70l7 50h68q14 85 53.5 149.5t98.5 100.5t130 36q53 0 94.5 -18.5t65 -50t23.5 -70.5q0 -28 -16.5 -44t-42.5 -16q-10 0 -19 0.5t-16 2.5q1 7 1 12q-5 37 -17.5 69t-33.5 52t-50 20q-62 0 -101 -66.5t-45 -176.5h216l-6 -50h-211 q0 -44 5 -81h197l-5 -50h-182q20 -77 64 -117t111 -40q44 0 80.5 14t65.5 37l14 -12q-16 -29 -43.5 -57.5t-67.5 -47t-94 -18.5q-104 0 -173.5 64t-91.5 177h-93z" />
<glyph unicode="&#x2122;" horiz-adv-x="675" d="M191 485l28 -11l-1 -14h-108l-2 14l16 6q12 5 12 20v166h-8h-18.5t-16.5 -1q-3 -4 -6.5 -12.5t-7.5 -17.5l-12 -29h-13q-5 19 -5 44q0 22 4 38h221q4 -17 4 -38q0 -11 -1.5 -22.5t-3.5 -21.5h-13l-12 29q-3 9 -7 17t-6 13q-4 1 -17.5 1h-17.5h-9v-181zM313 688h80 l64 -157l62 157h84l1 -14l-28 -12l23 -177l27 -11l-1 -14h-108l-2 14l12 5q17 7 15 23l-18 130l-69 -172h-27l-68 168l-19 -143l26 -11l-1 -14h-75l-1 14l12 5q14 5 16 18l22 165l-29 12z" />
<glyph unicode="&#x2202;" horiz-adv-x="637" d="M309 758q94 0 155.5 -49.5t92 -134.5t30.5 -191q0 -70 -16 -139.5t-51 -127t-92.5 -91.5t-140.5 -34q-71 0 -124.5 28t-83.5 79t-30 120t34.5 127t98.5 93t155 35q36 0 64.5 -5.5t52.5 -15.5q-10 103 -56.5 165t-124.5 62q-51 0 -94.5 -22t-71.5 -49l-29 30 q19 26 52 53.5t78 47t101 19.5zM178 217q0 -81 34.5 -128t89.5 -47q48 0 82.5 37.5t53.5 106t19 161.5v45v6q-22 11 -47.5 17t-57.5 6q-84 0 -129 -57.5t-45 -146.5z" />
<glyph unicode="&#x220f;" horiz-adv-x="743" d="M254 -127l-8 -11h-195l-2 23l41 14q21 9 29.5 18t8.5 29v689l-79 30l2 23h640l2 -23l-41 -14q-20 -9 -29 -18t-9 -29v-689l79 -30l-2 -23h-194l-8 11v766h-235v-766z" />
<glyph unicode="&#x2211;" horiz-adv-x="597" d="M33 -138l-8 42l273 327l-267 415l8 42h501q3 -21 5.5 -44.5t2.5 -51.5q0 -27 -2.5 -56.5t-7.5 -54.5h-25q-2 11 -13 35t-24.5 50.5t-24 46.5t-11.5 23q-17 4 -40 5.5t-45 1.5h-178l234 -363l-314 -373h258q22 0 45 1.5t40 5.5q1 3 11.5 23t24 46.5t24.5 50.5t13 35h25 q5 -25 7.5 -54.5t2.5 -56.5q0 -28 -2.5 -51.5t-5.5 -44.5h-507z" />
<glyph unicode="&#x2212;" d="M510 310h-432v66q37 1 94 2t121 1.5t121.5 1t95.5 0.5l8 -8z" />
<glyph unicode="&#x221a;" horiz-adv-x="615" d="M9 498h202l151 -406l186 666l58 -16l-214 -742h-126l-175 449h-82v49z" />
<glyph unicode="&#x221e;" horiz-adv-x="852" d="M776 345q0 -53 -21.5 -95t-60.5 -66.5t-91 -24.5q-62 0 -102.5 32.5t-70.5 77.5q-34 -51 -81 -80.5t-106 -29.5q-50 0 -87.5 23.5t-58.5 65t-21 95.5q0 53 21.5 95t61 66.5t91.5 24.5q62 0 103.5 -33t70.5 -78q35 51 81 81t104 30q50 0 87.5 -24t58.5 -65.5t21 -94.5z M597 460q-43 0 -79.5 -30.5t-57.5 -70.5l2 -4q32 -56 65 -92t79 -36q41 0 68.5 31t27.5 87q0 52 -29.5 83.5t-75.5 31.5zM150 346q0 -54 29 -86t76 -32q44 0 81 31t57 69q-1 1 -1.5 2.5t-1.5 2.5q-33 56 -65 91.5t-78 35.5q-42 0 -69.5 -30t-27.5 -84z" />
<glyph unicode="&#x222b;" horiz-adv-x="450" d="M276 717q-57 -16 -57 -100q0 -42 14.5 -128.5t37.5 -226.5q18 -114 31 -190t13 -126q0 -59 -19 -98t-51 -62.5t-70 -33.5t-77 -10q-49 0 -79 19.5t-30 47.5q0 20 17 35t42 24l6 -4q17 -34 42.5 -57t48.5 -23q53 15 53 94q0 48 -16 140.5t-37 228.5q-17 109 -30 183.5 t-13 119.5q0 60 19 100.5t50.5 64t69.5 33.5t76 10q56 0 89.5 -25t33.5 -57q0 -23 -18 -38t-44 -23l-6 4q-17 45 -43 71.5t-53 26.5z" />
<glyph unicode="&#x2248;" d="M426 389q-12 0 -39.5 5t-61 13t-66.5 15.5t-58 13t-35 5.5q-9 0 -24.5 -18t-34.5 -41l-41 26q12 22 28 47t35.5 42.5t40.5 17.5q13 0 39.5 -5.5t60 -13t66.5 -15.5t58.5 -13t36.5 -5q8 0 24 18t35 41l41 -27q-13 -22 -29 -46.5t-35 -42t-41 -17.5zM426 176 q-12 0 -39.5 5.5t-61 13t-66.5 15.5t-58 13t-35 5q-9 0 -24.5 -18t-34.5 -41l-41 27q12 22 28 47t35.5 42.5t40.5 17.5q13 0 39.5 -5.5t60 -13t66.5 -15.5t58.5 -13t36.5 -5q8 0 24 17.5t35 41.5l41 -27q-13 -22 -29 -47t-35 -42.5t-41 -17.5z" />
<glyph unicode="&#x2260;" d="M142 120l44 92h-108v65q26 1 62.5 2t78.5 1l61 129h-202v66q39 1 103 2t132 1l55 117l11 3l56 -29l-43 -90q72 1 118 1l8 -8l-8 -63h-151l-62 -128q61 1 118.5 1h94.5l8 -8l-8 -62h-246l-58 -121l-6 -2z" />
<glyph unicode="&#x2264;" d="M512 625v-73l-323 -133l324 -132v-73q-10 5 -43.5 19t-80.5 33t-98.5 39.5t-98.5 40t-80 33t-41 18.5l-2 40l4 6q14 6 47.5 20t78 32.5t92.5 39t93 39t79 32.5t49 19zM508 75h-432v65q37 1 94 2t121 1.5t121.5 1t95.5 0.5l8 -8z" />
<glyph unicode="&#x2265;" d="M80 212v73l323 136l-322 129v73q29 -12 73.5 -29.5t96 -38t102.5 -41t94 -38.5t71 -30l4 -7l1 -39zM519 75h-432v65q36 1 93.5 2t121 1.5t121.5 1t96 0.5l8 -8z" />
<glyph unicode="&#x25ca;" horiz-adv-x="608" d="M49 323v38l212 329l78 10l219 -340v-37l-215 -323l-77 -10zM301 639l-182 -297l182 -290h3l185 290l-185 297h-3z" />
<glyph unicode="&#x25fc;" horiz-adv-x="500" d="M0 500h500v-500h-500v500z" />
<glyph unicode="&#x2c7c;" horiz-adv-x="267" d="M135 399q-27 0 -43.5 17t-16.5 41q0 28 21.5 49t51.5 21q24 0 40 -15.5t16 -40.5q0 -30 -19.5 -51t-49.5 -21zM23 -257q31 39 48 87t17 120v310l-52 19l-2 11q30 13 73 23t78 13l7 -6v-398q0 -51 -22.5 -90t-58.5 -65t-76 -38z" />
<glyph unicode="&#xa7b6;" horiz-adv-x="837" d="M347 0h-314q-3 21 -5.5 44.5t-2.5 48.5q0 57 11 95h24l31 -62q18 -45 36 -74q17 -3 40 -5t45 -2h82q-51 34 -92.5 81t-65.5 108t-24 137q0 95 38 169t108 116t164 42q90 0 158 -42t106 -116t38 -169q0 -76 -24.5 -137t-65.5 -108t-92 -81h82q22 0 45 2t41 5q8 14 17 32 t18 42l32 62h24q4 -17 7 -41.5t3 -53.5q0 -26 -2 -49.5t-6 -43.5h-313l-21 47q51 50 86.5 126.5t35.5 186.5q0 87 -19.5 152.5t-57 102t-91.5 36.5q-58 0 -97.5 -36.5t-60 -102t-19.5 -152.5q-1 -110 34.5 -186.5t86.5 -126.5z" />
<glyph unicode="&#xfb01;" horiz-adv-x="645" d="M226 47l77 -29l-2 -18h-267l-2 18l37 15q18 8 25 18.5t7 30.5v360h-67l-2 18l69 27v22q0 71 32.5 127t88.5 89t125 33q53 0 95 -15t66.5 -40t24.5 -55q0 -25 -16 -39.5t-41 -14.5q-30 0 -50 10q-6 29 -17 54t-30 41t-48 16q-48 0 -76.5 -40t-28.5 -112v-79h209 q25 8 54 15t53 9l9 -9v-452l69 -29l-2 -18h-259l-2 18l37 15q18 8 25 18.5t7 30.5v360h-200v-395z" />
<glyph unicode="&#xfb02;" horiz-adv-x="645" d="M226 47l77 -29l-2 -18h-267l-2 18l37 15q18 8 25 18.5t7 30.5v360h-67l-2 18l69 27v32q0 67 32 121.5t87 86t124 31.5q28 0 53 -4.5t47 -13.5q52 15 98 18l9 -8v-703l69 -29l-2 -18h-259l-2 18l37 15q18 8 25 18.5t7 30.5v360h-200v-395zM226 577v-93h200v163 q-12 29 -35.5 48.5t-59.5 19.5q-50 0 -77.5 -36t-27.5 -102z" />
<glyph unicode="&#xfb06;" horiz-adv-x="845" d="M662 581q0 -31 -10.5 -56.5t-20.5 -40.5h168v-42h-148v-273q0 -46 16.5 -70.5t53.5 -24.5q26 0 49 11t44 30l14 -12q-22 -43 -64.5 -78t-105.5 -35q-64 0 -98 39.5t-34 118.5v294h-65l-2 20q89 37 89 117q0 38 -27 64t-71 26q-43 0 -74 -23.5t-48 -61.5t-17 -84 q41 -11 66 -35.5t25 -53.5q0 -22 -13.5 -34.5t-34.5 -12.5q-25 0 -49 26.5t-32 71.5q-11 3 -22 3q-33 0 -54.5 -18.5t-21.5 -48.5q0 -29 17 -49.5t43.5 -37t56.5 -32.5t57 -35.5t44 -46.5t17 -65q0 -68 -59 -105t-154 -37q-46 0 -88 8t-54 20q-14 16 -14 58q0 25 6.5 49 t19.5 43l15 -2q7 -39 18 -62.5t25 -39.5q13 -14 33 -22.5t47 -8.5q37 0 58 18.5t21 48.5q0 29 -17 50t-43.5 37.5t-56.5 32.5t-57 35.5t-43.5 46t-16.5 65.5q0 43 28 75t74 49t100 17q9 0 18 -1q2 61 30.5 111.5t78 81t114.5 30.5q77 0 123 -42t46 -107z" />
<glyph horiz-adv-x="490" d="M88 -78l-7 6v527l-52 19l-2 11q30 13 73 23t77 13l8 -6v-238q20 22 50 35.5t65 13.5q71 0 112.5 -53t41.5 -141q0 -97 -53.5 -153.5t-143.5 -56.5q-52 0 -94 19zM241 -43q52 0 78.5 42.5t26.5 116.5q0 71 -23.5 110.5t-68.5 39.5q-20 0 -36.5 -6.5t-32.5 -19.5v-268 q12 -8 26.5 -11.5t29.5 -3.5z" />
<glyph horiz-adv-x="392" d="M374 227q0 -23 -15 -37t-40 -14q-10 0 -18 2t-14 4q0 3 -3 6.5t-3 5.5q0 98 -55 98q-37 0 -60 -39t-23 -102q0 -78 32.5 -119t95.5 -41q31 0 54.5 8.5t43.5 22.5l11 -9q-19 -36 -58 -63.5t-100 -27.5q-85 0 -135.5 52t-50.5 140q0 62 25 110t70 75t103 27q62 0 101 -29 t39 -70z" />
<glyph horiz-adv-x="498" d="M246 326q31 0 57 -6v135l-68 19l-2 11q34 14 81 23.5t87 12.5l7 -6v-483q0 -27 8.5 -41t31.5 -14q13 0 30 4l4 -9q-15 -23 -40 -36.5t-56 -13.5t-50.5 14t-27.5 39q-18 -22 -47.5 -37.5t-68.5 -15.5q-69 0 -112.5 51.5t-43.5 139.5q0 67 27.5 115t75 73t107.5 25z M253 292q-50 0 -80 -41.5t-30 -119.5q0 -73 26 -113.5t68 -40.5q20 0 37.5 8t28.5 19v272q-22 16 -50 16z" />
<glyph horiz-adv-x="294" d="M200 -32l73 -23l-2 -15h-230l-2 15l31 11q14 7 19.5 15.5t5.5 24.5v277h-54l-2 15l56 22v17q0 55 26.5 99t70.5 69.5t96 25.5q53 0 87.5 -26t34.5 -60q0 -22 -14.5 -34t-36.5 -12q-15 0 -33 8q-3 45 -15 67.5t-38 22.5q-34 0 -53.5 -31.5t-19.5 -89.5v-59h102v-34h-102 v-305z" />
<glyph horiz-adv-x="432" d="M55 178q0 42 22 75.5t60.5 53t88.5 19.5q56 0 97 -26q16 29 38 46t40 17q27 0 27 -35q0 -8 -1 -17t-3 -15q-2 -10 -19 -11q-13 -1 -29.5 -1t-31.5 -1q36 -37 36 -93q0 -64 -45.5 -105.5t-120.5 -41.5q-20 0 -38 4q-9 -14 -9 -27q0 -16 11 -22t35 -7l76 -6q63 -4 98.5 -32 t35.5 -77q0 -43 -27.5 -76t-76.5 -52t-116 -19q-73 0 -120 24t-47 65q0 28 23.5 47.5t56.5 24.5l8 -7q-7 -8 -7 -19q1 -47 37 -74t90 -27q49 0 78.5 20t29.5 50q0 25 -19.5 39.5t-53.5 18.5l-93 10q-48 5 -69.5 24.5t-21.5 48.5q0 23 13 44t40 36q-42 15 -67.5 47.5 t-25.5 76.5zM275 183q0 59 -14 85t-42 26q-60 0 -60 -107q0 -111 59 -112q29 0 43 26t14 82z" />
<glyph horiz-adv-x="286" d="M142 397q-26 0 -42.5 17.5t-16.5 41.5q0 28 21 49t51 21q24 0 40.5 -16t16.5 -40q0 -30 -20 -51.5t-50 -21.5zM200 -32l56 -23l-1 -15h-214l-2 15l31 11q14 7 19.5 15.5t5.5 24.5v264l-52 19l-2 11q30 13 73 23t79 13l7 -6v-352z" />
<glyph horiz-adv-x="487" d="M408 -226l56 -23l-1 -14h-214l-2 14l30 12q15 6 20.5 14.5t5.5 24.5v168q-18 -20 -47 -34t-64 -14q-68 0 -112 49.5t-44 141.5q0 69 27.5 116.5t73.5 72t100 24.5q27 0 49 -5t40 -14l75 19l7 -5v-547zM253 292q-50 0 -80 -42t-30 -120q0 -73 26 -113t66 -40 q24 0 41.5 8.5t26.5 18.5v272q-22 16 -50 16z" />
<glyph horiz-adv-x="363" d="M200 -32l73 -23l-2 -15h-230l-2 15l31 11q14 7 19.5 15.5t5.5 24.5v264l-52 19l-2 11q30 13 73 23t79 13l7 -6v-61q25 32 51 49.5t53 17.5q24 0 39.5 -13t15.5 -37q0 -22 -10.5 -38t-19.5 -25h-6t-6 -1q-15 14 -33 23t-43 12q-9 0 -21.5 -7t-19.5 -14v-258z" />
<glyph horiz-adv-x="540" d="M88 47v213l-52 19l-2 11q30 13 73 23t78 13l7 -6v-262q0 -78 71 -78q39 0 75 25v255l-52 19l-2 11q30 13 73 23t78 13l7 -6v-288q0 -55 38 -55q16 0 33 4l3 -9q-16 -23 -41 -36.5t-55 -13.5t-49.5 14t-27.5 37q-25 -22 -58 -36.5t-70 -14.5q-60 0 -93.5 32.5t-33.5 92.5z " />
<glyph horiz-adv-x="441" d="M371 253l-121 -323h-65l-120 323q-5 14 -11 21t-15 12q-5 7 -16.5 11t-18.5 7l1 14h219l2 -14l-58 -22l87 -260l89 260l-57 22l1 14h147l2 -14q-6 -3 -19.5 -7.5t-18.5 -8.5q-19 -11 -28 -35z" />
<glyph horiz-adv-x="655" d="M388 318l101 -279l68 243l-59 22l2 14h149l2 -14q-7 -3 -20 -7.5t-19 -8.5q-20 -12 -27 -35l-99 -323h-65l-95 254l-97 -254h-66l-98 323q-4 13 -11 21t-15 12q-5 5 -17.5 10t-17.5 8l1 14h217l2 -14l-56 -22l67 -242l103 278h50z" />
<glyph horiz-adv-x="445" d="M9 318h217l1 -14l-56 -22l87 -255l90 255l-60 22l2 14h149l2 -14q-8 -3 -21 -8t-18 -9q-18 -11 -26 -34l-131 -349q-34 -92 -70.5 -133.5t-83.5 -41.5q-28 0 -45 17t-17 43q0 21 11 40l7 2q10 -6 23.5 -10.5t26.5 -4.5q38 0 73 31t54 82l-34 -3l-121 327q-10 24 -26 33 q-3 4 -15 9.5t-21 8.5z" />
<glyph horiz-adv-x="407" d="M370 -13q-1 -15 -2 -28.5t-4 -28.5h-321l-7 34l223 321h-137l-56 -99h-14q-11 34 -11 76q0 15 1.5 29t4.5 27h317l8 -33l-225 -321h141l56 99h15q11 -37 11 -76z" />
<glyph horiz-adv-x="464" d="M241 766q64 0 100 -32t36 -94q0 -12 -0.5 -34.5t-1.5 -48.5t-1.5 -50t-0.5 -38q0 -30 9.5 -41t29.5 -11q14 0 31 4l4 -10q-16 -24 -41.5 -36.5t-53.5 -12.5q-31 0 -52 14t-27 38q-20 -23 -52.5 -37.5t-70.5 -14.5q-47 0 -76.5 23.5t-29.5 65.5q0 58 62.5 92.5t165.5 36.5 q0 35 0.5 61.5t0.5 29.5q0 61 -56 61q-29 0 -47 -17.5t-18 -47.5q0 -7 0.5 -16t3.5 -18q-13 -6 -25 -9t-23 -3q-21 0 -35 9.5t-14 27.5q0 25 26 50t67.5 41.5t88.5 16.5zM149 470q0 -27 14.5 -40t39.5 -13q20 0 38.5 8t29.5 19v47.5t1 63.5q-57 -4 -90 -26t-33 -59z" />
<glyph horiz-adv-x="490" d="M88 362l-7 5v527l-52 20l-2 11q30 13 73 23t77 13l8 -7v-237q20 21 50 35t65 14q71 0 112.5 -53t41.5 -142q0 -96 -53.5 -152.5t-143.5 -56.5q-52 0 -94 19zM241 396q52 0 78.5 42.5t26.5 117.5q0 70 -23.5 110t-68.5 40q-20 0 -36.5 -7t-32.5 -20v-268q12 -8 26.5 -11.5 t29.5 -3.5z" />
<glyph horiz-adv-x="392" d="M374 667q0 -24 -15 -37.5t-40 -13.5q-10 0 -18 1.5t-14 4.5q0 3 -3 6t-3 6q0 98 -55 98q-37 0 -60 -39.5t-23 -102.5q0 -77 32.5 -118.5t95.5 -41.5q31 0 54.5 8.5t43.5 23.5l11 -10q-19 -36 -58 -63t-100 -27q-85 0 -135.5 52t-50.5 139q0 63 25 111t70 75t103 27 q62 0 101 -29t39 -70z" />
<glyph horiz-adv-x="496" d="M246 766q31 0 57 -6v134l-68 20l-2 11q34 13 81 23t87 13l7 -7v-482q0 -28 8.5 -41.5t31.5 -13.5q13 0 30 4l4 -10q-15 -22 -40 -35.5t-56 -13.5t-50.5 14t-27.5 39q-18 -22 -47.5 -37.5t-68.5 -15.5q-69 0 -112.5 51.5t-43.5 139.5q0 67 27.5 114.5t75 73t107.5 25.5z M253 732q-50 0 -80 -41.5t-30 -119.5q0 -73 26 -113.5t68 -40.5q20 0 37.5 8t28.5 18v273q-22 16 -50 16z" />
<glyph horiz-adv-x="413" d="M383 452q-20 -38 -59.5 -64t-99.5 -26q-86 0 -137 52.5t-51 140.5q0 63 25.5 110.5t69 74t97.5 26.5q67 0 111.5 -40.5t44.5 -109.5v-21t-1 -18l-10 -10h-229q10 -137 124 -137q30 0 56.5 8.5t47.5 23.5zM223 732q-38 0 -59 -39.5t-21 -96.5l136 4q1 14 1 31 q0 54 -14.5 77.5t-42.5 23.5z" />
<glyph horiz-adv-x="294" d="M200 407l73 -23l-2 -14h-230l-2 14l31 12q14 6 19.5 14.5t5.5 25.5v277h-54l-2 14l56 22v18q0 55 26.5 99t70.5 69.5t96 25.5q53 0 87.5 -26.5t34.5 -59.5q0 -22 -14.5 -34t-36.5 -12q-15 0 -33 8q-3 45 -15 67.5t-38 22.5q-34 0 -53.5 -32t-19.5 -89v-59h102v-34h-102 v-306z" />
<glyph horiz-adv-x="432" d="M55 617q0 42 22 76t60.5 53.5t88.5 19.5q56 0 97 -27q16 30 38 47t40 17q27 0 27 -36q0 -8 -1 -17t-3 -14q-2 -11 -19 -12h-29.5t-31.5 -2q36 -37 36 -92q0 -64 -45.5 -105.5t-120.5 -41.5q-20 0 -38 3q-9 -13 -9 -26q0 -16 11 -22t35 -8l76 -6q63 -4 98.5 -31.5 t35.5 -77.5q0 -42 -27.5 -75t-76.5 -52.5t-116 -19.5q-73 0 -120 24.5t-47 64.5q0 28 23.5 47.5t56.5 25.5l8 -7q-7 -9 -7 -20q1 -46 37 -73t90 -27q49 0 78.5 20t29.5 50q0 25 -19.5 39.5t-53.5 18.5l-93 10q-48 5 -69.5 24.5t-21.5 47.5q0 23 13 44.5t40 36.5 q-42 14 -67.5 47t-25.5 76zM275 622q0 59 -14 85.5t-42 26.5q-60 0 -60 -107q0 -111 59 -112q29 0 43 25.5t14 81.5z" />
</font>
</defs>
</svg>
