<?xml version="1.0" standalone="no"?>
<!DOCTYPE svg PUBLIC "-//W3C//DTD SVG 1.1//EN" "http://www.w3.org/Graphics/SVG/1.1/DTD/svg11.dtd" >
<svg xmlns="http://www.w3.org/2000/svg" xmlns:xlink="http://www.w3.org/1999/xlink" version="1.1">
<metadata></metadata>
<defs>
<font id="indivisa_text_sanslight" horiz-adv-x="560" >
<font-face units-per-em="1000" ascent="800" descent="-200" />
<missing-glyph horiz-adv-x="260" />
<glyph unicode="&#x2f;symbol&#x31;&#x2f;" horiz-adv-x="5534" d="M1865 412q-25 0 -40.5 14.5t-15.5 37.5q0 24 15.5 45t39 34.5t48.5 13.5q24 0 39 -13.5t15 -37.5t-14.5 -45.5t-37.5 -35t-49 -13.5zM1284 412q-26 0 -41.5 14.5t-15.5 37.5q0 24 15.5 45t39.5 34.5t49 13.5q24 0 38.5 -13.5t14.5 -37.5t-14.5 -45.5t-37 -35t-48.5 -13.5 zM959 0q0 21 2.5 46.5t8.5 61.5q-16 -49 -51 -82t-79 -33q-41 0 -63 30t-22 82q0 45 15.5 91t46.5 85.5t76.5 63.5t104.5 24h12.5t12.5 -1l16 73l6 102l136 7q0 -40 -9.5 -95t-23 -116.5t-27 -123.5t-23 -117.5t-9.5 -97.5h-130zM100 0l78 364q8 38 13.5 72.5t7.5 63.5 l128 7l11 -15l-104 -492h-134zM3503 492l-57 -492h-131l20 175q3 30 9 69t12.5 78t11.5 68h-3q-16 -53 -37 -107.5t-44 -107.5l-76 -175h-149l-2 175q-1 56 1 109t8 106h-2q-15 -61 -30 -115.5t-29 -99.5l-53 -175h-109l154 500l184 6l1 -137q1 -50 -2.5 -121.5 t-12.5 -137.5h2q20 65 36 111t30.5 81t27.5 67l56 131l169 7zM5316 300q-15 -74 -23 -110.5t-11 -51t-3 -21.5q0 -34 36 -34q13 0 28 5t31 13l-9 -79q-20 -11 -50 -20t-64 -9q-50 0 -77.5 25t-27.5 75q0 11 1.5 23.5t6 33.5t12.5 57.5t20 95.5l-47 1l9 44l54 14l53 95l81 6 l13 -15l-20 -86h99l6 -14l-17 -51zM336 0q0 28 4 62t13 82t24 116l6 102l137 7q0 -18 -2 -41t-5 -48h2q29 49 65.5 69t68.5 20q35 0 53.5 -19.5t18.5 -51.5q0 -23 -8 -62.5t-18 -84.5q-7 -33 -11 -57t-5.5 -45.5t-1.5 -48.5h-131q0 38 4.5 69.5t14.5 80.5q7 35 11 55.5 t4 31.5q0 24 -17 24t-34 -22.5t-30.5 -60.5t-22 -84t-9.5 -94h-131zM1170 0q0 39 7 87.5t20 105.5l14 67l6 102l137 7q0 -36 -8 -81.5t-19 -95.5t-19 -99t-8 -93h-130zM1399 362l140 7q6 -59 4.5 -137.5t-9.5 -151.5h2q23 45 42 95t32 99t17 90q17 4 28.5 4.5t21.5 0.5 q28 0 46.5 -7t18.5 -35q0 -22 -13.5 -60.5t-36.5 -85t-53.5 -94t-63.5 -87.5h-149q-2 111 -9.5 207.5t-17.5 154.5zM1752 0q0 39 7 87.5t19 105.5l15 67l6 102l137 7q0 -36 -8 -81.5t-19 -95.5t-19 -99t-8 -93h-130zM4716 0q0 28 4 62t13 82t24 116l6 102l137 7 q0 -18 -2.5 -41t-4.5 -48h2q29 49 65 69t69 20q35 0 53.5 -19.5t18.5 -51.5q0 -23 -8 -62.5t-18 -84.5q-7 -33 -11 -57t-6 -45.5t-2 -48.5h-130q0 38 4.5 69.5t14.5 80.5q7 35 11 55.5t4 31.5q0 24 -17 24q-18 0 -34.5 -22.5t-30.5 -60.5t-22.5 -84t-9.5 -94h-130zM2245 256 q-25 14 -51.5 22t-45.5 8q-17 0 -29.5 -7t-12.5 -19q0 -13 13 -22t32 -17.5t38 -20.5t32 -30.5t13 -47.5q0 -39 -25 -68t-66.5 -45t-89.5 -16q-33 0 -66.5 7.5t-51.5 20.5l27 93q27 -18 58.5 -28t52.5 -10q20 0 30 8t10 18q0 13 -13 22t-32 18t-38 21t-32 30t-13 46 q0 39 25.5 68t67.5 45.5t90 16.5q20 0 48.5 -3.5t55.5 -14.5zM2525 369q32 0 73.5 -7.5t72.5 -24.5l-29 -128q-20 -94 -25.5 -140.5t-5.5 -68.5h-130q0 20 2.5 45t9.5 67q-15 -50 -50.5 -84.5t-81.5 -34.5q-41 0 -62.5 30t-21.5 83q0 44 15.5 90.5t46.5 85.5t77.5 63 t108.5 24zM4653 51q-32 -28 -74 -43t-85 -15q-62 0 -102 33.5t-40 103.5q0 46 17.5 88.5t49.5 76.5t75 54t94 20q53 0 86 -23t33 -65q0 -56 -59 -95.5t-162 -44.5v-1q0 -29 15 -46.5t48 -17.5q22 0 45 7.5t45 20.5zM3936 0q0 28 4 62t13.5 82t24.5 116l5 102l137 7 q0 -18 -2 -41t-5 -48h2q29 49 65.5 69t68.5 20q35 0 53.5 -19.5t18.5 -51.5q0 -23 -8 -62.5t-18 -84.5q-7 -33 -11 -57t-5.5 -45.5t-1.5 -48.5h-131q0 38 4.5 69.5t14.5 80.5q8 35 11.5 55.5t3.5 31.5q0 24 -17 24t-34 -22.5t-30.5 -60.5t-22 -84t-9.5 -94h-131zM3768 369 q32 0 73 -7.5t72 -24.5l-28 -128q-20 -94 -25.5 -140.5t-5.5 -68.5h-130q0 20 2.5 45t9.5 67q-15 -50 -50.5 -84.5t-81.5 -34.5q-41 0 -63 30t-22 83q0 44 15.5 90.5t47 85.5t78 63t108.5 24zM4490 177q46 10 72.5 33.5t26.5 59.5q0 17 -5.5 24t-16.5 7q-20 0 -36 -20 t-26 -48.5t-15 -55.5zM3677 101q17 0 33 21t30 54t22 69q2 11 4.5 22t4.5 22q-16 8 -27 8q-18 0 -34.5 -16t-29 -40.5t-20 -51.5t-7.5 -48q0 -40 24 -40zM913 101q16 0 31 19.5t28.5 50t22.5 64.5l4 20l4 20l3 14q-14 8 -27 8q-18 0 -34 -16t-28.5 -40.5t-20 -51.5t-7.5 -48 q0 -40 24 -40zM2435 101q16 0 32.5 21t30 54t21.5 69q2 11 4.5 22t4.5 22q-14 8 -27 8q-18 0 -34 -16t-29 -40.5t-20 -51.5t-7 -48q0 -40 24 -40z" />
<glyph unicode="&#x2f;symbol&#x32;&#x2f;" horiz-adv-x="932" d="M494 570l52 -90l-137 -240h-103l137 240l-52 90h103zM357 570l52 -90l-138 -240h-103l138 240l-52 90h103zM752 120h-103l-137 240l51 90l137 -240h103zM683 0h-103l-137 240l51 90l138 -240h103zM100 120l51 90h275l51 -90h-274l-52 -90zM168 0l52 90h274l52 -90h-275 l-51 -90zM789 88q18 0 30.5 -13t12.5 -31t-12.5 -31t-30.5 -13t-30.5 13t-12.5 31t12.5 31t30.5 13zM829 44q0 17 -11.5 28.5t-28.5 11.5q-16 0 -28 -11.5t-12 -28.5q0 -16 12 -28t28 -12q17 0 28.5 12t11.5 28zM771 69h18h5t6 -2q5 -4 5 -11q0 -5 -3 -8q-1 -2 -2.5 -2.5 t-3.5 -1.5q7 -1 8 -9q0 -8 3 -16h-8q-1 2 -1 6t-1 7q-1 5 -2.5 7.5t-8.5 2.5h-8v-23h-7v50zM778 47h10h3.5t3.5 1q3 3 3 7q0 6 -4 7t-6 1h-10v-16z" />
<glyph unicode="&#x2f;symbol&#x33;&#x2f;" horiz-adv-x="957" d="M505 638l68 -270h270l-203 -135l136 -270l-271 135l-270 -270l135 405l-270 203l338 -68zM814 87q18 0 30.5 -12.5t12.5 -31.5q0 -18 -12.5 -30.5t-30.5 -12.5t-30.5 12.5t-12.5 30.5q0 19 12.5 31.5t30.5 12.5zM854 43q0 17 -11.5 29t-28.5 12q-16 0 -28 -12t-12 -29 q0 -16 12 -28t28 -12q17 0 28.5 12t11.5 28zM796 68h18h5.5t5.5 -2q6 -3 6 -10q0 -5 -4 -9q-3 -3 -6 -3q7 -3 8 -10q1 -4 1.5 -7.5t1.5 -8.5h-7q-1 3 -1.5 7t-1.5 7q0 9 -10 9h-9v-23h-7v50zM803 47h10h3.5t3.5 1l2 2t1 4q0 7 -4 8t-6 1h-10v-16z" />
<glyph unicode="&#x2f;symbol&#x34;&#x2f;" horiz-adv-x="2607" d="M1684 406q0 32 -2.5 63t-8.5 65l126 14l15 -15v-533h-130v406zM1889 406q0 62 -10 128l126 14l14 -15v-533h-130v406zM427 101v-101h-320v362q0 38 -1.5 72t-5.5 63l126 7l14 -14v-396zM925 21l7 109q31 -18 72 -27t72 -9q50 0 50 36q0 19 -20.5 34t-50 31t-59.5 37 t-50.5 51t-20.5 74q0 48 26 80.5t70 49.5t97 17q81 0 127 -18l-14 -111q-28 14 -55 21.5t-56 7.5q-28 0 -43 -11t-15 -29q0 -22 20.5 -38.5t50.5 -32.5t59.5 -36.5t50 -49.5t20.5 -73q0 -67 -54 -104t-139 -37q-40 0 -82.5 8t-62.5 20zM795 0l-106 -7q-7 11 -12 24t-9 25h-4 q-15 -22 -42.5 -35.5t-61.5 -13.5q-41 0 -69 22t-28 67q0 61 53.5 88.5t137.5 29.5v20q0 54 -58 54q-55 0 -108 -29l-8 97q27 10 68.5 18t81.5 8q154 0 154 -135q0 -38 -2 -69.5t-2 -69.5q0 -24 4.5 -50.5t10.5 -43.5zM1626 0l-107 -7q-7 11 -12 24t-9 25h-3 q-15 -22 -42.5 -35.5t-62.5 -13.5q-40 0 -68 22t-28 67q0 61 53 88.5t138 29.5v20q0 54 -58 54q-54 0 -109 -29l-7 97q27 10 68.5 18t81.5 8q153 0 153 -135q0 -38 -1.5 -69.5t-1.5 -69.5q0 -24 4.5 -50.5t10.5 -43.5zM2405 213v-17t-1 -19l-11 -11h-191q8 -45 33.5 -64 t64.5 -19q24 0 45.5 6t38.5 15l7 -81q-17 -11 -49.5 -20.5t-77.5 -9.5q-88 0 -143 47t-55 135q0 58 24 101t66 67.5t94 24.5q73 0 114 -43.5t41 -111.5zM2199 207l78 4q1 5 1.5 11t0.5 15q0 23 -7.5 41t-26.5 18q-23 0 -34 -25.5t-12 -63.5zM654 74v88q-27 -3 -46 -17 t-19 -40q0 -18 10.5 -29t26.5 -11t28 9zM1485 74v88q-27 -3 -46 -17t-19 -40q0 -18 10 -29t27 -11q16 0 28 9zM2464 85q18 0 30.5 -13t12.5 -31t-12.5 -31t-30.5 -13t-31 13t-13 31t13 31t31 13zM2504 41q0 17 -11.5 28.5t-28.5 11.5q-16 0 -28 -11.5t-12 -28.5 q0 -16 12 -28t28 -12q17 0 28.5 12t11.5 28zM2446 66h18q2 0 5 -0.5t6 -2.5q5 -2 5 -10q0 -4 -3 -9q-3 -3 -6 -3q7 -1 8 -10q0 -7 3 -15h-8q-1 2 -1 6t-1 7q-1 5 -2.5 7t-8.5 2h-8v-22h-7v50zM2453 44h10h3.5t3.5 1q3 3 3 7q0 6 -4 7t-6 1h-10v-16z" />
<glyph unicode="&#x2f;symbol&#x35;&#x2f;" horiz-adv-x="705" d="M232 -6l-132 136l124 234l129 -136zM474 -6l-121 234l128 136l124 -234z" />
<glyph unicode=" "  horiz-adv-x="260" />
<glyph unicode="&#x09;" horiz-adv-x="260" />
<glyph unicode="&#xa0;" horiz-adv-x="260" />
<glyph unicode="!" horiz-adv-x="257" d="M140 190h-31q-3 184 -4.5 309t-3.5 186l42 10l5 -5q-1 -118 -3.5 -246t-4.5 -254zM161 37q0 -17 -8.5 -32t-28.5 -15q-16 0 -25.5 12.5t-9.5 30.5t10.5 32.5t27.5 14.5t25.5 -12t8.5 -31z" />
<glyph unicode="&#x22;" horiz-adv-x="228" d="M75 755l5 -5l-15 -229h-20l-13 234h43zM175 755l5 -5l-15 -229h-20l-13 234h43z" />
<glyph unicode="#" horiz-adv-x="687" d="M187 -10l-28 2l-8 8l38 155h-141l-8 8l5 28h153l39 158h-147l-8 8l5 28h159l40 160l28 -2l8 -8l-37 -150h179l40 160l28 -2l8 -8l-37 -150h136l8 -8l-4 -28h-149l-39 -158h147l8 -8l-4 -28h-160l-41 -165l-28 2l-8 8l38 155h-179zM237 191h179l39 158h-179z" />
<glyph unicode="$" horiz-adv-x="467" d="M222 -140l-8 8v122h-1q-30 0 -70 7.5t-78 27.5l7 43q38 -24 77.5 -32t66.5 -8q68 0 105.5 36.5t37.5 93.5q0 46 -20 76.5t-52 53.5t-67 43q-36 21 -70.5 45t-56.5 58.5t-22 87.5q0 70 42 115.5t111 55.5v129l22 3l8 -8v-122h4q36 0 73 -9t63 -24l-7 -43 q-33 23 -68.5 30.5t-61.5 7.5q-67 0 -105 -35t-38 -92q0 -45 22 -75.5t55.5 -52.5t67.5 -43q34 -19 66.5 -44.5t54.5 -62t22 -90.5q0 -71 -43 -116.5t-115 -53.5v-129z" />
<glyph unicode="%" horiz-adv-x="973" d="M409 498q0 -67 -24 -112.5t-62.5 -68.5t-84.5 -23q-71 0 -117 52.5t-46 145.5q0 68 24 113t63 68t84 23q71 0 117 -52.5t46 -145.5zM736 695l-422 -705h-40l421 705h41zM111 496q0 -76 33.5 -124t95.5 -48q56 0 94.5 43t38.5 128q0 75 -33 123t-95 48q-57 0 -95.5 -43 t-38.5 -127zM898 126q0 -67 -24 -112.5t-62.5 -68.5t-84.5 -23q-71 0 -117 52.5t-46 145.5q0 68 24 113t63 68t84 23q71 0 117 -52.5t46 -145.5zM600 124q0 -76 33.5 -124t95.5 -48q56 0 94.5 43t38.5 128q0 75 -33 123t-95 48q-57 0 -95.5 -43t-38.5 -127z" />
<glyph unicode="&#x26;" horiz-adv-x="734" d="M609 353q8 -84 -17.5 -152t-71.5 -116q26 -24 52 -40.5t50 -16.5q17 0 33 6.5t24 13.5l10 -32q-10 -9 -29.5 -17.5t-46.5 -8.5q-35 0 -65 17t-62 49q-85 -66 -187 -66q-63 0 -110 24.5t-73 67t-26 95.5q0 54 31.5 106.5t94.5 88.5q-27 35 -47.5 77t-20.5 87q0 46 23 82 t62.5 56.5t90.5 20.5q65 0 111 -34t65 -92l-29 -32q-23 60 -62 90t-88 30q-34 0 -64 -14.5t-48 -40.5t-18 -62q0 -38 19 -75.5t46.5 -72t52.5 -64.5l142 -168q10 -12 21 -24.5t22 -24.5q32 36 50 83t18 98q0 15 -1.5 33.5t-3.5 30.5l42 9zM135 181q0 -41 19.5 -76t58 -56 t95.5 -21q45 0 84 14t70 39q-11 12 -23 26t-25 29l-138 163q-9 10 -19 21.5t-20 24.5q-53 -31 -77.5 -75.5t-24.5 -88.5z" />
<glyph unicode="'" horiz-adv-x="128" d="M83 755l5 -5l-15 -229h-20l-13 234h43z" />
<glyph unicode="(" horiz-adv-x="351" d="M293 -195q-85 77 -134 201t-49 275t49 274.5t134 199.5l18 -19q-87 -100 -121.5 -216.5t-34.5 -238.5q0 -121 34.5 -238.5t121.5 -218.5z" />
<glyph unicode=")" horiz-adv-x="351" d="M241 281q0 -151 -49 -275t-134 -201l-18 19q87 101 121.5 218.5t34.5 238.5q0 122 -34.5 238.5t-121.5 216.5l18 19q85 -76 134 -199.5t49 -274.5z" />
<glyph unicode="*" horiz-adv-x="481" d="M228 376l-5 4l7 151l-130 -84l-15 26v7l138 69l-141 71l15 26l6 3l127 -82l-7 155h30l5 -4l-8 -154l131 87l15 -26v-7l-135 -69l138 -71l-15 -26l-6 -3l-128 84l8 -157h-30z" />
<glyph unicode="+" d="M503 328h-199v-203h-40l-1 203h-210v35q36 1 92.5 2t117.5 1l-1 199h42v-198q57 0 110 0.5t88 0.5l5 -5z" />
<glyph unicode="," horiz-adv-x="208" d="M50 -177q16 37 30 82t19 85q-18 0 -28.5 12.5t-10.5 29.5q0 20 13 34t32 14q39 0 39 -52q0 -28 -11.5 -67.5t-29 -79t-35.5 -68.5z" />
<glyph unicode="-" horiz-adv-x="345" d="M30 279v35h285v-35h-285z" />
<glyph unicode="." horiz-adv-x="212" d="M148 37q0 -20 -13 -33.5t-30 -13.5q-16 0 -28.5 12t-12.5 31q0 20 13 33.5t31 13.5q17 0 28.5 -12t11.5 -31z" />
<glyph unicode="/" horiz-adv-x="349" d="M281 753l8 -8l-187 -747l-30 5l-8 8l187 747z" />
<glyph unicode="0" horiz-adv-x="656" d="M576 346q0 -118 -35 -197t-92.5 -119t-125.5 -40q-72 0 -126.5 41.5t-85.5 120t-31 187.5q0 118 35 197t93 119t125 40q72 0 126.5 -41.5t85.5 -119.5t31 -188zM123 343q0 -93 23.5 -164.5t68.5 -112t110 -40.5q59 0 106 35.5t74.5 106t27.5 174.5q0 93 -23.5 164.5 t-68.5 112t-110 40.5q-58 0 -105.5 -35.5t-75 -106t-27.5 -174.5z" />
<glyph unicode="1" horiz-adv-x="315" d="M141 639h-1l-123 -33l-7 24l165 65l5 -5v-690h-40v491v80.5t1 67.5z" />
<glyph unicode="2" horiz-adv-x="561" d="M67 0l-7 43q102 92 184.5 178.5t131.5 164t49 140.5q0 59 -43 96t-120 37q-52 0 -101.5 -16t-95.5 -39l-5 36q38 20 95 37.5t114 17.5q60 0 105 -21t69.5 -58.5t24.5 -85.5q0 -47 -22.5 -97.5t-60.5 -102.5t-85.5 -103t-97.5 -99t-97 -90h226q41 0 81.5 2.5t78.5 7.5 l-10 -48h-414z" />
<glyph unicode="3" horiz-adv-x="501" d="M66 640q33 20 84.5 37.5t104.5 17.5q71 0 118.5 -37t47.5 -103q0 -58 -46 -111t-142 -88q63 -3 112.5 -22t77.5 -55.5t28 -93.5t-29.5 -101t-83.5 -69t-128 -25q-43 0 -87 7.5t-73 16.5l5 36q35 -10 78 -17t78 -7q88 0 142.5 43t54.5 113q0 54 -30 85.5t-77.5 45 t-99.5 13.5q-36 0 -65 -7v35q86 20 139 52t78 69.5t25 75.5q0 50 -33.5 79t-95.5 29q-49 0 -93 -16t-85 -39z" />
<glyph unicode="4" horiz-adv-x="577" d="M35 235l317 448l40 10l5 -5v-453q36 1 71 3t69 7l-10 -48h-130v-197h-40v197h-314zM75 234v-1q67 2 123 2h122h37l1 247v72t0.5 42t0.5 38h-1z" />
<glyph unicode="5" horiz-adv-x="531" d="M75 14l5 36q32 -10 72.5 -17t74.5 -7q87 0 141.5 48t54.5 129q0 57 -25 93.5t-66 54t-90 17.5q-17 0 -42 -2.5t-49 -6.5t-39 -11l-10 10v327h188q41 0 81.5 2.5t78.5 7.5l-4 -48h-306v-258q24 6 55.5 10t55.5 4q56 0 105 -21t79.5 -64.5t30.5 -111.5q0 -63 -29.5 -112 t-83 -76.5t-127.5 -27.5q-40 0 -81.5 7.5t-69.5 16.5z" />
<glyph unicode="6" horiz-adv-x="588" d="M305 -10q-104 0 -159.5 82t-55.5 226q0 126 40 215t109 135.5t154 46.5q24 0 47.5 -3.5t36.5 -11.5l-5 -36q-12 7 -31 11t-44 4q-70 0 -129.5 -38t-96 -116t-38.5 -199h1q37 45 90.5 66.5t103.5 21.5q56 0 99 -24t67 -67.5t24 -102.5q0 -65 -29.5 -112.5t-77.5 -72.5 t-106 -25zM322 358q-36 0 -74 -12t-68 -35t-44 -56q4 -64 23 -116t56.5 -82.5t94.5 -30.5q46 0 83.5 20.5t59.5 59t22 91.5q0 69 -39.5 115t-113.5 46z" />
<glyph unicode="7" horiz-adv-x="523" d="M55 637l10 48h398l5 -5v-28q-49 -61 -98 -137.5t-90 -162t-68.5 -175.5t-33.5 -177h-43q5 69 25 142t51 144.5t67.5 138t74 123t69.5 98.5v1h-207q-40 0 -81 -2.5t-79 -7.5z" />
<glyph unicode="8" horiz-adv-x="564" d="M281 -10q-58 0 -106 20.5t-76.5 56.5t-28.5 83q0 44 24 80.5t62.5 65t81.5 47.5v1q-39 20 -73 47.5t-55 62.5t-21 76q0 48 27.5 85t72.5 58.5t97 21.5q51 0 94 -20.5t69 -57t26 -83.5q0 -60 -42.5 -109.5t-109.5 -78.5v-1q45 -19 84 -46t63 -62t24 -80q0 -49 -28.5 -86.5 t-77 -59t-107.5 -21.5zM286 659q-41 0 -76.5 -16.5t-57 -44.5t-21.5 -65q0 -54 46 -97t112 -72q60 27 102 71.5t42 98.5q0 36 -19.5 64.5t-53 44.5t-74.5 16zM272 325q-39 -17 -76 -43t-60.5 -59t-23.5 -72q0 -37 22.5 -65t61 -44t84.5 -16q50 0 88.5 17.5t60.5 47t23 66.5 q1 39 -22 68.5t-63.5 53.5t-94.5 46z" />
<glyph unicode="9" horiz-adv-x="588" d="M269 270q-60 0 -104.5 24.5t-69.5 69.5t-25 104q0 68 29 119t77 79.5t105 28.5q64 0 113 -36.5t76.5 -104t27.5 -161.5q0 -88 -24 -161.5t-66.5 -127.5t-98 -84t-119.5 -30q-17 0 -39 2t-34 6l-1 36q12 -4 32 -6t36 -2q74 0 133 41.5t96 117.5t43 179h-1 q-28 -49 -80 -71.5t-106 -22.5zM276 659q-45 0 -82 -23.5t-59 -66t-22 -98.5q0 -71 41 -118t120 -47q52 0 103 25t76 84q-2 73 -24.5 127.5t-61.5 85.5t-91 31z" />
<glyph unicode=":" horiz-adv-x="212" d="M148 364q0 -20 -13 -33.5t-30 -13.5q-16 0 -28.5 12t-12.5 31q0 20 13 33.5t31 13.5q17 0 28.5 -12t11.5 -31zM148 37q0 -20 -13 -33.5t-30 -13.5q-16 0 -28.5 12t-12.5 31q0 20 13 33.5t31 13.5q17 0 28.5 -12t11.5 -31z" />
<glyph unicode=";" horiz-adv-x="222" d="M158 364q0 -20 -13 -33.5t-30 -13.5q-16 0 -28.5 12t-12.5 31q0 20 13 33.5t31 13.5q17 0 28.5 -12t11.5 -31zM50 -177q16 37 30 82t19 85q-18 0 -28.5 12.5t-10.5 29.5q0 20 13 34t32 14q39 0 39 -52q0 -28 -11.5 -67.5t-29 -79t-35.5 -68.5z" />
<glyph unicode="&#x3c;" d="M477 130l-417 207v25l4 6q27 14 68 33.5t88.5 41.5t95.5 44t90 40.5t70 30.5v-40l-361 -167l362 -181v-40z" />
<glyph unicode="=" d="M503 421h-450v35q31 1 75.5 1.5t96 1.5t103 1.5t97 0.5h77.5l5 -5zM503 237h-450v35q31 1 75.5 1.5t96 1.5t103 1.5t97 0.5h77.5l5 -5z" />
<glyph unicode="&#x3e;" d="M83 130v40l362 181l-361 167v40q28 -12 70 -30.5t90 -40.5t95.5 -44t88.5 -41.5t68 -33.5l4 -6v-25z" />
<glyph unicode="?" horiz-adv-x="401" d="M185 209h-28q-3 9 -4.5 21t-1.5 19q0 29 18.5 52.5t45.5 45.5t54 47.5t45.5 57.5t18.5 76q0 57 -35 94t-95 37q-40 0 -85.5 -21t-77.5 -70l-25 21q32 51 84 78.5t109 27.5q75 0 121.5 -43t46.5 -117q0 -49 -19 -85.5t-46.5 -65t-55.5 -52t-47 -44.5t-19 -43q0 -14 4 -28z M214 37q0 -17 -8.5 -32t-28.5 -15q-16 0 -25.5 12.5t-9.5 30.5t10.5 32.5t27.5 14.5t25.5 -12t8.5 -31z" />
<glyph unicode="@" horiz-adv-x="1138" d="M803 -163q-52 -34 -130 -63t-174 -29q-95 0 -174.5 31.5t-137.5 89t-90 137t-32 175.5q0 97 32 184t88.5 159t130.5 124.5t160 81t176 28.5q95 0 172 -31t133 -85.5t86 -126.5t30 -155q0 -76 -24 -142.5t-66 -117t-96.5 -79t-114.5 -28.5q-50 0 -77.5 19.5t-37.5 53 t-6 77t17 91.5h-4q-18 -39 -42 -81t-52.5 -78.5t-60.5 -59t-66 -22.5q-37 0 -64 33.5t-27 108.5q0 68 23.5 134t65 120t97.5 86.5t122 32.5q19 0 47 -3.5t56 -11.5l-56 -228q-5 -21 -11.5 -51t-8.5 -62t4 -60t26 -45.5t59 -17.5q43 0 87.5 23.5t82.5 67t61 104t23 133.5 q0 79 -28.5 145.5t-79 116t-119.5 76.5t-150 27q-77 0 -155 -25t-148 -71.5t-124.5 -112t-86 -147t-31.5 -176.5q0 -88 28.5 -162t81.5 -129t127.5 -85t165.5 -30q92 0 158.5 25.5t119.5 54.5zM455 26q29 0 60.5 28.5t61.5 73.5t55.5 97t43.5 99.5t26 79.5l13 53 q-21 6 -42 9t-36 3q-48 0 -91.5 -29t-77.5 -77t-53.5 -107t-19.5 -119q0 -52 15.5 -81.5t44.5 -29.5z" />
<glyph unicode="A" horiz-adv-x="599" d="M71 0h-41l218 592q10 27 19.5 53.5t15.5 46.5l27 3l5 -5l254 -690h-44l-82 222h-290zM232 437l-66 -179h264l-66 179q-18 50 -36 100.5t-29 99.5h-1q-12 -49 -30 -99.5t-36 -100.5z" />
<glyph unicode="B" horiz-adv-x="572" d="M251 0h-136v538q0 44 -1.5 78t-5.5 69h146q101 0 161.5 -46.5t60.5 -126.5q0 -59 -32.5 -99t-85.5 -57q75 -16 112 -61.5t37 -107.5q0 -88 -69 -137.5t-187 -49.5zM252 650h-95v-279h91q90 0 136.5 35.5t46.5 100.5q0 64 -45 103.5t-134 39.5zM253 336h-96v-301h100 q101 0 153 39t52 112q0 67 -48 108.5t-161 41.5z" />
<glyph unicode="C" horiz-adv-x="598" d="M532 86l6 -38q-35 -28 -86.5 -43t-100.5 -15q-79 0 -140 39.5t-96 116t-35 186.5q0 114 36.5 195.5t100.5 124.5t144 43q43 0 89.5 -11t80.5 -34l-9 -42q-27 22 -69 35.5t-89 13.5q-67 0 -121 -36.5t-86 -107.5t-32 -175q0 -89 27 -159t79 -110.5t128 -40.5 q48 0 93.5 16.5t79.5 41.5z" />
<glyph unicode="D" horiz-adv-x="677" d="M597 344q0 -108 -42 -185t-118 -118t-177 -41h-145v538q0 44 -1.5 78t-5.5 69h162q89 0 163.5 -40.5t119 -116.5t44.5 -184zM264 649h-107v-613h101q142 0 218 80t76 226q0 97 -36.5 165.5t-101 105t-150.5 36.5z" />
<glyph unicode="E" horiz-adv-x="510" d="M465 39v-39h-350v538q0 44 -1.5 78t-5.5 69h342l5 -5v-34l-298 4v-292l256 2v-39l-256 2v-288z" />
<glyph unicode="F" horiz-adv-x="490" d="M157 0h-42v538q0 44 -1.5 78t-5.5 69h342l5 -5v-34l-298 4v-302l256 2v-39l-256 2v-313z" />
<glyph unicode="G" horiz-adv-x="651" d="M556 288l5 -5l-2 -242q-26 -17 -62 -28.5t-73.5 -17t-68.5 -5.5q-82 0 -144 40t-96.5 116.5t-34.5 185.5q0 114 37 195.5t104.5 124.5t158.5 43q43 0 84.5 -9.5t73.5 -28.5l-9 -42q-25 18 -62.5 30t-84.5 12q-76 0 -134 -36.5t-90.5 -107.5t-32.5 -174q0 -90 26.5 -160 t79.5 -110.5t132 -40.5q36 0 77 8.5t77 24.5v70q0 44 -1.5 78t-5.5 69z" />
<glyph unicode="H" horiz-adv-x="701" d="M157 0h-42v538q0 44 -1.5 78t-5.5 69l44 10l5 -5v-331h387v179q0 44 -1.5 78t-5.5 69l44 10l5 -5v-690h-42v323h-387v-323z" />
<glyph unicode="I" horiz-adv-x="272" d="M157 0h-42v538q0 44 -1.5 78t-5.5 69l44 10l5 -5v-690z" />
<glyph unicode="J" horiz-adv-x="259" d="M25 -182l-15 26q39 21 65.5 69t26.5 130v495q0 44 -1.5 78t-5.5 69l44 10l5 -5v-647q0 -93 -31.5 -145.5t-87.5 -79.5z" />
<glyph unicode="K" horiz-adv-x="566" d="M115 538q0 44 -1.5 78t-5.5 69l42 10l5 -5v-331h109l237 336l28 -13l5 -5l-235 -333l257 -344l-41 -10q-62 83 -124 166.5t-124 166.5h-112v-323h-40v538z" />
<glyph unicode="L" horiz-adv-x="482" d="M457 39v-39h-342v539q0 44 -1.5 77.5t-5.5 68.5l44 10l5 -5v-655z" />
<glyph unicode="M" horiz-adv-x="846" d="M680 695l5 -5l91 -690h-42l-36 271q-9 72 -16.5 128t-13 107t-10.5 106h-1q-25 -85 -55 -170t-60 -171l-96 -271h-46l-95 271q-27 79 -47.5 137t-37 106t-31.5 98h-1q-7 -85 -19 -170t-23 -171l-36 -271h-40l92 691l35 4l150 -424q17 -46 38.5 -108.5t37.5 -121.5h1 q23 74 42 128.5t35 101.5l148 420z" />
<glyph unicode="N" horiz-adv-x="701" d="M349 384q43 -68 77.5 -122.5t64.5 -104.5t56 -106h1q-1 24 -1.5 46t-1 52.5t-1 78.5t-0.5 123v187q0 44 -1.5 78t-5.5 69l44 10l5 -5v-690h-45q-49 78 -97.5 155.5t-97.5 155.5q-42 68 -75.5 120.5t-61.5 100.5t-55 102h-1q3 -66 3.5 -128t0.5 -124v-382h-42v538 q0 44 -1.5 78t-5.5 69l46 10q50 -78 99 -156t96 -155z" />
<glyph unicode="O" horiz-adv-x="694" d="M614 344q0 -116 -37.5 -195t-99 -119t-135.5 -40q-73 0 -132.5 39.5t-94.5 116t-35 186.5q0 113 37 194.5t99 125t138 43.5q74 0 133 -41.5t93 -120t34 -189.5zM125 338q0 -94 27 -164t77 -108t117 -38q65 0 115 35.5t79 105.5t29 172q0 95 -26 166t-74 110.5t-115 39.5 q-64 0 -116 -37.5t-82.5 -108.5t-30.5 -173z" />
<glyph unicode="P" horiz-adv-x="540" d="M157 0h-42v538q0 44 -1.5 78t-5.5 69h155q105 0 168.5 -55.5t63.5 -152.5q0 -68 -31.5 -115t-87.5 -71t-128 -24h-91v-267zM261 650h-104v-348h100q90 0 141.5 45t51.5 130q0 76 -45.5 124.5t-143.5 48.5z" />
<glyph unicode="Q" horiz-adv-x="721" d="M614 344q0 -104 -30.5 -178t-82 -117.5t-114.5 -54.5q68 -43 151.5 -75.5t187.5 -32.5l-15 -49q-59 0 -124.5 20t-131 54.5t-122.5 78.5q-71 3 -128.5 43t-91 115.5t-33.5 183.5q0 113 37 194.5t99 125t138 43.5q74 0 133 -41.5t93 -120t34 -189.5zM125 338 q0 -94 27 -164t77 -108t117 -38q65 0 115 35.5t79 105.5t29 172q0 95 -26 166t-74 110.5t-115 39.5q-64 0 -116 -37.5t-82.5 -108.5t-30.5 -173z" />
<glyph unicode="R" horiz-adv-x="574" d="M157 0h-42v538q0 44 -1.5 78t-5.5 69h155q70 0 122 -25.5t81 -71t29 -106.5q0 -71 -39 -117t-105 -65l173 -300l-39 -10q-43 74 -85.5 148.5t-85.5 148.5h-157v-287zM261 650h-104v-328h100q90 0 141.5 40.5t51.5 119.5q0 47 -19.5 85t-61.5 60.5t-108 22.5z" />
<glyph unicode="S" horiz-adv-x="501" d="M436 162q0 -79 -57 -125.5t-151 -46.5q-32 0 -76 7.5t-87 27.5l8 43q41 -24 85 -32t74 -8q77 0 119 36.5t42 93.5q0 46 -22.5 77t-58 53.5t-74.5 42.5q-41 22 -79 46t-62.5 58.5t-24.5 86.5q0 79 57 126t148 47q40 0 81 -9t70 -24l-8 -43q-37 23 -76 30.5t-68 7.5 q-76 0 -118.5 -35t-42.5 -92q0 -45 24.5 -75.5t62 -52.5t75.5 -43q37 -19 73.5 -44.5t61 -62t24.5 -90.5z" />
<glyph unicode="T" horiz-adv-x="521" d="M282 0h-42v650q-53 0 -107 -1.5t-108 -3.5l3 40h465l3 -40q-54 2 -107.5 3.5t-106.5 1.5v-650z" />
<glyph unicode="U" horiz-adv-x="644" d="M100 540q0 44 -2.5 78t-7.5 69l52 8v-478q0 -61 24.5 -103.5t65.5 -64t90 -21.5q50 0 90.5 21t65 63.5t24.5 104.5v323q0 44 -2.5 78t-7.5 69l52 8v-475q0 -76 -30.5 -127.5t-82 -77t-114.5 -25.5q-60 0 -109.5 26t-78.5 77t-29 127v320z" />
<glyph unicode="V" horiz-adv-x="597" d="M287 -5l-257 696l43 4l157 -427q23 -62 40.5 -113t29.5 -106q13 55 36 120t45 124l147 402l34 -5l5 -5l-255 -690h-25z" />
<glyph unicode="W" horiz-adv-x="986" d="M265 -5l-225 695l40 5l139 -428q20 -61 35.5 -112.5t23.5 -102.5q9 51 28.5 115.5t38.5 122.5l129 401l39 4l139 -428q20 -61 35.5 -112.5t23.5 -102.5q9 51 28 114t38 121l132 408l32 -5l5 -5l-223 -690h-25l-159 492q-11 35 -22.5 71.5t-22.5 79.5h-1 q-10 -43 -22 -79.5t-23 -71.5l-158 -492h-25z" />
<glyph unicode="X" horiz-adv-x="551" d="M36 0l-1 5l214 343l-214 337l43 9l201 -317h1l195 318l40 -5l1 -5l-214 -338l214 -347h-48l-196 318h-1l-193 -318h-42z" />
<glyph unicode="Y" horiz-adv-x="552" d="M255 256l-225 435l44 4l136 -260q17 -30 35.5 -67t31.5 -71h1q35 76 70 140l133 258l36 -5l5 -5l-225 -433v-252h-42v256z" />
<glyph unicode="Z" horiz-adv-x="498" d="M37 0l-7 25l379 625l-368 -3l3 38h407l10 -25l-379 -625l386 4l-3 -39h-428z" />
<glyph unicode="[" horiz-adv-x="298" d="M80 755h193v-36h-151v-878h151v-36h-193v950z" />
<glyph unicode="\" horiz-adv-x="349" d="M247 -2l-187 747l8 8l30 5l187 -747l-8 -8z" />
<glyph unicode="]" horiz-adv-x="298" d="M218 755v-950h-193v36h151v878h-151v36h193z" />
<glyph unicode="^" horiz-adv-x="525" d="M135 210h-45l142 335h56l147 -335h-44l-131 299z" />
<glyph unicode="_" horiz-adv-x="340" d="M0 -183v35h340v-35h-340z" />
<glyph unicode="`" horiz-adv-x="341" d="M212 580q-50 32 -90 68.5t-72 82.5l3 8l39 16q23 -41 58 -82.5t72 -79.5z" />
<glyph unicode="a" horiz-adv-x="496" d="M385 148q0 -37 4.5 -70.5t20.5 -77.5l-40 -10q-7 14 -13 33t-9 37v0q-21 -25 -62.5 -47.5t-93.5 -22.5q-62 0 -94.5 34t-32.5 82q0 43 23.5 74.5t63.5 52.5t90 32.5t103 15.5v78q0 53 -27 81.5t-84 28.5q-40 0 -79.5 -13.5t-72.5 -35.5l-3 40q31 17 73 31t88 14 q72 0 109 -36.5t37 -94.5v-79.5t-0.5 -86t-0.5 -60.5zM108 110q0 -31 21 -57.5t67 -26.5q40 0 82 21.5t67 50.5v149q-64 -4 -118 -20.5t-86.5 -45t-32.5 -71.5z" />
<glyph unicode="b" horiz-adv-x="558" d="M150 11l-40 -21v608q0 44 -2 77.5t-5 69.5l42 10l5 -5v-299q54 54 136 54q86 0 141.5 -67t55.5 -190q0 -85 -27.5 -142.5t-74.5 -86.5t-107 -29q-31 0 -65.5 7t-58.5 16v-2zM283 469q-36 0 -72 -14.5t-61 -42.5v-364q24 -9 62.5 -15.5t64.5 -6.5q74 0 118.5 56.5 t44.5 162.5q0 100 -40.5 162t-116.5 62z" />
<glyph unicode="c" horiz-adv-x="475" d="M420 475l-12 -40q-21 14 -51 24t-65 10q-77 0 -125.5 -55t-48.5 -165q0 -101 43 -162t123 -61q40 0 75 13.5t56 27.5l5 -36q-27 -19 -63 -30t-75 -11q-91 0 -149 64t-58 189q0 129 61.5 195.5t158.5 66.5q71 0 125 -30z" />
<glyph unicode="d" horiz-adv-x="558" d="M401 745l42 10l5 -5v-608q0 -38 5.5 -71t20.5 -71l-40 -10q-7 14 -12.5 33t-9.5 36q-18 -26 -52.5 -47.5t-86.5 -21.5q-58 0 -102.5 30.5t-70 87t-25.5 133.5q0 87 31 146t82.5 88.5t111.5 29.5q34 0 62 -8t46 -17v118q0 44 -1 77.5t-6 69.5zM118 243q0 -103 44 -160 t116 -57q48 0 79.5 22t50.5 48v347q-24 12 -55 19t-58 7q-47 0 -87.5 -24t-65 -73.5t-24.5 -128.5z" />
<glyph unicode="e" horiz-adv-x="502" d="M434 261l-15 -15h-301q1 -109 47.5 -164.5t119.5 -55.5q39 0 73.5 14t62.5 33l4 -36q-19 -15 -57.5 -31t-88.5 -16q-91 0 -147.5 66t-56.5 186q0 88 29 146t75.5 87.5t98.5 29.5q71 0 114 -49.5t43 -133.5v-30t-1 -31zM274 469q-38 0 -71.5 -21t-56 -63.5t-27.5 -108.5 l273 7q1 9 1 18v18q0 69 -31.5 109.5t-87.5 40.5z" />
<glyph unicode="f" horiz-adv-x="296" d="M150 0h-40v462l-76 2v24l76 7q-1 29 -2 57.5t-1 41.5q0 74 35 117.5t105 43.5q57 0 104 -26l-12 -40q-17 12 -41.5 21t-54.5 9q-54 0 -75 -33.5t-21 -94.5q0 -7 0.5 -24.5t1 -37t0.5 -34.5h136l5 -5l-2 -31l-138 3v-462z" />
<glyph unicode="g" horiz-adv-x="474" d="M123 84q0 22 9 41.5t24 34.5q-43 19 -68.5 60t-25.5 100q0 50 18.5 92t55 67.5t89.5 25.5q31 0 55.5 -9.5t39.5 -20.5q20 13 49.5 21.5t56.5 8.5h7v-47h-93q18 -19 32 -50.5t14 -76.5q0 -50 -18.5 -92t-54 -67.5t-88.5 -25.5q-20 0 -39 4q-11 -11 -17 -25.5t-6 -32.5 q0 -23 13.5 -37t48.5 -17l81 -6q35 -2 66.5 -14t51.5 -37t20 -66q0 -42 -24.5 -81t-73 -64t-120.5 -25q-91 0 -143.5 39.5t-52.5 95.5q0 37 18.5 61t32.5 34l23 -11q-11 -13 -22 -32.5t-11 -43.5q0 -41 40 -74.5t118 -33.5q80 0 127 37t47 90q0 41 -28.5 63.5t-73.5 25.5 l-73 5q-55 4 -80 26.5t-25 56.5zM344 323q0 67 -30.5 107t-89.5 40q-60 0 -90 -38t-30 -106q0 -65 30.5 -105t91.5 -40q59 0 88.5 38t29.5 104z" />
<glyph unicode="h" d="M150 0h-40v598q0 44 -1 77.5t-6 69.5l42 10l5 -5v-319q38 35 80.5 54.5t88.5 19.5q62 0 96.5 -35.5t34.5 -106.5v-363h-40v353q0 116 -100 116q-40 0 -81 -19.5t-79 -53.5v-396z" />
<glyph unicode="i" horiz-adv-x="260" d="M161 668q0 -17 -8.5 -32t-28.5 -15q-16 0 -25.5 12.5t-9.5 30.5t10.5 32.5t27.5 14.5t25.5 -12t8.5 -31zM110 0v348q0 43 -1 77t-6 70l42 10l5 -5v-500h-40z" />
<glyph unicode="j" horiz-adv-x="260" d="M161 668q0 -17 -8.5 -32t-28.5 -15q-16 0 -25.5 12.5t-9.5 30.5t10.5 32.5t27.5 14.5t25.5 -12t8.5 -31zM33 -255l-12 25q36 22 62.5 62.5t26.5 107.5v408q0 43 -2 77t-5 70l42 10l5 -5v-551q0 -82 -32.5 -130.5t-84.5 -73.5z" />
<glyph unicode="k" horiz-adv-x="493" d="M110 598q0 44 -1.5 78t-5.5 69l42 10l5 -5v-471h94q40 53 81.5 109.5t84.5 116.5l25 -13l5 -5l-163 -218q46 -68 94 -135t97 -134l-42 -10q-46 64 -90.5 128t-88.5 128h-97v-246h-40v598z" />
<glyph unicode="l" horiz-adv-x="260" d="M150 0h-40v598q0 44 -1.5 78t-5.5 69l42 10l5 -5v-750z" />
<glyph unicode="m" horiz-adv-x="841" d="M155 0h-40v350q0 47 -4.5 78t-15.5 64l36 13q7 -17 13 -38t9 -38q37 36 78.5 56t83.5 20q98 0 121 -81q38 39 81 60t86 21q62 0 95 -34t33 -98v-373h-40v363q0 50 -24 78t-72 28q-75 0 -153 -76q1 -9 1 -20v-373h-40v363q0 50 -24 78t-72 28q-37 0 -76 -19.5t-76 -55.5 v-394z" />
<glyph unicode="n" horiz-adv-x="565" d="M155 0h-40v350q0 47 -4.5 78t-15.5 64l36 13q7 -17 13 -38t9 -38q38 36 81 56t90 20q62 0 96.5 -35.5t34.5 -106.5v-363h-40v353q0 116 -100 116q-40 0 -81 -20t-79 -55v-394z" />
<glyph unicode="o" horiz-adv-x="556" d="M481 251q0 -86 -29 -144.5t-76 -87.5t-103 -29q-58 0 -102.5 30.5t-70 87.5t-25.5 136q0 87 29 145t76.5 87t102.5 29q58 0 102.5 -30.5t70 -87t25.5 -136.5zM118 248q0 -65 18 -115t53.5 -78.5t85.5 -28.5q69 0 116 56t47 165q0 65 -18 115t-53 78.5t-86 28.5 q-69 0 -116 -55.5t-47 -165.5z" />
<glyph unicode="p" horiz-adv-x="563" d="M115 -250v600q0 47 -4.5 78t-15.5 64l36 13q6 -14 11 -29t8 -30q24 25 61 42t80 17q52 0 97 -28.5t72.5 -84t27.5 -138.5q0 -75 -24.5 -135t-70.5 -94.5t-111 -34.5q-37 0 -70.5 10.5t-56.5 23.5v-127q0 -43 1.5 -74.5t5.5 -67.5l-42 -10zM285 469q-78 0 -130 -63v-346 q24 -13 57 -23.5t67 -10.5q80 0 123 60.5t43 163.5q0 110 -46 164.5t-114 54.5z" />
<glyph unicode="q" horiz-adv-x="558" d="M408 -250v294q-54 -54 -136 -54q-86 0 -141.5 67t-55.5 190q0 86 32 143t86.5 86t123.5 29q23 0 48.5 -4.5t46.5 -11.5l36 16v-603q0 -43 1.5 -77t5.5 -70l-42 -10zM118 250q0 -100 40.5 -162t116.5 -62q36 0 72 14.5t61 42.5v371q-22 7 -48.5 11t-45.5 4 q-89 0 -142.5 -56t-53.5 -163z" />
<glyph unicode="r" horiz-adv-x="373" d="M155 0h-40v350q0 47 -4.5 78t-15.5 64l36 13q7 -17 13 -38t9 -38q39 36 80 56t73 20q16 0 28 -4t19 -9l-15 -35q-7 3 -16 5.5t-21 2.5q-25 0 -65 -17.5t-81 -55.5v-392z" />
<glyph unicode="s" horiz-adv-x="435" d="M356 473l-8 -41q-25 17 -52.5 27t-62.5 10q-55 0 -87 -25.5t-32 -65.5q0 -32 18.5 -53.5t47.5 -37.5t62 -30.5t62 -32t47.5 -42.5t18.5 -62q0 -56 -46 -93t-121 -37q-31 0 -67.5 7.5t-70.5 24.5l8 41q32 -19 68 -28t67 -9q58 0 88.5 26t30.5 63q0 31 -18.5 51.5t-47.5 36 t-62 29.5t-62 32t-47.5 43.5t-18.5 63.5q0 59 45.5 96.5t119.5 37.5q38 0 67 -9.5t53 -22.5z" />
<glyph unicode="t" horiz-adv-x="341" d="M288 462h-138v-311q0 -70 20.5 -97.5t60.5 -27.5q23 0 43.5 7t37.5 18l9 -33q-19 -12 -44 -20t-54 -8q-56 0 -84.5 35.5t-28.5 115.5v321h-76v26l76 7l9 112l29 4l5 -5l-3 -111h135l5 -5z" />
<glyph unicode="u" horiz-adv-x="553" d="M110 348q0 44 -1.5 78t-3.5 69l40 10l5 -5v-368q0 -50 24 -78t72 -28q73 0 152 77v392l40 10v-360q0 -47 5 -78t15 -64l-36 -13q-7 17 -13 38t-9 38q-37 -37 -78.5 -56.5t-83.5 -19.5q-62 0 -95 34t-33 98v226z" />
<glyph unicode="v" horiz-adv-x="457" d="M427 495l-188 -500h-19l-190 506l40 4l87 -233q24 -62 37.5 -99.5t21.5 -64t13 -57.5h1q7 31 15 57.5t22 64t37 99.5l87 233l31 -5z" />
<glyph unicode="w" horiz-adv-x="740" d="M203 -5l-173 506l40 4l78 -229q20 -58 32 -98t20 -69t14 -57h1q8 36 16 65t19 64t29 87l81 237h24l77 -226q18 -52 39 -114t28 -112h1q11 53 29.5 110.5t36.5 110.5l79 231l31 -5l5 -5l-171 -500h-21l-89 258q-22 65 -36 107.5t-22 86.5h-1q-7 -45 -22 -91t-34 -101 l-89 -260h-22z" />
<glyph unicode="x" horiz-adv-x="461" d="M377 0l-148 223l-148 -223h-40l-1 5l163 243l-163 247l39 10l153 -233l150 233l38 -5l1 -5l-164 -248l164 -247h-44z" />
<glyph unicode="y" horiz-adv-x="447" d="M427 495l-188 -500q-23 -63 -56 -116.5t-73 -88.5t-87 -45l-8 47q60 11 107.5 64t87.5 162v1l-180 482l40 4l87 -233q24 -62 37.5 -99.5t21.5 -64t13 -57.5h1q7 31 15 57.5t22 64t37 99.5l87 233l31 -5z" />
<glyph unicode="z" horiz-adv-x="425" d="M38 458l3 37h340l4 -25l-305 -438l162 3q37 1 74 1.5t74 2.5l-3 -39h-348l-4 25l305 438z" />
<glyph unicode="{" horiz-adv-x="289" d="M152 129q0 56 -23 92t-79 44v30q54 8 78 42.5t24 96.5q0 42 -7.5 75.5t-15.5 64.5t-8 67q0 65 35.5 89.5t109.5 24.5l3 -30q-59 0 -84.5 -20.5t-25.5 -62.5q0 -29 9 -67.5t17.5 -79t8.5 -76.5q0 -60 -27.5 -95t-64.5 -44q36 -9 64 -43.5t28 -92.5q0 -34 -8.5 -75 t-17.5 -81t-9 -70q0 -42 25.5 -62.5t84.5 -20.5l-3 -30q-76 0 -110.5 24.5t-34.5 88.5q0 36 8 69.5t15.5 68t7.5 73.5z" />
<glyph unicode="|" horiz-adv-x="320" d="M147 -255l-7 7v1000l33 3l7 -7v-1000z" />
<glyph unicode="}" horiz-adv-x="289" d="M239 265l-102 -136q0 -39 8 -73.5t15.5 -68t7.5 -69.5q0 -64 -34.5 -88.5t-110.5 -24.5l-3 30q59 0 84.5 20.5t25.5 62.5q0 30 -8.5 70t-17.5 81t-9 75q0 58 28 92.5t64 43.5q-37 9 -64.5 44t-27.5 95q0 36 9 76.5t17.5 79t8.5 67.5q0 42 -25.5 62.5t-84.5 20.5l3 30 q74 0 109.5 -24.5t35.5 -89.5q0 -36 -7.5 -67t-15.5 -64.5t-8 -75.5q0 -62 24 -96.5t78 -42.5v-30z" />
<glyph unicode="~" d="M407 227q-14 0 -41.5 7.5t-60.5 19t-65.5 23t-56 19t-31.5 7.5q-15 0 -35 -27t-45 -62l-26 18q13 23 29.5 48.5t36.5 44t41 18.5q14 0 41.5 -7.5t60.5 -19t65.5 -23t56 -19t31.5 -7.5q14 0 35 26.5t47 61.5l24 -17q-12 -22 -29 -48t-36.5 -44.5t-41.5 -18.5z" />
<glyph unicode="&#xa1;" horiz-adv-x="257" d="M96 458q0 17 9 32t28 15q17 0 26 -12.5t9 -30.5t-10.5 -32.5t-27.5 -14.5q-16 0 -25 12t-9 31zM117 305h31q3 -184 5 -308.5t3 -186.5l-42 -10l-5 5q2 119 4 246.5t4 253.5z" />
<glyph unicode="&#xa2;" horiz-adv-x="491" d="M281 -140l-8 8v125q-88 7 -143 76.5t-55 191.5q0 83 25.5 143.5t70 96t102.5 42.5v134l22 3l8 -8v-127q33 0 67.5 -9t59.5 -26l-8 -40q-21 17 -52 27.5t-65 10.5q-85 0 -136.5 -65t-51.5 -176q0 -108 48.5 -173t133.5 -65q37 0 72 12.5t60 31.5l5 -36q-25 -21 -61 -32 t-72 -13v-129z" />
<glyph unicode="&#xa3;" horiz-adv-x="500" d="M456 -127q-8 -4 -24.5 -7t-32.5 -3q-39 0 -79.5 14.5t-82 37t-83 46t-80.5 40.5q-20 -12 -44 -12q-40 0 -40 27q0 14 10.5 21t26.5 7t39 -7q26 24 40 79.5t28 135.5l8 46l-110 2l5 27l111 7v0q13 74 25.5 139.5t31.5 115t52 77.5t86 28q29 0 56 -7.5t42 -18.5l-19 -47 q-36 37 -83 37q-44 0 -70 -31t-43.5 -102t-37.5 -191h182l4 -5l-9 -31h-182l-11 -59q-6 -31 -14.5 -71t-22.5 -78.5t-36 -65.5q34 -14 72.5 -34t79.5 -39t80.5 -31.5t75.5 -12.5q20 0 39 4t29 10z" />
<glyph unicode="&#xa4;" horiz-adv-x="591" d="M492 48l-87 89q-22 -20 -51.5 -31.5t-67.5 -11.5q-33 0 -60.5 9t-48.5 25l-79 -77l-23 23l77 77q-40 48 -40 114q0 34 11.5 66t33.5 57l-79 81l21 21q16 -16 38 -37.5t43 -42.5q21 17 48.5 26.5t61.5 9.5q36 0 65.5 -11t51.5 -30l84 85l23 -23l-85 -86q35 -46 35 -107 q0 -30 -9 -59t-27 -53q8 -8 21.5 -22t28 -29t25.5 -26t13 -14v-4zM288 414q-45 0 -75.5 -20.5t-46.5 -53t-16 -69.5q0 -36 15.5 -69t47 -54.5t79.5 -21.5q47 0 76.5 20.5t43.5 53.5t14 69q0 64 -38.5 104.5t-99.5 40.5z" />
<glyph unicode="&#xa5;" horiz-adv-x="552" d="M76 134v33h179v100h-179v33h179l-225 391l44 4l136 -237q18 -31 34 -59.5t33 -64.5h1q20 38 37 67.5t33 58.5l133 235l36 -5l5 -5l-223 -385h177v-33h-179v-100h179v-33h-179v-134h-42v134h-179z" />
<glyph unicode="&#xa6;" horiz-adv-x="320" d="M180 377l-23 -3l-17 7v371l33 3l7 -7v-371zM180 -252l-23 -3l-17 7v371l33 3l7 -7v-371z" />
<glyph unicode="&#xa7;" horiz-adv-x="541" d="M338 629q-53 0 -82.5 -28.5t-29.5 -79.5q0 -41 18 -78t46.5 -71.5t60.5 -70.5t60.5 -74.5t46.5 -82.5t18 -96q0 -70 -35 -118.5t-95 -74t-136 -25.5q-37 0 -68 6.5t-52 16.5l10 69q22 -15 46 -20.5t46 -5.5q58 0 91 30t33 84q0 41 -18 77t-46.5 70t-61 69t-61 73 t-46.5 81.5t-18 95.5q0 67 32.5 116t90 76t132.5 27q36 0 67 -6t52 -17l-10 -69q-22 15 -46 20.5t-45 5.5zM205 -138q68 0 112 17.5t69.5 45.5t36 60.5t10.5 62.5q0 46 -18 86.5t-46.5 77t-61 71.5t-61 70t-46.5 72.5t-18 79.5q0 32 14 67t47.5 60t92.5 27v4 q-67 0 -111.5 -17.5t-70 -45.5t-36 -60.5t-10.5 -62.5q0 -47 18 -87.5t46.5 -77t61 -71t61 -69t46.5 -72t18 -79.5q0 -32 -14 -67.5t-47.5 -60.5t-92.5 -27v-4z" />
<glyph unicode="&#xa8;" horiz-adv-x="360" d="M120 665q0 -18 -8.5 -33.5t-27.5 -15.5q-16 0 -25 12.5t-9 29.5q0 19 10.5 33.5t26.5 14.5t24.5 -11.5t8.5 -29.5zM308 665q0 -18 -8.5 -33.5t-27.5 -15.5q-16 0 -25 12.5t-9 29.5q0 19 10.5 33.5t26.5 14.5t24.5 -11.5t8.5 -29.5z" />
<glyph unicode="&#xa9;" horiz-adv-x="692" d="M346 -36q-81 0 -145.5 38t-102.5 102.5t-38 145.5q0 59 22.5 110.5t62 91t91 62t110.5 22.5q61 0 113 -22.5t91 -62t60.5 -91t21.5 -110.5t-22.5 -110.5t-62 -91t-91 -62t-110.5 -22.5zM346 0q69 0 126 34t90.5 91t33.5 125q0 69 -33.5 126t-90.5 90.5t-126 33.5 q-68 0 -125 -33.5t-91 -90.5t-34 -126q0 -71 33 -127.5t89.5 -89.5t127.5 -33zM444 391l-10 -34q-13 8 -31 14t-39 6q-50 0 -81 -33t-31 -86q0 -58 27 -92.5t78 -34.5q26 0 47.5 8t34.5 17l5 -31q-17 -11 -40 -18t-49 -7q-61 0 -100 39t-39 114q0 68 42 111.5t108 43.5 q46 0 78 -17z" />
<glyph unicode="&#xaa;" horiz-adv-x="415" d="M320 405q0 -28 3.5 -54.5t16.5 -60.5l-33 -8q-12 25 -18 54q-16 -20 -50.5 -37t-77.5 -17q-51 0 -77.5 26.5t-26.5 64.5q0 45 33 73.5t86 43.5t111 20v58q0 41 -22 63t-69 22q-33 0 -65.5 -10.5t-59.5 -27.5l-2 34q25 14 59.5 24.5t72.5 10.5q59 0 89.5 -28.5t30.5 -75.5 v-62t-0.5 -66t-0.5 -47zM93 377q0 -25 17.5 -45t54.5 -20q33 0 67 16.5t55 38.5v116q-52 -4 -96 -16.5t-71 -34.5t-27 -55z" />
<glyph unicode="&#xab;" horiz-adv-x="435" d="M60 287v12q43 39 83 88.5t84 108.5l12 -8q-27 -55 -58 -103.5t-65 -91.5q34 -43 65 -91.5t58 -103.5l-12 -8q-44 59 -84 108.5t-83 88.5zM216 287v12q43 39 83 88.5t84 108.5l12 -8q-27 -55 -58 -103.5t-65 -91.5q34 -43 65 -91.5t58 -103.5l-12 -8q-44 59 -84 108.5 t-83 88.5z" />
<glyph unicode="&#xac;" d="M490 305l-1 -209h-40v177h-395v35q36 1 93 2t120 1.5t120.5 1t94.5 0.5z" />
<glyph unicode="&#xae;" horiz-adv-x="692" d="M343 -36q-59 0 -110.5 22t-90 60.5t-60.5 90t-22 111.5t22.5 112.5t62 92t91.5 61.5t112 22t111.5 -22t90 -61.5t60.5 -91t22 -110.5t-22.5 -111t-62 -91.5t-92 -62t-112.5 -22.5zM344 0q71 0 128 34t90.5 91t33.5 125q0 69 -33.5 126t-90.5 90.5t-126 33.5 q-68 0 -125 -33.5t-91 -90.5t-34 -128q0 -69 33 -125.5t89.5 -89.5t125.5 -33zM289 92h-32v229q0 22 -0.5 47.5t-5.5 52.5h91q52 0 84 -27t32 -77q0 -42 -24.5 -65t-51.5 -29l71 -131l-35 -5q-9 16 -20.5 39.5l-23 47t-20.5 41.5h-65v-123zM349 390h-60v-144h60 q34 0 53.5 18t19.5 51t-19.5 54t-53.5 21z" />
<glyph unicode="&#xaf;" horiz-adv-x="324" d="M50 646v34h264v-34h-264z" />
<glyph unicode="&#xb0;" horiz-adv-x="331" d="M162 310q-46 0 -79 30.5t-33 82.5q0 35 16.5 62.5t44 43.5t59.5 16q47 0 79 -30.5t32 -81.5q0 -34 -16.5 -62t-43.5 -44.5t-59 -16.5zM166 510q-36 0 -57 -25t-21 -60q0 -34 21.5 -57t55.5 -23q35 0 56.5 24.5t21.5 61.5q0 34 -21 56.5t-56 22.5z" />
<glyph unicode="&#xb1;" d="M487 421h-184v-166h-40l-1 166h-189v35q32 1 82.5 2t106.5 1l-1 166h42v-165q53 0 102 0.5t81 0.5l5 -5zM503 98h-450v35q31 1 75.5 1.5t96 1.5t103 1.5t97 0.5h77.5l5 -5z" />
<glyph unicode="&#xb2;" horiz-adv-x="359" d="M40 352l-5 33q61 49 113 92.5t84 85.5t32 85q0 41 -28 64.5t-72 23.5q-66 0 -125 -45l-4 31q24 20 62 32t75 12q55 0 93.5 -30t38.5 -82q0 -38 -21.5 -74t-56 -70t-74.5 -65.5t-77 -60.5h137q55 0 104 6l-6 -38h-270z" />
<glyph unicode="&#xb3;" horiz-adv-x="346" d="M49 733q18 12 51.5 22.5t68.5 10.5q49 0 83 -23.5t34 -64.5q0 -35 -29.5 -65.5t-88.5 -49.5q60 -3 99 -28t39 -74q0 -52 -43.5 -84.5t-117.5 -32.5q-28 0 -56.5 4.5t-48.5 9.5l4 29q22 -6 50.5 -10t50.5 -4q53 0 87 23.5t34 62.5q0 30 -18.5 47t-48 24.5t-62.5 7.5 q-25 0 -44 -4v29q79 16 116 46t37 64q0 29 -22.5 46t-62.5 17q-31 0 -58.5 -9t-49.5 -23z" />
<glyph unicode="&#xb4;" horiz-adv-x="237" d="M167 736l3 -8q-31 -46 -71.5 -82.5t-90.5 -68.5l-10 13q38 38 72.5 79.5t57.5 82.5z" />
<glyph unicode="&#xb6;" horiz-adv-x="602" d="M243 -131q84 0 130.5 53t46.5 174v554h-74v-420h-31q-61 0 -112.5 27t-82 78.5t-30.5 124.5q0 75 31.5 125t83.5 75t115 25h142v-600q0 -124 -54.5 -190t-155.5 -66q-37 0 -77.5 8t-70.5 18l4 40q37 -13 70.5 -19.5t64.5 -6.5z" />
<glyph unicode="&#xb7;" horiz-adv-x="284" d="M184 287q0 -20 -13 -33.5t-30 -13.5q-16 0 -28.5 12t-12.5 31q0 20 13 33.5t31 13.5q17 0 28.5 -12t11.5 -31z" />
<glyph unicode="&#xb8;" horiz-adv-x="300" d="M220 -123q0 -37 -37 -59.5t-87 -29.5l-6 22q41 10 64.5 24t23.5 35t-19.5 29.5t-42.5 10.5l-7 11l26 81l30 -1l-20 -62q32 -5 53.5 -20t21.5 -41z" />
<glyph unicode="&#xb9;" horiz-adv-x="227" d="M100 722h-1l-77 -17l-7 22l118 39l4 -4v-410h-38v283v47.5t1 39.5z" />
<glyph unicode="&#xba;" horiz-adv-x="472" d="M403 486q0 -67 -24 -112.5t-62.5 -68.5t-84.5 -23q-71 0 -117 52.5t-46 145.5q0 68 24 113t63 68t84 23q71 0 117 -52.5t46 -145.5zM105 484q0 -76 33.5 -124t95.5 -48q56 0 94.5 43t38.5 128q0 75 -33 123t-95 48q-57 0 -95.5 -43t-38.5 -127z" />
<glyph unicode="&#xbb;" horiz-adv-x="435" d="M375 287q-43 -39 -83 -88.5t-84 -108.5l-12 8q27 55 58 103.5t65 91.5q-34 43 -65 91.5t-58 103.5l12 8q44 -59 84 -108.5t83 -88.5v-12zM219 287q-43 -39 -83 -88.5t-84 -108.5l-12 8q27 55 58 103.5t65 91.5q-34 43 -65 91.5t-58 103.5l12 8q44 -59 84 -108.5t83 -88.5 v-12z" />
<glyph unicode="&#xbc;" horiz-adv-x="824" d="M130 662h-1l-77 -17l-7 22l118 39l4 -4v-410h-38v283v47.5t1 39.5zM606 700l-425 -710h-39l424 710h40zM443 132l190 266l40 6l4 -4v-266q35 1 67 5l-7 -36h-60v-113h-37v113h-191zM478 133v-1q37 1 69.5 1h72.5h20h1v133v58.5t1 38.5h-1z" />
<glyph unicode="&#xbd;" horiz-adv-x="861" d="M130 662h-1l-77 -17l-7 22l118 39l4 -4v-410h-38v283v47.5t1 39.5zM606 700l-425 -710h-39l424 710h40zM512 -10l-5 33q61 49 113 92.5t84 85.5t32 85q0 41 -28 64.5t-72 23.5q-66 0 -125 -45l-4 31q24 20 62 32t75 12q55 0 93.5 -30t38.5 -82q0 -38 -21.5 -74t-56 -70 t-74.5 -65.5t-77 -60.5h137q55 0 104 6l-6 -38h-270z" />
<glyph unicode="&#xbe;" horiz-adv-x="920" d="M79 673q18 12 51.5 22.5t68.5 10.5q49 0 83 -23.5t34 -64.5q0 -35 -29.5 -65.5t-88.5 -49.5q60 -3 99 -28t39 -74q0 -52 -43.5 -84.5t-117.5 -32.5q-28 0 -56.5 4.5t-48.5 9.5l4 29q22 -6 50.5 -10t50.5 -4q53 0 87 23.5t34 62.5q0 30 -18.5 47t-48 24.5t-62.5 7.5 q-25 0 -44 -4v29q79 16 116 46t37 64q0 29 -22.5 46t-62.5 17q-31 0 -58.5 -9t-49.5 -23zM702 700l-425 -710h-39l424 710h40zM539 132l190 266l40 6l4 -4v-266q35 1 67 5l-7 -36h-60v-113h-37v113h-191zM574 133v-1q37 1 69.5 1h72.5h20h1v133v58.5t1 38.5h-1z" />
<glyph unicode="&#xbf;" horiz-adv-x="401" d="M187 458q0 17 9 32t28 15q17 0 26 -12.5t9 -30.5t-10.5 -32.5t-27.5 -14.5q-16 0 -25 12t-9 31zM216 286h28q3 -9 4.5 -20.5t1.5 -19.5q0 -29 -18.5 -52.5t-45.5 -45.5t-54 -47.5t-45.5 -57.5t-18.5 -76q0 -57 35 -94t95 -37q40 0 85.5 21t77.5 70l25 -21 q-31 -51 -83.5 -78.5t-109.5 -27.5q-75 0 -121.5 43.5t-46.5 116.5q0 49 19 85.5t47 65t55.5 52t46.5 44.5t19 43q0 14 -4 28z" />
<glyph unicode="&#xc0;" horiz-adv-x="599" d="M409 779q-63 10 -118.5 28.5t-105.5 49.5l-1 8l30 31q41 -30 94 -55t108 -45zM71 0h-41l218 592q10 27 19.5 53.5t15.5 46.5l27 3l5 -5l254 -690h-44l-82 222h-290zM232 437l-66 -179h264l-66 179q-18 50 -36 100.5t-29 99.5h-1q-12 -49 -30 -99.5t-36 -100.5z" />
<glyph unicode="&#xc1;" horiz-adv-x="599" d="M416 865l-1 -8q-50 -31 -105.5 -49.5t-118.5 -28.5l-7 17q56 20 108.5 45t93.5 55zM71 0h-41l218 592q10 27 19.5 53.5t15.5 46.5l27 3l5 -5l254 -690h-44l-82 222h-290zM232 437l-66 -179h264l-66 179q-18 50 -36 100.5t-29 99.5h-1q-12 -49 -30 -99.5t-36 -100.5z" />
<glyph unicode="&#xc2;" horiz-adv-x="599" d="M172 770l-13 13q32 29 60 58t53 60l43 5q28 -32 59.5 -63t65.5 -60l-13 -13q-73 47 -133 97q-28 -25 -58.5 -49.5t-63.5 -47.5zM71 0h-41l218 592q10 27 19.5 53.5t15.5 46.5l27 3l5 -5l254 -690h-44l-82 222h-290zM232 437l-66 -179h264l-66 179q-18 50 -36 100.5 t-29 99.5h-1q-12 -49 -30 -99.5t-36 -100.5z" />
<glyph unicode="&#xc3;" horiz-adv-x="599" d="M232 890q28 0 51 -14t45 -28t45 -14q25 0 42 17.5t28 39.5l16 -3q-5 -34 -28 -63t-63 -29q-28 0 -51.5 14t-44.5 28t-45 14q-25 0 -42 -17t-28 -40l-16 3q4 20 15 41t30 36t46 15zM71 0h-41l218 592q10 27 19.5 53.5t15.5 46.5l27 3l5 -5l254 -690h-44l-82 222h-290z M232 437l-66 -179h264l-66 179q-18 50 -36 100.5t-29 99.5h-1q-12 -49 -30 -99.5t-36 -100.5z" />
<glyph unicode="&#xc4;" horiz-adv-x="599" d="M433 839q0 -17 -9.5 -32t-29.5 -15q-17 0 -27 12t-10 28q0 17 11 31t29 14q17 0 26.5 -10.5t9.5 -27.5zM243 839q0 -17 -9.5 -32t-29.5 -15q-17 0 -27 12t-10 28q0 17 11 31t29 14q17 0 26.5 -10.5t9.5 -27.5zM71 0h-41l218 592q10 27 19.5 53.5t15.5 46.5l27 3l5 -5 l254 -690h-44l-82 222h-290zM232 437l-66 -179h264l-66 179q-18 50 -36 100.5t-29 99.5h-1q-12 -49 -30 -99.5t-36 -100.5z" />
<glyph unicode="&#xc5;" horiz-adv-x="599" d="M378 837q0 -31 -23.5 -54t-57.5 -23q-28 0 -51.5 19.5t-23.5 49.5q0 32 24 54.5t58 22.5q32 0 53 -20t21 -49zM256 832q0 -20 12.5 -32.5t31.5 -12.5q20 0 32 14t12 33t-11 32t-32 13q-20 0 -32.5 -13.5t-12.5 -33.5zM71 0h-41l218 592q10 27 19.5 53.5t15.5 46.5l27 3 l5 -5l254 -690h-44l-82 222h-290zM232 437l-66 -179h264l-66 179q-18 50 -36 100.5t-29 99.5h-1q-12 -49 -30 -99.5t-36 -100.5z" />
<glyph unicode="&#xc6;" horiz-adv-x="833" d="M71 0h-41l292 592q14 27 25.5 50l21.5 43h304l5 -5v-34l-268 4l44 -292l225 2v-39l-219 2l44 -288l284 4v-39h-323l-33 222h-253zM284 437l-87 -179h230l-26 179q-7 47 -13.5 97.5t-8.5 102.5h-1q-16 -40 -42.5 -95t-51.5 -105z" />
<glyph unicode="&#xc7;" horiz-adv-x="598" d="M434 -123q0 -37 -37 -59.5t-87 -29.5l-6 22q41 10 64.5 24t23.5 35t-19.5 29.5t-42.5 10.5l-7 11l22 70q-77 1 -137 41.5t-94 116t-34 184.5q0 114 36.5 195.5t100.5 124.5t144 43q43 0 89.5 -11t80.5 -34l-9 -42q-27 22 -69 35.5t-89 13.5q-67 0 -121 -36.5t-86 -107.5 t-32 -175q0 -89 27 -159t79 -110.5t128 -40.5q48 0 93.5 16.5t79.5 41.5l6 -38q-31 -25 -74.5 -39.5t-87.5 -17.5l-17 -53q32 -5 53.5 -20t21.5 -41z" />
<glyph unicode="&#xc8;" horiz-adv-x="510" d="M391 779q-63 10 -118.5 28.5t-105.5 49.5l-1 8l30 31q41 -30 94 -55t108 -45zM465 39v-39h-350v538q0 44 -1.5 78t-5.5 69h342l5 -5v-34l-298 4v-292l256 2v-39l-256 2v-288z" />
<glyph unicode="&#xc9;" horiz-adv-x="510" d="M398 865l-1 -8q-50 -31 -105.5 -49.5t-118.5 -28.5l-7 17q56 20 108.5 45t93.5 55zM465 39v-39h-350v538q0 44 -1.5 78t-5.5 69h342l5 -5v-34l-298 4v-292l256 2v-39l-256 2v-288z" />
<glyph unicode="&#xca;" horiz-adv-x="510" d="M154 770l-13 13q32 29 60 58t53 60l43 5q28 -32 59.5 -63t65.5 -60l-13 -13q-73 47 -133 97q-28 -25 -58.5 -49.5t-63.5 -47.5zM465 39v-39h-350v538q0 44 -1.5 78t-5.5 69h342l5 -5v-34l-298 4v-292l256 2v-39l-256 2v-288z" />
<glyph unicode="&#xcb;" horiz-adv-x="510" d="M415 839q0 -17 -9.5 -32t-29.5 -15q-17 0 -27 12t-10 28q0 17 11 31t29 14q17 0 26.5 -10.5t9.5 -27.5zM225 839q0 -17 -9.5 -32t-29.5 -15q-17 0 -27 12t-10 28q0 17 11 31t29 14q17 0 26.5 -10.5t9.5 -27.5zM465 39v-39h-350v538q0 44 -1.5 78t-5.5 69h342l5 -5v-34 l-298 4v-292l256 2v-39l-256 2v-288z" />
<glyph unicode="&#xcc;" horiz-adv-x="272" d="M242 779q-63 10 -118.5 28.5t-105.5 49.5l-1 8l30 31q41 -30 94 -55t108 -45zM157 0h-42v538q0 44 -1.5 78t-5.5 69l44 10l5 -5v-690z" />
<glyph unicode="&#xcd;" horiz-adv-x="272" d="M249 865l-1 -8q-50 -31 -105.5 -49.5t-118.5 -28.5l-7 17q56 20 108.5 45t93.5 55zM157 0h-42v538q0 44 -1.5 78t-5.5 69l44 10l5 -5v-690z" />
<glyph unicode="&#xce;" horiz-adv-x="272" d="M5 770l-13 13q32 29 60 58t53 60l43 5q28 -32 59.5 -63t65.5 -60l-13 -13q-73 47 -133 97q-28 -25 -58.5 -49.5t-63.5 -47.5zM157 0h-42v538q0 44 -1.5 78t-5.5 69l44 10l5 -5v-690z" />
<glyph unicode="&#xcf;" horiz-adv-x="272" d="M266 839q0 -17 -9.5 -32t-29.5 -15q-17 0 -27 12t-10 28q0 17 11 31t29 14q17 0 26.5 -10.5t9.5 -27.5zM76 839q0 -17 -9.5 -32t-29.5 -15q-17 0 -27 12t-10 28q0 17 11 31t29 14q17 0 26.5 -10.5t9.5 -27.5zM157 0h-42v538q0 44 -1.5 78t-5.5 69l44 10l5 -5v-690z" />
<glyph unicode="&#xd0;" horiz-adv-x="677" d="M597 344q0 -108 -42 -185t-118 -118t-177 -41h-145v328h-96v30h96v180q0 44 -1.5 78t-5.5 69h162q89 0 163.5 -40.5t119 -116.5t44.5 -184zM379 328h-222v-292h101q142 0 218 80t76 226q0 97 -36.5 165.5t-101 105t-150.5 36.5h-107v-291h222v-30z" />
<glyph unicode="&#xd1;" horiz-adv-x="701" d="M279 890q28 0 51 -14t45 -28t45 -14q25 0 42 17.5t28 39.5l16 -3q-5 -34 -28 -63t-63 -29q-28 0 -51.5 14t-44.5 28t-45 14q-25 0 -42 -17t-28 -40l-16 3q4 20 15 41t30 36t46 15zM349 384q43 -68 77.5 -122.5t64.5 -104.5t56 -106h1q-1 24 -1.5 46t-1 52.5t-1 78.5 t-0.5 123v187q0 44 -1.5 78t-5.5 69l44 10l5 -5v-690h-45q-49 78 -97.5 155.5t-97.5 155.5q-42 68 -75.5 120.5t-61.5 100.5t-55 102h-1q3 -66 3.5 -128t0.5 -124v-382h-42v538q0 44 -1.5 78t-5.5 69l46 10q50 -78 99 -156t96 -155z" />
<glyph unicode="&#xd2;" horiz-adv-x="694" d="M463 779q-63 10 -118.5 28.5t-105.5 49.5l-1 8l30 31q41 -30 94 -55t108 -45zM614 344q0 -116 -37.5 -195t-99 -119t-135.5 -40q-73 0 -132.5 39.5t-94.5 116t-35 186.5q0 113 37 194.5t99 125t138 43.5q74 0 133 -41.5t93 -120t34 -189.5zM125 338q0 -94 27 -164 t77 -108t117 -38q65 0 115 35.5t79 105.5t29 172q0 95 -26 166t-74 110.5t-115 39.5q-64 0 -116 -37.5t-82.5 -108.5t-30.5 -173z" />
<glyph unicode="&#xd3;" horiz-adv-x="694" d="M470 865l-1 -8q-50 -31 -105.5 -49.5t-118.5 -28.5l-7 17q56 20 108.5 45t93.5 55zM614 344q0 -116 -37.5 -195t-99 -119t-135.5 -40q-73 0 -132.5 39.5t-94.5 116t-35 186.5q0 113 37 194.5t99 125t138 43.5q74 0 133 -41.5t93 -120t34 -189.5zM125 338q0 -94 27 -164 t77 -108t117 -38q65 0 115 35.5t79 105.5t29 172q0 95 -26 166t-74 110.5t-115 39.5q-64 0 -116 -37.5t-82.5 -108.5t-30.5 -173z" />
<glyph unicode="&#xd4;" horiz-adv-x="694" d="M226 770l-13 13q32 29 60 58t53 60l43 5q28 -32 59.5 -63t65.5 -60l-13 -13q-73 47 -133 97q-28 -25 -58.5 -49.5t-63.5 -47.5zM614 344q0 -116 -37.5 -195t-99 -119t-135.5 -40q-73 0 -132.5 39.5t-94.5 116t-35 186.5q0 113 37 194.5t99 125t138 43.5q74 0 133 -41.5 t93 -120t34 -189.5zM125 338q0 -94 27 -164t77 -108t117 -38q65 0 115 35.5t79 105.5t29 172q0 95 -26 166t-74 110.5t-115 39.5q-64 0 -116 -37.5t-82.5 -108.5t-30.5 -173z" />
<glyph unicode="&#xd5;" horiz-adv-x="694" d="M286 890q28 0 51 -14t45 -28t45 -14q25 0 42 17.5t28 39.5l16 -3q-5 -34 -28 -63t-63 -29q-28 0 -51.5 14t-44.5 28t-45 14q-25 0 -42 -17t-28 -40l-16 3q4 20 15 41t30 36t46 15zM614 344q0 -116 -37.5 -195t-99 -119t-135.5 -40q-73 0 -132.5 39.5t-94.5 116t-35 186.5 q0 113 37 194.5t99 125t138 43.5q74 0 133 -41.5t93 -120t34 -189.5zM125 338q0 -94 27 -164t77 -108t117 -38q65 0 115 35.5t79 105.5t29 172q0 95 -26 166t-74 110.5t-115 39.5q-64 0 -116 -37.5t-82.5 -108.5t-30.5 -173z" />
<glyph unicode="&#xd6;" horiz-adv-x="694" d="M487 839q0 -17 -9.5 -32t-29.5 -15q-17 0 -27 12t-10 28q0 17 11 31t29 14q17 0 26.5 -10.5t9.5 -27.5zM297 839q0 -17 -9.5 -32t-29.5 -15q-17 0 -27 12t-10 28q0 17 11 31t29 14q17 0 26.5 -10.5t9.5 -27.5zM614 344q0 -116 -37.5 -195t-99 -119t-135.5 -40 q-73 0 -132.5 39.5t-94.5 116t-35 186.5q0 113 37 194.5t99 125t138 43.5q74 0 133 -41.5t93 -120t34 -189.5zM125 338q0 -94 27 -164t77 -108t117 -38q65 0 115 35.5t79 105.5t29 172q0 95 -26 166t-74 110.5t-115 39.5q-64 0 -116 -37.5t-82.5 -108.5t-30.5 -173z" />
<glyph unicode="&#xd7;" d="M449 154l-168 167l-168 -168l-24 25l167 168l-168 167l26 25l167 -167l167 168l25 -26l-167 -167l165 -165l-1 -7z" />
<glyph unicode="&#xd8;" horiz-adv-x="694" d="M614 344q0 -116 -37.5 -195t-99 -119t-135.5 -40q-58 0 -108.5 25.5t-85.5 73.5l-78 -89l-25 22l84 96q-23 42 -36 95.5t-13 118.5q0 113 37 194.5t99 125t138 43.5q118 0 190 -99l78 90l26 -21l-85 -98q24 -43 37.5 -99t13.5 -124zM125 338q0 -107 35 -183l356 409 q-28 44 -69 68.5t-93 24.5q-64 0 -116 -37.5t-82.5 -108.5t-30.5 -173zM569 341q0 112 -36 191l-356 -409q29 -45 72 -70t97 -25q65 0 115 35.5t79 105.5t29 172z" />
<glyph unicode="&#xd9;" horiz-adv-x="644" d="M431 779q-63 10 -118.5 28.5t-105.5 49.5l-1 8l30 31q41 -30 94 -55t108 -45zM100 540q0 44 -2.5 78t-7.5 69l52 8v-478q0 -61 24.5 -103.5t65.5 -64t90 -21.5q50 0 90.5 21t65 63.5t24.5 104.5v323q0 44 -2.5 78t-7.5 69l52 8v-475q0 -76 -30.5 -127.5t-82 -77 t-114.5 -25.5q-60 0 -109.5 26t-78.5 77t-29 127v320z" />
<glyph unicode="&#xda;" horiz-adv-x="644" d="M438 865l-1 -8q-50 -31 -105.5 -49.5t-118.5 -28.5l-7 17q56 20 108.5 45t93.5 55zM100 540q0 44 -2.5 78t-7.5 69l52 8v-478q0 -61 24.5 -103.5t65.5 -64t90 -21.5q50 0 90.5 21t65 63.5t24.5 104.5v323q0 44 -2.5 78t-7.5 69l52 8v-475q0 -76 -30.5 -127.5t-82 -77 t-114.5 -25.5q-60 0 -109.5 26t-78.5 77t-29 127v320z" />
<glyph unicode="&#xdb;" horiz-adv-x="644" d="M194 770l-13 13q32 29 60 58t53 60l43 5q28 -32 59.5 -63t65.5 -60l-13 -13q-73 47 -133 97q-28 -25 -58.5 -49.5t-63.5 -47.5zM100 540q0 44 -2.5 78t-7.5 69l52 8v-478q0 -61 24.5 -103.5t65.5 -64t90 -21.5q50 0 90.5 21t65 63.5t24.5 104.5v323q0 44 -2.5 78t-7.5 69 l52 8v-475q0 -76 -30.5 -127.5t-82 -77t-114.5 -25.5q-60 0 -109.5 26t-78.5 77t-29 127v320z" />
<glyph unicode="&#xdc;" horiz-adv-x="644" d="M455 839q0 -17 -9.5 -32t-29.5 -15q-17 0 -27 12t-10 28q0 17 11 31t29 14q17 0 26.5 -10.5t9.5 -27.5zM265 839q0 -17 -9.5 -32t-29.5 -15q-17 0 -27 12t-10 28q0 17 11 31t29 14q17 0 26.5 -10.5t9.5 -27.5zM100 540q0 44 -2.5 78t-7.5 69l52 8v-478q0 -61 24.5 -103.5 t65.5 -64t90 -21.5q50 0 90.5 21t65 63.5t24.5 104.5v323q0 44 -2.5 78t-7.5 69l52 8v-475q0 -76 -30.5 -127.5t-82 -77t-114.5 -25.5q-60 0 -109.5 26t-78.5 77t-29 127v320z" />
<glyph unicode="&#xdd;" horiz-adv-x="552" d="M392 865l-1 -8q-50 -31 -105.5 -49.5t-118.5 -28.5l-7 17q56 20 108.5 45t93.5 55zM255 256l-225 435l44 4l136 -260q17 -30 35.5 -67t31.5 -71h1q35 76 70 140l133 258l36 -5l5 -5l-225 -433v-252h-42v256z" />
<glyph unicode="&#xde;" horiz-adv-x="540" d="M157 0h-42v538q0 44 -1.5 78t-5.5 69h49v-123h106q105 0 168.5 -55.5t63.5 -152.5q0 -68 -31.5 -115t-87.5 -71t-128 -24h-91v-144zM261 527h-104v-348h100q90 0 141.5 45t51.5 130q0 76 -45.5 124.5t-143.5 48.5z" />
<glyph unicode="&#xdf;" horiz-adv-x="571" d="M110 462l-76 2v24l76 7v30q0 69 17 113.5t44 70t58.5 36t60.5 10.5q67 0 109.5 -39.5t42.5 -101.5t-38 -108t-97 -66q53 -21 96 -58.5t68 -88t25 -110.5q0 -58 -24.5 -101.5t-67 -67.5t-96.5 -24q-25 0 -48 5t-44 12v36q24 -9 48 -13t43 -4q70 0 108 44t38 111 q0 58 -26.5 105t-71 81.5t-99.5 52.5v36q62 18 102.5 56t40.5 94q0 50 -31.5 81.5t-81.5 31.5q-21 0 -44.5 -7.5t-44.5 -28t-34 -58t-13 -97.5v-528h-40v462z" />
<glyph unicode="&#xe0;" horiz-adv-x="496" d="M308 580q-50 32 -90 68.5t-72 82.5l3 8l39 16q23 -41 58 -82.5t72 -79.5zM385 148q0 -37 4.5 -70.5t20.5 -77.5l-40 -10q-7 14 -13 33t-9 37v0q-21 -25 -62.5 -47.5t-93.5 -22.5q-62 0 -94.5 34t-32.5 82q0 43 23.5 74.5t63.5 52.5t90 32.5t103 15.5v78q0 53 -27 81.5 t-84 28.5q-40 0 -79.5 -13.5t-72.5 -35.5l-3 40q31 17 73 31t88 14q72 0 109 -36.5t37 -94.5v-79.5t-0.5 -86t-0.5 -60.5zM108 110q0 -31 21 -57.5t67 -26.5q40 0 82 21.5t67 50.5v149q-64 -4 -118 -20.5t-86.5 -45t-32.5 -71.5z" />
<glyph unicode="&#xe1;" horiz-adv-x="496" d="M315 736l3 -8q-31 -46 -71.5 -82.5t-90.5 -68.5l-10 13q38 38 72.5 79.5t57.5 82.5zM385 148q0 -37 4.5 -70.5t20.5 -77.5l-40 -10q-7 14 -13 33t-9 37v0q-21 -25 -62.5 -47.5t-93.5 -22.5q-62 0 -94.5 34t-32.5 82q0 43 23.5 74.5t63.5 52.5t90 32.5t103 15.5v78 q0 53 -27 81.5t-84 28.5q-40 0 -79.5 -13.5t-72.5 -35.5l-3 40q31 17 73 31t88 14q72 0 109 -36.5t37 -94.5v-79.5t-0.5 -86t-0.5 -60.5zM108 110q0 -31 21 -57.5t67 -26.5q40 0 82 21.5t67 50.5v149q-64 -4 -118 -20.5t-86.5 -45t-32.5 -71.5z" />
<glyph unicode="&#xe2;" horiz-adv-x="496" d="M117 579l-13 11q27 37 52.5 75t47.5 79l43 5q25 -41 53 -81t59 -78l-13 -11q-31 29 -61.5 61t-58.5 65q-51 -64 -109 -126zM385 148q0 -37 4.5 -70.5t20.5 -77.5l-40 -10q-7 14 -13 33t-9 37v0q-21 -25 -62.5 -47.5t-93.5 -22.5q-62 0 -94.5 34t-32.5 82q0 43 23.5 74.5 t63.5 52.5t90 32.5t103 15.5v78q0 53 -27 81.5t-84 28.5q-40 0 -79.5 -13.5t-72.5 -35.5l-3 40q31 17 73 31t88 14q72 0 109 -36.5t37 -94.5v-79.5t-0.5 -86t-0.5 -60.5zM108 110q0 -31 21 -57.5t67 -26.5q40 0 82 21.5t67 50.5v149q-64 -4 -118 -20.5t-86.5 -45 t-32.5 -71.5z" />
<glyph unicode="&#xe3;" horiz-adv-x="496" d="M166 710q25 0 46.5 -14t42 -28t40.5 -14q21 0 36.5 17.5t26.5 39.5l16 -3q-4 -21 -15 -42.5t-28 -35.5t-41 -14q-25 0 -47 14t-41.5 28t-40.5 14t-36.5 -17t-26.5 -40l-16 3q5 20 15.5 41t27.5 36t41 15zM385 148q0 -37 4.5 -70.5t20.5 -77.5l-40 -10q-7 14 -13 33t-9 37 v0q-21 -25 -62.5 -47.5t-93.5 -22.5q-62 0 -94.5 34t-32.5 82q0 43 23.5 74.5t63.5 52.5t90 32.5t103 15.5v78q0 53 -27 81.5t-84 28.5q-40 0 -79.5 -13.5t-72.5 -35.5l-3 40q31 17 73 31t88 14q72 0 109 -36.5t37 -94.5v-79.5t-0.5 -86t-0.5 -60.5zM108 110q0 -31 21 -57.5 t67 -26.5q40 0 82 21.5t67 50.5v149q-64 -4 -118 -20.5t-86.5 -45t-32.5 -71.5z" />
<glyph unicode="&#xe4;" horiz-adv-x="496" d="M173 667q0 -18 -8.5 -33.5t-27.5 -15.5q-16 0 -25 12.5t-9 29.5q0 19 10.5 33.5t26.5 14.5t24.5 -11.5t8.5 -29.5zM361 667q0 -18 -8.5 -33.5t-27.5 -15.5q-16 0 -25 12.5t-9 29.5q0 19 10.5 33.5t26.5 14.5t24.5 -11.5t8.5 -29.5zM385 148q0 -37 4.5 -70.5t20.5 -77.5 l-40 -10q-7 14 -13 33t-9 37v0q-21 -25 -62.5 -47.5t-93.5 -22.5q-62 0 -94.5 34t-32.5 82q0 43 23.5 74.5t63.5 52.5t90 32.5t103 15.5v78q0 53 -27 81.5t-84 28.5q-40 0 -79.5 -13.5t-72.5 -35.5l-3 40q31 17 73 31t88 14q72 0 109 -36.5t37 -94.5v-79.5t-0.5 -86 t-0.5 -60.5zM108 110q0 -31 21 -57.5t67 -26.5q40 0 82 21.5t67 50.5v149q-64 -4 -118 -20.5t-86.5 -45t-32.5 -71.5z" />
<glyph unicode="&#xe5;" horiz-adv-x="496" d="M310 651q0 -31 -23.5 -54t-57.5 -23q-28 0 -51.5 19.5t-23.5 49.5q0 32 24 54.5t58 22.5q32 0 53 -20t21 -49zM188 646q0 -20 12.5 -32.5t31.5 -12.5q20 0 32 14t12 33t-11 32t-32 13q-20 0 -32.5 -13.5t-12.5 -33.5zM385 148q0 -37 4.5 -70.5t20.5 -77.5l-40 -10 q-7 14 -13 33t-9 37v0q-21 -25 -62.5 -47.5t-93.5 -22.5q-62 0 -94.5 34t-32.5 82q0 43 23.5 74.5t63.5 52.5t90 32.5t103 15.5v78q0 53 -27 81.5t-84 28.5q-40 0 -79.5 -13.5t-72.5 -35.5l-3 40q31 17 73 31t88 14q72 0 109 -36.5t37 -94.5v-79.5t-0.5 -86t-0.5 -60.5z M108 110q0 -31 21 -57.5t67 -26.5q40 0 82 21.5t67 50.5v149q-64 -4 -118 -20.5t-86.5 -45t-32.5 -71.5z" />
<glyph unicode="&#xe6;" horiz-adv-x="772" d="M704 261l-15 -15h-301q1 -109 47.5 -164.5t119.5 -55.5q39 0 73.5 14t62.5 33l4 -36q-19 -15 -57.5 -31t-88.5 -16q-58 0 -103 27.5t-71 78.5q-16 -26 -45 -50.5t-65.5 -40t-76.5 -15.5q-58 0 -90.5 34t-32.5 83q0 43 23.5 74t63.5 52t90 32.5t103 15.5v78q0 53 -27 81.5 t-84 28.5q-40 0 -79.5 -13.5t-72.5 -35.5l-3 40q31 17 73 31t88 14q62 0 98 -27.5t45 -72.5q29 50 72.5 75t92.5 25q71 0 114 -49.5t43 -133.5v-30t-1 -31zM544 469q-38 0 -71.5 -21t-56 -63.5t-27.5 -108.5l273 7q1 9 1 18v18q0 69 -31.5 109.5t-87.5 40.5zM108 110 q0 -31 21 -57.5t67 -26.5q34 0 67 14t59.5 36t41.5 48q-19 52 -19 118v5q-64 -4 -118 -20.5t-86.5 -45t-32.5 -71.5z" />
<glyph unicode="&#xe7;" horiz-adv-x="475" d="M354 -123q0 -37 -37 -59.5t-87 -29.5l-6 22q41 10 64.5 24t23.5 35t-19.5 29.5t-42.5 10.5l-7 11l23 71q-85 5 -138 68.5t-53 183.5q0 129 61.5 195.5t158.5 66.5q71 0 125 -30l-12 -40q-21 14 -51 24t-65 10q-77 0 -125.5 -55t-48.5 -165q0 -101 43 -162t123 -61 q40 0 75 13.5t56 27.5l5 -36q-25 -17 -57 -28t-67 -13l-17 -52q32 -5 53.5 -20t21.5 -41z" />
<glyph unicode="&#xe8;" horiz-adv-x="502" d="M345 580q-50 32 -90 68.5t-72 82.5l3 8l39 16q23 -41 58 -82.5t72 -79.5zM434 261l-15 -15h-301q1 -109 47.5 -164.5t119.5 -55.5q39 0 73.5 14t62.5 33l4 -36q-19 -15 -57.5 -31t-88.5 -16q-91 0 -147.5 66t-56.5 186q0 88 29 146t75.5 87.5t98.5 29.5q71 0 114 -49.5 t43 -133.5v-30t-1 -31zM274 469q-38 0 -71.5 -21t-56 -63.5t-27.5 -108.5l273 7q1 9 1 18v18q0 69 -31.5 109.5t-87.5 40.5z" />
<glyph unicode="&#xe9;" horiz-adv-x="502" d="M352 736l3 -8q-31 -46 -71.5 -82.5t-90.5 -68.5l-10 13q38 38 72.5 79.5t57.5 82.5zM434 261l-15 -15h-301q1 -109 47.5 -164.5t119.5 -55.5q39 0 73.5 14t62.5 33l4 -36q-19 -15 -57.5 -31t-88.5 -16q-91 0 -147.5 66t-56.5 186q0 88 29 146t75.5 87.5t98.5 29.5 q71 0 114 -49.5t43 -133.5v-30t-1 -31zM274 469q-38 0 -71.5 -21t-56 -63.5t-27.5 -108.5l273 7q1 9 1 18v18q0 69 -31.5 109.5t-87.5 40.5z" />
<glyph unicode="&#xea;" horiz-adv-x="502" d="M154 579l-13 11q27 37 52.5 75t47.5 79l43 5q25 -41 53 -81t59 -78l-13 -11q-31 29 -61.5 61t-58.5 65q-51 -64 -109 -126zM434 261l-15 -15h-301q1 -109 47.5 -164.5t119.5 -55.5q39 0 73.5 14t62.5 33l4 -36q-19 -15 -57.5 -31t-88.5 -16q-91 0 -147.5 66t-56.5 186 q0 88 29 146t75.5 87.5t98.5 29.5q71 0 114 -49.5t43 -133.5v-30t-1 -31zM274 469q-38 0 -71.5 -21t-56 -63.5t-27.5 -108.5l273 7q1 9 1 18v18q0 69 -31.5 109.5t-87.5 40.5z" />
<glyph unicode="&#xeb;" horiz-adv-x="502" d="M210 667q0 -18 -8.5 -33.5t-27.5 -15.5q-16 0 -25 12.5t-9 29.5q0 19 10.5 33.5t26.5 14.5t24.5 -11.5t8.5 -29.5zM398 667q0 -18 -8.5 -33.5t-27.5 -15.5q-16 0 -25 12.5t-9 29.5q0 19 10.5 33.5t26.5 14.5t24.5 -11.5t8.5 -29.5zM434 261l-15 -15h-301 q1 -109 47.5 -164.5t119.5 -55.5q39 0 73.5 14t62.5 33l4 -36q-19 -15 -57.5 -31t-88.5 -16q-91 0 -147.5 66t-56.5 186q0 88 29 146t75.5 87.5t98.5 29.5q71 0 114 -49.5t43 -133.5v-30t-1 -31zM274 469q-38 0 -71.5 -21t-56 -63.5t-27.5 -108.5l273 7q1 9 1 18v18 q0 69 -31.5 109.5t-87.5 40.5z" />
<glyph unicode="&#xec;" horiz-adv-x="260" d="M201 580q-50 32 -90 68.5t-72 82.5l3 8l39 16q23 -41 58 -82.5t72 -79.5zM110 0v348q0 43 -1 77t-6 70l42 10l5 -5v-500h-40z" />
<glyph unicode="&#xed;" horiz-adv-x="260" d="M208 736l3 -8q-31 -46 -71.5 -82.5t-90.5 -68.5l-10 13q38 38 72.5 79.5t57.5 82.5zM110 0v348q0 43 -1 77t-6 70l42 10l5 -5v-500h-40z" />
<glyph unicode="&#xee;" horiz-adv-x="260" d="M37 586l-10 10q19 38 36.5 76t33.5 78l43 5q19 -40 39.5 -80t42.5 -79l-10 -10q-24 28 -47.5 59t-45.5 62l-40 -62t-42 -59zM110 0v348q0 43 -1 77t-6 70l42 10l5 -5v-500h-40z" />
<glyph unicode="&#xef;" horiz-adv-x="260" d="M92 670q0 -18 -8.5 -33.5t-27.5 -15.5q-16 0 -25 12.5t-9 29.5q0 19 10.5 33.5t26.5 14.5t24.5 -11.5t8.5 -29.5zM228 670q0 -18 -8.5 -33.5t-27.5 -15.5q-16 0 -25 12.5t-9 29.5q0 19 10.5 33.5t26.5 14.5t24.5 -11.5t8.5 -29.5zM110 0v348q0 43 -1 77t-6 70l42 10l5 -5 v-500h-40z" />
<glyph unicode="&#xf0;" horiz-adv-x="566" d="M288 -10q-58 0 -102.5 30.5t-70 87.5t-25.5 136q0 87 29 145t76.5 87t102.5 29q42 0 76.5 -16t59.5 -44q-33 101 -113 183l-142 -82l-18 29l135 77q-48 43 -107 76l18 27q70 -34 124 -83l129 74l17 -28l-121 -70q67 -71 103.5 -168t36.5 -219q0 -93 -29 -153t-76 -89 t-103 -29zM296 469q-69 0 -116 -55.5t-47 -165.5q0 -65 18 -115t53 -78.5t86 -28.5q69 0 116 56t47 165q0 65 -18 115t-53 78.5t-86 28.5z" />
<glyph unicode="&#xf1;" horiz-adv-x="565" d="M209 710q25 0 46.5 -14t42 -28t40.5 -14q21 0 36.5 17.5t26.5 39.5l16 -3q-4 -21 -15 -42.5t-28 -35.5t-41 -14q-25 0 -47 14t-41.5 28t-40.5 14t-36.5 -17t-26.5 -40l-16 3q5 20 15.5 41t27.5 36t41 15zM155 0h-40v350q0 47 -4.5 78t-15.5 64l36 13q7 -17 13 -38t9 -38 q38 36 81 56t90 20q62 0 96.5 -35.5t34.5 -106.5v-363h-40v353q0 116 -100 116q-40 0 -81 -20t-79 -55v-394z" />
<glyph unicode="&#xf2;" horiz-adv-x="556" d="M354 580q-50 32 -90 68.5t-72 82.5l3 8l39 16q23 -41 58 -82.5t72 -79.5zM481 251q0 -86 -29 -144.5t-76 -87.5t-103 -29q-58 0 -102.5 30.5t-70 87.5t-25.5 136q0 87 29 145t76.5 87t102.5 29q58 0 102.5 -30.5t70 -87t25.5 -136.5zM118 248q0 -65 18 -115t53.5 -78.5 t85.5 -28.5q69 0 116 56t47 165q0 65 -18 115t-53 78.5t-86 28.5q-69 0 -116 -55.5t-47 -165.5z" />
<glyph unicode="&#xf3;" horiz-adv-x="556" d="M361 736l3 -8q-31 -46 -71.5 -82.5t-90.5 -68.5l-10 13q38 38 72.5 79.5t57.5 82.5zM481 251q0 -86 -29 -144.5t-76 -87.5t-103 -29q-58 0 -102.5 30.5t-70 87.5t-25.5 136q0 87 29 145t76.5 87t102.5 29q58 0 102.5 -30.5t70 -87t25.5 -136.5zM118 248q0 -65 18 -115 t53.5 -78.5t85.5 -28.5q69 0 116 56t47 165q0 65 -18 115t-53 78.5t-86 28.5q-69 0 -116 -55.5t-47 -165.5z" />
<glyph unicode="&#xf4;" horiz-adv-x="556" d="M163 579l-13 11q27 37 52.5 75t47.5 79l43 5q25 -41 53 -81t59 -78l-13 -11q-31 29 -61.5 61t-58.5 65q-51 -64 -109 -126zM481 251q0 -86 -29 -144.5t-76 -87.5t-103 -29q-58 0 -102.5 30.5t-70 87.5t-25.5 136q0 87 29 145t76.5 87t102.5 29q58 0 102.5 -30.5t70 -87 t25.5 -136.5zM118 248q0 -65 18 -115t53.5 -78.5t85.5 -28.5q69 0 116 56t47 165q0 65 -18 115t-53 78.5t-86 28.5q-69 0 -116 -55.5t-47 -165.5z" />
<glyph unicode="&#xf5;" horiz-adv-x="556" d="M212 710q25 0 46.5 -14t42 -28t40.5 -14q21 0 36.5 17.5t26.5 39.5l16 -3q-4 -21 -15 -42.5t-28 -35.5t-41 -14q-25 0 -47 14t-41.5 28t-40.5 14t-36.5 -17t-26.5 -40l-16 3q5 20 15.5 41t27.5 36t41 15zM481 251q0 -86 -29 -144.5t-76 -87.5t-103 -29q-58 0 -102.5 30.5 t-70 87.5t-25.5 136q0 87 29 145t76.5 87t102.5 29q58 0 102.5 -30.5t70 -87t25.5 -136.5zM118 248q0 -65 18 -115t53.5 -78.5t85.5 -28.5q69 0 116 56t47 165q0 65 -18 115t-53 78.5t-86 28.5q-69 0 -116 -55.5t-47 -165.5z" />
<glyph unicode="&#xf6;" horiz-adv-x="556" d="M219 667q0 -18 -8.5 -33.5t-27.5 -15.5q-16 0 -25 12.5t-9 29.5q0 19 10.5 33.5t26.5 14.5t24.5 -11.5t8.5 -29.5zM407 667q0 -18 -8.5 -33.5t-27.5 -15.5q-16 0 -25 12.5t-9 29.5q0 19 10.5 33.5t26.5 14.5t24.5 -11.5t8.5 -29.5zM481 251q0 -86 -29 -144.5t-76 -87.5 t-103 -29q-58 0 -102.5 30.5t-70 87.5t-25.5 136q0 87 29 145t76.5 87t102.5 29q58 0 102.5 -30.5t70 -87t25.5 -136.5zM118 248q0 -65 18 -115t53.5 -78.5t85.5 -28.5q69 0 116 56t47 165q0 65 -18 115t-53 78.5t-86 28.5q-69 0 -116 -55.5t-47 -165.5z" />
<glyph unicode="&#xf7;" d="M324 539q0 -21 -13 -35t-33 -14q-16 0 -26.5 11.5t-10.5 27.5q0 20 14 34.5t33 14.5q15 0 25.5 -11t10.5 -28zM503 328h-450v35q31 1 75.5 1.5t96 1.5t103 1.5t97 0.5h77.5l5 -5zM325 167q0 -21 -13 -35t-33 -14q-16 0 -26.5 11.5t-10.5 27.5q0 20 14 34.5t33 14.5 q15 0 25.5 -11t10.5 -28z" />
<glyph unicode="&#xf8;" horiz-adv-x="556" d="M481 251q0 -86 -29 -144.5t-76 -87.5t-103 -29q-92 0 -147 73l-57 -61l-23 22l63 67q-17 30 -25.5 68.5t-8.5 84.5q0 87 29 145t76.5 87t102.5 29q91 0 146 -71l56 60l24 -22l-62 -67q16 -30 25 -69t9 -85zM118 248q0 -71 22 -124l260 279q-20 31 -50 48.5t-69 17.5 q-69 0 -116 -55.5t-47 -165.5zM438 247q0 73 -22 125l-261 -278q20 -32 50 -50t70 -18q69 0 116 56t47 165z" />
<glyph unicode="&#xf9;" horiz-adv-x="553" d="M351 580q-50 32 -90 68.5t-72 82.5l3 8l39 16q23 -41 58 -82.5t72 -79.5zM110 348q0 44 -1.5 78t-3.5 69l40 10l5 -5v-368q0 -50 24 -78t72 -28q73 0 152 77v392l40 10v-360q0 -47 5 -78t15 -64l-36 -13q-7 17 -13 38t-9 38q-37 -37 -78.5 -56.5t-83.5 -19.5 q-62 0 -95 34t-33 98v226z" />
<glyph unicode="&#xfa;" horiz-adv-x="553" d="M358 736l3 -8q-31 -46 -71.5 -82.5t-90.5 -68.5l-10 13q38 38 72.5 79.5t57.5 82.5zM110 348q0 44 -1.5 78t-3.5 69l40 10l5 -5v-368q0 -50 24 -78t72 -28q73 0 152 77v392l40 10v-360q0 -47 5 -78t15 -64l-36 -13q-7 17 -13 38t-9 38q-37 -37 -78.5 -56.5t-83.5 -19.5 q-62 0 -95 34t-33 98v226z" />
<glyph unicode="&#xfb;" horiz-adv-x="553" d="M160 579l-13 11q27 37 52.5 75t47.5 79l43 5q25 -41 53 -81t59 -78l-13 -11q-31 29 -61.5 61t-58.5 65q-51 -64 -109 -126zM110 348q0 44 -1.5 78t-3.5 69l40 10l5 -5v-368q0 -50 24 -78t72 -28q73 0 152 77v392l40 10v-360q0 -47 5 -78t15 -64l-36 -13q-7 17 -13 38 t-9 38q-37 -37 -78.5 -56.5t-83.5 -19.5q-62 0 -95 34t-33 98v226z" />
<glyph unicode="&#xfc;" horiz-adv-x="553" d="M216 667q0 -18 -8.5 -33.5t-27.5 -15.5q-16 0 -25 12.5t-9 29.5q0 19 10.5 33.5t26.5 14.5t24.5 -11.5t8.5 -29.5zM404 667q0 -18 -8.5 -33.5t-27.5 -15.5q-16 0 -25 12.5t-9 29.5q0 19 10.5 33.5t26.5 14.5t24.5 -11.5t8.5 -29.5zM110 348q0 44 -1.5 78t-3.5 69l40 10 l5 -5v-368q0 -50 24 -78t72 -28q73 0 152 77v392l40 10v-360q0 -47 5 -78t15 -64l-36 -13q-7 17 -13 38t-9 38q-37 -37 -78.5 -56.5t-83.5 -19.5q-62 0 -95 34t-33 98v226z" />
<glyph unicode="&#xfd;" horiz-adv-x="447" d="M312 736l3 -8q-31 -46 -71.5 -82.5t-90.5 -68.5l-10 13q38 38 72.5 79.5t57.5 82.5zM427 495l-188 -500q-23 -63 -56 -116.5t-73 -88.5t-87 -45l-8 47q60 11 107.5 64t87.5 162v1l-180 482l40 4l87 -233q24 -62 37.5 -99.5t21.5 -64t13 -57.5h1q7 31 15 57.5t22 64 t37 99.5l87 233l31 -5z" />
<glyph unicode="&#xfe;" horiz-adv-x="558" d="M110 598q0 44 -2 77.5t-5 69.5l42 10l5 -5v-299q24 23 60 38.5t76 15.5q52 0 97 -28.5t72.5 -84t27.5 -138.5q0 -75 -24.5 -135t-70.5 -94.5t-111 -34.5q-37 0 -70.5 10.5t-56.5 23.5v-127q0 -43 1.5 -74.5t5.5 -67.5l-42 -10l-5 5v848zM280 469q-78 0 -130 -63v-346 q24 -13 57 -23.5t67 -10.5q80 0 123 60.5t43 163.5q0 110 -46 164.5t-114 54.5z" />
<glyph unicode="&#xff;" horiz-adv-x="447" d="M170 667q0 -18 -8.5 -33.5t-27.5 -15.5q-16 0 -25 12.5t-9 29.5q0 19 10.5 33.5t26.5 14.5t24.5 -11.5t8.5 -29.5zM358 667q0 -18 -8.5 -33.5t-27.5 -15.5q-16 0 -25 12.5t-9 29.5q0 19 10.5 33.5t26.5 14.5t24.5 -11.5t8.5 -29.5zM427 495l-188 -500q-23 -63 -56 -116.5 t-73 -88.5t-87 -45l-8 47q60 11 107.5 64t87.5 162v1l-180 482l40 4l87 -233q24 -62 37.5 -99.5t21.5 -64t13 -57.5h1q7 31 15 57.5t22 64t37 99.5l87 233l31 -5z" />
<glyph unicode="&#x100;" horiz-adv-x="599" d="M173 817v39h254v-39h-254zM71 0h-41l218 592q10 27 19.5 53.5t15.5 46.5l27 3l5 -5l254 -690h-44l-82 222h-290zM232 437l-66 -179h264l-66 179q-18 50 -36 100.5t-29 99.5h-1q-12 -49 -30 -99.5t-36 -100.5z" />
<glyph unicode="&#x101;" horiz-adv-x="496" d="M100 646v34h264v-34h-264zM385 148q0 -37 4.5 -70.5t20.5 -77.5l-40 -10q-7 14 -13 33t-9 37v0q-21 -25 -62.5 -47.5t-93.5 -22.5q-62 0 -94.5 34t-32.5 82q0 43 23.5 74.5t63.5 52.5t90 32.5t103 15.5v78q0 53 -27 81.5t-84 28.5q-40 0 -79.5 -13.5t-72.5 -35.5l-3 40 q31 17 73 31t88 14q72 0 109 -36.5t37 -94.5v-79.5t-0.5 -86t-0.5 -60.5zM108 110q0 -31 21 -57.5t67 -26.5q40 0 82 21.5t67 50.5v149q-64 -4 -118 -20.5t-86.5 -45t-32.5 -71.5z" />
<glyph unicode="&#x102;" horiz-adv-x="599" d="M396 890l23 -3q-11 -48 -43.5 -75t-78.5 -27q-45 0 -76.5 27t-39.5 75l22 3q11 -29 36.5 -45.5t62.5 -16.5q33 0 58 17t36 45zM71 0h-41l218 592q10 27 19.5 53.5t15.5 46.5l27 3l5 -5l254 -690h-44l-82 222h-290zM232 437l-66 -179h264l-66 179q-18 50 -36 100.5 t-29 99.5h-1q-12 -49 -30 -99.5t-36 -100.5z" />
<glyph unicode="&#x103;" horiz-adv-x="496" d="M328 727l23 -3q-11 -58 -43.5 -90t-78.5 -32q-45 0 -76.5 32t-39.5 90l22 3q11 -38 36.5 -60t62.5 -22q33 0 58 22.5t36 59.5zM385 148q0 -37 4.5 -70.5t20.5 -77.5l-40 -10q-7 14 -13 33t-9 37v0q-21 -25 -62.5 -47.5t-93.5 -22.5q-62 0 -94.5 34t-32.5 82 q0 43 23.5 74.5t63.5 52.5t90 32.5t103 15.5v78q0 53 -27 81.5t-84 28.5q-40 0 -79.5 -13.5t-72.5 -35.5l-3 40q31 17 73 31t88 14q72 0 109 -36.5t37 -94.5v-79.5t-0.5 -86t-0.5 -60.5zM108 110q0 -31 21 -57.5t67 -26.5q40 0 82 21.5t67 50.5v149q-64 -4 -118 -20.5 t-86.5 -45t-32.5 -71.5z" />
<glyph unicode="&#x104;" horiz-adv-x="599" d="M71 0h-41l218 592q10 27 19.5 53.5t15.5 46.5l27 3l5 -5l254 -690q-111 -64 -111 -127q0 -52 56 -52q11 0 24.5 2.5t31.5 9.5l9 -22q-14 -11 -34 -17t-40 -6q-42 0 -65.5 19.5t-23.5 54.5q0 75 111 138h-2l-82 222h-290zM232 437l-66 -179h264l-66 179q-18 50 -36 100.5 t-29 99.5h-1q-12 -49 -30 -99.5t-36 -100.5z" />
<glyph unicode="&#x105;" horiz-adv-x="496" d="M410 0q-111 -64 -111 -127q0 -52 56 -52q11 0 24.5 2.5t31.5 9.5l9 -22q-14 -11 -34 -17t-40 -6q-42 0 -65.5 19.5t-23.5 54.5q0 75 109 137q-6 13 -10.5 29.5t-7.5 31.5v0q-21 -25 -62.5 -47.5t-93.5 -22.5q-62 0 -94.5 34t-32.5 82q0 43 23.5 74.5t63.5 52.5t90 32.5 t103 15.5v78q0 53 -27 81.5t-84 28.5q-40 0 -79.5 -13.5t-72.5 -35.5l-3 40q31 17 73 31t88 14q72 0 109 -36.5t37 -94.5v-79.5t-0.5 -86t-0.5 -60.5q0 -37 4.5 -70.5t20.5 -77.5zM108 110q0 -31 21 -57.5t67 -26.5q40 0 82 21.5t67 50.5v149q-64 -4 -118 -20.5t-86.5 -45 t-32.5 -71.5z" />
<glyph unicode="&#x106;" horiz-adv-x="598" d="M463 865l-1 -8q-50 -31 -105.5 -49.5t-118.5 -28.5l-7 17q56 20 108.5 45t93.5 55zM532 86l6 -38q-35 -28 -86.5 -43t-100.5 -15q-79 0 -140 39.5t-96 116t-35 186.5q0 114 36.5 195.5t100.5 124.5t144 43q43 0 89.5 -11t80.5 -34l-9 -42q-27 22 -69 35.5t-89 13.5 q-67 0 -121 -36.5t-86 -107.5t-32 -175q0 -89 27 -159t79 -110.5t128 -40.5q48 0 93.5 16.5t79.5 41.5z" />
<glyph unicode="&#x107;" horiz-adv-x="475" d="M365 736l3 -8q-31 -46 -71.5 -82.5t-90.5 -68.5l-10 13q38 38 72.5 79.5t57.5 82.5zM420 475l-12 -40q-21 14 -51 24t-65 10q-77 0 -125.5 -55t-48.5 -165q0 -101 43 -162t123 -61q40 0 75 13.5t56 27.5l5 -36q-27 -19 -63 -30t-75 -11q-91 0 -149 64t-58 189 q0 129 61.5 195.5t158.5 66.5q71 0 125 -30z" />
<glyph unicode="&#x108;" horiz-adv-x="598" d="M219 770l-13 13q32 29 60 58t53 60l43 5q28 -32 59.5 -63t65.5 -60l-13 -13q-73 47 -133 97q-28 -25 -58.5 -49.5t-63.5 -47.5zM532 86l6 -38q-35 -28 -86.5 -43t-100.5 -15q-79 0 -140 39.5t-96 116t-35 186.5q0 114 36.5 195.5t100.5 124.5t144 43q43 0 89.5 -11 t80.5 -34l-9 -42q-27 22 -69 35.5t-89 13.5q-67 0 -121 -36.5t-86 -107.5t-32 -175q0 -89 27 -159t79 -110.5t128 -40.5q48 0 93.5 16.5t79.5 41.5z" />
<glyph unicode="&#x109;" horiz-adv-x="475" d="M167 579l-13 11q27 37 52.5 75t47.5 79l43 5q25 -41 53 -81t59 -78l-13 -11q-31 29 -61.5 61t-58.5 65q-51 -64 -109 -126zM420 475l-12 -40q-21 14 -51 24t-65 10q-77 0 -125.5 -55t-48.5 -165q0 -101 43 -162t123 -61q40 0 75 13.5t56 27.5l5 -36q-27 -19 -63 -30 t-75 -11q-91 0 -149 64t-58 189q0 129 61.5 195.5t158.5 66.5q71 0 125 -30z" />
<glyph unicode="&#x10a;" horiz-adv-x="598" d="M387 846q0 -16 -9.5 -29.5t-31.5 -13.5q-19 0 -29 11.5t-10 27.5q0 17 11.5 30t30.5 13t28.5 -11t9.5 -28zM532 86l6 -38q-35 -28 -86.5 -43t-100.5 -15q-79 0 -140 39.5t-96 116t-35 186.5q0 114 36.5 195.5t100.5 124.5t144 43q43 0 89.5 -11t80.5 -34l-9 -42 q-27 22 -69 35.5t-89 13.5q-67 0 -121 -36.5t-86 -107.5t-32 -175q0 -89 27 -159t79 -110.5t128 -40.5q48 0 93.5 16.5t79.5 41.5z" />
<glyph unicode="&#x10b;" horiz-adv-x="475" d="M318 668q0 -17 -8.5 -32t-28.5 -15q-16 0 -25.5 12.5t-9.5 30.5t10.5 32.5t27.5 14.5t25.5 -12t8.5 -31zM420 475l-12 -40q-21 14 -51 24t-65 10q-77 0 -125.5 -55t-48.5 -165q0 -101 43 -162t123 -61q40 0 75 13.5t56 27.5l5 -36q-27 -19 -63 -30t-75 -11q-91 0 -149 64 t-58 189q0 129 61.5 195.5t158.5 66.5q71 0 125 -30z" />
<glyph unicode="&#x10c;" horiz-adv-x="598" d="M474 906l13 -13q-32 -28 -59.5 -57t-53.5 -61l-43 -5q-28 32 -59 63t-66 60l13 13q73 -47 133 -97q28 25 58.5 49.5t63.5 47.5zM532 86l6 -38q-35 -28 -86.5 -43t-100.5 -15q-79 0 -140 39.5t-96 116t-35 186.5q0 114 36.5 195.5t100.5 124.5t144 43q43 0 89.5 -11 t80.5 -34l-9 -42q-27 22 -69 35.5t-89 13.5q-67 0 -121 -36.5t-86 -107.5t-32 -175q0 -89 27 -159t79 -110.5t128 -40.5q48 0 93.5 16.5t79.5 41.5z" />
<glyph unicode="&#x10d;" horiz-adv-x="475" d="M396 750l13 -11q-27 -37 -52 -75t-48 -79l-43 -5q-25 41 -53 81t-59 78l13 11q31 -29 61.5 -61t58.5 -65q51 64 109 126zM420 475l-12 -40q-21 14 -51 24t-65 10q-77 0 -125.5 -55t-48.5 -165q0 -101 43 -162t123 -61q40 0 75 13.5t56 27.5l5 -36q-27 -19 -63 -30 t-75 -11q-91 0 -149 64t-58 189q0 129 61.5 195.5t158.5 66.5q71 0 125 -30z" />
<glyph unicode="&#x10e;" horiz-adv-x="677" d="M453 906l13 -13q-32 -28 -59.5 -57t-53.5 -61l-43 -5q-28 32 -59 63t-66 60l13 13q73 -47 133 -97q28 25 58.5 49.5t63.5 47.5zM597 344q0 -108 -42 -185t-118 -118t-177 -41h-145v538q0 44 -1.5 78t-5.5 69h162q89 0 163.5 -40.5t119 -116.5t44.5 -184zM264 649h-107 v-613h101q142 0 218 80t76 226q0 97 -36.5 165.5t-101 105t-150.5 36.5z" />
<glyph unicode="&#x10f;" horiz-adv-x="558" d="M401 745l42 10l5 -5v-608q0 -38 5.5 -71t20.5 -71l-40 -10q-7 14 -12.5 33t-9.5 36q-18 -26 -52.5 -47.5t-86.5 -21.5q-58 0 -102.5 30.5t-70 87t-25.5 133.5q0 87 31 146t82.5 88.5t111.5 29.5q34 0 62 -8t46 -17v118q0 44 -1 77.5t-6 69.5zM614 755l6 -6 q-4 -56 -20.5 -107.5t-43.5 -104.5l-16 6q14 53 23.5 106t8.5 100zM118 243q0 -103 44 -160t116 -57q48 0 79.5 22t50.5 48v347q-24 12 -55 19t-58 7q-47 0 -87.5 -24t-65 -73.5t-24.5 -128.5z" />
<glyph unicode="&#x110;" horiz-adv-x="677" d="M597 344q0 -108 -42 -185t-118 -118t-177 -41h-145v328h-96v30h96v180q0 44 -1.5 78t-5.5 69h162q89 0 163.5 -40.5t119 -116.5t44.5 -184zM379 328h-222v-292h101q142 0 218 80t76 226q0 97 -36.5 165.5t-101 105t-150.5 36.5h-107v-291h222v-30z" />
<glyph unicode="&#x111;" horiz-adv-x="558" d="M552 597h-104v-455q0 -38 5.5 -71t20.5 -71l-40 -10q-7 14 -12.5 33t-9.5 36q-18 -26 -52.5 -47.5t-86.5 -21.5q-58 0 -102.5 30.5t-70 87t-25.5 133.5q0 87 31 146t82.5 88.5t111.5 29.5q34 0 62 -8t46 -17v117h-216v30h216q0 33 -1.5 60.5t-5.5 57.5l42 10l5 -5v-123 h104v-30zM118 243q0 -103 44 -160t116 -57q48 0 79.5 22t50.5 48v347q-24 12 -55 19t-58 7q-47 0 -87.5 -24t-65 -73.5t-24.5 -128.5z" />
<glyph unicode="&#x112;" horiz-adv-x="510" d="M155 817v39h254v-39h-254zM465 39v-39h-350v538q0 44 -1.5 78t-5.5 69h342l5 -5v-34l-298 4v-292l256 2v-39l-256 2v-288z" />
<glyph unicode="&#x113;" horiz-adv-x="502" d="M137 646v34h264v-34h-264zM434 261l-15 -15h-301q1 -109 47.5 -164.5t119.5 -55.5q39 0 73.5 14t62.5 33l4 -36q-19 -15 -57.5 -31t-88.5 -16q-91 0 -147.5 66t-56.5 186q0 88 29 146t75.5 87.5t98.5 29.5q71 0 114 -49.5t43 -133.5v-30t-1 -31zM274 469q-38 0 -71.5 -21 t-56 -63.5t-27.5 -108.5l273 7q1 9 1 18v18q0 69 -31.5 109.5t-87.5 40.5z" />
<glyph unicode="&#x114;" horiz-adv-x="510" d="M378 890l23 -3q-11 -48 -43.5 -75t-78.5 -27q-45 0 -76.5 27t-39.5 75l22 3q11 -29 36.5 -45.5t62.5 -16.5q33 0 58 17t36 45zM465 39v-39h-350v538q0 44 -1.5 78t-5.5 69h342l5 -5v-34l-298 4v-292l256 2v-39l-256 2v-288z" />
<glyph unicode="&#x115;" horiz-adv-x="502" d="M365 727l23 -3q-11 -58 -43.5 -90t-78.5 -32q-45 0 -76.5 32t-39.5 90l22 3q11 -38 36.5 -60t62.5 -22q33 0 58 22.5t36 59.5zM434 261l-15 -15h-301q1 -109 47.5 -164.5t119.5 -55.5q39 0 73.5 14t62.5 33l4 -36q-19 -15 -57.5 -31t-88.5 -16q-91 0 -147.5 66t-56.5 186 q0 88 29 146t75.5 87.5t98.5 29.5q71 0 114 -49.5t43 -133.5v-30t-1 -31zM274 469q-38 0 -71.5 -21t-56 -63.5t-27.5 -108.5l273 7q1 9 1 18v18q0 69 -31.5 109.5t-87.5 40.5z" />
<glyph unicode="&#x116;" horiz-adv-x="510" d="M322 846q0 -16 -9.5 -29.5t-31.5 -13.5q-19 0 -29 11.5t-10 27.5q0 17 11.5 30t30.5 13t28.5 -11t9.5 -28zM465 39v-39h-350v538q0 44 -1.5 78t-5.5 69h342l5 -5v-34l-298 4v-292l256 2v-39l-256 2v-288z" />
<glyph unicode="&#x117;" horiz-adv-x="502" d="M305 668q0 -17 -8.5 -32t-28.5 -15q-16 0 -25.5 12.5t-9.5 30.5t10.5 32.5t27.5 14.5t25.5 -12t8.5 -31zM434 261l-15 -15h-301q1 -109 47.5 -164.5t119.5 -55.5q39 0 73.5 14t62.5 33l4 -36q-19 -15 -57.5 -31t-88.5 -16q-91 0 -147.5 66t-56.5 186q0 88 29 146 t75.5 87.5t98.5 29.5q71 0 114 -49.5t43 -133.5v-30t-1 -31zM274 469q-38 0 -71.5 -21t-56 -63.5t-27.5 -108.5l273 7q1 9 1 18v18q0 69 -31.5 109.5t-87.5 40.5z" />
<glyph unicode="&#x118;" horiz-adv-x="510" d="M465 0q-111 -64 -111 -127q0 -52 56 -52q11 0 24.5 2.5t31.5 9.5l9 -22q-14 -11 -34 -17t-40 -6q-42 0 -65.5 19.5t-23.5 54.5q0 75 111 138h-308v538q0 44 -1.5 78t-5.5 69h342l5 -5v-34l-298 4v-292l256 2v-39l-256 2v-288l308 4v-39z" />
<glyph unicode="&#x119;" horiz-adv-x="507" d="M434 261l-15 -15h-301q1 -109 47.5 -164.5t119.5 -55.5q39 0 73.5 14t62.5 33l4 -36q-2 -1 -4 -3q-61 -45 -91.5 -83t-30.5 -75q0 -25 14.5 -40t42.5 -15q10 0 23.5 2.5t31.5 9.5l9 -22q-14 -11 -34.5 -17t-41.5 -6q-40 0 -63.5 20.5t-23.5 54.5q0 32 20 67t59 67 q-13 -3 -27.5 -5t-29.5 -2q-91 0 -147.5 66t-56.5 186q0 88 29 146t75.5 87.5t98.5 29.5q71 0 114 -49.5t43 -133.5v-30t-1 -31zM274 469q-38 0 -71.5 -21t-56 -63.5t-27.5 -108.5l273 7q1 9 1 18v18q0 69 -31.5 109.5t-87.5 40.5z" />
<glyph unicode="&#x11a;" horiz-adv-x="510" d="M409 906l13 -13q-32 -28 -59.5 -57t-53.5 -61l-43 -5q-28 32 -59 63t-66 60l13 13q73 -47 133 -97q28 25 58.5 49.5t63.5 47.5zM465 39v-39h-350v538q0 44 -1.5 78t-5.5 69h342l5 -5v-34l-298 4v-292l256 2v-39l-256 2v-288z" />
<glyph unicode="&#x11b;" horiz-adv-x="502" d="M383 750l13 -11q-27 -37 -52 -75t-48 -79l-43 -5q-25 41 -53 81t-59 78l13 11q31 -29 61.5 -61t58.5 -65q51 64 109 126zM434 261l-15 -15h-301q1 -109 47.5 -164.5t119.5 -55.5q39 0 73.5 14t62.5 33l4 -36q-19 -15 -57.5 -31t-88.5 -16q-91 0 -147.5 66t-56.5 186 q0 88 29 146t75.5 87.5t98.5 29.5q71 0 114 -49.5t43 -133.5v-30t-1 -31zM274 469q-38 0 -71.5 -21t-56 -63.5t-27.5 -108.5l273 7q1 9 1 18v18q0 69 -31.5 109.5t-87.5 40.5z" />
<glyph unicode="&#x11c;" horiz-adv-x="651" d="M219 770l-13 13q32 29 60 58t53 60l43 5q28 -32 59.5 -63t65.5 -60l-13 -13q-73 47 -133 97q-28 -25 -58.5 -49.5t-63.5 -47.5zM556 288l5 -5l-2 -242q-26 -17 -62 -28.5t-73.5 -17t-68.5 -5.5q-82 0 -144 40t-96.5 116.5t-34.5 185.5q0 114 37 195.5t104.5 124.5 t158.5 43q43 0 84.5 -9.5t73.5 -28.5l-9 -42q-25 18 -62.5 30t-84.5 12q-76 0 -134 -36.5t-90.5 -107.5t-32.5 -174q0 -90 26.5 -160t79.5 -110.5t132 -40.5q36 0 77 8.5t77 24.5v70q0 44 -1.5 78t-5.5 69z" />
<glyph unicode="&#x11d;" horiz-adv-x="474" d="M112 579l-13 11q27 37 52.5 75t47.5 79l43 5q25 -41 53 -81t59 -78l-13 -11q-31 29 -61.5 61t-58.5 65q-51 -64 -109 -126zM123 84q0 22 9 41.5t24 34.5q-43 19 -68.5 60t-25.5 100q0 50 18.5 92t55 67.5t89.5 25.5q31 0 55.5 -9.5t39.5 -20.5q20 13 49.5 21.5t56.5 8.5 h7v-47h-93q18 -19 32 -50.5t14 -76.5q0 -50 -18.5 -92t-54 -67.5t-88.5 -25.5q-20 0 -39 4q-11 -11 -17 -25.5t-6 -32.5q0 -23 13.5 -37t48.5 -17l81 -6q35 -2 66.5 -14t51.5 -37t20 -66q0 -42 -24.5 -81t-73 -64t-120.5 -25q-91 0 -143.5 39.5t-52.5 95.5q0 37 18.5 61 t32.5 34l23 -11q-11 -13 -22 -32.5t-11 -43.5q0 -41 40 -74.5t118 -33.5q80 0 127 37t47 90q0 41 -28.5 63.5t-73.5 25.5l-73 5q-55 4 -80 26.5t-25 56.5zM344 323q0 67 -30.5 107t-89.5 40q-60 0 -90 -38t-30 -106q0 -65 30.5 -105t91.5 -40q59 0 88.5 38t29.5 104z" />
<glyph unicode="&#x11e;" horiz-adv-x="651" d="M443 890l23 -3q-11 -48 -43.5 -75t-78.5 -27q-45 0 -76.5 27t-39.5 75l22 3q11 -29 36.5 -45.5t62.5 -16.5q33 0 58 17t36 45zM556 288l5 -5l-2 -242q-26 -17 -62 -28.5t-73.5 -17t-68.5 -5.5q-82 0 -144 40t-96.5 116.5t-34.5 185.5q0 114 37 195.5t104.5 124.5 t158.5 43q43 0 84.5 -9.5t73.5 -28.5l-9 -42q-25 18 -62.5 30t-84.5 12q-76 0 -134 -36.5t-90.5 -107.5t-32.5 -174q0 -90 26.5 -160t79.5 -110.5t132 -40.5q36 0 77 8.5t77 24.5v70q0 44 -1.5 78t-5.5 69z" />
<glyph unicode="&#x11f;" horiz-adv-x="474" d="M323 727l23 -3q-11 -58 -43.5 -90t-78.5 -32q-45 0 -76.5 32t-39.5 90l22 3q11 -38 36.5 -60t62.5 -22q33 0 58 22.5t36 59.5zM123 84q0 22 9 41.5t24 34.5q-43 19 -68.5 60t-25.5 100q0 50 18.5 92t55 67.5t89.5 25.5q31 0 55.5 -9.5t39.5 -20.5q20 13 49.5 21.5 t56.5 8.5h7v-47h-93q18 -19 32 -50.5t14 -76.5q0 -50 -18.5 -92t-54 -67.5t-88.5 -25.5q-20 0 -39 4q-11 -11 -17 -25.5t-6 -32.5q0 -23 13.5 -37t48.5 -17l81 -6q35 -2 66.5 -14t51.5 -37t20 -66q0 -42 -24.5 -81t-73 -64t-120.5 -25q-91 0 -143.5 39.5t-52.5 95.5 q0 37 18.5 61t32.5 34l23 -11q-11 -13 -22 -32.5t-11 -43.5q0 -41 40 -74.5t118 -33.5q80 0 127 37t47 90q0 41 -28.5 63.5t-73.5 25.5l-73 5q-55 4 -80 26.5t-25 56.5zM344 323q0 67 -30.5 107t-89.5 40q-60 0 -90 -38t-30 -106q0 -65 30.5 -105t91.5 -40q59 0 88.5 38 t29.5 104z" />
<glyph unicode="&#x120;" horiz-adv-x="651" d="M387 846q0 -16 -9.5 -29.5t-31.5 -13.5q-19 0 -29 11.5t-10 27.5q0 17 11.5 30t30.5 13t28.5 -11t9.5 -28zM556 288l5 -5l-2 -242q-26 -17 -62 -28.5t-73.5 -17t-68.5 -5.5q-82 0 -144 40t-96.5 116.5t-34.5 185.5q0 114 37 195.5t104.5 124.5t158.5 43q43 0 84.5 -9.5 t73.5 -28.5l-9 -42q-25 18 -62.5 30t-84.5 12q-76 0 -134 -36.5t-90.5 -107.5t-32.5 -174q0 -90 26.5 -160t79.5 -110.5t132 -40.5q36 0 77 8.5t77 24.5v70q0 44 -1.5 78t-5.5 69z" />
<glyph unicode="&#x121;" horiz-adv-x="474" d="M263 668q0 -17 -8.5 -32t-28.5 -15q-16 0 -25.5 12.5t-9.5 30.5t10.5 32.5t27.5 14.5t25.5 -12t8.5 -31zM123 84q0 22 9 41.5t24 34.5q-43 19 -68.5 60t-25.5 100q0 50 18.5 92t55 67.5t89.5 25.5q31 0 55.5 -9.5t39.5 -20.5q20 13 49.5 21.5t56.5 8.5h7v-47h-93 q18 -19 32 -50.5t14 -76.5q0 -50 -18.5 -92t-54 -67.5t-88.5 -25.5q-20 0 -39 4q-11 -11 -17 -25.5t-6 -32.5q0 -23 13.5 -37t48.5 -17l81 -6q35 -2 66.5 -14t51.5 -37t20 -66q0 -42 -24.5 -81t-73 -64t-120.5 -25q-91 0 -143.5 39.5t-52.5 95.5q0 37 18.5 61t32.5 34 l23 -11q-11 -13 -22 -32.5t-11 -43.5q0 -41 40 -74.5t118 -33.5q80 0 127 37t47 90q0 41 -28.5 63.5t-73.5 25.5l-73 5q-55 4 -80 26.5t-25 56.5zM344 323q0 67 -30.5 107t-89.5 40q-60 0 -90 -38t-30 -106q0 -65 30.5 -105t91.5 -40q59 0 88.5 38t29.5 104z" />
<glyph unicode="&#x122;" horiz-adv-x="651" d="M556 288l5 -5l-2 -242q-26 -17 -62 -28.5t-73.5 -17t-68.5 -5.5q-82 0 -144 40t-96.5 116.5t-34.5 185.5q0 114 37 195.5t104.5 124.5t158.5 43q43 0 84.5 -9.5t73.5 -28.5l-9 -42q-25 18 -62.5 30t-84.5 12q-76 0 -134 -36.5t-90.5 -107.5t-32.5 -174q0 -90 26.5 -160 t79.5 -110.5t132 -40.5q36 0 77 8.5t77 24.5v70q0 44 -1.5 78t-5.5 69zM335 -306q12 25 21 48t14 46h-2q-16 0 -26.5 13t-10.5 30t10 32.5t31 15.5q19 0 29 -13t10 -36q0 -34 -17 -74t-39 -73z" />
<glyph unicode="&#x123;" horiz-adv-x="474" d="M261 759q-12 -25 -21 -48t-14 -46h2q17 0 27 -13t10 -30q0 -16 -10 -32t-31 -16q-19 0 -29 13.5t-10 35.5q0 35 17 74.5t39 72.5zM123 84q0 22 9 41.5t24 34.5q-43 19 -68.5 60t-25.5 100q0 50 18.5 92t55 67.5t89.5 25.5q31 0 55.5 -9.5t39.5 -20.5q20 13 49.5 21.5 t56.5 8.5h7v-47h-93q18 -19 32 -50.5t14 -76.5q0 -50 -18.5 -92t-54 -67.5t-88.5 -25.5q-20 0 -39 4q-11 -11 -17 -25.5t-6 -32.5q0 -23 13.5 -37t48.5 -17l81 -6q35 -2 66.5 -14t51.5 -37t20 -66q0 -42 -24.5 -81t-73 -64t-120.5 -25q-91 0 -143.5 39.5t-52.5 95.5 q0 37 18.5 61t32.5 34l23 -11q-11 -13 -22 -32.5t-11 -43.5q0 -41 40 -74.5t118 -33.5q80 0 127 37t47 90q0 41 -28.5 63.5t-73.5 25.5l-73 5q-55 4 -80 26.5t-25 56.5zM344 323q0 67 -30.5 107t-89.5 40q-60 0 -90 -38t-30 -106q0 -65 30.5 -105t91.5 -40q59 0 88.5 38 t29.5 104z" />
<glyph unicode="&#x124;" horiz-adv-x="701" d="M223 770l-13 13q32 29 60 58t53 60l43 5q28 -32 59.5 -63t65.5 -60l-13 -13q-73 47 -133 97q-28 -25 -58.5 -49.5t-63.5 -47.5zM157 0h-42v538q0 44 -1.5 78t-5.5 69l44 10l5 -5v-331h387v179q0 44 -1.5 78t-5.5 69l44 10l5 -5v-690h-42v323h-387v-323z" />
<glyph unicode="&#x125;" d="M3 799l-13 13q32 29 60 58t53 60l43 5q28 -32 59.5 -63t65.5 -60l-13 -13q-73 47 -133 97q-28 -25 -58.5 -49.5t-63.5 -47.5zM150 0h-40v598q0 44 -1 77.5t-6 69.5l42 10l5 -5v-319q38 35 80.5 54.5t88.5 19.5q62 0 96.5 -35.5t34.5 -106.5v-363h-40v353q0 116 -100 116 q-40 0 -81 -19.5t-79 -53.5v-396z" />
<glyph unicode="&#x126;" horiz-adv-x="701" d="M157 0h-42v498h-74v30h74v10q0 44 -1.5 78t-5.5 69l44 10l5 -5v-162h387v10q0 44 -1.5 78t-5.5 69l44 10l5 -5v-162h75v-30h-75v-498h-42v323h-387v-323zM157 359h387v139h-387v-139z" />
<glyph unicode="&#x127;" d="M150 0h-40v591h-97v30h97q0 35 -1.5 64t-5.5 60l42 10l5 -5v-129h223v-30h-223v-160q38 35 80.5 54.5t88.5 19.5q62 0 96.5 -35.5t34.5 -106.5v-363h-40v353q0 116 -100 116q-40 0 -81 -19.5t-79 -53.5v-396z" />
<glyph unicode="&#x128;" horiz-adv-x="272" d="M65 890q28 0 51 -14t45 -28t45 -14q25 0 42 17.5t28 39.5l16 -3q-5 -34 -28 -63t-63 -29q-28 0 -51.5 14t-44.5 28t-45 14q-25 0 -42 -17t-28 -40l-16 3q4 20 15 41t30 36t46 15zM157 0h-42v538q0 44 -1.5 78t-5.5 69l44 10l5 -5v-690z" />
<glyph unicode="&#x129;" horiz-adv-x="260" d="M80 714q20 0 36 -14t30 -28t29 -14q17 0 29 17.5t19 39.5l16 -3q-1 -19 -10 -40.5t-24 -36.5t-35 -15t-36 14t-30 28t-29 14q-17 0 -28.5 -17t-19.5 -40l-16 3q2 19 11 40.5t23.5 36.5t34.5 15zM110 0v348q0 43 -1 77t-6 70l42 10l5 -5v-500h-40z" />
<glyph unicode="&#x12a;" horiz-adv-x="272" d="M6 817v39h254v-39h-254zM157 0h-42v538q0 44 -1.5 78t-5.5 69l44 10l5 -5v-690z" />
<glyph unicode="&#x12b;" horiz-adv-x="260" d="M26 646v34h198v-34h-198zM110 0v348q0 43 -1 77t-6 70l42 10l5 -5v-500h-40z" />
<glyph unicode="&#x12c;" horiz-adv-x="272" d="M229 890l23 -3q-11 -48 -43.5 -75t-78.5 -27q-45 0 -76.5 27t-39.5 75l22 3q11 -29 36.5 -45.5t62.5 -16.5q33 0 58 17t36 45zM157 0h-42v538q0 44 -1.5 78t-5.5 69l44 10l5 -5v-690z" />
<glyph unicode="&#x12d;" horiz-adv-x="260" d="M206 730l23 -3q-10 -58 -38 -90t-69 -32q-39 0 -66 32t-35 90l22 3q9 -38 31 -60t53 -22q28 0 48.5 22.5t30.5 59.5zM110 0v348q0 43 -1 77t-6 70l42 10l5 -5v-500h-40z" />
<glyph unicode="&#x12e;" horiz-adv-x="242" d="M142 0q-28 -32 -44.5 -63.5t-16.5 -63.5q0 -52 56 -52q11 0 24.5 2.5t31.5 9.5l9 -22q-29 -23 -76 -23q-40 0 -63.5 20t-23.5 58q0 35 20 71t56 69v532q0 44 -1.5 78t-5.5 69l44 10l5 -5v-690h-15z" />
<glyph unicode="&#x12f;" horiz-adv-x="260" d="M161 668q0 -17 -8.5 -32t-28.5 -15q-16 0 -25.5 12.5t-9.5 30.5t10.5 32.5t27.5 14.5t25.5 -12t8.5 -31zM110 0v348q0 43 -1 77t-6 70l42 10l5 -5v-500q-64 -63 -64 -118q0 -28 15.5 -44.5t45.5 -16.5q11 0 23 2.5t28 9.5l9 -22q-14 -11 -34 -17t-40 -6q-42 0 -65.5 24 t-23.5 63q0 60 72 125h-6z" />
<glyph unicode="&#x130;" horiz-adv-x="272" d="M173 846q0 -16 -9.5 -29.5t-31.5 -13.5q-19 0 -29 11.5t-10 27.5q0 17 11.5 30t30.5 13t28.5 -11t9.5 -28zM157 0h-42v538q0 44 -1.5 78t-5.5 69l44 10l5 -5v-690z" />
<glyph unicode="&#x131;" horiz-adv-x="260" d="M110 0v348q0 43 -1 77t-6 70l42 10l5 -5v-500h-40z" />
<glyph unicode="&#x132;" horiz-adv-x="531" d="M157 0h-42v538q0 44 -1.5 78t-5.5 69l44 10l5 -5v-690zM297 -182l-15 26q39 21 65.5 69t26.5 130v495q0 44 -1.5 78t-5.5 69l44 10l5 -5v-647q0 -93 -31.5 -145.5t-87.5 -79.5z" />
<glyph unicode="&#x133;" horiz-adv-x="520" d="M161 668q0 -17 -8.5 -32t-28.5 -15q-16 0 -25.5 12.5t-9.5 30.5t10.5 32.5t27.5 14.5t25.5 -12t8.5 -31zM421 668q0 -17 -8.5 -32t-28.5 -15q-16 0 -25.5 12.5t-9.5 30.5t10.5 32.5t27.5 14.5t25.5 -12t8.5 -31zM110 0v348q0 43 -1 77t-6 70l42 10l5 -5v-500h-40z M293 -255l-12 25q36 22 62.5 62.5t26.5 107.5v408q0 43 -2 77t-5 70l42 10l5 -5v-551q0 -82 -32.5 -130.5t-84.5 -73.5z" />
<glyph unicode="&#x134;" horiz-adv-x="259" d="M-6 770l-13 13q32 29 60 58t53 60l43 5q28 -32 59.5 -63t65.5 -60l-13 -13q-73 47 -133 97q-28 -25 -58.5 -49.5t-63.5 -47.5zM25 -182l-15 26q39 21 65.5 69t26.5 130v495q0 44 -1.5 78t-5.5 69l44 10l5 -5v-647q0 -93 -31.5 -145.5t-87.5 -79.5z" />
<glyph unicode="&#x135;" horiz-adv-x="260" d="M37 586l-10 10q19 38 36.5 76t33.5 78l43 5q19 -40 39.5 -80t42.5 -79l-10 -10q-24 28 -47.5 59t-45.5 62l-40 -62t-42 -59zM33 -255l-12 25q36 22 62.5 62.5t26.5 107.5v408q0 43 -2 77t-5 70l42 10l5 -5v-551q0 -82 -32.5 -130.5t-84.5 -73.5z" />
<glyph unicode="&#x136;" horiz-adv-x="566" d="M115 538q0 44 -1.5 78t-5.5 69l42 10l5 -5v-331h109l237 336l28 -13l5 -5l-235 -333l257 -344l-41 -10q-62 83 -124 166.5t-124 166.5h-112v-323h-40v538zM261 -306q12 25 21 48t14 46h-2q-16 0 -26.5 13t-10.5 30t10 32.5t31 15.5q19 0 29 -13t10 -36q0 -34 -17 -74 t-39 -73z" />
<glyph unicode="&#x137;" horiz-adv-x="493" d="M110 598q0 44 -1.5 78t-5.5 69l42 10l5 -5v-471h94q40 53 81.5 109.5t84.5 116.5l25 -13l5 -5l-163 -218q46 -68 94 -135t97 -134l-42 -10q-46 64 -90.5 128t-88.5 128h-97v-246h-40v598zM226 -306q12 25 21 48t14 46h-2q-16 0 -26.5 13t-10.5 30t10 32.5t31 15.5 q19 0 29 -13t10 -36q0 -34 -17 -74t-39 -73z" />
<glyph unicode="&#x138;" horiz-adv-x="493" d="M110 348q0 44 -1.5 78t-5.5 69l42 10l5 -5v-221h94q40 53 81.5 109.5t84.5 116.5l25 -13l5 -5l-163 -218q46 -68 94 -135t97 -134l-42 -10q-46 64 -90.5 128t-88.5 128h-97v-246h-40v348z" />
<glyph unicode="&#x139;" horiz-adv-x="482" d="M365 865l-1 -8q-50 -31 -105.5 -49.5t-118.5 -28.5l-7 17q56 20 108.5 45t93.5 55zM457 39v-39h-342v539q0 44 -1.5 77.5t-5.5 68.5l44 10l5 -5v-655z" />
<glyph unicode="&#x13a;" horiz-adv-x="260" d="M251 914l-1 -8q-50 -31 -105.5 -49.5t-118.5 -28.5l-7 17q56 20 108.5 45t93.5 55zM150 0h-40v598q0 44 -1.5 78t-5.5 69l42 10l5 -5v-750z" />
<glyph unicode="&#x13b;" horiz-adv-x="482" d="M457 39v-39h-342v539q0 44 -1.5 77.5t-5.5 68.5l44 10l5 -5v-655zM254 -306q12 25 21 48t14 46h-2q-16 0 -26.5 13t-10.5 30t10 32.5t31 15.5q19 0 29 -13t10 -36q0 -34 -17 -74t-39 -73z" />
<glyph unicode="&#x13c;" horiz-adv-x="260" d="M150 0h-40v598q0 44 -1.5 78t-5.5 69l42 10l5 -5v-750zM94 -306q12 25 21 48t14 46h-2q-16 0 -26.5 13t-10.5 30t10 32.5t31 15.5q19 0 29 -13t10 -36q0 -34 -17 -74t-39 -73z" />
<glyph unicode="&#x13d;" horiz-adv-x="482" d="M352 727l6 -6q-4 -56 -20.5 -107.5t-43.5 -104.5l-16 6q14 53 23.5 106t8.5 100zM457 39v-39h-342v539q0 44 -1.5 77.5t-5.5 68.5l44 10l5 -5v-655z" />
<glyph unicode="&#x13e;" horiz-adv-x="260" d="M150 0h-40v598q0 44 -1.5 78t-5.5 69l42 10l5 -5v-750zM289 755l6 -6q-4 -56 -20.5 -107.5t-43.5 -104.5l-16 6q14 53 23.5 106t8.5 100z" />
<glyph unicode="&#x13f;" horiz-adv-x="482" d="M394 347q0 -20 -13 -33.5t-30 -13.5q-16 0 -28.5 12t-12.5 31q0 20 13 33.5t31 13.5q17 0 28.5 -12t11.5 -31zM457 39v-39h-342v539q0 44 -1.5 77.5t-5.5 68.5l44 10l5 -5v-655z" />
<glyph unicode="&#x140;" horiz-adv-x="503" d="M150 0h-40v598q0 44 -1.5 78t-5.5 69l42 10l5 -5v-750zM428 317q0 -20 -13 -33.5t-30 -13.5q-16 0 -28.5 12t-12.5 31q0 20 13 33.5t31 13.5q17 0 28.5 -12t11.5 -31z" />
<glyph unicode="&#x141;" horiz-adv-x="482" d="M457 39v-39h-342v301l-96 -53l-16 29l112 62v200q0 44 -1.5 77.5t-5.5 68.5l44 10l5 -5v-328l147 82l17 -29l-164 -91v-289z" />
<glyph unicode="&#x142;" horiz-adv-x="260" d="M150 0h-40v382l-118 -65l-16 29l134 74v178q0 44 -1.5 78t-5.5 69l42 10l5 -5v-307l127 70l17 -29l-144 -80v-404z" />
<glyph unicode="&#x143;" horiz-adv-x="701" d="M463 865l-1 -8q-50 -31 -105.5 -49.5t-118.5 -28.5l-7 17q56 20 108.5 45t93.5 55zM349 384q43 -68 77.5 -122.5t64.5 -104.5t56 -106h1q-1 24 -1.5 46t-1 52.5t-1 78.5t-0.5 123v187q0 44 -1.5 78t-5.5 69l44 10l5 -5v-690h-45q-49 78 -97.5 155.5t-97.5 155.5 q-42 68 -75.5 120.5t-61.5 100.5t-55 102h-1q3 -66 3.5 -128t0.5 -124v-382h-42v538q0 44 -1.5 78t-5.5 69l46 10q50 -78 99 -156t96 -155z" />
<glyph unicode="&#x144;" horiz-adv-x="565" d="M358 736l3 -8q-31 -46 -71.5 -82.5t-90.5 -68.5l-10 13q38 38 72.5 79.5t57.5 82.5zM155 0h-40v350q0 47 -4.5 78t-15.5 64l36 13q7 -17 13 -38t9 -38q38 36 81 56t90 20q62 0 96.5 -35.5t34.5 -106.5v-363h-40v353q0 116 -100 116q-40 0 -81 -20t-79 -55v-394z" />
<glyph unicode="&#x145;" horiz-adv-x="701" d="M349 384q43 -68 77.5 -122.5t64.5 -104.5t56 -106h1q-1 24 -1.5 46t-1 52.5t-1 78.5t-0.5 123v187q0 44 -1.5 78t-5.5 69l44 10l5 -5v-690h-45q-49 78 -97.5 155.5t-97.5 155.5q-42 68 -75.5 120.5t-61.5 100.5t-55 102h-1q3 -66 3.5 -128t0.5 -124v-382h-42v538 q0 44 -1.5 78t-5.5 69l46 10q50 -78 99 -156t96 -155zM318 -306q12 25 21 48t14 46h-2q-16 0 -26.5 13t-10.5 30t10 32.5t31 15.5q19 0 29 -13t10 -36q0 -34 -17 -74t-39 -73z" />
<glyph unicode="&#x146;" horiz-adv-x="565" d="M155 0h-40v350q0 47 -4.5 78t-15.5 64l36 13q7 -17 13 -38t9 -38q38 36 81 56t90 20q62 0 96.5 -35.5t34.5 -106.5v-363h-40v353q0 116 -100 116q-40 0 -81 -20t-79 -55v-394zM250 -306q12 25 21 48t14 46h-2q-16 0 -26.5 13t-10.5 30t10 32.5t31 15.5q19 0 29 -13 t10 -36q0 -34 -17 -74t-39 -73z" />
<glyph unicode="&#x147;" horiz-adv-x="701" d="M474 906l13 -13q-32 -28 -59.5 -57t-53.5 -61l-43 -5q-28 32 -59 63t-66 60l13 13q73 -47 133 -97q28 25 58.5 49.5t63.5 47.5zM349 384q43 -68 77.5 -122.5t64.5 -104.5t56 -106h1q-1 24 -1.5 46t-1 52.5t-1 78.5t-0.5 123v187q0 44 -1.5 78t-5.5 69l44 10l5 -5v-690 h-45q-49 78 -97.5 155.5t-97.5 155.5q-42 68 -75.5 120.5t-61.5 100.5t-55 102h-1q3 -66 3.5 -128t0.5 -124v-382h-42v538q0 44 -1.5 78t-5.5 69l46 10q50 -78 99 -156t96 -155z" />
<glyph unicode="&#x148;" horiz-adv-x="565" d="M389 750l13 -11q-27 -37 -52 -75t-48 -79l-43 -5q-25 41 -53 81t-59 78l13 11q31 -29 61.5 -61t58.5 -65q51 64 109 126zM155 0h-40v350q0 47 -4.5 78t-15.5 64l36 13q7 -17 13 -38t9 -38q38 36 81 56t90 20q62 0 96.5 -35.5t34.5 -106.5v-363h-40v353q0 116 -100 116 q-40 0 -81 -20t-79 -55v-394z" />
<glyph unicode="&#x14a;" horiz-adv-x="701" d="M467 -182l-15 26q36 19 61.5 55t29.5 97q-47 77 -98.5 158t-98.5 157q-42 68 -75.5 120.5t-61.5 100.5t-55 102h-1q3 -66 3.5 -128t0.5 -124v-382h-42v538q0 44 -1.5 78t-5.5 69l46 10q50 -78 99 -156t96 -155q43 -68 77.5 -122.5t64.5 -104.5t56 -106h1q-1 24 -1.5 46 t-1 52.5t-1 78.5t-0.5 123v187q0 44 -1.5 78t-5.5 69l44 10l5 -5v-647q0 -93 -31.5 -145.5t-87.5 -79.5z" />
<glyph unicode="&#x14b;" horiz-adv-x="565" d="M155 0h-40v350q0 47 -4.5 78t-15.5 64l36 13q7 -17 13 -38t9 -38q38 36 81 56t90 20q62 0 96.5 -35.5t34.5 -106.5v-363q0 -67 -20 -116t-52 -87l-19 21q17 26 34 71t17 111v353q0 116 -100 116q-40 0 -81 -20t-79 -55v-394z" />
<glyph unicode="&#x14c;" horiz-adv-x="694" d="M227 817v39h254v-39h-254zM614 344q0 -116 -37.5 -195t-99 -119t-135.5 -40q-73 0 -132.5 39.5t-94.5 116t-35 186.5q0 113 37 194.5t99 125t138 43.5q74 0 133 -41.5t93 -120t34 -189.5zM125 338q0 -94 27 -164t77 -108t117 -38q65 0 115 35.5t79 105.5t29 172 q0 95 -26 166t-74 110.5t-115 39.5q-64 0 -116 -37.5t-82.5 -108.5t-30.5 -173z" />
<glyph unicode="&#x14d;" horiz-adv-x="556" d="M146 646v34h264v-34h-264zM481 251q0 -86 -29 -144.5t-76 -87.5t-103 -29q-58 0 -102.5 30.5t-70 87.5t-25.5 136q0 87 29 145t76.5 87t102.5 29q58 0 102.5 -30.5t70 -87t25.5 -136.5zM118 248q0 -65 18 -115t53.5 -78.5t85.5 -28.5q69 0 116 56t47 165q0 65 -18 115 t-53 78.5t-86 28.5q-69 0 -116 -55.5t-47 -165.5z" />
<glyph unicode="&#x14e;" horiz-adv-x="694" d="M450 890l23 -3q-11 -48 -43.5 -75t-78.5 -27q-45 0 -76.5 27t-39.5 75l22 3q11 -29 36.5 -45.5t62.5 -16.5q33 0 58 17t36 45zM614 344q0 -116 -37.5 -195t-99 -119t-135.5 -40q-73 0 -132.5 39.5t-94.5 116t-35 186.5q0 113 37 194.5t99 125t138 43.5q74 0 133 -41.5 t93 -120t34 -189.5zM125 338q0 -94 27 -164t77 -108t117 -38q65 0 115 35.5t79 105.5t29 172q0 95 -26 166t-74 110.5t-115 39.5q-64 0 -116 -37.5t-82.5 -108.5t-30.5 -173z" />
<glyph unicode="&#x14f;" horiz-adv-x="556" d="M374 727l23 -3q-11 -58 -43.5 -90t-78.5 -32q-45 0 -76.5 32t-39.5 90l22 3q11 -38 36.5 -60t62.5 -22q33 0 58 22.5t36 59.5zM481 251q0 -86 -29 -144.5t-76 -87.5t-103 -29q-58 0 -102.5 30.5t-70 87.5t-25.5 136q0 87 29 145t76.5 87t102.5 29q58 0 102.5 -30.5 t70 -87t25.5 -136.5zM118 248q0 -65 18 -115t53.5 -78.5t85.5 -28.5q69 0 116 56t47 165q0 65 -18 115t-53 78.5t-86 28.5q-69 0 -116 -55.5t-47 -165.5z" />
<glyph unicode="&#x150;" horiz-adv-x="694" d="M355 865l-1 -8q-39 -31 -82 -49.5t-92 -28.5l-7 17q42 20 81.5 45t70.5 55zM535 865l-1 -8q-39 -31 -82 -49.5t-92 -28.5l-7 17q42 20 81.5 45t70.5 55zM614 344q0 -116 -37.5 -195t-99 -119t-135.5 -40q-73 0 -132.5 39.5t-94.5 116t-35 186.5q0 113 37 194.5t99 125 t138 43.5q74 0 133 -41.5t93 -120t34 -189.5zM125 338q0 -94 27 -164t77 -108t117 -38q65 0 115 35.5t79 105.5t29 172q0 95 -26 166t-74 110.5t-115 39.5q-64 0 -116 -37.5t-82.5 -108.5t-30.5 -173z" />
<glyph unicode="&#x151;" horiz-adv-x="556" d="M299 742l3 -8q-31 -46 -69.5 -83.5t-86.5 -70.5l-10 13q38 36 72.5 78t57.5 84zM413 742l3 -8q-31 -46 -69.5 -83.5t-86.5 -70.5l-10 13q38 36 72.5 78t57.5 84zM481 251q0 -86 -29 -144.5t-76 -87.5t-103 -29q-58 0 -102.5 30.5t-70 87.5t-25.5 136q0 87 29 145t76.5 87 t102.5 29q58 0 102.5 -30.5t70 -87t25.5 -136.5zM118 248q0 -65 18 -115t53.5 -78.5t85.5 -28.5q69 0 116 56t47 165q0 65 -18 115t-53 78.5t-86 28.5q-69 0 -116 -55.5t-47 -165.5z" />
<glyph unicode="&#x152;" horiz-adv-x="915" d="M870 39v-39h-457q-34 -10 -71 -10q-73 0 -132.5 39.5t-94.5 116t-35 186.5q0 113 37 194.5t99 125t138 43.5q36 0 69 -10h432l5 -5v-34l-368 3q54 -40 87 -114t35 -177l204 2v-39l-204 2q-4 -104 -39 -176t-89 -111zM125 338q0 -94 27 -164t77 -108t117 -38 q65 0 115 35.5t79 105.5t29 172q0 95 -26 166t-74 110.5t-115 39.5q-64 0 -116 -37.5t-82.5 -108.5t-30.5 -173z" />
<glyph unicode="&#x153;" horiz-adv-x="865" d="M797 261l-15 -15h-301q1 -109 47.5 -164.5t119.5 -55.5q39 0 73.5 14t62.5 33l4 -36q-19 -15 -57.5 -31t-88.5 -16q-66 0 -114.5 37t-69.5 106q-24 -71 -74.5 -107t-110.5 -36q-58 0 -102.5 30.5t-70 87.5t-25.5 136q0 87 29 145t76.5 87t102.5 29q63 0 110 -37.5 t68 -106.5q24 72 73.5 108t106.5 36q71 0 114 -49.5t43 -133.5v-30t-1 -31zM118 248q0 -65 18 -115t53.5 -78.5t85.5 -28.5q69 0 116 56t47 165q0 65 -18 115t-53 78.5t-86 28.5q-69 0 -116 -55.5t-47 -165.5zM637 469q-38 0 -71.5 -21t-56 -63.5t-27.5 -108.5l273 7 q1 9 1 18v18q0 69 -31.5 109.5t-87.5 40.5z" />
<glyph unicode="&#x154;" horiz-adv-x="574" d="M405 865l-1 -8q-50 -31 -105.5 -49.5t-118.5 -28.5l-7 17q56 20 108.5 45t93.5 55zM157 0h-42v538q0 44 -1.5 78t-5.5 69h155q70 0 122 -25.5t81 -71t29 -106.5q0 -71 -39 -117t-105 -65l173 -300l-39 -10q-43 74 -85.5 148.5t-85.5 148.5h-157v-287zM261 650h-104v-328 h100q90 0 141.5 40.5t51.5 119.5q0 47 -19.5 85t-61.5 60.5t-108 22.5z" />
<glyph unicode="&#x155;" horiz-adv-x="373" d="M293 736l3 -8q-31 -46 -71.5 -82.5t-90.5 -68.5l-10 13q38 38 72.5 79.5t57.5 82.5zM155 0h-40v350q0 47 -4.5 78t-15.5 64l36 13q7 -17 13 -38t9 -38q39 36 80 56t73 20q16 0 28 -4t19 -9l-15 -35q-7 3 -16 5.5t-21 2.5q-25 0 -65 -17.5t-81 -55.5v-392z" />
<glyph unicode="&#x156;" horiz-adv-x="574" d="M157 0h-42v538q0 44 -1.5 78t-5.5 69h155q70 0 122 -25.5t81 -71t29 -106.5q0 -71 -39 -117t-105 -65l173 -300l-39 -10q-43 74 -85.5 148.5t-85.5 148.5h-157v-287zM261 650h-104v-328h100q90 0 141.5 40.5t51.5 119.5q0 47 -19.5 85t-61.5 60.5t-108 22.5zM258 -306 q12 25 21 48t14 46h-2q-16 0 -26.5 13t-10.5 30t10 32.5t31 15.5q19 0 29 -13t10 -36q0 -34 -17 -74t-39 -73z" />
<glyph unicode="&#x157;" horiz-adv-x="373" d="M155 0h-40v350q0 47 -4.5 78t-15.5 64l36 13q7 -17 13 -38t9 -38q39 36 80 56t73 20q16 0 28 -4t19 -9l-15 -35q-7 3 -16 5.5t-21 2.5q-25 0 -65 -17.5t-81 -55.5v-392zM95 -306q12 25 21 48t14 46h-2q-16 0 -26.5 13t-10.5 30t10 32.5t31 15.5q19 0 29 -13t10 -36 q0 -34 -17 -74t-39 -73z" />
<glyph unicode="&#x158;" horiz-adv-x="574" d="M416 906l13 -13q-32 -28 -59.5 -57t-53.5 -61l-43 -5q-28 32 -59 63t-66 60l13 13q73 -47 133 -97q28 25 58.5 49.5t63.5 47.5zM157 0h-42v538q0 44 -1.5 78t-5.5 69h155q70 0 122 -25.5t81 -71t29 -106.5q0 -71 -39 -117t-105 -65l173 -300l-39 -10q-43 74 -85.5 148.5 t-85.5 148.5h-157v-287zM261 650h-104v-328h100q90 0 141.5 40.5t51.5 119.5q0 47 -19.5 85t-61.5 60.5t-108 22.5z" />
<glyph unicode="&#x159;" horiz-adv-x="373" d="M324 750l13 -11q-27 -37 -52 -75t-48 -79l-43 -5q-25 41 -53 81t-59 78l13 11q31 -29 61.5 -61t58.5 -65q51 64 109 126zM155 0h-40v350q0 47 -4.5 78t-15.5 64l36 13q7 -17 13 -38t9 -38q39 36 80 56t73 20q16 0 28 -4t19 -9l-15 -35q-7 3 -16 5.5t-21 2.5 q-25 0 -65 -17.5t-81 -55.5v-392z" />
<glyph unicode="&#x15a;" horiz-adv-x="501" d="M377 865l-1 -8q-50 -31 -105.5 -49.5t-118.5 -28.5l-7 17q56 20 108.5 45t93.5 55zM436 162q0 -79 -57 -125.5t-151 -46.5q-32 0 -76 7.5t-87 27.5l8 43q41 -24 85 -32t74 -8q77 0 119 36.5t42 93.5q0 46 -22.5 77t-58 53.5t-74.5 42.5q-41 22 -79 46t-62.5 58.5 t-24.5 86.5q0 79 57 126t148 47q40 0 81 -9t70 -24l-8 -43q-37 23 -76 30.5t-68 7.5q-76 0 -118.5 -35t-42.5 -92q0 -45 24.5 -75.5t62 -52.5t75.5 -43q37 -19 73.5 -44.5t61 -62t24.5 -90.5z" />
<glyph unicode="&#x15b;" horiz-adv-x="435" d="M295 736l3 -8q-31 -46 -71.5 -82.5t-90.5 -68.5l-10 13q38 38 72.5 79.5t57.5 82.5zM356 473l-8 -41q-25 17 -52.5 27t-62.5 10q-55 0 -87 -25.5t-32 -65.5q0 -32 18.5 -53.5t47.5 -37.5t62 -30.5t62 -32t47.5 -42.5t18.5 -62q0 -56 -46 -93t-121 -37q-31 0 -67.5 7.5 t-70.5 24.5l8 41q32 -19 68 -28t67 -9q58 0 88.5 26t30.5 63q0 31 -18.5 51.5t-47.5 36t-62 29.5t-62 32t-47.5 43.5t-18.5 63.5q0 59 45.5 96.5t119.5 37.5q38 0 67 -9.5t53 -22.5z" />
<glyph unicode="&#x15c;" horiz-adv-x="501" d="M133 770l-13 13q32 29 60 58t53 60l43 5q28 -32 59.5 -63t65.5 -60l-13 -13q-73 47 -133 97q-28 -25 -58.5 -49.5t-63.5 -47.5zM436 162q0 -79 -57 -125.5t-151 -46.5q-32 0 -76 7.5t-87 27.5l8 43q41 -24 85 -32t74 -8q77 0 119 36.5t42 93.5q0 46 -22.5 77t-58 53.5 t-74.5 42.5q-41 22 -79 46t-62.5 58.5t-24.5 86.5q0 79 57 126t148 47q40 0 81 -9t70 -24l-8 -43q-37 23 -76 30.5t-68 7.5q-76 0 -118.5 -35t-42.5 -92q0 -45 24.5 -75.5t62 -52.5t75.5 -43q37 -19 73.5 -44.5t61 -62t24.5 -90.5z" />
<glyph unicode="&#x15d;" horiz-adv-x="435" d="M97 579l-13 11q27 37 52.5 75t47.5 79l43 5q25 -41 53 -81t59 -78l-13 -11q-31 29 -61.5 61t-58.5 65q-51 -64 -109 -126zM356 473l-8 -41q-25 17 -52.5 27t-62.5 10q-55 0 -87 -25.5t-32 -65.5q0 -32 18.5 -53.5t47.5 -37.5t62 -30.5t62 -32t47.5 -42.5t18.5 -62 q0 -56 -46 -93t-121 -37q-31 0 -67.5 7.5t-70.5 24.5l8 41q32 -19 68 -28t67 -9q58 0 88.5 26t30.5 63q0 31 -18.5 51.5t-47.5 36t-62 29.5t-62 32t-47.5 43.5t-18.5 63.5q0 59 45.5 96.5t119.5 37.5q38 0 67 -9.5t53 -22.5z" />
<glyph unicode="&#x15e;" horiz-adv-x="501" d="M335 -123q0 -37 -37 -59.5t-87 -29.5l-6 22q41 10 64.5 24t23.5 35t-19.5 29.5t-42.5 10.5l-7 11l23 71q-9 -1 -19 -1q-32 0 -76 7.5t-87 27.5l8 43q41 -24 85 -32t74 -8q77 0 119 36.5t42 93.5q0 46 -22.5 77t-58 53.5t-74.5 42.5q-41 22 -79 46t-62.5 58.5t-24.5 86.5 q0 79 57 126t148 47q40 0 81 -9t70 -24l-8 -43q-37 23 -76 30.5t-68 7.5q-76 0 -118.5 -35t-42.5 -92q0 -45 24.5 -75.5t62 -52.5t75.5 -43q37 -19 73.5 -44.5t61 -62t24.5 -90.5q0 -68 -43 -112t-115 -56l-18 -56q32 -5 53.5 -20t21.5 -41z" />
<glyph unicode="&#x15f;" horiz-adv-x="435" d="M301 -123q0 -37 -37 -59.5t-87 -29.5l-6 22q41 10 64.5 24t23.5 35t-19.5 29.5t-42.5 10.5l-7 11l23 70h-10q-31 0 -67.5 7.5t-70.5 24.5l8 41q32 -19 68 -28t67 -9q58 0 88.5 26t30.5 63q0 31 -18.5 51.5t-47.5 36t-62 29.5t-62 32t-47.5 43.5t-18.5 63.5 q0 59 45.5 96.5t119.5 37.5q38 0 67 -9.5t53 -22.5l-8 -41q-25 17 -52.5 27t-62.5 10q-55 0 -87 -25.5t-32 -65.5q0 -32 18.5 -53.5t47.5 -37.5t62 -30.5t62 -32t47.5 -42.5t18.5 -62q0 -48 -34 -82.5t-92 -44.5l-18 -55q32 -5 53.5 -20t21.5 -41z" />
<glyph unicode="&#x160;" horiz-adv-x="501" d="M388 906l13 -13q-32 -28 -59.5 -57t-53.5 -61l-43 -5q-28 32 -59 63t-66 60l13 13q73 -47 133 -97q28 25 58.5 49.5t63.5 47.5zM436 162q0 -79 -57 -125.5t-151 -46.5q-32 0 -76 7.5t-87 27.5l8 43q41 -24 85 -32t74 -8q77 0 119 36.5t42 93.5q0 46 -22.5 77t-58 53.5 t-74.5 42.5q-41 22 -79 46t-62.5 58.5t-24.5 86.5q0 79 57 126t148 47q40 0 81 -9t70 -24l-8 -43q-37 23 -76 30.5t-68 7.5q-76 0 -118.5 -35t-42.5 -92q0 -45 24.5 -75.5t62 -52.5t75.5 -43q37 -19 73.5 -44.5t61 -62t24.5 -90.5z" />
<glyph unicode="&#x161;" horiz-adv-x="435" d="M326 750l13 -11q-27 -37 -52 -75t-48 -79l-43 -5q-25 41 -53 81t-59 78l13 11q31 -29 61.5 -61t58.5 -65q51 64 109 126zM356 473l-8 -41q-25 17 -52.5 27t-62.5 10q-55 0 -87 -25.5t-32 -65.5q0 -32 18.5 -53.5t47.5 -37.5t62 -30.5t62 -32t47.5 -42.5t18.5 -62 q0 -56 -46 -93t-121 -37q-31 0 -67.5 7.5t-70.5 24.5l8 41q32 -19 68 -28t67 -9q58 0 88.5 26t30.5 63q0 31 -18.5 51.5t-47.5 36t-62 29.5t-62 32t-47.5 43.5t-18.5 63.5q0 59 45.5 96.5t119.5 37.5q38 0 67 -9.5t53 -22.5z" />
<glyph unicode="&#x162;" horiz-adv-x="521" d="M337 -123q0 -37 -37 -59.5t-87 -29.5l-6 22q41 10 64.5 24t23.5 35t-19.5 29.5t-42.5 10.5l-7 11l26 80h-12v650q-53 0 -107 -1.5t-108 -3.5l3 40h465l3 -40q-54 2 -107.5 3.5t-106.5 1.5v-650l-20 -62q32 -5 53.5 -20t21.5 -41z" />
<glyph unicode="&#x163;" horiz-adv-x="341" d="M284 -123q0 -37 -37 -59.5t-87 -29.5l-6 22q41 10 64.5 24t23.5 35t-19.5 29.5t-42.5 10.5l-7 11l23 72q-43 8 -64.5 43.5t-21.5 105.5v321h-76v26l76 7l9 112l29 4l5 -5l-3 -111h135l5 -5l-2 -28h-138v-311q0 -70 20.5 -97.5t60.5 -27.5q23 0 43.5 7t37.5 18l9 -33 q-19 -12 -43.5 -20t-51.5 -8l-17 -52q32 -5 53.5 -20t21.5 -41z" />
<glyph unicode="&#x164;" horiz-adv-x="521" d="M388 906l13 -13q-32 -28 -59.5 -57t-53.5 -61l-43 -5q-28 32 -59 63t-66 60l13 13q73 -47 133 -97q28 25 58.5 49.5t63.5 47.5zM282 0h-42v650q-53 0 -107 -1.5t-108 -3.5l3 40h465l3 -40q-54 2 -107.5 3.5t-106.5 1.5v-650z" />
<glyph unicode="&#x165;" horiz-adv-x="341" d="M274 756l6 -6q-4 -56 -20.5 -107.5t-43.5 -104.5l-16 6q14 53 23.5 106t8.5 100zM288 462h-138v-311q0 -70 20.5 -97.5t60.5 -27.5q23 0 43.5 7t37.5 18l9 -33q-19 -12 -44 -20t-54 -8q-56 0 -84.5 35.5t-28.5 115.5v321h-76v26l76 7l9 112l29 4l5 -5l-3 -111h135l5 -5z " />
<glyph unicode="&#x166;" horiz-adv-x="521" d="M282 0h-42v328h-159v30h159v292q-53 0 -107 -1.5t-108 -3.5l3 40h465l3 -40q-54 2 -107.5 3.5t-106.5 1.5v-292h159v-30h-159v-328z" />
<glyph unicode="&#x167;" horiz-adv-x="341" d="M286 293h-136v-142q0 -70 20.5 -97.5t60.5 -27.5q23 0 43.5 7t37.5 18l9 -33q-19 -12 -44 -20t-54 -8q-56 0 -84.5 35.5t-28.5 115.5v152h-76v30h76v139h-76v26l76 7l9 112l29 4l5 -5l-3 -111h135l5 -5l-2 -28h-138v-139h136v-30z" />
<glyph unicode="&#x168;" horiz-adv-x="644" d="M254 890q28 0 51 -14t45 -28t45 -14q25 0 42 17.5t28 39.5l16 -3q-5 -34 -28 -63t-63 -29q-28 0 -51.5 14t-44.5 28t-45 14q-25 0 -42 -17t-28 -40l-16 3q4 20 15 41t30 36t46 15zM100 540q0 44 -2.5 78t-7.5 69l52 8v-478q0 -61 24.5 -103.5t65.5 -64t90 -21.5 q50 0 90.5 21t65 63.5t24.5 104.5v323q0 44 -2.5 78t-7.5 69l52 8v-475q0 -76 -30.5 -127.5t-82 -77t-114.5 -25.5q-60 0 -109.5 26t-78.5 77t-29 127v320z" />
<glyph unicode="&#x169;" horiz-adv-x="553" d="M209 710q25 0 46.5 -14t42 -28t40.5 -14q21 0 36.5 17.5t26.5 39.5l16 -3q-4 -21 -15 -42.5t-28 -35.5t-41 -14q-25 0 -47 14t-41.5 28t-40.5 14t-36.5 -17t-26.5 -40l-16 3q5 20 15.5 41t27.5 36t41 15zM110 348q0 44 -1.5 78t-3.5 69l40 10l5 -5v-368q0 -50 24 -78 t72 -28q73 0 152 77v392l40 10v-360q0 -47 5 -78t15 -64l-36 -13q-7 17 -13 38t-9 38q-37 -37 -78.5 -56.5t-83.5 -19.5q-62 0 -95 34t-33 98v226z" />
<glyph unicode="&#x16a;" horiz-adv-x="644" d="M195 817v39h254v-39h-254zM100 540q0 44 -2.5 78t-7.5 69l52 8v-478q0 -61 24.5 -103.5t65.5 -64t90 -21.5q50 0 90.5 21t65 63.5t24.5 104.5v323q0 44 -2.5 78t-7.5 69l52 8v-475q0 -76 -30.5 -127.5t-82 -77t-114.5 -25.5q-60 0 -109.5 26t-78.5 77t-29 127v320z" />
<glyph unicode="&#x16b;" horiz-adv-x="553" d="M143 646v34h264v-34h-264zM110 348q0 44 -1.5 78t-3.5 69l40 10l5 -5v-368q0 -50 24 -78t72 -28q73 0 152 77v392l40 10v-360q0 -47 5 -78t15 -64l-36 -13q-7 17 -13 38t-9 38q-37 -37 -78.5 -56.5t-83.5 -19.5q-62 0 -95 34t-33 98v226z" />
<glyph unicode="&#x16c;" horiz-adv-x="644" d="M418 890l23 -3q-11 -48 -43.5 -75t-78.5 -27q-45 0 -76.5 27t-39.5 75l22 3q11 -29 36.5 -45.5t62.5 -16.5q33 0 58 17t36 45zM100 540q0 44 -2.5 78t-7.5 69l52 8v-478q0 -61 24.5 -103.5t65.5 -64t90 -21.5q50 0 90.5 21t65 63.5t24.5 104.5v323q0 44 -2.5 78t-7.5 69 l52 8v-475q0 -76 -30.5 -127.5t-82 -77t-114.5 -25.5q-60 0 -109.5 26t-78.5 77t-29 127v320z" />
<glyph unicode="&#x16d;" horiz-adv-x="553" d="M371 727l23 -3q-11 -58 -43.5 -90t-78.5 -32q-45 0 -76.5 32t-39.5 90l22 3q11 -38 36.5 -60t62.5 -22q33 0 58 22.5t36 59.5zM110 348q0 44 -1.5 78t-3.5 69l40 10l5 -5v-368q0 -50 24 -78t72 -28q73 0 152 77v392l40 10v-360q0 -47 5 -78t15 -64l-36 -13q-7 17 -13 38 t-9 38q-37 -37 -78.5 -56.5t-83.5 -19.5q-62 0 -95 34t-33 98v226z" />
<glyph unicode="&#x16e;" horiz-adv-x="644" d="M400 841q0 -31 -23.5 -54t-57.5 -23q-28 0 -51.5 19.5t-23.5 49.5q0 32 24 54.5t58 22.5q32 0 53 -20t21 -49zM278 836q0 -20 12.5 -32.5t31.5 -12.5q20 0 32 14t12 33t-11 32t-32 13q-20 0 -32.5 -13.5t-12.5 -33.5zM100 540q0 44 -2.5 78t-7.5 69l52 8v-478 q0 -61 24.5 -103.5t65.5 -64t90 -21.5q50 0 90.5 21t65 63.5t24.5 104.5v323q0 44 -2.5 78t-7.5 69l52 8v-475q0 -76 -30.5 -127.5t-82 -77t-114.5 -25.5q-60 0 -109.5 26t-78.5 77t-29 127v320z" />
<glyph unicode="&#x16f;" horiz-adv-x="553" d="M353 651q0 -31 -23.5 -54t-57.5 -23q-28 0 -51.5 19.5t-23.5 49.5q0 32 24 54.5t58 22.5q32 0 53 -20t21 -49zM231 646q0 -20 12.5 -32.5t31.5 -12.5q20 0 32 14t12 33t-11 32t-32 13q-20 0 -32.5 -13.5t-12.5 -33.5zM110 348q0 44 -1.5 78t-3.5 69l40 10l5 -5v-368 q0 -50 24 -78t72 -28q73 0 152 77v392l40 10v-360q0 -47 5 -78t15 -64l-36 -13q-7 17 -13 38t-9 38q-37 -37 -78.5 -56.5t-83.5 -19.5q-62 0 -95 34t-33 98v226z" />
<glyph unicode="&#x170;" horiz-adv-x="644" d="M323 865l-1 -8q-39 -31 -82 -49.5t-92 -28.5l-7 17q42 20 81.5 45t70.5 55zM503 865l-1 -8q-39 -31 -82 -49.5t-92 -28.5l-7 17q42 20 81.5 45t70.5 55zM100 540q0 44 -2.5 78t-7.5 69l52 8v-478q0 -61 24.5 -103.5t65.5 -64t90 -21.5q50 0 90.5 21t65 63.5t24.5 104.5 v323q0 44 -2.5 78t-7.5 69l52 8v-475q0 -76 -30.5 -127.5t-82 -77t-114.5 -25.5q-60 0 -109.5 26t-78.5 77t-29 127v320z" />
<glyph unicode="&#x171;" horiz-adv-x="553" d="M296 742l3 -8q-31 -46 -69.5 -83.5t-86.5 -70.5l-10 13q38 36 72.5 78t57.5 84zM410 742l3 -8q-31 -46 -69.5 -83.5t-86.5 -70.5l-10 13q38 36 72.5 78t57.5 84zM110 348q0 44 -1.5 78t-3.5 69l40 10l5 -5v-368q0 -50 24 -78t72 -28q73 0 152 77v392l40 10v-360 q0 -47 5 -78t15 -64l-36 -13q-7 17 -13 38t-9 38q-37 -37 -78.5 -56.5t-83.5 -19.5q-62 0 -95 34t-33 98v226z" />
<glyph unicode="&#x172;" horiz-adv-x="644" d="M100 540q0 44 -2.5 78t-7.5 69l52 8v-478q0 -61 24.5 -103.5t65.5 -64t90 -21.5q50 0 90.5 21t65 63.5t24.5 104.5v323q0 44 -2.5 78t-7.5 69l52 8v-475q0 -72 -27 -121t-73 -76q-60 -45 -85.5 -80t-25.5 -66q0 -56 56 -56q11 0 24.5 2.5t31.5 9.5l9 -22q-14 -11 -34 -17 t-40 -6q-42 0 -65.5 20t-23.5 58q0 31 18.5 63t59.5 66q-25 -5 -52 -5q-60 0 -109.5 26t-78.5 77t-29 127v320z" />
<glyph unicode="&#x173;" horiz-adv-x="553" d="M110 348q0 44 -1.5 78t-3.5 69l40 10l5 -5v-368q0 -50 24 -78t72 -28q73 0 152 77v392l40 10v-360q0 -47 5 -78t15 -64l-10 -4q-110 -63 -110 -126q0 -52 56 -52q11 0 24.5 2.5t31.5 9.5l9 -22q-14 -11 -34 -17t-40 -6q-42 0 -65.5 19.5t-23.5 54.5q0 78 120 143 q-5 15 -9.5 31t-6.5 30q-37 -37 -78.5 -56.5t-83.5 -19.5q-62 0 -95 34t-33 98v226z" />
<glyph unicode="&#x174;" horiz-adv-x="986" d="M365 770l-13 13q32 29 60 58t53 60l43 5q28 -32 59.5 -63t65.5 -60l-13 -13q-73 47 -133 97q-28 -25 -58.5 -49.5t-63.5 -47.5zM265 -5l-225 695l40 5l139 -428q20 -61 35.5 -112.5t23.5 -102.5q9 51 28.5 115.5t38.5 122.5l129 401l39 4l139 -428q20 -61 35.5 -112.5 t23.5 -102.5q9 51 28 114t38 121l132 408l32 -5l5 -5l-223 -690h-25l-159 492q-11 35 -22.5 71.5t-22.5 79.5h-1q-10 -43 -22 -79.5t-23 -71.5l-158 -492h-25z" />
<glyph unicode="&#x175;" horiz-adv-x="740" d="M253 579l-13 11q27 37 52.5 75t47.5 79l43 5q25 -41 53 -81t59 -78l-13 -11q-31 29 -61.5 61t-58.5 65q-51 -64 -109 -126zM203 -5l-173 506l40 4l78 -229q20 -58 32 -98t20 -69t14 -57h1q8 36 16 65t19 64t29 87l81 237h24l77 -226q18 -52 39 -114t28 -112h1 q11 53 29.5 110.5t36.5 110.5l79 231l31 -5l5 -5l-171 -500h-21l-89 258q-22 65 -36 107.5t-22 86.5h-1q-7 -45 -22 -91t-34 -101l-89 -260h-22z" />
<glyph unicode="&#x176;" horiz-adv-x="552" d="M148 770l-13 13q32 29 60 58t53 60l43 5q28 -32 59.5 -63t65.5 -60l-13 -13q-73 47 -133 97q-28 -25 -58.5 -49.5t-63.5 -47.5zM255 256l-225 435l44 4l136 -260q17 -30 35.5 -67t31.5 -71h1q35 76 70 140l133 258l36 -5l5 -5l-225 -433v-252h-42v256z" />
<glyph unicode="&#x177;" horiz-adv-x="447" d="M114 579l-13 11q27 37 52.5 75t47.5 79l43 5q25 -41 53 -81t59 -78l-13 -11q-31 29 -61.5 61t-58.5 65q-51 -64 -109 -126zM427 495l-188 -500q-23 -63 -56 -116.5t-73 -88.5t-87 -45l-8 47q60 11 107.5 64t87.5 162v1l-180 482l40 4l87 -233q24 -62 37.5 -99.5t21.5 -64 t13 -57.5h1q7 31 15 57.5t22 64t37 99.5l87 233l31 -5z" />
<glyph unicode="&#x178;" horiz-adv-x="552" d="M409 839q0 -17 -9.5 -32t-29.5 -15q-17 0 -27 12t-10 28q0 17 11 31t29 14q17 0 26.5 -10.5t9.5 -27.5zM219 839q0 -17 -9.5 -32t-29.5 -15q-17 0 -27 12t-10 28q0 17 11 31t29 14q17 0 26.5 -10.5t9.5 -27.5zM255 256l-225 435l44 4l136 -260q17 -30 35.5 -67t31.5 -71 h1q35 76 70 140l133 258l36 -5l5 -5l-225 -433v-252h-42v256z" />
<glyph unicode="&#x179;" horiz-adv-x="498" d="M365 865l-1 -8q-50 -31 -105.5 -49.5t-118.5 -28.5l-7 17q56 20 108.5 45t93.5 55zM37 0l-7 25l379 625l-368 -3l3 38h407l10 -25l-379 -625l386 4l-3 -39h-428z" />
<glyph unicode="&#x17a;" horiz-adv-x="425" d="M296 736l3 -8q-31 -46 -71.5 -82.5t-90.5 -68.5l-10 13q38 38 72.5 79.5t57.5 82.5zM38 458l3 37h340l4 -25l-305 -438l162 3q37 1 74 1.5t74 2.5l-3 -39h-348l-4 25l305 438z" />
<glyph unicode="&#x17b;" horiz-adv-x="498" d="M289 846q0 -16 -9.5 -29.5t-31.5 -13.5q-19 0 -29 11.5t-10 27.5q0 17 11.5 30t30.5 13t28.5 -11t9.5 -28zM37 0l-7 25l379 625l-368 -3l3 38h407l10 -25l-379 -625l386 4l-3 -39h-428z" />
<glyph unicode="&#x17c;" horiz-adv-x="425" d="M249 668q0 -17 -8.5 -32t-28.5 -15q-16 0 -25.5 12.5t-9.5 30.5t10.5 32.5t27.5 14.5t25.5 -12t8.5 -31zM38 458l3 37h340l4 -25l-305 -438l162 3q37 1 74 1.5t74 2.5l-3 -39h-348l-4 25l305 438z" />
<glyph unicode="&#x17d;" horiz-adv-x="498" d="M376 906l13 -13q-32 -28 -59.5 -57t-53.5 -61l-43 -5q-28 32 -59 63t-66 60l13 13q73 -47 133 -97q28 25 58.5 49.5t63.5 47.5zM37 0l-7 25l379 625l-368 -3l3 38h407l10 -25l-379 -625l386 4l-3 -39h-428z" />
<glyph unicode="&#x17e;" horiz-adv-x="425" d="M327 750l13 -11q-27 -37 -52 -75t-48 -79l-43 -5q-25 41 -53 81t-59 78l13 11q31 -29 61.5 -61t58.5 -65q51 64 109 126zM38 458l3 37h340l4 -25l-305 -438l162 3q37 1 74 1.5t74 2.5l-3 -39h-348l-4 25l305 438z" />
<glyph unicode="&#x18f;" horiz-adv-x="644" d="M87 366l15 18h415q-6 95 -37.5 155.5t-81.5 89t-113 28.5q-51 0 -92.5 -15.5t-75.5 -37.5l-4 38q23 17 69 35t108 18q82 0 143.5 -38.5t96 -116.5t34.5 -197q0 -123 -35.5 -201t-93.5 -115t-126 -37q-64 0 -116 31t-82.5 90t-30.5 143q0 28 3 62t4 50zM125 261 q0 -78 25 -129.5t67.5 -77.5t95.5 -26q96 0 151 81t55 229v13l-389 -8q-3 -16 -4 -41t-1 -41z" />
<glyph unicode="&#x192;" horiz-adv-x="510" d="M209 298l-112 2l5 27l112 7v0l14 100q10 76 29.5 135t56 92.5t96.5 33.5q26 0 52 -6.5t48 -19.5l-19 -40q-15 12 -37.5 21t-42.5 9q-39 0 -66.5 -20.5t-45.5 -71.5t-31 -143l-12 -90h181l4 -5l-9 -31h-181l-47 -352q-4 -27 -11 -61t-23.5 -66t-46.5 -53t-79 -21 q-55 0 -96 26l19 40q14 -12 35.5 -21t47.5 -9q44 0 66 25.5t31.5 64t14.5 76.5l48 351h-1z" />
<glyph unicode="&#x19d;" horiz-adv-x="688" d="M25 -182l-15 26q39 21 65.5 69t26.5 130v495q0 44 -1.5 78t-5.5 69l46 10q50 -78 99 -156t96 -155q43 -68 77.5 -122.5t64.5 -104.5t56 -106h1q-1 24 -1.5 46t-1 52.5t-1 78.5t-0.5 123v187q0 44 -1.5 78t-5.5 69l44 10l5 -5v-690h-45q-49 78 -97.5 155.5t-97.5 155.5 q-42 68 -75.5 120.5t-61.5 100.5t-55 102h-1q3 -66 3.5 -128t0.5 -124v-339q0 -93 -31.5 -145.5t-87.5 -79.5z" />
<glyph unicode="&#x1cd;" horiz-adv-x="599" d="M427 906l13 -13q-32 -28 -59.5 -57t-53.5 -61l-43 -5q-28 32 -59 63t-66 60l13 13q73 -47 133 -97q28 25 58.5 49.5t63.5 47.5zM71 0h-41l218 592q10 27 19.5 53.5t15.5 46.5l27 3l5 -5l254 -690h-44l-82 222h-290zM232 437l-66 -179h264l-66 179q-18 50 -36 100.5 t-29 99.5h-1q-12 -49 -30 -99.5t-36 -100.5z" />
<glyph unicode="&#x1ce;" horiz-adv-x="496" d="M346 750l13 -11q-27 -37 -52 -75t-48 -79l-43 -5q-25 41 -53 81t-59 78l13 11q31 -29 61.5 -61t58.5 -65q51 64 109 126zM385 148q0 -37 4.5 -70.5t20.5 -77.5l-40 -10q-7 14 -13 33t-9 37v0q-21 -25 -62.5 -47.5t-93.5 -22.5q-62 0 -94.5 34t-32.5 82q0 43 23.5 74.5 t63.5 52.5t90 32.5t103 15.5v78q0 53 -27 81.5t-84 28.5q-40 0 -79.5 -13.5t-72.5 -35.5l-3 40q31 17 73 31t88 14q72 0 109 -36.5t37 -94.5v-79.5t-0.5 -86t-0.5 -60.5zM108 110q0 -31 21 -57.5t67 -26.5q40 0 82 21.5t67 50.5v149q-64 -4 -118 -20.5t-86.5 -45 t-32.5 -71.5z" />
<glyph unicode="&#x1cf;" horiz-adv-x="272" d="M260 906l13 -13q-32 -28 -59.5 -57t-53.5 -61l-43 -5q-28 32 -59 63t-66 60l13 13q73 -47 133 -97q28 25 58.5 49.5t63.5 47.5zM157 0h-42v538q0 44 -1.5 78t-5.5 69l44 10l5 -5v-690z" />
<glyph unicode="&#x1d0;" horiz-adv-x="260" d="M212 755l10 -10q-19 -38 -36.5 -76t-33.5 -78l-43 -5q-19 41 -39.5 80.5t-42.5 78.5l10 10q24 -28 47.5 -59t45.5 -62l40 62t42 59zM110 0v348q0 43 -1 77t-6 70l42 10l5 -5v-500h-40z" />
<glyph unicode="&#x1d1;" horiz-adv-x="694" d="M481 906l13 -13q-32 -28 -59.5 -57t-53.5 -61l-43 -5q-28 32 -59 63t-66 60l13 13q73 -47 133 -97q28 25 58.5 49.5t63.5 47.5zM614 344q0 -116 -37.5 -195t-99 -119t-135.5 -40q-73 0 -132.5 39.5t-94.5 116t-35 186.5q0 113 37 194.5t99 125t138 43.5q74 0 133 -41.5 t93 -120t34 -189.5zM125 338q0 -94 27 -164t77 -108t117 -38q65 0 115 35.5t79 105.5t29 172q0 95 -26 166t-74 110.5t-115 39.5q-64 0 -116 -37.5t-82.5 -108.5t-30.5 -173z" />
<glyph unicode="&#x1d2;" horiz-adv-x="556" d="M392 750l13 -11q-27 -37 -52 -75t-48 -79l-43 -5q-25 41 -53 81t-59 78l13 11q31 -29 61.5 -61t58.5 -65q51 64 109 126zM481 251q0 -86 -29 -144.5t-76 -87.5t-103 -29q-58 0 -102.5 30.5t-70 87.5t-25.5 136q0 87 29 145t76.5 87t102.5 29q58 0 102.5 -30.5t70 -87 t25.5 -136.5zM118 248q0 -65 18 -115t53.5 -78.5t85.5 -28.5q69 0 116 56t47 165q0 65 -18 115t-53 78.5t-86 28.5q-69 0 -116 -55.5t-47 -165.5z" />
<glyph unicode="&#x1d3;" horiz-adv-x="644" d="M449 906l13 -13q-32 -28 -59.5 -57t-53.5 -61l-43 -5q-28 32 -59 63t-66 60l13 13q73 -47 133 -97q28 25 58.5 49.5t63.5 47.5zM100 540q0 44 -2.5 78t-7.5 69l52 8v-478q0 -61 24.5 -103.5t65.5 -64t90 -21.5q50 0 90.5 21t65 63.5t24.5 104.5v323q0 44 -2.5 78t-7.5 69 l52 8v-475q0 -76 -30.5 -127.5t-82 -77t-114.5 -25.5q-60 0 -109.5 26t-78.5 77t-29 127v320z" />
<glyph unicode="&#x1d4;" horiz-adv-x="553" d="M389 750l13 -11q-27 -37 -52 -75t-48 -79l-43 -5q-25 41 -53 81t-59 78l13 11q31 -29 61.5 -61t58.5 -65q51 64 109 126zM110 348q0 44 -1.5 78t-3.5 69l40 10l5 -5v-368q0 -50 24 -78t72 -28q73 0 152 77v392l40 10v-360q0 -47 5 -78t15 -64l-36 -13q-7 17 -13 38t-9 38 q-37 -37 -78.5 -56.5t-83.5 -19.5q-62 0 -95 34t-33 98v226z" />
<glyph unicode="&#x1d5;" horiz-adv-x="644" d="M195 1009v39h254v-39h-254zM455 839q0 -17 -9.5 -32t-29.5 -15q-17 0 -27 12t-10 28q0 17 11 31t29 14q17 0 26.5 -10.5t9.5 -27.5zM265 839q0 -17 -9.5 -32t-29.5 -15q-17 0 -27 12t-10 28q0 17 11 31t29 14q17 0 26.5 -10.5t9.5 -27.5zM100 540q0 44 -2.5 78t-7.5 69 l52 8v-478q0 -61 24.5 -103.5t65.5 -64t90 -21.5q50 0 90.5 21t65 63.5t24.5 104.5v323q0 44 -2.5 78t-7.5 69l52 8v-475q0 -76 -30.5 -127.5t-82 -77t-114.5 -25.5q-60 0 -109.5 26t-78.5 77t-29 127v320z" />
<glyph unicode="&#x1d6;" horiz-adv-x="553" d="M143 859v34h264v-34h-264zM216 667q0 -18 -8.5 -33.5t-27.5 -15.5q-16 0 -25 12.5t-9 29.5q0 19 10.5 33.5t26.5 14.5t24.5 -11.5t8.5 -29.5zM404 667q0 -18 -8.5 -33.5t-27.5 -15.5q-16 0 -25 12.5t-9 29.5q0 19 10.5 33.5t26.5 14.5t24.5 -11.5t8.5 -29.5zM110 348 q0 44 -1.5 78t-3.5 69l40 10l5 -5v-368q0 -50 24 -78t72 -28q73 0 152 77v392l40 10v-360q0 -47 5 -78t15 -64l-36 -13q-7 17 -13 38t-9 38q-37 -37 -78.5 -56.5t-83.5 -19.5q-62 0 -95 34t-33 98v226z" />
<glyph unicode="&#x1d7;" horiz-adv-x="644" d="M438 1057l-1 -8q-50 -31 -105.5 -49.5t-118.5 -28.5l-7 17q56 20 108.5 45t93.5 55zM455 839q0 -17 -9.5 -32t-29.5 -15q-17 0 -27 12t-10 28q0 17 11 31t29 14q17 0 26.5 -10.5t9.5 -27.5zM265 839q0 -17 -9.5 -32t-29.5 -15q-17 0 -27 12t-10 28q0 17 11 31t29 14 q17 0 26.5 -10.5t9.5 -27.5zM100 540q0 44 -2.5 78t-7.5 69l52 8v-478q0 -61 24.5 -103.5t65.5 -64t90 -21.5q50 0 90.5 21t65 63.5t24.5 104.5v323q0 44 -2.5 78t-7.5 69l52 8v-475q0 -76 -30.5 -127.5t-82 -77t-114.5 -25.5q-60 0 -109.5 26t-78.5 77t-29 127v320z" />
<glyph unicode="&#x1d8;" horiz-adv-x="553" d="M358 949l3 -8q-31 -46 -71.5 -82.5t-90.5 -68.5l-10 13q38 38 72.5 79.5t57.5 82.5zM216 667q0 -18 -8.5 -33.5t-27.5 -15.5q-16 0 -25 12.5t-9 29.5q0 19 10.5 33.5t26.5 14.5t24.5 -11.5t8.5 -29.5zM404 667q0 -18 -8.5 -33.5t-27.5 -15.5q-16 0 -25 12.5t-9 29.5 q0 19 10.5 33.5t26.5 14.5t24.5 -11.5t8.5 -29.5zM110 348q0 44 -1.5 78t-3.5 69l40 10l5 -5v-368q0 -50 24 -78t72 -28q73 0 152 77v392l40 10v-360q0 -47 5 -78t15 -64l-36 -13q-7 17 -13 38t-9 38q-37 -37 -78.5 -56.5t-83.5 -19.5q-62 0 -95 34t-33 98v226z" />
<glyph unicode="&#x1d9;" horiz-adv-x="644" d="M449 1098l13 -13q-32 -28 -59.5 -57t-53.5 -61l-43 -5q-28 32 -59 63t-66 60l13 13q73 -47 133 -97q28 25 58.5 49.5t63.5 47.5zM455 839q0 -17 -9.5 -32t-29.5 -15q-17 0 -27 12t-10 28q0 17 11 31t29 14q17 0 26.5 -10.5t9.5 -27.5zM265 839q0 -17 -9.5 -32t-29.5 -15 q-17 0 -27 12t-10 28q0 17 11 31t29 14q17 0 26.5 -10.5t9.5 -27.5zM100 540q0 44 -2.5 78t-7.5 69l52 8v-478q0 -61 24.5 -103.5t65.5 -64t90 -21.5q50 0 90.5 21t65 63.5t24.5 104.5v323q0 44 -2.5 78t-7.5 69l52 8v-475q0 -76 -30.5 -127.5t-82 -77t-114.5 -25.5 q-60 0 -109.5 26t-78.5 77t-29 127v320z" />
<glyph unicode="&#x1da;" horiz-adv-x="553" d="M389 963l13 -11q-27 -37 -52 -75t-48 -79l-43 -5q-25 41 -53 81t-59 78l13 11q31 -29 61.5 -61t58.5 -65q51 64 109 126zM216 667q0 -18 -8.5 -33.5t-27.5 -15.5q-16 0 -25 12.5t-9 29.5q0 19 10.5 33.5t26.5 14.5t24.5 -11.5t8.5 -29.5zM404 667q0 -18 -8.5 -33.5 t-27.5 -15.5q-16 0 -25 12.5t-9 29.5q0 19 10.5 33.5t26.5 14.5t24.5 -11.5t8.5 -29.5zM110 348q0 44 -1.5 78t-3.5 69l40 10l5 -5v-368q0 -50 24 -78t72 -28q73 0 152 77v392l40 10v-360q0 -47 5 -78t15 -64l-36 -13q-7 17 -13 38t-9 38q-37 -37 -78.5 -56.5t-83.5 -19.5 q-62 0 -95 34t-33 98v226z" />
<glyph unicode="&#x1db;" horiz-adv-x="644" d="M431 971q-63 10 -118.5 28.5t-105.5 49.5l-1 8l30 31q41 -30 94 -55t108 -45zM455 839q0 -17 -9.5 -32t-29.5 -15q-17 0 -27 12t-10 28q0 17 11 31t29 14q17 0 26.5 -10.5t9.5 -27.5zM265 839q0 -17 -9.5 -32t-29.5 -15q-17 0 -27 12t-10 28q0 17 11 31t29 14 q17 0 26.5 -10.5t9.5 -27.5zM100 540q0 44 -2.5 78t-7.5 69l52 8v-478q0 -61 24.5 -103.5t65.5 -64t90 -21.5q50 0 90.5 21t65 63.5t24.5 104.5v323q0 44 -2.5 78t-7.5 69l52 8v-475q0 -76 -30.5 -127.5t-82 -77t-114.5 -25.5q-60 0 -109.5 26t-78.5 77t-29 127v320z" />
<glyph unicode="&#x1dc;" horiz-adv-x="553" d="M351 793q-50 32 -90 68.5t-72 82.5l3 8l39 16q23 -41 58 -82.5t72 -79.5zM216 667q0 -18 -8.5 -33.5t-27.5 -15.5q-16 0 -25 12.5t-9 29.5q0 19 10.5 33.5t26.5 14.5t24.5 -11.5t8.5 -29.5zM404 667q0 -18 -8.5 -33.5t-27.5 -15.5q-16 0 -25 12.5t-9 29.5q0 19 10.5 33.5 t26.5 14.5t24.5 -11.5t8.5 -29.5zM110 348q0 44 -1.5 78t-3.5 69l40 10l5 -5v-368q0 -50 24 -78t72 -28q73 0 152 77v392l40 10v-360q0 -47 5 -78t15 -64l-36 -13q-7 17 -13 38t-9 38q-37 -37 -78.5 -56.5t-83.5 -19.5q-62 0 -95 34t-33 98v226z" />
<glyph unicode="&#x1e6;" horiz-adv-x="651" d="M474 906l13 -13q-32 -28 -59.5 -57t-53.5 -61l-43 -5q-28 32 -59 63t-66 60l13 13q73 -47 133 -97q28 25 58.5 49.5t63.5 47.5zM556 288l5 -5l-2 -242q-26 -17 -62 -28.5t-73.5 -17t-68.5 -5.5q-82 0 -144 40t-96.5 116.5t-34.5 185.5q0 114 37 195.5t104.5 124.5 t158.5 43q43 0 84.5 -9.5t73.5 -28.5l-9 -42q-25 18 -62.5 30t-84.5 12q-76 0 -134 -36.5t-90.5 -107.5t-32.5 -174q0 -90 26.5 -160t79.5 -110.5t132 -40.5q36 0 77 8.5t77 24.5v70q0 44 -1.5 78t-5.5 69z" />
<glyph unicode="&#x1e7;" horiz-adv-x="474" d="M341 750l13 -11q-27 -37 -52 -75t-48 -79l-43 -5q-25 41 -53 81t-59 78l13 11q31 -29 61.5 -61t58.5 -65q51 64 109 126zM123 84q0 22 9 41.5t24 34.5q-43 19 -68.5 60t-25.5 100q0 50 18.5 92t55 67.5t89.5 25.5q31 0 55.5 -9.5t39.5 -20.5q20 13 49.5 21.5t56.5 8.5h7 v-47h-93q18 -19 32 -50.5t14 -76.5q0 -50 -18.5 -92t-54 -67.5t-88.5 -25.5q-20 0 -39 4q-11 -11 -17 -25.5t-6 -32.5q0 -23 13.5 -37t48.5 -17l81 -6q35 -2 66.5 -14t51.5 -37t20 -66q0 -42 -24.5 -81t-73 -64t-120.5 -25q-91 0 -143.5 39.5t-52.5 95.5q0 37 18.5 61 t32.5 34l23 -11q-11 -13 -22 -32.5t-11 -43.5q0 -41 40 -74.5t118 -33.5q80 0 127 37t47 90q0 41 -28.5 63.5t-73.5 25.5l-73 5q-55 4 -80 26.5t-25 56.5zM344 323q0 67 -30.5 107t-89.5 40q-60 0 -90 -38t-30 -106q0 -65 30.5 -105t91.5 -40q59 0 88.5 38t29.5 104z" />
<glyph unicode="&#x1ea;" horiz-adv-x="694" d="M614 344q0 -117 -38.5 -196.5t-100.5 -119.5q-58 -46 -86 -81t-28 -74q0 -52 56 -52q11 0 24.5 2.5t31.5 9.5l9 -22q-29 -23 -76 -23q-40 0 -63.5 21.5t-23.5 61.5q0 64 80 125q-28 -6 -57 -6q-73 0 -132.5 39.5t-94.5 116t-35 186.5q0 113 37 194.5t99 125t138 43.5 q74 0 133 -41.5t93 -120t34 -189.5zM125 338q0 -94 27 -164t77 -108t117 -38q65 0 115 35.5t79 105.5t29 172q0 95 -26 166t-74 110.5t-115 39.5q-64 0 -116 -37.5t-82.5 -108.5t-30.5 -173z" />
<glyph unicode="&#x1eb;" horiz-adv-x="556" d="M481 251q0 -84 -28 -141.5t-72 -87.5q-52 -42 -73.5 -79t-21.5 -66q0 -56 56 -56q11 0 24.5 2.5t31.5 9.5l9 -22q-14 -11 -34.5 -17t-41.5 -6q-40 0 -63.5 20.5t-23.5 58.5q0 29 16 62t53 65q-20 -4 -40 -4q-58 0 -102.5 30.5t-70 87.5t-25.5 136q0 87 29 145t76.5 87 t102.5 29q58 0 102.5 -30.5t70 -87t25.5 -136.5zM118 248q0 -65 18 -115t53.5 -78.5t85.5 -28.5q69 0 116 56t47 165q0 65 -18 115t-53 78.5t-86 28.5q-69 0 -116 -55.5t-47 -165.5z" />
<glyph unicode="&#x1f4;" horiz-adv-x="651" d="M463 865l-1 -8q-50 -31 -105.5 -49.5t-118.5 -28.5l-7 17q56 20 108.5 45t93.5 55zM556 288l5 -5l-2 -242q-26 -17 -62 -28.5t-73.5 -17t-68.5 -5.5q-82 0 -144 40t-96.5 116.5t-34.5 185.5q0 114 37 195.5t104.5 124.5t158.5 43q43 0 84.5 -9.5t73.5 -28.5l-9 -42 q-25 18 -62.5 30t-84.5 12q-76 0 -134 -36.5t-90.5 -107.5t-32.5 -174q0 -90 26.5 -160t79.5 -110.5t132 -40.5q36 0 77 8.5t77 24.5v70q0 44 -1.5 78t-5.5 69z" />
<glyph unicode="&#x1f5;" horiz-adv-x="474" d="M310 736l3 -8q-31 -46 -71.5 -82.5t-90.5 -68.5l-10 13q38 38 72.5 79.5t57.5 82.5zM123 84q0 22 9 41.5t24 34.5q-43 19 -68.5 60t-25.5 100q0 50 18.5 92t55 67.5t89.5 25.5q31 0 55.5 -9.5t39.5 -20.5q20 13 49.5 21.5t56.5 8.5h7v-47h-93q18 -19 32 -50.5t14 -76.5 q0 -50 -18.5 -92t-54 -67.5t-88.5 -25.5q-20 0 -39 4q-11 -11 -17 -25.5t-6 -32.5q0 -23 13.5 -37t48.5 -17l81 -6q35 -2 66.5 -14t51.5 -37t20 -66q0 -42 -24.5 -81t-73 -64t-120.5 -25q-91 0 -143.5 39.5t-52.5 95.5q0 37 18.5 61t32.5 34l23 -11q-11 -13 -22 -32.5 t-11 -43.5q0 -41 40 -74.5t118 -33.5q80 0 127 37t47 90q0 41 -28.5 63.5t-73.5 25.5l-73 5q-55 4 -80 26.5t-25 56.5zM344 323q0 67 -30.5 107t-89.5 40q-60 0 -90 -38t-30 -106q0 -65 30.5 -105t91.5 -40q59 0 88.5 38t29.5 104z" />
<glyph unicode="&#x1fa;" horiz-adv-x="599" d="M416 1086l-1 -8q-50 -31 -105.5 -49.5t-118.5 -28.5l-7 17q56 20 108.5 45t93.5 55zM378 837q0 -31 -23.5 -54t-57.5 -23q-28 0 -51.5 19.5t-23.5 49.5q0 32 24 54.5t58 22.5q32 0 53 -20t21 -49zM256 832q0 -20 12.5 -32.5t31.5 -12.5q20 0 32 14t12 33t-11 32t-32 13 q-20 0 -32.5 -13.5t-12.5 -33.5zM71 0h-41l218 592q10 27 19.5 53.5t15.5 46.5l27 3l5 -5l254 -690h-44l-82 222h-290zM232 437l-66 -179h264l-66 179q-18 50 -36 100.5t-29 99.5h-1q-12 -49 -30 -99.5t-36 -100.5z" />
<glyph unicode="&#x1fb;" horiz-adv-x="496" d="M315 961l3 -8q-31 -46 -71.5 -82.5t-90.5 -68.5l-10 13q38 38 72.5 79.5t57.5 82.5zM310 651q0 -31 -23.5 -54t-57.5 -23q-28 0 -51.5 19.5t-23.5 49.5q0 32 24 54.5t58 22.5q32 0 53 -20t21 -49zM188 646q0 -20 12.5 -32.5t31.5 -12.5q20 0 32 14t12 33t-11 32t-32 13 q-20 0 -32.5 -13.5t-12.5 -33.5zM385 148q0 -37 4.5 -70.5t20.5 -77.5l-40 -10q-7 14 -13 33t-9 37v0q-21 -25 -62.5 -47.5t-93.5 -22.5q-62 0 -94.5 34t-32.5 82q0 43 23.5 74.5t63.5 52.5t90 32.5t103 15.5v78q0 53 -27 81.5t-84 28.5q-40 0 -79.5 -13.5t-72.5 -35.5 l-3 40q31 17 73 31t88 14q72 0 109 -36.5t37 -94.5v-79.5t-0.5 -86t-0.5 -60.5zM108 110q0 -31 21 -57.5t67 -26.5q40 0 82 21.5t67 50.5v149q-64 -4 -118 -20.5t-86.5 -45t-32.5 -71.5z" />
<glyph unicode="&#x1fc;" horiz-adv-x="833" d="M553 865l-1 -8q-50 -31 -105.5 -49.5t-118.5 -28.5l-7 17q56 20 108.5 45t93.5 55zM71 0h-41l292 592q14 27 25.5 50l21.5 43h304l5 -5v-34l-268 4l44 -292l225 2v-39l-219 2l44 -288l284 4v-39h-323l-33 222h-253zM284 437l-87 -179h230l-26 179q-7 47 -13.5 97.5 t-8.5 102.5h-1q-16 -40 -42.5 -95t-51.5 -105z" />
<glyph unicode="&#x1fd;" horiz-adv-x="772" d="M469 736l3 -8q-31 -46 -71.5 -82.5t-90.5 -68.5l-10 13q38 38 72.5 79.5t57.5 82.5zM704 261l-15 -15h-301q1 -109 47.5 -164.5t119.5 -55.5q39 0 73.5 14t62.5 33l4 -36q-19 -15 -57.5 -31t-88.5 -16q-58 0 -103 27.5t-71 78.5q-16 -26 -45 -50.5t-65.5 -40t-76.5 -15.5 q-58 0 -90.5 34t-32.5 83q0 43 23.5 74t63.5 52t90 32.5t103 15.5v78q0 53 -27 81.5t-84 28.5q-40 0 -79.5 -13.5t-72.5 -35.5l-3 40q31 17 73 31t88 14q62 0 98 -27.5t45 -72.5q29 50 72.5 75t92.5 25q71 0 114 -49.5t43 -133.5v-30t-1 -31zM544 469q-38 0 -71.5 -21 t-56 -63.5t-27.5 -108.5l273 7q1 9 1 18v18q0 69 -31.5 109.5t-87.5 40.5zM108 110q0 -31 21 -57.5t67 -26.5q34 0 67 14t59.5 36t41.5 48q-19 52 -19 118v5q-64 -4 -118 -20.5t-86.5 -45t-32.5 -71.5z" />
<glyph unicode="&#x1fe;" horiz-adv-x="694" d="M470 865l-1 -8q-50 -31 -105.5 -49.5t-118.5 -28.5l-7 17q56 20 108.5 45t93.5 55zM614 344q0 -116 -37.5 -195t-99 -119t-135.5 -40q-58 0 -108.5 25.5t-85.5 73.5l-78 -89l-25 22l84 96q-23 42 -36 95.5t-13 118.5q0 113 37 194.5t99 125t138 43.5q118 0 190 -99l78 90 l26 -21l-85 -98q24 -43 37.5 -99t13.5 -124zM125 338q0 -107 35 -183l356 409q-28 44 -69 68.5t-93 24.5q-64 0 -116 -37.5t-82.5 -108.5t-30.5 -173zM569 341q0 112 -36 191l-356 -409q29 -45 72 -70t97 -25q65 0 115 35.5t79 105.5t29 172z" />
<glyph unicode="&#x1ff;" horiz-adv-x="556" d="M361 736l3 -8q-31 -46 -71.5 -82.5t-90.5 -68.5l-10 13q38 38 72.5 79.5t57.5 82.5zM481 251q0 -86 -29 -144.5t-76 -87.5t-103 -29q-92 0 -147 73l-57 -61l-23 22l63 67q-17 30 -25.5 68.5t-8.5 84.5q0 87 29 145t76.5 87t102.5 29q91 0 146 -71l56 60l24 -22l-62 -67 q16 -30 25 -69t9 -85zM118 248q0 -71 22 -124l260 279q-20 31 -50 48.5t-69 17.5q-69 0 -116 -55.5t-47 -165.5zM438 247q0 73 -22 125l-261 -278q20 -32 50 -50t70 -18q69 0 116 56t47 165z" />
<glyph unicode="&#x218;" horiz-adv-x="501" d="M436 162q0 -79 -57 -125.5t-151 -46.5q-32 0 -76 7.5t-87 27.5l8 43q41 -24 85 -32t74 -8q77 0 119 36.5t42 93.5q0 46 -22.5 77t-58 53.5t-74.5 42.5q-41 22 -79 46t-62.5 58.5t-24.5 86.5q0 79 57 126t148 47q40 0 81 -9t70 -24l-8 -43q-37 23 -76 30.5t-68 7.5 q-76 0 -118.5 -35t-42.5 -92q0 -45 24.5 -75.5t62 -52.5t75.5 -43q37 -19 73.5 -44.5t61 -62t24.5 -90.5zM220 -306q12 25 21 48t14 46h-2q-16 0 -26.5 13t-10.5 30t10 32.5t31 15.5q19 0 29 -13t10 -36q0 -34 -17 -74t-39 -73z" />
<glyph unicode="&#x219;" horiz-adv-x="435" d="M356 473l-8 -41q-25 17 -52.5 27t-62.5 10q-55 0 -87 -25.5t-32 -65.5q0 -32 18.5 -53.5t47.5 -37.5t62 -30.5t62 -32t47.5 -42.5t18.5 -62q0 -56 -46 -93t-121 -37q-31 0 -67.5 7.5t-70.5 24.5l8 41q32 -19 68 -28t67 -9q58 0 88.5 26t30.5 63q0 31 -18.5 51.5t-47.5 36 t-62 29.5t-62 32t-47.5 43.5t-18.5 63.5q0 59 45.5 96.5t119.5 37.5q38 0 67 -9.5t53 -22.5zM186 -306q12 25 21 48t14 46h-2q-16 0 -26.5 13t-10.5 30t10 32.5t31 15.5q19 0 29 -13t10 -36q0 -34 -17 -74t-39 -73z" />
<glyph unicode="&#x21a;" horiz-adv-x="521" d="M282 0h-42v650q-53 0 -107 -1.5t-108 -3.5l3 40h465l3 -40q-54 2 -107.5 3.5t-106.5 1.5v-650zM222 -306q12 25 21 48t14 46h-2q-16 0 -26.5 13t-10.5 30t10 32.5t31 15.5q19 0 29 -13t10 -36q0 -34 -17 -74t-39 -73z" />
<glyph unicode="&#x21b;" horiz-adv-x="341" d="M288 462h-138v-311q0 -70 20.5 -97.5t60.5 -27.5q23 0 43.5 7t37.5 18l9 -33q-19 -12 -44 -20t-54 -8q-56 0 -84.5 35.5t-28.5 115.5v321h-76v26l76 7l9 112l29 4l5 -5l-3 -111h135l5 -5zM169 -306q12 25 21 48t14 46h-2q-16 0 -26.5 13t-10.5 30t10 32.5t31 15.5 q19 0 29 -13t10 -36q0 -34 -17 -74t-39 -73z" />
<glyph unicode="&#x232;" horiz-adv-x="552" d="M149 817v39h254v-39h-254zM255 256l-225 435l44 4l136 -260q17 -30 35.5 -67t31.5 -71h1q35 76 70 140l133 258l36 -5l5 -5l-225 -433v-252h-42v256z" />
<glyph unicode="&#x233;" horiz-adv-x="447" d="M97 646v34h264v-34h-264zM427 495l-188 -500q-23 -63 -56 -116.5t-73 -88.5t-87 -45l-8 47q60 11 107.5 64t87.5 162v1l-180 482l40 4l87 -233q24 -62 37.5 -99.5t21.5 -64t13 -57.5h1q7 31 15 57.5t22 64t37 99.5l87 233l31 -5z" />
<glyph unicode="&#x237;" horiz-adv-x="260" d="M33 -255l-12 25q36 22 62.5 62.5t26.5 107.5v408q0 43 -2 77t-5 70l42 10l5 -5v-551q0 -82 -32.5 -130.5t-84.5 -73.5z" />
<glyph unicode="&#x259;" horiz-adv-x="502" d="M68 234l15 15h301v15q0 61 -14 107t-46.5 72t-88.5 26q-43 0 -82.5 -13.5t-71.5 -33.5l-4 36q11 9 35.5 20t58 19t70.5 8q68 0 109 -31t59 -84.5t18 -123.5q0 -97 -29 -158t-75 -89.5t-98 -28.5q-72 0 -115 49.5t-43 133.5v30t1 31zM109 176q0 -69 32 -109.5t88 -40.5 q36 0 69 19t55.5 61.5t28.5 112.5l-272 -7q-1 -9 -1 -18v-18z" />
<glyph unicode="&#x272;" d="M33 -255l-12 25q36 22 62.5 62.5t26.5 107.5v410q0 47 -4.5 78t-15.5 64l36 13q7 -17 13 -38t9 -38q38 36 81 56t90 20q62 0 96.5 -35.5t34.5 -106.5v-363h-40v353q0 116 -100 116q-40 0 -81 -20t-79 -55v-445q0 -82 -32.5 -130.5t-84.5 -73.5z" />
<glyph unicode="&#x2c6;" horiz-adv-x="355" d="M63 579l-13 11q27 37 52.5 75t47.5 79l43 5q25 -41 53 -81t59 -78l-13 -11q-31 29 -61.5 61t-58.5 65q-51 -64 -109 -126z" />
<glyph unicode="&#x2c7;" horiz-adv-x="355" d="M292 762l13 -11q-27 -37 -52 -75t-48 -79l-43 -5q-25 41 -53 81t-59 78l13 11q31 -29 61.5 -61t58.5 -65q51 64 109 126z" />
<glyph unicode="&#x2d8;" horiz-adv-x="338" d="M265 730l23 -3q-11 -58 -43.5 -90t-78.5 -32q-45 0 -76.5 32t-39.5 90l22 3q11 -38 36.5 -60t62.5 -22q33 0 58 22.5t36 59.5z" />
<glyph unicode="&#x2d9;" horiz-adv-x="172" d="M122 665q0 -17 -8.5 -32t-28.5 -15q-16 0 -25.5 12.5t-9.5 30.5t10.5 32.5t27.5 14.5t25.5 -12t8.5 -31z" />
<glyph unicode="&#x2da;" horiz-adv-x="256" d="M206 667q0 -31 -23.5 -54t-57.5 -23q-28 0 -51.5 19.5t-23.5 49.5q0 32 24 54.5t58 22.5q32 0 53 -20t21 -49zM84 662q0 -20 12.5 -32.5t31.5 -12.5q20 0 32 14t12 33t-11 32t-32 13q-20 0 -32.5 -13.5t-12.5 -33.5z" />
<glyph unicode="&#x2db;" horiz-adv-x="365" d="M268 0q-111 -64 -111 -127q0 -52 56 -52q11 0 24.5 2.5t31.5 9.5l9 -22q-14 -11 -34 -17t-40 -6q-42 0 -65.5 19.5t-23.5 54.5q0 82 132 149z" />
<glyph unicode="&#x2dc;" horiz-adv-x="402" d="M134 710q25 0 46.5 -14t42 -28t40.5 -14q21 0 36.5 17.5t26.5 39.5l16 -3q-4 -21 -15 -42.5t-28 -35.5t-41 -14q-25 0 -47 14t-41.5 28t-40.5 14t-36.5 -17t-26.5 -40l-16 3q5 20 15.5 41t27.5 36t41 15z" />
<glyph unicode="&#x2dd;" horiz-adv-x="364" d="M213 742l3 -8q-31 -46 -69.5 -83.5t-86.5 -70.5l-10 13q38 36 72.5 78t57.5 84zM327 742l3 -8q-31 -46 -69.5 -83.5t-86.5 -70.5l-10 13q38 36 72.5 78t57.5 84z" />
<glyph unicode="&#x394;" horiz-adv-x="580" d="M272 690h35l243 -670l-2 -20h-516l-2 20zM73 33h430l-215 583z" />
<glyph unicode="&#x3a9;" horiz-adv-x="718" d="M292 0h-242l-5 36l5 5l202 -16q-44 34 -80.5 88t-58.5 121.5t-22 140.5q0 92 35.5 164t96 114t136.5 42t136.5 -42t96 -114t35.5 -164q0 -73 -22 -140.5t-58.5 -121.5t-80.5 -88l202 16l5 -5l-5 -36h-242l-3 23q48 39 83.5 94t55.5 119.5t20 131.5q0 83 -29.5 148 t-80 103t-113.5 38q-62 0 -113 -38t-80.5 -103t-29.5 -148q0 -67 20 -131.5t55.5 -119.5t83.5 -94z" />
<glyph unicode="&#x3bc;" horiz-adv-x="553" d="M110 350q0 42 -1.5 76t-3.5 69l40 10l5 -5v-368q0 -51 24 -78.5t69 -27.5q76 0 155 77v392l40 10v-360q0 -47 5 -78t15 -64l-36 -13q-7 17 -13 38t-9 38q-37 -37 -78.5 -56.5t-83.5 -19.5q-67 0 -100 52q4 -30 6.5 -69.5t4.5 -81t3.5 -77.5t4.5 -59l-42 -10l-5 5v600z " />
<glyph unicode="&#x3c0;" horiz-adv-x="606" d="M136 0v472l-120 -1l10 30l555 4l5 -5l-6 -25l-104 -1v-408q0 -19 7.5 -29.5t26.5 -10.5q8 0 20 2t23 5l-1 -33q-27 -10 -50 -10q-28 0 -47 16t-19 52v416l-260 -2v-472h-40z" />
<glyph unicode="&#x1e0c;" horiz-adv-x="677" d="M597 344q0 -108 -42 -185t-118 -118t-177 -41h-145v538q0 44 -1.5 78t-5.5 69h162q89 0 163.5 -40.5t119 -116.5t44.5 -184zM264 649h-107v-613h101q142 0 218 80t76 226q0 97 -36.5 165.5t-101 105t-150.5 36.5zM372 -159q0 -17 -8.5 -32t-28.5 -15q-16 0 -25.5 12.5 t-9.5 30.5t10.5 32.5t27.5 14.5t25.5 -12t8.5 -31z" />
<glyph unicode="&#x1e0d;" horiz-adv-x="558" d="M401 745l42 10l5 -5v-608q0 -38 5.5 -71t20.5 -71l-40 -10q-7 14 -12.5 33t-9.5 36q-18 -26 -52.5 -47.5t-86.5 -21.5q-58 0 -102.5 30.5t-70 87t-25.5 133.5q0 87 31 146t82.5 88.5t111.5 29.5q34 0 62 -8t46 -17v118q0 44 -1 77.5t-6 69.5zM118 243q0 -103 44 -160 t116 -57q48 0 79.5 22t50.5 48v347q-24 12 -55 19t-58 7q-47 0 -87.5 -24t-65 -73.5t-24.5 -128.5zM313 -159q0 -17 -8.5 -32t-28.5 -15q-16 0 -25.5 12.5t-9.5 30.5t10.5 32.5t27.5 14.5t25.5 -12t8.5 -31z" />
<glyph unicode="&#x1e24;" horiz-adv-x="701" d="M157 0h-42v538q0 44 -1.5 78t-5.5 69l44 10l5 -5v-331h387v179q0 44 -1.5 78t-5.5 69l44 10l5 -5v-690h-42v323h-387v-323zM387 -159q0 -17 -8.5 -32t-28.5 -15q-16 0 -25.5 12.5t-9.5 30.5t10.5 32.5t27.5 14.5t25.5 -12t8.5 -31z" />
<glyph unicode="&#x1e25;" d="M150 0h-40v598q0 44 -1 77.5t-6 69.5l42 10l5 -5v-319q38 35 80.5 54.5t88.5 19.5q62 0 96.5 -35.5t34.5 -106.5v-363h-40v353q0 116 -100 116q-40 0 -81 -19.5t-79 -53.5v-396zM323 -159q0 -17 -8.5 -32t-28.5 -15q-16 0 -25.5 12.5t-9.5 30.5t10.5 32.5t27.5 14.5 t25.5 -12t8.5 -31z" />
<glyph unicode="&#x1e44;" horiz-adv-x="701" d="M387 846q0 -16 -9.5 -29.5t-31.5 -13.5q-19 0 -29 11.5t-10 27.5q0 17 11.5 30t30.5 13t28.5 -11t9.5 -28zM349 384q43 -68 77.5 -122.5t64.5 -104.5t56 -106h1q-1 24 -1.5 46t-1 52.5t-1 78.5t-0.5 123v187q0 44 -1.5 78t-5.5 69l44 10l5 -5v-690h-45 q-49 78 -97.5 155.5t-97.5 155.5q-42 68 -75.5 120.5t-61.5 100.5t-55 102h-1q3 -66 3.5 -128t0.5 -124v-382h-42v538q0 44 -1.5 78t-5.5 69l46 10q50 -78 99 -156t96 -155z" />
<glyph unicode="&#x1e45;" horiz-adv-x="565" d="M311 668q0 -17 -8.5 -32t-28.5 -15q-16 0 -25.5 12.5t-9.5 30.5t10.5 32.5t27.5 14.5t25.5 -12t8.5 -31zM155 0h-40v350q0 47 -4.5 78t-15.5 64l36 13q7 -17 13 -38t9 -38q38 36 81 56t90 20q62 0 96.5 -35.5t34.5 -106.5v-363h-40v353q0 116 -100 116q-40 0 -81 -20 t-79 -55v-394z" />
<glyph unicode="&#x1e5a;" horiz-adv-x="574" d="M157 0h-42v538q0 44 -1.5 78t-5.5 69h155q70 0 122 -25.5t81 -71t29 -106.5q0 -71 -39 -117t-105 -65l173 -300l-39 -10q-43 74 -85.5 148.5t-85.5 148.5h-157v-287zM261 650h-104v-328h100q90 0 141.5 40.5t51.5 119.5q0 47 -19.5 85t-61.5 60.5t-108 22.5zM335 -159 q0 -17 -8.5 -32t-28.5 -15q-16 0 -25.5 12.5t-9.5 30.5t10.5 32.5t27.5 14.5t25.5 -12t8.5 -31z" />
<glyph unicode="&#x1e5b;" horiz-adv-x="373" d="M155 0h-40v350q0 47 -4.5 78t-15.5 64l36 13q7 -17 13 -38t9 -38q39 36 80 56t73 20q16 0 28 -4t19 -9l-15 -35q-7 3 -16 5.5t-21 2.5q-25 0 -65 -17.5t-81 -55.5v-392zM172 -159q0 -17 -8.5 -32t-28.5 -15q-16 0 -25.5 12.5t-9.5 30.5t10.5 32.5t27.5 14.5t25.5 -12 t8.5 -31z" />
<glyph unicode="&#x1e62;" horiz-adv-x="501" d="M436 162q0 -79 -57 -125.5t-151 -46.5q-32 0 -76 7.5t-87 27.5l8 43q41 -24 85 -32t74 -8q77 0 119 36.5t42 93.5q0 46 -22.5 77t-58 53.5t-74.5 42.5q-41 22 -79 46t-62.5 58.5t-24.5 86.5q0 79 57 126t148 47q40 0 81 -9t70 -24l-8 -43q-37 23 -76 30.5t-68 7.5 q-76 0 -118.5 -35t-42.5 -92q0 -45 24.5 -75.5t62 -52.5t75.5 -43q37 -19 73.5 -44.5t61 -62t24.5 -90.5zM297 -159q0 -17 -8.5 -32t-28.5 -15q-16 0 -25.5 12.5t-9.5 30.5t10.5 32.5t27.5 14.5t25.5 -12t8.5 -31z" />
<glyph unicode="&#x1e63;" horiz-adv-x="435" d="M356 473l-8 -41q-25 17 -52.5 27t-62.5 10q-55 0 -87 -25.5t-32 -65.5q0 -32 18.5 -53.5t47.5 -37.5t62 -30.5t62 -32t47.5 -42.5t18.5 -62q0 -56 -46 -93t-121 -37q-31 0 -67.5 7.5t-70.5 24.5l8 41q32 -19 68 -28t67 -9q58 0 88.5 26t30.5 63q0 31 -18.5 51.5t-47.5 36 t-62 29.5t-62 32t-47.5 43.5t-18.5 63.5q0 59 45.5 96.5t119.5 37.5q38 0 67 -9.5t53 -22.5zM263 -159q0 -17 -8.5 -32t-28.5 -15q-16 0 -25.5 12.5t-9.5 30.5t10.5 32.5t27.5 14.5t25.5 -12t8.5 -31z" />
<glyph unicode="&#x1e6c;" horiz-adv-x="521" d="M282 0h-42v650q-53 0 -107 -1.5t-108 -3.5l3 40h465l3 -40q-54 2 -107.5 3.5t-106.5 1.5v-650zM299 -159q0 -17 -8.5 -32t-28.5 -15q-16 0 -25.5 12.5t-9.5 30.5t10.5 32.5t27.5 14.5t25.5 -12t8.5 -31z" />
<glyph unicode="&#x1e6d;" horiz-adv-x="341" d="M288 462h-138v-311q0 -70 20.5 -97.5t60.5 -27.5q23 0 43.5 7t37.5 18l9 -33q-19 -12 -44 -20t-54 -8q-56 0 -84.5 35.5t-28.5 115.5v321h-76v26l76 7l9 112l29 4l5 -5l-3 -111h135l5 -5zM246 -159q0 -17 -8.5 -32t-28.5 -15q-16 0 -25.5 12.5t-9.5 30.5t10.5 32.5 t27.5 14.5t25.5 -12t8.5 -31z" />
<glyph unicode="&#x1e80;" horiz-adv-x="986" d="M602 779q-63 10 -118.5 28.5t-105.5 49.5l-1 8l30 31q41 -30 94 -55t108 -45zM265 -5l-225 695l40 5l139 -428q20 -61 35.5 -112.5t23.5 -102.5q9 51 28.5 115.5t38.5 122.5l129 401l39 4l139 -428q20 -61 35.5 -112.5t23.5 -102.5q9 51 28 114t38 121l132 408l32 -5 l5 -5l-223 -690h-25l-159 492q-11 35 -22.5 71.5t-22.5 79.5h-1q-10 -43 -22 -79.5t-23 -71.5l-158 -492h-25z" />
<glyph unicode="&#x1e81;" horiz-adv-x="740" d="M444 580q-50 32 -90 68.5t-72 82.5l3 8l39 16q23 -41 58 -82.5t72 -79.5zM203 -5l-173 506l40 4l78 -229q20 -58 32 -98t20 -69t14 -57h1q8 36 16 65t19 64t29 87l81 237h24l77 -226q18 -52 39 -114t28 -112h1q11 53 29.5 110.5t36.5 110.5l79 231l31 -5l5 -5l-171 -500 h-21l-89 258q-22 65 -36 107.5t-22 86.5h-1q-7 -45 -22 -91t-34 -101l-89 -260h-22z" />
<glyph unicode="&#x1e82;" horiz-adv-x="986" d="M609 865l-1 -8q-50 -31 -105.5 -49.5t-118.5 -28.5l-7 17q56 20 108.5 45t93.5 55zM265 -5l-225 695l40 5l139 -428q20 -61 35.5 -112.5t23.5 -102.5q9 51 28.5 115.5t38.5 122.5l129 401l39 4l139 -428q20 -61 35.5 -112.5t23.5 -102.5q9 51 28 114t38 121l132 408 l32 -5l5 -5l-223 -690h-25l-159 492q-11 35 -22.5 71.5t-22.5 79.5h-1q-10 -43 -22 -79.5t-23 -71.5l-158 -492h-25z" />
<glyph unicode="&#x1e83;" horiz-adv-x="740" d="M451 736l3 -8q-31 -46 -71.5 -82.5t-90.5 -68.5l-10 13q38 38 72.5 79.5t57.5 82.5zM203 -5l-173 506l40 4l78 -229q20 -58 32 -98t20 -69t14 -57h1q8 36 16 65t19 64t29 87l81 237h24l77 -226q18 -52 39 -114t28 -112h1q11 53 29.5 110.5t36.5 110.5l79 231l31 -5l5 -5 l-171 -500h-21l-89 258q-22 65 -36 107.5t-22 86.5h-1q-7 -45 -22 -91t-34 -101l-89 -260h-22z" />
<glyph unicode="&#x1e84;" horiz-adv-x="986" d="M626 839q0 -17 -9.5 -32t-29.5 -15q-17 0 -27 12t-10 28q0 17 11 31t29 14q17 0 26.5 -10.5t9.5 -27.5zM436 839q0 -17 -9.5 -32t-29.5 -15q-17 0 -27 12t-10 28q0 17 11 31t29 14q17 0 26.5 -10.5t9.5 -27.5zM265 -5l-225 695l40 5l139 -428q20 -61 35.5 -112.5 t23.5 -102.5q9 51 28.5 115.5t38.5 122.5l129 401l39 4l139 -428q20 -61 35.5 -112.5t23.5 -102.5q9 51 28 114t38 121l132 408l32 -5l5 -5l-223 -690h-25l-159 492q-11 35 -22.5 71.5t-22.5 79.5h-1q-10 -43 -22 -79.5t-23 -71.5l-158 -492h-25z" />
<glyph unicode="&#x1e85;" horiz-adv-x="740" d="M309 667q0 -18 -8.5 -33.5t-27.5 -15.5q-16 0 -25 12.5t-9 29.5q0 19 10.5 33.5t26.5 14.5t24.5 -11.5t8.5 -29.5zM497 667q0 -18 -8.5 -33.5t-27.5 -15.5q-16 0 -25 12.5t-9 29.5q0 19 10.5 33.5t26.5 14.5t24.5 -11.5t8.5 -29.5zM203 -5l-173 506l40 4l78 -229 q20 -58 32 -98t20 -69t14 -57h1q8 36 16 65t19 64t29 87l81 237h24l77 -226q18 -52 39 -114t28 -112h1q11 53 29.5 110.5t36.5 110.5l79 231l31 -5l5 -5l-171 -500h-21l-89 258q-22 65 -36 107.5t-22 86.5h-1q-7 -45 -22 -91t-34 -101l-89 -260h-22z" />
<glyph unicode="&#x1e92;" horiz-adv-x="498" d="M37 0l-7 25l379 625l-368 -3l3 38h407l10 -25l-379 -625l386 4l-3 -39h-428zM297 -159q0 -17 -8.5 -32t-28.5 -15q-16 0 -25.5 12.5t-9.5 30.5t10.5 32.5t27.5 14.5t25.5 -12t8.5 -31z" />
<glyph unicode="&#x1e93;" horiz-adv-x="425" d="M38 458l3 37h340l4 -25l-305 -438l162 3q37 1 74 1.5t74 2.5l-3 -39h-348l-4 25l305 438zM249 -159q0 -17 -8.5 -32t-28.5 -15q-16 0 -25.5 12.5t-9.5 30.5t10.5 32.5t27.5 14.5t25.5 -12t8.5 -31z" />
<glyph unicode="&#x1e9e;" horiz-adv-x="603" d="M102 77v388q0 77 29.5 128t79.5 76.5t112 25.5q57 0 105 -23t76 -67l-181 -216q57 -22 106 -50.5t79 -70t30 -102.5q0 -52 -23.5 -91.5t-66 -62t-98.5 -22.5q-26 0 -56.5 6t-59.5 19v43q30 -17 62.5 -23.5t56.5 -6.5q68 0 105 38t37 98q0 53 -28 90t-77.5 63t-112.5 46 v23l175 212q-27 36 -59 47.5t-65 11.5q-85 0 -134.5 -52t-49.5 -137v-390q0 -22 -4 -46.5t-10 -41.5l-40 10q5 17 8.5 37.5t3.5 39.5z" />
<glyph unicode="&#x1ea0;" horiz-adv-x="599" d="M71 0h-41l218 592q10 27 19.5 53.5t15.5 46.5l27 3l5 -5l254 -690h-44l-82 222h-290zM232 437l-66 -179h264l-66 179q-18 50 -36 100.5t-29 99.5h-1q-12 -49 -30 -99.5t-36 -100.5zM336 -159q0 -17 -8.5 -32t-28.5 -15q-16 0 -25.5 12.5t-9.5 30.5t10.5 32.5t27.5 14.5 t25.5 -12t8.5 -31z" />
<glyph unicode="&#x1ea1;" horiz-adv-x="496" d="M385 148q0 -37 4.5 -70.5t20.5 -77.5l-40 -10q-7 14 -13 33t-9 37v0q-21 -25 -62.5 -47.5t-93.5 -22.5q-62 0 -94.5 34t-32.5 82q0 43 23.5 74.5t63.5 52.5t90 32.5t103 15.5v78q0 53 -27 81.5t-84 28.5q-40 0 -79.5 -13.5t-72.5 -35.5l-3 40q31 17 73 31t88 14 q72 0 109 -36.5t37 -94.5v-79.5t-0.5 -86t-0.5 -60.5zM108 110q0 -31 21 -57.5t67 -26.5q40 0 82 21.5t67 50.5v149q-64 -4 -118 -20.5t-86.5 -45t-32.5 -71.5zM281 -159q0 -17 -8.5 -32t-28.5 -15q-16 0 -25.5 12.5t-9.5 30.5t10.5 32.5t27.5 14.5t25.5 -12t8.5 -31z" />
<glyph unicode="&#x1eb8;" horiz-adv-x="510" d="M465 39v-39h-350v538q0 44 -1.5 78t-5.5 69h342l5 -5v-34l-298 4v-292l256 2v-39l-256 2v-288zM338 -159q0 -17 -8.5 -32t-28.5 -15q-16 0 -25.5 12.5t-9.5 30.5t10.5 32.5t27.5 14.5t25.5 -12t8.5 -31z" />
<glyph unicode="&#x1eb9;" horiz-adv-x="502" d="M434 261l-15 -15h-301q1 -109 47.5 -164.5t119.5 -55.5q39 0 73.5 14t62.5 33l4 -36q-19 -15 -57.5 -31t-88.5 -16q-91 0 -147.5 66t-56.5 186q0 88 29 146t75.5 87.5t98.5 29.5q71 0 114 -49.5t43 -133.5v-30t-1 -31zM274 469q-38 0 -71.5 -21t-56 -63.5t-27.5 -108.5 l273 7q1 9 1 18v18q0 69 -31.5 109.5t-87.5 40.5zM311 -159q0 -17 -8.5 -32t-28.5 -15q-16 0 -25.5 12.5t-9.5 30.5t10.5 32.5t27.5 14.5t25.5 -12t8.5 -31z" />
<glyph unicode="&#x1ebc;" horiz-adv-x="510" d="M214 890q28 0 51 -14t45 -28t45 -14q25 0 42 17.5t28 39.5l16 -3q-5 -34 -28 -63t-63 -29q-28 0 -51.5 14t-44.5 28t-45 14q-25 0 -42 -17t-28 -40l-16 3q4 20 15 41t30 36t46 15zM465 39v-39h-350v538q0 44 -1.5 78t-5.5 69h342l5 -5v-34l-298 4v-292l256 2v-39l-256 2 v-288z" />
<glyph unicode="&#x1ebd;" horiz-adv-x="502" d="M203 710q25 0 46.5 -14t42 -28t40.5 -14q21 0 36.5 17.5t26.5 39.5l16 -3q-4 -21 -15 -42.5t-28 -35.5t-41 -14q-25 0 -47 14t-41.5 28t-40.5 14t-36.5 -17t-26.5 -40l-16 3q5 20 15.5 41t27.5 36t41 15zM434 261l-15 -15h-301q1 -109 47.5 -164.5t119.5 -55.5 q39 0 73.5 14t62.5 33l4 -36q-19 -15 -57.5 -31t-88.5 -16q-91 0 -147.5 66t-56.5 186q0 88 29 146t75.5 87.5t98.5 29.5q71 0 114 -49.5t43 -133.5v-30t-1 -31zM274 469q-38 0 -71.5 -21t-56 -63.5t-27.5 -108.5l273 7q1 9 1 18v18q0 69 -31.5 109.5t-87.5 40.5z" />
<glyph unicode="&#x1eca;" horiz-adv-x="272" d="M157 0h-42v538q0 44 -1.5 78t-5.5 69l44 10l5 -5v-690zM172 -159q0 -17 -8.5 -32t-28.5 -15q-16 0 -25.5 12.5t-9.5 30.5t10.5 32.5t27.5 14.5t25.5 -12t8.5 -31z" />
<glyph unicode="&#x1ecb;" horiz-adv-x="260" d="M161 668q0 -17 -8.5 -32t-28.5 -15q-16 0 -25.5 12.5t-9.5 30.5t10.5 32.5t27.5 14.5t25.5 -12t8.5 -31zM110 0v348q0 43 -1 77t-6 70l42 10l5 -5v-500h-40zM167 -159q0 -17 -8.5 -32t-28.5 -15q-16 0 -25.5 12.5t-9.5 30.5t10.5 32.5t27.5 14.5t25.5 -12t8.5 -31z" />
<glyph unicode="&#x1ecc;" horiz-adv-x="694" d="M614 344q0 -116 -37.5 -195t-99 -119t-135.5 -40q-73 0 -132.5 39.5t-94.5 116t-35 186.5q0 113 37 194.5t99 125t138 43.5q74 0 133 -41.5t93 -120t34 -189.5zM125 338q0 -94 27 -164t77 -108t117 -38q65 0 115 35.5t79 105.5t29 172q0 95 -26 166t-74 110.5t-115 39.5 q-64 0 -116 -37.5t-82.5 -108.5t-30.5 -173zM390 -159q0 -17 -8.5 -32t-28.5 -15q-16 0 -25.5 12.5t-9.5 30.5t10.5 32.5t27.5 14.5t25.5 -12t8.5 -31z" />
<glyph unicode="&#x1ecd;" horiz-adv-x="556" d="M481 251q0 -86 -29 -144.5t-76 -87.5t-103 -29q-58 0 -102.5 30.5t-70 87.5t-25.5 136q0 87 29 145t76.5 87t102.5 29q58 0 102.5 -30.5t70 -87t25.5 -136.5zM118 248q0 -65 18 -115t53.5 -78.5t85.5 -28.5q69 0 116 56t47 165q0 65 -18 115t-53 78.5t-86 28.5 q-69 0 -116 -55.5t-47 -165.5zM314 -159q0 -17 -8.5 -32t-28.5 -15q-16 0 -25.5 12.5t-9.5 30.5t10.5 32.5t27.5 14.5t25.5 -12t8.5 -31z" />
<glyph unicode="&#x1ee4;" horiz-adv-x="644" d="M100 540q0 44 -2.5 78t-7.5 69l52 8v-478q0 -61 24.5 -103.5t65.5 -64t90 -21.5q50 0 90.5 21t65 63.5t24.5 104.5v323q0 44 -2.5 78t-7.5 69l52 8v-475q0 -76 -30.5 -127.5t-82 -77t-114.5 -25.5q-60 0 -109.5 26t-78.5 77t-29 127v320zM358 -159q0 -17 -8.5 -32 t-28.5 -15q-16 0 -25.5 12.5t-9.5 30.5t10.5 32.5t27.5 14.5t25.5 -12t8.5 -31z" />
<glyph unicode="&#x1ee5;" horiz-adv-x="553" d="M110 348q0 44 -1.5 78t-3.5 69l40 10l5 -5v-368q0 -50 24 -78t72 -28q73 0 152 77v392l40 10v-360q0 -47 5 -78t15 -64l-36 -13q-7 17 -13 38t-9 38q-37 -37 -78.5 -56.5t-83.5 -19.5q-62 0 -95 34t-33 98v226zM311 -159q0 -17 -8.5 -32t-28.5 -15q-16 0 -25.5 12.5 t-9.5 30.5t10.5 32.5t27.5 14.5t25.5 -12t8.5 -31z" />
<glyph unicode="&#x1ef2;" horiz-adv-x="552" d="M385 779q-63 10 -118.5 28.5t-105.5 49.5l-1 8l30 31q41 -30 94 -55t108 -45zM255 256l-225 435l44 4l136 -260q17 -30 35.5 -67t31.5 -71h1q35 76 70 140l133 258l36 -5l5 -5l-225 -433v-252h-42v256z" />
<glyph unicode="&#x1ef3;" horiz-adv-x="447" d="M305 580q-50 32 -90 68.5t-72 82.5l3 8l39 16q23 -41 58 -82.5t72 -79.5zM427 495l-188 -500q-23 -63 -56 -116.5t-73 -88.5t-87 -45l-8 47q60 11 107.5 64t87.5 162v1l-180 482l40 4l87 -233q24 -62 37.5 -99.5t21.5 -64t13 -57.5h1q7 31 15 57.5t22 64t37 99.5l87 233 l31 -5z" />
<glyph unicode="&#x1ef8;" horiz-adv-x="552" d="M208 890q28 0 51 -14t45 -28t45 -14q25 0 42 17.5t28 39.5l16 -3q-5 -34 -28 -63t-63 -29q-28 0 -51.5 14t-44.5 28t-45 14q-25 0 -42 -17t-28 -40l-16 3q4 20 15 41t30 36t46 15zM255 256l-225 435l44 4l136 -260q17 -30 35.5 -67t31.5 -71h1q35 76 70 140l133 258 l36 -5l5 -5l-225 -433v-252h-42v256z" />
<glyph unicode="&#x1ef9;" horiz-adv-x="447" d="M163 710q25 0 46.5 -14t42 -28t40.5 -14q21 0 36.5 17.5t26.5 39.5l16 -3q-4 -21 -15 -42.5t-28 -35.5t-41 -14q-25 0 -47 14t-41.5 28t-40.5 14t-36.5 -17t-26.5 -40l-16 3q5 20 15.5 41t27.5 36t41 15zM427 495l-188 -500q-23 -63 -56 -116.5t-73 -88.5t-87 -45l-8 47 q60 11 107.5 64t87.5 162v1l-180 482l40 4l87 -233q24 -62 37.5 -99.5t21.5 -64t13 -57.5h1q7 31 15 57.5t22 64t37 99.5l87 233l31 -5z" />
<glyph unicode="&#x2007;" />
<glyph unicode="&#x2013;" horiz-adv-x="490" d="M30 279v35h430v-35h-430z" />
<glyph unicode="&#x2014;" horiz-adv-x="754" d="M30 279v35h694v-35h-694z" />
<glyph unicode="&#x2018;" horiz-adv-x="208" d="M158 744q-16 -37 -30 -82t-19 -85q18 0 28.5 -12.5t10.5 -29.5q0 -19 -12.5 -33.5t-32.5 -14.5q-39 0 -39 52q0 29 11.5 68.5t29 79t35.5 67.5z" />
<glyph unicode="&#x2019;" horiz-adv-x="208" d="M50 500q16 37 30 82t19 85q-18 0 -28.5 12.5t-10.5 29.5q0 20 13 34t32 14q39 0 39 -52q0 -28 -11.5 -67.5t-29 -79t-35.5 -68.5z" />
<glyph unicode="&#x201a;" horiz-adv-x="208" d="M50 -177q16 37 30 82t19 85q-18 0 -28.5 12.5t-10.5 29.5q0 20 13 34t32 14q39 0 39 -52q0 -28 -11.5 -67.5t-29 -79t-35.5 -68.5z" />
<glyph unicode="&#x201c;" horiz-adv-x="365" d="M158 744q-16 -37 -30 -82t-19 -85q18 0 28.5 -12.5t10.5 -29.5q0 -19 -12.5 -33.5t-32.5 -14.5q-39 0 -39 52q0 29 11.5 68.5t29 79t35.5 67.5zM315 744q-16 -37 -30 -82t-19 -85q18 0 28.5 -12.5t10.5 -29.5q0 -19 -12.5 -33.5t-32.5 -14.5q-39 0 -39 52q0 29 11.5 68.5 t29 79t35.5 67.5z" />
<glyph unicode="&#x201d;" horiz-adv-x="365" d="M207 501q16 37 30 82t19 85q-18 0 -28.5 12.5t-10.5 29.5q0 20 13 34t32 14q39 0 39 -52q0 -28 -11.5 -67.5t-29 -79t-35.5 -68.5zM50 501q16 37 30 82t19 85q-18 0 -28.5 12.5t-10.5 29.5q0 20 13 34t32 14q39 0 39 -52q0 -28 -11.5 -67.5t-29 -79t-35.5 -68.5z" />
<glyph unicode="&#x201e;" horiz-adv-x="365" d="M50 -177q16 37 30 82t19 85q-18 0 -28.5 12.5t-10.5 29.5q0 20 13 34t32 14q39 0 39 -52q0 -28 -11.5 -67.5t-29 -79t-35.5 -68.5zM207 -177q16 37 30 82t19 85q-18 0 -28.5 12.5t-10.5 29.5q0 20 13 34t32 14q39 0 39 -52q0 -28 -11.5 -67.5t-29 -79t-35.5 -68.5z" />
<glyph unicode="&#x2020;" horiz-adv-x="504" d="M262 0l-17 -3l-7 7l-9 168l8 298l-167 -5l-3 3q-3 14 -3 28l7 7l166 -5l-6 191l3 3q10 2 15.5 2.5t15.5 0.5l7 -7l-6 -190l168 5l3 -3q3 -13 3 -28l-7 -7l-167 5l8 -298l-9 -169z" />
<glyph unicode="&#x2021;" horiz-adv-x="504" d="M236 -3l-7 7l8 192l-166 -7l-7 7q0 7 1 16t2 16l3 3l166 -9q-2 32 -5 64.5t-3 64.5q0 30 3 60l6 60l-167 -7l-3 3q-1 7 -2 16t-1 16l7 7l166 -9l-8 192l3 3q11 2 17.5 2.5t17.5 0.5l7 -7l-8 -191l168 9l3 -3q2 -7 2.5 -16t0.5 -16l-7 -7l-166 7q2 -30 5 -60t3 -60 q0 -32 -3 -64.5t-5 -64.5l166 9l7 -7q0 -7 -0.5 -16t-2.5 -16l-3 -3l-168 7l8 -193l-3 -3q-9 -1 -17.5 -1.5t-17.5 -1.5z" />
<glyph unicode="&#x2022;" horiz-adv-x="394" d="M194 160q-43 0 -68.5 29.5t-25.5 69.5q0 30 13 56t36.5 42.5t55.5 16.5q41 0 65 -28t24 -71q0 -27 -11 -53.5t-33 -44t-56 -17.5z" />
<glyph unicode="&#x2026;" horiz-adv-x="554" d="M148 37q0 -20 -13 -33.5t-30 -13.5q-16 0 -28.5 12t-12.5 31q0 20 13 33.5t31 13.5q17 0 28.5 -12t11.5 -31zM319 37q0 -20 -13 -33.5t-30 -13.5q-16 0 -28.5 12t-12.5 31q0 20 13 33.5t31 13.5q17 0 28.5 -12t11.5 -31zM490 37q0 -20 -13 -33.5t-30 -13.5 q-16 0 -28.5 12t-12.5 31q0 20 13 33.5t31 13.5q17 0 28.5 -12t11.5 -31z" />
<glyph unicode="&#x2030;" horiz-adv-x="1433" d="M409 498q0 -67 -24 -112.5t-62.5 -68.5t-84.5 -23q-71 0 -117 52.5t-46 145.5q0 68 24 113t63 68t84 23q71 0 117 -52.5t46 -145.5zM736 695l-422 -705h-40l421 705h41zM111 496q0 -76 33.5 -124t95.5 -48q56 0 94.5 43t38.5 128q0 75 -33 123t-95 48q-57 0 -95.5 -43 t-38.5 -127zM898 126q0 -67 -24 -112.5t-62.5 -68.5t-84.5 -23q-71 0 -117 52.5t-46 145.5q0 68 24 113t63 68t84 23q71 0 117 -52.5t46 -145.5zM1358 126q0 -67 -24 -112.5t-62.5 -68.5t-84.5 -23q-71 0 -117 52.5t-46 145.5q0 68 24 113t63 68t84 23q71 0 117 -52.5 t46 -145.5zM600 124q0 -76 33.5 -124t95.5 -48q56 0 94.5 43t38.5 128q0 75 -33 123t-95 48q-57 0 -95.5 -43t-38.5 -127zM1060 124q0 -76 33.5 -124t95.5 -48q56 0 94.5 43t38.5 128q0 75 -33 123t-95 48q-57 0 -95.5 -43t-38.5 -127z" />
<glyph unicode="&#x2039;" horiz-adv-x="279" d="M60 286v12q43 39 83 88.5t84 108.5l12 -8q-27 -55 -58 -103.5t-65 -91.5q34 -43 65 -91.5t58 -103.5l-12 -8q-44 59 -84 108.5t-83 88.5z" />
<glyph unicode="&#x203a;" horiz-adv-x="279" d="M219 286q-43 -39 -83 -88.5t-84 -108.5l-12 8q27 55 58 103.5t65 91.5q-34 43 -65 91.5t-58 103.5l12 8q44 -59 84 -108.5t83 -88.5v-12z" />
<glyph unicode="&#x2044;" horiz-adv-x="564" d="M514 700l-425 -710h-39l424 710h40z" />
<glyph unicode="&#x2070;" horiz-adv-x="470" d="M400 556q0 -70 -23.5 -117.5t-62 -71t-83.5 -23.5q-70 0 -115.5 54.5t-45.5 153.5q0 70 23.5 117.5t61.5 72t83 24.5q71 0 116.5 -56t45.5 -154zM110 555q0 -81 31.5 -132t91.5 -51q56 0 91 46.5t35 135.5q0 81 -31 132.5t-91 51.5q-55 0 -91 -46.5t-36 -136.5z" />
<glyph unicode="&#x2074;" horiz-adv-x="391" d="M40 494l190 266l40 6l4 -4v-266q35 1 67 5l-7 -36h-60v-113h-37v113h-191zM75 495v-1q37 1 69.5 1h72.5h20h1v133v58.5t1 38.5h-1z" />
<glyph unicode="&#x2075;" horiz-adv-x="366" d="M55 358l5 30q20 -7 46.5 -11t48.5 -4q53 0 87 26.5t34 72.5q0 48 -33.5 70.5t-77.5 22.5q-18 0 -44 -3.5t-41 -9.5l-8 6v200h128q27 0 53 1t51 5l-3 -38h-195v-141q15 4 35 6t35 2q37 0 68.5 -12.5t51.5 -38.5t20 -67q0 -59 -44 -95t-117 -36q-26 0 -53 4.5t-47 9.5z" />
<glyph unicode="&#x2076;" horiz-adv-x="405" d="M214 344q-68 0 -106 48t-38 134q0 75 26.5 129t72.5 82.5t104 28.5q16 0 31.5 -2t23.5 -7l-4 -30q-8 4 -20.5 6.5t-28.5 2.5q-43 0 -80 -21t-60 -64.5t-25 -111.5h1q23 24 55.5 35.5t63.5 11.5q56 0 90.5 -31.5t34.5 -84.5q0 -39 -19.5 -67.5t-51.5 -43.5t-70 -15z M222 559q-32 0 -65 -14t-46 -39q4 -58 28.5 -95t76.5 -37q42 0 70.5 25.5t28.5 69.5q0 39 -24 64.5t-69 25.5z" />
<glyph unicode="&#x2077;" horiz-adv-x="345" d="M40 719l7 39h258l5 -5v-23q-44 -48 -85 -110t-68.5 -130.5t-32.5 -137.5h-40q3 51 22 104t46.5 103t58.5 93t59 73v1h-121q-28 0 -55.5 -1.5t-53.5 -5.5z" />
<glyph unicode="&#x2078;" horiz-adv-x="385" d="M191 344q-59 0 -100 27.5t-41 70.5q0 40 33 68.5t75 44.5v1q-37 18 -66 45.5t-29 64.5q0 29 18 51.5t48.5 35.5t65.5 13q53 0 89.5 -28t36.5 -70q0 -34 -26.5 -63.5t-69.5 -46.5v-1q43 -16 76.5 -42.5t33.5 -67.5q0 -44 -41 -73.5t-103 -29.5zM195 738q-37 0 -65.5 -19 t-28.5 -51q0 -30 28 -54.5t69 -40.5q36 15 61 40.5t25 54.5q0 31 -26 50.5t-63 19.5zM185 540q-36 -14 -66.5 -39.5t-30.5 -57.5t30 -52t73 -20q46 0 75 21.5t30 52.5q2 33 -29.5 54.5t-81.5 40.5z" />
<glyph unicode="&#x2079;" horiz-adv-x="406" d="M50 630q0 41 19.5 71.5t51.5 47.5t70 17q63 0 104 -47t41 -132q0 -69 -27 -124t-73.5 -87t-105.5 -32q-11 0 -25.5 1.5t-22.5 3.5v29q8 -1 21 -2.5t23 -1.5q68 0 114.5 49.5t54.5 137.5q-19 -25 -50.5 -37t-63.5 -12q-59 0 -95 32t-36 86zM91 633q0 -40 25 -66.5 t72 -26.5q32 0 62 13t45 44q-3 60 -30 100t-77 40q-41 0 -69 -29t-28 -75z" />
<glyph unicode="&#x207f;" horiz-adv-x="471" d="M131 290h-33v272q0 37 -4 61.5t-12 49.5l30 11q13 -30 17 -60q65 60 141 60q50 0 78.5 -27.5t28.5 -83.5v-283h-33v274q0 89 -82 89q-33 0 -66.5 -15t-64.5 -42v-306z" />
<glyph unicode="&#x2080;" horiz-adv-x="470" d="M400 132q0 -70 -23.5 -117.5t-62 -71t-83.5 -23.5q-70 0 -115.5 54.5t-45.5 153.5q0 70 23.5 117.5t61.5 72t83 24.5q71 0 116.5 -56t45.5 -154zM110 131q0 -81 31.5 -132t91.5 -51q56 0 91 46.5t35 135.5q0 81 -31 132.5t-91 51.5q-55 0 -91 -46.5t-36 -136.5z" />
<glyph unicode="&#x2081;" horiz-adv-x="227" d="M100 300h-1l-77 -17l-7 22l118 39l4 -4v-410h-38v283v47.5t1 39.5z" />
<glyph unicode="&#x2082;" horiz-adv-x="359" d="M40 -70l-5 33q61 49 113 92.5t84 85.5t32 85q0 41 -28 64.5t-72 23.5q-66 0 -125 -45l-4 31q24 20 62 32t75 12q55 0 93.5 -30t38.5 -82q0 -38 -21.5 -74t-56 -70t-74.5 -65.5t-77 -60.5h137q55 0 104 6l-6 -38h-270z" />
<glyph unicode="&#x2083;" horiz-adv-x="346" d="M49 309q18 12 51.5 22.5t68.5 10.5q49 0 83 -23.5t34 -64.5q0 -35 -29.5 -65.5t-88.5 -49.5q60 -3 99 -28t39 -74q0 -52 -43.5 -84.5t-117.5 -32.5q-28 0 -56.5 4.5t-48.5 9.5l4 29q22 -6 50.5 -10t50.5 -4q53 0 87 23.5t34 62.5q0 30 -18.5 47t-48 24.5t-62.5 7.5 q-25 0 -44 -4v29q79 16 116 46t37 64q0 29 -22.5 46t-62.5 17q-31 0 -58.5 -9t-49.5 -23z" />
<glyph unicode="&#x2084;" horiz-adv-x="391" d="M40 72l190 266l40 6l4 -4v-266q35 1 67 5l-7 -36h-60v-113h-37v113h-191zM75 73v-1q37 1 69.5 1h72.5h20h1v133v58.5t1 38.5h-1z" />
<glyph unicode="&#x2085;" horiz-adv-x="366" d="M55 -66l5 30q20 -7 46.5 -11t48.5 -4q53 0 87 26.5t34 72.5q0 48 -33.5 70.5t-77.5 22.5q-18 0 -44 -3.5t-41 -9.5l-8 6v200h128q27 0 53 1t51 5l-3 -38h-195v-141q15 4 35 6t35 2q37 0 68.5 -12.5t51.5 -38.5t20 -67q0 -59 -44 -95t-117 -36q-26 0 -53 4.5t-47 9.5z" />
<glyph unicode="&#x2086;" horiz-adv-x="405" d="M214 -80q-68 0 -106 48t-38 134q0 75 26.5 129t72.5 82.5t104 28.5q16 0 31.5 -2t23.5 -7l-4 -30q-8 4 -20.5 6.5t-28.5 2.5q-43 0 -80 -21t-60 -64.5t-25 -111.5h1q23 24 55.5 35.5t63.5 11.5q56 0 90.5 -31.5t34.5 -84.5q0 -39 -19.5 -67.5t-51.5 -43.5t-70 -15z M222 135q-32 0 -65 -14t-46 -39q4 -58 28.5 -95t76.5 -37q42 0 70.5 25.5t28.5 69.5q0 39 -24 64.5t-69 25.5z" />
<glyph unicode="&#x2087;" horiz-adv-x="345" d="M40 297l7 39h258l5 -5v-23q-44 -48 -85 -110t-68.5 -130.5t-32.5 -137.5h-40q3 51 22 104t46.5 103t58.5 93t59 73v1h-121q-28 0 -55.5 -1.5t-53.5 -5.5z" />
<glyph unicode="&#x2088;" horiz-adv-x="385" d="M191 -80q-59 0 -100 27.5t-41 70.5q0 40 33 68.5t75 44.5v1q-37 18 -66 45.5t-29 64.5q0 29 18 51.5t48.5 35.5t65.5 13q53 0 89.5 -28t36.5 -70q0 -34 -26.5 -63.5t-69.5 -46.5v-1q43 -16 76.5 -42.5t33.5 -67.5q0 -44 -41 -73.5t-103 -29.5zM195 314q-37 0 -65.5 -19 t-28.5 -51q0 -30 28 -54.5t69 -40.5q36 15 61 40.5t25 54.5q0 31 -26 50.5t-63 19.5zM185 116q-36 -14 -66.5 -39.5t-30.5 -57.5t30 -52t73 -20q46 0 75 21.5t30 52.5q2 33 -29.5 54.5t-81.5 40.5z" />
<glyph unicode="&#x2089;" horiz-adv-x="406" d="M50 206q0 41 19.5 71.5t51.5 47.5t70 17q63 0 104 -47t41 -132q0 -69 -27 -124t-73.5 -87t-105.5 -32q-11 0 -25.5 1.5t-22.5 3.5v29q8 -1 21 -2.5t23 -1.5q68 0 114.5 49.5t54.5 137.5q-19 -25 -50.5 -37t-63.5 -12q-59 0 -95 32t-36 86zM91 209q0 -40 25 -66.5 t72 -26.5q32 0 62 13t45 44q-3 60 -30 100t-77 40q-41 0 -69 -29t-28 -75z" />
<glyph unicode="&#x20ac;" horiz-adv-x="600" d="M60 250l4 30h63q-2 25 -2 52q0 29 2 56h-51l4 30h51q17 128 84.5 202.5t166.5 74.5q38 0 79.5 -11t71.5 -34l-8 -42q-25 22 -63 35.5t-76 13.5q-79 0 -137 -61t-74 -178h268l-3 -30h-268q-2 -23 -2 -48q0 -31 3 -60h254l-3 -30h-247q16 -103 69 -162.5t133 -59.5 q42 0 83.5 16.5t71.5 41.5l6 -38q-32 -28 -78.5 -43t-90.5 -15q-93 0 -158.5 67t-82.5 193h-70z" />
<glyph unicode="&#x2122;" horiz-adv-x="597" d="M482 688l4 -3l27 -225h-28l-10 87q-3 25 -6 55t-5 49h-1q-7 -26 -13.5 -49.5t-17.5 -55.5l-28 -86h-32l-28 86q-9 29 -14 44t-8.5 27.5t-9.5 34.5h-1q-1 -16 -1.5 -22.5t-1 -13.5t-2.5 -22t-6 -48l-11 -86h-25l29 226l34 2l39 -114q5 -17 11 -37t12 -49h1q7 26 12.5 48 t10.5 38l38 112zM169 460h-30v203q-18 0 -35.5 -0.5t-33.5 -1.5l2 24h164l2 -24q-16 1 -33.5 1.5t-35.5 0.5v-203z" />
<glyph unicode="&#x2202;" horiz-adv-x="599" d="M265 755q62 0 109 -30.5t79.5 -85t49 -126.5t16.5 -155q0 -72 -13.5 -138t-42.5 -118t-76.5 -82t-115.5 -30q-66 0 -110.5 28.5t-67.5 77t-23 108.5q0 71 30 123.5t85 81t128 28.5q48 0 88.5 -12t73.5 -30q-5 99 -33.5 171.5t-74.5 112.5t-104 40q-34 0 -71 -13t-60 -33 l-20 32q26 20 67 35t86 15zM113 209q0 -84 42.5 -133.5t115.5 -49.5q90 0 147.5 78.5t57.5 235.5v11q-31 22 -69 36t-92 14q-103 0 -152.5 -52t-49.5 -140z" />
<glyph unicode="&#x220f;" horiz-adv-x="733" d="M668 680l-4 -35h-130v-785h-40v785h-259v-785h-40v785h-130v35l598 5z" />
<glyph unicode="&#x2211;" horiz-adv-x="557" d="M65 -87l264 374l-264 373l10 25h442l5 -5l-3 -33l-409 5l257 -358v-15l-257 -358l409 5l-2 -38h-442z" />
<glyph unicode="&#x2212;" d="M503 328h-450v35q31 1 75.5 1.5t96 1.5t103 1.5t97 0.5h77.5l5 -5z" />
<glyph unicode="&#x221a;" horiz-adv-x="584" d="M557 745l-229 -745h-51l-178 462h-79v33h108l174 -456l218 716l32 -5z" />
<glyph unicode="&#x221e;" horiz-adv-x="844" d="M760 272q0 -49 -20.5 -86t-56.5 -58t-83 -21q-46 0 -78.5 18.5t-57 48t-45.5 61.5q-37 -63 -81.5 -95.5t-98.5 -32.5q-69 0 -112 44.5t-43 116.5q0 50 21 87t56.5 57.5t80.5 20.5q62 0 104 -36.5t77 -90.5q76 127 181 127q68 0 112 -44t44 -117zM597 397q-47 0 -85 -32 t-69 -91q19 -31 39.5 -61t48 -50t68.5 -20q53 0 87 35t34 90q0 56 -35.5 92.5t-87.5 36.5zM124 274q0 -57 35.5 -93.5t86.5 -36.5q46 0 85.5 32.5t69.5 87.5v0q-20 34 -42 64t-50 49.5t-66 19.5q-53 0 -86 -35t-33 -88z" />
<glyph unicode="&#x222b;" horiz-adv-x="493" d="M192 -219q99 0 99 103q0 33 -9.5 91t-24.5 130.5t-32 147.5q-16 74 -30.5 144t-23.5 127t-9 91q0 68 39 104t104 36q34 0 62.5 -9t55.5 -23l-8 -41q-25 17 -53.5 27t-60.5 10q-99 0 -99 -104q0 -33 9 -88.5t23.5 -123.5t30.5 -141q17 -74 32 -146.5t24.5 -132t9.5 -96.5 q0 -71 -39 -106.5t-104 -35.5q-34 0 -62.5 9t-55.5 23l8 41q26 -16 54 -26.5t60 -10.5z" />
<glyph unicode="&#x2248;" d="M407 324q-14 0 -41.5 7.5t-60.5 19t-65.5 23t-56 19t-31.5 7.5q-15 0 -35 -27t-45 -62l-26 18q13 23 29.5 48.5t36.5 44t41 18.5q14 0 41.5 -7.5t60.5 -19t65.5 -23t56 -19t31.5 -7.5q14 0 35 26.5t47 61.5l24 -17q-12 -22 -29 -48t-36.5 -44.5t-41.5 -18.5zM407 130 q-14 0 -41.5 7.5t-60.5 19t-65.5 23t-56 19t-31.5 7.5q-15 0 -35 -27t-45 -62l-26 18q13 23 29.5 48.5t36.5 44t41 18.5q14 0 41.5 -7.5t60.5 -19t65.5 -23t56 -19t31.5 -7.5q14 0 35 26.5t47 61.5l24 -17q-12 -22 -29 -48t-36.5 -44.5t-41.5 -18.5z" />
<glyph unicode="&#x2260;" d="M143 120l59 123h-149v35q30 1 73.5 1.5t93.5 1.5l70 146h-237v35q43 1 113 2t142 2l64 133l7 2l27 -14l-58 -121q93 1 154 1l5 -5l-4 -35h-174l-70 -146q69 1 135 1.5t108 0.5l5 -5l-4 -35h-263l-64 -134l-7 -2z" />
<glyph unicode="&#x2264;" d="M108 439l392 -146v-40l-447 172v25l4 6q29 11 73 27t95 34t102.5 36t96 33t75.5 25v-40zM503 103h-450v35q31 1 75.5 1.5t96 1.5t103 1.5t97 0.5h77.5l5 -5z" />
<glyph unicode="&#x2265;" d="M60 253v40l392 146l-391 132v40q31 -10 75.5 -25t96 -33t102.5 -36t95 -34t73 -27l4 -6v-25zM503 103h-450v35q31 1 75.5 1.5t96 1.5t103 1.5t97 0.5h77.5l5 -5z" />
<glyph unicode="&#x25ca;" horiz-adv-x="600" d="M77 330v25l216 335l48 10l223 -345v-27l-219 -328l-47 -10zM315 655l-196 -313l197 -306l8 1l200 305l-200 313h-9z" />
<glyph unicode="&#x25fc;" horiz-adv-x="505" d="M0 505h505v-505h-505v505z" />
<glyph unicode="&#xfb00;" horiz-adv-x="546" d="M150 0h-40v462l-76 2v24l76 7q-1 28 -2 55.5t-1 39.5q0 67 38.5 106t103.5 39q37 0 74 -11.5t59 -25.5q17 27 45.5 42t69.5 15q57 0 104 -26l-12 -40q-17 12 -41.5 21t-54.5 9q-54 0 -75 -33.5t-21 -94.5q0 -7 0.5 -24.5t1 -37t0.5 -34.5h136l5 -5l-2 -31l-138 3v-462 h-40v462h-210v-462zM147 586q0 -6 0.5 -22.5t1 -35.5t0.5 -33h211q-1 29 -2 57.5t-1 41.5q0 40 10 71q-22 14 -53 24t-65 10q-54 0 -78 -29.5t-24 -83.5z" />
<glyph unicode="&#xfb01;" horiz-adv-x="513" d="M150 0h-40v462l-76 2v24l76 7q-1 29 -2 57.5t-1 42.5q0 74 40 117t116 43q79 0 140 -46l-22 -34q-21 17 -51 30.5t-72 13.5q-61 0 -86 -33.5t-25 -94.5q0 -7 0.5 -24.5t1 -37t0.5 -34.5h204l42 10l5 -5v-500h-40v348q0 32 -0.5 58.5t-2.5 52.5l-207 3v-462z" />
<glyph unicode="&#xfb02;" horiz-adv-x="510" d="M150 0h-40v462l-76 2v24l76 7q-1 29 -2 57.5t-1 42.5q0 74 43 117t129 43q45 0 84 -14v4l42 10l5 -5v-750h-40v598q0 57 -3 101q-18 8 -41.5 14t-54.5 6q-67 0 -95.5 -33.5t-28.5 -94.5q0 -7 0.5 -24.5t1 -37t0.5 -34.5h216l5 -5l-2 -31l-218 3v-462z" />
<glyph unicode="&#xfb03;" horiz-adv-x="763" d="M150 0h-40v462l-76 2v24l76 7q-1 29 -2 56t-1 39q0 67 43 106t110 39q37 0 70.5 -11t54.5 -27q19 28 51 43t77 15q79 0 140 -46l-22 -34q-21 17 -51 30.5t-72 13.5q-61 0 -86 -33.5t-25 -94.5q0 -7 0.5 -24.5t1 -37t0.5 -34.5h204l42 10l5 -5v-500h-40v348 q0 32 -0.5 58.5t-2.5 52.5l-207 3v-462h-40v462h-210v-462zM147 586q0 -6 0.5 -22.5t1 -35.5t0.5 -33h211q-1 29 -2 57.5t-1 42.5q0 39 11 70q-19 14 -47 24t-63 10q-56 0 -83.5 -29.5t-27.5 -83.5z" />
<glyph unicode="&#xfb04;" horiz-adv-x="760" d="M150 0h-40v462l-76 2v24l76 7q-1 29 -2 56t-1 39q0 67 43 106t110 39q37 0 71 -11.5t55 -27.5q21 28 56.5 43.5t86.5 15.5q45 0 84 -14v4l42 10l5 -5v-750h-40v598q0 57 -3 101q-18 8 -41.5 14t-54.5 6q-67 0 -95.5 -33.5t-28.5 -94.5q0 -7 0.5 -24.5t1 -37t0.5 -34.5 h216l5 -5l-2 -31l-218 3v-462h-40v462h-210v-462zM147 586q0 -6 0.5 -22.5t1 -35.5t0.5 -33h211q-1 29 -2 57.5t-1 42.5q0 39 12 69q-20 14 -48 24.5t-63 10.5q-56 0 -83.5 -29.5t-27.5 -83.5z" />
<glyph unicode="&#xfb06;" horiz-adv-x="756" d="M356 473l-8 -41q-25 17 -52.5 27t-62.5 10q-55 0 -87 -25.5t-32 -65.5q0 -32 18.5 -53.5t47.5 -37.5t62 -30.5t62 -32t47.5 -42.5t18.5 -62q0 -56 -46 -93t-121 -37q-31 0 -67.5 7.5t-70.5 24.5l8 41q32 -19 68 -28t67 -9q58 0 88.5 26t30.5 63q0 31 -18.5 51.5t-47.5 36 t-62 29.5t-62 32t-47.5 43.5t-18.5 63.5q0 59 45.5 96.5t119.5 37.5q21 0 39 -3t34 -8q-14 25 -20 51t-6 49q0 45 20 79t54.5 53t77.5 19q40 0 73.5 -17t53.5 -50.5t20 -83.5q0 -28 -6 -55.5t-11 -43.5h135l5 -5l-2 -28h-138v-311q0 -15 1.5 -36t9 -41.5t24.5 -34t48 -13.5 q21 0 41.5 7t37.5 18l9 -33q-19 -12 -43.5 -20t-53.5 -8q-43 0 -66.5 17t-33.5 42.5t-12 50.5t-2 41v321h-76v26l76 7q7 17 10.5 42t3.5 47q0 59 -25 92t-78 33q-48 0 -79 -29.5t-31 -91.5q0 -58 30 -115z" />
<glyph horiz-adv-x="415" d="M320 45q0 -28 3.5 -54.5t16.5 -60.5l-33 -8q-12 25 -18 54q-16 -20 -50.5 -37t-77.5 -17q-51 0 -77.5 26.5t-26.5 64.5q0 45 33 73.5t86 43.5t111 20v58q0 41 -22 63t-69 22q-33 0 -65.5 -10.5t-59.5 -27.5l-2 34q25 14 59.5 24.5t72.5 10.5q59 0 89.5 -28.5t30.5 -75.5 v-62t-0.5 -66t-0.5 -47zM93 17q0 -25 17.5 -45t54.5 -20q33 0 67 16.5t55 38.5v116q-52 -4 -96 -16.5t-71 -34.5t-27 -55z" />
<glyph horiz-adv-x="470" d="M400 124q0 -100 -49 -151t-122 -51q-26 0 -54.5 5.5t-48.5 13.5l-32 -19v473q0 35 -1.5 61.5t-4.5 54.5l35 8l4 -4v-234q44 43 112 43q71 0 116 -52.5t45 -147.5zM236 294q-30 0 -59 -11.5t-50 -32.5v-281q20 -7 51 -12t53 -5q61 0 97.5 43.5t36.5 125.5q0 77 -33.5 125 t-95.5 48z" />
<glyph horiz-adv-x="402" d="M353 300l-10 -34q-17 11 -41.5 19t-53.5 8q-64 0 -103.5 -42t-39.5 -126q0 -78 35 -125t101 -47q33 0 61.5 10.5t45.5 21.5l5 -31q-22 -14 -52 -23t-62 -9q-74 0 -122 50.5t-48 147.5q0 100 51 152t130 52q58 0 103 -24z" />
<glyph horiz-adv-x="470" d="M337 511l35 8l4 -4v-475q0 -29 4.5 -55t16.5 -55l-33 -8q-6 11 -10.5 26t-7.5 29q-15 -21 -43 -38t-71 -17q-71 0 -117 52.5t-46 143.5q0 68 25.5 114t68 69t91.5 23q27 0 50 -6t38 -13v90q0 35 -0.5 61.5t-4.5 54.5zM105 120q0 -79 36.5 -123.5t94.5 -44.5 q39 0 64.5 16.5t41.5 36.5v270q-19 9 -44.5 14t-47.5 5q-38 0 -71.5 -18.5t-53.5 -56.5t-20 -99z" />
<glyph horiz-adv-x="424" d="M364 133l-12 -12h-247q1 -83 39.5 -125.5t97.5 -42.5q32 0 60.5 10.5t50.5 25.5l4 -30q-16 -12 -47.5 -24.5t-72.5 -12.5q-75 0 -121.5 51.5t-46.5 145.5q0 68 24 113.5t62 68.5t81 23q59 0 94 -39t35 -105v-22.5t-1 -24.5zM233 294q-47 0 -84.5 -36.5t-42.5 -111.5 l223 6q1 6 1 13v14q0 53 -26 84t-71 31z" />
<glyph horiz-adv-x="251" d="M127 -70h-33v358l-62 2v20l62 6q-1 22 -1.5 44t-0.5 32q0 59 28.5 93t86.5 34q47 0 85 -20l-10 -35q-14 10 -34 17t-45 7q-43 0 -60.5 -25.5t-17.5 -72.5q0 -9 0.5 -33t0.5 -41h112l4 -5l-2 -25l-113 2v-358z" />
<glyph horiz-adv-x="397" d="M105 -6q0 18 7.5 33.5t18.5 26.5q-34 15 -55 47t-21 78q0 59 34 102t100 43q27 0 47.5 -8t29.5 -16q16 11 40.5 18t47.5 7h5v-39h-76q15 -15 26.5 -39t11.5 -59q0 -39 -15 -72t-44.5 -53t-72.5 -20q-17 0 -33 3q-18 -18 -18 -43q0 -18 11 -29t40 -13l66 -5 q29 -1 55 -10.5t42 -29t16 -51.5q0 -33 -20 -64t-59.5 -50.5t-99.5 -19.5q-75 0 -117.5 31t-42.5 74q0 29 15 48t26 26l19 -9q-9 -10 -18 -24.5t-9 -32.5q0 -32 33 -58t97 -26q65 0 103.5 28.5t38.5 68.5q0 32 -23 49t-60 20l-60 4q-46 3 -66 20.5t-20 43.5zM286 182 q0 52 -25 82.5t-73 30.5q-49 0 -73.5 -29t-24.5 -82q0 -50 25 -81t74 -31q48 0 72.5 29.5t24.5 80.5z" />
<glyph horiz-adv-x="467" d="M127 -70h-33v465q0 35 -1 61.5t-5 54.5l35 8l4 -4v-249q64 58 139 58q50 0 78.5 -27.5t28.5 -83.5v-283h-33v274q0 89 -82 89q-67 0 -131 -55v-308z" />
<glyph horiz-adv-x="221" d="M135 486q0 -15 -7 -27.5t-22 -12.5q-13 0 -20.5 10t-7.5 24q0 16 8.5 27.5t21.5 11.5q27 0 27 -33zM94 -70v270q0 34 -1 61t-5 55l35 8l4 -4v-390h-33z" />
<glyph horiz-adv-x="221" d="M135 486q0 -15 -7 -27.5t-22 -12.5q-13 0 -20.5 10t-7.5 24q0 16 8.5 27.5t21.5 11.5q27 0 27 -33zM68 -269l-16 18q14 20 28 56t14 88v307q0 34 -1.5 61t-4.5 55l35 8l4 -4v-427q0 -54 -16.5 -93t-42.5 -69z" />
<glyph horiz-adv-x="412" d="M94 395q0 35 -1.5 61.5t-4.5 54.5l35 8l4 -4v-367h77q33 41 67 85.5t69 90.5l21 -10l4 -4l-133 -170q38 -52 77 -104.5t79 -105.5l-35 -8q-38 50 -74.5 99.5t-71.5 98.5h-80v-190h-33v465z" />
<glyph horiz-adv-x="213" d="M119 -70h-33v465q0 35 -1.5 61.5t-4.5 54.5l35 8l4 -4v-585z" />
<glyph horiz-adv-x="698" d="M131 -70h-33v272q0 37 -4 61.5t-12 49.5l30 11q12 -30 17 -60q63 60 133 60q80 0 100 -63q64 63 137 63q51 0 78 -27t27 -77v-290h-34v282q0 38 -19.5 59.5t-58.5 21.5q-62 0 -126 -58q1 -7 1 -15v-290h-33v282q0 38 -19.5 59.5t-58.5 21.5q-63 0 -125 -57v-306z" />
<glyph horiz-adv-x="471" d="M131 -70h-33v272q0 37 -4 61.5t-12 49.5l30 11q13 -30 17 -60q65 60 141 60q50 0 78.5 -27.5t28.5 -83.5v-283h-33v274q0 89 -82 89q-33 0 -66.5 -15t-64.5 -42v-306z" />
<glyph horiz-adv-x="472" d="M403 126q0 -67 -24 -112.5t-62.5 -68.5t-84.5 -23q-71 0 -117 52.5t-46 145.5q0 68 24 113t63 68t84 23q71 0 117 -52.5t46 -145.5zM105 124q0 -76 33.5 -124t95.5 -48q56 0 94.5 43t38.5 128q0 75 -33 123t-95 48q-57 0 -95.5 -43t-38.5 -127z" />
<glyph horiz-adv-x="474" d="M98 -264v466q0 37 -4 61t-12 50l30 11q5 -11 9 -23t6 -23q19 19 50 32.5t66 13.5q43 0 79.5 -22.5t59 -66t22.5 -107.5q0 -59 -20 -105.5t-58 -73.5t-91 -27q-30 0 -57.5 8t-46.5 19v-98q0 -34 1.5 -58.5t4.5 -53.5l-35 -8zM238 294q-64 0 -107 -49v-266q20 -11 47 -19 t55 -8q65 0 100.5 47t35.5 126q0 85 -37.5 127t-93.5 42z" />
<glyph horiz-adv-x="470" d="M342 -264v228q-45 -42 -111 -42q-70 0 -116 52.5t-46 147.5q0 67 26 112t71.5 67.5t101.5 22.5q19 0 39.5 -3.5t37.5 -9.5l31 13v-469q0 -34 1 -60.5t4 -55.5l-34 -8zM105 125q0 -77 33.5 -125t95.5 -48q29 0 58 11.5t50 31.5v288q-18 5 -39.5 8t-36.5 3q-73 0 -117 -43 t-44 -126z" />
<glyph horiz-adv-x="314" d="M131 -70h-33v272q0 37 -4 61.5t-12 49.5l30 11q13 -31 18 -61q32 29 65 45t60 16q13 0 23 -3t16 -7l-13 -32q-5 2 -12.5 4.5t-17.5 2.5q-21 0 -53.5 -13.5t-66.5 -42.5v-303z" />
<glyph horiz-adv-x="365" d="M296 299l-7 -35q-20 14 -42.5 21.5t-51.5 7.5q-45 0 -71 -19t-26 -50q0 -29 21 -47.5t52.5 -32t63 -28t52.5 -36t21 -56.5q0 -44 -38 -73t-100 -29q-25 0 -55 6t-58 19l7 35q26 -15 56 -22t55 -7q47 0 72 19.5t25 47.5t-21 46t-52.5 31t-63 27.5t-52.5 36.5t-21 58 q0 46 37.5 75.5t98.5 29.5q31 0 55 -7t43 -18z" />
<glyph horiz-adv-x="288" d="M240 289h-113v-240q0 -53 17 -74.5t50 -21.5q18 0 35 5.5t31 14.5l7 -29q-15 -9 -35.5 -15.5t-44.5 -6.5q-46 0 -69.5 28t-23.5 92v247h-62v21l62 6l8 88l24 3l4 -4l-3 -87h111l4 -4z" />
<glyph horiz-adv-x="462" d="M94 200q0 35 -1 61.5t-3 54.5l33 8l4 -4v-285q0 -39 19.5 -60.5t59.5 -21.5q60 0 124 59v304l33 8v-281q0 -37 4 -61t13 -50l-30 -10q-6 13 -11 29.5t-7 29.5v0q-31 -28 -65 -43.5t-68 -15.5q-51 0 -78 27t-27 77v174z" />
<glyph horiz-adv-x="383" d="M354 316l-154 -390h-16l-155 395l33 3l71 -183q19 -47 30.5 -75.5t18 -49t10.5 -44.5h1q5 24 11.5 44.5t18 49t30.5 75.5l72 183l25 -4z" />
<glyph horiz-adv-x="615" d="M170 -74l-141 395l33 3l64 -179q16 -44 26 -74.5t16.5 -53t11.5 -44.5q7 28 13 50.5t15.5 49t24.5 66.5l66 185h20l63 -177q15 -40 32 -87.5t23 -85.5h1q8 41 23.5 85t30.5 84l65 181l25 -4l4 -4l-140 -390h-17l-73 200q-19 50 -30 83t-18 67h-1q-6 -35 -18 -70.5 t-27 -78.5l-73 -201h-19z" />
<glyph horiz-adv-x="386" d="M313 -70l-121 173l-121 -173h-33l-1 4l132 189l-132 193l32 8l125 -181l123 181l32 -4v-4l-133 -193l133 -193h-36z" />
<glyph horiz-adv-x="375" d="M354 316l-154 -388q-19 -49 -45.5 -91.5t-59.5 -70.5t-72 -35l-7 40q50 8 89 49t71 123v1l-147 377l33 3l71 -183q19 -47 30.5 -75.5t18 -49t10.5 -44.5h1q5 24 11.5 44.5t18 49t30.5 75.5l72 183l25 -4z" />
<glyph horiz-adv-x="357" d="M35 284l3 32h278l4 -22l-250 -336l133 3q30 0 60.5 0.5t60.5 2.5l-3 -34h-285l-3 22l249 336z" />
<glyph horiz-adv-x="415" d="M320 405q0 -28 3.5 -54.5t16.5 -60.5l-33 -8q-12 25 -18 54q-16 -20 -50.5 -37t-77.5 -17q-51 0 -77.5 26.5t-26.5 64.5q0 45 33 73.5t86 43.5t111 20v58q0 41 -22 63t-69 22q-33 0 -65.5 -10.5t-59.5 -27.5l-2 34q25 14 59.5 24.5t72.5 10.5q59 0 89.5 -28.5t30.5 -75.5 v-62t-0.5 -66t-0.5 -47zM93 377q0 -25 17.5 -45t54.5 -20q33 0 67 16.5t55 38.5v116q-52 -4 -96 -16.5t-71 -34.5t-27 -55z" />
<glyph horiz-adv-x="470" d="M400 484q0 -100 -49 -151t-122 -51q-26 0 -54.5 5.5t-48.5 13.5l-32 -19v473q0 35 -1.5 61.5t-4.5 54.5l35 8l4 -4v-234q44 43 112 43q71 0 116 -52.5t45 -147.5zM236 654q-30 0 -59 -11.5t-50 -32.5v-281q20 -7 51 -12t53 -5q61 0 97.5 43.5t36.5 125.5q0 77 -33.5 125 t-95.5 48z" />
<glyph horiz-adv-x="402" d="M353 660l-10 -34q-17 11 -41.5 19t-53.5 8q-64 0 -103.5 -42t-39.5 -126q0 -78 35 -125t101 -47q33 0 61.5 10.5t45.5 21.5l5 -31q-22 -14 -52 -23t-62 -9q-74 0 -122 50.5t-48 147.5q0 100 51 152t130 52q58 0 103 -24z" />
<glyph horiz-adv-x="470" d="M337 871l35 8l4 -4v-475q0 -29 4.5 -55t16.5 -55l-33 -8q-6 11 -10.5 26t-7.5 29q-15 -21 -43 -38t-71 -17q-71 0 -117 52.5t-46 143.5q0 68 25.5 114t68 69t91.5 23q27 0 50 -6t38 -13v90q0 35 -0.5 61.5t-4.5 54.5zM105 480q0 -79 36.5 -123.5t94.5 -44.5 q39 0 64.5 16.5t41.5 36.5v270q-19 9 -44.5 14t-47.5 5q-38 0 -71.5 -18.5t-53.5 -56.5t-20 -99z" />
<glyph horiz-adv-x="424" d="M364 493l-12 -12h-247q1 -83 39.5 -125.5t97.5 -42.5q32 0 60.5 10.5t50.5 25.5l4 -30q-16 -12 -47.5 -24.5t-72.5 -12.5q-75 0 -121.5 51.5t-46.5 145.5q0 68 24 113.5t62 68.5t81 23q59 0 94 -39t35 -105v-22.5t-1 -24.5zM233 654q-47 0 -84.5 -36.5t-42.5 -111.5 l223 6q1 6 1 13v14q0 53 -26 84t-71 31z" />
<glyph horiz-adv-x="251" d="M127 290h-33v358l-62 2v20l62 6q-1 22 -1.5 44t-0.5 32q0 59 28.5 93t86.5 34q47 0 85 -20l-10 -35q-14 10 -34 17t-45 7q-43 0 -60.5 -25.5t-17.5 -72.5q0 -9 0.5 -33t0.5 -41h112l4 -5l-2 -25l-113 2v-358z" />
<glyph horiz-adv-x="397" d="M105 354q0 18 7.5 33.5t18.5 26.5q-34 15 -55 47t-21 78q0 59 34 102t100 43q27 0 47.5 -8t29.5 -16q16 11 40.5 18t47.5 7h5v-39h-76q15 -15 26.5 -39t11.5 -59q0 -39 -15 -72t-44.5 -53t-72.5 -20q-17 0 -33 3q-18 -18 -18 -43q0 -18 11 -29t40 -13l66 -5 q29 -1 55 -10.5t42 -29t16 -51.5q0 -33 -20 -64t-59.5 -50.5t-99.5 -19.5q-75 0 -117.5 31t-42.5 74q0 29 15 48t26 26l19 -9q-9 -10 -18 -24.5t-9 -32.5q0 -32 33 -58t97 -26q65 0 103.5 28.5t38.5 68.5q0 32 -23 49t-60 20l-60 4q-46 3 -66 20.5t-20 43.5zM286 542 q0 52 -25 82.5t-73 30.5q-49 0 -73.5 -29t-24.5 -82q0 -50 25 -81t74 -31q48 0 72.5 29.5t24.5 80.5z" />
<glyph horiz-adv-x="467" d="M127 290h-33v465q0 35 -1 61.5t-5 54.5l35 8l4 -4v-249q64 58 139 58q50 0 78.5 -27.5t28.5 -83.5v-283h-33v274q0 89 -82 89q-67 0 -131 -55v-308z" />
<glyph horiz-adv-x="221" d="M135 846q0 -15 -7 -27.5t-22 -12.5q-13 0 -20.5 10t-7.5 24q0 16 8.5 27.5t21.5 11.5q27 0 27 -33zM94 290v270q0 34 -1 61t-5 55l35 8l4 -4v-390h-33z" />
<glyph horiz-adv-x="221" d="M135 846q0 -15 -7 -27.5t-22 -12.5q-13 0 -20.5 10t-7.5 24q0 16 8.5 27.5t21.5 11.5q27 0 27 -33zM68 91l-16 18q14 20 28 56t14 88v307q0 34 -1.5 61t-4.5 55l35 8l4 -4v-427q0 -54 -16.5 -93t-42.5 -69z" />
<glyph horiz-adv-x="412" d="M94 755q0 35 -1.5 61.5t-4.5 54.5l35 8l4 -4v-367h77q33 41 67 85.5t69 90.5l21 -10l4 -4l-133 -170q38 -52 77 -104.5t79 -105.5l-35 -8q-38 50 -74.5 99.5t-71.5 98.5h-80v-190h-33v465z" />
<glyph horiz-adv-x="213" d="M119 290h-33v465q0 35 -1.5 61.5t-4.5 54.5l35 8l4 -4v-585z" />
<glyph horiz-adv-x="698" d="M131 290h-33v272q0 37 -4 61.5t-12 49.5l30 11q12 -30 17 -60q63 60 133 60q80 0 100 -63q64 63 137 63q51 0 78 -27t27 -77v-290h-34v282q0 38 -19.5 59.5t-58.5 21.5q-62 0 -126 -58q1 -7 1 -15v-290h-33v282q0 38 -19.5 59.5t-58.5 21.5q-63 0 -125 -57v-306z" />
<glyph horiz-adv-x="472" d="M403 486q0 -67 -24 -112.5t-62.5 -68.5t-84.5 -23q-71 0 -117 52.5t-46 145.5q0 68 24 113t63 68t84 23q71 0 117 -52.5t46 -145.5zM105 484q0 -76 33.5 -124t95.5 -48q56 0 94.5 43t38.5 128q0 75 -33 123t-95 48q-57 0 -95.5 -43t-38.5 -127z" />
<glyph horiz-adv-x="474" d="M98 96v466q0 37 -4 61t-12 50l30 11q5 -11 9 -23t6 -23q19 19 50 32.5t66 13.5q43 0 79.5 -22.5t59 -66t22.5 -107.5q0 -59 -20 -105.5t-58 -73.5t-91 -27q-30 0 -57.5 8t-46.5 19v-98q0 -34 1.5 -58.5t4.5 -53.5l-35 -8zM238 654q-64 0 -107 -49v-266q20 -11 47 -19 t55 -8q65 0 100.5 47t35.5 126q0 85 -37.5 127t-93.5 42z" />
<glyph horiz-adv-x="470" d="M342 96v228q-45 -42 -111 -42q-70 0 -116 52.5t-46 147.5q0 67 26 112t71.5 67.5t101.5 22.5q19 0 39.5 -3.5t37.5 -9.5l31 13v-469q0 -34 1 -60.5t4 -55.5l-34 -8zM105 485q0 -77 33.5 -125t95.5 -48q29 0 58 11.5t50 31.5v288q-18 5 -39.5 8t-36.5 3q-73 0 -117 -43 t-44 -126z" />
<glyph horiz-adv-x="314" d="M131 290h-33v272q0 37 -4 61.5t-12 49.5l30 11q13 -31 18 -61q32 29 65 45t60 16q13 0 23 -3t16 -7l-13 -32q-5 2 -12.5 4.5t-17.5 2.5q-21 0 -53.5 -13.5t-66.5 -42.5v-303z" />
<glyph horiz-adv-x="365" d="M296 659l-7 -35q-20 14 -42.5 21.5t-51.5 7.5q-45 0 -71 -19t-26 -50q0 -29 21 -47.5t52.5 -32t63 -28t52.5 -36t21 -56.5q0 -44 -38 -73t-100 -29q-25 0 -55 6t-58 19l7 35q26 -15 56 -22t55 -7q47 0 72 19.5t25 47.5t-21 46t-52.5 31t-63 27.5t-52.5 36.5t-21 58 q0 46 37.5 75.5t98.5 29.5q31 0 55 -7t43 -18z" />
<glyph horiz-adv-x="288" d="M240 649h-113v-240q0 -53 17 -74.5t50 -21.5q18 0 35 5.5t31 14.5l7 -29q-15 -9 -35.5 -15.5t-44.5 -6.5q-46 0 -69.5 28t-23.5 92v247h-62v21l62 6l8 88l24 3l4 -4l-3 -87h111l4 -4z" />
<glyph horiz-adv-x="462" d="M94 560q0 35 -1 61.5t-3 54.5l33 8l4 -4v-285q0 -39 19.5 -60.5t59.5 -21.5q60 0 124 59v304l33 8v-281q0 -37 4 -61t13 -50l-30 -10q-6 13 -11 29.5t-7 29.5v0q-31 -28 -65 -43.5t-68 -15.5q-51 0 -78 27t-27 77v174z" />
<glyph horiz-adv-x="383" d="M354 676l-154 -390h-16l-155 395l33 3l71 -183q19 -47 30.5 -76t18 -49t10.5 -44h1q5 24 11.5 44t18 49t30.5 76l72 183l25 -4z" />
<glyph horiz-adv-x="615" d="M170 286l-141 395l33 3l64 -179q16 -44 26 -74.5t16.5 -53t11.5 -44.5q7 28 13 50.5t15.5 49t24.5 66.5l66 185h20l63 -177q15 -40 32 -87.5t23 -85.5h1q8 41 23.5 85t30.5 84l65 181l25 -4l4 -4l-140 -390h-17l-73 200q-19 50 -30 83t-18 67h-1q-6 -35 -18 -70.5 t-27 -78.5l-73 -201h-19z" />
<glyph horiz-adv-x="386" d="M313 290l-121 173l-121 -173h-33l-1 4l132 189l-132 193l32 8l125 -181l123 181l32 -4v-4l-133 -193l133 -193h-36z" />
<glyph horiz-adv-x="375" d="M354 676l-154 -388q-19 -49 -45.5 -91.5t-59.5 -70.5t-72 -35l-7 40q50 8 89 49t71 123v1l-147 377l33 3l71 -183q19 -47 30.5 -76t18 -49t10.5 -44h1q5 24 11.5 44t18 49t30.5 76l72 183l25 -4z" />
<glyph horiz-adv-x="357" d="M35 644l3 32h278l4 -22l-250 -336l133 3q30 0 60.5 0.5t60.5 2.5l-3 -34h-285l-3 22l249 336z" />
<glyph horiz-adv-x="1035" d="M625 0h-40v598q0 35 -0.5 63t-3.5 56q-23 2 -42 2q-80 0 -127.5 -32t-47.5 -89q0 -24 11.5 -58.5t44.5 -64.5l-12 -40q-21 14 -51 24t-65 10q-77 0 -125.5 -55t-48.5 -165q0 -101 43 -162t123 -61q40 0 75 13.5t56 27.5l5 -36q-27 -19 -63 -30t-75 -11q-91 0 -149 64 t-58 189q0 129 61.5 195.5t158.5 66.5q35 0 69 -8q-25 26 -34 54t-9 50q0 45 28.5 80t81 54.5t123.5 19.5q19 0 36.5 -1.5t34.5 -3.5v-319q38 35 80.5 54.5t88.5 19.5q62 0 96.5 -35.5t34.5 -106.5v-363h-40v353q0 116 -100 116q-40 0 -81 -19.5t-79 -53.5v-396z" />
<glyph horiz-adv-x="806" d="M575 495q7 17 10.5 42t3.5 47q0 59 -25 92t-76 33q-49 0 -80.5 -29.5t-31.5 -87.5q0 -63 44 -117l-12 -40q-21 14 -51 24t-65 10q-77 0 -125.5 -55t-48.5 -165q0 -101 43 -162t123 -61q40 0 75 13.5t56 27.5l5 -36q-27 -19 -63 -30t-75 -11q-91 0 -149 64t-58 189 q0 129 61.5 195.5t158.5 66.5q33 0 64 -7q-14 24 -20 49.5t-6 47.5q0 45 20 78.5t55 52.5t78 19q40 0 73 -17t53 -50.5t20 -84.5q0 -28 -6 -55t-11 -43h135l5 -5l-2 -28h-138v-311q0 -15 1.5 -36t9 -41.5t24.5 -34t48 -13.5q21 0 41.5 7t37.5 18l9 -33q-19 -12 -43.5 -20 t-53.5 -8q-43 0 -66.5 17t-33.5 42.5t-12 50.5t-2 41v321h-76v26z" />
<glyph horiz-adv-x="981" d="M571 0h-40v598q0 35 -0.5 63t-3.5 56q-23 2 -42 2q-79 0 -127 -32t-48 -92q0 -22 9.5 -56.5t36.5 -65.5l-8 -41q-25 17 -52.5 27t-62.5 10q-55 0 -87 -25.5t-32 -65.5q0 -32 18.5 -53.5t47.5 -37.5t62 -30.5t62 -32t47.5 -42.5t18.5 -62q0 -56 -46 -93t-121 -37 q-31 0 -67.5 7.5t-70.5 24.5l8 41q32 -19 68 -28t67 -9q58 0 88.5 26t30.5 63q0 31 -18.5 51.5t-47.5 36t-62 29.5t-62 32t-47.5 43.5t-18.5 63.5q0 59 45.5 96.5t119.5 37.5q20 0 37.5 -3t32.5 -7q-23 27 -31 54.5t-8 49.5q0 47 29 82t81.5 54.5t122.5 19.5q19 0 36.5 -1.5 t34.5 -3.5v-319q38 35 80.5 54.5t88.5 19.5q62 0 96.5 -35.5t34.5 -106.5v-363h-40v353q0 116 -100 116q-40 0 -81 -19.5t-79 -53.5v-396z" />
<glyph horiz-adv-x="511" d="M64 0h-39l183 465q8 22 16.5 42.5t13.5 36.5l29 3l5 -5l214 -542h-42l-67 169h-246zM198 336l-53 -133h218l-53 133q-16 41 -31 81.5t-24 77.5h-1q-10 -37 -25 -78t-31 -81z" />
<glyph horiz-adv-x="511" d="M339 777l3 -8q-31 -46 -71.5 -82.5t-90.5 -68.5l-10 13q38 38 72.5 79.5t57.5 82.5zM64 0h-39l183 465q8 22 16.5 42.5t13.5 36.5l29 3l5 -5l214 -542h-42l-67 169h-246zM198 336l-53 -133h218l-53 133q-16 41 -31 81.5t-24 77.5h-1q-10 -37 -25 -78t-31 -81z" />
<glyph horiz-adv-x="511" d="M352 768l23 -3q-11 -58 -43.5 -90t-78.5 -32q-45 0 -76.5 32t-39.5 90l22 3q11 -38 36.5 -60t62.5 -22q33 0 58 22.5t36 59.5zM64 0h-39l183 465q8 22 16.5 42.5t13.5 36.5l29 3l5 -5l214 -542h-42l-67 169h-246zM198 336l-53 -133h218l-53 133q-16 41 -31 81.5t-24 77.5 h-1q-10 -37 -25 -78t-31 -81z" />
<glyph horiz-adv-x="511" d="M370 791l13 -11q-27 -37 -52 -75t-48 -79l-43 -5q-25 41 -53 81t-59 78l13 11q31 -29 61.5 -61t58.5 -65q51 64 109 126zM64 0h-39l183 465q8 22 16.5 42.5t13.5 36.5l29 3l5 -5l214 -542h-42l-67 169h-246zM198 336l-53 -133h218l-53 133q-16 41 -31 81.5t-24 77.5h-1 q-10 -37 -25 -78t-31 -81z" />
<glyph horiz-adv-x="511" d="M141 620l-13 11q27 37 52.5 75t47.5 79l43 5q25 -41 53 -81t59 -78l-13 -11q-31 29 -61.5 61t-58.5 65q-51 -64 -109 -126zM64 0h-39l183 465q8 22 16.5 42.5t13.5 36.5l29 3l5 -5l214 -542h-42l-67 169h-246zM198 336l-53 -133h218l-53 133q-16 41 -31 81.5t-24 77.5h-1 q-10 -37 -25 -78t-31 -81z" />
<glyph horiz-adv-x="511" d="M197 708q0 -18 -8.5 -33.5t-27.5 -15.5q-16 0 -25 12.5t-9 29.5q0 19 10.5 33.5t26.5 14.5t24.5 -11.5t8.5 -29.5zM385 708q0 -18 -8.5 -33.5t-27.5 -15.5q-16 0 -25 12.5t-9 29.5q0 19 10.5 33.5t26.5 14.5t24.5 -11.5t8.5 -29.5zM64 0h-39l183 465q8 22 16.5 42.5 t13.5 36.5l29 3l5 -5l214 -542h-42l-67 169h-246zM198 336l-53 -133h218l-53 133q-16 41 -31 81.5t-24 77.5h-1q-10 -37 -25 -78t-31 -81z" />
<glyph horiz-adv-x="511" d="M64 0h-39l183 465q8 22 16.5 42.5t13.5 36.5l29 3l5 -5l214 -542h-42l-67 169h-246zM198 336l-53 -133h218l-53 133q-16 41 -31 81.5t-24 77.5h-1q-10 -37 -25 -78t-31 -81zM292 -159q0 -17 -8.5 -32t-28.5 -15q-16 0 -25.5 12.5t-9.5 30.5t10.5 32.5t27.5 14.5t25.5 -12 t8.5 -31z" />
<glyph horiz-adv-x="511" d="M332 621q-50 32 -90 68.5t-72 82.5l3 8l39 16q23 -41 58 -82.5t72 -79.5zM64 0h-39l183 465q8 22 16.5 42.5t13.5 36.5l29 3l5 -5l214 -542h-42l-67 169h-246zM198 336l-53 -133h218l-53 133q-16 41 -31 81.5t-24 77.5h-1q-10 -37 -25 -78t-31 -81z" />
<glyph horiz-adv-x="511" d="M124 687v34h264v-34h-264zM64 0h-39l183 465q8 22 16.5 42.5t13.5 36.5l29 3l5 -5l214 -542h-42l-67 169h-246zM198 336l-53 -133h218l-53 133q-16 41 -31 81.5t-24 77.5h-1q-10 -37 -25 -78t-31 -81z" />
<glyph horiz-adv-x="511" d="M64 0h-39l183 465q8 22 16.5 42.5t13.5 36.5l29 3l5 -5l214 -542q-111 -64 -111 -127q0 -52 56 -52q11 0 24.5 2.5t31.5 9.5l9 -22q-14 -11 -34 -17t-40 -6q-42 0 -65.5 19.5t-23.5 54.5q0 75 111 138v0l-67 169h-246zM198 336l-53 -133h218l-53 133q-16 41 -31 81.5 t-24 77.5h-1q-10 -37 -25 -78t-31 -81z" />
<glyph horiz-adv-x="511" d="M334 692q0 -31 -23.5 -54t-57.5 -23q-28 0 -51.5 19.5t-23.5 49.5q0 32 24 54.5t58 22.5q32 0 53 -20t21 -49zM212 687q0 -20 12.5 -32.5t31.5 -12.5q20 0 32 14t12 33t-11 32t-32 13q-20 0 -32.5 -13.5t-12.5 -33.5zM64 0h-39l183 465q8 22 16.5 42.5t13.5 36.5l29 3 l5 -5l214 -542h-42l-67 169h-246zM198 336l-53 -133h218l-53 133q-16 41 -31 81.5t-24 77.5h-1q-10 -37 -25 -78t-31 -81z" />
<glyph horiz-adv-x="511" d="M339 1002l3 -8q-31 -46 -71.5 -82.5t-90.5 -68.5l-10 13q38 38 72.5 79.5t57.5 82.5zM334 692q0 -31 -23.5 -54t-57.5 -23q-28 0 -51.5 19.5t-23.5 49.5q0 32 24 54.5t58 22.5q32 0 53 -20t21 -49zM212 687q0 -20 12.5 -32.5t31.5 -12.5q20 0 32 14t12 33t-11 32t-32 13 q-20 0 -32.5 -13.5t-12.5 -33.5zM64 0h-39l183 465q8 22 16.5 42.5t13.5 36.5l29 3l5 -5l214 -542h-42l-67 169h-246zM198 336l-53 -133h218l-53 133q-16 41 -31 81.5t-24 77.5h-1q-10 -37 -25 -78t-31 -81z" />
<glyph horiz-adv-x="511" d="M190 751q25 0 46.5 -14t42 -28t40.5 -14q21 0 36.5 17.5t26.5 39.5l16 -3q-4 -21 -15 -42.5t-28 -35.5t-41 -14q-25 0 -47 14t-41.5 28t-40.5 14t-36.5 -17t-26.5 -40l-16 3q5 20 15.5 41t27.5 36t41 15zM64 0h-39l183 465q8 22 16.5 42.5t13.5 36.5l29 3l5 -5l214 -542 h-42l-67 169h-246zM198 336l-53 -133h218l-53 133q-16 41 -31 81.5t-24 77.5h-1q-10 -37 -25 -78t-31 -81z" />
<glyph horiz-adv-x="665" d="M64 0h-39l217 465q9 20 17.5 39.5t13.5 34.5h297l5 -5l-1 -32l-244 4l30 -222l198 2v-36l-193 2l29 -219l229 4v-37h-266q-7 49 -12.5 91t-9.5 78h-192q-17 -36 -36.5 -78t-42.5 -91zM291 495q-7 -17 -14 -35t-20 -46.5t-36.5 -78.5t-61.5 -132h171q-11 87 -18 137 t-10 77t-4.5 43t-3.5 35h-3z" />
<glyph horiz-adv-x="665" d="M414 777l3 -8q-31 -46 -71.5 -82.5t-90.5 -68.5l-10 13q38 38 72.5 79.5t57.5 82.5zM64 0h-39l217 465q9 20 17.5 39.5t13.5 34.5h297l5 -5l-1 -32l-244 4l30 -222l198 2v-36l-193 2l29 -219l229 4v-37h-266q-7 49 -12.5 91t-9.5 78h-192q-17 -36 -36.5 -78t-42.5 -91z M291 495q-7 -17 -14 -35t-20 -46.5t-36.5 -78.5t-61.5 -132h171q-11 87 -18 137t-10 77t-4.5 43t-3.5 35h-3z" />
<glyph horiz-adv-x="476" d="M204 0h-120v422q0 34 -1.5 61.5t-4.5 55.5h129q86 0 137.5 -37t51.5 -100q0 -46 -27.5 -77t-72.5 -45q64 -13 95 -48.5t31 -84.5q0 -69 -58.5 -108t-159.5 -39zM204 506h-80v-212h77q75 0 114 27t39 76t-37.5 79t-112.5 30zM205 261h-81v-228h85q84 0 127.5 30t43.5 85 q0 50 -40.5 81.5t-134.5 31.5z" />
<glyph horiz-adv-x="516" d="M461 73l5 -36q-30 -22 -73.5 -33.5t-85.5 -11.5q-68 0 -120.5 31.5t-82 91.5t-29.5 146q0 90 31.5 154t85.5 98t123 34q37 0 77 -9t68 -26l-8 -40q-23 17 -58.5 27.5t-75.5 10.5q-56 0 -102 -28t-72.5 -82t-26.5 -134q0 -68 22.5 -122t66.5 -84.5t108 -30.5q41 0 80 12.5 t67 31.5z" />
<glyph horiz-adv-x="516" d="M375 777l3 -8q-31 -46 -71.5 -82.5t-90.5 -68.5l-10 13q38 38 72.5 79.5t57.5 82.5zM461 73l5 -36q-30 -22 -73.5 -33.5t-85.5 -11.5q-68 0 -120.5 31.5t-82 91.5t-29.5 146q0 90 31.5 154t85.5 98t123 34q37 0 77 -9t68 -26l-8 -40q-23 17 -58.5 27.5t-75.5 10.5 q-56 0 -102 -28t-72.5 -82t-26.5 -134q0 -68 22.5 -122t66.5 -84.5t108 -30.5q41 0 80 12.5t67 31.5z" />
<glyph horiz-adv-x="516" d="M406 791l13 -11q-27 -37 -52 -75t-48 -79l-43 -5q-25 41 -53 81t-59 78l13 11q31 -29 61.5 -61t58.5 -65q51 64 109 126zM461 73l5 -36q-30 -22 -73.5 -33.5t-85.5 -11.5q-68 0 -120.5 31.5t-82 91.5t-29.5 146q0 90 31.5 154t85.5 98t123 34q37 0 77 -9t68 -26l-8 -40 q-23 17 -58.5 27.5t-75.5 10.5q-56 0 -102 -28t-72.5 -82t-26.5 -134q0 -68 22.5 -122t66.5 -84.5t108 -30.5q41 0 80 12.5t67 31.5z" />
<glyph horiz-adv-x="516" d="M392 -123q0 -37 -37 -59.5t-87 -29.5l-6 22q41 10 64.5 24t23.5 35t-19.5 29.5t-42.5 10.5l-7 11l23 72q-67 1 -118.5 32.5t-81 91.5t-29.5 145q0 90 31.5 154t85.5 98t123 34q37 0 77 -9t68 -26l-8 -40q-23 17 -58.5 27.5t-75.5 10.5q-56 0 -102 -28t-72.5 -82 t-26.5 -134q0 -68 22.5 -122t66.5 -84.5t108 -30.5q41 0 80 12.5t67 31.5l5 -36q-25 -19 -60 -30t-71 -14l-18 -55q32 -5 53.5 -20t21.5 -41z" />
<glyph horiz-adv-x="516" d="M177 620l-13 11q27 37 52.5 75t47.5 79l43 5q25 -41 53 -81t59 -78l-13 -11q-31 29 -61.5 61t-58.5 65q-51 -64 -109 -126zM461 73l5 -36q-30 -22 -73.5 -33.5t-85.5 -11.5q-68 0 -120.5 31.5t-82 91.5t-29.5 146q0 90 31.5 154t85.5 98t123 34q37 0 77 -9t68 -26l-8 -40 q-23 17 -58.5 27.5t-75.5 10.5q-56 0 -102 -28t-72.5 -82t-26.5 -134q0 -68 22.5 -122t66.5 -84.5t108 -30.5q41 0 80 12.5t67 31.5z" />
<glyph horiz-adv-x="516" d="M328 709q0 -17 -8.5 -32t-28.5 -15q-16 0 -25.5 12.5t-9.5 30.5t10.5 32.5t27.5 14.5t25.5 -12t8.5 -31zM461 73l5 -36q-30 -22 -73.5 -33.5t-85.5 -11.5q-68 0 -120.5 31.5t-82 91.5t-29.5 146q0 90 31.5 154t85.5 98t123 34q37 0 77 -9t68 -26l-8 -40 q-23 17 -58.5 27.5t-75.5 10.5q-56 0 -102 -28t-72.5 -82t-26.5 -134q0 -68 22.5 -122t66.5 -84.5t108 -30.5q41 0 80 12.5t67 31.5z" />
<glyph horiz-adv-x="567" d="M492 271q0 -85 -38 -146t-102 -93t-141 -32h-127v422q0 34 -1.5 61.5t-4.5 55.5h136q76 0 139 -32t101 -91.5t38 -144.5zM208 505h-84v-471h86q71 0 124.5 27.5t84 80.5t30.5 127t-30 126.5t-84.5 81t-126.5 28.5z" />
<glyph horiz-adv-x="567" d="M492 271q0 -85 -38 -146t-102 -93t-141 -32h-127v249h-91v30h91v143q0 34 -1.5 61.5t-4.5 55.5h136q76 0 139 -32t101 -91.5t38 -144.5zM299 249h-175v-215h86q71 0 124.5 27.5t84 80.5t30.5 127t-30 126.5t-84.5 81t-126.5 28.5h-84v-226h175v-30z" />
<glyph horiz-adv-x="567" d="M381 791l13 -11q-27 -37 -52 -75t-48 -79l-43 -5q-25 41 -53 81t-59 78l13 11q31 -29 61.5 -61t58.5 -65q51 64 109 126zM492 271q0 -85 -38 -146t-102 -93t-141 -32h-127v422q0 34 -1.5 61.5t-4.5 55.5h136q76 0 139 -32t101 -91.5t38 -144.5zM208 505h-84v-471h86 q71 0 124.5 27.5t84 80.5t30.5 127t-30 126.5t-84.5 81t-126.5 28.5z" />
<glyph horiz-adv-x="567" d="M492 271q0 -85 -38 -146t-102 -93t-141 -32h-127v249h-91v30h91v143q0 34 -1.5 61.5t-4.5 55.5h136q76 0 139 -32t101 -91.5t38 -144.5zM299 249h-175v-215h86q71 0 124.5 27.5t84 80.5t30.5 127t-30 126.5t-84.5 81t-126.5 28.5h-84v-226h175v-30z" />
<glyph horiz-adv-x="567" d="M492 271q0 -85 -38 -146t-102 -93t-141 -32h-127v422q0 34 -1.5 61.5t-4.5 55.5h136q76 0 139 -32t101 -91.5t38 -144.5zM208 505h-84v-471h86q71 0 124.5 27.5t84 80.5t30.5 127t-30 126.5t-84.5 81t-126.5 28.5zM308 -159q0 -17 -8.5 -32t-28.5 -15q-16 0 -25.5 12.5 t-9.5 30.5t10.5 32.5t27.5 14.5t25.5 -12t8.5 -31z" />
<glyph horiz-adv-x="427" d="M385 37v-37h-301v422q0 34 -1.5 61.5t-4.5 55.5h294l5 -5l-1 -32l-252 4v-222l216 2v-36l-216 2v-219z" />
<glyph horiz-adv-x="427" d="M309 777l3 -8q-31 -46 -71.5 -82.5t-90.5 -68.5l-10 13q38 38 72.5 79.5t57.5 82.5zM385 37v-37h-301v422q0 34 -1.5 61.5t-4.5 55.5h294l5 -5l-1 -32l-252 4v-222l216 2v-36l-216 2v-219z" />
<glyph horiz-adv-x="427" d="M322 768l23 -3q-11 -58 -43.5 -90t-78.5 -32q-45 0 -76.5 32t-39.5 90l22 3q11 -38 36.5 -60t62.5 -22q33 0 58 22.5t36 59.5zM385 37v-37h-301v422q0 34 -1.5 61.5t-4.5 55.5h294l5 -5l-1 -32l-252 4v-222l216 2v-36l-216 2v-219z" />
<glyph horiz-adv-x="427" d="M340 791l13 -11q-27 -37 -52 -75t-48 -79l-43 -5q-25 41 -53 81t-59 78l13 11q31 -29 61.5 -61t58.5 -65q51 64 109 126zM385 37v-37h-301v422q0 34 -1.5 61.5t-4.5 55.5h294l5 -5l-1 -32l-252 4v-222l216 2v-36l-216 2v-219z" />
<glyph horiz-adv-x="427" d="M111 620l-13 11q27 37 52.5 75t47.5 79l43 5q25 -41 53 -81t59 -78l-13 -11q-31 29 -61.5 61t-58.5 65q-51 -64 -109 -126zM385 37v-37h-301v422q0 34 -1.5 61.5t-4.5 55.5h294l5 -5l-1 -32l-252 4v-222l216 2v-36l-216 2v-219z" />
<glyph horiz-adv-x="427" d="M167 708q0 -18 -8.5 -33.5t-27.5 -15.5q-16 0 -25 12.5t-9 29.5q0 19 10.5 33.5t26.5 14.5t24.5 -11.5t8.5 -29.5zM355 708q0 -18 -8.5 -33.5t-27.5 -15.5q-16 0 -25 12.5t-9 29.5q0 19 10.5 33.5t26.5 14.5t24.5 -11.5t8.5 -29.5zM385 37v-37h-301v422q0 34 -1.5 61.5 t-4.5 55.5h294l5 -5l-1 -32l-252 4v-222l216 2v-36l-216 2v-219z" />
<glyph horiz-adv-x="427" d="M262 709q0 -17 -8.5 -32t-28.5 -15q-16 0 -25.5 12.5t-9.5 30.5t10.5 32.5t27.5 14.5t25.5 -12t8.5 -31zM385 37v-37h-301v422q0 34 -1.5 61.5t-4.5 55.5h294l5 -5l-1 -32l-252 4v-222l216 2v-36l-216 2v-219z" />
<glyph horiz-adv-x="427" d="M385 37v-37h-301v422q0 34 -1.5 61.5t-4.5 55.5h294l5 -5l-1 -32l-252 4v-222l216 2v-36l-216 2v-219zM277 -159q0 -17 -8.5 -32t-28.5 -15q-16 0 -25.5 12.5t-9.5 30.5t10.5 32.5t27.5 14.5t25.5 -12t8.5 -31z" />
<glyph horiz-adv-x="427" d="M302 621q-50 32 -90 68.5t-72 82.5l3 8l39 16q23 -41 58 -82.5t72 -79.5zM385 37v-37h-301v422q0 34 -1.5 61.5t-4.5 55.5h294l5 -5l-1 -32l-252 4v-222l216 2v-36l-216 2v-219z" />
<glyph horiz-adv-x="427" d="M94 687v34h264v-34h-264zM385 37v-37h-301v422q0 34 -1.5 61.5t-4.5 55.5h294l5 -5l-1 -32l-252 4v-222l216 2v-36l-216 2v-219z" />
<glyph horiz-adv-x="427" d="M385 0q-111 -64 -111 -127q0 -52 56 -52q11 0 24.5 2.5t31.5 9.5l9 -22q-14 -11 -34 -17t-40 -6q-42 0 -65.5 19.5t-23.5 54.5q0 75 111 138h-259v422q0 34 -1.5 61.5t-4.5 55.5h294l5 -5l-1 -32l-252 4v-222l216 2v-36l-216 2v-219l261 4v-37z" />
<glyph horiz-adv-x="427" d="M160 751q25 0 46.5 -14t42 -28t40.5 -14q21 0 36.5 17.5t26.5 39.5l16 -3q-4 -21 -15 -42.5t-28 -35.5t-41 -14q-25 0 -47 14t-41.5 28t-40.5 14t-36.5 -17t-26.5 -40l-16 3q5 20 15.5 41t27.5 36t41 15zM385 37v-37h-301v422q0 34 -1.5 61.5t-4.5 55.5h294l5 -5l-1 -32 l-252 4v-222l216 2v-36l-216 2v-219z" />
<glyph horiz-adv-x="573" d="M79 234l15 15h361v20q0 120 -59 181t-152 61q-44 0 -83.5 -13.5t-71.5 -33.5l-4 36q22 15 65.5 31t99.5 16q74 0 130 -32t87 -93t31 -148q0 -86 -31 -150t-86.5 -99t-127.5 -35q-80 0 -129 48.5t-49 154.5q0 22 4 41zM117 189q0 -82 38 -122.5t102 -40.5q47 0 88 21 t69.5 63.5t37.5 108.5l-333 -7q-2 -10 -2 -23z" />
<glyph horiz-adv-x="405" d="M124 0h-40v422q0 34 -1.5 61.5t-4.5 55.5h293l5 -5v-32l-252 4v-230l216 1v-36l-216 2v-243z" />
<glyph horiz-adv-x="561" d="M482 229l4 -5l-1 -192q-34 -19 -84 -29.5t-90 -10.5q-106 0 -171 70t-65 199q0 90 32 154t89.5 98t135.5 34q37 0 72 -7.5t63 -22.5l-8 -40q-22 14 -54 24t-71 10q-97 0 -157 -62.5t-60 -181.5q0 -69 22.5 -123t67 -85t111.5 -31q29 0 63 6.5t64 17.5v49q0 37 -1.5 64 t-4.5 56z" />
<glyph horiz-adv-x="561" d="M362 777l3 -8q-31 -46 -71.5 -82.5t-90.5 -68.5l-10 13q38 38 72.5 79.5t57.5 82.5zM482 229l4 -5l-1 -192q-34 -19 -84 -29.5t-90 -10.5q-106 0 -171 70t-65 199q0 90 32 154t89.5 98t135.5 34q37 0 72 -7.5t63 -22.5l-8 -40q-22 14 -54 24t-71 10q-97 0 -157 -62.5 t-60 -181.5q0 -69 22.5 -123t67 -85t111.5 -31q29 0 63 6.5t64 17.5v49q0 37 -1.5 64t-4.5 56z" />
<glyph horiz-adv-x="561" d="M375 768l23 -3q-11 -58 -43.5 -90t-78.5 -32q-45 0 -76.5 32t-39.5 90l22 3q11 -38 36.5 -60t62.5 -22q33 0 58 22.5t36 59.5zM482 229l4 -5l-1 -192q-34 -19 -84 -29.5t-90 -10.5q-106 0 -171 70t-65 199q0 90 32 154t89.5 98t135.5 34q37 0 72 -7.5t63 -22.5l-8 -40 q-22 14 -54 24t-71 10q-97 0 -157 -62.5t-60 -181.5q0 -69 22.5 -123t67 -85t111.5 -31q29 0 63 6.5t64 17.5v49q0 37 -1.5 64t-4.5 56z" />
<glyph horiz-adv-x="561" d="M393 791l13 -11q-27 -37 -52 -75t-48 -79l-43 -5q-25 41 -53 81t-59 78l13 11q31 -29 61.5 -61t58.5 -65q51 64 109 126zM482 229l4 -5l-1 -192q-34 -19 -84 -29.5t-90 -10.5q-106 0 -171 70t-65 199q0 90 32 154t89.5 98t135.5 34q37 0 72 -7.5t63 -22.5l-8 -40 q-22 14 -54 24t-71 10q-97 0 -157 -62.5t-60 -181.5q0 -69 22.5 -123t67 -85t111.5 -31q29 0 63 6.5t64 17.5v49q0 37 -1.5 64t-4.5 56z" />
<glyph horiz-adv-x="561" d="M164 620l-13 11q27 37 52.5 75t47.5 79l43 5q25 -41 53 -81t59 -78l-13 -11q-31 29 -61.5 61t-58.5 65q-51 -64 -109 -126zM482 229l4 -5l-1 -192q-34 -19 -84 -29.5t-90 -10.5q-106 0 -171 70t-65 199q0 90 32 154t89.5 98t135.5 34q37 0 72 -7.5t63 -22.5l-8 -40 q-22 14 -54 24t-71 10q-97 0 -157 -62.5t-60 -181.5q0 -69 22.5 -123t67 -85t111.5 -31q29 0 63 6.5t64 17.5v49q0 37 -1.5 64t-4.5 56z" />
<glyph horiz-adv-x="561" d="M482 229l4 -5l-1 -192q-34 -19 -84 -29.5t-90 -10.5q-106 0 -171 70t-65 199q0 90 32 154t89.5 98t135.5 34q37 0 72 -7.5t63 -22.5l-8 -40q-22 14 -54 24t-71 10q-97 0 -157 -62.5t-60 -181.5q0 -69 22.5 -123t67 -85t111.5 -31q29 0 63 6.5t64 17.5v49q0 37 -1.5 64 t-4.5 56zM289 -306q12 25 21 48t14 46h-2q-16 0 -26.5 13t-10.5 30t10 32.5t31 15.5q19 0 29 -13t10 -36q0 -34 -17 -74t-39 -73z" />
<glyph horiz-adv-x="561" d="M315 709q0 -17 -8.5 -32t-28.5 -15q-16 0 -25.5 12.5t-9.5 30.5t10.5 32.5t27.5 14.5t25.5 -12t8.5 -31zM482 229l4 -5l-1 -192q-34 -19 -84 -29.5t-90 -10.5q-106 0 -171 70t-65 199q0 90 32 154t89.5 98t135.5 34q37 0 72 -7.5t63 -22.5l-8 -40q-22 14 -54 24t-71 10 q-97 0 -157 -62.5t-60 -181.5q0 -69 22.5 -123t67 -85t111.5 -31q29 0 63 6.5t64 17.5v49q0 37 -1.5 64t-4.5 56z" />
<glyph horiz-adv-x="572" d="M124 0h-40v421q0 35 -1.5 62.5t-4.5 55.5l41 8l5 -5v-257h324v136q0 35 -1.5 62.5t-4.5 55.5l41 8l5 -5v-542h-40v251h-324v-251z" />
<glyph horiz-adv-x="572" d="M124 0h-40v403h-77v30h77q0 30 -1.5 55.5t-4.5 50.5l41 8l5 -5v-109h324q0 30 -1.5 55.5t-4.5 50.5l41 8l5 -5v-109h77v-30h-77v-403h-40v251h-324v-251zM124 285h324v118h-324v-118z" />
<glyph horiz-adv-x="572" d="M171 620l-13 11q27 37 52.5 75t47.5 79l43 5q25 -41 53 -81t59 -78l-13 -11q-31 29 -61.5 61t-58.5 65q-51 -64 -109 -126zM124 0h-40v421q0 35 -1.5 62.5t-4.5 55.5l41 8l5 -5v-257h324v136q0 35 -1.5 62.5t-4.5 55.5l41 8l5 -5v-542h-40v251h-324v-251z" />
<glyph horiz-adv-x="572" d="M124 0h-40v421q0 35 -1.5 62.5t-4.5 55.5l41 8l5 -5v-257h324v136q0 35 -1.5 62.5t-4.5 55.5l41 8l5 -5v-542h-40v251h-324v-251zM322 -159q0 -17 -8.5 -32t-28.5 -15q-16 0 -25.5 12.5t-9.5 30.5t10.5 32.5t27.5 14.5t25.5 -12t8.5 -31z" />
<glyph horiz-adv-x="208" d="M124 0h-40v421q0 35 -1.5 62.5t-4.5 55.5l41 8l5 -5v-542z" />
<glyph horiz-adv-x="208" d="M124 0h-40v421q0 35 -1.5 62.5t-4.5 55.5l41 8l5 -5v-542z" />
<glyph horiz-adv-x="208" d="M184 777l3 -8q-31 -46 -71.5 -82.5t-90.5 -68.5l-10 13q38 38 72.5 79.5t57.5 82.5zM124 0h-40v421q0 35 -1.5 62.5t-4.5 55.5l41 8l5 -5v-542z" />
<glyph horiz-adv-x="208" d="M182 771l23 -3q-10 -58 -38 -90t-69 -32q-39 0 -66 32t-35 90l22 3q9 -38 31 -60t53 -22q28 0 48.5 22.5t30.5 59.5zM124 0h-40v421q0 35 -1.5 62.5t-4.5 55.5l41 8l5 -5v-542z" />
<glyph horiz-adv-x="208" d="M188 796l10 -10q-19 -38 -36.5 -76t-33.5 -78l-43 -5q-19 41 -39.5 80.5t-42.5 78.5l10 10q24 -28 47.5 -59t45.5 -62l40 62t42 59zM124 0h-40v421q0 35 -1.5 62.5t-4.5 55.5l41 8l5 -5v-542z" />
<glyph horiz-adv-x="208" d="M13 627l-10 10q19 38 36.5 76t33.5 78l43 5q19 -40 39.5 -80t42.5 -79l-10 -10q-24 28 -47.5 59t-45.5 62l-40 -62t-42 -59zM124 0h-40v421q0 35 -1.5 62.5t-4.5 55.5l41 8l5 -5v-542z" />
<glyph horiz-adv-x="208" d="M68 711q0 -18 -8.5 -33.5t-27.5 -15.5q-16 0 -25 12.5t-9 29.5q0 19 10.5 33.5t26.5 14.5t24.5 -11.5t8.5 -29.5zM204 711q0 -18 -8.5 -33.5t-27.5 -15.5q-16 0 -25 12.5t-9 29.5q0 19 10.5 33.5t26.5 14.5t24.5 -11.5t8.5 -29.5zM124 0h-40v421q0 35 -1.5 62.5 t-4.5 55.5l41 8l5 -5v-542z" />
<glyph horiz-adv-x="208" d="M137 709q0 -17 -8.5 -32t-28.5 -15q-16 0 -25.5 12.5t-9.5 30.5t10.5 32.5t27.5 14.5t25.5 -12t8.5 -31zM124 0h-40v421q0 35 -1.5 62.5t-4.5 55.5l41 8l5 -5v-542z" />
<glyph horiz-adv-x="208" d="M124 0h-40v421q0 35 -1.5 62.5t-4.5 55.5l41 8l5 -5v-542zM137 -159q0 -17 -8.5 -32t-28.5 -15q-16 0 -25.5 12.5t-9.5 30.5t10.5 32.5t27.5 14.5t25.5 -12t8.5 -31z" />
<glyph horiz-adv-x="208" d="M177 621q-50 32 -90 68.5t-72 82.5l3 8l39 16q23 -41 58 -82.5t72 -79.5zM124 0h-40v421q0 35 -1.5 62.5t-4.5 55.5l41 8l5 -5v-542z" />
<glyph horiz-adv-x="418" d="M124 0h-40v421q0 35 -1.5 62.5t-4.5 55.5l41 8l5 -5v-542zM230 -144l-14 22q33 19 55.5 58t22.5 104v381q0 65 -7 118l42 8l5 -5v-502q0 -76 -27 -118.5t-77 -65.5z" />
<glyph horiz-adv-x="208" d="M9 687v34h185v-34h-185zM124 0h-40v421q0 35 -1.5 62.5t-4.5 55.5l41 8l5 -5v-542z" />
<glyph horiz-adv-x="208" d="M124 0q-28 -30 -45 -60t-17 -59q0 -60 56 -60q11 0 24.5 2.5t31.5 9.5l9 -22q-14 -11 -34 -17t-40 -6q-42 0 -65.5 21.5t-23.5 60.5q0 34 19 67t52 63h-7v421q0 35 -1.5 62.5t-4.5 55.5l41 8l5 -5v-542z" />
<glyph horiz-adv-x="208" d="M56 755q20 0 36 -14t30 -28t29 -14q17 0 29 17.5t19 39.5l16 -3q-1 -19 -10 -40.5t-24 -36.5t-35 -15t-36 14t-30 28t-29 14q-17 0 -28.5 -17t-19.5 -40l-16 3q2 19 11 40.5t23.5 36.5t34.5 15zM124 0h-40v421q0 35 -1.5 62.5t-4.5 55.5l41 8l5 -5v-542z" />
<glyph horiz-adv-x="210" d="M22 -144l-14 22q33 19 55.5 58t22.5 104v381q0 65 -7 118l42 8l5 -5v-502q0 -76 -27 -118.5t-77 -65.5z" />
<glyph horiz-adv-x="210" d="M22 -144l-14 22q33 19 55.5 58t22.5 104v381q0 65 -7 118l42 8l5 -5v-502q0 -76 -27 -118.5t-77 -65.5z" />
<glyph horiz-adv-x="210" d="M17 627l-10 10q19 38 36.5 76t33.5 78l43 5q19 -40 39.5 -80t42.5 -79l-10 -10q-24 28 -47.5 59t-45.5 62l-40 -62t-42 -59zM22 -144l-14 22q33 19 55.5 58t22.5 104v381q0 65 -7 118l42 8l5 -5v-502q0 -76 -27 -118.5t-77 -65.5z" />
<glyph horiz-adv-x="472" d="M84 421q0 35 -1.5 62.5t-4.5 55.5l40 8l4 -5v-258h91q50 65 100 131t99 132l28 -10l5 -5l-198 -259l216 -273l-40 -8l-207 258h-94v-250h-38v421z" />
<glyph horiz-adv-x="472" d="M84 421q0 35 -1.5 62.5t-4.5 55.5l40 8l4 -5v-258h91q50 65 100 131t99 132l28 -10l5 -5l-198 -259l216 -273l-40 -8l-207 258h-94v-250h-38v421zM217 -306q12 25 21 48t14 46h-2q-16 0 -26.5 13t-10.5 30t10 32.5t31 15.5q19 0 29 -13t10 -36q0 -34 -17 -74t-39 -73z " />
<glyph horiz-adv-x="472" d="M84 421q0 35 -1.5 62.5t-4.5 55.5l40 8l4 -5v-258h91q50 65 100 131t99 132l28 -10l5 -5l-198 -259l216 -273l-40 -8l-207 258h-94v-250h-38v421z" />
<glyph horiz-adv-x="399" d="M378 37v-37h-294v422q0 35 -1.5 62t-4.5 55l41 8l5 -5v-509z" />
<glyph horiz-adv-x="399" d="M223 777l3 -8q-31 -46 -71.5 -82.5t-90.5 -68.5l-10 13q38 38 72.5 79.5t57.5 82.5zM378 37v-37h-294v422q0 35 -1.5 62t-4.5 55l41 8l5 -5v-509z" />
<glyph horiz-adv-x="399" d="M324 580l6 -6q-4 -56 -20.5 -107.5t-43.5 -104.5l-16 6q14 53 23.5 106t8.5 100zM378 37v-37h-294v422q0 35 -1.5 62t-4.5 55l41 8l5 -5v-509z" />
<glyph horiz-adv-x="399" d="M378 37v-37h-294v422q0 35 -1.5 62t-4.5 55l41 8l5 -5v-509zM201 -306q12 25 21 48t14 46h-2q-16 0 -26.5 13t-10.5 30t10 32.5t31 15.5q19 0 29 -13t10 -36q0 -34 -17 -74t-39 -73z" />
<glyph horiz-adv-x="399" d="M260 252q0 -17 -8.5 -32t-28.5 -15q-16 0 -25.5 12.5t-9.5 30.5t10.5 32.5t27.5 14.5t25.5 -12t8.5 -31zM378 37v-37h-294v422q0 35 -1.5 62t-4.5 55l41 8l5 -5v-509z" />
<glyph horiz-adv-x="399" d="M378 37v-37h-294v226l-106 -59l-16 29l122 68v158q0 35 -1.5 62t-4.5 55l41 8l5 -5v-256l139 77l17 -29l-156 -86v-215z" />
<glyph horiz-adv-x="722" d="M582 547l5 -5l76 -542h-40l-30 211q-12 82 -20 141.5t-13 123.5h-1q-21 -66 -46 -132t-50 -133l-80 -211h-44l-80 211q-22 61 -39 105.5t-30.5 82.5t-26.5 77h-1q-7 -67 -16.5 -133t-18.5 -132l-30 -211h-38l78 543l36 4l124 -319q14 -37 32.5 -88.5t31.5 -99.5h1 q19 62 35 106t30 82l122 315z" />
<glyph horiz-adv-x="572" d="M285 305q36 -51 65 -92.5t54 -79.5t47 -81h1q-1 19 -1.5 36.5t-1 40.5t-1 59t-0.5 91.5v138.5q0 35 -1.5 64t-4.5 57l41 8l5 -5v-542h-43q-41 62 -82 121.5t-82 119.5q-36 52 -63.5 92t-50.5 76.5t-46 77.5h-1q3 -52 3.5 -100t0.5 -95v-292h-40v422q0 34 -1.5 61.5 t-4.5 55.5l43 8q42 -61 83.5 -122t80.5 -120z" />
<glyph horiz-adv-x="572" d="M372 777l3 -8q-31 -46 -71.5 -82.5t-90.5 -68.5l-10 13q38 38 72.5 79.5t57.5 82.5zM285 305q36 -51 65 -92.5t54 -79.5t47 -81h1q-1 19 -1.5 36.5t-1 40.5t-1 59t-0.5 91.5v138.5q0 35 -1.5 64t-4.5 57l41 8l5 -5v-542h-43q-41 62 -82 121.5t-82 119.5q-36 52 -63.5 92 t-50.5 76.5t-46 77.5h-1q3 -52 3.5 -100t0.5 -95v-292h-40v422q0 34 -1.5 61.5t-4.5 55.5l43 8q42 -61 83.5 -122t80.5 -120z" />
<glyph horiz-adv-x="572" d="M403 791l13 -11q-27 -37 -52 -75t-48 -79l-43 -5q-25 41 -53 81t-59 78l13 11q31 -29 61.5 -61t58.5 -65q51 64 109 126zM285 305q36 -51 65 -92.5t54 -79.5t47 -81h1q-1 19 -1.5 36.5t-1 40.5t-1 59t-0.5 91.5v138.5q0 35 -1.5 64t-4.5 57l41 8l5 -5v-542h-43 q-41 62 -82 121.5t-82 119.5q-36 52 -63.5 92t-50.5 76.5t-46 77.5h-1q3 -52 3.5 -100t0.5 -95v-292h-40v422q0 34 -1.5 61.5t-4.5 55.5l43 8q42 -61 83.5 -122t80.5 -120z" />
<glyph horiz-adv-x="572" d="M285 305q36 -51 65 -92.5t54 -79.5t47 -81h1q-1 19 -1.5 36.5t-1 40.5t-1 59t-0.5 91.5v138.5q0 35 -1.5 64t-4.5 57l41 8l5 -5v-542h-43q-41 62 -82 121.5t-82 119.5q-36 52 -63.5 92t-50.5 76.5t-46 77.5h-1q3 -52 3.5 -100t0.5 -95v-292h-40v422q0 34 -1.5 61.5 t-4.5 55.5l43 8q42 -61 83.5 -122t80.5 -120zM265 -306q12 25 21 48t14 46h-2q-16 0 -26.5 13t-10.5 30t10 32.5t31 15.5q19 0 29 -13t10 -36q0 -34 -17 -74t-39 -73z" />
<glyph horiz-adv-x="572" d="M325 709q0 -17 -8.5 -32t-28.5 -15q-16 0 -25.5 12.5t-9.5 30.5t10.5 32.5t27.5 14.5t25.5 -12t8.5 -31zM285 305q36 -51 65 -92.5t54 -79.5t47 -81h1q-1 19 -1.5 36.5t-1 40.5t-1 59t-0.5 91.5v138.5q0 35 -1.5 64t-4.5 57l41 8l5 -5v-542h-43q-41 62 -82 121.5 t-82 119.5q-36 52 -63.5 92t-50.5 76.5t-46 77.5h-1q3 -52 3.5 -100t0.5 -95v-292h-40v422q0 34 -1.5 61.5t-4.5 55.5l43 8q42 -61 83.5 -122t80.5 -120z" />
<glyph horiz-adv-x="572" d="M124 0h-40v422q0 34 -1.5 61.5t-4.5 55.5l43 8q42 -61 83.5 -122t80.5 -120q36 -51 65 -92.5t54 -79.5t47 -81h1q-1 19 -1.5 36.5t-1 40.5t-1 59t-0.5 91.5v138.5q0 35 -1.5 64t-4.5 57l41 8l5 -5v-502q0 -76 -27 -118.5t-77 -65.5l-14 22q28 16 48.5 45.5t26.5 76.5v0 q-41 62 -82 121.5t-82 119.5q-36 52 -63.5 92t-50.5 76.5t-46 77.5h-1q3 -52 3.5 -100t0.5 -95v-292z" />
<glyph horiz-adv-x="574" d="M22 -144l-14 22q33 19 55.5 58t22.5 104v382q0 34 -1.5 61.5t-4.5 55.5l43 8q42 -61 83.5 -122t80.5 -120q36 -51 65 -92.5t54 -79.5t47 -81h1q-1 19 -1.5 36.5t-1 40.5t-1 59t-0.5 91.5v138.5q0 35 -1.5 64t-4.5 57l41 8l5 -5v-542h-43q-41 62 -82 121.5t-82 119.5 q-36 52 -63.5 92t-50.5 76.5t-46 77.5h-1q3 -52 3.5 -100t0.5 -95v-252q0 -76 -27 -118.5t-77 -65.5z" />
<glyph horiz-adv-x="572" d="M223 751q25 0 46.5 -14t42 -28t40.5 -14q21 0 36.5 17.5t26.5 39.5l16 -3q-4 -21 -15 -42.5t-28 -35.5t-41 -14q-25 0 -47 14t-41.5 28t-40.5 14t-36.5 -17t-26.5 -40l-16 3q5 20 15.5 41t27.5 36t41 15zM285 305q36 -51 65 -92.5t54 -79.5t47 -81h1q-1 19 -1.5 36.5 t-1 40.5t-1 59t-0.5 91.5v138.5q0 35 -1.5 64t-4.5 57l41 8l5 -5v-542h-43q-41 62 -82 121.5t-82 119.5q-36 52 -63.5 92t-50.5 76.5t-46 77.5h-1q3 -52 3.5 -100t0.5 -95v-292h-40v422q0 34 -1.5 61.5t-4.5 55.5l43 8q42 -61 83.5 -122t80.5 -120z" />
<glyph horiz-adv-x="602" d="M527 271q0 -91 -31.5 -153.5t-83.5 -94t-115 -31.5q-62 0 -112.5 31t-80 91.5t-29.5 146.5q0 89 31 153t83.5 98.5t117.5 34.5q63 0 112.5 -33t78.5 -94.5t29 -148.5zM117 267q0 -109 49.5 -174t133.5 -65q80 0 132 62t52 178q0 73 -21 127.5t-60.5 85t-95.5 30.5 q-54 0 -97 -28.5t-68 -83t-25 -132.5z" />
<glyph horiz-adv-x="602" d="M384 777l3 -8q-31 -46 -71.5 -82.5t-90.5 -68.5l-10 13q38 38 72.5 79.5t57.5 82.5zM527 271q0 -91 -31.5 -153.5t-83.5 -94t-115 -31.5q-62 0 -112.5 31t-80 91.5t-29.5 146.5q0 89 31 153t83.5 98.5t117.5 34.5q63 0 112.5 -33t78.5 -94.5t29 -148.5zM117 267 q0 -109 49.5 -174t133.5 -65q80 0 132 62t52 178q0 73 -21 127.5t-60.5 85t-95.5 30.5q-54 0 -97 -28.5t-68 -83t-25 -132.5z" />
</font>
</defs>
</svg>
