<?xml version="1.0" standalone="no"?>
<!DOCTYPE svg PUBLIC "-//W3C//DTD SVG 1.1//EN" "http://www.w3.org/Graphics/SVG/1.1/DTD/svg11.dtd" >
<svg xmlns="http://www.w3.org/2000/svg" xmlns:xlink="http://www.w3.org/1999/xlink" version="1.1">
<metadata></metadata>
<defs>
<font id="indivisa_text_serifBdIt" horiz-adv-x="594" >
<font-face units-per-em="1000" ascent="800" descent="-200" />
<missing-glyph horiz-adv-x="250" />
<glyph unicode="ff" horiz-adv-x="643" d="M204 8q-27 -128 -93.5 -197t-152.5 -69q-48 0 -77 20t-29 49q0 16 8 27t20 17q15 -20 34.5 -33t44.5 -13q45 0 73.5 44t47.5 133l97 457h-67l2 17l74 27l5 22q15 67 54 118.5t93 81t113 29.5q45 0 78.5 -16t49.5 -39q35 35 77 55t87 20q50 0 81 -23t31 -54 q0 -28 -17 -44.5t-35 -22.5q-18 30 -43.5 55.5t-57.5 25.5q-33 0 -49 -25.5t-24.5 -66.5t-18.5 -89l-7 -30h123l-8 -41h-123l-92 -435q-27 -128 -89 -197t-143 -69q-40 0 -65.5 20t-25.5 49q0 16 8 27t21 17q12 -20 27 -33t35 -13q41 0 65 44t42 133l97 457h-179zM308 501 l-3 -17h179l5 25q11 52 34 97q-13 27 -39.5 48t-65.5 21q-40 0 -60 -23t-29.5 -62.5t-20.5 -88.5z" />
<glyph unicode="ffi" horiz-adv-x="876" d="M204 8q-27 -128 -93.5 -197t-152.5 -69q-48 0 -77 20t-29 49q0 16 8 27t20 17q15 -20 34.5 -33t44.5 -13q45 0 73.5 44t47.5 133l97 457h-67l2 17l74 27l5 22q14 67 53.5 118.5t93.5 81t113 29.5q46 0 80 -16.5t49 -40.5q37 36 82.5 56.5t96.5 20.5q62 0 102 -30.5 t40 -74.5q0 -26 -24.5 -44t-63.5 -18q-15 50 -39.5 77t-58.5 27q-31 0 -50 -18.5t-30 -49.5t-17.5 -68t-14.5 -75h161q55 0 83 -21.5t28 -59.5q0 -28 -16 -95.5t-36 -153.5q-4 -20 -7.5 -37t-3.5 -27q0 -23 18 -23q16 0 39.5 22t43.5 46l9 -8q-15 -31 -38.5 -62.5t-53.5 -53 t-64 -21.5q-37 0 -56 22t-19 59q0 16 3.5 36.5t9.5 46.5q21 98 37.5 165.5t16.5 88.5q0 35 -45 35h-118l-92 -435q-27 -128 -89 -197t-143 -69q-40 0 -65.5 20t-25.5 49q0 16 8 27t21 17q12 -20 27 -33t35 -13q41 0 65 44t42 133l97 457h-179zM308 501l-3 -17h179l5 25 q11 51 35 96q-14 28 -40.5 49t-65.5 21q-40 0 -60 -23t-29.5 -62.5t-20.5 -88.5z" />
<glyph unicode="ffl" horiz-adv-x="903" d="M204 8q-27 -128 -93.5 -197t-152.5 -69q-48 0 -77 20t-29 49q0 16 8 27t20 17q15 -20 34.5 -33t44.5 -13q45 0 73.5 44t47.5 133l97 457h-67l2 17l74 27l5 22q14 67 53.5 118.5t93.5 81t113 29.5q47 0 81 -17t49 -41q38 37 84 57.5t96 20.5q45 0 75 -19q29 7 57 11.5 t51 6.5l8 -9l-130 -594q-4 -20 -7 -37t-3 -27q0 -23 17 -23t40.5 22t43.5 46l9 -8q-16 -31 -39.5 -62.5t-53 -53t-63.5 -21.5q-37 0 -56 22t-19 59q0 16 3 36.5t9 46.5l107 492q-14 20 -37 34.5t-53 14.5q-38 0 -58 -25.5t-31 -66.5t-21 -89l-7 -30h132l-12 -41h-128 l-92 -435q-27 -128 -94 -197t-153 -69q-47 0 -76.5 20t-29.5 49q0 16 8 27t21 17q15 -20 34 -33t44 -13q46 0 74.5 44t46.5 133l97 457h-179zM308 501l-3 -17h179l5 25q11 51 35 95q-14 28 -40.5 49.5t-65.5 21.5q-40 0 -60 -23t-29.5 -62.5t-20.5 -88.5z" />
<glyph unicode="&#x2f;symbol&#x31;&#x2f;" horiz-adv-x="5534" d="M1865 412q-25 0 -40.5 14.5t-15.5 37.5q0 24 15.5 45t39 34.5t48.5 13.5q24 0 39 -13.5t15 -37.5t-14.5 -45.5t-37.5 -35t-49 -13.5zM1284 412q-26 0 -41.5 14.5t-15.5 37.5q0 24 15.5 45t39.5 34.5t49 13.5q24 0 38.5 -13.5t14.5 -37.5t-14.5 -45.5t-37 -35t-48.5 -13.5 zM959 0q0 21 2.5 46.5t8.5 61.5q-16 -49 -51 -82t-79 -33q-41 0 -63 30t-22 82q0 45 15.5 91t46.5 85.5t76.5 63.5t104.5 24h12.5t12.5 -1l16 73l6 102l136 7q0 -40 -9.5 -95t-23 -116.5t-27 -123.5t-23 -117.5t-9.5 -97.5h-130zM100 0l78 364q8 38 13.5 72.5t7.5 63.5 l128 7l11 -15l-104 -492h-134zM3503 492l-57 -492h-131l20 175q3 30 9 69t12.5 78t11.5 68h-3q-16 -53 -37 -107.5t-44 -107.5l-76 -175h-149l-2 175q-1 56 1 109t8 106h-2q-15 -61 -30 -115.5t-29 -99.5l-53 -175h-109l154 500l184 6l1 -137q1 -50 -2.5 -121.5 t-12.5 -137.5h2q20 65 36 111t30.5 81t27.5 67l56 131l169 7zM5316 300q-15 -74 -23 -110.5t-11 -51t-3 -21.5q0 -34 36 -34q13 0 28 5t31 13l-9 -79q-20 -11 -50 -20t-64 -9q-50 0 -77.5 25t-27.5 75q0 11 1.5 23.5t6 33.5t12.5 57.5t20 95.5l-47 1l9 44l54 14l53 95l81 6 l13 -15l-20 -86h99l6 -14l-17 -51zM336 0q0 28 4 62t13 82t24 116l6 102l137 7q0 -18 -2 -41t-5 -48h2q29 49 65.5 69t68.5 20q35 0 53.5 -19.5t18.5 -51.5q0 -23 -8 -62.5t-18 -84.5q-7 -33 -11 -57t-5.5 -45.5t-1.5 -48.5h-131q0 38 4.5 69.5t14.5 80.5q7 35 11 55.5 t4 31.5q0 24 -17 24t-34 -22.5t-30.5 -60.5t-22 -84t-9.5 -94h-131zM1170 0q0 39 7 87.5t20 105.5l14 67l6 102l137 7q0 -36 -8 -81.5t-19 -95.5t-19 -99t-8 -93h-130zM1399 362l140 7q6 -59 4.5 -137.5t-9.5 -151.5h2q23 45 42 95t32 99t17 90q17 4 28.5 4.5t21.5 0.5 q28 0 46.5 -7t18.5 -35q0 -22 -13.5 -60.5t-36.5 -85t-53.5 -94t-63.5 -87.5h-149q-2 111 -9.5 207.5t-17.5 154.5zM1752 0q0 39 7 87.5t19 105.5l15 67l6 102l137 7q0 -36 -8 -81.5t-19 -95.5t-19 -99t-8 -93h-130zM4716 0q0 28 4 62t13 82t24 116l6 102l137 7 q0 -18 -2.5 -41t-4.5 -48h2q29 49 65 69t69 20q35 0 53.5 -19.5t18.5 -51.5q0 -23 -8 -62.5t-18 -84.5q-7 -33 -11 -57t-6 -45.5t-2 -48.5h-130q0 38 4.5 69.5t14.5 80.5q7 35 11 55.5t4 31.5q0 24 -17 24q-18 0 -34.5 -22.5t-30.5 -60.5t-22.5 -84t-9.5 -94h-130zM2245 256 q-25 14 -51.5 22t-45.5 8q-17 0 -29.5 -7t-12.5 -19q0 -13 13 -22t32 -17.5t38 -20.5t32 -30.5t13 -47.5q0 -39 -25 -68t-66.5 -45t-89.5 -16q-33 0 -66.5 7.5t-51.5 20.5l27 93q27 -18 58.5 -28t52.5 -10q20 0 30 8t10 18q0 13 -13 22t-32 18t-38 21t-32 30t-13 46 q0 39 25.5 68t67.5 45.5t90 16.5q20 0 48.5 -3.5t55.5 -14.5zM2525 369q32 0 73.5 -7.5t72.5 -24.5l-29 -128q-20 -94 -25.5 -140.5t-5.5 -68.5h-130q0 20 2.5 45t9.5 67q-15 -50 -50.5 -84.5t-81.5 -34.5q-41 0 -62.5 30t-21.5 83q0 44 15.5 90.5t46.5 85.5t77.5 63 t108.5 24zM4653 51q-32 -28 -74 -43t-85 -15q-62 0 -102 33.5t-40 103.5q0 46 17.5 88.5t49.5 76.5t75 54t94 20q53 0 86 -23t33 -65q0 -56 -59 -95.5t-162 -44.5v-1q0 -29 15 -46.5t48 -17.5q22 0 45 7.5t45 20.5zM3936 0q0 28 4 62t13.5 82t24.5 116l5 102l137 7 q0 -18 -2 -41t-5 -48h2q29 49 65.5 69t68.5 20q35 0 53.5 -19.5t18.5 -51.5q0 -23 -8 -62.5t-18 -84.5q-7 -33 -11 -57t-5.5 -45.5t-1.5 -48.5h-131q0 38 4.5 69.5t14.5 80.5q8 35 11.5 55.5t3.5 31.5q0 24 -17 24t-34 -22.5t-30.5 -60.5t-22 -84t-9.5 -94h-131zM3768 369 q32 0 73 -7.5t72 -24.5l-28 -128q-20 -94 -25.5 -140.5t-5.5 -68.5h-130q0 20 2.5 45t9.5 67q-15 -50 -50.5 -84.5t-81.5 -34.5q-41 0 -63 30t-22 83q0 44 15.5 90.5t47 85.5t78 63t108.5 24zM4490 177q46 10 72.5 33.5t26.5 59.5q0 17 -5.5 24t-16.5 7q-20 0 -36 -20 t-26 -48.5t-15 -55.5zM3677 101q17 0 33 21t30 54t22 69q2 11 4.5 22t4.5 22q-16 8 -27 8q-18 0 -34.5 -16t-29 -40.5t-20 -51.5t-7.5 -48q0 -40 24 -40zM913 101q16 0 31 19.5t28.5 50t22.5 64.5l4 20l4 20l3 14q-14 8 -27 8q-18 0 -34 -16t-28.5 -40.5t-20 -51.5t-7.5 -48 q0 -40 24 -40zM2435 101q16 0 32.5 21t30 54t21.5 69q2 11 4.5 22t4.5 22q-14 8 -27 8q-18 0 -34 -16t-29 -40.5t-20 -51.5t-7 -48q0 -40 24 -40z" />
<glyph unicode="&#x2f;symbol&#x32;&#x2f;" horiz-adv-x="932" d="M494 570l52 -90l-137 -240h-103l137 240l-52 90h103zM357 570l52 -90l-138 -240h-103l138 240l-52 90h103zM752 120h-103l-137 240l51 90l137 -240h103zM683 0h-103l-137 240l51 90l138 -240h103zM100 120l51 90h275l51 -90h-274l-52 -90zM168 0l52 90h274l52 -90h-275 l-51 -90zM789 88q18 0 30.5 -13t12.5 -31t-12.5 -31t-30.5 -13t-30.5 13t-12.5 31t12.5 31t30.5 13zM829 44q0 17 -11.5 28.5t-28.5 11.5q-16 0 -28 -11.5t-12 -28.5q0 -16 12 -28t28 -12q17 0 28.5 12t11.5 28zM771 69h18h5t6 -2q5 -4 5 -11q0 -5 -3 -8q-1 -2 -2.5 -2.5 t-3.5 -1.5q7 -1 8 -9q0 -8 3 -16h-8q-1 2 -1 6t-1 7q-1 5 -2.5 7.5t-8.5 2.5h-8v-23h-7v50zM778 47h10h3.5t3.5 1q3 3 3 7q0 6 -4 7t-6 1h-10v-16z" />
<glyph unicode="&#x2f;symbol&#x33;&#x2f;" horiz-adv-x="957" d="M505 638l68 -270h270l-203 -135l136 -270l-271 135l-270 -270l135 405l-270 203l338 -68zM814 87q18 0 30.5 -12.5t12.5 -31.5q0 -18 -12.5 -30.5t-30.5 -12.5t-30.5 12.5t-12.5 30.5q0 19 12.5 31.5t30.5 12.5zM854 43q0 17 -11.5 29t-28.5 12q-16 0 -28 -12t-12 -29 q0 -16 12 -28t28 -12q17 0 28.5 12t11.5 28zM796 68h18h5.5t5.5 -2q6 -3 6 -10q0 -5 -4 -9q-3 -3 -6 -3q7 -3 8 -10q1 -4 1.5 -7.5t1.5 -8.5h-7q-1 3 -1.5 7t-1.5 7q0 9 -10 9h-9v-23h-7v50zM803 47h10h3.5t3.5 1l2 2t1 4q0 7 -4 8t-6 1h-10v-16z" />
<glyph unicode="&#x2f;symbol&#x34;&#x2f;" horiz-adv-x="2607" d="M1684 406q0 32 -2.5 63t-8.5 65l126 14l15 -15v-533h-130v406zM1889 406q0 62 -10 128l126 14l14 -15v-533h-130v406zM427 101v-101h-320v362q0 38 -1.5 72t-5.5 63l126 7l14 -14v-396zM925 21l7 109q31 -18 72 -27t72 -9q50 0 50 36q0 19 -20.5 34t-50 31t-59.5 37 t-50.5 51t-20.5 74q0 48 26 80.5t70 49.5t97 17q81 0 127 -18l-14 -111q-28 14 -55 21.5t-56 7.5q-28 0 -43 -11t-15 -29q0 -22 20.5 -38.5t50.5 -32.5t59.5 -36.5t50 -49.5t20.5 -73q0 -67 -54 -104t-139 -37q-40 0 -82.5 8t-62.5 20zM795 0l-106 -7q-7 11 -12 24t-9 25h-4 q-15 -22 -42.5 -35.5t-61.5 -13.5q-41 0 -69 22t-28 67q0 61 53.5 88.5t137.5 29.5v20q0 54 -58 54q-55 0 -108 -29l-8 97q27 10 68.5 18t81.5 8q154 0 154 -135q0 -38 -2 -69.5t-2 -69.5q0 -24 4.5 -50.5t10.5 -43.5zM1626 0l-107 -7q-7 11 -12 24t-9 25h-3 q-15 -22 -42.5 -35.5t-62.5 -13.5q-40 0 -68 22t-28 67q0 61 53 88.5t138 29.5v20q0 54 -58 54q-54 0 -109 -29l-7 97q27 10 68.5 18t81.5 8q153 0 153 -135q0 -38 -1.5 -69.5t-1.5 -69.5q0 -24 4.5 -50.5t10.5 -43.5zM2405 213v-17t-1 -19l-11 -11h-191q8 -45 33.5 -64 t64.5 -19q24 0 45.5 6t38.5 15l7 -81q-17 -11 -49.5 -20.5t-77.5 -9.5q-88 0 -143 47t-55 135q0 58 24 101t66 67.5t94 24.5q73 0 114 -43.5t41 -111.5zM2199 207l78 4q1 5 1.5 11t0.5 15q0 23 -7.5 41t-26.5 18q-23 0 -34 -25.5t-12 -63.5zM654 74v88q-27 -3 -46 -17 t-19 -40q0 -18 10.5 -29t26.5 -11t28 9zM1485 74v88q-27 -3 -46 -17t-19 -40q0 -18 10 -29t27 -11q16 0 28 9zM2464 85q18 0 30.5 -13t12.5 -31t-12.5 -31t-30.5 -13t-31 13t-13 31t13 31t31 13zM2504 41q0 17 -11.5 28.5t-28.5 11.5q-16 0 -28 -11.5t-12 -28.5 q0 -16 12 -28t28 -12q17 0 28.5 12t11.5 28zM2446 66h18q2 0 5 -0.5t6 -2.5q5 -2 5 -10q0 -4 -3 -9q-3 -3 -6 -3q7 -1 8 -10q0 -7 3 -15h-8q-1 2 -1 6t-1 7q-1 5 -2.5 7t-8.5 2h-8v-22h-7v50zM2453 44h10h3.5t3.5 1q3 3 3 7q0 6 -4 7t-6 1h-10v-16z" />
<glyph unicode="&#x2f;symbol&#x35;&#x2f;" horiz-adv-x="705" d="M232 -6l-132 136l124 234l129 -136zM474 -6l-121 234l128 136l124 -234z" />
<glyph unicode=" "  horiz-adv-x="250" />
<glyph unicode="&#x09;" horiz-adv-x="250" />
<glyph unicode="&#xa0;" horiz-adv-x="250" />
<glyph unicode="!" horiz-adv-x="318" d="M224 683l7 5q48 8 87 8q34 0 34 -23q0 -13 -12 -55l-125 -412h-49zM149 -10q-23 0 -38 14.5t-15 38.5q0 34 24.5 58.5t56.5 24.5q23 0 37.5 -14t14.5 -38q0 -34 -24 -59t-56 -25z" />
<glyph unicode="&#x22;" horiz-adv-x="419" d="M201 753l5 5q26 0 59 -5t49 -12l5 -14l-130 -277l-34 7l23 141zM397 753l5 5q26 0 59 -5t48 -12l5 -14l-130 -277l-34 7l24 141z" />
<glyph unicode="#" horiz-adv-x="708" d="M250 -10l-59 9l-8 8l43 174h-131l-8 8l9 58h147l48 194h-129l-8 8l9 58h145l47 191l59 -10l8 -8l-43 -173h160l47 191l59 -10l8 -8l-43 -173h128l8 -8l-8 -58h-145l-48 -194h131l8 -8l-8 -58h-148l-47 -191l-59 9l-8 8l43 174h-160zM314 247h160l48 194h-160z" />
<glyph unicode="$" horiz-adv-x="530" d="M258 -137l-49 -3l-6 8l27 123q-57 2 -103 12t-55 24q-6 11 -6 28q0 30 15 71t38 74l24 -2v-12v-12q0 -69 22 -102q14 -21 37.5 -30t52.5 -9q57 0 93.5 38t36.5 93q0 34 -16.5 61.5t-43 51t-56 47t-56 50t-43.5 58.5t-17 74q0 56 32.5 97.5t84.5 65.5t113 28l27 130l48 3 l6 -8l-27 -125q51 -3 83.5 -14t42.5 -21q7 -6 7 -21q0 -18 -7.5 -45t-20 -55.5t-28.5 -50.5l-23 1q0 8 0.5 15t0.5 14q0 62 -14 88q-11 21 -30.5 33.5t-53.5 12.5q-52 0 -87 -34t-35 -85q0 -34 16.5 -61.5t43 -51.5t56 -48t56 -50t43.5 -57.5t17 -71.5q0 -54 -26.5 -98 t-75.5 -71.5t-117 -33.5z" />
<glyph unicode="%" horiz-adv-x="1001" d="M519 549q0 -52 -18.5 -99.5t-50.5 -85t-73.5 -59t-88.5 -21.5q-67 0 -106 41.5t-39 112.5q0 54 19 101.5t51 84.5t74 58t89 21q67 0 105 -41.5t38 -112.5zM871 698l-574 -708h-57l573 708h58zM234 410q0 -42 15.5 -68t44.5 -26q31 0 55.5 25.5t42 66t27.5 86.5t10 87 t-14.5 65.5t-44.5 24.5t-55 -25t-43 -65t-28 -85t-10 -86zM984 255q0 -52 -18 -99.5t-50.5 -85t-74 -59t-88.5 -21.5q-66 0 -105 41.5t-39 113.5q0 53 18.5 101t51 84.5t74.5 58t88 21.5q67 0 105 -41.5t38 -113.5zM700 116q0 -42 15.5 -67.5t44.5 -25.5q30 0 54.5 25.5 t42.5 65.5t27.5 86t9.5 87t-14.5 65.5t-44.5 24.5t-55 -25t-43 -64.5t-27.5 -85t-9.5 -86.5z" />
<glyph unicode="&#x26;" horiz-adv-x="817" d="M767 90q0 -45 -20 -72.5t-52 -27.5q-30 0 -54 18l-7 15q19 26 30.5 55t16.5 57v0q-45 13 -85 26q-47 -75 -119.5 -123t-173.5 -48q-94 0 -150.5 46.5t-56.5 123.5q0 49 24 91t64.5 72.5t92.5 43.5q-29 52 -29 112q0 62 30.5 111.5t83 78.5t119.5 29q73 0 113 -28.5 t40 -74.5q0 -32 -18 -58t-48 -40q25 -2 50.5 -3t49.5 -1q50 0 90.5 4.5t62.5 14.5l9 -2q14 -18 14 -45q0 -22 -15.5 -35.5t-43.5 -13.5q-51 0 -101 5q-6 -48 -18.5 -95.5t-31.5 -92.5q14 -6 28.5 -13t29.5 -14q37 -15 56 -45.5t19 -70.5zM371 511q0 -58 28 -103t76 -82 t111 -69q33 79 40 171q-56 9 -125 26l-10 16q21 24 34.5 54.5t13.5 62.5q0 67 -64 67q-45 0 -74.5 -40.5t-29.5 -102.5zM221 192q0 -53 34.5 -87.5t95.5 -34.5q60 0 108.5 30t83.5 80q-83 31 -144.5 69.5t-98.5 85.5q-32 -24 -55.5 -60.5t-23.5 -82.5z" />
<glyph unicode="'" horiz-adv-x="224" d="M198 753l6 5q26 0 59 -5t48 -12l5 -14l-130 -277l-34 7l24 141z" />
<glyph unicode="(" horiz-adv-x="390" d="M311 -179l-16 -17q-82 57 -125 146t-43 206q0 124 44.5 240t127.5 209.5t197 152.5l11 -18q-62 -53 -111 -125.5t-82.5 -155.5t-51 -169t-17.5 -165q0 -187 66 -304z" />
<glyph unicode=")" horiz-adv-x="391" d="M175 741l16 17q81 -57 124.5 -146t43.5 -206q0 -124 -45 -240t-128 -209.5t-196 -152.5l-11 18q62 53 110.5 125.5t82.5 155.5t51.5 169t17.5 165q0 187 -66 304z" />
<glyph unicode="*" horiz-adv-x="393" d="M321 515q-1 -16 -8.5 -25.5t-24.5 -9.5q-23 0 -23 21q0 16 13 44t23 56q-34 -23 -59.5 -44.5t-42.5 -21.5q-8 0 -14 7t-6 17q0 17 19 27q17 9 42 15.5t54 17.5q-23 11 -44 17t-34.5 13t-13.5 20t9.5 23.5t22.5 10.5q16 0 33.5 -22t40.5 -43v2q0 21 0.5 40.5t2.5 42.5 q1 15 8.5 25t24.5 10q23 0 23 -21q0 -16 -12.5 -43.5t-23.5 -55.5q34 22 58.5 43.5t42.5 21.5q10 0 15 -8t5 -15q0 -18 -18 -28q-18 -9 -43 -15.5t-54 -17.5q23 -10 44 -16.5t35 -13.5t14 -21q0 -13 -10 -23t-22 -10q-15 0 -32.5 20.5t-41.5 42.5v-1q0 -20 -0.5 -39.5 t-2.5 -42.5z" />
<glyph unicode="+" d="M284 135l-4 4l37 174h-183l13 63q32 1 81 2t103 1l36 174h63l4 -5l-35 -168q52 0 99.5 0.5t80.5 0.5l6 -8l-21 -60h-180l-37 -178h-63z" />
<glyph unicode="," horiz-adv-x="297" d="M19 -184l-9 9q38 36 68 81.5t45 88.5q-20 8 -30 25t-10 37q0 33 25.5 60t62.5 27q29 0 48 -20.5t19 -53.5q0 -32 -18 -68.5t-48.5 -71.5t-70 -65t-82.5 -49z" />
<glyph unicode="-" horiz-adv-x="394" d="M77 251l8 43h324l-8 -43h-324z" />
<glyph unicode="." horiz-adv-x="277" d="M218 80q0 -37 -25.5 -63.5t-61.5 -26.5q-32 0 -50 19.5t-18 46.5q0 34 26.5 61t63.5 27q29 0 47 -18.5t18 -45.5z" />
<glyph unicode="/" horiz-adv-x="401" d="M127 -10l-11 -3l-54 27l345 741l12 4l55 -28z" />
<glyph unicode="0" horiz-adv-x="608" d="M639 455q0 -90 -26 -173t-73 -149t-109 -104.5t-133 -38.5q-61 0 -106.5 29.5t-71.5 83.5t-26 129q0 87 26.5 170t73.5 150t109.5 106.5t134.5 39.5q96 0 148.5 -67t52.5 -176zM209 183q1 -65 26.5 -106t74.5 -41q39 0 72 31t59 82.5t44.5 113t28.5 123.5t10 114 q0 72 -23 112t-73 40q-41 0 -75.5 -30.5t-61.5 -81t-45.5 -112.5t-28 -125.5t-8.5 -119.5z" />
<glyph unicode="1" horiz-adv-x="364" d="M319 0h-297l-2 18l48 12q28 8 42.5 18.5t19.5 32.5l5 26l107 504l-90 14l2 17l217 56l7 -9l-123 -582l-13 -61l83 -28z" />
<glyph unicode="2" horiz-adv-x="514" d="M53 -10l-18 61q143 110 227.5 191t122 142.5t37.5 110.5q0 48 -26.5 77.5t-77.5 29.5q-47 0 -90.5 -24t-75.5 -65l-15 8q21 53 58 92.5t85.5 62t101.5 22.5q78 0 124 -44.5t46 -121.5q0 -76 -43 -140.5t-115.5 -123.5t-158.5 -118q-22 -14 -43 -28.5t-43 -27.5 q20 5 40 7.5t41 2.5q32 0 67.5 -3.5t67 -6.5t52.5 -3q22 0 45 36q11 18 24 42l12 -6q-6 -24 -12.5 -46.5t-13.5 -43.5q-14 -37 -31.5 -60t-41.5 -23q-32 0 -70.5 7t-81.5 13.5t-88 6.5q-32 0 -58 -7t-48 -20z" />
<glyph unicode="3" horiz-adv-x="450" d="M448 232q0 -67 -54.5 -118t-153.5 -83t-234 -41l-3 27q65 13 123.5 33.5t104.5 47.5t72.5 60t26.5 73q0 46 -32 68t-84 22q-16 0 -31.5 -1t-27.5 -2l-5 39q106 15 165.5 57.5t59.5 107.5q0 36 -23 58t-68 22q-44 0 -87 -22.5t-71 -64.5l-15 8q23 54 62 93t86 60.5 t95 21.5q69 0 106.5 -35.5t37.5 -92.5q0 -52 -29.5 -93t-78.5 -69t-107 -43q79 -6 122 -40t43 -93z" />
<glyph unicode="4" horiz-adv-x="552" d="M479 695l78 -11l-96 -453l104 2l-19 -68l-99 1l-35 -166h-119l35 167l-282 4l-1 42zM413 566l-295 -343l223 5z" />
<glyph unicode="5" horiz-adv-x="463" d="M475 244q0 -70 -54 -124t-152.5 -87.5t-232.5 -42.5l-3 27q63 14 120 35t101 49.5t69.5 63.5t25.5 75q0 49 -32 75.5t-90 26.5q-27 0 -53.5 -3.5t-47.5 -9.5l-11 12l79 351q69 -3 137 -5.5t128 -2.5q32 0 46.5 12t29.5 45l13 -3q-9 -52 -19 -87.5t-29.5 -53.5t-55.5 -18 q-42 0 -98.5 4.5t-106.5 11.5l-48 -209q20 4 42.5 7t45.5 3q90 0 143 -40t53 -112z" />
<glyph unicode="6" horiz-adv-x="548" d="M83 187q0 102 41 190t113 156.5t164 111t194 53.5l3 -28q-129 -43 -228 -131t-148 -208q62 76 164 76q74 0 115 -41.5t41 -116.5q0 -51 -20 -97.5t-56 -83t-83.5 -57.5t-102.5 -21q-87 0 -142 51.5t-55 145.5zM419 245q0 51 -20.5 79t-59.5 28q-40 0 -72.5 -28.5 t-51.5 -76t-19 -104.5q0 -51 20.5 -81t58.5 -30q42 0 74.5 31t51 79.5t18.5 102.5z" />
<glyph unicode="7" horiz-adv-x="458" d="M277 19q-14 -29 -51 -29q-23 0 -46.5 17.5t-33.5 39.5q66 95 121 177t104.5 160.5t96.5 162.5q-66 14 -134 24.5t-115 10.5q-35 0 -51.5 -19t-33.5 -65l-13 4q13 92 35 144t72 52q52 0 101.5 -13.5t93 -34.5t79.5 -44q24 44 48 90q25 -5 25 -24t-28 -87q-30 -69 -65 -147 t-71 -155.5t-70.5 -146t-63.5 -117.5z" />
<glyph unicode="8" horiz-adv-x="538" d="M529 193q0 -62 -34.5 -107.5t-94.5 -70.5t-136 -25q-94 0 -150.5 39.5t-56.5 105.5q0 51 28.5 91.5t77.5 68.5t108 42q-42 33 -74.5 73t-32.5 98t35 100.5t90 66t117 23.5q80 0 127.5 -36.5t47.5 -94.5q0 -66 -48.5 -115.5t-126.5 -77.5q31 -24 59 -50.5t46 -58t18 -72.5 zM281 536q0 -44 29.5 -77.5t68.5 -64.5q31 20 55 50t37.5 63t13.5 62q0 40 -21.5 63.5t-63.5 23.5q-49 0 -84 -34t-35 -86zM171 136q0 -48 28.5 -76t77.5 -28q36 0 66.5 16.5t49.5 45.5t19 68q0 33 -16.5 60t-43 50t-56.5 45q-55 -29 -90 -79t-35 -102z" />
<glyph unicode="9" horiz-adv-x="548" d="M587 500q0 -101 -41.5 -189t-113 -156.5t-164 -111.5t-193.5 -53l-4 27q130 44 229 132t147 208q-61 -77 -163 -77q-74 0 -115 42t-41 116q0 52 19.5 98.5t55.5 83t83.5 57.5t103.5 21q86 0 141.5 -51.5t55.5 -146.5zM251 442q0 -50 20 -78t60 -28q39 0 71.5 28.5 t51.5 76t19 104.5q0 51 -20 81t-59 30q-42 0 -74.5 -31t-50.5 -80t-18 -103z" />
<glyph unicode=":" horiz-adv-x="255" d="M275 401q0 -36 -26.5 -63t-62.5 -27q-32 0 -49.5 19.5t-16.5 46.5q1 34 28 61t64 27q29 0 46.5 -18t16.5 -46zM207 80q0 -37 -26.5 -63.5t-62.5 -26.5q-32 0 -49 19.5t-17 46.5q1 34 28 61t64 27q29 0 46.5 -18.5t16.5 -45.5z" />
<glyph unicode=";" horiz-adv-x="255" d="M275 401q0 -36 -26.5 -63t-62.5 -27q-32 0 -49.5 19.5t-16.5 46.5q1 34 28 61t64 27q29 0 46.5 -18t16.5 -46zM-22 -184l-9 9q40 36 72 81.5t49 89.5q-20 7 -29.5 24t-8.5 37q1 33 27.5 60t62.5 27q30 0 48 -20.5t17 -53.5q-1 -32 -20 -68.5t-51 -71.5t-73 -65t-85 -49z " />
<glyph unicode="&#x3c;" d="M617 580l-17 -78l-357 -169l288 -160l-16 -70q-26 13 -65 34t-83.5 45t-89 49t-82.5 46.5t-63 35.5l-2 7l9 39z" />
<glyph unicode="=" d="M585 410h-430l14 63q36 1 93 2t121 2t121.5 1h95.5l6 -8zM543 213h-430l14 63q36 1 93 2t121 2t121.5 1h95.5l6 -8z" />
<glyph unicode="&#x3e;" d="M102 103l17 78l357 169l-288 160l16 70q26 -13 65 -33.5t83.5 -45l89 -49t82.5 -46.5t63 -36l2 -7l-9 -38z" />
<glyph unicode="?" horiz-adv-x="429" d="M286 225l-9 -9q-37 1 -60 16.5t-23 47.5q0 39 21 66t52 49.5t62 46t52.5 55.5t21.5 78q0 37 -18.5 59t-51.5 22q-36 0 -62 -21.5t-40 -55.5t-14 -71q0 -6 0.5 -12.5t0.5 -13.5q-24 -11 -52 -11q-25 0 -39.5 13.5t-14.5 37.5q0 49 34 89t87.5 63.5t112.5 23.5 q83 0 129 -37.5t46 -103.5q0 -42 -18.5 -73.5t-47.5 -56t-61 -44t-61 -37.5t-47.5 -37.5t-18.5 -43.5t19 -40zM183 -10q-23 0 -38.5 14.5t-15.5 38.5q0 34 24.5 58.5t56.5 24.5q23 0 38 -14t15 -38q0 -34 -24.5 -59t-55.5 -25z" />
<glyph unicode="@" horiz-adv-x="1079" d="M821 -160q-54 -43 -130 -70.5t-174 -27.5q-94 0 -172.5 32.5t-136 91t-89 136.5t-31.5 169q0 106 33.5 196.5t91 162.5t132 123t158 78t166.5 27q93 0 168.5 -30.5t130.5 -85.5t85 -129t30 -161q0 -73 -23 -138.5t-64 -115.5t-96 -79t-118 -29q-56 0 -89.5 24t-46.5 65.5 t-6 92.5q2 12 4 23.5t4 23.5h-4q-17 -41 -39.5 -82t-49 -74t-56 -53t-60.5 -20q-44 0 -72.5 38.5t-28.5 106.5q0 71 23 137.5t66 119.5t102 84.5t130 31.5q48 0 93 -10t77 -26l-21 -69l-38 -177q-17 -76 -3.5 -125t66.5 -49q32 0 67 21.5t65 61t49 95.5t19 125 q0 78 -27 143.5t-76.5 113.5t-117 74.5t-148.5 26.5q-73 0 -148 -24.5t-142.5 -71t-120.5 -112t-84 -148t-31 -178.5q0 -84 28.5 -155t79.5 -124.5t120.5 -83t153.5 -29.5q67 0 117.5 12t90.5 31t75 39zM462 154q0 -31 9 -51.5t26 -20.5q18 0 39.5 22t43 57.5t41.5 77 t35.5 81t23.5 68.5l15 61q-22 15 -52 15q-34 0 -66 -28t-58 -74.5t-41.5 -101t-15.5 -106.5z" />
<glyph unicode="A" horiz-adv-x="691" d="M447 689h75l75 -605q3 -23 10.5 -33t23.5 -16l42 -15l-2 -20h-270l-4 20l81 27l-21 176l-225 -4l-94 -172l78 -27l-4 -20h-206l-3 20l57 20q17 6 27.5 15t20.5 28zM255 262l198 -1l-36 297z" />
<glyph unicode="B" horiz-adv-x="647" d="M366 581l-45 -210h62q42 0 78 23.5t58.5 61.5t22.5 85q0 48 -31 75.5t-92 27.5h-40zM367 330h-54l-48 -223l-14 -63h63q56 0 101 20.5t71.5 59t26.5 91.5q0 54 -39.5 84.5t-106.5 30.5zM639 204q0 -57 -34 -103t-100 -73.5t-162 -27.5h-294l-2 20l48 18q18 7 28 16t14 28 l5 25l101 474l12 59l-68 28l4 20h258q98 0 155.5 -37.5t57.5 -106.5q0 -50 -24.5 -88t-64 -63.5t-84.5 -36.5q64 -13 107 -50.5t43 -101.5z" />
<glyph unicode="C" horiz-adv-x="628" d="M389 -10q-135 0 -210 74t-75 207q0 88 32 165t87.5 136t129 92.5t156.5 33.5q52 0 94 -8t70 -21q-1 -28 -8 -63.5t-17 -70.5t-20 -60h-24q-15 59 -24.5 97t-19.5 69q-10 3 -21 5t-28 2q-57 0 -107.5 -30t-89.5 -82.5t-61 -120.5t-22 -145q0 -71 22 -123t60.5 -80 t88.5 -28q18 0 30.5 2.5l22.5 4.5q26 32 55.5 71t66.5 90h24q-4 -45 -16 -97t-27 -95q-38 -12 -80 -18.5t-89 -6.5z" />
<glyph unicode="D" horiz-adv-x="709" d="M366 581l-101 -474l-14 -65h55q68 0 123 34t94.5 91.5t60.5 130.5t21 150q0 93 -42.5 145.5t-131.5 52.5h-51zM307 0h-258l-2 20l48 18q18 7 28 16t14 28l5 25l102 474h-1l13 59l-69 28l4 20h260q84 0 147 -30.5t98.5 -88.5t35.5 -140q0 -81 -27.5 -158t-81.5 -138 t-133 -97t-183 -36z" />
<glyph unicode="E" horiz-adv-x="605" d="M366 581l-46 -217l195 7l-14 -56l-190 8l-46 -216l-14 -66h120q24 0 46 1t39 4q11 15 23.5 35t31 50.5t47.5 75.5h24q-1 -47 -12.5 -105t-29.5 -102h-491l-2 20l48 18q18 7 28 16t14 28l5 25l101 474l12 59l-68 28l4 20h468q-1 -48 -14 -103t-32 -105h-24q-14 68 -21 103 t-13 59q-12 2 -35 3t-48 1h-92z" />
<glyph unicode="F" horiz-adv-x="550" d="M252 48l89 -28l-4 -20h-289l-2 20l48 18q17 7 27.5 16t14.5 28l6 25v0l100 474l13 59l-69 28l4 20h469q0 -48 -13.5 -103t-32.5 -105h-23l-15 80q-8 48 -19 82q-16 2 -39 3t-45 1h-93l-14 -65l-49 -234l196 7l-14 -56l-191 7l-42 -198z" />
<glyph unicode="G" horiz-adv-x="683" d="M407 39q42 0 76 10l35 164l13 59l-69 28l4 20h263l2 -20l-49 -15q-18 -6 -27.5 -16.5t-13.5 -30.5l-6 -25v0l-41 -192q-40 -15 -90 -23t-109 -8q-136 0 -214 73.5t-78 206.5q0 90 34 167.5t92.5 136t134.5 91.5t160 33q55 0 99.5 -8t79.5 -21q-1 -29 -9.5 -64.5 t-20 -70.5t-21.5 -59h-23q-15 58 -25 96.5t-20 69.5q-25 7 -61 7q-55 0 -107.5 -28.5t-94 -79.5t-66.5 -120.5t-25 -151.5q0 -66 22 -118t61.5 -81.5t93.5 -29.5z" />
<glyph unicode="H" horiz-adv-x="792" d="M252 48l69 -28l-4 -20h-268l-2 20l48 18q17 7 27.5 16t13.5 28l7 25h-1l100 474l13 59l-69 28l4 20h269l2 -20l-49 -18q-17 -7 -27 -16.5t-14 -27.5l-6 -25v0l-44 -209h287l44 209l13 59l-69 28l4 20h268l2 -20l-48 -18q-17 -7 -27.5 -16.5t-14.5 -27.5l-6 -25h1 l-100 -474l-13 -59l69 -28l-4 -20h-269l-2 20l48 18q17 7 27.5 16t14.5 28l6 25v0l46 217h-287l-46 -217z" />
<glyph unicode="I" horiz-adv-x="386" d="M252 48l69 -28l-4 -20h-268l-2 20l48 18q17 7 27.5 16t13.5 28l7 25h-1l100 474l13 59l-69 28l4 20h269l2 -20l-49 -18q-17 -7 -27 -16.5t-14 -27.5l-6 -25v0l-100 -474z" />
<glyph unicode="J" horiz-adv-x="374" d="M256 640l-69 28l4 20h269l2 -20l-49 -18q-17 -7 -27 -16.5t-14 -27.5l-6 -25v0l-107 -503q-13 -66 -50.5 -114.5t-87 -82t-101.5 -51.5l-12 19q49 51 82.5 110.5t53.5 153.5l99 468z" />
<glyph unicode="K" horiz-adv-x="701" d="M252 48l69 -28l-4 -20h-268l-2 20l48 18q17 7 27.5 16t13.5 28l7 25h-1l100 474l13 59l-69 28l4 20h269l2 -20l-49 -18q-17 -7 -27 -16.5t-14 -27.5l-6 -25v0l-45 -216l89 1v0l244 274l-80 28l4 20h231l2 -20l-64 -23q-18 -6 -33 -17t-32 -30l-185 -193l76 -220 q24 -72 43 -105t47 -46l31 -14l-5 -20l-123 -3q-40 0 -57.5 16.5t-27.5 49.5l-82 256h-88l-45 -212z" />
<glyph unicode="L" horiz-adv-x="581" d="M255 640l-69 28l4 20h269l2 -20l-49 -18q-17 -7 -27 -16.5t-14 -27.5l-6 -25v0l-100 -474l-14 -66h106q21 0 44.5 1.5t40.5 3.5q18 26 39.5 62t63.5 104h23q-2 -49 -12.5 -106t-29.5 -106h-477l-2 20l48 18q18 7 28 16t14 28l5 25l100 474z" />
<glyph unicode="M" horiz-adv-x="986" d="M241 688h198l83 -519l296 519h193v-20l-84 -33l-57 -582l74 -33l-5 -20h-269v20l45 18q32 13 35 44l47 476l-250 -438l-64 -120h-58l-20 121l-70 445l-167 -514l84 -32l-6 -20h-214l-1 20l50 18q21 8 31 17t16 27l178 557l-71 29z" />
<glyph unicode="N" horiz-adv-x="724" d="M179 52l82 -29l-4 -23h-216l-3 23l52 17q21 8 32 16t14 26l6 25l111 527l-73 31l5 23h173l228 -530l90 423l13 55l-85 29l4 23h219l2 -23l-51 -17q-21 -8 -32 -16t-15 -26l-6 -25l-123 -581h-78l-239 552l-94 -445z" />
<glyph unicode="O" horiz-adv-x="647" d="M673 446q0 -88 -27 -169.5t-75 -146t-111.5 -102.5t-136.5 -38q-66 0 -116.5 30.5t-79 87t-28.5 133.5q0 85 27 166.5t75.5 147t112.5 104.5t138 39q70 0 119.5 -31.5t75.5 -88.5t26 -132zM226 183q0 -65 26 -106t75 -41q39 0 72.5 32.5t60 85.5t46 116t30 125.5 t10.5 112.5q0 68 -23.5 106t-73.5 38q-40 0 -74 -30.5t-61.5 -81t-47 -112.5t-30 -125.5t-10.5 -119.5z" />
<glyph unicode="P" horiz-adv-x="601" d="M365 581l-57 -271h55q59 0 100.5 29t63.5 76.5t22 100.5q0 63 -33 94.5t-92 31.5h-46zM252 48l89 -28l-4 -20h-289l-2 20l48 18q17 7 27.5 16t14.5 28l6 25v0l100 474l13 59l-69 28l4 20h250q108 0 171.5 -47t63.5 -132q0 -73 -40.5 -128t-110.5 -86t-157 -31h-69 l-33 -157z" />
<glyph unicode="Q" horiz-adv-x="631" d="M662 -112q0 -43 -38 -65.5t-101 -22.5q-119 0 -240.5 37t-222.5 108l18 36h5h6q103 0 184.5 38.5t139 107.5t88 159t30.5 192q0 87 -23.5 130.5t-78.5 43.5q-40 0 -76 -32t-63.5 -85.5t-43 -120t-15.5 -136.5q0 -52 9.5 -96.5t26.5 -82.5l-50 -29q-42 33 -74 94.5 t-32 143.5q0 81 26.5 152t71.5 124.5t103 83.5t120 30q73 0 123.5 -32t76.5 -89.5t26 -133.5q0 -101 -38.5 -188.5t-108 -154.5t-164.5 -108t-208 -50q72 -25 150.5 -36t159.5 -11q70 0 122.5 11.5t75.5 20.5q6 -6 10.5 -15.5t4.5 -23.5z" />
<glyph unicode="R" horiz-adv-x="689" d="M366 581l-53 -247h48q60 0 103 27t65 71t22 94q0 56 -32.5 86t-88.5 30h-51zM252 48l69 -28l-4 -20h-268l-2 20l48 18q17 7 27.5 16t13.5 28l7 25h-1l101 474l12 59l-68 28l4 20h255q111 0 171 -44t60 -122q0 -66 -45.5 -119t-112.5 -82l45 -136q18 -57 38 -96t51 -55 l30 -14l-5 -20l-122 -3q-40 0 -57.5 16.5t-27.5 49.5l-69 227q-15 -1 -29 -1h-69l-39 -182z" />
<glyph unicode="S" horiz-adv-x="509" d="M240 -10q-43 0 -82.5 4.5t-67 13t-33.5 19.5q-6 10 -6 27q0 30 15 71t38 74l24 -2q-1 -6 -1 -12v-11q0 -70 22 -103q15 -21 40 -29.5t56 -8.5q59 0 97 37.5t38 92.5q0 35 -17.5 62.5t-45 51t-58.5 47t-58.5 49.5t-45 58.5t-17.5 74.5q0 59 37 102t95.5 66.5t123.5 23.5 q67 0 109.5 -12t54.5 -24q8 -6 8 -21q0 -18 -8 -45t-20.5 -55.5t-27.5 -50.5l-24 1q1 8 1 15v14q0 62 -13 88q-12 21 -33 33.5t-58 12.5q-53 0 -89.5 -34t-36.5 -85q0 -34 17.5 -61.5t45 -51.5t58.5 -48t58.5 -50t45 -57.5t17.5 -72.5q0 -59 -32 -105t-90 -72.5t-137 -26.5z " />
<glyph unicode="T" horiz-adv-x="613" d="M366 48l69 -28l-4 -20h-268l-2 20l48 18q17 7 27.5 16t13.5 28l7 25h-1l114 536h-42q-22 0 -46.5 -2t-42.5 -5q-12 -16 -26.5 -37.5t-29.5 -50.5l-41 -68h-24q1 51 13.5 107.5t28.5 100.5h561q-2 -44 -14.5 -101.5t-31.5 -106.5h-23l-13 68q-4 28 -9 50t-10 38 q-17 3 -40.5 5t-45.5 2h-41l-114 -536z" />
<glyph unicode="U" horiz-adv-x="679" d="M624 246q-26 -125 -91.5 -190.5t-179.5 -65.5q-97 0 -156.5 49.5t-59.5 142.5q0 14 1.5 33t5.5 39l69 327l13 59l-69 28l4 20h269l2 -20l-49 -18q-17 -7 -27 -16.5t-14 -27.5l-6 -25v0l-70 -332q-4 -18 -5.5 -35t-1.5 -33q0 -68 34.5 -105t93.5 -37q67 0 115.5 50 t71.5 156l73 342l11 49l-84 29l4 23h219l2 -23l-92 -29l-11 -49z" />
<glyph unicode="V" horiz-adv-x="692" d="M370 0h-75l-75 604q-3 23 -10.5 33t-23.5 16l-42 15l2 20h270l4 -20l-81 -27l60 -505l275 506l-79 26l4 20h212l3 -20l-57 -20q-17 -6 -27.5 -15t-20.5 -28z" />
<glyph unicode="W" horiz-adv-x="1048" d="M361 0h-75l-66 604q-3 23 -10.5 33t-23.5 16l-42 15l2 20h270l4 -20l-81 -27l51 -500l210 389l-9 74q-3 23 -10.5 33t-23.5 16l-44 15l4 20h270l4 -20l-81 -27l55 -500l266 501l-80 26l4 20h212l3 -20l-57 -20q-18 -6 -28 -15t-20 -28l-329 -605h-75l-52 451z" />
<glyph unicode="X" horiz-adv-x="700" d="M249 0h-230l-3 20q19 6 36.5 12.5t33.5 12.5q16 7 29.5 16t30.5 28l208 241l-119 275q-8 17 -14 26t-16 15t-22 11t-28 11l2 20h272l4 -20l-80 -28l101 -235l195 235l-78 28l4 20h229l4 -20q-18 -6 -34 -11t-32 -12q-34 -13 -63 -47l-206 -237l121 -278q7 -17 13.5 -26 t16.5 -15q11 -7 23 -12t26 -10l-2 -20h-272l-4 20l81 28l-103 238l-198 -238l78 -28z" />
<glyph unicode="Y" horiz-adv-x="663" d="M381 48l69 -28l-4 -20h-269l-2 20l48 18q17 7 27.5 16t14.5 28l6 25v0l22 106q8 40 7 92.5t-9 107.5t-21.5 102t-30 76t-34.5 29t-39.5 -23t-39.5 -50l-17 12q29 60 69 99.5t85 39.5q38 0 66.5 -29.5t47.5 -80.5t28.5 -117t11.5 -140q37 75 74.5 141t74 117t69 80 t59.5 29q25 0 41 -20.5t25 -52t12 -64.5l-18 -6q-11 28 -25 46.5t-32 18.5q-22 0 -54.5 -29.5t-68.5 -78.5t-69.5 -108t-59 -117.5t-36.5 -106.5l-15 -73z" />
<glyph unicode="Z" horiz-adv-x="626" d="M550 0h-497l1 41l489 603h-161q-22 0 -45 -1.5t-42 -3.5l-105 -159h-24q0 53 12 109.5t29 98.5h489l-1 -41l-488 -603h169q21 0 44.5 1t41.5 4l106 158h24q0 -47 -12 -102t-30 -105z" />
<glyph unicode="[" horiz-adv-x="410" d="M306 -196h-229l203 956h229l-6 -29h-114l-191 -898h114z" />
<glyph unicode="\" horiz-adv-x="475" d="M324 -10l-108 752l9 8l60 8l109 -752l-8 -8z" />
<glyph unicode="]" horiz-adv-x="410" d="M200 760h229l-203 -956h-229l6 29h114l191 898h-114z" />
<glyph unicode="^" horiz-adv-x="526" d="M124 210h-76l219 338h62l76 -338h-71l-55 247z" />
<glyph unicode="_" horiz-adv-x="527" d="M-9 -148l12 55h458l-12 -55h-458z" />
<glyph unicode="`" horiz-adv-x="399" d="M385 584l-13 -14q-49 21 -91.5 47.5t-68 53t-23.5 49.5q1 23 21.5 32.5t48.5 9.5h10.5h10.5l8 -6q13 -32 39.5 -80t57.5 -92z" />
<glyph unicode="a" horiz-adv-x="553" d="M473 154q-4 -20 -7.5 -37t-3.5 -27q0 -23 17 -23t40.5 22t43.5 46l9 -8q-15 -31 -39 -62.5t-53.5 -53t-63.5 -21.5q-37 0 -56 22t-19 59q0 16 3.5 36.5t8.5 46.5l16 69h-2q-17 -39 -40 -79.5t-50 -75.5t-56.5 -56.5t-59.5 -21.5q-43 0 -70 37t-27 101q0 73 23 141 t65.5 122t100 85.5t126.5 31.5q47 0 91.5 -10t76.5 -26l-15 -45zM187 147q0 -29 7.5 -47t23.5 -18q17 0 37 20t41 52t40 69.5t34.5 73.5t23.5 64l21 85q-23 21 -59 21q-31 0 -61 -29t-54.5 -76.5t-39 -103.5t-14.5 -111z" />
<glyph unicode="b" horiz-adv-x="518" d="M446 508q47 0 69.5 -38.5t22.5 -98.5q0 -74 -20 -142.5t-58.5 -122t-92 -85t-120.5 -31.5q-100 0 -183 36l15 46l120 554l14 62l-73 24v12q43 12 98.5 20.5t99.5 12.5l8 -9l-28 -122q-20 -89 -43 -178l-46 -178h2q16 35 38.5 76t50 77.5t59.5 60.5t67 24zM383 415 q-16 0 -34.5 -17.5t-38 -45.5t-37 -60.5t-31.5 -63.5t-21 -54l-27 -123q14 -8 30 -13.5t37 -5.5q31 0 59 30.5t49.5 78.5t33.5 104t12 108q0 29 -7.5 45.5t-24.5 16.5z" />
<glyph unicode="c" horiz-adv-x="426" d="M344 508q57 0 92 -31t35 -79q0 -42 -23.5 -70t-56.5 -28q-13 0 -24 4t-20 9q7 19 14.5 47.5t7.5 52.5q0 53 -40 53q-25 0 -49 -24t-43.5 -64t-31 -88t-11.5 -96q0 -62 24.5 -93t66.5 -31q33 0 70.5 21.5t71.5 56.5l9 -7q-36 -67 -90.5 -109t-121.5 -42q-73 0 -113 48.5 t-40 130.5q0 67 22.5 127.5t61.5 108.5t87.5 75.5t101.5 27.5z" />
<glyph unicode="d" horiz-adv-x="553" d="M473 154q-4 -20 -7.5 -37t-3.5 -27q0 -23 17 -23t40.5 22t43.5 46l9 -8q-15 -31 -39 -62.5t-53.5 -53t-63.5 -21.5q-37 0 -56 22t-19 59q0 16 3.5 36.5t8.5 46.5l19 80q-17 -39 -40 -81.5t-51 -79.5t-58.5 -60t-61.5 -23q-43 0 -70 37t-27 101q0 73 23 141t65.5 122 t100 85.5t126.5 31.5q24 0 50 -3l29 121l13 61l-92 25v12q30 8 69.5 14.5t79 11.5t69.5 7l8 -9l-28 -122zM187 147q0 -29 7.5 -47t23.5 -18q17 0 36.5 19t40 50t39 67t34 72t24.5 64l23 92q-23 21 -59 21q-31 0 -61 -29t-54.5 -76.5t-39 -103.5t-14.5 -111z" />
<glyph unicode="e" horiz-adv-x="433" d="M434 141q-36 -68 -90.5 -109.5t-121.5 -41.5q-71 0 -110.5 49.5t-39.5 133.5q0 65 22.5 125t60.5 107t86.5 75t101.5 28q54 0 88.5 -29t34.5 -78q0 -50 -33.5 -90t-94 -63t-141.5 -22v9q-2 -23 -2 -46q0 -57 24 -88t65 -31q32 0 69.5 21.5t71.5 56.5zM329 466 q-28 0 -54.5 -29t-46 -76t-28.5 -102q47 3 84 25.5t58 58t21 76.5q0 47 -34 47z" />
<glyph unicode="f" horiz-adv-x="345" d="M204 8q-27 -128 -93.5 -197t-152.5 -69q-48 0 -77 20t-29 49q0 16 8 27t20 17q15 -20 34.5 -33t44.5 -13q45 0 73.5 44t47.5 133l97 457h-67l2 17l74 27l5 22q15 73 53 129t90 88t110 32q50 0 81 -23t31 -54q0 -28 -17 -44.5t-34 -22.5q-19 30 -44.5 55.5t-57.5 25.5 t-48.5 -25.5t-25 -66.5t-18.5 -89l-6 -30h123l-9 -41h-123z" />
<glyph unicode="g" horiz-adv-x="452" d="M303 508q74 0 133 1.5t96 11.5q8 -12 8 -32q0 -17 -10 -31t-34 -14q-19 0 -50 9.5t-64 19.5q32 -18 49 -47t17 -68q0 -57 -21.5 -97.5t-53.5 -69t-64 -48.5t-54 -35.5t-22 -30.5q0 -14 16.5 -23.5t41.5 -22.5q34 -17 61.5 -33.5t44 -38.5t16.5 -54q0 -42 -30.5 -79.5 t-85.5 -60.5t-130 -23q-96 0 -150 33t-54 80q0 37 31.5 65.5t75.5 48.5l12 -10q-10 -11 -16.5 -24t-6.5 -28q0 -54 38 -90.5t97 -36.5q47 0 79.5 23t32.5 60q0 27 -26.5 45.5t-67.5 41.5q-35 20 -62.5 39.5t-27.5 49.5q0 26 28 49.5t84 53.5q-68 2 -110 41.5t-42 103.5 q0 60 29 110t79 80.5t113 30.5zM194 287q0 -49 14 -76.5t40 -27.5q19 0 35 19t28 50t18.5 68t6.5 73q0 37 -12.5 57t-35.5 20q-28 0 -49 -28.5t-33 -71t-12 -83.5z" />
<glyph unicode="h" horiz-adv-x="562" d="M67 16l30 138l102 473l14 61l-73 25v11q43 12 98.5 20.5t99.5 13.5l8 -9l-28 -122q-21 -95 -44.5 -186t-48.5 -182q32 68 69 124.5t78.5 90.5t86.5 34q41 0 61.5 -25.5t20.5 -58.5q0 -30 -10.5 -77.5t-25 -99t-24.5 -93.5q-4 -20 -7 -37t-3 -27q0 -23 17 -23t40 22t43 46 l10 -8q-16 -31 -39.5 -62.5t-53.5 -53t-63 -21.5q-37 0 -56 22t-19 59q0 16 3 36.5t9 46.5q10 41 22.5 88t22 86.5t9.5 60.5q0 32 -24 32q-17 0 -36.5 -18t-40 -46.5t-39.5 -62t-33.5 -65.5t-21.5 -56l-5 -19l-33 -155l-54 -4q-11 0 -28 -1.5t-24 -1.5q-9 0 -10.5 6.5 t0.5 17.5z" />
<glyph unicode="i" horiz-adv-x="326" d="M261 590q-24 0 -40.5 15.5t-16.5 42.5q0 37 26.5 63t61.5 26q24 0 40.5 -15t16.5 -41q0 -38 -26.5 -64.5t-61.5 -26.5zM242 154q-5 -20 -8 -37t-3 -27q0 -23 17 -23t40.5 22t43.5 46l9 -8q-15 -31 -39 -62.5t-53.5 -53t-63.5 -21.5q-37 0 -56 22t-19 59q0 16 3.5 36.5 t8.5 46.5q10 45 22 95t22 95q4 20 7 37t3 27q0 22 -17 22t-40 -21.5t-43 -45.5l-10 8q16 31 39.5 62.5t53.5 53t63 21.5q37 0 56 -22t19 -60q0 -15 -3 -36t-9 -46q-10 -45 -22 -95.5t-21 -94.5z" />
<glyph unicode="j" horiz-adv-x="291" d="M251 590q-25 0 -41 15.5t-16 42.5q0 37 26 63t61 26q25 0 41.5 -15t16.5 -41q0 -38 -26.5 -64.5t-61.5 -26.5zM158 344q4 20 7 37t3 27q0 22 -17 22t-40.5 -21.5t-43.5 -45.5l-9 8q16 31 39.5 62.5t53 53t63.5 21.5q37 0 56 -22t19 -60q0 -15 -3 -36t-9 -46l-70 -336 q-26 -128 -93 -197t-154 -69q-47 0 -76 20t-29 49q0 16 8 27t20 17q15 -20 34.5 -33t44.5 -13q45 0 73.5 44t47.5 133z" />
<glyph unicode="k" horiz-adv-x="542" d="M67 16l30 138l102 472l14 62l-73 24v12q43 12 98.5 20.5t99.5 12.5l8 -9l-28 -122q-21 -94 -44.5 -185t-48.5 -182q30 65 67.5 122t81.5 92t94 35q45 0 67.5 -25t22.5 -59q0 -35 -16.5 -65.5t-42.5 -56t-55 -45t-53 -32.5q30 -77 51 -117.5t40 -40.5q15 0 38.5 22 t43.5 46l9 -8q-15 -31 -39 -62.5t-54 -53t-63 -21.5q-36 0 -58 23t-40 69t-41 115l4 11q42 20 77.5 50t57 63.5t21.5 66.5q0 15 -7.5 25t-23.5 10q-30 0 -64 -35.5t-66.5 -92.5t-55.5 -122l-5 -19l-33 -155l-54 -4q-11 0 -28 -1.5t-24 -1.5q-9 0 -10.5 6.5t0.5 17.5z" />
<glyph unicode="l" horiz-adv-x="296" d="M216 154q-4 -20 -7 -37t-3 -27q0 -23 17 -23t40 22t43 46l9 -8q-15 -31 -38.5 -62.5t-53.5 -53t-64 -21.5q-36 0 -55 22t-19 59q0 16 3 36.5t9 46.5l102 472l14 62l-73 24v12q43 12 98.5 20.5t99.5 12.5l8 -9l-28 -122z" />
<glyph unicode="m" horiz-adv-x="855" d="M95 16l29 138l41 186q12 51 12 67q0 23 -18 23q-16 0 -39 -21.5t-44 -45.5l-9 8q15 30 38.5 62t52.5 53.5t62 21.5q35 0 53 -20t18 -53q0 -22 -11 -68.5t-24 -95.5q18 35 41.5 76t52.5 77.5t62.5 60t71.5 23.5q35 0 54.5 -22.5t19.5 -56.5q0 -26 -10.5 -68.5t-24.5 -95.5 v0q16 35 39.5 77t52.5 79.5t63 62t72 24.5q41 0 61.5 -25.5t20.5 -58.5q0 -30 -10 -77.5t-23.5 -99t-23.5 -93.5q-4 -20 -7.5 -37t-3.5 -27q0 -23 18 -23q16 0 39.5 22t43.5 46l9 -8q-15 -31 -39 -62.5t-53.5 -53t-63.5 -21.5q-37 0 -56 22t-19 59q0 16 3.5 36.5t8.5 46.5 q10 41 23 89t22.5 88t9.5 60q0 30 -25 30q-17 0 -37 -18t-40.5 -47t-39 -63t-33 -66t-21.5 -55l-5 -18l-33 -155l-54 -4q-12 0 -28.5 -1.5t-23.5 -1.5q-9 0 -10.5 6.5t0.5 17.5l29 138q10 44 23 91.5t22.5 86.5t9.5 59q0 30 -25 30q-16 0 -36 -18t-40.5 -46.5t-39 -62 t-33 -65.5t-22.5 -56l-4 -19l-33 -155l-54 -4q-12 0 -28.5 -1.5t-23.5 -1.5q-9 0 -10.5 6.5t0.5 17.5z" />
<glyph unicode="n" horiz-adv-x="589" d="M95 16l29 138q11 50 21.5 96.5t20.5 89.5q5 24 8 41t3 26q0 23 -18 23q-16 0 -39 -21.5t-44 -45.5l-9 8q15 30 38.5 62t52.5 53.5t62 21.5q35 0 53 -20t18 -53q0 -25 -12 -74t-24 -97q16 32 39.5 74t53 80.5t64 64t72.5 25.5q41 0 61.5 -25.5t20.5 -58.5q0 -30 -10 -77.5 t-23.5 -99t-23.5 -93.5q-4 -20 -7.5 -37t-3.5 -27q0 -23 18 -23q16 0 39.5 22t43.5 46l9 -8q-15 -31 -38.5 -62.5t-53.5 -53t-64 -21.5q-37 0 -56 22t-19 59q0 16 3.5 36.5t8.5 46.5q10 41 23 88t22.5 86.5t9.5 60.5q0 32 -25 32q-20 0 -45.5 -26.5t-50.5 -67t-45 -82 t-30 -71.5l-4 -20l-33 -155l-54 -4q-12 0 -28.5 -1.5t-23.5 -1.5q-9 0 -10.5 6.5t0.5 17.5z" />
<glyph unicode="o" horiz-adv-x="489" d="M500 320q0 -72 -21.5 -132.5t-58 -105t-82.5 -68.5t-95 -24q-75 0 -122 51t-47 138q0 68 21 127t57.5 104.5t83 71t96.5 25.5q80 0 124 -51t44 -136zM197 136q0 -49 13 -78t39 -29q21 0 40.5 23t35 61t27.5 83t18.5 91t6.5 84q0 45 -12 71.5t-39 26.5q-21 0 -40.5 -22 t-35.5 -58t-28 -80t-18.5 -89t-6.5 -84z" />
<glyph unicode="p" horiz-adv-x="546" d="M41 -235l29 139l79 361q10 48 19 88t9 54q0 23 -18 23q-16 0 -39 -21.5t-44 -45.5l-9 8q15 30 38.5 62t52.5 53.5t62 21.5q35 0 53 -20t18 -53q0 -17 -6 -45t-14 -59.5t-14 -60.5h1q16 35 38.5 76t50.5 77.5t60 60.5t66 24q47 0 70 -38.5t23 -98.5q0 -74 -20.5 -142.5 t-58.5 -122t-92 -85t-121 -31.5q-32 0 -65 4l-19 -90l-33 -155l-54 -4q-12 -1 -28.5 -2t-23.5 -1q-9 0 -10.5 6.5t0.5 16.5zM410 415q-15 0 -33.5 -17.5t-38 -45.5t-37.5 -61t-31.5 -64t-21.5 -54l-26 -122q13 -8 29.5 -13.5t36.5 -5.5q32 0 60 30.5t49 78.5t33.5 104 t12.5 108q0 29 -8 45.5t-25 16.5z" />
<glyph unicode="q" horiz-adv-x="521" d="M270 -235l30 139l69 319h-2q-17 -39 -40 -79.5t-50 -75.5t-56.5 -56.5t-59.5 -21.5q-43 0 -70 37t-27 101q0 73 23 141t65.5 122t100 85.5t126.5 31.5q47 0 91.5 -10t76.5 -26l-15 -45l-113 -523l-33 -155l-54 -4q-11 -1 -28 -2t-24 -1q-9 0 -10.5 6.5t0.5 16.5zM187 147 q0 -29 7.5 -47t23.5 -18q17 0 37 20t41 52t40 69.5t34.5 73.5t23.5 64l21 85q-23 21 -59 21q-31 0 -61 -29t-54.5 -76.5t-39 -103.5t-14.5 -111z" />
<glyph unicode="r" horiz-adv-x="447" d="M95 16l29 138q20 91 31.5 143t16.5 76.5t5 33.5q0 23 -18 23q-16 0 -39 -21.5t-44 -45.5l-9 8q15 30 38.5 62t52.5 53.5t62 21.5q35 0 53 -20t18 -53q0 -23 -11 -70.5t-24 -96.5q17 37 39 78.5t47 78.5t53 60t57 23q25 0 38 -14.5t13 -36.5q0 -31 -13 -61.5t-25 -44.5 q-14 11 -29.5 20.5t-35.5 9.5q-24 0 -48.5 -24t-46 -59.5t-37 -70t-20.5 -56.5l-4 -17l-33 -155l-54 -4q-12 0 -28.5 -1.5t-23.5 -1.5q-9 0 -10.5 6.5t0.5 17.5z" />
<glyph unicode="s" horiz-adv-x="419" d="M398 139q0 -65 -50.5 -107t-143.5 -42q-44 0 -79.5 11t-57 31.5t-21.5 50.5q0 32 23 55.5t55 34.5l10 -8q-2 -14 -2.5 -27t0.5 -27q8 -38 28.5 -61t54.5 -23q31 0 50.5 19t19.5 52q0 29 -17 53.5t-42.5 47t-51 46.5t-43 53.5t-17.5 68.5q0 41 24.5 73t66 50t93.5 18 q72 0 109.5 -26.5t37.5 -63.5q0 -30 -19.5 -54t-49.5 -35l-10 8q1 31 -2 56q-6 38 -23 58t-46 20t-48 -18.5t-19 -47.5q0 -30 17.5 -54.5t42.5 -48t50.5 -48t42.5 -52.5t17 -63z" />
<glyph unicode="t" horiz-adv-x="373" d="M195 -10q-47 0 -71 30t-24 79q0 13 1.5 27t4.5 29l61 288h-73l2 17l83 38l133 142l16 -2l-33 -154h139l-9 -41h-138l-59 -274q-2 -12 -3.5 -22.5t-1.5 -21.5q0 -55 43 -55q30 0 62.5 22.5t64.5 55.5l9 -7q-21 -40 -51.5 -74.5t-69.5 -55.5t-86 -21z" />
<glyph unicode="u" horiz-adv-x="595" d="M170 344q4 20 7 37t3 27q0 22 -17 22t-40.5 -21.5t-43.5 -45.5l-9 8q16 31 39.5 62.5t53 53t63.5 21.5q37 0 56 -22t19 -60q0 -15 -3 -36t-9 -46q-12 -47 -23.5 -92t-19.5 -81t-8 -54q0 -35 24 -35q19 0 43.5 26t50.5 67.5t48 91t37 96.5l29 138l54 4q12 1 28.5 2t23.5 1 q10 0 11 -6.5t-1 -16.5l-29 -139l-42 -192q-4 -20 -7.5 -37t-3.5 -27q0 -23 18 -23q16 0 39.5 22t43.5 46l9 -8q-15 -31 -38.5 -62.5t-53.5 -53t-64 -21.5q-37 0 -56 22t-19 59q0 16 3.5 36.5t9.5 46.5l13 61h-3q-17 -39 -39.5 -78.5t-50 -73t-57 -53.5t-60.5 -20 q-40 0 -61.5 25.5t-21.5 68.5q0 29 9 72t22 92t23 96z" />
<glyph unicode="v" horiz-adv-x="470" d="M220 -6l-69 5q5 77 8.5 135t3.5 97q0 78 -4 121t-12.5 60.5t-23.5 17.5q-18 0 -39.5 -21t-41.5 -47l-11 9q17 32 41 63.5t54 52.5t63 21q43 0 65 -37t22 -120q0 -53 -5.5 -127.5t-14.5 -152.5q44 63 75 130.5t47.5 128.5t16.5 106q0 20 -2 34.5t-4 24.5q8 5 22.5 9 t27.5 4q33 0 52.5 -18t19.5 -55q0 -43 -26 -99.5t-68.5 -118t-94 -119.5t-102.5 -104z" />
<glyph unicode="w" horiz-adv-x="720" d="M763 437q0 -42 -26.5 -98.5t-70 -118.5t-96 -120.5t-103.5 -105.5l-70 5q5 77 9 135t4 97v40q-34 -80 -82 -151.5t-108 -125.5l-69 5q5 77 8.5 135t3.5 97q0 78 -4 121t-12.5 60.5t-23.5 17.5q-18 0 -39.5 -21t-41.5 -47l-11 9q17 32 41 63.5t54 52.5t63 21q43 0 65 -37 t22 -120q0 -53 -5.5 -127.5t-14.5 -152.5q49 69 80 138t46.5 130t18.5 109q0 15 -2 26.5t-4 21.5q8 4 21.5 8t29.5 4q43 0 60 -33.5t17 -116.5q0 -56 -5.5 -132t-14.5 -155q44 64 76.5 131t49.5 129t17 109q0 17 -2 31t-4 24q8 5 22.5 9t27.5 4q33 0 53 -18t20 -53z" />
<glyph unicode="x" horiz-adv-x="486" d="M372 169q19 -60 28 -81t22 -21q12 0 33 22t38 46l9 -8q-14 -31 -35 -62.5t-47 -53t-56 -21.5t-47 19t-31 59t-35 101l-16 52q-33 -48 -53.5 -95.5t-20.5 -89.5q0 -11 1 -20.5t3 -17.5q-23 -10 -49 -10q-29 0 -49.5 14.5t-20.5 43.5q0 35 27 71t68 69.5t84 63.5l-23 73 q-20 62 -29.5 84.5t-23.5 22.5t-34 -22t-38 -45l-9 8q15 31 36.5 63t48 53t56.5 21q29 0 45.5 -20t31.5 -61t36 -104l14 -44q32 48 52 95t20 88q0 11 -1 20.5t-2 16.5q9 5 22 8t26 3q31 0 50.5 -15t19.5 -43q0 -35 -26.5 -70.5t-67 -69.5t-83.5 -63z" />
<glyph unicode="y" horiz-adv-x="493" d="M193 508q49 0 73.5 -39t24.5 -123q0 -71 -15.5 -157t-43.5 -168q61 63 99.5 132.5t56.5 139t18 130.5q0 23 -2.5 40.5t-5.5 30.5q7 6 20.5 10t28.5 4q75 0 75 -91q0 -74 -36 -154.5t-106 -157.5t-171 -142q-27 -62 -61 -112t-75.5 -79.5t-88.5 -29.5q-43 0 -69 18.5 t-26 46.5q0 15 8 26.5t21 16.5q13 -17 27 -28t34 -11q31 0 56.5 27.5t46.5 73.5t37 100q17 56 28.5 114.5t17.5 109.5t6 85q0 109 -44 109q-17 0 -37 -21t-39 -47l-10 9q15 32 38.5 63.5t52.5 52.5t61 21z" />
<glyph unicode="z" horiz-adv-x="431" d="M139 17q-52 0 -92 -27l-26 33q84 91 159.5 172.5t144.5 167.5q-38 12 -77 21t-66 9q-29 0 -46 -16t-38 -55l-13 4q17 86 38.5 134t67.5 48q32 0 63 -14.5t59 -36.5t49 -45q18 23 35 47t34 49q19 -6 32.5 -18.5t13.5 -29.5q0 -18 -10 -32t-34 -36q-72 -75 -142.5 -143.5 t-146.5 -143.5q18 4 37.5 5.5t39.5 1.5t45 -2.5t48.5 -5.5t38.5 -3q14 0 24 8t21 24q13 18 27 40l12 -5q-6 -24 -14 -52.5t-19 -53.5q-13 -31 -29.5 -51.5t-39.5 -20.5q-20 0 -56.5 7t-74.5 13.5t-65 6.5z" />
<glyph unicode="{" horiz-adv-x="435" d="M336 -171l-8 -26q-100 0 -148 24.5t-48 76.5q0 35 13 73.5t30.5 77.5t31 75t13.5 65q0 66 -78 72h-7l6 27h7q48 4 75 26t38 57t12 76q1 22 1 44v45q0 120 61 168.5t195 48.5l-2 -26q-62 -3 -93 -36.5t-36 -99.5q-7 -39 -6 -76.5t-5 -75.5q-7 -65 -44 -106.5t-98 -57.5 q87 -24 87 -98q0 -26 -12.5 -63t-29 -78t-29.5 -77.5t-13 -60.5q0 -72 87 -75z" />
<glyph unicode="|" horiz-adv-x="322" d="M71 -257l-6 8l213 999l55 7l6 -8l-213 -999z" />
<glyph unicode="}" horiz-adv-x="435" d="M195 733l8 26q100 0 148 -25t48 -76q0 -35 -13.5 -74t-31 -77.5t-30.5 -74.5t-13 -65q0 -66 78 -73h6l-6 -27h-6q-49 -3 -75.5 -25.5t-37.5 -57t-13 -76.5q-1 -21 -0.5 -43t0.5 -46q0 -120 -61 -168t-196 -48l3 26q62 3 92.5 36.5t35.5 99.5q7 38 6.5 76t5.5 76 q7 65 44 106.5t98 57.5q-88 24 -88 98q0 25 13 62.5t29.5 78t29.5 77.5t13 61q0 72 -87 75z" />
<glyph unicode="~" horiz-adv-x="577" d="M181 275q-8 0 -28 -18t-44 -41l-34 26q17 22 38 46.5t44 41.5t44 17q12 0 36 -5t54.5 -13t60 -15.5t53 -13t33.5 -5.5q8 0 28 18t44 41l34 -26q-17 -21 -38 -46t-44 -42t-44 -17q-12 0 -36.5 5t-54.5 13t-60 15.5t-53 13t-33 5.5z" />
<glyph unicode="&#xa1;" horiz-adv-x="318" d="M252 508q22 0 37 -14.5t15 -38.5q0 -34 -24 -59t-56 -25q-23 0 -38 14.5t-15 37.5q0 35 24 60t57 25zM176 -185l-7 -6q-48 -7 -87 -7q-34 0 -34 23q0 12 12 55l126 411h48z" />
<glyph unicode="&#xa2;" horiz-adv-x="482" d="M253 -137l-47 -3l-6 8l26 124q-74 8 -111 57t-37 124q0 65 21 127t58.5 113.5t85.5 86t102 44.5l29 133l47 3l6 -8l-27 -125q53 -5 85.5 -36.5t32.5 -79.5q0 -45 -24 -75t-58 -30q-14 0 -25.5 4t-19.5 9q6 20 13.5 50.5t7.5 56.5q0 59 -45 59q-29 0 -57.5 -27.5 t-51.5 -72.5t-36.5 -99t-13.5 -106q0 -61 25.5 -95t71.5 -34q36 0 76 22.5t74 59.5l9 -8q-30 -62 -77.5 -104t-105.5 -49z" />
<glyph unicode="&#xa3;" horiz-adv-x="626" d="M520 295h-167l-17 -72q-13 -52 -39 -99.5t-60 -81.5q42 -20 92.5 -44.5t108 -42t120.5 -17.5q18 0 32.5 2.5t28.5 5.5q8 -15 8 -34q0 -39 -25 -58t-66 -19q-49 0 -105.5 26t-116 66t-115.5 84q-42 -29 -81 -29q-22 0 -33.5 11.5t-11.5 28.5q0 21 18 38t47 17q13 0 29 -5 t34 -13q12 31 20 73.5t15 91.5q3 18 5 35.5t5 35.5h-120l12 54h116q4 27 8 52t9 48q23 123 89.5 186t155.5 63q59 0 93 -28.5t34 -65.5q0 -30 -20.5 -47t-43.5 -22q-11 57 -28.5 87t-47.5 30q-43 0 -67 -54t-45 -144l-25 -105h166z" />
<glyph unicode="&#xa4;" horiz-adv-x="553" d="M524 153l-50 -34l-54 71q-27 -18 -58.5 -27.5t-64.5 -9.5q-31 0 -56.5 7.5t-44.5 21.5l-79 -65l-41 52l77 64q-18 36 -18 82q0 42 19 81t51 70l-50 65l52 42q12 -14 25.5 -31t28.5 -35q25 13 53 20.5t56 7.5q34 0 60 -8.5t46 -24.5l86 71l41 -52l-86 -71q15 -34 15 -77 q1 -38 -15.5 -74.5t-44.5 -66.5q16 -20 29.5 -37t24.5 -31zM210 318q0 -39 24.5 -69t75.5 -30q41 0 74.5 22t53.5 57t20 72q0 39 -25 69t-75 30q-41 0 -74.5 -22t-53.5 -57t-20 -72z" />
<glyph unicode="&#xa5;" horiz-adv-x="700" d="M140 128l11 49h153l9 43q3 17 5 39h-150l11 49h141q-1 51 -9 106t-21.5 101.5t-30.5 75.5t-36 29q-17 0 -39 -23t-40 -50l-17 12q29 60 69.5 99.5t84.5 39.5q39 0 67.5 -29t47.5 -79t29 -115.5t11 -137.5q37 73 74.5 138t73.5 115.5t68.5 79t60.5 28.5q24 0 40.5 -20.5 t25 -52t11.5 -64.5l-18 -6q-11 28 -24.5 46.5t-32.5 18.5q-21 0 -52 -27.5t-65.5 -73t-67 -100.5t-58.5 -111h144l-11 -49h-153q-16 -40 -23 -73l-2 -9h161l-11 -49h-161l-4 -21l-13 -59l69 -28l-4 -20h-268l-2 20l48 18q17 7 27 16t14 28l7 25h-1l4 21h-153z" />
<glyph unicode="&#xa6;" horiz-adv-x="323" d="M257 364l-55 -6l-5 7l82 385l54 7l6 -8zM127 -250l-55 -7l-6 8l81 383l55 6l6 -7z" />
<glyph unicode="&#xa7;" horiz-adv-x="558" d="M515 124q0 -60 -27 -113.5t-75 -94t-111 -64t-134 -23.5q-66 0 -106.5 22.5t-40.5 59.5q0 24 16.5 46.5t40.5 34.5l19 -2q55 -83 132 -114q29 17 46 51t17 70q0 41 -18 81t-42 81q-12 18 -23.5 37t-22.5 39q-21 38 -38 81.5t-17 91.5q0 59 27.5 111.5t75.5 92.5t110.5 63 t133.5 23q65 0 106 -22t41 -58q0 -25 -17 -48t-40 -35l-19 2q-26 42 -58.5 70t-75.5 45q-29 -17 -46 -52t-17 -73q0 -39 17.5 -77.5t42.5 -77.5q11 -17 22 -34.5t22 -35.5q23 -40 41 -83.5t18 -94.5zM316 -92l7 -5q59 33 89 87.5t30 114.5q0 44 -14.5 83t-36.5 75 q-10 18 -21.5 35t-22.5 34q-24 39 -42.5 79.5t-18.5 86.5q0 31 10.5 62t32.5 57l-7 6q-59 -32 -88.5 -85t-29.5 -112q0 -42 14 -79.5t34 -73.5q11 -18 22 -36.5t22 -36.5q25 -41 44 -84t19 -91q0 -28 -10.5 -60.5t-32.5 -56.5z" />
<glyph unicode="&#xa8;" horiz-adv-x="508" d="M518 678q0 -33 -21.5 -56.5t-52.5 -23.5q-26 0 -42 16.5t-16 41.5q0 31 22.5 55t54.5 24q23 0 39 -15.5t16 -41.5zM299 678q0 -33 -21.5 -56.5t-52.5 -23.5q-25 0 -41 16.5t-16 41.5q0 31 22 55t54 24q23 0 39 -15.5t16 -41.5z" />
<glyph unicode="&#xa9;" horiz-adv-x="705" d="M342 -48q-77 0 -133.5 32t-88 88.5t-31.5 129.5q0 71 28 133.5t77 110.5t113.5 75t137.5 27q76 0 133 -32t89 -88.5t32 -129.5q0 -71 -28 -133.5t-77.5 -110.5t-114 -75t-137.5 -27zM439 503q-62 0 -117.5 -23.5t-97.5 -65t-66 -95.5t-24 -115q0 -60 26.5 -107t75 -73.5 t113.5 -26.5q62 0 117 23.5t97.5 65t66 95.5t23.5 115q0 60 -26.5 107t-74.5 73.5t-113 26.5zM505 185q-25 -48 -61.5 -76.5t-78.5 -28.5q-54 0 -83.5 33t-29.5 86q0 43 16.5 82.5t43.5 71t61.5 49.5t70.5 18q43 0 66.5 -22.5t23.5 -51.5q0 -23 -14 -38.5t-36 -15.5 q-9 0 -16.5 3t-13.5 6q3 7 5 18t2 21q0 38 -29 38q-22 0 -43 -24t-34 -61.5t-13 -76.5q0 -33 15.5 -52.5t48.5 -19.5q45 0 91 48z" />
<glyph unicode="&#xaa;" horiz-adv-x="481" d="M542 459q-12 -24 -30.5 -49t-42.5 -41.5t-51 -16.5q-30 0 -46 17.5t-16 48.5q0 11 2.5 28t7.5 37l10 48h-1q-17 -41 -42.5 -82t-55 -69t-61.5 -28q-35 0 -57.5 30.5t-22.5 82.5q0 56 18 108t51 93.5t78.5 65.5t100.5 24q38 0 74.5 -8t62.5 -22l-12 -38l-44 -205 q-3 -15 -5 -28t-2 -21q0 -19 13 -19t30.5 16.5t32.5 33.5zM239 479q0 -23 6.5 -37t18.5 -14q16 0 35 22.5t38 56.5t34.5 69.5t23.5 62.5l17 67q-18 15 -46 15q-23 0 -45.5 -22.5t-41 -58.5t-29.5 -78t-11 -83z" />
<glyph unicode="&#xab;" horiz-adv-x="549" d="M257 29l-17 -9q-32 55 -68 107t-64 82l-4 8l15 68q56 45 114 98t106 100l14 -10q-34 -56 -75 -117t-81 -118q14 -43 30.5 -98.5t29.5 -110.5zM471 29l-18 -9q-31 55 -67.5 107t-63.5 82l-4 8l15 68q55 45 113.5 98t106.5 100l14 -10q-35 -56 -76 -117t-80 -118 q14 -43 30.5 -98.5t29.5 -110.5z" />
<glyph unicode="&#xac;" d="M586 425l-49 -231h-68l36 171h-370l14 63q36 1 93.5 2t121 2t121 1h95.5z" />
<glyph unicode="&#xae;" horiz-adv-x="705" d="M342 -48q-77 0 -133.5 32t-88 88.5t-31.5 129.5q0 71 28 133.5t77.5 110.5t114 75t137.5 27q76 0 133 -32t88.5 -88.5t31.5 -129.5q0 -71 -28 -133.5t-77.5 -110.5t-114 -75t-137.5 -27zM439 503q-62 0 -117.5 -23.5t-97.5 -65t-66 -95.5t-24 -115q0 -60 26.5 -107 t75 -73.5t113.5 -26.5q62 0 117 23.5t97.5 65t66 95.5t23.5 115q0 60 -26.5 107t-74.5 73.5t-113 26.5zM380 342l-20 -93h36q39 0 60.5 22.5t21.5 52.5q0 48 -60 48h-32zM365 90h-160l1 21l27 11q11 4 14.5 9.5t6.5 19.5l4 18l36 173l8 35l-35 13l4 20h160q63 0 96.5 -22 t33.5 -62q0 -36 -23 -60t-57 -37l10 -23q12 -29 23.5 -56t28.5 -32l23 -7l-4 -21l-77 -2q-24 -1 -34 8t-18 28l-37 87h-8h-36l-9 -42l-9 -44l37 -14z" />
<glyph unicode="&#xaf;" horiz-adv-x="475" d="M173 630l14 61h289l-13 -61h-290z" />
<glyph unicode="&#xb0;" horiz-adv-x="358" d="M417 598q0 -40 -20 -73t-53 -53t-74 -20q-48 0 -76.5 27.5t-28.5 73.5q0 40 19.5 73t53 52.5t74.5 19.5q47 0 76 -27t29 -73zM214 561q0 -29 17.5 -47t47.5 -18q39 0 64 26.5t25 66.5q0 30 -17.5 48t-47.5 18q-39 0 -64 -27t-25 -67z" />
<glyph unicode="&#xb1;" d="M569 391h-171l-33 -159h-67l33 159h-169l13 63q30 1 74.5 2t95.5 1l31 154h69l-32 -153q50 0 95 0.5t76 0.5l6 -8zM514 78h-430l14 64q36 1 93 2t121 1.5t121.5 1t95.5 0.5l7 -8z" />
<glyph unicode="&#xb2;" horiz-adv-x="379" d="M201 355q-22 0 -40.5 -4.5t-34.5 -12.5l-11 51q136 78 192.5 133.5t56.5 102.5q0 26 -15.5 42.5t-45.5 16.5t-59.5 -16.5t-50.5 -41.5l-12 7q22 54 67.5 89.5t99.5 35.5q52 0 81.5 -28t29.5 -74q0 -58 -43 -108.5t-112 -89.5q-18 -9 -38.5 -18.5t-44.5 -19.5q16 2 32 2 q29 0 59 -5t48 -5q17 0 30 14t24 33l9 -4q-4 -18 -8 -34.5t-10 -31.5q-10 -22 -21.5 -36.5t-29.5 -14.5q-30 0 -70 8.5t-83 8.5z" />
<glyph unicode="&#xb3;" horiz-adv-x="373" d="M420 477q0 -60 -83 -95t-227 -44l-2 19q60 12 107.5 29.5t75.5 40.5t28 50q0 25 -19.5 38.5t-52.5 13.5q-21 0 -36 -3l-4 27q66 8 102.5 31.5t36.5 57.5q0 23 -14 37t-42 14q-56 0 -96 -48l-12 7q26 49 69.5 77.5t95.5 28.5q51 0 78 -23.5t27 -58.5q0 -47 -40.5 -76.5 t-95.5 -43.5q104 -8 104 -79z" />
<glyph unicode="&#xb4;" horiz-adv-x="396" d="M316 759l10 4q5 0 10.5 -0.5t10.5 -1.5q59 -9 59 -39q0 -18 -21 -40t-56.5 -43.5t-79 -39.5t-87.5 -29l-10 16q33 28 65 60t57.5 61.5t41.5 51.5z" />
<glyph unicode="&#xb6;" horiz-adv-x="618" d="M483 54q-21 -104 -85.5 -164.5t-154.5 -60.5q-46 0 -83.5 12t-60 36t-22.5 59t22.5 63.5t69.5 46.5l13 -10q-7 -17 -11.5 -35t-4.5 -33q0 -43 21.5 -69.5t68.5 -26.5q59 0 100.5 52t58.5 136l111 521l13 61h-83l-90 -423q-108 0 -170.5 53t-62.5 145q0 78 44 139.5 t121.5 96.5t177.5 35h219l2 -20l-55 -18q-17 -6 -27 -16t-14 -28l-6 -25v0z" />
<glyph unicode="&#xb7;" horiz-adv-x="334" d="M290 282q0 -37 -25.5 -63.5t-61.5 -26.5q-32 0 -50 19.5t-18 46.5q0 34 26.5 61t63.5 27q29 0 47 -18t18 -46z" />
<glyph unicode="&#xb8;" horiz-adv-x="348" d="M187 -125q0 -43 -57 -75t-147 -39l-2 13q43 13 70.5 36.5t27.5 45.5q0 29 -43 35l-3 8l40 101h48l-24 -61q43 -5 66.5 -21.5t23.5 -42.5z" />
<glyph unicode="&#xb9;" horiz-adv-x="294" d="M315 348h-206l-1 11l30 7q37 10 43 37l63 291l-59 10l1 12l155 42l5 -6l-79 -373l51 -20z" />
<glyph unicode="&#xba;" horiz-adv-x="413" d="M486 607q0 -75 -30.5 -132.5t-79.5 -90t-103 -32.5q-59 0 -97 39t-38 107q0 53 17.5 99.5t48 82.5t69 56t79.5 20q65 0 99.5 -40.5t34.5 -108.5zM241 461q0 -36 10.5 -56.5t29.5 -20.5q22 0 40.5 27.5t32 70t21.5 88.5t8 84q0 32 -9 50.5t-29 18.5q-21 0 -40 -25.5 t-33.5 -65.5t-22.5 -85.5t-8 -85.5z" />
<glyph unicode="&#xbb;" horiz-adv-x="549" d="M375 475l17 8q31 -55 67.5 -106.5t64.5 -82.5l4 -8l-15 -68q-56 -45 -114.5 -97.5t-105.5 -100.5l-14 11q34 55 75 116.5t81 118.5q-14 43 -30.5 98t-29.5 111zM161 475l18 8q31 -55 67 -106.5t64 -82.5l4 -8l-15 -68q-55 -45 -113.5 -97.5t-106.5 -100.5l-14 11 q35 55 76 116.5t80 118.5q-14 43 -30.5 98t-29.5 111z" />
<glyph unicode="&#xbc;" horiz-adv-x="965" d="M346 288h-206l-1 11l30 7q37 10 43 37l63 291l-59 10l1 12l155 42l5 -6l-79 -373l51 -20zM838 698l-574 -708h-57l573 708h58zM821 410l64 -8l-56 -260l62 2l-13 -50l-59 1l-20 -95h-91l21 96l-181 2v31zM777 316l-174 -180l135 4z" />
<glyph unicode="&#xbd;" horiz-adv-x="965" d="M842 698l-573 -708h-58l573 708h58zM346 288h-206l-1 11l30 7q37 10 43 37l63 291l-59 10l1 12l155 42l5 -6l-79 -373l51 -20zM661 6q-21 0 -39.5 -4t-34.5 -12l-11 51q135 78 191.5 133t56.5 103q0 26 -15 42.5t-45 16.5t-60 -16.5t-50 -41.5l-13 7q23 54 68.5 89.5 t99.5 35.5q51 0 81 -28t30 -74q0 -58 -43 -108.5t-112 -89.5q-18 -9 -39 -18.5t-44 -19.5q15 2 32 2q28 0 58.5 -5t48.5 -5q17 0 29.5 14t23.5 33l10 -5q-4 -17 -8.5 -33.5t-10.5 -31.5q-10 -22 -21.5 -36.5t-28.5 -14.5q-30 0 -70 8t-84 8z" />
<glyph unicode="&#xbe;" horiz-adv-x="965" d="M435 417q0 -60 -83 -95t-227 -44l-2 19q60 12 107.5 29.5t75.5 40.5t28 50q0 25 -19.5 38.5t-52.5 13.5q-21 0 -36 -3l-4 27q66 8 103 31.5t37 57.5q0 23 -14.5 37t-42.5 14q-55 0 -96 -48l-12 7q26 49 69.5 77.5t95.5 28.5q51 0 78 -23.5t27 -58.5q0 -47 -40 -76.5 t-96 -43.5q104 -8 104 -79zM848 698l-574 -708h-57l573 708h58zM821 410l64 -8l-56 -260l62 2l-13 -50l-59 1l-20 -95h-91l21 96l-181 2v31zM777 316l-174 -180l135 4z" />
<glyph unicode="&#xbf;" horiz-adv-x="429" d="M328 508q23 0 38 -14.5t15 -38.5q0 -34 -24.5 -59t-56.5 -25q-23 0 -38 14.5t-15 37.5q0 35 24.5 60t56.5 25zM224 273l9 9q37 -1 60.5 -17t23.5 -48q0 -38 -21.5 -65t-52.5 -49.5t-62 -46.5t-52 -55.5t-21 -77.5q0 -38 18 -59.5t51 -21.5q36 0 62 21.5t40.5 55.5 t14.5 71q0 6 -1 12.5t-1 13.5q24 11 53 11q25 0 39 -13.5t14 -38.5q0 -49 -34 -88.5t-87.5 -63t-112.5 -23.5q-83 0 -128.5 37t-45.5 104q0 42 18 73.5t47 55.5t61.5 44t61 38t47 37.5t18.5 43.5t-19 40z" />
<glyph unicode="&#xc0;" horiz-adv-x="691" d="M634 796l-10 -18q-37 1 -78.5 6.5t-77.5 16t-58.5 26.5t-22.5 37q0 24 23 40t43 23l10 -2q15 -18 42 -41t60.5 -46t68.5 -42zM447 689h75l75 -605q3 -23 10.5 -33t23.5 -16l42 -15l-2 -20h-270l-4 20l81 27l-21 176l-225 -4l-94 -172l78 -27l-4 -20h-206l-3 20l57 20 q17 6 27.5 15t20.5 28zM255 262l198 -1l-36 297z" />
<glyph unicode="&#xc1;" horiz-adv-x="691" d="M595 924l11 2q24 -11 37.5 -23.5t13.5 -29.5q0 -25 -38 -45.5t-101.5 -33.5t-139.5 -17l-6 18q67 30 128 65.5t95 63.5zM447 689h75l75 -605q3 -23 10.5 -33t23.5 -16l42 -15l-2 -20h-270l-4 20l81 27l-21 176l-225 -4l-94 -172l78 -27l-4 -20h-206l-3 20l57 20 q17 6 27.5 15t20.5 28zM255 262l198 -1l-36 297z" />
<glyph unicode="&#xc2;" horiz-adv-x="691" d="M667 784l-17 -10q-29 19 -61.5 39.5t-66.5 38.5q-34 -17 -78 -38.5t-83 -39.5l-11 13q39 35 80 73.5t64 63.5l10 6h70q25 -34 49.5 -72.5t43.5 -73.5zM447 689h75l75 -605q3 -23 10.5 -33t23.5 -16l42 -15l-2 -20h-270l-4 20l81 27l-21 176l-225 -4l-94 -172l78 -27 l-4 -20h-206l-3 20l57 20q17 6 27.5 15t20.5 28zM255 262l198 -1l-36 297z" />
<glyph unicode="&#xc3;" horiz-adv-x="691" d="M391 840q-14 -7 -32.5 -23t-42.5 -37l-13 7q22 64 59 100t85 36q35 0 68 -14t64 -28t60 -17q15 8 33.5 23.5t41.5 36.5l13 -6q-21 -64 -58 -100t-86 -36q-34 0 -67 13.5t-64 28t-61 16.5zM447 689h75l75 -605q3 -23 10.5 -33t23.5 -16l42 -15l-2 -20h-270l-4 20l81 27 l-21 176l-225 -4l-94 -172l78 -27l-4 -20h-206l-3 20l57 20q17 6 27.5 15t20.5 28zM255 262l198 -1l-36 297z" />
<glyph unicode="&#xc4;" horiz-adv-x="691" d="M690 860q0 -31 -22 -53.5t-54 -22.5q-27 0 -43.5 15t-16.5 39q0 29 22.5 52t56.5 23q24 0 40.5 -14.5t16.5 -38.5zM466 860q0 -31 -22 -53.5t-53 -22.5q-27 0 -43.5 15t-16.5 39q0 29 22.5 52t55.5 23q25 0 41 -14.5t16 -38.5zM447 689h75l75 -605q3 -23 10.5 -33 t23.5 -16l42 -15l-2 -20h-270l-4 20l81 27l-21 176l-225 -4l-94 -172l78 -27l-4 -20h-206l-3 20l57 20q17 6 27.5 15t20.5 28zM255 262l198 -1l-36 297z" />
<glyph unicode="&#xc5;" horiz-adv-x="691" d="M617 868q0 -43 -35.5 -73t-87.5 -30q-38 0 -60.5 19t-22.5 52q0 42 36 71.5t87 29.5q39 0 61 -18.5t22 -50.5zM464 836q0 -17 10.5 -28t27.5 -11q26 0 44 20t18 49q0 18 -10.5 28.5t-27.5 10.5q-26 0 -44 -20t-18 -49zM447 689h75l75 -605q3 -23 10.5 -33t23.5 -16 l42 -15l-2 -20h-270l-4 20l81 27l-21 176l-225 -4l-94 -172l78 -27l-4 -20h-206l-3 20l57 20q17 6 27.5 15t20.5 28zM255 262l198 -1l-36 297z" />
<glyph unicode="&#xc6;" horiz-adv-x="915" d="M423 636l-73 29l7 23h611q-1 -48 -14 -103t-32 -105h-24q-13 68 -20 103t-13 59q-16 2 -39.5 3t-44.5 1h-97l-60 -282l200 7l-14 -56l-195 8l-46 -216l-14 -66h125q47 0 85 5q11 15 23.5 35t31.5 50.5t48 75.5h23q0 -47 -12 -105t-30 -102h-496l-2 20l48 18q18 7 28 16 t14 28l5 25l46 215l-202 -3l-150 -271l73 -25l-6 -23h-199l3 23q16 5 29.5 10t26.5 10q27 11 43 40zM560 644h-91l-155 -282l186 -1z" />
<glyph unicode="&#xc7;" horiz-adv-x="628" d="M478 -125q0 -43 -57 -75t-148 -39l-2 13q44 13 71.5 36.5t27.5 45.5q0 29 -43 35l-3 8l36 92q-121 8 -188.5 81.5t-67.5 198.5q0 88 32 165t87.5 136t129 92.5t156.5 33.5q52 0 94 -8t70 -21q-1 -28 -8 -63.5t-17 -70.5t-20 -60h-24q-15 59 -24.5 97t-19.5 69 q-10 3 -21 5t-28 2q-57 0 -107.5 -30t-89.5 -82.5t-61 -120.5t-22 -145q0 -71 22 -123t60.5 -80t88.5 -28q18 0 30.5 2.5l22.5 4.5q26 32 55.5 71t66.5 90h24q-4 -45 -16 -97t-27 -95q-34 -11 -71.5 -17t-78.5 -8l-20 -51q43 -5 66.5 -21.5t23.5 -42.5z" />
<glyph unicode="&#xc8;" horiz-adv-x="605" d="M598 795l-10 -18q-37 2 -78.5 7.5t-77.5 16t-58.5 26t-22.5 37.5q0 23 23 39.5t43 22.5l10 -1q15 -18 42 -41t60.5 -46.5t68.5 -42.5zM366 581l-46 -217l195 7l-14 -56l-190 8l-46 -216l-14 -66h120q24 0 46 1t39 4q11 15 23.5 35t31 50.5t47.5 75.5h24 q-1 -47 -12.5 -105t-29.5 -102h-491l-2 20l48 18q18 7 28 16t14 28l5 25l101 474l12 59l-68 28l4 20h468q-1 -48 -14 -103t-32 -105h-24q-14 68 -21 103t-13 59q-12 2 -35 3t-48 1h-92z" />
<glyph unicode="&#xc9;" horiz-adv-x="605" d="M549 924l11 1q24 -11 37.5 -23t13.5 -29q0 -25 -38 -45.5t-101.5 -34t-139.5 -17.5l-6 18q67 31 128 66t95 64zM366 581l-46 -217l195 7l-14 -56l-190 8l-46 -216l-14 -66h120q24 0 46 1t39 4q11 15 23.5 35t31 50.5t47.5 75.5h24q-1 -47 -12.5 -105t-29.5 -102h-491 l-2 20l48 18q18 7 28 16t14 28l5 25l101 474l12 59l-68 28l4 20h468q-1 -48 -14 -103t-32 -105h-24q-14 68 -21 103t-13 59q-12 2 -35 3t-48 1h-92z" />
<glyph unicode="&#xca;" horiz-adv-x="605" d="M627 784l-18 -11q-28 19 -60.5 40t-66.5 39q-35 -18 -78.5 -39.5t-83.5 -39.5l-10 14q39 34 80 72.5t63 63.5l11 6h70q25 -33 49.5 -71.5t43.5 -73.5zM366 581l-46 -217l195 7l-14 -56l-190 8l-46 -216l-14 -66h120q24 0 46 1t39 4q11 15 23.5 35t31 50.5t47.5 75.5h24 q-1 -47 -12.5 -105t-29.5 -102h-491l-2 20l48 18q18 7 28 16t14 28l5 25l101 474l12 59l-68 28l4 20h468q-1 -48 -14 -103t-32 -105h-24q-14 68 -21 103t-13 59q-12 2 -35 3t-48 1h-92z" />
<glyph unicode="&#xcb;" horiz-adv-x="605" d="M656 860q0 -32 -22 -54t-53 -22q-27 0 -43.5 15t-16.5 38q0 30 22.5 52.5t55.5 22.5q25 0 41 -14.5t16 -37.5zM433 860q0 -32 -22 -54t-54 -22q-27 0 -43.5 15t-16.5 38q0 30 22.5 52.5t56.5 22.5q24 0 40.5 -14.5t16.5 -37.5zM366 581l-46 -217l195 7l-14 -56l-190 8 l-46 -216l-14 -66h120q24 0 46 1t39 4q11 15 23.5 35t31 50.5t47.5 75.5h24q-1 -47 -12.5 -105t-29.5 -102h-491l-2 20l48 18q18 7 28 16t14 28l5 25l101 474l12 59l-68 28l4 20h468q-1 -48 -14 -103t-32 -105h-24q-14 68 -21 103t-13 59q-12 2 -35 3t-48 1h-92z" />
<glyph unicode="&#xcc;" horiz-adv-x="386" d="M483 796l-10 -18q-37 1 -78.5 6.5t-77.5 16t-58.5 26.5t-22.5 37q0 24 23 40t43 23l10 -2q15 -18 42 -41t60.5 -46t68.5 -42zM252 48l69 -28l-4 -20h-268l-2 20l48 18q17 7 27.5 16t13.5 28l7 25h-1l100 474l13 59l-69 28l4 20h269l2 -20l-49 -18q-17 -7 -27 -16.5 t-14 -27.5l-6 -25v0l-100 -474z" />
<glyph unicode="&#xcd;" horiz-adv-x="386" d="M436 924l10 2q24 -11 37.5 -23.5t13.5 -29.5q0 -25 -38 -45.5t-101 -33.5t-140 -17l-6 18q67 30 128 65.5t96 63.5zM252 48l69 -28l-4 -20h-268l-2 20l48 18q17 7 27.5 16t13.5 28l7 25h-1l100 474l13 59l-69 28l4 20h269l2 -20l-49 -18q-17 -7 -27 -16.5t-14 -27.5 l-6 -25v0l-100 -474z" />
<glyph unicode="&#xce;" horiz-adv-x="386" d="M504 784l-17 -10q-28 19 -61 39.5t-66 38.5q-35 -17 -79 -38.5t-83 -39.5l-10 13q39 35 79.5 73.5t63.5 63.5l10 6h70q25 -34 49.5 -72.5t43.5 -73.5zM252 48l69 -28l-4 -20h-268l-2 20l48 18q17 7 27.5 16t13.5 28l7 25h-1l100 474l13 59l-69 28l4 20h269l2 -20l-49 -18 q-17 -7 -27 -16.5t-14 -27.5l-6 -25v0l-100 -474z" />
<glyph unicode="&#xcf;" horiz-adv-x="386" d="M540 860q0 -31 -22 -53.5t-53 -22.5q-27 0 -43.5 15t-16.5 39q0 29 22.5 52t55.5 23q25 0 41 -14.5t16 -38.5zM317 860q0 -31 -22 -53.5t-54 -22.5q-27 0 -43 15t-16 39q0 29 22.5 52t55.5 23q24 0 40.5 -14.5t16.5 -38.5zM252 48l69 -28l-4 -20h-268l-2 20l48 18 q17 7 27.5 16t13.5 28l7 25h-1l100 474l13 59l-69 28l4 20h269l2 -20l-49 -18q-17 -7 -27 -16.5t-14 -27.5l-6 -25v0l-100 -474z" />
<glyph unicode="&#xd0;" horiz-adv-x="709" d="M468 330h-155l-48 -223l-14 -65h55q68 0 123 34t94.5 91.5t60.5 130.5t21 150q0 93 -42.5 145.5t-131.5 52.5h-51l-14 -65l-44 -210h155zM307 0h-258l-2 20l48 18q18 7 28 16t14 28l5 25l48 223h-101l8 41h102l45 210h-1l13 59l-69 28l4 20h260q84 0 147 -30.5 t98.5 -88.5t35.5 -140q0 -81 -27.5 -158t-81.5 -138t-133 -97t-183 -36z" />
<glyph unicode="&#xd1;" horiz-adv-x="724" d="M424 840q-14 -7 -33 -23t-42 -37l-13 7q21 64 58 100t85 36q35 0 68 -14t64 -28t60 -17q15 8 33.5 23.5t41.5 36.5l14 -6q-22 -64 -59 -100t-86 -36q-34 0 -67 13.5t-64 28t-60 16.5zM179 52l82 -29l-4 -23h-216l-3 23l52 17q21 8 32 16t14 26l6 25l111 527l-73 31l5 23 h173l228 -530l90 423l13 55l-85 29l4 23h219l2 -23l-51 -17q-21 -8 -32 -16t-15 -26l-6 -25l-123 -581h-78l-239 552l-94 -445z" />
<glyph unicode="&#xd2;" horiz-adv-x="647" d="M612 796l-10 -18q-37 1 -78 6.5t-77.5 16t-59 26.5t-22.5 37q0 24 23 40t43 23l10 -2q15 -18 42 -41t60.5 -46t68.5 -42zM673 446q0 -88 -27 -169.5t-75 -146t-111.5 -102.5t-136.5 -38q-66 0 -116.5 30.5t-79 87t-28.5 133.5q0 85 27 166.5t75.5 147t112.5 104.5t138 39 q70 0 119.5 -31.5t75.5 -88.5t26 -132zM226 183q0 -65 26 -106t75 -41q39 0 72.5 32.5t60 85.5t46 116t30 125.5t10.5 112.5q0 68 -23.5 106t-73.5 38q-40 0 -74 -30.5t-61.5 -81t-47 -112.5t-30 -125.5t-10.5 -119.5z" />
<glyph unicode="&#xd3;" horiz-adv-x="647" d="M580 924l10 2q25 -11 38 -23.5t13 -29.5q0 -25 -37.5 -45.5t-101 -33.5t-140.5 -17l-5 18q66 30 127 65.5t96 63.5zM673 446q0 -88 -27 -169.5t-75 -146t-111.5 -102.5t-136.5 -38q-66 0 -116.5 30.5t-79 87t-28.5 133.5q0 85 27 166.5t75.5 147t112.5 104.5t138 39 q70 0 119.5 -31.5t75.5 -88.5t26 -132zM226 183q0 -65 26 -106t75 -41q39 0 72.5 32.5t60 85.5t46 116t30 125.5t10.5 112.5q0 68 -23.5 106t-73.5 38q-40 0 -74 -30.5t-61.5 -81t-47 -112.5t-30 -125.5t-10.5 -119.5z" />
<glyph unicode="&#xd4;" horiz-adv-x="647" d="M632 784l-17 -10q-28 19 -61 39.5t-66 38.5q-35 -17 -78.5 -38.5t-83.5 -39.5l-10 13q39 35 79.5 73.5t63.5 63.5l10 6h70q26 -34 50.5 -72.5t42.5 -73.5zM673 446q0 -88 -27 -169.5t-75 -146t-111.5 -102.5t-136.5 -38q-66 0 -116.5 30.5t-79 87t-28.5 133.5 q0 85 27 166.5t75.5 147t112.5 104.5t138 39q70 0 119.5 -31.5t75.5 -88.5t26 -132zM226 183q0 -65 26 -106t75 -41q39 0 72.5 32.5t60 85.5t46 116t30 125.5t10.5 112.5q0 68 -23.5 106t-73.5 38q-40 0 -74 -30.5t-61.5 -81t-47 -112.5t-30 -125.5t-10.5 -119.5z" />
<glyph unicode="&#xd5;" horiz-adv-x="647" d="M365 840q-14 -7 -32.5 -23t-42.5 -37l-13 7q22 64 58.5 100t85.5 36q35 0 68 -14t64 -28t60 -17q15 8 33.5 23.5t41.5 36.5l13 -6q-21 -64 -58 -100t-86 -36q-34 0 -67 13.5t-64 28t-61 16.5zM673 446q0 -88 -27 -169.5t-75 -146t-111.5 -102.5t-136.5 -38 q-66 0 -116.5 30.5t-79 87t-28.5 133.5q0 85 27 166.5t75.5 147t112.5 104.5t138 39q70 0 119.5 -31.5t75.5 -88.5t26 -132zM226 183q0 -65 26 -106t75 -41q39 0 72.5 32.5t60 85.5t46 116t30 125.5t10.5 112.5q0 68 -23.5 106t-73.5 38q-40 0 -74 -30.5t-61.5 -81 t-47 -112.5t-30 -125.5t-10.5 -119.5z" />
<glyph unicode="&#xd6;" horiz-adv-x="647" d="M668 860q0 -31 -22 -53.5t-53 -22.5q-27 0 -43.5 15t-16.5 39q0 29 22.5 52t55.5 23q25 0 41 -14.5t16 -38.5zM445 860q0 -31 -22 -53.5t-54 -22.5q-27 0 -43.5 15t-16.5 39q0 29 22.5 52t56.5 23q24 0 40.5 -14.5t16.5 -38.5zM673 446q0 -88 -27 -169.5t-75 -146 t-111.5 -102.5t-136.5 -38q-66 0 -116.5 30.5t-79 87t-28.5 133.5q0 85 27 166.5t75.5 147t112.5 104.5t138 39q70 0 119.5 -31.5t75.5 -88.5t26 -132zM226 183q0 -65 26 -106t75 -41q39 0 72.5 32.5t60 85.5t46 116t30 125.5t10.5 112.5q0 68 -23.5 106t-73.5 38 q-40 0 -74 -30.5t-61.5 -81t-47 -112.5t-30 -125.5t-10.5 -119.5z" />
<glyph unicode="&#xd7;" d="M478 139l-125 157l-193 -157l-38 53l190 155l-123 156l51 46q23 -27 56.5 -69t70.5 -88l192 157l38 -54l-190 -154q35 -45 67.5 -85.5t54.5 -68.5l-3 -11z" />
<glyph unicode="&#xd8;" horiz-adv-x="647" d="M673 446q0 -88 -27 -169.5t-75 -146t-111.5 -102.5t-136.5 -38q-57 0 -102.5 22.5t-74.5 64.5l-72 -72l-29 30l79 80q-25 55 -25 126q0 85 27 166.5t75.5 147t112.5 104.5t138 39q57 0 100 -21t72 -59l65 65l29 -29l-72 -73q27 -58 27 -135zM449 652q-37 0 -69.5 -27 t-59 -72.5t-46.5 -102t-32 -116.5t-15 -115l318 319q-5 54 -28.5 84t-67.5 30zM327 36q37 0 68.5 29t58 77.5t46 107t31 118.5t14.5 111l-318 -320q4 -55 29.5 -89t70.5 -34z" />
<glyph unicode="&#xd9;" horiz-adv-x="679" d="M660 796l-9 -18q-38 1 -79 6.5t-77.5 16t-59 26.5t-21.5 37q0 24 22.5 40t42.5 23l10 -2q15 -18 42.5 -41t61 -46t67.5 -42zM624 246q-26 -125 -91.5 -190.5t-179.5 -65.5q-97 0 -156.5 49.5t-59.5 142.5q0 14 1.5 33t5.5 39l69 327l13 59l-69 28l4 20h269l2 -20l-49 -18 q-17 -7 -27 -16.5t-14 -27.5l-6 -25v0l-70 -332q-4 -18 -5.5 -35t-1.5 -33q0 -68 34.5 -105t93.5 -37q67 0 115.5 50t71.5 156l73 342l11 49l-84 29l4 23h219l2 -23l-92 -29l-11 -49z" />
<glyph unicode="&#xda;" horiz-adv-x="679" d="M612 924l10 2q24 -11 37.5 -23.5t13.5 -29.5q0 -25 -37.5 -45.5t-101 -33.5t-140.5 -17l-5 18q66 30 127 65.5t96 63.5zM624 246q-26 -125 -91.5 -190.5t-179.5 -65.5q-97 0 -156.5 49.5t-59.5 142.5q0 14 1.5 33t5.5 39l69 327l13 59l-69 28l4 20h269l2 -20l-49 -18 q-17 -7 -27 -16.5t-14 -27.5l-6 -25v0l-70 -332q-4 -18 -5.5 -35t-1.5 -33q0 -68 34.5 -105t93.5 -37q67 0 115.5 50t71.5 156l73 342l11 49l-84 29l4 23h219l2 -23l-92 -29l-11 -49z" />
<glyph unicode="&#xdb;" horiz-adv-x="679" d="M683 784l-17 -10q-28 19 -60.5 39.5t-66.5 38.5q-35 -17 -78.5 -38.5t-83.5 -39.5l-10 13q39 35 79.5 73.5t63.5 63.5l11 6h69q26 -34 50.5 -72.5t42.5 -73.5zM624 246q-26 -125 -91.5 -190.5t-179.5 -65.5q-97 0 -156.5 49.5t-59.5 142.5q0 14 1.5 33t5.5 39l69 327 l13 59l-69 28l4 20h269l2 -20l-49 -18q-17 -7 -27 -16.5t-14 -27.5l-6 -25v0l-70 -332q-4 -18 -5.5 -35t-1.5 -33q0 -68 34.5 -105t93.5 -37q67 0 115.5 50t71.5 156l73 342l11 49l-84 29l4 23h219l2 -23l-92 -29l-11 -49z" />
<glyph unicode="&#xdc;" horiz-adv-x="679" d="M714 860q0 -31 -22 -53.5t-53 -22.5q-27 0 -43.5 15t-16.5 39q0 29 22.5 52t55.5 23q25 0 41 -14.5t16 -38.5zM491 860q0 -31 -22 -53.5t-54 -22.5q-27 0 -43.5 15t-16.5 39q0 29 22.5 52t56.5 23q24 0 40.5 -14.5t16.5 -38.5zM624 246q-26 -125 -91.5 -190.5 t-179.5 -65.5q-97 0 -156.5 49.5t-59.5 142.5q0 14 1.5 33t5.5 39l69 327l13 59l-69 28l4 20h269l2 -20l-49 -18q-17 -7 -27 -16.5t-14 -27.5l-6 -25v0l-70 -332q-4 -18 -5.5 -35t-1.5 -33q0 -68 34.5 -105t93.5 -37q67 0 115.5 50t71.5 156l73 342l11 49l-84 29l4 23h219 l2 -23l-92 -29l-11 -49z" />
<glyph unicode="&#xdd;" horiz-adv-x="663" d="M601 924l10 2q24 -11 37.5 -23.5t13.5 -29.5q0 -25 -37.5 -45.5t-101 -33.5t-140.5 -17l-5 18q66 30 127 65.5t96 63.5zM381 48l69 -28l-4 -20h-269l-2 20l48 18q17 7 27.5 16t14.5 28l6 25v0l22 106q8 40 7 92.5t-9 107.5t-21.5 102t-30 76t-34.5 29t-39.5 -23 t-39.5 -50l-17 12q29 60 69 99.5t85 39.5q38 0 66.5 -29.5t47.5 -80.5t28.5 -117t11.5 -140q37 75 74.5 141t74 117t69 80t59.5 29q25 0 41 -20.5t25 -52t12 -64.5l-18 -6q-11 28 -25 46.5t-32 18.5q-22 0 -54.5 -29.5t-68.5 -78.5t-69.5 -108t-59 -117.5t-36.5 -106.5 l-15 -73z" />
<glyph unicode="&#xde;" horiz-adv-x="601" d="M252 48l89 -28l-4 -20h-289l-2 20l48 18q17 7 27.5 16t14.5 28l6 25v0l101 476l13 59l-69 28l4 20h268l2 -20l-48 -18q-17 -7 -27.5 -16t-14.5 -28l-6 -25h1l-5 -24h52q108 0 171.5 -46.5t63.5 -131.5q0 -74 -41 -129t-110.5 -85.5t-157.5 -30.5h-68l-6 -29zM396 513h-45 l-71 -332h55q60 0 101.5 29.5t63.5 76.5t22 100q0 63 -33 94.5t-93 31.5z" />
<glyph unicode="&#xdf;" horiz-adv-x="593" d="M202 8q-27 -128 -93.5 -197t-152.5 -69q-48 0 -77 20t-29 49q0 16 8 27t20 17q15 -20 34.5 -33t44.5 -13q45 0 73 44t48 133l113 514q25 122 94 190t173 68q72 0 112 -34t40 -94q0 -48 -22.5 -87.5t-62 -66.5t-88.5 -36q76 -41 114 -100t38 -129q0 -62 -28.5 -112 t-76.5 -79.5t-107 -29.5q-44 0 -71.5 20t-27.5 49q0 16 8 27t20 17q12 -22 29 -34t37 -12q26 0 47 21t33.5 56.5t12.5 78.5q0 72 -27 124t-80 88l6 28q41 6 72 31t48.5 62t17.5 79q0 44 -16 68t-46 24q-85 0 -123 -188z" />
<glyph unicode="&#xe0;" horiz-adv-x="553" d="M474 584l-13 -14q-49 21 -91.5 47.5t-67.5 53t-24 49.5t21.5 32.5t48.5 9.5h10.5h10.5l8 -6q13 -32 40 -80t57 -92zM473 154q-4 -20 -7.5 -37t-3.5 -27q0 -23 17 -23t40.5 22t43.5 46l9 -8q-15 -31 -39 -62.5t-53.5 -53t-63.5 -21.5q-37 0 -56 22t-19 59q0 16 3.5 36.5 t8.5 46.5l16 69h-2q-17 -39 -40 -79.5t-50 -75.5t-56.5 -56.5t-59.5 -21.5q-43 0 -70 37t-27 101q0 73 23 141t65.5 122t100 85.5t126.5 31.5q47 0 91.5 -10t76.5 -26l-15 -45zM187 147q0 -29 7.5 -47t23.5 -18q17 0 37 20t41 52t40 69.5t34.5 73.5t23.5 64l21 85 q-23 21 -59 21q-31 0 -61 -29t-54.5 -76.5t-39 -103.5t-14.5 -111z" />
<glyph unicode="&#xe1;" horiz-adv-x="553" d="M455 759l10 4q5 0 10.5 -0.5t10.5 -1.5q60 -9 60 -39q0 -18 -21.5 -40t-56.5 -43.5t-78.5 -39.5t-88.5 -29l-9 16q33 28 65 60t57.5 61.5t40.5 51.5zM473 154q-4 -20 -7.5 -37t-3.5 -27q0 -23 17 -23t40.5 22t43.5 46l9 -8q-15 -31 -39 -62.5t-53.5 -53t-63.5 -21.5 q-37 0 -56 22t-19 59q0 16 3.5 36.5t8.5 46.5l16 69h-2q-17 -39 -40 -79.5t-50 -75.5t-56.5 -56.5t-59.5 -21.5q-43 0 -70 37t-27 101q0 73 23 141t65.5 122t100 85.5t126.5 31.5q47 0 91.5 -10t76.5 -26l-15 -45zM187 147q0 -29 7.5 -47t23.5 -18q17 0 37 20t41 52t40 69.5 t34.5 73.5t23.5 64l21 85q-23 21 -59 21q-31 0 -61 -29t-54.5 -76.5t-39 -103.5t-14.5 -111z" />
<glyph unicode="&#xe2;" horiz-adv-x="553" d="M539 585l-17 -10q-25 24 -54.5 50t-60.5 49q-32 -23 -72 -50t-77 -49l-10 13q24 27 48.5 57.5t46 58t35.5 47.5l10 6h72q21 -39 42 -84.5t37 -87.5zM473 154q-4 -20 -7.5 -37t-3.5 -27q0 -23 17 -23t40.5 22t43.5 46l9 -8q-15 -31 -39 -62.5t-53.5 -53t-63.5 -21.5 q-37 0 -56 22t-19 59q0 16 3.5 36.5t8.5 46.5l16 69h-2q-17 -39 -40 -79.5t-50 -75.5t-56.5 -56.5t-59.5 -21.5q-43 0 -70 37t-27 101q0 73 23 141t65.5 122t100 85.5t126.5 31.5q47 0 91.5 -10t76.5 -26l-15 -45zM187 147q0 -29 7.5 -47t23.5 -18q17 0 37 20t41 52t40 69.5 t34.5 73.5t23.5 64l21 85q-23 21 -59 21q-31 0 -61 -29t-54.5 -76.5t-39 -103.5t-14.5 -111z" />
<glyph unicode="&#xe3;" horiz-adv-x="553" d="M283 655q-14 -8 -31.5 -24.5t-39.5 -38.5l-11 5q21 67 58 104.5t85 37.5q32 0 62 -14t57.5 -29t54.5 -18q14 8 31.5 24.5t39.5 38.5l11 -5q-21 -67 -58 -104.5t-85 -37.5q-32 0 -62.5 14.5t-58 29.5t-53.5 17zM473 154q-4 -20 -7.5 -37t-3.5 -27q0 -23 17 -23t40.5 22 t43.5 46l9 -8q-15 -31 -39 -62.5t-53.5 -53t-63.5 -21.5q-37 0 -56 22t-19 59q0 16 3.5 36.5t8.5 46.5l16 69h-2q-17 -39 -40 -79.5t-50 -75.5t-56.5 -56.5t-59.5 -21.5q-43 0 -70 37t-27 101q0 73 23 141t65.5 122t100 85.5t126.5 31.5q47 0 91.5 -10t76.5 -26l-15 -45z M187 147q0 -29 7.5 -47t23.5 -18q17 0 37 20t41 52t40 69.5t34.5 73.5t23.5 64l21 85q-23 21 -59 21q-31 0 -61 -29t-54.5 -76.5t-39 -103.5t-14.5 -111z" />
<glyph unicode="&#xe4;" horiz-adv-x="553" d="M573 678q0 -33 -21.5 -56.5t-52.5 -23.5q-26 0 -42 16.5t-16 41.5q0 31 22.5 55t54.5 24q23 0 39 -15.5t16 -41.5zM354 678q0 -33 -21.5 -56.5t-52.5 -23.5q-26 0 -42 16.5t-16 41.5q0 31 22.5 55t54.5 24q23 0 39 -15.5t16 -41.5zM473 154q-4 -20 -7.5 -37t-3.5 -27 q0 -23 17 -23t40.5 22t43.5 46l9 -8q-15 -31 -39 -62.5t-53.5 -53t-63.5 -21.5q-37 0 -56 22t-19 59q0 16 3.5 36.5t8.5 46.5l16 69h-2q-17 -39 -40 -79.5t-50 -75.5t-56.5 -56.5t-59.5 -21.5q-43 0 -70 37t-27 101q0 73 23 141t65.5 122t100 85.5t126.5 31.5q47 0 91.5 -10 t76.5 -26l-15 -45zM187 147q0 -29 7.5 -47t23.5 -18q17 0 37 20t41 52t40 69.5t34.5 73.5t23.5 64l21 85q-23 21 -59 21q-31 0 -61 -29t-54.5 -76.5t-39 -103.5t-14.5 -111z" />
<glyph unicode="&#xe5;" horiz-adv-x="553" d="M511 683q0 -43 -36 -73t-88 -30q-37 0 -59.5 19t-22.5 52q0 43 36 72.5t87 29.5q38 0 60.5 -19t22.5 -51zM358 652q0 -18 10.5 -29t27.5 -11q26 0 44 20t18 50q0 17 -10.5 28t-28.5 11q-25 0 -43 -20t-18 -49zM473 154q-4 -20 -7.5 -37t-3.5 -27q0 -23 17 -23t40.5 22 t43.5 46l9 -8q-15 -31 -39 -62.5t-53.5 -53t-63.5 -21.5q-37 0 -56 22t-19 59q0 16 3.5 36.5t8.5 46.5l16 69h-2q-17 -39 -40 -79.5t-50 -75.5t-56.5 -56.5t-59.5 -21.5q-43 0 -70 37t-27 101q0 73 23 141t65.5 122t100 85.5t126.5 31.5q47 0 91.5 -10t76.5 -26l-15 -45z M187 147q0 -29 7.5 -47t23.5 -18q17 0 37 20t41 52t40 69.5t34.5 73.5t23.5 64l21 85q-23 21 -59 21q-31 0 -61 -29t-54.5 -76.5t-39 -103.5t-14.5 -111z" />
<glyph unicode="&#xe6;" horiz-adv-x="713" d="M714 141q-36 -68 -90.5 -109.5t-120.5 -41.5q-71 0 -111 49.5t-40 133.5q0 10 1 20q-23 -48 -54 -95t-66 -77.5t-72 -30.5q-43 0 -70 37t-27 101q0 73 23 141t65.5 122t100 85.5t126.5 31.5q40 0 78 -7t69 -19q48 26 97 26q55 0 89 -29t34 -78q0 -50 -33.5 -90t-94 -63 t-141.5 -22l1 9q-3 -23 -3 -46q0 -57 24 -88t65 -31q33 0 70.5 21.5t70.5 56.5zM187 147q0 -29 7.5 -47t23.5 -18q18 0 39 21.5t42.5 55.5t41 73.5t34.5 75.5l39 139q-23 20 -58 20q-31 0 -61 -29t-54.5 -76.5t-39 -103.5t-14.5 -111zM609 466q-28 0 -54 -29t-46 -76 t-28 -102q47 3 83.5 25.5t57.5 58t21 76.5q0 47 -34 47z" />
<glyph unicode="&#xe7;" horiz-adv-x="426" d="M315 -125q0 -43 -57 -75t-147 -39l-2 13q43 13 70.5 36.5t27.5 45.5q0 29 -42 35l-3 8l36 93q-60 8 -93.5 55t-33.5 122q0 67 22.5 127.5t61.5 108.5t87.5 75.5t101.5 27.5q57 0 92 -31t35 -79q0 -42 -23.5 -70t-56.5 -28q-13 0 -24 4t-20 9q7 19 14.5 47.5t7.5 52.5 q0 53 -40 53q-25 0 -49 -24t-43.5 -64t-31 -88t-11.5 -96q0 -62 24.5 -93t66.5 -31q33 0 70.5 21.5t71.5 56.5l9 -7q-33 -62 -82 -102.5t-108 -47.5l-21 -52q44 -5 67 -21.5t23 -42.5z" />
<glyph unicode="&#xe8;" horiz-adv-x="433" d="M431 584l-13 -14q-49 21 -91.5 47.5t-67.5 53t-24 49.5t21.5 32.5t48.5 9.5h10.5h10.5l8 -6q13 -32 40 -80t57 -92zM434 141q-36 -68 -90.5 -109.5t-121.5 -41.5q-71 0 -110.5 49.5t-39.5 133.5q0 65 22.5 125t60.5 107t86.5 75t101.5 28q54 0 88.5 -29t34.5 -78 q0 -50 -33.5 -90t-94 -63t-141.5 -22v9q-2 -23 -2 -46q0 -57 24 -88t65 -31q32 0 69.5 21.5t71.5 56.5zM329 466q-28 0 -54.5 -29t-46 -76t-28.5 -102q47 3 84 25.5t58 58t21 76.5q0 47 -34 47z" />
<glyph unicode="&#xe9;" horiz-adv-x="433" d="M404 759l10 4q5 0 10.5 -0.5t10.5 -1.5q59 -9 59 -39q0 -18 -21 -40t-56.5 -43.5t-79 -39.5t-87.5 -29l-10 16q33 28 65 60t57.5 61.5t41.5 51.5zM434 141q-36 -68 -90.5 -109.5t-121.5 -41.5q-71 0 -110.5 49.5t-39.5 133.5q0 65 22.5 125t60.5 107t86.5 75t101.5 28 q54 0 88.5 -29t34.5 -78q0 -50 -33.5 -90t-94 -63t-141.5 -22v9q-2 -23 -2 -46q0 -57 24 -88t65 -31q32 0 69.5 21.5t71.5 56.5zM329 466q-28 0 -54.5 -29t-46 -76t-28.5 -102q47 3 84 25.5t58 58t21 76.5q0 47 -34 47z" />
<glyph unicode="&#xea;" horiz-adv-x="433" d="M497 585l-17 -10q-25 24 -54.5 50t-59.5 49q-32 -23 -72 -50t-77 -49l-10 13q23 27 48 57.5t46.5 58t34.5 47.5l11 6h71q22 -39 43 -84.5t36 -87.5zM434 141q-36 -68 -90.5 -109.5t-121.5 -41.5q-71 0 -110.5 49.5t-39.5 133.5q0 65 22.5 125t60.5 107t86.5 75t101.5 28 q54 0 88.5 -29t34.5 -78q0 -50 -33.5 -90t-94 -63t-141.5 -22v9q-2 -23 -2 -46q0 -57 24 -88t65 -31q32 0 69.5 21.5t71.5 56.5zM329 466q-28 0 -54.5 -29t-46 -76t-28.5 -102q47 3 84 25.5t58 58t21 76.5q0 47 -34 47z" />
<glyph unicode="&#xeb;" horiz-adv-x="433" d="M536 678q0 -33 -22 -56.5t-52 -23.5q-26 0 -42 16.5t-16 41.5q0 31 22 55t54 24q24 0 40 -15.5t16 -41.5zM317 678q0 -33 -22 -56.5t-52 -23.5q-26 0 -42 16.5t-16 41.5q0 31 22 55t54 24q24 0 40 -15.5t16 -41.5zM434 141q-36 -68 -90.5 -109.5t-121.5 -41.5 q-71 0 -110.5 49.5t-39.5 133.5q0 65 22.5 125t60.5 107t86.5 75t101.5 28q54 0 88.5 -29t34.5 -78q0 -50 -33.5 -90t-94 -63t-141.5 -22v9q-2 -23 -2 -46q0 -57 24 -88t65 -31q32 0 69.5 21.5t71.5 56.5zM329 466q-28 0 -54.5 -29t-46 -76t-28.5 -102q47 3 84 25.5t58 58 t21 76.5q0 47 -34 47z" />
<glyph unicode="&#xec;" horiz-adv-x="326" d="M357 584l-13 -14q-49 21 -91.5 47.5t-67.5 53t-24 49.5t21.5 32.5t48.5 9.5h10.5h10.5l8 -6q13 -32 40 -80t57 -92zM242 154q-5 -20 -8 -37t-3 -27q0 -23 17 -23t40.5 22t43.5 46l9 -8q-15 -31 -39 -62.5t-53.5 -53t-63.5 -21.5q-37 0 -56 22t-19 59q0 16 3.5 36.5 t8.5 46.5q10 45 22 95t22 95q4 20 7 37t3 27q0 22 -17 22t-40 -21.5t-43 -45.5l-10 8q16 31 39.5 62.5t53.5 53t63 21.5q37 0 56 -22t19 -60q0 -15 -3 -36t-9 -46q-10 -45 -22 -95.5t-21 -94.5z" />
<glyph unicode="&#xed;" horiz-adv-x="326" d="M314 759l10 4q5 0 10.5 -0.5t10.5 -1.5q59 -9 59 -39q0 -18 -21 -40t-56.5 -43.5t-79 -39.5t-87.5 -29l-10 16q34 28 65.5 60t57.5 61.5t41 51.5zM242 154q-5 -20 -8 -37t-3 -27q0 -23 17 -23t40.5 22t43.5 46l9 -8q-15 -31 -39 -62.5t-53.5 -53t-63.5 -21.5 q-37 0 -56 22t-19 59q0 16 3.5 36.5t8.5 46.5q10 45 22 95t22 95q4 20 7 37t3 27q0 22 -17 22t-40 -21.5t-43 -45.5l-10 8q16 31 39.5 62.5t53.5 53t63 21.5q37 0 56 -22t19 -60q0 -15 -3 -36t-9 -46q-10 -45 -22 -95.5t-21 -94.5z" />
<glyph unicode="&#xee;" horiz-adv-x="326" d="M362 585l-18 -10q-18 21 -38.5 45t-40.5 45q-27 -21 -59 -45.5t-60 -44.5l-10 13q18 27 38 57.5t37 58t27 47.5l11 6h71q11 -39 22 -84t20 -88zM242 154q-5 -20 -8 -37t-3 -27q0 -23 17 -23t40.5 22t43.5 46l9 -8q-15 -31 -39 -62.5t-53.5 -53t-63.5 -21.5q-37 0 -56 22 t-19 59q0 16 3.5 36.5t8.5 46.5q10 45 22 95t22 95q4 20 7 37t3 27q0 22 -17 22t-40 -21.5t-43 -45.5l-10 8q16 31 39.5 62.5t53.5 53t63 21.5q37 0 56 -22t19 -60q0 -15 -3 -36t-9 -46q-10 -45 -22 -95.5t-21 -94.5z" />
<glyph unicode="&#xef;" horiz-adv-x="326" d="M418 680q-1 -34 -20 -58t-49 -24q-22 0 -34.5 15.5t-12.5 40.5q0 34 20.5 57.5t49.5 23.5q22 0 34.5 -15t11.5 -40zM245 680q-1 -34 -20 -58t-49 -24q-22 0 -35 15.5t-12 40.5q0 34 20 57.5t50 23.5q22 0 34 -15t12 -40zM242 154q-5 -20 -8 -37t-3 -27q0 -23 17 -23 t40.5 22t43.5 46l9 -8q-15 -31 -39 -62.5t-53.5 -53t-63.5 -21.5q-37 0 -56 22t-19 59q0 16 3.5 36.5t8.5 46.5q10 45 22 95t22 95q4 20 7 37t3 27q0 22 -17 22t-40 -21.5t-43 -45.5l-10 8q16 31 39.5 62.5t53.5 53t63 21.5q37 0 56 -22t19 -60q0 -15 -3 -36t-9 -46 q-10 -45 -22 -95.5t-21 -94.5z" />
<glyph unicode="&#xf0;" horiz-adv-x="490" d="M251 -10q-75 0 -122 51t-47 138q0 68 20.5 127t56 104.5t80 71.5t93.5 26q24 0 44 -7q-12 55 -37 99l-176 -74l-11 41l164 69q-45 61 -114 96l12 25q107 -31 172 -91l132 56l11 -42l-111 -47q86 -103 86 -287q0 -75 -19.5 -139.5t-54.5 -113t-81 -76t-98 -27.5zM334 469 q-22 0 -41.5 -22t-35.5 -58.5t-28 -80t-18.5 -88.5t-6.5 -84q0 -49 13.5 -78t38.5 -29q22 0 41 23t35 60.5t28 82.5t18 90t6 83q0 47 -11.5 74t-38.5 27z" />
<glyph unicode="&#xf1;" horiz-adv-x="589" d="M305 655q-13 -8 -31 -24.5t-39 -38.5l-11 5q21 67 57.5 104.5t84.5 37.5q33 0 62.5 -14t57.5 -29t54 -18q14 8 31.5 24.5t39.5 38.5l11 -5q-21 -67 -58 -104.5t-84 -37.5q-33 0 -63 14.5t-58 29.5t-54 17zM95 16l29 138q11 50 21.5 96.5t20.5 89.5q5 24 8 41t3 26 q0 23 -18 23q-16 0 -39 -21.5t-44 -45.5l-9 8q15 30 38.5 62t52.5 53.5t62 21.5q35 0 53 -20t18 -53q0 -25 -12 -74t-24 -97q16 32 39.5 74t53 80.5t64 64t72.5 25.5q41 0 61.5 -25.5t20.5 -58.5q0 -30 -10 -77.5t-23.5 -99t-23.5 -93.5q-4 -20 -7.5 -37t-3.5 -27 q0 -23 18 -23q16 0 39.5 22t43.5 46l9 -8q-15 -31 -38.5 -62.5t-53.5 -53t-64 -21.5q-37 0 -56 22t-19 59q0 16 3.5 36.5t8.5 46.5q10 41 23 88t22.5 86.5t9.5 60.5q0 32 -25 32q-20 0 -45.5 -26.5t-50.5 -67t-45 -82t-30 -71.5l-4 -20l-33 -155l-54 -4q-12 0 -28.5 -1.5 t-23.5 -1.5q-9 0 -10.5 6.5t0.5 17.5z" />
<glyph unicode="&#xf2;" horiz-adv-x="489" d="M444 584l-13 -14q-49 21 -91 47.5t-67.5 53t-24.5 49.5t21.5 32.5t48.5 9.5h10.5h10.5l9 -6q12 -32 39 -80t57 -92zM500 320q0 -72 -21.5 -132.5t-58 -105t-82.5 -68.5t-95 -24q-75 0 -122 51t-47 138q0 68 21 127t57.5 104.5t83 71t96.5 25.5q80 0 124 -51t44 -136z M197 136q0 -49 13 -78t39 -29q21 0 40.5 23t35 61t27.5 83t18.5 91t6.5 84q0 45 -12 71.5t-39 26.5q-21 0 -40.5 -22t-35.5 -58t-28 -80t-18.5 -89t-6.5 -84z" />
<glyph unicode="&#xf3;" horiz-adv-x="489" d="M400 759l10 4q5 0 10.5 -0.5t10.5 -1.5q59 -9 59 -39q0 -18 -21 -40t-56.5 -43.5t-79 -39.5t-87.5 -29l-10 16q34 28 65.5 60t57.5 61.5t41 51.5zM500 320q0 -72 -21.5 -132.5t-58 -105t-82.5 -68.5t-95 -24q-75 0 -122 51t-47 138q0 68 21 127t57.5 104.5t83 71 t96.5 25.5q80 0 124 -51t44 -136zM197 136q0 -49 13 -78t39 -29q21 0 40.5 23t35 61t27.5 83t18.5 91t6.5 84q0 45 -12 71.5t-39 26.5q-21 0 -40.5 -22t-35.5 -58t-28 -80t-18.5 -89t-6.5 -84z" />
<glyph unicode="&#xf4;" horiz-adv-x="489" d="M496 585l-18 -10q-25 24 -54.5 50t-59.5 49q-32 -23 -72 -50t-77 -49l-10 13q23 27 48 57.5t46.5 58t34.5 47.5l11 6h71q22 -39 43 -84.5t37 -87.5zM500 320q0 -72 -21.5 -132.5t-58 -105t-82.5 -68.5t-95 -24q-75 0 -122 51t-47 138q0 68 21 127t57.5 104.5t83 71 t96.5 25.5q80 0 124 -51t44 -136zM197 136q0 -49 13 -78t39 -29q21 0 40.5 23t35 61t27.5 83t18.5 91t6.5 84q0 45 -12 71.5t-39 26.5q-21 0 -40.5 -22t-35.5 -58t-28 -80t-18.5 -89t-6.5 -84z" />
<glyph unicode="&#xf5;" horiz-adv-x="489" d="M243 655q-14 -8 -31.5 -24.5t-38.5 -38.5l-11 5q21 67 57.5 104.5t84.5 37.5q33 0 62.5 -14t57 -29t54.5 -18q14 8 31.5 24.5t39.5 38.5l11 -5q-21 -67 -58 -104.5t-84 -37.5q-33 0 -63 14.5t-58 29.5t-54 17zM500 320q0 -72 -21.5 -132.5t-58 -105t-82.5 -68.5t-95 -24 q-75 0 -122 51t-47 138q0 68 21 127t57.5 104.5t83 71t96.5 25.5q80 0 124 -51t44 -136zM197 136q0 -49 13 -78t39 -29q21 0 40.5 23t35 61t27.5 83t18.5 91t6.5 84q0 45 -12 71.5t-39 26.5q-21 0 -40.5 -22t-35.5 -58t-28 -80t-18.5 -89t-6.5 -84z" />
<glyph unicode="&#xf6;" horiz-adv-x="489" d="M538 678q0 -33 -22 -56.5t-52 -23.5q-26 0 -42 16.5t-16 41.5q0 31 22 55t54 24q24 0 40 -15.5t16 -41.5zM319 678q0 -33 -22 -56.5t-52 -23.5q-26 0 -42 16.5t-16 41.5q0 31 22 55t55 24q23 0 39 -15.5t16 -41.5zM500 320q0 -72 -21.5 -132.5t-58 -105t-82.5 -68.5 t-95 -24q-75 0 -122 51t-47 138q0 68 21 127t57.5 104.5t83 71t96.5 25.5q80 0 124 -51t44 -136zM197 136q0 -49 13 -78t39 -29q21 0 40.5 23t35 61t27.5 83t18.5 91t6.5 84q0 45 -12 71.5t-39 26.5q-21 0 -40.5 -22t-35.5 -58t-28 -80t-18.5 -89t-6.5 -84z" />
<glyph unicode="&#xf7;" d="M386 467q-22 0 -36 13t-14 37q0 32 23 54.5t53 22.5q21 0 35 -13t14 -35q0 -33 -22.5 -56t-52.5 -23zM564 311h-431l14 64q37 1 94 2t120.5 1.5t121.5 1t95 0.5l7 -8zM306 96q-21 0 -35 13t-14 36q0 32 22.5 55t52.5 23q22 0 35.5 -13t13.5 -36q0 -32 -22.5 -55 t-52.5 -23z" />
<glyph unicode="&#xf8;" horiz-adv-x="489" d="M500 320q0 -72 -21.5 -132.5t-58 -105t-82.5 -68.5t-95 -24q-88 0 -134 66l-56 -53l-27 32l62 59q-14 38 -14 85q0 68 21 127t57.5 104.5t83 71t96.5 25.5q43 0 76 -15t54 -43l49 46l28 -31l-56 -53q17 -39 17 -91zM326 469q-22 0 -42.5 -24t-37 -64t-28.5 -87t-17 -93 l176 166v4q0 45 -12 71.5t-39 26.5zM197 136q0 -49 13 -78t39 -29q22 0 42.5 25.5t36.5 66.5t27.5 89.5t17.5 95.5l-176 -167v-3z" />
<glyph unicode="&#xf9;" horiz-adv-x="595" d="M473 584l-13 -14q-50 21 -92 47.5t-67.5 53t-23.5 49.5q1 23 21.5 32.5t48.5 9.5h10.5h10.5l8 -6q12 -32 39 -80t58 -92zM170 344q4 20 7 37t3 27q0 22 -17 22t-40.5 -21.5t-43.5 -45.5l-9 8q16 31 39.5 62.5t53 53t63.5 21.5q37 0 56 -22t19 -60q0 -15 -3 -36t-9 -46 q-12 -47 -23.5 -92t-19.5 -81t-8 -54q0 -35 24 -35q19 0 43.5 26t50.5 67.5t48 91t37 96.5l29 138l54 4q12 1 28.5 2t23.5 1q10 0 11 -6.5t-1 -16.5l-29 -139l-42 -192q-4 -20 -7.5 -37t-3.5 -27q0 -23 18 -23q16 0 39.5 22t43.5 46l9 -8q-15 -31 -38.5 -62.5t-53.5 -53 t-64 -21.5q-37 0 -56 22t-19 59q0 16 3.5 36.5t9.5 46.5l13 61h-3q-17 -39 -39.5 -78.5t-50 -73t-57 -53.5t-60.5 -20q-40 0 -61.5 25.5t-21.5 68.5q0 29 9 72t22 92t23 96z" />
<glyph unicode="&#xfa;" horiz-adv-x="595" d="M462 759l10 4q5 0 10.5 -0.5t10.5 -1.5q60 -9 60 -39q0 -18 -21.5 -40t-56.5 -43.5t-78.5 -39.5t-88.5 -29l-9 16q33 28 64.5 60t57.5 61.5t41 51.5zM170 344q4 20 7 37t3 27q0 22 -17 22t-40.5 -21.5t-43.5 -45.5l-9 8q16 31 39.5 62.5t53 53t63.5 21.5q37 0 56 -22 t19 -60q0 -15 -3 -36t-9 -46q-12 -47 -23.5 -92t-19.5 -81t-8 -54q0 -35 24 -35q19 0 43.5 26t50.5 67.5t48 91t37 96.5l29 138l54 4q12 1 28.5 2t23.5 1q10 0 11 -6.5t-1 -16.5l-29 -139l-42 -192q-4 -20 -7.5 -37t-3.5 -27q0 -23 18 -23q16 0 39.5 22t43.5 46l9 -8 q-15 -31 -38.5 -62.5t-53.5 -53t-64 -21.5q-37 0 -56 22t-19 59q0 16 3.5 36.5t9.5 46.5l13 61h-3q-17 -39 -39.5 -78.5t-50 -73t-57 -53.5t-60.5 -20q-40 0 -61.5 25.5t-21.5 68.5q0 29 9 72t22 92t23 96z" />
<glyph unicode="&#xfb;" horiz-adv-x="595" d="M543 583l-17 -11q-25 24 -54.5 50t-60.5 49q-32 -22 -72 -49t-77 -50l-10 14q24 27 48.5 57.5t46 58t35.5 47.5l10 6h72q21 -39 42 -84.5t37 -87.5zM170 344q4 20 7 37t3 27q0 22 -17 22t-40.5 -21.5t-43.5 -45.5l-9 8q16 31 39.5 62.5t53 53t63.5 21.5q37 0 56 -22 t19 -60q0 -15 -3 -36t-9 -46q-12 -47 -23.5 -92t-19.5 -81t-8 -54q0 -35 24 -35q19 0 43.5 26t50.5 67.5t48 91t37 96.5l29 138l54 4q12 1 28.5 2t23.5 1q10 0 11 -6.5t-1 -16.5l-29 -139l-42 -192q-4 -20 -7.5 -37t-3.5 -27q0 -23 18 -23q16 0 39.5 22t43.5 46l9 -8 q-15 -31 -38.5 -62.5t-53.5 -53t-64 -21.5q-37 0 -56 22t-19 59q0 16 3.5 36.5t9.5 46.5l13 61h-3q-17 -39 -39.5 -78.5t-50 -73t-57 -53.5t-60.5 -20q-40 0 -61.5 25.5t-21.5 68.5q0 29 9 72t22 92t23 96z" />
<glyph unicode="&#xfc;" horiz-adv-x="595" d="M583 678q0 -33 -21.5 -56.5t-52.5 -23.5q-26 0 -42 16.5t-16 41.5q0 31 22 55t55 24q23 0 39 -15.5t16 -41.5zM364 678q0 -33 -21.5 -56.5t-52.5 -23.5q-26 0 -42 16.5t-16 41.5q0 31 22 55t55 24q23 0 39 -15.5t16 -41.5zM170 344q4 20 7 37t3 27q0 22 -17 22 t-40.5 -21.5t-43.5 -45.5l-9 8q16 31 39.5 62.5t53 53t63.5 21.5q37 0 56 -22t19 -60q0 -15 -3 -36t-9 -46q-12 -47 -23.5 -92t-19.5 -81t-8 -54q0 -35 24 -35q19 0 43.5 26t50.5 67.5t48 91t37 96.5l29 138l54 4q12 1 28.5 2t23.5 1q10 0 11 -6.5t-1 -16.5l-29 -139 l-42 -192q-4 -20 -7.5 -37t-3.5 -27q0 -23 18 -23q16 0 39.5 22t43.5 46l9 -8q-15 -31 -38.5 -62.5t-53.5 -53t-64 -21.5q-37 0 -56 22t-19 59q0 16 3.5 36.5t9.5 46.5l13 61h-3q-17 -39 -39.5 -78.5t-50 -73t-57 -53.5t-60.5 -20q-40 0 -61.5 25.5t-21.5 68.5q0 29 9 72 t22 92t23 96z" />
<glyph unicode="&#xfd;" horiz-adv-x="493" d="M394 759l10 4q5 0 10.5 -0.5t10.5 -1.5q59 -9 59 -39q0 -18 -21 -40t-56.5 -43.5t-79 -39.5t-87.5 -29l-10 16q34 28 65.5 60t57.5 61.5t41 51.5zM193 508q49 0 73.5 -39t24.5 -123q0 -71 -15.5 -157t-43.5 -168q61 63 99.5 132.5t56.5 139t18 130.5q0 23 -2.5 40.5 t-5.5 30.5q7 6 20.5 10t28.5 4q75 0 75 -91q0 -74 -36 -154.5t-106 -157.5t-171 -142q-27 -62 -61 -112t-75.5 -79.5t-88.5 -29.5q-43 0 -69 18.5t-26 46.5q0 15 8 26.5t21 16.5q13 -17 27 -28t34 -11q31 0 56.5 27.5t46.5 73.5t37 100q17 56 28.5 114.5t17.5 109.5t6 85 q0 109 -44 109q-17 0 -37 -21t-39 -47l-10 9q15 32 38.5 63.5t52.5 52.5t61 21z" />
<glyph unicode="&#xfe;" horiz-adv-x="531" d="M26 -235l30 139l156 722l13 62l-72 24v12q43 12 98.5 20.5t99.5 12.5l8 -9l-28 -122l-68 -316q23 45 53 90.5t66.5 76t75.5 31.5q47 0 70 -38.5t23 -98.5q0 -74 -20.5 -142.5t-58.5 -122t-92 -85t-120 -31.5q-33 0 -66 4l-19 -90l-33 -155l-54 -4q-11 -1 -28 -2t-24 -1 q-9 0 -10.5 6.5t0.5 16.5zM395 415q-15 0 -33.5 -17.5t-38 -45.5t-37 -61t-31.5 -64.5t-22 -54.5l-26 -121q13 -8 29.5 -13.5t37.5 -5.5q31 0 59 30.5t49.5 78.5t33.5 104t12 108q0 29 -8 45.5t-25 16.5z" />
<glyph unicode="&#xff;" horiz-adv-x="493" d="M528 678q0 -33 -22 -56.5t-52 -23.5q-26 0 -42 16.5t-16 41.5q0 31 22 55t54 24q24 0 40 -15.5t16 -41.5zM309 678q0 -33 -22 -56.5t-52 -23.5q-26 0 -42 16.5t-16 41.5q0 31 22 55t55 24q23 0 39 -15.5t16 -41.5zM193 508q49 0 73.5 -39t24.5 -123q0 -71 -15.5 -157 t-43.5 -168q61 63 99.5 132.5t56.5 139t18 130.5q0 23 -2.5 40.5t-5.5 30.5q7 6 20.5 10t28.5 4q75 0 75 -91q0 -74 -36 -154.5t-106 -157.5t-171 -142q-27 -62 -61 -112t-75.5 -79.5t-88.5 -29.5q-43 0 -69 18.5t-26 46.5q0 15 8 26.5t21 16.5q13 -17 27 -28t34 -11 q31 0 56.5 27.5t46.5 73.5t37 100q17 56 28.5 114.5t17.5 109.5t6 85q0 109 -44 109q-17 0 -37 -21t-39 -47l-10 9q15 32 38.5 63.5t52.5 52.5t61 21z" />
<glyph unicode="&#x100;" horiz-adv-x="691" d="M352 818l13 62h303l-13 -62h-303zM447 689h75l75 -605q3 -23 10.5 -33t23.5 -16l42 -15l-2 -20h-270l-4 20l81 27l-21 176l-225 -4l-94 -172l78 -27l-4 -20h-206l-3 20l57 20q17 6 27.5 15t20.5 28zM255 262l198 -1l-36 297z" />
<glyph unicode="&#x101;" horiz-adv-x="553" d="M251 630l14 61h289l-13 -61h-290zM473 154q-4 -20 -7.5 -37t-3.5 -27q0 -23 17 -23t40.5 22t43.5 46l9 -8q-15 -31 -39 -62.5t-53.5 -53t-63.5 -21.5q-37 0 -56 22t-19 59q0 16 3.5 36.5t8.5 46.5l16 69h-2q-17 -39 -40 -79.5t-50 -75.5t-56.5 -56.5t-59.5 -21.5 q-43 0 -70 37t-27 101q0 73 23 141t65.5 122t100 85.5t126.5 31.5q47 0 91.5 -10t76.5 -26l-15 -45zM187 147q0 -29 7.5 -47t23.5 -18q17 0 37 20t41 52t40 69.5t34.5 73.5t23.5 64l21 85q-23 21 -59 21q-31 0 -61 -29t-54.5 -76.5t-39 -103.5t-14.5 -111z" />
<glyph unicode="&#x102;" horiz-adv-x="691" d="M647 917l5 2l17 -6q-24 -63 -67 -97t-101 -34t-81.5 39t-16.5 95l20 4q4 -29 29 -45t65 -16q89 0 130 58zM447 689h75l75 -605q3 -23 10.5 -33t23.5 -16l42 -15l-2 -20h-270l-4 20l81 27l-21 176l-225 -4l-94 -172l78 -27l-4 -20h-206l-3 20l57 20q17 6 27.5 15t20.5 28z M255 262l198 -1l-36 297z" />
<glyph unicode="&#x103;" horiz-adv-x="553" d="M537 743l5 2l17 -4q-23 -70 -68.5 -111t-102.5 -41q-55 0 -79 44.5t-16 108.5l20 3q4 -35 28.5 -55.5t65.5 -20.5q42 0 76.5 19t53.5 55zM473 154q-4 -20 -7.5 -37t-3.5 -27q0 -23 17 -23t40.5 22t43.5 46l9 -8q-15 -31 -39 -62.5t-53.5 -53t-63.5 -21.5q-37 0 -56 22 t-19 59q0 16 3.5 36.5t8.5 46.5l16 69h-2q-17 -39 -40 -79.5t-50 -75.5t-56.5 -56.5t-59.5 -21.5q-43 0 -70 37t-27 101q0 73 23 141t65.5 122t100 85.5t126.5 31.5q47 0 91.5 -10t76.5 -26l-15 -45zM187 147q0 -29 7.5 -47t23.5 -18q17 0 37 20t41 52t40 69.5t34.5 73.5 t23.5 64l21 85q-23 21 -59 21q-31 0 -61 -29t-54.5 -76.5t-39 -103.5t-14.5 -111z" />
<glyph unicode="&#x104;" horiz-adv-x="691" d="M670 0q-49 -23 -81 -59.5t-32 -70.5q0 -32 24 -32q16 0 34.5 16t34.5 37l9 -8q-20 -52 -53.5 -87t-80.5 -35q-36 0 -54 20t-18 55q0 33 20 64.5t54.5 57.5t79.5 42h-206l-4 20l81 27l-21 176l-225 -4l-94 -172l78 -27l-4 -20h-206l-3 20l57 20q17 6 27.5 15t20.5 28 l339 606h75l75 -605q3 -23 10.5 -33t23.5 -16l42 -15l-2 -20h-1zM255 262l198 -1l-36 297z" />
<glyph unicode="&#x105;" horiz-adv-x="553" d="M473 154q-4 -20 -7.5 -37t-3.5 -27q0 -23 17 -23t40.5 22t43.5 46l9 -8q-9 -17 -20 -35t-24 -34l3 2q-40 -51 -71 -86.5t-49 -61.5t-18 -48q0 -26 24 -26q16 0 32.5 17t32.5 36l9 -8q-19 -50 -52.5 -86t-79.5 -36q-30 0 -49.5 18t-19.5 50t19.5 59.5t51 52.5t67.5 50 q-6 -1 -12 -1q-37 0 -56 22t-19 59q0 16 3.5 36.5t8.5 46.5l16 69h-2q-17 -39 -40 -79.5t-50 -75.5t-56.5 -56.5t-59.5 -21.5q-43 0 -70 37t-27 101q0 73 23 141t65.5 122t100 85.5t126.5 31.5q47 0 91.5 -10t76.5 -26l-15 -45zM187 147q0 -29 7.5 -47t23.5 -18q17 0 37 20 t41 52t40 69.5t34.5 73.5t23.5 64l21 85q-23 21 -59 21q-31 0 -61 -29t-54.5 -76.5t-39 -103.5t-14.5 -111z" />
<glyph unicode="&#x106;" horiz-adv-x="628" d="M616 924l11 2q24 -11 37.5 -23.5t13.5 -29.5q0 -25 -38 -45.5t-101.5 -33.5t-139.5 -17l-6 18q67 30 128 65.5t95 63.5zM389 -10q-135 0 -210 74t-75 207q0 88 32 165t87.5 136t129 92.5t156.5 33.5q52 0 94 -8t70 -21q-1 -28 -8 -63.5t-17 -70.5t-20 -60h-24 q-15 59 -24.5 97t-19.5 69q-10 3 -21 5t-28 2q-57 0 -107.5 -30t-89.5 -82.5t-61 -120.5t-22 -145q0 -71 22 -123t60.5 -80t88.5 -28q18 0 30.5 2.5l22.5 4.5q26 32 55.5 71t66.5 90h24q-4 -45 -16 -97t-27 -95q-38 -12 -80 -18.5t-89 -6.5z" />
<glyph unicode="&#x107;" horiz-adv-x="426" d="M419 759l10 4q5 0 10.5 -0.5t10.5 -1.5q59 -9 59 -39q0 -18 -21 -40t-56.5 -43.5t-79 -39.5t-87.5 -29l-10 16q33 28 65 60t58 61.5t41 51.5zM344 508q57 0 92 -31t35 -79q0 -42 -23.5 -70t-56.5 -28q-13 0 -24 4t-20 9q7 19 14.5 47.5t7.5 52.5q0 53 -40 53 q-25 0 -49 -24t-43.5 -64t-31 -88t-11.5 -96q0 -62 24.5 -93t66.5 -31q33 0 70.5 21.5t71.5 56.5l9 -7q-36 -67 -90.5 -109t-121.5 -42q-73 0 -113 48.5t-40 130.5q0 67 22.5 127.5t61.5 108.5t87.5 75.5t101.5 27.5z" />
<glyph unicode="&#x108;" horiz-adv-x="628" d="M676 784l-17 -10q-28 19 -60.5 39.5t-66.5 38.5q-35 -17 -78.5 -38.5t-83.5 -39.5l-10 13q39 35 79.5 73.5t63.5 63.5l11 6h70q25 -34 49.5 -72.5t42.5 -73.5zM389 -10q-135 0 -210 74t-75 207q0 88 32 165t87.5 136t129 92.5t156.5 33.5q52 0 94 -8t70 -21 q-1 -28 -8 -63.5t-17 -70.5t-20 -60h-24q-15 59 -24.5 97t-19.5 69q-10 3 -21 5t-28 2q-57 0 -107.5 -30t-89.5 -82.5t-61 -120.5t-22 -145q0 -71 22 -123t60.5 -80t88.5 -28q18 0 30.5 2.5l22.5 4.5q26 32 55.5 71t66.5 90h24q-4 -45 -16 -97t-27 -95q-38 -12 -80 -18.5 t-89 -6.5z" />
<glyph unicode="&#x109;" horiz-adv-x="426" d="M496 585l-17 -10q-25 24 -54.5 50t-60.5 49q-32 -23 -72 -50t-77 -49l-10 13q24 27 48.5 57.5t46 58t35.5 47.5l10 6h72q21 -39 42 -84.5t37 -87.5zM344 508q57 0 92 -31t35 -79q0 -42 -23.5 -70t-56.5 -28q-13 0 -24 4t-20 9q7 19 14.5 47.5t7.5 52.5q0 53 -40 53 q-25 0 -49 -24t-43.5 -64t-31 -88t-11.5 -96q0 -62 24.5 -93t66.5 -31q33 0 70.5 21.5t71.5 56.5l9 -7q-36 -67 -90.5 -109t-121.5 -42q-73 0 -113 48.5t-40 130.5q0 67 22.5 127.5t61.5 108.5t87.5 75.5t101.5 27.5z" />
<glyph unicode="&#x10a;" horiz-adv-x="628" d="M607 862q0 -35 -26 -60t-63 -25q-29 0 -46 15.5t-17 40.5q0 34 26 58.5t62 24.5q29 0 46.5 -15t17.5 -39zM389 -10q-135 0 -210 74t-75 207q0 88 32 165t87.5 136t129 92.5t156.5 33.5q52 0 94 -8t70 -21q-1 -28 -8 -63.5t-17 -70.5t-20 -60h-24q-15 59 -24.5 97 t-19.5 69q-10 3 -21 5t-28 2q-57 0 -107.5 -30t-89.5 -82.5t-61 -120.5t-22 -145q0 -71 22 -123t60.5 -80t88.5 -28q18 0 30.5 2.5l22.5 4.5q26 32 55.5 71t66.5 90h24q-4 -45 -16 -97t-27 -95q-38 -12 -80 -18.5t-89 -6.5z" />
<glyph unicode="&#x10b;" horiz-adv-x="426" d="M356 590q-24 0 -40.5 15.5t-16.5 42.5q0 37 26.5 63t61.5 26q24 0 40.5 -15t16.5 -41q0 -38 -26.5 -64.5t-61.5 -26.5zM344 508q57 0 92 -31t35 -79q0 -42 -23.5 -70t-56.5 -28q-13 0 -24 4t-20 9q7 19 14.5 47.5t7.5 52.5q0 53 -40 53q-25 0 -49 -24t-43.5 -64t-31 -88 t-11.5 -96q0 -62 24.5 -93t66.5 -31q33 0 70.5 21.5t71.5 56.5l9 -7q-36 -67 -90.5 -109t-121.5 -42q-73 0 -113 48.5t-40 130.5q0 67 22.5 127.5t61.5 108.5t87.5 75.5t101.5 27.5z" />
<glyph unicode="&#x10c;" horiz-adv-x="628" d="M559 778l-10 -6h-71q-22 34 -43.5 73t-38.5 74l18 11q25 -19 54 -40t58 -39q38 18 85 39.5t90 39.5l10 -13q-41 -36 -84 -74.5t-68 -64.5zM389 -10q-135 0 -210 74t-75 207q0 88 32 165t87.5 136t129 92.5t156.5 33.5q52 0 94 -8t70 -21q-1 -28 -8 -63.5t-17 -70.5 t-20 -60h-24q-15 59 -24.5 97t-19.5 69q-10 3 -21 5t-28 2q-57 0 -107.5 -30t-89.5 -82.5t-61 -120.5t-22 -145q0 -71 22 -123t60.5 -80t88.5 -28q18 0 30.5 2.5l22.5 4.5q26 32 55.5 71t66.5 90h24q-4 -45 -16 -97t-27 -95q-38 -12 -80 -18.5t-89 -6.5z" />
<glyph unicode="&#x10d;" horiz-adv-x="426" d="M399 581l-10 -6h-72q-19 39 -37.5 84.5t-33.5 87.5l17 10q23 -24 50.5 -50t55.5 -49q35 23 79 50t84 49l11 -13q-27 -27 -54 -57.5t-50.5 -58t-39.5 -47.5zM344 508q57 0 92 -31t35 -79q0 -42 -23.5 -70t-56.5 -28q-13 0 -24 4t-20 9q7 19 14.5 47.5t7.5 52.5 q0 53 -40 53q-25 0 -49 -24t-43.5 -64t-31 -88t-11.5 -96q0 -62 24.5 -93t66.5 -31q33 0 70.5 21.5t71.5 56.5l9 -7q-36 -67 -90.5 -109t-121.5 -42q-73 0 -113 48.5t-40 130.5q0 67 22.5 127.5t61.5 108.5t87.5 75.5t101.5 27.5z" />
<glyph unicode="&#x10e;" horiz-adv-x="709" d="M555 778l-10 -6h-71q-22 34 -43.5 73t-37.5 74l17 11q25 -19 54 -40t58 -39q38 18 85 39.5t90 39.5l11 -13q-42 -36 -84.5 -74.5t-68.5 -64.5zM366 581l-101 -474l-14 -65h55q68 0 123 34t94.5 91.5t60.5 130.5t21 150q0 93 -42.5 145.5t-131.5 52.5h-51zM307 0h-258 l-2 20l48 18q18 7 28 16t14 28l5 25l102 474h-1l13 59l-69 28l4 20h260q84 0 147 -30.5t98.5 -88.5t35.5 -140q0 -81 -27.5 -158t-81.5 -138t-133 -97t-183 -36z" />
<glyph unicode="&#x10f;" horiz-adv-x="553" d="M473 154q-4 -20 -7.5 -37t-3.5 -27q0 -23 17 -23t40.5 22t43.5 46l9 -8q-15 -31 -39 -62.5t-53.5 -53t-63.5 -21.5q-37 0 -56 22t-19 59q0 16 3.5 36.5t8.5 46.5l19 80q-17 -39 -40 -81.5t-51 -79.5t-58.5 -60t-61.5 -23q-43 0 -70 37t-27 101q0 73 23 141t65.5 122 t100 85.5t126.5 31.5q24 0 50 -3l29 121l13 61l-92 25v12q30 8 69.5 14.5t79 11.5t69.5 7l8 -9l-28 -122zM766 701q0 -29 -18 -60.5t-48 -59t-68 -43.5l-7 8q44 49 61 96q-17 3 -27.5 15t-10.5 30q0 28 20 47t49 19q22 0 35.5 -14t13.5 -38zM187 147q0 -29 7.5 -47t23.5 -18 q17 0 36.5 19t40 50t39 67t34 72t24.5 64l23 92q-23 21 -59 21q-31 0 -61 -29t-54.5 -76.5t-39 -103.5t-14.5 -111z" />
<glyph unicode="&#x110;" horiz-adv-x="709" d="M468 330h-155l-48 -223l-14 -65h55q68 0 123 34t94.5 91.5t60.5 130.5t21 150q0 93 -42.5 145.5t-131.5 52.5h-51l-14 -65l-44 -210h155zM307 0h-258l-2 20l48 18q18 7 28 16t14 28l5 25l48 223h-101l8 41h102l45 210h-1l13 59l-69 28l4 20h260q84 0 147 -30.5 t98.5 -88.5t35.5 -140q0 -81 -27.5 -158t-81.5 -138t-133 -97t-183 -36z" />
<glyph unicode="&#x111;" horiz-adv-x="553" d="M473 154q-4 -20 -7.5 -37t-3.5 -27q0 -23 17 -23t40.5 22t43.5 46l9 -8q-15 -31 -39 -62.5t-53.5 -53t-63.5 -21.5q-37 0 -56 22t-19 59q0 16 3.5 36.5t8.5 46.5l19 80q-17 -39 -40 -81.5t-51 -79.5t-58.5 -60t-61.5 -23q-43 0 -70 37t-27 101q0 73 23 141t65.5 122 t100 85.5t126.5 31.5q24 0 50 -3l19 78h-156l9 41h157v2l13 61l-92 25v12q30 8 69.5 14.5t79 11.5t69.5 7l8 -9l-28 -122v-2h113l-9 -41h-113zM187 147q0 -29 7.5 -47t23.5 -18q17 0 36.5 19t40 50t39 67t34 72t24.5 64l23 92q-23 21 -59 21q-31 0 -61 -29t-54.5 -76.5 t-39 -103.5t-14.5 -111z" />
<glyph unicode="&#x112;" horiz-adv-x="605" d="M320 818l14 61h302l-13 -61h-303zM366 581l-46 -217l195 7l-14 -56l-190 8l-46 -216l-14 -66h120q24 0 46 1t39 4q11 15 23.5 35t31 50.5t47.5 75.5h24q-1 -47 -12.5 -105t-29.5 -102h-491l-2 20l48 18q18 7 28 16t14 28l5 25l101 474l12 59l-68 28l4 20h468 q-1 -48 -14 -103t-32 -105h-24q-14 68 -21 103t-13 59q-12 2 -35 3t-48 1h-92z" />
<glyph unicode="&#x113;" horiz-adv-x="433" d="M208 630l14 61h290l-14 -61h-290zM434 141q-36 -68 -90.5 -109.5t-121.5 -41.5q-71 0 -110.5 49.5t-39.5 133.5q0 65 22.5 125t60.5 107t86.5 75t101.5 28q54 0 88.5 -29t34.5 -78q0 -50 -33.5 -90t-94 -63t-141.5 -22v9q-2 -23 -2 -46q0 -57 24 -88t65 -31 q32 0 69.5 21.5t71.5 56.5zM329 466q-28 0 -54.5 -29t-46 -76t-28.5 -102q47 3 84 25.5t58 58t21 76.5q0 47 -34 47z" />
<glyph unicode="&#x114;" horiz-adv-x="605" d="M597 917l6 2l16 -6q-23 -63 -66.5 -97.5t-101.5 -34.5t-81.5 39.5t-15.5 95.5l20 3q4 -28 28.5 -44.5t65.5 -16.5q89 0 129 59zM366 581l-46 -217l195 7l-14 -56l-190 8l-46 -216l-14 -66h120q24 0 46 1t39 4q11 15 23.5 35t31 50.5t47.5 75.5h24q-1 -47 -12.5 -105 t-29.5 -102h-491l-2 20l48 18q18 7 28 16t14 28l5 25l101 474l12 59l-68 28l4 20h468q-1 -48 -14 -103t-32 -105h-24q-14 68 -21 103t-13 59q-12 2 -35 3t-48 1h-92z" />
<glyph unicode="&#x115;" horiz-adv-x="433" d="M499 743l5 2l17 -4q-22 -70 -68 -111t-102 -41t-79.5 44.5t-16.5 108.5l21 3q4 -35 28.5 -55.5t64.5 -20.5q43 0 77 19t53 55zM434 141q-36 -68 -90.5 -109.5t-121.5 -41.5q-71 0 -110.5 49.5t-39.5 133.5q0 65 22.5 125t60.5 107t86.5 75t101.5 28q54 0 88.5 -29 t34.5 -78q0 -50 -33.5 -90t-94 -63t-141.5 -22v9q-2 -23 -2 -46q0 -57 24 -88t65 -31q32 0 69.5 21.5t71.5 56.5zM329 466q-28 0 -54.5 -29t-46 -76t-28.5 -102q47 3 84 25.5t58 58t21 76.5q0 47 -34 47z" />
<glyph unicode="&#x116;" horiz-adv-x="605" d="M554 861q0 -35 -26.5 -59.5t-62.5 -24.5q-29 0 -46.5 15.5t-17.5 40.5q1 34 27 58.5t62 24.5q29 0 46.5 -15t17.5 -40zM366 581l-46 -217l195 7l-14 -56l-190 8l-46 -216l-14 -66h120q24 0 46 1t39 4q11 15 23.5 35t31 50.5t47.5 75.5h24q-1 -47 -12.5 -105t-29.5 -102 h-491l-2 20l48 18q18 7 28 16t14 28l5 25l101 474l12 59l-68 28l4 20h468q-1 -48 -14 -103t-32 -105h-24q-14 68 -21 103t-13 59q-12 2 -35 3t-48 1h-92z" />
<glyph unicode="&#x117;" horiz-adv-x="433" d="M345 590q-24 0 -40.5 15.5t-16.5 42.5q0 37 26.5 63t61.5 26q24 0 40.5 -15t16.5 -41q0 -38 -26.5 -64.5t-61.5 -26.5zM434 141q-36 -68 -90.5 -109.5t-121.5 -41.5q-71 0 -110.5 49.5t-39.5 133.5q0 65 22.5 125t60.5 107t86.5 75t101.5 28q54 0 88.5 -29t34.5 -78 q0 -50 -33.5 -90t-94 -63t-141.5 -22v9q-2 -23 -2 -46q0 -57 24 -88t65 -31q32 0 69.5 21.5t71.5 56.5zM329 466q-28 0 -54.5 -29t-46 -76t-28.5 -102q47 3 84 25.5t58 58t21 76.5q0 47 -34 47z" />
<glyph unicode="&#x118;" horiz-adv-x="605" d="M537 0q-49 -23 -81 -59.5t-32 -70.5q0 -32 24 -32q16 0 34.5 16t34.5 37l9 -8q-19 -52 -53 -87t-81 -35q-36 0 -53.5 20t-17.5 55q0 33 19.5 64.5t54 57.5t79.5 42h-425l-2 20l48 18q18 7 28 16t14 28l5 25l101 474l12 59l-68 28l4 20h468q-1 -48 -14 -103t-32 -105h-24 q-14 68 -21 103t-13 59q-12 2 -35 3t-48 1h-92l-14 -65l-46 -217l195 7l-14 -56l-190 8l-46 -216l-14 -66h120q24 0 46 1t39 4q11 15 23.5 35t31 50.5t47.5 75.5h24q-1 -47 -12.5 -105t-29.5 -102h-3z" />
<glyph unicode="&#x119;" horiz-adv-x="433" d="M434 141q-26 -49 -60 -83q-45 -50 -80 -83.5t-55 -58.5t-20 -50q0 -28 24 -28q15 0 32 16.5t33 36.5l9 -8q-19 -52 -52.5 -87t-79.5 -35q-31 0 -50 19t-19 52q0 34 23.5 62.5t59.5 53t75 49.5q-25 -7 -52 -7q-71 0 -110.5 49.5t-39.5 133.5q0 65 22.5 125t60.5 107 t86.5 75t101.5 28q54 0 88.5 -29t34.5 -78q0 -50 -33.5 -90t-94 -63t-141.5 -22v9q-2 -23 -2 -46q0 -57 24 -88t65 -31q32 0 69.5 21.5t71.5 56.5zM329 466q-28 0 -54.5 -29t-46 -76t-28.5 -102q47 3 84 25.5t58 58t21 76.5q0 47 -34 47z" />
<glyph unicode="&#x11a;" horiz-adv-x="605" d="M507 777l-10 -6h-72q-22 34 -43 73.5t-38 74.5l17 10q25 -19 54 -39.5t59 -39.5q37 18 84 40t90 39l11 -13q-42 -35 -84.5 -74t-67.5 -65zM366 581l-46 -217l195 7l-14 -56l-190 8l-46 -216l-14 -66h120q24 0 46 1t39 4q11 15 23.5 35t31 50.5t47.5 75.5h24 q-1 -47 -12.5 -105t-29.5 -102h-491l-2 20l48 18q18 7 28 16t14 28l5 25l101 474l12 59l-68 28l4 20h468q-1 -48 -14 -103t-32 -105h-24q-14 68 -21 103t-13 59q-12 2 -35 3t-48 1h-92z" />
<glyph unicode="&#x11b;" horiz-adv-x="433" d="M396 581l-10 -6h-72q-19 39 -37.5 84.5t-33.5 87.5l17 10q23 -24 50.5 -50t55.5 -49q35 23 79 50t84 49l10 -13q-26 -27 -53 -57.5t-50.5 -58t-39.5 -47.5zM434 141q-36 -68 -90.5 -109.5t-121.5 -41.5q-71 0 -110.5 49.5t-39.5 133.5q0 65 22.5 125t60.5 107t86.5 75 t101.5 28q54 0 88.5 -29t34.5 -78q0 -50 -33.5 -90t-94 -63t-141.5 -22v9q-2 -23 -2 -46q0 -57 24 -88t65 -31q32 0 69.5 21.5t71.5 56.5zM329 466q-28 0 -54.5 -29t-46 -76t-28.5 -102q47 3 84 25.5t58 58t21 76.5q0 47 -34 47z" />
<glyph unicode="&#x11c;" horiz-adv-x="683" d="M699 784l-17 -10q-28 19 -61 39.5t-66 38.5q-35 -17 -79 -38.5t-83 -39.5l-10 13q39 35 79.5 73.5t63.5 63.5l10 6h70q25 -34 50 -72.5t43 -73.5zM407 39q42 0 76 10l35 164l13 59l-69 28l4 20h263l2 -20l-49 -15q-18 -6 -27.5 -16.5t-13.5 -30.5l-6 -25v0l-41 -192 q-40 -15 -90 -23t-109 -8q-136 0 -214 73.5t-78 206.5q0 90 34 167.5t92.5 136t134.5 91.5t160 33q55 0 99.5 -8t79.5 -21q-1 -29 -9.5 -64.5t-20 -70.5t-21.5 -59h-23q-15 58 -25 96.5t-20 69.5q-25 7 -61 7q-55 0 -107.5 -28.5t-94 -79.5t-66.5 -120.5t-25 -151.5 q0 -66 22 -118t61.5 -81.5t93.5 -29.5z" />
<glyph unicode="&#x11d;" horiz-adv-x="452" d="M470 584l-17 -11q-25 24 -54.5 50t-60.5 49q-32 -22 -72 -49t-77 -50l-10 14q24 27 48.5 57.5t46 58t35.5 47.5l10 6h72q21 -39 42 -84.5t37 -87.5zM303 508q74 0 133 1.5t96 11.5q8 -12 8 -32q0 -17 -10 -31t-34 -14q-19 0 -50 9.5t-64 19.5q32 -18 49 -47t17 -68 q0 -57 -21.5 -97.5t-53.5 -69t-64 -48.5t-54 -35.5t-22 -30.5q0 -14 16.5 -23.5t41.5 -22.5q34 -17 61.5 -33.5t44 -38.5t16.5 -54q0 -42 -30.5 -79.5t-85.5 -60.5t-130 -23q-96 0 -150 33t-54 80q0 37 31.5 65.5t75.5 48.5l12 -10q-10 -11 -16.5 -24t-6.5 -28 q0 -54 38 -90.5t97 -36.5q47 0 79.5 23t32.5 60q0 27 -26.5 45.5t-67.5 41.5q-35 20 -62.5 39.5t-27.5 49.5q0 26 28 49.5t84 53.5q-68 2 -110 41.5t-42 103.5q0 60 29 110t79 80.5t113 30.5zM194 287q0 -49 14 -76.5t40 -27.5q19 0 35 19t28 50t18.5 68t6.5 73 q0 37 -12.5 57t-35.5 20q-28 0 -49 -28.5t-33 -71t-12 -83.5z" />
<glyph unicode="&#x11e;" horiz-adv-x="683" d="M678 917l5 2l17 -6q-23 -63 -66.5 -97t-101.5 -34t-81.5 39t-15.5 95l20 4q3 -29 28 -45t65 -16q90 0 130 58zM407 39q42 0 76 10l35 164l13 59l-69 28l4 20h263l2 -20l-49 -15q-18 -6 -27.5 -16.5t-13.5 -30.5l-6 -25v0l-41 -192q-40 -15 -90 -23t-109 -8 q-136 0 -214 73.5t-78 206.5q0 90 34 167.5t92.5 136t134.5 91.5t160 33q55 0 99.5 -8t79.5 -21q-1 -29 -9.5 -64.5t-20 -70.5t-21.5 -59h-23q-15 58 -25 96.5t-20 69.5q-25 7 -61 7q-55 0 -107.5 -28.5t-94 -79.5t-66.5 -120.5t-25 -151.5q0 -66 22 -118t61.5 -81.5 t93.5 -29.5z" />
<glyph unicode="&#x11f;" horiz-adv-x="452" d="M472 741l5 2l17 -3q-23 -71 -68.5 -111.5t-102.5 -40.5q-55 0 -78.5 44.5t-16.5 107.5l20 4q4 -35 28.5 -55.5t65.5 -20.5q42 0 76.5 19t53.5 54zM303 508q74 0 133 1.5t96 11.5q8 -12 8 -32q0 -17 -10 -31t-34 -14q-19 0 -50 9.5t-64 19.5q32 -18 49 -47t17 -68 q0 -57 -21.5 -97.5t-53.5 -69t-64 -48.5t-54 -35.5t-22 -30.5q0 -14 16.5 -23.5t41.5 -22.5q34 -17 61.5 -33.5t44 -38.5t16.5 -54q0 -42 -30.5 -79.5t-85.5 -60.5t-130 -23q-96 0 -150 33t-54 80q0 37 31.5 65.5t75.5 48.5l12 -10q-10 -11 -16.5 -24t-6.5 -28 q0 -54 38 -90.5t97 -36.5q47 0 79.5 23t32.5 60q0 27 -26.5 45.5t-67.5 41.5q-35 20 -62.5 39.5t-27.5 49.5q0 26 28 49.5t84 53.5q-68 2 -110 41.5t-42 103.5q0 60 29 110t79 80.5t113 30.5zM194 287q0 -49 14 -76.5t40 -27.5q19 0 35 19t28 50t18.5 68t6.5 73 q0 37 -12.5 57t-35.5 20q-28 0 -49 -28.5t-33 -71t-12 -83.5z" />
<glyph unicode="&#x120;" horiz-adv-x="683" d="M624 862q0 -35 -26 -60t-63 -25q-28 0 -45.5 15.5t-17.5 40.5q1 34 26.5 58.5t62.5 24.5q29 0 46 -15t17 -39zM407 39q42 0 76 10l35 164l13 59l-69 28l4 20h263l2 -20l-49 -15q-18 -6 -27.5 -16.5t-13.5 -30.5l-6 -25v0l-41 -192q-40 -15 -90 -23t-109 -8 q-136 0 -214 73.5t-78 206.5q0 90 34 167.5t92.5 136t134.5 91.5t160 33q55 0 99.5 -8t79.5 -21q-1 -29 -9.5 -64.5t-20 -70.5t-21.5 -59h-23q-15 58 -25 96.5t-20 69.5q-25 7 -61 7q-55 0 -107.5 -28.5t-94 -79.5t-66.5 -120.5t-25 -151.5q0 -66 22 -118t61.5 -81.5 t93.5 -29.5z" />
<glyph unicode="&#x121;" horiz-adv-x="452" d="M328 589q-25 0 -41 15.5t-16 42.5q0 36 26.5 62.5t60.5 26.5q25 0 41.5 -15.5t16.5 -40.5q0 -38 -26.5 -64.5t-61.5 -26.5zM303 508q74 0 133 1.5t96 11.5q8 -12 8 -32q0 -17 -10 -31t-34 -14q-19 0 -50 9.5t-64 19.5q32 -18 49 -47t17 -68q0 -57 -21.5 -97.5t-53.5 -69 t-64 -48.5t-54 -35.5t-22 -30.5q0 -14 16.5 -23.5t41.5 -22.5q34 -17 61.5 -33.5t44 -38.5t16.5 -54q0 -42 -30.5 -79.5t-85.5 -60.5t-130 -23q-96 0 -150 33t-54 80q0 37 31.5 65.5t75.5 48.5l12 -10q-10 -11 -16.5 -24t-6.5 -28q0 -54 38 -90.5t97 -36.5q47 0 79.5 23 t32.5 60q0 27 -26.5 45.5t-67.5 41.5q-35 20 -62.5 39.5t-27.5 49.5q0 26 28 49.5t84 53.5q-68 2 -110 41.5t-42 103.5q0 60 29 110t79 80.5t113 30.5zM194 287q0 -49 14 -76.5t40 -27.5q19 0 35 19t28 50t18.5 68t6.5 73q0 37 -12.5 57t-35.5 20q-28 0 -49 -28.5t-33 -71 t-12 -83.5z" />
<glyph unicode="&#x122;" horiz-adv-x="683" d="M407 39q42 0 76 10l35 164l13 59l-69 28l4 20h263l2 -20l-49 -15q-18 -6 -27.5 -16.5t-13.5 -30.5l-6 -25v0l-41 -192q-40 -15 -90 -23t-109 -8q-136 0 -214 73.5t-78 206.5q0 90 34 167.5t92.5 136t134.5 91.5t160 33q55 0 99.5 -8t79.5 -21q-1 -29 -9.5 -64.5 t-20 -70.5t-21.5 -59h-23q-15 58 -25 96.5t-20 69.5q-25 7 -61 7q-55 0 -107.5 -28.5t-94 -79.5t-66.5 -120.5t-25 -151.5q0 -66 22 -118t61.5 -81.5t93.5 -29.5zM427 -153q0 -34 -20 -70t-54 -68t-75 -50l-9 9q48 55 66 110q-18 3 -29.5 17t-11.5 35q0 33 22.5 55.5 t55.5 22.5q24 0 39.5 -17t15.5 -44z" />
<glyph unicode="&#x123;" horiz-adv-x="452" d="M274 650q0 34 20 70.5t54 68t76 50.5l9 -10q-48 -55 -66 -109q18 -4 29.5 -18t11.5 -35q0 -32 -23 -55t-55 -23q-25 0 -40.5 17t-15.5 44zM303 508q74 0 133 1.5t96 11.5q8 -12 8 -32q0 -17 -10 -31t-34 -14q-19 0 -50 9.5t-64 19.5q32 -18 49 -47t17 -68 q0 -57 -21.5 -97.5t-53.5 -69t-64 -48.5t-54 -35.5t-22 -30.5q0 -14 16.5 -23.5t41.5 -22.5q34 -17 61.5 -33.5t44 -38.5t16.5 -54q0 -42 -30.5 -79.5t-85.5 -60.5t-130 -23q-96 0 -150 33t-54 80q0 37 31.5 65.5t75.5 48.5l12 -10q-10 -11 -16.5 -24t-6.5 -28 q0 -54 38 -90.5t97 -36.5q47 0 79.5 23t32.5 60q0 27 -26.5 45.5t-67.5 41.5q-35 20 -62.5 39.5t-27.5 49.5q0 26 28 49.5t84 53.5q-68 2 -110 41.5t-42 103.5q0 60 29 110t79 80.5t113 30.5zM194 287q0 -49 14 -76.5t40 -27.5q19 0 35 19t28 50t18.5 68t6.5 73 q0 37 -12.5 57t-35.5 20q-28 0 -49 -28.5t-33 -71t-12 -83.5z" />
<glyph unicode="&#x124;" horiz-adv-x="792" d="M717 784l-17 -10q-28 19 -61 39.5t-67 38.5q-34 -17 -78 -38.5t-83 -39.5l-10 13q39 35 79.5 73.5t63.5 63.5l10 6h70q25 -34 49.5 -72.5t43.5 -73.5zM252 48l69 -28l-4 -20h-268l-2 20l48 18q17 7 27.5 16t13.5 28l7 25h-1l100 474l13 59l-69 28l4 20h269l2 -20l-49 -18 q-17 -7 -27 -16.5t-14 -27.5l-6 -25v0l-44 -209h287l44 209l13 59l-69 28l4 20h268l2 -20l-48 -18q-17 -7 -27.5 -16.5t-14.5 -27.5l-6 -25h1l-100 -474l-13 -59l69 -28l-4 -20h-269l-2 20l48 18q17 7 27.5 16t14.5 28l6 25v0l46 217h-287l-46 -217z" />
<glyph unicode="&#x125;" horiz-adv-x="562" d="M436 804l-17 -11q-28 19 -61 39.5t-66 39.5q-35 -18 -78.5 -39.5t-83.5 -39.5l-10 13q39 35 79.5 73.5t63.5 63.5l10 6h70q25 -33 50 -72t43 -73zM67 16l30 138l102 473l14 61l-73 25v11q43 12 98.5 20.5t99.5 13.5l8 -9l-28 -122q-21 -95 -44.5 -186t-48.5 -182 q32 68 69 124.5t78.5 90.5t86.5 34q41 0 61.5 -25.5t20.5 -58.5q0 -30 -10.5 -77.5t-25 -99t-24.5 -93.5q-4 -20 -7 -37t-3 -27q0 -23 17 -23t40 22t43 46l10 -8q-16 -31 -39.5 -62.5t-53.5 -53t-63 -21.5q-37 0 -56 22t-19 59q0 16 3 36.5t9 46.5q10 41 22.5 88t22 86.5 t9.5 60.5q0 32 -24 32q-17 0 -36.5 -18t-40 -46.5t-39.5 -62t-33.5 -65.5t-21.5 -56l-5 -19l-33 -155l-54 -4q-11 0 -28 -1.5t-24 -1.5q-9 0 -10.5 6.5t0.5 17.5z" />
<glyph unicode="&#x126;" horiz-adv-x="792" d="M252 48l69 -28l-4 -20h-268l-2 20l48 18q17 7 27.5 16t13.5 28l7 25h-1l81 382h-82l7 41h84l10 51l13 59l-69 28l4 20h269l2 -20l-49 -18q-17 -7 -27 -16.5t-14 -27.5l-6 -25v0l-10 -51h286l11 51l13 59l-69 28l4 20h268l2 -20l-48 -18q-17 -7 -27.5 -16.5t-14.5 -27.5 l-6 -25h1l-11 -51h78l-7 -41h-80l-80 -382l-13 -59l69 -28l-4 -20h-269l-2 20l48 18q17 7 27.5 16t14.5 28l6 25v0l46 217h-287l-46 -217zM321 372h287l24 117h-286z" />
<glyph unicode="&#x127;" horiz-adv-x="562" d="M67 16l30 138l93 429h-122l9 41h122v3l14 61l-73 25v11q43 12 98.5 20.5t99.5 13.5l8 -9l-28 -122v-3h148l-9 -41h-149q-19 -83 -40 -163.5t-43 -160.5q32 68 69 124.5t78.5 90.5t86.5 34q41 0 61.5 -25.5t20.5 -58.5q0 -30 -10.5 -77.5t-25 -99t-24.5 -93.5 q-4 -20 -7 -37t-3 -27q0 -23 17 -23t40 22t43 46l10 -8q-16 -31 -39.5 -62.5t-53.5 -53t-63 -21.5q-37 0 -56 22t-19 59q0 16 3 36.5t9 46.5q10 41 22.5 88t22 86.5t9.5 60.5q0 32 -24 32q-17 0 -36.5 -18t-40 -46.5t-39.5 -62t-33.5 -65.5t-21.5 -56l-5 -19l-33 -155 l-54 -4q-11 0 -28 -1.5t-24 -1.5q-9 0 -10.5 6.5t0.5 17.5z" />
<glyph unicode="&#x128;" horiz-adv-x="386" d="M237 840q-14 -7 -33 -23t-42 -37l-14 7q22 64 59 100t85 36q35 0 68 -14t64 -28t60 -17q15 8 33.5 23.5t41.5 36.5l13 -6q-21 -64 -58 -100t-86 -36q-34 0 -67 13.5t-64 28t-60 16.5zM252 48l69 -28l-4 -20h-268l-2 20l48 18q17 7 27.5 16t13.5 28l7 25h-1l100 474l13 59 l-69 28l4 20h269l2 -20l-49 -18q-17 -7 -27 -16.5t-14 -27.5l-6 -25v0l-100 -474z" />
<glyph unicode="&#x129;" horiz-adv-x="326" d="M183 655q-14 -8 -31 -24.5t-39 -38.5l-10 5q19 67 54 104.5t80 37.5q24 0 46 -14t42 -29t38 -18q14 8 31 24.5t39 38.5l11 -5q-20 -67 -55 -104.5t-80 -37.5q-24 0 -46.5 14.5t-42.5 29.5t-37 17zM242 154q-5 -20 -8 -37t-3 -27q0 -23 17 -23t40.5 22t43.5 46l9 -8 q-15 -31 -39 -62.5t-53.5 -53t-63.5 -21.5q-37 0 -56 22t-19 59q0 16 3.5 36.5t8.5 46.5q10 45 22 95t22 95q4 20 7 37t3 27q0 22 -17 22t-40 -21.5t-43 -45.5l-10 8q16 31 39.5 62.5t53.5 53t63 21.5q37 0 56 -22t19 -60q0 -15 -3 -36t-9 -46q-10 -45 -22 -95.5t-21 -94.5z " />
<glyph unicode="&#x12a;" horiz-adv-x="386" d="M203 818l13 62h303l-13 -62h-303zM252 48l69 -28l-4 -20h-268l-2 20l48 18q17 7 27.5 16t13.5 28l7 25h-1l100 474l13 59l-69 28l4 20h269l2 -20l-49 -18q-17 -7 -27 -16.5t-14 -27.5l-6 -25v0l-100 -474z" />
<glyph unicode="&#x12b;" horiz-adv-x="326" d="M153 630l14 61h231l-14 -61h-231zM242 154q-5 -20 -8 -37t-3 -27q0 -23 17 -23t40.5 22t43.5 46l9 -8q-15 -31 -39 -62.5t-53.5 -53t-63.5 -21.5q-37 0 -56 22t-19 59q0 16 3.5 36.5t8.5 46.5q10 45 22 95t22 95q4 20 7 37t3 27q0 22 -17 22t-40 -21.5t-43 -45.5l-10 8 q16 31 39.5 62.5t53.5 53t63 21.5q37 0 56 -22t19 -60q0 -15 -3 -36t-9 -46q-10 -45 -22 -95.5t-21 -94.5z" />
<glyph unicode="&#x12c;" horiz-adv-x="386" d="M489 917l6 2l16 -6q-23 -63 -66.5 -97t-101.5 -34t-81.5 39t-15.5 95l20 4q4 -29 28.5 -45t64.5 -16q90 0 130 58zM252 48l69 -28l-4 -20h-268l-2 20l48 18q17 7 27.5 16t13.5 28l7 25h-1l100 474l13 59l-69 28l4 20h269l2 -20l-49 -18q-17 -7 -27 -16.5t-14 -27.5 l-6 -25v0l-100 -474z" />
<glyph unicode="&#x12d;" horiz-adv-x="326" d="M382 743l5 2l17 -4q-18 -70 -61.5 -111t-95.5 -41q-48 0 -69 44.5t-13 108.5l21 3q1 -35 23 -55.5t57 -20.5q37 0 69 19t47 55zM242 154q-5 -20 -8 -37t-3 -27q0 -23 17 -23t40.5 22t43.5 46l9 -8q-15 -31 -39 -62.5t-53.5 -53t-63.5 -21.5q-37 0 -56 22t-19 59 q0 16 3.5 36.5t8.5 46.5q10 45 22 95t22 95q4 20 7 37t3 27q0 22 -17 22t-40 -21.5t-43 -45.5l-10 8q16 31 39.5 62.5t53.5 53t63 21.5q37 0 56 -22t19 -60q0 -15 -3 -36t-9 -46q-10 -45 -22 -95.5t-21 -94.5z" />
<glyph unicode="&#x12e;" horiz-adv-x="386" d="M252 48l69 -28l-4 -20q-48 -23 -80.5 -59.5t-32.5 -70.5q0 -32 25 -32q15 0 33.5 16t34.5 37l9 -8q-19 -52 -53 -87t-81 -35q-36 0 -53.5 20t-17.5 55q0 33 19.5 64.5t54.5 57.5t79 42h-205l-2 20l48 18q17 7 27.5 16t13.5 28l7 25h-1l100 474l13 59l-69 28l4 20h269 l2 -20l-49 -18q-17 -7 -27 -16.5t-14 -27.5l-6 -25v0l-100 -474z" />
<glyph unicode="&#x12f;" horiz-adv-x="326" d="M261 590q-24 0 -40.5 15.5t-16.5 42.5q0 37 26.5 63t61.5 26q24 0 40.5 -15t16.5 -41q0 -38 -26.5 -64.5t-61.5 -26.5zM242 154q-5 -20 -8 -37t-3 -27q0 -23 17 -23t40.5 22t43.5 46l9 -8q-9 -17 -20 -35t-24 -34l3 2q-40 -51 -71 -86.5t-49 -61.5t-18 -48q0 -26 24 -26 q16 0 32.5 17t32.5 36l9 -8q-19 -50 -52.5 -86t-79.5 -36q-30 0 -49.5 18t-19.5 50t19.5 59.5t51 52.5t67.5 50q-6 -1 -12 -1q-37 0 -56 22t-19 59q0 16 3.5 36.5t8.5 46.5q10 45 22 95t22 95q4 20 7 37t3 27q0 22 -17 22t-40 -21.5t-43 -45.5l-10 8q16 31 39.5 62.5 t53.5 53t63 21.5q37 0 56 -22t19 -60q0 -15 -3 -36t-9 -46q-10 -45 -22 -95.5t-21 -94.5z" />
<glyph unicode="&#x130;" horiz-adv-x="386" d="M435 862q0 -35 -26 -60t-63 -25q-29 0 -46 15.5t-17 40.5q1 34 26.5 58.5t62.5 24.5q29 0 46 -15t17 -39zM252 48l69 -28l-4 -20h-268l-2 20l48 18q17 7 27.5 16t13.5 28l7 25h-1l100 474l13 59l-69 28l4 20h269l2 -20l-49 -18q-17 -7 -27 -16.5t-14 -27.5l-6 -25v0 l-100 -474z" />
<glyph unicode="&#x131;" horiz-adv-x="326" d="M242 154q-5 -20 -8 -37t-3 -27q0 -23 17 -23t40.5 22t43.5 46l9 -8q-15 -31 -39 -62.5t-53.5 -53t-63.5 -21.5q-37 0 -56 22t-19 59q0 16 3.5 36.5t8.5 46.5q10 45 22 95t22 95q4 20 7 37t3 27q0 22 -17 22t-40 -21.5t-43 -45.5l-10 8q16 31 39.5 62.5t53.5 53t63 21.5 q37 0 56 -22t19 -60q0 -15 -3 -36t-9 -46q-10 -45 -22 -95.5t-21 -94.5z" />
<glyph unicode="&#x132;" horiz-adv-x="756" d="M252 48l69 -28l-4 -20h-268l-2 20l48 18q17 7 27.5 16t13.5 28l7 25h-1l100 474l13 59l-69 28l4 20h269l2 -20l-49 -18q-17 -7 -27 -16.5t-14 -27.5l-6 -25v0l-100 -474zM639 640l-69 28l4 20h269l2 -20l-48 -18q-17 -7 -27.5 -16.5t-14.5 -27.5l-6 -25h1l-107 -503 q-14 -66 -51 -114.5t-87 -82t-102 -51.5l-12 19q50 51 83 110.5t53 153.5l100 468z" />
<glyph unicode="&#x133;" horiz-adv-x="604" d="M261 590q-24 0 -40.5 15.5t-16.5 42.5q0 37 26.5 63t61.5 26q24 0 40.5 -15t16.5 -41q0 -38 -26.5 -64.5t-61.5 -26.5zM547 590q-25 0 -41 15.5t-16 42.5q0 37 26 63t61 26q25 0 41.5 -15t16.5 -41q0 -38 -26.5 -64.5t-61.5 -26.5zM242 154q-5 -20 -8 -37t-3 -27 q0 -23 17 -23t40.5 22t43.5 46l9 -8q-15 -31 -39 -62.5t-53.5 -53t-63.5 -21.5q-37 0 -56 22t-19 59q0 16 3.5 36.5t8.5 46.5q10 45 22 95t22 95q4 20 7 37t3 27q0 22 -17 22t-40 -21.5t-43 -45.5l-10 8q16 31 39.5 62.5t53.5 53t63 21.5q37 0 56 -22t19 -60q0 -15 -3 -36 t-9 -46q-10 -45 -22 -95.5t-21 -94.5zM454 344q4 20 7 37t3 27q0 22 -17 22t-40.5 -21.5t-43.5 -45.5l-9 8q16 31 39.5 62.5t53 53t63.5 21.5q37 0 56 -22t19 -60q0 -15 -3 -36t-9 -46l-70 -336q-26 -128 -93 -197t-153 -69q-48 0 -77 20t-29 49q0 16 8 27t20 17 q15 -20 34.5 -33t44.5 -13q45 0 73.5 44t47.5 133z" />
<glyph unicode="&#x134;" horiz-adv-x="374" d="M506 784l-17 -10q-28 19 -61 39.5t-67 38.5q-34 -17 -78 -38.5t-83 -39.5l-10 13q39 35 79.5 73.5t63.5 63.5l10 6h70q25 -34 49.5 -72.5t43.5 -73.5zM256 640l-69 28l4 20h269l2 -20l-49 -18q-17 -7 -27 -16.5t-14 -27.5l-6 -25v0l-107 -503q-13 -66 -50.5 -114.5 t-87 -82t-101.5 -51.5l-12 19q49 51 82.5 110.5t53.5 153.5l99 468z" />
<glyph unicode="&#x135;" horiz-adv-x="290" d="M340 585l-17 -10q-18 21 -38.5 45t-41.5 45q-26 -21 -58 -45.5t-60 -44.5l-10 13q17 27 37 57.5t37.5 58t27.5 47.5l10 6h72q10 -39 21 -84t20 -88zM155 344q4 20 7 37t3 27q0 22 -17 22t-40 -21.5t-43 -45.5l-9 8q15 31 38.5 62.5t53.5 53t64 21.5q36 0 55 -22t19 -60 q0 -15 -3 -36t-9 -46l-70 -336q-26 -128 -93 -197t-153 -69q-47 0 -76.5 20t-29.5 49q0 16 8 27t20 17q15 -20 34.5 -33t44.5 -13q45 0 73.5 44t47.5 133z" />
<glyph unicode="&#x136;" horiz-adv-x="701" d="M252 48l69 -28l-4 -20h-268l-2 20l48 18q17 7 27.5 16t13.5 28l7 25h-1l100 474l13 59l-69 28l4 20h269l2 -20l-49 -18q-17 -7 -27 -16.5t-14 -27.5l-6 -25v0l-45 -216l89 1v0l244 274l-80 28l4 20h231l2 -20l-64 -23q-18 -6 -33 -17t-32 -30l-185 -193l76 -220 q24 -72 43 -105t47 -46l31 -14l-5 -20l-123 -3q-40 0 -57.5 16.5t-27.5 49.5l-82 256h-88l-45 -212zM409 -153q0 -34 -20 -70t-54 -68t-76 -50l-9 9q48 55 67 110q-19 3 -30.5 17t-11.5 35q0 33 23 55.5t55 22.5q25 0 40.5 -17t15.5 -44z" />
<glyph unicode="&#x137;" horiz-adv-x="542" d="M67 16l30 138l102 472l14 62l-73 24v12q43 12 98.5 20.5t99.5 12.5l8 -9l-28 -122q-21 -94 -44.5 -185t-48.5 -182q30 65 67.5 122t81.5 92t94 35q45 0 67.5 -25t22.5 -59q0 -35 -16.5 -65.5t-42.5 -56t-55 -45t-53 -32.5q30 -77 51 -117.5t40 -40.5q15 0 38.5 22 t43.5 46l9 -8q-15 -31 -39 -62.5t-54 -53t-63 -21.5q-36 0 -58 23t-40 69t-41 115l4 11q42 20 77.5 50t57 63.5t21.5 66.5q0 15 -7.5 25t-23.5 10q-30 0 -64 -35.5t-66.5 -92.5t-55.5 -122l-5 -19l-33 -155l-54 -4q-11 0 -28 -1.5t-24 -1.5q-9 0 -10.5 6.5t0.5 17.5z M310 -153q0 -34 -20 -70t-54 -68t-76 -50l-8 9q47 55 66 110q-19 3 -30.5 17t-11.5 35q0 33 23 55.5t55 22.5q25 0 40.5 -17t15.5 -44z" />
<glyph unicode="&#x138;" horiz-adv-x="581" d="M96 16l30 138l41 192q4 20 7 37t3 27q0 23 -17 23t-40 -22t-43 -46l-10 8q16 31 39.5 62.5t53.5 53t63 21.5q37 0 56 -22t19 -59q0 -16 -3 -36.5t-9 -46.5l-18 -84h51q42 70 82.5 125.5t80 88t79.5 32.5q25 0 38 -14.5t13 -36.5q0 -24 -9.5 -47.5t-17.5 -34.5 q-10 13 -24 21t-30 8q-30 0 -63 -27.5t-63 -63.5l14 -44q62 -202 102 -202q15 0 38 22t43 46l9 -8q-15 -31 -39 -62.5t-53 -53t-62 -21.5q-38 0 -61 26.5t-41 77.5t-40 126h-56l-14 -66l-33 -155l-54 -4q-11 0 -28 -1.5t-24 -1.5q-9 0 -10.5 6.5t0.5 17.5z" />
<glyph unicode="&#x139;" horiz-adv-x="581" d="M434 924l11 2q24 -11 37.5 -23.5t13.5 -29.5q0 -25 -38 -45.5t-101.5 -33.5t-139.5 -17l-6 18q67 30 128 65.5t95 63.5zM255 640l-69 28l4 20h269l2 -20l-49 -18q-17 -7 -27 -16.5t-14 -27.5l-6 -25v0l-100 -474l-14 -66h106q21 0 44.5 1.5t40.5 3.5q18 26 39.5 62 t63.5 104h23q-2 -49 -12.5 -106t-29.5 -106h-477l-2 20l48 18q18 7 28 16t14 28l5 25l100 474z" />
<glyph unicode="&#x13a;" horiz-adv-x="296" d="M380 984l11 2q24 -11 37 -23.5t13 -29.5q0 -25 -37.5 -45.5t-101 -33.5t-140.5 -17l-5 18q67 30 127.5 65.5t95.5 63.5zM216 154q-4 -20 -7 -37t-3 -27q0 -23 17 -23t40 22t43 46l9 -8q-15 -31 -38.5 -62.5t-53.5 -53t-64 -21.5q-36 0 -55 22t-19 59q0 16 3 36.5t9 46.5 l102 472l14 62l-73 24v12q43 12 98.5 20.5t99.5 12.5l8 -9l-28 -122z" />
<glyph unicode="&#x13b;" horiz-adv-x="581" d="M255 640l-69 28l4 20h269l2 -20l-49 -18q-17 -7 -27 -16.5t-14 -27.5l-6 -25v0l-100 -474l-14 -66h106q21 0 44.5 1.5t40.5 3.5q18 26 39.5 62t63.5 104h23q-2 -49 -12.5 -106t-29.5 -106h-477l-2 20l48 18q18 7 28 16t14 28l5 25l100 474zM355 -153q0 -34 -20 -70 t-54 -68t-75 -50l-9 9q48 55 66 110q-18 3 -29.5 17t-11.5 35q0 33 23 55.5t55 22.5q25 0 40 -17t15 -44z" />
<glyph unicode="&#x13c;" horiz-adv-x="296" d="M216 154q-4 -20 -7 -37t-3 -27q0 -23 17 -23t40 22t43 46l9 -8q-15 -31 -38.5 -62.5t-53.5 -53t-64 -21.5q-36 0 -55 22t-19 59q0 16 3 36.5t9 46.5l102 472l14 62l-73 24v12q43 12 98.5 20.5t99.5 12.5l8 -9l-28 -122zM193 -153q0 -34 -20 -70t-54 -68t-76 -50l-9 9 q48 55 67 110q-19 3 -30.5 17t-11.5 35q0 33 23 55.5t55 22.5q25 0 40.5 -17t15.5 -44z" />
<glyph unicode="&#x13d;" horiz-adv-x="581" d="M663 648q0 -29 -18 -60.5t-48 -59t-67 -44.5l-8 8q45 49 61 97q-17 2 -27.5 14t-10.5 30q0 28 20 47.5t49 19.5q22 0 35.5 -14.5t13.5 -37.5zM255 640l-69 28l4 20h269l2 -20l-49 -18q-17 -7 -27 -16.5t-14 -27.5l-6 -25v0l-100 -474l-14 -66h106q21 0 44.5 1.5t40.5 3.5 q18 26 39.5 62t63.5 104h23q-2 -49 -12.5 -106t-29.5 -106h-477l-2 20l48 18q18 7 28 16t14 28l5 25l100 474z" />
<glyph unicode="&#x13e;" horiz-adv-x="399" d="M519 706q0 -29 -18 -61t-48 -59.5t-67 -43.5l-8 8q45 49 61 96q-17 3 -27.5 15t-10.5 30q0 28 20 47.5t49 19.5q22 0 35.5 -14.5t13.5 -37.5zM216 154q-4 -20 -7 -37t-3 -27q0 -23 17 -23t40 22t43 46l9 -8q-15 -31 -38.5 -62.5t-53.5 -53t-64 -21.5q-36 0 -55 22t-19 59 q0 16 3 36.5t9 46.5l102 472l14 62l-73 24v12q43 12 98.5 20.5t99.5 12.5l8 -9l-28 -122z" />
<glyph unicode="&#x13f;" horiz-adv-x="581" d="M255 640l-69 28l4 20h269l2 -20l-49 -18q-17 -7 -27 -16.5t-14 -27.5l-6 -25v0l-100 -474l-14 -66h106q21 0 44.5 1.5t40.5 3.5q18 26 39.5 62t63.5 104h23q-2 -49 -12.5 -106t-29.5 -106h-477l-2 20l48 18q18 7 28 16t14 28l5 25l100 474zM528 323q-24 0 -40.5 15.5 t-16.5 42.5q0 37 26.5 63.5t60.5 26.5q25 0 41.5 -15.5t16.5 -41.5q0 -37 -26.5 -64t-61.5 -27z" />
<glyph unicode="&#x140;" horiz-adv-x="435" d="M216 154q-4 -20 -7 -37t-3 -27q0 -23 17 -23t40 22t43 46l9 -8q-15 -31 -38.5 -62.5t-53.5 -53t-64 -21.5q-36 0 -55 22t-19 59q0 16 3 36.5t9 46.5l102 472l14 62l-73 24v12q43 12 98.5 20.5t99.5 12.5l8 -9l-28 -122zM408 311q-25 0 -41.5 15.5t-16.5 42.5 q0 37 26.5 63t61.5 26q25 0 41 -15t16 -41q0 -38 -26 -64.5t-61 -26.5z" />
<glyph unicode="&#x141;" horiz-adv-x="581" d="M444 420l-127 -68l-52 -245l-14 -66h106q21 0 44.5 1.5t40.5 3.5q18 26 39.5 62t63.5 104h23q-2 -49 -12.5 -106t-29.5 -106h-477l-2 20l48 18q18 7 28 16t14 28l5 25l36 171l-97 -52l-15 44l125 66l51 245l13 59l-69 28l4 20h269l2 -20l-49 -18q-17 -7 -27 -16.5 t-14 -27.5l-6 -25v0l-36 -170l100 53z" />
<glyph unicode="&#x142;" horiz-adv-x="296" d="M216 154q-4 -20 -7 -37t-3 -27q0 -23 17 -23t40 22t43 46l9 -8q-15 -31 -38.5 -62.5t-53.5 -53t-64 -21.5q-36 0 -55 22t-19 59q0 16 3 36.5t9 46.5l40 187l-99 -53l-14 44l126 67l49 227l14 62l-73 24v12q43 12 98.5 20.5t99.5 12.5l8 -9l-28 -122l-33 -154l102 55 l15 -44l-130 -70z" />
<glyph unicode="&#x143;" horiz-adv-x="724" d="M622 924l10 2q25 -11 38 -23.5t13 -29.5q0 -25 -37.5 -45.5t-101 -33.5t-140.5 -17l-5 18q67 30 127.5 65.5t95.5 63.5zM179 52l82 -29l-4 -23h-216l-3 23l52 17q21 8 32 16t14 26l6 25l111 527l-73 31l5 23h173l228 -530l90 423l13 55l-85 29l4 23h219l2 -23l-51 -17 q-21 -8 -32 -16t-15 -26l-6 -25l-123 -581h-78l-239 552l-94 -445z" />
<glyph unicode="&#x144;" horiz-adv-x="589" d="M462 759l10 4q5 0 10.5 -0.5t10.5 -1.5q59 -9 59 -39q0 -18 -21 -40t-56.5 -43.5t-78.5 -39.5t-88 -29l-10 16q34 28 65.5 60t57.5 61.5t41 51.5zM95 16l29 138q11 50 21.5 96.5t20.5 89.5q5 24 8 41t3 26q0 23 -18 23q-16 0 -39 -21.5t-44 -45.5l-9 8q15 30 38.5 62 t52.5 53.5t62 21.5q35 0 53 -20t18 -53q0 -25 -12 -74t-24 -97q16 32 39.5 74t53 80.5t64 64t72.5 25.5q41 0 61.5 -25.5t20.5 -58.5q0 -30 -10 -77.5t-23.5 -99t-23.5 -93.5q-4 -20 -7.5 -37t-3.5 -27q0 -23 18 -23q16 0 39.5 22t43.5 46l9 -8q-15 -31 -38.5 -62.5 t-53.5 -53t-64 -21.5q-37 0 -56 22t-19 59q0 16 3.5 36.5t8.5 46.5q10 41 23 88t22.5 86.5t9.5 60.5q0 32 -25 32q-20 0 -45.5 -26.5t-50.5 -67t-45 -82t-30 -71.5l-4 -20l-33 -155l-54 -4q-12 0 -28.5 -1.5t-23.5 -1.5q-9 0 -10.5 6.5t0.5 17.5z" />
<glyph unicode="&#x145;" horiz-adv-x="724" d="M179 52l82 -29l-4 -23h-216l-3 23l52 17q21 8 32 16t14 26l6 25l111 527l-73 31l5 23h173l228 -530l90 423l13 55l-85 29l4 23h219l2 -23l-51 -17q-21 -8 -32 -16t-15 -26l-6 -25l-123 -581h-78l-239 552l-94 -445zM404 -153q0 -34 -20 -70t-54 -68t-75 -50l-9 9 q48 55 66 110q-18 3 -29.5 17t-11.5 35q0 33 22.5 55.5t55.5 22.5q24 0 39.5 -17t15.5 -44z" />
<glyph unicode="&#x146;" horiz-adv-x="589" d="M95 16l29 138q11 50 21.5 96.5t20.5 89.5q5 24 8 41t3 26q0 23 -18 23q-16 0 -39 -21.5t-44 -45.5l-9 8q15 30 38.5 62t52.5 53.5t62 21.5q35 0 53 -20t18 -53q0 -25 -12 -74t-24 -97q16 32 39.5 74t53 80.5t64 64t72.5 25.5q41 0 61.5 -25.5t20.5 -58.5q0 -30 -10 -77.5 t-23.5 -99t-23.5 -93.5q-4 -20 -7.5 -37t-3.5 -27q0 -23 18 -23q16 0 39.5 22t43.5 46l9 -8q-15 -31 -38.5 -62.5t-53.5 -53t-64 -21.5q-37 0 -56 22t-19 59q0 16 3.5 36.5t8.5 46.5q10 41 23 88t22.5 86.5t9.5 60.5q0 32 -25 32q-20 0 -45.5 -26.5t-50.5 -67t-45 -82 t-30 -71.5l-4 -20l-33 -155l-54 -4q-12 0 -28.5 -1.5t-23.5 -1.5q-9 0 -10.5 6.5t0.5 17.5zM348 -153q0 -34 -20.5 -70t-54 -68t-75.5 -50l-9 9q48 55 66 110q-18 3 -29.5 17t-11.5 35q0 33 23 55.5t55 22.5q25 0 40.5 -17t15.5 -44z" />
<glyph unicode="&#x147;" horiz-adv-x="724" d="M568 778l-10 -6h-71q-22 34 -43.5 73t-37.5 74l17 11q25 -19 54 -40t58 -39q38 18 85 39.5t90 39.5l10 -13q-41 -36 -83.5 -74.5t-68.5 -64.5zM179 52l82 -29l-4 -23h-216l-3 23l52 17q21 8 32 16t14 26l6 25l111 527l-73 31l5 23h173l228 -530l90 423l13 55l-85 29l4 23 h219l2 -23l-51 -17q-21 -8 -32 -16t-15 -26l-6 -25l-123 -581h-78l-239 552l-94 -445z" />
<glyph unicode="&#x148;" horiz-adv-x="589" d="M449 581l-10 -6h-71q-20 39 -38.5 84.5t-33.5 87.5l17 10q24 -24 51 -50t55 -49q35 23 79 50t84 49l11 -13q-26 -27 -53.5 -57.5t-51 -58t-39.5 -47.5zM95 16l29 138q11 50 21.5 96.5t20.5 89.5q5 24 8 41t3 26q0 23 -18 23q-16 0 -39 -21.5t-44 -45.5l-9 8 q15 30 38.5 62t52.5 53.5t62 21.5q35 0 53 -20t18 -53q0 -25 -12 -74t-24 -97q16 32 39.5 74t53 80.5t64 64t72.5 25.5q41 0 61.5 -25.5t20.5 -58.5q0 -30 -10 -77.5t-23.5 -99t-23.5 -93.5q-4 -20 -7.5 -37t-3.5 -27q0 -23 18 -23q16 0 39.5 22t43.5 46l9 -8 q-15 -31 -38.5 -62.5t-53.5 -53t-64 -21.5q-37 0 -56 22t-19 59q0 16 3.5 36.5t8.5 46.5q10 41 23 88t22.5 86.5t9.5 60.5q0 32 -25 32q-20 0 -45.5 -26.5t-50.5 -67t-45 -82t-30 -71.5l-4 -20l-33 -155l-54 -4q-12 0 -28.5 -1.5t-23.5 -1.5q-9 0 -10.5 6.5t0.5 17.5z" />
<glyph unicode="&#x14a;" horiz-adv-x="723" d="M178 52l83 -29l-5 -23h-216l-2 23l51 17q21 8 32 16t15 26l6 25l109 518q-6 17 -27 24l-45 16l6 23h172l229 -530l90 423l12 55l-85 29l5 23h218l3 -23l-52 -17q-21 -8 -32 -16t-14 -26l-6 -25l-108 -506q-14 -63 -35.5 -104t-55 -73t-81.5 -68l-13 16q37 39 64 72.5 t47 81.5h-20l-238 552l-94 -445z" />
<glyph unicode="&#x14b;" horiz-adv-x="574" d="M95 16l29 138q11 50 21.5 96.5t20.5 89.5q5 24 8 41t3 26q0 23 -18 23q-16 0 -39 -21.5t-44 -45.5l-9 8q15 30 38.5 62t52.5 53.5t62 21.5q35 0 53 -20t18 -53q0 -24 -11.5 -71.5t-23.5 -98.5q16 33 39.5 74.5t53 80t63.5 63.5t73 25q41 0 61.5 -26t20.5 -61 q0 -23 -11 -82t-29.5 -144t-40.5 -187q-28 -128 -94.5 -197t-153.5 -69q-47 0 -76.5 20t-29.5 49q0 16 8.5 27t20.5 17q15 -20 34 -33t44 -13q46 0 74.5 44t48.5 133q22 103 41 187t30 140t11 76q0 32 -25 32q-20 0 -45.5 -26.5t-50.5 -67t-45 -82t-30 -71.5l-4 -20 l-33 -155l-54 -4q-12 0 -28.5 -1.5t-23.5 -1.5q-9 0 -10.5 6.5t0.5 17.5z" />
<glyph unicode="&#x14c;" horiz-adv-x="647" d="M333 818l14 62h303l-14 -62h-303zM673 446q0 -88 -27 -169.5t-75 -146t-111.5 -102.5t-136.5 -38q-66 0 -116.5 30.5t-79 87t-28.5 133.5q0 85 27 166.5t75.5 147t112.5 104.5t138 39q70 0 119.5 -31.5t75.5 -88.5t26 -132zM226 183q0 -65 26 -106t75 -41q39 0 72.5 32.5 t60 85.5t46 116t30 125.5t10.5 112.5q0 68 -23.5 106t-73.5 38q-40 0 -74 -30.5t-61.5 -81t-47 -112.5t-30 -125.5t-10.5 -119.5z" />
<glyph unicode="&#x14d;" horiz-adv-x="489" d="M211 630l13 61h290l-14 -61h-289zM500 320q0 -72 -21.5 -132.5t-58 -105t-82.5 -68.5t-95 -24q-75 0 -122 51t-47 138q0 68 21 127t57.5 104.5t83 71t96.5 25.5q80 0 124 -51t44 -136zM197 136q0 -49 13 -78t39 -29q21 0 40.5 23t35 61t27.5 83t18.5 91t6.5 84 q0 45 -12 71.5t-39 26.5q-21 0 -40.5 -22t-35.5 -58t-28 -80t-18.5 -89t-6.5 -84z" />
<glyph unicode="&#x14e;" horiz-adv-x="647" d="M623 917l5 2l16 -6q-23 -63 -66 -97t-101 -34t-81.5 39t-16.5 95l20 4q4 -29 28.5 -45t65.5 -16q89 0 130 58zM673 446q0 -88 -27 -169.5t-75 -146t-111.5 -102.5t-136.5 -38q-66 0 -116.5 30.5t-79 87t-28.5 133.5q0 85 27 166.5t75.5 147t112.5 104.5t138 39 q70 0 119.5 -31.5t75.5 -88.5t26 -132zM226 183q0 -65 26 -106t75 -41q39 0 72.5 32.5t60 85.5t46 116t30 125.5t10.5 112.5q0 68 -23.5 106t-73.5 38q-40 0 -74 -30.5t-61.5 -81t-47 -112.5t-30 -125.5t-10.5 -119.5z" />
<glyph unicode="&#x14f;" horiz-adv-x="489" d="M493 743l5 2l17 -4q-22 -70 -68 -111t-102 -41t-79.5 44.5t-16.5 108.5l21 3q4 -35 28.5 -55.5t64.5 -20.5q43 0 77 19t53 55zM500 320q0 -72 -21.5 -132.5t-58 -105t-82.5 -68.5t-95 -24q-75 0 -122 51t-47 138q0 68 21 127t57.5 104.5t83 71t96.5 25.5q80 0 124 -51 t44 -136zM197 136q0 -49 13 -78t39 -29q21 0 40.5 23t35 61t27.5 83t18.5 91t6.5 84q0 45 -12 71.5t-39 26.5q-21 0 -40.5 -22t-35.5 -58t-28 -80t-18.5 -89t-6.5 -84z" />
<glyph unicode="&#x150;" horiz-adv-x="647" d="M463 925l11 2q24 -4 40.5 -16.5t16.5 -30.5q0 -38 -73 -64.5t-192 -37.5l-7 17q64 30 117.5 66.5t86.5 63.5zM719 925l11 2q24 -4 40.5 -16.5t16.5 -30.5q0 -38 -73 -64.5t-191 -37.5l-7 17q63 30 116.5 66.5t86.5 63.5zM673 446q0 -88 -27 -169.5t-75 -146 t-111.5 -102.5t-136.5 -38q-66 0 -116.5 30.5t-79 87t-28.5 133.5q0 85 27 166.5t75.5 147t112.5 104.5t138 39q70 0 119.5 -31.5t75.5 -88.5t26 -132zM226 183q0 -65 26 -106t75 -41q39 0 72.5 32.5t60 85.5t46 116t30 125.5t10.5 112.5q0 68 -23.5 106t-73.5 38 q-40 0 -74 -30.5t-61.5 -81t-47 -112.5t-30 -125.5t-10.5 -119.5z" />
<glyph unicode="&#x151;" horiz-adv-x="489" d="M319 759l10 4q5 0 10.5 -0.5t10.5 -1.5q48 -9 48 -39q0 -18 -20.5 -40t-54 -43.5t-75 -39.5t-83.5 -29l-10 16q33 28 65 60t58 61.5t41 51.5zM509 759l10 4q5 0 10.5 -0.5t10.5 -1.5q47 -10 47 -39q0 -18 -20 -40t-54 -43.5t-75 -39.5t-84 -29l-9 16q33 28 65 60 t57.5 61.5t41.5 51.5zM500 320q0 -72 -21.5 -132.5t-58 -105t-82.5 -68.5t-95 -24q-75 0 -122 51t-47 138q0 68 21 127t57.5 104.5t83 71t96.5 25.5q80 0 124 -51t44 -136zM197 136q0 -49 13 -78t39 -29q21 0 40.5 23t35 61t27.5 83t18.5 91t6.5 84q0 45 -12 71.5t-39 26.5 q-21 0 -40.5 -22t-35.5 -58t-28 -80t-18.5 -89t-6.5 -84z" />
<glyph unicode="&#x152;" horiz-adv-x="913" d="M848 0h-392q-44 -10 -90 -10q-81 0 -142.5 34t-96 97t-34.5 149q0 89 32.5 166.5t89.5 136.5t131.5 92t157.5 33q47 0 87 -10h376q-1 -48 -14 -103t-32 -105h-24q-13 68 -20.5 103t-12.5 59q-13 2 -36 3t-48 1h-92l-60 -282l195 7l-14 -56l-190 8l-60 -282h120 q25 0 46.5 1t38.5 4q11 15 23.5 35t31.5 50.5t48 75.5h23q0 -47 -12 -105t-30 -102zM220 239q0 -90 38.5 -146.5t111.5 -56.5q20 0 37.5 5.5t32.5 14.5l123 580q-26 16 -61 16q-61 0 -112.5 -35.5t-89.5 -94.5t-59 -132.5t-21 -150.5z" />
<glyph unicode="&#x153;" horiz-adv-x="714" d="M318 508q51 0 86 -26t51 -72q36 45 82 71.5t95 26.5q51 0 83 -29t32 -78q0 -50 -34 -90t-94.5 -63t-141.5 -22l1 9q-2 -23 -2 -46q0 -57 23.5 -88t64.5 -31q33 0 70.5 21.5t70.5 56.5l10 -7q-35 -68 -87.5 -109.5t-115.5 -41.5q-44 0 -75 22t-48 62q-33 -40 -74.5 -62 t-85.5 -22q-68 0 -111.5 51t-43.5 138q0 68 20 127t54.5 104.5t78.5 71.5t91 26zM326 469q-22 0 -41.5 -22t-35.5 -58t-28 -80t-18.5 -89t-6.5 -84q0 -49 13 -78t39 -29q22 0 41 23t35 61t27.5 83t18 91t6.5 84q0 45 -11.5 71.5t-38.5 26.5zM609 466q-28 0 -54 -29 t-45.5 -76t-28.5 -102q47 3 83.5 25.5t57.5 58t21 76.5q0 47 -34 47z" />
<glyph unicode="&#x154;" horiz-adv-x="689" d="M575 924l11 2q24 -11 37.5 -23.5t13.5 -29.5q0 -25 -38 -45.5t-101.5 -33.5t-139.5 -17l-6 18q67 30 128 65.5t95 63.5zM366 581l-53 -247h48q60 0 103 27t65 71t22 94q0 56 -32.5 86t-88.5 30h-51zM252 48l69 -28l-4 -20h-268l-2 20l48 18q17 7 27.5 16t13.5 28l7 25h-1 l101 474l12 59l-68 28l4 20h255q111 0 171 -44t60 -122q0 -66 -45.5 -119t-112.5 -82l45 -136q18 -57 38 -96t51 -55l30 -14l-5 -20l-122 -3q-40 0 -57.5 16.5t-27.5 49.5l-69 227q-15 -1 -29 -1h-69l-39 -182z" />
<glyph unicode="&#x155;" horiz-adv-x="447" d="M408 759l10 4q5 0 10.5 -0.5t10.5 -1.5q59 -9 59 -39q0 -18 -21 -40t-56.5 -43.5t-79 -39.5t-87.5 -29l-10 16q33 28 65 60t58 61.5t41 51.5zM95 16l29 138q20 91 31.5 143t16.5 76.5t5 33.5q0 23 -18 23q-16 0 -39 -21.5t-44 -45.5l-9 8q15 30 38.5 62t52.5 53.5 t62 21.5q35 0 53 -20t18 -53q0 -23 -11 -70.5t-24 -96.5q17 37 39 78.5t47 78.5t53 60t57 23q25 0 38 -14.5t13 -36.5q0 -31 -13 -61.5t-25 -44.5q-14 11 -29.5 20.5t-35.5 9.5q-24 0 -48.5 -24t-46 -59.5t-37 -70t-20.5 -56.5l-4 -17l-33 -155l-54 -4q-12 0 -28.5 -1.5 t-23.5 -1.5q-9 0 -10.5 6.5t0.5 17.5z" />
<glyph unicode="&#x156;" horiz-adv-x="689" d="M366 581l-53 -247h48q60 0 103 27t65 71t22 94q0 56 -32.5 86t-88.5 30h-51zM414 -153q0 -34 -20 -70t-54 -68t-75 -50l-9 9q47 55 66 110q-18 3 -29.5 17t-11.5 35q0 33 22.5 55.5t54.5 22.5q25 0 40.5 -17t15.5 -44zM252 48l69 -28l-4 -20h-268l-2 20l48 18 q17 7 27.5 16t13.5 28l7 25h-1l101 474l12 59l-68 28l4 20h255q111 0 171 -44t60 -122q0 -66 -45.5 -119t-112.5 -82l45 -136q18 -57 38 -96t51 -55l30 -14l-5 -20l-122 -3q-40 0 -57.5 16.5t-27.5 49.5l-69 227q-15 -1 -29 -1h-69l-39 -182z" />
<glyph unicode="&#x157;" horiz-adv-x="447" d="M95 16l29 138q20 91 31.5 143t16.5 76.5t5 33.5q0 23 -18 23q-16 0 -39 -21.5t-44 -45.5l-9 8q15 30 38.5 62t52.5 53.5t62 21.5q35 0 53 -20t18 -53q0 -23 -11 -70.5t-24 -96.5q17 37 39 78.5t47 78.5t53 60t57 23q25 0 38 -14.5t13 -36.5q0 -31 -13 -61.5t-25 -44.5 q-14 11 -29.5 20.5t-35.5 9.5q-24 0 -48.5 -24t-46 -59.5t-37 -70t-20.5 -56.5l-4 -17l-33 -155l-54 -4q-12 0 -28.5 -1.5t-23.5 -1.5q-9 0 -10.5 6.5t0.5 17.5zM186 -153q0 -34 -20 -70t-54 -68t-75 -50l-9 9q48 55 66 110q-18 3 -29.5 17t-11.5 35q0 33 23 55.5t55 22.5 q25 0 40 -17t15 -44z" />
<glyph unicode="&#x158;" horiz-adv-x="689" d="M518 778l-10 -6h-71q-22 34 -43.5 73t-38.5 74l18 11q25 -19 54 -40t58 -39q38 18 85 39.5t90 39.5l10 -13q-41 -36 -84 -74.5t-68 -64.5zM366 581l-53 -247h48q60 0 103 27t65 71t22 94q0 56 -32.5 86t-88.5 30h-51zM252 48l69 -28l-4 -20h-268l-2 20l48 18 q17 7 27.5 16t13.5 28l7 25h-1l101 474l12 59l-68 28l4 20h255q111 0 171 -44t60 -122q0 -66 -45.5 -119t-112.5 -82l45 -136q18 -57 38 -96t51 -55l30 -14l-5 -20l-122 -3q-40 0 -57.5 16.5t-27.5 49.5l-69 227q-15 -1 -29 -1h-69l-39 -182z" />
<glyph unicode="&#x159;" horiz-adv-x="447" d="M392 581l-10 -6h-71q-20 39 -38.5 84.5t-33.5 87.5l17 10q24 -24 51 -50t55 -49q35 23 79 50t84 49l11 -13q-26 -27 -53.5 -57.5t-51 -58t-39.5 -47.5zM95 16l29 138q20 91 31.5 143t16.5 76.5t5 33.5q0 23 -18 23q-16 0 -39 -21.5t-44 -45.5l-9 8q15 30 38.5 62 t52.5 53.5t62 21.5q35 0 53 -20t18 -53q0 -23 -11 -70.5t-24 -96.5q17 37 39 78.5t47 78.5t53 60t57 23q25 0 38 -14.5t13 -36.5q0 -31 -13 -61.5t-25 -44.5q-14 11 -29.5 20.5t-35.5 9.5q-24 0 -48.5 -24t-46 -59.5t-37 -70t-20.5 -56.5l-4 -17l-33 -155l-54 -4 q-12 0 -28.5 -1.5t-23.5 -1.5q-9 0 -10.5 6.5t0.5 17.5z" />
<glyph unicode="&#x15a;" horiz-adv-x="509" d="M503 924l10 2q24 -11 37.5 -23.5t13.5 -29.5q0 -25 -37.5 -45.5t-101 -33.5t-140.5 -17l-5 18q66 30 127 65.5t96 63.5zM240 -10q-43 0 -82.5 4.5t-67 13t-33.5 19.5q-6 10 -6 27q0 30 15 71t38 74l24 -2q-1 -6 -1 -12v-11q0 -70 22 -103q15 -21 40 -29.5t56 -8.5 q59 0 97 37.5t38 92.5q0 35 -17.5 62.5t-45 51t-58.5 47t-58.5 49.5t-45 58.5t-17.5 74.5q0 59 37 102t95.5 66.5t123.5 23.5q67 0 109.5 -12t54.5 -24q8 -6 8 -21q0 -18 -8 -45t-20.5 -55.5t-27.5 -50.5l-24 1q1 8 1 15v14q0 62 -13 88q-12 21 -33 33.5t-58 12.5 q-53 0 -89.5 -34t-36.5 -85q0 -34 17.5 -61.5t45 -51.5t58.5 -48t58.5 -50t45 -57.5t17.5 -72.5q0 -59 -32 -105t-90 -72.5t-137 -26.5z" />
<glyph unicode="&#x15b;" horiz-adv-x="419" d="M385 759l10 4q5 0 10.5 -0.5t10.5 -1.5q60 -9 60 -39q0 -18 -21.5 -40t-56.5 -43.5t-78.5 -39.5t-88.5 -29l-9 16q33 28 65 60t57.5 61.5t40.5 51.5zM398 139q0 -65 -50.5 -107t-143.5 -42q-44 0 -79.5 11t-57 31.5t-21.5 50.5q0 32 23 55.5t55 34.5l10 -8 q-2 -14 -2.5 -27t0.5 -27q8 -38 28.5 -61t54.5 -23q31 0 50.5 19t19.5 52q0 29 -17 53.5t-42.5 47t-51 46.5t-43 53.5t-17.5 68.5q0 41 24.5 73t66 50t93.5 18q72 0 109.5 -26.5t37.5 -63.5q0 -30 -19.5 -54t-49.5 -35l-10 8q1 31 -2 56q-6 38 -23 58t-46 20t-48 -18.5 t-19 -47.5q0 -30 17.5 -54.5t42.5 -48t50.5 -48t42.5 -52.5t17 -63z" />
<glyph unicode="&#x15c;" horiz-adv-x="509" d="M580 784l-17 -10q-28 19 -61 39.5t-66 38.5q-35 -17 -79 -38.5t-83 -39.5l-10 13q39 35 79.5 73.5t63.5 63.5l10 6h70q25 -34 50 -72.5t43 -73.5zM240 -10q-43 0 -82.5 4.5t-67 13t-33.5 19.5q-6 10 -6 27q0 30 15 71t38 74l24 -2q-1 -6 -1 -12v-11q0 -70 22 -103 q15 -21 40 -29.5t56 -8.5q59 0 97 37.5t38 92.5q0 35 -17.5 62.5t-45 51t-58.5 47t-58.5 49.5t-45 58.5t-17.5 74.5q0 59 37 102t95.5 66.5t123.5 23.5q67 0 109.5 -12t54.5 -24q8 -6 8 -21q0 -18 -8 -45t-20.5 -55.5t-27.5 -50.5l-24 1q1 8 1 15v14q0 62 -13 88 q-12 21 -33 33.5t-58 12.5q-53 0 -89.5 -34t-36.5 -85q0 -34 17.5 -61.5t45 -51.5t58.5 -48t58.5 -50t45 -57.5t17.5 -72.5q0 -59 -32 -105t-90 -72.5t-137 -26.5z" />
<glyph unicode="&#x15d;" horiz-adv-x="419" d="M459 585l-17 -10q-25 24 -54.5 50t-59.5 49q-33 -23 -73 -50t-76 -49l-10 13q23 27 47.5 57.5t46 58t35.5 47.5l10 6h72q21 -39 42 -84.5t37 -87.5zM398 139q0 -65 -50.5 -107t-143.5 -42q-44 0 -79.5 11t-57 31.5t-21.5 50.5q0 32 23 55.5t55 34.5l10 -8 q-2 -14 -2.5 -27t0.5 -27q8 -38 28.5 -61t54.5 -23q31 0 50.5 19t19.5 52q0 29 -17 53.5t-42.5 47t-51 46.5t-43 53.5t-17.5 68.5q0 41 24.5 73t66 50t93.5 18q72 0 109.5 -26.5t37.5 -63.5q0 -30 -19.5 -54t-49.5 -35l-10 8q1 31 -2 56q-6 38 -23 58t-46 20t-48 -18.5 t-19 -47.5q0 -30 17.5 -54.5t42.5 -48t50.5 -48t42.5 -52.5t17 -63z" />
<glyph unicode="&#x15e;" horiz-adv-x="509" d="M335 -125q0 -43 -57 -75t-147 -39l-2 13q43 13 70.5 36.5t27.5 45.5q0 29 -42 35l-3 8l36 91q-39 2 -73.5 6.5t-58 12.5t-29.5 18t-6 27q0 30 15 71t38 74l24 -2q-1 -6 -1 -12v-11q0 -70 22 -103q15 -21 40 -29.5t56 -8.5q59 0 97 37.5t38 92.5q0 35 -17.5 62.5t-45 51 t-58.5 47t-58.5 49.5t-45 58.5t-17.5 74.5q0 59 37 102t95.5 66.5t123.5 23.5q67 0 109.5 -12t54.5 -24q8 -6 8 -21q0 -18 -8 -45t-20.5 -55.5t-27.5 -50.5l-24 1q1 8 1 15v14q0 62 -13 88q-12 21 -33 33.5t-58 12.5q-53 0 -89.5 -34t-36.5 -85q0 -34 17.5 -61.5t45 -51.5 t58.5 -48t58.5 -50t45 -57.5t17.5 -72.5q0 -55 -28.5 -99.5t-80.5 -72t-124 -31.5l-21 -52q44 -5 67 -21.5t23 -42.5z" />
<glyph unicode="&#x15f;" horiz-adv-x="419" d="M296 -125q0 -43 -57 -75t-147 -39l-2 13q43 13 70.5 36.5t27.5 45.5q0 29 -42 35l-4 8l37 92q-57 4 -95 28t-38 64q0 32 23 55.5t55 34.5l10 -8q-2 -14 -2.5 -27t0.5 -27q8 -38 28.5 -61t54.5 -23q31 0 50.5 19t19.5 52q0 29 -17 53.5t-42.5 47t-51 46.5t-43 53.5 t-17.5 68.5q0 41 24.5 73t66 50t93.5 18q72 0 109.5 -26.5t37.5 -63.5q0 -30 -19.5 -54t-49.5 -35l-10 8q1 31 -2 56q-6 38 -23 58t-46 20t-48 -18.5t-19 -47.5q0 -30 17.5 -54.5t42.5 -48t50.5 -48t42.5 -52.5t17 -63q0 -61 -44.5 -102t-127.5 -46l-20 -52 q43 -5 66.5 -21.5t23.5 -42.5z" />
<glyph unicode="&#x160;" horiz-adv-x="509" d="M451 778l-10 -6h-71q-22 34 -43.5 73t-37.5 74l17 11q25 -19 54 -40t58 -39q38 18 85 39.5t90 39.5l10 -13q-41 -36 -83.5 -74.5t-68.5 -64.5zM240 -10q-43 0 -82.5 4.5t-67 13t-33.5 19.5q-6 10 -6 27q0 30 15 71t38 74l24 -2q-1 -6 -1 -12v-11q0 -70 22 -103 q15 -21 40 -29.5t56 -8.5q59 0 97 37.5t38 92.5q0 35 -17.5 62.5t-45 51t-58.5 47t-58.5 49.5t-45 58.5t-17.5 74.5q0 59 37 102t95.5 66.5t123.5 23.5q67 0 109.5 -12t54.5 -24q8 -6 8 -21q0 -18 -8 -45t-20.5 -55.5t-27.5 -50.5l-24 1q1 8 1 15v14q0 62 -13 88 q-12 21 -33 33.5t-58 12.5q-53 0 -89.5 -34t-36.5 -85q0 -34 17.5 -61.5t45 -51.5t58.5 -48t58.5 -50t45 -57.5t17.5 -72.5q0 -59 -32 -105t-90 -72.5t-137 -26.5z" />
<glyph unicode="&#x161;" horiz-adv-x="419" d="M373 581l-10 -6h-72q-19 39 -38 84.5t-34 87.5l17 10q24 -24 51 -50t55 -49q35 23 79 50t84 49l11 -13q-26 -27 -53 -57.5t-51 -58t-39 -47.5zM398 139q0 -65 -50.5 -107t-143.5 -42q-44 0 -79.5 11t-57 31.5t-21.5 50.5q0 32 23 55.5t55 34.5l10 -8q-2 -14 -2.5 -27 t0.5 -27q8 -38 28.5 -61t54.5 -23q31 0 50.5 19t19.5 52q0 29 -17 53.5t-42.5 47t-51 46.5t-43 53.5t-17.5 68.5q0 41 24.5 73t66 50t93.5 18q72 0 109.5 -26.5t37.5 -63.5q0 -30 -19.5 -54t-49.5 -35l-10 8q1 31 -2 56q-6 38 -23 58t-46 20t-48 -18.5t-19 -47.5 q0 -30 17.5 -54.5t42.5 -48t50.5 -48t42.5 -52.5t17 -63z" />
<glyph unicode="&#x162;" horiz-adv-x="613" d="M366 48l69 -28l-4 -20h-112l-24 -61q43 -5 66 -21.5t23 -42.5q0 -43 -56.5 -75t-147.5 -39l-2 13q43 13 70.5 36.5t27.5 45.5q0 29 -42 35l-3 8l40 101h-108l-2 20l48 18q17 7 27.5 16t13.5 28l7 25h-1l114 536h-42q-22 0 -46.5 -2t-42.5 -5q-12 -16 -26.5 -37.5 t-29.5 -50.5l-41 -68h-24q1 51 13.5 107.5t28.5 100.5h561q-2 -44 -14.5 -101.5t-31.5 -106.5h-23l-13 68q-4 28 -9 50t-10 38q-17 3 -40.5 5t-45.5 2h-41l-114 -536z" />
<glyph unicode="&#x163;" horiz-adv-x="373" d="M291 -125q0 -43 -57 -75t-148 -39l-2 13q44 13 71.5 36.5t27.5 45.5q0 29 -43 35l-3 8l37 93q-36 7 -55 35.5t-19 71.5q0 13 1.5 27t4.5 29l61 288h-73l2 17l83 38l133 142l16 -2l-33 -154h139l-9 -41h-138l-59 -274q-2 -12 -3.5 -22.5t-1.5 -21.5q0 -55 43 -55 q30 0 62.5 22.5t64.5 55.5l9 -7q-29 -54 -74.5 -97t-105.5 -52l-21 -53q43 -5 66.5 -21.5t23.5 -42.5z" />
<glyph unicode="&#x164;" horiz-adv-x="613" d="M500 778l-10 -6h-72q-22 34 -43 73.5t-38 74.5l17 10q25 -19 54 -40t59 -39q38 18 85 39.5t89 39.5l11 -13q-41 -35 -84 -74t-68 -65zM366 48l69 -28l-4 -20h-268l-2 20l48 18q17 7 27.5 16t13.5 28l7 25h-1l114 536h-42q-22 0 -46.5 -2t-42.5 -5q-12 -16 -26.5 -37.5 t-29.5 -50.5l-41 -68h-24q1 51 13.5 107.5t28.5 100.5h561q-2 -44 -14.5 -101.5t-31.5 -106.5h-23l-13 68q-4 28 -9 50t-10 38q-17 3 -40.5 5t-45.5 2h-41l-114 -536z" />
<glyph unicode="&#x165;" horiz-adv-x="373" d="M526 701q0 -29 -17.5 -60.5t-48 -59t-67.5 -43.5l-7 8q44 49 60 96q-16 3 -26.5 15t-10.5 30q0 28 20 47t49 19q21 0 34.5 -14t13.5 -38zM195 -10q-47 0 -71 30t-24 79q0 13 1.5 27t4.5 29l61 288h-73l2 17l83 38l133 142l16 -2l-33 -154h139l-9 -41h-138l-59 -274 q-2 -12 -3.5 -22.5t-1.5 -21.5q0 -55 43 -55q30 0 62.5 22.5t64.5 55.5l9 -7q-21 -40 -51.5 -74.5t-69.5 -55.5t-86 -21z" />
<glyph unicode="&#x166;" horiz-adv-x="613" d="M366 48l69 -28l-4 -20h-268l-2 20l48 18q17 7 27.5 16t13.5 28l7 25h-1l48 228h-130l9 42h130l57 266h-42q-22 0 -46.5 -2t-42.5 -5q-12 -16 -26.5 -37.5t-29.5 -50.5l-41 -68h-24q1 51 13.5 107.5t28.5 100.5h561q-2 -44 -14.5 -101.5t-31.5 -106.5h-23l-13 68 q-4 28 -9 50t-10 38q-17 3 -40.5 5t-45.5 2h-41l-57 -266h136l-8 -42h-137l-48 -228z" />
<glyph unicode="&#x167;" horiz-adv-x="373" d="M195 -10q-47 0 -71 30t-24 79q0 13 1.5 27t4.5 29l28 132h-63l8 42h64l24 114h-73l2 17l83 38l133 142l16 -2l-33 -154h139l-9 -41h-138l-25 -114h147l-7 -42h-149l-25 -118q-2 -12 -3.5 -22.5t-1.5 -21.5q0 -55 43 -55q30 0 62.5 22.5t64.5 55.5l9 -7 q-21 -40 -51.5 -74.5t-69.5 -55.5t-86 -21z" />
<glyph unicode="&#x168;" horiz-adv-x="679" d="M408 840q-14 -7 -32.5 -23t-42.5 -37l-13 7q22 64 58.5 100t84.5 36q36 0 68.5 -14t63.5 -28t61 -17q14 8 32.5 23.5t42.5 36.5l13 -6q-22 -64 -59 -100t-85 -36q-35 0 -68 13.5t-64 28t-60 16.5zM624 246q-26 -125 -91.5 -190.5t-179.5 -65.5q-97 0 -156.5 49.5 t-59.5 142.5q0 14 1.5 33t5.5 39l69 327l13 59l-69 28l4 20h269l2 -20l-49 -18q-17 -7 -27 -16.5t-14 -27.5l-6 -25v0l-70 -332q-4 -18 -5.5 -35t-1.5 -33q0 -68 34.5 -105t93.5 -37q67 0 115.5 50t71.5 156l73 342l11 49l-84 29l4 23h219l2 -23l-92 -29l-11 -49z" />
<glyph unicode="&#x169;" horiz-adv-x="595" d="M289 655q-14 -8 -31.5 -24.5t-39.5 -38.5l-11 5q21 67 58 104.5t84 37.5q33 0 62.5 -14t57.5 -29t55 -18q13 8 30.5 24.5t39.5 38.5l11 -5q-21 -67 -57.5 -104.5t-84.5 -37.5q-33 0 -63 14.5t-58 29.5t-53 17zM170 344q4 20 7 37t3 27q0 22 -17 22t-40.5 -21.5 t-43.5 -45.5l-9 8q16 31 39.5 62.5t53 53t63.5 21.5q37 0 56 -22t19 -60q0 -15 -3 -36t-9 -46q-12 -47 -23.5 -92t-19.5 -81t-8 -54q0 -35 24 -35q19 0 43.5 26t50.5 67.5t48 91t37 96.5l29 138l54 4q12 1 28.5 2t23.5 1q10 0 11 -6.5t-1 -16.5l-29 -139l-42 -192 q-4 -20 -7.5 -37t-3.5 -27q0 -23 18 -23q16 0 39.5 22t43.5 46l9 -8q-15 -31 -38.5 -62.5t-53.5 -53t-64 -21.5q-37 0 -56 22t-19 59q0 16 3.5 36.5t9.5 46.5l13 61h-3q-17 -39 -39.5 -78.5t-50 -73t-57 -53.5t-60.5 -20q-40 0 -61.5 25.5t-21.5 68.5q0 29 9 72t22 92t23 96 z" />
<glyph unicode="&#x16a;" horiz-adv-x="679" d="M384 818l13 62h303l-13 -62h-303zM624 246q-26 -125 -91.5 -190.5t-179.5 -65.5q-97 0 -156.5 49.5t-59.5 142.5q0 14 1.5 33t5.5 39l69 327l13 59l-69 28l4 20h269l2 -20l-49 -18q-17 -7 -27 -16.5t-14 -27.5l-6 -25v0l-70 -332q-4 -18 -5.5 -35t-1.5 -33 q0 -68 34.5 -105t93.5 -37q67 0 115.5 50t71.5 156l73 342l11 49l-84 29l4 23h219l2 -23l-92 -29l-11 -49z" />
<glyph unicode="&#x16b;" horiz-adv-x="595" d="M251 630l14 61h289l-14 -61h-289zM170 344q4 20 7 37t3 27q0 22 -17 22t-40.5 -21.5t-43.5 -45.5l-9 8q16 31 39.5 62.5t53 53t63.5 21.5q37 0 56 -22t19 -60q0 -15 -3 -36t-9 -46q-12 -47 -23.5 -92t-19.5 -81t-8 -54q0 -35 24 -35q19 0 43.5 26t50.5 67.5t48 91 t37 96.5l29 138l54 4q12 1 28.5 2t23.5 1q10 0 11 -6.5t-1 -16.5l-29 -139l-42 -192q-4 -20 -7.5 -37t-3.5 -27q0 -23 18 -23q16 0 39.5 22t43.5 46l9 -8q-15 -31 -38.5 -62.5t-53.5 -53t-64 -21.5q-37 0 -56 22t-19 59q0 16 3.5 36.5t9.5 46.5l13 61h-3 q-17 -39 -39.5 -78.5t-50 -73t-57 -53.5t-60.5 -20q-40 0 -61.5 25.5t-21.5 68.5q0 29 9 72t22 92t23 96z" />
<glyph unicode="&#x16c;" horiz-adv-x="679" d="M665 917l5 2l17 -6q-23 -63 -66.5 -97t-101.5 -34t-81.5 39t-15.5 95l20 4q4 -29 28.5 -45t64.5 -16q90 0 130 58zM624 246q-26 -125 -91.5 -190.5t-179.5 -65.5q-97 0 -156.5 49.5t-59.5 142.5q0 14 1.5 33t5.5 39l69 327l13 59l-69 28l4 20h269l2 -20l-49 -18 q-17 -7 -27 -16.5t-14 -27.5l-6 -25v0l-70 -332q-4 -18 -5.5 -35t-1.5 -33q0 -68 34.5 -105t93.5 -37q67 0 115.5 50t71.5 156l73 342l11 49l-84 29l4 23h219l2 -23l-92 -29l-11 -49z" />
<glyph unicode="&#x16d;" horiz-adv-x="595" d="M542 743l5 2l17 -4q-22 -70 -68 -111t-102 -41t-79.5 44.5t-16.5 108.5l21 3q4 -35 28.5 -55.5t64.5 -20.5q43 0 77 19t53 55zM170 344q4 20 7 37t3 27q0 22 -17 22t-40.5 -21.5t-43.5 -45.5l-9 8q16 31 39.5 62.5t53 53t63.5 21.5q37 0 56 -22t19 -60q0 -15 -3 -36 t-9 -46q-12 -47 -23.5 -92t-19.5 -81t-8 -54q0 -35 24 -35q19 0 43.5 26t50.5 67.5t48 91t37 96.5l29 138l54 4q12 1 28.5 2t23.5 1q10 0 11 -6.5t-1 -16.5l-29 -139l-42 -192q-4 -20 -7.5 -37t-3.5 -27q0 -23 18 -23q16 0 39.5 22t43.5 46l9 -8q-15 -31 -38.5 -62.5 t-53.5 -53t-64 -21.5q-37 0 -56 22t-19 59q0 16 3.5 36.5t9.5 46.5l13 61h-3q-17 -39 -39.5 -78.5t-50 -73t-57 -53.5t-60.5 -20q-40 0 -61.5 25.5t-21.5 68.5q0 29 9 72t22 92t23 96z" />
<glyph unicode="&#x16e;" horiz-adv-x="679" d="M645 868q0 -43 -36 -73t-87 -30q-38 0 -60.5 19t-22.5 52q0 42 36 71.5t87 29.5q38 0 60.5 -18.5t22.5 -50.5zM492 836q0 -17 10.5 -28t27.5 -11q26 0 44 20t18 49q0 18 -10.5 28.5t-27.5 10.5q-26 0 -44 -20t-18 -49zM624 246q-26 -125 -91.5 -190.5t-179.5 -65.5 q-97 0 -156.5 49.5t-59.5 142.5q0 14 1.5 33t5.5 39l69 327l13 59l-69 28l4 20h269l2 -20l-49 -18q-17 -7 -27 -16.5t-14 -27.5l-6 -25v0l-70 -332q-4 -18 -5.5 -35t-1.5 -33q0 -68 34.5 -105t93.5 -37q67 0 115.5 50t71.5 156l73 342l11 49l-84 29l4 23h219l2 -23l-92 -29 l-11 -49z" />
<glyph unicode="&#x16f;" horiz-adv-x="595" d="M511 683q0 -43 -36 -73t-88 -30q-38 0 -60 19t-22 52q0 43 35.5 72.5t87.5 29.5q38 0 60.5 -19t22.5 -51zM358 652q0 -18 10.5 -29t27.5 -11q26 0 44 20t18 50q0 17 -10.5 28t-28.5 11q-26 0 -43.5 -20t-17.5 -49zM170 344q4 20 7 37t3 27q0 22 -17 22t-40.5 -21.5 t-43.5 -45.5l-9 8q16 31 39.5 62.5t53 53t63.5 21.5q37 0 56 -22t19 -60q0 -15 -3 -36t-9 -46q-12 -47 -23.5 -92t-19.5 -81t-8 -54q0 -35 24 -35q19 0 43.5 26t50.5 67.5t48 91t37 96.5l29 138l54 4q12 1 28.5 2t23.5 1q10 0 11 -6.5t-1 -16.5l-29 -139l-42 -192 q-4 -20 -7.5 -37t-3.5 -27q0 -23 18 -23q16 0 39.5 22t43.5 46l9 -8q-15 -31 -38.5 -62.5t-53.5 -53t-64 -21.5q-37 0 -56 22t-19 59q0 16 3.5 36.5t9.5 46.5l13 61h-3q-17 -39 -39.5 -78.5t-50 -73t-57 -53.5t-60.5 -20q-40 0 -61.5 25.5t-21.5 68.5q0 29 9 72t22 92t23 96 z" />
<glyph unicode="&#x170;" horiz-adv-x="679" d="M501 925l11 2q24 -4 40.5 -16.5t16.5 -30.5q0 -38 -72.5 -64.5t-191.5 -37.5l-7 17q63 30 116.5 66.5t86.5 63.5zM757 925l11 2q24 -4 40.5 -16.5t16.5 -30.5q0 -38 -72.5 -64.5t-191.5 -37.5l-7 17q63 30 116.5 66.5t86.5 63.5zM624 246q-26 -125 -91.5 -190.5 t-179.5 -65.5q-97 0 -156.5 49.5t-59.5 142.5q0 14 1.5 33t5.5 39l69 327l13 59l-69 28l4 20h269l2 -20l-49 -18q-17 -7 -27 -16.5t-14 -27.5l-6 -25v0l-70 -332q-4 -18 -5.5 -35t-1.5 -33q0 -68 34.5 -105t93.5 -37q67 0 115.5 50t71.5 156l73 342l11 49l-84 29l4 23h219 l2 -23l-92 -29l-11 -49z" />
<glyph unicode="&#x171;" horiz-adv-x="595" d="M362 759l10 4q5 0 10.5 -0.5t10.5 -1.5q48 -9 48 -39q0 -18 -20.5 -40t-54 -43.5t-75 -39.5t-83.5 -29l-10 16q34 28 65.5 60t57.5 61.5t41 51.5zM552 759l10 4q5 0 10.5 -0.5t10.5 -1.5q48 -10 48 -39q0 -18 -20.5 -40t-54.5 -43.5t-75 -39.5t-83 -29l-10 16 q33 28 65 60t57.5 61.5t41.5 51.5zM170 344q4 20 7 37t3 27q0 22 -17 22t-40.5 -21.5t-43.5 -45.5l-9 8q16 31 39.5 62.5t53 53t63.5 21.5q37 0 56 -22t19 -60q0 -15 -3 -36t-9 -46q-12 -47 -23.5 -92t-19.5 -81t-8 -54q0 -35 24 -35q19 0 43.5 26t50.5 67.5t48 91t37 96.5 l29 138l54 4q12 1 28.5 2t23.5 1q10 0 11 -6.5t-1 -16.5l-29 -139l-42 -192q-4 -20 -7.5 -37t-3.5 -27q0 -23 18 -23q16 0 39.5 22t43.5 46l9 -8q-15 -31 -38.5 -62.5t-53.5 -53t-64 -21.5q-37 0 -56 22t-19 59q0 16 3.5 36.5t9.5 46.5l13 61h-3q-17 -39 -39.5 -78.5 t-50 -73t-57 -53.5t-60.5 -20q-40 0 -61.5 25.5t-21.5 68.5q0 29 9 72t22 92t23 96z" />
<glyph unicode="&#x172;" horiz-adv-x="679" d="M624 246q-17 -81 -50.5 -137.5t-85.5 -86.5q-74 -48 -113.5 -84.5t-39.5 -70.5q0 -29 25 -29q16 0 34.5 16t33.5 37l10 -8q-20 -51 -54 -86.5t-79 -35.5q-33 0 -53 20t-20 55q0 47 40.5 86t108.5 69q-13 -1 -28 -1q-97 0 -156.5 49.5t-59.5 142.5q0 14 1.5 33t5.5 39 l69 327l13 59l-69 28l4 20h269l2 -20l-49 -18q-17 -7 -27 -16.5t-14 -27.5l-6 -25v0l-70 -332q-4 -18 -5.5 -35t-1.5 -33q0 -68 34.5 -105t93.5 -37q67 0 115.5 50t71.5 156l73 342l11 49l-84 29l4 23h219l2 -23l-92 -29l-11 -49z" />
<glyph unicode="&#x173;" horiz-adv-x="595" d="M170 344q4 20 7 37t3 27q0 22 -17 22t-40.5 -21.5t-43.5 -45.5l-9 8q16 31 39.5 62.5t53 53t63.5 21.5q37 0 56 -22t19 -60q0 -15 -3 -36t-9 -46q-12 -47 -23.5 -92t-19.5 -81t-8 -54q0 -35 24 -35q19 0 43.5 26t50.5 67.5t48 91t37 96.5l29 138l54 4q12 1 28.5 2t23.5 1 q10 0 11 -6.5t-1 -16.5l-29 -139l-42 -192q-4 -20 -7.5 -37t-3.5 -27q0 -23 18 -23q16 0 39.5 22t43.5 46l9 -8q-8 -17 -19 -35t-25 -34l3 2q-40 -51 -71 -86.5t-48.5 -61.5t-17.5 -48q0 -26 23 -26q16 0 33 17t32 36l9 -8q-19 -50 -52.5 -86t-78.5 -36q-30 0 -50 18t-20 50 t20 59.5t51.5 52.5t66.5 50q-6 -1 -12 -1q-37 0 -56 22t-19 59q0 16 3.5 36.5t9.5 46.5l13 61h-3q-17 -39 -39.5 -78.5t-50 -73t-57 -53.5t-60.5 -20q-40 0 -61.5 25.5t-21.5 68.5q0 29 9 72t22 92t23 96z" />
<glyph unicode="&#x174;" horiz-adv-x="1048" d="M844 784l-17 -10q-28 19 -60.5 39.5t-66.5 38.5q-35 -17 -78.5 -38.5t-83.5 -39.5l-10 13q39 35 79.5 73.5t63.5 63.5l11 6h70q25 -34 49.5 -72.5t42.5 -73.5zM361 0h-75l-66 604q-3 23 -10.5 33t-23.5 16l-42 15l2 20h270l4 -20l-81 -27l51 -500l210 389l-9 74 q-3 23 -10.5 33t-23.5 16l-44 15l4 20h270l4 -20l-81 -27l55 -500l266 501l-80 26l4 20h212l3 -20l-57 -20q-18 -6 -28 -15t-20 -28l-329 -605h-75l-52 451z" />
<glyph unicode="&#x175;" horiz-adv-x="720" d="M596 585l-17 -10q-25 24 -54.5 50t-59.5 49q-32 -23 -72.5 -50t-76.5 -49l-10 13q23 27 47.5 57.5t46 58t35.5 47.5l10 6h72q21 -39 42 -84.5t37 -87.5zM763 437q0 -42 -26.5 -98.5t-70 -118.5t-96 -120.5t-103.5 -105.5l-70 5q5 77 9 135t4 97v40q-34 -80 -82 -151.5 t-108 -125.5l-69 5q5 77 8.5 135t3.5 97q0 78 -4 121t-12.5 60.5t-23.5 17.5q-18 0 -39.5 -21t-41.5 -47l-11 9q17 32 41 63.5t54 52.5t63 21q43 0 65 -37t22 -120q0 -53 -5.5 -127.5t-14.5 -152.5q49 69 80 138t46.5 130t18.5 109q0 15 -2 26.5t-4 21.5q8 4 21.5 8t29.5 4 q43 0 60 -33.5t17 -116.5q0 -56 -5.5 -132t-14.5 -155q44 64 76.5 131t49.5 129t17 109q0 17 -2 31t-4 24q8 5 22.5 9t27.5 4q33 0 53 -18t20 -53z" />
<glyph unicode="&#x176;" horiz-adv-x="663" d="M652 784l-17 -10q-28 19 -61 39.5t-66 38.5q-35 -17 -79 -38.5t-83 -39.5l-10 13q39 35 79.5 73.5t63.5 63.5l10 6h70q25 -34 50 -72.5t43 -73.5zM381 48l69 -28l-4 -20h-269l-2 20l48 18q17 7 27.5 16t14.5 28l6 25v0l22 106q8 40 7 92.5t-9 107.5t-21.5 102t-30 76 t-34.5 29t-39.5 -23t-39.5 -50l-17 12q29 60 69 99.5t85 39.5q38 0 66.5 -29.5t47.5 -80.5t28.5 -117t11.5 -140q37 75 74.5 141t74 117t69 80t59.5 29q25 0 41 -20.5t25 -52t12 -64.5l-18 -6q-11 28 -25 46.5t-32 18.5q-22 0 -54.5 -29.5t-68.5 -78.5t-69.5 -108 t-59 -117.5t-36.5 -106.5l-15 -73z" />
<glyph unicode="&#x177;" horiz-adv-x="493" d="M483 585l-17 -10q-25 24 -54.5 50t-59.5 49q-32 -23 -72 -50t-77 -49l-10 13q23 27 48 57.5t46.5 58t34.5 47.5l11 6h71q22 -39 43 -84.5t36 -87.5zM193 508q49 0 73.5 -39t24.5 -123q0 -71 -15.5 -157t-43.5 -168q61 63 99.5 132.5t56.5 139t18 130.5q0 23 -2.5 40.5 t-5.5 30.5q7 6 20.5 10t28.5 4q75 0 75 -91q0 -74 -36 -154.5t-106 -157.5t-171 -142q-27 -62 -61 -112t-75.5 -79.5t-88.5 -29.5q-43 0 -69 18.5t-26 46.5q0 15 8 26.5t21 16.5q13 -17 27 -28t34 -11q31 0 56.5 27.5t46.5 73.5t37 100q17 56 28.5 114.5t17.5 109.5t6 85 q0 109 -44 109q-17 0 -37 -21t-39 -47l-10 9q15 32 38.5 63.5t52.5 52.5t61 21z" />
<glyph unicode="&#x178;" horiz-adv-x="663" d="M679 860q0 -31 -22 -53.5t-54 -22.5q-27 0 -43 15t-16 39q0 29 22.5 52t55.5 23q24 0 40.5 -14.5t16.5 -38.5zM456 860q0 -31 -22.5 -53.5t-53.5 -22.5q-27 0 -43.5 15t-16.5 39q0 29 22.5 52t56.5 23q24 0 40.5 -14.5t16.5 -38.5zM381 48l69 -28l-4 -20h-269l-2 20 l48 18q17 7 27.5 16t14.5 28l6 25v0l22 106q8 40 7 92.5t-9 107.5t-21.5 102t-30 76t-34.5 29t-39.5 -23t-39.5 -50l-17 12q29 60 69 99.5t85 39.5q38 0 66.5 -29.5t47.5 -80.5t28.5 -117t11.5 -140q37 75 74.5 141t74 117t69 80t59.5 29q25 0 41 -20.5t25 -52t12 -64.5 l-18 -6q-11 28 -25 46.5t-32 18.5q-22 0 -54.5 -29.5t-68.5 -78.5t-69.5 -108t-59 -117.5t-36.5 -106.5l-15 -73z" />
<glyph unicode="&#x179;" horiz-adv-x="626" d="M560 924l11 2q24 -11 37.5 -23.5t13.5 -29.5q0 -25 -38 -45.5t-101.5 -33.5t-140.5 -17l-5 18q67 30 127.5 65.5t95.5 63.5zM550 0h-497l1 41l489 603h-161q-22 0 -45 -1.5t-42 -3.5l-105 -159h-24q0 53 12 109.5t29 98.5h489l-1 -41l-488 -603h169q21 0 44.5 1t41.5 4 l106 158h24q0 -47 -12 -102t-30 -105z" />
<glyph unicode="&#x17a;" horiz-adv-x="431" d="M375 759l10 4q5 0 10.5 -0.5t10.5 -1.5q60 -9 60 -39q0 -18 -21.5 -40t-56.5 -43.5t-78.5 -39.5t-88.5 -29l-9 16q33 28 65 60t57.5 61.5t40.5 51.5zM139 17q-52 0 -92 -27l-26 33q84 91 159.5 172.5t144.5 167.5q-38 12 -77 21t-66 9q-29 0 -46 -16t-38 -55l-13 4 q17 86 38.5 134t67.5 48q32 0 63 -14.5t59 -36.5t49 -45q18 23 35 47t34 49q19 -6 32.5 -18.5t13.5 -29.5q0 -18 -10 -32t-34 -36q-72 -75 -142.5 -143.5t-146.5 -143.5q18 4 37.5 5.5t39.5 1.5t45 -2.5t48.5 -5.5t38.5 -3q14 0 24 8t21 24q13 18 27 40l12 -5 q-6 -24 -14 -52.5t-19 -53.5q-13 -31 -29.5 -51.5t-39.5 -20.5q-20 0 -56.5 7t-74.5 13.5t-65 6.5z" />
<glyph unicode="&#x17b;" horiz-adv-x="626" d="M560 862q0 -35 -26 -60t-63 -25q-29 0 -46.5 15.5t-16.5 40.5q0 34 26 58.5t62 24.5q29 0 46.5 -15t17.5 -39zM550 0h-497l1 41l489 603h-161q-22 0 -45 -1.5t-42 -3.5l-105 -159h-24q0 53 12 109.5t29 98.5h489l-1 -41l-488 -603h169q21 0 44.5 1t41.5 4l106 158h24 q0 -47 -12 -102t-30 -105z" />
<glyph unicode="&#x17c;" horiz-adv-x="431" d="M319 590q-25 0 -41 15.5t-16 42.5q0 37 26 63t61 26q25 0 41.5 -15t16.5 -41q0 -38 -26.5 -64.5t-61.5 -26.5zM139 17q-52 0 -92 -27l-26 33q84 91 159.5 172.5t144.5 167.5q-38 12 -77 21t-66 9q-29 0 -46 -16t-38 -55l-13 4q17 86 38.5 134t67.5 48q32 0 63 -14.5 t59 -36.5t49 -45q18 23 35 47t34 49q19 -6 32.5 -18.5t13.5 -29.5q0 -18 -10 -32t-34 -36q-72 -75 -142.5 -143.5t-146.5 -143.5q18 4 37.5 5.5t39.5 1.5t45 -2.5t48.5 -5.5t38.5 -3q14 0 24 8t21 24q13 18 27 40l12 -5q-6 -24 -14 -52.5t-19 -53.5q-13 -31 -29.5 -51.5 t-39.5 -20.5q-20 0 -56.5 7t-74.5 13.5t-65 6.5z" />
<glyph unicode="&#x17d;" horiz-adv-x="626" d="M509 778l-10 -6h-72q-22 34 -43 73t-38 74l17 11q25 -19 54 -40t59 -39q37 18 84 39.5t90 39.5l11 -13q-42 -36 -84.5 -74.5t-67.5 -64.5zM550 0h-497l1 41l489 603h-161q-22 0 -45 -1.5t-42 -3.5l-105 -159h-24q0 53 12 109.5t29 98.5h489l-1 -41l-488 -603h169 q21 0 44.5 1t41.5 4l106 158h24q0 -47 -12 -102t-30 -105z" />
<glyph unicode="&#x17e;" horiz-adv-x="431" d="M363 581l-10 -6h-72q-19 39 -38 84.5t-34 87.5l18 10q23 -24 50 -50t55 -49q36 23 79.5 50t84.5 49l10 -13q-26 -27 -53 -57.5t-51 -58t-39 -47.5zM139 17q-52 0 -92 -27l-26 33q84 91 159.5 172.5t144.5 167.5q-38 12 -77 21t-66 9q-29 0 -46 -16t-38 -55l-13 4 q17 86 38.5 134t67.5 48q32 0 63 -14.5t59 -36.5t49 -45q18 23 35 47t34 49q19 -6 32.5 -18.5t13.5 -29.5q0 -18 -10 -32t-34 -36q-72 -75 -142.5 -143.5t-146.5 -143.5q18 4 37.5 5.5t39.5 1.5t45 -2.5t48.5 -5.5t38.5 -3q14 0 24 8t21 24q13 18 27 40l12 -5 q-6 -24 -14 -52.5t-19 -53.5q-13 -31 -29.5 -51.5t-39.5 -20.5q-20 0 -56.5 7t-74.5 13.5t-65 6.5z" />
<glyph unicode="&#x18f;" horiz-adv-x="608" d="M629 449q0 -96 -28 -179.5t-78 -146t-116.5 -98t-143.5 -35.5q-90 0 -144 58.5t-54 162.5q0 24 5 55t14 61l17 15h383q18 88 18 167q0 141 -106 141q-46 0 -80.5 -25t-54 -65t-19.5 -83q0 -4 1 -10q-18 -9 -34 -12.5t-30 -3.5q-23 0 -38.5 10t-15.5 31q0 40 23.5 76.5 t63 66t89.5 46.5t104 17q71 0 121 -31.5t76.5 -87.5t26.5 -130zM187 183q0 -71 24 -108.5t69 -37.5q44 0 81.5 37.5t66 98t47.5 130.5l-272 -9q-7 -25 -11.5 -55.5t-4.5 -55.5z" />
<glyph unicode="&#x192;" horiz-adv-x="487" d="M231 -9q-17 -74 -53 -130t-85.5 -87.5t-107.5 -31.5q-40 0 -64 19.5t-24 49.5q0 20 13.5 36.5t35.5 26.5q17 -37 36.5 -58.5t46.5 -21.5q44 0 65.5 50.5t38.5 141.5l58 309h-114l12 54h112l19 100q21 124 88.5 186.5t157.5 62.5q59 0 93 -28.5t34 -65.5q0 -30 -20.5 -47 t-44.5 -22q-10 57 -28 87t-47 30q-43 0 -66.5 -54t-45.5 -144l-25 -105h178l-12 -54h-179z" />
<glyph unicode="&#x19d;" horiz-adv-x="723" d="M11 -170l-13 16q26 28 47.5 52.5t39 52.5t31 64.5t24.5 88.5l111 521q-6 16 -28 24l-44 16l6 23h172l229 -530l90 423l12 55l-85 29l5 23h218l3 -23l-52 -17q-21 -8 -32 -16t-14 -26l-6 -25l-124 -581h-78l-238 552l-101 -477q-14 -64 -36 -105t-55.5 -72.5t-81.5 -67.5z " />
<glyph unicode="&#x1cd;" horiz-adv-x="691" d="M543 778l-10 -6h-71q-22 34 -43.5 73t-38.5 74l18 11q25 -19 54 -40t58 -39q38 18 85 39.5t90 39.5l10 -13q-41 -36 -84 -74.5t-68 -64.5zM447 689h75l75 -605q3 -23 10.5 -33t23.5 -16l42 -15l-2 -20h-270l-4 20l81 27l-21 176l-225 -4l-94 -172l78 -27l-4 -20h-206 l-3 20l57 20q17 6 27.5 15t20.5 28zM255 262l198 -1l-36 297z" />
<glyph unicode="&#x1ce;" horiz-adv-x="553" d="M433 581l-10 -6h-72q-19 39 -38 84.5t-34 87.5l18 10q23 -24 50 -50t55 -49q36 23 79.5 50t84.5 49l10 -13q-26 -27 -53 -57.5t-51 -58t-39 -47.5zM473 154q-4 -20 -7.5 -37t-3.5 -27q0 -23 17 -23t40.5 22t43.5 46l9 -8q-15 -31 -39 -62.5t-53.5 -53t-63.5 -21.5 q-37 0 -56 22t-19 59q0 16 3.5 36.5t8.5 46.5l16 69h-2q-17 -39 -40 -79.5t-50 -75.5t-56.5 -56.5t-59.5 -21.5q-43 0 -70 37t-27 101q0 73 23 141t65.5 122t100 85.5t126.5 31.5q47 0 91.5 -10t76.5 -26l-15 -45zM187 147q0 -29 7.5 -47t23.5 -18q17 0 37 20t41 52t40 69.5 t34.5 73.5t23.5 64l21 85q-23 21 -59 21q-31 0 -61 -29t-54.5 -76.5t-39 -103.5t-14.5 -111z" />
<glyph unicode="&#x1cf;" horiz-adv-x="386" d="M386 778l-10 -6h-71q-22 34 -43.5 73t-38.5 74l17 11q26 -19 55 -40t58 -39q38 18 85 39.5t90 39.5l10 -13q-41 -36 -84 -74.5t-68 -64.5zM252 48l69 -28l-4 -20h-268l-2 20l48 18q17 7 27.5 16t13.5 28l7 25h-1l100 474l13 59l-69 28l4 20h269l2 -20l-49 -18 q-17 -7 -27 -16.5t-14 -27.5l-6 -25v0l-100 -474z" />
<glyph unicode="&#x1d0;" horiz-adv-x="326" d="M291 581l-10 -6h-71q-10 39 -19.5 84.5t-17.5 87.5l17 10q17 -22 35.5 -46.5t37.5 -46.5q28 22 61.5 47t63.5 46l11 -13q-29 -41 -59.5 -87t-48.5 -76zM242 154q-5 -20 -8 -37t-3 -27q0 -23 17 -23t40.5 22t43.5 46l9 -8q-15 -31 -39 -62.5t-53.5 -53t-63.5 -21.5 q-37 0 -56 22t-19 59q0 16 3.5 36.5t8.5 46.5q10 45 22 95t22 95q4 20 7 37t3 27q0 22 -17 22t-40 -21.5t-43 -45.5l-10 8q16 31 39.5 62.5t53.5 53t63 21.5q37 0 56 -22t19 -60q0 -15 -3 -36t-9 -46q-10 -45 -22 -95.5t-21 -94.5z" />
<glyph unicode="&#x1d1;" horiz-adv-x="647" d="M516 778l-10 -6h-72q-22 34 -43 73t-38 74l17 11q25 -19 54 -40t59 -39q38 18 85 39.5t90 39.5l10 -13q-41 -36 -84 -74.5t-68 -64.5zM673 446q0 -88 -27 -169.5t-75 -146t-111.5 -102.5t-136.5 -38q-66 0 -116.5 30.5t-79 87t-28.5 133.5q0 85 27 166.5t75.5 147 t112.5 104.5t138 39q70 0 119.5 -31.5t75.5 -88.5t26 -132zM226 183q0 -65 26 -106t75 -41q39 0 72.5 32.5t60 85.5t46 116t30 125.5t10.5 112.5q0 68 -23.5 106t-73.5 38q-40 0 -74 -30.5t-61.5 -81t-47 -112.5t-30 -125.5t-10.5 -119.5z" />
<glyph unicode="&#x1d2;" horiz-adv-x="489" d="M387 581l-10 -6h-72q-19 39 -37.5 84.5t-33.5 87.5l17 10q24 -24 51 -50t55 -49q35 23 79 50t84 49l11 -13q-26 -27 -53.5 -57.5t-51 -58t-39.5 -47.5zM500 320q0 -72 -21.5 -132.5t-58 -105t-82.5 -68.5t-95 -24q-75 0 -122 51t-47 138q0 68 21 127t57.5 104.5t83 71 t96.5 25.5q80 0 124 -51t44 -136zM197 136q0 -49 13 -78t39 -29q21 0 40.5 23t35 61t27.5 83t18.5 91t6.5 84q0 45 -12 71.5t-39 26.5q-21 0 -40.5 -22t-35.5 -58t-28 -80t-18.5 -89t-6.5 -84z" />
<glyph unicode="&#x1d3;" horiz-adv-x="679" d="M566 778l-10 -6h-72q-21 34 -42.5 73t-38.5 74l17 11q25 -19 54 -40t59 -39q38 18 85 39.5t90 39.5l10 -13q-41 -36 -84 -74.5t-68 -64.5zM624 246q-26 -125 -91.5 -190.5t-179.5 -65.5q-97 0 -156.5 49.5t-59.5 142.5q0 14 1.5 33t5.5 39l69 327l13 59l-69 28l4 20h269 l2 -20l-49 -18q-17 -7 -27 -16.5t-14 -27.5l-6 -25v0l-70 -332q-4 -18 -5.5 -35t-1.5 -33q0 -68 34.5 -105t93.5 -37q67 0 115.5 50t71.5 156l73 342l11 49l-84 29l4 23h219l2 -23l-92 -29l-11 -49z" />
<glyph unicode="&#x1d4;" horiz-adv-x="595" d="M438 581l-10 -6h-71q-20 39 -38.5 84.5t-33.5 87.5l17 10q24 -24 51 -50t55 -49q35 23 79 50t84 49l11 -13q-26 -27 -53.5 -57.5t-51 -58t-39.5 -47.5zM170 344q4 20 7 37t3 27q0 22 -17 22t-40.5 -21.5t-43.5 -45.5l-9 8q16 31 39.5 62.5t53 53t63.5 21.5q37 0 56 -22 t19 -60q0 -15 -3 -36t-9 -46q-12 -47 -23.5 -92t-19.5 -81t-8 -54q0 -35 24 -35q19 0 43.5 26t50.5 67.5t48 91t37 96.5l29 138l54 4q12 1 28.5 2t23.5 1q10 0 11 -6.5t-1 -16.5l-29 -139l-42 -192q-4 -20 -7.5 -37t-3.5 -27q0 -23 18 -23q16 0 39.5 22t43.5 46l9 -8 q-15 -31 -38.5 -62.5t-53.5 -53t-64 -21.5q-37 0 -56 22t-19 59q0 16 3.5 36.5t9.5 46.5l13 61h-3q-17 -39 -39.5 -78.5t-50 -73t-57 -53.5t-60.5 -20q-40 0 -61.5 25.5t-21.5 68.5q0 29 9 72t22 92t23 96z" />
<glyph unicode="&#x1d5;" horiz-adv-x="679" d="M423 1023l13 62h303l-13 -62h-303zM714 860q0 -31 -22 -53.5t-53 -22.5q-27 0 -43.5 15t-16.5 39q0 29 22.5 52t55.5 23q25 0 41 -14.5t16 -38.5zM491 860q0 -31 -22 -53.5t-54 -22.5q-27 0 -43.5 15t-16.5 39q0 29 22.5 52t56.5 23q24 0 40.5 -14.5t16.5 -38.5zM624 246 q-26 -125 -91.5 -190.5t-179.5 -65.5q-97 0 -156.5 49.5t-59.5 142.5q0 14 1.5 33t5.5 39l69 327l13 59l-69 28l4 20h269l2 -20l-49 -18q-17 -7 -27 -16.5t-14 -27.5l-6 -25v0l-70 -332q-4 -18 -5.5 -35t-1.5 -33q0 -68 34.5 -105t93.5 -37q67 0 115.5 50t71.5 156l73 342 l11 49l-84 29l4 23h219l2 -23l-92 -29l-11 -49z" />
<glyph unicode="&#x1d6;" horiz-adv-x="595" d="M300 865l14 62h289l-13 -62h-290zM583 678q0 -33 -21.5 -56.5t-52.5 -23.5q-26 0 -42 16.5t-16 41.5q0 31 22 55t55 24q23 0 39 -15.5t16 -41.5zM364 678q0 -33 -21.5 -56.5t-52.5 -23.5q-26 0 -42 16.5t-16 41.5q0 31 22 55t55 24q23 0 39 -15.5t16 -41.5zM170 344 q4 20 7 37t3 27q0 22 -17 22t-40.5 -21.5t-43.5 -45.5l-9 8q16 31 39.5 62.5t53 53t63.5 21.5q37 0 56 -22t19 -60q0 -15 -3 -36t-9 -46q-12 -47 -23.5 -92t-19.5 -81t-8 -54q0 -35 24 -35q19 0 43.5 26t50.5 67.5t48 91t37 96.5l29 138l54 4q12 1 28.5 2t23.5 1 q10 0 11 -6.5t-1 -16.5l-29 -139l-42 -192q-4 -20 -7.5 -37t-3.5 -27q0 -23 18 -23q16 0 39.5 22t43.5 46l9 -8q-15 -31 -38.5 -62.5t-53.5 -53t-64 -21.5q-37 0 -56 22t-19 59q0 16 3.5 36.5t9.5 46.5l13 61h-3q-17 -39 -39.5 -78.5t-50 -73t-57 -53.5t-60.5 -20 q-40 0 -61.5 25.5t-21.5 68.5q0 29 9 72t22 92t23 96z" />
<glyph unicode="&#x1d7;" horiz-adv-x="679" d="M661 1129l11 2q24 -11 37 -23.5t13 -29.5q0 -25 -37.5 -45.5t-101 -33.5t-140.5 -17l-5 18q67 30 127.5 65.5t95.5 63.5zM491 860q0 -31 -22 -53.5t-54 -22.5q-27 0 -43.5 15t-16.5 39q0 29 22.5 52t56.5 23q24 0 40.5 -14.5t16.5 -38.5zM714 860q0 -31 -22 -53.5 t-53 -22.5q-27 0 -43.5 15t-16.5 39q0 29 22.5 52t55.5 23q25 0 41 -14.5t16 -38.5zM624 246q-26 -125 -91.5 -190.5t-179.5 -65.5q-97 0 -156.5 49.5t-59.5 142.5q0 14 1.5 33t5.5 39l69 327l13 59l-69 28l4 20h269l2 -20l-49 -18q-17 -7 -27 -16.5t-14 -27.5l-6 -25v0 l-70 -332q-4 -18 -5.5 -35t-1.5 -33q0 -68 34.5 -105t93.5 -37q67 0 115.5 50t71.5 156l73 342l11 49l-84 29l4 23h219l2 -23l-92 -29l-11 -49z" />
<glyph unicode="&#x1d8;" horiz-adv-x="595" d="M499 994l10 5q5 -1 10.5 -1.5t10.5 -1.5q59 -9 59 -38q0 -19 -21 -41t-56.5 -43.5t-79 -39.5t-88.5 -29l-9 16q33 28 65 60t57.5 61.5t41.5 51.5zM583 678q0 -33 -21.5 -56.5t-52.5 -23.5q-26 0 -42 16.5t-16 41.5q0 31 22 55t55 24q23 0 39 -15.5t16 -41.5zM364 678 q0 -33 -21.5 -56.5t-52.5 -23.5q-26 0 -42 16.5t-16 41.5q0 31 22 55t55 24q23 0 39 -15.5t16 -41.5zM170 344q4 20 7 37t3 27q0 22 -17 22t-40.5 -21.5t-43.5 -45.5l-9 8q16 31 39.5 62.5t53 53t63.5 21.5q37 0 56 -22t19 -60q0 -15 -3 -36t-9 -46q-12 -47 -23.5 -92 t-19.5 -81t-8 -54q0 -35 24 -35q19 0 43.5 26t50.5 67.5t48 91t37 96.5l29 138l54 4q12 1 28.5 2t23.5 1q10 0 11 -6.5t-1 -16.5l-29 -139l-42 -192q-4 -20 -7.5 -37t-3.5 -27q0 -23 18 -23q16 0 39.5 22t43.5 46l9 -8q-15 -31 -38.5 -62.5t-53.5 -53t-64 -21.5 q-37 0 -56 22t-19 59q0 16 3.5 36.5t9.5 46.5l13 61h-3q-17 -39 -39.5 -78.5t-50 -73t-57 -53.5t-60.5 -20q-40 0 -61.5 25.5t-21.5 68.5q0 29 9 72t22 92t23 96z" />
<glyph unicode="&#x1d9;" horiz-adv-x="679" d="M600 983l-10 -6h-72q-22 34 -43 73t-38 74l17 11q25 -19 54 -40t59 -39q37 18 84 39.5t90 39.5l11 -13q-42 -36 -84.5 -74.5t-67.5 -64.5zM714 860q0 -31 -22 -53.5t-53 -22.5q-27 0 -43.5 15t-16.5 39q0 29 22.5 52t55.5 23q25 0 41 -14.5t16 -38.5zM491 860 q0 -31 -22 -53.5t-54 -22.5q-27 0 -43.5 15t-16.5 39q0 29 22.5 52t56.5 23q24 0 40.5 -14.5t16.5 -38.5zM624 246q-26 -125 -91.5 -190.5t-179.5 -65.5q-97 0 -156.5 49.5t-59.5 142.5q0 14 1.5 33t5.5 39l69 327l13 59l-69 28l4 20h269l2 -20l-49 -18q-17 -7 -27 -16.5 t-14 -27.5l-6 -25v0l-70 -332q-4 -18 -5.5 -35t-1.5 -33q0 -68 34.5 -105t93.5 -37q67 0 115.5 50t71.5 156l73 342l11 49l-84 29l4 23h219l2 -23l-92 -29l-11 -49z" />
<glyph unicode="&#x1da;" horiz-adv-x="595" d="M475 817l-10 -7h-71q-19 40 -38 85.5t-34 86.5l17 11q24 -24 51 -50t55 -49q35 22 79 49.5t84 49.5l11 -13q-26 -28 -53.5 -58t-51 -58t-39.5 -47zM583 678q0 -33 -21.5 -56.5t-52.5 -23.5q-26 0 -42 16.5t-16 41.5q0 31 22 55t55 24q23 0 39 -15.5t16 -41.5zM364 678 q0 -33 -21.5 -56.5t-52.5 -23.5q-26 0 -42 16.5t-16 41.5q0 31 22 55t55 24q23 0 39 -15.5t16 -41.5zM170 344q4 20 7 37t3 27q0 22 -17 22t-40.5 -21.5t-43.5 -45.5l-9 8q16 31 39.5 62.5t53 53t63.5 21.5q37 0 56 -22t19 -60q0 -15 -3 -36t-9 -46q-12 -47 -23.5 -92 t-19.5 -81t-8 -54q0 -35 24 -35q19 0 43.5 26t50.5 67.5t48 91t37 96.5l29 138l54 4q12 1 28.5 2t23.5 1q10 0 11 -6.5t-1 -16.5l-29 -139l-42 -192q-4 -20 -7.5 -37t-3.5 -27q0 -23 18 -23q16 0 39.5 22t43.5 46l9 -8q-15 -31 -38.5 -62.5t-53.5 -53t-64 -21.5 q-37 0 -56 22t-19 59q0 16 3.5 36.5t9.5 46.5l13 61h-3q-17 -39 -39.5 -78.5t-50 -73t-57 -53.5t-60.5 -20q-40 0 -61.5 25.5t-21.5 68.5q0 29 9 72t22 92t23 96z" />
<glyph unicode="&#x1db;" horiz-adv-x="679" d="M700 1001l-10 -18q-37 1 -78.5 6.5t-77.5 16t-58.5 26.5t-22.5 37q0 23 23 39.5t42 23.5l10 -2q16 -18 43 -41t60.5 -46t68.5 -42zM714 860q0 -31 -22 -53.5t-53 -22.5q-27 0 -43.5 15t-16.5 39q0 29 22.5 52t55.5 23q25 0 41 -14.5t16 -38.5zM491 860q0 -31 -22 -53.5 t-54 -22.5q-27 0 -43.5 15t-16.5 39q0 29 22.5 52t56.5 23q24 0 40.5 -14.5t16.5 -38.5zM624 246q-26 -125 -91.5 -190.5t-179.5 -65.5q-97 0 -156.5 49.5t-59.5 142.5q0 14 1.5 33t5.5 39l69 327l13 59l-69 28l4 20h269l2 -20l-49 -18q-17 -7 -27 -16.5t-14 -27.5l-6 -25v0 l-70 -332q-4 -18 -5.5 -35t-1.5 -33q0 -68 34.5 -105t93.5 -37q67 0 115.5 50t71.5 156l73 342l11 49l-84 29l4 23h219l2 -23l-92 -29l-11 -49z" />
<glyph unicode="&#x1dc;" horiz-adv-x="595" d="M519 819l-13 -13q-49 21 -91.5 47t-67.5 53t-24 50q1 22 21.5 32t48.5 10h10.5t10.5 -1l8 -5q13 -32 40 -80t57 -93zM583 678q0 -33 -21.5 -56.5t-52.5 -23.5q-26 0 -42 16.5t-16 41.5q0 31 22 55t55 24q23 0 39 -15.5t16 -41.5zM364 678q0 -33 -21.5 -56.5t-52.5 -23.5 q-26 0 -42 16.5t-16 41.5q0 31 22 55t55 24q23 0 39 -15.5t16 -41.5zM170 344q4 20 7 37t3 27q0 22 -17 22t-40.5 -21.5t-43.5 -45.5l-9 8q16 31 39.5 62.5t53 53t63.5 21.5q37 0 56 -22t19 -60q0 -15 -3 -36t-9 -46q-12 -47 -23.5 -92t-19.5 -81t-8 -54q0 -35 24 -35 q19 0 43.5 26t50.5 67.5t48 91t37 96.5l29 138l54 4q12 1 28.5 2t23.5 1q10 0 11 -6.5t-1 -16.5l-29 -139l-42 -192q-4 -20 -7.5 -37t-3.5 -27q0 -23 18 -23q16 0 39.5 22t43.5 46l9 -8q-15 -31 -38.5 -62.5t-53.5 -53t-64 -21.5q-37 0 -56 22t-19 59q0 16 3.5 36.5 t9.5 46.5l13 61h-3q-17 -39 -39.5 -78.5t-50 -73t-57 -53.5t-60.5 -20q-40 0 -61.5 25.5t-21.5 68.5q0 29 9 72t22 92t23 96z" />
<glyph unicode="&#x1e6;" horiz-adv-x="683" d="M586 778l-10 -6h-72q-22 34 -43 73t-38 74l17 11q25 -19 54 -40t59 -39q37 18 84 39.5t90 39.5l11 -13q-42 -36 -84.5 -74.5t-67.5 -64.5zM407 39q42 0 76 10l35 164l13 59l-69 28l4 20h263l2 -20l-49 -15q-18 -6 -27.5 -16.5t-13.5 -30.5l-6 -25v0l-41 -192 q-40 -15 -90 -23t-109 -8q-136 0 -214 73.5t-78 206.5q0 90 34 167.5t92.5 136t134.5 91.5t160 33q55 0 99.5 -8t79.5 -21q-1 -29 -9.5 -64.5t-20 -70.5t-21.5 -59h-23q-15 58 -25 96.5t-20 69.5q-25 7 -61 7q-55 0 -107.5 -28.5t-94 -79.5t-66.5 -120.5t-25 -151.5 q0 -66 22 -118t61.5 -81.5t93.5 -29.5z" />
<glyph unicode="&#x1e7;" horiz-adv-x="452" d="M363 580l-10 -7h-71q-19 40 -38 85.5t-34 86.5l17 11q24 -24 51 -50t55 -49q35 22 79 49.5t84 49.5l11 -13q-26 -28 -53.5 -58t-51 -57.5t-39.5 -47.5zM303 508q74 0 133 1.5t96 11.5q8 -12 8 -32q0 -17 -10 -31t-34 -14q-19 0 -50 9.5t-64 19.5q32 -18 49 -47t17 -68 q0 -57 -21.5 -97.5t-53.5 -69t-64 -48.5t-54 -35.5t-22 -30.5q0 -14 16.5 -23.5t41.5 -22.5q34 -17 61.5 -33.5t44 -38.5t16.5 -54q0 -42 -30.5 -79.5t-85.5 -60.5t-130 -23q-96 0 -150 33t-54 80q0 37 31.5 65.5t75.5 48.5l12 -10q-10 -11 -16.5 -24t-6.5 -28 q0 -54 38 -90.5t97 -36.5q47 0 79.5 23t32.5 60q0 27 -26.5 45.5t-67.5 41.5q-35 20 -62.5 39.5t-27.5 49.5q0 26 28 49.5t84 53.5q-68 2 -110 41.5t-42 103.5q0 60 29 110t79 80.5t113 30.5zM194 287q0 -49 14 -76.5t40 -27.5q19 0 35 19t28 50t18.5 68t6.5 73 q0 37 -12.5 57t-35.5 20q-28 0 -49 -28.5t-33 -71t-12 -83.5z" />
<glyph unicode="&#x1ea;" horiz-adv-x="647" d="M468 31q-86 -53 -126.5 -91t-40.5 -73q0 -29 24 -29q17 0 35 16t34 37l9 -8q-19 -51 -52.5 -86.5t-77.5 -35.5q-34 0 -54.5 20t-20.5 54q0 47 40 86.5t109 69.5q-12 -1 -24 -1q-66 0 -116.5 30.5t-79 87t-28.5 133.5q0 85 27 166.5t75.5 147t112.5 104.5t138 39 q70 0 119.5 -31.5t75.5 -88.5t26 -132q0 -88 -27 -170t-75.5 -147t-112.5 -101zM226 183q0 -65 26 -106t75 -41q39 0 72.5 32.5t60 85.5t46 116t30 125.5t10.5 112.5q0 68 -23.5 106t-73.5 38q-40 0 -74 -30.5t-61.5 -81t-47 -112.5t-30 -125.5t-10.5 -119.5z" />
<glyph unicode="&#x1eb;" horiz-adv-x="489" d="M399 56q-47 -48 -82 -82t-54.5 -59t-19.5 -49q0 -28 24 -28q15 0 32 16.5t33 36.5l9 -8q-19 -52 -52.5 -87t-79.5 -35q-32 0 -50.5 19t-18.5 52q0 34 24 62.5t60.5 53.5t76.5 51q-29 -9 -58 -9q-75 0 -122 51t-47 138q0 68 21 127t57.5 104.5t83 71t96.5 25.5 q80 0 124 -51t44 -136t-29.5 -154t-76.5 -112zM197 136q0 -49 13 -78t39 -29q21 0 40.5 23t35 61t27.5 83t18.5 91t6.5 84q0 45 -12 71.5t-39 26.5q-21 0 -40.5 -22t-35.5 -58t-28 -80t-18.5 -89t-6.5 -84z" />
<glyph unicode="&#x1f4;" horiz-adv-x="683" d="M623 924l11 2q24 -11 37 -23.5t13 -29.5q0 -25 -37.5 -45.5t-101 -33.5t-140.5 -17l-5 18q67 30 127.5 65.5t95.5 63.5zM407 39q42 0 76 10l35 164l13 59l-69 28l4 20h263l2 -20l-49 -15q-18 -6 -27.5 -16.5t-13.5 -30.5l-6 -25v0l-41 -192q-40 -15 -90 -23t-109 -8 q-136 0 -214 73.5t-78 206.5q0 90 34 167.5t92.5 136t134.5 91.5t160 33q55 0 99.5 -8t79.5 -21q-1 -29 -9.5 -64.5t-20 -70.5t-21.5 -59h-23q-15 58 -25 96.5t-20 69.5q-25 7 -61 7q-55 0 -107.5 -28.5t-94 -79.5t-66.5 -120.5t-25 -151.5q0 -66 22 -118t61.5 -81.5 t93.5 -29.5z" />
<glyph unicode="&#x1f5;" horiz-adv-x="452" d="M391 758l10 4q5 0 10.5 -0.5t10.5 -1.5q59 -9 59 -39q0 -18 -21 -40t-56.5 -43.5t-79 -39.5t-87.5 -29l-10 16q33 28 65 60t57.5 61.5t41.5 51.5zM303 508q74 0 133 1.5t96 11.5q8 -12 8 -32q0 -17 -10 -31t-34 -14q-19 0 -50 9.5t-64 19.5q32 -18 49 -47t17 -68 q0 -57 -21.5 -97.5t-53.5 -69t-64 -48.5t-54 -35.5t-22 -30.5q0 -14 16.5 -23.5t41.5 -22.5q34 -17 61.5 -33.5t44 -38.5t16.5 -54q0 -42 -30.5 -79.5t-85.5 -60.5t-130 -23q-96 0 -150 33t-54 80q0 37 31.5 65.5t75.5 48.5l12 -10q-10 -11 -16.5 -24t-6.5 -28 q0 -54 38 -90.5t97 -36.5q47 0 79.5 23t32.5 60q0 27 -26.5 45.5t-67.5 41.5q-35 20 -62.5 39.5t-27.5 49.5q0 26 28 49.5t84 53.5q-68 2 -110 41.5t-42 103.5q0 60 29 110t79 80.5t113 30.5zM194 287q0 -49 14 -76.5t40 -27.5q19 0 35 19t28 50t18.5 68t6.5 73 q0 37 -12.5 57t-35.5 20q-28 0 -49 -28.5t-33 -71t-12 -83.5z" />
<glyph unicode="&#x1fa;" horiz-adv-x="691" d="M646 1150l11 1q24 -11 37.5 -23.5t13.5 -28.5q0 -25 -38 -45.5t-101.5 -34t-139.5 -17.5l-6 18q67 31 128 66t95 64zM617 868q0 -43 -35.5 -73t-87.5 -30q-38 0 -60.5 19t-22.5 52q0 42 36 71.5t87 29.5q39 0 61 -18.5t22 -50.5zM464 836q0 -17 10.5 -28t27.5 -11 q26 0 44 20t18 49q0 18 -10.5 28.5t-27.5 10.5q-26 0 -44 -20t-18 -49zM447 689h75l75 -605q3 -23 10.5 -33t23.5 -16l42 -15l-2 -20h-270l-4 20l81 27l-21 176l-225 -4l-94 -172l78 -27l-4 -20h-206l-3 20l57 20q17 6 27.5 15t20.5 28zM255 262l198 -1l-36 297z" />
<glyph unicode="&#x1fb;" horiz-adv-x="553" d="M506 1000l10 5q5 -1 10.5 -1.5t10.5 -1.5q59 -9 59 -38q0 -19 -21 -40.5t-56.5 -43.5t-79 -40t-88.5 -28l-9 15q33 29 65 60.5t57.5 61t41.5 51.5zM511 683q0 -43 -36 -73t-88 -30q-37 0 -59.5 19t-22.5 52q0 43 36 72.5t87 29.5q38 0 60.5 -19t22.5 -51zM358 652 q0 -18 10.5 -29t27.5 -11q26 0 44 20t18 50q0 17 -10.5 28t-28.5 11q-25 0 -43 -20t-18 -49zM473 154q-4 -20 -7.5 -37t-3.5 -27q0 -23 17 -23t40.5 22t43.5 46l9 -8q-15 -31 -39 -62.5t-53.5 -53t-63.5 -21.5q-37 0 -56 22t-19 59q0 16 3.5 36.5t8.5 46.5l16 69h-2 q-17 -39 -40 -79.5t-50 -75.5t-56.5 -56.5t-59.5 -21.5q-43 0 -70 37t-27 101q0 73 23 141t65.5 122t100 85.5t126.5 31.5q47 0 91.5 -10t76.5 -26l-15 -45zM187 147q0 -29 7.5 -47t23.5 -18q17 0 37 20t41 52t40 69.5t34.5 73.5t23.5 64l21 85q-23 21 -59 21q-31 0 -61 -29 t-54.5 -76.5t-39 -103.5t-14.5 -111z" />
<glyph unicode="&#x1fc;" horiz-adv-x="915" d="M777 924l11 2q24 -11 37.5 -23.5t13.5 -29.5q0 -25 -38 -45.5t-101.5 -33.5t-139.5 -17l-6 18q67 30 128 65.5t95 63.5zM423 636l-73 29l7 23h611q-1 -48 -14 -103t-32 -105h-24q-13 68 -20 103t-13 59q-16 2 -39.5 3t-44.5 1h-97l-60 -282l200 7l-14 -56l-195 8 l-46 -216l-14 -66h125q47 0 85 5q11 15 23.5 35t31.5 50.5t48 75.5h23q0 -47 -12 -105t-30 -102h-496l-2 20l48 18q18 7 28 16t14 28l5 25l46 215l-202 -3l-150 -271l73 -25l-6 -23h-199l3 23q16 5 29.5 10t26.5 10q27 11 43 40zM560 644h-91l-155 -282l186 -1z" />
<glyph unicode="&#x1fd;" horiz-adv-x="713" d="M574 759l10 4q5 0 10.5 -0.5t10.5 -1.5q60 -9 60 -39q0 -18 -21.5 -40t-56.5 -43.5t-78.5 -39.5t-88.5 -29l-9 16q33 28 65 60t57.5 61.5t40.5 51.5zM714 141q-36 -68 -90.5 -109.5t-120.5 -41.5q-71 0 -111 49.5t-40 133.5q0 10 1 20q-23 -48 -54 -95t-66 -77.5 t-72 -30.5q-43 0 -70 37t-27 101q0 73 23 141t65.5 122t100 85.5t126.5 31.5q40 0 78 -7t69 -19q48 26 97 26q55 0 89 -29t34 -78q0 -50 -33.5 -90t-94 -63t-141.5 -22l1 9q-3 -23 -3 -46q0 -57 24 -88t65 -31q33 0 70.5 21.5t70.5 56.5zM187 147q0 -29 7.5 -47t23.5 -18 q18 0 39 21.5t42.5 55.5t41 73.5t34.5 75.5l39 139q-23 20 -58 20q-31 0 -61 -29t-54.5 -76.5t-39 -103.5t-14.5 -111zM609 466q-28 0 -54 -29t-46 -76t-28 -102q47 3 83.5 25.5t57.5 58t21 76.5q0 47 -34 47z" />
<glyph unicode="&#x1fe;" horiz-adv-x="647" d="M524 949l10 4q5 0 10.5 -0.5t10.5 -1.5q60 -9 60 -39q0 -18 -21.5 -40t-56.5 -43.5t-78.5 -39.5t-88.5 -29l-9 16q33 28 65 60t57.5 61.5t40.5 51.5zM673 446q0 -88 -27 -169.5t-75 -146t-111.5 -102.5t-136.5 -38q-57 0 -102.5 22.5t-74.5 64.5l-72 -72l-29 30l79 80 q-25 55 -25 126q0 85 27 166.5t75.5 147t112.5 104.5t138 39q57 0 100 -21t72 -59l65 65l29 -29l-72 -73q27 -58 27 -135zM449 652q-37 0 -69.5 -27t-59 -72.5t-46.5 -102t-32 -116.5t-15 -115l318 319q-5 54 -28.5 84t-67.5 30zM327 36q37 0 68.5 29t58 77.5t46 107 t31 118.5t14.5 111l-318 -320q4 -55 29.5 -89t70.5 -34z" />
<glyph unicode="&#x1ff;" horiz-adv-x="489" d="M389 759l10 4q5 0 10.5 -0.5t10.5 -1.5q60 -9 60 -39q0 -18 -21.5 -40t-56.5 -43.5t-78.5 -39.5t-88.5 -29l-9 16q33 28 65 60t57.5 61.5t40.5 51.5zM500 320q0 -72 -21.5 -132.5t-58 -105t-82.5 -68.5t-95 -24q-88 0 -134 66l-56 -53l-27 32l62 59q-14 38 -14 85 q0 68 21 127t57.5 104.5t83 71t96.5 25.5q43 0 76 -15t54 -43l49 46l28 -31l-56 -53q17 -39 17 -91zM326 469q-22 0 -42.5 -24t-37 -64t-28.5 -87t-17 -93l176 166v4q0 45 -12 71.5t-39 26.5zM197 136q0 -49 13 -78t39 -29q22 0 42.5 25.5t36.5 66.5t27.5 89.5t17.5 95.5 l-176 -167v-3z" />
<glyph unicode="&#x218;" horiz-adv-x="509" d="M240 -10q-43 0 -82.5 4.5t-67 13t-33.5 19.5q-6 10 -6 27q0 30 15 71t38 74l24 -2q-1 -6 -1 -12v-11q0 -70 22 -103q15 -21 40 -29.5t56 -8.5q59 0 97 37.5t38 92.5q0 35 -17.5 62.5t-45 51t-58.5 47t-58.5 49.5t-45 58.5t-17.5 74.5q0 59 37 102t95.5 66.5t123.5 23.5 q67 0 109.5 -12t54.5 -24q8 -6 8 -21q0 -18 -8 -45t-20.5 -55.5t-27.5 -50.5l-24 1q1 8 1 15v14q0 62 -13 88q-12 21 -33 33.5t-58 12.5q-53 0 -89.5 -34t-36.5 -85q0 -34 17.5 -61.5t45 -51.5t58.5 -48t58.5 -50t45 -57.5t17.5 -72.5q0 -59 -32 -105t-90 -72.5t-137 -26.5z M283 -153q0 -34 -20 -70t-54 -68t-76 -50l-8 9q47 55 66 110q-19 3 -30 17t-11 35q0 33 22.5 55.5t54.5 22.5q25 0 40.5 -17t15.5 -44z" />
<glyph unicode="&#x219;" horiz-adv-x="419" d="M398 139q0 -65 -50.5 -107t-143.5 -42q-44 0 -79.5 11t-57 31.5t-21.5 50.5q0 32 23 55.5t55 34.5l10 -8q-2 -14 -2.5 -27t0.5 -27q8 -38 28.5 -61t54.5 -23q31 0 50.5 19t19.5 52q0 29 -17 53.5t-42.5 47t-51 46.5t-43 53.5t-17.5 68.5q0 41 24.5 73t66 50t93.5 18 q72 0 109.5 -26.5t37.5 -63.5q0 -30 -19.5 -54t-49.5 -35l-10 8q1 31 -2 56q-6 38 -23 58t-46 20t-48 -18.5t-19 -47.5q0 -30 17.5 -54.5t42.5 -48t50.5 -48t42.5 -52.5t17 -63zM241 -153q0 -34 -20 -70t-54 -68t-76 -50l-8 9q47 55 66 110q-19 3 -30.5 17t-11.5 35 q0 33 23 55.5t55 22.5q25 0 40.5 -17t15.5 -44z" />
<glyph unicode="&#x21a;" horiz-adv-x="613" d="M366 48l69 -28l-4 -20h-268l-2 20l48 18q17 7 27.5 16t13.5 28l7 25h-1l114 536h-42q-22 0 -46.5 -2t-42.5 -5q-12 -16 -26.5 -37.5t-29.5 -50.5l-41 -68h-24q1 51 13.5 107.5t28.5 100.5h561q-2 -44 -14.5 -101.5t-31.5 -106.5h-23l-13 68q-4 28 -9 50t-10 38 q-17 3 -40.5 5t-45.5 2h-41l-114 -536zM330 -153q0 -34 -20 -70t-54 -68t-76 -50l-8 9q47 55 66 110q-19 3 -30.5 17t-11.5 35q0 33 23 55.5t55 22.5q25 0 40.5 -17t15.5 -44z" />
<glyph unicode="&#x21b;" horiz-adv-x="373" d="M195 -10q-47 0 -71 30t-24 79q0 13 1.5 27t4.5 29l61 288h-73l2 17l83 38l133 142l16 -2l-33 -154h139l-9 -41h-138l-59 -274q-2 -12 -3.5 -22.5t-1.5 -21.5q0 -55 43 -55q30 0 62.5 22.5t64.5 55.5l9 -7q-21 -40 -51.5 -74.5t-69.5 -55.5t-86 -21zM246 -153 q0 -34 -20 -70t-54 -68t-75 -50l-9 9q48 55 66 110q-18 3 -29.5 17t-11.5 35q0 33 23 55.5t55 22.5q24 0 39.5 -17t15.5 -44z" />
<glyph unicode="&#x232;" horiz-adv-x="663" d="M345 818l14 62h303l-14 -62h-303zM381 48l69 -28l-4 -20h-269l-2 20l48 18q17 7 27.5 16t14.5 28l6 25v0l22 106q8 40 7 92.5t-9 107.5t-21.5 102t-30 76t-34.5 29t-39.5 -23t-39.5 -50l-17 12q29 60 69 99.5t85 39.5q38 0 66.5 -29.5t47.5 -80.5t28.5 -117t11.5 -140 q37 75 74.5 141t74 117t69 80t59.5 29q25 0 41 -20.5t25 -52t12 -64.5l-18 -6q-11 28 -25 46.5t-32 18.5q-22 0 -54.5 -29.5t-68.5 -78.5t-69.5 -108t-59 -117.5t-36.5 -106.5l-15 -73z" />
<glyph unicode="&#x233;" horiz-adv-x="493" d="M201 630l13 61h290l-14 -61h-289zM193 508q49 0 73.5 -39t24.5 -123q0 -71 -15.5 -157t-43.5 -168q61 63 99.5 132.5t56.5 139t18 130.5q0 23 -2.5 40.5t-5.5 30.5q7 6 20.5 10t28.5 4q75 0 75 -91q0 -74 -36 -154.5t-106 -157.5t-171 -142q-27 -62 -61 -112t-75.5 -79.5 t-88.5 -29.5q-43 0 -69 18.5t-26 46.5q0 15 8 26.5t21 16.5q13 -17 27 -28t34 -11q31 0 56.5 27.5t46.5 73.5t37 100q17 56 28.5 114.5t17.5 109.5t6 85q0 109 -44 109q-17 0 -37 -21t-39 -47l-10 9q15 32 38.5 63.5t52.5 52.5t61 21z" />
<glyph unicode="&#x237;" horiz-adv-x="290" d="M155 344q4 20 7 37t3 27q0 22 -17 22t-40 -21.5t-43 -45.5l-9 8q15 31 38.5 62.5t53.5 53t64 21.5q36 0 55 -22t19 -60q0 -15 -3 -36t-9 -46l-70 -336q-26 -128 -93 -197t-153 -69q-47 0 -76.5 20t-29.5 49q0 16 8 27t20 17q15 -20 34.5 -33t44.5 -13q45 0 73.5 44 t47.5 133z" />
<glyph unicode="&#x259;" horiz-adv-x="447" d="M461 325q0 -65 -22.5 -125t-60.5 -107.5t-86.5 -75t-101.5 -27.5q-54 0 -88.5 26.5t-34.5 70.5q0 51 34.5 91.5t95.5 63t140 21.5q7 45 7 90q0 53 -13 83t-43 30q-35 0 -58 -35t-32 -91q-12 -6 -25.5 -9.5t-26.5 -3.5q-41 0 -41 34t29 68t75.5 56.5t99.5 22.5 q71 0 111.5 -49.5t40.5 -133.5zM170 74q0 -19 9.5 -30.5t26.5 -11.5q28 0 52.5 26.5t43.5 71.5t30 100q-47 -5 -83.5 -27.5t-57.5 -56t-21 -72.5z" />
<glyph unicode="&#x272;" horiz-adv-x="589" d="M65 371q16 30 39.5 62t52.5 53.5t62 21.5q35 0 53 -20t18 -53q0 -21 -8.5 -57.5t-26.5 -113.5q17 32 40 74t52.5 80.5t64 64t72.5 25.5q41 0 61.5 -25.5t20.5 -58.5q0 -30 -10 -77.5t-23.5 -99t-23.5 -93.5q-4 -20 -7.5 -37t-3.5 -27q0 -23 18 -23q16 0 39.5 22t43.5 46 l9 -8q-15 -31 -38.5 -62.5t-53.5 -53t-64 -21.5q-37 0 -56 22t-19 59q0 16 3.5 36.5t8.5 46.5q10 41 23 88t22.5 86.5t9.5 60.5q0 32 -25 32q-20 0 -45.5 -26.5t-50.5 -66.5t-44.5 -81.5t-29.5 -71.5l-35 -167q-26 -128 -93 -197t-153 -69q-48 0 -77 20t-29 49q0 16 8 27 t20 17q15 -20 34.5 -33t44.5 -13q45 0 73.5 44t47.5 133l75 358q4 20 7.5 37t3.5 26q0 23 -18 23q-17 0 -40 -21.5t-43 -45.5z" />
<glyph unicode="&#x2c6;" horiz-adv-x="458" d="M449 585l-17 -10q-25 24 -54.5 50t-59.5 49q-33 -23 -73 -50t-76 -49l-10 13q23 27 47.5 57.5t46 58t35.5 47.5l10 6h72q21 -39 42 -84.5t37 -87.5z" />
<glyph unicode="&#x2c7;" horiz-adv-x="459" d="M340 581l-10 -6h-72q-19 39 -37.5 84.5t-33.5 87.5l17 10q23 -24 50.5 -50t55.5 -49q35 23 79 50t84 49l11 -13q-27 -27 -54 -57.5t-50.5 -58t-39.5 -47.5z" />
<glyph unicode="&#x2d8;" horiz-adv-x="424" d="M428 743l5 2l17 -4q-22 -70 -68 -111t-102 -41t-79.5 44.5t-16.5 108.5l21 3q4 -35 28.5 -55.5t64.5 -20.5q43 0 77 19t53 55z" />
<glyph unicode="&#x2d9;" horiz-adv-x="303" d="M225 590q-25 0 -41 15.5t-16 42.5q0 37 26 63t61 26q25 0 41.5 -15t16.5 -41q0 -38 -26.5 -64.5t-61.5 -26.5z" />
<glyph unicode="&#x2da;" horiz-adv-x="495" d="M374 683q0 -43 -36 -73t-87 -30q-38 0 -60.5 19t-22.5 52q0 43 36 72.5t87 29.5q38 0 60.5 -19t22.5 -51zM221 652q0 -18 10.5 -29t27.5 -11q26 0 44 20t18 50q0 17 -10.5 28t-27.5 11q-26 0 -44 -20t-18 -49z" />
<glyph unicode="&#x2db;" horiz-adv-x="385" d="M238 0q-49 -23 -81.5 -59.5t-32.5 -70.5q0 -32 25 -32q16 0 34 16t34 37l9 -8q-19 -52 -53 -87t-80 -35q-36 0 -54 20t-18 55q0 39 27.5 76t74.5 64.5t105 37.5z" />
<glyph unicode="&#x2dc;" horiz-adv-x="548" d="M248 655q-14 -8 -31.5 -24.5t-39.5 -38.5l-11 5q21 67 58 104.5t84 37.5q33 0 63 -14t57.5 -29t54.5 -18q14 8 31.5 24.5t39.5 38.5l11 -5q-21 -67 -58 -104.5t-85 -37.5q-32 0 -62.5 14.5t-58 29.5t-53.5 17z" />
<glyph unicode="&#x2dd;" horiz-adv-x="566" d="M316 759l10 4q5 0 10.5 -0.5t10.5 -1.5q48 -9 48 -39q0 -18 -20 -40t-54 -43.5t-75.5 -39.5t-83.5 -29l-10 16q34 28 65.5 60t57.5 61.5t41 51.5zM506 759l10 4q5 0 10.5 -0.5t10.5 -1.5q48 -10 48 -39q0 -18 -20.5 -40t-54 -43.5t-75 -39.5t-83.5 -29l-10 16 q33 28 65 60t58 61.5t41 51.5z" />
<glyph unicode="&#x326;" horiz-adv-x="295" d="M129 -153q0 -34 -20 -70t-54 -68t-75 -50l-9 9q47 55 66 110q-19 3 -30 17t-11 35q0 33 22.5 55.5t54.5 22.5q25 0 40.5 -17t15.5 -44z" />
<glyph unicode="&#x394;" horiz-adv-x="608" d="M579 0h-567l-1 14l390 674h76l104 -674zM77 43h367l-73 517z" />
<glyph unicode="&#x3bc;" horiz-adv-x="611" d="M153 -225q-2 -21 -32 -24.5t-85 -8.5l-5 8q10 51 25.5 121t33.5 151t37 164.5t36 159.5q10 43 18 82t16 73l54 4q11 1 28 2t24 1q15 0 10 -23q-15 -70 -33.5 -142t-31.5 -132t-13 -94q0 -35 26 -35q20 0 45 26t50.5 67.5t48 91t36.5 96.5l29 138l54 4q12 1 28.5 2t23.5 1 q10 0 11.5 -6.5t-0.5 -16.5l-30 -139l-42 -192q-4 -20 -7 -37t-3 -27q0 -23 17 -23t40 22t43 46l9 -8q-15 -31 -38.5 -62.5t-53.5 -53t-64 -21.5q-36 0 -55 22t-19 59q0 16 3 36.5t9 46.5l14 61h-2q-13 -37 -31 -76.5t-40.5 -73t-47 -54.5t-50.5 -21q-21 0 -37 15.5 t-19 56.5h-4q0 -26 -1.5 -62.5t-5.5 -77t-9 -76.5q-2 -15 -4.5 -32.5z" />
<glyph unicode="&#x3c0;" horiz-adv-x="622" d="M212 47q-15 -33 -31.5 -45t-43.5 -12q-24 0 -43 7l-6 8q46 82 90.5 186t77.5 216h-67q-30 0 -48.5 -14.5t-38.5 -46.5l-20 2q12 41 27.5 82t34.5 75q27 3 56.5 4t60.5 1q21 0 57 -1t79 -2.5t85 -3.5t76 -3t52 -1q36 0 50 7.5t28 28.5l19 -2q-11 -33 -27 -71t-34 -71 q-53 4 -102 7q-26 -90 -42.5 -168.5t-16.5 -123.5q0 -39 24 -39q16 0 38.5 22t42.5 46l9 -8q-14 -31 -35.5 -62.5t-49 -53t-58.5 -21.5q-32 0 -48.5 21t-16.5 56q0 37 11.5 93t28.5 119.5t35 122.5q-66 2 -136 4q-23 -84 -45.5 -155.5t-41.5 -124t-31 -79.5z" />
<glyph unicode="&#x1e0c;" horiz-adv-x="709" d="M366 581l-101 -474l-14 -65h55q68 0 123 34t94.5 91.5t60.5 130.5t21 150q0 93 -42.5 145.5t-131.5 52.5h-51zM297 -239q-25 0 -41.5 15.5t-16.5 41.5q0 37 26.5 63.5t61.5 26.5q25 0 41 -15.5t16 -41.5q0 -37 -26 -63.5t-61 -26.5zM307 0h-258l-2 20l48 18q18 7 28 16 t14 28l5 25l102 474h-1l13 59l-69 28l4 20h260q84 0 147 -30.5t98.5 -88.5t35.5 -140q0 -81 -27.5 -158t-81.5 -138t-133 -97t-183 -36z" />
<glyph unicode="&#x1e0d;" horiz-adv-x="553" d="M473 154q-4 -20 -7.5 -37t-3.5 -27q0 -23 17 -23t40.5 22t43.5 46l9 -8q-15 -31 -39 -62.5t-53.5 -53t-63.5 -21.5q-37 0 -56 22t-19 59q0 16 3.5 36.5t8.5 46.5l19 80q-17 -39 -40 -81.5t-51 -79.5t-58.5 -60t-61.5 -23q-43 0 -70 37t-27 101q0 73 23 141t65.5 122 t100 85.5t126.5 31.5q24 0 50 -3l29 121l13 61l-92 25v12q30 8 69.5 14.5t79 11.5t69.5 7l8 -9l-28 -122zM187 147q0 -29 7.5 -47t23.5 -18q17 0 36.5 19t40 50t39 67t34 72t24.5 64l23 92q-23 21 -59 21q-31 0 -61 -29t-54.5 -76.5t-39 -103.5t-14.5 -111zM243 -239 q-25 0 -41.5 15.5t-16.5 41.5q0 37 26.5 63.5t61.5 26.5q25 0 41 -15.5t16 -41.5q0 -37 -26 -63.5t-61 -26.5z" />
<glyph unicode="&#x1e24;" horiz-adv-x="792" d="M252 48l69 -28l-4 -20h-268l-2 20l48 18q17 7 27.5 16t13.5 28l7 25h-1l100 474l13 59l-69 28l4 20h269l2 -20l-49 -18q-17 -7 -27 -16.5t-14 -27.5l-6 -25v0l-44 -209h287l44 209l13 59l-69 28l4 20h268l2 -20l-48 -18q-17 -7 -27.5 -16.5t-14.5 -27.5l-6 -25h1 l-100 -474l-13 -59l69 -28l-4 -20h-269l-2 20l48 18q17 7 27.5 16t14.5 28l6 25v0l46 217h-287l-46 -217zM338 -239q-24 0 -40.5 15.5t-16.5 41.5q0 37 26.5 63.5t60.5 26.5q25 0 41.5 -15.5t16.5 -41.5q0 -37 -26.5 -63.5t-61.5 -26.5z" />
<glyph unicode="&#x1e25;" horiz-adv-x="562" d="M67 16l30 138l102 473l14 61l-73 25v11q43 12 98.5 20.5t99.5 13.5l8 -9l-28 -122q-21 -95 -44.5 -186t-48.5 -182q32 68 69 124.5t78.5 90.5t86.5 34q41 0 61.5 -25.5t20.5 -58.5q0 -30 -10.5 -77.5t-25 -99t-24.5 -93.5q-4 -20 -7 -37t-3 -27q0 -23 17 -23t40 22t43 46 l10 -8q-16 -31 -39.5 -62.5t-53.5 -53t-63 -21.5q-37 0 -56 22t-19 59q0 16 3 36.5t9 46.5q10 41 22.5 88t22 86.5t9.5 60.5q0 32 -24 32q-17 0 -36.5 -18t-40 -46.5t-39.5 -62t-33.5 -65.5t-21.5 -56l-5 -19l-33 -155l-54 -4q-11 0 -28 -1.5t-24 -1.5q-9 0 -10.5 6.5 t0.5 17.5zM239 -239q-24 0 -40.5 15.5t-16.5 41.5q0 37 26.5 63.5t61.5 26.5q24 0 40.5 -15.5t16.5 -41.5q0 -37 -26.5 -63.5t-61.5 -26.5z" />
<glyph unicode="&#x1e44;" horiz-adv-x="724" d="M617 862q0 -35 -26 -60t-63 -25q-28 0 -45.5 15.5t-17.5 40.5q1 34 26.5 58.5t62.5 24.5q29 0 46 -15t17 -39zM179 52l82 -29l-4 -23h-216l-3 23l52 17q21 8 32 16t14 26l6 25l111 527l-73 31l5 23h173l228 -530l90 423l13 55l-85 29l4 23h219l2 -23l-51 -17 q-21 -8 -32 -16t-15 -26l-6 -25l-123 -581h-78l-239 552l-94 -445z" />
<glyph unicode="&#x1e45;" horiz-adv-x="589" d="M411 590q-24 0 -40.5 15.5t-16.5 42.5q0 37 26.5 63t61.5 26q24 0 40.5 -15t16.5 -41q0 -38 -26.5 -64.5t-61.5 -26.5zM95 16l29 138q11 50 21.5 96.5t20.5 89.5q5 24 8 41t3 26q0 23 -18 23q-16 0 -39 -21.5t-44 -45.5l-9 8q15 30 38.5 62t52.5 53.5t62 21.5 q35 0 53 -20t18 -53q0 -25 -12 -74t-24 -97q16 32 39.5 74t53 80.5t64 64t72.5 25.5q41 0 61.5 -25.5t20.5 -58.5q0 -30 -10 -77.5t-23.5 -99t-23.5 -93.5q-4 -20 -7.5 -37t-3.5 -27q0 -23 18 -23q16 0 39.5 22t43.5 46l9 -8q-15 -31 -38.5 -62.5t-53.5 -53t-64 -21.5 q-37 0 -56 22t-19 59q0 16 3.5 36.5t8.5 46.5q10 41 23 88t22.5 86.5t9.5 60.5q0 32 -25 32q-20 0 -45.5 -26.5t-50.5 -67t-45 -82t-30 -71.5l-4 -20l-33 -155l-54 -4q-12 0 -28.5 -1.5t-23.5 -1.5q-9 0 -10.5 6.5t0.5 17.5z" />
<glyph unicode="&#x1e5a;" horiz-adv-x="689" d="M366 581l-53 -247h48q60 0 103 27t65 71t22 94q0 56 -32.5 86t-88.5 30h-51zM331 -239q-25 0 -41.5 15.5t-16.5 41.5q0 37 26.5 63.5t61.5 26.5q25 0 41 -15.5t16 -41.5q0 -37 -26 -63.5t-61 -26.5zM252 48l69 -28l-4 -20h-268l-2 20l48 18q17 7 27.5 16t13.5 28l7 25h-1 l101 474l12 59l-68 28l4 20h255q111 0 171 -44t60 -122q0 -66 -45.5 -119t-112.5 -82l45 -136q18 -57 38 -96t51 -55l30 -14l-5 -20l-122 -3q-40 0 -57.5 16.5t-27.5 49.5l-69 227q-15 -1 -29 -1h-69l-39 -182z" />
<glyph unicode="&#x1e5b;" horiz-adv-x="447" d="M95 16l29 138q20 91 31.5 143t16.5 76.5t5 33.5q0 23 -18 23q-16 0 -39 -21.5t-44 -45.5l-9 8q15 30 38.5 62t52.5 53.5t62 21.5q35 0 53 -20t18 -53q0 -23 -11 -70.5t-24 -96.5q17 37 39 78.5t47 78.5t53 60t57 23q25 0 38 -14.5t13 -36.5q0 -31 -13 -61.5t-25 -44.5 q-14 11 -29.5 20.5t-35.5 9.5q-24 0 -48.5 -24t-46 -59.5t-37 -70t-20.5 -56.5l-4 -17l-33 -155l-54 -4q-12 0 -28.5 -1.5t-23.5 -1.5q-9 0 -10.5 6.5t0.5 17.5zM102 -239q-25 0 -41.5 15.5t-16.5 41.5q0 37 26.5 63.5t61.5 26.5q25 0 41 -15.5t16 -41.5q0 -37 -26 -63.5 t-61 -26.5z" />
<glyph unicode="&#x1e62;" horiz-adv-x="509" d="M240 -10q-43 0 -82.5 4.5t-67 13t-33.5 19.5q-6 10 -6 27q0 30 15 71t38 74l24 -2q-1 -6 -1 -12v-11q0 -70 22 -103q15 -21 40 -29.5t56 -8.5q59 0 97 37.5t38 92.5q0 35 -17.5 62.5t-45 51t-58.5 47t-58.5 49.5t-45 58.5t-17.5 74.5q0 59 37 102t95.5 66.5t123.5 23.5 q67 0 109.5 -12t54.5 -24q8 -6 8 -21q0 -18 -8 -45t-20.5 -55.5t-27.5 -50.5l-24 1q1 8 1 15v14q0 62 -13 88q-12 21 -33 33.5t-58 12.5q-53 0 -89.5 -34t-36.5 -85q0 -34 17.5 -61.5t45 -51.5t58.5 -48t58.5 -50t45 -57.5t17.5 -72.5q0 -59 -32 -105t-90 -72.5t-137 -26.5z M200 -239q-25 0 -41.5 15.5t-16.5 41.5q0 37 26.5 63.5t61.5 26.5q25 0 41 -15.5t16 -41.5q0 -37 -26 -63.5t-61 -26.5z" />
<glyph unicode="&#x1e63;" horiz-adv-x="419" d="M398 139q0 -65 -50.5 -107t-143.5 -42q-44 0 -79.5 11t-57 31.5t-21.5 50.5q0 32 23 55.5t55 34.5l10 -8q-2 -14 -2.5 -27t0.5 -27q8 -38 28.5 -61t54.5 -23q31 0 50.5 19t19.5 52q0 29 -17 53.5t-42.5 47t-51 46.5t-43 53.5t-17.5 68.5q0 41 24.5 73t66 50t93.5 18 q72 0 109.5 -26.5t37.5 -63.5q0 -30 -19.5 -54t-49.5 -35l-10 8q1 31 -2 56q-6 38 -23 58t-46 20t-48 -18.5t-19 -47.5q0 -30 17.5 -54.5t42.5 -48t50.5 -48t42.5 -52.5t17 -63zM158 -239q-25 0 -41.5 15.5t-16.5 41.5q0 37 26.5 63.5t61.5 26.5q25 0 41 -15.5t16 -41.5 q0 -37 -26 -63.5t-61 -26.5z" />
<glyph unicode="&#x1e6c;" horiz-adv-x="613" d="M366 48l69 -28l-4 -20h-268l-2 20l48 18q17 7 27.5 16t13.5 28l7 25h-1l114 536h-42q-22 0 -46.5 -2t-42.5 -5q-12 -16 -26.5 -37.5t-29.5 -50.5l-41 -68h-24q1 51 13.5 107.5t28.5 100.5h561q-2 -44 -14.5 -101.5t-31.5 -106.5h-23l-13 68q-4 28 -9 50t-10 38 q-17 3 -40.5 5t-45.5 2h-41l-114 -536zM250 -239q-25 0 -41.5 15.5t-16.5 41.5q0 37 26.5 63.5t61.5 26.5q24 0 40.5 -15.5t16.5 -41.5q0 -37 -26.5 -63.5t-60.5 -26.5z" />
<glyph unicode="&#x1e6d;" horiz-adv-x="373" d="M195 -10q-47 0 -71 30t-24 79q0 13 1.5 27t4.5 29l61 288h-73l2 17l83 38l133 142l16 -2l-33 -154h139l-9 -41h-138l-59 -274q-2 -12 -3.5 -22.5t-1.5 -21.5q0 -55 43 -55q30 0 62.5 22.5t64.5 55.5l9 -7q-21 -40 -51.5 -74.5t-69.5 -55.5t-86 -21zM162 -239 q-25 0 -41 15.5t-16 41.5q0 37 26.5 63.5t60.5 26.5q25 0 41.5 -15.5t16.5 -41.5q0 -37 -26.5 -63.5t-61.5 -26.5z" />
<glyph unicode="&#x1e80;" horiz-adv-x="1048" d="M806 796l-10 -18q-37 1 -78.5 6.5t-77.5 16t-58.5 26.5t-22.5 37q0 24 23 40t43 23l10 -2q15 -18 42 -41t60.5 -46t68.5 -42zM361 0h-75l-66 604q-3 23 -10.5 33t-23.5 16l-42 15l2 20h270l4 -20l-81 -27l51 -500l210 389l-9 74q-3 23 -10.5 33t-23.5 16l-44 15l4 20h270 l4 -20l-81 -27l55 -500l266 501l-80 26l4 20h212l3 -20l-57 -20q-18 -6 -28 -15t-20 -28l-329 -605h-75l-52 451z" />
<glyph unicode="&#x1e81;" horiz-adv-x="720" d="M531 584l-13 -14q-50 21 -92 47.5t-67.5 53t-23.5 49.5q1 23 21.5 32.5t47.5 9.5h10.5h10.5l9 -6q12 -32 39 -80t58 -92zM763 437q0 -42 -26.5 -98.5t-70 -118.5t-96 -120.5t-103.5 -105.5l-70 5q5 77 9 135t4 97v40q-34 -80 -82 -151.5t-108 -125.5l-69 5q5 77 8.5 135 t3.5 97q0 78 -4 121t-12.5 60.5t-23.5 17.5q-18 0 -39.5 -21t-41.5 -47l-11 9q17 32 41 63.5t54 52.5t63 21q43 0 65 -37t22 -120q0 -53 -5.5 -127.5t-14.5 -152.5q49 69 80 138t46.5 130t18.5 109q0 15 -2 26.5t-4 21.5q8 4 21.5 8t29.5 4q43 0 60 -33.5t17 -116.5 q0 -56 -5.5 -132t-14.5 -155q44 64 76.5 131t49.5 129t17 109q0 17 -2 31t-4 24q8 5 22.5 9t27.5 4q33 0 53 -18t20 -53z" />
<glyph unicode="&#x1e82;" horiz-adv-x="1048" d="M773 924l10 2q25 -11 38 -23.5t13 -29.5q0 -25 -37.5 -45.5t-101 -33.5t-140.5 -17l-5 18q67 30 127.5 65.5t95.5 63.5zM361 0h-75l-66 604q-3 23 -10.5 33t-23.5 16l-42 15l2 20h270l4 -20l-81 -27l51 -500l210 389l-9 74q-3 23 -10.5 33t-23.5 16l-44 15l4 20h270 l4 -20l-81 -27l55 -500l266 501l-80 26l4 20h212l3 -20l-57 -20q-18 -6 -28 -15t-20 -28l-329 -605h-75l-52 451z" />
<glyph unicode="&#x1e83;" horiz-adv-x="720" d="M510 759l10 4q5 0 10.5 -0.5t10.5 -1.5q59 -9 59 -39q0 -18 -21 -40t-56.5 -43.5t-78.5 -39.5t-88 -29l-9 16q33 28 64.5 60t57.5 61.5t41 51.5zM763 437q0 -42 -26.5 -98.5t-70 -118.5t-96 -120.5t-103.5 -105.5l-70 5q5 77 9 135t4 97v40q-34 -80 -82 -151.5 t-108 -125.5l-69 5q5 77 8.5 135t3.5 97q0 78 -4 121t-12.5 60.5t-23.5 17.5q-18 0 -39.5 -21t-41.5 -47l-11 9q17 32 41 63.5t54 52.5t63 21q43 0 65 -37t22 -120q0 -53 -5.5 -127.5t-14.5 -152.5q49 69 80 138t46.5 130t18.5 109q0 15 -2 26.5t-4 21.5q8 4 21.5 8t29.5 4 q43 0 60 -33.5t17 -116.5q0 -56 -5.5 -132t-14.5 -155q44 64 76.5 131t49.5 129t17 109q0 17 -2 31t-4 24q8 5 22.5 9t27.5 4q33 0 53 -18t20 -53z" />
<glyph unicode="&#x1e84;" horiz-adv-x="1048" d="M865 860q0 -31 -22 -53.5t-53 -22.5q-27 0 -43.5 15t-16.5 39q0 29 22.5 52t55.5 23q25 0 41 -14.5t16 -38.5zM642 860q0 -31 -22 -53.5t-54 -22.5q-27 0 -43 15t-16 39q0 29 22.5 52t55.5 23q24 0 40.5 -14.5t16.5 -38.5zM361 0h-75l-66 604q-3 23 -10.5 33t-23.5 16 l-42 15l2 20h270l4 -20l-81 -27l51 -500l210 389l-9 74q-3 23 -10.5 33t-23.5 16l-44 15l4 20h270l4 -20l-81 -27l55 -500l266 501l-80 26l4 20h212l3 -20l-57 -20q-18 -6 -28 -15t-20 -28l-329 -605h-75l-52 451z" />
<glyph unicode="&#x1e85;" horiz-adv-x="720" d="M645 678q0 -33 -21.5 -56.5t-52.5 -23.5q-26 0 -42 16.5t-16 41.5q0 31 22.5 55t54.5 24q23 0 39 -15.5t16 -41.5zM426 678q0 -33 -21.5 -56.5t-52.5 -23.5q-25 0 -41 16.5t-16 41.5q0 31 22 55t54 24q23 0 39 -15.5t16 -41.5zM763 437q0 -42 -26.5 -98.5t-70 -118.5 t-96 -120.5t-103.5 -105.5l-70 5q5 77 9 135t4 97v40q-34 -80 -82 -151.5t-108 -125.5l-69 5q5 77 8.5 135t3.5 97q0 78 -4 121t-12.5 60.5t-23.5 17.5q-18 0 -39.5 -21t-41.5 -47l-11 9q17 32 41 63.5t54 52.5t63 21q43 0 65 -37t22 -120q0 -53 -5.5 -127.5t-14.5 -152.5 q49 69 80 138t46.5 130t18.5 109q0 15 -2 26.5t-4 21.5q8 4 21.5 8t29.5 4q43 0 60 -33.5t17 -116.5q0 -56 -5.5 -132t-14.5 -155q44 64 76.5 131t49.5 129t17 109q0 17 -2 31t-4 24q8 5 22.5 9t27.5 4q33 0 53 -18t20 -53z" />
<glyph unicode="&#x1e92;" horiz-adv-x="626" d="M550 0h-497l1 41l489 603h-161q-22 0 -45 -1.5t-42 -3.5l-105 -159h-24q0 53 12 109.5t29 98.5h489l-1 -41l-488 -603h169q21 0 44.5 1t41.5 4l106 158h24q0 -47 -12 -102t-30 -105zM268 -239q-25 0 -41 15.5t-16 41.5q0 37 26 63.5t61 26.5q25 0 41.5 -15.5t16.5 -41.5 q0 -37 -26.5 -63.5t-61.5 -26.5z" />
<glyph unicode="&#x1e93;" horiz-adv-x="431" d="M139 17q-52 0 -92 -27l-26 33q84 91 159.5 172.5t144.5 167.5q-38 12 -77 21t-66 9q-29 0 -46 -16t-38 -55l-13 4q17 86 38.5 134t67.5 48q32 0 63 -14.5t59 -36.5t49 -45q18 23 35 47t34 49q19 -6 32.5 -18.5t13.5 -29.5q0 -18 -10 -32t-34 -36q-72 -75 -142.5 -143.5 t-146.5 -143.5q18 4 37.5 5.5t39.5 1.5t45 -2.5t48.5 -5.5t38.5 -3q14 0 24 8t21 24q13 18 27 40l12 -5q-6 -24 -14 -52.5t-19 -53.5q-13 -31 -29.5 -51.5t-39.5 -20.5q-20 0 -56.5 7t-74.5 13.5t-65 6.5zM166 -239q-24 0 -40.5 15.5t-16.5 41.5q0 37 26.5 63.5t61.5 26.5 q24 0 40.5 -15.5t16.5 -41.5q0 -37 -26.5 -63.5t-61.5 -26.5z" />
<glyph unicode="&#x1e9e;" horiz-adv-x="685" d="M699 173q0 -58 -30 -99t-83.5 -62.5t-122.5 -21.5q-44 0 -81.5 9.5t-49.5 26.5q-7 8 -7 27q0 30 15.5 71t36.5 68l24 -1q-3 -39 0 -72t14 -53q18 -33 64 -33q50 0 76 34.5t26 83.5q0 42 -22.5 75.5t-59 65.5t-78.5 69l4 29l179 179q-12 41 -38.5 63.5t-65.5 22.5 q-57 0 -101.5 -47t-61.5 -127l-96 -453l-31 -28h-175l2 23l45 14q22 8 33 17t15 28l80 379q14 68 59 121.5t111 84.5t141 31q66 0 114 -23t74 -67l-2 -28l-174 -168q42 -37 80 -72.5t62 -75.5t24 -91z" />
<glyph unicode="&#x1ea0;" horiz-adv-x="691" d="M447 689h75l75 -605q3 -23 10.5 -33t23.5 -16l42 -15l-2 -20h-270l-4 20l81 27l-21 176l-225 -4l-94 -172l78 -27l-4 -20h-206l-3 20l57 20q17 6 27.5 15t20.5 28zM255 262l198 -1l-36 297zM260 -239q-25 0 -41.5 15.5t-16.5 41.5q0 37 26.5 63.5t61.5 26.5 q25 0 41 -15.5t16 -41.5q0 -37 -26.5 -63.5t-60.5 -26.5z" />
<glyph unicode="&#x1ea1;" horiz-adv-x="553" d="M473 154q-4 -20 -7.5 -37t-3.5 -27q0 -23 17 -23t40.5 22t43.5 46l9 -8q-15 -31 -39 -62.5t-53.5 -53t-63.5 -21.5q-37 0 -56 22t-19 59q0 16 3.5 36.5t8.5 46.5l16 69h-2q-17 -39 -40 -79.5t-50 -75.5t-56.5 -56.5t-59.5 -21.5q-43 0 -70 37t-27 101q0 73 23 141 t65.5 122t100 85.5t126.5 31.5q47 0 91.5 -10t76.5 -26l-15 -45zM187 147q0 -29 7.5 -47t23.5 -18q17 0 37 20t41 52t40 69.5t34.5 73.5t23.5 64l21 85q-23 21 -59 21q-31 0 -61 -29t-54.5 -76.5t-39 -103.5t-14.5 -111zM234 -239q-25 0 -41 15.5t-16 41.5q0 37 26 63.5 t61 26.5q25 0 41.5 -15.5t16.5 -41.5q0 -37 -26.5 -63.5t-61.5 -26.5z" />
<glyph unicode="&#x1eb8;" horiz-adv-x="605" d="M366 581l-46 -217l195 7l-14 -56l-190 8l-46 -216l-14 -66h120q24 0 46 1t39 4q11 15 23.5 35t31 50.5t47.5 75.5h24q-1 -47 -12.5 -105t-29.5 -102h-491l-2 20l48 18q18 7 28 16t14 28l5 25l101 474l12 59l-68 28l4 20h468q-1 -48 -14 -103t-32 -105h-24q-14 68 -21 103 t-13 59q-12 2 -35 3t-48 1h-92zM272 -239q-25 0 -41 15.5t-16 41.5q0 37 26 63.5t61 26.5q25 0 41 -15.5t16 -41.5q0 -37 -26 -63.5t-61 -26.5z" />
<glyph unicode="&#x1eb9;" horiz-adv-x="433" d="M434 141q-36 -68 -90.5 -109.5t-121.5 -41.5q-71 0 -110.5 49.5t-39.5 133.5q0 65 22.5 125t60.5 107t86.5 75t101.5 28q54 0 88.5 -29t34.5 -78q0 -50 -33.5 -90t-94 -63t-141.5 -22v9q-2 -23 -2 -46q0 -57 24 -88t65 -31q32 0 69.5 21.5t71.5 56.5zM329 466 q-28 0 -54.5 -29t-46 -76t-28.5 -102q47 3 84 25.5t58 58t21 76.5q0 47 -34 47zM172 -239q-25 0 -41.5 15.5t-16.5 41.5q0 37 26.5 63.5t61.5 26.5q25 0 41 -15.5t16 -41.5q0 -37 -26 -63.5t-61 -26.5z" />
<glyph unicode="&#x1ebc;" horiz-adv-x="605" d="M351 840q-14 -8 -32.5 -23.5t-42.5 -37.5l-13 7q22 65 58.5 100.5t85.5 35.5q35 0 68 -13.5t64 -28t60 -16.5q14 8 33 23.5t42 36.5l13 -7q-22 -64 -58.5 -100t-85.5 -36q-35 0 -67.5 14t-64 28.5t-60.5 16.5zM366 581l-46 -217l195 7l-14 -56l-190 8l-46 -216l-14 -66 h120q24 0 46 1t39 4q11 15 23.5 35t31 50.5t47.5 75.5h24q-1 -47 -12.5 -105t-29.5 -102h-491l-2 20l48 18q18 7 28 16t14 28l5 25l101 474l12 59l-68 28l4 20h468q-1 -48 -14 -103t-32 -105h-24q-14 68 -21 103t-13 59q-12 2 -35 3t-48 1h-92z" />
<glyph unicode="&#x1ebd;" horiz-adv-x="433" d="M241 655q-14 -8 -31.5 -24.5t-39.5 -38.5l-10 5q21 67 57.5 104.5t84.5 37.5q33 0 62.5 -14t57 -29t54.5 -18q14 8 31.5 24.5t39.5 38.5l11 -5q-21 -67 -58 -104.5t-84 -37.5q-33 0 -63 14.5t-58 29.5t-54 17zM434 141q-36 -68 -90.5 -109.5t-121.5 -41.5 q-71 0 -110.5 49.5t-39.5 133.5q0 65 22.5 125t60.5 107t86.5 75t101.5 28q54 0 88.5 -29t34.5 -78q0 -50 -33.5 -90t-94 -63t-141.5 -22v9q-2 -23 -2 -46q0 -57 24 -88t65 -31q32 0 69.5 21.5t71.5 56.5zM329 466q-28 0 -54.5 -29t-46 -76t-28.5 -102q47 3 84 25.5t58 58 t21 76.5q0 47 -34 47z" />
<glyph unicode="&#x1eca;" horiz-adv-x="386" d="M252 48l69 -28l-4 -20h-268l-2 20l48 18q17 7 27.5 16t13.5 28l7 25h-1l100 474l13 59l-69 28l4 20h269l2 -20l-49 -18q-17 -7 -27 -16.5t-14 -27.5l-6 -25v0l-100 -474zM129 -239q-25 0 -41.5 15.5t-16.5 41.5q0 37 26.5 63.5t61.5 26.5q25 0 41 -15.5t16 -41.5 q0 -37 -26 -63.5t-61 -26.5z" />
<glyph unicode="&#x1ecb;" horiz-adv-x="300" d="M263 590q-25 0 -41.5 15.5t-16.5 42.5q0 37 26.5 63t61.5 26q25 0 41 -15t16 -41q0 -38 -26 -64.5t-61 -26.5zM242 154q-5 -20 -8 -37t-3 -27q0 -23 17 -23t40.5 22t43.5 46l9 -8q-15 -31 -39 -62.5t-53.5 -53t-63.5 -21.5q-37 0 -56 22t-19 59q0 16 3.5 36.5t8.5 46.5 q10 45 22 95t22 95q4 20 7 37t3 27q0 22 -17 22t-40 -21.5t-43 -45.5l-10 8q16 31 39.5 62.5t53.5 53t63 21.5q37 0 56 -22t19 -60q0 -15 -3 -36t-9 -46q-10 -45 -22 -95.5t-21 -94.5zM128 -239q-25 0 -41.5 15.5t-16.5 41.5q0 37 26.5 63.5t61.5 26.5q25 0 41 -15.5 t16 -41.5q0 -37 -26.5 -63.5t-60.5 -26.5z" />
<glyph unicode="&#x1ecc;" horiz-adv-x="647" d="M673 446q0 -88 -27 -169.5t-75 -146t-111.5 -102.5t-136.5 -38q-66 0 -116.5 30.5t-79 87t-28.5 133.5q0 85 27 166.5t75.5 147t112.5 104.5t138 39q70 0 119.5 -31.5t75.5 -88.5t26 -132zM226 183q0 -65 26 -106t75 -41q39 0 72.5 32.5t60 85.5t46 116t30 125.5 t10.5 112.5q0 68 -23.5 106t-73.5 38q-40 0 -74 -30.5t-61.5 -81t-47 -112.5t-30 -125.5t-10.5 -119.5zM260 -239q-24 0 -40.5 15.5t-16.5 41.5q0 37 26.5 63.5t61.5 26.5q24 0 40.5 -15.5t16.5 -41.5q0 -37 -26.5 -63.5t-61.5 -26.5z" />
<glyph unicode="&#x1ecd;" horiz-adv-x="489" d="M500 320q0 -72 -21.5 -132.5t-58 -105t-82.5 -68.5t-95 -24q-75 0 -122 51t-47 138q0 68 21 127t57.5 104.5t83 71t96.5 25.5q80 0 124 -51t44 -136zM197 136q0 -49 13 -78t39 -29q21 0 40.5 23t35 61t27.5 83t18.5 91t6.5 84q0 45 -12 71.5t-39 26.5q-21 0 -40.5 -22 t-35.5 -58t-28 -80t-18.5 -89t-6.5 -84zM187 -239q-24 0 -40.5 15.5t-16.5 41.5q0 37 26.5 63.5t61.5 26.5q24 0 40.5 -15.5t16.5 -41.5q0 -37 -26.5 -63.5t-61.5 -26.5z" />
<glyph unicode="&#x1ee4;" horiz-adv-x="679" d="M624 246q-26 -125 -91.5 -190.5t-179.5 -65.5q-97 0 -156.5 49.5t-59.5 142.5q0 14 1.5 33t5.5 39l69 327l13 59l-69 28l4 20h269l2 -20l-49 -18q-17 -7 -27 -16.5t-14 -27.5l-6 -25v0l-70 -332q-4 -18 -5.5 -35t-1.5 -33q0 -68 34.5 -105t93.5 -37q67 0 115.5 50 t71.5 156l73 342l11 49l-84 29l4 23h219l2 -23l-92 -29l-11 -49zM299 -239q-24 0 -40.5 15.5t-16.5 41.5q0 37 26.5 63.5t61.5 26.5q24 0 40.5 -15.5t16.5 -41.5q0 -37 -26.5 -63.5t-61.5 -26.5z" />
<glyph unicode="&#x1ee5;" horiz-adv-x="595" d="M170 344q4 20 7 37t3 27q0 22 -17 22t-40.5 -21.5t-43.5 -45.5l-9 8q16 31 39.5 62.5t53 53t63.5 21.5q37 0 56 -22t19 -60q0 -15 -3 -36t-9 -46q-12 -47 -23.5 -92t-19.5 -81t-8 -54q0 -35 24 -35q19 0 43.5 26t50.5 67.5t48 91t37 96.5l29 138l54 4q12 1 28.5 2t23.5 1 q10 0 11 -6.5t-1 -16.5l-29 -139l-42 -192q-4 -20 -7.5 -37t-3.5 -27q0 -23 18 -23q16 0 39.5 22t43.5 46l9 -8q-15 -31 -38.5 -62.5t-53.5 -53t-64 -21.5q-37 0 -56 22t-19 59q0 16 3.5 36.5t9.5 46.5l13 61h-3q-17 -39 -39.5 -78.5t-50 -73t-57 -53.5t-60.5 -20 q-40 0 -61.5 25.5t-21.5 68.5q0 29 9 72t22 92t23 96zM266 -239q-25 0 -41 15.5t-16 42.5q0 37 26 63t61 26q25 0 41.5 -15t16.5 -41q0 -38 -26.5 -64.5t-61.5 -26.5z" />
<glyph unicode="&#x1ef2;" horiz-adv-x="663" d="M615 796l-10 -18q-37 1 -78.5 6.5t-77.5 16t-58.5 26.5t-22.5 37q0 24 23 40t43 23l10 -2q15 -18 42 -41t60.5 -46t68.5 -42zM381 48l69 -28l-4 -20h-269l-2 20l48 18q17 7 27.5 16t14.5 28l6 25v0l22 106q8 40 7 92.5t-9 107.5t-21.5 102t-30 76t-34.5 29t-39.5 -23 t-39.5 -50l-17 12q29 60 69 99.5t85 39.5q38 0 66.5 -29.5t47.5 -80.5t28.5 -117t11.5 -140q37 75 74.5 141t74 117t69 80t59.5 29q25 0 41 -20.5t25 -52t12 -64.5l-18 -6q-11 28 -25 46.5t-32 18.5q-22 0 -54.5 -29.5t-68.5 -78.5t-69.5 -108t-59 -117.5t-36.5 -106.5 l-15 -73z" />
<glyph unicode="&#x1ef3;" horiz-adv-x="493" d="M413 584l-13 -14q-49 21 -91 47.5t-67.5 53t-23.5 49.5q1 23 21 32.5t48 9.5h10.5h10.5l9 -6q12 -32 39 -80t57 -92zM193 508q49 0 73.5 -39t24.5 -123q0 -71 -15.5 -157t-43.5 -168q61 63 99.5 132.5t56.5 139t18 130.5q0 23 -2.5 40.5t-5.5 30.5q7 6 20.5 10t28.5 4 q75 0 75 -91q0 -74 -36 -154.5t-106 -157.5t-171 -142q-27 -62 -61 -112t-75.5 -79.5t-88.5 -29.5q-43 0 -69 18.5t-26 46.5q0 15 8 26.5t21 16.5q13 -17 27 -28t34 -11q31 0 56.5 27.5t46.5 73.5t37 100q17 56 28.5 114.5t17.5 109.5t6 85q0 109 -44 109q-17 0 -37 -21 t-39 -47l-10 9q15 32 38.5 63.5t52.5 52.5t61 21z" />
<glyph unicode="&#x1ef8;" horiz-adv-x="663" d="M377 840q-14 -7 -33 -23t-42 -37l-13 7q22 64 58.5 100t84.5 36q35 0 68 -14t64 -28t60 -17q15 8 33.5 23.5t41.5 36.5l14 -6q-22 -64 -59 -100t-86 -36q-34 0 -67 13.5t-64 28t-60 16.5zM381 48l69 -28l-4 -20h-269l-2 20l48 18q17 7 27.5 16t14.5 28l6 25v0l22 106 q8 40 7 92.5t-9 107.5t-21.5 102t-30 76t-34.5 29t-39.5 -23t-39.5 -50l-17 12q29 60 69 99.5t85 39.5q38 0 66.5 -29.5t47.5 -80.5t28.5 -117t11.5 -140q37 75 74.5 141t74 117t69 80t59.5 29q25 0 41 -20.5t25 -52t12 -64.5l-18 -6q-11 28 -25 46.5t-32 18.5 q-22 0 -54.5 -29.5t-68.5 -78.5t-69.5 -108t-59 -117.5t-36.5 -106.5l-15 -73z" />
<glyph unicode="&#x1ef9;" horiz-adv-x="493" d="M241 655q-14 -8 -31.5 -24.5t-39.5 -38.5l-11 5q21 67 58 104.5t84 37.5q33 0 62.5 -14t57.5 -29t55 -18q14 8 31.5 24.5t38.5 38.5l11 -5q-21 -67 -57.5 -104.5t-84.5 -37.5q-33 0 -63 14.5t-58 29.5t-53 17zM193 508q49 0 73.5 -39t24.5 -123q0 -71 -15.5 -157 t-43.5 -168q61 63 99.5 132.5t56.5 139t18 130.5q0 23 -2.5 40.5t-5.5 30.5q7 6 20.5 10t28.5 4q75 0 75 -91q0 -74 -36 -154.5t-106 -157.5t-171 -142q-27 -62 -61 -112t-75.5 -79.5t-88.5 -29.5q-43 0 -69 18.5t-26 46.5q0 15 8 26.5t21 16.5q13 -17 27 -28t34 -11 q31 0 56.5 27.5t46.5 73.5t37 100q17 56 28.5 114.5t17.5 109.5t6 85q0 109 -44 109q-17 0 -37 -21t-39 -47l-10 9q15 32 38.5 63.5t52.5 52.5t61 21z" />
<glyph unicode="&#x2007;" />
<glyph unicode="&#x2013;" horiz-adv-x="559" d="M75 251l11 43h489l-9 -43h-491z" />
<glyph unicode="&#x2014;" horiz-adv-x="860" d="M76 251l9 43h790l-9 -43h-790z" />
<glyph unicode="&#x2018;" horiz-adv-x="279" d="M367 758l9 -9q-38 -37 -68 -82.5t-45 -88.5q20 -8 30 -25t10 -37q0 -33 -25.5 -59.5t-62.5 -26.5q-29 0 -48 20.5t-19 53.5q0 32 18 68t48.5 71t70 65t82.5 50z" />
<glyph unicode="&#x2019;" horiz-adv-x="279" d="M140 430l-8 9q37 37 67.5 82.5t45.5 88.5q-21 8 -30.5 25t-9.5 37q0 33 25.5 59.5t61.5 26.5q30 0 48.5 -20t18.5 -54q0 -32 -17.5 -68t-48 -71t-70 -65t-83.5 -50z" />
<glyph unicode="&#x201a;" horiz-adv-x="297" d="M19 -184l-9 9q38 36 68 81.5t45 88.5q-20 8 -30 25t-10 37q0 33 25.5 60t62.5 27q29 0 48 -20.5t19 -53.5q0 -32 -18 -68.5t-48.5 -71.5t-70 -65t-82.5 -49z" />
<glyph unicode="&#x201c;" horiz-adv-x="501" d="M367 758l9 -9q-38 -37 -68 -82.5t-45 -88.5q20 -8 30 -25t10 -37q0 -33 -25.5 -59.5t-62.5 -26.5q-29 0 -48 20.5t-19 53.5q0 32 18 68t48.5 71t70 65t82.5 50zM588 758l9 -9q-38 -37 -68 -82.5t-45 -88.5q20 -8 30 -25t10 -37q0 -33 -25.5 -59.5t-62.5 -26.5 q-29 0 -48 20.5t-19 53.5q0 32 18 68t48.5 71t70 65t82.5 50z" />
<glyph unicode="&#x201d;" horiz-adv-x="500" d="M361 430l-8 9q37 36 67.5 81.5t45.5 89.5q-21 7 -30.5 24t-9.5 37q0 33 25.5 60t61.5 27q30 0 48.5 -20.5t18.5 -53.5q0 -32 -17.5 -68t-48 -71.5t-70 -65.5t-83.5 -49zM140 430l-8 9q37 36 67.5 81.5t45.5 89.5q-21 7 -30.5 24t-9.5 37q0 33 25.5 60t61.5 27 q30 0 48.5 -20.5t18.5 -53.5q0 -32 -17.5 -68t-48 -71.5t-70 -65.5t-83.5 -49z" />
<glyph unicode="&#x201e;" horiz-adv-x="500" d="M233 -173l-9 10q38 36 68.5 81.5t45.5 88.5q-21 8 -30.5 25t-9.5 37q0 33 25.5 60t61.5 27q30 0 48.5 -20.5t18.5 -54.5q0 -31 -17.5 -67.5t-48 -71.5t-70 -65t-83.5 -50zM12 -173l-9 10q38 36 68.5 81.5t45.5 88.5q-21 8 -30.5 25t-9.5 37q0 33 25.5 60t61.5 27 q30 0 48.5 -20.5t18.5 -54.5q0 -31 -17.5 -67.5t-48.5 -71.5t-70 -65t-83 -50z" />
</font>
</defs>
</svg>
