<?xml version="1.0" standalone="no"?>
<!DOCTYPE svg PUBLIC "-//W3C//DTD SVG 1.1//EN" "http://www.w3.org/Graphics/SVG/1.1/DTD/svg11.dtd" >
<svg xmlns="http://www.w3.org/2000/svg" xmlns:xlink="http://www.w3.org/1999/xlink" version="1.1">
<metadata></metadata>
<defs>
<font id="indivisa_text_serifregular" horiz-adv-x="575" >
<font-face units-per-em="1000" ascent="800" descent="-200" />
<missing-glyph horiz-adv-x="250" />
<glyph unicode="ff" horiz-adv-x="623" d="M189 40l85 -23l-2 -17h-229l-2 17l44 14q16 6 22.5 13.5t6.5 24.5v384h-71l-2 17l73 19v23q0 67 26.5 117.5t74 78.5t108.5 28q43 0 78 -18t54 -43q28 39 67.5 60t87.5 21q37 0 65.5 -13.5t45 -35t16.5 -45.5q0 -18 -11.5 -28.5t-28.5 -10.5q-11 0 -20 5 q-7 42 -26.5 66.5t-54.5 24.5q-53 0 -83.5 -48.5t-30.5 -135.5v-47h132v-35h-132v-413l92 -23l-2 -17h-236l-2 17l44 14q16 6 22.5 13.5t6.5 24.5v384h-218v-413zM406 509q1 47 12 89v1q-9 38 -35 69t-70 31q-58 0 -91 -42.5t-33 -118.5v-50h213l5 1z" />
<glyph unicode="ffi" horiz-adv-x="883" d="M189 40l85 -23l-2 -17h-229l-2 17l44 14q16 6 22.5 13.5t6.5 24.5v384h-71l-2 17l73 19v23q0 67 27 117.5t74.5 78.5t110.5 28q43 0 78.5 -17.5t54.5 -40.5q29 37 70.5 57.5t91.5 20.5q43 0 76.5 -13.5t53 -35t19.5 -45.5q0 -18 -10.5 -28.5t-27.5 -10.5q-15 0 -25 5 q-9 38 -33 64.5t-66 26.5q-59 0 -92.5 -47.5t-33.5 -133.5v-50h223q13 5 30.5 10.5t32.5 7.5l9 -9v-457l73 -23l-2 -17h-216l-2 17l43 14q17 6 23 13.5t6 24.5v384h-220v-413l87 -23l-2 -17h-231l-2 17l44 14q17 6 23 13.5t6 24.5v384h-218v-413zM407 509q0 52 15 97 q-10 36 -37 64.5t-69 28.5q-60 0 -93.5 -42.5t-33.5 -118.5v-50h218v21z" />
<glyph unicode="ffl" horiz-adv-x="883" d="M189 40l87 -23l-2 -17h-231l-2 17l44 14q16 6 22.5 13.5t6.5 24.5v384h-71l-2 17l73 19v23q0 67 27 117.5t74.5 78.5t110.5 28q41 0 75.5 -16t54.5 -39q28 36 68.5 55.5t90.5 19.5q25 0 47 -5t40 -14v8q35 9 66 12l9 -9v-708l73 -23l-2 -17h-216l-2 17l43 14 q17 6 23 13.5t6 24.5v384h-220v-413l87 -23l-2 -17h-231l-2 17l44 14q16 6 22.5 13.5t6.5 24.5v384h-218v-413zM482 558v-70h220v176q-13 24 -37.5 39.5t-56.5 15.5q-59 0 -92.5 -42.5t-33.5 -118.5zM407 527q0 46 13 86q-12 34 -38 60t-66 26q-60 0 -93.5 -42.5 t-33.5 -118.5v-50h218v39z" />
<glyph unicode="&#x2f;symbol&#x31;&#x2f;" horiz-adv-x="5534" d="M1865 412q-25 0 -40.5 14.5t-15.5 37.5q0 24 15.5 45t39 34.5t48.5 13.5q24 0 39 -13.5t15 -37.5t-14.5 -45.5t-37.5 -35t-49 -13.5zM1284 412q-26 0 -41.5 14.5t-15.5 37.5q0 24 15.5 45t39.5 34.5t49 13.5q24 0 38.5 -13.5t14.5 -37.5t-14.5 -45.5t-37 -35t-48.5 -13.5 zM959 0q0 21 2.5 46.5t8.5 61.5q-16 -49 -51 -82t-79 -33q-41 0 -63 30t-22 82q0 45 15.5 91t46.5 85.5t76.5 63.5t104.5 24h12.5t12.5 -1l16 73l6 102l136 7q0 -40 -9.5 -95t-23 -116.5t-27 -123.5t-23 -117.5t-9.5 -97.5h-130zM100 0l78 364q8 38 13.5 72.5t7.5 63.5 l128 7l11 -15l-104 -492h-134zM3503 492l-57 -492h-131l20 175q3 30 9 69t12.5 78t11.5 68h-3q-16 -53 -37 -107.5t-44 -107.5l-76 -175h-149l-2 175q-1 56 1 109t8 106h-2q-15 -61 -30 -115.5t-29 -99.5l-53 -175h-109l154 500l184 6l1 -137q1 -50 -2.5 -121.5 t-12.5 -137.5h2q20 65 36 111t30.5 81t27.5 67l56 131l169 7zM5316 300q-15 -74 -23 -110.5t-11 -51t-3 -21.5q0 -34 36 -34q13 0 28 5t31 13l-9 -79q-20 -11 -50 -20t-64 -9q-50 0 -77.5 25t-27.5 75q0 11 1.5 23.5t6 33.5t12.5 57.5t20 95.5l-47 1l9 44l54 14l53 95l81 6 l13 -15l-20 -86h99l6 -14l-17 -51zM336 0q0 28 4 62t13 82t24 116l6 102l137 7q0 -18 -2 -41t-5 -48h2q29 49 65.5 69t68.5 20q35 0 53.5 -19.5t18.5 -51.5q0 -23 -8 -62.5t-18 -84.5q-7 -33 -11 -57t-5.5 -45.5t-1.5 -48.5h-131q0 38 4.5 69.5t14.5 80.5q7 35 11 55.5 t4 31.5q0 24 -17 24t-34 -22.5t-30.5 -60.5t-22 -84t-9.5 -94h-131zM1170 0q0 39 7 87.5t20 105.5l14 67l6 102l137 7q0 -36 -8 -81.5t-19 -95.5t-19 -99t-8 -93h-130zM1399 362l140 7q6 -59 4.5 -137.5t-9.5 -151.5h2q23 45 42 95t32 99t17 90q17 4 28.5 4.5t21.5 0.5 q28 0 46.5 -7t18.5 -35q0 -22 -13.5 -60.5t-36.5 -85t-53.5 -94t-63.5 -87.5h-149q-2 111 -9.5 207.5t-17.5 154.5zM1752 0q0 39 7 87.5t19 105.5l15 67l6 102l137 7q0 -36 -8 -81.5t-19 -95.5t-19 -99t-8 -93h-130zM4716 0q0 28 4 62t13 82t24 116l6 102l137 7 q0 -18 -2.5 -41t-4.5 -48h2q29 49 65 69t69 20q35 0 53.5 -19.5t18.5 -51.5q0 -23 -8 -62.5t-18 -84.5q-7 -33 -11 -57t-6 -45.5t-2 -48.5h-130q0 38 4.5 69.5t14.5 80.5q7 35 11 55.5t4 31.5q0 24 -17 24q-18 0 -34.5 -22.5t-30.5 -60.5t-22.5 -84t-9.5 -94h-130zM2245 256 q-25 14 -51.5 22t-45.5 8q-17 0 -29.5 -7t-12.5 -19q0 -13 13 -22t32 -17.5t38 -20.5t32 -30.5t13 -47.5q0 -39 -25 -68t-66.5 -45t-89.5 -16q-33 0 -66.5 7.5t-51.5 20.5l27 93q27 -18 58.5 -28t52.5 -10q20 0 30 8t10 18q0 13 -13 22t-32 18t-38 21t-32 30t-13 46 q0 39 25.5 68t67.5 45.5t90 16.5q20 0 48.5 -3.5t55.5 -14.5zM2525 369q32 0 73.5 -7.5t72.5 -24.5l-29 -128q-20 -94 -25.5 -140.5t-5.5 -68.5h-130q0 20 2.5 45t9.5 67q-15 -50 -50.5 -84.5t-81.5 -34.5q-41 0 -62.5 30t-21.5 83q0 44 15.5 90.5t46.5 85.5t77.5 63 t108.5 24zM4653 51q-32 -28 -74 -43t-85 -15q-62 0 -102 33.5t-40 103.5q0 46 17.5 88.5t49.5 76.5t75 54t94 20q53 0 86 -23t33 -65q0 -56 -59 -95.5t-162 -44.5v-1q0 -29 15 -46.5t48 -17.5q22 0 45 7.5t45 20.5zM3936 0q0 28 4 62t13.5 82t24.5 116l5 102l137 7 q0 -18 -2 -41t-5 -48h2q29 49 65.5 69t68.5 20q35 0 53.5 -19.5t18.5 -51.5q0 -23 -8 -62.5t-18 -84.5q-7 -33 -11 -57t-5.5 -45.5t-1.5 -48.5h-131q0 38 4.5 69.5t14.5 80.5q8 35 11.5 55.5t3.5 31.5q0 24 -17 24t-34 -22.5t-30.5 -60.5t-22 -84t-9.5 -94h-131zM3768 369 q32 0 73 -7.5t72 -24.5l-28 -128q-20 -94 -25.5 -140.5t-5.5 -68.5h-130q0 20 2.5 45t9.5 67q-15 -50 -50.5 -84.5t-81.5 -34.5q-41 0 -63 30t-22 83q0 44 15.5 90.5t47 85.5t78 63t108.5 24zM4490 177q46 10 72.5 33.5t26.5 59.5q0 17 -5.5 24t-16.5 7q-20 0 -36 -20 t-26 -48.5t-15 -55.5zM3677 101q17 0 33 21t30 54t22 69q2 11 4.5 22t4.5 22q-16 8 -27 8q-18 0 -34.5 -16t-29 -40.5t-20 -51.5t-7.5 -48q0 -40 24 -40zM913 101q16 0 31 19.5t28.5 50t22.5 64.5l4 20l4 20l3 14q-14 8 -27 8q-18 0 -34 -16t-28.5 -40.5t-20 -51.5t-7.5 -48 q0 -40 24 -40zM2435 101q16 0 32.5 21t30 54t21.5 69q2 11 4.5 22t4.5 22q-14 8 -27 8q-18 0 -34 -16t-29 -40.5t-20 -51.5t-7 -48q0 -40 24 -40z" />
<glyph unicode="&#x2f;symbol&#x32;&#x2f;" horiz-adv-x="932" d="M494 570l52 -90l-137 -240h-103l137 240l-52 90h103zM357 570l52 -90l-138 -240h-103l138 240l-52 90h103zM752 120h-103l-137 240l51 90l137 -240h103zM683 0h-103l-137 240l51 90l138 -240h103zM100 120l51 90h275l51 -90h-274l-52 -90zM168 0l52 90h274l52 -90h-275 l-51 -90zM789 88q18 0 30.5 -13t12.5 -31t-12.5 -31t-30.5 -13t-30.5 13t-12.5 31t12.5 31t30.5 13zM829 44q0 17 -11.5 28.5t-28.5 11.5q-16 0 -28 -11.5t-12 -28.5q0 -16 12 -28t28 -12q17 0 28.5 12t11.5 28zM771 69h18h5t6 -2q5 -4 5 -11q0 -5 -3 -8q-1 -2 -2.5 -2.5 t-3.5 -1.5q7 -1 8 -9q0 -8 3 -16h-8q-1 2 -1 6t-1 7q-1 5 -2.5 7.5t-8.5 2.5h-8v-23h-7v50zM778 47h10h3.5t3.5 1q3 3 3 7q0 6 -4 7t-6 1h-10v-16z" />
<glyph unicode="&#x2f;symbol&#x33;&#x2f;" horiz-adv-x="957" d="M505 638l68 -270h270l-203 -135l136 -270l-271 135l-270 -270l135 405l-270 203l338 -68zM814 87q18 0 30.5 -12.5t12.5 -31.5q0 -18 -12.5 -30.5t-30.5 -12.5t-30.5 12.5t-12.5 30.5q0 19 12.5 31.5t30.5 12.5zM854 43q0 17 -11.5 29t-28.5 12q-16 0 -28 -12t-12 -29 q0 -16 12 -28t28 -12q17 0 28.5 12t11.5 28zM796 68h18h5.5t5.5 -2q6 -3 6 -10q0 -5 -4 -9q-3 -3 -6 -3q7 -3 8 -10q1 -4 1.5 -7.5t1.5 -8.5h-7q-1 3 -1.5 7t-1.5 7q0 9 -10 9h-9v-23h-7v50zM803 47h10h3.5t3.5 1l2 2t1 4q0 7 -4 8t-6 1h-10v-16z" />
<glyph unicode="&#x2f;symbol&#x34;&#x2f;" horiz-adv-x="2607" d="M1684 406q0 32 -2.5 63t-8.5 65l126 14l15 -15v-533h-130v406zM1889 406q0 62 -10 128l126 14l14 -15v-533h-130v406zM427 101v-101h-320v362q0 38 -1.5 72t-5.5 63l126 7l14 -14v-396zM925 21l7 109q31 -18 72 -27t72 -9q50 0 50 36q0 19 -20.5 34t-50 31t-59.5 37 t-50.5 51t-20.5 74q0 48 26 80.5t70 49.5t97 17q81 0 127 -18l-14 -111q-28 14 -55 21.5t-56 7.5q-28 0 -43 -11t-15 -29q0 -22 20.5 -38.5t50.5 -32.5t59.5 -36.5t50 -49.5t20.5 -73q0 -67 -54 -104t-139 -37q-40 0 -82.5 8t-62.5 20zM795 0l-106 -7q-7 11 -12 24t-9 25h-4 q-15 -22 -42.5 -35.5t-61.5 -13.5q-41 0 -69 22t-28 67q0 61 53.5 88.5t137.5 29.5v20q0 54 -58 54q-55 0 -108 -29l-8 97q27 10 68.5 18t81.5 8q154 0 154 -135q0 -38 -2 -69.5t-2 -69.5q0 -24 4.5 -50.5t10.5 -43.5zM1626 0l-107 -7q-7 11 -12 24t-9 25h-3 q-15 -22 -42.5 -35.5t-62.5 -13.5q-40 0 -68 22t-28 67q0 61 53 88.5t138 29.5v20q0 54 -58 54q-54 0 -109 -29l-7 97q27 10 68.5 18t81.5 8q153 0 153 -135q0 -38 -1.5 -69.5t-1.5 -69.5q0 -24 4.5 -50.5t10.5 -43.5zM2405 213v-17t-1 -19l-11 -11h-191q8 -45 33.5 -64 t64.5 -19q24 0 45.5 6t38.5 15l7 -81q-17 -11 -49.5 -20.5t-77.5 -9.5q-88 0 -143 47t-55 135q0 58 24 101t66 67.5t94 24.5q73 0 114 -43.5t41 -111.5zM2199 207l78 4q1 5 1.5 11t0.5 15q0 23 -7.5 41t-26.5 18q-23 0 -34 -25.5t-12 -63.5zM654 74v88q-27 -3 -46 -17 t-19 -40q0 -18 10.5 -29t26.5 -11t28 9zM1485 74v88q-27 -3 -46 -17t-19 -40q0 -18 10 -29t27 -11q16 0 28 9zM2464 85q18 0 30.5 -13t12.5 -31t-12.5 -31t-30.5 -13t-31 13t-13 31t13 31t31 13zM2504 41q0 17 -11.5 28.5t-28.5 11.5q-16 0 -28 -11.5t-12 -28.5 q0 -16 12 -28t28 -12q17 0 28.5 12t11.5 28zM2446 66h18q2 0 5 -0.5t6 -2.5q5 -2 5 -10q0 -4 -3 -9q-3 -3 -6 -3q7 -1 8 -10q0 -7 3 -15h-8q-1 2 -1 6t-1 7q-1 5 -2.5 7t-8.5 2h-8v-22h-7v50zM2453 44h10h3.5t3.5 1q3 3 3 7q0 6 -4 7t-6 1h-10v-16z" />
<glyph unicode="&#x2f;symbol&#x35;&#x2f;" horiz-adv-x="705" d="M232 -6l-132 136l124 234l129 -136zM474 -6l-121 234l128 136l124 -234z" />
<glyph unicode=" "  horiz-adv-x="250" />
<glyph unicode="&#x09;" horiz-adv-x="250" />
<glyph unicode="&#xa0;" horiz-adv-x="250" />
<glyph unicode="!" horiz-adv-x="297" d="M103 684l5 5l18 3q10 1 23 2.5t22 1.5q25 0 25 -25q0 -7 -1 -15.5t-1 -15.5l-26 -443h-37zM197 50q0 -24 -13.5 -42t-38.5 -18q-21 0 -33.5 15t-12.5 37q0 23 15 40.5t39 17.5q20 0 32 -14t12 -36z" />
<glyph unicode="&#x22;" horiz-adv-x="377" d="M59 763l4 4q34 4 72 4l11 -13l-33 -268h-26l-10 131zM234 763l4 4q34 4 72 4l11 -13l-33 -268h-26l-10 131z" />
<glyph unicode="#" horiz-adv-x="760" d="M208 -10l-41 5l-8 8l46 186h-139l-8 8l7 41h152l52 211h-136l-8 8l7 41h149l50 198l41 -5l8 -8l-46 -185h171l49 198l42 -5l8 -8l-46 -185h136l8 -8l-6 -41h-150l-53 -211h139l8 -8l-6 -41h-153l-49 -199l-42 5l-8 8l46 186h-171zM270 238h171l52 211h-171z" />
<glyph unicode="$" horiz-adv-x="508" d="M270 -137l-36 -3l-7 7v123q-56 1 -101 12t-54 24q-7 10 -9.5 24t-2.5 36q0 20 4 48t11 49l19 -1q9 -53 18 -79.5t25 -42.5q18 -19 47.5 -25t62.5 -6q60 0 91.5 34t31.5 82q0 45 -22 77t-56.5 56.5t-73 47.5t-72.5 49.5t-56 62t-22 86.5q0 76 50 120t125 51v132l36 3l8 -7 v-127q52 -2 88.5 -13.5t47.5 -23.5q5 -6 6.5 -19.5t1.5 -27.5q0 -22 -3.5 -52t-11.5 -56h-19q-8 52 -17.5 79.5t-20.5 40.5q-14 16 -39.5 25t-55.5 9q-54 0 -85.5 -32t-31.5 -85q0 -45 21.5 -76.5t56 -56t73 -47t73 -49t56 -62t21.5 -86.5q0 -74 -47 -119.5t-131 -53.5v-128 z" />
<glyph unicode="%" horiz-adv-x="954" d="M707 696l-422 -706h-46l422 706h46zM69 483q-1 59 18 105.5t56 73.5t89 27q51 0 86.5 -26.5t54 -73t19.5 -104.5t-18 -105.5t-55.5 -75.5t-89.5 -28t-88.5 27t-53.5 73.5t-18 106.5zM129 483q1 -86 24 -131.5t78 -45.5q54 0 77.5 48t22.5 131q0 83 -23.5 128.5 t-76.5 45.5t-78 -47t-24 -129zM562 197q-1 59 18.5 105.5t56.5 73.5t88 27q52 0 87.5 -26.5t54 -73t18.5 -104.5q1 -58 -17.5 -105.5t-55 -75.5t-89.5 -28t-89 27t-54 73.5t-18 106.5zM623 197q0 -86 23.5 -131.5t77.5 -45.5t78 48t23 131t-24.5 128.5t-75.5 45.5 q-53 0 -78 -47t-24 -129z" />
<glyph unicode="&#x26;" horiz-adv-x="774" d="M318 -10q-71 0 -125 24.5t-84.5 67.5t-30.5 100q0 61 36.5 110t93.5 70q-35 42 -52.5 80.5t-17.5 82.5q0 49 26.5 87.5t70.5 61t98 22.5q76 0 120 -38t44 -95q0 -24 -12.5 -38t-33.5 -14q-16 0 -26 5q3 21 3 36q-1 46 -27 76t-72 30q-47 0 -80 -33t-33 -82 q0 -44 20.5 -83t61.5 -83l220 -239q26 52 26 118q0 73 -33 113q14 15 38 15q30 0 45.5 -30t15.5 -74q0 -101 -58 -178q46 -44 88 -56.5t92 -1.5l4 -11q-15 -17 -39 -30t-60 -13q-38 0 -70 14.5t-66 44.5q-36 -27 -82 -43t-101 -16zM157 194q0 -49 22 -86.5t61.5 -58 t90.5 -20.5q42 0 77.5 12.5t62.5 35.5q-13 12 -26 26t-28 30l-184 202q-34 -21 -55 -59.5t-21 -81.5z" />
<glyph unicode="'" horiz-adv-x="202" d="M58 763l3 4q35 4 73 4l10 -13l-33 -268h-25l-10 131z" />
<glyph unicode="(" horiz-adv-x="363" d="M325 -179l-13 -15q-102 73 -158 195.5t-56 279.5t56 279.5t158 195.5l13 -14q-70 -76 -108.5 -195t-38.5 -266t38.5 -266t108.5 -194z" />
<glyph unicode=")" horiz-adv-x="363" d="M38 742l13 14q102 -73 158 -195.5t56 -279.5t-56 -279.5t-158 -195.5l-13 15q70 75 108.5 194t38.5 266t-38.5 266t-108.5 195z" />
<glyph unicode="*" horiz-adv-x="440" d="M243 507q0 -24 -23 -24t-23 24q0 19 6 43.5t9 54.5q-25 -17 -43.5 -35t-34.5 -27q-21 -12 -32 9q-12 19 9 31q16 10 40.5 17t51.5 20q-27 12 -51.5 19t-40.5 17q-21 12 -9 32q11 20 32 8q16 -9 34.5 -26.5t43.5 -35.5q-3 30 -9 55t-6 43q0 24 23 24t23 -24q0 -18 -6 -43 t-9 -55q25 18 43.5 35.5t34.5 26.5q21 12 33 -8q11 -20 -10 -32q-16 -10 -40.5 -17t-51.5 -19q27 -13 51.5 -20t40.5 -17q21 -12 10 -31q-12 -21 -33 -9q-16 9 -34.5 27t-43.5 35q3 -30 9 -54.5t6 -43.5z" />
<glyph unicode="+" d="M493 317h-179v-175h-52v175h-186v48q32 1 81.5 1.5t103.5 1.5v176h53v-175q51 0 98 0.5t79 0.5l8 -8z" />
<glyph unicode="," horiz-adv-x="240" d="M61 -176q19 30 35.5 73.5t23.5 92.5q-26 0 -41.5 16t-15.5 40t18 42.5t45 18.5q26 0 41 -18t15 -47q0 -37 -15.5 -79t-40 -81t-53.5 -68z" />
<glyph unicode="-" horiz-adv-x="386" d="M42 250v39h302v-39h-302z" />
<glyph unicode="." horiz-adv-x="229" d="M113 -10q-25 0 -40 16t-15 38q0 24 17 43.5t43 19.5q23 0 37.5 -15t15.5 -38q0 -25 -15.5 -44.5t-42.5 -19.5z" />
<glyph unicode="/" horiz-adv-x="395" d="M130 -10l-44 9l-8 8l188 749l43 -8l8 -8z" />
<glyph unicode="0" horiz-adv-x="580" d="M50 342q-1 103 28 183t83.5 125.5t131.5 45.5q76 0 129 -45.5t80 -124.5t28 -180q1 -100 -26.5 -180.5t-81.5 -128t-132 -47.5q-80 0 -133 45.5t-79.5 125t-27.5 181.5zM130 342q1 -95 17.5 -165.5t52 -108.5t91.5 -38t91.5 40.5t52 111.5t15.5 164q-1 94 -17.5 163.5 t-51 108t-90.5 38.5q-55 0 -91 -39t-53.5 -109.5t-16.5 -165.5z" />
<glyph unicode="1" horiz-adv-x="335" d="M205 40l93 -23l-2 -17h-259l-2 17l55 12q22 6 31 14t9 26v562l-93 9l-2 15l161 41l9 -9v-647z" />
<glyph unicode="2" horiz-adv-x="513" d="M52 0l-8 48q67 66 125 123.5t101.5 111t68 106t24.5 108.5q0 62 -35.5 99.5t-99.5 37.5q-49 0 -92 -27t-75 -68l-15 8q30 68 86 108.5t128 40.5q57 0 97.5 -23.5t62.5 -64.5t22 -92q0 -61 -27 -116.5t-73.5 -109.5t-106.5 -110t-126 -119h252q26 0 40.5 8.5t24.5 29 t21 57.5l16 -1q-1 -35 -6.5 -77t-15.5 -78h-389z" />
<glyph unicode="3" horiz-adv-x="490" d="M114 313l-3 34q68 13 120 36.5t81 59t29 86.5q0 44 -32 74t-86 30q-52 0 -96.5 -28.5t-77.5 -73.5l-14 9q30 73 88.5 114.5t128.5 41.5q50 0 88 -19t59.5 -52.5t21.5 -76.5q0 -57 -30 -96t-74.5 -63t-89.5 -36q58 -3 106.5 -24t77.5 -59.5t29 -92.5t-32.5 -96.5 t-88 -66.5t-124.5 -24q-81 0 -133 29.5t-52 79.5q0 25 17 43.5t44 27.5l8 -8q-2 -7 -4 -15t-2 -18q2 -49 33.5 -76.5t95.5 -27.5q70 0 116.5 38.5t47.5 104.5q0 50 -28.5 82.5t-72.5 49t-93 16.5q-14 0 -29 -1t-29 -2z" />
<glyph unicode="4" horiz-adv-x="562" d="M18 201l342 493l52 -6v-473h116l-8 -51h-108v-164h-75v164h-307zM78 215h259v388z" />
<glyph unicode="5" horiz-adv-x="504" d="M80 364l2 322h356q0 -38 -4 -81t-11 -79l-20 1q-3 39 -6.5 59.5t-14 28.5t-33.5 8h-217l-2 -233q10 1 21 1h22q85 0 150 -23t102 -68t37 -111q0 -58 -30.5 -102.5t-84.5 -70.5t-123 -26q-84 0 -137 30t-53 79q0 25 16.5 43.5t44.5 27.5l8 -8q-2 -6 -4 -15t-2 -20 q2 -50 38 -76t98 -26q71 0 112.5 42.5t41.5 108.5q0 90 -78 135t-219 42z" />
<glyph unicode="6" horiz-adv-x="545" d="M503 201q0 -64 -30.5 -111.5t-81 -73.5t-112.5 -26q-68 0 -119.5 33.5t-80.5 95.5t-29 146q0 89 31 163.5t86.5 131t130.5 91.5t163 45l6 -27q-86 -22 -156 -67t-116.5 -113.5t-60.5 -159.5q35 30 77 47.5t91 17.5q60 0 105 -24t70.5 -67t25.5 -102zM128 253 q0 -66 19.5 -116.5t54.5 -79.5t82 -29q40 0 72.5 20t51 56.5t18.5 84.5q0 70 -40.5 116t-112.5 46q-38 0 -76.5 -16t-67.5 -47q-1 -17 -1 -35z" />
<glyph unicode="7" horiz-adv-x="489" d="M464 686l7 -48q-51 -59 -92.5 -133.5t-72.5 -159t-50.5 -172.5t-25.5 -173h-77q6 81 30 167t60 169t79.5 156.5t89.5 130.5h-292q-23 0 -34 -8t-16.5 -28.5t-10.5 -58.5h-18q-4 32 -3.5 77t4.5 81h422z" />
<glyph unicode="8" horiz-adv-x="529" d="M487 166q0 -51 -28.5 -90.5t-79.5 -63t-119 -23.5q-64 0 -113 21t-77 57.5t-28 83.5q0 44 23 81.5t61.5 66t85.5 44.5q-36 21 -66 46.5t-48.5 58.5t-18.5 79q0 47 25 85.5t70 61t104 22.5q82 0 132 -43t50 -111q0 -64 -39.5 -111t-91.5 -74q41 -22 77 -47.5t58.5 -60 t22.5 -83.5zM151 543q0 -43 21.5 -73.5t56 -53.5t73.5 -44q35 27 64 71t29 99q0 51 -32 84.5t-88 33.5q-54 0 -89 -33.5t-35 -83.5zM116 159q0 -60 42 -96.5t105 -36.5q40 0 74 15.5t54.5 44t20.5 67.5q0 43 -25 73t-64.5 53.5t-81.5 47.5q-55 -29 -90 -72t-35 -96z" />
<glyph unicode="9" horiz-adv-x="546" d="M496 423q0 -121 -53 -213.5t-145.5 -149t-213.5 -70.5l-5 28q82 21 152 64t118 110.5t63 161.5q-33 -30 -75 -47t-91 -17q-60 0 -106 23.5t-72 66.5t-26 101q0 66 31 114.5t82.5 74.5t111.5 26q71 0 122 -35t79 -97t28 -141zM119 491q0 -69 41.5 -113.5t113.5 -44.5 q36 0 74.5 16t68.5 47q1 17 1 36q0 62 -17.5 113.5t-51.5 82t-83 30.5q-65 0 -106 -46t-41 -121z" />
<glyph unicode=":" horiz-adv-x="229" d="M113 315q-25 0 -40 15.5t-15 37.5q0 25 17 44t43 19q23 0 37.5 -14.5t15.5 -37.5q0 -26 -15.5 -45t-42.5 -19zM113 -10q-25 0 -40 16t-15 38q0 24 17 43.5t43 19.5q23 0 37.5 -15t15.5 -38q0 -25 -15.5 -44.5t-42.5 -19.5z" />
<glyph unicode=";" horiz-adv-x="240" d="M115 315q-24 0 -39 15.5t-15 37.5q-1 25 16.5 44t43.5 19q23 0 37.5 -14.5t14.5 -37.5q0 -26 -15 -45t-43 -19zM61 -176q19 30 35.5 73.5t23.5 92.5q-26 0 -41.5 16t-15.5 40t18 42.5t45 18.5q26 0 41 -18t15 -47q0 -37 -15.5 -79t-40 -81t-53.5 -68z" />
<glyph unicode="&#x3c;" d="M485 111l-417 222l3 26l1 3q27 14 68 36t88.5 46.5t95.5 49t90 45t70 33.5v-58l-329 -168l330 -177v-58z" />
<glyph unicode="=" d="M493 415h-417v48q35 1 90 1.5t116 1.5t116.5 1.5t92.5 0.5l8 -8zM493 220h-417v48q35 1 90 2t116 1.5t116.5 1t92.5 0.5l8 -8z" />
<glyph unicode="&#x3e;" d="M90 111v58l330 177l-329 168v58q28 -13 70 -33.5t90 -45t95.5 -49t88.5 -46.5t69 -36l1 -3l3 -26z" />
<glyph unicode="?" horiz-adv-x="429" d="M223 223l-8 -8q-23 0 -38 13.5t-15 36.5q0 26 17.5 46t43 39t50.5 42.5t42.5 56.5t17.5 82q0 57 -30 93t-85 36q-57 0 -91.5 -35t-34.5 -87q0 -13 2.5 -26t6.5 -27q-7 -4 -16 -6.5t-18 -2.5q-21 0 -35 16t-14 44q0 43 27.5 79.5t74 58.5t104.5 22q52 0 94.5 -20.5 t67.5 -59t25 -93.5q0 -50 -22.5 -89t-54.5 -67.5t-61 -47.5t-42 -29q-8 -7 -8 -29v-38zM251 50q0 -24 -13.5 -42t-38.5 -18q-21 0 -34 15t-13 37q0 23 15.5 40.5t38.5 17.5q21 0 33 -14t12 -36z" />
<glyph unicode="@" horiz-adv-x="1093" d="M774 40q37 0 75 22.5t69.5 64t51 99.5t19.5 129q0 78 -27 144t-75.5 114.5t-115 75t-146.5 26.5q-72 0 -146 -24.5t-141.5 -71t-120 -112.5t-83 -148.5t-30.5 -179.5q0 -84 28 -156t78.5 -125.5t119.5 -83t151 -29.5q68 0 119 12t91 31t75 39l16 -27q-53 -42 -127.5 -69 t-169.5 -27t-173 32.5t-135 90.5t-88 136t-31 168q0 106 32.5 196t89.5 162t130.5 122.5t155.5 77.5t165 27q90 0 164 -30.5t128 -85t83 -128t29 -160.5q0 -73 -22.5 -138.5t-61.5 -115.5t-91 -79t-111 -29q-52 0 -83.5 24.5t-43.5 65.5t-4 91q0 1 1.5 11t3.5 23.5t3.5 23.5 t1.5 11h-1q-18 -42 -41.5 -85.5t-51.5 -81t-58.5 -60.5t-61.5 -23q-39 0 -63.5 35t-24.5 100q0 73 23.5 141t65.5 122.5t98.5 86t121.5 31.5q37 0 70.5 -7.5t56.5 -19.5l-13 -49l-42 -185q-21 -92 -5 -148.5t72 -56.5zM406 133q0 -34 10.5 -57t30.5 -23q19 0 44 26t51.5 68 t51 90t42.5 92t26 74l13 52q-12 5 -24.5 9t-30.5 4q-39 0 -76.5 -29t-69 -77t-50 -107.5t-18.5 -121.5z" />
<glyph unicode="A" horiz-adv-x="712" d="M333 686h47l216 -611q6 -19 15 -27t24 -13l51 -14l-2 -21h-243l-2 21l83 22l-68 198l-239 -4l-67 -193l83 -23l-2 -21h-201l-2 21q3 1 15.5 4.5l25 7t13.5 4.5q27 9 37 38zM228 275h215l-108 313z" />
<glyph unicode="B" horiz-adv-x="613" d="M290 650h-75v-283h83q69 0 107 40.5t38 105.5q0 66 -40.5 101.5t-112.5 35.5zM295 332h-80v-296h95q79 0 126.5 39.5t47.5 108.5t-51.5 108.5t-137.5 39.5zM55 665l2 21h245q100 0 158 -44.5t58 -125.5q0 -66 -35 -105.5t-82 -54.5q76 -18 119 -61.5t43 -109.5 q0 -91 -67 -138t-175 -47h-264l-2 21l51 14q18 5 25 12.5t7 24.5v552q0 10 -4 14.5t-17 7.5z" />
<glyph unicode="C" horiz-adv-x="644" d="M404 -10q-107 0 -184.5 41.5t-119.5 120t-42 189.5q0 110 45 189.5t122 122.5t171 43q53 0 93.5 -8.5t70.5 -21.5q5 -23 5 -57q0 -22 -2 -51.5t-7 -56.5l-18 -1q-14 38 -27 74.5t-27 69.5q-18 5 -35.5 8t-45.5 3q-74 0 -134 -38.5t-95 -109t-35 -166.5q1 -95 34 -164.5 t93 -107.5t141 -38q35 0 53.5 3t34.5 8q15 33 29.5 69.5t28.5 72.5h18q4 -21 5.5 -44t1.5 -43q0 -22 -1 -41.5t-4 -37.5q-32 -12 -74.5 -20t-94.5 -8z" />
<glyph unicode="D" horiz-adv-x="689" d="M289 649h-74v-611h74q127 0 194 81t67 224q0 142 -67 224t-194 82zM631 343q0 -107 -41 -183.5t-116.5 -118t-180.5 -41.5h-236l-2 21l51 14q18 5 25 12.5t7 24.5v552q0 10 -4 14.5t-17 7.5l-62 19l2 21h236q105 0 181 -41.5t116.5 -118.5t40.5 -183z" />
<glyph unicode="E" horiz-adv-x="581" d="M215 361l212 7l-2 -47l-210 5v-290h134q26 0 53.5 1.5t46.5 3.5q2 3 7.5 18.5t11 32t7.5 21.5l23 71h19q6 -40 6 -90q0 -52 -7 -94h-459l-2 21l51 14q18 5 25 12.5t7 24.5v552q0 10 -4 14.5t-17 7.5l-62 19l2 21h449q7 -41 7 -94q0 -25 -1.5 -46.5t-4.5 -42.5h-19l-23 71 q-2 4 -7.5 20.5t-11 32.5t-7.5 18q-19 2 -46.5 3.5t-53.5 1.5h-124v-289z" />
<glyph unicode="F" horiz-adv-x="544" d="M215 45l103 -24l-2 -21h-259l-2 21l51 14q18 5 25 12.5t7 24.5v552q0 10 -4 14.5t-17 7.5l-62 19l2 21h446q7 -41 7 -94q0 -25 -1.5 -46.5t-4.5 -42.5h-19l-23 71q-2 4 -7.5 20.5t-10.5 32.5t-7 18q-19 2 -46.5 3.5t-54.5 1.5h-121v-305l212 6l-2 -46l-210 5v-265z" />
<glyph unicode="G" horiz-adv-x="699" d="M396 -10q-104 0 -180 42t-117 121t-41 188t46 189t123.5 123t173.5 43q54 0 97.5 -8t74.5 -22q5 -23 5 -57q0 -22 -2.5 -51.5t-6.5 -56.5l-19 -1q-4 7 -11 28t-15.5 46t-16 45t-10.5 25q-20 6 -40.5 8.5t-52.5 2.5q-73 0 -133 -38.5t-96 -109t-36 -165.5t33 -165t92 -108 t137 -38q31 0 53 3t49 10v231l-83 24l2 21h232l2 -21l-51 -14q-17 -4 -22 -12t-5 -24v-228q-35 -14 -79 -22.5t-103 -8.5z" />
<glyph unicode="H" horiz-adv-x="765" d="M215 45l83 -24l-2 -21h-239l-2 21l51 14q18 5 25 12.5t7 24.5v570l-83 23l2 21h239l2 -21l-51 -13q-18 -6 -25 -13.5t-7 -23.5v-247h335v274l-83 23l2 21h239l2 -21l-51 -13q-18 -6 -24.5 -13.5t-6.5 -23.5v-570l82 -24l-2 -21h-239l-2 21l51 14q18 5 25 12.5t7 24.5v256 h-335v-283z" />
<glyph unicode="I" horiz-adv-x="353" d="M215 45l83 -24l-2 -21h-239l-2 21l51 14q18 5 25 12.5t7 24.5v570l-83 23l2 21h239l2 -21l-51 -13q-18 -6 -25 -13.5t-7 -23.5v-570z" />
<glyph unicode="J" horiz-adv-x="338" d="M138 642l-82 23l2 21h239l2 -21l-51 -13q-19 -6 -25.5 -13.5t-6.5 -23.5v-539q0 -64 -18.5 -108.5t-51 -77t-74.5 -60.5l-17 18q26 36 44.5 70.5t28.5 79t10 110.5v534z" />
<glyph unicode="K" horiz-adv-x="692" d="M215 45l83 -24l-2 -21h-239l-2 21l51 14q18 5 25 12.5t7 24.5v570l-83 23l2 21h239l2 -21l-51 -13q-18 -6 -25 -13.5t-7 -23.5v-264l121 1l186 291l-85 22l2 21h216l2 -21q-3 -1 -17 -4.5t-27.5 -7.5t-15.5 -5q-15 -5 -25 -14t-22 -26l-161 -236l138 -234 q27 -46 47.5 -69.5t56.5 -38.5l28 -10l-2 -20l-78 -1q-41 0 -62.5 17.5t-40.5 50.5l-141 246h-120v-268z" />
<glyph unicode="L" horiz-adv-x="566" d="M138 642l-83 23l2 21h239l2 -21l-51 -13q-18 -6 -25 -13.5t-7 -23.5v-579h127q28 0 56.5 2.5t49.5 7.5q6 15 13 34t15 48l15 48h19q6 -39 6 -89q0 -49 -7 -87h-452l-2 21l51 14q18 5 25 12.5t7 24.5v570z" />
<glyph unicode="M" horiz-adv-x="1001" d="M172 45l84 -24l-2 -21h-202l-2 21l51 14q18 5 23.5 12.5t8.5 24.5l69 569l-83 24l2 21h165l220 -580l216 580h160l2 -21l-84 -24l71 -578q3 -21 30 -27l53 -15l-2 -21h-238l-2 21l40 12q4 1 14.5 4.5t19.5 8t9 8.5l-67 528l-158 -417l-61 -165h-47l-59 165l-165 428z" />
<glyph unicode="N" horiz-adv-x="739" d="M179 45l102 -24l-2 -21h-222l-2 21l51 14q18 5 25 12.5t7 24.5v552q0 10 -9 17t-21 10l-53 14l2 21h147l372 -575v531l-82 23l2 21h202l2 -21l-51 -13q-18 -6 -24.5 -13.5t-6.5 -23.5v-615h-57l-382 583v-538z" />
<glyph unicode="O" horiz-adv-x="676" d="M58 344q0 110 37.5 189t102.5 121t146 42q80 0 142 -41.5t97 -119.5t35 -186q0 -110 -35.5 -190.5t-98.5 -124.5t-147 -44t-147 42.5t-97.5 121.5t-34.5 190zM139 344q0 -97 25 -167.5t70 -108.5t106 -38t105 40t68 112t24 167q0 93 -23.5 162.5t-67 107t-102.5 37.5 q-61 0 -107 -38t-72 -108t-26 -166z" />
<glyph unicode="P" horiz-adv-x="587" d="M300 646h-85v-338h82q81 0 128 42t47 123q0 82 -46 127.5t-126 45.5zM215 45l103 -24l-2 -21h-259l-2 21l51 14q18 5 25 12.5t7 24.5v552q0 10 -4 14.5t-17 7.5l-62 19l2 21h255q66 0 121 -24.5t87.5 -72t32.5 -116.5q0 -67 -33 -112.5t-89 -69t-123 -23.5h-93v-223z" />
<glyph unicode="Q" horiz-adv-x="676" d="M58 344q0 110 37.5 189t102.5 121t146 42q80 0 142 -41.5t97 -119.5t35 -186q0 -101 -30.5 -178t-85.5 -123t-129 -56q66 -35 146.5 -62t160.5 -27q16 0 28 2l3 -2q7 -10 7 -24q0 -25 -16.5 -37.5t-42.5 -12.5q-42 0 -103 22t-126.5 59t-121.5 81q-76 8 -132 52 t-87 120.5t-31 180.5zM139 344q0 -97 25 -167.5t70 -108.5t106 -38t105 40t68 112t24 167q0 93 -23.5 162.5t-67 107t-102.5 37.5q-61 0 -107 -38t-72 -108t-26 -166z" />
<glyph unicode="R" horiz-adv-x="661" d="M289 646h-74v-312h74q80 0 125.5 40.5t45.5 118.5q0 72 -45.5 112.5t-125.5 40.5zM215 45l83 -24l-2 -21h-239l-2 21l51 14q18 5 25 12.5t7 24.5v552q0 10 -4 14.5t-17 7.5l-62 19l2 21h246q68 0 122 -22.5t85.5 -65t31.5 -102.5q0 -71 -39 -116t-93 -65l96 -177 q26 -48 47.5 -70t56.5 -38l25 -10l-2 -20l-74 -1q-42 0 -63.5 16.5t-39.5 51.5l-122 231q-11 -1 -20 -2t-14 -1h-85v-250z" />
<glyph unicode="S" horiz-adv-x="502" d="M229 -10q-39 0 -75 5.5t-61 13.5t-31 17q-7 10 -9.5 24t-2.5 36q0 20 4 48t11 49l19 -1q9 -53 18 -79.5t25 -42.5q18 -19 48.5 -25t63.5 -6q63 0 98.5 35t35.5 83q0 45 -22.5 76t-58.5 55.5t-76 47.5t-75.5 49.5t-58.5 62t-23 86.5q0 55 29.5 93.5t79 58.5t109.5 20 q57 0 98 -12t53 -25q5 -6 6.5 -19.5t1.5 -27.5q0 -22 -3.5 -52t-11.5 -56h-19q-8 52 -17.5 79.5t-20.5 40.5q-14 16 -40 25t-56 9q-57 0 -93.5 -33t-36.5 -87q0 -43 22.5 -74t58.5 -55t76 -46.5t76 -49.5t58.5 -63t22.5 -88q0 -80 -60 -126t-163 -46z" />
<glyph unicode="T" horiz-adv-x="605" d="M342 45l82 -24l-2 -21h-239l-2 21l51 14q18 5 25 12.5t7 24.5v577h-60q-28 0 -57 -2.5t-49 -6.5q-6 -16 -12.5 -36t-14.5 -50l-16 -51h-19q-3 22 -4.5 43t-1.5 46q0 53 7 94h531q7 -41 7 -94q0 -25 -1.5 -46t-4.5 -43h-19l-16 51q-8 30 -14.5 50t-12.5 36q-20 4 -49 6.5 t-57 2.5h-59v-604z" />
<glyph unicode="U" horiz-adv-x="663" d="M101 226v416l-83 23l2 21h239l2 -21l-51 -13q-18 -6 -25 -13.5t-7 -23.5v-392q0 -94 49.5 -143t121.5 -49t121.5 48t49.5 144v419l-83 23l2 21h202l2 -21l-82 -23v-416q0 -118 -64 -177t-165 -59q-66 0 -118.5 26.5t-82.5 79t-30 130.5z" />
<glyph unicode="V" horiz-adv-x="712" d="M380 0h-47l-216 611q-7 19 -15.5 27.5t-24.5 12.5l-51 14l2 21h243l2 -21l-83 -21l187 -546l187 545l-83 22l2 21h201l2 -21q-2 -1 -14.5 -4.5t-25 -6.5t-14.5 -4q-26 -8 -36 -39z" />
<glyph unicode="W" horiz-adv-x="1059" d="M371 0h-47l-207 611q-7 19 -15.5 27.5t-24.5 12.5l-51 14l2 21h243l2 -21l-83 -21l178 -545l141 429l-28 83q-6 19 -13.5 27.5t-23.5 12.5l-51 14l2 21h241l2 -21l-83 -21l177 -544l179 544l-83 21l2 21h201l2 -21q-3 -1 -15.5 -4.5t-25 -6.5t-13.5 -4q-27 -8 -37 -39 l-207 -611h-47l-158 468z" />
<glyph unicode="X" horiz-adv-x="695" d="M128 78l181 259l-187 274q-11 17 -18.5 25t-20.5 13q-1 1 -11 4.5l-20 7t-13 4.5l2 21h232l2 -21l-83 -21l174 -257l170 256l-82 22l2 21h199l2 -21q-3 -1 -14.5 -4.5t-22 -7.5t-13.5 -5q-14 -5 -22.5 -13.5t-20.5 -26.5l-176 -252l190 -281q11 -17 18 -25t22 -13 q1 -1 11 -4.5l20 -7t12 -4.5l-2 -21h-230l-2 21l82 22l-179 262l-175 -262l83 -22l-2 -21h-200l-2 21q3 2 14.5 5.5t22.5 7t13 5.5q14 5 23 13.5t21 25.5z" />
<glyph unicode="Y" horiz-adv-x="679" d="M378 45l82 -24l-2 -21h-238l-2 21l51 14q18 5 24.5 12.5t6.5 24.5v203l-182 336q-11 20 -19.5 28.5t-23.5 13.5l-49 12l2 21h244l2 -21l-83 -22l169 -331l169 332l-82 21l2 21h202l2 -21q-3 -1 -15.5 -4.5l-25 -7t-13.5 -4.5q-16 -5 -24 -13.5t-16 -24.5l-181 -338v-228z " />
<glyph unicode="Z" horiz-adv-x="611" d="M536 0h-464l-6 35l379 615h-195q-27 0 -54 -1t-47 -4l-51 -142h-19q-6 39 -6 82q0 56 7 101h447l7 -35l-380 -615h212q26 0 53.5 1.5t46.5 3.5l52 143h18q6 -39 6 -81q0 -27 -1.5 -54t-4.5 -49z" />
<glyph unicode="[" horiz-adv-x="391" d="M333 -194h-195v954h195v-26h-121v-902h121v-26z" />
<glyph unicode="\" horiz-adv-x="395" d="M265 -10l-187 750l8 8l43 8l188 -749l-8 -8z" />
<glyph unicode="]" horiz-adv-x="391" d="M58 756h195v-954h-195v26h121v902h-121v26z" />
<glyph unicode="^" horiz-adv-x="526" d="M145 210h-57l144 336h58l148 -336h-57l-121 276z" />
<glyph unicode="_" horiz-adv-x="530" d="M42 -146v44h446v-44h-446z" />
<glyph unicode="`" horiz-adv-x="371" d="M279 589l-12 -13q-42 23 -82.5 51t-66.5 54t-26 46q0 15 13 23t34 8h6h6l6 -3q17 -32 50.5 -77t71.5 -89z" />
<glyph unicode="a" horiz-adv-x="516" d="M265 507q71 0 109.5 -36.5t38.5 -106.5q0 -20 -0.5 -52.5t-1.5 -70.5t-1.5 -74.5t-0.5 -63.5q0 -35 10 -50.5t38 -15.5q20 0 42 7l4 -11q-16 -19 -40 -31t-51 -12q-32 0 -53 18.5t-25 49.5q-26 -29 -64.5 -48.5t-84.5 -19.5q-58 0 -92.5 30t-34.5 82q0 48 35.5 85t98 59 t143.5 24q1 39 1.5 68.5t0.5 39.5q0 44 -23.5 67.5t-65.5 23.5q-45 0 -74 -28t-29 -63q0 -19 7 -37q-17 -9 -36 -9q-20 0 -32.5 10.5t-12.5 28.5q0 23 16.5 47t44 44t62.5 32.5t71 12.5zM135 112q0 -38 21.5 -55.5t57.5 -17.5q35 0 67 16.5t53 41.5v67.5t1 74.5 q-91 -4 -145.5 -38t-54.5 -89z" />
<glyph unicode="b" horiz-adv-x="557" d="M111 -10l-10 6v700l-69 13l-2 14q28 11 67 20.5t70 12.5l9 -9v-303q25 26 61.5 44t78.5 18q91 0 141 -68.5t50 -184.5q0 -79 -27.5 -138.5t-78 -92t-119.5 -32.5q-31 0 -61 6.5t-54 17.5zM275 27q74 0 114 59t40 160q0 97 -36 154t-100 57q-35 0 -63.5 -15t-53.5 -41 v-347q41 -27 99 -27z" />
<glyph unicode="c" horiz-adv-x="458" d="M432 84q-25 -41 -68.5 -67.5t-101.5 -26.5q-65 0 -112.5 30t-73.5 85t-26 130q0 80 28 141t77 95.5t113 34.5q44 0 79 -16.5t55 -45t20 -63.5q0 -24 -12 -38t-32 -14q-16 0 -30 7q2 13 2 23q0 51 -23.5 80.5t-65.5 29.5q-39 0 -69 -26t-46.5 -72t-16.5 -106 q0 -104 41.5 -162t120.5 -58q73 0 128 49z" />
<glyph unicode="d" horiz-adv-x="562" d="M549 33q-14 -18 -37.5 -30.5t-53.5 -12.5q-32 0 -51.5 17.5t-25.5 49.5q-21 -25 -58.5 -46t-85.5 -21q-81 0 -134 63t-53 183q0 85 32.5 145.5t86.5 92.5t118 32q47 0 92 -13v203l-89 13l-2 14q32 12 76 20.5t80 12.5l10 -9v-633q0 -39 10.5 -58t39.5 -19q13 0 22.5 2 t18.5 5zM129 244q0 -100 37.5 -153t95.5 -53q37 0 67.5 18t49.5 40v346q-40 27 -90 27q-69 0 -114.5 -56.5t-45.5 -168.5z" />
<glyph unicode="e" horiz-adv-x="476" d="M433 84q-25 -42 -69.5 -68t-102.5 -26q-64 0 -111.5 30t-73.5 85.5t-26 130.5q0 80 28 141t76.5 95t110.5 34q74 0 120.5 -49.5t46.5 -135.5q0 -14 -0.5 -27.5t-0.5 -25.5l-11 -12h-291q2 -101 44 -156t116 -55q76 0 131 49zM260 469q-57 0 -92 -51t-39 -131l225 6 q1 10 1 19.5v16.5q0 70 -24.5 105t-70.5 35z" />
<glyph unicode="f" horiz-adv-x="330" d="M189 40l92 -23l-2 -17h-236l-2 17l44 14q16 6 22.5 13.5t6.5 24.5v384h-71l-2 17l73 19v20q0 73 26 129t72 87t105 31q37 0 65.5 -13.5t45 -35t16.5 -45.5q0 -18 -11.5 -28.5t-28.5 -10.5q-11 0 -20 5q-7 42 -26.5 66.5t-54.5 24.5q-53 0 -83.5 -48.5t-30.5 -135.5v-47 h132v-35h-132v-413z" />
<glyph unicode="g" horiz-adv-x="488" d="M65 317q0 55 23.5 97.5t64.5 67t93 24.5q57 0 98 -30q23 24 54 40t49 16q23 0 23 -32q0 -15 -3 -27q-3 -14 -23 -14q-19 0 -39 -0.5t-39 -2.5q21 -23 32.5 -54t11.5 -69q0 -55 -22 -96.5t-61.5 -65t-91.5 -23.5q-22 0 -42 5q-9 -11 -14.5 -23.5t-5.5 -26.5 q0 -22 12.5 -31.5t39.5 -11.5l89 -8q72 -7 111.5 -42t39.5 -95q0 -49 -30 -88t-83.5 -61t-124.5 -22q-85 0 -138.5 35t-53.5 93q0 32 19.5 57t51.5 41l11 -9q-17 -29 -17 -57q1 -57 42 -90t110 -33q68 0 110 30.5t42 78.5q0 39 -26.5 62.5t-75.5 28.5l-96 10q-46 5 -68 27.5 t-22 54.5q0 51 49 89q-45 18 -72.5 59.5t-27.5 95.5zM333 323q0 73 -24 110t-68 37q-45 0 -72 -37t-27 -102q0 -68 26 -107t69 -40q46 0 71 35.5t25 103.5z" />
<glyph unicode="h" horiz-adv-x="587" d="M181 40l72 -23l-2 -17h-216l-2 17l44 14q16 6 22.5 13.5t6.5 24.5v627l-70 13l-2 14q28 11 67 20.5t70 12.5l10 -9v-306q76 65 160 65q68 0 104.5 -39t36.5 -112v-315l72 -23l-2 -17h-216l-2 17l44 14q17 6 23 13.5t6 24.5v280q0 108 -96 108q-67 0 -130 -53v-364z" />
<glyph unicode="i" horiz-adv-x="294" d="M193 668q0 -24 -14.5 -43t-40.5 -19q-22 0 -35.5 15.5t-13.5 38.5q0 24 16 42.5t41 18.5q21 0 34 -14.5t13 -38.5zM189 40l72 -23l-2 -17h-216l-2 17l44 14q16 6 22.5 13.5t6.5 24.5v377l-70 13l-2 14q28 11 67 20.5t70 12.5l10 -9v-457z" />
<glyph unicode="j" horiz-adv-x="275" d="M185 667q0 -25 -14.5 -43.5t-40.5 -18.5q-22 0 -35.5 15.5t-13.5 38.5q0 24 16.5 42.5t40.5 18.5q21 0 34 -15t13 -38zM23 -241q26 36 44.5 70.5t28.5 80t10 112.5v424l-69 13l-2 14q28 11 67 20.5t70 12.5l9 -9v-507q0 -64 -18 -108.5t-50.5 -77t-74.5 -60.5z" />
<glyph unicode="k" horiz-adv-x="555" d="M181 40l72 -23l-2 -17h-216l-2 17l44 14q16 6 22.5 13.5t6.5 24.5v628l-70 13l-2 14q28 11 67 20t70 13l10 -9v-468h95l118 176l-78 23l2 17h196l2 -17q-3 -1 -14.5 -5t-22.5 -7.5t-13 -5.5q-14 -5 -23.5 -14t-22.5 -25l-94 -122h1l118 -206q14 -24 27 -39.5t32 -22.5 l33 -12l-2 -20h-67q-35 0 -53.5 15.5t-35.5 46.5l-103 183h-95v-205z" />
<glyph unicode="l" horiz-adv-x="286" d="M181 40l72 -23l-2 -17h-216l-2 17l44 14q16 6 22.5 13.5t6.5 24.5v628l-70 13l-2 14q28 11 67 20t70 13l10 -9v-708z" />
<glyph unicode="m" horiz-adv-x="882" d="M189 40l72 -23l-2 -17h-216l-2 17l44 14q16 6 22.5 13.5t6.5 24.5v377l-70 13l-2 14q28 11 67 20.5t70 12.5l10 -9v-56q35 31 75 48t81 17q91 0 123 -71q75 71 164 71q69 0 106.5 -39t37.5 -112v-315l73 -23l-2 -17h-216l-2 17l43 14q17 6 23 13.5t6 24.5v280 q0 108 -97 107q-66 0 -127 -50q5 -23 5 -51v-315l73 -23l-2 -17h-216l-2 17l43 14q17 6 23 13.5t6 24.5v280q0 108 -92 108q-32 0 -64.5 -14t-61.5 -39v-364z" />
<glyph unicode="n" horiz-adv-x="595" d="M189 40l72 -23l-2 -17h-216l-2 17l44 14q16 6 22.5 13.5t6.5 24.5v377l-70 13l-2 14q28 11 67 20.5t70 12.5l10 -9v-56q36 31 77 48t83 17q68 0 104.5 -39t36.5 -112v-315l72 -23l-2 -17h-216l-2 17l44 14q17 6 23 13.5t6 24.5v280q0 108 -96 108q-34 0 -67 -14t-63 -39 v-364z" />
<glyph unicode="o" horiz-adv-x="515" d="M465 250q0 -83 -28 -141t-75.5 -88.5t-106.5 -30.5q-60 0 -106 30.5t-72.5 89t-26.5 141.5q0 82 30 139t78.5 86.5t105.5 29.5q56 0 101.5 -29.5t72.5 -86.5t27 -140zM129 249q0 -102 33 -162t93 -60q62 0 96.5 53t34.5 166q0 105 -32.5 164t-91.5 59t-96 -53t-37 -167z " />
<glyph unicode="p" horiz-adv-x="562" d="M281 27q69 0 110.5 59t41.5 159q0 97 -34.5 154.5t-101.5 57.5q-35 0 -63.5 -15t-52.5 -41v-346q41 -28 100 -28zM181 -206l92 -23l-2 -17h-236l-2 17l44 14q16 5 22.5 13t6.5 25v623l-70 13l-2 14q28 11 67 20.5t70 12.5l10 -9v-53q24 26 60.5 44t79.5 18 q92 0 141.5 -69t49.5 -183q0 -80 -29 -139.5t-81 -92t-122 -32.5q-27 0 -52 4t-47 10v-210z" />
<glyph unicode="q" horiz-adv-x="551" d="M454 -206l72 -23l-2 -17h-216l-2 17l44 14q17 5 23 13t6 25v231q-22 -24 -59 -44t-82 -20q-81 0 -134.5 63t-53.5 185q0 86 32.5 146t86 91t114.5 31q31 0 58 -6.5t49 -15.5l54 22l10 -5v-707zM289 469q-69 0 -114.5 -56t-45.5 -167q0 -102 37.5 -155.5t94.5 -53.5 q37 0 68 18.5t50 40.5v346q-40 27 -90 27z" />
<glyph unicode="r" horiz-adv-x="406" d="M189 40l92 -23l-2 -17h-236l-2 17l44 14q16 6 22.5 13.5t6.5 24.5v377l-70 13l-2 14q28 11 67 20.5t70 12.5l10 -9v-74q31 40 64.5 61.5t66.5 21.5q32 0 50 -16t18 -38q0 -20 -9.5 -33t-17.5 -19q-1 -1 -4 -1t-5 -1q-14 19 -30.5 31.5t-42.5 13.5q-26 0 -51 -21t-39 -41 v-341z" />
<glyph unicode="s" horiz-adv-x="424" d="M192 -10q-28 0 -55.5 4t-48.5 10t-27 14q-6 6 -8.5 18t-2.5 35q0 21 3.5 43t11.5 41l15 -1q5 -44 13.5 -67t22.5 -37q22 -23 82 -23q46 0 72.5 22t26.5 59q0 31 -17.5 52t-45 37t-58 31t-58 33.5t-44.5 45t-17 65.5q0 40 23.5 70.5t63.5 47t89 16.5q40 0 75.5 -8 t44.5 -19q8 -7 8 -45q0 -18 -3.5 -43.5t-10.5 -46.5l-15 1q-5 46 -12.5 68t-19.5 33q-13 10 -30.5 16.5t-41.5 6.5q-42 0 -68 -22t-26 -62q0 -31 17 -52t44.5 -37t58 -31.5t58 -33.5t45 -44t17.5 -63q0 -62 -50.5 -98t-131.5 -36z" />
<glyph unicode="t" horiz-adv-x="408" d="M382 84q-24 -39 -63.5 -66.5t-88.5 -27.5q-59 0 -90 37.5t-31 110.5v315h-82l-2 17l84 24l55 146l20 -2v-150h170v-35h-170v-298q0 -55 18 -82.5t59 -27.5q28 0 55 13t53 36z" />
<glyph unicode="u" horiz-adv-x="606" d="M109 156v290l-69 13l-2 14q28 11 67 20.5t70 12.5l9 -9v-335q0 -123 108 -123q33 0 65 15t57 41v351l-69 13l-2 14q28 11 67 20.5t70 12.5l9 -9v-383q0 -40 11.5 -58.5t37.5 -18.5q19 0 43 7l4 -11q-35 -43 -92 -43q-32 0 -51.5 17.5t-25.5 48.5q-28 -29 -68.5 -47.5 t-83.5 -18.5q-74 0 -114.5 43t-40.5 123z" />
<glyph unicode="v" horiz-adv-x="546" d="M445 424l-147 -424h-53l-147 424q-6 18 -13.5 26t-20.5 13q-2 2 -12.5 5.5t-21 6.5t-12.5 4l2 17h222l2 -17l-75 -22l124 -380l124 380l-74 22l2 17h181l2 -17q-2 0 -13 -3.5t-21 -7t-12 -5.5q-27 -10 -37 -39z" />
<glyph unicode="w" horiz-adv-x="828" d="M455 496l143 -410l101 371l-75 22l2 17h182l2 -17q-2 0 -12.5 -3.5l-21 -7t-12.5 -5.5q-28 -10 -36 -39l-123 -424h-54l-138 392l-138 -392h-53l-124 424q-5 17 -13 25.5t-21 13.5q-1 1 -12 5t-21.5 7.5t-12.5 3.5l2 17h221l2 -17l-74 -22l102 -371l141 410h43z" />
<glyph unicode="x" horiz-adv-x="538" d="M171 457l119 -173l113 172l-73 23l2 17h181l2 -17l-13.5 -4.5t-20.5 -7.5t-12 -6q-13 -6 -21 -15t-20 -24l-120 -164l129 -186q11 -17 18 -25t22 -14q1 -1 11 -4.5l20 -7t12 -4.5l-2 -17h-215l-2 17l72 23l-124 177l-116 -177l73 -23l-2 -17h-184l-2 17q3 1 14 5t21.5 8 t12.5 5q13 6 21.5 15t20.5 25l123 168l-126 181q-10 16 -17 24.5t-22 13.5q-1 2 -11 5.5l-20 7t-12 4.5l2 17h216l2 -17z" />
<glyph unicode="y" horiz-adv-x="553" d="M28 496h221l2 -17l-74 -22l123 -375l124 375l-75 22l2 17h182l2 -17q-2 -1 -13 -4.5t-21.5 -7t-11.5 -4.5q-15 -6 -23 -14.5t-13 -24.5l-152 -436q-41 -118 -86 -181t-112 -63q-32 0 -52.5 17t-20.5 43q0 22 14 36l6 2q10 -11 26 -21t38 -10q33 0 62.5 24.5t53.5 66 t41 92.5l-14 -7l-151 437q-11 30 -34 39q-1 1 -11.5 4.5t-21.5 7t-13 4.5z" />
<glyph unicode="z" horiz-adv-x="472" d="M421 69q-1 -20 -2.5 -36t-4.5 -33h-357l-7 35l289 426h-213l-45 -119h-17q-8 39 -8 88q0 19 1.5 34.5t4.5 31.5h353l7 -35l-290 -426h218l46 120h16q9 -39 9 -86z" />
<glyph unicode="{" horiz-adv-x="417" d="M98 295q104 3 104 99q0 40 -8.5 77t-17.5 74.5t-9 78.5q0 134 189 134l3 -22q-61 -3 -88 -29t-27 -77q0 -41 8 -78t16.5 -74.5t8.5 -79.5q0 -40 -23.5 -71.5t-70.5 -44.5q46 -14 70 -45.5t24 -71.5q0 -41 -8.5 -78.5t-16.5 -75t-8 -78.5q0 -51 27 -77t88 -29l-3 -22 q-189 0 -189 135q0 41 9 78.5t17.5 75t8.5 75.5q0 96 -104 99v27z" />
<glyph unicode="|" horiz-adv-x="327" d="M145 -256l-7 7v1002l44 3l7 -7v-1002z" />
<glyph unicode="}" horiz-adv-x="417" d="M319 295v-27q-104 -3 -104 -99q0 -38 9 -75.5t17.5 -75t8.5 -78.5q0 -135 -189 -135l-3 22q61 3 88.5 29t27.5 77q0 41 -8.5 78.5l-17 75t-8.5 78.5q0 40 24 71.5t70 45.5q-47 13 -70.5 44.5t-23.5 71.5q0 42 8.5 79.5t17 74.5t8.5 78q0 51 -27.5 77t-88.5 29l3 22 q189 0 189 -134q0 -41 -8.5 -78.5t-17.5 -74.5t-9 -77q0 -96 104 -99z" />
<glyph unicode="~" horiz-adv-x="545" d="M397 217q-12 0 -38 5t-58.5 13l-65 16t-57.5 13.5t-35 5.5q-9 0 -25.5 -18.5t-35.5 -41.5l-32 19q12 20 26.5 42.5t32 38t36.5 15.5q12 0 37.5 -5.5t57.5 -13.5l64 -16t57.5 -13.5t37.5 -5.5q9 0 25.5 18.5t36.5 42.5l31 -20q-11 -20 -26 -42t-32 -37.5t-37 -15.5z" />
<glyph unicode="&#xa1;" horiz-adv-x="297" d="M99 447q0 23 13.5 41t38.5 18q22 0 34.5 -15t12.5 -36q0 -23 -15.5 -41t-38.5 -18q-20 0 -32.5 14t-12.5 37zM193 -188l-4 -4l-18 -3q-10 -2 -23 -3.5t-22 -1.5q-25 0 -25 26q0 7 0.5 15t0.5 16l27 442h37z" />
<glyph unicode="&#xa2;" horiz-adv-x="481" d="M290 -137l-37 -3l-7 7v124q-91 7 -143.5 79t-52.5 195q0 74 24.5 134.5t68.5 98.5t103 46v133l37 3l7 -7v-127q60 -5 100 -40.5t40 -84.5q0 -24 -12 -38t-32 -14q-16 0 -30 7q2 13 2 23q0 52 -24 81t-65 29q-42 0 -73.5 -28.5t-49 -79t-17.5 -117.5q0 -112 42.5 -175.5 t123.5 -63.5q38 0 70.5 13t60.5 36l13 -10q-22 -37 -60.5 -62t-88.5 -31v-128z" />
<glyph unicode="&#xa3;" horiz-adv-x="602" d="M78 297l5 43h117q3 28 7 55.5t8 53.5q18 124 75 186t139 62q37 0 64.5 -14.5t42.5 -36.5t15 -46q0 -25 -13 -36t-27 -14q-16 52 -40 80.5t-58 28.5q-50 0 -77 -53t-44 -148l-21 -118h179l-5 -43h-182l-13 -79q-11 -56 -32.5 -103t-49.5 -79q43 -18 94.5 -42t108 -42 t111.5 -18q20 0 34.5 3t28.5 8q5 -11 5 -25q0 -29 -22.5 -43t-58.5 -14q-39 0 -83.5 15.5t-89 39t-85 47.5t-73.5 42q-33 -24 -65 -24q-18 0 -28.5 8.5t-10.5 23.5q0 18 16 30.5t41 12.5q18 0 47 -10q20 40 32.5 107t23.5 142h-116z" />
<glyph unicode="&#xa4;" horiz-adv-x="547" d="M453 126l-72 73q-22 -19 -51.5 -29.5t-64.5 -11.5q-33 1 -60 9t-48 22l-63 -63l-36 36l62 62q-38 48 -38 113q-1 71 44 125l-67 69l34 34q2 -2 15 -14.5t28.5 -28.5t26.5 -26q22 15 49 24t59 8q32 1 59.5 -9t49.5 -26l72 72l36 -36l-72 -72q36 -48 35 -109 q0 -62 -35 -112l39.5 -39.5t33.5 -32.5v-11zM267 480q-41 0 -70.5 -19.5t-45.5 -51t-16 -66.5q0 -33 15.5 -64.5t45 -51.5t72.5 -20t71.5 20t43.5 51t15 67q0 34 -16 65t-45.5 50.5t-69.5 19.5z" />
<glyph unicode="&#xa5;" horiz-adv-x="679" d="M132 130v42h168v91h-168v41h168v2l-182 305q-12 20 -20 28.5t-23 13.5l-49 12l2 21h244l2 -21l-82 -21l168 -299l168 299l-81 21l2 21h202l2 -21q-3 -1 -15.5 -4.5l-25 -7t-13.5 -4.5q-16 -5 -23.5 -13.5t-16.5 -24.5l-181 -307v0h170v-41h-170v-91h170v-42h-170v-16h-1 v-69l83 -24l-2 -21h-239l-2 21l51 14q18 5 24.5 12.5t6.5 24.5v42h1v16h-168z" />
<glyph unicode="&#xa6;" horiz-adv-x="327" d="M189 370l-36 -3l-15 7v379l44 3l7 -7v-379zM189 -253l-36 -3l-15 7v378l44 3l7 -7v-378z" />
<glyph unicode="&#xa7;" horiz-adv-x="537" d="M479 60q0 -53 -21 -95.5t-56.5 -73t-79 -46.5t-88.5 -16q-77 0 -126.5 24.5t-49.5 58.5q0 18 9.5 31.5t25.5 24.5l14 -2q32 -40 75.5 -64.5t94.5 -33.5q15 14 25.5 42.5t10.5 63.5q0 40 -18.5 79t-47.5 77t-61.5 77t-62 80.5t-47.5 86t-18 93.5q0 52 21.5 94.5t56.5 72.5 t78.5 46t88.5 16q50 0 90 -11t63 -29.5t23 -41.5q0 -18 -9.5 -32t-25.5 -25l-14 2q-60 80 -168 99q-15 -15 -26.5 -44t-11.5 -66q0 -41 18.5 -79t47.5 -75t61.5 -75t61.5 -78.5t47.5 -85t18.5 -95.5zM113 477q0 -47 18 -89t46.5 -81t60.5 -77t60.5 -77t47 -80t18.5 -86 q0 -24 -4.5 -45.5t-10.5 -35.5l8 -5q27 23 47 60.5t20 86.5q0 50 -18 92.5t-47 81t-61 75.5t-60.5 74.5t-46.5 78t-18 87.5q0 24 4.5 45.5t10.5 36.5l-8 5q-28 -23 -47.5 -60.5t-19.5 -86.5z" />
<glyph unicode="&#xa8;" horiz-adv-x="482" d="M391 672q0 -24 -13.5 -42.5t-38.5 -18.5q-20 0 -32.5 15t-12.5 36q0 24 15 42t38 18q19 0 31.5 -14t12.5 -36zM188 672q0 -24 -13.5 -42.5t-37.5 -18.5q-21 0 -33 15t-12 36q0 24 15 42t37 18q20 0 32 -14t12 -36z" />
<glyph unicode="&#xa9;" horiz-adv-x="716" d="M358 -48q-85 0 -153 39.5t-107.5 107t-39.5 151.5q0 61 23.5 114.5t64.5 94.5t95.5 64t116.5 23q64 0 118.5 -23t95.5 -64t63.5 -94.5t22.5 -114.5t-23.5 -115t-64.5 -95t-95.5 -64.5t-116.5 -23.5zM358 -7q72 0 130.5 35t93.5 93.5t35 128.5q0 71 -35 128.5t-93.5 92 t-130.5 34.5q-71 0 -130 -34.5t-94 -92t-35 -128.5q0 -73 34 -131t92.5 -92t132.5 -34zM482 144q-17 -28 -46.5 -46t-67.5 -18q-62 0 -104 45t-42 121q0 50 19 89.5t52 62t75 22.5q44 0 74 -24.5t30 -60.5q0 -15 -9 -24t-22 -9q-17 0 -28 6q1 4 1 7.5v6.5q0 28 -13 44.5 t-36 16.5q-36 0 -58.5 -35.5t-22.5 -90.5q0 -58 28.5 -93t70.5 -35q24 0 45 9t37 22z" />
<glyph unicode="&#xaa;" horiz-adv-x="456" d="M229 696q57 0 88.5 -29t31.5 -84q0 -20 -0.5 -56.5t-1.5 -76t-1 -66.5q0 -29 9 -40t31 -11q17 0 34 4l4 -8q-28 -36 -76 -36q-26 0 -43 14.5t-21 38.5q-22 -22 -53.5 -37.5t-69.5 -15.5q-47 0 -75 23.5t-28 64.5q0 38 29 67t80 45.5t118 18.5q1 31 1 54.5v30.5 q0 34 -19 52t-53 18q-37 0 -60.5 -21.5t-23.5 -49.5q0 -7 1 -14.5t4 -14.5q-15 -8 -30 -8q-16 0 -26 8.5t-10 23.5q0 24 23 48t59.5 40.5t77.5 16.5zM122 390q0 -29 17 -43t47 -14q29 0 54.5 12.5t42.5 30.5q0 23 0.5 52.5t1.5 58.5q-74 -2 -118.5 -28t-44.5 -69z" />
<glyph unicode="&#xab;" horiz-adv-x="542" d="M257 30l-16 -9q-27 40 -56 78t-56 69t-46 49l-5 6v53q39 40 82.5 95t82.5 110l15 -10q-23 -51 -53.5 -108.5t-61.5 -113.5q25 -41 56.5 -100.5t57.5 -118.5zM463 30l-16 -9q-27 40 -56 78t-56 69t-46 49l-5 6v53q39 40 82.5 95t82.5 110l15 -10q-23 -51 -53.5 -108.5 t-61.5 -113.5q25 -41 56.5 -100.5t57.5 -118.5z" />
<glyph unicode="&#xac;" d="M489 434v-216h-53v171h-370v48q35 1 90 1.5t116 1.5t116.5 1.5t92.5 0.5z" />
<glyph unicode="&#xae;" horiz-adv-x="716" d="M358 -48q-85 0 -153 39.5t-107.5 107t-39.5 151.5q0 61 23.5 114.5t64.5 94.5t95.5 64t116.5 23q64 0 118.5 -23t95.5 -64t63.5 -94.5t22.5 -114.5t-23.5 -115t-64.5 -95t-95.5 -64.5t-116.5 -23.5zM358 -7q72 0 130.5 35t93.5 93.5t35 128.5q0 71 -35 128.5t-93.5 92 t-130.5 34.5q-71 0 -130 -34.5t-94 -92t-35 -128.5q0 -73 34 -131t92.5 -92t132.5 -34zM356 380h-37v-132h45q34 0 55.5 16.5t21.5 50.5q0 33 -23 49t-62 16zM319 122l46 -13l-2 -23h-147l-1 23l29 8q10 3 12.5 8t2.5 15v222q0 17 -15 22l-29 7l1 23h149q60 0 98 -25.5 t38 -73.5q0 -33 -19 -54.5t-48 -33.5l28 -47q13 -23 26.5 -41.5t29.5 -23.5l18 -6l-1 -23l-43 -1q-26 -2 -38 8.5t-24 31.5l-53 90q-6 0 -11.5 -0.5t-7.5 -0.5h-39v-92z" />
<glyph unicode="&#xaf;" horiz-adv-x="462" d="M92 643v46h278v-46h-278z" />
<glyph unicode="&#xb0;" horiz-adv-x="353" d="M184 457q-49 0 -82 31t-33 84q0 36 16.5 64t44 44.5t62.5 16.5q48 0 81 -31.5t33 -83.5q0 -35 -16.5 -63.5t-44.5 -45t-61 -16.5zM188 658q-36 0 -56.5 -25t-20.5 -59t21 -56.5t55 -22.5t55 24.5t21 60.5q0 33 -20.5 55.5t-54.5 22.5z" />
<glyph unicode="&#xb1;" d="M484 406h-174v-169h-52v169h-180l-1 48q32 1 80 1.5t101 1.5v165h52v-164q50 0 95.5 0.5t76.5 0.5l8 -8zM496 76h-416v47q35 1 89.5 2t116 2t117 1h92.5l8 -8z" />
<glyph unicode="&#xb2;" horiz-adv-x="382" d="M57 353l-6 34q58 44 104 84t73 78.5t27 78.5q0 37 -22.5 58.5t-61.5 21.5q-33 0 -59 -16.5t-46 -37.5l-10 5q18 45 55.5 71t84.5 26q56 0 87.5 -31t31.5 -79q0 -47 -30.5 -87.5t-78.5 -79.5t-102 -80h161q25 0 35 10.5t21 38.5l11 -1q0 -20 -4 -46.5t-11 -47.5h-260z" />
<glyph unicode="&#xb3;" horiz-adv-x="386" d="M115 531l-2 22q66 10 107 30.5t41 62.5q0 27 -21 44.5t-55 17.5t-60.5 -16t-48.5 -38l-10 6q20 44 58 70t84 26q50 0 81.5 -26t31.5 -65q0 -33 -19 -54.5t-47.5 -34.5t-55.5 -18q56 -4 96.5 -30t40.5 -73q0 -35 -22 -60t-58.5 -38t-80.5 -13q-55 0 -90 17.5t-35 47.5 q0 16 13 27t32 15l7 -5q-3 -6 -3 -16q1 -28 21 -45t60 -17q41 0 69.5 20t28.5 57q0 29 -18 48.5t-47 29t-60 9.5q-20 0 -38 -1z" />
<glyph unicode="&#xb4;" horiz-adv-x="371" d="M279 727q0 -20 -26.5 -46t-67 -54t-82.5 -51l-11 13q37 44 71 89t50 77l7 3h5.5h5.5q22 0 35 -8t13 -23z" />
<glyph unicode="&#xb6;" horiz-adv-x="596" d="M268 -134q46 0 75.5 25.5t43.5 69t14 98.5v587h-78v-421h-23q-67 0 -122 27t-87.5 79.5t-32.5 128.5q0 73 33 123.5t88.5 76.5t123.5 26h233l2 -21l-51 -13q-18 -6 -25 -13.5t-7 -23.5v-547q0 -118 -54.5 -178.5t-142.5 -60.5q-66 0 -111 30.5t-45 85.5q0 61 61 100 l14 -10q-17 -29 -17 -58q2 -48 29 -79.5t79 -31.5z" />
<glyph unicode="&#xb7;" horiz-adv-x="309" d="M153 211q-25 0 -40 15.5t-15 37.5q0 25 17 44t43 19q23 0 37.5 -14.5t15.5 -37.5q0 -26 -15.5 -45t-42.5 -19z" />
<glyph unicode="&#xb8;" horiz-adv-x="336" d="M118 -99l-4 6l16 93h39l-12 -63q42 -9 65 -28.5t23 -44.5q0 -40 -43.5 -62t-105.5 -26l-4 15q35 10 58.5 26t23.5 39q0 14 -13 26t-43 19z" />
<glyph unicode="&#xb9;" horiz-adv-x="282" d="M171 378l61 -15l-2 -10h-179l-1 10l34 6q16 5 22 10.5t6 17.5v314l-61 6l-1 10l115 29l6 -5v-373z" />
<glyph unicode="&#xba;" horiz-adv-x="440" d="M390 496q0 -96 -49.5 -149t-123.5 -54q-73 0 -120 53.5t-47 150.5q0 64 24.5 108.5t64.5 67.5t87 23q46 0 83 -23t59 -67.5t22 -109.5zM115 496q0 -81 27 -127t76 -46q51 0 79 41t28 129q0 82 -26.5 128t-74.5 46q-49 0 -79 -41.5t-30 -129.5z" />
<glyph unicode="&#xbb;" horiz-adv-x="542" d="M464 223q-39 -41 -82.5 -95.5t-82.5 -109.5l-15 9q23 51 53.5 109t62.5 114q-26 40 -57 99.5t-58 119.5l17 9q26 -40 55 -78.5t56 -69.5t47 -48l4 -7v-52zM258 223q-39 -41 -82.5 -95.5t-82.5 -109.5l-15 9q23 51 53.5 109t62.5 114q-26 40 -57 99.5t-58 119.5l17 9 q26 -40 55 -78.5t56 -69.5t47 -48l4 -7v-52z" />
<glyph unicode="&#xbc;" horiz-adv-x="940" d="M684 696l-423 -706h-46l422 706h47zM203 311l61 -16l-2 -10h-178l-1 10l34 7q16 4 22 9.5t6 17.5v314l-61 7l-1 9l114 30l6 -6v-372zM537 118l227 283l40 -4v-271h74l-5 -35h-69v-91h-59v91h-201zM579 126h166v212z" />
<glyph unicode="&#xbd;" horiz-adv-x="940" d="M684 696l-423 -706h-46l422 706h47zM203 311l61 -16l-2 -10h-178l-1 10l34 7q16 4 22 9.5t6 17.5v314l-61 7l-1 9l114 30l6 -6v-372zM581 0l-6 35q57 44 103 83.5t73 78t27 79.5q0 36 -22.5 57.5t-60.5 21.5q-33 0 -59.5 -16t-45.5 -38l-11 6q18 44 55.5 70.5t84.5 26.5 q56 0 87.5 -31.5t31.5 -78.5t-30 -87.5t-78.5 -79.5t-101.5 -81h160q25 0 35.5 10.5t20.5 39.5l11 -1q0 -21 -4 -47.5t-10 -47.5h-260z" />
<glyph unicode="&#xbe;" horiz-adv-x="940" d="M721 696l-423 -706h-45l422 706h46zM135 463l-2 22q66 10 107 30.5t41 63.5q0 26 -21 43.5t-55 17.5t-60.5 -15.5t-48.5 -37.5l-10 5q20 45 58 71t84 26q50 0 81.5 -26t31.5 -65q0 -33 -19 -55t-47.5 -34.5t-55.5 -17.5q56 -4 96.5 -30.5t40.5 -73.5q0 -34 -22 -59 t-58.5 -38.5t-80.5 -13.5q-55 0 -90 17.5t-35 47.5q0 16 13 27t32 15l7 -5q-3 -6 -3 -16q1 -27 21 -44.5t60 -17.5q41 0 69.5 20t28.5 58q0 28 -18 47.5t-47 29.5t-60 10q-20 0 -38 -2zM537 118l227 283l40 -4v-271h74l-5 -35h-69v-91h-59v91h-201zM579 126h166v212z" />
<glyph unicode="&#xbf;" horiz-adv-x="429" d="M178 447q0 23 13.5 41t38.5 18q22 0 34.5 -15t12.5 -36q0 -23 -15.5 -41t-38.5 -18q-20 0 -32.5 14t-12.5 37zM206 273l8 8q23 0 38 -13.5t15 -35.5q0 -27 -17 -47t-42.5 -39t-51 -42.5t-42.5 -56.5t-17 -81q0 -58 30 -93.5t85 -35.5q56 0 90.5 34.5t34.5 87.5 q0 12 -2.5 25t-5.5 28q6 3 15 5.5t19 2.5q21 0 34.5 -16t13.5 -43q0 -44 -27.5 -80.5t-74 -58.5t-104.5 -22q-52 0 -94.5 20.5t-67.5 59.5t-25 93q0 51 23 89.5t55 67t61 47.5t41 30q8 6 8 28v38z" />
<glyph unicode="&#xc0;" horiz-adv-x="712" d="M485 794l-6 -17q-33 2 -75.5 9.5t-82 19.5t-65 28.5t-25.5 36.5q0 13 10 23t25 15l8 -1q33 -25 86.5 -57.5t124.5 -56.5zM333 686h47l216 -611q6 -19 15 -27t24 -13l51 -14l-2 -21h-243l-2 21l83 22l-68 198l-239 -4l-67 -193l83 -23l-2 -21h-201l-2 21q3 1 15.5 4.5 l25 7t13.5 4.5q27 9 37 38zM228 275h215l-108 313z" />
<glyph unicode="&#xc1;" horiz-adv-x="712" d="M441 907l9 1q15 -5 25 -15t10 -23q0 -20 -26 -36t-65.5 -28.5t-81.5 -20t-75 -9.5l-7 17q72 24 125 56.5t86 57.5zM333 686h47l216 -611q6 -19 15 -27t24 -13l51 -14l-2 -21h-243l-2 21l83 22l-68 198l-239 -4l-67 -193l83 -23l-2 -21h-201l-2 21q3 1 15.5 4.5l25 7 t13.5 4.5q27 9 37 38zM228 275h215l-108 313z" />
<glyph unicode="&#xc2;" horiz-adv-x="712" d="M506 782l-14 -11q-30 20 -64.5 42.5t-69.5 42.5q-27 -18 -64.5 -42.5t-69.5 -42.5l-13 13q22 20 45 44t42.5 46t29.5 36l8 5h51q26 -27 58 -62.5t61 -70.5zM333 686h47l216 -611q6 -19 15 -27t24 -13l51 -14l-2 -21h-243l-2 21l83 22l-68 198l-239 -4l-67 -193l83 -23 l-2 -21h-201l-2 21q3 1 15.5 4.5l25 7t13.5 4.5q27 9 37 38zM228 275h215l-108 313z" />
<glyph unicode="&#xc3;" horiz-adv-x="712" d="M188 774l-15 5q-1 5 -1 8q7 50 26.5 80.5t57.5 30.5q22 0 53 -9t63.5 -22t61 -23t44.5 -12q8 11 22.5 31t26.5 40l15 -6q1 -6 1 -10q-7 -49 -26 -78.5t-56 -29.5q-22 0 -53.5 9t-64.5 21.5t-61 23t-44 12.5q-6 -6 -22.5 -28.5t-27.5 -42.5zM333 686h47l216 -611 q6 -19 15 -27t24 -13l51 -14l-2 -21h-243l-2 21l83 22l-68 198l-239 -4l-67 -193l83 -23l-2 -21h-201l-2 21q3 1 15.5 4.5l25 7t13.5 4.5q27 9 37 38zM228 275h215l-108 313z" />
<glyph unicode="&#xc4;" horiz-adv-x="712" d="M513 847q0 -23 -14.5 -40.5t-39.5 -17.5q-22 0 -35 14t-13 33q0 23 15.5 40t39.5 17q21 0 34 -13t13 -33zM310 847q0 -23 -14 -40.5t-40 -17.5q-22 0 -35 14t-13 33q0 23 15.5 40t39.5 17q21 0 34 -13t13 -33zM333 686h47l216 -611q6 -19 15 -27t24 -13l51 -14l-2 -21 h-243l-2 21l83 22l-68 198l-239 -4l-67 -193l83 -23l-2 -21h-201l-2 21q3 1 15.5 4.5l25 7t13.5 4.5q27 9 37 38zM228 275h215l-108 313z" />
<glyph unicode="&#xc5;" horiz-adv-x="712" d="M354 766q-37 0 -60 20.5t-23 54.5q0 36 25.5 58.5t65.5 22.5q37 0 60.5 -21t22.5 -54q-1 -35 -26.5 -58t-64.5 -23zM358 895q-20 0 -33 -15.5t-13 -37.5t13 -35.5t32 -13.5q21 0 33.5 15.5t12.5 39.5q0 20 -12.5 33.5t-32.5 13.5zM333 686h47l216 -611q6 -19 15 -27 t24 -13l51 -14l-2 -21h-243l-2 21l83 22l-68 198l-239 -4l-67 -193l83 -23l-2 -21h-201l-2 21q3 1 15.5 4.5l25 7t13.5 4.5q27 9 37 38zM228 275h215l-108 313z" />
<glyph unicode="&#xc6;" horiz-adv-x="896" d="M453 650h-97l-99 -290h196v290zM28 0l-2 21q3 1 15.5 4.5l25 7t13.5 4.5q27 9 37 38l200 567l-83 23l2 21h585q7 -41 7 -94q0 -25 -1.5 -46.5t-4.5 -42.5h-19l-23 71q-2 4 -7.5 20.5t-11 32.5t-7.5 18q-19 2 -46.5 3.5t-53.5 1.5h-124v-289l212 7l-2 -47l-210 5v-290h134 q26 0 53.5 1.5t46.5 3.5q2 3 7.5 18.5t11 32t7.5 21.5l23 71h19q6 -40 6 -90q0 -52 -7 -94h-459l-2 21l51 14q18 5 25 12.5t7 24.5v254l-209 -3l-96 -279l83 -23l-2 -21h-201z" />
<glyph unicode="&#xc7;" horiz-adv-x="644" d="M347 -99l-4 6l15 85q-140 13 -220 104t-80 245q0 110 45 189.5t122 122.5t171 43q53 0 93.5 -8.5t70.5 -21.5q5 -23 5 -57q0 -22 -2 -51.5t-7 -56.5l-18 -1q-14 38 -27 74.5t-27 69.5q-18 5 -35.5 8t-45.5 3q-74 0 -134 -38.5t-95 -109t-35 -166.5q1 -95 34 -164.5 t93 -107.5t141 -38q35 0 53.5 3t34.5 8q15 33 29.5 69.5t28.5 72.5h18q4 -21 5.5 -44t1.5 -43q0 -22 -1 -41.5t-4 -37.5q-32 -12 -74.5 -20t-94.5 -8h-8l-10 -53q42 -9 65 -28.5t23 -44.5q0 -40 -43.5 -62t-105.5 -26l-4 15q35 10 58.5 26t23.5 39q0 14 -13 26t-43 19z" />
<glyph unicode="&#xc8;" horiz-adv-x="581" d="M439 793l-7 -17q-33 2 -75 9.5t-81.5 20t-65.5 28.5t-26 36q0 13 10.5 23t25.5 15l8 -1q33 -25 86 -57.5t125 -56.5zM215 361l212 7l-2 -47l-210 5v-290h134q26 0 53.5 1.5t46.5 3.5q2 3 7.5 18.5t11 32t7.5 21.5l23 71h19q6 -40 6 -90q0 -52 -7 -94h-459l-2 21l51 14 q18 5 25 12.5t7 24.5v552q0 10 -4 14.5t-17 7.5l-62 19l2 21h449q7 -41 7 -94q0 -25 -1.5 -46.5t-4.5 -42.5h-19l-23 71q-2 4 -7.5 20.5t-11 32.5t-7.5 18q-19 2 -46.5 3.5t-53.5 1.5h-124v-289z" />
<glyph unicode="&#xc9;" horiz-adv-x="581" d="M409 906l9 2q15 -6 25 -16t10 -23q0 -19 -26 -35.5t-65.5 -29t-81.5 -20t-75 -9.5l-7 17q72 24 125 56.5t86 57.5zM215 361l212 7l-2 -47l-210 5v-290h134q26 0 53.5 1.5t46.5 3.5q2 3 7.5 18.5t11 32t7.5 21.5l23 71h19q6 -40 6 -90q0 -52 -7 -94h-459l-2 21l51 14 q18 5 25 12.5t7 24.5v552q0 11 -4 15.5t-17 7.5l-62 19l2 21h449q7 -42 7 -94q0 -25 -1.5 -46.5t-4.5 -43.5h-19l-23 72q-2 4 -7.5 20.5t-11 32t-7.5 18.5q-19 2 -46.5 3.5t-53.5 1.5h-124v-290z" />
<glyph unicode="&#xca;" horiz-adv-x="581" d="M470 781l-15 -10q-29 19 -63.5 42t-70.5 43q-27 -19 -64.5 -43.5t-69.5 -41.5l-12 12l44.5 44.5t43 45.5t29.5 36l7 5h52q25 -27 57 -62.5t62 -70.5zM215 361l212 7l-2 -47l-210 5v-290h134q26 0 53.5 1.5t46.5 3.5q2 3 7.5 18.5t11 32t7.5 21.5l23 71h19q6 -40 6 -90 q0 -52 -7 -94h-459l-2 21l51 14q18 5 25 12.5t7 24.5v552q0 10 -4 14.5t-17 7.5l-62 19l2 21h449q7 -41 7 -94q0 -25 -1.5 -46.5t-4.5 -42.5h-19l-23 71q-2 4 -7.5 20.5t-11 32.5t-7.5 18q-19 2 -46.5 3.5t-53.5 1.5h-124v-289z" />
<glyph unicode="&#xcb;" horiz-adv-x="581" d="M475 846q0 -23 -14 -40.5t-40 -17.5q-22 0 -35 14t-13 34q0 22 16 39t40 17q21 0 33.5 -13t12.5 -33zM273 846q0 -23 -14.5 -40.5t-40.5 -17.5q-22 0 -35 14t-13 34q0 22 16 39t40 17q21 0 34 -13t13 -33zM215 361l212 7l-2 -47l-210 5v-290h134q26 0 53.5 1.5t46.5 3.5 q2 3 7.5 18.5t11 32t7.5 21.5l23 71h19q6 -40 6 -90q0 -52 -7 -94h-459l-2 21l51 14q18 5 25 12.5t7 24.5v552q0 10 -4 14.5t-17 7.5l-62 19l2 21h449q7 -41 7 -94q0 -25 -1.5 -46.5t-4.5 -42.5h-19l-23 71q-2 4 -7.5 20.5t-11 32.5t-7.5 18q-19 2 -46.5 3.5t-53.5 1.5h-124 v-289z" />
<glyph unicode="&#xcc;" horiz-adv-x="353" d="M301 794l-6 -17q-33 2 -75.5 9.5t-82 19.5t-65 28.5t-25.5 36.5q0 13 10 23t25 15l9 -1q32 -25 85.5 -57.5t124.5 -56.5zM215 45l83 -24l-2 -21h-239l-2 21l51 14q18 5 25 12.5t7 24.5v570l-83 23l2 21h239l2 -21l-51 -13q-18 -6 -25 -13.5t-7 -23.5v-570z" />
<glyph unicode="&#xcd;" horiz-adv-x="353" d="M264 907l9 1q15 -5 25 -15t10 -23q0 -20 -26 -36t-65.5 -28.5t-81.5 -20t-75 -9.5l-7 17q72 24 125 56.5t86 57.5zM215 45l83 -24l-2 -21h-239l-2 21l51 14q18 5 25 12.5t7 24.5v570l-83 23l2 21h239l2 -21l-51 -13q-18 -6 -25 -13.5t-7 -23.5v-570z" />
<glyph unicode="&#xce;" horiz-adv-x="353" d="M325 782l-15 -11q-29 20 -63.5 42.5t-70.5 42.5q-27 -18 -64.5 -42.5t-69.5 -42.5l-12 13q21 20 44.5 44t43 46t29.5 36l7 5h52q25 -27 57 -62.5t62 -70.5zM215 45l83 -24l-2 -21h-239l-2 21l51 14q18 5 25 12.5t7 24.5v570l-83 23l2 21h239l2 -21l-51 -13 q-18 -6 -25 -13.5t-7 -23.5v-570z" />
<glyph unicode="&#xcf;" horiz-adv-x="353" d="M330 847q0 -23 -14.5 -40.5t-39.5 -17.5q-22 0 -35 14t-13 33q0 23 15.5 40t39.5 17q21 0 34 -13t13 -33zM127 847q0 -23 -14 -40.5t-40 -17.5q-22 0 -35 14t-13 33q0 23 15.5 40t39.5 17q21 0 34 -13t13 -33zM215 45l83 -24l-2 -21h-239l-2 21l51 14q18 5 25 12.5 t7 24.5v570l-83 23l2 21h239l2 -21l-51 -13q-18 -6 -25 -13.5t-7 -23.5v-570z" />
<glyph unicode="&#xd0;" horiz-adv-x="702" d="M414 334h-186v-296h74q127 0 194 81t67 224q0 142 -67 224t-194 82h-74v-280h186v-35zM644 343q0 -107 -41 -183.5t-117 -118t-180 -41.5h-236l-2 21l51 14q18 5 24.5 12.5t6.5 24.5v262h-94v35h94v255q0 10 -4 14.5t-16 7.5l-62 19l2 21h236q105 0 180.5 -41.5 t116.5 -118.5t41 -183z" />
<glyph unicode="&#xd1;" horiz-adv-x="739" d="M207 773l-15 5q-1 5 -1 8q7 50 26.5 80.5t57.5 30.5q22 0 53 -9.5t63.5 -22t61 -23t44.5 -12.5q8 12 22.5 31.5t26.5 40.5l15 -6q1 -6 1 -10q-7 -49 -26 -79t-56 -30q-22 0 -53.5 9.5t-64.5 22t-61 23t-44 12.5q-6 -7 -22.5 -29.5t-27.5 -41.5zM179 45l102 -24l-2 -21 h-222l-2 21l51 14q18 5 25 12.5t7 24.5v552q0 10 -9 17t-21 10l-53 14l2 21h147l372 -575v531l-82 23l2 21h202l2 -21l-51 -13q-18 -6 -24.5 -13.5t-6.5 -23.5v-615h-57l-382 583v-538z" />
<glyph unicode="&#xd2;" horiz-adv-x="676" d="M469 794l-6 -17q-33 2 -75.5 9.5t-82 19.5t-65 28.5t-25.5 36.5q0 13 10 23t25 15l8 -1q33 -25 86.5 -57.5t124.5 -56.5zM58 344q0 110 37.5 189t102.5 121t146 42q80 0 142 -41.5t97 -119.5t35 -186q0 -110 -35.5 -190.5t-98.5 -124.5t-147 -44t-147 42.5t-97.5 121.5 t-34.5 190zM139 344q0 -97 25 -167.5t70 -108.5t106 -38t105 40t68 112t24 167q0 93 -23.5 162.5t-67 107t-102.5 37.5q-61 0 -107 -38t-72 -108t-26 -166z" />
<glyph unicode="&#xd3;" horiz-adv-x="676" d="M429 907l9 1q15 -5 25 -15t10 -23q0 -20 -26 -36t-65 -28.5t-81.5 -20t-75.5 -9.5l-6 17q71 24 124.5 56.5t85.5 57.5zM58 344q0 110 37.5 189t102.5 121t146 42q80 0 142 -41.5t97 -119.5t35 -186q0 -110 -35.5 -190.5t-98.5 -124.5t-147 -44t-147 42.5t-97.5 121.5 t-34.5 190zM139 344q0 -97 25 -167.5t70 -108.5t106 -38t105 40t68 112t24 167q0 93 -23.5 162.5t-67 107t-102.5 37.5q-61 0 -107 -38t-72 -108t-26 -166z" />
<glyph unicode="&#xd4;" horiz-adv-x="676" d="M490 782l-15 -11q-29 20 -63.5 42.5t-70.5 42.5q-26 -18 -64 -42.5t-69 -42.5l-13 13q21 20 44.5 44t43 46t29.5 36l7 5h52q26 -27 58 -62.5t61 -70.5zM58 344q0 110 37.5 189t102.5 121t146 42q80 0 142 -41.5t97 -119.5t35 -186q0 -110 -35.5 -190.5t-98.5 -124.5 t-147 -44t-147 42.5t-97.5 121.5t-34.5 190zM139 344q0 -97 25 -167.5t70 -108.5t106 -38t105 40t68 112t24 167q0 93 -23.5 162.5t-67 107t-102.5 37.5q-61 0 -107 -38t-72 -108t-26 -166z" />
<glyph unicode="&#xd5;" horiz-adv-x="676" d="M169 774l-16 5v8q7 50 26.5 80.5t56.5 30.5q23 0 54 -9t63.5 -22t60.5 -23t45 -12q7 11 21.5 31t26.5 40l16 -6v-10q-6 -49 -25 -78.5t-57 -29.5q-21 0 -52.5 9t-64.5 21.5t-61.5 23t-43.5 12.5q-7 -6 -23 -28.5t-27 -42.5zM58 344q0 110 37.5 189t102.5 121t146 42 q80 0 142 -41.5t97 -119.5t35 -186q0 -110 -35.5 -190.5t-98.5 -124.5t-147 -44t-147 42.5t-97.5 121.5t-34.5 190zM139 344q0 -97 25 -167.5t70 -108.5t106 -38t105 40t68 112t24 167q0 93 -23.5 162.5t-67 107t-102.5 37.5q-61 0 -107 -38t-72 -108t-26 -166z" />
<glyph unicode="&#xd6;" horiz-adv-x="676" d="M496 847q0 -23 -14 -40.5t-40 -17.5q-22 0 -35 14t-13 33q0 23 16 40t40 17q21 0 33.5 -13t12.5 -33zM294 847q0 -23 -14.5 -40.5t-40.5 -17.5q-22 0 -35 14t-13 33q0 23 16 40t40 17q21 0 34 -13t13 -33zM58 344q0 110 37.5 189t102.5 121t146 42q80 0 142 -41.5 t97 -119.5t35 -186q0 -110 -35.5 -190.5t-98.5 -124.5t-147 -44t-147 42.5t-97.5 121.5t-34.5 190zM139 344q0 -97 25 -167.5t70 -108.5t106 -38t105 40t68 112t24 167q0 93 -23.5 162.5t-67 107t-102.5 37.5q-61 0 -107 -38t-72 -108t-26 -166z" />
<glyph unicode="&#xd7;" d="M446 145l-158 161l-161 -161l-37 37l161 161l-159 163l35 35l71 -71t89 -90l161 161l37 -37l-161 -162q46 -45 87.5 -87.5t70.5 -70.5v-11z" />
<glyph unicode="&#xd8;" horiz-adv-x="676" d="M58 344q0 110 37.5 189t102.5 121t146 42q116 0 190 -84l52 63l31 -25l-58 -70q28 -44 43.5 -102t15.5 -129q0 -110 -35.5 -190.5t-98.5 -124.5t-147 -44q-121 0 -195 85l-52 -63l-30 26l57 70q-28 44 -43.5 103.5t-15.5 132.5zM139 344q0 -102 28 -176l325 393 q-25 46 -62.5 70.5t-85.5 24.5q-61 0 -107 -38t-72 -108t-26 -166zM537 349q0 99 -27 172l-325 -393q27 -47 66 -72.5t89 -25.5q61 0 105 40t68 112t24 167z" />
<glyph unicode="&#xd9;" horiz-adv-x="663" d="M470 794l-7 -17q-33 2 -75 9.5t-81.5 19.5t-65.5 28.5t-26 36.5q0 13 10.5 23t25.5 15l8 -1q33 -25 86 -57.5t125 -56.5zM101 226v416l-83 23l2 21h239l2 -21l-51 -13q-18 -6 -25 -13.5t-7 -23.5v-392q0 -94 49.5 -143t121.5 -49t121.5 48t49.5 144v419l-83 23l2 21h202 l2 -21l-82 -23v-416q0 -118 -64 -177t-165 -59q-66 0 -118.5 26.5t-82.5 79t-30 130.5z" />
<glyph unicode="&#xda;" horiz-adv-x="663" d="M448 907l8 1q15 -5 25 -15t10 -23q0 -20 -25.5 -36t-65 -28.5t-82 -20t-75.5 -9.5l-6 17q71 24 124.5 56.5t86.5 57.5zM101 226v416l-83 23l2 21h239l2 -21l-51 -13q-18 -6 -25 -13.5t-7 -23.5v-392q0 -94 49.5 -143t121.5 -49t121.5 48t49.5 144v419l-83 23l2 21h202 l2 -21l-82 -23v-416q0 -118 -64 -177t-165 -59q-66 0 -118.5 26.5t-82.5 79t-30 130.5z" />
<glyph unicode="&#xdb;" horiz-adv-x="663" d="M499 782l-14 -11q-29 20 -64 42.5t-70 42.5q-27 -18 -64.5 -42.5t-69.5 -42.5l-12 13q21 20 44 44t42.5 46t30.5 36l7 5h51q26 -27 58 -62.5t61 -70.5zM101 226v416l-83 23l2 21h239l2 -21l-51 -13q-18 -6 -25 -13.5t-7 -23.5v-392q0 -94 49.5 -143t121.5 -49t121.5 48 t49.5 144v419l-83 23l2 21h202l2 -21l-82 -23v-416q0 -118 -64 -177t-165 -59q-66 0 -118.5 26.5t-82.5 79t-30 130.5z" />
<glyph unicode="&#xdc;" horiz-adv-x="663" d="M501 847q0 -23 -14.5 -40.5t-39.5 -17.5q-22 0 -35 14t-13 33q0 23 15.5 40t39.5 17q21 0 34 -13t13 -33zM298 847q0 -23 -14 -40.5t-40 -17.5q-22 0 -35 14t-13 33q0 23 15.5 40t39.5 17q21 0 34 -13t13 -33zM101 226v416l-83 23l2 21h239l2 -21l-51 -13 q-18 -6 -25 -13.5t-7 -23.5v-392q0 -94 49.5 -143t121.5 -49t121.5 48t49.5 144v419l-83 23l2 21h202l2 -21l-82 -23v-416q0 -118 -64 -177t-165 -59q-66 0 -118.5 26.5t-82.5 79t-30 130.5z" />
<glyph unicode="&#xdd;" horiz-adv-x="679" d="M450 907l8 1q15 -5 25 -15t10 -23q0 -20 -25.5 -36t-65 -28.5t-82 -20t-75.5 -9.5l-6 17q71 24 124.5 56.5t86.5 57.5zM378 45l82 -24l-2 -21h-238l-2 21l51 14q18 5 24.5 12.5t6.5 24.5v203l-182 336q-11 20 -19.5 28.5t-23.5 13.5l-49 12l2 21h244l2 -21l-83 -22 l169 -331l169 332l-82 21l2 21h202l2 -21q-3 -1 -15.5 -4.5l-25 -7t-13.5 -4.5q-16 -5 -24 -13.5t-16 -24.5l-181 -338v-228z" />
<glyph unicode="&#xde;" horiz-adv-x="587" d="M215 45l103 -24l-2 -21h-259l-2 21l51 14q18 5 25 12.5t7 24.5v570l-83 23l2 21h239l2 -21l-51 -13q-18 -6 -25 -13.5t-7 -23.5v-59h97q66 0 121 -24.5t87.5 -72t32.5 -116.5q0 -67 -33 -112.5t-89 -69t-123 -23.5h-93v-93zM300 516h-85v-338h82q81 0 128 42t47 123 q0 82 -46 127.5t-126 45.5z" />
<glyph unicode="&#xdf;" horiz-adv-x="582" d="M166 0h-131l-2 17l44 14q16 6 22.5 13.5t6.5 24.5v384h-71l-2 17l73 19v15q0 115 53 183.5t151 68.5q77 0 122.5 -41.5t45.5 -111.5q0 -53 -32.5 -100.5t-97.5 -62.5q88 -24 136 -91t48 -165q0 -56 -23 -100t-64 -69t-94 -25q-51 0 -84.5 27.5t-33.5 61.5q0 17 10.5 27.5 t25.5 10.5q9 0 17 -4q7 -40 25 -63t50 -23q41 0 67 42.5t26 107.5q0 100 -46 164.5t-132 83.5v20q48 7 76.5 30t41 55t12.5 64q0 59 -29 94t-79 35q-56 0 -86.5 -51t-30.5 -147v-503z" />
<glyph unicode="&#xe0;" horiz-adv-x="516" d="M339 589l-12 -13q-42 23 -82.5 51t-67 54t-26.5 46q0 15 13 23t35 8h5.5h5.5l7 -3q16 -32 50 -77t72 -89zM265 507q71 0 109.5 -36.5t38.5 -106.5q0 -20 -0.5 -52.5t-1.5 -70.5t-1.5 -74.5t-0.5 -63.5q0 -35 10 -50.5t38 -15.5q20 0 42 7l4 -11q-16 -19 -40 -31t-51 -12 q-32 0 -53 18.5t-25 49.5q-26 -29 -64.5 -48.5t-84.5 -19.5q-58 0 -92.5 30t-34.5 82q0 48 35.5 85t98 59t143.5 24q1 39 1.5 68.5t0.5 39.5q0 44 -23.5 67.5t-65.5 23.5q-45 0 -74 -28t-29 -63q0 -19 7 -37q-17 -9 -36 -9q-20 0 -32.5 10.5t-12.5 28.5q0 23 16.5 47t44 44 t62.5 32.5t71 12.5zM135 112q0 -38 21.5 -55.5t57.5 -17.5q35 0 67 16.5t53 41.5v67.5t1 74.5q-91 -4 -145.5 -38t-54.5 -89z" />
<glyph unicode="&#xe1;" horiz-adv-x="516" d="M359 727q0 -20 -26.5 -46t-66.5 -54t-82 -51l-12 13q38 44 71.5 89t50.5 77l6 3h6h6q21 0 34 -8t13 -23zM265 507q71 0 109.5 -36.5t38.5 -106.5q0 -20 -0.5 -52.5t-1.5 -70.5t-1.5 -74.5t-0.5 -63.5q0 -35 10 -50.5t38 -15.5q20 0 42 7l4 -11q-16 -19 -40 -31t-51 -12 q-32 0 -53 18.5t-25 49.5q-26 -29 -64.5 -48.5t-84.5 -19.5q-58 0 -92.5 30t-34.5 82q0 48 35.5 85t98 59t143.5 24q1 39 1.5 68.5t0.5 39.5q0 44 -23.5 67.5t-65.5 23.5q-45 0 -74 -28t-29 -63q0 -19 7 -37q-17 -9 -36 -9q-20 0 -32.5 10.5t-12.5 28.5q0 23 16.5 47t44 44 t62.5 32.5t71 12.5zM135 112q0 -38 21.5 -55.5t57.5 -17.5q35 0 67 16.5t53 41.5v67.5t1 74.5q-91 -4 -145.5 -38t-54.5 -89z" />
<glyph unicode="&#xe2;" horiz-adv-x="516" d="M392 591l-15 -10q-27 26 -59 55t-64 55q-25 -24 -60 -55.5t-64 -54.5l-13 13q19 25 40 54.5t38.5 56t27.5 43.5l7 5h54q24 -32 52.5 -75t55.5 -87zM265 507q71 0 109.5 -36.5t38.5 -106.5q0 -20 -0.5 -52.5t-1.5 -70.5t-1.5 -74.5t-0.5 -63.5q0 -35 10 -50.5t38 -15.5 q20 0 42 7l4 -11q-16 -19 -40 -31t-51 -12q-32 0 -53 18.5t-25 49.5q-26 -29 -64.5 -48.5t-84.5 -19.5q-58 0 -92.5 30t-34.5 82q0 48 35.5 85t98 59t143.5 24q1 39 1.5 68.5t0.5 39.5q0 44 -23.5 67.5t-65.5 23.5q-45 0 -74 -28t-29 -63q0 -19 7 -37q-17 -9 -36 -9 q-20 0 -32.5 10.5t-12.5 28.5q0 23 16.5 47t44 44t62.5 32.5t71 12.5zM135 112q0 -38 21.5 -55.5t57.5 -17.5q35 0 67 16.5t53 41.5v67.5t1 74.5q-91 -4 -145.5 -38t-54.5 -89z" />
<glyph unicode="&#xe3;" horiz-adv-x="516" d="M100 609l-16 5v7q6 48 25.5 77t56.5 29q19 0 45.5 -8t54.5 -18.5l52 -19.5t38 -11l22 27.5t25 36.5l16 -6v-9q-6 -46 -25 -74.5t-56 -28.5q-19 0 -46 8t-55 18.5l-52 19.5t-38 11q-6 -6 -21.5 -26t-25.5 -38zM265 507q71 0 109.5 -36.5t38.5 -106.5q0 -20 -0.5 -52.5 t-1.5 -70.5t-1.5 -74.5t-0.5 -63.5q0 -35 10 -50.5t38 -15.5q20 0 42 7l4 -11q-16 -19 -40 -31t-51 -12q-32 0 -53 18.5t-25 49.5q-26 -29 -64.5 -48.5t-84.5 -19.5q-58 0 -92.5 30t-34.5 82q0 48 35.5 85t98 59t143.5 24q1 39 1.5 68.5t0.5 39.5q0 44 -23.5 67.5 t-65.5 23.5q-45 0 -74 -28t-29 -63q0 -19 7 -37q-17 -9 -36 -9q-20 0 -32.5 10.5t-12.5 28.5q0 23 16.5 47t44 44t62.5 32.5t71 12.5zM135 112q0 -38 21.5 -55.5t57.5 -17.5q35 0 67 16.5t53 41.5v67.5t1 74.5q-91 -4 -145.5 -38t-54.5 -89z" />
<glyph unicode="&#xe4;" horiz-adv-x="516" d="M404 672q0 -24 -13.5 -42.5t-37.5 -18.5q-20 0 -32.5 15t-12.5 36q0 24 15 42t38 18q19 0 31 -14t12 -36zM202 672q0 -24 -13.5 -42.5t-38.5 -18.5q-20 0 -32.5 15t-12.5 36q0 24 15 42t38 18q19 0 31.5 -14t12.5 -36zM265 507q71 0 109.5 -36.5t38.5 -106.5 q0 -20 -0.5 -52.5t-1.5 -70.5t-1.5 -74.5t-0.5 -63.5q0 -35 10 -50.5t38 -15.5q20 0 42 7l4 -11q-16 -19 -40 -31t-51 -12q-32 0 -53 18.5t-25 49.5q-26 -29 -64.5 -48.5t-84.5 -19.5q-58 0 -92.5 30t-34.5 82q0 48 35.5 85t98 59t143.5 24q1 39 1.5 68.5t0.5 39.5 q0 44 -23.5 67.5t-65.5 23.5q-45 0 -74 -28t-29 -63q0 -19 7 -37q-17 -9 -36 -9q-20 0 -32.5 10.5t-12.5 28.5q0 23 16.5 47t44 44t62.5 32.5t71 12.5zM135 112q0 -38 21.5 -55.5t57.5 -17.5q35 0 67 16.5t53 41.5v67.5t1 74.5q-91 -4 -145.5 -38t-54.5 -89z" />
<glyph unicode="&#xe5;" horiz-adv-x="516" d="M251 589q-37 0 -60.5 20.5t-23.5 54.5q0 36 25.5 58.5t65.5 22.5q37 0 61 -21t23 -54q-2 -35 -27.5 -58t-63.5 -23zM255 718q-21 0 -33.5 -15.5t-12.5 -37.5t12.5 -35.5t32.5 -13.5t33 15.5t13 39.5q0 20 -13 33.5t-32 13.5zM265 507q71 0 109.5 -36.5t38.5 -106.5 q0 -20 -0.5 -52.5t-1.5 -70.5t-1.5 -74.5t-0.5 -63.5q0 -35 10 -50.5t38 -15.5q20 0 42 7l4 -11q-16 -19 -40 -31t-51 -12q-32 0 -53 18.5t-25 49.5q-26 -29 -64.5 -48.5t-84.5 -19.5q-58 0 -92.5 30t-34.5 82q0 48 35.5 85t98 59t143.5 24q1 39 1.5 68.5t0.5 39.5 q0 44 -23.5 67.5t-65.5 23.5q-45 0 -74 -28t-29 -63q0 -19 7 -37q-17 -9 -36 -9q-20 0 -32.5 10.5t-12.5 28.5q0 23 16.5 47t44 44t62.5 32.5t71 12.5zM135 112q0 -38 21.5 -55.5t57.5 -17.5q35 0 67 16.5t53 41.5v67.5t1 74.5q-91 -4 -145.5 -38t-54.5 -89z" />
<glyph unicode="&#xe6;" horiz-adv-x="756" d="M337 378q0 44 -23.5 67.5t-65.5 23.5q-45 0 -74 -28t-29 -63q0 -19 7 -37q-17 -9 -36 -9q-20 0 -32.5 10.5t-12.5 28.5q0 31 27.5 62t71.5 52t92 21q101 0 132 -76q28 36 67.5 56t86.5 20q73 0 119 -49.5t46 -135.5q0 -14 -0.5 -27.5t-1.5 -25.5l-10 -12h-292 q2 -101 44.5 -156t116.5 -55q75 0 131 49l12 -10q-24 -42 -68 -68t-101 -26q-59 0 -103.5 25.5t-71.5 72.5q-32 -40 -78.5 -69t-104.5 -29q-59 0 -93.5 29.5t-34.5 82.5q0 48 35.5 85t98 59t143.5 24q1 34 1.5 62.5t0.5 45.5zM540 469q-57 0 -91.5 -51t-38.5 -131l225 6 q0 10 0.5 19.5t0.5 16.5q0 70 -25 105t-71 35zM135 112q0 -38 21.5 -55.5t58.5 -17.5q39 0 75.5 22.5t63.5 58.5q-20 51 -20 116v3q-90 -4 -144.5 -38t-54.5 -89z" />
<glyph unicode="&#xe7;" horiz-adv-x="458" d="M218 -99l-4 6l15 85q-83 11 -131 76t-48 167q0 80 28 141t77 95.5t113 34.5q44 0 79 -16.5t55 -45t20 -63.5q0 -24 -12 -38t-32 -14q-16 0 -30 7q2 13 2 23q0 51 -23.5 80.5t-65.5 29.5q-39 0 -69 -26t-46.5 -72t-16.5 -106q0 -104 41.5 -162t120.5 -58q73 0 128 49 l13 -10q-25 -41 -68 -67.5t-97 -26.5l-10 -53q42 -9 65 -28.5t23 -44.5q0 -40 -43.5 -62t-105.5 -26l-4 15q35 10 58.5 26t23.5 39q0 14 -13 26t-43 19z" />
<glyph unicode="&#xe8;" horiz-adv-x="476" d="M332 589l-12 -13q-42 23 -82.5 51t-67 54t-26.5 46q0 15 13 23t35 8h6h6l6 -3q17 -32 50.5 -77t71.5 -89zM433 84q-25 -42 -69.5 -68t-102.5 -26q-64 0 -111.5 30t-73.5 85.5t-26 130.5q0 80 28 141t76.5 95t110.5 34q74 0 120.5 -49.5t46.5 -135.5q0 -14 -0.5 -27.5 t-0.5 -25.5l-11 -12h-291q2 -101 44 -156t116 -55q76 0 131 49zM260 469q-57 0 -92 -51t-39 -131l225 6q1 10 1 19.5v16.5q0 70 -24.5 105t-70.5 35z" />
<glyph unicode="&#xe9;" horiz-adv-x="476" d="M365 727q0 -20 -26.5 -46t-67 -54t-82.5 -51l-11 13q37 44 71 89t50 77l7 3h5.5h5.5q22 0 35 -8t13 -23zM433 84q-25 -42 -69.5 -68t-102.5 -26q-64 0 -111.5 30t-73.5 85.5t-26 130.5q0 80 28 141t76.5 95t110.5 34q74 0 120.5 -49.5t46.5 -135.5q0 -14 -0.5 -27.5 t-0.5 -25.5l-11 -12h-291q2 -101 44 -156t116 -55q76 0 131 49zM260 469q-57 0 -92 -51t-39 -131l225 6q1 10 1 19.5v16.5q0 70 -24.5 105t-70.5 35z" />
<glyph unicode="&#xea;" horiz-adv-x="476" d="M393 591l-15 -10q-27 26 -59 55t-65 55q-25 -24 -59.5 -55.5t-64.5 -54.5l-12 13q19 25 40 54.5t38.5 56t26.5 43.5l8 5h54q23 -32 52 -75t56 -87zM433 84q-25 -42 -69.5 -68t-102.5 -26q-64 0 -111.5 30t-73.5 85.5t-26 130.5q0 80 28 141t76.5 95t110.5 34 q74 0 120.5 -49.5t46.5 -135.5q0 -14 -0.5 -27.5t-0.5 -25.5l-11 -12h-291q2 -101 44 -156t116 -55q76 0 131 49zM260 469q-57 0 -92 -51t-39 -131l225 6q1 10 1 19.5v16.5q0 70 -24.5 105t-70.5 35z" />
<glyph unicode="&#xeb;" horiz-adv-x="476" d="M405 672q0 -24 -13.5 -42.5t-37.5 -18.5q-21 0 -33 15t-12 36q0 24 15 42t37 18q20 0 32 -14t12 -36zM202 672q0 -24 -13.5 -42.5t-37.5 -18.5q-20 0 -32.5 15t-12.5 36q0 24 15 42t38 18q19 0 31 -14t12 -36zM433 84q-25 -42 -69.5 -68t-102.5 -26q-64 0 -111.5 30 t-73.5 85.5t-26 130.5q0 80 28 141t76.5 95t110.5 34q74 0 120.5 -49.5t46.5 -135.5q0 -14 -0.5 -27.5t-0.5 -25.5l-11 -12h-291q2 -101 44 -156t116 -55q76 0 131 49zM260 469q-57 0 -92 -51t-39 -131l225 6q1 10 1 19.5v16.5q0 70 -24.5 105t-70.5 35z" />
<glyph unicode="&#xec;" horiz-adv-x="294" d="M217 589l-12 -13q-42 23 -82.5 51t-66.5 54t-26 46q0 15 13 23t34 8h6h6l6 -3q17 -32 50.5 -77t71.5 -89zM189 40l72 -23l-2 -17h-216l-2 17l44 14q16 6 22.5 13.5t6.5 24.5v377l-70 13l-2 14q28 11 67 20.5t70 12.5l10 -9v-457z" />
<glyph unicode="&#xed;" horiz-adv-x="294" d="M253 727q0 -20 -26.5 -46t-67 -54t-82.5 -51l-12 13q38 44 72 89t50 77l7 3h5h6q22 0 35 -8t13 -23zM189 40l72 -23l-2 -17h-216l-2 17l44 14q16 6 22.5 13.5t6.5 24.5v377l-70 13l-2 14q28 11 67 20.5t70 12.5l10 -9v-457z" />
<glyph unicode="&#xee;" horiz-adv-x="294" d="M245 585l-15 -11q-20 25 -43.5 53t-47.5 54q-19 -25 -44.5 -55t-47.5 -52l-12 13q13 25 27.5 55t26.5 57t18 44l7 5h56q16 -33 36 -76.5t39 -86.5zM189 40l72 -23l-2 -17h-216l-2 17l44 14q16 6 22.5 13.5t6.5 24.5v377l-70 13l-2 14q28 11 67 20.5t70 12.5l10 -9v-457z " />
<glyph unicode="&#xef;" horiz-adv-x="294" d="M263 680q0 -24 -12.5 -42.5t-35.5 -18.5q-20 0 -31 15t-11 36q0 24 14 42t35 18q19 0 30 -14t11 -36zM108 680q0 -24 -12.5 -42.5t-35.5 -18.5q-19 0 -30.5 15t-11.5 36q0 24 14 42t36 18q18 0 29 -14t11 -36zM189 40l72 -23l-2 -17h-216l-2 17l44 14q16 6 22.5 13.5 t6.5 24.5v377l-70 13l-2 14q28 11 67 20.5t70 12.5l10 -9v-457z" />
<glyph unicode="&#xf0;" horiz-adv-x="534" d="M255 -10q-60 0 -106 30.5t-72.5 89t-26.5 141.5q0 82 28 139t73 86.5t97 29.5q72 0 114 -52q-26 83 -76 146l-149 -70l-16 37l138 64q-66 67 -157 98l6 27q57 -8 108.5 -34t93.5 -67l154 72l17 -36l-142 -66q59 -68 92.5 -159.5t33.5 -195.5q0 -133 -55 -206.5 t-155 -73.5zM262 469q-59 0 -96 -53t-37 -167q0 -102 32.5 -162t92.5 -60q68 0 100.5 54t32.5 173q0 60 -14.5 108.5t-42 77.5t-68.5 29z" />
<glyph unicode="&#xf1;" horiz-adv-x="595" d="M128 614v7q6 48 25.5 77t56.5 29q19 0 45.5 -8t54.5 -18.5l52 -19.5t39 -11q7 10 21 27.5t25 36.5l16 -6v-9q-6 -46 -24.5 -74.5t-56.5 -28.5q-19 0 -45.5 8t-55 18.5t-52.5 19.5t-38 11q-5 -6 -21 -26t-26 -38zM189 40l72 -23l-2 -17h-216l-2 17l44 14q16 6 22.5 13.5 t6.5 24.5v377l-70 13l-2 14q28 11 67 20.5t70 12.5l10 -9v-56q36 31 77 48t83 17q68 0 104.5 -39t36.5 -112v-315l72 -23l-2 -17h-216l-2 17l44 14q17 6 23 13.5t6 24.5v280q0 108 -96 108q-34 0 -67 -14t-63 -39v-364z" />
<glyph unicode="&#xf2;" horiz-adv-x="515" d="M335 589l-12 -13q-42 23 -82.5 51t-67 54t-26.5 46q0 15 13 23t35 8h5.5h5.5l7 -3q16 -32 50 -77t72 -89zM465 250q0 -83 -28 -141t-75.5 -88.5t-106.5 -30.5q-60 0 -106 30.5t-72.5 89t-26.5 141.5q0 82 30 139t78.5 86.5t105.5 29.5q56 0 101.5 -29.5t72.5 -86.5 t27 -140zM129 249q0 -102 33 -162t93 -60q62 0 96.5 53t34.5 166q0 105 -32.5 164t-91.5 59t-96 -53t-37 -167z" />
<glyph unicode="&#xf3;" horiz-adv-x="515" d="M372 727q0 -20 -26.5 -46t-67 -54t-82.5 -51l-12 13q38 44 71.5 89t50.5 77l6 3h6h6q21 0 34.5 -8t13.5 -23zM465 250q0 -83 -28 -141t-75.5 -88.5t-106.5 -30.5q-60 0 -106 30.5t-72.5 89t-26.5 141.5q0 82 30 139t78.5 86.5t105.5 29.5q56 0 101.5 -29.5t72.5 -86.5 t27 -140zM129 249q0 -102 33 -162t93 -60q62 0 96.5 53t34.5 166q0 105 -32.5 164t-91.5 59t-96 -53t-37 -167z" />
<glyph unicode="&#xf4;" horiz-adv-x="515" d="M400 591l-14 -10q-27 26 -59 55t-65 55q-25 -24 -59.5 -55.5t-64.5 -54.5l-12 13q19 25 40 54.5t38.5 56t26.5 43.5l7 5h55q23 -32 52 -75t55 -87zM465 250q0 -83 -28 -141t-75.5 -88.5t-106.5 -30.5q-60 0 -106 30.5t-72.5 89t-26.5 141.5q0 82 30 139t78.5 86.5 t105.5 29.5q56 0 101.5 -29.5t72.5 -86.5t27 -140zM129 249q0 -102 33 -162t93 -60q62 0 96.5 53t34.5 166q0 105 -32.5 164t-91.5 59t-96 -53t-37 -167z" />
<glyph unicode="&#xf5;" horiz-adv-x="515" d="M107 609l-16 5v7q6 48 25.5 77t56.5 29q19 0 45.5 -8t54.5 -18.5l52 -19.5t39 -11q7 10 21 27.5t25 36.5l16 -6v-9q-6 -46 -24.5 -74.5t-56.5 -28.5q-19 0 -45.5 8t-55 18.5t-52.5 19.5t-38 11q-5 -6 -21 -26t-26 -38zM465 250q0 -83 -28 -141t-75.5 -88.5t-106.5 -30.5 q-60 0 -106 30.5t-72.5 89t-26.5 141.5q0 82 30 139t78.5 86.5t105.5 29.5q56 0 101.5 -29.5t72.5 -86.5t27 -140zM129 249q0 -102 33 -162t93 -60q62 0 96.5 53t34.5 166q0 105 -32.5 164t-91.5 59t-96 -53t-37 -167z" />
<glyph unicode="&#xf6;" horiz-adv-x="515" d="M413 672q0 -24 -13.5 -42.5t-37.5 -18.5q-21 0 -33 15t-12 36q0 24 15 42t37 18q20 0 32 -14t12 -36zM210 672q0 -24 -13.5 -42.5t-37.5 -18.5q-21 0 -33 15t-12 36q0 24 15 42t37 18q20 0 32 -14t12 -36zM465 250q0 -83 -28 -141t-75.5 -88.5t-106.5 -30.5 q-60 0 -106 30.5t-72.5 89t-26.5 141.5q0 82 30 139t78.5 86.5t105.5 29.5q56 0 101.5 -29.5t72.5 -86.5t27 -140zM129 249q0 -102 33 -162t93 -60q62 0 96.5 53t34.5 166q0 105 -32.5 164t-91.5 59t-96 -53t-37 -167z" />
<glyph unicode="&#xf7;" d="M334 533q0 -22 -12.5 -39.5t-36.5 -17.5q-21 0 -32.5 14.5t-11.5 35.5q0 22 14 39.5t37 17.5q19 0 30.5 -14t11.5 -36zM493 317h-417v48q35 1 90 2t116 1.5t116.5 1t92.5 0.5l8 -8zM334 161q0 -22 -12.5 -39.5t-36.5 -17.5q-20 0 -32 14.5t-12 35.5q0 22 14.5 39.5 t36.5 17.5q19 0 30.5 -14t11.5 -36z" />
<glyph unicode="&#xf8;" horiz-adv-x="515" d="M465 250q0 -83 -28 -141t-75.5 -88.5t-106.5 -30.5q-92 -1 -148 68l-47 -50l-28 28l53 57q-17 31 -26 70.5t-9 87.5q0 82 30 139t78.5 86.5t105.5 29.5q88 0 144 -67l45 49l30 -28l-53 -56q17 -30 26 -68.5t9 -85.5zM129 249q0 -55 10 -99l224 240q-33 79 -101 79 q-59 0 -96 -53t-37 -167zM386 246q0 56 -10 100l-224 -240q16 -37 42 -58t61 -21q62 0 96.5 53t34.5 166z" />
<glyph unicode="&#xf9;" horiz-adv-x="606" d="M377 589l-11 -13q-43 23 -83 51t-66.5 54t-26.5 46q0 15 13 23t35 8h5h6l7 -3q16 -32 49.5 -77t71.5 -89zM109 156v290l-69 13l-2 14q28 11 67 20.5t70 12.5l9 -9v-335q0 -123 108 -123q33 0 65 15t57 41v351l-69 13l-2 14q28 11 67 20.5t70 12.5l9 -9v-383 q0 -40 11.5 -58.5t37.5 -18.5q19 0 43 7l4 -11q-35 -43 -92 -43q-32 0 -51.5 17.5t-25.5 48.5q-28 -29 -68.5 -47.5t-83.5 -18.5q-74 0 -114.5 43t-40.5 123z" />
<glyph unicode="&#xfa;" horiz-adv-x="606" d="M418 727q0 -20 -26.5 -46t-67 -54t-82.5 -51l-11 13q37 44 71 89t50 77l7 3h5.5h5.5q22 0 35 -8t13 -23zM109 156v290l-69 13l-2 14q28 11 67 20.5t70 12.5l9 -9v-335q0 -123 108 -123q33 0 65 15t57 41v351l-69 13l-2 14q28 11 67 20.5t70 12.5l9 -9v-383 q0 -40 11.5 -58.5t37.5 -18.5q19 0 43 7l4 -11q-35 -43 -92 -43q-32 0 -51.5 17.5t-25.5 48.5q-28 -29 -68.5 -47.5t-83.5 -18.5q-74 0 -114.5 43t-40.5 123z" />
<glyph unicode="&#xfb;" horiz-adv-x="606" d="M441 591l-15 -10q-27 26 -59 55t-65 55q-25 -24 -59.5 -55.5t-64.5 -54.5l-12 13q19 25 40 54.5t38.5 56t26.5 43.5l8 5h54q23 -32 52 -75t56 -87zM109 156v290l-69 13l-2 14q28 11 67 20.5t70 12.5l9 -9v-335q0 -123 108 -123q33 0 65 15t57 41v351l-69 13l-2 14 q28 11 67 20.5t70 12.5l9 -9v-383q0 -40 11.5 -58.5t37.5 -18.5q19 0 43 7l4 -11q-35 -43 -92 -43q-32 0 -51.5 17.5t-25.5 48.5q-28 -29 -68.5 -47.5t-83.5 -18.5q-74 0 -114.5 43t-40.5 123z" />
<glyph unicode="&#xfc;" horiz-adv-x="606" d="M451 672q0 -24 -13.5 -42.5t-38.5 -18.5q-20 0 -32.5 15t-12.5 36q0 24 15 42t38 18q19 0 31.5 -14t12.5 -36zM248 672q0 -24 -13.5 -42.5t-37.5 -18.5q-21 0 -33 15t-12 36q0 24 15 42t37 18q20 0 32 -14t12 -36zM109 156v290l-69 13l-2 14q28 11 67 20.5t70 12.5l9 -9 v-335q0 -123 108 -123q33 0 65 15t57 41v351l-69 13l-2 14q28 11 67 20.5t70 12.5l9 -9v-383q0 -40 11.5 -58.5t37.5 -18.5q19 0 43 7l4 -11q-35 -43 -92 -43q-32 0 -51.5 17.5t-25.5 48.5q-28 -29 -68.5 -47.5t-83.5 -18.5q-74 0 -114.5 43t-40.5 123z" />
<glyph unicode="&#xfd;" horiz-adv-x="553" d="M403 727q0 -20 -26.5 -46t-67 -54t-82.5 -51l-12 13q38 44 71.5 89t50.5 77l6 3h6h6q21 0 34.5 -8t13.5 -23zM28 496h221l2 -17l-74 -22l123 -375l124 375l-75 22l2 17h182l2 -17q-2 -1 -13 -4.5t-21.5 -7t-11.5 -4.5q-15 -6 -23 -14.5t-13 -24.5l-152 -436 q-41 -118 -86 -181t-112 -63q-32 0 -52.5 17t-20.5 43q0 22 14 36l6 2q10 -11 26 -21t38 -10q33 0 62.5 24.5t53.5 66t41 92.5l-14 -7l-151 437q-11 30 -34 39q-1 1 -11.5 4.5t-21.5 7t-13 4.5z" />
<glyph unicode="&#xfe;" horiz-adv-x="561" d="M181 -206l92 -23l-2 -17h-236l-2 17l44 14q16 5 22.5 13t6.5 25v873l-70 13l-2 14q28 11 67 20.5t70 12.5l10 -9v-303q24 26 60.5 44t79.5 18q92 0 141.5 -69t49.5 -183q0 -80 -29 -139.5t-81 -92t-122 -32.5q-27 0 -52 4t-47 10v-210zM281 27q69 0 110.5 59t41.5 159 q0 97 -34.5 154.5t-101.5 57.5q-35 0 -63.5 -15t-52.5 -41v-346q41 -28 100 -28z" />
<glyph unicode="&#xff;" horiz-adv-x="553" d="M440 672q0 -24 -13.5 -42.5t-37.5 -18.5q-21 0 -33 15t-12 36q0 24 15 42t37 18q20 0 32 -14t12 -36zM237 672q0 -24 -13.5 -42.5t-37.5 -18.5q-20 0 -32.5 15t-12.5 36q0 24 15 42t38 18q19 0 31 -14t12 -36zM28 496h221l2 -17l-74 -22l123 -375l124 375l-75 22l2 17 h182l2 -17q-2 -1 -13 -4.5t-21.5 -7t-11.5 -4.5q-15 -6 -23 -14.5t-13 -24.5l-152 -436q-41 -118 -86 -181t-112 -63q-32 0 -52.5 17t-20.5 43q0 22 14 36l6 2q10 -11 26 -21t38 -10q33 0 62.5 24.5t53.5 66t41 92.5l-14 -7l-151 437q-11 30 -34 39q-1 1 -11.5 4.5t-21.5 7 t-13 4.5z" />
<glyph unicode="&#x100;" horiz-adv-x="712" d="M215 817v50h279v-50h-279zM333 686h47l216 -611q6 -19 15 -27t24 -13l51 -14l-2 -21h-243l-2 21l83 22l-68 198l-239 -4l-67 -193l83 -23l-2 -21h-201l-2 21q3 1 15.5 4.5l25 7t13.5 4.5q27 9 37 38zM228 275h215l-108 313z" />
<glyph unicode="&#x101;" horiz-adv-x="516" d="M115 643v46h279v-46h-279zM265 507q71 0 109.5 -36.5t38.5 -106.5q0 -20 -0.5 -52.5t-1.5 -70.5t-1.5 -74.5t-0.5 -63.5q0 -35 10 -50.5t38 -15.5q20 0 42 7l4 -11q-16 -19 -40 -31t-51 -12q-32 0 -53 18.5t-25 49.5q-26 -29 -64.5 -48.5t-84.5 -19.5q-58 0 -92.5 30 t-34.5 82q0 48 35.5 85t98 59t143.5 24q1 39 1.5 68.5t0.5 39.5q0 44 -23.5 67.5t-65.5 23.5q-45 0 -74 -28t-29 -63q0 -19 7 -37q-17 -9 -36 -9q-20 0 -32.5 10.5t-12.5 28.5q0 23 16.5 47t44 44t62.5 32.5t71 12.5zM135 112q0 -38 21.5 -55.5t57.5 -17.5q35 0 67 16.5 t53 41.5v67.5t1 74.5q-91 -4 -145.5 -38t-54.5 -89z" />
<glyph unicode="&#x102;" horiz-adv-x="712" d="M467 901l4 2l15 -4q-11 -55 -45.5 -85t-84.5 -30q-48 0 -81 30.5t-40 84.5l19 4q10 -29 38.5 -45t69.5 -16q37 0 65 15.5t40 43.5zM333 686h47l216 -611q6 -19 15 -27t24 -13l51 -14l-2 -21h-243l-2 21l83 22l-68 198l-239 -4l-67 -193l83 -23l-2 -21h-201l-2 21 q3 1 15.5 4.5l25 7t13.5 4.5q27 9 37 38zM228 275h215l-108 313z" />
<glyph unicode="&#x103;" horiz-adv-x="516" d="M362 735l4 2l16 -4q-10 -63 -45 -99t-85 -36t-83.5 36t-39.5 100l19 3q10 -37 38.5 -58.5t70.5 -21.5q38 0 65.5 20.5t39.5 57.5zM265 507q71 0 109.5 -36.5t38.5 -106.5q0 -20 -0.5 -52.5t-1.5 -70.5t-1.5 -74.5t-0.5 -63.5q0 -35 10 -50.5t38 -15.5q20 0 42 7l4 -11 q-16 -19 -40 -31t-51 -12q-32 0 -53 18.5t-25 49.5q-26 -29 -64.5 -48.5t-84.5 -19.5q-58 0 -92.5 30t-34.5 82q0 48 35.5 85t98 59t143.5 24q1 39 1.5 68.5t0.5 39.5q0 44 -23.5 67.5t-65.5 23.5q-45 0 -74 -28t-29 -63q0 -19 7 -37q-17 -9 -36 -9q-20 0 -32.5 10.5 t-12.5 28.5q0 23 16.5 47t44 44t62.5 32.5t71 12.5zM135 112q0 -38 21.5 -55.5t57.5 -17.5q35 0 67 16.5t53 41.5v67.5t1 74.5q-91 -4 -145.5 -38t-54.5 -89z" />
<glyph unicode="&#x104;" horiz-adv-x="714" d="M681 -181q-16 -20 -41.5 -31.5t-51.5 -11.5q-39 0 -61 21.5t-22 59.5q0 85 132 143h-196l-2 21l83 22l-68 198l-239 -4l-67 -193l83 -23l-2 -21h-201l-2 21q3 1 15.5 4.5l25 7t13.5 4.5q27 9 37 38l216 611h47l216 -611q6 -19 15 -27t24 -13l51 -14l-2 -21 q-113 -58 -113 -126q0 -24 15 -37.5t41 -13.5q23 0 50 6zM228 275h215l-108 313z" />
<glyph unicode="&#x105;" horiz-adv-x="516" d="M477 -181q-16 -20 -39 -31.5t-50 -11.5q-39 0 -63 22t-24 59q0 40 30 72.5t81 60.5v0q-32 0 -53 18.5t-25 49.5q-26 -29 -64.5 -48.5t-84.5 -19.5q-58 0 -92.5 30t-34.5 82q0 48 35.5 85t98 59t143.5 24q1 39 1.5 68.5t0.5 39.5q0 44 -23.5 67.5t-65.5 23.5 q-45 0 -74 -28t-29 -63q0 -19 7 -37q-17 -9 -36 -9q-20 0 -32.5 10.5t-12.5 28.5q0 23 16.5 47t44 44t62.5 32.5t71 12.5q71 0 109.5 -36.5t38.5 -106.5q0 -20 -0.5 -52.5t-1.5 -70.5t-1.5 -74.5t-0.5 -63.5q0 -35 10 -50.5t38 -15.5q20 0 42 7l4 -11q-8 -9 -18 -17 q-24 -23 -51.5 -44.5t-47 -45.5t-19.5 -54q0 -24 15.5 -36.5t42.5 -12.5q23 0 48 6zM135 112q0 -38 21.5 -55.5t57.5 -17.5q35 0 67 16.5t53 41.5v67.5t1 74.5q-91 -4 -145.5 -38t-54.5 -89z" />
<glyph unicode="&#x106;" horiz-adv-x="644" d="M475 907l9 1q15 -5 25 -15t10 -23q0 -20 -26 -36t-65.5 -28.5t-81.5 -20t-75 -9.5l-7 17q72 24 125 56.5t86 57.5zM404 -10q-107 0 -184.5 41.5t-119.5 120t-42 189.5q0 110 45 189.5t122 122.5t171 43q53 0 93.5 -8.5t70.5 -21.5q5 -23 5 -57q0 -22 -2 -51.5t-7 -56.5 l-18 -1q-14 38 -27 74.5t-27 69.5q-18 5 -35.5 8t-45.5 3q-74 0 -134 -38.5t-95 -109t-35 -166.5q1 -95 34 -164.5t93 -107.5t141 -38q35 0 53.5 3t34.5 8q15 33 29.5 69.5t28.5 72.5h18q4 -21 5.5 -44t1.5 -43q0 -22 -1 -41.5t-4 -37.5q-32 -12 -74.5 -20t-94.5 -8z" />
<glyph unicode="&#x107;" horiz-adv-x="458" d="M375 727q0 -20 -26.5 -46t-67 -54t-82.5 -51l-12 13q38 44 71.5 89t50.5 77l6 3h6h6q21 0 34.5 -8t13.5 -23zM432 84q-25 -41 -68.5 -67.5t-101.5 -26.5q-65 0 -112.5 30t-73.5 85t-26 130q0 80 28 141t77 95.5t113 34.5q44 0 79 -16.5t55 -45t20 -63.5q0 -24 -12 -38 t-32 -14q-16 0 -30 7q2 13 2 23q0 51 -23.5 80.5t-65.5 29.5q-39 0 -69 -26t-46.5 -72t-16.5 -106q0 -104 41.5 -162t120.5 -58q73 0 128 49z" />
<glyph unicode="&#x108;" horiz-adv-x="644" d="M536 782l-15 -11q-29 20 -63.5 42.5t-70.5 42.5q-27 -18 -64.5 -42.5t-69.5 -42.5l-12 13q21 20 44.5 44t43 46t29.5 36l7 5h52q25 -27 57 -62.5t62 -70.5zM404 -10q-107 0 -184.5 41.5t-119.5 120t-42 189.5q0 110 45 189.5t122 122.5t171 43q53 0 93.5 -8.5t70.5 -21.5 q5 -23 5 -57q0 -22 -2 -51.5t-7 -56.5l-18 -1q-14 38 -27 74.5t-27 69.5q-18 5 -35.5 8t-45.5 3q-74 0 -134 -38.5t-95 -109t-35 -166.5q1 -95 34 -164.5t93 -107.5t141 -38q35 0 53.5 3t34.5 8q15 33 29.5 69.5t28.5 72.5h18q4 -21 5.5 -44t1.5 -43q0 -22 -1 -41.5 t-4 -37.5q-32 -12 -74.5 -20t-94.5 -8z" />
<glyph unicode="&#x109;" horiz-adv-x="458" d="M402 591l-14 -10q-27 26 -59 55t-65 55q-25 -24 -60 -55.5t-64 -54.5l-13 13q20 25 40.5 54.5t38.5 56t27 43.5l7 5h55q23 -32 51.5 -75t55.5 -87zM432 84q-25 -41 -68.5 -67.5t-101.5 -26.5q-65 0 -112.5 30t-73.5 85t-26 130q0 80 28 141t77 95.5t113 34.5 q44 0 79 -16.5t55 -45t20 -63.5q0 -24 -12 -38t-32 -14q-16 0 -30 7q2 13 2 23q0 51 -23.5 80.5t-65.5 29.5q-39 0 -69 -26t-46.5 -72t-16.5 -106q0 -104 41.5 -162t120.5 -58q73 0 128 49z" />
<glyph unicode="&#x10a;" horiz-adv-x="644" d="M444 844q0 -23 -15 -40.5t-43 -17.5q-25 0 -39 14t-14 35q0 23 17.5 40.5t43.5 17.5q23 0 36.5 -13.5t13.5 -35.5zM404 -10q-107 0 -184.5 41.5t-119.5 120t-42 189.5q0 110 45 189.5t122 122.5t171 43q53 0 93.5 -8.5t70.5 -21.5q5 -23 5 -57q0 -22 -2 -51.5t-7 -56.5 l-18 -1q-14 38 -27 74.5t-27 69.5q-18 5 -35.5 8t-45.5 3q-74 0 -134 -38.5t-95 -109t-35 -166.5q1 -95 34 -164.5t93 -107.5t141 -38q35 0 53.5 3t34.5 8q15 33 29.5 69.5t28.5 72.5h18q4 -21 5.5 -44t1.5 -43q0 -22 -1 -41.5t-4 -37.5q-32 -12 -74.5 -20t-94.5 -8z" />
<glyph unicode="&#x10b;" horiz-adv-x="458" d="M317 668q0 -24 -14.5 -43t-40.5 -19q-22 0 -35.5 15.5t-13.5 38.5q0 24 16.5 42.5t40.5 18.5q21 0 34 -14.5t13 -38.5zM432 84q-25 -41 -68.5 -67.5t-101.5 -26.5q-65 0 -112.5 30t-73.5 85t-26 130q0 80 28 141t77 95.5t113 34.5q44 0 79 -16.5t55 -45t20 -63.5 q0 -24 -12 -38t-32 -14q-16 0 -30 7q2 13 2 23q0 51 -23.5 80.5t-65.5 29.5q-39 0 -69 -26t-46.5 -72t-16.5 -106q0 -104 41.5 -162t120.5 -58q73 0 128 49z" />
<glyph unicode="&#x10c;" horiz-adv-x="644" d="M418 776l-7 -5h-51q-26 27 -58 62.5t-61 70.5l14 11q29 -20 63.5 -43t70.5 -43q27 19 64.5 43.5t69.5 42.5l12 -13q-21 -20 -44.5 -44.5t-43 -46t-29.5 -35.5zM404 -10q-107 0 -184.5 41.5t-119.5 120t-42 189.5q0 110 45 189.5t122 122.5t171 43q53 0 93.5 -8.5 t70.5 -21.5q5 -23 5 -57q0 -22 -2 -51.5t-7 -56.5l-18 -1q-14 38 -27 74.5t-27 69.5q-18 5 -35.5 8t-45.5 3q-74 0 -134 -38.5t-95 -109t-35 -166.5q1 -95 34 -164.5t93 -107.5t141 -38q35 0 53.5 3t34.5 8q15 33 29.5 69.5t28.5 72.5h18q4 -21 5.5 -44t1.5 -43 q0 -22 -1 -41.5t-4 -37.5q-32 -12 -74.5 -20t-94.5 -8z" />
<glyph unicode="&#x10d;" horiz-adv-x="458" d="M297 588l-7 -5h-55q-23 32 -52 75t-55 87l14 10q27 -26 59 -55t65 -55q25 24 59.5 55.5t64.5 54.5l12 -12q-19 -25 -40 -55t-38.5 -56.5t-26.5 -43.5zM432 84q-25 -41 -68.5 -67.5t-101.5 -26.5q-65 0 -112.5 30t-73.5 85t-26 130q0 80 28 141t77 95.5t113 34.5 q44 0 79 -16.5t55 -45t20 -63.5q0 -24 -12 -38t-32 -14q-16 0 -30 7q2 13 2 23q0 51 -23.5 80.5t-65.5 29.5q-39 0 -69 -26t-46.5 -72t-16.5 -106q0 -104 41.5 -162t120.5 -58q73 0 128 49z" />
<glyph unicode="&#x10e;" horiz-adv-x="689" d="M355 776l-7 -5h-52q-26 27 -57.5 62.5t-61.5 70.5l15 11q29 -20 63.5 -43t70.5 -43q26 19 64 43.5t70 42.5l12 -13q-21 -20 -44.5 -44.5t-43 -46t-29.5 -35.5zM289 649h-74v-611h74q127 0 194 81t67 224q0 142 -67 224t-194 82zM631 343q0 -107 -41 -183.5t-116.5 -118 t-180.5 -41.5h-236l-2 21l51 14q18 5 25 12.5t7 24.5v552q0 10 -4 14.5t-17 7.5l-62 19l2 21h236q105 0 181 -41.5t116.5 -118.5t40.5 -183z" />
<glyph unicode="&#x10f;" horiz-adv-x="721" d="M549 33q-14 -18 -37.5 -30.5t-53.5 -12.5q-32 0 -51.5 17.5t-25.5 49.5q-21 -25 -58.5 -46t-85.5 -21q-81 0 -134 63t-53 183q0 85 32.5 145.5t86.5 92.5t118 32q47 0 92 -13v203l-89 13l-2 14q32 12 76 20.5t80 12.5l10 -9v-633q0 -39 10.5 -58t39.5 -19q13 0 22.5 2 t18.5 5zM671 699q0 -29 -12.5 -59.5t-32 -56.5t-40.5 -41l-11 9q12 18 22.5 46.5t14.5 55.5q-17 3 -27.5 14.5t-10.5 29.5q0 22 14.5 37t34.5 15q22 0 35 -13.5t13 -36.5zM129 244q0 -100 37.5 -153t95.5 -53q37 0 67.5 18t49.5 40v346q-40 27 -90 27q-69 0 -114.5 -56.5 t-45.5 -168.5z" />
<glyph unicode="&#x110;" horiz-adv-x="702" d="M414 334h-186v-296h74q127 0 194 81t67 224q0 142 -67 224t-194 82h-74v-280h186v-35zM644 343q0 -107 -41 -183.5t-117 -118t-180 -41.5h-236l-2 21l51 14q18 5 24.5 12.5t6.5 24.5v262h-94v35h94v255q0 10 -4 14.5t-16 7.5l-62 19l2 21h236q105 0 180.5 -41.5 t116.5 -118.5t41 -183z" />
<glyph unicode="&#x111;" horiz-adv-x="562" d="M549 33q-14 -18 -37.5 -30.5t-53.5 -12.5q-32 0 -51.5 17.5t-25.5 49.5q-21 -25 -58.5 -46t-85.5 -21q-81 0 -134 63t-53 183q0 85 32.5 145.5t86.5 92.5t118 32q47 0 92 -13v81h-204v35h204v87l-89 13l-2 14q32 12 76 20.5t80 12.5l10 -9v-138h95v-35h-95v-460 q0 -39 10.5 -58t39.5 -19q13 0 22.5 2t18.5 5zM129 244q0 -100 37.5 -153t95.5 -53q37 0 67.5 18t49.5 40v346q-40 27 -90 27q-69 0 -114.5 -56.5t-45.5 -168.5z" />
<glyph unicode="&#x112;" horiz-adv-x="581" d="M176 816v51h278v-51h-278zM215 361l212 7l-2 -47l-210 5v-290h134q26 0 53.5 1.5t46.5 3.5q2 3 7.5 18.5t11 32t7.5 21.5l23 71h19q6 -40 6 -90q0 -52 -7 -94h-459l-2 21l51 14q18 5 25 12.5t7 24.5v552q0 10 -4 14.5t-17 7.5l-62 19l2 21h449q7 -41 7 -94 q0 -25 -1.5 -46.5t-4.5 -42.5h-19l-23 71q-2 4 -7.5 20.5t-11 32.5t-7.5 18q-19 2 -46.5 3.5t-53.5 1.5h-124v-289z" />
<glyph unicode="&#x113;" horiz-adv-x="476" d="M116 643v46h279v-46h-279zM433 84q-25 -42 -69.5 -68t-102.5 -26q-64 0 -111.5 30t-73.5 85.5t-26 130.5q0 80 28 141t76.5 95t110.5 34q74 0 120.5 -49.5t46.5 -135.5q0 -14 -0.5 -27.5t-0.5 -25.5l-11 -12h-291q2 -101 44 -156t116 -55q76 0 131 49zM260 469 q-57 0 -92 -51t-39 -131l225 6q1 10 1 19.5v16.5q0 70 -24.5 105t-70.5 35z" />
<glyph unicode="&#x114;" horiz-adv-x="581" d="M428 900l5 2l15 -4q-11 -54 -45.5 -84.5t-84.5 -30.5q-49 0 -81.5 30.5t-39.5 85.5l18 3q11 -29 39 -45t69 -16q38 0 66 15.5t39 43.5zM215 361l212 7l-2 -47l-210 5v-290h134q26 0 53.5 1.5t46.5 3.5q2 3 7.5 18.5t11 32t7.5 21.5l23 71h19q6 -40 6 -90q0 -52 -7 -94 h-459l-2 21l51 14q18 5 25 12.5t7 24.5v552q0 10 -4 14.5t-17 7.5l-62 19l2 21h449q7 -41 7 -94q0 -25 -1.5 -46.5t-4.5 -42.5h-19l-23 71q-2 4 -7.5 20.5t-11 32.5t-7.5 18q-19 2 -46.5 3.5t-53.5 1.5h-124v-289z" />
<glyph unicode="&#x115;" horiz-adv-x="476" d="M363 735l4 2l15 -4q-9 -63 -44 -99t-85 -36t-83.5 36t-39.5 100l18 3q11 -37 39.5 -58.5t70.5 -21.5q37 0 65 20.5t40 57.5zM433 84q-25 -42 -69.5 -68t-102.5 -26q-64 0 -111.5 30t-73.5 85.5t-26 130.5q0 80 28 141t76.5 95t110.5 34q74 0 120.5 -49.5t46.5 -135.5 q0 -14 -0.5 -27.5t-0.5 -25.5l-11 -12h-291q2 -101 44 -156t116 -55q76 0 131 49zM260 469q-57 0 -92 -51t-39 -131l225 6q1 10 1 19.5v16.5q0 70 -24.5 105t-70.5 35z" />
<glyph unicode="&#x116;" horiz-adv-x="581" d="M378 843q0 -23 -15 -40.5t-43 -17.5q-25 0 -39 14.5t-14 35.5q0 22 17.5 39.5t43.5 17.5q23 0 36.5 -13.5t13.5 -35.5zM215 361l212 7l-2 -47l-210 5v-290h134q26 0 53.5 1.5t46.5 3.5q2 3 7.5 18.5t11 32t7.5 21.5l23 71h19q6 -40 6 -90q0 -52 -7 -94h-459l-2 21l51 14 q18 5 25 12.5t7 24.5v552q0 10 -4 14.5t-17 7.5l-62 19l2 21h449q7 -41 7 -94q0 -25 -1.5 -46.5t-4.5 -42.5h-19l-23 71q-2 4 -7.5 20.5t-11 32.5t-7.5 18q-19 2 -46.5 3.5t-53.5 1.5h-124v-289z" />
<glyph unicode="&#x117;" horiz-adv-x="476" d="M309 668q0 -24 -14.5 -43t-40.5 -19q-22 0 -35.5 15.5t-13.5 38.5q0 24 16 42.5t41 18.5q21 0 34 -14.5t13 -38.5zM433 84q-25 -42 -69.5 -68t-102.5 -26q-64 0 -111.5 30t-73.5 85.5t-26 130.5q0 80 28 141t76.5 95t110.5 34q74 0 120.5 -49.5t46.5 -135.5 q0 -14 -0.5 -27.5t-0.5 -25.5l-11 -12h-291q2 -101 44 -156t116 -55q76 0 131 49zM260 469q-57 0 -92 -51t-39 -131l225 6q1 10 1 19.5v16.5q0 70 -24.5 105t-70.5 35z" />
<glyph unicode="&#x118;" horiz-adv-x="581" d="M215 361l212 7l-2 -47l-210 5v-290h134q26 0 53.5 1.5t46.5 3.5q2 3 7.5 18.5t11 32t7.5 21.5l23 71h19q6 -40 6 -90q0 -52 -7 -94q-113 -58 -113 -126q0 -24 14.5 -37.5t41.5 -13.5q22 0 50 6l4 -10q-17 -20 -42 -31.5t-52 -11.5q-38 0 -60.5 21.5t-22.5 59.5 q0 85 132 143h-411l-2 21l51 14q18 5 25 12.5t7 24.5v552q0 10 -4 14.5t-17 7.5l-62 19l2 21h449q7 -41 7 -94q0 -25 -1.5 -46.5t-4.5 -42.5h-19l-23 71q-2 4 -7.5 20.5t-11 32.5t-7.5 18q-19 2 -46.5 3.5t-53.5 1.5h-124v-289z" />
<glyph unicode="&#x119;" horiz-adv-x="476" d="M364 -181q-16 -18 -38.5 -30.5t-52.5 -12.5q-36 0 -61 20t-25 57q0 40 30.5 74.5t87.5 66.5q-21 -4 -44 -4q-64 0 -111.5 30t-73.5 85.5t-26 130.5q0 80 28 141t76.5 95t110.5 34q74 0 120.5 -49.5t46.5 -135.5q0 -14 -0.5 -27.5t-0.5 -25.5l-11 -12h-291q2 -101 44 -156 t116 -55q76 0 131 49l13 -10q-12 -19 -27 -35h1q-23 -25 -49.5 -47t-50 -43t-38.5 -43t-15 -46t15 -35.5t43 -11.5q22 0 48 6zM260 469q-57 0 -92 -51t-39 -131l225 6q1 10 1 19.5v16.5q0 70 -24.5 105t-70.5 35z" />
<glyph unicode="&#x11a;" horiz-adv-x="581" d="M352 776l-7 -5h-51q-26 26 -58 61.5t-61 71.5l14 10q29 -20 63.5 -42.5t70.5 -42.5q27 18 64.5 42.5t69.5 42.5l12 -13q-21 -20 -44.5 -44t-43 -46t-29.5 -35zM215 361l212 7l-2 -47l-210 5v-290h134q26 0 53.5 1.5t46.5 3.5q2 3 7.5 18.5t11 32t7.5 21.5l23 71h19 q6 -40 6 -90q0 -52 -7 -94h-459l-2 21l51 14q18 5 25 12.5t7 24.5v552q0 10 -4 14.5t-17 7.5l-62 19l2 21h449q7 -41 7 -94q0 -25 -1.5 -46.5t-4.5 -42.5h-19l-23 71q-2 4 -7.5 20.5t-11 32.5t-7.5 18q-19 2 -46.5 3.5t-53.5 1.5h-124v-289z" />
<glyph unicode="&#x11b;" horiz-adv-x="476" d="M289 588l-8 -5h-54q-24 32 -52.5 75t-55.5 87l15 10q27 -26 59 -55t64 -55q25 24 60 55.5t65 54.5l12 -12q-19 -25 -40 -55t-38.5 -56.5t-26.5 -43.5zM433 84q-25 -42 -69.5 -68t-102.5 -26q-64 0 -111.5 30t-73.5 85.5t-26 130.5q0 80 28 141t76.5 95t110.5 34 q74 0 120.5 -49.5t46.5 -135.5q0 -14 -0.5 -27.5t-0.5 -25.5l-11 -12h-291q2 -101 44 -156t116 -55q76 0 131 49zM260 469q-57 0 -92 -51t-39 -131l225 6q1 10 1 19.5v16.5q0 70 -24.5 105t-70.5 35z" />
<glyph unicode="&#x11c;" horiz-adv-x="699" d="M540 782l-14 -11q-30 20 -64.5 42.5t-69.5 42.5q-27 -18 -64.5 -42.5t-69.5 -42.5l-13 13q22 20 45 44t42.5 46t29.5 36l8 5h51q26 -27 58 -62.5t61 -70.5zM396 -10q-104 0 -180 42t-117 121t-41 188t46 189t123.5 123t173.5 43q54 0 97.5 -8t74.5 -22q5 -23 5 -57 q0 -22 -2.5 -51.5t-6.5 -56.5l-19 -1q-4 7 -11 28t-15.5 46t-16 45t-10.5 25q-20 6 -40.5 8.5t-52.5 2.5q-73 0 -133 -38.5t-96 -109t-36 -165.5t33 -165t92 -108t137 -38q31 0 53 3t49 10v231l-83 24l2 21h232l2 -21l-51 -14q-17 -4 -22 -12t-5 -24v-228q-35 -14 -79 -22.5 t-103 -8.5z" />
<glyph unicode="&#x11d;" horiz-adv-x="488" d="M381 591l-14 -10q-27 26 -59 55t-65 55q-25 -24 -60 -55.5t-64 -54.5l-13 13q20 25 40.5 54.5t38.5 56t27 43.5l7 5h55q23 -32 51.5 -75t55.5 -87zM65 317q0 55 23.5 97.5t64.5 67t93 24.5q57 0 98 -30q23 24 54 40t49 16q23 0 23 -32q0 -15 -3 -27q-3 -14 -23 -14 q-19 0 -39 -0.5t-39 -2.5q21 -23 32.5 -54t11.5 -69q0 -55 -22 -96.5t-61.5 -65t-91.5 -23.5q-22 0 -42 5q-9 -11 -14.5 -23.5t-5.5 -26.5q0 -22 12.5 -31.5t39.5 -11.5l89 -8q72 -7 111.5 -42t39.5 -95q0 -49 -30 -88t-83.5 -61t-124.5 -22q-85 0 -138.5 35t-53.5 93 q0 32 19.5 57t51.5 41l11 -9q-17 -29 -17 -57q1 -57 42 -90t110 -33q68 0 110 30.5t42 78.5q0 39 -26.5 62.5t-75.5 28.5l-96 10q-46 5 -68 27.5t-22 54.5q0 51 49 89q-45 18 -72.5 59.5t-27.5 95.5zM333 323q0 73 -24 110t-68 37q-45 0 -72 -37t-27 -102q0 -68 26 -107 t69 -40q46 0 71 35.5t25 103.5z" />
<glyph unicode="&#x11e;" horiz-adv-x="699" d="M499 901l4 2l15 -4q-10 -55 -45 -85t-84 -30t-82 30.5t-40 84.5l19 4q10 -29 38.5 -45t69.5 -16q37 0 65 15.5t40 43.5zM396 -10q-104 0 -180 42t-117 121t-41 188t46 189t123.5 123t173.5 43q54 0 97.5 -8t74.5 -22q5 -23 5 -57q0 -22 -2.5 -51.5t-6.5 -56.5l-19 -1 q-4 7 -11 28t-15.5 46t-16 45t-10.5 25q-20 6 -40.5 8.5t-52.5 2.5q-73 0 -133 -38.5t-96 -109t-36 -165.5t33 -165t92 -108t137 -38q31 0 53 3t49 10v231l-83 24l2 21h232l2 -21l-51 -14q-17 -4 -22 -12t-5 -24v-228q-35 -14 -79 -22.5t-103 -8.5z" />
<glyph unicode="&#x11f;" horiz-adv-x="488" d="M351 735l5 2l15 -4q-10 -63 -45 -99t-85 -36t-83 36t-40 100l19 3q10 -37 39 -58.5t70 -21.5q38 0 66 20.5t39 57.5zM65 317q0 55 23.5 97.5t64.5 67t93 24.5q57 0 98 -30q23 24 54 40t49 16q23 0 23 -32q0 -15 -3 -27q-3 -14 -23 -14q-19 0 -39 -0.5t-39 -2.5 q21 -23 32.5 -54t11.5 -69q0 -55 -22 -96.5t-61.5 -65t-91.5 -23.5q-22 0 -42 5q-9 -11 -14.5 -23.5t-5.5 -26.5q0 -22 12.5 -31.5t39.5 -11.5l89 -8q72 -7 111.5 -42t39.5 -95q0 -49 -30 -88t-83.5 -61t-124.5 -22q-85 0 -138.5 35t-53.5 93q0 32 19.5 57t51.5 41l11 -9 q-17 -29 -17 -57q1 -57 42 -90t110 -33q68 0 110 30.5t42 78.5q0 39 -26.5 62.5t-75.5 28.5l-96 10q-46 5 -68 27.5t-22 54.5q0 51 49 89q-45 18 -72.5 59.5t-27.5 95.5zM333 323q0 73 -24 110t-68 37q-45 0 -72 -37t-27 -102q0 -68 26 -107t69 -40q46 0 71 35.5t25 103.5z " />
<glyph unicode="&#x120;" horiz-adv-x="699" d="M449 844q0 -23 -15.5 -40.5t-43.5 -17.5q-24 0 -38.5 14t-14.5 35q0 23 17.5 40.5t43.5 17.5q23 0 37 -13.5t14 -35.5zM396 -10q-104 0 -180 42t-117 121t-41 188t46 189t123.5 123t173.5 43q54 0 97.5 -8t74.5 -22q5 -23 5 -57q0 -22 -2.5 -51.5t-6.5 -56.5l-19 -1 q-4 7 -11 28t-15.5 46t-16 45t-10.5 25q-20 6 -40.5 8.5t-52.5 2.5q-73 0 -133 -38.5t-96 -109t-36 -165.5t33 -165t92 -108t137 -38q31 0 53 3t49 10v231l-83 24l2 21h232l2 -21l-51 -14q-17 -4 -22 -12t-5 -24v-228q-35 -14 -79 -22.5t-103 -8.5z" />
<glyph unicode="&#x121;" horiz-adv-x="488" d="M296 668q0 -24 -14.5 -43t-40.5 -19q-22 0 -35.5 15.5t-13.5 38.5q0 24 16.5 42.5t40.5 18.5q21 0 34 -14.5t13 -38.5zM65 317q0 55 23.5 97.5t64.5 67t93 24.5q57 0 98 -30q23 24 54 40t49 16q23 0 23 -32q0 -15 -3 -27q-3 -14 -23 -14q-19 0 -39 -0.5t-39 -2.5 q21 -23 32.5 -54t11.5 -69q0 -55 -22 -96.5t-61.5 -65t-91.5 -23.5q-22 0 -42 5q-9 -11 -14.5 -23.5t-5.5 -26.5q0 -22 12.5 -31.5t39.5 -11.5l89 -8q72 -7 111.5 -42t39.5 -95q0 -49 -30 -88t-83.5 -61t-124.5 -22q-85 0 -138.5 35t-53.5 93q0 32 19.5 57t51.5 41l11 -9 q-17 -29 -17 -57q1 -57 42 -90t110 -33q68 0 110 30.5t42 78.5q0 39 -26.5 62.5t-75.5 28.5l-96 10q-46 5 -68 27.5t-22 54.5q0 51 49 89q-45 18 -72.5 59.5t-27.5 95.5zM333 323q0 73 -24 110t-68 37q-45 0 -72 -37t-27 -102q0 -68 26 -107t69 -40q46 0 71 35.5t25 103.5z " />
<glyph unicode="&#x122;" horiz-adv-x="699" d="M396 -10q-104 0 -180 42t-117 121t-41 188t46 189t123.5 123t173.5 43q54 0 97.5 -8t74.5 -22q5 -23 5 -57q0 -22 -2.5 -51.5t-6.5 -56.5l-19 -1q-4 7 -11 28t-15.5 46t-16 45t-10.5 25q-20 6 -40.5 8.5t-52.5 2.5q-73 0 -133 -38.5t-96 -109t-36 -165.5t33 -165t92 -108 t137 -38q31 0 53 3t49 10v231l-83 24l2 21h232l2 -21l-51 -14q-17 -4 -22 -12t-5 -24v-228q-35 -14 -79 -22.5t-103 -8.5zM432 -164q0 -30 -13 -62.5t-34 -60t-43 -43.5l-12 10q13 18 23.5 48t16.5 59q-19 3 -30 16t-11 32q0 23 15 39.5t37 16.5q24 0 37.5 -14.5t13.5 -40.5 z" />
<glyph unicode="&#x123;" horiz-adv-x="488" d="M191 661q0 31 13 63.5t34 60t44 43.5l11 -10q-12 -19 -23 -48.5t-16 -58.5q18 -4 29.5 -16.5t11.5 -31.5q0 -24 -15.5 -40.5t-37.5 -16.5q-23 0 -37 15t-14 40zM65 317q0 55 23.5 97.5t64.5 67t93 24.5q57 0 98 -30q23 24 54 40t49 16q23 0 23 -32q0 -15 -3 -27 q-3 -14 -23 -14q-19 0 -39 -0.5t-39 -2.5q21 -23 32.5 -54t11.5 -69q0 -55 -22 -96.5t-61.5 -65t-91.5 -23.5q-22 0 -42 5q-9 -11 -14.5 -23.5t-5.5 -26.5q0 -22 12.5 -31.5t39.5 -11.5l89 -8q72 -7 111.5 -42t39.5 -95q0 -49 -30 -88t-83.5 -61t-124.5 -22q-85 0 -138.5 35 t-53.5 93q0 32 19.5 57t51.5 41l11 -9q-17 -29 -17 -57q1 -57 42 -90t110 -33q68 0 110 30.5t42 78.5q0 39 -26.5 62.5t-75.5 28.5l-96 10q-46 5 -68 27.5t-22 54.5q0 51 49 89q-45 18 -72.5 59.5t-27.5 95.5zM333 323q0 73 -24 110t-68 37q-45 0 -72 -37t-27 -102 q0 -68 26 -107t69 -40q46 0 71 35.5t25 103.5z" />
<glyph unicode="&#x124;" horiz-adv-x="765" d="M530 782l-15 -11q-29 20 -63.5 42.5t-70.5 42.5q-26 -18 -64 -42.5t-69 -42.5l-13 13q21 20 44.5 44t43 46t29.5 36l7 5h52q26 -27 58 -62.5t61 -70.5zM215 45l83 -24l-2 -21h-239l-2 21l51 14q18 5 25 12.5t7 24.5v570l-83 23l2 21h239l2 -21l-51 -13q-18 -6 -25 -13.5 t-7 -23.5v-247h335v274l-83 23l2 21h239l2 -21l-51 -13q-18 -6 -24.5 -13.5t-6.5 -23.5v-570l82 -24l-2 -21h-239l-2 21l51 14q18 5 25 12.5t7 24.5v256h-335v-283z" />
<glyph unicode="&#x125;" horiz-adv-x="587" d="M-1 796l-13 13q22 20 45 44t42.5 46t29.5 35l8 5h51q26 -27 58 -62t61 -71l-15 -10q-29 20 -63.5 42.5t-69.5 42.5q-27 -18 -64.5 -42.5t-69.5 -42.5zM181 40l72 -23l-2 -17h-216l-2 17l44 14q16 6 22.5 13.5t6.5 24.5v627l-70 13l-2 14q28 11 67 20.5t70 12.5l10 -9 v-306q76 65 160 65q68 0 104.5 -39t36.5 -112v-315l72 -23l-2 -17h-216l-2 17l44 14q17 6 23 13.5t6 24.5v280q0 108 -96 108q-67 0 -130 -53v-364z" />
<glyph unicode="&#x126;" horiz-adv-x="765" d="M215 368h335v125h-335v-125zM215 45l83 -24l-2 -21h-239l-2 21l51 14q18 5 25 12.5t7 24.5v421h-75v35h75v114l-83 23l2 21h239l2 -21l-51 -13q-18 -6 -25 -13.5t-7 -23.5v-87h335v114l-83 23l2 21h239l2 -21l-51 -13q-18 -6 -24.5 -13.5t-6.5 -23.5v-87h73v-35h-73v-448 l82 -24l-2 -21h-239l-2 21l51 14q18 5 25 12.5t7 24.5v256h-335v-283z" />
<glyph unicode="&#x127;" horiz-adv-x="587" d="M181 40l72 -23l-2 -17h-216l-2 17l44 14q16 6 22.5 13.5t6.5 24.5v505h-105v35h105v87l-70 13l-2 14q28 11 67 20.5t70 12.5l10 -9v-138h194v-35h-194v-133q76 65 160 65q68 0 104.5 -39t36.5 -112v-315l72 -23l-2 -17h-216l-2 17l44 14q17 6 23 13.5t6 24.5v280 q0 108 -96 108q-67 0 -130 -53v-364z" />
<glyph unicode="&#x128;" horiz-adv-x="353" d="M7 774l-15 5q-1 5 -1 8q7 50 27 80.5t57 30.5q22 0 53 -9t64 -22t61 -23t45 -12q7 11 21.5 31t26.5 40l15 -6q1 -6 1 -10q-7 -49 -26 -78.5t-56 -29.5q-22 0 -53 9t-64.5 21.5t-61.5 23t-44 12.5q-6 -6 -22 -28.5t-28 -42.5zM215 45l83 -24l-2 -21h-239l-2 21l51 14 q18 5 25 12.5t7 24.5v570l-83 23l2 21h239l2 -21l-51 -13q-18 -6 -25 -13.5t-7 -23.5v-570z" />
<glyph unicode="&#x129;" horiz-adv-x="294" d="M81 670q-6 -4 -21.5 -19t-26.5 -27l-15 5q-1 4 -1 6q5 38 23 62.5t52 24.5q15 0 36.5 -9t41.5 -19t31 -12q7 7 21.5 20.5t25.5 26.5l15 -6q1 -5 1 -8q-5 -37 -22.5 -60.5t-51.5 -23.5q-14 0 -36 9t-42.5 18.5t-30.5 11.5zM189 40l72 -23l-2 -17h-216l-2 17l44 14 q16 6 22.5 13.5t6.5 24.5v377l-70 13l-2 14q28 11 67 20.5t70 12.5l10 -9v-457z" />
<glyph unicode="&#x12a;" horiz-adv-x="353" d="M38 817v50h279v-50h-279zM215 45l83 -24l-2 -21h-239l-2 21l51 14q18 5 25 12.5t7 24.5v570l-83 23l2 21h239l2 -21l-51 -13q-18 -6 -25 -13.5t-7 -23.5v-570z" />
<glyph unicode="&#x12b;" horiz-adv-x="294" d="M49 641v46h183v-46h-183zM189 40l72 -23l-2 -17h-216l-2 17l44 14q16 6 22.5 13.5t6.5 24.5v377l-70 13l-2 14q28 11 67 20.5t70 12.5l10 -9v-457z" />
<glyph unicode="&#x12c;" horiz-adv-x="353" d="M283 901l5 2l15 -4q-11 -55 -45.5 -85t-84.5 -30q-49 0 -81.5 30.5t-39.5 84.5l18 4q11 -29 39 -45t69 -16q38 0 66 15.5t39 43.5zM215 45l83 -24l-2 -21h-239l-2 21l51 14q18 5 25 12.5t7 24.5v570l-83 23l2 21h239l2 -21l-51 -13q-18 -6 -25 -13.5t-7 -23.5v-570z" />
<glyph unicode="&#x12d;" horiz-adv-x="294" d="M252 727q-6 -62 -37 -98t-78 -36q-45 0 -74 36t-32 98l18 4q7 -36 32 -57t61 -21q35 0 59.5 20.5t31.5 54.5l4 2zM189 40l72 -23l-2 -17h-216l-2 17l44 14q16 6 22.5 13.5t6.5 24.5v377l-70 13l-2 14q28 11 67 20.5t70 12.5l10 -9v-457z" />
<glyph unicode="&#x12e;" horiz-adv-x="353" d="M215 45l83 -24l-2 -21q-113 -58 -113 -126q0 -24 14.5 -37.5t41.5 -13.5q22 0 50 6l4 -10q-17 -20 -42 -31.5t-52 -11.5q-38 0 -60.5 21.5t-22.5 59.5q0 85 132 143h-191l-2 21l51 14q18 5 25 12.5t7 24.5v570l-83 23l2 21h239l2 -21l-51 -13q-18 -6 -25 -13.5t-7 -23.5 v-570z" />
<glyph unicode="&#x12f;" horiz-adv-x="294" d="M193 668q0 -24 -14.5 -43t-40.5 -19q-22 0 -35.5 15.5t-13.5 38.5q0 24 16 42.5t41 18.5q21 0 34 -14.5t13 -38.5zM189 40l72 -23l-2 -17q-113 -58 -113 -126q0 -24 15 -37.5t41 -13.5q23 0 50 6l4 -10q-17 -20 -42 -31.5t-52 -11.5q-38 0 -60.5 21.5t-22.5 59.5 q0 85 132 143h-168l-2 17l44 14q16 6 22.5 13.5t6.5 24.5v377l-70 13l-2 14q28 11 67 20.5t70 12.5l10 -9v-457z" />
<glyph unicode="&#x130;" horiz-adv-x="353" d="M236 844q0 -23 -15.5 -40.5t-43.5 -17.5q-24 0 -38.5 14t-14.5 35q0 23 17.5 40.5t43.5 17.5q23 0 37 -13.5t14 -35.5zM215 45l83 -24l-2 -21h-239l-2 21l51 14q18 5 25 12.5t7 24.5v570l-83 23l2 21h239l2 -21l-51 -13q-18 -6 -25 -13.5t-7 -23.5v-570z" />
<glyph unicode="&#x131;" horiz-adv-x="294" d="M189 40l72 -23l-2 -17h-216l-2 17l44 14q16 6 22.5 13.5t6.5 24.5v377l-70 13l-2 14q28 11 67 20.5t70 12.5l10 -9v-457z" />
<glyph unicode="&#x132;" horiz-adv-x="629" d="M215 45l83 -24l-2 -21h-239l-2 21l51 14q18 5 25 12.5t7 24.5v570l-83 23l2 21h239l2 -21l-51 -13q-18 -6 -25 -13.5t-7 -23.5v-570zM430 642l-83 23l2 21h239l2 -21l-51 -13q-18 -6 -25 -13.5t-7 -23.5v-539q0 -64 -18.5 -108.5t-51 -77t-74.5 -60.5l-17 18 q26 36 45 70.5t29 79t10 110.5v534z" />
<glyph unicode="&#x133;" horiz-adv-x="527" d="M193 668q0 -24 -14.5 -43t-40.5 -19q-22 0 -35.5 15.5t-13.5 38.5q0 24 16 42.5t41 18.5q21 0 34 -14.5t13 -38.5zM437 667q0 -25 -14.5 -43.5t-40.5 -18.5q-22 0 -35.5 15.5t-13.5 38.5q0 24 16.5 42.5t40.5 18.5q21 0 34 -15t13 -38zM189 40l72 -23l-2 -17h-216l-2 17 l44 14q16 6 22.5 13.5t6.5 24.5v377l-70 13l-2 14q28 11 67 20.5t70 12.5l10 -9v-457zM275 -241q26 36 44.5 70.5t28.5 80t10 112.5v424l-69 13l-2 14q28 11 67 20.5t70 12.5l9 -9v-507q0 -64 -18 -108.5t-50.5 -77t-74.5 -60.5z" />
<glyph unicode="&#x134;" horiz-adv-x="338" d="M324 780l-15 -10q-29 20 -63.5 42.5t-70.5 42.5q-27 -18 -64.5 -42.5t-69.5 -42.5l-12 13q21 20 44.5 44t43 46t29.5 35l7 5h52q25 -27 57 -62t62 -71zM138 642l-82 23l2 21h239l2 -21l-51 -13q-19 -6 -25.5 -13.5t-6.5 -23.5v-539q0 -64 -18.5 -108.5t-51 -77 t-74.5 -60.5l-17 18q26 36 44.5 70.5t28.5 79t10 110.5v534z" />
<glyph unicode="&#x135;" horiz-adv-x="275" d="M240 583l-14 -10q-21 25 -44 53t-48 54q-19 -25 -44.5 -55t-46.5 -52l-13 13q14 25 28 54.5t26 57t19 44.5l7 5h56q16 -33 35.5 -76.5t38.5 -87.5zM23 -241q26 36 44.5 70.5t28.5 80t10 112.5v424l-69 13l-2 14q28 11 67 20.5t70 12.5l9 -9v-507q0 -64 -18 -108.5 t-50.5 -77t-74.5 -60.5z" />
<glyph unicode="&#x136;" horiz-adv-x="692" d="M215 45l83 -24l-2 -21h-239l-2 21l51 14q18 5 25 12.5t7 24.5v570l-83 23l2 21h239l2 -21l-51 -13q-18 -6 -25 -13.5t-7 -23.5v-264l121 1l186 291l-85 22l2 21h216l2 -21q-3 -1 -17 -4.5t-27.5 -7.5t-15.5 -5q-15 -5 -25 -14t-22 -26l-161 -236l138 -234 q27 -46 47.5 -69.5t56.5 -38.5l28 -10l-2 -20l-78 -1q-41 0 -62.5 17.5t-40.5 50.5l-141 246h-120v-268zM428 -164q0 -30 -13 -62.5t-34 -60t-43 -43.5l-12 10q13 18 23.5 48t16.5 59q-19 3 -30 16t-11 32q0 23 15 39.5t37 16.5q24 0 37.5 -14.5t13.5 -40.5z" />
<glyph unicode="&#x137;" horiz-adv-x="555" d="M181 40l72 -23l-2 -17h-216l-2 17l44 14q16 6 22.5 13.5t6.5 24.5v628l-70 13l-2 14q28 11 67 20t70 13l10 -9v-468h95l118 176l-78 23l2 17h196l2 -17q-3 -1 -14.5 -5t-22.5 -7.5t-13 -5.5q-14 -5 -23.5 -14t-22.5 -25l-94 -122h1l118 -206q14 -24 27 -39.5t32 -22.5 l33 -12l-2 -20h-67q-35 0 -53.5 15.5t-35.5 46.5l-103 183h-95v-205zM355 -164q0 -30 -13 -62.5t-34 -60t-44 -43.5l-11 10q12 18 23 48t16 59q-18 3 -29.5 16t-11.5 32q0 23 15.5 39.5t37.5 16.5q23 0 37 -14.5t14 -40.5z" />
<glyph unicode="&#x138;" horiz-adv-x="560" d="M189 40l72 -23l-2 -17h-216l-2 17l44 14q16 6 22.5 13.5t6.5 24.5v377l-70 13l-2 14q28 11 67 20.5t70 12.5l10 -9v-239h93l145 202l-73 18l2 18h186l2 -18q-16 -3 -27.5 -7t-25.5 -10q-10 -4 -20.5 -14.5t-18.5 -20.5l-118 -151l103 -147q28 -41 47.5 -64.5t48.5 -35.5 l24 -10l-2 -18l-74 -3q-31 -1 -46.5 13t-32.5 38l-119 173h-94v-181z" />
<glyph unicode="&#x139;" horiz-adv-x="566" d="M271 907l9 1q15 -5 25 -15t10 -23q0 -20 -26 -36t-65 -28.5t-81.5 -20t-75.5 -9.5l-6 17q71 24 124.5 56.5t85.5 57.5zM138 642l-83 23l2 21h239l2 -21l-51 -13q-18 -6 -25 -13.5t-7 -23.5v-579h127q28 0 56.5 2.5t49.5 7.5q6 15 13 34t15 48l15 48h19q6 -39 6 -89 q0 -49 -7 -87h-452l-2 21l51 14q18 5 25 12.5t7 24.5v570z" />
<glyph unicode="&#x13a;" horiz-adv-x="286" d="M215 966l9 2q15 -6 25 -16t10 -23q0 -19 -26 -35.5t-65 -29t-81.5 -20t-75.5 -9.5l-6 17q71 24 124.5 56.5t85.5 57.5zM181 40l72 -23l-2 -17h-216l-2 17l44 14q16 6 22.5 13.5t6.5 24.5v628l-70 13l-2 14q28 11 67 20t70 13l10 -9v-708z" />
<glyph unicode="&#x13b;" horiz-adv-x="566" d="M138 642l-83 23l2 21h239l2 -21l-51 -13q-18 -6 -25 -13.5t-7 -23.5v-579h127q28 0 56.5 2.5t49.5 7.5q6 15 13 34t15 48l15 48h19q6 -39 6 -89q0 -49 -7 -87h-452l-2 21l51 14q18 5 25 12.5t7 24.5v570zM358 -164q0 -30 -13 -62.5t-34 -60t-43 -43.5l-12 10 q13 18 23.5 48t16.5 59q-19 3 -30 16t-11 32q0 23 15 39.5t37 16.5q24 0 37.5 -14.5t13.5 -40.5z" />
<glyph unicode="&#x13c;" horiz-adv-x="286" d="M181 40l72 -23l-2 -17h-216l-2 17l44 14q16 6 22.5 13.5t6.5 24.5v628l-70 13l-2 14q28 11 67 20t70 13l10 -9v-708zM192 -164q0 -30 -13.5 -62.5t-34 -60t-43.5 -43.5l-11 10q12 18 23 48t16 59q-18 3 -29.5 16t-11.5 32q0 23 15.5 39.5t37.5 16.5q23 0 37 -14.5 t14 -40.5z" />
<glyph unicode="&#x13d;" horiz-adv-x="570" d="M520 665q0 -28 -12.5 -58.5t-31.5 -56.5t-40 -41l-11 8q11 18 21.5 46.5t15.5 55.5q-17 3 -27.5 15t-10.5 29q0 22 14 37t35 15q22 0 34.5 -13.5t12.5 -36.5zM138 642l-83 23l2 21h239l2 -21l-51 -13q-18 -6 -25 -13.5t-7 -23.5v-579h127q28 0 56.5 2.5t49.5 7.5 q6 15 13 34t15 48l15 48h19q6 -39 6 -89q0 -49 -7 -87h-452l-2 21l51 14q18 5 25 12.5t7 24.5v570z" />
<glyph unicode="&#x13e;" horiz-adv-x="426" d="M181 40l72 -23l-2 -17h-216l-2 17l44 14q16 6 22.5 13.5t6.5 24.5v628l-70 13l-2 14q28 11 67 20t70 13l10 -9v-708zM376 706q0 -28 -12 -58.5t-31.5 -56.5t-40.5 -41l-11 9q12 18 22 46t15 55q-17 3 -27.5 15t-10.5 30q0 21 14.5 36t34.5 15q22 0 34.5 -13.5t12.5 -36.5 z" />
<glyph unicode="&#x13f;" horiz-adv-x="566" d="M138 642l-83 23l2 21h239l2 -21l-51 -13q-18 -6 -25 -13.5t-7 -23.5v-579h127q28 0 56.5 2.5t49.5 7.5q6 15 13 34t15 48l15 48h19q6 -39 6 -89q0 -49 -7 -87h-452l-2 21l51 14q18 5 25 12.5t7 24.5v570zM506 386q0 -25 -14.5 -43.5t-40.5 -18.5q-22 0 -35.5 15.5 t-13.5 38.5q0 24 16.5 42.5t40.5 18.5q21 0 34 -15t13 -38z" />
<glyph unicode="&#x140;" horiz-adv-x="359" d="M181 40l72 -23l-2 -17h-216l-2 17l44 14q16 6 22.5 13.5t6.5 24.5v628l-70 13l-2 14q28 11 67 20t70 13l10 -9v-708zM365 409q0 -25 -14.5 -44t-40.5 -19q-22 0 -35.5 16t-13.5 38q0 24 16.5 43t40.5 19q21 0 34 -15t13 -38z" />
<glyph unicode="&#x141;" horiz-adv-x="566" d="M354 419l-139 -77v-306h127q28 0 56.5 2.5t49.5 7.5q6 15 13 34t15 48l15 48h19q6 -39 6 -89q0 -49 -7 -87h-452l-2 21l51 14q18 5 25 12.5t7 24.5v227l-116 -63l-18 35l134 74v297l-83 23l2 21h239l2 -21l-51 -13q-18 -6 -25 -13.5t-7 -23.5v-227l120 67z" />
<glyph unicode="&#x142;" horiz-adv-x="286" d="M181 40l72 -23l-2 -17h-216l-2 17l44 14q16 6 22.5 13.5t6.5 24.5v278l-121 -67l-18 35l139 77v305l-70 13l-2 14q28 11 67 20t70 13l10 -9v-314l117 65l19 -35l-136 -76v-348z" />
<glyph unicode="&#x143;" horiz-adv-x="739" d="M464 906l8 1q15 -5 25.5 -15t10.5 -23q0 -20 -26 -36.5t-65.5 -28.5t-81.5 -19.5t-75 -9.5l-7 17q71 24 124.5 56.5t86.5 57.5zM179 45l102 -24l-2 -21h-222l-2 21l51 14q18 5 25 12.5t7 24.5v552q0 10 -9 17t-21 10l-53 14l2 21h147l372 -575v531l-82 23l2 21h202l2 -21 l-51 -13q-18 -6 -24.5 -13.5t-6.5 -23.5v-615h-57l-382 583v-538z" />
<glyph unicode="&#x144;" horiz-adv-x="595" d="M407 727q0 -20 -26.5 -46t-66.5 -54t-82 -51l-12 13q38 44 71.5 89t50.5 77l6 3h6h6q21 0 34 -8t13 -23zM189 40l72 -23l-2 -17h-216l-2 17l44 14q16 6 22.5 13.5t6.5 24.5v377l-70 13l-2 14q28 11 67 20.5t70 12.5l10 -9v-56q36 31 77 48t83 17q68 0 104.5 -39 t36.5 -112v-315l72 -23l-2 -17h-216l-2 17l44 14q17 6 23 13.5t6 24.5v280q0 108 -96 108q-34 0 -67 -14t-63 -39v-364z" />
<glyph unicode="&#x145;" horiz-adv-x="739" d="M179 45l102 -24l-2 -21h-222l-2 21l51 14q18 5 25 12.5t7 24.5v552q0 10 -9 17t-21 10l-53 14l2 21h147l372 -575v531l-82 23l2 21h202l2 -21l-51 -13q-18 -6 -24.5 -13.5t-6.5 -23.5v-615h-57l-382 583v-538zM429 -164q0 -30 -13 -62.5t-34 -60t-44 -43.5l-11 10 q12 18 23 48t16 59q-18 3 -29.5 16t-11.5 32q0 23 15.5 39.5t37.5 16.5q23 0 37 -14.5t14 -40.5z" />
<glyph unicode="&#x146;" horiz-adv-x="595" d="M189 40l72 -23l-2 -17h-216l-2 17l44 14q16 6 22.5 13.5t6.5 24.5v377l-70 13l-2 14q28 11 67 20.5t70 12.5l10 -9v-56q36 31 77 48t83 17q68 0 104.5 -39t36.5 -112v-315l72 -23l-2 -17h-216l-2 17l44 14q17 6 23 13.5t6 24.5v280q0 108 -96 108q-34 0 -67 -14t-63 -39 v-364zM347 -164q0 -30 -13 -62.5t-34 -60t-43 -43.5l-12 10q13 18 23.5 48t16.5 59q-19 3 -30 16t-11 32q0 23 15 39.5t37 16.5q24 0 37.5 -14.5t13.5 -40.5z" />
<glyph unicode="&#x147;" horiz-adv-x="739" d="M407 775l-7 -5h-52q-26 27 -57.5 62.5t-61.5 70.5l15 10q29 -20 63.5 -42.5t70.5 -42.5q26 19 64 43t70 42l12 -12q-21 -21 -44.5 -45t-43 -45.5t-29.5 -35.5zM179 45l102 -24l-2 -21h-222l-2 21l51 14q18 5 25 12.5t7 24.5v552q0 10 -9 17t-21 10l-53 14l2 21h147 l372 -575v531l-82 23l2 21h202l2 -21l-51 -13q-18 -6 -24.5 -13.5t-6.5 -23.5v-615h-57l-382 583v-538z" />
<glyph unicode="&#x148;" horiz-adv-x="595" d="M327 588l-7 -5h-55q-23 32 -52 75t-55 87l14 10q27 -26 59 -55t65 -55q25 24 59.5 55.5t64.5 54.5l13 -12q-20 -25 -41 -55t-38.5 -56.5t-26.5 -43.5zM189 40l72 -23l-2 -17h-216l-2 17l44 14q16 6 22.5 13.5t6.5 24.5v377l-70 13l-2 14q28 11 67 20.5t70 12.5l10 -9v-56 q36 31 77 48t83 17q68 0 104.5 -39t36.5 -112v-315l72 -23l-2 -17h-216l-2 17l44 14q17 6 23 13.5t6 24.5v280q0 108 -96 108q-34 0 -67 -14t-63 -39v-364z" />
<glyph unicode="&#x14a;" horiz-adv-x="739" d="M179 45l102 -24l-2 -21h-222l-2 21l51 14q18 5 25 12.5t7 24.5v552q0 10 -9 17t-21 10l-53 14l2 21h147l372 -575v531l-82 23l2 21h202l2 -21l-51 -13q-18 -6 -24.5 -13.5t-6.5 -23.5v-540q0 -63 -13.5 -104t-40 -73t-67.5 -68l-16 16q31 39 53 72t33 82h-6l-382 583 v-538z" />
<glyph unicode="&#x14b;" horiz-adv-x="584" d="M189 40l72 -23l-2 -17h-216l-2 17l44 14q16 6 22.5 13.5t6.5 24.5v377l-70 13l-2 14q28 11 67 20.5t70 12.5l10 -9v-56q36 31 77 48t83 17q68 0 104.5 -39t36.5 -112v-365q0 -64 -18.5 -108.5t-50.5 -77t-74 -60.5l-15 15q25 36 44 70.5t29 80t10 112.5v327 q0 108 -96 108q-34 0 -67 -14t-63 -39v-364z" />
<glyph unicode="&#x14c;" horiz-adv-x="676" d="M203 817v50h279v-50h-279zM58 344q0 110 37.5 189t102.5 121t146 42q80 0 142 -41.5t97 -119.5t35 -186q0 -110 -35.5 -190.5t-98.5 -124.5t-147 -44t-147 42.5t-97.5 121.5t-34.5 190zM139 344q0 -97 25 -167.5t70 -108.5t106 -38t105 40t68 112t24 167 q0 93 -23.5 162.5t-67 107t-102.5 37.5q-61 0 -107 -38t-72 -108t-26 -166z" />
<glyph unicode="&#x14d;" horiz-adv-x="515" d="M124 643v46h278v-46h-278zM465 250q0 -83 -28 -141t-75.5 -88.5t-106.5 -30.5q-60 0 -106 30.5t-72.5 89t-26.5 141.5q0 82 30 139t78.5 86.5t105.5 29.5q56 0 101.5 -29.5t72.5 -86.5t27 -140zM129 249q0 -102 33 -162t93 -60q62 0 96.5 53t34.5 166q0 105 -32.5 164 t-91.5 59t-96 -53t-37 -167z" />
<glyph unicode="&#x14e;" horiz-adv-x="676" d="M450 901l4 2l15 -4q-10 -55 -45 -85t-84 -30t-82 30.5t-40 84.5l19 4q10 -29 38.5 -45t69.5 -16q37 0 65 15.5t40 43.5zM58 344q0 110 37.5 189t102.5 121t146 42q80 0 142 -41.5t97 -119.5t35 -186q0 -110 -35.5 -190.5t-98.5 -124.5t-147 -44t-147 42.5t-97.5 121.5 t-34.5 190zM139 344q0 -97 25 -167.5t70 -108.5t106 -38t105 40t68 112t24 167q0 93 -23.5 162.5t-67 107t-102.5 37.5q-61 0 -107 -38t-72 -108t-26 -166z" />
<glyph unicode="&#x14f;" horiz-adv-x="515" d="M371 735l4 2l15 -4q-10 -63 -44.5 -99t-85.5 -36q-49 0 -82.5 36t-39.5 100l18 3q10 -37 39 -58.5t71 -21.5q37 0 65 20.5t40 57.5zM465 250q0 -83 -28 -141t-75.5 -88.5t-106.5 -30.5q-60 0 -106 30.5t-72.5 89t-26.5 141.5q0 82 30 139t78.5 86.5t105.5 29.5 q56 0 101.5 -29.5t72.5 -86.5t27 -140zM129 249q0 -102 33 -162t93 -60q62 0 96.5 53t34.5 166q0 105 -32.5 164t-91.5 59t-96 -53t-37 -167z" />
<glyph unicode="&#x150;" horiz-adv-x="676" d="M323 909l9 1q14 -5 23 -15t9 -23q0 -19 -20 -35t-51 -28.5t-64.5 -20.5t-59.5 -10l-7 17q55 24 95.5 56.5t65.5 57.5zM518 909l9 1q14 -5 23 -15t9 -23q0 -19 -20 -35t-51 -28.5t-64.5 -20.5t-59.5 -10l-7 17q55 24 95.5 56.5t65.5 57.5zM58 344q0 110 37.5 189 t102.5 121t146 42q80 0 142 -41.5t97 -119.5t35 -186q0 -110 -35.5 -190.5t-98.5 -124.5t-147 -44t-147 42.5t-97.5 121.5t-34.5 190zM139 344q0 -97 25 -167.5t70 -108.5t106 -38t105 40t68 112t24 167q0 93 -23.5 162.5t-67 107t-102.5 37.5q-61 0 -107 -38t-72 -108 t-26 -166z" />
<glyph unicode="&#x151;" horiz-adv-x="515" d="M290 727q0 -20 -24.5 -46t-62.5 -54t-77 -51l-12 13q38 44 71 89t49 77l7 3h5.5h5.5q38 0 38 -31zM435 727q0 -20 -25 -46t-62.5 -54t-76.5 -51l-12 13q38 44 71.5 89t48.5 77l7 3h5.5h5.5q38 0 38 -31zM465 250q0 -83 -28 -141t-75.5 -88.5t-106.5 -30.5 q-60 0 -106 30.5t-72.5 89t-26.5 141.5q0 82 30 139t78.5 86.5t105.5 29.5q56 0 101.5 -29.5t72.5 -86.5t27 -140zM129 249q0 -102 33 -162t93 -60q62 0 96.5 53t34.5 166q0 105 -32.5 164t-91.5 59t-96 -53t-37 -167z" />
<glyph unicode="&#x152;" horiz-adv-x="891" d="M139 340q-1 -95 30.5 -165t86 -108t122.5 -38q41 0 70 13v602q-28 14 -63 14q-72 0 -127.5 -39t-87 -110.5t-31.5 -168.5zM525 361l212 7l-2 -47l-210 5v-290h134q26 0 53.5 1.5t46.5 3.5q2 3 7.5 18.5t11 32t7.5 21.5l23 71h19q6 -40 6 -90q0 -52 -7 -94h-378v1 q-34 -11 -75 -11q-91 0 -162 42t-112.5 120t-41.5 188t44 190t117.5 123t162.5 43q35 0 67 -11v1h368q7 -41 7 -94q0 -25 -1.5 -46.5t-4.5 -42.5h-19l-23 71q-2 4 -7.5 20.5t-11 32.5t-7.5 18q-19 2 -46.5 3.5t-53.5 1.5h-124v-289z" />
<glyph unicode="&#x153;" horiz-adv-x="817" d="M768 84q-25 -42 -68.5 -68t-101.5 -26q-62 0 -108.5 28.5t-71.5 80.5q-53 -108 -173 -109q-57 0 -101 30.5t-69.5 89t-25.5 141.5q0 82 29 139t75.5 86.5t100.5 29.5q57 0 101 -29.5t68 -86.5q28 54 74.5 85t104.5 31q73 0 119 -49.5t46 -135.5q0 -14 -0.5 -27.5 t-0.5 -25.5l-11 -12h-291q2 -101 44 -156t116 -55q76 0 131 49zM128 249q0 -102 33 -162t93 -60q62 0 96.5 53t34.5 166q0 105 -32.5 164t-91.5 59t-96 -53t-37 -167zM595 469q-57 0 -92 -51t-39 -131l225 6q1 10 1 19.5v16.5q0 70 -24.5 105t-70.5 35z" />
<glyph unicode="&#x154;" horiz-adv-x="661" d="M398 907l9 1q15 -5 25 -15t10 -23q0 -20 -26 -36t-65 -28.5t-81.5 -20t-75.5 -9.5l-6 17q71 24 124.5 56.5t85.5 57.5zM289 646h-74v-312h74q80 0 125.5 40.5t45.5 118.5q0 72 -45.5 112.5t-125.5 40.5zM215 45l83 -24l-2 -21h-239l-2 21l51 14q18 5 25 12.5t7 24.5v552 q0 10 -4 14.5t-17 7.5l-62 19l2 21h246q68 0 122 -22.5t85.5 -65t31.5 -102.5q0 -71 -39 -116t-93 -65l96 -177q26 -48 47.5 -70t56.5 -38l25 -10l-2 -20l-74 -1q-42 0 -63.5 16.5t-39.5 51.5l-122 231q-11 -1 -20 -2t-14 -1h-85v-250z" />
<glyph unicode="&#x155;" horiz-adv-x="406" d="M349 727q0 -20 -26.5 -46t-66.5 -54t-82 -51l-12 13q38 44 71.5 89t50.5 77l6 3h6h6q21 0 34 -8t13 -23zM189 40l92 -23l-2 -17h-236l-2 17l44 14q16 6 22.5 13.5t6.5 24.5v377l-70 13l-2 14q28 11 67 20.5t70 12.5l10 -9v-74q31 40 64.5 61.5t66.5 21.5q32 0 50 -16 t18 -38q0 -20 -9.5 -33t-17.5 -19q-1 -1 -4 -1t-5 -1q-14 19 -30.5 31.5t-42.5 13.5q-26 0 -51 -21t-39 -41v-341z" />
<glyph unicode="&#x156;" horiz-adv-x="661" d="M289 646h-74v-312h74q80 0 125.5 40.5t45.5 118.5q0 72 -45.5 112.5t-125.5 40.5zM416 -164q0 -30 -13.5 -62.5t-34 -60t-43.5 -43.5l-12 10q13 18 24 48t16 59q-19 3 -30 16t-11 32q0 23 15.5 39.5t37.5 16.5q23 0 37 -14.5t14 -40.5zM215 45l83 -24l-2 -21h-239l-2 21 l51 14q18 5 25 12.5t7 24.5v552q0 10 -4 14.5t-17 7.5l-62 19l2 21h246q68 0 122 -22.5t85.5 -65t31.5 -102.5q0 -71 -39 -116t-93 -65l96 -177q26 -48 47.5 -70t56.5 -38l25 -10l-2 -20l-74 -1q-42 0 -63.5 16.5t-39.5 51.5l-122 231q-11 -1 -20 -2t-14 -1h-85v-250z" />
<glyph unicode="&#x157;" horiz-adv-x="406" d="M189 40l92 -23l-2 -17h-236l-2 17l44 14q16 6 22.5 13.5t6.5 24.5v377l-70 13l-2 14q28 11 67 20.5t70 12.5l10 -9v-74q31 40 64.5 61.5t66.5 21.5q32 0 50 -16t18 -38q0 -20 -9.5 -33t-17.5 -19q-1 -1 -4 -1t-5 -1q-14 19 -30.5 31.5t-42.5 13.5q-26 0 -51 -21t-39 -41 v-341zM205 -164q0 -30 -13.5 -62.5t-34 -60t-43.5 -43.5l-11 10q12 18 23 48t16 59q-19 3 -30 16t-11 32q0 23 15.5 39.5t37.5 16.5q23 0 37 -14.5t14 -40.5z" />
<glyph unicode="&#x158;" horiz-adv-x="661" d="M344 776l-7 -5h-52q-26 27 -57.5 62.5t-61.5 70.5l15 11q29 -20 63.5 -43t70.5 -43q26 19 64 43.5t70 42.5l12 -13q-21 -20 -44.5 -44.5t-43 -46t-29.5 -35.5zM289 646h-74v-312h74q80 0 125.5 40.5t45.5 118.5q0 72 -45.5 112.5t-125.5 40.5zM215 45l83 -24l-2 -21h-239 l-2 21l51 14q18 5 25 12.5t7 24.5v552q0 10 -4 14.5t-17 7.5l-62 19l2 21h246q68 0 122 -22.5t85.5 -65t31.5 -102.5q0 -71 -39 -116t-93 -65l96 -177q26 -48 47.5 -70t56.5 -38l25 -10l-2 -20l-74 -1q-42 0 -63.5 16.5t-39.5 51.5l-122 231q-11 -1 -20 -2t-14 -1h-85v-250z " />
<glyph unicode="&#x159;" horiz-adv-x="406" d="M269 588l-7 -5h-55q-23 32 -52 75t-55 87l14 10q27 -26 59 -55t65 -55q25 24 59.5 55.5t64.5 54.5l13 -12q-20 -25 -41 -55t-38.5 -56.5t-26.5 -43.5zM189 40l92 -23l-2 -17h-236l-2 17l44 14q16 6 22.5 13.5t6.5 24.5v377l-70 13l-2 14q28 11 67 20.5t70 12.5l10 -9v-74 q31 40 64.5 61.5t66.5 21.5q32 0 50 -16t18 -38q0 -20 -9.5 -33t-17.5 -19q-1 -1 -4 -1t-5 -1q-14 19 -30.5 31.5t-42.5 13.5q-26 0 -51 -21t-39 -41v-341z" />
<glyph unicode="&#x15a;" horiz-adv-x="502" d="M362 907l8 1q15 -5 25 -15t10 -23q0 -20 -25.5 -36t-65 -28.5t-82 -20t-75.5 -9.5l-6 17q71 24 124.5 56.5t86.5 57.5zM229 -10q-39 0 -75 5.5t-61 13.5t-31 17q-7 10 -9.5 24t-2.5 36q0 20 4 48t11 49l19 -1q9 -53 18 -79.5t25 -42.5q18 -19 48.5 -25t63.5 -6 q63 0 98.5 35t35.5 83q0 45 -22.5 76t-58.5 55.5t-76 47.5t-75.5 49.5t-58.5 62t-23 86.5q0 55 29.5 93.5t79 58.5t109.5 20q57 0 98 -12t53 -25q5 -6 6.5 -19.5t1.5 -27.5q0 -22 -3.5 -52t-11.5 -56h-19q-8 52 -17.5 79.5t-20.5 40.5q-14 16 -40 25t-56 9q-57 0 -93.5 -33 t-36.5 -87q0 -43 22.5 -74t58.5 -55t76 -46.5t76 -49.5t58.5 -63t22.5 -88q0 -80 -60 -126t-163 -46z" />
<glyph unicode="&#x15b;" horiz-adv-x="424" d="M327 727q0 -20 -26.5 -46t-66.5 -54t-82 -51l-12 13q38 44 71.5 89t50.5 77l6 3h6h6q21 0 34 -8t13 -23zM192 -10q-28 0 -55.5 4t-48.5 10t-27 14q-6 6 -8.5 18t-2.5 35q0 21 3.5 43t11.5 41l15 -1q5 -44 13.5 -67t22.5 -37q22 -23 82 -23q46 0 72.5 22t26.5 59 q0 31 -17.5 52t-45 37t-58 31t-58 33.5t-44.5 45t-17 65.5q0 40 23.5 70.5t63.5 47t89 16.5q40 0 75.5 -8t44.5 -19q8 -7 8 -45q0 -18 -3.5 -43.5t-10.5 -46.5l-15 1q-5 46 -12.5 68t-19.5 33q-13 10 -30.5 16.5t-41.5 6.5q-42 0 -68 -22t-26 -62q0 -31 17 -52t44.5 -37 t58 -31.5t58 -33.5t45 -44t17.5 -63q0 -62 -50.5 -98t-131.5 -36z" />
<glyph unicode="&#x15c;" horiz-adv-x="502" d="M417 782l-14 -11q-30 20 -64.5 42.5t-69.5 42.5q-27 -18 -64.5 -42.5t-69.5 -42.5l-13 13q22 20 45 44t42.5 46t29.5 36l8 5h51q26 -27 58 -62.5t61 -70.5zM229 -10q-39 0 -75 5.5t-61 13.5t-31 17q-7 10 -9.5 24t-2.5 36q0 20 4 48t11 49l19 -1q9 -53 18 -79.5t25 -42.5 q18 -19 48.5 -25t63.5 -6q63 0 98.5 35t35.5 83q0 45 -22.5 76t-58.5 55.5t-76 47.5t-75.5 49.5t-58.5 62t-23 86.5q0 55 29.5 93.5t79 58.5t109.5 20q57 0 98 -12t53 -25q5 -6 6.5 -19.5t1.5 -27.5q0 -22 -3.5 -52t-11.5 -56h-19q-8 52 -17.5 79.5t-20.5 40.5 q-14 16 -40 25t-56 9q-57 0 -93.5 -33t-36.5 -87q0 -43 22.5 -74t58.5 -55t76 -46.5t76 -49.5t58.5 -63t22.5 -88q0 -80 -60 -126t-163 -46z" />
<glyph unicode="&#x15d;" horiz-adv-x="424" d="M356 591l-14 -10q-27 26 -59 55t-65 55q-25 -24 -60 -55.5t-64 -54.5l-13 13q20 25 40.5 54.5t38.5 56t27 43.5l7 5h55q23 -32 51.5 -75t55.5 -87zM192 -10q-28 0 -55.5 4t-48.5 10t-27 14q-6 6 -8.5 18t-2.5 35q0 21 3.5 43t11.5 41l15 -1q5 -44 13.5 -67t22.5 -37 q22 -23 82 -23q46 0 72.5 22t26.5 59q0 31 -17.5 52t-45 37t-58 31t-58 33.5t-44.5 45t-17 65.5q0 40 23.5 70.5t63.5 47t89 16.5q40 0 75.5 -8t44.5 -19q8 -7 8 -45q0 -18 -3.5 -43.5t-10.5 -46.5l-15 1q-5 46 -12.5 68t-19.5 33q-13 10 -30.5 16.5t-41.5 6.5 q-42 0 -68 -22t-26 -62q0 -31 17 -52t44.5 -37t58 -31.5t58 -33.5t45 -44t17.5 -63q0 -62 -50.5 -98t-131.5 -36z" />
<glyph unicode="&#x15e;" horiz-adv-x="502" d="M218 -99l-4 6l14 83q-39 0 -74.5 5.5t-60.5 13.5t-31 17q-7 10 -9.5 24t-2.5 36q0 20 4 48t11 49l19 -1q9 -53 18 -79.5t25 -42.5q18 -19 48.5 -25t63.5 -6q63 0 98.5 35t35.5 83q0 45 -22.5 76t-58.5 55.5t-76 47.5t-75.5 49.5t-58.5 62t-23 86.5q0 55 29.5 93.5 t79 58.5t109.5 20q57 0 98 -12t53 -25q5 -6 6.5 -19.5t1.5 -27.5q0 -22 -3.5 -52t-11.5 -56h-19q-8 52 -17.5 79.5t-20.5 40.5q-14 16 -40 25t-56 9q-57 0 -93.5 -33t-36.5 -87q0 -43 22.5 -74t58.5 -55t76 -46.5t76 -49.5t58.5 -63t22.5 -88q0 -73 -49.5 -117.5 t-135.5 -52.5l-10 -55q42 -9 65 -28.5t23 -44.5q0 -40 -43.5 -62t-105.5 -26l-4 15q36 10 59 26t23 39q0 14 -13 26t-43 19z" />
<glyph unicode="&#x15f;" horiz-adv-x="424" d="M173 -99l-4 6l14 83q-39 1 -76 9t-46 19q-6 6 -8.5 18t-2.5 35q0 21 3.5 43t11.5 41l15 -1q5 -44 13.5 -67t22.5 -37q22 -23 82 -23q46 0 72.5 22t26.5 59q0 31 -17.5 52t-45 37t-58 31t-58 33.5t-44.5 45t-17 65.5q0 40 23.5 70.5t63.5 47t89 16.5q40 0 75.5 -8 t44.5 -19q8 -7 8 -45q0 -18 -3.5 -43.5t-10.5 -46.5l-15 1q-5 46 -12.5 68t-19.5 33q-13 10 -30.5 16.5t-41.5 6.5q-42 0 -68 -22t-26 -62q0 -31 17 -52t44.5 -37t58 -31.5t58 -33.5t45 -44t17.5 -63q0 -56 -41.5 -91t-110.5 -42l-10 -54q42 -9 65 -28.5t23 -44.5 q0 -40 -43.5 -62t-105.5 -26l-4 15q35 10 58.5 26t23.5 39q0 14 -13 26t-43 19z" />
<glyph unicode="&#x160;" horiz-adv-x="502" d="M307 776l-7 -5h-51q-26 27 -58 62.5t-61 70.5l14 11q29 -20 63.5 -43t70.5 -43q27 19 64.5 43.5t69.5 42.5l12 -13q-21 -20 -44.5 -44.5t-43 -46t-29.5 -35.5zM229 -10q-39 0 -75 5.5t-61 13.5t-31 17q-7 10 -9.5 24t-2.5 36q0 20 4 48t11 49l19 -1q9 -53 18 -79.5 t25 -42.5q18 -19 48.5 -25t63.5 -6q63 0 98.5 35t35.5 83q0 45 -22.5 76t-58.5 55.5t-76 47.5t-75.5 49.5t-58.5 62t-23 86.5q0 55 29.5 93.5t79 58.5t109.5 20q57 0 98 -12t53 -25q5 -6 6.5 -19.5t1.5 -27.5q0 -22 -3.5 -52t-11.5 -56h-19q-8 52 -17.5 79.5t-20.5 40.5 q-14 16 -40 25t-56 9q-57 0 -93.5 -33t-36.5 -87q0 -43 22.5 -74t58.5 -55t76 -46.5t76 -49.5t58.5 -63t22.5 -88q0 -80 -60 -126t-163 -46z" />
<glyph unicode="&#x161;" horiz-adv-x="424" d="M257 588l-7 -5h-55q-23 32 -52 75t-55 87l14 10q27 -26 59 -55t65 -55q25 24 59.5 55.5t64.5 54.5l13 -12q-20 -25 -41 -55t-38.5 -56.5t-26.5 -43.5zM192 -10q-28 0 -55.5 4t-48.5 10t-27 14q-6 6 -8.5 18t-2.5 35q0 21 3.5 43t11.5 41l15 -1q5 -44 13.5 -67t22.5 -37 q22 -23 82 -23q46 0 72.5 22t26.5 59q0 31 -17.5 52t-45 37t-58 31t-58 33.5t-44.5 45t-17 65.5q0 40 23.5 70.5t63.5 47t89 16.5q40 0 75.5 -8t44.5 -19q8 -7 8 -45q0 -18 -3.5 -43.5t-10.5 -46.5l-15 1q-5 46 -12.5 68t-19.5 33q-13 10 -30.5 16.5t-41.5 6.5 q-42 0 -68 -22t-26 -62q0 -31 17 -52t44.5 -37t58 -31.5t58 -33.5t45 -44t17.5 -63q0 -62 -50.5 -98t-131.5 -36z" />
<glyph unicode="&#x162;" horiz-adv-x="605" d="M268 -99l-4 6l16 93h-97l-2 21l51 14q18 5 25 12.5t7 24.5v577h-60q-28 0 -57 -2.5t-49 -6.5q-6 -16 -12.5 -36t-14.5 -50l-16 -51h-19q-3 22 -4.5 43t-1.5 46q0 53 7 94h531q7 -41 7 -94q0 -25 -1.5 -46t-4.5 -43h-19l-16 51q-8 30 -14.5 50t-12.5 36q-20 4 -49 6.5 t-57 2.5h-59v-604l82 -24l-2 -21h-103l-12 -63q42 -9 65 -28.5t23 -44.5q0 -40 -43.5 -62t-105.5 -26l-4 15q35 10 58.5 26t23.5 39q0 14 -13 26t-43 19z" />
<glyph unicode="&#x163;" horiz-adv-x="408" d="M198 -99l-3 6l14 84q-100 13 -100 147v315h-82l-2 17l84 24l55 146l20 -2v-150h170v-35h-170v-298q0 -55 18 -82.5t59 -27.5q28 0 55 13t53 36l13 -10q-22 -35 -56.5 -61.5t-77.5 -31.5l-10 -54q42 -9 64.5 -28.5t22.5 -44.5q0 -40 -43 -62t-105 -26l-5 15q36 10 59.5 26 t23.5 39q0 14 -13 26t-44 19z" />
<glyph unicode="&#x164;" horiz-adv-x="605" d="M334 777l-8 -5h-51q-26 27 -58 62.5t-61 70.5l14 10q29 -20 64 -42.5t70 -42.5q27 19 64.5 43t69.5 42l13 -12q-22 -21 -45 -45t-42.5 -45.5t-29.5 -35.5zM342 45l82 -24l-2 -21h-239l-2 21l51 14q18 5 25 12.5t7 24.5v577h-60q-28 0 -57 -2.5t-49 -6.5q-6 -16 -12.5 -36 t-14.5 -50l-16 -51h-19q-3 22 -4.5 43t-1.5 46q0 53 7 94h531q7 -41 7 -94q0 -25 -1.5 -46t-4.5 -43h-19l-16 51q-8 30 -14.5 50t-12.5 36q-20 4 -49 6.5t-57 2.5h-59v-604z" />
<glyph unicode="&#x165;" horiz-adv-x="384" d="M401 699q0 -29 -12.5 -59.5t-32 -56.5t-40.5 -41l-11 9q12 18 22.5 46.5t14.5 55.5q-17 3 -27.5 14.5t-10.5 29.5q0 22 14.5 37t34.5 15q22 0 35 -13.5t13 -36.5zM382 84q-24 -39 -63.5 -66.5t-88.5 -27.5q-59 0 -90 37.5t-31 110.5v315h-82l-2 17l84 24l55 146l20 -2 v-150h170v-35h-170v-298q0 -55 18 -82.5t59 -27.5q28 0 55 13t53 36z" />
<glyph unicode="&#x166;" horiz-adv-x="605" d="M342 45l82 -24l-2 -21h-239l-2 21l51 14q18 5 25 12.5t7 24.5v259h-165v35h165v283h-60q-28 0 -57 -2.5t-49 -6.5q-6 -16 -12.5 -36t-14.5 -50l-16 -51h-19q-3 22 -4.5 43t-1.5 46q0 53 7 94h531q7 -41 7 -94q0 -25 -1.5 -46t-4.5 -43h-19l-16 51q-8 30 -14.5 50 t-12.5 36q-20 4 -49 6.5t-57 2.5h-59v-283h158v-35h-158v-286z" />
<glyph unicode="&#x167;" horiz-adv-x="408" d="M353 314h-169v-159q0 -55 18 -82.5t59 -27.5q28 0 55 13t53 36l13 -10q-24 -39 -63.5 -66.5t-88.5 -27.5q-59 0 -90 37.5t-31 110.5v176h-82v35h82v104h-82l-2 17l84 24l55 146l20 -2v-150h170v-35h-170v-104h169v-35z" />
<glyph unicode="&#x168;" horiz-adv-x="663" d="M178 774l-15 5q-1 5 -1 8q7 50 27 80.5t57 30.5q22 0 53 -9t64 -22t61 -23t45 -12q7 11 21.5 31t26.5 40l15 -6q1 -6 1 -10q-7 -49 -26 -78.5t-56 -29.5q-22 0 -53 9t-64.5 21.5t-61.5 23t-44 12.5q-6 -6 -22 -28.5t-28 -42.5zM101 226v416l-83 23l2 21h239l2 -21 l-51 -13q-18 -6 -25 -13.5t-7 -23.5v-392q0 -94 49.5 -143t121.5 -49t121.5 48t49.5 144v419l-83 23l2 21h202l2 -21l-82 -23v-416q0 -118 -64 -177t-165 -59q-66 0 -118.5 26.5t-82.5 79t-30 130.5z" />
<glyph unicode="&#x169;" horiz-adv-x="606" d="M150 609l-16 5v7q6 48 25.5 77t56.5 29q19 0 45.5 -8t54.5 -18.5l52 -19.5t38 -11l22 27.5t25 36.5l16 -6v-9q-6 -46 -25 -74.5t-56 -28.5q-19 0 -46 8t-55 18.5l-52 19.5t-38 11q-6 -6 -21.5 -26t-25.5 -38zM109 156v290l-69 13l-2 14q28 11 67 20.5t70 12.5l9 -9v-335 q0 -123 108 -123q33 0 65 15t57 41v351l-69 13l-2 14q28 11 67 20.5t70 12.5l9 -9v-383q0 -40 11.5 -58.5t37.5 -18.5q19 0 43 7l4 -11q-35 -43 -92 -43q-32 0 -51.5 17.5t-25.5 48.5q-28 -29 -68.5 -47.5t-83.5 -18.5q-74 0 -114.5 43t-40.5 123z" />
<glyph unicode="&#x16a;" horiz-adv-x="663" d="M210 817v50h279v-50h-279zM101 226v416l-83 23l2 21h239l2 -21l-51 -13q-18 -6 -25 -13.5t-7 -23.5v-392q0 -94 49.5 -143t121.5 -49t121.5 48t49.5 144v419l-83 23l2 21h202l2 -21l-82 -23v-416q0 -118 -64 -177t-165 -59q-66 0 -118.5 26.5t-82.5 79t-30 130.5z" />
<glyph unicode="&#x16b;" horiz-adv-x="606" d="M162 643v46h278v-46h-278zM109 156v290l-69 13l-2 14q28 11 67 20.5t70 12.5l9 -9v-335q0 -123 108 -123q33 0 65 15t57 41v351l-69 13l-2 14q28 11 67 20.5t70 12.5l9 -9v-383q0 -40 11.5 -58.5t37.5 -18.5q19 0 43 7l4 -11q-35 -43 -92 -43q-32 0 -51.5 17.5 t-25.5 48.5q-28 -29 -68.5 -47.5t-83.5 -18.5q-74 0 -114.5 43t-40.5 123z" />
<glyph unicode="&#x16c;" horiz-adv-x="663" d="M464 901l5 2l15 -4q-11 -55 -45.5 -85t-84.5 -30q-49 0 -81.5 30.5t-39.5 84.5l18 4q11 -29 39 -45t69 -16q38 0 66 15.5t39 43.5zM101 226v416l-83 23l2 21h239l2 -21l-51 -13q-18 -6 -25 -13.5t-7 -23.5v-392q0 -94 49.5 -143t121.5 -49t121.5 48t49.5 144v419l-83 23 l2 21h202l2 -21l-82 -23v-416q0 -118 -64 -177t-165 -59q-66 0 -118.5 26.5t-82.5 79t-30 130.5z" />
<glyph unicode="&#x16d;" horiz-adv-x="606" d="M411 735l4 2l15 -4q-9 -63 -44 -99t-85 -36t-83.5 36t-39.5 100l18 3q11 -37 39.5 -58.5t70.5 -21.5q37 0 65 20.5t40 57.5zM109 156v290l-69 13l-2 14q28 11 67 20.5t70 12.5l9 -9v-335q0 -123 108 -123q33 0 65 15t57 41v351l-69 13l-2 14q28 11 67 20.5t70 12.5l9 -9 v-383q0 -40 11.5 -58.5t37.5 -18.5q19 0 43 7l4 -11q-35 -43 -92 -43q-32 0 -51.5 17.5t-25.5 48.5q-28 -29 -68.5 -47.5t-83.5 -18.5q-74 0 -114.5 43t-40.5 123z" />
<glyph unicode="&#x16e;" horiz-adv-x="663" d="M345 766q-37 0 -60.5 20.5t-23.5 54.5q0 36 25.5 58.5t65.5 22.5q37 0 61 -21t23 -54q-2 -35 -27.5 -58t-63.5 -23zM349 895q-21 0 -33.5 -15.5t-12.5 -37.5t12.5 -35.5t32.5 -13.5t33 15.5t13 39.5q0 20 -13 33.5t-32 13.5zM101 226v416l-83 23l2 21h239l2 -21l-51 -13 q-18 -6 -25 -13.5t-7 -23.5v-392q0 -94 49.5 -143t121.5 -49t121.5 48t49.5 144v419l-83 23l2 21h202l2 -21l-82 -23v-416q0 -118 -64 -177t-165 -59q-66 0 -118.5 26.5t-82.5 79t-30 130.5z" />
<glyph unicode="&#x16f;" horiz-adv-x="606" d="M299 589q-37 0 -60 20.5t-23 54.5q0 36 25.5 58.5t65.5 22.5q37 0 60.5 -21t22.5 -54q-1 -35 -26.5 -58t-64.5 -23zM303 718q-20 0 -33 -15.5t-13 -37.5t13 -35.5t32 -13.5q21 0 33.5 15.5t12.5 39.5q0 20 -12.5 33.5t-32.5 13.5zM109 156v290l-69 13l-2 14 q28 11 67 20.5t70 12.5l9 -9v-335q0 -123 108 -123q33 0 65 15t57 41v351l-69 13l-2 14q28 11 67 20.5t70 12.5l9 -9v-383q0 -40 11.5 -58.5t37.5 -18.5q19 0 43 7l4 -11q-35 -43 -92 -43q-32 0 -51.5 17.5t-25.5 48.5q-28 -29 -68.5 -47.5t-83.5 -18.5q-74 0 -114.5 43 t-40.5 123z" />
<glyph unicode="&#x170;" horiz-adv-x="663" d="M331 909l9 1q14 -5 23.5 -15t9.5 -23q0 -19 -20.5 -35t-51.5 -28.5t-64.5 -20.5t-59.5 -10l-6 17q54 24 94.5 56.5t65.5 57.5zM526 909l9 1q14 -5 23.5 -15t9.5 -23q0 -19 -20.5 -35t-51.5 -28.5t-64.5 -20.5t-59.5 -10l-6 17q54 24 94.5 56.5t65.5 57.5zM101 226v416 l-83 23l2 21h239l2 -21l-51 -13q-18 -6 -25 -13.5t-7 -23.5v-392q0 -94 49.5 -143t121.5 -49t121.5 48t49.5 144v419l-83 23l2 21h202l2 -21l-82 -23v-416q0 -118 -64 -177t-165 -59q-66 0 -118.5 26.5t-82.5 79t-30 130.5z" />
<glyph unicode="&#x171;" horiz-adv-x="606" d="M331 727q0 -20 -25 -46t-63 -54t-77 -51l-12 13q38 44 71 89t50 77l6 3h6h6q38 0 38 -31zM476 727q0 -20 -25 -46t-63 -54t-77 -51l-12 13q38 44 71.5 89t49.5 77l6 3h6h6q38 0 38 -31zM109 156v290l-69 13l-2 14q28 11 67 20.5t70 12.5l9 -9v-335q0 -123 108 -123 q33 0 65 15t57 41v351l-69 13l-2 14q28 11 67 20.5t70 12.5l9 -9v-383q0 -40 11.5 -58.5t37.5 -18.5q19 0 43 7l4 -11q-35 -43 -92 -43q-32 0 -51.5 17.5t-25.5 48.5q-28 -29 -68.5 -47.5t-83.5 -18.5q-74 0 -114.5 43t-40.5 123z" />
<glyph unicode="&#x172;" horiz-adv-x="663" d="M101 226v416l-83 23l2 21h239l2 -21l-51 -13q-18 -6 -25 -13.5t-7 -23.5v-392q0 -94 49.5 -143t121.5 -49t121.5 48t49.5 144v419l-83 23l2 21h202l2 -21l-82 -23v-416q0 -91 -39 -147t-105 -77q-45 -33 -72 -64.5t-27 -63.5q0 -25 15.5 -38t42.5 -13q13 0 23 1.5t25 4.5 l4 -10q-17 -20 -42 -31.5t-52 -11.5q-37 0 -60 20.5t-23 58.5q0 74 108 136q-13 -1 -27 -1q-66 0 -118.5 26.5t-82.5 79t-30 130.5z" />
<glyph unicode="&#x173;" horiz-adv-x="606" d="M109 156v290l-69 13l-2 14q28 11 67 20.5t70 12.5l9 -9v-335q0 -123 108 -123q33 0 65 15t57 41v351l-69 13l-2 14q28 11 67 20.5t70 12.5l9 -9v-383q0 -40 11.5 -58.5t37.5 -18.5q19 0 43 7l4 -11q-7 -8 -15 -15q-25 -23 -53 -44.5t-48 -46t-20 -55.5q0 -24 15.5 -36.5 t42.5 -12.5q13 0 24.5 1.5t23.5 4.5l4 -10q-17 -19 -39.5 -31t-49.5 -12q-39 0 -63 22t-24 59q0 40 30 72.5t81 60.5h-1q-32 0 -51.5 17.5t-25.5 48.5q-28 -29 -68.5 -47.5t-83.5 -18.5q-74 0 -114.5 43t-40.5 123z" />
<glyph unicode="&#x174;" horiz-adv-x="1059" d="M664 782l-15 -11q-29 20 -63.5 42.5t-69.5 42.5q-27 -18 -64.5 -42.5t-69.5 -42.5l-13 13q22 20 45 44t42.5 46t29.5 36l8 5h51q26 -27 58 -62.5t61 -70.5zM371 0h-47l-207 611q-7 19 -15.5 27.5t-24.5 12.5l-51 14l2 21h243l2 -21l-83 -21l178 -545l141 429l-28 83 q-6 19 -13.5 27.5t-23.5 12.5l-51 14l2 21h241l2 -21l-83 -21l177 -544l179 544l-83 21l2 21h201l2 -21q-3 -1 -15.5 -4.5t-25 -6.5t-13.5 -4q-27 -8 -37 -39l-207 -611h-47l-158 468z" />
<glyph unicode="&#x175;" horiz-adv-x="828" d="M568 592l-14 -10q-27 25 -59 54.5t-65 55.5q-25 -24 -59.5 -55.5t-64.5 -54.5l-12 12q19 25 40 54.5t38.5 56.5t26.5 44l7 5h55q23 -32 52 -75t55 -87zM455 496l143 -410l101 371l-75 22l2 17h182l2 -17q-2 0 -12.5 -3.5l-21 -7t-12.5 -5.5q-28 -10 -36 -39l-123 -424 h-54l-138 392l-138 -392h-53l-124 424q-5 17 -13 25.5t-21 13.5q-1 1 -12 5t-21.5 7.5t-12.5 3.5l2 17h221l2 -17l-74 -22l102 -371l141 410h43z" />
<glyph unicode="&#x176;" horiz-adv-x="679" d="M503 782l-15 -11q-29 20 -63.5 42.5t-70.5 42.5q-27 -18 -64.5 -42.5t-69.5 -42.5l-12 13q21 20 44.5 44t43 46t29.5 36l7 5h52q25 -27 57 -62.5t62 -70.5zM378 45l82 -24l-2 -21h-238l-2 21l51 14q18 5 24.5 12.5t6.5 24.5v203l-182 336q-11 20 -19.5 28.5t-23.5 13.5 l-49 12l2 21h244l2 -21l-83 -22l169 -331l169 332l-82 21l2 21h202l2 -21q-3 -1 -15.5 -4.5l-25 -7t-13.5 -4.5q-16 -5 -24 -13.5t-16 -24.5l-181 -338v-228z" />
<glyph unicode="&#x177;" horiz-adv-x="553" d="M428 591l-15 -10q-27 26 -59 55t-65 55q-25 -24 -59.5 -55.5t-64.5 -54.5l-12 13q19 25 40 54.5t38.5 56t26.5 43.5l8 5h54q23 -32 52 -75t56 -87zM28 496h221l2 -17l-74 -22l123 -375l124 375l-75 22l2 17h182l2 -17q-2 -1 -13 -4.5t-21.5 -7t-11.5 -4.5 q-15 -6 -23 -14.5t-13 -24.5l-152 -436q-41 -118 -86 -181t-112 -63q-32 0 -52.5 17t-20.5 43q0 22 14 36l6 2q10 -11 26 -21t38 -10q33 0 62.5 24.5t53.5 66t41 92.5l-14 -7l-151 437q-11 30 -34 39q-1 1 -11.5 4.5t-21.5 7t-13 4.5z" />
<glyph unicode="&#x178;" horiz-adv-x="679" d="M510 847q0 -23 -14 -40.5t-40 -17.5q-22 0 -35 14t-13 33q0 23 16 40t40 17q21 0 33.5 -13t12.5 -33zM308 847q0 -23 -14.5 -40.5t-40.5 -17.5q-22 0 -35 14t-13 33q0 23 16 40t40 17q21 0 34 -13t13 -33zM378 45l82 -24l-2 -21h-238l-2 21l51 14q18 5 24.5 12.5 t6.5 24.5v203l-182 336q-11 20 -19.5 28.5t-23.5 13.5l-49 12l2 21h244l2 -21l-83 -22l169 -331l169 332l-82 21l2 21h202l2 -21q-3 -1 -15.5 -4.5l-25 -7t-13.5 -4.5q-16 -5 -24 -13.5t-16 -24.5l-181 -338v-228z" />
<glyph unicode="&#x179;" horiz-adv-x="611" d="M400 907l9 1q15 -5 25 -15t10 -23q0 -20 -26 -36t-65.5 -28.5t-81.5 -20t-75 -9.5l-7 17q72 24 125 56.5t86 57.5zM536 0h-464l-6 35l379 615h-195q-27 0 -54 -1t-47 -4l-51 -142h-19q-6 39 -6 82q0 56 7 101h447l7 -35l-380 -615h212q26 0 53.5 1.5t46.5 3.5l52 143h18 q6 -39 6 -81q0 -27 -1.5 -54t-4.5 -49z" />
<glyph unicode="&#x17a;" horiz-adv-x="472" d="M356 727q0 -20 -26.5 -46t-67 -54t-82.5 -51l-12 13q38 44 72 89t50 77l7 3h5h6q22 0 35 -8t13 -23zM421 69q-1 -20 -2.5 -36t-4.5 -33h-357l-7 35l289 426h-213l-45 -119h-17q-8 39 -8 88q0 19 1.5 34.5t4.5 31.5h353l7 -35l-290 -426h218l46 120h16q9 -39 9 -86z" />
<glyph unicode="&#x17b;" horiz-adv-x="611" d="M369 844q0 -23 -15 -40.5t-43 -17.5q-25 0 -39 14t-14 35q0 23 17.5 40.5t43.5 17.5q23 0 36.5 -13.5t13.5 -35.5zM536 0h-464l-6 35l379 615h-195q-27 0 -54 -1t-47 -4l-51 -142h-19q-6 39 -6 82q0 56 7 101h447l7 -35l-380 -615h212q26 0 53.5 1.5t46.5 3.5l52 143h18 q6 -39 6 -81q0 -27 -1.5 -54t-4.5 -49z" />
<glyph unicode="&#x17c;" horiz-adv-x="472" d="M296 668q0 -24 -14.5 -43t-40.5 -19q-22 0 -35.5 15.5t-13.5 38.5q0 24 16 42.5t41 18.5q21 0 34 -14.5t13 -38.5zM421 69q-1 -20 -2.5 -36t-4.5 -33h-357l-7 35l289 426h-213l-45 -119h-17q-8 39 -8 88q0 19 1.5 34.5t4.5 31.5h353l7 -35l-290 -426h218l46 120h16 q9 -39 9 -86z" />
<glyph unicode="&#x17d;" horiz-adv-x="611" d="M343 776l-7 -5h-51q-26 27 -58 62.5t-61 70.5l14 11q29 -20 63.5 -43t70.5 -43q27 19 64.5 43.5t69.5 42.5l12 -13q-21 -20 -44.5 -44.5t-43 -46t-29.5 -35.5zM536 0h-464l-6 35l379 615h-195q-27 0 -54 -1t-47 -4l-51 -142h-19q-6 39 -6 82q0 56 7 101h447l7 -35 l-380 -615h212q26 0 53.5 1.5t46.5 3.5l52 143h18q6 -39 6 -81q0 -27 -1.5 -54t-4.5 -49z" />
<glyph unicode="&#x17e;" horiz-adv-x="472" d="M276 588l-8 -5h-54q-24 32 -52.5 75t-55.5 87l15 10q27 -26 59 -55t64 -55q25 24 60 55.5t65 54.5l12 -12q-19 -25 -40 -55t-38.5 -56.5t-26.5 -43.5zM421 69q-1 -20 -2.5 -36t-4.5 -33h-357l-7 35l289 426h-213l-45 -119h-17q-8 39 -8 88q0 19 1.5 34.5t4.5 31.5h353 l7 -35l-290 -426h218l46 120h16q9 -39 9 -86z" />
<glyph unicode="&#x18f;" horiz-adv-x="636" d="M311 -10q-70 0 -123.5 32.5t-84 93t-30.5 144.5q0 34 3 64l12 13h416v2q0 152 -49 235t-140 83q-44 0 -80 -20.5t-57.5 -56t-21.5 -80.5q0 -10 1.5 -20t6.5 -21q-19 -11 -42 -11q-17 0 -29.5 12t-12.5 34q0 54 33.5 100t88 74t118.5 28q81 0 140.5 -42t92.5 -119.5 t33 -181.5q0 -110 -35 -191.5t-97 -126.5t-143 -45zM155 252q0 -108 42 -164.5t120 -56.5q54 0 94 33.5t63.5 95t28.5 142.5l-348 -8v-23v-19z" />
<glyph unicode="&#x192;" horiz-adv-x="577" d="M87 297l5 43h119l13 109q9 82 39.5 137t75 83t96.5 28q38 0 65.5 -14.5t43 -36.5t15.5 -46q0 -22 -13 -34t-27 -16q-16 52 -40.5 81t-59.5 29q-49 0 -76.5 -53.5t-41.5 -148.5l-17 -118h180l-5 -43h-181l-29 -201q-10 -69 -38.5 -121.5t-69.5 -82t-89 -29.5 q-37 0 -59.5 18.5t-22.5 45.5q0 15 8 26.5t19 18.5q16 -25 38.5 -46.5t50.5 -21.5q40 0 62.5 51t32.5 132l25 210h-119z" />
<glyph unicode="&#x19d;" horiz-adv-x="739" d="M58 -170l-16 16q22 28 39.5 52.5t30 52t19.5 64.5t7 89v520q0 10 -9 17t-21 10l-53 14l2 21h147l372 -575v531l-82 23l2 21h202l2 -21l-51 -13q-18 -6 -24.5 -13.5t-6.5 -23.5v-615h-57l-382 583v-508q0 -63 -13 -104t-40 -73t-68 -68z" />
<glyph unicode="&#x1cd;" horiz-adv-x="712" d="M391 776l-8 -5h-51q-26 27 -58 62.5t-61 70.5l14 11q29 -20 64 -43t70 -43q27 19 64.5 43.5t69.5 42.5l13 -13q-22 -20 -45 -44.5t-42.5 -46t-29.5 -35.5zM333 686h47l216 -611q6 -19 15 -27t24 -13l51 -14l-2 -21h-243l-2 21l83 22l-68 198l-239 -4l-67 -193l83 -23 l-2 -21h-201l-2 21q3 1 15.5 4.5l25 7t13.5 4.5q27 9 37 38zM228 275h215l-108 313z" />
<glyph unicode="&#x1ce;" horiz-adv-x="516" d="M287 588l-8 -5h-54q-24 32 -52.5 75t-55.5 87l15 10q27 -26 59 -55t64 -55q25 24 60 55.5t65 54.5l12 -12q-19 -25 -40 -55t-38.5 -56.5t-26.5 -43.5zM265 507q71 0 109.5 -36.5t38.5 -106.5q0 -20 -0.5 -52.5t-1.5 -70.5t-1.5 -74.5t-0.5 -63.5q0 -35 10 -50.5t38 -15.5 q20 0 42 7l4 -11q-16 -19 -40 -31t-51 -12q-32 0 -53 18.5t-25 49.5q-26 -29 -64.5 -48.5t-84.5 -19.5q-58 0 -92.5 30t-34.5 82q0 48 35.5 85t98 59t143.5 24q1 39 1.5 68.5t0.5 39.5q0 44 -23.5 67.5t-65.5 23.5q-45 0 -74 -28t-29 -63q0 -19 7 -37q-17 -9 -36 -9 q-20 0 -32.5 10.5t-12.5 28.5q0 23 16.5 47t44 44t62.5 32.5t71 12.5zM135 112q0 -38 21.5 -55.5t57.5 -17.5q35 0 67 16.5t53 41.5v67.5t1 74.5q-91 -4 -145.5 -38t-54.5 -89z" />
<glyph unicode="&#x1cf;" horiz-adv-x="353" d="M207 776l-7 -5h-51q-26 27 -58 62.5t-61 70.5l14 11q29 -20 63.5 -43t70.5 -43q27 19 64.5 43.5t69.5 42.5l12 -13q-21 -20 -44.5 -44.5t-43 -46t-29.5 -35.5zM215 45l83 -24l-2 -21h-239l-2 21l51 14q18 5 25 12.5t7 24.5v570l-83 23l2 21h239l2 -21l-51 -13 q-18 -6 -25 -13.5t-7 -23.5v-570z" />
<glyph unicode="&#x1d0;" horiz-adv-x="294" d="M178 576l-7 -5h-56q-16 33 -35.5 76t-38.5 87l14 11q20 -25 43.5 -53t47.5 -54l45 54t47 53l13 -13q-14 -25 -28 -55t-26 -57t-19 -44zM189 40l72 -23l-2 -17h-216l-2 17l44 14q16 6 22.5 13.5t6.5 24.5v377l-70 13l-2 14q28 11 67 20.5t70 12.5l10 -9v-457z" />
<glyph unicode="&#x1d1;" horiz-adv-x="676" d="M374 776l-7 -5h-52q-26 27 -58 62.5t-61 70.5l15 11q29 -20 63.5 -43t69.5 -43q27 19 64.5 43.5t69.5 42.5l13 -13q-21 -20 -44.5 -44.5t-43 -46t-29.5 -35.5zM58 344q0 110 37.5 189t102.5 121t146 42q80 0 142 -41.5t97 -119.5t35 -186q0 -110 -35.5 -190.5 t-98.5 -124.5t-147 -44t-147 42.5t-97.5 121.5t-34.5 190zM139 344q0 -97 25 -167.5t70 -108.5t106 -38t105 40t68 112t24 167q0 93 -23.5 162.5t-67 107t-102.5 37.5q-61 0 -107 -38t-72 -108t-26 -166z" />
<glyph unicode="&#x1d2;" horiz-adv-x="515" d="M295 588l-7 -5h-55q-23 32 -52 75t-55 87l14 10q27 -26 59 -55t65 -55q25 24 59.5 55.5t64.5 54.5l13 -12q-20 -25 -41 -55t-38.5 -56.5t-26.5 -43.5zM465 250q0 -83 -28 -141t-75.5 -88.5t-106.5 -30.5q-60 0 -106 30.5t-72.5 89t-26.5 141.5q0 82 30 139t78.5 86.5 t105.5 29.5q56 0 101.5 -29.5t72.5 -86.5t27 -140zM129 249q0 -102 33 -162t93 -60q62 0 96.5 53t34.5 166q0 105 -32.5 164t-91.5 59t-96 -53t-37 -167z" />
<glyph unicode="&#x1d3;" horiz-adv-x="663" d="M388 776l-7 -5h-51q-26 27 -58 62.5t-61 70.5l14 11q29 -20 63.5 -43t70.5 -43q27 19 64.5 43.5t69.5 42.5l12 -13q-21 -20 -44.5 -44.5t-43 -46t-29.5 -35.5zM101 226v416l-83 23l2 21h239l2 -21l-51 -13q-18 -6 -25 -13.5t-7 -23.5v-392q0 -94 49.5 -143t121.5 -49 t121.5 48t49.5 144v419l-83 23l2 21h202l2 -21l-82 -23v-416q0 -118 -64 -177t-165 -59q-66 0 -118.5 26.5t-82.5 79t-30 130.5z" />
<glyph unicode="&#x1d4;" horiz-adv-x="606" d="M335 588l-7 -5h-54q-24 32 -52.5 75t-55.5 87l15 10q26 -26 58 -55t65 -55q25 24 60 55.5t64 54.5l13 -12q-19 -25 -40 -55t-39 -56.5t-27 -43.5zM109 156v290l-69 13l-2 14q28 11 67 20.5t70 12.5l9 -9v-335q0 -123 108 -123q33 0 65 15t57 41v351l-69 13l-2 14 q28 11 67 20.5t70 12.5l9 -9v-383q0 -40 11.5 -58.5t37.5 -18.5q19 0 43 7l4 -11q-35 -43 -92 -43q-32 0 -51.5 17.5t-25.5 48.5q-28 -29 -68.5 -47.5t-83.5 -18.5q-74 0 -114.5 43t-40.5 123z" />
<glyph unicode="&#x1d5;" horiz-adv-x="663" d="M208 1017v50h279v-50h-279zM501 847q0 -23 -14.5 -40.5t-39.5 -17.5q-22 0 -35 14t-13 33q0 23 15.5 40t39.5 17q21 0 34 -13t13 -33zM298 847q0 -23 -14 -40.5t-40 -17.5q-22 0 -35 14t-13 33q0 23 15.5 40t39.5 17q21 0 34 -13t13 -33zM101 226v416l-83 23l2 21h239 l2 -21l-51 -13q-18 -6 -25 -13.5t-7 -23.5v-392q0 -94 49.5 -143t121.5 -49t121.5 48t49.5 144v419l-83 23l2 21h202l2 -21l-82 -23v-416q0 -118 -64 -177t-165 -59q-66 0 -118.5 26.5t-82.5 79t-30 130.5z" />
<glyph unicode="&#x1d6;" horiz-adv-x="606" d="M162 868v46h279v-46h-279zM451 672q0 -24 -13.5 -42.5t-38.5 -18.5q-20 0 -32.5 15t-12.5 36q0 24 15 42t38 18q19 0 31.5 -14t12.5 -36zM248 672q0 -24 -13.5 -42.5t-37.5 -18.5q-21 0 -33 15t-12 36q0 24 15 42t37 18q20 0 32 -14t12 -36zM109 156v290l-69 13l-2 14 q28 11 67 20.5t70 12.5l9 -9v-335q0 -123 108 -123q33 0 65 15t57 41v351l-69 13l-2 14q28 11 67 20.5t70 12.5l9 -9v-383q0 -40 11.5 -58.5t37.5 -18.5q19 0 43 7l4 -11q-35 -43 -92 -43q-32 0 -51.5 17.5t-25.5 48.5q-28 -29 -68.5 -47.5t-83.5 -18.5q-74 0 -114.5 43 t-40.5 123z" />
<glyph unicode="&#x1d7;" horiz-adv-x="663" d="M436 1110l9 1q15 -5 25 -15.5t10 -23.5q0 -19 -26 -35.5t-65.5 -28.5t-81.5 -20t-75 -9l-7 16q72 25 125 57t86 58zM501 847q0 -23 -14.5 -40.5t-39.5 -17.5q-22 0 -35 14t-13 33q0 23 15.5 40t39.5 17q21 0 34 -13t13 -33zM298 847q0 -23 -14 -40.5t-40 -17.5 q-22 0 -35 14t-13 33q0 23 15.5 40t39.5 17q21 0 34 -13t13 -33zM101 226v416l-83 23l2 21h239l2 -21l-51 -13q-18 -6 -25 -13.5t-7 -23.5v-392q0 -94 49.5 -143t121.5 -49t121.5 48t49.5 144v419l-83 23l2 21h202l2 -21l-82 -23v-416q0 -118 -64 -177t-165 -59 q-66 0 -118.5 26.5t-82.5 79t-30 130.5z" />
<glyph unicode="&#x1d8;" horiz-adv-x="606" d="M414 952q0 -20 -26.5 -46t-67 -54t-82.5 -51l-12 13q38 44 72 89t50 77l7 3h5h6q22 0 35 -8t13 -23zM451 672q0 -24 -13.5 -42.5t-38.5 -18.5q-20 0 -32.5 15t-12.5 36q0 24 15 42t38 18q19 0 31.5 -14t12.5 -36zM248 672q0 -24 -13.5 -42.5t-37.5 -18.5q-21 0 -33 15 t-12 36q0 24 15 42t37 18q20 0 32 -14t12 -36zM109 156v290l-69 13l-2 14q28 11 67 20.5t70 12.5l9 -9v-335q0 -123 108 -123q33 0 65 15t57 41v351l-69 13l-2 14q28 11 67 20.5t70 12.5l9 -9v-383q0 -40 11.5 -58.5t37.5 -18.5q19 0 43 7l4 -11q-35 -43 -92 -43 q-32 0 -51.5 17.5t-25.5 48.5q-28 -29 -68.5 -47.5t-83.5 -18.5q-74 0 -114.5 43t-40.5 123z" />
<glyph unicode="&#x1d9;" horiz-adv-x="663" d="M382 979l-7 -5h-52q-26 27 -58 62t-61 71l15 10q29 -20 63.5 -42.5t69.5 -42.5q27 18 64.5 42.5t69.5 42.5l13 -12q-21 -21 -44.5 -45t-43 -45.5t-29.5 -35.5zM501 847q0 -23 -14.5 -40.5t-39.5 -17.5q-22 0 -35 14t-13 33q0 23 15.5 40t39.5 17q21 0 34 -13t13 -33z M298 847q0 -23 -14 -40.5t-40 -17.5q-22 0 -35 14t-13 33q0 23 15.5 40t39.5 17q21 0 34 -13t13 -33zM101 226v416l-83 23l2 21h239l2 -21l-51 -13q-18 -6 -25 -13.5t-7 -23.5v-392q0 -94 49.5 -143t121.5 -49t121.5 48t49.5 144v419l-83 23l2 21h202l2 -21l-82 -23v-416 q0 -118 -64 -177t-165 -59q-66 0 -118.5 26.5t-82.5 79t-30 130.5z" />
<glyph unicode="&#x1da;" horiz-adv-x="606" d="M337 813l-7 -5h-54q-24 32 -52.5 75t-55.5 87l15 10q26 -26 58 -55t65 -55q25 24 60 55.5t64 54.5l13 -12q-19 -25 -40 -55t-39 -56.5t-27 -43.5zM451 672q0 -24 -13.5 -42.5t-38.5 -18.5q-20 0 -32.5 15t-12.5 36q0 24 15 42t38 18q19 0 31.5 -14t12.5 -36zM248 672 q0 -24 -13.5 -42.5t-37.5 -18.5q-21 0 -33 15t-12 36q0 24 15 42t37 18q20 0 32 -14t12 -36zM109 156v290l-69 13l-2 14q28 11 67 20.5t70 12.5l9 -9v-335q0 -123 108 -123q33 0 65 15t57 41v351l-69 13l-2 14q28 11 67 20.5t70 12.5l9 -9v-383q0 -40 11.5 -58.5t37.5 -18.5 q19 0 43 7l4 -11q-35 -43 -92 -43q-32 0 -51.5 17.5t-25.5 48.5q-28 -29 -68.5 -47.5t-83.5 -18.5q-74 0 -114.5 43t-40.5 123z" />
<glyph unicode="&#x1db;" horiz-adv-x="663" d="M474 996l-7 -17q-33 2 -75 9.5t-81.5 20t-65.5 29t-26 35.5q0 13 10.5 23t25.5 16l8 -2q33 -25 86 -57.5t125 -56.5zM501 847q0 -23 -14.5 -40.5t-39.5 -17.5q-22 0 -35 14t-13 33q0 23 15.5 40t39.5 17q21 0 34 -13t13 -33zM298 847q0 -23 -14 -40.5t-40 -17.5 q-22 0 -35 14t-13 33q0 23 15.5 40t39.5 17q21 0 34 -13t13 -33zM101 226v416l-83 23l2 21h239l2 -21l-51 -13q-18 -6 -25 -13.5t-7 -23.5v-392q0 -94 49.5 -143t121.5 -49t121.5 48t49.5 144v419l-83 23l2 21h202l2 -21l-82 -23v-416q0 -118 -64 -177t-165 -59 q-66 0 -118.5 26.5t-82.5 79t-30 130.5z" />
<glyph unicode="&#x1dc;" horiz-adv-x="606" d="M386 814l-12 -13q-42 23 -82.5 51t-67 54t-26.5 46q0 15 13 23t35 8h5.5h5.5l7 -3q16 -32 50 -77t72 -89zM451 672q0 -24 -13.5 -42.5t-38.5 -18.5q-20 0 -32.5 15t-12.5 36q0 24 15 42t38 18q19 0 31.5 -14t12.5 -36zM248 672q0 -24 -13.5 -42.5t-37.5 -18.5 q-21 0 -33 15t-12 36q0 24 15 42t37 18q20 0 32 -14t12 -36zM109 156v290l-69 13l-2 14q28 11 67 20.5t70 12.5l9 -9v-335q0 -123 108 -123q33 0 65 15t57 41v351l-69 13l-2 14q28 11 67 20.5t70 12.5l9 -9v-383q0 -40 11.5 -58.5t37.5 -18.5q19 0 43 7l4 -11 q-35 -43 -92 -43q-32 0 -51.5 17.5t-25.5 48.5q-28 -29 -68.5 -47.5t-83.5 -18.5q-74 0 -114.5 43t-40.5 123z" />
<glyph unicode="&#x1e6;" horiz-adv-x="699" d="M423 776l-7 -5h-52q-26 27 -58 62.5t-61 70.5l15 11q29 -20 63.5 -43t69.5 -43q27 19 64.5 43.5t69.5 42.5l13 -13q-21 -20 -44.5 -44.5t-43 -46t-29.5 -35.5zM396 -10q-104 0 -180 42t-117 121t-41 188t46 189t123.5 123t173.5 43q54 0 97.5 -8t74.5 -22q5 -23 5 -57 q0 -22 -2.5 -51.5t-6.5 -56.5l-19 -1q-4 7 -11 28t-15.5 46t-16 45t-10.5 25q-20 6 -40.5 8.5t-52.5 2.5q-73 0 -133 -38.5t-96 -109t-36 -165.5t33 -165t92 -108t137 -38q31 0 53 3t49 10v231l-83 24l2 21h232l2 -21l-51 -14q-17 -4 -22 -12t-5 -24v-228q-35 -14 -79 -22.5 t-103 -8.5z" />
<glyph unicode="&#x1e7;" horiz-adv-x="488" d="M276 588l-7 -5h-55q-23 32 -52 75t-55 87l14 10q27 -26 59 -55t65 -55q25 24 59.5 55.5t64.5 54.5l12 -12q-19 -25 -40 -55t-38.5 -56.5t-26.5 -43.5zM65 317q0 55 23.5 97.5t64.5 67t93 24.5q57 0 98 -30q23 24 54 40t49 16q23 0 23 -32q0 -15 -3 -27q-3 -14 -23 -14 q-19 0 -39 -0.5t-39 -2.5q21 -23 32.5 -54t11.5 -69q0 -55 -22 -96.5t-61.5 -65t-91.5 -23.5q-22 0 -42 5q-9 -11 -14.5 -23.5t-5.5 -26.5q0 -22 12.5 -31.5t39.5 -11.5l89 -8q72 -7 111.5 -42t39.5 -95q0 -49 -30 -88t-83.5 -61t-124.5 -22q-85 0 -138.5 35t-53.5 93 q0 32 19.5 57t51.5 41l11 -9q-17 -29 -17 -57q1 -57 42 -90t110 -33q68 0 110 30.5t42 78.5q0 39 -26.5 62.5t-75.5 28.5l-96 10q-46 5 -68 27.5t-22 54.5q0 51 49 89q-45 18 -72.5 59.5t-27.5 95.5zM333 323q0 73 -24 110t-68 37q-45 0 -72 -37t-27 -102q0 -68 26 -107 t69 -40q46 0 71 35.5t25 103.5z" />
<glyph unicode="&#x1ea;" horiz-adv-x="676" d="M58 344q0 110 37.5 189t102.5 121t146 42q80 0 142 -41.5t97 -119.5t35 -187q0 -132 -52 -222t-139 -121q-54 -31 -84 -65.5t-30 -65.5q0 -25 16 -38t42 -13q13 0 23 1.5t25 4.5l4 -10q-17 -20 -42 -31.5t-52 -11.5q-36 0 -59 20.5t-23 58.5t28.5 71.5t83.5 64.5 q-11 -1 -22 -1q-84 0 -147 42.5t-97.5 121.5t-34.5 190zM139 344q0 -97 25 -167.5t70 -108.5t106 -38t105 40t68 112t24 167q0 93 -23.5 162.5t-67 107t-102.5 37.5q-61 0 -107 -38t-72 -108t-26 -166z" />
<glyph unicode="&#x1eb;" horiz-adv-x="515" d="M357 -181q-15 -19 -38 -31t-53 -12q-36 0 -60.5 20t-24.5 57q0 41 31 75t88 67q-22 -5 -45 -5q-60 0 -106 30.5t-72.5 89t-26.5 141.5q0 82 30 139t78.5 86.5t105.5 29.5q56 0 101.5 -29.5t72.5 -86.5t27 -140q0 -66 -18.5 -116.5t-49.5 -83.5q-31 -34 -65.5 -63 t-59.5 -57t-25 -60q0 -24 15.5 -35.5t42.5 -11.5q23 0 48 6zM129 249q0 -102 33 -162t93 -60q62 0 96.5 53t34.5 166q0 105 -32.5 164t-91.5 59t-96 -53t-37 -167z" />
<glyph unicode="&#x1f4;" horiz-adv-x="699" d="M477 907l9 1q15 -5 25 -15t10 -23q0 -20 -26 -36t-65.5 -28.5t-81.5 -20t-75 -9.5l-7 17q72 24 125 56.5t86 57.5zM396 -10q-104 0 -180 42t-117 121t-41 188t46 189t123.5 123t173.5 43q54 0 97.5 -8t74.5 -22q5 -23 5 -57q0 -22 -2.5 -51.5t-6.5 -56.5l-19 -1 q-4 7 -11 28t-15.5 46t-16 45t-10.5 25q-20 6 -40.5 8.5t-52.5 2.5q-73 0 -133 -38.5t-96 -109t-36 -165.5t33 -165t92 -108t137 -38q31 0 53 3t49 10v231l-83 24l2 21h232l2 -21l-51 -14q-17 -4 -22 -12t-5 -24v-228q-35 -14 -79 -22.5t-103 -8.5z" />
<glyph unicode="&#x1f5;" horiz-adv-x="488" d="M356 727q0 -20 -26.5 -46t-67 -54t-82.5 -51l-11 13q37 44 71 89t50 77l7 3h5.5h5.5q22 0 35 -8t13 -23zM65 317q0 55 23.5 97.5t64.5 67t93 24.5q57 0 98 -30q23 24 54 40t49 16q23 0 23 -32q0 -15 -3 -27q-3 -14 -23 -14q-19 0 -39 -0.5t-39 -2.5q21 -23 32.5 -54 t11.5 -69q0 -55 -22 -96.5t-61.5 -65t-91.5 -23.5q-22 0 -42 5q-9 -11 -14.5 -23.5t-5.5 -26.5q0 -22 12.5 -31.5t39.5 -11.5l89 -8q72 -7 111.5 -42t39.5 -95q0 -49 -30 -88t-83.5 -61t-124.5 -22q-85 0 -138.5 35t-53.5 93q0 32 19.5 57t51.5 41l11 -9q-17 -29 -17 -57 q1 -57 42 -90t110 -33q68 0 110 30.5t42 78.5q0 39 -26.5 62.5t-75.5 28.5l-96 10q-46 5 -68 27.5t-22 54.5q0 51 49 89q-45 18 -72.5 59.5t-27.5 95.5zM333 323q0 73 -24 110t-68 37q-45 0 -72 -37t-27 -102q0 -68 26 -107t69 -40q46 0 71 35.5t25 103.5z" />
<glyph unicode="&#x1fa;" horiz-adv-x="712" d="M448 1112l9 1q15 -5 25 -15t10 -23q0 -20 -26 -36t-65 -28.5t-81.5 -20t-75.5 -9.5l-6 17q71 24 124.5 56.5t85.5 57.5zM354 766q-37 0 -60.5 20.5t-23.5 54.5q0 36 25.5 58.5t65.5 22.5q37 0 61 -21t23 -54q-2 -35 -27.5 -58t-63.5 -23zM358 895q-21 0 -33.5 -15.5 t-12.5 -37.5t12.5 -35.5t32.5 -13.5t33 15.5t13 39.5q0 20 -13 33.5t-32 13.5zM333 686h47l216 -611q6 -19 15 -27t24 -13l51 -14l-2 -21h-243l-2 21l83 22l-68 198l-239 -4l-67 -193l83 -23l-2 -21h-201l-2 21q3 1 15.5 4.5l25 7t13.5 4.5q27 9 37 38zM228 275h215 l-108 313z" />
<glyph unicode="&#x1fb;" horiz-adv-x="516" d="M353 952q0 -20 -26.5 -46t-67 -54t-82.5 -51l-12 13q38 44 72 89t50 77l7 3h5h6q22 0 35 -8t13 -23zM251 589q-37 0 -60.5 20.5t-23.5 54.5q0 36 25.5 58.5t65.5 22.5q37 0 61 -21t23 -54q-2 -35 -27.5 -58t-63.5 -23zM255 718q-21 0 -33.5 -15.5t-12.5 -37.5t12.5 -35.5 t32.5 -13.5t33 15.5t13 39.5q0 20 -13 33.5t-32 13.5zM265 507q71 0 109.5 -36.5t38.5 -106.5q0 -20 -0.5 -52.5t-1.5 -70.5t-1.5 -74.5t-0.5 -63.5q0 -35 10 -50.5t38 -15.5q20 0 42 7l4 -11q-16 -19 -40 -31t-51 -12q-32 0 -53 18.5t-25 49.5q-26 -29 -64.5 -48.5 t-84.5 -19.5q-58 0 -92.5 30t-34.5 82q0 48 35.5 85t98 59t143.5 24q1 39 1.5 68.5t0.5 39.5q0 44 -23.5 67.5t-65.5 23.5q-45 0 -74 -28t-29 -63q0 -19 7 -37q-17 -9 -36 -9q-20 0 -32.5 10.5t-12.5 28.5q0 23 16.5 47t44 44t62.5 32.5t71 12.5zM135 112q0 -38 21.5 -55.5 t57.5 -17.5q35 0 67 16.5t53 41.5v67.5t1 74.5q-91 -4 -145.5 -38t-54.5 -89z" />
<glyph unicode="&#x1fc;" horiz-adv-x="896" d="M618 907l9 1q15 -5 25 -15t10 -23q0 -20 -26 -36t-65 -28.5t-81.5 -20t-75.5 -9.5l-6 17q71 24 124.5 56.5t85.5 57.5zM453 650h-97l-99 -290h196v290zM28 0l-2 21q3 1 15.5 4.5l25 7t13.5 4.5q27 9 37 38l200 567l-83 23l2 21h585q7 -41 7 -94q0 -25 -1.5 -46.5 t-4.5 -42.5h-19l-23 71q-2 4 -7.5 20.5t-11 32.5t-7.5 18q-19 2 -46.5 3.5t-53.5 1.5h-124v-289l212 7l-2 -47l-210 5v-290h134q26 0 53.5 1.5t46.5 3.5q2 3 7.5 18.5t11 32t7.5 21.5l23 71h19q6 -40 6 -90q0 -52 -7 -94h-459l-2 21l51 14q18 5 25 12.5t7 24.5v254l-209 -3 l-96 -279l83 -23l-2 -21h-201z" />
<glyph unicode="&#x1fd;" horiz-adv-x="756" d="M511 727q0 -20 -26.5 -46t-67 -54t-82.5 -51l-12 13q38 44 71.5 89t50.5 77l6 3h6h6q21 0 34.5 -8t13.5 -23zM337 378q0 44 -23.5 67.5t-65.5 23.5q-45 0 -74 -28t-29 -63q0 -19 7 -37q-17 -9 -36 -9q-20 0 -32.5 10.5t-12.5 28.5q0 31 27.5 62t71.5 52t92 21 q101 0 132 -76q28 36 67.5 56t86.5 20q73 0 119 -49.5t46 -135.5q0 -14 -0.5 -27.5t-1.5 -25.5l-10 -12h-292q2 -101 44.5 -156t116.5 -55q75 0 131 49l12 -10q-24 -42 -68 -68t-101 -26q-59 0 -103.5 25.5t-71.5 72.5q-32 -40 -78.5 -69t-104.5 -29q-59 0 -93.5 29.5 t-34.5 82.5q0 48 35.5 85t98 59t143.5 24q1 34 1.5 62.5t0.5 45.5zM540 469q-57 0 -91.5 -51t-38.5 -131l225 6q0 10 0.5 19.5t0.5 16.5q0 70 -25 105t-71 35zM135 112q0 -38 21.5 -55.5t58.5 -17.5q39 0 75.5 22.5t63.5 58.5q-20 51 -20 116v3q-90 -4 -144.5 -38t-54.5 -89 z" />
<glyph unicode="&#x1fe;" horiz-adv-x="676" d="M426 907l8 1q15 -5 25 -15t10 -23q0 -20 -25.5 -36t-65 -28.5t-82 -20t-75.5 -9.5l-6 17q71 24 124.5 56.5t86.5 57.5zM58 344q0 110 37.5 189t102.5 121t146 42q116 0 190 -84l52 63l31 -25l-58 -70q28 -44 43.5 -102t15.5 -129q0 -110 -35.5 -190.5t-98.5 -124.5 t-147 -44q-121 0 -195 85l-52 -63l-30 26l57 70q-28 44 -43.5 103.5t-15.5 132.5zM139 344q0 -102 28 -176l325 393q-25 46 -62.5 70.5t-85.5 24.5q-61 0 -107 -38t-72 -108t-26 -166zM537 349q0 99 -27 172l-325 -393q27 -47 66 -72.5t89 -25.5q61 0 105 40t68 112t24 167z " />
<glyph unicode="&#x1ff;" horiz-adv-x="515" d="M370 727q0 -20 -26.5 -46t-66.5 -54t-82 -51l-12 13q38 44 71.5 89t50.5 77l6 3h6h6q21 0 34 -8t13 -23zM465 250q0 -83 -28 -141t-75.5 -88.5t-106.5 -30.5q-92 -1 -148 68l-47 -50l-28 28l53 57q-17 31 -26 70.5t-9 87.5q0 82 30 139t78.5 86.5t105.5 29.5 q88 0 144 -67l45 49l30 -28l-53 -56q17 -30 26 -68.5t9 -85.5zM129 249q0 -55 10 -99l224 240q-33 79 -101 79q-59 0 -96 -53t-37 -167zM386 246q0 56 -10 100l-224 -240q16 -37 42 -58t61 -21q62 0 96.5 53t34.5 166z" />
<glyph unicode="&#x218;" horiz-adv-x="502" d="M229 -10q-39 0 -75 5.5t-61 13.5t-31 17q-7 10 -9.5 24t-2.5 36q0 20 4 48t11 49l19 -1q9 -53 18 -79.5t25 -42.5q18 -19 48.5 -25t63.5 -6q63 0 98.5 35t35.5 83q0 45 -22.5 76t-58.5 55.5t-76 47.5t-75.5 49.5t-58.5 62t-23 86.5q0 55 29.5 93.5t79 58.5t109.5 20 q57 0 98 -12t53 -25q5 -6 6.5 -19.5t1.5 -27.5q0 -22 -3.5 -52t-11.5 -56h-19q-8 52 -17.5 79.5t-20.5 40.5q-14 16 -40 25t-56 9q-57 0 -93.5 -33t-36.5 -87q0 -43 22.5 -74t58.5 -55t76 -46.5t76 -49.5t58.5 -63t22.5 -88q0 -80 -60 -126t-163 -46zM300 -164 q0 -30 -13.5 -62.5t-34 -60t-43.5 -43.5l-11 10q12 18 23 48t16 59q-18 3 -29.5 16t-11.5 32q0 23 15.5 39.5t37.5 16.5q23 0 37 -14.5t14 -40.5z" />
<glyph unicode="&#x219;" horiz-adv-x="424" d="M192 -10q-28 0 -55.5 4t-48.5 10t-27 14q-6 6 -8.5 18t-2.5 35q0 21 3.5 43t11.5 41l15 -1q5 -44 13.5 -67t22.5 -37q22 -23 82 -23q46 0 72.5 22t26.5 59q0 31 -17.5 52t-45 37t-58 31t-58 33.5t-44.5 45t-17 65.5q0 40 23.5 70.5t63.5 47t89 16.5q40 0 75.5 -8 t44.5 -19q8 -7 8 -45q0 -18 -3.5 -43.5t-10.5 -46.5l-15 1q-5 46 -12.5 68t-19.5 33q-13 10 -30.5 16.5t-41.5 6.5q-42 0 -68 -22t-26 -62q0 -31 17 -52t44.5 -37t58 -31.5t58 -33.5t45 -44t17.5 -63q0 -62 -50.5 -98t-131.5 -36zM260 -164q0 -30 -13.5 -62.5t-34 -60 t-43.5 -43.5l-11 10q12 18 23 48t16 59q-19 3 -30 16t-11 32q0 23 15.5 39.5t37.5 16.5q23 0 37 -14.5t14 -40.5z" />
<glyph unicode="&#x21a;" horiz-adv-x="605" d="M342 45l82 -24l-2 -21h-239l-2 21l51 14q18 5 25 12.5t7 24.5v577h-60q-28 0 -57 -2.5t-49 -6.5q-6 -16 -12.5 -36t-14.5 -50l-16 -51h-19q-3 22 -4.5 43t-1.5 46q0 53 7 94h531q7 -41 7 -94q0 -25 -1.5 -46t-4.5 -43h-19l-16 51q-8 30 -14.5 50t-12.5 36q-20 4 -49 6.5 t-57 2.5h-59v-604zM350 -164q0 -30 -13.5 -62.5t-34 -60t-43.5 -43.5l-12 10q13 18 24 48t16 59q-19 3 -30 16t-11 32q0 23 15.5 39.5t37.5 16.5q23 0 37 -14.5t14 -40.5z" />
<glyph unicode="&#x21b;" horiz-adv-x="408" d="M382 84q-24 -39 -63.5 -66.5t-88.5 -27.5q-59 0 -90 37.5t-31 110.5v315h-82l-2 17l84 24l55 146l20 -2v-150h170v-35h-170v-298q0 -55 18 -82.5t59 -27.5q28 0 55 13t53 36zM280 -164q0 -30 -13 -62.5t-34 -60t-43 -43.5l-12 10q13 18 23.5 48t16.5 59q-19 3 -30 16 t-11 32q0 23 15 39.5t37 16.5q24 0 37.5 -14.5t13.5 -40.5z" />
<glyph unicode="&#x232;" horiz-adv-x="679" d="M216 817v50h279v-50h-279zM378 45l82 -24l-2 -21h-238l-2 21l51 14q18 5 24.5 12.5t6.5 24.5v203l-182 336q-11 20 -19.5 28.5t-23.5 13.5l-49 12l2 21h244l2 -21l-83 -22l169 -331l169 332l-82 21l2 21h202l2 -21q-3 -1 -15.5 -4.5l-25 -7t-13.5 -4.5q-16 -5 -24 -13.5 t-16 -24.5l-181 -338v-228z" />
<glyph unicode="&#x233;" horiz-adv-x="553" d="M151 643v46h279v-46h-279zM28 496h221l2 -17l-74 -22l123 -375l124 375l-75 22l2 17h182l2 -17q-2 -1 -13 -4.5t-21.5 -7t-11.5 -4.5q-15 -6 -23 -14.5t-13 -24.5l-152 -436q-41 -118 -86 -181t-112 -63q-32 0 -52.5 17t-20.5 43q0 22 14 36l6 2q10 -11 26 -21t38 -10 q33 0 62.5 24.5t53.5 66t41 92.5l-14 -7l-151 437q-11 30 -34 39q-1 1 -11.5 4.5t-21.5 7t-13 4.5z" />
<glyph unicode="&#x237;" horiz-adv-x="275" d="M23 -241q26 36 44.5 70.5t28.5 80t10 112.5v424l-69 13l-2 14q28 11 67 20.5t70 12.5l9 -9v-507q0 -64 -18 -108.5t-50.5 -77t-74.5 -60.5z" />
<glyph unicode="&#x259;" horiz-adv-x="478" d="M224 -10q-77 0 -125.5 49.5t-48.5 136.5q0 14 0.5 28t1.5 27l10 12h292q-2 108 -35.5 167t-93.5 59q-45 0 -71.5 -25.5t-26.5 -65.5q0 -18 6 -35q-17 -10 -37 -10q-17 0 -28.5 10t-11.5 28q0 35 24 66t63.5 50t86.5 19q61 0 106.5 -30t70.5 -85.5t25 -130.5 q0 -80 -27 -140.5t-74 -95t-107 -34.5zM127 168q0 -71 26.5 -106t75.5 -35q54 0 87 51.5t37 132.5l-225 -5q0 -10 -0.5 -20.5t-0.5 -17.5z" />
<glyph unicode="&#x272;" horiz-adv-x="588" d="M483 40l72 -23l-2 -17h-216l-2 17l44 14q16 6 22.5 13.5t6.5 24.5v280q0 108 -96 108q-34 0 -67 -14t-64 -39v-414q0 -64 -18 -108.5t-50.5 -77t-74.5 -60.5l-15 15q26 36 44.5 70.5t28.5 80t10 112.5v424l-69 13l-2 14q28 11 67 20.5t70 12.5l9 -9v-56q37 31 78 48 t83 17q68 0 104.5 -39t36.5 -112v-315z" />
<glyph unicode="&#x2c6;" horiz-adv-x="458" d="M366 591l-14 -10q-27 26 -59 55t-65 55q-25 -24 -59.5 -55.5t-64.5 -54.5l-12 13q19 25 40 54.5t38.5 56t26.5 43.5l7 5h55q23 -32 52 -75t55 -87z" />
<glyph unicode="&#x2c7;" horiz-adv-x="458" d="M261 588l-7 -5h-55q-23 32 -52 75t-55 87l14 10q27 -26 59 -55t65 -55q25 24 59.5 55.5t64.5 54.5l12 -12q-19 -25 -40 -55t-38.5 -56.5t-26.5 -43.5z" />
<glyph unicode="&#x2d8;" horiz-adv-x="436" d="M325 735l4 2l15 -4q-10 -63 -44.5 -99t-85.5 -36q-49 0 -82.5 36t-39.5 100l18 3q10 -37 39 -58.5t71 -21.5q37 0 65 20.5t40 57.5z" />
<glyph unicode="&#x2d9;" horiz-adv-x="287" d="M195 668q0 -25 -14.5 -43.5t-40.5 -18.5q-22 0 -35 15.5t-13 38.5q0 24 16 42.5t40 18.5q21 0 34 -15t13 -38z" />
<glyph unicode="&#x2da;" horiz-adv-x="357" d="M175 589q-37 0 -60 20.5t-23 54.5q0 36 25.5 58.5t64.5 22.5q37 0 61 -21t23 -54q-1 -35 -27 -58t-64 -23zM179 718q-21 0 -33.5 -15.5t-12.5 -37.5t12.5 -35.5t32.5 -13.5t33 15.5t13 39.5q0 20 -13 33.5t-32 13.5z" />
<glyph unicode="&#x2db;" horiz-adv-x="366" d="M268 -181q-17 -20 -42 -31.5t-52 -11.5q-38 0 -60 21.5t-22 59.5q0 98 171 159l8 -16q-113 -58 -113 -126q0 -24 15 -37.5t41 -13.5q23 0 50 6z" />
<glyph unicode="&#x2dc;" horiz-adv-x="519" d="M108 609l-16 5v7q6 48 25.5 77t56.5 29q19 0 45.5 -8t54.5 -18.5l52 -19.5t38 -11l22 27.5t25 36.5l16 -6v-9q-6 -46 -25 -74.5t-56 -28.5q-19 0 -46 8t-55 18.5l-52 19.5t-38 11q-6 -6 -21.5 -26t-25.5 -38z" />
<glyph unicode="&#x2dd;" horiz-adv-x="504" d="M268 727q0 -20 -25 -46t-63 -54t-77 -51l-11 13q37 44 70 89t50 77l6 3h6h6q38 0 38 -31zM413 727q0 -20 -25 -46t-63 -54t-77 -51l-11 13q37 44 70.5 89t49.5 77l6 3h6h6q38 0 38 -31z" />
<glyph unicode="&#x326;" horiz-adv-x="289" d="M198 -164q0 -30 -13.5 -62.5t-34 -60t-43.5 -43.5l-11 10q12 18 23 48t16 59q-19 3 -30 16t-11 32q0 23 15.5 39.5t37.5 16.5q23 0 37 -14.5t14 -40.5z" />
<glyph unicode="&#x394;" horiz-adv-x="601" d="M277 686h47l251 -669l-2 -17h-545l-2 17zM484 39l-204 549l-204 -549h408z" />
<glyph unicode="&#x3bc;" horiz-adv-x="603" d="M181 -230q0 -18 -22.5 -21t-52.5 -5l-7 7q1 125 2.5 239.5t3 230.5t3.5 248q0 27 16 31q11 2 28 4t31 2l7 -7q-3 -31 -5 -83t-3 -114.5t-1 -125.5q0 -127 109 -127q32 0 64.5 15t57.5 41q-1 37 -1 76.5v62.5q0 59 1 117.5t1 107.5q0 27 16 31q11 2 28 4t31 2l7 -7 q-3 -37 -6 -103.5t-3 -151.5q0 -67 2 -108.5t7.5 -62.5t16 -28.5t28.5 -7.5q10 0 20 2t18 5l4 -11q-16 -19 -41 -31t-51 -12q-34 0 -54.5 21t-22.5 54q-23 -33 -58 -54t-76 -21q-37 0 -65.5 17t-45.5 53l-4 -1l5 -101q2 -30 4.5 -69t5 -72.5t2.5 -46.5z" />
<glyph unicode="&#x3c0;" horiz-adv-x="636" d="M206 47q-9 -32 -19.5 -44.5t-30.5 -12.5q-17 0 -33 6l-8 7q31 75 51 188t30 250h-38h-37q-31 0 -46 -14t-29 -47l-20 2q5 33 11.5 64.5t15.5 58.5q28 3 58 4t61 1q19 0 56.5 -1t83 -3t90.5 -3.5t79 -3t48 -0.5q29 0 40 8t21 28l20 -2q-6 -26 -13.5 -55t-17.5 -53 q-59 4 -112 7q-3 -43 -6.5 -95.5t-3.5 -105.5q0 -100 17.5 -147t59.5 -47q12 0 21 3l21 7l4 -10q-14 -18 -36 -32.5t-50 -14.5q-57 0 -76.5 56t-19.5 151q0 54 3 116.5t8 121.5q-43 2 -82 3t-76 2q-5 -98 -13.5 -178.5t-17.5 -136t-14 -78.5z" />
<glyph unicode="&#x1e0c;" horiz-adv-x="689" d="M289 649h-74v-611h74q127 0 194 81t67 224q0 142 -67 224t-194 82zM402 -162q0 -24 -14.5 -43t-40.5 -19q-22 0 -35.5 15.5t-13.5 38.5q0 24 16.5 42.5t40.5 18.5q21 0 34 -14.5t13 -38.5zM631 343q0 -107 -41 -183.5t-116.5 -118t-180.5 -41.5h-236l-2 21l51 14 q18 5 25 12.5t7 24.5v552q0 10 -4 14.5t-17 7.5l-62 19l2 21h236q105 0 181 -41.5t116.5 -118.5t40.5 -183z" />
<glyph unicode="&#x1e0d;" horiz-adv-x="562" d="M549 33q-14 -18 -37.5 -30.5t-53.5 -12.5q-32 0 -51.5 17.5t-25.5 49.5q-21 -25 -58.5 -46t-85.5 -21q-81 0 -134 63t-53 183q0 85 32.5 145.5t86.5 92.5t118 32q47 0 92 -13v203l-89 13l-2 14q32 12 76 20.5t80 12.5l10 -9v-633q0 -39 10.5 -58t39.5 -19q13 0 22.5 2 t18.5 5zM129 244q0 -100 37.5 -153t95.5 -53q37 0 67.5 18t49.5 40v346q-40 27 -90 27q-69 0 -114.5 -56.5t-45.5 -168.5zM327 -162q0 -24 -14.5 -43t-40.5 -19q-22 0 -35.5 15.5t-13.5 38.5q0 24 16.5 42.5t40.5 18.5q21 0 34 -14.5t13 -38.5z" />
<glyph unicode="&#x1e24;" horiz-adv-x="765" d="M215 45l83 -24l-2 -21h-239l-2 21l51 14q18 5 25 12.5t7 24.5v570l-83 23l2 21h239l2 -21l-51 -13q-18 -6 -25 -13.5t-7 -23.5v-247h335v274l-83 23l2 21h239l2 -21l-51 -13q-18 -6 -24.5 -13.5t-6.5 -23.5v-570l82 -24l-2 -21h-239l-2 21l51 14q18 5 25 12.5t7 24.5v256 h-335v-283zM432 -162q0 -24 -14.5 -43t-40.5 -19q-22 0 -35.5 15.5t-13.5 38.5q0 24 16 42.5t41 18.5q21 0 34 -14.5t13 -38.5z" />
<glyph unicode="&#x1e25;" horiz-adv-x="587" d="M181 40l72 -23l-2 -17h-216l-2 17l44 14q16 6 22.5 13.5t6.5 24.5v627l-70 13l-2 14q28 11 67 20.5t70 12.5l10 -9v-306q76 65 160 65q68 0 104.5 -39t36.5 -112v-315l72 -23l-2 -17h-216l-2 17l44 14q17 6 23 13.5t6 24.5v280q0 108 -96 108q-67 0 -130 -53v-364z M342 -162q0 -24 -14.5 -43t-40.5 -19q-22 0 -35 15.5t-13 38.5q0 24 16 42.5t40 18.5q21 0 34 -14.5t13 -38.5z" />
<glyph unicode="&#x1e44;" horiz-adv-x="739" d="M433 843q0 -24 -15.5 -41.5t-43.5 -17.5q-24 0 -38 14.5t-14 35.5q0 23 17 40.5t43 17.5q24 0 37.5 -14t13.5 -35zM179 45l102 -24l-2 -21h-222l-2 21l51 14q18 5 25 12.5t7 24.5v552q0 10 -9 17t-21 10l-53 14l2 21h147l372 -575v531l-82 23l2 21h202l2 -21l-51 -13 q-18 -6 -24.5 -13.5t-6.5 -23.5v-615h-57l-382 583v-538z" />
<glyph unicode="&#x1e45;" horiz-adv-x="595" d="M347 668q0 -24 -14.5 -43t-40.5 -19q-22 0 -35 15.5t-13 38.5q0 24 16 42.5t40 18.5q21 0 34 -14.5t13 -38.5zM189 40l72 -23l-2 -17h-216l-2 17l44 14q16 6 22.5 13.5t6.5 24.5v377l-70 13l-2 14q28 11 67 20.5t70 12.5l10 -9v-56q36 31 77 48t83 17q68 0 104.5 -39 t36.5 -112v-315l72 -23l-2 -17h-216l-2 17l44 14q17 6 23 13.5t6 24.5v280q0 108 -96 108q-34 0 -67 -14t-63 -39v-364z" />
<glyph unicode="&#x1e5a;" horiz-adv-x="661" d="M289 646h-74v-312h74q80 0 125.5 40.5t45.5 118.5q0 72 -45.5 112.5t-125.5 40.5zM416 -162q0 -24 -14 -43t-40 -19q-23 0 -36 15.5t-13 38.5q0 24 16 42.5t41 18.5q21 0 33.5 -14.5t12.5 -38.5zM215 45l83 -24l-2 -21h-239l-2 21l51 14q18 5 25 12.5t7 24.5v552 q0 10 -4 14.5t-17 7.5l-62 19l2 21h246q68 0 122 -22.5t85.5 -65t31.5 -102.5q0 -71 -39 -116t-93 -65l96 -177q26 -48 47.5 -70t56.5 -38l25 -10l-2 -20l-74 -1q-42 0 -63.5 16.5t-39.5 51.5l-122 231q-11 -1 -20 -2t-14 -1h-85v-250z" />
<glyph unicode="&#x1e5b;" horiz-adv-x="406" d="M189 40l92 -23l-2 -17h-236l-2 17l44 14q16 6 22.5 13.5t6.5 24.5v377l-70 13l-2 14q28 11 67 20.5t70 12.5l10 -9v-74q31 40 64.5 61.5t66.5 21.5q32 0 50 -16t18 -38q0 -20 -9.5 -33t-17.5 -19q-1 -1 -4 -1t-5 -1q-14 19 -30.5 31.5t-42.5 13.5q-26 0 -51 -21t-39 -41 v-341zM205 -162q0 -24 -14.5 -43t-40.5 -19q-22 0 -35.5 15.5t-13.5 38.5q0 24 16 42.5t41 18.5q21 0 34 -14.5t13 -38.5z" />
<glyph unicode="&#x1e62;" horiz-adv-x="502" d="M229 -10q-39 0 -75 5.5t-61 13.5t-31 17q-7 10 -9.5 24t-2.5 36q0 20 4 48t11 49l19 -1q9 -53 18 -79.5t25 -42.5q18 -19 48.5 -25t63.5 -6q63 0 98.5 35t35.5 83q0 45 -22.5 76t-58.5 55.5t-76 47.5t-75.5 49.5t-58.5 62t-23 86.5q0 55 29.5 93.5t79 58.5t109.5 20 q57 0 98 -12t53 -25q5 -6 6.5 -19.5t1.5 -27.5q0 -22 -3.5 -52t-11.5 -56h-19q-8 52 -17.5 79.5t-20.5 40.5q-14 16 -40 25t-56 9q-57 0 -93.5 -33t-36.5 -87q0 -43 22.5 -74t58.5 -55t76 -46.5t76 -49.5t58.5 -63t22.5 -88q0 -80 -60 -126t-163 -46zM301 -162 q0 -24 -14.5 -43t-40.5 -19q-22 0 -35.5 15.5t-13.5 38.5q0 24 16 42.5t41 18.5q21 0 34 -14.5t13 -38.5z" />
<glyph unicode="&#x1e63;" horiz-adv-x="424" d="M192 -10q-28 0 -55.5 4t-48.5 10t-27 14q-6 6 -8.5 18t-2.5 35q0 21 3.5 43t11.5 41l15 -1q5 -44 13.5 -67t22.5 -37q22 -23 82 -23q46 0 72.5 22t26.5 59q0 31 -17.5 52t-45 37t-58 31t-58 33.5t-44.5 45t-17 65.5q0 40 23.5 70.5t63.5 47t89 16.5q40 0 75.5 -8 t44.5 -19q8 -7 8 -45q0 -18 -3.5 -43.5t-10.5 -46.5l-15 1q-5 46 -12.5 68t-19.5 33q-13 10 -30.5 16.5t-41.5 6.5q-42 0 -68 -22t-26 -62q0 -31 17 -52t44.5 -37t58 -31.5t58 -33.5t45 -44t17.5 -63q0 -62 -50.5 -98t-131.5 -36zM260 -162q0 -24 -14 -43t-40 -19 q-23 0 -36 15.5t-13 38.5q0 24 16 42.5t41 18.5q21 0 33.5 -14.5t12.5 -38.5z" />
<glyph unicode="&#x1e6c;" horiz-adv-x="605" d="M342 45l82 -24l-2 -21h-239l-2 21l51 14q18 5 25 12.5t7 24.5v577h-60q-28 0 -57 -2.5t-49 -6.5q-6 -16 -12.5 -36t-14.5 -50l-16 -51h-19q-3 22 -4.5 43t-1.5 46q0 53 7 94h531q7 -41 7 -94q0 -25 -1.5 -46t-4.5 -43h-19l-16 51q-8 30 -14.5 50t-12.5 36q-20 4 -49 6.5 t-57 2.5h-59v-604zM350 -162q0 -24 -14 -43t-40 -19q-23 0 -36 15.5t-13 38.5q0 24 16 42.5t41 18.5q21 0 33.5 -14.5t12.5 -38.5z" />
<glyph unicode="&#x1e6d;" horiz-adv-x="408" d="M382 84q-24 -39 -63.5 -66.5t-88.5 -27.5q-59 0 -90 37.5t-31 110.5v315h-82l-2 17l84 24l55 146l20 -2v-150h170v-35h-170v-298q0 -55 18 -82.5t59 -27.5q28 0 55 13t53 36zM281 -162q0 -24 -14.5 -43t-40.5 -19q-22 0 -35 15.5t-13 38.5q0 24 16 42.5t40 18.5 q21 0 34 -14.5t13 -38.5z" />
<glyph unicode="&#x1e80;" horiz-adv-x="1059" d="M647 794l-6 -17q-33 2 -75.5 9.5t-82 19.5t-65 28.5t-25.5 36.5q0 13 10 23t25 15l8 -1q33 -25 86.5 -57.5t124.5 -56.5zM371 0h-47l-207 611q-7 19 -15.5 27.5t-24.5 12.5l-51 14l2 21h243l2 -21l-83 -21l178 -545l141 429l-28 83q-6 19 -13.5 27.5t-23.5 12.5l-51 14 l2 21h241l2 -21l-83 -21l177 -544l179 544l-83 21l2 21h201l2 -21q-3 -1 -15.5 -4.5t-25 -6.5t-13.5 -4q-27 -8 -37 -39l-207 -611h-47l-158 468z" />
<glyph unicode="&#x1e81;" horiz-adv-x="828" d="M509 590l-12 -13q-42 23 -82.5 50.5t-67 54t-26.5 46.5q0 15 13 23t35 8h6h6l6 -4q17 -31 50.5 -76t71.5 -89zM455 496l143 -410l101 371l-75 22l2 17h182l2 -17q-2 0 -12.5 -3.5l-21 -7t-12.5 -5.5q-28 -10 -36 -39l-123 -424h-54l-138 392l-138 -392h-53l-124 424 q-5 17 -13 25.5t-21 13.5q-1 1 -12 5t-21.5 7.5t-12.5 3.5l2 17h221l2 -17l-74 -22l102 -371l141 410h43z" />
<glyph unicode="&#x1e82;" horiz-adv-x="1059" d="M626 907l9 1q15 -5 25 -15t10 -23q0 -20 -26 -36t-65.5 -28.5t-81.5 -20t-75 -9.5l-7 17q72 24 125 56.5t86 57.5zM371 0h-47l-207 611q-7 19 -15.5 27.5t-24.5 12.5l-51 14l2 21h243l2 -21l-83 -21l178 -545l141 429l-28 83q-6 19 -13.5 27.5t-23.5 12.5l-51 14l2 21 h241l2 -21l-83 -21l177 -544l179 544l-83 21l2 21h201l2 -21q-3 -1 -15.5 -4.5t-25 -6.5t-13.5 -4q-27 -8 -37 -39l-207 -611h-47l-158 468z" />
<glyph unicode="&#x1e83;" horiz-adv-x="828" d="M547 728q0 -20 -26.5 -46.5t-67 -54t-82.5 -50.5l-11 13q37 44 71 89t50 76l7 4h5.5h5.5q22 0 35 -8t13 -23zM455 496l143 -410l101 371l-75 22l2 17h182l2 -17q-2 0 -12.5 -3.5l-21 -7t-12.5 -5.5q-28 -10 -36 -39l-123 -424h-54l-138 392l-138 -392h-53l-124 424 q-5 17 -13 25.5t-21 13.5q-1 1 -12 5t-21.5 7.5t-12.5 3.5l2 17h221l2 -17l-74 -22l102 -371l141 410h43z" />
<glyph unicode="&#x1e84;" horiz-adv-x="1059" d="M673 847q0 -23 -14 -40.5t-40 -17.5q-22 0 -35 14t-13 33q0 23 15.5 40t39.5 17q21 0 34 -13t13 -33zM470 847q0 -23 -14 -40.5t-40 -17.5q-22 0 -35 14t-13 33q0 23 16 40t40 17q21 0 33.5 -13t12.5 -33zM371 0h-47l-207 611q-7 19 -15.5 27.5t-24.5 12.5l-51 14l2 21 h243l2 -21l-83 -21l178 -545l141 429l-28 83q-6 19 -13.5 27.5t-23.5 12.5l-51 14l2 21h241l2 -21l-83 -21l177 -544l179 544l-83 21l2 21h201l2 -21q-3 -1 -15.5 -4.5t-25 -6.5t-13.5 -4q-27 -8 -37 -39l-207 -611h-47l-158 468z" />
<glyph unicode="&#x1e85;" horiz-adv-x="828" d="M581 673q0 -24 -13.5 -42.5t-37.5 -18.5q-21 0 -33 14.5t-12 35.5q0 24 15 42.5t37 18.5q20 0 32 -14t12 -36zM378 673q0 -24 -13.5 -42.5t-37.5 -18.5q-21 0 -33 14.5t-12 35.5q0 24 15 42.5t37 18.5q20 0 32 -14t12 -36zM455 496l143 -410l101 371l-75 22l2 17h182 l2 -17q-2 0 -12.5 -3.5l-21 -7t-12.5 -5.5q-28 -10 -36 -39l-123 -424h-54l-138 392l-138 -392h-53l-124 424q-5 17 -13 25.5t-21 13.5q-1 1 -12 5t-21.5 7.5t-12.5 3.5l2 17h221l2 -17l-74 -22l102 -371l141 410h43z" />
<glyph unicode="&#x1e92;" horiz-adv-x="611" d="M536 0h-464l-6 35l379 615h-195q-27 0 -54 -1t-47 -4l-51 -142h-19q-6 39 -6 82q0 56 7 101h447l7 -35l-380 -615h212q26 0 53.5 1.5t46.5 3.5l52 143h18q6 -39 6 -81q0 -27 -1.5 -54t-4.5 -49zM364 -162q0 -24 -14.5 -43t-40.5 -19q-22 0 -35 15.5t-13 38.5 q0 24 16 42.5t40 18.5q21 0 34 -14.5t13 -38.5z" />
<glyph unicode="&#x1e93;" horiz-adv-x="472" d="M421 69q-1 -20 -2.5 -36t-4.5 -33h-357l-7 35l289 426h-213l-45 -119h-17q-8 39 -8 88q0 19 1.5 34.5t4.5 31.5h353l7 -35l-290 -426h218l46 120h16q9 -39 9 -86zM292 -162q0 -24 -14.5 -43t-40.5 -19q-22 0 -35 15.5t-13 38.5q0 24 16 42.5t40 18.5q21 0 34 -14.5 t13 -38.5z" />
<glyph unicode="&#x1e9e;" horiz-adv-x="718" d="M668 155q0 -74 -53 -119.5t-146 -45.5q-48 0 -87 11.5t-49 24.5q-7 10 -9.5 24t-2.5 36q0 19 4 45.5t12 46.5l18 -1q7 -41 15 -70t23 -46q26 -32 83 -32q53 0 83.5 32t30.5 77q0 54 -31.5 93t-84.5 69.5t-116 58.5l-3 26l167 210q-27 30 -64 47t-82 17q-46 0 -82.5 -22 t-57.5 -59.5t-21 -84.5v-471l-18 -22h-140l-2 21l51 14q18 5 25 12.5t7 24.5v404q0 63 32.5 112.5t89.5 78.5t128 29q130 0 200 -65l4 -24l-165 -205q62 -30 117 -64t89.5 -78.5t34.5 -104.5z" />
<glyph unicode="&#x1ea0;" horiz-adv-x="712" d="M333 686h47l216 -611q6 -19 15 -27t24 -13l51 -14l-2 -21h-243l-2 21l83 22l-68 198l-239 -4l-67 -193l83 -23l-2 -21h-201l-2 21q3 1 15.5 4.5l25 7t13.5 4.5q27 9 37 38zM228 275h215l-108 313zM386 -162q0 -24 -14.5 -43t-40.5 -19q-22 0 -35.5 15.5t-13.5 38.5 q0 24 16 42.5t41 18.5q21 0 34 -14.5t13 -38.5z" />
<glyph unicode="&#x1ea1;" horiz-adv-x="516" d="M265 507q71 0 109.5 -36.5t38.5 -106.5q0 -20 -0.5 -52.5t-1.5 -70.5t-1.5 -74.5t-0.5 -63.5q0 -35 10 -50.5t38 -15.5q20 0 42 7l4 -11q-16 -19 -40 -31t-51 -12q-32 0 -53 18.5t-25 49.5q-26 -29 -64.5 -48.5t-84.5 -19.5q-58 0 -92.5 30t-34.5 82q0 48 35.5 85t98 59 t143.5 24q1 39 1.5 68.5t0.5 39.5q0 44 -23.5 67.5t-65.5 23.5q-45 0 -74 -28t-29 -63q0 -19 7 -37q-17 -9 -36 -9q-20 0 -32.5 10.5t-12.5 28.5q0 23 16.5 47t44 44t62.5 32.5t71 12.5zM135 112q0 -38 21.5 -55.5t57.5 -17.5q35 0 67 16.5t53 41.5v67.5t1 74.5 q-91 -4 -145.5 -38t-54.5 -89zM303 -162q0 -24 -14 -43t-40 -19q-23 0 -36 15.5t-13 38.5q0 24 16 42.5t41 18.5q21 0 33.5 -14.5t12.5 -38.5z" />
<glyph unicode="&#x1eb8;" horiz-adv-x="581" d="M215 361l212 7l-2 -47l-210 5v-290h134q26 0 53.5 1.5t46.5 3.5q2 3 7.5 18.5t11 32t7.5 21.5l23 71h19q6 -40 6 -90q0 -52 -7 -94h-459l-2 21l51 14q18 5 25 12.5t7 24.5v552q0 10 -4 14.5t-17 7.5l-62 19l2 21h449q7 -41 7 -94q0 -25 -1.5 -46.5t-4.5 -42.5h-19l-23 71 q-2 4 -7.5 20.5t-11 32.5t-7.5 18q-19 2 -46.5 3.5t-53.5 1.5h-124v-289zM364 -162q0 -24 -14.5 -43t-40.5 -19q-22 0 -35.5 15.5t-13.5 38.5q0 24 16.5 42.5t40.5 18.5q21 0 34 -14.5t13 -38.5z" />
<glyph unicode="&#x1eb9;" horiz-adv-x="476" d="M433 84q-25 -42 -69.5 -68t-102.5 -26q-64 0 -111.5 30t-73.5 85.5t-26 130.5q0 80 28 141t76.5 95t110.5 34q74 0 120.5 -49.5t46.5 -135.5q0 -14 -0.5 -27.5t-0.5 -25.5l-11 -12h-291q2 -101 44 -156t116 -55q76 0 131 49zM260 469q-57 0 -92 -51t-39 -131l225 6 q1 10 1 19.5v16.5q0 70 -24.5 105t-70.5 35zM296 -162q0 -24 -14 -43t-40 -19q-23 0 -36 15.5t-13 38.5q0 24 16 42.5t41 18.5q21 0 33.5 -14.5t12.5 -38.5z" />
<glyph unicode="&#x1ebc;" horiz-adv-x="581" d="M137 773l-15 6q-1 5 -1 7q7 51 27 81.5t57 30.5q22 0 53 -9.5t64 -22t61 -23t45 -12.5q7 11 21.5 31t26.5 40l15 -6q1 -6 1 -10q-7 -48 -26 -78t-56 -30q-22 0 -53 9t-64.5 21.5t-61.5 23t-44 13.5q-6 -7 -22 -29.5t-28 -42.5zM215 361l212 7l-2 -47l-210 5v-290h134 q26 0 53.5 1.5t46.5 3.5q2 3 7.5 18.5t11 32t7.5 21.5l23 71h19q6 -40 6 -90q0 -52 -7 -94h-459l-2 21l51 14q18 5 25 12.5t7 24.5v552q0 10 -4 14.5t-17 7.5l-62 19l2 21h449q7 -41 7 -94q0 -25 -1.5 -46.5t-4.5 -42.5h-19l-23 71q-2 4 -7.5 20.5t-11 32.5t-7.5 18 q-19 2 -46.5 3.5t-53.5 1.5h-124v-289z" />
<glyph unicode="&#x1ebd;" horiz-adv-x="476" d="M104 609l-15 5q-1 5 -1 7q6 48 25.5 77t56.5 29q19 0 45.5 -8t54.5 -18.5l52 -19.5t39 -11q7 10 21 27.5t26 36.5l15 -6q1 -6 1 -9q-7 -46 -25.5 -74.5t-56.5 -28.5q-18 0 -45 8t-55.5 18.5t-52.5 19.5t-37 11q-6 -6 -21.5 -26t-26.5 -38zM433 84q-25 -42 -69.5 -68 t-102.5 -26q-64 0 -111.5 30t-73.5 85.5t-26 130.5q0 80 28 141t76.5 95t110.5 34q74 0 120.5 -49.5t46.5 -135.5q0 -14 -0.5 -27.5t-0.5 -25.5l-11 -12h-291q2 -101 44 -156t116 -55q76 0 131 49zM260 469q-57 0 -92 -51t-39 -131l225 6q1 10 1 19.5v16.5q0 70 -24.5 105 t-70.5 35z" />
<glyph unicode="&#x1eca;" horiz-adv-x="353" d="M215 45l83 -24l-2 -21h-239l-2 21l51 14q18 5 25 12.5t7 24.5v570l-83 23l2 21h239l2 -21l-51 -13q-18 -6 -25 -13.5t-7 -23.5v-570zM226 -162q0 -24 -14.5 -43t-40.5 -19q-22 0 -35.5 15.5t-13.5 38.5q0 24 16.5 42.5t40.5 18.5q21 0 34 -14.5t13 -38.5z" />
<glyph unicode="&#x1ecb;" horiz-adv-x="294" d="M193 668q0 -24 -14.5 -43t-40.5 -19q-22 0 -35.5 15.5t-13.5 38.5q0 24 16 42.5t41 18.5q21 0 34 -14.5t13 -38.5zM189 40l72 -23l-2 -17h-216l-2 17l44 14q16 6 22.5 13.5t6.5 24.5v377l-70 13l-2 14q28 11 67 20.5t70 12.5l10 -9v-457zM197 -162q0 -25 -14.5 -44 t-40.5 -19q-22 0 -35.5 16t-13.5 38q0 24 16 43t41 19q21 0 34 -15t13 -38z" />
<glyph unicode="&#x1ecc;" horiz-adv-x="676" d="M58 344q0 110 37.5 189t102.5 121t146 42q80 0 142 -41.5t97 -119.5t35 -186q0 -110 -35.5 -190.5t-98.5 -124.5t-147 -44t-147 42.5t-97.5 121.5t-34.5 190zM139 344q0 -97 25 -167.5t70 -108.5t106 -38t105 40t68 112t24 167q0 93 -23.5 162.5t-67 107t-102.5 37.5 q-61 0 -107 -38t-72 -108t-26 -166zM388 -162q0 -24 -14.5 -43t-40.5 -19q-22 0 -35.5 15.5t-13.5 38.5q0 24 16.5 42.5t40.5 18.5q21 0 34 -14.5t13 -38.5z" />
<glyph unicode="&#x1ecd;" horiz-adv-x="515" d="M465 250q0 -83 -28 -141t-75.5 -88.5t-106.5 -30.5q-60 0 -106 30.5t-72.5 89t-26.5 141.5q0 82 30 139t78.5 86.5t105.5 29.5q56 0 101.5 -29.5t72.5 -86.5t27 -140zM129 249q0 -102 33 -162t93 -60q62 0 96.5 53t34.5 166q0 105 -32.5 164t-91.5 59t-96 -53t-37 -167z M312 -162q0 -24 -14 -43t-40 -19q-23 0 -36 15.5t-13 38.5q0 24 16 42.5t41 18.5q21 0 33.5 -14.5t12.5 -38.5z" />
<glyph unicode="&#x1ee4;" horiz-adv-x="663" d="M101 226v416l-83 23l2 21h239l2 -21l-51 -13q-18 -6 -25 -13.5t-7 -23.5v-392q0 -94 49.5 -143t121.5 -49t121.5 48t49.5 144v419l-83 23l2 21h202l2 -21l-82 -23v-416q0 -118 -64 -177t-165 -59q-66 0 -118.5 26.5t-82.5 79t-30 130.5zM386 -162q0 -24 -14.5 -43 t-40.5 -19q-22 0 -35 15.5t-13 38.5q0 24 16 42.5t40 18.5q21 0 34 -14.5t13 -38.5z" />
<glyph unicode="&#x1ee5;" horiz-adv-x="606" d="M109 156v290l-69 13l-2 14q28 11 67 20.5t70 12.5l9 -9v-335q0 -123 108 -123q33 0 65 15t57 41v351l-69 13l-2 14q28 11 67 20.5t70 12.5l9 -9v-383q0 -40 11.5 -58.5t37.5 -18.5q19 0 43 7l4 -11q-35 -43 -92 -43q-32 0 -51.5 17.5t-25.5 48.5q-28 -29 -68.5 -47.5 t-83.5 -18.5q-74 0 -114.5 43t-40.5 123zM362 -162q0 -24 -14.5 -43t-40.5 -19q-22 0 -35.5 15.5t-13.5 38.5q0 24 16.5 42.5t40.5 18.5q21 0 34 -14.5t13 -38.5z" />
<glyph unicode="&#x1ef2;" horiz-adv-x="679" d="M476 794l-7 -17q-33 2 -75.5 9.5t-81.5 19.5t-65 28.5t-26 36.5q0 13 10 23t25 15l9 -1q32 -25 85.5 -57.5t125.5 -56.5zM378 45l82 -24l-2 -21h-238l-2 21l51 14q18 5 24.5 12.5t6.5 24.5v203l-182 336q-11 20 -19.5 28.5t-23.5 13.5l-49 12l2 21h244l2 -21l-83 -22 l169 -331l169 332l-82 21l2 21h202l2 -21q-3 -1 -15.5 -4.5l-25 -7t-13.5 -4.5q-16 -5 -24 -13.5t-16 -24.5l-181 -338v-228z" />
<glyph unicode="&#x1ef3;" horiz-adv-x="553" d="M367 589l-12 -13q-42 23 -82.5 51t-67 54t-26.5 46q0 15 13 23t35 8h6h6l6 -3q17 -32 50.5 -77t71.5 -89zM28 496h221l2 -17l-74 -22l123 -375l124 375l-75 22l2 17h182l2 -17q-2 -1 -13 -4.5t-21.5 -7t-11.5 -4.5q-15 -6 -23 -14.5t-13 -24.5l-152 -436 q-41 -118 -86 -181t-112 -63q-32 0 -52.5 17t-20.5 43q0 22 14 36l6 2q10 -11 26 -21t38 -10q33 0 62.5 24.5t53.5 66t41 92.5l-14 -7l-151 437q-11 30 -34 39q-1 1 -11.5 4.5t-21.5 7t-13 4.5z" />
<glyph unicode="&#x1ef8;" horiz-adv-x="679" d="M178 774l-16 5v8q7 50 26.5 80.5t56.5 30.5q23 0 54 -9t63.5 -22t60.5 -23t45 -12q7 11 21.5 31t26.5 40l16 -6v-10q-6 -49 -25 -78.5t-57 -29.5q-21 0 -52.5 9t-64.5 21.5t-61.5 23t-43.5 12.5q-7 -6 -23 -28.5t-27 -42.5zM378 45l82 -24l-2 -21h-238l-2 21l51 14 q18 5 24.5 12.5t6.5 24.5v203l-182 336q-11 20 -19.5 28.5t-23.5 13.5l-49 12l2 21h244l2 -21l-83 -22l169 -331l169 332l-82 21l2 21h202l2 -21q-3 -1 -15.5 -4.5l-25 -7t-13.5 -4.5q-16 -5 -24 -13.5t-16 -24.5l-181 -338v-228z" />
<glyph unicode="&#x1ef9;" horiz-adv-x="553" d="M137 609l-16 5v7q6 48 25.5 77t56.5 29q19 0 45.5 -8t54.5 -18.5l52 -19.5t38 -11l22 27.5t25 36.5l16 -6v-9q-6 -46 -25 -74.5t-56 -28.5q-19 0 -46 8t-55 18.5l-52 19.5t-38 11q-6 -6 -21.5 -26t-25.5 -38zM28 496h221l2 -17l-74 -22l123 -375l124 375l-75 22l2 17h182 l2 -17q-2 -1 -13 -4.5t-21.5 -7t-11.5 -4.5q-15 -6 -23 -14.5t-13 -24.5l-152 -436q-41 -118 -86 -181t-112 -63q-32 0 -52.5 17t-20.5 43q0 22 14 36l6 2q10 -11 26 -21t38 -10q33 0 62.5 24.5t53.5 66t41 92.5l-14 -7l-151 437q-11 30 -34 39q-1 1 -11.5 4.5t-21.5 7 t-13 4.5z" />
<glyph unicode="&#x2007;" />
<glyph unicode="&#x2013;" horiz-adv-x="541" d="M42 250v39h456v-39h-456z" />
<glyph unicode="&#x2014;" horiz-adv-x="821" d="M42 250v39h737v-39h-737z" />
<glyph unicode="&#x2018;" horiz-adv-x="240" d="M179 746q-19 -29 -36 -72.5t-24 -93.5q27 0 42.5 -15.5t15.5 -39.5q0 -25 -18 -43t-45 -18q-26 0 -41 18t-15 46q0 37 15 79t40 81.5t54 67.5z" />
<glyph unicode="&#x2019;" horiz-adv-x="240" d="M61 474q19 29 35.5 72.5t23.5 93.5q-26 0 -41.5 15.5t-15.5 39.5t18 42.5t45 18.5q26 0 41 -18t15 -46q0 -37 -15.5 -79.5t-40 -81.5t-53.5 -67z" />
<glyph unicode="&#x201a;" horiz-adv-x="240" d="M61 -176q19 30 35.5 73.5t23.5 92.5q-26 0 -41.5 16t-15.5 40t18 42.5t45 18.5q26 0 41 -18t15 -47q0 -37 -15.5 -79t-40 -81t-53.5 -68z" />
<glyph unicode="&#x201c;" horiz-adv-x="425" d="M179 746q-19 -29 -36 -72.5t-24 -93.5q27 0 42.5 -15.5t15.5 -39.5q0 -25 -18 -43t-45 -18q-26 0 -41 18t-15 46q0 37 15 79t40 81.5t54 67.5zM365 746q-20 -29 -36.5 -72.5t-23.5 -93.5q26 0 42 -15.5t16 -39.5q0 -25 -18 -43t-45 -18t-42 18t-15 46q0 37 15.5 79 t40 81.5t53.5 67.5z" />
<glyph unicode="&#x201d;" horiz-adv-x="425" d="M246 474q19 29 36 72.5t24 93.5q-27 0 -42.5 15.5t-15.5 39.5t18 42.5t45 18.5q26 0 41 -18t15 -46q0 -37 -15 -79.5t-40 -81.5t-53 -67zM61 474q19 29 35.5 72.5t23.5 93.5q-26 0 -41.5 15.5t-15.5 39.5t18 42.5t45 18.5q26 0 41 -18t15 -46q0 -37 -15.5 -79.5 t-40 -81.5t-53.5 -67z" />
<glyph unicode="&#x201e;" horiz-adv-x="425" d="M246 -176q19 30 36 73.5t24 92.5q-27 0 -42.5 16t-15.5 40t18 42.5t45 18.5q26 0 41 -18t15 -47q0 -37 -15 -79t-40 -81t-53 -68zM61 -176q19 30 35.5 73.5t23.5 92.5q-26 0 -41.5 16t-15.5 40t18 42.5t45 18.5q26 0 41 -18t15 -47q0 -37 -15.5 -79t-40 -81t-53.5 -68z " />
<glyph unicode="&#x2020;" horiz-adv-x="505" d="M297 144l-31 -144h-27l-32 144l26 323l-164 -18l-4 3q-2 13 -4 30t-3 33l14 8l162 -22l-27 185l3 4q16 2 38 4t41 2l8 -8l-26 -187l165 22l4 -3q1 -13 3 -30t4 -33l-14 -8l-161 18z" />
<glyph unicode="&#x2021;" horiz-adv-x="505" d="M210 690q16 2 38 4t41 2l8 -8l-26 -187l165 22l4 -3q1 -13 3 -30t4 -33l-14 -8l-159 18q2 -20 5 -47t5 -48.5t2 -25.5t-2 -25t-5 -47.5t-5 -46.5l159 18l12 -7q-1 -14 -2 -31t-2 -32l-6 -4l-164 22l26 -187l-6 -7q-17 0 -39 1t-40 2l-5 5l27 185l-163 -21l-11 7 q0 13 1 30.5t2 32.5l7 4l161 -18q-3 20 -6 46.5t-4.5 47.5t-2.5 25q1 4 2.5 25.5t4.5 48.5t6 47l-162 -18l-4 3q-2 13 -4 30t-3 33l14 8l162 -22l-27 185z" />
<glyph unicode="&#x2022;" horiz-adv-x="423" d="M208 142q-50 0 -79.5 32.5t-30.5 76.5q0 34 15.5 63.5t43 48t62.5 18.5q47 0 76 -30.5t30 -77.5q0 -34 -13.5 -64t-40 -48.5t-63.5 -18.5z" />
<glyph unicode="&#x2026;" horiz-adv-x="643" d="M113 -10q-25 0 -40 16t-15 38q0 24 17 43.5t43 19.5q23 0 37.5 -15t15.5 -38q0 -25 -15.5 -44.5t-42.5 -19.5zM320 -10q-25 0 -40 16t-15 38q0 24 17 43.5t43 19.5q23 0 37.5 -15t15.5 -38q0 -25 -15.5 -44.5t-42.5 -19.5zM527 -10q-25 0 -40 16t-15 38q0 24 17 43.5 t43 19.5q23 0 37.5 -15t15.5 -38q0 -25 -15.5 -44.5t-42.5 -19.5z" />
<glyph unicode="&#x2030;" horiz-adv-x="1357" d="M707 696l-422 -706h-46l422 706h46zM69 483q-1 59 18 105.5t56 73.5t89 27q51 0 86.5 -26.5t54 -73t19.5 -104.5t-18 -105.5t-55.5 -75.5t-89.5 -28t-88.5 27t-53.5 73.5t-18 106.5zM129 483q1 -86 24 -131.5t78 -45.5q54 0 77.5 48t22.5 131q0 83 -23.5 128.5 t-76.5 45.5t-78 -47t-24 -129zM562 197q-1 59 18.5 105.5t56.5 73.5t88 27q52 0 87.5 -26.5t54 -73t18.5 -104.5q1 -58 -17.5 -105.5t-55 -75.5t-89.5 -28t-89 27t-54 73.5t-18 106.5zM965 197q0 59 19 105.5t56 73.5t89 27q51 0 86.5 -26.5t54 -73t19.5 -104.5 q0 -58 -18.5 -105.5t-55 -75.5t-89.5 -28t-88.5 27t-53.5 73.5t-19 106.5zM623 197q0 -86 23.5 -131.5t77.5 -45.5t78 48t23 131t-24.5 128.5t-75.5 45.5q-53 0 -78 -47t-24 -129zM1026 197q1 -86 24 -131.5t78 -45.5q54 0 77.5 48t22.5 131t-24.5 128.5t-75.5 45.5 q-53 0 -78 -47t-24 -129z" />
<glyph unicode="&#x2039;" horiz-adv-x="336" d="M257 29l-16 -9q-27 40 -56 78t-56 69t-46 49l-5 7v52q39 40 82.5 95t82.5 110l15 -10q-23 -51 -53.5 -108.5t-61.5 -113.5q25 -41 56.5 -100.5t57.5 -118.5z" />
<glyph unicode="&#x203a;" horiz-adv-x="336" d="M258 222q-39 -40 -82.5 -95t-82.5 -110l-15 9q23 52 53.5 109.5t62.5 113.5q-26 40 -57 100t-58 119l17 9q26 -40 55 -78.5t56 -69t47 -48.5l4 -7v-52z" />
<glyph unicode="&#x2044;" horiz-adv-x="264" d="M366 696l-422 -706h-46l422 706h46z" />
<glyph unicode="&#x2070;" horiz-adv-x="423" d="M50 551q-1 59 18.5 105.5t56.5 73t88 26.5q52 0 87.5 -26.5t54 -72.5t18.5 -105q1 -58 -17.5 -105t-55 -75t-89.5 -28t-89 26.5t-54 73.5t-18 107zM111 550q0 -85 23.5 -131t77.5 -46t78 48.5t23 131.5q-1 82 -24.5 128t-75.5 46q-53 0 -78 -47t-24 -130z" />
<glyph unicode="&#x2071;" horiz-adv-x="257" d="M130 865q-19 0 -30 13t-11 31q0 21 13.5 36.5t33.5 15.5q18 0 29 -12t11 -30q0 -22 -12.5 -38t-33.5 -16zM165 401l59 -18l-1 -14h-178l-2 14l36 11q13 4 18 10.5t5 20.5v290l-56 12l-2 11q23 9 55 16t58 10l8 -7v-356z" />
<glyph unicode="&#x2074;" horiz-adv-x="441" d="M50 473l227 283l40 -4v-271h74l-5 -35h-69v-91h-58v91h-201zM92 481h167v212z" />
<glyph unicode="&#x2075;" horiz-adv-x="385" d="M82 746h239q1 -23 -2.5 -49.5t-8.5 -49.5h-13q-2 31 -7.5 41t-28.5 10h-141l-2 -123h13h14q84 0 137 -29t53 -87q0 -52 -44.5 -83.5t-113.5 -31.5q-57 0 -92 17t-35 45q0 16 12.5 27t32.5 15l7 -5q-2 -4 -2.5 -8.5t-0.5 -9.5q1 -27 22.5 -42t59.5 -15q43 0 69.5 22 t26.5 58q0 49 -50 75.5t-140 25.5l-7 7z" />
<glyph unicode="&#x2076;" horiz-adv-x="401" d="M351 472q0 -36 -20 -65.5t-54.5 -46t-76.5 -16.5q-67 0 -108.5 43.5t-41.5 115.5q0 70 35.5 126t97.5 90t140 37l5 -16q-79 -16 -136.5 -66t-74.5 -125q21 15 46 24t55 9q59 0 96 -29.5t37 -80.5zM111 494q0 -53 25.5 -89t67.5 -36q38 0 62.5 25.5t24.5 66.5 q0 39 -24.5 64.5t-68.5 25.5q-46 0 -86 -29q-1 -14 -1 -28z" />
<glyph unicode="&#x2077;" horiz-adv-x="392" d="M337 746l5 -35q-68 -69 -109 -165.5t-49 -192.5h-58q5 61 31 125t64 121t79 99h-193q-23 0 -29.5 -10t-11.5 -39h-12q-3 19 -2 47.5t4 49.5h281z" />
<glyph unicode="&#x2078;" horiz-adv-x="401" d="M351 452q0 -46 -42 -77t-111 -31q-65 0 -106.5 26.5t-41.5 70.5q0 43 34 70.5t76 35.5q-34 19 -60 43t-26 63q0 43 36.5 73t95.5 30q55 0 88 -25.5t33 -65.5q0 -37 -24.5 -62t-57.5 -40q27 -13 51 -28t39.5 -35t15.5 -48zM130 668q0 -35 28.5 -56t65.5 -39q24 17 38.5 40 t14.5 52t-18.5 47.5t-52.5 18.5t-55 -18t-21 -45zM106 444q0 -35 27 -55t67 -20q38 0 66 19t27 50q0 23 -16 40t-42 30.5t-54 27.5q-33 -14 -54 -38t-21 -54z" />
<glyph unicode="&#x2079;" horiz-adv-x="401" d="M351 593q0 -69 -36 -124.5t-97.5 -89t-140.5 -35.5l-4 16q78 16 135.5 64.5t75.5 123.5q-22 -15 -48 -23.5t-56 -8.5q-58 0 -94 30t-36 82q0 36 20 65.5t54.5 46t76.5 16.5q67 0 108.5 -44.5t41.5 -118.5zM110 637q0 -40 23.5 -65.5t65.5 -25.5q50 0 90 29q1 14 1 30 q0 54 -25 90t-66 36q-39 0 -64 -26t-25 -68z" />
<glyph unicode="&#x207f;" horiz-adv-x="505" d="M165 401l59 -18l-1 -14h-178l-2 14l36 11q13 4 18 10.5t5 20.5v290l-56 12l-2 11q23 9 55 16t58 10l8 -7v-44q62 51 131 51q56 0 86 -30t30 -87v-246l59 -18l-1 -14h-178l-2 14l36 11q14 4 19 10.5t5 20.5v216q0 82 -79 82q-55 0 -106 -40v-282z" />
<glyph unicode="&#x2080;" horiz-adv-x="423" d="M50 121q-1 59 18.5 105.5t56.5 73.5t88 27q52 0 87.5 -26.5t54 -73t18.5 -104.5q1 -58 -17.5 -105.5t-55 -75.5t-89.5 -28t-89 27t-54 73.5t-18 106.5zM111 121q0 -86 23.5 -131.5t77.5 -45.5t78 48t23 131t-24.5 128.5t-75.5 45.5q-53 0 -78 -47t-24 -129z" />
<glyph unicode="&#x2081;" horiz-adv-x="282" d="M171 -51l61 -16l-2 -10h-179l-1 10l34 7q16 4 22 9.5t6 17.5v314l-61 7l-1 9l115 30l6 -6v-372z" />
<glyph unicode="&#x2082;" horiz-adv-x="382" d="M57 -77l-6 35q58 44 104 83.5t73 78t27 79.5q0 36 -22.5 57.5t-61.5 21.5q-33 0 -59 -16t-46 -38l-10 6q18 44 55.5 70.5t84.5 26.5q56 0 87.5 -31.5t31.5 -78.5t-30.5 -87.5t-78.5 -79.5t-102 -81h161q25 0 35 10.5t21 39.5l11 -1q0 -21 -4 -47.5t-11 -47.5h-260z" />
<glyph unicode="&#x2083;" horiz-adv-x="386" d="M115 101l-2 22q66 10 107 30.5t41 63.5q0 26 -21 43.5t-55 17.5t-60.5 -15.5t-48.5 -37.5l-10 5q20 45 58 71t84 26q50 0 81.5 -26t31.5 -65q0 -33 -19 -55t-47.5 -34.5t-55.5 -17.5q56 -4 96.5 -30.5t40.5 -73.5q0 -34 -22 -59t-58.5 -38.5t-80.5 -13.5q-55 0 -90 17.5 t-35 47.5q0 16 13 27t32 15l7 -5q-3 -6 -3 -16q1 -27 21 -44.5t60 -17.5q41 0 69.5 20t28.5 58q0 28 -18 47.5t-47 29.5t-60 10q-20 0 -38 -2z" />
<glyph unicode="&#x2084;" horiz-adv-x="441" d="M50 43l227 284l40 -4v-271h74l-5 -36h-69v-90h-58v90h-201zM92 52h167v211z" />
<glyph unicode="&#x2085;" horiz-adv-x="385" d="M82 317h239q1 -23 -2.5 -50t-8.5 -50l-13 1q-2 30 -7.5 40t-28.5 10h-141l-2 -123q6 0 13 0.5t14 0.5q84 0 137 -29t53 -88q0 -52 -44.5 -83.5t-113.5 -31.5q-57 0 -92 17t-35 46q0 15 12.5 26.5t32.5 14.5l7 -5q-2 -3 -2.5 -7.5t-0.5 -10.5q1 -26 22.5 -41.5t59.5 -15.5 q43 0 69.5 22t26.5 58q0 49 -50 75.5t-140 26.5l-7 7z" />
<glyph unicode="&#x2086;" horiz-adv-x="401" d="M351 43q0 -37 -20 -66t-54.5 -46t-76.5 -17q-67 0 -108.5 43.5t-41.5 116.5q0 69 35.5 125.5t97.5 90.5t140 37l5 -16q-79 -17 -136.5 -66.5t-74.5 -124.5q21 14 46 23t55 9q59 0 96 -29.5t37 -79.5zM111 64q0 -52 25.5 -88.5t67.5 -36.5q38 0 62.5 25.5t24.5 67.5 q0 39 -24.5 64.5t-68.5 25.5q-46 0 -86 -29q-1 -14 -1 -29z" />
<glyph unicode="&#x2087;" horiz-adv-x="392" d="M337 317l5 -36q-68 -69 -109 -165t-49 -193h-58q5 61 31 125t64 121.5t79 98.5h-193q-23 0 -29.5 -9.5t-11.5 -39.5l-12 1q-3 18 -2 46.5t4 50.5h281z" />
<glyph unicode="&#x2088;" horiz-adv-x="401" d="M351 22q0 -45 -42 -76.5t-111 -31.5q-65 0 -106.5 26.5t-41.5 71.5q0 42 34 69.5t76 36.5q-34 18 -60 42.5t-26 62.5q0 43 36.5 73.5t95.5 30.5q55 0 88 -26t33 -66q0 -37 -24.5 -62t-57.5 -39q27 -13 51 -28t39.5 -35t15.5 -49zM130 238q0 -34 28.5 -55.5t65.5 -39.5 q24 17 38.5 40.5t14.5 51.5q0 29 -18.5 48t-52.5 19t-55 -18t-21 -46zM106 15q0 -35 27 -55.5t67 -20.5q38 0 66 19t27 50q0 24 -16 40.5t-42 30.5t-54 28q-33 -15 -54 -39t-21 -53z" />
<glyph unicode="&#x2089;" horiz-adv-x="401" d="M351 163q0 -69 -36 -124.5t-97.5 -89t-140.5 -35.5l-4 16q78 16 135.5 65t75.5 123q-22 -14 -48 -23t-56 -9q-58 0 -94 30t-36 82q0 37 20 66t54.5 46t76.5 17q67 0 108.5 -44.5t41.5 -119.5zM110 207q0 -39 23.5 -64.5t65.5 -25.5q50 0 90 29q1 14 1 29q0 54 -25 90.5 t-66 36.5q-39 0 -64 -26t-25 -69z" />
<glyph unicode="&#x2090;" horiz-adv-x="433" d="M218 325q57 0 89 -29t32 -84q0 -20 -1 -56.5t-1.5 -76t-0.5 -66.5q0 -30 8.5 -41t30.5 -11q18 0 34 5l4 -8q-28 -36 -75 -36q-27 0 -44 14t-20 39q-22 -23 -53.5 -38t-69.5 -15q-47 0 -75 23.5t-28 64.5q0 37 28.5 66t79.5 46t119 19q0 31 0.5 54.5t0.5 29.5 q0 34 -19.5 52.5t-52.5 18.5q-38 0 -61 -21.5t-23 -49.5q0 -7 0.5 -14.5t3.5 -14.5q-15 -8 -29 -8q-16 0 -26.5 8t-10.5 23q0 24 23 48.5t60 41t77 16.5zM111 19q0 -29 17.5 -43t47.5 -14q28 0 54 12.5t43 30.5q0 23 0.5 52.5t0.5 58.5q-74 -3 -118.5 -29t-44.5 -68z" />
<glyph unicode="&#x2091;" horiz-adv-x="386" d="M354 -3q-21 -33 -57.5 -54t-84.5 -21q-79 0 -125.5 52t-46.5 140q0 63 22.5 110.5t62.5 74t91 26.5q61 0 99 -38.5t38 -106.5v-21t-1 -20l-9 -9h-239q3 -78 37.5 -120t94.5 -42q61 0 107 38zM211 296q-46 0 -74.5 -40t-31.5 -102l183 4q1 8 1 15.5v14.5q0 107 -78 108z " />
<glyph unicode="&#x2092;" horiz-adv-x="419" d="M380 125q0 -96 -49.5 -149t-123.5 -54q-73 -1 -120 53t-47 151q0 63 24.5 107.5t64.5 68t86 23.5t83.5 -23t59.5 -68t22 -109zM104 124q0 -80 27.5 -126t76.5 -46q50 0 78.5 41t28.5 129q0 82 -27 128t-74 46q-49 0 -79.5 -41.5t-30.5 -130.5z" />
<glyph unicode="&#x2093;" horiz-adv-x="427" d="M133 286l98 -134l92 133l-59 19l2 13h148l2 -13q-3 -1 -11.5 -4t-17 -6.5t-10.5 -4.5q-10 -5 -16.5 -12.5t-16.5 -19.5l-98 -125l106 -144q8 -14 14 -20.5t18 -10.5q1 -2 9.5 -4.5t16.5 -5t10 -3.5l-2 -14h-177l-2 14l59 18l-102 138l-94 -138l59 -18l-1 -14h-151l-1 14 q2 1 11 3.5t17.5 6t10.5 4.5q11 5 17.5 12.5t16.5 19.5l101 130l-103 140q-9 12 -14.5 18.5t-17.5 11.5q-1 1 -9.5 4t-16.5 6t-9 4l1 13h177l2 -13z" />
<glyph unicode="&#x2095;" horiz-adv-x="497" d="M157 -38l59 -18l-1 -14h-178l-2 14l36 10q13 5 18 11.5t5 20.5v485l-56 11l-2 11q23 9 55 16.5t58 10.5l8 -7v-239q62 51 131 51q56 0 86 -30.5t30 -87.5v-245l59 -18l-1 -14h-178l-2 14l36 10q14 5 19 11.5t5 20.5v216q0 82 -79 82q-55 0 -106 -40v-282z" />
<glyph unicode="&#x2096;" horiz-adv-x="456" d="M157 -38l59 -18l-1 -14h-178l-2 14l36 10q13 5 18 11.5t5 20.5v486l-56 10l-2 11q23 10 55 17.5t58 10.5l8 -8v-365h77l97 137l-64 19l2 13h161l2 -13l-12 -4t-18 -6.5t-11 -4.5q-12 -4 -20 -11.5t-18 -20.5l-75 -92l96 -162q11 -19 22 -30.5t26 -16.5l27 -10l-2 -16h-55 q-29 0 -44 12t-30 36l-84 142h-77v-158z" />
<glyph unicode="&#x2097;" horiz-adv-x="249" d="M157 -38l59 -18l-1 -14h-178l-2 14l36 10q13 5 18 11.5t5 20.5v486l-56 10l-2 11q23 10 55 17.5t58 10.5l8 -8v-551z" />
<glyph unicode="&#x2098;" horiz-adv-x="740" d="M165 -38l59 -18l-1 -14h-178l-2 14l36 10q13 5 18 11.5t5 20.5v290l-56 11l-2 11q23 9 55 16.5t58 10.5l8 -7v-44q29 24 62 37.5t66 13.5q75 0 101 -56q61 56 134 56q58 0 88.5 -30.5t30.5 -87.5v-245l59 -18l-2 -14h-177l-2 14l35 10q14 5 19 11.5t5 20.5v216 q0 82 -79 82q-54 0 -103 -38q4 -18 4 -39v-245l59 -18l-1 -14h-178l-2 14l35 10q14 5 19.5 11.5t5.5 20.5v216q0 82 -76 82q-27 0 -53 -10.5t-50 -29.5v-282z" />
<glyph unicode="&#x2099;" horiz-adv-x="505" d="M165 -38l59 -18l-1 -14h-178l-2 14l36 10q13 5 18 11.5t5 20.5v290l-56 11l-2 11q23 9 55 16.5t58 10.5l8 -7v-44q62 51 131 51q56 0 86 -30.5t30 -87.5v-245l59 -18l-1 -14h-178l-2 14l36 10q14 5 19 11.5t5 20.5v216q0 82 -79 82q-55 0 -106 -40v-282z" />
<glyph unicode="&#x209a;" horiz-adv-x="468" d="M238 -48q57 0 90.5 45.5t33.5 123.5q0 75 -28 119t-82 44q-29 0 -52.5 -11t-42.5 -30v-270q32 -21 81 -21zM157 -230l76 -19l-2 -13h-194l-2 13l35 11q14 5 19 11.5t5 19.5v483l-56 11l-2 11q23 9 55 16.5t58 10.5l8 -7v-41q20 20 50 34t65 14q75 0 115.5 -54t40.5 -143 q0 -94 -52 -150t-139 -56q-21 0 -41.5 3t-38.5 8v-163z" />
<glyph unicode="&#x209b;" horiz-adv-x="345" d="M155 -78q-33 0 -66 6.5t-41 15.5t-8 42q0 17 2.5 34.5t9.5 31.5l12 -1q4 -33 11 -51t19 -30q17 -18 67 -18q37 0 58.5 16.5t21.5 45.5q0 28 -19.5 46.5t-49 32t-59 29t-49 38.5t-19.5 59q0 48 42 77t103 29q33 0 62 -6.5t37 -14.5q7 -6 7 -35q0 -15 -3 -35t-10 -36h-12 q-5 35 -11 52.5t-16 26.5q-10 8 -24.5 13.5t-33.5 5.5q-35 0 -56 -17t-21 -47q0 -29 19.5 -47.5t49 -32.5t58.5 -29.5t49 -37.5t20 -57q0 -49 -41 -77.5t-109 -28.5z" />
<glyph unicode="&#x209c;" horiz-adv-x="333" d="M318 -3q-20 -30 -52.5 -52.5t-72.5 -22.5q-48 0 -74 29.5t-26 86.5v244h-66l-2 13l68 21l47 113l16 -1v-118h139v-28h-139v-230q0 -84 62 -84q46 0 89 38z" />
<glyph unicode="&#x20ac;" horiz-adv-x="632" d="M50 232l6 41h87q-3 33 -3 70v21h-76l6 41h74q10 85 45.5 150.5t90 103t123.5 37.5q47 0 85.5 -19.5t61 -53t22.5 -75.5q0 -23 -11.5 -36.5t-29.5 -13.5q-16 0 -25 3q2 14 2 23q-3 57 -33 96t-80 39q-48 0 -85.5 -31.5t-61 -88.5t-28.5 -134h252l-6 -41h-247l-1 -3 q0 -47 6 -88h233l-5 -41h-221q19 -89 66 -138t118 -49q49 0 85.5 16t69.5 44l12 -11q-25 -41 -72.5 -72.5t-117.5 -31.5q-95 0 -158.5 63t-84.5 179h-99z" />
<glyph unicode="&#x2122;" horiz-adv-x="685" d="M188 486l31 -9l-2 -17h-98l-1 17l19 5q11 3 11 16v166h-16q-9 0 -21.5 -0.5t-18.5 -1.5q-2 -5 -4.5 -12.5t-5.5 -17.5l-7 -22h-13q-4 15 -4 36q0 25 5 40h212q4 -16 4 -40q0 -10 -1 -19t-2 -17h-15l-7 22q-3 10 -5.5 17t-4.5 13q-6 1 -18.5 1.5t-21.5 0.5h-16v-178z M319 686h72l67 -175l66 175h76l1 -15l-31 -11l29 -174l28 -9l-1 -17h-96l-2 17l15 4q16 5 13 20l-24 134l-66 -175h-30l-68 175l-25 -149l30 -9l-1 -17h-80l-1 17l17 4q11 4 13 15l27 164l-31 11z" />
<glyph unicode="&#x2202;" horiz-adv-x="604" d="M293 756q81 0 137.5 -48t86 -132t29.5 -193q0 -77 -16.5 -147.5t-50.5 -125.5t-85.5 -86.5t-121.5 -31.5q-63 0 -111.5 27.5t-75.5 78.5t-27 119t33.5 125.5t94.5 92.5t145 35q41 0 73 -7.5t60 -19.5q-6 76 -31 134t-66 90.5t-95 32.5t-98.5 -24t-72.5 -54l-22 23 q18 24 48.5 50t72 43.5t93.5 17.5zM141 216q0 -83 39 -132t100 -49q58 0 99.5 41t64 111.5t22.5 159.5v45v1q-27 15 -58.5 23.5t-70.5 8.5q-63 0 -107 -27t-66.5 -74t-22.5 -108z" />
<glyph unicode="&#x220f;" horiz-adv-x="719" d="M217 -122l-8 -14h-149l-2 21l51 14q18 5 25 12.5t7 23.5v707l-83 23l2 21h599l2 -21l-51 -13q-18 -6 -25 -13.5t-7 -23.5v-706l83 -24l-2 -21h-149l-8 14v765h-285v-765z" />
<glyph unicode="&#x2211;" horiz-adv-x="585" d="M40 -136l-6 35l287 341l-276 411l6 35h469q7 -38 7 -86q0 -23 -1.5 -46.5t-4.5 -43.5h-19q-6 28 -15.5 55t-18.5 47.5t-12 28.5q-20 4 -48.5 6.5t-57.5 2.5h-216l262 -389l-307 -361h261q29 0 57.5 2.5t48.5 6.5q3 8 12 28.5t18.5 47.5t15.5 55h19q3 -20 4.5 -43t1.5 -47 q0 -48 -7 -86h-480z" />
<glyph unicode="&#x2212;" d="M493 317h-417v48q35 1 90 2t116 1.5t116.5 1t92.5 0.5l8 -8z" />
<glyph unicode="&#x221a;" horiz-adv-x="596" d="M18 496h148l168 -442l197 702l47 -12l-212 -744h-90l-178 453h-80v43z" />
<glyph unicode="&#x221e;" horiz-adv-x="863" d="M773 344q0 -51 -21 -91t-57.5 -63t-85.5 -23q-42 0 -73.5 16.5t-56 43.5t-44.5 59q-32 -55 -78 -87t-109 -32q-47 0 -82.5 22.5t-55.5 62t-20 90.5q0 50 20.5 90t58 63.5t86.5 23.5q43 0 75 -17t56.5 -45t43.5 -59q32 54 78.5 87.5t105.5 33.5q48 0 83.5 -23t55.5 -62.5 t20 -89.5zM606 470q-46 0 -86 -35.5t-63 -80.5l2 -4q35 -59 70 -96.5t83 -37.5q44 0 74.5 33t30.5 94q0 57 -31.5 92t-79.5 35zM145 345q0 -59 31 -94t81 -35q51 0 89.5 34.5t62.5 79.5q-2 3 -4 7q-34 58 -69 95.5t-84 37.5q-45 0 -76 -33t-31 -92z" />
<glyph unicode="&#x222b;" horiz-adv-x="432" d="M266 721q-83 -6 -83 -122q0 -41 13.5 -126t35.5 -212q18 -117 33 -199t15 -134q0 -63 -26 -104t-68 -60.5t-90 -19.5q-44 0 -71 18.5t-27 44.5q0 14 10 25t24 17l3 -2q16 -27 41.5 -46.5t54.5 -19.5q75 6 75 110q0 52 -17 148t-36 216q-17 109 -30.5 187.5t-13.5 122.5 q0 67 25.5 109t66.5 62t88 20q38 0 66 -13.5t43.5 -34.5t15.5 -44q0 -19 -12 -30t-29 -16l-3 2q-32 101 -104 101z" />
<glyph unicode="&#x2248;" d="M413 390q-11 0 -37 5.5t-59 13.5t-65.5 16t-57.5 13.5t-34 5.5t-26 -18.5t-36 -42.5l-31 20q11 20 26 42t32 38t37 16q12 0 37.5 -5.5t57.5 -13.5l64 -16t57.5 -13.5t37.5 -5.5q8 0 24.5 18t36.5 43l32 -20q-12 -20 -26.5 -42.5t-32 -38t-37.5 -15.5zM413 189 q-11 0 -37 5t-59 13t-65.5 16t-57.5 13.5t-34 5.5t-26 -18.5t-36 -41.5l-31 19q11 20 26 42.5t32 38t37 15.5q12 0 37.5 -5.5t57.5 -13.5l64 -16t57.5 -13.5t37.5 -5.5q8 0 24.5 18.5t36.5 42.5l32 -20q-12 -20 -26.5 -42t-32 -37.5t-37.5 -15.5z" />
<glyph unicode="&#x2260;" d="M138 115l50 105h-112v48q25 1 60 1.5t76 0.5l68 145h-204v48q38 1 100.5 2t127.5 1l58 123l11 3l41 -19l-51 -106q78 1 128 1l8 -8l-6 -45h-155l-69 -144q63 1 123 1.5t99 0.5l8 -8l-6 -45h-248l-61 -126l-2 -1z" />
<glyph unicode="&#x2264;" d="M487 617v-57l-333 -151l334 -145v-57q-22 10 -65 29t-96 41.5t-105 45.5t-93.5 41.5t-61.5 29.5l-3 26l1 3q6 2 37.5 16.5t77 35.5t96 44.5t96.5 45t77.5 36t37.5 16.5zM489 76h-416v47q34 1 89 2t116.5 1.5t117 1t91.5 0.5l8 -8z" />
<glyph unicode="&#x2265;" d="M80 203v57l334 152l-334 144v57q30 -13 72.5 -31.5t91.5 -39.5t97.5 -42.5t89.5 -40t68 -31.5l2 -3l3 -26zM505 76h-416v47q35 1 89.5 2t116 1.5t117 1t91.5 0.5l8 -8z" />
<glyph unicode="&#x25ca;" horiz-adv-x="612" d="M58 327v31l214 332l61 10l221 -343v-31l-217 -326l-60 -10zM302 649l-190 -307l190 -299h6l194 299l-194 307h-6z" />
<glyph unicode="&#x25fc;" horiz-adv-x="495" d="M0 495h495v-495h-495v495z" />
<glyph unicode="&#x2c7c;" horiz-adv-x="235" d="M123 428q-19 0 -30 13.5t-11 31.5q0 20 13.5 36t33.5 16q18 0 28.5 -12t10.5 -31q0 -21 -12 -37.5t-33 -16.5zM27 -258q21 28 36 55t23.5 62.5t8.5 87.5v329l-57 11l-2 11q24 9 56 16.5t58 10.5l7 -7v-396q0 -75 -33 -118t-85 -74z" />
<glyph unicode="&#xa7b6;" horiz-adv-x="792" d="M328 0h-287q-7 38 -7 86t6 83h19l17 -46q7 -27 13.5 -44.5t12.5 -32.5q20 -5 48.5 -7.5t57.5 -2.5h74q-42 32 -80 78t-61.5 108t-22.5 142q-1 97 34.5 172t99.5 117.5t149 42.5q81 0 142.5 -42.5t96 -117.5t34.5 -172q0 -80 -23.5 -142t-61 -108t-79.5 -78h74 q28 0 56.5 2.5t48.5 7.5q7 15 13 32.5t14 44.5l17 46h19q2 -17 4 -38.5t2 -44.5q0 -49 -7 -86h-287l-14 37q58 50 100.5 129.5t42.5 192.5q0 87 -23.5 154t-66 105t-101.5 38q-63 0 -108.5 -38t-70 -105t-24.5 -154q-1 -113 41.5 -192.5t101.5 -129.5z" />
<glyph unicode="&#xfb01;" horiz-adv-x="590" d="M189 40l87 -23l-2 -17h-231l-2 17l44 14q16 6 22.5 13.5t6.5 24.5v384h-71l-2 17l73 19v20q0 73 28 129t76.5 87t109.5 31q42 0 76 -13.5t53.5 -35t19.5 -45.5q0 -18 -11 -28.5t-27 -10.5t-25 5q-10 38 -33.5 64.5t-65.5 26.5q-57 0 -91.5 -47.5t-34.5 -133.5v-50h223 q13 5 30 10.5t33 7.5l9 -9v-457l73 -23l-2 -17h-216l-2 17l43 14q17 6 23 13.5t6 24.5v384h-220v-413z" />
<glyph unicode="&#xfb02;" horiz-adv-x="590" d="M189 40l87 -23l-2 -17h-231l-2 17l44 14q16 6 22.5 13.5t6.5 24.5v384h-71l-2 17l73 19v38q0 68 26.5 119.5t73.5 80.5t108 29q25 0 47 -5t40 -14v8q35 9 66 12l9 -9v-708l73 -23l-2 -17h-216l-2 17l43 14q17 6 23 13.5t6 24.5v384h-220v-413zM189 558v-70h220v176 q-13 24 -37.5 39.5t-56.5 15.5q-59 0 -92.5 -42.5t-33.5 -118.5z" />
<glyph unicode="&#xfb06;" horiz-adv-x="804" d="M600 591q0 -36 -15 -63t-28 -40h193v-35h-170v-298q0 -55 18.5 -82.5t58.5 -27.5q28 0 55.5 13t52.5 36l13 -10q-24 -39 -63 -66.5t-89 -27.5q-58 0 -89.5 37.5t-31.5 110.5v315h-66l-2 20q47 14 70.5 46t23.5 72q0 41 -30 68t-76 27q-45 0 -77.5 -21.5t-50.5 -57.5 t-18 -81v-15v-13q36 -11 60 -34t24 -51q0 -17 -10 -26.5t-25 -9.5q-21 0 -43 24.5t-33 64.5q-15 4 -28 4q-40 0 -66.5 -22t-26.5 -61q0 -31 17.5 -52.5t45 -38t58 -31.5t58 -33.5t45 -44t17.5 -63.5q0 -62 -50 -98t-132 -36q-27 0 -55 4t-48.5 10t-27.5 14q-5 6 -7.5 18 t-2.5 35q0 21 3.5 43t10.5 41l15 -1q5 -44 14 -67t23 -37q21 -23 82 -23q45 0 71.5 22t26.5 59q0 31 -17.5 52.5t-44.5 37.5t-57.5 31t-58 33.5t-44.5 45t-17 65.5t23.5 69.5t62 47t83.5 16.5q10 0 20 -1q-1 11 -1 21q0 56 25 102t70.5 74t105.5 28q69 0 112 -40t43 -99z " />
<glyph horiz-adv-x="462" d="M97 -78l-8 5v544l-56 11l-2 11q23 9 55 16.5t57 10.5l9 -7v-236q20 20 49.5 34t64.5 14q74 0 115.5 -53.5t41.5 -143.5q0 -93 -50 -149.5t-136 -56.5q-25 0 -49 5t-44 14zM232 -48q60 0 92.5 45.5t32.5 123.5q0 75 -29 119t-82 44q-28 0 -51.5 -11t-42.5 -30v-270 q32 -21 80 -21z" />
<glyph horiz-adv-x="368" d="M345 227q0 -19 -10 -30t-26 -11q-7 0 -12.5 1t-10.5 2q1 5 0 10t-1 9q0 41 -19 64.5t-53 23.5q-48 0 -78.5 -44t-30.5 -114q0 -81 34.5 -125.5t98.5 -44.5q31 0 57 9.5t48 28.5l11 -9q-21 -32 -56.5 -53.5t-83.5 -21.5q-79 0 -126 52t-47 139q0 63 22.5 110.5t63 74.5 t92.5 27q55 0 91 -28.5t36 -69.5z" />
<glyph horiz-adv-x="469" d="M233 325q39 0 76 -11v157l-73 11l-2 11q26 10 63 16.5t66 10.5l8 -7v-493q0 -30 8.5 -44.5t32.5 -14.5q9 0 17.5 1.5t16.5 3.5l4 -8q-12 -15 -32 -25.5t-44 -10.5q-26 0 -42.5 14t-21.5 38q-17 -20 -47.5 -36t-69.5 -16q-67 0 -110 49.5t-43 142.5q0 66 26.5 113.5 t70.5 72.5t96 25zM236 296q-57 0 -94.5 -44.5t-37.5 -130.5q0 -77 31 -118.5t78 -41.5q30 0 55 13.5t41 30.5v269q-32 22 -73 22z" />
<glyph horiz-adv-x="262" d="M165 -38l76 -18l-2 -14h-194l-2 14l36 10q13 5 18 11.5t5 20.5v296h-57l-2 13l59 16v16q0 57 22 100.5t60 68t85 24.5q46 0 75.5 -23t29.5 -52q0 -15 -9.5 -23.5t-23.5 -8.5q-9 0 -17 4q-5 35 -21 54.5t-45 19.5q-43 0 -68 -37.5t-25 -104.5v-39h108v-28h-108v-320z" />
<glyph horiz-adv-x="404" d="M64 177q0 43 19.5 76t53 52.5t76.5 19.5q47 0 81 -24q19 20 44.5 33t39.5 13q19 0 19 -26q0 -6 -0.5 -12.5t-1.5 -9.5q-3 -11 -19 -12h-31.5t-32.5 -2q36 -37 36 -95q0 -64 -39.5 -104t-104.5 -41q-18 0 -35 4q-7 -8 -11.5 -17.5t-4.5 -20.5q0 -16 10.5 -23.5t31.5 -8.5 l75 -7q58 -5 90 -32.5t32 -74.5q0 -39 -24.5 -69.5t-68.5 -48t-102 -17.5q-70 0 -113.5 27t-43.5 72q0 25 16 44.5t42 31.5l10 -8q-14 -19 -14 -41q1 -45 34.5 -70.5t90.5 -25.5q55 0 89.5 23.5t34.5 59.5q0 30 -22 47.5t-61 22.5l-80 8q-38 3 -56 21t-18 43q0 43 41 71 q-38 14 -60.5 46.5t-22.5 74.5zM284 182q0 115 -75 115q-36 0 -58.5 -29t-22.5 -80q0 -53 21 -83t57 -31q37 -1 57.5 27t20.5 81z" />
<glyph horiz-adv-x="257" d="M130 426q-19 0 -30 13t-11 31q0 21 13.5 36.5t33.5 15.5q18 0 29 -12t11 -31q0 -21 -12.5 -37t-33.5 -16zM165 -38l59 -18l-1 -14h-178l-2 14l36 10q13 5 18 11.5t5 20.5v290l-56 11l-2 11q23 9 55 16.5t58 10.5l8 -7v-356z" />
<glyph horiz-adv-x="457" d="M371 -230l60 -19l-2 -13h-178l-1 13l35 11q14 5 19 11.5t5 19.5v179q-18 -19 -48.5 -34.5t-67.5 -15.5q-66 0 -109.5 49t-43.5 145q0 67 26.5 113.5t70 71t93.5 24.5q26 0 47.5 -5t40.5 -13l45 18l8 -4v-551zM236 296q-57 0 -94.5 -43.5t-37.5 -129.5q0 -79 31 -120.5 t77 -41.5q33 0 58.5 14.5t38.5 29.5v269q-33 22 -73 22z" />
<glyph horiz-adv-x="336" d="M165 -38l76 -18l-2 -14h-194l-2 14l36 10q13 5 18 11.5t5 20.5v290l-56 11l-2 11q23 9 55 16.5t58 10.5l8 -7v-59q25 32 52.5 49t55.5 17q25 0 40 -12.5t15 -30.5q0 -17 -8 -27.5t-14 -16.5h-4.5h-3.5q-11 14 -24.5 23.5t-35.5 11.5q-20 0 -40.5 -15.5t-32.5 -31.5v-264z " />
<glyph horiz-adv-x="514" d="M96 51v225l-56 11l-2 11q23 9 55 16.5t58 10.5l8 -7v-262q0 -93 87 -93q27 0 53 11t47 31v271l-56 11l-2 11q23 9 55 16.5t58 10.5l8 -7v-298q0 -31 9 -45t31 -14q17 0 35 5l3 -8q-30 -36 -76 -36q-52 0 -63 52q-23 -23 -56.5 -37.5t-68.5 -14.5q-61 0 -94 33.5t-33 95.5 z" />
<glyph horiz-adv-x="433" d="M358 260l-121 -330h-44l-120 330q-5 14 -11 20t-17 10q-1 2 -9.5 5t-17.5 5.5t-10 3.5l1 13h183l2 -13l-62 -18l101 -293l101 293l-60 18l1 13h149l1 -13q-1 -1 -10 -3.5t-17.5 -5.5t-9.5 -4q-22 -8 -30 -31z" />
<glyph horiz-adv-x="664" d="M366 317l117 -318l83 287l-62 18l2 13h149l2 -13q-2 -1 -11 -4t-17.5 -5.5t-9.5 -3.5q-23 -9 -30 -31l-101 -330h-44l-113 301l-112 -301h-45l-101 330q-4 13 -11 20t-17 10q-1 2 -10 4.5t-17.5 5.5t-9.5 4l1 13h182l2 -13l-61 -18l83 -285l116 316h35z" />
<glyph horiz-adv-x="439" d="M15 317h182l2 -13l-61 -18l102 -290l100 290l-61 18l2 13h149l2 -13q-3 -1 -11.5 -4t-17 -5.5t-9.5 -3.5q-22 -9 -29 -31l-125 -342q-34 -92 -71 -140t-92 -48q-26 0 -42.5 14t-16.5 35q0 16 11 29l5 1q8 -8 21.5 -15t31.5 -7q41 0 74.5 40t53.5 99l-12 -5l-123 339 q-10 24 -29 30q-1 1 -9 4t-17 6t-11 4z" />
<glyph horiz-adv-x="384" d="M344 -16q-1 -15 -2 -27.5t-3 -26.5h-294l-5 28l235 331h-173l-38 -94h-13q-4 16 -5.5 33t-1.5 37q0 15 1 27t5 25h289l6 -28l-238 -331h178l38 94h14q3 -15 5 -31.5t2 -36.5z" />
<glyph horiz-adv-x="434" d="M218 764q57 0 89 -29t32 -84q0 -20 -1 -56.5t-1.5 -76t-0.5 -66.5q0 -29 8.5 -40t30.5 -11q18 0 34 4l4 -8q-28 -36 -75 -36q-27 0 -44 14.5t-20 38.5q-22 -22 -53.5 -37.5t-69.5 -15.5q-47 0 -75 23.5t-28 64.5q0 38 28.5 67t79.5 45.5t119 18.5q0 31 0.5 54.5t0.5 30.5 q0 34 -19.5 52t-52.5 18q-38 0 -61 -21.5t-23 -49.5q0 -7 0.5 -14.5t3.5 -14.5q-15 -8 -29 -8q-16 0 -26.5 8.5t-10.5 23.5q0 24 23 48t60 40.5t77 16.5zM111 458q0 -29 17.5 -43t47.5 -14q28 0 54 12.5t43 30.5q0 23 0.5 52.5t0.5 58.5q-74 -2 -118.5 -28t-44.5 -69z" />
<glyph horiz-adv-x="462" d="M97 361l-8 5v544l-56 12l-2 11q23 9 55 16t57 10l9 -7v-236q20 21 49.5 34.5t64.5 13.5q74 0 115.5 -53.5t41.5 -143.5q0 -93 -50 -149.5t-136 -56.5q-25 0 -49 5t-44 14zM232 391q60 0 92.5 45.5t32.5 123.5q0 75 -29 119t-82 44q-28 0 -51.5 -11t-42.5 -30v-270 q32 -21 80 -21z" />
<glyph horiz-adv-x="368" d="M345 666q0 -19 -10 -30t-26 -11q-7 0 -12.5 1t-10.5 3q1 5 0 9.5t-1 8.5q0 41 -19 64.5t-53 23.5q-48 0 -78.5 -44t-30.5 -114q0 -80 34.5 -125t98.5 -45q31 0 57 10t48 28l11 -9q-21 -32 -56.5 -53.5t-83.5 -21.5q-79 0 -126 52t-47 140q0 62 22.5 109.5t63 74.5 t92.5 27q55 0 91 -28.5t36 -69.5z" />
<glyph horiz-adv-x="467" d="M233 764q39 0 76 -10v156l-73 12l-2 11q26 9 63 16t66 10l8 -7v-492q0 -30 8.5 -44.5t32.5 -14.5q9 0 17.5 1t16.5 3l4 -8q-12 -15 -32 -25.5t-44 -10.5q-26 0 -42.5 14t-21.5 38q-17 -19 -47.5 -35.5t-69.5 -16.5q-67 0 -110 49.5t-43 142.5q0 67 26.5 114t70.5 72 t96 25zM236 735q-57 0 -94.5 -44t-37.5 -131q0 -77 31 -118t78 -41q30 0 55 13.5t41 29.5v269q-32 22 -73 22z" />
<glyph horiz-adv-x="386" d="M354 436q-21 -33 -57.5 -54t-84.5 -21q-79 0 -125.5 52t-46.5 140q0 63 22.5 110.5t62.5 74t91 26.5q61 0 99 -38.5t38 -106.5v-21t-1 -20l-9 -9h-239q3 -78 37.5 -120t94.5 -42q61 0 107 38zM211 735q-46 0 -74.5 -40t-31.5 -102l183 5q1 7 1 14.5v14.5q0 108 -78 108z " />
<glyph horiz-adv-x="262" d="M165 401l76 -18l-2 -14h-194l-2 14l36 11q13 4 18 10.5t5 20.5v296h-57l-2 13l59 16v16q0 57 22 100.5t60 68t85 24.5q46 0 75.5 -23t29.5 -52q0 -14 -9.5 -22.5t-23.5 -8.5q-9 0 -17 3q-5 35 -21 54.5t-45 19.5q-43 0 -68 -37.5t-25 -104.5v-39h108v-28h-108v-320z" />
</font>
</defs>
</svg>
