<?xml version="1.0" standalone="no"?>
<!DOCTYPE svg PUBLIC "-//W3C//DTD SVG 1.1//EN" "http://www.w3.org/Graphics/SVG/1.1/DTD/svg11.dtd" >
<svg xmlns="http://www.w3.org/2000/svg" xmlns:xlink="http://www.w3.org/1999/xlink" version="1.1">
<metadata></metadata>
<defs>
<font id="indivisa_display_serifregular" horiz-adv-x="589" >
<font-face units-per-em="1000" ascent="800" descent="-200" />
<missing-glyph horiz-adv-x="200" />
<glyph unicode=" "  horiz-adv-x="200" />
<glyph unicode="&#x09;" horiz-adv-x="200" />
<glyph unicode="&#xa0;" horiz-adv-x="200" />
<glyph unicode="!" horiz-adv-x="351" d="M98 679l4 7q33 4 64 6.5t54 2.5q33 0 33 -28q0 -17 -3 -39.5l-7 -52.5l-47 -381h-44zM240 48q0 -29 -21 -48t-53 -19q-28 0 -46 15.5t-18 41.5q0 30 22.5 48.5t52.5 18.5q28 0 45.5 -15.5t17.5 -41.5z" />
<glyph unicode="&#x22;" horiz-adv-x="386" d="M52 686l4 5q21 2 42 3t45 1l9 -11l-42 -244h-24l-14 116zM234 686l4 5q21 2 42 3t45 1l9 -11l-42 -244h-24l-14 116z" />
<glyph unicode="#" horiz-adv-x="709" d="M601 179h-139l-46 -189l-57 9l-6 6l43 174h-146l-46 -189l-57 9l-6 6l43 174h-126l-6 5l8 52h138l44 179h-135l-6 5l7 52h148l47 188l56 -8l6 -6l-43 -174h146l47 188l56 -8l6 -6l-43 -174h117l6 -5l-8 -52h-129l-44 -179h126l6 -5zM264 236h146l44 179h-146z" />
<glyph unicode="$" horiz-adv-x="565" d="M304 -120l-33 -2l-7 5v107q-65 0 -112 10.5t-66 27.5q-9 7 -13 20t-4 36q0 33 11 68t22 57l9 -1l61 -170q12 -6 33 -11.5t47 -5.5q53 0 86 30t33 81q0 40 -21.5 68t-55.5 49.5t-72 42.5t-72 46.5t-55.5 61.5t-21.5 87q0 52 27.5 89t74.5 58.5t105 24.5v111l34 3l6 -6 v-107q61 -2 99 -13.5t51 -22.5q15 -13 15 -52q0 -19 -6 -42.5t-15 -45t-17 -34.5l-9 1l-54 165q-13 6 -30 9.5t-40 3.5q-51 0 -83.5 -27.5t-32.5 -76.5q0 -41 21.5 -70t56.5 -52t74 -45t73.5 -47.5t56.5 -60t22 -83.5q0 -82 -56 -125t-142 -50v-112z" />
<glyph unicode="%" horiz-adv-x="975" d="M652 660h69l-399 -670h-69zM402 475q0 -62 -23.5 -104t-63 -64t-86.5 -22q-72 0 -121 47.5t-49 138.5q0 61 24 102t63.5 62.5t86.5 21.5q46 0 84.5 -20t61.5 -60.5t23 -101.5zM232 308q34 0 52 43.5t18 123.5q0 159 -70 159q-72 0 -73 -163q0 -81 19 -122t54 -41z M916 183q0 -62 -23.5 -104t-63 -64t-86.5 -22q-72 0 -121 47.5t-49 138.5q0 61 24 102t63.5 62.5t86.5 21.5q46 0 84.5 -20t61.5 -60.5t23 -101.5zM746 16q34 0 52 43.5t18 123.5q0 159 -70 159q-72 0 -73 -163q0 -81 19 -122t54 -41z" />
<glyph unicode="&#x26;" horiz-adv-x="771" d="M334 -10q-124 0 -193 47.5t-69 120.5q0 58 45 98.5t115 60.5l-14 15q-32 36 -53.5 73.5t-21.5 85.5t29 86.5t78.5 61.5t110.5 23q55 0 93.5 -19t59.5 -50t21 -67q0 -31 -16.5 -46t-43.5 -15q-10 0 -19 1t-16 5q2 13 3 24t1 22q0 52 -23 81.5t-61 29.5q-40 0 -66.5 -28.5 t-26.5 -72.5q0 -45 22 -84t65 -86l193 -215q23 50 23 112q0 42 -8.5 70t-22.5 48q18 21 53 21q33 0 52.5 -29t19.5 -75q0 -53 -18.5 -102.5t-53.5 -89.5q26 -23 50.5 -35t50.5 -13q11 0 21.5 3t19.5 6l5 -11q-18 -21 -47.5 -39.5t-70.5 -18.5q-33 0 -60.5 11t-54.5 30 q-35 -19 -78.5 -29.5t-93.5 -10.5zM193 179q0 -69 43 -109t122 -40q65 0 113 28l-25 25t-26 28l-166 181q-29 -23 -45 -50.5t-16 -62.5z" />
<glyph unicode="'" horiz-adv-x="204" d="M52 686l4 5q21 2 42 3t45 1l9 -11l-42 -244h-24l-14 116z" />
<glyph unicode="(" horiz-adv-x="377" d="M345 -94l-13 -16q-108 60 -174 160.5t-66 242.5q0 141 66 241.5t174 160.5l13 -15q-53 -62 -90.5 -161.5t-37.5 -225.5t37.5 -225t90.5 -162z" />
<glyph unicode=")" horiz-adv-x="377" d="M32 680l13 15q107 -60 173.5 -160.5t66.5 -241.5q0 -142 -66.5 -242.5t-173.5 -160.5l-13 16q52 61 89.5 160.5t38.5 226.5q-1 126 -38 225t-90 162z" />
<glyph unicode="*" horiz-adv-x="421" d="M235 457q0 -27 -24 -27t-24 27q0 16 5 37.5t9 50.5q-27 -20 -45 -37t-33 -21q-20 -7 -28 13q-7 19 12 31q14 8 35 14.5t49 17.5q-27 11 -48 17.5t-36 14.5q-20 11 -12 30q8 21 28 14q13 -5 32.5 -22t45.5 -37q-4 29 -9 50.5t-5 37.5q0 27 24 27t24 -27q0 -16 -5.5 -37.5 t-8.5 -50.5q25 20 44 37.5t34 21.5q10 3 17 -1.5t11 -11.5q7 -19 -13 -31q-15 -8 -36 -14.5t-47 -17.5q26 -11 47.5 -18t35.5 -14q23 -14 12 -34q-10 -18 -28 -10q-15 4 -33.5 21.5t-43.5 36.5q3 -29 8.5 -50t5.5 -38z" />
<glyph unicode="+" horiz-adv-x="569" d="M485 284h-156v-163h-88l-1 163h-162l-1 78q29 0 72 1t91 1v166h89v-165q46 1 87 1h70l6 -6z" />
<glyph unicode="," horiz-adv-x="235" d="M183 44q0 -35 -17 -74t-44.5 -73t-59.5 -56l-10 9q21 30 37 67t22 74q-22 3 -35 17.5t-13 37.5q0 30 17.5 47.5t43.5 17.5q27 0 43 -19t16 -48z" />
<glyph unicode="-" horiz-adv-x="372" d="M36 250v34h300v-34h-300z" />
<glyph unicode="." horiz-adv-x="224" d="M111 -10q-26 0 -42.5 16t-16.5 41q0 27 19 45.5t46 18.5q24 0 39.5 -15t15.5 -39q0 -27 -17 -47t-44 -20z" />
<glyph unicode="/" horiz-adv-x="397" d="M130 -102l-55 13l-3 5l196 779l55 -13l2 -5z" />
<glyph unicode="0" horiz-adv-x="605" d="M561 329q0 -109 -34.5 -185t-93.5 -115t-132 -39q-74 0 -132 38t-91.5 112.5t-33.5 183.5q0 108 36 183t95.5 114t131.5 39q71 0 128.5 -37t91.5 -110.5t34 -183.5zM305 24q59 0 90.5 79t31.5 226t-32 223t-90 76q-61 0 -94 -78.5t-33 -225.5q0 -149 34 -224.5t93 -75.5z " />
<glyph unicode="1" horiz-adv-x="370" d="M338 0h-307l-1 13l73 14q13 3 17 9t4 20v537l-93 5l-2 12l212 50l7 -7v-619l91 -21z" />
<glyph unicode="2" horiz-adv-x="513" d="M55 0l-10 69q82 75 144 136t97 119t35 121q0 54 -32 89.5t-86 35.5q-53 0 -93 -32t-62 -85l-12 4q19 95 81.5 149t149.5 54q59 0 101 -23t64.5 -63t22.5 -91q0 -54 -26.5 -103t-73 -96t-107 -93.5t-128.5 -95.5h264q30 0 44.5 19t29.5 76l11 -1q-1 -27 -4 -60.5 t-7.5 -67.5t-11.5 -61h-391z" />
<glyph unicode="3" horiz-adv-x="495" d="M451 165q0 -52 -33.5 -91.5t-89 -61.5t-121.5 -22q-55 0 -101.5 12t-74 36t-27.5 60q0 30 26 50.5t65 28.5l5 -4q-5 -10 -5 -23q0 -59 28 -93t79 -34q50 0 82.5 34t32.5 96q0 47 -23 78.5t-60 47.5t-79 16q-21 0 -42 -3l-5 22q93 14 144.5 53t51.5 101q0 44 -29.5 72 t-77.5 28q-49 0 -91.5 -29.5t-64.5 -82.5l-11 5q12 60 44.5 105t80 69.5t104.5 24.5q53 0 93 -19.5t63 -53.5t23 -78q0 -51 -27.5 -87.5t-73 -59.5t-100.5 -34q62 -4 110 -24t76 -55.5t28 -83.5z" />
<glyph unicode="4" horiz-adv-x="540" d="M12 201l333 459l74 -7v-450h93l-6 -58h-87v-145h-125v145h-271zM61 203h233v336z" />
<glyph unicode="5" horiz-adv-x="505" d="M469 168q0 -56 -32.5 -96t-87.5 -61t-122 -21q-58 0 -102.5 13.5t-70.5 38t-26 58.5q0 31 26 53t65 29l5 -4q-5 -14 -5 -27q0 -59 27.5 -94t77.5 -35q51 0 81.5 34.5t30.5 91.5q0 93 -70.5 136.5t-191.5 43.5l-10 10l6 312h372q0 -47 -5 -97t-13 -92h-11q-4 40 -9 60 t-16 26.5t-32 6.5h-233l-4 -196q24 3 52 3q88 0 155 -22.5t105 -65.5t38 -105z" />
<glyph unicode="6" horiz-adv-x="567" d="M531 199q0 -62 -30.5 -109t-84 -73.5t-123.5 -26.5q-78 0 -134 32t-85.5 89.5t-29.5 134.5q0 119 54 209t151.5 143t227.5 62l3 -15q-113 -35 -188 -107.5t-101 -187.5q29 19 63.5 27t68.5 8q91 0 149.5 -48.5t58.5 -137.5zM178 229q0 -97 28.5 -152t84.5 -55 q47 0 76.5 43.5t29.5 111.5q0 81 -32.5 125.5t-91.5 44.5q-22 0 -45.5 -5.5t-41.5 -17.5q-8 -45 -8 -95z" />
<glyph unicode="7" horiz-adv-x="472" d="M275 0h-123q3 108 40 210t96 190t128 154h-314q-19 0 -30 -7t-17 -28t-10 -62h-11q-2 25 -1.5 59.5t3 70t6.5 63.5h409l9 -93q-53 -59 -94 -147.5t-65 -194t-26 -215.5z" />
<glyph unicode="8" horiz-adv-x="549" d="M513 162q0 -49 -31.5 -87.5t-87 -61.5t-128.5 -23q-66 0 -118 18.5t-82 53t-30 80.5q0 60 50 103.5t127 60.5q-38 22 -71 47t-53.5 58.5t-20.5 80.5t27.5 85t77.5 60.5t116 22.5q59 0 103.5 -19t69.5 -52t25 -75q0 -41 -20 -70.5t-52.5 -50.5t-69.5 -36 q41 -23 79.5 -49.5t63.5 -61t25 -84.5zM193 532q0 -38 17 -66t45 -50t61 -42q27 29 49 65.5t22 79.5q0 48 -25 78.5t-70 30.5q-46 0 -72.5 -28t-26.5 -68zM154 146q0 -57 32 -90t84 -33q47 0 80.5 27.5t33.5 75.5q0 40 -21 69t-54 52t-70 44q-38 -30 -61.5 -67.5 t-23.5 -77.5z" />
<glyph unicode="9" horiz-adv-x="567" d="M36 451q0 62 30.5 109t84 73.5t123.5 26.5q78 0 133.5 -32t85.5 -89.5t30 -134.5q0 -119 -54 -209t-151.5 -143t-227.5 -62l-4 16q113 34 188.5 106.5t101.5 187.5q-29 -19 -64 -27t-68 -8q-91 0 -149.5 49t-58.5 137zM170 473q0 -81 32.5 -125.5t91.5 -44.5q22 0 45 5.5 t42 17.5q8 45 8 95q0 97 -28.5 152t-84.5 55q-47 0 -76.5 -43.5t-29.5 -111.5z" />
<glyph unicode=":" horiz-adv-x="224" d="M111 338q-26 0 -42.5 16t-16.5 41q0 27 19 45.5t46 18.5q24 0 39.5 -15t15.5 -39q0 -27 -17 -47t-44 -20zM111 -10q-26 0 -42.5 16t-16.5 41q0 27 19 45.5t46 18.5q24 0 39.5 -15t15.5 -39q0 -27 -17 -47t-44 -20z" />
<glyph unicode=";" horiz-adv-x="235" d="M120 338q-26 0 -42 16t-16 41q0 27 18.5 45.5t45.5 18.5q24 0 40 -15t16 -39q0 -27 -17 -47t-45 -20zM183 44q0 -35 -17 -74t-44.5 -73t-59.5 -56l-10 9q21 30 37 67t22 74q-22 3 -35 17.5t-13 37.5q0 30 17.5 47.5t43.5 17.5q27 0 43 -19t16 -48z" />
<glyph unicode="&#x3c;" horiz-adv-x="566" d="M476 542v-95l-297 -123l296 -118v-95q-28 11 -68.5 28t-87 37.5l-93 41t-86.5 39.5t-67 32l-2 6l-1 65z" />
<glyph unicode="=" horiz-adv-x="569" d="M485 388h-407v78q34 1 88 1.5t114.5 1t115 1t90.5 0.5l6 -6zM485 180h-407v78q34 1 88 1.5t114.5 1t115 1t90.5 0.5l6 -6z" />
<glyph unicode="&#x3e;" horiz-adv-x="566" d="M90 109v95l297 123l-296 119v95q28 -12 68.5 -29t87 -37.5l93 -41t86.5 -39.5t68 -32l2 -5v-66z" />
<glyph unicode="?" horiz-adv-x="487" d="M264 212l-10 -5h-10q-21 15 -37.5 36t-16.5 47q0 14 5 24t14 20q14 18 36.5 37.5t45 43t38 54.5t15.5 72q0 52 -26.5 87t-77.5 35q-49 0 -78 -38t-29 -89q0 -32 9 -71q-8 -5 -18 -7.5t-25 -2.5q-36 0 -61.5 20.5t-25.5 54.5q0 46 32.5 83.5t86.5 59.5t119 22t115.5 -21.5 t80 -60.5t29.5 -92q0 -37 -16.5 -67.5t-42.5 -54t-54.5 -42t-52.5 -31.5t-37 -22q-4 -3 -4 -11zM306 55q0 -29 -21 -48t-53 -19q-28 0 -46 15.5t-18 41.5q0 30 22.5 48.5t52.5 18.5q28 0 45.5 -15.5t17.5 -41.5z" />
<glyph unicode="@" horiz-adv-x="1022" d="M757 42q28 0 58 21t55.5 59.5t42 92.5t16.5 121q0 89 -44 158t-122.5 109t-181.5 40q-69 0 -138.5 -22t-132.5 -63t-111.5 -99t-76.5 -130.5t-28 -157.5q0 -95 43.5 -170t122 -118t182.5 -43q95 0 161 25.5t117 57.5l13 -20q-53 -42 -126 -70t-171 -28q-85 0 -155 27 t-121.5 76t-79.5 114t-28 142q0 93 30 172t82.5 142t121 107.5t145.5 68.5t155 24q86 0 156.5 -26t121.5 -72.5t78.5 -109t27.5 -135.5q0 -74 -21 -136.5t-58.5 -109.5t-87 -73t-106.5 -26q-52 0 -84 24.5t-43.5 66.5t-3.5 95q0 2 2 15t4 26.5t3 14.5h-3q-16 -41 -39 -83.5 t-51.5 -78.5t-60 -58t-63.5 -22q-43 0 -71 38t-28 105q0 72 23 139.5t66.5 121t104.5 85t137 31.5q46 0 89.5 -9.5t75.5 -24.5l-19 -59l-42 -187q-21 -91 -7 -139.5t70 -48.5zM386 150q0 -34 7.5 -56.5t25.5 -22.5q15 0 34 21t40.5 56t42 77.5t38 86t29.5 82.5l21 69 q-11 4 -22.5 7t-26.5 3q-37 0 -71 -29t-60.5 -77t-42 -105t-15.5 -112z" />
<glyph unicode="A" horiz-adv-x="667" d="M301 652h64l218 -581q8 -22 17 -31.5t29 -15.5l38 -11l-2 -13h-284l-2 13l82 22l-59 166h-232l-61 -167l82 -21l-2 -13h-187l-2 13l41 10q21 6 28.5 17.5t16.5 33.5zM182 233h209l-103 291z" />
<glyph unicode="B" horiz-adv-x="629" d="M300 619h-56v-270h62q63 0 97 38t34 100q0 63 -38.5 97.5t-98.5 34.5zM307 318h-63v-286h69q67 0 111.5 36.5t44.5 103.5q0 73 -46.5 109.5t-115.5 36.5zM337 0h-289l-2 13l52 11q13 4 17 11t4 21v561l-73 20l1 13h269q71 0 125.5 -19t85 -55.5t30.5 -89.5q0 -39 -18 -69 t-47.5 -50.5t-63.5 -29.5q72 -14 119.5 -55.5t47.5 -106.5q0 -86 -69.5 -130.5t-188.5 -44.5z" />
<glyph unicode="C" horiz-adv-x="604" d="M550 19q-37 -14 -78.5 -21.5t-92.5 -7.5q-101 0 -177.5 39t-119 113.5t-42.5 178.5t44 180t121.5 117.5t175.5 41.5q48 0 89 -8t72 -21q3 -29 3 -61q0 -39 -5 -73.5t-14 -61.5h-9l-72 183q-26 10 -57 10q-60 0 -108.5 -37.5t-77 -106.5t-28.5 -161q0 -94 29 -161.5 t77.5 -103.5t105.5 -36q39 0 67 10l72 187h9q9 -25 14 -61.5t5 -78.5q0 -32 -3 -60z" />
<glyph unicode="D" horiz-adv-x="688" d="M311 0h-263l-2 13l52 11q13 4 17 11t4 21v561l-73 20l1 13h268q98 0 172.5 -37.5t116 -109.5t41.5 -174t-42.5 -175.5t-118 -113.5t-173.5 -40zM301 619h-57v-588h58q102 0 159 80t58 218q0 139 -58 214.5t-160 75.5z" />
<glyph unicode="E" horiz-adv-x="568" d="M520 0h-472l-2 13l52 11q13 4 17 11t4 21v561l-73 20l1 13h465q5 -32 5 -72q0 -71 -15 -122h-9l-73 162q-21 0 -42.5 0.5t-42.5 0.5h-91v-277l186 10l-2 -50l-184 9v-279h95h44.5h44.5l73 166h9q16 -52 16 -124q0 -41 -6 -74z" />
<glyph unicode="F" horiz-adv-x="531" d="M340 0h-292l-2 13l52 11q13 4 17 11t4 21v561l-73 20l1 13h461q6 -33 6 -74q0 -73 -16 -124h-9l-73 166q-21 0 -42.5 0.5t-42.5 0.5h-87v-297l191 10l-2 -50l-189 9v-257l97 -21z" />
<glyph unicode="G" horiz-adv-x="630" d="M562 19q-75 -29 -180 -29q-102 0 -178 38.5t-118.5 112.5t-42.5 180q0 105 45.5 181t124 117t175.5 41q51 0 92 -7.5t72 -21.5q4 -29 4 -61q0 -79 -19 -135h-9l-72 183q-27 10 -61 10q-60 0 -111.5 -36.5t-83 -104.5t-31.5 -163q0 -96 32.5 -163.5t82.5 -103t105 -35.5 q35 0 63 8v245l-75 20l2 12h246l2 -12l-43 -11q-14 -4 -18 -11t-4 -20v-234z" />
<glyph unicode="H" horiz-adv-x="756" d="M317 0h-268l-2 13l51 11q13 4 17 11t4 21v561l-74 20l2 13h268l1 -13l-50 -11q-14 -4 -18 -11t-4 -20v-246h268v268l-74 20l2 13h268l1 -13l-50 -11q-14 -4 -18 -11t-4 -20v-561l74 -21l-1 -13h-268l-2 13l51 11q13 4 17 11t4 21v259h-268v-281l74 -21z" />
<glyph unicode="I" horiz-adv-x="363" d="M317 0h-268l-2 13l51 11q13 4 17 11t4 21v561l-74 20l2 13h268l1 -13l-50 -11q-14 -4 -18 -11t-4 -20v-561l74 -21z" />
<glyph unicode="J" horiz-adv-x="347" d="M245 130q0 -203 -203 -257l-6 9q43 51 63.5 117t20.5 166v452l-74 20l1 13h268l2 -13l-51 -11q-14 -4 -17.5 -11t-3.5 -20v-465z" />
<glyph unicode="K" horiz-adv-x="703" d="M317 0h-268l-2 13l51 11q13 4 17 11t4 21v561l-74 20l2 13h268l1 -13l-50 -11q-14 -4 -18 -11t-4 -20v-260h100l172 282l-75 20l1 13h233l2 -13q-8 -1 -24.5 -7t-23.5 -8q-47 -20 -84.5 -53t-68.5 -78l-51 -81l189 -334q20 -37 56 -51l33 -12l-1 -13l-119 -1 q-44 -1 -65.5 16t-39.5 50l-135 238h-99v-269l74 -21z" />
<glyph unicode="L" horiz-adv-x="551" d="M512 0h-464l-2 13l52 11q13 4 17 11t4 21v561l-74 20l2 13h268l1 -13l-50 -11q-14 -4 -18 -11t-4 -20v-563h96h41.5h41.5l69 198h9q16 -57 16 -143q0 -46 -5 -87z" />
<glyph unicode="M" horiz-adv-x="890" d="M73 650h208l165 -485l169 485h200l1 -13l-77 -20l48 -540q2 -28 10 -37.5t35 -16.5l39 -10l-1 -13h-288l-2 13l84 20l-45 519l-175 -500l-18 -54h-59l-16 54l-169 497l-46 -517l84 -19l-2 -13h-199l-1 13q6 2 23.5 6t22.5 6q23 6 30.5 15.5t9.5 33.5l50 542l-82 21z" />
<glyph unicode="N" horiz-adv-x="679" d="M241 0h-202l-2 13l61 14q13 3 17 9.5t4 19.5v561l-83 20l2 13h173l331 -511v478l-88 20l1 13h203l1 -13l-60 -13q-14 -4 -18 -10.5t-4 -18.5v-595h-92l-330 513v-479l88 -21z" />
<glyph unicode="O" horiz-adv-x="660" d="M614 329q0 -101 -37 -177.5t-102 -119t-150 -42.5q-86 0 -150.5 41t-100 116t-35.5 177t38 177.5t103.5 117t148.5 41.5t147.5 -41t101 -115t36.5 -175zM173 324q-1 -146 40 -223.5t114 -77.5q74 0 113 81.5t40 224.5q0 143 -39 221t-113 78q-75 0 -115 -79.5t-40 -224.5 z" />
<glyph unicode="P" horiz-adv-x="592" d="M308 619h-64v-340h61q67 0 105.5 43.5t38.5 130.5q0 76 -37.5 121t-103.5 45zM340 0h-292l-2 13l52 11q13 4 17 11t4 21v561l-73 20l1 13h273q115 0 185 -51t70 -147q0 -67 -33 -112.5t-91 -68.5t-133 -23h-74v-214l97 -21z" />
<glyph unicode="Q" horiz-adv-x="660" d="M613 329q0 -94 -32 -167t-89.5 -117.5t-132.5 -52.5q59 -33 131 -51.5t150 -18.5q22 0 43 1.5t36 4.5l3 -1q2 -6 2 -16q0 -38 -24.5 -60.5t-69.5 -22.5q-52 0 -107 21.5t-108.5 58.5t-101.5 82q-82 3 -144 45t-96 115.5t-34 173.5q0 102 38 177.5t103.5 117t148.5 41.5 t147.5 -41t100.5 -115t36 -175zM173 324q-1 -146 40 -223.5t114 -77.5q74 0 113 81.5t40 224.5q0 143 -39 221t-113 78q-75 0 -115 -79.5t-40 -224.5z" />
<glyph unicode="R" horiz-adv-x="675" d="M317 0h-268l-2 13l51 11q13 4 17 11t4 21v561l-73 20l1 13h276q76 0 133.5 -21t90.5 -62.5t33 -102.5q0 -60 -34.5 -100t-88.5 -63l131 -226q20 -37 52 -50l35 -12l-1 -13l-123 -1q-41 -1 -62.5 15t-37.5 50l-109 211q-15 -2 -17 -2h-81v-239l74 -21zM306 619h-62v-315 h63q63 0 105 41.5t42 115.5t-40.5 116t-107.5 42z" />
<glyph unicode="S" horiz-adv-x="511" d="M477 167q0 -61 -32.5 -100t-89 -58t-126.5 -19q-65 0 -112 10.5t-66 27.5q-9 7 -13 20t-4 36q0 33 11 68t22 57l9 -1l61 -170q12 -6 33 -11.5t47 -5.5q57 0 93 30t36 81q0 40 -22.5 68t-57.5 49.5t-74.5 42.5t-74.5 46.5t-57 61.5t-22 88q0 54 32 92.5t86.5 59 t120.5 20.5q69 0 111.5 -12t56.5 -24q15 -13 15 -52q0 -19 -6 -42.5t-15 -45t-17 -34.5l-9 1l-54 165q-13 6 -30 9.5t-40 3.5q-55 0 -90.5 -27.5t-35.5 -76.5q0 -41 22.5 -70t58.5 -52t76 -45t76 -47.5t58.5 -60t22.5 -83.5z" />
<glyph unicode="T" horiz-adv-x="579" d="M425 0h-268l-2 13l51 11q13 4 17 11t4 21v563h-54q-16 0 -32 -0.5t-32 -0.5l-67 -183h-9q-8 26 -12 59.5t-4 71.5q0 46 6 84h534q5 -38 5 -84q0 -38 -4 -71.5t-11 -59.5h-9l-68 183q-16 0 -32 0.5t-31 0.5h-55v-585l74 -21z" />
<glyph unicode="U" horiz-adv-x="692" d="M588 223q0 -115 -63 -174t-171 -59q-67 0 -121.5 26t-86.5 78.5t-32 130.5v392l-74 20l2 13h268l1 -13l-50 -11q-14 -4 -18 -11t-4 -20v-363q0 -97 43 -147.5t113 -50.5q67 0 112.5 48t45.5 145v390l-84 20l2 13h198l1 -13l-82 -20v-394z" />
<glyph unicode="V" horiz-adv-x="662" d="M364 -2h-64l-216 581q-8 21 -17.5 31t-25.5 16l-41 11l2 13h277l2 -13l-77 -22l172 -487l162 487l-81 22l1 13h203l1 -13q-5 -2 -16.5 -5.5t-22 -8t-13.5 -7.5q-19 -11 -29.5 -30.5t-22.5 -52.5z" />
<glyph unicode="W" horiz-adv-x="1008" d="M356 -2h-64l-208 581q-8 21 -17.5 31t-25.5 16l-41 11l2 13h277l2 -13l-77 -22l165 -485l117 368l-26 81q-7 21 -17 31t-26 16l-46 11l2 13h282l2 -13l-78 -22l151 -485l154 485l-81 22l1 13h203l1 -13q-5 -2 -16 -5.5t-21.5 -7.5t-13.5 -7q-20 -10 -30.5 -29.5 t-22.5 -54.5l-187 -535h-64l-147 441z" />
<glyph unicode="X" horiz-adv-x="665" d="M135 99l143 197l-178 284q-14 21 -24.5 31.5t-27.5 16.5l-34 9l2 13h279l1 -13l-75 -19l148 -236l138 234l-73 21l2 13h211l1 -13q-8 -1 -19 -4t-18 -5q-20 -7 -37.5 -23.5t-46.5 -53.5l-142 -195l181 -287q14 -22 25.5 -32.5t25.5 -14.5l34 -9l-2 -13h-278l-2 13l75 19 l-149 238l-140 -236l73 -21l-1 -13h-211l-2 13q8 2 19 5t19 5q19 7 36.5 23t46.5 53z" />
<glyph unicode="Y" horiz-adv-x="643" d="M457 0h-268l-2 13l51 11q13 4 17 11t4 21v187l-176 341q-10 18 -18.5 27t-23.5 15l-41 11l2 13h277l2 -13l-76 -22l159 -344l158 345l-74 21l2 13h192l1 -13q-18 -6 -36 -14q-20 -11 -35 -29.5t-30 -47.5l-158 -303v-209l74 -21z" />
<glyph unicode="Z" horiz-adv-x="581" d="M529 89q0 -24 -1.5 -46t-4.5 -43h-462l-10 54l344 565h-242l-75 -188h-9q-16 55 -16 135q0 46 6 84h460l10 -53l-342 -566h240l77 189h9q16 -52 16 -131z" />
<glyph unicode="[" horiz-adv-x="413" d="M361 -107h-229v802h229v-31h-109v-739h109v-32z" />
<glyph unicode="\" horiz-adv-x="397" d="M268 -102l-196 779l3 5l55 13l195 -779l-2 -5z" />
<glyph unicode="]" horiz-adv-x="413" d="M52 695h229v-802h-229v32h109v739h-109v31z" />
<glyph unicode="^" horiz-adv-x="526" d="M165 205h-97l150 343h87l153 -343h-97l-101 242z" />
<glyph unicode="_" horiz-adv-x="556" d="M44 -185v34h468v-34h-468z" />
<glyph unicode="`" horiz-adv-x="325" d="M264 573l-8 -9q-55 15 -98.5 36t-68.5 44.5t-25 46.5q0 22 17.5 33t45.5 11q7 0 12 -0.5t10 -0.5q17 -31 48.5 -75.5t66.5 -85.5z" />
<glyph unicode="a" horiz-adv-x="519" d="M512 46q-13 -20 -36.5 -38t-62.5 -18q-42 0 -66.5 24.5t-27.5 63.5q-19 -34 -57 -61t-95 -27q-54 0 -90.5 31.5t-36.5 84.5t36 88t99 53.5t144 21.5v115q0 49 -16 71.5t-50 22.5q-37 0 -61 -27t-24 -66q0 -10 1 -23t4 -26q-29 -13 -56 -13q-25 0 -41.5 12t-16.5 37 q0 34 28 66t75.5 52t103.5 20q86 0 131 -41.5t45 -129.5q0 -57 -1.5 -116t-1.5 -108q0 -36 10 -51.5t31 -15.5q15 0 28 5zM166 128q0 -37 19 -55t46 -18q28 0 52.5 16t35.5 42v130q-66 -5 -109.5 -33t-43.5 -82z" />
<glyph unicode="b" horiz-adv-x="549" d="M511 252q0 -90 -30 -148t-80.5 -86t-112.5 -28q-34 0 -67 6t-62 15l-81 -21l-6 5v649l-64 10l-1 12q24 7 55.5 13.5t64 10.5t58.5 5l7 -7v-272q24 41 62.5 67.5t87.5 26.5q79 0 124 -68.5t45 -189.5zM282 436q-29 0 -53.5 -17t-36.5 -44v-324q19 -9 38 -14t40 -5 q59 0 87 57.5t28 149.5t-25 144.5t-78 52.5z" />
<glyph unicode="c" horiz-adv-x="468" d="M38 244q0 82 31 141.5t83.5 92t117.5 32.5q56 0 95.5 -20.5t60.5 -53.5t21 -72q0 -29 -17 -42t-42 -13q-15 0 -26.5 3.5t-19.5 8.5q1 5 1 11q0 70 -18 108t-56 38q-47 0 -76 -51.5t-29 -143.5q0 -102 43 -154t115 -52q36 0 67 13t58 33l7 -8q-13 -33 -37.5 -61.5 t-62.5 -46t-92 -17.5q-66 0 -116.5 30.5t-79 87.5t-28.5 136z" />
<glyph unicode="d" horiz-adv-x="558" d="M38 233q0 93 32 154.5t87 92t123 30.5q40 0 78 -9v143l-64 10l-1 12q24 7 55.5 13.5t64 10.5t58.5 5l7 -7v-573q0 -36 9.5 -51.5t29.5 -15.5q14 0 29 5l4 -7q-16 -24 -40 -40t-60 -16q-40 0 -64.5 24.5t-27.5 63.5q-20 -35 -57 -61.5t-88 -26.5q-78 0 -126.5 63.5 t-48.5 179.5zM164 252q0 -95 28.5 -146t79.5 -51q25 0 50.5 16.5t35.5 42.5v336q-26 18 -62 18q-65 0 -98.5 -59.5t-33.5 -156.5z" />
<glyph unicode="e" horiz-adv-x="483" d="M454 115q-24 -55 -72 -90t-124 -35q-65 0 -114.5 30.5t-77.5 87t-28 133.5q0 85 31 145t84 92t117 32q88 0 137.5 -55.5t49.5 -142.5q0 -25 -4 -51l-7 -6h-281q6 -90 48.5 -134t108.5 -44q39 0 68 12t57 34zM164 285v-4l170 7q1 12 1.5 22.5t0.5 21.5q0 68 -15.5 107 t-57.5 39q-45 0 -72 -50.5t-27 -142.5z" />
<glyph unicode="f" horiz-adv-x="366" d="M292 0h-267l-2 12l44 11q13 5 17 11.5t4 20.5v394h-70l-2 12l72 18q3 62 27.5 110.5t69 77t106.5 28.5q39 0 69.5 -14t48 -36t17.5 -48q0 -23 -17.5 -34t-42.5 -11q-12 0 -25 3q-1 50 -17.5 79t-45.5 29q-36 0 -55.5 -29.5t-19.5 -89.5q0 -12 1.5 -27.5t3.5 -38.5h145 v-29h-145v-416l85 -21z" />
<glyph unicode="g" horiz-adv-x="487" d="M479 -31q0 -71 -64.5 -117.5t-190.5 -46.5q-57 0 -107 11.5t-80.5 35t-30.5 58.5q0 26 18 45.5t47.5 31t62.5 14.5q-1 1 -2 3q-22 9 -37.5 28t-15.5 47q0 32 23.5 57t58.5 35q-57 15 -90.5 55.5t-33.5 103.5q0 54 27.5 94t74.5 62t105 22q77 0 129.5 2.5t101.5 10.5 q5 -6 8 -14.5t3 -20.5q0 -34 -40 -34q-17 0 -45 5t-59 11l-2 -3q36 -17 62 -52t26 -82q0 -54 -25.5 -91.5t-70.5 -57t-102 -19.5q-23 0 -45 3q-7 -7 -11.5 -15.5t-4.5 -17.5q0 -32 54 -37l91 -5q76 -6 120.5 -34.5t44.5 -87.5zM153 330q0 -63 19.5 -99t59.5 -36t60.5 36.5 t20.5 103.5q0 58 -17.5 95.5t-58.5 37.5q-42 0 -63 -39t-21 -99zM107 -79q0 -39 35 -61.5t98 -22.5q62 0 102.5 24t40.5 61q0 27 -24 40.5t-69 16.5l-79 5q-27 0 -44 3q-28 -11 -44 -27.5t-16 -38.5z" />
<glyph unicode="h" horiz-adv-x="581" d="M264 0h-247l-2 12l44 11q13 5 17 11.5t4 20.5v589l-64 10l-1 12q24 7 55.5 13.5t64 10.5t58.5 5l7 -7v-285q26 44 68.5 75.5t99.5 31.5q66 0 99.5 -39.5t33.5 -110.5v-327l65 -21l-2 -12h-247l-1 12l43 11q13 5 17.5 11.5t4.5 20.5v280q0 46 -19.5 71t-61.5 25 q-28 0 -55.5 -16.5t-44.5 -44.5v-337l65 -21z" />
<glyph unicode="i" horiz-adv-x="288" d="M218 655q0 -31 -22.5 -50.5t-55.5 -19.5q-30 0 -48.5 16t-18.5 44q0 30 23.5 50t55.5 20q29 0 47.5 -16.5t18.5 -43.5zM272 0h-247l-2 12l44 11q13 5 17 11.5t4 20.5v404l-64 10l-1 12q24 7 55.5 13.5t64 10.5t58.5 5l7 -7v-470l65 -21z" />
<glyph unicode="j" horiz-adv-x="272" d="M209 656q0 -32 -22.5 -51.5t-56.5 -19.5q-29 0 -47.5 16.5t-18.5 43.5q0 31 23.5 50.5t55.5 19.5q29 0 47.5 -16t18.5 -43zM7 -184q24 33 40.5 68.5t24.5 82t8 110.5v382l-64 10l-1 12q24 7 55.5 13.5t64 10.5t58.5 5l7 -7v-440q0 -102 -40 -164.5t-145 -93.5z" />
<glyph unicode="k" horiz-adv-x="566" d="M264 0h-247l-2 12l44 11q13 5 17 11.5t4 20.5v589l-64 10l-1 12q24 7 55.5 13.5t64 10.5t58.5 5l7 -7v-410h80l112 195l-65 15l1 12h223l1 -12l-50 -17q-23 -10 -43.5 -25.5t-40.5 -36.5l-56 -71l126 -255q13 -26 26.5 -40.5t32.5 -24.5q5 -2 9.5 -3t9.5 -2l-2 -13h-113 q-33 0 -49.5 16t-32.5 49l-91 183h-78v-215l65 -21z" />
<glyph unicode="l" horiz-adv-x="280" d="M264 0h-247l-2 12l44 11q13 5 17 11.5t4 20.5v589l-64 10l-1 12q24 7 55.5 13.5t64 10.5t58.5 5l7 -7v-655l65 -21z" />
<glyph unicode="m" horiz-adv-x="872" d="M272 0h-247l-2 12l44 11q13 5 17 11.5t4 20.5v404l-64 10l-1 12q24 7 55.5 13.5t64 10.5t58.5 5l7 -7v-96q26 43 67 73t95 30q55 0 86.5 -28.5t40.5 -80.5q25 46 68 77.5t100 31.5q62 0 94.5 -39.5t32.5 -109.5v-328l65 -21l-1 -12h-247l-2 12l44 11q13 5 17 11.5t4 20.5 v280q0 96 -76 96q-26 0 -52 -15t-44 -42v-14v-327l65 -21l-1 -12h-247l-2 12l44 11q13 5 17 11.5t4 20.5v280q0 96 -77 96q-25 0 -51.5 -15t-43.5 -41v-342l65 -21z" />
<glyph unicode="n" d="M272 0h-247l-2 12l44 11q13 5 17 11.5t4 20.5v404l-64 10l-1 12q24 7 55.5 13.5t64 10.5t58.5 5l7 -7v-102q26 46 69 77.5t99 31.5q66 0 99.5 -39.5t33.5 -110.5v-327l65 -21l-2 -12h-247l-1 12l43 11q13 5 17.5 11.5t4.5 20.5v280q0 96 -80 96q-27 0 -55.5 -16.5 t-45.5 -44.5v-337l65 -21z" />
<glyph unicode="o" horiz-adv-x="527" d="M490 260q0 -80 -28.5 -141t-79.5 -95t-121 -34q-67 0 -117 29.5t-78 85t-28 134.5q0 85 29.5 145.5t81.5 93t120 32.5q66 0 115.5 -30.5t77.5 -87t28 -132.5zM164 255q0 -122 24 -177.5t76 -55.5t76 57t24 169q0 119 -24 174.5t-74 55.5t-76 -54t-26 -169z" />
<glyph unicode="p" horiz-adv-x="558" d="M284 -185h-267l-2 12l44 11q13 5 17 11.5t4 20.5v593l-64 10l-1 12q24 7 55.5 13.5t64 10.5t58.5 5l7 -7v-92q23 41 62 68t89 27q79 0 124 -65.5t45 -186.5q0 -90 -30 -149.5t-80.5 -89t-112.5 -29.5q-25 0 -49.5 3.5t-47.5 8.5v-154l85 -21zM291 436q-29 0 -54 -17 t-37 -45v-323q19 -9 38 -14t41 -5q39 0 65 27.5t38 75.5t12 109q0 92 -25 142t-78 50z" />
<glyph unicode="q" horiz-adv-x="550" d="M542 -185h-247l-2 12l44 11q13 5 17 11.5t4 20.5v207q-20 -35 -57.5 -61t-87.5 -26q-78 0 -126.5 63.5t-48.5 179.5q0 93 32 154.5t87 92t123 30.5q31 0 59.5 -5.5t53.5 -14.5l80 20l5 -5v-657l65 -21zM164 252q0 -95 28.5 -146t79.5 -51q25 0 50.5 16.5t35.5 42.5v336 q-26 18 -62 18q-65 0 -98.5 -59.5t-33.5 -156.5z" />
<glyph unicode="r" horiz-adv-x="421" d="M292 0h-267l-2 12l44 11q13 5 17 11.5t4 20.5v404l-64 10l-1 12q24 7 55.5 13.5t64 10.5t58.5 5l7 -7v-128q21 57 53.5 96t76.5 39q34 0 53 -21.5t19 -53.5q0 -19 -6.5 -35.5t-13.5 -24.5l-5 -2q-17 10 -35.5 15.5t-41.5 5.5q-31 0 -57 -15t-43 -34v-312l85 -21z" />
<glyph unicode="s" horiz-adv-x="443" d="M198 -10q-54 0 -91 7.5t-51 17.5q-8 6 -13 19.5t-5 36.5q0 28 11.5 54.5t26.5 41.5l10 -3q7 -36 14 -63t19 -45q21 -34 82 -34q39 0 61.5 20t22.5 52q0 30 -17.5 51t-44 37.5t-57 33.5t-57 37t-43.5 47.5t-17 67.5q0 46 26 77.5t71 48t101 16.5q58 0 91.5 -11t44.5 -22 q6 -6 10.5 -17.5t4.5 -30.5q0 -27 -14 -52.5t-29 -40.5l-11 3q-6 36 -13 62t-16 44q-19 33 -70 33q-37 0 -59.5 -19t-22.5 -53q0 -29 17.5 -50.5t45 -39t58.5 -34.5t58.5 -37t45 -47.5t17.5 -64.5q0 -48 -27 -80t-74 -47.5t-106 -15.5z" />
<glyph unicode="t" horiz-adv-x="373" d="M337 476v-28h-145v-267q0 -104 75 -104q25 0 48.5 11.5t44.5 30.5l8 -7q-14 -31 -36.5 -59t-54.5 -45.5t-73 -17.5q-64 0 -98 40.5t-34 119.5v298h-71l-2 12l69 23l115 147l9 -2v-152h145z" />
<glyph unicode="u" d="M575 44q-14 -20 -39 -37t-62 -17q-43 0 -68 28t-25 71v6q-23 -41 -62 -73t-99 -32q-67 0 -103.5 40t-36.5 112v317l-64 10l-1 12q24 7 55.5 13.5t64 10.5t58.5 5l7 -7v-337q0 -96 81 -97q59 1 100 60v330l-65 10l-1 12q24 7 56 13.5t64 10.5t58 5l8 -7v-388 q0 -36 9.5 -51.5t30.5 -15.5q15 0 29 5z" />
<glyph unicode="v" horiz-adv-x="529" d="M307 0h-87l-147 425q-8 24 -17 36t-26 21l-30 6l2 12h255l1 -12l-65 -21l114 -373l116 374l-65 20l1 12h168l2 -12q-3 -2 -14 -5.5t-21 -7t-11 -5.5q-13 -7 -20.5 -18.5t-13.5 -29.5z" />
<glyph unicode="w" horiz-adv-x="798" d="M408 500h65l111 -404l109 372l-66 20l2 12h168l1 -12q-3 -2 -14 -6t-21.5 -8t-12.5 -6q-21 -12 -31 -46l-135 -422h-87l-101 310l-97 -310h-86l-140 425q-8 24 -17 36t-26 21l-30 6l2 12h255l1 -12l-66 -21l107 -371z" />
<glyph unicode="x" horiz-adv-x="543" d="M82 432q-15 21 -26.5 32.5t-30.5 19.5l-25 4l2 12h258l1 -12l-67 -17l118 -178l90 179l-65 16l2 12h203l1 -12q-1 -1 -10 -4t-18 -6.5t-12 -6.5q-12 -6 -23 -16t-25 -26q-8 -9 -29.5 -36t-48.5 -60.5t-50 -61.5l136 -205q11 -17 22 -29t26 -19l32 -6l-1 -12h-258l-2 12 l67 17l-118 178l-90 -179l65 -16l-1 -12h-203l-2 12q1 1 10.5 4.5t19.5 7.5t13 7q10 5 20.5 14.5t24.5 26.5q8 8 29.5 35t48.5 60.5t50 61.5z" />
<glyph unicode="y" horiz-adv-x="529" d="M119 -195q-36 0 -58 18.5t-22 47.5q0 11 3 20.5t7 16.5q12 -5 32 -9.5t42 -4.5q45 0 86.5 25.5t65.5 76.5h-53l-149 429q-8 24 -17 36t-26 21l-30 6l2 12h255l1 -12l-66 -21l115 -373l117 375l-66 19l1 12h168l2 -12l-36 -8q-18 -7 -27 -21t-17 -37l-133 -396 q-20 -60 -47.5 -110t-64 -80.5t-85.5 -30.5z" />
<glyph unicode="z" horiz-adv-x="461" d="M428 76q0 -42 -5 -76h-383l-8 45l271 429h-175l-70 -158h-9q-16 46 -16 113q0 39 6 71h382l8 -45l-269 -429h172l71 159h10q15 -43 15 -109z" />
<glyph unicode="{" horiz-adv-x="424" d="M92 301q54 3 71.5 28t17.5 61q0 28 -10 58t-20 62t-10 64q0 59 52 90t178 31l1 -26q-55 -2 -80.5 -25t-25.5 -66q0 -30 9 -58.5t18.5 -57t9.5 -57.5q0 -49 -36.5 -78t-97.5 -38q60 -10 97 -39t37 -76q0 -29 -9.5 -57.5t-18.5 -58t-8 -58.5q0 -88 105 -90l-1 -27 q-125 0 -177 31t-52 90q0 32 9.5 64.5t19.5 63t10 56.5q0 35 -17.5 60.5t-71.5 29.5v23z" />
<glyph unicode="|" horiz-adv-x="325" d="M193 -191l-55 -4l-6 7v879l55 4l6 -6v-880z" />
<glyph unicode="}" horiz-adv-x="404" d="M332 278q-54 -4 -71.5 -29t-17.5 -60q0 -28 10 -58.5t20 -62t10 -64.5q0 -58 -52.5 -89.5t-177.5 -31.5l-1 27q54 1 80 24t26 66q0 30 -9.5 58.5t-18.5 57t-10 58.5q0 48 37 77t97 38q-60 10 -96.5 39t-36.5 77q0 28 9.5 56.5t18.5 58t8 59.5q0 87 -105 90l1 26 q125 0 177 -31t52 -89q0 -33 -10 -65.5t-19.5 -63t-9.5 -55.5q0 -36 17.5 -61.5t71.5 -28.5v-23z" />
<glyph unicode="~" horiz-adv-x="535" d="M143 248q-9 0 -25 -17t-35 -40l-43 21q12 25 28.5 53t36 48t41.5 20q19 0 53 -8t72 -18.5t70 -18.5t47 -8q8 0 24 17t36 41l43 -21q-13 -25 -29 -53.5t-35.5 -48t-42.5 -19.5q-18 0 -52.5 7.5t-73 18t-70.5 18.5t-45 8z" />
<glyph unicode="&#xa1;" horiz-adv-x="351" d="M110 450q0 30 21.5 48.5t53.5 18.5q28 0 45.5 -15.5t17.5 -41.5q0 -29 -22.5 -47.5t-52.5 -18.5q-28 0 -45.5 15t-17.5 41zM253 -180l-4 -7q-33 -5 -64.5 -7t-53.5 -2q-33 0 -33 28q0 17 3 39.5l7 52.5l47 381h44z" />
<glyph unicode="&#xa2;" horiz-adv-x="513" d="M61 244q0 77 28 134.5t75.5 91t106.5 39.5v111l34 3l6 -6v-108q76 -5 117.5 -47.5t41.5 -97.5q0 -29 -17 -42t-41 -13q-15 0 -27 3.5t-20 8.5q2 5 2 11q0 70 -18.5 108t-56.5 38q-47 0 -76 -51.5t-29 -143.5q0 -102 43.5 -154t114.5 -52q37 0 67.5 13t57.5 33l8 -8 q-19 -45 -59 -81t-108 -43v-111l-33 -2l-7 5v107q-62 4 -109.5 35.5t-74 87t-26.5 131.5z" />
<glyph unicode="&#xa3;" horiz-adv-x="564" d="M446 295h-157l-5 -34q-12 -68 -37 -123.5t-59 -91.5q37 -14 80 -32t94 -31t113 -13q25 0 47 4q3 -10 3 -18q0 -32 -20 -57t-62 -26q-40 1 -76.5 18.5t-70.5 42.5t-68 49t-71 35q-39 -28 -79 -28q-22 0 -33.5 10t-11.5 25q0 16 16 30t47 13q15 0 30.5 -3t31.5 -8 q15 37 22 114q0 14 1.5 48.5t4.5 75.5h-114l5 34h111q2 37 4.5 71t5.5 53q13 103 69 162.5t146 59.5q66 0 105 -30t39 -68q0 -25 -20 -40t-44 -18q-27 123 -79 123q-39 0 -61.5 -40t-36.5 -127l-22 -146h157z" />
<glyph unicode="&#xa4;" horiz-adv-x="525" d="M437 116l-71 72q-21 -19 -49.5 -29.5t-62.5 -10.5q-31 0 -56.5 8t-45.5 23l-64 -64l-30 31l63 63q-36 47 -36 112q0 64 41 115l-67 68l29 29q31 -31 68 -69q21 16 47 25t56 9q32 0 59 -10t48 -27l71 72l30 -31l-72 -72q32 -45 33 -102q-1 -61 -34 -109q20 -20 38.5 -37.5 t33.5 -31.5v-9zM258 440q-55 0 -84 -35.5t-29 -81.5t28.5 -82t83.5 -36q38 0 62.5 17.5t36.5 45t12 57.5q0 44 -28.5 79.5t-81.5 35.5z" />
<glyph unicode="&#xa5;" horiz-adv-x="639" d="M455 0h-268l-2 13l51 11q13 4 17 11t4 21v77h-146v34h146v61h-146v34h145l-175 322q-10 18 -18.5 27t-23.5 15l-41 11l2 13h277l2 -13l-76 -22l159 -326l158 327l-74 21l2 13h192l1 -13q-18 -6 -36 -14q-20 -11 -34.5 -29.5t-30.5 -47.5l-157 -284h146v-34h-147v-61h147 v-34h-147v-99l74 -21z" />
<glyph unicode="&#xa6;" horiz-adv-x="325" d="M193 325l-55 -4l-6 7v363l55 4l6 -6v-364zM193 -191l-55 -4l-6 7v364l55 4l6 -6v-365z" />
<glyph unicode="&#xa7;" horiz-adv-x="583" d="M521 71q0 -68 -36 -120.5t-96.5 -81.5t-133.5 -29q-54 0 -96.5 12.5t-67 34t-24.5 49.5q0 40 45 65h9q53 -88 151 -127q22 9 35 34.5t13 59.5q0 38 -18.5 74t-48 71t-62.5 70.5t-62.5 73.5t-48 81t-18.5 92q0 68 38 120t100.5 81t137.5 29q51 0 91 -13t63.5 -35.5 t23.5 -50.5q0 -42 -45 -67h-9q-31 47 -70 81t-88 53q-16 -12 -28.5 -38.5t-12.5 -65.5t18.5 -75t48 -70t62.5 -69t62 -71.5t48 -78t19 -89.5zM355 -101l5 -3q43 23 68 63.5t25 91.5q0 46 -18.5 85t-47.5 74.5t-61.5 69t-61.5 68.5t-47.5 74t-18.5 85q0 24 7 47.5t22 42.5 l-5 4q-43 -24 -67.5 -62.5t-24.5 -86.5q0 -46 18 -86t47 -75.5t62 -70t62 -69.5t47.5 -74t18.5 -83q0 -26 -7.5 -50.5t-22.5 -44.5z" />
<glyph unicode="&#xa8;" horiz-adv-x="468" d="M190 656q0 -30 -20 -48.5t-50 -18.5q-26 0 -42 15.5t-16 40.5q0 29 21 47.5t49 18.5q26 0 42 -15t16 -40zM407 656q0 -30 -20 -48.5t-50 -18.5q-26 0 -42 15.5t-16 40.5q0 29 21 47.5t49 18.5q26 0 42 -15t16 -40z" />
<glyph unicode="&#xa9;" horiz-adv-x="674" d="M337 -11q-75 0 -135 34.5t-95 93.5t-35 133q0 53 20.5 100.5t57 83t84.5 56t103 20.5q75 0 135 -35t95 -94.5t35 -130.5q0 -54 -21 -101t-57.5 -83t-84.5 -56.5t-102 -20.5zM337 23q64 0 115.5 30.5t82.5 82.5t31 114t-31 113.5t-83 82.5t-115 31t-115 -31t-83 -82.5 t-31 -113.5q0 -65 30 -116.5t82 -81t117 -29.5zM459 169q-15 -27 -43 -48.5t-72 -21.5q-54 0 -93 38.5t-39 109.5q0 69 39 111.5t97 42.5q45 0 74.5 -25t29.5 -62q0 -17 -10 -25t-22 -8q-16 0 -29 7q1 5 1 9q0 34 -12 53.5t-35 19.5q-28 0 -46.5 -29t-18.5 -79 q0 -52 23.5 -82t64.5 -30q25 0 43.5 8t36.5 22z" />
<glyph unicode="&#xaa;" horiz-adv-x="412" d="M405 368q-10 -15 -28.5 -28t-49.5 -14q-32 0 -51.5 17.5t-21.5 44.5q-15 -24 -44 -42.5t-72 -18.5q-42 0 -70 22t-28 61q0 56 60 84.5t154 31.5v83q0 67 -49 67q-28 0 -46 -19t-18 -47q0 -16 4 -36q-23 -10 -44 -10t-33.5 9t-12.5 27q0 24 22 46.5t58 37.5t80 15 q67 0 102 -30t35 -94q0 -8 -0.5 -31t-1 -51t-0.5 -49.5v-26.5q0 -48 30 -48q6 0 11.5 1t10.5 3zM140 426q0 -26 14.5 -39t34.5 -13q21 0 39 11t26 28v94q-50 -3 -82 -23t-32 -58z" />
<glyph unicode="&#xab;" horiz-adv-x="526" d="M453 61l-12 -8q-46 52 -95 100t-85 77l-3 5v33q47 41 96 90t89 94l11 -8q-22 -48 -49 -98t-55 -97q24 -36 51.5 -86t51.5 -102zM267 61l-12 -8q-46 52 -95 100t-85 77l-3 5v33q47 41 96 90t89 94l11 -8q-22 -48 -49 -98t-55 -97q24 -36 51.5 -86t51.5 -102z" />
<glyph unicode="&#xac;" horiz-adv-x="569" d="M481 375v-228h-87v152h-326v79q34 1 87.5 2t113.5 1.5t114 1t90 0.5z" />
<glyph unicode="&#xae;" horiz-adv-x="674" d="M337 -11q-75 0 -135 34.5t-95 93.5t-35 133q0 53 20.5 100.5t57 83t84.5 56t103 20.5q75 0 135 -35t95 -94.5t35 -130.5q0 -54 -21 -101t-57.5 -83t-84.5 -56.5t-102 -20.5zM337 23q64 0 115.5 30.5t82.5 82.5t31 114t-31 113.5t-83 82.5t-115 31t-115 -31t-83 -82.5 t-31 -113.5q0 -65 30 -116.5t82 -81t117 -29.5zM336 363h-27v-114h32q29 0 45 14t16 43q0 57 -66 57zM309 133l38 -12l-1 -12h-135l-1 12l23 6q8 2 10 7.5t2 17.5v196q0 17 -12 21l-23 8l1 15h137q54 0 85.5 -23t31.5 -61q0 -30 -17 -49t-41 -28l16 -23q20 -31 34 -53 t29 -29l11 -5l-1 -12l-47 -2q-23 -2 -33 7t-20 25l-51 82q-9 -1 -11 -1h-25v-87z" />
<glyph unicode="&#xaf;" horiz-adv-x="411" d="M62 615v65h288v-65h-288z" />
<glyph unicode="&#xb0;" horiz-adv-x="349" d="M172 428q-46 0 -79.5 30t-33.5 83q0 51 34.5 85t83.5 34q48 0 80.5 -30.5t32.5 -81.5q0 -50 -33 -85t-85 -35zM175 620q-34 0 -53 -23t-19 -54q0 -33 20 -54t51 -21q33 0 52.5 22.5t19.5 54.5t-19 53.5t-52 21.5z" />
<glyph unicode="&#xb1;" horiz-adv-x="564" d="M483 363h-156v-163h-88l-1 163h-162l-1 78q29 0 72 1t91 1v166h89v-165q46 1 87 1h70l6 -6zM482 65h-407v78q35 1 89 1.5t114 1t114.5 1t90.5 0.5l6 -6z" />
<glyph unicode="&#xb2;" horiz-adv-x="365" d="M57 372l-7 47q73 54 118 99.5t45 95.5q0 30 -18.5 48.5t-51.5 18.5q-31 0 -54.5 -17t-36.5 -45l-8 2q12 53 53.5 84.5t96.5 31.5q56 0 87.5 -28.5t31.5 -72.5q0 -40 -30 -73.5t-78.5 -65.5t-105.5 -66h164q21 0 31 10.5t19 40.5l8 -1q-1 -23 -5 -54.5t-10 -54.5h-249z " />
<glyph unicode="&#xb3;" horiz-adv-x="376" d="M332 463q0 -29 -22 -51t-57.5 -34.5t-77.5 -12.5q-35 0 -64.5 7t-48 20t-18.5 33q0 17 18.5 29t44.5 16l4 -2q-3 -5 -3 -11q0 -32 15 -50.5t45 -18.5q28 0 46 17.5t18 49.5q0 39 -28.5 58.5t-65.5 19.5q-6 0 -12 -0.5t-12 -1.5l-4 13q52 8 81 28.5t29 53.5q0 24 -17.5 39 t-46.5 15q-28 0 -52.5 -16t-38.5 -43l-7 2q11 52 52.5 83t96.5 31q50 0 81.5 -23.5t30.5 -61.5q0 -29 -17 -49.5t-45.5 -32.5t-60.5 -18q58 -3 97 -26t39 -63z" />
<glyph unicode="&#xb4;" horiz-adv-x="321" d="M256 691q0 -21 -24.5 -44.5t-66.5 -44.5t-95 -36l-8 9q33 41 63.5 84t47.5 74q4 0 9.5 0.5t12.5 0.5q27 0 44 -11t17 -32z" />
<glyph unicode="&#xb6;" horiz-adv-x="598" d="M335 190q-84 0 -148 26.5t-99.5 77.5t-35.5 126q0 74 35 125.5t98 78t148 26.5h211l2 -12l-41 -11q-14 -4 -17.5 -11t-3.5 -20v-542q0 -106 -53 -160t-141 -54q-81 0 -129 32.5t-48 87.5q0 36 26.5 62t61.5 38l7 -5q-8 -11 -12 -21.5t-4 -23.5q6 -58 33.5 -96.5 t83.5 -38.5q54 0 84 45t30 124v572h-80v-426h-8z" />
<glyph unicode="&#xb7;" horiz-adv-x="304" d="M151 227q-26 0 -42.5 16t-16.5 41q0 27 19 45.5t46 18.5q24 0 39.5 -15t15.5 -39q0 -27 -17 -47t-44 -20z" />
<glyph unicode="&#xb8;" horiz-adv-x="302" d="M91 -88l-3 5l14 83h36l-8 -44q50 -5 78.5 -23t28.5 -46q0 -40 -46 -62t-123 -23l-3 15q31 8 55.5 22.5t24.5 34.5q0 30 -54 38z" />
<glyph unicode="&#xb9;" horiz-adv-x="289" d="M245 372h-200l-1 9l42 7q9 2 11.5 5.5t2.5 11.5v292l-55 3v8l143 29l5 -4v-341l52 -11v-9z" />
<glyph unicode="&#xba;" horiz-adv-x="424" d="M387 520q0 -87 -48 -140t-129 -53q-76 0 -124 46.5t-48 131.5q0 90 49.5 142t129.5 52q76 0 123 -48.5t47 -130.5zM138 516q0 -87 18 -126.5t57 -39.5t56.5 40t17.5 121q0 85 -17.5 125t-55.5 40q-37 0 -56.5 -38.5t-19.5 -121.5z" />
<glyph unicode="&#xbb;" horiz-adv-x="526" d="M268 240q-46 -41 -95.5 -90t-88.5 -93l-12 7q22 48 49 98t55 97q-24 36 -51.5 86t-50.5 102l11 8q46 -52 95.5 -100t85.5 -76l2 -5v-34zM454 240q-46 -41 -95.5 -90t-88.5 -93l-12 7q22 48 49 98t55 97q-24 36 -51.5 86t-50.5 102l11 8q46 -52 95.5 -100t85.5 -76l2 -5 v-34z" />
<glyph unicode="&#xbc;" horiz-adv-x="935" d="M605 660h68l-399 -670h-69zM286 292h-200l-1 9l42 7q9 2 11.5 5.5t2.5 11.5v292l-55 3v8l143 29l5 -4v-341l52 -11v-9zM541 113l208 252l54 -5v-246h57l-4 -34h-53v-80h-93v80h-162zM574 114h136v173z" />
<glyph unicode="&#xbd;" horiz-adv-x="937" d="M601 660h68l-399 -670h-69zM282 292h-200l-1 9l42 7q9 2 11.5 5.5t2.5 11.5v292l-55 3v8l143 29l5 -4v-341l52 -11v-9zM587 2l-7 47q72 54 117 99.5t45 94.5q0 30 -18.5 49t-50.5 19q-31 0 -54.5 -17t-37.5 -45l-7 2q12 52 53 84t97 32q55 0 86.5 -29t31.5 -72 q0 -41 -30 -74.5t-78.5 -65t-104.5 -66.5h163q21 0 31 10.5t19 40.5l9 -1q-1 -22 -5 -53.5t-10 -54.5h-249z" />
<glyph unicode="&#xbe;" horiz-adv-x="938" d="M642 660h69l-399 -670h-69zM358 383q0 -29 -22 -51t-57.5 -34.5t-77.5 -12.5q-35 0 -64.5 7t-48 20t-18.5 33q0 17 18.5 29t44.5 16l4 -2q-3 -5 -3 -11q0 -32 15 -50.5t45 -18.5q28 0 46 17.5t18 49.5q0 39 -28.5 58.5t-65.5 19.5q-6 0 -12 -0.5t-12 -1.5l-4 13 q52 8 81 28.5t29 53.5q0 24 -17.5 39t-46.5 15q-28 0 -52.5 -16t-38.5 -43l-7 2q11 52 52.5 83t96.5 31q50 0 81.5 -23.5t30.5 -61.5q1 -29 -16.5 -49.5t-46 -32.5t-60.5 -18q58 -3 97 -26t39 -63zM544 113l207 252l55 -5v-246h57l-5 -34h-52v-80h-93v80h-162zM576 114h137 v173z" />
<glyph unicode="&#xbf;" horiz-adv-x="487" d="M181 445q0 30 21 48.5t54 18.5q27 0 45 -15.5t18 -41.5q0 -29 -22.5 -47.5t-52.5 -18.5q-28 0 -45.5 15t-17.5 41zM223 289l11 5h10q21 -15 37 -36t16 -47q0 -14 -5 -24t-14 -20q-14 -18 -36.5 -37.5t-45 -43.5t-38 -55t-15.5 -71q0 -53 26.5 -87.5t78.5 -34.5 q48 0 77 38t29 89q0 32 -9 71q8 4 18.5 7t25.5 3q36 0 61 -21t25 -54q0 -47 -32.5 -84.5t-86.5 -59t-119 -21.5t-115.5 21t-80 60.5t-29.5 92.5q0 37 16.5 67t42.5 54t54.5 42t52.5 31.5t38 22.5q4 3 4 11z" />
<glyph unicode="&#xc0;" horiz-adv-x="667" d="M435 724l-8 -9q-55 15 -98.5 35.5t-68.5 44t-25 46.5t17.5 34t45.5 11q7 0 12 -0.5t10 -0.5q17 -32 48.5 -76t66.5 -85zM301 652h64l218 -581q8 -22 17 -31.5t29 -15.5l38 -11l-2 -13h-284l-2 13l82 22l-59 166h-232l-61 -167l82 -21l-2 -13h-187l-2 13l41 10 q21 6 28.5 17.5t16.5 33.5zM182 233h209l-103 291z" />
<glyph unicode="&#xc1;" horiz-adv-x="667" d="M436 844q0 -21 -24.5 -44.5t-66.5 -44.5t-96 -36l-8 9q33 41 63.5 84t48.5 74q4 0 9 0.5t12 0.5q27 0 44.5 -11t17.5 -32zM301 652h64l218 -581q8 -22 17 -31.5t29 -15.5l38 -11l-2 -13h-284l-2 13l82 22l-59 166h-232l-61 -167l82 -21l-2 -13h-187l-2 13l41 10 q21 6 28.5 17.5t16.5 33.5zM182 233h209l-103 291z" />
<glyph unicode="&#xc2;" horiz-adv-x="667" d="M471 728l-8 -7q-29 19 -63 40t-68 39q-28 -18 -63 -39.5t-67 -38.5l-7 8q16 24 34.5 51t34 51.5t25.5 41.5l7 6h82q22 -35 47 -75.5t46 -76.5zM301 652h64l218 -581q8 -22 17 -31.5t29 -15.5l38 -11l-2 -13h-284l-2 13l82 22l-59 166h-232l-61 -167l82 -21l-2 -13h-187 l-2 13l41 10q21 6 28.5 17.5t16.5 33.5zM182 233h209l-103 291z" />
<glyph unicode="&#xc3;" horiz-adv-x="667" d="M434 809q10 11 22 26t22 30l10 -3q2 -12 2 -25q-3 -38 -21.5 -68t-54.5 -30q-29 0 -63.5 10.5t-66 23t-50.5 17.5q-10 -11 -22 -26t-22 -30l-10 4q-3 13 -3 25q3 37 22 67t55 30q28 0 61.5 -11t65 -23t53.5 -17zM301 652h64l218 -581q8 -22 17 -31.5t29 -15.5l38 -11 l-2 -13h-284l-2 13l82 22l-59 166h-232l-61 -167l82 -21l-2 -13h-187l-2 13l41 10q21 6 28.5 17.5t16.5 33.5zM182 233h209l-103 291z" />
<glyph unicode="&#xc4;" horiz-adv-x="667" d="M289 806q0 -30 -20 -48.5t-50 -18.5q-25 0 -41.5 15.5t-16.5 40.5q0 29 21 47.5t50 18.5q25 0 41 -15t16 -40zM506 806q0 -30 -20 -48.5t-50 -18.5q-25 0 -41.5 15.5t-16.5 40.5q0 29 21 47.5t50 18.5q25 0 41 -15t16 -40zM301 652h64l218 -581q8 -22 17 -31.5t29 -15.5 l38 -11l-2 -13h-284l-2 13l82 22l-59 166h-232l-61 -167l82 -21l-2 -13h-187l-2 13l41 10q21 6 28.5 17.5t16.5 33.5zM182 233h209l-103 291z" />
<glyph unicode="&#xc5;" horiz-adv-x="667" d="M330 718q-38 0 -62 21.5t-24 56.5q0 37 26.5 60t66.5 23q37 0 61.5 -21.5t24.5 -55.5q0 -37 -27 -60.5t-66 -23.5zM334 846q-18 0 -29 -14t-11 -35q0 -20 11 -32.5t28 -12.5t28 14t11 35q0 20 -11 32.5t-27 12.5zM301 652h64l218 -581q8 -22 17 -31.5t29 -15.5l38 -11 l-2 -13h-284l-2 13l82 22l-59 166h-232l-61 -167l82 -21l-2 -13h-187l-2 13l41 10q21 6 28.5 17.5t16.5 33.5zM182 233h209l-103 291z" />
<glyph unicode="&#xc6;" horiz-adv-x="872" d="M420 619h-84l-101 -277h185v277zM14 0l-1 13q13 4 24.5 7t23.5 8q14 5 21.5 14t17.5 34l202 543l-81 18l1 13h590q6 -32 6 -72q0 -71 -16 -122h-9l-73 162q-21 0 -42.5 0.5t-42.5 0.5h-90v-277l186 10l-2 -50l-184 9v-279h95h44h45l73 166h9q15 -52 15 -124q0 -41 -5 -74 h-473l-1 13l51 11q14 4 18 11t4 21v255l-198 -3l-99 -274l82 -21l-1 -13h-190z" />
<glyph unicode="&#xc7;" horiz-adv-x="604" d="M334 -88l-3 5l13 74q-92 7 -160 48t-106 112.5t-38 169.5q0 104 44 180t121.5 117.5t175.5 41.5q48 0 89 -8t72 -21q3 -29 3 -61q0 -39 -5 -73.5t-14 -61.5h-9l-72 183q-26 10 -57 10q-60 0 -108.5 -37.5t-77 -106.5t-28.5 -161q0 -94 29 -161.5t77.5 -103.5t105.5 -36 q39 0 67 10l72 187h9q9 -25 14 -61.5t5 -78.5q0 -32 -3 -60q-37 -14 -78.5 -21.5t-92.5 -7.5l-6 -34q50 -5 78.5 -23t28.5 -46q0 -40 -46 -62t-123 -23l-3 15q31 8 55.5 22.5t24.5 34.5q0 30 -54 38z" />
<glyph unicode="&#xc8;" horiz-adv-x="568" d="M413 724l-8 -9q-54 15 -97.5 35.5t-68.5 44t-25 46.5t17.5 34t45.5 11q6 0 11.5 -0.5t9.5 -0.5q17 -32 49 -76t66 -85zM520 0h-472l-2 13l52 11q13 4 17 11t4 21v561l-73 20l1 13h465q5 -32 5 -72q0 -71 -15 -122h-9l-73 162q-21 0 -42.5 0.5t-42.5 0.5h-91v-277l186 10 l-2 -50l-184 9v-279h95h44.5h44.5l73 166h9q16 -52 16 -124q0 -41 -6 -74z" />
<glyph unicode="&#xc9;" horiz-adv-x="568" d="M419 844q0 -21 -24.5 -44t-66.5 -44t-95 -36l-8 9q33 40 63.5 83.5t47.5 73.5q4 0 9.5 0.5t12.5 0.5q27 0 44 -10.5t17 -32.5zM520 0h-472l-2 13l52 11q13 4 17 11t4 21v561l-73 21l1 13h465q5 -33 5 -72q0 -72 -15 -123h-9l-73 162q-21 1 -42.5 1h-42.5h-91v-277l186 10 l-2 -50l-184 9v-279h95h44.5h44.5l73 166h9q16 -52 16 -124q0 -41 -6 -74z" />
<glyph unicode="&#xca;" horiz-adv-x="568" d="M450 728l-9 -7q-29 19 -63 40t-67 39q-29 -18 -64 -39.5t-67 -38.5l-7 8q17 24 35 51t34 51.5t25 41.5l8 6h81q23 -35 47.5 -75.5t46.5 -76.5zM520 0h-472l-2 13l52 11q13 4 17 11t4 21v561l-73 20l1 13h465q5 -32 5 -72q0 -71 -15 -122h-9l-73 162q-21 0 -42.5 0.5 t-42.5 0.5h-91v-277l186 10l-2 -50l-184 9v-279h95h44.5h44.5l73 166h9q16 -52 16 -124q0 -41 -6 -74z" />
<glyph unicode="&#xcb;" horiz-adv-x="568" d="M268 806q0 -30 -20 -48.5t-50 -18.5q-26 0 -42 15.5t-16 40.5q0 29 21 47.5t49 18.5q26 0 42 -15t16 -40zM485 806q0 -30 -20 -48.5t-50 -18.5q-26 0 -42 15.5t-16 40.5q0 29 21 47.5t49 18.5q26 0 42 -15t16 -40zM520 0h-472l-2 13l52 11q13 4 17 11t4 21v561l-73 20 l1 13h465q5 -32 5 -72q0 -71 -15 -122h-9l-73 162q-21 0 -42.5 0.5t-42.5 0.5h-91v-277l186 10l-2 -50l-184 9v-279h95h44.5h44.5l73 166h9q16 -52 16 -124q0 -41 -6 -74z" />
<glyph unicode="&#xcc;" horiz-adv-x="363" d="M283 724l-8 -9q-55 15 -98.5 35.5t-68.5 44t-25 46.5t17.5 34t45.5 11q7 0 12 -0.5t10 -0.5q17 -32 48.5 -76t66.5 -85zM317 0h-268l-2 13l51 11q13 4 17 11t4 21v561l-74 20l2 13h268l1 -13l-50 -11q-14 -4 -18 -11t-4 -20v-561l74 -21z" />
<glyph unicode="&#xcd;" horiz-adv-x="363" d="M289 844q0 -21 -24.5 -44.5t-66.5 -44.5t-96 -36l-8 9q33 41 63.5 84t48.5 74q4 0 9 0.5t12 0.5q27 0 44.5 -11t17.5 -32zM317 0h-268l-2 13l51 11q13 4 17 11t4 21v561l-74 20l2 13h268l1 -13l-50 -11q-14 -4 -18 -11t-4 -20v-561l74 -21z" />
<glyph unicode="&#xce;" horiz-adv-x="363" d="M319 728l-8 -7q-29 19 -63 40t-68 39q-28 -18 -63 -39.5t-67 -38.5l-7 8q16 24 34.5 51t34 51.5t25.5 41.5l7 6h82q22 -35 47 -75.5t46 -76.5zM317 0h-268l-2 13l51 11q13 4 17 11t4 21v561l-74 20l2 13h268l1 -13l-50 -11q-14 -4 -18 -11t-4 -20v-561l74 -21z" />
<glyph unicode="&#xcf;" horiz-adv-x="363" d="M137 806q0 -30 -20 -48.5t-50 -18.5q-25 0 -41.5 15.5t-16.5 40.5q0 29 21 47.5t50 18.5q25 0 41 -15t16 -40zM354 806q0 -30 -20 -48.5t-50 -18.5q-25 0 -41.5 15.5t-16.5 40.5q0 29 21 47.5t50 18.5q25 0 41 -15t16 -40zM317 0h-268l-2 13l51 11q13 4 17 11t4 21v561 l-74 20l2 13h268l1 -13l-50 -11q-14 -4 -18 -11t-4 -20v-561l74 -21z" />
<glyph unicode="&#xd0;" horiz-adv-x="688" d="M311 0h-263l-2 13l52 11q13 4 17 11t4 21v256h-74v29h74v276l-73 20l1 13h268q98 0 172.5 -37.5t116 -109.5t41.5 -174t-42.5 -175.5t-118 -113.5t-173.5 -40zM379 312h-135v-281h58q102 0 159 80t58 218q0 139 -58 214.5t-160 75.5h-57v-278h135v-29z" />
<glyph unicode="&#xd1;" horiz-adv-x="679" d="M456 809q9 11 21 26t23 30l10 -3q2 -12 2 -25q-3 -38 -22 -68t-55 -30q-28 0 -62.5 10.5t-66 23t-51.5 17.5q-10 -11 -21.5 -26t-22.5 -30l-10 4q-3 13 -3 25q3 37 22.5 67t55.5 30q28 0 61.5 -11t65 -23t53.5 -17zM241 0h-202l-2 13l61 14q13 3 17 9.5t4 19.5v561 l-83 20l2 13h173l331 -511v478l-88 20l1 13h203l1 -13l-60 -13q-14 -4 -18 -10.5t-4 -18.5v-595h-92l-330 513v-479l88 -21z" />
<glyph unicode="&#xd2;" horiz-adv-x="660" d="M427 724l-8 -9q-54 15 -97.5 35.5t-68.5 44t-25 46.5t17.5 34t45.5 11q6 0 11.5 -0.5t9.5 -0.5q17 -32 49 -76t66 -85zM614 329q0 -101 -37 -177.5t-102 -119t-150 -42.5q-86 0 -150.5 41t-100 116t-35.5 177t38 177.5t103.5 117t148.5 41.5t147.5 -41t101 -115 t36.5 -175zM173 324q-1 -146 40 -223.5t114 -77.5q74 0 113 81.5t40 224.5q0 143 -39 221t-113 78q-75 0 -115 -79.5t-40 -224.5z" />
<glyph unicode="&#xd3;" horiz-adv-x="660" d="M433 844q0 -21 -24.5 -44.5t-66.5 -44.5t-95 -36l-8 9q33 41 63.5 84t47.5 74q4 0 9.5 0.5t12.5 0.5q27 0 44 -11t17 -32zM614 329q0 -101 -37 -177.5t-102 -119t-150 -42.5q-86 0 -150.5 41t-100 116t-35.5 177t38 177.5t103.5 117t148.5 41.5t147.5 -41t101 -115 t36.5 -175zM173 324q-1 -146 40 -223.5t114 -77.5q74 0 113 81.5t40 224.5q0 143 -39 221t-113 78q-75 0 -115 -79.5t-40 -224.5z" />
<glyph unicode="&#xd4;" horiz-adv-x="660" d="M464 728l-9 -7q-29 19 -63 40t-67 39q-29 -18 -64 -39.5t-67 -38.5l-7 8q17 24 35 51t34 51.5t25 41.5l8 6h81q23 -35 47.5 -75.5t46.5 -76.5zM614 329q0 -101 -37 -177.5t-102 -119t-150 -42.5q-86 0 -150.5 41t-100 116t-35.5 177t38 177.5t103.5 117t148.5 41.5 t147.5 -41t101 -115t36.5 -175zM173 324q-1 -146 40 -223.5t114 -77.5q74 0 113 81.5t40 224.5q0 143 -39 221t-113 78q-75 0 -115 -79.5t-40 -224.5z" />
<glyph unicode="&#xd5;" horiz-adv-x="660" d="M427 809q9 11 21 26t23 30l10 -3q2 -12 2 -25q-3 -38 -22 -68t-55 -30q-28 0 -62.5 10.5t-66 23t-51.5 17.5q-10 -11 -21.5 -26t-22.5 -30l-10 4q-3 13 -3 25q3 37 22.5 67t55.5 30q28 0 61.5 -11t65 -23t53.5 -17zM614 329q0 -101 -37 -177.5t-102 -119t-150 -42.5 q-86 0 -150.5 41t-100 116t-35.5 177t38 177.5t103.5 117t148.5 41.5t147.5 -41t101 -115t36.5 -175zM173 324q-1 -146 40 -223.5t114 -77.5q74 0 113 81.5t40 224.5q0 143 -39 221t-113 78q-75 0 -115 -79.5t-40 -224.5z" />
<glyph unicode="&#xd6;" horiz-adv-x="660" d="M282 806q0 -30 -20 -48.5t-50 -18.5q-26 0 -42 15.5t-16 40.5q0 29 21 47.5t49 18.5q26 0 42 -15t16 -40zM499 806q0 -30 -20 -48.5t-50 -18.5q-26 0 -42 15.5t-16 40.5q0 29 21 47.5t49 18.5q26 0 42 -15t16 -40zM614 329q0 -101 -37 -177.5t-102 -119t-150 -42.5 q-86 0 -150.5 41t-100 116t-35.5 177t38 177.5t103.5 117t148.5 41.5t147.5 -41t101 -115t36.5 -175zM173 324q-1 -146 40 -223.5t114 -77.5q74 0 113 81.5t40 224.5q0 143 -39 221t-113 78q-75 0 -115 -79.5t-40 -224.5z" />
<glyph unicode="&#xd7;" horiz-adv-x="580" d="M428 127l-138 140l-136 -136l-59 58l137 137l-140 142l56 56q26 -24 63.5 -61t78.5 -78l135 136l60 -60l-136 -135l77.5 -77.5l61.5 -61.5v-9z" />
<glyph unicode="&#xd8;" horiz-adv-x="660" d="M614 329q0 -101 -37 -177.5t-102 -119t-151 -42.5q-55 0 -101.5 17.5t-82.5 49.5l-50 -64l-29 24l53 67q-36 44 -55.5 104.5t-19.5 135.5q0 102 38 177.5t103.5 117t148.5 41.5q108 0 183 -68l50 65l29 -23l-54 -68q36 -43 56.5 -103t20.5 -134zM173 324q-1 -84 13 -147 l268 342q-38 109 -126 109q-75 0 -115 -79.5t-40 -224.5zM479 329q1 83 -13 146l-267 -342q39 -110 128 -110q74 0 113 81.5t39 224.5z" />
<glyph unicode="&#xd9;" horiz-adv-x="692" d="M483 723l-8 -9q-55 15 -98.5 36t-68.5 44.5t-25 46.5q0 22 17.5 33t45.5 11q7 0 12 -0.5t10 -0.5q17 -31 48.5 -75.5t66.5 -85.5zM588 223q0 -115 -63 -174t-171 -59q-67 0 -121.5 26t-86.5 78.5t-32 130.5v392l-74 20l2 13h268l1 -13l-50 -11q-14 -4 -18 -11t-4 -20 v-363q0 -97 43 -147.5t113 -50.5q67 0 112.5 48t45.5 145v390l-84 20l2 13h198l1 -13l-82 -20v-394z" />
<glyph unicode="&#xda;" horiz-adv-x="692" d="M489 843q0 -21 -24.5 -44t-66.5 -44t-96 -36l-8 9q33 40 63.5 83.5t48.5 73.5q4 0 9 0.5t12 0.5q27 0 44.5 -10.5t17.5 -32.5zM588 223q0 -115 -63 -174t-171 -59q-67 0 -121.5 26t-86.5 78.5t-32 130.5v392l-74 20l2 13h268l1 -13l-50 -11q-14 -4 -18 -11t-4 -20v-363 q0 -97 43 -147.5t113 -50.5q67 0 112.5 48t45.5 145v390l-84 20l2 13h198l1 -13l-82 -20v-394z" />
<glyph unicode="&#xdb;" horiz-adv-x="692" d="M519 727l-8 -6q-29 19 -63 39.5t-68 39.5q-28 -18 -63 -39.5t-67 -39.5l-7 9q16 23 34.5 50t34 52t25.5 42l7 5h82q22 -34 47 -75t46 -77zM588 223q0 -115 -63 -174t-171 -59q-67 0 -121.5 26t-86.5 78.5t-32 130.5v392l-74 20l2 13h268l1 -13l-50 -11q-14 -4 -18 -11 t-4 -20v-363q0 -97 43 -147.5t113 -50.5q67 0 112.5 48t45.5 145v390l-84 20l2 13h198l1 -13l-82 -20v-394z" />
<glyph unicode="&#xdc;" horiz-adv-x="692" d="M337 805q0 -29 -20 -47.5t-50 -18.5q-25 0 -41.5 15t-16.5 41q0 28 21 47t50 19q25 0 41 -15t16 -41zM554 805q0 -29 -20 -47.5t-50 -18.5q-25 0 -41.5 15t-16.5 41q0 28 21 47t50 19q25 0 41 -15t16 -41zM588 223q0 -115 -63 -174t-171 -59q-67 0 -121.5 26t-86.5 78.5 t-32 130.5v392l-74 20l2 13h268l1 -13l-50 -11q-14 -4 -18 -11t-4 -20v-363q0 -97 43 -147.5t113 -50.5q67 0 112.5 48t45.5 145v390l-84 20l2 13h198l1 -13l-82 -20v-394z" />
<glyph unicode="&#xdd;" horiz-adv-x="643" d="M442 844q0 -21 -24.5 -44.5t-66.5 -44.5t-96 -36l-8 9q33 41 63.5 84t48.5 74q4 0 9 0.5t12 0.5q27 0 44.5 -11t17.5 -32zM457 0h-268l-2 13l51 11q13 4 17 11t4 21v187l-176 341q-10 18 -18.5 27t-23.5 15l-41 11l2 13h277l2 -13l-76 -22l159 -344l158 345l-74 21l2 13 h192l1 -13q-18 -6 -36 -14q-20 -11 -35 -29.5t-30 -47.5l-158 -303v-209l74 -21z" />
<glyph unicode="&#xde;" horiz-adv-x="601" d="M340 0h-292l-2 13l52 11q13 4 17 11t4 21v561l-74 20l2 13h268l1 -13l-50 -11q-14 -4 -18 -11t-4 -20v-58h76q115 0 185 -51.5t70 -146.5q0 -67 -33 -112.5t-91 -69t-133 -23.5h-74v-100l97 -21zM308 505h-64v-339h61q67 0 105.5 43.5t38.5 129.5q0 77 -37.5 121.5 t-103.5 44.5z" />
<glyph unicode="&#xdf;" horiz-adv-x="588" d="M198 0h-173l-2 12l38 10q18 6 22.5 13t4.5 27v375h-70l-2 12l72 18v0q3 67 30 118.5t75 80.5t114 29q54 0 95.5 -20t65.5 -55.5t24 -81.5q0 -60 -42.5 -99.5t-111.5 -56.5q62 -9 112 -37.5t79.5 -73.5t29.5 -103q0 -80 -53 -129t-138 -49q-46 0 -77 20t-31 50 q0 14 7.5 22t18.5 9h3q5 -23 20 -37.5t42 -14.5q36 0 58 32t22 86q0 80 -39.5 137.5t-108.5 75.5v15q54 13 80 60t26 103q0 52 -23 83.5t-59 31.5q-46 0 -72.5 -41.5t-26.5 -123.5v-487z" />
<glyph unicode="&#xe0;" horiz-adv-x="519" d="M358 573l-8 -9q-55 15 -98.5 36t-68.5 44.5t-25 46.5q0 22 17.5 33t45.5 11q7 0 12 -0.5t10 -0.5q17 -31 48.5 -75.5t66.5 -85.5zM512 46q-13 -20 -36.5 -38t-62.5 -18q-42 0 -66.5 24.5t-27.5 63.5q-19 -34 -57 -61t-95 -27q-54 0 -90.5 31.5t-36.5 84.5t36 88t99 53.5 t144 21.5v115q0 49 -16 71.5t-50 22.5q-37 0 -61 -27t-24 -66q0 -10 1 -23t4 -26q-29 -13 -56 -13q-25 0 -41.5 12t-16.5 37q0 34 28 66t75.5 52t103.5 20q86 0 131 -41.5t45 -129.5q0 -57 -1.5 -116t-1.5 -108q0 -36 10 -51.5t31 -15.5q15 0 28 5zM166 128q0 -37 19 -55 t46 -18q28 0 52.5 16t35.5 42v130q-66 -5 -109.5 -33t-43.5 -82z" />
<glyph unicode="&#xe1;" horiz-adv-x="519" d="M364 691q0 -21 -24.5 -44.5t-66.5 -44.5t-95 -36l-8 9q33 41 63.5 84t47.5 74q4 0 9.5 0.5t12.5 0.5q27 0 44 -11t17 -32zM512 46q-13 -20 -36.5 -38t-62.5 -18q-42 0 -66.5 24.5t-27.5 63.5q-19 -34 -57 -61t-95 -27q-54 0 -90.5 31.5t-36.5 84.5t36 88t99 53.5 t144 21.5v115q0 49 -16 71.5t-50 22.5q-37 0 -61 -27t-24 -66q0 -10 1 -23t4 -26q-29 -13 -56 -13q-25 0 -41.5 12t-16.5 37q0 34 28 66t75.5 52t103.5 20q86 0 131 -41.5t45 -129.5q0 -57 -1.5 -116t-1.5 -108q0 -36 10 -51.5t31 -15.5q15 0 28 5zM166 128q0 -37 19 -55 t46 -18q28 0 52.5 16t35.5 42v130q-66 -5 -109.5 -33t-43.5 -82z" />
<glyph unicode="&#xe2;" horiz-adv-x="519" d="M397 577l-8 -6q-29 19 -63 39.5t-68 39.5q-28 -18 -63 -39.5t-67 -39.5l-7 9q16 23 34.5 50t34 52t25.5 42l7 5h82q22 -34 47 -75t46 -77zM512 46q-13 -20 -36.5 -38t-62.5 -18q-42 0 -66.5 24.5t-27.5 63.5q-19 -34 -57 -61t-95 -27q-54 0 -90.5 31.5t-36.5 84.5t36 88 t99 53.5t144 21.5v115q0 49 -16 71.5t-50 22.5q-37 0 -61 -27t-24 -66q0 -10 1 -23t4 -26q-29 -13 -56 -13q-25 0 -41.5 12t-16.5 37q0 34 28 66t75.5 52t103.5 20q86 0 131 -41.5t45 -129.5q0 -57 -1.5 -116t-1.5 -108q0 -36 10 -51.5t31 -15.5q15 0 28 5zM166 128 q0 -37 19 -55t46 -18q28 0 52.5 16t35.5 42v130q-66 -5 -109.5 -33t-43.5 -82z" />
<glyph unicode="&#xe3;" horiz-adv-x="519" d="M356 659q10 11 22 26t22 30l10 -3q2 -12 2 -25q-3 -38 -21.5 -68t-54.5 -30q-29 0 -63.5 10.5t-66 23t-50.5 17.5q-10 -11 -22 -26t-22 -30l-10 4q-3 13 -3 25q3 37 22 67t55 30q28 0 61.5 -11t65 -23t53.5 -17zM512 46q-13 -20 -36.5 -38t-62.5 -18q-42 0 -66.5 24.5 t-27.5 63.5q-19 -34 -57 -61t-95 -27q-54 0 -90.5 31.5t-36.5 84.5t36 88t99 53.5t144 21.5v115q0 49 -16 71.5t-50 22.5q-37 0 -61 -27t-24 -66q0 -10 1 -23t4 -26q-29 -13 -56 -13q-25 0 -41.5 12t-16.5 37q0 34 28 66t75.5 52t103.5 20q86 0 131 -41.5t45 -129.5 q0 -57 -1.5 -116t-1.5 -108q0 -36 10 -51.5t31 -15.5q15 0 28 5zM166 128q0 -37 19 -55t46 -18q28 0 52.5 16t35.5 42v130q-66 -5 -109.5 -33t-43.5 -82z" />
<glyph unicode="&#xe4;" horiz-adv-x="519" d="M213 656q0 -30 -20 -48.5t-50 -18.5q-26 0 -42 15.5t-16 40.5q0 29 21 47.5t49 18.5q26 0 42 -15t16 -40zM430 656q0 -30 -20 -48.5t-50 -18.5q-26 0 -42 15.5t-16 40.5q0 29 21 47.5t49 18.5q26 0 42 -15t16 -40zM512 46q-13 -20 -36.5 -38t-62.5 -18q-42 0 -66.5 24.5 t-27.5 63.5q-19 -34 -57 -61t-95 -27q-54 0 -90.5 31.5t-36.5 84.5t36 88t99 53.5t144 21.5v115q0 49 -16 71.5t-50 22.5q-37 0 -61 -27t-24 -66q0 -10 1 -23t4 -26q-29 -13 -56 -13q-25 0 -41.5 12t-16.5 37q0 34 28 66t75.5 52t103.5 20q86 0 131 -41.5t45 -129.5 q0 -57 -1.5 -116t-1.5 -108q0 -36 10 -51.5t31 -15.5q15 0 28 5zM166 128q0 -37 19 -55t46 -18q28 0 52.5 16t35.5 42v130q-66 -5 -109.5 -33t-43.5 -82z" />
<glyph unicode="&#xe5;" horiz-adv-x="519" d="M253 570q-37 0 -61.5 21t-24.5 56q0 37 26.5 60.5t67.5 23.5q36 0 60.5 -21.5t24.5 -55.5q0 -37 -26.5 -60.5t-66.5 -23.5zM257 697q-18 0 -28.5 -14t-10.5 -35q0 -20 10.5 -32t27.5 -12q18 0 29 13.5t11 35.5q0 19 -11 31.5t-28 12.5zM512 46q-13 -20 -36.5 -38 t-62.5 -18q-42 0 -66.5 24.5t-27.5 63.5q-19 -34 -57 -61t-95 -27q-54 0 -90.5 31.5t-36.5 84.5t36 88t99 53.5t144 21.5v115q0 49 -16 71.5t-50 22.5q-37 0 -61 -27t-24 -66q0 -10 1 -23t4 -26q-29 -13 -56 -13q-25 0 -41.5 12t-16.5 37q0 34 28 66t75.5 52t103.5 20 q86 0 131 -41.5t45 -129.5q0 -57 -1.5 -116t-1.5 -108q0 -36 10 -51.5t31 -15.5q15 0 28 5zM166 128q0 -37 19 -55t46 -18q28 0 52.5 16t35.5 42v130q-66 -5 -109.5 -33t-43.5 -82z" />
<glyph unicode="&#xe6;" horiz-adv-x="765" d="M736 116q-24 -56 -72 -90.5t-125 -34.5q-68 0 -117.5 28.5t-75.5 84.5q-12 -27 -35 -53t-57 -43.5t-80 -17.5q-59 0 -96.5 31t-37.5 84q0 55 36 91t99 55.5t144 22.5v110q0 49 -16 71.5t-50 22.5q-37 0 -61 -27t-24 -66q0 -10 1 -23t4 -26q-29 -13 -56 -13 q-25 0 -41.5 12t-16.5 37q0 34 28 66t75 52t104 20q97 0 140 -52q61 53 145 53q88 0 138 -55.5t50 -143.5q0 -24 -4 -50l-8 -7h-281q7 -89 49.5 -133t108.5 -44q38 0 67 11.5t57 34.5zM445 285v-4l171 8q1 11 1.5 22t0.5 22q0 67 -15.5 106.5t-57.5 39.5q-45 0 -72.5 -51 t-27.5 -143zM166 136q0 -37 20 -58t50 -21q31 0 57.5 20t41.5 53q-16 49 -16 111v7q-66 -5 -109.5 -32t-43.5 -80z" />
<glyph unicode="&#xe7;" horiz-adv-x="468" d="M38 244q0 82 31 141.5t83.5 92t117.5 32.5q56 0 95.5 -20.5t60.5 -53.5t21 -72q0 -29 -17 -42t-42 -13q-15 0 -26.5 3.5t-19.5 8.5q1 5 1 11q0 70 -18 108t-56 38q-47 0 -76 -51.5t-29 -143.5q0 -102 43 -154t115 -52q36 0 67 13t58 33l7 -8q-19 -46 -61 -83t-114 -41 l-6 -35q50 -5 78.5 -23t28.5 -46q0 -40 -46 -62t-123 -23l-3 15q31 8 55.5 22.5t24.5 34.5q0 30 -54 38l-3 5l12 74q-91 6 -148 73t-57 180z" />
<glyph unicode="&#xe8;" horiz-adv-x="483" d="M358 573l-8 -9q-55 15 -98.5 36t-68.5 44.5t-25 46.5q0 22 17.5 33t45.5 11q7 0 12 -0.5t10 -0.5q17 -31 48.5 -75.5t66.5 -85.5zM454 115q-24 -55 -72 -90t-124 -35q-65 0 -114.5 30.5t-77.5 87t-28 133.5q0 85 31 145t84 92t117 32q88 0 137.5 -55.5t49.5 -142.5 q0 -25 -4 -51l-7 -6h-281q6 -90 48.5 -134t108.5 -44q39 0 68 12t57 34zM164 285v-4l170 7q1 12 1.5 22.5t0.5 21.5q0 68 -15.5 107t-57.5 39q-45 0 -72 -50.5t-27 -142.5z" />
<glyph unicode="&#xe9;" horiz-adv-x="483" d="M364 691q0 -21 -24.5 -44.5t-66.5 -44.5t-95 -36l-8 9q33 41 63.5 84t47.5 74q4 0 9.5 0.5t12.5 0.5q27 0 44 -11t17 -32zM454 115q-24 -55 -72 -90t-124 -35q-65 0 -114.5 30.5t-77.5 87t-28 133.5q0 85 31 145t84 92t117 32q88 0 137.5 -55.5t49.5 -142.5q0 -25 -4 -51 l-7 -6h-281q6 -90 48.5 -134t108.5 -44q39 0 68 12t57 34zM164 285v-4l170 7q1 12 1.5 22.5t0.5 21.5q0 68 -15.5 107t-57.5 39q-45 0 -72 -50.5t-27 -142.5z" />
<glyph unicode="&#xea;" horiz-adv-x="483" d="M397 577l-8 -6q-29 19 -63 39.5t-68 39.5q-28 -18 -63 -39.5t-67 -39.5l-7 9q16 23 34.5 50t34 52t25.5 42l7 5h82q22 -34 47 -75t46 -77zM454 115q-24 -55 -72 -90t-124 -35q-65 0 -114.5 30.5t-77.5 87t-28 133.5q0 85 31 145t84 92t117 32q88 0 137.5 -55.5 t49.5 -142.5q0 -25 -4 -51l-7 -6h-281q6 -90 48.5 -134t108.5 -44q39 0 68 12t57 34zM164 285v-4l170 7q1 12 1.5 22.5t0.5 21.5q0 68 -15.5 107t-57.5 39q-45 0 -72 -50.5t-27 -142.5z" />
<glyph unicode="&#xeb;" horiz-adv-x="483" d="M213 656q0 -30 -20 -48.5t-50 -18.5q-26 0 -42 15.5t-16 40.5q0 29 21 47.5t49 18.5q26 0 42 -15t16 -40zM430 656q0 -30 -20 -48.5t-50 -18.5q-26 0 -42 15.5t-16 40.5q0 29 21 47.5t49 18.5q26 0 42 -15t16 -40zM454 115q-24 -55 -72 -90t-124 -35q-65 0 -114.5 30.5 t-77.5 87t-28 133.5q0 85 31 145t84 92t117 32q88 0 137.5 -55.5t49.5 -142.5q0 -25 -4 -51l-7 -6h-281q6 -90 48.5 -134t108.5 -44q39 0 68 12t57 34zM164 285v-4l170 7q1 12 1.5 22.5t0.5 21.5q0 68 -15.5 107t-57.5 39q-45 0 -72 -50.5t-27 -142.5z" />
<glyph unicode="&#xec;" horiz-adv-x="288" d="M239 573l-8 -9q-55 15 -98.5 36t-68.5 44.5t-25 46.5q0 22 17.5 33t45.5 11q7 0 12 -0.5t10 -0.5q17 -31 48.5 -75.5t66.5 -85.5zM272 0h-247l-2 12l44 11q13 5 17 11.5t4 20.5v404l-64 10l-1 12q24 7 55.5 13.5t64 10.5t58.5 5l7 -7v-470l65 -21z" />
<glyph unicode="&#xed;" horiz-adv-x="288" d="M248 691q0 -21 -24.5 -44.5t-66.5 -44.5t-96 -36l-8 9q33 41 63.5 84t48.5 74q4 0 9 0.5t12 0.5q27 0 44.5 -11t17.5 -32zM272 0h-247l-2 12l44 11q13 5 17 11.5t4 20.5v404l-64 10l-1 12q24 7 55.5 13.5t64 10.5t58.5 5l7 -7v-470l65 -21z" />
<glyph unicode="&#xee;" horiz-adv-x="288" d="M257 577l-9 -6q-24 18 -52 38t-56 38q-24 -18 -53 -38.5t-56 -37.5l-7 9q20 35 41.5 76.5t31.5 67.5l8 5h80q17 -34 36.5 -75t35.5 -77zM272 0h-247l-2 12l44 11q13 5 17 11.5t4 20.5v404l-64 10l-1 12q24 7 55.5 13.5t64 10.5t58.5 5l7 -7v-470l65 -21z" />
<glyph unicode="&#xef;" horiz-adv-x="288" d="M106 656q0 -30 -17.5 -48.5t-42.5 -18.5q-21 0 -34.5 15.5t-13.5 40.5q0 29 17.5 47.5t42.5 18.5q21 0 34.5 -15t13.5 -40zM283 656q0 -30 -17.5 -48.5t-42.5 -18.5q-21 0 -34.5 15.5t-13.5 40.5q0 29 17.5 47.5t42.5 18.5q21 0 34.5 -15t13.5 -40zM272 0h-247l-2 12 l44 11q13 5 17 11.5t4 20.5v404l-64 10l-1 12q24 7 55.5 13.5t64 10.5t58.5 5l7 -7v-470l65 -21z" />
<glyph unicode="&#xf0;" horiz-adv-x="527" d="M490 279q0 -85 -27 -150t-78.5 -102t-125.5 -37q-101 0 -161 67.5t-60 187.5q0 81 27 140.5t75.5 92t114.5 32.5q36 0 66 -13q-35 69 -91 124l-158 -94l-15 27l149 89q-52 45 -113 73l4 11q88 -16 160 -53l117 71l17 -28l-103 -61q97 -61 149.5 -158t52.5 -219zM164 249 q0 -121 24.5 -174t75.5 -53q100 0 100 234q0 64 -9.5 114t-30.5 79t-56 29q-50 0 -77 -57t-27 -172z" />
<glyph unicode="&#xf1;" d="M397 659q10 11 22 26t22 30l10 -3q2 -12 2 -25q-3 -38 -21.5 -68t-54.5 -30q-29 0 -63.5 10.5t-66 23t-50.5 17.5q-10 -11 -22 -26t-22 -30l-10 4q-3 13 -3 25q3 37 22 67t55 30q28 0 61.5 -11t65 -23t53.5 -17zM272 0h-247l-2 12l44 11q13 5 17 11.5t4 20.5v404l-64 10 l-1 12q24 7 55.5 13.5t64 10.5t58.5 5l7 -7v-102q26 46 69 77.5t99 31.5q66 0 99.5 -39.5t33.5 -110.5v-327l65 -21l-2 -12h-247l-1 12l43 11q13 5 17.5 11.5t4.5 20.5v280q0 96 -80 96q-27 0 -55.5 -16.5t-45.5 -44.5v-337l65 -21z" />
<glyph unicode="&#xf2;" horiz-adv-x="527" d="M365 573l-8 -9q-54 15 -97.5 36t-68.5 44.5t-25 46.5q0 22 17.5 33t45.5 11q6 0 11.5 -0.5t9.5 -0.5q17 -31 49 -75.5t66 -85.5zM490 260q0 -80 -28.5 -141t-79.5 -95t-121 -34q-67 0 -117 29.5t-78 85t-28 134.5q0 85 29.5 145.5t81.5 93t120 32.5q66 0 115.5 -30.5 t77.5 -87t28 -132.5zM164 255q0 -122 24 -177.5t76 -55.5t76 57t24 169q0 119 -24 174.5t-74 55.5t-76 -54t-26 -169z" />
<glyph unicode="&#xf3;" horiz-adv-x="527" d="M372 691q0 -21 -24.5 -44.5t-66.5 -44.5t-96 -36l-8 9q33 41 63.5 84t48.5 74q4 0 9 0.5t12 0.5q27 0 44.5 -11t17.5 -32zM490 260q0 -80 -28.5 -141t-79.5 -95t-121 -34q-67 0 -117 29.5t-78 85t-28 134.5q0 85 29.5 145.5t81.5 93t120 32.5q66 0 115.5 -30.5t77.5 -87 t28 -132.5zM164 255q0 -122 24 -177.5t76 -55.5t76 57t24 169q0 119 -24 174.5t-74 55.5t-76 -54t-26 -169z" />
<glyph unicode="&#xf4;" horiz-adv-x="527" d="M405 577l-9 -6q-29 19 -63 39.5t-67 39.5q-29 -18 -64 -39.5t-67 -39.5l-7 9q17 23 35 50t34 52t25 42l8 5h81q23 -34 47.5 -75t46.5 -77zM490 260q0 -80 -28.5 -141t-79.5 -95t-121 -34q-67 0 -117 29.5t-78 85t-28 134.5q0 85 29.5 145.5t81.5 93t120 32.5 q66 0 115.5 -30.5t77.5 -87t28 -132.5zM164 255q0 -122 24 -177.5t76 -55.5t76 57t24 169q0 119 -24 174.5t-74 55.5t-76 -54t-26 -169z" />
<glyph unicode="&#xf5;" horiz-adv-x="527" d="M364 659q9 11 21 26t23 30l10 -3q2 -12 2 -25q-3 -38 -22 -68t-55 -30q-28 0 -62.5 10.5t-66 23t-51.5 17.5q-10 -11 -21.5 -26t-22.5 -30l-10 4q-3 13 -3 25q3 37 22.5 67t55.5 30q28 0 61.5 -11t65 -23t53.5 -17zM490 260q0 -80 -28.5 -141t-79.5 -95t-121 -34 q-67 0 -117 29.5t-78 85t-28 134.5q0 85 29.5 145.5t81.5 93t120 32.5q66 0 115.5 -30.5t77.5 -87t28 -132.5zM164 255q0 -122 24 -177.5t76 -55.5t76 57t24 169q0 119 -24 174.5t-74 55.5t-76 -54t-26 -169z" />
<glyph unicode="&#xf6;" horiz-adv-x="527" d="M220 656q0 -30 -20 -48.5t-50 -18.5q-25 0 -41.5 15.5t-16.5 40.5q0 29 21 47.5t50 18.5q25 0 41 -15t16 -40zM437 656q0 -30 -20 -48.5t-50 -18.5q-25 0 -41.5 15.5t-16.5 40.5q0 29 21 47.5t50 18.5q25 0 41 -15t16 -40zM490 260q0 -80 -28.5 -141t-79.5 -95t-121 -34 q-67 0 -117 29.5t-78 85t-28 134.5q0 85 29.5 145.5t81.5 93t120 32.5q66 0 115.5 -30.5t77.5 -87t28 -132.5zM164 255q0 -122 24 -177.5t76 -55.5t76 57t24 169q0 119 -24 174.5t-74 55.5t-76 -54t-26 -169z" />
<glyph unicode="&#xf7;" horiz-adv-x="569" d="M344 513q0 -29 -17.5 -49.5t-47.5 -20.5q-24 0 -39 17t-15 41q0 28 19 48.5t47 20.5q23 0 38 -16t15 -41zM485 284h-407v78q34 1 88 1.5t114.5 1t115 1t90.5 0.5l6 -6zM344 151q0 -29 -17.5 -49t-47.5 -20q-24 0 -39 16.5t-15 40.5q0 28 19 48.5t47 20.5q23 0 38 -16 t15 -41z" />
<glyph unicode="&#xf8;" horiz-adv-x="527" d="M490 260q0 -80 -28.5 -141t-79.5 -95t-121 -34q-106 0 -166 71l-45 -44l-21 23l47 47q-19 30 -28.5 68t-9.5 84q0 85 29.5 145.5t81.5 93t120 32.5q50 0 91 -18t70 -52l45 45l24 -23l-49 -48q40 -64 40 -154zM164 255q0 -43 2 -78l189 189q-19 112 -89 112q-50 0 -76 -54 t-26 -169zM364 248q0 43 -4 77l-189 -188q10 -59 33 -87t60 -28q52 0 76 57t24 169z" />
<glyph unicode="&#xf9;" d="M384 573l-8 -9q-55 15 -98.5 36t-68.5 44.5t-25 46.5q0 22 17.5 33t45.5 11q7 0 12 -0.5t10 -0.5q17 -31 48.5 -75.5t66.5 -85.5zM575 44q-14 -20 -39 -37t-62 -17q-43 0 -68 28t-25 71v6q-23 -41 -62 -73t-99 -32q-67 0 -103.5 40t-36.5 112v317l-64 10l-1 12 q24 7 55.5 13.5t64 10.5t58.5 5l7 -7v-337q0 -96 81 -97q59 1 100 60v330l-65 10l-1 12q24 7 56 13.5t64 10.5t58 5l8 -7v-388q0 -36 9.5 -51.5t30.5 -15.5q15 0 29 5z" />
<glyph unicode="&#xfa;" d="M393 691q0 -21 -24.5 -44.5t-66.5 -44.5t-96 -36l-8 9q33 41 63.5 84t48.5 74q4 0 9 0.5t12 0.5q27 0 44.5 -11t17.5 -32zM575 44q-14 -20 -39 -37t-62 -17q-43 0 -68 28t-25 71v6q-23 -41 -62 -73t-99 -32q-67 0 -103.5 40t-36.5 112v317l-64 10l-1 12q24 7 55.5 13.5 t64 10.5t58.5 5l7 -7v-337q0 -96 81 -97q59 1 100 60v330l-65 10l-1 12q24 7 56 13.5t64 10.5t58 5l8 -7v-388q0 -36 9.5 -51.5t30.5 -15.5q15 0 29 5z" />
<glyph unicode="&#xfb;" d="M426 577l-9 -6q-29 19 -63 39.5t-67 39.5q-29 -18 -64 -39.5t-67 -39.5l-7 9q17 23 35 50t34 52t25 42l8 5h81q23 -34 47.5 -75t46.5 -77zM575 44q-14 -20 -39 -37t-62 -17q-43 0 -68 28t-25 71v6q-23 -41 -62 -73t-99 -32q-67 0 -103.5 40t-36.5 112v317l-64 10l-1 12 q24 7 55.5 13.5t64 10.5t58.5 5l7 -7v-337q0 -96 81 -97q59 1 100 60v330l-65 10l-1 12q24 7 56 13.5t64 10.5t58 5l8 -7v-388q0 -36 9.5 -51.5t30.5 -15.5q15 0 29 5z" />
<glyph unicode="&#xfc;" d="M241 656q0 -30 -20 -48.5t-50 -18.5q-25 0 -41.5 15.5t-16.5 40.5q0 29 21 47.5t50 18.5q25 0 41 -15t16 -40zM458 656q0 -30 -20 -48.5t-50 -18.5q-25 0 -41.5 15.5t-16.5 40.5q0 29 21 47.5t50 18.5q25 0 41 -15t16 -40zM575 44q-14 -20 -39 -37t-62 -17q-43 0 -68 28 t-25 71v6q-23 -41 -62 -73t-99 -32q-67 0 -103.5 40t-36.5 112v317l-64 10l-1 12q24 7 55.5 13.5t64 10.5t58.5 5l7 -7v-337q0 -96 81 -97q59 1 100 60v330l-65 10l-1 12q24 7 56 13.5t64 10.5t58 5l8 -7v-388q0 -36 9.5 -51.5t30.5 -15.5q15 0 29 5z" />
<glyph unicode="&#xfd;" horiz-adv-x="529" d="M374 691q0 -21 -24.5 -44.5t-66.5 -44.5t-95 -36l-8 9q33 41 63.5 84t47.5 74q4 0 9.5 0.5t12.5 0.5q27 0 44 -11t17 -32zM119 -195q-36 0 -58 18.5t-22 47.5q0 11 3 20.5t7 16.5q12 -5 32 -9.5t42 -4.5q45 0 86.5 25.5t65.5 76.5h-53l-149 429q-8 24 -17 36t-26 21 l-30 6l2 12h255l1 -12l-66 -21l115 -373l117 375l-66 19l1 12h168l2 -12l-36 -8q-18 -7 -27 -21t-17 -37l-133 -396q-20 -60 -47.5 -110t-64 -80.5t-85.5 -30.5z" />
<glyph unicode="&#xfe;" horiz-adv-x="558" d="M284 -185h-267l-2 12l44 11q13 5 17 11.5t4 20.5v769l-64 10l-1 12q24 7 55.5 13.5t64 10.5t58.5 5l7 -7v-268q23 41 62 68t89 27q79 0 124 -65.5t45 -186.5q0 -90 -30 -149.5t-80.5 -89t-112.5 -29.5q-25 0 -49.5 3.5t-47.5 8.5v-154l85 -21zM291 436q-29 0 -54 -17 t-37 -45v-323q19 -9 38 -14t41 -5q39 0 65 27.5t38 75.5t12 109q0 92 -25 142t-78 50z" />
<glyph unicode="&#xff;" horiz-adv-x="529" d="M223 656q0 -30 -20 -48.5t-50 -18.5q-26 0 -42 15.5t-16 40.5q0 29 21 47.5t49 18.5q26 0 42 -15t16 -40zM440 656q0 -30 -20 -48.5t-50 -18.5q-26 0 -42 15.5t-16 40.5q0 29 21 47.5t49 18.5q26 0 42 -15t16 -40zM119 -195q-36 0 -58 18.5t-22 47.5q0 11 3 20.5t7 16.5 q12 -5 32 -9.5t42 -4.5q45 0 86.5 25.5t65.5 76.5h-53l-149 429q-8 24 -17 36t-26 21l-30 6l2 12h255l1 -12l-66 -21l115 -373l117 375l-66 19l1 12h168l2 -12l-36 -8q-18 -7 -27 -21t-17 -37l-133 -396q-20 -60 -47.5 -110t-64 -80.5t-85.5 -30.5z" />
<glyph unicode="&#x100;" horiz-adv-x="667" d="M190 768v65h288v-65h-288zM301 652h64l218 -581q8 -22 17 -31.5t29 -15.5l38 -11l-2 -13h-284l-2 13l82 22l-59 166h-232l-61 -167l82 -21l-2 -13h-187l-2 13l41 10q21 6 28.5 17.5t16.5 33.5zM182 233h209l-103 291z" />
<glyph unicode="&#x101;" horiz-adv-x="519" d="M109 618v65h288v-65h-288zM512 46q-13 -20 -36.5 -38t-62.5 -18q-42 0 -66.5 24.5t-27.5 63.5q-19 -34 -57 -61t-95 -27q-54 0 -90.5 31.5t-36.5 84.5t36 88t99 53.5t144 21.5v115q0 49 -16 71.5t-50 22.5q-37 0 -61 -27t-24 -66q0 -10 1 -23t4 -26q-29 -13 -56 -13 q-25 0 -41.5 12t-16.5 37q0 34 28 66t75.5 52t103.5 20q86 0 131 -41.5t45 -129.5q0 -57 -1.5 -116t-1.5 -108q0 -36 10 -51.5t31 -15.5q15 0 28 5zM166 128q0 -37 19 -55t46 -18q28 0 52.5 16t35.5 42v130q-66 -5 -109.5 -33t-43.5 -82z" />
<glyph unicode="&#x102;" horiz-adv-x="667" d="M443 872l4 1l10 -3q-7 -70 -39.5 -106.5t-87.5 -36.5q-53 0 -84.5 37t-35.5 106l14 4q14 -33 40.5 -51t70.5 -18q39 0 65.5 17.5t42.5 49.5zM301 652h64l218 -581q8 -22 17 -31.5t29 -15.5l38 -11l-2 -13h-284l-2 13l82 22l-59 166h-232l-61 -167l82 -21l-2 -13h-187 l-2 13l41 10q21 6 28.5 17.5t16.5 33.5zM182 233h209l-103 291z" />
<glyph unicode="&#x103;" horiz-adv-x="519" d="M365 722l4 2l11 -4q-7 -69 -40 -106t-87 -37t-85 37t-35 107l14 3q13 -32 40 -50.5t70 -18.5q40 0 66 18t42 49zM512 46q-13 -20 -36.5 -38t-62.5 -18q-42 0 -66.5 24.5t-27.5 63.5q-19 -34 -57 -61t-95 -27q-54 0 -90.5 31.5t-36.5 84.5t36 88t99 53.5t144 21.5v115 q0 49 -16 71.5t-50 22.5q-37 0 -61 -27t-24 -66q0 -10 1 -23t4 -26q-29 -13 -56 -13q-25 0 -41.5 12t-16.5 37q0 34 28 66t75.5 52t103.5 20q86 0 131 -41.5t45 -129.5q0 -57 -1.5 -116t-1.5 -108q0 -36 10 -51.5t31 -15.5q15 0 28 5zM166 128q0 -37 19 -55t46 -18 q28 0 52.5 16t35.5 42v130q-66 -5 -109.5 -33t-43.5 -82z" />
<glyph unicode="&#x104;" horiz-adv-x="667" d="M672 -141q-15 -26 -42.5 -41.5t-59.5 -15.5q-36 0 -57.5 18t-21.5 51q0 34 33.5 71t98.5 58h-242l-2 13l82 22l-59 166h-232l-61 -167l82 -21l-2 -13h-187l-2 13l41 10q21 6 28.5 17.5t16.5 33.5l215 578h64l218 -581q8 -22 17 -31.5t29 -15.5l38 -11l-2 -13 q-36 -15 -61 -44.5t-25 -58.5q0 -21 12.5 -30.5t32.5 -9.5q22 0 45 9zM182 233h209l-103 291z" />
<glyph unicode="&#x105;" horiz-adv-x="519" d="M497 -141q-15 -25 -38.5 -41t-55.5 -16q-29 0 -51.5 15.5t-22.5 48.5q0 37 30 66t78 60q-12 -2 -24 -2q-42 0 -66.5 24.5t-27.5 63.5q-19 -34 -57 -61t-95 -27q-54 0 -90.5 31.5t-36.5 84.5t36 88t99 53.5t144 21.5v115q0 49 -16 71.5t-50 22.5q-37 0 -61 -27t-24 -66 q0 -10 1 -23t4 -26q-29 -13 -56 -13q-25 0 -41.5 12t-16.5 37q0 34 28 66t75.5 52t103.5 20q86 0 131 -41.5t45 -129.5q0 -57 -1.5 -116t-1.5 -108q0 -36 10 -51.5t31 -15.5q15 0 28 5l4 -7q-19 -30 -41 -55.5t-37.5 -48.5t-15.5 -48q0 -19 9.5 -28t25.5 -9q11 0 21 2t20 7z M166 128q0 -37 19 -55t46 -18q28 0 52.5 16t35.5 42v130q-66 -5 -109.5 -33t-43.5 -82z" />
<glyph unicode="&#x106;" horiz-adv-x="604" d="M459 844q0 -21 -24.5 -44.5t-66.5 -44.5t-95 -36l-8 9q33 41 63.5 84t47.5 74q4 0 9.5 0.5t12.5 0.5q27 0 44 -11t17 -32zM550 19q-37 -14 -78.5 -21.5t-92.5 -7.5q-101 0 -177.5 39t-119 113.5t-42.5 178.5t44 180t121.5 117.5t175.5 41.5q48 0 89 -8t72 -21 q3 -29 3 -61q0 -39 -5 -73.5t-14 -61.5h-9l-72 183q-26 10 -57 10q-60 0 -108.5 -37.5t-77 -106.5t-28.5 -161q0 -94 29 -161.5t77.5 -103.5t105.5 -36q39 0 67 10l72 187h9q9 -25 14 -61.5t5 -78.5q0 -32 -3 -60z" />
<glyph unicode="&#x107;" horiz-adv-x="468" d="M366 691q0 -21 -24.5 -44.5t-66.5 -44.5t-95 -36l-8 9q33 41 63.5 84t47.5 74q4 0 9.5 0.5t12.5 0.5q27 0 44 -11t17 -32zM38 244q0 82 31 141.5t83.5 92t117.5 32.5q56 0 95.5 -20.5t60.5 -53.5t21 -72q0 -29 -17 -42t-42 -13q-15 0 -26.5 3.5t-19.5 8.5q1 5 1 11 q0 70 -18 108t-56 38q-47 0 -76 -51.5t-29 -143.5q0 -102 43 -154t115 -52q36 0 67 13t58 33l7 -8q-13 -33 -37.5 -61.5t-62.5 -46t-92 -17.5q-66 0 -116.5 30.5t-79 87.5t-28.5 136z" />
<glyph unicode="&#x108;" horiz-adv-x="604" d="M490 728l-9 -7q-29 19 -63 40t-67 39q-29 -18 -64 -39.5t-67 -38.5l-7 8q17 24 35 51t34 51.5t25 41.5l8 6h81q23 -35 47.5 -75.5t46.5 -76.5zM550 19q-37 -14 -78.5 -21.5t-92.5 -7.5q-101 0 -177.5 39t-119 113.5t-42.5 178.5t44 180t121.5 117.5t175.5 41.5 q48 0 89 -8t72 -21q3 -29 3 -61q0 -39 -5 -73.5t-14 -61.5h-9l-72 183q-26 10 -57 10q-60 0 -108.5 -37.5t-77 -106.5t-28.5 -161q0 -94 29 -161.5t77.5 -103.5t105.5 -36q39 0 67 10l72 187h9q9 -25 14 -61.5t5 -78.5q0 -32 -3 -60z" />
<glyph unicode="&#x109;" horiz-adv-x="468" d="M399 577l-8 -6q-29 19 -63 39.5t-68 39.5q-28 -18 -63 -39.5t-67 -39.5l-7 9q16 23 34.5 50t34 52t25.5 42l7 5h82q22 -34 47 -75t46 -77zM38 244q0 82 31 141.5t83.5 92t117.5 32.5q56 0 95.5 -20.5t60.5 -53.5t21 -72q0 -29 -17 -42t-42 -13q-15 0 -26.5 3.5t-19.5 8.5 q1 5 1 11q0 70 -18 108t-56 38q-47 0 -76 -51.5t-29 -143.5q0 -102 43 -154t115 -52q36 0 67 13t58 33l7 -8q-13 -33 -37.5 -61.5t-62.5 -46t-92 -17.5q-66 0 -116.5 30.5t-79 87.5t-28.5 136z" />
<glyph unicode="&#x10a;" horiz-adv-x="604" d="M425 806q0 -32 -22.5 -51.5t-56.5 -19.5q-29 0 -47.5 16.5t-18.5 43.5q0 31 23.5 50.5t55.5 19.5q29 0 47.5 -16t18.5 -43zM550 19q-37 -14 -78.5 -21.5t-92.5 -7.5q-101 0 -177.5 39t-119 113.5t-42.5 178.5t44 180t121.5 117.5t175.5 41.5q48 0 89 -8t72 -21 q3 -29 3 -61q0 -39 -5 -73.5t-14 -61.5h-9l-72 183q-26 10 -57 10q-60 0 -108.5 -37.5t-77 -106.5t-28.5 -161q0 -94 29 -161.5t77.5 -103.5t105.5 -36q39 0 67 10l72 187h9q9 -25 14 -61.5t5 -78.5q0 -32 -3 -60z" />
<glyph unicode="&#x10b;" horiz-adv-x="468" d="M334 656q0 -32 -22.5 -51.5t-56.5 -19.5q-29 0 -47.5 16.5t-18.5 43.5q0 31 23.5 50.5t55.5 19.5q29 0 47.5 -16t18.5 -43zM38 244q0 82 31 141.5t83.5 92t117.5 32.5q56 0 95.5 -20.5t60.5 -53.5t21 -72q0 -29 -17 -42t-42 -13q-15 0 -26.5 3.5t-19.5 8.5q1 5 1 11 q0 70 -18 108t-56 38q-47 0 -76 -51.5t-29 -143.5q0 -102 43 -154t115 -52q36 0 67 13t58 33l7 -8q-13 -33 -37.5 -61.5t-62.5 -46t-92 -17.5q-66 0 -116.5 30.5t-79 87.5t-28.5 136z" />
<glyph unicode="&#x10c;" horiz-adv-x="604" d="M398 727l-7 -6h-82q-22 34 -47 75t-46 77l8 7q29 -20 63 -40.5t67 -39.5q29 18 64 39.5t67 39.5l7 -8q-17 -24 -35 -51t-34 -51.5t-25 -41.5zM550 19q-37 -14 -78.5 -21.5t-92.5 -7.5q-101 0 -177.5 39t-119 113.5t-42.5 178.5t44 180t121.5 117.5t175.5 41.5q48 0 89 -8 t72 -21q3 -29 3 -61q0 -39 -5 -73.5t-14 -61.5h-9l-72 183q-26 10 -57 10q-60 0 -108.5 -37.5t-77 -106.5t-28.5 -161q0 -94 29 -161.5t77.5 -103.5t105.5 -36q39 0 67 10l72 187h9q9 -25 14 -61.5t5 -78.5q0 -32 -3 -60z" />
<glyph unicode="&#x10d;" horiz-adv-x="468" d="M304 577l-7 -6h-82q-22 34 -47 75t-46 77l8 7q29 -20 63 -40.5t67 -39.5q29 18 64 39.5t67 39.5l7 -8q-17 -24 -35 -51t-34 -51.5t-25 -41.5zM38 244q0 82 31 141.5t83.5 92t117.5 32.5q56 0 95.5 -20.5t60.5 -53.5t21 -72q0 -29 -17 -42t-42 -13q-15 0 -26.5 3.5 t-19.5 8.5q1 5 1 11q0 70 -18 108t-56 38q-47 0 -76 -51.5t-29 -143.5q0 -102 43 -154t115 -52q36 0 67 13t58 33l7 -8q-13 -33 -37.5 -61.5t-62.5 -46t-92 -17.5q-66 0 -116.5 30.5t-79 87.5t-28.5 136z" />
<glyph unicode="&#x10e;" horiz-adv-x="688" d="M399 727l-7 -6h-82q-22 34 -47 75t-46 77l8 7q29 -20 63 -40.5t67 -39.5q29 18 64 39.5t67 39.5l7 -8q-17 -24 -35 -51t-34 -51.5t-25 -41.5zM311 0h-263l-2 13l52 11q13 4 17 11t4 21v561l-73 20l1 13h268q98 0 172.5 -37.5t116 -109.5t41.5 -174t-42.5 -175.5 t-118 -113.5t-173.5 -40zM301 619h-57v-588h58q102 0 159 80t58 218q0 139 -58 214.5t-160 75.5z" />
<glyph unicode="&#x10f;" horiz-adv-x="704" d="M682 629q0 -31 -16 -64.5t-41.5 -62.5t-53.5 -47l-9 9q14 23 26.5 52t16.5 59q-22 4 -36.5 18.5t-14.5 37.5q0 30 18.5 47.5t46.5 17.5t45.5 -19t17.5 -48zM38 233q0 93 32 154.5t87 92t123 30.5q40 0 78 -9v143l-64 10l-1 12q24 7 55.5 13.5t64 10.5t58.5 5l7 -7v-573 q0 -36 9.5 -51.5t29.5 -15.5q14 0 29 5l4 -7q-16 -24 -40 -40t-60 -16q-40 0 -64.5 24.5t-27.5 63.5q-20 -35 -57 -61.5t-88 -26.5q-78 0 -126.5 63.5t-48.5 179.5zM164 252q0 -95 28.5 -146t79.5 -51q25 0 50.5 16.5t35.5 42.5v336q-26 18 -62 18q-65 0 -98.5 -59.5 t-33.5 -156.5z" />
<glyph unicode="&#x110;" horiz-adv-x="688" d="M311 0h-263l-2 13l52 11q13 4 17 11t4 21v256h-74v29h74v276l-73 20l1 13h268q98 0 172.5 -37.5t116 -109.5t41.5 -174t-42.5 -175.5t-118 -113.5t-173.5 -40zM379 312h-135v-281h58q102 0 159 80t58 218q0 139 -58 214.5t-160 75.5h-57v-278h135v-29z" />
<glyph unicode="&#x111;" horiz-adv-x="558" d="M38 233q0 93 32 154.5t87 92t123 30.5q40 0 78 -9v61h-157v29h157v53l-64 10l-1 12q24 7 55.5 13.5t64 10.5t58.5 5l7 -7v-97h72v-29h-72v-447q0 -36 9.5 -51.5t29.5 -15.5q14 0 29 5l4 -7q-16 -24 -40 -40t-60 -16q-40 0 -64.5 24.5t-27.5 63.5q-20 -35 -57 -61.5 t-88 -26.5q-78 0 -126.5 63.5t-48.5 179.5zM164 252q0 -95 28.5 -146t79.5 -51q25 0 50.5 16.5t35.5 42.5v336q-26 18 -62 18q-65 0 -98.5 -59.5t-33.5 -156.5z" />
<glyph unicode="&#x112;" horiz-adv-x="568" d="M168 768v65h288v-65h-288zM520 0h-472l-2 13l52 11q13 4 17 11t4 21v561l-73 20l1 13h465q5 -32 5 -72q0 -71 -15 -122h-9l-73 162q-21 0 -42.5 0.5t-42.5 0.5h-91v-277l186 10l-2 -50l-184 9v-279h95h44.5h44.5l73 166h9q16 -52 16 -124q0 -41 -6 -74z" />
<glyph unicode="&#x113;" horiz-adv-x="483" d="M109 618v65h288v-65h-288zM454 115q-24 -55 -72 -90t-124 -35q-65 0 -114.5 30.5t-77.5 87t-28 133.5q0 85 31 145t84 92t117 32q88 0 137.5 -55.5t49.5 -142.5q0 -25 -4 -51l-7 -6h-281q6 -90 48.5 -134t108.5 -44q39 0 68 12t57 34zM164 285v-4l170 7q1 12 1.5 22.5 t0.5 21.5q0 68 -15.5 107t-57.5 39q-45 0 -72 -50.5t-27 -142.5z" />
<glyph unicode="&#x114;" horiz-adv-x="568" d="M421 872l4 1l11 -3q-7 -70 -40 -106.5t-87 -36.5t-85 37t-35 106l14 4q13 -33 40 -51t70 -18q40 0 66 17.5t42 49.5zM520 0h-472l-2 13l52 11q13 4 17 11t4 21v561l-73 20l1 13h465q5 -32 5 -72q0 -71 -15 -122h-9l-73 162q-21 0 -42.5 0.5t-42.5 0.5h-91v-277l186 10 l-2 -50l-184 9v-279h95h44.5h44.5l73 166h9q16 -52 16 -124q0 -41 -6 -74z" />
<glyph unicode="&#x115;" horiz-adv-x="483" d="M365 722l4 2l11 -4q-7 -69 -40 -106t-87 -37t-85 37t-35 107l14 3q13 -32 40 -50.5t70 -18.5q40 0 66 18t42 49zM454 115q-24 -55 -72 -90t-124 -35q-65 0 -114.5 30.5t-77.5 87t-28 133.5q0 85 31 145t84 92t117 32q88 0 137.5 -55.5t49.5 -142.5q0 -25 -4 -51l-7 -6 h-281q6 -90 48.5 -134t108.5 -44q39 0 68 12t57 34zM164 285v-4l170 7q1 12 1.5 22.5t0.5 21.5q0 68 -15.5 107t-57.5 39q-45 0 -72 -50.5t-27 -142.5z" />
<glyph unicode="&#x116;" horiz-adv-x="568" d="M385 806q0 -32 -22.5 -51.5t-56.5 -19.5q-29 0 -47.5 16.5t-18.5 43.5q0 31 23.5 50.5t55.5 19.5q29 0 47.5 -16t18.5 -43zM520 0h-472l-2 13l52 11q13 4 17 11t4 21v561l-73 20l1 13h465q5 -32 5 -72q0 -71 -15 -122h-9l-73 162q-21 0 -42.5 0.5t-42.5 0.5h-91v-277 l186 10l-2 -50l-184 9v-279h95h44.5h44.5l73 166h9q16 -52 16 -124q0 -41 -6 -74z" />
<glyph unicode="&#x117;" horiz-adv-x="483" d="M332 656q0 -32 -22.5 -51.5t-56.5 -19.5q-29 0 -47.5 16.5t-18.5 43.5q0 31 23.5 50.5t55.5 19.5q29 0 47.5 -16t18.5 -43zM454 115q-24 -55 -72 -90t-124 -35q-65 0 -114.5 30.5t-77.5 87t-28 133.5q0 85 31 145t84 92t117 32q88 0 137.5 -55.5t49.5 -142.5 q0 -25 -4 -51l-7 -6h-281q6 -90 48.5 -134t108.5 -44q39 0 68 12t57 34zM164 285v-4l170 7q1 12 1.5 22.5t0.5 21.5q0 68 -15.5 107t-57.5 39q-45 0 -72 -50.5t-27 -142.5z" />
<glyph unicode="&#x118;" horiz-adv-x="568" d="M527 -141q-15 -26 -42.5 -41.5t-59.5 -15.5q-36 0 -57.5 18t-21.5 51q0 34 33.5 71t98.5 58h-430l-2 13l52 11q13 4 17 11t4 21v561l-73 20l1 13h465q5 -32 5 -72q0 -71 -15 -122h-9l-73 162q-21 0 -42.5 0.5t-42.5 0.5h-91v-277l186 10l-2 -50l-184 9v-279h95h44.5h44.5 l73 166h9q16 -52 16 -124q0 -41 -6 -74q-36 -15 -61 -44.5t-25 -58.5q0 -21 12.5 -30.5t32.5 -9.5q22 0 45 9z" />
<glyph unicode="&#x119;" horiz-adv-x="483" d="M373 -141q-16 -26 -43 -41.5t-59 -15.5q-36 0 -56.5 17.5t-20.5 49.5q0 38 35.5 67t90.5 61q-29 -7 -62 -7q-65 0 -114.5 30.5t-77.5 87t-28 133.5q0 85 31 145t84 92t117 32q88 0 137.5 -55.5t49.5 -142.5q0 -25 -4 -51l-7 -6h-281q6 -90 48.5 -134t108.5 -44 q39 0 68 12t57 34l7 -8q-20 -47 -54 -77q-30 -29 -57 -52.5t-44 -45t-17 -44.5q0 -21 11 -30t32 -9q22 0 44 9zM164 285v-4l170 7q1 12 1.5 22.5t0.5 21.5q0 68 -15.5 107t-57.5 39q-45 0 -72 -50.5t-27 -142.5z" />
<glyph unicode="&#x11a;" horiz-adv-x="568" d="M358 727l-7 -6h-82q-22 34 -47 75t-46 77l8 7q29 -20 63 -40.5t67 -39.5q29 18 64 39.5t67 39.5l7 -8q-17 -24 -35 -51t-34 -51.5t-25 -41.5zM520 0h-472l-2 13l52 11q13 4 17 11t4 21v561l-73 20l1 13h465q5 -32 5 -72q0 -71 -15 -122h-9l-73 162q-21 0 -42.5 0.5 t-42.5 0.5h-91v-277l186 10l-2 -50l-184 9v-279h95h44.5h44.5l73 166h9q16 -52 16 -124q0 -41 -6 -74z" />
<glyph unicode="&#x11b;" horiz-adv-x="483" d="M302 577l-7 -6h-82q-22 34 -47 75t-46 77l8 7q29 -20 63 -40.5t67 -39.5q29 18 64 39.5t67 39.5l7 -8q-17 -24 -35 -51t-34 -51.5t-25 -41.5zM454 115q-24 -55 -72 -90t-124 -35q-65 0 -114.5 30.5t-77.5 87t-28 133.5q0 85 31 145t84 92t117 32q88 0 137.5 -55.5 t49.5 -142.5q0 -25 -4 -51l-7 -6h-281q6 -90 48.5 -134t108.5 -44q39 0 68 12t57 34zM164 285v-4l170 7q1 12 1.5 22.5t0.5 21.5q0 68 -15.5 107t-57.5 39q-45 0 -72 -50.5t-27 -142.5z" />
<glyph unicode="&#x11c;" horiz-adv-x="630" d="M488 728l-9 -7q-29 19 -63 40t-67 39q-29 -18 -64 -39.5t-67 -38.5l-7 8q17 24 35 51t34 51.5t25 41.5l8 6h81q23 -35 47.5 -75.5t46.5 -76.5zM562 19q-75 -29 -180 -29q-102 0 -178 38.5t-118.5 112.5t-42.5 180q0 105 45.5 181t124 117t175.5 41q51 0 92 -7.5t72 -21.5 q4 -29 4 -61q0 -79 -19 -135h-9l-72 183q-27 10 -61 10q-60 0 -111.5 -36.5t-83 -104.5t-31.5 -163q0 -96 32.5 -163.5t82.5 -103t105 -35.5q35 0 63 8v245l-75 20l2 12h246l2 -12l-43 -11q-14 -4 -18 -11t-4 -20v-234z" />
<glyph unicode="&#x11d;" horiz-adv-x="487" d="M380 577l-8 -6q-29 19 -63 39.5t-68 39.5q-28 -18 -63 -39.5t-67 -39.5l-7 9q17 24 35 50.5t34 51.5t25 42l7 5h82q23 -34 47.5 -75t45.5 -77zM479 -31q0 -71 -64.5 -117.5t-190.5 -46.5q-57 0 -107 11.5t-80.5 35t-30.5 58.5q0 26 18 45.5t47.5 31t62.5 14.5q-1 1 -2 3 q-22 9 -37.5 28t-15.5 47q0 32 23.5 57t58.5 35q-57 15 -90.5 55.5t-33.5 103.5q0 54 27.5 94t74.5 62t105 22q77 0 129.5 2.5t101.5 10.5q5 -6 8 -14.5t3 -20.5q0 -34 -40 -34q-17 0 -45 5t-59 11l-2 -3q36 -17 62 -52t26 -82q0 -54 -25.5 -91.5t-70.5 -57t-102 -19.5 q-23 0 -45 3q-7 -7 -11.5 -15.5t-4.5 -17.5q0 -32 54 -37l91 -5q76 -6 120.5 -34.5t44.5 -87.5zM153 330q0 -63 19.5 -99t59.5 -36t60.5 36.5t20.5 103.5q0 58 -17.5 95.5t-58.5 37.5q-42 0 -63 -39t-21 -99zM107 -79q0 -39 35 -61.5t98 -22.5q62 0 102.5 24t40.5 61 q0 27 -24 40.5t-69 16.5l-79 5q-27 0 -44 3q-28 -11 -44 -27.5t-16 -38.5z" />
<glyph unicode="&#x11e;" horiz-adv-x="630" d="M459 872l4 1l11 -3q-7 -70 -40 -106.5t-87 -36.5t-85 37t-35 106l14 4q13 -33 40 -51t70 -18q40 0 66 17.5t42 49.5zM562 19q-75 -29 -180 -29q-102 0 -178 38.5t-118.5 112.5t-42.5 180q0 105 45.5 181t124 117t175.5 41q51 0 92 -7.5t72 -21.5q4 -29 4 -61 q0 -79 -19 -135h-9l-72 183q-27 10 -61 10q-60 0 -111.5 -36.5t-83 -104.5t-31.5 -163q0 -96 32.5 -163.5t82.5 -103t105 -35.5q35 0 63 8v245l-75 20l2 12h246l2 -12l-43 -11q-14 -4 -18 -11t-4 -20v-234z" />
<glyph unicode="&#x11f;" horiz-adv-x="487" d="M349 722l4 2l11 -4q-7 -69 -40 -106t-87 -37t-85 37t-35 107l14 3q13 -32 40 -50.5t70 -18.5q40 0 66 18t42 49zM479 -31q0 -71 -64.5 -117.5t-190.5 -46.5q-57 0 -107 11.5t-80.5 35t-30.5 58.5q0 26 18 45.5t47.5 31t62.5 14.5q-1 1 -2 3q-22 9 -37.5 28t-15.5 47 q0 32 23.5 57t58.5 35q-57 15 -90.5 55.5t-33.5 103.5q0 54 27.5 94t74.5 62t105 22q77 0 129.5 2.5t101.5 10.5q5 -6 8 -14.5t3 -20.5q0 -34 -40 -34q-17 0 -45 5t-59 11l-2 -3q36 -17 62 -52t26 -82q0 -54 -25.5 -91.5t-70.5 -57t-102 -19.5q-23 0 -45 3 q-7 -7 -11.5 -15.5t-4.5 -17.5q0 -32 54 -37l91 -5q76 -6 120.5 -34.5t44.5 -87.5zM153 330q0 -63 19.5 -99t59.5 -36t60.5 36.5t20.5 103.5q0 58 -17.5 95.5t-58.5 37.5q-42 0 -63 -39t-21 -99zM107 -79q0 -39 35 -61.5t98 -22.5q62 0 102.5 24t40.5 61q0 27 -24 40.5 t-69 16.5l-79 5q-27 0 -44 3q-28 -11 -44 -27.5t-16 -38.5z" />
<glyph unicode="&#x120;" horiz-adv-x="630" d="M423 806q0 -32 -22.5 -51.5t-56.5 -19.5q-29 0 -47.5 16.5t-18.5 43.5q0 31 23.5 50.5t55.5 19.5q29 0 47.5 -16t18.5 -43zM562 19q-75 -29 -180 -29q-102 0 -178 38.5t-118.5 112.5t-42.5 180q0 105 45.5 181t124 117t175.5 41q51 0 92 -7.5t72 -21.5q4 -29 4 -61 q0 -79 -19 -135h-9l-72 183q-27 10 -61 10q-60 0 -111.5 -36.5t-83 -104.5t-31.5 -163q0 -96 32.5 -163.5t82.5 -103t105 -35.5q35 0 63 8v245l-75 20l2 12h246l2 -12l-43 -11q-14 -4 -18 -11t-4 -20v-234z" />
<glyph unicode="&#x121;" horiz-adv-x="487" d="M316 656q0 -31 -22.5 -51t-56.5 -20q-29 0 -47.5 16.5t-18.5 43.5q0 31 23.5 50.5t55.5 19.5q29 0 47.5 -16t18.5 -43zM479 -31q0 -71 -64.5 -117.5t-190.5 -46.5q-57 0 -107 11.5t-80.5 35t-30.5 58.5q0 26 18 45.5t47.5 31t62.5 14.5q-1 1 -2 3q-22 9 -37.5 28 t-15.5 47q0 32 23.5 57t58.5 35q-57 15 -90.5 55.5t-33.5 103.5q0 54 27.5 94t74.5 62t105 22q77 0 129.5 2.5t101.5 10.5q5 -6 8 -14.5t3 -20.5q0 -34 -40 -34q-17 0 -45 5t-59 11l-2 -3q36 -17 62 -52t26 -82q0 -54 -25.5 -91.5t-70.5 -57t-102 -19.5q-23 0 -45 3 q-7 -7 -11.5 -15.5t-4.5 -17.5q0 -32 54 -37l91 -5q76 -6 120.5 -34.5t44.5 -87.5zM153 330q0 -63 19.5 -99t59.5 -36t60.5 36.5t20.5 103.5q0 58 -17.5 95.5t-58.5 37.5q-42 0 -63 -39t-21 -99zM107 -79q0 -39 35 -61.5t98 -22.5q62 0 102.5 24t40.5 61q0 27 -24 40.5 t-69 16.5l-79 5q-27 0 -44 3q-28 -11 -44 -27.5t-16 -38.5z" />
<glyph unicode="&#x122;" horiz-adv-x="630" d="M562 19q-75 -29 -180 -29q-102 0 -178 38.5t-118.5 112.5t-42.5 180q0 105 45.5 181t124 117t175.5 41q51 0 92 -7.5t72 -21.5q4 -29 4 -61q0 -79 -19 -135h-9l-72 183q-27 10 -61 10q-60 0 -111.5 -36.5t-83 -104.5t-31.5 -163q0 -96 32.5 -163.5t82.5 -103t105 -35.5 q35 0 63 8v245l-75 20l2 12h246l2 -12l-43 -11q-14 -4 -18 -11t-4 -20v-234zM420 -145q0 -31 -16 -64.5t-41.5 -62.5t-53.5 -47l-10 8q15 24 27.5 53t16.5 59q-22 4 -36.5 18t-14.5 38q0 29 18.5 46.5t46.5 17.5t45.5 -18.5t17.5 -47.5z" />
<glyph unicode="&#x123;" horiz-adv-x="487" d="M175 652q0 31 16 64.5t41.5 62.5t53.5 47l9 -9q-15 -24 -27 -52.5t-16 -58.5q22 -4 36.5 -18.5t14.5 -37.5q0 -30 -18.5 -47.5t-46.5 -17.5t-45.5 19t-17.5 48zM479 -31q0 -71 -64.5 -117.5t-190.5 -46.5q-57 0 -107 11.5t-80.5 35t-30.5 58.5q0 26 18 45.5t47.5 31 t62.5 14.5q-1 1 -2 3q-22 9 -37.5 28t-15.5 47q0 32 23.5 57t58.5 35q-57 15 -90.5 55.5t-33.5 103.5q0 54 27.5 94t74.5 62t105 22q77 0 129.5 2.5t101.5 10.5q5 -6 8 -14.5t3 -20.5q0 -34 -40 -34q-17 0 -45 5t-59 11l-2 -3q36 -17 62 -52t26 -82q0 -54 -25.5 -91.5 t-70.5 -57t-102 -19.5q-23 0 -45 3q-7 -7 -11.5 -15.5t-4.5 -17.5q0 -32 54 -37l91 -5q76 -6 120.5 -34.5t44.5 -87.5zM153 330q0 -63 19.5 -99t59.5 -36t60.5 36.5t20.5 103.5q0 58 -17.5 95.5t-58.5 37.5q-42 0 -63 -39t-21 -99zM107 -79q0 -39 35 -61.5t98 -22.5 q62 0 102.5 24t40.5 61q0 27 -24 40.5t-69 16.5l-79 5q-27 0 -44 3q-28 -11 -44 -27.5t-16 -38.5z" />
<glyph unicode="&#x124;" horiz-adv-x="756" d="M515 728l-8 -7q-29 19 -63 40t-68 39q-28 -18 -63 -39.5t-67 -38.5l-7 8q16 24 34.5 51t34 51.5t25.5 41.5l7 6h82q22 -35 47 -75.5t46 -76.5zM317 0h-268l-2 13l51 11q13 4 17 11t4 21v561l-74 20l2 13h268l1 -13l-50 -11q-14 -4 -18 -11t-4 -20v-246h268v268l-74 20 l2 13h268l1 -13l-50 -11q-14 -4 -18 -11t-4 -20v-561l74 -21l-1 -13h-268l-2 13l51 11q13 4 17 11t4 21v259h-268v-281l74 -21z" />
<glyph unicode="&#x125;" horiz-adv-x="581" d="M264 745l-9 -6q-29 19 -63 39.5t-67 39.5q-29 -18 -64 -39.5t-67 -39.5l-7 9q17 23 35 50t34 52t25 42l8 5h81q23 -34 47.5 -75t46.5 -77zM264 0h-247l-2 12l44 11q13 5 17 11.5t4 20.5v589l-64 10l-1 12q24 7 55.5 13.5t64 10.5t58.5 5l7 -7v-285q26 44 68.5 75.5 t99.5 31.5q66 0 99.5 -39.5t33.5 -110.5v-327l65 -21l-2 -12h-247l-1 12l43 11q13 5 17.5 11.5t4.5 20.5v280q0 46 -19.5 71t-61.5 25q-28 0 -55.5 -16.5t-44.5 -44.5v-337l65 -21z" />
<glyph unicode="&#x126;" horiz-adv-x="756" d="M317 0h-268l-2 13l51 11q13 4 17 11t4 21v400h-79v34h79v127l-74 20l2 13h268l1 -13l-50 -11q-14 -4 -18 -11t-4 -20v-105h268v127l-74 20l2 13h268l1 -13l-50 -11q-14 -4 -18 -11t-4 -20v-105h78v-34h-78v-422l74 -21l-1 -13h-268l-2 13l51 11q13 4 17 11t4 21v259h-268 v-281l74 -21zM244 349h268v107h-268v-107z" />
<glyph unicode="&#x127;" horiz-adv-x="581" d="M264 0h-247l-2 12l44 11q13 5 17 11.5t4 20.5v507h-74v29h74v53l-64 10l-1 12q24 7 55.5 13.5t64 10.5t58.5 5l7 -7v-97h155v-29h-155v-159q26 44 68.5 75.5t99.5 31.5q66 0 99.5 -39.5t33.5 -110.5v-327l65 -21l-2 -12h-247l-1 12l43 11q13 5 17.5 11.5t4.5 20.5v280 q0 46 -19.5 71t-61.5 25q-28 0 -55.5 -16.5t-44.5 -44.5v-337l65 -21z" />
<glyph unicode="&#x128;" horiz-adv-x="363" d="M282 809q10 11 22 26t22 30l10 -3q2 -12 2 -25q-3 -38 -21.5 -68t-54.5 -30q-29 0 -63.5 10.5t-66 23t-50.5 17.5q-10 -11 -22 -26t-22 -30l-10 4q-3 13 -3 25q3 37 22 67t55 30q28 0 61.5 -11t65 -23t53.5 -17zM317 0h-268l-2 13l51 11q13 4 17 11t4 21v561l-74 20l2 13 h268l1 -13l-50 -11q-14 -4 -18 -11t-4 -20v-561l74 -21z" />
<glyph unicode="&#x129;" horiz-adv-x="288" d="M218 659q9 11 20.5 24.5t21.5 26.5l10 -3q2 -12 2 -25q-3 -36 -21 -64.5t-53 -28.5q-22 0 -47.5 9t-49 20.5t-38.5 16.5q-10 -10 -21 -23.5t-21 -27.5l-10 4q-3 13 -3 25q3 36 22 64t53 28q21 0 46 -9.5t49 -20.5t40 -16zM272 0h-247l-2 12l44 11q13 5 17 11.5t4 20.5 v404l-64 10l-1 12q24 7 55.5 13.5t64 10.5t58.5 5l7 -7v-470l65 -21z" />
<glyph unicode="&#x12a;" horiz-adv-x="363" d="M38 768v65h288v-65h-288zM317 0h-268l-2 13l51 11q13 4 17 11t4 21v561l-74 20l2 13h268l1 -13l-50 -11q-14 -4 -18 -11t-4 -20v-561l74 -21z" />
<glyph unicode="&#x12b;" horiz-adv-x="288" d="M30 615v65h218v-65h-218zM272 0h-247l-2 12l44 11q13 5 17 11.5t4 20.5v404l-64 10l-1 12q24 7 55.5 13.5t64 10.5t58.5 5l7 -7v-470l65 -21z" />
<glyph unicode="&#x12c;" horiz-adv-x="363" d="M291 872l4 1l10 -3q-7 -70 -39.5 -106.5t-87.5 -36.5q-53 0 -84.5 37t-35.5 106l14 4q14 -33 40.5 -51t70.5 -18q39 0 65.5 17.5t42.5 49.5zM317 0h-268l-2 13l51 11q13 4 17 11t4 21v561l-74 20l2 13h268l1 -13l-50 -11q-14 -4 -18 -11t-4 -20v-561l74 -21z" />
<glyph unicode="&#x12d;" horiz-adv-x="288" d="M223 722l4 2l11 -4q-5 -69 -32.5 -106t-74.5 -37q-45 0 -71.5 37t-28.5 107l14 3q10 -32 32 -50.5t58 -18.5q33 0 54.5 18t33.5 49zM272 0h-247l-2 12l44 11q13 5 17 11.5t4 20.5v404l-64 10l-1 12q24 7 55.5 13.5t64 10.5t58.5 5l7 -7v-470l65 -21z" />
<glyph unicode="&#x12e;" horiz-adv-x="363" d="M324 -141q-15 -26 -43 -41.5t-59 -15.5q-36 0 -58 18t-22 51q0 34 33.5 71t99.5 58h-226l-2 13l51 11q13 4 17 11t4 21v561l-74 20l2 13h268l1 -13l-50 -11q-14 -4 -18 -11t-4 -20v-561l74 -21l-1 -13q-36 -15 -61 -44.5t-25 -58.5q0 -21 12 -30.5t33 -9.5q22 0 44 9z " />
<glyph unicode="&#x12f;" horiz-adv-x="288" d="M218 655q0 -31 -22.5 -50.5t-55.5 -19.5q-30 0 -48.5 16t-18.5 44q0 30 23.5 50t55.5 20q29 0 47.5 -16.5t18.5 -43.5zM279 -141q-15 -26 -43 -41.5t-59 -15.5q-36 0 -58 18t-22 51q0 34 33.5 71t99.5 58h-205l-2 12l44 11q13 5 17 11.5t4 20.5v404l-64 10l-1 12 q24 7 55.5 13.5t64 10.5t58.5 5l7 -7v-470l65 -21l-1 -12q-36 -15 -61 -44.5t-25 -58.5q0 -21 12 -30.5t33 -9.5q22 0 44 9z" />
<glyph unicode="&#x130;" horiz-adv-x="363" d="M254 806q0 -32 -22.5 -51.5t-55.5 -19.5q-30 0 -48.5 16.5t-18.5 43.5q0 31 23.5 50.5t55.5 19.5q29 0 47.5 -16t18.5 -43zM317 0h-268l-2 13l51 11q13 4 17 11t4 21v561l-74 20l2 13h268l1 -13l-50 -11q-14 -4 -18 -11t-4 -20v-561l74 -21z" />
<glyph unicode="&#x131;" horiz-adv-x="288" d="M272 0h-247l-2 12l44 11q13 5 17 11.5t4 20.5v404l-64 10l-1 12q24 7 55.5 13.5t64 10.5t58.5 5l7 -7v-470l65 -21z" />
<glyph unicode="&#x132;" horiz-adv-x="710" d="M317 0h-268l-2 13l51 11q13 4 17 11t4 21v561l-74 20l2 13h268l1 -13l-50 -11q-14 -4 -18 -11t-4 -20v-561l74 -21zM608 130q0 -203 -203 -257l-6 9q43 51 63.5 117t20.5 166v452l-74 20l1 13h268l2 -13l-51 -11q-14 -4 -17.5 -11t-3.5 -20v-465z" />
<glyph unicode="&#x133;" horiz-adv-x="560" d="M497 656q0 -32 -22.5 -51.5t-56.5 -19.5q-29 0 -47.5 16.5t-18.5 43.5q0 31 23.5 50.5t55.5 19.5q29 0 47.5 -16t18.5 -43zM218 655q0 -31 -22.5 -50.5t-55.5 -19.5q-30 0 -48.5 16t-18.5 44q0 30 23.5 50t55.5 20q29 0 47.5 -16.5t18.5 -43.5zM272 0h-247l-2 12l44 11 q13 5 17 11.5t4 20.5v404l-64 10l-1 12q24 7 55.5 13.5t64 10.5t58.5 5l7 -7v-470l65 -21zM295 -184q24 33 40.5 68.5t24.5 82t8 110.5v382l-64 10l-1 12q24 7 55.5 13.5t64 10.5t58.5 5l7 -7v-440q0 -102 -40 -164.5t-145 -93.5z" />
<glyph unicode="&#x134;" horiz-adv-x="347" d="M319 728l-8 -6q-29 19 -63 39.5t-68 39.5q-28 -18 -63 -39.5t-67 -39.5l-7 9q16 23 34.5 50t34 52t25.5 42l7 5h82q22 -34 47 -75t46 -77zM245 130q0 -203 -203 -257l-6 9q43 51 63.5 117t20.5 166v452l-74 20l1 13h268l2 -13l-51 -11q-14 -4 -17.5 -11t-3.5 -20v-465z " />
<glyph unicode="&#x135;" horiz-adv-x="272" d="M244 577l-9 -6q-24 18 -52 38t-56 38q-25 -18 -53.5 -38.5t-55.5 -37.5l-7 9q19 35 40.5 76.5t32.5 67.5l7 5h81q16 -34 35.5 -75t36.5 -77zM7 -184q24 33 40.5 68.5t24.5 82t8 110.5v382l-64 10l-1 12q24 7 55.5 13.5t64 10.5t58.5 5l7 -7v-440q0 -102 -40 -164.5 t-145 -93.5z" />
<glyph unicode="&#x136;" horiz-adv-x="703" d="M317 0h-268l-2 13l51 11q13 4 17 11t4 21v561l-74 20l2 13h268l1 -13l-50 -11q-14 -4 -18 -11t-4 -20v-260h100l172 282l-75 20l1 13h233l2 -13q-8 -1 -24.5 -7t-23.5 -8q-47 -20 -84.5 -53t-68.5 -78l-51 -81l189 -334q20 -37 56 -51l33 -12l-1 -13l-119 -1 q-44 -1 -65.5 16t-39.5 50l-135 238h-99v-269l74 -21zM436 -145q0 -31 -16 -64.5t-41.5 -62.5t-53.5 -47l-10 8q15 24 27.5 53t16.5 59q-22 4 -36.5 18t-14.5 38q0 29 18.5 46.5t46.5 17.5t45.5 -18.5t17.5 -47.5z" />
<glyph unicode="&#x137;" horiz-adv-x="566" d="M264 0h-247l-2 12l44 11q13 5 17 11.5t4 20.5v589l-64 10l-1 12q24 7 55.5 13.5t64 10.5t58.5 5l7 -7v-410h80l112 195l-65 15l1 12h223l1 -12l-50 -17q-23 -10 -43.5 -25.5t-40.5 -36.5l-56 -71l126 -255q13 -26 26.5 -40.5t32.5 -24.5q5 -2 9.5 -3t9.5 -2l-2 -13h-113 q-33 0 -49.5 16t-32.5 49l-91 183h-78v-215l65 -21zM362 -145q0 -31 -16 -64.5t-41.5 -62.5t-53.5 -47l-10 8q15 24 27.5 53t16.5 59q-22 4 -36.5 18t-14.5 38q0 29 18.5 46.5t46.5 17.5t45.5 -18.5t17.5 -47.5z" />
<glyph unicode="&#x138;" horiz-adv-x="566" d="M264 0h-247l-2 12l44 11q13 5 17 11.5t4 20.5v404l-64 10l-1 12q24 7 55.5 13.5t64 10.5t58.5 5l7 -7v-225h80l112 195l-65 15l1 12h223l1 -12l-50 -17q-23 -10 -43.5 -25.5t-40.5 -36.5l-56 -71l126 -255q13 -26 26.5 -40.5t32.5 -24.5l19 -5l-2 -13h-113 q-33 0 -49.5 16t-32.5 49l-91 183h-78v-215l65 -21z" />
<glyph unicode="&#x139;" horiz-adv-x="551" d="M289 844q0 -21 -24.5 -44.5t-66.5 -44.5t-95 -36l-8 9q33 41 63.5 84t47.5 74q4 0 9.5 0.5t12.5 0.5q27 0 44 -11t17 -32zM512 0h-464l-2 13l52 11q13 4 17 11t4 21v561l-74 20l2 13h268l1 -13l-50 -11q-14 -4 -18 -11t-4 -20v-563h96h41.5h41.5l69 198h9q16 -57 16 -143 q0 -46 -5 -87z" />
<glyph unicode="&#x13a;" horiz-adv-x="280" d="M242 879q0 -21 -24.5 -44.5t-66.5 -44.5t-95 -36l-8 9q33 41 63.5 84t47.5 74q4 0 9.5 0.5t12.5 0.5q27 0 44 -11t17 -32zM264 0h-247l-2 12l44 11q13 5 17 11.5t4 20.5v589l-64 10l-1 12q24 7 55.5 13.5t64 10.5t58.5 5l7 -7v-655l65 -21z" />
<glyph unicode="&#x13b;" horiz-adv-x="551" d="M512 0h-464l-2 13l52 11q13 4 17 11t4 21v561l-74 20l2 13h268l1 -13l-50 -11q-14 -4 -18 -11t-4 -20v-563h96h41.5h41.5l69 198h9q16 -57 16 -143q0 -46 -5 -87zM378 -145q0 -31 -16 -64.5t-41 -62.5t-53 -47l-10 8q15 24 27 53t17 59q-23 4 -37 18t-14 38 q0 29 18.5 46.5t45.5 17.5q29 0 46 -18.5t17 -47.5z" />
<glyph unicode="&#x13c;" horiz-adv-x="280" d="M264 0h-247l-2 12l44 11q13 5 17 11.5t4 20.5v589l-64 10l-1 12q24 7 55.5 13.5t64 10.5t58.5 5l7 -7v-655l65 -21zM204 -145q0 -31 -16 -64.5t-41.5 -62.5t-53.5 -47l-9 8q14 24 26.5 53t16.5 59q-22 4 -36.5 18t-14.5 38q0 29 18.5 46.5t46.5 17.5t45.5 -18.5 t17.5 -47.5z" />
<glyph unicode="&#x13d;" horiz-adv-x="551" d="M512 0h-464l-2 13l52 11q13 4 17 11t4 21v561l-74 20l2 13h268l1 -13l-50 -11q-14 -4 -18 -11t-4 -20v-563h96h41.5h41.5l69 198h9q16 -57 16 -143q0 -46 -5 -87zM517 581q0 -31 -16 -64.5t-41.5 -62.5t-53.5 -47l-10 9q15 23 27.5 52t16.5 59q-22 4 -36.5 18.5 t-14.5 37.5q0 30 18.5 47.5t46.5 17.5t45.5 -19t17.5 -48z" />
<glyph unicode="&#x13e;" horiz-adv-x="423" d="M403 727q0 -31 -16 -64.5t-41.5 -62.5t-53.5 -47l-10 8q15 24 27.5 53t16.5 59q-22 4 -36.5 18t-14.5 38q0 29 18.5 46.5t46.5 17.5t45.5 -18.5t17.5 -47.5zM264 0h-247l-2 12l44 11q13 5 17 11.5t4 20.5v589l-64 10l-1 12q24 7 55.5 13.5t64 10.5t58.5 5l7 -7v-655 l65 -21z" />
<glyph unicode="&#x13f;" horiz-adv-x="551" d="M512 0h-464l-2 13l52 11q13 4 17 11t4 21v561l-74 20l2 13h268l1 -13l-50 -11q-14 -4 -18 -11t-4 -20v-563h96h41.5h41.5l69 198h9q16 -57 16 -143q0 -46 -5 -87zM463 351q-26 0 -42.5 16t-16.5 41q0 27 19 45.5t46 18.5q24 0 39.5 -15t15.5 -39q0 -27 -17 -47t-44 -20z " />
<glyph unicode="&#x140;" horiz-adv-x="404" d="M264 0h-247l-2 12l44 11q13 5 17 11.5t4 20.5v589l-64 10l-1 12q24 7 55.5 13.5t64 10.5t58.5 5l7 -7v-655l65 -21zM401 359q0 -32 -20 -51.5t-51 -19.5q-26 0 -42.5 16.5t-16.5 43.5q0 31 21 50.5t50 19.5q26 0 42.5 -16t16.5 -43z" />
<glyph unicode="&#x141;" horiz-adv-x="551" d="M512 0h-464l-2 13l52 11q13 4 17 11t4 21v222l-84 -50l-15 27l99 60v302l-74 20l2 13h268l1 -13l-50 -11q-14 -4 -18 -11t-4 -20v-205l94 56l17 -27l-111 -67v-320h96h41.5h41.5l69 198h9q16 -57 16 -143q0 -46 -5 -87z" />
<glyph unicode="&#x142;" horiz-adv-x="280" d="M264 0h-247l-2 12l44 11q13 5 17 11.5t4 20.5v242l-91 -55l-16 28l107 64v310l-64 10l-1 12q24 7 55.5 13.5t64 10.5t58.5 5l7 -7v-282l91 55l17 -28l-108 -65v-335l65 -21z" />
<glyph unicode="&#x143;" horiz-adv-x="679" d="M462 844q0 -21 -24.5 -44.5t-66.5 -44.5t-95 -36l-8 9q33 41 63.5 84t47.5 74q4 0 9.5 0.5t12.5 0.5q27 0 44 -11t17 -32zM241 0h-202l-2 13l61 14q13 3 17 9.5t4 19.5v561l-83 20l2 13h173l331 -511v478l-88 20l1 13h203l1 -13l-60 -13q-14 -4 -18 -10.5t-4 -18.5v-595 h-92l-330 513v-479l88 -21z" />
<glyph unicode="&#x144;" d="M405 691q0 -21 -24.5 -44.5t-66.5 -44.5t-95 -36l-8 9q33 41 63.5 84t47.5 74q4 0 9.5 0.5t12.5 0.5q27 0 44 -11t17 -32zM272 0h-247l-2 12l44 11q13 5 17 11.5t4 20.5v404l-64 10l-1 12q24 7 55.5 13.5t64 10.5t58.5 5l7 -7v-102q26 46 69 77.5t99 31.5 q66 0 99.5 -39.5t33.5 -110.5v-327l65 -21l-2 -12h-247l-1 12l43 11q13 5 17.5 11.5t4.5 20.5v280q0 96 -80 96q-27 0 -55.5 -16.5t-45.5 -44.5v-337l65 -21z" />
<glyph unicode="&#x145;" horiz-adv-x="679" d="M241 0h-202l-2 13l61 14q13 3 17 9.5t4 19.5v561l-83 20l2 13h173l331 -511v478l-88 20l1 13h203l1 -13l-60 -13q-14 -4 -18 -10.5t-4 -18.5v-595h-92l-330 513v-479l88 -21zM404 -145q0 -31 -16 -64.5t-41.5 -62.5t-53.5 -47l-10 8q15 24 27.5 53t16.5 59 q-22 4 -36.5 18t-14.5 38q0 29 18.5 46.5t46.5 17.5t45.5 -18.5t17.5 -47.5z" />
<glyph unicode="&#x146;" d="M272 0h-247l-2 12l44 11q13 5 17 11.5t4 20.5v404l-64 10l-1 12q24 7 55.5 13.5t64 10.5t58.5 5l7 -7v-102q26 46 69 77.5t99 31.5q66 0 99.5 -39.5t33.5 -110.5v-327l65 -21l-2 -12h-247l-1 12l43 11q13 5 17.5 11.5t4.5 20.5v280q0 96 -80 96q-27 0 -55.5 -16.5 t-45.5 -44.5v-337l65 -21zM360 -145q0 -31 -16 -64.5t-41.5 -62.5t-53.5 -47l-10 8q15 24 27.5 53t16.5 59q-22 4 -36.5 18t-14.5 38q0 29 18.5 46.5t46.5 17.5t45.5 -18.5t17.5 -47.5z" />
<glyph unicode="&#x147;" horiz-adv-x="679" d="M401 727l-7 -6h-82q-22 34 -47 75t-46 77l8 7q29 -20 63 -40.5t67 -39.5q29 18 64 39.5t67 39.5l7 -8q-17 -24 -35 -51t-34 -51.5t-25 -41.5zM241 0h-202l-2 13l61 14q13 3 17 9.5t4 19.5v561l-83 20l2 13h173l331 -511v478l-88 20l1 13h203l1 -13l-60 -13 q-14 -4 -18 -10.5t-4 -18.5v-595h-92l-330 513v-479l88 -21z" />
<glyph unicode="&#x148;" d="M343 577l-7 -6h-82q-22 34 -47 75t-46 77l8 7q29 -20 63 -40.5t67 -39.5q29 18 64 39.5t67 39.5l7 -8q-17 -24 -35 -51t-34 -51.5t-25 -41.5zM272 0h-247l-2 12l44 11q13 5 17 11.5t4 20.5v404l-64 10l-1 12q24 7 55.5 13.5t64 10.5t58.5 5l7 -7v-102q26 46 69 77.5 t99 31.5q66 0 99.5 -39.5t33.5 -110.5v-327l65 -21l-2 -12h-247l-1 12l43 11q13 5 17.5 11.5t4.5 20.5v280q0 96 -80 96q-27 0 -55.5 -16.5t-45.5 -44.5v-337l65 -21z" />
<glyph unicode="&#x14a;" horiz-adv-x="679" d="M251 0h-212l-2 13l61 14q13 3 17 9.5t4 19.5v561l-83 20l2 13h173l331 -511v478l-88 20l1 13h203l1 -13l-60 -13q-14 -4 -18 -10.5t-4 -18.5v-557q0 -56 -12.5 -93.5t-40 -66.5t-71.5 -60l-9 10q26 27 45.5 51t32 52.5t17.5 69.5l-49 -9l-335 521v-479l98 -21z" />
<glyph unicode="&#x14b;" horiz-adv-x="581" d="M272 0h-247l-2 12l44 11q13 5 17 11.5t4 20.5v404l-64 10l-1 12q24 7 55.5 13.5t64 10.5t58.5 5l7 -7v-102q26 46 69 77.5t99 31.5q66 0 99.5 -39.5t33.5 -110.5v-297q0 -102 -40.5 -164.5t-145.5 -93.5l-7 11q24 33 40 68.5t24.5 82t8.5 110.5v258q0 96 -80 96 q-27 0 -55.5 -16.5t-45.5 -44.5v-337l65 -21z" />
<glyph unicode="&#x14c;" horiz-adv-x="660" d="M182 768v65h288v-65h-288zM614 329q0 -101 -37 -177.5t-102 -119t-150 -42.5q-86 0 -150.5 41t-100 116t-35.5 177t38 177.5t103.5 117t148.5 41.5t147.5 -41t101 -115t36.5 -175zM173 324q-1 -146 40 -223.5t114 -77.5q74 0 113 81.5t40 224.5q0 143 -39 221t-113 78 q-75 0 -115 -79.5t-40 -224.5z" />
<glyph unicode="&#x14d;" horiz-adv-x="527" d="M121 618v65h288v-65h-288zM490 260q0 -80 -28.5 -141t-79.5 -95t-121 -34q-67 0 -117 29.5t-78 85t-28 134.5q0 85 29.5 145.5t81.5 93t120 32.5q66 0 115.5 -30.5t77.5 -87t28 -132.5zM164 255q0 -122 24 -177.5t76 -55.5t76 57t24 169q0 119 -24 174.5t-74 55.5 t-76 -54t-26 -169z" />
<glyph unicode="&#x14e;" horiz-adv-x="660" d="M435 872l4 1l11 -3q-7 -70 -40 -106.5t-87 -36.5t-85 37t-35 106l14 4q13 -33 40 -51t70 -18q40 0 66 17.5t42 49.5zM614 329q0 -101 -37 -177.5t-102 -119t-150 -42.5q-86 0 -150.5 41t-100 116t-35.5 177t38 177.5t103.5 117t148.5 41.5t147.5 -41t101 -115t36.5 -175z M173 324q-1 -146 40 -223.5t114 -77.5q74 0 113 81.5t40 224.5q0 143 -39 221t-113 78q-75 0 -115 -79.5t-40 -224.5z" />
<glyph unicode="&#x14f;" horiz-adv-x="527" d="M373 722l4 2l10 -4q-7 -69 -39.5 -106t-87.5 -37q-53 0 -84.5 37t-35.5 107l14 3q14 -32 40.5 -50.5t70.5 -18.5q39 0 65.5 18t42.5 49zM490 260q0 -80 -28.5 -141t-79.5 -95t-121 -34q-67 0 -117 29.5t-78 85t-28 134.5q0 85 29.5 145.5t81.5 93t120 32.5 q66 0 115.5 -30.5t77.5 -87t28 -132.5zM164 255q0 -122 24 -177.5t76 -55.5t76 57t24 169q0 119 -24 174.5t-74 55.5t-76 -54t-26 -169z" />
<glyph unicode="&#x150;" horiz-adv-x="660" d="M326 841q0 -21 -23 -44t-62.5 -44t-88.5 -36l-8 9q33 40 63.5 83.5t47.5 73.5q3 0 7.5 0.5t10.5 0.5q23 0 38 -10.5t15 -32.5zM508 841q0 -21 -23 -44t-62 -44t-89 -36l-8 9q33 40 63.5 83.5t48.5 73.5q3 0 7 0.5t10 0.5q23 0 38 -10.5t15 -32.5zM614 329 q0 -101 -37 -177.5t-102 -119t-150 -42.5q-86 0 -150.5 41t-100 116t-35.5 177t38 177.5t103.5 117t148.5 41.5t147.5 -41t101 -115t36.5 -175zM173 324q-1 -146 40 -223.5t114 -77.5q74 0 113 81.5t40 224.5q0 143 -39 221t-113 78q-75 0 -115 -79.5t-40 -224.5z" />
<glyph unicode="&#x151;" horiz-adv-x="527" d="M266 691q0 -21 -23 -44.5t-62.5 -44.5t-88.5 -36l-8 9q33 41 63.5 84t47.5 74q3 0 7.5 0.5t10.5 0.5q23 0 38 -11t15 -32zM448 691q0 -21 -23 -44.5t-62 -44.5t-89 -36l-8 9q33 41 63.5 84t48.5 74q3 0 7 0.5t10 0.5q23 0 38 -11t15 -32zM490 260q0 -80 -28.5 -141 t-79.5 -95t-121 -34q-67 0 -117 29.5t-78 85t-28 134.5q0 85 29.5 145.5t81.5 93t120 32.5q66 0 115.5 -30.5t77.5 -87t28 -132.5zM164 255q0 -122 24 -177.5t76 -55.5t76 57t24 169q0 119 -24 174.5t-74 55.5t-76 -54t-26 -169z" />
<glyph unicode="&#x152;" horiz-adv-x="870" d="M173 321q-1 -146 47 -222t133 -76q38 0 68 16v575q-25 14 -60 14q-90 0 -139 -80t-49 -227zM732 352l-2 -50l-184 9v-279h95h44h45l73 166h9q15 -52 15 -124q0 -41 -5 -74h-401v1q-36 -11 -75 -11q-92 0 -161.5 41t-107.5 115t-38 175q0 102 41.5 178.5t114 118.5 t162.5 42q36 0 68 -10h388q6 -32 6 -72q0 -71 -16 -122h-9l-73 162q-21 0 -42.5 0.5t-42.5 0.5h-90v-277z" />
<glyph unicode="&#x153;" horiz-adv-x="809" d="M780 115q-24 -55 -71 -90t-123 -35q-52 0 -93.5 22t-69.5 61q-28 -39 -70 -61t-94 -22q-99 0 -160 65.5t-61 183.5q0 85 29 145.5t81 93t119 32.5q53 0 94.5 -22.5t69.5 -62.5q30 41 73.5 63t93.5 22q87 0 136 -55.5t49 -142.5q0 -25 -4 -51l-7 -6h-281q6 -90 48.5 -134 t108.5 -44q39 0 68 12t57 34zM164 255q0 -122 24 -177.5t76 -55.5t76 57t24 169q0 119 -24 174.5t-74 55.5t-76 -54t-26 -169zM490 285v-4l170 7q1 12 1.5 22.5t0.5 21.5q0 68 -15.5 107t-57.5 39q-45 0 -72 -50.5t-27 -142.5z" />
<glyph unicode="&#x154;" horiz-adv-x="675" d="M440 844q0 -21 -24.5 -44.5t-66.5 -44.5t-96 -36l-8 9q33 41 63.5 84t48.5 74q4 0 9 0.5t12 0.5q27 0 44.5 -11t17.5 -32zM317 0h-268l-2 13l51 11q13 4 17 11t4 21v561l-73 20l1 13h276q76 0 133.5 -21t90.5 -62.5t33 -102.5q0 -60 -34.5 -100t-88.5 -63l131 -226 q20 -37 52 -50l35 -12l-1 -13l-123 -1q-41 -1 -62.5 15t-37.5 50l-109 211q-15 -2 -17 -2h-81v-239l74 -21zM306 619h-62v-315h63q63 0 105 41.5t42 115.5t-40.5 116t-107.5 42z" />
<glyph unicode="&#x155;" horiz-adv-x="421" d="M337 691q0 -21 -24.5 -44.5t-66.5 -44.5t-96 -36l-8 9q33 41 63.5 84t48.5 74q4 0 9 0.5t12 0.5q27 0 44.5 -11t17.5 -32zM292 0h-267l-2 12l44 11q13 5 17 11.5t4 20.5v404l-64 10l-1 12q24 7 55.5 13.5t64 10.5t58.5 5l7 -7v-128q21 57 53.5 96t76.5 39q34 0 53 -21.5 t19 -53.5q0 -19 -6.5 -35.5t-13.5 -24.5l-5 -2q-17 10 -35.5 15.5t-41.5 5.5q-31 0 -57.5 -15t-42.5 -34v-312l85 -21z" />
<glyph unicode="&#x156;" horiz-adv-x="675" d="M317 0h-268l-2 13l51 11q13 4 17 11t4 21v561l-73 20l1 13h276q76 0 133.5 -21t90.5 -62.5t33 -102.5q0 -60 -34.5 -100t-88.5 -63l131 -226q20 -37 52 -50l35 -12l-1 -13l-123 -1q-41 -1 -62.5 15t-37.5 50l-109 211q-15 -2 -17 -2h-81v-239l74 -21zM306 619h-62v-315 h63q63 0 105 41.5t42 115.5t-40.5 116t-107.5 42zM418 -145q0 -31 -16 -64.5t-41 -62.5t-53 -47l-10 8q15 24 27 53t17 59q-23 4 -37 18t-14 38q0 29 18.5 46.5t45.5 17.5q29 0 46 -18.5t17 -47.5z" />
<glyph unicode="&#x157;" horiz-adv-x="421" d="M292 0h-267l-2 12l44 11q13 5 17 11.5t4 20.5v404l-64 10l-1 12q24 7 55.5 13.5t64 10.5t58.5 5l7 -7v-128q21 57 53.5 96t76.5 39q34 0 53 -21.5t19 -53.5q0 -19 -6.5 -35.5t-13.5 -24.5l-5 -2q-17 10 -35.5 15.5t-41.5 5.5q-31 0 -57.5 -15t-42.5 -34v-312l85 -21z M212 -145q0 -31 -16 -64.5t-41 -62.5t-53 -47l-10 8q15 24 27 53t17 59q-23 4 -37 18t-14 38q0 29 18.5 46.5t45.5 17.5q29 0 46 -18.5t17 -47.5z" />
<glyph unicode="&#x158;" horiz-adv-x="675" d="M379 727l-8 -6h-81q-23 34 -48 75t-46 77l8 7q29 -20 63 -40.5t68 -39.5q28 18 63 39.5t68 39.5l7 -8q-17 -24 -35.5 -51t-34 -51.5t-24.5 -41.5zM317 0h-268l-2 13l51 11q13 4 17 11t4 21v561l-73 20l1 13h276q76 0 133.5 -21t90.5 -62.5t33 -102.5q0 -60 -34.5 -100 t-88.5 -63l131 -226q20 -37 52 -50l35 -12l-1 -13l-123 -1q-41 -1 -62.5 15t-37.5 50l-109 211q-15 -2 -17 -2h-81v-239l74 -21zM306 619h-62v-315h63q63 0 105 41.5t42 115.5t-40.5 116t-107.5 42z" />
<glyph unicode="&#x159;" horiz-adv-x="421" d="M275 577l-8 -6h-81q-23 34 -48 75t-46 77l8 7q29 -20 63 -40.5t68 -39.5q28 18 63 39.5t68 39.5l7 -8q-17 -24 -35.5 -51t-34 -51.5t-24.5 -41.5zM292 0h-267l-2 12l44 11q13 5 17 11.5t4 20.5v404l-64 10l-1 12q24 7 55.5 13.5t64 10.5t58.5 5l7 -7v-128q21 57 53.5 96 t76.5 39q34 0 53 -21.5t19 -53.5q0 -19 -6.5 -35.5t-13.5 -24.5l-5 -2q-17 10 -35.5 15.5t-41.5 5.5q-31 0 -57.5 -15t-42.5 -34v-312l85 -21z" />
<glyph unicode="&#x15a;" horiz-adv-x="511" d="M362 844q0 -21 -24.5 -44.5t-66.5 -44.5t-96 -36l-8 9q33 41 63.5 84t48.5 74q4 0 9 0.5t12 0.5q27 0 44.5 -11t17.5 -32zM477 167q0 -61 -32.5 -100t-89 -58t-126.5 -19q-65 0 -112 10.5t-66 27.5q-9 7 -13 20t-4 36q0 33 11 68t22 57l9 -1l61 -170q12 -6 33 -11.5 t47 -5.5q57 0 93 30t36 81q0 40 -22.5 68t-57.5 49.5t-74.5 42.5t-74.5 46.5t-57 61.5t-22 88q0 54 32 92.5t86.5 59t120.5 20.5q69 0 111.5 -12t56.5 -24q15 -13 15 -52q0 -19 -6 -42.5t-15 -45t-17 -34.5l-9 1l-54 165q-13 6 -30 9.5t-40 3.5q-55 0 -90.5 -27.5 t-35.5 -76.5q0 -41 22.5 -70t58.5 -52t76 -45t76 -47.5t58.5 -60t22.5 -83.5z" />
<glyph unicode="&#x15b;" horiz-adv-x="443" d="M336 691q0 -21 -24.5 -44.5t-66.5 -44.5t-96 -36l-8 9q33 41 63.5 84t48.5 74q4 0 9 0.5t12 0.5q27 0 44.5 -11t17.5 -32zM198 -10q-54 0 -91 7.5t-51 17.5q-8 6 -13 19.5t-5 36.5q0 28 11.5 54.5t26.5 41.5l10 -3q7 -36 14 -63t19 -45q21 -34 82 -34q39 0 61.5 20 t22.5 52q0 30 -17.5 51t-44 37.5t-57 33.5t-57 37t-43.5 47.5t-17 67.5q0 46 26 77.5t71 48t101 16.5q58 0 91.5 -11t44.5 -22q6 -6 10.5 -17.5t4.5 -30.5q0 -27 -14 -52.5t-29 -40.5l-11 3q-6 36 -13 62t-16 44q-19 33 -70 33q-37 0 -59.5 -19t-22.5 -53q0 -29 17.5 -50.5 t45 -39t58.5 -34.5t58.5 -37t45 -47.5t17.5 -64.5q0 -48 -27 -80t-74 -47.5t-106 -15.5z" />
<glyph unicode="&#x15c;" horiz-adv-x="511" d="M397 728l-8 -7q-29 19 -63 40t-68 39q-28 -18 -63 -39.5t-67 -38.5l-7 8q16 24 34.5 51t34 51.5t25.5 41.5l7 6h82q22 -35 47 -75.5t46 -76.5zM477 167q0 -61 -32.5 -100t-89 -58t-126.5 -19q-65 0 -112 10.5t-66 27.5q-9 7 -13 20t-4 36q0 33 11 68t22 57l9 -1l61 -170 q12 -6 33 -11.5t47 -5.5q57 0 93 30t36 81q0 40 -22.5 68t-57.5 49.5t-74.5 42.5t-74.5 46.5t-57 61.5t-22 88q0 54 32 92.5t86.5 59t120.5 20.5q69 0 111.5 -12t56.5 -24q15 -13 15 -52q0 -19 -6 -42.5t-15 -45t-17 -34.5l-9 1l-54 165q-13 6 -30 9.5t-40 3.5 q-55 0 -90.5 -27.5t-35.5 -76.5q0 -41 22.5 -70t58.5 -52t76 -45t76 -47.5t58.5 -60t22.5 -83.5z" />
<glyph unicode="&#x15d;" horiz-adv-x="443" d="M369 577l-9 -6q-29 19 -63 39.5t-67 39.5q-29 -18 -64 -39.5t-67 -39.5l-7 9q17 23 35 50t34 52t25 42l8 5h81q23 -34 47.5 -75t46.5 -77zM198 -10q-54 0 -91 7.5t-51 17.5q-8 6 -13 19.5t-5 36.5q0 28 11.5 54.5t26.5 41.5l10 -3q7 -36 14 -63t19 -45q21 -34 82 -34 q39 0 61.5 20t22.5 52q0 30 -17.5 51t-44 37.5t-57 33.5t-57 37t-43.5 47.5t-17 67.5q0 46 26 77.5t71 48t101 16.5q58 0 91.5 -11t44.5 -22q6 -6 10.5 -17.5t4.5 -30.5q0 -27 -14 -52.5t-29 -40.5l-11 3q-6 36 -13 62t-16 44q-19 33 -70 33q-37 0 -59.5 -19t-22.5 -53 q0 -29 17.5 -50.5t45 -39t58.5 -34.5t58.5 -37t45 -47.5t17.5 -64.5q0 -48 -27 -80t-74 -47.5t-106 -15.5z" />
<glyph unicode="&#x15e;" horiz-adv-x="511" d="M216 -88l-3 5l12 73q-64 0 -109.5 10.5t-64.5 27.5q-9 7 -13 20t-4 36q0 33 11 68t22 57l9 -1l61 -170q12 -6 33 -11.5t47 -5.5q57 0 93 30t36 81q0 40 -22.5 68t-57.5 49.5t-74.5 42.5t-74.5 46.5t-57 61.5t-22 88q0 54 32 92.5t86.5 59t120.5 20.5q69 0 111.5 -12 t56.5 -24q15 -13 15 -52q0 -19 -6 -42.5t-15 -45t-17 -34.5l-9 1l-54 165q-13 6 -30 9.5t-40 3.5q-55 0 -90.5 -27.5t-35.5 -76.5q0 -41 22.5 -70t58.5 -52t76 -45t76 -47.5t58.5 -60.5t22.5 -83q0 -56 -28 -93.5t-77 -58t-112 -24.5l-6 -35q51 -5 79.5 -23t28.5 -46 q0 -40 -46.5 -62t-123.5 -23l-3 15q32 8 56 22.5t24 34.5q0 30 -53 38z" />
<glyph unicode="&#x15f;" horiz-adv-x="443" d="M176 -88l-3 5l12 73q-48 1 -82 8t-47 17q-8 6 -13 19.5t-5 36.5q0 28 11.5 54.5t26.5 41.5l10 -3q7 -36 14 -63t19 -45q21 -34 82 -34q39 0 61.5 20t22.5 52q0 30 -17.5 51t-44 37.5t-57 33.5t-57 37t-43.5 47.5t-17 67.5q0 46 26 77.5t71 48t101 16.5q58 0 91.5 -11 t44.5 -22q6 -6 10.5 -17.5t4.5 -30.5q0 -27 -14 -52.5t-29 -40.5l-11 3q-6 36 -13 62t-16 44q-19 33 -70 33q-37 0 -59.5 -19t-22.5 -53q0 -29 17.5 -50.5t45 -39t58.5 -34.5t58.5 -37t45 -47.5t17.5 -65.5q0 -67 -52 -102t-132 -39l-6 -35q50 -5 78.5 -23t28.5 -46 q0 -40 -46 -62t-123 -23l-3 15q31 8 55.5 22.5t24.5 34.5q0 30 -54 38z" />
<glyph unicode="&#x160;" horiz-adv-x="511" d="M306 727l-8 -6h-81q-23 34 -48 75t-46 77l8 7q29 -20 63 -40.5t68 -39.5q28 18 63 39.5t68 39.5l7 -8q-17 -24 -35.5 -51t-34 -51.5t-24.5 -41.5zM477 167q0 -61 -32.5 -100t-89 -58t-126.5 -19q-65 0 -112 10.5t-66 27.5q-9 7 -13 20t-4 36q0 33 11 68t22 57l9 -1 l61 -170q12 -6 33 -11.5t47 -5.5q57 0 93 30t36 81q0 40 -22.5 68t-57.5 49.5t-74.5 42.5t-74.5 46.5t-57 61.5t-22 88q0 54 32 92.5t86.5 59t120.5 20.5q69 0 111.5 -12t56.5 -24q15 -13 15 -52q0 -19 -6 -42.5t-15 -45t-17 -34.5l-9 1l-54 165q-13 6 -30 9.5t-40 3.5 q-55 0 -90.5 -27.5t-35.5 -76.5q0 -41 22.5 -70t58.5 -52t76 -45t76 -47.5t58.5 -60t22.5 -83.5z" />
<glyph unicode="&#x161;" horiz-adv-x="443" d="M274 577l-8 -6h-81q-23 34 -48 75t-46 77l8 7q29 -20 63 -40.5t68 -39.5q28 18 63 39.5t68 39.5l7 -8q-17 -24 -35.5 -51t-34 -51.5t-24.5 -41.5zM198 -10q-54 0 -91 7.5t-51 17.5q-8 6 -13 19.5t-5 36.5q0 28 11.5 54.5t26.5 41.5l10 -3q7 -36 14 -63t19 -45 q21 -34 82 -34q39 0 61.5 20t22.5 52q0 30 -17.5 51t-44 37.5t-57 33.5t-57 37t-43.5 47.5t-17 67.5q0 46 26 77.5t71 48t101 16.5q58 0 91.5 -11t44.5 -22q6 -6 10.5 -17.5t4.5 -30.5q0 -27 -14 -52.5t-29 -40.5l-11 3q-6 36 -13 62t-16 44q-19 33 -70 33q-37 0 -59.5 -19 t-22.5 -53q0 -29 17.5 -50.5t45 -39t58.5 -34.5t58.5 -37t45 -47.5t17.5 -64.5q0 -48 -27 -80t-74 -47.5t-106 -15.5z" />
<glyph unicode="&#x162;" horiz-adv-x="579" d="M259 -88l-3 5l14 83h-113l-2 13l51 11q13 4 17 11t4 21v563h-54q-16 0 -32 -0.5t-32 -0.5l-67 -183h-9q-8 26 -12 59.5t-4 71.5q0 46 6 84h534q5 -38 5 -84q0 -38 -4 -71.5t-11 -59.5h-9l-68 183q-16 0 -32 0.5t-31 0.5h-55v-585l74 -21l-1 -13h-119l-8 -44 q50 -5 78.5 -23t28.5 -46q0 -40 -46 -62t-123 -23l-3 15q31 8 55.5 22.5t24.5 34.5q0 30 -54 38z" />
<glyph unicode="&#x163;" horiz-adv-x="373" d="M169 -88l-3 5l12 75q-106 15 -106 158v298h-71l-2 12l69 23l115 147l9 -2v-152h145v-28h-145v-267q0 -104 75 -104q25 0 48.5 11.5t44.5 30.5l8 -7q-20 -45 -58 -81.5t-97 -40.5l-6 -34q51 -5 79.5 -23t28.5 -46q0 -40 -46.5 -62t-123.5 -23l-3 15q32 8 56 22.5t24 34.5 q0 30 -53 38z" />
<glyph unicode="&#x164;" horiz-adv-x="579" d="M336 727l-8 -6h-81q-23 34 -48 75t-46 77l8 7q29 -20 63 -40.5t68 -39.5q28 18 63 39.5t68 39.5l7 -8q-17 -24 -35.5 -51t-34 -51.5t-24.5 -41.5zM425 0h-268l-2 13l51 11q13 4 17 11t4 21v563h-54q-16 0 -32 -0.5t-32 -0.5l-67 -183h-9q-8 26 -12 59.5t-4 71.5 q0 46 6 84h534q5 -38 5 -84q0 -38 -4 -71.5t-11 -59.5h-9l-68 183q-16 0 -32 0.5t-31 0.5h-55v-585l74 -21z" />
<glyph unicode="&#x165;" horiz-adv-x="373" d="M398 707q0 -31 -16 -64.5t-41.5 -62.5t-53.5 -47l-10 8q15 24 27.5 53t16.5 59q-22 4 -36.5 18t-14.5 38q0 29 18.5 46.5t46.5 17.5t45.5 -18.5t17.5 -47.5zM337 476v-28h-145v-267q0 -104 75 -104q25 0 48.5 11.5t44.5 30.5l8 -7q-14 -31 -36.5 -59t-54.5 -45.5 t-73 -17.5q-64 0 -98 40.5t-34 119.5v298h-71l-2 12l69 23l115 147l9 -2v-152h145z" />
<glyph unicode="&#x166;" horiz-adv-x="579" d="M425 0h-268l-2 13l51 11q13 4 17 11t4 21v244h-140v34h140v285h-54q-16 0 -32 -0.5t-32 -0.5l-67 -183h-9q-8 26 -12 59.5t-4 71.5q0 46 6 84h534q5 -38 5 -84q0 -38 -4 -71.5t-11 -59.5h-9l-68 183q-16 0 -32 0.5t-31 0.5h-55v-285h140v-34h-140v-266l74 -21z" />
<glyph unicode="&#x167;" horiz-adv-x="373" d="M339 311h-147v-130q0 -104 75 -104q25 0 48.5 11.5t44.5 30.5l8 -7q-14 -31 -36.5 -59t-54.5 -45.5t-73 -17.5q-64 0 -98 40.5t-34 119.5v161h-72v28h72v109h-71l-2 12l69 23l115 147l9 -2v-152h145v-28h-145v-109h147v-28z" />
<glyph unicode="&#x168;" horiz-adv-x="692" d="M482 809q10 11 22 26t22 30l10 -4q2 -11 2 -24q-3 -38 -21.5 -68t-54.5 -30q-29 0 -63.5 10t-66 22.5t-50.5 18.5q-10 -12 -22 -26.5t-22 -29.5l-10 3q-3 14 -3 26q3 37 22 67t55 30q28 0 61.5 -11t65 -23.5t53.5 -16.5zM588 223q0 -115 -63 -174t-171 -59 q-67 0 -121.5 26t-86.5 78.5t-32 130.5v392l-74 20l2 13h268l1 -13l-50 -11q-14 -4 -18 -11t-4 -20v-363q0 -97 43 -147.5t113 -50.5q67 0 112.5 48t45.5 145v390l-84 20l2 13h198l1 -13l-82 -20v-394z" />
<glyph unicode="&#x169;" d="M385 659q9 11 21 26t23 30l10 -3q2 -12 2 -25q-3 -38 -22 -68t-55 -30q-28 0 -62.5 10.5t-66 23t-51.5 17.5q-10 -11 -21.5 -26t-22.5 -30l-10 4q-3 13 -3 25q3 37 22.5 67t55.5 30q28 0 61.5 -11t65 -23t53.5 -17zM575 44q-14 -20 -39 -37t-62 -17q-43 0 -68 28t-25 71 v6q-23 -41 -62 -73t-99 -32q-67 0 -103.5 40t-36.5 112v317l-64 10l-1 12q24 7 55.5 13.5t64 10.5t58.5 5l7 -7v-337q0 -96 81 -97q59 1 100 60v330l-65 10l-1 12q24 7 56 13.5t64 10.5t58 5l8 -7v-388q0 -36 9.5 -51.5t30.5 -15.5q15 0 29 5z" />
<glyph unicode="&#x16a;" horiz-adv-x="692" d="M238 767v65h288v-65h-288zM588 223q0 -115 -63 -174t-171 -59q-67 0 -121.5 26t-86.5 78.5t-32 130.5v392l-74 20l2 13h268l1 -13l-50 -11q-14 -4 -18 -11t-4 -20v-363q0 -97 43 -147.5t113 -50.5q67 0 112.5 48t45.5 145v390l-84 20l2 13h198l1 -13l-82 -20v-394z" />
<glyph unicode="&#x16b;" d="M138 618v65h288v-65h-288zM575 44q-14 -20 -39 -37t-62 -17q-43 0 -68 28t-25 71v6q-23 -41 -62 -73t-99 -32q-67 0 -103.5 40t-36.5 112v317l-64 10l-1 12q24 7 55.5 13.5t64 10.5t58.5 5l7 -7v-337q0 -96 81 -97q59 1 100 60v330l-65 10l-1 12q24 7 56 13.5t64 10.5 t58 5l8 -7v-388q0 -36 9.5 -51.5t30.5 -15.5q15 0 29 5z" />
<glyph unicode="&#x16c;" horiz-adv-x="692" d="M491 871l4 2l10 -4q-7 -69 -39.5 -106t-87.5 -37q-53 0 -84.5 37t-35.5 107l14 3q14 -32 40.5 -50.5t70.5 -18.5q39 0 65.5 18t42.5 49zM588 223q0 -115 -63 -174t-171 -59q-67 0 -121.5 26t-86.5 78.5t-32 130.5v392l-74 20l2 13h268l1 -13l-50 -11q-14 -4 -18 -11 t-4 -20v-363q0 -97 43 -147.5t113 -50.5q67 0 112.5 48t45.5 145v390l-84 20l2 13h198l1 -13l-82 -20v-394z" />
<glyph unicode="&#x16d;" d="M394 722l4 2l10 -4q-7 -69 -39.5 -106t-87.5 -37q-53 0 -84.5 37t-35.5 107l14 3q14 -32 40.5 -50.5t70.5 -18.5q39 0 65.5 18t42.5 49zM575 44q-14 -20 -39 -37t-62 -17q-43 0 -68 28t-25 71v6q-23 -41 -62 -73t-99 -32q-67 0 -103.5 40t-36.5 112v317l-64 10l-1 12 q24 7 55.5 13.5t64 10.5t58.5 5l7 -7v-337q0 -96 81 -97q59 1 100 60v330l-65 10l-1 12q24 7 56 13.5t64 10.5t58 5l8 -7v-388q0 -36 9.5 -51.5t30.5 -15.5q15 0 29 5z" />
<glyph unicode="&#x16e;" horiz-adv-x="692" d="M378 718q-38 0 -62 21t-24 56q0 37 26.5 60.5t66.5 23.5q37 0 61.5 -21.5t24.5 -55.5q0 -37 -27 -60.5t-66 -23.5zM382 845q-18 0 -29 -14t-11 -35q0 -20 11 -32t28 -12t28 13.5t11 35.5q0 19 -11 31.5t-27 12.5zM588 223q0 -115 -63 -174t-171 -59q-67 0 -121.5 26 t-86.5 78.5t-32 130.5v392l-74 20l2 13h268l1 -13l-50 -11q-14 -4 -18 -11t-4 -20v-363q0 -97 43 -147.5t113 -50.5q67 0 112.5 48t45.5 145v390l-84 20l2 13h198l1 -13l-82 -20v-394z" />
<glyph unicode="&#x16f;" d="M282 570q-38 0 -62 21t-24 56q0 37 26.5 60.5t66.5 23.5q37 0 61.5 -21.5t24.5 -55.5q0 -37 -27 -60.5t-66 -23.5zM286 697q-18 0 -29 -14t-11 -35q0 -20 11 -32t28 -12t28 13.5t11 35.5q0 19 -11 31.5t-27 12.5zM575 44q-14 -20 -39 -37t-62 -17q-43 0 -68 28t-25 71v6 q-23 -41 -62 -73t-99 -32q-67 0 -103.5 40t-36.5 112v317l-64 10l-1 12q24 7 55.5 13.5t64 10.5t58.5 5l7 -7v-337q0 -96 81 -97q59 1 100 60v330l-65 10l-1 12q24 7 56 13.5t64 10.5t58 5l8 -7v-388q0 -36 9.5 -51.5t30.5 -15.5q15 0 29 5z" />
<glyph unicode="&#x170;" horiz-adv-x="692" d="M381 841q0 -21 -23 -44.5t-62 -44.5t-89 -36l-8 9q33 41 63.5 84t48.5 74q3 0 7 0.5t10 0.5q23 0 38 -11t15 -32zM564 841q0 -21 -23 -44.5t-62.5 -44.5t-88.5 -36l-8 9q33 41 63.5 84t47.5 74q3 0 7.5 0.5t10.5 0.5q22 0 37.5 -11t15.5 -32zM588 223q0 -115 -63 -174 t-171 -59q-67 0 -121.5 26t-86.5 78.5t-32 130.5v392l-74 20l2 13h268l1 -13l-50 -11q-14 -4 -18 -11t-4 -20v-363q0 -97 43 -147.5t113 -50.5q67 0 112.5 48t45.5 145v390l-84 20l2 13h198l1 -13l-82 -20v-394z" />
<glyph unicode="&#x171;" d="M287 691q0 -21 -23 -44.5t-62.5 -44.5t-88.5 -36l-8 9q33 41 63.5 84t47.5 74q3 0 7.5 0.5t10.5 0.5q23 0 38 -11t15 -32zM469 691q0 -21 -23 -44.5t-62 -44.5t-89 -36l-8 9q33 41 63.5 84t48.5 74q3 0 7 0.5t10 0.5q23 0 38 -11t15 -32zM575 44q-14 -20 -39 -37t-62 -17 q-43 0 -68 28t-25 71v6q-23 -41 -62 -73t-99 -32q-67 0 -103.5 40t-36.5 112v317l-64 10l-1 12q24 7 55.5 13.5t64 10.5t58.5 5l7 -7v-337q0 -96 81 -97q59 1 100 60v330l-65 10l-1 12q24 7 56 13.5t64 10.5t58 5l8 -7v-388q0 -36 9.5 -51.5t30.5 -15.5q15 0 29 5z" />
<glyph unicode="&#x172;" horiz-adv-x="692" d="M474 -141q-15 -26 -43 -41.5t-59 -15.5q-36 0 -58 18.5t-22 50.5q0 35 33 65.5t96 60.5q-31 -7 -67 -7q-67 0 -121.5 26t-86.5 78.5t-32 130.5v392l-74 20l2 13h268l1 -13l-50 -11q-14 -4 -18 -11t-4 -20v-363q0 -97 43 -147.5t113 -50.5q67 0 112.5 48t45.5 145v390 l-84 20l2 13h198l1 -13l-82 -20v-394q0 -70 -24 -119.5t-69 -77.5q-52 -42 -83 -71.5t-31 -58.5q0 -39 43 -39q24 0 46 9z" />
<glyph unicode="&#x173;" d="M561 -141q-15 -25 -39 -41t-55 -16q-29 0 -51.5 15.5t-23.5 48.5q1 37 31 66.5t79 60.5q-14 -3 -28 -3q-43 0 -68 28t-25 71v6q-23 -41 -62 -73t-99 -32q-67 0 -103.5 40t-36.5 112v317l-64 10l-1 12q24 7 55.5 13.5t64 10.5t58.5 5l7 -7v-337q0 -96 81 -97q59 1 100 60 v330l-65 10l-1 12q24 7 56 13.5t64 10.5t58 5l8 -7v-388q0 -36 9.5 -51.5t30.5 -15.5q15 0 29 5l5 -9q-17 -25 -39 -50t-38.5 -50t-16.5 -50q0 -19 10 -28t26 -9q11 0 20.5 2t19.5 7z" />
<glyph unicode="&#x174;" horiz-adv-x="1008" d="M660 728l-9 -7q-29 19 -63 40t-67 39q-29 -18 -64 -39.5t-67 -38.5l-7 8q17 24 35 51t34 51.5t25 41.5l8 6h81q23 -35 47.5 -75.5t46.5 -76.5zM356 -2h-64l-208 581q-8 21 -17.5 31t-25.5 16l-41 11l2 13h277l2 -13l-77 -22l165 -485l117 368l-26 81q-7 21 -17 31t-26 16 l-46 11l2 13h282l2 -13l-78 -22l151 -485l154 485l-81 22l1 13h203l1 -13q-5 -2 -16 -5.5t-21.5 -7.5t-13.5 -7q-20 -10 -30.5 -29.5t-22.5 -54.5l-187 -535h-64l-147 441z" />
<glyph unicode="&#x175;" horiz-adv-x="798" d="M555 577l-9 -6q-29 19 -63 39.5t-67 39.5q-29 -18 -64 -39.5t-67 -39.5l-7 9q17 23 35 50t34 52t25 42l8 5h81q23 -34 47.5 -75t46.5 -77zM408 500h65l111 -404l109 372l-66 20l2 12h168l1 -12q-3 -2 -14 -6t-21.5 -8t-12.5 -6q-21 -12 -31 -46l-135 -422h-87l-101 310 l-97 -310h-86l-140 425q-8 24 -17 36t-26 21l-30 6l2 12h255l1 -12l-66 -21l107 -371z" />
<glyph unicode="&#x176;" horiz-adv-x="643" d="M472 728l-8 -7q-29 19 -63 40t-68 39q-28 -18 -63 -39.5t-67 -38.5l-7 8q16 24 34.5 51t34 51.5t25.5 41.5l7 6h82q22 -35 47 -75.5t46 -76.5zM457 0h-268l-2 13l51 11q13 4 17 11t4 21v187l-176 341q-10 18 -18.5 27t-23.5 15l-41 11l2 13h277l2 -13l-76 -22l159 -344 l158 345l-74 21l2 13h192l1 -13q-18 -6 -36 -14q-20 -11 -35 -29.5t-30 -47.5l-158 -303v-209l74 -21z" />
<glyph unicode="&#x177;" horiz-adv-x="529" d="M407 577l-8 -6q-29 19 -63 39.5t-68 39.5q-28 -18 -63 -39.5t-67 -39.5l-7 9q16 23 34.5 50t34 52t25.5 42l7 5h82q22 -34 47 -75t46 -77zM119 -195q-36 0 -58 18.5t-22 47.5q0 11 3 20.5t7 16.5q12 -5 32 -9.5t42 -4.5q45 0 86.5 25.5t65.5 76.5h-53l-149 429 q-8 24 -17 36t-26 21l-30 6l2 12h255l1 -12l-66 -21l115 -373l117 375l-66 19l1 12h168l2 -12l-36 -8q-18 -7 -27 -21t-17 -37l-133 -396q-20 -60 -47.5 -110t-64 -80.5t-85.5 -30.5z" />
<glyph unicode="&#x178;" horiz-adv-x="643" d="M290 806q0 -30 -20 -48.5t-50 -18.5q-25 0 -41.5 15.5t-16.5 40.5q0 29 21 47.5t50 18.5q25 0 41 -15t16 -40zM507 806q0 -30 -20 -48.5t-50 -18.5q-25 0 -41.5 15.5t-16.5 40.5q0 29 21 47.5t50 18.5q25 0 41 -15t16 -40zM457 0h-268l-2 13l51 11q13 4 17 11t4 21v187 l-176 341q-10 18 -18.5 27t-23.5 15l-41 11l2 13h277l2 -13l-76 -22l159 -344l158 345l-74 21l2 13h192l1 -13q-18 -6 -36 -14q-20 -11 -35 -29.5t-30 -47.5l-158 -303v-209l74 -21z" />
<glyph unicode="&#x179;" horiz-adv-x="581" d="M398 844q0 -21 -24.5 -44.5t-66.5 -44.5t-95 -36l-8 9q33 41 63.5 84t47.5 74q4 0 9.5 0.5t12.5 0.5q27 0 44 -11t17 -32zM529 89q0 -24 -1.5 -46t-4.5 -43h-462l-10 54l344 565h-242l-75 -188h-9q-16 55 -16 135q0 46 6 84h460l10 -53l-342 -566h240l77 189h9 q16 -52 16 -131z" />
<glyph unicode="&#x17a;" horiz-adv-x="461" d="M338 691q0 -21 -24.5 -44.5t-66.5 -44.5t-95 -36l-8 9q33 41 63.5 84t47.5 74q4 0 9.5 0.5t12.5 0.5q27 0 44 -11t17 -32zM428 76q0 -42 -5 -76h-383l-8 45l271 429h-175l-70 -158h-9q-16 46 -16 113q0 39 6 71h382l8 -45l-269 -429h172l71 159h10q15 -43 15 -109z" />
<glyph unicode="&#x17b;" horiz-adv-x="581" d="M364 806q0 -32 -22.5 -51.5t-56.5 -19.5q-29 0 -47.5 16.5t-18.5 43.5q0 31 23.5 50.5t55.5 19.5q29 0 47.5 -16t18.5 -43zM529 89q0 -24 -1.5 -46t-4.5 -43h-462l-10 54l344 565h-242l-75 -188h-9q-16 55 -16 135q0 46 6 84h460l10 -53l-342 -566h240l77 189h9 q16 -52 16 -131z" />
<glyph unicode="&#x17c;" horiz-adv-x="461" d="M306 656q0 -32 -22.5 -51.5t-56.5 -19.5q-29 0 -47.5 16.5t-18.5 43.5q0 31 23.5 50.5t55.5 19.5q29 0 47.5 -16t18.5 -43zM428 76q0 -42 -5 -76h-383l-8 45l271 429h-175l-70 -158h-9q-16 46 -16 113q0 39 6 71h382l8 -45l-269 -429h172l71 159h10q15 -43 15 -109z" />
<glyph unicode="&#x17d;" horiz-adv-x="581" d="M337 727l-7 -6h-82q-22 34 -47 75t-46 77l8 7q29 -20 63 -40.5t67 -39.5q29 18 64 39.5t67 39.5l7 -8q-17 -24 -35 -51t-34 -51.5t-25 -41.5zM529 89q0 -24 -1.5 -46t-4.5 -43h-462l-10 54l344 565h-242l-75 -188h-9q-16 55 -16 135q0 46 6 84h460l10 -53l-342 -566h240 l77 189h9q16 -52 16 -131z" />
<glyph unicode="&#x17e;" horiz-adv-x="461" d="M276 577l-7 -6h-82q-22 34 -47 75t-46 77l8 7q29 -20 63 -40.5t67 -39.5q29 18 64 39.5t67 39.5l7 -8q-17 -24 -35 -51t-34 -51.5t-25 -41.5zM428 76q0 -42 -5 -76h-383l-8 45l271 429h-175l-70 -158h-9q-16 46 -16 113q0 39 6 71h382l8 -45l-269 -429h172l71 159h10 q15 -43 15 -109z" />
<glyph unicode="&#x18f;" horiz-adv-x="627" d="M300 -10q-75 0 -131.5 34t-88 96.5t-31.5 149.5q0 12 0.5 22t1.5 20l14 14h389q-1 154 -37.5 228t-107.5 74q-57 0 -93 -42.5t-36 -106.5q0 -10 1 -22.5t4 -23.5q-16 -9 -31 -11.5t-30 -2.5q-25 0 -41 14.5t-16 41.5q0 35 19.5 68.5t54 59.5t78.5 41.5t92 15.5 q82 0 142.5 -39.5t94 -111.5t33.5 -170q0 -106 -35 -184.5t-98 -121.5t-148 -43zM174 267q0 -113 33 -178.5t100 -65.5q69 0 106 73.5t41 197.5l-279 -6q-1 -5 -1 -10.5v-10.5z" />
<glyph unicode="&#x192;" horiz-adv-x="540" d="M258 108q-11 -74 -44 -126.5t-79.5 -80t-99.5 -27.5q-42 0 -67.5 19.5t-25.5 46.5q0 43 62 58q4 -33 17.5 -56.5t38.5 -23.5q36 0 59 45t29 143l15 189h-112l5 34h110l9 106q4 84 38.5 137t86 78t107.5 25q65 0 102.5 -29.5t37.5 -67.5q0 -28 -19.5 -44.5t-41.5 -19.5 q-15 55 -34.5 91.5t-46.5 36.5q-41 0 -63 -48t-35 -136l-18 -129h162l-5 -34h-162z" />
<glyph unicode="&#x19d;" horiz-adv-x="679" d="M38 650h173l331 -511v478l-88 20l1 13h203l1 -13l-60 -13q-14 -4 -18 -10.5t-4 -18.5v-595h-92l-330 513v-420q0 -60 -12.5 -100.5t-39.5 -71.5t-72 -63l-9 10q32 33 53.5 63.5t32.5 71t11 104.5v510l-83 20z" />
<glyph unicode="&#x1cd;" horiz-adv-x="667" d="M380 727l-8 -6h-81q-23 34 -48 75t-46 77l8 7q29 -20 63 -40.5t68 -39.5q28 18 63 39.5t68 39.5l7 -8q-17 -24 -35.5 -51t-34 -51.5t-24.5 -41.5zM301 652h64l218 -581q8 -22 17 -31.5t29 -15.5l38 -11l-2 -13h-284l-2 13l82 22l-59 166h-232l-61 -167l82 -21l-2 -13 h-187l-2 13l41 10q21 6 28.5 17.5t16.5 33.5zM182 233h209l-103 291z" />
<glyph unicode="&#x1ce;" horiz-adv-x="519" d="M302 577l-7 -6h-82q-22 34 -47 75t-46 77l8 7q29 -20 63 -40.5t67 -39.5q29 18 64 39.5t67 39.5l7 -8q-17 -24 -35 -51t-34 -51.5t-25 -41.5zM512 46q-13 -20 -36.5 -38t-62.5 -18q-42 0 -66.5 24.5t-27.5 63.5q-19 -34 -57 -61t-95 -27q-54 0 -90.5 31.5t-36.5 84.5 t36 88t99 53.5t144 21.5v115q0 49 -16 71.5t-50 22.5q-37 0 -61 -27t-24 -66q0 -10 1 -23t4 -26q-29 -13 -56 -13q-25 0 -41.5 12t-16.5 37q0 34 28 66t75.5 52t103.5 20q86 0 131 -41.5t45 -129.5q0 -57 -1.5 -116t-1.5 -108q0 -36 10 -51.5t31 -15.5q15 0 28 5zM166 128 q0 -37 19 -55t46 -18q28 0 52.5 16t35.5 42v130q-66 -5 -109.5 -33t-43.5 -82z" />
<glyph unicode="&#x1cf;" horiz-adv-x="363" d="M228 727l-8 -6h-81q-23 34 -48 75t-46 77l8 7q29 -20 63 -40.5t68 -39.5q28 18 63 39.5t68 39.5l7 -8q-17 -24 -35.5 -51t-34 -51.5t-24.5 -41.5zM317 0h-268l-2 13l51 11q13 4 17 11t4 21v561l-74 20l2 13h268l1 -13l-50 -11q-14 -4 -18 -11t-4 -20v-561l74 -21z" />
<glyph unicode="&#x1d0;" horiz-adv-x="288" d="M184 576l-8 -5h-80q-17 34 -36.5 75t-35.5 77l8 6q24 -18 52 -38t56 -38q25 17 53.5 38t56.5 38l7 -9q-20 -36 -41.5 -77t-31.5 -67zM272 0h-247l-2 12l44 11q13 5 17 11.5t4 20.5v404l-64 10l-1 12q24 7 55.5 13.5t64 10.5t58.5 5l7 -7v-470l65 -21z" />
<glyph unicode="&#x1d1;" horiz-adv-x="660" d="M372 727l-7 -6h-82q-22 34 -47 75t-46 77l8 7q29 -20 63 -40.5t67 -39.5q29 18 64 39.5t67 39.5l7 -8q-17 -24 -35 -51t-34 -51.5t-25 -41.5zM614 329q0 -101 -37 -177.5t-102 -119t-150 -42.5q-86 0 -150.5 41t-100 116t-35.5 177t38 177.5t103.5 117t148.5 41.5 t147.5 -41t101 -115t36.5 -175zM173 324q-1 -146 40 -223.5t114 -77.5q74 0 113 81.5t40 224.5q0 143 -39 221t-113 78q-75 0 -115 -79.5t-40 -224.5z" />
<glyph unicode="&#x1d2;" horiz-adv-x="527" d="M310 577l-8 -6h-81q-23 34 -48 75t-46 77l8 7q29 -20 63 -40.5t68 -39.5q28 18 63 39.5t68 39.5l7 -8q-17 -24 -35.5 -51t-34 -51.5t-24.5 -41.5zM490 260q0 -80 -28.5 -141t-79.5 -95t-121 -34q-67 0 -117 29.5t-78 85t-28 134.5q0 85 29.5 145.5t81.5 93t120 32.5 q66 0 115.5 -30.5t77.5 -87t28 -132.5zM164 255q0 -122 24 -177.5t76 -55.5t76 57t24 169q0 119 -24 174.5t-74 55.5t-76 -54t-26 -169z" />
<glyph unicode="&#x1d3;" horiz-adv-x="692" d="M428 726l-8 -5h-81q-23 34 -48 75t-46 77l8 6q29 -19 63 -40t68 -39q28 18 63 39.5t68 39.5l7 -9q-17 -24 -35.5 -51t-34 -51.5t-24.5 -41.5zM588 223q0 -115 -63 -174t-171 -59q-67 0 -121.5 26t-86.5 78.5t-32 130.5v392l-74 20l2 13h268l1 -13l-50 -11q-14 -4 -18 -11 t-4 -20v-363q0 -97 43 -147.5t113 -50.5q67 0 112.5 48t45.5 145v390l-84 20l2 13h198l1 -13l-82 -20v-394z" />
<glyph unicode="&#x1d4;" d="M331 577l-8 -6h-81q-23 34 -48 75t-46 77l8 7q29 -20 63 -40.5t68 -39.5q28 18 63 39.5t68 39.5l7 -8q-17 -24 -35.5 -51t-34 -51.5t-24.5 -41.5zM575 44q-14 -20 -39 -37t-62 -17q-43 0 -68 28t-25 71v6q-23 -41 -62 -73t-99 -32q-67 0 -103.5 40t-36.5 112v317l-64 10 l-1 12q24 7 55.5 13.5t64 10.5t58.5 5l7 -7v-337q0 -96 81 -97q59 1 100 60v330l-65 10l-1 12q24 7 56 13.5t64 10.5t58 5l8 -7v-388q0 -36 9.5 -51.5t30.5 -15.5q15 0 29 5z" />
<glyph unicode="&#x1d5;" horiz-adv-x="692" d="M238 988v65h288v-65h-288zM337 805q0 -29 -20 -47.5t-50 -18.5q-25 0 -41.5 15t-16.5 41q0 28 21 47t50 19q25 0 41 -15t16 -41zM554 805q0 -29 -20 -47.5t-50 -18.5q-25 0 -41.5 15t-16.5 41q0 28 21 47t50 19q25 0 41 -15t16 -41zM588 223q0 -115 -63 -174t-171 -59 q-67 0 -121.5 26t-86.5 78.5t-32 130.5v392l-74 20l2 13h268l1 -13l-50 -11q-14 -4 -18 -11t-4 -20v-363q0 -97 43 -147.5t113 -50.5q67 0 112.5 48t45.5 145v390l-84 20l2 13h198l1 -13l-82 -20v-394z" />
<glyph unicode="&#x1d6;" d="M142 826v65h288v-65h-288zM241 656q0 -30 -20 -48.5t-50 -18.5q-25 0 -41.5 15.5t-16.5 40.5q0 29 21 47.5t50 18.5q25 0 41 -15t16 -40zM458 656q0 -30 -20 -48.5t-50 -18.5q-25 0 -41.5 15.5t-16.5 40.5q0 29 21 47.5t50 18.5q25 0 41 -15t16 -40zM575 44 q-14 -20 -39 -37t-62 -17q-43 0 -68 28t-25 71v6q-23 -41 -62 -73t-99 -32q-67 0 -103.5 40t-36.5 112v317l-64 10l-1 12q24 7 55.5 13.5t64 10.5t58.5 5l7 -7v-337q0 -96 81 -97q59 1 100 60v330l-65 10l-1 12q24 7 56 13.5t64 10.5t58 5l8 -7v-388q0 -36 9.5 -51.5 t30.5 -15.5q15 0 29 5z" />
<glyph unicode="&#x1d7;" horiz-adv-x="692" d="M491 1062q0 -21 -24.5 -44.5t-66.5 -44.5t-95 -36l-8 9q33 41 63.5 84t47.5 74q4 0 9.5 0.5t12.5 0.5q27 0 44 -11t17 -32zM337 805q0 -29 -20 -47.5t-50 -18.5q-25 0 -41.5 15t-16.5 41q0 28 21 47t50 19q25 0 41 -15t16 -41zM554 805q0 -29 -20 -47.5t-50 -18.5 q-25 0 -41.5 15t-16.5 41q0 28 21 47t50 19q25 0 41 -15t16 -41zM588 223q0 -115 -63 -174t-171 -59q-67 0 -121.5 26t-86.5 78.5t-32 130.5v392l-74 20l2 13h268l1 -13l-50 -11q-14 -4 -18 -11t-4 -20v-363q0 -97 43 -147.5t113 -50.5q67 0 112.5 48t45.5 145v390l-84 20 l2 13h198l1 -13l-82 -20v-394z" />
<glyph unicode="&#x1d8;" d="M393 899q0 -21 -24.5 -44.5t-66.5 -44.5t-96 -36l-8 9q33 41 63.5 84t48.5 74q4 0 9 0.5t12 0.5q27 0 44.5 -11t17.5 -32zM241 656q0 -30 -20 -48.5t-50 -18.5q-25 0 -41.5 15.5t-16.5 40.5q0 29 21 47.5t50 18.5q25 0 41 -15t16 -40zM458 656q0 -30 -20 -48.5t-50 -18.5 q-25 0 -41.5 15.5t-16.5 40.5q0 29 21 47.5t50 18.5q25 0 41 -15t16 -40zM575 44q-14 -20 -39 -37t-62 -17q-43 0 -68 28t-25 71v6q-23 -41 -62 -73t-99 -32q-67 0 -103.5 40t-36.5 112v317l-64 10l-1 12q24 7 55.5 13.5t64 10.5t58.5 5l7 -7v-337q0 -96 81 -97q59 1 100 60 v330l-65 10l-1 12q24 7 56 13.5t64 10.5t58 5l8 -7v-388q0 -36 9.5 -51.5t30.5 -15.5q15 0 29 5z" />
<glyph unicode="&#x1d9;" horiz-adv-x="692" d="M430 947l-7 -5h-82q-22 34 -47 75t-46 77l8 6q29 -19 63 -40t67 -39q29 18 64 39.5t67 39.5l7 -9q-17 -24 -35 -51t-34 -51.5t-25 -41.5zM337 805q0 -29 -20 -47.5t-50 -18.5q-25 0 -41.5 15t-16.5 41q0 28 21 47t50 19q25 0 41 -15t16 -41zM554 805q0 -29 -20 -47.5 t-50 -18.5q-25 0 -41.5 15t-16.5 41q0 28 21 47t50 19q25 0 41 -15t16 -41zM588 223q0 -115 -63 -174t-171 -59q-67 0 -121.5 26t-86.5 78.5t-32 130.5v392l-74 20l2 13h268l1 -13l-50 -11q-14 -4 -18 -11t-4 -20v-363q0 -97 43 -147.5t113 -50.5q67 0 112.5 48t45.5 145 v390l-84 20l2 13h198l1 -13l-82 -20v-394z" />
<glyph unicode="&#x1da;" d="M332 785l-8 -6h-81q-23 34 -48 75t-46 77l8 7q29 -20 63 -40.5t68 -39.5q28 18 63 39.5t68 39.5l7 -8q-17 -24 -35.5 -51t-34 -51.5t-24.5 -41.5zM241 656q0 -30 -20 -48.5t-50 -18.5q-25 0 -41.5 15.5t-16.5 40.5q0 29 21 47.5t50 18.5q25 0 41 -15t16 -40zM458 656 q0 -30 -20 -48.5t-50 -18.5q-25 0 -41.5 15.5t-16.5 40.5q0 29 21 47.5t50 18.5q25 0 41 -15t16 -40zM575 44q-14 -20 -39 -37t-62 -17q-43 0 -68 28t-25 71v6q-23 -41 -62 -73t-99 -32q-67 0 -103.5 40t-36.5 112v317l-64 10l-1 12q24 7 55.5 13.5t64 10.5t58.5 5l7 -7 v-337q0 -96 81 -97q59 1 100 60v330l-65 10l-1 12q24 7 56 13.5t64 10.5t58 5l8 -7v-388q0 -36 9.5 -51.5t30.5 -15.5q15 0 29 5z" />
<glyph unicode="&#x1db;" horiz-adv-x="692" d="M474 944l-8 -9q-54 15 -97.5 36t-68.5 44.5t-25 46.5q0 22 17.5 33t45.5 11q6 0 11.5 -0.5t9.5 -0.5q17 -31 49 -75.5t66 -85.5zM337 805q0 -29 -20 -47.5t-50 -18.5q-25 0 -41.5 15t-16.5 41q0 28 21 47t50 19q25 0 41 -15t16 -41zM554 805q0 -29 -20 -47.5t-50 -18.5 q-25 0 -41.5 15t-16.5 41q0 28 21 47t50 19q25 0 41 -15t16 -41zM588 223q0 -115 -63 -174t-171 -59q-67 0 -121.5 26t-86.5 78.5t-32 130.5v392l-74 20l2 13h268l1 -13l-50 -11q-14 -4 -18 -11t-4 -20v-363q0 -97 43 -147.5t113 -50.5q67 0 112.5 48t45.5 145v390l-84 20 l2 13h198l1 -13l-82 -20v-394z" />
<glyph unicode="&#x1dc;" d="M384 781l-8 -9q-55 15 -98.5 36t-68.5 44.5t-25 46.5q0 22 17.5 33t45.5 11q7 0 12 -0.5t10 -0.5q17 -31 48.5 -75.5t66.5 -85.5zM241 656q0 -30 -20 -48.5t-50 -18.5q-25 0 -41.5 15.5t-16.5 40.5q0 29 21 47.5t50 18.5q25 0 41 -15t16 -40zM458 656q0 -30 -20 -48.5 t-50 -18.5q-25 0 -41.5 15.5t-16.5 40.5q0 29 21 47.5t50 18.5q25 0 41 -15t16 -40zM575 44q-14 -20 -39 -37t-62 -17q-43 0 -68 28t-25 71v6q-23 -41 -62 -73t-99 -32q-67 0 -103.5 40t-36.5 112v317l-64 10l-1 12q24 7 55.5 13.5t64 10.5t58.5 5l7 -7v-337q0 -96 81 -97 q59 1 100 60v330l-65 10l-1 12q24 7 56 13.5t64 10.5t58 5l8 -7v-388q0 -36 9.5 -51.5t30.5 -15.5q15 0 29 5z" />
<glyph unicode="&#x1e6;" horiz-adv-x="630" d="M396 727l-7 -6h-82q-22 34 -47 75t-46 77l8 7q29 -20 63 -40.5t67 -39.5q29 18 64 39.5t67 39.5l7 -8q-17 -24 -35 -51t-34 -51.5t-25 -41.5zM562 19q-75 -29 -180 -29q-102 0 -178 38.5t-118.5 112.5t-42.5 180q0 105 45.5 181t124 117t175.5 41q51 0 92 -7.5t72 -21.5 q4 -29 4 -61q0 -79 -19 -135h-9l-72 183q-27 10 -61 10q-60 0 -111.5 -36.5t-83 -104.5t-31.5 -163q0 -96 32.5 -163.5t82.5 -103t105 -35.5q35 0 63 8v245l-75 20l2 12h246l2 -12l-43 -11q-14 -4 -18 -11t-4 -20v-234z" />
<glyph unicode="&#x1e7;" horiz-adv-x="487" d="M286 577l-7 -6h-82q-22 34 -47 75t-46 77l8 7q29 -20 63 -40.5t67 -39.5q29 18 64 39.5t67 39.5l7 -8q-17 -24 -35 -51t-34 -51.5t-25 -41.5zM479 -31q0 -71 -64.5 -117.5t-190.5 -46.5q-57 0 -107 11.5t-80.5 35t-30.5 58.5q0 26 18 45.5t47.5 31t62.5 14.5q-1 1 -2 3 q-22 9 -37.5 28t-15.5 47q0 32 23.5 57t58.5 35q-57 15 -90.5 55.5t-33.5 103.5q0 54 27.5 94t74.5 62t105 22q77 0 129.5 2.5t101.5 10.5q5 -6 8 -14.5t3 -20.5q0 -34 -40 -34q-17 0 -45 5t-59 11l-2 -3q36 -17 62 -52t26 -82q0 -54 -25.5 -91.5t-70.5 -57t-102 -19.5 q-23 0 -45 3q-7 -7 -11.5 -15.5t-4.5 -17.5q0 -32 54 -37l91 -5q76 -6 120.5 -34.5t44.5 -87.5zM153 330q0 -63 19.5 -99t59.5 -36t60.5 36.5t20.5 103.5q0 58 -17.5 95.5t-58.5 37.5q-42 0 -63 -39t-21 -99zM107 -79q0 -39 35 -61.5t98 -22.5q62 0 102.5 24t40.5 61 q0 27 -24 40.5t-69 16.5l-79 5q-27 0 -44 3q-28 -11 -44 -27.5t-16 -38.5z" />
<glyph unicode="&#x1ea;" horiz-adv-x="660" d="M433 -141q-15 -26 -42.5 -41.5t-59.5 -15.5q-36 0 -57.5 18t-21.5 51q0 35 33 65.5t97 58.5q-28 -5 -57 -5q-86 0 -150.5 41t-100 116t-35.5 177t38 177.5t103.5 117t148.5 41.5t147.5 -41t101 -115t36.5 -175t-37.5 -178t-101.5 -118l4 2q-54 -34 -84 -58t-42.5 -43 t-12.5 -38q0 -21 12 -30t32 -9q23 0 46 9zM173 324q-1 -146 40 -223.5t114 -77.5q74 0 113 81.5t40 224.5q0 143 -39 221t-113 78q-75 0 -115 -79.5t-40 -224.5z" />
<glyph unicode="&#x1eb;" horiz-adv-x="527" d="M374 -141q-16 -26 -42.5 -41.5t-59.5 -15.5q-34 0 -56 17.5t-22 48.5q0 38 35.5 67.5t89.5 61.5q-28 -7 -58 -7q-67 0 -117 29.5t-78 85t-28 134.5q0 85 29.5 145.5t81.5 93t120 32.5q66 0 115.5 -30.5t77.5 -87t28 -132.5q0 -73 -24 -130.5t-67 -92.5 q-30 -29 -56.5 -52.5t-43.5 -44.5t-17 -44q0 -20 12 -29.5t32 -9.5q23 0 44 9zM164 255q0 -122 24 -177.5t76 -55.5t76 57t24 169q0 119 -24 174.5t-74 55.5t-76 -54t-26 -169z" />
<glyph unicode="&#x1f4;" horiz-adv-x="630" d="M457 844q0 -21 -24.5 -44.5t-66.5 -44.5t-95 -36l-8 9q33 41 63.5 84t47.5 74q4 0 9.5 0.5t12.5 0.5q27 0 44 -11t17 -32zM562 19q-75 -29 -180 -29q-102 0 -178 38.5t-118.5 112.5t-42.5 180q0 105 45.5 181t124 117t175.5 41q51 0 92 -7.5t72 -21.5q4 -29 4 -61 q0 -79 -19 -135h-9l-72 183q-27 10 -61 10q-60 0 -111.5 -36.5t-83 -104.5t-31.5 -163q0 -96 32.5 -163.5t82.5 -103t105 -35.5q35 0 63 8v245l-75 20l2 12h246l2 -12l-43 -11q-14 -4 -18 -11t-4 -20v-234z" />
<glyph unicode="&#x1f5;" horiz-adv-x="487" d="M348 691q0 -21 -24.5 -44.5t-66.5 -44.5t-95 -36l-8 9q33 41 63.5 84t47.5 74q4 0 9.5 0.5t12.5 0.5q27 0 44 -11t17 -32zM479 -31q0 -71 -64.5 -117.5t-190.5 -46.5q-57 0 -107 11.5t-80.5 35t-30.5 58.5q0 26 18 45.5t47.5 31t62.5 14.5q-1 1 -2 3q-22 9 -37.5 28 t-15.5 47q0 32 23.5 57t58.5 35q-57 15 -90.5 55.5t-33.5 103.5q0 54 27.5 94t74.5 62t105 22q77 0 129.5 2.5t101.5 10.5q5 -6 8 -14.5t3 -20.5q0 -34 -40 -34q-17 0 -45 5t-59 11l-2 -3q36 -17 62 -52t26 -82q0 -54 -25.5 -91.5t-70.5 -57t-102 -19.5q-23 0 -45 3 q-7 -7 -11.5 -15.5t-4.5 -17.5q0 -32 54 -37l91 -5q76 -6 120.5 -34.5t44.5 -87.5zM153 330q0 -63 19.5 -99t59.5 -36t60.5 36.5t20.5 103.5q0 58 -17.5 95.5t-58.5 37.5q-42 0 -63 -39t-21 -99zM107 -79q0 -39 35 -61.5t98 -22.5q62 0 102.5 24t40.5 61q0 27 -24 40.5 t-69 16.5l-79 5q-27 0 -44 3q-28 -11 -44 -27.5t-16 -38.5z" />
<glyph unicode="&#x1fa;" horiz-adv-x="667" d="M436 1062q0 -21 -24.5 -44.5t-66.5 -44.5t-96 -36l-8 9q33 41 63.5 84t48.5 74q4 0 9 0.5t12 0.5q27 0 44.5 -11t17.5 -32zM330 718q-38 0 -62 21.5t-24 56.5q0 37 26.5 60t66.5 23q37 0 61.5 -21.5t24.5 -55.5q0 -37 -27 -60.5t-66 -23.5zM334 846q-18 0 -29 -14 t-11 -35q0 -20 11 -32.5t28 -12.5t28 14t11 35q0 20 -11 32.5t-27 12.5zM301 652h64l218 -581q8 -22 17 -31.5t29 -15.5l38 -11l-2 -13h-284l-2 13l82 22l-59 166h-232l-61 -167l82 -21l-2 -13h-187l-2 13l41 10q21 6 28.5 17.5t16.5 33.5zM182 233h209l-103 291z" />
<glyph unicode="&#x1fb;" horiz-adv-x="519" d="M359 902q0 -21 -24.5 -44.5t-66.5 -44.5t-95 -36l-8 9q33 41 63.5 84t47.5 74q4 0 9.5 0.5t12.5 0.5q27 0 44 -11t17 -32zM253 570q-37 0 -61.5 21t-24.5 56q0 37 26.5 60.5t67.5 23.5q36 0 60.5 -21.5t24.5 -55.5q0 -37 -26.5 -60.5t-66.5 -23.5zM257 697 q-18 0 -28.5 -14t-10.5 -35q0 -20 10.5 -32t27.5 -12q18 0 29 13.5t11 35.5q0 19 -11 31.5t-28 12.5zM512 46q-13 -20 -36.5 -38t-62.5 -18q-42 0 -66.5 24.5t-27.5 63.5q-19 -34 -57 -61t-95 -27q-54 0 -90.5 31.5t-36.5 84.5t36 88t99 53.5t144 21.5v115q0 49 -16 71.5 t-50 22.5q-37 0 -61 -27t-24 -66q0 -10 1 -23t4 -26q-29 -13 -56 -13q-25 0 -41.5 12t-16.5 37q0 34 28 66t75.5 52t103.5 20q86 0 131 -41.5t45 -129.5q0 -57 -1.5 -116t-1.5 -108q0 -36 10 -51.5t31 -15.5q15 0 28 5zM166 128q0 -37 19 -55t46 -18q28 0 52.5 16t35.5 42 v130q-66 -5 -109.5 -33t-43.5 -82z" />
<glyph unicode="&#x1fc;" horiz-adv-x="872" d="M648 844q0 -21 -24.5 -44.5t-66.5 -44.5t-95 -36l-8 9q33 41 63.5 84t47.5 74q4 0 9.5 0.5t12.5 0.5q27 0 44 -11t17 -32zM420 619h-84l-101 -277h185v277zM14 0l-1 13q13 4 24.5 7t23.5 8q14 5 21.5 14t17.5 34l202 543l-81 18l1 13h590q6 -32 6 -72q0 -71 -16 -122h-9 l-73 162q-21 0 -42.5 0.5t-42.5 0.5h-90v-277l186 10l-2 -50l-184 9v-279h95h44h45l73 166h9q15 -52 15 -124q0 -41 -5 -74h-473l-1 13l51 11q14 4 18 11t4 21v255l-198 -3l-99 -274l82 -21l-1 -13h-190z" />
<glyph unicode="&#x1fd;" horiz-adv-x="765" d="M506 691q0 -21 -24.5 -44.5t-66.5 -44.5t-95 -36l-8 9q33 41 63.5 84t47.5 74q4 0 9.5 0.5t12.5 0.5q27 0 44 -11t17 -32zM736 116q-24 -56 -72 -90.5t-125 -34.5q-68 0 -117.5 28.5t-75.5 84.5q-12 -27 -35 -53t-57 -43.5t-80 -17.5q-59 0 -96.5 31t-37.5 84q0 55 36 91 t99 55.5t144 22.5v110q0 49 -16 71.5t-50 22.5q-37 0 -61 -27t-24 -66q0 -10 1 -23t4 -26q-29 -13 -56 -13q-25 0 -41.5 12t-16.5 37q0 34 28 66t75 52t104 20q97 0 140 -52q61 53 145 53q88 0 138 -55.5t50 -143.5q0 -24 -4 -50l-8 -7h-281q7 -89 49.5 -133t108.5 -44 q38 0 67 11.5t57 34.5zM445 285v-4l171 8q1 11 1.5 22t0.5 22q0 67 -15.5 106.5t-57.5 39.5q-45 0 -72.5 -51t-27.5 -143zM166 136q0 -37 20 -58t50 -21q31 0 57.5 20t41.5 53q-16 49 -16 111v7q-66 -5 -109.5 -32t-43.5 -80z" />
<glyph unicode="&#x1fe;" horiz-adv-x="660" d="M428 844q0 -21 -24.5 -44.5t-66.5 -44.5t-95 -36l-8 9q33 41 63.5 84t47.5 74q4 0 9.5 0.5t12.5 0.5q27 0 44 -11t17 -32zM614 329q0 -101 -37 -177.5t-102 -119t-151 -42.5q-55 0 -101.5 17.5t-82.5 49.5l-50 -64l-29 24l53 67q-36 44 -55.5 104.5t-19.5 135.5 q0 102 38 177.5t103.5 117t148.5 41.5q108 0 183 -68l50 65l29 -23l-54 -68q36 -43 56.5 -103t20.5 -134zM173 324q-1 -84 13 -147l268 342q-38 109 -126 109q-75 0 -115 -79.5t-40 -224.5zM479 329q1 83 -13 146l-267 -342q39 -110 128 -110q74 0 113 81.5t39 224.5z" />
<glyph unicode="&#x1ff;" horiz-adv-x="527" d="M372 691q0 -21 -24.5 -44.5t-66.5 -44.5t-96 -36l-8 9q33 41 63.5 84t48.5 74q4 0 9 0.5t12 0.5q27 0 44.5 -11t17.5 -32zM490 260q0 -80 -28.5 -141t-79.5 -95t-121 -34q-106 0 -166 71l-45 -44l-21 23l47 47q-19 30 -28.5 68t-9.5 84q0 85 29.5 145.5t81.5 93t120 32.5 q50 0 91 -18t70 -52l45 45l24 -23l-49 -48q40 -64 40 -154zM164 255q0 -43 2 -78l189 189q-19 112 -89 112q-50 0 -76 -54t-26 -169zM364 248q0 43 -4 77l-189 -188q10 -59 33 -87t60 -28q52 0 76 57t24 169z" />
<glyph unicode="&#x218;" horiz-adv-x="511" d="M477 167q0 -61 -32.5 -100t-89 -58t-126.5 -19q-65 0 -112 10.5t-66 27.5q-9 7 -13 20t-4 36q0 33 11 68t22 57l9 -1l61 -170q12 -6 33 -11.5t47 -5.5q57 0 93 30t36 81q0 40 -22.5 68t-57.5 49.5t-74.5 42.5t-74.5 46.5t-57 61.5t-22 88q0 54 32 92.5t86.5 59 t120.5 20.5q69 0 111.5 -12t56.5 -24q15 -13 15 -52q0 -19 -6 -42.5t-15 -45t-17 -34.5l-9 1l-54 165q-13 6 -30 9.5t-40 3.5q-55 0 -90.5 -27.5t-35.5 -76.5q0 -41 22.5 -70t58.5 -52t76 -45t76 -47.5t58.5 -60t22.5 -83.5zM309 -145q0 -31 -16 -64.5t-41 -62.5t-53 -47 l-10 8q15 24 27 53t17 59q-23 4 -37 18t-14 38q0 29 18.5 46.5t45.5 17.5q29 0 46 -18.5t17 -47.5z" />
<glyph unicode="&#x219;" horiz-adv-x="443" d="M198 -10q-54 0 -91 7.5t-51 17.5q-8 6 -13 19.5t-5 36.5q0 28 11.5 54.5t26.5 41.5l10 -3q7 -36 14 -63t19 -45q21 -34 82 -34q39 0 61.5 20t22.5 52q0 30 -17.5 51t-44 37.5t-57 33.5t-57 37t-43.5 47.5t-17 67.5q0 46 26 77.5t71 48t101 16.5q58 0 91.5 -11t44.5 -22 q6 -6 10.5 -17.5t4.5 -30.5q0 -27 -14 -52.5t-29 -40.5l-11 3q-6 36 -13 62t-16 44q-19 33 -70 33q-37 0 -59.5 -19t-22.5 -53q0 -29 17.5 -50.5t45 -39t58.5 -34.5t58.5 -37t45 -47.5t17.5 -64.5q0 -48 -27 -80t-74 -47.5t-106 -15.5zM270 -145q0 -31 -16 -64.5 t-41.5 -62.5t-53.5 -47l-9 8q14 24 26.5 53t16.5 59q-22 4 -36.5 18t-14.5 38q0 29 18.5 46.5t46.5 17.5t45.5 -18.5t17.5 -47.5z" />
<glyph unicode="&#x21a;" horiz-adv-x="579" d="M425 0h-268l-2 13l51 11q13 4 17 11t4 21v563h-54q-16 0 -32 -0.5t-32 -0.5l-67 -183h-9q-8 26 -12 59.5t-4 71.5q0 46 6 84h534q5 -38 5 -84q0 -38 -4 -71.5t-11 -59.5h-9l-68 183q-16 0 -32 0.5t-31 0.5h-55v-585l74 -21zM353 -145q0 -31 -16 -64.5t-41.5 -62.5 t-53.5 -47l-10 8q15 24 27.5 53t16.5 59q-22 4 -36.5 18t-14.5 38q0 29 18.5 46.5t46.5 17.5t45.5 -18.5t17.5 -47.5z" />
<glyph unicode="&#x21b;" horiz-adv-x="373" d="M337 476v-28h-145v-267q0 -104 75 -104q25 0 48.5 11.5t44.5 30.5l8 -7q-14 -31 -36.5 -59t-54.5 -45.5t-73 -17.5q-64 0 -98 40.5t-34 119.5v298h-71l-2 12l69 23l115 147l9 -2v-152h145zM262 -145q0 -31 -16 -64.5t-41 -62.5t-53 -47l-10 8q15 24 27 53t17 59 q-23 4 -37 18t-14 38q0 29 18.5 46.5t45.5 17.5q29 0 46 -18.5t17 -47.5z" />
<glyph unicode="&#x232;" horiz-adv-x="643" d="M191 768v65h288v-65h-288zM457 0h-268l-2 13l51 11q13 4 17 11t4 21v187l-176 341q-10 18 -18.5 27t-23.5 15l-41 11l2 13h277l2 -13l-76 -22l159 -344l158 345l-74 21l2 13h192l1 -13q-18 -6 -36 -14q-20 -11 -35 -29.5t-30 -47.5l-158 -303v-209l74 -21z" />
<glyph unicode="&#x233;" horiz-adv-x="529" d="M119 618v65h288v-65h-288zM119 -195q-36 0 -58 18.5t-22 47.5q0 11 3 20.5t7 16.5q12 -5 32 -9.5t42 -4.5q45 0 86.5 25.5t65.5 76.5h-53l-149 429q-8 24 -17 36t-26 21l-30 6l2 12h255l1 -12l-66 -21l115 -373l117 375l-66 19l1 12h168l2 -12l-36 -8q-18 -7 -27 -21 t-17 -37l-133 -396q-20 -60 -47.5 -110t-64 -80.5t-85.5 -30.5z" />
<glyph unicode="&#x237;" horiz-adv-x="272" d="M7 -184q24 33 40.5 68.5t24.5 82t8 110.5v382l-64 10l-1 12q24 7 55.5 13.5t64 10.5t58.5 5l7 -7v-440q0 -102 -40 -164.5t-145 -93.5z" />
<glyph unicode="&#x259;" horiz-adv-x="492" d="M47 241h281q1 9 1 20q0 120 -23.5 168.5t-69.5 48.5q-37 0 -58 -28t-21 -67q0 -10 1 -22.5t4 -24.5q-30 -13 -58 -13q-27 0 -44 12t-17 37q0 36 25.5 67.5t69.5 51t100 19.5q102 0 159.5 -67.5t57.5 -182.5q0 -85 -30.5 -145.5t-81 -92.5t-112.5 -32t-106 26t-67 71 t-23 102q0 10 1 22t3 24zM156 171q0 -63 17.5 -106t63.5 -43q38 0 62 45t29 148l-170 -8q-2 -18 -2 -36z" />
<glyph unicode="&#x272;" horiz-adv-x="581" d="M564 0h-247l-1 12l43 11q13 5 17.5 11.5t4.5 20.5v280q0 96 -80 96q-27 0 -55.5 -16.5t-45.5 -44.5v-307q0 -102 -40 -164.5t-145 -93.5l-8 11q24 33 40.5 68.5t24.5 82t8 110.5v382l-64 10l-1 12q24 7 55.5 13.5t64 10.5t58.5 5l7 -7v-102q26 46 69 77.5t99 31.5 q66 0 99.5 -39.5t33.5 -110.5v-327l65 -21z" />
<glyph unicode="&#x2c6;" horiz-adv-x="393" d="M335 577l-9 -6q-29 19 -63 39.5t-67 39.5q-29 -18 -64 -39.5t-67 -39.5l-7 9q17 23 35 50t34 52t25 42l8 5h81q23 -34 47.5 -75t46.5 -77z" />
<glyph unicode="&#x2c7;" horiz-adv-x="402" d="M245 577l-7 -6h-82q-22 34 -47 75t-46 77l8 7q29 -20 63 -40.5t67 -39.5q29 18 64 39.5t67 39.5l7 -8q-17 -24 -35 -51t-34 -51.5t-25 -41.5z" />
<glyph unicode="&#x2d8;" horiz-adv-x="359" d="M289 722l4 2l10 -4q-7 -69 -39.5 -106t-87.5 -37q-53 0 -84.5 37t-35.5 107l14 3q14 -32 40.5 -50.5t70.5 -18.5q39 0 65.5 18t42.5 49z" />
<glyph unicode="&#x2d9;" horiz-adv-x="264" d="M205 656q0 -32 -22.5 -51.5t-56.5 -19.5q-29 0 -47.5 16.5t-18.5 43.5q0 31 23.5 50.5t55.5 19.5q29 0 47.5 -16t18.5 -43z" />
<glyph unicode="&#x2da;" horiz-adv-x="316" d="M155 570q-38 0 -62 21t-24 56q0 37 26.5 60.5t66.5 23.5q37 0 61.5 -21.5t24.5 -55.5q0 -37 -27 -60.5t-66 -23.5zM159 697q-18 0 -29 -14t-11 -35q0 -20 11 -32t28 -12t28 13.5t11 35.5q0 19 -11 31.5t-27 12.5z" />
<glyph unicode="&#x2db;" horiz-adv-x="304" d="M242 -141q-15 -26 -43 -41.5t-59 -15.5q-36 0 -58 18t-22 51q0 38 42 79t123 59l10 -9q-36 -15 -61 -44.5t-25 -58.5q0 -21 12 -30.5t33 -9.5q22 0 44 9z" />
<glyph unicode="&#x2dc;" horiz-adv-x="452" d="M327 659q9 11 21 26t23 30l10 -3q2 -12 2 -25q-3 -38 -22 -68t-55 -30q-28 0 -62.5 10.5t-66 23t-51.5 17.5q-10 -11 -21.5 -26t-22.5 -30l-10 4q-3 13 -3 25q3 37 22.5 67t55.5 30q28 0 61.5 -11t65 -23t53.5 -17z" />
<glyph unicode="&#x2dd;" horiz-adv-x="488" d="M244 691q0 -21 -23 -44.5t-62.5 -44.5t-88.5 -36l-8 9q33 41 63.5 84t47.5 74q3 0 7.5 0.5t10.5 0.5q23 0 38 -11t15 -32zM426 691q0 -21 -23 -44.5t-62 -44.5t-89 -36l-8 9q33 41 63.5 84t48.5 74q3 0 7 0.5t10 0.5q23 0 38 -11t15 -32z" />
<glyph unicode="&#x1e0c;" horiz-adv-x="688" d="M311 0h-263l-2 13l52 11q13 4 17 11t4 21v561l-73 20l1 13h268q98 0 172.5 -37.5t116 -109.5t41.5 -174t-42.5 -175.5t-118 -113.5t-173.5 -40zM301 619h-57v-588h58q102 0 159 80t58 218q0 139 -58 214.5t-160 75.5zM425 -138q0 -32 -22.5 -51.5t-56.5 -19.5 q-29 0 -47.5 16.5t-18.5 43.5q0 31 23.5 50.5t55.5 19.5q29 0 47.5 -16t18.5 -43z" />
<glyph unicode="&#x1e0d;" horiz-adv-x="558" d="M38 233q0 93 32 154.5t87 92t123 30.5q40 0 78 -9v143l-64 10l-1 12q24 7 55.5 13.5t64 10.5t58.5 5l7 -7v-573q0 -36 9.5 -51.5t29.5 -15.5q14 0 29 5l4 -7q-16 -24 -40 -40t-60 -16q-40 0 -64.5 24.5t-27.5 63.5q-20 -35 -57 -61.5t-88 -26.5q-78 0 -126.5 63.5 t-48.5 179.5zM164 252q0 -95 28.5 -146t79.5 -51q25 0 50.5 16.5t35.5 42.5v336q-26 18 -62 18q-65 0 -98.5 -59.5t-33.5 -156.5zM340 -138q0 -32 -22.5 -51.5t-55.5 -19.5q-30 0 -48.5 16.5t-18.5 43.5q0 31 23.5 50.5t55.5 19.5q29 0 47.5 -16t18.5 -43z" />
<glyph unicode="&#x1e24;" horiz-adv-x="756" d="M317 0h-268l-2 13l51 11q13 4 17 11t4 21v561l-74 20l2 13h268l1 -13l-50 -11q-14 -4 -18 -11t-4 -20v-246h268v268l-74 20l2 13h268l1 -13l-50 -11q-14 -4 -18 -11t-4 -20v-561l74 -21l-1 -13h-268l-2 13l51 11q13 4 17 11t4 21v259h-268v-281l74 -21zM450 -138 q0 -32 -22.5 -51.5t-56.5 -19.5q-29 0 -47.5 16.5t-18.5 43.5q0 31 23.5 50.5t55.5 19.5q29 0 47.5 -16t18.5 -43z" />
<glyph unicode="&#x1e25;" horiz-adv-x="581" d="M264 0h-247l-2 12l44 11q13 5 17 11.5t4 20.5v589l-64 10l-1 12q24 7 55.5 13.5t64 10.5t58.5 5l7 -7v-285q26 44 68.5 75.5t99.5 31.5q66 0 99.5 -39.5t33.5 -110.5v-327l65 -21l-2 -12h-247l-1 12l43 11q13 5 17.5 11.5t4.5 20.5v280q0 46 -19.5 71t-61.5 25 q-28 0 -55.5 -16.5t-44.5 -44.5v-337l65 -21zM361 -138q0 -32 -22.5 -51.5t-56.5 -19.5q-29 0 -47.5 16.5t-18.5 43.5q0 31 23.5 50.5t55.5 19.5q29 0 47.5 -16t18.5 -43z" />
<glyph unicode="&#x1e44;" horiz-adv-x="679" d="M428 806q0 -32 -22.5 -51.5t-56.5 -19.5q-29 0 -47.5 16.5t-18.5 43.5q0 31 23.5 50.5t55.5 19.5q29 0 47.5 -16t18.5 -43zM241 0h-202l-2 13l61 14q13 3 17 9.5t4 19.5v561l-83 20l2 13h173l331 -511v478l-88 20l1 13h203l1 -13l-60 -13q-14 -4 -18 -10.5t-4 -18.5v-595 h-92l-330 513v-479l88 -21z" />
<glyph unicode="&#x1e45;" d="M373 656q0 -32 -22.5 -51.5t-56.5 -19.5q-29 0 -47.5 16.5t-18.5 43.5q0 31 23.5 50.5t55.5 19.5q29 0 47.5 -16t18.5 -43zM272 0h-247l-2 12l44 11q13 5 17 11.5t4 20.5v404l-64 10l-1 12q24 7 55.5 13.5t64 10.5t58.5 5l7 -7v-102q26 46 69 77.5t99 31.5 q66 0 99.5 -39.5t33.5 -110.5v-327l65 -21l-2 -12h-247l-1 12l43 11q13 5 17.5 11.5t4.5 20.5v280q0 96 -80 96q-27 0 -55.5 -16.5t-45.5 -44.5v-337l65 -21z" />
<glyph unicode="&#x1e5a;" horiz-adv-x="675" d="M317 0h-268l-2 13l51 11q13 4 17 11t4 21v561l-73 20l1 13h276q76 0 133.5 -21t90.5 -62.5t33 -102.5q0 -60 -34.5 -100t-88.5 -63l131 -226q20 -37 52 -50l35 -12l-1 -13l-123 -1q-41 -1 -62.5 15t-37.5 50l-109 211q-15 -2 -17 -2h-81v-239l74 -21zM306 619h-62v-315 h63q63 0 105 41.5t42 115.5t-40.5 116t-107.5 42zM427 -138q0 -32 -22.5 -51.5t-55.5 -19.5q-30 0 -48.5 16.5t-18.5 43.5q0 31 23.5 50.5t55.5 19.5q29 0 47.5 -16t18.5 -43z" />
<glyph unicode="&#x1e5b;" horiz-adv-x="421" d="M292 0h-267l-2 12l44 11q13 5 17 11.5t4 20.5v404l-64 10l-1 12q24 7 55.5 13.5t64 10.5t58.5 5l7 -7v-128q21 57 53.5 96t76.5 39q34 0 53 -21.5t19 -53.5q0 -19 -6.5 -35.5t-13.5 -24.5l-5 -2q-17 10 -35.5 15.5t-41.5 5.5q-31 0 -57.5 -15t-42.5 -34v-312l85 -21z M221 -138q0 -32 -22.5 -51.5t-55.5 -19.5q-30 0 -48.5 16.5t-18.5 43.5q0 31 23.5 50.5t55.5 19.5q29 0 47.5 -16t18.5 -43z" />
<glyph unicode="&#x1e62;" horiz-adv-x="511" d="M477 167q0 -61 -32.5 -100t-89 -58t-126.5 -19q-65 0 -112 10.5t-66 27.5q-9 7 -13 20t-4 36q0 33 11 68t22 57l9 -1l61 -170q12 -6 33 -11.5t47 -5.5q57 0 93 30t36 81q0 40 -22.5 68t-57.5 49.5t-74.5 42.5t-74.5 46.5t-57 61.5t-22 88q0 54 32 92.5t86.5 59 t120.5 20.5q69 0 111.5 -12t56.5 -24q15 -13 15 -52q0 -19 -6 -42.5t-15 -45t-17 -34.5l-9 1l-54 165q-13 6 -30 9.5t-40 3.5q-55 0 -90.5 -27.5t-35.5 -76.5q0 -41 22.5 -70t58.5 -52t76 -45t76 -47.5t58.5 -60t22.5 -83.5zM318 -138q0 -32 -22.5 -51.5t-55.5 -19.5 q-30 0 -48.5 16.5t-18.5 43.5q0 31 23.5 50.5t55.5 19.5q29 0 47.5 -16t18.5 -43z" />
<glyph unicode="&#x1e63;" horiz-adv-x="443" d="M198 -10q-54 0 -91 7.5t-51 17.5q-8 6 -13 19.5t-5 36.5q0 28 11.5 54.5t26.5 41.5l10 -3q7 -36 14 -63t19 -45q21 -34 82 -34q39 0 61.5 20t22.5 52q0 30 -17.5 51t-44 37.5t-57 33.5t-57 37t-43.5 47.5t-17 67.5q0 46 26 77.5t71 48t101 16.5q58 0 91.5 -11t44.5 -22 q6 -6 10.5 -17.5t4.5 -30.5q0 -27 -14 -52.5t-29 -40.5l-11 3q-6 36 -13 62t-16 44q-19 33 -70 33q-37 0 -59.5 -19t-22.5 -53q0 -29 17.5 -50.5t45 -39t58.5 -34.5t58.5 -37t45 -47.5t17.5 -64.5q0 -48 -27 -80t-74 -47.5t-106 -15.5zM279 -138q0 -32 -22.5 -51.5 t-56.5 -19.5q-29 0 -47.5 16.5t-18.5 43.5q0 31 23.5 50.5t55.5 19.5q29 0 47.5 -16t18.5 -43z" />
<glyph unicode="&#x1e6c;" horiz-adv-x="579" d="M425 0h-268l-2 13l51 11q13 4 17 11t4 21v563h-54q-16 0 -32 -0.5t-32 -0.5l-67 -183h-9q-8 26 -12 59.5t-4 71.5q0 46 6 84h534q5 -38 5 -84q0 -38 -4 -71.5t-11 -59.5h-9l-68 183q-16 0 -32 0.5t-31 0.5h-55v-585l74 -21zM362 -138q0 -32 -22.5 -51.5t-56.5 -19.5 q-29 0 -47.5 16.5t-18.5 43.5q0 31 23.5 50.5t55.5 19.5q29 0 47.5 -16t18.5 -43z" />
<glyph unicode="&#x1e6d;" horiz-adv-x="373" d="M337 476v-28h-145v-267q0 -104 75 -104q25 0 48.5 11.5t44.5 30.5l8 -7q-14 -31 -36.5 -59t-54.5 -45.5t-73 -17.5q-64 0 -98 40.5t-34 119.5v298h-71l-2 12l69 23l115 147l9 -2v-152h145zM271 -138q0 -32 -22.5 -51.5t-55.5 -19.5q-30 0 -48.5 16.5t-18.5 43.5 q0 31 23.5 50.5t55.5 19.5q29 0 47.5 -16t18.5 -43z" />
<glyph unicode="&#x1e80;" horiz-adv-x="1008" d="M623 724l-8 -9q-54 15 -97.5 35.5t-68.5 44t-25 46.5t17.5 34t45.5 11q6 0 11.5 -0.5t9.5 -0.5q17 -32 49 -76t66 -85zM356 -2h-64l-208 581q-8 21 -17.5 31t-25.5 16l-41 11l2 13h277l2 -13l-77 -22l165 -485l117 368l-26 81q-7 21 -17 31t-26 16l-46 11l2 13h282l2 -13 l-78 -22l151 -485l154 485l-81 22l1 13h203l1 -13q-5 -2 -16 -5.5t-21.5 -7.5t-13.5 -7q-20 -10 -30.5 -29.5t-22.5 -54.5l-187 -535h-64l-147 441z" />
<glyph unicode="&#x1e81;" horiz-adv-x="798" d="M515 573l-8 -9q-54 15 -97.5 36t-68.5 44.5t-25 46.5q0 22 17.5 33t45.5 11q6 0 11.5 -0.5t9.5 -0.5q17 -31 49 -75.5t66 -85.5zM408 500h65l111 -404l109 372l-66 20l2 12h168l1 -12q-3 -2 -14 -6t-21.5 -8t-12.5 -6q-21 -12 -31 -46l-135 -422h-87l-101 310l-97 -310 h-86l-140 425q-8 24 -17 36t-26 21l-30 6l2 12h255l1 -12l-66 -21l107 -371z" />
<glyph unicode="&#x1e82;" horiz-adv-x="1008" d="M624 844q0 -21 -24.5 -44.5t-66.5 -44.5t-95 -36l-8 9q33 41 63.5 84t47.5 74q4 0 9.5 0.5t12.5 0.5q27 0 44 -11t17 -32zM356 -2h-64l-208 581q-8 21 -17.5 31t-25.5 16l-41 11l2 13h277l2 -13l-77 -22l165 -485l117 368l-26 81q-7 21 -17 31t-26 16l-46 11l2 13h282 l2 -13l-78 -22l151 -485l154 485l-81 22l1 13h203l1 -13q-5 -2 -16 -5.5t-21.5 -7.5t-13.5 -7q-20 -10 -30.5 -29.5t-22.5 -54.5l-187 -535h-64l-147 441z" />
<glyph unicode="&#x1e83;" horiz-adv-x="798" d="M522 691q0 -21 -24.5 -44.5t-66.5 -44.5t-96 -36l-8 9q33 41 63.5 84t48.5 74q4 0 9 0.5t12 0.5q27 0 44.5 -11t17.5 -32zM408 500h65l111 -404l109 372l-66 20l2 12h168l1 -12q-3 -2 -14 -6t-21.5 -8t-12.5 -6q-21 -12 -31 -46l-135 -422h-87l-101 310l-97 -310h-86 l-140 425q-8 24 -17 36t-26 21l-30 6l2 12h255l1 -12l-66 -21l107 -371z" />
<glyph unicode="&#x1e84;" horiz-adv-x="1008" d="M478 806q0 -30 -20 -48.5t-50 -18.5q-26 0 -42 15.5t-16 40.5q0 29 21 47.5t49 18.5q26 0 42 -15t16 -40zM695 806q0 -30 -20 -48.5t-50 -18.5q-26 0 -42 15.5t-16 40.5q0 29 21 47.5t49 18.5q26 0 42 -15t16 -40zM356 -2h-64l-208 581q-8 21 -17.5 31t-25.5 16l-41 11 l2 13h277l2 -13l-77 -22l165 -485l117 368l-26 81q-7 21 -17 31t-26 16l-46 11l2 13h282l2 -13l-78 -22l151 -485l154 485l-81 22l1 13h203l1 -13q-5 -2 -16 -5.5t-21.5 -7.5t-13.5 -7q-20 -10 -30.5 -29.5t-22.5 -54.5l-187 -535h-64l-147 441z" />
<glyph unicode="&#x1e85;" horiz-adv-x="798" d="M370 656q0 -30 -20 -48.5t-50 -18.5q-25 0 -41.5 15.5t-16.5 40.5q0 29 21 47.5t50 18.5q25 0 41 -15t16 -40zM587 656q0 -30 -20 -48.5t-50 -18.5q-25 0 -41.5 15.5t-16.5 40.5q0 29 21 47.5t50 18.5q25 0 41 -15t16 -40zM408 500h65l111 -404l109 372l-66 20l2 12h168 l1 -12q-3 -2 -14 -6t-21.5 -8t-12.5 -6q-21 -12 -31 -46l-135 -422h-87l-101 310l-97 -310h-86l-140 425q-8 24 -17 36t-26 21l-30 6l2 12h255l1 -12l-66 -21l107 -371z" />
<glyph unicode="&#x1e92;" horiz-adv-x="581" d="M529 89q0 -24 -1.5 -46t-4.5 -43h-462l-10 54l344 565h-242l-75 -188h-9q-16 55 -16 135q0 46 6 84h460l10 -53l-342 -566h240l77 189h9q16 -52 16 -131zM363 -138q0 -32 -22.5 -51.5t-56.5 -19.5q-29 0 -47.5 16.5t-18.5 43.5q0 31 23.5 50.5t55.5 19.5q29 0 47.5 -16 t18.5 -43z" />
<glyph unicode="&#x1e93;" horiz-adv-x="461" d="M428 76q0 -42 -5 -76h-383l-8 45l271 429h-175l-70 -158h-9q-16 46 -16 113q0 39 6 71h382l8 -45l-269 -429h172l71 159h10q15 -43 15 -109zM303 -138q0 -32 -22.5 -51.5t-56.5 -19.5q-29 0 -47.5 16.5t-18.5 43.5q0 31 23.5 50.5t55.5 19.5q29 0 47.5 -16t18.5 -43z" />
<glyph unicode="&#x1e9e;" horiz-adv-x="720" d="M387 660q65 0 121 -22t88 -53v-14l-158 -155q68 -27 126.5 -62t94 -80.5t35.5 -106.5q0 -82 -61 -129.5t-159 -47.5q-53 0 -97.5 11.5t-54.5 27.5q-7 10 -10.5 25t-3.5 38q0 27 5.5 54.5t17.5 51.5l11 -1q8 -48 17 -81t27 -55q32 -40 82 -40q44 0 69.5 26.5t25.5 73.5 q0 52 -28 93t-76 72.5t-108 56.5l-3 19l167 178q-21 40 -53.5 64.5t-78.5 24.5q-44 0 -77 -23.5t-51 -64.5t-18 -93v-436l-11 -12h-185l-2 13l46 10q19 5 23 12t4 27v355q0 69 35.5 124t98 87t141.5 32z" />
<glyph unicode="&#x1ea0;" horiz-adv-x="667" d="M301 652h64l218 -581q8 -22 17 -31.5t29 -15.5l38 -11l-2 -13h-284l-2 13l82 22l-59 166h-232l-61 -167l82 -21l-2 -13h-187l-2 13l41 10q21 6 28.5 17.5t16.5 33.5zM182 233h209l-103 291zM362 -138q0 -32 -22.5 -51.5t-55.5 -19.5q-30 0 -48.5 16.5t-18.5 43.5 q0 31 23.5 50.5t55.5 19.5q29 0 47.5 -16t18.5 -43z" />
<glyph unicode="&#x1ea1;" horiz-adv-x="519" d="M512 46q-13 -20 -36.5 -38t-62.5 -18q-42 0 -66.5 24.5t-27.5 63.5q-19 -34 -57 -61t-95 -27q-54 0 -90.5 31.5t-36.5 84.5t36 88t99 53.5t144 21.5v115q0 49 -16 71.5t-50 22.5q-37 0 -61 -27t-24 -66q0 -10 1 -23t4 -26q-29 -13 -56 -13q-25 0 -41.5 12t-16.5 37 q0 34 28 66t75.5 52t103.5 20q86 0 131 -41.5t45 -129.5q0 -57 -1.5 -116t-1.5 -108q0 -36 10 -51.5t31 -15.5q15 0 28 5zM166 128q0 -37 19 -55t46 -18q28 0 52.5 16t35.5 42v130q-66 -5 -109.5 -33t-43.5 -82zM327 -138q0 -32 -22.5 -51.5t-55.5 -19.5q-30 0 -48.5 16.5 t-18.5 43.5q0 31 23.5 50.5t55.5 19.5q29 0 47.5 -16t18.5 -43z" />
<glyph unicode="&#x1eb8;" horiz-adv-x="568" d="M520 0h-472l-2 13l52 11q13 4 17 11t4 21v561l-73 20l1 13h465q5 -32 5 -72q0 -71 -15 -122h-9l-73 162q-21 0 -42.5 0.5t-42.5 0.5h-91v-277l186 10l-2 -50l-184 9v-279h95h44.5h44.5l73 166h9q16 -52 16 -124q0 -41 -6 -74zM379 -138q0 -32 -22.5 -51.5t-56.5 -19.5 q-29 0 -47.5 16.5t-18.5 43.5q0 31 23.5 50.5t55.5 19.5q29 0 47.5 -16t18.5 -43z" />
<glyph unicode="&#x1eb9;" horiz-adv-x="483" d="M454 115q-24 -55 -72 -90t-124 -35q-65 0 -114.5 30.5t-77.5 87t-28 133.5q0 85 31 145t84 92t117 32q88 0 137.5 -55.5t49.5 -142.5q0 -25 -4 -51l-7 -6h-281q6 -90 48.5 -134t108.5 -44q39 0 68 12t57 34zM164 285v-4l170 7q1 12 1.5 22.5t0.5 21.5q0 68 -15.5 107 t-57.5 39q-45 0 -72 -50.5t-27 -142.5zM331 -138q0 -32 -22.5 -51.5t-55.5 -19.5q-30 0 -48.5 16.5t-18.5 43.5q0 31 23.5 50.5t55.5 19.5q29 0 47.5 -16t18.5 -43z" />
<glyph unicode="&#x1ebc;" horiz-adv-x="568" d="M413 809q9 11 21 26t23 30l10 -3q2 -12 2 -25q-3 -38 -22 -68t-55 -30q-28 0 -62.5 10.5t-66 23t-51.5 17.5q-10 -11 -21.5 -26t-22.5 -30l-10 4q-3 13 -3 25q3 37 22.5 67t55.5 30q28 0 61.5 -11t65 -23t53.5 -17zM520 0h-472l-2 13l52 11q13 4 17 11t4 21v561l-73 20 l1 13h465q5 -32 5 -72q0 -71 -15 -122h-9l-73 162q-21 0 -42.5 0.5t-42.5 0.5h-91v-277l186 10l-2 -50l-184 9v-279h95h44.5h44.5l73 166h9q16 -52 16 -124q0 -41 -6 -74z" />
<glyph unicode="&#x1ebd;" horiz-adv-x="483" d="M356 659q10 11 22 26t22 30l10 -3q2 -12 2 -25q-3 -38 -21.5 -68t-54.5 -30q-29 0 -63.5 10.5t-66 23t-50.5 17.5q-10 -11 -22 -26t-22 -30l-10 4q-3 13 -3 25q3 37 22 67t55 30q28 0 61.5 -11t65 -23t53.5 -17zM454 115q-24 -55 -72 -90t-124 -35q-65 0 -114.5 30.5 t-77.5 87t-28 133.5q0 85 31 145t84 92t117 32q88 0 137.5 -55.5t49.5 -142.5q0 -25 -4 -51l-7 -6h-281q6 -90 48.5 -134t108.5 -44q39 0 68 12t57 34zM164 285v-4l170 7q1 12 1.5 22.5t0.5 21.5q0 68 -15.5 107t-57.5 39q-45 0 -72 -50.5t-27 -142.5z" />
<glyph unicode="&#x1eca;" horiz-adv-x="363" d="M317 0h-268l-2 13l51 11q13 4 17 11t4 21v561l-74 20l2 13h268l1 -13l-50 -11q-14 -4 -18 -11t-4 -20v-561l74 -21zM256 -138q0 -32 -22.5 -51.5t-56.5 -19.5q-29 0 -47.5 16.5t-18.5 43.5q0 31 23.5 50.5t55.5 19.5q29 0 47.5 -16t18.5 -43z" />
<glyph unicode="&#x1ecb;" horiz-adv-x="288" d="M218 655q0 -31 -22.5 -50.5t-55.5 -19.5q-30 0 -48.5 16t-18.5 44q0 30 23.5 50t55.5 20q29 0 47.5 -16.5t18.5 -43.5zM272 0h-247l-2 12l44 11q13 5 17 11.5t4 20.5v404l-64 10l-1 12q24 7 55.5 13.5t64 10.5t58.5 5l7 -7v-470l65 -21zM220 -138q0 -32 -22.5 -51.5 t-55.5 -19.5q-30 0 -48.5 16.5t-18.5 43.5q0 31 23.5 50.5t55.5 19.5q29 0 47.5 -16t18.5 -43z" />
<glyph unicode="&#x1ecc;" horiz-adv-x="660" d="M614 329q0 -101 -37 -177.5t-102 -119t-150 -42.5q-86 0 -150.5 41t-100 116t-35.5 177t38 177.5t103.5 117t148.5 41.5t147.5 -41t101 -115t36.5 -175zM173 324q-1 -146 40 -223.5t114 -77.5q74 0 113 81.5t40 224.5q0 143 -39 221t-113 78q-75 0 -115 -79.5t-40 -224.5 zM398 -138q0 -32 -22.5 -51.5t-55.5 -19.5q-30 0 -48.5 16.5t-18.5 43.5q0 31 23.5 50.5t55.5 19.5q29 0 47.5 -16t18.5 -43z" />
<glyph unicode="&#x1ecd;" horiz-adv-x="527" d="M490 260q0 -80 -28.5 -141t-79.5 -95t-121 -34q-67 0 -117 29.5t-78 85t-28 134.5q0 85 29.5 145.5t81.5 93t120 32.5q66 0 115.5 -30.5t77.5 -87t28 -132.5zM164 255q0 -122 24 -177.5t76 -55.5t76 57t24 169q0 119 -24 174.5t-74 55.5t-76 -54t-26 -169zM336 -138 q0 -32 -22.5 -51.5t-56.5 -19.5q-29 0 -47.5 16.5t-18.5 43.5q0 31 23.5 50.5t55.5 19.5q29 0 47.5 -16t18.5 -43z" />
<glyph unicode="&#x1ee4;" horiz-adv-x="692" d="M588 223q0 -115 -63 -174t-171 -59q-67 0 -121.5 26t-86.5 78.5t-32 130.5v392l-74 20l2 13h268l1 -13l-50 -11q-14 -4 -18 -11t-4 -20v-363q0 -97 43 -147.5t113 -50.5q67 0 112.5 48t45.5 145v390l-84 20l2 13h198l1 -13l-82 -20v-394zM423 -138q0 -32 -22.5 -51.5 t-55.5 -19.5q-30 0 -48.5 16.5t-18.5 43.5q0 31 23.5 50.5t55.5 19.5q29 0 47.5 -16t18.5 -43z" />
<glyph unicode="&#x1ee5;" d="M575 44q-14 -20 -39 -37t-62 -17q-43 0 -68 28t-25 71v6q-23 -41 -62 -73t-99 -32q-67 0 -103.5 40t-36.5 112v317l-64 10l-1 12q24 7 55.5 13.5t64 10.5t58.5 5l7 -7v-337q0 -96 81 -97q59 1 100 60v330l-65 10l-1 12q24 7 56 13.5t64 10.5t58 5l8 -7v-388 q0 -36 9.5 -51.5t30.5 -15.5q15 0 29 5zM364 -138q0 -32 -22.5 -51.5t-55.5 -19.5q-30 0 -48.5 16.5t-18.5 43.5q0 31 23.5 50.5t55.5 19.5q29 0 47.5 -16t18.5 -43z" />
<glyph unicode="&#x1ef2;" horiz-adv-x="643" d="M436 724l-8 -9q-55 15 -98.5 35.5t-68.5 44t-25 46.5t17.5 34t45.5 11q7 0 12 -0.5t10 -0.5q17 -32 48.5 -76t66.5 -85zM457 0h-268l-2 13l51 11q13 4 17 11t4 21v187l-176 341q-10 18 -18.5 27t-23.5 15l-41 11l2 13h277l2 -13l-76 -22l159 -344l158 345l-74 21l2 13 h192l1 -13q-18 -6 -36 -14q-20 -11 -35 -29.5t-30 -47.5l-158 -303v-209l74 -21z" />
<glyph unicode="&#x1ef3;" horiz-adv-x="529" d="M368 573l-8 -9q-55 15 -98.5 36t-68.5 44.5t-25 46.5q0 22 17.5 33t45.5 11q7 0 12 -0.5t10 -0.5q17 -31 48.5 -75.5t66.5 -85.5zM119 -195q-36 0 -58 18.5t-22 47.5q0 11 3 20.5t7 16.5q12 -5 32 -9.5t42 -4.5q45 0 86.5 25.5t65.5 76.5h-53l-149 429q-8 24 -17 36 t-26 21l-30 6l2 12h255l1 -12l-66 -21l115 -373l117 375l-66 19l1 12h168l2 -12l-36 -8q-18 -7 -27 -21t-17 -37l-133 -396q-20 -60 -47.5 -110t-64 -80.5t-85.5 -30.5z" />
<glyph unicode="&#x1ef8;" horiz-adv-x="643" d="M435 809q10 11 22 26t22 30l10 -3q2 -12 2 -25q-3 -38 -21.5 -68t-54.5 -30q-29 0 -63.5 10.5t-66 23t-50.5 17.5q-10 -11 -22 -26t-22 -30l-10 4q-3 13 -3 25q3 37 22 67t55 30q28 0 61.5 -11t65 -23t53.5 -17zM457 0h-268l-2 13l51 11q13 4 17 11t4 21v187l-176 341 q-10 18 -18.5 27t-23.5 15l-41 11l2 13h277l2 -13l-76 -22l159 -344l158 345l-74 21l2 13h192l1 -13q-18 -6 -36 -14q-20 -11 -35 -29.5t-30 -47.5l-158 -303v-209l74 -21z" />
<glyph unicode="&#x1ef9;" horiz-adv-x="529" d="M366 659q10 11 22 26t22 30l10 -3q2 -12 2 -25q-3 -38 -21.5 -68t-54.5 -30q-29 0 -63.5 10.5t-66 23t-50.5 17.5q-10 -11 -22 -26t-22 -30l-10 4q-3 13 -3 25q3 37 22 67t55 30q28 0 61.5 -11t65 -23t53.5 -17zM119 -195q-36 0 -58 18.5t-22 47.5q0 11 3 20.5t7 16.5 q12 -5 32 -9.5t42 -4.5q45 0 86.5 25.5t65.5 76.5h-53l-149 429q-8 24 -17 36t-26 21l-30 6l2 12h255l1 -12l-66 -21l115 -373l117 375l-66 19l1 12h168l2 -12l-36 -8q-18 -7 -27 -21t-17 -37l-133 -396q-20 -60 -47.5 -110t-64 -80.5t-85.5 -30.5z" />
<glyph unicode="&#x2013;" horiz-adv-x="526" d="M36 250v34h454v-34h-454z" />
<glyph unicode="&#x2014;" horiz-adv-x="804" d="M36 250v34h732v-34h-732z" />
<glyph unicode="&#x2018;" horiz-adv-x="235" d="M52 492q0 36 17 74.5t45 72.5t60 56l9 -8q-21 -31 -37 -68t-22 -74q22 -3 35.5 -17.5t13.5 -37.5q0 -30 -18 -47.5t-43 -17.5q-28 0 -44 19t-16 48z" />
<glyph unicode="&#x2019;" horiz-adv-x="235" d="M183 628q0 -35 -17 -74t-44.5 -73t-59.5 -56l-10 9q21 30 37 67t22 74q-22 3 -35 17.5t-13 37.5q0 30 17.5 47.5t43.5 17.5q27 0 43 -19t16 -48z" />
<glyph unicode="&#x201a;" horiz-adv-x="235" d="M183 44q0 -35 -17 -74t-44.5 -73t-59.5 -56l-10 9q21 30 37 67t22 74q-22 3 -35 17.5t-13 37.5q0 30 17.5 47.5t43.5 17.5q27 0 43 -19t16 -48z" />
<glyph unicode="&#x201c;" horiz-adv-x="398" d="M52 492q0 36 17 74.5t45 72.5t60 56l9 -8q-21 -31 -37 -68t-22 -74q22 -3 35.5 -17.5t13.5 -37.5q0 -30 -18 -47.5t-43 -17.5q-28 0 -44 19t-16 48zM215 492q0 36 17 74.5t44.5 72.5t59.5 56l10 -8q-22 -31 -38 -68t-21 -74q21 -3 34.5 -17.5t13.5 -37.5 q0 -30 -17.5 -47.5t-43.5 -17.5q-27 0 -43 19t-16 48z" />
<glyph unicode="&#x201d;" horiz-adv-x="398" d="M346 628q0 -35 -17.5 -74t-45 -73t-59.5 -56l-10 9q22 30 38 67t21 74q-21 3 -34.5 17.5t-13.5 37.5q0 30 17.5 47.5t43.5 17.5q27 0 43.5 -19t16.5 -48zM183 628q0 -35 -17 -74t-44.5 -73t-59.5 -56l-10 9q21 30 37 67t22 74q-22 3 -35 17.5t-13 37.5q0 30 17.5 47.5 t43.5 17.5q27 0 43 -19t16 -48z" />
<glyph unicode="&#x201e;" horiz-adv-x="398" d="M346 44q0 -35 -17.5 -74t-45 -73t-59.5 -56l-10 9q22 30 38 67t21 74q-21 3 -34.5 17.5t-13.5 37.5q0 30 17.5 47.5t43.5 17.5q27 0 43.5 -19t16.5 -48zM183 44q0 -35 -17 -74t-44.5 -73t-59.5 -56l-10 9q21 30 37 67t22 74q-22 3 -35 17.5t-13 37.5q0 30 17.5 47.5 t43.5 17.5q27 0 43 -19t16 -48z" />
<glyph unicode="&#x2020;" horiz-adv-x="502" d="M259 -10h-16l-69 125l64 304l-175 -50l-3 2q-4 24 -6 57t-2 61l8 6l179 -51l-60 201l2 3q29 3 64 5t72 3l6 -7l-60 -205l177 51l3 -2q3 -25 5 -57t2 -61l-8 -6l-178 50l64 -304z" />
<glyph unicode="&#x2021;" horiz-adv-x="522" d="M62 253l8 5l181 -55q-9 22 -18.5 49t-16 48t-6.5 27q0 7 6.5 26.5t15.5 44t18 46.5l-177 -52l-3 2q-4 24 -6 58.5t-2 64.5l8 6l182 -56l-68 178l2 3q29 3 69 5t77 3l6 -7l-69 -182l181 56l3 -2q3 -25 5 -59t2 -64l-8 -6l-180 52q9 -22 18 -46.5t15.5 -44t6.5 -26.5 q0 -6 -6.5 -27t-16 -47.5t-18.5 -49.5l179 55l3 -2q3 -24 5 -58.5t2 -64.5l-8 -5l-181 52l67 -175l-2 -3q-29 -3 -69 -5t-76 -2l-7 6l67 179l-178 -52l-3 2q-4 24 -6 58t-2 65z" />
<glyph unicode="&#x2022;" horiz-adv-x="427" d="M209 164q-52 0 -84 33t-33 79q-1 36 16.5 67t47.5 50t67 19q48 0 79.5 -31t32.5 -80q1 -37 -14.5 -68t-44 -50t-67.5 -19z" />
<glyph unicode="&#x2026;" horiz-adv-x="574" d="M461 -10q-26 0 -42.5 16t-16.5 41q0 27 19 45.5t46 18.5q24 0 39.5 -15t15.5 -39q0 -27 -17 -47t-44 -20zM286 -10q-26 0 -42.5 16t-16.5 41q0 27 19 45.5t46 18.5q24 0 39.5 -15t15.5 -39q0 -27 -17 -47t-44 -20zM111 -10q-26 0 -42.5 16t-16.5 41q0 27 19 45.5t46 18.5 q24 0 39.5 -15t15.5 -39q0 -27 -17 -47t-44 -20z" />
<glyph unicode="&#x2030;" horiz-adv-x="1370" d="M652 660h69l-399 -670h-69zM402 475q0 -62 -23.5 -104t-63 -64t-86.5 -22q-72 0 -121 47.5t-49 138.5q0 61 24 102t63.5 62.5t86.5 21.5q46 0 84.5 -20t61.5 -60.5t23 -101.5zM232 308q34 0 52 43.5t18 123.5q0 159 -70 159q-72 0 -73 -163q0 -81 19 -122t54 -41z M916 183q0 -62 -23.5 -104t-63 -64t-86.5 -22q-72 0 -121 47.5t-49 138.5q0 61 24 102t63.5 62.5t86.5 21.5q46 0 84.5 -20t61.5 -60.5t23 -101.5zM1311 177q0 -61 -23.5 -103.5t-63 -64t-86.5 -21.5q-72 0 -121 47t-49 139q0 60 24 101.5t63.5 63t86.5 21.5 q46 0 84.5 -20.5t61.5 -61t23 -101.5zM746 16q34 0 52 43.5t18 123.5q0 159 -70 159q-72 0 -73 -163q0 -81 19 -122t54 -41zM1141 11q34 0 52 43.5t18 122.5q0 160 -70 160q-72 0 -73 -163q0 -81 19 -122t54 -41z" />
<glyph unicode="&#x2039;" horiz-adv-x="340" d="M267 61l-12 -8q-46 52 -95 100t-85 77l-3 5v33q47 41 96 90t89 94l11 -8q-22 -48 -49 -98t-55 -97q24 -36 51.5 -86t51.5 -102z" />
<glyph unicode="&#x203a;" horiz-adv-x="340" d="M268 240q-46 -41 -95.5 -90t-88.5 -93l-12 7q22 48 49 98t55 97q-24 36 -51.5 86t-50.5 102l11 8q46 -52 95.5 -100t85.5 -76l2 -5v-34z" />
<glyph unicode="&#x2044;" horiz-adv-x="248" d="M290 660h68l-399 -670h-69z" />
<glyph unicode="&#x2070;" horiz-adv-x="431" d="M387 555q0 -62 -23.5 -104t-63 -64t-86.5 -22q-72 0 -121 47.5t-49 138.5q0 61 24 102t63.5 62.5t86.5 21.5q46 0 84.5 -20t61.5 -60.5t23 -101.5zM217 388q34 0 52 43.5t18 123.5q0 159 -70 159q-72 0 -73 -163q0 -81 19 -122t54 -41z" />
<glyph unicode="&#x2071;" horiz-adv-x="231" d="M112 790q-24 0 -39 12.5t-15 33.5q0 22 19 37.5t46 15.5q24 0 39 -12.5t15 -33.5q0 -24 -18.5 -38.5t-46.5 -14.5zM215 372h-191l-1 9l32 8q10 4 13.5 8.5t3.5 14.5v288l-49 8v8q28 8 68 14t71 7l5 -5v-336l49 -15z" />
<glyph unicode="&#x2074;" horiz-adv-x="407" d="M44 485l208 252l54 -5v-246h57l-4 -34h-53v-80h-93v80h-162zM77 486h136v173z" />
<glyph unicode="&#x2075;" horiz-adv-x="372" d="M328 464q0 -47 -46 -73t-111 -26q-55 0 -91 16.5t-36 44.5q0 18 18.5 30.5t44.5 15.5l4 -1q-3 -7 -3 -14q0 -31 15 -50t43 -19q29 0 46 17.5t17 46.5q0 51 -42.5 74t-112.5 24l-7 5l4 175h240q0 -27 -3.5 -55.5t-9.5 -52.5h-7q-4 31 -10.5 40.5t-27.5 9.5h-144l-2 -105 q16 2 34 2q83 0 135 -27.5t52 -77.5z" />
<glyph unicode="&#x2076;" horiz-adv-x="413" d="M369 484q0 -53 -44.5 -86t-116.5 -33q-75 0 -119.5 39t-44.5 107q0 64 34.5 113t98 79t150.5 34l2 -9q-73 -20 -118.5 -62t-59.5 -106q19 13 44.5 20t49.5 7q54 0 89 -26.5t35 -76.5zM144 499q0 -51 17 -81t50 -30q29 0 46 23t17 58q0 42 -18 65t-50 23q-36 0 -60 -20 q-2 -19 -2 -38z" />
<glyph unicode="&#x2077;" horiz-adv-x="358" d="M208 372h-93q2 60 25.5 115t61.5 101.5t83 83.5h-193q-17 0 -24.5 -9.5t-12.5 -42.5h-8q-1 21 1.5 53.5t7.5 56.5h252l6 -56q-31 -32 -55 -79.5t-37.5 -104.5t-13.5 -118z" />
<glyph unicode="&#x2078;" horiz-adv-x="397" d="M353 462q0 -41 -44 -69t-116 -28q-61 0 -105 23.5t-44 62.5q0 32 28 55t75 35q-33 17 -58.5 39.5t-25.5 60.5q0 40 40.5 68t105.5 28q58 0 93 -23.5t35 -59.5q0 -34 -27.5 -54t-58.5 -31q25 -13 48.5 -27t38.5 -33t15 -47zM156 663q0 -29 20.5 -47.5t48.5 -33.5 q16 14 28 33.5t12 44.5q0 24 -14 39t-39 15t-40.5 -15t-15.5 -36zM131 448q0 -28 17.5 -44t46.5 -16q26 0 44 13.5t18 35.5q0 33 -25 53t-58 37q-19 -16 -31 -36t-12 -43z" />
<glyph unicode="&#x2079;" horiz-adv-x="413" d="M44 618q0 53 44.5 86t116.5 33q75 0 119.5 -39t44.5 -107q0 -63 -34.5 -112.5t-98 -79t-149.5 -34.5l-2 9q72 20 117.5 62t59.5 106q-19 -13 -44.5 -20t-49.5 -7q-54 0 -89 26.5t-35 76.5zM139 634q0 -43 18 -66t51 -23q35 0 59 20q2 19 2 39q0 51 -17 80.5t-50 29.5 q-29 0 -46 -23t-17 -57z" />
<glyph unicode="&#x207f;" horiz-adv-x="462" d="M215 372h-191l-1 9l32 8q10 4 13.5 8.5t3.5 14.5v288l-49 8v8q28 8 68 14t71 7l5 -5v-72q20 32 52.5 54.5t76.5 22.5q50 0 76 -28.5t26 -78.5v-234l49 -15l-1 -9h-192l-1 9l33 8q10 4 13 8.5t3 14.5v199q0 67 -60 67q-21 0 -42 -11t-33 -30v-241l49 -15z" />
<glyph unicode="&#x2080;" horiz-adv-x="431" d="M387 83q0 -62 -23.5 -104t-63 -64t-86.5 -22q-72 0 -121 47.5t-49 138.5q0 61 24 102t63.5 62.5t86.5 21.5q46 0 84.5 -20t61.5 -60.5t23 -101.5zM217 -84q34 0 52 43.5t18 123.5q0 159 -70 159q-72 0 -73 -163q0 -81 19 -122t54 -41z" />
<glyph unicode="&#x2081;" horiz-adv-x="289" d="M245 -100h-200l-1 9l42 7q9 2 11.5 5.5t2.5 11.5v292l-55 3v8l143 29l5 -4v-341l52 -11v-9z" />
<glyph unicode="&#x2082;" horiz-adv-x="365" d="M57 -100l-7 47q73 54 118 99.5t45 95.5q0 30 -18.5 48.5t-51.5 18.5q-31 0 -54.5 -17t-36.5 -45l-8 2q12 53 53.5 84.5t96.5 31.5q56 0 87.5 -28.5t31.5 -72.5q0 -40 -30 -73.5t-78.5 -65.5t-105.5 -66h164q21 0 31 10.5t19 40.5l8 -1q-1 -23 -5 -54.5t-10 -54.5h-249z " />
<glyph unicode="&#x2083;" horiz-adv-x="376" d="M332 -9q0 -29 -22 -51t-57.5 -34.5t-77.5 -12.5q-35 0 -64.5 7t-48 20t-18.5 33q0 17 18.5 29t44.5 16l4 -2q-3 -5 -3 -11q0 -32 15 -50.5t45 -18.5q28 0 46 17.5t18 49.5q0 39 -28.5 58.5t-65.5 19.5q-6 0 -12 -0.5t-12 -1.5l-4 13q52 8 81 28.5t29 53.5q0 24 -17.5 39 t-46.5 15q-28 0 -52.5 -16t-38.5 -43l-7 2q11 52 52.5 83t96.5 31q50 0 81.5 -23.5t30.5 -61.5q0 -29 -17 -49.5t-45.5 -32.5t-60.5 -18q58 -3 97 -26t39 -63z" />
<glyph unicode="&#x2084;" horiz-adv-x="407" d="M44 13l208 252l54 -5v-246h57l-4 -34h-53v-80h-93v80h-162zM77 14h136v173z" />
<glyph unicode="&#x2085;" horiz-adv-x="372" d="M328 -8q0 -47 -46 -73t-111 -26q-55 0 -91 16.5t-36 44.5q0 18 18.5 30.5t44.5 15.5l4 -1q-3 -7 -3 -14q0 -31 15 -50t43 -19q29 0 46 17.5t17 46.5q0 51 -42.5 74t-112.5 24l-7 5l4 175h240q0 -27 -3.5 -55.5t-9.5 -52.5h-7q-4 31 -10.5 40.5t-27.5 9.5h-144l-2 -105 q16 2 34 2q83 0 135 -27.5t52 -77.5z" />
<glyph unicode="&#x2086;" horiz-adv-x="413" d="M369 12q0 -53 -44.5 -86t-116.5 -33q-75 0 -119.5 39t-44.5 107q0 64 34.5 113t98 79t150.5 34l2 -9q-73 -20 -118.5 -62t-59.5 -106q19 13 44.5 20t49.5 7q54 0 89 -26.5t35 -76.5zM144 27q0 -51 17 -81t50 -30q29 0 46 23t17 58q0 42 -18 65t-50 23q-36 0 -60 -20 q-2 -19 -2 -38z" />
<glyph unicode="&#x2087;" horiz-adv-x="358" d="M208 -100h-93q2 60 25.5 115t61.5 101.5t83 83.5h-193q-17 0 -24.5 -9.5t-12.5 -42.5h-8q-1 21 1.5 53.5t7.5 56.5h252l6 -56q-31 -32 -55 -79.5t-37.5 -104.5t-13.5 -118z" />
<glyph unicode="&#x2088;" horiz-adv-x="397" d="M353 -10q0 -41 -44 -69t-116 -28q-61 0 -105 23.5t-44 62.5q0 32 28 55t75 35q-33 17 -58.5 39.5t-25.5 60.5q0 40 40.5 68t105.5 28q58 0 93 -23.5t35 -59.5q0 -34 -27.5 -54t-58.5 -31q25 -13 48.5 -27t38.5 -33t15 -47zM156 191q0 -29 20.5 -47.5t48.5 -33.5 q16 14 28 33.5t12 44.5q0 24 -14 39t-39 15t-40.5 -15t-15.5 -36zM131 -24q0 -28 17.5 -44t46.5 -16q26 0 44 13t18 36q0 33 -25 53t-58 37q-19 -16 -31 -36t-12 -43z" />
<glyph unicode="&#x2089;" horiz-adv-x="413" d="M44 146q0 53 44.5 86t116.5 33q75 0 119.5 -39t44.5 -107q0 -63 -34.5 -112.5t-98 -79t-149.5 -34.5l-2 9q72 20 117.5 62t59.5 106q-19 -13 -44.5 -20t-49.5 -7q-54 0 -89 26.5t-35 76.5zM139 162q0 -43 18 -66t51 -23q35 0 59 20q2 19 2 39q0 51 -17 80.5t-50 29.5 q-29 0 -46 -23t-17 -57z" />
<glyph unicode="&#x2090;" horiz-adv-x="412" d="M405 -66q-10 -15 -28.5 -28t-49.5 -13q-32 0 -51.5 17t-21.5 45q-15 -24 -44 -43t-72 -19q-42 0 -70 22.5t-28 60.5q0 57 60 85t154 31v84q0 66 -49 66q-28 0 -46 -19t-18 -47q0 -16 4 -36q-23 -9 -44 -9t-33.5 8.5t-12.5 26.5q0 25 22 47.5t58 37t80 14.5q67 0 102 -30 t35 -93q0 -8 -0.5 -31.5t-1 -51t-0.5 -49.5v-27q0 -47 30 -47q6 0 11.5 1t10.5 2zM140 -8q0 -26 14.5 -38.5t34.5 -12.5q21 0 39 11t26 28v94q-50 -4 -82 -24t-32 -58z" />
<glyph unicode="&#x2091;" horiz-adv-x="387" d="M360 -16q-18 -40 -55.5 -65.5t-97.5 -25.5q-74 0 -121.5 48t-47.5 132q0 60 24 103t65 66t90 23q68 0 106.5 -39.5t38.5 -102.5q0 -19 -3 -36l-6 -5h-215q6 -63 38.5 -93.5t82.5 -30.5q30 0 52 8.5t43 23.5zM138 106v-5l127 6q1 14 1 31q0 48 -11.5 76t-42.5 28 q-34 0 -54 -36t-20 -100z" />
<glyph unicode="&#x2092;" horiz-adv-x="424" d="M387 86q0 -86 -48 -139.5t-129 -53.5q-76 0 -124 47t-48 131q0 91 49.5 142.5t129.5 51.5q76 0 123 -48.5t47 -130.5zM138 83q0 -87 18 -127t57 -40t56.5 40.5t17.5 120.5q0 86 -17.5 125.5t-55.5 39.5q-37 0 -56.5 -38.5t-19.5 -120.5z" />
<glyph unicode="&#x2093;" horiz-adv-x="417" d="M62 209q-11 15 -20 23.5t-24 14.5l-18 3l2 8h199l1 -8l-50 -13l89 -126l67 127l-49 12l1 8h156l1 -8q-1 -2 -13.5 -6t-16.5 -7q-16 -7 -37 -31q-6 -6 -22.5 -25t-37 -43t-38.5 -43l104 -147q9 -12 17.5 -20.5t20.5 -14.5l23 -4l-1 -9h-199l-2 9l50 12l-89 126l-66 -127 l49 -11l-2 -9h-155l-2 9q1 1 15 5.5t17 7.5q15 8 35 30q6 6 22.5 25t37 42.5t38.5 43.5z" />
<glyph unicode="&#x2095;" horiz-adv-x="453" d="M208 -91l-1 -9h-191l-1 9l32 8q10 4 13.5 8.5t3.5 14.5v420l-49 8v8q27 8 68 14.5t71 7.5l5 -5v-205q20 32 52.5 54.5t76.5 22.5q49 0 75 -28.5t26 -78.5v-218h-95v199q0 67 -61 67q-20 0 -41 -11t-33 -30v-241zM438 -95l-78 -5l-114 4l25 9q4 1 8.5 4.5t4.5 6.5 q6 3 15 6t9 10l81 -5l32 -17z" />
<glyph unicode="&#x2096;" horiz-adv-x="440" d="M207 -100h-191l-1 9l32 8q10 4 13.5 8.5t3.5 14.5v420l-49 8v8q27 8 68 14.5t71 7.5l5 -5v-294h60l85 139l-49 12l1 8h172l1 -8l-38 -13q-18 -8 -34.5 -19t-32.5 -27l-41 -47l97 -185q11 -18 21 -28.5t25 -18.5l14 -3l-2 -9h-90q-25 0 -37.5 11.5t-24.5 35.5l-69 130h-58 v-153l49 -15z" />
<glyph unicode="&#x2097;" horiz-adv-x="223" d="M207 -100h-191l-1 9l32 8q10 4 13.5 8.5t3.5 14.5v420l-49 8v8q27 8 68 14.5t71 7.5l5 -5v-469l49 -15z" />
<glyph unicode="&#x2098;" horiz-adv-x="679" d="M215 -100h-191l-1 9l32 8q10 4 13.5 8.5t3.5 14.5v288l-49 8v8q28 8 68 14t71 7l5 -5v-69q20 31 51 52.5t74 21.5q41 0 65.5 -20.5t30.5 -58.5q19 34 52.5 56.5t76.5 22.5q48 0 73 -28.5t25 -78.5v-234l49 -15l-1 -9h-192l-1 9l33 8q10 4 13 8.5t3 14.5v199q0 67 -57 67 q-21 0 -41 -11t-31 -28q1 -4 1 -9v-234l49 -15l-1 -9h-191l-2 9l33 8q10 4 13.5 8.5t3.5 14.5v199q0 67 -58 67q-20 0 -40.5 -10.5t-30.5 -27.5v-244l49 -15z" />
<glyph unicode="&#x2099;" horiz-adv-x="462" d="M215 -100h-191l-1 9l32 8q10 4 13.5 8.5t3.5 14.5v288l-49 8v8q28 8 68 14t71 7l5 -5v-72q20 32 52.5 54.5t76.5 22.5q50 0 76 -28.5t26 -78.5v-234l49 -15l-1 -9h-192l-1 9l33 8q10 4 13 8.5t3 14.5v199q0 67 -60 67q-21 0 -42 -11t-33 -30v-241l49 -15z" />
<glyph unicode="&#x209a;" horiz-adv-x="442" d="M222 -234h-206l-1 9l32 8q10 3 13.5 8t3.5 15v424l-49 8v9q27 8 68 14.5t71 7.5l5 -6v-65q18 28 48 47.5t68 19.5q60 0 94.5 -46.5t34.5 -133.5q0 -65 -23 -107.5t-62 -63.5t-86 -21q-20 0 -38.5 2t-35.5 6v-111l65 -15zM227 210q-22 0 -40.5 -12t-27.5 -31v-230 q14 -6 28.5 -9.5t30.5 -3.5q44 0 65 42.5t21 107.5q0 66 -19 101t-58 35z" />
<glyph unicode="&#x209b;" horiz-adv-x="360" d="M161 -107q-41 0 -69.5 5.5t-39.5 12.5q-6 4 -10 13.5t-4 26.5q0 20 9.5 39.5t20.5 29.5l8 -2q5 -25 11 -44.5t15 -32.5q17 -25 62 -25q29 0 46 14t17 37q0 25 -18.5 42t-45.5 30.5t-54 29t-45 37.5t-18 57q0 49 44.5 75.5t109.5 26.5q45 0 70.5 -8t34.5 -16q5 -4 8.5 -12 t3.5 -22q0 -19 -11 -38t-23 -29l-9 3q-5 25 -10 44t-13 31q-14 24 -53 24q-27 0 -44 -13t-17 -37q0 -25 18.5 -42.5t46.5 -31.5t55.5 -30t46 -38t18.5 -54q0 -53 -45.5 -78t-115.5 -25z" />
<glyph unicode="&#x209c;" horiz-adv-x="288" d="M259 241v-21h-109v-189q0 -73 57 -73q19 0 36.5 8t33.5 21l6 -5q-16 -34 -47 -61.5t-80 -27.5t-75.5 29t-26.5 86v212h-54l-1 9l52 17l91 105l8 -1v-109h109z" />
<glyph unicode="&#x20ac;" horiz-adv-x="648" d="M474 259h-211q16 -90 66 -138t127 -48q43 0 75.5 11.5t59.5 32.5l8 -7q-23 -53 -73.5 -86.5t-127.5 -33.5q-113 0 -186 69t-86 200h-73l4 34h66v21q0 20 2 40h-63l4 34h63q14 83 56.5 144t103.5 94.5t133 33.5q50 0 89 -15.5t61 -40t22 -53.5q0 -22 -16 -34t-40 -12 q-7 0 -14 0.5t-13 1.5q-7 51 -30 83.5t-65 32.5q-63 0 -106 -64t-52 -171h228l-4 -34h-225q0 -6 -1 -13q1 -25 3 -48h219z" />
<glyph unicode="&#x2122;" horiz-adv-x="739" d="M330 650h117l54 -160l56 160h115v-11l-32 -7l16 -209l30 -8v-12h-132l-1 12l35 8l-17 193l-73 -210h-33l-75 210l-16 -193l36 -8v-12h-97v12l35 8l15 209l-34 7zM203 423l36 -8v-12h-134l-1 12l35 8v203h-53l-19 -64h-13v88h235v-88h-13l-16 64h-57v-203z" />
<glyph unicode="&#x2212;" horiz-adv-x="569" d="M485 284h-407v78q34 1 88 1.5t114.5 1t115 1t90.5 0.5l6 -6z" />
<glyph unicode="&#x221e;" horiz-adv-x="853" d="M773 297q0 -53 -21.5 -94t-60 -65t-88.5 -24q-62 0 -103.5 34.5t-72.5 78.5q-32 -51 -78 -82t-105 -31q-49 0 -86 23.5t-57.5 64t-20.5 93.5q0 52 21.5 93t60 65t89.5 24q42 0 74.5 -16.5t57.5 -43t45 -56.5q33 53 79 84.5t104 31.5q75 0 118.5 -51t43.5 -129zM594 405 q-40 0 -72.5 -30t-56.5 -69q32 -50 63.5 -84t71.5 -34q36 0 62 28t26 80q0 50 -26.5 79.5t-67.5 29.5zM165 297q0 -51 27 -80.5t71 -30.5q37 0 70.5 29.5t56.5 67.5q-32 51 -64 85.5t-72 34.5q-37 0 -63 -28t-26 -78z" />
<glyph unicode="&#x2248;" horiz-adv-x="583" d="M169 421q-9 0 -25 -17t-35 -41l-43 21q13 25 29 53t35.5 48t42.5 20q18 0 52 -8t72 -18.5t70 -18t47 -7.5q9 0 25 16.5t36 40.5l42 -21q-12 -25 -28.5 -53t-36 -48t-41.5 -20q-19 0 -53.5 8t-73 18.5t-70.5 18.5t-45 8zM169 197q-9 0 -25 -17t-35 -41l-43 21q13 25 29 53 t35.5 48t42.5 20q18 0 52 -8t72 -18.5t70 -18t47 -7.5q9 0 25 16.5t36 40.5l42 -21q-12 -25 -28.5 -53t-36 -48t-41.5 -20q-19 0 -53.5 8t-73 18.5t-70.5 18.5t-45 8z" />
<glyph unicode="&#x2260;" horiz-adv-x="569" d="M172 70l-44 26l46 84h-96v78q25 0 61.5 1t77.5 1l69 128h-208l-1 78q28 0 69.5 1t89 1.5t94.5 0.5l59 110l8 3l44 -26l-47 -86h92l6 -6l-7 -76h-135l-69 -127q59 0 114 0.5t91 0.5l6 -6l-7 -76h-247l-58 -107z" />
<glyph unicode="&#x2264;" horiz-adv-x="562" d="M479 576v-88l-293 -87l293 -88v-91q-13 3 -44 13.5t-73 25t-87 30.5t-86.5 31t-72 26.5t-42.5 15.5l-1 14v57q11 5 42 15.5t73 25t88 30.5t88 30t73 25t42 15zM475 76h-407v77q34 1 88 2t114.5 1.5t115 1t90.5 0.5l6 -7z" />
<glyph unicode="&#x2265;" horiz-adv-x="562" d="M80 222v88l294 89l-293 86v91q36 -11 90 -29t113.5 -38.5t113 -40t87.5 -32.5l2 -5l1 -66zM487 76h-407v77q35 1 89 2t114 1.5t114.5 1t90.5 0.5l6 -7z" />
<glyph unicode="&#x25fc;" horiz-adv-x="500" d="M0 500h500v-500h-500v500z" />
<glyph unicode="&#x2c7c;" horiz-adv-x="219" d="M102 318q-25 0 -40 12.5t-15 33.5q0 23 19 38t46 15q24 0 39 -12.5t15 -32.5q0 -24 -18 -39t-46 -15zM62 228h1l-49 8l-1 8q28 8 68.5 14t70.5 7l6 -5v-314q0 -73 -31.5 -118.5t-113.5 -67.5l-6 8q27 36 41 77.5t14 111.5v271z" />
<glyph unicode="&#xfb00;" horiz-adv-x="662" d="M282 0h-257l-2 12l44 11q13 5 17 11.5t4 20.5v394h-70l-2 12l72 19v-1q3 62 29.5 110.5t74 77t114.5 28.5q41 0 78 -16.5t60 -42.5q26 28 62 44t82 16q39 0 69.5 -14t48 -36.5t17.5 -47.5q0 -24 -18 -34.5t-42 -10.5q-13 0 -25 3q-2 50 -18.5 79t-44.5 29 q-36 0 -55.5 -29.5t-20.5 -90.5q1 -12 2.5 -27.5t2.5 -38.5h146v-28h-145v-417l85 -20l-2 -12h-267l-1 12l43 11q13 5 17.5 11.5t4.5 19.5v394h-177v-416l75 -21zM203 535q0 -12 2 -24.5t3 -32.5h167l10 2q1 29 7 55q-2 58 -26 93t-66 35q-45 0 -71 -32t-26 -96z" />
<glyph unicode="&#xfb01;" horiz-adv-x="588" d="M285 0h-257l-2 12l44 11q13 5 17 11.5t4 20.5v394h-70l-2 12l72 18q3 61 30 110t75.5 77.5t116.5 28.5q76 0 120 -29.5t44 -65.5q0 -22 -18.5 -32.5t-46.5 -10.5q-7 0 -14.5 0.5t-15.5 2.5q-2 46 -21.5 74.5t-58.5 28.5q-65 0 -82 -62q-7 -24 -8 -52.5t-1 -70.5h176 q22 9 56.5 17.5t56.5 9.5l8 -7v-465l65 -21l-2 -12h-247l-1 12l43 11q13 5 17.5 11.5t4.5 20.5v394h-177v-416l75 -21z" />
<glyph unicode="&#xfb02;" horiz-adv-x="585" d="M282 0h-257l-2 12l44 11q13 5 17 11.5t4 20.5v394h-70l-2 12l72 19v-1q3 61 29.5 110t74.5 77.5t116 28.5q32 0 61 -9t51 -23q20 6 40.5 10.5t36.5 5.5l8 -7v-639l65 -21l-2 -12h-247l-1 12l43 11q13 5 17.5 11.5t4.5 20.5v394h-177v-416l75 -21zM203 535q0 -12 2 -24.5 t3 -32.5h177v82q0 46 -22 74.5t-62 28.5q-45 0 -71.5 -32t-26.5 -96z" />
<glyph unicode="&#xfb03;" horiz-adv-x="891" d="M282 0h-257l-2 12l44 11q13 5 17 11.5t4 20.5v394h-70l-2 12l72 18q3 62 29.5 110.5t74 77t114.5 28.5q43 0 80.5 -17.5t60.5 -44.5q28 29 68 45.5t92 16.5q75 0 119.5 -29.5t44.5 -65.5q0 -22 -18.5 -32.5t-46.5 -10.5q-8 0 -15.5 0.5t-14.5 2.5q-2 46 -22 74.5 t-59 28.5q-64 0 -82 -62q-6 -24 -7.5 -52.5t-1.5 -70.5h177q22 11 56 20.5t57 11.5l7 -7v-470l75 -21l-1 -12h-257l-2 12l44 11q13 5 17 11.5t4 20.5v394h-176v-416l75 -21l-2 -12h-257l-1 12l43 11q13 5 17.5 11.5t4.5 20.5v394h-177v-416l75 -21zM203 535q0 -12 2 -24.5 t3 -32.5h177q1 29 8 56q-2 58 -26.5 93.5t-66.5 35.5q-45 0 -71 -32t-26 -96z" />
<glyph unicode="&#xfb04;" horiz-adv-x="881" d="M272 0h-247l-2 12l44 11q13 5 17 11.5t4 20.5v394h-70l-2 12l72 19v-1q3 62 29.5 110.5t74 77t114.5 28.5q43 0 80.5 -17.5t59.5 -44.5q28 29 68 45.5t90 16.5q32 0 61.5 -9t51.5 -23q20 6 40 10.5t37 5.5l7 -7v-639l65 -21l-1 -12h-247l-2 12l44 11q13 5 17 11.5t4 20.5 v394h-176v-416l65 -21l-2 -12h-247l-1 12l43 11q13 5 17.5 11.5t4.5 20.5v394h-177v-416l65 -21zM203 535q0 -12 2 -24.5t3 -32.5h177q1 28 7 55q-2 58 -25.5 94t-66.5 36q-45 0 -71 -32t-26 -96zM500 535q0 -12 2 -24.5t2 -32.5h177v94q-3 41 -24.5 66t-59.5 25 q-45 0 -71 -32t-26 -96z" />
<glyph unicode="&#xfb06;" horiz-adv-x="812" d="M291 460v12q-19 8 -42 8q-39 0 -62.5 -19t-23.5 -52q0 -30 17.5 -52t45 -39.5t58.5 -35t58.5 -38t45 -47.5t17.5 -64q0 -48 -27 -80t-74 -47.5t-106 -15.5q-54 0 -91 7.5t-51 17.5q-8 6 -13 19.5t-5 36.5q0 28 11.5 54.5t26.5 41.5l10 -3q7 -36 14 -63t19 -45 q21 -34 82 -34q39 0 61.5 20t22.5 52q0 30 -17.5 51t-44 38t-57 33.5t-57 37t-43.5 48.5t-17 68q0 44 26 75.5t70.5 48t99.5 16.5q24 0 47 -4q6 57 34 99.5t73.5 66t103.5 23.5q67 0 108 -34.5t41 -91.5q0 -30 -14 -53t-30 -35h168v-33h-145v-267q0 -104 75 -104 q25 0 48.5 11.5t44.5 30.5l8 -7q-14 -31 -36.5 -59t-54.5 -45.5t-73 -17.5q-64 0 -98 40.5t-34 119.5v298h-61l-2 12q44 15 67.5 44t23.5 68q0 36 -21 58t-56 22q-34 0 -64.5 -18.5t-52 -52.5t-27.5 -81q37 -12 59.5 -34t22.5 -51q0 -18 -12 -29t-31 -11q-27 0 -45.5 24 t-20.5 61z" />
<glyph horiz-adv-x="1048" d="M731 0h-247l-1 12l43 11q13 5 17.5 11.5t4.5 20.5v595q-75 -15 -126.5 -53.5t-71.5 -96.5q42 -13 68 -39.5t26 -60.5q0 -27 -15 -42t-40 -15q-33 0 -53.5 28t-20.5 75q0 12 1 24q-14 10 -36 10q-53 0 -84.5 -51.5t-31.5 -140.5q0 -105 43 -158t115 -53q36 0 67 13t58 33 l7 -8q-13 -33 -37.5 -61.5t-62.5 -46t-92 -17.5q-66 0 -116.5 30.5t-79 87.5t-28.5 136q0 82 32 141.5t87 92t123 32.5q22 0 43 -4q16 57 61 99.5t112.5 66t153.5 23.5h10l8 -7v-285q26 44 68.5 75.5t98.5 31.5q66 0 99.5 -39.5t33.5 -110.5v-327l65 -21l-1 -12h-247l-2 12 l44 11q13 5 17 11.5t4 20.5v280q0 46 -19 71t-62 25q-27 0 -55 -16.5t-44 -44.5v-337l65 -21z" />
<glyph horiz-adv-x="846" d="M492 652q-52 0 -94 -40.5t-54 -109.5q45 -12 72.5 -39.5t27.5 -62.5q0 -26 -15 -41.5t-40 -15.5q-32 0 -52 27.5t-22 73.5q-1 14 0 27q-15 9 -35 9q-52 0 -84 -51.5t-32 -140.5q0 -105 43 -158t115 -53q36 0 67 13t58 33l7 -8q-13 -33 -37.5 -61.5t-62.5 -46t-92 -17.5 q-66 0 -116.5 30.5t-79 87.5t-28.5 136q0 82 32 141.5t87 92t123 32.5q19 0 38 -3q13 85 72 136.5t143 51.5q72 0 112.5 -35t40.5 -91q0 -28 -12 -51t-28 -37h164v-33h-145v-267q0 -104 75 -104q25 0 48.5 11.5t44.5 30.5l8 -7q-14 -31 -36.5 -59t-54.5 -45.5t-73 -17.5 q-64 0 -98 40.5t-34 119.5v298h-61l-2 12q44 15 67.5 44t23.5 66t-21 59.5t-60 22.5z" />
<glyph horiz-adv-x="1008" d="M357 375q-27 0 -46.5 23t-19.5 57v13q-17 12 -44 12q-38 0 -61 -19t-23 -54q0 -29 17.5 -51t45 -39.5t58.5 -35t58.5 -37.5t45 -47t17.5 -64q0 -48 -27 -80t-74 -47.5t-106 -15.5q-54 0 -91 7.5t-51 17.5q-8 6 -13 19.5t-5 36.5q0 28 11.5 54.5t26.5 41.5l10 -3 q7 -36 14 -63t19 -45q21 -34 82 -34q39 0 61.5 20t22.5 52q0 30 -17.5 51t-44 38t-57 33.5t-57 37t-43.5 48.5t-17 68q0 45 26.5 76t71 47.5t98.5 16.5q28 0 52 -5q15 56 58.5 98.5t109 67t145.5 24.5h10l8 -7v-285q26 44 68.5 75.5t98.5 31.5q66 0 99.5 -39.5t33.5 -110.5 v-327l65 -21l-1 -12h-247l-2 12l44 11q13 5 17 11.5t4 20.5v280q0 46 -19 71t-62 25q-27 0 -55 -16.5t-44 -44.5v-337l65 -21l-2 -12h-247l-1 12l43 11q13 5 17.5 11.5t4.5 20.5v594q-70 -16 -118.5 -55t-66.5 -95q35 -12 56 -34t21 -50q0 -18 -12 -29t-31 -11z" />
<glyph horiz-adv-x="412" d="M405 406q-10 -15 -28.5 -28t-49.5 -13q-32 0 -51.5 17t-21.5 45q-15 -24 -44 -43t-72 -19q-42 0 -70 22.5t-28 60.5q0 57 60 85t154 31v84q0 66 -49 66q-28 0 -46 -19t-18 -47q0 -16 4 -36q-23 -9 -44 -9t-33.5 8.5t-12.5 26.5q0 25 22 47.5t58 37t80 14.5q67 0 102 -30 t35 -93q0 -8 -0.5 -31.5t-1 -51t-0.5 -49.5v-27q0 -47 30 -47q6 0 11.5 1t10.5 2zM140 464q0 -26 14.5 -38.5t34.5 -12.5q21 0 39 11t26 28v94q-50 -4 -82 -24t-32 -58z" />
<glyph horiz-adv-x="433" d="M396 553q0 -65 -23.5 -106.5t-62 -61.5t-86.5 -20q-26 0 -51 4t-48 11l-64 -15l-5 4v463l-48 8l-1 8q28 8 68.5 14.5t70.5 7.5l6 -5v-194q18 28 47.5 47t67.5 19q60 0 94.5 -49t34.5 -135zM218 682q-22 0 -39.5 -11.5t-26.5 -30.5v-231q13 -7 27.5 -10t29.5 -3 q45 0 66 40.5t21 106.5q-1 65 -19.5 102t-58.5 37z" />
<glyph horiz-adv-x="373" d="M38 546q0 59 23.5 101.5t64.5 66t91 23.5q65 0 101 -31.5t36 -73.5q0 -21 -13.5 -30.5t-32.5 -9.5q-12 0 -21.5 2.5t-15.5 6.5q1 5 1 7q0 51 -13.5 78.5t-42.5 27.5q-35 0 -56.5 -36.5t-21.5 -101.5q0 -73 33 -109.5t88 -36.5q27 0 50.5 8.5t44.5 23.5l6 -6 q-16 -36 -51.5 -63.5t-97.5 -27.5q-77 0 -125 48.5t-48 132.5z" />
<glyph horiz-adv-x="441" d="M38 539q0 67 24.5 111t67 65.5t94.5 21.5q30 0 59 -6v101l-49 8l-1 8q29 8 69 14.5t71 7.5l5 -5v-410q0 -47 30 -47q6 0 11 1t11 2l3 -5q-13 -18 -31.5 -29.5t-47.5 -11.5q-31 0 -50 17.5t-21 45.5q-15 -25 -43.5 -44t-67.5 -19q-60 0 -97 45.5t-37 128.5zM138 553 q0 -67 21.5 -103.5t59.5 -36.5q19 0 37.5 11t26.5 28v242q-20 13 -46 13q-48 0 -73.5 -42.5t-25.5 -111.5z" />
<glyph horiz-adv-x="387" d="M360 456q-18 -40 -55.5 -65.5t-97.5 -25.5q-74 0 -121.5 48t-47.5 132q0 60 24 103t65 66t90 23q68 0 106.5 -39.5t38.5 -102.5q0 -19 -3 -36l-6 -5h-215q6 -63 38.5 -93.5t82.5 -30.5q30 0 52 8.5t43 23.5zM138 578v-5l127 6q1 14 1 31q0 48 -11.5 76t-42.5 28 q-34 0 -54 -36t-20 -100z" />
<glyph horiz-adv-x="271" d="M229 372h-207l-1 9l32 8q10 4 13.5 8.5t3.5 14.5v272h-54l-1 9l55 14v-1q2 70 43 117t114 47q45 0 75 -21.5t30 -49.5q0 -17 -14.5 -24.5t-33.5 -7.5q-11 0 -20 2q-1 36 -13.5 57t-33.5 21q-26 0 -41 -20.5t-15 -62.5q0 -12 1.5 -25.5t2.5 -33.5h110v-21h-110v-288 l64 -15v-9z" />
<glyph horiz-adv-x="377" d="M371 351q0 -51 -49.5 -85t-147.5 -34q-44 0 -82.5 8t-62 25t-23.5 42q0 28 30 44.5t68 19.5l-2 2q-16 6 -28 20t-12 35q-1 23 17.5 41t45.5 25q-44 11 -70 40t-26 74q0 39 21.5 67.5t57.5 44t82 15.5q59 0 99.5 2.5t78.5 8.5q3 -5 5.5 -11.5t2.5 -15.5q0 -25 -31 -25 q-13 0 -34.5 4t-44.5 8l-1 -2q27 -12 47 -37t20 -58q0 -57 -43.5 -88.5t-109.5 -31.5q-18 0 -34 2q-6 -5 -9.5 -11t-3.5 -12q0 -23 42 -25l70 -4q59 -4 93 -25t34 -63zM121 608q0 -45 15 -70.5t45 -25.5q60 0 60 100q0 41 -13 68t-44 27q-32 0 -47.5 -28t-15.5 -71zM86 315 q0 -28 26.5 -43.5t74.5 -15.5q47 0 77.5 16.5t30.5 42.5q0 20 -18.5 29t-51.5 12l-60 3q-22 0 -36 2q-20 -7 -31.5 -19t-11.5 -27z" />
<glyph horiz-adv-x="453" d="M208 381l-1 -9h-191l-1 9l32 8q10 4 13.5 8.5t3.5 14.5v420l-49 8v8q27 8 68 14.5t71 7.5l5 -5v-205q20 32 52.5 54.5t76.5 22.5q49 0 75 -28.5t26 -78.5v-218h-95v199q0 67 -61 67q-20 0 -41 -11t-33 -30v-241zM438 377l-78 -5l-114 4l25 9q4 1 8.5 4.5t4.5 6.5 q6 3 15 6t9 10l81 -5l32 -17z" />
<glyph horiz-adv-x="219" d="M102 790q-25 0 -40 12.5t-15 33.5q0 23 19 38t46 15q24 0 39 -12.5t15 -32.5q0 -24 -18 -39t-46 -15zM62 700h1l-49 8l-1 8q28 8 68.5 14t70.5 7l6 -5v-314q0 -73 -31.5 -118.5t-113.5 -67.5l-6 8q27 36 41 77.5t14 111.5v271z" />
<glyph horiz-adv-x="440" d="M207 372h-191l-1 9l32 8q10 4 13.5 8.5t3.5 14.5v420l-49 8v8q27 8 68 14.5t71 7.5l5 -5v-294h60l85 139l-49 12l1 8h172l1 -8l-38 -13q-18 -8 -34.5 -19t-32.5 -27l-41 -47l97 -185q11 -18 21 -28.5t25 -18.5l14 -3l-2 -9h-90q-25 0 -37.5 11.5t-24.5 35.5l-69 130h-58 v-153l49 -15z" />
<glyph horiz-adv-x="223" d="M207 372h-191l-1 9l32 8q10 4 13.5 8.5t3.5 14.5v420l-49 8v8q27 8 68 14.5t71 7.5l5 -5v-469l49 -15z" />
<glyph horiz-adv-x="679" d="M215 372h-191l-1 9l32 8q10 4 13.5 8.5t3.5 14.5v288l-49 8v8q28 8 68 14t71 7l5 -5v-69q20 31 51 52.5t74 21.5q41 0 65.5 -20.5t30.5 -58.5q19 34 52.5 56.5t76.5 22.5q48 0 73 -28.5t25 -78.5v-234l49 -15l-1 -9h-192l-1 9l33 8q10 4 13 8.5t3 14.5v199q0 67 -57 67 q-21 0 -41 -11t-31 -28q1 -4 1 -9v-234l49 -15l-1 -9h-191l-2 9l33 8q10 4 13.5 8.5t3.5 14.5v199q0 67 -58 67q-20 0 -40.5 -10.5t-30.5 -27.5v-244l49 -15z" />
<glyph horiz-adv-x="424" d="M387 558q0 -86 -48 -139.5t-129 -53.5q-76 0 -124 47t-48 131q0 91 49.5 142.5t129.5 51.5q76 0 123 -48.5t47 -130.5zM138 555q0 -87 18 -127t57 -40t56.5 40.5t17.5 120.5q0 86 -17.5 125.5t-55.5 39.5q-37 0 -56.5 -38.5t-19.5 -120.5z" />
<glyph horiz-adv-x="442" d="M222 238h-206l-1 9l32 8q10 3 13.5 8t3.5 15v424l-49 8v9q27 8 68 14.5t71 7.5l5 -6v-65q18 28 48 47.5t68 19.5q60 0 94.5 -46.5t34.5 -133.5q0 -66 -23 -108t-62 -63t-86 -21q-20 0 -38.5 2t-35.5 6v-111l65 -15zM227 682q-22 0 -40.5 -12t-27.5 -31v-230 q14 -6 28.5 -9.5t30.5 -3.5q44 0 65 42.5t21 107.5q0 66 -19 101t-58 35z" />
<glyph horiz-adv-x="434" d="M426 240h-191l-1 9l32 7q11 4 14 8.5t3 14.5v148q-16 -25 -44 -43.5t-67 -18.5q-60 0 -97 45.5t-37 128.5q0 67 24.5 111t67 65.5t94.5 21.5q24 0 46 -4t42 -10l62 14l4 -4v-470l49 -14zM138 553q0 -67 21.5 -103.5t59.5 -36.5q19 0 37.5 11t26.5 28v242q-20 13 -46 13 q-48 0 -73.5 -42.5t-25.5 -111.5z" />
<glyph horiz-adv-x="332" d="M231 372h-207l-1 9l32 8q10 4 13.5 8.5t3.5 14.5v288l-49 8v8q28 8 68 14t71 7l5 -5v-93q16 41 41 69.5t58 28.5q26 0 40.5 -15.5t14.5 -41.5q0 -16 -6 -31t-13 -22l-4 -1q-9 10 -22.5 17t-32.5 8q-23 0 -43.5 -11t-32.5 -23v-221l64 -15v-9z" />
<glyph horiz-adv-x="360" d="M161 365q-41 0 -69.5 5.5t-39.5 12.5q-6 4 -10 13.5t-4 26.5q0 20 9.5 39.5t20.5 29.5l8 -2q5 -25 11 -44.5t15 -32.5q17 -25 62 -25q29 0 46 14t17 37q0 25 -18.5 42t-45.5 30.5t-54 29t-45 37.5t-18 57q0 49 44.5 75.5t109.5 26.5q45 0 70.5 -8t34.5 -16q5 -4 8.5 -12 t3.5 -22q0 -19 -11 -38t-23 -29l-9 3q-5 25 -10 44t-13 31q-14 24 -53 24q-27 0 -44 -13t-17 -37q0 -25 18.5 -42.5t46.5 -31.5t55.5 -30t46 -38t18.5 -54q0 -53 -45.5 -78t-115.5 -25z" />
<glyph horiz-adv-x="288" d="M259 713v-21h-109v-189q0 -73 57 -73q19 0 36.5 8t33.5 21l6 -5q-16 -34 -47 -61.5t-80 -27.5t-75.5 29t-26.5 86v212h-54l-1 9l52 17l91 105l8 -1v-109h109z" />
<glyph horiz-adv-x="460" d="M446 405q-11 -15 -31 -27.5t-48 -12.5q-34 0 -53.5 20t-19.5 51v5q-17 -29 -47 -52.5t-76 -23.5q-51 0 -79 29t-28 80v226l-49 8v8q27 8 68 14t71 7l5 -5v-241q0 -67 61 -67q22 0 42 11t32 30v235l-48 8l-1 8q28 8 68 14t71 7l5 -5v-277q0 -47 32 -47q10 0 21 3z" />
<glyph horiz-adv-x="405" d="M236 372h-68l-113 303q-6 18 -13 27t-20 15l-22 5l2 8h197l1 -8l-50 -16l87 -265l88 266l-49 15l1 8h127l1 -8q-3 -3 -17.5 -7.5t-16.5 -6.5q-10 -5 -15.5 -13.5t-10.5 -21.5z" />
<glyph horiz-adv-x="613" d="M313 730h52l85 -288l82 265l-49 15l1 8h127l2 -8q-5 -3 -19.5 -7.5t-16.5 -7.5q-17 -10 -24 -34l-104 -301h-69l-76 218l-73 -218h-69l-107 303q-6 18 -13 27t-20 15l-22 5l2 8h197l1 -8l-50 -16l81 -264z" />
<glyph horiz-adv-x="417" d="M62 681q-11 15 -20 23.5t-24 14.5l-18 3l2 8h199l1 -8l-50 -13l89 -126l67 127l-49 12l1 8h156l1 -8q-1 -2 -13.5 -6t-16.5 -7q-16 -7 -37 -31q-6 -6 -22.5 -25t-37 -43t-38.5 -43l104 -147q9 -12 17.5 -20.5t20.5 -14.5l23 -4l-1 -9h-199l-2 9l50 12l-89 126l-66 -127 l49 -11l-2 -9h-155l-2 9q1 1 15 5.5t17 7.5q15 8 35 30q6 6 22.5 25t37 42.5t38.5 43.5z" />
<glyph horiz-adv-x="405" d="M92 232q-28 0 -45 13.5t-17 35.5q0 15 8 27q9 -4 25 -7t32 -3q35 0 67 18t50 53h-43l-114 306q-6 18 -13 27t-20 15l-22 5l2 8h197l1 -8l-50 -16l87 -265l88 266l-49 15l1 8h127l1 -8l-25 -6q-14 -6 -21.5 -16t-13.5 -27l-101 -281q-16 -43 -37 -79.5t-49 -58.5t-66 -22z " />
<glyph horiz-adv-x="371" d="M338 427q0 -28 -4 -55h-295l-7 34l207 305h-131l-55 -114h-8q-12 35 -12 82q0 28 4 51h296l6 -33l-206 -306h129l57 114h7q12 -30 12 -78z" />
<glyph horiz-adv-x="433" d="M396 81q0 -65 -23.5 -106.5t-62 -61.5t-86.5 -20q-26 0 -51 4t-48 11l-64 -15l-5 4v463l-48 8l-1 8q28 8 68.5 14.5t70.5 7.5l6 -5v-194q18 28 47.5 47t67.5 19q60 0 94.5 -49t34.5 -135zM218 210q-22 0 -39.5 -11.5t-26.5 -30.5v-231q13 -7 27.5 -10t29.5 -3 q45 0 66 40.5t21 106.5q-1 65 -19.5 102t-58.5 37z" />
<glyph horiz-adv-x="373" d="M38 74q0 59 23.5 101.5t64.5 66t91 23.5q65 0 101 -31.5t36 -73.5q0 -21 -13.5 -30.5t-32.5 -9.5q-12 0 -21.5 2.5t-15.5 6.5q1 5 1 7q0 51 -13.5 78.5t-42.5 27.5q-35 0 -56.5 -36.5t-21.5 -101.5q0 -73 33 -109.5t88 -36.5q27 0 50.5 8.5t44.5 23.5l6 -6 q-16 -36 -51.5 -63.5t-97.5 -27.5q-77 0 -125 48.5t-48 132.5z" />
<glyph horiz-adv-x="441" d="M38 67q0 67 24.5 111t67 65.5t94.5 21.5q30 0 59 -6v101l-49 8l-1 8q29 8 69 14.5t71 7.5l5 -5v-410q0 -47 30 -47q6 0 11 1t11 2l3 -5q-13 -18 -31.5 -29.5t-47.5 -11.5q-31 0 -50 17.5t-21 45.5q-15 -25 -43.5 -44t-67.5 -19q-60 0 -97 45.5t-37 128.5zM138 81 q0 -67 21.5 -103.5t59.5 -36.5q19 0 37.5 11t26.5 28v242q-20 13 -46 13q-48 0 -73.5 -42.5t-25.5 -111.5z" />
<glyph horiz-adv-x="271" d="M229 -100h-207l-1 9l32 8q10 4 13.5 8.5t3.5 14.5v272h-54l-1 9l55 14v-1q2 70 43 117t114 47q45 0 75 -21.5t30 -49.5q0 -17 -14.5 -24.5t-33.5 -7.5q-11 0 -20 2q-1 36 -13.5 57t-33.5 21q-26 0 -41 -20.5t-15 -62.5q0 -12 1.5 -25.5t2.5 -33.5h110v-21h-110v-288 l64 -15v-9z" />
<glyph horiz-adv-x="377" d="M332 137q0 -57 -43.5 -88.5t-109.5 -32.5q-18 0 -34 3q-6 -5 -9.5 -11t-3.5 -12q0 -23 42 -25l70 -4q59 -4 93 -25t34 -63q0 -51 -49.5 -85t-147.5 -34q-44 0 -82.5 8t-62 25t-23.5 42q0 28 30 44.5t68 19.5l-2 2q-16 6 -28 20t-12 35q-1 23 17.5 41t45.5 25 q-44 11 -70 40t-26 74q0 39 21.5 67.5t57.5 44t82 15.5q59 0 99.5 2.5t78.5 8.5q3 -5 5.5 -11.5t2.5 -15.5q0 -25 -31 -25q-13 0 -34.5 4t-44.5 8l-1 -2q27 -12 47 -37t20 -58zM121 136q0 -45 15 -70.5t45 -25.5q60 0 60 100q0 41 -13 68t-44 27q-32 0 -47.5 -28t-15.5 -71z M86 -157q0 -28 26.5 -43.5t74.5 -15.5q47 0 77.5 16.5t30.5 42.5q0 20 -18.5 29t-51.5 12l-60 3q-22 0 -36 2q-20 -7 -31.5 -19t-11.5 -27z" />
<glyph horiz-adv-x="231" d="M112 318q-24 0 -39 12.5t-15 33.5q0 22 19 37.5t46 15.5q24 0 39 -12.5t15 -33.5q0 -24 -18.5 -38.5t-46.5 -14.5zM215 -100h-191l-1 9l32 8q10 4 13.5 8.5t3.5 14.5v288l-49 8v8q28 8 68 14t71 7l5 -5v-336l49 -15z" />
<glyph horiz-adv-x="434" d="M38 67q0 67 24.5 111t67 65.5t94.5 21.5q24 0 46 -4t42 -10l62 14l4 -4v-470l49 -14l-1 -9h-191l-1 9l32 7q11 4 14 8.5t3 14.5v148q-16 -25 -44 -43.5t-67 -18.5q-60 0 -97 45.5t-37 128.5zM138 81q0 -67 21.5 -103.5t59.5 -36.5q19 0 37.5 11t26.5 28v242 q-20 13 -46 13q-48 0 -73.5 -42.5t-25.5 -111.5z" />
<glyph horiz-adv-x="332" d="M231 -100h-207l-1 9l32 8q10 4 13.5 8.5t3.5 14.5v288l-49 8v8q28 8 68 14t71 7l5 -5v-93q16 41 41 69.5t58 28.5q26 0 40.5 -15.5t14.5 -41.5q0 -16 -6 -31t-13 -22l-4 -1q-9 10 -22.5 17t-32.5 8q-23 0 -43.5 -11t-32.5 -23v-221l64 -15v-9z" />
<glyph horiz-adv-x="460" d="M446 -67q-11 -15 -31 -27.5t-48 -12.5q-34 0 -53.5 20t-19.5 51v5q-17 -29 -47 -52.5t-76 -23.5q-51 0 -79 29t-28 80v226l-49 8v8q27 8 68 14t71 7l5 -5v-241q0 -67 61 -67q22 0 42 11t32 30v235l-48 8l-1 8q28 8 68 14t71 7l5 -5v-277q0 -47 32 -47q10 0 21 3z" />
<glyph horiz-adv-x="405" d="M236 -100h-68l-113 303q-6 18 -13 27t-20 15l-22 5l2 8h197l1 -8l-50 -16l87 -265l88 266l-49 15l1 8h127l1 -8q-3 -3 -17.5 -7.5t-16.5 -6.5q-10 -5 -15.5 -13.5t-10.5 -21.5z" />
<glyph horiz-adv-x="613" d="M313 258h52l85 -288l82 265l-49 15l1 8h127l2 -8q-5 -3 -19.5 -7.5t-16.5 -7.5q-17 -10 -24 -34l-104 -301h-69l-76 218l-73 -218h-69l-107 303q-6 18 -13 27t-20 15l-22 5l2 8h197l1 -8l-50 -16l81 -264z" />
<glyph horiz-adv-x="405" d="M92 -240q-28 0 -45 13.5t-17 35.5q0 15 8 27q9 -4 25 -7t32 -3q35 0 67 18t50 53h-43l-114 306q-6 18 -13 27t-20 15l-22 5l2 8h197l1 -8l-50 -16l87 -265l88 266l-49 15l1 8h127l1 -8l-25 -6q-14 -6 -21.5 -16t-13.5 -27l-101 -281q-16 -43 -37 -79.5t-49 -58.5t-66 -22 z" />
<glyph horiz-adv-x="371" d="M338 -45q0 -28 -4 -55h-295l-7 34l207 305h-131l-55 -114h-8q-12 35 -12 82q0 28 4 51h296l6 -33l-206 -306h129l57 114h7q12 -30 12 -78z" />
<glyph horiz-adv-x="605" d="M561 329q0 -109 -34.5 -185t-93.5 -115t-132 -39q-74 0 -132 38t-91.5 112.5t-33.5 183.5q0 108 36 183t95.5 114t131.5 39q71 0 128.5 -37t91.5 -110.5t34 -183.5zM305 24q59 0 90.5 79t31.5 226t-32 223t-90 76q-61 0 -94 -78.5t-33 -225.5q0 -149 34 -224.5t93 -75.5z " />
<glyph horiz-adv-x="370" d="M338 0h-307l-1 13l73 14q13 3 17 9t4 20v537l-93 5l-2 12l212 50l7 -7v-619l91 -21z" />
<glyph horiz-adv-x="513" d="M55 0l-10 69q82 75 144 136t97 119t35 121q0 54 -32 89.5t-86 35.5q-53 0 -93 -32t-62 -85l-12 4q19 95 81.5 149t149.5 54q59 0 101 -23t64.5 -63t22.5 -91q0 -54 -26.5 -103t-73 -96t-107 -93.5t-128.5 -95.5h264q30 0 44.5 19t29.5 76l11 -1q-1 -27 -4 -60.5 t-7.5 -67.5t-11.5 -61h-391z" />
<glyph horiz-adv-x="495" d="M451 165q0 -52 -33.5 -91.5t-89 -61.5t-121.5 -22q-55 0 -101.5 12t-74 36t-27.5 60q0 30 26 50.5t65 28.5l5 -4q-5 -10 -5 -23q0 -59 28 -93t79 -34q50 0 82.5 34t32.5 96q0 47 -23 78.5t-60 47.5t-79 16q-21 0 -42 -3l-5 22q93 14 144.5 53t51.5 101q0 44 -29.5 72 t-77.5 28q-49 0 -91.5 -29.5t-64.5 -82.5l-11 5q12 60 44.5 105t80 69.5t104.5 24.5q53 0 93 -19.5t63 -53.5t23 -78q0 -51 -27.5 -87.5t-73 -59.5t-100.5 -34q62 -4 110 -24t76 -55.5t28 -83.5z" />
<glyph horiz-adv-x="540" d="M12 201l333 459l74 -7v-450h93l-6 -58h-87v-145h-125v145h-271zM61 203h233v336z" />
<glyph horiz-adv-x="505" d="M469 168q0 -56 -32.5 -96t-87.5 -61t-122 -21q-58 0 -102.5 13.5t-70.5 38t-26 58.5q0 31 26 53t65 29l5 -4q-5 -14 -5 -27q0 -59 27.5 -94t77.5 -35q51 0 81.5 34.5t30.5 91.5q0 93 -70.5 136.5t-191.5 43.5l-10 10l6 312h372q0 -47 -5 -97t-13 -92h-11q-4 40 -9 60 t-16 26.5t-32 6.5h-233l-4 -196q24 3 52 3q88 0 155 -22.5t105 -65.5t38 -105z" />
<glyph horiz-adv-x="567" d="M531 199q0 -62 -30.5 -109t-84 -73.5t-123.5 -26.5q-78 0 -134 32t-85.5 89.5t-29.5 134.5q0 119 54 209t151.5 143t227.5 62l3 -15q-113 -35 -188 -107.5t-101 -187.5q29 19 63.5 27t68.5 8q91 0 149.5 -48.5t58.5 -137.5zM178 229q0 -97 28.5 -152t84.5 -55 q47 0 76.5 43.5t29.5 111.5q0 81 -32.5 125.5t-91.5 44.5q-22 0 -45.5 -5.5t-41.5 -17.5q-8 -45 -8 -95z" />
<glyph horiz-adv-x="472" d="M275 0h-123q3 108 40 210t96 190t128 154h-314q-19 0 -30 -7t-17 -28t-10 -62h-11q-2 25 -1.5 59.5t3 70t6.5 63.5h409l9 -93q-53 -59 -94 -147.5t-65 -194t-26 -215.5z" />
<glyph horiz-adv-x="549" d="M513 162q0 -49 -31.5 -87.5t-87 -61.5t-128.5 -23q-66 0 -118 18.5t-82 53t-30 80.5q0 60 50 103.5t127 60.5q-38 22 -71 47t-53.5 58.5t-20.5 80.5t27.5 85t77.5 60.5t116 22.5q59 0 103.5 -19t69.5 -52t25 -75q0 -41 -20 -70.5t-52.5 -50.5t-69.5 -36 q41 -23 79.5 -49.5t63.5 -61t25 -84.5zM193 532q0 -38 17 -66t45 -50t61 -42q27 29 49 65.5t22 79.5q0 48 -25 78.5t-70 30.5q-46 0 -72.5 -28t-26.5 -68zM154 146q0 -57 32 -90t84 -33q47 0 80.5 27.5t33.5 75.5q0 40 -21 69t-54 52t-70 44q-38 -30 -61.5 -67.5 t-23.5 -77.5z" />
<glyph horiz-adv-x="567" d="M36 451q0 62 30.5 109t84 73.5t123.5 26.5q78 0 133.5 -32t85.5 -89.5t30 -134.5q0 -119 -54 -209t-151.5 -143t-227.5 -62l-4 16q113 34 188.5 106.5t101.5 187.5q-29 -19 -64 -27t-68 -8q-91 0 -149.5 49t-58.5 137zM170 473q0 -81 32.5 -125.5t91.5 -44.5q22 0 45 5.5 t42 17.5q8 45 8 95q0 97 -28.5 152t-84.5 55q-47 0 -76.5 -43.5t-29.5 -111.5z" />
<glyph horiz-adv-x="550" d="M506 258q0 -80 -29.5 -140t-82 -94t-122.5 -34q-68 0 -119 29.5t-80 86t-29 135.5q0 84 31 144.5t84.5 92.5t121.5 32q66 0 116.5 -31t79.5 -87.5t29 -133.5zM173 253q0 -231 103 -231q52 0 77 59t25 169q0 228 -101 228q-50 0 -77 -56.5t-27 -168.5z" />
<glyph horiz-adv-x="378" d="M347 13l-1 -13h-316l-1 13l80 14q13 3 17 9t4 20v386l-93 5l-2 13l208 50l7 -7v-469z" />
<glyph horiz-adv-x="483" d="M48 0l-10 64q48 32 92.5 61.5t80.5 60.5t57.5 64t21.5 72q0 42 -26.5 68.5t-72.5 26.5q-45 0 -82 -27t-61 -78l-12 4q13 64 45.5 107t76.5 65t94 22q78 0 124.5 -42.5t46.5 -107.5q0 -56 -37.5 -103.5t-106.5 -89.5t-162 -82h237q31 0 46.5 19t29.5 76l9 -1 q-2 -39 -8 -89.5t-15 -89.5h-368z" />
<glyph horiz-adv-x="489" d="M451 15q0 -52 -33.5 -91.5t-89 -61.5t-121.5 -22q-55 0 -101.5 12t-74 36t-27.5 60q0 30 26 50.5t65 28.5l5 -4q-5 -10 -5 -23q0 -59 28 -93t79 -34q50 0 82.5 34t32.5 96q0 47 -23 78.5t-60 47.5t-79 16q-21 0 -42 -3l-5 22q93 14 144.5 53t51.5 101q0 44 -29.5 72 t-77.5 28q-49 0 -91.5 -29.5t-64.5 -82.5l-11 5q12 60 44.5 105t80 69.5t104.5 24.5q53 0 93 -19.5t63 -53.5t23 -78q0 -51 -27.5 -87.5t-73 -59.5t-100.5 -34q62 -4 110 -24t76 -55.5t28 -83.5z" />
<glyph horiz-adv-x="532" d="M12 51l333 459l74 -7v-450h93l-6 -58h-87v-145h-125v145h-271zM61 53h233v336z" />
<glyph horiz-adv-x="497" d="M469 18q0 -56 -32.5 -96t-87.5 -61t-122 -21q-58 0 -102.5 13.5t-70.5 38t-26 58.5q0 31 26 53t65 29l5 -4q-5 -14 -5 -27q0 -59 27.5 -94t77.5 -35q51 0 81.5 34.5t30.5 91.5q0 93 -70.5 136.5t-191.5 43.5l-10 10l6 312h372q0 -47 -5 -97t-13 -92h-11q-4 40 -9 60 t-16 26.5t-32 6.5h-233l-4 -196q24 3 52 3q88 0 155 -22.5t105 -65.5t38 -105z" />
<glyph horiz-adv-x="567" d="M531 199q0 -62 -30.5 -109t-84 -73.5t-123.5 -26.5q-78 0 -134 32t-85.5 89.5t-29.5 134.5q0 119 54 209t151.5 143t227.5 62l3 -15q-113 -35 -188 -107.5t-101 -187.5q29 19 63.5 27t68.5 8q91 0 149.5 -48.5t58.5 -137.5zM178 229q0 -97 28.5 -152t84.5 -55 q47 0 76.5 43.5t29.5 111.5q0 81 -32.5 125.5t-91.5 44.5q-22 0 -45.5 -5.5t-41.5 -17.5q-8 -45 -8 -95z" />
<glyph horiz-adv-x="472" d="M275 -150h-123q3 108 40 210t96 190t128 154h-314q-19 0 -30 -7t-17 -28t-10 -62h-11q-2 25 -1.5 59.5t3 70t6.5 63.5h409l9 -93q-53 -59 -94 -147.5t-65 -194t-26 -215.5z" />
<glyph horiz-adv-x="549" d="M513 162q0 -49 -31.5 -87.5t-87 -61.5t-128.5 -23q-66 0 -118 18.5t-82 53t-30 80.5q0 60 50 103.5t127 60.5q-38 22 -71 47t-53.5 58.5t-20.5 80.5t27.5 85t77.5 60.5t116 22.5q59 0 103.5 -19t69.5 -52t25 -75q0 -41 -20 -70.5t-52.5 -50.5t-69.5 -36 q41 -23 79.5 -49.5t63.5 -61t25 -84.5zM193 532q0 -38 17 -66t45 -50t61 -42q27 29 49 65.5t22 79.5q0 48 -25 78.5t-70 30.5q-46 0 -72.5 -28t-26.5 -68zM154 146q0 -57 32 -90t84 -33q47 0 80.5 27.5t33.5 75.5q0 40 -21 69t-54 52t-70 44q-38 -30 -61.5 -67.5 t-23.5 -77.5z" />
<glyph horiz-adv-x="567" d="M36 301q0 62 30.5 109t84 73.5t123.5 26.5q78 0 133.5 -32t85.5 -89.5t30 -134.5q0 -119 -54 -209t-151.5 -143t-227.5 -62l-4 15q113 35 188.5 107.5t101.5 187.5q-29 -19 -64 -27t-68 -8q-91 0 -149.5 49t-58.5 137zM170 323q0 -81 32.5 -125.5t91.5 -44.5q22 0 45 5.5 t42 17.5q8 45 8 95q0 97 -28.5 152t-84.5 55q-47 0 -76.5 -43.5t-29.5 -111.5z" />
<glyph horiz-adv-x="431" d="M387 475q0 -62 -23.5 -104t-63 -64t-86.5 -22q-72 0 -121 47.5t-49 138.5q0 61 24 102t63.5 62.5t86.5 21.5q46 0 84.5 -20t61.5 -60.5t23 -101.5zM217 308q34 0 52 43.5t18 123.5q0 159 -70 159q-72 0 -73 -163q0 -81 19 -122t54 -41z" />
<glyph horiz-adv-x="289" d="M245 292h-200l-1 9l42 7q9 2 11.5 5.5t2.5 11.5v292l-55 3v8l143 29l5 -4v-341l52 -11v-9z" />
<glyph horiz-adv-x="365" d="M57 292l-7 47q73 54 118 99.5t45 95.5q0 30 -18.5 48.5t-51.5 18.5q-31 0 -54.5 -17t-36.5 -45l-8 2q12 53 53.5 84.5t96.5 31.5q56 0 87.5 -28.5t31.5 -72.5q0 -40 -30 -73.5t-78.5 -65.5t-105.5 -66h164q21 0 31 10.5t19 40.5l8 -1q-1 -23 -5 -54.5t-10 -54.5h-249z " />
<glyph horiz-adv-x="376" d="M332 383q0 -29 -22 -51t-57.5 -34.5t-77.5 -12.5q-35 0 -64.5 7t-48 20t-18.5 33q0 17 18.5 29t44.5 16l4 -2q-3 -5 -3 -11q0 -32 15 -50.5t45 -18.5q28 0 46 17.5t18 49.5q0 39 -28.5 58.5t-65.5 19.5q-6 0 -12 -0.5t-12 -1.5l-4 13q52 8 81 28.5t29 53.5q0 24 -17.5 39 t-46.5 15q-28 0 -52.5 -16t-38.5 -43l-7 2q11 52 52.5 83t96.5 31q50 0 81.5 -23.5t30.5 -61.5q0 -29 -17 -49.5t-45.5 -32.5t-60.5 -18q58 -3 97 -26t39 -63z" />
<glyph horiz-adv-x="407" d="M44 405l208 252l54 -5v-246h57l-4 -34h-53v-80h-93v80h-162zM77 406h136v173z" />
<glyph horiz-adv-x="372" d="M328 384q0 -47 -46 -73t-111 -26q-55 0 -91 16.5t-36 44.5q0 18 18.5 30.5t44.5 15.5l4 -1q-3 -7 -3 -14q0 -31 15 -50t43 -19q29 0 46 17.5t17 46.5q0 51 -42.5 74t-112.5 24l-7 5l4 175h240q0 -27 -3.5 -55.5t-9.5 -52.5h-7q-4 31 -10.5 40.5t-27.5 9.5h-144l-2 -105 q16 2 34 2q83 0 135 -27.5t52 -77.5z" />
<glyph horiz-adv-x="413" d="M369 404q0 -53 -44.5 -86t-116.5 -33q-75 0 -119.5 39t-44.5 107q0 64 34.5 113t98 79t150.5 34l2 -9q-73 -20 -118.5 -62t-59.5 -106q19 13 44.5 20t49.5 7q54 0 89 -26.5t35 -76.5zM144 419q0 -51 17 -81t50 -30q29 0 46 23t17 58q0 42 -18 65t-50 23q-36 0 -60 -20 q-2 -19 -2 -38z" />
<glyph horiz-adv-x="358" d="M208 292h-93q2 60 25.5 115t61.5 101.5t83 83.5h-193q-17 0 -24.5 -9.5t-12.5 -42.5h-8q-1 21 1.5 53.5t7.5 56.5h252l6 -56q-31 -32 -55 -79.5t-37.5 -104.5t-13.5 -118z" />
<glyph horiz-adv-x="397" d="M353 382q0 -41 -44 -69t-116 -28q-61 0 -105 23.5t-44 62.5q0 32 28 55t75 35q-33 17 -58.5 39.5t-25.5 60.5q0 40 40.5 68t105.5 28q58 0 93 -23.5t35 -59.5q0 -34 -27.5 -54t-58.5 -31q25 -13 48.5 -27t38.5 -33t15 -47zM156 583q0 -29 20.5 -47.5t48.5 -33.5 q16 14 28 33.5t12 44.5q0 24 -14 39t-39 15t-40.5 -15t-15.5 -36zM131 368q0 -28 17.5 -44t46.5 -16q26 0 44 13.5t18 35.5q0 33 -25 53t-58 37q-19 -16 -31 -36t-12 -43z" />
<glyph horiz-adv-x="413" d="M44 538q0 53 44.5 86t116.5 33q75 0 119.5 -39t44.5 -107q0 -63 -34.5 -112.5t-98 -79t-149.5 -34.5l-2 9q72 20 117.5 62t59.5 106q-19 -13 -44.5 -20t-49.5 -7q-54 0 -89 26.5t-35 76.5zM139 554q0 -43 18 -66t51 -23q35 0 59 20q2 19 2 39q0 51 -17 80.5t-50 29.5 q-29 0 -46 -23t-17 -57z" />
<glyph horiz-adv-x="431" d="M387 183q0 -62 -23.5 -104t-63 -64t-86.5 -22q-72 0 -121 47.5t-49 138.5q0 61 24 102t63.5 62.5t86.5 21.5q46 0 84.5 -20t61.5 -60.5t23 -101.5zM217 16q34 0 52 43.5t18 123.5q0 159 -70 159q-72 0 -73 -163q0 -81 19 -122t54 -41z" />
<glyph horiz-adv-x="289" d="M245 0h-200l-1 9l42 7q9 2 11.5 5.5t2.5 11.5v292l-55 3v8l143 29l5 -4v-341l52 -11v-9z" />
<glyph horiz-adv-x="365" d="M57 0l-7 47q73 54 118 99.5t45 95.5q0 30 -18.5 48.5t-51.5 18.5q-31 0 -54.5 -17t-36.5 -45l-8 2q12 53 53.5 84.5t96.5 31.5q56 0 87.5 -28.5t31.5 -72.5q0 -40 -30 -73.5t-78.5 -65.5t-105.5 -66h164q21 0 31 10.5t19 40.5l8 -1q-1 -23 -5 -54.5t-10 -54.5h-249z" />
<glyph horiz-adv-x="376" d="M332 91q0 -29 -22 -51t-57.5 -34.5t-77.5 -12.5q-35 0 -64.5 7t-48 20t-18.5 33q0 17 18.5 29t44.5 16l4 -2q-3 -5 -3 -11q0 -32 15 -50.5t45 -18.5q28 0 46 17.5t18 49.5q0 39 -28.5 58.5t-65.5 19.5q-6 0 -12 -0.5t-12 -1.5l-4 13q52 8 81 28.5t29 53.5q0 24 -17.5 39 t-46.5 15q-28 0 -52.5 -16t-38.5 -43l-7 2q11 52 52.5 83t96.5 31q50 0 81.5 -23.5t30.5 -61.5q0 -29 -17 -49.5t-45.5 -32.5t-60.5 -18q58 -3 97 -26t39 -63z" />
<glyph horiz-adv-x="407" d="M44 113l208 252l54 -5v-246h57l-4 -34h-53v-80h-93v80h-162zM77 114h136v173z" />
<glyph horiz-adv-x="372" d="M328 92q0 -47 -46 -73t-111 -26q-55 0 -91 16.5t-36 44.5q0 18 18.5 30.5t44.5 15.5l4 -1q-3 -7 -3 -14q0 -31 15 -50t43 -19q29 0 46 17.5t17 46.5q0 51 -42.5 74t-112.5 24l-7 5l4 175h240q0 -27 -3.5 -55.5t-9.5 -52.5h-7q-4 31 -10.5 40.5t-27.5 9.5h-144l-2 -105 q16 2 34 2q83 0 135 -27.5t52 -77.5z" />
<glyph horiz-adv-x="413" d="M369 112q0 -53 -44.5 -86t-116.5 -33q-75 0 -119.5 39t-44.5 107q0 64 34.5 113t98 79t150.5 34l2 -9q-73 -20 -118.5 -62t-59.5 -106q19 13 44.5 20t49.5 7q54 0 89 -26.5t35 -76.5zM144 127q0 -51 17 -81t50 -30q29 0 46 23t17 58q0 42 -18 65t-50 23q-36 0 -60 -20 q-2 -19 -2 -38z" />
<glyph horiz-adv-x="358" d="M208 0h-93q2 60 25.5 115t61.5 101.5t83 83.5h-193q-17 0 -24.5 -9.5t-12.5 -42.5h-8q-1 21 1.5 53.5t7.5 56.5h252l6 -56q-31 -32 -55 -79.5t-37.5 -104.5t-13.5 -118z" />
</font>
</defs>
</svg>
