<?xml version="1.0" standalone="no"?>
<!DOCTYPE svg PUBLIC "-//W3C//DTD SVG 1.1//EN" "http://www.w3.org/Graphics/SVG/1.1/DTD/svg11.dtd" >
<svg xmlns="http://www.w3.org/2000/svg" xmlns:xlink="http://www.w3.org/1999/xlink" version="1.1">
<metadata></metadata>
<defs>
<font id="indivisa_display_sansthin" horiz-adv-x="600" >
<font-face units-per-em="1000" ascent="800" descent="-200" />
<missing-glyph horiz-adv-x="200" />
<glyph unicode="&#x2f;symbol&#x31;&#x2f;" horiz-adv-x="5534" d="M1865 412q-25 0 -40.5 14.5t-15.5 37.5q0 24 15.5 45t39 34.5t48.5 13.5q24 0 39 -13.5t15 -37.5t-14.5 -45.5t-37.5 -35t-49 -13.5zM1284 412q-26 0 -41.5 14.5t-15.5 37.5q0 24 15.5 45t39.5 34.5t49 13.5q24 0 38.5 -13.5t14.5 -37.5t-14.5 -45.5t-37 -35t-48.5 -13.5 zM959 0q0 21 2.5 46.5t8.5 61.5q-16 -49 -51 -82t-79 -33q-41 0 -63 30t-22 82q0 45 15.5 91t46.5 85.5t76.5 63.5t104.5 24h12.5t12.5 -1l16 73l6 102l136 7q0 -40 -9.5 -95t-23 -116.5t-27 -123.5t-23 -117.5t-9.5 -97.5h-130zM100 0l78 364q8 38 13.5 72.5t7.5 63.5 l128 7l11 -15l-104 -492h-134zM3503 492l-57 -492h-131l20 175q3 30 9 69t12.5 78t11.5 68h-3q-16 -53 -37 -107.5t-44 -107.5l-76 -175h-149l-2 175q-1 56 1 109t8 106h-2q-15 -61 -30 -115.5t-29 -99.5l-53 -175h-109l154 500l184 6l1 -137q1 -50 -2.5 -121.5 t-12.5 -137.5h2q20 65 36 111t30.5 81t27.5 67l56 131l169 7zM5316 300q-15 -74 -23 -110.5t-11 -51t-3 -21.5q0 -34 36 -34q13 0 28 5t31 13l-9 -79q-20 -11 -50 -20t-64 -9q-50 0 -77.5 25t-27.5 75q0 11 1.5 23.5t6 33.5t12.5 57.5t20 95.5l-47 1l9 44l54 14l53 95l81 6 l13 -15l-20 -86h99l6 -14l-17 -51zM336 0q0 28 4 62t13 82t24 116l6 102l137 7q0 -18 -2 -41t-5 -48h2q29 49 65.5 69t68.5 20q35 0 53.5 -19.5t18.5 -51.5q0 -23 -8 -62.5t-18 -84.5q-7 -33 -11 -57t-5.5 -45.5t-1.5 -48.5h-131q0 38 4.5 69.5t14.5 80.5q7 35 11 55.5 t4 31.5q0 24 -17 24t-34 -22.5t-30.5 -60.5t-22 -84t-9.5 -94h-131zM1170 0q0 39 7 87.5t20 105.5l14 67l6 102l137 7q0 -36 -8 -81.5t-19 -95.5t-19 -99t-8 -93h-130zM1399 362l140 7q6 -59 4.5 -137.5t-9.5 -151.5h2q23 45 42 95t32 99t17 90q17 4 28.5 4.5t21.5 0.5 q28 0 46.5 -7t18.5 -35q0 -22 -13.5 -60.5t-36.5 -85t-53.5 -94t-63.5 -87.5h-149q-2 111 -9.5 207.5t-17.5 154.5zM1752 0q0 39 7 87.5t19 105.5l15 67l6 102l137 7q0 -36 -8 -81.5t-19 -95.5t-19 -99t-8 -93h-130zM4716 0q0 28 4 62t13 82t24 116l6 102l137 7 q0 -18 -2.5 -41t-4.5 -48h2q29 49 65 69t69 20q35 0 53.5 -19.5t18.5 -51.5q0 -23 -8 -62.5t-18 -84.5q-7 -33 -11 -57t-6 -45.5t-2 -48.5h-130q0 38 4.5 69.5t14.5 80.5q7 35 11 55.5t4 31.5q0 24 -17 24q-18 0 -34.5 -22.5t-30.5 -60.5t-22.5 -84t-9.5 -94h-130zM2245 256 q-25 14 -51.5 22t-45.5 8q-17 0 -29.5 -7t-12.5 -19q0 -13 13 -22t32 -17.5t38 -20.5t32 -30.5t13 -47.5q0 -39 -25 -68t-66.5 -45t-89.5 -16q-33 0 -66.5 7.5t-51.5 20.5l27 93q27 -18 58.5 -28t52.5 -10q20 0 30 8t10 18q0 13 -13 22t-32 18t-38 21t-32 30t-13 46 q0 39 25.5 68t67.5 45.5t90 16.5q20 0 48.5 -3.5t55.5 -14.5zM2525 369q32 0 73.5 -7.5t72.5 -24.5l-29 -128q-20 -94 -25.5 -140.5t-5.5 -68.5h-130q0 20 2.5 45t9.5 67q-15 -50 -50.5 -84.5t-81.5 -34.5q-41 0 -62.5 30t-21.5 83q0 44 15.5 90.5t46.5 85.5t77.5 63 t108.5 24zM4653 51q-32 -28 -74 -43t-85 -15q-62 0 -102 33.5t-40 103.5q0 46 17.5 88.5t49.5 76.5t75 54t94 20q53 0 86 -23t33 -65q0 -56 -59 -95.5t-162 -44.5v-1q0 -29 15 -46.5t48 -17.5q22 0 45 7.5t45 20.5zM3936 0q0 28 4 62t13.5 82t24.5 116l5 102l137 7 q0 -18 -2 -41t-5 -48h2q29 49 65.5 69t68.5 20q35 0 53.5 -19.5t18.5 -51.5q0 -23 -8 -62.5t-18 -84.5q-7 -33 -11 -57t-5.5 -45.5t-1.5 -48.5h-131q0 38 4.5 69.5t14.5 80.5q8 35 11.5 55.5t3.5 31.5q0 24 -17 24t-34 -22.5t-30.5 -60.5t-22 -84t-9.5 -94h-131zM3768 369 q32 0 73 -7.5t72 -24.5l-28 -128q-20 -94 -25.5 -140.5t-5.5 -68.5h-130q0 20 2.5 45t9.5 67q-15 -50 -50.5 -84.5t-81.5 -34.5q-41 0 -63 30t-22 83q0 44 15.5 90.5t47 85.5t78 63t108.5 24zM4490 177q46 10 72.5 33.5t26.5 59.5q0 17 -5.5 24t-16.5 7q-20 0 -36 -20 t-26 -48.5t-15 -55.5zM3677 101q17 0 33 21t30 54t22 69q2 11 4.5 22t4.5 22q-16 8 -27 8q-18 0 -34.5 -16t-29 -40.5t-20 -51.5t-7.5 -48q0 -40 24 -40zM913 101q16 0 31 19.5t28.5 50t22.5 64.5l4 20l4 20l3 14q-14 8 -27 8q-18 0 -34 -16t-28.5 -40.5t-20 -51.5t-7.5 -48 q0 -40 24 -40zM2435 101q16 0 32.5 21t30 54t21.5 69q2 11 4.5 22t4.5 22q-14 8 -27 8q-18 0 -34 -16t-29 -40.5t-20 -51.5t-7 -48q0 -40 24 -40z" />
<glyph unicode="&#x2f;symbol&#x32;&#x2f;" horiz-adv-x="932" d="M494 570l52 -90l-137 -240h-103l137 240l-52 90h103zM357 570l52 -90l-138 -240h-103l138 240l-52 90h103zM752 120h-103l-137 240l51 90l137 -240h103zM683 0h-103l-137 240l51 90l138 -240h103zM100 120l51 90h275l51 -90h-274l-52 -90zM168 0l52 90h274l52 -90h-275 l-51 -90zM789 88q18 0 30.5 -13t12.5 -31t-12.5 -31t-30.5 -13t-30.5 13t-12.5 31t12.5 31t30.5 13zM829 44q0 17 -11.5 28.5t-28.5 11.5q-16 0 -28 -11.5t-12 -28.5q0 -16 12 -28t28 -12q17 0 28.5 12t11.5 28zM771 69h18h5t6 -2q5 -4 5 -11q0 -5 -3 -8q-1 -2 -2.5 -2.5 t-3.5 -1.5q7 -1 8 -9q0 -8 3 -16h-8q-1 2 -1 6t-1 7q-1 5 -2.5 7.5t-8.5 2.5h-8v-23h-7v50zM778 47h10h3.5t3.5 1q3 3 3 7q0 6 -4 7t-6 1h-10v-16z" />
<glyph unicode="&#x2f;symbol&#x33;&#x2f;" horiz-adv-x="957" d="M505 638l68 -270h270l-203 -135l136 -270l-271 135l-270 -270l135 405l-270 203l338 -68zM814 87q18 0 30.5 -12.5t12.5 -31.5q0 -18 -12.5 -30.5t-30.5 -12.5t-30.5 12.5t-12.5 30.5q0 19 12.5 31.5t30.5 12.5zM854 43q0 17 -11.5 29t-28.5 12q-16 0 -28 -12t-12 -29 q0 -16 12 -28t28 -12q17 0 28.5 12t11.5 28zM796 68h18h5.5t5.5 -2q6 -3 6 -10q0 -5 -4 -9q-3 -3 -6 -3q7 -3 8 -10q1 -4 1.5 -7.5t1.5 -8.5h-7q-1 3 -1.5 7t-1.5 7q0 9 -10 9h-9v-23h-7v50zM803 47h10h3.5t3.5 1l2 2t1 4q0 7 -4 8t-6 1h-10v-16z" />
<glyph unicode="&#x2f;symbol&#x34;&#x2f;" horiz-adv-x="2607" d="M1684 406q0 32 -2.5 63t-8.5 65l126 14l15 -15v-533h-130v406zM1889 406q0 62 -10 128l126 14l14 -15v-533h-130v406zM427 101v-101h-320v362q0 38 -1.5 72t-5.5 63l126 7l14 -14v-396zM925 21l7 109q31 -18 72 -27t72 -9q50 0 50 36q0 19 -20.5 34t-50 31t-59.5 37 t-50.5 51t-20.5 74q0 48 26 80.5t70 49.5t97 17q81 0 127 -18l-14 -111q-28 14 -55 21.5t-56 7.5q-28 0 -43 -11t-15 -29q0 -22 20.5 -38.5t50.5 -32.5t59.5 -36.5t50 -49.5t20.5 -73q0 -67 -54 -104t-139 -37q-40 0 -82.5 8t-62.5 20zM795 0l-106 -7q-7 11 -12 24t-9 25h-4 q-15 -22 -42.5 -35.5t-61.5 -13.5q-41 0 -69 22t-28 67q0 61 53.5 88.5t137.5 29.5v20q0 54 -58 54q-55 0 -108 -29l-8 97q27 10 68.5 18t81.5 8q154 0 154 -135q0 -38 -2 -69.5t-2 -69.5q0 -24 4.5 -50.5t10.5 -43.5zM1626 0l-107 -7q-7 11 -12 24t-9 25h-3 q-15 -22 -42.5 -35.5t-62.5 -13.5q-40 0 -68 22t-28 67q0 61 53 88.5t138 29.5v20q0 54 -58 54q-54 0 -109 -29l-7 97q27 10 68.5 18t81.5 8q153 0 153 -135q0 -38 -1.5 -69.5t-1.5 -69.5q0 -24 4.5 -50.5t10.5 -43.5zM2405 213v-17t-1 -19l-11 -11h-191q8 -45 33.5 -64 t64.5 -19q24 0 45.5 6t38.5 15l7 -81q-17 -11 -49.5 -20.5t-77.5 -9.5q-88 0 -143 47t-55 135q0 58 24 101t66 67.5t94 24.5q73 0 114 -43.5t41 -111.5zM2199 207l78 4q1 5 1.5 11t0.5 15q0 23 -7.5 41t-26.5 18q-23 0 -34 -25.5t-12 -63.5zM654 74v88q-27 -3 -46 -17 t-19 -40q0 -18 10.5 -29t26.5 -11t28 9zM1485 74v88q-27 -3 -46 -17t-19 -40q0 -18 10 -29t27 -11q16 0 28 9zM2464 85q18 0 30.5 -13t12.5 -31t-12.5 -31t-30.5 -13t-31 13t-13 31t13 31t31 13zM2504 41q0 17 -11.5 28.5t-28.5 11.5q-16 0 -28 -11.5t-12 -28.5 q0 -16 12 -28t28 -12q17 0 28.5 12t11.5 28zM2446 66h18q2 0 5 -0.5t6 -2.5q5 -2 5 -10q0 -4 -3 -9q-3 -3 -6 -3q7 -1 8 -10q0 -7 3 -15h-8q-1 2 -1 6t-1 7q-1 5 -2.5 7t-8.5 2h-8v-22h-7v50zM2453 44h10h3.5t3.5 1q3 3 3 7q0 6 -4 7t-6 1h-10v-16z" />
<glyph unicode="&#x2f;symbol&#x35;&#x2f;" horiz-adv-x="705" d="M232 -6l-132 136l124 234l129 -136zM474 -6l-121 234l128 136l124 -234z" />
<glyph unicode=" "  horiz-adv-x="200" />
<glyph unicode="&#x09;" horiz-adv-x="200" />
<glyph unicode="&#xa0;" horiz-adv-x="200" />
<glyph unicode="!" horiz-adv-x="258" d="M143 123h-25v120.5v140.5t-1 142t-4 124l37 10q2 -28 2.5 -69t0.5 -88q0 -92 -3 -187t-7 -193zM158 1q0 -17 -7 -30.5t-23 -13.5q-13 0 -20.5 11t-7.5 26q0 17 8.5 30t22.5 13q13 0 20 -10t7 -26z" />
<glyph unicode="&#x22;" horiz-adv-x="316" d="M106 695l-13 -234h-20l-13 234h46zM256 695l-13 -234h-20l-13 234h46z" />
<glyph unicode="#" horiz-adv-x="703" d="M607 193h-164l-50 -203l-22 1l-6 6l48 196h-180l-50 -203l-22 1l-6 6l48 196h-147l-6 5l2 20h157l53 215h-162l-6 5l2 20h172l50 202l22 -1l6 -6l-48 -195h180l50 202l22 -1l6 -6l-48 -195h139l6 -5l-2 -20h-149l-53 -215h154l6 -5zM239 218h180l53 215h-180z" />
<glyph unicode="$" horiz-adv-x="461" d="M214 -122v112q-41 0 -80.5 10.5t-68.5 25.5l5 35q20 -14 61.5 -30.5t90.5 -16.5q48 0 79.5 18t47 46.5t15.5 61.5q0 41 -20.5 71t-52.5 54.5t-68 47.5t-68 49.5t-52.5 60t-20.5 79.5q0 60 37.5 102.5t104.5 52.5v112l30 3v-112h7q34 0 67 -7.5t60 -21.5l-6 -35 q-14 11 -48.5 25.5t-78.5 14.5q-69 0 -105 -38t-36 -89q0 -41 20.5 -72t52.5 -56.5t68 -49.5t68 -50.5t52.5 -59.5t20.5 -77q0 -60 -40.5 -102.5t-111.5 -50.5v-110z" />
<glyph unicode="%" horiz-adv-x="930" d="M277 -10h-31l400 670h30zM361 474q0 -63 -20.5 -105t-54 -63t-73.5 -21q-61 0 -99.5 47t-38.5 135q0 95 43.5 142.5t104.5 47.5t99.5 -47.5t38.5 -135.5zM106 472q0 -72 28.5 -120t81.5 -48q49 0 81 43t32 122q0 73 -28 120.5t-82 47.5q-48 0 -80.5 -42t-32.5 -123z M855 182q0 -64 -20.5 -105.5t-54 -62.5t-73.5 -21q-61 0 -99.5 47t-38.5 135q0 95 43.5 142.5t104.5 47.5t99.5 -47.5t38.5 -135.5zM600 180q0 -72 28.5 -120t81.5 -48q49 0 81 43t32 122q0 73 -28 120.5t-82 47.5q-48 0 -80.5 -42t-32.5 -123z" />
<glyph unicode="&#x26;" horiz-adv-x="709" d="M565 365q11 -87 -10 -160.5t-66 -123.5q24 -27 50 -47t57 -20q19 0 35.5 8t24.5 16l8 -22q-10 -9 -29 -17.5t-44 -8.5q-44 0 -73 22t-50 47q-36 -33 -82.5 -51t-99.5 -18q-59 0 -103.5 22t-68.5 60.5t-24 87.5q0 58 33 111t90 82q-26 36 -46.5 78.5t-20.5 85.5 q0 42 20 74t55 50.5t80 18.5q56 0 96.5 -31t57.5 -78l-22 -19q-20 49 -58.5 76.5t-81.5 27.5q-44 0 -79.5 -30t-35.5 -89q0 -40 17.5 -78t45 -74t57.5 -70l167 -188l7 -7q31 38 48.5 87.5t17.5 103.5q0 16 -1.5 34.5t-3.5 30.5zM122 165q0 -67 47 -109t123 -42q48 0 88.5 17 t71.5 47q-3 4 -6 7l-171 193q-10 12 -22.5 26t-24.5 30q-52 -27 -79 -74t-27 -95z" />
<glyph unicode="'" horiz-adv-x="166" d="M106 695l-13 -234h-20l-13 234h46z" />
<glyph unicode="(" horiz-adv-x="305" d="M269 -133q-108 82 -156 190.5t-48 223.5t48 223.5t156 190.5l16 -21q-101 -88 -140.5 -189.5t-39.5 -203.5t39.5 -203t140.5 -190z" />
<glyph unicode=")" horiz-adv-x="305" d="M240 281q0 -115 -48 -223.5t-156 -190.5l-16 21q101 89 140.5 190t39.5 203t-39.5 203.5t-140.5 189.5l16 21q108 -82 156 -190.5t48 -223.5z" />
<glyph unicode="*" horiz-adv-x="392" d="M178 449l12 112l-92 -66l-18 31l105 46l-105 46l18 31l92 -66l-12 112h36l-12 -113l92 67l18 -31l-103 -46l103 -46l-18 -31l-92 67l12 -113h-36z" />
<glyph unicode="+" horiz-adv-x="589" d="M484 312h-175v-182h-28v182h-181v23q32 1 80 1.5t101 0.5v183h28v-183q51 1 97.5 1h78.5z" />
<glyph unicode="," horiz-adv-x="208" d="M133 16q0 -32 -18 -82.5t-55 -92.5l-10 9q25 36 37 71t15 69h-1q-29 6 -29 33q0 15 8.5 25t22.5 10t22 -11.5t8 -30.5z" />
<glyph unicode="-" horiz-adv-x="321" d="M30 277v26h261v-26h-261z" />
<glyph unicode="." horiz-adv-x="210" d="M104 -10q-13 0 -21 9.5t-8 22.5q0 14 9 25t23 11t21 -8.5t7 -22.5q0 -13 -7.5 -25t-23.5 -12z" />
<glyph unicode="/" horiz-adv-x="342" d="M245 695l27 -6l-175 -700l-27 6z" />
<glyph unicode="0" horiz-adv-x="614" d="M539 332q0 -115 -33 -191t-87.5 -113.5t-119.5 -37.5q-66 0 -116.5 38.5t-79 112t-28.5 177.5q0 115 33 190.5t87.5 113.5t119.5 38q66 0 116.5 -38t79 -111.5t28.5 -178.5zM107 326q0 -89 23 -159.5t67 -111.5t107 -41q57 0 103 35t73 104.5t27 171.5q0 89 -23 159 t-66.5 111t-107.5 41q-57 0 -103 -35t-73 -104t-27 -171z" />
<glyph unicode="1" horiz-adv-x="350" d="M210 0h-30v623l-123 -53l-7 25l155 65l5 -2v-658z" />
<glyph unicode="2" horiz-adv-x="525" d="M435 0h-384l-6 16q100 92 181 173t128.5 155.5t47.5 146.5q0 68 -44 106.5t-117 38.5q-51 0 -94.5 -17.5t-83.5 -43.5l-9 30q33 20 84.5 37.5t106.5 17.5q83 0 136 -45t53 -126q0 -73 -44.5 -145.5t-122.5 -151t-179 -169.5h129q59 0 116 3.5t112 10.5z" />
<glyph unicode="3" horiz-adv-x="500" d="M430 173q0 -79 -63 -131t-181 -52q-42 0 -78.5 7t-67.5 17l5 27q37 -13 72.5 -19.5t72.5 -6.5q69 0 115.5 21.5t69.5 57t23 77.5q0 51 -30.5 82t-78 45t-99.5 14q-35 0 -64 -7v24q123 27 182.5 79.5t59.5 112.5q0 51 -39 83t-108 32q-48 0 -85.5 -14t-74.5 -34l-5 26 q25 16 71 31t100 15q75 0 124 -36t49 -101q0 -55 -43 -106t-144 -84q103 -4 160 -44t57 -116z" />
<glyph unicode="4" horiz-adv-x="570" d="M385 0h-30v164h-307l-6 15l322 481l21 -10v-459q53 4 105 10l-10 -37h-95v-164zM355 600l-276 -414l183 1q46 0 93 2v411z" />
<glyph unicode="5" horiz-adv-x="520" d="M440 195q0 -59 -29 -105.5t-82 -73t-125 -26.5q-40 0 -79 7.5t-65 16.5l5 24q32 -10 72.5 -17t73.5 -7q88 0 142.5 48.5t54.5 129.5q0 55 -25 90.5t-66 53t-90 17.5q-28 0 -64.5 -6t-57.5 -17l-10 8v312h171q41 0 83 2.5t80 7.5l-9 -33h-295v-269q23 9 53.5 14t56.5 5 q94 0 149.5 -49.5t55.5 -132.5z" />
<glyph unicode="6" horiz-adv-x="541" d="M284 -10q-99 0 -154 76t-55 215q0 119 38.5 203.5t105.5 130t152 45.5q31 0 53 -4.5t31 -9.5l-9 -25q-32 15 -83 15q-67 0 -125 -36.5t-94 -118t-38 -215.5h1q34 53 87.5 79t104.5 26t92.5 -22t65.5 -63.5t24 -98.5t-25 -101.5t-69.5 -70t-102.5 -25.5zM283 14 q72 0 119 47t47 126q0 72 -41 116t-112 44q-50 0 -101 -26t-86 -87q3 -60 22.5 -110t57 -80t94.5 -30z" />
<glyph unicode="7" horiz-adv-x="503" d="M173 0h-32q5 84 33 173.5t69 175t87.5 157.5t89.5 121h-137q-58 0 -115.5 -3.5t-112.5 -10.5l10 37h383l5 -5v-12q-47 -55 -94 -128.5t-87 -158t-66.5 -173t-32.5 -173.5z" />
<glyph unicode="8" horiz-adv-x="554" d="M75 142q0 44 24.5 79.5t63 62t80.5 41.5q-38 19 -72.5 46t-55.5 61t-21 74q0 46 26.5 80.5t69 54t91.5 19.5q48 0 89 -19t65.5 -52.5t24.5 -78.5q0 -58 -44.5 -107t-112.5 -75q45 -18 85.5 -43t65.5 -58.5t25 -78.5t-27 -80.5t-73 -56.5t-104 -21q-57 0 -102 20 t-71.5 54.5t-26.5 77.5zM126 511q0 -39 22 -72.5t56 -59t71 -41.5q65 26 109 72t44 102q0 36 -19.5 64t-53 44t-74.5 16t-76.5 -16t-57 -44.5t-21.5 -64.5zM107 142q0 -36 22 -65t60 -46t86 -17q49 0 87.5 18t61.5 49t23 69q1 39 -22.5 68t-64.5 52.5t-93 44.5 q-39 -16 -76 -41.5t-60.5 -58.5t-23.5 -73z" />
<glyph unicode="9" horiz-adv-x="541" d="M466 367q0 -117 -38.5 -201.5t-105.5 -130t-153 -45.5q-30 0 -52 5t-31 9l9 25q32 -15 83 -15q67 0 125 34.5t94 111.5t38 204h-1q-34 -53 -87.5 -79t-104.5 -26t-92 23.5t-65.5 67.5t-24.5 104q0 61 25 107t69 72.5t101 26.5q98 0 154.5 -76.5t56.5 -216.5zM92 453 q0 -76 41 -123t112 -47q50 0 101.5 26t85.5 87q-3 66 -22.5 120.5t-56.5 87t-95 32.5q-48 0 -85.5 -22.5t-59 -63.5t-21.5 -97z" />
<glyph unicode=":" horiz-adv-x="210" d="M104 420q-13 0 -21 9.5t-8 22.5q0 14 9 25t23 11t21 -8.5t7 -22.5q0 -13 -7.5 -25t-23.5 -12zM104 -10q-13 0 -21 9.5t-8 22.5q0 14 9 25t23 11t21 -8.5t7 -22.5q0 -13 -7.5 -25t-23.5 -12z" />
<glyph unicode=";" horiz-adv-x="216" d="M110 420q-13 0 -21 9.5t-8 22.5q0 14 9 25t23 11t21 -8.5t7 -22.5q0 -13 -7.5 -25t-23.5 -12zM138 16q0 -32 -18 -82.5t-55 -92.5l-10 9q25 36 37 71t15 69h-1q-29 6 -29 33q0 15 8.5 25t22.5 10t22 -11.5t8 -30.5z" />
<glyph unicode="&#x3c;" horiz-adv-x="557" d="M457 133l-377 187l1 16q34 17 83.5 41.5t104 51t104 50.5t83.5 39v-30l-334 -160l335 -165v-30z" />
<glyph unicode="=" horiz-adv-x="589" d="M484 413h-384v23q33 1 83.5 1.5t107 1t108 0.5h86.5zM484 211h-384v23q33 1 83.5 1.5t107 1t108 0.5h86.5z" />
<glyph unicode="&#x3e;" horiz-adv-x="557" d="M100 133v30l335 165l-334 160v30q34 -15 83.5 -39t104 -50.5t104 -51t83.5 -41.5l1 -16z" />
<glyph unicode="?" horiz-adv-x="500" d="M242 131h-25q-4 13 -7 36.5t-3 36.5q0 36 18.5 67.5t46 61.5t55 60.5t46 65t18.5 75.5q0 42 -20.5 71.5t-53 45.5t-69.5 16q-43 0 -88.5 -19.5t-80.5 -55.5l-16 19q36 37 84.5 60.5t105.5 23.5q49 0 87 -20t60.5 -56t22.5 -86q0 -47 -18.5 -83.5t-46 -66.5t-55 -59 t-46 -60.5t-18.5 -71.5q0 -10 1 -29t2 -32zM266 1q0 -17 -7 -30.5t-23 -13.5q-13 0 -20.5 11t-7.5 26q0 17 8.5 30t22.5 13q13 0 20 -10t7 -26z" />
<glyph unicode="@" horiz-adv-x="1122" d="M727 -123q-40 -27 -100 -49.5t-139 -22.5q-110 0 -194 48t-131.5 133t-47.5 195q0 86 29 163.5t80 141.5t118 111t144.5 72.5t158.5 25.5q108 0 189.5 -44.5t127 -122.5t45.5 -178q0 -61 -17.5 -124t-50 -116.5t-78.5 -86.5t-103 -33q-54 0 -83.5 30t-35 79.5t11.5 106.5 h-4q-14 -33 -34.5 -70.5t-47 -70.5t-58.5 -54t-68 -21q-48 0 -76 38.5t-28 105.5q0 49 15.5 102t44.5 101.5t68.5 87.5t87.5 62t101 23q18 0 42.5 -3.5t47.5 -11.5l-46 -187q-5 -20 -13.5 -56t-13 -77.5t0 -78.5t25 -60.5t62.5 -23.5q46 0 86 28.5t71 76.5t48.5 107.5 t17.5 121.5q0 99 -44 172.5t-120 114t-174 40.5q-73 0 -145 -23t-136 -66t-113 -103t-77.5 -134t-28.5 -160q0 -104 43.5 -185.5t122.5 -128t185 -46.5q76 0 130 21t94 45zM435 14q35 0 68.5 28t64 73.5t55.5 99t43.5 104.5t27.5 90l16 67q-16 4 -34 7t-35 3 q-54 0 -103.5 -30t-88 -81t-60.5 -114.5t-22 -131.5q0 -54 16.5 -84.5t51.5 -30.5z" />
<glyph unicode="A" horiz-adv-x="560" d="M68 0h-33l179 532l39 118l52 10l220 -660h-33l-61 182h-302zM280 628l-140 -416h281l-140 416h-1z" />
<glyph unicode="B" horiz-adv-x="579" d="M266 0h-146v535l-8 115h144q99 0 152 -44.5t53 -114.5q0 -54 -30.5 -94t-84.5 -57q70 -13 109 -56.5t39 -106.5q0 -80 -61.5 -128.5t-166.5 -48.5zM250 624h-98v-274h104q83 0 127 39t44 102q0 60 -45 96.5t-132 36.5zM266 324h-114v-298h120q91 0 139.5 42t48.5 109 q0 70 -51 108.5t-143 38.5z" />
<glyph unicode="C" horiz-adv-x="533" d="M482 57l6 -28q-31 -19 -71.5 -29t-80.5 -10q-83 0 -141.5 42.5t-89.5 118t-30 174.5t32.5 174.5t90.5 118t141 42.5q38 0 77 -8.5t70 -25.5l-11 -34q-28 21 -66 32.5t-76 11.5q-72 0 -122.5 -39.5t-76.5 -109.5t-25 -162q1 -91 28.5 -161t79 -109.5t123.5 -39.5 q40 0 78 11t64 31z" />
<glyph unicode="D" horiz-adv-x="636" d="M120 535l-8 115h146q98 0 166 -41.5t103 -114.5t34 -169t-37.5 -169t-105 -114.5t-166.5 -41.5h-132v535zM252 624h-100v-598h106q88 0 148 38t91 105.5t30 155.5t-33 155.5t-93 105.5t-149 38z" />
<glyph unicode="E" horiz-adv-x="496" d="M436 0h-316v535l-8 115h329l-5 -31l-284 5v-289l199 3l-5 -31l-194 2v-283l289 5z" />
<glyph unicode="F" horiz-adv-x="461" d="M152 0h-32v535l-8 115h329l-5 -31l-284 5v-304l199 3l-5 -31l-194 2v-294z" />
<glyph unicode="G" horiz-adv-x="612" d="M512 29q-31 -19 -73 -29t-85 -10q-88 0 -151 42.5t-96 118t-32 174.5t35 174.5t97.5 118t151.5 42.5q39 0 78 -8.5t70 -25.5l-11 -34q-61 44 -148 44q-75 0 -129 -39.5t-82.5 -109.5t-27.5 -162q1 -91 31 -161t86 -109.5t134 -39.5q67 0 120 26v102l-8 115l40 10v-239z " />
<glyph unicode="H" horiz-adv-x="668" d="M152 0h-32v535l-8 115l40 10v-333h364v208l-8 115l40 10v-660h-32v297h-364v-297z" />
<glyph unicode="I" horiz-adv-x="272" d="M152 0h-32v535l-8 115l40 10v-660z" />
<glyph unicode="J" horiz-adv-x="270" d="M19 -171q54 24 77.5 64t23.5 98v544l-8 115l38 10v-660q0 -64 -27.5 -117t-99.5 -78z" />
<glyph unicode="K" horiz-adv-x="529" d="M120 535l-8 115l41 10v-328h90l212 328l34 -10l-218 -333l218 -317l-34 -10l-212 312h-90v-302h-33v535z" />
<glyph unicode="L" horiz-adv-x="466" d="M436 0h-316v535l-8 115l40 10v-634l289 5z" />
<glyph unicode="M" horiz-adv-x="873" d="M202 620h-1l-77 -620h-34l88 650l45 10l212 -635h2l211 625l43 10l92 -660h-35l-78 620h-1l-211 -620h-44z" />
<glyph unicode="N" horiz-adv-x="670" d="M120 535l-8 115l50 10l357 -632h2l-6 622l35 10v-660h-49l-352 623h-2l6 -623h-33v535z" />
<glyph unicode="O" horiz-adv-x="661" d="M586 325q-1 -99 -33 -174.5t-89.5 -118t-135.5 -42.5t-135 42.5t-88 118t-30 174.5t33 174.5t90 118t136 42.5t134.5 -42.5t87.5 -118t30 -174.5zM109 325q1 -91 29 -161.5t78 -110t118 -39.5t117 39.5t75.5 110t25.5 161.5q-1 92 -29 162t-77.5 109.5t-117.5 39.5 t-117.5 -39.5t-76 -109.5t-25.5 -162z" />
<glyph unicode="P" horiz-adv-x="516" d="M152 0h-32v535l-8 115h127q107 0 164.5 -55.5t57.5 -141.5q0 -92 -61.5 -147.5t-166.5 -55.5h-81v-250zM233 624h-81v-348h87q91 0 139.5 49t48.5 128q0 77 -49 124t-145 47z" />
<glyph unicode="Q" horiz-adv-x="661" d="M512 -124q-89 0 -142.5 24t-60.5 91q-73 5 -125.5 49t-81 117.5t-27.5 167.5q1 99 33 174.5t90 118t136 42.5t134.5 -42.5t87.5 -118t30 -174.5q-1 -96 -31.5 -170t-85.5 -117.5t-129 -47.5q4 -45 43 -67.5t110 -22.5q29 0 65 4t63 11v-31q-25 -4 -52 -6t-57 -2zM109 325 q1 -91 29 -161.5t78 -110t118 -39.5t117 39.5t75.5 110t25.5 161.5q-1 92 -29 162t-77.5 109.5t-117.5 39.5t-117.5 -39.5t-76 -109.5t-25.5 -162z" />
<glyph unicode="R" horiz-adv-x="539" d="M152 0h-32v535l-8 115h127q107 0 164.5 -52.5t57.5 -134.5q0 -69 -39 -117t-108 -66l175 -280l-34 -10l-176 283q-22 -3 -46 -3h-81v-270zM233 624h-81v-328h87q91 0 139.5 46t48.5 121q0 73 -49 117t-145 44z" />
<glyph unicode="S" horiz-adv-x="479" d="M414 144q0 -43 -23 -78t-65 -55.5t-101 -20.5q-43 0 -85.5 10.5t-74.5 25.5l6 35q21 -14 64.5 -30.5t95.5 -16.5q50 0 83 18t49.5 46.5t16.5 61.5q0 41 -21.5 71t-55.5 54.5t-71.5 47.5t-71.5 49.5t-55.5 60t-21.5 79.5q0 68 50.5 113t138.5 45q35 0 70 -7.5t63 -21.5 l-6 -35q-15 11 -51 25.5t-83 14.5q-72 0 -110 -38t-38 -89q0 -41 21.5 -72t55.5 -56.5t71.5 -49.5t71.5 -50.5t55.5 -59.5t21.5 -77z" />
<glyph unicode="T" horiz-adv-x="470" d="M252 0h-32v624l-195 -5l5 31h410l5 -31l-193 5v-624z" />
<glyph unicode="U" horiz-adv-x="638" d="M321 14q78 0 124 52t46 134v335l-8 115l40 10v-460q0 -61 -26 -108.5t-72.5 -74.5t-109.5 -27q-61 0 -106 27t-69.5 74.5t-24.5 108.5v335l-8 115l40 10v-460q0 -54 22 -96t61 -66t91 -24z" />
<glyph unicode="V" horiz-adv-x="553" d="M489 660l29 -10l-217 -650h-49l-217 650l29 10l212 -635h1z" />
<glyph unicode="W" horiz-adv-x="873" d="M217 0l-182 650l29 10l177 -635h1l179 625h32l178 -625h1l177 635l29 -10l-182 -650h-47l-171 600h-2l-172 -600h-47z" />
<glyph unicode="X" horiz-adv-x="558" d="M45 0l212 327l-199 323l29 10l192 -313l192 313l29 -10l-198 -324l211 -326h-35l-199 307l-199 -307h-35z" />
<glyph unicode="Y" horiz-adv-x="517" d="M274 0h-32v212l-217 438l29 10l204 -410h1l204 410l29 -10l-218 -438v-212z" />
<glyph unicode="Z" horiz-adv-x="503" d="M453 0h-402l-6 18l367 604h-138t-92.5 -0.5t-67.5 -2t-61 -4.5l5 35h388l6 -18l-367 -604h138.5t93 1.5t70.5 5t71 10.5z" />
<glyph unicode="[" horiz-adv-x="298" d="M80 685h176v-24h-143v-772h143v-24h-176v820z" />
<glyph unicode="\" horiz-adv-x="342" d="M245 -11l-175 700l27 6l175 -700z" />
<glyph unicode="]" horiz-adv-x="298" d="M218 685v-820h-176v24h143v772h-143v24h176z" />
<glyph unicode="^" horiz-adv-x="525" d="M124 190h-34l160 335h20l165 -335h-33l-142 299z" />
<glyph unicode="_" horiz-adv-x="340" d="M0 -143v26h340v-26h-340z" />
<glyph unicode="`" horiz-adv-x="255" d="M182 587l-14 -5q-27 29 -51 66t-43 83l36 2q25 -78 72 -146z" />
<glyph unicode="a" horiz-adv-x="491" d="M378 -10q-10 20 -15.5 36.5t-8.5 37.5q-16 -16 -42.5 -33.5t-60 -29t-69.5 -11.5q-57 0 -89.5 32t-32.5 79q0 44 25.5 76.5t68 54t94.5 32t105 11.5v93q0 56 -27.5 87t-86.5 31q-40 0 -77.5 -14t-70.5 -40l-10 28q29 20 70.5 35t87.5 15q68 0 106 -35.5t38 -103.5v-29.5 t-0.5 -57.5t-1 -67t-0.5 -60.5v-35.5q0 -38 5.5 -64t19.5 -57zM92 104q0 -40 26.5 -65t74.5 -25q28 0 59 11t57.5 28.5t43.5 38.5v160q-67 -1 -127 -16.5t-97 -48t-37 -83.5z" />
<glyph unicode="b" horiz-adv-x="525" d="M85 685l38 10v-244q63 59 145 59q86 0 139 -65t53 -182q0 -128 -65 -200.5t-175 -72.5q-16 0 -36.5 1.5t-38.5 3.5t-26 4l-26 -9v580zM261 486q-85 0 -138 -73v-379q19 -7 47.5 -13.5t58.5 -6.5q55 0 100 27t72 81.5t27 135.5q0 106 -46 167t-121 61z" />
<glyph unicode="c" horiz-adv-x="464" d="M403 477l-6 -35q-17 16 -47.5 29.5t-71.5 13.5q-49 0 -90 -26t-66 -79t-25 -133q0 -112 48.5 -172t130.5 -60q37 0 70.5 11t57.5 26l-2 -31q-22 -11 -55.5 -21t-73.5 -10q-99 0 -153.5 66t-54.5 181q0 92 31.5 152.5t83.5 90.5t112 30q65 0 111 -33z" />
<glyph unicode="d" horiz-adv-x="542" d="M429 -10q-15 28 -22 62q-31 -31 -70 -46.5t-80 -15.5q-85 0 -138.5 64t-53.5 180q0 92 32.5 153.5t84 92t108.5 30.5q65 0 112 -36v96l-8 115l38 10v-549q0 -42 5.5 -75t19.5 -71zM97 240q0 -108 47 -167t121 -59q40 0 75.5 17.5t61.5 52.5v6v347q-46 49 -119 49 q-55 0 -97 -30t-65.5 -85t-23.5 -131z" />
<glyph unicode="e" horiz-adv-x="487" d="M402 21q-22 -11 -55.5 -21t-74.5 -10q-98 0 -152.5 65.5t-54.5 181.5q0 80 25 141.5t70.5 96.5t104.5 35q73 0 117.5 -50.5t44.5 -132.5v-28t-1 -29l-5 -15h-324v-6q0 -115 48.5 -174.5t130.5 -59.5q37 0 70.5 11t57.5 26zM265 486q-67 0 -113.5 -53t-53.5 -154l296 6 q1 11 1 20.5v20.5q0 74 -34 117t-96 43z" />
<glyph unicode="f" horiz-adv-x="276" d="M125 0h-30v455l-65 1v15l65 5v2q-7 23 -12.5 50t-5.5 49q0 55 34 86.5t92 31.5q22 0 41 -4t32 -10l-6 -28q-39 17 -80 17q-35 0 -58 -21.5t-23 -72.5q0 -22 4 -51t10 -49h147l-2 -25l-143 3v-454z" />
<glyph unicode="g" horiz-adv-x="471" d="M119 114q0 17 10.5 32t28.5 24q-39 19 -62.5 58.5t-23.5 95.5q0 53 21 95t59 66.5t89 24.5h70.5t63 1.5t76.5 3.5v-31l-143 4v-1q38 -17 60 -60.5t22 -93.5q0 -53 -21.5 -93.5t-58.5 -62.5t-83 -22q-26 0 -50 8q-13 -9 -20.5 -20.5t-7.5 -24.5q0 -22 17.5 -32.5t38.5 -14 t31 -4.5l56 -5q74 -7 116 -34t42 -77q0 -41 -29 -74.5t-81 -52.5t-122 -19q-88 0 -138 31t-50 84q0 36 20.5 63.5t51 45.5t60.5 28q-18 7 -30.5 21.5t-12.5 35.5zM104 330q0 -62 33 -106.5t97 -44.5q61 0 92.5 42.5t31.5 111.5q0 42 -12.5 77t-39.5 55.5t-69 20.5t-72 -21.5 t-45.5 -56.5t-15.5 -78zM62 -75q0 -44 42 -70t116 -26q58 0 102.5 15.5t70 42.5t25.5 61q0 39 -35 62.5t-99 28.5l-79 7q-39 -7 -71.5 -24t-52 -42t-19.5 -55z" />
<glyph unicode="h" horiz-adv-x="524" d="M123 0h-30v570l-8 115l38 10v-264q74 79 169 79q53 0 84 -24.5t44.5 -63t13.5 -81.5v-341h-30v330q0 78 -31 117t-87 39q-90 0 -163 -88v-398z" />
<glyph unicode="i" horiz-adv-x="213" d="M140 659q0 -17 -7 -30.5t-23 -13.5q-13 0 -20.5 11t-7.5 26q0 17 8.5 30t22.5 13q13 0 20 -10t7 -26zM123 0h-30v385l-8 115l38 10v-510z" />
<glyph unicode="j" horiz-adv-x="213" d="M135 659q0 -17 -7 -30.5t-23 -13.5q-13 0 -20.5 11t-7.5 26q0 17 8.5 30t22.5 13q13 0 20 -10t7 -26zM11 -177q39 30 60.5 66t21.5 98v398l-8 115l38 10v-526q0 -61 -26 -104t-75 -76z" />
<glyph unicode="k" horiz-adv-x="457" d="M123 0h-30v570l-8 115l38 10v-414h86l187 229l24 -10l-188 -232l210 -268l-29 -10l-204 266h-86v-256z" />
<glyph unicode="l" horiz-adv-x="213" d="M123 0h-30v570l-8 115l38 10v-695z" />
<glyph unicode="m" horiz-adv-x="803" d="M123 0h-30v385l-8 115l38 10v-79q35 38 77.5 58.5t83.5 20.5q49 0 79 -26.5t43 -65.5q37 44 83.5 68t89.5 24q48 0 77.5 -24.5t43 -63t13.5 -81.5v-341h-30v330q0 78 -30.5 117t-79.5 39q-38 0 -81 -24t-79 -70q5 -24 5 -51v-341h-30v330q0 78 -30.5 117t-79.5 39 q-37 0 -79 -22.5t-76 -65.5v-398z" />
<glyph unicode="n" horiz-adv-x="524" d="M123 0h-30v385l-8 115l38 10v-79q74 79 169 79q53 0 84 -24.5t44.5 -63t13.5 -81.5v-341h-30v330q0 78 -31 117t-87 39q-90 0 -163 -88v-398z" />
<glyph unicode="o" horiz-adv-x="547" d="M482 264q0 -92 -32.5 -153t-83.5 -91t-109 -30q-85 0 -138.5 64t-53.5 180q0 92 32.5 153.5t84 92t108.5 30.5q86 0 139 -65t53 -181zM97 240q0 -108 47 -167t121 -59q49 0 91 27t68 81t26 135q0 106 -45.5 167.5t-122.5 61.5q-49 0 -91 -27.5t-68 -82t-26 -136.5z" />
<glyph unicode="p" horiz-adv-x="525" d="M93 385l-8 115l38 10v-57q30 29 67.5 43t77.5 14q86 0 139 -64t53 -180q0 -92 -32.5 -153.5t-83.5 -92t-109 -30.5q-65 0 -112 36v-65q0 -42 2 -75t8 -71l-40 -10v580zM260 486q-40 0 -75.5 -17.5t-61.5 -52.5v-353q46 -49 119 -49q55 0 97 30t65.5 85.5t23.5 130.5 q0 108 -47 167t-121 59z" />
<glyph unicode="q" horiz-adv-x="527" d="M442 -185l-40 -10v244q-63 -59 -147 -59q-55 0 -98 29t-67.5 84.5t-24.5 132.5q0 86 30.5 147.5t86 94t130.5 32.5q25 0 54.5 -3t40.5 -5l25 8v-549q0 -42 2 -75t8 -71zM97 242q0 -106 46 -167t121 -61q85 0 138 73v380q-17 7 -43 13t-56 6q-57 0 -103.5 -27t-74.5 -81 t-28 -136z" />
<glyph unicode="r" horiz-adv-x="327" d="M123 0h-30v385l-8 115l38 10v-119q25 60 65 89.5t86 29.5q9 0 20 -1t18 -3l-6 -32q-6 2 -15.5 4t-22.5 2q-43 0 -80 -29t-65 -95v-356z" />
<glyph unicode="s" horiz-adv-x="409" d="M359 116q0 -55 -44.5 -90.5t-121.5 -35.5q-40 0 -77 10.5t-66 25.5l6 35q21 -16 58.5 -31.5t85.5 -15.5q63 0 95 29.5t32 69.5q0 33 -18.5 55.5t-48 39.5t-61.5 33t-62 34t-48.5 43.5t-18.5 62.5q0 56 44 92.5t120 36.5q34 0 64 -7.5t54 -21.5l-6 -35q-17 14 -47.5 27 t-72.5 13q-58 0 -91 -29.5t-33 -70.5q0 -30 15.5 -51.5t41 -38t54.5 -31.5q35 -18 68.5 -37.5t55.5 -45.5t22 -66z" />
<glyph unicode="t" horiz-adv-x="369" d="M328 451l-193 3v-320q0 -25 4 -53t23 -47.5t64 -19.5q35 0 63 11.5t44 22.5l6 -27q-19 -12 -51 -21.5t-67 -9.5q-54 0 -85 30t-31 100v335l-55 1v15l56 5l9 155l20 3v-158h195z" />
<glyph unicode="u" horiz-adv-x="525" d="M90 159v341l30 10v-340q0 -78 30.5 -117t79.5 -39q38 0 79.5 22.5t75.5 65.5v398l30 10v-405q0 -26 5.5 -53.5t19.5 -51.5l-28 -10q-23 37 -26 79q-35 -38 -78 -58.5t-84 -20.5q-47 0 -77 24.5t-43.5 63t-13.5 81.5z" />
<glyph unicode="v" horiz-adv-x="441" d="M411 501q-41 -127 -85 -251.5t-91 -249.5h-29l-176 501l30 9l162 -476h2l162 476z" />
<glyph unicode="w" horiz-adv-x="708" d="M184 0l-154 501l30 9l140 -476h2l138 476h31l140 -476h2l140 476l25 -9q-34 -121 -72 -244.5t-82 -256.5h-29l-140 475h-1q-29 -108 -64.5 -227.5t-76.5 -247.5h-29z" />
<glyph unicode="x" horiz-adv-x="461" d="M372 0l-143 233l-143 -233h-30q37 63 76 125t79 122l-156 253l26 10l152 -244l144 244l28 -5q-38 -65 -76 -127.5t-78 -124.5l155 -253h-34z" />
<glyph unicode="y" horiz-adv-x="445" d="M11 -195q-33 0 -65 9v28q16 -5 39.5 -9t42.5 -4q62 0 111.5 44t77.5 127h-7l-176 501l30 9l162 -476h2l162 476l25 -9q-21 -65 -50 -149t-61 -175.5t-64 -177.5q-28 -74 -61.5 -116.5t-74.5 -60t-93 -17.5z" />
<glyph unicode="z" horiz-adv-x="420" d="M370 0h-321l-6 16l286 461h-77q-54 0 -108 -2t-104 -7l12 32h306l6 -16l-285 -461h74q58 0 115 3.5t112 10.5z" />
<glyph unicode="{" horiz-adv-x="289" d="M158 163q0 40 -24.5 68t-83.5 34v30q57 6 82.5 32.5t25.5 72.5q0 33 -9 60t-18.5 55t-9.5 64q0 59 35.5 87.5t109.5 28.5l1 -24q-61 -1 -87.5 -24t-26.5 -67q0 -32 9.5 -61.5t18.5 -59t9 -61.5q0 -50 -28 -80t-66 -39q37 -9 65.5 -38.5t28.5 -76.5q0 -28 -9 -58.5 t-18.5 -62t-9.5 -63.5q0 -44 26.5 -67t87.5 -24l-1 -24q-76 0 -110.5 29t-34.5 87q0 36 9.5 66t18.5 58.5t9 57.5z" />
<glyph unicode="|" horiz-adv-x="224" d="M124 -202l-24 -3v897l24 3v-897z" />
<glyph unicode="}" horiz-adv-x="289" d="M239 265l-108 -102q0 -29 9.5 -57.5t18.5 -58.5t9 -66q0 -58 -34.5 -87t-110.5 -29l-1 24q62 1 88 24t26 67q0 32 -9 63.5t-18.5 61.5t-9.5 59q0 47 28.5 76.5t65.5 38.5q-39 9 -66.5 39t-27.5 80q0 32 9.5 61.5t18.5 59t9 61.5q0 44 -26 67t-88 24l1 24 q74 0 109.5 -28.5t35.5 -87.5q0 -36 -9 -64t-18.5 -55t-9.5 -60q0 -46 25.5 -72.5t82.5 -32.5v-30z" />
<glyph unicode="~" horiz-adv-x="618" d="M181 279q-10 0 -28.5 -20t-38.5 -46l-14 8q10 18 22.5 38.5t27.5 34.5t32 14t51.5 -9t74.5 -21.5t75.5 -21.5t53.5 -9q10 0 28 19.5t39 46.5l14 -8q-9 -18 -21.5 -38t-27.5 -34.5t-33 -14.5q-13 0 -39 6t-58 15.5t-63.5 18.5t-57 15t-37.5 6z" />
<glyph unicode="&#xa0;" />
<glyph unicode="&#xa1;" horiz-adv-x="258" d="M100 499q0 17 7 30.5t23 13.5q14 0 21 -11t7 -26q0 -17 -8.5 -30t-22.5 -13q-13 0 -20 10t-7 26zM115 377h25v-120.5v-140.5t1 -141.5t4 -124.5l-37 -10q-1 29 -2 70t-1 87q0 92 3 187.5t7 192.5z" />
<glyph unicode="&#xa2;" horiz-adv-x="464" d="M286 -119l-30 -3v113q-91 5 -141 70.5t-50 175.5q0 88 29 147t77 90.5t105 34.5v110l30 3v-112q57 -4 97 -33l-6 -35q-17 16 -47.5 29.5t-71.5 13.5q-49 0 -90 -26t-66 -79t-25 -133q0 -112 48.5 -172t130.5 -60q37 0 70.5 11t57.5 26l-2 -31q-20 -10 -50 -19.5 t-66 -11.5v-109z" />
<glyph unicode="&#xa3;" horiz-adv-x="494" d="M416 320l-183 3l-6 -83q-6 -82 -35.5 -142t-73.5 -88q34 -17 74 -39.5t85.5 -39t95.5 -16.5q26 0 51.5 4.5t38.5 11.5l-12 -32q-11 -4 -33.5 -7t-41.5 -3q-47 0 -94.5 16.5t-94 42t-89.5 52.5q-23 -10 -47 -10q-21 0 -28.5 6t-7.5 14q0 11 10.5 16.5t23.5 5.5 q19 0 46 -11q32 17 64 72.5t38 145.5l6 84l-108 2v17l109 5h1q6 76 14.5 139.5t27 110.5t53.5 72.5t92 25.5q26 0 47.5 -5.5t39.5 -13.5l-11 -38q-16 13 -40 22.5t-54 9.5q-46 0 -72 -23.5t-38.5 -66.5t-18 -102.5t-11.5 -130.5h184z" />
<glyph unicode="&#xa4;" horiz-adv-x="543" d="M457 66l-81 82q-21 -21 -50 -33.5t-64 -12.5q-31 0 -57 9.5t-47 25.5l-71 -72l-21 21l71 71q-39 47 -39 110q0 68 44 119l-77 77l21 21q20 -20 40 -40.5t37 -37.5q21 17 47.5 26.5t57.5 9.5q32 0 58.5 -10.5t47.5 -28.5l80 81l21 -21l-82 -82q37 -46 37 -106 q0 -59 -35 -106q23 -23 45.5 -44t37.5 -36zM128 270q0 -56 35.5 -97t100.5 -41q44 0 74.5 20.5t46 53t15.5 67.5q0 36 -16 67.5t-46 51.5t-72 20t-73 -20t-48 -52t-17 -70z" />
<glyph unicode="&#xa5;" horiz-adv-x="517" d="M71 114v23h171v74h-171v23h160l-206 416l29 10l204 -410h1l204 410l29 -10l-207 -416h156v-23h-167v-74h167v-23h-167v-114h-32v114h-171z" />
<glyph unicode="&#xa6;" horiz-adv-x="324" d="M174 347l-24 -3v348l24 3v-348zM174 -202l-24 -3v352l24 3v-352z" />
<glyph unicode="&#xa7;" horiz-adv-x="511" d="M446 30q0 -89 -54.5 -144.5t-152.5 -55.5q-42 0 -74.5 10.5t-57.5 25.5l6 55q13 -13 44 -30t71 -17q48 0 81 29.5t33 80.5q0 40 -20 74.5t-51.5 66.5t-67 65.5t-67 72t-51.5 85.5t-20 106q0 95 55.5 150.5t151.5 55.5q38 0 65.5 -7.5t49.5 -21.5l-6 -55q-10 11 -36 25.5 t-64 14.5q-50 0 -81 -30.5t-31 -80.5q0 -41 20 -76.5t51.5 -69t67 -68.5t67 -73.5t51.5 -84.5t20 -103zM328 -125l1 -1q42 25 64.5 65.5t22.5 90.5t-20 92t-51.5 78.5t-67 71t-67 70t-51.5 75t-20 86.5q0 62 39 105l-1 1q-40 -24 -61 -64t-21 -90q0 -53 20 -95.5t51.5 -79 t67 -70t67 -67.5t51.5 -72.5t20 -84.5q0 -33 -11.5 -60.5t-32.5 -50.5z" />
<glyph unicode="&#xa8;" d="M130 659q0 -16 -7 -28.5t-24 -12.5q-14 0 -21.5 10t-7.5 24q0 17 8.5 29t23.5 12q14 0 21 -10t7 -24zM295 659q0 -16 -7 -28.5t-24 -12.5q-14 0 -21.5 10t-7.5 24q0 17 8.5 29t23.5 12q14 0 21 -10t7 -24z" />
<glyph unicode="&#xa9;" horiz-adv-x="652" d="M323 -22q-76 0 -138 36t-98.5 97.5t-36.5 136.5q0 57 21.5 107t59.5 87.5t88.5 58.5t108.5 21q57 0 107 -21t87.5 -58.5t58.5 -86.5t21 -105t-21.5 -105.5t-59.5 -87t-88.5 -59t-109.5 -21.5zM324 0q71 0 128 34t90.5 91t33.5 125q0 69 -34 126t-90.5 90.5t-125.5 33.5 q-68 0 -125 -33.5t-91 -90.5t-34 -128q0 -69 33 -125.5t89.5 -89.5t125.5 -33zM417 126l4 -22q-38 -19 -87 -19q-72 0 -111 48t-38 122q1 78 41.5 125t109.5 47q23 0 45 -5t39 -13l-7 -24q-16 9 -36 15t-43 6q-58 0 -89.5 -42t-30.5 -108t33.5 -108t91.5 -42q20 0 42 5 t36 15z" />
<glyph unicode="&#xaa;" horiz-adv-x="437" d="M318 365q-7 13 -11 26t-6 27q-18 -17 -51.5 -35t-73.5 -18q-41 0 -65 23t-24 57q0 43 32 70.5t81 41t100 13.5v63q0 39 -20 61t-62 22q-31 0 -58 -10.5t-50 -27.5l-7 26q22 14 53 24.5t65 10.5q52 0 80.5 -26t28.5 -77q0 -5 -0.5 -29.5t-0.5 -55t-0.5 -56.5t-0.5 -34 q0 -26 4 -46t14 -43zM118 450q0 -28 19 -46t52 -18q30 0 62.5 16.5t48.5 37.5v113q-49 -1 -90.5 -12t-66.5 -33.5t-25 -57.5z" />
<glyph unicode="&#xab;" horiz-adv-x="464" d="M226 288v8q42 44 82.5 91.5t84.5 107.5l11 -7q-29 -49 -67 -101.5t-72 -94.5q34 -42 72 -94.5t67 -101.5l-11 -7q-44 60 -84.5 108t-82.5 91zM60 288v8q42 44 82.5 91.5t84.5 107.5l11 -7q-29 -49 -67 -101.5t-72 -94.5q34 -42 72 -94.5t67 -101.5l-11 -7 q-44 60 -84.5 108t-82.5 91z" />
<glyph unicode="&#xac;" horiz-adv-x="566" d="M495 333v-201h-29v171h-359v25q32 1 82.5 2t107.5 1.5t109.5 1t88.5 0.5z" />
<glyph unicode="&#xae;" horiz-adv-x="652" d="M323 -22q-76 0 -138 36t-98.5 97.5t-36.5 136.5q0 57 21.5 107t59.5 87.5t88.5 58.5t108.5 21q57 0 107 -21t87.5 -58.5t58.5 -86.5t21 -105t-21.5 -105.5t-59.5 -87t-88.5 -59t-109.5 -21.5zM324 0q71 0 128 34t90.5 91t33.5 125q0 69 -34 126t-90.5 90.5t-125.5 33.5 q-68 0 -125 -33.5t-91 -90.5t-34 -128q0 -69 33 -125.5t89.5 -89.5t125.5 -33zM262 89h-27v272l-5 60h78q61 0 94 -27.5t33 -70.5q0 -35 -21.5 -59.5t-58.5 -34.5l95 -140l-29 -5l-93 140q-11 -1 -24 -1h-42v-134zM304 402h-42v-161h45q49 0 74.5 23t25.5 59q0 35 -26 57 t-77 22z" />
<glyph unicode="&#xaf;" horiz-adv-x="340" d="M70 646v26h200v-26h-200z" />
<glyph unicode="&#xb0;" horiz-adv-x="367" d="M183 324q-49 0 -81 32t-32 80t31 83t83 35t82.5 -31.5t30.5 -78.5q0 -51 -31 -85.5t-83 -34.5zM184 526q-38 0 -60.5 -26.5t-22.5 -62.5q0 -37 23 -61t59 -24q38 0 60.5 26t22.5 65q0 35 -22 59t-60 24z" />
<glyph unicode="&#xb1;" horiz-adv-x="589" d="M484 348h-175v-162h-28v162h-181v23q32 1 80 1.5t101 0.5v163h28v-163q51 1 97.5 1h78.5zM484 71h-384v23q33 1 83.5 1.5t107 1t108 0.5h86.5z" />
<glyph unicode="&#xb2;" horiz-adv-x="369" d="M283 372h-234l-4 16q56 46 103 89t75 83.5t28 78.5q0 35 -25 55.5t-66 20.5q-29 0 -55 -9.5t-49 -23.5l-6 25q22 12 53.5 21t63.5 9q51 0 84 -25.5t33 -71.5q0 -39 -27 -78.5t-74.5 -80.5t-107.5 -86h79q35 0 69 2t66 6z" />
<glyph unicode="&#xb3;" horiz-adv-x="348" d="M278 467q0 -44 -39 -73t-110 -29q-25 0 -47.5 3.5t-41.5 9.5l4 21q21 -7 41.5 -10.5t42.5 -3.5q57 0 87 24.5t30 58.5q0 26 -17 42t-44 23.5t-56 7.5q-11 0 -21 -1t-18 -3v16q73 15 106.5 43.5t33.5 57.5q0 27 -22.5 44t-61.5 17q-25 0 -47.5 -6.5t-45.5 -18.5l-3 21 q17 10 45 18t60 8q47 0 77 -21t30 -57q0 -31 -27.5 -58.5t-87.5 -44.5q62 -3 97 -25t35 -64z" />
<glyph unicode="&#xb4;" horiz-adv-x="256" d="M182 731q-19 -46 -43 -83t-51 -66l-14 5q47 68 72 146z" />
<glyph unicode="&#xb6;" horiz-adv-x="590" d="M267 -147q46 0 75 15t45 38.5t23 50t8.5 50.5t1.5 39v582h-50v-433h-31q-61 0 -112.5 27t-82 78.5t-30.5 124.5q0 75 31.5 125t83.5 75t115 25h106v-604q0 -105 -44.5 -161t-130.5 -56q-33 0 -74.5 7t-72.5 17l4 26q33 -11 68 -18.5t67 -7.5z" />
<glyph unicode="&#xb7;" horiz-adv-x="210" d="M104 208q-13 0 -21 9.5t-8 22.5q0 14 9 25t23 11t21 -8.5t7 -22.5q0 -13 -7.5 -25t-23.5 -12z" />
<glyph unicode="&#xb8;" horiz-adv-x="280" d="M171 -110q0 14 -15.5 24.5t-51.5 14.5l25 71h24l-19 -54q69 -13 69 -53q0 -21 -17 -35.5t-43 -22.5t-54 -9l-1 18q39 5 61 17t22 29z" />
<glyph unicode="&#xb9;" horiz-adv-x="297" d="M157 372h-30v337l-72 -28l-5 19l104 37l3 -2v-363z" />
<glyph unicode="&#xba;" horiz-adv-x="485" d="M397 562q0 -67 -24 -110.5t-62 -65t-80 -21.5q-64 0 -103.5 46t-39.5 130q0 66 24 110t62 66t80 22q63 0 103 -46.5t40 -130.5zM120 545q0 -75 32.5 -117t84.5 -42q51 0 89.5 42.5t38.5 128.5q0 75 -32 118t-85 43q-51 0 -89.5 -43t-38.5 -130z" />
<glyph unicode="&#xbb;" horiz-adv-x="464" d="M238 288q-42 -43 -82.5 -91t-84.5 -108l-11 7q29 49 67 101.5t72 94.5q-34 42 -72 94.5t-67 101.5l11 7q44 -60 84.5 -107.5t82.5 -91.5v-8zM404 288q-42 -43 -82.5 -91t-84.5 -108l-11 7q29 49 67 101.5t72 94.5q-34 42 -72 94.5t-67 101.5l11 7q44 -60 84.5 -107.5 t82.5 -91.5v-8z" />
<glyph unicode="&#xbc;" horiz-adv-x="827" d="M162 -10h-31l400 670h30zM157 292h-30v337l-72 -28l-5 19l104 37l3 -2v-363zM626 0h-30v85h-181l-4 14l193 266l22 -5v-249q32 2 61 5l-6 -31h-55v-85zM550 108q22 0 46 1v213l-157 -214h111z" />
<glyph unicode="&#xbd;" horiz-adv-x="812" d="M161 -10h-31l400 670h30zM157 292h-30v337l-72 -28l-5 19l104 37l3 -2v-363zM726 0h-234l-4 16q56 46 103 89t75 83.5t28 78.5q0 35 -25 55.5t-66 20.5q-29 0 -55 -9.5t-49 -23.5l-6 25q22 12 53.5 21t63.5 9q51 0 84 -25.5t33 -71.5q0 -39 -27 -78.5t-74.5 -80.5 t-107.5 -86h79q35 0 69 2t66 6z" />
<glyph unicode="&#xbe;" horiz-adv-x="848" d="M243 -10h-31l400 670h30zM278 387q0 -44 -39 -73t-110 -29q-25 0 -47.5 3.5t-41.5 9.5l4 21q21 -7 41.5 -10.5t42.5 -3.5q57 0 87 24.5t30 58.5q0 26 -17 42t-44 23.5t-56 7.5q-11 0 -21 -1t-18 -3v16q73 15 106.5 43.5t33.5 57.5q0 27 -22.5 44t-61.5 17 q-25 0 -47.5 -6.5t-45.5 -18.5l-3 21q17 10 45 18t60 8q47 0 77 -21t30 -57q0 -31 -27.5 -58.5t-87.5 -44.5q62 -3 97 -25t35 -64zM707 0h-30v85h-181l-4 14l193 266l22 -5v-249q32 2 61 5l-6 -31h-55v-85zM631 108q22 0 46 1v213l-157 -214h111z" />
<glyph unicode="&#xbf;" horiz-adv-x="500" d="M234 499q0 17 7 30.5t23 13.5q14 0 21 -11t7 -26q0 -17 -8.5 -30t-22.5 -13q-13 0 -20 10t-7 26zM258 369h25q5 -13 7.5 -36.5t2.5 -36.5q0 -36 -18.5 -67.5t-46 -61.5t-55 -60.5t-46 -65t-18.5 -75.5t20.5 -71t53 -46t69.5 -16q43 0 89 19.5t80 55.5l16 -19 q-36 -37 -84.5 -60.5t-105.5 -23.5q-48 0 -86.5 20t-61 56.5t-22.5 85.5q0 47 18.5 83.5t46 66.5t55 59t46 60.5t18.5 71.5q0 10 -1 29t-2 32z" />
<glyph unicode="&#xc0;" horiz-adv-x="560" d="M365 748l-9 -17q-38 11 -80 31.5t-82 52.5l35 25q29 -25 64 -49t72 -43zM68 0h-33l179 532l39 118l52 10l220 -660h-33l-61 182h-302zM280 628l-140 -416h281l-140 416h-1z" />
<glyph unicode="&#xc1;" horiz-adv-x="560" d="M365 816q-40 -32 -82 -52.5t-80 -31.5l-9 17q37 19 72 43t64 49zM68 0h-33l179 532l39 118l52 10l220 -660h-33l-61 182h-302zM280 628l-140 -416h281l-140 416h-1z" />
<glyph unicode="&#xc2;" horiz-adv-x="560" d="M175 732l-10 13q30 23 52.5 43.5t43.5 48.5l36 6q36 -50 97 -98l-10 -13q-59 30 -104 75q-47 -45 -105 -75zM68 0h-33l179 532l39 118l52 10l220 -660h-33l-61 182h-302zM280 628l-140 -416h281l-140 416h-1z" />
<glyph unicode="&#xc3;" horiz-adv-x="560" d="M229 825q23 0 39.5 -10.5t32 -21.5t33.5 -11q20 0 34 14t24 33l16 -5q-6 -26 -26.5 -49.5t-52.5 -23.5q-23 0 -39 11t-31 21.5t-34 10.5t-33.5 -13.5t-24.5 -33.5l-16 5q7 25 26.5 49t51.5 24zM68 0h-33l179 532l39 118l52 10l220 -660h-33l-61 182h-302zM280 628 l-140 -416h281l-140 416h-1z" />
<glyph unicode="&#xc4;" horiz-adv-x="560" d="M212 790q0 -16 -7 -28.5t-24 -12.5q-14 0 -21.5 10t-7.5 24q0 17 8.5 29t23.5 12q14 0 21 -10t7 -24zM407 790q0 -16 -7 -28.5t-24 -12.5q-14 0 -21.5 10t-7.5 24q0 17 8.5 29t23.5 12q14 0 21 -10t7 -24zM68 0h-33l179 532l39 118l52 10l220 -660h-33l-61 182h-302z M280 628l-140 -416h281l-140 416h-1z" />
<glyph unicode="&#xc5;" horiz-adv-x="560" d="M355 792q0 -31 -23 -53t-55 -22q-31 0 -52 19.5t-21 47.5q0 32 23.5 53.5t56.5 21.5q31 0 51 -19t20 -48zM235 787q0 -19 12 -31.5t31 -12.5q18 0 32 13.5t14 32.5t-12 31.5t-31 12.5t-32.5 -13t-13.5 -33zM68 0h-33l179 532l39 118l52 10l220 -660h-33l-61 182h-302z M280 628l-140 -416h281l-140 416h-1z" />
<glyph unicode="&#xc6;" horiz-adv-x="839" d="M68 0h-33l279 532l57 118h323l-5 -31l-262 5l33 -289l230 3l-5 -31l-222 2l32 -283l289 5l-5 -31h-314l-19 182h-282zM398 628l-219 -416h264l-44 416h-1z" />
<glyph unicode="&#xc7;" horiz-adv-x="533" d="M375 -110q0 14 -15.5 24.5t-51.5 14.5l22 61q-82 2 -139 45t-87 118t-29 172q1 99 32.5 174.5t90.5 118t141 42.5q38 0 77 -8.5t70 -25.5l-11 -34q-28 21 -66 32.5t-76 11.5q-72 0 -122.5 -39.5t-76.5 -109.5t-25 -162q1 -91 28.5 -161t79 -109.5t123.5 -39.5q40 0 78 11 t64 31l6 -28q-27 -17 -62.5 -26.5t-71.5 -11.5l-16 -45q69 -13 69 -53q0 -21 -17 -35.5t-43 -22.5t-54 -9l-1 18q39 5 61 17t22 29z" />
<glyph unicode="&#xc8;" horiz-adv-x="496" d="M362 748l-9 -17q-38 11 -80 31.5t-82 52.5l35 25q29 -25 64 -49t72 -43zM436 0h-316v535l-8 115h329l-5 -31l-284 5v-289l199 3l-5 -31l-194 2v-283l289 5z" />
<glyph unicode="&#xc9;" horiz-adv-x="496" d="M362 816q-40 -32 -82 -52.5t-80 -31.5l-9 17q37 19 72 43t64 49zM436 0h-316v535l-8 115h329l-5 -31l-284 5v-289l199 3l-5 -31l-194 2v-283l289 5z" />
<glyph unicode="&#xca;" horiz-adv-x="496" d="M172 732l-10 13q30 23 52.5 43.5t43.5 48.5l36 6q36 -50 97 -98l-10 -13q-59 30 -104 75q-47 -45 -105 -75zM436 0h-316v535l-8 115h329l-5 -31l-284 5v-289l199 3l-5 -31l-194 2v-283l289 5z" />
<glyph unicode="&#xcb;" horiz-adv-x="496" d="M209 790q0 -16 -7 -28.5t-24 -12.5q-14 0 -21.5 10t-7.5 24q0 17 8.5 29t23.5 12q14 0 21 -10t7 -24zM404 790q0 -16 -7 -28.5t-24 -12.5q-14 0 -21.5 10t-7.5 24q0 17 8.5 29t23.5 12q14 0 21 -10t7 -24zM436 0h-316v535l-8 115h329l-5 -31l-284 5v-289l199 3l-5 -31 l-194 2v-283l289 5z" />
<glyph unicode="&#xcc;" horiz-adv-x="272" d="M221 748l-9 -17q-38 11 -80 31.5t-82 52.5l35 25q29 -25 64 -49t72 -43zM152 0h-32v535l-8 115l40 10v-660z" />
<glyph unicode="&#xcd;" horiz-adv-x="272" d="M221 816q-40 -32 -82 -52.5t-80 -31.5l-9 17q37 19 72 43t64 49zM152 0h-32v535l-8 115l40 10v-660z" />
<glyph unicode="&#xce;" horiz-adv-x="272" d="M31 732l-10 13q30 23 52.5 43.5t43.5 48.5l36 6q36 -50 97 -98l-10 -13q-59 30 -104 75q-47 -45 -105 -75zM152 0h-32v535l-8 115l40 10v-660z" />
<glyph unicode="&#xcf;" horiz-adv-x="272" d="M103 775q0 -16 -7 -28.5t-24 -12.5q-14 0 -21.5 10t-7.5 24q0 17 8.5 29t23.5 12q14 0 21 -10t7 -24zM228 775q0 -16 -7 -28.5t-24 -12.5q-14 0 -21.5 10t-7.5 24q0 17 8.5 29t23.5 12q14 0 21 -10t7 -24zM152 0h-32v535l-8 115l40 10v-660z" />
<glyph unicode="&#xd0;" horiz-adv-x="636" d="M120 535l-8 115h146q98 0 166 -41.5t103 -114.5t34 -169t-37.5 -169t-105 -114.5t-166.5 -41.5h-132v314h-96v22h96v199zM384 314h-232v-288h106q88 0 148 38t91 105.5t30 155.5t-33 155.5t-93 105.5t-149 38h-100v-288h232v-22z" />
<glyph unicode="&#xd1;" horiz-adv-x="670" d="M284 825q23 0 39.5 -10.5t32 -21.5t33.5 -11q20 0 34 14t24 33l16 -5q-6 -26 -26.5 -49.5t-52.5 -23.5q-23 0 -39 11t-31 21.5t-34 10.5t-33.5 -13.5t-24.5 -33.5l-16 5q7 25 26.5 49t51.5 24zM120 535l-8 115l50 10l357 -632h2l-6 622l35 10v-660h-49l-352 623h-2 l6 -623h-33v535z" />
<glyph unicode="&#xd2;" horiz-adv-x="661" d="M416 748l-9 -17q-38 11 -80 31.5t-82 52.5l35 25q29 -25 64 -49t72 -43zM586 325q-1 -99 -33 -174.5t-89.5 -118t-135.5 -42.5t-135 42.5t-88 118t-30 174.5t33 174.5t90 118t136 42.5t134.5 -42.5t87.5 -118t30 -174.5zM109 325q1 -91 29 -161.5t78 -110t118 -39.5 t117 39.5t75.5 110t25.5 161.5q-1 92 -29 162t-77.5 109.5t-117.5 39.5t-117.5 -39.5t-76 -109.5t-25.5 -162z" />
<glyph unicode="&#xd3;" horiz-adv-x="661" d="M416 816q-40 -32 -82 -52.5t-80 -31.5l-9 17q37 19 72 43t64 49zM586 325q-1 -99 -33 -174.5t-89.5 -118t-135.5 -42.5t-135 42.5t-88 118t-30 174.5t33 174.5t90 118t136 42.5t134.5 -42.5t87.5 -118t30 -174.5zM109 325q1 -91 29 -161.5t78 -110t118 -39.5t117 39.5 t75.5 110t25.5 161.5q-1 92 -29 162t-77.5 109.5t-117.5 39.5t-117.5 -39.5t-76 -109.5t-25.5 -162z" />
<glyph unicode="&#xd4;" horiz-adv-x="661" d="M226 732l-10 13q30 23 52.5 43.5t43.5 48.5l36 6q36 -50 97 -98l-10 -13q-59 30 -104 75q-47 -45 -105 -75zM586 325q-1 -99 -33 -174.5t-89.5 -118t-135.5 -42.5t-135 42.5t-88 118t-30 174.5t33 174.5t90 118t136 42.5t134.5 -42.5t87.5 -118t30 -174.5zM109 325 q1 -91 29 -161.5t78 -110t118 -39.5t117 39.5t75.5 110t25.5 161.5q-1 92 -29 162t-77.5 109.5t-117.5 39.5t-117.5 -39.5t-76 -109.5t-25.5 -162z" />
<glyph unicode="&#xd5;" horiz-adv-x="661" d="M586 325q-1 -99 -33 -174.5t-89.5 -118t-135.5 -42.5t-135 42.5t-88 118t-30 174.5t33 174.5t90 118t136 42.5t134.5 -42.5t87.5 -118t30 -174.5zM109 325q1 -91 29 -161.5t78 -110t118 -39.5t117 39.5t75.5 110t25.5 161.5q-1 92 -29 162t-77.5 109.5t-117.5 39.5 t-117.5 -39.5t-76 -109.5t-25.5 -162z" />
<glyph unicode="&#xd6;" horiz-adv-x="661" d="M263 790q0 -16 -7 -28.5t-24 -12.5q-14 0 -21.5 10t-7.5 24q0 17 8.5 29t23.5 12q14 0 21 -10t7 -24zM458 790q0 -16 -7 -28.5t-24 -12.5q-14 0 -21.5 10t-7.5 24q0 17 8.5 29t23.5 12q14 0 21 -10t7 -24zM586 325q-1 -99 -33 -174.5t-89.5 -118t-135.5 -42.5t-135 42.5 t-88 118t-30 174.5t33 174.5t90 118t136 42.5t134.5 -42.5t87.5 -118t30 -174.5zM109 325q1 -91 29 -161.5t78 -110t118 -39.5t117 39.5t75.5 110t25.5 161.5q-1 92 -29 162t-77.5 109.5t-117.5 39.5t-117.5 -39.5t-76 -109.5t-25.5 -162z" />
<glyph unicode="&#xd7;" horiz-adv-x="566" d="M447 140l-163 166l-159 -158l-19 19l159 159l-165 168l17 16q30 -28 74.5 -72.5t92.5 -93.5l159 159l19 -19l-159 -159q47 -47 90.5 -91.5t72.5 -73.5l-1 -6z" />
<glyph unicode="&#xd8;" horiz-adv-x="661" d="M586 325q-1 -99 -33 -174.5t-89.5 -118t-135.5 -42.5q-58 0 -104.5 24t-79.5 67l-88 -101l-21 19l93 107q-26 42 -40 98t-13 121q1 99 33 174.5t90 118t136 42.5q60 0 108 -26t81 -73l89 102l22 -18l-95 -110q23 -42 35.5 -95t11.5 -115zM109 325q1 -112 43 -192l348 401 q-29 48 -73 75t-99 27q-68 0 -117.5 -39.5t-76 -109.5t-25.5 -162zM552 325q-1 105 -38 182l-347 -400q29 -44 71.5 -68.5t95.5 -24.5q68 0 117 39.5t75.5 110t25.5 161.5z" />
<glyph unicode="&#xd9;" horiz-adv-x="638" d="M404 748l-9 -17q-38 11 -80 31.5t-82 52.5l35 25q29 -25 64 -49t72 -43zM321 14q78 0 124 52t46 134v335l-8 115l40 10v-460q0 -61 -26 -108.5t-72.5 -74.5t-109.5 -27q-61 0 -106 27t-69.5 74.5t-24.5 108.5v335l-8 115l40 10v-460q0 -54 22 -96t61 -66t91 -24z" />
<glyph unicode="&#xda;" horiz-adv-x="638" d="M404 816q-40 -32 -82 -52.5t-80 -31.5l-9 17q37 19 72 43t64 49zM321 14q78 0 124 52t46 134v335l-8 115l40 10v-460q0 -61 -26 -108.5t-72.5 -74.5t-109.5 -27q-61 0 -106 27t-69.5 74.5t-24.5 108.5v335l-8 115l40 10v-460q0 -54 22 -96t61 -66t91 -24z" />
<glyph unicode="&#xdb;" horiz-adv-x="638" d="M214 732l-10 13q30 23 52.5 43.5t43.5 48.5l36 6q36 -50 97 -98l-10 -13q-59 30 -104 75q-47 -45 -105 -75zM321 14q78 0 124 52t46 134v335l-8 115l40 10v-460q0 -61 -26 -108.5t-72.5 -74.5t-109.5 -27q-61 0 -106 27t-69.5 74.5t-24.5 108.5v335l-8 115l40 10v-460 q0 -54 22 -96t61 -66t91 -24z" />
<glyph unicode="&#xdc;" horiz-adv-x="638" d="M251 790q0 -16 -7 -28.5t-24 -12.5q-14 0 -21.5 10t-7.5 24q0 17 8.5 29t23.5 12q14 0 21 -10t7 -24zM446 790q0 -16 -7 -28.5t-24 -12.5q-14 0 -21.5 10t-7.5 24q0 17 8.5 29t23.5 12q14 0 21 -10t7 -24zM321 14q78 0 124 52t46 134v335l-8 115l40 10v-460 q0 -61 -26 -108.5t-72.5 -74.5t-109.5 -27q-61 0 -106 27t-69.5 74.5t-24.5 108.5v335l-8 115l40 10v-460q0 -54 22 -96t61 -66t91 -24z" />
<glyph unicode="&#xdd;" horiz-adv-x="517" d="M344 816q-40 -32 -82 -52.5t-80 -31.5l-9 17q37 19 72 43t64 49zM274 0h-32v212l-217 438l29 10l204 -410h1l204 410l29 -10l-218 -438v-212z" />
<glyph unicode="&#xde;" horiz-adv-x="516" d="M152 0h-32v535l-8 115h40v-118h87q107 0 164.5 -55.5t57.5 -141.5q0 -92 -61.5 -147.5t-166.5 -55.5h-81v-132zM233 506h-81v-348h87q91 0 139.5 49t48.5 128q0 77 -49 124t-145 47z" />
<glyph unicode="&#xdf;" horiz-adv-x="524" d="M427 164q0 55 -28 98.5t-75.5 75t-106.5 49.5v19q43 8 78 28t56.5 50t21.5 69q0 51 -34.5 84.5t-86.5 33.5q-20 0 -43 -7t-44 -26.5t-34.5 -54.5t-13.5 -91v-492h-30v455l-57 1v15l57 5v13q0 62 16 102t42 62.5t55.5 32t55.5 9.5q41 0 74.5 -17.5t54 -48.5t20.5 -72 q0 -60 -41.5 -104t-101.5 -58q89 -30 143 -93t54 -143q0 -47 -20 -85.5t-57.5 -61t-90.5 -22.5q-26 0 -54 5.5t-52 13.5v26q29 -10 56 -15.5t48 -5.5q60 0 99 42t39 108z" />
<glyph unicode="&#xe0;" horiz-adv-x="491" d="M288 587l-14 -5q-27 29 -51 66t-43 83l36 2q25 -78 72 -146zM378 -10q-10 20 -15.5 36.5t-8.5 37.5q-16 -16 -42.5 -33.5t-60 -29t-69.5 -11.5q-57 0 -89.5 32t-32.5 79q0 44 25.5 76.5t68 54t94.5 32t105 11.5v93q0 56 -27.5 87t-86.5 31q-40 0 -77.5 -14t-70.5 -40 l-10 28q29 20 70.5 35t87.5 15q68 0 106 -35.5t38 -103.5v-29.5t-0.5 -57.5t-1 -67t-0.5 -60.5v-35.5q0 -38 5.5 -64t19.5 -57zM92 104q0 -40 26.5 -65t74.5 -25q28 0 59 11t57.5 28.5t43.5 38.5v160q-67 -1 -127 -16.5t-97 -48t-37 -83.5z" />
<glyph unicode="&#xe1;" horiz-adv-x="491" d="M288 731q-19 -46 -43 -83t-51 -66l-14 5q47 68 72 146zM378 -10q-10 20 -15.5 36.5t-8.5 37.5q-16 -16 -42.5 -33.5t-60 -29t-69.5 -11.5q-57 0 -89.5 32t-32.5 79q0 44 25.5 76.5t68 54t94.5 32t105 11.5v93q0 56 -27.5 87t-86.5 31q-40 0 -77.5 -14t-70.5 -40l-10 28 q29 20 70.5 35t87.5 15q68 0 106 -35.5t38 -103.5v-29.5t-0.5 -57.5t-1 -67t-0.5 -60.5v-35.5q0 -38 5.5 -64t19.5 -57zM92 104q0 -40 26.5 -65t74.5 -25q28 0 59 11t57.5 28.5t43.5 38.5v160q-67 -1 -127 -16.5t-97 -48t-37 -83.5z" />
<glyph unicode="&#xe2;" horiz-adv-x="491" d="M140 582l-9 9q26 34 47 67t39 73l32 6q17 -40 38.5 -74.5t48.5 -71.5l-9 -9q-27 24 -50 55.5t-43 66.5q-21 -35 -44 -66.5t-50 -55.5zM378 -10q-10 20 -15.5 36.5t-8.5 37.5q-16 -16 -42.5 -33.5t-60 -29t-69.5 -11.5q-57 0 -89.5 32t-32.5 79q0 44 25.5 76.5t68 54 t94.5 32t105 11.5v93q0 56 -27.5 87t-86.5 31q-40 0 -77.5 -14t-70.5 -40l-10 28q29 20 70.5 35t87.5 15q68 0 106 -35.5t38 -103.5v-29.5t-0.5 -57.5t-1 -67t-0.5 -60.5v-35.5q0 -38 5.5 -64t19.5 -57zM92 104q0 -40 26.5 -65t74.5 -25q28 0 59 11t57.5 28.5t43.5 38.5v160 q-67 -1 -127 -16.5t-97 -48t-37 -83.5z" />
<glyph unicode="&#xe3;" horiz-adv-x="491" d="M174 703q24 0 42 -12t34.5 -24t34.5 -12q20 0 34 16t21 35l14 -4q-3 -26 -22.5 -51.5t-51.5 -25.5q-23 0 -41 12t-34 24t-35 12t-33 -15.5t-22 -35.5l-14 4q3 17 12 34.5t24.5 30t36.5 12.5zM378 -10q-10 20 -15.5 36.5t-8.5 37.5q-16 -16 -42.5 -33.5t-60 -29 t-69.5 -11.5q-57 0 -89.5 32t-32.5 79q0 44 25.5 76.5t68 54t94.5 32t105 11.5v93q0 56 -27.5 87t-86.5 31q-40 0 -77.5 -14t-70.5 -40l-10 28q29 20 70.5 35t87.5 15q68 0 106 -35.5t38 -103.5v-29.5t-0.5 -57.5t-1 -67t-0.5 -60.5v-35.5q0 -38 5.5 -64t19.5 -57zM92 104 q0 -40 26.5 -65t74.5 -25q28 0 59 11t57.5 28.5t43.5 38.5v160q-67 -1 -127 -16.5t-97 -48t-37 -83.5z" />
<glyph unicode="&#xe4;" horiz-adv-x="491" d="M181 659q0 -16 -7 -28.5t-24 -12.5q-14 0 -21.5 10t-7.5 24q0 17 8.5 29t23.5 12q14 0 21 -10t7 -24zM346 659q0 -16 -7 -28.5t-24 -12.5q-14 0 -21.5 10t-7.5 24q0 17 8.5 29t23.5 12q14 0 21 -10t7 -24zM378 -10q-10 20 -15.5 36.5t-8.5 37.5q-16 -16 -42.5 -33.5 t-60 -29t-69.5 -11.5q-57 0 -89.5 32t-32.5 79q0 44 25.5 76.5t68 54t94.5 32t105 11.5v93q0 56 -27.5 87t-86.5 31q-40 0 -77.5 -14t-70.5 -40l-10 28q29 20 70.5 35t87.5 15q68 0 106 -35.5t38 -103.5v-29.5t-0.5 -57.5t-1 -67t-0.5 -60.5v-35.5q0 -38 5.5 -64t19.5 -57z M92 104q0 -40 26.5 -65t74.5 -25q28 0 59 11t57.5 28.5t43.5 38.5v160q-67 -1 -127 -16.5t-97 -48t-37 -83.5z" />
<glyph unicode="&#xe5;" horiz-adv-x="491" d="M309 664q0 -34 -23 -58t-55 -24q-31 0 -52 21.5t-21 52.5q0 35 23.5 58.5t56.5 23.5q31 0 51 -21t20 -53zM188 659q0 -22 12.5 -37t31.5 -15t33 15.5t14 38.5t-12 37.5t-32 14.5q-19 0 -33 -15.5t-14 -38.5zM378 -10q-10 20 -15.5 36.5t-8.5 37.5q-16 -16 -42.5 -33.5 t-60 -29t-69.5 -11.5q-57 0 -89.5 32t-32.5 79q0 44 25.5 76.5t68 54t94.5 32t105 11.5v93q0 56 -27.5 87t-86.5 31q-40 0 -77.5 -14t-70.5 -40l-10 28q29 20 70.5 35t87.5 15q68 0 106 -35.5t38 -103.5v-29.5t-0.5 -57.5t-1 -67t-0.5 -60.5v-35.5q0 -38 5.5 -64t19.5 -57z M92 104q0 -40 26.5 -65t74.5 -25q28 0 59 11t57.5 28.5t43.5 38.5v160q-67 -1 -127 -16.5t-97 -48t-37 -83.5z" />
<glyph unicode="&#xe6;" horiz-adv-x="772" d="M687 21q-22 -11 -55.5 -21t-74.5 -10q-61 0 -106 26.5t-70 75.5q-17 -21 -47 -45t-69.5 -40.5t-82.5 -16.5q-57 0 -89.5 32t-32.5 79q0 44 25.5 76.5t67.5 53.5t94 32t106 12v5v88q0 56 -27.5 87t-86.5 31q-40 0 -77.5 -14t-70.5 -40l-10 28q29 20 70.5 35t87.5 15 q63 0 99.5 -31.5t40.5 -92.5q26 58 70 91t101 33q73 0 117.5 -50.5t44.5 -132.5v-28t-1 -29l-5 -15h-324v-6q0 -115 48.5 -174.5t130.5 -59.5q37 0 70.5 11t57.5 26zM550 486q-67 0 -113.5 -53t-53.5 -154l296 6q1 11 1 20.5v20.5q0 74 -34 117t-96 43zM92 105 q0 -40 26 -65.5t72 -25.5q33 0 67 13t64.5 35.5t50.5 50.5q-21 53 -21 124v15q-67 -1 -126.5 -17t-96 -48t-36.5 -82z" />
<glyph unicode="&#xe7;" horiz-adv-x="464" d="M319 -110q0 14 -15.5 24.5t-51.5 14.5l21 61v0q-99 0 -153.5 66t-54.5 181q0 92 31.5 152.5t83.5 90.5t112 30q65 0 111 -33l-6 -35q-17 16 -47.5 29.5t-71.5 13.5q-49 0 -90 -26t-66 -79t-25 -133q0 -112 48.5 -172t130.5 -60q37 0 70.5 11t57.5 26l-2 -31 q-18 -9 -45 -18t-59 -12l-16 -45q69 -13 69 -53q0 -21 -17 -35.5t-43 -22.5t-54 -9l-1 18q39 5 61 17t22 29z" />
<glyph unicode="&#xe8;" horiz-adv-x="487" d="M306 587l-14 -5q-27 29 -51 66t-43 83l36 2q25 -78 72 -146zM402 21q-22 -11 -55.5 -21t-74.5 -10q-98 0 -152.5 65.5t-54.5 181.5q0 80 25 141.5t70.5 96.5t104.5 35q73 0 117.5 -50.5t44.5 -132.5v-28t-1 -29l-5 -15h-324v-6q0 -115 48.5 -174.5t130.5 -59.5 q37 0 70.5 11t57.5 26zM265 486q-67 0 -113.5 -53t-53.5 -154l296 6q1 11 1 20.5v20.5q0 74 -34 117t-96 43z" />
<glyph unicode="&#xe9;" horiz-adv-x="487" d="M306 731q-19 -46 -43 -83t-51 -66l-14 5q47 68 72 146zM402 21q-22 -11 -55.5 -21t-74.5 -10q-98 0 -152.5 65.5t-54.5 181.5q0 80 25 141.5t70.5 96.5t104.5 35q73 0 117.5 -50.5t44.5 -132.5v-28t-1 -29l-5 -15h-324v-6q0 -115 48.5 -174.5t130.5 -59.5q37 0 70.5 11 t57.5 26zM265 486q-67 0 -113.5 -53t-53.5 -154l296 6q1 11 1 20.5v20.5q0 74 -34 117t-96 43z" />
<glyph unicode="&#xea;" horiz-adv-x="487" d="M158 582l-9 9q26 34 47 67t39 73l32 6q17 -40 38.5 -74.5t48.5 -71.5l-9 -9q-27 24 -50 55.5t-43 66.5q-21 -35 -44 -66.5t-50 -55.5zM402 21q-22 -11 -55.5 -21t-74.5 -10q-98 0 -152.5 65.5t-54.5 181.5q0 80 25 141.5t70.5 96.5t104.5 35q73 0 117.5 -50.5 t44.5 -132.5v-28t-1 -29l-5 -15h-324v-6q0 -115 48.5 -174.5t130.5 -59.5q37 0 70.5 11t57.5 26zM265 486q-67 0 -113.5 -53t-53.5 -154l296 6q1 11 1 20.5v20.5q0 74 -34 117t-96 43z" />
<glyph unicode="&#xeb;" horiz-adv-x="487" d="M199 659q0 -16 -7 -28.5t-24 -12.5q-14 0 -21.5 10t-7.5 24q0 17 8.5 29t23.5 12q14 0 21 -10t7 -24zM364 659q0 -16 -7 -28.5t-24 -12.5q-14 0 -21.5 10t-7.5 24q0 17 8.5 29t23.5 12q14 0 21 -10t7 -24zM402 21q-22 -11 -55.5 -21t-74.5 -10q-98 0 -152.5 65.5 t-54.5 181.5q0 80 25 141.5t70.5 96.5t104.5 35q73 0 117.5 -50.5t44.5 -132.5v-28t-1 -29l-5 -15h-324v-6q0 -115 48.5 -174.5t130.5 -59.5q37 0 70.5 11t57.5 26zM265 486q-67 0 -113.5 -53t-53.5 -154l296 6q1 11 1 20.5v20.5q0 74 -34 117t-96 43z" />
<glyph unicode="&#xec;" horiz-adv-x="213" d="M165 587l-14 -5q-27 29 -51 66t-43 83l36 2q25 -78 72 -146zM123 0h-30v385l-8 115l38 10v-510z" />
<glyph unicode="&#xed;" horiz-adv-x="213" d="M165 731q-19 -46 -43 -83t-51 -66l-14 5q47 68 72 146zM123 0h-30v385l-8 115l38 10v-510z" />
<glyph unicode="&#xee;" horiz-adv-x="213" d="M50 582l-11 7q17 35 29.5 68t25.5 74l32 6q13 -40 26 -75t30 -73l-11 -7q-30 51 -60 120q-16 -35 -31.5 -65t-29.5 -55zM123 0h-30v385l-8 115l38 10v-510z" />
<glyph unicode="&#xef;" horiz-adv-x="213" d="M88 662q0 -16 -7 -28.5t-24 -12.5q-14 0 -21.5 10t-7.5 24q0 17 8.5 29t23.5 12q14 0 21 -10t7 -24zM193 662q0 -16 -7 -28.5t-24 -12.5q-14 0 -21.5 10t-7.5 24q0 17 8.5 29t23.5 12q14 0 21 -10t7 -24zM123 0h-30v385l-8 115l38 10v-510z" />
<glyph unicode="&#xf0;" horiz-adv-x="529" d="M147 695q76 -24 140 -77l136 66l13 -21l-129 -63q66 -62 106.5 -151.5t40.5 -194.5q0 -92 -30 -150.5t-78 -86t-101 -27.5q-81 0 -130.5 59t-49.5 165q0 86 30.5 142.5t78 85t99.5 28.5q42 0 77 -19.5t55 -57.5q-18 52 -50.5 102t-77.5 91l-128 -62l-11 21l118 58 q-26 21 -56.5 38t-64.5 29zM97 221q0 -99 43 -153t113 -54q45 0 83.5 23t62 72.5t22.5 127.5q-1 96 -41.5 152.5t-111.5 56.5q-45 0 -84 -25t-63 -75t-24 -125z" />
<glyph unicode="&#xf1;" horiz-adv-x="524" d="M205 703q24 0 42 -12t34.5 -24t34.5 -12q20 0 34 16t21 35l14 -4q-3 -26 -22.5 -51.5t-51.5 -25.5q-23 0 -41 12t-34 24t-35 12t-33 -15.5t-22 -35.5l-14 4q3 17 12 34.5t24.5 30t36.5 12.5zM123 0h-30v385l-8 115l38 10v-79q74 79 169 79q53 0 84 -24.5t44.5 -63 t13.5 -81.5v-341h-30v330q0 78 -31 117t-87 39q-90 0 -163 -88v-398z" />
<glyph unicode="&#xf2;" horiz-adv-x="547" d="M328 587l-14 -5q-27 29 -51 66t-43 83l36 2q25 -78 72 -146zM482 264q0 -92 -32.5 -153t-83.5 -91t-109 -30q-85 0 -138.5 64t-53.5 180q0 92 32.5 153.5t84 92t108.5 30.5q86 0 139 -65t53 -181zM97 240q0 -108 47 -167t121 -59q49 0 91 27t68 81t26 135 q0 106 -45.5 167.5t-122.5 61.5q-49 0 -91 -27.5t-68 -82t-26 -136.5z" />
<glyph unicode="&#xf3;" horiz-adv-x="547" d="M328 731q-19 -46 -43 -83t-51 -66l-14 5q47 68 72 146zM482 264q0 -92 -32.5 -153t-83.5 -91t-109 -30q-85 0 -138.5 64t-53.5 180q0 92 32.5 153.5t84 92t108.5 30.5q86 0 139 -65t53 -181zM97 240q0 -108 47 -167t121 -59q49 0 91 27t68 81t26 135q0 106 -45.5 167.5 t-122.5 61.5q-49 0 -91 -27.5t-68 -82t-26 -136.5z" />
<glyph unicode="&#xf4;" horiz-adv-x="547" d="M180 582l-9 9q26 34 47 67t39 73l32 6q17 -40 38.5 -74.5t48.5 -71.5l-9 -9q-27 24 -50 55.5t-43 66.5q-21 -35 -44 -66.5t-50 -55.5zM482 264q0 -92 -32.5 -153t-83.5 -91t-109 -30q-85 0 -138.5 64t-53.5 180q0 92 32.5 153.5t84 92t108.5 30.5q86 0 139 -65t53 -181z M97 240q0 -108 47 -167t121 -59q49 0 91 27t68 81t26 135q0 106 -45.5 167.5t-122.5 61.5q-49 0 -91 -27.5t-68 -82t-26 -136.5z" />
<glyph unicode="&#xf5;" horiz-adv-x="547" d="M214 703q24 0 42 -12t34.5 -24t34.5 -12q20 0 34 16t21 35l14 -4q-3 -26 -22.5 -51.5t-51.5 -25.5q-23 0 -41 12t-34 24t-35 12t-33 -15.5t-22 -35.5l-14 4q3 17 12 34.5t24.5 30t36.5 12.5zM482 264q0 -92 -32.5 -153t-83.5 -91t-109 -30q-85 0 -138.5 64t-53.5 180 q0 92 32.5 153.5t84 92t108.5 30.5q86 0 139 -65t53 -181zM97 240q0 -108 47 -167t121 -59q49 0 91 27t68 81t26 135q0 106 -45.5 167.5t-122.5 61.5q-49 0 -91 -27.5t-68 -82t-26 -136.5z" />
<glyph unicode="&#xf6;" horiz-adv-x="547" d="M221 659q0 -16 -7 -28.5t-24 -12.5q-14 0 -21.5 10t-7.5 24q0 17 8.5 29t23.5 12q14 0 21 -10t7 -24zM386 659q0 -16 -7 -28.5t-24 -12.5q-14 0 -21.5 10t-7.5 24q0 17 8.5 29t23.5 12q14 0 21 -10t7 -24zM482 264q0 -92 -32.5 -153t-83.5 -91t-109 -30q-85 0 -138.5 64 t-53.5 180q0 92 32.5 153.5t84 92t108.5 30.5q86 0 139 -65t53 -181zM97 240q0 -108 47 -167t121 -59q49 0 91 27t68 81t26 135q0 106 -45.5 167.5t-122.5 61.5q-49 0 -91 -27.5t-68 -82t-26 -136.5z" />
<glyph unicode="&#xf7;" horiz-adv-x="589" d="M328 491q0 -16 -8 -29.5t-26 -13.5q-15 0 -23.5 11.5t-8.5 27.5q0 17 9.5 30t25.5 13q15 0 23 -11t8 -28zM484 312h-384v23q33 1 83.5 1.5t107 1t108 0.5h86.5zM328 164q0 -16 -8 -29.5t-26 -13.5q-15 0 -23.5 11.5t-8.5 27.5q0 17 9.5 30t25.5 13q15 0 23 -11t8 -28z " />
<glyph unicode="&#xf8;" horiz-adv-x="547" d="M482 264q0 -92 -32.5 -153t-83.5 -91t-109 -30q-92 0 -144 71l-50 -54l-18 16l55 58q-17 30 -26 68.5t-9 84.5q0 92 32.5 153.5t84 92t108.5 30.5q91 0 143 -71l51 54l19 -16l-56 -60q17 -29 26 -68t9 -85zM97 240q0 -78 26 -133l288 308q-46 71 -129 71q-49 0 -91 -27.5 t-68 -82t-26 -136.5zM450 257q0 79 -27 135l-287 -307q45 -71 129 -71q49 0 91 27t68 81t26 135z" />
<glyph unicode="&#xf9;" horiz-adv-x="525" d="M319 587l-14 -5q-27 29 -51 66t-43 83l36 2q25 -78 72 -146zM90 159v341l30 10v-340q0 -78 30.5 -117t79.5 -39q38 0 79.5 22.5t75.5 65.5v398l30 10v-405q0 -26 5.5 -53.5t19.5 -51.5l-28 -10q-23 37 -26 79q-35 -38 -78 -58.5t-84 -20.5q-47 0 -77 24.5t-43.5 63 t-13.5 81.5z" />
<glyph unicode="&#xfa;" horiz-adv-x="525" d="M319 731q-19 -46 -43 -83t-51 -66l-14 5q47 68 72 146zM90 159v341l30 10v-340q0 -78 30.5 -117t79.5 -39q38 0 79.5 22.5t75.5 65.5v398l30 10v-405q0 -26 5.5 -53.5t19.5 -51.5l-28 -10q-23 37 -26 79q-35 -38 -78 -58.5t-84 -20.5q-47 0 -77 24.5t-43.5 63t-13.5 81.5 z" />
<glyph unicode="&#xfb;" horiz-adv-x="525" d="M171 582l-9 9q26 34 47 67t39 73l32 6q17 -40 38.5 -74.5t48.5 -71.5l-9 -9q-27 24 -50 55.5t-43 66.5q-21 -35 -44 -66.5t-50 -55.5zM90 159v341l30 10v-340q0 -78 30.5 -117t79.5 -39q38 0 79.5 22.5t75.5 65.5v398l30 10v-405q0 -26 5.5 -53.5t19.5 -51.5l-28 -10 q-23 37 -26 79q-35 -38 -78 -58.5t-84 -20.5q-47 0 -77 24.5t-43.5 63t-13.5 81.5z" />
<glyph unicode="&#xfc;" horiz-adv-x="525" d="M212 659q0 -16 -7 -28.5t-24 -12.5q-14 0 -21.5 10t-7.5 24q0 17 8.5 29t23.5 12q14 0 21 -10t7 -24zM377 659q0 -16 -7 -28.5t-24 -12.5q-14 0 -21.5 10t-7.5 24q0 17 8.5 29t23.5 12q14 0 21 -10t7 -24zM90 159v341l30 10v-340q0 -78 30.5 -117t79.5 -39 q38 0 79.5 22.5t75.5 65.5v398l30 10v-405q0 -26 5.5 -53.5t19.5 -51.5l-28 -10q-23 37 -26 79q-35 -38 -78 -58.5t-84 -20.5q-47 0 -77 24.5t-43.5 63t-13.5 81.5z" />
<glyph unicode="&#xfd;" horiz-adv-x="445" d="M284 731q-19 -46 -43 -83t-51 -66l-14 5q47 68 72 146zM11 -195q-33 0 -65 9v28q16 -5 39.5 -9t42.5 -4q62 0 111.5 44t77.5 127h-7l-176 501l30 9l162 -476h2l162 476l25 -9q-21 -65 -50 -149t-61 -175.5t-64 -177.5q-28 -74 -61.5 -116.5t-74.5 -60t-93 -17.5z" />
<glyph unicode="&#xfe;" horiz-adv-x="525" d="M93 570l-8 115l38 10v-242q30 29 67.5 43t77.5 14q86 0 139 -64t53 -180q0 -92 -32.5 -153.5t-83.5 -92t-109 -30.5q-65 0 -112 36v-65q0 -42 2 -75t8 -71l-40 -10v765zM260 486q-40 0 -75.5 -17.5t-61.5 -52.5v-353q46 -49 119 -49q55 0 97 30t65.5 85.5t23.5 130.5 q0 108 -47 167t-121 59z" />
<glyph unicode="&#xff;" horiz-adv-x="445" d="M177 659q0 -16 -7 -28.5t-24 -12.5q-14 0 -21.5 10t-7.5 24q0 17 8.5 29t23.5 12q14 0 21 -10t7 -24zM342 659q0 -16 -7 -28.5t-24 -12.5q-14 0 -21.5 10t-7.5 24q0 17 8.5 29t23.5 12q14 0 21 -10t7 -24zM11 -195q-33 0 -65 9v28q16 -5 39.5 -9t42.5 -4q62 0 111.5 44 t77.5 127h-7l-176 501l30 9l162 -476h2l162 476l25 -9q-21 -65 -50 -149t-61 -175.5t-64 -177.5q-28 -74 -61.5 -116.5t-74.5 -60t-93 -17.5z" />
<glyph unicode="&#x100;" horiz-adv-x="560" d="M170 770v33h220v-33h-220zM68 0h-33l179 532l39 118l52 10l220 -660h-33l-61 182h-302zM280 628l-140 -416h281l-140 416h-1z" />
<glyph unicode="&#x101;" horiz-adv-x="491" d="M134 646v26h200v-26h-200zM378 -10q-10 20 -15.5 36.5t-8.5 37.5q-16 -16 -42.5 -33.5t-60 -29t-69.5 -11.5q-57 0 -89.5 32t-32.5 79q0 44 25.5 76.5t68 54t94.5 32t105 11.5v93q0 56 -27.5 87t-86.5 31q-40 0 -77.5 -14t-70.5 -40l-10 28q29 20 70.5 35t87.5 15 q68 0 106 -35.5t38 -103.5v-29.5t-0.5 -57.5t-1 -67t-0.5 -60.5v-35.5q0 -38 5.5 -64t19.5 -57zM92 104q0 -40 26.5 -65t74.5 -25q28 0 59 11t57.5 28.5t43.5 38.5v160q-67 -1 -127 -16.5t-97 -48t-37 -83.5z" />
<glyph unicode="&#x102;" horiz-adv-x="560" d="M280 737q-27 0 -50.5 14.5t-38 37t-17.5 46.5l15 4q14 -31 37.5 -49.5t53.5 -18.5q31 0 53.5 20t35.5 50l17 4q-4 -44 -34.5 -76t-71.5 -32zM68 0h-33l179 532l39 118l52 10l220 -660h-33l-61 182h-302zM280 628l-140 -416h281l-140 416h-1z" />
<glyph unicode="&#x103;" horiz-adv-x="491" d="M230 588q-38 0 -66.5 34.5t-30.5 100.5l18 4q9 -60 30 -85.5t53 -25.5q66 0 84 113l17 4q-3 -67 -31.5 -106t-73.5 -39zM378 -10q-10 20 -15.5 36.5t-8.5 37.5q-16 -16 -42.5 -33.5t-60 -29t-69.5 -11.5q-57 0 -89.5 32t-32.5 79q0 44 25.5 76.5t68 54t94.5 32t105 11.5 v93q0 56 -27.5 87t-86.5 31q-40 0 -77.5 -14t-70.5 -40l-10 28q29 20 70.5 35t87.5 15q68 0 106 -35.5t38 -103.5v-29.5t-0.5 -57.5t-1 -67t-0.5 -60.5v-35.5q0 -38 5.5 -64t19.5 -57zM92 104q0 -40 26.5 -65t74.5 -25q28 0 59 11t57.5 28.5t43.5 38.5v160 q-67 -1 -127 -16.5t-97 -48t-37 -83.5z" />
<glyph unicode="&#x104;" horiz-adv-x="560" d="M68 0h-33l179 532l39 118l52 10l220 -660h-1q-45 -17 -76 -48.5t-31 -62.5q0 -21 13.5 -31.5t34.5 -10.5q14 0 26.5 4t24.5 11l7 -16q-10 -9 -28.5 -15.5t-40.5 -6.5q-31 0 -50 15t-19 42q0 35 30 69.5t75 54.5l-59 177h-302zM280 628l-140 -416h281l-140 416h-1z" />
<glyph unicode="&#x105;" horiz-adv-x="491" d="M406 0q-45 -17 -76 -48.5t-31 -62.5q0 -21 13.5 -31.5t34.5 -10.5q14 0 26.5 4t24.5 11l7 -16q-10 -9 -28.5 -15.5t-40.5 -6.5q-31 0 -50 15t-19 42q0 35 29.5 69t74.5 54q-6 15 -10.5 29t-6.5 31q-16 -16 -42.5 -33.5t-60 -29t-69.5 -11.5q-57 0 -89.5 32t-32.5 79 q0 44 25.5 76.5t68 54t94.5 32t105 11.5v93q0 56 -27.5 87t-86.5 31q-40 0 -77.5 -14t-70.5 -40l-10 28q29 20 70.5 35t87.5 15q68 0 106 -35.5t38 -103.5v-29.5t-0.5 -57.5t-1 -67t-0.5 -60.5v-35.5q0 -38 5.5 -64t19.5 -57zM92 104q0 -40 26.5 -65t74.5 -25q28 0 59 11 t57.5 28.5t43.5 38.5v160q-67 -1 -127 -16.5t-97 -48t-37 -83.5z" />
<glyph unicode="&#x106;" horiz-adv-x="533" d="M412 816q-40 -32 -82 -52.5t-80 -31.5l-9 17q37 19 72 43t64 49zM482 57l6 -28q-31 -19 -71.5 -29t-80.5 -10q-83 0 -141.5 42.5t-89.5 118t-30 174.5t32.5 174.5t90.5 118t141 42.5q38 0 77 -8.5t70 -25.5l-11 -34q-28 21 -66 32.5t-76 11.5q-72 0 -122.5 -39.5 t-76.5 -109.5t-25 -162q1 -91 28.5 -161t79 -109.5t123.5 -39.5q40 0 78 11t64 31z" />
<glyph unicode="&#x107;" horiz-adv-x="464" d="M310 731q-19 -46 -43 -83t-51 -66l-14 5q47 68 72 146zM403 477l-6 -35q-17 16 -47.5 29.5t-71.5 13.5q-49 0 -90 -26t-66 -79t-25 -133q0 -112 48.5 -172t130.5 -60q37 0 70.5 11t57.5 26l-2 -31q-22 -11 -55.5 -21t-73.5 -10q-99 0 -153.5 66t-54.5 181 q0 92 31.5 152.5t83.5 90.5t112 30q65 0 111 -33z" />
<glyph unicode="&#x108;" horiz-adv-x="533" d="M222 732l-10 13q30 23 52.5 43.5t43.5 48.5l36 6q36 -50 97 -98l-10 -13q-59 30 -104 75q-47 -45 -105 -75zM482 57l6 -28q-31 -19 -71.5 -29t-80.5 -10q-83 0 -141.5 42.5t-89.5 118t-30 174.5t32.5 174.5t90.5 118t141 42.5q38 0 77 -8.5t70 -25.5l-11 -34 q-28 21 -66 32.5t-76 11.5q-72 0 -122.5 -39.5t-76.5 -109.5t-25 -162q1 -91 28.5 -161t79 -109.5t123.5 -39.5q40 0 78 11t64 31z" />
<glyph unicode="&#x109;" horiz-adv-x="464" d="M162 582l-9 9q26 34 47 67t39 73l32 6q17 -40 38.5 -74.5t48.5 -71.5l-9 -9q-27 24 -50 55.5t-43 66.5q-21 -35 -44 -66.5t-50 -55.5zM403 477l-6 -35q-17 16 -47.5 29.5t-71.5 13.5q-49 0 -90 -26t-66 -79t-25 -133q0 -112 48.5 -172t130.5 -60q37 0 70.5 11t57.5 26 l-2 -31q-22 -11 -55.5 -21t-73.5 -10q-99 0 -153.5 66t-54.5 181q0 92 31.5 152.5t83.5 90.5t112 30q65 0 111 -33z" />
<glyph unicode="&#x10a;" horiz-adv-x="533" d="M356 792q0 -17 -7 -30.5t-23 -13.5q-13 0 -20.5 11t-7.5 26q0 17 8.5 30t22.5 13q13 0 20 -10t7 -26zM482 57l6 -28q-31 -19 -71.5 -29t-80.5 -10q-83 0 -141.5 42.5t-89.5 118t-30 174.5t32.5 174.5t90.5 118t141 42.5q38 0 77 -8.5t70 -25.5l-11 -34q-28 21 -66 32.5 t-76 11.5q-72 0 -122.5 -39.5t-76.5 -109.5t-25 -162q1 -91 28.5 -161t79 -109.5t123.5 -39.5q40 0 78 11t64 31z" />
<glyph unicode="&#x10b;" horiz-adv-x="464" d="M285 659q0 -17 -7 -30.5t-23 -13.5q-13 0 -20.5 11t-7.5 26q0 17 8.5 30t22.5 13q13 0 20 -10t7 -26zM403 477l-6 -35q-17 16 -47.5 29.5t-71.5 13.5q-49 0 -90 -26t-66 -79t-25 -133q0 -112 48.5 -172t130.5 -60q37 0 70.5 11t57.5 26l-2 -31q-22 -11 -55.5 -21 t-73.5 -10q-99 0 -153.5 66t-54.5 181q0 92 31.5 152.5t83.5 90.5t112 30q65 0 111 -33z" />
<glyph unicode="&#x10c;" horiz-adv-x="533" d="M431 842l10 -13q-30 -22 -52.5 -43t-43.5 -49l-36 -6q-36 50 -97 98l10 13q59 -30 104 -75q47 45 105 75zM482 57l6 -28q-31 -19 -71.5 -29t-80.5 -10q-83 0 -141.5 42.5t-89.5 118t-30 174.5t32.5 174.5t90.5 118t141 42.5q38 0 77 -8.5t70 -25.5l-11 -34 q-28 21 -66 32.5t-76 11.5q-72 0 -122.5 -39.5t-76.5 -109.5t-25 -162q1 -91 28.5 -161t79 -109.5t123.5 -39.5q40 0 78 11t64 31z" />
<glyph unicode="&#x10d;" horiz-adv-x="464" d="M349 737l9 -9q-26 -34 -47 -66.5t-39 -73.5l-32 -6q-17 40 -38.5 74.5t-48.5 71.5l9 9q27 -24 50 -55.5t43 -66.5q21 35 44 66.5t50 55.5zM403 477l-6 -35q-17 16 -47.5 29.5t-71.5 13.5q-49 0 -90 -26t-66 -79t-25 -133q0 -112 48.5 -172t130.5 -60q37 0 70.5 11 t57.5 26l-2 -31q-22 -11 -55.5 -21t-73.5 -10q-99 0 -153.5 66t-54.5 181q0 92 31.5 152.5t83.5 90.5t112 30q65 0 111 -33z" />
<glyph unicode="&#x10e;" horiz-adv-x="636" d="M420 842l10 -13q-30 -22 -52.5 -43t-43.5 -49l-36 -6q-36 50 -97 98l10 13q59 -30 104 -75q47 45 105 75zM120 535l-8 115h146q98 0 166 -41.5t103 -114.5t34 -169t-37.5 -169t-105 -114.5t-166.5 -41.5h-132v535zM252 624h-100v-598h106q88 0 148 38t91 105.5t30 155.5 t-33 155.5t-93 105.5t-149 38z" />
<glyph unicode="&#x10f;" horiz-adv-x="542" d="M557 741q-12 -58 -30 -104.5t-38 -82.5l-14 6q15 41 28 89t21 94zM429 -10q-15 28 -22 62q-31 -31 -70 -46.5t-80 -15.5q-85 0 -138.5 64t-53.5 180q0 92 32.5 153.5t84 92t108.5 30.5q65 0 112 -36v96l-8 115l38 10v-549q0 -42 5.5 -75t19.5 -71zM97 240q0 -108 47 -167 t121 -59q40 0 75.5 17.5t61.5 52.5v6v347q-46 49 -119 49q-55 0 -97 -30t-65.5 -85t-23.5 -131z" />
<glyph unicode="&#x110;" horiz-adv-x="636" d="M120 535l-8 115h146q98 0 166 -41.5t103 -114.5t34 -169t-37.5 -169t-105 -114.5t-166.5 -41.5h-132v314h-96v22h96v199zM384 314h-232v-288h106q88 0 148 38t91 105.5t30 155.5t-33 155.5t-93 105.5t-149 38h-100v-288h232v-22z" />
<glyph unicode="&#x111;" horiz-adv-x="542" d="M429 -10q-15 28 -22 62q-31 -31 -70 -46.5t-80 -15.5q-85 0 -138.5 64t-53.5 180q0 92 32.5 153.5t84 92t108.5 30.5q65 0 112 -36v96v1h-229v22h227l-6 92l38 10v-102h101v-22h-101v-425q0 -42 5.5 -75t19.5 -71zM97 240q0 -108 47 -167t121 -59q40 0 75.5 17.5 t61.5 52.5v6v347q-46 49 -119 49q-55 0 -97 -30t-65.5 -85t-23.5 -131z" />
<glyph unicode="&#x112;" horiz-adv-x="496" d="M167 770v33h220v-33h-220zM436 0h-316v535l-8 115h329l-5 -31l-284 5v-289l199 3l-5 -31l-194 2v-283l289 5z" />
<glyph unicode="&#x113;" horiz-adv-x="487" d="M152 646v26h200v-26h-200zM402 21q-22 -11 -55.5 -21t-74.5 -10q-98 0 -152.5 65.5t-54.5 181.5q0 80 25 141.5t70.5 96.5t104.5 35q73 0 117.5 -50.5t44.5 -132.5v-28t-1 -29l-5 -15h-324v-6q0 -115 48.5 -174.5t130.5 -59.5q37 0 70.5 11t57.5 26zM265 486 q-67 0 -113.5 -53t-53.5 -154l296 6q1 11 1 20.5v20.5q0 74 -34 117t-96 43z" />
<glyph unicode="&#x114;" horiz-adv-x="496" d="M277 737q-27 0 -50.5 14.5t-38 37t-17.5 46.5l15 4q14 -31 37.5 -49.5t53.5 -18.5q31 0 53.5 20t35.5 50l17 4q-4 -44 -34.5 -76t-71.5 -32zM436 0h-316v535l-8 115h329l-5 -31l-284 5v-289l199 3l-5 -31l-194 2v-283l289 5z" />
<glyph unicode="&#x115;" horiz-adv-x="487" d="M248 588q-38 0 -66.5 34.5t-30.5 100.5l18 4q9 -60 30 -85.5t53 -25.5q66 0 84 113l17 4q-3 -67 -31.5 -106t-73.5 -39zM402 21q-22 -11 -55.5 -21t-74.5 -10q-98 0 -152.5 65.5t-54.5 181.5q0 80 25 141.5t70.5 96.5t104.5 35q73 0 117.5 -50.5t44.5 -132.5v-28t-1 -29 l-5 -15h-324v-6q0 -115 48.5 -174.5t130.5 -59.5q37 0 70.5 11t57.5 26zM265 486q-67 0 -113.5 -53t-53.5 -154l296 6q1 11 1 20.5v20.5q0 74 -34 117t-96 43z" />
<glyph unicode="&#x116;" horiz-adv-x="496" d="M306 792q0 -17 -7 -30.5t-23 -13.5q-13 0 -20.5 11t-7.5 26q0 17 8.5 30t22.5 13q13 0 20 -10t7 -26zM436 0h-316v535l-8 115h329l-5 -31l-284 5v-289l199 3l-5 -31l-194 2v-283l289 5z" />
<glyph unicode="&#x117;" horiz-adv-x="487" d="M281 659q0 -17 -7 -30.5t-23 -13.5q-13 0 -20.5 11t-7.5 26q0 17 8.5 30t22.5 13q13 0 20 -10t7 -26zM402 21q-22 -11 -55.5 -21t-74.5 -10q-98 0 -152.5 65.5t-54.5 181.5q0 80 25 141.5t70.5 96.5t104.5 35q73 0 117.5 -50.5t44.5 -132.5v-28t-1 -29l-5 -15h-324v-6 q0 -115 48.5 -174.5t130.5 -59.5q37 0 70.5 11t57.5 26zM265 486q-67 0 -113.5 -53t-53.5 -154l296 6q1 11 1 20.5v20.5q0 74 -34 117t-96 43z" />
<glyph unicode="&#x118;" horiz-adv-x="496" d="M435 0q-45 -17 -76 -48.5t-31 -62.5q0 -21 13.5 -31.5t34.5 -10.5q14 0 26.5 4t24.5 11l7 -16q-10 -9 -28.5 -15.5t-40.5 -6.5q-31 0 -50 15t-19 42q0 33 26.5 65.5t68.5 53.5h-271v535l-8 115h329l-5 -31l-284 5v-289l199 3l-5 -31l-194 2v-283l289 5l-5 -31h-1z" />
<glyph unicode="&#x119;" horiz-adv-x="487" d="M402 21q-47 -28 -79.5 -63.5t-32.5 -68.5q0 -21 13.5 -31.5t34.5 -10.5q14 0 26.5 4t24.5 11l7 -16q-10 -9 -28.5 -15.5t-40.5 -6.5q-31 0 -50 15t-19 42q0 29 20 59t54 56q-14 -3 -29 -4.5t-31 -1.5q-98 0 -152.5 65.5t-54.5 181.5q0 80 25 141.5t70.5 96.5t104.5 35 q73 0 117.5 -50.5t44.5 -132.5v-28t-1 -29l-5 -15h-324v-6q0 -115 48.5 -174.5t130.5 -59.5q37 0 70.5 11t57.5 26zM265 486q-67 0 -113.5 -53t-53.5 -154l296 6q1 11 1 20.5v20.5q0 74 -34 117t-96 43z" />
<glyph unicode="&#x11a;" horiz-adv-x="496" d="M381 842l10 -13q-30 -22 -52.5 -43t-43.5 -49l-36 -6q-36 50 -97 98l10 13q59 -30 104 -75q47 45 105 75zM436 0h-316v535l-8 115h329l-5 -31l-284 5v-289l199 3l-5 -31l-194 2v-283l289 5z" />
<glyph unicode="&#x11b;" horiz-adv-x="487" d="M345 737l9 -9q-26 -34 -47 -66.5t-39 -73.5l-32 -6q-17 40 -38.5 74.5t-48.5 71.5l9 9q27 -24 50 -55.5t43 -66.5q21 35 44 66.5t50 55.5zM402 21q-22 -11 -55.5 -21t-74.5 -10q-98 0 -152.5 65.5t-54.5 181.5q0 80 25 141.5t70.5 96.5t104.5 35q73 0 117.5 -50.5 t44.5 -132.5v-28t-1 -29l-5 -15h-324v-6q0 -115 48.5 -174.5t130.5 -59.5q37 0 70.5 11t57.5 26zM265 486q-67 0 -113.5 -53t-53.5 -154l296 6q1 11 1 20.5v20.5q0 74 -34 117t-96 43z" />
<glyph unicode="&#x11c;" horiz-adv-x="612" d="M224 732l-10 13q30 23 52.5 43.5t43.5 48.5l36 6q36 -50 97 -98l-10 -13q-59 30 -104 75q-47 -45 -105 -75zM512 29q-31 -19 -73 -29t-85 -10q-88 0 -151 42.5t-96 118t-32 174.5t35 174.5t97.5 118t151.5 42.5q39 0 78 -8.5t70 -25.5l-11 -34q-61 44 -148 44 q-75 0 -129 -39.5t-82.5 -109.5t-27.5 -162q1 -91 31 -161t86 -109.5t134 -39.5q67 0 120 26v102l-8 115l40 10v-239z" />
<glyph unicode="&#x11d;" horiz-adv-x="471" d="M137 582l-9 9q26 34 47 67t39 73l32 6q17 -40 38.5 -74.5t48.5 -71.5l-9 -9q-27 24 -50 55.5t-43 66.5q-21 -35 -44 -66.5t-50 -55.5zM119 114q0 17 10.5 32t28.5 24q-39 19 -62.5 58.5t-23.5 95.5q0 53 21 95t59 66.5t89 24.5h70.5t63 1.5t76.5 3.5v-31l-143 4v-1 q38 -17 60 -60.5t22 -93.5q0 -53 -21.5 -93.5t-58.5 -62.5t-83 -22q-26 0 -50 8q-13 -9 -20.5 -20.5t-7.5 -24.5q0 -22 17.5 -32.5t38.5 -14t31 -4.5l56 -5q74 -7 116 -34t42 -77q0 -41 -29 -74.5t-81 -52.5t-122 -19q-88 0 -138 31t-50 84q0 36 20.5 63.5t51 45.5t60.5 28 q-18 7 -30.5 21.5t-12.5 35.5zM104 330q0 -62 33 -106.5t97 -44.5q61 0 92.5 42.5t31.5 111.5q0 42 -12.5 77t-39.5 55.5t-69 20.5t-72 -21.5t-45.5 -56.5t-15.5 -78zM62 -75q0 -44 42 -70t116 -26q58 0 102.5 15.5t70 42.5t25.5 61q0 39 -35 62.5t-99 28.5l-79 7 q-39 -7 -71.5 -24t-52 -42t-19.5 -55z" />
<glyph unicode="&#x11e;" horiz-adv-x="612" d="M329 737q-27 0 -50.5 14.5t-38 37t-17.5 46.5l15 4q14 -31 37.5 -49.5t53.5 -18.5q31 0 53.5 20t35.5 50l17 4q-4 -44 -34.5 -76t-71.5 -32zM512 29q-31 -19 -73 -29t-85 -10q-88 0 -151 42.5t-96 118t-32 174.5t35 174.5t97.5 118t151.5 42.5q39 0 78 -8.5t70 -25.5 l-11 -34q-61 44 -148 44q-75 0 -129 -39.5t-82.5 -109.5t-27.5 -162q1 -91 31 -161t86 -109.5t134 -39.5q67 0 120 26v102l-8 115l40 10v-239z" />
<glyph unicode="&#x11f;" horiz-adv-x="471" d="M227 588q-38 0 -66.5 34.5t-30.5 100.5l18 4q9 -60 30 -85.5t53 -25.5q66 0 84 113l17 4q-3 -67 -31.5 -106t-73.5 -39zM119 114q0 17 10.5 32t28.5 24q-39 19 -62.5 58.5t-23.5 95.5q0 53 21 95t59 66.5t89 24.5h70.5t63 1.5t76.5 3.5v-31l-143 4v-1q38 -17 60 -60.5 t22 -93.5q0 -53 -21.5 -93.5t-58.5 -62.5t-83 -22q-26 0 -50 8q-13 -9 -20.5 -20.5t-7.5 -24.5q0 -22 17.5 -32.5t38.5 -14t31 -4.5l56 -5q74 -7 116 -34t42 -77q0 -41 -29 -74.5t-81 -52.5t-122 -19q-88 0 -138 31t-50 84q0 36 20.5 63.5t51 45.5t60.5 28q-18 7 -30.5 21.5 t-12.5 35.5zM104 330q0 -62 33 -106.5t97 -44.5q61 0 92.5 42.5t31.5 111.5q0 42 -12.5 77t-39.5 55.5t-69 20.5t-72 -21.5t-45.5 -56.5t-15.5 -78zM62 -75q0 -44 42 -70t116 -26q58 0 102.5 15.5t70 42.5t25.5 61q0 39 -35 62.5t-99 28.5l-79 7q-39 -7 -71.5 -24t-52 -42 t-19.5 -55z" />
<glyph unicode="&#x120;" horiz-adv-x="612" d="M358 792q0 -17 -7 -30.5t-23 -13.5q-13 0 -20.5 11t-7.5 26q0 17 8.5 30t22.5 13q13 0 20 -10t7 -26zM512 29q-31 -19 -73 -29t-85 -10q-88 0 -151 42.5t-96 118t-32 174.5t35 174.5t97.5 118t151.5 42.5q39 0 78 -8.5t70 -25.5l-11 -34q-61 44 -148 44q-75 0 -129 -39.5 t-82.5 -109.5t-27.5 -162q1 -91 31 -161t86 -109.5t134 -39.5q67 0 120 26v102l-8 115l40 10v-239z" />
<glyph unicode="&#x121;" horiz-adv-x="471" d="M260 659q0 -17 -7 -30.5t-23 -13.5q-13 0 -20.5 11t-7.5 26q0 17 8.5 30t22.5 13q13 0 20 -10t7 -26zM119 114q0 17 10.5 32t28.5 24q-39 19 -62.5 58.5t-23.5 95.5q0 53 21 95t59 66.5t89 24.5h70.5t63 1.5t76.5 3.5v-31l-143 4v-1q38 -17 60 -60.5t22 -93.5 q0 -53 -21.5 -93.5t-58.5 -62.5t-83 -22q-26 0 -50 8q-13 -9 -20.5 -20.5t-7.5 -24.5q0 -22 17.5 -32.5t38.5 -14t31 -4.5l56 -5q74 -7 116 -34t42 -77q0 -41 -29 -74.5t-81 -52.5t-122 -19q-88 0 -138 31t-50 84q0 36 20.5 63.5t51 45.5t60.5 28q-18 7 -30.5 21.5 t-12.5 35.5zM104 330q0 -62 33 -106.5t97 -44.5q61 0 92.5 42.5t31.5 111.5q0 42 -12.5 77t-39.5 55.5t-69 20.5t-72 -21.5t-45.5 -56.5t-15.5 -78zM62 -75q0 -44 42 -70t116 -26q58 0 102.5 15.5t70 42.5t25.5 61q0 39 -35 62.5t-99 28.5l-79 7q-39 -7 -71.5 -24t-52 -42 t-19.5 -55z" />
<glyph unicode="&#x122;" horiz-adv-x="612" d="M512 29q-31 -19 -73 -29t-85 -10q-88 0 -151 42.5t-96 118t-32 174.5t35 174.5t97.5 118t151.5 42.5q39 0 78 -8.5t70 -25.5l-11 -34q-61 44 -148 44q-75 0 -129 -39.5t-82.5 -109.5t-27.5 -162q1 -91 31 -161t86 -109.5t134 -39.5q67 0 120 26v102l-8 115l40 10v-239z M339 -130q0 -21 -12 -53.5t-35 -60.5l-12 8q13 21 19 41t9 39h-1q-29 6 -29 33q0 15 8.5 25t22.5 10t22 -11.5t8 -30.5z" />
<glyph unicode="&#x123;" horiz-adv-x="471" d="M207 639q0 21 12 53.5t35 60.5l12 -8q-13 -21 -19 -41t-9 -39h1q29 -6 29 -33q0 -15 -8.5 -25t-22.5 -10t-22 11.5t-8 30.5zM119 114q0 17 10.5 32t28.5 24q-39 19 -62.5 58.5t-23.5 95.5q0 53 21 95t59 66.5t89 24.5h70.5t63 1.5t76.5 3.5v-31l-143 4v-1 q38 -17 60 -60.5t22 -93.5q0 -53 -21.5 -93.5t-58.5 -62.5t-83 -22q-26 0 -50 8q-13 -9 -20.5 -20.5t-7.5 -24.5q0 -22 17.5 -32.5t38.5 -14t31 -4.5l56 -5q74 -7 116 -34t42 -77q0 -41 -29 -74.5t-81 -52.5t-122 -19q-88 0 -138 31t-50 84q0 36 20.5 63.5t51 45.5t60.5 28 q-18 7 -30.5 21.5t-12.5 35.5zM104 330q0 -62 33 -106.5t97 -44.5q61 0 92.5 42.5t31.5 111.5q0 42 -12.5 77t-39.5 55.5t-69 20.5t-72 -21.5t-45.5 -56.5t-15.5 -78zM62 -75q0 -44 42 -70t116 -26q58 0 102.5 15.5t70 42.5t25.5 61q0 39 -35 62.5t-99 28.5l-79 7 q-39 -7 -71.5 -24t-52 -42t-19.5 -55z" />
<glyph unicode="&#x124;" horiz-adv-x="668" d="M229 732l-10 13q30 23 52.5 43.5t43.5 48.5l36 6q36 -50 97 -98l-10 -13q-59 30 -104 75q-47 -45 -105 -75zM152 0h-32v535l-8 115l40 10v-333h364v208l-8 115l40 10v-660h-32v297h-364v-297z" />
<glyph unicode="&#x125;" horiz-adv-x="524" d="M2 733l-10 13q30 23 52.5 43.5t43.5 48.5l36 6q36 -50 97 -98l-10 -13q-59 30 -104 75q-47 -45 -105 -75zM123 0h-30v570l-8 115l38 10v-264q74 79 169 79q53 0 84 -24.5t44.5 -63t13.5 -81.5v-341h-30v330q0 78 -31 117t-87 39q-90 0 -163 -88v-398z" />
<glyph unicode="&#x126;" horiz-adv-x="668" d="M152 0h-32v482h-96v22h96v31l-8 115l40 10v-156h364v31l-8 115l40 10v-156h96v-22h-96v-482h-32v297h-364v-297zM152 327h364v155h-364v-155z" />
<glyph unicode="&#x127;" horiz-adv-x="524" d="M123 0h-30v570l-1 8h-85v22h84l-6 85l38 10v-95h244v-22h-244v-147q74 79 169 79q53 0 84 -24.5t44.5 -63t13.5 -81.5v-341h-30v330q0 78 -31 117t-87 39q-90 0 -163 -88v-398z" />
<glyph unicode="&#x128;" horiz-adv-x="272" d="M85 825q23 0 39.5 -10.5t32 -21.5t33.5 -11q20 0 34 14t24 33l16 -5q-6 -26 -26.5 -49.5t-52.5 -23.5q-23 0 -39 11t-31 21.5t-34 10.5t-33.5 -13.5t-24.5 -33.5l-16 5q7 25 26.5 49t51.5 24zM152 0h-32v535l-8 115l40 10v-660z" />
<glyph unicode="&#x129;" horiz-adv-x="213" d="M76 703q18 0 29.5 -12t21 -24t21.5 -12q13 0 22 16t13 35l14 -4q-2 -26 -14 -51.5t-38 -25.5q-19 0 -30 12t-20.5 24t-21.5 12q-13 0 -21.5 -15.5t-13.5 -35.5l-14 4q2 17 8 34.5t16.5 30t27.5 12.5zM123 0h-30v385l-8 115l38 10v-510z" />
<glyph unicode="&#x12a;" horiz-adv-x="272" d="M26 770v33h220v-33h-220zM152 0h-32v535l-8 115l40 10v-660z" />
<glyph unicode="&#x12b;" horiz-adv-x="213" d="M41 646v26h140v-26h-140zM123 0h-30v385l-8 115l38 10v-510z" />
<glyph unicode="&#x12c;" horiz-adv-x="272" d="M136 737q-27 0 -50.5 14.5t-38 37t-17.5 46.5l15 4q14 -31 37.5 -49.5t53.5 -18.5q31 0 53.5 20t35.5 50l17 4q-4 -44 -34.5 -76t-71.5 -32zM152 0h-32v535l-8 115l40 10v-660z" />
<glyph unicode="&#x12d;" horiz-adv-x="213" d="M107 583q-30 0 -52.5 36t-24.5 104l18 4q7 -63 22.5 -89.5t40.5 -26.5q51 0 64 118l17 4q-2 -69 -25 -109.5t-60 -40.5zM123 0h-30v385l-8 115l38 10v-510z" />
<glyph unicode="&#x12e;" horiz-adv-x="370" d="M206 0q-25 -21 -43.5 -48t-18.5 -56q0 -23 13.5 -36t34.5 -13q14 0 26.5 4t24.5 11l7 -16q-10 -9 -28.5 -15.5t-40.5 -6.5q-31 0 -50 17.5t-19 48.5q0 30 18.5 58.5t46.5 51.5h-3v535l-8 115l40 10v-660z" />
<glyph unicode="&#x12f;" horiz-adv-x="293" d="M189 659q0 -17 -7 -30.5t-23 -13.5q-13 0 -20.5 11t-7.5 26q0 17 8.5 30t22.5 13q13 0 20 -10t7 -26zM171 0q-24 -25 -40.5 -56.5t-16.5 -54.5q0 -21 13.5 -31.5t34.5 -10.5q14 0 26.5 4t24.5 11l7 -16q-10 -9 -28.5 -15.5t-40.5 -6.5q-31 0 -50 15t-19 42q0 28 18 60.5 t46 58.5h-4v385l-8 115l38 10v-510h-1z" />
<glyph unicode="&#x130;" horiz-adv-x="272" d="M165 792q0 -17 -7 -30.5t-23 -13.5q-13 0 -20.5 11t-7.5 26q0 17 8.5 30t22.5 13q13 0 20 -10t7 -26zM152 0h-32v535l-8 115l40 10v-660z" />
<glyph unicode="&#x131;" horiz-adv-x="213" d="M123 0h-30v385l-8 115l38 10v-510z" />
<glyph unicode="&#x132;" horiz-adv-x="542" d="M152 0h-32v535l-8 115l40 10v-660zM291 -171q54 24 77.5 64t23.5 98v544l-8 115l38 10v-660q0 -64 -27.5 -117t-99.5 -78z" />
<glyph unicode="&#x133;" horiz-adv-x="426" d="M140 659q0 -17 -7 -30.5t-23 -13.5q-13 0 -20.5 11t-7.5 26q0 17 8.5 30t22.5 13q13 0 20 -10t7 -26zM348 659q0 -17 -7 -30.5t-23 -13.5q-13 0 -20.5 11t-7.5 26q0 17 8.5 30t22.5 13q13 0 20 -10t7 -26zM123 0h-30v385l-8 115l38 10v-510zM224 -177q39 30 60.5 66 t21.5 98v398l-8 115l38 10v-526q0 -61 -26 -104t-75 -76z" />
<glyph unicode="&#x134;" horiz-adv-x="270" d="M30 732l-10 13q30 23 52.5 43.5t43.5 48.5l36 6q36 -50 97 -98l-10 -13q-59 30 -104 75q-47 -45 -105 -75zM19 -171q54 24 77.5 64t23.5 98v544l-8 115l38 10v-660q0 -64 -27.5 -117t-99.5 -78z" />
<glyph unicode="&#x135;" horiz-adv-x="213" d="M45 582l-11 7q17 35 29.5 68t25.5 74l32 6q13 -40 26 -75t30 -73l-11 -7q-30 51 -60 120q-16 -35 -31.5 -65t-29.5 -55zM11 -177q39 30 60.5 66t21.5 98v398l-8 115l38 10v-526q0 -61 -26 -104t-75 -76z" />
<glyph unicode="&#x136;" horiz-adv-x="529" d="M120 535l-8 115l41 10v-328h90l212 328l34 -10l-218 -333l218 -317l-34 -10l-212 312h-90v-302h-33v535zM315 -130q0 -21 -12 -53.5t-35 -60.5l-12 8q13 21 19 41t9 39h-1q-29 6 -29 33q0 15 8.5 25t22.5 10t22 -11.5t8 -30.5z" />
<glyph unicode="&#x137;" horiz-adv-x="457" d="M123 0h-30v570l-8 115l38 10v-414h86l187 229l24 -10l-188 -232l210 -268l-29 -10l-204 266h-86v-256zM271 -130q0 -21 -12 -53.5t-35 -60.5l-12 8q13 21 19 41t9 39h-1q-29 6 -29 33q0 15 8.5 25t22.5 10t22 -11.5t8 -30.5z" />
<glyph unicode="&#x138;" horiz-adv-x="472" d="M118 0h-30v385l-8 115l38 10v-229h86l187 229l24 -10l-188 -232l210 -268l-29 -10l-204 266h-86v-256z" />
<glyph unicode="&#x139;" horiz-adv-x="466" d="M254 816q-40 -32 -82 -52.5t-80 -31.5l-9 17q37 19 72 43t64 49zM436 0h-316v535l-8 115l40 10v-634l289 5z" />
<glyph unicode="&#x13a;" horiz-adv-x="213" d="M193 803q-40 -32 -82 -52.5t-80 -31.5l-9 17q37 19 72 43t64 49zM123 0h-30v570l-8 115l38 10v-695z" />
<glyph unicode="&#x13b;" horiz-adv-x="466" d="M436 0h-316v535l-8 115l40 10v-634l289 5zM315 -130q0 -21 -12 -53.5t-35 -60.5l-12 8q13 21 19 41t9 39h-1q-29 6 -29 33q0 15 8.5 25t22.5 10t22 -11.5t8 -30.5z" />
<glyph unicode="&#x13c;" horiz-adv-x="213" d="M123 0h-30v570l-8 115l38 10v-695zM138 -130q0 -21 -12 -53.5t-35 -60.5l-12 8q13 21 19 41t9 39h-1q-29 6 -29 33q0 15 8.5 25t22.5 10t22 -11.5t8 -30.5z" />
<glyph unicode="&#x13d;" horiz-adv-x="466" d="M360 691q-12 -58 -30 -104.5t-38 -82.5l-14 6q15 41 28 89t21 94zM436 0h-316v535l-8 115l40 10v-634l289 5z" />
<glyph unicode="&#x13e;" horiz-adv-x="213" d="M263 711q-12 -58 -30 -104.5t-38 -82.5l-14 6q15 41 28 89t21 94zM123 0h-30v570l-8 115l38 10v-695z" />
<glyph unicode="&#x13f;" horiz-adv-x="531" d="M383 268q-13 0 -21 9.5t-8 22.5q0 14 9 25t23 11t21 -8.5t7 -22.5q0 -13 -7.5 -25t-23.5 -12zM436 0h-316v535l-8 115l40 10v-634l289 5z" />
<glyph unicode="&#x140;" horiz-adv-x="377" d="M123 0h-30v570l-8 115l38 10v-695zM287 253q-13 0 -21 9.5t-8 22.5q0 14 9 25t23 11t21 -8.5t7 -22.5q0 -13 -7.5 -25t-23.5 -12z" />
<glyph unicode="&#x141;" horiz-adv-x="466" d="M436 0h-316v286l-90 -50l-12 21l102 57v221l-8 115l40 10v-329l167 93l13 -21l-180 -100v-277l289 5z" />
<glyph unicode="&#x142;" horiz-adv-x="213" d="M123 0h-30v338l-96 -53l-12 21l108 60v204l-8 115l38 10v-313l95 53l13 -21l-108 -60v-354z" />
<glyph unicode="&#x143;" horiz-adv-x="670" d="M420 816q-40 -32 -82 -52.5t-80 -31.5l-9 17q37 19 72 43t64 49zM120 535l-8 115l50 10l357 -632h2l-6 622l35 10v-660h-49l-352 623h-2l6 -623h-33v535z" />
<glyph unicode="&#x144;" horiz-adv-x="524" d="M319 731q-19 -46 -43 -83t-51 -66l-14 5q47 68 72 146zM123 0h-30v385l-8 115l38 10v-79q74 79 169 79q53 0 84 -24.5t44.5 -63t13.5 -81.5v-341h-30v330q0 78 -31 117t-87 39q-90 0 -163 -88v-398z" />
<glyph unicode="&#x145;" horiz-adv-x="670" d="M120 535l-8 115l50 10l357 -632h2l-6 622l35 10v-660h-49l-352 623h-2l6 -623h-33v535zM365 -130q0 -21 -12 -53.5t-35 -60.5l-12 8q13 21 19 41t9 39h-1q-29 6 -29 33q0 15 8.5 25t22.5 10t22 -11.5t8 -30.5z" />
<glyph unicode="&#x146;" horiz-adv-x="524" d="M123 0h-30v385l-8 115l38 10v-79q74 79 169 79q53 0 84 -24.5t44.5 -63t13.5 -81.5v-341h-30v330q0 78 -31 117t-87 39q-90 0 -163 -88v-398zM295 -130q0 -21 -12 -53.5t-35 -60.5l-12 8q13 21 19 41t9 39h-1q-29 6 -29 33q0 15 8.5 25t22.5 10t22 -11.5t8 -30.5z" />
<glyph unicode="&#x147;" horiz-adv-x="670" d="M439 842l10 -13q-30 -22 -52.5 -43t-43.5 -49l-36 -6q-36 50 -97 98l10 13q59 -30 104 -75q47 45 105 75zM120 535l-8 115l50 10l357 -632h2l-6 622l35 10v-660h-49l-352 623h-2l6 -623h-33v535z" />
<glyph unicode="&#x148;" horiz-adv-x="524" d="M358 737l9 -9q-26 -34 -47 -66.5t-39 -73.5l-32 -6q-17 40 -38.5 74.5t-48.5 71.5l9 9q27 -24 50 -55.5t43 -66.5q21 35 44 66.5t50 55.5zM123 0h-30v385l-8 115l38 10v-79q74 79 169 79q53 0 84 -24.5t44.5 -63t13.5 -81.5v-341h-30v330q0 78 -31 117t-87 39 q-90 0 -163 -88v-398z" />
<glyph unicode="&#x14a;" horiz-adv-x="670" d="M419 -171q49 22 72.5 56t27.5 84l-370 654h-2l6 -623h-33v535l-8 115l50 10l357 -632h2l-6 622l35 10v-660q0 -64 -27.5 -117t-99.5 -78z" />
<glyph unicode="&#x14b;" horiz-adv-x="524" d="M123 0h-30v385l-8 115l38 10v-79q74 79 169 79q53 0 84 -24.5t44.5 -63t13.5 -81.5v-357q0 -61 -26 -104t-75 -76l-11 19q39 30 60.5 66t21.5 98v343q0 78 -31 117t-87 39q-90 0 -163 -88v-398z" />
<glyph unicode="&#x14c;" horiz-adv-x="661" d="M221 770v33h220v-33h-220zM586 325q-1 -99 -33 -174.5t-89.5 -118t-135.5 -42.5t-135 42.5t-88 118t-30 174.5t33 174.5t90 118t136 42.5t134.5 -42.5t87.5 -118t30 -174.5zM109 325q1 -91 29 -161.5t78 -110t118 -39.5t117 39.5t75.5 110t25.5 161.5q-1 92 -29 162 t-77.5 109.5t-117.5 39.5t-117.5 -39.5t-76 -109.5t-25.5 -162z" />
<glyph unicode="&#x14d;" horiz-adv-x="547" d="M174 646v26h200v-26h-200zM482 264q0 -92 -32.5 -153t-83.5 -91t-109 -30q-85 0 -138.5 64t-53.5 180q0 92 32.5 153.5t84 92t108.5 30.5q86 0 139 -65t53 -181zM97 240q0 -108 47 -167t121 -59q49 0 91 27t68 81t26 135q0 106 -45.5 167.5t-122.5 61.5q-49 0 -91 -27.5 t-68 -82t-26 -136.5z" />
<glyph unicode="&#x14e;" horiz-adv-x="661" d="M331 737q-27 0 -50.5 14.5t-38 37t-17.5 46.5l15 4q14 -31 37.5 -49.5t53.5 -18.5q31 0 53.5 20t35.5 50l17 4q-4 -44 -34.5 -76t-71.5 -32zM586 325q-1 -99 -33 -174.5t-89.5 -118t-135.5 -42.5t-135 42.5t-88 118t-30 174.5t33 174.5t90 118t136 42.5t134.5 -42.5 t87.5 -118t30 -174.5zM109 325q1 -91 29 -161.5t78 -110t118 -39.5t117 39.5t75.5 110t25.5 161.5q-1 92 -29 162t-77.5 109.5t-117.5 39.5t-117.5 -39.5t-76 -109.5t-25.5 -162z" />
<glyph unicode="&#x14f;" horiz-adv-x="547" d="M270 588q-38 0 -66.5 34.5t-30.5 100.5l18 4q9 -60 30 -85.5t53 -25.5q66 0 84 113l17 4q-3 -67 -31.5 -106t-73.5 -39zM482 264q0 -92 -32.5 -153t-83.5 -91t-109 -30q-85 0 -138.5 64t-53.5 180q0 92 32.5 153.5t84 92t108.5 30.5q86 0 139 -65t53 -181zM97 240 q0 -108 47 -167t121 -59q49 0 91 27t68 81t26 135q0 106 -45.5 167.5t-122.5 61.5q-49 0 -91 -27.5t-68 -82t-26 -136.5z" />
<glyph unicode="&#x150;" horiz-adv-x="661" d="M324 819q-40 -32 -82 -52.5t-80 -31.5l-7 14q37 19 72 43t64 49zM506 819q-40 -32 -82 -52.5t-80 -31.5l-7 14q37 19 72 43t64 49zM586 325q-1 -99 -33 -174.5t-89.5 -118t-135.5 -42.5t-135 42.5t-88 118t-30 174.5t33 174.5t90 118t136 42.5t134.5 -42.5t87.5 -118 t30 -174.5zM109 325q1 -91 29 -161.5t78 -110t118 -39.5t117 39.5t75.5 110t25.5 161.5q-1 92 -29 162t-77.5 109.5t-117.5 39.5t-117.5 -39.5t-76 -109.5t-25.5 -162z" />
<glyph unicode="&#x151;" horiz-adv-x="547" d="M265 731q-19 -46 -42.5 -83t-50.5 -66l-10 6q23 33 41 70.5t30 74.5zM387 731q-19 -46 -42.5 -83t-50.5 -66l-10 6q23 33 41 70.5t30 74.5zM482 264q0 -92 -32.5 -153t-83.5 -91t-109 -30q-85 0 -138.5 64t-53.5 180q0 92 32.5 153.5t84 92t108.5 30.5q86 0 139 -65 t53 -181zM97 240q0 -108 47 -167t121 -59q49 0 91 27t68 81t26 135q0 106 -45.5 167.5t-122.5 61.5q-49 0 -91 -27.5t-68 -82t-26 -136.5z" />
<glyph unicode="&#x152;" horiz-adv-x="853" d="M703 307l-117 2q-4 -97 -38.5 -170.5t-93.5 -112.5l344 5l-5 -31h-396q-33 -10 -69 -10q-78 0 -135 42.5t-88 118t-30 174.5t33 174.5t90 118t136 42.5q36 0 69 -10h395l-5 -31l-333 4q58 -39 91.5 -114t34.5 -174l122 3zM109 325q1 -91 29 -161.5t78 -110t118 -39.5 t117 39.5t75.5 110t25.5 161.5q-1 92 -29 162t-77.5 109.5t-117.5 39.5t-117.5 -39.5t-76 -109.5t-25.5 -162z" />
<glyph unicode="&#x153;" horiz-adv-x="872" d="M787 21q-22 -11 -55.5 -21t-74.5 -10q-76 0 -126 39t-69 111q-28 -75 -84.5 -112.5t-120.5 -37.5q-85 0 -138.5 64t-53.5 180q0 92 32.5 153.5t84 92t108.5 30.5q65 0 112.5 -38.5t66.5 -108.5q24 68 71 107.5t110 39.5q73 0 117.5 -50.5t44.5 -132.5v-28t-1 -29l-5 -15 h-324v-6q0 -115 48.5 -174.5t130.5 -59.5q37 0 70.5 11t57.5 26zM97 240q0 -108 47 -167t121 -59q49 0 91 27t68 81t26 135q0 106 -45.5 167.5t-122.5 61.5q-49 0 -91 -27.5t-68 -82t-26 -136.5zM650 486q-67 0 -113.5 -53t-53.5 -154l296 6q1 11 1 20.5v20.5q0 74 -34 117 t-96 43z" />
<glyph unicode="&#x154;" horiz-adv-x="539" d="M360 816q-40 -32 -82 -52.5t-80 -31.5l-9 17q37 19 72 43t64 49zM152 0h-32v535l-8 115h127q107 0 164.5 -52.5t57.5 -134.5q0 -69 -39 -117t-108 -66l175 -280l-34 -10l-176 283q-22 -3 -46 -3h-81v-270zM233 624h-81v-328h87q91 0 139.5 46t48.5 121q0 73 -49 117 t-145 44z" />
<glyph unicode="&#x155;" horiz-adv-x="327" d="M233 731q-19 -46 -43 -83t-51 -66l-14 5q47 68 72 146zM123 0h-30v385l-8 115l38 10v-119q25 60 65 89.5t86 29.5q9 0 20 -1t18 -3l-6 -32q-6 2 -15.5 4t-22.5 2q-43 0 -80 -29t-65 -95v-356z" />
<glyph unicode="&#x156;" horiz-adv-x="539" d="M152 0h-32v535l-8 115h127q107 0 164.5 -52.5t57.5 -134.5q0 -69 -39 -117t-108 -66l175 -280l-34 -10l-176 283q-22 -3 -46 -3h-81v-270zM233 624h-81v-328h87q91 0 139.5 46t48.5 121q0 73 -49 117t-145 44zM305 -130q0 -21 -12 -53.5t-35 -60.5l-12 8q13 21 19 41 t9 39h-1q-29 6 -29 33q0 15 8.5 25t22.5 10t22 -11.5t8 -30.5z" />
<glyph unicode="&#x157;" horiz-adv-x="327" d="M123 0h-30v385l-8 115l38 10v-119q25 60 65 89.5t86 29.5q9 0 20 -1t18 -3l-6 -32q-6 2 -15.5 4t-22.5 2q-43 0 -80 -29t-65 -95v-356zM137 -130q0 -21 -12 -53.5t-35 -60.5l-12 8q13 21 19 41t9 39h-1q-29 6 -29 33q0 15 8.5 25t22.5 10t22 -11.5t8 -30.5z" />
<glyph unicode="&#x158;" horiz-adv-x="539" d="M379 842l10 -13q-30 -22 -52.5 -43t-43.5 -49l-36 -6q-36 50 -97 98l10 13q59 -30 104 -75q47 45 105 75zM152 0h-32v535l-8 115h127q107 0 164.5 -52.5t57.5 -134.5q0 -69 -39 -117t-108 -66l175 -280l-34 -10l-176 283q-22 -3 -46 -3h-81v-270zM233 624h-81v-328h87 q91 0 139.5 46t48.5 121q0 73 -49 117t-145 44z" />
<glyph unicode="&#x159;" horiz-adv-x="327" d="M272 737l9 -9q-26 -34 -47 -66.5t-39 -73.5l-32 -6q-17 40 -38.5 74.5t-48.5 71.5l9 9q27 -24 50 -55.5t43 -66.5q21 35 44 66.5t50 55.5zM123 0h-30v385l-8 115l38 10v-119q25 60 65 89.5t86 29.5q9 0 20 -1t18 -3l-6 -32q-6 2 -15.5 4t-22.5 2q-43 0 -80 -29t-65 -95 v-356z" />
<glyph unicode="&#x15a;" horiz-adv-x="479" d="M325 816q-40 -32 -82 -52.5t-80 -31.5l-9 17q37 19 72 43t64 49zM414 144q0 -43 -23 -78t-65 -55.5t-101 -20.5q-43 0 -85.5 10.5t-74.5 25.5l6 35q21 -14 64.5 -30.5t95.5 -16.5q50 0 83 18t49.5 46.5t16.5 61.5q0 41 -21.5 71t-55.5 54.5t-71.5 47.5t-71.5 49.5 t-55.5 60t-21.5 79.5q0 68 50.5 113t138.5 45q35 0 70 -7.5t63 -21.5l-6 -35q-15 11 -51 25.5t-83 14.5q-72 0 -110 -38t-38 -89q0 -41 21.5 -72t55.5 -56.5t71.5 -49.5t71.5 -50.5t55.5 -59.5t21.5 -77z" />
<glyph unicode="&#x15b;" horiz-adv-x="409" d="M276 731q-19 -46 -43 -83t-51 -66l-14 5q47 68 72 146zM359 116q0 -55 -44.5 -90.5t-121.5 -35.5q-40 0 -77 10.5t-66 25.5l6 35q21 -16 58.5 -31.5t85.5 -15.5q63 0 95 29.5t32 69.5q0 33 -18.5 55.5t-48 39.5t-61.5 33t-62 34t-48.5 43.5t-18.5 62.5q0 56 44 92.5 t120 36.5q34 0 64 -7.5t54 -21.5l-6 -35q-17 14 -47.5 27t-72.5 13q-58 0 -91 -29.5t-33 -70.5q0 -30 15.5 -51.5t41 -38t54.5 -31.5q35 -18 68.5 -37.5t55.5 -45.5t22 -66z" />
<glyph unicode="&#x15c;" horiz-adv-x="479" d="M135 732l-10 13q30 23 52.5 43.5t43.5 48.5l36 6q36 -50 97 -98l-10 -13q-59 30 -104 75q-47 -45 -105 -75zM414 144q0 -43 -23 -78t-65 -55.5t-101 -20.5q-43 0 -85.5 10.5t-74.5 25.5l6 35q21 -14 64.5 -30.5t95.5 -16.5q50 0 83 18t49.5 46.5t16.5 61.5q0 41 -21.5 71 t-55.5 54.5t-71.5 47.5t-71.5 49.5t-55.5 60t-21.5 79.5q0 68 50.5 113t138.5 45q35 0 70 -7.5t63 -21.5l-6 -35q-15 11 -51 25.5t-83 14.5q-72 0 -110 -38t-38 -89q0 -41 21.5 -72t55.5 -56.5t71.5 -49.5t71.5 -50.5t55.5 -59.5t21.5 -77z" />
<glyph unicode="&#x15d;" horiz-adv-x="409" d="M128 582l-9 9q26 34 47 67t39 73l32 6q17 -40 38.5 -74.5t48.5 -71.5l-9 -9q-27 24 -50 55.5t-43 66.5q-21 -35 -44 -66.5t-50 -55.5zM359 116q0 -55 -44.5 -90.5t-121.5 -35.5q-40 0 -77 10.5t-66 25.5l6 35q21 -16 58.5 -31.5t85.5 -15.5q63 0 95 29.5t32 69.5 q0 33 -18.5 55.5t-48 39.5t-61.5 33t-62 34t-48.5 43.5t-18.5 62.5q0 56 44 92.5t120 36.5q34 0 64 -7.5t54 -21.5l-6 -35q-17 14 -47.5 27t-72.5 13q-58 0 -91 -29.5t-33 -70.5q0 -30 15.5 -51.5t41 -38t54.5 -31.5q35 -18 68.5 -37.5t55.5 -45.5t22 -66z" />
<glyph unicode="&#x15e;" horiz-adv-x="479" d="M290 -110q0 14 -15.5 24.5t-51.5 14.5l22 62q-10 -1 -20 -1q-43 0 -85.5 10.5t-74.5 25.5l6 35q21 -14 64.5 -30.5t95.5 -16.5q50 0 83 18t49.5 46.5t16.5 61.5q0 41 -21.5 71t-55.5 54.5t-71.5 47.5t-71.5 49.5t-55.5 60t-21.5 79.5q0 68 50.5 113t138.5 45 q35 0 70 -7.5t63 -21.5l-6 -35q-15 11 -51 25.5t-83 14.5q-72 0 -110 -38t-38 -89q0 -41 21.5 -72t55.5 -56.5t71.5 -49.5t71.5 -50.5t55.5 -59.5t21.5 -77q0 -56 -38.5 -97.5t-105.5 -52.5l-17 -48q69 -13 69 -53q0 -21 -17 -35.5t-43 -22.5t-54 -9l-1 18q39 5 61 17t22 29 z" />
<glyph unicode="&#x15f;" horiz-adv-x="409" d="M247 -110q0 14 -15.5 24.5t-51.5 14.5l22 61h-9q-40 0 -77 10.5t-66 25.5l6 35q21 -16 58.5 -31.5t85.5 -15.5q63 0 95 29.5t32 69.5q0 33 -18.5 55.5t-48 39.5t-61.5 33t-62 34t-48.5 43.5t-18.5 62.5q0 56 44 92.5t120 36.5q34 0 64 -7.5t54 -21.5l-6 -35 q-17 14 -47.5 27t-72.5 13q-58 0 -91 -29.5t-33 -70.5q0 -30 15.5 -51.5t41 -38t54.5 -31.5q35 -18 68.5 -37.5t55.5 -45.5t22 -66q0 -49 -35.5 -82.5t-97.5 -41.5l-16 -46q69 -13 69 -53q0 -21 -17 -35.5t-43 -22.5t-54 -9l-1 18q39 5 61 17t22 29z" />
<glyph unicode="&#x160;" horiz-adv-x="479" d="M344 842l10 -13q-30 -22 -52.5 -43t-43.5 -49l-36 -6q-36 50 -97 98l10 13q59 -30 104 -75q47 45 105 75zM414 144q0 -43 -23 -78t-65 -55.5t-101 -20.5q-43 0 -85.5 10.5t-74.5 25.5l6 35q21 -14 64.5 -30.5t95.5 -16.5q50 0 83 18t49.5 46.5t16.5 61.5q0 41 -21.5 71 t-55.5 54.5t-71.5 47.5t-71.5 49.5t-55.5 60t-21.5 79.5q0 68 50.5 113t138.5 45q35 0 70 -7.5t63 -21.5l-6 -35q-15 11 -51 25.5t-83 14.5q-72 0 -110 -38t-38 -89q0 -41 21.5 -72t55.5 -56.5t71.5 -49.5t71.5 -50.5t55.5 -59.5t21.5 -77z" />
<glyph unicode="&#x161;" horiz-adv-x="409" d="M315 737l9 -9q-26 -34 -47 -66.5t-39 -73.5l-32 -6q-17 40 -38.5 74.5t-48.5 71.5l9 9q27 -24 50 -55.5t43 -66.5q21 35 44 66.5t50 55.5zM359 116q0 -55 -44.5 -90.5t-121.5 -35.5q-40 0 -77 10.5t-66 25.5l6 35q21 -16 58.5 -31.5t85.5 -15.5q63 0 95 29.5t32 69.5 q0 33 -18.5 55.5t-48 39.5t-61.5 33t-62 34t-48.5 43.5t-18.5 62.5q0 56 44 92.5t120 36.5q34 0 64 -7.5t54 -21.5l-6 -35q-17 14 -47.5 27t-72.5 13q-58 0 -91 -29.5t-33 -70.5q0 -30 15.5 -51.5t41 -38t54.5 -31.5q35 -18 68.5 -37.5t55.5 -45.5t22 -66z" />
<glyph unicode="&#x162;" horiz-adv-x="470" d="M270 -110q0 14 -15.5 24.5t-51.5 14.5l25 71h-8v624l-195 -5l5 31h410l5 -31l-193 5v-624l-19 -54q69 -13 69 -53q0 -21 -17 -35.5t-43 -22.5t-54 -9l-1 18q39 5 61 17t22 29z" />
<glyph unicode="&#x163;" horiz-adv-x="369" d="M245 -110q0 14 -15.5 24.5t-51.5 14.5l22 62q-45 5 -70 35.5t-25 93.5v335l-55 1v15l56 5l9 155l20 3v-158h195l-2 -25l-193 3v-320q0 -25 4 -53t23 -47.5t64 -19.5q35 0 63 11.5t44 22.5l6 -27q-19 -12 -51 -21.5t-65 -9.5l-15 -44q69 -13 69 -53q0 -21 -17 -35.5 t-43 -22.5t-54 -9l-1 18q39 5 61 17t22 29z" />
<glyph unicode="&#x164;" horiz-adv-x="470" d="M339 842l10 -13q-30 -22 -52.5 -43t-43.5 -49l-36 -6q-36 50 -97 98l10 13q59 -30 104 -75q47 45 105 75zM252 0h-32v624l-195 -5l5 31h410l5 -31l-193 5v-624z" />
<glyph unicode="&#x165;" horiz-adv-x="369" d="M288 741q-12 -58 -30 -104.5t-38 -82.5l-14 6q15 41 28 89t21 94zM328 451l-193 3v-320q0 -25 4 -53t23 -47.5t64 -19.5q35 0 63 11.5t44 22.5l6 -27q-19 -12 -51 -21.5t-67 -9.5q-54 0 -85 30t-31 100v335l-55 1v15l56 5l9 155l20 3v-158h195z" />
<glyph unicode="&#x166;" horiz-adv-x="470" d="M252 0h-32v314h-165v22h165v288l-195 -5l5 31h410l5 -31l-193 5v-288h163v-22h-163v-314z" />
<glyph unicode="&#x167;" horiz-adv-x="369" d="M329 257h-194v-123q0 -25 4 -53t23 -47.5t64 -19.5q35 0 63 11.5t44 22.5l6 -27q-19 -12 -51 -21.5t-67 -9.5q-54 0 -85 30t-31 100v137h-56v22h56v176l-55 1v15l56 5l9 155l20 3v-158h195l-2 -25l-193 3v-175h194v-22z" />
<glyph unicode="&#x168;" horiz-adv-x="638" d="M268 825q23 0 39.5 -10.5t32 -21.5t33.5 -11q20 0 34 14t24 33l16 -5q-6 -26 -26.5 -49.5t-52.5 -23.5q-23 0 -39 11t-31 21.5t-34 10.5t-33.5 -13.5t-24.5 -33.5l-16 5q7 25 26.5 49t51.5 24zM321 14q78 0 124 52t46 134v335l-8 115l40 10v-460q0 -61 -26 -108.5 t-72.5 -74.5t-109.5 -27q-61 0 -106 27t-69.5 74.5t-24.5 108.5v335l-8 115l40 10v-460q0 -54 22 -96t61 -66t91 -24z" />
<glyph unicode="&#x169;" horiz-adv-x="525" d="M205 703q24 0 42 -12t34.5 -24t34.5 -12q20 0 34 16t21 35l14 -4q-3 -26 -22.5 -51.5t-51.5 -25.5q-23 0 -41 12t-34 24t-35 12t-33 -15.5t-22 -35.5l-14 4q3 17 12 34.5t24.5 30t36.5 12.5zM90 159v341l30 10v-340q0 -78 30.5 -117t79.5 -39q38 0 79.5 22.5t75.5 65.5 v398l30 10v-405q0 -26 5.5 -53.5t19.5 -51.5l-28 -10q-23 37 -26 79q-35 -38 -78 -58.5t-84 -20.5q-47 0 -77 24.5t-43.5 63t-13.5 81.5z" />
<glyph unicode="&#x16a;" horiz-adv-x="638" d="M209 770v33h220v-33h-220zM321 14q78 0 124 52t46 134v335l-8 115l40 10v-460q0 -61 -26 -108.5t-72.5 -74.5t-109.5 -27q-61 0 -106 27t-69.5 74.5t-24.5 108.5v335l-8 115l40 10v-460q0 -54 22 -96t61 -66t91 -24z" />
<glyph unicode="&#x16b;" horiz-adv-x="525" d="M165 646v26h200v-26h-200zM90 159v341l30 10v-340q0 -78 30.5 -117t79.5 -39q38 0 79.5 22.5t75.5 65.5v398l30 10v-405q0 -26 5.5 -53.5t19.5 -51.5l-28 -10q-23 37 -26 79q-35 -38 -78 -58.5t-84 -20.5q-47 0 -77 24.5t-43.5 63t-13.5 81.5z" />
<glyph unicode="&#x16c;" horiz-adv-x="638" d="M319 737q-27 0 -50.5 14.5t-38 37t-17.5 46.5l15 4q14 -31 37.5 -49.5t53.5 -18.5q31 0 53.5 20t35.5 50l17 4q-4 -44 -34.5 -76t-71.5 -32zM321 14q78 0 124 52t46 134v335l-8 115l40 10v-460q0 -61 -26 -108.5t-72.5 -74.5t-109.5 -27q-61 0 -106 27t-69.5 74.5 t-24.5 108.5v335l-8 115l40 10v-460q0 -54 22 -96t61 -66t91 -24z" />
<glyph unicode="&#x16d;" horiz-adv-x="525" d="M261 588q-38 0 -66.5 34.5t-30.5 100.5l18 4q9 -60 30 -85.5t53 -25.5q66 0 84 113l17 4q-3 -67 -31.5 -106t-73.5 -39zM90 159v341l30 10v-340q0 -78 30.5 -117t79.5 -39q38 0 79.5 22.5t75.5 65.5v398l30 10v-405q0 -26 5.5 -53.5t19.5 -51.5l-28 -10q-23 37 -26 79 q-35 -38 -78 -58.5t-84 -20.5q-47 0 -77 24.5t-43.5 63t-13.5 81.5z" />
<glyph unicode="&#x16e;" horiz-adv-x="638" d="M394 792q0 -31 -23 -53t-55 -22q-31 0 -52 19.5t-21 47.5q0 32 23.5 53.5t56.5 21.5q31 0 51 -19t20 -48zM274 787q0 -19 12 -31.5t31 -12.5q18 0 32 13.5t14 32.5t-12 31.5t-31 12.5t-32.5 -13t-13.5 -33zM321 14q78 0 124 52t46 134v335l-8 115l40 10v-460 q0 -61 -26 -108.5t-72.5 -74.5t-109.5 -27q-61 0 -106 27t-69.5 74.5t-24.5 108.5v335l-8 115l40 10v-460q0 -54 22 -96t61 -66t91 -24z" />
<glyph unicode="&#x16f;" horiz-adv-x="525" d="M340 664q0 -34 -23 -58t-55 -24q-31 0 -52 21.5t-21 52.5q0 35 23.5 58.5t56.5 23.5q31 0 51 -21t20 -53zM219 659q0 -22 12.5 -37t31.5 -15t33 15.5t14 38.5t-12 37.5t-32 14.5q-19 0 -33 -15.5t-14 -38.5zM90 159v341l30 10v-340q0 -78 30.5 -117t79.5 -39 q38 0 79.5 22.5t75.5 65.5v398l30 10v-405q0 -26 5.5 -53.5t19.5 -51.5l-28 -10q-23 37 -26 79q-35 -38 -78 -58.5t-84 -20.5q-47 0 -77 24.5t-43.5 63t-13.5 81.5z" />
<glyph unicode="&#x170;" horiz-adv-x="638" d="M312 819q-40 -32 -82 -52.5t-80 -31.5l-7 14q37 19 72 43t64 49zM494 819q-40 -32 -82 -52.5t-80 -31.5l-7 14q37 19 72 43t64 49zM321 14q78 0 124 52t46 134v335l-8 115l40 10v-460q0 -61 -26 -108.5t-72.5 -74.5t-109.5 -27q-61 0 -106 27t-69.5 74.5t-24.5 108.5v335 l-8 115l40 10v-460q0 -54 22 -96t61 -66t91 -24z" />
<glyph unicode="&#x171;" horiz-adv-x="525" d="M256 731q-19 -46 -42.5 -83t-50.5 -66l-10 6q23 33 41 70.5t30 74.5zM378 731q-19 -46 -42.5 -83t-50.5 -66l-10 6q23 33 41 70.5t30 74.5zM90 159v341l30 10v-340q0 -78 30.5 -117t79.5 -39q38 0 79.5 22.5t75.5 65.5v398l30 10v-405q0 -26 5.5 -53.5t19.5 -51.5 l-28 -10q-23 37 -26 79q-35 -38 -78 -58.5t-84 -20.5q-47 0 -77 24.5t-43.5 63t-13.5 81.5z" />
<glyph unicode="&#x172;" horiz-adv-x="638" d="M321 14q78 0 124 52t46 134v335l-8 115l40 10v-460q0 -59 -24 -105.5t-67 -73.5q-45 -30 -74.5 -64t-29.5 -66q0 -22 13.5 -33t34.5 -11q14 0 26.5 4t24.5 11l7 -16q-10 -9 -28.5 -15.5t-40.5 -6.5q-31 0 -50 15.5t-19 43.5t18 57t48 54q-22 -4 -47 -4q-61 0 -106 27 t-69.5 74.5t-24.5 108.5v335l-8 115l40 10v-460q0 -54 22 -96t61 -66t91 -24z" />
<glyph unicode="&#x173;" horiz-adv-x="525" d="M90 159v341l30 10v-340q0 -78 30.5 -117t79.5 -39q38 0 79.5 22.5t75.5 65.5v398l30 10v-405q0 -26 5.5 -53.5t19.5 -51.5q-45 -17 -76 -48.5t-31 -62.5q0 -21 13.5 -31.5t34.5 -10.5q14 0 26.5 4t24.5 11l7 -16q-10 -9 -28.5 -15.5t-40.5 -6.5q-31 0 -50 15t-19 42 q0 35 29 69t74 54q-15 31 -18 65q-35 -38 -78 -58.5t-84 -20.5q-47 0 -77 24.5t-43.5 63t-13.5 81.5z" />
<glyph unicode="&#x174;" horiz-adv-x="873" d="M332 732l-10 13q30 23 52.5 43.5t43.5 48.5l36 6q36 -50 97 -98l-10 -13q-59 30 -104 75q-47 -45 -105 -75zM217 0l-182 650l29 10l177 -635h1l179 625h32l178 -625h1l177 635l29 -10l-182 -650h-47l-171 600h-2l-172 -600h-47z" />
<glyph unicode="&#x175;" horiz-adv-x="708" d="M260 582l-9 9q26 34 47 67t39 73l32 6q17 -40 38.5 -74.5t48.5 -71.5l-9 -9q-27 24 -50 55.5t-43 66.5q-21 -35 -44 -66.5t-50 -55.5zM184 0l-154 501l30 9l140 -476h2l138 476h31l140 -476h2l140 476l25 -9q-34 -121 -72 -244.5t-82 -256.5h-29l-140 475h-1 q-29 -108 -64.5 -227.5t-76.5 -247.5h-29z" />
<glyph unicode="&#x176;" horiz-adv-x="517" d="M154 732l-10 13q30 23 52.5 43.5t43.5 48.5l36 6q36 -50 97 -98l-10 -13q-59 30 -104 75q-47 -45 -105 -75zM274 0h-32v212l-217 438l29 10l204 -410h1l204 410l29 -10l-218 -438v-212z" />
<glyph unicode="&#x177;" horiz-adv-x="445" d="M136 582l-9 9q26 34 47 67t39 73l32 6q17 -40 38.5 -74.5t48.5 -71.5l-9 -9q-27 24 -50 55.5t-43 66.5q-21 -35 -44 -66.5t-50 -55.5zM11 -195q-33 0 -65 9v28q16 -5 39.5 -9t42.5 -4q62 0 111.5 44t77.5 127h-7l-176 501l30 9l162 -476h2l162 476l25 -9 q-21 -65 -50 -149t-61 -175.5t-64 -177.5q-28 -74 -61.5 -116.5t-74.5 -60t-93 -17.5z" />
<glyph unicode="&#x178;" horiz-adv-x="517" d="M191 790q0 -16 -7 -28.5t-24 -12.5q-14 0 -21.5 10t-7.5 24q0 17 8.5 29t23.5 12q14 0 21 -10t7 -24zM386 790q0 -16 -7 -28.5t-24 -12.5q-14 0 -21.5 10t-7.5 24q0 17 8.5 29t23.5 12q14 0 21 -10t7 -24zM274 0h-32v212l-217 438l29 10l204 -410h1l204 410l29 -10 l-218 -438v-212z" />
<glyph unicode="&#x179;" horiz-adv-x="503" d="M337 816q-40 -32 -82 -52.5t-80 -31.5l-9 17q37 19 72 43t64 49zM453 0h-402l-6 18l367 604h-138t-92.5 -0.5t-67.5 -2t-61 -4.5l5 35h388l6 -18l-367 -604h138.5t93 1.5t70.5 5t71 10.5z" />
<glyph unicode="&#x17a;" horiz-adv-x="420" d="M264 731q-19 -46 -43 -83t-51 -66l-14 5q47 68 72 146zM370 0h-321l-6 16l286 461h-77q-54 0 -108 -2t-104 -7l12 32h306l6 -16l-285 -461h74q58 0 115 3.5t112 10.5z" />
<glyph unicode="&#x17b;" horiz-adv-x="503" d="M281 792q0 -17 -7 -30.5t-23 -13.5q-13 0 -20.5 11t-7.5 26q0 17 8.5 30t22.5 13q13 0 20 -10t7 -26zM453 0h-402l-6 18l367 604h-138t-92.5 -0.5t-67.5 -2t-61 -4.5l5 35h388l6 -18l-367 -604h138.5t93 1.5t70.5 5t71 10.5z" />
<glyph unicode="&#x17c;" horiz-adv-x="420" d="M239 659q0 -17 -7 -30.5t-23 -13.5q-13 0 -20.5 11t-7.5 26q0 17 8.5 30t22.5 13q13 0 20 -10t7 -26zM370 0h-321l-6 16l286 461h-77q-54 0 -108 -2t-104 -7l12 32h306l6 -16l-285 -461h74q58 0 115 3.5t112 10.5z" />
<glyph unicode="&#x17d;" horiz-adv-x="503" d="M356 842l10 -13q-30 -22 -52.5 -43t-43.5 -49l-36 -6q-36 50 -97 98l10 13q59 -30 104 -75q47 45 105 75zM453 0h-402l-6 18l367 604h-138t-92.5 -0.5t-67.5 -2t-61 -4.5l5 35h388l6 -18l-367 -604h138.5t93 1.5t70.5 5t71 10.5z" />
<glyph unicode="&#x17e;" horiz-adv-x="420" d="M303 737l9 -9q-26 -34 -47 -66.5t-39 -73.5l-32 -6q-17 40 -38.5 74.5t-48.5 71.5l9 9q27 -24 50 -55.5t43 -66.5q21 35 44 66.5t50 55.5zM370 0h-321l-6 16l286 461h-77q-54 0 -108 -2t-104 -7l12 32h306l6 -16l-285 -461h74q58 0 115 3.5t112 10.5z" />
<glyph unicode="&#x18f;" horiz-adv-x="577" d="M65 228v46.5t1 48.5l5 11h399q-4 143 -59 222t-147 79q-40 0 -79.5 -13.5t-67.5 -32.5l2 31q25 14 65 27t85 13q75 0 127 -41t79 -115.5t27 -175.5q0 -105 -28.5 -180.5t-80 -116.5t-121.5 -41q-60 0 -106.5 30t-73.5 83.5t-27 124.5zM97 229q0 -100 47 -157.5t128 -57.5 q86 0 142 72.5t56 223.5l-372 -6q-1 -20 -1 -38v-37z" />
<glyph unicode="&#x192;" horiz-adv-x="510" d="M443 307l-190 3l-27 -260q-3 -30 -10.5 -64.5t-24.5 -66t-47 -51t-77 -19.5q-25 0 -55.5 6.5t-56.5 19.5l16 28q9 -7 38 -18.5t61 -11.5q44 0 70 25.5t39.5 67t17.5 87.5l25 258l-91 1l3 15l90 5q2 19 5 52t6.5 65.5t5.5 50.5q11 81 54 120.5t110 39.5q58 0 102 -26 l-15 -36q-16 15 -40 26.5t-60 11.5q-51 0 -80 -31t-41 -108q-4 -25 -7.5 -56t-5.5 -60.5t-4 -48.5h193z" />
<glyph unicode="&#x19d;" horiz-adv-x="670" d="M23 -195l-4 24q54 24 77.5 64t23.5 98v544l-8 115l50 10l357 -632h2l-6 622l35 10v-660h-49l-352 623h-2q2 -156 3.5 -311.5t2.5 -311.5q1 -64 -27.5 -117t-102.5 -78z" />
<glyph unicode="&#x1cd;" horiz-adv-x="560" d="M384 842l10 -13q-30 -22 -52.5 -43t-43.5 -49l-36 -6q-36 50 -97 98l10 13q59 -30 104 -75q47 45 105 75zM68 0h-33l179 532l39 118l52 10l220 -660h-33l-61 182h-302zM280 628l-140 -416h281l-140 416h-1z" />
<glyph unicode="&#x1ce;" horiz-adv-x="491" d="M327 737l9 -9q-26 -34 -47 -66.5t-39 -73.5l-32 -6q-17 40 -38.5 74.5t-48.5 71.5l9 9q27 -24 50 -55.5t43 -66.5q21 35 44 66.5t50 55.5zM378 -10q-10 20 -15.5 36.5t-8.5 37.5q-16 -16 -42.5 -33.5t-60 -29t-69.5 -11.5q-57 0 -89.5 32t-32.5 79q0 44 25.5 76.5t68 54 t94.5 32t105 11.5v93q0 56 -27.5 87t-86.5 31q-40 0 -77.5 -14t-70.5 -40l-10 28q29 20 70.5 35t87.5 15q68 0 106 -35.5t38 -103.5v-29.5t-0.5 -57.5t-1 -67t-0.5 -60.5v-35.5q0 -38 5.5 -64t19.5 -57zM92 104q0 -40 26.5 -65t74.5 -25q28 0 59 11t57.5 28.5t43.5 38.5v160 q-67 -1 -127 -16.5t-97 -48t-37 -83.5z" />
<glyph unicode="&#x1cf;" horiz-adv-x="272" d="M240 842l10 -13q-30 -22 -52.5 -43t-43.5 -49l-36 -6q-36 50 -97 98l10 13q59 -30 104 -75q47 45 105 75zM152 0h-32v535l-8 115l40 10v-660z" />
<glyph unicode="&#x1d0;" horiz-adv-x="213" d="M171 737l11 -7q-16 -35 -28.5 -68t-26.5 -74l-32 -6q-13 41 -26 75.5t-30 72.5l11 7q30 -51 60 -120q16 35 31.5 65t29.5 55zM123 0h-30v385l-8 115l38 10v-510z" />
<glyph unicode="&#x1d1;" horiz-adv-x="661" d="M435 842l10 -13q-30 -22 -52.5 -43t-43.5 -49l-36 -6q-36 50 -97 98l10 13q59 -30 104 -75q47 45 105 75zM586 325q-1 -99 -33 -174.5t-89.5 -118t-135.5 -42.5t-135 42.5t-88 118t-30 174.5t33 174.5t90 118t136 42.5t134.5 -42.5t87.5 -118t30 -174.5zM109 325 q1 -91 29 -161.5t78 -110t118 -39.5t117 39.5t75.5 110t25.5 161.5q-1 92 -29 162t-77.5 109.5t-117.5 39.5t-117.5 -39.5t-76 -109.5t-25.5 -162z" />
<glyph unicode="&#x1d2;" horiz-adv-x="547" d="M367 737l9 -9q-26 -34 -47 -66.5t-39 -73.5l-32 -6q-17 40 -38.5 74.5t-48.5 71.5l9 9q27 -24 50 -55.5t43 -66.5q21 35 44 66.5t50 55.5zM482 264q0 -92 -32.5 -153t-83.5 -91t-109 -30q-85 0 -138.5 64t-53.5 180q0 92 32.5 153.5t84 92t108.5 30.5q86 0 139 -65 t53 -181zM97 240q0 -108 47 -167t121 -59q49 0 91 27t68 81t26 135q0 106 -45.5 167.5t-122.5 61.5q-49 0 -91 -27.5t-68 -82t-26 -136.5z" />
<glyph unicode="&#x1d3;" horiz-adv-x="638" d="M423 842l10 -13q-30 -22 -52.5 -43t-43.5 -49l-36 -6q-36 50 -97 98l10 13q59 -30 104 -75q47 45 105 75zM321 14q78 0 124 52t46 134v335l-8 115l40 10v-460q0 -61 -26 -108.5t-72.5 -74.5t-109.5 -27q-61 0 -106 27t-69.5 74.5t-24.5 108.5v335l-8 115l40 10v-460 q0 -54 22 -96t61 -66t91 -24z" />
<glyph unicode="&#x1d4;" horiz-adv-x="525" d="M358 737l9 -9q-26 -34 -47 -66.5t-39 -73.5l-32 -6q-17 40 -38.5 74.5t-48.5 71.5l9 9q27 -24 50 -55.5t43 -66.5q21 35 44 66.5t50 55.5zM90 159v341l30 10v-340q0 -78 30.5 -117t79.5 -39q38 0 79.5 22.5t75.5 65.5v398l30 10v-405q0 -26 5.5 -53.5t19.5 -51.5l-28 -10 q-23 37 -26 79q-35 -38 -78 -58.5t-84 -20.5q-47 0 -77 24.5t-43.5 63t-13.5 81.5z" />
<glyph unicode="&#x1d5;" horiz-adv-x="638" d="M209 944v33h220v-33h-220zM251 790q0 -16 -7 -28.5t-24 -12.5q-14 0 -21.5 10t-7.5 24q0 17 8.5 29t23.5 12q14 0 21 -10t7 -24zM446 790q0 -16 -7 -28.5t-24 -12.5q-14 0 -21.5 10t-7.5 24q0 17 8.5 29t23.5 12q14 0 21 -10t7 -24zM321 14q78 0 124 52t46 134v335 l-8 115l40 10v-460q0 -61 -26 -108.5t-72.5 -74.5t-109.5 -27q-61 0 -106 27t-69.5 74.5t-24.5 108.5v335l-8 115l40 10v-460q0 -54 22 -96t61 -66t91 -24z" />
<glyph unicode="&#x1d6;" horiz-adv-x="525" d="M165 839v26h200v-26h-200zM212 659q0 -16 -7 -28.5t-24 -12.5q-14 0 -21.5 10t-7.5 24q0 17 8.5 29t23.5 12q14 0 21 -10t7 -24zM377 659q0 -16 -7 -28.5t-24 -12.5q-14 0 -21.5 10t-7.5 24q0 17 8.5 29t23.5 12q14 0 21 -10t7 -24zM90 159v341l30 10v-340 q0 -78 30.5 -117t79.5 -39q38 0 79.5 22.5t75.5 65.5v398l30 10v-405q0 -26 5.5 -53.5t19.5 -51.5l-28 -10q-23 37 -26 79q-35 -38 -78 -58.5t-84 -20.5q-47 0 -77 24.5t-43.5 63t-13.5 81.5z" />
<glyph unicode="&#x1d7;" horiz-adv-x="638" d="M404 990q-40 -32 -82 -52.5t-80 -31.5l-9 17q37 19 72 43t64 49zM251 790q0 -16 -7 -28.5t-24 -12.5q-14 0 -21.5 10t-7.5 24q0 17 8.5 29t23.5 12q14 0 21 -10t7 -24zM446 790q0 -16 -7 -28.5t-24 -12.5q-14 0 -21.5 10t-7.5 24q0 17 8.5 29t23.5 12q14 0 21 -10t7 -24z M321 14q78 0 124 52t46 134v335l-8 115l40 10v-460q0 -61 -26 -108.5t-72.5 -74.5t-109.5 -27q-61 0 -106 27t-69.5 74.5t-24.5 108.5v335l-8 115l40 10v-460q0 -54 22 -96t61 -66t91 -24z" />
<glyph unicode="&#x1d8;" horiz-adv-x="525" d="M319 924q-19 -46 -43 -83t-51 -66l-14 5q47 68 72 146zM212 659q0 -16 -7 -28.5t-24 -12.5q-14 0 -21.5 10t-7.5 24q0 17 8.5 29t23.5 12q14 0 21 -10t7 -24zM377 659q0 -16 -7 -28.5t-24 -12.5q-14 0 -21.5 10t-7.5 24q0 17 8.5 29t23.5 12q14 0 21 -10t7 -24zM90 159 v341l30 10v-340q0 -78 30.5 -117t79.5 -39q38 0 79.5 22.5t75.5 65.5v398l30 10v-405q0 -26 5.5 -53.5t19.5 -51.5l-28 -10q-23 37 -26 79q-35 -38 -78 -58.5t-84 -20.5q-47 0 -77 24.5t-43.5 63t-13.5 81.5z" />
<glyph unicode="&#x1d9;" horiz-adv-x="638" d="M423 1016l10 -13q-30 -22 -52.5 -43t-43.5 -49l-36 -6q-36 50 -97 98l10 13q59 -30 104 -75q47 45 105 75zM251 790q0 -16 -7 -28.5t-24 -12.5q-14 0 -21.5 10t-7.5 24q0 17 8.5 29t23.5 12q14 0 21 -10t7 -24zM446 790q0 -16 -7 -28.5t-24 -12.5q-14 0 -21.5 10t-7.5 24 q0 17 8.5 29t23.5 12q14 0 21 -10t7 -24zM321 14q78 0 124 52t46 134v335l-8 115l40 10v-460q0 -61 -26 -108.5t-72.5 -74.5t-109.5 -27q-61 0 -106 27t-69.5 74.5t-24.5 108.5v335l-8 115l40 10v-460q0 -54 22 -96t61 -66t91 -24z" />
<glyph unicode="&#x1da;" horiz-adv-x="525" d="M358 930l9 -9q-26 -34 -47 -66.5t-39 -73.5l-32 -6q-17 40 -38.5 74.5t-48.5 71.5l9 9q27 -24 50 -55.5t43 -66.5q21 35 44 66.5t50 55.5zM212 659q0 -16 -7 -28.5t-24 -12.5q-14 0 -21.5 10t-7.5 24q0 17 8.5 29t23.5 12q14 0 21 -10t7 -24zM377 659q0 -16 -7 -28.5 t-24 -12.5q-14 0 -21.5 10t-7.5 24q0 17 8.5 29t23.5 12q14 0 21 -10t7 -24zM90 159v341l30 10v-340q0 -78 30.5 -117t79.5 -39q38 0 79.5 22.5t75.5 65.5v398l30 10v-405q0 -26 5.5 -53.5t19.5 -51.5l-28 -10q-23 37 -26 79q-35 -38 -78 -58.5t-84 -20.5q-47 0 -77 24.5 t-43.5 63t-13.5 81.5z" />
<glyph unicode="&#x1db;" horiz-adv-x="638" d="M404 922l-9 -17q-38 11 -80 31.5t-82 52.5l35 25q29 -25 64 -49t72 -43zM251 790q0 -16 -7 -28.5t-24 -12.5q-14 0 -21.5 10t-7.5 24q0 17 8.5 29t23.5 12q14 0 21 -10t7 -24zM446 790q0 -16 -7 -28.5t-24 -12.5q-14 0 -21.5 10t-7.5 24q0 17 8.5 29t23.5 12q14 0 21 -10 t7 -24zM321 14q78 0 124 52t46 134v335l-8 115l40 10v-460q0 -61 -26 -108.5t-72.5 -74.5t-109.5 -27q-61 0 -106 27t-69.5 74.5t-24.5 108.5v335l-8 115l40 10v-460q0 -54 22 -96t61 -66t91 -24z" />
<glyph unicode="&#x1dc;" horiz-adv-x="525" d="M319 780l-14 -5q-27 29 -51 66t-43 83l36 2q25 -78 72 -146zM212 659q0 -16 -7 -28.5t-24 -12.5q-14 0 -21.5 10t-7.5 24q0 17 8.5 29t23.5 12q14 0 21 -10t7 -24zM377 659q0 -16 -7 -28.5t-24 -12.5q-14 0 -21.5 10t-7.5 24q0 17 8.5 29t23.5 12q14 0 21 -10t7 -24z M90 159v341l30 10v-340q0 -78 30.5 -117t79.5 -39q38 0 79.5 22.5t75.5 65.5v398l30 10v-405q0 -26 5.5 -53.5t19.5 -51.5l-28 -10q-23 37 -26 79q-35 -38 -78 -58.5t-84 -20.5q-47 0 -77 24.5t-43.5 63t-13.5 81.5z" />
<glyph unicode="&#x1e6;" horiz-adv-x="612" d="M433 842l10 -13q-30 -22 -52.5 -43t-43.5 -49l-36 -6q-36 50 -97 98l10 13q59 -30 104 -75q47 45 105 75zM512 29q-31 -19 -73 -29t-85 -10q-88 0 -151 42.5t-96 118t-32 174.5t35 174.5t97.5 118t151.5 42.5q39 0 78 -8.5t70 -25.5l-11 -34q-61 44 -148 44 q-75 0 -129 -39.5t-82.5 -109.5t-27.5 -162q1 -91 31 -161t86 -109.5t134 -39.5q67 0 120 26v102l-8 115l40 10v-239z" />
<glyph unicode="&#x1e7;" horiz-adv-x="471" d="M324 737l9 -9q-26 -34 -47 -66.5t-39 -73.5l-32 -6q-17 40 -38.5 74.5t-48.5 71.5l9 9q27 -24 50 -55.5t43 -66.5q21 35 44 66.5t50 55.5zM119 114q0 17 10.5 32t28.5 24q-39 19 -62.5 58.5t-23.5 95.5q0 53 21 95t59 66.5t89 24.5h70.5t63 1.5t76.5 3.5v-31l-143 4v-1 q38 -17 60 -60.5t22 -93.5q0 -53 -21.5 -93.5t-58.5 -62.5t-83 -22q-26 0 -50 8q-13 -9 -20.5 -20.5t-7.5 -24.5q0 -22 17.5 -32.5t38.5 -14t31 -4.5l56 -5q74 -7 116 -34t42 -77q0 -41 -29 -74.5t-81 -52.5t-122 -19q-88 0 -138 31t-50 84q0 36 20.5 63.5t51 45.5t60.5 28 q-18 7 -30.5 21.5t-12.5 35.5zM104 330q0 -62 33 -106.5t97 -44.5q61 0 92.5 42.5t31.5 111.5q0 42 -12.5 77t-39.5 55.5t-69 20.5t-72 -21.5t-45.5 -56.5t-15.5 -78zM62 -75q0 -44 42 -70t116 -26q58 0 102.5 15.5t70 42.5t25.5 61q0 39 -35 62.5t-99 28.5l-79 7 q-39 -7 -71.5 -24t-52 -42t-19.5 -55z" />
<glyph unicode="&#x1ea;" horiz-adv-x="661" d="M586 325q-1 -111 -41.5 -193t-111.5 -117q-47 -27 -78 -60.5t-31 -63.5q0 -22 13.5 -33t34.5 -11q14 0 26.5 4t24.5 11l7 -16q-10 -9 -28.5 -15.5t-40.5 -6.5q-31 0 -50 15.5t-19 43.5q0 27 20 56t53 54q-18 -3 -37 -3q-78 0 -135 42.5t-88 118t-30 174.5t33 174.5 t90 118t136 42.5t134.5 -42.5t87.5 -118t30 -174.5zM109 325q1 -91 29 -161.5t78 -110t118 -39.5t117 39.5t75.5 110t25.5 161.5q-1 92 -29 162t-77.5 109.5t-117.5 39.5t-117.5 -39.5t-76 -109.5t-25.5 -162z" />
<glyph unicode="&#x1eb;" horiz-adv-x="547" d="M482 264q0 -84 -27.5 -142t-71.5 -90q-41 -37 -72.5 -73.5t-31.5 -69.5q0 -21 13.5 -31.5t34.5 -10.5q14 0 26.5 4t24.5 11l7 -16q-10 -9 -28.5 -15.5t-40.5 -6.5q-31 0 -50 15t-19 42q0 29 20 59.5t51 58.5q-29 -9 -61 -9q-85 0 -138.5 64t-53.5 180q0 92 32.5 153.5 t84 92t108.5 30.5q86 0 139 -65t53 -181zM97 240q0 -108 47 -167t121 -59q49 0 91 27t68 81t26 135q0 106 -45.5 167.5t-122.5 61.5q-49 0 -91 -27.5t-68 -82t-26 -136.5z" />
<glyph unicode="&#x1f4;" horiz-adv-x="612" d="M414 816q-40 -32 -82 -52.5t-80 -31.5l-9 17q37 19 72 43t64 49zM512 29q-31 -19 -73 -29t-85 -10q-88 0 -151 42.5t-96 118t-32 174.5t35 174.5t97.5 118t151.5 42.5q39 0 78 -8.5t70 -25.5l-11 -34q-61 44 -148 44q-75 0 -129 -39.5t-82.5 -109.5t-27.5 -162 q1 -91 31 -161t86 -109.5t134 -39.5q67 0 120 26v102l-8 115l40 10v-239z" />
<glyph unicode="&#x1f5;" horiz-adv-x="471" d="M285 731q-19 -46 -43 -83t-51 -66l-14 5q47 68 72 146zM119 114q0 17 10.5 32t28.5 24q-39 19 -62.5 58.5t-23.5 95.5q0 53 21 95t59 66.5t89 24.5h70.5t63 1.5t76.5 3.5v-31l-143 4v-1q38 -17 60 -60.5t22 -93.5q0 -53 -21.5 -93.5t-58.5 -62.5t-83 -22q-26 0 -50 8 q-13 -9 -20.5 -20.5t-7.5 -24.5q0 -22 17.5 -32.5t38.5 -14t31 -4.5l56 -5q74 -7 116 -34t42 -77q0 -41 -29 -74.5t-81 -52.5t-122 -19q-88 0 -138 31t-50 84q0 36 20.5 63.5t51 45.5t60.5 28q-18 7 -30.5 21.5t-12.5 35.5zM104 330q0 -62 33 -106.5t97 -44.5 q61 0 92.5 42.5t31.5 111.5q0 42 -12.5 77t-39.5 55.5t-69 20.5t-72 -21.5t-45.5 -56.5t-15.5 -78zM62 -75q0 -44 42 -70t116 -26q58 0 102.5 15.5t70 42.5t25.5 61q0 39 -35 62.5t-99 28.5l-79 7q-39 -7 -71.5 -24t-52 -42t-19.5 -55z" />
<glyph unicode="&#x1fa;" horiz-adv-x="560" d="M365 1025q-40 -32 -82 -52.5t-80 -31.5l-9 17q37 19 72 43t64 49zM355 792q0 -31 -23 -53t-55 -22q-31 0 -52 19.5t-21 47.5q0 32 23.5 53.5t56.5 21.5q31 0 51 -19t20 -48zM235 787q0 -19 12 -31.5t31 -12.5q18 0 32 13.5t14 32.5t-12 31.5t-31 12.5t-32.5 -13 t-13.5 -33zM68 0h-33l179 532l39 118l52 10l220 -660h-33l-61 182h-302zM280 628l-140 -416h281l-140 416h-1z" />
<glyph unicode="&#x1fb;" horiz-adv-x="491" d="M288 969q-19 -46 -43 -83t-51 -66l-14 5q47 68 72 146zM309 664q0 -34 -23 -58t-55 -24q-31 0 -52 21.5t-21 52.5q0 35 23.5 58.5t56.5 23.5q31 0 51 -21t20 -53zM188 659q0 -22 12.5 -37t31.5 -15t33 15.5t14 38.5t-12 37.5t-32 14.5q-19 0 -33 -15.5t-14 -38.5z M378 -10q-10 20 -15.5 36.5t-8.5 37.5q-16 -16 -42.5 -33.5t-60 -29t-69.5 -11.5q-57 0 -89.5 32t-32.5 79q0 44 25.5 76.5t68 54t94.5 32t105 11.5v93q0 56 -27.5 87t-86.5 31q-40 0 -77.5 -14t-70.5 -40l-10 28q29 20 70.5 35t87.5 15q68 0 106 -35.5t38 -103.5v-29.5 t-0.5 -57.5t-1 -67t-0.5 -60.5v-35.5q0 -38 5.5 -64t19.5 -57zM92 104q0 -40 26.5 -65t74.5 -25q28 0 59 11t57.5 28.5t43.5 38.5v160q-67 -1 -127 -16.5t-97 -48t-37 -83.5z" />
<glyph unicode="&#x1fc;" horiz-adv-x="839" d="M526 816q-40 -32 -82 -52.5t-80 -31.5l-9 17q37 19 72 43t64 49zM68 0h-33l279 532l57 118h323l-5 -31l-262 5l33 -289l230 3l-5 -31l-222 2l32 -283l289 5l-5 -31h-314l-19 182h-282zM398 628l-219 -416h264l-44 416h-1z" />
<glyph unicode="&#x1fd;" horiz-adv-x="772" d="M441 731q-19 -46 -43 -83t-51 -66l-14 5q47 68 72 146zM687 21q-22 -11 -55.5 -21t-74.5 -10q-61 0 -106 26.5t-70 75.5q-17 -21 -47 -45t-69.5 -40.5t-82.5 -16.5q-57 0 -89.5 32t-32.5 79q0 44 25.5 76.5t67.5 53.5t94 32t106 12v5v88q0 56 -27.5 87t-86.5 31 q-40 0 -77.5 -14t-70.5 -40l-10 28q29 20 70.5 35t87.5 15q63 0 99.5 -31.5t40.5 -92.5q26 58 70 91t101 33q73 0 117.5 -50.5t44.5 -132.5v-28t-1 -29l-5 -15h-324v-6q0 -115 48.5 -174.5t130.5 -59.5q37 0 70.5 11t57.5 26zM550 486q-67 0 -113.5 -53t-53.5 -154l296 6 q1 11 1 20.5v20.5q0 74 -34 117t-96 43zM92 105q0 -40 26 -65.5t72 -25.5q33 0 67 13t64.5 35.5t50.5 50.5q-21 53 -21 124v15q-67 -1 -126.5 -17t-96 -48t-36.5 -82z" />
<glyph unicode="&#x1fe;" horiz-adv-x="661" d="M416 816q-40 -32 -82 -52.5t-80 -31.5l-9 17q37 19 72 43t64 49zM586 325q-1 -99 -33 -174.5t-89.5 -118t-135.5 -42.5q-58 0 -104.5 24t-79.5 67l-88 -101l-21 19l93 107q-26 42 -40 98t-13 121q1 99 33 174.5t90 118t136 42.5q60 0 108 -26t81 -73l89 102l22 -18 l-95 -110q23 -42 35.5 -95t11.5 -115zM109 325q1 -112 43 -192l348 401q-29 48 -73 75t-99 27q-68 0 -117.5 -39.5t-76 -109.5t-25.5 -162zM552 325q-1 105 -38 182l-347 -400q29 -44 71.5 -68.5t95.5 -24.5q68 0 117 39.5t75.5 110t25.5 161.5z" />
<glyph unicode="&#x1ff;" horiz-adv-x="547" d="M328 731q-19 -46 -43 -83t-51 -66l-14 5q47 68 72 146zM482 264q0 -92 -32.5 -153t-83.5 -91t-109 -30q-92 0 -144 71l-50 -54l-18 16l55 58q-17 30 -26 68.5t-9 84.5q0 92 32.5 153.5t84 92t108.5 30.5q91 0 143 -71l51 54l19 -16l-56 -60q17 -29 26 -68t9 -85zM97 240 q0 -78 26 -133l288 308q-46 71 -129 71q-49 0 -91 -27.5t-68 -82t-26 -136.5zM450 257q0 79 -27 135l-287 -307q45 -71 129 -71q49 0 91 27t68 81t26 135z" />
<glyph unicode="&#x218;" horiz-adv-x="479" d="M414 144q0 -43 -23 -78t-65 -55.5t-101 -20.5q-43 0 -85.5 10.5t-74.5 25.5l6 35q21 -14 64.5 -30.5t95.5 -16.5q50 0 83 18t49.5 46.5t16.5 61.5q0 41 -21.5 71t-55.5 54.5t-71.5 47.5t-71.5 49.5t-55.5 60t-21.5 79.5q0 68 50.5 113t138.5 45q35 0 70 -7.5t63 -21.5 l-6 -35q-15 11 -51 25.5t-83 14.5q-72 0 -110 -38t-38 -89q0 -41 21.5 -72t55.5 -56.5t71.5 -49.5t71.5 -50.5t55.5 -59.5t21.5 -77zM285 -130q0 -21 -12 -53.5t-35 -60.5l-12 8q13 21 19 41t9 39h-1q-29 6 -29 33q0 15 8.5 25t22.5 10t22 -11.5t8 -30.5z" />
<glyph unicode="&#x219;" horiz-adv-x="409" d="M359 116q0 -55 -44.5 -90.5t-121.5 -35.5q-40 0 -77 10.5t-66 25.5l6 35q21 -16 58.5 -31.5t85.5 -15.5q63 0 95 29.5t32 69.5q0 33 -18.5 55.5t-48 39.5t-61.5 33t-62 34t-48.5 43.5t-18.5 62.5q0 56 44 92.5t120 36.5q34 0 64 -7.5t54 -21.5l-6 -35q-17 14 -47.5 27 t-72.5 13q-58 0 -91 -29.5t-33 -70.5q0 -30 15.5 -51.5t41 -38t54.5 -31.5q35 -18 68.5 -37.5t55.5 -45.5t22 -66zM242 -130q0 -21 -12 -53.5t-35 -60.5l-12 8q13 21 19 41t9 39h-1q-29 6 -29 33q0 15 8.5 25t22.5 10t22 -11.5t8 -30.5z" />
<glyph unicode="&#x21a;" horiz-adv-x="470" d="M252 0h-32v624l-195 -5l5 31h410l5 -31l-193 5v-624zM265 -130q0 -21 -12 -53.5t-35 -60.5l-12 8q13 21 19 41t9 39h-1q-29 6 -29 33q0 15 8.5 25t22.5 10t22 -11.5t8 -30.5z" />
<glyph unicode="&#x21b;" horiz-adv-x="369" d="M328 451l-193 3v-320q0 -25 4 -53t23 -47.5t64 -19.5q35 0 63 11.5t44 22.5l6 -27q-19 -12 -51 -21.5t-67 -9.5q-54 0 -85 30t-31 100v335l-55 1v15l56 5l9 155l20 3v-158h195zM240 -130q0 -21 -12 -53.5t-35 -60.5l-12 8q13 21 19 41t9 39h-1q-29 6 -29 33q0 15 8.5 25 t22.5 10t22 -11.5t8 -30.5z" />
<glyph unicode="&#x232;" horiz-adv-x="517" d="M149 770v33h220v-33h-220zM274 0h-32v212l-217 438l29 10l204 -410h1l204 410l29 -10l-218 -438v-212z" />
<glyph unicode="&#x233;" horiz-adv-x="445" d="M130 646v26h200v-26h-200zM11 -195q-33 0 -65 9v28q16 -5 39.5 -9t42.5 -4q62 0 111.5 44t77.5 127h-7l-176 501l30 9l162 -476h2l162 476l25 -9q-21 -65 -50 -149t-61 -175.5t-64 -177.5q-28 -74 -61.5 -116.5t-74.5 -60t-93 -17.5z" />
<glyph unicode="&#x237;" horiz-adv-x="213" d="M11 -177q39 30 60.5 66t21.5 98v398l-8 115l38 10v-526q0 -61 -26 -104t-75 -76z" />
<glyph unicode="&#x259;" horiz-adv-x="487" d="M60 173v28.5t1 28.5l5 15h324v6q0 115 -48.5 174.5t-130.5 59.5q-37 0 -70.5 -11t-57.5 -26l2 31q22 11 56 21t74 10q98 0 152.5 -65.5t54.5 -181.5q0 -80 -25 -141.5t-70 -96.5t-105 -35q-73 0 -117.5 50.5t-44.5 132.5zM92 174q0 -74 34 -117t96 -43q67 0 113.5 53 t53.5 154l-296 -6q-1 -11 -1 -20.5v-20.5z" />
<glyph unicode="&#x272;" horiz-adv-x="524" d="M11 -177q39 30 60.5 66t21.5 98v398l-8 115l38 10v-79q74 79 169 79q53 0 84 -24.5t44.5 -63t13.5 -81.5v-341h-30v330q0 78 -31 117t-87 39q-90 0 -163 -88v-414q0 -61 -26 -104t-75 -76z" />
<glyph unicode="&#x2c6;" horiz-adv-x="329" d="M71 582l-9 9q26 34 47 67t39 73l32 6q17 -40 38.5 -74.5t48.5 -71.5l-9 -9q-27 24 -50 55.5t-43 66.5q-21 -35 -44 -66.5t-50 -55.5z" />
<glyph unicode="&#x2c7;" horiz-adv-x="329" d="M258 737l9 -9q-26 -34 -47 -66.5t-39 -73.5l-32 -6q-17 40 -38.5 74.5t-48.5 71.5l9 9q27 -24 50 -55.5t43 -66.5q21 35 44 66.5t50 55.5z" />
<glyph unicode="&#x2d8;" horiz-adv-x="346" d="M169 588q-38 0 -66.5 34.5t-30.5 100.5l18 4q9 -60 30 -85.5t53 -25.5q66 0 84 113l17 4q-3 -67 -31.5 -106t-73.5 -39z" />
<glyph unicode="&#x2d9;" horiz-adv-x="198" d="M128 659q0 -17 -7 -30.5t-23 -13.5q-13 0 -20.5 11t-7.5 26q0 17 8.5 30t22.5 13q13 0 20 -10t7 -26z" />
<glyph unicode="&#x2da;" horiz-adv-x="291" d="M221 664q0 -34 -23 -58t-55 -24q-31 0 -52 21.5t-21 52.5q0 35 23.5 58.5t56.5 23.5q31 0 51 -21t20 -53zM100 659q0 -22 12.5 -37t31.5 -15t33 15.5t14 38.5t-12 37.5t-32 14.5q-19 0 -33 -15.5t-14 -38.5z" />
<glyph unicode="&#x2db;" horiz-adv-x="333" d="M282 0q-45 -17 -76 -48.5t-31 -62.5q0 -21 13.5 -31.5t34.5 -10.5q14 0 26.5 4t24.5 11l7 -16q-10 -9 -28.5 -15.5t-40.5 -6.5q-31 0 -50 15t-19 42q0 39 36.5 76.5t89.5 55.5z" />
<glyph unicode="&#x2dc;" horiz-adv-x="389" d="M141 703q24 0 42 -12t34.5 -24t34.5 -12q20 0 34 16t21 35l14 -4q-3 -26 -22.5 -51.5t-51.5 -25.5q-23 0 -41 12t-34 24t-35 12t-33 -15.5t-22 -35.5l-14 4q3 17 12 34.5t24.5 30t36.5 12.5z" />
<glyph unicode="&#x2dd;" d="M178 731q-19 -46 -42.5 -83t-50.5 -66l-10 6q23 33 41 70.5t30 74.5zM300 731q-19 -46 -42.5 -83t-50.5 -66l-10 6q23 33 41 70.5t30 74.5z" />
<glyph unicode="&#x1e0c;" horiz-adv-x="636" d="M120 535l-8 115h146q98 0 166 -41.5t103 -114.5t34 -169t-37.5 -169t-105 -114.5t-166.5 -41.5h-132v535zM252 624h-100v-598h106q88 0 148 38t91 105.5t30 155.5t-33 155.5t-93 105.5t-149 38zM345 -124q0 -17 -7 -30.5t-23 -13.5q-13 0 -20.5 11t-7.5 26q0 17 8.5 30 t22.5 13q13 0 20 -10t7 -26z" />
<glyph unicode="&#x1e0d;" horiz-adv-x="542" d="M429 -10q-15 28 -22 62q-31 -31 -70 -46.5t-80 -15.5q-85 0 -138.5 64t-53.5 180q0 92 32.5 153.5t84 92t108.5 30.5q65 0 112 -36v96l-8 115l38 10v-549q0 -42 5.5 -75t19.5 -71zM97 240q0 -108 47 -167t121 -59q40 0 75.5 17.5t61.5 52.5v6v347q-46 49 -119 49 q-55 0 -97 -30t-65.5 -85t-23.5 -131zM290 -124q0 -17 -7 -30.5t-23 -13.5q-13 0 -20.5 11t-7.5 26q0 17 8.5 30t22.5 13q13 0 20 -10t7 -26z" />
<glyph unicode="&#x1e24;" horiz-adv-x="668" d="M152 0h-32v535l-8 115l40 10v-333h364v208l-8 115l40 10v-660h-32v297h-364v-297zM363 -124q0 -17 -7 -30.5t-23 -13.5q-13 0 -20.5 11t-7.5 26q0 17 8.5 30t22.5 13q13 0 20 -10t7 -26z" />
<glyph unicode="&#x1e25;" horiz-adv-x="524" d="M123 0h-30v570l-8 115l38 10v-264q74 79 169 79q53 0 84 -24.5t44.5 -63t13.5 -81.5v-341h-30v330q0 78 -31 117t-87 39q-90 0 -163 -88v-398zM294 -124q0 -17 -7 -30.5t-23 -13.5q-13 0 -20.5 11t-7.5 26q0 17 8.5 30t22.5 13q13 0 20 -10t7 -26z" />
<glyph unicode="&#x1e44;" horiz-adv-x="670" d="M364 792q0 -17 -7 -30.5t-23 -13.5q-13 0 -20.5 11t-7.5 26q0 17 8.5 30t22.5 13q13 0 20 -10t7 -26zM120 535l-8 115l50 10l357 -632h2l-6 622l35 10v-660h-49l-352 623h-2l6 -623h-33v535z" />
<glyph unicode="&#x1e45;" horiz-adv-x="524" d="M294 659q0 -17 -7 -30.5t-23 -13.5q-13 0 -20.5 11t-7.5 26q0 17 8.5 30t22.5 13q13 0 20 -10t7 -26zM123 0h-30v385l-8 115l38 10v-79q74 79 169 79q53 0 84 -24.5t44.5 -63t13.5 -81.5v-341h-30v330q0 78 -31 117t-87 39q-90 0 -163 -88v-398z" />
<glyph unicode="&#x1e5a;" horiz-adv-x="539" d="M152 0h-32v535l-8 115h127q107 0 164.5 -52.5t57.5 -134.5q0 -69 -39 -117t-108 -66l175 -280l-34 -10l-176 283q-22 -3 -46 -3h-81v-270zM233 624h-81v-328h87q91 0 139.5 46t48.5 121q0 73 -49 117t-145 44zM304 -124q0 -17 -7 -30.5t-23 -13.5q-13 0 -20.5 11t-7.5 26 q0 17 8.5 30t22.5 13q13 0 20 -10t7 -26z" />
<glyph unicode="&#x1e5b;" horiz-adv-x="327" d="M123 0h-30v385l-8 115l38 10v-119q25 60 65 89.5t86 29.5q9 0 20 -1t18 -3l-6 -32q-6 2 -15.5 4t-22.5 2q-43 0 -80 -29t-65 -95v-356zM136 -124q0 -17 -7 -30.5t-23 -13.5q-13 0 -20.5 11t-7.5 26q0 17 8.5 30t22.5 13q13 0 20 -10t7 -26z" />
<glyph unicode="&#x1e62;" horiz-adv-x="479" d="M414 144q0 -43 -23 -78t-65 -55.5t-101 -20.5q-43 0 -85.5 10.5t-74.5 25.5l6 35q21 -14 64.5 -30.5t95.5 -16.5q50 0 83 18t49.5 46.5t16.5 61.5q0 41 -21.5 71t-55.5 54.5t-71.5 47.5t-71.5 49.5t-55.5 60t-21.5 79.5q0 68 50.5 113t138.5 45q35 0 70 -7.5t63 -21.5 l-6 -35q-15 11 -51 25.5t-83 14.5q-72 0 -110 -38t-38 -89q0 -41 21.5 -72t55.5 -56.5t71.5 -49.5t71.5 -50.5t55.5 -59.5t21.5 -77zM284 -124q0 -17 -7 -30.5t-23 -13.5q-13 0 -20.5 11t-7.5 26q0 17 8.5 30t22.5 13q13 0 20 -10t7 -26z" />
<glyph unicode="&#x1e63;" horiz-adv-x="409" d="M359 116q0 -55 -44.5 -90.5t-121.5 -35.5q-40 0 -77 10.5t-66 25.5l6 35q21 -16 58.5 -31.5t85.5 -15.5q63 0 95 29.5t32 69.5q0 33 -18.5 55.5t-48 39.5t-61.5 33t-62 34t-48.5 43.5t-18.5 62.5q0 56 44 92.5t120 36.5q34 0 64 -7.5t54 -21.5l-6 -35q-17 14 -47.5 27 t-72.5 13q-58 0 -91 -29.5t-33 -70.5q0 -30 15.5 -51.5t41 -38t54.5 -31.5q35 -18 68.5 -37.5t55.5 -45.5t22 -66zM241 -124q0 -17 -7 -30.5t-23 -13.5q-13 0 -20.5 11t-7.5 26q0 17 8.5 30t22.5 13q13 0 20 -10t7 -26z" />
<glyph unicode="&#x1e6c;" horiz-adv-x="470" d="M252 0h-32v624l-195 -5l5 31h410l5 -31l-193 5v-624zM264 -124q0 -17 -7 -30.5t-23 -13.5q-13 0 -20.5 11t-7.5 26q0 17 8.5 30t22.5 13q13 0 20 -10t7 -26z" />
<glyph unicode="&#x1e6d;" horiz-adv-x="369" d="M328 451l-193 3v-320q0 -25 4 -53t23 -47.5t64 -19.5q35 0 63 11.5t44 22.5l6 -27q-19 -12 -51 -21.5t-67 -9.5q-54 0 -85 30t-31 100v335l-55 1v15l56 5l9 155l20 3v-158h195zM239 -124q0 -17 -7 -30.5t-23 -13.5q-13 0 -20.5 11t-7.5 26q0 17 8.5 30t22.5 13 q13 0 20 -10t7 -26z" />
<glyph unicode="&#x1e80;" horiz-adv-x="873" d="M522 748l-9 -17q-38 11 -80 31.5t-82 52.5l35 25q29 -25 64 -49t72 -43zM217 0l-182 650l29 10l177 -635h1l179 625h32l178 -625h1l177 635l29 -10l-182 -650h-47l-171 600h-2l-172 -600h-47z" />
<glyph unicode="&#x1e81;" horiz-adv-x="708" d="M408 587l-14 -5q-27 29 -51 66t-43 83l36 2q25 -78 72 -146zM184 0l-154 501l30 9l140 -476h2l138 476h31l140 -476h2l140 476l25 -9q-34 -121 -72 -244.5t-82 -256.5h-29l-140 475h-1q-29 -108 -64.5 -227.5t-76.5 -247.5h-29z" />
<glyph unicode="&#x1e82;" horiz-adv-x="873" d="M522 816q-40 -32 -82 -52.5t-80 -31.5l-9 17q37 19 72 43t64 49zM217 0l-182 650l29 10l177 -635h1l179 625h32l178 -625h1l177 635l29 -10l-182 -650h-47l-171 600h-2l-172 -600h-47z" />
<glyph unicode="&#x1e83;" horiz-adv-x="708" d="M408 731q-19 -46 -43 -83t-51 -66l-14 5q47 68 72 146zM184 0l-154 501l30 9l140 -476h2l138 476h31l140 -476h2l140 476l25 -9q-34 -121 -72 -244.5t-82 -256.5h-29l-140 475h-1q-29 -108 -64.5 -227.5t-76.5 -247.5h-29z" />
<glyph unicode="&#x1e84;" horiz-adv-x="873" d="M369 790q0 -16 -7 -28.5t-24 -12.5q-14 0 -21.5 10t-7.5 24q0 17 8.5 29t23.5 12q14 0 21 -10t7 -24zM564 790q0 -16 -7 -28.5t-24 -12.5q-14 0 -21.5 10t-7.5 24q0 17 8.5 29t23.5 12q14 0 21 -10t7 -24zM217 0l-182 650l29 10l177 -635h1l179 625h32l178 -625h1 l177 635l29 -10l-182 -650h-47l-171 600h-2l-172 -600h-47z" />
<glyph unicode="&#x1e85;" horiz-adv-x="708" d="M301 659q0 -16 -7 -28.5t-24 -12.5q-14 0 -21.5 10t-7.5 24q0 17 8.5 29t23.5 12q14 0 21 -10t7 -24zM466 659q0 -16 -7 -28.5t-24 -12.5q-14 0 -21.5 10t-7.5 24q0 17 8.5 29t23.5 12q14 0 21 -10t7 -24zM184 0l-154 501l30 9l140 -476h2l138 476h31l140 -476h2l140 476 l25 -9q-34 -121 -72 -244.5t-82 -256.5h-29l-140 475h-1q-29 -108 -64.5 -227.5t-76.5 -247.5h-29z" />
<glyph unicode="&#x1e92;" horiz-adv-x="503" d="M453 0h-402l-6 18l367 604h-138t-92.5 -0.5t-67.5 -2t-61 -4.5l5 35h388l6 -18l-367 -604h138.5t93 1.5t70.5 5t71 10.5zM281 -124q0 -17 -7 -30.5t-23 -13.5q-13 0 -20.5 11t-7.5 26q0 17 8.5 30t22.5 13q13 0 20 -10t7 -26z" />
<glyph unicode="&#x1e93;" horiz-adv-x="420" d="M370 0h-321l-6 16l286 461h-77q-54 0 -108 -2t-104 -7l12 32h306l6 -16l-285 -461h74q58 0 115 3.5t112 10.5zM239 -124q0 -17 -7 -30.5t-23 -13.5q-13 0 -20.5 11t-7.5 26q0 17 8.5 30t22.5 13q13 0 20 -10t7 -26z" />
<glyph unicode="&#x1e9e;" d="M482 570v-12l-152 -176q49 -22 96 -53t78 -73t31 -99q0 -45 -22.5 -83t-64 -61t-99.5 -23q-25 0 -59.5 6t-68.5 19v29q32 -17 67.5 -23.5t58.5 -6.5q69 0 111.5 41t42.5 105q0 49 -26.5 86.5t-72 67.5t-102.5 55v17l152 176q-23 32 -57.5 53t-77.5 21q-45 0 -82.5 -24.5 t-60.5 -67t-23 -97.5v-369q0 -22 -4 -46.5t-10 -41.5l-30 10q5 17 8.5 37.5t3.5 39.5v367q0 72 29 120t75 72t96 24q57 0 96 -26.5t67 -63.5z" />
<glyph unicode="&#x1ea0;" horiz-adv-x="560" d="M68 0h-33l179 532l39 118l52 10l220 -660h-33l-61 182h-302zM280 628l-140 -416h281l-140 416h-1zM309 -124q0 -17 -7 -30.5t-23 -13.5q-13 0 -20.5 11t-7.5 26q0 17 8.5 30t22.5 13q13 0 20 -10t7 -26z" />
<glyph unicode="&#x1ea1;" horiz-adv-x="491" d="M378 -10q-10 20 -15.5 36.5t-8.5 37.5q-16 -16 -42.5 -33.5t-60 -29t-69.5 -11.5q-57 0 -89.5 32t-32.5 79q0 44 25.5 76.5t68 54t94.5 32t105 11.5v93q0 56 -27.5 87t-86.5 31q-40 0 -77.5 -14t-70.5 -40l-10 28q29 20 70.5 35t87.5 15q68 0 106 -35.5t38 -103.5v-29.5 t-0.5 -57.5t-1 -67t-0.5 -60.5v-35.5q0 -38 5.5 -64t19.5 -57zM92 104q0 -40 26.5 -65t74.5 -25q28 0 59 11t57.5 28.5t43.5 38.5v160q-67 -1 -127 -16.5t-97 -48t-37 -83.5zM263 -124q0 -17 -7 -30.5t-23 -13.5q-13 0 -20.5 11t-7.5 26q0 17 8.5 30t22.5 13q13 0 20 -10 t7 -26z" />
<glyph unicode="&#x1eb8;" horiz-adv-x="496" d="M436 0h-316v535l-8 115h329l-5 -31l-284 5v-289l199 3l-5 -31l-194 2v-283l289 5zM275 -124q0 -17 -7 -30.5t-23 -13.5q-13 0 -20.5 11t-7.5 26q0 17 8.5 30t22.5 13q13 0 20 -10t7 -26z" />
<glyph unicode="&#x1eb9;" horiz-adv-x="487" d="M402 21q-22 -11 -55.5 -21t-74.5 -10q-98 0 -152.5 65.5t-54.5 181.5q0 80 25 141.5t70.5 96.5t104.5 35q73 0 117.5 -50.5t44.5 -132.5v-28t-1 -29l-5 -15h-324v-6q0 -115 48.5 -174.5t130.5 -59.5q37 0 70.5 11t57.5 26zM265 486q-67 0 -113.5 -53t-53.5 -154l296 6 q1 11 1 20.5v20.5q0 74 -34 117t-96 43zM283 -124q0 -17 -7 -30.5t-23 -13.5q-13 0 -20.5 11t-7.5 26q0 17 8.5 30t22.5 13q13 0 20 -10t7 -26z" />
<glyph unicode="&#x1ebc;" horiz-adv-x="496" d="M226 825q23 0 39.5 -10.5t32 -21.5t33.5 -11q20 0 34 14t24 33l16 -5q-6 -26 -26.5 -49.5t-52.5 -23.5q-23 0 -39 11t-31 21.5t-34 10.5t-33.5 -13.5t-24.5 -33.5l-16 5q7 25 26.5 49t51.5 24zM436 0h-316v535l-8 115h329l-5 -31l-284 5v-289l199 3l-5 -31l-194 2v-283 l289 5z" />
<glyph unicode="&#x1ebd;" horiz-adv-x="487" d="M192 703q24 0 42 -12t34.5 -24t34.5 -12q20 0 34 16t21 35l14 -4q-3 -26 -22.5 -51.5t-51.5 -25.5q-23 0 -41 12t-34 24t-35 12t-33 -15.5t-22 -35.5l-14 4q3 17 12 34.5t24.5 30t36.5 12.5zM402 21q-22 -11 -55.5 -21t-74.5 -10q-98 0 -152.5 65.5t-54.5 181.5 q0 80 25 141.5t70.5 96.5t104.5 35q73 0 117.5 -50.5t44.5 -132.5v-28t-1 -29l-5 -15h-324v-6q0 -115 48.5 -174.5t130.5 -59.5q37 0 70.5 11t57.5 26zM265 486q-67 0 -113.5 -53t-53.5 -154l296 6q1 11 1 20.5v20.5q0 74 -34 117t-96 43z" />
<glyph unicode="&#x1eca;" horiz-adv-x="272" d="M152 0h-32v535l-8 115l40 10v-660zM165 -124q0 -17 -7 -30.5t-23 -13.5q-13 0 -20.5 11t-7.5 26q0 17 8.5 30t22.5 13q13 0 20 -10t7 -26z" />
<glyph unicode="&#x1ecb;" horiz-adv-x="213" d="M140 659q0 -17 -7 -30.5t-23 -13.5q-13 0 -20.5 11t-7.5 26q0 17 8.5 30t22.5 13q13 0 20 -10t7 -26zM123 0h-30v385l-8 115l38 10v-510zM140 -124q0 -17 -7 -30.5t-23 -13.5q-13 0 -20.5 11t-7.5 26q0 17 8.5 30t22.5 13q13 0 20 -10t7 -26z" />
<glyph unicode="&#x1ecc;" horiz-adv-x="661" d="M586 325q-1 -99 -33 -174.5t-89.5 -118t-135.5 -42.5t-135 42.5t-88 118t-30 174.5t33 174.5t90 118t136 42.5t134.5 -42.5t87.5 -118t30 -174.5zM109 325q1 -91 29 -161.5t78 -110t118 -39.5t117 39.5t75.5 110t25.5 161.5q-1 92 -29 162t-77.5 109.5t-117.5 39.5 t-117.5 -39.5t-76 -109.5t-25.5 -162zM360 -124q0 -17 -7 -30.5t-23 -13.5q-13 0 -20.5 11t-7.5 26q0 17 8.5 30t22.5 13q13 0 20 -10t7 -26z" />
<glyph unicode="&#x1ecd;" horiz-adv-x="547" d="M482 264q0 -92 -32.5 -153t-83.5 -91t-109 -30q-85 0 -138.5 64t-53.5 180q0 92 32.5 153.5t84 92t108.5 30.5q86 0 139 -65t53 -181zM97 240q0 -108 47 -167t121 -59q49 0 91 27t68 81t26 135q0 106 -45.5 167.5t-122.5 61.5q-49 0 -91 -27.5t-68 -82t-26 -136.5z M303 -124q0 -17 -7 -30.5t-23 -13.5q-13 0 -20.5 11t-7.5 26q0 17 8.5 30t22.5 13q13 0 20 -10t7 -26z" />
<glyph unicode="&#x1ee4;" horiz-adv-x="638" d="M321 14q78 0 124 52t46 134v335l-8 115l40 10v-460q0 -61 -26 -108.5t-72.5 -74.5t-109.5 -27q-61 0 -106 27t-69.5 74.5t-24.5 108.5v335l-8 115l40 10v-460q0 -54 22 -96t61 -66t91 -24zM348 -124q0 -17 -7 -30.5t-23 -13.5q-13 0 -20.5 11t-7.5 26q0 17 8.5 30 t22.5 13q13 0 20 -10t7 -26z" />
<glyph unicode="&#x1ee5;" horiz-adv-x="525" d="M90 159v341l30 10v-340q0 -78 30.5 -117t79.5 -39q38 0 79.5 22.5t75.5 65.5v398l30 10v-405q0 -26 5.5 -53.5t19.5 -51.5l-28 -10q-23 37 -26 79q-35 -38 -78 -58.5t-84 -20.5q-47 0 -77 24.5t-43.5 63t-13.5 81.5zM294 -124q0 -17 -7 -30.5t-23 -13.5q-13 0 -20.5 11 t-7.5 26q0 17 8.5 30t22.5 13q13 0 20 -10t7 -26z" />
<glyph unicode="&#x1ef2;" horiz-adv-x="517" d="M344 748l-9 -17q-38 11 -80 31.5t-82 52.5l35 25q29 -25 64 -49t72 -43zM274 0h-32v212l-217 438l29 10l204 -410h1l204 410l29 -10l-218 -438v-212z" />
<glyph unicode="&#x1ef3;" horiz-adv-x="445" d="M284 587l-14 -5q-27 29 -51 66t-43 83l36 2q25 -78 72 -146zM11 -195q-33 0 -65 9v28q16 -5 39.5 -9t42.5 -4q62 0 111.5 44t77.5 127h-7l-176 501l30 9l162 -476h2l162 476l25 -9q-21 -65 -50 -149t-61 -175.5t-64 -177.5q-28 -74 -61.5 -116.5t-74.5 -60t-93 -17.5z " />
<glyph unicode="&#x1ef8;" horiz-adv-x="517" d="M208 825q23 0 39.5 -10.5t32 -21.5t33.5 -11q20 0 34 14t24 33l16 -5q-6 -26 -26.5 -49.5t-52.5 -23.5q-23 0 -39 11t-31 21.5t-34 10.5t-33.5 -13.5t-24.5 -33.5l-16 5q7 25 26.5 49t51.5 24zM274 0h-32v212l-217 438l29 10l204 -410h1l204 410l29 -10l-218 -438v-212z " />
<glyph unicode="&#x1ef9;" horiz-adv-x="445" d="M170 703q24 0 42 -12t34.5 -24t34.5 -12q20 0 34 16t21 35l14 -4q-3 -26 -22.5 -51.5t-51.5 -25.5q-24 0 -41.5 12t-33.5 24t-35 12t-33 -15.5t-22 -35.5l-14 4q3 17 12 34.5t24.5 30t36.5 12.5zM11 -195q-33 0 -65 9v28q16 -5 39.5 -9t42.5 -4q62 0 111.5 44t77.5 127 h-7l-176 501l30 9l162 -476h2l162 476l25 -9q-21 -65 -50 -149t-61 -175.5t-64 -177.5q-28 -74 -61.5 -116.5t-74.5 -60t-93 -17.5z" />
<glyph unicode="&#x2013;" horiz-adv-x="453" d="M30 277v26h393v-26h-393z" />
<glyph unicode="&#x2014;" horiz-adv-x="695" d="M30 277v26h635v-26h-635z" />
<glyph unicode="&#x2018;" horiz-adv-x="193" d="M75 520q0 32 18 82.5t55 92.5l10 -9q-25 -36 -37 -71t-15 -69h1q29 -6 29 -33q0 -15 -8.5 -25t-22.5 -10t-22 11.5t-8 30.5z" />
<glyph unicode="&#x2019;" horiz-adv-x="193" d="M118 652q0 -32 -18 -82.5t-55 -92.5l-10 9q25 36 37 71t15 69h-1q-29 6 -29 33q0 15 8.5 25t22.5 10t22 -11.5t8 -30.5z" />
<glyph unicode="&#x201a;" horiz-adv-x="168" d="M93 16q0 -32 -18 -82.5t-55 -92.5l-10 9q25 36 37 71t15 69h-1q-29 6 -29 33q0 15 8.5 25t22.5 10t22 -11.5t8 -30.5z" />
<glyph unicode="&#x201c;" horiz-adv-x="300" d="M75 520q0 32 18 82.5t55 92.5l10 -9q-25 -36 -37 -71t-15 -69h1q29 -6 29 -33q0 -15 -8.5 -25t-22.5 -10t-22 11.5t-8 30.5zM182 520q0 32 18 82.5t55 92.5l10 -9q-25 -36 -37 -71t-15 -69h1q29 -6 29 -33q0 -15 -8.5 -25t-22.5 -10t-22 11.5t-8 30.5z" />
<glyph unicode="&#x201d;" horiz-adv-x="300" d="M225 653q0 -32 -18 -82.5t-55 -92.5l-10 9q25 36 37 71t15 69h-1q-29 6 -29 33q0 15 8.5 25t22.5 10t22 -11.5t8 -30.5zM118 653q0 -32 -18 -82.5t-55 -92.5l-10 9q25 36 37 71t15 69h-1q-29 6 -29 33q0 15 8.5 25t22.5 10t22 -11.5t8 -30.5z" />
<glyph unicode="&#x201e;" horiz-adv-x="275" d="M93 16q0 -32 -18 -82.5t-55 -92.5l-10 9q25 36 37 71t15 69h-1q-29 6 -29 33q0 15 8.5 25t22.5 10t22 -11.5t8 -30.5zM200 16q0 -32 -18 -82.5t-55 -92.5l-10 9q25 36 37 71t15 69h-1q-29 6 -29 33q0 15 8.5 25t22.5 10t22 -11.5t8 -30.5z" />
<glyph unicode="&#x2020;" horiz-adv-x="502" d="M266 -5l-30 -5l5 450l-175 -4l1 28l174 -4l-5 195l30 5l-5 -200l175 4l-1 -28l-174 4z" />
<glyph unicode="&#x2021;" horiz-adv-x="502" d="M266 -5l-30 -5l5 200l-175 -4l1 28l174 -4l-5 117l5 113l-175 -4l1 28l174 -4l-5 195l30 5l-5 -200l175 4l-1 -28l-174 4l5 -113l-5 -117l175 4l-1 -28l-174 4z" />
<glyph unicode="&#x2022;" horiz-adv-x="422" d="M307 270q0 -45 -30 -73.5t-74 -28.5q-37 0 -62.5 22t-25.5 62q0 44 30.5 73t75.5 29q37 0 61.5 -21.5t24.5 -62.5z" />
<glyph unicode="&#x2026;" horiz-adv-x="570" d="M464 -10q-13 0 -21 9.5t-8 22.5q0 14 9 25t23 11t21 -8.5t7 -22.5q0 -13 -7.5 -25t-23.5 -12zM284 -10q-13 0 -21 9.5t-8 22.5q0 14 9 25t23 11t21 -8.5t7 -22.5q0 -13 -7.5 -25t-23.5 -12zM104 -10q-13 0 -21 9.5t-8 22.5q0 14 9 25t23 11t21 -8.5t7 -22.5 q0 -13 -7.5 -25t-23.5 -12z" />
<glyph unicode="&#x2030;" horiz-adv-x="1304" d="M277 -10h-31l400 670h30zM361 474q0 -63 -20.5 -105t-54 -63t-73.5 -21q-61 0 -99.5 47t-38.5 135q0 95 43.5 142.5t104.5 47.5t99.5 -47.5t38.5 -135.5zM106 472q0 -72 28.5 -120t81.5 -48q49 0 81 43t32 122q0 73 -28 120.5t-82 47.5q-48 0 -80.5 -42t-32.5 -123z M855 182q0 -64 -20.5 -105.5t-54 -62.5t-73.5 -21q-61 0 -99.5 47t-38.5 135q0 95 43.5 142.5t104.5 47.5t99.5 -47.5t38.5 -135.5zM1229 182q0 -64 -20.5 -105.5t-54 -62.5t-73.5 -21q-61 0 -99.5 47t-38.5 135q0 95 43.5 142.5t104.5 47.5t99.5 -47.5t38.5 -135.5z M600 180q0 -72 28.5 -120t81.5 -48q49 0 81 43t32 122q0 73 -28 120.5t-82 47.5q-48 0 -80.5 -42t-32.5 -123zM974 180q0 -72 28.5 -120t81.5 -48q49 0 81 43t32 122q0 73 -28 120.5t-82 47.5q-48 0 -80.5 -42t-32.5 -123z" />
<glyph unicode="&#x2039;" horiz-adv-x="298" d="M60 288v8q42 44 82.5 91.5t84.5 107.5l11 -7q-29 -49 -67 -101.5t-72 -94.5q34 -42 72 -94.5t67 -101.5l-11 -7q-44 60 -84.5 108t-82.5 91z" />
<glyph unicode="&#x203a;" horiz-adv-x="298" d="M238 288q-42 -43 -82.5 -91t-84.5 -108l-11 7q29 49 67 101.5t72 94.5q-34 42 -72 94.5t-67 101.5l11 7q44 -60 84.5 -107.5t82.5 -91.5v-8z" />
<glyph unicode="&#x2044;" horiz-adv-x="530" d="M81 -10h-31l400 670h30z" />
<glyph unicode="&#x2070;" horiz-adv-x="436" d="M361 554q0 -63 -20.5 -105t-54 -63t-73.5 -21q-61 0 -99.5 47t-38.5 135q0 95 43.5 142.5t104.5 47.5t99.5 -47.5t38.5 -135.5zM106 552q0 -72 28.5 -120t81.5 -48q49 0 81 43t32 122q0 73 -28 120.5t-82 47.5q-48 0 -80.5 -42t-32.5 -123z" />
<glyph unicode="&#x2074;" horiz-adv-x="398" d="M257 372h-30v85h-181l-4 14l193 266l22 -5v-249q32 2 61 5l-6 -31h-55v-85zM181 480q22 0 46 1v213l-157 -214h111z" />
<glyph unicode="&#x2075;" horiz-adv-x="374" d="M294 479q0 -50 -40 -82t-106 -32q-25 0 -48 4t-40 9l4 19q19 -5 42 -9t44 -4q50 0 81 25.5t31 68.5t-30.5 63t-71.5 20q-16 0 -38 -3t-35 -9l-6 4v177h107q23 0 48.5 1t50.5 4l-6 -29h-178v-137q31 10 68 10q56 0 89.5 -27t33.5 -73z" />
<glyph unicode="&#x2076;" horiz-adv-x="387" d="M205 365q-61 0 -95.5 42t-34.5 120q0 65 24 112t65.5 72.5t93.5 25.5q18 0 31.5 -2.5t19.5 -4.5l-6 -21q-18 8 -49 8q-37 0 -70 -18.5t-54 -60t-24 -111.5q15 22 47.5 37t64.5 15q45 0 77 -27.5t32 -75.5q0 -49 -34.5 -80t-87.5 -31zM204 384q40 0 66 25.5t26 66.5 q0 38 -22.5 61.5t-63.5 23.5q-31 0 -59 -15t-45 -42q2 -28 11.5 -55.5t30.5 -46t56 -18.5z" />
<glyph unicode="&#x2077;" horiz-adv-x="349" d="M137 372h-33q3 45 19 92.5t40.5 93t53 83.5t56.5 65h-83q-38 0 -72 -2t-63 -5l6 31h234l4 -4v-13q-39 -43 -75 -100t-59.5 -119.5t-27.5 -121.5z" />
<glyph unicode="&#x2078;" horiz-adv-x="402" d="M199 365q-53 0 -88.5 24.5t-35.5 61.5q0 34 30 60t72 37q-34 16 -62 41t-28 59q0 40 35 64.5t82 24.5q45 0 78.5 -23.5t33.5 -61.5q0 -31 -26.5 -57t-68.5 -39q42 -15 74 -40t32 -60q0 -39 -36 -65t-92 -26zM203 717q-33 0 -59.5 -18t-26.5 -47q0 -31 27.5 -54.5 t58.5 -35.5q35 14 58.5 38t23.5 52q0 29 -24 47t-58 18zM199 384q40 0 69 20t29 51q1 30 -29 50t-74 36q-35 -13 -61.5 -36t-26.5 -53q0 -29 27 -48.5t66 -19.5z" />
<glyph unicode="&#x2079;" horiz-adv-x="387" d="M60 623q0 52 34.5 83t87.5 31q61 0 95.5 -42t34.5 -120q0 -65 -24 -112t-65 -72.5t-94 -25.5q-18 0 -31.5 2.5t-19.5 4.5l6 21q18 -8 49 -8q38 0 71 18t54 57t23 104q-15 -22 -47.5 -37t-64.5 -15q-45 0 -77 30.5t-32 80.5zM91 623q0 -40 23 -66.5t63 -26.5q32 0 60 15 t44 42q-1 30 -10.5 60t-31 50.5t-57.5 20.5q-39 0 -65 -25.5t-26 -69.5z" />
<glyph unicode="&#x207f;" horiz-adv-x="445" d="M124 372h-30v277l-6 83l36 7v-57q53 57 123 57q38 0 60.5 -17t32.5 -44.5t10 -58.5v-247h-30v237q0 53 -21.5 80t-61.5 27q-63 0 -113 -59v-285z" />
<glyph unicode="&#x2080;" horiz-adv-x="436" d="M361 17q0 -63 -20.5 -105t-54 -63t-73.5 -21q-61 0 -99.5 47t-38.5 135q0 95 43.5 142.5t104.5 47.5t99.5 -47.5t38.5 -135.5zM106 15q0 -72 28.5 -120t81.5 -48q49 0 81 43t32 122q0 73 -28 120.5t-82 47.5q-48 0 -80.5 -42t-32.5 -123z" />
<glyph unicode="&#x2081;" horiz-adv-x="297" d="M157 -168h-30v337l-72 -28l-5 19l104 37l3 -2v-363z" />
<glyph unicode="&#x2082;" horiz-adv-x="369" d="M283 -168h-234l-4 16q56 46 103 89t75 83.5t28 78.5q0 35 -25 55.5t-66 20.5q-29 0 -55 -9.5t-49 -23.5l-6 25q22 12 53.5 21t63.5 9q51 0 84 -25.5t33 -71.5q0 -39 -27 -78.5t-74.5 -80.5t-107.5 -86h79q35 0 69 2t66 6z" />
<glyph unicode="&#x2083;" horiz-adv-x="348" d="M278 -70q0 -44 -39 -73t-110 -29q-25 0 -47.5 3.5t-41.5 9.5l4 21q21 -7 41.5 -10.5t42.5 -3.5q57 0 87 24.5t30 58.5q0 26 -17 42t-44 23.5t-56 7.5q-11 0 -21 -1t-18 -3v16q73 15 106.5 43.5t33.5 57.5q0 27 -22.5 44t-61.5 17q-25 0 -47.5 -6.5t-45.5 -18.5l-3 21 q17 10 45 18t60 8q47 0 77 -21t30 -57q0 -31 -27.5 -58.5t-87.5 -44.5q62 -3 97 -25t35 -64z" />
<glyph unicode="&#x2084;" horiz-adv-x="398" d="M257 -168h-30v85h-181l-4 14l193 266l22 -5v-249q32 2 61 5l-6 -31h-55v-85zM181 -60q22 0 46 1v213l-157 -214h111z" />
<glyph unicode="&#x2085;" horiz-adv-x="374" d="M294 -58q0 -50 -40 -82t-106 -32q-25 0 -48 4t-40 9l4 19q19 -5 42 -9t44 -4q50 0 81 25.5t31 68.5t-30.5 63t-71.5 20q-16 0 -38 -3t-35 -9l-6 4v177h107q23 0 48.5 1t50.5 4l-6 -29h-178v-137q31 10 68 10q56 0 89.5 -27t33.5 -73z" />
<glyph unicode="&#x2086;" horiz-adv-x="387" d="M205 -172q-61 0 -95.5 42t-34.5 120q0 65 24 112t65.5 72.5t93.5 25.5q18 0 31.5 -2.5t19.5 -4.5l-6 -21q-18 8 -49 8q-37 0 -70 -18.5t-54 -60t-24 -111.5q15 22 47.5 37t64.5 15q45 0 77 -27.5t32 -75.5q0 -49 -34.5 -80t-87.5 -31zM204 -153q40 0 66 25.5t26 66.5 q0 38 -22.5 61.5t-63.5 23.5q-31 0 -59 -15t-45 -42q2 -28 11.5 -55.5t30.5 -46t56 -18.5z" />
<glyph unicode="&#x2087;" horiz-adv-x="349" d="M137 -168h-33q3 45 19 92.5t40.5 93t53 83.5t56.5 65h-83q-38 0 -72 -2t-63 -5l6 31h234l4 -4v-13q-39 -43 -75 -100t-59.5 -119.5t-27.5 -121.5z" />
<glyph unicode="&#x2088;" horiz-adv-x="402" d="M199 -172q-53 0 -88.5 24.5t-35.5 61.5q0 34 30 60t72 37q-34 16 -62 41t-28 59q0 40 35 64.5t82 24.5q45 0 78.5 -23.5t33.5 -61.5q0 -31 -26.5 -57t-68.5 -39q42 -15 74 -40t32 -60q0 -39 -36 -65t-92 -26zM203 180q-33 0 -59.5 -18t-26.5 -47q0 -31 27.5 -54.5 t58.5 -35.5q35 14 58.5 38t23.5 52q0 29 -24 47t-58 18zM199 -153q40 0 69 20t29 51q1 30 -29 50t-74 36q-35 -13 -61.5 -36t-26.5 -53q0 -29 27 -48.5t66 -19.5z" />
<glyph unicode="&#x2089;" horiz-adv-x="387" d="M60 86q0 52 34.5 83t87.5 31q61 0 95.5 -42t34.5 -120q0 -65 -24 -112t-65 -72.5t-94 -25.5q-18 0 -31.5 2.5t-19.5 4.5l6 21q18 -8 49 -8q38 0 71 18t54 57t23 104q-15 -22 -47.5 -37t-64.5 -15q-45 0 -77 30.5t-32 80.5zM91 86q0 -40 23 -66.5t63 -26.5q32 0 60 15 t44 42q-1 30 -10.5 60t-31 50.5t-57.5 20.5q-39 0 -65 -25.5t-26 -69.5z" />
<glyph unicode="&#x20ac;" horiz-adv-x="564" d="M55 265l3 23h69q-1 18 -1 37t1 37h-57l3 23h56q9 81 41 143t84.5 97t124.5 35q35 0 72 -8.5t66 -25.5l-11 -34q-27 21 -62.5 32.5t-72.5 11.5q-91 0 -145 -69t-65 -182h275l-2 -23h-274q-1 -18 -1 -37t2 -37h260l-2 -23h-256q13 -112 68.5 -181t146.5 -69q38 0 74 11 t61 31l6 -28q-29 -19 -68 -29t-77 -10q-71 0 -123 34.5t-83 96t-39 144.5h-74z" />
<glyph unicode="&#x2122;" horiz-adv-x="547" d="M266 628h-1l-24 -203h-22l29 225l36 3l61 -209l61 206l35 3l31 -228h-27l-24 203l-63 -203h-30zM120 425h-26v207l-64 -3l2 21h149l3 -21l-64 3v-207z" />
<glyph unicode="&#x2212;" horiz-adv-x="589" d="M484 312h-384v23q33 1 83.5 1.5t107 1t108 0.5h86.5z" />
<glyph unicode="&#x221e;" horiz-adv-x="830" d="M746 267q0 -48 -19.5 -86t-54 -60.5t-81.5 -22.5q-42 0 -73.5 19.5t-55.5 50t-44 64.5q-35 -60 -80 -97t-104 -37q-45 0 -78.5 22t-52.5 59.5t-19 85.5t19.5 86t54.5 60.5t83 22.5q45 0 76.5 -20.5t55.5 -52.5t44 -66q38 63 83.5 101t100.5 38q71 0 108 -47.5t37 -119.5z M114 268q0 -66 35 -105t90 -39q49 0 90.5 40t74.5 94q-2 2 -3 5q-35 65 -73 105t-90 40t-88 -36.5t-36 -103.5zM600 408q-54 0 -95 -41.5t-73 -97.5q37 -65 74 -105t88 -40t86.5 36.5t35.5 105.5q0 66 -33 104t-83 38z" />
<glyph unicode="&#x2248;" horiz-adv-x="618" d="M181 453q-10 0 -28.5 -20t-38.5 -46l-14 8q10 18 22.5 38.5t27.5 34.5t32 14t51.5 -9t74.5 -21.5t75.5 -21.5t53.5 -9q10 0 28 19.5t39 46.5l14 -8q-9 -18 -21.5 -38t-27.5 -34.5t-33 -14.5q-13 0 -39 6t-58 15.5t-63.5 18.5t-57 15t-37.5 6zM181 229q-10 0 -28.5 -20 t-38.5 -46l-14 8q10 18 22.5 38t27.5 34.5t32 14.5t51.5 -9t74.5 -21.5t75.5 -21.5t53.5 -9q10 0 28 19.5t39 46.5l14 -8q-9 -18 -21.5 -38.5t-27.5 -34.5t-33 -14q-13 0 -39 6t-58 15.5t-63.5 18.5t-57 15t-37.5 6z" />
<glyph unicode="&#x2260;" horiz-adv-x="589" d="M203 116l-18 13l45 82h-130v23q26 1 64 1.5t80 0.5l98 177h-242v23q29 1 71 1.5t90.5 0.5t94.5 1l52 93l5 3l18 -13l-46 -83h100l-1 -26h-113l-98 -177q59 1 116.5 1h95.5l-1 -26h-225l-51 -92z" />
<glyph unicode="&#x2264;" horiz-adv-x="595" d="M476 537v-28l-338 -123l337 -122v-28q-62 22 -132 47t-134.5 49.5t-110.5 42.5v24zM482 115h-384v23q33 1 83.5 1.5t107 1t108 0.5h86.5z" />
<glyph unicode="&#x2265;" horiz-adv-x="599" d="M123 236v28l338 122l-337 123v28q63 -21 132.5 -46.5t134 -49.5t110.5 -43v-24zM496 115h-384v23q33 1 83.5 1.5t107 1t108 0.5h86.5z" />
<glyph unicode="&#x25fc;" horiz-adv-x="510" d="M0 510h510v-510h-510v510z" />
<glyph unicode="&#xfb00;" horiz-adv-x="501" d="M125 0h-30v455l-65 1v15l65 5v2q-7 20 -12.5 44.5t-5.5 43.5q0 50 40 79t110 29q29 0 55.5 -5t47.5 -12q34 38 98 38q22 0 41 -4t32 -10l-6 -28q-39 17 -80 17q-35 0 -58 -21.5t-23 -72.5q0 -22 4 -51t10 -49h147l-2 -25l-143 3v-454h-30v455l-195 3v-458zM109 562 q0 -17 4 -43t10 -43h197v2q-7 23 -12.5 50t-5.5 49q0 31 12 55q-49 18 -100 18q-46 0 -75.5 -19.5t-29.5 -68.5z" />
<glyph unicode="&#xfb01;" horiz-adv-x="440" d="M125 0h-30v455l-65 1v15l65 5v2q-7 23 -12.5 49.5t-5.5 48.5q0 56 37.5 87.5t104.5 31.5q35 0 67 -8t54 -19l-6 -28q-31 14 -65 22t-63 8q-43 0 -70 -21.5t-27 -74.5q0 -21 4 -49.5t10 -48.5h191l24 20h12v-496h-30v385l-4 66l-191 3v-454z" />
<glyph unicode="&#xfb02;" horiz-adv-x="440" d="M125 0h-30v455l-65 1v15l65 5v2q-7 23 -12.5 49.5t-5.5 48.5q0 56 39 87.5t108 31.5q24 0 47 -3t41 -7v0l38 10v-695h-30v451l-195 4v-455zM109 574q0 -21 4 -49.5t10 -48.5h197v94l-6 85q-26 7 -53 11t-50 4q-46 0 -74 -21.5t-28 -74.5z" />
<glyph unicode="&#xfb03;" horiz-adv-x="648" d="M125 0h-30v455l-65 1v15l65 5v2q-7 20 -12.5 44.5t-5.5 43.5q0 50 40 79t110 29q30 0 57 -5t48 -13q38 39 112 39q35 0 67 -8t54 -19l-6 -28q-31 14 -65 22t-63 8q-43 0 -70 -21.5t-27 -74.5q0 -21 4 -49.5t10 -48.5h191l24 20h12v-496h-30v385l-4 66l-191 3v-454h-30 v455l-195 3v-458zM109 562q0 -17 4 -43t10 -43h197v2q-7 23 -12.5 49.5t-5.5 48.5q0 32 13 56q-50 18 -101 18q-46 0 -75.5 -19.5t-29.5 -68.5z" />
<glyph unicode="&#xfb04;" horiz-adv-x="665" d="M125 0h-30v455l-65 1v15l65 5v2q-7 20 -12.5 44.5t-5.5 43.5q0 50 40 79t110 29q30 0 57 -5t49 -13q39 39 116 39q24 0 47 -3t41 -7v0l38 10v-695h-30v451l-195 4v-455h-30v455l-195 3v-458zM334 574q0 -21 4 -49.5t10 -48.5h197v94l-6 85q-26 7 -53 11t-50 4 q-46 0 -74 -21.5t-28 -74.5zM109 562q0 -17 4 -43t10 -43h197v2q-7 23 -12.5 49.5t-5.5 48.5q0 31 13 56q-50 18 -101 18q-46 0 -75.5 -19.5t-29.5 -68.5z" />
<glyph unicode="&#xfb06;" horiz-adv-x="768" d="M359 116q0 -55 -44.5 -90.5t-121.5 -35.5q-40 0 -77 10.5t-66 25.5l6 35q21 -16 58.5 -31.5t85.5 -15.5q63 0 95 29.5t32 69.5q0 33 -18.5 55.5t-48 39.5t-61.5 33t-62 34t-48.5 43t-18.5 62q0 56 44 93t120 37q40 0 75 -13q-24 31 -24 71q0 42 19.5 71.5t51 45 t65.5 15.5q38 0 67.5 -17.5t46.5 -47.5t17 -67q0 -24 -6.5 -52.5t-14.5 -39.5h198l-2 -25l-193 3v-320q0 -25 4 -53t23 -47.5t64 -19.5q35 0 63 11.5t44 22.5l6 -27q-19 -12 -51 -21.5t-67 -9.5q-54 0 -85 30t-31 100v335l-55 1v15l56 5q4 12 9.5 37.5t5.5 50.5 q0 53 -28 82.5t-73 29.5q-43 0 -72.5 -27t-29.5 -82q0 -25 9.5 -50.5t35.5 -48.5l-16 -22q-17 14 -47.5 27t-72.5 13q-58 0 -91 -29.5t-33 -70.5q0 -30 15.5 -51.5t41 -38t54.5 -31.5q35 -18 68.5 -37.5t55.5 -45.5t22 -66z" />
<glyph horiz-adv-x="437" d="M318 5q-7 13 -11 26t-6 27q-18 -17 -51.5 -35t-73.5 -18q-41 0 -65 23t-24 57q0 43 32 70.5t81 41t100 13.5v63q0 39 -20 61t-62 22q-31 0 -58 -10.5t-50 -27.5l-7 26q22 14 53 24.5t65 10.5q52 0 80.5 -26t28.5 -77q0 -5 -0.5 -29.5t-0.5 -55t-0.5 -56.5t-0.5 -34 q0 -26 4 -46t14 -43zM118 90q0 -28 19 -46t52 -18q30 0 62.5 16.5t48.5 37.5v113q-49 -1 -90.5 -12t-66.5 -33.5t-25 -57.5z" />
<glyph horiz-adv-x="456" d="M88 505l36 7v-176q46 43 105 43q62 0 100.5 -46.5t38.5 -131.5q0 -92 -47.5 -144t-127.5 -52q-15 0 -37.5 2t-35.5 5l-26 -7v417zM220 358q-58 0 -96 -50v-269q14 -5 33.5 -9t39.5 -4q59 0 99 43t40 128q0 74 -31.5 117.5t-84.5 43.5z" />
<glyph horiz-adv-x="412" d="M338 356l-5 -31q-13 11 -35 21t-51 10q-52 0 -89.5 -41.5t-37.5 -124.5q0 -78 34.5 -119.5t92.5 -41.5q28 0 52 8t39 17l-1 -27q-16 -8 -41 -15t-53 -7q-73 0 -114 47t-41 131q0 66 23 109.5t61.5 65t83.5 21.5q26 0 47 -6.5t35 -16.5z" />
<glyph horiz-adv-x="468" d="M352 5q-11 19 -17 45q-22 -23 -50 -34t-58 -11q-61 0 -100 46t-39 130q0 66 23.5 110t61 66t79.5 22q46 0 80 -24v67l-6 83l36 7v-394q0 -24 3 -49t15 -57zM120 185q0 -75 32.5 -117t84.5 -42q26 0 51.5 11.5t43.5 35.5v4v249q-32 32 -82 32q-58 0 -94 -46.5t-36 -126.5z " />
<glyph horiz-adv-x="433" d="M340 27q-16 -8 -42 -15t-55 -7q-73 0 -114 47t-41 131q0 58 19 102t52.5 69t77.5 25q54 0 87.5 -36.5t33.5 -95.5v-20.5t-1 -21.5l-4 -11h-233q0 -81 34.5 -123t93.5 -42q25 0 50.5 7.5t42.5 17.5zM236 358q-46 0 -78.5 -37t-36.5 -108l205 4q1 8 1 15.5v14.5 q0 51 -23.5 81t-67.5 30z" />
<glyph horiz-adv-x="269" d="M125 12h-30v324l-47 1v13l47 4v2q-5 16 -9 35t-4 35q0 40 26 63t70 23q34 0 56 -10l-5 -26q-29 13 -59 13q-25 0 -41 -15.5t-16 -50.5q0 -17 2.5 -36t6.5 -33h107l-2 -21l-102 2v-323z" />
<glyph horiz-adv-x="431" d="M130 92q0 26 31 43q-30 13 -48 41t-18 69q0 57 34.5 95.5t91.5 38.5h53t47.5 1t56.5 3v-27l-103 4v-1q28 -12 44 -43t16 -66q0 -57 -35.5 -91.5t-87.5 -34.5q-18 0 -35 5q-19 -14 -19 -31q0 -15 13 -22.5t27.5 -9.5t20.5 -3l42 -4q55 -5 86 -24.5t31 -56.5 q0 -46 -47.5 -76t-125.5 -30q-64 0 -101.5 22t-37.5 60q0 25 15 44.5t37 32t43 18.5q-13 6 -22 17t-9 26zM126 249q0 -43 23.5 -74t67.5 -31q43 0 65 29.5t22 77.5q0 44 -20.5 75.5t-64.5 31.5t-68.5 -32t-24.5 -77zM97 -41q0 -31 29.5 -49.5t81.5 -18.5q62 0 100.5 23.5 t38.5 59.5q0 26 -24.5 43t-69.5 20l-60 4h-2q-39 -7 -66.5 -29.5t-27.5 -52.5z" />
<glyph horiz-adv-x="445" d="M124 12h-30v410l-6 83l36 7v-190q26 28 57.5 42.5t64.5 14.5q38 0 61 -17t33 -44.5t10 -58.5v-247h-30v237q0 53 -21.5 80t-61.5 27q-63 0 -113 -59v-285z" />
<glyph horiz-adv-x="220" d="M136 479q0 -13 -7 -23.5t-20 -10.5q-11 0 -17.5 8.5t-6.5 20.5q0 14 7.5 24t19.5 10q11 0 17.5 -8.5t6.5 -20.5zM125 12h-30v276l-6 84l36 7v-367z" />
<glyph horiz-adv-x="220" d="M132 479q0 -13 -6.5 -23.5t-20.5 -10.5q-11 0 -17.5 9t-6.5 20q0 14 7.5 24t19.5 10q11 0 17.5 -8t6.5 -21zM36 -113q31 25 44.5 52.5t13.5 69.5v279l-6 84l36 7v-370q0 -47 -19.5 -80.5t-58.5 -57.5z" />
<glyph horiz-adv-x="413" d="M124 12h-30v410l-6 83l36 7v-297h60l131 164l27 -7l-135 -167l150 -193l-30 -7l-143 189h-60v-182z" />
<glyph horiz-adv-x="264" d="M147 12h-30v410l-6 83l36 7v-500z" />
<glyph horiz-adv-x="648" d="M124 12h-30v277l-6 83l36 7v-57q24 26 54.5 41.5t62.5 15.5q36 0 57.5 -19t31.5 -47q26 32 60 49t65 17q35 0 56.5 -17.5t31.5 -44.5t10 -58v-247h-30v237q0 53 -21 80t-56 27q-27 0 -57.5 -16.5t-53.5 -46.5q3 -16 3 -34v-247h-30v237q0 53 -21 80t-55 27 q-26 0 -55.5 -15t-52.5 -44v-285z" />
<glyph horiz-adv-x="445" d="M124 12h-30v277l-6 83l36 7v-57q53 57 123 57q38 0 60.5 -17t32.5 -44.5t10 -58.5v-247h-30v237q0 53 -21.5 80t-61.5 27q-63 0 -113 -59v-285z" />
<glyph horiz-adv-x="485" d="M397 202q0 -66 -24 -110t-62 -65.5t-80 -21.5q-64 0 -103.5 46t-39.5 130q0 66 24 110t62 66t80 22q63 0 103 -46.5t40 -130.5zM120 185q0 -75 32.5 -117t84.5 -42q51 0 89.5 42.5t38.5 128.5q0 75 -32 118t-85 43q-51 0 -89.5 -43t-38.5 -130z" />
<glyph horiz-adv-x="456" d="M94 289l-6 83l36 7v-42q22 22 49 32t56 10q62 0 100.5 -46t38.5 -130q0 -66 -23.5 -110t-61 -66t-79.5 -22q-46 0 -80 24v-46q0 -28 1.5 -51t5.5 -53l-37 -7v417zM219 358q-26 0 -51.5 -11.5t-43.5 -35.5v-253q32 -32 82 -32q59 0 94.5 46.5t35.5 126.5q0 75 -32 117 t-85 42z" />
<glyph horiz-adv-x="471" d="M369 -121l-37 -7v177q-45 -44 -107 -44q-60 0 -98.5 47t-38.5 129q0 94 49.5 146t131.5 52q14 0 34 -2t33 -4l26 6v-396q0 -26 1.5 -49.5t5.5 -54.5zM120 185q0 -73 32 -116t84 -43q58 0 96 50v269q-12 5 -29.5 9t-38.5 4q-60 0 -102 -43t-42 -130z" />
<glyph horiz-adv-x="299" d="M124 12h-30v277l-6 83l36 7v-86q19 44 48 65t61 21q5 0 13 -0.5t14 -2.5l-4 -31q-5 2 -12 3t-18 1q-31 0 -56.5 -19t-45.5 -63v-255z" />
<glyph horiz-adv-x="373" d="M302 97q0 -40 -33.5 -66t-90.5 -26q-29 0 -57.5 7.5t-49.5 17.5l5 31q16 -11 43.5 -22t62.5 -11q44 0 66.5 19.5t22.5 47.5q0 24 -14.5 40t-36 27.5t-42.5 21.5q-23 11 -44.5 24t-35 31.5t-13.5 45.5q0 41 33.5 67.5t89.5 26.5q26 0 48 -5.5t40 -15.5l-4 -30 q-13 10 -36 19t-53 9q-40 0 -63.5 -19.5t-23.5 -48.5q0 -31 24.5 -49.5t55.5 -34.5q25 -12 49.5 -26t40.5 -33t16 -48z" />
<glyph horiz-adv-x="346" d="M292 335l-138 3v-225q0 -17 2.5 -37t16.5 -34t46 -14q24 0 45 8t32 16l4 -25q-14 -8 -37.5 -15t-50.5 -7q-40 0 -64 22.5t-24 74.5v236l-40 1v12l41 4l9 110l20 3v-113h139z" />
<glyph horiz-adv-x="445" d="M95 125v247l30 7v-246q0 -52 21.5 -79.5t55.5 -27.5q28 0 57 16.5t50 42.5v287l30 7v-289q0 -20 4 -40t14 -38l-28 -7q-7 11 -12.5 25.5t-6.5 31.5q-25 -28 -56.5 -42.5t-61.5 -14.5q-34 0 -55.5 17t-31.5 44.5t-10 58.5z" />
<glyph horiz-adv-x="390" d="M337 373q-30 -93 -61 -182.5t-64 -178.5h-34l-125 361l30 6l114 -339h1l113 339z" />
<glyph horiz-adv-x="586" d="M163 12l-110 361l30 6l98 -339h1l97 339h31l98 -339h2l97 339l26 -6q-22 -79 -50 -172.5t-60 -188.5h-32l-97 333h-1q-21 -79 -45.5 -161t-53.5 -172h-31z" />
<glyph horiz-adv-x="403" d="M300 12l-101 165l-100 -165h-29q28 49 55.5 92t56.5 87l-112 181l27 7l107 -174l101 174l27 -4q-15 -28 -35 -60.5t-40 -64.5t-36 -57l112 -181h-33z" />
<glyph horiz-adv-x="400" d="M52 -128q-27 0 -51 6v26q13 -4 31.5 -6.5t31.5 -2.5q44 0 81 30t57 88h-14l-125 360l31 6l113 -339h2l112 339l26 -6q-10 -34 -25 -79.5t-32.5 -95.5t-34.5 -98.5t-32 -87.5q-31 -81 -71.5 -110.5t-99.5 -29.5z" />
<glyph horiz-adv-x="399" d="M319 12h-238l-5 16l206 322h-54q-43 0 -81 -2t-73 -5l9 29h227l5 -16l-206 -322h53q41 0 82.5 3t81.5 8z" />
<glyph horiz-adv-x="437" d="M318 365q-7 13 -11 26t-6 27q-18 -17 -51.5 -35t-73.5 -18q-41 0 -65 23t-24 57q0 43 32 70.5t81 41t100 13.5v63q0 39 -20 61t-62 22q-31 0 -58 -10.5t-50 -27.5l-7 26q22 14 53 24.5t65 10.5q52 0 80.5 -26t28.5 -77q0 -5 -0.5 -29.5t-0.5 -55t-0.5 -56.5t-0.5 -34 q0 -26 4 -46t14 -43zM118 450q0 -28 19 -46t52 -18q30 0 62.5 16.5t48.5 37.5v113q-49 -1 -90.5 -12t-66.5 -33.5t-25 -57.5z" />
<glyph horiz-adv-x="456" d="M88 865l36 7v-176q46 43 105 43q62 0 100.5 -46.5t38.5 -131.5q0 -92 -47.5 -144t-127.5 -52q-15 0 -37.5 2t-35.5 5l-26 -7v417zM220 718q-58 0 -96 -50v-269q14 -5 33.5 -9t39.5 -4q59 0 99 43t40 128q0 74 -31.5 117.5t-84.5 43.5z" />
<glyph horiz-adv-x="412" d="M338 716l-5 -31q-13 11 -35 21t-51 10q-52 0 -89.5 -41.5t-37.5 -124.5q0 -78 34.5 -119.5t92.5 -41.5q28 0 52 8t39 17l-1 -27q-16 -8 -41 -15t-53 -7q-73 0 -114 47t-41 131q0 66 23 109.5t61.5 65t83.5 21.5q26 0 47 -6.5t35 -16.5z" />
<glyph horiz-adv-x="468" d="M352 365q-11 19 -17 45q-22 -23 -50 -34t-58 -11q-61 0 -100 46t-39 130q0 66 23.5 110t61 66t79.5 22q46 0 80 -24v67l-6 83l36 7v-394q0 -24 3 -49t15 -57zM120 545q0 -75 32.5 -117t84.5 -42q26 0 51.5 11.5t43.5 35.5v4v249q-32 32 -82 32q-58 0 -94 -46.5 t-36 -126.5z" />
<glyph horiz-adv-x="433" d="M340 387q-16 -8 -42 -15t-55 -7q-73 0 -114 47t-41 131q0 58 19 102t52.5 69t77.5 25q54 0 87.5 -36.5t33.5 -95.5v-20.5t-1 -21.5l-4 -11h-233q0 -81 34.5 -123t93.5 -42q25 0 50.5 7.5t42.5 17.5zM236 718q-46 0 -78.5 -37t-36.5 -108l205 4q1 8 1 15.5v14.5 q0 51 -23.5 81t-67.5 30z" />
<glyph horiz-adv-x="269" d="M125 372h-30v324l-47 1v13l47 4v2q-5 16 -9 35t-4 35q0 40 26 63t70 23q34 0 56 -10l-5 -26q-29 13 -59 13q-25 0 -41 -15.5t-16 -50.5q0 -17 2.5 -36t6.5 -33h107l-2 -21l-102 2v-323z" />
<glyph horiz-adv-x="431" d="M130 452q0 26 31 43q-30 13 -48 41t-18 69q0 57 34.5 95.5t91.5 38.5h53t47.5 1t56.5 3v-27l-103 4v-1q28 -12 44 -43t16 -66q0 -57 -35.5 -91.5t-87.5 -34.5q-18 0 -35 5q-19 -14 -19 -31q0 -15 13 -22.5t27.5 -9.5t20.5 -3l42 -4q55 -5 86 -24.5t31 -56.5 q0 -46 -47.5 -76t-125.5 -30q-64 0 -101.5 22t-37.5 60q0 25 15 44.5t37 32t43 18.5q-13 6 -22 17t-9 26zM126 609q0 -43 23.5 -74t67.5 -31q43 0 65 29.5t22 77.5q0 44 -20.5 75.5t-64.5 31.5t-68.5 -32t-24.5 -77zM97 319q0 -31 29.5 -49.5t81.5 -18.5q62 0 100.5 23.5 t38.5 59.5q0 26 -24.5 43t-69.5 20l-60 4h-2q-39 -7 -66.5 -29.5t-27.5 -52.5z" />
<glyph horiz-adv-x="445" d="M124 372h-30v410l-6 83l36 7v-190q26 28 57.5 42.5t64.5 14.5q38 0 61 -17t33 -44.5t10 -58.5v-247h-30v237q0 53 -21.5 80t-61.5 27q-63 0 -113 -59v-285z" />
<glyph horiz-adv-x="220" d="M136 839q0 -13 -7 -23.5t-20 -10.5q-11 0 -17.5 8.5t-6.5 20.5q0 14 7.5 24t19.5 10q11 0 17.5 -8.5t6.5 -20.5zM125 372h-30v276l-6 84l36 7v-367z" />
<glyph horiz-adv-x="220" d="M132 839q0 -13 -6.5 -23.5t-20.5 -10.5q-11 0 -17.5 9t-6.5 20q0 14 7.5 24t19.5 10q11 0 17.5 -8t6.5 -21zM36 247q31 25 44.5 52.5t13.5 69.5v279l-6 84l36 7v-370q0 -47 -19.5 -80.5t-58.5 -57.5z" />
<glyph horiz-adv-x="413" d="M124 372h-30v410l-6 83l36 7v-297h60l131 164l27 -7l-135 -167l150 -193l-30 -7l-143 189h-60v-182z" />
<glyph horiz-adv-x="264" d="M147 372h-30v410l-6 83l36 7v-500z" />
<glyph horiz-adv-x="648" d="M124 372h-30v277l-6 83l36 7v-57q24 26 54.5 41.5t62.5 15.5q36 0 57.5 -19t31.5 -47q26 32 60 49t65 17q35 0 56.5 -17.5t31.5 -44.5t10 -58v-247h-30v237q0 53 -21 80t-56 27q-27 0 -57.5 -16.5t-53.5 -46.5q3 -16 3 -34v-247h-30v237q0 53 -21 80t-55 27 q-26 0 -55.5 -15t-52.5 -44v-285z" />
<glyph horiz-adv-x="485" d="M397 562q0 -67 -24 -110.5t-62 -65t-80 -21.5q-64 0 -103.5 46t-39.5 130q0 66 24 110t62 66t80 22q63 0 103 -46.5t40 -130.5zM120 545q0 -75 32.5 -117t84.5 -42q51 0 89.5 42.5t38.5 128.5q0 75 -32 118t-85 43q-51 0 -89.5 -43t-38.5 -130z" />
<glyph horiz-adv-x="456" d="M94 649l-6 83l36 7v-42q22 22 49 32t56 10q62 0 100.5 -46t38.5 -130q0 -66 -23.5 -110t-61 -66t-79.5 -22q-46 0 -80 24v-46q0 -28 1.5 -51t5.5 -53l-37 -7v417zM219 718q-26 0 -51.5 -11.5t-43.5 -35.5v-253q32 -32 82 -32q59 0 94.5 46.5t35.5 126.5q0 75 -32 117 t-85 42z" />
<glyph horiz-adv-x="471" d="M369 239l-37 -7v177q-45 -44 -107 -44q-60 0 -98.5 47t-38.5 129q0 94 49.5 146t131.5 52q14 0 34 -2t33 -4l26 6v-396q0 -26 1.5 -49.5t5.5 -54.5zM120 545q0 -73 32 -116t84 -43q58 0 96 50v269q-12 5 -29.5 9t-38.5 4q-60 0 -102 -43t-42 -130z" />
<glyph horiz-adv-x="299" d="M124 372h-30v277l-6 83l36 7v-86q19 44 48 65t61 21q5 0 13 -0.5t14 -2.5l-4 -31q-5 2 -12 3t-18 1q-31 0 -56.5 -19t-45.5 -63v-255z" />
<glyph horiz-adv-x="373" d="M302 457q0 -40 -33.5 -66t-90.5 -26q-29 0 -57.5 7.5t-49.5 17.5l5 31q16 -11 43.5 -22t62.5 -11q44 0 66.5 19.5t22.5 47.5q0 24 -14.5 40t-36 27.5t-42.5 21.5q-23 11 -44.5 24t-35 31.5t-13.5 45.5q0 41 33.5 67.5t89.5 26.5q26 0 48 -5.5t40 -15.5l-4 -30 q-13 10 -36 19t-53 9q-40 0 -63.5 -19.5t-23.5 -48.5q0 -31 24.5 -49.5t55.5 -34.5q25 -12 49.5 -26t40.5 -33t16 -48z" />
<glyph horiz-adv-x="346" d="M292 695l-138 3v-225q0 -17 2.5 -37t16.5 -34t46 -14q24 0 45 8t32 16l4 -25q-14 -8 -37.5 -15t-50.5 -7q-40 0 -64 22.5t-24 74.5v236l-40 1v12l41 4l9 110l20 3v-113h139z" />
<glyph horiz-adv-x="445" d="M95 485v247l30 7v-246q0 -52 21.5 -79.5t55.5 -27.5q28 0 57 16.5t50 42.5v287l30 7v-289q0 -20 4 -40t14 -38l-28 -7q-7 11 -12.5 25.5t-6.5 31.5q-25 -28 -56.5 -42.5t-61.5 -14.5q-34 0 -55.5 17t-31.5 44.5t-10 58.5z" />
<glyph horiz-adv-x="390" d="M337 733q-30 -93 -61 -182.5t-64 -178.5h-34l-125 361l30 6l114 -339h1l113 339z" />
<glyph horiz-adv-x="586" d="M163 372l-110 361l30 6l98 -339h1l97 339h31l98 -339h2l97 339l26 -6q-22 -79 -50 -172.5t-60 -188.5h-32l-97 333h-1q-21 -79 -45.5 -161t-53.5 -172h-31z" />
<glyph horiz-adv-x="403" d="M300 372l-101 165l-100 -165h-29q28 49 55.5 92t56.5 87l-112 181l27 7l107 -174l101 174l27 -4q-15 -28 -35 -60.5t-40 -64.5t-36 -57l112 -181h-33z" />
<glyph horiz-adv-x="400" d="M52 232q-27 0 -51 6v26q13 -4 31.5 -6.5t31.5 -2.5q44 0 81 30t57 88h-14l-125 360l31 6l113 -339h2l112 339l26 -6q-10 -34 -25 -79.5t-32.5 -95.5t-34.5 -98.5t-32 -87.5q-31 -81 -71.5 -110.5t-99.5 -29.5z" />
<glyph horiz-adv-x="399" d="M319 372h-238l-5 16l206 322h-54q-43 0 -81 -2t-73 -5l9 29h227l5 -16l-206 -322h53q41 0 82.5 3t81.5 8z" />
<glyph horiz-adv-x="978" d="M577 0h-30v570l-7 99q-22 7 -53 7q-56 0 -89.5 -24.5t-33.5 -74.5q0 -20 11.5 -49t40.5 -61l-19 -25q-17 16 -47.5 29.5t-71.5 13.5q-49 0 -90 -26t-66 -79t-25 -133q0 -112 48.5 -172t130.5 -60q37 0 70.5 11t57.5 26l-2 -31q-22 -11 -55.5 -21t-73.5 -10 q-99 0 -153.5 66t-54.5 181q0 92 31.5 152.5t83.5 90.5t112 30q38 0 71 -12q-31 40 -31 78q0 56 44.5 90t125.5 34q38 0 75 -5v-264q74 79 169 79q53 0 84 -24.5t44.5 -63t13.5 -81.5v-341h-30v330q0 78 -31 117t-87 39q-90 0 -163 -88v-398z" />
<glyph horiz-adv-x="849" d="M411 466l-14 -24q-26 16 -52 29.5t-66 13.5q-49 0 -90.5 -26t-66.5 -79t-25 -134q0 -109 47.5 -170t131.5 -61q37 0 70.5 11t57.5 26l-2 -31q-22 -11 -55.5 -21t-73.5 -10q-99 0 -153.5 66t-54.5 182q0 92 31.5 152t83 90t109.5 30q22 0 39.5 -4t33.5 -12q-23 33 -23 73 q0 43 22 72.5t56 45t70 15.5q42 0 75 -19t52 -50.5t19 -71.5q0 -26 -6.5 -48t-14.5 -35h198l-2 -25l-193 3v-320q0 -25 4 -53t23 -47.5t64 -19.5q35 0 63 11.5t44 22.5l6 -27q-19 -12 -51 -21.5t-67 -9.5q-54 0 -85 30t-31 100v335l-55 1v15l56 5q5 13 10 33.5t5 45.5 q0 59 -33 90t-83 31q-47 0 -83 -28t-36 -84q0 -25 10 -50t35 -48z" />
<glyph horiz-adv-x="939" d="M359 116q0 -55 -44.5 -90.5t-121.5 -35.5q-40 0 -77 10.5t-66 25.5l6 35q21 -16 58.5 -31.5t85.5 -15.5q63 0 95 29.5t32 69.5q0 33 -18.5 55.5t-48 39.5t-61.5 33t-61.5 33.5t-48.5 42.5t-19 63q0 56 44 93t118 37q47 0 87 -16q-26 43 -26 82q0 56 44.5 90t125.5 34 q38 0 75 -5v-264q74 79 169 79q53 0 84 -24.5t44.5 -63t13.5 -81.5v-341h-30v330q0 78 -31 117t-87 39q-90 0 -163 -88v-398h-30v570l-7 99q-22 7 -53 7q-56 0 -89.5 -24.5t-33.5 -74.5q0 -19 8 -47t28 -59l-15 -25q-17 14 -47.5 27t-72.5 13q-58 0 -91 -29.5t-33 -70.5 q0 -30 15.5 -51.5t41 -38t54.5 -31.5q35 -18 68.5 -37.5t55.5 -45.5t22 -66z" />
<glyph horiz-adv-x="436" d="M361 182q0 -64 -20.5 -105.5t-54 -62.5t-73.5 -21q-61 0 -99.5 47t-38.5 135q0 95 43.5 142.5t104.5 47.5t99.5 -47.5t38.5 -135.5zM106 180q0 -72 28.5 -120t81.5 -48q49 0 81 43t32 122q0 73 -28 120.5t-82 47.5q-48 0 -80.5 -42t-32.5 -123z" />
<glyph horiz-adv-x="297" d="M157 0h-30v337l-72 -28l-5 19l104 37l3 -2v-363z" />
<glyph horiz-adv-x="369" d="M283 0h-234l-4 16q56 46 103 89t75 83.5t28 78.5q0 35 -25 55.5t-66 20.5q-29 0 -55 -9.5t-49 -23.5l-6 25q22 12 53.5 21t63.5 9q51 0 84 -25.5t33 -71.5q0 -39 -27 -78.5t-74.5 -80.5t-107.5 -86h79q35 0 69 2t66 6z" />
<glyph horiz-adv-x="348" d="M278 95q0 -44 -39 -73t-110 -29q-25 0 -47.5 3.5t-41.5 9.5l4 21q21 -7 41.5 -10.5t42.5 -3.5q57 0 87 24.5t30 58.5q0 26 -17 42t-44 23.5t-56 7.5q-11 0 -21 -1t-18 -3v16q73 15 106.5 43.5t33.5 57.5q0 27 -22.5 44t-61.5 17q-25 0 -47.5 -6.5t-45.5 -18.5l-3 21 q17 10 45 18t60 8q47 0 77 -21t30 -57q0 -31 -27.5 -58.5t-87.5 -44.5q62 -3 97 -25t35 -64z" />
<glyph horiz-adv-x="398" d="M257 0h-30v85h-181l-4 14l193 266l22 -5v-249q32 2 61 5l-6 -31h-55v-85zM181 108q22 0 46 1v213l-157 -214h111z" />
<glyph horiz-adv-x="374" d="M294 107q0 -50 -40 -82t-106 -32q-25 0 -48 4t-40 9l4 19q19 -5 42 -9t44 -4q50 0 81 25.5t31 68.5t-30.5 63t-71.5 20q-16 0 -38 -3t-35 -9l-6 4v177h107q23 0 48.5 1t50.5 4l-6 -29h-178v-137q31 10 68 10q56 0 89.5 -27t33.5 -73z" />
<glyph horiz-adv-x="387" d="M205 -7q-61 0 -95.5 42t-34.5 120q0 65 24 112t65.5 72.5t93.5 25.5q18 0 31.5 -2.5t19.5 -4.5l-6 -21q-18 8 -49 8q-37 0 -70 -18.5t-54 -60t-24 -111.5q15 22 47.5 37t64.5 15q45 0 77 -27.5t32 -75.5q0 -49 -34.5 -80t-87.5 -31zM204 12q40 0 66 25.5t26 66.5 q0 38 -22.5 61.5t-63.5 23.5q-31 0 -59 -15t-45 -42q2 -28 11.5 -55.5t30.5 -46t56 -18.5z" />
<glyph horiz-adv-x="349" d="M137 0h-33q3 45 19 92.5t40.5 93t53 83.5t56.5 65h-83q-38 0 -72 -2t-63 -5l6 31h234l4 -4v-13q-39 -43 -75 -100t-59.5 -119.5t-27.5 -121.5z" />
<glyph horiz-adv-x="402" d="M199 -7q-53 0 -88.5 24.5t-35.5 61.5q0 34 30 60t72 37q-34 16 -62 41t-28 59q0 40 35 64.5t82 24.5q45 0 78.5 -23.5t33.5 -61.5q0 -31 -26.5 -57t-68.5 -39q42 -15 74 -40t32 -60q0 -39 -36 -65t-92 -26zM203 345q-33 0 -59.5 -18t-26.5 -47q0 -31 27.5 -54.5 t58.5 -35.5q35 14 58.5 38t23.5 52q0 29 -24 47t-58 18zM199 12q40 0 69 20t29 51q1 30 -29 50t-74 36q-35 -13 -61.5 -36t-26.5 -53q0 -29 27 -48.5t66 -19.5z" />
<glyph horiz-adv-x="387" d="M60 251q0 52 34.5 83t87.5 31q61 0 95.5 -42t34.5 -120q0 -65 -24 -112t-65 -72.5t-94 -25.5q-18 0 -31.5 2.5t-19.5 4.5l6 21q18 -8 49 -8q38 0 71 18t54 57t23 104q-15 -22 -47.5 -37t-64.5 -15q-45 0 -77 30.5t-32 80.5zM91 251q0 -40 23 -66.5t63 -26.5q32 0 60 15 t44 42q-1 30 -10.5 60t-31 50.5t-57.5 20.5q-39 0 -65 -25.5t-26 -69.5z" />
<glyph horiz-adv-x="614" d="M539 332q0 -115 -33 -191t-87.5 -113.5t-119.5 -37.5q-66 0 -116.5 38.5t-79 112t-28.5 177.5q0 115 33 190.5t87.5 113.5t119.5 38q66 0 116.5 -38t79 -111.5t28.5 -178.5zM107 326q0 -89 23 -159.5t67 -111.5t107 -41q57 0 103 35t73 104.5t27 171.5q0 89 -23 159 t-66.5 111t-107.5 41q-57 0 -103 -35t-73 -104t-27 -171z" />
<glyph horiz-adv-x="350" d="M210 0h-30v623l-123 -53l-7 25l155 65l5 -2v-658z" />
<glyph horiz-adv-x="525" d="M435 0h-384l-6 16q100 92 181 173t128.5 155.5t47.5 146.5q0 68 -44 106.5t-117 38.5q-51 0 -94.5 -17.5t-83.5 -43.5l-9 30q33 20 84.5 37.5t106.5 17.5q83 0 136 -45t53 -126q0 -73 -44.5 -145.5t-122.5 -151t-179 -169.5h129q59 0 116 3.5t112 10.5z" />
<glyph horiz-adv-x="500" d="M430 173q0 -79 -63 -131t-181 -52q-42 0 -78.5 7t-67.5 17l5 27q37 -13 72.5 -19.5t72.5 -6.5q69 0 115.5 21.5t69.5 57t23 77.5q0 51 -30.5 82t-78 45t-99.5 14q-35 0 -64 -7v24q123 27 182.5 79.5t59.5 112.5q0 51 -39 83t-108 32q-48 0 -85.5 -14t-74.5 -34l-5 26 q25 16 71 31t100 15q75 0 124 -36t49 -101q0 -55 -43 -106t-144 -84q103 -4 160 -44t57 -116z" />
<glyph horiz-adv-x="570" d="M385 0h-30v164h-307l-6 15l322 481l21 -10v-459q53 4 105 10l-10 -37h-95v-164zM355 600l-276 -414l183 1q46 0 93 2v411z" />
<glyph horiz-adv-x="520" d="M440 195q0 -59 -29 -105.5t-82 -73t-125 -26.5q-40 0 -79 7.5t-65 16.5l5 24q32 -10 72.5 -17t73.5 -7q88 0 142.5 48.5t54.5 129.5q0 55 -25 90.5t-66 53t-90 17.5q-28 0 -64.5 -6t-57.5 -17l-10 8v312h171q41 0 83 2.5t80 7.5l-9 -33h-295v-269q23 9 53.5 14t56.5 5 q94 0 149.5 -49.5t55.5 -132.5z" />
<glyph horiz-adv-x="541" d="M284 -10q-99 0 -154 76t-55 215q0 119 38.5 203.5t105.5 130t152 45.5q31 0 53 -4.5t31 -9.5l-9 -25q-32 15 -83 15q-67 0 -125 -36.5t-94 -118t-38 -215.5h1q34 53 87.5 79t104.5 26t92.5 -22t65.5 -63.5t24 -98.5t-25 -101.5t-69.5 -70t-102.5 -25.5zM283 14 q72 0 119 47t47 126q0 72 -41 116t-112 44q-50 0 -101 -26t-86 -87q3 -60 22.5 -110t57 -80t94.5 -30z" />
<glyph horiz-adv-x="503" d="M173 0h-32q5 84 33 173.5t69 175t87.5 157.5t89.5 121h-137q-58 0 -115.5 -3.5t-112.5 -10.5l10 37h383l5 -5v-12q-47 -55 -94 -128.5t-87 -158t-66.5 -173t-32.5 -173.5z" />
<glyph horiz-adv-x="554" d="M75 142q0 44 24.5 79.5t63 62t80.5 41.5q-38 19 -72.5 46t-55.5 61t-21 74q0 46 26.5 80.5t69 54t91.5 19.5q48 0 89 -19t65.5 -52.5t24.5 -78.5q0 -58 -44.5 -107t-112.5 -75q45 -18 85.5 -43t65.5 -58.5t25 -78.5t-27 -80.5t-73 -56.5t-104 -21q-57 0 -102 20 t-71.5 54.5t-26.5 77.5zM126 511q0 -39 22 -72.5t56 -59t71 -41.5q65 26 109 72t44 102q0 36 -19.5 64t-53 44t-74.5 16t-76.5 -16t-57 -44.5t-21.5 -64.5zM107 142q0 -36 22 -65t60 -46t86 -17q49 0 87.5 18t61.5 49t23 69q1 39 -22.5 68t-64.5 52.5t-93 44.5 q-39 -16 -76 -41.5t-60.5 -58.5t-23.5 -73z" />
<glyph horiz-adv-x="541" d="M466 367q0 -117 -38.5 -201.5t-105.5 -130t-153 -45.5q-30 0 -52 5t-31 9l9 25q32 -15 83 -15q67 0 125 34.5t94 111.5t38 204h-1q-34 -53 -87.5 -79t-104.5 -26t-92 23.5t-65.5 67.5t-24.5 104q0 61 25 107t69 72.5t101 26.5q98 0 154.5 -76.5t56.5 -216.5zM92 453 q0 -76 41 -123t112 -47q50 0 101.5 26t85.5 87q-3 66 -22.5 120.5t-56.5 87t-95 32.5q-48 0 -85.5 -22.5t-59 -63.5t-21.5 -97z" />
<glyph horiz-adv-x="436" d="M361 474q0 -63 -20.5 -105t-54 -63t-73.5 -21q-61 0 -99.5 47t-38.5 135q0 95 43.5 142.5t104.5 47.5t99.5 -47.5t38.5 -135.5zM106 472q0 -72 28.5 -120t81.5 -48q49 0 81 43t32 122q0 73 -28 120.5t-82 47.5q-48 0 -80.5 -42t-32.5 -123z" />
<glyph horiz-adv-x="297" d="M157 292h-30v337l-72 -28l-5 19l104 37l3 -2v-363z" />
<glyph horiz-adv-x="369" d="M283 292h-234l-4 16q56 46 103 89t75 83.5t28 78.5q0 35 -25 55.5t-66 20.5q-29 0 -55 -9.5t-49 -23.5l-6 25q22 12 53.5 21t63.5 9q51 0 84 -25.5t33 -71.5q0 -39 -27 -78.5t-74.5 -80.5t-107.5 -86h79q35 0 69 2t66 6z" />
<glyph horiz-adv-x="348" d="M278 387q0 -44 -39 -73t-110 -29q-25 0 -47.5 3.5t-41.5 9.5l4 21q21 -7 41.5 -10.5t42.5 -3.5q57 0 87 24.5t30 58.5q0 26 -17 42t-44 23.5t-56 7.5q-11 0 -21 -1t-18 -3v16q73 15 106.5 43.5t33.5 57.5q0 27 -22.5 44t-61.5 17q-25 0 -47.5 -6.5t-45.5 -18.5l-3 21 q17 10 45 18t60 8q47 0 77 -21t30 -57q0 -31 -27.5 -58.5t-87.5 -44.5q62 -3 97 -25t35 -64z" />
<glyph horiz-adv-x="398" d="M257 292h-30v85h-181l-4 14l193 266l22 -5v-249q32 2 61 5l-6 -31h-55v-85zM181 400q22 0 46 1v213l-157 -214h111z" />
<glyph horiz-adv-x="374" d="M294 399q0 -50 -40 -82t-106 -32q-25 0 -48 4t-40 9l4 19q19 -5 42 -9t44 -4q50 0 81 25.5t31 68.5t-30.5 63t-71.5 20q-16 0 -38 -3t-35 -9l-6 4v177h107q23 0 48.5 1t50.5 4l-6 -29h-178v-137q31 10 68 10q56 0 89.5 -27t33.5 -73z" />
<glyph horiz-adv-x="387" d="M205 285q-61 0 -95.5 42t-34.5 120q0 65 24 112t65.5 72.5t93.5 25.5q18 0 31.5 -2.5t19.5 -4.5l-6 -21q-18 8 -49 8q-37 0 -70 -18.5t-54 -60t-24 -111.5q15 22 47.5 37t64.5 15q45 0 77 -27.5t32 -75.5q0 -49 -34.5 -80t-87.5 -31zM204 304q40 0 66 25.5t26 66.5 q0 38 -22.5 61.5t-63.5 23.5q-31 0 -59 -15t-45 -42q2 -28 11.5 -55.5t30.5 -46t56 -18.5z" />
<glyph horiz-adv-x="349" d="M137 292h-33q3 45 19 92.5t40.5 93t53 83.5t56.5 65h-83q-38 0 -72 -2t-63 -5l6 31h234l4 -4v-13q-39 -43 -75 -100t-59.5 -119.5t-27.5 -121.5z" />
<glyph horiz-adv-x="402" d="M199 285q-53 0 -88.5 24.5t-35.5 61.5q0 34 30 60t72 37q-34 16 -62 41t-28 59q0 40 35 64.5t82 24.5q45 0 78.5 -23.5t33.5 -61.5q0 -31 -26.5 -57t-68.5 -39q42 -15 74 -40t32 -60q0 -39 -36 -65t-92 -26zM203 637q-33 0 -59.5 -18t-26.5 -47q0 -31 27.5 -54.5 t58.5 -35.5q35 14 58.5 38t23.5 52q0 29 -24 47t-58 18zM199 304q40 0 69 20t29 51q1 30 -29 50t-74 36q-35 -13 -61.5 -36t-26.5 -53q0 -29 27 -48.5t66 -19.5z" />
<glyph horiz-adv-x="387" d="M60 543q0 52 34.5 83t87.5 31q61 0 95.5 -42t34.5 -120q0 -65 -24 -112t-65 -72.5t-94 -25.5q-18 0 -31.5 2.5t-19.5 4.5l6 21q18 -8 49 -8q38 0 71 18t54 57t23 104q-15 -22 -47.5 -37t-64.5 -15q-45 0 -77 30.5t-32 80.5zM91 543q0 -40 23 -66.5t63 -26.5q32 0 60 15 t44 42q-1 30 -10.5 60t-31 50.5t-57.5 20.5q-39 0 -65 -25.5t-26 -69.5z" />
<glyph horiz-adv-x="534" d="M459 257q0 -89 -27.5 -148.5t-73 -89t-99.5 -29.5q-82 0 -133 66t-51 187q0 90 27.5 149t73 88.5t99.5 29.5q81 0 132.5 -65.5t51.5 -187.5zM107 251q0 -67 18 -120.5t53 -85t86 -31.5q68 0 115.5 60t47.5 176q0 67 -18 120.5t-53 84.5t-86 31q-68 0 -115.5 -59.5 t-47.5 -175.5z" />
<glyph horiz-adv-x="350" d="M210 0h-30v473l-123 -53l-7 25l155 65l5 -2v-508z" />
<glyph horiz-adv-x="492" d="M402 0h-351l-6 16q87 70 157 131.5t111 118t41 111.5q0 51 -36 80t-91 29q-52 0 -93 -23.5t-79 -57.5l-9 30q32 28 80.5 51.5t104.5 23.5q43 0 78 -16t56 -45.5t21 -71.5q0 -57 -38 -115t-104.5 -117.5t-153.5 -121.5h94q59 0 116 3.5t112 10.5z" />
<glyph horiz-adv-x="500" d="M430 23q0 -79 -63 -131t-181 -52q-42 0 -78.5 7t-67.5 17l5 27q37 -13 72.5 -19.5t72.5 -6.5q69 0 115.5 21.5t69.5 57t23 77.5q0 51 -30.5 82t-78 45t-99.5 14q-35 0 -64 -7v24q123 27 182.5 79.5t59.5 112.5q0 51 -39 83t-108 32q-48 0 -85.5 -14t-74.5 -34l-5 26 q25 16 71 31t100 15q75 0 124 -36t49 -101q0 -55 -43 -106t-144 -84q103 -4 160 -44t57 -116z" />
<glyph horiz-adv-x="579" d="M394 -185h-30v185h-316l-6 15l331 495l21 -10v-473q53 4 105 10l-10 -37h-95v-185zM364 450l-285 -428l192 1q46 0 93 2v425z" />
<glyph horiz-adv-x="520" d="M440 45q0 -59 -29 -105.5t-82 -73t-125 -26.5q-40 0 -79 7.5t-65 16.5l5 24q32 -10 72.5 -17t73.5 -7q88 0 142.5 48.5t54.5 129.5q0 55 -25 90.5t-66 53t-90 17.5q-28 0 -64.5 -6t-57.5 -17l-10 8v312h171q41 0 83 2.5t80 7.5l-9 -33h-295v-269q23 9 53.5 14t56.5 5 q94 0 149.5 -49.5t55.5 -132.5z" />
<glyph horiz-adv-x="541" d="M284 -10q-99 0 -154 76t-55 215q0 119 38.5 203.5t105.5 130t152 45.5q31 0 53 -4.5t31 -9.5l-9 -25q-32 15 -83 15q-67 0 -125 -36.5t-94 -118t-38 -215.5h1q34 53 87.5 79t104.5 26t92.5 -22t65.5 -63.5t24 -98.5t-25 -101.5t-69.5 -70t-102.5 -25.5zM283 14 q72 0 119 47t47 126q0 72 -41 116t-112 44q-50 0 -101 -26t-86 -87q3 -60 22.5 -110t57 -80t94.5 -30z" />
<glyph horiz-adv-x="503" d="M173 -150h-32q5 84 33 173.5t69 175t87.5 157.5t89.5 121h-137q-58 0 -115.5 -3.5t-112.5 -10.5l10 37h383l5 -5v-12q-47 -55 -94 -128.5t-87 -158t-66.5 -173t-32.5 -173.5z" />
<glyph horiz-adv-x="554" d="M75 142q0 44 24.5 79.5t63 62t80.5 41.5q-38 19 -72.5 46t-55.5 61t-21 74q0 46 26.5 80.5t69 54t91.5 19.5q48 0 89 -19t65.5 -52.5t24.5 -78.5q0 -58 -44.5 -107t-112.5 -75q45 -18 85.5 -43t65.5 -58.5t25 -78.5t-27 -80.5t-73 -56.5t-104 -21q-57 0 -102 20 t-71.5 54.5t-26.5 77.5zM126 511q0 -39 22 -72.5t56 -59t71 -41.5q65 26 109 72t44 102q0 36 -19.5 64t-53 44t-74.5 16t-76.5 -16t-57 -44.5t-21.5 -64.5zM107 142q0 -36 22 -65t60 -46t86 -17q49 0 87.5 18t61.5 49t23 69q1 39 -22.5 68t-64.5 52.5t-93 44.5 q-39 -16 -76 -41.5t-60.5 -58.5t-23.5 -73z" />
<glyph horiz-adv-x="541" d="M466 217q0 -116 -38.5 -201t-105.5 -130.5t-153 -45.5q-30 0 -52 5t-31 9l9 25q32 -15 83 -15q67 0 125 34.5t94 111.5t38 204h-1q-34 -53 -87.5 -79t-104.5 -26t-92 23.5t-65.5 67.5t-24.5 104q0 61 25 107t69 72.5t101 26.5q98 0 154.5 -76.5t56.5 -216.5zM92 303 q0 -76 41 -123t112 -47q50 0 101.5 26t85.5 87q-3 66 -22.5 120.5t-56.5 87t-95 32.5q-48 0 -85.5 -22.5t-59 -63.5t-21.5 -97z" />
<glyph horiz-adv-x="258" d="M143 123h-23v120.5t-0.5 140.5t-2 142t-4.5 124l37 10q2 -28 2.5 -69t0.5 -88q0 -92 -2.5 -187t-7.5 -193zM158 1q0 -17 -7 -30.5t-23 -13.5q-13 0 -20.5 11t-7.5 26q0 17 8.5 30t22.5 13q13 0 20 -10t7 -26z" />
<glyph horiz-adv-x="258" d="M100 649q0 17 7 30.5t23 13.5q14 0 21 -11t7 -26q0 -17 -8.5 -30t-22.5 -13q-13 0 -20 10t-7 26zM115 527h25v-120.5v-140.5t1 -141.5t4 -124.5l-37 -10q-1 29 -2 70t-1 87q0 92 3 187.5t7 192.5z" />
<glyph horiz-adv-x="500" d="M239 123h-30q-2 13 -3.5 36.5t-1.5 33.5q0 36 18.5 67t46 60t55 58.5t46 61.5t18.5 70q0 39 -20.5 66t-53 41.5t-69.5 14.5q-43 0 -88.5 -19.5t-80.5 -55.5l-16 19q36 37 84.5 60.5t105.5 23.5q49 0 87 -18.5t60.5 -52t22.5 -80.5q0 -44 -18.5 -78t-46 -63t-55 -56.5 t-46 -58.5t-18.5 -69q0 -10 1 -29t2 -32zM255 1q0 -17 -7 -30.5t-23 -13.5q-13 0 -20.5 11t-7.5 26q0 17 8.5 30t22.5 13q13 0 20 -10t7 -26z" />
<glyph horiz-adv-x="500" d="M242 649q0 17 7 30.5t23 13.5q14 0 21 -11t7 -26q0 -17 -8.5 -30t-22.5 -13q-13 0 -20 10t-7 26zM258 527h30q2 -13 3.5 -36.5t1.5 -33.5q0 -36 -18.5 -67t-46 -60t-55 -58.5t-46 -61.5t-18.5 -70t20.5 -65.5t53 -42t69.5 -14.5q43 0 89 19.5t80 55.5l16 -19 q-36 -37 -84.5 -60.5t-105.5 -23.5q-48 0 -86.5 18.5t-61 52.5t-22.5 80q0 44 18.5 78t46 63t55 56.5t46 58.5t18.5 69q0 10 -1 29t-2 32z" />
<glyph horiz-adv-x="272" d="M128 208q-13 0 -21 9.5t-8 22.5q0 14 9 25t23 11t21 -8.5t7 -22.5q0 -13 -7.5 -25t-23.5 -12z" />
<glyph horiz-adv-x="392" d="M292 270q0 -45 -30 -73.5t-74 -28.5q-37 0 -62.5 22t-25.5 62q0 44 30.5 73t75.5 29q37 0 61.5 -21.5t24.5 -62.5z" />
<glyph horiz-adv-x="392" d="M178 414l12 112l-92 -66l-18 31l105 46l-105 46l18 31l92 -66l-12 112h36l-12 -113l92 67l18 -31l-103 -46l103 -46l-18 -31l-92 67l12 -113h-36z" />
<glyph horiz-adv-x="354" d="M109 -10l-27 7l-2 3l165 660l27 -7l2 -3z" />
<glyph horiz-adv-x="354" d="M245 -10l-165 660l2 3l27 7l165 -660l-2 -3z" />
<glyph horiz-adv-x="703" d="M607 193h-164l-50 -203l-22 1l-6 6l48 196h-180l-50 -203l-22 1l-6 6l48 196h-147l-6 5l2 20h157l53 215h-162l-6 5l2 20h172l50 202l22 -1l6 -6l-48 -195h180l50 202l22 -1l6 -6l-48 -195h139l6 -5l-2 -20h-149l-53 -215h154l6 -5zM239 218h180l53 215h-180z" />
<glyph horiz-adv-x="603" d="M507 144h-126l-38 -154l-22 1l-6 6l36 147h-150l-38 -154l-22 1l-6 6l36 147h-115l-6 5l2 20h125l41 165h-118l-6 5l2 20h128l37 151l22 -1l6 -6l-35 -144h150l37 151l22 -1l6 -6l-35 -144h113l6 -5l-2 -20h-124l-40 -165h116l6 -5zM207 169h150l41 165h-151z" />
<glyph horiz-adv-x="301" d="M269 -49q-108 74 -156 171t-48 200q0 104 48 202t156 171l12 -19q-99 -79 -137.5 -170.5t-38.5 -183.5q0 -91 38.5 -182t137.5 -170z" />
<glyph horiz-adv-x="301" d="M236 322q0 -103 -48 -200t-156 -171l-12 19q99 79 137.5 170t38.5 182q0 92 -38.5 183.5t-137.5 170.5l12 19q108 -73 156 -171t48 -202z" />
<glyph horiz-adv-x="289" d="M158 221q0 34 -24.5 57t-83.5 27v30q57 5 82.5 26.5t25.5 61.5q0 28 -9 53.5t-18.5 52.5t-9.5 59q0 55 35.5 81t109.5 26l1 -24q-61 -1 -87.5 -21t-26.5 -60q0 -29 9.5 -57.5t18.5 -56.5t9 -56q0 -43 -26.5 -67.5t-66.5 -33.5q37 -8 65 -33t28 -65q0 -24 -9 -52.5 t-18.5 -58.5t-9.5 -59q0 -40 26.5 -60.5t87.5 -21.5l-1 -24q-76 0 -110.5 26.5t-34.5 79.5q0 33 9.5 62t18.5 56t9 52z" />
<glyph horiz-adv-x="289" d="M239 305l-108 -84q0 -25 9.5 -52t18.5 -56t9 -62q0 -53 -34.5 -79.5t-110.5 -26.5l-1 24q62 1 88 21.5t26 60.5q0 29 -9 59t-18.5 58.5t-9.5 52.5q0 40 28 65t65 33q-40 9 -66.5 33.5t-26.5 67.5q0 28 9.5 56t18.5 56.5t9 57.5q0 40 -26 60t-88 21l1 24q74 0 109.5 -26 t35.5 -81q0 -32 -9 -59t-18.5 -52.5t-9.5 -53.5q0 -40 25.5 -61.5t82.5 -26.5v-30z" />
<glyph horiz-adv-x="298" d="M80 695h176v-24h-143v-693h143v-24h-176v741z" />
<glyph horiz-adv-x="298" d="M218 695v-741h-176v24h143v693h-143v24h176z" />
<glyph horiz-adv-x="321" d="M30 330v26h261v-26h-261z" />
<glyph horiz-adv-x="453" d="M30 330v26h393v-26h-393z" />
<glyph horiz-adv-x="695" d="M30 330v26h635v-26h-635z" />
<glyph horiz-adv-x="168" d="M93 16q0 -32 -18 -82.5t-55 -92.5l-10 9q25 36 37 71t15 69h-1q-29 6 -29 33q0 15 8.5 25t22.5 10t22 -11.5t8 -30.5z" />
<glyph horiz-adv-x="315" d="M133 16q0 -32 -18 -82.5t-55 -92.5l-10 9q25 36 37 71t15 69h-1q-29 6 -29 33q0 15 8.5 25t22.5 10t22 -11.5t8 -30.5zM240 16q0 -32 -18 -82.5t-55 -92.5l-10 9q25 36 37 71t15 69h-1q-29 6 -29 33q0 15 8.5 25t22.5 10t22 -11.5t8 -30.5z" />
<glyph horiz-adv-x="275" d="M75 485q0 32 18 82.5t55 92.5l10 -9q-25 -36 -37 -71t-15 -69h1q29 -6 29 -33q0 -15 -8.5 -25t-22.5 -10t-22 11.5t-8 30.5zM182 485q0 32 18 82.5t55 92.5l10 -9q-25 -36 -37 -71t-15 -69h1q29 -6 29 -33q0 -15 -8.5 -25t-22.5 -10t-22 11.5t-8 30.5z" />
<glyph horiz-adv-x="275" d="M200 618q0 -32 -18 -82.5t-55 -92.5l-10 9q25 36 37 71t15 69h-1q-29 6 -29 33q0 15 8.5 25t22.5 10t22 -11.5t8 -30.5zM93 618q0 -32 -18 -82.5t-55 -92.5l-10 9q25 36 37 71t15 69h-1q-29 6 -29 33q0 15 8.5 25t22.5 10t22 -11.5t8 -30.5z" />
<glyph horiz-adv-x="168" d="M75 485q0 32 18 82.5t55 92.5l10 -9q-25 -36 -37 -71t-15 -69h1q29 -6 29 -33q0 -15 -8.5 -25t-22.5 -10t-22 11.5t-8 30.5z" />
<glyph horiz-adv-x="168" d="M93 618q0 -32 -18 -82.5t-55 -92.5l-10 9q25 36 37 71t15 69h-1q-29 6 -29 33q0 15 8.5 25t22.5 10t22 -11.5t8 -30.5z" />
<glyph horiz-adv-x="464" d="M226 362v8q42 44 82.5 91.5t84.5 107.5l11 -7q-29 -49 -67 -101.5t-72 -94.5q34 -42 72 -94.5t67 -101.5l-11 -7q-44 60 -84.5 108t-82.5 91zM60 362v8q42 44 82.5 91.5t84.5 107.5l11 -7q-29 -49 -67 -101.5t-72 -94.5q34 -42 72 -94.5t67 -101.5l-11 -7 q-44 60 -84.5 108t-82.5 91z" />
<glyph horiz-adv-x="464" d="M238 362q-42 -43 -82.5 -91t-84.5 -108l-11 7q29 49 67 101.5t72 94.5q-34 42 -72 94.5t-67 101.5l11 7q44 -60 84.5 -107.5t82.5 -91.5v-8zM404 362q-42 -43 -82.5 -91t-84.5 -108l-11 7q29 49 67 101.5t72 94.5q-34 42 -72 94.5t-67 101.5l11 7q44 -60 84.5 -107.5 t82.5 -91.5v-8z" />
<glyph horiz-adv-x="298" d="M60 359v8q42 44 82.5 91.5t84.5 107.5l11 -7q-29 -49 -67 -101.5t-72 -94.5q34 -42 72 -94.5t67 -101.5l-11 -7q-44 60 -84.5 108t-82.5 91z" />
<glyph horiz-adv-x="298" d="M238 359q-42 -43 -82.5 -91t-84.5 -108l-11 7q29 49 67 101.5t72 94.5q-34 42 -72 94.5t-67 101.5l11 7q44 -60 84.5 -107.5t82.5 -91.5v-8z" />
<glyph horiz-adv-x="316" d="M106 660l-13 -234h-20l-13 234h46zM256 660l-13 -234h-20l-13 234h46z" />
<glyph horiz-adv-x="186" d="M116 660l-13 -234h-20l-13 234h46z" />
<glyph horiz-adv-x="464" d="M286 -119l-30 -3v113q-91 5 -141 70.5t-50 175.5q0 88 29 147t77 90.5t105 34.5v110l30 3v-112q57 -4 97 -33l-6 -35q-17 16 -47.5 29.5t-71.5 13.5q-49 0 -90 -26t-66 -79t-25 -133q0 -112 48.5 -172t130.5 -60q37 0 70.5 11t57.5 26l-2 -31q-20 -10 -50 -19.5 t-66 -11.5v-109z" />
<glyph horiz-adv-x="543" d="M457 66l-81 82q-21 -21 -50 -33.5t-64 -12.5q-31 0 -57 9.5t-47 25.5l-71 -72l-21 21l71 71q-39 47 -39 110q0 68 44 119l-77 77l21 21q20 -20 40 -40.5t37 -37.5q21 17 47.5 26.5t57.5 9.5q32 0 58.5 -10.5t47.5 -28.5l80 81l21 -21l-82 -82q37 -46 37 -106 q0 -59 -35 -106q23 -23 45.5 -44t37.5 -36zM128 270q0 -56 35.5 -97t100.5 -41q44 0 74.5 20.5t46 53t15.5 67.5q0 36 -16 67.5t-46 51.5t-72 20t-73 -20t-48 -52t-17 -70z" />
<glyph horiz-adv-x="461" d="M214 -122v112q-41 0 -80.5 10.5t-68.5 25.5l5 35q20 -14 61.5 -30.5t90.5 -16.5q48 0 79.5 18t47 46.5t15.5 61.5q0 41 -20.5 71t-52.5 54.5t-68 47.5t-68 49.5t-52.5 60t-20.5 79.5q0 60 37.5 102.5t104.5 52.5v112l30 3v-112h7q34 0 67 -7.5t60 -21.5l-6 -35 q-14 11 -48.5 25.5t-78.5 14.5q-69 0 -105 -38t-36 -89q0 -41 20.5 -72t52.5 -56.5t68 -49.5t68 -50.5t52.5 -59.5t20.5 -77q0 -60 -40.5 -102.5t-111.5 -50.5v-110z" />
<glyph horiz-adv-x="564" d="M55 265l3 23h69q-1 18 -1 37t1 37h-57l3 23h56q9 81 41 143t84.5 97t124.5 35q35 0 72 -8.5t66 -25.5l-11 -34q-27 21 -62.5 32.5t-72.5 11.5q-91 0 -145 -69t-65 -182h275l-2 -23h-274q-1 -18 -1 -37t2 -37h260l-2 -23h-256q13 -112 68.5 -181t146.5 -69q38 0 74 11 t61 31l6 -28q-29 -19 -68 -29t-77 -10q-71 0 -123 34.5t-83 96t-39 144.5h-74z" />
<glyph horiz-adv-x="522" d="M473 307l-190 3l-27 -260q-3 -30 -10.5 -64.5t-24.5 -66t-47 -51t-77 -19.5q-25 0 -55.5 6.5t-56.5 19.5l16 28q9 -7 38 -18.5t61 -11.5q44 0 70 25.5t39.5 67t17.5 87.5l25 258l-91 1l3 15l90 5q2 19 5 52t6.5 65.5t5.5 50.5q11 81 54 120.5t110 39.5q58 0 102 -26 l-15 -36q-16 15 -40 26.5t-60 11.5q-51 0 -80 -31t-41 -108q-4 -25 -7.5 -56t-5.5 -60.5t-4 -48.5h193z" />
<glyph horiz-adv-x="511" d="M426 320l-183 3l-6 -83q-6 -82 -35.5 -142t-73.5 -88q34 -17 74 -39.5t85.5 -39t95.5 -16.5q26 0 51.5 4.5t38.5 11.5l-12 -32q-11 -4 -33.5 -7t-41.5 -3q-47 0 -94.5 16.5t-94 42t-89.5 52.5q-23 -10 -47 -10q-21 0 -28.5 6t-7.5 14q0 11 10.5 16.5t23.5 5.5 q19 0 46 -11q32 17 64 72.5t38 145.5l6 84l-108 2v17l109 5h1q6 76 14.5 139.5t27 110.5t53.5 72.5t92 25.5q26 0 47.5 -5.5t39.5 -13.5l-11 -38q-16 13 -40 22.5t-54 9.5q-46 0 -72 -23.5t-38.5 -66.5t-18 -102.5t-11.5 -130.5h184z" />
<glyph horiz-adv-x="517" d="M71 114v23h171v74h-171v23h160l-206 416l29 10l204 -410h1l204 410l29 -10l-207 -416h156v-23h-167v-74h167v-23h-167v-114h-32v114h-171z" />
<glyph horiz-adv-x="464" d="M286 -119l-30 -3v113q-91 5 -141 70.5t-50 175.5q0 88 29 147t77 90.5t105 34.5v110l30 3v-112q57 -4 97 -33l-6 -35q-17 16 -47.5 29.5t-71.5 13.5q-49 0 -90 -26t-66 -79t-25 -133q0 -112 48.5 -172t130.5 -60q37 0 70.5 11t57.5 26l-2 -31q-20 -10 -50 -19.5 t-66 -11.5v-109z" />
<glyph horiz-adv-x="543" d="M457 41l-81 82q-21 -21 -50 -33.5t-64 -12.5q-31 0 -57 9.5t-47 25.5l-71 -72l-21 21l71 71q-39 47 -39 110q0 68 44 119l-77 77l21 21q20 -20 40 -40.5t37 -37.5q21 17 47.5 26.5t57.5 9.5q32 0 58.5 -10.5t47.5 -28.5l80 81l21 -21l-82 -82q37 -46 37 -106 q0 -59 -35 -106q23 -23 45.5 -44t37.5 -36zM128 245q0 -56 35.5 -97t100.5 -41q44 0 74.5 20.5t46 53t15.5 67.5q0 36 -16 67.5t-46 51.5t-72 20t-73 -20t-48 -52t-17 -70z" />
<glyph horiz-adv-x="409" d="M180 -122v112q-37 2 -70.5 12t-59.5 24l6 35q21 -16 58.5 -31.5t85.5 -15.5q63 0 95 29.5t32 69.5q0 33 -18.5 55.5t-48 39.5t-61.5 33t-62 34t-48.5 43.5t-18.5 62.5q0 49 34.5 84t95.5 43v111l30 3v-112h4q34 0 64 -7.5t54 -21.5l-6 -35q-17 14 -47.5 27t-72.5 13 q-58 0 -91 -29.5t-33 -70.5q0 -30 15.5 -51.5t41 -38t54.5 -31.5q35 -18 68.5 -37.5t55.5 -45.5t22 -66q0 -52 -40 -86.5t-109 -38.5v-110z" />
<glyph horiz-adv-x="505" d="M367 191h-225q11 -86 57.5 -131t117.5 -45q37 0 70.5 11t57.5 26l-2 -31q-22 -11 -55.5 -21t-73.5 -10q-89 0 -142 53t-64 148h-68l3 23h64q-1 11 -1 23q0 27 3 51h-61l3 23h61q13 67 45.5 111t78 66t97.5 22q65 0 111 -33l-6 -35q-17 16 -47.5 29.5t-71.5 13.5 q-63 0 -112.5 -43t-63.5 -131h235l-3 -23h-235q-2 -20 -2 -41q0 -17 1 -33h231z" />
<glyph horiz-adv-x="515" d="M457 237l-180 3l-17 -159q-9 -86 -48 -138t-111 -52q-25 0 -55 6.5t-56 19.5l16 28q9 -7 38 -18.5t62 -11.5q44 0 69.5 23.5t37.5 60t16 75.5l17 166l-111 2l3 15l110 5q1 9 2.5 25t3 32.5t2.5 24.5q11 86 55.5 126t111.5 40q58 0 102 -26l-15 -36q-16 15 -40 26.5 t-61 11.5q-58 0 -85.5 -35t-37.5 -109q-2 -17 -4 -35.5t-4 -44.5h183z" />
<glyph horiz-adv-x="491" d="M418 230l-189 3l-5 -29q-13 -78 -38 -126.5t-61 -69.5q33 -17 72.5 -39t84 -38t93.5 -16q26 0 51.5 4.5t38.5 11.5l-12 -32q-11 -4 -33.5 -7t-41.5 -3q-46 0 -93 16t-93 41t-89 52q-22 -8 -47 -8q-22 0 -30.5 5.5t-8.5 14.5q0 11 10.5 16.5t23.5 5.5q11 0 22.5 -3 t23.5 -8q31 14 58.5 57t39.5 125l5 30l-103 2v17l105 5h1q4 26 10.5 59t18.5 67t32 63t52 46.5t78 17.5q26 0 47.5 -5.5t39.5 -13.5l-11 -38q-16 13 -39.5 22.5t-52.5 9.5q-45 0 -72 -24t-41.5 -61t-21 -75.5t-11.5 -67.5h188z" />
<glyph horiz-adv-x="434" d="M42 108v23h159v74h-159v23h145l-162 272l26 10l165 -282h3l165 282l25 -10l-162 -272h145v-23h-159v-74h159v-23h-159v-108h-32v108h-159z" />
<glyph d="M489 312h-175v-182h-28v182h-181v23q32 1 80 1.5t101 0.5v183h28v-183q51 1 97.5 1h78.5z" />
<glyph d="M489 312h-384v23q33 1 83.5 1.5t107 1t108 0.5h86.5z" />
<glyph d="M464 140l-163 166l-159 -158l-19 19l159 159l-165 168l17 16q30 -28 74.5 -72.5t92.5 -93.5l159 159l19 -19l-159 -159q47 -47 90.5 -91.5t72.5 -73.5l-1 -6z" />
<glyph d="M333 491q0 -16 -8 -29.5t-26 -13.5q-15 0 -23.5 11.5t-8.5 27.5q0 17 9.5 30t25.5 13q15 0 23 -11t8 -28zM489 312h-384v23q33 1 83.5 1.5t107 1t108 0.5h86.5zM333 164q0 -16 -8 -29.5t-26 -13.5q-15 0 -23.5 11.5t-8.5 27.5q0 17 9.5 30t25.5 13q15 0 23 -11t8 -28z " />
<glyph d="M489 413h-384v23q33 1 83.5 1.5t107 1t108 0.5h86.5zM489 211h-384v23q33 1 83.5 1.5t107 1t108 0.5h86.5z" />
<glyph d="M208 116l-18 13l45 82h-130v23q26 1 64 1.5t80 0.5l98 177h-242v23q29 1 71 1.5t90.5 0.5t94.5 1l52 93l5 3l18 -13l-46 -83h100l-1 -26h-113l-98 -177q59 1 116.5 1h95.5l-1 -26h-225l-51 -92z" />
<glyph d="M112 133v30l335 165l-334 160v30q34 -15 83.5 -39t104 -50.5t104 -51t83.5 -41.5l1 -16z" />
<glyph d="M488 133l-377 187l1 16q34 17 83.5 41.5t104 51t104 50.5t83.5 39v-30l-334 -160l335 -165v-30z" />
<glyph d="M116 236v28l338 122l-337 123v28q63 -21 132.5 -46.5t134 -49.5t110.5 -43v-24zM489 115h-384v23q33 1 83.5 1.5t107 1t108 0.5h86.5z" />
<glyph d="M483 537v-28l-338 -123l337 -122v-28q-62 22 -132 47t-134.5 49.5t-110.5 42.5v24zM489 115h-384v23q33 1 83.5 1.5t107 1t108 0.5h86.5z" />
<glyph d="M490 348h-175v-162h-28v162h-181v23q32 1 80 1.5t101 0.5v163h28v-163q51 1 97.5 1h78.5zM490 71h-384v23q33 1 83.5 1.5t107 1t108 0.5h86.5z" />
<glyph d="M172 453q-10 0 -28.5 -20t-38.5 -46l-14 8q10 18 22.5 38.5t27.5 34.5t32 14t51.5 -9t74.5 -21.5t75.5 -21.5t53.5 -9q10 0 28 19.5t39 46.5l14 -8q-9 -18 -21.5 -38t-27.5 -34.5t-33 -14.5q-13 0 -39 6t-58 15.5t-63.5 18.5t-57 15t-37.5 6zM172 229q-10 0 -28.5 -20 t-38.5 -46l-14 8q10 18 22.5 38t27.5 34.5t32 14.5t51.5 -9t74.5 -21.5t75.5 -21.5t53.5 -9q10 0 28 19.5t39 46.5l14 -8q-9 -18 -21.5 -38.5t-27.5 -34.5t-33 -14q-13 0 -39 6t-58 15.5t-63.5 18.5t-57 15t-37.5 6z" />
<glyph d="M494 333v-201h-29v171h-359v25q32 1 82.5 2t107.5 1.5t109.5 1t88.5 0.5z" />
<glyph horiz-adv-x="838" d="M743 267q0 -48 -19.5 -86t-54 -60.5t-81.5 -22.5q-42 0 -73.5 19.5t-55.5 50t-44 64.5q-35 -60 -80 -97t-104 -37q-45 0 -78.5 22t-52.5 59.5t-19 85.5t19.5 86t54.5 60.5t83 22.5q45 0 76.5 -20.5t55.5 -52.5t44 -66q38 63 83.5 101t100.5 38q71 0 108 -47.5t37 -119.5z M111 268q0 -66 35 -105t90 -39q49 0 90.5 40t74.5 94q-2 2 -3 5q-35 65 -73 105t-90 40t-88 -36.5t-36 -103.5zM597 408q-54 0 -95 -41.5t-73 -97.5q37 -65 74 -105t88 -40t86.5 36.5t35.5 105.5q0 66 -33 104t-83 38z" />
<glyph horiz-adv-x="930" d="M277 -10h-31l400 670h30zM361 474q0 -63 -20.5 -105t-54 -63t-73.5 -21q-61 0 -99.5 47t-38.5 135q0 95 43.5 142.5t104.5 47.5t99.5 -47.5t38.5 -135.5zM106 472q0 -72 28.5 -120t81.5 -48q49 0 81 43t32 122q0 73 -28 120.5t-82 47.5q-48 0 -80.5 -42t-32.5 -123z M855 182q0 -64 -20.5 -105.5t-54 -62.5t-73.5 -21q-61 0 -99.5 47t-38.5 135q0 95 43.5 142.5t104.5 47.5t99.5 -47.5t38.5 -135.5zM600 180q0 -72 28.5 -120t81.5 -48q49 0 81 43t32 122q0 73 -28 120.5t-82 47.5q-48 0 -80.5 -42t-32.5 -123z" />
<glyph horiz-adv-x="1304" d="M277 -10h-31l400 670h30zM361 474q0 -63 -20.5 -105t-54 -63t-73.5 -21q-61 0 -99.5 47t-38.5 135q0 95 43.5 142.5t104.5 47.5t99.5 -47.5t38.5 -135.5zM106 472q0 -72 28.5 -120t81.5 -48q49 0 81 43t32 122q0 73 -28 120.5t-82 47.5q-48 0 -80.5 -42t-32.5 -123z M855 182q0 -64 -20.5 -105.5t-54 -62.5t-73.5 -21q-61 0 -99.5 47t-38.5 135q0 95 43.5 142.5t104.5 47.5t99.5 -47.5t38.5 -135.5zM1229 182q0 -64 -20.5 -105.5t-54 -62.5t-73.5 -21q-61 0 -99.5 47t-38.5 135q0 95 43.5 142.5t104.5 47.5t99.5 -47.5t38.5 -135.5z M600 180q0 -72 28.5 -120t81.5 -48q49 0 81 43t32 122q0 73 -28 120.5t-82 47.5q-48 0 -80.5 -42t-32.5 -123zM974 180q0 -72 28.5 -120t81.5 -48q49 0 81 43t32 122q0 73 -28 120.5t-82 47.5q-48 0 -80.5 -42t-32.5 -123z" />
<glyph d="M490 237h-175v-182h-28v182h-181v23q32 1 80 1.5t101 0.5v183h28v-183q51 1 97.5 1h78.5z" />
<glyph d="M489 237h-384v23q33 1 83.5 1.5t107 1t108 0.5h86.5z" />
<glyph d="M464 65l-163 166l-159 -158l-19 19l159 159l-165 168l17 16q30 -28 74.5 -72.5t92.5 -93.5l159 159l19 -19l-159 -159q47 -47 90.5 -91.5t72.5 -73.5l-1 -6z" />
<glyph d="M333 416q0 -16 -8 -29.5t-26 -13.5q-15 0 -23.5 11.5t-8.5 27.5q0 17 9.5 30t25.5 13q15 0 23 -11t8 -28zM489 237h-384v23q33 1 83.5 1.5t107 1t108 0.5h86.5zM333 89q0 -16 -8 -29.5t-26 -13.5q-15 0 -23.5 11.5t-8.5 27.5q0 17 9.5 30t25.5 13q15 0 23 -11t8 -28z" />
<glyph d="M489 338h-384v23q33 1 83.5 1.5t107 1t108 0.5h86.5zM489 136h-384v23q33 1 83.5 1.5t107 1t108 0.5h86.5z" />
<glyph d="M208 41l-18 13l45 82h-130v23q26 1 64 1.5t80 0.5l98 177h-242v23q29 1 71 1.5t90.5 0.5t94.5 1l52 93l5 3l18 -13l-46 -83h100l-1 -26h-113l-98 -177q59 1 116.5 1h95.5l-1 -26h-225l-51 -92z" />
<glyph d="M111 57v30l335 165l-334 160v30q34 -15 83.5 -39t104 -50.5t104 -51t83.5 -41.5l1 -16z" />
<glyph d="M488 57l-377 187l1 16q34 17 83.5 41.5t104 51t104 50.5t83.5 39v-30l-334 -160l335 -165v-30z" />
<glyph d="M117 161v28l338 122l-337 123v28q63 -21 132.5 -46.5t134 -49.5t110.5 -43v-24zM490 40h-384v23q33 1 84 1.5t108 1t108.5 0.5h84.5z" />
<glyph d="M485 462v-28l-337 -122l338 -123v-28l-378 138v24q46 19 110.5 43t134.5 49.5t132 46.5zM492 40h-384v23q33 1 84 1.5t108 1t108.5 0.5h84.5z" />
<glyph d="M309 456v-163q51 1 97.5 1h78.5l-1 -26h-175v-162h-28v162h-181v23q32 1 80 1.5t101 0.5v163h28zM484 -9h-384v23q33 1 83.5 1.5t107 1t108 0.5h86.5z" />
<glyph d="M171 378q-10 0 -28.5 -20t-38.5 -46l-14 8q10 18 22.5 38.5t27.5 34.5t32 14t51.5 -9t74.5 -21.5t75.5 -21.5t53.5 -9q10 0 28 19.5t39 46.5l14 -8q-9 -18 -21.5 -38t-27.5 -34.5t-33 -14.5q-13 0 -39 6t-58 15.5t-63.5 18.5t-57 15t-37.5 6zM171 154q-10 0 -28.5 -20 t-38.5 -46l-14 8q10 18 22.5 38t27.5 34.5t32 14.5t51.5 -9t74.5 -21.5t75.5 -21.5t53.5 -9q10 0 28 19.5t39 46.5l14 -8q-9 -18 -21.5 -38.5t-27.5 -34.5t-33 -14q-13 0 -39 6t-58 15.5t-63.5 18.5t-57 15t-37.5 6z" />
<glyph d="M494 332v-201h-29v171h-359v25q32 1 82.5 2t107.5 1.5t109.5 1t88.5 0.5z" />
<glyph horiz-adv-x="838" d="M750 251q0 -48 -19.5 -86t-54 -60.5t-81.5 -22.5q-42 0 -73.5 19.5t-55.5 50t-44 64.5q-35 -60 -80 -97t-104 -37q-45 0 -78.5 22t-52.5 59.5t-19 85.5t19.5 86t54.5 60.5t83 22.5q45 0 76.5 -20.5t55.5 -52.5t44 -66q38 63 83.5 101t100.5 38q71 0 108 -47.5t37 -119.5z M118 252q0 -66 35 -105t90 -39q49 0 90.5 40t74.5 94q-2 2 -3 5q-35 65 -73 105t-90 40t-88 -36.5t-36 -103.5zM604 392q-54 0 -95 -41.5t-73 -97.5q37 -65 74 -105t88 -40t86.5 36.5t35.5 105.5q0 66 -33 104t-83 38z" />
<glyph horiz-adv-x="792" d="M315 377q0 -61 -33.5 -100t-86.5 -39t-86.5 37.5t-33.5 97.5t35 98.5t88 38.5t85 -36t32 -97zM533 510h36l-311 -520h-35zM105 373q0 -52 26 -84.5t66 -32.5t64 34.5t24 86.5t-23.5 83.5t-64.5 31.5q-40 0 -66 -33.5t-26 -85.5zM717 129q0 -61 -33.5 -100t-86.5 -39 t-86.5 37.5t-33.5 97.5t35 98.5t88 38.5t85 -36t32 -97zM507 125q0 -52 26 -84.5t66 -32.5t64 34.5t24 86.5t-23.5 83.5t-64.5 31.5q-40 0 -66 -33.5t-26 -85.5z" />
<glyph horiz-adv-x="1097" d="M315 377q0 -61 -33.5 -100t-86.5 -39t-86.5 37.5t-33.5 97.5t35 98.5t88 38.5t85 -36t32 -97zM533 510h36l-311 -520h-35zM105 373q0 -52 26 -84.5t66 -32.5t64 34.5t24 86.5t-23.5 83.5t-64.5 31.5q-40 0 -66 -33.5t-26 -85.5zM1022 129q0 -61 -33.5 -100t-86.5 -39 t-86.5 37.5t-33.5 97.5t35 98.5t88 38.5t85 -36t32 -97zM717 129q0 -61 -33.5 -100t-86.5 -39t-86.5 37.5t-33.5 97.5t35 98.5t88 38.5t85 -36t32 -97zM812 125q0 -52 26 -84.5t66 -32.5t64 34.5t24 86.5t-23.5 83.5t-64.5 31.5q-40 0 -66 -33.5t-26 -85.5zM507 125 q0 -52 26 -84.5t66 -32.5t64 34.5t24 86.5t-23.5 83.5t-64.5 31.5q-40 0 -66 -33.5t-26 -85.5z" />
<glyph horiz-adv-x="709" d="M565 365q11 -87 -10 -160.5t-66 -123.5q24 -27 50 -47t57 -20q19 0 35.5 8t24.5 16l8 -22q-10 -9 -29 -17.5t-44 -8.5q-44 0 -73 22t-50 47q-36 -33 -82.5 -51t-99.5 -18q-59 0 -103.5 22t-68.5 60.5t-24 87.5q0 58 33 111t90 82q-26 36 -46.5 78.5t-20.5 85.5 q0 42 20 74t55 50.5t80 18.5q56 0 96.5 -31t57.5 -78l-22 -19q-20 49 -58.5 76.5t-81.5 27.5q-44 0 -79.5 -30t-35.5 -89q0 -40 17.5 -78t45 -74t57.5 -70l167 -188l7 -7q31 38 48.5 87.5t17.5 103.5q0 16 -1.5 34.5t-3.5 30.5zM122 165q0 -67 47 -109t123 -42q48 0 88.5 17 t71.5 47q-3 4 -6 7l-171 193q-10 12 -22.5 26t-24.5 30q-52 -27 -79 -74t-27 -95z" />
<glyph horiz-adv-x="367" d="M183 324q-49 0 -81 32t-32 80t31 83t83 35t82.5 -31.5t30.5 -78.5q0 -51 -31 -85.5t-83 -34.5zM184 526q-38 0 -60.5 -26.5t-22.5 -62.5q0 -37 23 -61t59 -24q38 0 60.5 26t22.5 65q0 35 -22 59t-60 24z" />
<glyph horiz-adv-x="367" d="M183 174q-49 0 -81 32t-32 80t31 83t83 35t82.5 -31.5t30.5 -78.5q0 -51 -31 -85.5t-83 -34.5zM184 376q-38 0 -60.5 -26.5t-22.5 -62.5q0 -37 23 -61t59 -24q38 0 60.5 26t22.5 65q0 35 -22 59t-60 24z" />
</font>
</defs>
</svg>
