<?xml version="1.0" standalone="no"?>
<!DOCTYPE svg PUBLIC "-//W3C//DTD SVG 1.1//EN" "http://www.w3.org/Graphics/SVG/1.1/DTD/svg11.dtd" >
<svg xmlns="http://www.w3.org/2000/svg" xmlns:xlink="http://www.w3.org/1999/xlink" version="1.1">
<metadata></metadata>
<defs>
<font id="indivisa_text_serifitalic" horiz-adv-x="574" >
<font-face units-per-em="1000" ascent="800" descent="-200" />
<missing-glyph horiz-adv-x="250" />
<glyph unicode="ff" horiz-adv-x="585" d="M165 -1q-25 -119 -80.5 -187t-133.5 -68q-41 0 -67 18.5t-26 45.5q0 12 6 21.5t15 13.5q15 -20 36.5 -36t49.5 -16q49 0 76.5 49t46.5 142l100 471h-70l2 14l75 22h1l4 19q15 71 49 122t81 78.5t101 27.5q41 0 71 -17t43 -39q29 37 65 56.5t77 19.5q43 0 69.5 -20 t26.5 -47q0 -18 -10 -29t-21 -16q-16 25 -40 46t-55 21q-33 0 -53 -24.5t-33 -68t-25 -100.5l-7 -30h128l-7 -35h-128l-96 -454q-25 -119 -75.5 -187t-122.5 -68q-35 0 -57 18.5t-22 45.5q0 12 6.5 21.5t15.5 13.5q12 -20 29 -36t39 -16q44 0 67.5 49t42.5 142l100 471h-198 zM273 512l-5 -24h198l5 20q14 66 39 117q-12 25 -38 45.5t-65 20.5q-40 0 -65.5 -22t-41 -62t-27.5 -95z" />
<glyph unicode="ffi" horiz-adv-x="795" d="M165 -1q-25 -119 -80.5 -187t-133.5 -68q-41 0 -67 18.5t-26 45.5q0 12 6 21.5t15 13.5q15 -20 36.5 -36t49.5 -16q49 0 76.5 49t46.5 142l100 471h-70l2 14l75 22h1l4 19q15 70 49 121t81 79t101 28q42 0 72.5 -17.5t43.5 -40.5q30 38 69 58t84 20q50 0 84 -29.5 t34 -70.5q0 -20 -15 -33t-41 -12q-10 45 -31 72.5t-58 27.5q-40 0 -64 -27t-39 -74t-27 -106l-4 -16h163q46 0 67 -18.5t21 -48.5q0 -17 -6 -49.5t-16 -74t-20.5 -84t-19.5 -79.5q-4 -21 -7 -37.5t-3 -25.5q0 -26 18 -26q12 0 27.5 13.5t32.5 33.5t32 41l8 -6 q-14 -29 -35 -61t-46.5 -54t-54.5 -22t-42.5 18t-13.5 48q0 14 3 33t9 45q8 41 19 85t20.5 84.5t16 70.5t6.5 43q0 36 -45 36h-141l-96 -454q-25 -119 -75.5 -187t-122.5 -68q-35 0 -57 18.5t-22 45.5q0 12 6.5 21.5t15.5 13.5q12 -20 29 -36t39 -16q44 0 67.5 49t42.5 142 l100 471h-198zM273 512l-5 -24h198l5 20q14 65 40 115q-12 26 -38 47t-66 21t-65.5 -22.5t-41 -62.5t-27.5 -94z" />
<glyph unicode="ffl" horiz-adv-x="824" d="M165 -1q-25 -119 -80.5 -187t-133.5 -68q-41 0 -67 18.5t-26 45.5q0 12 6 21.5t15 13.5q15 -20 36.5 -36t49.5 -16q49 0 76.5 49t46.5 142l100 471h-70l2 14l75 22h1l4 19q15 70 49 121t81 79t101 28q43 0 74.5 -19t43.5 -43q34 39 77.5 60.5t92.5 21.5q39 0 64 -15l36 8 t34 6l8 -8l-134 -613q-4 -21 -7 -37.5t-3 -25.5q0 -26 18 -26q12 0 27.5 13.5t32.5 33.5t32 41l8 -6q-14 -29 -35 -61t-46.5 -54t-54.5 -22q-28 0 -42 18t-14 48q0 14 3 33t9 45l117 536q-13 17 -34 29t-49 12q-42 0 -69.5 -24.5t-44.5 -68t-29 -100.5l-7 -30h151l-13 -35 h-145l-96 -454q-25 -119 -80.5 -187t-132.5 -68q-42 0 -68 18.5t-26 45.5q0 12 6.5 21.5t15.5 13.5q15 -20 36 -36t49 -16q49 0 76.5 49t46.5 142l100 471h-198zM273 512l-5 -24h198l5 20q13 63 41 113q-12 27 -38 48.5t-67 21.5q-40 0 -65.5 -22.5t-41 -62.5t-27.5 -94z " />
<glyph unicode="&#x2f;symbol&#x31;&#x2f;" horiz-adv-x="5534" d="M1865 412q-25 0 -40.5 14.5t-15.5 37.5q0 24 15.5 45t39 34.5t48.5 13.5q24 0 39 -13.5t15 -37.5t-14.5 -45.5t-37.5 -35t-49 -13.5zM1284 412q-26 0 -41.5 14.5t-15.5 37.5q0 24 15.5 45t39.5 34.5t49 13.5q24 0 38.5 -13.5t14.5 -37.5t-14.5 -45.5t-37 -35t-48.5 -13.5 zM959 0q0 21 2.5 46.5t8.5 61.5q-16 -49 -51 -82t-79 -33q-41 0 -63 30t-22 82q0 45 15.5 91t46.5 85.5t76.5 63.5t104.5 24h12.5t12.5 -1l16 73l6 102l136 7q0 -40 -9.5 -95t-23 -116.5t-27 -123.5t-23 -117.5t-9.5 -97.5h-130zM100 0l78 364q8 38 13.5 72.5t7.5 63.5 l128 7l11 -15l-104 -492h-134zM3503 492l-57 -492h-131l20 175q3 30 9 69t12.5 78t11.5 68h-3q-16 -53 -37 -107.5t-44 -107.5l-76 -175h-149l-2 175q-1 56 1 109t8 106h-2q-15 -61 -30 -115.5t-29 -99.5l-53 -175h-109l154 500l184 6l1 -137q1 -50 -2.5 -121.5 t-12.5 -137.5h2q20 65 36 111t30.5 81t27.5 67l56 131l169 7zM5316 300q-15 -74 -23 -110.5t-11 -51t-3 -21.5q0 -34 36 -34q13 0 28 5t31 13l-9 -79q-20 -11 -50 -20t-64 -9q-50 0 -77.5 25t-27.5 75q0 11 1.5 23.5t6 33.5t12.5 57.5t20 95.5l-47 1l9 44l54 14l53 95l81 6 l13 -15l-20 -86h99l6 -14l-17 -51zM336 0q0 28 4 62t13 82t24 116l6 102l137 7q0 -18 -2 -41t-5 -48h2q29 49 65.5 69t68.5 20q35 0 53.5 -19.5t18.5 -51.5q0 -23 -8 -62.5t-18 -84.5q-7 -33 -11 -57t-5.5 -45.5t-1.5 -48.5h-131q0 38 4.5 69.5t14.5 80.5q7 35 11 55.5 t4 31.5q0 24 -17 24t-34 -22.5t-30.5 -60.5t-22 -84t-9.5 -94h-131zM1170 0q0 39 7 87.5t20 105.5l14 67l6 102l137 7q0 -36 -8 -81.5t-19 -95.5t-19 -99t-8 -93h-130zM1399 362l140 7q6 -59 4.5 -137.5t-9.5 -151.5h2q23 45 42 95t32 99t17 90q17 4 28.5 4.5t21.5 0.5 q28 0 46.5 -7t18.5 -35q0 -22 -13.5 -60.5t-36.5 -85t-53.5 -94t-63.5 -87.5h-149q-2 111 -9.5 207.5t-17.5 154.5zM1752 0q0 39 7 87.5t19 105.5l15 67l6 102l137 7q0 -36 -8 -81.5t-19 -95.5t-19 -99t-8 -93h-130zM4716 0q0 28 4 62t13 82t24 116l6 102l137 7 q0 -18 -2.5 -41t-4.5 -48h2q29 49 65 69t69 20q35 0 53.5 -19.5t18.5 -51.5q0 -23 -8 -62.5t-18 -84.5q-7 -33 -11 -57t-6 -45.5t-2 -48.5h-130q0 38 4.5 69.5t14.5 80.5q7 35 11 55.5t4 31.5q0 24 -17 24q-18 0 -34.5 -22.5t-30.5 -60.5t-22.5 -84t-9.5 -94h-130zM2245 256 q-25 14 -51.5 22t-45.5 8q-17 0 -29.5 -7t-12.5 -19q0 -13 13 -22t32 -17.5t38 -20.5t32 -30.5t13 -47.5q0 -39 -25 -68t-66.5 -45t-89.5 -16q-33 0 -66.5 7.5t-51.5 20.5l27 93q27 -18 58.5 -28t52.5 -10q20 0 30 8t10 18q0 13 -13 22t-32 18t-38 21t-32 30t-13 46 q0 39 25.5 68t67.5 45.5t90 16.5q20 0 48.5 -3.5t55.5 -14.5zM2525 369q32 0 73.5 -7.5t72.5 -24.5l-29 -128q-20 -94 -25.5 -140.5t-5.5 -68.5h-130q0 20 2.5 45t9.5 67q-15 -50 -50.5 -84.5t-81.5 -34.5q-41 0 -62.5 30t-21.5 83q0 44 15.5 90.5t46.5 85.5t77.5 63 t108.5 24zM4653 51q-32 -28 -74 -43t-85 -15q-62 0 -102 33.5t-40 103.5q0 46 17.5 88.5t49.5 76.5t75 54t94 20q53 0 86 -23t33 -65q0 -56 -59 -95.5t-162 -44.5v-1q0 -29 15 -46.5t48 -17.5q22 0 45 7.5t45 20.5zM3936 0q0 28 4 62t13.5 82t24.5 116l5 102l137 7 q0 -18 -2 -41t-5 -48h2q29 49 65.5 69t68.5 20q35 0 53.5 -19.5t18.5 -51.5q0 -23 -8 -62.5t-18 -84.5q-7 -33 -11 -57t-5.5 -45.5t-1.5 -48.5h-131q0 38 4.5 69.5t14.5 80.5q8 35 11.5 55.5t3.5 31.5q0 24 -17 24t-34 -22.5t-30.5 -60.5t-22 -84t-9.5 -94h-131zM3768 369 q32 0 73 -7.5t72 -24.5l-28 -128q-20 -94 -25.5 -140.5t-5.5 -68.5h-130q0 20 2.5 45t9.5 67q-15 -50 -50.5 -84.5t-81.5 -34.5q-41 0 -63 30t-22 83q0 44 15.5 90.5t47 85.5t78 63t108.5 24zM4490 177q46 10 72.5 33.5t26.5 59.5q0 17 -5.5 24t-16.5 7q-20 0 -36 -20 t-26 -48.5t-15 -55.5zM3677 101q17 0 33 21t30 54t22 69q2 11 4.5 22t4.5 22q-16 8 -27 8q-18 0 -34.5 -16t-29 -40.5t-20 -51.5t-7.5 -48q0 -40 24 -40zM913 101q16 0 31 19.5t28.5 50t22.5 64.5l4 20l4 20l3 14q-14 8 -27 8q-18 0 -34 -16t-28.5 -40.5t-20 -51.5t-7.5 -48 q0 -40 24 -40zM2435 101q16 0 32.5 21t30 54t21.5 69q2 11 4.5 22t4.5 22q-14 8 -27 8q-18 0 -34 -16t-29 -40.5t-20 -51.5t-7 -48q0 -40 24 -40z" />
<glyph unicode="&#x2f;symbol&#x32;&#x2f;" horiz-adv-x="932" d="M494 570l52 -90l-137 -240h-103l137 240l-52 90h103zM357 570l52 -90l-138 -240h-103l138 240l-52 90h103zM752 120h-103l-137 240l51 90l137 -240h103zM683 0h-103l-137 240l51 90l138 -240h103zM100 120l51 90h275l51 -90h-274l-52 -90zM168 0l52 90h274l52 -90h-275 l-51 -90zM789 88q18 0 30.5 -13t12.5 -31t-12.5 -31t-30.5 -13t-30.5 13t-12.5 31t12.5 31t30.5 13zM829 44q0 17 -11.5 28.5t-28.5 11.5q-16 0 -28 -11.5t-12 -28.5q0 -16 12 -28t28 -12q17 0 28.5 12t11.5 28zM771 69h18h5t6 -2q5 -4 5 -11q0 -5 -3 -8q-1 -2 -2.5 -2.5 t-3.5 -1.5q7 -1 8 -9q0 -8 3 -16h-8q-1 2 -1 6t-1 7q-1 5 -2.5 7.5t-8.5 2.5h-8v-23h-7v50zM778 47h10h3.5t3.5 1q3 3 3 7q0 6 -4 7t-6 1h-10v-16z" />
<glyph unicode="&#x2f;symbol&#x33;&#x2f;" horiz-adv-x="957" d="M505 638l68 -270h270l-203 -135l136 -270l-271 135l-270 -270l135 405l-270 203l338 -68zM814 87q18 0 30.5 -12.5t12.5 -31.5q0 -18 -12.5 -30.5t-30.5 -12.5t-30.5 12.5t-12.5 30.5q0 19 12.5 31.5t30.5 12.5zM854 43q0 17 -11.5 29t-28.5 12q-16 0 -28 -12t-12 -29 q0 -16 12 -28t28 -12q17 0 28.5 12t11.5 28zM796 68h18h5.5t5.5 -2q6 -3 6 -10q0 -5 -4 -9q-3 -3 -6 -3q7 -3 8 -10q1 -4 1.5 -7.5t1.5 -8.5h-7q-1 3 -1.5 7t-1.5 7q0 9 -10 9h-9v-23h-7v50zM803 47h10h3.5t3.5 1l2 2t1 4q0 7 -4 8t-6 1h-10v-16z" />
<glyph unicode="&#x2f;symbol&#x34;&#x2f;" horiz-adv-x="2607" d="M1684 406q0 32 -2.5 63t-8.5 65l126 14l15 -15v-533h-130v406zM1889 406q0 62 -10 128l126 14l14 -15v-533h-130v406zM427 101v-101h-320v362q0 38 -1.5 72t-5.5 63l126 7l14 -14v-396zM925 21l7 109q31 -18 72 -27t72 -9q50 0 50 36q0 19 -20.5 34t-50 31t-59.5 37 t-50.5 51t-20.5 74q0 48 26 80.5t70 49.5t97 17q81 0 127 -18l-14 -111q-28 14 -55 21.5t-56 7.5q-28 0 -43 -11t-15 -29q0 -22 20.5 -38.5t50.5 -32.5t59.5 -36.5t50 -49.5t20.5 -73q0 -67 -54 -104t-139 -37q-40 0 -82.5 8t-62.5 20zM795 0l-106 -7q-7 11 -12 24t-9 25h-4 q-15 -22 -42.5 -35.5t-61.5 -13.5q-41 0 -69 22t-28 67q0 61 53.5 88.5t137.5 29.5v20q0 54 -58 54q-55 0 -108 -29l-8 97q27 10 68.5 18t81.5 8q154 0 154 -135q0 -38 -2 -69.5t-2 -69.5q0 -24 4.5 -50.5t10.5 -43.5zM1626 0l-107 -7q-7 11 -12 24t-9 25h-3 q-15 -22 -42.5 -35.5t-62.5 -13.5q-40 0 -68 22t-28 67q0 61 53 88.5t138 29.5v20q0 54 -58 54q-54 0 -109 -29l-7 97q27 10 68.5 18t81.5 8q153 0 153 -135q0 -38 -1.5 -69.5t-1.5 -69.5q0 -24 4.5 -50.5t10.5 -43.5zM2405 213v-17t-1 -19l-11 -11h-191q8 -45 33.5 -64 t64.5 -19q24 0 45.5 6t38.5 15l7 -81q-17 -11 -49.5 -20.5t-77.5 -9.5q-88 0 -143 47t-55 135q0 58 24 101t66 67.5t94 24.5q73 0 114 -43.5t41 -111.5zM2199 207l78 4q1 5 1.5 11t0.5 15q0 23 -7.5 41t-26.5 18q-23 0 -34 -25.5t-12 -63.5zM654 74v88q-27 -3 -46 -17 t-19 -40q0 -18 10.5 -29t26.5 -11t28 9zM1485 74v88q-27 -3 -46 -17t-19 -40q0 -18 10 -29t27 -11q16 0 28 9zM2464 85q18 0 30.5 -13t12.5 -31t-12.5 -31t-30.5 -13t-31 13t-13 31t13 31t31 13zM2504 41q0 17 -11.5 28.5t-28.5 11.5q-16 0 -28 -11.5t-12 -28.5 q0 -16 12 -28t28 -12q17 0 28.5 12t11.5 28zM2446 66h18q2 0 5 -0.5t6 -2.5q5 -2 5 -10q0 -4 -3 -9q-3 -3 -6 -3q7 -1 8 -10q0 -7 3 -15h-8q-1 2 -1 6t-1 7q-1 5 -2.5 7t-8.5 2h-8v-22h-7v50zM2453 44h10h3.5t3.5 1q3 3 3 7q0 6 -4 7t-6 1h-10v-16z" />
<glyph unicode="&#x2f;symbol&#x35;&#x2f;" horiz-adv-x="705" d="M232 -6l-132 136l124 234l129 -136zM474 -6l-121 234l128 136l124 -234z" />
<glyph unicode=" "  horiz-adv-x="250" />
<glyph unicode="&#x09;" horiz-adv-x="250" />
<glyph unicode="&#xa0;" horiz-adv-x="250" />
<glyph unicode="!" horiz-adv-x="295" d="M232 685l6 4q15 3 31.5 4t29.5 1q21 0 21 -15q0 -9 -15 -62l-114 -420h-36zM136 -10q-17 0 -28 11t-11 29q0 29 17.5 49t41.5 20q17 0 28 -10.5t11 -28.5q0 -29 -17.5 -49.5t-41.5 -20.5z" />
<glyph unicode="&#x22;" horiz-adv-x="370" d="M208 752l4 4q16 0 38.5 -3t32.5 -7l5 -12l-98 -253l-25 4l21 130zM376 752l5 4q15 0 37.5 -3t33.5 -7l4 -12l-98 -253l-24 4l21 130z" />
<glyph unicode="#" horiz-adv-x="715" d="M246 -10l-40 5l-8 8l46 186h-139l-8 8l7 41h152l52 211h-136l-8 8l7 41h150l49 198l40 -5l8 -8l-46 -185h172l49 198l41 -5l8 -8l-46 -185h136l8 -8l-6 -41h-150l-53 -211h139l8 -8l-6 -41h-153l-49 -199l-41 5l-8 8l46 186h-171zM308 238h171l53 211h-172z" />
<glyph unicode="$" horiz-adv-x="493" d="M231 -137l-37 -3l-6 7l27 125q-52 1 -93.5 13t-48.5 25q-4 9 -4 22q0 26 11 62.5t28 67.5h19q0 -10 -0.5 -18.5t-0.5 -16.5q0 -33 4.5 -51.5t13.5 -32.5q15 -20 39.5 -27.5t52.5 -7.5q44 0 77 20.5t51 53.5t18 71q0 43 -22 75.5t-55 60t-66 56t-55 64t-22 84.5 q0 52 28.5 92t75 64t101.5 27l28 131l37 3l6 -7l-28 -128q47 -3 75.5 -14t36.5 -21q5 -5 5 -14q0 -15 -6 -40t-15.5 -51.5t-20.5 -46.5h-19q1 12 1.5 22t0.5 19q0 54 -13 74q-12 17 -31.5 26t-50.5 9q-39 0 -69.5 -17.5t-48.5 -47.5t-18 -66q0 -41 22.5 -72.5t55 -59 t65.5 -56.5t55 -65.5t22 -85.5t-23.5 -91t-68 -70t-106.5 -34z" />
<glyph unicode="%" horiz-adv-x="954" d="M496 552q0 -45 -15.5 -92t-44.5 -86.5t-68.5 -64t-87.5 -24.5q-58 0 -93.5 39.5t-35.5 106.5q0 48 16.5 95.5t45.5 86.5t69 62t87 23q59 0 93 -39t34 -107zM843 696l-572 -706h-47l572 706h47zM209 419q0 -47 20 -77t58 -30q35 0 63 24.5t47.5 63.5t30 83.5t10.5 84.5 q0 47 -17.5 75.5t-57.5 28.5q-35 0 -63.5 -24t-48.5 -62.5t-31 -82.5t-11 -84zM927 257q0 -45 -15.5 -92t-44.5 -87t-68.5 -64t-87.5 -24q-58 0 -93.5 39.5t-35.5 106.5q0 48 16.5 95.5t45.5 86.5t69 62t87 23q59 0 93 -39t34 -107zM641 124q0 -48 19.5 -77.5t57.5 -29.5 q35 0 63 24.5t47.5 63.5t30 83.5t10.5 84.5q0 47 -17.5 75t-57.5 28q-35 0 -63.5 -23.5t-48.5 -62t-30.5 -82.5t-10.5 -84z" />
<glyph unicode="&#x26;" horiz-adv-x="772" d="M726 83q0 -38 -15 -65.5t-41 -27.5q-21 0 -37 14l-4 10q34 47 38 102q1 11 0 19q-46 14 -87 30q-47 -75 -118.5 -125t-167.5 -50q-87 0 -138.5 45.5t-51.5 122.5q0 53 25 98t64.5 77.5t85.5 47.5q-26 50 -26 107q0 59 27.5 106t75 74.5t106.5 27.5q66 0 100 -30t34 -76 q0 -30 -15 -54.5t-38 -38.5q24 -1 49 -2t50 -1q50 0 91.5 4t59.5 16l5 -1q11 -13 11 -33q0 -19 -14 -29.5t-38 -10.5q-22 0 -43.5 0.5t-44.5 2.5q-4 -56 -19.5 -115t-42.5 -115q17 -8 34.5 -16t34.5 -16q24 -10 37 -36.5t13 -61.5zM330 504q0 -66 33.5 -115t87.5 -87 t116 -69q23 49 36 104.5t16 109.5q-55 6 -125 16l-10 17q46 48 46 102q0 76 -75 76q-55 0 -90 -42.5t-35 -111.5zM182 175q0 -57 35 -94t101 -37q72 0 127.5 38t93.5 99q-85 35 -146.5 77.5t-96.5 93.5q-29 -16 -55 -42t-42.5 -60.5t-16.5 -74.5z" />
<glyph unicode="'" horiz-adv-x="201" d="M206 752l5 4q15 0 37.5 -3t33.5 -7l5 -12l-99 -253l-24 4l21 130z" />
<glyph unicode="(" horiz-adv-x="362" d="M276 -180l-14 -14q-64 56 -97 140t-33 191q0 89 22.5 179t65.5 172.5t103.5 151.5t137.5 116l11 -15q-63 -53 -112.5 -125.5t-84 -156t-52 -170.5t-17.5 -168q0 -92 17.5 -168.5t52.5 -132.5z" />
<glyph unicode=")" horiz-adv-x="363" d="M181 742l15 14q63 -56 96.5 -140t33.5 -191q0 -89 -22.5 -179t-65.5 -172.5t-104 -151.5t-137 -116l-12 15q64 53 113.5 125.5t83.5 156t52 170.5t18 168q0 92 -17.5 168.5t-53.5 132.5z" />
<glyph unicode="*" horiz-adv-x="374" d="M306 510q-3 -27 -27 -27q-20 0 -20 17q0 16 13.5 45.5t23.5 60.5q-22 -14 -42.5 -29.5t-37 -26.5t-26.5 -11q-18 0 -18 21q0 14 18 23q18 10 44 17t56 20q-23 12 -44.5 18.5t-35.5 13.5t-14 20q0 11 8.5 19.5t18.5 8.5q11 0 23 -11t25.5 -26.5t28.5 -28.5q1 55 7 95 q4 27 27 27q20 0 20 -17q0 -16 -13.5 -45.5t-22.5 -59.5q21 13 41.5 28.5t37 26.5t27.5 11q8 0 12 -6t4 -13q0 -17 -15 -24q-19 -9 -46 -17t-57 -20q23 -12 45 -19t36 -14t14 -20q0 -11 -9 -19.5t-18 -8.5q-14 0 -33.5 21.5t-43.5 43.5q0 -54 -7 -94z" />
<glyph unicode="+" d="M283 142l-2 4l36 174h-184l10 47q32 1 81 1.5t104 1.5l36 174h47l4 -4l-36 -170q52 1 99.5 1.5t79.5 0.5l6 -8l-16 -44h-180l-37 -178h-48z" />
<glyph unicode="," horiz-adv-x="285" d="M33 -187l-10 8q34 33 63.5 80.5t42.5 90.5q-17 5 -25.5 18t-8.5 29q0 25 18 45.5t45 20.5q23 0 36 -17t13 -41q0 -36 -24.5 -81t-64 -86t-85.5 -67z" />
<glyph unicode="-" horiz-adv-x="386" d="M85 250l7 39h301l-8 -39h-300z" />
<glyph unicode="." horiz-adv-x="267" d="M187 57q0 -26 -17.5 -46.5t-44.5 -20.5q-24 0 -36.5 14.5t-12.5 34.5q0 25 18 45.5t46 20.5q23 0 35 -14t12 -34z" />
<glyph unicode="/" horiz-adv-x="400" d="M118 -9l-11 -3l-39 20l347 744l12 4l39 -20z" />
<glyph unicode="0" horiz-adv-x="585" d="M607 454q0 -61 -14.5 -126.5t-42 -125.5t-67 -108t-88.5 -76t-106 -28t-99 29.5t-65.5 83.5t-23.5 127q0 64 15 130t43.5 126.5t68 107.5t89 74.5t107.5 27.5q86 0 134.5 -65t48.5 -177zM175 214q0 -81 31.5 -132.5t92.5 -51.5q43 0 79.5 28t65.5 75.5t49 106t30 119 t10 114.5q0 84 -27.5 134t-90.5 50q-44 0 -81.5 -28t-67 -75t-50 -105t-31.5 -119t-10 -116z" />
<glyph unicode="1" horiz-adv-x="335" d="M283 0h-254l-2 17l59 12q23 5 33.5 13t14.5 27l10 46l109 517l-91 8l1 16l167 40l8 -9l-121 -572l-16 -75l87 -23z" />
<glyph unicode="2" horiz-adv-x="511" d="M55 -10l-18 36q154 120 247 209t134 157.5t41 126.5q0 53 -29.5 84t-84.5 31q-52 0 -98.5 -26t-83.5 -71l-12 7q30 69 91.5 110.5t136.5 41.5q74 0 116.5 -42t42.5 -117t-43.5 -144.5t-116 -135t-156.5 -129.5q-20 -15 -39.5 -29.5t-38.5 -28.5q12 3 25 4.5t28 1.5 q32 0 70 -4.5t72.5 -9t55.5 -4.5t46 38q7 11 14.5 24t15.5 29l10 -5q-5 -20 -11.5 -39t-12.5 -36q-14 -36 -30.5 -57.5t-38.5 -21.5q-30 0 -68.5 7t-82 14.5t-86.5 7.5q-29 0 -52.5 -7.5t-43.5 -21.5z" />
<glyph unicode="3" horiz-adv-x="442" d="M429 235q0 -65 -52 -118t-144.5 -86t-213.5 -41l-4 25q69 9 130.5 28.5t109 47.5t74.5 63.5t27 77.5q0 54 -37.5 78.5t-95.5 24.5q-16 0 -31 -0.5t-28 -1.5l-3 33q113 15 177.5 61t64.5 116q0 40 -25 65.5t-75 25.5t-97 -26.5t-77 -75.5l-12 8q19 47 53 82.5t77.5 54.5 t89.5 19q67 0 104.5 -35.5t37.5 -95.5q0 -48 -26.5 -87.5t-72.5 -67.5t-103 -43q71 -6 111.5 -39t40.5 -93z" />
<glyph unicode="4" horiz-adv-x="551" d="M491 692l48 -7l-98 -464l112 2l-14 -52l-108 1l-37 -172h-72l37 173l-304 3l-4 32zM450 602l-341 -386l260 4z" />
<glyph unicode="5" horiz-adv-x="446" d="M444 247q0 -69 -51.5 -124t-143.5 -90t-212 -43l-5 25q68 10 128.5 30t107 49.5t73.5 67t27 80.5q0 55 -35 84t-101 29q-29 0 -58 -3.5t-52 -8.5l-11 10l76 337q63 -2 122 -5t118 -3q29 0 44 13.5t29 42.5l11 -3q-11 -58 -25.5 -88.5t-57.5 -30.5q-42 0 -96 3.5t-109 9.5 l-55 -243q20 4 42.5 6.5t47.5 2.5q86 0 136 -39.5t50 -108.5z" />
<glyph unicode="6" horiz-adv-x="514" d="M88 175q0 98 36.5 185.5t101.5 157.5t149 116.5t178 61.5l5 -25q-136 -44 -234.5 -136t-144.5 -220q61 90 170 90q71 0 112.5 -43.5t41.5 -117.5q0 -50 -19 -96t-52 -81.5t-76.5 -56t-93.5 -20.5q-48 0 -87.5 21t-63 62.5t-23.5 101.5zM427 241q0 59 -26.5 90.5 t-75.5 31.5q-47 0 -85 -28t-60 -75t-22 -102q0 -60 26 -96t77 -36q50 0 87.5 31t58 80t20.5 104z" />
<glyph unicode="7" horiz-adv-x="454" d="M228 6q-9 -16 -30 -16q-14 0 -28.5 10t-21.5 24q66 101 122.5 190t108.5 177t103 186q-43 12 -90 22t-88.5 16t-69.5 6q-35 0 -53.5 -25.5t-35.5 -76.5l-11 4q9 54 19.5 92.5t28.5 59.5t50 21q43 0 91 -11t95 -28.5t87 -36.5q19 36 37 74q22 -5 22 -22q0 -14 -19 -59 q-67 -146 -147.5 -302.5t-169.5 -304.5z" />
<glyph unicode="8" horiz-adv-x="507" d="M488 185q0 -58 -33 -102t-87.5 -68.5t-120.5 -24.5q-84 0 -134 39t-50 102q0 75 58.5 132t155.5 87q-41 32 -72 71t-31 95q0 53 30 93.5t79 63.5t104 23q73 0 115.5 -35.5t42.5 -92.5q0 -64 -46.5 -116.5t-126.5 -86.5q29 -24 55.5 -50t43.5 -57.5t17 -72.5zM247 530 q0 -46 30.5 -80.5t70.5 -65.5q39 20 69 50t47 63.5t17 65.5q0 45 -25.5 71t-73.5 26q-37 0 -67.5 -17t-49 -46.5t-18.5 -66.5zM134 138q0 -51 33.5 -81.5t88.5 -30.5q41 0 77.5 19t59 51.5t22.5 73.5q0 36 -16.5 63.5t-42.5 51t-55 46.5q-73 -31 -120 -83t-47 -110z" />
<glyph unicode="9" horiz-adv-x="513" d="M548 511q0 -98 -37 -185.5t-102 -157.5t-149 -116t-178 -62l-5 25q136 44 234.5 136t144.5 220q-61 -90 -170 -90q-71 0 -112 43.5t-41 117.5q0 50 18.5 96t51.5 81.5t76.5 56t93.5 20.5q48 0 87.5 -21t63.5 -62.5t24 -101.5zM208 445q0 -59 26.5 -90.5t75.5 -31.5 q47 0 85 28t60 75t22 102q0 60 -26 96t-77 36q-50 0 -87.5 -31t-58 -80t-20.5 -104z" />
<glyph unicode=":" horiz-adv-x="228" d="M237 382q-1 -26 -20 -46.5t-46 -20.5q-24 0 -35.5 14.5t-10.5 34.5q1 24 20 45t47 21q23 0 34.5 -14.5t10.5 -33.5zM168 57q-1 -26 -20 -46.5t-46 -20.5q-24 0 -35.5 14.5t-10.5 34.5q1 25 20.5 45.5t46.5 20.5q23 0 34.5 -14t10.5 -34z" />
<glyph unicode=";" horiz-adv-x="228" d="M237 382q-1 -26 -20 -46.5t-46 -20.5q-24 0 -35.5 14.5t-10.5 34.5q1 24 20 45t47 21q23 0 34.5 -14.5t10.5 -33.5zM-24 -187l-9 8q36 33 69.5 80.5t50.5 90.5q-17 5 -24.5 18t-6.5 29q1 25 20 45.5t47 20.5q23 0 34.5 -17t10.5 -41q-3 -36 -30.5 -81t-70.5 -86t-91 -67z " />
<glyph unicode="&#x3c;" d="M593 571l-12 -61l-365 -177l292 -167l-12 -55q-26 14 -63 34.5t-79.5 45l-85 49t-79 46t-60.5 35.5l-1 3l6 27z" />
<glyph unicode="=" d="M569 415h-416l11 47q35 1 89.5 2t116 1.5t117 1t91.5 0.5l6 -8zM527 221h-415l10 46q35 1 90 2t116 2t116.5 1h92.5l6 -8z" />
<glyph unicode="&#x3e;" d="M103 111l13 61l364 177l-291 167l12 55q25 -13 62.5 -34t80 -45t85 -48.5t79 -46t60.5 -36.5v-3l-6 -26z" />
<glyph unicode="?" horiz-adv-x="411" d="M263 223l-9 -8q-26 3 -42 16t-16 37q0 32 16 56t41.5 43t54 38t54 41t42 50.5t16.5 68.5q0 43 -23.5 69t-65.5 26q-41 0 -72.5 -20.5t-49.5 -54.5t-18 -75q0 -6 0.5 -13t1.5 -14q-8 -3 -17 -5.5t-18 -2.5q-39 0 -39 42q0 49 31.5 89.5t82 65t108.5 24.5q70 0 112 -38 t42 -99q0 -43 -18 -74.5t-46 -56t-59.5 -44t-59.5 -38t-45.5 -39t-17.5 -46.5q0 -11 3 -20.5t11 -17.5zM172 -10q-17 0 -28 11t-11 29q0 29 17.5 49t41.5 20q17 0 28 -10.5t11 -28.5q0 -29 -17.5 -49.5t-41.5 -20.5z" />
<glyph unicode="@" horiz-adv-x="1077" d="M820 -160q-53 -42 -127.5 -69t-169.5 -27q-94 0 -172.5 32.5t-135.5 91t-88 136t-31 167.5q0 106 33 196t90 162t130 122.5t155 77.5t164 27q91 0 165 -30.5t127.5 -85t82.5 -128t29 -160.5q0 -73 -22 -138.5t-61.5 -115.5t-91 -79t-110.5 -29q-52 0 -83 24t-43 65t-4 92 q2 17 5 34.5t5 35.5h-1q-18 -42 -41.5 -86t-52 -81.5t-59 -60.5t-61.5 -23q-38 0 -62 35t-24 99q0 73 23.5 141.5t65.5 123t98 86t121 31.5q36 0 69 -7.5t55 -18.5l-16 -61l-39 -173q-21 -93 -4.5 -150t72.5 -57q37 0 75 22.5t70 64.5t51 100t19 129q0 78 -26.5 144 t-75 114.5t-115 75t-146.5 26.5q-72 0 -146 -24.5t-141 -71t-120 -112.5t-83.5 -148.5t-30.5 -179.5q0 -84 28 -156t78.5 -125.5t119.5 -83t151 -29.5q68 0 119 12t91 31t75 39zM443 132q0 -34 10.5 -57.5t30.5 -23.5t45 26.5t52 69t51 90.5t42.5 92.5t26.5 74.5l12 51 q-11 6 -23.5 9.5t-30.5 3.5q-39 0 -77.5 -28.5t-69.5 -77t-50 -108t-19 -122.5z" />
<glyph unicode="A" horiz-adv-x="666" d="M445 688h45l75 -613q3 -19 9.5 -28t21.5 -13l51 -14l-2 -20h-232l-4 20l86 22l-25 200l-232 -4l-107 -195l81 -23l-4 -20h-203l-2 20l56 16q17 4 27 13t20 26zM259 276l207 -1l-37 311z" />
<glyph unicode="B" horiz-adv-x="598" d="M329 572l-44 -206h82q43 0 81.5 25t62 65t23.5 86q0 51 -34 79.5t-101 28.5h-54zM343 332h-65l-46 -217l-17 -79h86q60 0 106.5 22t72.5 61.5t26 92.5q0 58 -43.5 89t-119.5 31zM585 208q0 -56 -31.5 -103t-94 -76t-155.5 -29h-251l-2 20l59 15q18 5 26 12.5t12 23.5 l9 44l97 457l15 71l-78 23l4 20h225q87 0 138 -37t51 -102q0 -49 -23 -88t-59 -66.5t-75 -40.5q59 -14 96 -50t37 -94z" />
<glyph unicode="C" horiz-adv-x="601" d="M376 -10q-125 0 -197 73.5t-72 201.5q0 88 31 166.5t85.5 138t126.5 93t153 33.5q90 0 141 -26q-2 -22 -8 -53t-14 -62t-16 -54h-19q-7 43 -12 77.5t-10 65.5q-13 5 -27.5 8t-37.5 3q-63 0 -120 -30.5t-100.5 -84.5t-68.5 -123.5t-25 -146.5t26 -130.5t70.5 -81 t100.5 -27.5q26 0 43.5 3.5l32.5 6.5q19 32 40 67t45 74h19q-5 -38 -15 -84t-21 -80q-30 -12 -69 -20t-82 -8z" />
<glyph unicode="D" horiz-adv-x="671" d="M329 572l-97 -457l-17 -79h62q78 0 139.5 33.5t104.5 90t66 128t23 148.5q0 98 -52 156t-158 58h-54zM276 0h-223l-2 20l59 15q18 5 26 12.5t12 23.5l9 44l97 457v0l15 71l-78 23l4 20h220q84 0 145.5 -31t95 -88.5t33.5 -136.5q0 -81 -27.5 -158t-80 -138.5 t-129.5 -97.5t-176 -36z" />
<glyph unicode="E" horiz-adv-x="581" d="M329 572l-45 -210l206 5l-11 -46l-202 6l-45 -212l-17 -81h137q28 0 55.5 1.5t46.5 3.5q16 29 33.5 62.5t44.5 80.5h19q-3 -39 -14 -91.5t-26 -90.5h-458l-2 20l59 15q18 5 26 12.5t12 23.5l9 44l97 457l15 71l-78 23l4 20h433q-1 -39 -12.5 -89t-25.5 -93h-19 q-6 47 -10 80.5t-8 62.5q-16 1 -44 2.5t-56 1.5h-107z" />
<glyph unicode="F" horiz-adv-x="521" d="M216 43l98 -23l-4 -20h-257l-2 20l59 15q16 5 24.5 12.5t12.5 23.5l10 44v0l96 457l15 71l-77 23l4 20h433q-1 -39 -12 -89t-26 -93h-18l-9 71q-4 36 -9 72q-18 1 -46 2.5t-55 1.5h-108l-16 -79l-47 -223l207 6l-12 -46l-203 5l-42 -199z" />
<glyph unicode="G" horiz-adv-x="641" d="M385 31q51 0 89 13l35 161l15 72l-78 23l4 20h235l2 -20l-59 -14q-17 -4 -25 -12t-11 -25l-11 -44h1l-40 -185q-33 -13 -72.5 -21.5t-92.5 -8.5q-82 0 -142.5 32.5t-94 93.5t-33.5 147q0 93 32.5 171.5t89 137.5t128.5 91.5t151 32.5q49 0 87 -6.5t72 -19.5 q-2 -23 -8.5 -53t-15 -60.5t-17.5 -55.5h-18q-7 43 -12 77.5t-10 65.5q-20 7 -39.5 9t-44.5 2q-60 0 -116.5 -29.5t-101.5 -83t-72 -124.5t-27 -155q0 -67 24.5 -119.5t69 -82.5t106.5 -30z" />
<glyph unicode="H" horiz-adv-x="760" d="M216 43l79 -23l-4 -20h-238l-2 20l59 15q17 5 25 12.5t12 23.5l10 44v0l96 457l16 71l-78 23l4 20h237l2 -20l-59 -15q-16 -5 -24.5 -12.5t-11.5 -23.5l-11 -43h1l-43 -204h321l43 204l16 71l-78 23l4 20h237l2 -20l-59 -15q-16 -5 -24.5 -12.5t-12.5 -23.5l-10 -43h1 l-97 -457l-16 -72l79 -23l-4 -20h-238l-2 20l59 15q16 5 24.5 12.5t12.5 23.5l10 44v0l45 213h-322l-45 -213z" />
<glyph unicode="I" horiz-adv-x="365" d="M216 43l79 -23l-4 -20h-238l-2 20l59 15q17 5 25 12.5t12 23.5l10 44v0l96 457l16 71l-78 23l4 20h237l2 -20l-59 -15q-16 -5 -24.5 -12.5t-11.5 -23.5l-11 -43h1l-97 -457z" />
<glyph unicode="J" horiz-adv-x="354" d="M271 643l-79 23l4 20h238l2 -20l-59 -15q-17 -5 -25 -12.5t-12 -23.5l-10 -43v0l-105 -496q-14 -64 -41 -108.5t-66 -76.5t-87 -61l-14 18q34 36 60 70t45.5 78.5t33.5 111.5l99 464z" />
<glyph unicode="K" horiz-adv-x="655" d="M216 43l79 -23l-4 -20h-238l-2 20l59 15q17 5 25 12.5t12 23.5l10 44v0l96 457l16 71l-78 23l4 20h237l2 -20l-59 -15q-16 -5 -24.5 -12.5t-11.5 -23.5l-11 -43h1l-45 -211l113 1l240 281l-83 23l4 20h216l2 -20l-60 -17q-17 -5 -29.5 -14t-28.5 -26l-208 -237l83 -237 q18 -52 35.5 -74t46.5 -31l31 -10l-4 -20l-78 -1q-41 0 -59 17.5t-30 50.5l-86 256h-113l-44 -208z" />
<glyph unicode="L" horiz-adv-x="552" d="M269 643l-78 23l4 20h237l2 -20l-59 -15q-16 -5 -24.5 -12.5t-11.5 -23.5l-11 -43h1l-97 -457l-17 -80h119q27 0 55 1t47 3q17 31 35 67t45 84h18q-3 -41 -14 -94.5t-26 -95.5h-441l-2 20l59 15q18 5 26 12.5t12 23.5l9 44l96 457z" />
<glyph unicode="M" horiz-adv-x="985" d="M257 686h157l93 -578l333 578h156l-2 -20l-88 -25l-53 -596l77 -25l-6 -20h-231l1 20l55 15q29 10 32 36l44 511l-259 -450l-74 -132h-44l-21 133l-73 460l-183 -549l82 -24l-6 -20h-206l1 20l57 15q19 6 26 13t12 23l191 572l-77 23z" />
<glyph unicode="N" horiz-adv-x="722" d="M182 44l96 -23l-5 -21h-223l-3 21l61 15q19 5 27 12t12 23l10 44l111 526l-80 24l5 21h141l236 -575l97 461l16 70l-85 23l4 21h213l2 -21l-60 -15q-19 -5 -27.5 -12t-11.5 -23l-10 -43l-121 -572h-50l-240 583l-99 -468z" />
<glyph unicode="O" horiz-adv-x="605" d="M626 451q0 -61 -15 -125.5t-43.5 -124.5t-68 -107.5t-89.5 -75.5t-109 -28q-60 0 -104.5 30t-69.5 84.5t-25 129.5q0 63 15.5 128.5t44 125.5t69.5 107t91.5 74t108.5 27q92 0 143.5 -66.5t51.5 -178.5zM181 214q0 -81 32 -132.5t95 -51.5q44 0 81 28.5t66 77t49.5 107.5 t31.5 119.5t11 114.5q0 82 -28.5 131t-93.5 49q-44 0 -81.5 -28t-67.5 -75t-51.5 -105t-32.5 -119t-11 -116z" />
<glyph unicode="P" horiz-adv-x="556" d="M329 572l-57 -266h67q70 0 116.5 29.5t69.5 77t23 99.5q0 69 -38.5 102t-107.5 33h-58zM216 43l98 -23l-4 -20h-257l-2 20l59 15q16 5 24.5 12.5t12.5 23.5l10 44v0l96 457l15 71l-77 23l4 20h215q101 0 159 -45t58 -128q0 -75 -37.5 -130t-103.5 -85t-150 -30h-72 l-32 -153z" />
<glyph unicode="Q" horiz-adv-x="594" d="M614 -130q0 -30 -30 -44.5t-78 -14.5q-72 0 -149.5 16t-152 47t-137.5 76l13 26q4 0 9 -0.5t10 -0.5q101 0 182 39t138 106.5t87.5 154.5t30.5 183q0 93 -28 146t-98 53q-43 0 -82 -29.5t-70 -80t-48.5 -116.5t-17.5 -140q0 -60 13.5 -110.5t39.5 -92.5l-30 -20 q-41 32 -70 92t-29 139q0 83 24.5 155t67 126.5t96 85t112.5 30.5q95 0 147 -67.5t52 -182.5q0 -95 -33 -182t-95 -156.5t-149.5 -113.5t-196.5 -52q79 -33 163.5 -49t172.5 -16q41 0 73.5 6.5t52.5 12.5q10 -10 10 -26z" />
<glyph unicode="R" horiz-adv-x="634" d="M329 572l-51 -239h56q71 0 117.5 28t69.5 72.5t23 93.5q0 57 -37 88.5t-102 31.5h-60zM216 43l79 -23l-4 -20h-238l-2 20l59 15q17 5 25 12.5t12 23.5l10 44v0l97 457l15 71l-78 23l4 20h218q99 0 154 -42t55 -117q0 -74 -46.5 -129t-117.5 -81l59 -182 q16 -47 33.5 -70.5t47.5 -34.5l28 -10l-4 -20l-74 -1q-42 0 -60.5 17t-28.5 51l-73 232q-23 -4 -48 -4h-68l-38 -180z" />
<glyph unicode="S" horiz-adv-x="465" d="M215 -10q-39 0 -74.5 5.5t-59 14.5t-28.5 19q-4 8 -4 21q0 26 11 62.5t28 68.5l19 -1q0 -10 -0.5 -18.5t-0.5 -15.5q0 -33 4.5 -52t13.5 -32q15 -20 41.5 -27.5t55.5 -7.5q46 0 80 20.5t53 53.5t19 71q0 36 -16.5 64.5t-43 52.5t-56 47t-55.5 48.5t-42.5 56.5t-16.5 72 q0 54 31.5 95.5t83 64.5t110.5 23q61 0 98.5 -12.5t46.5 -23.5q5 -5 5 -14q0 -15 -6 -40t-15.5 -51.5t-20.5 -46.5h-19q1 12 1.5 22t0.5 19q0 54 -13 74q-12 17 -33 26t-55 9q-40 0 -71.5 -17.5t-50 -47.5t-18.5 -66q0 -34 16.5 -61.5t43 -51t56 -47t55.5 -49.5t42.5 -58 t16.5 -72q0 -53 -28 -98t-80 -72.5t-125 -27.5z" />
<glyph unicode="T" horiz-adv-x="572" d="M320 43l79 -23l-4 -20h-238l-2 20l59 15q17 5 25 12.5t12 23.5l10 44v0l113 534h-61q-28 0 -57.5 -2.5t-50.5 -6.5q-10 -16 -20.5 -36t-24.5 -49l-26 -51h-19q3 45 14 94.5t26 87.5h530q-2 -38 -13 -89.5t-25 -92.5h-19l-5 51q-1 28 -3.5 48.5t-4.5 36.5q-20 4 -48.5 6.5 t-56.5 2.5h-61l-113 -534z" />
<glyph unicode="U" horiz-adv-x="668" d="M601 240q-27 -127 -93 -188.5t-166 -61.5q-86 0 -141 48t-55 135q0 16 1.5 35.5t5.5 40.5l69 323l16 71l-79 23l4 20h238l2 -20l-59 -15q-17 -5 -25 -12.5t-12 -23.5l-10 -43v0l-69 -327q-4 -18 -5.5 -35t-1.5 -33q0 -70 39 -108t102 -38q68 0 121 50.5t76 158.5l72 334 l15 68l-85 23l4 21h213l2 -21l-94 -23l-15 -68z" />
<glyph unicode="V" horiz-adv-x="667" d="M345 0h-44l-76 611q-3 20 -9.5 28.5t-21.5 12.5l-51 14l2 20h232l4 -20l-86 -22l67 -540l295 540l-81 22l4 20h204l3 -20l-56 -16q-17 -4 -27 -13t-20 -25z" />
<glyph unicode="W" horiz-adv-x="1011" d="M336 0h-45l-66 611q-3 20 -9.5 28.5t-21.5 12.5l-51 14l2 20h232l4 -20l-86 -22l57 -538l237 435l-9 70q-2 20 -8.5 28.5t-21.5 12.5l-52 14l3 20h232l4 -20l-86 -22l64 -538l286 538l-82 22l4 20h205l3 -20l-56 -16q-18 -4 -28 -13t-19 -25l-329 -612h-45l-57 475z" />
<glyph unicode="X" horiz-adv-x="665" d="M233 0h-216l-2 20q16 4 31 9t30 9q16 5 28.5 13t28.5 26l224 264l-116 270q-8 18 -15 26t-20 12q-11 5 -23 9t-26 8l2 20h230l4 -20l-85 -23l110 -255l211 255l-81 23l4 20h215l3 -20q-31 -8 -60 -17q-18 -6 -30.5 -15t-26.5 -25l-219 -258l119 -276q8 -18 13.5 -26 t18.5 -12q23 -9 50 -17l-2 -20h-229l-4 20l85 23l-112 261l-217 -261l81 -23z" />
<glyph unicode="Y" horiz-adv-x="634" d="M347 43l79 -23l-4 -20h-238l-2 20l59 15q17 5 25.5 12.5t11.5 23.5l10 44v0l17 79q9 43 8 101t-10 118.5t-24 112t-33.5 83.5t-37.5 32t-42 -28.5t-44 -61.5l-14 7q15 36 35.5 67.5t44.5 51t52 19.5q32 0 58 -32t45 -87t29.5 -123.5t12.5 -142.5q36 76 75 145t76.5 123 t72 85.5t62.5 31.5q23 0 38 -20t23 -51t11 -63l-16 -5q-10 36 -24 60t-34 24q-17 0 -42.5 -23t-55.5 -62.5t-60.5 -88t-57.5 -100.5t-47 -100.5t-29 -86.5l-14 -65z" />
<glyph unicode="Z" horiz-adv-x="588" d="M508 0h-451l1 35l499 615h-186q-27 0 -55 -1t-48 -3l-79 -142h-18q1 46 12 95.5t25 86.5h443l-1 -34l-499 -616h195q27 0 55 1t47 4l81 141h18q-2 -43 -13 -91.5t-26 -90.5z" />
<glyph unicode="[" horiz-adv-x="391" d="M279 -194h-193l202 954h194l-6 -26h-121l-192 -902h122z" />
<glyph unicode="\" horiz-adv-x="474" d="M332 -10l-108 753l9 8l43 5l109 -753l-8 -8z" />
<glyph unicode="]" horiz-adv-x="391" d="M208 760h194l-203 -954h-193l5 26h122l192 902h-122z" />
<glyph unicode="^" horiz-adv-x="526" d="M110 210h-58l216 336h58l76 -336h-55l-62 277z" />
<glyph unicode="_" horiz-adv-x="503" d="M-1 -146l10 43h418l-10 -43h-418z" />
<glyph unicode="`" horiz-adv-x="404" d="M376 589l-13 -12q-38 23 -75 50.5t-60.5 54t-20.5 45.5q2 15 15.5 23t35.5 8h5h6l6 -4q12 -31 40 -76.5t61 -88.5z" />
<glyph unicode="a" horiz-adv-x="501" d="M405 134q-5 -21 -8 -37.5t-3 -25.5q0 -26 18 -26q12 0 27.5 13.5t32.5 33.5t32 41l9 -6q-14 -29 -35 -61t-47 -54t-54 -22q-29 0 -43 18t-14 48q0 14 3.5 33t8.5 45l25 113v0q-18 -39 -42.5 -83.5t-52.5 -84t-58.5 -64.5t-60.5 -25q-35 0 -57 31.5t-22 90.5 q0 77 23.5 148t65 126.5t95.5 87.5t114 32q35 0 66.5 -7.5t54.5 -18.5l-6 -19zM139 120q0 -30 9 -49.5t25 -19.5q19 0 43 23.5t49 60.5t48 79.5t41 82.5t27 67l20 89q-28 19 -66 19q-36 0 -70.5 -29.5t-63 -79.5t-45.5 -113t-17 -130z" />
<glyph unicode="b" horiz-adv-x="463" d="M400 506q39 1 59 -34t20 -93q0 -76 -20 -146t-56.5 -125t-85 -86.5t-105.5 -31.5q-35 0 -69.5 7t-70.5 20l6 19l130 595l15 68l-74 16v11q35 9 74.5 16.5t75.5 12.5l8 -8l-26 -116q-21 -92 -42 -184.5t-43 -182.5l35.5 71t47 80t57 65t64.5 26zM366 444 q-18 0 -39.5 -20.5t-43.5 -54t-42 -71.5t-36 -73t-25 -59l-27 -122q15 -8 32.5 -13t41.5 -5q37 0 69 30.5t56.5 81t38 111.5t13.5 122q0 73 -38 73z" />
<glyph unicode="c" horiz-adv-x="377" d="M325 506q44 0 70 -26.5t26 -67.5q0 -34 -17.5 -61t-43.5 -27q-7 0 -13.5 2t-11.5 5q7 15 13.5 38.5t6.5 45.5q0 25 -10 40t-35 15q-30 0 -58.5 -27t-52.5 -71.5t-38 -99t-14 -109.5q0 -57 21 -88t62 -31q33 0 70 25.5t75 69.5l8 -6q-33 -61 -81 -102t-104 -41 q-63 0 -94.5 43t-31.5 119q0 68 21.5 131.5t57.5 113.5t81 79.5t93 29.5z" />
<glyph unicode="d" horiz-adv-x="501" d="M405 134q-5 -21 -8 -37.5t-3 -25.5q0 -26 18 -26q12 0 27.5 13.5t32.5 33.5t32 41l9 -6q-14 -29 -35 -61t-47 -54t-54 -22q-29 0 -43 18t-14 48q0 14 3.5 33t8.5 45l26 116q-18 -39 -42 -84t-53 -85t-59.5 -65.5t-60.5 -25.5q-35 0 -57 31.5t-22 90.5q0 77 23.5 148 t65 126.5t95.5 87.5t114 32q25 0 51 -4l30 129l14 67l-93 17v11q23 6 53.5 11.5t61 10t54.5 7.5l8 -8l-26 -116zM139 120q0 -30 9 -49.5t25 -19.5q19 0 43 23.5t49 61t48 80t41 82t27 66.5l20 89q-28 19 -66 19q-36 0 -70.5 -29.5t-63 -79.5t-45.5 -113t-17 -130z" />
<glyph unicode="e" horiz-adv-x="383" d="M379 133q-34 -62 -81.5 -102.5t-103.5 -40.5q-60 0 -90.5 45.5t-30.5 124.5q0 64 21 126t56.5 111.5t80 79t91.5 29.5q44 0 69 -24.5t25 -64.5q0 -41 -22 -74.5t-59.5 -58t-84.5 -38.5t-97 -15l2 14q-7 -41 -7 -80q0 -56 20.5 -88.5t58.5 -32.5q33 0 69.5 25.5t74.5 69.5 zM310 470q-32 0 -62.5 -29t-54 -77t-35.5 -105q55 5 98 28.5t68 59t25 76.5q0 21 -10 34t-29 13z" />
<glyph unicode="f" horiz-adv-x="314" d="M165 -1q-25 -119 -80.5 -187t-133.5 -68q-41 0 -67 18.5t-26 45.5q0 12 6 21.5t15 13.5q15 -20 36.5 -36t49.5 -16q49 0 76.5 49t46.5 142l100 471h-70l2 14l75 22h1l4 19q24 115 82 181.5t134 66.5q43 0 69.5 -20t26.5 -47q0 -18 -10 -29t-21 -16q-17 25 -41 46t-54 21 q-33 0 -53 -24.5t-33 -68t-25 -100.5l-7 -30h128l-8 -35h-127z" />
<glyph unicode="g" horiz-adv-x="401" d="M281 506q63 0 115 2.5t85 10.5q6 -10 6 -23q0 -15 -9 -26.5t-31 -11.5q-16 0 -41 5.5t-59 13.5q26 -19 37.5 -45.5t11.5 -59.5q0 -57 -20.5 -100t-51 -74.5t-61 -55t-51.5 -41.5t-21 -33q0 -14 14 -23.5t38 -22.5q54 -31 86.5 -57t32.5 -69q0 -36 -26 -71t-76 -58 t-121 -23q-81 0 -127 32t-46 77q0 35 26 64t67 54l9 -9q-15 -18 -26.5 -38t-11.5 -44q0 -47 38 -74.5t91 -27.5q59 0 97 27.5t38 68.5q0 27 -23.5 46.5t-65.5 44.5q-35 20 -60 37.5t-25 44.5q0 23 25.5 45.5t72.5 55.5h-5q-57 0 -93 37t-36 98q0 60 26.5 111t71 81.5 t99.5 30.5zM155 288q0 -49 18 -77.5t47 -28.5q28 0 52 29.5t38.5 76t14.5 98.5q0 40 -15 63.5t-43 23.5q-32 0 -57 -28t-40 -70.5t-15 -86.5z" />
<glyph unicode="h" horiz-adv-x="510" d="M74 13l26 121l108 498l15 68l-74 16v10q35 10 74.5 17.5t75.5 12.5l8 -8l-26 -116q-21 -95 -43.5 -189t-46.5 -188q60 122 114 186.5t108 64.5q34 0 50 -23t16 -53q0 -23 -7 -59t-18 -78t-22 -83.5t-20 -75.5q-4 -21 -7 -37.5t-3 -25.5q0 -26 18 -26q12 0 27.5 13.5 t32.5 33.5t32 41l8 -6q-14 -29 -35 -61t-46.5 -54t-54.5 -22t-42.5 18t-13.5 48q0 14 3 33t9 45q8 34 18.5 74.5t21 79.5t17.5 71.5t7 51.5q0 16 -6.5 26t-21.5 10q-19 0 -41.5 -20.5t-45.5 -53.5t-44.5 -71t-38 -73.5t-26.5 -60.5l-7 -34l-29 -136l-32 -4q-6 -1 -16 -2 t-15 -1q-9 0 -9 6.5t2 15.5z" />
<glyph unicode="i" horiz-adv-x="298" d="M256 607q-17 0 -28.5 11t-11.5 31q0 29 18 50t44 21q17 0 28.5 -11t11.5 -30q0 -30 -18 -51t-44 -21zM199 134q-4 -21 -7 -37.5t-3 -25.5q0 -26 17 -26q12 0 28 13.5t32.5 33.5t31.5 41l9 -6q-14 -29 -35 -61t-47 -54t-54 -22q-29 0 -42.5 18t-13.5 48q0 14 3 33t8 45 q11 52 26.5 114.5t27.5 113.5q4 22 7 38t3 26q0 25 -18 25q-11 0 -27 -13.5t-32.5 -33.5t-31.5 -41l-9 6q14 30 35 61.5t47 53.5t54 22q29 0 42.5 -18t13.5 -48q0 -14 -3 -33t-8 -45q-12 -53 -27.5 -115.5t-26.5 -112.5z" />
<glyph unicode="j" horiz-adv-x="259" d="M246 607q-17 0 -28.5 11t-11.5 31q0 29 18 50t44 21q17 0 28.5 -11t11.5 -30q0 -30 -18 -51t-44 -21zM173 362q4 22 7 38t3 26q0 25 -18 25q-12 0 -27.5 -13.5t-32.5 -33.5t-32 -41l-8 6q14 30 35 61.5t46.5 53.5t54.5 22q28 0 42 -18t14 -48q0 -14 -3 -33t-9 -45 l-76 -363q-24 -119 -80 -187t-134 -68q-41 0 -67 18.5t-26 45.5q0 12 6.5 21.5t15.5 13.5q15 -20 36 -36t49 -16q49 0 76.5 49t46.5 142z" />
<glyph unicode="k" horiz-adv-x="490" d="M74 13l26 121l108 497l15 68l-74 16v11q35 9 74.5 16.5t75.5 12.5l8 -8l-26 -116q-21 -95 -43.5 -188t-45.5 -186q53 114 112.5 182t121.5 67q40 0 59.5 -22.5t19.5 -53.5q0 -35 -19 -67t-49 -59.5t-63 -48t-61 -33.5q27 -68 46 -106.5t33 -54.5t26 -16q10 0 25.5 13.5 t33 33.5t33.5 41l8 -6q-14 -29 -35.5 -61t-47 -54t-52.5 -22t-48 21t-42.5 69.5t-49.5 130.5l5 9q43 17 85 47t70 68t28 78q0 16 -8.5 27t-27.5 11q-32 0 -68.5 -35t-74 -99t-72.5 -149l-7 -34l-29 -136l-32 -4q-6 -1 -16 -2t-15 -1q-9 0 -9 6.5t2 15.5z" />
<glyph unicode="l" horiz-adv-x="269" d="M173 134q-5 -21 -8 -37.5t-3 -25.5q0 -26 18 -26q12 0 27.5 13.5t32.5 33.5t32 41l8 -6q-13 -29 -34 -61t-47 -54t-55 -22q-28 0 -42 18t-14 48q0 14 3 33t9 45l108 497l15 68l-74 16v11q35 9 74.5 16.5t75.5 12.5l8 -8l-26 -116z" />
<glyph unicode="m" horiz-adv-x="781" d="M104 13l26 121l50 227q10 46 10 64q0 26 -17 26q-18 0 -43.5 -28t-48.5 -60l-9 6q14 29 35 61t46.5 54t53.5 22t41.5 -17.5t13.5 -45.5q0 -18 -10 -65t-25 -104q19 35 42.5 75.5t50.5 76t57.5 58t64.5 22.5q31 0 47 -21.5t16 -52.5q0 -24 -9 -65t-24 -98q17 35 40 76 t50.5 78t57.5 60t63 23q34 0 50.5 -23t16.5 -53q0 -23 -7 -59t-18 -78t-22 -83.5t-19 -75.5q-5 -21 -8 -37.5t-3 -25.5q0 -26 18 -26q12 0 27.5 13.5t32.5 33.5t32 41l9 -6q-14 -29 -35 -61t-47 -54t-54 -22q-29 0 -42.5 18t-13.5 48q0 14 3 33t8 45q8 34 19 74.5t21.5 80 t17.5 72t7 51.5q0 15 -7 25t-22 10q-19 0 -42 -21t-46 -54.5t-44.5 -72t-38 -74t-25.5 -59.5l-9 -32l-28 -136l-32 -4q-7 -1 -16.5 -2t-14.5 -1q-9 0 -9 6.5t1 15.5l27 121q8 35 18.5 75.5t21.5 80t18 71.5t7 51q0 15 -7 25t-22 10q-19 0 -41.5 -20.5t-45.5 -53.5t-44.5 -71 t-38 -73.5t-26.5 -60.5l-7 -34l-29 -136l-32 -4q-6 -1 -16 -2t-15 -1q-8 0 -8.5 6.5t1.5 15.5z" />
<glyph unicode="n" horiz-adv-x="540" d="M104 13l26 121q13 58 25.5 115t24.5 112q10 46 10 64q0 26 -17 26q-18 0 -43.5 -28t-48.5 -60l-9 6q14 29 35 61t46.5 54t53.5 22t41.5 -17.5t13.5 -45.5q0 -23 -11.5 -74t-24.5 -108q17 33 40 75t51 80.5t59.5 64t65.5 25.5t50 -23t16 -53q0 -23 -7 -59t-17.5 -78 t-21.5 -83.5t-20 -75.5q-4 -21 -7 -37.5t-3 -25.5q0 -26 18 -26q12 0 27.5 13.5t32.5 33.5t32 41l8 -6q-14 -29 -35 -61t-46.5 -54t-54.5 -22q-28 0 -42 18t-14 48q0 14 3 33t9 45q8 34 19 74.5t21.5 79.5t17.5 71.5t7 51.5q0 16 -7 26t-22 10q-19 0 -41 -20.5t-45 -53 t-44.5 -70.5t-38 -73t-26.5 -61l-8 -35l-29 -136l-32 -4q-6 -1 -16 -2t-15 -1q-8 0 -8.5 6.5t1.5 15.5z" />
<glyph unicode="o" horiz-adv-x="433" d="M439 329q0 -72 -19 -133.5t-51 -108t-73 -72t-85 -25.5q-61 0 -98 49.5t-37 130.5q0 67 19 127.5t51.5 107.5t73.5 74t85 27q66 0 100 -48t34 -129zM151 155q0 -60 17.5 -95t49.5 -35q30 0 56.5 29.5t46.5 78t31.5 105.5t11.5 112q0 54 -14.5 87.5t-49.5 33.5 q-30 0 -57 -29.5t-48 -77t-32.5 -102.5t-11.5 -107z" />
<glyph unicode="p" horiz-adv-x="493" d="M50 -234l26 121l97 443q7 33 12 58.5t5 36.5q0 26 -17 26q-18 0 -43.5 -28t-48.5 -60l-9 6q14 29 35 61t46.5 54t53.5 22t41.5 -17.5t13.5 -45.5q0 -17 -6.5 -48t-14.5 -66.5t-15 -65.5q15 31 36 71.5t47 80t56.5 65.5t64.5 26q39 1 59 -34t20 -93q0 -76 -20 -146 t-56.5 -125t-85 -86.5t-105.5 -31.5q-35 0 -69 7l-24 -110l-29 -136l-32 -4q-6 -1 -16 -2t-15 -1q-8 0 -8.5 6.5t1.5 15.5zM397 444q-19 0 -40 -20.5t-43 -54t-42.5 -71.5t-36.5 -73t-25 -58l-27 -123q15 -8 33 -13t41 -5q37 0 69 30.5t56.5 81t38 111.5t13.5 122 q0 73 -37 73z" />
<glyph unicode="q" horiz-adv-x="458" d="M252 -234l27 121l78 360v0q-18 -39 -42.5 -83.5t-52.5 -84t-58.5 -64.5t-60.5 -25q-35 0 -57 31.5t-22 90.5q0 77 23.5 148t65 126.5t95.5 87.5t114 32q35 0 66.5 -7.5t54.5 -18.5l-6 -19l-126 -574l-28 -136l-32 -4q-7 -1 -16.5 -2t-15.5 -1q-8 0 -8 6.5t1 15.5z M139 120q0 -30 9 -49.5t25 -19.5q19 0 43 23.5t49 60.5t48 79.5t41 82.5t27 67l20 89q-28 19 -66 19q-36 0 -70.5 -29.5t-63 -79.5t-45.5 -113t-17 -130z" />
<glyph unicode="r" horiz-adv-x="408" d="M104 13l26 121q20 91 32 146.5t18 84.5t8 42t2 18q0 26 -17 26q-18 0 -43.5 -28t-48.5 -60l-9 6q14 29 35 61t46.5 54t53.5 22t41.5 -17.5t13.5 -45.5q0 -20 -10.5 -68t-23.5 -102q18 37 39 77.5t45 76t51 57.5t56 22q24 0 36.5 -12.5t12.5 -30.5q0 -21 -8.5 -39 t-16.5 -27q-11 12 -24.5 21t-31.5 9q-20 0 -43 -22t-45.5 -56t-41.5 -71.5t-31.5 -68t-15.5 -44.5l-7 -31l-29 -136l-32 -4q-6 -1 -16 -2t-15 -1q-8 0 -8.5 6.5t1.5 15.5z" />
<glyph unicode="s" horiz-adv-x="381" d="M353 132q0 -61 -44.5 -101.5t-121.5 -40.5q-58 0 -97.5 26.5t-39.5 70.5q0 31 18 54t43 37l8 -7q-5 -16 -8.5 -32t-2.5 -35q3 -37 27.5 -59t61.5 -22q36 0 60.5 22t24.5 63q0 31 -16 55.5t-40 47.5t-48 47t-40 52.5t-16 65.5t20 66.5t55 46.5t78 17q59 0 92 -25.5 t33 -61.5q0 -29 -16 -54t-37 -39l-9 6q7 37 6 63q-5 80 -72 80q-33 0 -56 -22.5t-23 -58.5q0 -30 16.5 -55.5t40 -49l47.5 -47.5t40 -50.5t16 -59.5z" />
<glyph unicode="t" horiz-adv-x="344" d="M186 -10q-38 0 -58.5 26.5t-20.5 71.5q0 14 1.5 30t4.5 33l65 302h-82l2 14l88 26l89 146l15 -1l-32 -150h148l-8 -35h-148l-63 -296q-6 -30 -6 -55q0 -58 43 -58q32 0 67 26t72 69l8 -6q-32 -59 -79 -101t-106 -42z" />
<glyph unicode="u" horiz-adv-x="547" d="M187 362q4 22 7 38t3 26q0 25 -18 25q-12 0 -27.5 -13.5t-32 -33.5t-32.5 -41l-8 6q14 30 35 61.5t47 53.5t54 22q29 0 42.5 -18t13.5 -48q0 -14 -3 -33t-8 -45q-9 -36 -19.5 -76t-21 -78.5t-17 -69.5t-6.5 -49q0 -17 6.5 -27.5t19.5 -10.5q17 0 38.5 19.5t44.5 51t45 69 t40.5 75.5t30.5 70l6 27h1l29 136l31 4q7 1 17 2t15 1q8 0 8 -6.5t-1 -15.5l-27 -121l-50 -229q-4 -21 -7 -37.5t-3 -25.5q0 -26 18 -26q12 0 27.5 13.5t32.5 33.5t32 41l8 -6q-14 -29 -35 -61t-46.5 -54t-54.5 -22t-42.5 18t-13.5 48q0 14 3 33t9 45l22 100v0 q-14 -29 -36 -70.5t-50.5 -81t-60.5 -66t-64 -26.5q-33 0 -50 23t-17 58q0 22 7 57t17.5 75.5t21 81.5t19.5 77z" />
<glyph unicode="v" horiz-adv-x="417" d="M184 -2l-34 2q8 113 14 194t6 130q0 70 -8.5 98.5t-27.5 28.5q-20 0 -44.5 -27t-48.5 -61l-9 6q16 32 37 64t46.5 52.5t54.5 20.5q69 0 69 -129q0 -36 -3 -87t-7.5 -108.5t-11.5 -110.5q48 66 85.5 137.5t59 137t21.5 114.5q0 13 -0.5 22.5t-1.5 15.5q13 8 31 8 q21 0 33.5 -12.5t12.5 -37.5q0 -30 -15.5 -73t-43 -93.5t-62.5 -103t-74.5 -101.5t-78.5 -87z" />
<glyph unicode="w" horiz-adv-x="654" d="M697 459q0 -28 -16.5 -71t-44.5 -94t-64.5 -104.5t-77 -103t-79.5 -88.5l-35 2q8 113 14 194t6 130v23q-33 -94 -89 -186t-127 -163l-34 2q8 113 14 194t6 130q0 70 -8.5 98.5t-27.5 28.5q-20 0 -44.5 -27t-48.5 -61l-9 6q16 32 37 64t46.5 52.5t54.5 20.5q69 0 69 -129 q0 -36 -3 -87t-7.5 -108.5t-11.5 -110.5q56 75 92.5 149.5t56.5 141t24 118.5q0 10 -2 19q6 3 13.5 5t17.5 2q28 0 39.5 -24.5t11.5 -92.5q0 -39 -3 -92.5t-8 -112t-11 -113.5q49 66 88 137.5t62 138.5t23 120q0 16 -2 31q13 8 32 8q20 0 33 -11.5t13 -35.5z" />
<glyph unicode="x" horiz-adv-x="449" d="M326 161q12 -47 20 -72t14.5 -34.5t15.5 -9.5t23 13.5t29 34t29 40.5l8 -6q-13 -31 -32.5 -62.5t-42 -53t-45.5 -21.5q-24 0 -37.5 16.5t-25.5 54t-29 100.5l-17 64q-43 -51 -75.5 -103.5t-32.5 -103.5v-13.5t1 -11.5q-14 -7 -31 -7t-30 10.5t-13 31.5q0 31 26 69t66 78 t82 76l-22 82q-18 70 -27.5 94t-23.5 24q-10 0 -23.5 -13.5t-28.5 -34t-29 -40.5l-8 6q14 31 33 62.5t42 53t46 21.5t37 -17t26 -55t29 -101l16 -59q42 51 74 102.5t32 101.5q0 7 -0.5 13.5t-0.5 11.5q5 2 13 4.5t17 2.5q20 0 32 -11t12 -31q0 -31 -25.5 -68.5t-65 -77 t-81.5 -75.5z" />
<glyph unicode="y" horiz-adv-x="429" d="M166 506q82 0 82 -164q0 -66 -14 -153t-41 -171q94 90 143 200t49 219q0 37 -5 60q11 9 30 9q50 0 50 -71q0 -69 -32.5 -151t-95.5 -164.5t-156 -150.5q-24 -62 -56 -113.5t-71 -81.5t-84 -30q-37 0 -59.5 16t-22.5 40q0 12 6.5 21t15.5 14q13 -18 29 -29t38 -11 q36 0 64 28.5t49.5 76t38.5 104.5q17 59 28 120.5t16.5 115.5t5.5 89q0 62 -11.5 92t-30.5 30q-18 0 -39.5 -27t-43.5 -61l-9 6q13 32 32.5 63.5t43.5 52.5t50 21z" />
<glyph unicode="z" horiz-adv-x="405" d="M127 19q-45 0 -79 -29l-21 24q84 102 158.5 191t147.5 189q-39 16 -80 28t-65 12q-28 0 -47 -22t-43 -66l-11 5q19 72 37.5 113.5t59.5 41.5q40 0 86.5 -25.5t84.5 -55.5q29 40 56 81q33 -8 33 -35q0 -13 -6.5 -23.5t-21.5 -26.5q-50 -62 -98.5 -118.5t-99.5 -114 t-106 -121.5q14 5 30 7t34 2q16 0 43 -4.5t53 -8.5t40 -4t24.5 10t22.5 28q16 21 35 52l10 -5q-7 -20 -14.5 -42t-16.5 -42q-13 -30 -28 -50t-37 -20q-21 0 -54.5 7t-67.5 14.5t-59 7.5z" />
<glyph unicode="{" horiz-adv-x="416" d="M308 -173l-6 -22q-164 0 -164 100q0 34 14 73t32 78.5t32 76t14 66.5q0 66 -75 69h-12l6 27h12q47 1 73 24t36.5 60.5t10.5 81.5q1 21 0.5 41t-0.5 41q0 111 52.5 163t169.5 52l-1 -22q-78 -4 -110 -45t-34 -125q-3 -25 -2.5 -50.5t-1.5 -51.5q-3 -72 -31 -118.5 t-85 -64.5q33 -11 48 -33.5t15 -52.5q0 -28 -13.5 -67t-31 -81t-31.5 -79.5t-14 -62.5q0 -37 23.5 -56t73.5 -22z" />
<glyph unicode="|" horiz-adv-x="320" d="M79 -254l-5 7l212 995l36 6l6 -7l-212 -995z" />
<glyph unicode="}" horiz-adv-x="416" d="M204 736l6 22q164 0 164 -99q0 -35 -14 -74t-32 -78.5t-32 -76t-14 -66.5q0 -66 75 -69h12l-6 -27h-12q-47 -1 -73 -24t-36.5 -60.5t-10.5 -81.5q-1 -21 -0.5 -41t0.5 -41q0 -111 -52.5 -163t-169.5 -52l1 22q78 4 110 45t34 125q3 25 2.5 50.5t1.5 51.5q3 72 31 118.5 t85 64.5q-33 11 -48 33.5t-15 52.5q0 28 13.5 67t31.5 81t31.5 79.5t13.5 63.5q0 36 -23.5 55.5t-73.5 21.5z" />
<glyph unicode="~" horiz-adv-x="543" d="M187 285q-9 0 -29.5 -18.5t-44.5 -42.5l-27 20q15 20 34.5 42t40.5 37.5t40 15.5q14 0 46 -8t69.5 -19t69.5 -19t45 -8q9 0 29.5 18.5t45.5 42.5l27 -20q-16 -19 -35 -41.5t-40 -38t-41 -15.5q-10 0 -34 5.5t-53 13.5t-58.5 16t-52 13.5t-32.5 5.5z" />
<glyph unicode="&#xa1;" horiz-adv-x="295" d="M241 506q16 0 27 -10.5t11 -29.5q0 -29 -17 -49t-42 -20q-17 0 -27.5 10.5t-10.5 28.5q0 29 17 49.5t42 20.5zM144 -188l-5 -5q-16 -2 -32.5 -3.5t-29.5 -1.5q-21 0 -21 15q0 9 15 62l114 420h37z" />
<glyph unicode="&#xa2;" horiz-adv-x="453" d="M228 -137l-36 -3l-6 7l26 124q-67 7 -98.5 52.5t-31.5 116.5q0 63 20 126.5t55 118t80.5 91t94.5 47.5l30 134l36 3l6 -7l-28 -127q46 -3 73 -32t27 -75q0 -40 -17.5 -70.5t-43.5 -30.5q-10 0 -16.5 2.5t-11.5 5.5q6 17 13 44t7 52q0 30 -14 48t-41 18q-33 0 -67 -30.5 t-61.5 -80t-44.5 -108.5t-17 -116t24.5 -92.5t73.5 -35.5q38 0 79 28t80 74l9 -7q-30 -57 -74.5 -99t-98.5 -50z" />
<glyph unicode="&#xa3;" horiz-adv-x="581" d="M486 297h-182l-18 -82q-11 -51 -32 -99t-50 -82q43 -19 95.5 -46t109 -47t111.5 -20q20 0 35 3t28 8q5 -11 5 -24q0 -28 -22.5 -42t-57.5 -14q-39 0 -81 15.5t-85 40t-85.5 51t-81.5 47.5q-30 -23 -63 -23q-17 0 -27.5 8.5t-10.5 22.5q0 18 16 30.5t40 12.5q18 0 46 -11 q15 29 25.5 71.5t20.5 97.5q4 21 7.5 41t7.5 41h-117l9 43h116q5 28 10.5 55t10.5 53q24 117 79 182.5t133 65.5q37 0 64 -14t41.5 -36.5t14.5 -45.5q0 -22 -13 -34t-29 -16q-11 51 -33 79.5t-57 28.5q-50 0 -77.5 -53.5t-48.5 -146.5l-26 -118h182z" />
<glyph unicode="&#xa4;" horiz-adv-x="546" d="M508 151l-35 -24l-55 72q-28 -19 -60 -29.5t-65 -10.5q-32 0 -58 8.5t-44 23.5l-79 -65l-29 38l76 63q-21 37 -21 86q0 43 20.5 83t54.5 71l-51 67l37 30q14 -16 27.5 -33t27.5 -34q25 14 53.5 22.5t57.5 8.5q34 0 60.5 -9.5t45.5 -26.5l88 72l29 -38l-87 -71 q19 -35 19 -81q1 -40 -17 -77.5t-47 -66.5q15 -20 29.5 -37.5t24.5 -30.5zM193 314q0 -42 27 -74.5t82 -32.5q44 0 81 24t59.5 62.5t22.5 79.5q0 42 -27 74.5t-81 32.5q-45 0 -82 -24.5t-59.5 -62.5t-22.5 -79z" />
<glyph unicode="&#xa5;" horiz-adv-x="687" d="M151 130l9 41h166l6 28q6 28 8 64h-161l9 40h152q-1 57 -10 116t-24 109.5t-33.5 81.5t-38.5 31q-18 0 -41.5 -28.5t-43.5 -61.5l-15 7q16 36 36 67.5t44.5 51t51.5 19.5q32 0 58.5 -31.5t45.5 -85.5t30 -122t12 -141q37 75 75.5 143t76 121.5t71.5 84.5t62 31 q23 0 38.5 -20t23.5 -51t10 -63l-15 -5q-11 36 -24.5 60t-34.5 24q-19 0 -50 -31t-67 -81t-70.5 -109t-60.5 -117h156l-9 -40h-164q-18 -44 -25 -78l-3 -14h173l-9 -41h-173l-3 -15l-16 -72l78 -23l-4 -20h-237l-2 20l59 15q16 5 24.5 12.5t11.5 23.5l11 44h-1l4 15h-167z " />
<glyph unicode="&#xa6;" horiz-adv-x="320" d="M248 373l-37 -6l-5 7l80 374l36 6l6 -7zM116 -248l-36 -6l-6 7l80 373l36 6l6 -7z" />
<glyph unicode="&#xa7;" horiz-adv-x="537" d="M483 111q0 -58 -25 -109t-69.5 -90t-102.5 -61t-123 -22q-62 0 -99 21.5t-37 52.5q0 19 12.5 36.5t32.5 27.5l14 -2q27 -38 63 -63t84 -33q29 21 48 63t19 80q0 41 -18 81t-42 80q-9 14 -18 29t-17 29q-23 40 -43.5 87.5t-20.5 101.5q0 56 25.5 106t69.5 88.5t102 60 t123 21.5q61 0 98.5 -21.5t37.5 -51.5q0 -20 -13 -37.5t-32 -27.5l-14 2q-25 39 -61 64t-86 33q-29 -22 -48 -63.5t-19 -80.5q0 -40 17.5 -80t41.5 -79q9 -14 17.5 -28t17.5 -28q25 -42 45 -87.5t20 -99.5zM309 -95l6 -5q54 33 83 85.5t29 110.5q0 46 -17 88t-42 82 q-8 13 -16.5 27t-17.5 27q-25 41 -44 84.5t-19 90.5q0 71 44 125l-6 5q-54 -33 -82.5 -84t-28.5 -109q0 -45 16.5 -86.5t40.5 -81.5q8 -15 16.5 -28.5t17.5 -27.5q26 -43 45 -87.5t19 -92.5q0 -32 -11.5 -65.5t-32.5 -57.5z" />
<glyph unicode="&#xa8;" horiz-adv-x="479" d="M477 678q0 -27 -16 -47t-39 -20q-18 0 -29.5 12t-11.5 32q0 24 16 44.5t41 20.5q17 0 28 -11.5t11 -30.5zM275 678q0 -27 -16 -47t-39 -20q-18 0 -29 12t-11 32q0 24 15.5 44.5t40.5 20.5q17 0 28 -11.5t11 -30.5z" />
<glyph unicode="&#xa9;" horiz-adv-x="712" d="M341 -46q-74 0 -129 31.5t-85 87t-30 127.5t27.5 134.5t76.5 110t113 74.5t137 27t128.5 -31.5t86.5 -87t31 -127.5t-27.5 -134.5t-76.5 -110t-113.5 -74.5t-138.5 -27zM444 505q-63 0 -118.5 -23.5t-97.5 -65t-66 -96t-24 -116.5q0 -61 26 -108.5t74 -74t112 -26.5 q63 0 118.5 23.5t97.5 65t66 96t24 116.5q0 61 -26.5 108.5t-74 74t-111.5 26.5zM493 180q-25 -45 -58 -72.5t-69 -27.5q-51 0 -75.5 31t-24.5 79q0 43 16 84t43 74t59.5 52.5t64.5 19.5q39 0 57.5 -22.5t18.5 -49.5q0 -21 -11 -36t-29 -15q-6 0 -10.5 1.5t-8.5 4.5 q3 7 5.5 17.5t2.5 21.5q0 20 -8 31.5t-27 11.5q-27 0 -52.5 -28t-42 -71t-16.5 -89q0 -32 13.5 -52t45.5 -20q47 0 98 61z" />
<glyph unicode="&#xaa;" horiz-adv-x="419" d="M491 458q-11 -23 -27.5 -47.5t-37 -42t-43.5 -17.5q-22 0 -34 14.5t-12 39.5q0 19 10 61l17 84q-13 -31 -32 -65t-40.5 -64.5t-45 -50t-47.5 -19.5q-28 0 -46 26t-18 73q0 60 18 114.5t50.5 97t74.5 67.5t89 25q28 0 54 -6t45 -15l-5 -17l-54 -250q-3 -16 -5 -28t-2 -19 q0 -10 2.5 -16.5t10.5 -6.5q14 0 33.5 21.5t36.5 45.5zM198 457q0 -24 7 -39.5t20 -15.5q14 0 32 17.5t36.5 45.5t36 60t31 62.5t21.5 51.5l16 72q-21 15 -51 15q-27 0 -53 -23t-48 -61t-35 -86t-13 -99z" />
<glyph unicode="&#xab;" horiz-adv-x="543" d="M251 28l-18 -8q-18 40 -40 78.5t-42 69.5t-34 48l-4 7l12 51q47 40 102 95t106 111l14 -10q-35 -53 -79.5 -113t-88.5 -119q16 -39 36 -96t36 -114zM457 28l-18 -8q-19 40 -40.5 78.5t-41.5 69.5t-34 48l-4 7l12 51q46 40 101.5 95t106.5 111l13 -10q-34 -53 -78.5 -113 t-89.5 -119q16 -39 36.5 -96t36.5 -114z" />
<glyph unicode="&#xac;" d="M569 434l-45 -215h-52l36 171h-370l10 47q35 1 90 2t116 1.5t116.5 1t91.5 0.5z" />
<glyph unicode="&#xae;" horiz-adv-x="712" d="M341 -46q-74 0 -129 31.5t-85 87t-30 127.5t27.5 134.5t76.5 110t113.5 74.5t138.5 27q73 0 128 -31.5t85.5 -87t30.5 -127.5t-27.5 -134.5t-76.5 -110t-113.5 -74.5t-138.5 -27zM444 505q-63 0 -118.5 -23.5t-97.5 -65t-66 -96t-24 -116.5q0 -61 26 -108.5t74 -74 t112 -26.5q63 0 118.5 23.5t97.5 65t66 96t24 116.5q0 61 -26 108.5t-74 74t-112 26.5zM373 335l-18 -88h45q43 0 67.5 22t24.5 55q0 53 -73 53h-37zM366 91h-146l2 21l32 9q10 3 14 8t7 15l6 32l34 159l9 43l-42 12l4 20h146q56 0 88 -21.5t32 -61.5q0 -37 -24.5 -62 t-60.5 -38l20 -44q10 -23 19 -41.5t24 -22.5l23 -8l-3 -20l-49 -2q-26 -1 -37 9.5t-20 32.5l-36 84q-10 -1 -22 -1h-39l-8 -38l-10 -50l44 -14z" />
<glyph unicode="&#xaf;" horiz-adv-x="455" d="M182 643l11 46h257l-11 -46h-257z" />
<glyph unicode="&#xb0;" horiz-adv-x="370" d="M418 599q0 -38 -19.5 -70.5t-52 -52t-71.5 -19.5q-46 0 -73.5 26.5t-27.5 70.5q0 39 19.5 71t52 51.5t71.5 19.5q46 0 73.5 -26t27.5 -71zM218 560q0 -29 17.5 -47t46.5 -18q40 0 66.5 28t26.5 70q0 29 -17.5 47t-47.5 18q-40 0 -66 -28t-26 -70z" />
<glyph unicode="&#xb1;" d="M557 385h-179l-36 -170h-51l35 170h-175l11 47q30 1 76.5 1.5t98.5 1.5l34 165h52l-35 -164q52 0 99.5 0.5t79.5 0.5l6 -8zM497 81h-415l9 47q36 1 90.5 2t116 1.5t117 1t91.5 0.5l7 -8z" />
<glyph unicode="&#xb2;" horiz-adv-x="380" d="M198 362q-21 0 -37.5 -5t-30.5 -14l-11 29q99 63 158.5 111.5t86 87.5t26.5 73q0 30 -16.5 48.5t-48.5 18.5t-64.5 -20t-55.5 -51l-13 7q23 48 64.5 78.5t92.5 30.5q46 0 73.5 -26t27.5 -71q0 -41 -24 -79.5t-64.5 -74.5t-90.5 -68q-14 -8 -29 -16.5t-32 -16.5q11 1 23 1 q29 0 64 -7t54 -7q15 0 28.5 18.5t26.5 38.5l6 -4q-3 -14 -7.5 -28t-10.5 -26q-10 -21 -20.5 -34t-25.5 -13q-29 0 -69 9.5t-81 9.5z" />
<glyph unicode="&#xb3;" horiz-adv-x="361" d="M401 484q0 -38 -35.5 -68t-99 -49t-147.5 -24l-3 18q62 8 112.5 25t80.5 42t30 55q0 31 -24 45t-61 14q-22 0 -38 -3l-2 22q73 8 114 34t41 64q0 25 -16.5 40.5t-48.5 15.5q-30 0 -57.5 -15t-48.5 -41l-13 6q23 42 62 66.5t86 24.5q48 0 74 -21.5t26 -58.5q0 -42 -36 -71 t-88 -43q43 -5 67.5 -24.5t24.5 -53.5z" />
<glyph unicode="&#xb4;" horiz-adv-x="400" d="M335 756l7 3q3 0 6 -0.5t5 -0.5q41 -4 41 -28q0 -16 -20.5 -36.5t-53.5 -42t-71.5 -41t-74.5 -33.5l-10 15q35 27 68.5 57.5t60 58t42.5 48.5z" />
<glyph unicode="&#xb6;" horiz-adv-x="604" d="M460 68q-23 -115 -86.5 -177t-149.5 -62q-64 0 -104.5 29t-40.5 80q0 67 78 107l11 -10q-10 -17 -17.5 -38.5t-7.5 -39.5q0 -41 23.5 -66t70.5 -25q44 0 78 27t57.5 73.5t34.5 106.5l107 499l16 75h-77l-91 -422q-102 0 -161.5 51.5t-59.5 139.5q0 79 41.5 139.5 t114.5 95.5t166 35h210l2 -20l-62 -15q-16 -4 -24.5 -12t-11.5 -24l-10 -43v0z" />
<glyph unicode="&#xb7;" horiz-adv-x="308" d="M255 278q0 -25 -17.5 -46t-44.5 -21q-24 0 -36.5 15t-12.5 34q0 25 18 46t45 21q23 0 35.5 -14.5t12.5 -34.5z" />
<glyph unicode="&#xb8;" horiz-adv-x="335" d="M163 -120q0 -38 -46.5 -67t-118.5 -36l-2 10q42 13 69 34.5t27 43.5q0 15 -12.5 25t-35.5 12l-2 6l36 92h38l-25 -63q34 -5 53 -20t19 -37z" />
<glyph unicode="&#xb9;" horiz-adv-x="279" d="M293 353h-176l-1 10l38 6q16 4 23 10t10 17l67 316l-60 6l1 10l119 28l5 -6l-79 -372l55 -15z" />
<glyph unicode="&#xba;" horiz-adv-x="364" d="M433 611q0 -73 -26.5 -132t-68 -93.5t-88.5 -34.5q-48 0 -78.5 38.5t-30.5 102.5q0 52 15.5 99.5t41.5 84t59 57.5t68 21q53 0 80.5 -38.5t27.5 -104.5zM204 482q0 -48 14 -75.5t38 -27.5q25 0 45.5 23.5t35.5 61.5t23.5 83t8.5 88q0 40 -11 65.5t-38 25.5 q-23 0 -44 -22.5t-37.5 -59t-25.5 -79.5t-9 -83z" />
<glyph unicode="&#xbb;" horiz-adv-x="543" d="M374 471l17 9q19 -40 41 -78.5t42 -69.5t34 -49l3 -6l-11 -52q-47 -40 -102 -95t-106 -110l-14 10q35 53 79 113t89 118q-16 40 -36 97t-36 113zM168 471l18 9q19 -40 40.5 -78.5t41.5 -69.5t34 -49l4 -6l-12 -52q-46 -40 -101.5 -95t-106.5 -110l-13 10q34 53 78.5 113 t88.5 118q-15 40 -35.5 97t-36.5 113z" />
<glyph unicode="&#xbc;" horiz-adv-x="939" d="M312 293h-175l-1 10l37 6q16 4 23 10t10 17l67 316l-60 6l1 10l119 28l5 -6l-79 -372l55 -15zM821 696l-573 -706h-46l571 706h48zM827 403l40 -4l-57 -267l65 1l-10 -36l-62 1l-21 -98h-57l21 99l-191 1l-3 22zM798 338l-201 -209l156 2z" />
<glyph unicode="&#xbd;" horiz-adv-x="939" d="M829 696l-573 -706h-47l572 706h48zM312 293h-175l-1 10l37 6q16 4 23 10t10 17l67 316l-60 6l1 10l119 28l5 -6l-79 -372l55 -15zM645 9q-20 0 -36.5 -5t-31.5 -14l-11 29q99 63 158.5 111.5t86.5 87.5t27 73q0 31 -17 49t-49 18t-64 -20t-56 -51l-13 7q24 48 65.5 78.5 t91.5 30.5q47 0 74 -26t27 -70q0 -41 -24 -80t-64.5 -74.5t-90.5 -67.5q-13 -8 -28.5 -16.5t-31.5 -17.5q10 1 22 1q29 0 64.5 -6.5t53.5 -6.5q16 0 29 18t26 38l7 -4q-4 -14 -8.5 -28t-9.5 -26q-10 -21 -21 -34t-26 -13q-28 0 -68 9.5t-82 9.5z" />
<glyph unicode="&#xbe;" horiz-adv-x="939" d="M408 424q0 -38 -35.5 -68t-99 -49t-147.5 -24l-2 18q61 8 111.5 25t80.5 42t30 55q0 31 -23.5 45t-61.5 14q-22 0 -37 -3l-3 22q73 8 114.5 34t41.5 64q0 25 -16.5 40.5t-49.5 15.5q-30 0 -57 -15t-49 -41l-13 6q23 42 62 66.5t86 24.5q49 0 74.5 -21.5t25.5 -58.5 q0 -42 -35.5 -71t-88.5 -43q44 -5 68 -24.5t24 -53.5zM831 696l-573 -706h-46l571 706h48zM827 403l40 -4l-57 -267l65 1l-10 -36l-62 1l-21 -98h-57l21 99l-191 1l-3 22zM798 338l-201 -209l156 2z" />
<glyph unicode="&#xbf;" horiz-adv-x="411" d="M320 506q17 0 28 -10.5t11 -29.5q0 -29 -17.5 -49t-42.5 -20q-16 0 -27 10.5t-11 28.5q0 29 17 49.5t42 20.5zM229 273l9 8q25 -2 41.5 -15.5t16.5 -37.5q0 -32 -16 -55.5t-41.5 -43t-54.5 -38.5t-54.5 -41t-41.5 -50.5t-16 -68.5q0 -43 23.5 -69t65.5 -26 q41 0 72.5 20.5t49.5 55t18 74.5q0 7 -0.5 13.5t-1.5 13.5q8 3 17 5.5t18 2.5q39 0 39 -42q0 -49 -31.5 -89.5t-82 -65t-108.5 -24.5q-71 0 -112.5 38t-41.5 99q0 43 17.5 75t45.5 56t59.5 44t59.5 38.5t46 39t18 45.5q0 11 -3 20.5t-11 17.5z" />
<glyph unicode="&#xc0;" horiz-adv-x="666" d="M605 795l-11 -16q-27 2 -63.5 9t-71 19t-57.5 27t-23 33q0 17 15 27.5t28 15.5l8 -1q15 -17 42.5 -37.5t62 -40.5t70.5 -36zM445 688h45l75 -613q3 -19 9.5 -28t21.5 -13l51 -14l-2 -20h-232l-4 20l86 22l-25 200l-232 -4l-107 -195l81 -23l-4 -20h-203l-2 20l56 16 q17 4 27 13t20 26zM259 276l207 -1l-37 311z" />
<glyph unicode="&#xc1;" horiz-adv-x="666" d="M584 908l8 1q14 -6 25.5 -14.5t11.5 -22.5q0 -16 -22.5 -30.5t-60 -27.5t-82 -22.5t-89.5 -13.5l-5 16q66 29 123 58t91 56zM445 688h45l75 -613q3 -19 9.5 -28t21.5 -13l51 -14l-2 -20h-232l-4 20l86 22l-25 200l-232 -4l-107 -195l81 -23l-4 -20h-203l-2 20l56 16 q17 4 27 13t20 26zM259 276l207 -1l-37 311z" />
<glyph unicode="&#xc2;" horiz-adv-x="666" d="M636 782l-17 -10q-24 20 -53 43t-61 44q-31 -19 -74 -43.5t-78 -43.5l-10 13q25 20 52.5 44t51 46t36.5 35l9 5h50q21 -26 46.5 -61.5t47.5 -71.5zM445 688h45l75 -613q3 -19 9.5 -28t21.5 -13l51 -14l-2 -20h-232l-4 20l86 22l-25 200l-232 -4l-107 -195l81 -23l-4 -20 h-203l-2 20l56 16q17 4 27 13t20 26zM259 276l207 -1l-37 311z" />
<glyph unicode="&#xc3;" horiz-adv-x="666" d="M386 845q-11 -4 -29.5 -20.5t-47.5 -43.5l-10 5q23 55 52.5 85.5t70.5 30.5q31 0 63 -14.5t62.5 -29t55.5 -15.5q12 5 30.5 21.5t47.5 43.5l10 -6q-23 -55 -53 -85.5t-71 -30.5q-30 0 -62 14.5t-62.5 29.5t-56.5 15zM445 688h45l75 -613q3 -19 9.5 -28t21.5 -13l51 -14 l-2 -20h-232l-4 20l86 22l-25 200l-232 -4l-107 -195l81 -23l-4 -20h-203l-2 20l56 16q17 4 27 13t20 26zM259 276l207 -1l-37 311z" />
<glyph unicode="&#xc4;" horiz-adv-x="666" d="M645 852q0 -25 -16.5 -44t-40.5 -19q-19 0 -31 11t-12 29q0 23 16.5 43t42.5 20q18 0 29.5 -11t11.5 -29zM441 852q0 -25 -16.5 -44t-40.5 -19q-19 0 -31 11t-12 29q0 23 16.5 43t42.5 20q19 0 30 -11t11 -29zM445 688h45l75 -613q3 -19 9.5 -28t21.5 -13l51 -14l-2 -20 h-232l-4 20l86 22l-25 200l-232 -4l-107 -195l81 -23l-4 -20h-203l-2 20l56 16q17 4 27 13t20 26zM259 276l207 -1l-37 311z" />
<glyph unicode="&#xc5;" horiz-adv-x="666" d="M589 859q0 -39 -31.5 -66t-77.5 -27q-32 0 -51 16.5t-19 46.5q0 38 31.5 65t76.5 27q33 0 52 -17t19 -45zM452 829q0 -16 10 -26.5t26 -10.5q24 0 41 19t17 46q0 17 -10 27t-26 10q-24 0 -41 -19t-17 -46zM445 688h45l75 -613q3 -19 9.5 -28t21.5 -13l51 -14l-2 -20h-232 l-4 20l86 22l-25 200l-232 -4l-107 -195l81 -23l-4 -20h-203l-2 20l56 16q17 4 27 13t20 26zM259 276l207 -1l-37 311z" />
<glyph unicode="&#xc6;" horiz-adv-x="886" d="M430 642l-78 23l7 21h574q-1 -39 -12.5 -89t-25.5 -93h-19q-6 47 -10 80.5t-8 62.5q-18 1 -45.5 2.5t-54.5 1.5h-115l-62 -289l214 5l-11 -46l-210 7l-45 -213l-17 -80l145 -1q26 0 54.5 1.5t47.5 3.5q16 29 33.5 62.5t44.5 80.5h19q-3 -39 -14 -91.5t-26 -90.5h-466 l-2 20l59 15q18 5 26 12.5t11 23.5l10 44l44 211l-209 -3l-155 -280l77 -22l-6 -21h-201l2 21q16 4 30 8l28 8q28 8 45 38zM567 650h-96l-161 -290h195z" />
<glyph unicode="&#xc7;" horiz-adv-x="601" d="M452 -120q0 -38 -46 -67t-119 -36l-2 10q42 13 69.5 34.5t27.5 43.5q0 15 -13 25t-35 12l-3 6l33 82q-120 4 -188.5 77t-68.5 198q0 88 31 166.5t85.5 138t126.5 93t153 33.5q90 0 141 -26q-2 -22 -8 -53t-14 -62t-16 -54h-19q-7 43 -12 77.5t-10 65.5q-13 5 -27.5 8 t-37.5 3q-63 0 -120 -30.5t-100.5 -84.5t-68.5 -123.5t-25 -146.5t26 -130.5t70.5 -81t100.5 -27.5q26 0 43.5 3.5l32.5 6.5q19 32 40 67t45 74h19q-5 -38 -15 -84t-21 -80q-25 -11 -57.5 -18t-67.5 -9l-21 -54q33 -5 52 -20t19 -37z" />
<glyph unicode="&#xc8;" horiz-adv-x="581" d="M575 794l-10 -16q-27 2 -63.5 9t-71.5 19t-58 27t-22 33q0 17 15 28t28 15l7 -1q15 -17 42.5 -37t62 -40t70.5 -37zM329 572l-45 -210l206 5l-11 -46l-202 6l-45 -212l-17 -81h137q28 0 55.5 1.5t46.5 3.5q16 29 33.5 62.5t44.5 80.5h19q-3 -39 -14 -91.5t-26 -90.5h-458 l-2 20l59 15q18 5 26 12.5t12 23.5l9 44l97 457l15 71l-78 23l4 20h433q-1 -39 -12.5 -89t-25.5 -93h-19q-6 47 -10 80.5t-8 62.5q-16 1 -44 2.5t-56 1.5h-107z" />
<glyph unicode="&#xc9;" horiz-adv-x="581" d="M544 907l9 1q14 -5 25 -14t11 -23q0 -15 -22.5 -30t-59.5 -27.5t-82 -22t-90 -14.5l-5 16q67 29 124 58.5t90 55.5zM329 572l-45 -210l206 5l-11 -46l-202 6l-45 -212l-17 -81h137q28 0 55.5 1.5t46.5 3.5q16 29 33.5 62.5t44.5 80.5h19q-3 -39 -14 -91.5t-26 -90.5h-458 l-2 20l59 15q18 5 26 12.5t12 23.5l9 44l97 457l15 71l-78 23l4 20h433q-1 -39 -12.5 -89t-25.5 -93h-19q-6 47 -10 80.5t-8 62.5q-16 1 -44 2.5t-56 1.5h-107z" />
<glyph unicode="&#xca;" horiz-adv-x="581" d="M599 782l-17 -11q-24 21 -53 44t-61 43q-31 -18 -74 -43t-79 -44l-9 13q25 20 52.5 44t51 46t36.5 36l9 4h50q21 -26 46 -61.5t48 -70.5zM329 572l-45 -210l206 5l-11 -46l-202 6l-45 -212l-17 -81h137q28 0 55.5 1.5t46.5 3.5q16 29 33.5 62.5t44.5 80.5h19 q-3 -39 -14 -91.5t-26 -90.5h-458l-2 20l59 15q18 5 26 12.5t12 23.5l9 44l97 457l15 71l-78 23l4 20h433q-1 -39 -12.5 -89t-25.5 -93h-19q-6 47 -10 80.5t-8 62.5q-16 1 -44 2.5t-56 1.5h-107z" />
<glyph unicode="&#xcb;" horiz-adv-x="581" d="M620 852q0 -26 -17 -45t-40 -19q-20 0 -32 11t-12 29q0 23 16.5 43t42.5 20q19 0 30.5 -11t11.5 -28zM416 852q0 -26 -17 -45t-40 -19q-20 0 -32 11t-12 29q0 23 16.5 43t42.5 20q19 0 30.5 -11t11.5 -28zM329 572l-45 -210l206 5l-11 -46l-202 6l-45 -212l-17 -81h137 q28 0 55.5 1.5t46.5 3.5q16 29 33.5 62.5t44.5 80.5h19q-3 -39 -14 -91.5t-26 -90.5h-458l-2 20l59 15q18 5 26 12.5t12 23.5l9 44l97 457l15 71l-78 23l4 20h433q-1 -39 -12.5 -89t-25.5 -93h-19q-6 47 -10 80.5t-8 62.5q-16 1 -44 2.5t-56 1.5h-107z" />
<glyph unicode="&#xcc;" horiz-adv-x="365" d="M458 795l-11 -16q-26 2 -62.5 9t-71.5 19t-58 27t-22 33q0 17 14.5 27.5t27.5 15.5l8 -1q15 -17 42.5 -37.5t62 -40.5t70.5 -36zM216 43l79 -23l-4 -20h-238l-2 20l59 15q17 5 25 12.5t12 23.5l10 44v0l96 457l16 71l-78 23l4 20h237l2 -20l-59 -15q-16 -5 -24.5 -12.5 t-11.5 -23.5l-11 -43h1l-97 -457z" />
<glyph unicode="&#xcd;" horiz-adv-x="365" d="M428 908l8 1q14 -6 25 -14.5t11 -22.5q0 -16 -22.5 -30.5t-59.5 -27.5t-82 -22.5t-89 -13.5l-6 16q67 29 124 58t91 56zM216 43l79 -23l-4 -20h-238l-2 20l59 15q17 5 25 12.5t12 23.5l10 44v0l96 457l16 71l-78 23l4 20h237l2 -20l-59 -15q-16 -5 -24.5 -12.5 t-11.5 -23.5l-11 -43h1l-97 -457z" />
<glyph unicode="&#xce;" horiz-adv-x="365" d="M482 782l-16 -10q-24 20 -53.5 43t-60.5 44q-31 -19 -74 -43.5t-79 -43.5l-9 13q24 20 52 44t51.5 46t36.5 35l8 5h51q21 -26 46 -61.5t47 -71.5zM216 43l79 -23l-4 -20h-238l-2 20l59 15q17 5 25 12.5t12 23.5l10 44v0l96 457l16 71l-78 23l4 20h237l2 -20l-59 -15 q-16 -5 -24.5 -12.5t-11.5 -23.5l-11 -43h1l-97 -457z" />
<glyph unicode="&#xcf;" horiz-adv-x="365" d="M501 852q0 -25 -17 -44t-40 -19q-20 0 -32 11t-12 29q0 23 16.5 43t42.5 20q19 0 30.5 -11t11.5 -29zM297 852q0 -25 -16.5 -44t-40.5 -19q-20 0 -31.5 11t-11.5 29q0 23 16.5 43t41.5 20q19 0 30.5 -11t11.5 -29zM216 43l79 -23l-4 -20h-238l-2 20l59 15q17 5 25 12.5 t12 23.5l10 44v0l96 457l16 71l-78 23l4 20h237l2 -20l-59 -15q-16 -5 -24.5 -12.5t-11.5 -23.5l-11 -43h1l-97 -457z" />
<glyph unicode="&#xd0;" horiz-adv-x="671" d="M459 335h-180l-47 -220l-17 -79h62q78 0 139.5 33.5t104.5 90t66 128t23 148.5q0 98 -52 156t-158 58h-54l-17 -78l-43 -203h180zM276 0h-223l-2 20l59 15q18 5 26 12.5t12 23.5l9 44l47 220h-107l7 34h107l43 203v0l15 71l-78 23l4 20h220q84 0 145.5 -31t95 -88.5 t33.5 -136.5q0 -81 -27.5 -158t-80 -138.5t-129.5 -97.5t-176 -36z" />
<glyph unicode="&#xd1;" horiz-adv-x="722" d="M433 845q-11 -4 -30 -20.5t-48 -43.5l-10 5q23 55 53 85.5t70 30.5q31 0 63 -14.5t62.5 -29t55.5 -15.5q12 5 31 21.5t47 43.5l10 -6q-23 -55 -53 -85.5t-71 -30.5q-29 0 -61 14.5t-63 29.5t-56 15zM182 44l96 -23l-5 -21h-223l-3 21l61 15q19 5 27 12t12 23l10 44 l111 526l-80 24l5 21h141l236 -575l97 461l16 70l-85 23l4 21h213l2 -21l-60 -15q-19 -5 -27.5 -12t-11.5 -23l-10 -43l-121 -572h-50l-240 583l-99 -468z" />
<glyph unicode="&#xd2;" horiz-adv-x="605" d="M573 795l-10 -16q-27 2 -63.5 9t-71.5 19t-57.5 27t-22.5 33q0 17 15 27.5t28 15.5l8 -1q14 -17 42 -37.5t62 -40.5t70 -36zM626 451q0 -61 -15 -125.5t-43.5 -124.5t-68 -107.5t-89.5 -75.5t-109 -28q-60 0 -104.5 30t-69.5 84.5t-25 129.5q0 63 15.5 128.5t44 125.5 t69.5 107t91.5 74t108.5 27q92 0 143.5 -66.5t51.5 -178.5zM181 214q0 -81 32 -132.5t95 -51.5q44 0 81 28.5t66 77t49.5 107.5t31.5 119.5t11 114.5q0 82 -28.5 131t-93.5 49q-44 0 -81.5 -28t-67.5 -75t-51.5 -105t-32.5 -119t-11 -116z" />
<glyph unicode="&#xd3;" horiz-adv-x="605" d="M555 908l9 1q14 -6 25 -14.5t11 -22.5q0 -16 -22.5 -30.5t-59.5 -27.5t-82 -22.5t-90 -13.5l-5 16q66 29 123.5 58t90.5 56zM626 451q0 -61 -15 -125.5t-43.5 -124.5t-68 -107.5t-89.5 -75.5t-109 -28q-60 0 -104.5 30t-69.5 84.5t-25 129.5q0 63 15.5 128.5t44 125.5 t69.5 107t91.5 74t108.5 27q92 0 143.5 -66.5t51.5 -178.5zM181 214q0 -81 32 -132.5t95 -51.5q44 0 81 28.5t66 77t49.5 107.5t31.5 119.5t11 114.5q0 82 -28.5 131t-93.5 49q-44 0 -81.5 -28t-67.5 -75t-51.5 -105t-32.5 -119t-11 -116z" />
<glyph unicode="&#xd4;" horiz-adv-x="605" d="M596 782l-16 -10q-24 20 -53.5 43t-60.5 44q-31 -19 -74 -43.5t-79 -43.5l-9 13q24 20 52 44t51.5 46t36.5 35l8 5h51q21 -26 46 -61.5t47 -71.5zM626 451q0 -61 -15 -125.5t-43.5 -124.5t-68 -107.5t-89.5 -75.5t-109 -28q-60 0 -104.5 30t-69.5 84.5t-25 129.5 q0 63 15.5 128.5t44 125.5t69.5 107t91.5 74t108.5 27q92 0 143.5 -66.5t51.5 -178.5zM181 214q0 -81 32 -132.5t95 -51.5q44 0 81 28.5t66 77t49.5 107.5t31.5 119.5t11 114.5q0 82 -28.5 131t-93.5 49q-44 0 -81.5 -28t-67.5 -75t-51.5 -105t-32.5 -119t-11 -116z" />
<glyph unicode="&#xd5;" horiz-adv-x="605" d="M353 845q-11 -4 -29.5 -20.5t-47.5 -43.5l-10 5q23 55 52.5 85.5t70.5 30.5q31 0 63 -14.5t62.5 -29t55.5 -15.5q12 5 30.5 21.5t46.5 43.5l11 -6q-23 -55 -53 -85.5t-71 -30.5q-30 0 -62 14.5t-62.5 29.5t-56.5 15zM626 451q0 -61 -15 -125.5t-43.5 -124.5t-68 -107.5 t-89.5 -75.5t-109 -28q-60 0 -104.5 30t-69.5 84.5t-25 129.5q0 63 15.5 128.5t44 125.5t69.5 107t91.5 74t108.5 27q92 0 143.5 -66.5t51.5 -178.5zM181 214q0 -81 32 -132.5t95 -51.5q44 0 81 28.5t66 77t49.5 107.5t31.5 119.5t11 114.5q0 82 -28.5 131t-93.5 49 q-44 0 -81.5 -28t-67.5 -75t-51.5 -105t-32.5 -119t-11 -116z" />
<glyph unicode="&#xd6;" horiz-adv-x="605" d="M614 852q0 -25 -16.5 -44t-40.5 -19q-20 0 -31.5 11t-11.5 29q0 23 16.5 43t41.5 20q19 0 30.5 -11t11.5 -29zM410 852q0 -25 -16.5 -44t-40.5 -19q-19 0 -31 11t-12 29q0 23 16.5 43t42.5 20q18 0 29.5 -11t11.5 -29zM626 451q0 -61 -15 -125.5t-43.5 -124.5t-68 -107.5 t-89.5 -75.5t-109 -28q-60 0 -104.5 30t-69.5 84.5t-25 129.5q0 63 15.5 128.5t44 125.5t69.5 107t91.5 74t108.5 27q92 0 143.5 -66.5t51.5 -178.5zM181 214q0 -81 32 -132.5t95 -51.5q44 0 81 28.5t66 77t49.5 107.5t31.5 119.5t11 114.5q0 82 -28.5 131t-93.5 49 q-44 0 -81.5 -28t-67.5 -75t-51.5 -105t-32.5 -119t-11 -116z" />
<glyph unicode="&#xd7;" d="M471 145l-127 162l-198 -162l-29 42l195 159l-126 160l39 34q23 -28 57 -70.5t71 -89.5l197 160l29 -41l-195 -159q36 -45 68.5 -86.5t55.5 -69.5l-3 -11z" />
<glyph unicode="&#xd8;" horiz-adv-x="605" d="M626 451q0 -61 -15 -125.5t-43.5 -124.5t-68 -107.5t-89.5 -75.5t-109 -28q-56 0 -99.5 26.5t-68.5 75.5l-78 -79l-24 25l87 89q-16 48 -16 107q0 63 15.5 128.5t44 125.5t69.5 107t91.5 74t108.5 27q54 0 94 -23t65 -66l66 67l25 -25l-75 -76q20 -53 20 -122zM181 214 v-23l358 365q-11 47 -38.5 74t-75.5 27q-44 0 -81.5 -28t-67.5 -75t-51.5 -105t-32.5 -119t-11 -116zM547 477q0 18 -1 35l-359 -365q11 -53 41.5 -85t79.5 -32q44 0 81 28.5t66 77t49.5 107.5t31.5 119.5t11 114.5z" />
<glyph unicode="&#xd9;" horiz-adv-x="668" d="M633 795l-10 -16q-27 2 -63.5 9t-71.5 19t-58 27t-22 33q0 17 15 27.5t28 15.5l7 -1q15 -17 42.5 -37.5t62 -40.5t70.5 -36zM601 240q-27 -127 -93 -188.5t-166 -61.5q-86 0 -141 48t-55 135q0 16 1.5 35.5t5.5 40.5l69 323l16 71l-79 23l4 20h238l2 -20l-59 -15 q-17 -5 -25 -12.5t-12 -23.5l-10 -43v0l-69 -327q-4 -18 -5.5 -35t-1.5 -33q0 -70 39 -108t102 -38q68 0 121 50.5t76 158.5l72 334l15 68l-85 23l4 21h213l2 -21l-94 -23l-15 -68z" />
<glyph unicode="&#xda;" horiz-adv-x="668" d="M603 908l8 1q14 -6 25 -14.5t11 -22.5q0 -16 -22.5 -30.5t-59.5 -27.5t-82 -22.5t-90 -13.5l-5 16q67 29 124 58t91 56zM601 240q-27 -127 -93 -188.5t-166 -61.5q-86 0 -141 48t-55 135q0 16 1.5 35.5t5.5 40.5l69 323l16 71l-79 23l4 20h238l2 -20l-59 -15 q-17 -5 -25 -12.5t-12 -23.5l-10 -43v0l-69 -327q-4 -18 -5.5 -35t-1.5 -33q0 -70 39 -108t102 -38q68 0 121 50.5t76 158.5l72 334l15 68l-85 23l4 21h213l2 -21l-94 -23l-15 -68z" />
<glyph unicode="&#xdb;" horiz-adv-x="668" d="M654 782l-16 -10q-24 20 -53.5 43t-60.5 44q-31 -19 -74 -43.5t-79 -43.5l-9 13q25 20 52.5 44t51 46t36.5 35l8 5h51q21 -26 46 -61.5t47 -71.5zM601 240q-27 -127 -93 -188.5t-166 -61.5q-86 0 -141 48t-55 135q0 16 1.5 35.5t5.5 40.5l69 323l16 71l-79 23l4 20h238 l2 -20l-59 -15q-17 -5 -25 -12.5t-12 -23.5l-10 -43v0l-69 -327q-4 -18 -5.5 -35t-1.5 -33q0 -70 39 -108t102 -38q68 0 121 50.5t76 158.5l72 334l15 68l-85 23l4 21h213l2 -21l-94 -23l-15 -68z" />
<glyph unicode="&#xdc;" horiz-adv-x="668" d="M670 852q0 -25 -16.5 -44t-40.5 -19q-20 0 -31.5 11t-11.5 29q0 23 16.5 43t41.5 20q19 0 30.5 -11t11.5 -29zM466 852q0 -25 -16.5 -44t-40.5 -19q-19 0 -31 11t-12 29q0 23 16.5 43t42.5 20q18 0 29.5 -11t11.5 -29zM601 240q-27 -127 -93 -188.5t-166 -61.5 q-86 0 -141 48t-55 135q0 16 1.5 35.5t5.5 40.5l69 323l16 71l-79 23l4 20h238l2 -20l-59 -15q-17 -5 -25 -12.5t-12 -23.5l-10 -43v0l-69 -327q-4 -18 -5.5 -35t-1.5 -33q0 -70 39 -108t102 -38q68 0 121 50.5t76 158.5l72 334l15 68l-85 23l4 21h213l2 -21l-94 -23 l-15 -68z" />
<glyph unicode="&#xdd;" horiz-adv-x="634" d="M584 908l8 1q14 -6 25.5 -14.5t11.5 -22.5q0 -16 -22.5 -30.5t-60 -27.5t-82.5 -22.5t-89 -13.5l-5 16q66 29 123 58t91 56zM347 43l79 -23l-4 -20h-238l-2 20l59 15q17 5 25.5 12.5t11.5 23.5l10 44v0l17 79q9 43 8 101t-10 118.5t-24 112t-33.5 83.5t-37.5 32 t-42 -28.5t-44 -61.5l-14 7q15 36 35.5 67.5t44.5 51t52 19.5q32 0 58 -32t45 -87t29.5 -123.5t12.5 -142.5q36 76 75 145t76.5 123t72 85.5t62.5 31.5q23 0 38 -20t23 -51t11 -63l-16 -5q-10 36 -24 60t-34 24q-17 0 -42.5 -23t-55.5 -62.5t-60.5 -88t-57.5 -100.5 t-47 -100.5t-29 -86.5l-14 -65z" />
<glyph unicode="&#xde;" horiz-adv-x="556" d="M216 43l98 -23l-4 -20h-257l-2 20l59 15q16 5 24.5 12.5t12.5 23.5l10 44v0l97 460l16 72l-78 23l4 20h237l2 -20l-59 -15q-16 -5 -24.5 -12.5t-12.5 -23.5l-10 -44v0l-4 -19h57q101 0 159 -45t58 -128q0 -75 -37.5 -130t-103 -85t-150.5 -30h-71l-5 -23zM374 516h-57 l-72 -340h66q71 0 117.5 29.5t69.5 77t23 99.5q0 69 -39 101.5t-108 32.5z" />
<glyph unicode="&#xdf;" horiz-adv-x="541" d="M161 -1q-26 -119 -81 -187t-132 -68q-42 0 -68 18.5t-26 45.5q0 12 6.5 21.5t15.5 13.5q15 -20 36 -36t49 -16q49 0 76 49t47 142l123 543q23 107 81 169t142 62q60 0 94.5 -31.5t34.5 -86.5q0 -48 -21.5 -90t-59 -71t-85.5 -38q67 -43 101 -104t34 -129q0 -60 -25 -109 t-67 -78t-94 -29q-40 0 -65.5 18.5t-25.5 45.5q0 12 6.5 21.5t15.5 13.5q12 -23 32 -37.5t43 -14.5q29 0 52.5 22.5t37.5 60.5t14 85q0 71 -30.5 128t-87.5 97l4 19q45 6 79 31.5t53 64t19 82.5q0 45 -19.5 70.5t-52.5 25.5q-47 0 -81 -47t-52 -132z" />
<glyph unicode="&#xe0;" horiz-adv-x="501" d="M449 589l-13 -12q-38 23 -75 50.5t-60.5 54t-20.5 45.5q2 15 15.5 23t34.5 8h6h5l7 -4q12 -31 40 -76.5t61 -88.5zM405 134q-5 -21 -8 -37.5t-3 -25.5q0 -26 18 -26q12 0 27.5 13.5t32.5 33.5t32 41l9 -6q-14 -29 -35 -61t-47 -54t-54 -22q-29 0 -43 18t-14 48 q0 14 3.5 33t8.5 45l25 113v0q-18 -39 -42.5 -83.5t-52.5 -84t-58.5 -64.5t-60.5 -25q-35 0 -57 31.5t-22 90.5q0 77 23.5 148t65 126.5t95.5 87.5t114 32q35 0 66.5 -7.5t54.5 -18.5l-6 -19zM139 120q0 -30 9 -49.5t25 -19.5q19 0 43 23.5t49 60.5t48 79.5t41 82.5t27 67 l20 89q-28 19 -66 19q-36 0 -70.5 -29.5t-63 -79.5t-45.5 -113t-17 -130z" />
<glyph unicode="&#xe1;" horiz-adv-x="501" d="M456 756l7 3q3 0 6 -0.5t5 -0.5q41 -4 41 -28q0 -16 -20.5 -36.5t-53.5 -42t-71.5 -41t-74.5 -33.5l-10 15q35 27 68.5 57.5t60 58t42.5 48.5zM405 134q-5 -21 -8 -37.5t-3 -25.5q0 -26 18 -26q12 0 27.5 13.5t32.5 33.5t32 41l9 -6q-14 -29 -35 -61t-47 -54t-54 -22 q-29 0 -43 18t-14 48q0 14 3.5 33t8.5 45l25 113v0q-18 -39 -42.5 -83.5t-52.5 -84t-58.5 -64.5t-60.5 -25q-35 0 -57 31.5t-22 90.5q0 77 23.5 148t65 126.5t95.5 87.5t114 32q35 0 66.5 -7.5t54.5 -18.5l-6 -19zM139 120q0 -30 9 -49.5t25 -19.5q19 0 43 23.5t49 60.5 t48 79.5t41 82.5t27 67l20 89q-28 19 -66 19q-36 0 -70.5 -29.5t-63 -79.5t-45.5 -113t-17 -130z" />
<glyph unicode="&#xe2;" horiz-adv-x="501" d="M510 592l-17 -11q-21 26 -47.5 55.5t-54.5 55.5q-29 -24 -69 -55.5t-73 -55.5l-10 13q23 25 48 54.5t46.5 56t33.5 43.5l8 5h54q18 -32 39.5 -75t41.5 -86zM405 134q-5 -21 -8 -37.5t-3 -25.5q0 -26 18 -26q12 0 27.5 13.5t32.5 33.5t32 41l9 -6q-14 -29 -35 -61t-47 -54 t-54 -22q-29 0 -43 18t-14 48q0 14 3.5 33t8.5 45l25 113v0q-18 -39 -42.5 -83.5t-52.5 -84t-58.5 -64.5t-60.5 -25q-35 0 -57 31.5t-22 90.5q0 77 23.5 148t65 126.5t95.5 87.5t114 32q35 0 66.5 -7.5t54.5 -18.5l-6 -19zM139 120q0 -30 9 -49.5t25 -19.5q19 0 43 23.5 t49 60.5t48 79.5t41 82.5t27 67l20 89q-28 19 -66 19q-36 0 -70.5 -29.5t-63 -79.5t-45.5 -113t-17 -130z" />
<glyph unicode="&#xe3;" horiz-adv-x="501" d="M283 675q-11 -5 -27.5 -22t-42.5 -45l-9 5q22 56 51.5 86.5t67.5 30.5q29 0 57 -14.5t54 -29.5t49 -16q10 5 27 22t42 45l10 -5q-22 -56 -51.5 -86.5t-68.5 -30.5q-28 0 -57 14.5t-55 29.5t-47 16zM405 134q-5 -21 -8 -37.5t-3 -25.5q0 -26 18 -26q12 0 27.5 13.5 t32.5 33.5t32 41l9 -6q-14 -29 -35 -61t-47 -54t-54 -22q-29 0 -43 18t-14 48q0 14 3.5 33t8.5 45l25 113v0q-18 -39 -42.5 -83.5t-52.5 -84t-58.5 -64.5t-60.5 -25q-35 0 -57 31.5t-22 90.5q0 77 23.5 148t65 126.5t95.5 87.5t114 32q35 0 66.5 -7.5t54.5 -18.5l-6 -19z M139 120q0 -30 9 -49.5t25 -19.5q19 0 43 23.5t49 60.5t48 79.5t41 82.5t27 67l20 89q-28 19 -66 19q-36 0 -70.5 -29.5t-63 -79.5t-45.5 -113t-17 -130z" />
<glyph unicode="&#xe4;" horiz-adv-x="501" d="M528 678q0 -27 -16.5 -47t-38.5 -20q-18 0 -29.5 12t-11.5 32q0 24 16 44.5t41 20.5q17 0 28 -11.5t11 -30.5zM326 678q0 -27 -16 -47t-39 -20q-18 0 -29.5 12t-11.5 32q0 24 16 44.5t41 20.5q17 0 28 -11.5t11 -30.5zM405 134q-5 -21 -8 -37.5t-3 -25.5q0 -26 18 -26 q12 0 27.5 13.5t32.5 33.5t32 41l9 -6q-14 -29 -35 -61t-47 -54t-54 -22q-29 0 -43 18t-14 48q0 14 3.5 33t8.5 45l25 113v0q-18 -39 -42.5 -83.5t-52.5 -84t-58.5 -64.5t-60.5 -25q-35 0 -57 31.5t-22 90.5q0 77 23.5 148t65 126.5t95.5 87.5t114 32q35 0 66.5 -7.5 t54.5 -18.5l-6 -19zM139 120q0 -30 9 -49.5t25 -19.5q19 0 43 23.5t49 60.5t48 79.5t41 82.5t27 67l20 89q-28 19 -66 19q-36 0 -70.5 -29.5t-63 -79.5t-45.5 -113t-17 -130z" />
<glyph unicode="&#xe5;" horiz-adv-x="501" d="M479 683q0 -39 -31.5 -66.5t-77.5 -27.5q-32 0 -51 17t-19 47q0 38 31 65t76 27q33 0 52.5 -17t19.5 -45zM341 653q0 -17 10 -27t27 -10q24 0 41 19t17 46q0 17 -10 27t-26 10q-25 0 -42 -19t-17 -46zM405 134q-5 -21 -8 -37.5t-3 -25.5q0 -26 18 -26q12 0 27.5 13.5 t32.5 33.5t32 41l9 -6q-14 -29 -35 -61t-47 -54t-54 -22q-29 0 -43 18t-14 48q0 14 3.5 33t8.5 45l25 113v0q-18 -39 -42.5 -83.5t-52.5 -84t-58.5 -64.5t-60.5 -25q-35 0 -57 31.5t-22 90.5q0 77 23.5 148t65 126.5t95.5 87.5t114 32q35 0 66.5 -7.5t54.5 -18.5l-6 -19z M139 120q0 -30 9 -49.5t25 -19.5q19 0 43 23.5t49 60.5t48 79.5t41 82.5t27 67l20 89q-28 19 -66 19q-36 0 -70.5 -29.5t-63 -79.5t-45.5 -113t-17 -130z" />
<glyph unicode="&#xe6;" horiz-adv-x="638" d="M635 133q-34 -62 -81.5 -102.5t-103.5 -40.5q-60 0 -91 45.5t-31 124.5q0 15 1 31q-24 -48 -55 -94t-64.5 -76.5t-66.5 -30.5q-35 0 -57 31.5t-22 90.5q0 77 23.5 148t65 126.5t95.5 87.5t114 32q35 0 66.5 -7.5t54.5 -18.5l-1 -5l-1 -2q23 16 47.5 24.5t49.5 8.5 q44 0 68.5 -24.5t24.5 -64.5q0 -41 -22 -74.5t-59 -58t-84 -38.5t-97 -15l2 14q-8 -41 -8 -80q0 -56 20.5 -88.5t59.5 -32.5q32 0 69 25.5t74 69.5zM139 120q0 -30 9 -49.5t25 -19.5q18 0 40.5 21.5t46.5 56t46.5 74.5t40.5 78l53 173q-28 18 -65 18q-36 0 -70.5 -29.5 t-63 -79.5t-45.5 -113t-17 -130zM566 470q-33 0 -63 -29t-53.5 -77t-35.5 -105q54 5 97.5 28.5t68 59t24.5 76.5q0 21 -10 34t-28 13z" />
<glyph unicode="&#xe7;" horiz-adv-x="377" d="M266 -120q0 -38 -46 -67t-119 -36l-2 10q43 13 70 34.5t27 43.5q0 15 -13 25t-35 12l-3 6l33 83q-53 7 -79.5 49t-26.5 112q0 68 21.5 131.5t57.5 113.5t81 79.5t93 29.5q44 0 70 -26.5t26 -67.5q0 -34 -17.5 -61t-43.5 -27q-7 0 -13.5 2t-11.5 5q7 15 13.5 38.5 t6.5 45.5q0 25 -10 40t-35 15q-30 0 -58.5 -27t-52.5 -71.5t-38 -99t-14 -109.5q0 -57 21 -88t62 -31q33 0 70 25.5t75 69.5l8 -6q-30 -56 -73 -95.5t-94 -46.5l-21 -54q34 -5 52.5 -20t18.5 -37z" />
<glyph unicode="&#xe8;" horiz-adv-x="383" d="M406 589l-13 -12q-38 23 -75 50.5t-60 54t-21 45.5q2 15 16 23t35 8h5h6l6 -4q12 -31 40.5 -76.5t60.5 -88.5zM379 133q-34 -62 -81.5 -102.5t-103.5 -40.5q-60 0 -90.5 45.5t-30.5 124.5q0 64 21 126t56.5 111.5t80 79t91.5 29.5q44 0 69 -24.5t25 -64.5 q0 -41 -22 -74.5t-59.5 -58t-84.5 -38.5t-97 -15l2 14q-7 -41 -7 -80q0 -56 20.5 -88.5t58.5 -32.5q33 0 69.5 25.5t74.5 69.5zM310 470q-32 0 -62.5 -29t-54 -77t-35.5 -105q55 5 98 28.5t68 59t25 76.5q0 21 -10 34t-29 13z" />
<glyph unicode="&#xe9;" horiz-adv-x="383" d="M398 756l8 3q2 0 5 -0.5t6 -0.5q40 -4 40 -28q0 -16 -20.5 -36.5t-53 -42t-71 -41t-75.5 -33.5l-9 15q34 27 67.5 57.5t60.5 58t42 48.5zM379 133q-34 -62 -81.5 -102.5t-103.5 -40.5q-60 0 -90.5 45.5t-30.5 124.5q0 64 21 126t56.5 111.5t80 79t91.5 29.5 q44 0 69 -24.5t25 -64.5q0 -41 -22 -74.5t-59.5 -58t-84.5 -38.5t-97 -15l2 14q-7 -41 -7 -80q0 -56 20.5 -88.5t58.5 -32.5q33 0 69.5 25.5t74.5 69.5zM310 470q-32 0 -62.5 -29t-54 -77t-35.5 -105q55 5 98 28.5t68 59t25 76.5q0 21 -10 34t-29 13z" />
<glyph unicode="&#xea;" horiz-adv-x="383" d="M462 592l-16 -11q-22 26 -48 55.5t-55 55.5q-28 -24 -68 -55.5t-73 -55.5l-10 13q23 25 48 54.5t46.5 56t33.5 43.5l8 5h54q18 -32 39.5 -75t40.5 -86zM379 133q-34 -62 -81.5 -102.5t-103.5 -40.5q-60 0 -90.5 45.5t-30.5 124.5q0 64 21 126t56.5 111.5t80 79t91.5 29.5 q44 0 69 -24.5t25 -64.5q0 -41 -22 -74.5t-59.5 -58t-84.5 -38.5t-97 -15l2 14q-7 -41 -7 -80q0 -56 20.5 -88.5t58.5 -32.5q33 0 69.5 25.5t74.5 69.5zM310 470q-32 0 -62.5 -29t-54 -77t-35.5 -105q55 5 98 28.5t68 59t25 76.5q0 21 -10 34t-29 13z" />
<glyph unicode="&#xeb;" horiz-adv-x="383" d="M488 678q0 -27 -16.5 -47t-38.5 -20q-18 0 -29.5 12t-11.5 32q0 24 16 44.5t40 20.5q18 0 29 -11.5t11 -30.5zM286 678q0 -27 -16.5 -47t-38.5 -20q-18 0 -29.5 12t-11.5 32q0 24 16 44.5t40 20.5q18 0 29 -11.5t11 -30.5zM379 133q-34 -62 -81.5 -102.5t-103.5 -40.5 q-60 0 -90.5 45.5t-30.5 124.5q0 64 21 126t56.5 111.5t80 79t91.5 29.5q44 0 69 -24.5t25 -64.5q0 -41 -22 -74.5t-59.5 -58t-84.5 -38.5t-97 -15l2 14q-7 -41 -7 -80q0 -56 20.5 -88.5t58.5 -32.5q33 0 69.5 25.5t74.5 69.5zM310 470q-32 0 -62.5 -29t-54 -77t-35.5 -105 q55 5 98 28.5t68 59t25 76.5q0 21 -10 34t-29 13z" />
<glyph unicode="&#xec;" horiz-adv-x="298" d="M345 589l-13 -12q-39 23 -75.5 50.5t-60 54t-20.5 45.5q1 15 15 23t35 8h6h5l7 -4q11 -31 39.5 -76.5t61.5 -88.5zM199 134q-4 -21 -7 -37.5t-3 -25.5q0 -26 17 -26q12 0 28 13.5t32.5 33.5t31.5 41l9 -6q-14 -29 -35 -61t-47 -54t-54 -22q-29 0 -42.5 18t-13.5 48 q0 14 3 33t8 45q11 52 26.5 114.5t27.5 113.5q4 22 7 38t3 26q0 25 -18 25q-11 0 -27 -13.5t-32.5 -33.5t-31.5 -41l-9 6q14 30 35 61.5t47 53.5t54 22q29 0 42.5 -18t13.5 -48q0 -14 -3 -33t-8 -45q-12 -53 -27.5 -115.5t-26.5 -112.5z" />
<glyph unicode="&#xed;" horiz-adv-x="298" d="M324 756l8 3q2 0 5 -0.5t6 -0.5q40 -4 40 -28q0 -16 -20.5 -36.5t-53 -42t-71 -41t-75.5 -33.5l-9 15q34 27 67.5 57.5t60.5 58t42 48.5zM199 134q-4 -21 -7 -37.5t-3 -25.5q0 -26 17 -26q12 0 28 13.5t32.5 33.5t31.5 41l9 -6q-14 -29 -35 -61t-47 -54t-54 -22 q-29 0 -42.5 18t-13.5 48q0 14 3 33t8 45q11 52 26.5 114.5t27.5 113.5q4 22 7 38t3 26q0 25 -18 25q-11 0 -27 -13.5t-32.5 -33.5t-31.5 -41l-9 6q14 30 35 61.5t47 53.5t54 22q29 0 42.5 -18t13.5 -48q0 -14 -3 -33t-8 -45q-12 -53 -27.5 -115.5t-26.5 -112.5z" />
<glyph unicode="&#xee;" horiz-adv-x="298" d="M349 592l-17 -11q-15 24 -32 52t-34 52q-25 -23 -58 -52.5t-58 -51.5l-10 13q17 25 39 54.5t40.5 56t26.5 43.5l9 5h53q8 -33 19 -74.5t22 -86.5zM199 134q-4 -21 -7 -37.5t-3 -25.5q0 -26 17 -26q12 0 28 13.5t32.5 33.5t31.5 41l9 -6q-14 -29 -35 -61t-47 -54t-54 -22 q-29 0 -42.5 18t-13.5 48q0 14 3 33t8 45q11 52 26.5 114.5t27.5 113.5q4 22 7 38t3 26q0 25 -18 25q-11 0 -27 -13.5t-32.5 -33.5t-31.5 -41l-9 6q14 30 35 61.5t47 53.5t54 22q29 0 42.5 -18t13.5 -48q0 -14 -3 -33t-8 -45q-12 -53 -27.5 -115.5t-26.5 -112.5z" />
<glyph unicode="&#xef;" horiz-adv-x="298" d="M386 674q-2 -24 -15 -43.5t-37 -19.5q-18 0 -28 14t-9 34q0 25 15 43.5t37 18.5q18 0 28 -13t9 -34zM232 674q-1 -24 -14.5 -43.5t-36.5 -19.5q-19 0 -29 14t-9 34q1 25 16 43.5t36 18.5q19 0 28.5 -13t8.5 -34zM199 134q-4 -21 -7 -37.5t-3 -25.5q0 -26 17 -26 q12 0 28 13.5t32.5 33.5t31.5 41l9 -6q-14 -29 -35 -61t-47 -54t-54 -22q-29 0 -42.5 18t-13.5 48q0 14 3 33t8 45q11 52 26.5 114.5t27.5 113.5q4 22 7 38t3 26q0 25 -18 25q-11 0 -27 -13.5t-32.5 -33.5t-31.5 -41l-9 6q14 30 35 61.5t47 53.5t54 22q29 0 42.5 -18 t13.5 -48q0 -14 -3 -33t-8 -45q-12 -53 -27.5 -115.5t-26.5 -112.5z" />
<glyph unicode="&#xf0;" horiz-adv-x="444" d="M226 -10q-61 0 -98.5 49.5t-37.5 130.5q0 67 18.5 127.5t50 107.5t71.5 74t83 27q33 0 57 -17q-14 67 -42 118l-167 -70l-8 32l158 66q-43 61 -113 98l12 21q93 -35 149 -99l126 53l9 -32l-115 -48q72 -104 73 -292q0 -64 -16.5 -125.5t-47 -111.5t-72 -79.5t-90.5 -29.5 zM314 471q-31 0 -58 -29.5t-47.5 -77t-32 -102.5t-11.5 -107q0 -60 17.5 -95t48.5 -35t57.5 29t46.5 76.5t31.5 104t11.5 110.5q0 55 -15 90.5t-49 35.5z" />
<glyph unicode="&#xf1;" horiz-adv-x="540" d="M299 675q-11 -5 -28 -22t-42 -45l-9 5q21 56 50.5 86.5t68.5 30.5q29 0 57 -14.5t54 -29.5t48 -16q11 5 28 22t42 45l9 -5q-21 -56 -50.5 -86.5t-68.5 -30.5q-29 0 -57.5 14.5t-54.5 29.5t-47 16zM104 13l26 121q13 58 25.5 115t24.5 112q10 46 10 64q0 26 -17 26 q-18 0 -43.5 -28t-48.5 -60l-9 6q14 29 35 61t46.5 54t53.5 22t41.5 -17.5t13.5 -45.5q0 -23 -11.5 -74t-24.5 -108q17 33 40 75t51 80.5t59.5 64t65.5 25.5t50 -23t16 -53q0 -23 -7 -59t-17.5 -78t-21.5 -83.5t-20 -75.5q-4 -21 -7 -37.5t-3 -25.5q0 -26 18 -26 q12 0 27.5 13.5t32.5 33.5t32 41l8 -6q-14 -29 -35 -61t-46.5 -54t-54.5 -22q-28 0 -42 18t-14 48q0 14 3 33t9 45q8 34 19 74.5t21.5 79.5t17.5 71.5t7 51.5q0 16 -7 26t-22 10q-19 0 -41 -20.5t-45 -53t-44.5 -70.5t-38 -73t-26.5 -61l-8 -35l-29 -136l-32 -4 q-6 -1 -16 -2t-15 -1q-8 0 -8.5 6.5t1.5 15.5z" />
<glyph unicode="&#xf2;" horiz-adv-x="433" d="M405 589l-13 -12q-38 23 -75 50.5t-60 54t-21 45.5q2 15 16 23t35 8h5h6l6 -4q12 -31 40.5 -76.5t60.5 -88.5zM439 329q0 -72 -19 -133.5t-51 -108t-73 -72t-85 -25.5q-61 0 -98 49.5t-37 130.5q0 67 19 127.5t51.5 107.5t73.5 74t85 27q66 0 100 -48t34 -129zM151 155 q0 -60 17.5 -95t49.5 -35q30 0 56.5 29.5t46.5 78t31.5 105.5t11.5 112q0 54 -14.5 87.5t-49.5 33.5q-30 0 -57 -29.5t-48 -77t-32.5 -102.5t-11.5 -107z" />
<glyph unicode="&#xf3;" horiz-adv-x="433" d="M390 756l8 3q2 0 5 -0.5t6 -0.5q40 -4 40 -28q0 -16 -20.5 -36.5t-53 -42t-71 -41t-75.5 -33.5l-9 15q34 27 67.5 57.5t60.5 58t42 48.5zM439 329q0 -72 -19 -133.5t-51 -108t-73 -72t-85 -25.5q-61 0 -98 49.5t-37 130.5q0 67 19 127.5t51.5 107.5t73.5 74t85 27 q66 0 100 -48t34 -129zM151 155q0 -60 17.5 -95t49.5 -35q30 0 56.5 29.5t46.5 78t31.5 105.5t11.5 112q0 54 -14.5 87.5t-49.5 33.5q-30 0 -57 -29.5t-48 -77t-32.5 -102.5t-11.5 -107z" />
<glyph unicode="&#xf4;" horiz-adv-x="433" d="M458 592l-17 -11q-21 26 -47.5 55.5t-54.5 55.5q-29 -24 -69 -55.5t-73 -55.5l-10 13q23 25 48 54.5t46.5 56t33.5 43.5l8 5h54q18 -32 39.5 -75t41.5 -86zM439 329q0 -72 -19 -133.5t-51 -108t-73 -72t-85 -25.5q-61 0 -98 49.5t-37 130.5q0 67 19 127.5t51.5 107.5 t73.5 74t85 27q66 0 100 -48t34 -129zM151 155q0 -60 17.5 -95t49.5 -35q30 0 56.5 29.5t46.5 78t31.5 105.5t11.5 112q0 54 -14.5 87.5t-49.5 33.5q-30 0 -57 -29.5t-48 -77t-32.5 -102.5t-11.5 -107z" />
<glyph unicode="&#xf5;" horiz-adv-x="433" d="M230 675q-11 -5 -28 -22t-42 -45l-9 5q21 56 50.5 86.5t68.5 30.5q29 0 57 -14.5t53.5 -29.5t48.5 -16q11 5 28 22t42 45l9 -5q-21 -56 -50.5 -86.5t-68.5 -30.5q-29 0 -57.5 14.5t-55 29.5t-46.5 16zM439 329q0 -72 -19 -133.5t-51 -108t-73 -72t-85 -25.5 q-61 0 -98 49.5t-37 130.5q0 67 19 127.5t51.5 107.5t73.5 74t85 27q66 0 100 -48t34 -129zM151 155q0 -60 17.5 -95t49.5 -35q30 0 56.5 29.5t46.5 78t31.5 105.5t11.5 112q0 54 -14.5 87.5t-49.5 33.5q-30 0 -57 -29.5t-48 -77t-32.5 -102.5t-11.5 -107z" />
<glyph unicode="&#xf6;" horiz-adv-x="433" d="M482 678q0 -27 -16 -47t-39 -20q-18 0 -29 12t-11 32q0 24 15.5 44.5t40.5 20.5q17 0 28 -11.5t11 -30.5zM280 678q0 -27 -16 -47t-38 -20q-19 0 -30 12t-11 32q0 24 16 44.5t40 20.5q17 0 28 -11.5t11 -30.5zM439 329q0 -72 -19 -133.5t-51 -108t-73 -72t-85 -25.5 q-61 0 -98 49.5t-37 130.5q0 67 19 127.5t51.5 107.5t73.5 74t85 27q66 0 100 -48t34 -129zM151 155q0 -60 17.5 -95t49.5 -35q30 0 56.5 29.5t46.5 78t31.5 105.5t11.5 112q0 54 -14.5 87.5t-49.5 33.5q-30 0 -57 -29.5t-48 -77t-32.5 -102.5t-11.5 -107z" />
<glyph unicode="&#xf7;" d="M377 475q-16 0 -26.5 10.5t-10.5 28.5q0 28 16.5 47.5t40.5 19.5q16 0 26.5 -10.5t10.5 -27.5q0 -29 -16.5 -48.5t-40.5 -19.5zM547 318h-415l10 46q35 1 90 2t116 2t116.5 1h91.5l7 -8zM298 105q-16 0 -27 10t-11 28q0 28 17 47.5t40 19.5q17 0 27.5 -10t10.5 -28 q0 -28 -17 -47.5t-40 -19.5z" />
<glyph unicode="&#xf8;" horiz-adv-x="433" d="M439 329q0 -72 -19 -133.5t-51 -108t-73 -72t-85 -25.5q-39 0 -69 21.5t-47 59.5l-63 -62l-23 27l73 72q-6 29 -6 62q0 67 19 127.5t51.5 107.5t73.5 74t85 27q39 0 67 -17.5t45 -49.5l50 49l24 -27l-60 -59q8 -33 8 -73zM300 471q-29 0 -55 -26.5t-46 -70.5t-32.5 -95.5 t-15.5 -101.5l211 208q-4 39 -18.5 62.5t-43.5 23.5zM218 25q29 0 55 27.5t46 73.5t31.5 101t13.5 109l-212 -209q4 -48 21 -75t45 -27z" />
<glyph unicode="&#xf9;" horiz-adv-x="547" d="M455 589l-13 -12q-39 23 -75.5 50.5t-60 54t-20.5 45.5q1 15 15 23t35 8h6h5l7 -4q11 -31 39.5 -76.5t61.5 -88.5zM187 362q4 22 7 38t3 26q0 25 -18 25q-12 0 -27.5 -13.5t-32 -33.5t-32.5 -41l-8 6q14 30 35 61.5t47 53.5t54 22q29 0 42.5 -18t13.5 -48q0 -14 -3 -33 t-8 -45q-9 -36 -19.5 -76t-21 -78.5t-17 -69.5t-6.5 -49q0 -17 6.5 -27.5t19.5 -10.5q17 0 38.5 19.5t44.5 51t45 69t40.5 75.5t30.5 70l6 27h1l29 136l31 4q7 1 17 2t15 1q8 0 8 -6.5t-1 -15.5l-27 -121l-50 -229q-4 -21 -7 -37.5t-3 -25.5q0 -26 18 -26q12 0 27.5 13.5 t32.5 33.5t32 41l8 -6q-14 -29 -35 -61t-46.5 -54t-54.5 -22t-42.5 18t-13.5 48q0 14 3 33t9 45l22 100v0q-14 -29 -36 -70.5t-50.5 -81t-60.5 -66t-64 -26.5q-33 0 -50 23t-17 58q0 22 7 57t17.5 75.5t21 81.5t19.5 77z" />
<glyph unicode="&#xfa;" horiz-adv-x="547" d="M453 756l8 3q2 0 5 -0.5t6 -0.5q40 -4 40 -28q0 -16 -20 -36.5t-53 -42t-71.5 -41t-75.5 -33.5l-9 15q35 27 68 57.5t60 58t42 48.5zM187 362q4 22 7 38t3 26q0 25 -18 25q-12 0 -27.5 -13.5t-32 -33.5t-32.5 -41l-8 6q14 30 35 61.5t47 53.5t54 22q29 0 42.5 -18 t13.5 -48q0 -14 -3 -33t-8 -45q-9 -36 -19.5 -76t-21 -78.5t-17 -69.5t-6.5 -49q0 -17 6.5 -27.5t19.5 -10.5q17 0 38.5 19.5t44.5 51t45 69t40.5 75.5t30.5 70l6 27h1l29 136l31 4q7 1 17 2t15 1q8 0 8 -6.5t-1 -15.5l-27 -121l-50 -229q-4 -21 -7 -37.5t-3 -25.5 q0 -26 18 -26q12 0 27.5 13.5t32.5 33.5t32 41l8 -6q-14 -29 -35 -61t-46.5 -54t-54.5 -22t-42.5 18t-13.5 48q0 14 3 33t9 45l22 100v0q-14 -29 -36 -70.5t-50.5 -81t-60.5 -66t-64 -26.5q-33 0 -50 23t-17 58q0 22 7 57t17.5 75.5t21 81.5t19.5 77z" />
<glyph unicode="&#xfb;" horiz-adv-x="547" d="M512 591l-17 -11q-21 26 -47.5 55.5t-54.5 55.5q-29 -24 -69 -55.5t-73 -55.5l-10 13q23 25 48 54.5t46.5 56t33.5 43.5l8 5h54q18 -32 39.5 -75t41.5 -86zM187 362q4 22 7 38t3 26q0 25 -18 25q-12 0 -27.5 -13.5t-32 -33.5t-32.5 -41l-8 6q14 30 35 61.5t47 53.5t54 22 q29 0 42.5 -18t13.5 -48q0 -14 -3 -33t-8 -45q-9 -36 -19.5 -76t-21 -78.5t-17 -69.5t-6.5 -49q0 -17 6.5 -27.5t19.5 -10.5q17 0 38.5 19.5t44.5 51t45 69t40.5 75.5t30.5 70l6 27h1l29 136l31 4q7 1 17 2t15 1q8 0 8 -6.5t-1 -15.5l-27 -121l-50 -229q-4 -21 -7 -37.5 t-3 -25.5q0 -26 18 -26q12 0 27.5 13.5t32.5 33.5t32 41l8 -6q-14 -29 -35 -61t-46.5 -54t-54.5 -22t-42.5 18t-13.5 48q0 14 3 33t9 45l22 100v0q-14 -29 -36 -70.5t-50.5 -81t-60.5 -66t-64 -26.5q-33 0 -50 23t-17 58q0 22 7 57t17.5 75.5t21 81.5t19.5 77z" />
<glyph unicode="&#xfc;" horiz-adv-x="547" d="M538 678q0 -27 -16 -47t-38 -20q-18 0 -29.5 12t-11.5 32q0 24 16 44.5t40 20.5q18 0 28.5 -11.5t10.5 -30.5zM336 678q0 -27 -16 -47t-38 -20q-18 0 -29.5 12t-11.5 32q0 24 16 44.5t40 20.5q18 0 28.5 -11.5t10.5 -30.5zM187 362q4 22 7 38t3 26q0 25 -18 25 q-12 0 -27.5 -13.5t-32 -33.5t-32.5 -41l-8 6q14 30 35 61.5t47 53.5t54 22q29 0 42.5 -18t13.5 -48q0 -14 -3 -33t-8 -45q-9 -36 -19.5 -76t-21 -78.5t-17 -69.5t-6.5 -49q0 -17 6.5 -27.5t19.5 -10.5q17 0 38.5 19.5t44.5 51t45 69t40.5 75.5t30.5 70l6 27h1l29 136l31 4 q7 1 17 2t15 1q8 0 8 -6.5t-1 -15.5l-27 -121l-50 -229q-4 -21 -7 -37.5t-3 -25.5q0 -26 18 -26q12 0 27.5 13.5t32.5 33.5t32 41l8 -6q-14 -29 -35 -61t-46.5 -54t-54.5 -22t-42.5 18t-13.5 48q0 14 3 33t9 45l22 100v0q-14 -29 -36 -70.5t-50.5 -81t-60.5 -66t-64 -26.5 q-33 0 -50 23t-17 58q0 22 7 57t17.5 75.5t21 81.5t19.5 77z" />
<glyph unicode="&#xfd;" horiz-adv-x="429" d="M382 756l7 3q3 0 6 -0.5t5 -0.5q41 -4 41 -28q0 -16 -20.5 -36.5t-53.5 -42t-71.5 -41t-74.5 -33.5l-10 15q35 27 68 57.5t60 58t43 48.5zM166 506q82 0 82 -164q0 -66 -14 -153t-41 -171q94 90 143 200t49 219q0 37 -5 60q11 9 30 9q50 0 50 -71q0 -69 -32.5 -151 t-95.5 -164.5t-156 -150.5q-24 -62 -56 -113.5t-71 -81.5t-84 -30q-37 0 -59.5 16t-22.5 40q0 12 6.5 21t15.5 14q13 -18 29 -29t38 -11q36 0 64 28.5t49.5 76t38.5 104.5q17 59 28 120.5t16.5 115.5t5.5 89q0 62 -11.5 92t-30.5 30q-18 0 -39.5 -27t-43.5 -61l-9 6 q13 32 32.5 63.5t43.5 52.5t50 21z" />
<glyph unicode="&#xfe;" horiz-adv-x="467" d="M24 -234l26 121l163 744l14 68l-73 16v11q34 9 73.5 16.5t75.5 12.5l8 -8l-26 -116l-76 -350q15 32 35.5 70.5t45.5 73.5t53.5 58t60.5 23q39 1 59 -34t20 -93q0 -76 -20 -146t-56.5 -125t-85 -86.5t-105.5 -31.5q-35 0 -69 7l-24 -110l-29 -136l-32 -4q-6 -1 -16 -2 t-15 -1q-8 0 -8.5 6.5t1.5 15.5zM370 444q-18 0 -39 -20.5t-43 -54t-42.5 -72t-36.5 -74t-26 -59.5l-26 -120q15 -8 33 -13t41 -5q37 0 69 30.5t56.5 81t38 111.5t13.5 122q0 73 -38 73z" />
<glyph unicode="&#xff;" horiz-adv-x="429" d="M467 678q0 -27 -16.5 -47t-38.5 -20q-18 0 -29.5 12t-11.5 32q0 24 16 44.5t40 20.5q18 0 29 -11.5t11 -30.5zM265 678q0 -27 -16 -47t-39 -20q-18 0 -29.5 12t-11.5 32q0 24 16 44.5t41 20.5q17 0 28 -11.5t11 -30.5zM166 506q82 0 82 -164q0 -66 -14 -153t-41 -171 q94 90 143 200t49 219q0 37 -5 60q11 9 30 9q50 0 50 -71q0 -69 -32.5 -151t-95.5 -164.5t-156 -150.5q-24 -62 -56 -113.5t-71 -81.5t-84 -30q-37 0 -59.5 16t-22.5 40q0 12 6.5 21t15.5 14q13 -18 29 -29t38 -11q36 0 64 28.5t49.5 76t38.5 104.5q17 59 28 120.5 t16.5 115.5t5.5 89q0 62 -11.5 92t-30.5 30q-18 0 -39.5 -27t-43.5 -61l-9 6q13 32 32.5 63.5t43.5 52.5t50 21z" />
<glyph unicode="&#x100;" horiz-adv-x="666" d="M351 819l10 45h273l-10 -45h-273zM445 688h45l75 -613q3 -19 9.5 -28t21.5 -13l51 -14l-2 -20h-232l-4 20l86 22l-25 200l-232 -4l-107 -195l81 -23l-4 -20h-203l-2 20l56 16q17 4 27 13t20 26zM259 276l207 -1l-37 311z" />
<glyph unicode="&#x101;" horiz-adv-x="501" d="M243 643l11 46h257l-11 -46h-257zM405 134q-5 -21 -8 -37.5t-3 -25.5q0 -26 18 -26q12 0 27.5 13.5t32.5 33.5t32 41l9 -6q-14 -29 -35 -61t-47 -54t-54 -22q-29 0 -43 18t-14 48q0 14 3.5 33t8.5 45l25 113v0q-18 -39 -42.5 -83.5t-52.5 -84t-58.5 -64.5t-60.5 -25 q-35 0 -57 31.5t-22 90.5q0 77 23.5 148t65 126.5t95.5 87.5t114 32q35 0 66.5 -7.5t54.5 -18.5l-6 -19zM139 120q0 -30 9 -49.5t25 -19.5q19 0 43 23.5t49 60.5t48 79.5t41 82.5t27 67l20 89q-28 19 -66 19q-36 0 -70.5 -29.5t-63 -79.5t-45.5 -113t-17 -130z" />
<glyph unicode="&#x102;" horiz-adv-x="666" d="M617 901l4 2l15 -7q-24 -53 -64 -82.5t-92 -29.5q-49 0 -72.5 32t-19.5 84l18 3q3 -29 26.5 -45.5t61.5 -16.5q78 0 123 60zM445 688h45l75 -613q3 -19 9.5 -28t21.5 -13l51 -14l-2 -20h-232l-4 20l86 22l-25 200l-232 -4l-107 -195l81 -23l-4 -20h-203l-2 20l56 16 q17 4 27 13t20 26zM259 276l207 -1l-37 311z" />
<glyph unicode="&#x103;" horiz-adv-x="501" d="M508 734l5 2l15 -3q-24 -63 -65.5 -99t-92.5 -36q-48 0 -72 37.5t-19 97.5l18 3q4 -37 27 -58t61 -21q37 0 69.5 20t53.5 57zM405 134q-5 -21 -8 -37.5t-3 -25.5q0 -26 18 -26q12 0 27.5 13.5t32.5 33.5t32 41l9 -6q-14 -29 -35 -61t-47 -54t-54 -22q-29 0 -43 18t-14 48 q0 14 3.5 33t8.5 45l25 113v0q-18 -39 -42.5 -83.5t-52.5 -84t-58.5 -64.5t-60.5 -25q-35 0 -57 31.5t-22 90.5q0 77 23.5 148t65 126.5t95.5 87.5t114 32q35 0 66.5 -7.5t54.5 -18.5l-6 -19zM139 120q0 -30 9 -49.5t25 -19.5q19 0 43 23.5t49 60.5t48 79.5t41 82.5t27 67 l20 89q-28 19 -66 19q-36 0 -70.5 -29.5t-63 -79.5t-45.5 -113t-17 -130z" />
<glyph unicode="&#x104;" horiz-adv-x="666" d="M642 0q-56 -23 -91 -61t-35 -72q0 -17 8.5 -26t20.5 -9q20 0 41.5 19.5t40.5 42.5l8 -6q-11 -27 -28.5 -52.5t-40.5 -42t-52 -16.5q-34 0 -50 19t-16 51q0 41 37 83.5t98 69.5h-170l-4 20l86 22l-25 200l-232 -4l-107 -195l81 -23l-4 -20h-203l-2 20l56 16q17 4 27 13 t20 26l339 613h45l75 -613q3 -19 9.5 -28t21.5 -13l51 -14l-2 -20h-3zM259 276l207 -1l-37 311z" />
<glyph unicode="&#x105;" horiz-adv-x="501" d="M405 134q-5 -21 -8 -37.5t-3 -25.5q0 -26 18 -26q12 0 27.5 13.5t32.5 33.5t32 41l9 -6q-10 -20 -22.5 -41t-27.5 -40l3 2q-34 -47 -65.5 -80.5t-51 -58.5t-19.5 -49q0 -28 26 -28q20 0 39 20t38 42l8 -6q-11 -27 -28 -52.5t-39.5 -42t-50.5 -16.5q-27 0 -44 17.5 t-17 45.5q0 30 18 55t46.5 48t58.5 48q-4 -1 -8 -1q-29 0 -43 18t-14 48q0 14 3.5 33t8.5 45l25 113v0q-18 -39 -42.5 -83.5t-52.5 -84t-58.5 -64.5t-60.5 -25q-35 0 -57 31.5t-22 90.5q0 77 23.5 148t65 126.5t95.5 87.5t114 32q35 0 66.5 -7.5t54.5 -18.5l-6 -19zM139 120 q0 -30 9 -49.5t25 -19.5q19 0 43 23.5t49 60.5t48 79.5t41 82.5t27 67l20 89q-28 19 -66 19q-36 0 -70.5 -29.5t-63 -79.5t-45.5 -113t-17 -130z" />
<glyph unicode="&#x106;" horiz-adv-x="601" d="M612 908l8 1q14 -6 25.5 -14.5t11.5 -22.5q0 -16 -22.5 -30.5t-60 -27.5t-82 -22.5t-89.5 -13.5l-5 16q66 29 123 58t91 56zM376 -10q-125 0 -197 73.5t-72 201.5q0 88 31 166.5t85.5 138t126.5 93t153 33.5q90 0 141 -26q-2 -22 -8 -53t-14 -62t-16 -54h-19 q-7 43 -12 77.5t-10 65.5q-13 5 -27.5 8t-37.5 3q-63 0 -120 -30.5t-100.5 -84.5t-68.5 -123.5t-25 -146.5t26 -130.5t70.5 -81t100.5 -27.5q26 0 43.5 3.5l32.5 6.5q19 32 40 67t45 74h19q-5 -38 -15 -84t-21 -80q-30 -12 -69 -20t-82 -8z" />
<glyph unicode="&#x107;" horiz-adv-x="377" d="M425 756l7 3q3 0 6 -0.5t5 -0.5q41 -4 41 -28q0 -16 -20.5 -36.5t-53.5 -42t-71.5 -41t-74.5 -33.5l-10 15q35 27 68.5 57.5t60 58t42.5 48.5zM325 506q44 0 70 -26.5t26 -67.5q0 -34 -17.5 -61t-43.5 -27q-7 0 -13.5 2t-11.5 5q7 15 13.5 38.5t6.5 45.5q0 25 -10 40 t-35 15q-30 0 -58.5 -27t-52.5 -71.5t-38 -99t-14 -109.5q0 -57 21 -88t62 -31q33 0 70 25.5t75 69.5l8 -6q-33 -61 -81 -102t-104 -41q-63 0 -94.5 43t-31.5 119q0 68 21.5 131.5t57.5 113.5t81 79.5t93 29.5z" />
<glyph unicode="&#x108;" horiz-adv-x="601" d="M659 782l-16 -10q-24 20 -53.5 43t-60.5 44q-31 -19 -74 -43.5t-79 -43.5l-9 13q24 20 52 44t51.5 46t36.5 35l8 5h51q21 -26 46 -61.5t47 -71.5zM376 -10q-125 0 -197 73.5t-72 201.5q0 88 31 166.5t85.5 138t126.5 93t153 33.5q90 0 141 -26q-2 -22 -8 -53t-14 -62 t-16 -54h-19q-7 43 -12 77.5t-10 65.5q-13 5 -27.5 8t-37.5 3q-63 0 -120 -30.5t-100.5 -84.5t-68.5 -123.5t-25 -146.5t26 -130.5t70.5 -81t100.5 -27.5q26 0 43.5 3.5l32.5 6.5q19 32 40 67t45 74h19q-5 -38 -15 -84t-21 -80q-30 -12 -69 -20t-82 -8z" />
<glyph unicode="&#x109;" horiz-adv-x="377" d="M467 592l-16 -11q-22 26 -48.5 55.5t-54.5 55.5q-29 -24 -69 -55.5t-73 -55.5l-9 13q22 25 47.5 54.5t47 56t32.5 43.5l9 5h53q18 -32 40 -75t41 -86zM325 506q44 0 70 -26.5t26 -67.5q0 -34 -17.5 -61t-43.5 -27q-7 0 -13.5 2t-11.5 5q7 15 13.5 38.5t6.5 45.5 q0 25 -10 40t-35 15q-30 0 -58.5 -27t-52.5 -71.5t-38 -99t-14 -109.5q0 -57 21 -88t62 -31q33 0 70 25.5t75 69.5l8 -6q-33 -61 -81 -102t-104 -41q-63 0 -94.5 43t-31.5 119q0 68 21.5 131.5t57.5 113.5t81 79.5t93 29.5z" />
<glyph unicode="&#x10a;" horiz-adv-x="601" d="M579 851q0 -26 -19 -45.5t-45 -19.5q-45 0 -45 42q0 25 19 44t45 19q21 0 33 -10.5t12 -29.5zM376 -10q-125 0 -197 73.5t-72 201.5q0 88 31 166.5t85.5 138t126.5 93t153 33.5q90 0 141 -26q-2 -22 -8 -53t-14 -62t-16 -54h-19q-7 43 -12 77.5t-10 65.5q-13 5 -27.5 8 t-37.5 3q-63 0 -120 -30.5t-100.5 -84.5t-68.5 -123.5t-25 -146.5t26 -130.5t70.5 -81t100.5 -27.5q26 0 43.5 3.5l32.5 6.5q19 32 40 67t45 74h19q-5 -38 -15 -84t-21 -80q-30 -12 -69 -20t-82 -8z" />
<glyph unicode="&#x10b;" horiz-adv-x="377" d="M347 607q-17 0 -28.5 11t-11.5 31q0 29 18 50t44 21q17 0 28.5 -11t11.5 -30q0 -30 -18 -51t-44 -21zM325 506q44 0 70 -26.5t26 -67.5q0 -34 -17.5 -61t-43.5 -27q-7 0 -13.5 2t-11.5 5q7 15 13.5 38.5t6.5 45.5q0 25 -10 40t-35 15q-30 0 -58.5 -27t-52.5 -71.5 t-38 -99t-14 -109.5q0 -57 21 -88t62 -31q33 0 70 25.5t75 69.5l8 -6q-33 -61 -81 -102t-104 -41q-63 0 -94.5 43t-31.5 119q0 68 21.5 131.5t57.5 113.5t81 79.5t93 29.5z" />
<glyph unicode="&#x10c;" horiz-adv-x="601" d="M541 776l-8 -5h-53q-20 27 -41.5 62.5t-41.5 71.5l16 10q22 -20 48.5 -43t53.5 -44q33 19 78.5 44t83.5 43l10 -12q-26 -21 -54.5 -45t-53 -46t-38.5 -36zM376 -10q-125 0 -197 73.5t-72 201.5q0 88 31 166.5t85.5 138t126.5 93t153 33.5q90 0 141 -26q-2 -22 -8 -53 t-14 -62t-16 -54h-19q-7 43 -12 77.5t-10 65.5q-13 5 -27.5 8t-37.5 3q-63 0 -120 -30.5t-100.5 -84.5t-68.5 -123.5t-25 -146.5t26 -130.5t70.5 -81t100.5 -27.5q26 0 43.5 3.5l32.5 6.5q19 32 40 67t45 74h19q-5 -38 -15 -84t-21 -80q-30 -12 -69 -20t-82 -8z" />
<glyph unicode="&#x10d;" horiz-adv-x="377" d="M371 586l-7 -5h-54q-17 32 -36 75t-37 87l16 10q21 -26 45 -55t49 -56q32 24 74.5 56t78.5 55l10 -12q-25 -25 -52 -54.5t-50.5 -56.5t-36.5 -44zM325 506q44 0 70 -26.5t26 -67.5q0 -34 -17.5 -61t-43.5 -27q-7 0 -13.5 2t-11.5 5q7 15 13.5 38.5t6.5 45.5q0 25 -10 40 t-35 15q-30 0 -58.5 -27t-52.5 -71.5t-38 -99t-14 -109.5q0 -57 21 -88t62 -31q33 0 70 25.5t75 69.5l8 -6q-33 -61 -81 -102t-104 -41q-63 0 -94.5 43t-31.5 119q0 68 21.5 131.5t57.5 113.5t81 79.5t93 29.5z" />
<glyph unicode="&#x10e;" horiz-adv-x="671" d="M519 776l-8 -5h-54q-19 27 -40.5 62.5t-41.5 71.5l16 10q22 -20 48.5 -43t53.5 -44q33 19 78.5 44t83.5 43l10 -12q-26 -21 -54.5 -45t-53 -46t-38.5 -36zM329 572l-97 -457l-17 -79h62q78 0 139.5 33.5t104.5 90t66 128t23 148.5q0 98 -52 156t-158 58h-54zM276 0h-223 l-2 20l59 15q18 5 26 12.5t12 23.5l9 44l97 457v0l15 71l-78 23l4 20h220q84 0 145.5 -31t95 -88.5t33.5 -136.5q0 -81 -27.5 -158t-80 -138.5t-129.5 -97.5t-176 -36z" />
<glyph unicode="&#x10f;" horiz-adv-x="501" d="M405 134q-5 -21 -8 -37.5t-3 -25.5q0 -26 18 -26q12 0 27.5 13.5t32.5 33.5t32 41l9 -6q-14 -29 -35 -61t-47 -54t-54 -22q-29 0 -43 18t-14 48q0 14 3.5 33t8.5 45l26 116q-18 -39 -42 -84t-53 -85t-59.5 -65.5t-60.5 -25.5q-35 0 -57 31.5t-22 90.5q0 77 23.5 148 t65 126.5t95.5 87.5t114 32q25 0 51 -4l30 129l14 67l-93 17v11q23 6 53.5 11.5t61 10t54.5 7.5l8 -8l-26 -116zM690 704q0 -26 -15.5 -56.5t-42.5 -58.5t-59 -46l-7 7q23 27 38 51t24 52q-16 1 -25.5 11.5t-9.5 27.5q0 23 17 39.5t40 16.5q18 0 29 -12t11 -32zM139 120 q0 -30 9 -49.5t25 -19.5q19 0 43 23.5t49 61t48 80t41 82t27 66.5l20 89q-28 19 -66 19q-36 0 -70.5 -29.5t-63 -79.5t-45.5 -113t-17 -130z" />
<glyph unicode="&#x110;" horiz-adv-x="671" d="M459 335h-180l-47 -220l-17 -79h62q78 0 139.5 33.5t104.5 90t66 128t23 148.5q0 98 -52 156t-158 58h-54l-17 -78l-43 -203h180zM276 0h-223l-2 20l59 15q18 5 26 12.5t12 23.5l9 44l47 220h-107l7 34h107l43 203v0l15 71l-78 23l4 20h220q84 0 145.5 -31t95 -88.5 t33.5 -136.5q0 -81 -27.5 -158t-80 -138.5t-129.5 -97.5t-176 -36z" />
<glyph unicode="&#x111;" horiz-adv-x="501" d="M405 134q-5 -21 -8 -37.5t-3 -25.5q0 -26 18 -26q12 0 27.5 13.5t32.5 33.5t32 41l9 -6q-14 -29 -35 -61t-47 -54t-54 -22q-29 0 -43 18t-14 48q0 14 3.5 33t8.5 45l26 116q-18 -39 -42 -84t-53 -85t-59.5 -65.5t-60.5 -25.5q-35 0 -57 31.5t-22 90.5q0 77 23.5 148 t65 126.5t95.5 87.5t114 32q25 0 51 -4l20 86h-168l7 35h169l2 8l14 67l-93 17v11q23 6 53.5 11.5t61 10t54.5 7.5l8 -8l-26 -116l-1 -8h124l-8 -35h-124zM139 120q0 -30 9 -49.5t25 -19.5q19 0 43 23.5t49 61t48 80t41 82t27 66.5l20 89q-28 19 -66 19q-36 0 -70.5 -29.5 t-63 -79.5t-45.5 -113t-17 -130z" />
<glyph unicode="&#x112;" horiz-adv-x="581" d="M328 818l11 45h272l-10 -45h-273zM329 572l-45 -210l206 5l-11 -46l-202 6l-45 -212l-17 -81h137q28 0 55.5 1.5t46.5 3.5q16 29 33.5 62.5t44.5 80.5h19q-3 -39 -14 -91.5t-26 -90.5h-458l-2 20l59 15q18 5 26 12.5t12 23.5l9 44l97 457l15 71l-78 23l4 20h433 q-1 -39 -12.5 -89t-25.5 -93h-19q-6 47 -10 80.5t-8 62.5q-16 1 -44 2.5t-56 1.5h-107z" />
<glyph unicode="&#x113;" horiz-adv-x="383" d="M202 643l10 46h257l-10 -46h-257zM379 133q-34 -62 -81.5 -102.5t-103.5 -40.5q-60 0 -90.5 45.5t-30.5 124.5q0 64 21 126t56.5 111.5t80 79t91.5 29.5q44 0 69 -24.5t25 -64.5q0 -41 -22 -74.5t-59.5 -58t-84.5 -38.5t-97 -15l2 14q-7 -41 -7 -80q0 -56 20.5 -88.5 t58.5 -32.5q33 0 69.5 25.5t74.5 69.5zM310 470q-32 0 -62.5 -29t-54 -77t-35.5 -105q55 5 98 28.5t68 59t25 76.5q0 21 -10 34t-29 13z" />
<glyph unicode="&#x114;" horiz-adv-x="581" d="M588 900l4 2l15 -7q-24 -53 -64 -82.5t-92 -29.5q-49 0 -72.5 32t-19.5 84l18 4q3 -30 26.5 -46.5t61.5 -16.5q78 0 123 60zM329 572l-45 -210l206 5l-11 -46l-202 6l-45 -212l-17 -81h137q28 0 55.5 1.5t46.5 3.5q16 29 33.5 62.5t44.5 80.5h19q-3 -39 -14 -91.5 t-26 -90.5h-458l-2 20l59 15q18 5 26 12.5t12 23.5l9 44l97 457l15 71l-78 23l4 20h433q-1 -39 -12.5 -89t-25.5 -93h-19q-6 47 -10 80.5t-8 62.5q-16 1 -44 2.5t-56 1.5h-107z" />
<glyph unicode="&#x115;" horiz-adv-x="383" d="M468 734l4 2l16 -3q-24 -63 -65.5 -99t-92.5 -36q-49 0 -72.5 37.5t-18.5 97.5l18 3q3 -37 26.5 -58t61.5 -21q37 0 69.5 20t53.5 57zM379 133q-34 -62 -81.5 -102.5t-103.5 -40.5q-60 0 -90.5 45.5t-30.5 124.5q0 64 21 126t56.5 111.5t80 79t91.5 29.5q44 0 69 -24.5 t25 -64.5q0 -41 -22 -74.5t-59.5 -58t-84.5 -38.5t-97 -15l2 14q-7 -41 -7 -80q0 -56 20.5 -88.5t58.5 -32.5q33 0 69.5 25.5t74.5 69.5zM310 470q-32 0 -62.5 -29t-54 -77t-35.5 -105q55 5 98 28.5t68 59t25 76.5q0 21 -10 34t-29 13z" />
<glyph unicode="&#x116;" horiz-adv-x="581" d="M523 850q0 -26 -19 -45.5t-45 -19.5q-45 0 -45 42q0 26 19 45t45 19q21 0 33 -11t12 -30zM329 572l-45 -210l206 5l-11 -46l-202 6l-45 -212l-17 -81h137q28 0 55.5 1.5t46.5 3.5q16 29 33.5 62.5t44.5 80.5h19q-3 -39 -14 -91.5t-26 -90.5h-458l-2 20l59 15 q18 5 26 12.5t12 23.5l9 44l97 457l15 71l-78 23l4 20h433q-1 -39 -12.5 -89t-25.5 -93h-19q-6 47 -10 80.5t-8 62.5q-16 1 -44 2.5t-56 1.5h-107z" />
<glyph unicode="&#x117;" horiz-adv-x="383" d="M328 607q-18 0 -29.5 11t-11.5 31q0 29 18.5 50t43.5 21q18 0 29.5 -11t11.5 -30q0 -30 -18 -51t-44 -21zM379 133q-34 -62 -81.5 -102.5t-103.5 -40.5q-60 0 -90.5 45.5t-30.5 124.5q0 64 21 126t56.5 111.5t80 79t91.5 29.5q44 0 69 -24.5t25 -64.5q0 -41 -22 -74.5 t-59.5 -58t-84.5 -38.5t-97 -15l2 14q-7 -41 -7 -80q0 -56 20.5 -88.5t58.5 -32.5q33 0 69.5 25.5t74.5 69.5zM310 470q-32 0 -62.5 -29t-54 -77t-35.5 -105q55 5 98 28.5t68 59t25 76.5q0 21 -10 34t-29 13z" />
<glyph unicode="&#x118;" horiz-adv-x="581" d="M506 0q-56 -23 -91 -61t-35 -72q0 -17 8.5 -26t20.5 -9q20 0 41.5 19.5t40.5 42.5l8 -6q-11 -27 -28 -52.5t-40.5 -42t-51.5 -16.5q-35 0 -50.5 19t-15.5 51q0 41 36.5 83.5t97.5 69.5h-394l-2 20l59 15q18 5 26 12.5t12 23.5l9 44l97 457l15 71l-78 23l4 20h433 q-1 -39 -12.5 -89t-25.5 -93h-19q-6 47 -10 80.5t-8 62.5q-16 1 -44 2.5t-56 1.5h-107l-17 -79l-45 -210l206 5l-11 -46l-202 6l-45 -212l-17 -81h137q28 0 55.5 1.5t46.5 3.5q16 29 33.5 62.5t44.5 80.5h19q-3 -39 -14 -91.5t-26 -90.5h-5z" />
<glyph unicode="&#x119;" horiz-adv-x="383" d="M379 133q-27 -50 -61 -84q-38 -45 -72 -77.5t-55 -58.5t-21 -52q0 -29 26 -29q20 0 39 19.5t38 42.5l8 -6q-11 -27 -28 -52.5t-39.5 -42t-50.5 -16.5t-44.5 17.5t-16.5 46.5q0 32 21 58t53 49.5t64 49.5q-23 -8 -46 -8q-60 0 -90.5 45.5t-30.5 124.5q0 64 21 126 t56.5 111.5t80 79t91.5 29.5q44 0 69 -24.5t25 -64.5q0 -41 -22 -74.5t-59.5 -58t-84.5 -38.5t-97 -15l2 14q-7 -41 -7 -80q0 -56 20.5 -88.5t58.5 -32.5q33 0 69.5 25.5t74.5 69.5zM310 470q-32 0 -62.5 -29t-54 -77t-35.5 -105q55 5 98 28.5t68 59t25 76.5q0 21 -10 34 t-29 13z" />
<glyph unicode="&#x11a;" horiz-adv-x="581" d="M491 775l-8 -5h-53q-19 27 -40.5 63t-42.5 71l16 10q22 -20 48.5 -43t53.5 -44q33 19 78.5 44t83.5 43l10 -12q-26 -21 -54.5 -45t-53 -46t-38.5 -36zM329 572l-45 -210l206 5l-11 -46l-202 6l-45 -212l-17 -81h137q28 0 55.5 1.5t46.5 3.5q16 29 33.5 62.5t44.5 80.5h19 q-3 -39 -14 -91.5t-26 -90.5h-458l-2 20l59 15q18 5 26 12.5t12 23.5l9 44l97 457l15 71l-78 23l4 20h433q-1 -39 -12.5 -89t-25.5 -93h-19q-6 47 -10 80.5t-8 62.5q-16 1 -44 2.5t-56 1.5h-107z" />
<glyph unicode="&#x11b;" horiz-adv-x="383" d="M366 586l-8 -5h-53q-17 32 -36.5 75t-37.5 87l17 10q20 -26 44.5 -55t49.5 -56q31 24 74 56t78 55l10 -12q-24 -25 -51 -54.5t-50.5 -56.5t-36.5 -44zM379 133q-34 -62 -81.5 -102.5t-103.5 -40.5q-60 0 -90.5 45.5t-30.5 124.5q0 64 21 126t56.5 111.5t80 79t91.5 29.5 q44 0 69 -24.5t25 -64.5q0 -41 -22 -74.5t-59.5 -58t-84.5 -38.5t-97 -15l2 14q-7 -41 -7 -80q0 -56 20.5 -88.5t58.5 -32.5q33 0 69.5 25.5t74.5 69.5zM310 470q-32 0 -62.5 -29t-54 -77t-35.5 -105q55 5 98 28.5t68 59t25 76.5q0 21 -10 34t-29 13z" />
<glyph unicode="&#x11c;" horiz-adv-x="641" d="M672 782l-17 -10q-24 20 -53 43t-60 44q-31 -19 -74.5 -43.5t-78.5 -43.5l-10 13q25 20 52.5 44t51.5 46t36 35l9 5h50q21 -26 46.5 -61.5t47.5 -71.5zM385 31q51 0 89 13l35 161l15 72l-78 23l4 20h235l2 -20l-59 -14q-17 -4 -25 -12t-11 -25l-11 -44h1l-40 -185 q-33 -13 -72.5 -21.5t-92.5 -8.5q-82 0 -142.5 32.5t-94 93.5t-33.5 147q0 93 32.5 171.5t89 137.5t128.5 91.5t151 32.5q49 0 87 -6.5t72 -19.5q-2 -23 -8.5 -53t-15 -60.5t-17.5 -55.5h-18q-7 43 -12 77.5t-10 65.5q-20 7 -39.5 9t-44.5 2q-60 0 -116.5 -29.5t-101.5 -83 t-72 -124.5t-27 -155q0 -67 24.5 -119.5t69 -82.5t106.5 -30z" />
<glyph unicode="&#x11d;" horiz-adv-x="401" d="M441 589l-16 -10q-22 26 -48.5 55t-54.5 56q-29 -25 -69 -56.5t-73 -54.5l-9 13q22 24 47.5 53.5t47 56.5t32.5 44l9 5h53q18 -32 40 -75t41 -87zM281 506q63 0 115 2.5t85 10.5q6 -10 6 -23q0 -15 -9 -26.5t-31 -11.5q-16 0 -41 5.5t-59 13.5q26 -19 37.5 -45.5 t11.5 -59.5q0 -57 -20.5 -100t-51 -74.5t-61 -55t-51.5 -41.5t-21 -33q0 -14 14 -23.5t38 -22.5q54 -31 86.5 -57t32.5 -69q0 -36 -26 -71t-76 -58t-121 -23q-81 0 -127 32t-46 77q0 35 26 64t67 54l9 -9q-15 -18 -26.5 -38t-11.5 -44q0 -47 38 -74.5t91 -27.5q59 0 97 27.5 t38 68.5q0 27 -23.5 46.5t-65.5 44.5q-35 20 -60 37.5t-25 44.5q0 23 25.5 45.5t72.5 55.5h-5q-57 0 -93 37t-36 98q0 60 26.5 111t71 81.5t99.5 30.5zM155 288q0 -49 18 -77.5t47 -28.5q28 0 52 29.5t38.5 76t14.5 98.5q0 40 -15 63.5t-43 23.5q-32 0 -57 -28t-40 -70.5 t-15 -86.5z" />
<glyph unicode="&#x11e;" horiz-adv-x="641" d="M653 901l4 2l15 -7q-24 -53 -64 -82.5t-92 -29.5q-49 0 -72.5 32t-19.5 84l18 3q3 -29 26.5 -45.5t61.5 -16.5q78 0 123 60zM385 31q51 0 89 13l35 161l15 72l-78 23l4 20h235l2 -20l-59 -14q-17 -4 -25 -12t-11 -25l-11 -44h1l-40 -185q-33 -13 -72.5 -21.5t-92.5 -8.5 q-82 0 -142.5 32.5t-94 93.5t-33.5 147q0 93 32.5 171.5t89 137.5t128.5 91.5t151 32.5q49 0 87 -6.5t72 -19.5q-2 -23 -8.5 -53t-15 -60.5t-17.5 -55.5h-18q-7 43 -12 77.5t-10 65.5q-20 7 -39.5 9t-44.5 2q-60 0 -116.5 -29.5t-101.5 -83t-72 -124.5t-27 -155 q0 -67 24.5 -119.5t69 -82.5t106.5 -30z" />
<glyph unicode="&#x11f;" horiz-adv-x="401" d="M447 732l5 2l15 -3q-24 -63 -65 -99t-92 -36q-49 0 -72.5 37.5t-19.5 97.5l18 3q4 -37 27 -58.5t61 -21.5t70 20.5t53 57.5zM281 506q63 0 115 2.5t85 10.5q6 -10 6 -23q0 -15 -9 -26.5t-31 -11.5q-16 0 -41 5.5t-59 13.5q26 -19 37.5 -45.5t11.5 -59.5q0 -57 -20.5 -100 t-51 -74.5t-61 -55t-51.5 -41.5t-21 -33q0 -14 14 -23.5t38 -22.5q54 -31 86.5 -57t32.5 -69q0 -36 -26 -71t-76 -58t-121 -23q-81 0 -127 32t-46 77q0 35 26 64t67 54l9 -9q-15 -18 -26.5 -38t-11.5 -44q0 -47 38 -74.5t91 -27.5q59 0 97 27.5t38 68.5q0 27 -23.5 46.5 t-65.5 44.5q-35 20 -60 37.5t-25 44.5q0 23 25.5 45.5t72.5 55.5h-5q-57 0 -93 37t-36 98q0 60 26.5 111t71 81.5t99.5 30.5zM155 288q0 -49 18 -77.5t47 -28.5q28 0 52 29.5t38.5 76t14.5 98.5q0 40 -15 63.5t-43 23.5q-32 0 -57 -28t-40 -70.5t-15 -86.5z" />
<glyph unicode="&#x120;" horiz-adv-x="641" d="M590 851q0 -26 -19 -45.5t-45 -19.5q-45 0 -45 42q0 25 19 44t45 19q21 0 33 -10.5t12 -29.5zM385 31q51 0 89 13l35 161l15 72l-78 23l4 20h235l2 -20l-59 -14q-17 -4 -25 -12t-11 -25l-11 -44h1l-40 -185q-33 -13 -72.5 -21.5t-92.5 -8.5q-82 0 -142.5 32.5t-94 93.5 t-33.5 147q0 93 32.5 171.5t89 137.5t128.5 91.5t151 32.5q49 0 87 -6.5t72 -19.5q-2 -23 -8.5 -53t-15 -60.5t-17.5 -55.5h-18q-7 43 -12 77.5t-10 65.5q-20 7 -39.5 9t-44.5 2q-60 0 -116.5 -29.5t-101.5 -83t-72 -124.5t-27 -155q0 -67 24.5 -119.5t69 -82.5t106.5 -30z " />
<glyph unicode="&#x121;" horiz-adv-x="401" d="M317 604q-17 0 -28.5 11.5t-11.5 30.5q0 30 18 51t44 21q17 0 28.5 -11.5t11.5 -29.5q0 -31 -18 -52t-44 -21zM281 506q63 0 115 2.5t85 10.5q6 -10 6 -23q0 -15 -9 -26.5t-31 -11.5q-16 0 -41 5.5t-59 13.5q26 -19 37.5 -45.5t11.5 -59.5q0 -57 -20.5 -100t-51 -74.5 t-61 -55t-51.5 -41.5t-21 -33q0 -14 14 -23.5t38 -22.5q54 -31 86.5 -57t32.5 -69q0 -36 -26 -71t-76 -58t-121 -23q-81 0 -127 32t-46 77q0 35 26 64t67 54l9 -9q-15 -18 -26.5 -38t-11.5 -44q0 -47 38 -74.5t91 -27.5q59 0 97 27.5t38 68.5q0 27 -23.5 46.5t-65.5 44.5 q-35 20 -60 37.5t-25 44.5q0 23 25.5 45.5t72.5 55.5h-5q-57 0 -93 37t-36 98q0 60 26.5 111t71 81.5t99.5 30.5zM155 288q0 -49 18 -77.5t47 -28.5q28 0 52 29.5t38.5 76t14.5 98.5q0 40 -15 63.5t-43 23.5q-32 0 -57 -28t-40 -70.5t-15 -86.5z" />
<glyph unicode="&#x122;" horiz-adv-x="641" d="M385 31q51 0 89 13l35 161l15 72l-78 23l4 20h235l2 -20l-59 -14q-17 -4 -25 -12t-11 -25l-11 -44h1l-40 -185q-33 -13 -72.5 -21.5t-92.5 -8.5q-82 0 -142.5 32.5t-94 93.5t-33.5 147q0 93 32.5 171.5t89 137.5t128.5 91.5t151 32.5q49 0 87 -6.5t72 -19.5 q-2 -23 -8.5 -53t-15 -60.5t-17.5 -55.5h-18q-7 43 -12 77.5t-10 65.5q-20 7 -39.5 9t-44.5 2q-60 0 -116.5 -29.5t-101.5 -83t-72 -124.5t-27 -155q0 -67 24.5 -119.5t69 -82.5t106.5 -30zM391 -158q0 -28 -16.5 -60.5t-44.5 -62t-63 -48.5l-7 8q24 27 39.5 53t24.5 55 q-16 2 -26 13t-10 29q0 26 18 43.5t43 17.5q19 0 30.5 -13t11.5 -35z" />
<glyph unicode="&#x123;" horiz-adv-x="401" d="M276 652q0 29 16.5 61.5t45 62t62.5 48.5l8 -8q-24 -28 -40 -54t-25 -54q36 -4 36 -42q0 -26 -17.5 -44t-43.5 -18q-19 0 -30.5 13t-11.5 35zM281 506q63 0 115 2.5t85 10.5q6 -10 6 -23q0 -15 -9 -26.5t-31 -11.5q-16 0 -41 5.5t-59 13.5q26 -19 37.5 -45.5t11.5 -59.5 q0 -57 -20.5 -100t-51 -74.5t-61 -55t-51.5 -41.5t-21 -33q0 -14 14 -23.5t38 -22.5q54 -31 86.5 -57t32.5 -69q0 -36 -26 -71t-76 -58t-121 -23q-81 0 -127 32t-46 77q0 35 26 64t67 54l9 -9q-15 -18 -26.5 -38t-11.5 -44q0 -47 38 -74.5t91 -27.5q59 0 97 27.5t38 68.5 q0 27 -23.5 46.5t-65.5 44.5q-35 20 -60 37.5t-25 44.5q0 23 25.5 45.5t72.5 55.5h-5q-57 0 -93 37t-36 98q0 60 26.5 111t71 81.5t99.5 30.5zM155 288q0 -49 18 -77.5t47 -28.5q28 0 52 29.5t38.5 76t14.5 98.5q0 40 -15 63.5t-43 23.5q-32 0 -57 -28t-40 -70.5t-15 -86.5z " />
<glyph unicode="&#x124;" horiz-adv-x="760" d="M680 782l-16 -10q-24 20 -53.5 43t-60.5 44q-31 -19 -74 -43.5t-79 -43.5l-9 13q25 20 52.5 44t51 46t36.5 35l8 5h51q21 -26 46 -61.5t47 -71.5zM216 43l79 -23l-4 -20h-238l-2 20l59 15q17 5 25 12.5t12 23.5l10 44v0l96 457l16 71l-78 23l4 20h237l2 -20l-59 -15 q-16 -5 -24.5 -12.5t-11.5 -23.5l-11 -43h1l-43 -204h321l43 204l16 71l-78 23l4 20h237l2 -20l-59 -15q-16 -5 -24.5 -12.5t-12.5 -23.5l-10 -43h1l-97 -457l-16 -72l79 -23l-4 -20h-238l-2 20l59 15q16 5 24.5 12.5t12.5 23.5l10 44v0l45 213h-322l-45 -213z" />
<glyph unicode="&#x125;" horiz-adv-x="510" d="M411 800l-17 -10q-24 20 -53 43t-61 44q-30 -19 -73.5 -43.5t-78.5 -43.5l-10 13q25 20 52.5 44t51.5 46t36 35l9 5h50q21 -26 46.5 -61.5t47.5 -71.5zM74 13l26 121l108 498l15 68l-74 16v10q35 10 74.5 17.5t75.5 12.5l8 -8l-26 -116q-21 -95 -43.5 -189t-46.5 -188 q60 122 114 186.5t108 64.5q34 0 50 -23t16 -53q0 -23 -7 -59t-18 -78t-22 -83.5t-20 -75.5q-4 -21 -7 -37.5t-3 -25.5q0 -26 18 -26q12 0 27.5 13.5t32.5 33.5t32 41l8 -6q-14 -29 -35 -61t-46.5 -54t-54.5 -22t-42.5 18t-13.5 48q0 14 3 33t9 45q8 34 18.5 74.5t21 79.5 t17.5 71.5t7 51.5q0 16 -6.5 26t-21.5 10q-19 0 -41.5 -20.5t-45.5 -53.5t-44.5 -71t-38 -73.5t-26.5 -60.5l-7 -34l-29 -136l-32 -4q-6 -1 -16 -2t-15 -1q-9 0 -9 6.5t2 15.5z" />
<glyph unicode="&#x126;" horiz-adv-x="760" d="M216 43l79 -23l-4 -20h-238l-2 20l59 15q17 5 25 12.5t12 23.5l10 44v0l80 378h-87l6 35h88l9 44l16 71l-78 23l4 20h237l2 -20l-59 -15q-16 -5 -24.5 -12.5t-11.5 -23.5l-11 -43h1l-10 -44h322l9 44l16 71l-78 23l4 20h237l2 -20l-59 -15q-16 -5 -24.5 -12.5 t-12.5 -23.5l-10 -43h1l-10 -44h79l-6 -35h-80l-80 -378l-16 -72l79 -23l-4 -20h-238l-2 20l59 15q16 5 24.5 12.5t12.5 23.5l10 44v0l45 213h-322l-45 -213zM286 368h321l27 125h-322z" />
<glyph unicode="&#x127;" horiz-adv-x="510" d="M74 13l26 121l99 454h-140l7 35h141l1 9l15 68l-74 16v10q35 10 74.5 17.5t75.5 12.5l8 -8l-26 -116q-1 -5 -2 -9h153l-7 -35h-154q-19 -84 -39 -167t-41 -166q60 122 114 186.5t108 64.5q34 0 50 -23t16 -53q0 -23 -7 -59t-18 -78t-22 -83.5t-20 -75.5q-4 -21 -7 -37.5 t-3 -25.5q0 -26 18 -26q12 0 27.5 13.5t32.5 33.5t32 41l8 -6q-14 -29 -35 -61t-46.5 -54t-54.5 -22t-42.5 18t-13.5 48q0 14 3 33t9 45q8 34 18.5 74.5t21 79.5t17.5 71.5t7 51.5q0 16 -6.5 26t-21.5 10q-19 0 -41.5 -20.5t-45.5 -53.5t-44.5 -71t-38 -73.5t-26.5 -60.5 l-7 -34l-29 -136l-32 -4q-6 -1 -16 -2t-15 -1q-9 0 -9 6.5t2 15.5z" />
<glyph unicode="&#x128;" horiz-adv-x="365" d="M239 845q-11 -4 -30 -20.5t-48 -43.5l-10 5q23 55 53 85.5t70 30.5q31 0 63 -14.5t62.5 -29t55.5 -15.5q12 5 30.5 21.5t47.5 43.5l10 -6q-23 -55 -53 -85.5t-71 -30.5q-29 0 -61.5 14.5t-63 29.5t-55.5 15zM216 43l79 -23l-4 -20h-238l-2 20l59 15q17 5 25 12.5t12 23.5 l10 44v0l96 457l16 71l-78 23l4 20h237l2 -20l-59 -15q-16 -5 -24.5 -12.5t-11.5 -23.5l-11 -43h1l-97 -457z" />
<glyph unicode="&#x129;" horiz-adv-x="298" d="M192 675q-11 -5 -27.5 -22t-40.5 -45l-9 5q20 56 48 86.5t65 30.5q21 0 41.5 -14.5t39 -29.5t34.5 -16q11 5 27 22t41 45l9 -5q-21 -56 -49 -86.5t-65 -30.5q-21 0 -41.5 14.5t-39.5 29.5t-33 16zM199 134q-4 -21 -7 -37.5t-3 -25.5q0 -26 17 -26q12 0 28 13.5t32.5 33.5 t31.5 41l9 -6q-14 -29 -35 -61t-47 -54t-54 -22q-29 0 -42.5 18t-13.5 48q0 14 3 33t8 45q11 52 26.5 114.5t27.5 113.5q4 22 7 38t3 26q0 25 -18 25q-11 0 -27 -13.5t-32.5 -33.5t-31.5 -41l-9 6q14 30 35 61.5t47 53.5t54 22q29 0 42.5 -18t13.5 -48q0 -14 -3 -33t-8 -45 q-12 -53 -27.5 -115.5t-26.5 -112.5z" />
<glyph unicode="&#x12a;" horiz-adv-x="365" d="M207 819l10 45h273l-10 -45h-273zM216 43l79 -23l-4 -20h-238l-2 20l59 15q17 5 25 12.5t12 23.5l10 44v0l96 457l16 71l-78 23l4 20h237l2 -20l-59 -15q-16 -5 -24.5 -12.5t-11.5 -23.5l-11 -43h1l-97 -457z" />
<glyph unicode="&#x12b;" horiz-adv-x="298" d="M167 643l10 46h192l-11 -46h-191zM199 134q-4 -21 -7 -37.5t-3 -25.5q0 -26 17 -26q12 0 28 13.5t32.5 33.5t31.5 41l9 -6q-14 -29 -35 -61t-47 -54t-54 -22q-29 0 -42.5 18t-13.5 48q0 14 3 33t8 45q11 52 26.5 114.5t27.5 113.5q4 22 7 38t3 26q0 25 -18 25 q-11 0 -27 -13.5t-32.5 -33.5t-31.5 -41l-9 6q14 30 35 61.5t47 53.5t54 22q29 0 42.5 -18t13.5 -48q0 -14 -3 -33t-8 -45q-12 -53 -27.5 -115.5t-26.5 -112.5z" />
<glyph unicode="&#x12c;" horiz-adv-x="365" d="M467 901l5 2l14 -7q-24 -53 -64 -82.5t-91 -29.5q-50 0 -73.5 32t-18.5 84l18 3q3 -29 26 -45.5t61 -16.5q79 0 123 60zM216 43l79 -23l-4 -20h-238l-2 20l59 15q17 5 25 12.5t12 23.5l10 44v0l96 457l16 71l-78 23l4 20h237l2 -20l-59 -15q-16 -5 -24.5 -12.5 t-11.5 -23.5l-11 -43h1l-97 -457z" />
<glyph unicode="&#x12d;" horiz-adv-x="298" d="M367 734l4 2l15 -3q-19 -63 -57.5 -99t-84.5 -36q-41 0 -62 37.5t-15 97.5l18 3q1 -37 21.5 -58t52.5 -21t62 20t46 57zM199 134q-4 -21 -7 -37.5t-3 -25.5q0 -26 17 -26q12 0 28 13.5t32.5 33.5t31.5 41l9 -6q-14 -29 -35 -61t-47 -54t-54 -22q-29 0 -42.5 18t-13.5 48 q0 14 3 33t8 45q11 52 26.5 114.5t27.5 113.5q4 22 7 38t3 26q0 25 -18 25q-11 0 -27 -13.5t-32.5 -33.5t-31.5 -41l-9 6q14 30 35 61.5t47 53.5t54 22q29 0 42.5 -18t13.5 -48q0 -14 -3 -33t-8 -45q-12 -53 -27.5 -115.5t-26.5 -112.5z" />
<glyph unicode="&#x12e;" horiz-adv-x="365" d="M216 43l79 -23l-4 -20q-57 -23 -91.5 -61t-34.5 -72q0 -17 8 -26t20 -9q20 0 41.5 19.5t40.5 42.5l9 -6q-12 -27 -29 -52.5t-40.5 -42t-51.5 -16.5q-34 0 -50 19t-16 51q0 41 36.5 83.5t97.5 69.5h-178l-2 20l59 15q17 5 25 12.5t12 23.5l10 44v0l96 457l16 71l-78 23 l4 20h237l2 -20l-59 -15q-16 -5 -24.5 -12.5t-11.5 -23.5l-11 -43h1l-97 -457z" />
<glyph unicode="&#x12f;" horiz-adv-x="298" d="M256 607q-17 0 -28.5 11t-11.5 31q0 29 18 50t44 21q17 0 28.5 -11t11.5 -30q0 -30 -18 -51t-44 -21zM199 134q-4 -21 -7 -37.5t-3 -25.5q0 -26 17 -26q12 0 28 13.5t32.5 33.5t31.5 41l9 -6q-9 -20 -21.5 -41t-27.5 -40l2 2q-34 -47 -65 -80.5t-51 -58.5t-20 -49 q0 -28 26 -28q20 0 39 20t38 42l8 -6q-11 -27 -28 -52.5t-39.5 -42t-50.5 -16.5q-27 0 -44 17.5t-17 45.5q0 30 18 55t46.5 48t59.5 48q-5 -1 -9 -1q-29 0 -42.5 18t-13.5 48q0 14 3 33t8 45q11 52 26.5 114.5t27.5 113.5q4 22 7 38t3 26q0 25 -18 25q-11 0 -27 -13.5 t-32.5 -33.5t-31.5 -41l-9 6q14 30 35 61.5t47 53.5t54 22q29 0 42.5 -18t13.5 -48q0 -14 -3 -33t-8 -45q-12 -53 -27.5 -115.5t-26.5 -112.5z" />
<glyph unicode="&#x130;" horiz-adv-x="365" d="M399 851q0 -26 -19.5 -45.5t-45.5 -19.5q-45 0 -44 42q0 25 19 44t45 19q21 0 33 -10.5t12 -29.5zM216 43l79 -23l-4 -20h-238l-2 20l59 15q17 5 25 12.5t12 23.5l10 44v0l96 457l16 71l-78 23l4 20h237l2 -20l-59 -15q-16 -5 -24.5 -12.5t-11.5 -23.5l-11 -43h1 l-97 -457z" />
<glyph unicode="&#x131;" horiz-adv-x="298" d="M199 134q-4 -21 -7 -37.5t-3 -25.5q0 -26 17 -26q12 0 28 13.5t32.5 33.5t31.5 41l9 -6q-14 -29 -35 -61t-47 -54t-54 -22q-29 0 -42.5 18t-13.5 48q0 14 3 33t8 45q11 52 26.5 114.5t27.5 113.5q4 22 7 38t3 26q0 25 -18 25q-11 0 -27 -13.5t-32.5 -33.5t-31.5 -41l-9 6 q14 30 35 61.5t47 53.5t54 22q29 0 42.5 -18t13.5 -48q0 -14 -3 -33t-8 -45q-12 -53 -27.5 -115.5t-26.5 -112.5z" />
<glyph unicode="&#x132;" horiz-adv-x="717" d="M216 43l79 -23l-4 -20h-238l-2 20l59 15q17 5 25 12.5t12 23.5l10 44v0l96 457l16 71l-78 23l4 20h237l2 -20l-59 -15q-16 -5 -24.5 -12.5t-11.5 -23.5l-11 -43h1l-97 -457zM634 643l-78 23l4 20h238l2 -20l-60 -15q-16 -5 -24.5 -12.5t-11.5 -23.5l-10 -43v0l-105 -496 q-14 -64 -41.5 -108.5t-66.5 -76.5t-87 -61l-13 18q34 36 60 70t45.5 78.5t33.5 111.5l99 464z" />
<glyph unicode="&#x133;" horiz-adv-x="542" d="M256 607q-17 0 -28.5 11t-11.5 31q0 29 18 50t44 21q17 0 28.5 -11t11.5 -30q0 -30 -18 -51t-44 -21zM515 607q-18 0 -29.5 11t-11.5 31q0 29 18.5 50t43.5 21q18 0 29.5 -11t11.5 -30q0 -30 -18.5 -51t-43.5 -21zM199 134q-4 -21 -7 -37.5t-3 -25.5q0 -26 17 -26 q12 0 28 13.5t32.5 33.5t31.5 41l9 -6q-14 -29 -35 -61t-47 -54t-54 -22q-29 0 -42.5 18t-13.5 48q0 14 3 33t8 45q11 52 26.5 114.5t27.5 113.5q4 22 7 38t3 26q0 25 -18 25q-11 0 -27 -13.5t-32.5 -33.5t-31.5 -41l-9 6q14 30 35 61.5t47 53.5t54 22q29 0 42.5 -18 t13.5 -48q0 -14 -3 -33t-8 -45q-12 -53 -27.5 -115.5t-26.5 -112.5zM441 362q4 22 7 38t3 26q0 25 -18 25q-12 0 -27.5 -13.5t-32 -33.5t-32.5 -41l-8 6q14 30 35 61.5t47 53.5t54 22q29 0 42.5 -18t13.5 -48q0 -14 -3 -33t-8 -45l-76 -363q-25 -119 -81 -187t-133 -68 q-42 0 -68 18.5t-26 45.5q0 12 6.5 21.5t15.5 13.5q15 -20 36.5 -36t48.5 -16q49 0 76.5 49t47.5 142z" />
<glyph unicode="&#x134;" horiz-adv-x="354" d="M482 782l-17 -10q-24 20 -53 43t-60 44q-31 -19 -74.5 -43.5t-78.5 -43.5l-10 13q25 20 52.5 44t51.5 46t36 35l9 5h50q21 -26 46.5 -61.5t47.5 -71.5zM271 643l-79 23l4 20h238l2 -20l-59 -15q-17 -5 -25 -12.5t-12 -23.5l-10 -43v0l-105 -496q-14 -64 -41 -108.5 t-66 -76.5t-87 -61l-14 18q34 36 60 70t45.5 78.5t33.5 111.5l99 464z" />
<glyph unicode="&#x135;" horiz-adv-x="258" d="M323 592l-17 -11q-15 24 -32 52t-34 52q-25 -23 -58 -52.5t-58 -51.5l-10 13q17 25 39 54.5t40.5 56t26.5 43.5l9 5h53q8 -33 19 -74.5t22 -86.5zM168 362q4 22 7 38t3 26q0 25 -18 25q-12 0 -27.5 -13.5t-32 -33.5t-32.5 -41l-8 6q14 30 35 61.5t47 53.5t54 22 q29 0 42.5 -18t13.5 -48q0 -14 -3 -33t-8 -45l-76 -363q-25 -119 -81 -187t-133 -68q-42 0 -68 18.5t-26 45.5q0 12 6.5 21.5t15.5 13.5q15 -20 36.5 -36t48.5 -16q49 0 76.5 49t47.5 142z" />
<glyph unicode="&#x136;" horiz-adv-x="655" d="M216 43l79 -23l-4 -20h-238l-2 20l59 15q17 5 25 12.5t12 23.5l10 44v0l96 457l16 71l-78 23l4 20h237l2 -20l-59 -15q-16 -5 -24.5 -12.5t-11.5 -23.5l-11 -43h1l-45 -211l113 1l240 281l-83 23l4 20h216l2 -20l-60 -17q-17 -5 -29.5 -14t-28.5 -26l-208 -237l83 -237 q18 -52 35.5 -74t46.5 -31l31 -10l-4 -20l-78 -1q-41 0 -59 17.5t-30 50.5l-86 256h-113l-44 -208zM372 -158q0 -28 -16.5 -60.5t-44.5 -62t-63 -48.5l-7 8q24 27 39.5 53t25.5 55q-17 2 -27 13t-10 29q0 26 18 43.5t43 17.5q19 0 30.5 -13t11.5 -35z" />
<glyph unicode="&#x137;" horiz-adv-x="490" d="M74 13l26 121l108 497l15 68l-74 16v11q35 9 74.5 16.5t75.5 12.5l8 -8l-26 -116q-21 -95 -43.5 -188t-45.5 -186q53 114 112.5 182t121.5 67q40 0 59.5 -22.5t19.5 -53.5q0 -35 -19 -67t-49 -59.5t-63 -48t-61 -33.5q27 -68 46 -106.5t33 -54.5t26 -16q10 0 25.5 13.5 t33 33.5t33.5 41l8 -6q-14 -29 -35.5 -61t-47 -54t-52.5 -22t-48 21t-42.5 69.5t-49.5 130.5l5 9q43 17 85 47t70 68t28 78q0 16 -8.5 27t-27.5 11q-32 0 -68.5 -35t-74 -99t-72.5 -149l-7 -34l-29 -136l-32 -4q-6 -1 -16 -2t-15 -1q-9 0 -9 6.5t2 15.5zM275 -158 q0 -28 -16.5 -60.5t-45 -62t-62.5 -48.5l-8 8q24 27 40 53t25 55q-16 2 -26.5 13t-10.5 29q0 26 18 43.5t43 17.5q19 0 31 -13t12 -35z" />
<glyph unicode="&#x138;" horiz-adv-x="542" d="M105 13l27 121l49 232q4 21 7 37.5t3 25.5q0 26 -18 26q-11 0 -27 -13.5t-32.5 -33.5t-31.5 -41l-9 6q14 29 35 61t47 54t54 22q29 0 42.5 -18t13.5 -48q0 -14 -3 -33t-8 -45l-23 -106h67q24 44 51 87t55.5 79.5t58.5 58t62 21.5q24 0 37 -12.5t13 -30.5t-7.5 -33 t-13.5 -23q-10 12 -22.5 21t-28.5 9q-24 0 -50.5 -23t-53.5 -58.5t-49 -71.5l15 -46q23 -73 42 -115t34.5 -60t28.5 -18q10 0 25.5 13.5t32.5 33.5t32 41l9 -6q-14 -29 -35.5 -61t-46.5 -54t-51 -22q-28 0 -49.5 23t-42.5 74.5t-48 136.5h-72l-20 -90l-28 -136l-32 -4 q-6 -1 -16 -2t-15 -1q-9 0 -9 6.5t1 15.5z" />
<glyph unicode="&#x139;" horiz-adv-x="552" d="M427 908l9 1q13 -6 24.5 -14.5t11.5 -22.5q0 -16 -22.5 -30.5t-60 -27.5t-82 -22.5t-89.5 -13.5l-5 16q66 29 123 58t91 56zM269 643l-78 23l4 20h237l2 -20l-59 -15q-16 -5 -24.5 -12.5t-11.5 -23.5l-11 -43h1l-97 -457l-17 -80h119q27 0 55 1t47 3q17 31 35 67t45 84 h18q-3 -41 -14 -94.5t-26 -95.5h-441l-2 20l59 15q18 5 26 12.5t12 23.5l9 44l96 457z" />
<glyph unicode="&#x13a;" horiz-adv-x="269" d="M369 968l9 1q14 -6 25 -14.5t11 -22.5q0 -16 -22.5 -30.5t-59.5 -27.5t-82 -22.5t-90 -13.5l-5 16q67 29 124 58t90 56zM173 134q-5 -21 -8 -37.5t-3 -25.5q0 -26 18 -26q12 0 27.5 13.5t32.5 33.5t32 41l8 -6q-13 -29 -34 -61t-47 -54t-55 -22q-28 0 -42 18t-14 48 q0 14 3 33t9 45l108 497l15 68l-74 16v11q35 9 74.5 16.5t75.5 12.5l8 -8l-26 -116z" />
<glyph unicode="&#x13b;" horiz-adv-x="552" d="M269 643l-78 23l4 20h237l2 -20l-59 -15q-16 -5 -24.5 -12.5t-11.5 -23.5l-11 -43h1l-97 -457l-17 -80h119q27 0 55 1t47 3q17 31 35 67t45 84h18q-3 -41 -14 -94.5t-26 -95.5h-441l-2 20l59 15q18 5 26 12.5t12 23.5l9 44l96 457zM326 -158q0 -28 -16.5 -60.5t-45 -62 t-62.5 -48.5l-8 8q24 27 40 53t25 55q-16 2 -26 13t-10 29q0 26 17.5 43.5t42.5 17.5q19 0 31 -13t12 -35z" />
<glyph unicode="&#x13c;" horiz-adv-x="269" d="M173 134q-5 -21 -8 -37.5t-3 -25.5q0 -26 18 -26q12 0 27.5 13.5t32.5 33.5t32 41l8 -6q-13 -29 -34 -61t-47 -54t-55 -22q-28 0 -42 18t-14 48q0 14 3 33t9 45l108 497l15 68l-74 16v11q35 9 74.5 16.5t75.5 12.5l8 -8l-26 -116zM182 -158q0 -28 -17 -60.5t-45 -62 t-62 -48.5l-8 8q24 27 40 53t25 55q-16 2 -26.5 13t-10.5 29q0 26 18 43.5t43 17.5q19 0 31 -13t12 -35z" />
<glyph unicode="&#x13d;" horiz-adv-x="552" d="M618 656q0 -27 -16 -57.5t-42.5 -58t-58.5 -46.5l-8 7q24 27 39 51.5t24 51.5q-16 2 -25.5 12t-9.5 27q0 24 16.5 40.5t40.5 16.5q18 0 29 -12t11 -32zM269 643l-78 23l4 20h237l2 -20l-59 -15q-16 -5 -24.5 -12.5t-11.5 -23.5l-11 -43h1l-97 -457l-17 -80h119q27 0 55 1 t47 3q17 31 35 67t45 84h18q-3 -41 -14 -94.5t-26 -95.5h-441l-2 20l59 15q18 5 26 12.5t12 23.5l9 44l96 457z" />
<glyph unicode="&#x13e;" horiz-adv-x="372" d="M480 712q0 -27 -16 -57t-42.5 -58t-59.5 -47l-7 8q24 26 39 50.5t24 51.5q-16 2 -25.5 12t-9.5 27q0 24 16.5 40.5t40.5 16.5q18 0 29 -12t11 -32zM173 134q-5 -21 -8 -37.5t-3 -25.5q0 -26 18 -26q12 0 27.5 13.5t32.5 33.5t32 41l8 -6q-13 -29 -34 -61t-47 -54t-55 -22 q-28 0 -42 18t-14 48q0 14 3 33t9 45l108 497l15 68l-74 16v11q35 9 74.5 16.5t75.5 12.5l8 -8l-26 -116z" />
<glyph unicode="&#x13f;" horiz-adv-x="552" d="M269 643l-78 23l4 20h237l2 -20l-59 -15q-16 -5 -24.5 -12.5t-11.5 -23.5l-11 -43h1l-97 -457l-17 -80h119q27 0 55 1t47 3q17 31 35 67t45 84h18q-3 -41 -14 -94.5t-26 -95.5h-441l-2 20l59 15q18 5 26 12.5t12 23.5l9 44l96 457zM512 324q-17 0 -28.5 11t-11.5 31 q0 29 18 50t43 21q18 0 29.5 -11t11.5 -30q0 -30 -18 -51t-44 -21z" />
<glyph unicode="&#x140;" horiz-adv-x="393" d="M173 134q-5 -21 -8 -37.5t-3 -25.5q0 -26 18 -26q12 0 27.5 13.5t32.5 33.5t32 41l8 -6q-13 -29 -34 -61t-47 -54t-55 -22q-28 0 -42 18t-14 48q0 14 3 33t9 45l108 497l15 68l-74 16v11q35 9 74.5 16.5t75.5 12.5l8 -8l-26 -116zM374 328q-18 0 -29.5 11t-11.5 31 q0 29 18.5 50t43.5 21q18 0 29.5 -11t11.5 -30q0 -30 -18.5 -51t-43.5 -21z" />
<glyph unicode="&#x141;" horiz-adv-x="552" d="M420 418l-140 -75l-48 -228l-17 -80h119q27 0 55 1t47 3q17 31 35 67t45 84h18q-3 -41 -14 -94.5t-26 -95.5h-441l-2 20l59 15q18 5 26 12.5t12 23.5l9 44l38 182l-115 -62l-11 37l137 73l47 227l16 71l-78 23l4 20h237l2 -20l-59 -15q-16 -5 -24.5 -12.5t-11.5 -23.5 l-11 -43h1l-38 -181l117 64z" />
<glyph unicode="&#x142;" horiz-adv-x="269" d="M173 134q-5 -21 -8 -37.5t-3 -25.5q0 -26 18 -26q12 0 27.5 13.5t32.5 33.5t32 41l8 -6q-13 -29 -34 -61t-47 -54t-55 -22q-28 0 -42 18t-14 48q0 14 3 33t9 45l47 216l-114 -61l-11 36l136 73l50 233l15 68l-74 16v11q35 9 74.5 16.5t75.5 12.5l8 -8l-26 -116l-41 -188 l121 65l12 -36l-144 -78z" />
<glyph unicode="&#x143;" horiz-adv-x="722" d="M622 908l8 1q14 -6 25.5 -14.5t11.5 -22.5q0 -16 -22.5 -30.5t-60 -27.5t-82 -22.5t-89.5 -13.5l-5 16q66 29 123 58t91 56zM182 44l96 -23l-5 -21h-223l-3 21l61 15q19 5 27 12t12 23l10 44l111 526l-80 24l5 21h141l236 -575l97 461l16 70l-85 23l4 21h213l2 -21 l-60 -15q-19 -5 -27.5 -12t-11.5 -23l-10 -43l-121 -572h-50l-240 583l-99 -468z" />
<glyph unicode="&#x144;" horiz-adv-x="540" d="M459 756l8 3q2 0 5 -0.5t6 -0.5q40 -4 40 -28q0 -16 -20 -36.5t-53 -42t-71.5 -41t-75.5 -33.5l-9 15q34 27 67.5 57.5t60.5 58t42 48.5zM104 13l26 121q13 58 25.5 115t24.5 112q10 46 10 64q0 26 -17 26q-18 0 -43.5 -28t-48.5 -60l-9 6q14 29 35 61t46.5 54t53.5 22 t41.5 -17.5t13.5 -45.5q0 -23 -11.5 -74t-24.5 -108q17 33 40 75t51 80.5t59.5 64t65.5 25.5t50 -23t16 -53q0 -23 -7 -59t-17.5 -78t-21.5 -83.5t-20 -75.5q-4 -21 -7 -37.5t-3 -25.5q0 -26 18 -26q12 0 27.5 13.5t32.5 33.5t32 41l8 -6q-14 -29 -35 -61t-46.5 -54 t-54.5 -22q-28 0 -42 18t-14 48q0 14 3 33t9 45q8 34 19 74.5t21.5 79.5t17.5 71.5t7 51.5q0 16 -7 26t-22 10q-19 0 -41 -20.5t-45 -53t-44.5 -70.5t-38 -73t-26.5 -61l-8 -35l-29 -136l-32 -4q-6 -1 -16 -2t-15 -1q-8 0 -8.5 6.5t1.5 15.5z" />
<glyph unicode="&#x145;" horiz-adv-x="722" d="M182 44l96 -23l-5 -21h-223l-3 21l61 15q19 5 27 12t12 23l10 44l111 526l-80 24l5 21h141l236 -575l97 461l16 70l-85 23l4 21h213l2 -21l-60 -15q-19 -5 -27.5 -12t-11.5 -23l-10 -43l-121 -572h-50l-240 583l-99 -468zM393 -158q0 -28 -16.5 -60.5t-45 -62 t-62.5 -48.5l-8 8q25 27 40.5 53t24.5 55q-16 2 -26 13t-10 29q0 26 17.5 43.5t43.5 17.5q19 0 30.5 -13t11.5 -35z" />
<glyph unicode="&#x146;" horiz-adv-x="540" d="M104 13l26 121q13 58 25.5 115t24.5 112q10 46 10 64q0 26 -17 26q-18 0 -43.5 -28t-48.5 -60l-9 6q14 29 35 61t46.5 54t53.5 22t41.5 -17.5t13.5 -45.5q0 -23 -11.5 -74t-24.5 -108q17 33 40 75t51 80.5t59.5 64t65.5 25.5t50 -23t16 -53q0 -23 -7 -59t-17.5 -78 t-21.5 -83.5t-20 -75.5q-4 -21 -7 -37.5t-3 -25.5q0 -26 18 -26q12 0 27.5 13.5t32.5 33.5t32 41l8 -6q-14 -29 -35 -61t-46.5 -54t-54.5 -22q-28 0 -42 18t-14 48q0 14 3 33t9 45q8 34 19 74.5t21.5 79.5t17.5 71.5t7 51.5q0 16 -7 26t-22 10q-19 0 -41 -20.5t-45 -53 t-44.5 -70.5t-38 -73t-26.5 -61l-8 -35l-29 -136l-32 -4q-6 -1 -16 -2t-15 -1q-8 0 -8.5 6.5t1.5 15.5zM307 -158q0 -28 -16.5 -60.5t-44.5 -62t-63 -48.5l-7 8q24 27 39.5 53t24.5 55q-16 2 -26 13t-10 29q0 26 18 43.5t43 17.5q19 0 30.5 -13t11.5 -35z" />
<glyph unicode="&#x147;" horiz-adv-x="722" d="M549 776l-7 -5h-54q-19 27 -40.5 62.5t-42.5 71.5l17 10q22 -20 48 -43t54 -44q33 19 78.5 44t82.5 43l10 -12q-25 -21 -53.5 -45t-53.5 -46t-39 -36zM182 44l96 -23l-5 -21h-223l-3 21l61 15q19 5 27 12t12 23l10 44l111 526l-80 24l5 21h141l236 -575l97 461l16 70 l-85 23l4 21h213l2 -21l-60 -15q-19 -5 -27.5 -12t-11.5 -23l-10 -43l-121 -572h-50l-240 583l-99 -468z" />
<glyph unicode="&#x148;" horiz-adv-x="540" d="M418 586l-8 -5h-53q-17 32 -36.5 75t-37.5 87l17 10q20 -26 44.5 -55t49.5 -56q31 24 74 56t78 55l10 -12q-24 -25 -51.5 -54.5t-50.5 -56.5t-36 -44zM104 13l26 121q13 58 25.5 115t24.5 112q10 46 10 64q0 26 -17 26q-18 0 -43.5 -28t-48.5 -60l-9 6q14 29 35 61 t46.5 54t53.5 22t41.5 -17.5t13.5 -45.5q0 -23 -11.5 -74t-24.5 -108q17 33 40 75t51 80.5t59.5 64t65.5 25.5t50 -23t16 -53q0 -23 -7 -59t-17.5 -78t-21.5 -83.5t-20 -75.5q-4 -21 -7 -37.5t-3 -25.5q0 -26 18 -26q12 0 27.5 13.5t32.5 33.5t32 41l8 -6q-14 -29 -35 -61 t-46.5 -54t-54.5 -22q-28 0 -42 18t-14 48q0 14 3 33t9 45q8 34 19 74.5t21.5 79.5t17.5 71.5t7 51.5q0 16 -7 26t-22 10q-19 0 -41 -20.5t-45 -53t-44.5 -70.5t-38 -73t-26.5 -61l-8 -35l-29 -136l-32 -4q-6 -1 -16 -2t-15 -1q-8 0 -8.5 6.5t1.5 15.5z" />
<glyph unicode="&#x14a;" horiz-adv-x="721" d="M182 44l95 -23l-4 -21h-224l-2 21l61 15q19 5 27 12t12 23l10 44l107 508q0 12 -4.5 18t-18.5 10l-53 14l5 21h141l235 -575l98 461l16 70l-85 23l4 21h213l2 -21l-61 -15q-18 -5 -26.5 -12t-11.5 -23l-10 -43l-106 -497q-13 -63 -34.5 -104t-53.5 -73t-78 -68l-12 14 q37 40 64.5 73.5t48.5 82.5l-241 583l-99 -468z" />
<glyph unicode="&#x14b;" horiz-adv-x="520" d="M104 13l26 121q13 58 25.5 115t24.5 112q10 46 10 64q0 26 -17 26q-18 0 -43.5 -28t-48.5 -60l-9 6q14 29 35 61t46.5 54t53.5 22t41.5 -17.5t13.5 -45.5q0 -23 -11.5 -73.5t-23.5 -107.5q16 34 39 75.5t51 80t59.5 63.5t65.5 25t50 -23t16 -54q0 -25 -11 -85t-30 -148 t-42 -197q-25 -120 -80.5 -187.5t-133.5 -67.5q-41 0 -67.5 18.5t-26.5 45.5q0 12 6.5 21.5t15.5 13.5q15 -20 36.5 -36t48.5 -16q49 0 76.5 49t47.5 142q24 113 43.5 202t31.5 147.5t12 79.5q0 16 -7 26t-22 10q-19 0 -41 -20.5t-45 -53t-44.5 -70.5t-38 -73t-26.5 -61 l-8 -35l-29 -136l-32 -4q-6 -1 -16 -2t-15 -1q-8 0 -8.5 6.5t1.5 15.5z" />
<glyph unicode="&#x14c;" horiz-adv-x="605" d="M326 819l10 45h273l-10 -45h-273zM626 451q0 -61 -15 -125.5t-43.5 -124.5t-68 -107.5t-89.5 -75.5t-109 -28q-60 0 -104.5 30t-69.5 84.5t-25 129.5q0 63 15.5 128.5t44 125.5t69.5 107t91.5 74t108.5 27q92 0 143.5 -66.5t51.5 -178.5zM181 214q0 -81 32 -132.5 t95 -51.5q44 0 81 28.5t66 77t49.5 107.5t31.5 119.5t11 114.5q0 82 -28.5 131t-93.5 49q-44 0 -81.5 -28t-67.5 -75t-51.5 -105t-32.5 -119t-11 -116z" />
<glyph unicode="&#x14d;" horiz-adv-x="433" d="M204 643l11 46h257l-11 -46h-257zM439 329q0 -72 -19 -133.5t-51 -108t-73 -72t-85 -25.5q-61 0 -98 49.5t-37 130.5q0 67 19 127.5t51.5 107.5t73.5 74t85 27q66 0 100 -48t34 -129zM151 155q0 -60 17.5 -95t49.5 -35q30 0 56.5 29.5t46.5 78t31.5 105.5t11.5 112 q0 54 -14.5 87.5t-49.5 33.5q-30 0 -57 -29.5t-48 -77t-32.5 -102.5t-11.5 -107z" />
<glyph unicode="&#x14e;" horiz-adv-x="605" d="M591 901l4 2l14 -7q-24 -53 -63.5 -82.5t-91.5 -29.5q-50 0 -73 32t-19 84l18 3q3 -29 26 -45.5t62 -16.5q78 0 123 60zM626 451q0 -61 -15 -125.5t-43.5 -124.5t-68 -107.5t-89.5 -75.5t-109 -28q-60 0 -104.5 30t-69.5 84.5t-25 129.5q0 63 15.5 128.5t44 125.5 t69.5 107t91.5 74t108.5 27q92 0 143.5 -66.5t51.5 -178.5zM181 214q0 -81 32 -132.5t95 -51.5q44 0 81 28.5t66 77t49.5 107.5t31.5 119.5t11 114.5q0 82 -28.5 131t-93.5 49q-44 0 -81.5 -28t-67.5 -75t-51.5 -105t-32.5 -119t-11 -116z" />
<glyph unicode="&#x14f;" horiz-adv-x="433" d="M459 734l4 2l16 -3q-24 -63 -65.5 -99t-92.5 -36q-48 0 -72 37.5t-19 97.5l18 3q4 -37 27 -58t61 -21q37 0 69.5 20t53.5 57zM439 329q0 -72 -19 -133.5t-51 -108t-73 -72t-85 -25.5q-61 0 -98 49.5t-37 130.5q0 67 19 127.5t51.5 107.5t73.5 74t85 27q66 0 100 -48 t34 -129zM151 155q0 -60 17.5 -95t49.5 -35q30 0 56.5 29.5t46.5 78t31.5 105.5t11.5 112q0 54 -14.5 87.5t-49.5 33.5q-30 0 -57 -29.5t-48 -77t-32.5 -102.5t-11.5 -107z" />
<glyph unicode="&#x150;" horiz-adv-x="605" d="M458 908l9 2q15 -3 25.5 -11.5t10.5 -20.5q0 -33 -63 -57.5t-171 -43.5l-7 16q64 28 114 59t82 56zM679 908l9 2q15 -3 25 -11.5t10 -20.5q0 -33 -63 -57.5t-170 -43.5l-7 16q64 28 114 59t82 56zM626 451q0 -61 -15 -125.5t-43.5 -124.5t-68 -107.5t-89.5 -75.5 t-109 -28q-60 0 -104.5 30t-69.5 84.5t-25 129.5q0 63 15.5 128.5t44 125.5t69.5 107t91.5 74t108.5 27q92 0 143.5 -66.5t51.5 -178.5zM181 214q0 -81 32 -132.5t95 -51.5q44 0 81 28.5t66 77t49.5 107.5t31.5 119.5t11 114.5q0 82 -28.5 131t-93.5 49q-44 0 -81.5 -28 t-67.5 -75t-51.5 -105t-32.5 -119t-11 -116z" />
<glyph unicode="&#x151;" horiz-adv-x="433" d="M322 756l8 3q2 0 5 -0.5t6 -0.5q35 -4 35 -28q0 -16 -20 -36.5t-52 -42t-70 -41t-73 -33.5l-9 15q34 27 67.5 57.5t60.5 58t42 48.5zM488 756l8 3h5t6 -1q35 -4 35 -28q0 -16 -19.5 -36.5t-52 -42t-70 -41t-73.5 -33.5l-9 15q34 27 67.5 57.5t60.5 58t42 48.5zM439 329 q0 -72 -19 -133.5t-51 -108t-73 -72t-85 -25.5q-61 0 -98 49.5t-37 130.5q0 67 19 127.5t51.5 107.5t73.5 74t85 27q66 0 100 -48t34 -129zM151 155q0 -60 17.5 -95t49.5 -35q30 0 56.5 29.5t46.5 78t31.5 105.5t11.5 112q0 54 -14.5 87.5t-49.5 33.5q-30 0 -57 -29.5 t-48 -77t-32.5 -102.5t-11.5 -107z" />
<glyph unicode="&#x152;" horiz-adv-x="872" d="M803 0h-367q-43 -10 -88 -10q-75 0 -131 32.5t-87 92t-31 140.5q0 92 30.5 172t85 140.5t126.5 94.5t154 34q46 0 85 -10h339q-1 -39 -12 -89t-25 -93h-19q-7 47 -11 80.5t-7 62.5q-17 1 -44.5 2.5t-55.5 1.5h-108l-61 -289l206 5l-11 -46l-203 6l-62 -293h137 q28 0 55.5 1.5t46.5 3.5q16 29 34 62.5t45 80.5h18q-2 -39 -13 -91.5t-26 -90.5zM178 243q0 -62 20 -110t59.5 -75.5t96.5 -27.5q26 0 46.5 6t34.5 16l125 589q-31 16 -70 16q-68 0 -125 -33t-99 -90.5t-65 -132t-23 -158.5z" />
<glyph unicode="&#x153;" horiz-adv-x="653" d="M297 506q51 0 81.5 -33t39.5 -91q35 55 82 89.5t97 34.5q42 0 65.5 -24.5t23.5 -64.5q0 -41 -22 -74.5t-59.5 -58t-84.5 -38.5t-97 -15l2 14q-7 -41 -7 -80q0 -56 20.5 -88.5t58.5 -32.5q33 0 69.5 25.5t73.5 69.5l9 -6q-33 -62 -79.5 -102.5t-100.5 -40.5q-44 0 -72 27 t-38 76q-31 -48 -71.5 -75.5t-84.5 -27.5q-57 0 -92 49.5t-35 130.5q0 67 18 127.5t49.5 107.5t71.5 74t82 27zM300 471q-31 0 -58 -29.5t-47.5 -77t-32 -102.5t-11.5 -107q0 -60 17.5 -95t48.5 -35t57.5 29.5t46.5 78t31.5 105.5t11.5 112q0 54 -15 87.5t-49 33.5zM580 470 q-32 0 -62.5 -29t-54 -77t-35.5 -105q55 5 98 28.5t67.5 59t24.5 76.5q0 21 -9.5 34t-28.5 13z" />
<glyph unicode="&#x154;" horiz-adv-x="634" d="M561 908l8 1q14 -6 25.5 -14.5t11.5 -22.5q0 -16 -22.5 -30.5t-60 -27.5t-82 -22.5t-89.5 -13.5l-5 16q66 29 123 58t91 56zM329 572l-51 -239h56q71 0 117.5 28t69.5 72.5t23 93.5q0 57 -37 88.5t-102 31.5h-60zM216 43l79 -23l-4 -20h-238l-2 20l59 15q17 5 25 12.5 t12 23.5l10 44v0l97 457l15 71l-78 23l4 20h218q99 0 154 -42t55 -117q0 -74 -46.5 -129t-117.5 -81l59 -182q16 -47 33.5 -70.5t47.5 -34.5l28 -10l-4 -20l-74 -1q-42 0 -60.5 17t-28.5 51l-73 232q-23 -4 -48 -4h-68l-38 -180z" />
<glyph unicode="&#x155;" horiz-adv-x="408" d="M409 756l8 3q2 0 5 -0.5t6 -0.5q40 -4 40 -28q0 -16 -20.5 -36.5t-53 -42t-71 -41t-75.5 -33.5l-9 15q34 27 67.5 57.5t60.5 58t42 48.5zM104 13l26 121q20 91 32 146.5t18 84.5t8 42t2 18q0 26 -17 26q-18 0 -43.5 -28t-48.5 -60l-9 6q14 29 35 61t46.5 54t53.5 22 t41.5 -17.5t13.5 -45.5q0 -20 -10.5 -68t-23.5 -102q18 37 39 77.5t45 76t51 57.5t56 22q24 0 36.5 -12.5t12.5 -30.5q0 -21 -8.5 -39t-16.5 -27q-11 12 -24.5 21t-31.5 9q-20 0 -43 -22t-45.5 -56t-41.5 -71.5t-31.5 -68t-15.5 -44.5l-7 -31l-29 -136l-32 -4q-6 -1 -16 -2 t-15 -1q-8 0 -8.5 6.5t1.5 15.5z" />
<glyph unicode="&#x156;" horiz-adv-x="634" d="M329 572l-51 -239h56q71 0 117.5 28t69.5 72.5t23 93.5q0 57 -37 88.5t-102 31.5h-60zM376 -158q0 -28 -16.5 -60.5t-45 -62t-62.5 -48.5l-8 8q24 27 40 53t25 55q-16 2 -26 13t-10 29q0 26 17.5 43.5t42.5 17.5q20 0 31.5 -13t11.5 -35zM216 43l79 -23l-4 -20h-238 l-2 20l59 15q17 5 25 12.5t12 23.5l10 44v0l97 457l15 71l-78 23l4 20h218q99 0 154 -42t55 -117q0 -74 -46.5 -129t-117.5 -81l59 -182q16 -47 33.5 -70.5t47.5 -34.5l28 -10l-4 -20l-74 -1q-42 0 -60.5 17t-28.5 51l-73 232q-23 -4 -48 -4h-68l-38 -180z" />
<glyph unicode="&#x157;" horiz-adv-x="408" d="M104 13l26 121q20 91 32 146.5t18 84.5t8 42t2 18q0 26 -17 26q-18 0 -43.5 -28t-48.5 -60l-9 6q14 29 35 61t46.5 54t53.5 22t41.5 -17.5t13.5 -45.5q0 -20 -10.5 -68t-23.5 -102q18 37 39 77.5t45 76t51 57.5t56 22q24 0 36.5 -12.5t12.5 -30.5q0 -21 -8.5 -39 t-16.5 -27q-11 12 -24.5 21t-31.5 9q-20 0 -43 -22t-45.5 -56t-41.5 -71.5t-31.5 -68t-15.5 -44.5l-7 -31l-29 -136l-32 -4q-6 -1 -16 -2t-15 -1q-8 0 -8.5 6.5t1.5 15.5zM157 -158q0 -28 -16.5 -60.5t-45 -62t-62.5 -48.5l-8 8q24 27 40 53t25 55q-16 2 -26 13t-10 29 q0 26 17.5 43.5t42.5 17.5q19 0 31 -13t12 -35z" />
<glyph unicode="&#x158;" horiz-adv-x="634" d="M490 776l-8 -5h-53q-20 27 -41.5 62.5t-41.5 71.5l16 10q22 -20 48.5 -43t53.5 -44q33 19 78.5 44t83.5 43l10 -12q-26 -21 -54.5 -45t-53 -46t-38.5 -36zM329 572l-51 -239h56q71 0 117.5 28t69.5 72.5t23 93.5q0 57 -37 88.5t-102 31.5h-60zM216 43l79 -23l-4 -20h-238 l-2 20l59 15q17 5 25 12.5t12 23.5l10 44v0l97 457l15 71l-78 23l4 20h218q99 0 154 -42t55 -117q0 -74 -46.5 -129t-117.5 -81l59 -182q16 -47 33.5 -70.5t47.5 -34.5l28 -10l-4 -20l-74 -1q-42 0 -60.5 17t-28.5 51l-73 232q-23 -4 -48 -4h-68l-38 -180z" />
<glyph unicode="&#x159;" horiz-adv-x="408" d="M363 586l-7 -5h-54q-17 32 -36.5 75t-37.5 87l17 10q20 -26 44.5 -55t49.5 -56q31 24 74 56t79 55l10 -12q-25 -25 -52 -54.5t-50.5 -56.5t-36.5 -44zM104 13l26 121q20 91 32 146.5t18 84.5t8 42t2 18q0 26 -17 26q-18 0 -43.5 -28t-48.5 -60l-9 6q14 29 35 61t46.5 54 t53.5 22t41.5 -17.5t13.5 -45.5q0 -20 -10.5 -68t-23.5 -102q18 37 39 77.5t45 76t51 57.5t56 22q24 0 36.5 -12.5t12.5 -30.5q0 -21 -8.5 -39t-16.5 -27q-11 12 -24.5 21t-31.5 9q-20 0 -43 -22t-45.5 -56t-41.5 -71.5t-31.5 -68t-15.5 -44.5l-7 -31l-29 -136l-32 -4 q-6 -1 -16 -2t-15 -1q-8 0 -8.5 6.5t1.5 15.5z" />
<glyph unicode="&#x15a;" horiz-adv-x="465" d="M491 908l9 1q13 -6 24.5 -14.5t11.5 -22.5q0 -16 -22.5 -30.5t-60 -27.5t-82 -22.5t-89.5 -13.5l-5 16q66 29 123 58t91 56zM215 -10q-39 0 -74.5 5.5t-59 14.5t-28.5 19q-4 8 -4 21q0 26 11 62.5t28 68.5l19 -1q0 -10 -0.5 -18.5t-0.5 -15.5q0 -33 4.5 -52t13.5 -32 q15 -20 41.5 -27.5t55.5 -7.5q46 0 80 20.5t53 53.5t19 71q0 36 -16.5 64.5t-43 52.5t-56 47t-55.5 48.5t-42.5 56.5t-16.5 72q0 54 31.5 95.5t83 64.5t110.5 23q61 0 98.5 -12.5t46.5 -23.5q5 -5 5 -14q0 -15 -6 -40t-15.5 -51.5t-20.5 -46.5h-19q1 12 1.5 22t0.5 19 q0 54 -13 74q-12 17 -33 26t-55 9q-40 0 -71.5 -17.5t-50 -47.5t-18.5 -66q0 -34 16.5 -61.5t43 -51t56 -47t55.5 -49.5t42.5 -58t16.5 -72q0 -53 -28 -98t-80 -72.5t-125 -27.5z" />
<glyph unicode="&#x15b;" horiz-adv-x="381" d="M371 756l8 3q2 0 5 -0.5t6 -0.5q40 -4 40 -28q0 -16 -20.5 -36.5t-53 -42t-71 -41t-75.5 -33.5l-9 15q34 27 67.5 57.5t60.5 58t42 48.5zM353 132q0 -61 -44.5 -101.5t-121.5 -40.5q-58 0 -97.5 26.5t-39.5 70.5q0 31 18 54t43 37l8 -7q-5 -16 -8.5 -32t-2.5 -35 q3 -37 27.5 -59t61.5 -22q36 0 60.5 22t24.5 63q0 31 -16 55.5t-40 47.5t-48 47t-40 52.5t-16 65.5t20 66.5t55 46.5t78 17q59 0 92 -25.5t33 -61.5q0 -29 -16 -54t-37 -39l-9 6q7 37 6 63q-5 80 -72 80q-33 0 -56 -22.5t-23 -58.5q0 -30 16.5 -55.5t40 -49l47.5 -47.5 t40 -50.5t16 -59.5z" />
<glyph unicode="&#x15c;" horiz-adv-x="465" d="M545 782l-16 -10q-24 20 -53.5 43t-60.5 44q-31 -19 -74 -43.5t-79 -43.5l-9 13q25 20 52.5 44t51 46t36.5 35l8 5h51q21 -26 46 -61.5t47 -71.5zM215 -10q-39 0 -74.5 5.5t-59 14.5t-28.5 19q-4 8 -4 21q0 26 11 62.5t28 68.5l19 -1q0 -10 -0.5 -18.5t-0.5 -15.5 q0 -33 4.5 -52t13.5 -32q15 -20 41.5 -27.5t55.5 -7.5q46 0 80 20.5t53 53.5t19 71q0 36 -16.5 64.5t-43 52.5t-56 47t-55.5 48.5t-42.5 56.5t-16.5 72q0 54 31.5 95.5t83 64.5t110.5 23q61 0 98.5 -12.5t46.5 -23.5q5 -5 5 -14q0 -15 -6 -40t-15.5 -51.5t-20.5 -46.5h-19 q1 12 1.5 22t0.5 19q0 54 -13 74q-12 17 -33 26t-55 9q-40 0 -71.5 -17.5t-50 -47.5t-18.5 -66q0 -34 16.5 -61.5t43 -51t56 -47t55.5 -49.5t42.5 -58t16.5 -72q0 -53 -28 -98t-80 -72.5t-125 -27.5z" />
<glyph unicode="&#x15d;" horiz-adv-x="381" d="M423 592l-16 -11q-22 26 -48.5 55.5t-54.5 55.5q-29 -24 -68.5 -55.5t-73.5 -55.5l-9 13q23 25 48 54.5t46.5 56t32.5 43.5l9 5h53q18 -32 40 -75t41 -86zM353 132q0 -61 -44.5 -101.5t-121.5 -40.5q-58 0 -97.5 26.5t-39.5 70.5q0 31 18 54t43 37l8 -7q-5 -16 -8.5 -32 t-2.5 -35q3 -37 27.5 -59t61.5 -22q36 0 60.5 22t24.5 63q0 31 -16 55.5t-40 47.5t-48 47t-40 52.5t-16 65.5t20 66.5t55 46.5t78 17q59 0 92 -25.5t33 -61.5q0 -29 -16 -54t-37 -39l-9 6q7 37 6 63q-5 80 -72 80q-33 0 -56 -22.5t-23 -58.5q0 -30 16.5 -55.5t40 -49 l47.5 -47.5t40 -50.5t16 -59.5z" />
<glyph unicode="&#x15e;" horiz-adv-x="465" d="M294 -120q0 -38 -46 -67t-119 -36l-2 10q42 13 69.5 34.5t27.5 43.5q0 15 -13 25t-35 12l-3 6l33 82q-38 1 -71 6.5t-55 14t-27 18.5q-4 8 -4 21q0 26 11 62.5t28 68.5l19 -1q0 -10 -0.5 -18.5t-0.5 -15.5q0 -33 4.5 -52t13.5 -32q15 -20 41.5 -27.5t55.5 -7.5 q46 0 80 20.5t53 53.5t19 71q0 36 -16.5 64.5t-43 52.5t-56 47t-55.5 48.5t-42.5 56.5t-16.5 72q0 54 31.5 95.5t83 64.5t110.5 23q61 0 98.5 -12.5t46.5 -23.5q5 -5 5 -14q0 -15 -6 -40t-15.5 -51.5t-20.5 -46.5h-19q1 12 1.5 22t0.5 19q0 54 -13 74q-12 17 -33 26t-55 9 q-40 0 -71.5 -17.5t-50 -47.5t-18.5 -66q0 -34 16.5 -61.5t43 -51t56 -47t55.5 -49.5t42.5 -58t16.5 -72q0 -50 -24 -92.5t-70 -70.5t-110 -34l-21 -54q33 -5 52 -20t19 -37z" />
<glyph unicode="&#x15f;" horiz-adv-x="381" d="M254 -120q0 -38 -46.5 -67t-119.5 -36l-2 10q43 13 70 34.5t27 43.5q0 15 -13 25t-35 12l-2 6l33 83q-50 5 -83 30.5t-33 65.5q0 31 18 54t43 37l8 -7q-5 -16 -8.5 -32t-2.5 -35q3 -37 27.5 -59t61.5 -22q36 0 60.5 22t24.5 63q0 31 -16 55.5t-40 47.5t-48 47t-40 52.5 t-16 65.5t20 66.5t55 46.5t78 17q59 0 92 -25.5t33 -61.5q0 -29 -16 -54t-37 -39l-9 6q7 37 6 63q-5 80 -72 80q-33 0 -56 -22.5t-23 -58.5q0 -30 16.5 -55.5t40 -49l47.5 -47.5t40 -50.5t16 -59.5q0 -58 -40 -97.5t-110 -43.5l-21 -54q34 -5 53 -20t19 -37z" />
<glyph unicode="&#x160;" horiz-adv-x="465" d="M422 776l-7 -5h-54q-19 27 -40.5 62.5t-42.5 71.5l17 10q22 -20 48 -43t54 -44q33 19 78.5 44t82.5 43l10 -12q-25 -21 -53.5 -45t-53.5 -46t-39 -36zM215 -10q-39 0 -74.5 5.5t-59 14.5t-28.5 19q-4 8 -4 21q0 26 11 62.5t28 68.5l19 -1q0 -10 -0.5 -18.5t-0.5 -15.5 q0 -33 4.5 -52t13.5 -32q15 -20 41.5 -27.5t55.5 -7.5q46 0 80 20.5t53 53.5t19 71q0 36 -16.5 64.5t-43 52.5t-56 47t-55.5 48.5t-42.5 56.5t-16.5 72q0 54 31.5 95.5t83 64.5t110.5 23q61 0 98.5 -12.5t46.5 -23.5q5 -5 5 -14q0 -15 -6 -40t-15.5 -51.5t-20.5 -46.5h-19 q1 12 1.5 22t0.5 19q0 54 -13 74q-12 17 -33 26t-55 9q-40 0 -71.5 -17.5t-50 -47.5t-18.5 -66q0 -34 16.5 -61.5t43 -51t56 -47t55.5 -49.5t42.5 -58t16.5 -72q0 -53 -28 -98t-80 -72.5t-125 -27.5z" />
<glyph unicode="&#x161;" horiz-adv-x="381" d="M330 586l-8 -5h-53q-17 32 -36.5 75t-37.5 87l16 10q21 -26 45 -55t50 -56q31 24 74 56t78 55l10 -12q-24 -25 -51.5 -54.5t-50.5 -56.5t-36 -44zM353 132q0 -61 -44.5 -101.5t-121.5 -40.5q-58 0 -97.5 26.5t-39.5 70.5q0 31 18 54t43 37l8 -7q-5 -16 -8.5 -32t-2.5 -35 q3 -37 27.5 -59t61.5 -22q36 0 60.5 22t24.5 63q0 31 -16 55.5t-40 47.5t-48 47t-40 52.5t-16 65.5t20 66.5t55 46.5t78 17q59 0 92 -25.5t33 -61.5q0 -29 -16 -54t-37 -39l-9 6q7 37 6 63q-5 80 -72 80q-33 0 -56 -22.5t-23 -58.5q0 -30 16.5 -55.5t40 -49l47.5 -47.5 t40 -50.5t16 -59.5z" />
<glyph unicode="&#x162;" horiz-adv-x="572" d="M320 43l79 -23l-4 -20h-102l-25 -63q34 -5 52.5 -20t18.5 -37q0 -38 -46 -67t-119 -36l-2 10q43 13 70 34.5t27 43.5q0 15 -13 25t-35 12l-2 6l36 92h-98l-2 20l59 15q17 5 25 12.5t12 23.5l10 44v0l113 534h-61q-28 0 -57.5 -2.5t-50.5 -6.5q-10 -16 -20.5 -36 t-24.5 -49l-26 -51h-19q3 45 14 94.5t26 87.5h530q-2 -38 -13 -89.5t-25 -92.5h-19l-5 51q-1 28 -3.5 48.5t-4.5 36.5q-20 4 -48.5 6.5t-56.5 2.5h-61l-113 -534z" />
<glyph unicode="&#x163;" horiz-adv-x="344" d="M252 -120q0 -38 -46 -67t-119 -36l-2 10q42 13 69.5 34.5t27.5 43.5q0 15 -13 25t-35 12l-3 6l34 85q-28 7 -43 32t-15 63q0 14 1.5 30t4.5 33l65 302h-82l2 14l88 26l89 146l15 -1l-32 -150h148l-8 -35h-148l-63 -296q-6 -30 -6 -55q0 -58 43 -58q32 0 67 26t72 69l8 -6 q-30 -55 -73 -95.5t-96 -46.5l-21 -54q33 -5 52 -20t19 -37z" />
<glyph unicode="&#x164;" horiz-adv-x="572" d="M471 777l-8 -5h-54q-19 27 -40.5 62.5t-42.5 71.5l17 10q22 -20 48 -43.5t54 -43.5q33 19 78.5 43.5t82.5 43.5l11 -12q-26 -21 -54.5 -45t-53 -46t-38.5 -36zM320 43l79 -23l-4 -20h-238l-2 20l59 15q17 5 25 12.5t12 23.5l10 44v0l113 534h-61q-28 0 -57.5 -2.5 t-50.5 -6.5q-10 -16 -20.5 -36t-24.5 -49l-26 -51h-19q3 45 14 94.5t26 87.5h530q-2 -38 -13 -89.5t-25 -92.5h-19l-5 51q-1 28 -3.5 48.5t-4.5 36.5q-20 4 -48.5 6.5t-56.5 2.5h-61l-113 -534z" />
<glyph unicode="&#x165;" horiz-adv-x="344" d="M501 704q0 -26 -15.5 -56.5t-42 -58.5t-59.5 -46l-7 7q24 27 39 51t24 52q-16 1 -25.5 11.5t-9.5 27.5q0 23 16.5 39.5t40.5 16.5q18 0 28.5 -12t10.5 -32zM186 -10q-38 0 -58.5 26.5t-20.5 71.5q0 14 1.5 30t4.5 33l65 302h-82l2 14l88 26l89 146l15 -1l-32 -150h148 l-8 -35h-148l-63 -296q-6 -30 -6 -55q0 -58 43 -58q32 0 67 26t72 69l8 -6q-32 -59 -79 -101t-106 -42z" />
<glyph unicode="&#x166;" horiz-adv-x="572" d="M320 43l79 -23l-4 -20h-238l-2 20l59 15q17 5 25 12.5t12 23.5l10 44v0l46 219h-142l7 35h143l59 280h-61q-28 0 -57.5 -2.5t-50.5 -6.5q-10 -16 -20.5 -36t-24.5 -49l-26 -51h-19q3 45 14 94.5t26 87.5h530q-2 -38 -13 -89.5t-25 -92.5h-19l-5 51q-1 28 -3.5 48.5 t-4.5 36.5q-20 4 -48.5 6.5t-56.5 2.5h-61l-59 -280h148l-7 -35h-148l-47 -219z" />
<glyph unicode="&#x167;" horiz-adv-x="344" d="M186 -10q-38 0 -58.5 26.5t-20.5 71.5q0 14 1.5 30t4.5 33l33 153h-69l7 34h69l25 115h-82l2 14l88 26l89 146l15 -1l-32 -150h148l-8 -35h-148l-24 -115h158l-6 -34h-160l-31 -147q-6 -30 -6 -55q0 -58 43 -58q32 0 67 26t72 69l8 -6q-32 -59 -79 -101t-106 -42z" />
<glyph unicode="&#x168;" horiz-adv-x="668" d="M411 845q-11 -4 -30 -20.5t-47 -43.5l-11 5q24 55 53.5 85.5t69.5 30.5q31 0 63 -14.5t62.5 -29t56.5 -15.5q11 5 30 21.5t47 43.5l10 -6q-22 -55 -52.5 -85.5t-70.5 -30.5q-30 0 -62 14.5t-63 29.5t-56 15zM601 240q-27 -127 -93 -188.5t-166 -61.5q-86 0 -141 48 t-55 135q0 16 1.5 35.5t5.5 40.5l69 323l16 71l-79 23l4 20h238l2 -20l-59 -15q-17 -5 -25 -12.5t-12 -23.5l-10 -43v0l-69 -327q-4 -18 -5.5 -35t-1.5 -33q0 -70 39 -108t102 -38q68 0 121 50.5t76 158.5l72 334l15 68l-85 23l4 21h213l2 -21l-94 -23l-15 -68z" />
<glyph unicode="&#x169;" horiz-adv-x="547" d="M286 675q-11 -5 -28 -22t-42 -45l-9 5q21 56 51 86.5t68 30.5q29 0 57 -14.5t54 -29.5t49 -16q10 5 27 22t42 45l9 -5q-21 -56 -50.5 -86.5t-68.5 -30.5q-28 0 -57 14.5t-55 29.5t-47 16zM187 362q4 22 7 38t3 26q0 25 -18 25q-12 0 -27.5 -13.5t-32 -33.5t-32.5 -41 l-8 6q14 30 35 61.5t47 53.5t54 22q29 0 42.5 -18t13.5 -48q0 -14 -3 -33t-8 -45q-9 -36 -19.5 -76t-21 -78.5t-17 -69.5t-6.5 -49q0 -17 6.5 -27.5t19.5 -10.5q17 0 38.5 19.5t44.5 51t45 69t40.5 75.5t30.5 70l6 27h1l29 136l31 4q7 1 17 2t15 1q8 0 8 -6.5t-1 -15.5 l-27 -121l-50 -229q-4 -21 -7 -37.5t-3 -25.5q0 -26 18 -26q12 0 27.5 13.5t32.5 33.5t32 41l8 -6q-14 -29 -35 -61t-46.5 -54t-54.5 -22t-42.5 18t-13.5 48q0 14 3 33t9 45l22 100v0q-14 -29 -36 -70.5t-50.5 -81t-60.5 -66t-64 -26.5q-33 0 -50 23t-17 58q0 22 7 57 t17.5 75.5t21 81.5t19.5 77z" />
<glyph unicode="&#x16a;" horiz-adv-x="668" d="M381 819l10 45h273l-10 -45h-273zM601 240q-27 -127 -93 -188.5t-166 -61.5q-86 0 -141 48t-55 135q0 16 1.5 35.5t5.5 40.5l69 323l16 71l-79 23l4 20h238l2 -20l-59 -15q-17 -5 -25 -12.5t-12 -23.5l-10 -43v0l-69 -327q-4 -18 -5.5 -35t-1.5 -33q0 -70 39 -108 t102 -38q68 0 121 50.5t76 158.5l72 334l15 68l-85 23l4 21h213l2 -21l-94 -23l-15 -68z" />
<glyph unicode="&#x16b;" horiz-adv-x="547" d="M252 643l10 46h257l-11 -46h-256zM187 362q4 22 7 38t3 26q0 25 -18 25q-12 0 -27.5 -13.5t-32 -33.5t-32.5 -41l-8 6q14 30 35 61.5t47 53.5t54 22q29 0 42.5 -18t13.5 -48q0 -14 -3 -33t-8 -45q-9 -36 -19.5 -76t-21 -78.5t-17 -69.5t-6.5 -49q0 -17 6.5 -27.5 t19.5 -10.5q17 0 38.5 19.5t44.5 51t45 69t40.5 75.5t30.5 70l6 27h1l29 136l31 4q7 1 17 2t15 1q8 0 8 -6.5t-1 -15.5l-27 -121l-50 -229q-4 -21 -7 -37.5t-3 -25.5q0 -26 18 -26q12 0 27.5 13.5t32.5 33.5t32 41l8 -6q-14 -29 -35 -61t-46.5 -54t-54.5 -22t-42.5 18 t-13.5 48q0 14 3 33t9 45l22 100v0q-14 -29 -36 -70.5t-50.5 -81t-60.5 -66t-64 -26.5q-33 0 -50 23t-17 58q0 22 7 57t17.5 75.5t21 81.5t19.5 77z" />
<glyph unicode="&#x16c;" horiz-adv-x="668" d="M636 901l5 2l14 -7q-24 -53 -64 -82.5t-91 -29.5q-50 0 -73.5 32t-18.5 84l17 3q4 -29 27 -45.5t61 -16.5q79 0 123 60zM601 240q-27 -127 -93 -188.5t-166 -61.5q-86 0 -141 48t-55 135q0 16 1.5 35.5t5.5 40.5l69 323l16 71l-79 23l4 20h238l2 -20l-59 -15 q-17 -5 -25 -12.5t-12 -23.5l-10 -43v0l-69 -327q-4 -18 -5.5 -35t-1.5 -33q0 -70 39 -108t102 -38q68 0 121 50.5t76 158.5l72 334l15 68l-85 23l4 21h213l2 -21l-94 -23l-15 -68z" />
<glyph unicode="&#x16d;" horiz-adv-x="547" d="M511 734l4 2l16 -3q-24 -63 -65.5 -99t-92.5 -36q-49 0 -72.5 37.5t-18.5 97.5l18 3q3 -37 26.5 -58t61.5 -21q37 0 69.5 20t53.5 57zM187 362q4 22 7 38t3 26q0 25 -18 25q-12 0 -27.5 -13.5t-32 -33.5t-32.5 -41l-8 6q14 30 35 61.5t47 53.5t54 22q29 0 42.5 -18 t13.5 -48q0 -14 -3 -33t-8 -45q-9 -36 -19.5 -76t-21 -78.5t-17 -69.5t-6.5 -49q0 -17 6.5 -27.5t19.5 -10.5q17 0 38.5 19.5t44.5 51t45 69t40.5 75.5t30.5 70l6 27h1l29 136l31 4q7 1 17 2t15 1q8 0 8 -6.5t-1 -15.5l-27 -121l-50 -229q-4 -21 -7 -37.5t-3 -25.5 q0 -26 18 -26q12 0 27.5 13.5t32.5 33.5t32 41l8 -6q-14 -29 -35 -61t-46.5 -54t-54.5 -22t-42.5 18t-13.5 48q0 14 3 33t9 45l22 100v0q-14 -29 -36 -70.5t-50.5 -81t-60.5 -66t-64 -26.5q-33 0 -50 23t-17 58q0 22 7 57t17.5 75.5t21 81.5t19.5 77z" />
<glyph unicode="&#x16e;" horiz-adv-x="668" d="M612 859q0 -39 -31.5 -66t-76.5 -27q-33 0 -52 16.5t-19 46.5q0 38 31.5 65t76.5 27q33 0 52 -17t19 -45zM475 829q0 -16 10 -26.5t26 -10.5q25 0 42 19t17 46q0 17 -10 27t-27 10q-24 0 -41 -19t-17 -46zM601 240q-27 -127 -93 -188.5t-166 -61.5q-86 0 -141 48t-55 135 q0 16 1.5 35.5t5.5 40.5l69 323l16 71l-79 23l4 20h238l2 -20l-59 -15q-17 -5 -25 -12.5t-12 -23.5l-10 -43v0l-69 -327q-4 -18 -5.5 -35t-1.5 -33q0 -70 39 -108t102 -38q68 0 121 50.5t76 158.5l72 334l15 68l-85 23l4 21h213l2 -21l-94 -23l-15 -68z" />
<glyph unicode="&#x16f;" horiz-adv-x="547" d="M479 683q0 -39 -31.5 -66.5t-76.5 -27.5q-33 0 -52 17t-19 47q0 38 31.5 65t76.5 27q33 0 52 -17t19 -45zM342 653q0 -17 10 -27t26 -10q25 0 42 19t17 46q0 17 -10 27t-27 10q-24 0 -41 -19t-17 -46zM187 362q4 22 7 38t3 26q0 25 -18 25q-12 0 -27.5 -13.5t-32 -33.5 t-32.5 -41l-8 6q14 30 35 61.5t47 53.5t54 22q29 0 42.5 -18t13.5 -48q0 -14 -3 -33t-8 -45q-9 -36 -19.5 -76t-21 -78.5t-17 -69.5t-6.5 -49q0 -17 6.5 -27.5t19.5 -10.5q17 0 38.5 19.5t44.5 51t45 69t40.5 75.5t30.5 70l6 27h1l29 136l31 4q7 1 17 2t15 1q8 0 8 -6.5 t-1 -15.5l-27 -121l-50 -229q-4 -21 -7 -37.5t-3 -25.5q0 -26 18 -26q12 0 27.5 13.5t32.5 33.5t32 41l8 -6q-14 -29 -35 -61t-46.5 -54t-54.5 -22t-42.5 18t-13.5 48q0 14 3 33t9 45l22 100v0q-14 -29 -36 -70.5t-50.5 -81t-60.5 -66t-64 -26.5q-33 0 -50 23t-17 58 q0 22 7 57t17.5 75.5t21 81.5t19.5 77z" />
<glyph unicode="&#x170;" horiz-adv-x="668" d="M508 908l9 2q15 -3 25 -11.5t10 -20.5q0 -33 -62.5 -57.5t-170.5 -43.5l-7 16q64 28 114 59t82 56zM729 908l9 2q15 -3 25 -11.5t10 -20.5q0 -33 -63 -57.5t-170 -43.5l-7 16q64 28 114 59t82 56zM601 240q-27 -127 -93 -188.5t-166 -61.5q-86 0 -141 48t-55 135 q0 16 1.5 35.5t5.5 40.5l69 323l16 71l-79 23l4 20h238l2 -20l-59 -15q-17 -5 -25 -12.5t-12 -23.5l-10 -43v0l-69 -327q-4 -18 -5.5 -35t-1.5 -33q0 -70 39 -108t102 -38q68 0 121 50.5t76 158.5l72 334l15 68l-85 23l4 21h213l2 -21l-94 -23l-15 -68z" />
<glyph unicode="&#x171;" horiz-adv-x="547" d="M382 756l8 3q2 0 5 -0.5t6 -0.5q35 -4 35 -28q0 -16 -20 -36.5t-52 -42t-69.5 -41t-73.5 -33.5l-9 15q34 27 67.5 57.5t60.5 58t42 48.5zM548 756l8 3h5t6 -1q36 -4 36 -28q0 -16 -20 -36.5t-52.5 -42t-70 -41t-73.5 -33.5l-9 15q35 27 68 57.5t60 58t42 48.5zM187 362 q4 22 7 38t3 26q0 25 -18 25q-12 0 -27.5 -13.5t-32 -33.5t-32.5 -41l-8 6q14 30 35 61.5t47 53.5t54 22q29 0 42.5 -18t13.5 -48q0 -14 -3 -33t-8 -45q-9 -36 -19.5 -76t-21 -78.5t-17 -69.5t-6.5 -49q0 -17 6.5 -27.5t19.5 -10.5q17 0 38.5 19.5t44.5 51t45 69t40.5 75.5 t30.5 70l6 27h1l29 136l31 4q7 1 17 2t15 1q8 0 8 -6.5t-1 -15.5l-27 -121l-50 -229q-4 -21 -7 -37.5t-3 -25.5q0 -26 18 -26q12 0 27.5 13.5t32.5 33.5t32 41l8 -6q-14 -29 -35 -61t-46.5 -54t-54.5 -22t-42.5 18t-13.5 48q0 14 3 33t9 45l22 100v0q-14 -29 -36 -70.5 t-50.5 -81t-60.5 -66t-64 -26.5q-33 0 -50 23t-17 58q0 22 7 57t17.5 75.5t21 81.5t19.5 77z" />
<glyph unicode="&#x172;" horiz-adv-x="668" d="M478 28v-1l-14 -8q-72 -44 -113 -79t-41 -74q0 -17 8.5 -25.5t20.5 -8.5q21 0 42 19.5t40 42.5l9 -6q-12 -27 -29.5 -52.5t-40.5 -42t-51 -16.5q-33 0 -49.5 19t-16.5 51q0 40 34 77t94 67q-14 -1 -29 -1q-86 0 -141 48t-55 135q0 16 1.5 35.5t5.5 40.5l69 323l16 71 l-79 23l4 20h238l2 -20l-59 -15q-17 -5 -25 -12.5t-12 -23.5l-10 -43v0l-69 -327q-4 -18 -5.5 -35t-1.5 -33q0 -70 39 -108t102 -38q68 0 121 50.5t76 158.5l72 334l15 68l-85 23l4 21h213l2 -21l-94 -23l-15 -68l-70 -334q-33 -152 -123 -212v0z" />
<glyph unicode="&#x173;" horiz-adv-x="547" d="M187 362q4 22 7 38t3 26q0 25 -18 25q-12 0 -27.5 -13.5t-32 -33.5t-32.5 -41l-8 6q14 30 35 61.5t47 53.5t54 22q29 0 42.5 -18t13.5 -48q0 -14 -3 -33t-8 -45q-9 -36 -19.5 -76t-21 -78.5t-17 -69.5t-6.5 -49q0 -17 6.5 -27.5t19.5 -10.5q17 0 38.5 19.5t44.5 51t45 69 t40.5 75.5t30.5 70l6 27h1l29 136l31 4q7 1 17 2t15 1q8 0 8 -6.5t-1 -15.5l-27 -121l-50 -229q-4 -21 -7 -37.5t-3 -25.5q0 -26 18 -26q12 0 27.5 13.5t32.5 33.5t32 41l8 -6q-9 -20 -21.5 -41t-27.5 -40l2 2q-34 -47 -65 -80.5t-51 -58.5t-20 -49q0 -28 26 -28q21 0 40 20 t37 42l9 -6q-12 -27 -28.5 -52.5t-39 -42t-50.5 -16.5q-27 0 -44.5 17.5t-17.5 45.5q0 30 18.5 55t46.5 48t59 48q-4 -1 -9 -1q-29 0 -42.5 18t-13.5 48q0 14 3 33t9 45l22 100v0q-14 -29 -36 -70.5t-50.5 -81t-60.5 -66t-64 -26.5q-33 0 -50 23t-17 58q0 22 7 57t17.5 75.5 t21 81.5t19.5 77z" />
<glyph unicode="&#x174;" horiz-adv-x="1011" d="M795 782l-17 -10q-24 20 -53 43t-60 44q-31 -19 -74.5 -43.5t-78.5 -43.5l-10 13q25 20 52.5 44t51.5 46t36 35l9 5h50q21 -26 46.5 -61.5t47.5 -71.5zM336 0h-45l-66 611q-3 20 -9.5 28.5t-21.5 12.5l-51 14l2 20h232l4 -20l-86 -22l57 -538l237 435l-9 70 q-2 20 -8.5 28.5t-21.5 12.5l-52 14l3 20h232l4 -20l-86 -22l64 -538l286 538l-82 22l4 20h205l3 -20l-56 -16q-18 -4 -28 -13t-19 -25l-329 -612h-45l-57 475z" />
<glyph unicode="&#x175;" horiz-adv-x="654" d="M563 592l-17 -11q-21 26 -47.5 55.5t-54.5 55.5q-29 -24 -69 -55.5t-73 -55.5l-10 13q23 25 48 54.5t46.5 56t33.5 43.5l8 5h54q18 -32 39.5 -75t41.5 -86zM697 459q0 -28 -16.5 -71t-44.5 -94t-64.5 -104.5t-77 -103t-79.5 -88.5l-35 2q8 113 14 194t6 130v23 q-33 -94 -89 -186t-127 -163l-34 2q8 113 14 194t6 130q0 70 -8.5 98.5t-27.5 28.5q-20 0 -44.5 -27t-48.5 -61l-9 6q16 32 37 64t46.5 52.5t54.5 20.5q69 0 69 -129q0 -36 -3 -87t-7.5 -108.5t-11.5 -110.5q56 75 92.5 149.5t56.5 141t24 118.5q0 10 -2 19q6 3 13.5 5 t17.5 2q28 0 39.5 -24.5t11.5 -92.5q0 -39 -3 -92.5t-8 -112t-11 -113.5q49 66 88 137.5t62 138.5t23 120q0 16 -2 31q13 8 32 8q20 0 33 -11.5t13 -35.5z" />
<glyph unicode="&#x176;" horiz-adv-x="634" d="M615 782l-17 -10q-24 20 -53 43t-60 44q-31 -19 -74.5 -43.5t-78.5 -43.5l-10 13q25 20 52.5 44t51.5 46t36 35l9 5h50q21 -26 46.5 -61.5t47.5 -71.5zM347 43l79 -23l-4 -20h-238l-2 20l59 15q17 5 25.5 12.5t11.5 23.5l10 44v0l17 79q9 43 8 101t-10 118.5t-24 112 t-33.5 83.5t-37.5 32t-42 -28.5t-44 -61.5l-14 7q15 36 35.5 67.5t44.5 51t52 19.5q32 0 58 -32t45 -87t29.5 -123.5t12.5 -142.5q36 76 75 145t76.5 123t72 85.5t62.5 31.5q23 0 38 -20t23 -51t11 -63l-16 -5q-10 36 -24 60t-34 24q-17 0 -42.5 -23t-55.5 -62.5t-60.5 -88 t-57.5 -100.5t-47 -100.5t-29 -86.5l-14 -65z" />
<glyph unicode="&#x177;" horiz-adv-x="429" d="M438 592l-16 -11q-22 26 -48 55.5t-55 55.5q-28 -24 -68 -55.5t-73 -55.5l-10 13q23 25 48 54.5t46.5 56t33.5 43.5l8 5h54q18 -32 39.5 -75t40.5 -86zM166 506q82 0 82 -164q0 -66 -14 -153t-41 -171q94 90 143 200t49 219q0 37 -5 60q11 9 30 9q50 0 50 -71 q0 -69 -32.5 -151t-95.5 -164.5t-156 -150.5q-24 -62 -56 -113.5t-71 -81.5t-84 -30q-37 0 -59.5 16t-22.5 40q0 12 6.5 21t15.5 14q13 -18 29 -29t38 -11q36 0 64 28.5t49.5 76t38.5 104.5q17 59 28 120.5t16.5 115.5t5.5 89q0 62 -11.5 92t-30.5 30q-18 0 -39.5 -27 t-43.5 -61l-9 6q13 32 32.5 63.5t43.5 52.5t50 21z" />
<glyph unicode="&#x178;" horiz-adv-x="634" d="M624 852q0 -25 -17 -44t-40 -19q-20 0 -32 11t-12 29q0 23 16.5 43t42.5 20q19 0 30.5 -11t11.5 -29zM420 852q0 -25 -17 -44t-40 -19q-20 0 -32 11t-12 29q0 23 17 43t42 20q19 0 30.5 -11t11.5 -29zM347 43l79 -23l-4 -20h-238l-2 20l59 15q17 5 25.5 12.5t11.5 23.5 l10 44v0l17 79q9 43 8 101t-10 118.5t-24 112t-33.5 83.5t-37.5 32t-42 -28.5t-44 -61.5l-14 7q15 36 35.5 67.5t44.5 51t52 19.5q32 0 58 -32t45 -87t29.5 -123.5t12.5 -142.5q36 76 75 145t76.5 123t72 85.5t62.5 31.5q23 0 38 -20t23 -51t11 -63l-16 -5q-10 36 -24 60 t-34 24q-17 0 -42.5 -23t-55.5 -62.5t-60.5 -88t-57.5 -100.5t-47 -100.5t-29 -86.5l-14 -65z" />
<glyph unicode="&#x179;" horiz-adv-x="588" d="M544 908l9 1q14 -6 25 -14.5t11 -22.5q0 -16 -22.5 -30.5t-60 -27.5t-82 -22.5t-89.5 -13.5l-5 16q66 29 123 58t91 56zM508 0h-451l1 35l499 615h-186q-27 0 -55 -1t-48 -3l-79 -142h-18q1 46 12 95.5t25 86.5h443l-1 -34l-499 -616h195q27 0 55 1t47 4l81 141h18 q-2 -43 -13 -91.5t-26 -90.5z" />
<glyph unicode="&#x17a;" horiz-adv-x="405" d="M388 756l8 3q2 0 5 -0.5t6 -0.5q40 -4 40 -28q0 -16 -20 -36.5t-53 -42t-71.5 -41t-75.5 -33.5l-9 15q34 27 67.5 57.5t60.5 58t42 48.5zM127 19q-45 0 -79 -29l-21 24q84 102 158.5 191t147.5 189q-39 16 -80 28t-65 12q-28 0 -47 -22t-43 -66l-11 5q19 72 37.5 113.5 t59.5 41.5q40 0 86.5 -25.5t84.5 -55.5q29 40 56 81q33 -8 33 -35q0 -13 -6.5 -23.5t-21.5 -26.5q-50 -62 -98.5 -118.5t-99.5 -114t-106 -121.5q14 5 30 7t34 2q16 0 43 -4.5t53 -8.5t40 -4t24.5 10t22.5 28q16 21 35 52l10 -5q-7 -20 -14.5 -42t-16.5 -42q-13 -30 -28 -50 t-37 -20q-21 0 -54.5 7t-67.5 14.5t-59 7.5z" />
<glyph unicode="&#x17b;" horiz-adv-x="588" d="M515 851q0 -26 -19 -45.5t-45 -19.5q-45 0 -45 42q0 25 19 44t45 19q21 0 33 -10.5t12 -29.5zM508 0h-451l1 35l499 615h-186q-27 0 -55 -1t-48 -3l-79 -142h-18q1 46 12 95.5t25 86.5h443l-1 -34l-499 -616h195q27 0 55 1t47 4l81 141h18q-2 -43 -13 -91.5t-26 -90.5z " />
<glyph unicode="&#x17c;" horiz-adv-x="405" d="M314 607q-18 0 -29.5 11t-11.5 31q0 29 18.5 50t43.5 21q18 0 29.5 -11t11.5 -30q0 -30 -18.5 -51t-43.5 -21zM127 19q-45 0 -79 -29l-21 24q84 102 158.5 191t147.5 189q-39 16 -80 28t-65 12q-28 0 -47 -22t-43 -66l-11 5q19 72 37.5 113.5t59.5 41.5q40 0 86.5 -25.5 t84.5 -55.5q29 40 56 81q33 -8 33 -35q0 -13 -6.5 -23.5t-21.5 -26.5q-50 -62 -98.5 -118.5t-99.5 -114t-106 -121.5q14 5 30 7t34 2q16 0 43 -4.5t53 -8.5t40 -4t24.5 10t22.5 28q16 21 35 52l10 -5q-7 -20 -14.5 -42t-16.5 -42q-13 -30 -28 -50t-37 -20q-21 0 -54.5 7 t-67.5 14.5t-59 7.5z" />
<glyph unicode="&#x17d;" horiz-adv-x="588" d="M475 776l-7 -5h-54q-19 27 -40.5 62.5t-42.5 71.5l17 10q22 -20 48 -43t54 -44q33 19 78.5 44t82.5 43l11 -12q-26 -21 -54.5 -45t-53.5 -46t-39 -36zM508 0h-451l1 35l499 615h-186q-27 0 -55 -1t-48 -3l-79 -142h-18q1 46 12 95.5t25 86.5h443l-1 -34l-499 -616h195 q27 0 55 1t47 4l81 141h18q-2 -43 -13 -91.5t-26 -90.5z" />
<glyph unicode="&#x17e;" horiz-adv-x="405" d="M347 586l-8 -5h-53q-17 32 -36.5 75t-37.5 87l17 10q20 -26 44.5 -55t49.5 -56q31 24 74 56t78 55l10 -12q-24 -25 -51.5 -54.5t-50.5 -56.5t-36 -44zM127 19q-45 0 -79 -29l-21 24q84 102 158.5 191t147.5 189q-39 16 -80 28t-65 12q-28 0 -47 -22t-43 -66l-11 5 q19 72 37.5 113.5t59.5 41.5q40 0 86.5 -25.5t84.5 -55.5q29 40 56 81q33 -8 33 -35q0 -13 -6.5 -23.5t-21.5 -26.5q-50 -62 -98.5 -118.5t-99.5 -114t-106 -121.5q14 5 30 7t34 2q16 0 43 -4.5t53 -8.5t40 -4t24.5 10t22.5 28q16 21 35 52l10 -5q-7 -20 -14.5 -42 t-16.5 -42q-13 -30 -28 -50t-37 -20q-21 0 -54.5 7t-67.5 14.5t-59 7.5z" />
<glyph unicode="&#x18f;" horiz-adv-x="585" d="M603 456q0 -97 -26 -181.5t-72.5 -148.5t-107.5 -100t-132 -36q-84 0 -132.5 57.5t-48.5 160.5q0 25 4 54.5t12 61.5l15 13h394q15 71 15 141q0 178 -132 178q-48 0 -87 -24.5t-62 -63.5t-23 -84q0 -6 2 -15q-19 -10 -39 -10q-17 0 -28 9t-11 25q0 40 20.5 76.5t56.5 65 t82.5 45t96.5 16.5q95 0 149 -65.5t54 -174.5zM160 200q0 -84 31 -127t89 -43q51 0 94.5 37.5t76 99.5t51.5 136l-331 -7q-5 -22 -8 -47t-3 -49z" />
<glyph unicode="&#x192;" horiz-adv-x="468" d="M203 -8q-25 -112 -80.5 -180t-133.5 -68q-38 0 -62 18.5t-24 44.5q0 15 8.5 26.5t21.5 17.5q16 -27 37.5 -46.5t49.5 -19.5q48 0 73 52t43 145l64 315h-117l10 43h116l22 108q22 118 78.5 183t135.5 65q36 0 63 -14t42 -36.5t15 -45.5q0 -22 -13.5 -34t-29.5 -16 q-11 51 -33 79.5t-57 28.5q-49 0 -76 -53.5t-49 -146.5l-27 -118h184l-10 -43h-183z" />
<glyph unicode="&#x19d;" horiz-adv-x="721" d="M22 -170l-12 14q26 29 48 53.5t39.5 52.5t31.5 64.5t25 89.5l110 519q0 12 -4.5 18t-18.5 10l-53 14l5 21h141l236 -575l97 461l16 70l-85 23l4 21h213l2 -21l-61 -15q-18 -5 -26.5 -12t-11.5 -23l-10 -43l-122 -572h-49l-241 583l-107 -508q-14 -64 -35 -105 t-53.5 -72.5t-78.5 -67.5z" />
<glyph unicode="&#x1cd;" horiz-adv-x="666" d="M515 776l-8 -5h-53q-20 27 -41.5 62.5t-41.5 71.5l16 10q22 -20 48.5 -43t53.5 -44q33 19 78.5 44t83.5 43l10 -12q-26 -21 -54.5 -45t-53 -46t-38.5 -36zM445 688h45l75 -613q3 -19 9.5 -28t21.5 -13l51 -14l-2 -20h-232l-4 20l86 22l-25 200l-232 -4l-107 -195l81 -23 l-4 -20h-203l-2 20l56 16q17 4 27 13t20 26zM259 276l207 -1l-37 311z" />
<glyph unicode="&#x1ce;" horiz-adv-x="501" d="M405 586l-8 -5h-54q-16 32 -35.5 75t-37.5 87l16 10q21 -26 45 -55t50 -56q31 24 73.5 56t78.5 55l10 -12q-24 -25 -51.5 -54.5t-51 -56.5t-35.5 -44zM405 134q-5 -21 -8 -37.5t-3 -25.5q0 -26 18 -26q12 0 27.5 13.5t32.5 33.5t32 41l9 -6q-14 -29 -35 -61t-47 -54 t-54 -22q-29 0 -43 18t-14 48q0 14 3.5 33t8.5 45l25 113v0q-18 -39 -42.5 -83.5t-52.5 -84t-58.5 -64.5t-60.5 -25q-35 0 -57 31.5t-22 90.5q0 77 23.5 148t65 126.5t95.5 87.5t114 32q35 0 66.5 -7.5t54.5 -18.5l-6 -19zM139 120q0 -30 9 -49.5t25 -19.5q19 0 43 23.5 t49 60.5t48 79.5t41 82.5t27 67l20 89q-28 19 -66 19q-36 0 -70.5 -29.5t-63 -79.5t-45.5 -113t-17 -130z" />
<glyph unicode="&#x1cf;" horiz-adv-x="365" d="M363 776l-8 -5h-53q-19 27 -40.5 62.5t-42.5 71.5l16 10q23 -20 49 -43t54 -44q32 19 78 44t83 43l10 -12q-25 -21 -54 -45t-53.5 -46t-38.5 -36zM216 43l79 -23l-4 -20h-238l-2 20l59 15q17 5 25 12.5t12 23.5l10 44v0l96 457l16 71l-78 23l4 20h237l2 -20l-59 -15 q-16 -5 -24.5 -12.5t-11.5 -23.5l-11 -43h1l-97 -457z" />
<glyph unicode="&#x1d0;" horiz-adv-x="298" d="M278 586l-8 -5h-54q-9 32 -20 75t-22 87l17 10q14 -24 30.5 -52t33.5 -54q25 24 58 54t60 52l11 -12q-19 -25 -40 -54.5t-39 -56.5t-27 -44zM199 134q-4 -21 -7 -37.5t-3 -25.5q0 -26 17 -26q12 0 28 13.5t32.5 33.5t31.5 41l9 -6q-14 -29 -35 -61t-47 -54t-54 -22 q-29 0 -42.5 18t-13.5 48q0 14 3 33t8 45q11 52 26.5 114.5t27.5 113.5q4 22 7 38t3 26q0 25 -18 25q-11 0 -27 -13.5t-32.5 -33.5t-31.5 -41l-9 6q14 30 35 61.5t47 53.5t54 22q29 0 42.5 -18t13.5 -48q0 -14 -3 -33t-8 -45q-12 -53 -27.5 -115.5t-26.5 -112.5z" />
<glyph unicode="&#x1d1;" horiz-adv-x="605" d="M481 776l-7 -5h-54q-19 27 -40.5 62.5t-42.5 71.5l17 10q22 -20 48 -43t54 -44q33 19 78.5 44t82.5 43l10 -12q-25 -21 -53.5 -45t-53.5 -46t-39 -36zM626 451q0 -61 -15 -125.5t-43.5 -124.5t-68 -107.5t-89.5 -75.5t-109 -28q-60 0 -104.5 30t-69.5 84.5t-25 129.5 q0 63 15.5 128.5t44 125.5t69.5 107t91.5 74t108.5 27q92 0 143.5 -66.5t51.5 -178.5zM181 214q0 -81 32 -132.5t95 -51.5q44 0 81 28.5t66 77t49.5 107.5t31.5 119.5t11 114.5q0 82 -28.5 131t-93.5 49q-44 0 -81.5 -28t-67.5 -75t-51.5 -105t-32.5 -119t-11 -116z" />
<glyph unicode="&#x1d2;" horiz-adv-x="433" d="M352 586l-8 -5h-54q-16 32 -35.5 75t-37.5 87l16 10q21 -26 45 -55t50 -56q31 24 74 56t78 55l10 -12q-24 -25 -51.5 -54.5t-50.5 -56.5t-36 -44zM439 329q0 -72 -19 -133.5t-51 -108t-73 -72t-85 -25.5q-61 0 -98 49.5t-37 130.5q0 67 19 127.5t51.5 107.5t73.5 74 t85 27q66 0 100 -48t34 -129zM151 155q0 -60 17.5 -95t49.5 -35q30 0 56.5 29.5t46.5 78t31.5 105.5t11.5 112q0 54 -14.5 87.5t-49.5 33.5q-30 0 -57 -29.5t-48 -77t-32.5 -102.5t-11.5 -107z" />
<glyph unicode="&#x1d3;" horiz-adv-x="668" d="M536 776l-8 -5h-53q-19 27 -40.5 62.5t-42.5 71.5l16 10q22 -20 48.5 -43t53.5 -44q33 19 79 44t83 43l10 -12q-26 -21 -54.5 -45t-53 -46t-38.5 -36zM601 240q-27 -127 -93 -188.5t-166 -61.5q-86 0 -141 48t-55 135q0 16 1.5 35.5t5.5 40.5l69 323l16 71l-79 23l4 20 h238l2 -20l-59 -15q-17 -5 -25 -12.5t-12 -23.5l-10 -43v0l-69 -327q-4 -18 -5.5 -35t-1.5 -33q0 -70 39 -108t102 -38q68 0 121 50.5t76 158.5l72 334l15 68l-85 23l4 21h213l2 -21l-94 -23l-15 -68z" />
<glyph unicode="&#x1d4;" horiz-adv-x="547" d="M407 586l-7 -5h-54q-17 32 -36 75t-37 87l16 10q21 -26 45 -55t50 -56q31 24 73.5 56t78.5 55l10 -12q-25 -25 -52 -54.5t-50.5 -56.5t-36.5 -44zM187 362q4 22 7 38t3 26q0 25 -18 25q-12 0 -27.5 -13.5t-32 -33.5t-32.5 -41l-8 6q14 30 35 61.5t47 53.5t54 22 q29 0 42.5 -18t13.5 -48q0 -14 -3 -33t-8 -45q-9 -36 -19.5 -76t-21 -78.5t-17 -69.5t-6.5 -49q0 -17 6.5 -27.5t19.5 -10.5q17 0 38.5 19.5t44.5 51t45 69t40.5 75.5t30.5 70l6 27h1l29 136l31 4q7 1 17 2t15 1q8 0 8 -6.5t-1 -15.5l-27 -121l-50 -229q-4 -21 -7 -37.5 t-3 -25.5q0 -26 18 -26q12 0 27.5 13.5t32.5 33.5t32 41l8 -6q-14 -29 -35 -61t-46.5 -54t-54.5 -22t-42.5 18t-13.5 48q0 14 3 33t9 45l22 100v0q-14 -29 -36 -70.5t-50.5 -81t-60.5 -66t-64 -26.5q-33 0 -50 23t-17 58q0 22 7 57t17.5 75.5t21 81.5t19.5 77z" />
<glyph unicode="&#x1d5;" horiz-adv-x="668" d="M419 1011l10 46h273l-10 -46h-273zM670 852q0 -25 -16.5 -44t-40.5 -19q-20 0 -31.5 11t-11.5 29q0 23 16.5 43t41.5 20q19 0 30.5 -11t11.5 -29zM466 852q0 -25 -16.5 -44t-40.5 -19q-19 0 -31 11t-12 29q0 23 16.5 43t42.5 20q18 0 29.5 -11t11.5 -29zM601 240 q-27 -127 -93 -188.5t-166 -61.5q-86 0 -141 48t-55 135q0 16 1.5 35.5t5.5 40.5l69 323l16 71l-79 23l4 20h238l2 -20l-59 -15q-17 -5 -25 -12.5t-12 -23.5l-10 -43v0l-69 -327q-4 -18 -5.5 -35t-1.5 -33q0 -70 39 -108t102 -38q68 0 121 50.5t76 158.5l72 334l15 68 l-85 23l4 21h213l2 -21l-94 -23l-15 -68z" />
<glyph unicode="&#x1d6;" horiz-adv-x="547" d="M299 876l10 45h257l-10 -45h-257zM538 678q0 -27 -16 -47t-38 -20q-18 0 -29.5 12t-11.5 32q0 24 16 44.5t40 20.5q18 0 28.5 -11.5t10.5 -30.5zM336 678q0 -27 -16 -47t-38 -20q-18 0 -29.5 12t-11.5 32q0 24 16 44.5t40 20.5q18 0 28.5 -11.5t10.5 -30.5zM187 362 q4 22 7 38t3 26q0 25 -18 25q-12 0 -27.5 -13.5t-32 -33.5t-32.5 -41l-8 6q14 30 35 61.5t47 53.5t54 22q29 0 42.5 -18t13.5 -48q0 -14 -3 -33t-8 -45q-9 -36 -19.5 -76t-21 -78.5t-17 -69.5t-6.5 -49q0 -17 6.5 -27.5t19.5 -10.5q17 0 38.5 19.5t44.5 51t45 69t40.5 75.5 t30.5 70l6 27h1l29 136l31 4q7 1 17 2t15 1q8 0 8 -6.5t-1 -15.5l-27 -121l-50 -229q-4 -21 -7 -37.5t-3 -25.5q0 -26 18 -26q12 0 27.5 13.5t32.5 33.5t32 41l8 -6q-14 -29 -35 -61t-46.5 -54t-54.5 -22t-42.5 18t-13.5 48q0 14 3 33t9 45l22 100v0q-14 -29 -36 -70.5 t-50.5 -81t-60.5 -66t-64 -26.5q-33 0 -50 23t-17 58q0 22 7 57t17.5 75.5t21 81.5t19.5 77z" />
<glyph unicode="&#x1d7;" horiz-adv-x="668" d="M650 1100l9 2q14 -6 25 -15t11 -22q0 -16 -22.5 -30.5t-59.5 -27.5t-82 -22.5t-90 -14.5l-5 17q67 29 124 58t90 55zM466 852q0 -25 -16.5 -44t-40.5 -19q-19 0 -31 11t-12 29q0 23 16.5 43t42.5 20q18 0 29.5 -11t11.5 -29zM670 852q0 -25 -16.5 -44t-40.5 -19 q-20 0 -31.5 11t-11.5 29q0 23 16.5 43t41.5 20q19 0 30.5 -11t11.5 -29zM601 240q-27 -127 -93 -188.5t-166 -61.5q-86 0 -141 48t-55 135q0 16 1.5 35.5t5.5 40.5l69 323l16 71l-79 23l4 20h238l2 -20l-59 -15q-17 -5 -25 -12.5t-12 -23.5l-10 -43v0l-69 -327 q-4 -18 -5.5 -35t-1.5 -33q0 -70 39 -108t102 -38q68 0 121 50.5t76 158.5l72 334l15 68l-85 23l4 21h213l2 -21l-94 -23l-15 -68z" />
<glyph unicode="&#x1d8;" horiz-adv-x="547" d="M501 988l7 3q3 -1 6 -1h5q41 -4 41 -28q0 -16 -20.5 -37t-53.5 -42t-71.5 -41t-75.5 -34l-9 15q35 28 68 58t60 58t43 49zM538 678q0 -27 -16 -47t-38 -20q-18 0 -29.5 12t-11.5 32q0 24 16 44.5t40 20.5q18 0 28.5 -11.5t10.5 -30.5zM336 678q0 -27 -16 -47t-38 -20 q-18 0 -29.5 12t-11.5 32q0 24 16 44.5t40 20.5q18 0 28.5 -11.5t10.5 -30.5zM187 362q4 22 7 38t3 26q0 25 -18 25q-12 0 -27.5 -13.5t-32 -33.5t-32.5 -41l-8 6q14 30 35 61.5t47 53.5t54 22q29 0 42.5 -18t13.5 -48q0 -14 -3 -33t-8 -45q-9 -36 -19.5 -76t-21 -78.5 t-17 -69.5t-6.5 -49q0 -17 6.5 -27.5t19.5 -10.5q17 0 38.5 19.5t44.5 51t45 69t40.5 75.5t30.5 70l6 27h1l29 136l31 4q7 1 17 2t15 1q8 0 8 -6.5t-1 -15.5l-27 -121l-50 -229q-4 -21 -7 -37.5t-3 -25.5q0 -26 18 -26q12 0 27.5 13.5t32.5 33.5t32 41l8 -6q-14 -29 -35 -61 t-46.5 -54t-54.5 -22t-42.5 18t-13.5 48q0 14 3 33t9 45l22 100v0q-14 -29 -36 -70.5t-50.5 -81t-60.5 -66t-64 -26.5q-33 0 -50 23t-17 58q0 22 7 57t17.5 75.5t21 81.5t19.5 77z" />
<glyph unicode="&#x1d9;" horiz-adv-x="668" d="M572 969l-8 -5h-54q-19 27 -40.5 62.5t-41.5 71.5l16 10q22 -20 48.5 -43.5t53.5 -44.5q33 19 78.5 44t83.5 44l10 -13q-26 -20 -54.5 -44.5t-53 -46t-38.5 -35.5zM670 852q0 -25 -16.5 -44t-40.5 -19q-20 0 -31.5 11t-11.5 29q0 23 16.5 43t41.5 20q19 0 30.5 -11 t11.5 -29zM466 852q0 -25 -16.5 -44t-40.5 -19q-19 0 -31 11t-12 29q0 23 16.5 43t42.5 20q18 0 29.5 -11t11.5 -29zM601 240q-27 -127 -93 -188.5t-166 -61.5q-86 0 -141 48t-55 135q0 16 1.5 35.5t5.5 40.5l69 323l16 71l-79 23l4 20h238l2 -20l-59 -15q-17 -5 -25 -12.5 t-12 -23.5l-10 -43v0l-69 -327q-4 -18 -5.5 -35t-1.5 -33q0 -70 39 -108t102 -38q68 0 121 50.5t76 158.5l72 334l15 68l-85 23l4 21h213l2 -21l-94 -23l-15 -68z" />
<glyph unicode="&#x1da;" horiz-adv-x="547" d="M449 819l-8 -5h-54q-16 32 -35.5 75t-37.5 86l16 10q21 -25 45 -54.5t50 -55.5q31 24 74 55.5t78 54.5l10 -12q-24 -25 -51.5 -54.5t-50.5 -56.5t-36 -43zM538 678q0 -27 -16 -47t-38 -20q-18 0 -29.5 12t-11.5 32q0 24 16 44.5t40 20.5q18 0 28.5 -11.5t10.5 -30.5z M336 678q0 -27 -16 -47t-38 -20q-18 0 -29.5 12t-11.5 32q0 24 16 44.5t40 20.5q18 0 28.5 -11.5t10.5 -30.5zM187 362q4 22 7 38t3 26q0 25 -18 25q-12 0 -27.5 -13.5t-32 -33.5t-32.5 -41l-8 6q14 30 35 61.5t47 53.5t54 22q29 0 42.5 -18t13.5 -48q0 -14 -3 -33t-8 -45 q-9 -36 -19.5 -76t-21 -78.5t-17 -69.5t-6.5 -49q0 -17 6.5 -27.5t19.5 -10.5q17 0 38.5 19.5t44.5 51t45 69t40.5 75.5t30.5 70l6 27h1l29 136l31 4q7 1 17 2t15 1q8 0 8 -6.5t-1 -15.5l-27 -121l-50 -229q-4 -21 -7 -37.5t-3 -25.5q0 -26 18 -26q12 0 27.5 13.5t32.5 33.5 t32 41l8 -6q-14 -29 -35 -61t-46.5 -54t-54.5 -22t-42.5 18t-13.5 48q0 14 3 33t9 45l22 100v0q-14 -29 -36 -70.5t-50.5 -81t-60.5 -66t-64 -26.5q-33 0 -50 23t-17 58q0 22 7 57t17.5 75.5t21 81.5t19.5 77z" />
<glyph unicode="&#x1db;" horiz-adv-x="668" d="M671 988l-10 -17q-27 2 -63.5 9.5t-71.5 19t-58 27t-22 33.5q0 16 15 27t28 16l7 -2q15 -16 42.5 -36.5t62 -40.5t70.5 -36zM670 852q0 -25 -16.5 -44t-40.5 -19q-20 0 -31.5 11t-11.5 29q0 23 16.5 43t41.5 20q19 0 30.5 -11t11.5 -29zM466 852q0 -25 -16.5 -44 t-40.5 -19q-19 0 -31 11t-12 29q0 23 16.5 43t42.5 20q18 0 29.5 -11t11.5 -29zM601 240q-27 -127 -93 -188.5t-166 -61.5q-86 0 -141 48t-55 135q0 16 1.5 35.5t5.5 40.5l69 323l16 71l-79 23l4 20h238l2 -20l-59 -15q-17 -5 -25 -12.5t-12 -23.5l-10 -43v0l-69 -327 q-4 -18 -5.5 -35t-1.5 -33q0 -70 39 -108t102 -38q68 0 121 50.5t76 158.5l72 334l15 68l-85 23l4 21h213l2 -21l-94 -23l-15 -68z" />
<glyph unicode="&#x1dc;" horiz-adv-x="547" d="M504 821l-13 -12q-38 23 -75 50.5t-60 54t-21 45.5q2 15 16 23t35 8h5h6l6 -3q12 -32 40.5 -77.5t60.5 -88.5zM538 678q0 -27 -16 -47t-38 -20q-18 0 -29.5 12t-11.5 32q0 24 16 44.5t40 20.5q18 0 28.5 -11.5t10.5 -30.5zM336 678q0 -27 -16 -47t-38 -20q-18 0 -29.5 12 t-11.5 32q0 24 16 44.5t40 20.5q18 0 28.5 -11.5t10.5 -30.5zM187 362q4 22 7 38t3 26q0 25 -18 25q-12 0 -27.5 -13.5t-32 -33.5t-32.5 -41l-8 6q14 30 35 61.5t47 53.5t54 22q29 0 42.5 -18t13.5 -48q0 -14 -3 -33t-8 -45q-9 -36 -19.5 -76t-21 -78.5t-17 -69.5t-6.5 -49 q0 -17 6.5 -27.5t19.5 -10.5q17 0 38.5 19.5t44.5 51t45 69t40.5 75.5t30.5 70l6 27h1l29 136l31 4q7 1 17 2t15 1q8 0 8 -6.5t-1 -15.5l-27 -121l-50 -229q-4 -21 -7 -37.5t-3 -25.5q0 -26 18 -26q12 0 27.5 13.5t32.5 33.5t32 41l8 -6q-14 -29 -35 -61t-46.5 -54 t-54.5 -22t-42.5 18t-13.5 48q0 14 3 33t9 45l22 100v0q-14 -29 -36 -70.5t-50.5 -81t-60.5 -66t-64 -26.5q-33 0 -50 23t-17 58q0 22 7 57t17.5 75.5t21 81.5t19.5 77z" />
<glyph unicode="&#x1e6;" horiz-adv-x="641" d="M555 776l-7 -5h-54q-19 27 -40.5 62.5t-42.5 71.5l17 10q22 -20 48 -43t54 -44q33 19 78.5 44t82.5 43l10 -12q-25 -21 -54 -45t-53.5 -46t-38.5 -36zM385 31q51 0 89 13l35 161l15 72l-78 23l4 20h235l2 -20l-59 -14q-17 -4 -25 -12t-11 -25l-11 -44h1l-40 -185 q-33 -13 -72.5 -21.5t-92.5 -8.5q-82 0 -142.5 32.5t-94 93.5t-33.5 147q0 93 32.5 171.5t89 137.5t128.5 91.5t151 32.5q49 0 87 -6.5t72 -19.5q-2 -23 -8.5 -53t-15 -60.5t-17.5 -55.5h-18q-7 43 -12 77.5t-10 65.5q-20 7 -39.5 9t-44.5 2q-60 0 -116.5 -29.5t-101.5 -83 t-72 -124.5t-27 -155q0 -67 24.5 -119.5t69 -82.5t106.5 -30z" />
<glyph unicode="&#x1e7;" horiz-adv-x="401" d="M336 584l-8 -5h-53q-17 32 -36.5 75t-37.5 86l17 11q20 -26 44.5 -55.5t49.5 -55.5q31 24 74 55.5t78 55.5l11 -13q-25 -25 -52 -54.5t-50.5 -56t-36.5 -43.5zM281 506q63 0 115 2.5t85 10.5q6 -10 6 -23q0 -15 -9 -26.5t-31 -11.5q-16 0 -41 5.5t-59 13.5 q26 -19 37.5 -45.5t11.5 -59.5q0 -57 -20.5 -100t-51 -74.5t-61 -55t-51.5 -41.5t-21 -33q0 -14 14 -23.5t38 -22.5q54 -31 86.5 -57t32.5 -69q0 -36 -26 -71t-76 -58t-121 -23q-81 0 -127 32t-46 77q0 35 26 64t67 54l9 -9q-15 -18 -26.5 -38t-11.5 -44q0 -47 38 -74.5 t91 -27.5q59 0 97 27.5t38 68.5q0 27 -23.5 46.5t-65.5 44.5q-35 20 -60 37.5t-25 44.5q0 23 25.5 45.5t72.5 55.5h-5q-57 0 -93 37t-36 98q0 60 26.5 111t71 81.5t99.5 30.5zM155 288q0 -49 18 -77.5t47 -28.5q28 0 52 29.5t38.5 76t14.5 98.5q0 40 -15 63.5t-43 23.5 q-32 0 -57 -28t-40 -70.5t-15 -86.5z" />
<glyph unicode="&#x1ea;" horiz-adv-x="605" d="M423 25q-80 -48 -121.5 -83.5t-41.5 -75.5q0 -17 8.5 -25.5t20.5 -8.5q21 0 42 19.5t40 42.5l9 -6q-12 -27 -29 -52.5t-40 -42t-51 -16.5q-33 0 -50 19t-17 50q0 41 33.5 78t93.5 67q-9 -1 -19 -1q-60 0 -104.5 30t-69.5 84.5t-25 129.5q0 63 15.5 128.5t44 125.5 t69.5 107t91.5 74t108.5 27q92 0 143.5 -66.5t51.5 -178.5q0 -60 -14.5 -123.5t-41.5 -122.5t-66 -106.5t-87 -75.5zM181 214q0 -81 32 -132.5t95 -51.5q44 0 81 28.5t66 77t49.5 107.5t31.5 119.5t11 114.5q0 82 -28.5 131t-93.5 49q-44 0 -81.5 -28t-67.5 -75t-51.5 -105 t-32.5 -119t-11 -116z" />
<glyph unicode="&#x1eb;" horiz-adv-x="433" d="M339 49q-42 -47 -76 -80t-53.5 -58.5t-19.5 -49.5q0 -29 26 -29q20 0 39 19.5t38 42.5l8 -6q-11 -27 -28 -52.5t-39.5 -42t-50.5 -16.5t-44.5 17.5t-16.5 46.5q0 32 21 58t53.5 50t65.5 50q-25 -9 -51 -9q-61 0 -98 49.5t-37 130.5q0 67 19 127.5t51.5 107.5t73.5 74 t85 27q66 0 100 -48t34 -129q0 -90 -29.5 -164t-75.5 -119zM151 155q0 -60 17.5 -95t49.5 -35q30 0 56.5 29.5t46.5 78t31.5 105.5t11.5 112q0 54 -14.5 87.5t-49.5 33.5q-30 0 -57 -29.5t-48 -77t-32.5 -102.5t-11.5 -107z" />
<glyph unicode="&#x1f4;" horiz-adv-x="641" d="M612 908l9 1q14 -6 25 -14.5t11 -22.5q0 -16 -22.5 -30.5t-59.5 -27.5t-82 -22.5t-90 -13.5l-5 16q67 29 124 58t90 56zM385 31q51 0 89 13l35 161l15 72l-78 23l4 20h235l2 -20l-59 -14q-17 -4 -25 -12t-11 -25l-11 -44h1l-40 -185q-33 -13 -72.5 -21.5t-92.5 -8.5 q-82 0 -142.5 32.5t-94 93.5t-33.5 147q0 93 32.5 171.5t89 137.5t128.5 91.5t151 32.5q49 0 87 -6.5t72 -19.5q-2 -23 -8.5 -53t-15 -60.5t-17.5 -55.5h-18q-7 43 -12 77.5t-10 65.5q-20 7 -39.5 9t-44.5 2q-60 0 -116.5 -29.5t-101.5 -83t-72 -124.5t-27 -155 q0 -67 24.5 -119.5t69 -82.5t106.5 -30z" />
<glyph unicode="&#x1f5;" horiz-adv-x="401" d="M395 754l8 3q2 0 5 -0.5t6 -0.5q40 -4 40 -28q0 -16 -20.5 -36.5t-53 -42t-71 -41t-75.5 -34.5l-9 16q34 27 67.5 57t60.5 58t42 49zM281 506q63 0 115 2.5t85 10.5q6 -10 6 -23q0 -15 -9 -26.5t-31 -11.5q-16 0 -41 5.5t-59 13.5q26 -19 37.5 -45.5t11.5 -59.5 q0 -57 -20.5 -100t-51 -74.5t-61 -55t-51.5 -41.5t-21 -33q0 -14 14 -23.5t38 -22.5q54 -31 86.5 -57t32.5 -69q0 -36 -26 -71t-76 -58t-121 -23q-81 0 -127 32t-46 77q0 35 26 64t67 54l9 -9q-15 -18 -26.5 -38t-11.5 -44q0 -47 38 -74.5t91 -27.5q59 0 97 27.5t38 68.5 q0 27 -23.5 46.5t-65.5 44.5q-35 20 -60 37.5t-25 44.5q0 23 25.5 45.5t72.5 55.5h-5q-57 0 -93 37t-36 98q0 60 26.5 111t71 81.5t99.5 30.5zM155 288q0 -49 18 -77.5t47 -28.5q28 0 52 29.5t38.5 76t14.5 98.5q0 40 -15 63.5t-43 23.5q-32 0 -57 -28t-40 -70.5t-15 -86.5z " />
<glyph unicode="&#x1fa;" horiz-adv-x="666" d="M635 1126l8 1q14 -5 25.5 -14t11.5 -23q0 -15 -22.5 -30t-60 -27.5t-82 -22t-89.5 -14.5l-5 16q66 29 123 58t91 56zM589 859q0 -39 -31.5 -66t-77.5 -27q-32 0 -51 16.5t-19 46.5q0 38 31.5 65t76.5 27q33 0 52 -17t19 -45zM452 829q0 -16 10 -26.5t26 -10.5q24 0 41 19 t17 46q0 17 -10 27t-26 10q-24 0 -41 -19t-17 -46zM445 688h45l75 -613q3 -19 9.5 -28t21.5 -13l51 -14l-2 -20h-232l-4 20l86 22l-25 200l-232 -4l-107 -195l81 -23l-4 -20h-203l-2 20l56 16q17 4 27 13t20 26zM259 276l207 -1l-37 311z" />
<glyph unicode="&#x1fb;" horiz-adv-x="501" d="M508 991l7 3q3 0 6 -0.5t5 -0.5q41 -4 41 -28q0 -16 -20.5 -36.5t-53.5 -42t-71.5 -41t-75.5 -34.5l-9 15q35 28 68 58t60 58t43 49zM479 683q0 -39 -31.5 -66.5t-77.5 -27.5q-32 0 -51 17t-19 47q0 38 31 65t76 27q33 0 52.5 -17t19.5 -45zM341 653q0 -17 10 -27t27 -10 q24 0 41 19t17 46q0 17 -10 27t-26 10q-25 0 -42 -19t-17 -46zM405 134q-5 -21 -8 -37.5t-3 -25.5q0 -26 18 -26q12 0 27.5 13.5t32.5 33.5t32 41l9 -6q-14 -29 -35 -61t-47 -54t-54 -22q-29 0 -43 18t-14 48q0 14 3.5 33t8.5 45l25 113v0q-18 -39 -42.5 -83.5t-52.5 -84 t-58.5 -64.5t-60.5 -25q-35 0 -57 31.5t-22 90.5q0 77 23.5 148t65 126.5t95.5 87.5t114 32q35 0 66.5 -7.5t54.5 -18.5l-6 -19zM139 120q0 -30 9 -49.5t25 -19.5q19 0 43 23.5t49 60.5t48 79.5t41 82.5t27 67l20 89q-28 19 -66 19q-36 0 -70.5 -29.5t-63 -79.5t-45.5 -113 t-17 -130z" />
<glyph unicode="&#x1fc;" horiz-adv-x="886" d="M772 908l9 1q14 -6 25 -14.5t11 -22.5q0 -16 -22.5 -30.5t-59.5 -27.5t-82 -22.5t-90 -13.5l-5 16q67 29 124 58t90 56zM430 642l-78 23l7 21h574q-1 -39 -12.5 -89t-25.5 -93h-19q-6 47 -10 80.5t-8 62.5q-18 1 -45.5 2.5t-54.5 1.5h-115l-62 -289l214 5l-11 -46l-210 7 l-45 -213l-17 -80l145 -1q26 0 54.5 1.5t47.5 3.5q16 29 33.5 62.5t44.5 80.5h19q-3 -39 -14 -91.5t-26 -90.5h-466l-2 20l59 15q18 5 26 12.5t11 23.5l10 44l44 211l-209 -3l-155 -280l77 -22l-6 -21h-201l2 21q16 4 30 8l28 8q28 8 45 38zM567 650h-96l-161 -290h195z" />
<glyph unicode="&#x1fd;" horiz-adv-x="638" d="M565 756l7 3q3 0 6 -0.5t5 -0.5q41 -4 41 -28q0 -16 -20.5 -36.5t-53.5 -42t-71.5 -41t-74.5 -33.5l-10 15q35 27 68.5 57.5t60 58t42.5 48.5zM635 133q-34 -62 -81.5 -102.5t-103.5 -40.5q-60 0 -91 45.5t-31 124.5q0 15 1 31q-24 -48 -55 -94t-64.5 -76.5t-66.5 -30.5 q-35 0 -57 31.5t-22 90.5q0 77 23.5 148t65 126.5t95.5 87.5t114 32q35 0 66.5 -7.5t54.5 -18.5l-1 -5l-1 -2q23 16 47.5 24.5t49.5 8.5q44 0 68.5 -24.5t24.5 -64.5q0 -41 -22 -74.5t-59 -58t-84 -38.5t-97 -15l2 14q-8 -41 -8 -80q0 -56 20.5 -88.5t59.5 -32.5 q32 0 69 25.5t74 69.5zM139 120q0 -30 9 -49.5t25 -19.5q18 0 40.5 21.5t46.5 56t46.5 74.5t40.5 78l53 173q-28 18 -65 18q-36 0 -70.5 -29.5t-63 -79.5t-45.5 -113t-17 -130zM566 470q-33 0 -63 -29t-53.5 -77t-35.5 -105q54 5 97.5 28.5t68 59t24.5 76.5q0 21 -10 34 t-28 13z" />
<glyph unicode="&#x1fe;" horiz-adv-x="605" d="M517 946l8 3q2 0 5 -0.5t6 -0.5q40 -4 40 -28q0 -16 -20 -36.5t-53 -42t-71.5 -41t-75.5 -33.5l-9 15q34 27 67.5 57.5t60.5 58t42 48.5zM626 451q0 -61 -15 -125.5t-43.5 -124.5t-68 -107.5t-89.5 -75.5t-109 -28q-56 0 -99.5 26.5t-68.5 75.5l-78 -79l-24 25l87 89 q-16 48 -16 107q0 63 15.5 128.5t44 125.5t69.5 107t91.5 74t108.5 27q54 0 94 -23t65 -66l66 67l25 -25l-75 -76q20 -53 20 -122zM181 214v-23l358 365q-11 47 -38.5 74t-75.5 27q-44 0 -81.5 -28t-67.5 -75t-51.5 -105t-32.5 -119t-11 -116zM547 477q0 18 -1 35l-359 -365 q11 -53 41.5 -85t79.5 -32q44 0 81 28.5t66 77t49.5 107.5t31.5 119.5t11 114.5z" />
<glyph unicode="&#x1ff;" horiz-adv-x="433" d="M382 756l8 3q2 0 5 -0.5t6 -0.5q40 -4 40 -28q0 -16 -20 -36.5t-53 -42t-71.5 -41t-75.5 -33.5l-9 15q34 27 67.5 57.5t60.5 58t42 48.5zM439 329q0 -72 -19 -133.5t-51 -108t-73 -72t-85 -25.5q-39 0 -69 21.5t-47 59.5l-63 -62l-23 27l73 72q-6 29 -6 62q0 67 19 127.5 t51.5 107.5t73.5 74t85 27q39 0 67 -17.5t45 -49.5l50 49l24 -27l-60 -59q8 -33 8 -73zM300 471q-29 0 -55 -26.5t-46 -70.5t-32.5 -95.5t-15.5 -101.5l211 208q-4 39 -18.5 62.5t-43.5 23.5zM218 25q29 0 55 27.5t46 73.5t31.5 101t13.5 109l-212 -209q4 -48 21 -75t45 -27 z" />
<glyph unicode="&#x218;" horiz-adv-x="465" d="M215 -10q-39 0 -74.5 5.5t-59 14.5t-28.5 19q-4 8 -4 21q0 26 11 62.5t28 68.5l19 -1q0 -10 -0.5 -18.5t-0.5 -15.5q0 -33 4.5 -52t13.5 -32q15 -20 41.5 -27.5t55.5 -7.5q46 0 80 20.5t53 53.5t19 71q0 36 -16.5 64.5t-43 52.5t-56 47t-55.5 48.5t-42.5 56.5t-16.5 72 q0 54 31.5 95.5t83 64.5t110.5 23q61 0 98.5 -12.5t46.5 -23.5q5 -5 5 -14q0 -15 -6 -40t-15.5 -51.5t-20.5 -46.5h-19q1 12 1.5 22t0.5 19q0 54 -13 74q-12 17 -33 26t-55 9q-40 0 -71.5 -17.5t-50 -47.5t-18.5 -66q0 -34 16.5 -61.5t43 -51t56 -47t55.5 -49.5t42.5 -58 t16.5 -72q0 -53 -28 -98t-80 -72.5t-125 -27.5zM250 -158q0 -28 -16.5 -60.5t-44.5 -62t-63 -48.5l-8 8q25 27 40.5 53t24.5 55q-16 2 -26 13t-10 29q0 26 18 43.5t43 17.5q19 0 30.5 -13t11.5 -35z" />
<glyph unicode="&#x219;" horiz-adv-x="381" d="M353 132q0 -61 -44.5 -101.5t-121.5 -40.5q-58 0 -97.5 26.5t-39.5 70.5q0 31 18 54t43 37l8 -7q-5 -16 -8.5 -32t-2.5 -35q3 -37 27.5 -59t61.5 -22q36 0 60.5 22t24.5 63q0 31 -16 55.5t-40 47.5t-48 47t-40 52.5t-16 65.5t20 66.5t55 46.5t78 17q59 0 92 -25.5 t33 -61.5q0 -29 -16 -54t-37 -39l-9 6q7 37 6 63q-5 80 -72 80q-33 0 -56 -22.5t-23 -58.5q0 -30 16.5 -55.5t40 -49l47.5 -47.5t40 -50.5t16 -59.5zM201 -158q0 -28 -16.5 -60.5t-44.5 -62t-63 -48.5l-8 8q25 27 40.5 53t24.5 55q-16 2 -26 13t-10 29q0 26 18 43.5t43 17.5 q19 0 30.5 -13t11.5 -35z" />
<glyph unicode="&#x21a;" horiz-adv-x="572" d="M320 43l79 -23l-4 -20h-238l-2 20l59 15q17 5 25 12.5t12 23.5l10 44v0l113 534h-61q-28 0 -57.5 -2.5t-50.5 -6.5q-10 -16 -20.5 -36t-24.5 -49l-26 -51h-19q3 45 14 94.5t26 87.5h530q-2 -38 -13 -89.5t-25 -92.5h-19l-5 51q-1 28 -3.5 48.5t-4.5 36.5q-20 4 -48.5 6.5 t-56.5 2.5h-61l-113 -534zM295 -158q0 -28 -16.5 -60.5t-45 -62t-62.5 -48.5l-8 8q24 27 40 53t25 55q-16 2 -26.5 13t-10.5 29q0 26 18 43.5t43 17.5q19 0 31 -13t12 -35z" />
<glyph unicode="&#x21b;" horiz-adv-x="344" d="M186 -10q-38 0 -58.5 26.5t-20.5 71.5q0 14 1.5 30t4.5 33l65 302h-82l2 14l88 26l89 146l15 -1l-32 -150h148l-8 -35h-148l-63 -296q-6 -30 -6 -55q0 -58 43 -58q32 0 67 26t72 69l8 -6q-32 -59 -79 -101t-106 -42zM222 -158q0 -28 -16.5 -60.5t-44.5 -62t-63 -48.5 l-8 8q25 27 40.5 53t24.5 55q-16 2 -26 13t-10 29q0 26 18 43.5t43 17.5q19 0 30.5 -13t11.5 -35z" />
<glyph unicode="&#x232;" horiz-adv-x="634" d="M333 819l11 45h273l-11 -45h-273zM347 43l79 -23l-4 -20h-238l-2 20l59 15q17 5 25.5 12.5t11.5 23.5l10 44v0l17 79q9 43 8 101t-10 118.5t-24 112t-33.5 83.5t-37.5 32t-42 -28.5t-44 -61.5l-14 7q15 36 35.5 67.5t44.5 51t52 19.5q32 0 58 -32t45 -87t29.5 -123.5 t12.5 -142.5q36 76 75 145t76.5 123t72 85.5t62.5 31.5q23 0 38 -20t23 -51t11 -63l-16 -5q-10 36 -24 60t-34 24q-17 0 -42.5 -23t-55.5 -62.5t-60.5 -88t-57.5 -100.5t-47 -100.5t-29 -86.5l-14 -65z" />
<glyph unicode="&#x233;" horiz-adv-x="429" d="M189 643l10 46h257l-10 -46h-257zM166 506q82 0 82 -164q0 -66 -14 -153t-41 -171q94 90 143 200t49 219q0 37 -5 60q11 9 30 9q50 0 50 -71q0 -69 -32.5 -151t-95.5 -164.5t-156 -150.5q-24 -62 -56 -113.5t-71 -81.5t-84 -30q-37 0 -59.5 16t-22.5 40q0 12 6.5 21 t15.5 14q13 -18 29 -29t38 -11q36 0 64 28.5t49.5 76t38.5 104.5q17 59 28 120.5t16.5 115.5t5.5 89q0 62 -11.5 92t-30.5 30q-18 0 -39.5 -27t-43.5 -61l-9 6q13 32 32.5 63.5t43.5 52.5t50 21z" />
<glyph unicode="&#x237;" horiz-adv-x="258" d="M168 362q4 22 7 38t3 26q0 25 -18 25q-12 0 -27.5 -13.5t-32 -33.5t-32.5 -41l-8 6q14 30 35 61.5t47 53.5t54 22q29 0 42.5 -18t13.5 -48q0 -14 -3 -33t-8 -45l-76 -363q-25 -119 -81 -187t-133 -68q-42 0 -68 18.5t-26 45.5q0 12 6.5 21.5t15.5 13.5q15 -20 36.5 -36 t48.5 -16q49 0 76.5 49t47.5 142z" />
<glyph unicode="&#x259;" horiz-adv-x="398" d="M408 337q0 -65 -21 -126.5t-57 -111.5t-80.5 -79.5t-91.5 -29.5q-44 0 -68.5 23.5t-24.5 61.5q0 41 22 74.5t59.5 58t84.5 38.5t96 16q8 44 8 88q0 55 -16 87.5t-49 32.5q-30 0 -51.5 -18t-34.5 -47t-18 -62q-7 -3 -15 -5t-16 -2q-26 0 -26 26q0 31 24.5 64.5t64.5 56.5 t88 23q60 0 91 -45.5t31 -123.5zM132 71q0 -20 10 -32.5t29 -12.5q32 0 61.5 28.5t53 75.5t36.5 104q-55 -6 -98 -29.5t-67.5 -58.5t-24.5 -75z" />
<glyph unicode="&#x272;" horiz-adv-x="540" d="M71 369q14 29 35 61t46.5 54t53.5 22t41.5 -17.5t13.5 -45.5q0 -12 -3 -29.5t-11 -53t-22 -100.5q17 33 40 75t51 81t60 64.5t66 25.5t50 -23t16 -53q0 -23 -7 -59t-17.5 -78t-21.5 -83.5t-20 -75.5q-4 -21 -7 -37.5t-3 -25.5q0 -26 18 -26q12 0 27.5 13.5t32.5 33.5 t32 41l8 -6q-14 -29 -35 -61t-46.5 -54t-54.5 -22q-28 0 -42 18t-14 48q0 14 3 33t9 45q8 34 19 74.5t21.5 79.5t17.5 71.5t7 51.5q0 16 -7 26t-22 10q-19 0 -41 -20t-45 -52.5t-44 -70t-37.5 -73t-26.5 -60.5l-36 -172q-25 -119 -81 -187t-133 -68q-42 0 -68 18.5t-26 45.5 q0 12 6.5 21.5t15.5 13.5q15 -20 36.5 -36t48.5 -16q49 0 76.5 49t47.5 142l80 380q4 22 7 38t3 25q0 12 -3.5 19t-14.5 7q-17 0 -42.5 -28t-48.5 -60z" />
<glyph unicode="&#x2c6;" horiz-adv-x="457" d="M438 592l-16 -11q-22 26 -48 55.5t-55 55.5q-29 -24 -68.5 -55.5t-72.5 -55.5l-10 13q23 25 48 54.5t46.5 56t33.5 43.5l8 5h54q18 -32 39.5 -75t40.5 -86z" />
<glyph unicode="&#x2c7;" horiz-adv-x="458" d="M332 586l-7 -5h-54q-17 32 -36 75t-37 87l16 10q21 -26 45 -55t49 -56q32 24 74.5 56t78.5 55l10 -12q-25 -25 -52 -54.5t-50.5 -56.5t-36.5 -44z" />
<glyph unicode="&#x2d8;" horiz-adv-x="428" d="M422 734l5 2l15 -3q-24 -63 -65 -99t-92 -36q-49 0 -72.5 37.5t-19.5 97.5l18 3q4 -37 27 -58t61 -21t70 20t53 57z" />
<glyph unicode="&#x2d9;" horiz-adv-x="284" d="M220 607q-18 0 -29.5 11t-11.5 31q0 29 18.5 50t43.5 21q18 0 29.5 -11t11.5 -30q0 -30 -18.5 -51t-43.5 -21z" />
<glyph unicode="&#x2da;" horiz-adv-x="414" d="M359 683q0 -39 -31.5 -66.5t-77.5 -27.5q-32 0 -51 17t-19 47q0 38 31.5 65t76.5 27q32 0 51.5 -17t19.5 -45zM222 653q0 -17 9.5 -27t26.5 -10q24 0 41 19t17 46q0 17 -10 27t-26 10q-24 0 -41 -19t-17 -46z" />
<glyph unicode="&#x2db;" horiz-adv-x="381" d="M219 0q-57 -23 -91.5 -61t-34.5 -72q0 -17 8.5 -26t19.5 -9q21 0 42.5 19.5t40.5 42.5l8 -6q-11 -27 -28.5 -52.5t-40.5 -42t-52 -16.5q-34 0 -50 19t-16 51t22.5 65t62.5 60.5t93 43.5z" />
<glyph unicode="&#x2dc;" horiz-adv-x="524" d="M253 675q-10 -5 -27 -22t-42 -45l-10 5q22 56 51.5 86.5t67.5 30.5q29 0 57 -14.5t54 -29.5t49 -16q11 5 27.5 22t42.5 45l9 -5q-22 -56 -51.5 -86.5t-67.5 -30.5q-29 0 -58 14.5t-55 29.5t-47 16z" />
<glyph unicode="&#x2dd;" horiz-adv-x="547" d="M335 756l8 3q3 0 6 -0.5t5 -0.5q36 -4 36 -28q0 -16 -20 -36.5t-52 -42t-70 -41t-74 -33.5l-9 15q35 27 68 57.5t60 58t42 48.5zM502 756l7 3h6t5 -1q36 -4 36 -28q0 -16 -20 -36.5t-52 -42t-70 -41t-73 -33.5l-10 15q35 27 68.5 57.5t60 58t42.5 48.5z" />
<glyph unicode="&#x326;" horiz-adv-x="288" d="M108 -158q0 -28 -16.5 -60.5t-44.5 -62t-62 -48.5l-8 8q24 27 39.5 53t25.5 55q-17 2 -27 13t-10 29q0 26 18 43.5t43 17.5q19 0 30.5 -13t11.5 -35z" />
<glyph unicode="&#x394;" horiz-adv-x="607" d="M568 0h-550l-1 10l398 676h45l110 -676zM76 38h409l-88 551z" />
<glyph unicode="&#x3bc;" horiz-adv-x="566" d="M113 -232q-3 -16 -23.5 -19t-48.5 -5l-5 7q5 28 17 79t28 116.5t33.5 138.5t35 144.5t31.5 133.5q10 41 17 75.5t13 60.5l32 4q6 1 16 2t15 1q8 0 8.5 -6.5t-1.5 -15.5q-19 -89 -39.5 -169t-34.5 -139t-14 -87q0 -17 6.5 -27.5t22.5 -10.5q18 0 40 19.5t45.5 51t45 69 t40 75.5t29.5 70l7 27h1l28 136l32 4q7 1 16.5 2t14.5 1q9 0 9 -6.5t-1 -15.5l-27 -121l-50 -229q-4 -21 -7 -37.5t-3 -25.5q0 -26 18 -26q12 0 27.5 13.5t32 33.5t32.5 41l8 -6q-14 -29 -35 -61t-47 -54t-54 -22q-29 0 -42.5 18t-13.5 48q0 14 3 33t8 45l22 99 q-11 -29 -31.5 -70t-46.5 -80.5t-56 -66t-62 -26.5q-16 0 -31.5 12.5t-16.5 45.5h-2q-2 -34 -9 -90t-20 -118q-2 -15 -5.5 -33t-7.5 -39z" />
<glyph unicode="&#x3c0;" horiz-adv-x="636" d="M204 47q-15 -32 -28 -44.5t-33 -12.5q-17 0 -31 5l-6 8q46 74 90 187.5t84 251.5q-37 1 -76 1q-30 0 -48 -14t-39 -47l-20 2q11 32 24.5 63t28.5 58q28 3 58.5 4t61.5 1q19 0 55.5 -1t81.5 -3t89 -3.5t78 -3t48 -1.5q30 0 43.5 8.5t27.5 28.5l19 -2q-11 -25 -25 -53.5 t-28 -52.5q-59 4 -112 7q-34 -121 -53.5 -214t-19.5 -137q0 -38 21 -38q12 0 27.5 13.5t32 33.5t31.5 41l9 -6q-14 -29 -34 -61t-45 -54t-52 -22q-29 0 -42.5 19.5t-13.5 50.5q0 30 7.5 74t20 96t27 105t28.5 101q-41 2 -80.5 3.5t-76.5 2.5q-27 -99 -52.5 -180t-46 -136.5 t-31.5 -78.5z" />
<glyph unicode="&#x1e0c;" horiz-adv-x="671" d="M329 572l-97 -457l-17 -79h62q78 0 139.5 33.5t104.5 90t66 128t23 148.5q0 98 -52 156t-158 58h-54zM293 -223q-18 0 -29.5 11t-11.5 31q0 29 18.5 50t43.5 21q18 0 29.5 -11t11.5 -30q0 -30 -18.5 -51t-43.5 -21zM276 0h-223l-2 20l59 15q18 5 26 12.5t12 23.5l9 44 l97 457v0l15 71l-78 23l4 20h220q84 0 145.5 -31t95 -88.5t33.5 -136.5q0 -81 -27.5 -158t-80 -138.5t-129.5 -97.5t-176 -36z" />
<glyph unicode="&#x1e0d;" horiz-adv-x="501" d="M405 134q-5 -21 -8 -37.5t-3 -25.5q0 -26 18 -26q12 0 27.5 13.5t32.5 33.5t32 41l9 -6q-14 -29 -35 -61t-47 -54t-54 -22q-29 0 -43 18t-14 48q0 14 3.5 33t8.5 45l26 116q-18 -39 -42 -84t-53 -85t-59.5 -65.5t-60.5 -25.5q-35 0 -57 31.5t-22 90.5q0 77 23.5 148 t65 126.5t95.5 87.5t114 32q25 0 51 -4l30 129l14 67l-93 17v11q23 6 53.5 11.5t61 10t54.5 7.5l8 -8l-26 -116zM139 120q0 -30 9 -49.5t25 -19.5q19 0 43 23.5t49 61t48 80t41 82t27 66.5l20 89q-28 19 -66 19q-36 0 -70.5 -29.5t-63 -79.5t-45.5 -113t-17 -130zM221 -223 q-17 0 -29 11t-12 31q0 29 18.5 50t43.5 21q18 0 29.5 -11t11.5 -30q0 -30 -18 -51t-44 -21z" />
<glyph unicode="&#x1e24;" horiz-adv-x="760" d="M216 43l79 -23l-4 -20h-238l-2 20l59 15q17 5 25 12.5t12 23.5l10 44v0l96 457l16 71l-78 23l4 20h237l2 -20l-59 -15q-16 -5 -24.5 -12.5t-11.5 -23.5l-11 -43h1l-43 -204h321l43 204l16 71l-78 23l4 20h237l2 -20l-59 -15q-16 -5 -24.5 -12.5t-12.5 -23.5l-10 -43h1 l-97 -457l-16 -72l79 -23l-4 -20h-238l-2 20l59 15q16 5 24.5 12.5t12.5 23.5l10 44v0l45 213h-322l-45 -213zM330 -223q-18 0 -29.5 11t-11.5 31q0 29 18.5 50t43.5 21q18 0 29.5 -11t11.5 -30q0 -30 -18.5 -51t-43.5 -21z" />
<glyph unicode="&#x1e25;" horiz-adv-x="510" d="M74 13l26 121l108 498l15 68l-74 16v10q35 10 74.5 17.5t75.5 12.5l8 -8l-26 -116q-21 -95 -43.5 -189t-46.5 -188q60 122 114 186.5t108 64.5q34 0 50 -23t16 -53q0 -23 -7 -59t-18 -78t-22 -83.5t-20 -75.5q-4 -21 -7 -37.5t-3 -25.5q0 -26 18 -26q12 0 27.5 13.5 t32.5 33.5t32 41l8 -6q-14 -29 -35 -61t-46.5 -54t-54.5 -22t-42.5 18t-13.5 48q0 14 3 33t9 45q8 34 18.5 74.5t21 79.5t17.5 71.5t7 51.5q0 16 -6.5 26t-21.5 10q-19 0 -41.5 -20.5t-45.5 -53.5t-44.5 -71t-38 -73.5t-26.5 -60.5l-7 -34l-29 -136l-32 -4q-6 -1 -16 -2 t-15 -1q-9 0 -9 6.5t2 15.5zM212 -223q-18 0 -29.5 11t-11.5 31q0 29 18.5 50t43.5 21q18 0 29.5 -11t11.5 -30q0 -30 -18 -51t-44 -21z" />
<glyph unicode="&#x1e44;" horiz-adv-x="722" d="M585 851q0 -26 -19 -45.5t-45 -19.5q-45 0 -45 42q0 25 19 44t45 19q22 0 33.5 -10.5t11.5 -29.5zM182 44l96 -23l-5 -21h-223l-3 21l61 15q19 5 27 12t12 23l10 44l111 526l-80 24l5 21h141l236 -575l97 461l16 70l-85 23l4 21h213l2 -21l-60 -15q-19 -5 -27.5 -12 t-11.5 -23l-10 -43l-121 -572h-50l-240 583l-99 -468z" />
<glyph unicode="&#x1e45;" horiz-adv-x="540" d="M395 607q-18 0 -29.5 11t-11.5 31q0 29 18.5 50t43.5 21q18 0 29.5 -11t11.5 -30q0 -30 -18.5 -51t-43.5 -21zM104 13l26 121q13 58 25.5 115t24.5 112q10 46 10 64q0 26 -17 26q-18 0 -43.5 -28t-48.5 -60l-9 6q14 29 35 61t46.5 54t53.5 22t41.5 -17.5t13.5 -45.5 q0 -23 -11.5 -74t-24.5 -108q17 33 40 75t51 80.5t59.5 64t65.5 25.5t50 -23t16 -53q0 -23 -7 -59t-17.5 -78t-21.5 -83.5t-20 -75.5q-4 -21 -7 -37.5t-3 -25.5q0 -26 18 -26q12 0 27.5 13.5t32.5 33.5t32 41l8 -6q-14 -29 -35 -61t-46.5 -54t-54.5 -22q-28 0 -42 18t-14 48 q0 14 3 33t9 45q8 34 19 74.5t21.5 79.5t17.5 71.5t7 51.5q0 16 -7 26t-22 10q-19 0 -41 -20.5t-45 -53t-44.5 -70.5t-38 -73t-26.5 -61l-8 -35l-29 -136l-32 -4q-6 -1 -16 -2t-15 -1q-8 0 -8.5 6.5t1.5 15.5z" />
<glyph unicode="&#x1e5a;" horiz-adv-x="634" d="M329 572l-51 -239h56q71 0 117.5 28t69.5 72.5t23 93.5q0 57 -37 88.5t-102 31.5h-60zM317 -223q-18 0 -29.5 11t-11.5 31q0 29 18.5 50t43.5 21q18 0 29.5 -11t11.5 -30q0 -30 -18.5 -51t-43.5 -21zM216 43l79 -23l-4 -20h-238l-2 20l59 15q17 5 25 12.5t12 23.5l10 44 v0l97 457l15 71l-78 23l4 20h218q99 0 154 -42t55 -117q0 -74 -46.5 -129t-117.5 -81l59 -182q16 -47 33.5 -70.5t47.5 -34.5l28 -10l-4 -20l-74 -1q-42 0 -60.5 17t-28.5 51l-73 232q-23 -4 -48 -4h-68l-38 -180z" />
<glyph unicode="&#x1e5b;" horiz-adv-x="408" d="M104 13l26 121q20 91 32 146.5t18 84.5t8 42t2 18q0 26 -17 26q-18 0 -43.5 -28t-48.5 -60l-9 6q14 29 35 61t46.5 54t53.5 22t41.5 -17.5t13.5 -45.5q0 -20 -10.5 -68t-23.5 -102q18 37 39 77.5t45 76t51 57.5t56 22q24 0 36.5 -12.5t12.5 -30.5q0 -21 -8.5 -39 t-16.5 -27q-11 12 -24.5 21t-31.5 9q-20 0 -43 -22t-45.5 -56t-41.5 -71.5t-31.5 -68t-15.5 -44.5l-7 -31l-29 -136l-32 -4q-6 -1 -16 -2t-15 -1q-8 0 -8.5 6.5t1.5 15.5zM95 -223q-17 0 -28.5 11t-11.5 31q0 29 18 50t44 21q17 0 28.5 -11t11.5 -30q0 -30 -18 -51t-44 -21z " />
<glyph unicode="&#x1e62;" horiz-adv-x="465" d="M215 -10q-39 0 -74.5 5.5t-59 14.5t-28.5 19q-4 8 -4 21q0 26 11 62.5t28 68.5l19 -1q0 -10 -0.5 -18.5t-0.5 -15.5q0 -33 4.5 -52t13.5 -32q15 -20 41.5 -27.5t55.5 -7.5q46 0 80 20.5t53 53.5t19 71q0 36 -16.5 64.5t-43 52.5t-56 47t-55.5 48.5t-42.5 56.5t-16.5 72 q0 54 31.5 95.5t83 64.5t110.5 23q61 0 98.5 -12.5t46.5 -23.5q5 -5 5 -14q0 -15 -6 -40t-15.5 -51.5t-20.5 -46.5h-19q1 12 1.5 22t0.5 19q0 54 -13 74q-12 17 -33 26t-55 9q-40 0 -71.5 -17.5t-50 -47.5t-18.5 -66q0 -34 16.5 -61.5t43 -51t56 -47t55.5 -49.5t42.5 -58 t16.5 -72q0 -53 -28 -98t-80 -72.5t-125 -27.5zM191 -223q-18 0 -29.5 11t-11.5 31q0 29 18.5 50t43.5 21q18 0 29.5 -11t11.5 -30q0 -30 -18.5 -51t-43.5 -21z" />
<glyph unicode="&#x1e63;" horiz-adv-x="381" d="M353 132q0 -61 -44.5 -101.5t-121.5 -40.5q-58 0 -97.5 26.5t-39.5 70.5q0 31 18 54t43 37l8 -7q-5 -16 -8.5 -32t-2.5 -35q3 -37 27.5 -59t61.5 -22q36 0 60.5 22t24.5 63q0 31 -16 55.5t-40 47.5t-48 47t-40 52.5t-16 65.5t20 66.5t55 46.5t78 17q59 0 92 -25.5 t33 -61.5q0 -29 -16 -54t-37 -39l-9 6q7 37 6 63q-5 80 -72 80q-33 0 -56 -22.5t-23 -58.5q0 -30 16.5 -55.5t40 -49l47.5 -47.5t40 -50.5t16 -59.5zM142 -223q-18 0 -29.5 11t-11.5 31q0 29 18.5 50t43.5 21q18 0 29.5 -11t11.5 -30q0 -30 -18.5 -51t-43.5 -21z" />
<glyph unicode="&#x1e6c;" horiz-adv-x="572" d="M320 43l79 -23l-4 -20h-238l-2 20l59 15q17 5 25 12.5t12 23.5l10 44v0l113 534h-61q-28 0 -57.5 -2.5t-50.5 -6.5q-10 -16 -20.5 -36t-24.5 -49l-26 -51h-19q3 45 14 94.5t26 87.5h530q-2 -38 -13 -89.5t-25 -92.5h-19l-5 51q-1 28 -3.5 48.5t-4.5 36.5q-20 4 -48.5 6.5 t-56.5 2.5h-61l-113 -534zM237 -223q-18 0 -29.5 11t-11.5 31q0 29 18.5 50t43.5 21q18 0 29.5 -11t11.5 -30q0 -30 -18.5 -51t-43.5 -21z" />
<glyph unicode="&#x1e6d;" horiz-adv-x="344" d="M186 -10q-38 0 -58.5 26.5t-20.5 71.5q0 14 1.5 30t4.5 33l65 302h-82l2 14l88 26l89 146l15 -1l-32 -150h148l-8 -35h-148l-63 -296q-6 -30 -6 -55q0 -58 43 -58q32 0 67 26t72 69l8 -6q-32 -59 -79 -101t-106 -42zM161 -223q-17 0 -28.5 11t-11.5 31q0 29 18 50t44 21 q17 0 28.5 -11t11.5 -30q0 -30 -18 -51t-44 -21z" />
<glyph unicode="&#x1e80;" horiz-adv-x="1011" d="M761 795l-10 -16q-27 2 -63.5 9t-71.5 19t-57.5 27t-22.5 33q0 17 15 27.5t28 15.5l8 -1q14 -17 41.5 -37.5t62 -40.5t70.5 -36zM336 0h-45l-66 611q-3 20 -9.5 28.5t-21.5 12.5l-51 14l2 20h232l4 -20l-86 -22l57 -538l237 435l-9 70q-2 20 -8.5 28.5t-21.5 12.5l-52 14 l3 20h232l4 -20l-86 -22l64 -538l286 538l-82 22l4 20h205l3 -20l-56 -16q-18 -4 -28 -13t-19 -25l-329 -612h-45l-57 475z" />
<glyph unicode="&#x1e81;" horiz-adv-x="654" d="M508 589l-13 -12q-38 23 -75 50.5t-60.5 54t-20.5 45.5q2 15 15.5 23t34.5 8h6h5l7 -4q12 -31 40 -76.5t61 -88.5zM697 459q0 -28 -16.5 -71t-44.5 -94t-64.5 -104.5t-77 -103t-79.5 -88.5l-35 2q8 113 14 194t6 130v23q-33 -94 -89 -186t-127 -163l-34 2q8 113 14 194 t6 130q0 70 -8.5 98.5t-27.5 28.5q-20 0 -44.5 -27t-48.5 -61l-9 6q16 32 37 64t46.5 52.5t54.5 20.5q69 0 69 -129q0 -36 -3 -87t-7.5 -108.5t-11.5 -110.5q56 75 92.5 149.5t56.5 141t24 118.5q0 10 -2 19q6 3 13.5 5t17.5 2q28 0 39.5 -24.5t11.5 -92.5q0 -39 -3 -92.5 t-8 -112t-11 -113.5q49 66 88 137.5t62 138.5t23 120q0 16 -2 31q13 8 32 8q20 0 33 -11.5t13 -35.5z" />
<glyph unicode="&#x1e82;" horiz-adv-x="1011" d="M743 908l8 1q14 -6 25.5 -14.5t11.5 -22.5q0 -16 -22.5 -30.5t-60 -27.5t-82 -22.5t-89.5 -13.5l-5 16q66 29 123 58t91 56zM336 0h-45l-66 611q-3 20 -9.5 28.5t-21.5 12.5l-51 14l2 20h232l4 -20l-86 -22l57 -538l237 435l-9 70q-2 20 -8.5 28.5t-21.5 12.5l-52 14 l3 20h232l4 -20l-86 -22l64 -538l286 538l-82 22l4 20h205l3 -20l-56 -16q-18 -4 -28 -13t-19 -25l-329 -612h-45l-57 475z" />
<glyph unicode="&#x1e83;" horiz-adv-x="654" d="M504 756l8 3q2 0 5 -0.5t6 -0.5q40 -4 40 -28q0 -16 -20 -36.5t-53 -42t-71.5 -41t-75.5 -33.5l-9 15q34 27 67.5 57.5t60.5 58t42 48.5zM697 459q0 -28 -16.5 -71t-44.5 -94t-64.5 -104.5t-77 -103t-79.5 -88.5l-35 2q8 113 14 194t6 130v23q-33 -94 -89 -186t-127 -163 l-34 2q8 113 14 194t6 130q0 70 -8.5 98.5t-27.5 28.5q-20 0 -44.5 -27t-48.5 -61l-9 6q16 32 37 64t46.5 52.5t54.5 20.5q69 0 69 -129q0 -36 -3 -87t-7.5 -108.5t-11.5 -110.5q56 75 92.5 149.5t56.5 141t24 118.5q0 10 -2 19q6 3 13.5 5t17.5 2q28 0 39.5 -24.5 t11.5 -92.5q0 -39 -3 -92.5t-8 -112t-11 -113.5q49 66 88 137.5t62 138.5t23 120q0 16 -2 31q13 8 32 8q20 0 33 -11.5t13 -35.5z" />
<glyph unicode="&#x1e84;" horiz-adv-x="1011" d="M800 852q0 -25 -16.5 -44t-40.5 -19q-19 0 -31 11t-12 29q0 23 16.5 43t42.5 20q19 0 30 -11t11 -29zM597 852q0 -25 -17 -44t-40 -19q-20 0 -32 11t-12 29q0 23 16.5 43t42.5 20q19 0 30.5 -11t11.5 -29zM336 0h-45l-66 611q-3 20 -9.5 28.5t-21.5 12.5l-51 14l2 20h232 l4 -20l-86 -22l57 -538l237 435l-9 70q-2 20 -8.5 28.5t-21.5 12.5l-52 14l3 20h232l4 -20l-86 -22l64 -538l286 538l-82 22l4 20h205l3 -20l-56 -16q-18 -4 -28 -13t-19 -25l-329 -612h-45l-57 475z" />
<glyph unicode="&#x1e85;" horiz-adv-x="654" d="M592 678q0 -27 -16.5 -47t-38.5 -20q-18 0 -29.5 12t-11.5 32q0 24 16 44.5t40 20.5q18 0 29 -11.5t11 -30.5zM390 678q0 -27 -16.5 -47t-38.5 -20q-18 0 -29.5 12t-11.5 32q0 24 16 44.5t40 20.5q18 0 29 -11.5t11 -30.5zM697 459q0 -28 -16.5 -71t-44.5 -94 t-64.5 -104.5t-77 -103t-79.5 -88.5l-35 2q8 113 14 194t6 130v23q-33 -94 -89 -186t-127 -163l-34 2q8 113 14 194t6 130q0 70 -8.5 98.5t-27.5 28.5q-20 0 -44.5 -27t-48.5 -61l-9 6q16 32 37 64t46.5 52.5t54.5 20.5q69 0 69 -129q0 -36 -3 -87t-7.5 -108.5t-11.5 -110.5 q56 75 92.5 149.5t56.5 141t24 118.5q0 10 -2 19q6 3 13.5 5t17.5 2q28 0 39.5 -24.5t11.5 -92.5q0 -39 -3 -92.5t-8 -112t-11 -113.5q49 66 88 137.5t62 138.5t23 120q0 16 -2 31q13 8 32 8q20 0 33 -11.5t13 -35.5z" />
<glyph unicode="&#x1e92;" horiz-adv-x="588" d="M508 0h-451l1 35l499 615h-186q-27 0 -55 -1t-48 -3l-79 -142h-18q1 46 12 95.5t25 86.5h443l-1 -34l-499 -616h195q27 0 55 1t47 4l81 141h18q-2 -43 -13 -91.5t-26 -90.5zM256 -223q-18 0 -29.5 11t-11.5 31q0 29 18.5 50t43.5 21q18 0 29.5 -11t11.5 -30 q0 -30 -18.5 -51t-43.5 -21z" />
<glyph unicode="&#x1e93;" horiz-adv-x="405" d="M127 19q-45 0 -79 -29l-21 24q84 102 158.5 191t147.5 189q-39 16 -80 28t-65 12q-28 0 -47 -22t-43 -66l-11 5q19 72 37.5 113.5t59.5 41.5q40 0 86.5 -25.5t84.5 -55.5q29 40 56 81q33 -8 33 -35q0 -13 -6.5 -23.5t-21.5 -26.5q-50 -62 -98.5 -118.5t-99.5 -114 t-106 -121.5q14 5 30 7t34 2q16 0 43 -4.5t53 -8.5t40 -4t24.5 10t22.5 28q16 21 35 52l10 -5q-7 -20 -14.5 -42t-16.5 -42q-13 -30 -28 -50t-37 -20q-21 0 -54.5 7t-67.5 14.5t-59 7.5zM162 -223q-18 0 -29.5 11t-11.5 31q0 29 18.5 50t43.5 21q18 0 29.5 -11t11.5 -30 q0 -30 -18.5 -51t-43.5 -21z" />
<glyph unicode="&#x1e9e;" horiz-adv-x="648" d="M653 167q0 -83 -57.5 -130t-153.5 -47q-40 0 -76 10.5t-51 27.5q-4 4 -5 9.5t-1 12.5q0 24 11.5 61t27.5 64l19 -1q-2 -35 0 -64.5t11 -46.5q21 -36 77 -36q58 0 90.5 36t32.5 92q0 45 -24 79t-62.5 65.5t-82.5 68.5l3 24l193 191q-37 76 -117 76q-63 0 -113 -46 t-67 -124l-99 -468l-23 -21h-138l3 21l54 14q19 5 27.5 12.5t12.5 23.5l86 407q12 62 52 111.5t98.5 78t126.5 28.5q117 0 168 -83l-1 -24l-193 -188q41 -35 80.5 -69t65 -74t25.5 -91z" />
<glyph unicode="&#x1ea0;" horiz-adv-x="666" d="M445 688h45l75 -613q3 -19 9.5 -28t21.5 -13l51 -14l-2 -20h-232l-4 20l86 22l-25 200l-232 -4l-107 -195l81 -23l-4 -20h-203l-2 20l56 16q17 4 27 13t20 26zM259 276l207 -1l-37 311zM269 -223q-17 0 -28.5 11t-11.5 31q0 29 18 50t44 21q17 0 28.5 -11t11.5 -30 q0 -30 -18 -51t-44 -21z" />
<glyph unicode="&#x1ea1;" horiz-adv-x="501" d="M405 134q-5 -21 -8 -37.5t-3 -25.5q0 -26 18 -26q12 0 27.5 13.5t32.5 33.5t32 41l9 -6q-14 -29 -35 -61t-47 -54t-54 -22q-29 0 -43 18t-14 48q0 14 3.5 33t8.5 45l25 113v0q-18 -39 -42.5 -83.5t-52.5 -84t-58.5 -64.5t-60.5 -25q-35 0 -57 31.5t-22 90.5 q0 77 23.5 148t65 126.5t95.5 87.5t114 32q35 0 66.5 -7.5t54.5 -18.5l-6 -19zM139 120q0 -30 9 -49.5t25 -19.5q19 0 43 23.5t49 60.5t48 79.5t41 82.5t27 67l20 89q-28 19 -66 19q-36 0 -70.5 -29.5t-63 -79.5t-45.5 -113t-17 -130zM212 -223q-18 0 -29.5 11t-11.5 31 q0 29 18.5 50t43.5 21q18 0 29.5 -11t11.5 -30q0 -30 -18.5 -51t-43.5 -21z" />
<glyph unicode="&#x1eb8;" horiz-adv-x="581" d="M329 572l-45 -210l206 5l-11 -46l-202 6l-45 -212l-17 -81h137q28 0 55.5 1.5t46.5 3.5q16 29 33.5 62.5t44.5 80.5h19q-3 -39 -14 -91.5t-26 -90.5h-458l-2 20l59 15q18 5 26 12.5t12 23.5l9 44l97 457l15 71l-78 23l4 20h433q-1 -39 -12.5 -89t-25.5 -93h-19 q-6 47 -10 80.5t-8 62.5q-16 1 -44 2.5t-56 1.5h-107zM273 -223q-18 0 -29.5 11t-11.5 31q0 29 18 50t44 21q17 0 28.5 -11t11.5 -30q0 -30 -18 -51t-43 -21z" />
<glyph unicode="&#x1eb9;" horiz-adv-x="383" d="M379 133q-34 -62 -81.5 -102.5t-103.5 -40.5q-60 0 -90.5 45.5t-30.5 124.5q0 64 21 126t56.5 111.5t80 79t91.5 29.5q44 0 69 -24.5t25 -64.5q0 -41 -22 -74.5t-59.5 -58t-84.5 -38.5t-97 -15l2 14q-7 -41 -7 -80q0 -56 20.5 -88.5t58.5 -32.5q33 0 69.5 25.5t74.5 69.5 zM310 470q-32 0 -62.5 -29t-54 -77t-35.5 -105q55 5 98 28.5t68 59t25 76.5q0 21 -10 34t-29 13zM158 -223q-18 0 -29.5 11t-11.5 31q0 29 18.5 50t43.5 21q18 0 29.5 -11t11.5 -30q0 -30 -18.5 -51t-43.5 -21z" />
<glyph unicode="&#x1ebc;" horiz-adv-x="581" d="M355 845q-11 -5 -29.5 -21.5t-47.5 -43.5l-10 5q23 56 52.5 86t69.5 30q31 0 63.5 -14t62.5 -29t56 -16q12 5 30.5 21.5t46.5 43.5l10 -6q-22 -55 -52 -85.5t-71 -30.5q-30 0 -62 14.5t-62.5 29.5t-56.5 16zM329 572l-45 -210l206 5l-11 -46l-202 6l-45 -212l-17 -81h137 q28 0 55.5 1.5t46.5 3.5q16 29 33.5 62.5t44.5 80.5h19q-3 -39 -14 -91.5t-26 -90.5h-458l-2 20l59 15q18 5 26 12.5t12 23.5l9 44l97 457l15 71l-78 23l4 20h433q-1 -39 -12.5 -89t-25.5 -93h-19q-6 47 -10 80.5t-8 62.5q-16 1 -44 2.5t-56 1.5h-107z" />
<glyph unicode="&#x1ebd;" horiz-adv-x="383" d="M235 675q-10 -5 -27 -22t-43 -45l-9 5q22 56 51.5 86.5t67.5 30.5q29 0 57 -14.5t54 -29.5t49 -16q10 5 27 22t43 45l9 -5q-22 -56 -51.5 -86.5t-67.5 -30.5q-29 0 -58 14.5t-55 29.5t-47 16zM379 133q-34 -62 -81.5 -102.5t-103.5 -40.5q-60 0 -90.5 45.5t-30.5 124.5 q0 64 21 126t56.5 111.5t80 79t91.5 29.5q44 0 69 -24.5t25 -64.5q0 -41 -22 -74.5t-59.5 -58t-84.5 -38.5t-97 -15l2 14q-7 -41 -7 -80q0 -56 20.5 -88.5t58.5 -32.5q33 0 69.5 25.5t74.5 69.5zM310 470q-32 0 -62.5 -29t-54 -77t-35.5 -105q55 5 98 28.5t68 59t25 76.5 q0 21 -10 34t-29 13z" />
<glyph unicode="&#x1eca;" horiz-adv-x="365" d="M216 43l79 -23l-4 -20h-238l-2 20l59 15q17 5 25 12.5t12 23.5l10 44v0l96 457l16 71l-78 23l4 20h237l2 -20l-59 -15q-16 -5 -24.5 -12.5t-11.5 -23.5l-11 -43h1l-97 -457zM123 -223q-18 0 -29.5 11t-11.5 31q0 29 18.5 50t43.5 21q18 0 29.5 -11t11.5 -30 q0 -30 -18.5 -51t-43.5 -21z" />
<glyph unicode="&#x1ecb;" horiz-adv-x="287" d="M259 607q-18 0 -29.5 11t-11.5 31q0 29 18.5 50t43.5 21q18 0 29.5 -11t11.5 -30q0 -30 -18.5 -51t-43.5 -21zM199 134q-4 -21 -7 -37.5t-3 -25.5q0 -26 17 -26q12 0 28 13.5t32.5 33.5t31.5 41l9 -6q-14 -29 -35 -61t-47 -54t-54 -22q-29 0 -42.5 18t-13.5 48q0 14 3 33 t8 45q11 52 26.5 114.5t27.5 113.5q4 22 7 38t3 26q0 25 -18 25q-11 0 -27 -13.5t-32.5 -33.5t-31.5 -41l-9 6q14 30 35 61.5t47 53.5t54 22q29 0 42.5 -18t13.5 -48q0 -14 -3 -33t-8 -45q-12 -53 -27.5 -115.5t-26.5 -112.5zM117 -223q-17 0 -28.5 11t-11.5 31q0 29 18 50 t44 21q17 0 28.5 -11t11.5 -30q0 -30 -18 -51t-44 -21z" />
<glyph unicode="&#x1ecc;" horiz-adv-x="605" d="M626 451q0 -61 -15 -125.5t-43.5 -124.5t-68 -107.5t-89.5 -75.5t-109 -28q-60 0 -104.5 30t-69.5 84.5t-25 129.5q0 63 15.5 128.5t44 125.5t69.5 107t91.5 74t108.5 27q92 0 143.5 -66.5t51.5 -178.5zM181 214q0 -81 32 -132.5t95 -51.5q44 0 81 28.5t66 77t49.5 107.5 t31.5 119.5t11 114.5q0 82 -28.5 131t-93.5 49q-44 0 -81.5 -28t-67.5 -75t-51.5 -105t-32.5 -119t-11 -116zM247 -223q-18 0 -29.5 11t-11.5 31q0 29 18 50t44 21q18 0 29.5 -11t11.5 -30q0 -30 -18.5 -51t-43.5 -21z" />
<glyph unicode="&#x1ecd;" horiz-adv-x="433" d="M439 329q0 -72 -19 -133.5t-51 -108t-73 -72t-85 -25.5q-61 0 -98 49.5t-37 130.5q0 67 19 127.5t51.5 107.5t73.5 74t85 27q66 0 100 -48t34 -129zM151 155q0 -60 17.5 -95t49.5 -35q30 0 56.5 29.5t46.5 78t31.5 105.5t11.5 112q0 54 -14.5 87.5t-49.5 33.5 q-30 0 -57 -29.5t-48 -77t-32.5 -102.5t-11.5 -107zM165 -223q-17 0 -28.5 11t-11.5 31q0 29 18 50t44 21q17 0 28.5 -11t11.5 -30q0 -30 -18 -51t-44 -21z" />
<glyph unicode="&#x1ee4;" horiz-adv-x="668" d="M601 240q-27 -127 -93 -188.5t-166 -61.5q-86 0 -141 48t-55 135q0 16 1.5 35.5t5.5 40.5l69 323l16 71l-79 23l4 20h238l2 -20l-59 -15q-17 -5 -25 -12.5t-12 -23.5l-10 -43v0l-69 -327q-4 -18 -5.5 -35t-1.5 -33q0 -70 39 -108t102 -38q68 0 121 50.5t76 158.5l72 334 l15 68l-85 23l4 21h213l2 -21l-94 -23l-15 -68zM294 -223q-17 0 -28.5 11t-11.5 31q0 29 18 50t44 21q17 0 28.5 -11t11.5 -30q0 -30 -18 -51t-44 -21z" />
<glyph unicode="&#x1ee5;" horiz-adv-x="547" d="M187 362q4 22 7 38t3 26q0 25 -18 25q-12 0 -27.5 -13.5t-32 -33.5t-32.5 -41l-8 6q14 30 35 61.5t47 53.5t54 22q29 0 42.5 -18t13.5 -48q0 -14 -3 -33t-8 -45q-9 -36 -19.5 -76t-21 -78.5t-17 -69.5t-6.5 -49q0 -17 6.5 -27.5t19.5 -10.5q17 0 38.5 19.5t44.5 51t45 69 t40.5 75.5t30.5 70l6 27h1l29 136l31 4q7 1 17 2t15 1q8 0 8 -6.5t-1 -15.5l-27 -121l-50 -229q-4 -21 -7 -37.5t-3 -25.5q0 -26 18 -26q12 0 27.5 13.5t32.5 33.5t32 41l8 -6q-14 -29 -35 -61t-46.5 -54t-54.5 -22t-42.5 18t-13.5 48q0 14 3 33t9 45l22 100v0 q-14 -29 -36 -70.5t-50.5 -81t-60.5 -66t-64 -26.5q-33 0 -50 23t-17 58q0 22 7 57t17.5 75.5t21 81.5t19.5 77zM251 -222q-17 0 -28.5 11t-11.5 31q0 29 18 50t44 21q17 0 28.5 -11t11.5 -30q0 -30 -18 -51t-44 -21z" />
<glyph unicode="&#x1ef2;" horiz-adv-x="634" d="M577 795l-11 -16q-26 2 -62.5 9t-71.5 19t-58 27t-22 33q0 17 15 27.5t28 15.5l7 -1q15 -17 42.5 -37.5t62 -40.5t70.5 -36zM347 43l79 -23l-4 -20h-238l-2 20l59 15q17 5 25.5 12.5t11.5 23.5l10 44v0l17 79q9 43 8 101t-10 118.5t-24 112t-33.5 83.5t-37.5 32 t-42 -28.5t-44 -61.5l-14 7q15 36 35.5 67.5t44.5 51t52 19.5q32 0 58 -32t45 -87t29.5 -123.5t12.5 -142.5q36 76 75 145t76.5 123t72 85.5t62.5 31.5q23 0 38 -20t23 -51t11 -63l-16 -5q-10 36 -24 60t-34 24q-17 0 -42.5 -23t-55.5 -62.5t-60.5 -88t-57.5 -100.5 t-47 -100.5t-29 -86.5l-14 -65z" />
<glyph unicode="&#x1ef3;" horiz-adv-x="429" d="M376 589l-13 -12q-38 23 -75 50.5t-60 54t-21 45.5q2 15 16 23t35 8h5h6l6 -4q12 -31 40 -76.5t61 -88.5zM166 506q82 0 82 -164q0 -66 -14 -153t-41 -171q94 90 143 200t49 219q0 37 -5 60q11 9 30 9q50 0 50 -71q0 -69 -32.5 -151t-95.5 -164.5t-156 -150.5 q-24 -62 -56 -113.5t-71 -81.5t-84 -30q-37 0 -59.5 16t-22.5 40q0 12 6.5 21t15.5 14q13 -18 29 -29t38 -11q36 0 64 28.5t49.5 76t38.5 104.5q17 59 28 120.5t16.5 115.5t5.5 89q0 62 -11.5 92t-30.5 30q-18 0 -39.5 -27t-43.5 -61l-9 6q13 32 32.5 63.5t43.5 52.5t50 21z " />
<glyph unicode="&#x1ef8;" horiz-adv-x="634" d="M360 845q-11 -4 -29.5 -20.5t-47.5 -43.5l-10 5q23 55 52.5 85.5t70.5 30.5q31 0 63 -14.5t62.5 -29t55.5 -15.5q12 5 30.5 21.5t46.5 43.5l11 -6q-23 -55 -53 -85.5t-71 -30.5q-30 0 -62 14.5t-62.5 29.5t-56.5 15zM347 43l79 -23l-4 -20h-238l-2 20l59 15 q17 5 25.5 12.5t11.5 23.5l10 44v0l17 79q9 43 8 101t-10 118.5t-24 112t-33.5 83.5t-37.5 32t-42 -28.5t-44 -61.5l-14 7q15 36 35.5 67.5t44.5 51t52 19.5q32 0 58 -32t45 -87t29.5 -123.5t12.5 -142.5q36 76 75 145t76.5 123t72 85.5t62.5 31.5q23 0 38 -20t23 -51 t11 -63l-16 -5q-10 36 -24 60t-34 24q-17 0 -42.5 -23t-55.5 -62.5t-60.5 -88t-57.5 -100.5t-47 -100.5t-29 -86.5l-14 -65z" />
<glyph unicode="&#x1ef9;" horiz-adv-x="429" d="M227 675q-10 -5 -27 -22t-42 -45l-10 5q22 56 51.5 86.5t68.5 30.5q28 0 56 -14.5t54 -29.5t49 -16q11 5 27.5 22t42.5 45l9 -5q-21 -56 -51 -86.5t-68 -30.5q-29 0 -58 14.5t-55 29.5t-47 16zM166 506q82 0 82 -164q0 -66 -14 -153t-41 -171q94 90 143 200t49 219 q0 37 -5 60q11 9 30 9q50 0 50 -71q0 -69 -32.5 -151t-95.5 -164.5t-156 -150.5q-24 -62 -56 -113.5t-71 -81.5t-84 -30q-37 0 -59.5 16t-22.5 40q0 12 6.5 21t15.5 14q13 -18 29 -29t38 -11q36 0 64 28.5t49.5 76t38.5 104.5q17 59 28 120.5t16.5 115.5t5.5 89 q0 62 -11.5 92t-30.5 30q-18 0 -39.5 -27t-43.5 -61l-9 6q13 32 32.5 63.5t43.5 52.5t50 21z" />
</font>
</defs>
</svg>
