<?xml version="1.0" standalone="no"?>
<!DOCTYPE svg PUBLIC "-//W3C//DTD SVG 1.1//EN" "http://www.w3.org/Graphics/SVG/1.1/DTD/svg11.dtd" >
<svg xmlns="http://www.w3.org/2000/svg" xmlns:xlink="http://www.w3.org/1999/xlink" version="1.1">
<metadata></metadata>
<defs>
<font id="indivisa_text_serifLtIt" horiz-adv-x="560" >
<font-face units-per-em="1000" ascent="800" descent="-200" />
<missing-glyph horiz-adv-x="250" />
<glyph unicode="ff" horiz-adv-x="544" d="M138 -8q-24 -112 -72 -179.5t-119 -67.5q-37 0 -61 18t-24 42q0 11 5 18.5t12 11.5q15 -21 38 -39t52 -18q51 0 78 53t47 149l102 480h-72l2 12l76 18v0l4 18q23 109 79.5 168t131.5 59q38 0 65.5 -18t39.5 -40q52 78 126 78q38 0 61.5 -18t23.5 -42q0 -10 -5 -18 t-12 -12q-15 21 -38 39t-52 18q-51 0 -78 -53t-47 -149l-6 -30h130l-6 -30h-131l-98 -468q-24 -112 -67 -179.5t-109 -67.5q-31 0 -50.5 18t-19.5 42q0 11 5 18.5t12 11.5q12 -21 30.5 -39t42.5 -18q46 0 69 53t43 149l102 480h-212zM249 520l-6 -30h211l4 18q16 77 42 131 q-11 24 -36 43.5t-64 19.5q-61 0 -96.5 -47t-54.5 -135z" />
<glyph unicode="ffi" horiz-adv-x="738" d="M138 -8q-24 -112 -72 -179.5t-119 -67.5q-37 0 -61 18t-24 42q0 11 5 18.5t12 11.5q15 -21 38 -39t52 -18q51 0 78 53t47 149l102 480h-72l2 12l76 18v0l4 18q23 107 79.5 167t131.5 60q39 0 67 -19t39 -41q56 80 136 80q42 0 71.5 -28.5t29.5 -68.5q0 -15 -8.5 -25 t-25.5 -8q-6 42 -25 69.5t-57 27.5q-58 0 -90.5 -52.5t-52.5 -149.5l-6 -30h164q39 0 55.5 -15.5t16.5 -40.5q0 -19 -8 -57.5t-19.5 -86t-23 -93t-18.5 -77.5q-4 -22 -7 -37.5t-3 -25.5q0 -12 4 -19.5t14 -7.5q13 0 29.5 15.5t34.5 39t34 47.5l8 -5q-13 -28 -32 -60 t-42 -54.5t-48 -22.5q-23 0 -33 15.5t-10 40.5q0 13 3 31t8 43q8 35 19 81t22.5 91.5t19 81t7.5 49.5q0 20 -11 28.5t-34 8.5h-157l-98 -468q-24 -112 -67 -179.5t-109 -67.5q-31 0 -50.5 18t-19.5 42q0 11 5 18.5t12 11.5q12 -21 30.5 -39t42.5 -18q46 0 69 53t43 149 l102 480h-212zM249 520l-6 -30h211l4 18q16 75 43 129q-11 25 -36.5 45t-64.5 20q-61 0 -97 -48t-54 -134z" />
<glyph unicode="ffl" horiz-adv-x="769" d="M138 -8q-24 -112 -72 -179.5t-119 -67.5q-37 0 -61 18t-24 42q0 11 5 18.5t12 11.5q15 -21 38 -39t52 -18q51 0 78 53t47 149l102 480h-72l2 12l76 18v0l4 18q23 107 79.5 167t131.5 60q42 0 71.5 -21.5t37.5 -45.5q66 87 164 87q34 0 55 -13q11 3 22.5 6t22.5 6l8 -8 l-137 -626q-4 -22 -7 -37.5t-3 -25.5q0 -12 4 -19.5t14 -7.5q13 0 29.5 15.5t34.5 39t34 47.5l8 -5q-13 -28 -32 -60t-42 -54.5t-48 -22.5q-23 0 -33 15.5t-10 40.5q0 13 3 31t8 43l125 566q-13 16 -33 26t-45 10q-68 0 -107.5 -53t-59.5 -149l-6 -30h164l-14 -30h-157 l-98 -468q-24 -112 -72 -179.5t-119 -67.5q-37 0 -61 18t-24 42q0 11 5 18.5t12 11.5q15 -21 38 -39t52 -18q51 0 78 53t47 149l102 480h-212zM249 520l-6 -30h211l4 18q15 72 45 125v0q-10 26 -36 47.5t-67 21.5q-61 0 -97 -48t-54 -134z" />
<glyph unicode="&#x2f;symbol&#x31;&#x2f;" horiz-adv-x="5534" d="M1865 412q-25 0 -40.5 14.5t-15.5 37.5q0 24 15.5 45t39 34.5t48.5 13.5q24 0 39 -13.5t15 -37.5t-14.5 -45.5t-37.5 -35t-49 -13.5zM1284 412q-26 0 -41.5 14.5t-15.5 37.5q0 24 15.5 45t39.5 34.5t49 13.5q24 0 38.5 -13.5t14.5 -37.5t-14.5 -45.5t-37 -35t-48.5 -13.5 zM959 0q0 21 2.5 46.5t8.5 61.5q-16 -49 -51 -82t-79 -33q-41 0 -63 30t-22 82q0 45 15.5 91t46.5 85.5t76.5 63.5t104.5 24h12.5t12.5 -1l16 73l6 102l136 7q0 -40 -9.5 -95t-23 -116.5t-27 -123.5t-23 -117.5t-9.5 -97.5h-130zM100 0l78 364q8 38 13.5 72.5t7.5 63.5 l128 7l11 -15l-104 -492h-134zM3503 492l-57 -492h-131l20 175q3 30 9 69t12.5 78t11.5 68h-3q-16 -53 -37 -107.5t-44 -107.5l-76 -175h-149l-2 175q-1 56 1 109t8 106h-2q-15 -61 -30 -115.5t-29 -99.5l-53 -175h-109l154 500l184 6l1 -137q1 -50 -2.5 -121.5 t-12.5 -137.5h2q20 65 36 111t30.5 81t27.5 67l56 131l169 7zM5316 300q-15 -74 -23 -110.5t-11 -51t-3 -21.5q0 -34 36 -34q13 0 28 5t31 13l-9 -79q-20 -11 -50 -20t-64 -9q-50 0 -77.5 25t-27.5 75q0 11 1.5 23.5t6 33.5t12.5 57.5t20 95.5l-47 1l9 44l54 14l53 95l81 6 l13 -15l-20 -86h99l6 -14l-17 -51zM336 0q0 28 4 62t13 82t24 116l6 102l137 7q0 -18 -2 -41t-5 -48h2q29 49 65.5 69t68.5 20q35 0 53.5 -19.5t18.5 -51.5q0 -23 -8 -62.5t-18 -84.5q-7 -33 -11 -57t-5.5 -45.5t-1.5 -48.5h-131q0 38 4.5 69.5t14.5 80.5q7 35 11 55.5 t4 31.5q0 24 -17 24t-34 -22.5t-30.5 -60.5t-22 -84t-9.5 -94h-131zM1170 0q0 39 7 87.5t20 105.5l14 67l6 102l137 7q0 -36 -8 -81.5t-19 -95.5t-19 -99t-8 -93h-130zM1399 362l140 7q6 -59 4.5 -137.5t-9.5 -151.5h2q23 45 42 95t32 99t17 90q17 4 28.5 4.5t21.5 0.5 q28 0 46.5 -7t18.5 -35q0 -22 -13.5 -60.5t-36.5 -85t-53.5 -94t-63.5 -87.5h-149q-2 111 -9.5 207.5t-17.5 154.5zM1752 0q0 39 7 87.5t19 105.5l15 67l6 102l137 7q0 -36 -8 -81.5t-19 -95.5t-19 -99t-8 -93h-130zM4716 0q0 28 4 62t13 82t24 116l6 102l137 7 q0 -18 -2.5 -41t-4.5 -48h2q29 49 65 69t69 20q35 0 53.5 -19.5t18.5 -51.5q0 -23 -8 -62.5t-18 -84.5q-7 -33 -11 -57t-6 -45.5t-2 -48.5h-130q0 38 4.5 69.5t14.5 80.5q7 35 11 55.5t4 31.5q0 24 -17 24q-18 0 -34.5 -22.5t-30.5 -60.5t-22.5 -84t-9.5 -94h-130zM2245 256 q-25 14 -51.5 22t-45.5 8q-17 0 -29.5 -7t-12.5 -19q0 -13 13 -22t32 -17.5t38 -20.5t32 -30.5t13 -47.5q0 -39 -25 -68t-66.5 -45t-89.5 -16q-33 0 -66.5 7.5t-51.5 20.5l27 93q27 -18 58.5 -28t52.5 -10q20 0 30 8t10 18q0 13 -13 22t-32 18t-38 21t-32 30t-13 46 q0 39 25.5 68t67.5 45.5t90 16.5q20 0 48.5 -3.5t55.5 -14.5zM2525 369q32 0 73.5 -7.5t72.5 -24.5l-29 -128q-20 -94 -25.5 -140.5t-5.5 -68.5h-130q0 20 2.5 45t9.5 67q-15 -50 -50.5 -84.5t-81.5 -34.5q-41 0 -62.5 30t-21.5 83q0 44 15.5 90.5t46.5 85.5t77.5 63 t108.5 24zM4653 51q-32 -28 -74 -43t-85 -15q-62 0 -102 33.5t-40 103.5q0 46 17.5 88.5t49.5 76.5t75 54t94 20q53 0 86 -23t33 -65q0 -56 -59 -95.5t-162 -44.5v-1q0 -29 15 -46.5t48 -17.5q22 0 45 7.5t45 20.5zM3936 0q0 28 4 62t13.5 82t24.5 116l5 102l137 7 q0 -18 -2 -41t-5 -48h2q29 49 65.5 69t68.5 20q35 0 53.5 -19.5t18.5 -51.5q0 -23 -8 -62.5t-18 -84.5q-7 -33 -11 -57t-5.5 -45.5t-1.5 -48.5h-131q0 38 4.5 69.5t14.5 80.5q8 35 11.5 55.5t3.5 31.5q0 24 -17 24t-34 -22.5t-30.5 -60.5t-22 -84t-9.5 -94h-131zM3768 369 q32 0 73 -7.5t72 -24.5l-28 -128q-20 -94 -25.5 -140.5t-5.5 -68.5h-130q0 20 2.5 45t9.5 67q-15 -50 -50.5 -84.5t-81.5 -34.5q-41 0 -63 30t-22 83q0 44 15.5 90.5t47 85.5t78 63t108.5 24zM4490 177q46 10 72.5 33.5t26.5 59.5q0 17 -5.5 24t-16.5 7q-20 0 -36 -20 t-26 -48.5t-15 -55.5zM3677 101q17 0 33 21t30 54t22 69q2 11 4.5 22t4.5 22q-16 8 -27 8q-18 0 -34.5 -16t-29 -40.5t-20 -51.5t-7.5 -48q0 -40 24 -40zM913 101q16 0 31 19.5t28.5 50t22.5 64.5l4 20l4 20l3 14q-14 8 -27 8q-18 0 -34 -16t-28.5 -40.5t-20 -51.5t-7.5 -48 q0 -40 24 -40zM2435 101q16 0 32.5 21t30 54t21.5 69q2 11 4.5 22t4.5 22q-14 8 -27 8q-18 0 -34 -16t-29 -40.5t-20 -51.5t-7 -48q0 -40 24 -40z" />
<glyph unicode="&#x2f;symbol&#x32;&#x2f;" horiz-adv-x="932" d="M494 570l52 -90l-137 -240h-103l137 240l-52 90h103zM357 570l52 -90l-138 -240h-103l138 240l-52 90h103zM752 120h-103l-137 240l51 90l137 -240h103zM683 0h-103l-137 240l51 90l138 -240h103zM100 120l51 90h275l51 -90h-274l-52 -90zM168 0l52 90h274l52 -90h-275 l-51 -90zM789 88q18 0 30.5 -13t12.5 -31t-12.5 -31t-30.5 -13t-30.5 13t-12.5 31t12.5 31t30.5 13zM829 44q0 17 -11.5 28.5t-28.5 11.5q-16 0 -28 -11.5t-12 -28.5q0 -16 12 -28t28 -12q17 0 28.5 12t11.5 28zM771 69h18h5t6 -2q5 -4 5 -11q0 -5 -3 -8q-1 -2 -2.5 -2.5 t-3.5 -1.5q7 -1 8 -9q0 -8 3 -16h-8q-1 2 -1 6t-1 7q-1 5 -2.5 7.5t-8.5 2.5h-8v-23h-7v50zM778 47h10h3.5t3.5 1q3 3 3 7q0 6 -4 7t-6 1h-10v-16z" />
<glyph unicode="&#x2f;symbol&#x33;&#x2f;" horiz-adv-x="957" d="M505 638l68 -270h270l-203 -135l136 -270l-271 135l-270 -270l135 405l-270 203l338 -68zM814 87q18 0 30.5 -12.5t12.5 -31.5q0 -18 -12.5 -30.5t-30.5 -12.5t-30.5 12.5t-12.5 30.5q0 19 12.5 31.5t30.5 12.5zM854 43q0 17 -11.5 29t-28.5 12q-16 0 -28 -12t-12 -29 q0 -16 12 -28t28 -12q17 0 28.5 12t11.5 28zM796 68h18h5.5t5.5 -2q6 -3 6 -10q0 -5 -4 -9q-3 -3 -6 -3q7 -3 8 -10q1 -4 1.5 -7.5t1.5 -8.5h-7q-1 3 -1.5 7t-1.5 7q0 9 -10 9h-9v-23h-7v50zM803 47h10h3.5t3.5 1l2 2t1 4q0 7 -4 8t-6 1h-10v-16z" />
<glyph unicode="&#x2f;symbol&#x34;&#x2f;" horiz-adv-x="2607" d="M1684 406q0 32 -2.5 63t-8.5 65l126 14l15 -15v-533h-130v406zM1889 406q0 62 -10 128l126 14l14 -15v-533h-130v406zM427 101v-101h-320v362q0 38 -1.5 72t-5.5 63l126 7l14 -14v-396zM925 21l7 109q31 -18 72 -27t72 -9q50 0 50 36q0 19 -20.5 34t-50 31t-59.5 37 t-50.5 51t-20.5 74q0 48 26 80.5t70 49.5t97 17q81 0 127 -18l-14 -111q-28 14 -55 21.5t-56 7.5q-28 0 -43 -11t-15 -29q0 -22 20.5 -38.5t50.5 -32.5t59.5 -36.5t50 -49.5t20.5 -73q0 -67 -54 -104t-139 -37q-40 0 -82.5 8t-62.5 20zM795 0l-106 -7q-7 11 -12 24t-9 25h-4 q-15 -22 -42.5 -35.5t-61.5 -13.5q-41 0 -69 22t-28 67q0 61 53.5 88.5t137.5 29.5v20q0 54 -58 54q-55 0 -108 -29l-8 97q27 10 68.5 18t81.5 8q154 0 154 -135q0 -38 -2 -69.5t-2 -69.5q0 -24 4.5 -50.5t10.5 -43.5zM1626 0l-107 -7q-7 11 -12 24t-9 25h-3 q-15 -22 -42.5 -35.5t-62.5 -13.5q-40 0 -68 22t-28 67q0 61 53 88.5t138 29.5v20q0 54 -58 54q-54 0 -109 -29l-7 97q27 10 68.5 18t81.5 8q153 0 153 -135q0 -38 -1.5 -69.5t-1.5 -69.5q0 -24 4.5 -50.5t10.5 -43.5zM2405 213v-17t-1 -19l-11 -11h-191q8 -45 33.5 -64 t64.5 -19q24 0 45.5 6t38.5 15l7 -81q-17 -11 -49.5 -20.5t-77.5 -9.5q-88 0 -143 47t-55 135q0 58 24 101t66 67.5t94 24.5q73 0 114 -43.5t41 -111.5zM2199 207l78 4q1 5 1.5 11t0.5 15q0 23 -7.5 41t-26.5 18q-23 0 -34 -25.5t-12 -63.5zM654 74v88q-27 -3 -46 -17 t-19 -40q0 -18 10.5 -29t26.5 -11t28 9zM1485 74v88q-27 -3 -46 -17t-19 -40q0 -18 10 -29t27 -11q16 0 28 9zM2464 85q18 0 30.5 -13t12.5 -31t-12.5 -31t-30.5 -13t-31 13t-13 31t13 31t31 13zM2504 41q0 17 -11.5 28.5t-28.5 11.5q-16 0 -28 -11.5t-12 -28.5 q0 -16 12 -28t28 -12q17 0 28.5 12t11.5 28zM2446 66h18q2 0 5 -0.5t6 -2.5q5 -2 5 -10q0 -4 -3 -9q-3 -3 -6 -3q7 -1 8 -10q0 -7 3 -15h-8q-1 2 -1 6t-1 7q-1 5 -2.5 7t-8.5 2h-8v-22h-7v50zM2453 44h10h3.5t3.5 1q3 3 3 7q0 6 -4 7t-6 1h-10v-16z" />
<glyph unicode="&#x2f;symbol&#x35;&#x2f;" horiz-adv-x="705" d="M232 -6l-132 136l124 234l129 -136zM474 -6l-121 234l128 136l124 -234z" />
<glyph unicode=" "  horiz-adv-x="250" />
<glyph unicode="&#x09;" horiz-adv-x="250" />
<glyph unicode="&#xa0;" horiz-adv-x="250" />
<glyph unicode="!" horiz-adv-x="278" d="M238 686l4 3q11 2 22.5 3t21.5 1q12 0 12 -9q0 -3 -4 -19.5t-13 -48.5l-106 -426h-28zM127 -10q-13 0 -21 8.5t-8 22.5q0 25 12.5 42t31.5 17q13 0 21 -8t8 -22q0 -25 -12.5 -42.5t-31.5 -17.5z" />
<glyph unicode="&#x22;" horiz-adv-x="335" d="M212 752l4 3q8 0 23.5 -1.5t22.5 -4.5l4 -10l-76 -237l-18 3l20 121zM362 752l4 3q8 0 23.5 -1.5t22.5 -4.5l4 -10l-76 -237l-18 3l20 121z" />
<glyph unicode="#" horiz-adv-x="719" d="M244 -10l-28 2l-8 8l48 195h-144l-8 8l5 28h156l56 224h-142l-8 8l5 28h154l50 204l28 -2l8 -8l-48 -194h180l50 204l28 -2l8 -8l-48 -194h142l8 -8l-4 -28h-155l-55 -224h144l8 -8l-4 -28h-157l-51 -205l-28 2l-8 8l48 195h-179zM304 231h179l56 224h-180z" />
<glyph unicode="$" horiz-adv-x="468" d="M213 -137l-29 -3l-6 7l27 125q-50 2 -88 14.5t-43 25.5q-3 8 -3 18q0 23 8 56t21 64h16q-1 -12 -1 -22.5v-19.5q0 -30 3.5 -45t11.5 -26q14 -19 39.5 -25.5t53.5 -6.5q48 0 83.5 22.5t54.5 58t19 74.5q0 44 -21.5 77t-53 60t-63 55t-53 63t-21.5 83q0 49 26 88t68.5 63 t93.5 26l28 132l29 3l6 -7l-28 -129q44 -3 70 -14t33 -22q2 -4 2 -9q0 -13 -4.5 -36t-11.5 -48t-15 -45h-16q1 14 1.5 26.5t0.5 22.5q0 48 -13 64q-21 27 -80 27q-41 0 -74 -19t-52 -50.5t-19 -69.5q0 -40 21.5 -71t53 -58.5t63 -56.5t53 -65.5t21.5 -85.5q0 -45 -21.5 -87 t-63 -70t-100.5 -34z" />
<glyph unicode="%" horiz-adv-x="922" d="M480 555q0 -41 -14 -88t-40.5 -88t-64.5 -67t-86 -26q-53 0 -85.5 38t-32.5 102q0 45 14.5 92t41.5 87t65.5 65t86.5 25q53 0 84 -37.5t31 -102.5zM824 695l-572 -705h-39l571 705h40zM192 425q0 -51 22.5 -83.5t67.5 -32.5q38 0 68.5 24t51.5 62t32 81.5t11 82.5 q0 51 -20 82t-67 31q-38 0 -69 -23t-52.5 -60.5t-33 -80.5t-11.5 -83zM887 259q0 -41 -14 -88t-40.5 -88t-64.5 -67t-86 -26q-53 0 -85.5 38t-32.5 102q0 45 14.5 92t41.5 87t65.5 65t86.5 25q53 0 84 -37.5t31 -102.5zM599 129q0 -51 22.5 -83.5t67.5 -32.5q38 0 68.5 24 t51.5 62t32 81.5t11 82.5q0 51 -20 82t-67 31q-38 0 -69 -23t-52.5 -60.5t-33 -80.5t-11.5 -83z" />
<glyph unicode="&#x26;" horiz-adv-x="741" d="M698 79q0 -34 -11.5 -61.5t-33.5 -27.5q-16 0 -26 12l-1 5q14 21 22.5 46t8.5 50q0 8 -1 17t-4 17q-44 15 -83 30q-47 -75 -117.5 -126t-164.5 -51q-81 0 -129 45.5t-48 121.5q0 56 25.5 103t64.5 80.5t80 49.5q-24 50 -24 105q0 56 26 101.5t69.5 72t97.5 26.5 q60 0 90 -31t30 -78q0 -28 -12.5 -51.5t-32.5 -36.5q24 -2 49.5 -3t50.5 -1q50 0 92 4t57 17h3q9 -9 9 -25q0 -17 -13.5 -25t-34.5 -8q-19 0 -38 0.5t-40 0.5q-3 -60 -21 -128t-51 -130q20 -10 39.5 -18.5t37.5 -17.5q16 -7 25 -31t9 -54zM301 499q0 -53 21.5 -95.5 t58 -76.5t81.5 -61.5t92 -49.5q28 57 43 120.5t17 123.5q-27 2 -57.5 4.5t-67.5 5.5l-10 17q23 23 34 46.5t11 45.5q0 38 -21 59.5t-62 21.5q-61 0 -100.5 -43t-39.5 -118zM155 163q0 -60 35.5 -99t104.5 -39q80 0 140 44.5t100 112.5q-85 37 -146 82.5t-94 99.5 q-35 -15 -67 -45t-52.5 -70t-20.5 -86z" />
<glyph unicode="'" horiz-adv-x="185" d="M212 752l4 3q8 0 23.5 -1.5t22.5 -4.5l4 -10l-76 -237l-18 3l20 121z" />
<glyph unicode="(" horiz-adv-x="342" d="M252 -180l-13 -13q-51 55 -77.5 136t-26.5 180q0 87 20.5 177.5t59.5 175.5t95 157t126 122l12 -14q-64 -52 -114 -125t-85 -157t-53 -171t-18 -169q0 -92 18.5 -168.5t55.5 -130.5z" />
<glyph unicode=")" horiz-adv-x="343" d="M186 742l13 13q51 -55 77.5 -136t26.5 -180q0 -87 -20.5 -177.5t-59.5 -175.5t-95 -157t-126 -122l-12 14q64 53 114 125.5t85 156.5t53 171t18 169q0 92 -18.5 168.5t-55.5 130.5z" />
<glyph unicode="*" horiz-adv-x="360" d="M296 507q-5 -22 -23 -22t-18 15q0 14 13.5 45t22.5 64q-21 -13 -42.5 -28.5t-39 -27t-26.5 -11.5q-15 0 -15 18q0 12 16 21q19 10 46 17.5t57 21.5q-23 13 -45 20.5t-36 14.5t-14 19q0 10 7.5 17t16.5 7q11 0 23.5 -11.5t26.5 -27.5t29 -28q0 64 9 102q5 22 23 22t18 -15 t-14 -46t-22 -63q20 12 41.5 27.5t39.5 27.5t28 12q14 0 14 -16t-14 -22q-19 -8 -47 -17t-59 -23q24 -13 46 -20.5t36 -14.5t14 -19q0 -9 -8 -16.5t-16 -7.5q-12 0 -33.5 22t-45.5 43q-1 -62 -9 -100z" />
<glyph unicode="+" d="M283 147l-2 3l37 175h-186l8 35q32 1 81.5 2t104.5 1l36 174h36l3 -3l-36 -170q52 0 99.5 0.5t78.5 0.5l6 -8l-12 -32h-180l-37 -178h-37z" />
<glyph unicode="," horiz-adv-x="277" d="M43 -189l-10 7q31 31 59.5 80t41.5 93q-16 1 -23 12t-7 24q0 18 12 34.5t33 16.5q19 0 27.5 -14.5t8.5 -32.5q0 -32 -20 -73.5t-52 -81t-70 -65.5z" />
<glyph unicode="-" horiz-adv-x="381" d="M90 250l7 35h284l-7 -35h-284z" />
<glyph unicode="." horiz-adv-x="260" d="M166 41q0 -18 -12 -34.5t-33 -16.5q-19 0 -27.5 11.5t-8.5 25.5q0 18 12 34.5t33 16.5q19 0 27.5 -11.5t8.5 -25.5z" />
<glyph unicode="/" horiz-adv-x="399" d="M112 -8l-11 -3l-28 14l347 747l12 4l28 -15z" />
<glyph unicode="0" horiz-adv-x="569" d="M585 454q0 -55 -13 -118t-38.5 -124t-62 -111.5t-84 -80.5t-104.5 -30q-81 0 -129 65t-48 174q0 60 13.5 125t40 125.5t64 109.5t85.5 77.5t105 28.5q79 0 125 -64t46 -177zM151 235q0 -61 15.5 -108.5t47 -74.5t77.5 -27q47 0 86 26.5t69 71.5t51 101t32 116t11 115 q0 92 -31.5 148.5t-102.5 56.5q-47 0 -86.5 -26t-70.5 -70t-53 -99.5t-33.5 -114.5t-11.5 -115z" />
<glyph unicode="1" horiz-adv-x="315" d="M258 0h-224l-2 16l67 12q20 4 27.5 10t10.5 22l13 60l111 526l-92 5l1 14l132 30l8 -10l-120 -565l-18 -85l91 -19z" />
<glyph unicode="2" horiz-adv-x="509" d="M56 -10l-18 18q122 96 207.5 172.5t138.5 139t77 115.5t24 101q0 56 -31.5 88t-90.5 32q-55 0 -103 -26.5t-89 -76.5l-11 7q30 62 87.5 98.5t129.5 36.5q71 0 111.5 -40.5t40.5 -113.5q0 -57 -25.5 -112t-70 -108.5t-101.5 -105.5t-119 -103l-74 -59q14 3 35 3 q32 0 72 -5.5t76.5 -11t56.5 -5.5q21 0 47 40q8 13 16.5 28t18.5 33l8 -5q-10 -34 -23 -64q-14 -34 -29.5 -55t-35.5 -21q-29 0 -68 7.5t-82 15t-85 7.5q-28 0 -49 -7.5t-41 -22.5z" />
<glyph unicode="3" horiz-adv-x="437" d="M416 237q0 -64 -50.5 -117.5t-138 -88t-198.5 -41.5l-6 24q72 6 135.5 24.5t112 47t76 66t27.5 80.5q0 60 -41 86.5t-104 26.5q-16 0 -30.5 -0.5t-28.5 -1.5l-2 29q119 16 187 64t68 121q0 44 -26.5 72t-79.5 28q-55 0 -104.5 -30t-80.5 -83l-11 7q23 66 80 105t124 39 q66 0 103 -35.5t37 -97.5q0 -68 -54 -119.5t-138 -73.5q65 -7 104 -39.5t39 -92.5z" />
<glyph unicode="4" horiz-adv-x="550" d="M499 690l28 -5l-100 -470l117 1l-10 -40l-115 1l-37 -177h-40l38 177l-318 3l-7 24zM476 627l-373 -416l285 3z" />
<glyph unicode="5" horiz-adv-x="434" d="M423 249q0 -51 -29 -95.5t-81 -79.5t-122.5 -57t-153.5 -27l-6 24q71 6 134.5 25.5t112 50t76 69.5t27.5 85q0 121 -146 121q-62 0 -116 -13l-10 10l73 327q59 -2 112 -5t111 -3q27 0 42.5 14.5t28.5 40.5l9 -3q-10 -45 -21 -68t-48 -23q-41 0 -93.5 2.5t-111.5 8.5 l-60 -267q41 9 92 9q83 0 131.5 -39t48.5 -107z" />
<glyph unicode="6" horiz-adv-x="490" d="M91 167q0 95 34 182t93.5 158t138 120t167.5 68l6 -24q-142 -45 -240 -140t-142 -231q59 104 176 104q68 0 109.5 -45t41.5 -118q0 -50 -18 -95.5t-49 -80.5t-72 -55t-87 -20q-41 0 -77 20t-58.5 59.5t-22.5 97.5zM433 238q0 65 -30.5 99t-87.5 34q-51 0 -93 -28 t-66.5 -74t-24.5 -101q0 -65 30.5 -105.5t89.5 -40.5q56 0 97 31t63 80.5t22 104.5z" />
<glyph unicode="7" horiz-adv-x="451" d="M193 -3q-4 -7 -15 -7q-7 0 -15 5t-13 12q64 105 121.5 199t111 189t107.5 202q-42 15 -89.5 26.5t-89 18.5t-66.5 7q-35 0 -55 -30t-37 -86l-10 5q9 48 18.5 83t26 54.5t46.5 19.5q38 0 85.5 -9.5t96.5 -24t91 -29.5q15 30 30 61q20 -5 20 -21q0 -5 -4 -16.5t-10 -23.5 q-47 -100 -100 -200t-114.5 -206.5t-135.5 -228.5z" />
<glyph unicode="8" horiz-adv-x="485" d="M459 180q0 -56 -31.5 -99t-82.5 -67t-110 -24q-76 0 -121.5 39t-45.5 100q0 74 55.5 133.5t156.5 96.5q-39 32 -69 70t-30 93q0 49 27 88t71 62t95 23q68 0 106.5 -35t38.5 -91q0 -64 -44.5 -118.5t-126.5 -92.5q28 -23 53.5 -49t41.5 -57.5t16 -71.5zM223 525 q0 -47 31.5 -82t71.5 -67q45 21 79 51t53.5 64t19.5 68q0 49 -28 76.5t-81 27.5q-40 0 -73 -18t-53 -49.5t-20 -70.5zM109 139q0 -52 36.5 -84.5t95.5 -32.5q46 0 86 20.5t65 55t25 78.5q0 37 -16.5 65.5t-42.5 52.5t-54 47q-57 -22 -101 -53t-69 -69t-25 -80z" />
<glyph unicode="9" horiz-adv-x="489" d="M520 518q0 -95 -34 -181.5t-93.5 -158t-138 -120.5t-167.5 -68l-6 24q142 45 240 140t142 231q-59 -104 -176 -104q-67 0 -109 45t-42 118q0 50 18 95.5t49 80.5t72 55t87 20q41 0 77 -20t58.5 -59t22.5 -98zM178 447q0 -64 30.5 -98.5t87.5 -34.5q52 0 93.5 28t66 74.5 t24.5 100.5q0 65 -30.5 105.5t-89.5 40.5q-56 0 -97 -31t-63 -80.5t-22 -104.5z" />
<glyph unicode=":" horiz-adv-x="209" d="M210 368q-1 -18 -15 -34.5t-35 -16.5q-19 0 -26 11.5t-6 25.5q2 18 15.5 34.5t34.5 16.5q19 0 26.5 -11.5t5.5 -25.5zM141 41q-1 -18 -15 -34.5t-35 -16.5q-19 0 -26 11.5t-6 25.5q2 18 15.5 34.5t34.5 16.5q19 0 26.5 -11.5t5.5 -25.5z" />
<glyph unicode=";" horiz-adv-x="209" d="M210 368q-1 -18 -15 -34.5t-35 -16.5q-19 0 -26 11.5t-6 25.5q2 18 15.5 34.5t34.5 16.5q19 0 26.5 -11.5t5.5 -25.5zM-25 -189l-9 7q23 21 46 50t42 61t31 62q-16 1 -22 11.5t-4 24.5q2 18 15.5 34.5t34.5 16.5q19 0 26 -14.5t5 -32.5q-3 -32 -27 -73.5t-60.5 -81 t-77.5 -65.5z" />
<glyph unicode="&#x3c;" d="M577 565l-10 -49l-369 -182l294 -173l-10 -44q-31 17 -78.5 44.5t-100 59t-99.5 60t-77 46.5l4 18z" />
<glyph unicode="=" d="M557 419h-405l8 35q34 1 87 2t113 1.5t114 1t89 0.5l6 -8zM516 226h-405l8 35q34 1 87 2t113 1.5t114 1t89 0.5l6 -8z" />
<glyph unicode="&#x3e;" d="M104 117l10 49l369 182l-294 173l10 44q31 -17 78.5 -44.5t100 -59t99.5 -60t77 -46.5l-4 -18z" />
<glyph unicode="?" horiz-adv-x="398" d="M247 222l-10 -8q-16 4 -28 15.5t-12 30.5q0 32 17 55.5t43.5 42.5t57 38t57 41t43.5 51.5t17 69.5q0 47 -27.5 76t-74.5 29q-45 0 -80.5 -20t-56 -54t-20.5 -78q0 -6 0.5 -13t1.5 -14q-5 -2 -10.5 -4t-12.5 -2q-28 0 -28 36q0 48 29.5 89.5t78.5 66.5t105 25 q62 0 101 -38.5t39 -95.5q0 -43 -17.5 -75.5t-45 -56.5t-58 -44t-58 -39t-45 -40t-17.5 -48q0 -10 2 -19t9 -17zM165 -10q-13 0 -21 8.5t-8 22.5q0 25 12.5 42t31.5 17q13 0 21 -8t8 -22q0 -25 -12.5 -42.5t-31.5 -17.5z" />
<glyph unicode="@" horiz-adv-x="1076" d="M820 -160q-52 -42 -126 -68.5t-167 -26.5q-95 0 -173 32.5t-134.5 91t-87 135.5t-30.5 167q0 105 32.5 195t88.5 162t128.5 122.5t154 77.5t162.5 27q89 0 162 -30.5t125.5 -85t81 -128t28.5 -159.5q0 -73 -21.5 -138.5t-59.5 -115.5t-88 -79t-106 -29q-48 0 -78 24 t-40.5 65t-3.5 91q3 22 6.5 43t6.5 43q-18 -42 -42.5 -88t-54 -86.5t-60.5 -66t-63 -25.5q-33 0 -54.5 32.5t-21.5 93.5q0 75 24 144.5t65.5 125t95.5 87.5t114 32q29 0 53 -6t40 -14l-13 -55l-39 -170q-24 -105 -5.5 -167.5t76.5 -62.5q41 0 81 23.5t72.5 67t52.5 103 t20 131.5q0 79 -26.5 145t-74.5 114.5t-113.5 75.5t-144.5 27q-72 0 -145.5 -25t-140.5 -71.5t-119 -112.5t-82.5 -149t-30.5 -180q0 -84 27.5 -156.5t78 -126t119 -83.5t149.5 -30q68 0 119.5 12t91.5 31t75 39zM430 117q0 -37 11.5 -62t33.5 -25q21 0 49 29.5t58 76 t57.5 99.5t47.5 101t28 79l11 44q-11 5 -24 8t-32 3q-43 0 -85.5 -28.5t-77.5 -78t-56 -113t-21 -133.5z" />
<glyph unicode="A" horiz-adv-x="649" d="M444 687h23l76 -618q2 -17 8 -25t20 -11l57 -13l-2 -20h-205l-4 20l89 19l-26 216l-237 -4l-116 -212l82 -19l-4 -20h-200l-2 20l55 13q17 4 27 12t19 24zM261 285h215l-40 321z" />
<glyph unicode="B" horiz-adv-x="563" d="M303 565l-43 -202h95q45 0 84.5 26t64.5 67t25 87q0 53 -36 82.5t-108 29.5h-63zM327 333h-73l-45 -213l-19 -90h101q64 0 111.5 23.5t73.5 64t26 91.5q0 61 -46.5 92.5t-128.5 31.5zM547 210q0 -54 -30 -102t-90 -78t-151 -30h-220l-2 20l67 13q17 3 24 9.5t10 20.5 l12 57l94 445l17 81l-84 19l4 20h202q78 0 124.5 -37t46.5 -99q0 -48 -21.5 -88t-55 -68.5t-68.5 -42.5q56 -15 88.5 -50.5t32.5 -89.5z" />
<glyph unicode="C" horiz-adv-x="582" d="M367 -10q-79 0 -137 33t-89.5 93.5t-31.5 143.5q0 90 30.5 168.5t84.5 138.5t124.5 94t150.5 34q82 0 124 -25q-1 -17 -6.5 -44.5t-12.5 -56t-14 -49.5h-15q-1 32 -2.5 64t-3.5 63q-15 5 -32 9t-45 4q-67 0 -128 -31.5t-108.5 -85.5t-74.5 -124.5t-27 -148.5 q0 -80 28.5 -135t77.5 -82.5t109 -27.5q32 0 53.5 4.5t38.5 8.5l30 64t30 63h15q-4 -34 -13.5 -76t-17.5 -69q-23 -13 -60.5 -21.5t-77.5 -8.5z" />
<glyph unicode="D" horiz-adv-x="644" d="M303 565l-94 -445l-19 -88h67q84 0 150 32.5t112 88.5t70 127t24 147q0 103 -58 164.5t-176 61.5h-58zM254 0h-198l-2 20l67 13q17 3 24 9.5t10 20.5l12 57l94 445l17 81l-84 19l4 20h192q84 0 144 -31.5t92 -88.5t32 -135q0 -81 -27 -157.5t-79 -138t-127 -98 t-171 -36.5z" />
<glyph unicode="E" horiz-adv-x="564" d="M303 565l-43 -205l213 5l-9 -39l-210 5l-45 -211l-19 -90h148q31 0 62.5 1.5t51.5 3.5q16 32 31 65t31 65h15q-3 -23 -8.5 -52.5t-13 -59.5t-16.5 -53h-435l-2 20l67 13q17 3 24 9.5t10 20.5l12 57l94 445l17 81l-84 19l4 20h408q-1 -34 -11 -79.5t-21 -85.5h-15 q-1 32 -3 65t-4 65q-19 2 -50 3.5t-62 1.5h-118z" />
<glyph unicode="F" horiz-adv-x="500" d="M191 39l105 -19l-4 -20h-236l-2 20l67 13q16 3 23 9.5t10 20.5l13 57l94 445l17 81l-84 19l4 20h408q-1 -34 -11 -79.5t-21 -85.5h-15l-4 65q-1 17 -1.5 33t-1.5 32q-19 2 -50 3.5t-62 1.5h-118l-19 -90l-45 -215l215 5l-10 -39l-212 4l-42 -200z" />
<glyph unicode="G" horiz-adv-x="612" d="M369 25q58 0 99 15l34 160l18 81l-85 19l4 20h216l2 -20l-67 -13q-16 -3 -23 -9.5t-10 -20.5l-13 -57l-39 -180q-28 -13 -60 -21.5t-81 -8.5q-75 0 -132.5 32t-90 92t-32.5 144q0 95 32 174.5t86.5 138.5t124.5 91.5t145 32.5q44 0 78 -5.5t66 -19.5q-3 -28 -12 -70 t-21 -80h-15q-1 32 -2.5 64t-3.5 63q-23 8 -46.5 10.5t-53.5 2.5q-63 0 -122.5 -30.5t-107 -85t-75.5 -127.5t-28 -157q0 -67 26 -120.5t74.5 -84t114.5 -30.5z" />
<glyph unicode="H" horiz-adv-x="738" d="M191 39l85 -19l-4 -20h-216l-2 20l67 13q16 3 23 9.5t10 20.5l13 57l94 445l18 81l-85 19l4 20h216l2 -20l-67 -13q-16 -3 -23 -9.5t-10 -20.5l-13 -57l-42 -200h346l42 200l18 81l-85 19l4 20h216l2 -20l-67 -13q-16 -3 -23 -9.5t-10 -20.5l-13 -57l-94 -445l-18 -81 l85 -19l-4 -20h-216l-2 20l67 13q16 3 23 9.5t10 20.5l13 57l44 210h-346l-44 -210z" />
<glyph unicode="I" horiz-adv-x="350" d="M191 39l85 -19l-4 -20h-216l-2 20l67 13q16 3 23 9.5t10 20.5l13 57l94 445l18 81l-85 19l4 20h216l2 -20l-67 -13q-16 -3 -23 -9.5t-10 -20.5l-13 -57l-94 -445z" />
<glyph unicode="J" horiz-adv-x="340" d="M281 646l-85 19l4 20h216l2 -20l-67 -13q-16 -3 -23 -9.5t-10 -20.5l-13 -57l-104 -490q-13 -63 -34 -104t-52 -73t-77 -68l-14 17q26 28 47 52.5t38.5 52t31 64t24.5 88.5l98 461z" />
<glyph unicode="K" horiz-adv-x="623" d="M191 39l85 -19l-4 -20h-216l-2 20l67 13q16 3 23 9.5t10 20.5l13 57l94 445l18 81l-85 19l4 20h216l2 -20l-67 -13q-16 -3 -23 -9.5t-10 -20.5l-13 -57l-44 -207l130 2l237 286l-85 19l4 20h205l2 -20l-57 -13q-16 -4 -27.5 -11.5t-25.5 -24.5l-224 -270l88 -246 q14 -37 30 -51.5t46 -21.5l31 -7l-4 -20h-45q-43 0 -61.5 18t-30.5 52l-90 255h-130l-43 -205z" />
<glyph unicode="L" horiz-adv-x="532" d="M279 646l-85 19l4 20h216l2 -20l-67 -13q-16 -3 -23 -9.5t-10 -20.5l-13 -57l-94 -445l-19 -90h128q31 0 62.5 1.5t51.5 3.5q16 35 31.5 70.5t31.5 69.5h15q-3 -24 -9 -56t-13.5 -63t-16.5 -56h-415l-2 20l67 13q17 3 24 9.5t10 20.5l12 57l94 445z" />
<glyph unicode="M" horiz-adv-x="985" d="M269 685h128l99 -620l359 620h130l-3 -20l-91 -20l-49 -607l78 -18l-6 -20h-205l2 20l61 13q28 7 30 30l43 537l-266 -460l-81 -140h-34l-22 142l-74 469l-195 -572l81 -19l-6 -20h-200l2 20l61 13q17 4 22.5 10t10.5 20l200 582l-82 20z" />
<glyph unicode="N" horiz-adv-x="720" d="M184 39l105 -19l-4 -20h-229l-2 20l67 13q17 3 23.5 9.5t9.5 20.5l13 57l111 526l-84 19l4 20h119l241 -607l103 487l18 81l-85 19l4 20h209l2 -20l-67 -13q-17 -3 -23.5 -9.5t-9.5 -20.5l-13 -57l-120 -565h-30l-242 605l-102 -485z" />
<glyph unicode="O" horiz-adv-x="575" d="M593 454q0 -55 -13.5 -118t-39 -124t-62.5 -111.5t-85.5 -80.5t-106.5 -30q-83 0 -132.5 65t-49.5 174q0 60 14 125t40.5 125.5t64.5 109.5t87 77.5t107 28.5q81 0 128.5 -64t47.5 -177zM149 235q0 -61 16 -108.5t48.5 -74.5t80.5 -27t87.5 26.5t70.5 71.5t52.5 101 t32.5 116t11 115q0 92 -32.5 148.5t-106.5 56.5q-48 0 -88 -26t-72 -70t-54.5 -99.5t-34 -114.5t-11.5 -115z" />
<glyph unicode="P" horiz-adv-x="524" d="M303 565l-55 -262h74q79 0 128.5 30t73.5 77.5t24 99.5q0 72 -43 106t-118 34h-66zM191 39l105 -19l-4 -20h-236l-2 20l67 13q16 3 23 9.5t10 20.5l13 57l94 445l17 81l-84 19l4 20h191q96 0 150 -43.5t54 -126.5q0 -75 -35 -130t-98 -85t-146 -30h-73l-32 -150z" />
<glyph unicode="Q" horiz-adv-x="568" d="M580 -143q0 -20 -24 -29t-62 -9q-67 0 -141.5 15t-147 45.5t-133.5 74.5l9 18q6 0 12.5 -0.5t12.5 -0.5q100 0 180 39t137 106t87.5 152t30.5 176q0 65 -13.5 113.5t-44.5 75.5t-85 27q-44 0 -85.5 -27.5t-74.5 -76t-52.5 -114t-19.5 -142.5q0 -66 16.5 -120t49.5 -100 l-17 -13q-40 32 -67 90.5t-27 134.5q0 85 23.5 158t63.5 128t91.5 86t106.5 31q86 0 133 -65.5t47 -181.5q0 -90 -29 -176.5t-85.5 -158.5t-138.5 -118t-189 -53q84 -40 172.5 -59t181.5 -19q22 0 40.5 3t35.5 7q6 -6 6 -17z" />
<glyph unicode="R" horiz-adv-x="595" d="M303 565l-51 -240l2 8h62q78 0 127 28.5t72.5 73.5t23.5 92q0 59 -40.5 91t-111.5 32h-66zM191 39l85 -19l-4 -20h-216l-2 20l67 13q16 3 23 9.5t10 20.5l13 57l94 445l17 81l-84 19l4 20h191q92 0 143.5 -40.5t51.5 -114.5q0 -80 -47 -136t-122 -79l70 -215 q13 -40 29.5 -52.5t45.5 -20.5l27 -7l-4 -20h-41q-43 0 -62 17.5t-30 52.5l-75 235q-29 -5 -61 -5h-67l-38 -180z" />
<glyph unicode="S" horiz-adv-x="434" d="M197 -10q-36 0 -68.5 6.5t-53 15.5t-24.5 18q-3 8 -3 18q0 23 8 56t21 64h16q-1 -12 -1 -22.5v-19.5q0 -30 3.5 -45t11.5 -26q15 -19 42 -25.5t56 -6.5q50 0 86.5 22.5t56.5 58.5t20 75q0 37 -16 65.5t-41.5 52.5t-53.5 47t-53.5 48t-41.5 55.5t-16 70.5q0 51 28 91 t74.5 63t100.5 23q57 0 91 -12.5t42 -24.5q2 -4 2 -9q0 -13 -4.5 -36t-11.5 -48t-15 -45h-16q1 14 1.5 26.5t0.5 22.5q0 48 -13 64q-23 27 -85 27q-43 0 -77 -19t-53.5 -50.5t-19.5 -69.5q0 -40 22.5 -71.5t55.5 -59t66 -56.5t55.5 -65.5t22.5 -85.5t-25.5 -93t-73.5 -72 t-117 -28z" />
<glyph unicode="T" horiz-adv-x="543" d="M288 39l85 -19l-4 -20h-216l-2 20l67 13q16 3 23 9.5t10 20.5l13 57l113 533h-74q-33 0 -66 -2.5t-56 -7.5q-8 -16 -16 -34.5t-21 -49.5l-16 -39h-15q5 41 15 86t23 79h508q-1 -34 -11 -81t-21 -84h-15v39v48.5t-1 35.5q-21 5 -53 7.5t-65 2.5h-74l-113 -533z" />
<glyph unicode="U" horiz-adv-x="660" d="M584 235q-27 -127 -93.5 -186t-155.5 -59q-79 0 -131 46.5t-52 130.5q0 17 2 36.5t6 41.5l68 320l18 81l-85 19l4 20h216l2 -20l-67 -13q-16 -3 -23 -9.5t-10 -20.5l-13 -57l-69 -323q-4 -18 -5.5 -35t-1.5 -33q0 -72 43 -110.5t107 -38.5q69 0 125 51t80 161l70 328 l18 81l-85 19l4 20h209l2 -20l-95 -19l-18 -81z" />
<glyph unicode="V" horiz-adv-x="650" d="M328 0h-23l-77 616q-2 17 -8 25t-20 11l-57 13l2 20h205l4 -20l-89 -19l70 -565l309 565l-82 19l4 20h200l2 -20l-55 -13q-17 -4 -27 -12t-19 -24z" />
<glyph unicode="W" horiz-adv-x="985" d="M318 0h-23l-67 616q-2 17 -8 25t-20 11l-57 13l2 20h205l4 -20l-89 -19l61 -564l256 466l-9 68q-2 17 -8 25t-20 11l-57 13l2 20h205l4 -20l-89 -19l70 -564l300 564l-83 19l4 20h200l2 -20l-55 -13q-31 -7 -46 -36l-329 -616h-23l-61 491z" />
<glyph unicode="X" horiz-adv-x="641" d="M221 0h-205l-2 20q14 3 28 6.5t27 6.5q17 4 28.5 11t26.5 25l235 280l-114 267q-7 18 -15 25t-23 11q-12 3 -24 6.5t-24 6.5l2 20h200l4 -20l-89 -19l116 -270l223 270l-83 19l4 20h205l2 -20q-13 -3 -27 -6.5t-28 -6.5q-19 -4 -29 -12t-24 -24l-228 -273l117 -274 q8 -19 14 -26t19 -10t26 -6.5t26 -6.5l-2 -20h-200l-4 20l90 19l-119 277l-231 -277l82 -19z" />
<glyph unicode="Y" horiz-adv-x="614" d="M324 39l85 -19l-4 -20h-216l-2 20l67 13q16 3 23 9.5t10 20.5l13 57l13 60q10 47 9 108.5t-11 125.5t-26 119t-35.5 88.5t-39.5 33.5q-19 0 -43.5 -32t-46.5 -70l-13 5q13 33 30.5 64.5t39 52t47.5 20.5q27 0 51.5 -34t43.5 -91.5t30.5 -128.5t12.5 -144q37 76 76.5 147 t78 128t74 90t63.5 33q23 0 37.5 -20t22 -50t8.5 -62l-13 -5q-10 42 -24 69.5t-36 27.5q-15 0 -40 -24.5t-55.5 -65.5t-62 -92t-59.5 -104.5t-48.5 -102.5t-28.5 -86l-13 -60z" />
<glyph unicode="Z" horiz-adv-x="562" d="M479 0h-420l1 30l507 625h-203q-31 0 -62 -1.5t-53 -3.5l-60 -130h-15q3 42 12.5 86.5t22.5 78.5h411l-2 -30l-506 -625h213q31 0 62 1.5t52 3.5l62 130h15q-4 -40 -14.5 -84.5t-22.5 -80.5z" />
<glyph unicode="[" horiz-adv-x="378" d="M261 -193h-169l202 953h169l-5 -24h-127l-192 -905h127z" />
<glyph unicode="\" horiz-adv-x="474" d="M338 -10l-108 754l9 8l30 3l109 -754l-8 -8z" />
<glyph unicode="]" horiz-adv-x="378" d="M214 760h169l-202 -953h-169l5 24h127l192 905h-127z" />
<glyph unicode="^" horiz-adv-x="526" d="M100 210h-46l214 335h56l75 -335h-43l-67 299z" />
<glyph unicode="_" horiz-adv-x="486" d="M5 -145l8 35h390l-8 -35h-390z" />
<glyph unicode="`" horiz-adv-x="408" d="M370 592l-13 -11q-30 25 -63.5 53.5t-55 54.5t-18.5 43q2 10 11.5 16.5t25.5 6.5h4l5 -2q11 -31 40.5 -74.5t63.5 -86.5z" />
<glyph unicode="a" horiz-adv-x="465" d="M357 120q-4 -22 -7 -37.5t-3 -25.5q0 -12 4 -19.5t14 -7.5q13 0 29.5 15.5t34.5 39t34 47.5l8 -5q-13 -28 -32 -60t-42 -54.5t-48 -22.5q-23 0 -33 15.5t-10 40.5q0 13 3 31t8 43l31 140q-19 -40 -44 -86.5t-54 -88.5t-59.5 -68.5t-60.5 -26.5q-28 0 -47 28t-19 82 q0 80 24 153t64.5 130t91.5 89.5t106 32.5q26 0 49 -6t39 -14zM106 101q0 -31 9.5 -51t26.5 -20q20 0 46.5 26t55 67t54.5 87.5t45.5 88.5t28.5 68l20 92q-17 9 -33 12.5t-39 3.5q-38 0 -76 -30t-69 -82t-50 -119.5t-19 -142.5z" />
<glyph unicode="b" horiz-adv-x="424" d="M368 505q34 1 52 -31t18 -89q0 -78 -20.5 -149t-55.5 -126.5t-80 -87.5t-94 -32q-26 0 -51.5 5.5t-58.5 15.5l137 623l16 72l-75 11v10q28 8 57 15t58 12l8 -8l-24 -112q-21 -93 -41 -186l-40 -186q13 28 33 68.5t44.5 80.5t54 66.5t62.5 27.5zM355 465 q-20 0 -43.5 -23.5t-47.5 -60.5t-46 -79t-39.5 -79.5t-27.5 -61.5l-27 -123q16 -8 34.5 -12t44.5 -4q41 0 76 30.5t61.5 82.5t41 116.5t14.5 131.5q0 82 -41 82z" />
<glyph unicode="c" horiz-adv-x="342" d="M311 505q36 0 55.5 -23.5t19.5 -59.5q0 -29 -13.5 -55.5t-33.5 -26.5q-6 0 -12 4q7 13 13 32.5t6 40.5q0 25 -11 40.5t-38 15.5q-33 0 -65.5 -29t-59 -77.5t-42.5 -107t-16 -118.5q0 -53 19 -84.5t59 -31.5q32 0 69 29t77 78l8 -5q-31 -55 -74 -96t-92 -41 q-57 0 -82.5 39.5t-25.5 110.5q0 69 20.5 134.5t55 117.5t77 82.5t86.5 30.5z" />
<glyph unicode="d" horiz-adv-x="465" d="M357 120q-4 -22 -7 -37.5t-3 -25.5q0 -12 4 -19.5t14 -7.5q13 0 29.5 15.5t34.5 39t34 47.5l8 -5q-13 -28 -32 -60t-42 -54.5t-48 -22.5q-23 0 -33 15.5t-10 40.5q0 13 3 31t8 43l32 142q-19 -40 -44 -87t-54 -89t-60 -69t-61 -27q-28 0 -47 28t-19 82q0 80 24 153 t64.5 130t91.5 89.5t106 32.5q26 0 52 -7l30 136l16 72l-95 11v10q28 8 67 15t68 12l8 -8l-24 -112zM142 30q18 0 41 20.5t47.5 54t48.5 74t44.5 80t34.5 72t18 50.5l17 78q-18 9 -34 12.5t-39 3.5q-38 0 -76 -30t-69 -82t-50 -119.5t-19 -142.5q0 -31 9.5 -51t26.5 -20z " />
<glyph unicode="e" horiz-adv-x="348" d="M341 127q-32 -57 -74.5 -97t-91.5 -40q-52 0 -77 42.5t-25 117.5q0 65 20 128t54 114t76 82t85 31q37 0 55 -21t18 -56q0 -42 -24 -76.5t-62.5 -60t-83.5 -40t-87 -17.5q-9 -44 -9 -86q0 -55 18 -89t55 -34q32 0 68.5 29t76.5 78zM297 473q-35 0 -68 -29.5t-59 -78 t-41 -106.5q60 6 107.5 30.5t75 60t27.5 76.5q0 20 -11 33.5t-31 13.5z" />
<glyph unicode="f" horiz-adv-x="292" d="M138 -8q-24 -112 -72 -179.5t-119 -67.5q-37 0 -61 18t-24 42q0 11 5 18.5t12 11.5q15 -21 38 -39t52 -18q51 0 78 53t47 149l102 480h-72l2 12l76 18v0l4 18q25 118 73.5 182.5t116.5 64.5q38 0 61.5 -18t23.5 -42q0 -10 -5 -18t-12 -12q-15 21 -38 39t-52 18 q-51 0 -78 -53t-47 -149l-6 -30h130l-6 -30h-131z" />
<glyph unicode="g" horiz-adv-x="365" d="M265 505q57 0 103.5 3t76.5 10q5 -8 5 -18q0 -12 -8.5 -22t-29.5 -10q-14 0 -37.5 3.5t-55.5 9.5q23 -18 32 -43.5t9 -55.5q0 -57 -20 -101.5t-49.5 -78.5t-59 -60t-49.5 -45.5t-20 -34.5q0 -13 12.5 -23t34.5 -24q56 -35 87 -61t31 -65q0 -31 -23 -64.5t-69 -56.5 t-116 -23t-110.5 31.5t-40.5 74.5q0 35 22.5 64t60.5 57l8 -8q-20 -23 -34.5 -48t-14.5 -54q0 -28 17.5 -47t46.5 -28.5t61 -9.5q67 0 108.5 30.5t41.5 74.5q0 26 -20.5 46.5t-64.5 46.5q-34 21 -57.5 37t-23.5 40q0 22 24 44t65 58q-8 -1 -15 -1q-48 0 -78 34.5t-30 92.5 q0 61 25 112t66 82t89 31zM127 289q0 -49 21.5 -78.5t52.5 -29.5q30 0 57 27.5t43.5 73t16.5 99.5q0 43 -17 68.5t-49 25.5q-34 0 -62.5 -27.5t-45.5 -70t-17 -88.5z" />
<glyph unicode="h" horiz-adv-x="473" d="M78 11l24 109l113 515l16 72l-75 11v10q28 8 57 15t58 12l8 -8l-24 -112q-21 -96 -43 -192.5t-45 -192.5q67 135 117.5 195t95.5 60q29 0 42.5 -21t13.5 -50q0 -24 -7.5 -62t-19.5 -82.5l-24 -89t-21 -80.5q-4 -22 -7 -37.5t-3 -25.5q0 -12 4 -19.5t14 -7.5 q13 0 29.5 15.5t34.5 39t34 47.5l8 -5q-13 -28 -32 -60t-42 -54.5t-48 -22.5q-23 0 -33 15.5t-10 40.5q0 13 3 31t8 43q8 37 20 81t24 87.5t20 80t8 57.5q0 17 -7 28t-24 11q-21 0 -45.5 -22.5t-49.5 -58.5t-48 -77t-41 -79t-29 -64l-10 -44l-26 -123l-16 -4q-3 -1 -8 -2 t-9 -1q-7 0 -6.5 7t1.5 14z" />
<glyph unicode="i" horiz-adv-x="278" d="M253 618q-13 0 -21 8.5t-8 22.5q0 25 12.5 42t31.5 17q13 0 21 -8t8 -22q0 -25 -12.5 -42.5t-31.5 -17.5zM169 120q-4 -22 -7 -37.5t-3 -25.5q0 -12 4 -19.5t14 -7.5q13 0 29.5 15.5t34.5 39t34 47.5l8 -5q-13 -28 -32 -60t-42 -54.5t-48 -22.5q-23 0 -33 15.5t-10 40.5 q0 13 3 31t8 43q8 38 19 83l22 90t20 82q5 23 7.5 38t2.5 25q0 12 -3.5 19.5t-14.5 7.5q-12 0 -29 -15.5t-34.5 -38.5t-34.5 -48l-8 5q13 29 32 60.5t42.5 54t47.5 22.5q23 0 33 -15.5t10 -40.5q0 -13 -3 -30.5t-8 -43.5q-8 -39 -19.5 -84.5t-22.5 -89.5t-19 -81z" />
<glyph unicode="j" horiz-adv-x="237" d="M243 618q-13 0 -21 8.5t-8 22.5q0 25 12.5 42t31.5 17q13 0 21 -8t8 -22q0 -25 -12.5 -42.5t-31.5 -17.5zM183 375q5 23 7.5 38t2.5 25q0 12 -3.5 19.5t-14.5 7.5q-12 0 -29 -15.5t-34.5 -38.5t-34.5 -48l-8 5q13 29 32 60.5t42.5 54t47.5 22.5q23 0 33 -15.5t10 -40.5 q0 -13 -3 -30.5t-8 -43.5l-80 -383q-23 -112 -71.5 -179.5t-119.5 -67.5q-37 0 -61 18t-24 42q0 11 5 18.5t12 11.5q15 -21 38 -39t52 -18q51 0 78 53t47 149z" />
<glyph unicode="k" horiz-adv-x="454" d="M78 11l24 109l113 514l16 72l-75 11v10q28 8 57 15t58 12l8 -8l-24 -112q-21 -95 -43 -190.5t-44 -190.5q58 125 116.5 189t112.5 63q36 -1 53.5 -21.5t17.5 -49.5q0 -36 -21 -69t-53.5 -61t-68.5 -49.5t-66 -34.5q32 -80 53 -121t35 -55t26 -14q10 0 27 15.5t36 39 t36 47.5l8 -5q-13 -28 -32.5 -60t-42.5 -54.5t-45 -22.5q-21 0 -41.5 20t-44 70t-55.5 140l5 8q33 12 68.5 32t65.5 46.5t49 58.5t19 66q0 16 -9.5 27.5t-29.5 11.5q-52 0 -111 -77.5t-124 -228.5l-10 -44l-26 -123l-16 -4q-3 -1 -8 -2t-9 -1q-7 0 -6.5 7t1.5 14z" />
<glyph unicode="l" horiz-adv-x="250" d="M142 120q-4 -22 -7 -37.5t-3 -25.5q0 -12 4 -19.5t14 -7.5q13 0 29.5 15.5t34.5 39t34 47.5l8 -5q-13 -28 -32 -60t-42 -54.5t-48 -22.5q-23 0 -33 15.5t-10 40.5q0 13 3 31t8 43l113 514l16 72l-75 11v10q28 8 57 15t58 12l8 -8l-24 -112z" />
<glyph unicode="m" horiz-adv-x="729" d="M110 11l24 109l56 255q10 43 10 63q0 12 -3.5 19.5t-14.5 7.5q-12 0 -29 -15.5t-34.5 -38.5t-34.5 -48l-8 5q13 29 32 60.5t42.5 54t47.5 22.5q23 0 33 -15.5t10 -40.5q0 -16 -9.5 -64.5t-24.5 -110.5q19 35 42 75.5t48.5 75.5t54.5 57.5t60 22.5q29 0 42.5 -21t13.5 -50 q0 -24 -8.5 -64.5t-24.5 -99.5q18 36 41 77t48.5 77t54 58.5t57.5 22.5t42.5 -21t13.5 -50q0 -24 -7.5 -62t-19.5 -82.5l-24 -89t-21 -80.5q-4 -22 -7 -37.5t-3 -25.5q0 -12 4 -19.5t14 -7.5q13 0 29.5 15.5t34.5 39t34 47.5l8 -5q-13 -28 -32 -60t-42 -54.5t-48 -22.5 q-23 0 -33 15.5t-10 40.5q0 13 3 31t8 43q8 37 20 81t24 87.5t20 80t8 57.5q0 17 -7 28t-24 11q-21 0 -46 -23t-50 -60t-48.5 -78.5t-41.5 -79.5t-28 -62l-11 -42l-26 -123l-16 -4q-3 -1 -8 -2t-9 -1q-7 0 -6.5 7t1.5 14l24 109q8 37 20 81t24 87.5t20 80t8 57.5q0 17 -7 28 t-24 11q-21 0 -45.5 -22.5t-49.5 -58.5t-48 -77t-41 -79t-29 -64l-10 -44l-26 -123l-16 -4q-3 -1 -8 -2t-9 -1q-7 0 -6.5 7t1.5 14z" />
<glyph unicode="n" horiz-adv-x="505" d="M110 11l24 109q14 64 28 127.5t28 127.5q10 43 10 63q0 12 -3.5 19.5t-14.5 7.5q-12 0 -29 -15.5t-34.5 -38.5t-34.5 -48l-8 5q13 29 32 60.5t42.5 54t47.5 22.5q23 0 33 -15.5t10 -40.5q0 -23 -11.5 -76t-24.5 -115q17 33 39.5 75.5t49.5 81.5t57 64.5t61 25.5 q29 0 42.5 -21t13.5 -50q0 -24 -7.5 -62t-19.5 -82.5l-24 -89t-21 -80.5q-4 -22 -7 -37.5t-3 -25.5q0 -12 4 -19.5t14 -7.5q13 0 29.5 15.5t34.5 39t34 47.5l8 -5q-13 -28 -32 -60t-42 -54.5t-48 -22.5q-23 0 -33 15.5t-10 40.5q0 13 3 31t8 43q8 37 20 81t24 87.5t20 80 t8 57.5q0 17 -7 28t-24 11q-21 0 -45 -22t-48.5 -58t-47.5 -76.5t-41.5 -78.5t-29.5 -64l-11 -46l-26 -123l-16 -4q-3 -1 -8 -2t-9 -1q-7 0 -6.5 7t1.5 14z" />
<glyph unicode="o" horiz-adv-x="394" d="M397 335q0 -71 -17 -133.5t-46.5 -110t-67 -74.5t-77.5 -27q-51 0 -81.5 48.5t-30.5 124.5q0 67 17.5 128.5t47.5 109.5t67.5 76t77.5 28q55 0 82.5 -46t27.5 -124zM119 169q0 -68 21 -107.5t56 -39.5q33 0 62 26t51 70.5t34 100.5t12 117q0 59 -16.5 98t-56.5 39 q-33 0 -62.5 -27t-52 -71.5t-35.5 -98.5t-13 -107z" />
<glyph unicode="p" horiz-adv-x="456" d="M56 -234l24 109l110 500q10 43 10 63q0 12 -3.5 19.5t-14.5 7.5q-12 0 -29 -15.5t-34.5 -38.5t-34.5 -48l-8 5q13 29 32 60.5t42.5 54t47.5 22.5q23 0 33 -15.5t10 -40.5q0 -16 -6 -48t-14 -69.5t-15 -69.5q13 28 33 68.5t44.5 80.5t54 66.5t62.5 27.5q34 1 52 -31 t18 -89q0 -78 -20.5 -149t-55.5 -126.5t-80 -87.5t-94 -32q-34 0 -72 10l-28 -125l-26 -123l-16 -4q-3 -1 -8 -2t-9 -1q-7 0 -6.5 7t1.5 14zM387 465q-20 0 -43 -23t-46.5 -59t-45.5 -77.5t-39.5 -80t-28.5 -63.5l-28 -124q17 -8 35.5 -12t43.5 -4q41 0 76 30.5t61.5 82.5 t41 116.5t14.5 131.5q0 82 -41 82z" />
<glyph unicode="q" horiz-adv-x="413" d="M240 -234l24 109l84 385q-19 -40 -44 -86.5t-54 -88.5t-59.5 -68.5t-60.5 -26.5q-28 0 -47 28t-19 82q0 80 24 153t64.5 130t91.5 89.5t106 32.5q26 0 49 -6t39 -14l-134 -610l-26 -123l-16 -4q-3 -1 -8 -2t-9 -1q-7 0 -6.5 7t1.5 14zM106 101q0 -31 9.5 -51t26.5 -20 q20 0 46.5 26t55 67t54.5 87.5t45.5 88.5t28.5 68l20 92q-17 9 -33 12.5t-39 3.5q-38 0 -76 -30t-69 -82t-50 -119.5t-19 -142.5z" />
<glyph unicode="r" horiz-adv-x="380" d="M110 11l24 109q24 107 37 169t19.5 92t8 41t1.5 16q0 12 -3.5 19.5t-14.5 7.5q-12 0 -29 -15.5t-34.5 -38.5t-34.5 -48l-8 5q13 29 32 60.5t42.5 54t47.5 22.5q23 0 33 -15.5t10 -40.5q0 -19 -9.5 -67.5t-23.5 -106.5q18 38 38.5 78t44 74.5t50 56t54.5 21.5 q23 0 36 -11.5t13 -26.5q0 -13 -6 -22.5t-11 -14.5q-9 11 -21 20.5t-28 9.5q-21 0 -46.5 -26.5t-50.5 -67t-46 -83.5t-35 -77t-17 -46l-9 -40l-26 -123l-16 -4q-3 -1 -8 -2t-9 -1q-7 0 -6.5 7t1.5 14z" />
<glyph unicode="s" horiz-adv-x="354" d="M322 127q0 -58 -40.5 -97.5t-105.5 -39.5q-53 0 -88 28t-35 71q0 30 15 53.5t34 38.5l7 -5q-8 -18 -13 -36.5t-5 -39.5q0 -37 26.5 -58.5t66.5 -21.5t68 24.5t28 70.5q0 31 -15.5 56.5t-38 48.5t-45.5 47t-38.5 51.5t-15.5 63.5q0 35 17.5 62.5t47.5 44t67 16.5 q50 0 79.5 -25t29.5 -60q0 -29 -12.5 -54.5t-29.5 -42.5l-8 6q12 41 12 68q0 40 -19.5 60t-54.5 20q-36 0 -61.5 -25t-25.5 -65q0 -31 15.5 -57t38.5 -49.5t45.5 -47t38 -49.5t15.5 -57z" />
<glyph unicode="t" horiz-adv-x="324" d="M180 -10q-32 0 -50.5 24t-18.5 67q0 14 1.5 31.5t5.5 35.5l67 312h-87l2 12l91 18l59 149l13 -1l-32 -148h155l-6 -30h-155l-67 -312q-7 -32 -7 -62q0 -61 44 -61q32 0 69.5 29t77.5 78l8 -5q-32 -57 -76 -97t-94 -40z" />
<glyph unicode="u" horiz-adv-x="513" d="M405 120q-4 -22 -7 -37.5t-3 -25.5q0 -12 4 -19.5t14 -7.5q13 0 29.5 15.5t34.5 39t34 47.5l8 -5q-13 -28 -32 -60t-42 -54.5t-48 -22.5q-23 0 -33 15.5t-10 40.5q0 13 3 31t8 43l26 117q-9 -18 -25 -48t-36.5 -64t-45 -65t-50.5 -50.5t-52 -19.5q-28 0 -41.5 21.5 t-13.5 49.5q0 24 7.5 62t19.5 82.5l24 89t21 80.5q5 23 7.5 38t2.5 25q0 12 -3.5 19.5t-14.5 7.5q-12 0 -29 -15.5t-34.5 -38.5t-34.5 -48l-8 5q13 29 32 60.5t42.5 54t47.5 22.5q23 0 33 -15.5t10 -40.5q0 -13 -3 -30.5t-8 -43.5q-8 -37 -20 -81l-24 -88t-20 -80t-8 -57 q0 -17 6.5 -28t20.5 -11q19 0 43.5 22.5t50.5 58t50 76.5t43 79t30 65l10 44l26 123l16 4q3 1 8 2t9 1q8 0 7.5 -6.5t-2.5 -14.5l-24 -109z" />
<glyph unicode="v" horiz-adv-x="380" d="M159 0h-10q11 138 18 235.5t7 154.5q0 75 -32 75q-21 0 -47.5 -31t-53.5 -71l-8 5q15 32 34 63.5t41.5 52.5t47.5 21q29 0 43 -28.5t14 -81.5q0 -36 -3 -91.5t-8.5 -117t-11.5 -115.5q51 67 93 141.5t67 143.5t25 120v24q8 5 19 5q27 0 27 -35q0 -26 -15 -68.5t-40.5 -95 t-59 -108t-71.5 -107t-76 -91.5z" />
<glyph unicode="w" horiz-adv-x="608" d="M393 390v9v7q-20 -68 -54.5 -140t-80.5 -140.5t-99 -125.5h-10q11 138 18 235.5t7 154.5q0 75 -32 75q-21 0 -47.5 -31t-53.5 -71l-8 5q15 32 34 63.5t41.5 52.5t47.5 21q29 0 43 -28.5t14 -81.5q0 -36 -3 -91.5t-8.5 -117t-11.5 -115.5q60 80 101 158t63.5 148t28.5 125 q8 3 17 3q18 0 25 -18.5t7 -76.5q0 -40 -3 -98t-8.5 -121.5t-11.5 -119.5q52 68 96.5 142.5t71.5 145t27 126.5v15q8 5 19 5q12 0 20 -7.5t8 -22.5q0 -25 -15.5 -67.5t-43 -95.5t-62.5 -109.5t-74 -109t-78 -93.5h-10q11 138 18 235.5t7 154.5z" />
<glyph unicode="x" horiz-adv-x="424" d="M294 155q12 -51 19.5 -78t14.5 -37t16 -10q10 0 24.5 15.5t31 39.5t31.5 47l8 -5q-13 -30 -31 -62t-37.5 -53.5t-39.5 -21.5q-18 0 -30 15t-22 51t-25 99l-17 72q-32 -36 -63 -72t-50.5 -73.5t-19.5 -76.5v-15q-8 -5 -18 -5t-17.5 7.5t-7.5 22.5q0 29 25.5 68.5 t64.5 83.5t80 85l-20 88q-12 51 -19.5 78t-14 37t-16.5 10t-25 -15.5t-31 -39t-31 -47.5l-8 5q13 31 31 62.5t38 53t39 21.5t30.5 -15t22 -51t24.5 -99l16 -69q32 35 62 71t49.5 73t19.5 75v15q2 2 7 3.5t11 1.5q25 0 25 -30q0 -28 -25 -67.5t-63.5 -83t-79.5 -84.5z" />
<glyph unicode="y" horiz-adv-x="385" d="M148 505q70 0 70 -165q0 -62 -13 -149.5t-39 -173.5q95 86 150 197t55 232q0 36 -4 53q6 6 17 6q33 0 33 -57q0 -49 -17 -109.5t-50.5 -125t-83 -126.5t-114.5 -114q-22 -63 -51.5 -114.5t-67 -82.5t-82.5 -31q-33 0 -52.5 15t-19.5 35q0 11 5 18.5t12 11.5 q13 -19 30 -30.5t41 -11.5q40 0 69.5 29.5t52 78.5t38.5 107q18 61 28.5 125t15.5 120t5 92q0 68 -12 99t-29 31q-19 0 -41.5 -31t-46.5 -71l-8 5q12 32 29 63.5t37.5 52.5t42.5 21z" />
<glyph unicode="z" horiz-adv-x="387" d="M119 20q-40 0 -70 -30l-18 18q55 73 105.5 138.5t100 130.5t100.5 139q-39 19 -81 32.5t-64 13.5q-28 0 -48 -25.5t-46 -73.5l-10 5q15 42 26 72.5t26 47.5t39 17q34 0 81.5 -21.5t89.5 -48.5q24 35 47 70q14 -3 19 -10.5t5 -15.5q0 -10 -4.5 -18t-12.5 -20 q-51 -71 -100 -134t-101 -127.5t-112 -139.5q25 10 53 10q14 0 42 -5l56 -10t42 -5t24.5 11t23.5 30q9 13 19 28t21 33l8 -5q-6 -16 -13 -34t-15 -34q-14 -30 -28 -49.5t-35 -19.5t-52.5 7.5l-63 15t-54.5 7.5z" />
<glyph unicode="{" horiz-adv-x="403" d="M289 -175l-5 -18q-68 0 -104.5 25.5t-36.5 72.5q0 35 14 74t33 78.5t33 76.5t14 68q0 32 -19 49.5t-54 17.5h-15l6 26h15q46 0 71.5 23.5t35.5 63t10 85.5q0 20 -0.5 38.5t-0.5 37.5q0 105 46.5 159.5t151.5 54.5v-18q-88 -6 -121.5 -51.5t-33.5 -142.5q0 -16 0.5 -33 t0.5 -34q0 -77 -22.5 -127t-76.5 -69q26 -12 37 -32.5t11 -45.5q0 -30 -14 -70t-33 -83t-33 -81.5t-14 -64.5q0 -37 24.5 -56.5t79.5 -23.5z" />
<glyph unicode="|" horiz-adv-x="318" d="M85 -252l-5 7l211 992l24 5l5 -7l-211 -992z" />
<glyph unicode="}" horiz-adv-x="403" d="M210 739l5 18q68 0 104.5 -25.5t36.5 -72.5q0 -35 -14 -74t-33 -78.5t-33 -76.5t-14 -68q0 -32 19.5 -49.5t53.5 -17.5h15l-6 -26h-15q-46 0 -71.5 -23.5t-35.5 -62.5t-10 -86q0 -19 0.5 -38t0.5 -38q0 -105 -46.5 -159.5t-151.5 -54.5v18q89 6 122 51.5t33 142.5 q0 17 -0.5 33.5t-0.5 33.5q0 77 22.5 127t76.5 69q-26 12 -37 32.5t-11 45.5q0 30 14 70t33 83t33 81.5t14 64.5q0 38 -24.5 57t-79.5 23z" />
<glyph unicode="~" horiz-adv-x="520" d="M191 292q-9 0 -30 -19t-46 -43l-22 15q15 19 33.5 39t37.5 34.5t37 14.5q13 0 44 -8.5t67.5 -19t68 -19t46.5 -8.5q9 0 30 18.5t46 43.5l22 -15q-14 -18 -32.5 -38.5t-37.5 -35t-38 -14.5q-10 0 -33 5.5t-52 14t-57.5 16.5t-51 13.5t-32.5 5.5z" />
<glyph unicode="&#xa1;" horiz-adv-x="279" d="M233 505q13 0 21 -8.5t8 -22.5q0 -25 -12.5 -42t-31.5 -17q-13 0 -21 8.5t-8 21.5q0 26 12.5 43t31.5 17zM122 -191l-4 -3q-10 -2 -22 -3t-22 -1q-12 0 -12 9q0 3 4 19.5t13 48.5l106 426h28z" />
<glyph unicode="&#xa2;" horiz-adv-x="433" d="M210 -137l-28 -3l-6 7l26 124q-61 5 -89 48.5t-28 110.5q0 63 19.5 127.5t53 120.5t76.5 94.5t90 49.5l29 135l28 3l6 -7l-28 -128q41 -2 64.5 -29t23.5 -71q0 -37 -13.5 -67.5t-33.5 -30.5q-7 0 -10.5 1.5t-5.5 2.5q7 16 13 40t6 49q0 32 -15.5 51.5t-45.5 19.5 q-37 0 -74.5 -32.5t-68.5 -86t-50 -116t-19 -122.5q0 -55 24 -91t75 -36q39 0 81 32t84 84l8 -6q-28 -55 -71 -96.5t-93 -49.5z" />
<glyph unicode="&#xa3;" horiz-adv-x="549" d="M462 298h-192l-19 -89q-10 -49 -26.5 -99t-41.5 -83q31 -13 70 -33t80.5 -39.5t83 -32.5t77.5 -13q21 0 36 3.5t27 9.5q3 -7 3 -17q0 -21 -20.5 -31t-51.5 -10q-39 0 -81.5 16t-85.5 39t-83.5 46.5t-77.5 38.5q-24 -20 -52 -20q-14 0 -23.5 6.5t-9.5 18.5q0 16 14.5 25 t35.5 9q13 0 33 -7q18 28 29.5 71t24.5 102q5 22 9.5 44.5t9.5 44.5h-116l8 35h115q7 29 13 57.5t12 57.5q24 113 71.5 180t117.5 67q34 0 60 -15t40.5 -37.5t14.5 -45.5q0 -16 -8 -24.5t-19 -11.5q-12 47 -37 74t-63 27q-55 0 -85 -53t-51 -149l-27 -127h193z" />
<glyph unicode="&#xa4;" horiz-adv-x="541" d="M497 149l-24 -16l-57 72q-27 -19 -59.5 -30.5t-66.5 -11.5q-33 0 -58.5 9t-44.5 25l-78 -64l-22 28l77 63q-24 37 -24 87q0 44 21.5 85t56.5 71l-52 69l28 22q14 -17 27.5 -34t27.5 -34q25 15 54 24t59 9q34 0 61 -10t45 -28l88 73l22 -28l-88 -72q21 -35 22 -83 q0 -41 -18.5 -79t-49.5 -68q16 -20 30 -37t25 -31zM182 311q0 -44 28 -78.5t86 -34.5q47 0 86.5 26t63.5 66.5t24 84.5t-28 78.5t-86 34.5q-47 0 -86.5 -26t-63.5 -66.5t-24 -84.5z" />
<glyph unicode="&#xa5;" horiz-adv-x="678" d="M158 132l8 35h176l4 18q8 34 9 80h-169l8 35h161q-2 60 -12 122t-26 115t-35.5 85.5t-39.5 32.5q-19 0 -43.5 -32t-46.5 -70l-13 5q13 33 30.5 64.5t39 52t47.5 20.5q27 0 51.5 -33.5t44 -90.5t31 -127t12.5 -142q37 75 76 145t78 126t74 89t63 33q23 0 37.5 -20t22 -50 t8.5 -62l-13 -5q-10 42 -24 69.5t-36 27.5q-14 0 -37 -21.5t-51 -58.5t-57.5 -83t-57 -95.5t-48.5 -96.5h164l-8 -35h-171q-20 -47 -27 -80l-4 -18h182l-8 -35h-181l-3 -12l-18 -81l85 -19l-4 -20h-216l-2 20l67 13q16 3 23 9.5t10 20.5l13 57l3 12h-177z" />
<glyph unicode="&#xa6;" horiz-adv-x="318" d="M242 379l-24 -5l-5 7l78 366l24 5l5 -7zM109 -247l-24 -5l-5 7l78 366l24 5l5 -7z" />
<glyph unicode="&#xa7;" horiz-adv-x="522" d="M461 101q0 -55 -24 -104.5t-65.5 -87t-96 -59t-116.5 -21.5q-58 0 -93 21t-35 47q0 36 37 52l11 -2q26 -35 65 -57.5t92 -25.5q20 16 35.5 43.5t24.5 58t9 56.5q0 41 -17.5 81.5t-41.5 79.5q-7 11 -14 23t-14 23q-25 41 -47.5 91t-22.5 108q0 54 24 102.5t65.5 85.5 t96.5 58t116 21q56 0 91.5 -21t36.5 -47q0 -16 -10 -30t-27 -22l-11 2q-23 36 -62 58.5t-93 24.5q-20 -16 -36 -43t-25.5 -57t-9.5 -57q0 -41 17.5 -82t41.5 -80q7 -11 14 -23t14 -23q26 -43 48 -90t22 -104zM304 -98l6 -4q50 33 78.5 84t28.5 107q0 48 -19 92.5t-46 86.5 q-7 11 -13.5 22t-13.5 21q-26 44 -45.5 88.5t-19.5 93.5q0 73 46 129l-6 4q-51 -33 -79 -83t-28 -106q0 -48 19 -92t45 -88q7 -11 13.5 -22t13.5 -22q26 -43 45.5 -89t19.5 -94q0 -34 -12.5 -68t-32.5 -60z" />
<glyph unicode="&#xa8;" horiz-adv-x="458" d="M448 678q0 -22 -12 -39.5t-29 -17.5q-13 0 -21 8.5t-8 24.5q0 20 11.5 38t30.5 18q14 0 21 -9t7 -23zM258 678q0 -22 -12 -39.5t-29 -17.5q-13 0 -21 8.5t-8 24.5q0 20 11.5 38t30.5 18q14 0 21 -9t7 -23z" />
<glyph unicode="&#xa9;" horiz-adv-x="716" d="M341 -45q-72 0 -125.5 31t-83.5 86.5t-30 126.5q0 72 27.5 134.5t76 110t112.5 74.5t137 27q71 0 125 -31t85 -86t31 -127t-27.5 -134.5t-76.5 -110t-113 -74.5t-138 -27zM447 507q-63 0 -118.5 -24t-98 -66t-66.5 -96.5t-24 -116.5q0 -61 26 -109t73.5 -75t111.5 -27 q63 0 118.5 24t98 66t66.5 96.5t24 116.5t-26.5 109.5t-73.5 74.5t-111 27zM484 177q-24 -43 -55 -70t-63 -27q-49 0 -69.5 29t-20.5 75q0 44 16 85.5t42 76t57.5 54.5t61.5 20q35 0 50 -22.5t15 -47.5q0 -20 -9 -35t-23 -15q-4 0 -6.5 1.5t-4.5 2.5q3 7 5.5 17.5t2.5 22.5 q0 20 -8.5 32.5t-31.5 12.5q-30 0 -58.5 -30t-47.5 -77t-19 -98q0 -31 12 -52t43 -21q26 0 51 18t52 53z" />
<glyph unicode="&#xaa;" horiz-adv-x="376" d="M455 458q-10 -22 -25 -47t-33 -42.5t-38 -17.5q-18 0 -26.5 12.5t-8.5 32.5q0 18 9 58l22 105q-15 -31 -34 -67t-41.5 -68t-46 -52.5t-46.5 -20.5q-22 0 -37.5 23t-15.5 66q0 62 18.5 118t50 100t71 69.5t82.5 25.5q21 0 39.5 -4.5t31.5 -11.5v-1l-61 -282q-3 -16 -5 -27 t-2 -19q0 -10 2.5 -17.5t11.5 -7.5q14 0 35 25.5t40 53.5zM169 442q0 -25 8 -41.5t21 -16.5q15 0 35 19.5t41 50.5t40.5 66t35 67.5t22.5 53.5l17 76q-13 6 -25.5 9t-30.5 3q-28 0 -57 -23t-53.5 -63t-39 -91.5t-14.5 -109.5z" />
<glyph unicode="&#xab;" horiz-adv-x="539" d="M247 28l-18 -8q-17 42 -37.5 82.5t-39 72t-29.5 46.5l-3 6l9 40q41 36 94 92.5t106 117.5l13 -9q-34 -51 -81 -110.5t-96 -118.5q17 -36 40.5 -94.5t41.5 -116.5zM447 28l-18 -8q-17 42 -37.5 82.5t-39 72t-29.5 46.5l-3 6l9 40q41 36 94 92.5t106 117.5l13 -9 q-34 -51 -81 -110.5t-96 -118.5q17 -36 40.5 -94.5t41.5 -116.5z" />
<glyph unicode="&#xac;" d="M557 440l-43 -203h-40l36 171h-370l7 35q35 1 88 2t112.5 1.5t113.5 1t89 0.5z" />
<glyph unicode="&#xae;" horiz-adv-x="716" d="M341 -45q-72 0 -125.5 31t-83.5 86.5t-30 126.5q0 72 27.5 134.5t76.5 110t113.5 74.5t137.5 27q72 0 126 -31t83.5 -86t29.5 -127t-27.5 -134.5t-76.5 -110t-113 -74.5t-138 -27zM447 507q-63 0 -118.5 -24t-98 -66t-66.5 -96.5t-24 -116.5q0 -61 26 -109t73.5 -75 t111.5 -27q63 0 118.5 24t98 66t66.5 96.5t24 116.5t-26 109.5t-73.5 74.5t-111.5 27zM369 331l-18 -85h51q46 0 73 22t27 56q0 56 -82 56h-40zM367 91h-137l4 22l35 8q10 2 14 6.5t6 12.5l8 41l32 150l11 47l-47 12l4 20h135q53 0 83 -20.5t30 -61.5q0 -38 -24.5 -63.5 t-63.5 -38.5l27 -59q8 -19 16 -31t21 -17l23 -8l-3 -20l-28 -1q-29 -1 -40 10.5t-21 34.5l-35 83q-16 -2 -32 -2h-41l-7 -35l-11 -55l48 -13z" />
<glyph unicode="&#xaf;" horiz-adv-x="441" d="M189 653l8 34h234l-8 -34h-234z" />
<glyph unicode="&#xb0;" horiz-adv-x="378" d="M419 600q0 -37 -19.5 -69t-51 -51.5t-69.5 -19.5q-45 0 -71.5 26t-26.5 69q0 38 19.5 69.5t51.5 51t69 19.5q45 0 71.5 -25.5t26.5 -69.5zM220 560q0 -29 17.5 -47t47.5 -18q41 0 68 29t27 71q0 29 -17.5 47t-47.5 18q-40 0 -67.5 -29t-27.5 -71z" />
<glyph unicode="&#xb1;" d="M549 381h-186l-37 -178h-40l37 178h-179l8 35q31 1 79 2t100 1l37 174h40l-36 -173q53 0 102 0.5t81 0.5l6 -8zM485 83h-405l7 35q34 1 87.5 2t113 1.5t113.5 1t89 0.5l7 -8z" />
<glyph unicode="&#xb2;" horiz-adv-x="380" d="M196 367q-19 0 -34.5 -5t-29.5 -16l-11 14q105 71 168.5 124.5t91.5 95t28 77.5q0 34 -17.5 53.5t-51.5 19.5q-33 0 -67 -22.5t-60 -57.5l-13 7q24 44 62.5 71t86.5 27q44 0 69 -24.5t25 -68.5q0 -43 -27 -84t-71 -80t-97 -75q-11 -7 -23 -15t-25 -16q9 1 19 1 q20 0 44 -4t46.5 -8t34.5 -4q15 0 29 21t27 42l5 -3q-8 -27 -18 -47q-10 -19 -20 -31.5t-24 -12.5q-27 0 -67 10.5t-80 10.5z" />
<glyph unicode="&#xb3;" horiz-adv-x="353" d="M387 489q0 -37 -34 -68t-93 -50.5t-135 -24.5l-3 18q63 6 115.5 22.5t84 42.5t31.5 58q0 35 -26.5 50t-67.5 15q-22 0 -39 -3l-2 18q78 8 122.5 35.5t44.5 67.5q0 27 -18 43.5t-53 16.5q-34 0 -62.5 -16.5t-51.5 -45.5l-13 7q21 37 56.5 58.5t79.5 21.5q47 0 71.5 -20.5 t24.5 -58.5t-32.5 -67t-83.5 -43q39 -6 61.5 -25t22.5 -52z" />
<glyph unicode="&#xb4;" horiz-adv-x="403" d="M348 754l6 2h4q27 0 27 -20q0 -15 -19.5 -34.5t-50.5 -41t-66.5 -42t-66.5 -37.5l-9 15q36 27 70 56t62 55.5t43 46.5z" />
<glyph unicode="&#xb6;" horiz-adv-x="595" d="M443 77q-24 -121 -86.5 -184.5t-145.5 -63.5q-61 0 -95.5 30.5t-34.5 80.5q0 32 17 57.5t50 47.5l10 -10q-13 -19 -22.5 -42t-9.5 -43q0 -40 25.5 -64t72.5 -24q48 0 83.5 29t59 79t35.5 112l103 483l18 85h-73l-90 -420q-99 0 -156 50t-57 136q0 78 39.5 139t109 95.5 t158.5 34.5h204l2 -20l-67 -13q-16 -3 -23 -9.5t-10 -20.5l-13 -57z" />
<glyph unicode="&#xb7;" horiz-adv-x="289" d="M231 276q0 -18 -12 -34.5t-33 -16.5q-19 0 -27.5 11.5t-8.5 25.5q0 18 12 34.5t33 16.5q19 0 27.5 -11.5t8.5 -25.5z" />
<glyph unicode="&#xb8;" horiz-adv-x="325" d="M146 -117q0 -34 -38.5 -61t-99.5 -34l-2 9q42 11 69 32t27 42q0 16 -14 26.5t-38 11.5l-2 5l34 86h31l-25 -64q27 -5 42.5 -19t15.5 -34z" />
<glyph unicode="&#xb9;" horiz-adv-x="269" d="M277 356h-154l-1 9l43 7q14 2 19 6t7 14l70 332l-61 3l1 9l94 19l5 -6l-79 -372l58 -12z" />
<glyph unicode="&#xba;" horiz-adv-x="329" d="M395 614q0 -72 -23 -132t-60 -95.5t-79 -35.5q-40 0 -64.5 38t-24.5 98q0 53 13.5 100.5t37 85t52.5 59t60 21.5q44 0 66 -37t22 -102zM178 496q0 -55 16.5 -87.5t44.5 -32.5q35 0 62 35.5t43 92t16 118.5q0 46 -13 76t-44 30q-25 0 -48 -20.5t-40 -54.5t-27 -75t-10 -82 z" />
<glyph unicode="&#xbb;" horiz-adv-x="539" d="M373 469l18 8q18 -42 38 -82.5t38.5 -71.5t29.5 -47l3 -6l-9 -40q-40 -36 -93.5 -92.5t-106.5 -117.5l-13 9q34 51 81 110.5t96 118.5q-17 36 -40.5 94.5t-41.5 116.5zM173 469l18 8q18 -42 38 -82.5t38.5 -71.5t29.5 -47l3 -6l-9 -40q-40 -36 -93.5 -92.5t-106.5 -117.5 l-13 9q34 51 81 110.5t96 118.5q-17 36 -40.5 94.5t-41.5 116.5z" />
<glyph unicode="&#xbc;" horiz-adv-x="920" d="M288 296h-154l-1 9l43 7q14 2 19 6t7 14l70 332l-61 3l1 9l94 19l5 -6l-79 -372l58 -12zM809 695l-572 -705h-39l571 705h40zM831 399l23 -3l-57 -271l66 1l-7 -26h-65l-21 -100h-33l22 101l-200 1l-5 15zM813 352l-221 -229l172 2z" />
<glyph unicode="&#xbd;" horiz-adv-x="920" d="M819 695l-572 -705h-39l571 705h40zM288 296h-154l-1 9l43 7q14 2 19 6t7 14l70 332l-61 3l1 9l94 19l5 -6l-79 -372l58 -12zM634 11q-19 0 -34.5 -5t-29.5 -16l-11 14q105 71 168.5 124.5t91.5 95t28 77.5q0 34 -17.5 53.5t-51.5 19.5q-33 0 -67 -22.5t-60 -57.5l-13 7 q24 44 62.5 71t86.5 27q44 0 69 -24.5t25 -68.5q0 -43 -27 -84t-71 -80t-97 -75q-11 -7 -23 -15t-25 -16q9 1 19 1q20 0 44 -4t46.5 -8t34.5 -4q15 0 29 21t27 42l5 -3q-8 -27 -18 -47q-10 -19 -20 -31.5t-24 -12.5q-27 0 -67 10.5t-80 10.5z" />
<glyph unicode="&#xbe;" horiz-adv-x="920" d="M389 429q0 -37 -34 -68t-93 -50.5t-135 -24.5l-3 18q63 6 115.5 22.5t84 42.5t31.5 58q0 35 -26.5 50t-67.5 15q-22 0 -39 -3l-2 18q78 8 122.5 35.5t44.5 67.5q0 27 -18 43.5t-53 16.5q-34 0 -62.5 -16.5t-51.5 -45.5l-13 7q21 37 56.5 58.5t79.5 21.5q47 0 71.5 -20.5 t24.5 -58.5t-32.5 -67t-83.5 -43q39 -6 61.5 -25t22.5 -52zM819 695l-572 -705h-39l571 705h40zM831 399l23 -3l-57 -271l66 1l-7 -26h-65l-21 -100h-33l22 101l-200 1l-5 15zM813 352l-221 -229l172 2z" />
<glyph unicode="&#xbf;" horiz-adv-x="398" d="M314 505q13 0 21 -8.5t8 -22.5q0 -25 -12.5 -42t-31.5 -17q-13 0 -21 8.5t-8 21.5q0 26 12.5 43t31.5 17zM232 273l10 8q17 -4 28.5 -15.5t11.5 -30.5q0 -32 -17 -55.5t-43.5 -42.5t-57 -38t-57 -41t-43.5 -51.5t-17 -69.5q0 -47 27.5 -76t74.5 -29q45 0 80.5 20t56 54.5 t20.5 77.5q0 6 -0.5 13t-1.5 14q5 2 10.5 4t12.5 2q28 0 28 -36q0 -48 -29.5 -89t-78 -66.5t-105.5 -25.5q-62 0 -101 38.5t-39 95.5q0 44 17.5 76t45 56t58 44t58 39t45 40t17.5 48q0 10 -2 19t-9 17z" />
<glyph unicode="&#xc0;" horiz-adv-x="649" d="M584 795l-11 -16q-19 3 -52 11.5t-67 21t-57.5 27.5t-22.5 30q0 12 9.5 19t17.5 10l6 -1q15 -15 42.5 -33.5t63 -36.5t71.5 -32zM444 687h23l76 -618q2 -17 8 -25t20 -11l57 -13l-2 -20h-205l-4 20l89 19l-26 216l-237 -4l-116 -212l82 -19l-4 -20h-200l-2 20l55 13 q17 4 27 12t19 24zM261 285h215l-40 321z" />
<glyph unicode="&#xc1;" horiz-adv-x="649" d="M576 896l7 1q7 -1 16.5 -7.5t9.5 -18.5q0 -13 -23 -27t-59.5 -26.5t-77 -23t-76.5 -16.5l-5 16q66 28 120.5 52.5t87.5 49.5zM444 687h23l76 -618q2 -17 8 -25t20 -11l57 -13l-2 -20h-205l-4 20l89 19l-26 216l-237 -4l-116 -212l82 -19l-4 -20h-200l-2 20l55 13 q17 4 27 12t19 24zM261 285h215l-40 321z" />
<glyph unicode="&#xc2;" horiz-adv-x="649" d="M614 781l-16 -10q-21 21 -47.5 46t-56.5 48q-18 -13 -44 -30t-53.5 -34t-49.5 -30l-9 12q24 19 52 42t51.5 44t34.5 32l7 4h37q18 -22 43.5 -55t50.5 -69zM444 687h23l76 -618q2 -17 8 -25t20 -11l57 -13l-2 -20h-205l-4 20l89 19l-26 216l-237 -4l-116 -212l82 -19 l-4 -20h-200l-2 20l55 13q17 4 27 12t19 24zM261 285h215l-40 321z" />
<glyph unicode="&#xc3;" horiz-adv-x="649" d="M383 849q-9 -3 -28 -19.5t-51 -48.5l-8 5q24 49 49 75.5t59 26.5q28 0 59.5 -15t61.5 -30t53 -15q10 3 29 20t50 48l8 -5q-23 -49 -48.5 -75.5t-60.5 -26.5q-20 0 -43 9t-46.5 21t-45 21t-38.5 9zM444 687h23l76 -618q2 -17 8 -25t20 -11l57 -13l-2 -20h-205l-4 20l89 19 l-26 216l-237 -4l-116 -212l82 -19l-4 -20h-200l-2 20l55 13q17 4 27 12t19 24zM261 285h215l-40 321z" />
<glyph unicode="&#xc4;" horiz-adv-x="649" d="M614 847q0 -22 -13 -38.5t-31 -16.5q-14 0 -23 8t-9 23q0 19 12.5 36.5t32.5 17.5q31 0 31 -30zM424 847q0 -22 -13 -38.5t-31 -16.5q-14 0 -23 8t-9 23q0 19 12.5 36.5t32.5 17.5q31 0 31 -30zM444 687h23l76 -618q2 -17 8 -25t20 -11l57 -13l-2 -20h-205l-4 20l89 19 l-26 216l-237 -4l-116 -212l82 -19l-4 -20h-200l-2 20l55 13q17 4 27 12t19 24zM261 285h215l-40 321z" />
<glyph unicode="&#xc5;" horiz-adv-x="649" d="M569 853q0 -36 -28.5 -61.5t-69.5 -25.5q-28 0 -45 15.5t-17 42.5q0 35 28.5 60t68.5 25q29 0 46 -15t17 -41zM443 824q0 -16 9.5 -25.5t25.5 -9.5q23 0 39.5 18t16.5 44q0 16 -9.5 25.5t-25.5 9.5q-23 0 -39.5 -18t-16.5 -44zM444 687h23l76 -618q2 -17 8 -25t20 -11 l57 -13l-2 -20h-205l-4 20l89 19l-26 216l-237 -4l-116 -212l82 -19l-4 -20h-200l-2 20l55 13q17 4 27 12t19 24zM261 285h215l-40 321z" />
<glyph unicode="&#xc6;" horiz-adv-x="866" d="M435 646l-81 19l6 20h548q-1 -34 -11 -79.5t-21 -85.5h-15q-1 32 -3 65t-4 65q-19 2 -50 3.5t-62 1.5h-127l-63 -296v1l223 5l-9 -39l-220 5l-45 -211l-19 -90h158q31 0 62.5 1.5t51.5 3.5q16 32 31 65t31 65h15q-3 -23 -8.5 -52.5t-13 -59.5t-16.5 -53h-445l-2 20l67 13 q17 3 24 9.5t10 20.5l12 57l44 209l-215 -4l-158 -286l80 -19l-6 -20h-203l2 20q15 3 29.5 6.5t29.5 6.5q17 4 27 12t19 24zM572 655h-100l-165 -296h202z" />
<glyph unicode="&#xc7;" horiz-adv-x="582" d="M434 -117q0 -34 -38.5 -61t-99.5 -34l-2 9q42 11 69 32t27 42q0 16 -14 26.5t-38 11.5l-2 5l30 76q-79 0 -136.5 33t-89 93.5t-31.5 143.5q0 90 30.5 168.5t84.5 138.5t124.5 94t150.5 34q82 0 124 -25q-1 -17 -6.5 -44.5t-12.5 -56t-14 -49.5h-15q-1 32 -2.5 64t-3.5 63 q-15 5 -32 9t-45 4q-67 0 -128 -31.5t-108.5 -85.5t-74.5 -124.5t-27 -148.5q0 -80 28.5 -135t77.5 -82.5t109 -27.5q32 0 53.5 4.5t38.5 8.5l30 64t30 63h15q-4 -34 -13.5 -76t-17.5 -69q-19 -10 -47.5 -18t-59.5 -11l-22 -55q27 -5 42.5 -19t15.5 -34z" />
<glyph unicode="&#xc8;" horiz-adv-x="564" d="M559 794l-11 -16q-19 3 -52 11.5t-67 21t-57.5 27.5t-22.5 30q0 12 9.5 19t17.5 10l6 -1q15 -15 42.5 -33.5t63 -36.5t71.5 -32zM303 565l-43 -205l213 5l-9 -39l-210 5l-45 -211l-19 -90h148q31 0 62.5 1.5t51.5 3.5q16 32 31 65t31 65h15q-3 -23 -8.5 -52.5t-13 -59.5 t-16.5 -53h-435l-2 20l67 13q17 3 24 9.5t10 20.5l12 57l94 445l17 81l-84 19l4 20h408q-1 -34 -11 -79.5t-21 -85.5h-15q-1 32 -3 65t-4 65q-19 2 -50 3.5t-62 1.5h-118z" />
<glyph unicode="&#xc9;" horiz-adv-x="564" d="M541 895l7 1q7 -1 16.5 -7.5t9.5 -18.5q0 -13 -23 -27t-59.5 -26.5t-77 -23t-76.5 -16.5l-5 16q66 28 120.5 52.5t87.5 49.5zM303 565l-43 -205l213 5l-9 -39l-210 5l-45 -211l-19 -90h148q31 0 62.5 1.5t51.5 3.5q16 32 31 65t31 65h15q-3 -23 -8.5 -52.5t-13 -59.5 t-16.5 -53h-435l-2 20l67 13q17 3 24 9.5t10 20.5l12 57l94 445l17 81l-84 19l4 20h408q-1 -34 -11 -79.5t-21 -85.5h-15q-1 32 -3 65t-4 65q-19 2 -50 3.5t-62 1.5h-118z" />
<glyph unicode="&#xca;" horiz-adv-x="564" d="M579 780l-16 -10q-21 21 -47.5 46t-56.5 48q-18 -13 -44 -30t-53.5 -34t-49.5 -30l-9 12q24 19 52 42t51.5 44t34.5 32l7 4h37q18 -22 43.5 -55t50.5 -69zM303 565l-43 -205l213 5l-9 -39l-210 5l-45 -211l-19 -90h148q31 0 62.5 1.5t51.5 3.5q16 32 31 65t31 65h15 q-3 -23 -8.5 -52.5t-13 -59.5t-16.5 -53h-435l-2 20l67 13q17 3 24 9.5t10 20.5l12 57l94 445l17 81l-84 19l4 20h408q-1 -34 -11 -79.5t-21 -85.5h-15q-1 32 -3 65t-4 65q-19 2 -50 3.5t-62 1.5h-118z" />
<glyph unicode="&#xcb;" horiz-adv-x="564" d="M594 846q0 -22 -13 -38.5t-31 -16.5q-14 0 -23 8t-9 23q0 19 12.5 36.5t32.5 17.5q31 0 31 -30zM404 846q0 -22 -13 -38.5t-31 -16.5q-14 0 -23 8t-9 23q0 19 12.5 36.5t32.5 17.5q31 0 31 -30zM303 565l-43 -205l213 5l-9 -39l-210 5l-45 -211l-19 -90h148 q31 0 62.5 1.5t51.5 3.5q16 32 31 65t31 65h15q-3 -23 -8.5 -52.5t-13 -59.5t-16.5 -53h-435l-2 20l67 13q17 3 24 9.5t10 20.5l12 57l94 445l17 81l-84 19l4 20h408q-1 -34 -11 -79.5t-21 -85.5h-15q-1 32 -3 65t-4 65q-19 2 -50 3.5t-62 1.5h-118z" />
<glyph unicode="&#xcc;" horiz-adv-x="350" d="M440 795l-11 -16q-19 3 -52 11.5t-67 21t-57.5 27.5t-22.5 30q0 12 9.5 19t17.5 10l6 -1q15 -15 42.5 -33.5t63 -36.5t71.5 -32zM191 39l85 -19l-4 -20h-216l-2 20l67 13q16 3 23 9.5t10 20.5l13 57l94 445l18 81l-85 19l4 20h216l2 -20l-67 -13q-16 -3 -23 -9.5 t-10 -20.5l-13 -57l-94 -445z" />
<glyph unicode="&#xcd;" horiz-adv-x="350" d="M422 896l7 1q7 -1 16.5 -7.5t9.5 -18.5q0 -13 -23 -27t-59.5 -26.5t-77 -23t-76.5 -16.5l-5 16q66 28 120.5 52.5t87.5 49.5zM191 39l85 -19l-4 -20h-216l-2 20l67 13q16 3 23 9.5t10 20.5l13 57l94 445l18 81l-85 19l4 20h216l2 -20l-67 -13q-16 -3 -23 -9.5t-10 -20.5 l-13 -57l-94 -445z" />
<glyph unicode="&#xce;" horiz-adv-x="350" d="M467 781l-16 -10q-21 21 -47.5 46t-56.5 48q-18 -13 -44 -30t-53.5 -34t-49.5 -30l-9 12q24 19 52 42t51.5 44t34.5 32l7 4h37q18 -22 43.5 -55t50.5 -69zM191 39l85 -19l-4 -20h-216l-2 20l67 13q16 3 23 9.5t10 20.5l13 57l94 445l18 81l-85 19l4 20h216l2 -20l-67 -13 q-16 -3 -23 -9.5t-10 -20.5l-13 -57l-94 -445z" />
<glyph unicode="&#xcf;" horiz-adv-x="350" d="M473 847q0 -22 -13 -38.5t-31 -16.5q-14 0 -23 8t-9 23q0 19 12.5 36.5t32.5 17.5q31 0 31 -30zM283 847q0 -22 -13 -38.5t-31 -16.5q-14 0 -23 8t-9 23q0 19 12.5 36.5t32.5 17.5q31 0 31 -30zM191 39l85 -19l-4 -20h-216l-2 20l67 13q16 3 23 9.5t10 20.5l13 57l94 445 l18 81l-85 19l4 20h216l2 -20l-67 -13q-16 -3 -23 -9.5t-10 -20.5l-13 -57l-94 -445z" />
<glyph unicode="&#xd0;" horiz-adv-x="644" d="M452 338h-197l-46 -218l-19 -88h67q84 0 150 32.5t112 88.5t70 127t24 147q0 103 -58 164.5t-176 61.5h-58l-18 -88l-42 -197h197zM254 0h-198l-2 20l67 13q17 3 24 9.5t10 20.5l12 57l46 218h-110l6 30h110l42 197l17 81l-84 19l4 20h192q84 0 144 -31.5t92 -88.5 t32 -135q0 -81 -27 -157.5t-79 -138t-127 -98t-171 -36.5z" />
<glyph unicode="&#xd1;" horiz-adv-x="720" d="M439 849q-9 -3 -28 -19.5t-51 -48.5l-8 5q24 49 49 75.5t59 26.5q28 0 59.5 -15t61.5 -30t53 -15q10 3 29 20t50 48l8 -5q-23 -49 -48.5 -75.5t-60.5 -26.5q-20 0 -43 9t-46.5 21t-45 21t-38.5 9zM184 39l105 -19l-4 -20h-229l-2 20l67 13q17 3 23.5 9.5t9.5 20.5l13 57 l111 526l-84 19l4 20h119l241 -607l103 487l18 81l-85 19l4 20h209l2 -20l-67 -13q-17 -3 -23.5 -9.5t-9.5 -20.5l-13 -57l-120 -565h-30l-242 605l-102 -485z" />
<glyph unicode="&#xd2;" horiz-adv-x="575" d="M546 795l-11 -16q-19 3 -52 11.5t-67 21t-57.5 27.5t-22.5 30q0 12 9.5 19t17.5 10l6 -1q15 -15 42.5 -33.5t62.5 -36.5t72 -32zM593 454q0 -55 -13.5 -118t-39 -124t-62.5 -111.5t-85.5 -80.5t-106.5 -30q-83 0 -132.5 65t-49.5 174q0 60 14 125t40.5 125.5t64.5 109.5 t87 77.5t107 28.5q81 0 128.5 -64t47.5 -177zM149 235q0 -61 16 -108.5t48.5 -74.5t80.5 -27t87.5 26.5t70.5 71.5t52.5 101t32.5 116t11 115q0 92 -32.5 148.5t-106.5 56.5q-48 0 -88 -26t-72 -70t-54.5 -99.5t-34 -114.5t-11.5 -115z" />
<glyph unicode="&#xd3;" horiz-adv-x="575" d="M538 896l7 1q7 -1 16.5 -7.5t9.5 -18.5q0 -13 -23 -27t-59.5 -26.5t-77 -23t-76.5 -16.5l-5 16q66 28 120.5 52.5t87.5 49.5zM593 454q0 -55 -13.5 -118t-39 -124t-62.5 -111.5t-85.5 -80.5t-106.5 -30q-83 0 -132.5 65t-49.5 174q0 60 14 125t40.5 125.5t64.5 109.5 t87 77.5t107 28.5q81 0 128.5 -64t47.5 -177zM149 235q0 -61 16 -108.5t48.5 -74.5t80.5 -27t87.5 26.5t70.5 71.5t52.5 101t32.5 116t11 115q0 92 -32.5 148.5t-106.5 56.5q-48 0 -88 -26t-72 -70t-54.5 -99.5t-34 -114.5t-11.5 -115z" />
<glyph unicode="&#xd4;" horiz-adv-x="575" d="M571 781l-16 -10q-21 21 -47.5 46t-56.5 48q-18 -13 -44 -30t-53.5 -34t-49.5 -30l-9 12q24 19 52 42t51.5 44t34.5 32l7 4h37q18 -22 43.5 -55t50.5 -69zM593 454q0 -55 -13.5 -118t-39 -124t-62.5 -111.5t-85.5 -80.5t-106.5 -30q-83 0 -132.5 65t-49.5 174 q0 60 14 125t40.5 125.5t64.5 109.5t87 77.5t107 28.5q81 0 128.5 -64t47.5 -177zM149 235q0 -61 16 -108.5t48.5 -74.5t80.5 -27t87.5 26.5t70.5 71.5t52.5 101t32.5 116t11 115q0 92 -32.5 148.5t-106.5 56.5q-48 0 -88 -26t-72 -70t-54.5 -99.5t-34 -114.5t-11.5 -115z " />
<glyph unicode="&#xd5;" horiz-adv-x="575" d="M345 849q-9 -3 -28 -19.5t-51 -48.5l-8 5q24 49 49 75.5t59 26.5q28 0 59.5 -15t61.5 -30t53 -15q10 3 29 20t50 48l8 -5q-23 -49 -48.5 -75.5t-60.5 -26.5q-20 0 -43 9t-46.5 21t-45 21t-38.5 9zM593 454q0 -55 -13.5 -118t-39 -124t-62.5 -111.5t-85.5 -80.5 t-106.5 -30q-83 0 -132.5 65t-49.5 174q0 60 14 125t40.5 125.5t64.5 109.5t87 77.5t107 28.5q81 0 128.5 -64t47.5 -177zM149 235q0 -61 16 -108.5t48.5 -74.5t80.5 -27t87.5 26.5t70.5 71.5t52.5 101t32.5 116t11 115q0 92 -32.5 148.5t-106.5 56.5q-48 0 -88 -26t-72 -70 t-54.5 -99.5t-34 -114.5t-11.5 -115z" />
<glyph unicode="&#xd6;" horiz-adv-x="575" d="M576 847q0 -22 -13 -38.5t-31 -16.5q-14 0 -23 8t-9 23q0 19 12.5 36.5t32.5 17.5q31 0 31 -30zM386 847q0 -22 -13 -38.5t-31 -16.5q-14 0 -23 8t-9 23q0 19 12.5 36.5t32.5 17.5q31 0 31 -30zM593 454q0 -55 -13.5 -118t-39 -124t-62.5 -111.5t-85.5 -80.5t-106.5 -30 q-83 0 -132.5 65t-49.5 174q0 60 14 125t40.5 125.5t64.5 109.5t87 77.5t107 28.5q81 0 128.5 -64t47.5 -177zM149 235q0 -61 16 -108.5t48.5 -74.5t80.5 -27t87.5 26.5t70.5 71.5t52.5 101t32.5 116t11 115q0 92 -32.5 148.5t-106.5 56.5q-48 0 -88 -26t-72 -70 t-54.5 -99.5t-34 -114.5t-11.5 -115z" />
<glyph unicode="&#xd7;" d="M466 150l-129 164l-200 -164l-23 33l198 162l-128 163l31 26q23 -29 57 -72.5t72 -90.5l199 163l23 -33l-198 -162q36 -45 69 -87.5t56 -70.5l-3 -11z" />
<glyph unicode="&#xd8;" horiz-adv-x="575" d="M593 454q0 -55 -13.5 -118t-39 -124t-62.5 -111.5t-85.5 -80.5t-106.5 -30q-56 0 -97 30t-63 84l-84 -86l-21 22l94 97q-11 42 -11 92q0 60 14 125t40.5 125.5t64.5 109.5t87 77.5t107 28.5q50 0 88 -25t60 -72l68 70l22 -22l-78 -80q16 -49 16 -112zM149 235 q0 -31 4 -59l380 389q-15 45 -45 70t-79 25q-48 0 -88 -26t-72 -70t-54.5 -99.5t-34 -114.5t-11.5 -115zM548 455q0 42 -6 75l-381 -390q15 -53 48.5 -84t84.5 -31q48 0 87.5 26.5t70.5 71.5t52.5 101t32.5 116t11 115z" />
<glyph unicode="&#xd9;" horiz-adv-x="660" d="M614 795l-11 -16q-19 3 -52 11.5t-67 21t-57.5 27.5t-22.5 30q0 12 9.5 19t17.5 10l6 -1q15 -15 42.5 -33.5t63 -36.5t71.5 -32zM584 235q-27 -127 -93.5 -186t-155.5 -59q-79 0 -131 46.5t-52 130.5q0 17 2 36.5t6 41.5l68 320l18 81l-85 19l4 20h216l2 -20l-67 -13 q-16 -3 -23 -9.5t-10 -20.5l-13 -57l-69 -323q-4 -18 -5.5 -35t-1.5 -33q0 -72 43 -110.5t107 -38.5q69 0 125 51t80 161l70 328l18 81l-85 19l4 20h209l2 -20l-95 -19l-18 -81z" />
<glyph unicode="&#xda;" horiz-adv-x="660" d="M596 896l7 1q7 -1 16.5 -7.5t9.5 -18.5q0 -13 -23 -27t-59.5 -26.5t-77 -23t-76.5 -16.5l-5 16q66 28 120.5 52.5t87.5 49.5zM584 235q-27 -127 -93.5 -186t-155.5 -59q-79 0 -131 46.5t-52 130.5q0 17 2 36.5t6 41.5l68 320l18 81l-85 19l4 20h216l2 -20l-67 -13 q-16 -3 -23 -9.5t-10 -20.5l-13 -57l-69 -323q-4 -18 -5.5 -35t-1.5 -33q0 -72 43 -110.5t107 -38.5q69 0 125 51t80 161l70 328l18 81l-85 19l4 20h209l2 -20l-95 -19l-18 -81z" />
<glyph unicode="&#xdb;" horiz-adv-x="660" d="M634 781l-16 -10q-21 21 -47.5 46t-56.5 48q-18 -13 -44 -30t-53.5 -34t-49.5 -30l-9 12q24 19 52 42t51.5 44t34.5 32l7 4h37q18 -22 43.5 -55t50.5 -69zM584 235q-27 -127 -93.5 -186t-155.5 -59q-79 0 -131 46.5t-52 130.5q0 17 2 36.5t6 41.5l68 320l18 81l-85 19 l4 20h216l2 -20l-67 -13q-16 -3 -23 -9.5t-10 -20.5l-13 -57l-69 -323q-4 -18 -5.5 -35t-1.5 -33q0 -72 43 -110.5t107 -38.5q69 0 125 51t80 161l70 328l18 81l-85 19l4 20h209l2 -20l-95 -19l-18 -81z" />
<glyph unicode="&#xdc;" horiz-adv-x="660" d="M639 847q0 -22 -13 -38.5t-31 -16.5q-14 0 -23 8t-9 23q0 19 12.5 36.5t32.5 17.5q31 0 31 -30zM449 847q0 -22 -13 -38.5t-31 -16.5q-14 0 -23 8t-9 23q0 19 12.5 36.5t32.5 17.5q31 0 31 -30zM584 235q-27 -127 -93.5 -186t-155.5 -59q-79 0 -131 46.5t-52 130.5 q0 17 2 36.5t6 41.5l68 320l18 81l-85 19l4 20h216l2 -20l-67 -13q-16 -3 -23 -9.5t-10 -20.5l-13 -57l-69 -323q-4 -18 -5.5 -35t-1.5 -33q0 -72 43 -110.5t107 -38.5q69 0 125 51t80 161l70 328l18 81l-85 19l4 20h209l2 -20l-95 -19l-18 -81z" />
<glyph unicode="&#xdd;" horiz-adv-x="614" d="M572 896l7 1q7 -1 16.5 -7.5t9.5 -18.5q0 -13 -23 -27t-59.5 -26.5t-77 -23t-76.5 -16.5l-5 16q66 28 120.5 52.5t87.5 49.5zM324 39l85 -19l-4 -20h-216l-2 20l67 13q16 3 23 9.5t10 20.5l13 57l13 60q10 47 9 108.5t-11 125.5t-26 119t-35.5 88.5t-39.5 33.5 q-19 0 -43.5 -32t-46.5 -70l-13 5q13 33 30.5 64.5t39 52t47.5 20.5q27 0 51.5 -34t43.5 -91.5t30.5 -128.5t12.5 -144q37 76 76.5 147t78 128t74 90t63.5 33q23 0 37.5 -20t22 -50t8.5 -62l-13 -5q-10 42 -24 69.5t-36 27.5q-15 0 -40 -24.5t-55.5 -65.5t-62 -92 t-59.5 -104.5t-48.5 -102.5t-28.5 -86l-13 -60z" />
<glyph unicode="&#xde;" horiz-adv-x="524" d="M191 39l105 -19l-4 -20h-236l-2 20l67 13q16 3 23 9.5t10 20.5l13 57l95 450l18 81l-85 19l4 20h216l2 -20l-67 -13q-16 -3 -23 -9.5t-10 -20.5l-13 -57l-3 -16h60q96 0 150 -43.5t54 -126.5q0 -75 -35 -130t-98 -85t-146 -30h-73l-4 -19zM359 519h-66l-73 -347h74 q79 0 128.5 30t73.5 77.5t24 99.5q0 72 -43 106t-118 34z" />
<glyph unicode="&#xdf;" horiz-adv-x="505" d="M133 -8q-25 -112 -72.5 -179.5t-118.5 -67.5q-37 0 -61 18t-24 42q0 11 5 18.5t12 11.5q15 -21 38 -39t52 -18q51 0 77 53t48 149l129 562q23 98 72.5 155.5t119.5 57.5q53 0 83.5 -30t30.5 -81q0 -48 -21 -92t-57.5 -74.5t-82.5 -38.5q60 -45 91.5 -107.5t31.5 -128.5 q0 -59 -22.5 -107.5t-61 -77t-85.5 -28.5q-37 0 -60.5 18t-23.5 42q0 11 5 18.5t12 11.5q13 -25 35 -41t46 -16q31 0 56 23.5t40 63.5t15 89q0 71 -32.5 131t-92.5 103l3 13q48 7 83.5 32.5t55.5 64.5t20 85t-21 72.5t-58 26.5q-49 0 -85 -47t-54 -126z" />
<glyph unicode="&#xe0;" horiz-adv-x="465" d="M431 592l-13 -11q-30 25 -63.5 53.5t-55 54.5t-18.5 43q2 10 11.5 16.5t25.5 6.5h4l5 -2q11 -31 40.5 -74.5t63.5 -86.5zM357 120q-4 -22 -7 -37.5t-3 -25.5q0 -12 4 -19.5t14 -7.5q13 0 29.5 15.5t34.5 39t34 47.5l8 -5q-13 -28 -32 -60t-42 -54.5t-48 -22.5 q-23 0 -33 15.5t-10 40.5q0 13 3 31t8 43l31 140q-19 -40 -44 -86.5t-54 -88.5t-59.5 -68.5t-60.5 -26.5q-28 0 -47 28t-19 82q0 80 24 153t64.5 130t91.5 89.5t106 32.5q26 0 49 -6t39 -14zM106 101q0 -31 9.5 -51t26.5 -20q20 0 46.5 26t55 67t54.5 87.5t45.5 88.5 t28.5 68l20 92q-17 9 -33 12.5t-39 3.5q-38 0 -76 -30t-69 -82t-50 -119.5t-19 -142.5z" />
<glyph unicode="&#xe1;" horiz-adv-x="465" d="M456 754l6 2h4q27 0 27 -20q0 -15 -19.5 -34.5t-50.5 -41t-66.5 -42t-66.5 -37.5l-9 15q36 27 70 56t62 55.5t43 46.5zM357 120q-4 -22 -7 -37.5t-3 -25.5q0 -12 4 -19.5t14 -7.5q13 0 29.5 15.5t34.5 39t34 47.5l8 -5q-13 -28 -32 -60t-42 -54.5t-48 -22.5 q-23 0 -33 15.5t-10 40.5q0 13 3 31t8 43l31 140q-19 -40 -44 -86.5t-54 -88.5t-59.5 -68.5t-60.5 -26.5q-28 0 -47 28t-19 82q0 80 24 153t64.5 130t91.5 89.5t106 32.5q26 0 49 -6t39 -14zM106 101q0 -31 9.5 -51t26.5 -20q20 0 46.5 26t55 67t54.5 87.5t45.5 88.5 t28.5 68l20 92q-17 9 -33 12.5t-39 3.5q-38 0 -76 -30t-69 -82t-50 -119.5t-19 -142.5z" />
<glyph unicode="&#xe2;" horiz-adv-x="465" d="M489 596l-16 -10q-19 27 -43 59t-51 61q-17 -16 -41.5 -38t-49.5 -44t-46 -38l-9 12q22 23 47.5 52t47 55.5t31.5 40.5l7 4h41q16 -27 38 -68t44 -86zM357 120q-4 -22 -7 -37.5t-3 -25.5q0 -12 4 -19.5t14 -7.5q13 0 29.5 15.5t34.5 39t34 47.5l8 -5q-13 -28 -32 -60 t-42 -54.5t-48 -22.5q-23 0 -33 15.5t-10 40.5q0 13 3 31t8 43l31 140q-19 -40 -44 -86.5t-54 -88.5t-59.5 -68.5t-60.5 -26.5q-28 0 -47 28t-19 82q0 80 24 153t64.5 130t91.5 89.5t106 32.5q26 0 49 -6t39 -14zM106 101q0 -31 9.5 -51t26.5 -20q20 0 46.5 26t55 67 t54.5 87.5t45.5 88.5t28.5 68l20 92q-17 9 -33 12.5t-39 3.5q-38 0 -76 -30t-69 -82t-50 -119.5t-19 -142.5z" />
<glyph unicode="&#xe3;" horiz-adv-x="465" d="M283 689q-8 -3 -24.5 -20.5t-44.5 -49.5l-8 5q22 48 46.5 74t56.5 26q26 0 53 -15t51.5 -29.5t44.5 -15.5q8 3 24.5 20.5t44.5 49.5l8 -5q-22 -48 -46.5 -74t-56.5 -26q-26 0 -54 15t-52.5 30t-42.5 15zM357 120q-4 -22 -7 -37.5t-3 -25.5q0 -12 4 -19.5t14 -7.5 q13 0 29.5 15.5t34.5 39t34 47.5l8 -5q-13 -28 -32 -60t-42 -54.5t-48 -22.5q-23 0 -33 15.5t-10 40.5q0 13 3 31t8 43l31 140q-19 -40 -44 -86.5t-54 -88.5t-59.5 -68.5t-60.5 -26.5q-28 0 -47 28t-19 82q0 80 24 153t64.5 130t91.5 89.5t106 32.5q26 0 49 -6t39 -14z M106 101q0 -31 9.5 -51t26.5 -20q20 0 46.5 26t55 67t54.5 87.5t45.5 88.5t28.5 68l20 92q-17 9 -33 12.5t-39 3.5q-38 0 -76 -30t-69 -82t-50 -119.5t-19 -142.5z" />
<glyph unicode="&#xe4;" horiz-adv-x="465" d="M496 678q0 -22 -12 -39.5t-29 -17.5q-13 0 -21 8.5t-8 24.5q0 20 11.5 38t30.5 18q14 0 21 -9t7 -23zM306 678q0 -22 -12 -39.5t-29 -17.5q-13 0 -21 8.5t-8 24.5q0 20 11.5 38t30.5 18q14 0 21 -9t7 -23zM357 120q-4 -22 -7 -37.5t-3 -25.5q0 -12 4 -19.5t14 -7.5 q13 0 29.5 15.5t34.5 39t34 47.5l8 -5q-13 -28 -32 -60t-42 -54.5t-48 -22.5q-23 0 -33 15.5t-10 40.5q0 13 3 31t8 43l31 140q-19 -40 -44 -86.5t-54 -88.5t-59.5 -68.5t-60.5 -26.5q-28 0 -47 28t-19 82q0 80 24 153t64.5 130t91.5 89.5t106 32.5q26 0 49 -6t39 -14z M106 101q0 -31 9.5 -51t26.5 -20q20 0 46.5 26t55 67t54.5 87.5t45.5 88.5t28.5 68l20 92q-17 9 -33 12.5t-39 3.5q-38 0 -76 -30t-69 -82t-50 -119.5t-19 -142.5z" />
<glyph unicode="&#xe5;" horiz-adv-x="465" d="M456 683q0 -36 -28.5 -61.5t-69.5 -25.5q-28 0 -45 15.5t-17 42.5q0 35 28.5 60t68.5 25q29 0 46 -15t17 -41zM330 654q0 -16 9.5 -25.5t25.5 -9.5q23 0 39.5 18t16.5 44q0 16 -9.5 25.5t-25.5 9.5q-23 0 -39.5 -18t-16.5 -44zM357 120q-4 -22 -7 -37.5t-3 -25.5 q0 -12 4 -19.5t14 -7.5q13 0 29.5 15.5t34.5 39t34 47.5l8 -5q-13 -28 -32 -60t-42 -54.5t-48 -22.5q-23 0 -33 15.5t-10 40.5q0 13 3 31t8 43l31 140q-19 -40 -44 -86.5t-54 -88.5t-59.5 -68.5t-60.5 -26.5q-28 0 -47 28t-19 82q0 80 24 153t64.5 130t91.5 89.5t106 32.5 q26 0 49 -6t39 -14zM106 101q0 -31 9.5 -51t26.5 -20q20 0 46.5 26t55 67t54.5 87.5t45.5 88.5t28.5 68l20 92q-17 9 -33 12.5t-39 3.5q-38 0 -76 -30t-69 -82t-50 -119.5t-19 -142.5z" />
<glyph unicode="&#xe6;" horiz-adv-x="586" d="M579 127q-32 -57 -74.5 -97t-91.5 -40q-52 0 -77 42.5t-25 117.5q0 20 2 40q-25 -48 -55.5 -94t-63 -76t-64.5 -30q-28 0 -47 28t-19 82q0 80 24 153t64.5 130t91.5 89.5t106 32.5q26 0 49 -6t39 -14l-14 -44q28 29 59 46.5t63 17.5q37 0 55 -21t18 -56q0 -42 -24 -76.5 t-62.5 -60t-83.5 -40t-87 -17.5q-9 -44 -9 -86q0 -55 18 -89t55 -34q32 0 68.5 29t76.5 78zM106 101q0 -31 9.5 -51t26.5 -20q18 0 41.5 21.5t49 56t49.5 76t44 80.5v0l64 196q-17 8 -32.5 11.5t-37.5 3.5q-38 0 -76 -30t-69 -82t-50 -119.5t-19 -142.5zM535 473 q-35 0 -68 -29.5t-59 -78t-41 -106.5q60 6 107.5 30.5t75 60t27.5 76.5q0 20 -11 33.5t-31 13.5z" />
<glyph unicode="&#xe7;" horiz-adv-x="342" d="M232 -117q0 -34 -38.5 -61t-99.5 -34l-2 9q42 11 69 32t27 42q0 16 -14 26.5t-38 11.5l-2 5l30 77q-48 5 -70 44t-22 105q0 69 20.5 134.5t55 117.5t77 82.5t86.5 30.5q36 0 55.5 -23.5t19.5 -59.5q0 -29 -13.5 -55.5t-33.5 -26.5q-6 0 -12 4q7 13 13 32.5t6 40.5 q0 25 -11 40.5t-38 15.5q-33 0 -65.5 -29t-59 -77.5t-42.5 -107t-16 -118.5q0 -53 19 -84.5t59 -31.5q32 0 69 29t77 78l8 -5q-29 -51 -67.5 -90t-82.5 -46l-22 -55q27 -5 42.5 -19t15.5 -34z" />
<glyph unicode="&#xe8;" horiz-adv-x="348" d="M389 592l-13 -11q-30 25 -63.5 53.5t-55 54.5t-18.5 43q2 10 11.5 16.5t25.5 6.5h4l5 -2q11 -31 40.5 -74.5t63.5 -86.5zM341 127q-32 -57 -74.5 -97t-91.5 -40q-52 0 -77 42.5t-25 117.5q0 65 20 128t54 114t76 82t85 31q37 0 55 -21t18 -56q0 -42 -24 -76.5t-62.5 -60 t-83.5 -40t-87 -17.5q-9 -44 -9 -86q0 -55 18 -89t55 -34q32 0 68.5 29t76.5 78zM297 473q-35 0 -68 -29.5t-59 -78t-41 -106.5q60 6 107.5 30.5t75 60t27.5 76.5q0 20 -11 33.5t-31 13.5z" />
<glyph unicode="&#xe9;" horiz-adv-x="348" d="M394 754l6 2h4q27 0 27 -20q0 -15 -19.5 -34.5t-50.5 -41t-66.5 -42t-66.5 -37.5l-9 15q36 27 70 56t62 55.5t43 46.5zM341 127q-32 -57 -74.5 -97t-91.5 -40q-52 0 -77 42.5t-25 117.5q0 65 20 128t54 114t76 82t85 31q37 0 55 -21t18 -56q0 -42 -24 -76.5t-62.5 -60 t-83.5 -40t-87 -17.5q-9 -44 -9 -86q0 -55 18 -89t55 -34q32 0 68.5 29t76.5 78zM297 473q-35 0 -68 -29.5t-59 -78t-41 -106.5q60 6 107.5 30.5t75 60t27.5 76.5q0 20 -11 33.5t-31 13.5z" />
<glyph unicode="&#xea;" horiz-adv-x="348" d="M438 596l-16 -10q-19 27 -43 59t-51 61q-17 -16 -41.5 -38t-49.5 -44t-46 -38l-9 12q22 23 47.5 52t47 55.5t31.5 40.5l7 4h41q16 -27 38 -68t44 -86zM341 127q-32 -57 -74.5 -97t-91.5 -40q-52 0 -77 42.5t-25 117.5q0 65 20 128t54 114t76 82t85 31q37 0 55 -21t18 -56 q0 -42 -24 -76.5t-62.5 -60t-83.5 -40t-87 -17.5q-9 -44 -9 -86q0 -55 18 -89t55 -34q32 0 68.5 29t76.5 78zM297 473q-35 0 -68 -29.5t-59 -78t-41 -106.5q60 6 107.5 30.5t75 60t27.5 76.5q0 20 -11 33.5t-31 13.5z" />
<glyph unicode="&#xeb;" horiz-adv-x="348" d="M454 678q0 -22 -12 -39.5t-29 -17.5q-13 0 -21 8.5t-8 24.5q0 20 11.5 38t30.5 18q14 0 21 -9t7 -23zM264 678q0 -22 -12 -39.5t-29 -17.5q-13 0 -21 8.5t-8 24.5q0 20 11.5 38t30.5 18q14 0 21 -9t7 -23zM341 127q-32 -57 -74.5 -97t-91.5 -40q-52 0 -77 42.5t-25 117.5 q0 65 20 128t54 114t76 82t85 31q37 0 55 -21t18 -56q0 -42 -24 -76.5t-62.5 -60t-83.5 -40t-87 -17.5q-9 -44 -9 -86q0 -55 18 -89t55 -34q32 0 68.5 29t76.5 78zM297 473q-35 0 -68 -29.5t-59 -78t-41 -106.5q60 6 107.5 30.5t75 60t27.5 76.5q0 20 -11 33.5t-31 13.5z " />
<glyph unicode="&#xec;" horiz-adv-x="278" d="M336 592l-13 -11q-30 25 -63.5 53.5t-55 54.5t-18.5 43q2 10 11.5 16.5t25.5 6.5h4l5 -2q11 -31 40.5 -74.5t63.5 -86.5zM169 120q-4 -22 -7 -37.5t-3 -25.5q0 -12 4 -19.5t14 -7.5q13 0 29.5 15.5t34.5 39t34 47.5l8 -5q-13 -28 -32 -60t-42 -54.5t-48 -22.5 q-23 0 -33 15.5t-10 40.5q0 13 3 31t8 43q8 38 19 83l22 90t20 82q5 23 7.5 38t2.5 25q0 12 -3.5 19.5t-14.5 7.5q-12 0 -29 -15.5t-34.5 -38.5t-34.5 -48l-8 5q13 29 32 60.5t42.5 54t47.5 22.5q23 0 33 -15.5t10 -40.5q0 -13 -3 -30.5t-8 -43.5q-8 -39 -19.5 -84.5 t-22.5 -89.5t-19 -81z" />
<glyph unicode="&#xed;" horiz-adv-x="278" d="M331 754l6 2h4q27 0 27 -20q0 -15 -19.5 -34.5t-50.5 -41t-66.5 -42t-66.5 -37.5l-9 15q36 27 70 56t62 55.5t43 46.5zM169 120q-4 -22 -7 -37.5t-3 -25.5q0 -12 4 -19.5t14 -7.5q13 0 29.5 15.5t34.5 39t34 47.5l8 -5q-13 -28 -32 -60t-42 -54.5t-48 -22.5 q-23 0 -33 15.5t-10 40.5q0 13 3 31t8 43q8 38 19 83l22 90t20 82q5 23 7.5 38t2.5 25q0 12 -3.5 19.5t-14.5 7.5q-12 0 -29 -15.5t-34.5 -38.5t-34.5 -48l-8 5q13 29 32 60.5t42.5 54t47.5 22.5q23 0 33 -15.5t10 -40.5q0 -13 -3 -30.5t-8 -43.5q-8 -39 -19.5 -84.5 t-22.5 -89.5t-19 -81z" />
<glyph unicode="&#xee;" horiz-adv-x="278" d="M340 596l-16 -10q-13 26 -27.5 57t-28.5 59q-15 -17 -36 -38t-42.5 -41.5t-37.5 -36.5l-9 12q17 23 39.5 52t42.5 55.5t27 40.5l7 4h41q5 -28 16 -67t24 -87zM169 120q-4 -22 -7 -37.5t-3 -25.5q0 -12 4 -19.5t14 -7.5q13 0 29.5 15.5t34.5 39t34 47.5l8 -5 q-13 -28 -32 -60t-42 -54.5t-48 -22.5q-23 0 -33 15.5t-10 40.5q0 13 3 31t8 43q8 38 19 83l22 90t20 82q5 23 7.5 38t2.5 25q0 12 -3.5 19.5t-14.5 7.5q-12 0 -29 -15.5t-34.5 -38.5t-34.5 -48l-8 5q13 29 32 60.5t42.5 54t47.5 22.5q23 0 33 -15.5t10 -40.5 q0 -13 -3 -30.5t-8 -43.5q-8 -39 -19.5 -84.5t-22.5 -89.5t-19 -81z" />
<glyph unicode="&#xef;" horiz-adv-x="278" d="M363 670q-1 -18 -10.5 -33.5t-28.5 -15.5q-16 0 -24 12.5t-7 29.5q1 19 12.5 33.5t27.5 14.5t24 -11.5t6 -29.5zM223 670q-1 -18 -10.5 -33.5t-28.5 -15.5q-16 0 -24 12.5t-7 29.5q1 19 12.5 33.5t27.5 14.5t24 -11.5t6 -29.5zM169 120q-4 -22 -7 -37.5t-3 -25.5 q0 -12 4 -19.5t14 -7.5q13 0 29.5 15.5t34.5 39t34 47.5l8 -5q-13 -28 -32 -60t-42 -54.5t-48 -22.5q-23 0 -33 15.5t-10 40.5q0 13 3 31t8 43q8 38 19 83l22 90t20 82q5 23 7.5 38t2.5 25q0 12 -3.5 19.5t-14.5 7.5q-12 0 -29 -15.5t-34.5 -38.5t-34.5 -48l-8 5 q13 29 32 60.5t42.5 54t47.5 22.5q23 0 33 -15.5t10 -40.5q0 -13 -3 -30.5t-8 -43.5q-8 -39 -19.5 -84.5t-22.5 -89.5t-19 -81z" />
<glyph unicode="&#xf0;" horiz-adv-x="412" d="M208 -10q-52 0 -82.5 48.5t-30.5 124.5q0 67 17 128.5t46.5 109.5t66 76t75.5 28q47 0 69 -46q-13 90 -48 153l-161 -67l-7 25l155 64q-42 62 -112 100l11 18q83 -38 131 -105l124 51l7 -25l-117 -48q62 -105 63 -296q0 -57 -14.5 -116.5t-41.5 -110t-65.5 -81.5 t-85.5 -31zM300 473q-33 0 -62.5 -27t-52 -71.5t-35.5 -98.5t-13 -107q0 -68 21 -107.5t56 -39.5q33 0 62 25.5t51 69t34 98.5t12 114q0 62 -16.5 103t-56.5 41z" />
<glyph unicode="&#xf1;" horiz-adv-x="505" d="M294 689q-8 -3 -24.5 -20.5t-44.5 -49.5l-8 5q22 48 46.5 74t56.5 26q26 0 53 -15t51.5 -29.5t44.5 -15.5q8 3 24.5 20.5t44.5 49.5l8 -5q-22 -48 -46.5 -74t-56.5 -26q-26 0 -54 15t-52.5 30t-42.5 15zM110 11l24 109q14 64 28 127.5t28 127.5q10 43 10 63 q0 12 -3.5 19.5t-14.5 7.5q-12 0 -29 -15.5t-34.5 -38.5t-34.5 -48l-8 5q13 29 32 60.5t42.5 54t47.5 22.5q23 0 33 -15.5t10 -40.5q0 -23 -11.5 -76t-24.5 -115q17 33 39.5 75.5t49.5 81.5t57 64.5t61 25.5q29 0 42.5 -21t13.5 -50q0 -24 -7.5 -62t-19.5 -82.5l-24 -89 t-21 -80.5q-4 -22 -7 -37.5t-3 -25.5q0 -12 4 -19.5t14 -7.5q13 0 29.5 15.5t34.5 39t34 47.5l8 -5q-13 -28 -32 -60t-42 -54.5t-48 -22.5q-23 0 -33 15.5t-10 40.5q0 13 3 31t8 43q8 37 20 81t24 87.5t20 80t8 57.5q0 17 -7 28t-24 11q-21 0 -45 -22t-48.5 -58t-47.5 -76.5 t-41.5 -78.5t-29.5 -64l-11 -46l-26 -123l-16 -4q-3 -1 -8 -2t-9 -1q-7 0 -6.5 7t1.5 14z" />
<glyph unicode="&#xf2;" horiz-adv-x="394" d="M378 592l-13 -11q-30 25 -63.5 53.5t-55 54.5t-18.5 43q2 10 11.5 16.5t25.5 6.5h4l5 -2q11 -31 40.5 -74.5t63.5 -86.5zM397 335q0 -71 -17 -133.5t-46.5 -110t-67 -74.5t-77.5 -27q-51 0 -81.5 48.5t-30.5 124.5q0 67 17.5 128.5t47.5 109.5t67.5 76t77.5 28 q55 0 82.5 -46t27.5 -124zM119 169q0 -68 21 -107.5t56 -39.5q33 0 62 26t51 70.5t34 100.5t12 117q0 59 -16.5 98t-56.5 39q-33 0 -62.5 -27t-52 -71.5t-35.5 -98.5t-13 -107z" />
<glyph unicode="&#xf3;" horiz-adv-x="394" d="M383 754l6 2h4q27 0 27 -20q0 -15 -19.5 -34.5t-50.5 -41t-66.5 -42t-66.5 -37.5l-9 15q36 27 70 56t62 55.5t43 46.5zM397 335q0 -71 -17 -133.5t-46.5 -110t-67 -74.5t-77.5 -27q-51 0 -81.5 48.5t-30.5 124.5q0 67 17.5 128.5t47.5 109.5t67.5 76t77.5 28 q55 0 82.5 -46t27.5 -124zM119 169q0 -68 21 -107.5t56 -39.5q33 0 62 26t51 70.5t34 100.5t12 117q0 59 -16.5 98t-56.5 39q-33 0 -62.5 -27t-52 -71.5t-35.5 -98.5t-13 -107z" />
<glyph unicode="&#xf4;" horiz-adv-x="394" d="M431 596l-16 -10q-19 27 -43 59t-51 61q-17 -16 -41.5 -38t-49.5 -44t-46 -38l-9 12q22 23 47.5 52t47 55.5t31.5 40.5l7 4h41q16 -27 38 -68t44 -86zM397 335q0 -71 -17 -133.5t-46.5 -110t-67 -74.5t-77.5 -27q-51 0 -81.5 48.5t-30.5 124.5q0 67 17.5 128.5 t47.5 109.5t67.5 76t77.5 28q55 0 82.5 -46t27.5 -124zM119 169q0 -68 21 -107.5t56 -39.5q33 0 62 26t51 70.5t34 100.5t12 117q0 59 -16.5 98t-56.5 39q-33 0 -62.5 -27t-52 -71.5t-35.5 -98.5t-13 -107z" />
<glyph unicode="&#xf5;" horiz-adv-x="394" d="M220 689q-8 -3 -24.5 -20.5t-44.5 -49.5l-8 5q22 48 46.5 74t56.5 26q26 0 53 -15t51.5 -29.5t44.5 -15.5q8 3 24.5 20.5t44.5 49.5l8 -5q-22 -48 -46.5 -74t-56.5 -26q-26 0 -54 15t-52.5 30t-42.5 15zM397 335q0 -71 -17 -133.5t-46.5 -110t-67 -74.5t-77.5 -27 q-51 0 -81.5 48.5t-30.5 124.5q0 67 17.5 128.5t47.5 109.5t67.5 76t77.5 28q55 0 82.5 -46t27.5 -124zM119 169q0 -68 21 -107.5t56 -39.5q33 0 62 26t51 70.5t34 100.5t12 117q0 59 -16.5 98t-56.5 39q-33 0 -62.5 -27t-52 -71.5t-35.5 -98.5t-13 -107z" />
<glyph unicode="&#xf6;" horiz-adv-x="394" d="M443 678q0 -22 -12 -39.5t-29 -17.5q-13 0 -21 8.5t-8 24.5q0 20 11.5 38t30.5 18q14 0 21 -9t7 -23zM253 678q0 -22 -12 -39.5t-29 -17.5q-13 0 -21 8.5t-8 24.5q0 20 11.5 38t30.5 18q14 0 21 -9t7 -23zM397 335q0 -71 -17 -133.5t-46.5 -110t-67 -74.5t-77.5 -27 q-51 0 -81.5 48.5t-30.5 124.5q0 67 17.5 128.5t47.5 109.5t67.5 76t77.5 28q55 0 82.5 -46t27.5 -124zM119 169q0 -68 21 -107.5t56 -39.5q33 0 62 26t51 70.5t34 100.5t12 117q0 59 -16.5 98t-56.5 39q-33 0 -62.5 -27t-52 -71.5t-35.5 -98.5t-13 -107z" />
<glyph unicode="&#xf7;" d="M371 481q-13 0 -21 8.5t-8 22.5q0 25 12.5 42t31.5 17q13 0 21 -8t8 -22q0 -25 -12.5 -42.5t-31.5 -17.5zM536 322h-405l7 35q34 1 87.5 2t113 1.5t113.5 1t89 0.5l7 -8zM292 111q-13 0 -21 8.5t-8 22.5q0 25 12.5 42t31.5 17q13 0 21 -8t8 -22q0 -25 -12.5 -42.5 t-31.5 -17.5z" />
<glyph unicode="&#xf8;" horiz-adv-x="394" d="M397 335q0 -71 -17 -133.5t-46.5 -110t-67 -74.5t-77.5 -27q-36 0 -62.5 25.5t-39.5 68.5l-70 -71l-20 24l83 84q-3 20 -3 42q0 67 17.5 128.5t47.5 109.5t67.5 76t77.5 28q35 0 59.5 -20t36.5 -56l53 54l21 -24l-65 -65q5 -27 5 -59zM119 169v-1v-7l231 235 q-6 35 -22.5 56t-45.5 21q-33 0 -62.5 -27t-52 -71.5t-35.5 -98.5t-13 -107zM355 336v19l-233 -235q7 -46 26.5 -72t47.5 -26q33 0 62 26t51 70.5t34 100.5t12 117z" />
<glyph unicode="&#xf9;" horiz-adv-x="513" d="M442 592l-13 -11q-30 25 -63.5 53.5t-55 54.5t-18.5 43q2 10 11.5 16.5t25.5 6.5h4l5 -2q11 -31 40.5 -74.5t63.5 -86.5zM405 120q-4 -22 -7 -37.5t-3 -25.5q0 -12 4 -19.5t14 -7.5q13 0 29.5 15.5t34.5 39t34 47.5l8 -5q-13 -28 -32 -60t-42 -54.5t-48 -22.5 q-23 0 -33 15.5t-10 40.5q0 13 3 31t8 43l26 117q-9 -18 -25 -48t-36.5 -64t-45 -65t-50.5 -50.5t-52 -19.5q-28 0 -41.5 21.5t-13.5 49.5q0 24 7.5 62t19.5 82.5l24 89t21 80.5q5 23 7.5 38t2.5 25q0 12 -3.5 19.5t-14.5 7.5q-12 0 -29 -15.5t-34.5 -38.5t-34.5 -48l-8 5 q13 29 32 60.5t42.5 54t47.5 22.5q23 0 33 -15.5t10 -40.5q0 -13 -3 -30.5t-8 -43.5q-8 -37 -20 -81l-24 -88t-20 -80t-8 -57q0 -17 6.5 -28t20.5 -11q19 0 43.5 22.5t50.5 58t50 76.5t43 79t30 65l10 44l26 123l16 4q3 1 8 2t9 1q8 0 7.5 -6.5t-2.5 -14.5l-24 -109z" />
<glyph unicode="&#xfa;" horiz-adv-x="513" d="M447 754l6 2h4q27 0 27 -20q0 -15 -19.5 -34.5t-50.5 -41t-66.5 -42t-66.5 -37.5l-9 15q36 27 70 56t62 55.5t43 46.5zM405 120q-4 -22 -7 -37.5t-3 -25.5q0 -12 4 -19.5t14 -7.5q13 0 29.5 15.5t34.5 39t34 47.5l8 -5q-13 -28 -32 -60t-42 -54.5t-48 -22.5 q-23 0 -33 15.5t-10 40.5q0 13 3 31t8 43l26 117q-9 -18 -25 -48t-36.5 -64t-45 -65t-50.5 -50.5t-52 -19.5q-28 0 -41.5 21.5t-13.5 49.5q0 24 7.5 62t19.5 82.5l24 89t21 80.5q5 23 7.5 38t2.5 25q0 12 -3.5 19.5t-14.5 7.5q-12 0 -29 -15.5t-34.5 -38.5t-34.5 -48l-8 5 q13 29 32 60.5t42.5 54t47.5 22.5q23 0 33 -15.5t10 -40.5q0 -13 -3 -30.5t-8 -43.5q-8 -37 -20 -81l-24 -88t-20 -80t-8 -57q0 -17 6.5 -28t20.5 -11q19 0 43.5 22.5t50.5 58t50 76.5t43 79t30 65l10 44l26 123l16 4q3 1 8 2t9 1q8 0 7.5 -6.5t-2.5 -14.5l-24 -109z" />
<glyph unicode="&#xfb;" horiz-adv-x="513" d="M490 596l-16 -10q-19 27 -43 59t-51 61q-17 -16 -41.5 -38t-49.5 -44t-46 -38l-9 12q22 23 47.5 52t47 55.5t31.5 40.5l7 4h41q16 -27 38 -68t44 -86zM405 120q-4 -22 -7 -37.5t-3 -25.5q0 -12 4 -19.5t14 -7.5q13 0 29.5 15.5t34.5 39t34 47.5l8 -5q-13 -28 -32 -60 t-42 -54.5t-48 -22.5q-23 0 -33 15.5t-10 40.5q0 13 3 31t8 43l26 117q-9 -18 -25 -48t-36.5 -64t-45 -65t-50.5 -50.5t-52 -19.5q-28 0 -41.5 21.5t-13.5 49.5q0 24 7.5 62t19.5 82.5l24 89t21 80.5q5 23 7.5 38t2.5 25q0 12 -3.5 19.5t-14.5 7.5q-12 0 -29 -15.5 t-34.5 -38.5t-34.5 -48l-8 5q13 29 32 60.5t42.5 54t47.5 22.5q23 0 33 -15.5t10 -40.5q0 -13 -3 -30.5t-8 -43.5q-8 -37 -20 -81l-24 -88t-20 -80t-8 -57q0 -17 6.5 -28t20.5 -11q19 0 43.5 22.5t50.5 58t50 76.5t43 79t30 65l10 44l26 123l16 4q3 1 8 2t9 1q8 0 7.5 -6.5 t-2.5 -14.5l-24 -109z" />
<glyph unicode="&#xfc;" horiz-adv-x="513" d="M507 678q0 -22 -12 -39.5t-29 -17.5q-13 0 -21 8.5t-8 24.5q0 20 11.5 38t30.5 18q14 0 21 -9t7 -23zM317 678q0 -22 -12 -39.5t-29 -17.5q-13 0 -21 8.5t-8 24.5q0 20 11.5 38t30.5 18q14 0 21 -9t7 -23zM405 120q-4 -22 -7 -37.5t-3 -25.5q0 -12 4 -19.5t14 -7.5 q13 0 29.5 15.5t34.5 39t34 47.5l8 -5q-13 -28 -32 -60t-42 -54.5t-48 -22.5q-23 0 -33 15.5t-10 40.5q0 13 3 31t8 43l26 117q-9 -18 -25 -48t-36.5 -64t-45 -65t-50.5 -50.5t-52 -19.5q-28 0 -41.5 21.5t-13.5 49.5q0 24 7.5 62t19.5 82.5l24 89t21 80.5q5 23 7.5 38 t2.5 25q0 12 -3.5 19.5t-14.5 7.5q-12 0 -29 -15.5t-34.5 -38.5t-34.5 -48l-8 5q13 29 32 60.5t42.5 54t47.5 22.5q23 0 33 -15.5t10 -40.5q0 -13 -3 -30.5t-8 -43.5q-8 -37 -20 -81l-24 -88t-20 -80t-8 -57q0 -17 6.5 -28t20.5 -11q19 0 43.5 22.5t50.5 58t50 76.5t43 79 t30 65l10 44l26 123l16 4q3 1 8 2t9 1q8 0 7.5 -6.5t-2.5 -14.5l-24 -109z" />
<glyph unicode="&#xfd;" horiz-adv-x="385" d="M373 754l6 2h4q27 0 27 -20q0 -15 -19.5 -34.5t-50.5 -41t-66.5 -42t-66.5 -37.5l-9 15q36 27 70 56t62 55.5t43 46.5zM148 505q70 0 70 -165q0 -62 -13 -149.5t-39 -173.5q95 86 150 197t55 232q0 36 -4 53q6 6 17 6q33 0 33 -57q0 -49 -17 -109.5t-50.5 -125 t-83 -126.5t-114.5 -114q-22 -63 -51.5 -114.5t-67 -82.5t-82.5 -31q-33 0 -52.5 15t-19.5 35q0 11 5 18.5t12 11.5q13 -19 30 -30.5t41 -11.5q40 0 69.5 29.5t52 78.5t38.5 107q18 61 28.5 125t15.5 120t5 92q0 68 -12 99t-29 31q-19 0 -41.5 -31t-46.5 -71l-8 5 q12 32 29 63.5t37.5 52.5t42.5 21z" />
<glyph unicode="&#xfe;" horiz-adv-x="422" d="M22 -234l24 109l167 759l16 72l-75 11v10q28 8 57 15t58 12l8 -8l-24 -112l-82 -373q14 28 33.5 68.5t44.5 80.5t54.5 67t62.5 28q34 1 52 -31t18 -89q0 -78 -20.5 -149t-55.5 -126.5t-80 -87.5t-94 -32q-34 0 -72 10l-28 -125l-26 -123l-16 -4q-3 -1 -8 -2t-9 -1 q-7 0 -6.5 7t1.5 14zM353 465q-20 0 -43.5 -23.5t-47.5 -60.5t-46 -79t-39.5 -80t-27.5 -63l-27 -121q17 -8 35.5 -12t43.5 -4q41 0 76 30.5t61.5 82.5t41 116.5t14.5 131.5q0 82 -41 82z" />
<glyph unicode="&#xff;" horiz-adv-x="385" d="M424 678q0 -22 -12 -39.5t-29 -17.5q-13 0 -21 8.5t-8 24.5q0 20 11.5 38t30.5 18q14 0 21 -9t7 -23zM234 678q0 -22 -12 -39.5t-29 -17.5q-13 0 -21 8.5t-8 24.5q0 20 11.5 38t30.5 18q14 0 21 -9t7 -23zM148 505q70 0 70 -165q0 -62 -13 -149.5t-39 -173.5 q95 86 150 197t55 232q0 36 -4 53q6 6 17 6q33 0 33 -57q0 -49 -17 -109.5t-50.5 -125t-83 -126.5t-114.5 -114q-22 -63 -51.5 -114.5t-67 -82.5t-82.5 -31q-33 0 -52.5 15t-19.5 35q0 11 5 18.5t12 11.5q13 -19 30 -30.5t41 -11.5q40 0 69.5 29.5t52 78.5t38.5 107 q18 61 28.5 125t15.5 120t5 92q0 68 -12 99t-29 31q-19 0 -41.5 -31t-46.5 -71l-8 5q12 32 29 63.5t37.5 52.5t42.5 21z" />
<glyph unicode="&#x100;" horiz-adv-x="649" d="M350 819l8 34h252l-8 -34h-252zM444 687h23l76 -618q2 -17 8 -25t20 -11l57 -13l-2 -20h-205l-4 20l89 19l-26 216l-237 -4l-116 -212l82 -19l-4 -20h-200l-2 20l55 13q17 4 27 12t19 24zM261 285h215l-40 321z" />
<glyph unicode="&#x101;" horiz-adv-x="465" d="M238 653l8 34h234l-8 -34h-234zM357 120q-4 -22 -7 -37.5t-3 -25.5q0 -12 4 -19.5t14 -7.5q13 0 29.5 15.5t34.5 39t34 47.5l8 -5q-13 -28 -32 -60t-42 -54.5t-48 -22.5q-23 0 -33 15.5t-10 40.5q0 13 3 31t8 43l31 140q-19 -40 -44 -86.5t-54 -88.5t-59.5 -68.5 t-60.5 -26.5q-28 0 -47 28t-19 82q0 80 24 153t64.5 130t91.5 89.5t106 32.5q26 0 49 -6t39 -14zM106 101q0 -31 9.5 -51t26.5 -20q20 0 46.5 26t55 67t54.5 87.5t45.5 88.5t28.5 68l20 92q-17 9 -33 12.5t-39 3.5q-38 0 -76 -30t-69 -82t-50 -119.5t-19 -142.5z" />
<glyph unicode="&#x102;" horiz-adv-x="649" d="M596 890l4 2l13 -8q-25 -46 -62.5 -72.5t-84.5 -26.5q-43 0 -66.5 27.5t-21.5 76.5l16 3q3 -30 25 -47t59 -17q34 0 65 16.5t53 45.5zM444 687h23l76 -618q2 -17 8 -25t20 -11l57 -13l-2 -20h-205l-4 20l89 19l-26 216l-237 -4l-116 -212l82 -19l-4 -20h-200l-2 20l55 13 q17 4 27 12t19 24zM261 285h215l-40 321z" />
<glyph unicode="&#x103;" horiz-adv-x="465" d="M488 728l4 2l14 -3q-25 -58 -63 -90t-85 -32q-44 0 -67.5 32t-21.5 90l17 3q3 -38 25 -60t59 -22q34 0 65 21.5t53 58.5zM357 120q-4 -22 -7 -37.5t-3 -25.5q0 -12 4 -19.5t14 -7.5q13 0 29.5 15.5t34.5 39t34 47.5l8 -5q-13 -28 -32 -60t-42 -54.5t-48 -22.5 q-23 0 -33 15.5t-10 40.5q0 13 3 31t8 43l31 140q-19 -40 -44 -86.5t-54 -88.5t-59.5 -68.5t-60.5 -26.5q-28 0 -47 28t-19 82q0 80 24 153t64.5 130t91.5 89.5t106 32.5q26 0 49 -6t39 -14zM106 101q0 -31 9.5 -51t26.5 -20q20 0 46.5 26t55 67t54.5 87.5t45.5 88.5 t28.5 68l20 92q-17 9 -33 12.5t-39 3.5q-38 0 -76 -30t-69 -82t-50 -119.5t-19 -142.5z" />
<glyph unicode="&#x104;" horiz-adv-x="649" d="M623 0q-62 -23 -98.5 -61.5t-36.5 -73.5q0 -17 9.5 -27t21.5 -10q24 0 47.5 21.5t44.5 46.5l8 -5q-10 -21 -26 -45t-37.5 -41t-48.5 -17q-33 0 -47.5 19t-14.5 47q0 36 31.5 76t88.5 70h-144l-4 20l89 19l-26 216l-237 -4l-116 -212l82 -19l-4 -20h-200l-2 20l55 13 q17 4 27 12t19 24l340 618h23l76 -618q2 -17 8 -25t20 -11l57 -13l-2 -20h-3zM261 285h215l-40 321z" />
<glyph unicode="&#x105;" horiz-adv-x="465" d="M357 120q-4 -22 -7 -37.5t-3 -25.5q0 -12 4 -19.5t14 -7.5q13 0 29.5 15.5t34.5 39t34 47.5l8 -5q-10 -21 -23 -45t-28 -44q-30 -43 -61.5 -74.5t-52.5 -56.5t-21 -50q0 -13 7.5 -21t20.5 -8q23 0 44 22t41 46l8 -5q-10 -21 -25.5 -45t-36 -41t-46.5 -17q-25 0 -40.5 17 t-15.5 42q0 29 17 52t43 44.5t52 46.5h-5q-23 0 -33 15.5t-10 40.5q0 13 3 31t8 43l31 140q-19 -40 -44 -86.5t-54 -88.5t-59.5 -68.5t-60.5 -26.5q-28 0 -47 28t-19 82q0 80 24 153t64.5 130t91.5 89.5t106 32.5q26 0 49 -6t39 -14zM106 101q0 -31 9.5 -51t26.5 -20 q20 0 46.5 26t55 67t54.5 87.5t45.5 88.5t28.5 68l20 92q-17 9 -33 12.5t-39 3.5q-38 0 -76 -30t-69 -82t-50 -119.5t-19 -142.5z" />
<glyph unicode="&#x106;" horiz-adv-x="582" d="M609 896l7 1q7 -1 16.5 -7.5t9.5 -18.5q0 -13 -23 -27t-59.5 -26.5t-77 -23t-76.5 -16.5l-5 16q66 28 120.5 52.5t87.5 49.5zM367 -10q-79 0 -137 33t-89.5 93.5t-31.5 143.5q0 90 30.5 168.5t84.5 138.5t124.5 94t150.5 34q82 0 124 -25q-1 -17 -6.5 -44.5t-12.5 -56 t-14 -49.5h-15q-1 32 -2.5 64t-3.5 63q-15 5 -32 9t-45 4q-67 0 -128 -31.5t-108.5 -85.5t-74.5 -124.5t-27 -148.5q0 -80 28.5 -135t77.5 -82.5t109 -27.5q32 0 53.5 4.5t38.5 8.5l30 64t30 63h15q-4 -34 -13.5 -76t-17.5 -69q-23 -13 -60.5 -21.5t-77.5 -8.5z" />
<glyph unicode="&#x107;" horiz-adv-x="342" d="M429 754l6 2h4q27 0 27 -20q0 -15 -19.5 -34.5t-50.5 -41t-66.5 -42t-66.5 -37.5l-9 15q36 27 70 56t62 55.5t43 46.5zM311 505q36 0 55.5 -23.5t19.5 -59.5q0 -29 -13.5 -55.5t-33.5 -26.5q-6 0 -12 4q7 13 13 32.5t6 40.5q0 25 -11 40.5t-38 15.5q-33 0 -65.5 -29 t-59 -77.5t-42.5 -107t-16 -118.5q0 -53 19 -84.5t59 -31.5q32 0 69 29t77 78l8 -5q-31 -55 -74 -96t-92 -41q-57 0 -82.5 39.5t-25.5 110.5q0 69 20.5 134.5t55 117.5t77 82.5t86.5 30.5z" />
<glyph unicode="&#x108;" horiz-adv-x="582" d="M647 781l-16 -10q-21 21 -47.5 46t-56.5 48q-18 -13 -44 -30t-53.5 -34t-49.5 -30l-9 12q24 19 52 42t51.5 44t34.5 32l7 4h37q18 -22 43.5 -55t50.5 -69zM367 -10q-79 0 -137 33t-89.5 93.5t-31.5 143.5q0 90 30.5 168.5t84.5 138.5t124.5 94t150.5 34q82 0 124 -25 q-1 -17 -6.5 -44.5t-12.5 -56t-14 -49.5h-15q-1 32 -2.5 64t-3.5 63q-15 5 -32 9t-45 4q-67 0 -128 -31.5t-108.5 -85.5t-74.5 -124.5t-27 -148.5q0 -80 28.5 -135t77.5 -82.5t109 -27.5q32 0 53.5 4.5t38.5 8.5l30 64t30 63h15q-4 -34 -13.5 -76t-17.5 -69 q-23 -13 -60.5 -21.5t-77.5 -8.5z" />
<glyph unicode="&#x109;" horiz-adv-x="342" d="M447 596l-16 -10q-19 27 -43 59t-51 61q-17 -16 -41.5 -38t-49.5 -44t-46 -38l-9 12q22 23 47.5 52t47 55.5t31.5 40.5l7 4h41q16 -27 38 -68t44 -86zM311 505q36 0 55.5 -23.5t19.5 -59.5q0 -29 -13.5 -55.5t-33.5 -26.5q-6 0 -12 4q7 13 13 32.5t6 40.5q0 25 -11 40.5 t-38 15.5q-33 0 -65.5 -29t-59 -77.5t-42.5 -107t-16 -118.5q0 -53 19 -84.5t59 -31.5q32 0 69 29t77 78l8 -5q-31 -55 -74 -96t-92 -41q-57 0 -82.5 39.5t-25.5 110.5q0 69 20.5 134.5t55 117.5t77 82.5t86.5 30.5z" />
<glyph unicode="&#x10a;" horiz-adv-x="582" d="M560 844q0 -20 -14 -36t-33 -16q-32 0 -32 32q0 20 14 35t33 15q32 0 32 -30zM367 -10q-79 0 -137 33t-89.5 93.5t-31.5 143.5q0 90 30.5 168.5t84.5 138.5t124.5 94t150.5 34q82 0 124 -25q-1 -17 -6.5 -44.5t-12.5 -56t-14 -49.5h-15q-1 32 -2.5 64t-3.5 63 q-15 5 -32 9t-45 4q-67 0 -128 -31.5t-108.5 -85.5t-74.5 -124.5t-27 -148.5q0 -80 28.5 -135t77.5 -82.5t109 -27.5q32 0 53.5 4.5t38.5 8.5l30 64t30 63h15q-4 -34 -13.5 -76t-17.5 -69q-23 -13 -60.5 -21.5t-77.5 -8.5z" />
<glyph unicode="&#x10b;" horiz-adv-x="342" d="M341 618q-13 0 -21 8.5t-8 22.5q0 25 12.5 42t31.5 17q13 0 21 -8t8 -22q0 -25 -12.5 -42.5t-31.5 -17.5zM311 505q36 0 55.5 -23.5t19.5 -59.5q0 -29 -13.5 -55.5t-33.5 -26.5q-6 0 -12 4q7 13 13 32.5t6 40.5q0 25 -11 40.5t-38 15.5q-33 0 -65.5 -29t-59 -77.5 t-42.5 -107t-16 -118.5q0 -53 19 -84.5t59 -31.5q32 0 69 29t77 78l8 -5q-31 -55 -74 -96t-92 -41q-57 0 -82.5 39.5t-25.5 110.5q0 69 20.5 134.5t55 117.5t77 82.5t86.5 30.5z" />
<glyph unicode="&#x10c;" horiz-adv-x="582" d="M528 775l-6 -4h-41q-17 22 -39 55t-45 69l16 10q20 -21 44 -46t50 -48q20 13 47 30t55.5 34t50.5 30l10 -12q-24 -18 -52.5 -41.5t-53 -44t-36.5 -32.5zM367 -10q-79 0 -137 33t-89.5 93.5t-31.5 143.5q0 90 30.5 168.5t84.5 138.5t124.5 94t150.5 34q82 0 124 -25 q-1 -17 -6.5 -44.5t-12.5 -56t-14 -49.5h-15q-1 32 -2.5 64t-3.5 63q-15 5 -32 9t-45 4q-67 0 -128 -31.5t-108.5 -85.5t-74.5 -124.5t-27 -148.5q0 -80 28.5 -135t77.5 -82.5t109 -27.5q32 0 53.5 4.5t38.5 8.5l30 64t30 63h15q-4 -34 -13.5 -76t-17.5 -69 q-23 -13 -60.5 -21.5t-77.5 -8.5z" />
<glyph unicode="&#x10d;" horiz-adv-x="342" d="M352 590l-6 -4h-41q-15 27 -35 68t-40 86l16 10q18 -27 40 -59t46 -61q18 16 44 38t53 44t48 38l10 -12q-23 -23 -50.5 -52t-50.5 -55t-34 -41zM311 505q36 0 55.5 -23.5t19.5 -59.5q0 -29 -13.5 -55.5t-33.5 -26.5q-6 0 -12 4q7 13 13 32.5t6 40.5q0 25 -11 40.5 t-38 15.5q-33 0 -65.5 -29t-59 -77.5t-42.5 -107t-16 -118.5q0 -53 19 -84.5t59 -31.5q32 0 69 29t77 78l8 -5q-31 -55 -74 -96t-92 -41q-57 0 -82.5 39.5t-25.5 110.5q0 69 20.5 134.5t55 117.5t77 82.5t86.5 30.5z" />
<glyph unicode="&#x10e;" horiz-adv-x="644" d="M493 775l-6 -4h-41q-17 22 -39 55t-45 69l16 10q20 -21 44 -46t50 -48q20 13 47 30t55.5 34t50.5 30l10 -12q-24 -18 -52.5 -41.5t-53 -44t-36.5 -32.5zM303 565l-94 -445l-19 -88h67q84 0 150 32.5t112 88.5t70 127t24 147q0 103 -58 164.5t-176 61.5h-58zM254 0h-198 l-2 20l67 13q17 3 24 9.5t10 20.5l12 57l94 445l17 81l-84 19l4 20h192q84 0 144 -31.5t92 -88.5t32 -135q0 -81 -27 -157.5t-79 -138t-127 -98t-171 -36.5z" />
<glyph unicode="&#x10f;" horiz-adv-x="465" d="M357 120q-4 -22 -7 -37.5t-3 -25.5q0 -12 4 -19.5t14 -7.5q13 0 29.5 15.5t34.5 39t34 47.5l8 -5q-13 -28 -32 -60t-42 -54.5t-48 -22.5q-23 0 -33 15.5t-10 40.5q0 13 3 31t8 43l32 142q-19 -40 -44 -87t-54 -89t-60 -69t-61 -27q-28 0 -47 28t-19 82q0 80 24 153 t64.5 130t91.5 89.5t106 32.5q26 0 52 -7l30 136l16 72l-95 11v10q28 8 67 15t68 12l8 -8l-24 -112zM637 706q0 -24 -14 -54t-38 -58t-54 -48l-7 7q24 28 39.5 53t24.5 54q-33 1 -33 35q0 21 14.5 35.5t34.5 14.5q15 0 24 -10.5t9 -28.5zM142 30q18 0 41 20.5t47.5 54 t48.5 74t44.5 80t34.5 72t18 50.5l17 78q-18 9 -34 12.5t-39 3.5q-38 0 -76 -30t-69 -82t-50 -119.5t-19 -142.5q0 -31 9.5 -51t26.5 -20z" />
<glyph unicode="&#x110;" horiz-adv-x="644" d="M452 338h-197l-46 -218l-19 -88h67q84 0 150 32.5t112 88.5t70 127t24 147q0 103 -58 164.5t-176 61.5h-58l-18 -88l-42 -197h197zM254 0h-198l-2 20l67 13q17 3 24 9.5t10 20.5l12 57l46 218h-110l6 30h110l42 197l17 81l-84 19l4 20h192q84 0 144 -31.5t92 -88.5 t32 -135q0 -81 -27 -157.5t-79 -138t-127 -98t-171 -36.5z" />
<glyph unicode="&#x111;" horiz-adv-x="465" d="M357 120q-4 -22 -7 -37.5t-3 -25.5q0 -12 4 -19.5t14 -7.5q13 0 29.5 15.5t34.5 39t34 47.5l8 -5q-13 -28 -32 -60t-42 -54.5t-48 -22.5q-23 0 -33 15.5t-10 40.5q0 13 3 31t8 43l32 142q-19 -40 -44 -87t-54 -89t-60 -69t-61 -27q-28 0 -47 28t-19 82q0 80 24 153 t64.5 130t91.5 89.5t106 32.5q26 0 52 -7l21 94h-177l6 30h177l3 12l16 72l-95 11v10q28 8 67 15t68 12l8 -8l-24 -112l-3 -12h132l-6 -30h-132zM142 30q18 0 41 20.5t47.5 54t48.5 74t44.5 80t34.5 72t18 50.5l17 78q-18 9 -34 12.5t-39 3.5q-38 0 -76 -30t-69 -82 t-50 -119.5t-19 -142.5q0 -31 9.5 -51t26.5 -20z" />
<glyph unicode="&#x112;" horiz-adv-x="564" d="M334 818l8 34h252l-8 -34h-252zM303 565l-43 -205l213 5l-9 -39l-210 5l-45 -211l-19 -90h148q31 0 62.5 1.5t51.5 3.5q16 32 31 65t31 65h15q-3 -23 -8.5 -52.5t-13 -59.5t-16.5 -53h-435l-2 20l67 13q17 3 24 9.5t10 20.5l12 57l94 445l17 81l-84 19l4 20h408 q-1 -34 -11 -79.5t-21 -85.5h-15q-1 32 -3 65t-4 65q-19 2 -50 3.5t-62 1.5h-118z" />
<glyph unicode="&#x113;" horiz-adv-x="348" d="M197 653l8 34h234l-8 -34h-234zM341 127q-32 -57 -74.5 -97t-91.5 -40q-52 0 -77 42.5t-25 117.5q0 65 20 128t54 114t76 82t85 31q37 0 55 -21t18 -56q0 -42 -24 -76.5t-62.5 -60t-83.5 -40t-87 -17.5q-9 -44 -9 -86q0 -55 18 -89t55 -34q32 0 68.5 29t76.5 78zM297 473 q-35 0 -68 -29.5t-59 -78t-41 -106.5q60 6 107.5 30.5t75 60t27.5 76.5q0 20 -11 33.5t-31 13.5z" />
<glyph unicode="&#x114;" horiz-adv-x="564" d="M581 889l4 2l13 -8q-25 -46 -62.5 -72.5t-84.5 -26.5q-43 0 -66.5 27.5t-21.5 76.5l16 3q3 -30 25 -47t59 -17q34 0 65 16.5t53 45.5zM303 565l-43 -205l213 5l-9 -39l-210 5l-45 -211l-19 -90h148q31 0 62.5 1.5t51.5 3.5q16 32 31 65t31 65h15q-3 -23 -8.5 -52.5 t-13 -59.5t-16.5 -53h-435l-2 20l67 13q17 3 24 9.5t10 20.5l12 57l94 445l17 81l-84 19l4 20h408q-1 -34 -11 -79.5t-21 -85.5h-15q-1 32 -3 65t-4 65q-19 2 -50 3.5t-62 1.5h-118z" />
<glyph unicode="&#x115;" horiz-adv-x="348" d="M446 728l4 2l14 -3q-25 -58 -63 -90t-85 -32q-44 0 -67.5 32t-21.5 90l17 3q3 -38 25 -60t59 -22q34 0 65 21.5t53 58.5zM341 127q-32 -57 -74.5 -97t-91.5 -40q-52 0 -77 42.5t-25 117.5q0 65 20 128t54 114t76 82t85 31q37 0 55 -21t18 -56q0 -42 -24 -76.5t-62.5 -60 t-83.5 -40t-87 -17.5q-9 -44 -9 -86q0 -55 18 -89t55 -34q32 0 68.5 29t76.5 78zM297 473q-35 0 -68 -29.5t-59 -78t-41 -106.5q60 6 107.5 30.5t75 60t27.5 76.5q0 20 -11 33.5t-31 13.5z" />
<glyph unicode="&#x116;" horiz-adv-x="564" d="M502 843q0 -20 -14 -36t-33 -16q-32 0 -32 32q0 20 14 35t33 15q32 0 32 -30zM303 565l-43 -205l213 5l-9 -39l-210 5l-45 -211l-19 -90h148q31 0 62.5 1.5t51.5 3.5q16 32 31 65t31 65h15q-3 -23 -8.5 -52.5t-13 -59.5t-16.5 -53h-435l-2 20l67 13q17 3 24 9.5t10 20.5 l12 57l94 445l17 81l-84 19l4 20h408q-1 -34 -11 -79.5t-21 -85.5h-15q-1 32 -3 65t-4 65q-19 2 -50 3.5t-62 1.5h-118z" />
<glyph unicode="&#x117;" horiz-adv-x="348" d="M316 618q-13 0 -21 8.5t-8 22.5q0 25 12.5 42t31.5 17q13 0 21 -8t8 -22q0 -25 -12.5 -42.5t-31.5 -17.5zM341 127q-32 -57 -74.5 -97t-91.5 -40q-52 0 -77 42.5t-25 117.5q0 65 20 128t54 114t76 82t85 31q37 0 55 -21t18 -56q0 -42 -24 -76.5t-62.5 -60t-83.5 -40 t-87 -17.5q-9 -44 -9 -86q0 -55 18 -89t55 -34q32 0 68.5 29t76.5 78zM297 473q-35 0 -68 -29.5t-59 -78t-41 -106.5q60 6 107.5 30.5t75 60t27.5 76.5q0 20 -11 33.5t-31 13.5z" />
<glyph unicode="&#x118;" horiz-adv-x="564" d="M485 0q-62 -23 -98.5 -61.5t-36.5 -73.5q0 -17 9.5 -27t21.5 -10q24 0 47.5 21.5t44.5 46.5l8 -5q-10 -21 -26 -45t-37.5 -41t-48.5 -17q-33 0 -47.5 19t-14.5 47q0 36 31.5 76t88.5 70h-371l-2 20l67 13q17 3 24 9.5t10 20.5l12 57l94 445l17 81l-84 19l4 20h408 q-1 -34 -11 -79.5t-21 -85.5h-15q-1 32 -3 65t-4 65q-19 2 -50 3.5t-62 1.5h-118l-19 -90l-43 -205l213 5l-9 -39l-210 5l-45 -211l-19 -90h148q31 0 62.5 1.5t51.5 3.5q16 32 31 65t31 65h15q-3 -23 -8.5 -52.5t-13 -59.5t-16.5 -53h-6z" />
<glyph unicode="&#x119;" horiz-adv-x="348" d="M341 127q-14 -24 -29.5 -46t-33.5 -40q-34 -42 -67 -73.5t-54.5 -57.5t-21.5 -53q0 -13 7.5 -21t20.5 -8q23 0 44 22t41 46l8 -5q-10 -21 -25.5 -45t-36 -41t-46.5 -17q-25 0 -40.5 17t-15.5 42q0 31 19 55t46 46t53 48q-18 -6 -35 -6q-52 0 -77 42.5t-25 117.5 q0 65 20 128t54 114t76 82t85 31q37 0 55 -21t18 -56q0 -42 -24 -76.5t-62.5 -60t-83.5 -40t-87 -17.5q-9 -44 -9 -86q0 -55 18 -89t55 -34q32 0 68.5 29t76.5 78zM297 473q-35 0 -68 -29.5t-59 -78t-41 -106.5q60 6 107.5 30.5t75 60t27.5 76.5q0 20 -11 33.5t-31 13.5z " />
<glyph unicode="&#x11a;" horiz-adv-x="564" d="M480 774l-6 -4h-41q-17 22 -39 55t-45 69l16 10q20 -21 44 -46t50 -48q20 13 47 30t55.5 34t50.5 30l10 -12q-24 -18 -52.5 -41.5t-53 -44t-36.5 -32.5zM303 565l-43 -205l213 5l-9 -39l-210 5l-45 -211l-19 -90h148q31 0 62.5 1.5t51.5 3.5q16 32 31 65t31 65h15 q-3 -23 -8.5 -52.5t-13 -59.5t-16.5 -53h-435l-2 20l67 13q17 3 24 9.5t10 20.5l12 57l94 445l17 81l-84 19l4 20h408q-1 -34 -11 -79.5t-21 -85.5h-15q-1 32 -3 65t-4 65q-19 2 -50 3.5t-62 1.5h-118z" />
<glyph unicode="&#x11b;" horiz-adv-x="348" d="M345 590l-6 -4h-41q-15 27 -35 68t-40 86l16 10q18 -27 40 -59t46 -61q18 16 44 38t53 44t48 38l10 -12q-23 -23 -50.5 -52t-50.5 -55t-34 -41zM341 127q-32 -57 -74.5 -97t-91.5 -40q-52 0 -77 42.5t-25 117.5q0 65 20 128t54 114t76 82t85 31q37 0 55 -21t18 -56 q0 -42 -24 -76.5t-62.5 -60t-83.5 -40t-87 -17.5q-9 -44 -9 -86q0 -55 18 -89t55 -34q32 0 68.5 29t76.5 78zM297 473q-35 0 -68 -29.5t-59 -78t-41 -106.5q60 6 107.5 30.5t75 60t27.5 76.5q0 20 -11 33.5t-31 13.5z" />
<glyph unicode="&#x11c;" horiz-adv-x="612" d="M653 781l-16 -10q-21 21 -47.5 46t-56.5 48q-18 -13 -44 -30t-53.5 -34t-49.5 -30l-9 12q24 19 52 42t51.5 44t34.5 32l7 4h37q18 -22 43.5 -55t50.5 -69zM369 25q58 0 99 15l34 160l18 81l-85 19l4 20h216l2 -20l-67 -13q-16 -3 -23 -9.5t-10 -20.5l-13 -57l-39 -180 q-28 -13 -60 -21.5t-81 -8.5q-75 0 -132.5 32t-90 92t-32.5 144q0 95 32 174.5t86.5 138.5t124.5 91.5t145 32.5q44 0 78 -5.5t66 -19.5q-3 -28 -12 -70t-21 -80h-15q-1 32 -2.5 64t-3.5 63q-23 8 -46.5 10.5t-53.5 2.5q-63 0 -122.5 -30.5t-107 -85t-75.5 -127.5t-28 -157 q0 -67 26 -120.5t74.5 -84t114.5 -30.5z" />
<glyph unicode="&#x11d;" horiz-adv-x="365" d="M421 593l-16 -10q-19 27 -43 59t-51 61q-17 -16 -41.5 -38t-49.5 -44t-46 -38l-9 12q22 23 47.5 52t47 55.5t31.5 40.5l7 4h41q16 -27 38 -68t44 -86zM265 505q57 0 103.5 3t76.5 10q5 -8 5 -18q0 -12 -8.5 -22t-29.5 -10q-14 0 -37.5 3.5t-55.5 9.5q23 -18 32 -43.5 t9 -55.5q0 -57 -20 -101.5t-49.5 -78.5t-59 -60t-49.5 -45.5t-20 -34.5q0 -13 12.5 -23t34.5 -24q56 -35 87 -61t31 -65q0 -31 -23 -64.5t-69 -56.5t-116 -23t-110.5 31.5t-40.5 74.5q0 35 22.5 64t60.5 57l8 -8q-20 -23 -34.5 -48t-14.5 -54q0 -28 17.5 -47t46.5 -28.5 t61 -9.5q67 0 108.5 30.5t41.5 74.5q0 26 -20.5 46.5t-64.5 46.5q-34 21 -57.5 37t-23.5 40q0 22 24 44t65 58q-8 -1 -15 -1q-48 0 -78 34.5t-30 92.5q0 61 25 112t66 82t89 31zM127 289q0 -49 21.5 -78.5t52.5 -29.5q30 0 57 27.5t43.5 73t16.5 99.5q0 43 -17 68.5 t-49 25.5q-34 0 -62.5 -27.5t-45.5 -70t-17 -88.5z" />
<glyph unicode="&#x11e;" horiz-adv-x="612" d="M635 890l4 2l13 -8q-25 -46 -62.5 -72.5t-84.5 -26.5q-43 0 -66.5 27.5t-21.5 76.5l16 3q3 -30 25 -47t59 -17q34 0 65 16.5t53 45.5zM369 25q58 0 99 15l34 160l18 81l-85 19l4 20h216l2 -20l-67 -13q-16 -3 -23 -9.5t-10 -20.5l-13 -57l-39 -180q-28 -13 -60 -21.5 t-81 -8.5q-75 0 -132.5 32t-90 92t-32.5 144q0 95 32 174.5t86.5 138.5t124.5 91.5t145 32.5q44 0 78 -5.5t66 -19.5q-3 -28 -12 -70t-21 -80h-15q-1 32 -2.5 64t-3.5 63q-23 8 -46.5 10.5t-53.5 2.5q-63 0 -122.5 -30.5t-107 -85t-75.5 -127.5t-28 -157q0 -67 26 -120.5 t74.5 -84t114.5 -30.5z" />
<glyph unicode="&#x11f;" horiz-adv-x="365" d="M430 725l4 2l14 -3q-25 -58 -63 -90t-85 -32q-44 0 -67.5 32t-21.5 90l17 3q3 -38 25 -60t59 -22q34 0 65 21.5t53 58.5zM265 505q57 0 103.5 3t76.5 10q5 -8 5 -18q0 -12 -8.5 -22t-29.5 -10q-14 0 -37.5 3.5t-55.5 9.5q23 -18 32 -43.5t9 -55.5q0 -57 -20 -101.5 t-49.5 -78.5t-59 -60t-49.5 -45.5t-20 -34.5q0 -13 12.5 -23t34.5 -24q56 -35 87 -61t31 -65q0 -31 -23 -64.5t-69 -56.5t-116 -23t-110.5 31.5t-40.5 74.5q0 35 22.5 64t60.5 57l8 -8q-20 -23 -34.5 -48t-14.5 -54q0 -28 17.5 -47t46.5 -28.5t61 -9.5q67 0 108.5 30.5 t41.5 74.5q0 26 -20.5 46.5t-64.5 46.5q-34 21 -57.5 37t-23.5 40q0 22 24 44t65 58q-8 -1 -15 -1q-48 0 -78 34.5t-30 92.5q0 61 25 112t66 82t89 31zM127 289q0 -49 21.5 -78.5t52.5 -29.5q30 0 57 27.5t43.5 73t16.5 99.5q0 43 -17 68.5t-49 25.5q-34 0 -62.5 -27.5 t-45.5 -70t-17 -88.5z" />
<glyph unicode="&#x120;" horiz-adv-x="612" d="M566 844q0 -20 -14 -36t-33 -16q-32 0 -32 32q0 20 14 35t33 15q32 0 32 -30zM369 25q58 0 99 15l34 160l18 81l-85 19l4 20h216l2 -20l-67 -13q-16 -3 -23 -9.5t-10 -20.5l-13 -57l-39 -180q-28 -13 -60 -21.5t-81 -8.5q-75 0 -132.5 32t-90 92t-32.5 144q0 95 32 174.5 t86.5 138.5t124.5 91.5t145 32.5q44 0 78 -5.5t66 -19.5q-3 -28 -12 -70t-21 -80h-15q-1 32 -2.5 64t-3.5 63q-23 8 -46.5 10.5t-53.5 2.5q-63 0 -122.5 -30.5t-107 -85t-75.5 -127.5t-28 -157q0 -67 26 -120.5t74.5 -84t114.5 -30.5z" />
<glyph unicode="&#x121;" horiz-adv-x="365" d="M310 615q-13 0 -21 8.5t-8 22.5q0 25 12.5 42t31.5 17q13 0 21 -8t8 -22q0 -25 -12.5 -42.5t-31.5 -17.5zM265 505q57 0 103.5 3t76.5 10q5 -8 5 -18q0 -12 -8.5 -22t-29.5 -10q-14 0 -37.5 3.5t-55.5 9.5q23 -18 32 -43.5t9 -55.5q0 -57 -20 -101.5t-49.5 -78.5t-59 -60 t-49.5 -45.5t-20 -34.5q0 -13 12.5 -23t34.5 -24q56 -35 87 -61t31 -65q0 -31 -23 -64.5t-69 -56.5t-116 -23t-110.5 31.5t-40.5 74.5q0 35 22.5 64t60.5 57l8 -8q-20 -23 -34.5 -48t-14.5 -54q0 -28 17.5 -47t46.5 -28.5t61 -9.5q67 0 108.5 30.5t41.5 74.5 q0 26 -20.5 46.5t-64.5 46.5q-34 21 -57.5 37t-23.5 40q0 22 24 44t65 58q-8 -1 -15 -1q-48 0 -78 34.5t-30 92.5q0 61 25 112t66 82t89 31zM127 289q0 -49 21.5 -78.5t52.5 -29.5q30 0 57 27.5t43.5 73t16.5 99.5q0 43 -17 68.5t-49 25.5q-34 0 -62.5 -27.5t-45.5 -70 t-17 -88.5z" />
<glyph unicode="&#x122;" horiz-adv-x="612" d="M369 25q58 0 99 15l34 160l18 81l-85 19l4 20h216l2 -20l-67 -13q-16 -3 -23 -9.5t-10 -20.5l-13 -57l-39 -180q-28 -13 -60 -21.5t-81 -8.5q-75 0 -132.5 32t-90 92t-32.5 144q0 95 32 174.5t86.5 138.5t124.5 91.5t145 32.5q44 0 78 -5.5t66 -19.5q-3 -28 -12 -70 t-21 -80h-15q-1 32 -2.5 64t-3.5 63q-23 8 -46.5 10.5t-53.5 2.5q-63 0 -122.5 -30.5t-107 -85t-75.5 -127.5t-28 -157q0 -67 26 -120.5t74.5 -84t114.5 -30.5zM366 -161q0 -24 -14 -54t-38 -58t-54 -48l-7 7q24 28 39.5 53t24.5 54q-33 1 -33 35q0 21 14.5 35.5t34.5 14.5 q15 0 24 -10.5t9 -28.5z" />
<glyph unicode="&#x123;" horiz-adv-x="365" d="M274 654q0 25 14 54.5t38.5 57.5t53.5 48l7 -7q-24 -28 -39.5 -53t-24.5 -54q33 -1 33 -35q0 -21 -14.5 -35.5t-34.5 -14.5q-15 0 -24 10.5t-9 28.5zM265 505q57 0 103.5 3t76.5 10q5 -8 5 -18q0 -12 -8.5 -22t-29.5 -10q-14 0 -37.5 3.5t-55.5 9.5q23 -18 32 -43.5 t9 -55.5q0 -57 -20 -101.5t-49.5 -78.5t-59 -60t-49.5 -45.5t-20 -34.5q0 -13 12.5 -23t34.5 -24q56 -35 87 -61t31 -65q0 -31 -23 -64.5t-69 -56.5t-116 -23t-110.5 31.5t-40.5 74.5q0 35 22.5 64t60.5 57l8 -8q-20 -23 -34.5 -48t-14.5 -54q0 -28 17.5 -47t46.5 -28.5 t61 -9.5q67 0 108.5 30.5t41.5 74.5q0 26 -20.5 46.5t-64.5 46.5q-34 21 -57.5 37t-23.5 40q0 22 24 44t65 58q-8 -1 -15 -1q-48 0 -78 34.5t-30 92.5q0 61 25 112t66 82t89 31zM127 289q0 -49 21.5 -78.5t52.5 -29.5q30 0 57 27.5t43.5 73t16.5 99.5q0 43 -17 68.5 t-49 25.5q-34 0 -62.5 -27.5t-45.5 -70t-17 -88.5z" />
<glyph unicode="&#x124;" horiz-adv-x="738" d="M655 781l-16 -10q-21 21 -47.5 46t-56.5 48q-18 -13 -44 -30t-53.5 -34t-49.5 -30l-9 12q24 19 52 42t51.5 44t34.5 32l7 4h37q18 -22 43.5 -55t50.5 -69zM191 39l85 -19l-4 -20h-216l-2 20l67 13q16 3 23 9.5t10 20.5l13 57l94 445l18 81l-85 19l4 20h216l2 -20l-67 -13 q-16 -3 -23 -9.5t-10 -20.5l-13 -57l-42 -200h346l42 200l18 81l-85 19l4 20h216l2 -20l-67 -13q-16 -3 -23 -9.5t-10 -20.5l-13 -57l-94 -445l-18 -81l85 -19l-4 -20h-216l-2 20l67 13q16 3 23 9.5t10 20.5l13 57l44 210h-346l-44 -210z" />
<glyph unicode="&#x125;" horiz-adv-x="473" d="M393 798l-16 -10q-21 21 -47.5 46t-56.5 48q-18 -13 -44 -30t-53.5 -34t-49.5 -30l-9 12q24 19 52 42t51.5 44t34.5 32l7 4h37q18 -22 43.5 -55t50.5 -69zM78 11l24 109l113 515l16 72l-75 11v10q28 8 57 15t58 12l8 -8l-24 -112q-21 -96 -43 -192.5t-45 -192.5 q67 135 117.5 195t95.5 60q29 0 42.5 -21t13.5 -50q0 -24 -7.5 -62t-19.5 -82.5l-24 -89t-21 -80.5q-4 -22 -7 -37.5t-3 -25.5q0 -12 4 -19.5t14 -7.5q13 0 29.5 15.5t34.5 39t34 47.5l8 -5q-13 -28 -32 -60t-42 -54.5t-48 -22.5q-23 0 -33 15.5t-10 40.5q0 13 3 31t8 43 q8 37 20 81t24 87.5t20 80t8 57.5q0 17 -7 28t-24 11q-21 0 -45.5 -22.5t-49.5 -58.5t-48 -77t-41 -79t-29 -64l-10 -44l-26 -123l-16 -4q-3 -1 -8 -2t-9 -1q-7 0 -6.5 7t1.5 14z" />
<glyph unicode="&#x126;" horiz-adv-x="738" d="M191 39l85 -19l-4 -20h-216l-2 20l67 13q16 3 23 9.5t10 20.5l13 57l79 376h-89l5 30h91l8 39l18 81l-85 19l4 20h216l2 -20l-67 -13q-16 -3 -23 -9.5t-10 -20.5l-13 -57l-8 -39h346l8 39l18 81l-85 19l4 20h216l2 -20l-67 -13q-16 -3 -23 -9.5t-10 -20.5l-13 -57l-8 -39 h79l-5 -30h-81l-79 -376l-18 -81l85 -19l-4 -20h-216l-2 20l67 13q16 3 23 9.5t10 20.5l13 57l44 210h-346l-44 -210zM261 365h346l27 131h-346z" />
<glyph unicode="&#x127;" horiz-adv-x="473" d="M78 11l24 109l104 472h-153l6 30h153l3 13l16 72l-75 11v10q28 8 57 15t58 12l8 -8l-24 -112q-1 -7 -3 -13h156l-6 -30h-157q-18 -85 -38 -171t-40 -171q67 135 117.5 195t95.5 60q29 0 42.5 -21t13.5 -50q0 -24 -7.5 -62t-19.5 -82.5l-24 -89t-21 -80.5q-4 -22 -7 -37.5 t-3 -25.5q0 -12 4 -19.5t14 -7.5q13 0 29.5 15.5t34.5 39t34 47.5l8 -5q-13 -28 -32 -60t-42 -54.5t-48 -22.5q-23 0 -33 15.5t-10 40.5q0 13 3 31t8 43q8 37 20 81t24 87.5t20 80t8 57.5q0 17 -7 28t-24 11q-21 0 -45.5 -22.5t-49.5 -58.5t-48 -77t-41 -79t-29 -64l-10 -44 l-26 -123l-16 -4q-3 -1 -8 -2t-9 -1q-7 0 -6.5 7t1.5 14z" />
<glyph unicode="&#x128;" horiz-adv-x="350" d="M240 849q-9 -3 -28 -19.5t-51 -48.5l-8 5q24 49 49 75.5t59 26.5q28 0 59.5 -15t61.5 -30t53 -15q10 3 29 20t50 48l8 -5q-23 -49 -48.5 -75.5t-60.5 -26.5q-20 0 -43 9t-46.5 21t-45 21t-38.5 9zM191 39l85 -19l-4 -20h-216l-2 20l67 13q16 3 23 9.5t10 20.5l13 57 l94 445l18 81l-85 19l4 20h216l2 -20l-67 -13q-16 -3 -23 -9.5t-10 -20.5l-13 -57l-94 -445z" />
<glyph unicode="&#x129;" horiz-adv-x="278" d="M198 689q-8 -3 -24 -20.5t-43 -49.5l-8 5q21 48 44 74t54 26q19 0 38.5 -15t37.5 -29.5t32 -15.5q8 3 24 20.5t43 49.5l8 -5q-22 -48 -45 -74t-55 -26q-18 0 -38 15t-37.5 30t-30.5 15zM169 120q-4 -22 -7 -37.5t-3 -25.5q0 -12 4 -19.5t14 -7.5q13 0 29.5 15.5t34.5 39 t34 47.5l8 -5q-13 -28 -32 -60t-42 -54.5t-48 -22.5q-23 0 -33 15.5t-10 40.5q0 13 3 31t8 43q8 38 19 83l22 90t20 82q5 23 7.5 38t2.5 25q0 12 -3.5 19.5t-14.5 7.5q-12 0 -29 -15.5t-34.5 -38.5t-34.5 -48l-8 5q13 29 32 60.5t42.5 54t47.5 22.5q23 0 33 -15.5t10 -40.5 q0 -13 -3 -30.5t-8 -43.5q-8 -39 -19.5 -84.5t-22.5 -89.5t-19 -81z" />
<glyph unicode="&#x12a;" horiz-adv-x="350" d="M210 819l8 34h252l-8 -34h-252zM191 39l85 -19l-4 -20h-216l-2 20l67 13q16 3 23 9.5t10 20.5l13 57l94 445l18 81l-85 19l4 20h216l2 -20l-67 -13q-16 -3 -23 -9.5t-10 -20.5l-13 -57l-94 -445z" />
<glyph unicode="&#x12b;" horiz-adv-x="278" d="M176 653l8 34h164l-8 -34h-164zM169 120q-4 -22 -7 -37.5t-3 -25.5q0 -12 4 -19.5t14 -7.5q13 0 29.5 15.5t34.5 39t34 47.5l8 -5q-13 -28 -32 -60t-42 -54.5t-48 -22.5q-23 0 -33 15.5t-10 40.5q0 13 3 31t8 43q8 38 19 83l22 90t20 82q5 23 7.5 38t2.5 25 q0 12 -3.5 19.5t-14.5 7.5q-12 0 -29 -15.5t-34.5 -38.5t-34.5 -48l-8 5q13 29 32 60.5t42.5 54t47.5 22.5q23 0 33 -15.5t10 -40.5q0 -13 -3 -30.5t-8 -43.5q-8 -39 -19.5 -84.5t-22.5 -89.5t-19 -81z" />
<glyph unicode="&#x12c;" horiz-adv-x="350" d="M452 890l4 2l13 -8q-25 -46 -62.5 -72.5t-84.5 -26.5q-43 0 -66.5 27.5t-21.5 76.5l16 3q3 -30 25 -47t59 -17q34 0 65 16.5t53 45.5zM191 39l85 -19l-4 -20h-216l-2 20l67 13q16 3 23 9.5t10 20.5l13 57l94 445l18 81l-85 19l4 20h216l2 -20l-67 -13q-16 -3 -23 -9.5 t-10 -20.5l-13 -57l-94 -445z" />
<glyph unicode="&#x12d;" horiz-adv-x="278" d="M356 728l4 2l14 -3q-19 -58 -54.5 -90t-77.5 -32q-37 0 -57.5 32t-16.5 90l17 3q1 -38 20 -60t49 -22q29 0 57 21.5t45 58.5zM169 120q-4 -22 -7 -37.5t-3 -25.5q0 -12 4 -19.5t14 -7.5q13 0 29.5 15.5t34.5 39t34 47.5l8 -5q-13 -28 -32 -60t-42 -54.5t-48 -22.5 q-23 0 -33 15.5t-10 40.5q0 13 3 31t8 43q8 38 19 83l22 90t20 82q5 23 7.5 38t2.5 25q0 12 -3.5 19.5t-14.5 7.5q-12 0 -29 -15.5t-34.5 -38.5t-34.5 -48l-8 5q13 29 32 60.5t42.5 54t47.5 22.5q23 0 33 -15.5t10 -40.5q0 -13 -3 -30.5t-8 -43.5q-8 -39 -19.5 -84.5 t-22.5 -89.5t-19 -81z" />
<glyph unicode="&#x12e;" horiz-adv-x="350" d="M191 39l85 -19l-4 -20q-62 -23 -98.5 -61.5t-36.5 -73.5q0 -17 9.5 -27t21.5 -10q24 0 47.5 21.5t44.5 46.5l8 -5q-10 -21 -26 -45t-37.5 -41t-48.5 -17q-33 0 -47.5 19t-14.5 47q0 36 31.5 76t88.5 70h-158l-2 20l67 13q16 3 23 9.5t10 20.5l13 57l94 445l18 81l-85 19 l4 20h216l2 -20l-67 -13q-16 -3 -23 -9.5t-10 -20.5l-13 -57l-94 -445z" />
<glyph unicode="&#x12f;" horiz-adv-x="278" d="M253 618q-13 0 -21 8.5t-8 22.5q0 25 12.5 42t31.5 17q13 0 21 -8t8 -22q0 -25 -12.5 -42.5t-31.5 -17.5zM169 120q-4 -22 -7 -37.5t-3 -25.5q0 -12 4 -19.5t14 -7.5q13 0 29.5 15.5t34.5 39t34 47.5l8 -5q-10 -21 -23 -45t-28 -44q-30 -43 -61.5 -74.5t-52.5 -56.5 t-21 -50q0 -13 7.5 -21t20.5 -8q23 0 44 22t41 46l8 -5q-10 -21 -25.5 -45t-36 -41t-46.5 -17q-25 0 -40.5 17t-15.5 42q0 29 17 52t43 44.5t52 46.5h-5q-23 0 -33 15.5t-10 40.5q0 13 3 31t8 43q8 38 19 83l22 90t20 82q5 23 7.5 38t2.5 25q0 12 -3.5 19.5t-14.5 7.5 q-12 0 -29 -15.5t-34.5 -38.5t-34.5 -48l-8 5q13 29 32 60.5t42.5 54t47.5 22.5q23 0 33 -15.5t10 -40.5q0 -13 -3 -30.5t-8 -43.5q-8 -39 -19.5 -84.5t-22.5 -89.5t-19 -81z" />
<glyph unicode="&#x130;" horiz-adv-x="350" d="M373 844q0 -20 -14 -36t-33 -16q-32 0 -32 32q0 20 14 35t33 15q32 0 32 -30zM191 39l85 -19l-4 -20h-216l-2 20l67 13q16 3 23 9.5t10 20.5l13 57l94 445l18 81l-85 19l4 20h216l2 -20l-67 -13q-16 -3 -23 -9.5t-10 -20.5l-13 -57l-94 -445z" />
<glyph unicode="&#x131;" horiz-adv-x="278" d="M169 120q-4 -22 -7 -37.5t-3 -25.5q0 -12 4 -19.5t14 -7.5q13 0 29.5 15.5t34.5 39t34 47.5l8 -5q-13 -28 -32 -60t-42 -54.5t-48 -22.5q-23 0 -33 15.5t-10 40.5q0 13 3 31t8 43q8 38 19 83l22 90t20 82q5 23 7.5 38t2.5 25q0 12 -3.5 19.5t-14.5 7.5q-12 0 -29 -15.5 t-34.5 -38.5t-34.5 -48l-8 5q13 29 32 60.5t42.5 54t47.5 22.5q23 0 33 -15.5t10 -40.5q0 -13 -3 -30.5t-8 -43.5q-8 -39 -19.5 -84.5t-22.5 -89.5t-19 -81z" />
<glyph unicode="&#x132;" horiz-adv-x="689" d="M191 39l85 -19l-4 -20h-216l-2 20l67 13q16 3 23 9.5t10 20.5l13 57l94 445l18 81l-85 19l4 20h216l2 -20l-67 -13q-16 -3 -23 -9.5t-10 -20.5l-13 -57l-94 -445zM631 646l-85 19l4 20h216l2 -20l-67 -13q-16 -3 -23 -9.5t-10 -20.5l-13 -57l-104 -490q-13 -63 -34 -104 t-52 -73t-77 -68l-14 17q26 28 47 52.5t38.5 52t31 64t24.5 88.5l98 461z" />
<glyph unicode="&#x133;" horiz-adv-x="498" d="M253 618q-13 0 -21 8.5t-8 22.5q0 25 12.5 42t31.5 17q13 0 21 -8t8 -22q0 -25 -12.5 -42.5t-31.5 -17.5zM492 618q-13 0 -21 8.5t-8 22.5q0 25 12.5 42t31.5 17q13 0 21 -8t8 -22q0 -25 -12.5 -42.5t-31.5 -17.5zM169 120q-4 -22 -7 -37.5t-3 -25.5q0 -12 4 -19.5 t14 -7.5q13 0 29.5 15.5t34.5 39t34 47.5l8 -5q-13 -28 -32 -60t-42 -54.5t-48 -22.5q-23 0 -33 15.5t-10 40.5q0 13 3 31t8 43q8 38 19 83l22 90t20 82q5 23 7.5 38t2.5 25q0 12 -3.5 19.5t-14.5 7.5q-12 0 -29 -15.5t-34.5 -38.5t-34.5 -48l-8 5q13 29 32 60.5t42.5 54 t47.5 22.5q23 0 33 -15.5t10 -40.5q0 -13 -3 -30.5t-8 -43.5q-8 -39 -19.5 -84.5t-22.5 -89.5t-19 -81zM432 375q5 23 7.5 38t2.5 25q0 12 -3.5 19.5t-14.5 7.5q-12 0 -29 -15.5t-34.5 -38.5t-34.5 -48l-8 5q13 29 32 60.5t42.5 54t47.5 22.5q23 0 33 -15.5t10 -40.5 q0 -13 -3 -30.5t-8 -43.5l-80 -383q-23 -112 -71.5 -179.5t-119.5 -67.5q-37 0 -61 18t-24 42q0 11 5 18.5t12 11.5q15 -21 38 -39t52 -18q51 0 78 53t47 149z" />
<glyph unicode="&#x134;" horiz-adv-x="340" d="M465 781l-16 -10q-21 21 -47.5 46t-56.5 48q-18 -13 -44 -30t-53.5 -34t-49.5 -30l-9 12q24 19 52 42t51.5 44t34.5 32l7 4h37q18 -22 43.5 -55t50.5 -69zM281 646l-85 19l4 20h216l2 -20l-67 -13q-16 -3 -23 -9.5t-10 -20.5l-13 -57l-104 -490q-13 -63 -34 -104t-52 -73 t-77 -68l-14 17q26 28 47 52.5t38.5 52t31 64t24.5 88.5l98 461z" />
<glyph unicode="&#x135;" horiz-adv-x="236" d="M311 596l-16 -10q-13 26 -27.5 57t-28.5 59q-15 -17 -36 -38t-42.5 -41.5t-37.5 -36.5l-9 12q17 23 39.5 52t42.5 55.5t27 40.5l7 4h41q5 -28 16 -67t24 -87zM177 375q5 23 7.5 38t2.5 25q0 12 -3.5 19.5t-14.5 7.5q-12 0 -29 -15.5t-34.5 -38.5t-34.5 -48l-8 5 q13 29 32 60.5t42.5 54t47.5 22.5q23 0 33 -15.5t10 -40.5q0 -13 -3 -30.5t-8 -43.5l-80 -383q-23 -112 -71.5 -179.5t-119.5 -67.5q-37 0 -61 18t-24 42q0 11 5 18.5t12 11.5q15 -21 38 -39t52 -18q51 0 78 53t47 149z" />
<glyph unicode="&#x136;" horiz-adv-x="623" d="M191 39l85 -19l-4 -20h-216l-2 20l67 13q16 3 23 9.5t10 20.5l13 57l94 445l18 81l-85 19l4 20h216l2 -20l-67 -13q-16 -3 -23 -9.5t-10 -20.5l-13 -57l-44 -207l130 2l237 286l-85 19l4 20h205l2 -20l-57 -13q-16 -4 -27.5 -11.5t-25.5 -24.5l-224 -270l88 -246 q14 -37 30 -51.5t46 -21.5l31 -7l-4 -20h-45q-43 0 -61.5 18t-30.5 52l-90 255h-130l-43 -205zM347 -161q0 -24 -14 -54t-38 -58t-54 -48l-7 7q24 28 39.5 53t24.5 54q-33 1 -33 35q0 21 14.5 35.5t34.5 14.5q15 0 24 -10.5t9 -28.5z" />
<glyph unicode="&#x137;" horiz-adv-x="454" d="M78 11l24 109l113 514l16 72l-75 11v10q28 8 57 15t58 12l8 -8l-24 -112q-21 -95 -43 -190.5t-44 -190.5q58 125 116.5 189t112.5 63q36 -1 53.5 -21.5t17.5 -49.5q0 -36 -21 -69t-53.5 -61t-68.5 -49.5t-66 -34.5q32 -80 53 -121t35 -55t26 -14q10 0 27 15.5t36 39 t36 47.5l8 -5q-13 -28 -32.5 -60t-42.5 -54.5t-45 -22.5q-21 0 -41.5 20t-44 70t-55.5 140l5 8q33 12 68.5 32t65.5 46.5t49 58.5t19 66q0 16 -9.5 27.5t-29.5 11.5q-52 0 -111 -77.5t-124 -228.5l-10 -44l-26 -123l-16 -4q-3 -1 -8 -2t-9 -1q-7 0 -6.5 7t1.5 14zM250 -161 q0 -24 -14 -54t-38 -58t-54 -48l-7 7q24 28 39.5 53t24.5 54q-33 1 -33 35q0 21 14.5 35.5t34.5 14.5q15 0 24 -10.5t9 -28.5z" />
<glyph unicode="&#x138;" horiz-adv-x="515" d="M112 11l24 109l55 260q5 23 7.5 38t2.5 25q0 12 -3.5 19.5t-14.5 7.5q-12 0 -29 -15.5t-34.5 -38.5t-34.5 -48l-8 5q13 29 32 60.5t42.5 54t47.5 22.5q23 0 33 -15.5t10 -40.5q0 -13 -3 -30.5t-8 -43.5l-26 -121h78q20 37 43.5 79.5t51 80.5t58.5 62t64 24q23 0 36 -11.5 t13 -26.5q0 -13 -6 -22.5t-11 -14.5q-9 11 -21 20.5t-28 9.5q-19 0 -41.5 -18.5t-46 -48.5t-45 -65t-38.5 -67l15 -45q26 -77 45.5 -117t34.5 -54.5t27 -14.5q10 0 26.5 15.5t35.5 39t35 47.5l8 -5q-13 -28 -32.5 -60t-41.5 -54.5t-44 -22.5q-21 0 -41.5 20.5t-43.5 72 t-54 144.5h-83l-23 -107l-26 -123l-16 -4q-3 -1 -8 -2t-9 -1q-7 0 -6.5 7t1.5 14zM298 233l4 8z" />
<glyph unicode="&#x139;" horiz-adv-x="532" d="M422 896l7 1q7 -1 16.5 -7.5t9.5 -18.5q0 -13 -23 -27t-59.5 -26.5t-77 -23t-76.5 -16.5l-5 16q66 28 120.5 52.5t87.5 49.5zM279 646l-85 19l4 20h216l2 -20l-67 -13q-16 -3 -23 -9.5t-10 -20.5l-13 -57l-94 -445l-19 -90h128q31 0 62.5 1.5t51.5 3.5q16 35 31.5 70.5 t31.5 69.5h15q-3 -24 -9 -56t-13.5 -63t-16.5 -56h-415l-2 20l67 13q17 3 24 9.5t10 20.5l12 57l94 445z" />
<glyph unicode="&#x13a;" horiz-adv-x="250" d="M362 956l7 1q7 -1 16.5 -7.5t9.5 -18.5q0 -13 -23 -27t-59.5 -26.5t-77 -23t-76.5 -16.5l-5 16q66 28 120.5 52.5t87.5 49.5zM142 120q-4 -22 -7 -37.5t-3 -25.5q0 -12 4 -19.5t14 -7.5q13 0 29.5 15.5t34.5 39t34 47.5l8 -5q-13 -28 -32 -60t-42 -54.5t-48 -22.5 q-23 0 -33 15.5t-10 40.5q0 13 3 31t8 43l113 514l16 72l-75 11v10q28 8 57 15t58 12l8 -8l-24 -112z" />
<glyph unicode="&#x13b;" horiz-adv-x="532" d="M279 646l-85 19l4 20h216l2 -20l-67 -13q-16 -3 -23 -9.5t-10 -20.5l-13 -57l-94 -445l-19 -90h128q31 0 62.5 1.5t51.5 3.5q16 35 31.5 70.5t31.5 69.5h15q-3 -24 -9 -56t-13.5 -63t-16.5 -56h-415l-2 20l67 13q17 3 24 9.5t10 20.5l12 57l94 445zM305 -161 q0 -24 -14 -54t-38 -58t-54 -48l-7 7q24 28 39.5 53t24.5 54q-33 1 -33 35q0 21 14.5 35.5t34.5 14.5q15 0 24 -10.5t9 -28.5z" />
<glyph unicode="&#x13c;" horiz-adv-x="250" d="M142 120q-4 -22 -7 -37.5t-3 -25.5q0 -12 4 -19.5t14 -7.5q13 0 29.5 15.5t34.5 39t34 47.5l8 -5q-13 -28 -32 -60t-42 -54.5t-48 -22.5q-23 0 -33 15.5t-10 40.5q0 13 3 31t8 43l113 514l16 72l-75 11v10q28 8 57 15t58 12l8 -8l-24 -112zM174 -161q0 -24 -14 -54 t-38 -58t-54 -48l-7 7q24 28 39.5 53t24.5 54q-33 1 -33 35q0 21 14.5 35.5t34.5 14.5q15 0 24 -10.5t9 -28.5z" />
<glyph unicode="&#x13d;" horiz-adv-x="532" d="M586 661q0 -24 -14 -54t-38 -58t-54 -48l-7 7q24 28 39.5 53t24.5 54q-33 1 -33 35q0 21 14.5 35.5t34.5 14.5q15 0 24 -10.5t9 -28.5zM279 646l-85 19l4 20h216l2 -20l-67 -13q-16 -3 -23 -9.5t-10 -20.5l-13 -57l-94 -445l-19 -90h128q31 0 62.5 1.5t51.5 3.5 q16 35 31.5 70.5t31.5 69.5h15q-3 -24 -9 -56t-13.5 -63t-16.5 -56h-415l-2 20l67 13q17 3 24 9.5t10 20.5l12 57l94 445z" />
<glyph unicode="&#x13e;" horiz-adv-x="354" d="M452 716q0 -24 -14 -54t-38 -58t-54 -48l-7 7q24 28 39.5 53t24.5 54q-33 1 -33 35q0 21 14.5 35.5t34.5 14.5q15 0 24 -10.5t9 -28.5zM142 120q-4 -22 -7 -37.5t-3 -25.5q0 -12 4 -19.5t14 -7.5q13 0 29.5 15.5t34.5 39t34 47.5l8 -5q-13 -28 -32 -60t-42 -54.5 t-48 -22.5q-23 0 -33 15.5t-10 40.5q0 13 3 31t8 43l113 514l16 72l-75 11v10q28 8 57 15t58 12l8 -8l-24 -112z" />
<glyph unicode="&#x13f;" horiz-adv-x="532" d="M279 646l-85 19l4 20h216l2 -20l-67 -13q-16 -3 -23 -9.5t-10 -20.5l-13 -57l-94 -445l-19 -90h128q31 0 62.5 1.5t51.5 3.5q16 35 31.5 70.5t31.5 69.5h15q-3 -24 -9 -56t-13.5 -63t-16.5 -56h-415l-2 20l67 13q17 3 24 9.5t10 20.5l12 57l94 445zM501 324 q-13 0 -21 8.5t-8 22.5q0 25 12.5 42t31.5 17q13 0 21 -8t8 -22q0 -25 -12.5 -42.5t-31.5 -17.5z" />
<glyph unicode="&#x140;" horiz-adv-x="363" d="M142 120q-4 -22 -7 -37.5t-3 -25.5q0 -12 4 -19.5t14 -7.5q13 0 29.5 15.5t34.5 39t34 47.5l8 -5q-13 -28 -32 -60t-42 -54.5t-48 -22.5q-23 0 -33 15.5t-10 40.5q0 13 3 31t8 43l113 514l16 72l-75 11v10q28 8 57 15t58 12l8 -8l-24 -112zM350 339q-13 0 -21 8.5 t-8 22.5q0 25 12.5 42t31.5 17q13 0 21 -8t8 -22q0 -25 -12.5 -42.5t-31.5 -17.5z" />
<glyph unicode="&#x141;" horiz-adv-x="532" d="M403 417l-148 -80l-46 -217l-19 -90h128q31 0 62.5 1.5t51.5 3.5q16 35 31.5 70.5t31.5 69.5h15q-3 -24 -9 -56t-13.5 -63t-16.5 -56h-415l-2 20l67 13q17 3 24 9.5t10 20.5l12 57l40 191l-127 -69l-9 31l145 79l45 213l18 81l-85 19l4 20h216l2 -20l-67 -13 q-16 -3 -23 -9.5t-10 -20.5l-13 -57l-40 -187l130 70z" />
<glyph unicode="&#x142;" horiz-adv-x="250" d="M142 120q-4 -22 -7 -37.5t-3 -25.5q0 -12 4 -19.5t14 -7.5q13 0 29.5 15.5t34.5 39t34 47.5l8 -5q-13 -28 -32 -60t-42 -54.5t-48 -22.5q-23 0 -33 15.5t-10 40.5q0 13 3 31t8 43l52 236l-124 -67l-9 31l142 77l52 237l16 72l-75 11v10q28 8 57 15t58 12l8 -8l-24 -112 l-47 -212l135 73l10 -31l-154 -83z" />
<glyph unicode="&#x143;" horiz-adv-x="720" d="M622 896l7 1q7 -1 16.5 -7.5t9.5 -18.5q0 -13 -23 -27t-59.5 -26.5t-77 -23t-76.5 -16.5l-5 16q66 28 120.5 52.5t87.5 49.5zM184 39l105 -19l-4 -20h-229l-2 20l67 13q17 3 23.5 9.5t9.5 20.5l13 57l111 526l-84 19l4 20h119l241 -607l103 487l18 81l-85 19l4 20h209 l2 -20l-67 -13q-17 -3 -23.5 -9.5t-9.5 -20.5l-13 -57l-120 -565h-30l-242 605l-102 -485z" />
<glyph unicode="&#x144;" horiz-adv-x="505" d="M457 754l6 2h4q27 0 27 -20q0 -15 -19.5 -34.5t-50.5 -41t-66.5 -42t-66.5 -37.5l-9 15q36 27 70 56t62 55.5t43 46.5zM110 11l24 109q14 64 28 127.5t28 127.5q10 43 10 63q0 12 -3.5 19.5t-14.5 7.5q-12 0 -29 -15.5t-34.5 -38.5t-34.5 -48l-8 5q13 29 32 60.5t42.5 54 t47.5 22.5q23 0 33 -15.5t10 -40.5q0 -23 -11.5 -76t-24.5 -115q17 33 39.5 75.5t49.5 81.5t57 64.5t61 25.5q29 0 42.5 -21t13.5 -50q0 -24 -7.5 -62t-19.5 -82.5l-24 -89t-21 -80.5q-4 -22 -7 -37.5t-3 -25.5q0 -12 4 -19.5t14 -7.5q13 0 29.5 15.5t34.5 39t34 47.5l8 -5 q-13 -28 -32 -60t-42 -54.5t-48 -22.5q-23 0 -33 15.5t-10 40.5q0 13 3 31t8 43q8 37 20 81t24 87.5t20 80t8 57.5q0 17 -7 28t-24 11q-21 0 -45 -22t-48.5 -58t-47.5 -76.5t-41.5 -78.5t-29.5 -64l-11 -46l-26 -123l-16 -4q-3 -1 -8 -2t-9 -1q-7 0 -6.5 7t1.5 14z" />
<glyph unicode="&#x145;" horiz-adv-x="720" d="M184 39l105 -19l-4 -20h-229l-2 20l67 13q17 3 23.5 9.5t9.5 20.5l13 57l111 526l-84 19l4 20h119l241 -607l103 487l18 81l-85 19l4 20h209l2 -20l-67 -13q-17 -3 -23.5 -9.5t-9.5 -20.5l-13 -57l-120 -565h-30l-242 605l-102 -485zM385 -161q0 -24 -14 -54t-38 -58 t-54 -48l-7 7q24 28 39.5 53t24.5 54q-33 1 -33 35q0 21 14.5 35.5t34.5 14.5q15 0 24 -10.5t9 -28.5z" />
<glyph unicode="&#x146;" horiz-adv-x="505" d="M110 11l24 109q14 64 28 127.5t28 127.5q10 43 10 63q0 12 -3.5 19.5t-14.5 7.5q-12 0 -29 -15.5t-34.5 -38.5t-34.5 -48l-8 5q13 29 32 60.5t42.5 54t47.5 22.5q23 0 33 -15.5t10 -40.5q0 -23 -11.5 -76t-24.5 -115q17 33 39.5 75.5t49.5 81.5t57 64.5t61 25.5 q29 0 42.5 -21t13.5 -50q0 -24 -7.5 -62t-19.5 -82.5l-24 -89t-21 -80.5q-4 -22 -7 -37.5t-3 -25.5q0 -12 4 -19.5t14 -7.5q13 0 29.5 15.5t34.5 39t34 47.5l8 -5q-13 -28 -32 -60t-42 -54.5t-48 -22.5q-23 0 -33 15.5t-10 40.5q0 13 3 31t8 43q8 37 20 81t24 87.5t20 80 t8 57.5q0 17 -7 28t-24 11q-21 0 -45 -22t-48.5 -58t-47.5 -76.5t-41.5 -78.5t-29.5 -64l-11 -46l-26 -123l-16 -4q-3 -1 -8 -2t-9 -1q-7 0 -6.5 7t1.5 14zM279 -161q0 -24 -14 -54t-38 -58t-54 -48l-7 7q24 28 39.5 53t24.5 54q-33 1 -33 35q0 21 14.5 35.5t34.5 14.5 q15 0 24 -10.5t9 -28.5z" />
<glyph unicode="&#x147;" horiz-adv-x="720" d="M536 775l-6 -4h-41q-17 22 -39 55t-45 69l16 10q20 -21 44 -46t50 -48q20 13 47 30t55.5 34t50.5 30l10 -12q-24 -18 -52.5 -41.5t-53 -44t-36.5 -32.5zM184 39l105 -19l-4 -20h-229l-2 20l67 13q17 3 23.5 9.5t9.5 20.5l13 57l111 526l-84 19l4 20h119l241 -607l103 487 l18 81l-85 19l4 20h209l2 -20l-67 -13q-17 -3 -23.5 -9.5t-9.5 -20.5l-13 -57l-120 -565h-30l-242 605l-102 -485z" />
<glyph unicode="&#x148;" horiz-adv-x="505" d="M396 590l-6 -4h-41q-15 27 -35 68t-40 86l16 10q18 -27 40 -59t46 -61q18 16 44 38t53 44t48 38l10 -12q-23 -23 -50.5 -52t-50.5 -55t-34 -41zM110 11l24 109q14 64 28 127.5t28 127.5q10 43 10 63q0 12 -3.5 19.5t-14.5 7.5q-12 0 -29 -15.5t-34.5 -38.5t-34.5 -48 l-8 5q13 29 32 60.5t42.5 54t47.5 22.5q23 0 33 -15.5t10 -40.5q0 -23 -11.5 -76t-24.5 -115q17 33 39.5 75.5t49.5 81.5t57 64.5t61 25.5q29 0 42.5 -21t13.5 -50q0 -24 -7.5 -62t-19.5 -82.5l-24 -89t-21 -80.5q-4 -22 -7 -37.5t-3 -25.5q0 -12 4 -19.5t14 -7.5 q13 0 29.5 15.5t34.5 39t34 47.5l8 -5q-13 -28 -32 -60t-42 -54.5t-48 -22.5q-23 0 -33 15.5t-10 40.5q0 13 3 31t8 43q8 37 20 81t24 87.5t20 80t8 57.5q0 17 -7 28t-24 11q-21 0 -45 -22t-48.5 -58t-47.5 -76.5t-41.5 -78.5t-29.5 -64l-11 -46l-26 -123l-16 -4 q-3 -1 -8 -2t-9 -1q-7 0 -6.5 7t1.5 14z" />
<glyph unicode="&#x14a;" horiz-adv-x="720" d="M184 39l105 -19l-4 -20h-229l-2 20l67 13q17 3 23.5 9.5t9.5 20.5l13 57l106 502q3 14 -0.5 20t-19.5 10l-59 13l4 20h119l240 -606q3 12 6 25l98 461l18 81l-85 19l4 20h209l2 -20l-67 -13q-17 -3 -23.5 -9.5t-9.5 -20.5l-13 -57l-104 -490q-13 -63 -34 -104t-52 -73 t-77 -68l-11 13q27 29 49 54t40 53.5t32 67.5l-235 587l-102 -485z" />
<glyph unicode="&#x14b;" horiz-adv-x="482" d="M110 11l24 109q14 64 28 127.5t28 127.5q10 43 10 63q0 12 -3.5 19.5t-14.5 7.5q-12 0 -29 -15.5t-34.5 -38.5t-34.5 -48l-8 5q13 29 32 60.5t42.5 54t47.5 22.5q23 0 33 -15.5t10 -40.5q0 -23 -11 -76t-25 -114q17 34 40 76t50 81t56.5 64t60.5 25q29 0 42 -21t13 -50 q0 -40 -24.5 -155.5t-59.5 -286.5q-23 -113 -71.5 -180t-119.5 -67q-37 0 -61 18t-24 42q0 11 5 18.5t12 11.5q15 -21 38 -39t52 -18q51 0 78 53t47 149q38 180 63.5 296.5t25.5 149.5q0 17 -7 28t-24 11q-21 0 -45 -22t-48.5 -58t-47.5 -76.5t-41.5 -78.5t-29.5 -64 l-11 -46l-26 -123l-16 -4q-3 -1 -8 -2t-9 -1q-7 0 -6.5 7t1.5 14z" />
<glyph unicode="&#x14c;" horiz-adv-x="575" d="M321 819l8 34h252l-8 -34h-252zM593 454q0 -55 -13.5 -118t-39 -124t-62.5 -111.5t-85.5 -80.5t-106.5 -30q-83 0 -132.5 65t-49.5 174q0 60 14 125t40.5 125.5t64.5 109.5t87 77.5t107 28.5q81 0 128.5 -64t47.5 -177zM149 235q0 -61 16 -108.5t48.5 -74.5t80.5 -27 t87.5 26.5t70.5 71.5t52.5 101t32.5 116t11 115q0 92 -32.5 148.5t-106.5 56.5q-48 0 -88 -26t-72 -70t-54.5 -99.5t-34 -114.5t-11.5 -115z" />
<glyph unicode="&#x14d;" horiz-adv-x="394" d="M200 653l8 34h234l-8 -34h-234zM397 335q0 -71 -17 -133.5t-46.5 -110t-67 -74.5t-77.5 -27q-51 0 -81.5 48.5t-30.5 124.5q0 67 17.5 128.5t47.5 109.5t67.5 76t77.5 28q55 0 82.5 -46t27.5 -124zM119 169q0 -68 21 -107.5t56 -39.5q33 0 62 26t51 70.5t34 100.5t12 117 q0 59 -16.5 98t-56.5 39q-33 0 -62.5 -27t-52 -71.5t-35.5 -98.5t-13 -107z" />
<glyph unicode="&#x14e;" horiz-adv-x="575" d="M568 890l4 2l13 -8q-25 -46 -62.5 -72.5t-84.5 -26.5q-43 0 -66.5 27.5t-21.5 76.5l16 3q3 -30 25 -47t59 -17q34 0 65 16.5t53 45.5zM593 454q0 -55 -13.5 -118t-39 -124t-62.5 -111.5t-85.5 -80.5t-106.5 -30q-83 0 -132.5 65t-49.5 174q0 60 14 125t40.5 125.5 t64.5 109.5t87 77.5t107 28.5q81 0 128.5 -64t47.5 -177zM149 235q0 -61 16 -108.5t48.5 -74.5t80.5 -27t87.5 26.5t70.5 71.5t52.5 101t32.5 116t11 115q0 92 -32.5 148.5t-106.5 56.5q-48 0 -88 -26t-72 -70t-54.5 -99.5t-34 -114.5t-11.5 -115z" />
<glyph unicode="&#x14f;" horiz-adv-x="394" d="M435 728l4 2l14 -3q-25 -58 -63 -90t-85 -32q-44 0 -67.5 32t-21.5 90l17 3q3 -38 25 -60t59 -22q34 0 65 21.5t53 58.5zM397 335q0 -71 -17 -133.5t-46.5 -110t-67 -74.5t-77.5 -27q-51 0 -81.5 48.5t-30.5 124.5q0 67 17.5 128.5t47.5 109.5t67.5 76t77.5 28 q55 0 82.5 -46t27.5 -124zM119 169q0 -68 21 -107.5t56 -39.5q33 0 62 26t51 70.5t34 100.5t12 117q0 59 -16.5 98t-56.5 39q-33 0 -62.5 -27t-52 -71.5t-35.5 -98.5t-13 -107z" />
<glyph unicode="&#x150;" horiz-adv-x="575" d="M455 897l8 1q8 -1 14 -7t6 -14q0 -29 -56 -52.5t-156 -48.5l-7 16q65 26 112.5 53.5t78.5 51.5zM651 897l8 1q8 -1 14 -7t6 -14q0 -29 -56 -52.5t-156 -48.5l-7 16q65 26 112.5 53.5t78.5 51.5zM593 454q0 -55 -13.5 -118t-39 -124t-62.5 -111.5t-85.5 -80.5t-106.5 -30 q-83 0 -132.5 65t-49.5 174q0 60 14 125t40.5 125.5t64.5 109.5t87 77.5t107 28.5q81 0 128.5 -64t47.5 -177zM149 235q0 -61 16 -108.5t48.5 -74.5t80.5 -27t87.5 26.5t70.5 71.5t52.5 101t32.5 116t11 115q0 92 -32.5 148.5t-106.5 56.5q-48 0 -88 -26t-72 -70 t-54.5 -99.5t-34 -114.5t-11.5 -115z" />
<glyph unicode="&#x151;" horiz-adv-x="394" d="M324 754l6 2h4q27 0 27 -20q0 -15 -19.5 -34.5t-50.5 -41t-66.5 -42t-66.5 -37.5l-9 15q36 27 70 56t62 55.5t43 46.5zM474 754l6 2h4q27 0 27 -20q0 -15 -19.5 -34.5t-50.5 -41t-66.5 -42t-66.5 -37.5l-9 15q36 27 70 56t62 55.5t43 46.5zM397 335q0 -71 -17 -133.5 t-46.5 -110t-67 -74.5t-77.5 -27q-51 0 -81.5 48.5t-30.5 124.5q0 67 17.5 128.5t47.5 109.5t67.5 76t77.5 28q55 0 82.5 -46t27.5 -124zM119 169q0 -68 21 -107.5t56 -39.5q33 0 62 26t51 70.5t34 100.5t12 117q0 59 -16.5 98t-56.5 39q-33 0 -62.5 -27t-52 -71.5 t-35.5 -98.5t-13 -107z" />
<glyph unicode="&#x152;" horiz-adv-x="843" d="M771 0h-347q-42 -10 -88 -10q-71 0 -123.5 31.5t-81 89t-28.5 133.5q0 94 29 176t81.5 143.5t123 96.5t152.5 35q45 0 84 -10h313q-1 -34 -11 -79.5t-21 -85.5h-15q-1 32 -3 65t-4 65q-19 2 -50 3.5t-62 1.5h-118l-63 -295l214 5l-9 -39l-211 5l-64 -301h149 q31 0 62.5 1.5t51.5 3.5q16 32 31 65t31 65h15q-3 -23 -8.5 -52.5t-13 -59.5t-16.5 -53zM148 246q0 -63 22.5 -113t66 -79t106.5 -29q38 0 60.5 8.5t28.5 15.5l126 599q-36 12 -76 12q-73 0 -134 -31.5t-106 -87.5t-69.5 -131.5t-24.5 -163.5z" />
<glyph unicode="&#x153;" horiz-adv-x="610" d="M283 505q51 0 77 -41.5t29 -113.5q34 67 83 111t100 44q36 0 53.5 -21t17.5 -56q0 -42 -24 -76.5t-62.5 -60t-83.5 -40t-87 -17.5q-9 -44 -9 -86q0 -55 18 -89t55 -34q32 0 68.5 29t76.5 78l8 -5q-31 -57 -73.5 -97t-90.5 -40q-46 0 -70 33.5t-29 93.5q-29 -58 -70 -92.5 t-85 -34.5q-49 0 -78.5 48.5t-29.5 124.5q0 67 17 128.5t46.5 109.5t66.5 76t76 28zM282 473q-33 0 -62.5 -27t-52 -71.5t-35.5 -98.5t-13 -107q0 -68 21 -107.5t56 -39.5q33 0 62 26t51 70.5t34 100.5t12 117q0 59 -16.5 98t-56.5 39zM559 473q-35 0 -68 -29.5t-59 -78 t-41 -106.5q60 6 107.5 30.5t75 60t27.5 76.5q0 20 -11 33.5t-31 13.5z" />
<glyph unicode="&#x154;" horiz-adv-x="595" d="M551 896l7 1q7 -1 16.5 -7.5t9.5 -18.5q0 -13 -23 -27t-59.5 -26.5t-77 -23t-76.5 -16.5l-5 16q66 28 120.5 52.5t87.5 49.5zM303 565l-51 -240l2 8h62q78 0 127 28.5t72.5 73.5t23.5 92q0 59 -40.5 91t-111.5 32h-66zM191 39l85 -19l-4 -20h-216l-2 20l67 13 q16 3 23 9.5t10 20.5l13 57l94 445l17 81l-84 19l4 20h191q92 0 143.5 -40.5t51.5 -114.5q0 -80 -47 -136t-122 -79l70 -215q13 -40 29.5 -52.5t45.5 -20.5l27 -7l-4 -20h-41q-43 0 -62 17.5t-30 52.5l-75 235q-29 -5 -61 -5h-67l-38 -180z" />
<glyph unicode="&#x155;" horiz-adv-x="380" d="M410 754l6 2h4q27 0 27 -20q0 -15 -19.5 -34.5t-50.5 -41t-66.5 -42t-66.5 -37.5l-9 15q36 27 70 56t62 55.5t43 46.5zM110 11l24 109q24 107 37 169t19.5 92t8 41t1.5 16q0 12 -3.5 19.5t-14.5 7.5q-12 0 -29 -15.5t-34.5 -38.5t-34.5 -48l-8 5q13 29 32 60.5t42.5 54 t47.5 22.5q23 0 33 -15.5t10 -40.5q0 -19 -9.5 -67.5t-23.5 -106.5q18 38 38.5 78t44 74.5t50 56t54.5 21.5q23 0 36 -11.5t13 -26.5q0 -13 -6 -22.5t-11 -14.5q-9 11 -21 20.5t-28 9.5q-21 0 -46.5 -26.5t-50.5 -67t-46 -83.5t-35 -77t-17 -46l-9 -40l-26 -123l-16 -4 q-3 -1 -8 -2t-9 -1q-7 0 -6.5 7t1.5 14z" />
<glyph unicode="&#x156;" horiz-adv-x="595" d="M303 565l-51 -240l2 8h62q78 0 127 28.5t72.5 73.5t23.5 92q0 59 -40.5 91t-111.5 32h-66zM349 -161q0 -24 -14 -54t-38 -58t-54 -48l-7 7q24 28 39.5 53t24.5 54q-33 1 -33 35q0 21 14.5 35.5t34.5 14.5q15 0 24 -10.5t9 -28.5zM191 39l85 -19l-4 -20h-216l-2 20l67 13 q16 3 23 9.5t10 20.5l13 57l94 445l17 81l-84 19l4 20h191q92 0 143.5 -40.5t51.5 -114.5q0 -80 -47 -136t-122 -79l70 -215q13 -40 29.5 -52.5t45.5 -20.5l27 -7l-4 -20h-41q-43 0 -62 17.5t-30 52.5l-75 235q-29 -5 -61 -5h-67l-38 -180z" />
<glyph unicode="&#x157;" horiz-adv-x="380" d="M110 11l24 109q24 107 37 169t19.5 92t8 41t1.5 16q0 12 -3.5 19.5t-14.5 7.5q-12 0 -29 -15.5t-34.5 -38.5t-34.5 -48l-8 5q13 29 32 60.5t42.5 54t47.5 22.5q23 0 33 -15.5t10 -40.5q0 -19 -9.5 -67.5t-23.5 -106.5q18 38 38.5 78t44 74.5t50 56t54.5 21.5 q23 0 36 -11.5t13 -26.5q0 -13 -6 -22.5t-11 -14.5q-9 11 -21 20.5t-28 9.5q-21 0 -46.5 -26.5t-50.5 -67t-46 -83.5t-35 -77t-17 -46l-9 -40l-26 -123l-16 -4q-3 -1 -8 -2t-9 -1q-7 0 -6.5 7t1.5 14zM136 -161q0 -24 -14 -54t-38 -58t-54 -48l-7 7q24 28 39.5 53t24.5 54 q-33 1 -33 35q0 21 14.5 35.5t34.5 14.5q15 0 24 -10.5t9 -28.5z" />
<glyph unicode="&#x158;" horiz-adv-x="595" d="M470 775l-6 -4h-41q-17 22 -39 55t-45 69l16 10q20 -21 44 -46t50 -48q20 13 47 30t55.5 34t50.5 30l10 -12q-24 -18 -52.5 -41.5t-53 -44t-36.5 -32.5zM303 565l-51 -240l2 8h62q78 0 127 28.5t72.5 73.5t23.5 92q0 59 -40.5 91t-111.5 32h-66zM191 39l85 -19l-4 -20 h-216l-2 20l67 13q16 3 23 9.5t10 20.5l13 57l94 445l17 81l-84 19l4 20h191q92 0 143.5 -40.5t51.5 -114.5q0 -80 -47 -136t-122 -79l70 -215q13 -40 29.5 -52.5t45.5 -20.5l27 -7l-4 -20h-41q-43 0 -62 17.5t-30 52.5l-75 235q-29 -5 -61 -5h-67l-38 -180z" />
<glyph unicode="&#x159;" horiz-adv-x="380" d="M343 590l-6 -4h-41q-15 27 -35 68t-40 86l16 10q18 -27 40 -59t46 -61q18 16 44 38t53 44t48 38l10 -12q-23 -23 -50.5 -52t-50.5 -55t-34 -41zM110 11l24 109q24 107 37 169t19.5 92t8 41t1.5 16q0 12 -3.5 19.5t-14.5 7.5q-12 0 -29 -15.5t-34.5 -38.5t-34.5 -48l-8 5 q13 29 32 60.5t42.5 54t47.5 22.5q23 0 33 -15.5t10 -40.5q0 -19 -9.5 -67.5t-23.5 -106.5q18 38 38.5 78t44 74.5t50 56t54.5 21.5q23 0 36 -11.5t13 -26.5q0 -13 -6 -22.5t-11 -14.5q-9 11 -21 20.5t-28 9.5q-21 0 -46.5 -26.5t-50.5 -67t-46 -83.5t-35 -77t-17 -46 l-9 -40l-26 -123l-16 -4q-3 -1 -8 -2t-9 -1q-7 0 -6.5 7t1.5 14z" />
<glyph unicode="&#x15a;" horiz-adv-x="434" d="M483 896l7 1q7 -1 16.5 -7.5t9.5 -18.5q0 -13 -23 -27t-59.5 -26.5t-77 -23t-76.5 -16.5l-5 16q66 28 120.5 52.5t87.5 49.5zM197 -10q-36 0 -68.5 6.5t-53 15.5t-24.5 18q-3 8 -3 18q0 23 8 56t21 64h16q-1 -12 -1 -22.5v-19.5q0 -30 3.5 -45t11.5 -26q15 -19 42 -25.5 t56 -6.5q50 0 86.5 22.5t56.5 58.5t20 75q0 37 -16 65.5t-41.5 52.5t-53.5 47t-53.5 48t-41.5 55.5t-16 70.5q0 51 28 91t74.5 63t100.5 23q57 0 91 -12.5t42 -24.5q2 -4 2 -9q0 -13 -4.5 -36t-11.5 -48t-15 -45h-16q1 14 1.5 26.5t0.5 22.5q0 48 -13 64q-23 27 -85 27 q-43 0 -77 -19t-53.5 -50.5t-19.5 -69.5q0 -40 22.5 -71.5t55.5 -59t66 -56.5t55.5 -65.5t22.5 -85.5t-25.5 -93t-73.5 -72t-117 -28z" />
<glyph unicode="&#x15b;" horiz-adv-x="354" d="M361 754l6 2h4q27 0 27 -20q0 -15 -19.5 -34.5t-50.5 -41t-66.5 -42t-66.5 -37.5l-9 15q36 27 70 56t62 55.5t43 46.5zM322 127q0 -58 -40.5 -97.5t-105.5 -39.5q-53 0 -88 28t-35 71q0 30 15 53.5t34 38.5l7 -5q-8 -18 -13 -36.5t-5 -39.5q0 -37 26.5 -58.5t66.5 -21.5 t68 24.5t28 70.5q0 31 -15.5 56.5t-38 48.5t-45.5 47t-38.5 51.5t-15.5 63.5q0 35 17.5 62.5t47.5 44t67 16.5q50 0 79.5 -25t29.5 -60q0 -29 -12.5 -54.5t-29.5 -42.5l-8 6q12 41 12 68q0 40 -19.5 60t-54.5 20q-36 0 -61.5 -25t-25.5 -65q0 -31 15.5 -57t38.5 -49.5 t45.5 -47t38 -49.5t15.5 -57z" />
<glyph unicode="&#x15c;" horiz-adv-x="434" d="M521 781l-16 -10q-21 21 -47.5 46t-56.5 48q-18 -13 -44 -30t-53.5 -34t-49.5 -30l-9 12q24 19 52 42t51.5 44t34.5 32l7 4h37q18 -22 43.5 -55t50.5 -69zM197 -10q-36 0 -68.5 6.5t-53 15.5t-24.5 18q-3 8 -3 18q0 23 8 56t21 64h16q-1 -12 -1 -22.5v-19.5 q0 -30 3.5 -45t11.5 -26q15 -19 42 -25.5t56 -6.5q50 0 86.5 22.5t56.5 58.5t20 75q0 37 -16 65.5t-41.5 52.5t-53.5 47t-53.5 48t-41.5 55.5t-16 70.5q0 51 28 91t74.5 63t100.5 23q57 0 91 -12.5t42 -24.5q2 -4 2 -9q0 -13 -4.5 -36t-11.5 -48t-15 -45h-16q1 14 1.5 26.5 t0.5 22.5q0 48 -13 64q-23 27 -85 27q-43 0 -77 -19t-53.5 -50.5t-19.5 -69.5q0 -40 22.5 -71.5t55.5 -59t66 -56.5t55.5 -65.5t22.5 -85.5t-25.5 -93t-73.5 -72t-117 -28z" />
<glyph unicode="&#x15d;" horiz-adv-x="354" d="M398 596l-16 -10q-19 27 -43 59t-51 61q-17 -16 -41.5 -38t-49.5 -44t-46 -38l-9 12q22 23 47.5 52t47 55.5t31.5 40.5l7 4h41q16 -27 38 -68t44 -86zM322 127q0 -58 -40.5 -97.5t-105.5 -39.5q-53 0 -88 28t-35 71q0 30 15 53.5t34 38.5l7 -5q-8 -18 -13 -36.5t-5 -39.5 q0 -37 26.5 -58.5t66.5 -21.5t68 24.5t28 70.5q0 31 -15.5 56.5t-38 48.5t-45.5 47t-38.5 51.5t-15.5 63.5q0 35 17.5 62.5t47.5 44t67 16.5q50 0 79.5 -25t29.5 -60q0 -29 -12.5 -54.5t-29.5 -42.5l-8 6q12 41 12 68q0 40 -19.5 60t-54.5 20q-36 0 -61.5 -25t-25.5 -65 q0 -31 15.5 -57t38.5 -49.5t45.5 -47t38 -49.5t15.5 -57z" />
<glyph unicode="&#x15e;" horiz-adv-x="434" d="M197 -10q-36 0 -68.5 6.5t-53 15.5t-24.5 18q-3 8 -3 18q0 23 8 56t21 64h16q-1 -12 -1 -22.5v-19.5q0 -30 3.5 -45t11.5 -26q15 -19 42 -25.5t56 -6.5q50 0 86.5 22.5t56.5 58.5t20 75q0 37 -16 65.5t-41.5 52.5t-53.5 47t-53.5 48t-41.5 55.5t-16 70.5q0 51 28 91 t74.5 63t100.5 23q57 0 91 -12.5t42 -24.5q2 -4 2 -9q0 -13 -4.5 -36t-11.5 -48t-15 -45h-16q1 14 1.5 26.5t0.5 22.5q0 48 -13 64q-23 27 -85 27q-43 0 -77 -19t-53.5 -50.5t-19.5 -69.5q0 -40 22.5 -71.5t55.5 -59t66 -56.5t55.5 -65.5t22.5 -85.5q0 -45 -21.5 -86.5 t-63 -69.5t-99.5 -35l-22 -56q27 -5 42.5 -19t15.5 -34q0 -34 -38.5 -61t-99.5 -34l-2 9q42 11 69 32t27 42q0 16 -14 26.5t-38 11.5l-2 5l30 76v0z" />
<glyph unicode="&#x15f;" horiz-adv-x="354" d="M224 -117q0 -34 -38.5 -61t-99.5 -34l-2 9q42 11 69 32t27 42q0 16 -14 26.5t-38 11.5l-2 5l30 77q-45 5 -74 32t-29 66q0 30 15 53.5t34 38.5l7 -5q-8 -18 -13 -36.5t-5 -39.5q0 -37 26.5 -58.5t66.5 -21.5t68 24.5t28 70.5q0 31 -15.5 56.5t-38 48.5t-45.5 47 t-38.5 51.5t-15.5 63.5q0 35 17.5 62.5t47.5 44t67 16.5q50 0 79.5 -25t29.5 -60q0 -29 -12.5 -54.5t-29.5 -42.5l-8 6q12 41 12 68q0 40 -19.5 60t-54.5 20q-36 0 -61.5 -25t-25.5 -65q0 -31 15.5 -57t38.5 -49.5t45.5 -47t38 -49.5t15.5 -57q0 -56 -37 -94.5t-98 -42.5 l-21 -54q27 -5 42.5 -19t15.5 -34z" />
<glyph unicode="&#x160;" horiz-adv-x="434" d="M402 775l-6 -4h-41q-17 22 -39 55t-45 69l16 10q20 -21 44 -46t50 -48q20 13 47 30t55.5 34t50.5 30l10 -12q-24 -18 -52.5 -41.5t-53 -44t-36.5 -32.5zM197 -10q-36 0 -68.5 6.5t-53 15.5t-24.5 18q-3 8 -3 18q0 23 8 56t21 64h16q-1 -12 -1 -22.5v-19.5q0 -30 3.5 -45 t11.5 -26q15 -19 42 -25.5t56 -6.5q50 0 86.5 22.5t56.5 58.5t20 75q0 37 -16 65.5t-41.5 52.5t-53.5 47t-53.5 48t-41.5 55.5t-16 70.5q0 51 28 91t74.5 63t100.5 23q57 0 91 -12.5t42 -24.5q2 -4 2 -9q0 -13 -4.5 -36t-11.5 -48t-15 -45h-16q1 14 1.5 26.5t0.5 22.5 q0 48 -13 64q-23 27 -85 27q-43 0 -77 -19t-53.5 -50.5t-19.5 -69.5q0 -40 22.5 -71.5t55.5 -59t66 -56.5t55.5 -65.5t22.5 -85.5t-25.5 -93t-73.5 -72t-117 -28z" />
<glyph unicode="&#x161;" horiz-adv-x="354" d="M300 590l-6 -4h-41q-15 27 -35 68t-40 86l16 10q18 -27 40 -59t46 -61q18 16 44 38t53 44t48 38l10 -12q-23 -23 -50.5 -52t-50.5 -55t-34 -41zM322 127q0 -58 -40.5 -97.5t-105.5 -39.5q-53 0 -88 28t-35 71q0 30 15 53.5t34 38.5l7 -5q-8 -18 -13 -36.5t-5 -39.5 q0 -37 26.5 -58.5t66.5 -21.5t68 24.5t28 70.5q0 31 -15.5 56.5t-38 48.5t-45.5 47t-38.5 51.5t-15.5 63.5q0 35 17.5 62.5t47.5 44t67 16.5q50 0 79.5 -25t29.5 -60q0 -29 -12.5 -54.5t-29.5 -42.5l-8 6q12 41 12 68q0 40 -19.5 60t-54.5 20q-36 0 -61.5 -25t-25.5 -65 q0 -31 15.5 -57t38.5 -49.5t45.5 -47t38 -49.5t15.5 -57z" />
<glyph unicode="&#x162;" horiz-adv-x="543" d="M288 39l85 -19l-4 -20h-94l-25 -64q27 -5 42.5 -19t15.5 -34q0 -34 -38.5 -61t-99.5 -34l-2 9q42 11 69 32t27 42q0 16 -14 26.5t-38 11.5l-2 5l34 86h-91l-2 20l67 13q16 3 23 9.5t10 20.5l13 57l113 533h-74q-33 0 -66 -2.5t-56 -7.5q-8 -16 -16 -34.5t-21 -49.5 l-16 -39h-15q5 41 15 86t23 79h508q-1 -34 -11 -81t-21 -84h-15v39v48.5t-1 35.5q-21 5 -53 7.5t-65 2.5h-74l-113 -533z" />
<glyph unicode="&#x163;" horiz-adv-x="324" d="M225 -117q0 -34 -38.5 -61t-99.5 -34l-2 9q42 11 69 32t27 42q0 16 -14 26.5t-38 11.5l-2 5l31 79q-47 16 -47 88q0 14 1.5 31.5t5.5 35.5l67 312h-87l2 12l91 18l59 149l13 -1l-32 -148h155l-6 -30h-155l-67 -312q-7 -32 -7 -62q0 -61 44 -61q32 0 69.5 29t77.5 78l8 -5 q-31 -55 -72.5 -94t-89.5 -43l-21 -54q27 -5 42.5 -19t15.5 -34z" />
<glyph unicode="&#x164;" horiz-adv-x="543" d="M450 776l-6 -4h-41q-17 22 -39 55t-45 69l16 10q20 -21 44 -46t50 -48q20 13 47 30t55.5 34t50.5 30l10 -12q-24 -18 -52.5 -41.5t-53 -44t-36.5 -32.5zM288 39l85 -19l-4 -20h-216l-2 20l67 13q16 3 23 9.5t10 20.5l13 57l113 533h-74q-33 0 -66 -2.5t-56 -7.5 q-8 -16 -16 -34.5t-21 -49.5l-16 -39h-15q5 41 15 86t23 79h508q-1 -34 -11 -81t-21 -84h-15v39v48.5t-1 35.5q-21 5 -53 7.5t-65 2.5h-74l-113 -533z" />
<glyph unicode="&#x165;" horiz-adv-x="324" d="M484 706q0 -24 -14 -54t-38 -58t-54 -48l-7 7q24 28 39.5 53t24.5 54q-33 1 -33 35q0 21 14.5 35.5t34.5 14.5q15 0 24 -10.5t9 -28.5zM180 -10q-32 0 -50.5 24t-18.5 67q0 14 1.5 31.5t5.5 35.5l67 312h-87l2 12l91 18l59 149l13 -1l-32 -148h155l-6 -30h-155l-67 -312 q-7 -32 -7 -62q0 -61 44 -61q32 0 69.5 29t77.5 78l8 -5q-32 -57 -76 -97t-94 -40z" />
<glyph unicode="&#x166;" horiz-adv-x="543" d="M288 39l85 -19l-4 -20h-216l-2 20l67 13q16 3 23 9.5t10 20.5l13 57l45 213h-150l6 30h151l61 290h-74q-33 0 -66 -2.5t-56 -7.5q-8 -16 -16 -34.5t-21 -49.5l-16 -39h-15q5 41 15 86t23 79h508q-1 -34 -11 -81t-21 -84h-15v39v48.5t-1 35.5q-21 5 -53 7.5t-65 2.5h-74 l-61 -290h156l-6 -30h-157l-45 -213z" />
<glyph unicode="&#x167;" horiz-adv-x="324" d="M180 -10q-32 0 -50.5 24t-18.5 67q0 14 1.5 31.5t5.5 35.5l36 167h-72l5 30h73l25 115h-87l2 12l91 18l59 149l13 -1l-32 -148h155l-6 -30h-155l-25 -115h166l-4 -30h-168l-36 -167q-7 -32 -7 -62q0 -61 44 -61q32 0 69.5 29t77.5 78l8 -5q-32 -57 -76 -97t-94 -40z" />
<glyph unicode="&#x168;" horiz-adv-x="660" d="M413 849q-9 -3 -28 -19.5t-51 -48.5l-8 5q24 49 49 75.5t59 26.5q28 0 59.5 -15t61.5 -30t53 -15q10 3 29 20t50 48l8 -5q-23 -49 -48.5 -75.5t-60.5 -26.5q-20 0 -43 9t-46.5 21t-45 21t-38.5 9zM584 235q-27 -127 -93.5 -186t-155.5 -59q-79 0 -131 46.5t-52 130.5 q0 17 2 36.5t6 41.5l68 320l18 81l-85 19l4 20h216l2 -20l-67 -13q-16 -3 -23 -9.5t-10 -20.5l-13 -57l-69 -323q-4 -18 -5.5 -35t-1.5 -33q0 -72 43 -110.5t107 -38.5q69 0 125 51t80 161l70 328l18 81l-85 19l4 20h209l2 -20l-95 -19l-18 -81z" />
<glyph unicode="&#x169;" horiz-adv-x="513" d="M284 689q-8 -3 -24.5 -20.5t-44.5 -49.5l-8 5q22 48 46.5 74t56.5 26q26 0 53 -15t51.5 -29.5t44.5 -15.5q8 3 24.5 20.5t44.5 49.5l8 -5q-22 -48 -46.5 -74t-56.5 -26q-26 0 -54 15t-52.5 30t-42.5 15zM405 120q-4 -22 -7 -37.5t-3 -25.5q0 -12 4 -19.5t14 -7.5 q13 0 29.5 15.5t34.5 39t34 47.5l8 -5q-13 -28 -32 -60t-42 -54.5t-48 -22.5q-23 0 -33 15.5t-10 40.5q0 13 3 31t8 43l26 117q-9 -18 -25 -48t-36.5 -64t-45 -65t-50.5 -50.5t-52 -19.5q-28 0 -41.5 21.5t-13.5 49.5q0 24 7.5 62t19.5 82.5l24 89t21 80.5q5 23 7.5 38 t2.5 25q0 12 -3.5 19.5t-14.5 7.5q-12 0 -29 -15.5t-34.5 -38.5t-34.5 -48l-8 5q13 29 32 60.5t42.5 54t47.5 22.5q23 0 33 -15.5t10 -40.5q0 -13 -3 -30.5t-8 -43.5q-8 -37 -20 -81l-24 -88t-20 -80t-8 -57q0 -17 6.5 -28t20.5 -11q19 0 43.5 22.5t50.5 58t50 76.5t43 79 t30 65l10 44l26 123l16 4q3 1 8 2t9 1q8 0 7.5 -6.5t-2.5 -14.5l-24 -109z" />
<glyph unicode="&#x16a;" horiz-adv-x="660" d="M379 819l8 34h252l-8 -34h-252zM584 235q-27 -127 -93.5 -186t-155.5 -59q-79 0 -131 46.5t-52 130.5q0 17 2 36.5t6 41.5l68 320l18 81l-85 19l4 20h216l2 -20l-67 -13q-16 -3 -23 -9.5t-10 -20.5l-13 -57l-69 -323q-4 -18 -5.5 -35t-1.5 -33q0 -72 43 -110.5t107 -38.5 q69 0 125 51t80 161l70 328l18 81l-85 19l4 20h209l2 -20l-95 -19l-18 -81z" />
<glyph unicode="&#x16b;" horiz-adv-x="513" d="M252 653l8 34h234l-8 -34h-234zM405 120q-4 -22 -7 -37.5t-3 -25.5q0 -12 4 -19.5t14 -7.5q13 0 29.5 15.5t34.5 39t34 47.5l8 -5q-13 -28 -32 -60t-42 -54.5t-48 -22.5q-23 0 -33 15.5t-10 40.5q0 13 3 31t8 43l26 117q-9 -18 -25 -48t-36.5 -64t-45 -65t-50.5 -50.5 t-52 -19.5q-28 0 -41.5 21.5t-13.5 49.5q0 24 7.5 62t19.5 82.5l24 89t21 80.5q5 23 7.5 38t2.5 25q0 12 -3.5 19.5t-14.5 7.5q-12 0 -29 -15.5t-34.5 -38.5t-34.5 -48l-8 5q13 29 32 60.5t42.5 54t47.5 22.5q23 0 33 -15.5t10 -40.5q0 -13 -3 -30.5t-8 -43.5 q-8 -37 -20 -81l-24 -88t-20 -80t-8 -57q0 -17 6.5 -28t20.5 -11q19 0 43.5 22.5t50.5 58t50 76.5t43 79t30 65l10 44l26 123l16 4q3 1 8 2t9 1q8 0 7.5 -6.5t-2.5 -14.5l-24 -109z" />
<glyph unicode="&#x16c;" horiz-adv-x="660" d="M616 890l4 2l13 -8q-25 -46 -62.5 -72.5t-84.5 -26.5q-43 0 -66.5 27.5t-21.5 76.5l16 3q3 -30 25 -47t59 -17q34 0 65 16.5t53 45.5zM584 235q-27 -127 -93.5 -186t-155.5 -59q-79 0 -131 46.5t-52 130.5q0 17 2 36.5t6 41.5l68 320l18 81l-85 19l4 20h216l2 -20 l-67 -13q-16 -3 -23 -9.5t-10 -20.5l-13 -57l-69 -323q-4 -18 -5.5 -35t-1.5 -33q0 -72 43 -110.5t107 -38.5q69 0 125 51t80 161l70 328l18 81l-85 19l4 20h209l2 -20l-95 -19l-18 -81z" />
<glyph unicode="&#x16d;" horiz-adv-x="513" d="M489 728l4 2l14 -3q-25 -58 -63 -90t-85 -32q-44 0 -67.5 32t-21.5 90l17 3q3 -38 25 -60t59 -22q34 0 65 21.5t53 58.5zM405 120q-4 -22 -7 -37.5t-3 -25.5q0 -12 4 -19.5t14 -7.5q13 0 29.5 15.5t34.5 39t34 47.5l8 -5q-13 -28 -32 -60t-42 -54.5t-48 -22.5 q-23 0 -33 15.5t-10 40.5q0 13 3 31t8 43l26 117q-9 -18 -25 -48t-36.5 -64t-45 -65t-50.5 -50.5t-52 -19.5q-28 0 -41.5 21.5t-13.5 49.5q0 24 7.5 62t19.5 82.5l24 89t21 80.5q5 23 7.5 38t2.5 25q0 12 -3.5 19.5t-14.5 7.5q-12 0 -29 -15.5t-34.5 -38.5t-34.5 -48l-8 5 q13 29 32 60.5t42.5 54t47.5 22.5q23 0 33 -15.5t10 -40.5q0 -13 -3 -30.5t-8 -43.5q-8 -37 -20 -81l-24 -88t-20 -80t-8 -57q0 -17 6.5 -28t20.5 -11q19 0 43.5 22.5t50.5 58t50 76.5t43 79t30 65l10 44l26 123l16 4q3 1 8 2t9 1q8 0 7.5 -6.5t-2.5 -14.5l-24 -109z" />
<glyph unicode="&#x16e;" horiz-adv-x="660" d="M589 853q0 -36 -28.5 -61.5t-69.5 -25.5q-28 0 -45 15.5t-17 42.5q0 35 28.5 60t68.5 25q29 0 46 -15t17 -41zM463 824q0 -16 9.5 -25.5t25.5 -9.5q23 0 39.5 18t16.5 44q0 16 -9.5 25.5t-25.5 9.5q-23 0 -39.5 -18t-16.5 -44zM584 235q-27 -127 -93.5 -186t-155.5 -59 q-79 0 -131 46.5t-52 130.5q0 17 2 36.5t6 41.5l68 320l18 81l-85 19l4 20h216l2 -20l-67 -13q-16 -3 -23 -9.5t-10 -20.5l-13 -57l-69 -323q-4 -18 -5.5 -35t-1.5 -33q0 -72 43 -110.5t107 -38.5q69 0 125 51t80 161l70 328l18 81l-85 19l4 20h209l2 -20l-95 -19l-18 -81z " />
<glyph unicode="&#x16f;" horiz-adv-x="513" d="M457 683q0 -36 -28.5 -61.5t-69.5 -25.5q-28 0 -45 15.5t-17 42.5q0 35 28.5 60t68.5 25q29 0 46 -15t17 -41zM331 654q0 -16 9.5 -25.5t25.5 -9.5q23 0 39.5 18t16.5 44q0 16 -9.5 25.5t-25.5 9.5q-23 0 -39.5 -18t-16.5 -44zM405 120q-4 -22 -7 -37.5t-3 -25.5 q0 -12 4 -19.5t14 -7.5q13 0 29.5 15.5t34.5 39t34 47.5l8 -5q-13 -28 -32 -60t-42 -54.5t-48 -22.5q-23 0 -33 15.5t-10 40.5q0 13 3 31t8 43l26 117q-9 -18 -25 -48t-36.5 -64t-45 -65t-50.5 -50.5t-52 -19.5q-28 0 -41.5 21.5t-13.5 49.5q0 24 7.5 62t19.5 82.5l24 89 t21 80.5q5 23 7.5 38t2.5 25q0 12 -3.5 19.5t-14.5 7.5q-12 0 -29 -15.5t-34.5 -38.5t-34.5 -48l-8 5q13 29 32 60.5t42.5 54t47.5 22.5q23 0 33 -15.5t10 -40.5q0 -13 -3 -30.5t-8 -43.5q-8 -37 -20 -81l-24 -88t-20 -80t-8 -57q0 -17 6.5 -28t20.5 -11q19 0 43.5 22.5 t50.5 58t50 76.5t43 79t30 65l10 44l26 123l16 4q3 1 8 2t9 1q8 0 7.5 -6.5t-2.5 -14.5l-24 -109z" />
<glyph unicode="&#x170;" horiz-adv-x="660" d="M513 897l8 1q8 -1 14 -7t6 -14q0 -29 -56 -52.5t-156 -48.5l-7 16q65 26 112.5 53.5t78.5 51.5zM709 897l8 1q8 -1 14 -7t6 -14q0 -29 -56 -52.5t-156 -48.5l-7 16q65 26 112.5 53.5t78.5 51.5zM584 235q-27 -127 -93.5 -186t-155.5 -59q-79 0 -131 46.5t-52 130.5 q0 17 2 36.5t6 41.5l68 320l18 81l-85 19l4 20h216l2 -20l-67 -13q-16 -3 -23 -9.5t-10 -20.5l-13 -57l-69 -323q-4 -18 -5.5 -35t-1.5 -33q0 -72 43 -110.5t107 -38.5q69 0 125 51t80 161l70 328l18 81l-85 19l4 20h209l2 -20l-95 -19l-18 -81z" />
<glyph unicode="&#x171;" horiz-adv-x="513" d="M396 754l6 2h4q27 0 27 -20q0 -15 -19.5 -34.5t-50.5 -41t-66.5 -42t-66.5 -37.5l-9 15q36 27 70 56t62 55.5t43 46.5zM546 754l6 2h4q27 0 27 -20q0 -15 -19.5 -34.5t-50.5 -41t-66.5 -42t-66.5 -37.5l-9 15q36 27 70 56t62 55.5t43 46.5zM405 120q-4 -22 -7 -37.5 t-3 -25.5q0 -12 4 -19.5t14 -7.5q13 0 29.5 15.5t34.5 39t34 47.5l8 -5q-13 -28 -32 -60t-42 -54.5t-48 -22.5q-23 0 -33 15.5t-10 40.5q0 13 3 31t8 43l26 117q-9 -18 -25 -48t-36.5 -64t-45 -65t-50.5 -50.5t-52 -19.5q-28 0 -41.5 21.5t-13.5 49.5q0 24 7.5 62t19.5 82.5 l24 89t21 80.5q5 23 7.5 38t2.5 25q0 12 -3.5 19.5t-14.5 7.5q-12 0 -29 -15.5t-34.5 -38.5t-34.5 -48l-8 5q13 29 32 60.5t42.5 54t47.5 22.5q23 0 33 -15.5t10 -40.5q0 -13 -3 -30.5t-8 -43.5q-8 -37 -20 -81l-24 -88t-20 -80t-8 -57q0 -17 6.5 -28t20.5 -11 q19 0 43.5 22.5t50.5 58t50 76.5t43 79t30 65l10 44l26 123l16 4q3 1 8 2t9 1q8 0 7.5 -6.5t-2.5 -14.5l-24 -109z" />
<glyph unicode="&#x172;" horiz-adv-x="660" d="M459 24q-75 -43 -120.5 -79t-45.5 -80q0 -19 9.5 -28t21.5 -9q24 0 47.5 21.5t44.5 46.5l8 -5q-10 -21 -26 -45t-37.5 -41t-48.5 -17q-33 0 -47.5 19t-14.5 47q0 37 30 72.5t84 65.5q-14 -2 -29 -2q-79 0 -131 46.5t-52 130.5q0 17 2 36.5t6 41.5l68 320l18 81l-85 19 l4 20h216l2 -20l-67 -13q-16 -3 -23 -9.5t-10 -20.5l-13 -57l-69 -323q-4 -18 -5.5 -35t-1.5 -33q0 -72 43 -110.5t107 -38.5q69 0 125 51t80 161l70 328l18 81l-85 19l4 20h209l2 -20l-95 -19l-18 -81l-70 -330q-17 -79 -49 -131t-77 -80h1z" />
<glyph unicode="&#x173;" horiz-adv-x="513" d="M405 120q-4 -22 -7 -37.5t-3 -25.5q0 -12 4 -19.5t14 -7.5q13 0 29.5 15.5t34.5 39t34 47.5l8 -5q-10 -21 -23 -45t-28 -44q-30 -43 -61.5 -74.5t-52.5 -56.5t-21 -50q0 -13 7.5 -21t20.5 -8q23 0 44 22t41 46l8 -5q-10 -21 -25.5 -45t-36 -41t-46.5 -17q-25 0 -40.5 17 t-15.5 42q0 29 17 52t43 44.5t52 46.5h-5q-23 0 -33 15.5t-10 40.5q0 13 3 31t8 43l26 117q-9 -18 -25 -48t-36.5 -64t-45 -65t-50.5 -50.5t-52 -19.5q-28 0 -41.5 21.5t-13.5 49.5q0 24 7.5 62t19.5 82.5l24 89t21 80.5q5 23 7.5 38t2.5 25q0 12 -3.5 19.5t-14.5 7.5 q-12 0 -29 -15.5t-34.5 -38.5t-34.5 -48l-8 5q13 29 32 60.5t42.5 54t47.5 22.5q23 0 33 -15.5t10 -40.5q0 -13 -3 -30.5t-8 -43.5q-8 -37 -20 -81l-24 -88t-20 -80t-8 -57q0 -17 6.5 -28t20.5 -11q19 0 43.5 22.5t50.5 58t50 76.5t43 79t30 65l10 44l26 123l16 4q3 1 8 2 t9 1q8 0 7.5 -6.5t-2.5 -14.5l-24 -109z" />
<glyph unicode="&#x174;" horiz-adv-x="985" d="M760 781l-16 -10q-21 21 -47.5 46t-56.5 48q-18 -13 -44 -30t-53.5 -34t-49.5 -30l-9 12q24 19 52 42t51.5 44t34.5 32l7 4h37q18 -22 43.5 -55t50.5 -69zM318 0h-23l-67 616q-2 17 -8 25t-20 11l-57 13l2 20h205l4 -20l-89 -19l61 -564l256 466l-9 68q-2 17 -8 25 t-20 11l-57 13l2 20h205l4 -20l-89 -19l70 -564l300 564l-83 19l4 20h200l2 -20l-55 -13q-31 -7 -46 -36l-329 -616h-23l-61 491z" />
<glyph unicode="&#x175;" horiz-adv-x="608" d="M539 596l-16 -10q-19 27 -43 59t-51 61q-17 -16 -41.5 -38t-49.5 -44t-46 -38l-9 12q22 23 47.5 52t47 55.5t31.5 40.5l7 4h41q16 -27 38 -68t44 -86zM393 390v9v7q-20 -68 -54.5 -140t-80.5 -140.5t-99 -125.5h-10q11 138 18 235.5t7 154.5q0 75 -32 75q-21 0 -47.5 -31 t-53.5 -71l-8 5q15 32 34 63.5t41.5 52.5t47.5 21q29 0 43 -28.5t14 -81.5q0 -36 -3 -91.5t-8.5 -117t-11.5 -115.5q60 80 101 158t63.5 148t28.5 125q8 3 17 3q18 0 25 -18.5t7 -76.5q0 -40 -3 -98t-8.5 -121.5t-11.5 -119.5q52 68 96.5 142.5t71.5 145t27 126.5v15 q8 5 19 5q12 0 20 -7.5t8 -22.5q0 -25 -15.5 -67.5t-43 -95.5t-62.5 -109.5t-74 -109t-78 -93.5h-10q11 138 18 235.5t7 154.5z" />
<glyph unicode="&#x176;" horiz-adv-x="614" d="M589 781l-16 -10q-21 21 -47.5 46t-56.5 48q-18 -13 -44 -30t-53.5 -34t-49.5 -30l-9 12q24 19 52 42t51.5 44t34.5 32l7 4h37q18 -22 43.5 -55t50.5 -69zM324 39l85 -19l-4 -20h-216l-2 20l67 13q16 3 23 9.5t10 20.5l13 57l13 60q10 47 9 108.5t-11 125.5t-26 119 t-35.5 88.5t-39.5 33.5q-19 0 -43.5 -32t-46.5 -70l-13 5q13 33 30.5 64.5t39 52t47.5 20.5q27 0 51.5 -34t43.5 -91.5t30.5 -128.5t12.5 -144q37 76 76.5 147t78 128t74 90t63.5 33q23 0 37.5 -20t22 -50t8.5 -62l-13 -5q-10 42 -24 69.5t-36 27.5q-15 0 -40 -24.5 t-55.5 -65.5t-62 -92t-59.5 -104.5t-48.5 -102.5t-28.5 -86l-13 -60z" />
<glyph unicode="&#x177;" horiz-adv-x="385" d="M407 596l-16 -10q-19 27 -43 59t-51 61q-17 -16 -41.5 -38t-49.5 -44t-46 -38l-9 12q22 23 47.5 52t47 55.5t31.5 40.5l7 4h41q16 -27 38 -68t44 -86zM148 505q70 0 70 -165q0 -62 -13 -149.5t-39 -173.5q95 86 150 197t55 232q0 36 -4 53q6 6 17 6q33 0 33 -57 q0 -49 -17 -109.5t-50.5 -125t-83 -126.5t-114.5 -114q-22 -63 -51.5 -114.5t-67 -82.5t-82.5 -31q-33 0 -52.5 15t-19.5 35q0 11 5 18.5t12 11.5q13 -19 30 -30.5t41 -11.5q40 0 69.5 29.5t52 78.5t38.5 107q18 61 28.5 125t15.5 120t5 92q0 68 -12 99t-29 31 q-19 0 -41.5 -31t-46.5 -71l-8 5q12 32 29 63.5t37.5 52.5t42.5 21z" />
<glyph unicode="&#x178;" horiz-adv-x="614" d="M585 847q0 -22 -13 -38.5t-31 -16.5q-14 0 -23 8t-9 23q0 19 12.5 36.5t32.5 17.5q31 0 31 -30zM395 847q0 -22 -13 -38.5t-31 -16.5q-14 0 -23 8t-9 23q0 19 12.5 36.5t32.5 17.5q31 0 31 -30zM324 39l85 -19l-4 -20h-216l-2 20l67 13q16 3 23 9.5t10 20.5l13 57l13 60 q10 47 9 108.5t-11 125.5t-26 119t-35.5 88.5t-39.5 33.5q-19 0 -43.5 -32t-46.5 -70l-13 5q13 33 30.5 64.5t39 52t47.5 20.5q27 0 51.5 -34t43.5 -91.5t30.5 -128.5t12.5 -144q37 76 76.5 147t78 128t74 90t63.5 33q23 0 37.5 -20t22 -50t8.5 -62l-13 -5q-10 42 -24 69.5 t-36 27.5q-15 0 -40 -24.5t-55.5 -65.5t-62 -92t-59.5 -104.5t-48.5 -102.5t-28.5 -86l-13 -60z" />
<glyph unicode="&#x179;" horiz-adv-x="562" d="M533 896l7 1q7 -1 16.5 -7.5t9.5 -18.5q0 -13 -23 -27t-59.5 -26.5t-77 -23t-76.5 -16.5l-5 16q66 28 120.5 52.5t87.5 49.5zM479 0h-420l1 30l507 625h-203q-31 0 -62 -1.5t-53 -3.5l-60 -130h-15q3 42 12.5 86.5t22.5 78.5h411l-2 -30l-506 -625h213q31 0 62 1.5 t52 3.5l62 130h15q-4 -40 -14.5 -84.5t-22.5 -80.5z" />
<glyph unicode="&#x17a;" horiz-adv-x="387" d="M397 754l6 2h4q27 0 27 -20q0 -15 -19.5 -34.5t-50.5 -41t-66.5 -42t-66.5 -37.5l-9 15q36 27 70 56t62 55.5t43 46.5zM119 20q-40 0 -70 -30l-18 18q55 73 105.5 138.5t100 130.5t100.5 139q-39 19 -81 32.5t-64 13.5q-28 0 -48 -25.5t-46 -73.5l-10 5q15 42 26 72.5 t26 47.5t39 17q34 0 81.5 -21.5t89.5 -48.5q24 35 47 70q14 -3 19 -10.5t5 -15.5q0 -10 -4.5 -18t-12.5 -20q-51 -71 -100 -134t-101 -127.5t-112 -139.5q25 10 53 10q14 0 42 -5l56 -10t42 -5t24.5 11t23.5 30q9 13 19 28t21 33l8 -5q-6 -16 -13 -34t-15 -34 q-14 -30 -28 -49.5t-35 -19.5t-52.5 7.5l-63 15t-54.5 7.5z" />
<glyph unicode="&#x17b;" horiz-adv-x="562" d="M484 844q0 -20 -14 -36t-33 -16q-32 0 -32 32q0 20 14 35t33 15q32 0 32 -30zM479 0h-420l1 30l507 625h-203q-31 0 -62 -1.5t-53 -3.5l-60 -130h-15q3 42 12.5 86.5t22.5 78.5h411l-2 -30l-506 -625h213q31 0 62 1.5t52 3.5l62 130h15q-4 -40 -14.5 -84.5t-22.5 -80.5z " />
<glyph unicode="&#x17c;" horiz-adv-x="387" d="M310 618q-13 0 -21 8.5t-8 22.5q0 25 12.5 42t31.5 17q13 0 21 -8t8 -22q0 -25 -12.5 -42.5t-31.5 -17.5zM119 20q-40 0 -70 -30l-18 18q55 73 105.5 138.5t100 130.5t100.5 139q-39 19 -81 32.5t-64 13.5q-28 0 -48 -25.5t-46 -73.5l-10 5q15 42 26 72.5t26 47.5t39 17 q34 0 81.5 -21.5t89.5 -48.5q24 35 47 70q14 -3 19 -10.5t5 -15.5q0 -10 -4.5 -18t-12.5 -20q-51 -71 -100 -134t-101 -127.5t-112 -139.5q25 10 53 10q14 0 42 -5l56 -10t42 -5t24.5 11t23.5 30q9 13 19 28t21 33l8 -5q-6 -16 -13 -34t-15 -34q-14 -30 -28 -49.5t-35 -19.5 t-52.5 7.5l-63 15t-54.5 7.5z" />
<glyph unicode="&#x17d;" horiz-adv-x="562" d="M452 775l-6 -4h-41q-17 22 -39 55t-45 69l16 10q20 -21 44 -46t50 -48q20 13 47 30t55.5 34t50.5 30l10 -12q-24 -18 -52.5 -41.5t-53 -44t-36.5 -32.5zM479 0h-420l1 30l507 625h-203q-31 0 -62 -1.5t-53 -3.5l-60 -130h-15q3 42 12.5 86.5t22.5 78.5h411l-2 -30 l-506 -625h213q31 0 62 1.5t52 3.5l62 130h15q-4 -40 -14.5 -84.5t-22.5 -80.5z" />
<glyph unicode="&#x17e;" horiz-adv-x="387" d="M336 590l-6 -4h-41q-15 27 -35 68t-40 86l16 10q18 -27 40 -59t46 -61q18 16 44 38t53 44t48 38l10 -12q-23 -23 -50.5 -52t-50.5 -55t-34 -41zM119 20q-40 0 -70 -30l-18 18q55 73 105.5 138.5t100 130.5t100.5 139q-39 19 -81 32.5t-64 13.5q-28 0 -48 -25.5t-46 -73.5 l-10 5q15 42 26 72.5t26 47.5t39 17q34 0 81.5 -21.5t89.5 -48.5q24 35 47 70q14 -3 19 -10.5t5 -15.5q0 -10 -4.5 -18t-12.5 -20q-51 -71 -100 -134t-101 -127.5t-112 -139.5q25 10 53 10q14 0 42 -5l56 -10t42 -5t24.5 11t23.5 30q9 13 19 28t21 33l8 -5q-6 -16 -13 -34 t-15 -34q-14 -30 -28 -49.5t-35 -19.5t-52.5 7.5l-63 15t-54.5 7.5z" />
<glyph unicode="&#x18f;" horiz-adv-x="569" d="M584 461q0 -98 -24.5 -183.5t-68 -150t-101 -101t-123.5 -36.5q-81 0 -125.5 56.5t-44.5 158.5q0 27 3.5 55t11.5 62l12 11h404q11 61 11 124q0 203 -149 203q-49 0 -91.5 -23.5t-68 -62.5t-25.5 -85q0 -8 2 -18q-9 -6 -22 -6q-28 0 -28 29q0 54 33 100t88 73.5t119 27.5 q86 0 136.5 -63.5t50.5 -170.5zM141 211q0 -91 36 -138.5t103 -47.5q57 0 105 37t83 100t53 141l-372 -6q-5 -20 -6.5 -40.5t-1.5 -45.5z" />
<glyph unicode="&#x192;" horiz-adv-x="455" d="M183 -8q-24 -112 -72 -179.5t-119 -67.5q-37 0 -61 18t-24 42q0 11 5 18.5t12 11.5q15 -21 38 -39t52 -18q51 0 78 53t47 149l68 318h-119l8 35h118l25 115q23 113 71.5 180t119.5 67q34 0 60 -15t40.5 -37.5t14.5 -45.5q0 -16 -8 -24.5t-19 -11.5q-12 47 -37 74t-63 27 q-55 0 -84 -53t-51 -149l-27 -127h187l-8 -35h-187z" />
<glyph unicode="&#x19d;" horiz-adv-x="720" d="M29 -170l-11 13q27 29 48.5 53.5t39.5 52.5t32 65t25 90l110 518q3 14 -0.5 20t-19.5 10l-59 13l4 20h119l241 -607l103 487l18 81l-85 19l4 20h209l2 -20l-67 -13q-17 -3 -23.5 -9.5t-9.5 -20.5l-13 -57l-120 -565h-30l-242 605l-112 -530q-13 -63 -34 -104t-52 -73 t-77 -68z" />
<glyph unicode="&#x1cd;" horiz-adv-x="649" d="M495 775l-6 -4h-41q-17 22 -39 55t-45 69l16 10q20 -21 44 -46t50 -48q20 13 47 30t55.5 34t50.5 30l10 -12q-24 -18 -52.5 -41.5t-53 -44t-36.5 -32.5zM444 687h23l76 -618q2 -17 8 -25t20 -11l57 -13l-2 -20h-205l-4 20l89 19l-26 216l-237 -4l-116 -212l82 -19l-4 -20 h-200l-2 20l55 13q17 4 27 12t19 24zM261 285h215l-40 321z" />
<glyph unicode="&#x1ce;" horiz-adv-x="465" d="M385 590l-6 -4h-41q-15 27 -35 68t-40 86l16 10q18 -27 40 -59t46 -61q18 16 44 38t53 44t48 38l10 -12q-23 -23 -50.5 -52t-50.5 -55t-34 -41zM357 120q-4 -22 -7 -37.5t-3 -25.5q0 -12 4 -19.5t14 -7.5q13 0 29.5 15.5t34.5 39t34 47.5l8 -5q-13 -28 -32 -60t-42 -54.5 t-48 -22.5q-23 0 -33 15.5t-10 40.5q0 13 3 31t8 43l31 140q-19 -40 -44 -86.5t-54 -88.5t-59.5 -68.5t-60.5 -26.5q-28 0 -47 28t-19 82q0 80 24 153t64.5 130t91.5 89.5t106 32.5q26 0 49 -6t39 -14zM106 101q0 -31 9.5 -51t26.5 -20q20 0 46.5 26t55 67t54.5 87.5 t45.5 88.5t28.5 68l20 92q-17 9 -33 12.5t-39 3.5q-38 0 -76 -30t-69 -82t-50 -119.5t-19 -142.5z" />
<glyph unicode="&#x1cf;" horiz-adv-x="350" d="M347 775l-6 -4h-41q-17 22 -39 55t-45 69l16 10q20 -21 44 -46t50 -48q20 13 47 30t55.5 34t50.5 30l10 -12q-24 -18 -52.5 -41.5t-53 -44t-36.5 -32.5zM191 39l85 -19l-4 -20h-216l-2 20l67 13q16 3 23 9.5t10 20.5l13 57l94 445l18 81l-85 19l4 20h216l2 -20l-67 -13 q-16 -3 -23 -9.5t-10 -20.5l-13 -57l-94 -445z" />
<glyph unicode="&#x1d0;" horiz-adv-x="278" d="M268 590l-6 -4h-41q-9 27 -21 68t-25 86l16 10q12 -26 27 -57t31 -59q23 25 56 59t58 57l10 -12q-18 -23 -39.5 -52t-39 -55t-26.5 -41zM169 120q-4 -22 -7 -37.5t-3 -25.5q0 -12 4 -19.5t14 -7.5q13 0 29.5 15.5t34.5 39t34 47.5l8 -5q-13 -28 -32 -60t-42 -54.5 t-48 -22.5q-23 0 -33 15.5t-10 40.5q0 13 3 31t8 43q8 38 19 83l22 90t20 82q5 23 7.5 38t2.5 25q0 12 -3.5 19.5t-14.5 7.5q-12 0 -29 -15.5t-34.5 -38.5t-34.5 -48l-8 5q13 29 32 60.5t42.5 54t47.5 22.5q23 0 33 -15.5t10 -40.5q0 -13 -3 -30.5t-8 -43.5 q-8 -39 -19.5 -84.5t-22.5 -89.5t-19 -81z" />
<glyph unicode="&#x1d1;" horiz-adv-x="575" d="M457 775l-6 -4h-41q-17 22 -39 55t-45 69l16 10q20 -21 44 -46t50 -48q20 13 47 30t55.5 34t50.5 30l10 -12q-24 -18 -52.5 -41.5t-53 -44t-36.5 -32.5zM593 454q0 -55 -13.5 -118t-39 -124t-62.5 -111.5t-85.5 -80.5t-106.5 -30q-83 0 -132.5 65t-49.5 174q0 60 14 125 t40.5 125.5t64.5 109.5t87 77.5t107 28.5q81 0 128.5 -64t47.5 -177zM149 235q0 -61 16 -108.5t48.5 -74.5t80.5 -27t87.5 26.5t70.5 71.5t52.5 101t32.5 116t11 115q0 92 -32.5 148.5t-106.5 56.5q-48 0 -88 -26t-72 -70t-54.5 -99.5t-34 -114.5t-11.5 -115z" />
<glyph unicode="&#x1d2;" horiz-adv-x="394" d="M327 590l-6 -4h-41q-15 27 -35 68t-40 86l16 10q18 -27 40 -59t46 -61q18 16 44 38t53 44t48 38l10 -12q-23 -23 -50.5 -52t-50.5 -55t-34 -41zM397 335q0 -71 -17 -133.5t-46.5 -110t-67 -74.5t-77.5 -27q-51 0 -81.5 48.5t-30.5 124.5q0 67 17.5 128.5t47.5 109.5 t67.5 76t77.5 28q55 0 82.5 -46t27.5 -124zM119 169q0 -68 21 -107.5t56 -39.5q33 0 62 26t51 70.5t34 100.5t12 117q0 59 -16.5 98t-56.5 39q-33 0 -62.5 -27t-52 -71.5t-35.5 -98.5t-13 -107z" />
<glyph unicode="&#x1d3;" horiz-adv-x="660" d="M515 775l-6 -4h-41q-17 22 -39 55t-45 69l16 10q20 -21 44 -46t50 -48q20 13 47 30t55.5 34t50.5 30l10 -12q-24 -18 -52.5 -41.5t-53 -44t-36.5 -32.5zM584 235q-27 -127 -93.5 -186t-155.5 -59q-79 0 -131 46.5t-52 130.5q0 17 2 36.5t6 41.5l68 320l18 81l-85 19l4 20 h216l2 -20l-67 -13q-16 -3 -23 -9.5t-10 -20.5l-13 -57l-69 -323q-4 -18 -5.5 -35t-1.5 -33q0 -72 43 -110.5t107 -38.5q69 0 125 51t80 161l70 328l18 81l-85 19l4 20h209l2 -20l-95 -19l-18 -81z" />
<glyph unicode="&#x1d4;" horiz-adv-x="513" d="M386 590l-6 -4h-41q-15 27 -35 68t-40 86l16 10q18 -27 40 -59t46 -61q18 16 44 38t53 44t48 38l10 -12q-23 -23 -50.5 -52t-50.5 -55t-34 -41zM405 120q-4 -22 -7 -37.5t-3 -25.5q0 -12 4 -19.5t14 -7.5q13 0 29.5 15.5t34.5 39t34 47.5l8 -5q-13 -28 -32 -60t-42 -54.5 t-48 -22.5q-23 0 -33 15.5t-10 40.5q0 13 3 31t8 43l26 117q-9 -18 -25 -48t-36.5 -64t-45 -65t-50.5 -50.5t-52 -19.5q-28 0 -41.5 21.5t-13.5 49.5q0 24 7.5 62t19.5 82.5l24 89t21 80.5q5 23 7.5 38t2.5 25q0 12 -3.5 19.5t-14.5 7.5q-12 0 -29 -15.5t-34.5 -38.5 t-34.5 -48l-8 5q13 29 32 60.5t42.5 54t47.5 22.5q23 0 33 -15.5t10 -40.5q0 -13 -3 -30.5t-8 -43.5q-8 -37 -20 -81l-24 -88t-20 -80t-8 -57q0 -17 6.5 -28t20.5 -11q19 0 43.5 22.5t50.5 58t50 76.5t43 79t30 65l10 44l26 123l16 4q3 1 8 2t9 1q8 0 7.5 -6.5t-2.5 -14.5 l-24 -109z" />
<glyph unicode="&#x1d5;" horiz-adv-x="660" d="M416 1003l8 34h252l-8 -34h-252zM639 847q0 -22 -13 -38.5t-31 -16.5q-14 0 -23 8t-9 23q0 19 12.5 36.5t32.5 17.5q31 0 31 -30zM449 847q0 -22 -13 -38.5t-31 -16.5q-14 0 -23 8t-9 23q0 19 12.5 36.5t32.5 17.5q31 0 31 -30zM584 235q-27 -127 -93.5 -186t-155.5 -59 q-79 0 -131 46.5t-52 130.5q0 17 2 36.5t6 41.5l68 320l18 81l-85 19l4 20h216l2 -20l-67 -13q-16 -3 -23 -9.5t-10 -20.5l-13 -57l-69 -323q-4 -18 -5.5 -35t-1.5 -33q0 -72 43 -110.5t107 -38.5q69 0 125 51t80 161l70 328l18 81l-85 19l4 20h209l2 -20l-95 -19l-18 -81z " />
<glyph unicode="&#x1d6;" horiz-adv-x="513" d="M298 883l8 34h234l-8 -34h-234zM507 678q0 -22 -12 -39.5t-29 -17.5q-13 0 -21 8.5t-8 24.5q0 20 11.5 38t30.5 18q14 0 21 -9t7 -23zM317 678q0 -22 -12 -39.5t-29 -17.5q-13 0 -21 8.5t-8 24.5q0 20 11.5 38t30.5 18q14 0 21 -9t7 -23zM405 120q-4 -22 -7 -37.5 t-3 -25.5q0 -12 4 -19.5t14 -7.5q13 0 29.5 15.5t34.5 39t34 47.5l8 -5q-13 -28 -32 -60t-42 -54.5t-48 -22.5q-23 0 -33 15.5t-10 40.5q0 13 3 31t8 43l26 117q-9 -18 -25 -48t-36.5 -64t-45 -65t-50.5 -50.5t-52 -19.5q-28 0 -41.5 21.5t-13.5 49.5q0 24 7.5 62t19.5 82.5 l24 89t21 80.5q5 23 7.5 38t2.5 25q0 12 -3.5 19.5t-14.5 7.5q-12 0 -29 -15.5t-34.5 -38.5t-34.5 -48l-8 5q13 29 32 60.5t42.5 54t47.5 22.5q23 0 33 -15.5t10 -40.5q0 -13 -3 -30.5t-8 -43.5q-8 -37 -20 -81l-24 -88t-20 -80t-8 -57q0 -17 6.5 -28t20.5 -11 q19 0 43.5 22.5t50.5 58t50 76.5t43 79t30 65l10 44l26 123l16 4q3 1 8 2t9 1q8 0 7.5 -6.5t-2.5 -14.5l-24 -109z" />
<glyph unicode="&#x1d7;" horiz-adv-x="660" d="M643 1080l7 1q7 -1 16.5 -7.5t9.5 -18.5q0 -13 -23 -27t-59.5 -26.5t-77 -23t-76.5 -16.5l-5 16q66 28 120.5 52.5t87.5 49.5zM449 847q0 -22 -13 -38.5t-31 -16.5q-14 0 -23 8t-9 23q0 19 12.5 36.5t32.5 17.5q31 0 31 -30zM639 847q0 -22 -13 -38.5t-31 -16.5 q-14 0 -23 8t-9 23q0 19 12.5 36.5t32.5 17.5q31 0 31 -30zM584 235q-27 -127 -93.5 -186t-155.5 -59q-79 0 -131 46.5t-52 130.5q0 17 2 36.5t6 41.5l68 320l18 81l-85 19l4 20h216l2 -20l-67 -13q-16 -3 -23 -9.5t-10 -20.5l-13 -57l-69 -323q-4 -18 -5.5 -35t-1.5 -33 q0 -72 43 -110.5t107 -38.5q69 0 125 51t80 161l70 328l18 81l-85 19l4 20h209l2 -20l-95 -19l-18 -81z" />
<glyph unicode="&#x1d8;" horiz-adv-x="513" d="M502 983l6 2h4q27 0 27 -20q0 -15 -19.5 -34.5t-50.5 -41t-66.5 -42t-66.5 -37.5l-9 15q36 27 70 56t62 55.5t43 46.5zM507 678q0 -22 -12 -39.5t-29 -17.5q-13 0 -21 8.5t-8 24.5q0 20 11.5 38t30.5 18q14 0 21 -9t7 -23zM317 678q0 -22 -12 -39.5t-29 -17.5 q-13 0 -21 8.5t-8 24.5q0 20 11.5 38t30.5 18q14 0 21 -9t7 -23zM405 120q-4 -22 -7 -37.5t-3 -25.5q0 -12 4 -19.5t14 -7.5q13 0 29.5 15.5t34.5 39t34 47.5l8 -5q-13 -28 -32 -60t-42 -54.5t-48 -22.5q-23 0 -33 15.5t-10 40.5q0 13 3 31t8 43l26 117q-9 -18 -25 -48 t-36.5 -64t-45 -65t-50.5 -50.5t-52 -19.5q-28 0 -41.5 21.5t-13.5 49.5q0 24 7.5 62t19.5 82.5l24 89t21 80.5q5 23 7.5 38t2.5 25q0 12 -3.5 19.5t-14.5 7.5q-12 0 -29 -15.5t-34.5 -38.5t-34.5 -48l-8 5q13 29 32 60.5t42.5 54t47.5 22.5q23 0 33 -15.5t10 -40.5 q0 -13 -3 -30.5t-8 -43.5q-8 -37 -20 -81l-24 -88t-20 -80t-8 -57q0 -17 6.5 -28t20.5 -11q19 0 43.5 22.5t50.5 58t50 76.5t43 79t30 65l10 44l26 123l16 4q3 1 8 2t9 1q8 0 7.5 -6.5t-2.5 -14.5l-24 -109z" />
<glyph unicode="&#x1d9;" horiz-adv-x="660" d="M552 959l-6 -4h-41q-17 22 -39 55t-45 69l16 10q20 -21 44 -46t50 -48q20 13 47 30t55.5 34t50.5 30l10 -12q-24 -18 -52.5 -41.5t-53 -44t-36.5 -32.5zM639 847q0 -22 -13 -38.5t-31 -16.5q-14 0 -23 8t-9 23q0 19 12.5 36.5t32.5 17.5q31 0 31 -30zM449 847 q0 -22 -13 -38.5t-31 -16.5q-14 0 -23 8t-9 23q0 19 12.5 36.5t32.5 17.5q31 0 31 -30zM584 235q-27 -127 -93.5 -186t-155.5 -59q-79 0 -131 46.5t-52 130.5q0 17 2 36.5t6 41.5l68 320l18 81l-85 19l4 20h216l2 -20l-67 -13q-16 -3 -23 -9.5t-10 -20.5l-13 -57l-69 -323 q-4 -18 -5.5 -35t-1.5 -33q0 -72 43 -110.5t107 -38.5q69 0 125 51t80 161l70 328l18 81l-85 19l4 20h209l2 -20l-95 -19l-18 -81z" />
<glyph unicode="&#x1da;" horiz-adv-x="513" d="M430 820l-6 -4h-41q-15 27 -35 68t-40 86l16 10q18 -27 40 -59t46 -61q18 16 44 38t53 44t48 38l10 -12q-23 -23 -50.5 -52t-50.5 -55t-34 -41zM507 678q0 -22 -12 -39.5t-29 -17.5q-13 0 -21 8.5t-8 24.5q0 20 11.5 38t30.5 18q14 0 21 -9t7 -23zM317 678 q0 -22 -12 -39.5t-29 -17.5q-13 0 -21 8.5t-8 24.5q0 20 11.5 38t30.5 18q14 0 21 -9t7 -23zM405 120q-4 -22 -7 -37.5t-3 -25.5q0 -12 4 -19.5t14 -7.5q13 0 29.5 15.5t34.5 39t34 47.5l8 -5q-13 -28 -32 -60t-42 -54.5t-48 -22.5q-23 0 -33 15.5t-10 40.5q0 13 3 31t8 43 l26 117q-9 -18 -25 -48t-36.5 -64t-45 -65t-50.5 -50.5t-52 -19.5q-28 0 -41.5 21.5t-13.5 49.5q0 24 7.5 62t19.5 82.5l24 89t21 80.5q5 23 7.5 38t2.5 25q0 12 -3.5 19.5t-14.5 7.5q-12 0 -29 -15.5t-34.5 -38.5t-34.5 -48l-8 5q13 29 32 60.5t42.5 54t47.5 22.5 q23 0 33 -15.5t10 -40.5q0 -13 -3 -30.5t-8 -43.5q-8 -37 -20 -81l-24 -88t-20 -80t-8 -57q0 -17 6.5 -28t20.5 -11q19 0 43.5 22.5t50.5 58t50 76.5t43 79t30 65l10 44l26 123l16 4q3 1 8 2t9 1q8 0 7.5 -6.5t-2.5 -14.5l-24 -109z" />
<glyph unicode="&#x1db;" horiz-adv-x="660" d="M651 979l-11 -16q-19 3 -52 11.5t-67 21t-57.5 27.5t-22.5 30q0 12 9.5 19t17.5 10l6 -1q15 -15 42.5 -33.5t63 -36.5t71.5 -32zM639 847q0 -22 -13 -38.5t-31 -16.5q-14 0 -23 8t-9 23q0 19 12.5 36.5t32.5 17.5q31 0 31 -30zM449 847q0 -22 -13 -38.5t-31 -16.5 q-14 0 -23 8t-9 23q0 19 12.5 36.5t32.5 17.5q31 0 31 -30zM584 235q-27 -127 -93.5 -186t-155.5 -59q-79 0 -131 46.5t-52 130.5q0 17 2 36.5t6 41.5l68 320l18 81l-85 19l4 20h216l2 -20l-67 -13q-16 -3 -23 -9.5t-10 -20.5l-13 -57l-69 -323q-4 -18 -5.5 -35t-1.5 -33 q0 -72 43 -110.5t107 -38.5q69 0 125 51t80 161l70 328l18 81l-85 19l4 20h209l2 -20l-95 -19l-18 -81z" />
<glyph unicode="&#x1dc;" horiz-adv-x="513" d="M494 822l-13 -11q-30 25 -63.5 53.5t-55 54.5t-18.5 43q2 10 11.5 16.5t25.5 6.5h4l5 -2q11 -31 40.5 -74.5t63.5 -86.5zM507 678q0 -22 -12 -39.5t-29 -17.5q-13 0 -21 8.5t-8 24.5q0 20 11.5 38t30.5 18q14 0 21 -9t7 -23zM317 678q0 -22 -12 -39.5t-29 -17.5 q-13 0 -21 8.5t-8 24.5q0 20 11.5 38t30.5 18q14 0 21 -9t7 -23zM405 120q-4 -22 -7 -37.5t-3 -25.5q0 -12 4 -19.5t14 -7.5q13 0 29.5 15.5t34.5 39t34 47.5l8 -5q-13 -28 -32 -60t-42 -54.5t-48 -22.5q-23 0 -33 15.5t-10 40.5q0 13 3 31t8 43l26 117q-9 -18 -25 -48 t-36.5 -64t-45 -65t-50.5 -50.5t-52 -19.5q-28 0 -41.5 21.5t-13.5 49.5q0 24 7.5 62t19.5 82.5l24 89t21 80.5q5 23 7.5 38t2.5 25q0 12 -3.5 19.5t-14.5 7.5q-12 0 -29 -15.5t-34.5 -38.5t-34.5 -48l-8 5q13 29 32 60.5t42.5 54t47.5 22.5q23 0 33 -15.5t10 -40.5 q0 -13 -3 -30.5t-8 -43.5q-8 -37 -20 -81l-24 -88t-20 -80t-8 -57q0 -17 6.5 -28t20.5 -11q19 0 43.5 22.5t50.5 58t50 76.5t43 79t30 65l10 44l26 123l16 4q3 1 8 2t9 1q8 0 7.5 -6.5t-2.5 -14.5l-24 -109z" />
<glyph unicode="&#x1e6;" horiz-adv-x="612" d="M534 775l-6 -4h-41q-17 22 -39 55t-45 69l16 10q20 -21 44 -46t50 -48q20 13 47 30t55.5 34t50.5 30l10 -12q-24 -18 -52.5 -41.5t-53 -44t-36.5 -32.5zM369 25q58 0 99 15l34 160l18 81l-85 19l4 20h216l2 -20l-67 -13q-16 -3 -23 -9.5t-10 -20.5l-13 -57l-39 -180 q-28 -13 -60 -21.5t-81 -8.5q-75 0 -132.5 32t-90 92t-32.5 144q0 95 32 174.5t86.5 138.5t124.5 91.5t145 32.5q44 0 78 -5.5t66 -19.5q-3 -28 -12 -70t-21 -80h-15q-1 32 -2.5 64t-3.5 63q-23 8 -46.5 10.5t-53.5 2.5q-63 0 -122.5 -30.5t-107 -85t-75.5 -127.5t-28 -157 q0 -67 26 -120.5t74.5 -84t114.5 -30.5z" />
<glyph unicode="&#x1e7;" horiz-adv-x="365" d="M317 587l-6 -4h-41q-15 27 -35 68t-40 86l16 10q18 -27 40 -59t46 -61q18 16 44 38t53 44t48 38l10 -12q-23 -23 -50.5 -52t-50.5 -55t-34 -41zM265 505q57 0 103.5 3t76.5 10q5 -8 5 -18q0 -12 -8.5 -22t-29.5 -10q-14 0 -37.5 3.5t-55.5 9.5q23 -18 32 -43.5t9 -55.5 q0 -57 -20 -101.5t-49.5 -78.5t-59 -60t-49.5 -45.5t-20 -34.5q0 -13 12.5 -23t34.5 -24q56 -35 87 -61t31 -65q0 -31 -23 -64.5t-69 -56.5t-116 -23t-110.5 31.5t-40.5 74.5q0 35 22.5 64t60.5 57l8 -8q-20 -23 -34.5 -48t-14.5 -54q0 -28 17.5 -47t46.5 -28.5t61 -9.5 q67 0 108.5 30.5t41.5 74.5q0 26 -20.5 46.5t-64.5 46.5q-34 21 -57.5 37t-23.5 40q0 22 24 44t65 58q-8 -1 -15 -1q-48 0 -78 34.5t-30 92.5q0 61 25 112t66 82t89 31zM127 289q0 -49 21.5 -78.5t52.5 -29.5q30 0 57 27.5t43.5 73t16.5 99.5q0 43 -17 68.5t-49 25.5 q-34 0 -62.5 -27.5t-45.5 -70t-17 -88.5z" />
<glyph unicode="&#x1ea;" horiz-adv-x="575" d="M593 454q0 -56 -14 -121.5t-41 -128t-66.5 -112.5t-90.5 -78q-70 -41 -109.5 -74t-39.5 -75q0 -19 9.5 -28t21.5 -9q24 0 47.5 21.5t44.5 46.5l8 -5q-10 -21 -26 -45t-37.5 -41t-48.5 -17q-33 0 -47.5 19t-14.5 47q0 36 29.5 71.5t82.5 65.5q-7 -1 -15 -1 q-83 0 -132.5 65t-49.5 174q0 60 14 125t40.5 125.5t64.5 109.5t87 77.5t107 28.5q81 0 128.5 -64t47.5 -177zM149 235q0 -61 16 -108.5t48.5 -74.5t80.5 -27t87.5 26.5t70.5 71.5t52.5 101t32.5 116t11 115q0 92 -32.5 148.5t-106.5 56.5q-48 0 -88 -26t-72 -70 t-54.5 -99.5t-34 -114.5t-11.5 -115z" />
<glyph unicode="&#x1eb;" horiz-adv-x="394" d="M397 335q0 -92 -28.5 -169.5t-72.5 -122.5q-38 -46 -71 -78t-53 -57.5t-20 -50.5q0 -13 7.5 -21t20.5 -8q23 0 44 22t41 46l8 -5q-10 -21 -25.5 -45t-36 -41t-46.5 -17q-25 0 -40.5 17t-15.5 42q0 31 19 55t46.5 46.5t53.5 48.5q-20 -7 -39 -7q-51 0 -81.5 48.5 t-30.5 124.5q0 67 17.5 128.5t47.5 109.5t67.5 76t77.5 28q55 0 82.5 -46t27.5 -124zM119 169q0 -68 21 -107.5t56 -39.5q33 0 62 26t51 70.5t34 100.5t12 117q0 59 -16.5 98t-56.5 39q-33 0 -62.5 -27t-52 -71.5t-35.5 -98.5t-13 -107z" />
<glyph unicode="&#x1f4;" horiz-adv-x="612" d="M605 896l7 1q7 -1 16.5 -7.5t9.5 -18.5q0 -13 -23 -27t-59.5 -26.5t-77 -23t-76.5 -16.5l-5 16q66 28 120.5 52.5t87.5 49.5zM369 25q58 0 99 15l34 160l18 81l-85 19l4 20h216l2 -20l-67 -13q-16 -3 -23 -9.5t-10 -20.5l-13 -57l-39 -180q-28 -13 -60 -21.5t-81 -8.5 q-75 0 -132.5 32t-90 92t-32.5 144q0 95 32 174.5t86.5 138.5t124.5 91.5t145 32.5q44 0 78 -5.5t66 -19.5q-3 -28 -12 -70t-21 -80h-15q-1 32 -2.5 64t-3.5 63q-23 8 -46.5 10.5t-53.5 2.5q-63 0 -122.5 -30.5t-107 -85t-75.5 -127.5t-28 -157q0 -67 26 -120.5t74.5 -84 t114.5 -30.5z" />
<glyph unicode="&#x1f5;" horiz-adv-x="365" d="M398 751l6 2h4q27 0 27 -20q0 -15 -19.5 -34.5t-50.5 -41t-66.5 -42t-66.5 -37.5l-9 15q36 27 70 56t62 55.5t43 46.5zM265 505q57 0 103.5 3t76.5 10q5 -8 5 -18q0 -12 -8.5 -22t-29.5 -10q-14 0 -37.5 3.5t-55.5 9.5q23 -18 32 -43.5t9 -55.5q0 -57 -20 -101.5 t-49.5 -78.5t-59 -60t-49.5 -45.5t-20 -34.5q0 -13 12.5 -23t34.5 -24q56 -35 87 -61t31 -65q0 -31 -23 -64.5t-69 -56.5t-116 -23t-110.5 31.5t-40.5 74.5q0 35 22.5 64t60.5 57l8 -8q-20 -23 -34.5 -48t-14.5 -54q0 -28 17.5 -47t46.5 -28.5t61 -9.5q67 0 108.5 30.5 t41.5 74.5q0 26 -20.5 46.5t-64.5 46.5q-34 21 -57.5 37t-23.5 40q0 22 24 44t65 58q-8 -1 -15 -1q-48 0 -78 34.5t-30 92.5q0 61 25 112t66 82t89 31zM127 289q0 -49 21.5 -78.5t52.5 -29.5q30 0 57 27.5t43.5 73t16.5 99.5q0 43 -17 68.5t-49 25.5q-34 0 -62.5 -27.5 t-45.5 -70t-17 -88.5z" />
<glyph unicode="&#x1fa;" horiz-adv-x="649" d="M627 1109l7 1q7 -1 16.5 -7.5t9.5 -18.5q0 -13 -23 -27t-59.5 -26.5t-77 -23t-76.5 -16.5l-5 16q66 28 120.5 52.5t87.5 49.5zM569 853q0 -36 -28.5 -61.5t-69.5 -25.5q-28 0 -45 15.5t-17 42.5q0 35 28.5 60t68.5 25q29 0 46 -15t17 -41zM443 824q0 -16 9.5 -25.5 t25.5 -9.5q23 0 39.5 18t16.5 44q0 16 -9.5 25.5t-25.5 9.5q-23 0 -39.5 -18t-16.5 -44zM444 687h23l76 -618q2 -17 8 -25t20 -11l57 -13l-2 -20h-205l-4 20l89 19l-26 216l-237 -4l-116 -212l82 -19l-4 -20h-200l-2 20l55 13q17 4 27 12t19 24zM261 285h215l-40 321z" />
<glyph unicode="&#x1fb;" horiz-adv-x="465" d="M509 984l6 2h4q27 0 27 -20q0 -15 -19.5 -34.5t-50.5 -41t-66.5 -42t-66.5 -37.5l-9 15q36 27 70 56t62 55.5t43 46.5zM456 683q0 -36 -28.5 -61.5t-69.5 -25.5q-28 0 -45 15.5t-17 42.5q0 35 28.5 60t68.5 25q29 0 46 -15t17 -41zM330 654q0 -16 9.5 -25.5t25.5 -9.5 q23 0 39.5 18t16.5 44q0 16 -9.5 25.5t-25.5 9.5q-23 0 -39.5 -18t-16.5 -44zM357 120q-4 -22 -7 -37.5t-3 -25.5q0 -12 4 -19.5t14 -7.5q13 0 29.5 15.5t34.5 39t34 47.5l8 -5q-13 -28 -32 -60t-42 -54.5t-48 -22.5q-23 0 -33 15.5t-10 40.5q0 13 3 31t8 43l31 140 q-19 -40 -44 -86.5t-54 -88.5t-59.5 -68.5t-60.5 -26.5q-28 0 -47 28t-19 82q0 80 24 153t64.5 130t91.5 89.5t106 32.5q26 0 49 -6t39 -14zM106 101q0 -31 9.5 -51t26.5 -20q20 0 46.5 26t55 67t54.5 87.5t45.5 88.5t28.5 68l20 92q-17 9 -33 12.5t-39 3.5q-38 0 -76 -30 t-69 -82t-50 -119.5t-19 -142.5z" />
<glyph unicode="&#x1fc;" horiz-adv-x="866" d="M769 896l7 1q7 -1 16.5 -7.5t9.5 -18.5q0 -13 -23 -27t-59.5 -26.5t-77 -23t-76.5 -16.5l-5 16q66 28 120.5 52.5t87.5 49.5zM435 646l-81 19l6 20h548q-1 -34 -11 -79.5t-21 -85.5h-15q-1 32 -3 65t-4 65q-19 2 -50 3.5t-62 1.5h-127l-63 -296v1l223 5l-9 -39l-220 5 l-45 -211l-19 -90h158q31 0 62.5 1.5t51.5 3.5q16 32 31 65t31 65h15q-3 -23 -8.5 -52.5t-13 -59.5t-16.5 -53h-445l-2 20l67 13q17 3 24 9.5t10 20.5l12 57l44 209l-215 -4l-158 -286l80 -19l-6 -20h-203l2 20q15 3 29.5 6.5t29.5 6.5q17 4 27 12t19 24zM572 655h-100 l-165 -296h202z" />
<glyph unicode="&#x1fd;" horiz-adv-x="586" d="M558 754l6 2h4q27 0 27 -20q0 -15 -19.5 -34.5t-50.5 -41t-66.5 -42t-66.5 -37.5l-9 15q36 27 70 56t62 55.5t43 46.5zM579 127q-32 -57 -74.5 -97t-91.5 -40q-52 0 -77 42.5t-25 117.5q0 20 2 40q-25 -48 -55.5 -94t-63 -76t-64.5 -30q-28 0 -47 28t-19 82q0 80 24 153 t64.5 130t91.5 89.5t106 32.5q26 0 49 -6t39 -14l-14 -44q28 29 59 46.5t63 17.5q37 0 55 -21t18 -56q0 -42 -24 -76.5t-62.5 -60t-83.5 -40t-87 -17.5q-9 -44 -9 -86q0 -55 18 -89t55 -34q32 0 68.5 29t76.5 78zM106 101q0 -31 9.5 -51t26.5 -20q18 0 41.5 21.5t49 56 t49.5 76t44 80.5v0l64 196q-17 8 -32.5 11.5t-37.5 3.5q-38 0 -76 -30t-69 -82t-50 -119.5t-19 -142.5zM535 473q-35 0 -68 -29.5t-59 -78t-41 -106.5q60 6 107.5 30.5t75 60t27.5 76.5q0 20 -11 33.5t-31 13.5z" />
<glyph unicode="&#x1fe;" horiz-adv-x="576" d="M512 944l6 2h4q27 0 27 -20q0 -15 -19.5 -34.5t-50.5 -41t-66.5 -42t-66.5 -37.5l-9 15q36 27 70 56t62 55.5t43 46.5zM593 454q0 -55 -13.5 -118t-39 -124t-62.5 -111.5t-85.5 -80.5t-106.5 -30q-56 0 -97 30t-63 84l-84 -86l-21 22l94 97q-11 42 -11 92q0 60 14 125 t40.5 125.5t64.5 109.5t87 77.5t107 28.5q50 0 88 -25t60 -72l68 70l22 -22l-78 -80q16 -49 16 -112zM149 235q0 -31 4 -59l380 389q-15 45 -45 70t-79 25q-48 0 -88 -26t-72 -70t-54.5 -99.5t-34 -114.5t-11.5 -115zM548 455q0 42 -6 75l-381 -390q15 -53 48.5 -84 t84.5 -31q48 0 87.5 26.5t70.5 71.5t52.5 101t32.5 116t11 115z" />
<glyph unicode="&#x1ff;" horiz-adv-x="394" d="M377 754l6 2h4q27 0 27 -20q0 -15 -19.5 -34.5t-50.5 -41t-66.5 -42t-66.5 -37.5l-9 15q36 27 70 56t62 55.5t43 46.5zM397 335q0 -71 -17 -133.5t-46.5 -110t-67 -74.5t-77.5 -27q-36 0 -62.5 25.5t-39.5 68.5l-70 -71l-20 24l83 84q-3 20 -3 42q0 67 17.5 128.5 t47.5 109.5t67.5 76t77.5 28q35 0 59.5 -20t36.5 -56l53 54l21 -24l-65 -65q5 -27 5 -59zM119 169v-1v-7l231 235q-6 35 -22.5 56t-45.5 21q-33 0 -62.5 -27t-52 -71.5t-35.5 -98.5t-13 -107zM355 336v19l-233 -235q7 -46 26.5 -72t47.5 -26q33 0 62 26t51 70.5t34 100.5 t12 117z" />
<glyph unicode="&#x218;" horiz-adv-x="434" d="M197 -10q-36 0 -68.5 6.5t-53 15.5t-24.5 18q-3 8 -3 18q0 23 8 56t21 64h16q-1 -12 -1 -22.5v-19.5q0 -30 3.5 -45t11.5 -26q15 -19 42 -25.5t56 -6.5q50 0 86.5 22.5t56.5 58.5t20 75q0 37 -16 65.5t-41.5 52.5t-53.5 47t-53.5 48t-41.5 55.5t-16 70.5q0 51 28 91 t74.5 63t100.5 23q57 0 91 -12.5t42 -24.5q2 -4 2 -9q0 -13 -4.5 -36t-11.5 -48t-15 -45h-16q1 14 1.5 26.5t0.5 22.5q0 48 -13 64q-23 27 -85 27q-43 0 -77 -19t-53.5 -50.5t-19.5 -69.5q0 -40 22.5 -71.5t55.5 -59t66 -56.5t55.5 -65.5t22.5 -85.5t-25.5 -93t-73.5 -72 t-117 -28zM227 -161q0 -24 -14 -54t-38 -58t-54 -48l-7 7q24 28 39.5 53t24.5 54q-33 1 -33 35q0 21 14.5 35.5t34.5 14.5q15 0 24 -10.5t9 -28.5z" />
<glyph unicode="&#x219;" horiz-adv-x="354" d="M322 127q0 -58 -40.5 -97.5t-105.5 -39.5q-53 0 -88 28t-35 71q0 30 15 53.5t34 38.5l7 -5q-8 -18 -13 -36.5t-5 -39.5q0 -37 26.5 -58.5t66.5 -21.5t68 24.5t28 70.5q0 31 -15.5 56.5t-38 48.5t-45.5 47t-38.5 51.5t-15.5 63.5q0 35 17.5 62.5t47.5 44t67 16.5 q50 0 79.5 -25t29.5 -60q0 -29 -12.5 -54.5t-29.5 -42.5l-8 6q12 41 12 68q0 40 -19.5 60t-54.5 20q-36 0 -61.5 -25t-25.5 -65q0 -31 15.5 -57t38.5 -49.5t45.5 -47t38 -49.5t15.5 -57zM173 -161q0 -24 -14 -54t-38 -58t-54 -48l-7 7q24 28 39.5 53t24.5 54q-33 1 -33 35 q0 21 14.5 35.5t34.5 14.5q15 0 24 -10.5t9 -28.5z" />
<glyph unicode="&#x21a;" horiz-adv-x="543" d="M288 39l85 -19l-4 -20h-216l-2 20l67 13q16 3 23 9.5t10 20.5l13 57l113 533h-74q-33 0 -66 -2.5t-56 -7.5q-8 -16 -16 -34.5t-21 -49.5l-16 -39h-15q5 41 15 86t23 79h508q-1 -34 -11 -81t-21 -84h-15v39v48.5t-1 35.5q-21 5 -53 7.5t-65 2.5h-74l-113 -533zM270 -161 q0 -24 -14 -54t-38 -58t-54 -48l-7 7q24 28 39.5 53t24.5 54q-33 1 -33 35q0 21 14.5 35.5t34.5 14.5q15 0 24 -10.5t9 -28.5z" />
<glyph unicode="&#x21b;" horiz-adv-x="324" d="M180 -10q-32 0 -50.5 24t-18.5 67q0 14 1.5 31.5t5.5 35.5l67 312h-87l2 12l91 18l59 149l13 -1l-32 -148h155l-6 -30h-155l-67 -312q-7 -32 -7 -62q0 -61 44 -61q32 0 69.5 29t77.5 78l8 -5q-32 -57 -76 -97t-94 -40zM205 -161q0 -24 -14 -54t-38 -58t-54 -48l-7 7 q24 28 39.5 53t24.5 54q-33 1 -33 35q0 21 14.5 35.5t34.5 14.5q15 0 24 -10.5t9 -28.5z" />
<glyph unicode="&#x232;" horiz-adv-x="614" d="M325 819l8 34h252l-8 -34h-252zM324 39l85 -19l-4 -20h-216l-2 20l67 13q16 3 23 9.5t10 20.5l13 57l13 60q10 47 9 108.5t-11 125.5t-26 119t-35.5 88.5t-39.5 33.5q-19 0 -43.5 -32t-46.5 -70l-13 5q13 33 30.5 64.5t39 52t47.5 20.5q27 0 51.5 -34t43.5 -91.5 t30.5 -128.5t12.5 -144q37 76 76.5 147t78 128t74 90t63.5 33q23 0 37.5 -20t22 -50t8.5 -62l-13 -5q-10 42 -24 69.5t-36 27.5q-15 0 -40 -24.5t-55.5 -65.5t-62 -92t-59.5 -104.5t-48.5 -102.5t-28.5 -86l-13 -60z" />
<glyph unicode="&#x233;" horiz-adv-x="385" d="M181 653l8 34h234l-8 -34h-234zM148 505q70 0 70 -165q0 -62 -13 -149.5t-39 -173.5q95 86 150 197t55 232q0 36 -4 53q6 6 17 6q33 0 33 -57q0 -49 -17 -109.5t-50.5 -125t-83 -126.5t-114.5 -114q-22 -63 -51.5 -114.5t-67 -82.5t-82.5 -31q-33 0 -52.5 15t-19.5 35 q0 11 5 18.5t12 11.5q13 -19 30 -30.5t41 -11.5q40 0 69.5 29.5t52 78.5t38.5 107q18 61 28.5 125t15.5 120t5 92q0 68 -12 99t-29 31q-19 0 -41.5 -31t-46.5 -71l-8 5q12 32 29 63.5t37.5 52.5t42.5 21z" />
<glyph unicode="&#x237;" horiz-adv-x="236" d="M177 375q5 23 7.5 38t2.5 25q0 12 -3.5 19.5t-14.5 7.5q-12 0 -29 -15.5t-34.5 -38.5t-34.5 -48l-8 5q13 29 32 60.5t42.5 54t47.5 22.5q23 0 33 -15.5t10 -40.5q0 -13 -3 -30.5t-8 -43.5l-80 -383q-23 -112 -71.5 -179.5t-119.5 -67.5q-37 0 -61 18t-24 42q0 11 5 18.5 t12 11.5q15 -21 38 -39t52 -18q51 0 78 53t47 149z" />
<glyph unicode="&#x259;" horiz-adv-x="363" d="M371 345q0 -64 -20 -127.5t-54 -114.5t-76 -82t-85 -31q-37 0 -55 21t-18 56q0 42 24 76.5t62.5 59.5t83.5 40t87 18q9 44 9 86q0 57 -18 91.5t-54 34.5q-34 0 -58 -19t-37.5 -48.5t-18.5 -59.5q-8 -4 -15 -4q-17 0 -17 20q0 29 21.5 62.5t57.5 57t80 23.5 q52 0 76.5 -42.5t24.5 -117.5zM105 69q0 -20 11 -33.5t31 -13.5q35 0 68 29.5t59 78t41 106.5q-61 -6 -108 -30t-74.5 -60t-27.5 -77z" />
<glyph unicode="&#x272;" horiz-adv-x="505" d="M75 368q13 29 32 60.5t42.5 54t47.5 22.5q23 0 33 -15.5t10 -40.5q0 -11 -2.5 -27t-10 -53.5t-23.5 -111.5q17 34 40 76t50 81.5t57 65t61 25.5q29 0 42.5 -21t13.5 -50q0 -24 -7.5 -62t-19.5 -82.5l-24 -89t-21 -80.5q-4 -22 -7 -37.5t-3 -25.5q0 -12 4 -19.5t14 -7.5 q13 0 29.5 15.5t34.5 39t34 47.5l8 -5q-13 -28 -32 -60t-42 -54.5t-48 -22.5q-23 0 -33 15.5t-10 40.5q0 13 3 31t8 43q8 37 20 81t24 87.5t20 80t8 57.5q0 17 -7 28t-24 11q-21 0 -45 -22t-48.5 -57t-47 -75.5t-41 -78.5t-29.5 -64l-37 -176q-23 -112 -71.5 -179.5 t-119.5 -67.5q-37 0 -61 18t-24 42q0 11 5 18.5t12 11.5q15 -21 38 -39t52 -18q51 0 78 53t47 149l84 395q5 23 7.5 38t2.5 25q0 12 -3.5 19.5t-14.5 7.5q-12 0 -29 -15.5t-34.5 -38.5t-34.5 -48z" />
<glyph unicode="&#x2c6;" horiz-adv-x="457" d="M431 596l-16 -10q-19 27 -43 59t-51 61q-17 -16 -41.5 -38t-49.5 -44t-46 -38l-9 12q22 23 47.5 52t47 55.5t31.5 40.5l7 4h41q16 -27 38 -68t44 -86z" />
<glyph unicode="&#x2c7;" horiz-adv-x="458" d="M327 590l-6 -4h-41q-15 27 -35 68t-40 86l16 10q18 -27 40 -59t46 -61q18 16 44 38t53 44t48 38l10 -12q-23 -23 -50.5 -52t-50.5 -55t-34 -41z" />
<glyph unicode="&#x2d8;" horiz-adv-x="430" d="M418 728l4 2l14 -3q-25 -58 -63 -90t-85 -32q-44 0 -67.5 32t-21.5 90l17 3q3 -38 25 -60t59 -22q34 0 65 21.5t53 58.5z" />
<glyph unicode="&#x2d9;" horiz-adv-x="270" d="M216 618q-13 0 -21 8.5t-8 22.5q0 25 12.5 42t31.5 17q13 0 21 -8t8 -22q0 -25 -12.5 -42.5t-31.5 -17.5z" />
<glyph unicode="&#x2da;" horiz-adv-x="357" d="M348 683q0 -36 -28.5 -61.5t-69.5 -25.5q-28 0 -45 15.5t-17 42.5q0 35 28.5 60t68.5 25q29 0 46 -15t17 -41zM222 654q0 -16 9.5 -25.5t25.5 -9.5q23 0 39.5 18t16.5 44q0 16 -9.5 25.5t-25.5 9.5q-23 0 -39.5 -18t-16.5 -44z" />
<glyph unicode="&#x2db;" horiz-adv-x="378" d="M206 0q-62 -23 -98.5 -61.5t-36.5 -73.5q0 -17 9.5 -27t21.5 -10q24 0 47.5 21.5t44.5 46.5l8 -5q-10 -21 -26 -45t-37.5 -41t-48.5 -17q-33 0 -47.5 19t-14.5 47q0 41 41.5 87.5t115.5 75.5z" />
<glyph unicode="&#x2dc;" horiz-adv-x="507" d="M257 689q-8 -3 -24.5 -20.5t-44.5 -49.5l-8 5q22 48 46.5 74t56.5 26q26 0 53 -15t51.5 -29.5t44.5 -15.5q8 3 24.5 20.5t44.5 49.5l8 -5q-22 -48 -46.5 -74t-56.5 -26q-26 0 -54 15t-52.5 30t-42.5 15z" />
<glyph unicode="&#x2dd;" horiz-adv-x="533" d="M349 754l6 2h4q27 0 27 -20q0 -15 -19.5 -34.5t-50.5 -41t-66.5 -42t-66.5 -37.5l-9 15q36 27 70 56t62 55.5t43 46.5zM499 754l6 2h4q27 0 27 -20q0 -15 -19.5 -34.5t-50.5 -41t-66.5 -42t-66.5 -37.5l-9 15q36 27 70 56t62 55.5t43 46.5z" />
<glyph unicode="&#x326;" horiz-adv-x="283" d="M94 -161q0 -24 -14 -54t-38 -58t-54 -48l-7 7q24 28 39.5 53t24.5 54q-33 1 -33 35q0 21 14.5 35.5t34.5 14.5q15 0 24 -10.5t9 -28.5z" />
<glyph unicode="&#x394;" horiz-adv-x="606" d="M561 0h-538l-2 7l404 678h23l115 -678zM75 35h439l-98 575z" />
<glyph unicode="&#x3bc;" horiz-adv-x="534" d="M85 -237q-3 -13 -17.5 -15.5t-23.5 -2.5l-5 7q4 19 16 68t29.5 117.5t36.5 146t38 153t35 138.5q10 39 16 70.5t11 52.5l16 4q3 1 8 2t9 1q8 0 7.5 -6.5t-2.5 -14.5q-22 -103 -44.5 -188.5t-37 -144t-14.5 -82.5q0 -17 7 -28t24 -11q21 0 46.5 22.5t51.5 58t49.5 76.5 t42.5 79t30 65l10 44l26 123l16 4q3 1 8 2t9 1q8 0 7.5 -6.5t-2.5 -14.5l-24 -109l-56 -255q-4 -22 -7 -37.5t-3 -25.5q0 -12 4 -19.5t14 -7.5q13 0 29.5 15.5t34.5 39t34 47.5l8 -5q-13 -28 -32 -60t-42 -54.5t-48 -22.5q-23 0 -33 15.5t-10 40.5q0 13 3 31t8 43l26 117 q-9 -18 -24.5 -48t-36.5 -64t-45.5 -65t-51 -50.5t-54.5 -19.5q-14 0 -28.5 10.5t-14.5 37.5h-1q-4 -31 -13 -83t-24 -120q-3 -14 -7 -32t-9 -40z" />
<glyph unicode="&#x3c0;" horiz-adv-x="646" d="M198 47q-15 -31 -25.5 -44t-24.5 -13q-13 0 -24 4l-6 8q46 68 89.5 188t88.5 277q-40 1 -81 1q-31 0 -48.5 -13.5t-39.5 -47.5l-20 2q11 26 23 50t25 46q28 3 59.5 4t62.5 1q17 0 54 -1t83.5 -3t91.5 -4t79 -3t45 -1q26 0 39 8.5t27 28.5l19 -2q-10 -20 -22.5 -42 t-24.5 -39q-63 4 -119 7q-40 -144 -61.5 -246.5t-21.5 -145.5q0 -16 4 -26.5t16 -10.5q13 0 29.5 15.5t34.5 39t34 47.5l8 -5q-13 -28 -32 -60t-42 -54.5t-48 -22.5q-28 0 -39.5 18.5t-11.5 46.5q0 31 8.5 79t22 104.5t29.5 114t30 108.5q-47 2 -90 3.5t-83 2.5 q-29 -110 -57 -197.5t-49.5 -145t-31.5 -77.5z" />
<glyph unicode="&#x1e0c;" horiz-adv-x="644" d="M303 565l-94 -445l-19 -88h67q84 0 150 32.5t112 88.5t70 127t24 147q0 103 -58 164.5t-176 61.5h-58zM290 -212q-13 0 -21 8.5t-8 22.5q0 25 12.5 42t31.5 17q13 0 21 -8t8 -22q0 -25 -12.5 -42.5t-31.5 -17.5zM254 0h-198l-2 20l67 13q17 3 24 9.5t10 20.5l12 57 l94 445l17 81l-84 19l4 20h192q84 0 144 -31.5t92 -88.5t32 -135q0 -81 -27 -157.5t-79 -138t-127 -98t-171 -36.5z" />
<glyph unicode="&#x1e0d;" horiz-adv-x="465" d="M357 120q-4 -22 -7 -37.5t-3 -25.5q0 -12 4 -19.5t14 -7.5q13 0 29.5 15.5t34.5 39t34 47.5l8 -5q-13 -28 -32 -60t-42 -54.5t-48 -22.5q-23 0 -33 15.5t-10 40.5q0 13 3 31t8 43l32 142q-19 -40 -44 -87t-54 -89t-60 -69t-61 -27q-28 0 -47 28t-19 82q0 80 24 153 t64.5 130t91.5 89.5t106 32.5q26 0 52 -7l30 136l16 72l-95 11v10q28 8 67 15t68 12l8 -8l-24 -112zM142 30q18 0 41 20.5t47.5 54t48.5 74t44.5 80t34.5 72t18 50.5l17 78q-18 9 -34 12.5t-39 3.5q-38 0 -76 -30t-69 -82t-50 -119.5t-19 -142.5q0 -31 9.5 -51t26.5 -20z M206 -212q-13 0 -21 8.5t-8 22.5q0 25 12.5 42t31.5 17q13 0 21 -8t8 -22q0 -25 -12.5 -42.5t-31.5 -17.5z" />
<glyph unicode="&#x1e24;" horiz-adv-x="738" d="M191 39l85 -19l-4 -20h-216l-2 20l67 13q16 3 23 9.5t10 20.5l13 57l94 445l18 81l-85 19l4 20h216l2 -20l-67 -13q-16 -3 -23 -9.5t-10 -20.5l-13 -57l-42 -200h346l42 200l18 81l-85 19l4 20h216l2 -20l-67 -13q-16 -3 -23 -9.5t-10 -20.5l-13 -57l-94 -445l-18 -81 l85 -19l-4 -20h-216l-2 20l67 13q16 3 23 9.5t10 20.5l13 57l44 210h-346l-44 -210zM324 -212q-13 0 -21 8.5t-8 22.5q0 25 12.5 42t31.5 17q13 0 21 -8t8 -22q0 -25 -12.5 -42.5t-31.5 -17.5z" />
<glyph unicode="&#x1e25;" horiz-adv-x="473" d="M78 11l24 109l113 515l16 72l-75 11v10q28 8 57 15t58 12l8 -8l-24 -112q-21 -96 -43 -192.5t-45 -192.5q67 135 117.5 195t95.5 60q29 0 42.5 -21t13.5 -50q0 -24 -7.5 -62t-19.5 -82.5l-24 -89t-21 -80.5q-4 -22 -7 -37.5t-3 -25.5q0 -12 4 -19.5t14 -7.5 q13 0 29.5 15.5t34.5 39t34 47.5l8 -5q-13 -28 -32 -60t-42 -54.5t-48 -22.5q-23 0 -33 15.5t-10 40.5q0 13 3 31t8 43q8 37 20 81t24 87.5t20 80t8 57.5q0 17 -7 28t-24 11q-21 0 -45.5 -22.5t-49.5 -58.5t-48 -77t-41 -79t-29 -64l-10 -44l-26 -123l-16 -4q-3 -1 -8 -2 t-9 -1q-7 0 -6.5 7t1.5 14zM193 -212q-13 0 -21 8.5t-8 22.5q0 25 12.5 42t31.5 17q13 0 21 -8t8 -22q0 -25 -12.5 -42.5t-31.5 -17.5z" />
<glyph unicode="&#x1e44;" horiz-adv-x="720" d="M563 844q0 -20 -14 -36t-33 -16q-32 0 -32 32q0 20 14 35t33 15q32 0 32 -30zM184 39l105 -19l-4 -20h-229l-2 20l67 13q17 3 23.5 9.5t9.5 20.5l13 57l111 526l-84 19l4 20h119l241 -607l103 487l18 81l-85 19l4 20h209l2 -20l-67 -13q-17 -3 -23.5 -9.5t-9.5 -20.5 l-13 -57l-120 -565h-30l-242 605l-102 -485z" />
<glyph unicode="&#x1e45;" horiz-adv-x="505" d="M383 618q-13 0 -21 8.5t-8 22.5q0 25 12.5 42t31.5 17q13 0 21 -8t8 -22q0 -25 -12.5 -42.5t-31.5 -17.5zM110 11l24 109q14 64 28 127.5t28 127.5q10 43 10 63q0 12 -3.5 19.5t-14.5 7.5q-12 0 -29 -15.5t-34.5 -38.5t-34.5 -48l-8 5q13 29 32 60.5t42.5 54t47.5 22.5 q23 0 33 -15.5t10 -40.5q0 -23 -11.5 -76t-24.5 -115q17 33 39.5 75.5t49.5 81.5t57 64.5t61 25.5q29 0 42.5 -21t13.5 -50q0 -24 -7.5 -62t-19.5 -82.5l-24 -89t-21 -80.5q-4 -22 -7 -37.5t-3 -25.5q0 -12 4 -19.5t14 -7.5q13 0 29.5 15.5t34.5 39t34 47.5l8 -5 q-13 -28 -32 -60t-42 -54.5t-48 -22.5q-23 0 -33 15.5t-10 40.5q0 13 3 31t8 43q8 37 20 81t24 87.5t20 80t8 57.5q0 17 -7 28t-24 11q-21 0 -45 -22t-48.5 -58t-47.5 -76.5t-41.5 -78.5t-29.5 -64l-11 -46l-26 -123l-16 -4q-3 -1 -8 -2t-9 -1q-7 0 -6.5 7t1.5 14z" />
<glyph unicode="&#x1e5a;" horiz-adv-x="595" d="M303 565l-51 -240l2 8h62q78 0 127 28.5t72.5 73.5t23.5 92q0 59 -40.5 91t-111.5 32h-66zM307 -212q-13 0 -21 8.5t-8 22.5q0 25 12.5 42t31.5 17q13 0 21 -8t8 -22q0 -25 -12.5 -42.5t-31.5 -17.5zM191 39l85 -19l-4 -20h-216l-2 20l67 13q16 3 23 9.5t10 20.5l13 57 l94 445l17 81l-84 19l4 20h191q92 0 143.5 -40.5t51.5 -114.5q0 -80 -47 -136t-122 -79l70 -215q13 -40 29.5 -52.5t45.5 -20.5l27 -7l-4 -20h-41q-43 0 -62 17.5t-30 52.5l-75 235q-29 -5 -61 -5h-67l-38 -180z" />
<glyph unicode="&#x1e5b;" horiz-adv-x="380" d="M110 11l24 109q24 107 37 169t19.5 92t8 41t1.5 16q0 12 -3.5 19.5t-14.5 7.5q-12 0 -29 -15.5t-34.5 -38.5t-34.5 -48l-8 5q13 29 32 60.5t42.5 54t47.5 22.5q23 0 33 -15.5t10 -40.5q0 -19 -9.5 -67.5t-23.5 -106.5q18 38 38.5 78t44 74.5t50 56t54.5 21.5 q23 0 36 -11.5t13 -26.5q0 -13 -6 -22.5t-11 -14.5q-9 11 -21 20.5t-28 9.5q-21 0 -46.5 -26.5t-50.5 -67t-46 -83.5t-35 -77t-17 -46l-9 -40l-26 -123l-16 -4q-3 -1 -8 -2t-9 -1q-7 0 -6.5 7t1.5 14zM91 -212q-13 0 -21 8.5t-8 22.5q0 25 12.5 42t31.5 17q13 0 21 -8t8 -22 q0 -25 -12.5 -42.5t-31.5 -17.5z" />
<glyph unicode="&#x1e62;" horiz-adv-x="434" d="M197 -10q-36 0 -68.5 6.5t-53 15.5t-24.5 18q-3 8 -3 18q0 23 8 56t21 64h16q-1 -12 -1 -22.5v-19.5q0 -30 3.5 -45t11.5 -26q15 -19 42 -25.5t56 -6.5q50 0 86.5 22.5t56.5 58.5t20 75q0 37 -16 65.5t-41.5 52.5t-53.5 47t-53.5 48t-41.5 55.5t-16 70.5q0 51 28 91 t74.5 63t100.5 23q57 0 91 -12.5t42 -24.5q2 -4 2 -9q0 -13 -4.5 -36t-11.5 -48t-15 -45h-16q1 14 1.5 26.5t0.5 22.5q0 48 -13 64q-23 27 -85 27q-43 0 -77 -19t-53.5 -50.5t-19.5 -69.5q0 -40 22.5 -71.5t55.5 -59t66 -56.5t55.5 -65.5t22.5 -85.5t-25.5 -93t-73.5 -72 t-117 -28zM185 -212q-13 0 -21 8.5t-8 22.5q0 25 12.5 42t31.5 17q13 0 21 -8t8 -22q0 -25 -12.5 -42.5t-31.5 -17.5z" />
<glyph unicode="&#x1e63;" horiz-adv-x="354" d="M322 127q0 -58 -40.5 -97.5t-105.5 -39.5q-53 0 -88 28t-35 71q0 30 15 53.5t34 38.5l7 -5q-8 -18 -13 -36.5t-5 -39.5q0 -37 26.5 -58.5t66.5 -21.5t68 24.5t28 70.5q0 31 -15.5 56.5t-38 48.5t-45.5 47t-38.5 51.5t-15.5 63.5q0 35 17.5 62.5t47.5 44t67 16.5 q50 0 79.5 -25t29.5 -60q0 -29 -12.5 -54.5t-29.5 -42.5l-8 6q12 41 12 68q0 40 -19.5 60t-54.5 20q-36 0 -61.5 -25t-25.5 -65q0 -31 15.5 -57t38.5 -49.5t45.5 -47t38 -49.5t15.5 -57zM131 -212q-13 0 -21 8.5t-8 22.5q0 25 12.5 42t31.5 17q13 0 21 -8t8 -22 q0 -25 -12.5 -42.5t-31.5 -17.5z" />
<glyph unicode="&#x1e6c;" horiz-adv-x="543" d="M288 39l85 -19l-4 -20h-216l-2 20l67 13q16 3 23 9.5t10 20.5l13 57l113 533h-74q-33 0 -66 -2.5t-56 -7.5q-8 -16 -16 -34.5t-21 -49.5l-16 -39h-15q5 41 15 86t23 79h508q-1 -34 -11 -81t-21 -84h-15v39v48.5t-1 35.5q-21 5 -53 7.5t-65 2.5h-74l-113 -533zM228 -212 q-13 0 -21 8.5t-8 22.5q0 25 12.5 42t31.5 17q13 0 21 -8t8 -22q0 -25 -12.5 -42.5t-31.5 -17.5z" />
<glyph unicode="&#x1e6d;" horiz-adv-x="324" d="M180 -10q-32 0 -50.5 24t-18.5 67q0 14 1.5 31.5t5.5 35.5l67 312h-87l2 12l91 18l59 149l13 -1l-32 -148h155l-6 -30h-155l-67 -312q-7 -32 -7 -62q0 -61 44 -61q32 0 69.5 29t77.5 78l8 -5q-32 -57 -76 -97t-94 -40zM161 -212q-13 0 -21 8.5t-8 22.5q0 25 12.5 42 t31.5 17q13 0 21 -8t8 -22q0 -25 -12.5 -42.5t-31.5 -17.5z" />
<glyph unicode="&#x1e80;" horiz-adv-x="985" d="M730 795l-11 -16q-19 3 -52 11.5t-67 21t-57.5 27.5t-22.5 30q0 12 9.5 19t17.5 10l6 -1q15 -15 42.5 -33.5t63 -36.5t71.5 -32zM318 0h-23l-67 616q-2 17 -8 25t-20 11l-57 13l2 20h205l4 -20l-89 -19l61 -564l256 466l-9 68q-2 17 -8 25t-20 11l-57 13l2 20h205l4 -20 l-89 -19l70 -564l300 564l-83 19l4 20h200l2 -20l-55 -13q-31 -7 -46 -36l-329 -616h-23l-61 491z" />
<glyph unicode="&#x1e81;" horiz-adv-x="608" d="M492 592l-13 -11q-30 25 -63.5 53.5t-55 54.5t-18.5 43q2 10 11.5 16.5t25.5 6.5h4l5 -2q11 -31 40.5 -74.5t63.5 -86.5zM393 390v9v7q-20 -68 -54.5 -140t-80.5 -140.5t-99 -125.5h-10q11 138 18 235.5t7 154.5q0 75 -32 75q-21 0 -47.5 -31t-53.5 -71l-8 5 q15 32 34 63.5t41.5 52.5t47.5 21q29 0 43 -28.5t14 -81.5q0 -36 -3 -91.5t-8.5 -117t-11.5 -115.5q60 80 101 158t63.5 148t28.5 125q8 3 17 3q18 0 25 -18.5t7 -76.5q0 -40 -3 -98t-8.5 -121.5t-11.5 -119.5q52 68 96.5 142.5t71.5 145t27 126.5v15q8 5 19 5q12 0 20 -7.5 t8 -22.5q0 -25 -15.5 -67.5t-43 -95.5t-62.5 -109.5t-74 -109t-78 -93.5h-10q11 138 18 235.5t7 154.5z" />
<glyph unicode="&#x1e82;" horiz-adv-x="985" d="M722 896l7 1q7 -1 16.5 -7.5t9.5 -18.5q0 -13 -23 -27t-59.5 -26.5t-77 -23t-76.5 -16.5l-5 16q66 28 120.5 52.5t87.5 49.5zM318 0h-23l-67 616q-2 17 -8 25t-20 11l-57 13l2 20h205l4 -20l-89 -19l61 -564l256 466l-9 68q-2 17 -8 25t-20 11l-57 13l2 20h205l4 -20 l-89 -19l70 -564l300 564l-83 19l4 20h200l2 -20l-55 -13q-31 -7 -46 -36l-329 -616h-23l-61 491z" />
<glyph unicode="&#x1e83;" horiz-adv-x="608" d="M500 754l6 2h4q27 0 27 -20q0 -15 -19.5 -34.5t-50.5 -41t-66.5 -42t-66.5 -37.5l-9 15q36 27 70 56t62 55.5t43 46.5zM393 390v9v7q-20 -68 -54.5 -140t-80.5 -140.5t-99 -125.5h-10q11 138 18 235.5t7 154.5q0 75 -32 75q-21 0 -47.5 -31t-53.5 -71l-8 5q15 32 34 63.5 t41.5 52.5t47.5 21q29 0 43 -28.5t14 -81.5q0 -36 -3 -91.5t-8.5 -117t-11.5 -115.5q60 80 101 158t63.5 148t28.5 125q8 3 17 3q18 0 25 -18.5t7 -76.5q0 -40 -3 -98t-8.5 -121.5t-11.5 -119.5q52 68 96.5 142.5t71.5 145t27 126.5v15q8 5 19 5q12 0 20 -7.5t8 -22.5 q0 -25 -15.5 -67.5t-43 -95.5t-62.5 -109.5t-74 -109t-78 -93.5h-10q11 138 18 235.5t7 154.5z" />
<glyph unicode="&#x1e84;" horiz-adv-x="985" d="M755 847q0 -22 -13 -38.5t-31 -16.5q-14 0 -23 8t-9 23q0 19 12.5 36.5t32.5 17.5q31 0 31 -30zM565 847q0 -22 -13 -38.5t-31 -16.5q-14 0 -23 8t-9 23q0 19 12.5 36.5t32.5 17.5q31 0 31 -30zM318 0h-23l-67 616q-2 17 -8 25t-20 11l-57 13l2 20h205l4 -20l-89 -19 l61 -564l256 466l-9 68q-2 17 -8 25t-20 11l-57 13l2 20h205l4 -20l-89 -19l70 -564l300 564l-83 19l4 20h200l2 -20l-55 -13q-31 -7 -46 -36l-329 -616h-23l-61 491z" />
<glyph unicode="&#x1e85;" horiz-adv-x="608" d="M554 678q0 -22 -12 -39.5t-29 -17.5q-13 0 -21 8.5t-8 24.5q0 20 11.5 38t30.5 18q14 0 21 -9t7 -23zM364 678q0 -22 -12 -39.5t-29 -17.5q-13 0 -21 8.5t-8 24.5q0 20 11.5 38t30.5 18q14 0 21 -9t7 -23zM393 390v9v7q-20 -68 -54.5 -140t-80.5 -140.5t-99 -125.5h-10 q11 138 18 235.5t7 154.5q0 75 -32 75q-21 0 -47.5 -31t-53.5 -71l-8 5q15 32 34 63.5t41.5 52.5t47.5 21q29 0 43 -28.5t14 -81.5q0 -36 -3 -91.5t-8.5 -117t-11.5 -115.5q60 80 101 158t63.5 148t28.5 125q8 3 17 3q18 0 25 -18.5t7 -76.5q0 -40 -3 -98t-8.5 -121.5 t-11.5 -119.5q52 68 96.5 142.5t71.5 145t27 126.5v15q8 5 19 5q12 0 20 -7.5t8 -22.5q0 -25 -15.5 -67.5t-43 -95.5t-62.5 -109.5t-74 -109t-78 -93.5h-10q11 138 18 235.5t7 154.5z" />
<glyph unicode="&#x1e92;" horiz-adv-x="562" d="M479 0h-420l1 30l507 625h-203q-31 0 -62 -1.5t-53 -3.5l-60 -130h-15q3 42 12.5 86.5t22.5 78.5h411l-2 -30l-506 -625h213q31 0 62 1.5t52 3.5l62 130h15q-4 -40 -14.5 -84.5t-22.5 -80.5zM247 -212q-13 0 -21 8.5t-8 22.5q0 25 12.5 42t31.5 17q13 0 21 -8t8 -22 q0 -25 -12.5 -42.5t-31.5 -17.5z" />
<glyph unicode="&#x1e93;" horiz-adv-x="387" d="M119 20q-40 0 -70 -30l-18 18q55 73 105.5 138.5t100 130.5t100.5 139q-39 19 -81 32.5t-64 13.5q-28 0 -48 -25.5t-46 -73.5l-10 5q15 42 26 72.5t26 47.5t39 17q34 0 81.5 -21.5t89.5 -48.5q24 35 47 70q14 -3 19 -10.5t5 -15.5q0 -10 -4.5 -18t-12.5 -20 q-51 -71 -100 -134t-101 -127.5t-112 -139.5q25 10 53 10q14 0 42 -5l56 -10t42 -5t24.5 11t23.5 30q9 13 19 28t21 33l8 -5q-6 -16 -13 -34t-15 -34q-14 -30 -28 -49.5t-35 -19.5t-52.5 7.5l-63 15t-54.5 7.5zM159 -212q-13 0 -21 8.5t-8 22.5q0 25 12.5 42t31.5 17 q13 0 21 -8t8 -22q0 -25 -12.5 -42.5t-31.5 -17.5z" />
<glyph unicode="&#x1e9e;" horiz-adv-x="622" d="M621 162q0 -79 -52 -125.5t-141 -46.5q-37 0 -72.5 11t-52.5 28q-4 4 -4.5 9t-0.5 9q0 20 8.5 54.5t20.5 61.5h16q-1 -34 0.5 -61t9.5 -41q21 -38 85 -38t101 37t37 98q0 46 -25 80.5t-64.5 66t-85.5 68.5l2 20l204 200q-46 69 -127 69q-68 0 -121.5 -45t-70.5 -122 l-101 -478l-18 -17h-111l2 20l61 13q17 4 24 10t10 20l90 426q12 59 48 105.5t89.5 73.5t115.5 27q106 0 155 -78l-1 -22l-206 -202q41 -33 81 -66.5t67 -73t27 -91.5z" />
<glyph unicode="&#x1ea0;" horiz-adv-x="649" d="M444 687h23l76 -618q2 -17 8 -25t20 -11l57 -13l-2 -20h-205l-4 20l89 19l-26 216l-237 -4l-116 -212l82 -19l-4 -20h-200l-2 20l55 13q17 4 27 12t19 24zM261 285h215l-40 321zM276 -212q-13 0 -21 8.5t-8 22.5q0 25 12.5 42t31.5 17q13 0 21 -8t8 -22 q0 -25 -12.5 -42.5t-31.5 -17.5z" />
<glyph unicode="&#x1ea1;" horiz-adv-x="465" d="M357 120q-4 -22 -7 -37.5t-3 -25.5q0 -12 4 -19.5t14 -7.5q13 0 29.5 15.5t34.5 39t34 47.5l8 -5q-13 -28 -32 -60t-42 -54.5t-48 -22.5q-23 0 -33 15.5t-10 40.5q0 13 3 31t8 43l31 140q-19 -40 -44 -86.5t-54 -88.5t-59.5 -68.5t-60.5 -26.5q-28 0 -47 28t-19 82 q0 80 24 153t64.5 130t91.5 89.5t106 32.5q26 0 49 -6t39 -14zM106 101q0 -31 9.5 -51t26.5 -20q20 0 46.5 26t55 67t54.5 87.5t45.5 88.5t28.5 68l20 92q-17 9 -33 12.5t-39 3.5q-38 0 -76 -30t-69 -82t-50 -119.5t-19 -142.5zM196 -212q-13 0 -21 8.5t-8 22.5 q0 25 12.5 42t31.5 17q13 0 21 -8t8 -22q0 -25 -12.5 -42.5t-31.5 -17.5z" />
<glyph unicode="&#x1eb8;" horiz-adv-x="564" d="M303 565l-43 -205l213 5l-9 -39l-210 5l-45 -211l-19 -90h148q31 0 62.5 1.5t51.5 3.5q16 32 31 65t31 65h15q-3 -23 -8.5 -52.5t-13 -59.5t-16.5 -53h-435l-2 20l67 13q17 3 24 9.5t10 20.5l12 57l94 445l17 81l-84 19l4 20h408q-1 -34 -11 -79.5t-21 -85.5h-15 q-1 32 -3 65t-4 65q-19 2 -50 3.5t-62 1.5h-118zM273 -212q-13 0 -21 8.5t-8 22.5q0 25 12.5 42t31.5 17q13 0 21 -8t8 -22q0 -25 -12.5 -42.5t-31.5 -17.5z" />
<glyph unicode="&#x1eb9;" horiz-adv-x="348" d="M341 127q-32 -57 -74.5 -97t-91.5 -40q-52 0 -77 42.5t-25 117.5q0 65 20 128t54 114t76 82t85 31q37 0 55 -21t18 -56q0 -42 -24 -76.5t-62.5 -60t-83.5 -40t-87 -17.5q-9 -44 -9 -86q0 -55 18 -89t55 -34q32 0 68.5 29t76.5 78zM297 473q-35 0 -68 -29.5t-59 -78 t-41 -106.5q60 6 107.5 30.5t75 60t27.5 76.5q0 20 -11 33.5t-31 13.5zM148 -212q-13 0 -21 8.5t-8 22.5q0 25 12.5 42t31.5 17q13 0 21 -8t8 -22q0 -25 -12.5 -42.5t-31.5 -17.5z" />
<glyph unicode="&#x1ebc;" horiz-adv-x="564" d="M358 848q-9 -3 -28 -19.5t-51 -48.5l-8 5q24 49 49 75.5t59 26.5q28 0 59.5 -15t61.5 -30t53 -15q10 3 29 20t50 48l8 -5q-23 -49 -48.5 -75.5t-60.5 -26.5q-20 0 -43 9t-46.5 21t-45 21t-38.5 9zM303 565l-43 -205l213 5l-9 -39l-210 5l-45 -211l-19 -90h148 q31 0 62.5 1.5t51.5 3.5q16 32 31 65t31 65h15q-3 -23 -8.5 -52.5t-13 -59.5t-16.5 -53h-435l-2 20l67 13q17 3 24 9.5t10 20.5l12 57l94 445l17 81l-84 19l4 20h408q-1 -34 -11 -79.5t-21 -85.5h-15q-1 32 -3 65t-4 65q-19 2 -50 3.5t-62 1.5h-118z" />
<glyph unicode="&#x1ebd;" horiz-adv-x="348" d="M231 689q-8 -3 -24.5 -20.5t-44.5 -49.5l-8 5q22 48 46.5 74t56.5 26q26 0 53 -15t51.5 -29.5t44.5 -15.5q8 3 24.5 20.5t44.5 49.5l8 -5q-22 -48 -46.5 -74t-56.5 -26q-26 0 -54 15t-52.5 30t-42.5 15zM341 127q-32 -57 -74.5 -97t-91.5 -40q-52 0 -77 42.5t-25 117.5 q0 65 20 128t54 114t76 82t85 31q37 0 55 -21t18 -56q0 -42 -24 -76.5t-62.5 -60t-83.5 -40t-87 -17.5q-9 -44 -9 -86q0 -55 18 -89t55 -34q32 0 68.5 29t76.5 78zM297 473q-35 0 -68 -29.5t-59 -78t-41 -106.5q60 6 107.5 30.5t75 60t27.5 76.5q0 20 -11 33.5t-31 13.5z " />
<glyph unicode="&#x1eca;" horiz-adv-x="350" d="M191 39l85 -19l-4 -20h-216l-2 20l67 13q16 3 23 9.5t10 20.5l13 57l94 445l18 81l-85 19l4 20h216l2 -20l-67 -13q-16 -3 -23 -9.5t-10 -20.5l-13 -57l-94 -445zM119 -212q-13 0 -21 8.5t-8 22.5q0 25 12.5 42t31.5 17q13 0 21 -8t8 -22q0 -25 -12.5 -42.5t-31.5 -17.5z " />
<glyph unicode="&#x1ecb;" horiz-adv-x="278" d="M256 618q-13 0 -21 8.5t-8 22.5q0 25 12.5 42t31.5 17q13 0 21 -8t8 -22q0 -25 -12.5 -42.5t-31.5 -17.5zM169 120q-4 -22 -7 -37.5t-3 -25.5q0 -12 4 -19.5t14 -7.5q13 0 29.5 15.5t34.5 39t34 47.5l8 -5q-13 -28 -32 -60t-42 -54.5t-48 -22.5q-23 0 -33 15.5t-10 40.5 q0 13 3 31t8 43q8 38 19 83l22 90t20 82q5 23 7.5 38t2.5 25q0 12 -3.5 19.5t-14.5 7.5q-12 0 -29 -15.5t-34.5 -38.5t-34.5 -48l-8 5q13 29 32 60.5t42.5 54t47.5 22.5q23 0 33 -15.5t10 -40.5q0 -13 -3 -30.5t-8 -43.5q-8 -39 -19.5 -84.5t-22.5 -89.5t-19 -81zM110 -212 q-13 0 -21 8.5t-8 22.5q0 25 12.5 42t31.5 17q13 0 21 -8t8 -22q0 -25 -12.5 -42.5t-31.5 -17.5z" />
<glyph unicode="&#x1ecc;" horiz-adv-x="575" d="M593 454q0 -55 -13.5 -118t-39 -124t-62.5 -111.5t-85.5 -80.5t-106.5 -30q-83 0 -132.5 65t-49.5 174q0 60 14 125t40.5 125.5t64.5 109.5t87 77.5t107 28.5q81 0 128.5 -64t47.5 -177zM149 235q0 -61 16 -108.5t48.5 -74.5t80.5 -27t87.5 26.5t70.5 71.5t52.5 101 t32.5 116t11 115q0 92 -32.5 148.5t-106.5 56.5q-48 0 -88 -26t-72 -70t-54.5 -99.5t-34 -114.5t-11.5 -115zM237 -212q-13 0 -21 8.5t-8 22.5q0 25 12.5 42t31.5 17q13 0 21 -8t8 -22q0 -25 -12.5 -42.5t-31.5 -17.5z" />
<glyph unicode="&#x1ecd;" horiz-adv-x="394" d="M397 335q0 -71 -17 -133.5t-46.5 -110t-67 -74.5t-77.5 -27q-51 0 -81.5 48.5t-30.5 124.5q0 67 17.5 128.5t47.5 109.5t67.5 76t77.5 28q55 0 82.5 -46t27.5 -124zM119 169q0 -68 21 -107.5t56 -39.5q33 0 62 26t51 70.5t34 100.5t12 117q0 59 -16.5 98t-56.5 39 q-33 0 -62.5 -27t-52 -71.5t-35.5 -98.5t-13 -107zM150 -212q-13 0 -21 8.5t-8 22.5q0 25 12.5 42t31.5 17q13 0 21 -8t8 -22q0 -25 -12.5 -42.5t-31.5 -17.5z" />
<glyph unicode="&#x1ee4;" horiz-adv-x="660" d="M584 235q-27 -127 -93.5 -186t-155.5 -59q-79 0 -131 46.5t-52 130.5q0 17 2 36.5t6 41.5l68 320l18 81l-85 19l4 20h216l2 -20l-67 -13q-16 -3 -23 -9.5t-10 -20.5l-13 -57l-69 -323q-4 -18 -5.5 -35t-1.5 -33q0 -72 43 -110.5t107 -38.5q69 0 125 51t80 161l70 328 l18 81l-85 19l4 20h209l2 -20l-95 -19l-18 -81zM291 -212q-13 0 -21 8.5t-8 22.5q0 25 12.5 42t31.5 17q13 0 21 -8t8 -22q0 -25 -12.5 -42.5t-31.5 -17.5z" />
<glyph unicode="&#x1ee5;" horiz-adv-x="513" d="M405 120q-4 -22 -7 -37.5t-3 -25.5q0 -12 4 -19.5t14 -7.5q13 0 29.5 15.5t34.5 39t34 47.5l8 -5q-13 -28 -32 -60t-42 -54.5t-48 -22.5q-23 0 -33 15.5t-10 40.5q0 13 3 31t8 43l26 117q-9 -18 -25 -48t-36.5 -64t-45 -65t-50.5 -50.5t-52 -19.5q-28 0 -41.5 21.5 t-13.5 49.5q0 24 7.5 62t19.5 82.5l24 89t21 80.5q5 23 7.5 38t2.5 25q0 12 -3.5 19.5t-14.5 7.5q-12 0 -29 -15.5t-34.5 -38.5t-34.5 -48l-8 5q13 29 32 60.5t42.5 54t47.5 22.5q23 0 33 -15.5t10 -40.5q0 -13 -3 -30.5t-8 -43.5q-8 -37 -20 -81l-24 -88t-20 -80t-8 -57 q0 -17 6.5 -28t20.5 -11q19 0 43.5 22.5t50.5 58t50 76.5t43 79t30 65l10 44l26 123l16 4q3 1 8 2t9 1q8 0 7.5 -6.5t-2.5 -14.5l-24 -109zM241 -211q-13 0 -21 8.5t-8 22.5q0 25 12.5 42t31.5 17q13 0 21 -8t8 -22q0 -25 -12.5 -42.5t-31.5 -17.5z" />
<glyph unicode="&#x1ef2;" horiz-adv-x="614" d="M550 795l-11 -16q-19 3 -52 11.5t-67 21t-57.5 27.5t-22.5 30q0 12 9.5 19t17.5 10l6 -1q15 -15 42.5 -33.5t63 -36.5t71.5 -32zM324 39l85 -19l-4 -20h-216l-2 20l67 13q16 3 23 9.5t10 20.5l13 57l13 60q10 47 9 108.5t-11 125.5t-26 119t-35.5 88.5t-39.5 33.5 q-19 0 -43.5 -32t-46.5 -70l-13 5q13 33 30.5 64.5t39 52t47.5 20.5q27 0 51.5 -34t43.5 -91.5t30.5 -128.5t12.5 -144q37 76 76.5 147t78 128t74 90t63.5 33q23 0 37.5 -20t22 -50t8.5 -62l-13 -5q-10 42 -24 69.5t-36 27.5q-15 0 -40 -24.5t-55.5 -65.5t-62 -92 t-59.5 -104.5t-48.5 -102.5t-28.5 -86l-13 -60z" />
<glyph unicode="&#x1ef3;" horiz-adv-x="385" d="M350 592l-13 -11q-30 25 -63.5 53.5t-55 54.5t-18.5 43q2 10 11.5 16.5t25.5 6.5h4l5 -2q11 -31 40.5 -74.5t63.5 -86.5zM148 505q70 0 70 -165q0 -62 -13 -149.5t-39 -173.5q95 86 150 197t55 232q0 36 -4 53q6 6 17 6q33 0 33 -57q0 -49 -17 -109.5t-50.5 -125 t-83 -126.5t-114.5 -114q-22 -63 -51.5 -114.5t-67 -82.5t-82.5 -31q-33 0 -52.5 15t-19.5 35q0 11 5 18.5t12 11.5q13 -19 30 -30.5t41 -11.5q40 0 69.5 29.5t52 78.5t38.5 107q18 61 28.5 125t15.5 120t5 92q0 68 -12 99t-29 31q-19 0 -41.5 -31t-46.5 -71l-8 5 q12 32 29 63.5t37.5 52.5t42.5 21z" />
<glyph unicode="&#x1ef8;" horiz-adv-x="614" d="M349 849q-9 -3 -28 -19.5t-51 -48.5l-8 5q24 49 49 75.5t59 26.5q28 0 59.5 -15t61.5 -30t53 -15q10 3 29 20t50 48l8 -5q-23 -49 -48.5 -75.5t-60.5 -26.5q-20 0 -43 9t-46.5 21t-45 21t-38.5 9zM324 39l85 -19l-4 -20h-216l-2 20l67 13q16 3 23 9.5t10 20.5l13 57 l13 60q10 47 9 108.5t-11 125.5t-26 119t-35.5 88.5t-39.5 33.5q-19 0 -43.5 -32t-46.5 -70l-13 5q13 33 30.5 64.5t39 52t47.5 20.5q27 0 51.5 -34t43.5 -91.5t30.5 -128.5t12.5 -144q37 76 76.5 147t78 128t74 90t63.5 33q23 0 37.5 -20t22 -50t8.5 -62l-13 -5 q-10 42 -24 69.5t-36 27.5q-15 0 -40 -24.5t-55.5 -65.5t-62 -92t-59.5 -104.5t-48.5 -102.5t-28.5 -86l-13 -60z" />
</font>
</defs>
</svg>
