<?xml version="1.0" standalone="no"?>
<!DOCTYPE svg PUBLIC "-//W3C//DTD SVG 1.1//EN" "http://www.w3.org/Graphics/SVG/1.1/DTD/svg11.dtd" >
<svg xmlns="http://www.w3.org/2000/svg" xmlns:xlink="http://www.w3.org/1999/xlink" version="1.1">
<metadata></metadata>
<defs>
<font id="indivisa_text_sansregular" horiz-adv-x="575" >
<font-face units-per-em="1000" ascent="800" descent="-200" />
<missing-glyph horiz-adv-x="258" />
<glyph unicode="&#x2f;symbol&#x31;&#x2f;" horiz-adv-x="5534" d="M1865 412q-25 0 -40.5 14.5t-15.5 37.5q0 24 15.5 45t39 34.5t48.5 13.5q24 0 39 -13.5t15 -37.5t-14.5 -45.5t-37.5 -35t-49 -13.5zM1284 412q-26 0 -41.5 14.5t-15.5 37.5q0 24 15.5 45t39.5 34.5t49 13.5q24 0 38.5 -13.5t14.5 -37.5t-14.5 -45.5t-37 -35t-48.5 -13.5 zM959 0q0 21 2.5 46.5t8.5 61.5q-16 -49 -51 -82t-79 -33q-41 0 -63 30t-22 82q0 45 15.5 91t46.5 85.5t76.5 63.5t104.5 24h12.5t12.5 -1l16 73l6 102l136 7q0 -40 -9.5 -95t-23 -116.5t-27 -123.5t-23 -117.5t-9.5 -97.5h-130zM100 0l78 364q8 38 13.5 72.5t7.5 63.5 l128 7l11 -15l-104 -492h-134zM3503 492l-57 -492h-131l20 175q3 30 9 69t12.5 78t11.5 68h-3q-16 -53 -37 -107.5t-44 -107.5l-76 -175h-149l-2 175q-1 56 1 109t8 106h-2q-15 -61 -30 -115.5t-29 -99.5l-53 -175h-109l154 500l184 6l1 -137q1 -50 -2.5 -121.5 t-12.5 -137.5h2q20 65 36 111t30.5 81t27.5 67l56 131l169 7zM5316 300q-15 -74 -23 -110.5t-11 -51t-3 -21.5q0 -34 36 -34q13 0 28 5t31 13l-9 -79q-20 -11 -50 -20t-64 -9q-50 0 -77.5 25t-27.5 75q0 11 1.5 23.5t6 33.5t12.5 57.5t20 95.5l-47 1l9 44l54 14l53 95l81 6 l13 -15l-20 -86h99l6 -14l-17 -51zM336 0q0 28 4 62t13 82t24 116l6 102l137 7q0 -18 -2 -41t-5 -48h2q29 49 65.5 69t68.5 20q35 0 53.5 -19.5t18.5 -51.5q0 -23 -8 -62.5t-18 -84.5q-7 -33 -11 -57t-5.5 -45.5t-1.5 -48.5h-131q0 38 4.5 69.5t14.5 80.5q7 35 11 55.5 t4 31.5q0 24 -17 24t-34 -22.5t-30.5 -60.5t-22 -84t-9.5 -94h-131zM1170 0q0 39 7 87.5t20 105.5l14 67l6 102l137 7q0 -36 -8 -81.5t-19 -95.5t-19 -99t-8 -93h-130zM1399 362l140 7q6 -59 4.5 -137.5t-9.5 -151.5h2q23 45 42 95t32 99t17 90q17 4 28.5 4.5t21.5 0.5 q28 0 46.5 -7t18.5 -35q0 -22 -13.5 -60.5t-36.5 -85t-53.5 -94t-63.5 -87.5h-149q-2 111 -9.5 207.5t-17.5 154.5zM1752 0q0 39 7 87.5t19 105.5l15 67l6 102l137 7q0 -36 -8 -81.5t-19 -95.5t-19 -99t-8 -93h-130zM4716 0q0 28 4 62t13 82t24 116l6 102l137 7 q0 -18 -2.5 -41t-4.5 -48h2q29 49 65 69t69 20q35 0 53.5 -19.5t18.5 -51.5q0 -23 -8 -62.5t-18 -84.5q-7 -33 -11 -57t-6 -45.5t-2 -48.5h-130q0 38 4.5 69.5t14.5 80.5q7 35 11 55.5t4 31.5q0 24 -17 24q-18 0 -34.5 -22.5t-30.5 -60.5t-22.5 -84t-9.5 -94h-130zM2245 256 q-25 14 -51.5 22t-45.5 8q-17 0 -29.5 -7t-12.5 -19q0 -13 13 -22t32 -17.5t38 -20.5t32 -30.5t13 -47.5q0 -39 -25 -68t-66.5 -45t-89.5 -16q-33 0 -66.5 7.5t-51.5 20.5l27 93q27 -18 58.5 -28t52.5 -10q20 0 30 8t10 18q0 13 -13 22t-32 18t-38 21t-32 30t-13 46 q0 39 25.5 68t67.5 45.5t90 16.5q20 0 48.5 -3.5t55.5 -14.5zM2525 369q32 0 73.5 -7.5t72.5 -24.5l-29 -128q-20 -94 -25.5 -140.5t-5.5 -68.5h-130q0 20 2.5 45t9.5 67q-15 -50 -50.5 -84.5t-81.5 -34.5q-41 0 -62.5 30t-21.5 83q0 44 15.5 90.5t46.5 85.5t77.5 63 t108.5 24zM4653 51q-32 -28 -74 -43t-85 -15q-62 0 -102 33.5t-40 103.5q0 46 17.5 88.5t49.5 76.5t75 54t94 20q53 0 86 -23t33 -65q0 -56 -59 -95.5t-162 -44.5v-1q0 -29 15 -46.5t48 -17.5q22 0 45 7.5t45 20.5zM3936 0q0 28 4 62t13.5 82t24.5 116l5 102l137 7 q0 -18 -2 -41t-5 -48h2q29 49 65.5 69t68.5 20q35 0 53.5 -19.5t18.5 -51.5q0 -23 -8 -62.5t-18 -84.5q-7 -33 -11 -57t-5.5 -45.5t-1.5 -48.5h-131q0 38 4.5 69.5t14.5 80.5q8 35 11.5 55.5t3.5 31.5q0 24 -17 24t-34 -22.5t-30.5 -60.5t-22 -84t-9.5 -94h-131zM3768 369 q32 0 73 -7.5t72 -24.5l-28 -128q-20 -94 -25.5 -140.5t-5.5 -68.5h-130q0 20 2.5 45t9.5 67q-15 -50 -50.5 -84.5t-81.5 -34.5q-41 0 -63 30t-22 83q0 44 15.5 90.5t47 85.5t78 63t108.5 24zM4490 177q46 10 72.5 33.5t26.5 59.5q0 17 -5.5 24t-16.5 7q-20 0 -36 -20 t-26 -48.5t-15 -55.5zM3677 101q17 0 33 21t30 54t22 69q2 11 4.5 22t4.5 22q-16 8 -27 8q-18 0 -34.5 -16t-29 -40.5t-20 -51.5t-7.5 -48q0 -40 24 -40zM913 101q16 0 31 19.5t28.5 50t22.5 64.5l4 20l4 20l3 14q-14 8 -27 8q-18 0 -34 -16t-28.5 -40.5t-20 -51.5t-7.5 -48 q0 -40 24 -40zM2435 101q16 0 32.5 21t30 54t21.5 69q2 11 4.5 22t4.5 22q-14 8 -27 8q-18 0 -34 -16t-29 -40.5t-20 -51.5t-7 -48q0 -40 24 -40z" />
<glyph unicode="&#x2f;symbol&#x32;&#x2f;" horiz-adv-x="932" d="M494 570l52 -90l-137 -240h-103l137 240l-52 90h103zM357 570l52 -90l-138 -240h-103l138 240l-52 90h103zM752 120h-103l-137 240l51 90l137 -240h103zM683 0h-103l-137 240l51 90l138 -240h103zM100 120l51 90h275l51 -90h-274l-52 -90zM168 0l52 90h274l52 -90h-275 l-51 -90zM789 88q18 0 30.5 -13t12.5 -31t-12.5 -31t-30.5 -13t-30.5 13t-12.5 31t12.5 31t30.5 13zM829 44q0 17 -11.5 28.5t-28.5 11.5q-16 0 -28 -11.5t-12 -28.5q0 -16 12 -28t28 -12q17 0 28.5 12t11.5 28zM771 69h18h5t6 -2q5 -4 5 -11q0 -5 -3 -8q-1 -2 -2.5 -2.5 t-3.5 -1.5q7 -1 8 -9q0 -8 3 -16h-8q-1 2 -1 6t-1 7q-1 5 -2.5 7.5t-8.5 2.5h-8v-23h-7v50zM778 47h10h3.5t3.5 1q3 3 3 7q0 6 -4 7t-6 1h-10v-16z" />
<glyph unicode="&#x2f;symbol&#x33;&#x2f;" horiz-adv-x="957" d="M505 638l68 -270h270l-203 -135l136 -270l-271 135l-270 -270l135 405l-270 203l338 -68zM814 87q18 0 30.5 -12.5t12.5 -31.5q0 -18 -12.5 -30.5t-30.5 -12.5t-30.5 12.5t-12.5 30.5q0 19 12.5 31.5t30.5 12.5zM854 43q0 17 -11.5 29t-28.5 12q-16 0 -28 -12t-12 -29 q0 -16 12 -28t28 -12q17 0 28.5 12t11.5 28zM796 68h18h5.5t5.5 -2q6 -3 6 -10q0 -5 -4 -9q-3 -3 -6 -3q7 -3 8 -10q1 -4 1.5 -7.5t1.5 -8.5h-7q-1 3 -1.5 7t-1.5 7q0 9 -10 9h-9v-23h-7v50zM803 47h10h3.5t3.5 1l2 2t1 4q0 7 -4 8t-6 1h-10v-16z" />
<glyph unicode="&#x2f;symbol&#x34;&#x2f;" horiz-adv-x="2607" d="M1684 406q0 32 -2.5 63t-8.5 65l126 14l15 -15v-533h-130v406zM1889 406q0 62 -10 128l126 14l14 -15v-533h-130v406zM427 101v-101h-320v362q0 38 -1.5 72t-5.5 63l126 7l14 -14v-396zM925 21l7 109q31 -18 72 -27t72 -9q50 0 50 36q0 19 -20.5 34t-50 31t-59.5 37 t-50.5 51t-20.5 74q0 48 26 80.5t70 49.5t97 17q81 0 127 -18l-14 -111q-28 14 -55 21.5t-56 7.5q-28 0 -43 -11t-15 -29q0 -22 20.5 -38.5t50.5 -32.5t59.5 -36.5t50 -49.5t20.5 -73q0 -67 -54 -104t-139 -37q-40 0 -82.5 8t-62.5 20zM795 0l-106 -7q-7 11 -12 24t-9 25h-4 q-15 -22 -42.5 -35.5t-61.5 -13.5q-41 0 -69 22t-28 67q0 61 53.5 88.5t137.5 29.5v20q0 54 -58 54q-55 0 -108 -29l-8 97q27 10 68.5 18t81.5 8q154 0 154 -135q0 -38 -2 -69.5t-2 -69.5q0 -24 4.5 -50.5t10.5 -43.5zM1626 0l-107 -7q-7 11 -12 24t-9 25h-3 q-15 -22 -42.5 -35.5t-62.5 -13.5q-40 0 -68 22t-28 67q0 61 53 88.5t138 29.5v20q0 54 -58 54q-54 0 -109 -29l-7 97q27 10 68.5 18t81.5 8q153 0 153 -135q0 -38 -1.5 -69.5t-1.5 -69.5q0 -24 4.5 -50.5t10.5 -43.5zM2405 213v-17t-1 -19l-11 -11h-191q8 -45 33.5 -64 t64.5 -19q24 0 45.5 6t38.5 15l7 -81q-17 -11 -49.5 -20.5t-77.5 -9.5q-88 0 -143 47t-55 135q0 58 24 101t66 67.5t94 24.5q73 0 114 -43.5t41 -111.5zM2199 207l78 4q1 5 1.5 11t0.5 15q0 23 -7.5 41t-26.5 18q-23 0 -34 -25.5t-12 -63.5zM654 74v88q-27 -3 -46 -17 t-19 -40q0 -18 10.5 -29t26.5 -11t28 9zM1485 74v88q-27 -3 -46 -17t-19 -40q0 -18 10 -29t27 -11q16 0 28 9zM2464 85q18 0 30.5 -13t12.5 -31t-12.5 -31t-30.5 -13t-31 13t-13 31t13 31t31 13zM2504 41q0 17 -11.5 28.5t-28.5 11.5q-16 0 -28 -11.5t-12 -28.5 q0 -16 12 -28t28 -12q17 0 28.5 12t11.5 28zM2446 66h18q2 0 5 -0.5t6 -2.5q5 -2 5 -10q0 -4 -3 -9q-3 -3 -6 -3q7 -1 8 -10q0 -7 3 -15h-8q-1 2 -1 6t-1 7q-1 5 -2.5 7t-8.5 2h-8v-22h-7v50zM2453 44h10h3.5t3.5 1q3 3 3 7q0 6 -4 7t-6 1h-10v-16z" />
<glyph unicode="&#x2f;symbol&#x35;&#x2f;" horiz-adv-x="705" d="M232 -6l-132 136l124 234l129 -136zM474 -6l-121 234l128 136l124 -234z" />
<glyph unicode=" "  horiz-adv-x="258" />
<glyph unicode="&#x09;" horiz-adv-x="258" />
<glyph unicode="&#xa0;" horiz-adv-x="258" />
<glyph unicode="!" horiz-adv-x="280" d="M163 201h-50q-6 174 -10.5 300.5t-6.5 184.5l74 10l9 -8q-2 -117 -6 -241t-10 -246zM188 50q0 -23 -14 -41.5t-39 -18.5q-22 0 -35 15.5t-13 37.5q0 23 15.5 41.5t39.5 18.5q21 0 33.5 -15t12.5 -38z" />
<glyph unicode="&#x22;" horiz-adv-x="278" d="M104 756l7 -11l-23 -243h-30l-20 254h66zM227 756l6 -11l-23 -243h-29l-21 254h67z" />
<glyph unicode="#" horiz-adv-x="694" d="M196 -10l-42 5l-8 8l36 145h-134l-8 8l7 41h147l37 146h-141l-8 8l7 42h154l38 153l42 -5l8 -8l-35 -140h168l38 153l42 -5l8 -8l-35 -140h129l8 -8l-6 -42h-143l-37 -146h141l8 -8l-6 -41h-155l-39 -158l-41 5l-8 8l35 145h-168zM247 197h169l36 146h-169z" />
<glyph unicode="$" horiz-adv-x="479" d="M222 -140l-8 8v122q-36 0 -79 8.5t-76 27.5l7 70q37 -24 80.5 -33t72.5 -9q58 0 90 30.5t32 80.5q0 41 -20 69t-51 49t-65 41t-67 44t-54 58.5t-21 87.5q0 74 45 121t118 58v130l32 3l8 -8v-122h3q38 0 76 -8.5t63 -22.5l-10 -71q-32 22 -68 30.5t-63 8.5 q-59 0 -91.5 -30t-32.5 -80q0 -40 20.5 -67.5t52.5 -48t66 -40.5q33 -19 65 -44t53 -61.5t21 -90.5q0 -76 -46 -122.5t-121 -56.5v-129z" />
<glyph unicode="%" horiz-adv-x="969" d="M418 498q0 -67 -25 -112.5t-66.5 -68.5t-89.5 -23q-75 0 -123.5 52t-48.5 145q0 67 25 113t66 69.5t90 23.5q76 0 124 -53t48 -146zM737 696l-423 -706h-46l421 706h48zM131 497q0 -71 27.5 -115.5t82.5 -44.5q50 0 81 40.5t31 116.5q0 72 -28 116.5t-81 44.5 q-50 0 -81.5 -40t-31.5 -118zM904 126q0 -67 -25.5 -112.5t-66.5 -68.5t-89 -23q-75 0 -123.5 52t-48.5 145q0 67 24.5 113t66 69.5t90.5 23.5q76 0 124 -53t48 -146zM616 125q0 -71 28 -115.5t82 -44.5q50 0 81 40.5t31 116.5q0 72 -27.5 116.5t-81.5 44.5q-50 0 -81.5 -40 t-31.5 -118z" />
<glyph unicode="&#x26;" horiz-adv-x="751" d="M334 635q-44 0 -77 -26t-33 -72q0 -34 17.5 -68t42.5 -65.5t47 -57.5l147 -175q6 -8 12.5 -16t13.5 -15q23 32 36 73.5t13 88.5q0 16 -1.5 36t-4.5 35l75 12l13 -14q3 -84 -23 -152.5t-71 -117.5q24 -23 48.5 -37.5t48.5 -14.5q17 0 32.5 6t24.5 12l10 -51 q-11 -9 -34 -17.5t-52 -8.5q-38 0 -70 16.5t-63 45.5q-88 -62 -192 -62q-65 0 -112.5 24t-73.5 66t-26 94q1 59 36 110.5t97 82.5q-26 33 -48 75t-22 90q0 46 23.5 83.5t66.5 59t101 21.5q65 0 112.5 -30.5t70.5 -81.5l-43 -59q-52 110 -142 110zM161 189q0 -39 18.5 -72 t54 -53t86.5 -21q38 0 71 11.5t61 32.5q-12 13 -25 28t-26 31l-144 170q-3 3 -7 7.5t-8 9.5q-42 -27 -61.5 -67t-19.5 -77z" />
<glyph unicode="'" horiz-adv-x="155" d="M108 756l6 -11l-23 -243h-29l-21 254h67z" />
<glyph unicode="(" horiz-adv-x="378" d="M314 -196q-99 77 -155 200t-56 277q0 153 56 276t155 199l29 -36q-88 -95 -124 -206.5t-36 -232.5t36 -233t124 -207z" />
<glyph unicode=")" horiz-adv-x="378" d="M276 281q0 -154 -56.5 -277t-154.5 -200l-30 37q88 95 124 207t36 233t-36 232.5t-124 206.5l30 36q98 -76 154.5 -199t56.5 -276z" />
<glyph unicode="*" horiz-adv-x="487" d="M222 366l-6 9l15 152l-131 -93l-25 43l4 9l142 63l-149 67l24 43l11 1l124 -89l-15 161h50l5 -9l-16 -155l133 97l25 -43l-5 -10l-140 -63l148 -67l-25 -43l-11 -1l-125 91l16 -163h-49z" />
<glyph unicode="+" d="M510 322h-193v-197h-52l-1 197h-204v47q35 1 89.5 2t114.5 2l-1 192h54v-192q56 1 107 1h86l5 -5z" />
<glyph unicode="," horiz-adv-x="231" d="M46 -170q18 35 35 77.5t23 82.5q-21 2 -34.5 17.5t-13.5 37.5q0 26 17.5 44.5t43.5 18.5q24 0 39 -17t15 -49q0 -35 -15.5 -78.5t-38.5 -84t-44 -68.5z" />
<glyph unicode="-" horiz-adv-x="363" d="M30 272v39h303v-39h-303z" />
<glyph unicode="." horiz-adv-x="234" d="M175 51q0 -26 -18 -43.5t-41 -17.5t-39.5 16t-16.5 41t17.5 43t42.5 18q23 0 39 -16t16 -41z" />
<glyph unicode="/" horiz-adv-x="353" d="M293 751l8 -8l-187 -747l-43 8l-8 8l187 747z" />
<glyph unicode="0" horiz-adv-x="658" d="M587 347q0 -119 -36.5 -198t-96.5 -119t-130 -40q-74 0 -131 41t-89.5 119t-32.5 188q0 117 36.5 197t96.5 120.5t131 40.5q74 0 131 -42t89 -120t32 -187zM150 345q0 -89 19.5 -157t59.5 -105.5t99 -37.5q81 0 131 76.5t50 220.5q0 89 -20 156.5t-59.5 105.5t-98.5 38 q-80 0 -130.5 -75t-50.5 -222z" />
<glyph unicode="1" horiz-adv-x="335" d="M140 609h-1l-116 -27l-12 45l194 69l9 -9v-687h-75v464v78.5t1 66.5z" />
<glyph unicode="2" horiz-adv-x="578" d="M77 0l-10 64q65 56 126 115t109.5 117.5t77.5 113t29 102.5q0 54 -38.5 89.5t-107.5 35.5q-48 0 -96 -17t-92 -41l-8 62q37 20 95 37.5t117 17.5q62 0 109 -22t73 -60.5t26 -88.5q0 -57 -32 -118.5t-84 -122.5t-112.5 -117t-116.5 -103h200q40 0 81 2t79 8l-10 -74h-415z " />
<glyph unicode="3" horiz-adv-x="510" d="M60 642q34 20 87.5 37t107.5 17q77 0 127 -38.5t50 -104.5q0 -58 -45 -110t-133 -82q92 -6 151 -48.5t59 -124.5q0 -58 -31.5 -102.5t-88.5 -70t-134 -25.5q-42 0 -87 7t-77 17l8 57q33 -11 76.5 -17.5t77.5 -6.5q78 0 127.5 37t49.5 101q0 47 -27 75t-70.5 40t-93.5 12 q-37 0 -70 -7v57q114 24 172 72.5t58 105.5q0 44 -30 70.5t-87 26.5q-45 0 -88.5 -15.5t-83.5 -37.5z" />
<glyph unicode="4" horiz-adv-x="594" d="M33 242l305 442l79 11l9 -9v-439q33 0 66 2.5t65 6.5l-10 -70h-121v-186h-72v186h-310zM99 246v-2q55 2 108 2h122h25v209v70t1 48t2 45h-2z" />
<glyph unicode="5" horiz-adv-x="541" d="M73 14l7 58q32 -10 73 -17t74 -7q77 0 126.5 42t49.5 116q0 50 -22 82.5t-59 48t-81 15.5q-28 0 -67.5 -6t-62.5 -16l-14 12v344h206q41 0 81.5 2.5t78.5 7.5l-5 -73h-296v-226q22 6 51.5 9.5t52.5 3.5q57 0 106 -21.5t79.5 -65.5t30.5 -112q0 -67 -32 -116.5t-89.5 -77 t-133.5 -27.5q-40 0 -82 7t-72 17z" />
<glyph unicode="6" horiz-adv-x="592" d="M308 -10q-106 0 -167 80t-61 227q0 123 41.5 212.5t114.5 138t167 48.5q24 0 47.5 -3.5t36.5 -9.5l-8 -60q-12 6 -31.5 10t-42.5 4q-63 0 -117.5 -33.5t-89.5 -102t-39 -174.5h2q33 37 81 54.5t94 17.5q86 0 139.5 -52.5t53.5 -141.5q0 -68 -30.5 -116t-80.5 -73.5 t-110 -25.5zM318 345q-31 0 -62.5 -10t-57 -28.5t-37.5 -44.5q4 -98 38.5 -157.5t109.5 -59.5q61 0 101.5 41t40.5 112q0 64 -34 105.5t-99 41.5z" />
<glyph unicode="7" horiz-adv-x="529" d="M48 610l10 76h413l9 -8v-46q-70 -82 -131 -185.5t-101 -217.5t-47 -229h-78q5 85 33 173t69.5 171.5t88.5 154.5t91 122v2h-185q-45 0 -88.5 -3t-83.5 -10z" />
<glyph unicode="8" horiz-adv-x="579" d="M287 -10q-64 0 -114.5 21t-79.5 58.5t-29 86.5q0 45 23.5 81.5t61 64t79.5 44.5v2q-36 19 -69 45t-53 60t-20 75q0 48 28 86t75.5 60t104.5 22q58 0 103 -22t71 -59t26 -82q0 -57 -40.5 -104.5t-104.5 -76.5v-1q43 -19 81 -45t61.5 -60.5t23.5 -80.5q0 -49 -29 -89 t-80.5 -63t-118.5 -23zM293 644q-36 0 -66.5 -14t-49.5 -39t-19 -58q0 -49 40.5 -88t100.5 -65q51 25 86.5 65.5t35.5 87.5q0 49 -37 80t-91 31zM278 315q-35 -16 -67.5 -39.5t-52.5 -53.5t-20 -65q0 -51 43 -83t107 -32q66 0 109 34t44 85q1 53 -44 88t-119 66z" />
<glyph unicode="9" horiz-adv-x="592" d="M264 267q-90 0 -145.5 54t-55.5 146q0 70 30 121.5t80.5 79.5t110.5 28q65 0 116.5 -35t81.5 -102t30 -164q0 -86 -24 -159.5t-67.5 -128.5t-102.5 -86t-130 -31q-18 0 -39.5 2t-34.5 6l-2 59q14 -4 33 -5.5t35 -1.5q70 0 124.5 35.5t88 101.5t41.5 157h-2 q-26 -39 -72 -58t-96 -19zM280 639q-40 0 -71.5 -21t-49.5 -58.5t-18 -87.5q0 -66 36 -108.5t105 -42.5q42 0 84.5 20t65.5 66q-2 108 -43 170t-109 62z" />
<glyph unicode=":" horiz-adv-x="234" d="M175 376q0 -27 -18 -44t-41 -17t-39.5 16t-16.5 41t17.5 43t42.5 18q23 0 39 -16t16 -41zM175 51q0 -26 -18 -43.5t-41 -17.5t-39.5 16t-16.5 41t17.5 43t42.5 18q23 0 39 -16t16 -41z" />
<glyph unicode=";" horiz-adv-x="241" d="M182 376q0 -27 -17.5 -44t-41.5 -17q-23 0 -39.5 16t-16.5 41t18 43t42 18t39.5 -16t15.5 -41zM46 -170q18 35 35 77.5t23 82.5q-21 2 -34.5 17.5t-13.5 37.5q0 26 17.5 44.5t43.5 18.5q24 0 39 -17t15 -49q0 -35 -15.5 -78.5t-38.5 -84t-44 -68.5z" />
<glyph unicode="&#x3c;" d="M490 121l-426 211v32l4 7q28 14 69.5 34.5t90.5 43.5t98 45t91.5 41t71.5 31v-53l-348 -163l349 -175v-54z" />
<glyph unicode="=" d="M510 417h-450v47q30 1 75 1.5t96.5 1.5t103.5 1.5t97.5 0.5h77.5l5 -6zM510 229h-450v47q30 1 75 1.5t96.5 1.5t103.5 1.5t97.5 0.5h77.5l5 -6z" />
<glyph unicode="&#x3e;" d="M85 121v54l349 175l-348 163v53q29 -12 71.5 -31t91.5 -41t98 -45t90.5 -43.5t69.5 -34.5l4 -7v-32z" />
<glyph unicode="?" horiz-adv-x="432" d="M206 213l-47 -1q-4 11 -6.5 24t-2.5 23q0 29 17.5 52.5t43.5 45t52 45t43.5 52.5t17.5 69q0 50 -31.5 82t-85.5 32q-38 0 -81.5 -20t-74.5 -65l-35 40q33 48 86.5 76t117.5 28q83 0 132.5 -44.5t49.5 -117.5q0 -48 -19 -84t-48 -64t-57.5 -50t-47.5 -42t-19 -41 q0 -15 3 -32zM240 50q0 -23 -14 -41.5t-39 -18.5q-22 0 -35 15.5t-13 37.5q0 23 15.5 41.5t39.5 18.5q21 0 33.5 -15t12.5 -38z" />
<glyph unicode="@" horiz-adv-x="1138" d="M803 -162q-52 -36 -130 -65t-174 -29q-95 0 -174.5 31.5t-138 89t-90.5 137.5t-32 176q0 97 31.5 184t88 159t131 125t161 81.5t177.5 28.5q94 0 171.5 -30.5t133.5 -85.5t86 -127.5t30 -155.5q0 -76 -24 -142.5t-66.5 -117t-98 -79t-117.5 -28.5q-52 0 -81 19t-40 51.5 t-8 73t15 83.5h-4q-16 -36 -38.5 -76t-50 -74t-59 -55.5t-66.5 -21.5q-42 0 -69.5 36.5t-27.5 111.5q0 67 22.5 132t65 118.5t100.5 85.5t128 32q25 0 60.5 -5t67.5 -17l-52 -215q-5 -25 -11.5 -55.5t-9 -61.5t3.5 -57t24 -42t54 -16q39 0 80.5 22.5t77 64.5t57 100.5 t21.5 129.5q0 79 -28 145t-78.5 115t-119 76t-149.5 27q-77 0 -154.5 -25t-147 -71.5t-124 -111.5t-86 -146.5t-31.5 -175.5q0 -88 28 -161.5t81 -128t127 -84.5t165 -30q92 0 158 25.5t119 55.5zM471 55q25 -1 52 23.5t52.5 63.5t48 84t38.5 88.5t23 74.5l12 52 q-18 7 -36 10t-31 3q-42 0 -80.5 -27t-68 -71.5t-47 -98t-17.5 -105.5q0 -46 14 -71.5t40 -25.5z" />
<glyph unicode="A" horiz-adv-x="612" d="M98 0h-74l205 589q9 28 18 55t15 48l76 4l11 -10l239 -686h-79l-70 199h-271zM240 404l-51 -145h229l-50 145q-20 58 -36.5 111t-26.5 98h-2q-11 -45 -28 -99.5t-35 -109.5z" />
<glyph unicode="B" horiz-adv-x="590" d="M275 0h-172v531q0 44 -2 80.5t-6 74.5h184q103 0 164 -48t61 -128q0 -57 -31.5 -96t-83.5 -57q71 -17 108 -61.5t37 -107.5q0 -59 -32.5 -101t-90.5 -64.5t-136 -22.5zM269 628h-89v-248h86q78 0 118 32t40 89t-39 92t-116 35zM272 324h-92v-265h95q87 0 132 34.5 t45 97.5q0 59 -42 96t-138 37z" />
<glyph unicode="C" horiz-adv-x="592" d="M534 109l9 -65q-36 -27 -86.5 -40.5t-101.5 -13.5q-86 0 -150.5 40t-100.5 117t-36 186q0 113 38.5 194t105.5 125t152 44q47 0 93.5 -11t79.5 -32l-15 -71q-30 22 -70 35t-85 13q-62 0 -111.5 -33.5t-78 -98.5t-28.5 -159q0 -83 25 -146.5t74 -100t119 -36.5 q47 0 90.5 15t76.5 38z" />
<glyph unicode="D" horiz-adv-x="681" d="M613 346q0 -110 -43.5 -187t-121 -118t-178.5 -41h-167v531q0 44 -2 80.5t-6 74.5h188q93 0 168 -40.5t118.5 -116.5t43.5 -183zM276 627h-96v-567h93q128 0 193.5 75t65.5 207q0 87 -31 151t-88.5 99t-136.5 35z" />
<glyph unicode="E" horiz-adv-x="521" d="M481 64v-64h-378v531q0 44 -2 80.5t-6 74.5h369l8 -8l-1 -56l-291 6v-260l247 3l-1 -61l-246 3v-254z" />
<glyph unicode="F" horiz-adv-x="496" d="M180 0h-77v531q0 44 -2 80.5t-6 74.5h364l8 -8l-1 -56l-286 6v-272l242 3l-1 -61l-241 3v-301z" />
<glyph unicode="G" horiz-adv-x="648" d="M563 299l8 -8l-2 -253q-41 -23 -99 -35.5t-109 -12.5q-90 0 -156 40.5t-101.5 116.5t-35.5 183q0 113 39 195t110 126.5t167 44.5q46 0 90 -10t77 -28l-14 -70q-27 19 -65.5 31.5t-83.5 12.5q-107 0 -173 -75.5t-66 -217.5q0 -83 24.5 -147.5t74 -101t124.5 -36.5 q27 0 59.5 5t63.5 14v50q0 53 -2 89t-7 77z" />
<glyph unicode="H" horiz-adv-x="705" d="M180 0h-77v529q0 89 -8 157l77 10l8 -8v-317h344v158q0 89 -7 157l76 10l9 -8v-688h-78v312h-344v-312z" />
<glyph unicode="I" horiz-adv-x="283" d="M180 0h-77v529q0 89 -8 157l77 10l8 -8v-688z" />
<glyph unicode="J" horiz-adv-x="273" d="M31 -193l-25 39q39 30 63 83.5t24 137.5v462q0 44 -2 80.5t-7 74.5l78 12l9 -8v-621q0 -103 -34 -162.5t-106 -97.5z" />
<glyph unicode="K" horiz-adv-x="590" d="M103 529q0 45 -2 81.5t-6 75.5l75 10l9 -8v-323h97q51 80 105 164.5t106 166.5l65 -12l6 -8l-219 -327l242 -349l-84 -9q-56 78 -110.5 157t-108.5 158h-99v-306h-76v529z" />
<glyph unicode="L" horiz-adv-x="492" d="M470 64v-64h-367v530q0 88 -8 156l77 10l8 -8v-629z" />
<glyph unicode="M" horiz-adv-x="860" d="M704 696l10 -8l85 -688h-77l-33 264q-12 95 -20 172t-14 154h-2q-21 -82 -46.5 -163.5t-51.5 -162.5l-86 -264h-86l-84 264q-24 71 -41.5 126.5t-31.5 103t-27 96.5h-1q-7 -84 -17 -165.5t-19 -160.5l-33 -264h-68l86 691l89 5l123 -365q16 -51 36 -121.5t35 -136.5h1 q20 87 38 146.5t34 111.5l120 360z" />
<glyph unicode="N" horiz-adv-x="703" d="M358 398q36 -59 66.5 -107.5t56.5 -94.5t49 -96h2q-2 24 -3 45.5t-1.5 49t-1 68t-0.5 101.5v151q0 49 -2 90t-6 81l74 10l9 -9v-687h-78q-48 77 -93 151t-89 146q-37 58 -66 105t-53.5 90.5t-48.5 91.5h-1q4 -64 5 -122t1 -115v-347h-75v531q0 44 -2 81.5t-6 73.5l81 10 q48 -79 93 -153t89 -145z" />
<glyph unicode="O" horiz-adv-x="699" d="M632 345q0 -116 -39.5 -195t-105 -119.5t-143.5 -40.5q-79 0 -141.5 40t-98.5 116.5t-36 186.5q0 112 38 193.5t104 125.5t147 44q80 0 142 -42t97.5 -121t35.5 -188zM149 341q0 -86 24 -151t68.5 -101.5t107.5 -36.5q92 0 147 76t55 214q0 86 -22.5 152t-66 103 t-106.5 37q-61 0 -107.5 -35t-73 -100.5t-26.5 -157.5z" />
<glyph unicode="P" horiz-adv-x="557" d="M180 0h-77v531q0 44 -2 80.5t-6 74.5h185q109 0 174 -58t65 -157q0 -71 -33 -120t-91 -74t-131 -25h-84v-252zM268 628h-88v-317h85q84 0 128.5 41t44.5 117q0 69 -40.5 114t-129.5 45z" />
<glyph unicode="Q" horiz-adv-x="715" d="M632 345q0 -103 -31.5 -176.5t-84.5 -117.5t-119 -56q68 -40 154 -66t182 -26l-16 -76q-67 0 -137 22.5t-135.5 59.5t-119.5 82q-74 4 -132 45.5t-91.5 116t-33.5 180.5q0 112 38 193.5t104 125.5t147 44q80 0 142 -42t97.5 -121t35.5 -188zM149 341q0 -86 24 -151 t68.5 -101.5t107.5 -36.5q92 0 147 76t55 214q0 86 -22.5 152t-66 103t-106.5 37q-61 0 -107.5 -35t-73 -100.5t-26.5 -157.5z" />
<glyph unicode="R" horiz-adv-x="587" d="M180 0h-77v531q0 44 -2 80.5t-6 74.5h178q114 0 180 -57t66 -151q0 -72 -37.5 -118t-98.5 -67l167 -293l-83 -9q-38 69 -76 140t-75 141h-136v-272zM268 628h-88v-298h85q84 0 128.5 37.5t44.5 108.5q0 64 -40 108t-130 44z" />
<glyph unicode="S" horiz-adv-x="513" d="M455 171q0 -85 -62 -133t-161 -48q-39 0 -86.5 8.5t-86.5 27.5l8 70q41 -24 88.5 -33t79.5 -9q67 0 103.5 30.5t36.5 80.5q0 42 -22 70t-57 48.5t-73 40.5q-39 21 -75.5 44.5t-60 58.5t-23.5 87q0 57 28.5 97.5t79 62.5t116.5 22q41 0 83.5 -8.5t70.5 -22.5l-11 -71 q-36 22 -75 30.5t-70 8.5q-68 0 -105 -30t-37 -80q0 -41 23.5 -68.5t59 -47.5t73.5 -40q36 -19 72 -44t59.5 -61.5t23.5 -90.5z" />
<glyph unicode="T" horiz-adv-x="537" d="M308 0h-78v626q-52 0 -104 -2t-105 -4l5 66h485l5 -66q-52 2 -104.5 4t-103.5 2v-626z" />
<glyph unicode="U" horiz-adv-x="653" d="M89 531q0 44 -2.5 81t-7.5 76l83 8l5 -5v-464q0 -85 46 -129.5t115 -44.5t115 44t46 130v314q0 43 -2.5 77.5t-7.5 69.5l85 8v-471q0 -78 -32.5 -130.5t-87.5 -78.5t-122 -26q-65 0 -118 26.5t-84 78.5t-31 130v306z" />
<glyph unicode="V" horiz-adv-x="608" d="M270 -4l-247 693l82 7l143 -412q20 -56 35.5 -104t26.5 -97q11 49 30.5 107.5t38.5 111.5l137 394l63 -6l6 -8l-245 -686h-70z" />
<glyph unicode="W" horiz-adv-x="980" d="M242 -4l-211 692l79 8l122 -408q17 -57 30.5 -107t21.5 -96q8 46 25 106t34 114l115 386l74 5l122 -408q18 -57 32 -107t21 -96q8 46 24.5 105t33.5 114l117 392l61 -6l6 -8l-210 -686h-70l-133 425q-11 39 -22.5 80.5t-22.5 87.5h-1q-11 -46 -22.5 -87.5t-23.5 -81.5 l-132 -424h-70z" />
<glyph unicode="X" horiz-adv-x="565" d="M31 0l-4 9l207 333l-207 343l82 11l180 -303h2l174 303l69 -6l4 -9l-206 -337l206 -344h-88l-173 293h-2l-173 -293h-71z" />
<glyph unicode="Y" horiz-adv-x="560" d="M241 246l-218 443l83 7l117 -243q15 -32 33 -71t29 -70h2q14 33 32 72t33 70l115 242l64 -6l6 -8l-218 -439v-243h-78v246z" />
<glyph unicode="Z" horiz-adv-x="520" d="M43 0l-13 49l364 573l-352 -4l5 68h417l19 -48l-362 -574l366 5l-5 -69h-439z" />
<glyph unicode="[" horiz-adv-x="335" d="M90 756h213v-60h-139v-831h139v-61h-213v952z" />
<glyph unicode="\" horiz-adv-x="361" d="M247 -4l-187 747l8 8l43 8l187 -747l-8 -8z" />
<glyph unicode="]" horiz-adv-x="335" d="M245 756v-952h-214v61h140v831h-140v60h214z" />
<glyph unicode="^" horiz-adv-x="525" d="M145 210h-57l144 336h58l148 -336h-57l-121 276z" />
<glyph unicode="_" horiz-adv-x="373" d="M0 -197v39h373v-39h-373z" />
<glyph unicode="`" horiz-adv-x="325" d="M209 577q-49 32 -89 70t-71 85l5 14l69 14q20 -44 49.5 -87t61.5 -84z" />
<glyph unicode="a" horiz-adv-x="504" d="M405 144q0 -36 5 -70.5t19 -73.5l-67 -10q-16 31 -24 70h-1q-20 -26 -61 -48t-92 -22q-61 0 -95 33t-34 85q0 57 38.5 93.5t101.5 55.5t136 23v66q0 48 -25 74.5t-78 26.5q-39 0 -78.5 -13t-73.5 -34l-4 64q32 16 78 29t94 13q81 0 122 -39t41 -106q0 -34 -0.5 -76 t-1 -80t-0.5 -61zM131 119q0 -30 19.5 -53.5t59.5 -23.5q32 0 66 16.5t55 39.5v144q-54 -4 -99.5 -18.5t-73 -40.5t-27.5 -64z" />
<glyph unicode="b" horiz-adv-x="562" d="M497 250q0 -128 -60 -194t-155 -66q-29 0 -60.5 5.5t-55.5 13.5l-71 -19v599q0 45 -2.5 81t-6.5 74l75 12l9 -8v-292q26 23 60 36.5t72 13.5q87 0 141 -67.5t54 -188.5zM280 452q-30 0 -59.5 -11.5t-50.5 -31.5v-351q22 -8 52 -13t52 -5q68 0 106.5 52.5t38.5 152.5 q0 95 -35.5 151t-103.5 56z" />
<glyph unicode="c" horiz-adv-x="479" d="M432 473l-19 -63q-23 16 -53 26.5t-63 10.5q-69 0 -111 -49.5t-42 -145.5q0 -93 40.5 -148.5t115.5 -55.5q36 0 68 12t55 26l6 -55q-27 -19 -63.5 -30t-79.5 -11q-98 0 -159.5 65.5t-61.5 188.5q0 83 29.5 142t82 89.5t120.5 30.5q78 0 135 -33z" />
<glyph unicode="d" horiz-adv-x="565" d="M384 744l75 12l9 -8v-609q0 -36 5.5 -70t18.5 -69l-68 -10q-7 14 -13 32t-11 37h-1q-20 -28 -54 -48.5t-84 -20.5q-57 0 -101.5 30t-69.5 85.5t-25 132.5q0 88 32 147.5t86 90t120 30.5q26 0 49 -4.5t41 -11.5v99q0 45 -2 80.5t-7 74.5zM144 246q0 -95 38.5 -149.5 t102.5 -54.5q38 0 64.5 16.5t43.5 37.5v345q-44 16 -87 16q-68 0 -115 -51.5t-47 -159.5z" />
<glyph unicode="e" horiz-adv-x="511" d="M452 257l-15 -15h-293q3 -98 47 -146t113 -48q37 0 70.5 12.5t60.5 30.5l6 -55q-21 -15 -61 -30.5t-93 -15.5q-100 0 -161 65.5t-61 186.5q0 86 30 144.5t79.5 89t106.5 30.5q79 0 125.5 -52t46.5 -138v-29.5t-1 -29.5zM277 454q-51 0 -89.5 -44t-43.5 -131l233 7 q0 8 0.5 17t0.5 19q0 59 -26.5 95.5t-74.5 36.5z" />
<glyph unicode="f" horiz-adv-x="321" d="M179 0h-75v445l-75 3v33l75 10q-1 26 -2 51.5t-1 39.5q0 82 42 128t122 46q65 0 115 -28l-18 -62q-19 12 -44 21.5t-54 9.5q-49 0 -69 -30t-20 -83q0 -16 1 -44.5t1 -48.5h133l7 -8l-3 -41l-135 3v-445z" />
<glyph unicode="g" horiz-adv-x="490" d="M115 76q1 24 12 44.5t29 36.5q-46 18 -74 59.5t-28 101.5q0 51 21 93.5t61.5 68.5t98.5 26q33 0 59.5 -9t43.5 -22q19 20 50 31t61 11l11 -4l-2 -62h-96q18 -18 33 -48.5t15 -75.5q0 -50 -21 -92t-60.5 -67t-96.5 -25q-19 0 -38 3q-16 -21 -16 -47q0 -23 13 -34.5 t45 -14.5l85 -6q38 -3 71 -16t53.5 -39t20.5 -68q0 -46 -27.5 -86.5t-80.5 -65.5t-129 -25q-96 0 -151 38t-55 94q0 37 20.5 61.5t40.5 33.5l32 -15q-9 -10 -17 -25.5t-8 -34.5q0 -41 37.5 -73.5t108.5 -32.5q70 0 111.5 32.5t41.5 80.5q0 38 -26.5 59t-69.5 24l-76 6 q-53 4 -77.5 26t-25.5 58zM336 323q0 62 -26 99t-77 37q-53 0 -79 -35.5t-26 -98.5t26.5 -99t79.5 -36q51 0 76.5 35t25.5 98z" />
<glyph unicode="h" horiz-adv-x="565" d="M170 0h-75v589q0 44 -2 80t-7 75l75 12l9 -8v-313q37 34 78.5 52.5t85.5 18.5q63 0 98.5 -37t35.5 -109v-360h-75v344q0 105 -90 105q-65 0 -133 -58v-391z" />
<glyph unicode="i" horiz-adv-x="269" d="M184 670q0 -25 -15 -44t-41 -19q-23 0 -36.5 16t-13.5 39q0 24 16.5 43t41.5 19q22 0 35 -15t13 -39zM96 0v339q0 44 -1.5 80t-7.5 75l76 12l8 -8v-498h-75z" />
<glyph unicode="j" horiz-adv-x="270" d="M184 670q0 -25 -15 -44t-41 -19q-24 0 -37.5 16t-13.5 39q0 24 17 43t41 19q23 0 36 -15t13 -39zM42 -256l-26 34q34 28 57.5 73t23.5 115v373q0 44 -2.5 80t-6.5 75l75 12l9 -8v-524q0 -90 -33 -143.5t-97 -86.5z" />
<glyph unicode="k" horiz-adv-x="510" d="M95 589q0 44 -2 80.5t-7 74.5l75 12l9 -8v-468h78q36 51 74.5 109t76.5 117l57 -12l6 -9l-151 -209q42 -67 87 -135.5t93 -140.5l-83 -10q-40 59 -79.5 120.5t-76.5 122.5h-82v-233h-75v589z" />
<glyph unicode="l" horiz-adv-x="269" d="M171 0h-75v589q0 44 -2 80.5t-7 74.5l76 12l8 -8v-748z" />
<glyph unicode="m" horiz-adv-x="850" d="M175 0h-75v341q0 46 -5 79t-15 69l70 17q14 -35 22 -74q76 74 161 74q95 0 122 -80q37 39 80 59.5t86 20.5q63 0 97 -36t34 -103v-367h-75v352q0 47 -21.5 72t-64.5 25q-62 0 -129 -59q2 -11 2 -23v-367h-75v352q0 47 -21.5 72t-65.5 25q-61 0 -127 -59v-390z" />
<glyph unicode="n" horiz-adv-x="570" d="M175 0h-75v341q0 46 -5 79t-15 69l69 17q15 -35 23 -74q37 36 79.5 55t87.5 19q63 0 98.5 -37t35.5 -109v-360h-75v344q0 105 -90 105q-64 0 -133 -59v-390z" />
<glyph unicode="o" horiz-adv-x="559" d="M494 252q0 -87 -30.5 -145.5t-80.5 -87.5t-109 -29q-61 0 -108 30t-74 86.5t-27 136.5q0 86 30 144.5t80.5 88.5t109.5 30q62 0 109 -30.5t73.5 -87.5t26.5 -136zM144 250q0 -92 33.5 -150t100.5 -58q61 0 99.5 52.5t38.5 151.5q0 93 -34 150.5t-100 57.5 q-61 0 -99.5 -51t-38.5 -153z" />
<glyph unicode="p" horiz-adv-x="568" d="M100 -247v588q0 46 -5 79t-15 69l70 17q12 -29 18 -57q24 24 61 40.5t79 16.5q54 0 98 -29t70.5 -85.5t26.5 -137.5q0 -77 -25.5 -137t-73.5 -93.5t-115 -33.5q-31 0 -60.5 7t-53.5 17v-107q0 -44 2 -78t7 -73l-75 -12zM283 452q-64 0 -108 -48v-338q21 -11 47.5 -18.5 t54.5 -7.5q71 0 109 55.5t38 153.5q0 102 -39.5 152.5t-101.5 50.5z" />
<glyph unicode="q" horiz-adv-x="565" d="M393 -247v290q-54 -53 -132 -53q-58 0 -102 30.5t-69 87t-25 136.5q0 86 32 144t87 88t126 30q23 0 48.5 -4t47.5 -11l62 15v-595q0 -44 2 -80t6 -75l-75 -12zM144 250q0 -93 35.5 -150.5t103.5 -57.5q29 0 58.5 11.5t51.5 33.5v360q-41 10 -73 10q-83 0 -129.5 -53.5 t-46.5 -153.5z" />
<glyph unicode="r" horiz-adv-x="384" d="M175 0h-75v341q0 46 -5 79t-15 69l70 17q18 -44 24 -88q34 41 71.5 64.5t73.5 23.5q15 0 27.5 -4t19.5 -9l-14 -69q-9 3 -20 5.5t-25 2.5q-25 0 -61 -14.5t-71 -45.5v-372z" />
<glyph unicode="s" horiz-adv-x="439" d="M370 476l-9 -64q-29 18 -60 28.5t-63 10.5q-48 0 -75 -21.5t-27 -54.5q0 -29 17.5 -48t46 -33.5t60.5 -28.5t60 -32t46 -43t18 -63q0 -61 -49 -99t-131 -38q-36 0 -76 8t-73 26l9 63q34 -21 73.5 -31t70.5 -10q50 0 76 21.5t26 52.5q0 27 -18 45.5t-46.5 33t-60.5 28 t-60 31.5t-46 44t-18 64q0 62 49 101t130 39q37 0 69 -8.5t61 -21.5z" />
<glyph unicode="t" horiz-adv-x="361" d="M314 449l-139 1v-289q0 -62 19.5 -87.5t56.5 -25.5q22 0 42 7t38 18l10 -52q-21 -13 -49 -22t-62 -9q-63 0 -96.5 39.5t-33.5 123.5v298l-73 1v34l74 10l18 117l50 5l9 -9l-3 -113h136l6 -8z" />
<glyph unicode="u" horiz-adv-x="560" d="M96 339q0 44 -1.5 80.5t-5.5 74.5l74 12l8 -8v-351q0 -47 21.5 -72t64.5 -25q61 0 127 59v387l75 10v-365q0 -42 4.5 -74.5t14.5 -64.5l-64 -12q-8 16 -14 36.5t-10 38.5h-2q-75 -75 -160 -75q-63 0 -97.5 35.5t-34.5 99.5v214z" />
<glyph unicode="v" horiz-adv-x="470" d="M446 491l-177 -495h-67l-178 504l77 6l79 -240q19 -52 30.5 -86t18 -60t11.5 -54h1q6 28 13 54t18.5 60t30.5 86l79 240l58 -6z" />
<glyph unicode="w" horiz-adv-x="759" d="M183 -4l-159 504l76 6l70 -235q23 -72 34.5 -116t19.5 -81h1q7 31 13.5 58t16 58t23.5 75l70 239h75l68 -230q14 -47 31 -101t24 -98h1q9 46 24 97t30 98l70 236l58 -6l6 -9l-157 -495h-73l-76 245q-18 58 -30 99.5t-19 84.5h-1q-7 -43 -19.5 -87.5t-28.5 -95.5l-76 -246 h-72z" />
<glyph unicode="x" horiz-adv-x="471" d="M359 0l-131 210l-128 -210h-65l-4 9l156 239l-156 247l76 11l135 -222l131 222l64 -6l3 -9l-156 -243l156 -248h-81z" />
<glyph unicode="y" horiz-adv-x="462" d="M446 491l-172 -481q-24 -68 -57.5 -126t-79.5 -95.5t-108 -44.5l-12 73q64 7 113.5 54t85.5 143h-21l-171 486l77 6l79 -240q19 -52 30.5 -86t18 -60t11.5 -54h1q6 28 13 53.5t18.5 59.5t30.5 87l79 240l58 -6z" />
<glyph unicode="z" horiz-adv-x="434" d="M34 432l5 64h349l8 -47l-282 -390l138 2q37 1 75 2t76 4l-5 -67h-359l-8 48l285 389z" />
<glyph unicode="{" horiz-adv-x="334" d="M160 127q0 54 -23.5 87.5t-78.5 41.5v48q54 8 78 40t24 91q0 39 -8 71.5t-15.5 63.5t-7.5 66q0 67 42 93.5t133 26.5l3 -47q-56 0 -80.5 -21t-24.5 -62q0 -29 8 -64.5t16 -72t8 -70.5q0 -59 -29.5 -94t-71.5 -45q41 -10 71 -45t30 -92q0 -31 -8 -68.5t-16 -74t-8 -65.5 q0 -42 24.5 -63t80.5 -21l-3 -47q-93 0 -134 26.5t-41 93.5q0 34 7.5 67.5t15.5 67t8 68.5z" />
<glyph unicode="|" horiz-adv-x="321" d="M142 -256l-7 7v1002l44 3l7 -7v-1002z" />
<glyph unicode="}" horiz-adv-x="334" d="M277 256l-102 -129q0 -35 7.5 -68.5t15.5 -67t8 -67.5q0 -67 -41.5 -93.5t-133.5 -26.5l-3 47q55 0 80 21t25 63q0 29 -8.5 65.5t-16.5 74t-8 68.5q0 57 30 92t71 45q-42 10 -71.5 45t-29.5 94q0 34 8 70.5t16.5 72t8.5 64.5q0 41 -25 62t-80 21l3 47q90 0 132.5 -26.5 t42.5 -93.5q0 -35 -8 -66t-15.5 -63.5t-7.5 -71.5q0 -59 23.5 -91t78.5 -40v-48z" />
<glyph unicode="~" d="M416 223q-14 0 -42 7t-61.5 17.5t-66 21t-56.5 17.5t-33 7q-13 0 -32 -24.5t-42 -56.5l-32 22q13 23 29.5 49t37 45t42.5 19q13 0 41 -7t61.5 -17.5t66 -21t57 -17.5t32.5 -7q13 0 32 24t44 57l30 -22q-12 -23 -29 -49t-37 -45t-42 -19z" />
<glyph unicode="&#xa1;" horiz-adv-x="280" d="M92 446q0 23 14 41.5t40 18.5q22 0 35 -15t13 -37q0 -24 -16 -42t-40 -18q-21 0 -33.5 14.5t-12.5 37.5zM117 296h51q5 -175 9.5 -301t7.5 -185l-74 -10l-9 9q1 117 5.5 240.5t9.5 246.5z" />
<glyph unicode="&#xa2;" horiz-adv-x="491" d="M273 -140l-8 8v125q-90 10 -145 80.5t-55 188.5q0 81 26 141.5t72.5 96.5t106.5 44v133l32 3l8 -8v-126q35 -1 69.5 -10.5t59.5 -26.5l-15 -63q-24 18 -54.5 29t-63.5 11q-74 0 -118.5 -58.5t-44.5 -157.5q0 -100 44.5 -159.5t123.5 -59.5q34 0 66 11t58 29l6 -56 q-25 -19 -61 -30.5t-75 -12.5v-129z" />
<glyph unicode="&#xa3;" horiz-adv-x="529" d="M486 -140q-10 -4 -27.5 -6.5t-33.5 -2.5q-44 0 -87.5 15.5t-86 39.5t-82.5 50t-77 46q-23 -13 -49 -13q-53 0 -53 36q0 17 13 26.5t33 9.5t49 -10q20 28 31.5 78t21.5 118l6 46l-111 3l7 35l110 10v0q11 75 25 139.5t37 113t60.5 75.5t94.5 27q37 0 68.5 -10t49.5 -23 l-28 -68q-21 19 -44 30t-48 11q-41 0 -66 -28.5t-42 -93t-33 -173.5h181l5 -8l-12 -40h-182l-7 -41q-6 -37 -16 -77.5t-25.5 -78t-38.5 -64.5q43 -20 93 -46.5t103.5 -46t106.5 -19.5q20 0 41.5 3.5t37.5 9.5z" />
<glyph unicode="&#xa4;" horiz-adv-x="581" d="M481 44l-82 84q-22 -19 -51.5 -29.5t-66.5 -10.5q-32 0 -59 8.5t-49 23.5l-75 -74l-33 33l74 74q-38 47 -38 112q0 33 11 65t31 57l-75 77l31 31q15 -15 36 -35.5t41 -40.5q22 15 49.5 24t60.5 9q35 0 64 -10t51 -28l80 81l33 -33l-81 -82q32 -46 32 -106q0 -62 -34 -111 l30.5 -30.5t34 -35t20.5 -21.5v-5zM283 406q-42 0 -71 -19.5t-43.5 -50.5t-14.5 -65t14.5 -65.5t44 -51t74.5 -19.5q44 0 72 19t41 50t13 66q0 58 -35.5 97t-94.5 39z" />
<glyph unicode="&#xa5;" horiz-adv-x="553" d="M72 124v39h167v93h-167v40h167l-216 393l80 7l115 -212q16 -31 32 -64t31 -70h2q17 38 33.5 70.5t31.5 62.5l114 213l61 -6l7 -8l-214 -386h165v-40h-167v-93h167v-39h-167v-124h-75v124h-167z" />
<glyph unicode="&#xa6;" horiz-adv-x="321" d="M186 370l-36 -3l-15 7v379l44 3l7 -7v-379zM186 -253l-36 -3l-15 7v378l44 3l7 -7v-378z" />
<glyph unicode="&#xa7;" horiz-adv-x="552" d="M345 612q-48 0 -73.5 -25t-25.5 -68q0 -37 18 -71t46 -68.5t59.5 -70.5t59.5 -75.5t46 -84t18 -96.5q0 -69 -35.5 -119.5t-97.5 -77t-141 -26.5q-39 0 -73.5 6.5t-57.5 16.5l13 91q23 -16 48.5 -23t48.5 -7q51 0 79.5 26.5t28.5 71.5q0 36 -18 70t-46 67.5t-59.5 69 t-60 74.5t-46 83.5t-17.5 95.5q0 67 33.5 117.5t93.5 78.5t139 28q38 0 72.5 -6.5t56.5 -16.5l-12 -91q-23 16 -49 23t-48 7zM237 -123q77 3 121 30.5t62.5 67.5t18.5 79q0 44 -18 84t-46.5 76.5t-60 72t-59.5 70.5t-46 72.5t-18 77.5q0 28 11.5 58.5t39 52.5t74.5 25l-2 6 q-77 -3 -121 -30.5t-62 -67t-18 -78.5q0 -45 18 -85t46 -77t59.5 -72t60 -70t46.5 -72t18 -77q0 -29 -12 -59t-39 -52t-74 -26z" />
<glyph unicode="&#xa8;" horiz-adv-x="400" d="M149 668q0 -24 -14 -43t-39 -19q-22 0 -34.5 15t-12.5 37q0 24 15.5 42.5t38.5 18.5q21 0 33.5 -14t12.5 -37zM350 668q0 -24 -14 -43t-39 -19q-22 0 -34.5 15t-12.5 37q0 24 15.5 42.5t38.5 18.5q21 0 33.5 -14t12.5 -37z" />
<glyph unicode="&#xa9;" horiz-adv-x="689" d="M345 -39q-82 0 -148 38t-104 103.5t-38 147.5q0 60 22.5 112t62.5 92t92.5 63t112.5 23q61 0 114 -23t92 -63t61 -92t22 -112t-22.5 -112t-62.5 -92t-92.5 -62.5t-111.5 -22.5zM345 0q69 0 125.5 34t90.5 91t34 125q0 69 -34 126t-90.5 90.5t-125.5 33.5t-126 -33.5 t-90.5 -90.5t-33.5 -126q0 -71 32.5 -127.5t89.5 -89.5t128 -33zM452 392l-14 -48q-15 10 -34 16.5t-39 6.5q-45 0 -72 -30t-27 -78q0 -54 26 -86t74 -32q23 0 43 7t35 16l6 -42q-18 -11 -42 -18t-52 -7q-66 0 -107 40.5t-41 115.5q0 69 44 113.5t113 44.5q50 0 87 -19z" />
<glyph unicode="&#xaa;" horiz-adv-x="421" d="M337 402q0 -28 3.5 -55t15.5 -57l-55 -8q-12 23 -20 55h-1q-16 -21 -50 -38t-76 -17q-50 0 -77.5 25.5t-27.5 66.5q0 45 31.5 73.5t83.5 43t112 18.5v49q0 78 -85 78q-32 0 -64.5 -10t-60.5 -26l-3 52q26 13 63.5 23t78.5 10q66 0 100 -31t34 -84q0 -27 -0.5 -59t-1 -61 t-0.5 -48zM112 384q0 -23 16 -41t49 -19q26 1 53.5 13t45.5 30v111q-45 -3 -82 -14t-59.5 -31t-22.5 -49z" />
<glyph unicode="&#xab;" horiz-adv-x="455" d="M54 283v21q44 38 84.5 86.5t84.5 106.5l20 -11q-23 -54 -52 -102.5t-62 -90.5q33 -42 62 -90.5t52 -102.5l-20 -11q-44 58 -84.5 106.5t-84.5 87.5zM226 283v21q44 38 84.5 86.5t84.5 106.5l20 -11q-23 -54 -52 -102.5t-62 -90.5q33 -42 62 -90.5t52 -102.5l-20 -11 q-44 58 -84.5 106.5t-84.5 87.5z" />
<glyph unicode="&#xac;" d="M499 314l-1 -220h-52v175h-389v48q37 1 94 1.5t121.5 1.5t122.5 1.5t96 0.5z" />
<glyph unicode="&#xae;" horiz-adv-x="689" d="M342 -39q-60 0 -112.5 22t-91.5 61t-61 91.5t-22 113.5q0 60 22.5 113t62.5 93t93 62.5t113 22.5q61 0 113 -22.5t91.5 -62.5t61.5 -92.5t22 -111.5q0 -60 -22.5 -112.5t-62.5 -92.5t-93 -62.5t-114 -22.5zM343 0q70 0 127 34t91 91t34 125q0 69 -34 126t-90.5 90.5 t-125.5 33.5t-126 -33.5t-90.5 -90.5t-33.5 -127t33 -126.5t89 -89.5t126 -33zM295 92h-49v224q0 23 -1 50t-6 55h97q61 0 96 -28t35 -80q0 -41 -22.5 -65t-49.5 -33l69 -123l-52 -5q-13 23 -29.5 56.5t-29.5 60.5h-58v-112zM343 377h-48v-129h48q34 0 52.5 16t18.5 46 q0 29 -18.5 48t-52.5 19z" />
<glyph unicode="&#xaf;" horiz-adv-x="346" d="M49 639v50h272v-50h-272z" />
<glyph unicode="&#xb0;" horiz-adv-x="335" d="M164 306q-49 0 -82 31.5t-33 84.5q0 35 16.5 63.5t44.5 44.5t62 16q49 0 81.5 -31t32.5 -83q0 -35 -16.5 -63.5t-44.5 -45.5t-61 -17zM168 508q-36 0 -56.5 -25t-20.5 -59t21.5 -56.5t54.5 -22.5q34 0 55.5 24.5t21.5 60.5q0 33 -21 55.5t-55 22.5z" />
<glyph unicode="&#xb1;" d="M493 415h-177v-160h-52l-1 160h-183v48q31 1 80 1.5t103 1.5l-1 159h54v-158q52 0 98.5 0.5t78.5 0.5l5 -6zM510 92h-450v48q30 1 75 1.5t96.5 1t103.5 1t97.5 1t77.5 0.5l5 -6z" />
<glyph unicode="&#xb2;" horiz-adv-x="367" d="M44 352l-8 46q51 38 100 78.5t81.5 82t32.5 83.5q0 36 -24.5 58t-63.5 22q-61 0 -119 -44l-6 47q24 18 62 29.5t77 11.5q58 0 98 -30.5t40 -82.5q0 -36 -20 -70.5t-52.5 -66.5t-70.5 -61.5t-74 -54.5h119q55 0 105 6l-7 -54h-270z" />
<glyph unicode="&#xb3;" horiz-adv-x="357" d="M48 733q19 12 54 22.5t71 10.5q52 0 88 -24t36 -65q0 -34 -29 -64.5t-83 -46.5q59 -4 95.5 -30t36.5 -73q0 -53 -46.5 -86t-122.5 -33q-28 0 -57.5 4t-50.5 10l6 42q21 -6 49.5 -10t50.5 -4q46 0 76.5 20t30.5 55q0 38 -35.5 53.5t-82.5 15.5q-25 0 -47 -4v42 q69 12 106.5 38t37.5 60q0 25 -19.5 40.5t-55.5 15.5q-28 0 -55.5 -9t-49.5 -22z" />
<glyph unicode="&#xb4;" horiz-adv-x="247" d="M191 744l4 -14q-31 -47 -71 -85t-89 -71l-25 13q32 40 61.5 83.5t49.5 87.5z" />
<glyph unicode="&#xb6;" horiz-adv-x="602" d="M239 -118q81 0 126.5 51t45.5 168v545h-73v-421h-29q-66 0 -119.5 27.5t-85 79.5t-31.5 126q0 75 33 125.5t88.5 76.5t123.5 26h152v-596q0 -124 -59 -192.5t-165 -68.5q-37 0 -76 7.5t-69 18.5l5 54q36 -13 69 -20t64 -7z" />
<glyph unicode="&#xb7;" horiz-adv-x="296" d="M205 283q0 -26 -17.5 -43.5t-40.5 -17.5q-24 0 -40.5 16t-16.5 41t18 43t43 18q23 0 38.5 -16t15.5 -41z" />
<glyph unicode="&#xb8;" horiz-adv-x="301" d="M231 -128q0 -30 -22 -50t-57 -31.5t-72 -14.5l-4 32q43 8 68 22t25 35q0 20 -19.5 29t-46.5 10l-10 16l29 92l45 -1l-23 -70q35 -5 61 -21t26 -48z" />
<glyph unicode="&#xb9;" horiz-adv-x="247" d="M102 703h-1l-72 -14l-10 36l137 41l7 -6v-408h-62v266v46t1 39z" />
<glyph unicode="&#xba;" horiz-adv-x="473" d="M413 486q0 -67 -25.5 -112.5t-66.5 -68.5t-89 -23q-75 0 -123.5 52t-48.5 145q0 67 24.5 113t66 69.5t90.5 23.5q76 0 124 -53t48 -146zM125 485q0 -71 28 -115.5t82 -44.5q50 0 81 40.5t31 116.5q0 72 -27.5 116.5t-81.5 44.5q-50 0 -81.5 -40t-31.5 -118z" />
<glyph unicode="&#xbb;" horiz-adv-x="455" d="M401 283q-44 -39 -84.5 -87.5t-84.5 -106.5l-20 11q22 54 51.5 102.5t61.5 90.5q-32 42 -61.5 90.5t-51.5 103.5l20 10q44 -58 84.5 -106.5t84.5 -86.5v-21zM229 283q-44 -39 -84.5 -87.5t-84.5 -106.5l-20 11q23 54 52 102.5t62 90.5q-33 42 -62 90.5t-52 103.5l20 10 q44 -58 84.5 -106.5t84.5 -86.5v-21z" />
<glyph unicode="&#xbc;" horiz-adv-x="843" d="M132 643h-1l-72 -14l-10 36l137 41l7 -6v-408h-62v266v46t1 39zM620 700l-425 -710h-46l424 710h47zM449 137l181 261l67 6l6 -6v-257q33 1 64 5l-7 -50h-57v-106h-59v106h-187zM502 140v-1q29 1 59 1h72h11l1 110v57.5t2 44.5h-1z" />
<glyph unicode="&#xbd;" horiz-adv-x="874" d="M132 643h-1l-72 -14l-10 36l137 41l7 -6v-408h-62v266v46t1 39zM620 700l-425 -710h-46l424 710h47zM521 -10l-8 46q51 38 100 78.5t81.5 82t32.5 83.5q0 36 -24.5 58t-63.5 22q-61 0 -119 -44l-6 47q24 18 62 29.5t77 11.5q58 0 98 -30.5t40 -82.5q0 -36 -20 -70.5 t-52.5 -66.5t-70.5 -61.5t-74 -54.5h119q55 0 105 6l-7 -54h-270z" />
<glyph unicode="&#xbe;" horiz-adv-x="929" d="M78 673q19 12 54 22.5t71 10.5q52 0 88 -24.5t36 -65.5q0 -34 -29 -64t-83 -46q59 -5 95.5 -31t36.5 -72q0 -53 -46.5 -86t-122.5 -33q-28 0 -57.5 4t-50.5 10l6 41q21 -6 49.5 -10t50.5 -4q46 0 76.5 20.5t30.5 54.5q0 39 -35.5 54t-82.5 15q-25 0 -47 -4v42 q69 12 106.5 38.5t37.5 59.5q0 25 -19.5 40.5t-55.5 15.5q-28 0 -55.5 -8.5t-49.5 -21.5zM705 700l-425 -710h-45l424 710h46zM535 137l180 261l67 6l7 -6v-257q33 1 63 5l-7 -50h-56v-106h-59v106h-187zM588 140v-1q29 1 58.5 1h71.5h12v110q0 36 0.5 57.5t1.5 44.5h-1z " />
<glyph unicode="&#xbf;" horiz-adv-x="432" d="M192 446q0 23 14 41.5t40 18.5q22 0 35 -15t13 -37q0 -24 -16 -42t-40 -18q-21 0 -33.5 14.5t-12.5 37.5zM227 283l46 1q4 -10 6.5 -23t2.5 -23q0 -30 -17.5 -53.5t-43.5 -45t-51.5 -45t-43 -52.5t-17.5 -68q0 -51 31.5 -83t85.5 -32q37 0 81 20.5t75 64.5l34 -40 q-33 -48 -86.5 -76t-117.5 -28q-83 0 -132.5 44.5t-49.5 118.5q0 47 19.5 83.5t48 64t57 50t48 42.5t19.5 41q0 15 -3 31z" />
<glyph unicode="&#xc0;" horiz-adv-x="612" d="M425 777q-67 8 -127 25.5t-115 48.5l-3 14l49 46q43 -33 96 -60.5t108 -50.5zM98 0h-74l205 589q9 28 18 55t15 48l76 4l11 -10l239 -686h-79l-70 199h-271zM240 404l-51 -145h229l-50 145q-20 58 -36.5 111t-26.5 98h-2q-11 -45 -28 -99.5t-35 -109.5z" />
<glyph unicode="&#xc1;" horiz-adv-x="612" d="M433 865l-3 -14q-55 -31 -115.5 -48.5t-126.5 -25.5l-8 23q55 23 108 50.5t96 60.5zM98 0h-74l205 589q9 28 18 55t15 48l76 4l11 -10l239 -686h-79l-70 199h-271zM240 404l-51 -145h229l-50 145q-20 58 -36.5 111t-26.5 98h-2q-11 -45 -28 -99.5t-35 -109.5z" />
<glyph unicode="&#xc2;" horiz-adv-x="612" d="M177 771l-22 19q33 30 61.5 59t54.5 60l61 6q55 -64 124 -125l-21 -19q-37 20 -70 42t-64 45q-28 -23 -59 -45t-65 -42zM98 0h-74l205 589q9 28 18 55t15 48l76 4l11 -10l239 -686h-79l-70 199h-271zM240 404l-51 -145h229l-50 145q-20 58 -36.5 111t-26.5 98h-2 q-11 -45 -28 -99.5t-35 -109.5z" />
<glyph unicode="&#xc3;" horiz-adv-x="612" d="M237 903q29 0 52.5 -14t45.5 -28t47 -14q23 0 39 16t27 38l23 -4q-2 -27 -13.5 -51.5t-31.5 -40t-49 -15.5t-53.5 14t-47 28t-46.5 14q-22 0 -38 -15.5t-28 -37.5l-23 4q3 23 13.5 48t31 41.5t51.5 16.5zM98 0h-74l205 589q9 28 18 55t15 48l76 4l11 -10l239 -686h-79 l-70 199h-271zM240 404l-51 -145h229l-50 145q-20 58 -36.5 111t-26.5 98h-2q-11 -45 -28 -99.5t-35 -109.5z" />
<glyph unicode="&#xc4;" horiz-adv-x="612" d="M459 846q0 -22 -14.5 -40t-39.5 -18q-22 0 -35 14t-13 34q0 22 15.5 39.5t39.5 17.5q21 0 34 -13t13 -34zM256 846q0 -22 -14 -40t-40 -18q-22 0 -35 14t-13 34q0 22 15.5 39.5t39.5 17.5q21 0 34 -13t13 -34zM98 0h-74l205 589q9 28 18 55t15 48l76 4l11 -10l239 -686 h-79l-70 199h-271zM240 404l-51 -145h229l-50 145q-20 58 -36.5 111t-26.5 98h-2q-11 -45 -28 -99.5t-35 -109.5z" />
<glyph unicode="&#xc5;" horiz-adv-x="612" d="M397 847q0 -37 -28 -63t-67 -26q-35 0 -60.5 22t-25.5 55q0 37 28.5 63t68.5 26q36 0 60 -22t24 -55zM259 839q0 -21 13 -34t33 -13q21 0 34.5 15t13.5 36q0 20 -11.5 33.5t-32.5 13.5t-35.5 -15t-14.5 -36zM98 0h-74l205 589q9 28 18 55t15 48l76 4l11 -10l239 -686h-79 l-70 199h-271zM240 404l-51 -145h229l-50 145q-20 58 -36.5 111t-26.5 98h-2q-11 -45 -28 -99.5t-35 -109.5z" />
<glyph unicode="&#xc6;" horiz-adv-x="852" d="M98 0h-74l279 589q14 28 25.5 52.5t21.5 44.5h355l9 -8l-1 -56l-266 5l37 -258l224 2l-1 -61l-215 3l36 -254l284 5v-64h-354l-28 199h-238zM288 404l-68 -145h202l-20 145q-7 56 -12.5 108.5t-7.5 100.5h-2q-15 -39 -40 -94t-52 -115z" />
<glyph unicode="&#xc7;" horiz-adv-x="592" d="M448 -130q0 -30 -22 -50t-56.5 -31t-72.5 -15l-3 32q43 8 67.5 22t24.5 36q0 20 -19.5 28.5t-46.5 10.5l-10 15l23 73q-80 5 -139.5 46.5t-92.5 116t-33 179.5q0 113 38.5 194t105.5 125t152 44q47 0 93.5 -11t79.5 -32l-15 -71q-30 22 -70 35t-85 13q-62 0 -111.5 -33.5 t-78 -98.5t-28.5 -159q0 -83 25 -146.5t74 -100t119 -36.5q47 0 90.5 15t76.5 38l9 -65q-32 -24 -75.5 -37t-88.5 -16l-17 -52q35 -4 60.5 -20.5t25.5 -48.5z" />
<glyph unicode="&#xc8;" horiz-adv-x="521" d="M405 777q-67 8 -127 25.5t-115 48.5l-3 14l49 46q43 -33 96 -60.5t108 -50.5zM481 64v-64h-378v531q0 44 -2 80.5t-6 74.5h369l8 -8l-1 -56l-291 6v-260l247 3l-1 -61l-246 3v-254z" />
<glyph unicode="&#xc9;" horiz-adv-x="521" d="M413 865l-3 -14q-55 -31 -115.5 -48.5t-126.5 -25.5l-8 23q55 23 108 50.5t96 60.5zM481 64v-64h-378v531q0 44 -2 80.5t-6 74.5h369l8 -8l-1 -56l-291 6v-260l247 3l-1 -61l-246 3v-254z" />
<glyph unicode="&#xca;" horiz-adv-x="521" d="M157 771l-22 19q33 30 61.5 59t54.5 60l61 6q55 -64 124 -125l-21 -19q-37 20 -70 42t-64 45q-28 -23 -59 -45t-65 -42zM481 64v-64h-378v531q0 44 -2 80.5t-6 74.5h369l8 -8l-1 -56l-291 6v-260l247 3l-1 -61l-246 3v-254z" />
<glyph unicode="&#xcb;" horiz-adv-x="521" d="M439 846q0 -22 -14.5 -40t-39.5 -18q-22 0 -35 14t-13 34q0 22 15.5 39.5t39.5 17.5q21 0 34 -13t13 -34zM236 846q0 -22 -14 -40t-40 -18q-22 0 -35 14t-13 34q0 22 15.5 39.5t39.5 17.5q21 0 34 -13t13 -34zM481 64v-64h-378v531q0 44 -2 80.5t-6 74.5h369l8 -8l-1 -56 l-291 6v-260l247 3l-1 -61l-246 3v-254z" />
<glyph unicode="&#xcc;" horiz-adv-x="283" d="M256 777q-67 8 -127 25.5t-115 48.5l-3 14l49 46q43 -33 96 -60.5t108 -50.5zM180 0h-77v529q0 89 -8 157l77 10l8 -8v-688z" />
<glyph unicode="&#xcd;" horiz-adv-x="283" d="M264 865l-3 -14q-55 -31 -115.5 -48.5t-126.5 -25.5l-8 23q55 23 108 50.5t96 60.5zM180 0h-77v529q0 89 -8 157l77 10l8 -8v-688z" />
<glyph unicode="&#xce;" horiz-adv-x="283" d="M8 771l-22 19q33 30 61.5 59t54.5 60l61 6q55 -64 124 -125l-21 -19q-37 20 -70 42t-64 45q-28 -23 -59 -45t-65 -42zM180 0h-77v529q0 89 -8 157l77 10l8 -8v-688z" />
<glyph unicode="&#xcf;" horiz-adv-x="283" d="M290 846q0 -22 -14.5 -40t-39.5 -18q-22 0 -35 14t-13 34q0 22 15.5 39.5t39.5 17.5q21 0 34 -13t13 -34zM87 846q0 -22 -14 -40t-40 -18q-22 0 -35 14t-13 34q0 22 15.5 39.5t39.5 17.5q21 0 34 -13t13 -34zM180 0h-77v529q0 89 -8 157l77 10l8 -8v-688z" />
<glyph unicode="&#xd0;" horiz-adv-x="681" d="M613 346q0 -110 -43.5 -187t-121 -118t-178.5 -41h-167v321h-89v45h89v165q0 44 -2 80.5t-6 74.5h188q93 0 168 -40.5t118.5 -116.5t43.5 -183zM381 321h-201v-261h93q128 0 193.5 75t65.5 207q0 87 -31 151t-88.5 99t-136.5 35h-96v-261h201v-45z" />
<glyph unicode="&#xd1;" horiz-adv-x="703" d="M276 903q29 0 52.5 -14t45.5 -28t47 -14q23 0 39 16t27 38l23 -4q-2 -27 -13.5 -51.5t-31.5 -40t-49 -15.5t-53.5 14t-47 28t-46.5 14q-22 0 -38 -15.5t-28 -37.5l-23 4q3 23 13.5 48t31 41.5t51.5 16.5zM358 398q36 -59 66.5 -107.5t56.5 -94.5t49 -96h2q-2 24 -3 45.5 t-1.5 49t-1 68t-0.5 101.5v151q0 49 -2 90t-6 81l74 10l9 -9v-687h-78q-48 77 -93 151t-89 146q-37 58 -66 105t-53.5 90.5t-48.5 91.5h-1q4 -64 5 -122t1 -115v-347h-75v531q0 44 -2 81.5t-6 73.5l81 10q48 -79 93 -153t89 -145z" />
<glyph unicode="&#xd2;" horiz-adv-x="699" d="M474 775q-67 7 -127 24.5t-115 49.5l-3 13l49 46q43 -32 96 -59.5t108 -50.5zM632 345q0 -116 -39.5 -195t-105 -119.5t-143.5 -40.5q-79 0 -141.5 40t-98.5 116.5t-36 186.5q0 112 38 193.5t104 125.5t147 44q80 0 142 -42t97.5 -121t35.5 -188zM149 341q0 -86 24 -151 t68.5 -101.5t107.5 -36.5q92 0 147 76t55 214q0 86 -22.5 152t-66 103t-106.5 37q-61 0 -107.5 -35t-73 -100.5t-26.5 -157.5z" />
<glyph unicode="&#xd3;" horiz-adv-x="699" d="M482 862l-3 -13q-55 -32 -115 -49.5t-127 -24.5l-8 23q55 23 108 50.5t96 59.5zM632 345q0 -116 -39.5 -195t-105 -119.5t-143.5 -40.5q-79 0 -141.5 40t-98.5 116.5t-36 186.5q0 112 38 193.5t104 125.5t147 44q80 0 142 -42t97.5 -121t35.5 -188zM149 341 q0 -86 24 -151t68.5 -101.5t107.5 -36.5q92 0 147 76t55 214q0 86 -22.5 152t-66 103t-106.5 37q-61 0 -107.5 -35t-73 -100.5t-26.5 -157.5z" />
<glyph unicode="&#xd4;" horiz-adv-x="699" d="M226 768l-21 20q33 29 61 58.5t54 60.5l61 6q55 -64 125 -125l-22 -20q-36 21 -69.5 43t-63.5 44q-29 -22 -60 -44t-65 -43zM632 345q0 -116 -39.5 -195t-105 -119.5t-143.5 -40.5q-79 0 -141.5 40t-98.5 116.5t-36 186.5q0 112 38 193.5t104 125.5t147 44q80 0 142 -42 t97.5 -121t35.5 -188zM149 341q0 -86 24 -151t68.5 -101.5t107.5 -36.5q92 0 147 76t55 214q0 86 -22.5 152t-66 103t-106.5 37q-61 0 -107.5 -35t-73 -100.5t-26.5 -157.5z" />
<glyph unicode="&#xd5;" horiz-adv-x="699" d="M286 901q29 0 53 -14t46 -28t46 -14t39.5 15.5t27.5 37.5l23 -4q-3 -26 -14.5 -50.5t-31.5 -40.5t-49 -16t-53.5 14t-47 28.5t-45.5 14.5t-39 -15.5t-28 -38.5l-23 4q3 24 13.5 48.5t31 41.5t51.5 17zM632 345q0 -116 -39.5 -195t-105 -119.5t-143.5 -40.5 q-79 0 -141.5 40t-98.5 116.5t-36 186.5q0 112 38 193.5t104 125.5t147 44q80 0 142 -42t97.5 -121t35.5 -188zM149 341q0 -86 24 -151t68.5 -101.5t107.5 -36.5q92 0 147 76t55 214q0 86 -22.5 152t-66 103t-106.5 37q-61 0 -107.5 -35t-73 -100.5t-26.5 -157.5z" />
<glyph unicode="&#xd6;" horiz-adv-x="699" d="M508 844q0 -23 -14 -40.5t-40 -17.5q-22 0 -35 14t-13 34q0 22 15.5 39t39.5 17q21 0 34 -13t13 -33zM305 844q0 -23 -14 -40.5t-40 -17.5q-22 0 -35 14t-13 34q0 22 16 39t40 17q21 0 33.5 -13t12.5 -33zM632 345q0 -116 -39.5 -195t-105 -119.5t-143.5 -40.5 q-79 0 -141.5 40t-98.5 116.5t-36 186.5q0 112 38 193.5t104 125.5t147 44q80 0 142 -42t97.5 -121t35.5 -188zM149 341q0 -86 24 -151t68.5 -101.5t107.5 -36.5q92 0 147 76t55 214q0 86 -22.5 152t-66 103t-106.5 37q-61 0 -107.5 -35t-73 -100.5t-26.5 -157.5z" />
<glyph unicode="&#xd7;" d="M452 148l-163 163l-164 -164l-34 35l163 164l-163 164l34 34l79.5 -79.5l83.5 -83.5l163 163l35 -35l-163 -163q42 -42 83 -83.5t79 -78.5l-1 -8z" />
<glyph unicode="&#xd8;" horiz-adv-x="699" d="M632 345q0 -116 -39.5 -195t-105 -119.5t-143.5 -40.5q-121 0 -197 89l-71 -83l-35 31l78 91q-24 41 -37.5 95t-13.5 120q0 112 38 193.5t104 125.5t147 44q116 0 191 -85l70 80l36 -30l-78 -89q27 -44 41.5 -101t14.5 -126zM149 341q0 -91 27 -159l323 372 q-25 38 -61 59t-82 21q-61 0 -107.5 -35t-73 -100.5t-26.5 -157.5zM551 342q0 98 -29 168l-324 -373q26 -40 64 -62.5t87 -22.5q92 0 147 76t55 214z" />
<glyph unicode="&#xd9;" horiz-adv-x="653" d="M445 775q-67 7 -127 24.5t-115 49.5l-3 13l49 46q43 -32 96 -59.5t108 -50.5zM89 531q0 44 -2.5 81t-7.5 76l83 8l5 -5v-464q0 -85 46 -129.5t115 -44.5t115 44t46 130v314q0 43 -2.5 77.5t-7.5 69.5l85 8v-471q0 -78 -32.5 -130.5t-87.5 -78.5t-122 -26q-65 0 -118 26.5 t-84 78.5t-31 130v306z" />
<glyph unicode="&#xda;" horiz-adv-x="653" d="M453 862l-3 -13q-55 -32 -115 -49.5t-127 -24.5l-8 23q55 23 108 50.5t96 59.5zM89 531q0 44 -2.5 81t-7.5 76l83 8l5 -5v-464q0 -85 46 -129.5t115 -44.5t115 44t46 130v314q0 43 -2.5 77.5t-7.5 69.5l85 8v-471q0 -78 -32.5 -130.5t-87.5 -78.5t-122 -26 q-65 0 -118 26.5t-84 78.5t-31 130v306z" />
<glyph unicode="&#xdb;" horiz-adv-x="653" d="M197 768l-21 20q33 29 61 58.5t54 60.5l61 6q55 -64 125 -125l-22 -20q-36 21 -69.5 43t-63.5 44q-29 -22 -60 -44t-65 -43zM89 531q0 44 -2.5 81t-7.5 76l83 8l5 -5v-464q0 -85 46 -129.5t115 -44.5t115 44t46 130v314q0 43 -2.5 77.5t-7.5 69.5l85 8v-471 q0 -78 -32.5 -130.5t-87.5 -78.5t-122 -26q-65 0 -118 26.5t-84 78.5t-31 130v306z" />
<glyph unicode="&#xdc;" horiz-adv-x="653" d="M479 844q0 -23 -14 -40.5t-40 -17.5q-22 0 -35 14t-13 34q0 22 15.5 39t39.5 17q21 0 34 -13t13 -33zM276 844q0 -23 -14 -40.5t-40 -17.5q-22 0 -35 14t-13 34q0 22 16 39t40 17q21 0 33.5 -13t12.5 -33zM89 531q0 44 -2.5 81t-7.5 76l83 8l5 -5v-464q0 -85 46 -129.5 t115 -44.5t115 44t46 130v314q0 43 -2.5 77.5t-7.5 69.5l85 8v-471q0 -78 -32.5 -130.5t-87.5 -78.5t-122 -26q-65 0 -118 26.5t-84 78.5t-31 130v306z" />
<glyph unicode="&#xdd;" horiz-adv-x="560" d="M413 862l-4 -13q-55 -32 -115 -49.5t-127 -24.5l-8 23q55 23 108 50.5t96 59.5zM241 246l-218 443l83 7l117 -243q15 -32 33 -71t29 -70h2q14 33 32 72t33 70l115 242l64 -6l6 -8l-218 -439v-243h-78v246z" />
<glyph unicode="&#xde;" horiz-adv-x="557" d="M180 0h-77v531q0 44 -2 80.5t-6 74.5h85v-115h100q109 0 174 -58t65 -157q0 -72 -33 -120.5t-91 -73.5t-131 -25h-84v-137zM268 512h-88v-317h85q84 0 128.5 41.5t44.5 117.5q0 69 -40.5 113.5t-129.5 44.5z" />
<glyph unicode="&#xdf;" horiz-adv-x="601" d="M104 450l-75 3v33l75 10v25q0 89 29.5 140.5t75.5 73t96 21.5q77 0 125 -41.5t48 -106.5q0 -60 -36.5 -105t-91.5 -67q54 -20 96 -56.5t66 -85.5t24 -107q0 -59 -25 -103.5t-69.5 -69t-102.5 -24.5q-27 0 -52.5 5t-44.5 12v55q23 -9 46 -13t42 -4q64 0 97.5 40t33.5 101 q0 77 -52 136.5t-136 87.5v46q57 18 94 54t37 89q0 45 -28 75t-75 30q-28 0 -56 -14.5t-47 -51.5t-19 -107v-531h-75v450z" />
<glyph unicode="&#xe0;" horiz-adv-x="504" d="M307 577q-50 32 -89.5 70t-71.5 85l5 14l69 14q20 -44 49.5 -87t62.5 -84zM405 144q0 -36 5 -70.5t19 -73.5l-67 -10q-16 31 -24 70h-1q-20 -26 -61 -48t-92 -22q-61 0 -95 33t-34 85q0 57 38.5 93.5t101.5 55.5t136 23v66q0 48 -25 74.5t-78 26.5q-39 0 -78.5 -13 t-73.5 -34l-4 64q32 16 78 29t94 13q81 0 122 -39t41 -106q0 -34 -0.5 -76t-1 -80t-0.5 -61zM131 119q0 -30 19.5 -53.5t59.5 -23.5q32 0 66 16.5t55 39.5v144q-54 -4 -99.5 -18.5t-73 -40.5t-27.5 -64z" />
<glyph unicode="&#xe1;" horiz-adv-x="504" d="M327 744l5 -14q-32 -47 -72 -85t-89 -71l-25 13q32 40 62 83.5t50 87.5zM405 144q0 -36 5 -70.5t19 -73.5l-67 -10q-16 31 -24 70h-1q-20 -26 -61 -48t-92 -22q-61 0 -95 33t-34 85q0 57 38.5 93.5t101.5 55.5t136 23v66q0 48 -25 74.5t-78 26.5q-39 0 -78.5 -13 t-73.5 -34l-4 64q32 16 78 29t94 13q81 0 122 -39t41 -106q0 -34 -0.5 -76t-1 -80t-0.5 -61zM131 119q0 -30 19.5 -53.5t59.5 -23.5q32 0 66 16.5t55 39.5v144q-54 -4 -99.5 -18.5t-73 -40.5t-27.5 -64z" />
<glyph unicode="&#xe2;" horiz-adv-x="504" d="M125 572l-24 19q29 38 55 76.5t49 79.5l61 6q25 -41 53.5 -81.5t59.5 -80.5l-24 -19q-31 27 -61 57t-58 61q-26 -30 -53.5 -60t-57.5 -58zM405 144q0 -36 5 -70.5t19 -73.5l-67 -10q-16 31 -24 70h-1q-20 -26 -61 -48t-92 -22q-61 0 -95 33t-34 85q0 57 38.5 93.5 t101.5 55.5t136 23v66q0 48 -25 74.5t-78 26.5q-39 0 -78.5 -13t-73.5 -34l-4 64q32 16 78 29t94 13q81 0 122 -39t41 -106q0 -34 -0.5 -76t-1 -80t-0.5 -61zM131 119q0 -30 19.5 -53.5t59.5 -23.5q32 0 66 16.5t55 39.5v144q-54 -4 -99.5 -18.5t-73 -40.5t-27.5 -64z" />
<glyph unicode="&#xe3;" horiz-adv-x="504" d="M170 723q27 0 50 -14t44 -28t43 -14q21 0 35 15.5t25 37.5l25 -4q-3 -26 -14 -51.5t-30 -42.5t-46 -17t-50.5 14t-45 28t-42.5 14q-20 0 -34.5 -15.5t-25.5 -38.5l-24 4q3 25 13.5 51t29.5 43.5t47 17.5zM405 144q0 -36 5 -70.5t19 -73.5l-67 -10q-16 31 -24 70h-1 q-20 -26 -61 -48t-92 -22q-61 0 -95 33t-34 85q0 57 38.5 93.5t101.5 55.5t136 23v66q0 48 -25 74.5t-78 26.5q-39 0 -78.5 -13t-73.5 -34l-4 64q32 16 78 29t94 13q81 0 122 -39t41 -106q0 -34 -0.5 -76t-1 -80t-0.5 -61zM131 119q0 -30 19.5 -53.5t59.5 -23.5 q32 0 66 16.5t55 39.5v144q-54 -4 -99.5 -18.5t-73 -40.5t-27.5 -64z" />
<glyph unicode="&#xe4;" horiz-adv-x="504" d="M188 669q0 -24 -14 -43t-38 -19q-22 0 -35 15.5t-13 36.5q0 25 16 43.5t39 18.5q21 0 33 -14.5t12 -37.5zM389 669q0 -24 -14 -43t-39 -19q-21 0 -34 15.5t-13 36.5q0 25 15.5 43.5t39.5 18.5q20 0 32.5 -14.5t12.5 -37.5zM405 144q0 -36 5 -70.5t19 -73.5l-67 -10 q-16 31 -24 70h-1q-20 -26 -61 -48t-92 -22q-61 0 -95 33t-34 85q0 57 38.5 93.5t101.5 55.5t136 23v66q0 48 -25 74.5t-78 26.5q-39 0 -78.5 -13t-73.5 -34l-4 64q32 16 78 29t94 13q81 0 122 -39t41 -106q0 -34 -0.5 -76t-1 -80t-0.5 -61zM131 119q0 -30 19.5 -53.5 t59.5 -23.5q32 0 66 16.5t55 39.5v144q-54 -4 -99.5 -18.5t-73 -40.5t-27.5 -64z" />
<glyph unicode="&#xe5;" horiz-adv-x="504" d="M333 661q0 -36 -27.5 -62.5t-67.5 -26.5q-34 0 -59.5 22t-25.5 55q0 37 28.5 63t68.5 26q36 0 59.5 -22t23.5 -55zM196 653q0 -20 12.5 -33t33.5 -13t34.5 14.5t13.5 35.5q0 20 -11.5 33.5t-32.5 13.5q-22 0 -36 -15t-14 -36zM405 144q0 -36 5 -70.5t19 -73.5l-67 -10 q-16 31 -24 70h-1q-20 -26 -61 -48t-92 -22q-61 0 -95 33t-34 85q0 57 38.5 93.5t101.5 55.5t136 23v66q0 48 -25 74.5t-78 26.5q-39 0 -78.5 -13t-73.5 -34l-4 64q32 16 78 29t94 13q81 0 122 -39t41 -106q0 -34 -0.5 -76t-1 -80t-0.5 -61zM131 119q0 -30 19.5 -53.5 t59.5 -23.5q32 0 66 16.5t55 39.5v144q-54 -4 -99.5 -18.5t-73 -40.5t-27.5 -64z" />
<glyph unicode="&#xe6;" horiz-adv-x="777" d="M718 257l-15 -15h-293q3 -98 47 -146t113 -48q37 0 70.5 12.5t60.5 30.5l6 -55q-21 -15 -61 -30.5t-93 -15.5q-63 0 -111 26.5t-77 76.5q-17 -26 -45 -49.5t-64 -38.5t-75 -15q-58 0 -92 33t-34 86q0 56 38.5 92.5t101.5 55.5t136 23v66q0 43 -22.5 72t-81.5 29 q-39 0 -78.5 -13t-72.5 -34l-4 64q32 16 77.5 29t95.5 13q56 0 92.5 -19t53.5 -54q30 36 70.5 54.5t85.5 18.5q79 0 125.5 -52t46.5 -138v-29.5t-1 -29.5zM543 454q-51 0 -89.5 -44t-43.5 -131l233 7q0 8 0.5 17t0.5 18q0 60 -26.5 96.5t-74.5 36.5zM131 119 q0 -30 19.5 -53.5t59.5 -23.5q42 0 81 24t60 58q-20 51 -20 118q-54 -4 -99.5 -19t-73 -40.5t-27.5 -63.5z" />
<glyph unicode="&#xe7;" horiz-adv-x="479" d="M372 -130q0 -30 -22 -50t-56.5 -31t-72.5 -15l-3 32q43 8 67.5 22t24.5 36q0 20 -19.5 28.5t-46.5 10.5l-10 15l23 74q-86 9 -139 73.5t-53 178.5q0 83 29.5 142t82 89.5t120.5 30.5q78 0 135 -33l-19 -63q-23 16 -53 26.5t-63 10.5q-69 0 -111 -49.5t-42 -145.5 q0 -93 40.5 -148.5t115.5 -55.5q36 0 68 12t55 26l6 -55q-24 -17 -56.5 -27.5t-70.5 -13.5l-16 -51q35 -4 60.5 -20.5t25.5 -48.5z" />
<glyph unicode="&#xe8;" horiz-adv-x="511" d="M337 577q-50 32 -89.5 70t-71.5 85l5 14l69 14q20 -44 49.5 -87t62.5 -84zM452 257l-15 -15h-293q3 -98 47 -146t113 -48q37 0 70.5 12.5t60.5 30.5l6 -55q-21 -15 -61 -30.5t-93 -15.5q-100 0 -161 65.5t-61 186.5q0 86 30 144.5t79.5 89t106.5 30.5q79 0 125.5 -52 t46.5 -138v-29.5t-1 -29.5zM277 454q-51 0 -89.5 -44t-43.5 -131l233 7q0 8 0.5 17t0.5 19q0 59 -26.5 95.5t-74.5 36.5z" />
<glyph unicode="&#xe9;" horiz-adv-x="511" d="M357 744l5 -14q-32 -47 -72 -85t-89 -71l-25 13q32 40 62 83.5t50 87.5zM452 257l-15 -15h-293q3 -98 47 -146t113 -48q37 0 70.5 12.5t60.5 30.5l6 -55q-21 -15 -61 -30.5t-93 -15.5q-100 0 -161 65.5t-61 186.5q0 86 30 144.5t79.5 89t106.5 30.5q79 0 125.5 -52 t46.5 -138v-29.5t-1 -29.5zM277 454q-51 0 -89.5 -44t-43.5 -131l233 7q0 8 0.5 17t0.5 19q0 59 -26.5 95.5t-74.5 36.5z" />
<glyph unicode="&#xea;" horiz-adv-x="511" d="M155 572l-24 19q29 38 55 76.5t49 79.5l61 6q25 -41 53.5 -81.5t59.5 -80.5l-24 -19q-31 27 -61 57t-58 61q-26 -30 -53.5 -60t-57.5 -58zM452 257l-15 -15h-293q3 -98 47 -146t113 -48q37 0 70.5 12.5t60.5 30.5l6 -55q-21 -15 -61 -30.5t-93 -15.5q-100 0 -161 65.5 t-61 186.5q0 86 30 144.5t79.5 89t106.5 30.5q79 0 125.5 -52t46.5 -138v-29.5t-1 -29.5zM277 454q-51 0 -89.5 -44t-43.5 -131l233 7q0 8 0.5 17t0.5 19q0 59 -26.5 95.5t-74.5 36.5z" />
<glyph unicode="&#xeb;" horiz-adv-x="511" d="M218 669q0 -24 -14 -43t-38 -19q-22 0 -35 15.5t-13 36.5q0 25 16 43.5t39 18.5q21 0 33 -14.5t12 -37.5zM419 669q0 -24 -14 -43t-39 -19q-21 0 -34 15.5t-13 36.5q0 25 15.5 43.5t39.5 18.5q20 0 32.5 -14.5t12.5 -37.5zM452 257l-15 -15h-293q3 -98 47 -146t113 -48 q37 0 70.5 12.5t60.5 30.5l6 -55q-21 -15 -61 -30.5t-93 -15.5q-100 0 -161 65.5t-61 186.5q0 86 30 144.5t79.5 89t106.5 30.5q79 0 125.5 -52t46.5 -138v-29.5t-1 -29.5zM277 454q-51 0 -89.5 -44t-43.5 -131l233 7q0 8 0.5 17t0.5 19q0 59 -26.5 95.5t-74.5 36.5z" />
<glyph unicode="&#xec;" horiz-adv-x="269" d="M199 577q-50 32 -89.5 70t-71.5 85l5 14l69 14q20 -44 49.5 -87t62.5 -84zM96 0v339q0 44 -1.5 80t-7.5 75l76 12l8 -8v-498h-75z" />
<glyph unicode="&#xed;" horiz-adv-x="269" d="M219 744l5 -14q-32 -47 -72 -85t-89 -71l-25 13q32 40 62 83.5t50 87.5zM96 0v339q0 44 -1.5 80t-7.5 75l76 12l8 -8v-498h-75z" />
<glyph unicode="&#xee;" horiz-adv-x="269" d="M46 580l-24 13q18 40 35 79.5t32 80.5l74 6q17 -42 36 -83.5t40 -82.5l-24 -13q-24 26 -46 55.5t-43 60.5q-19 -31 -38.5 -60.5t-41.5 -55.5zM96 0v339q0 44 -1.5 80t-7.5 75l76 12l8 -8v-498h-75z" />
<glyph unicode="&#xef;" horiz-adv-x="269" d="M103 672q0 -24 -13 -43t-37 -19q-21 0 -33 15t-12 37q0 24 15 42.5t37 18.5q20 0 31.5 -14t11.5 -37zM254 672q0 -24 -13.5 -43t-37.5 -19q-20 0 -32 15t-12 37q0 24 14.5 42.5t36.5 18.5q20 0 32 -14t12 -37zM96 0v339q0 44 -1.5 80t-7.5 75l76 12l8 -8v-498h-75z" />
<glyph unicode="&#xf0;" horiz-adv-x="574" d="M290 -10q-61 0 -108.5 30t-74.5 87t-27 137q0 83 28 139t75 85t103 29q80 0 129 -54q-15 47 -41.5 89.5t-61.5 78.5l-126 -74l-25 39l116 69q-43 37 -95 67l28 44q69 -31 124 -78l120 72l24 -39l-109 -65q68 -70 105 -165.5t37 -212.5q0 -96 -30.5 -157.5t-81 -91 t-109.5 -29.5zM298 443q-60 0 -99.5 -49.5t-39.5 -148.5q0 -87 34 -142.5t100 -55.5q61 0 100.5 50.5t39.5 146.5q0 90 -35.5 144.5t-99.5 54.5z" />
<glyph unicode="&#xf1;" horiz-adv-x="570" d="M209 723q27 0 50 -14t44 -28t43 -14q21 0 35 15.5t25 37.5l25 -4q-3 -26 -14 -51.5t-30 -42.5t-46 -17t-50.5 14t-45 28t-42.5 14q-20 0 -34.5 -15.5t-25.5 -38.5l-24 4q3 25 13.5 51t29.5 43.5t47 17.5zM175 0h-75v341q0 46 -5 79t-15 69l69 17q15 -35 23 -74 q37 36 79.5 55t87.5 19q63 0 98.5 -37t35.5 -109v-360h-75v344q0 105 -90 105q-64 0 -133 -59v-390z" />
<glyph unicode="&#xf2;" horiz-adv-x="559" d="M347 577q-49 32 -89 70t-71 85l5 14l69 14q20 -44 49.5 -87t61.5 -84zM494 252q0 -87 -30.5 -145.5t-80.5 -87.5t-109 -29q-61 0 -108 30t-74 86.5t-27 136.5q0 86 30 144.5t80.5 88.5t109.5 30q62 0 109 -30.5t73.5 -87.5t26.5 -136zM144 250q0 -92 33.5 -150t100.5 -58 q61 0 99.5 52.5t38.5 151.5q0 93 -34 150.5t-100 57.5q-61 0 -99.5 -51t-38.5 -153z" />
<glyph unicode="&#xf3;" horiz-adv-x="559" d="M368 744l4 -14q-31 -47 -71 -85t-89 -71l-25 13q32 40 61.5 83.5t49.5 87.5zM494 252q0 -87 -30.5 -145.5t-80.5 -87.5t-109 -29q-61 0 -108 30t-74 86.5t-27 136.5q0 86 30 144.5t80.5 88.5t109.5 30q62 0 109 -30.5t73.5 -87.5t26.5 -136zM144 250q0 -92 33.5 -150 t100.5 -58q61 0 99.5 52.5t38.5 151.5q0 93 -34 150.5t-100 57.5q-61 0 -99.5 -51t-38.5 -153z" />
<glyph unicode="&#xf4;" horiz-adv-x="559" d="M166 572l-24 19q28 38 54 76.5t50 79.5l61 6q25 -41 53 -81.5t60 -80.5l-24 -19q-32 27 -62 57t-58 61q-25 -30 -53 -60t-57 -58zM494 252q0 -87 -30.5 -145.5t-80.5 -87.5t-109 -29q-61 0 -108 30t-74 86.5t-27 136.5q0 86 30 144.5t80.5 88.5t109.5 30q62 0 109 -30.5 t73.5 -87.5t26.5 -136zM144 250q0 -92 33.5 -150t100.5 -58q61 0 99.5 52.5t38.5 151.5q0 93 -34 150.5t-100 57.5q-61 0 -99.5 -51t-38.5 -153z" />
<glyph unicode="&#xf5;" horiz-adv-x="559" d="M211 723q27 0 50 -14t44 -28t43 -14q20 0 34.5 15.5t25.5 37.5l24 -4q-3 -26 -13.5 -51.5t-29.5 -42.5t-46 -17t-50.5 14t-45.5 28t-42 14t-34.5 -15.5t-25.5 -38.5l-24 4q3 25 13.5 51t29.5 43.5t47 17.5zM494 252q0 -87 -30.5 -145.5t-80.5 -87.5t-109 -29 q-61 0 -108 30t-74 86.5t-27 136.5q0 86 30 144.5t80.5 88.5t109.5 30q62 0 109 -30.5t73.5 -87.5t26.5 -136zM144 250q0 -92 33.5 -150t100.5 -58q61 0 99.5 52.5t38.5 151.5q0 93 -34 150.5t-100 57.5q-61 0 -99.5 -51t-38.5 -153z" />
<glyph unicode="&#xf6;" horiz-adv-x="559" d="M229 669q0 -24 -14 -43t-39 -19q-21 0 -34 15.5t-13 36.5q0 25 15.5 43.5t39.5 18.5q20 0 32.5 -14.5t12.5 -37.5zM430 669q0 -24 -14 -43t-39 -19q-22 0 -34.5 15.5t-12.5 36.5q0 25 15.5 43.5t38.5 18.5q21 0 33.5 -14.5t12.5 -37.5zM494 252q0 -87 -30.5 -145.5 t-80.5 -87.5t-109 -29q-61 0 -108 30t-74 86.5t-27 136.5q0 86 30 144.5t80.5 88.5t109.5 30q62 0 109 -30.5t73.5 -87.5t26.5 -136zM144 250q0 -92 33.5 -150t100.5 -58q61 0 99.5 52.5t38.5 151.5q0 93 -34 150.5t-100 57.5q-61 0 -99.5 -51t-38.5 -153z" />
<glyph unicode="&#xf7;" d="M340 540q0 -25 -16 -41.5t-40 -16.5q-20 0 -32.5 13.5t-12.5 32.5q0 24 16.5 41.5t40.5 17.5q18 0 31 -13t13 -34zM510 322h-450v47q30 1 75 2t96.5 1.5t103.5 1t97.5 0.5h77.5l5 -5zM341 168q0 -25 -16 -41.5t-40 -16.5q-20 0 -32.5 13.5t-12.5 32.5q0 24 16.5 41.5 t40.5 17.5q18 0 31 -13t13 -34z" />
<glyph unicode="&#xf8;" horiz-adv-x="559" d="M494 252q0 -87 -30.5 -145.5t-80.5 -87.5t-109 -29q-90 0 -147 63l-55 -59l-32 31l61 65q-17 30 -26.5 68.5t-9.5 84.5q0 86 30 144.5t80.5 88.5t109.5 30q89 0 146 -62l55 59l33 -30l-62 -66q18 -31 27.5 -70t9.5 -85zM144 250q-1 -57 12 -100l228 243q-17 29 -42.5 45 t-59.5 16q-61 0 -99.5 -51t-38.5 -153zM416 246q0 58 -13 102l-228 -243q16 -30 42 -46.5t61 -16.5q61 0 99.5 52.5t38.5 151.5z" />
<glyph unicode="&#xf9;" horiz-adv-x="560" d="M347 577q-49 32 -89 70t-71 85l4 14l70 14q19 -44 49 -87t62 -84zM96 339q0 44 -1.5 80.5t-5.5 74.5l74 12l8 -8v-351q0 -47 21.5 -72t64.5 -25q61 0 127 59v387l75 10v-365q0 -42 4.5 -74.5t14.5 -64.5l-64 -12q-8 16 -14 36.5t-10 38.5h-2q-75 -75 -160 -75 q-63 0 -97.5 35.5t-34.5 99.5v214z" />
<glyph unicode="&#xfa;" horiz-adv-x="560" d="M367 744l5 -14q-31 -47 -71 -85t-89 -71l-25 13q32 40 61.5 83.5t49.5 87.5zM96 339q0 44 -1.5 80.5t-5.5 74.5l74 12l8 -8v-351q0 -47 21.5 -72t64.5 -25q61 0 127 59v387l75 10v-365q0 -42 4.5 -74.5t14.5 -64.5l-64 -12q-8 16 -14 36.5t-10 38.5h-2q-75 -75 -160 -75 q-63 0 -97.5 35.5t-34.5 99.5v214z" />
<glyph unicode="&#xfb;" horiz-adv-x="560" d="M166 572l-24 19q28 38 54 76.5t49 79.5l62 6q25 -41 53 -81.5t60 -80.5l-25 -19q-31 27 -61 57t-58 61q-26 -30 -53.5 -60t-56.5 -58zM96 339q0 44 -1.5 80.5t-5.5 74.5l74 12l8 -8v-351q0 -47 21.5 -72t64.5 -25q61 0 127 59v387l75 10v-365q0 -42 4.5 -74.5t14.5 -64.5 l-64 -12q-8 16 -14 36.5t-10 38.5h-2q-75 -75 -160 -75q-63 0 -97.5 35.5t-34.5 99.5v214z" />
<glyph unicode="&#xfc;" horiz-adv-x="560" d="M229 669q0 -24 -14 -43t-39 -19q-22 0 -34.5 15.5t-12.5 36.5q0 25 15.5 43.5t38.5 18.5q21 0 33.5 -14.5t12.5 -37.5zM430 669q0 -24 -14 -43t-39 -19q-22 0 -34.5 15.5t-12.5 36.5q0 25 15.5 43.5t38.5 18.5q21 0 33.5 -14.5t12.5 -37.5zM96 339q0 44 -1.5 80.5 t-5.5 74.5l74 12l8 -8v-351q0 -47 21.5 -72t64.5 -25q61 0 127 59v387l75 10v-365q0 -42 4.5 -74.5t14.5 -64.5l-64 -12q-8 16 -14 36.5t-10 38.5h-2q-75 -75 -160 -75q-63 0 -97.5 35.5t-34.5 99.5v214z" />
<glyph unicode="&#xfd;" horiz-adv-x="462" d="M326 744l5 -14q-32 -47 -72 -85t-89 -71l-25 13q32 40 62 83.5t50 87.5zM446 491l-172 -481q-24 -68 -57.5 -126t-79.5 -95.5t-108 -44.5l-12 73q64 7 113.5 54t85.5 143h-21l-171 486l77 6l79 -240q19 -52 30.5 -86t18 -60t11.5 -54h1q6 28 13 53.5t18.5 59.5t30.5 87 l79 240l58 -6z" />
<glyph unicode="&#xfe;" horiz-adv-x="563" d="M95 589q0 45 -2.5 81t-6.5 74l75 12l9 -8v-293q24 22 58.5 36.5t74.5 14.5q54 0 98 -29t70.5 -85.5t26.5 -137.5q0 -77 -25.5 -137t-73.5 -93.5t-115 -33.5q-31 0 -60.5 7t-53.5 17v-104q0 -44 2 -78t7 -73l-75 -13l-9 9v834zM278 452q-64 0 -108 -48v-338 q21 -11 47.5 -18.5t54.5 -7.5q71 0 109 55.5t38 153.5q0 102 -39.5 152.5t-101.5 50.5z" />
<glyph unicode="&#xff;" horiz-adv-x="462" d="M187 669q0 -24 -14 -43t-38 -19q-22 0 -35 15.5t-13 36.5q0 25 16 43.5t39 18.5q21 0 33 -14.5t12 -37.5zM388 669q0 -24 -14 -43t-39 -19q-21 0 -34 15.5t-13 36.5q0 25 15.5 43.5t39.5 18.5q20 0 32.5 -14.5t12.5 -37.5zM446 491l-172 -481q-24 -68 -57.5 -126 t-79.5 -95.5t-108 -44.5l-12 73q64 7 113.5 54t85.5 143h-21l-171 486l77 6l79 -240q19 -52 30.5 -86t18 -60t11.5 -54h1q6 28 13 53.5t18.5 59.5t30.5 87l79 240l58 -6z" />
<glyph unicode="&#x100;" horiz-adv-x="612" d="M174 815v53h265v-53h-265zM98 0h-74l205 589q9 28 18 55t15 48l76 4l11 -10l239 -686h-79l-70 199h-271zM240 404l-51 -145h229l-50 145q-20 58 -36.5 111t-26.5 98h-2q-11 -45 -28 -99.5t-35 -109.5z" />
<glyph unicode="&#x101;" horiz-adv-x="504" d="M103 639v50h272v-50h-272zM405 144q0 -36 5 -70.5t19 -73.5l-67 -10q-16 31 -24 70h-1q-20 -26 -61 -48t-92 -22q-61 0 -95 33t-34 85q0 57 38.5 93.5t101.5 55.5t136 23v66q0 48 -25 74.5t-78 26.5q-39 0 -78.5 -13t-73.5 -34l-4 64q32 16 78 29t94 13q81 0 122 -39 t41 -106q0 -34 -0.5 -76t-1 -80t-0.5 -61zM131 119q0 -30 19.5 -53.5t59.5 -23.5q32 0 66 16.5t55 39.5v144q-54 -4 -99.5 -18.5t-73 -40.5t-27.5 -64z" />
<glyph unicode="&#x102;" horiz-adv-x="612" d="M400 901h35q-10 -54 -45 -86t-87 -32q-50 0 -84 30t-41 83l34 5q9 -28 34.5 -43.5t61.5 -15.5q33 0 57.5 16t34.5 43zM98 0h-74l205 589q9 28 18 55t15 48l76 4l11 -10l239 -686h-79l-70 199h-271zM240 404l-51 -145h229l-50 145q-20 58 -36.5 111t-26.5 98h-2 q-11 -45 -28 -99.5t-35 -109.5z" />
<glyph unicode="&#x103;" horiz-adv-x="504" d="M332 737h35q-10 -65 -45 -103t-87 -38q-50 0 -84 36t-41 100l34 5q9 -38 34.5 -59.5t61.5 -21.5q33 0 57.5 22t34.5 59zM405 144q0 -36 5 -70.5t19 -73.5l-67 -10q-16 31 -24 70h-1q-20 -26 -61 -48t-92 -22q-61 0 -95 33t-34 85q0 57 38.5 93.5t101.5 55.5t136 23v66 q0 48 -25 74.5t-78 26.5q-39 0 -78.5 -13t-73.5 -34l-4 64q32 16 78 29t94 13q81 0 122 -39t41 -106q0 -34 -0.5 -76t-1 -80t-0.5 -61zM131 119q0 -30 19.5 -53.5t59.5 -23.5q32 0 66 16.5t55 39.5v144q-54 -4 -99.5 -18.5t-73 -40.5t-27.5 -64z" />
<glyph unicode="&#x104;" horiz-adv-x="612" d="M98 0h-74l205 589q9 28 18 55t15 48l76 4l11 -10l239 -686q-112 -61 -112 -125q0 -50 53 -50q11 0 24.5 3t30.5 10l13 -32q-38 -31 -91 -31q-45 0 -71 21.5t-26 60.5q0 80 119 143h-19l-70 199h-271zM240 404l-51 -145h229l-50 145q-20 58 -36.5 111t-26.5 98h-2 q-11 -45 -28 -99.5t-35 -109.5z" />
<glyph unicode="&#x105;" horiz-adv-x="504" d="M429 0q-112 -61 -112 -125q0 -50 53 -50q11 0 24.5 3t30.5 10l13 -32q-38 -31 -91 -31q-45 0 -71 21.5t-26 60.5q0 77 110 138q-15 30 -22 65h-1q-20 -26 -61 -48t-92 -22q-61 0 -95 33t-34 85q0 57 38.5 93.5t101.5 55.5t136 23v66q0 48 -25 74.5t-78 26.5 q-39 0 -78.5 -13t-73.5 -34l-4 64q32 16 78 29t94 13q81 0 122 -39t41 -106q0 -34 -0.5 -76t-1 -80t-0.5 -61q0 -36 5 -70.5t19 -73.5zM131 119q0 -30 19.5 -53.5t59.5 -23.5q32 0 66 16.5t55 39.5v144q-54 -4 -99.5 -18.5t-73 -40.5t-27.5 -64z" />
<glyph unicode="&#x106;" horiz-adv-x="592" d="M471 865l-3 -14q-55 -31 -115 -48.5t-127 -25.5l-8 23q55 23 108 50.5t96 60.5zM534 109l9 -65q-36 -27 -86.5 -40.5t-101.5 -13.5q-86 0 -150.5 40t-100.5 117t-36 186q0 113 38.5 194t105.5 125t152 44q47 0 93.5 -11t79.5 -32l-15 -71q-30 22 -70 35t-85 13 q-62 0 -111.5 -33.5t-78 -98.5t-28.5 -159q0 -83 25 -146.5t74 -100t119 -36.5q47 0 90.5 15t76.5 38z" />
<glyph unicode="&#x107;" horiz-adv-x="479" d="M368 744l5 -14q-32 -47 -72 -85t-89 -71l-25 13q32 40 62 83.5t50 87.5zM432 473l-19 -63q-23 16 -53 26.5t-63 10.5q-69 0 -111 -49.5t-42 -145.5q0 -93 40.5 -148.5t115.5 -55.5q36 0 68 12t55 26l6 -55q-27 -19 -63.5 -30t-79.5 -11q-98 0 -159.5 65.5t-61.5 188.5 q0 83 29.5 142t82 89.5t120.5 30.5q78 0 135 -33z" />
<glyph unicode="&#x108;" horiz-adv-x="592" d="M215 771l-21 19q33 30 61 59t54 60l61 6q55 -64 125 -125l-22 -19q-36 20 -69.5 42t-63.5 45q-29 -23 -60 -45t-65 -42zM534 109l9 -65q-36 -27 -86.5 -40.5t-101.5 -13.5q-86 0 -150.5 40t-100.5 117t-36 186q0 113 38.5 194t105.5 125t152 44q47 0 93.5 -11t79.5 -32 l-15 -71q-30 22 -70 35t-85 13q-62 0 -111.5 -33.5t-78 -98.5t-28.5 -159q0 -83 25 -146.5t74 -100t119 -36.5q47 0 90.5 15t76.5 38z" />
<glyph unicode="&#x109;" horiz-adv-x="479" d="M166 572l-24 19q29 38 55 76.5t49 79.5l61 6q25 -41 53.5 -81.5t59.5 -80.5l-24 -19q-31 27 -61 57t-58 61q-26 -30 -53.5 -60t-57.5 -58zM432 473l-19 -63q-23 16 -53 26.5t-63 10.5q-69 0 -111 -49.5t-42 -145.5q0 -93 40.5 -148.5t115.5 -55.5q36 0 68 12t55 26l6 -55 q-27 -19 -63.5 -30t-79.5 -11q-98 0 -159.5 65.5t-61.5 188.5q0 83 29.5 142t82 89.5t120.5 30.5q78 0 135 -33z" />
<glyph unicode="&#x10a;" horiz-adv-x="592" d="M400 852q0 -23 -15 -40.5t-43 -17.5q-25 0 -39 14.5t-14 35.5q0 22 17.5 39.5t43.5 17.5q23 0 36.5 -13.5t13.5 -35.5zM534 109l9 -65q-36 -27 -86.5 -40.5t-101.5 -13.5q-86 0 -150.5 40t-100.5 117t-36 186q0 113 38.5 194t105.5 125t152 44q47 0 93.5 -11t79.5 -32 l-15 -71q-30 22 -70 35t-85 13q-62 0 -111.5 -33.5t-78 -98.5t-28.5 -159q0 -83 25 -146.5t74 -100t119 -36.5q47 0 90.5 15t76.5 38z" />
<glyph unicode="&#x10b;" horiz-adv-x="479" d="M333 670q0 -25 -15 -44t-41 -19q-23 0 -36.5 16t-13.5 39q0 24 16.5 43t41.5 19q22 0 35 -15t13 -39zM432 473l-19 -63q-23 16 -53 26.5t-63 10.5q-69 0 -111 -49.5t-42 -145.5q0 -93 40.5 -148.5t115.5 -55.5q36 0 68 12t55 26l6 -55q-27 -19 -63.5 -30t-79.5 -11 q-98 0 -159.5 65.5t-61.5 188.5q0 83 29.5 142t82 89.5t120.5 30.5q78 0 135 -33z" />
<glyph unicode="&#x10c;" horiz-adv-x="592" d="M473 916l22 -19q-34 -30 -62 -59t-54 -60l-61 -6q-55 64 -124 125l21 19q36 -20 69.5 -42t63.5 -45q29 23 60 45t65 42zM534 109l9 -65q-36 -27 -86.5 -40.5t-101.5 -13.5q-86 0 -150.5 40t-100.5 117t-36 186q0 113 38.5 194t105.5 125t152 44q47 0 93.5 -11t79.5 -32 l-15 -71q-30 22 -70 35t-85 13q-62 0 -111.5 -33.5t-78 -98.5t-28.5 -159q0 -83 25 -146.5t74 -100t119 -36.5q47 0 90.5 15t76.5 38z" />
<glyph unicode="&#x10d;" horiz-adv-x="479" d="M396 759l24 -19q-29 -38 -54.5 -76.5t-49.5 -79.5l-61 -6q-25 41 -53 81.5t-60 80.5l24 19q31 -27 61 -57.5t58 -60.5q26 30 53.5 60t57.5 58zM432 473l-19 -63q-23 16 -53 26.5t-63 10.5q-69 0 -111 -49.5t-42 -145.5q0 -93 40.5 -148.5t115.5 -55.5q36 0 68 12t55 26 l6 -55q-27 -19 -63.5 -30t-79.5 -11q-98 0 -159.5 65.5t-61.5 188.5q0 83 29.5 142t82 89.5t120.5 30.5q78 0 135 -33z" />
<glyph unicode="&#x10e;" horiz-adv-x="681" d="M456 916l22 -19q-34 -30 -62 -59t-54 -60l-61 -6q-55 64 -124 125l21 19q36 -20 69.5 -42t63.5 -45q29 23 60 45t65 42zM613 346q0 -110 -43.5 -187t-121 -118t-178.5 -41h-167v531q0 44 -2 80.5t-6 74.5h188q93 0 168 -40.5t118.5 -116.5t43.5 -183zM276 627h-96v-567 h93q128 0 193.5 75t65.5 207q0 87 -31 151t-88.5 99t-136.5 35z" />
<glyph unicode="&#x10f;" horiz-adv-x="565" d="M384 744l75 12l9 -8v-609q0 -36 5.5 -70t18.5 -69l-68 -10q-7 14 -13 32t-11 37h-1q-20 -28 -54 -48.5t-84 -20.5q-57 0 -101.5 30t-69.5 85.5t-25 132.5q0 88 32 147.5t86 90t120 30.5q26 0 49 -4.5t41 -11.5v99q0 45 -2 80.5t-7 74.5zM650 756l7 -12q-9 -57 -28.5 -109 t-47.5 -102l-26 4q12 54 20 109t9 106zM144 246q0 -95 38.5 -149.5t102.5 -54.5q38 0 64.5 16.5t43.5 37.5v345q-44 16 -87 16q-68 0 -115 -51.5t-47 -159.5z" />
<glyph unicode="&#x110;" horiz-adv-x="681" d="M613 346q0 -110 -43.5 -187t-121 -118t-178.5 -41h-167v321h-89v45h89v165q0 44 -2 80.5t-6 74.5h188q93 0 168 -40.5t118.5 -116.5t43.5 -183zM381 321h-201v-261h93q128 0 193.5 75t65.5 207q0 87 -31 151t-88.5 99t-136.5 35h-96v-261h201v-45z" />
<glyph unicode="&#x111;" horiz-adv-x="565" d="M566 589h-98v-450q0 -36 5.5 -70t18.5 -69l-68 -10q-7 14 -13 32t-11 37h-1q-20 -28 -54 -48.5t-84 -20.5q-57 0 -101.5 30t-69.5 85.5t-25 132.5q0 88 32 147.5t86 90t120 30.5q26 0 49 -4.5t41 -11.5v99h-194v45h193q-1 29 -2.5 55.5t-5.5 54.5l75 12l9 -8v-114h98v-45 zM144 246q0 -95 38.5 -149.5t102.5 -54.5q38 0 64.5 16.5t43.5 37.5v345q-44 16 -87 16q-68 0 -115 -51.5t-47 -159.5z" />
<glyph unicode="&#x112;" horiz-adv-x="521" d="M154 815v53h265v-53h-265zM481 64v-64h-378v531q0 44 -2 80.5t-6 74.5h369l8 -8l-1 -56l-291 6v-260l247 3l-1 -61l-246 3v-254z" />
<glyph unicode="&#x113;" horiz-adv-x="511" d="M133 639v50h272v-50h-272zM452 257l-15 -15h-293q3 -98 47 -146t113 -48q37 0 70.5 12.5t60.5 30.5l6 -55q-21 -15 -61 -30.5t-93 -15.5q-100 0 -161 65.5t-61 186.5q0 86 30 144.5t79.5 89t106.5 30.5q79 0 125.5 -52t46.5 -138v-29.5t-1 -29.5zM277 454 q-51 0 -89.5 -44t-43.5 -131l233 7q0 8 0.5 17t0.5 19q0 59 -26.5 95.5t-74.5 36.5z" />
<glyph unicode="&#x114;" horiz-adv-x="521" d="M380 901h35q-10 -54 -45 -86t-87 -32q-50 0 -84 30t-41 83l34 5q9 -28 34.5 -43.5t61.5 -15.5q33 0 57.5 16t34.5 43zM481 64v-64h-378v531q0 44 -2 80.5t-6 74.5h369l8 -8l-1 -56l-291 6v-260l247 3l-1 -61l-246 3v-254z" />
<glyph unicode="&#x115;" horiz-adv-x="511" d="M362 737h35q-10 -65 -45 -103t-87 -38q-50 0 -84 36t-41 100l34 5q9 -38 34.5 -59.5t61.5 -21.5q33 0 57.5 22t34.5 59zM452 257l-15 -15h-293q3 -98 47 -146t113 -48q37 0 70.5 12.5t60.5 30.5l6 -55q-21 -15 -61 -30.5t-93 -15.5q-100 0 -161 65.5t-61 186.5 q0 86 30 144.5t79.5 89t106.5 30.5q79 0 125.5 -52t46.5 -138v-29.5t-1 -29.5zM277 454q-51 0 -89.5 -44t-43.5 -131l233 7q0 8 0.5 17t0.5 19q0 59 -26.5 95.5t-74.5 36.5z" />
<glyph unicode="&#x116;" horiz-adv-x="521" d="M342 852q0 -23 -15.5 -40.5t-43.5 -17.5q-24 0 -38 14.5t-14 35.5q0 22 17 39.5t43 17.5q24 0 37.5 -13.5t13.5 -35.5zM481 64v-64h-378v531q0 44 -2 80.5t-6 74.5h369l8 -8l-1 -56l-291 6v-260l247 3l-1 -61l-246 3v-254z" />
<glyph unicode="&#x117;" horiz-adv-x="511" d="M322 670q0 -25 -15 -44t-41 -19q-23 0 -36.5 16t-13.5 39q0 24 16.5 43t41.5 19q22 0 35 -15t13 -39zM452 257l-15 -15h-293q3 -98 47 -146t113 -48q37 0 70.5 12.5t60.5 30.5l6 -55q-21 -15 -61 -30.5t-93 -15.5q-100 0 -161 65.5t-61 186.5q0 86 30 144.5t79.5 89 t106.5 30.5q79 0 125.5 -52t46.5 -138v-29.5t-1 -29.5zM277 454q-51 0 -89.5 -44t-43.5 -131l233 7q0 8 0.5 17t0.5 19q0 59 -26.5 95.5t-74.5 36.5z" />
<glyph unicode="&#x118;" horiz-adv-x="521" d="M481 0q-112 -61 -112 -125q0 -50 53 -50q11 0 24.5 3t31.5 10l13 -32q-39 -31 -92 -31q-44 0 -70.5 21.5t-26.5 60.5q0 80 119 143h-318v531q0 44 -2 80.5t-6 74.5h369l8 -8l-1 -56l-291 6v-260l247 3l-1 -61l-246 3v-254l301 5v-64z" />
<glyph unicode="&#x119;" horiz-adv-x="514" d="M452 257l-15 -15h-293q3 -98 47 -146t113 -48q37 0 70.5 12.5t60.5 30.5l5 -56l-2 -2q-63 -44 -95 -81.5t-32 -73.5q0 -24 13 -37.5t40 -13.5q10 0 23.5 2.5t31.5 9.5l13 -31q-39 -32 -93 -32q-44 0 -70 22.5t-26 59.5q0 70 89 136q-22 -4 -45 -4q-100 0 -161 65.5 t-61 186.5q0 86 30 144.5t79.5 89t106.5 30.5q79 0 125.5 -52t46.5 -138v-29.5t-1 -29.5zM277 454q-51 0 -89.5 -44t-43.5 -131l233 7q0 8 0.5 17t0.5 19q0 59 -26.5 95.5t-74.5 36.5z" />
<glyph unicode="&#x11a;" horiz-adv-x="521" d="M415 916l21 -19q-33 -30 -61 -59t-54 -60l-61 -6q-55 64 -125 125l22 19q36 -20 69.5 -42t63.5 -45q29 23 59.5 45t65.5 42zM481 64v-64h-378v531q0 44 -2 80.5t-6 74.5h369l8 -8l-1 -56l-291 6v-260l247 3l-1 -61l-246 3v-254z" />
<glyph unicode="&#x11b;" horiz-adv-x="511" d="M385 759l24 -19q-29 -38 -54.5 -76.5t-49.5 -79.5l-61 -6q-25 41 -53 81.5t-60 80.5l24 19q31 -27 61 -57.5t58 -60.5q26 30 53.5 60t57.5 58zM452 257l-15 -15h-293q3 -98 47 -146t113 -48q37 0 70.5 12.5t60.5 30.5l6 -55q-21 -15 -61 -30.5t-93 -15.5 q-100 0 -161 65.5t-61 186.5q0 86 30 144.5t79.5 89t106.5 30.5q79 0 125.5 -52t46.5 -138v-29.5t-1 -29.5zM277 454q-51 0 -89.5 -44t-43.5 -131l233 7q0 8 0.5 17t0.5 19q0 59 -26.5 95.5t-74.5 36.5z" />
<glyph unicode="&#x11c;" horiz-adv-x="648" d="M218 771l-22 19q33 30 61 59t54 60l62 6q55 -64 124 -125l-22 -19q-36 20 -69 42t-64 45q-28 -23 -59 -45t-65 -42zM563 299l8 -8l-2 -253q-41 -23 -99 -35.5t-109 -12.5q-90 0 -156 40.5t-101.5 116.5t-35.5 183q0 113 39 195t110 126.5t167 44.5q46 0 90 -10t77 -28 l-14 -70q-27 19 -65.5 31.5t-83.5 12.5q-107 0 -173 -75.5t-66 -217.5q0 -83 24.5 -147.5t74 -101t124.5 -36.5q27 0 59.5 5t63.5 14v50q0 53 -2 89t-7 77z" />
<glyph unicode="&#x11d;" horiz-adv-x="490" d="M121 572l-24 19q29 38 55 76.5t49 79.5l62 6q24 -41 52.5 -81.5t59.5 -80.5l-24 -19q-31 27 -61 57t-58 61q-26 -30 -53.5 -60t-57.5 -58zM115 76q1 24 12 44.5t29 36.5q-46 18 -74 59.5t-28 101.5q0 51 21 93.5t61.5 68.5t98.5 26q33 0 59.5 -9t43.5 -22q19 20 50 31 t61 11l11 -4l-2 -62h-96q18 -18 33 -48.5t15 -75.5q0 -50 -21 -92t-60.5 -67t-96.5 -25q-19 0 -38 3q-16 -21 -16 -47q0 -23 13 -34.5t45 -14.5l85 -6q38 -3 71 -16t53.5 -39t20.5 -68q0 -46 -27.5 -86.5t-80.5 -65.5t-129 -25q-96 0 -151 38t-55 94q0 37 20.5 61.5 t40.5 33.5l32 -15q-9 -10 -17 -25.5t-8 -34.5q0 -41 37.5 -73.5t108.5 -32.5q70 0 111.5 32.5t41.5 80.5q0 38 -26.5 59t-69.5 24l-76 6q-53 4 -77.5 26t-25.5 58zM336 323q0 62 -26 99t-77 37q-53 0 -79 -35.5t-26 -98.5t26.5 -99t79.5 -36q51 0 76.5 35t25.5 98z" />
<glyph unicode="&#x11e;" horiz-adv-x="648" d="M441 901h35q-10 -54 -45 -86t-88 -32q-49 0 -83.5 30t-41.5 83l34 5q10 -28 35.5 -43.5t61.5 -15.5q33 0 57.5 16t34.5 43zM563 299l8 -8l-2 -253q-41 -23 -99 -35.5t-109 -12.5q-90 0 -156 40.5t-101.5 116.5t-35.5 183q0 113 39 195t110 126.5t167 44.5q46 0 90 -10 t77 -28l-14 -70q-27 19 -65.5 31.5t-83.5 12.5q-107 0 -173 -75.5t-66 -217.5q0 -83 24.5 -147.5t74 -101t124.5 -36.5q27 0 59.5 5t63.5 14v50q0 53 -2 89t-7 77z" />
<glyph unicode="&#x11f;" horiz-adv-x="490" d="M329 737h34q-9 -65 -44.5 -103t-87.5 -38q-50 0 -84 36t-41 100l34 5q10 -38 35 -59.5t61 -21.5q33 0 57.5 22t35.5 59zM115 76q1 24 12 44.5t29 36.5q-46 18 -74 59.5t-28 101.5q0 51 21 93.5t61.5 68.5t98.5 26q33 0 59.5 -9t43.5 -22q19 20 50 31t61 11l11 -4l-2 -62 h-96q18 -18 33 -48.5t15 -75.5q0 -50 -21 -92t-60.5 -67t-96.5 -25q-19 0 -38 3q-16 -21 -16 -47q0 -23 13 -34.5t45 -14.5l85 -6q38 -3 71 -16t53.5 -39t20.5 -68q0 -46 -27.5 -86.5t-80.5 -65.5t-129 -25q-96 0 -151 38t-55 94q0 37 20.5 61.5t40.5 33.5l32 -15 q-9 -10 -17 -25.5t-8 -34.5q0 -41 37.5 -73.5t108.5 -32.5q70 0 111.5 32.5t41.5 80.5q0 38 -26.5 59t-69.5 24l-76 6q-53 4 -77.5 26t-25.5 58zM336 323q0 62 -26 99t-77 37q-53 0 -79 -35.5t-26 -98.5t26.5 -99t79.5 -36q51 0 76.5 35t25.5 98z" />
<glyph unicode="&#x120;" horiz-adv-x="648" d="M403 852q0 -23 -15.5 -40.5t-43.5 -17.5q-24 0 -38.5 14.5t-14.5 35.5q0 22 17.5 39.5t43.5 17.5q23 0 37 -13.5t14 -35.5zM563 299l8 -8l-2 -253q-41 -23 -99 -35.5t-109 -12.5q-90 0 -156 40.5t-101.5 116.5t-35.5 183q0 113 39 195t110 126.5t167 44.5q46 0 90 -10 t77 -28l-14 -70q-27 19 -65.5 31.5t-83.5 12.5q-107 0 -173 -75.5t-66 -217.5q0 -83 24.5 -147.5t74 -101t124.5 -36.5q27 0 59.5 5t63.5 14v50q0 53 -2 89t-7 77z" />
<glyph unicode="&#x121;" horiz-adv-x="490" d="M288 670q0 -25 -15 -44t-41 -19q-23 0 -36.5 16t-13.5 39q0 24 16.5 43t41.5 19q22 0 35 -15t13 -39zM115 76q1 24 12 44.5t29 36.5q-46 18 -74 59.5t-28 101.5q0 51 21 93.5t61.5 68.5t98.5 26q33 0 59.5 -9t43.5 -22q19 20 50 31t61 11l11 -4l-2 -62h-96 q18 -18 33 -48.5t15 -75.5q0 -50 -21 -92t-60.5 -67t-96.5 -25q-19 0 -38 3q-16 -21 -16 -47q0 -23 13 -34.5t45 -14.5l85 -6q38 -3 71 -16t53.5 -39t20.5 -68q0 -46 -27.5 -86.5t-80.5 -65.5t-129 -25q-96 0 -151 38t-55 94q0 37 20.5 61.5t40.5 33.5l32 -15 q-9 -10 -17 -25.5t-8 -34.5q0 -41 37.5 -73.5t108.5 -32.5q70 0 111.5 32.5t41.5 80.5q0 38 -26.5 59t-69.5 24l-76 6q-53 4 -77.5 26t-25.5 58zM336 323q0 62 -26 99t-77 37q-53 0 -79 -35.5t-26 -98.5t26.5 -99t79.5 -36q51 0 76.5 35t25.5 98z" />
<glyph unicode="&#x122;" horiz-adv-x="648" d="M563 299l8 -8l-2 -253q-41 -23 -99 -35.5t-109 -12.5q-90 0 -156 40.5t-101.5 116.5t-35.5 183q0 113 39 195t110 126.5t167 44.5q46 0 90 -10t77 -28l-14 -70q-27 19 -65.5 31.5t-83.5 12.5q-107 0 -173 -75.5t-66 -217.5q0 -83 24.5 -147.5t74 -101t124.5 -36.5 q27 0 59.5 5t63.5 14v50q0 53 -2 89t-7 77zM321 -311q13 23 24 46.5t17 47.5q-19 1 -31.5 16t-12.5 36t13.5 39.5t39.5 18.5q22 0 36 -16t14 -45q0 -42 -23.5 -86t-48.5 -76z" />
<glyph unicode="&#x123;" horiz-adv-x="490" d="M281 776q-14 -23 -24.5 -46.5t-16.5 -47.5q19 -1 31.5 -15.5t12.5 -35.5t-14 -39.5t-39 -18.5q-23 0 -37 16t-14 45q0 42 24 85.5t49 76.5zM115 76q1 24 12 44.5t29 36.5q-46 18 -74 59.5t-28 101.5q0 51 21 93.5t61.5 68.5t98.5 26q33 0 59.5 -9t43.5 -22q19 20 50 31 t61 11l11 -4l-2 -62h-96q18 -18 33 -48.5t15 -75.5q0 -50 -21 -92t-60.5 -67t-96.5 -25q-19 0 -38 3q-16 -21 -16 -47q0 -23 13 -34.5t45 -14.5l85 -6q38 -3 71 -16t53.5 -39t20.5 -68q0 -46 -27.5 -86.5t-80.5 -65.5t-129 -25q-96 0 -151 38t-55 94q0 37 20.5 61.5 t40.5 33.5l32 -15q-9 -10 -17 -25.5t-8 -34.5q0 -41 37.5 -73.5t108.5 -32.5q70 0 111.5 32.5t41.5 80.5q0 38 -26.5 59t-69.5 24l-76 6q-53 4 -77.5 26t-25.5 58zM336 323q0 62 -26 99t-77 37q-53 0 -79 -35.5t-26 -98.5t26.5 -99t79.5 -36q51 0 76.5 35t25.5 98z" />
<glyph unicode="&#x124;" horiz-adv-x="705" d="M223 771l-21 19q33 30 61 59t54 60l62 6q54 -64 124 -125l-22 -19q-36 20 -69.5 42t-63.5 45q-29 -23 -59.5 -45t-65.5 -42zM180 0h-77v529q0 89 -8 157l77 10l8 -8v-317h344v158q0 89 -7 157l76 10l9 -8v-688h-78v312h-344v-312z" />
<glyph unicode="&#x125;" horiz-adv-x="565" d="M2 804l-21 19q33 30 61 59t54 60l61 6q55 -64 125 -125l-22 -19q-36 20 -69.5 42t-63.5 45q-29 -23 -60 -45t-65 -42zM170 0h-75v589q0 44 -2 80t-7 75l75 12l9 -8v-313q37 34 78.5 52.5t85.5 18.5q63 0 98.5 -37t35.5 -109v-360h-75v344q0 105 -90 105q-65 0 -133 -58 v-391z" />
<glyph unicode="&#x126;" horiz-adv-x="705" d="M180 0h-77v496h-73v45h72q0 81 -7 145l77 10l8 -8v-147h344q0 81 -7 145l76 10l9 -8v-147h73v-45h-73v-496h-78v312h-344v-312zM180 371h344v125h-344v-125z" />
<glyph unicode="&#x127;" horiz-adv-x="565" d="M170 0h-75v584h-93v45h93q-1 30 -3 57.5t-6 57.5l75 12l9 -8v-119h199v-45h-199v-149q37 34 78.5 52.5t85.5 18.5q63 0 98.5 -37t35.5 -109v-360h-75v344q0 105 -90 105q-65 0 -133 -58v-391z" />
<glyph unicode="&#x128;" horiz-adv-x="283" d="M68 903q29 0 53 -14t45.5 -28t46.5 -14q23 0 39 16t27 38l23 -4q-2 -27 -13.5 -51.5t-31.5 -40t-49 -15.5t-53.5 14t-47 28t-46.5 14q-22 0 -38 -15.5t-28 -37.5l-23 4q3 23 13.5 48t31 41.5t51.5 16.5zM180 0h-77v529q0 89 -8 157l77 10l8 -8v-688z" />
<glyph unicode="&#x129;" horiz-adv-x="269" d="M81 726q22 0 39.5 -14t33 -28t31.5 -14t27.5 15.5t18.5 38.5l23 -4q-1 -25 -9.5 -51t-24.5 -43.5t-40 -17.5q-21 0 -39 14t-34 28t-30 14q-17 0 -28 -15.5t-19 -37.5l-23 4q2 24 10.5 50t24.5 43.5t39 17.5zM96 0v339q0 44 -1.5 80t-7.5 75l76 12l8 -8v-498h-75z" />
<glyph unicode="&#x12a;" horiz-adv-x="283" d="M5 815v53h265v-53h-265zM180 0h-77v529q0 89 -8 157l77 10l8 -8v-688z" />
<glyph unicode="&#x12b;" horiz-adv-x="269" d="M23 639v50h216v-50h-216zM96 0v339q0 44 -1.5 80t-7.5 75l76 12l8 -8v-498h-75z" />
<glyph unicode="&#x12c;" horiz-adv-x="283" d="M231 901h35q-10 -54 -45 -86t-87 -32q-50 0 -84 30t-41 83l34 5q9 -28 34.5 -43.5t61.5 -15.5q33 0 57.5 16t34.5 43zM180 0h-77v529q0 89 -8 157l77 10l8 -8v-688z" />
<glyph unicode="&#x12d;" horiz-adv-x="269" d="M209 736h35q-9 -65 -39.5 -103t-77.5 -38q-43 0 -73 36.5t-36 99.5l34 5q7 -38 28.5 -59.5t51.5 -21.5q29 0 49 22t28 59zM96 0v339q0 44 -1.5 80t-7.5 75l76 12l8 -8v-498h-75z" />
<glyph unicode="&#x12e;" horiz-adv-x="260" d="M169 0q-30 -31 -47 -62.5t-17 -62.5q0 -50 53 -50q11 0 24.5 3t30.5 10l13 -32q-18 -14 -42.5 -22.5t-50.5 -8.5q-43 0 -69 22t-26 64q0 35 21.5 71.5t58.5 67.5h-15v529q0 89 -8 157l77 10l8 -8v-688h-11z" />
<glyph unicode="&#x12f;" horiz-adv-x="269" d="M184 670q0 -25 -15 -44t-41 -19q-23 0 -36.5 16t-13.5 39q0 24 16.5 43t41.5 19q22 0 35 -15t13 -39zM96 0v339q0 44 -1.5 80t-7.5 75l76 12l8 -8v-498q-67 -60 -67 -116q0 -26 14.5 -41.5t43.5 -15.5q10 0 22.5 2.5t27.5 9.5l13 -31q-39 -32 -92 -32q-44 0 -70 25 t-26 66q0 34 21 68t62 65h-24z" />
<glyph unicode="&#x130;" horiz-adv-x="283" d="M193 852q0 -23 -15.5 -40.5t-43.5 -17.5q-24 0 -38 14.5t-14 35.5q0 22 17 39.5t43 17.5q24 0 37.5 -13.5t13.5 -35.5zM180 0h-77v529q0 89 -8 157l77 10l8 -8v-688z" />
<glyph unicode="&#x131;" horiz-adv-x="269" d="M96 0v339q0 44 -1.5 80t-7.5 75l76 12l8 -8v-498h-75z" />
<glyph unicode="&#x132;" horiz-adv-x="556" d="M180 0h-77v529q0 89 -8 157l77 10l8 -8v-688zM314 -193l-25 39q39 30 63 83.5t24 137.5v462q0 44 -2.5 80.5t-6.5 74.5l78 12l8 -8v-621q0 -103 -33.5 -162.5t-105.5 -97.5z" />
<glyph unicode="&#x133;" horiz-adv-x="538" d="M184 670q0 -25 -15 -44t-41 -19q-23 0 -36.5 16t-13.5 39q0 24 16.5 43t41.5 19q22 0 35 -15t13 -39zM453 670q0 -25 -15 -44t-42 -19q-23 0 -36.5 16t-13.5 39q0 24 16.5 43t41.5 19q22 0 35.5 -15t13.5 -39zM96 0v339q0 44 -1.5 80t-7.5 75l76 12l8 -8v-498h-75z M311 -256l-26 34q34 28 57.5 73t23.5 115v373q0 44 -2.5 80t-6.5 75l75 12l9 -8v-524q0 -90 -33 -143.5t-97 -86.5z" />
<glyph unicode="&#x134;" horiz-adv-x="273" d="M2 771l-22 19q33 30 61 59t54 60l62 6q55 -64 124 -125l-21 -19q-37 20 -70 42t-64 45q-28 -23 -59 -45t-65 -42zM31 -193l-25 39q39 30 63 83.5t24 137.5v462q0 44 -2 80.5t-7 74.5l78 12l9 -8v-621q0 -103 -34 -162.5t-106 -97.5z" />
<glyph unicode="&#x135;" horiz-adv-x="270" d="M45 580l-23 13q18 40 35 79.5t32 80.5l74 6q17 -42 36 -83.5t39 -82.5l-23 -13q-24 26 -46 55.5t-43 60.5q-19 -31 -39 -60.5t-42 -55.5zM42 -256l-26 34q34 28 57.5 73t23.5 115v373q0 44 -2.5 80t-6.5 75l75 12l9 -8v-524q0 -90 -33 -143.5t-97 -86.5z" />
<glyph unicode="&#x136;" horiz-adv-x="590" d="M103 529q0 45 -2 81.5t-6 75.5l75 10l9 -8v-323h97q51 80 105 164.5t106 166.5l65 -12l6 -8l-219 -327l242 -349l-84 -9q-56 78 -110.5 157t-108.5 158h-99v-306h-76v529zM257 -311q13 23 24 46.5t17 47.5q-19 1 -31.5 16t-12.5 36t14 39.5t39 18.5q22 0 36.5 -16 t14.5 -45q0 -42 -24 -86t-49 -76z" />
<glyph unicode="&#x137;" horiz-adv-x="510" d="M95 589q0 44 -2 80.5t-7 74.5l75 12l9 -8v-468h78q36 51 74.5 109t76.5 117l57 -12l6 -9l-151 -209q42 -67 87 -135.5t93 -140.5l-83 -10q-40 59 -79.5 120.5t-76.5 122.5h-82v-233h-75v589zM218 -311q13 23 24 46.5t17 47.5q-19 1 -31.5 16t-12.5 36t13.5 39.5 t39.5 18.5q22 0 36 -16t14 -45q0 -42 -23.5 -86t-48.5 -76z" />
<glyph unicode="&#x138;" horiz-adv-x="510" d="M95 339q0 44 -2 80.5t-7 74.5l75 12l9 -8v-218h78q36 51 74.5 109t76.5 117l57 -12l6 -9l-151 -209q42 -67 87 -135.5t93 -140.5l-83 -10q-40 59 -79.5 120.5t-76.5 122.5h-82v-233h-75v339z" />
<glyph unicode="&#x139;" horiz-adv-x="492" d="M370 865l-3 -14q-55 -31 -115 -48.5t-127 -25.5l-8 23q55 23 108 50.5t96 60.5zM470 64v-64h-367v530q0 88 -8 156l77 10l8 -8v-629z" />
<glyph unicode="&#x13a;" horiz-adv-x="269" d="M265 916l-3 -13q-55 -32 -115.5 -49.5t-126.5 -24.5l-8 23q55 23 108 50.5t96 59.5zM171 0h-75v589q0 44 -2 80.5t-7 74.5l76 12l8 -8v-748z" />
<glyph unicode="&#x13b;" horiz-adv-x="492" d="M470 64v-64h-367v530q0 88 -8 156l77 10l8 -8v-629zM242 -311q14 23 24.5 46.5t16.5 47.5q-19 1 -31.5 16t-12.5 36t14 39.5t39 18.5q23 0 37 -16t14 -45q0 -42 -24 -86t-49 -76z" />
<glyph unicode="&#x13c;" horiz-adv-x="269" d="M171 0h-75v589q0 44 -2 80.5t-7 74.5l76 12l8 -8v-748zM86 -311q13 23 24 46.5t17 47.5q-19 1 -31.5 16t-12.5 36t13.5 39.5t39.5 18.5q22 0 36 -16t14 -45q0 -42 -23.5 -86t-48.5 -76z" />
<glyph unicode="&#x13d;" horiz-adv-x="492" d="M386 742l7 -12q-8 -58 -28 -109.5t-47 -102.5l-27 5q12 54 20.5 109t9.5 105zM470 64v-64h-367v530q0 88 -8 156l77 10l8 -8v-629z" />
<glyph unicode="&#x13e;" horiz-adv-x="269" d="M331 763l7 -12q-9 -58 -28.5 -109.5t-46.5 -102.5l-27 5q12 54 20.5 109t8.5 105zM171 0h-75v589q0 44 -2 80.5t-7 74.5l76 12l8 -8v-748z" />
<glyph unicode="&#x13f;" horiz-adv-x="492" d="M422 355q0 -26 -17.5 -43.5t-41.5 -17.5q-23 0 -39.5 16.5t-16.5 40.5q0 26 18 44t42 18t39.5 -16t15.5 -42zM470 64v-64h-367v530q0 88 -8 156l77 10l8 -8v-629z" />
<glyph unicode="&#x140;" horiz-adv-x="518" d="M171 0h-75v589q0 44 -2 80.5t-7 74.5l76 12l8 -8v-748zM453 319q0 -26 -17.5 -43.5t-41.5 -17.5q-23 0 -39.5 16t-16.5 41t18 43t42 18t39.5 -16t15.5 -41z" />
<glyph unicode="&#x141;" horiz-adv-x="492" d="M470 64v-64h-367v287l-92 -50l-22 40l114 63v190q0 88 -8 156l77 10l8 -8v-305l135 75l23 -41l-158 -87v-271z" />
<glyph unicode="&#x142;" horiz-adv-x="269" d="M171 0h-75v369l-111 -62l-22 41l133 73v168q0 44 -2 80.5t-7 74.5l76 12l8 -8v-285l118 65l23 -40l-141 -78v-410z" />
<glyph unicode="&#x143;" horiz-adv-x="703" d="M472 865l-3 -14q-55 -31 -115.5 -48.5t-126.5 -25.5l-8 23q55 23 108 50.5t96 60.5zM358 398q36 -59 66.5 -107.5t56.5 -94.5t49 -96h2q-2 24 -3 45.5t-1.5 49t-1 68t-0.5 101.5v151q0 49 -2 90t-6 81l74 10l9 -9v-687h-78q-48 77 -93 151t-89 146q-37 58 -66 105 t-53.5 90.5t-48.5 91.5h-1q4 -64 5 -122t1 -115v-347h-75v531q0 44 -2 81.5t-6 73.5l81 10q48 -79 93 -153t89 -145z" />
<glyph unicode="&#x144;" horiz-adv-x="570" d="M366 744l5 -14q-32 -47 -72 -85t-89 -71l-25 13q32 40 62 83.5t50 87.5zM175 0h-75v341q0 46 -5 79t-15 69l69 17q15 -35 23 -74q37 36 79.5 55t87.5 19q63 0 98.5 -37t35.5 -109v-360h-75v344q0 105 -90 105q-64 0 -133 -59v-390z" />
<glyph unicode="&#x145;" horiz-adv-x="703" d="M358 398q36 -59 66.5 -107.5t56.5 -94.5t49 -96h2q-2 24 -3 45.5t-1.5 49t-1 68t-0.5 101.5v151q0 49 -2 90t-6 81l74 10l9 -9v-687h-78q-48 77 -93 151t-89 146q-37 58 -66 105t-53.5 90.5t-48.5 91.5h-1q4 -64 5 -122t1 -115v-347h-75v531q0 44 -2 81.5t-6 73.5l81 10 q48 -79 93 -153t89 -145zM308 -311q13 23 24 46.5t17 47.5q-19 1 -31.5 16t-12.5 36t13.5 39.5t39.5 18.5q22 0 36 -16t14 -45q0 -42 -23.5 -86t-48.5 -76z" />
<glyph unicode="&#x146;" horiz-adv-x="570" d="M175 0h-75v341q0 46 -5 79t-15 69l69 17q15 -35 23 -74q37 36 79.5 55t87.5 19q63 0 98.5 -37t35.5 -109v-360h-75v344q0 105 -90 105q-64 0 -133 -59v-390zM237 -311q14 23 24.5 46.5t16.5 47.5q-19 1 -31.5 16t-12.5 36t14 39.5t39 18.5q23 0 37 -16t14 -45 q0 -42 -24 -86t-49 -76z" />
<glyph unicode="&#x147;" horiz-adv-x="703" d="M474 916l21 -19q-33 -30 -61 -59t-54 -60l-61 -6q-55 64 -125 125l22 19q36 -20 69.5 -42t63.5 -45q29 23 59.5 45t65.5 42zM358 398q36 -59 66.5 -107.5t56.5 -94.5t49 -96h2q-2 24 -3 45.5t-1.5 49t-1 68t-0.5 101.5v151q0 49 -2 90t-6 81l74 10l9 -9v-687h-78 q-48 77 -93 151t-89 146q-37 58 -66 105t-53.5 90.5t-48.5 91.5h-1q4 -64 5 -122t1 -115v-347h-75v531q0 44 -2 81.5t-6 73.5l81 10q48 -79 93 -153t89 -145z" />
<glyph unicode="&#x148;" horiz-adv-x="570" d="M394 759l24 -19q-29 -38 -54.5 -76.5t-49.5 -79.5l-61 -6q-25 41 -53 81.5t-60 80.5l24 19q31 -27 61 -57.5t58 -60.5q26 30 53.5 60t57.5 58zM175 0h-75v341q0 46 -5 79t-15 69l69 17q15 -35 23 -74q37 36 79.5 55t87.5 19q63 0 98.5 -37t35.5 -109v-360h-75v344 q0 105 -90 105q-64 0 -133 -59v-390z" />
<glyph unicode="&#x14a;" horiz-adv-x="703" d="M460 -187l-24 35q35 25 58 60.5t28 93.5q-46 75 -92.5 150.5t-88.5 144.5q-37 58 -66 105t-53.5 90.5t-48.5 91.5h-1q4 -64 5 -122t1 -115v-347h-75v531q0 44 -2 81.5t-6 73.5l81 10q48 -79 93 -153t89 -145q36 -59 66.5 -107.5t56.5 -94.5t49 -96h2q-2 24 -3 45.5 t-1.5 49t-1 68t-0.5 101.5v151q0 49 -2 90t-6 81l74 10l9 -9v-620q0 -102 -34 -160.5t-107 -93.5z" />
<glyph unicode="&#x14b;" horiz-adv-x="570" d="M175 0h-75v341q0 46 -5 79t-15 69l69 17q15 -35 23 -74q37 36 79.5 55t87.5 19q63 0 98.5 -37t35.5 -109v-345q0 -79 -23.5 -132t-70.5 -98l-31 31q18 32 34 80.5t16 118.5v329q0 105 -90 105q-64 0 -133 -59v-390z" />
<glyph unicode="&#x14c;" horiz-adv-x="699" d="M223 813v53h265v-53h-265zM632 345q0 -116 -39.5 -195t-105 -119.5t-143.5 -40.5q-79 0 -141.5 40t-98.5 116.5t-36 186.5q0 112 38 193.5t104 125.5t147 44q80 0 142 -42t97.5 -121t35.5 -188zM149 341q0 -86 24 -151t68.5 -101.5t107.5 -36.5q92 0 147 76t55 214 q0 86 -22.5 152t-66 103t-106.5 37q-61 0 -107.5 -35t-73 -100.5t-26.5 -157.5z" />
<glyph unicode="&#x14d;" horiz-adv-x="559" d="M143 639v50h273v-50h-273zM494 252q0 -87 -30.5 -145.5t-80.5 -87.5t-109 -29q-61 0 -108 30t-74 86.5t-27 136.5q0 86 30 144.5t80.5 88.5t109.5 30q62 0 109 -30.5t73.5 -87.5t26.5 -136zM144 250q0 -92 33.5 -150t100.5 -58q61 0 99.5 52.5t38.5 151.5q0 93 -34 150.5 t-100 57.5q-61 0 -99.5 -51t-38.5 -153z" />
<glyph unicode="&#x14e;" horiz-adv-x="699" d="M450 898h34q-9 -54 -44.5 -86t-87.5 -32q-50 0 -84 30.5t-41 83.5l34 5q10 -28 35 -43.5t61 -15.5q33 0 57.5 16t35.5 42zM632 345q0 -116 -39.5 -195t-105 -119.5t-143.5 -40.5q-79 0 -141.5 40t-98.5 116.5t-36 186.5q0 112 38 193.5t104 125.5t147 44q80 0 142 -42 t97.5 -121t35.5 -188zM149 341q0 -86 24 -151t68.5 -101.5t107.5 -36.5q92 0 147 76t55 214q0 86 -22.5 152t-66 103t-106.5 37q-61 0 -107.5 -35t-73 -100.5t-26.5 -157.5z" />
<glyph unicode="&#x14f;" horiz-adv-x="559" d="M373 737h35q-10 -65 -45 -103t-88 -38q-49 0 -83.5 36t-41.5 100l34 5q10 -38 35.5 -59.5t61.5 -21.5q33 0 57.5 22t34.5 59zM494 252q0 -87 -30.5 -145.5t-80.5 -87.5t-109 -29q-61 0 -108 30t-74 86.5t-27 136.5q0 86 30 144.5t80.5 88.5t109.5 30q62 0 109 -30.5 t73.5 -87.5t26.5 -136zM144 250q0 -92 33.5 -150t100.5 -58q61 0 99.5 52.5t38.5 151.5q0 93 -34 150.5t-100 57.5q-61 0 -99.5 -51t-38.5 -153z" />
<glyph unicode="&#x150;" horiz-adv-x="699" d="M356 863l-3 -13q-43 -32 -90.5 -50t-99.5 -25l-8 23q43 23 84 50.5t74 59.5zM556 863l-3 -13q-43 -32 -90.5 -50t-99.5 -25l-8 23q43 23 84 50.5t74 59.5zM632 345q0 -116 -39.5 -195t-105 -119.5t-143.5 -40.5q-79 0 -141.5 40t-98.5 116.5t-36 186.5q0 112 38 193.5 t104 125.5t147 44q80 0 142 -42t97.5 -121t35.5 -188zM149 341q0 -86 24 -151t68.5 -101.5t107.5 -36.5q92 0 147 76t55 214q0 86 -22.5 152t-66 103t-106.5 37q-61 0 -107.5 -35t-73 -100.5t-26.5 -157.5z" />
<glyph unicode="&#x151;" horiz-adv-x="559" d="M293 748l5 -13q-30 -48 -66.5 -86.5t-81.5 -71.5l-25 12q33 39 62 83t49 88zM427 748l4 -13q-30 -48 -66.5 -86.5t-81.5 -71.5l-25 12q33 39 62.5 83t49.5 88zM494 252q0 -87 -30.5 -145.5t-80.5 -87.5t-109 -29q-61 0 -108 30t-74 86.5t-27 136.5q0 86 30 144.5 t80.5 88.5t109.5 30q62 0 109 -30.5t73.5 -87.5t26.5 -136zM144 250q0 -92 33.5 -150t100.5 -58q61 0 99.5 52.5t38.5 151.5q0 93 -34 150.5t-100 57.5q-61 0 -99.5 -51t-38.5 -153z" />
<glyph unicode="&#x152;" horiz-adv-x="931" d="M891 64v-64h-472q-36 -10 -75 -10q-79 0 -141.5 40t-98.5 116.5t-36 186.5q0 112 38 193.5t104 125.5t147 44q38 0 73 -10h443l9 -8l-1 -56l-348 4q43 -42 69 -107t29 -150l206 2l-1 -61l-205 3q-5 -86 -33 -149.5t-71 -103.5zM149 341q0 -86 24 -151t68.5 -101.5 t107.5 -36.5q92 0 147 76t55 214q0 86 -22.5 152t-66 103t-106.5 37q-61 0 -107.5 -35t-73 -100.5t-26.5 -157.5z" />
<glyph unicode="&#x153;" horiz-adv-x="861" d="M802 257l-15 -15h-293q3 -98 47 -146t113 -48q38 0 71.5 12.5t60.5 30.5l5 -55q-21 -16 -61.5 -31t-90.5 -15q-63 0 -111 29t-75 82q-29 -54 -77 -82.5t-104 -28.5q-59 0 -106 30t-74 86.5t-27 136.5q0 86 30 144.5t80 88.5t109 30q58 0 103 -30t70 -83q29 54 75.5 83.5 t101.5 29.5q76 0 122.5 -52t46.5 -138v-29.5t-1 -29.5zM144 250q0 -92 33.5 -150t100.5 -58q61 0 99.5 52.5t38.5 152.5q0 92 -34 149.5t-100 57.5q-61 0 -99.5 -51t-38.5 -153zM627 454q-51 0 -89 -44t-43 -131l232 7q1 8 1 17v18q0 60 -26.5 96.5t-74.5 36.5z" />
<glyph unicode="&#x154;" horiz-adv-x="587" d="M424 862l-4 -13q-55 -32 -115 -49.5t-127 -24.5l-8 23q55 23 108 50.5t96 59.5zM180 0h-77v531q0 44 -2 80.5t-6 74.5h178q114 0 180 -57t66 -151q0 -72 -37.5 -118t-98.5 -67l167 -293l-83 -9q-38 69 -76 140t-75 141h-136v-272zM268 628h-88v-298h85q84 0 128.5 37.5 t44.5 108.5q0 64 -40 108t-130 44z" />
<glyph unicode="&#x155;" horiz-adv-x="384" d="M298 744l4 -14q-31 -47 -71 -85t-89 -71l-25 13q32 40 61.5 83.5t49.5 87.5zM175 0h-75v341q0 46 -5 79t-15 69l70 17q18 -44 24 -88q34 41 71.5 64.5t73.5 23.5q15 0 27.5 -4t19.5 -9l-14 -69q-9 3 -20 5.5t-25 2.5q-25 0 -61 -14.5t-71 -45.5v-372z" />
<glyph unicode="&#x156;" horiz-adv-x="587" d="M180 0h-77v531q0 44 -2 80.5t-6 74.5h178q114 0 180 -57t66 -151q0 -72 -37.5 -118t-98.5 -67l167 -293l-83 -9q-38 69 -76 140t-75 141h-136v-272zM268 628h-88v-298h85q84 0 128.5 37.5t44.5 108.5q0 64 -40 108t-130 44zM252 -311q13 23 24 46.5t17 47.5 q-19 1 -31.5 16t-12.5 36t13.5 39.5t39.5 18.5q22 0 36 -16t14 -45q0 -42 -23.5 -86t-48.5 -76z" />
<glyph unicode="&#x157;" horiz-adv-x="384" d="M175 0h-75v341q0 46 -5 79t-15 69l70 17q18 -44 24 -88q34 41 71.5 64.5t73.5 23.5q15 0 27.5 -4t19.5 -9l-14 -69q-9 3 -20 5.5t-25 2.5q-25 0 -61 -14.5t-71 -45.5v-372zM86 -311q14 23 24.5 46.5t16.5 47.5q-19 1 -31.5 16t-12.5 36t14 39.5t39 18.5q23 0 37 -16 t14 -45q0 -42 -24 -86t-49 -76z" />
<glyph unicode="&#x158;" horiz-adv-x="587" d="M425 914l22 -20q-33 -29 -61.5 -58.5t-53.5 -60.5l-62 -6q-55 64 -124 125l21 20q37 -21 70 -43t64 -44q28 22 59 44t65 43zM180 0h-77v531q0 44 -2 80.5t-6 74.5h178q114 0 180 -57t66 -151q0 -72 -37.5 -118t-98.5 -67l167 -293l-83 -9q-38 69 -76 140t-75 141h-136 v-272zM268 628h-88v-298h85q84 0 128.5 37.5t44.5 108.5q0 64 -40 108t-130 44z" />
<glyph unicode="&#x159;" horiz-adv-x="384" d="M326 759l24 -19q-29 -38 -55 -76.5t-49 -79.5l-61 -6q-25 41 -53.5 81.5t-59.5 80.5l24 19q31 -27 61 -57.5t58 -60.5q26 30 53.5 60t57.5 58zM175 0h-75v341q0 46 -5 79t-15 69l70 17q18 -44 24 -88q34 41 71.5 64.5t73.5 23.5q15 0 27.5 -4t19.5 -9l-14 -69 q-9 3 -20 5.5t-25 2.5q-25 0 -61 -14.5t-71 -45.5v-372z" />
<glyph unicode="&#x15a;" horiz-adv-x="513" d="M394 862l-3 -13q-55 -32 -115 -49.5t-127 -24.5l-8 23q55 23 108 50.5t96 59.5zM455 171q0 -85 -62 -133t-161 -48q-39 0 -86.5 8.5t-86.5 27.5l8 70q41 -24 88.5 -33t79.5 -9q67 0 103.5 30.5t36.5 80.5q0 42 -22 70t-57 48.5t-73 40.5q-39 21 -75.5 44.5t-60 58.5 t-23.5 87q0 57 28.5 97.5t79 62.5t116.5 22q41 0 83.5 -8.5t70.5 -22.5l-11 -71q-36 22 -75 30.5t-70 8.5q-68 0 -105 -30t-37 -80q0 -41 23.5 -68.5t59 -47.5t73.5 -40q36 -19 72 -44t59.5 -61.5t23.5 -90.5z" />
<glyph unicode="&#x15b;" horiz-adv-x="439" d="M304 744l5 -14q-31 -47 -71 -85t-89 -71l-25 13q32 40 61.5 83.5t49.5 87.5zM370 476l-9 -64q-29 18 -60 28.5t-63 10.5q-48 0 -75 -21.5t-27 -54.5q0 -29 17.5 -48t46 -33.5t60.5 -28.5t60 -32t46 -43t18 -63q0 -61 -49 -99t-131 -38q-36 0 -76 8t-73 26l9 63 q34 -21 73.5 -31t70.5 -10q50 0 76 21.5t26 52.5q0 27 -18 45.5t-46.5 33t-60.5 28t-60 31.5t-46 44t-18 64q0 62 49 101t130 39q37 0 69 -8.5t61 -21.5z" />
<glyph unicode="&#x15c;" horiz-adv-x="513" d="M138 768l-21 20q33 29 61 58.5t54 60.5l61 6q55 -64 125 -125l-22 -20q-36 21 -69.5 43t-63.5 44q-29 -22 -60 -44t-65 -43zM455 171q0 -85 -62 -133t-161 -48q-39 0 -86.5 8.5t-86.5 27.5l8 70q41 -24 88.5 -33t79.5 -9q67 0 103.5 30.5t36.5 80.5q0 42 -22 70t-57 48.5 t-73 40.5q-39 21 -75.5 44.5t-60 58.5t-23.5 87q0 57 28.5 97.5t79 62.5t116.5 22q41 0 83.5 -8.5t70.5 -22.5l-11 -71q-36 22 -75 30.5t-70 8.5q-68 0 -105 -30t-37 -80q0 -41 23.5 -68.5t59 -47.5t73.5 -40q36 -19 72 -44t59.5 -61.5t23.5 -90.5z" />
<glyph unicode="&#x15d;" horiz-adv-x="439" d="M103 572l-24 19q28 38 54 76.5t49 79.5l62 6q25 -41 53 -81.5t60 -80.5l-24 -19q-32 27 -62 57t-58 61q-26 -30 -53.5 -60t-56.5 -58zM370 476l-9 -64q-29 18 -60 28.5t-63 10.5q-48 0 -75 -21.5t-27 -54.5q0 -29 17.5 -48t46 -33.5t60.5 -28.5t60 -32t46 -43t18 -63 q0 -61 -49 -99t-131 -38q-36 0 -76 8t-73 26l9 63q34 -21 73.5 -31t70.5 -10q50 0 76 21.5t26 52.5q0 27 -18 45.5t-46.5 33t-60.5 28t-60 31.5t-46 44t-18 64q0 62 49 101t130 39q37 0 69 -8.5t61 -21.5z" />
<glyph unicode="&#x15e;" horiz-adv-x="513" d="M358 -130q0 -30 -22 -50t-57 -31t-73 -15l-3 32q43 8 67.5 22t24.5 36q0 20 -19 28.5t-46 10.5l-10 15l22 72h-10q-39 0 -86.5 8.5t-86.5 27.5l8 70q41 -24 88.5 -33t79.5 -9q67 0 103.5 30.5t36.5 80.5q0 42 -22 70t-57 48.5t-73 40.5q-39 21 -75.5 44.5t-60 58.5 t-23.5 87q0 57 28.5 97.5t79 62.5t116.5 22q41 0 83.5 -8.5t70.5 -22.5l-11 -71q-36 22 -75 30.5t-70 8.5q-68 0 -105 -30t-37 -80q0 -41 23.5 -68.5t59 -47.5t73.5 -40q36 -19 72 -44t59.5 -61.5t23.5 -90.5q0 -72 -45 -118t-121 -58l-18 -56q35 -4 61 -20.5t26 -48.5z" />
<glyph unicode="&#x15f;" horiz-adv-x="439" d="M318 -130q0 -30 -22 -50t-56.5 -31t-72.5 -15l-3 32q43 8 67.5 22t24.5 36q0 20 -19.5 28.5t-46.5 10.5l-10 15l23 72q-36 0 -76 8t-72 26l9 63q34 -21 73.5 -31t70.5 -10q50 0 76 21.5t26 52.5q0 27 -18 45.5t-46.5 33t-60.5 28t-60 31.5t-46 44t-18 64q0 62 49 101 t130 39q37 0 69 -8.5t61 -21.5l-9 -64q-29 18 -60 28.5t-63 10.5q-48 0 -75 -21.5t-27 -54.5q0 -29 17.5 -48t46 -33.5t60.5 -28.5t60 -32t46 -43t18 -63q0 -52 -36 -87.5t-99 -45.5l-17 -55q35 -4 60.5 -20.5t25.5 -48.5z" />
<glyph unicode="&#x160;" horiz-adv-x="513" d="M396 914l22 -20q-34 -29 -62 -58.5t-54 -60.5l-61 -6q-55 64 -124 125l21 20q36 -21 69.5 -43t63.5 -44q29 22 60 44t65 43zM455 171q0 -85 -62 -133t-161 -48q-39 0 -86.5 8.5t-86.5 27.5l8 70q41 -24 88.5 -33t79.5 -9q67 0 103.5 30.5t36.5 80.5q0 42 -22 70t-57 48.5 t-73 40.5q-39 21 -75.5 44.5t-60 58.5t-23.5 87q0 57 28.5 97.5t79 62.5t116.5 22q41 0 83.5 -8.5t70.5 -22.5l-11 -71q-36 22 -75 30.5t-70 8.5q-68 0 -105 -30t-37 -80q0 -41 23.5 -68.5t59 -47.5t73.5 -40q36 -19 72 -44t59.5 -61.5t23.5 -90.5z" />
<glyph unicode="&#x161;" horiz-adv-x="439" d="M333 759l24 -19q-29 -38 -55 -76.5t-49 -79.5l-62 -6q-25 41 -53 81.5t-59 80.5l24 19q31 -27 61 -57.5t58 -60.5q26 30 53.5 60t57.5 58zM370 476l-9 -64q-29 18 -60 28.5t-63 10.5q-48 0 -75 -21.5t-27 -54.5q0 -29 17.5 -48t46 -33.5t60.5 -28.5t60 -32t46 -43t18 -63 q0 -61 -49 -99t-131 -38q-36 0 -76 8t-73 26l9 63q34 -21 73.5 -31t70.5 -10q50 0 76 21.5t26 52.5q0 27 -18 45.5t-46.5 33t-60.5 28t-60 31.5t-46 44t-18 64q0 62 49 101t130 39q37 0 69 -8.5t61 -21.5z" />
<glyph unicode="&#x162;" horiz-adv-x="537" d="M308 0h-14l-20 -61q35 -4 60.5 -20.5t25.5 -48.5q0 -30 -22 -50t-56.5 -31t-72.5 -15l-3 32q43 8 67.5 22t24.5 36q0 20 -19.5 28.5t-46.5 10.5l-10 15l26 82h-18v626q-52 0 -104 -2t-105 -4l5 66h485l5 -66q-52 2 -104.5 4t-103.5 2v-626z" />
<glyph unicode="&#x163;" horiz-adv-x="361" d="M302 -130q0 -30 -22 -50t-57 -31t-72 -15l-4 32q43 8 68 22t25 36q0 20 -19.5 28.5t-46.5 10.5l-10 15l24 77q-43 11 -65.5 50t-22.5 108v298l-73 1v34l74 10l18 117l50 5l9 -9l-3 -113h136l6 -8l-3 -39l-139 1v-289q0 -62 19.5 -87.5t56.5 -25.5q22 0 42 7t38 18l10 -52 q-21 -13 -49 -22t-60 -9l-17 -51q35 -4 61 -20.5t26 -48.5z" />
<glyph unicode="&#x164;" horiz-adv-x="537" d="M398 914l21 -20q-33 -29 -61 -58.5t-54 -60.5l-62 -6q-55 64 -124 125l22 20q36 -21 69 -43t64 -44q28 22 59 44t66 43zM308 0h-78v626q-52 0 -104 -2t-105 -4l5 66h485l5 -66q-52 2 -104.5 4t-103.5 2v-626z" />
<glyph unicode="&#x165;" horiz-adv-x="361" d="M322 764l7 -12q-8 -58 -28 -110t-47 -102l-27 5q12 54 20.5 109t9.5 105zM314 449l-139 1v-289q0 -62 19.5 -87.5t56.5 -25.5q22 0 42 7t38 18l10 -52q-21 -13 -49 -22t-62 -9q-63 0 -96.5 39.5t-33.5 123.5v298l-73 1v34l74 10l18 117l50 5l9 -9l-3 -113h136l6 -8z" />
<glyph unicode="&#x166;" horiz-adv-x="537" d="M308 0h-78v321h-144v45h144v260q-52 0 -104 -2t-105 -4l5 66h485l5 -66q-52 2 -104.5 4t-103.5 2v-260h144v-45h-144v-321z" />
<glyph unicode="&#x167;" horiz-adv-x="361" d="M313 282h-138v-121q0 -62 19.5 -87.5t56.5 -25.5q22 0 42 7t38 18l10 -52q-21 -13 -49 -22t-62 -9q-63 0 -96.5 39.5t-33.5 123.5v129h-72v45h72v124l-73 1v34l74 10l18 117l50 5l9 -9l-3 -113h136l6 -8l-3 -39l-139 1v-123h138v-45z" />
<glyph unicode="&#x168;" horiz-adv-x="653" d="M257 901q29 0 53 -14t46 -28t46 -14t39.5 15.5t27.5 37.5l23 -4q-3 -26 -14.5 -50.5t-31.5 -40.5t-49 -16t-53.5 14t-47 28.5t-45.5 14.5t-39 -15.5t-28 -38.5l-23 4q3 24 13.5 48.5t31 41.5t51.5 17zM89 531q0 44 -2.5 81t-7.5 76l83 8l5 -5v-464q0 -85 46 -129.5 t115 -44.5t115 44t46 130v314q0 43 -2.5 77.5t-7.5 69.5l85 8v-471q0 -78 -32.5 -130.5t-87.5 -78.5t-122 -26q-65 0 -118 26.5t-84 78.5t-31 130v306z" />
<glyph unicode="&#x169;" horiz-adv-x="560" d="M211 723q27 0 50 -14t44 -28t43 -14q20 0 34.5 15.5t25.5 37.5l24 -4q-3 -26 -14 -51.5t-29.5 -42.5t-45.5 -17t-51 14t-45.5 28t-42.5 14q-19 0 -33.5 -15.5t-25.5 -38.5l-24 4q3 25 13.5 51t29 43.5t47.5 17.5zM96 339q0 44 -1.5 80.5t-5.5 74.5l74 12l8 -8v-351 q0 -47 21.5 -72t64.5 -25q61 0 127 59v387l75 10v-365q0 -42 4.5 -74.5t14.5 -64.5l-64 -12q-8 16 -14 36.5t-10 38.5h-2q-75 -75 -160 -75q-63 0 -97.5 35.5t-34.5 99.5v214z" />
<glyph unicode="&#x16a;" horiz-adv-x="653" d="M194 813v53h265v-53h-265zM89 531q0 44 -2.5 81t-7.5 76l83 8l5 -5v-464q0 -85 46 -129.5t115 -44.5t115 44t46 130v314q0 43 -2.5 77.5t-7.5 69.5l85 8v-471q0 -78 -32.5 -130.5t-87.5 -78.5t-122 -26q-65 0 -118 26.5t-84 78.5t-31 130v306z" />
<glyph unicode="&#x16b;" horiz-adv-x="560" d="M143 639v50h273v-50h-273zM96 339q0 44 -1.5 80.5t-5.5 74.5l74 12l8 -8v-351q0 -47 21.5 -72t64.5 -25q61 0 127 59v387l75 10v-365q0 -42 4.5 -74.5t14.5 -64.5l-64 -12q-8 16 -14 36.5t-10 38.5h-2q-75 -75 -160 -75q-63 0 -97.5 35.5t-34.5 99.5v214z" />
<glyph unicode="&#x16c;" horiz-adv-x="653" d="M421 898h34q-9 -54 -44.5 -86t-87.5 -32q-50 0 -84 30.5t-41 83.5l34 5q10 -28 35 -43.5t61 -15.5q33 0 57.5 16t35.5 42zM89 531q0 44 -2.5 81t-7.5 76l83 8l5 -5v-464q0 -85 46 -129.5t115 -44.5t115 44t46 130v314q0 43 -2.5 77.5t-7.5 69.5l85 8v-471 q0 -78 -32.5 -130.5t-87.5 -78.5t-122 -26q-65 0 -118 26.5t-84 78.5t-31 130v306z" />
<glyph unicode="&#x16d;" horiz-adv-x="560" d="M373 737h34q-9 -65 -44 -103t-88 -38q-49 0 -83.5 36t-41.5 100l34 5q10 -38 35.5 -59.5t60.5 -21.5q33 0 58 22t35 59zM96 339q0 44 -1.5 80.5t-5.5 74.5l74 12l8 -8v-351q0 -47 21.5 -72t64.5 -25q61 0 127 59v387l75 10v-365q0 -42 4.5 -74.5t14.5 -64.5l-64 -12 q-8 16 -14 36.5t-10 38.5h-2q-75 -75 -160 -75q-63 0 -97.5 35.5t-34.5 99.5v214z" />
<glyph unicode="&#x16e;" horiz-adv-x="653" d="M421 851q0 -36 -27.5 -62.5t-67.5 -26.5q-35 0 -60 22t-25 55q0 37 28.5 63t68.5 26q36 0 59.5 -22t23.5 -55zM284 843q0 -20 12.5 -33t33.5 -13q20 0 34 14.5t14 35.5q0 20 -11.5 33.5t-32.5 13.5q-22 0 -36 -15t-14 -36zM89 531q0 44 -2.5 81t-7.5 76l83 8l5 -5v-464 q0 -85 46 -129.5t115 -44.5t115 44t46 130v314q0 43 -2.5 77.5t-7.5 69.5l85 8v-471q0 -78 -32.5 -130.5t-87.5 -78.5t-122 -26q-65 0 -118 26.5t-84 78.5t-31 130v306z" />
<glyph unicode="&#x16f;" horiz-adv-x="560" d="M374 661q0 -36 -28 -62.5t-67 -26.5q-35 0 -60.5 22t-25.5 55q0 37 29 63t68 26q37 0 60.5 -22t23.5 -55zM237 653q0 -20 12.5 -33t32.5 -13q21 0 35 14.5t14 35.5q0 20 -11.5 33.5t-32.5 13.5q-22 0 -36 -15t-14 -36zM96 339q0 44 -1.5 80.5t-5.5 74.5l74 12l8 -8v-351 q0 -47 21.5 -72t64.5 -25q61 0 127 59v387l75 10v-365q0 -42 4.5 -74.5t14.5 -64.5l-64 -12q-8 16 -14 36.5t-10 38.5h-2q-75 -75 -160 -75q-63 0 -97.5 35.5t-34.5 99.5v214z" />
<glyph unicode="&#x170;" horiz-adv-x="653" d="M327 863l-3 -13q-43 -32 -90.5 -50t-99.5 -25l-8 23q43 23 84 50.5t74 59.5zM527 863l-3 -13q-43 -32 -90.5 -50t-99.5 -25l-8 23q43 23 84 50.5t74 59.5zM89 531q0 44 -2.5 81t-7.5 76l83 8l5 -5v-464q0 -85 46 -129.5t115 -44.5t115 44t46 130v314q0 43 -2.5 77.5 t-7.5 69.5l85 8v-471q0 -78 -32.5 -130.5t-87.5 -78.5t-122 -26q-65 0 -118 26.5t-84 78.5t-31 130v306z" />
<glyph unicode="&#x171;" horiz-adv-x="560" d="M293 748l4 -13q-30 -48 -66.5 -86.5t-81.5 -71.5l-25 12q33 39 62.5 83t49.5 88zM426 748l5 -13q-30 -48 -66.5 -86.5t-81.5 -71.5l-25 12q33 39 62.5 83t49.5 88zM96 339q0 44 -1.5 80.5t-5.5 74.5l74 12l8 -8v-351q0 -47 21.5 -72t64.5 -25q61 0 127 59v387l75 10v-365 q0 -42 4.5 -74.5t14.5 -64.5l-64 -12q-8 16 -14 36.5t-10 38.5h-2q-75 -75 -160 -75q-63 0 -97.5 35.5t-34.5 99.5v214z" />
<glyph unicode="&#x172;" horiz-adv-x="653" d="M460 25q-59 -42 -84.5 -78.5t-25.5 -67.5q0 -54 52 -54q11 0 24.5 3t31.5 10l13 -32q-39 -31 -92 -31q-44 0 -70.5 22t-26.5 63q0 69 81 133q-20 -3 -41 -3q-65 0 -118 26.5t-84 78.5t-31 130v306q0 44 -2.5 81t-7.5 76l83 8l5 -5v-464q0 -85 46 -129.5t115 -44.5t115 44 t46 130v314q0 43 -2.5 77.5t-7.5 69.5l85 8v-471q0 -72 -28.5 -122t-75.5 -78v0z" />
<glyph unicode="&#x173;" horiz-adv-x="560" d="M96 339q0 44 -1.5 80.5t-5.5 74.5l74 12l8 -8v-351q0 -47 21.5 -72t64.5 -25q61 0 127 59v387l75 10v-365q0 -42 4.5 -74.5t14.5 -64.5l-9 -1l2 -1q-112 -61 -112 -125q0 -50 53 -50q10 0 23.5 3t31.5 10l13 -32q-38 -31 -92 -31q-44 0 -70 21.5t-26 60.5q0 80 117 142 q-6 15 -11 32.5t-8 33.5h-2q-75 -75 -160 -75q-63 0 -97.5 35.5t-34.5 99.5v214z" />
<glyph unicode="&#x174;" horiz-adv-x="980" d="M360 768l-21 20q33 29 61 58.5t54 60.5l62 6q54 -64 124 -125l-22 -20q-36 21 -69.5 43t-63.5 44q-29 -22 -59.5 -44t-65.5 -43zM242 -4l-211 692l79 8l122 -408q17 -57 30.5 -107t21.5 -96q8 46 25 106t34 114l115 386l74 5l122 -408q18 -57 32 -107t21 -96 q8 46 24.5 105t33.5 114l117 392l61 -6l6 -8l-210 -686h-70l-133 425q-11 39 -22.5 80.5t-22.5 87.5h-1q-11 -46 -22.5 -87.5t-23.5 -81.5l-132 -424h-70z" />
<glyph unicode="&#x175;" horiz-adv-x="759" d="M268 572l-24 19q28 38 54 76.5t50 79.5l61 6q25 -41 53 -81.5t60 -80.5l-24 -19q-32 27 -62 57t-58 61q-25 -30 -53 -60t-57 -58zM183 -4l-159 504l76 6l70 -235q23 -72 34.5 -116t19.5 -81h1q7 31 13.5 58t16 58t23.5 75l70 239h75l68 -230q14 -47 31 -101t24 -98h1 q9 46 24 97t30 98l70 236l58 -6l6 -9l-157 -495h-73l-76 245q-18 58 -30 99.5t-19 84.5h-1q-7 -43 -19.5 -87.5t-28.5 -95.5l-76 -246h-72z" />
<glyph unicode="&#x176;" horiz-adv-x="560" d="M156 768l-21 20q33 29 61 58.5t54 60.5l62 6q54 -64 124 -125l-22 -20q-36 21 -69.5 43t-63.5 44q-29 -22 -59.5 -44t-65.5 -43zM241 246l-218 443l83 7l117 -243q15 -32 33 -71t29 -70h2q14 33 32 72t33 70l115 242l64 -6l6 -8l-218 -439v-243h-78v246z" />
<glyph unicode="&#x177;" horiz-adv-x="462" d="M124 572l-24 19q29 38 55 76.5t49 79.5l61 6q25 -41 53.5 -81.5t59.5 -80.5l-24 -19q-31 27 -61 57t-58 61q-26 -30 -53.5 -60t-57.5 -58zM446 491l-172 -481q-24 -68 -57.5 -126t-79.5 -95.5t-108 -44.5l-12 73q64 7 113.5 54t85.5 143h-21l-171 486l77 6l79 -240 q19 -52 30.5 -86t18 -60t11.5 -54h1q6 28 13 53.5t18.5 59.5t30.5 87l79 240l58 -6z" />
<glyph unicode="&#x178;" horiz-adv-x="560" d="M438 844q0 -23 -14 -40.5t-40 -17.5q-22 0 -35 14t-13 34q0 22 16 39t40 17q21 0 33.5 -13t12.5 -33zM236 844q0 -23 -14.5 -40.5t-40.5 -17.5q-22 0 -35 14t-13 34q0 22 16 39t40 17q21 0 34 -13t13 -33zM241 246l-218 443l83 7l117 -243q15 -32 33 -71t29 -70h2 q14 33 32 72t33 70l115 242l64 -6l6 -8l-218 -439v-243h-78v246z" />
<glyph unicode="&#x179;" horiz-adv-x="520" d="M387 862l-4 -13q-55 -32 -115 -49.5t-127 -24.5l-8 23q55 23 108 50.5t96 59.5zM43 0l-13 49l364 573l-352 -4l5 68h417l19 -48l-362 -574l366 5l-5 -69h-439z" />
<glyph unicode="&#x17a;" horiz-adv-x="434" d="M307 744l5 -14q-32 -47 -72 -85t-89 -71l-25 13q32 40 62 83.5t50 87.5zM34 432l5 64h349l8 -47l-282 -390l138 2q37 1 75 2t76 4l-5 -67h-359l-8 48l285 389z" />
<glyph unicode="&#x17b;" horiz-adv-x="520" d="M316 850q0 -24 -15.5 -41.5t-43.5 -17.5q-24 0 -38.5 14.5t-14.5 35.5q0 23 17.5 40.5t43.5 17.5q23 0 37 -14t14 -35zM43 0l-13 49l364 573l-352 -4l5 68h417l19 -48l-362 -574l366 5l-5 -69h-439z" />
<glyph unicode="&#x17c;" horiz-adv-x="434" d="M272 670q0 -25 -15 -44t-41 -19q-23 0 -36.5 16t-13.5 39q0 24 16.5 43t41.5 19q22 0 35 -15t13 -39zM34 432l5 64h349l8 -47l-282 -390l138 2q37 1 75 2t76 4l-5 -67h-359l-8 48l285 389z" />
<glyph unicode="&#x17d;" horiz-adv-x="520" d="M388 914l22 -20q-33 -29 -61.5 -58.5t-53.5 -60.5l-62 -6q-55 64 -124 125l21 20q37 -21 70 -43t64 -44q28 22 59 44t65 43zM43 0l-13 49l364 573l-352 -4l5 68h417l19 -48l-362 -574l366 5l-5 -69h-439z" />
<glyph unicode="&#x17e;" horiz-adv-x="434" d="M335 759l24 -19q-29 -38 -54.5 -76.5t-49.5 -79.5l-61 -6q-25 41 -53 81.5t-60 80.5l24 19q31 -27 61 -57.5t58 -60.5q26 30 53.5 60t57.5 58zM34 432l5 64h349l8 -47l-282 -390l138 2q37 1 75 2t76 4l-5 -67h-359l-8 48l285 389z" />
<glyph unicode="&#x18f;" horiz-adv-x="648" d="M74 371l18 19h404q-12 128 -73 186t-151 58q-49 0 -91 -15t-76 -36l-4 62q23 16 72.5 33.5t115.5 17.5q87 0 152.5 -39t102 -117t36.5 -195q0 -120 -36.5 -198.5t-99 -117.5t-137.5 -39q-69 0 -123 31t-85 92t-31 150q0 33 2 58.5t4 49.5zM148 263q0 -106 46 -159.5 t120 -53.5q89 0 137 75t48 207v11l-348 -11q-2 -16 -2.5 -35.5t-0.5 -33.5z" />
<glyph unicode="&#x192;" horiz-adv-x="531" d="M194 297l-113 3l7 35l111 10h2l11 86q9 78 31 138t63.5 93.5t108.5 33.5q66 0 112 -28l-28 -64q-17 13 -40 23t-44 10q-58 0 -85.5 -50t-42.5 -164l-10 -78h177l5 -8l-11 -40h-178l-41 -326q-4 -28 -12 -66.5t-26.5 -75.5t-53.5 -61t-93 -24q-54 0 -99 23l20 65 q16 -12 37.5 -20.5t45.5 -8.5q40 0 61 23t30 58t13 71l43 342h-1z" />
<glyph unicode="&#x19d;" horiz-adv-x="694" d="M30 -187l-24 35q39 30 63 83t24 136v464q0 44 -2 81.5t-6 73.5l81 10q48 -79 93.5 -153t88.5 -145q37 -59 67 -107.5t56 -94.5t50 -96h1q-1 24 -2.5 45.5t-2 49t-1 68t-0.5 101.5v151q0 49 -2 90t-6 81l74 10l9 -9v-687h-77q-48 77 -93.5 151t-89.5 146q-36 58 -65.5 105 t-54 90.5t-48.5 91.5h-1q4 -64 5 -122t1 -115v-280q0 -102 -33.5 -160.5t-104.5 -93.5z" />
<glyph unicode="&#x1cd;" horiz-adv-x="612" d="M435 916l21 -19q-33 -30 -61 -59t-54 -60l-61 -6q-55 64 -125 125l22 19q36 -20 69.5 -42t63.5 -45q29 23 59.5 45t65.5 42zM98 0h-74l205 589q9 28 18 55t15 48l76 4l11 -10l239 -686h-79l-70 199h-271zM240 404l-51 -145h229l-50 145q-20 58 -36.5 111t-26.5 98h-2 q-11 -45 -28 -99.5t-35 -109.5z" />
<glyph unicode="&#x1ce;" horiz-adv-x="504" d="M355 759l24 -19q-29 -38 -54.5 -76.5t-49.5 -79.5l-61 -6q-25 41 -53 81.5t-60 80.5l24 19q31 -27 61 -57.5t58 -60.5q26 30 53.5 60t57.5 58zM405 144q0 -36 5 -70.5t19 -73.5l-67 -10q-16 31 -24 70h-1q-20 -26 -61 -48t-92 -22q-61 0 -95 33t-34 85q0 57 38.5 93.5 t101.5 55.5t136 23v66q0 48 -25 74.5t-78 26.5q-39 0 -78.5 -13t-73.5 -34l-4 64q32 16 78 29t94 13q81 0 122 -39t41 -106q0 -34 -0.5 -76t-1 -80t-0.5 -61zM131 119q0 -30 19.5 -53.5t59.5 -23.5q32 0 66 16.5t55 39.5v144q-54 -4 -99.5 -18.5t-73 -40.5t-27.5 -64z" />
<glyph unicode="&#x1cf;" horiz-adv-x="283" d="M266 916l21 -19q-33 -30 -61 -59t-54 -60l-61 -6q-55 64 -125 125l22 19q36 -20 69.5 -42t63.5 -45q29 23 59.5 45t65.5 42zM180 0h-77v529q0 89 -8 157l77 10l8 -8v-688z" />
<glyph unicode="&#x1d0;" horiz-adv-x="269" d="M215 760l24 -13q-19 -40 -35.5 -79.5t-31.5 -80.5l-74 -6q-17 42 -36 83.5t-40 82.5l24 13q23 -26 45.5 -55.5t42.5 -60.5q19 31 39 60.5t42 55.5zM96 0v339q0 44 -1.5 80t-7.5 75l76 12l8 -8v-498h-75z" />
<glyph unicode="&#x1d1;" horiz-adv-x="699" d="M484 914l22 -20q-34 -29 -62 -58.5t-54 -60.5l-61 -6q-55 64 -124 125l21 20q36 -21 69.5 -43t63.5 -44q29 22 60 44t65 43zM632 345q0 -116 -39.5 -195t-105 -119.5t-143.5 -40.5q-79 0 -141.5 40t-98.5 116.5t-36 186.5q0 112 38 193.5t104 125.5t147 44q80 0 142 -42 t97.5 -121t35.5 -188zM149 341q0 -86 24 -151t68.5 -101.5t107.5 -36.5q92 0 147 76t55 214q0 86 -22.5 152t-66 103t-106.5 37q-61 0 -107.5 -35t-73 -100.5t-26.5 -157.5z" />
<glyph unicode="&#x1d2;" horiz-adv-x="559" d="M396 759l24 -19q-29 -38 -55 -76.5t-49 -79.5l-61 -6q-25 41 -53.5 81.5t-59.5 80.5l24 19q31 -27 61 -57.5t58 -60.5q26 30 53.5 60t57.5 58zM494 252q0 -87 -30.5 -145.5t-80.5 -87.5t-109 -29q-61 0 -108 30t-74 86.5t-27 136.5q0 86 30 144.5t80.5 88.5t109.5 30 q62 0 109 -30.5t73.5 -87.5t26.5 -136zM144 250q0 -92 33.5 -150t100.5 -58q61 0 99.5 52.5t38.5 151.5q0 93 -34 150.5t-100 57.5q-61 0 -99.5 -51t-38.5 -153z" />
<glyph unicode="&#x1d3;" horiz-adv-x="653" d="M455 914l22 -20q-34 -29 -62 -58.5t-54 -60.5l-61 -6q-55 64 -124 125l21 20q36 -21 69.5 -43t63.5 -44q29 22 60 44t65 43zM89 531q0 44 -2.5 81t-7.5 76l83 8l5 -5v-464q0 -85 46 -129.5t115 -44.5t115 44t46 130v314q0 43 -2.5 77.5t-7.5 69.5l85 8v-471 q0 -78 -32.5 -130.5t-87.5 -78.5t-122 -26q-65 0 -118 26.5t-84 78.5t-31 130v306z" />
<glyph unicode="&#x1d4;" horiz-adv-x="560" d="M396 759l24 -19q-29 -38 -55 -76.5t-49 -79.5l-62 -6q-25 41 -53 81.5t-59 80.5l24 19q31 -27 61 -57.5t58 -60.5q26 30 53.5 60t57.5 58zM96 339q0 44 -1.5 80.5t-5.5 74.5l74 12l8 -8v-351q0 -47 21.5 -72t64.5 -25q61 0 127 59v387l75 10v-365q0 -42 4.5 -74.5 t14.5 -64.5l-64 -12q-8 16 -14 36.5t-10 38.5h-2q-75 -75 -160 -75q-63 0 -97.5 35.5t-34.5 99.5v214z" />
<glyph unicode="&#x1d5;" horiz-adv-x="653" d="M194 1016v54h265v-54h-265zM479 844q0 -23 -14 -40.5t-40 -17.5q-22 0 -35 14t-13 34q0 22 15.5 39t39.5 17q21 0 34 -13t13 -33zM276 844q0 -23 -14 -40.5t-40 -17.5q-22 0 -35 14t-13 34q0 22 16 39t40 17q21 0 33.5 -13t12.5 -33zM89 531q0 44 -2.5 81t-7.5 76l83 8 l5 -5v-464q0 -85 46 -129.5t115 -44.5t115 44t46 130v314q0 43 -2.5 77.5t-7.5 69.5l85 8v-471q0 -78 -32.5 -130.5t-87.5 -78.5t-122 -26q-65 0 -118 26.5t-84 78.5t-31 130v306z" />
<glyph unicode="&#x1d6;" horiz-adv-x="560" d="M143 864v49h273v-49h-273zM229 669q0 -24 -14 -43t-39 -19q-22 0 -34.5 15.5t-12.5 36.5q0 25 15.5 43.5t38.5 18.5q21 0 33.5 -14.5t12.5 -37.5zM430 669q0 -24 -14 -43t-39 -19q-22 0 -34.5 15.5t-12.5 36.5q0 25 15.5 43.5t38.5 18.5q21 0 33.5 -14.5t12.5 -37.5z M96 339q0 44 -1.5 80.5t-5.5 74.5l74 12l8 -8v-351q0 -47 21.5 -72t64.5 -25q61 0 127 59v387l75 10v-365q0 -42 4.5 -74.5t14.5 -64.5l-64 -12q-8 16 -14 36.5t-10 38.5h-2q-75 -75 -160 -75q-63 0 -97.5 35.5t-34.5 99.5v214z" />
<glyph unicode="&#x1d7;" horiz-adv-x="653" d="M453 1066l-3 -13q-55 -32 -115 -49.5t-127 -25.5l-8 23q55 23 108 51t96 60zM479 844q0 -23 -14 -40.5t-40 -17.5q-22 0 -35 14t-13 34q0 22 15.5 39t39.5 17q21 0 34 -13t13 -33zM276 844q0 -23 -14 -40.5t-40 -17.5q-22 0 -35 14t-13 34q0 22 16 39t40 17 q21 0 33.5 -13t12.5 -33zM89 531q0 44 -2.5 81t-7.5 76l83 8l5 -5v-464q0 -85 46 -129.5t115 -44.5t115 44t46 130v314q0 43 -2.5 77.5t-7.5 69.5l85 8v-471q0 -78 -32.5 -130.5t-87.5 -78.5t-122 -26q-65 0 -118 26.5t-84 78.5t-31 130v306z" />
<glyph unicode="&#x1d8;" horiz-adv-x="560" d="M367 968l5 -13q-31 -48 -71 -86t-89 -70l-25 12q32 41 61.5 84.5t49.5 86.5zM229 669q0 -24 -14 -43t-39 -19q-22 0 -34.5 15.5t-12.5 36.5q0 25 15.5 43.5t38.5 18.5q21 0 33.5 -14.5t12.5 -37.5zM430 669q0 -24 -14 -43t-39 -19q-22 0 -34.5 15.5t-12.5 36.5 q0 25 15.5 43.5t38.5 18.5q21 0 33.5 -14.5t12.5 -37.5zM96 339q0 44 -1.5 80.5t-5.5 74.5l74 12l8 -8v-351q0 -47 21.5 -72t64.5 -25q61 0 127 59v387l75 10v-365q0 -42 4.5 -74.5t14.5 -64.5l-64 -12q-8 16 -14 36.5t-10 38.5h-2q-75 -75 -160 -75q-63 0 -97.5 35.5 t-34.5 99.5v214z" />
<glyph unicode="&#x1d9;" horiz-adv-x="653" d="M455 1118l22 -20q-34 -29 -62 -58.5t-54 -60.5l-61 -6q-55 64 -124 125l21 20q36 -21 69.5 -43t63.5 -45q29 23 60 45t65 43zM479 844q0 -23 -14 -40.5t-40 -17.5q-22 0 -35 14t-13 34q0 22 15.5 39t39.5 17q21 0 34 -13t13 -33zM276 844q0 -23 -14 -40.5t-40 -17.5 q-22 0 -35 14t-13 34q0 22 16 39t40 17q21 0 33.5 -13t12.5 -33zM89 531q0 44 -2.5 81t-7.5 76l83 8l5 -5v-464q0 -85 46 -129.5t115 -44.5t115 44t46 130v314q0 43 -2.5 77.5t-7.5 69.5l85 8v-471q0 -78 -32.5 -130.5t-87.5 -78.5t-122 -26q-65 0 -118 26.5t-84 78.5 t-31 130v306z" />
<glyph unicode="&#x1da;" horiz-adv-x="560" d="M396 983l24 -18q-29 -38 -55 -77t-49 -80l-62 -6q-25 42 -53 82.5t-59 80.5l24 18q31 -27 61 -57t58 -60q26 30 53.5 59.5t57.5 57.5zM229 669q0 -24 -14 -43t-39 -19q-22 0 -34.5 15.5t-12.5 36.5q0 25 15.5 43.5t38.5 18.5q21 0 33.5 -14.5t12.5 -37.5zM430 669 q0 -24 -14 -43t-39 -19q-22 0 -34.5 15.5t-12.5 36.5q0 25 15.5 43.5t38.5 18.5q21 0 33.5 -14.5t12.5 -37.5zM96 339q0 44 -1.5 80.5t-5.5 74.5l74 12l8 -8v-351q0 -47 21.5 -72t64.5 -25q61 0 127 59v387l75 10v-365q0 -42 4.5 -74.5t14.5 -64.5l-64 -12q-8 16 -14 36.5 t-10 38.5h-2q-75 -75 -160 -75q-63 0 -97.5 35.5t-34.5 99.5v214z" />
<glyph unicode="&#x1db;" horiz-adv-x="653" d="M445 978q-67 8 -127 25.5t-115 49.5l-3 13l49 46q43 -32 96 -60t108 -51zM479 844q0 -23 -14 -40.5t-40 -17.5q-22 0 -35 14t-13 34q0 22 15.5 39t39.5 17q21 0 34 -13t13 -33zM276 844q0 -23 -14 -40.5t-40 -17.5q-22 0 -35 14t-13 34q0 22 16 39t40 17q21 0 33.5 -13 t12.5 -33zM89 531q0 44 -2.5 81t-7.5 76l83 8l5 -5v-464q0 -85 46 -129.5t115 -44.5t115 44t46 130v314q0 43 -2.5 77.5t-7.5 69.5l85 8v-471q0 -78 -32.5 -130.5t-87.5 -78.5t-122 -26q-65 0 -118 26.5t-84 78.5t-31 130v306z" />
<glyph unicode="&#x1dc;" horiz-adv-x="560" d="M347 801q-49 33 -89 71t-71 85l4 13l70 14q19 -43 49 -86.5t62 -84.5zM229 669q0 -24 -14 -43t-39 -19q-22 0 -34.5 15.5t-12.5 36.5q0 25 15.5 43.5t38.5 18.5q21 0 33.5 -14.5t12.5 -37.5zM430 669q0 -24 -14 -43t-39 -19q-22 0 -34.5 15.5t-12.5 36.5q0 25 15.5 43.5 t38.5 18.5q21 0 33.5 -14.5t12.5 -37.5zM96 339q0 44 -1.5 80.5t-5.5 74.5l74 12l8 -8v-351q0 -47 21.5 -72t64.5 -25q61 0 127 59v387l75 10v-365q0 -42 4.5 -74.5t14.5 -64.5l-64 -12q-8 16 -14 36.5t-10 38.5h-2q-75 -75 -160 -75q-63 0 -97.5 35.5t-34.5 99.5v214z" />
<glyph unicode="&#x1e6;" horiz-adv-x="648" d="M476 916l21 -19q-33 -30 -61 -59t-54 -60l-62 -6q-55 64 -124 125l22 19q36 -20 69 -42t64 -45q28 23 59 45t66 42zM563 299l8 -8l-2 -253q-41 -23 -99 -35.5t-109 -12.5q-90 0 -156 40.5t-101.5 116.5t-35.5 183q0 113 39 195t110 126.5t167 44.5q46 0 90 -10t77 -28 l-14 -70q-27 19 -65.5 31.5t-83.5 12.5q-107 0 -173 -75.5t-66 -217.5q0 -83 24.5 -147.5t74 -101t124.5 -36.5q27 0 59.5 5t63.5 14v50q0 53 -2 89t-7 77z" />
<glyph unicode="&#x1e7;" horiz-adv-x="490" d="M351 759l24 -19q-28 -38 -54 -76.5t-49 -79.5l-62 -6q-25 41 -53 81.5t-60 80.5l24 19q32 -27 62 -57.5t58 -60.5q25 30 53 60t57 58zM115 76q1 24 12 44.5t29 36.5q-46 18 -74 59.5t-28 101.5q0 51 21 93.5t61.5 68.5t98.5 26q33 0 59.5 -9t43.5 -22q19 20 50 31t61 11 l11 -4l-2 -62h-96q18 -18 33 -48.5t15 -75.5q0 -50 -21 -92t-60.5 -67t-96.5 -25q-19 0 -38 3q-16 -21 -16 -47q0 -23 13 -34.5t45 -14.5l85 -6q38 -3 71 -16t53.5 -39t20.5 -68q0 -46 -27.5 -86.5t-80.5 -65.5t-129 -25q-96 0 -151 38t-55 94q0 37 20.5 61.5t40.5 33.5 l32 -15q-9 -10 -17 -25.5t-8 -34.5q0 -41 37.5 -73.5t108.5 -32.5q70 0 111.5 32.5t41.5 80.5q0 38 -26.5 59t-69.5 24l-76 6q-53 4 -77.5 26t-25.5 58zM336 323q0 62 -26 99t-77 37q-53 0 -79 -35.5t-26 -98.5t26.5 -99t79.5 -36q51 0 76.5 35t25.5 98z" />
<glyph unicode="&#x1ea;" horiz-adv-x="699" d="M632 345q0 -117 -40 -196t-105 -119q-57 -45 -84 -79.5t-27 -71.5q0 -54 54 -54q11 0 24 3t31 10l13 -32q-39 -31 -94 -31q-43 0 -69 23t-26 66q0 34 21.5 67t62.5 63q-24 -4 -49 -4q-79 0 -141.5 40t-98.5 116.5t-36 186.5q0 112 38 193.5t104 125.5t147 44 q80 0 142 -42t97.5 -121t35.5 -188zM149 341q0 -86 24 -151t68.5 -101.5t107.5 -36.5q92 0 147 76t55 214q0 86 -22.5 152t-66 103t-106.5 37q-61 0 -107.5 -35t-73 -100.5t-26.5 -157.5z" />
<glyph unicode="&#x1eb;" horiz-adv-x="559" d="M494 252q0 -82 -27.5 -138t-71.5 -87q-54 -42 -76 -79t-22 -67q0 -54 53 -54q10 0 24 2.5t31 9.5l13 -31q-38 -32 -93 -32q-43 0 -69 22t-26 62q0 33 19 66.5t58 65.5q-16 -2 -33 -2q-61 0 -108 30t-74 86.5t-27 136.5q0 86 30 144.5t80.5 88.5t109.5 30q62 0 109 -30.5 t73.5 -87.5t26.5 -136zM144 250q0 -92 33.5 -150t100.5 -58q61 0 99.5 52.5t38.5 151.5q0 93 -34 150.5t-100 57.5q-61 0 -99.5 -51t-38.5 -153z" />
<glyph unicode="&#x1f4;" horiz-adv-x="648" d="M474 865l-3 -14q-56 -31 -116 -48.5t-126 -25.5l-9 23q56 23 109 50.5t96 60.5zM563 299l8 -8l-2 -253q-41 -23 -99 -35.5t-109 -12.5q-90 0 -156 40.5t-101.5 116.5t-35.5 183q0 113 39 195t110 126.5t167 44.5q46 0 90 -10t77 -28l-14 -70q-27 19 -65.5 31.5 t-83.5 12.5q-107 0 -173 -75.5t-66 -217.5q0 -83 24.5 -147.5t74 -101t124.5 -36.5q27 0 59.5 5t63.5 14v50q0 53 -2 89t-7 77z" />
<glyph unicode="&#x1f5;" horiz-adv-x="490" d="M323 744l5 -14q-32 -47 -71.5 -85t-89.5 -71l-25 13q33 40 62.5 83.5t49.5 87.5zM115 76q1 24 12 44.5t29 36.5q-46 18 -74 59.5t-28 101.5q0 51 21 93.5t61.5 68.5t98.5 26q33 0 59.5 -9t43.5 -22q19 20 50 31t61 11l11 -4l-2 -62h-96q18 -18 33 -48.5t15 -75.5 q0 -50 -21 -92t-60.5 -67t-96.5 -25q-19 0 -38 3q-16 -21 -16 -47q0 -23 13 -34.5t45 -14.5l85 -6q38 -3 71 -16t53.5 -39t20.5 -68q0 -46 -27.5 -86.5t-80.5 -65.5t-129 -25q-96 0 -151 38t-55 94q0 37 20.5 61.5t40.5 33.5l32 -15q-9 -10 -17 -25.5t-8 -34.5 q0 -41 37.5 -73.5t108.5 -32.5q70 0 111.5 32.5t41.5 80.5q0 38 -26.5 59t-69.5 24l-76 6q-53 4 -77.5 26t-25.5 58zM336 323q0 62 -26 99t-77 37q-53 0 -79 -35.5t-26 -98.5t26.5 -99t79.5 -36q51 0 76.5 35t25.5 98z" />
<glyph unicode="&#x1fa;" horiz-adv-x="612" d="M433 1100l-3 -14q-55 -31 -115.5 -48.5t-126.5 -25.5l-8 23q55 23 108 50.5t96 60.5zM397 847q0 -37 -28 -63t-67 -26q-35 0 -60.5 22t-25.5 55q0 37 28.5 63t68.5 26q36 0 60 -22t24 -55zM259 839q0 -21 13 -34t33 -13q21 0 34.5 15t13.5 36q0 20 -11.5 33.5t-32.5 13.5 t-35.5 -15t-14.5 -36zM98 0h-74l205 589q9 28 18 55t15 48l76 4l11 -10l239 -686h-79l-70 199h-271zM240 404l-51 -145h229l-50 145q-20 58 -36.5 111t-26.5 98h-2q-11 -45 -28 -99.5t-35 -109.5z" />
<glyph unicode="&#x1fb;" horiz-adv-x="504" d="M331 985l5 -13q-32 -47 -71.5 -85t-89.5 -71l-25 12q33 41 62.5 84.5t49.5 86.5zM333 661q0 -36 -27.5 -62.5t-67.5 -26.5q-34 0 -59.5 22t-25.5 55q0 37 28.5 63t68.5 26q36 0 59.5 -22t23.5 -55zM196 653q0 -20 12.5 -33t33.5 -13t34.5 14.5t13.5 35.5q0 20 -11.5 33.5 t-32.5 13.5q-22 0 -36 -15t-14 -36zM405 144q0 -36 5 -70.5t19 -73.5l-67 -10q-16 31 -24 70h-1q-20 -26 -61 -48t-92 -22q-61 0 -95 33t-34 85q0 57 38.5 93.5t101.5 55.5t136 23v66q0 48 -25 74.5t-78 26.5q-39 0 -78.5 -13t-73.5 -34l-4 64q32 16 78 29t94 13 q81 0 122 -39t41 -106q0 -34 -0.5 -76t-1 -80t-0.5 -61zM131 119q0 -30 19.5 -53.5t59.5 -23.5q32 0 66 16.5t55 39.5v144q-54 -4 -99.5 -18.5t-73 -40.5t-27.5 -64z" />
<glyph unicode="&#x1fc;" horiz-adv-x="852" d="M587 862l-3 -13q-56 -32 -116 -49.5t-126 -24.5l-9 23q56 23 109 50.5t96 59.5zM98 0h-74l279 589q14 28 25.5 52.5t21.5 44.5h355l9 -8l-1 -56l-266 5l37 -258l224 2l-1 -61l-215 3l36 -254l284 5v-64h-354l-28 199h-238zM288 404l-68 -145h202l-20 145 q-7 56 -12.5 108.5t-7.5 100.5h-2q-15 -39 -40 -94t-52 -115z" />
<glyph unicode="&#x1fd;" horiz-adv-x="777" d="M479 744l5 -14q-32 -47 -71.5 -85t-89.5 -71l-25 13q33 40 62.5 83.5t49.5 87.5zM718 257l-15 -15h-293q3 -98 47 -146t113 -48q37 0 70.5 12.5t60.5 30.5l6 -55q-21 -15 -61 -30.5t-93 -15.5q-63 0 -111 26.5t-77 76.5q-17 -26 -45 -49.5t-64 -38.5t-75 -15 q-58 0 -92 33t-34 86q0 56 38.5 92.5t101.5 55.5t136 23v66q0 43 -22.5 72t-81.5 29q-39 0 -78.5 -13t-72.5 -34l-4 64q32 16 77.5 29t95.5 13q56 0 92.5 -19t53.5 -54q30 36 70.5 54.5t85.5 18.5q79 0 125.5 -52t46.5 -138v-29.5t-1 -29.5zM543 454q-51 0 -89.5 -44 t-43.5 -131l233 7q0 8 0.5 17t0.5 18q0 60 -26.5 96.5t-74.5 36.5zM131 119q0 -30 19.5 -53.5t59.5 -23.5q42 0 81 24t60 58q-20 51 -20 118q-54 -4 -99.5 -19t-73 -40.5t-27.5 -63.5z" />
<glyph unicode="&#x1fe;" horiz-adv-x="699" d="M482 862l-3 -13q-55 -32 -115 -49.5t-127 -24.5l-8 23q55 23 108 50.5t96 59.5zM632 345q0 -116 -39.5 -195t-105 -119.5t-143.5 -40.5q-121 0 -197 89l-71 -83l-35 31l78 91q-24 41 -37.5 95t-13.5 120q0 112 38 193.5t104 125.5t147 44q116 0 191 -85l70 80l36 -30 l-78 -89q27 -44 41.5 -101t14.5 -126zM149 341q0 -91 27 -159l323 372q-25 38 -61 59t-82 21q-61 0 -107.5 -35t-73 -100.5t-26.5 -157.5zM551 342q0 98 -29 168l-324 -373q26 -40 64 -62.5t87 -22.5q92 0 147 76t55 214z" />
<glyph unicode="&#x1ff;" horiz-adv-x="559" d="M368 744l4 -14q-31 -47 -71 -85t-89 -71l-25 13q32 40 61.5 83.5t49.5 87.5zM494 252q0 -87 -30.5 -145.5t-80.5 -87.5t-109 -29q-90 0 -147 63l-55 -59l-32 31l61 65q-17 30 -26.5 68.5t-9.5 84.5q0 86 30 144.5t80.5 88.5t109.5 30q89 0 146 -62l55 59l33 -30l-62 -66 q18 -31 27.5 -70t9.5 -85zM144 250q-1 -57 12 -100l228 243q-17 29 -42.5 45t-59.5 16q-61 0 -99.5 -51t-38.5 -153zM416 246q0 58 -13 102l-228 -243q16 -30 42 -46.5t61 -16.5q61 0 99.5 52.5t38.5 151.5z" />
<glyph unicode="&#x218;" horiz-adv-x="513" d="M455 171q0 -85 -62 -133t-161 -48q-39 0 -86.5 8.5t-86.5 27.5l8 70q41 -24 88.5 -33t79.5 -9q67 0 103.5 30.5t36.5 80.5q0 42 -22 70t-57 48.5t-73 40.5q-39 21 -75.5 44.5t-60 58.5t-23.5 87q0 57 28.5 97.5t79 62.5t116.5 22q41 0 83.5 -8.5t70.5 -22.5l-11 -71 q-36 22 -75 30.5t-70 8.5q-68 0 -105 -30t-37 -80q0 -41 23.5 -68.5t59 -47.5t73.5 -40q36 -19 72 -44t59.5 -61.5t23.5 -90.5zM216 -311q13 23 24 46.5t17 47.5q-19 1 -32 16t-13 36t14 39.5t40 18.5q22 0 36 -16t14 -45q0 -42 -23.5 -86t-49.5 -76z" />
<glyph unicode="&#x219;" horiz-adv-x="439" d="M370 476l-9 -64q-29 18 -60 28.5t-63 10.5q-48 0 -75 -21.5t-27 -54.5q0 -29 17.5 -48t46 -33.5t60.5 -28.5t60 -32t46 -43t18 -63q0 -61 -49 -99t-131 -38q-36 0 -76 8t-73 26l9 63q34 -21 73.5 -31t70.5 -10q50 0 76 21.5t26 52.5q0 27 -18 45.5t-46.5 33t-60.5 28 t-60 31.5t-46 44t-18 64q0 62 49 101t130 39q37 0 69 -8.5t61 -21.5zM176 -311q13 23 24 46.5t17 47.5q-19 1 -31.5 16t-12.5 36t14 39.5t39 18.5q22 0 36.5 -16t14.5 -45q0 -42 -24 -86t-49 -76z" />
<glyph unicode="&#x21a;" horiz-adv-x="537" d="M308 0h-78v626q-52 0 -104 -2t-105 -4l5 66h485l5 -66q-52 2 -104.5 4t-103.5 2v-626zM218 -311q13 23 24 46.5t17 47.5q-19 1 -31.5 16t-12.5 36t14 39.5t39 18.5q22 0 36.5 -16t14.5 -45q0 -42 -24 -86t-49 -76z" />
<glyph unicode="&#x21b;" horiz-adv-x="361" d="M314 449l-139 1v-289q0 -62 19.5 -87.5t56.5 -25.5q22 0 42 7t38 18l10 -52q-21 -13 -49 -22t-62 -9q-63 0 -96.5 39.5t-33.5 123.5v298l-73 1v34l74 10l18 117l50 5l9 -9l-3 -113h136l6 -8zM160 -311q13 23 24 46.5t17 47.5q-19 1 -31.5 16t-12.5 36t13.5 39.5 t39.5 18.5q22 0 36 -16t14 -45q0 -42 -23.5 -86t-48.5 -76z" />
<glyph unicode="&#x232;" horiz-adv-x="560" d="M153 813v53h265v-53h-265zM241 246l-218 443l83 7l117 -243q15 -32 33 -71t29 -70h2q14 33 32 72t33 70l115 242l64 -6l6 -8l-218 -439v-243h-78v246z" />
<glyph unicode="&#x233;" horiz-adv-x="462" d="M102 639v50h272v-50h-272zM446 491l-172 -481q-24 -68 -57.5 -126t-79.5 -95.5t-108 -44.5l-12 73q64 7 113.5 54t85.5 143h-21l-171 486l77 6l79 -240q19 -52 30.5 -86t18 -60t11.5 -54h1q6 28 13 53.5t18.5 59.5t30.5 87l79 240l58 -6z" />
<glyph unicode="&#x237;" horiz-adv-x="270" d="M42 -256l-26 34q34 28 57.5 73t23.5 115v373q0 44 -2.5 80t-6.5 75l75 12l9 -8v-524q0 -90 -33 -143.5t-97 -86.5z" />
<glyph unicode="&#x259;" horiz-adv-x="511" d="M59 239l15 15h293v1q0 92 -31.5 142t-106.5 50q-41 0 -81 -13t-72 -32l-6 58q14 10 41 20.5t61.5 18t71.5 7.5q105 0 153.5 -64.5t48.5 -174.5q0 -95 -30.5 -156.5t-79.5 -91t-106 -29.5q-79 0 -125.5 52.5t-46.5 138.5v28.5t1 29.5zM133 176q0 -61 26.5 -97.5 t75.5 -36.5q48 0 86 41t45 135l-232 -7q-1 -17 -1 -35z" />
<glyph unicode="&#x272;" horiz-adv-x="567" d="M42 -256l-26 34q34 28 57.5 73t23.5 115v375q0 46 -5 79t-15 69l69 17q15 -35 23 -74q37 36 79.5 55t87.5 19q63 0 98.5 -37t35.5 -109v-360h-75v344q0 105 -90 105q-64 0 -133 -59v-416q0 -90 -33 -143.5t-97 -86.5z" />
<glyph unicode="&#x2c6;" horiz-adv-x="376" d="M73 573l-24 18q28 38 54 76.5t50 79.5l61 7q25 -42 53 -82.5t60 -80.5l-24 -18q-32 26 -62 56.5t-58 60.5q-25 -30 -53 -60t-57 -57z" />
<glyph unicode="&#x2c7;" horiz-adv-x="376" d="M303 766l24 -18q-29 -38 -55 -77t-49 -79l-61 -7q-25 42 -53.5 82.5t-59.5 80.5l24 18q31 -27 61 -57t58 -60q26 30 53.5 60t57.5 57z" />
<glyph unicode="&#x2d8;" horiz-adv-x="355" d="M272 739h34q-9 -65 -44.5 -103t-87.5 -38q-50 0 -84 36.5t-41 99.5l34 5q10 -38 35 -59.5t61 -21.5q33 0 57.5 22t35.5 59z" />
<glyph unicode="&#x2d9;" horiz-adv-x="204" d="M155 668q0 -24 -15 -43.5t-41 -19.5q-23 0 -36.5 16t-13.5 39q0 25 16.5 44t41.5 19q22 0 35 -15.5t13 -39.5z" />
<glyph unicode="&#x2da;" horiz-adv-x="278" d="M229 670q0 -37 -27.5 -63t-67.5 -26q-34 0 -59.5 22t-25.5 55q0 37 28.5 63t68.5 26q36 0 59.5 -22t23.5 -55zM92 662q0 -21 12.5 -34t33.5 -13t34.5 15t13.5 36q0 20 -11.5 33.5t-32.5 13.5q-22 0 -36 -15t-14 -36z" />
<glyph unicode="&#x2db;" horiz-adv-x="365" d="M278 0q-112 -61 -112 -125q0 -50 53 -50q11 0 24.5 3t30.5 10l13 -32q-38 -31 -91 -31q-45 0 -71 21.5t-26 60.5q0 43 36.5 83t107.5 72z" />
<glyph unicode="&#x2dc;" horiz-adv-x="408" d="M139 723q27 0 49.5 -14t44 -28t42.5 -14t35 15.5t26 37.5l24 -4q-3 -26 -14 -51.5t-30 -42.5t-46 -17q-26 0 -50 14t-45.5 28t-42.5 14q-19 0 -33.5 -15.5t-26.5 -38.5l-24 4q4 25 14.5 51t29 43.5t47.5 17.5z" />
<glyph unicode="&#x2dd;" horiz-adv-x="384" d="M217 748l5 -13q-30 -48 -66.5 -86.5t-81.5 -71.5l-25 12q33 39 62 83t49 88zM351 748l4 -13q-30 -48 -66.5 -86.5t-81.5 -71.5l-25 12q33 39 62.5 83t49.5 88z" />
<glyph unicode="&#x394;" horiz-adv-x="598" d="M260 690h78l236 -670l-2 -20h-546l-2 20zM107 58h371l-185 530z" />
<glyph unicode="&#x3a9;" horiz-adv-x="740" d="M305 0h-255l-10 58l9 9l208 -27q-47 32 -85 84.5t-60 117.5t-22 135q0 90 36.5 162.5t100.5 114.5t145 42t144 -42t98.5 -114.5t35.5 -161.5q0 -71 -22 -136.5t-60 -118t-86 -83.5l209 27l9 -9l-10 -58h-255l-7 37q41 36 73 88t50 113.5t18 127.5q0 74 -25 135t-70 97 t-103 36q-59 0 -104 -35.5t-70.5 -96t-25.5 -137.5q0 -66 18 -127t50 -112.5t73 -88.5z" />
<glyph unicode="&#x3bc;" horiz-adv-x="560" d="M96 341q0 43 -1.5 79t-5.5 74l74 12l8 -8v-351q0 -97 83 -97q64 0 130 59v387l75 10v-365q0 -42 4.5 -74.5t14.5 -64.5l-64 -12q-8 16 -14 36.5t-10 38.5h-2q-73 -74 -157 -75q-46 -1 -77 25q8 -40 12 -88.5t7 -93.5t7 -74l-75 -13l-9 9v586z" />
<glyph unicode="&#x3c0;" horiz-adv-x="616" d="M122 0v447l-111 -1l13 55l566 5l6 -8l-13 -47l-91 -1v-347q0 -24 7.5 -36t26.5 -12q17 0 41 7l-3 -62q-15 -4 -31 -7t-31 -3q-37 0 -61 22t-24 72v366l-220 -2v-448h-75z" />
<glyph unicode="&#x1e0c;" horiz-adv-x="681" d="M613 346q0 -110 -43.5 -187t-121 -118t-178.5 -41h-167v531q0 44 -2 80.5t-6 74.5h188q93 0 168 -40.5t118.5 -116.5t43.5 -183zM276 627h-96v-567h93q128 0 193.5 75t65.5 207q0 87 -31 151t-88.5 99t-136.5 35zM396 -158q0 -24 -15 -43.5t-42 -19.5q-23 0 -36.5 16 t-13.5 39q0 25 16.5 44t41.5 19q22 0 35.5 -15.5t13.5 -39.5z" />
<glyph unicode="&#x1e0d;" horiz-adv-x="565" d="M384 744l75 12l9 -8v-609q0 -36 5.5 -70t18.5 -69l-68 -10q-7 14 -13 32t-11 37h-1q-20 -28 -54 -48.5t-84 -20.5q-57 0 -101.5 30t-69.5 85.5t-25 132.5q0 88 32 147.5t86 90t120 30.5q26 0 49 -4.5t41 -11.5v99q0 45 -2 80.5t-7 74.5zM144 246q0 -95 38.5 -149.5 t102.5 -54.5q38 0 64.5 16.5t43.5 37.5v345q-44 16 -87 16q-68 0 -115 -51.5t-47 -159.5zM335 -158q0 -24 -15 -43.5t-42 -19.5q-23 0 -36.5 16t-13.5 39q0 25 16.5 44t41.5 19q22 0 35.5 -15.5t13.5 -39.5z" />
<glyph unicode="&#x1e24;" horiz-adv-x="705" d="M180 0h-77v529q0 89 -8 157l77 10l8 -8v-317h344v158q0 89 -7 157l76 10l9 -8v-688h-78v312h-344v-312zM406 -158q0 -24 -15 -43.5t-41 -19.5q-23 0 -36.5 16t-13.5 39q0 25 16.5 44t41.5 19q22 0 35 -15.5t13 -39.5z" />
<glyph unicode="&#x1e25;" horiz-adv-x="565" d="M170 0h-75v589q0 44 -2 80t-7 75l75 12l9 -8v-313q37 34 78.5 52.5t85.5 18.5q63 0 98.5 -37t35.5 -109v-360h-75v344q0 105 -90 105q-65 0 -133 -58v-391zM341 -158q0 -24 -15 -43.5t-41 -19.5q-23 0 -36.5 16t-13.5 39q0 25 16.5 44t41.5 19q22 0 35 -15.5t13 -39.5z " />
<glyph unicode="&#x1e44;" horiz-adv-x="703" d="M401 852q0 -23 -15.5 -40.5t-43.5 -17.5q-24 0 -38 14.5t-14 35.5q0 22 17 39.5t43 17.5q24 0 37.5 -13.5t13.5 -35.5zM358 398q36 -59 66.5 -107.5t56.5 -94.5t49 -96h2q-2 24 -3 45.5t-1.5 49t-1 68t-0.5 101.5v151q0 49 -2 90t-6 81l74 10l9 -9v-687h-78 q-48 77 -93 151t-89 146q-37 58 -66 105t-53.5 90.5t-48.5 91.5h-1q4 -64 5 -122t1 -115v-347h-75v531q0 44 -2 81.5t-6 73.5l81 10q48 -79 93 -153t89 -145z" />
<glyph unicode="&#x1e45;" horiz-adv-x="570" d="M331 670q0 -25 -15 -44t-41 -19q-23 0 -36.5 16t-13.5 39q0 24 16.5 43t41.5 19q22 0 35 -15t13 -39zM175 0h-75v341q0 46 -5 79t-15 69l69 17q15 -35 23 -74q37 36 79.5 55t87.5 19q63 0 98.5 -37t35.5 -109v-360h-75v344q0 105 -90 105q-64 0 -133 -59v-390z" />
<glyph unicode="&#x1e5a;" horiz-adv-x="587" d="M180 0h-77v531q0 44 -2 80.5t-6 74.5h178q114 0 180 -57t66 -151q0 -72 -37.5 -118t-98.5 -67l167 -293l-83 -9q-38 69 -76 140t-75 141h-136v-272zM268 628h-88v-298h85q84 0 128.5 37.5t44.5 108.5q0 64 -40 108t-130 44zM358 -158q0 -24 -15 -43.5t-42 -19.5 q-23 0 -36.5 16t-13.5 39q0 25 16.5 44t41.5 19q22 0 35.5 -15.5t13.5 -39.5z" />
<glyph unicode="&#x1e5b;" horiz-adv-x="384" d="M175 0h-75v341q0 46 -5 79t-15 69l70 17q18 -44 24 -88q34 41 71.5 64.5t73.5 23.5q15 0 27.5 -4t19.5 -9l-14 -69q-9 3 -20 5.5t-25 2.5q-25 0 -61 -14.5t-71 -45.5v-372zM192 -158q0 -24 -15 -43.5t-41 -19.5q-23 0 -36.5 16t-13.5 39q0 25 16.5 44t41.5 19 q22 0 35 -15.5t13 -39.5z" />
<glyph unicode="&#x1e62;" horiz-adv-x="513" d="M455 171q0 -85 -62 -133t-161 -48q-39 0 -86.5 8.5t-86.5 27.5l8 70q41 -24 88.5 -33t79.5 -9q67 0 103.5 30.5t36.5 80.5q0 42 -22 70t-57 48.5t-73 40.5q-39 21 -75.5 44.5t-60 58.5t-23.5 87q0 57 28.5 97.5t79 62.5t116.5 22q41 0 83.5 -8.5t70.5 -22.5l-11 -71 q-36 22 -75 30.5t-70 8.5q-68 0 -105 -30t-37 -80q0 -41 23.5 -68.5t59 -47.5t73.5 -40q36 -19 72 -44t59.5 -61.5t23.5 -90.5zM321 -158q0 -24 -15 -43.5t-41 -19.5q-23 0 -36.5 16t-13.5 39q0 25 16.5 44t41.5 19q22 0 35 -15.5t13 -39.5z" />
<glyph unicode="&#x1e63;" horiz-adv-x="439" d="M370 476l-9 -64q-29 18 -60 28.5t-63 10.5q-48 0 -75 -21.5t-27 -54.5q0 -29 17.5 -48t46 -33.5t60.5 -28.5t60 -32t46 -43t18 -63q0 -61 -49 -99t-131 -38q-36 0 -76 8t-73 26l9 63q34 -21 73.5 -31t70.5 -10q50 0 76 21.5t26 52.5q0 27 -18 45.5t-46.5 33t-60.5 28 t-60 31.5t-46 44t-18 64q0 62 49 101t130 39q37 0 69 -8.5t61 -21.5zM282 -158q0 -24 -15 -43.5t-41 -19.5q-24 0 -37.5 16t-13.5 39q0 25 17 44t41 19q23 0 36 -15.5t13 -39.5z" />
<glyph unicode="&#x1e6c;" horiz-adv-x="537" d="M308 0h-78v626q-52 0 -104 -2t-105 -4l5 66h485l5 -66q-52 2 -104.5 4t-103.5 2v-626zM324 -158q0 -24 -15 -43.5t-41 -19.5q-24 0 -37.5 16t-13.5 39q0 25 17 44t41 19q23 0 36 -15.5t13 -39.5z" />
<glyph unicode="&#x1e6d;" horiz-adv-x="361" d="M314 449l-139 1v-289q0 -62 19.5 -87.5t56.5 -25.5q22 0 42 7t38 18l10 -52q-21 -13 -49 -22t-62 -9q-63 0 -96.5 39.5t-33.5 123.5v298l-73 1v34l74 10l18 117l50 5l9 -9l-3 -113h136l6 -8zM266 -158q0 -24 -15 -43.5t-42 -19.5q-23 0 -36.5 16t-13.5 39q0 25 16.5 44 t41.5 19q22 0 35.5 -15.5t13.5 -39.5z" />
<glyph unicode="&#x1e80;" horiz-adv-x="980" d="M608 775q-66 7 -126.5 24.5t-115.5 49.5l-3 13l49 46q43 -32 96 -59.5t109 -50.5zM242 -4l-211 692l79 8l122 -408q17 -57 30.5 -107t21.5 -96q8 46 25 106t34 114l115 386l74 5l122 -408q18 -57 32 -107t21 -96q8 46 24.5 105t33.5 114l117 392l61 -6l6 -8l-210 -686 h-70l-133 425q-11 39 -22.5 80.5t-22.5 87.5h-1q-11 -46 -22.5 -87.5t-23.5 -81.5l-132 -424h-70z" />
<glyph unicode="&#x1e81;" horiz-adv-x="759" d="M449 577q-49 32 -89 70t-71 85l5 14l69 14q20 -44 49.5 -87t61.5 -84zM183 -4l-159 504l76 6l70 -235q23 -72 34.5 -116t19.5 -81h1q7 31 13.5 58t16 58t23.5 75l70 239h75l68 -230q14 -47 31 -101t24 -98h1q9 46 24 97t30 98l70 236l58 -6l6 -9l-157 -495h-73l-76 245 q-18 58 -30 99.5t-19 84.5h-1q-7 -43 -19.5 -87.5t-28.5 -95.5l-76 -246h-72z" />
<glyph unicode="&#x1e82;" horiz-adv-x="980" d="M617 862l-4 -13q-55 -32 -115 -49.5t-127 -24.5l-8 23q55 23 108 50.5t96 59.5zM242 -4l-211 692l79 8l122 -408q17 -57 30.5 -107t21.5 -96q8 46 25 106t34 114l115 386l74 5l122 -408q18 -57 32 -107t21 -96q8 46 24.5 105t33.5 114l117 392l61 -6l6 -8l-210 -686h-70 l-133 425q-11 39 -22.5 80.5t-22.5 87.5h-1q-11 -46 -22.5 -87.5t-23.5 -81.5l-132 -424h-70z" />
<glyph unicode="&#x1e83;" horiz-adv-x="759" d="M470 744l4 -14q-31 -47 -71 -85t-89 -71l-25 13q32 40 61.5 83.5t49.5 87.5zM183 -4l-159 504l76 6l70 -235q23 -72 34.5 -116t19.5 -81h1q7 31 13.5 58t16 58t23.5 75l70 239h75l68 -230q14 -47 31 -101t24 -98h1q9 46 24 97t30 98l70 236l58 -6l6 -9l-157 -495h-73 l-76 245q-18 58 -30 99.5t-19 84.5h-1q-7 -43 -19.5 -87.5t-28.5 -95.5l-76 -246h-72z" />
<glyph unicode="&#x1e84;" horiz-adv-x="980" d="M642 844q0 -23 -14 -40.5t-40 -17.5q-22 0 -35 14t-13 34q0 22 16 39t40 17q21 0 33.5 -13t12.5 -33zM440 844q0 -23 -14.5 -40.5t-40.5 -17.5q-22 0 -35 14t-13 34q0 22 16 39t40 17q21 0 34 -13t13 -33zM242 -4l-211 692l79 8l122 -408q17 -57 30.5 -107t21.5 -96 q8 46 25 106t34 114l115 386l74 5l122 -408q18 -57 32 -107t21 -96q8 46 24.5 105t33.5 114l117 392l61 -6l6 -8l-210 -686h-70l-133 425q-11 39 -22.5 80.5t-22.5 87.5h-1q-11 -46 -22.5 -87.5t-23.5 -81.5l-132 -424h-70z" />
<glyph unicode="&#x1e85;" horiz-adv-x="759" d="M331 669q0 -24 -14 -43t-39 -19q-21 0 -34 15.5t-13 36.5q0 25 15.5 43.5t39.5 18.5q20 0 32.5 -14.5t12.5 -37.5zM532 669q0 -24 -14 -43t-39 -19q-22 0 -34.5 15.5t-12.5 36.5q0 25 15.5 43.5t38.5 18.5q21 0 33.5 -14.5t12.5 -37.5zM183 -4l-159 504l76 6l70 -235 q23 -72 34.5 -116t19.5 -81h1q7 31 13.5 58t16 58t23.5 75l70 239h75l68 -230q14 -47 31 -101t24 -98h1q9 46 24 97t30 98l70 236l58 -6l6 -9l-157 -495h-73l-76 245q-18 58 -30 99.5t-19 84.5h-1q-7 -43 -19.5 -87.5t-28.5 -95.5l-76 -246h-72z" />
<glyph unicode="&#x1e92;" horiz-adv-x="520" d="M43 0l-13 49l364 573l-352 -4l5 68h417l19 -48l-362 -574l366 5l-5 -69h-439zM322 -158q0 -24 -15 -43.5t-41 -19.5q-23 0 -36.5 16t-13.5 39q0 25 16.5 44t41.5 19q22 0 35 -15.5t13 -39.5z" />
<glyph unicode="&#x1e93;" horiz-adv-x="434" d="M34 432l5 64h349l8 -47l-282 -390l138 2q37 1 75 2t76 4l-5 -67h-359l-8 48l285 389zM271 -158q0 -24 -15 -43.5t-42 -19.5q-23 0 -36.5 16t-13.5 39q0 25 16.5 44t41.5 19q22 0 35.5 -15.5t13.5 -39.5z" />
<glyph unicode="&#x1e9e;" horiz-adv-x="630" d="M93 105v356q0 77 31 129.5t84.5 79t120.5 26.5q69 0 123.5 -29t79.5 -84l-167 -196q55 -22 102 -50.5t75.5 -69t28.5 -99.5q0 -55 -25 -94.5t-68.5 -61.5t-100.5 -22q-30 0 -63 6.5t-61 19.5v70q28 -17 60 -24.5t57 -7.5q57 0 89 31t32 82q0 67 -54 107.5t-152 76.5v27 l159 197q-21 33 -50.5 45.5t-61.5 12.5q-74 0 -117.5 -47t-43.5 -126v-372q0 -25 -5 -53.5t-15 -44.5l-72 10q7 21 10.5 49.5t3.5 55.5z" />
<glyph unicode="&#x1ea0;" horiz-adv-x="612" d="M98 0h-74l205 589q9 28 18 55t15 48l76 4l11 -10l239 -686h-79l-70 199h-271zM240 404l-51 -145h229l-50 145q-20 58 -36.5 111t-26.5 98h-2q-11 -45 -28 -99.5t-35 -109.5zM360 -158q0 -24 -15 -43.5t-42 -19.5q-23 0 -36.5 16t-13.5 39q0 25 16.5 44t41.5 19 q22 0 35.5 -15.5t13.5 -39.5z" />
<glyph unicode="&#x1ea1;" horiz-adv-x="504" d="M405 144q0 -36 5 -70.5t19 -73.5l-67 -10q-16 31 -24 70h-1q-20 -26 -61 -48t-92 -22q-61 0 -95 33t-34 85q0 57 38.5 93.5t101.5 55.5t136 23v66q0 48 -25 74.5t-78 26.5q-39 0 -78.5 -13t-73.5 -34l-4 64q32 16 78 29t94 13q81 0 122 -39t41 -106q0 -34 -0.5 -76 t-1 -80t-0.5 -61zM131 119q0 -30 19.5 -53.5t59.5 -23.5q32 0 66 16.5t55 39.5v144q-54 -4 -99.5 -18.5t-73 -40.5t-27.5 -64zM303 -158q0 -24 -15 -43.5t-42 -19.5q-23 0 -36.5 16t-13.5 39q0 25 16.5 44t41.5 19q22 0 35.5 -15.5t13.5 -39.5z" />
<glyph unicode="&#x1eb8;" horiz-adv-x="521" d="M481 64v-64h-378v531q0 44 -2 80.5t-6 74.5h369l8 -8l-1 -56l-291 6v-260l247 3l-1 -61l-246 3v-254zM359 -158q0 -24 -15 -43.5t-41 -19.5q-23 0 -36.5 16t-13.5 39q0 25 16.5 44t41.5 19q22 0 35 -15.5t13 -39.5z" />
<glyph unicode="&#x1eb9;" horiz-adv-x="511" d="M452 257l-15 -15h-293q3 -98 47 -146t113 -48q37 0 70.5 12.5t60.5 30.5l6 -55q-21 -15 -61 -30.5t-93 -15.5q-100 0 -161 65.5t-61 186.5q0 86 30 144.5t79.5 89t106.5 30.5q79 0 125.5 -52t46.5 -138v-29.5t-1 -29.5zM277 454q-51 0 -89.5 -44t-43.5 -131l233 7 q0 8 0.5 17t0.5 19q0 59 -26.5 95.5t-74.5 36.5zM332 -158q0 -24 -15 -43.5t-41 -19.5q-23 0 -36.5 16t-13.5 39q0 25 16.5 44t41.5 19q22 0 35 -15.5t13 -39.5z" />
<glyph unicode="&#x1ebc;" horiz-adv-x="521" d="M217 903q29 0 52.5 -14t45.5 -28t47 -14q23 0 39 16t27 38l23 -4q-2 -27 -13.5 -51.5t-31.5 -40t-49 -15.5t-53.5 14t-47 28t-46.5 14q-22 0 -38 -15.5t-28 -37.5l-23 4q3 23 13.5 48t31 41.5t51.5 16.5zM481 64v-64h-378v531q0 44 -2 80.5t-6 74.5h369l8 -8l-1 -56 l-291 6v-260l247 3l-1 -61l-246 3v-254z" />
<glyph unicode="&#x1ebd;" horiz-adv-x="511" d="M200 723q27 0 50 -14t44 -28t43 -14q21 0 35 15.5t25 37.5l25 -4q-3 -26 -14 -51.5t-30 -42.5t-46 -17t-50.5 14t-45 28t-42.5 14q-20 0 -34.5 -15.5t-25.5 -38.5l-24 4q3 25 13.5 51t29.5 43.5t47 17.5zM452 257l-15 -15h-293q3 -98 47 -146t113 -48q37 0 70.5 12.5 t60.5 30.5l6 -55q-21 -15 -61 -30.5t-93 -15.5q-100 0 -161 65.5t-61 186.5q0 86 30 144.5t79.5 89t106.5 30.5q79 0 125.5 -52t46.5 -138v-29.5t-1 -29.5zM277 454q-51 0 -89.5 -44t-43.5 -131l233 7q0 8 0.5 17t0.5 19q0 59 -26.5 95.5t-74.5 36.5z" />
<glyph unicode="&#x1eca;" horiz-adv-x="283" d="M180 0h-77v529q0 89 -8 157l77 10l8 -8v-688zM195 -158q0 -24 -15 -43.5t-41 -19.5q-23 0 -36.5 16t-13.5 39q0 25 16.5 44t41.5 19q22 0 35 -15.5t13 -39.5z" />
<glyph unicode="&#x1ecb;" horiz-adv-x="269" d="M184 670q0 -25 -15 -44t-41 -19q-23 0 -36.5 16t-13.5 39q0 24 16.5 43t41.5 19q22 0 35 -15t13 -39zM96 0v339q0 44 -1.5 80t-7.5 75l76 12l8 -8v-498h-75zM190 -158q0 -24 -15 -43.5t-42 -19.5q-23 0 -36.5 16t-13.5 39q0 25 16.5 44t41.5 19q22 0 35.5 -15.5 t13.5 -39.5z" />
<glyph unicode="&#x1ecc;" horiz-adv-x="699" d="M632 345q0 -116 -39.5 -195t-105 -119.5t-143.5 -40.5q-79 0 -141.5 40t-98.5 116.5t-36 186.5q0 112 38 193.5t104 125.5t147 44q80 0 142 -42t97.5 -121t35.5 -188zM149 341q0 -86 24 -151t68.5 -101.5t107.5 -36.5q92 0 147 76t55 214q0 86 -22.5 152t-66 103 t-106.5 37q-61 0 -107.5 -35t-73 -100.5t-26.5 -157.5zM411 -158q0 -24 -15 -43.5t-41 -19.5q-24 0 -37.5 16t-13.5 39q0 25 17 44t41 19q23 0 36 -15.5t13 -39.5z" />
<glyph unicode="&#x1ecd;" horiz-adv-x="559" d="M494 252q0 -87 -30.5 -145.5t-80.5 -87.5t-109 -29q-61 0 -108 30t-74 86.5t-27 136.5q0 86 30 144.5t80.5 88.5t109.5 30q62 0 109 -30.5t73.5 -87.5t26.5 -136zM144 250q0 -92 33.5 -150t100.5 -58q61 0 99.5 52.5t38.5 151.5q0 93 -34 150.5t-100 57.5 q-61 0 -99.5 -51t-38.5 -153zM333 -158q0 -24 -15 -43.5t-41 -19.5q-24 0 -37.5 16t-13.5 39q0 25 17 44t41 19q23 0 36 -15.5t13 -39.5z" />
<glyph unicode="&#x1ee4;" horiz-adv-x="653" d="M89 531q0 44 -2.5 81t-7.5 76l83 8l5 -5v-464q0 -85 46 -129.5t115 -44.5t115 44t46 130v314q0 43 -2.5 77.5t-7.5 69.5l85 8v-471q0 -78 -32.5 -130.5t-87.5 -78.5t-122 -26q-65 0 -118 26.5t-84 78.5t-31 130v306zM380 -158q0 -24 -15 -43.5t-41 -19.5q-24 0 -37.5 16 t-13.5 39q0 25 17 44t41 19q23 0 36 -15.5t13 -39.5z" />
<glyph unicode="&#x1ee5;" horiz-adv-x="560" d="M96 339q0 44 -1.5 80.5t-5.5 74.5l74 12l8 -8v-351q0 -47 21.5 -72t64.5 -25q61 0 127 59v387l75 10v-365q0 -42 4.5 -74.5t14.5 -64.5l-64 -12q-8 16 -14 36.5t-10 38.5h-2q-75 -75 -160 -75q-63 0 -97.5 35.5t-34.5 99.5v214zM333 -158q0 -24 -15 -43.5t-42 -19.5 q-23 0 -36.5 16t-13.5 39q0 25 16.5 44t41.5 19q22 0 35.5 -15.5t13.5 -39.5z" />
<glyph unicode="&#x1ef2;" horiz-adv-x="560" d="M404 775q-66 7 -126.5 24.5t-115.5 49.5l-3 13l49 46q43 -32 96 -59.5t109 -50.5zM241 246l-218 443l83 7l117 -243q15 -32 33 -71t29 -70h2q14 33 32 72t33 70l115 242l64 -6l6 -8l-218 -439v-243h-78v246z" />
<glyph unicode="&#x1ef3;" horiz-adv-x="462" d="M306 577q-50 32 -89.5 70t-71.5 85l5 14l69 14q20 -44 49.5 -87t62.5 -84zM446 491l-172 -481q-24 -68 -57.5 -126t-79.5 -95.5t-108 -44.5l-12 73q64 7 113.5 54t85.5 143h-21l-171 486l77 6l79 -240q19 -52 30.5 -86t18 -60t11.5 -54h1q6 28 13 53.5t18.5 59.5t30.5 87 l79 240l58 -6z" />
<glyph unicode="&#x1ef8;" horiz-adv-x="560" d="M216 901q30 0 53.5 -14t45.5 -28t46 -14t39.5 15.5t27.5 37.5l23 -4q-3 -26 -14 -50.5t-31.5 -40.5t-49.5 -16t-53.5 14t-47 28.5t-45.5 14.5t-39 -15.5t-27 -38.5l-23 4q2 24 13 48.5t31 41.5t51 17zM241 246l-218 443l83 7l117 -243q15 -32 33 -71t29 -70h2 q14 33 32 72t33 70l115 242l64 -6l6 -8l-218 -439v-243h-78v246z" />
<glyph unicode="&#x1ef9;" horiz-adv-x="462" d="M169 723q27 0 50 -14t44 -28t43 -14q21 0 35 15.5t25 37.5l25 -4q-3 -26 -14 -51.5t-30 -42.5t-46 -17t-50.5 14t-45 28t-42.5 14q-20 0 -34.5 -15.5t-25.5 -38.5l-24 4q3 25 13.5 51t29.5 43.5t47 17.5zM446 491l-172 -481q-24 -68 -57.5 -126t-79.5 -95.5t-108 -44.5 l-12 73q64 7 113.5 54t85.5 143h-21l-171 486l77 6l79 -240q19 -52 30.5 -86t18 -60t11.5 -54h1q6 28 13 53.5t18.5 59.5t30.5 87l79 240l58 -6z" />
<glyph unicode="&#x2007;" />
<glyph unicode="&#x2013;" horiz-adv-x="516" d="M30 272v39h456v-39h-456z" />
<glyph unicode="&#x2014;" horiz-adv-x="797" d="M30 272v39h737v-39h-737z" />
<glyph unicode="&#x2018;" horiz-adv-x="231" d="M184 741q-18 -35 -34.5 -77.5t-23.5 -82.5q21 -2 34.5 -17.5t13.5 -37.5q0 -25 -17.5 -44t-42.5 -19q-24 0 -39.5 17t-15.5 49q0 35 16 78.5t39 84t44 68.5z" />
<glyph unicode="&#x2019;" horiz-adv-x="231" d="M46 480q18 34 35 76.5t23 83.5q-21 2 -34.5 17.5t-13.5 37.5q0 25 17.5 44t43.5 19q24 0 39 -17t15 -49q0 -36 -15.5 -79t-38.5 -84t-44 -68z" />
<glyph unicode="&#x201a;" horiz-adv-x="231" d="M46 -170q18 35 35 77.5t23 82.5q-21 2 -34.5 17.5t-13.5 37.5q0 26 17.5 44.5t43.5 18.5q24 0 39 -17t15 -49q0 -35 -15.5 -78.5t-38.5 -84t-44 -68.5z" />
<glyph unicode="&#x201c;" horiz-adv-x="416" d="M184 741q-18 -35 -34.5 -77.5t-23.5 -82.5q21 -2 34.5 -17.5t13.5 -37.5q0 -25 -17.5 -44t-42.5 -19q-24 0 -39.5 17t-15.5 49q0 35 16 78.5t39 84t44 68.5zM369 741q-18 -35 -34.5 -77.5t-23.5 -82.5q21 -2 35 -17.5t14 -37.5q0 -25 -17.5 -44t-43.5 -19q-24 0 -39 17 t-15 49q0 35 15.5 78.5t38.5 84t44 68.5z" />
<glyph unicode="&#x201d;" horiz-adv-x="416" d="M232 481q18 34 34.5 76.5t23.5 83.5q-21 1 -34.5 16.5t-13.5 37.5q0 26 17 45t43 19q24 0 39.5 -17t15.5 -50q0 -35 -16 -78t-39 -84t-44 -69zM46 481q18 34 35 76.5t23 83.5q-21 1 -34.5 16.5t-13.5 37.5q0 26 17.5 45t43.5 19q24 0 39 -17t15 -50q0 -35 -15.5 -78 t-38.5 -84t-44 -69z" />
<glyph unicode="&#x201e;" horiz-adv-x="414" d="M46 -170q18 35 35 77.5t23 82.5q-21 2 -34.5 17.5t-13.5 37.5q0 26 17.5 44.5t43.5 18.5q24 0 39 -17t15 -49q0 -35 -15.5 -78.5t-38.5 -84t-44 -68.5zM230 -170q18 35 35 77.5t23 82.5q-21 2 -34.5 17.5t-13.5 37.5q0 26 17.5 44.5t43.5 18.5q24 0 39 -17t15 -49 q0 -35 -16 -78.5t-38.5 -84t-44.5 -68.5z" />
<glyph unicode="&#x2020;" horiz-adv-x="505" d="M272 0l-37 -2l-7 9l-17 159l20 297l-166 -9l-3 3q-4 23 -4 50l9 7l163 -9l-15 184l3 3q15 2 30.5 3t33.5 1l7 -7l-16 -184l166 9l4 -3q1 -11 2.5 -24.5t1.5 -25.5l-9 -7l-165 9l20 -297l-17 -160z" />
<glyph unicode="&#x2021;" horiz-adv-x="505" d="M219 -5l-7 8l19 187l-164 -15l-9 7q0 12 1 29.5t3 28.5l3 3l166 -16l-8 62t-4 61q0 27 4.5 56.5t8.5 59.5l-167 -15l-3 3q-2 10 -3 27.5t-1 30.5l9 7l165 -16l-20 186l3 3q17 2 33.5 3t36.5 1l7 -7l-20 -187l167 17l4 -3q1 -11 2.5 -28.5t1.5 -29.5l-9 -7l-165 15 q4 -30 8 -59.5t4 -56.5q0 -29 -4.5 -60.5t-7.5 -62.5l165 16l9 -7q0 -12 -1.5 -29.5t-2.5 -28.5l-4 -3l-167 15l20 -187l-3 -4q-34 -3 -70 -4z" />
<glyph unicode="&#x2022;" horiz-adv-x="427" d="M210 142q-50 0 -79.5 32.5t-30.5 76.5q0 34 15.5 63.5t43.5 48t64 18.5q46 0 74.5 -31t29.5 -78q0 -33 -13.5 -62.5t-40 -48.5t-63.5 -19z" />
<glyph unicode="&#x2026;" horiz-adv-x="628" d="M175 51q0 -26 -18 -43.5t-41 -17.5t-39.5 16t-16.5 41t17.5 43t42.5 18q23 0 39 -16t16 -41zM371 51q0 -26 -17.5 -43.5t-40.5 -17.5q-24 0 -40.5 16t-16.5 41t18 43t43 18q23 0 38.5 -16t15.5 -41zM568 51q0 -26 -17.5 -43.5t-41.5 -17.5q-23 0 -39.5 16t-16.5 41t18 43 t43 18q23 0 38.5 -16t15.5 -41z" />
<glyph unicode="&#x2030;" horiz-adv-x="1435" d="M418 498q0 -67 -25 -112.5t-66.5 -68.5t-89.5 -23q-75 0 -123.5 52t-48.5 145q0 67 25 113t66 69.5t90 23.5q76 0 124 -53t48 -146zM737 696l-423 -706h-46l421 706h48zM131 497q0 -71 27.5 -115.5t82.5 -44.5q50 0 81 40.5t31 116.5q0 72 -28 116.5t-81 44.5 q-50 0 -81.5 -40t-31.5 -118zM904 126q0 -67 -25.5 -112.5t-66.5 -68.5t-89 -23q-75 0 -123.5 52t-48.5 145q0 67 24.5 113t66 69.5t90.5 23.5q76 0 124 -53t48 -146zM1370 126q0 -67 -25.5 -112.5t-66.5 -68.5t-89 -23q-75 0 -123.5 52t-48.5 145q0 67 24.5 113t66 69.5 t90.5 23.5q76 0 124 -53t48 -146zM616 125q0 -71 28 -115.5t82 -44.5q50 0 81 40.5t31 116.5q0 72 -27.5 116.5t-81.5 44.5q-50 0 -81.5 -40t-31.5 -118zM1082 125q0 -71 28 -115.5t82 -44.5q50 0 81 40.5t31 116.5q0 72 -27.5 116.5t-81.5 44.5q-50 0 -81.5 -40t-31.5 -118 z" />
<glyph unicode="&#x2039;" horiz-adv-x="283" d="M54 282v21q44 38 84.5 86.5t84.5 106.5l20 -10q-23 -55 -52 -103.5t-62 -90.5q33 -42 62 -90.5t52 -102.5l-20 -11q-44 59 -84.5 107t-84.5 87z" />
<glyph unicode="&#x203a;" horiz-adv-x="283" d="M229 282q-44 -39 -84.5 -87t-84.5 -107l-20 11q23 54 52 102.5t62 90.5q-33 42 -62 90.5t-52 103.5l20 10q44 -58 84.5 -106.5t84.5 -86.5v-21z" />
<glyph unicode="&#x2044;" horiz-adv-x="581" d="M526 700l-425 -710h-46l424 710h47z" />
<glyph unicode="&#x2070;" horiz-adv-x="466" d="M405 556q0 -70 -24.5 -117.5t-64.5 -71t-87 -23.5q-73 0 -120.5 54t-47.5 153q0 69 24 117t64 73t88 25q74 0 121 -56t47 -154zM126 556q0 -77 26 -125t80 -48q51 0 79.5 44.5t28.5 126.5q0 77 -26 125t-80 48q-49 0 -78.5 -43t-29.5 -128z" />
<glyph unicode="&#x2074;" horiz-adv-x="403" d="M39 499l180 261l67 6l7 -6v-257q33 1 63 5l-7 -50h-56v-106h-59v106h-187zM92 502v-1q29 1 58.5 1h71.5h12v110q0 36 0.5 57.5t1.5 44.5h-1z" />
<glyph unicode="&#x2075;" horiz-adv-x="378" d="M56 358l7 44q19 -7 46.5 -11t48.5 -4q46 0 76.5 22.5t30.5 64.5t-29 61.5t-69 19.5q-19 0 -44 -4t-41 -10l-10 7v210h140q27 0 53 1t51 5l-4 -54h-188v-120q14 3 32 5t33 2q38 0 69.5 -13t51 -39.5t19.5 -66.5q0 -62 -47.5 -98t-122.5 -36q-27 0 -54.5 4t-48.5 10z" />
<glyph unicode="&#x2076;" horiz-adv-x="409" d="M214 344q-69 0 -111 46.5t-42 134.5q0 73 27.5 127t76.5 84t113 30q16 0 31.5 -2t23.5 -6l-6 -45q-8 4 -20.5 6.5t-27.5 2.5q-38 0 -71.5 -18.5t-55.5 -56t-26 -95.5h2q20 19 49 28t57 9q57 0 92 -31.5t35 -84.5q0 -41 -20 -70t-53.5 -44t-73.5 -15zM217 551 q-26 0 -52.5 -11.5t-38.5 -30.5q3 -58 23 -91t64 -33q37 0 60.5 23t23.5 61q0 36 -20.5 59t-59.5 23z" />
<glyph unicode="&#x2077;" horiz-adv-x="351" d="M38 702l7 56h270l7 -7v-34q-46 -49 -85 -108t-63.5 -124.5t-28.5 -132.5h-64q3 50 20.5 100.5t43.5 98t57 88.5t60 70v1h-107q-31 0 -61 -1.5t-56 -6.5z" />
<glyph unicode="&#x2078;" horiz-adv-x="399" d="M197 344q-65 0 -107 28t-42 73q0 41 32.5 69.5t72.5 42.5v1q-34 17 -62 43t-28 63q0 44 40.5 73t99.5 29q60 0 96.5 -29.5t36.5 -69.5q0 -33 -25.5 -61t-65.5 -44v-2q41 -15 74 -41t33 -67q0 -45 -42.5 -76.5t-112.5 -31.5zM202 728q-32 0 -56 -16.5t-24 -44.5 q0 -26 24 -48t61 -37q30 15 50.5 37.5t20.5 47.5q0 27 -22.5 44t-53.5 17zM191 534q-32 -13 -57.5 -36t-25.5 -52t25.5 -47t64.5 -18q40 0 66 18.5t27 47.5q1 30 -26.5 50t-73.5 37z" />
<glyph unicode="&#x2079;" horiz-adv-x="409" d="M48 629q0 42 20 72.5t53.5 47.5t73.5 17q65 0 109 -45.5t44 -132.5q0 -68 -27 -123.5t-76 -88t-114 -32.5q-11 0 -25.5 1.5t-23.5 3.5v43q9 -1 21 -2.5t24 -1.5q64 0 105.5 42t50.5 118q-19 -20 -46.5 -29t-55.5 -9q-60 0 -96.5 31.5t-36.5 87.5zM113 633q0 -38 21 -61 t62 -23q25 0 49.5 10t37.5 33q-3 58 -25 95t-65 37q-35 0 -57.5 -25.5t-22.5 -65.5z" />
<glyph unicode="&#x207f;" horiz-adv-x="475" d="M148 290h-62v265q0 36 -4 62t-12 54l57 14q12 -29 18 -59q64 59 138 59q51 0 80 -29t29 -85v-281h-62v267q0 81 -73 81q-54 0 -109 -45v-303z" />
<glyph unicode="&#x2080;" horiz-adv-x="466" d="M405 132q0 -70 -24.5 -117.5t-64.5 -71t-87 -23.5q-73 0 -120.5 54t-47.5 153q0 69 24 117t64 73t88 25q74 0 121 -56t47 -154zM126 132q0 -77 26 -125t80 -48q51 0 79.5 44.5t28.5 126.5q0 77 -26 125t-80 48q-49 0 -78.5 -43t-29.5 -128z" />
<glyph unicode="&#x2081;" horiz-adv-x="247" d="M102 281h-1l-72 -14l-10 36l137 41l7 -6v-408h-62v266v46t1 39z" />
<glyph unicode="&#x2082;" horiz-adv-x="367" d="M44 -70l-8 46q51 38 100 78.5t81.5 82t32.5 83.5q0 36 -24.5 58t-63.5 22q-61 0 -119 -44l-6 47q24 18 62 29.5t77 11.5q58 0 98 -30.5t40 -82.5q0 -36 -20 -70.5t-52.5 -66.5t-70.5 -61.5t-74 -54.5h119q55 0 105 6l-7 -54h-270z" />
<glyph unicode="&#x2083;" horiz-adv-x="357" d="M48 309q19 12 54 22.5t71 10.5q52 0 88 -24t36 -65q0 -34 -29 -64.5t-83 -46.5q59 -4 95.5 -30t36.5 -73q0 -53 -46.5 -86t-122.5 -33q-28 0 -57.5 4t-50.5 10l6 42q21 -6 49.5 -10t50.5 -4q46 0 76.5 20t30.5 55q0 38 -35.5 53.5t-82.5 15.5q-25 0 -47 -4v42 q69 12 106.5 38t37.5 60q0 25 -19.5 40.5t-55.5 15.5q-28 0 -55.5 -9t-49.5 -22z" />
<glyph unicode="&#x2084;" horiz-adv-x="403" d="M39 77l180 261l67 6l7 -6v-257q33 1 63 5l-7 -50h-56v-106h-59v106h-187zM92 80v-1q29 1 58.5 1h71.5h12v110q0 36 0.5 57.5t1.5 44.5h-1z" />
<glyph unicode="&#x2085;" horiz-adv-x="378" d="M56 -66l7 44q19 -7 46.5 -11t48.5 -4q46 0 76.5 22.5t30.5 64.5t-29 61.5t-69 19.5q-19 0 -44 -4t-41 -10l-10 7v210h140q27 0 53 1t51 5l-4 -54h-188v-120q14 3 32 5t33 2q38 0 69.5 -13t51 -39.5t19.5 -66.5q0 -62 -47.5 -98t-122.5 -36q-27 0 -54.5 4t-48.5 10z" />
<glyph unicode="&#x2086;" horiz-adv-x="409" d="M214 -80q-69 0 -111 46.5t-42 134.5q0 73 27.5 127t76.5 84t113 30q16 0 31.5 -2t23.5 -6l-6 -45q-8 4 -20.5 6.5t-27.5 2.5q-38 0 -71.5 -18.5t-55.5 -56t-26 -95.5h2q20 19 49 28t57 9q57 0 92 -31.5t35 -84.5q0 -41 -20 -70t-53.5 -44t-73.5 -15zM217 127 q-26 0 -52.5 -11.5t-38.5 -30.5q3 -58 23 -91t64 -33q37 0 60.5 23t23.5 61q0 36 -20.5 59t-59.5 23z" />
<glyph unicode="&#x2087;" horiz-adv-x="351" d="M38 280l7 56h270l7 -7v-34q-46 -49 -85 -108t-63.5 -124.5t-28.5 -132.5h-64q3 50 20.5 100.5t43.5 98t57 88.5t60 70v1h-107q-31 0 -61 -1.5t-56 -6.5z" />
<glyph unicode="&#x2088;" horiz-adv-x="399" d="M197 -80q-65 0 -107 28t-42 73q0 41 32.5 69.5t72.5 42.5v1q-34 17 -62 43t-28 63q0 44 40.5 73t99.5 29q60 0 96.5 -29.5t36.5 -69.5q0 -33 -25.5 -61t-65.5 -44v-2q41 -15 74 -41t33 -67q0 -45 -42.5 -76.5t-112.5 -31.5zM202 304q-32 0 -56 -16.5t-24 -44.5 q0 -26 24 -48t61 -37q30 15 50.5 37.5t20.5 47.5q0 27 -22.5 44t-53.5 17zM191 110q-32 -13 -57.5 -36t-25.5 -52t25.5 -47t64.5 -18q40 0 66 18.5t27 47.5q1 30 -26.5 50t-73.5 37z" />
<glyph unicode="&#x2089;" horiz-adv-x="409" d="M48 205q0 42 20 72.5t53.5 47.5t73.5 17q65 0 109 -45.5t44 -132.5q0 -68 -27 -123.5t-76 -88t-114 -32.5q-11 0 -25.5 1.5t-23.5 3.5v43q9 -1 21 -2.5t24 -1.5q64 0 105.5 42t50.5 118q-19 -20 -46.5 -29t-55.5 -9q-60 0 -96.5 31.5t-36.5 87.5zM113 209q0 -38 21 -61 t62 -23q25 0 49.5 10t37.5 33q-3 58 -25 95t-65 37q-35 0 -57.5 -25.5t-22.5 -65.5z" />
<glyph unicode="&#x20ac;" horiz-adv-x="593" d="M48 249l4 38h61q-2 22 -2 45q0 27 2 53h-51l5 38h51q13 84 49.5 145.5t92 94.5t125.5 33q40 0 81.5 -11t71.5 -32l-15 -71q-28 22 -64 35t-71 13q-71 0 -122.5 -53.5t-67.5 -153.5h245l-3 -38h-246q-2 -21 -2 -44q0 -28 3 -54h233l-3 -38h-225q16 -90 64.5 -141.5 t121.5 -51.5q40 0 79.5 15t68.5 38l10 -65q-34 -27 -79 -40.5t-90 -13.5q-103 0 -172 67.5t-86 191.5h-69z" />
<glyph unicode="&#x2122;" horiz-adv-x="590" d="M491 689l5 -4l26 -225h-39l-9 85q-3 23 -5.5 50.5l-4.5 49.5h-1q-10 -49 -27 -101l-25 -84h-45l-25 84q-8 25 -12.5 40t-7.5 28t-8 34h-1q-1 -15 -1.5 -22t-1 -14.5t-2 -22l-4.5 -43.5l-11 -84h-33l27 227l51 2l32 -96q5 -20 10.5 -42.5t11.5 -52.5h1q6 30 11.5 55 t10.5 40l31 94zM167 460h-41v196q-18 0 -35 -0.5t-33 -1.5l2 32h173l3 -32q-17 1 -34 1.5t-35 0.5v-196z" />
<glyph unicode="&#x2202;" horiz-adv-x="628" d="M284 756q67 0 117.5 -30t84 -84t50.5 -124.5t17 -150.5q0 -71 -14 -138t-45.5 -121t-83 -86t-126.5 -32q-70 0 -118.5 28.5t-73 77.5t-24.5 111q0 71 31 125t89 84.5t137 30.5q44 0 80 -9.5t66 -23.5q-6 86 -33 149.5t-69.5 98t-97.5 34.5q-38 0 -76 -15t-63 -36l-29 53 q30 23 78.5 40.5t102.5 17.5zM147 212q0 -75 37.5 -118t102.5 -43q82 0 134 72.5t52 218.5v6q-28 16 -61.5 27t-78.5 11q-95 0 -140.5 -47.5t-45.5 -126.5z" />
<glyph unicode="&#x220f;" horiz-adv-x="742" d="M683 678l-4 -55h-115v-763h-75v763h-239v-763h-75v763h-115l-1 60l616 3z" />
<glyph unicode="&#x2211;" horiz-adv-x="568" d="M58 -70l252 354l-252 354l15 48h455l9 -8l-4 -55l-393 6l242 -334v-22l-242 -334l394 6l-1 -64h-460z" />
<glyph unicode="&#x2212;" d="M510 322h-450v47q30 1 75 2t96.5 1.5t103.5 1t97.5 0.5h77.5l5 -5z" />
<glyph unicode="&#x221a;" horiz-adv-x="602" d="M577 742l-224 -742h-85l-165 438h-87v58h141l155 -436l198 696l61 -6z" />
<glyph unicode="&#x221e;" horiz-adv-x="843" d="M765 272q0 -51 -21 -90t-58.5 -61t-86.5 -22q-44 0 -76.5 17t-57 45t-45.5 59q-36 -59 -81.5 -90t-99.5 -31q-72 0 -116.5 47t-44.5 122q0 51 21.5 90t58.5 61t85 22q62 0 103.5 -35t75.5 -85q37 59 82 89.5t100 30.5q71 0 116 -46.5t45 -122.5zM595 392 q-46 0 -82.5 -30.5t-64.5 -83.5q19 -32 39.5 -62t47 -48.5t64.5 -18.5q49 0 80.5 33.5t31.5 86.5q0 54 -33.5 88.5t-82.5 34.5zM132 274q0 -55 33 -89.5t83 -34.5q44 0 81.5 30.5t65.5 79.5l-1 2q-20 34 -41.5 63.5t-48 48t-61.5 18.5q-50 0 -80.5 -33t-30.5 -85z" />
<glyph unicode="&#x222b;" horiz-adv-x="478" d="M181 -200q83 0 83 90q0 41 -17 131t-44 228q-15 73 -28.5 140t-21.5 121t-8 88q0 79 43 118.5t115 39.5q32 0 62.5 -8t60.5 -22l-9 -64q-27 18 -57 28.5t-59 10.5q-83 0 -83 -91q0 -40 16 -125t43 -222q15 -75 28.5 -143t22.5 -123.5t9 -91.5q0 -83 -43.5 -122 t-114.5 -39q-33 0 -63.5 8t-59.5 22l8 64q28 -18 58 -28t59 -10z" />
<glyph unicode="&#x2248;" d="M416 321q-14 0 -42 7t-61.5 17.5t-66 20.5t-56.5 17.5t-33 7.5q-13 0 -32 -24.5t-42 -56.5l-32 22q13 23 29.5 49t37 45t42.5 19q13 -1 41 -8t61.5 -17t66 -20.5t57 -17.5t32.5 -7q13 0 32 24t44 56l30 -21q-12 -23 -29 -49.5t-37 -45t-42 -18.5zM416 120q-14 0 -42 7 t-61.5 17t-66 20.5t-56.5 17.5t-33 7q-13 0 -32 -24.5t-42 -56.5l-32 22q13 23 29.5 49.5t37 45t42.5 18.5q13 0 41 -7t61.5 -17.5t66 -20.5t57 -17t32.5 -7q13 0 32 24t44 56l30 -21q-12 -23 -29 -49.5t-37 -45t-42 -18.5z" />
<glyph unicode="&#x2260;" d="M144 121l53 112h-137v47q29 1 71.5 2t90.5 1l65 138h-227v47q42 2 111 3t141 1l61 128l8 2l38 -20l-52 -109q86 1 143 1l5 -6l-5 -47h-168l-66 -137q67 1 130 1.5t104 0.5l5 -6l-5 -47h-258l-62 -129l-8 -2z" />
<glyph unicode="&#x2264;" d="M137 437l372 -139v-52l-452 173v32l5 8q29 11 73.5 27t96 34.5t103.5 37t97 34t76 25.5v-53zM509 96h-450v48q30 0 75 1t96.5 1.5t103.5 1t97 1t77 0.5l6 -6z" />
<glyph unicode="&#x2265;" d="M66 246v52l372 139l-371 127v53q31 -10 76 -25.5t97 -34t103.5 -37t96 -34.5t73.5 -27l5 -8v-32zM511 96h-450v48q31 0 75.5 1t96 1.5t103.5 1t97.5 1t77.5 0.5l6 -6z" />
<glyph unicode="&#x25ca;" horiz-adv-x="611" d="M73 327v31l214 332l60 10l222 -343v-31l-218 -326l-59 -10zM316 649l-190 -307l191 -299h6l194 299l-194 307h-7z" />
<glyph unicode="&#x25fc;" horiz-adv-x="505" d="M0 505h505v-505h-505v505z" />
<glyph unicode="&#xfb00;" horiz-adv-x="585" d="M179 0h-75v445l-75 3v33l75 10q-1 25 -2 49.5t-1 35.5q0 75 45.5 117.5t120.5 42.5q39 0 74 -9.5t60 -22.5q43 52 128 52q65 0 115 -28l-18 -62q-19 12 -44 21.5t-55 9.5q-48 0 -68 -30t-20 -83q0 -16 0.5 -44.5t1.5 -48.5h133l7 -8l-3 -41l-135 3v-445h-75v445h-189 v-445zM175 573q0 -9 1 -36t1 -46h191q-1 26 -2 51.5t-1 39.5q0 37 8 67q-20 14 -47 23t-57 9q-94 0 -94 -108z" />
<glyph unicode="&#xfb01;" horiz-adv-x="542" d="M179 0h-75v445l-75 3v33l75 10q-1 27 -2 52.5t-1 38.5q0 82 45.5 128t129.5 46q47 0 88 -14t72 -38l-37 -52q-23 18 -53.5 31.5t-70.5 13.5q-54 0 -77 -30t-23 -86q0 -12 0.5 -40.5t1.5 -49.5h182l75 15l9 -8v-498h-75v339q0 29 -1 54t-3 49l-185 3v-445z" />
<glyph unicode="&#xfb02;" horiz-adv-x="540" d="M179 0h-75v445l-75 3v33l75 10q-1 27 -2 52.5t-1 39.5q0 81 48 127t140 46q43 0 82 -11l70 11l9 -8v-748h-75v442l-196 3v-445zM175 584q0 -16 1 -44.5t1 -48.5h195l3 -3v101q0 50 -3 90q-18 8 -39.5 13t-47.5 5q-59 0 -84.5 -30t-25.5 -83z" />
<glyph unicode="&#xfb03;" horiz-adv-x="806" d="M179 0h-75v445l-75 3v33l75 10q-1 26 -2 50t-1 35q0 75 48.5 117.5t125.5 42.5q39 0 72 -9.5t57 -23.5q46 53 136 53q47 0 88 -14t72 -38l-37 -52q-23 18 -54 31.5t-70 13.5q-55 0 -77.5 -30t-22.5 -86q0 -12 0.5 -40.5t1.5 -49.5h181l76 15l8 -8v-498h-75v339 q0 29 -0.5 54t-2.5 49l-185 3v-445h-75v445h-189v-445zM175 573q0 -9 1 -36t1 -46h191q-1 27 -2 52.5t-1 38.5q0 36 8 65q-18 13 -42.5 21.5t-54.5 8.5q-101 0 -101 -104z" />
<glyph unicode="&#xfb04;" horiz-adv-x="804" d="M179 0h-75v445l-75 3v33l75 10q-1 26 -2 50t-1 35q0 75 48.5 117.5t125.5 42.5q39 0 72.5 -10t57.5 -24q49 54 148 54q43 0 82 -11l70 11l9 -8v-748h-75v442l-196 3v-445h-75v445h-189v-445zM439 584q0 -16 0.5 -44.5t1.5 -48.5h195l3 -3v101q0 50 -3 90q-18 8 -39.5 13 t-48.5 5q-58 0 -83.5 -30t-25.5 -83zM175 573q0 -9 1 -36t1 -46h191q-1 27 -2 52.5t-1 39.5q0 35 9 64q-19 13 -43.5 21.5t-54.5 8.5q-101 0 -101 -104z" />
<glyph unicode="&#xfb06;" horiz-adv-x="781" d="M370 476l-9 -64q-29 18 -60 28.5t-63 10.5q-48 0 -75 -21.5t-27 -54.5q0 -29 17.5 -48t46 -33.5t60.5 -28.5t60 -32t46 -43t18 -63q0 -61 -49 -99t-131 -38q-36 0 -76 8t-73 26l9 63q34 -21 73.5 -31t70.5 -10q50 0 76 21.5t26 52.5q0 27 -18 45.5t-46.5 33t-60.5 28 t-60 31.5t-46 44t-18 64q0 62 49 101t130 39q19 0 37 -2.5t34 -6.5q-12 23 -17 47t-5 46q0 46 21 81.5t58.5 55t84.5 19.5q67 0 112.5 -40t45.5 -115q0 -27 -5 -53t-10 -42h135l7 -8l-4 -39l-138 1v-289q0 -22 4 -48t20.5 -45.5t52.5 -19.5q21 0 41 7t38 18l9 -52 q-20 -13 -48.5 -22t-61.5 -9q-42 0 -68 16t-39.5 41.5t-18 53.5t-4.5 52v298l-71 1v34l72 10q5 14 9 37.5t4 45.5q0 53 -23 83.5t-69 30.5q-44 0 -72.5 -28.5t-28.5 -83.5q0 -53 28 -105z" />
<glyph horiz-adv-x="421" d="M337 42q0 -28 3.5 -55t15.5 -57l-55 -8q-12 23 -20 55h-1q-16 -21 -50 -38t-76 -17q-50 0 -77.5 25.5t-27.5 66.5q0 45 31.5 73.5t83.5 43t112 18.5v49q0 78 -85 78q-32 0 -64.5 -10t-60.5 -26l-3 52q26 13 63.5 23t78.5 10q66 0 100 -31t34 -84q0 -27 -0.5 -59t-1 -61 t-0.5 -48zM112 24q0 -23 16 -41t49 -18q26 0 53.5 12t45.5 30v111q-45 -3 -82 -14t-59.5 -31t-22.5 -49z" />
<glyph horiz-adv-x="473" d="M412 125q0 -100 -49.5 -151.5t-126.5 -51.5q-25 0 -51.5 4.5t-46.5 11.5l-56 -16v466q0 35 -2 63.5t-6 58.5l63 10l7 -7v-228q20 19 48.5 29.5t59.5 10.5q72 0 116 -53t44 -147zM234 281q-53 0 -90 -34v-270q17 -7 41.5 -10.5t43.5 -3.5q55 0 86.5 40t31.5 118 q0 74 -29 117t-84 43z" />
<glyph horiz-adv-x="405" d="M362 299l-16 -53q-19 13 -43.5 21.5t-51.5 8.5q-57 0 -91.5 -38t-34.5 -111q0 -72 33 -114t95 -42q30 0 56 9t45 20l6 -46q-23 -14 -53 -23t-66 -9q-80 0 -130.5 51.5t-50.5 146.5q0 98 53.5 151.5t137.5 53.5q31 0 60 -7t51 -19z" />
<glyph horiz-adv-x="475" d="M322 510l62 10l7 -7v-475q0 -28 4.5 -54.5t15.5 -53.5l-56 -8q-6 11 -11 25t-9 29h-1q-16 -22 -44 -38t-69 -16q-71 0 -116 51.5t-45 141.5q0 69 26.5 115.5t70.5 70.5t98 24q22 0 40.5 -3.5t32.5 -8.5v75q0 35 -1 63.5t-5 58.5zM125 122q0 -73 32 -115t84 -43 q31 0 52.5 12.5t34.5 28.5v268q-35 12 -70 12q-56 0 -94.5 -40t-38.5 -123z" />
<glyph horiz-adv-x="430" d="M378 130l-12 -12h-240q3 -75 39 -111t92 -36q31 0 58 9t49 23l5 -45q-17 -12 -50 -24t-76 -12q-82 0 -132.5 51.5t-50.5 145.5q0 67 24.5 112.5t65 69.5t88.5 24q64 0 102.5 -41t38.5 -109v-22t-1 -23zM234 283q-42 0 -73 -34.5t-35 -100.5l189 5q1 12 1 28 q0 45 -21.5 73.5t-60.5 28.5z" />
<glyph horiz-adv-x="278" d="M151 -70h-62v345l-61 3v27l61 8q-1 20 -1.5 39.5t-0.5 30.5q0 64 34.5 100.5t100.5 36.5q54 0 94 -22l-14 -52q-16 10 -37 17.5t-45 7.5q-39 0 -55.5 -23t-16.5 -64q0 -12 1 -34t1 -37h109l5 -7l-2 -33l-111 2v-345z" />
<glyph horiz-adv-x="411" d="M99 -12q0 19 9 35.5t24 28.5q-38 14 -60.5 46.5t-22.5 78.5q0 40 17 74t50 54t81 20q27 0 49 -7.5t35 -17.5q16 16 41.5 25.5t50.5 9.5l8 -4l-1 -50h-79q15 -14 27.5 -38t12.5 -57q0 -60 -38.5 -102.5t-107.5 -42.5q-16 0 -32 2q-12 -15 -12 -34q0 -18 10.5 -27.5 t36.5 -10.5l69 -5q48 -3 84 -25t36 -70q0 -36 -22.5 -68t-66 -51.5t-107.5 -19.5q-78 0 -123 29.5t-45 72.5q0 28 16.5 47t32.5 26l27 -12q-7 -8 -13.5 -19.5t-6.5 -25.5q0 -31 30.5 -55.5t89.5 -24.5q56 0 90.5 24.5t34.5 60.5q0 29 -22 44.5t-57 18.5l-63 5 q-43 3 -63 20.5t-20 44.5zM279 182q0 48 -21 76t-63 28q-43 0 -64 -27t-21 -76q0 -48 21.5 -76t64.5 -28q41 0 62 27t21 76z" />
<glyph horiz-adv-x="471" d="M144 -70h-62v458q0 35 -1.5 63t-6.5 59l63 10l7 -7v-244q62 56 135 56q51 0 80 -29t29 -85v-281h-62v267q0 81 -73 81q-54 0 -109 -44v-304z" />
<glyph horiz-adv-x="229" d="M155 479q0 -20 -12.5 -36t-33.5 -16q-19 0 -30 13t-11 31q0 20 13.5 35.5t33.5 15.5q19 0 29.5 -11.5t10.5 -31.5zM83 -70v263q0 34 -1.5 62.5t-6.5 59.5l63 10l7 -7v-388h-62z" />
<glyph horiz-adv-x="229" d="M154 479q0 -20 -12 -36t-33 -16q-19 0 -30 13t-11 31q0 20 13.5 35.5t33.5 15.5q18 0 28.5 -11.5t10.5 -31.5zM69 -268l-27 25q15 26 28 64.5t13 93.5v278q0 34 -2 62.5t-5 59.5l62 10l8 -7v-403q0 -63 -19 -105.5t-58 -77.5z" />
<glyph horiz-adv-x="426" d="M82 388q0 35 -2 63.5t-6 58.5l63 10l7 -7v-364h63q30 39 61 84.5t63 91.5l47 -9l5 -7l-123 -163q34 -52 71 -105.5t76 -110.5l-69 -8q-33 46 -65 93.5t-62 94.5h-67v-180h-62v458z" />
<glyph horiz-adv-x="223" d="M139 -70h-62v458q0 35 -2 63.5t-6 58.5l63 10l7 -7v-583z" />
<glyph horiz-adv-x="705" d="M148 -70h-62v265q0 36 -4 62t-12 54l57 14q12 -29 18 -58q62 58 132 58q78 0 100 -63q64 63 137 63q52 0 80 -28.5t28 -80.5v-286h-63v273q0 75 -70 75q-51 0 -106 -46q1 -8 1 -16v-286h-62v273q0 75 -70 75q-51 0 -104 -45v-303z" />
<glyph horiz-adv-x="475" d="M148 -70h-62v265q0 36 -4 62t-12 54l57 14q12 -29 18 -59q64 59 138 59q51 0 80 -29t29 -85v-281h-62v267q0 81 -73 81q-54 0 -109 -45v-303z" />
<glyph horiz-adv-x="473" d="M413 126q0 -67 -25.5 -112.5t-66.5 -68.5t-89 -23q-75 0 -123.5 52t-48.5 145q0 67 24.5 113t66 69.5t90.5 23.5q76 0 124 -53t48 -146zM125 125q0 -71 28 -115.5t82 -44.5q50 0 81 40.5t31 116.5q0 72 -27.5 116.5t-81.5 44.5q-50 0 -81.5 -40t-31.5 -118z" />
<glyph horiz-adv-x="477" d="M86 -260v455q0 36 -4 61.5t-12 54.5l57 14q10 -23 15 -45q20 19 50 32t65 13q44 0 80 -23t57.5 -67t21.5 -107q0 -91 -46 -148.5t-129 -57.5q-25 0 -49.5 5t-43.5 14v-80q0 -34 1.5 -61t5.5 -58l-62 -10zM236 281q-52 0 -88 -37v-261q17 -8 38.5 -14t44.5 -6 q59 0 90 42.5t31 118.5q0 79 -32.5 118t-83.5 39z" />
<glyph horiz-adv-x="475" d="M328 -260v223q-43 -41 -107 -41q-71 0 -116 52.5t-45 145.5q0 67 26 112.5t71.5 69t103.5 23.5q19 0 40 -3.5t39 -8.5l51 12v-461q0 -34 1.5 -62.5t5.5 -59.5l-62 -10zM125 125q0 -72 29.5 -116t84.5 -45q24 0 48 9t41 26v279q-33 7 -58 7q-68 0 -106.5 -41.5 t-38.5 -118.5z" />
<glyph horiz-adv-x="323" d="M148 -70h-62v265q0 36 -4 62t-12 54l57 14q7 -16 12.5 -35t7.5 -35q28 32 58.5 51t60.5 19q12 0 22.5 -3t16.5 -7l-12 -59q-8 2 -17 4.5t-20 2.5q-21 0 -50.5 -11t-57.5 -34v-288z" />
<glyph horiz-adv-x="369" d="M307 302l-7 -53q-23 14 -48.5 22t-52.5 8q-39 0 -61 -16t-22 -42t20.5 -42.5t51 -29t61 -27t51 -36.5t20.5 -57q0 -47 -40.5 -77t-108.5 -30q-29 0 -62 6.5t-60 20.5l7 52q29 -17 61.5 -25t57.5 -8q40 0 61.5 16t21.5 40q-1 26 -21.5 42t-50.5 28.5t-60.5 27t-51 36.5 t-20.5 58q0 48 40 78.5t108 30.5q29 0 55.5 -6.5t49.5 -16.5z" />
<glyph horiz-adv-x="304" d="M262 279l-114 1v-223q0 -48 16 -67t47 -19q17 0 33.5 5t31.5 14l8 -43q-17 -10 -40 -17.5t-51 -7.5q-53 0 -80 31t-27 99v228l-60 1v28l61 8l15 92l41 4l8 -8l-3 -88h111l6 -7z" />
<glyph horiz-adv-x="468" d="M83 193q0 35 -2 63.5t-4 58.5l61 10l7 -7v-271q0 -75 70 -75q51 0 103 45v300l62 8v-285q0 -33 4 -58.5t12 -49.5l-53 -10q-13 27 -19 59h-3q-29 -28 -62.5 -43.5t-67.5 -15.5q-52 0 -80 28t-28 78v165z" />
<glyph horiz-adv-x="394" d="M370 313l-145 -386h-56l-145 393l64 5l65 -189q15 -39 24 -65t14.5 -46t9.5 -41h1q4 21 10 41t15.5 46t24.5 65l65 189l48 -5z" />
<glyph horiz-adv-x="631" d="M153 -73l-129 393l63 5l57 -184q19 -55 28 -88.5t16 -62.5h1q8 36 16.5 66.5t26.5 80.5l57 186h63l55 -180q12 -36 26 -77.5t19 -74.5h1q7 35 19.5 74t24.5 75l57 185l48 -5l5 -7l-128 -386h-61l-62 190q-15 45 -25 77t-15 65h-2q-5 -34 -15 -68t-23 -74l-62 -190h-61z " />
<glyph horiz-adv-x="395" d="M298 -70l-107 163l-105 -163h-53l-3 7l126 186l-126 193l62 9l111 -173l107 173l53 -5l2 -7l-127 -189l127 -194h-67z" />
<glyph horiz-adv-x="388" d="M370 313l-141 -372q-19 -53 -46.5 -98.5t-65.5 -75.5t-89 -35l-11 60q54 6 94.5 41t69.5 107h-18l-139 380l64 5l65 -189q15 -39 24 -65t14.5 -46t9.5 -41h1q4 21 10 41t15.5 46t24.5 65l65 189l48 -5z" />
<glyph horiz-adv-x="364" d="M32 264l4 53h286l7 -39l-230 -298l112 2q31 0 62 0.5t62 3.5l-5 -56h-294l-6 40l232 298z" />
<glyph horiz-adv-x="421" d="M337 402q0 -28 3.5 -55t15.5 -57l-55 -8q-12 23 -20 55h-1q-16 -21 -50 -38t-76 -17q-50 0 -77.5 25.5t-27.5 66.5q0 45 31.5 73.5t83.5 43t112 18.5v49q0 78 -85 78q-32 0 -64.5 -10t-60.5 -26l-3 52q26 13 63.5 23t78.5 10q66 0 100 -31t34 -84q0 -27 -0.5 -59t-1 -61 t-0.5 -48zM112 384q0 -23 16 -41t49 -19q26 1 53.5 13t45.5 30v111q-45 -3 -82 -14t-59.5 -31t-22.5 -49z" />
<glyph horiz-adv-x="473" d="M412 485q0 -100 -49.5 -151.5t-126.5 -51.5q-25 0 -51.5 4.5t-46.5 11.5l-56 -16v466q0 35 -2 63.5t-6 58.5l63 10l7 -7v-228q20 19 48.5 29.5t59.5 10.5q72 0 116 -53t44 -147zM234 641q-53 0 -90 -34v-270q17 -7 41.5 -10.5t43.5 -3.5q55 0 86.5 40t31.5 118 q0 74 -29 117t-84 43z" />
<glyph horiz-adv-x="405" d="M362 659l-16 -53q-19 13 -43.5 21.5t-51.5 8.5q-57 0 -91.5 -38t-34.5 -111q0 -72 33 -114t95 -42q30 0 56 9t45 20l6 -46q-23 -14 -53 -23t-66 -9q-80 0 -130.5 51.5t-50.5 146.5q0 98 53.5 151.5t137.5 53.5q31 0 60 -7t51 -19z" />
<glyph horiz-adv-x="475" d="M322 870l62 10l7 -7v-475q0 -28 4.5 -54.5t15.5 -53.5l-56 -8q-6 11 -11 25t-9 29h-1q-16 -22 -44 -38t-69 -16q-71 0 -116 51.5t-45 141.5q0 69 26.5 115.5t70.5 70.5t98 24q22 0 40.5 -3.5t32.5 -8.5v75q0 35 -1 63.5t-5 58.5zM125 482q0 -73 32 -115t84 -42 q31 0 52.5 12t34.5 28v268q-35 12 -70 12q-56 0 -94.5 -40t-38.5 -123z" />
<glyph horiz-adv-x="430" d="M378 490l-12 -12h-240q3 -75 39 -111t92 -36q31 0 58 9t49 23l5 -45q-17 -12 -50 -24t-76 -12q-82 0 -132.5 51.5t-50.5 145.5q0 67 24.5 112.5t65 69.5t88.5 24q64 0 102.5 -41t38.5 -109v-22t-1 -23zM234 643q-42 0 -73 -34.5t-35 -100.5l189 5q1 12 1 28 q0 45 -21.5 73.5t-60.5 28.5z" />
<glyph horiz-adv-x="278" d="M151 290h-62v345l-61 3v27l61 8q-1 20 -1.5 39.5t-0.5 30.5q0 64 34.5 100.5t100.5 36.5q54 0 94 -22l-14 -52q-16 10 -37 17.5t-45 7.5q-39 0 -55.5 -23t-16.5 -64q0 -12 1 -34t1 -37h109l5 -7l-2 -33l-111 2v-345z" />
<glyph horiz-adv-x="411" d="M99 347q0 20 9 36.5t24 28.5q-38 14 -60.5 46.5t-22.5 78.5q0 40 17 74t50 54t81 20q27 0 49 -7.5t35 -17.5q16 16 41.5 25.5t50.5 9.5l8 -4l-1 -50h-79q15 -14 27.5 -38t12.5 -57q0 -60 -38.5 -102.5t-107.5 -43.5q-16 1 -32 3q-12 -15 -12 -34q0 -18 10.5 -27.5 t36.5 -10.5l69 -5q48 -3 84 -25t36 -70q0 -36 -22.5 -68t-66 -51.5t-107.5 -19.5q-78 0 -123 29.5t-45 72.5q0 28 16.5 47t32.5 26l27 -12q-7 -8 -13.5 -19.5t-6.5 -25.5q0 -31 30.5 -55.5t89.5 -24.5q56 0 90.5 24.5t34.5 60.5q0 29 -22 44.5t-57 18.5l-63 5 q-43 3 -63 20.5t-20 43.5zM279 542q0 48 -21 76t-63 28q-43 0 -64 -27t-21 -76q0 -48 21.5 -76t64.5 -28q41 0 62 27t21 76z" />
<glyph horiz-adv-x="471" d="M144 290h-62v458q0 35 -1.5 63t-6.5 59l63 10l7 -7v-244q62 56 135 56q51 0 80 -29t29 -85v-281h-62v267q0 81 -73 81q-54 0 -109 -44v-304z" />
<glyph horiz-adv-x="229" d="M155 839q0 -20 -12.5 -36t-33.5 -16q-19 0 -30 13t-11 31q0 20 13.5 35.5t33.5 15.5q19 0 29.5 -11.5t10.5 -31.5zM83 290v263q0 34 -1.5 62.5t-6.5 59.5l63 10l7 -7v-388h-62z" />
<glyph horiz-adv-x="229" d="M154 839q0 -20 -12 -36t-33 -16q-19 0 -30 13t-11 31q0 20 13.5 35.5t33.5 15.5q18 0 28.5 -11.5t10.5 -31.5zM69 92l-27 25q15 26 28 64.5t13 93.5v278q0 34 -2 62.5t-5 59.5l62 10l8 -7v-403q0 -63 -19 -105.5t-58 -77.5z" />
<glyph horiz-adv-x="426" d="M82 748q0 35 -2 63.5t-6 58.5l63 10l7 -7v-364h63q30 39 61 84.5t63 91.5l47 -9l5 -7l-123 -163q34 -52 71 -105.5t76 -110.5l-69 -8q-33 46 -65 93.5t-62 94.5h-67v-180h-62v458z" />
<glyph horiz-adv-x="223" d="M139 290h-62v458q0 35 -2 63.5t-6 58.5l63 10l7 -7v-583z" />
<glyph horiz-adv-x="705" d="M148 290h-62v265q0 36 -4 62t-12 54l57 14q12 -29 18 -58q62 58 132 58q78 0 100 -63q64 63 137 63q52 0 80 -28.5t28 -80.5v-286h-63v273q0 75 -70 75q-51 0 -106 -46q1 -8 1 -16v-286h-62v273q0 75 -70 75q-51 0 -104 -45v-303z" />
<glyph horiz-adv-x="473" d="M413 486q0 -67 -25.5 -112.5t-66.5 -68.5t-89 -23q-75 0 -123.5 52t-48.5 145q0 67 24.5 113t66 69.5t90.5 23.5q76 0 124 -53t48 -146zM125 485q0 -71 28 -115.5t82 -44.5q50 0 81 40.5t31 116.5q0 72 -27.5 116.5t-81.5 44.5q-50 0 -81.5 -40t-31.5 -118z" />
<glyph horiz-adv-x="477" d="M86 100v455q0 36 -4 61.5t-12 54.5l57 14q10 -23 15 -45q20 19 50 32t65 13q44 0 80 -23t57.5 -67t21.5 -107q0 -91 -46 -148.5t-129 -57.5q-25 0 -49.5 5t-43.5 14v-80q0 -34 1.5 -61t5.5 -58l-62 -10zM236 641q-52 0 -88 -37v-261q17 -8 38.5 -14t44.5 -6q59 0 90 42.5 t31 118.5q0 79 -32.5 118t-83.5 39z" />
<glyph horiz-adv-x="475" d="M328 100v223q-43 -41 -107 -41q-71 0 -116 52.5t-45 145.5q0 67 26 112.5t71.5 69t103.5 23.5q19 0 40 -3.5t39 -8.5l51 12v-461q0 -34 1.5 -62.5t5.5 -59.5l-62 -10zM125 485q0 -72 29.5 -116t84.5 -44q24 0 48 8.5t41 25.5v279q-33 7 -58 7q-68 0 -106.5 -41.5 t-38.5 -118.5z" />
<glyph horiz-adv-x="323" d="M148 290h-62v265q0 36 -4 62t-12 54l57 14q7 -16 12.5 -35t7.5 -35q28 32 58.5 51t60.5 19q12 0 22.5 -3t16.5 -7l-12 -59q-8 2 -17 4.5t-20 2.5q-21 0 -50.5 -11t-57.5 -34v-288z" />
<glyph horiz-adv-x="369" d="M307 662l-7 -53q-23 14 -48.5 22t-52.5 8q-39 0 -61 -16t-22 -42t20.5 -42.5t51 -29t61 -27t51 -36.5t20.5 -57q0 -47 -40.5 -77t-108.5 -30q-29 0 -62 6.5t-60 20.5l7 52q29 -17 61.5 -25t57.5 -8q40 0 61.5 16t21.5 40q-1 26 -21.5 42t-50.5 28.5t-60.5 27t-51 36.5 t-20.5 58q0 48 40 78.5t108 30.5q29 0 55.5 -6.5t49.5 -16.5z" />
<glyph horiz-adv-x="304" d="M262 639l-114 1v-223q0 -48 16 -67t47 -19q17 0 33.5 5t31.5 14l8 -43q-17 -10 -40 -17.5t-51 -7.5q-53 0 -80 31t-27 99v228l-60 1v28l61 8l15 92l41 4l8 -8l-3 -88h111l6 -7z" />
<glyph horiz-adv-x="468" d="M83 553q0 35 -2 63.5t-4 58.5l61 10l7 -7v-271q0 -75 70 -75q51 0 103 45v300l62 8v-285q0 -33 4 -58.5t12 -49.5l-53 -10q-13 27 -19 59h-3q-29 -28 -62.5 -43.5t-67.5 -15.5q-52 0 -80 28t-28 78v165z" />
<glyph horiz-adv-x="394" d="M370 673l-145 -386h-56l-145 393l64 5l65 -189q15 -39 24 -65t14.5 -46t9.5 -41h1q4 21 10 41t15.5 46t24.5 65l65 189l48 -5z" />
<glyph horiz-adv-x="631" d="M153 287l-129 393l63 5l57 -184q19 -55 28 -88.5t16 -62.5h1q8 36 16.5 66.5t26.5 80.5l57 186h63l55 -180q12 -36 26 -77.5t19 -74.5h1q7 35 19.5 74t24.5 75l57 185l48 -5l5 -7l-128 -386h-61l-62 190q-15 45 -25 77t-15 65h-2q-5 -34 -15 -68t-23 -74l-62 -190h-61z " />
<glyph horiz-adv-x="395" d="M298 290l-107 163l-105 -163h-53l-3 7l126 186l-126 193l62 9l111 -173l107 173l53 -5l2 -7l-127 -189l127 -194h-67z" />
<glyph horiz-adv-x="388" d="M370 673l-141 -372q-19 -53 -46.5 -98.5t-65.5 -75.5t-89 -35l-11 60q54 6 94.5 41t69.5 107h-18l-139 380l64 5l65 -189q15 -39 24 -65t14.5 -46t9.5 -41h1q4 21 10 41t15.5 46t24.5 65l65 189l48 -5z" />
<glyph horiz-adv-x="364" d="M32 624l4 53h286l7 -39l-230 -298l112 2q31 0 62 0.5t62 3.5l-5 -56h-294l-6 40l232 298z" />
<glyph horiz-adv-x="1044" d="M649 0h-75v589q0 28 -0.5 52.5t-2.5 48.5q-20 3 -39 3q-69 0 -110 -29t-41 -79q0 -23 10.5 -53.5t40.5 -58.5l-19 -63q-23 16 -53 26.5t-63 10.5q-69 0 -111 -49.5t-42 -145.5q0 -93 40.5 -148.5t115.5 -55.5q36 0 68 12t55 26l6 -55q-27 -19 -63.5 -30t-79.5 -11 q-98 0 -159.5 65.5t-61.5 188.5q0 83 29.5 142t82 89.5t120.5 30.5q30 0 59 -5q-20 25 -27.5 50.5t-7.5 47.5q0 45 28.5 80.5t81.5 56t127 20.5q22 0 45 -2t46 -6v-313q37 34 78.5 52.5t86.5 18.5q62 0 97.5 -37t35.5 -109v-360h-75v344q0 105 -90 105q-64 0 -133 -58v-391z " />
<glyph horiz-adv-x="830" d="M571 496q5 14 9 37.5t4 45.5q0 53 -23 83.5t-68 30.5t-73.5 -28.5t-28.5 -80.5q0 -59 41 -111l-19 -63q-23 16 -53 26.5t-63 10.5q-69 0 -111 -49.5t-42 -146.5q0 -92 40 -147.5t115 -55.5q36 0 68.5 12t55.5 26l6 -55q-27 -19 -63.5 -30t-78.5 -11q-99 0 -160.5 65.5 t-61.5 187.5q0 84 29.5 143t82 89.5t121.5 30.5q31 0 62 -6q-12 22 -17 45.5t-5 45.5q0 46 21 81t58.5 54.5t85.5 19.5q66 0 111.5 -40t45.5 -116q0 -26 -5.5 -52t-10.5 -42h136l7 -8l-4 -39l-139 1v-289q0 -22 4.5 -48t21 -45.5t52.5 -19.5q20 0 40.5 7t38.5 18l9 -52 q-20 -13 -48.5 -22t-61.5 -9q-43 0 -69 16t-39 41.5t-18 53.5t-5 52v298l-70 1v34z" />
<glyph horiz-adv-x="994" d="M599 0h-75v589q0 28 -1 52.5t-2 48.5q-21 3 -39 3q-68 0 -110 -29t-42 -81q0 -21 8.5 -50.5t31.5 -56.5l-9 -64q-29 18 -60 28.5t-63 10.5q-48 0 -75 -21.5t-27 -54.5q0 -29 17.5 -48t46 -33.5t60.5 -28.5t60 -32t46 -43t18 -63q0 -61 -49 -99t-131 -38q-36 0 -76 8 t-73 26l9 63q34 -21 73.5 -31t70.5 -10q50 0 76 21.5t26 52.5q0 27 -18 45.5t-46.5 33t-60.5 28t-60 31.5t-46 44t-18 64q0 62 49 101t130 39q32 0 64 -7q-19 25 -26.5 51t-7.5 47q0 70 64 114.5t173 44.5q23 0 45.5 -2t46.5 -6v-313q37 34 78.5 52.5t85.5 18.5 q62 0 97.5 -37t35.5 -109v-360h-75v344q0 105 -89 105q-65 0 -133 -58v-391z" />
<glyph horiz-adv-x="526" d="M92 0h-72l171 462q8 22 15.5 43t12.5 38l77 4l11 -10l199 -537h-76l-56 148h-227zM207 305l-39 -102h185l-38 102q-17 49 -31 91.5t-22 76.5h-2q-8 -34 -22.5 -78.5t-30.5 -89.5z" />
<glyph horiz-adv-x="526" d="M352 784l4 -13q-31 -47 -71 -85t-89 -71l-25 12q32 41 61.5 84.5t49.5 86.5zM92 0h-72l171 462q8 22 15.5 43t12.5 38l77 4l11 -10l199 -537h-76l-56 148h-227zM207 305l-39 -102h185l-38 102q-17 49 -31 91.5t-22 76.5h-2q-8 -34 -22.5 -78.5t-30.5 -89.5z" />
<glyph horiz-adv-x="526" d="M357 777h35q-10 -64 -45 -102t-88 -38q-49 0 -83.5 36t-41.5 100l34 5q10 -38 35.5 -60t61.5 -22q33 0 57.5 22.5t34.5 58.5zM92 0h-72l171 462q8 22 15.5 43t12.5 38l77 4l11 -10l199 -537h-76l-56 148h-227zM207 305l-39 -102h185l-38 102q-17 49 -31 91.5t-22 76.5h-2 q-8 -34 -22.5 -78.5t-30.5 -89.5z" />
<glyph horiz-adv-x="526" d="M380 799l24 -18q-29 -38 -55 -77t-49 -79l-61 -7q-25 42 -53.5 82.5t-59.5 80.5l24 18q31 -27 61 -57t58 -60q26 30 53.5 60t57.5 57zM92 0h-72l171 462q8 22 15.5 43t12.5 38l77 4l11 -10l199 -537h-76l-56 148h-227zM207 305l-39 -102h185l-38 102q-17 49 -31 91.5 t-22 76.5h-2q-8 -34 -22.5 -78.5t-30.5 -89.5z" />
<glyph horiz-adv-x="526" d="M150 613l-24 18q28 39 54 77.5t50 79.5l61 6q25 -42 53 -82.5t60 -80.5l-24 -18q-32 27 -62 57t-58 60q-25 -30 -53 -59.5t-57 -57.5zM92 0h-72l171 462q8 22 15.5 43t12.5 38l77 4l11 -10l199 -537h-76l-56 148h-227zM207 305l-39 -102h185l-38 102q-17 49 -31 91.5 t-22 76.5h-2q-8 -34 -22.5 -78.5t-30.5 -89.5z" />
<glyph horiz-adv-x="526" d="M213 710q0 -24 -14 -43t-39 -19q-21 0 -34 15.5t-13 36.5q0 24 15.5 43t39.5 19q20 0 32.5 -14.5t12.5 -37.5zM414 710q0 -24 -14 -43t-39 -19q-22 0 -34.5 15.5t-12.5 36.5q0 24 15.5 43t38.5 19q21 0 33.5 -14.5t12.5 -37.5zM92 0h-72l171 462q8 22 15.5 43t12.5 38 l77 4l11 -10l199 -537h-76l-56 148h-227zM207 305l-39 -102h185l-38 102q-17 49 -31 91.5t-22 76.5h-2q-8 -34 -22.5 -78.5t-30.5 -89.5z" />
<glyph horiz-adv-x="526" d="M92 0h-72l171 462q8 22 15.5 43t12.5 38l77 4l11 -10l199 -537h-76l-56 148h-227zM207 305l-39 -102h185l-38 102q-17 49 -31 91.5t-22 76.5h-2q-8 -34 -22.5 -78.5t-30.5 -89.5zM317 -159q0 -24 -15 -43.5t-41 -19.5q-24 0 -37.5 16t-13.5 39q0 25 17 44t41 19 q23 0 36 -15.5t13 -39.5z" />
<glyph horiz-adv-x="526" d="M331 617q-49 33 -89 71t-71 85l5 14l69 14q20 -44 49.5 -87.5t61.5 -83.5zM92 0h-72l171 462q8 22 15.5 43t12.5 38l77 4l11 -10l199 -537h-76l-56 148h-227zM207 305l-39 -102h185l-38 102q-17 49 -31 91.5t-22 76.5h-2q-8 -34 -22.5 -78.5t-30.5 -89.5z" />
<glyph horiz-adv-x="526" d="M127 680v49h273v-49h-273zM92 0h-72l171 462q8 22 15.5 43t12.5 38l77 4l11 -10l199 -537h-76l-56 148h-227zM207 305l-39 -102h185l-38 102q-17 49 -31 91.5t-22 76.5h-2q-8 -34 -22.5 -78.5t-30.5 -89.5z" />
<glyph horiz-adv-x="526" d="M92 0h-72l171 462q8 22 15.5 43t12.5 38l77 4l11 -10l199 -537q-112 -61 -112 -125q0 -50 53 -50q10 0 23.5 3t31.5 10l13 -32q-38 -31 -92 -31q-44 0 -70 21.5t-26 60.5q0 80 119 143h-16l-56 148h-227zM207 305l-39 -102h185l-38 102q-17 49 -31 91.5t-22 76.5h-2 q-8 -34 -22.5 -78.5t-30.5 -89.5z" />
<glyph horiz-adv-x="526" d="M358 702q0 -37 -27.5 -63t-67.5 -26q-35 0 -60 22t-25 55q0 37 28.5 63t68.5 26q36 0 59.5 -22t23.5 -55zM221 694q0 -21 12.5 -34t33.5 -13q20 0 34 15t14 36q0 20 -11.5 33.5t-32.5 13.5q-22 0 -36 -15t-14 -36zM92 0h-72l171 462q8 22 15.5 43t12.5 38l77 4l11 -10 l199 -537h-76l-56 148h-227zM207 305l-39 -102h185l-38 102q-17 49 -31 91.5t-22 76.5h-2q-8 -34 -22.5 -78.5t-30.5 -89.5z" />
<glyph horiz-adv-x="526" d="M356 1026l5 -13q-32 -48 -72 -86t-89 -70l-25 12q32 41 62 84.5t50 86.5zM358 702q0 -37 -27.5 -63t-67.5 -26q-35 0 -60 22t-25 55q0 37 28.5 63t68.5 26q36 0 59.5 -22t23.5 -55zM221 694q0 -21 12.5 -34t33.5 -13q20 0 34 15t14 36q0 20 -11.5 33.5t-32.5 13.5 q-22 0 -36 -15t-14 -36zM92 0h-72l171 462q8 22 15.5 43t12.5 38l77 4l11 -10l199 -537h-76l-56 148h-227zM207 305l-39 -102h185l-38 102q-17 49 -31 91.5t-22 76.5h-2q-8 -34 -22.5 -78.5t-30.5 -89.5z" />
<glyph horiz-adv-x="526" d="M195 764q27 0 50 -14t44 -28t43 -14q20 0 34.5 15.5t25.5 37.5l24 -4q-3 -26 -13.5 -52t-29.5 -43t-46 -17t-50.5 14t-45.5 28.5t-42 14.5t-34.5 -15.5t-25.5 -38.5l-24 4q3 25 13.5 51t29.5 43.5t47 17.5zM92 0h-72l171 462q8 22 15.5 43t12.5 38l77 4l11 -10l199 -537 h-76l-56 148h-227zM207 305l-39 -102h185l-38 102q-17 49 -31 91.5t-22 76.5h-2q-8 -34 -22.5 -78.5t-30.5 -89.5z" />
<glyph horiz-adv-x="680" d="M92 0h-72l202 461q20 46 29 78h337l9 -8l-2 -52l-231 5l26 -191l191 3l-2 -56l-182 2l25 -187l222 5v-60h-290q-11 86 -18 148h-178q-28 -63 -66 -148zM294 472q-6 -19 -13.5 -38.5t-19 -47.5t-30.5 -72t-48 -111h146q-8 72 -13 116t-8 71t-4 45t-3 38z" />
<glyph horiz-adv-x="680" d="M440 784l5 -13q-32 -47 -71.5 -85t-89.5 -71l-25 12q33 41 62.5 84.5t49.5 86.5zM92 0h-72l202 461q20 46 29 78h337l9 -8l-2 -52l-231 5l26 -191l191 3l-2 -56l-182 2l25 -187l222 5v-60h-290q-11 86 -18 148h-178q-28 -63 -66 -148zM294 472q-6 -19 -13.5 -38.5 t-19 -47.5t-30.5 -72t-48 -111h146q-8 72 -13 116t-8 71t-4 45t-3 38z" />
<glyph horiz-adv-x="497" d="M231 0h-155v415q0 34 -1.5 63.5t-5.5 60.5h166q88 0 140 -38.5t52 -100.5q0 -45 -26.5 -74.5t-70.5 -44.5q60 -14 91 -48.5t31 -84.5q0 -69 -61 -108.5t-160 -39.5zM225 485h-74v-183h72q63 0 95.5 24t32.5 65q0 42 -31.5 68t-94.5 26zM228 249h-77v-194h80 q70 0 106.5 25.5t36.5 71.5q0 43 -34.5 70t-111.5 27z" />
<glyph horiz-adv-x="508" d="M460 94l9 -61q-32 -21 -74.5 -31t-86.5 -10q-74 0 -130 32t-87 92t-31 146q0 88 33 152t91 98.5t132 34.5q40 0 79.5 -8.5t68.5 -25.5l-15 -65q-26 17 -59.5 27t-70.5 10q-78 0 -129.5 -57t-51.5 -162q0 -93 47 -152t135 -59q39 0 76 11t64 28z" />
<glyph horiz-adv-x="508" d="M377 784l5 -13q-31 -47 -71 -85t-89 -71l-25 12q32 41 61.5 84.5t49.5 86.5zM460 94l9 -61q-32 -21 -74.5 -31t-86.5 -10q-74 0 -130 32t-87 92t-31 146q0 88 33 152t91 98.5t132 34.5q40 0 79.5 -8.5t68.5 -25.5l-15 -65q-26 17 -59.5 27t-70.5 10q-78 0 -129.5 -57 t-51.5 -162q0 -93 47 -152t135 -59q39 0 76 11t64 28z" />
<glyph horiz-adv-x="508" d="M406 799l24 -18q-29 -38 -55 -77t-49 -79l-62 -7q-25 42 -53 82.5t-59 80.5l24 18q31 -27 61 -57t58 -60q26 30 53.5 60t57.5 57zM460 94l9 -61q-32 -21 -74.5 -31t-86.5 -10q-74 0 -130 32t-87 92t-31 146q0 88 33 152t91 98.5t132 34.5q40 0 79.5 -8.5t68.5 -25.5 l-15 -65q-26 17 -59.5 27t-70.5 10q-78 0 -129.5 -57t-51.5 -162q0 -93 47 -152t135 -59q39 0 76 11t64 28z" />
<glyph horiz-adv-x="508" d="M400 -131q0 -30 -22 -50t-57 -31t-72 -15l-4 32q43 8 68 22t25 36q0 20 -19.5 28.5t-46.5 10.5l-10 15l24 76q-103 7 -164.5 77t-61.5 192q0 88 33 152t91 98.5t132 34.5q40 0 79.5 -8.5t68.5 -25.5l-15 -65q-26 17 -59.5 27t-70.5 10q-78 0 -129.5 -57t-51.5 -162 q0 -93 47 -152t135 -59q39 0 76 11t64 28l9 -61q-27 -18 -63.5 -28t-74.5 -12l-18 -55q35 -4 61 -20.5t26 -48.5z" />
<glyph horiz-adv-x="508" d="M176 613l-24 18q28 39 54 77.5t49 79.5l62 6q25 -42 53 -82.5t60 -80.5l-25 -18q-31 27 -61 57t-58 60q-26 -30 -53.5 -59.5t-56.5 -57.5zM460 94l9 -61q-32 -21 -74.5 -31t-86.5 -10q-74 0 -130 32t-87 92t-31 146q0 88 33 152t91 98.5t132 34.5q40 0 79.5 -8.5 t68.5 -25.5l-15 -65q-26 17 -59.5 27t-70.5 10q-78 0 -129.5 -57t-51.5 -162q0 -93 47 -152t135 -59q39 0 76 11t64 28z" />
<glyph horiz-adv-x="508" d="M343 711q0 -25 -15 -44t-42 -19q-23 0 -36.5 16t-13.5 38q0 25 16.5 44t41.5 19q22 0 35.5 -15t13.5 -39zM460 94l9 -61q-32 -21 -74.5 -31t-86.5 -10q-74 0 -130 32t-87 92t-31 146q0 88 33 152t91 98.5t132 34.5q40 0 79.5 -8.5t68.5 -25.5l-15 -65q-26 17 -59.5 27 t-70.5 10q-78 0 -129.5 -57t-51.5 -162q0 -93 47 -152t135 -59q39 0 76 11t64 28z" />
<glyph horiz-adv-x="573" d="M513 272q0 -86 -39.5 -147t-105 -93t-144.5 -32h-148v415q0 34 -1.5 63.5t-5.5 60.5h162q81 0 144.5 -32t100.5 -91.5t37 -143.5zM224 484h-73v-428h76q97 0 152 57t55 156q0 96 -55.5 155.5t-154.5 59.5z" />
<glyph horiz-adv-x="573" d="M513 272q0 -86 -39.5 -147t-105 -93t-144.5 -32h-148v243h-79v45h79v127q0 34 -1.5 63.5t-5.5 60.5h162q81 0 144.5 -32t100.5 -91.5t37 -143.5zM308 243h-157v-187h76q97 0 152 57t55 156q0 96 -55.5 155.5t-154.5 59.5h-73v-196h157v-45z" />
<glyph horiz-adv-x="573" d="M392 799l24 -18q-29 -38 -55 -77t-49 -79l-61 -7q-25 42 -53.5 82.5t-59.5 80.5l24 18q31 -27 61 -57t58 -60q26 30 53.5 60t57.5 57zM513 272q0 -86 -39.5 -147t-105 -93t-144.5 -32h-148v415q0 34 -1.5 63.5t-5.5 60.5h162q81 0 144.5 -32t100.5 -91.5t37 -143.5z M224 484h-73v-428h76q97 0 152 57t55 156q0 96 -55.5 155.5t-154.5 59.5z" />
<glyph horiz-adv-x="573" d="M513 272q0 -86 -39.5 -147t-105 -93t-144.5 -32h-148v243h-79v45h79v127q0 34 -1.5 63.5t-5.5 60.5h162q81 0 144.5 -32t100.5 -91.5t37 -143.5zM308 243h-157v-187h76q97 0 152 57t55 156q0 96 -55.5 155.5t-154.5 59.5h-73v-196h157v-45z" />
<glyph horiz-adv-x="573" d="M513 272q0 -86 -39.5 -147t-105 -93t-144.5 -32h-148v415q0 34 -1.5 63.5t-5.5 60.5h162q81 0 144.5 -32t100.5 -91.5t37 -143.5zM224 484h-73v-428h76q97 0 152 57t55 156q0 96 -55.5 155.5t-154.5 59.5zM333 -159q0 -24 -15 -43.5t-42 -19.5q-23 0 -36.5 16t-13.5 39 q0 25 16.5 44t41.5 19q22 0 35.5 -15.5t13.5 -39.5z" />
<glyph horiz-adv-x="441" d="M405 60v-60h-329v415q0 34 -1.5 63.5t-5.5 60.5h320l9 -8l-2 -52l-245 6v-192l207 3l-1 -56l-206 3v-188z" />
<glyph horiz-adv-x="441" d="M321 784l5 -13q-31 -47 -71 -85t-89 -71l-25 12q32 41 61.5 84.5t49.5 86.5zM405 60v-60h-329v415q0 34 -1.5 63.5t-5.5 60.5h320l9 -8l-2 -52l-245 6v-192l207 3l-1 -56l-206 3v-188z" />
<glyph horiz-adv-x="441" d="M327 777h34q-9 -64 -44 -102t-88 -38q-49 0 -83.5 36t-41.5 100l34 5q10 -38 35.5 -60t60.5 -22q33 0 58 22.5t35 58.5zM405 60v-60h-329v415q0 34 -1.5 63.5t-5.5 60.5h320l9 -8l-2 -52l-245 6v-192l207 3l-1 -56l-206 3v-188z" />
<glyph horiz-adv-x="441" d="M350 799l24 -18q-29 -38 -55 -77t-49 -79l-62 -7q-25 42 -53 82.5t-59 80.5l24 18q31 -27 61 -57t58 -60q26 30 53.5 60t57.5 57zM405 60v-60h-329v415q0 34 -1.5 63.5t-5.5 60.5h320l9 -8l-2 -52l-245 6v-192l207 3l-1 -56l-206 3v-188z" />
<glyph horiz-adv-x="441" d="M120 613l-24 18q28 39 54 77.5t49 79.5l62 6q25 -42 53 -82.5t60 -80.5l-24 -18q-32 27 -62 57t-58 60q-26 -30 -53.5 -59.5t-56.5 -57.5zM405 60v-60h-329v415q0 34 -1.5 63.5t-5.5 60.5h320l9 -8l-2 -52l-245 6v-192l207 3l-1 -56l-206 3v-188z" />
<glyph horiz-adv-x="441" d="M183 710q0 -24 -14 -43t-39 -19q-22 0 -34.5 15.5t-12.5 36.5q0 24 15.5 43t38.5 19q21 0 33.5 -14.5t12.5 -37.5zM384 710q0 -24 -14 -43t-39 -19q-22 0 -34.5 15.5t-12.5 36.5q0 24 15.5 43t38.5 19q21 0 33.5 -14.5t12.5 -37.5zM405 60v-60h-329v415q0 34 -1.5 63.5 t-5.5 60.5h320l9 -8l-2 -52l-245 6v-192l207 3l-1 -56l-206 3v-188z" />
<glyph horiz-adv-x="441" d="M287 711q0 -25 -15 -44t-42 -19q-23 0 -36.5 16t-13.5 38q0 25 16.5 44t41.5 19q22 0 35.5 -15t13.5 -39zM405 60v-60h-329v415q0 34 -1.5 63.5t-5.5 60.5h320l9 -8l-2 -52l-245 6v-192l207 3l-1 -56l-206 3v-188z" />
<glyph horiz-adv-x="441" d="M405 60v-60h-329v415q0 34 -1.5 63.5t-5.5 60.5h320l9 -8l-2 -52l-245 6v-192l207 3l-1 -56l-206 3v-188zM300 -159q0 -24 -15 -43.5t-41 -19.5q-24 0 -37.5 16t-13.5 39q0 25 17 44t41 19q23 0 36 -15.5t13 -39.5z" />
<glyph horiz-adv-x="441" d="M301 617q-49 33 -89 71t-71 85l4 14l70 14q19 -44 49 -87.5t62 -83.5zM405 60v-60h-329v415q0 34 -1.5 63.5t-5.5 60.5h320l9 -8l-2 -52l-245 6v-192l207 3l-1 -56l-206 3v-188z" />
<glyph horiz-adv-x="441" d="M97 680v49h273v-49h-273zM405 60v-60h-329v415q0 34 -1.5 63.5t-5.5 60.5h320l9 -8l-2 -52l-245 6v-192l207 3l-1 -56l-206 3v-188z" />
<glyph horiz-adv-x="441" d="M405 0q-112 -61 -112 -125q0 -50 52 -50q11 0 24.5 3t31.5 10l13 -32q-39 -31 -92 -31q-44 0 -70.5 21.5t-26.5 60.5q0 80 120 143h-269v415q0 34 -1.5 63.5t-5.5 60.5h320l9 -8l-2 -52l-245 6v-192l207 3l-1 -56l-206 3v-188l254 5v-60z" />
<glyph horiz-adv-x="441" d="M165 764q27 0 50 -14t44 -28t43 -14q20 0 34.5 15.5t25.5 37.5l24 -4q-3 -26 -14 -52t-29.5 -43t-45.5 -17t-51 14t-45.5 28.5t-42.5 14.5q-19 0 -33.5 -15.5t-25.5 -38.5l-24 4q3 25 13.5 51t29 43.5t47.5 17.5zM405 60v-60h-329v415q0 34 -1.5 63.5t-5.5 60.5h320l9 -8 l-2 -52l-245 6v-192l207 3l-1 -56l-206 3v-188z" />
<glyph horiz-adv-x="563" d="M64 239l15 15h345v8q0 115 -55 171t-143 56q-42 0 -80 -12t-68 -30l-5 55q22 15 66.5 30.5t102.5 15.5q78 0 136.5 -32t91.5 -93t33 -148q0 -86 -32.5 -150t-89.5 -99.5t-131 -35.5q-86 0 -138 51.5t-52 154.5q0 11 1 21.5t3 21.5zM136 186q0 -71 31.5 -107.5t87.5 -36.5 q62 0 109 44.5t58 131.5l-285 -8q-1 -10 -1 -24z" />
<glyph horiz-adv-x="415" d="M151 0h-75v415q0 34 -1.5 63.5t-5.5 60.5h314l9 -8l-1 -52l-240 6v-202l202 2l-1 -57l-201 4v-232z" />
<glyph horiz-adv-x="555" d="M486 239l8 -8l-2 -202q-35 -17 -84.5 -27t-92.5 -10q-118 0 -186.5 70.5t-68.5 196.5q0 88 34 153t95 100t145 35q39 0 77 -8t66 -22l-13 -66q-24 15 -56.5 25.5t-70.5 10.5q-88 0 -143.5 -56.5t-55.5 -164.5q0 -94 46.5 -154t139.5 -60q46 0 97 13v28q0 46 -2 74.5 t-6 63.5z" />
<glyph horiz-adv-x="555" d="M370 784l4 -13q-31 -47 -71 -85t-89 -71l-25 12q32 41 61.5 84.5t49.5 86.5zM486 239l8 -8l-2 -202q-35 -17 -84.5 -27t-92.5 -10q-118 0 -186.5 70.5t-68.5 196.5q0 88 34 153t95 100t145 35q39 0 77 -8t66 -22l-13 -66q-24 15 -56.5 25.5t-70.5 10.5 q-88 0 -143.5 -56.5t-55.5 -164.5q0 -94 46.5 -154t139.5 -60q46 0 97 13v28q0 46 -2 74.5t-6 63.5z" />
<glyph horiz-adv-x="555" d="M375 777h35q-10 -64 -45 -102t-88 -38q-49 0 -83.5 36t-41.5 100l34 5q10 -38 35.5 -60t61.5 -22q33 0 57.5 22.5t34.5 58.5zM486 239l8 -8l-2 -202q-35 -17 -84.5 -27t-92.5 -10q-118 0 -186.5 70.5t-68.5 196.5q0 88 34 153t95 100t145 35q39 0 77 -8t66 -22l-13 -66 q-24 15 -56.5 25.5t-70.5 10.5q-88 0 -143.5 -56.5t-55.5 -164.5q0 -94 46.5 -154t139.5 -60q46 0 97 13v28q0 46 -2 74.5t-6 63.5z" />
<glyph horiz-adv-x="555" d="M398 799l24 -18q-29 -38 -55 -77t-49 -79l-61 -7q-25 42 -53.5 82.5t-59.5 80.5l24 18q31 -27 61 -57t58 -60q26 30 53.5 60t57.5 57zM486 239l8 -8l-2 -202q-35 -17 -84.5 -27t-92.5 -10q-118 0 -186.5 70.5t-68.5 196.5q0 88 34 153t95 100t145 35q39 0 77 -8t66 -22 l-13 -66q-24 15 -56.5 25.5t-70.5 10.5q-88 0 -143.5 -56.5t-55.5 -164.5q0 -94 46.5 -154t139.5 -60q46 0 97 13v28q0 46 -2 74.5t-6 63.5z" />
<glyph horiz-adv-x="555" d="M168 613l-24 18q28 39 54 77.5t50 79.5l61 6q25 -42 53 -82.5t60 -80.5l-24 -18q-32 27 -62 57t-58 60q-25 -30 -53 -59.5t-57 -57.5zM486 239l8 -8l-2 -202q-35 -17 -84.5 -27t-92.5 -10q-118 0 -186.5 70.5t-68.5 196.5q0 88 34 153t95 100t145 35q39 0 77 -8t66 -22 l-13 -66q-24 15 -56.5 25.5t-70.5 10.5q-88 0 -143.5 -56.5t-55.5 -164.5q0 -94 46.5 -154t139.5 -60q46 0 97 13v28q0 46 -2 74.5t-6 63.5z" />
<glyph horiz-adv-x="555" d="M486 239l8 -8l-2 -202q-35 -17 -84.5 -27t-92.5 -10q-118 0 -186.5 70.5t-68.5 196.5q0 88 34 153t95 100t145 35q39 0 77 -8t66 -22l-13 -66q-24 15 -56.5 25.5t-70.5 10.5q-88 0 -143.5 -56.5t-55.5 -164.5q0 -94 46.5 -154t139.5 -60q46 0 97 13v28q0 46 -2 74.5 t-6 63.5zM273 -312q13 23 24 46.5t17 47.5q-19 1 -31.5 16t-12.5 36t14 39.5t39 18.5q22 0 36.5 -16t14.5 -45q0 -42 -24 -86t-49 -76z" />
<glyph horiz-adv-x="555" d="M335 711q0 -25 -15 -44t-41 -19q-24 0 -37.5 16t-13.5 38q0 25 17 44t41 19q23 0 36 -15t13 -39zM486 239l8 -8l-2 -202q-35 -17 -84.5 -27t-92.5 -10q-118 0 -186.5 70.5t-68.5 196.5q0 88 34 153t95 100t145 35q39 0 77 -8t66 -22l-13 -66q-24 15 -56.5 25.5 t-70.5 10.5q-88 0 -143.5 -56.5t-55.5 -164.5q0 -94 46.5 -154t139.5 -60q46 0 97 13v28q0 46 -2 74.5t-6 63.5z" />
<glyph horiz-adv-x="583" d="M151 0h-75v412q0 37 -2 67.5t-5 59.5l73 8l9 -8v-243h281v116q0 37 -1.5 67.5t-4.5 59.5l73 8l8 -8v-539h-75v240h-281v-240z" />
<glyph horiz-adv-x="583" d="M151 0h-75v397h-75v45h74q-1 51 -6 97l73 8l9 -8v-97h281q-1 51 -6 97l73 8l8 -8v-97h75v-45h-75v-397h-75v240h-281v-240zM151 296h281v101h-281v-101z" />
<glyph horiz-adv-x="583" d="M178 613l-24 18q28 39 54 77.5t50 79.5l61 6q25 -42 53 -82.5t60 -80.5l-24 -18q-32 27 -62 57t-58 60q-25 -30 -53 -59.5t-57 -57.5zM151 0h-75v412q0 37 -2 67.5t-5 59.5l73 8l9 -8v-243h281v116q0 37 -1.5 67.5t-4.5 59.5l73 8l8 -8v-539h-75v240h-281v-240z" />
<glyph horiz-adv-x="583" d="M151 0h-75v412q0 37 -2 67.5t-5 59.5l73 8l9 -8v-243h281v116q0 37 -1.5 67.5t-4.5 59.5l73 8l8 -8v-539h-75v240h-281v-240zM345 -159q0 -24 -15 -43.5t-41 -19.5q-24 0 -37.5 16t-13.5 39q0 25 17 44t41 19q23 0 36 -15.5t13 -39.5z" />
<glyph horiz-adv-x="226" d="M151 0h-75v412q0 37 -2 67.5t-5 59.5l73 8l9 -8v-539z" />
<glyph horiz-adv-x="226" d="M151 0h-75v412q0 37 -2 67.5t-5 59.5l73 8l9 -8v-539z" />
<glyph horiz-adv-x="226" d="M199 784l5 -13q-32 -47 -72 -85t-89 -71l-25 12q32 41 62 84.5t50 86.5zM151 0h-75v412q0 37 -2 67.5t-5 59.5l73 8l9 -8v-539z" />
<glyph horiz-adv-x="226" d="M189 777h35q-9 -65 -39.5 -103t-77.5 -38q-43 0 -73 36t-36 100l34 5q7 -38 28.5 -59.5t51.5 -21.5q29 0 49 22t28 59zM151 0h-75v412q0 37 -2 67.5t-5 59.5l73 8l9 -8v-539z" />
<glyph horiz-adv-x="226" d="M195 801l24 -13q-19 -40 -35.5 -79.5t-31.5 -80.5l-74 -6q-17 42 -36 83.5t-40 82.5l23 13q24 -27 46.5 -56.5t42.5 -59.5q19 31 39 60.5t42 55.5zM151 0h-75v412q0 37 -2 67.5t-5 59.5l73 8l9 -8v-539z" />
<glyph horiz-adv-x="226" d="M26 621l-24 13q18 40 35 79.5t32 80.5l74 6q17 -42 36 -83.5t40 -82.5l-24 -13q-24 26 -46 55.5t-43 59.5q-19 -30 -38.5 -59.5t-41.5 -55.5zM151 0h-75v412q0 37 -2 67.5t-5 59.5l73 8l9 -8v-539z" />
<glyph horiz-adv-x="226" d="M83 713q0 -24 -13 -43.5t-37 -19.5q-21 0 -33 15.5t-12 37.5q0 24 15 42.5t37 18.5q20 0 31.5 -14.5t11.5 -36.5zM234 713q0 -24 -13.5 -43.5t-37.5 -19.5q-20 0 -32 15.5t-12 37.5q0 24 14.5 42.5t36.5 18.5q20 0 32 -14.5t12 -36.5zM151 0h-75v412q0 37 -2 67.5 t-5 59.5l73 8l9 -8v-539z" />
<glyph horiz-adv-x="226" d="M164 711q0 -25 -15 -44t-41 -19q-23 0 -36.5 16t-13.5 38q0 25 16.5 44t41.5 19q22 0 35 -15t13 -39zM151 0h-75v412q0 37 -2 67.5t-5 59.5l73 8l9 -8v-539z" />
<glyph horiz-adv-x="226" d="M151 0h-75v412q0 37 -2 67.5t-5 59.5l73 8l9 -8v-539zM164 -159q0 -24 -15 -43.5t-41 -19.5q-23 0 -36.5 16t-13.5 39q0 25 16.5 44t41.5 19q22 0 35 -15.5t13 -39.5z" />
<glyph horiz-adv-x="226" d="M179 617q-50 33 -89.5 71t-71.5 85l5 14l69 14q20 -44 49.5 -87.5t62.5 -83.5zM151 0h-75v412q0 37 -2 67.5t-5 59.5l73 8l9 -8v-539z" />
<glyph horiz-adv-x="453" d="M151 0h-75v412q0 37 -2 67.5t-5 59.5l73 8l9 -8v-539zM252 -148l-22 30q33 27 53 70.5t20 109.5v350q0 35 -2 64.5t-7 60.5l75 10l9 -8v-477q0 -84 -29.5 -132t-96.5 -78z" />
<glyph horiz-adv-x="226" d="M11 680v49h201v-49h-201zM151 0h-75v412q0 37 -2 67.5t-5 59.5l73 8l9 -8v-539z" />
<glyph horiz-adv-x="226" d="M151 0q-30 -29 -48 -59t-18 -58q0 -56 53 -56q10 0 23.5 2.5t31.5 9.5l13 -31q-38 -32 -91 -32q-45 0 -71.5 23.5t-26.5 64.5q0 37 22 71.5t61 64.5h-24v412q0 37 -2 67.5t-5 59.5l73 8l9 -8v-539z" />
<glyph horiz-adv-x="226" d="M61 767q22 0 39.5 -14t33 -28t31.5 -14t27.5 15.5t18.5 37.5l23 -4q-1 -24 -9.5 -50t-24.5 -43.5t-40 -17.5q-21 0 -39 14t-34 28t-30 14q-17 0 -28 -15.5t-19 -38.5l-23 4q2 25 10.5 51t24.5 43.5t39 17.5zM151 0h-75v412q0 37 -2 67.5t-5 59.5l73 8l9 -8v-539z" />
<glyph horiz-adv-x="227" d="M27 -148l-23 30q33 27 53 70.5t20 109.5v350q0 35 -2 64.5t-7 60.5l76 10l8 -8v-477q0 -84 -29.5 -132t-95.5 -78z" />
<glyph horiz-adv-x="227" d="M27 -148l-23 30q33 27 53 70.5t20 109.5v350q0 35 -2 64.5t-7 60.5l76 10l8 -8v-477q0 -84 -29.5 -132t-95.5 -78z" />
<glyph horiz-adv-x="227" d="M25 621l-23 13q18 40 34.5 79.5t31.5 80.5l74 6q17 -42 36 -83.5t40 -82.5l-23 -13q-24 26 -46.5 55.5t-42.5 59.5q-19 -30 -39 -59.5t-42 -55.5zM27 -148l-23 30q33 27 53 70.5t20 109.5v350q0 35 -2 64.5t-7 60.5l76 10l8 -8v-477q0 -84 -29.5 -132t-95.5 -78z" />
<glyph horiz-adv-x="499" d="M76 412q0 67 -7 127l72 8l8 -8v-250h79q42 61 86.5 127.5t87.5 130.5l64 -9l6 -8l-182 -253l201 -277l-82 -7q-45 59 -90 119.5t-89 121.5h-81v-234h-73v412z" />
<glyph horiz-adv-x="499" d="M76 412q0 67 -7 127l72 8l8 -8v-250h79q42 61 86.5 127.5t87.5 130.5l64 -9l6 -8l-182 -253l201 -277l-82 -7q-45 59 -90 119.5t-89 121.5h-81v-234h-73v412zM214 -312q13 23 24 46.5t17 47.5q-19 1 -31.5 16t-12.5 36t13.5 39.5t39.5 18.5q22 0 36 -16t14 -45 q0 -42 -23.5 -86t-48.5 -76z" />
<glyph horiz-adv-x="499" d="M76 412q0 67 -7 127l72 8l8 -8v-250h79q42 61 86.5 127.5t87.5 130.5l64 -9l6 -8l-182 -253l201 -277l-82 -7q-45 59 -90 119.5t-89 121.5h-81v-234h-73v412z" />
<glyph horiz-adv-x="414" d="M395 60v-60h-319v413q0 36 -2 66.5t-5 59.5l73 8l9 -8v-484z" />
<glyph horiz-adv-x="414" d="M249 784l5 -13q-31 -47 -71 -85t-89 -71l-25 12q32 41 61.5 84.5t49.5 86.5zM395 60v-60h-319v413q0 36 -2 66.5t-5 59.5l73 8l9 -8v-484z" />
<glyph horiz-adv-x="414" d="M355 585l7 -12q-9 -57 -28.5 -109t-47.5 -102l-26 4q12 54 20 109t9 106zM395 60v-60h-319v413q0 36 -2 66.5t-5 59.5l73 8l9 -8v-484z" />
<glyph horiz-adv-x="414" d="M395 60v-60h-319v413q0 36 -2 66.5t-5 59.5l73 8l9 -8v-484zM185 -312q14 23 24.5 46.5t16.5 47.5q-19 1 -31.5 16t-12.5 36t14 39.5t39 18.5q23 0 37 -16t14 -45q0 -42 -24 -86t-49 -76z" />
<glyph horiz-adv-x="414" d="M317 274q0 -25 -15 -44t-41 -19q-23 0 -36.5 16t-13.5 39q0 24 16.5 43t41.5 19q22 0 35 -15t13 -39zM395 60v-60h-319v413q0 36 -2 66.5t-5 59.5l73 8l9 -8v-484z" />
<glyph horiz-adv-x="414" d="M395 60v-60h-319v213l-99 -55l-22 41l121 66v148q0 36 -2 66.5t-5 59.5l73 8l9 -8v-232l130 72l23 -40l-153 -85v-199z" />
<glyph horiz-adv-x="735" d="M606 547l9 -8l70 -539h-74l-27 204q-10 71 -16.5 132t-10.5 119h-2q-17 -63 -37.5 -125.5t-42.5 -125.5l-69 -204h-84l-69 204q-28 80 -46.5 137t-33.5 114h-2q-5 -65 -13 -128t-16 -123l-27 -204h-65l72 542l89 5l98 -265q13 -42 30 -100t29 -113h1q16 65 31 118t28 95 l96 260z" />
<glyph horiz-adv-x="582" d="M297 318q45 -65 78.5 -115t62.5 -106h2q-2 21 -3 41t-2 49t-1 78.5v130.5q0 41 -2 75.5t-5 67.5l71 8l8 -9v-538h-74q-41 61 -78.5 117t-73.5 110q-45 65 -76.5 112.5t-60.5 101.5h-1q4 -50 5 -94t1 -87v-260h-72v415q0 66 -7 124l77 8q40 -62 78 -118.5t73 -110.5z" />
<glyph horiz-adv-x="582" d="M381 784l5 -13q-32 -47 -71.5 -85t-89.5 -71l-25 12q33 41 62.5 84.5t49.5 86.5zM297 318q45 -65 78.5 -115t62.5 -106h2q-2 21 -3 41t-2 49t-1 78.5v130.5q0 41 -2 75.5t-5 67.5l71 8l8 -9v-538h-74q-41 61 -78.5 117t-73.5 110q-45 65 -76.5 112.5t-60.5 101.5h-1 q4 -50 5 -94t1 -87v-260h-72v415q0 66 -7 124l77 8q40 -62 78 -118.5t73 -110.5z" />
<glyph horiz-adv-x="582" d="M409 799l24 -18q-28 -38 -54 -77t-49 -79l-62 -7q-25 42 -53 82.5t-60 80.5l24 18q32 -27 62 -57t58 -60q25 30 53 60t57 57zM297 318q45 -65 78.5 -115t62.5 -106h2q-2 21 -3 41t-2 49t-1 78.5v130.5q0 41 -2 75.5t-5 67.5l71 8l8 -9v-538h-74q-41 61 -78.5 117 t-73.5 110q-45 65 -76.5 112.5t-60.5 101.5h-1q4 -50 5 -94t1 -87v-260h-72v415q0 66 -7 124l77 8q40 -62 78 -118.5t73 -110.5z" />
<glyph horiz-adv-x="582" d="M297 318q45 -65 78.5 -115t62.5 -106h2q-2 21 -3 41t-2 49t-1 78.5v130.5q0 41 -2 75.5t-5 67.5l71 8l8 -9v-538h-74q-41 61 -78.5 117t-73.5 110q-45 65 -76.5 112.5t-60.5 101.5h-1q4 -50 5 -94t1 -87v-260h-72v415q0 66 -7 124l77 8q40 -62 78 -118.5t73 -110.5z M253 -312q14 23 24.5 46.5t16.5 47.5q-19 1 -31.5 16t-12.5 36t14 39.5t39 18.5q23 0 37 -16t14 -45q0 -42 -24 -86t-49 -76z" />
<glyph horiz-adv-x="582" d="M346 711q0 -25 -15 -44t-41 -19q-23 0 -36.5 16t-13.5 38q0 25 16.5 44t41.5 19q22 0 35 -15t13 -39zM297 318q45 -65 78.5 -115t62.5 -106h2q-2 21 -3 41t-2 49t-1 78.5v130.5q0 41 -2 75.5t-5 67.5l71 8l8 -9v-538h-74q-41 61 -78.5 117t-73.5 110q-45 65 -76.5 112.5 t-60.5 101.5h-1q4 -50 5 -94t1 -87v-260h-72v415q0 66 -7 124l77 8q40 -62 78 -118.5t73 -110.5z" />
<glyph horiz-adv-x="582" d="M148 0h-72v415q0 66 -7 124l77 8q40 -62 78 -118.5t73 -110.5q45 -65 78.5 -115t62.5 -106h2q-2 23 -3 44.5t-2 51t-1 77.5v126q0 41 -2 75.5t-5 67.5l71 8l8 -9v-476q0 -84 -29 -132t-96 -78l-23 30q26 19 45 49t25 74q-39 59 -75.5 114t-72.5 108q-45 65 -76.5 112.5 t-60.5 101.5h-1q4 -50 5 -94t1 -87v-260z" />
<glyph horiz-adv-x="583" d="M27 -148l-23 30q33 27 53 70.5t20 109.5v353q0 66 -7 124l77 8q41 -62 78.5 -118.5t73.5 -110.5q44 -65 77.5 -115t63.5 -106h1q-2 23 -3 44.5t-2 51t-1 77.5v126q0 41 -2 75.5t-5 67.5l71 8l8 -9v-538h-74q-41 61 -78 117t-74 110q-45 65 -76.5 112.5t-59.5 101.5h-2 q5 -50 5.5 -94t0.5 -87v-198q0 -84 -28.5 -132t-93.5 -78z" />
<glyph horiz-adv-x="582" d="M225 764q27 0 49.5 -14t44 -28t42.5 -14t35 15.5t26 37.5l24 -4q-3 -26 -14 -52t-30 -43t-46 -17q-26 0 -50 14t-45.5 28.5t-42.5 14.5q-19 0 -33.5 -15.5t-26.5 -38.5l-24 4q4 25 14.5 51t29 43.5t47.5 17.5zM297 318q45 -65 78.5 -115t62.5 -106h2q-2 21 -3 41t-2 49 t-1 78.5v130.5q0 41 -2 75.5t-5 67.5l71 8l8 -9v-538h-74q-41 61 -78.5 117t-73.5 110q-45 65 -76.5 112.5t-60.5 101.5h-1q4 -50 5 -94t1 -87v-260h-72v415q0 66 -7 124l77 8q40 -62 78 -118.5t73 -110.5z" />
<glyph horiz-adv-x="602" d="M542 271q0 -91 -33.5 -153.5t-89.5 -94t-123 -31.5t-120.5 31.5t-84.5 91.5t-31 146q0 89 32.5 153t88.5 98.5t127 34.5q68 0 121 -33.5t83 -95.5t30 -147zM138 269q0 -96 42.5 -157.5t120.5 -61.5q75 0 118.5 58t43.5 161q0 96 -40 158t-117 62q-75 0 -121.5 -58.5 t-46.5 -161.5z" />
<glyph horiz-adv-x="602" d="M389 784l5 -13q-32 -47 -71.5 -85t-89.5 -71l-25 12q33 41 62.5 84.5t49.5 86.5zM542 271q0 -91 -33.5 -153.5t-89.5 -94t-123 -31.5t-120.5 31.5t-84.5 91.5t-31 146q0 89 32.5 153t88.5 98.5t127 34.5q68 0 121 -33.5t83 -95.5t30 -147zM138 269q0 -96 42.5 -157.5 t120.5 -61.5q75 0 118.5 58t43.5 161q0 96 -40 158t-117 62q-75 0 -121.5 -58.5t-46.5 -161.5z" />
<glyph horiz-adv-x="602" d="M395 777h34q-9 -64 -44.5 -102t-87.5 -38q-50 0 -84 36t-41 100l34 5q10 -38 35 -60t61 -22q33 0 57.5 22.5t35.5 58.5zM542 271q0 -91 -33.5 -153.5t-89.5 -94t-123 -31.5t-120.5 31.5t-84.5 91.5t-31 146q0 89 32.5 153t88.5 98.5t127 34.5q68 0 121 -33.5t83 -95.5 t30 -147zM138 269q0 -96 42.5 -157.5t120.5 -61.5q75 0 118.5 58t43.5 161q0 96 -40 158t-117 62q-75 0 -121.5 -58.5t-46.5 -161.5z" />
<glyph horiz-adv-x="602" d="M417 799l24 -18q-28 -38 -54 -77t-49 -79l-62 -7q-25 42 -53 82.5t-60 80.5l24 18q32 -27 62 -57t58 -60q25 30 53 60t57 57zM542 271q0 -91 -33.5 -153.5t-89.5 -94t-123 -31.5t-120.5 31.5t-84.5 91.5t-31 146q0 89 32.5 153t88.5 98.5t127 34.5q68 0 121 -33.5 t83 -95.5t30 -147zM138 269q0 -96 42.5 -157.5t120.5 -61.5q75 0 118.5 58t43.5 161q0 96 -40 158t-117 62q-75 0 -121.5 -58.5t-46.5 -161.5z" />
<glyph horiz-adv-x="602" d="M187 613l-24 18q29 39 55 77.5t49 79.5l62 6q24 -42 52.5 -82.5t59.5 -80.5l-24 -18q-31 27 -61 57t-58 60q-26 -30 -53.5 -59.5t-57.5 -57.5zM542 271q0 -91 -33.5 -153.5t-89.5 -94t-123 -31.5t-120.5 31.5t-84.5 91.5t-31 146q0 89 32.5 153t88.5 98.5t127 34.5 q68 0 121 -33.5t83 -95.5t30 -147zM138 269q0 -96 42.5 -157.5t120.5 -61.5q75 0 118.5 58t43.5 161q0 96 -40 158t-117 62q-75 0 -121.5 -58.5t-46.5 -161.5z" />
<glyph horiz-adv-x="602" d="M251 710q0 -24 -14 -43t-39 -19q-22 0 -34.5 15.5t-12.5 36.5q0 24 15.5 43t38.5 19q21 0 33.5 -14.5t12.5 -37.5zM451 710q0 -24 -14 -43t-38 -19q-22 0 -35 15.5t-13 36.5q0 24 16 43t39 19q21 0 33 -14.5t12 -37.5zM542 271q0 -91 -33.5 -153.5t-89.5 -94t-123 -31.5 t-120.5 31.5t-84.5 91.5t-31 146q0 89 32.5 153t88.5 98.5t127 34.5q68 0 121 -33.5t83 -95.5t30 -147zM138 269q0 -96 42.5 -157.5t120.5 -61.5q75 0 118.5 58t43.5 161q0 96 -40 158t-117 62q-75 0 -121.5 -58.5t-46.5 -161.5z" />
<glyph horiz-adv-x="602" d="M542 271q0 -91 -33.5 -153.5t-89.5 -94t-123 -31.5t-120.5 31.5t-84.5 91.5t-31 146q0 89 32.5 153t88.5 98.5t127 34.5q68 0 121 -33.5t83 -95.5t30 -147zM138 269q0 -96 42.5 -157.5t120.5 -61.5q75 0 118.5 58t43.5 161q0 96 -40 158t-117 62q-75 0 -121.5 -58.5 t-46.5 -161.5zM354 -159q0 -24 -15 -43.5t-41 -19.5q-23 0 -36.5 16t-13.5 39q0 25 16.5 44t41.5 19q22 0 35 -15.5t13 -39.5z" />
<glyph horiz-adv-x="602" d="M369 617q-50 33 -89.5 71t-71.5 85l5 14l69 14q20 -44 49.5 -87.5t62.5 -83.5zM542 271q0 -91 -33.5 -153.5t-89.5 -94t-123 -31.5t-120.5 31.5t-84.5 91.5t-31 146q0 89 32.5 153t88.5 98.5t127 34.5q68 0 121 -33.5t83 -95.5t30 -147zM138 269q0 -96 42.5 -157.5 t120.5 -61.5q75 0 118.5 58t43.5 161q0 96 -40 158t-117 62q-75 0 -121.5 -58.5t-46.5 -161.5z" />
</font>
</defs>
</svg>
