<svg xmlns="http://www.w3.org/2000/svg" xmlns:xlink="http://www.w3.org/1999/xlink" width="396.459" height="136.541" viewBox="0 0 396.459 136.541">
  <defs>
    <clipPath id="clip-path">
      <rect id="Rectangle_1" data-name="Rectangle 1" width="396.459" height="136.541" fill="#2e4594"/>
    </clipPath>
  </defs>
  <g id="logo_en_blanco" data-name="logo en blanco" transform="translate(-762 -472)">
    <g id="Group_2" data-name="Group 2" transform="translate(762 472)">
      <g id="Group_1" data-name="Group 1" clip-path="url(#clip-path)">
        <path id="Path_1" data-name="Path 1" d="M141.65,2.071l3.78-.271.392.39V15.518c0,3,1.621,4.563,4.052,4.563,2.4,0,3.993-1.562,3.993-4.563V6.483a28.177,28.177,0,0,0-.3-4.412l3.993-.24V15.788c0,4.832-3.573,7.264-7.925,7.264-4.323,0-7.683-2.462-7.683-7.264V7.2a41.566,41.566,0,0,0-.3-5.133" fill="#2e4594"/>
        <path id="Path_2" data-name="Path 2" d="M169.229,22.751V12.906a18.612,18.612,0,0,0-.6-4.713l3.511-.69a13.159,13.159,0,0,1,.66,2.191A7.161,7.161,0,0,1,177.693,7.5c2.551,0,4.112,1.652,4.112,4.593V22.751h-3.781V12.817c0-1.832-.721-2.7-2.192-2.7a4.828,4.828,0,0,0-2.852,1.111V22.751Z" fill="#2e4594"/>
        <path id="Path_3" data-name="Path 3" d="M195.279,5.161A2.1,2.1,0,0,1,193.117,3,2.6,2.6,0,0,1,195.729.449,2,2,0,0,1,197.8,2.582a2.529,2.529,0,0,1-2.521,2.579M193.6,12.936a30.588,30.588,0,0,0-.36-4.983l3.693-.451.42.421V22.751H193.6Z" fill="#2e4594"/>
        <path id="Path_4" data-name="Path 4" d="M216.167,22.812h-4.052L207.283,7.834l3.931-.331,2.012,7.534a27.344,27.344,0,0,1,1.26,5.1h.061a35.535,35.535,0,0,1,1.351-5.1l2.01-7.534,2.882.24.239.421Z" fill="#2e4594"/>
        <path id="Path_5" data-name="Path 5" d="M241.8,15.667h-8.434c.3,3.242,2.01,4.682,4.5,4.682a7.428,7.428,0,0,0,3.723-1.081l.24,2.493a9.22,9.22,0,0,1-4.953,1.291c-4.442,0-7.413-2.7-7.413-7.565,0-4.983,3.151-7.985,7.053-7.985,3.572,0,5.763,2.493,5.763,6.064,0,.481,0,1.111-.03,1.65Zm-8.464-1.38,5.222-.21c.03-.331.03-.63.03-1.081,0-1.862-.75-3.242-2.25-3.242-1.683,0-2.883,1.681-3,4.533" fill="#2e4594"/>
        <path id="Path_6" data-name="Path 6" d="M253.109,22.751V12.906a18.612,18.612,0,0,0-.6-4.713l3.511-.69a12.911,12.911,0,0,1,.81,3.122C257.911,8.793,259.2,7.5,260.823,7.5a2.531,2.531,0,0,1,1.471.42l-.39,3.543a5.833,5.833,0,0,0-1.681-.241,5.629,5.629,0,0,0-3.363,1.2V22.751Z" fill="#2e4594"/>
        <path id="Path_7" data-name="Path 7" d="M281.141,11.225a9.106,9.106,0,0,0-4.052-1.2c-1.472,0-2.371.661-2.371,1.65,0,2.7,7.173,2.311,7.173,6.994,0,2.672-2.342,4.383-6,4.383a11.122,11.122,0,0,1-4.922-1.081l.27-2.852a10.4,10.4,0,0,0,4.743,1.41c1.5,0,2.281-.689,2.281-1.59,0-2.7-7.143-2.311-7.143-6.964,0-2.671,2.37-4.473,6-4.473a11.611,11.611,0,0,1,4.292.841Z" fill="#2e4594"/>
        <path id="Path_8" data-name="Path 8" d="M294.2,5.161A2.1,2.1,0,0,1,292.033,3,2.6,2.6,0,0,1,294.645.449a2,2,0,0,1,2.071,2.133A2.529,2.529,0,0,1,294.2,5.161m-1.681,7.775a30.588,30.588,0,0,0-.36-4.983l3.693-.451.42.421V22.751h-3.753Z" fill="#2e4594"/>
        <path id="Path_9" data-name="Path 9" d="M320.184,0l.42.421V18.7a12.332,12.332,0,0,0,.691,4.052l-3.242.3a15.418,15.418,0,0,1-.81-2.042h-.061a4.868,4.868,0,0,1-4.111,2.042c-3.421,0-5.793-2.733-5.793-7.294,0-5.343,3.272-8.255,7.684-8.255a9.176,9.176,0,0,1,1.891.21V5.432a30.357,30.357,0,0,0-.33-4.983Zm-5.553,20.8a3.013,3.013,0,0,0,2.222-.96V9.725a8.635,8.635,0,0,0-1.471-.15c-2.611,0-4.232,1.951-4.232,5.7,0,3.331,1.291,5.523,3.481,5.523" fill="#2e4594"/>
        <path id="Path_10" data-name="Path 10" d="M343.833,22.751l-3.151.3a7.93,7.93,0,0,1-.812-2.072h-.089a5.635,5.635,0,0,1-4.472,2.072c-2.37,0-3.933-1.351-3.933-3.6,0-3.422,3.6-4.862,8.136-5.042v-1.44c0-1.742-.9-2.673-2.793-2.673a9.316,9.316,0,0,0-4.533,1.321l-.209-2.941A16.088,16.088,0,0,1,337.65,7.5c3.721,0,5.614,1.8,5.614,4.953,0,2.1-.091,4.413-.091,6.183a12.564,12.564,0,0,0,.66,4.112M337.021,20.8a3.863,3.863,0,0,0,2.491-1.02V15.728c-2.431.21-4.443,1.2-4.443,3.091a1.866,1.866,0,0,0,1.952,1.981" fill="#2e4594"/>
        <path id="Path_11" data-name="Path 11" d="M366.581,0l.42.421V18.7a12.333,12.333,0,0,0,.691,4.052l-3.242.3a15.418,15.418,0,0,1-.81-2.042h-.061a4.868,4.868,0,0,1-4.111,2.042c-3.421,0-5.793-2.733-5.793-7.294,0-5.343,3.271-8.255,7.684-8.255a9.176,9.176,0,0,1,1.891.21V5.432a30.357,30.357,0,0,0-.33-4.983Zm-5.553,20.8a3.013,3.013,0,0,0,2.222-.96V9.725a8.635,8.635,0,0,0-1.471-.15c-2.611,0-4.232,1.951-4.232,5.7,0,3.331,1.291,5.523,3.481,5.523" fill="#2e4594"/>
        <path id="Path_12" data-name="Path 12" d="M104.683,103.845l9.268-16.17h-18.5L70.817,44.567,61.565,60.733l24.649,43.112Z" fill="#2e4594"/>
        <path id="Path_13" data-name="Path 13" d="M70.828,1.486,52.343,1.475l9.24,16.155L36.945,60.74H55.419L80.054,17.63Z" fill="#2e4594"/>
        <path id="Path_14" data-name="Path 14" d="M0,82.275,9.215,98.461,18.441,82.3H67.747L58.505,66.135H9.215Z" fill="#2e4594"/>
        <path id="Path_15" data-name="Path 15" d="M117.006,82.279l9.259-16.144H107.791L83.153,23.026l-9.24,16.155,24.622,43.1Z" fill="#2e4594"/>
        <path id="Path_16" data-name="Path 16" d="M46.186,1.486,27.7,1.475l9.241,16.148-24.65,43.11H30.775l24.661-43.1Z" fill="#2e4594"/>
        <path id="Path_17" data-name="Path 17" d="M12.294,103.845,21.536,120l9.225-16.155H80.054L70.828,87.689H21.536Z" fill="#2e4594"/>
        <path id="Path_18" data-name="Path 18" d="M395.855,84.474a6.6,6.6,0,1,1-6.6-6.668,6.64,6.64,0,0,1,6.6,6.668m-6.6-7.265a7.265,7.265,0,1,0,7.2,7.265,7.235,7.235,0,0,0-7.2-7.265" fill="#2e4594"/>
        <path id="Path_19" data-name="Path 19" d="M175.12,90.929H142.38V49.03a117.255,117.255,0,0,0-.73-13.858l9.968-.81,1.135,1.135V83.392l22.367-.568Z" fill="#2e4594"/>
        <path id="Path_20" data-name="Path 20" d="M212.8,90.929l-8.511.81a21.122,21.122,0,0,1-2.187-5.591h-.244c-2.187,3-6.726,5.591-12.075,5.591-6.4,0-10.617-3.647-10.617-9.725,0-9.239,9.726-13.129,21.962-13.615v-3.89c0-4.7-2.431-7.212-7.536-7.212a25.112,25.112,0,0,0-12.237,3.565l-.568-7.942A43.39,43.39,0,0,1,196.1,49.76c10.05,0,15.156,4.862,15.156,13.371,0,5.673-.244,11.913-.244,16.7a33.865,33.865,0,0,0,1.784,11.1m-18.4-5.268a10.406,10.406,0,0,0,6.725-2.756V71.966c-6.563.566-11.993,3.241-11.993,8.346a5.036,5.036,0,0,0,5.268,5.349" fill="#2e4594"/>
        <path id="Path_21" data-name="Path 21" d="M242.777,91.739c-5.106,0-11.589-1.053-15.155-3l.728-8.835c4.215,2.514,10.7,3.729,14.588,3.729,5.755,0,8.916-2.593,8.916-6.808,0-5.836-6-8.348-11.915-11.345-6-3.081-12.074-6.808-12.074-15.319,0-10.048,8.429-15.8,20.261-15.8a36.848,36.848,0,0,1,12.966,2.268l-1.3,9a24.708,24.708,0,0,0-11.832-3.161c-6.079,0-9.4,2.674-9.4,6.889,0,5.592,6.08,7.942,11.914,10.941s12.076,6.969,12.076,15.8c0,10.05-8.1,15.641-19.774,15.641" fill="#2e4594"/>
        <path id="Path_22" data-name="Path 22" d="M299.582,90.929l-8.511.81a21.121,21.121,0,0,1-2.187-5.591h-.244c-2.187,3-6.726,5.591-12.075,5.591-6.4,0-10.617-3.647-10.617-9.725,0-9.239,9.726-13.129,21.962-13.615v-3.89c0-4.7-2.431-7.212-7.536-7.212a25.112,25.112,0,0,0-12.237,3.565l-.568-7.942a43.39,43.39,0,0,1,15.317-3.16c10.05,0,15.156,4.862,15.156,13.371,0,5.673-.244,11.913-.244,16.7a33.864,33.864,0,0,0,1.784,11.1m-18.4-5.268A10.406,10.406,0,0,0,287.91,82.9V71.966c-6.563.566-11.993,3.241-11.993,8.346a5.036,5.036,0,0,0,5.268,5.349" fill="#2e4594"/>
        <path id="Path_23" data-name="Path 23" d="M306.625,90.929V44.168a93.291,93.291,0,0,0-.972-13.454l9.968-1.215,1.134,1.134v60.3Z" fill="#2e4594"/>
        <path id="Path_24" data-name="Path 24" d="M326.4,90.929V44.168a93.287,93.287,0,0,0-.972-13.454l9.968-1.215,1.134,1.134v60.3Z" fill="#2e4594"/>
        <path id="Path_25" data-name="Path 25" d="M377.367,71.8H354.6c.81,8.752,5.429,12.642,12.155,12.642A20.049,20.049,0,0,0,376.8,81.528l.647,6.727a24.873,24.873,0,0,1-13.372,3.484c-11.993,0-20.016-7.293-20.016-20.422,0-13.452,8.508-21.557,19.044-21.557,9.645,0,15.56,6.727,15.56,16.37,0,1.3,0,3-.081,4.458Zm-22.853-3.728,14.1-.568c.081-.891.081-1.7.081-2.918,0-5.024-2.027-8.752-6.079-8.752-4.538,0-7.78,4.539-8.1,12.238" fill="#2e4594"/>
        <path id="Path_26" data-name="Path 26" d="M386.871,88.477V82.513a13.077,13.077,0,0,0-.1-1.9h2.4c1.943,0,3.062.948,3.062,2.457a2.218,2.218,0,0,1-1.428,2.159l1.8,3.245-1.668.08c-.491-.937-.971-1.942-1.416-2.948h-1.189v2.868Zm1.462-6.8v2.913h.72c1.142,0,1.657-.536,1.657-1.44,0-.867-.457-1.473-1.646-1.473Z" fill="#2e4594"/>
        <path id="Path_27" data-name="Path 27" d="M157.012,122.012h.1a89.387,89.387,0,0,1-.34-10.65c0-2.621-.1-4.867-.307-7.01l4.016-.306.476.476v23.241H156.74c-2.11-3.471-3.879-6.533-5.616-9.392a78.174,78.174,0,0,1-4.524-8.064h-.069a62.7,62.7,0,0,1,.306,7.315v10.141h-4.151V110a49.036,49.036,0,0,0-.306-5.648l4.423-.272c2.109,3.573,3.879,6.6,5.58,9.425a71.254,71.254,0,0,1,4.629,8.507" fill="#2e4594"/>
        <path id="Path_28" data-name="Path 28" d="M180.013,119.732h-9.562c.34,3.675,2.279,5.308,5.1,5.308a8.41,8.41,0,0,0,4.219-1.225l.273,2.825a10.456,10.456,0,0,1-5.615,1.463c-5.036,0-8.405-3.063-8.405-8.575,0-5.648,3.574-9.051,8-9.051,4.05,0,6.534,2.824,6.534,6.874,0,.544,0,1.258-.035,1.871Zm-9.6-1.565,5.921-.238c.034-.374.034-.715.034-1.225,0-2.11-.851-3.676-2.553-3.676-1.9,0-3.266,1.907-3.4,5.139" fill="#2e4594"/>
        <path id="Path_29" data-name="Path 29" d="M183.788,110.817h12.353l.442,2.722-8.473,10.888,3.471-.034c1.769,0,3.572-.067,5.273-.238l-.238,3.607H183.925l-.477-2.722,8.677-10.889-8.575.17Z" fill="#2e4594"/>
        <path id="Path_30" data-name="Path 30" d="M213.732,127.763l-3.574.34a8.924,8.924,0,0,1-.919-2.348h-.1a6.394,6.394,0,0,1-5.07,2.348c-2.689,0-4.457-1.531-4.457-4.083,0-3.879,4.083-5.513,9.22-5.717V116.67c0-1.973-1.02-3.028-3.164-3.028a10.549,10.549,0,0,0-5.139,1.5l-.238-3.335a18.215,18.215,0,0,1,6.432-1.327c4.22,0,6.363,2.042,6.363,5.614,0,2.382-.1,5-.1,7.01a14.228,14.228,0,0,0,.749,4.662m-7.725-2.212a4.374,4.374,0,0,0,2.824-1.157V119.8c-2.756.238-5.036,1.361-5.036,3.5a2.115,2.115,0,0,0,2.212,2.246" fill="#2e4594"/>
        <path id="Path_31" data-name="Path 31" d="M218.731,127.763V108.129a34.792,34.792,0,0,0-.408-5.648l4.151-.511.511.477v10.31a8.064,8.064,0,0,1,5.342-2.28c2.892,0,4.662,1.872,4.662,5.206v12.08H228.7V116.5c0-2.075-.818-3.061-2.485-3.061a5.26,5.26,0,0,0-3.232,1.259v13.066Z" fill="#2e4594"/>
        <path id="Path_32" data-name="Path 32" d="M238.4,111.021l4.151-.544.476.477v11.091c0,1.872.783,2.825,2.383,2.825a5.219,5.219,0,0,0,3.1-1.191V110.818l4.254-.341v12.657a17.666,17.666,0,0,0,.579,4.595l-3.54.373a15.665,15.665,0,0,1-.884-2.518h-.136A7.526,7.526,0,0,1,243.4,128.1c-2.858,0-4.628-1.8-4.628-4.729v-6.7a42.984,42.984,0,0,0-.374-5.649" fill="#2e4594"/>
        <path id="Path_33" data-name="Path 33" d="M271.438,127.763l-3.574.34a8.923,8.923,0,0,1-.919-2.348h-.1a6.394,6.394,0,0,1-5.07,2.348c-2.689,0-4.457-1.531-4.457-4.083,0-3.879,4.083-5.513,9.22-5.717V116.67c0-1.973-1.02-3.028-3.164-3.028a10.549,10.549,0,0,0-5.139,1.5L258,111.8a18.215,18.215,0,0,1,6.432-1.327c4.22,0,6.363,2.042,6.363,5.614,0,2.382-.1,5-.1,7.01a14.228,14.228,0,0,0,.749,4.662m-7.725-2.212a4.374,4.374,0,0,0,2.824-1.157V119.8c-2.756.238-5.036,1.361-5.036,3.5a2.115,2.115,0,0,0,2.212,2.246" fill="#2e4594"/>
        <path id="Path_34" data-name="Path 34" d="M276.54,127.763V108.129a39.087,39.087,0,0,0-.408-5.648l4.185-.511.476.477v25.316Z" fill="#2e4594"/>
        <path id="Path_35" data-name="Path 35" d="M298.282,115.036a7.164,7.164,0,0,0-4.015-1.4c-2.518,0-4.185,1.94-4.185,5.411,0,3.709,1.769,5.988,4.832,5.988a7.817,7.817,0,0,0,3.81-1.156l.273,2.824a9.218,9.218,0,0,1-5.138,1.394c-4.866-.034-8.167-3.266-8.167-8.642,0-5.513,3.505-8.984,8.439-8.984a10.119,10.119,0,0,1,5.1,1.259Z" fill="#2e4594"/>
        <path id="Path_36" data-name="Path 36" d="M309.409,128.1c-4.356,0-7.622-3.1-7.622-8.574,0-5.786,3.606-9.052,8.064-9.052,4.525,0,7.656,3.335,7.656,8.711,0,5.921-3.777,8.915-8.1,8.915m3.709-25.282a20.339,20.339,0,0,1-5.376,5.546l-1.6-.374a35.6,35.6,0,0,0,2.893-6.261l3.844.375Zm-3.471,22.73c2.279,0,3.437-2.313,3.437-6.125,0-3.913-1.021-6.4-3.437-6.4-2.178,0-3.471,2.042-3.471,6.159,0,3.844,1.055,6.363,3.471,6.363" fill="#2e4594"/>
        <path id="Path_37" data-name="Path 37" d="M330.062,126.741c-1.6,5.036-3.981,9.563-9.732,9.8l-.613-3.742c3.2-.171,5.615-1.77,6.976-5.275h-1.77l-5.341-16.674,4.457-.374,2.28,8.541a31.278,31.278,0,0,1,1.429,5.785h.068a41.627,41.627,0,0,1,1.531-5.785l2.279-8.541,3.267.273.273.476Z" fill="#2e4594"/>
        <path id="Path_38" data-name="Path 38" d="M344.625,128.1c-4.356,0-7.622-3.1-7.622-8.574,0-5.786,3.606-9.052,8.064-9.052,4.525,0,7.656,3.335,7.656,8.711,0,5.921-3.777,8.915-8.1,8.915m.238-2.552c2.279,0,3.437-2.313,3.437-6.125,0-3.913-1.021-6.4-3.437-6.4-2.178,0-3.471,2.042-3.471,6.159,0,3.844,1.055,6.363,3.471,6.363" fill="#2e4594"/>
        <path id="Path_39" data-name="Path 39" d="M361.909,113.028v8.779c0,2.314.851,3.233,2.348,3.233a5.262,5.262,0,0,0,2.688-.817l.307,2.655A8.18,8.18,0,0,1,362.9,128.1c-3.335,0-5.24-2.008-5.24-6.159v-8.982l-2.383-.035v-1.6l2.485-.51,1.054-4.22,2.655-.2.51.511-.068,3.913h4.628l.306.476-.17,1.838Z" fill="#2e4594"/>
        <path id="Path_40" data-name="Path 40" d="M371.027,127.763V108.129a39.087,39.087,0,0,0-.408-5.648l4.185-.511.476.477v25.316Z" fill="#2e4594"/>
      </g>
    </g>
  </g>
</svg>
